<svg xmlns="http://www.w3.org/2000/svg" viewBox="0 0 321.9 517.6"><defs><style>.cls-1{stroke-dasharray:0 0 0 0 2.9 1.4 .2 1.4}.cls-1,.cls-2,.cls-3,.cls-4,.cls-5,.cls-6{fill:none}.cls-1,.cls-2,.cls-3,.cls-5,.cls-6{stroke-linecap:round;stroke-linejoin:round}.cls-1,.cls-6{stroke:#194164;stroke-width:.3px}.cls-2{stroke:#646464}.cls-2,.cls-5{stroke-width:.1px}.cls-7{clip-path:url(#clippath)}.cls-3{stroke:#000;stroke-width:.3px}.cls-4{clip-rule:evenodd}.cls-8{clip-path:url(#clippath-1)}.cls-9{clip-path:url(#clippath-4)}.cls-10{clip-path:url(#clippath-3)}.cls-11{clip-path:url(#clippath-2)}.cls-12{clip-path:url(#clippath-5)}.cls-13{fill:#fff}.cls-13,.cls-14{fill-rule:evenodd}.cls-5{stroke:#969696}</style><clipPath id="clippath"><path class="cls-4" d="M2.2 498.6h4.1l15.1 14.9H2.2"/></clipPath><clipPath id="clippath-1"><path class="cls-4" d="M6.3 498.6V489h15.1v24.5"/></clipPath><clipPath id="clippath-2"><path class="cls-4" d="M6.3 506.1v-9.6l15.1-14.9v24.5"/></clipPath><clipPath id="clippath-3"><path class="cls-4" d="M6.3 496.5H2.2v-14.9h19.2"/></clipPath><clipPath id="clippath-4"><path class="cls-4" d="M14 496.5H2.2v-14.9H14"/></clipPath><clipPath id="clippath-5"><path class="cls-4" d="M306.6 506.1v-9.6l14.8-14.9v24.5"/></clipPath></defs><g id="Plan"><path class="cls-5" d="M2.2 506.1l1 .2M3.2 506.3l1-.2M4.2 506.1l1.2-.3M5.4 505.8l.9.3M6.3 506.1l1.2.2M7.5 506.3l1-.2M8.5 506.1l1.2-.3M9.7 505.8l.9.3"/><g class="cls-7"><path class="cls-5" d="M10.6 506.1l1 .2M11.6 506.3l1.2-.2M12.8 506.1l1-.3M13.8 505.8l1.2.3"/></g><g class="cls-8"><path class="cls-5" d="M14 509.4l.2-1.2M14.2 508.2l-.2-.9M14 507.3l-.5-1.2M13.5 506.1l.5-1"/></g><path class="cls-5" d="M14 505.1l.2-1.2M14.2 503.9l-.2-1M14 502.9l-.5-.9M13.5 502l.5-1.2M14 500.8l.2-1M14.2 499.8l-.2-1.2M14 498.6l-.5-.9M13.5 497.7l.5-1.2M14 496.5l.2-1M14.2 495.5l-.2-1M14 494.5l-.5-1.2M13.5 493.3l.5-.9"/><g class="cls-11"><path class="cls-5" d="M14 492.4l.2-1.2M14.2 491.2l-.2-1M14 490.2l-.5-1.2M13.5 489l.5-.9"/></g><g class="cls-10"><path class="cls-5" d="M17.1 489l-.9-.2M16.2 488.8l-1.2.2M15 489l-1 .3M14 489.3l-1.2-.3"/></g><path class="cls-5" d="M12.8 489l-1-.2M11.8 488.8l-.9.2M10.9 489l-1.2.3M9.7 489.3l-1-.3M8.7 489l-1.2-.2M7.5 488.8l-.9.2M6.6 489l-1.2.3M5.4 489.3l-1-.3"/><g class="cls-9"><path class="cls-5" d="M4.4 489l-1-.2M3.4 488.8l-1.2.2M2.2 489l-.9.3M1.3 489.3L0 489"/></g><path class="cls-5" d="M314 489l-1-.2M313 488.8l-1.2.2M311.8 489l-.9.3M310.9 489.3l-1.2-.3M309.7 489l-1-.2M308.7 488.8l-1.2.2M307.5 489l-.9.3M306.6 489.3l-1-.3M305.6 489l-1.2-.2M304.4 488.8l-1 .2M303.4 489l-1.2.3M302.2 489.3l-.9-.3M301.3 489l-1.2-.2M300.1 488.8l-1 .2M299.1 489l-.9.3M298.2 489.3l-1.2-.3M297 489l-1-.2M296 488.8l-1.2.2M294.8 489l-1 .3M293.8 489.3l-1.2-.3M292.6 489l-.9-.2M291.7 488.8l-1 .2M290.7 489l-1.2.3M289.5 489.3l-.9-.3M288.6 489l-1.2-.2M287.4 488.8l-1 .2M286.4 489l-1.2.3M285.2 489.3l-1-.3M284.2 489l-.9-.2M283.3 488.8l-1.2.2M282.1 489l-1 .3M281.1 489.3l-1.2-.3M279.9 489l-.9-.2M279 488.8l-1.2.2M277.8 489l-1 .3M276.8 489.3l-1-.3M275.8 489l-1.2-.2M274.6 488.8l-.9.2M273.7 489l-1.2.3M272.5 489.3l-1-.3M271.5 489l-1.2-.2M270.3 488.8l-.9.2M269.4 489l-1 .3M268.4 489.3l-1.2-.3M267.2 489l-1-.2M266.2 488.8l-1.2.2M265 489l-.9.3M264.1 489.3l-1.2-.3M262.9 489l-1-.2M261.9 488.8l-.9.2M261 489l-1.2.3M259.8 489.3l-1-.3M258.8 489l-1.2-.2M257.6 488.8l-1 .2M256.6 489l-1.2.3M255.4 489.3l-.9-.3M254.5 489l-1-.2M253.5 488.8l-1.2.2M252.3 489l-.9.3M251.4 489.3l-1.2-.3M250.2 489l-1-.2M249.2 488.8l-1.2.2M248 489l-1 .3M247 489.3l-.9-.3M246.1 489l-1.2-.2M244.9 488.8l-1 .2M243.9 489l-1.2.3M242.7 489.3l-.9-.3M241.8 489l-1.2-.2M240.6 488.8l-1 .2M239.6 489l-1 .3M238.6 489.3l-1.2-.3M237.4 489l-.9-.2M236.5 488.8l-1.2.2M235.3 489l-1 .3M234.3 489.3l-1.2-.3M233.1 489l-.9-.2M232.2 488.8l-1 .2M231.2 489l-1.2.3M230 489.3l-1-.3M229 489l-1.2-.2M227.8 488.8l-.9.2M226.9 489l-1.2.3M225.7 489.3l-1-.3M224.7 489l-.9-.2M223.8 488.8l-1.2.2M222.6 489l-1 .3M221.6 489.3l-1.2-.3M220.4 489l-1-.2M219.4 488.8l-1.2.2M218.2 489l-.9.3M217.3 489.3l-1-.3M216.3 489l-1.2-.2M215.1 488.8l-.9.2M214.2 489l-1.2.3M213 489.3l-1-.3M212 489l-1.2-.2M210.8 488.8l-1 .2M209.8 489l-.9.3M208.9 489.3l-1.2-.3M207.7 489l-1-.2M206.7 488.8l-1.2.2M205.5 489l-.9.3M204.6 489.3l-1.2-.3M203.4 489l-1-.2M202.4 488.8l-1 .2M201.4 489l-1.2.3M200.2 489.3l-.9-.3M199.3 489l-1.2-.2M198.1 488.8l-1 .2M197.1 489l-1.2.3M195.9 489.3l-.9-.3M195 489l-1-.2M194 488.8l-1.2.2M192.8 489l-1 .3M191.8 489.3l-1.2-.3M190.6 489l-.9-.2M189.7 488.8l-1.2.2M188.5 489l-1 .3M187.5 489.3l-.9-.3M186.6 489l-1.2-.2M185.4 488.8l-1 .2M184.4 489l-1.2.3M183.2 489.3l-1-.3M182.2 489l-1.2-.2M181 488.8l-.9.2M180.1 489l-1 .3M179.1 489.3l-1.2-.3M177.9 489l-.9-.2M177 488.8l-1.2.2M175.8 489l-1 .3M174.8 489.3l-1.2-.3M173.6 489l-1-.2M172.6 488.8l-.9.2M171.7 489l-1.2.3M170.5 489.3l-1-.3M169.5 489l-1.2-.2M168.3 488.8l-.9.2M167.4 489l-1.2.3M166.2 489.3l-1-.3M165.2 489l-1-.2M164.2 488.8l-1.2.2M163 489l-.9.3M162.1 489.3l-1.2-.3M160.9 489l-1-.2M159.9 488.8l-1.2.2M158.7 489l-.9.3M157.8 489.3l-1-.3M156.8 489l-1.2-.2M155.6 488.8l-1 .2M154.6 489l-1.2.3M153.4 489.3l-.9-.3M152.5 489l-1.2-.2M151.3 488.8l-1 .2M150.3 489l-.9.3M149.4 489.3l-1.2-.3M148.2 489l-1-.2M147.2 488.8l-1.2.2M146 489l-1 .3M145 489.3l-1.2-.3M143.8 489l-.9-.2M142.9 488.8l-1.2.2M141.7 489l-1 .3M140.7 489.3l-.9-.3M139.8 489l-1.2-.2M138.6 488.8l-1 .2M137.6 489l-1.2.3M136.4 489.3l-1-.3M135.4 489l-1.2-.2M134.2 488.8l-.9.2M133.3 489l-1 .3M132.3 489.3l-1.2-.3M131.1 489l-.9-.2M130.2 488.8l-1.2.2M129 489l-1 .3M128 489.3l-1.2-.3M126.8 489l-1-.2M125.8 488.8l-.9.2M124.9 489l-1.2.3M123.7 489.3l-1-.3M122.7 489l-.9-.2M121.8 488.8l-1 .5M120.8 489.3l-1.2.2M119.6 489.5h-1M118.6 489.5l-.2 1M118.4 490.5l.2.9M118.6 491.4l.5 1.2M119.1 492.6l-.5 1M118.6 493.6l-.2 1.2M118.4 494.8l.2.9M118.6 495.7l.5 1.2M119.1 496.9l-.5 1M118.6 497.9l-.2 1M118.4 498.9l.2 1.2M118.6 500.1l.5.9M119.1 501l-.5 1.2M118.6 502v.9M118.6 502.9l.3 1.2M118.9 504.1l.5 1M119.4 505.1l-.3 1.2M119.1 506.1l1 .2M120.1 506.3l1.2-.2M121.3 506.1l.9-.3M122.2 505.8l1.2.3M123.4 506.1l1 .2M124.4 506.3l1-.2M125.4 506.1l1.2-.3M126.6 505.8l.9.3M127.5 506.1l1.2.2M128.7 506.3l1-.2M129.7 506.1l1.2-.3M130.9 505.8l.9.3M131.8 506.1l1 .2M132.8 506.3l1.2-.2M134 506.1l1-.3M135 505.8l1.2.3M136.2 506.1l.9.2M137.1 506.3l1.2-.2M138.3 506.1l1-.3M139.3 505.8l.9.3M140.2 506.1l1.2.2M141.4 506.3l1-.2M142.4 506.1l1.2-.3M143.6 505.8l1 .3M144.6 506.1l1.2.2M145.8 506.3l.9-.2M146.7 506.1l1-.3M147.7 505.8l1.2.3M148.9 506.1l.9.2M149.8 506.3l1.2-.2M151 506.1l1-.3M152 505.8l1.2.3M153.2 506.1l1 .2M154.2 506.3l.9-.2M155.1 506.1l1.2-.3M156.3 505.8l1 .3M157.3 506.1l1.2.2M158.5 506.3l.9-.2M159.4 506.1l1.2-.3M160.6 505.8l1 .3M161.6 506.1l1 .2M162.6 506.3l1.2-.2M163.8 506.1l.9-.3M164.7 505.8l1.2.3M165.9 506.1l1 .2M166.9 506.3l1.2-.2M168.1 506.1l.9-.3M169 505.8l1 .3M170 506.1l1.2.2M171.2 506.3l1-.2M172.2 506.1l1.2-.3M173.4 505.8l.9.3M174.3 506.1l1.2.2M175.5 506.3l1-.2M176.5 506.1l1.2-.3M177.7 505.8l.9.3M178.6 506.1l1 .2M179.6 506.3l1.2-.2M180.8 506.1l1-.3M181.8 505.8l1.2.3M183 506.1l.9.2M183.9 506.3l1.2-.2M185.1 506.1l1-.3M186.1 505.8l.9.3M187 506.1l1.2.2M188.2 506.3l1-.2M189.2 506.1l1.2-.3M190.4 505.8l1 .3M191.4 506.1l1.2.2M192.6 506.3l.9-.2M193.5 506.1l1-.3M194.5 505.8l1.2.3M195.7 506.1l.9.2M196.6 506.3l1.2-.2M197.8 506.1l1-.3M198.8 505.8l1.2.3M200 506.1l1 .2M201 506.3l.9-.2M201.9 506.1l1.2-.3M203.1 505.8l1 .3M204.1 506.1l1.2.2M205.3 506.3l.9-.2M206.2 506.1l1.2-.3M207.4 505.8l1 .3M208.4 506.1l1 .2M209.4 506.3l1.2-.2M210.6 506.1l.9-.3M211.5 505.8l1.2.3M212.7 506.1l1 .2M213.7 506.3l1.2-.2M214.9 506.1l.9-.3M215.8 505.8l1 .3M216.8 506.1l1.2.2M218 506.3l1-.2M219 506.1l1.2-.3M220.2 505.8l.9.3M221.1 506.1l1.2.2M222.3 506.3l1-.2M223.3 506.1l.9-.3M224.2 505.8l1.2.3M225.4 506.1l1 .2M226.4 506.3l1.2-.2M227.6 506.1l1-.3M228.6 505.8l1.2.3M229.8 506.1l.9.2M230.7 506.3l1-.2M231.7 506.1l1.2-.3M232.9 505.8l.9.3M233.8 506.1l1.2.2M235 506.3l1-.2M236 506.1l1.2-.3M237.2 505.8l1 .3M238.2 506.1l.9.2M239.1 506.3l1.2-.2M240.3 506.1l1-.3M241.3 505.8l1.2.3M242.5 506.1l.9.2M243.4 506.3l1.2-.2M244.6 506.1l1-.3M245.6 505.8l1 .3M246.6 506.1l1.2.2M247.8 506.3l.9-.2M248.7 506.1l1.2-.3M249.9 505.8l1 .3M250.9 506.1l1.2.2M252.1 506.3l.9-.2M253 506.1l1-.3M254 505.8l1.2.3M255.2 506.1l1 .2M256.2 506.3l1.2-.2M257.4 506.1l.9-.3M258.3 505.8l1.2.3M259.5 506.1l1 .2M260.5 506.3l.9-.2M261.4 506.1l1.2-.3M262.6 505.8l1 .3M263.6 506.1l1.2.2M264.8 506.3l1-.2M265.8 506.1l1.2-.3M267 505.8l.9.3M267.9 506.1l1 .2M268.9 506.3l1.2-.2M270.1 506.1l.9-.3M271 505.8l1.2.3M272.2 506.1l1 .2M273.2 506.3l1.2-.2M274.4 506.1l1-.3M275.4 505.8l.9.3M276.3 506.1l1.2.2M277.5 506.3l1-.2M278.5 506.1l1.2-.3M279.7 505.8l.9.3M280.6 506.1l1.2.2M281.8 506.3l1-.2M282.8 506.1l1-.3M283.8 505.8l1.2.3M285 506.1l.9.2M285.9 506.3l1.2-.2M287.1 506.1l1-.3M288.1 505.8l1.2.3M289.3 506.1l.9.2M290.2 506.3l1-.2M291.2 506.1l1.2-.3M292.4 505.8l1 .3M293.4 506.1l1.2.2M294.6 506.3l.9-.2M295.5 506.1l1.2-.3M296.7 505.8l1 .3M297.7 506.1l.9.2M298.6 506.3l1.2-.2M299.8 506.1l1-.3M300.8 505.8l1.2.3M302 506.1l1 .2M303 506.3l1.2-.2M304.2 506.1l.9-.3M305.1 505.8l1 .3M306.1 506.1l1.2.2M307.3 506.3l.9-.2M308.2 506.1l1.2-.3M309.4 505.8l1 .3M310.2 506.1l.9.2M311.1 506.3l1.2-.5M312.3 505.8l1-.5M313.3 505.3h.9M314 505.3l.2-.9M314.2 504.4l-.2-1.2M314 503.2l-.2-1M313.8 502.2l.2-1.2M314 501l.2-.9M314.2 500.1l-.2-1M314 499.1l-.2-1.2M313.8 497.9l.2-1M314 496.9l.2-1.2M314.2 495.7l-.2-.9M314 494.8l-.2-1.2M313.8 493.6l.2-1"/><g class="cls-12"><path class="cls-5" d="M314 492.6l.2-.9M314.2 491.7l-.2-1.2M314 490.5l-.2-1M313.8 489.5l.2-1.2"/></g><path class="cls-6" d="M316.1 517.5l-3.3-91.7M312.8 425.8l-1.1-29 5.7-.2 4.4 120.9M2.1 513H21V397h-5.7v110.3H2.1M316 512.8H111.7V397.2h5.7v110H316"/><path class="cls-5" d="M132.6 60.6h59.3v3.6h-59.3z"/><path class="cls-6" d="M110 90.4h17.5v69.1H110zM125.1 107.9h2.4M125.1 124.9h2.4M125.1 142h2.4M125.1 159h2.4M103.5 159.5h16.6v.5h-16.6zM119.6 160h.5v17h-.5z"/><path class="cls-6" d="M104.2 176.5h15.4v.5h-15.4zM104.2 160h15.4v.7h-15.4zM103.5 160h.7v17h-.7z"/><path class="cls-13" d="M115.1 158h9.3c.1 0 .3 0 .4-.1.1 0 .2-.1.3-.2.1 0 .2-.2.3-.2 0 0 .2-.2.2-.3 0-.1.1-.2.2-.3 0-.1 0-.2.1-.4v-11.6c0-.3 0-.5-.2-.8-.1-.2-.2-.5-.4-.6-.2-.2-.4-.3-.6-.4-.2 0-.5-.2-.8-.2H115c-.3 0-.5 0-.8.2-.2 0-.5.2-.6.4-.2.2-.3.4-.4.6-.1.2-.2.5-.2.8v11.6c0 .1 0 .3.1.4 0 .1.1.2.2.3 0 .1.2.2.2.3 0 0 .2.2.3.2.1 0 .2.1.3.2.1 0 .2 0 .4.1h.4"/><path class="cls-6" d="M115.1 158h9.3c.1 0 .3 0 .4-.1.1 0 .2-.1.3-.2.1 0 .2-.2.3-.2 0 0 .2-.2.2-.3 0-.1.1-.2.2-.3 0-.1 0-.2.1-.4v-11.6c0-.3 0-.5-.2-.8-.1-.2-.2-.5-.4-.6-.2-.2-.4-.3-.6-.4-.2 0-.5-.2-.8-.2H115c-.3 0-.5 0-.8.2-.2 0-.5.2-.6.4-.2.2-.3.4-.4.6-.1.2-.2.5-.2.8v11.6c0 .1 0 .3.1.4 0 .1.1.2.2.3 0 .1.2.2.2.3 0 0 .2.2.3.2.1 0 .2.1.3.2.1 0 .2 0 .4.1h.4"/><path class="cls-13" d="M117.4 150.4c0-.7-.5-1.2-1.1-1.2s-1.1.5-1.1 1.2.5 1.2 1.1 1.2 1.1-.5 1.1-1.2"/><path class="cls-6" d="M117.4 150.4c0-.7-.5-1.2-1.1-1.2s-1.1.5-1.1 1.2.5 1.2 1.1 1.2 1.1-.5 1.1-1.2"/><path class="cls-13" d="M111.4 108.4v15.8h14.7v-15.8h-14.7"/><path class="cls-6" d="M111.4 108.4H126v15.8h-14.6z"/><path class="cls-13" d="M124.2 112.3c0-1.5-1.3-2.8-2.9-2.8s-2.9 1.2-2.9 2.8 1.3 2.8 2.9 2.8 2.9-1.2 2.9-2.8"/><path class="cls-6" d="M124.2 112.3c0-1.5-1.3-2.8-2.9-2.8s-2.9 1.2-2.9 2.8 1.3 2.8 2.9 2.8 2.9-1.2 2.9-2.8"/><path class="cls-13" d="M116.7 111.4c0-1.3-1-2.3-2.2-2.3s-2.2 1-2.2 2.3 1 2.3 2.2 2.3 2.2-1 2.2-2.3"/><path class="cls-6" d="M116.7 111.4c0-1.3-1-2.3-2.2-2.3s-2.2 1-2.2 2.3 1 2.3 2.2 2.3 2.2-1 2.2-2.3"/><path class="cls-13" d="M123.4 119.9c0-1.2-1-2.2-2.2-2.2s-2.2 1-2.2 2.2 1 2.2 2.2 2.2 2.2-1 2.2-2.2"/><path class="cls-6" d="M123.4 119.9c0-1.2-1-2.2-2.2-2.2s-2.2 1-2.2 2.2 1 2.2 2.2 2.2 2.2-1 2.2-2.2"/><path class="cls-13" d="M117.7 119.7c0-1.6-1.3-2.9-2.9-2.9s-2.9 1.3-2.9 2.9 1.3 2.9 2.9 2.9 2.9-1.3 2.9-2.9"/><path class="cls-6" d="M117.7 119.7c0-1.6-1.3-2.9-2.9-2.9s-2.9 1.3-2.9 2.9 1.3 2.9 2.9 2.9 2.9-1.3 2.9-2.9M125.1 90.9h2.4M103.5 89.7h16.6v.7h-16.6zM119.6 72.6h.5v17h-.5z"/><path class="cls-6" d="M104.2 72.6h15.4v.7h-15.4zM104.2 89.2h15.4v.5h-15.4z"/><path class="cls-6" d="M119.6 71.7h.5v1h-.5zM103.5 72.6h.7v17h-.7zM102.6 177h17.5v.5h-17.5zM101.6 158.5h7.7"/><path class="cls-3" d="M101.6 159.3h8.4"/><path class="cls-6" d="M101.6 157.1h6.2M101.6 158.5h7.7M101.6 159.3h8.4M101.6 157.1h6.2"/><path class="cls-3" d="M101.6 158.5v.8"/><path class="cls-6" d="M101.6 157.1v1.4M109.3 158.5V91.1"/><path class="cls-3" d="M110 159.3V90.4"/><path class="cls-6" d="M107.8 157.1V92.5M109.3 158.5V91.1M110 159.3V90.4M107.8 157.1V92.5M109.3 91.1h-7.7"/><path class="cls-3" d="M110 90.4h-8.4"/><path class="cls-6" d="M107.8 92.5h-6.2M109.3 91.1h-7.7"/><path class="cls-3" d="M101.6 91.1v-.7"/><path class="cls-6" d="M101.6 92.5v-1.4M110 90.4h-8.4M107.8 92.5h-6.2"/><path class="cls-1" d="M120.1 90.4v69.1"/><path class="cls-6" d="M120.1 159v.5M102.6 212.5h17.5v.5h-17.5zM119.6 213h.5v17h-.5z"/><path class="cls-6" d="M104.2 229.6h15.4v.5h-15.4zM104.2 213h15.4v.5h-15.4zM103.5 213h.7v17h-.7zM119.6 230.1h.5v17h-.5z"/><path class="cls-6" d="M104.2 230.1h15.4v.5h-15.4zM104.2 246.4h15.4v.7h-15.4zM103.5 230.1h.7v17h-.7zM119.6 247.1h.5v17h-.5z"/><path class="cls-6" d="M104.2 263.4h15.4v.7h-15.4zM104.2 247.1h15.4v.5h-15.4zM103.5 247.1h.7v17h-.7zM119.6 264.1h.5v2.2h-.5zM101.6 267h17.8"/><path class="cls-3" d="M101.6 266.3h18.5"/><path class="cls-6" d="M101.6 268.5h16.3M101.6 267h17.8M101.6 266.3h18.5M101.6 268.5h16.3"/><path class="cls-3" d="M101.6 267v-.7"/><path class="cls-6" d="M101.6 268.5V267"/><path class="cls-13" d="M115.5 263.4v2.7h-9.8v-2.7h9.8"/><path class="cls-6" d="M105.7 263.4h9.8v2.6h-9.8zM115.8 263.4z"/><path class="cls-5" d="M106.4 263.4v-8.6M106.4 254.8l1.7.2 1.4.5 1.5.7 1.4 1.2 1 1.2.7 1.5.5 1.6.2 1.7"/><path class="cls-6" d="M119.4 267v4.8"/><path class="cls-3" d="M120.1 266.3v5.5"/><path class="cls-6" d="M117.9 268.5v3.3M119.4 267v4.8"/><path class="cls-3" d="M119.4 271.8h.7"/><path class="cls-6" d="M117.9 271.8h1.5M120.1 266.3v5.5M117.9 268.5v3.3"/><path class="cls-14" d="M96.3 352.7l-.5-5.5h16.8l-5.7 5.5H96.3"/><path class="cls-13" d="M95.8 347.2l.5 5.5h10.6l5.7-5.5H95.8"/><path class="cls-5" d="M111.2 348.6v-1.4M109.8 350.1v-2.9M108.3 351.3v-4.1M107.1 352.7v-5.5M105.7 352.7v-5.5M104.2 352.7v-5.5M102.8 352.7v-5.5M101.4 352.7v-5.5M99.9 352.7v-5.5M98.5 352.7v-5.5M97 352.7v-5.5M96.3 352.7h10.6M95.8 347.2h16.8"/><path class="cls-6" d="M95.8 347.2h16.8M96.3 352.7h10.6"/><path class="cls-14" d="M26.2 352.7l-5.7-5.5h16.3l-.2 5.5H26.2"/><path class="cls-13" d="M20.5 347.2l5.7 5.5h10.4l.2-5.5H20.5"/><path class="cls-5" d="M36.1 352.7v-5.5M34.6 352.7v-5.5M33.2 352.7v-5.5M32 352.7v-5.5M30.6 352.7v-5.5M29.1 352.7v-5.5M27.7 352.7v-5.5M26.2 352.5v-5.3M24.8 351.3v-4.1M23.4 349.8v-2.6M21.9 348.4v-1.2M26.2 352.7h10.4M20.5 347.2h16.3"/><path class="cls-6" d="M20.5 347.2h16.3M26.2 352.7h10.4M212.2 256.7h39.2"/><path class="cls-3" d="M212.2 256h39.9"/><path class="cls-6" d="M212.2 258.1h37.7M212.2 256.7h39.2M212.2 256h39.9M212.2 258.1h37.7"/><path class="cls-3" d="M212.2 256.7v-.7"/><path class="cls-6" d="M212.2 258.1v-1.4M251.4 260.5h18.4"/><path class="cls-3" d="M252.1 259.8h17"/><path class="cls-6" d="M249.9 262h21.4M251.4 260.5h18.4M252.1 259.8h17M249.9 262h21.4M269.8 256.7h28.4"/><path class="cls-3" d="M269.1 256h29.1"/><path class="cls-6" d="M271.3 258.1h26.9M269.8 256.7h28.4"/><path class="cls-3" d="M298.2 256.7v-.7"/><path class="cls-6" d="M298.2 258.1v-1.4M269.1 256h29.1M271.3 258.1h26.9"/><path class="cls-13" d="M242.9 240.8c-1.3-.9-3-.9-4.3 0-1.9 1.5-2.9 3.8-2.9 6.2l.3 9h9.6l.3-9c0-2.4-1-4.7-2.9-6.2"/><path class="cls-6" d="M242.9 240.8c-1.3-.9-3-.9-4.3 0-1.9 1.5-2.9 3.8-2.9 6.2l.3 9h9.6l.3-9c0-2.4-1-4.7-2.9-6.2"/><path class="cls-13" d="M240.8 250.9c1 0 2-.3 2.8-1.1.7-.7 1.2-1.7 1.2-2.7 0-2.1-.9-4.1-2.5-5.4-.9-.6-2-.6-2.9 0-1.6 1.3-2.5 3.3-2.5 5.4 0 1 .4 2 1.2 2.7.7.7 1.7 1.1 2.8 1.1"/><path class="cls-6" d="M240.8 250.9c1 0 2-.3 2.8-1.1.7-.7 1.2-1.7 1.2-2.7 0-2.1-.9-4.1-2.5-5.4-.9-.6-2-.6-2.9 0-1.6 1.3-2.5 3.3-2.5 5.4 0 1 .4 2 1.2 2.7.7.7 1.7 1.1 2.8 1.1"/><path class="cls-13" d="M297.8 255.6v-48.1h-.1v-.1l-.1-.1h-.1l-.1-.1h-20.5l-.1.1h-.1l-.1.1v.1h-.1v48.2h.1v.2h.1l.1.1H297.5l.1-.1h.1v-.2h.1v-.1"/><path class="cls-6" d="M297.8 255.6v-48.1h-.1v-.1l-.1-.1h-.1l-.1-.1h-20.5l-.1.1h-.1l-.1.1v.1h-.1v48.2h.1v.2h.1l.1.1H297.5l.1-.1h.1v-.2h.1v-.1"/><path class="cls-13" d="M295.7 250.3v-37.4-.7c0-.2-.1-.4-.2-.6 0-.2-.2-.4-.3-.6-.1-.2-.3-.4-.4-.5-.2-.2-.3-.3-.5-.4l-.6-.3c-.2 0-.4-.1-.6-.2H282.2c-.4 0-.9 0-1.3.3-.4.2-.8.4-1.1.7-.3.3-.6.7-.7 1.1-.2.4-.3.9-.3 1.3v38.1c0 .2.1.4.2.6 0 .2.2.4.3.6.1.2.3.4.4.5.2.2.3.3.5.4l.6.3c.2 0 .4.1.6.2H292.3c.4 0 .9 0 1.3-.3s.8-.4 1.1-.7c.3-.3.6-.7.7-1.1.2-.4.3-.9.3-1.3"/><path class="cls-6" d="M295.7 250.3v-37.4-.7c0-.2-.1-.4-.2-.6 0-.2-.2-.4-.3-.6-.1-.2-.3-.4-.4-.5-.2-.2-.3-.3-.5-.4l-.6-.3c-.2 0-.4-.1-.6-.2H282.2c-.4 0-.9 0-1.3.3-.4.2-.8.4-1.1.7-.3.3-.6.7-.7 1.1-.2.4-.3.9-.3 1.3v38.1c0 .2.1.4.2.6 0 .2.2.4.3.6.1.2.3.4.4.5.2.2.3.3.5.4l.6.3c.2 0 .4.1.6.2H292.3c.4 0 .9 0 1.3-.3s.8-.4 1.1-.7c.3-.3.6-.7.7-1.1.2-.4.3-.9.3-1.3"/><path class="cls-13" d="M268.4 256v-12-.4c0-.1-.1-.3-.2-.4-.1-.1-.2-.2-.4-.2H253.7c-.1 0-.3.1-.4.2s-.2.2-.2.4V256h15.6"/><path class="cls-6" d="M268.4 256v-12-.4c0-.1-.1-.3-.2-.4-.1-.1-.2-.2-.4-.2H253.7c-.1 0-.3.1-.4.2s-.2.2-.2.4V256h15.6M252.1 256v3.8M252.1 259.8h17M269.1 259.8V256M269.8 260.5v-3.8"/><path class="cls-3" d="M269.1 259.8V256"/><path class="cls-6" d="M271.3 262v-3.9M269.8 260.5v-3.8M269.1 259.8V256M271.3 262v-3.9M251.4 256.7v3.8"/><path class="cls-3" d="M252.1 256v3.8"/><path class="cls-6" d="M249.9 258.1v3.9M251.4 256.7v3.8M252.1 256v3.8M249.9 258.1v3.9"/><path class="cls-3" d="M252.1 256h17"/><path class="cls-14" d="M19.5 393v-5.7h1l5.7 5.7h-6.7"/><path class="cls-13" d="M19.5 387.3v5.7h6.7l-5.7-5.7h-1"/><path class="cls-5" d="M26.2 393v-.2M24.8 393v-1.4M23.4 393v-2.9M21.9 393v-4.3M20.5 393v-5.7M19.5 393h6.7M19.5 387.3h1"/><path class="cls-6" d="M19.5 387.3h1M19.5 393h6.7"/><path class="cls-14" d="M20.5 347.2l5.7 5.5V393l-5.7-5.7v-40.1"/><path class="cls-13" d="M26.2 352.7l-5.7-5.5v40.1l5.7 5.7v-40.3"/><path class="cls-5" d="M26 392.8h.5M24.8 391.3h1.7M23.4 389.9h3.1M21.9 388.5h4.6M20.7 387h5.8M20.7 385.6h5.8M20.7 384.1h5.8M20.7 382.9h5.8M20.7 381.5h5.8M20.7 380.1h5.8M20.7 378.6h5.8M20.7 377.2h5.8M20.7 375.7h5.8M20.7 374.3h5.8M20.7 372.9h5.8M20.7 371.4h5.8M20.7 370h5.8M20.7 368.8h5.8M20.7 367.3h5.8M20.7 365.9h5.8M20.7 364.5h5.8M20.7 363h5.8M20.7 361.6h5.8M20.7 360.1h5.8M20.7 358.7h5.8M20.7 357.3h5.8M20.7 355.8h5.8M20.7 354.4h5.8M20.7 353.2h5.8M20.7 351.7h4.6M20.7 350.3h3.1M20.7 348.9h1.7M20.5 347.2v40.1M26.2 352.7V393"/><path class="cls-6" d="M26.2 352.7V393M20.5 347.2v40.1"/><path class="cls-14" d="M112.6 387.3l-5.7 5.7v-40.3l5.7-5.5v40.1"/><path class="cls-13" d="M106.9 393l5.7-5.7v-40.1l-5.7 5.5V393"/><path class="cls-5" d="M112.9 347.4h-.3M112.9 348.9H111M112.9 350.3h-3.4M112.9 351.7h-4.8M112.9 353.2h-5.8M112.9 354.4h-5.8M112.9 355.8h-5.8M112.9 357.3h-5.8M112.9 358.7h-5.8M112.9 360.1h-5.8M112.9 361.6h-5.8M112.9 363h-5.8M112.9 364.5h-5.8M112.9 365.9h-5.8M112.9 367.3h-5.8M112.9 368.8h-5.8M112.9 370h-5.8M112.9 371.4h-5.8M112.9 372.9h-5.8M112.9 374.3h-5.8M112.9 375.7h-5.8M112.9 377.2h-5.8M112.9 378.6h-5.8M112.9 380.1h-5.8M112.9 381.5h-5.8M112.9 382.9h-5.8M112.9 384.1h-5.8M112.9 385.6h-5.8M112.9 387h-5.8M111.4 388.5h-4.3M110 389.9h-2.9M108.6 391.3h-1.5M107.4 392.8h-.3M112.6 387.3v-40.1M106.9 393v-40.3"/><path class="cls-6" d="M106.9 393v-40.3M112.6 387.3v-40.1"/><path class="cls-14" d="M106.9 393l5.7-5.7h7v5.7h-12.7"/><path class="cls-13" d="M112.6 387.3l-5.7 5.7h12.7v-5.7h-7"/><path class="cls-5" d="M118.4 393v-5.7M117 393v-5.7M115.5 393v-5.7M114.1 393v-5.7M112.6 393v-5.7M111.2 393v-4.3M109.8 393v-2.9M108.3 393v-1.4M106.9 393h12.7M112.6 387.3h7"/><path class="cls-6" d="M112.6 387.3h7M106.9 393h12.7"/><path class="cls-14" d="M130.6 382.2v14.9h-11v-14.9h11"/><path class="cls-6" d="M119.8 397.1h11.1"/><path class="cls-13" d="M130.6 397.1v-3.6h-11v3.6h11"/><path class="cls-5" d="M119.8 395.2l2 1.9M122 393.5l3.6 3.6M126.1 393.5l3.6 3.6M130.2 393.5l.7.7"/><path class="cls-13" d="M130.6 393.5v-.5h-11v.5h11M130.6 393v-5.7h-11v5.7h11"/><path class="cls-5" d="M119.8 387.3v5.7M121.3 387.3v5.7M122.7 387.3v5.7M123.9 387.3v5.7M125.4 387.3v5.7M126.8 387.3v5.7M128.2 387.3v5.7M129.7 387.3v5.7"/><path class="cls-13" d="M130.6 387.3v-5.1h-11v5.1h11"/><path class="cls-5" d="M119.8 383.2l4.1 4.1M122.7 382.2l5.1 5.1M126.8 382.2l4.1 3.9M130.6 387.3h-11M130.6 393h-11"/><path class="cls-6" d="M130.6 397.1h-11M130.6 382.2h-11"/><path class="cls-14" d="M233.8 382.2v14.9h-40.3v-14.9h40.3"/><path class="cls-6" d="M193.8 397.1h40.3"/><path class="cls-13" d="M233.8 397.1v-3.6h-40.3v3.6h40.3"/><path class="cls-5" d="M193.8 396.9v.2M194.2 393.5l3.6 3.6M198.3 393.5l3.6 3.6M202.2 393.5l3.6 3.6M206.2 393.5l3.6 3.6M210.3 393.5l3.6 3.6M214.2 393.5l3.6 3.6M218.2 393.5l3.6 3.6M222.3 393.5l3.6 3.6M226.4 393.5l3.6 3.6M230.2 393.5l3.6 3.6"/><path class="cls-13" d="M233.8 393.5v-.5h-40.3v.5h40.3M233.8 393v-5.7h-40.3v5.7h40.3"/><path class="cls-5" d="M195 387.3v5.7M196.4 387.3v5.7M197.6 387.3v5.7M199 387.3v5.7M200.5 387.3v5.7M201.9 387.3v5.7M203.4 387.3v5.7M204.8 387.3v5.7M206.2 387.3v5.7M207.7 387.3v5.7M209.1 387.3v5.7M210.6 387.3v5.7M212 387.3v5.7M213.2 387.3v5.7M214.6 387.3v5.7M216.1 387.3v5.7M217.5 387.3v5.7M219 387.3v5.7M220.4 387.3v5.7M221.8 387.3v5.7M223.3 387.3v5.7M224.7 387.3v5.7M226.2 387.3v5.7M227.6 387.3v5.7M228.8 387.3v5.7M230.2 387.3v5.7M231.7 387.3v5.7M233.1 387.3v5.7"/><path class="cls-13" d="M233.8 387.3v-5.1h-40.3v5.1h40.3"/><path class="cls-5" d="M193.8 384.9l2.1 2.4M195 382.2l5 5.1M199 382.2l5.1 5.1M202.9 382.2l5 5.1M207 382.2l5 5.1M211 382.2l5.1 5.1M215.1 382.2l5.1 5.1M219 382.2l5 5.1M223 382.2l5.1 5.1M227.1 382.2l5.1 5.1M231 382.2l3.1 2.9M233.8 387.3h-40.3M233.8 393h-40.3"/><path class="cls-6" d="M233.8 397.1h-40.3M233.8 382.2h-40.3"/><path class="cls-14" d="M298.2 382.2l14.6 14.9h-38.2v-14.9h23.6"/><path class="cls-6" d="M274.9 397.1h37.9"/><path class="cls-13" d="M312.8 397.1l-3.4-3.6h-34.8v3.6h38.2"/><path class="cls-5" d="M274.9 394l3.1 3.1M278.5 393.5l3.6 3.6M282.3 393.5l3.6 3.6M286.4 393.5l3.6 3.6M290.5 393.5l3.6 3.6M294.3 393.5l3.6 3.6M298.4 393.5l3.6 3.6M302.5 393.5l3.6 3.6M306.6 393.5l3.6 3.6"/><path class="cls-13" d="M309.4 393.5l-.4-.5h-34.4v.5h34.8M309 393l-5.8-5.7h-28.6v5.7H309"/><path class="cls-5" d="M275.6 387.3v5.7M277 387.3v5.7M278.5 387.3v5.7M279.9 387.3v5.7M281.4 387.3v5.7M282.8 387.3v5.7M284.2 387.3v5.7M285.7 387.3v5.7M287.1 387.3v5.7M288.3 387.3v5.7M289.8 387.3v5.7M291.2 387.3v5.7M292.6 387.3v5.7M294.1 387.3v5.7M295.5 387.3v5.7M297 387.3v5.7M298.4 387.3v5.7M299.8 387.3v5.7M301.3 387.3v5.7M302.7 387.3v5.7M303.9 388v5M305.4 389.4v3.6M306.8 390.9v2.1M308.2 392.3v.7"/><path class="cls-13" d="M303.2 387.3l-5-5.1h-23.6v5.1h28.6"/><path class="cls-5" d="M274.9 385.8l1.2 1.5M275.1 382.2l5.1 5.1M279.2 382.2l5 5.1M283 382.2l5.1 5.1M287.1 382.2l5.1 5.1M291.2 382.2l5 5.1M295.3 382.2l5 5.1M303.2 387.3h-28.6M309 393h-34.4"/><path class="cls-6" d="M312.8 397.1h-38.2M298.2 382.2h-23.6M191.8 389.7v7.4h3.4v1.7h-66v-1.7h3.4v-7.4"/><path class="cls-1" d="M193.5 382.2h-62.9"/><path class="cls-6" d="M130.6 387.3h62.9v2.4h-62.9zM189.9 389.7v-2.4M134.5 389.7v-2.4M193.5 387.3v2.4M174.8 387.3v2.4M189.9 387.3v2.4M170.5 387.3v2.4M174.8 387.3v2.4M153.7 387.3v2.4M170.5 387.3v2.4M149.6 387.3v2.4M153.7 387.3v2.4M134.5 387.3v2.4M149.6 387.3v2.4M130.6 387.3v2.4"/><path class="cls-13" d="M193.6 393.1h-1.8v-3.5h1.8"/><path class="cls-5" d="M192.1 389.7v3.3M193.5 389.7v3.3M193.6 393.1h-1.8v-3.5h1.8"/><path class="cls-13" d="M193.5 397.1h-1.7v-3.6h1.7"/><path class="cls-5" d="M192.1 395.2l1.7 1.7"/><path class="cls-6" d="M191.8 393.5v-3.8"/><path class="cls-13" d="M130.7 393.1h1.8v-3.5h-1.8"/><path class="cls-5" d="M131.1 389.7v3.3M132.6 389.7v3.3M130.7 393.1h1.8v-3.5h-1.8"/><path class="cls-13" d="M130.6 397.1h2v-3.6h-2"/><path class="cls-5" d="M130.9 394.2l1.9 1.9"/><path class="cls-6" d="M132.6 393.5v-3.8M273 389.7v7.4h3.3v1.7h-43.9v-1.7h3.4v-7.4"/><path class="cls-1" d="M274.6 382.2h-40.8"/><path class="cls-6" d="M234.3 382.2h-.5M233.8 387.3h40.8v2.4h-40.8zM271 389.7v-2.4M237.4 389.7v-2.4M274.6 387.3v2.4M256.4 387.3v2.4M271 387.3v2.4M252.3 387.3v2.4M256.4 387.3v2.4M237.4 387.3v2.4M252.3 387.3v2.4M233.8 387.3v2.4"/><path class="cls-13" d="M274.7 393.1h-1.9v-3.5h1.9"/><path class="cls-5" d="M274.2 389.7v3.3M274.7 393.1h-1.9v-3.5h1.9"/><path class="cls-13" d="M274.6 397.1H273v-3.6h1.6"/><path class="cls-5" d="M273.2 396.1l.7 1M274.4 393.5l.5.5"/><path class="cls-6" d="M273 393.5v-3.8"/><path class="cls-13" d="M233.9 393.1h1.8v-3.5h-1.8"/><path class="cls-5" d="M234.6 389.7v3.3M233.9 393.1h1.8v-3.5h-1.8"/><path class="cls-13" d="M233.8 397.1h2v-3.6h-2"/><path class="cls-5" d="M234.3 393.5l1.7 1.7"/><path class="cls-6" d="M235.8 393.5v-3.8"/><path class="cls-14" d="M19.5 382.2v14.9H2.2v-14.9h17.3"/><path class="cls-6" d="M2.5 397.1h17.3"/><path class="cls-13" d="M19.5 397.1v-3.6H2.2v3.6h17.3"/><path class="cls-5" d="M2.5 394l2.9 3.1M5.8 393.5l3.6 3.6M9.9 393.5l3.6 3.6M13.8 393.5l3.6 3.6M17.8 393.5l2 1.9"/><path class="cls-13" d="M19.5 393.5v-.5H2.2v.5h17.3M19.5 393v-5.7H2.2v5.7h17.3"/><path class="cls-5" d="M3.4 387.3v5.7M4.9 387.3v5.7M6.3 387.3v5.7M7.8 387.3v5.7M9.2 387.3v5.7M10.6 387.3v5.7M12.1 387.3v5.7M13.5 387.3v5.7M15 387.3v5.7M16.4 387.3v5.7M17.6 387.3v5.7M19 387.3v5.7"/><path class="cls-13" d="M19.5 387.3v-5.1H2.2v5.1h17.3"/><path class="cls-5" d="M2.5 386.1l1.2 1.2M2.5 382.2l5 5.1M6.6 382.2l5 5.1M10.6 382.2l5.1 5.1M14.5 382.2l5 5.1M18.6 382.2l1.2 1M19.5 387.3H2.2M19.5 393H2.2"/><path class="cls-6" d="M19.5 397.1H2.2M19.5 382.2H2.2M19.5 397.1V393M19.5 382.2v5.1"/><path class="cls-14" d="M312.8 397.1V56.8l-14.6 14.9v310.5l14.6 14.9"/><path class="cls-6" d="M312.8 397.1h.2"/><path class="cls-13" d="M312.8 397.1V56.8l-3.4 3.6v333.1l3.4 3.6"/><path class="cls-5" d="M309.7 392.5l3.3 3.4M309.7 388.7l3.3 3.4M309.7 384.6l3.3 3.4M309.7 380.5l3.3 3.4M309.7 376.5l3.3 3.3M309.7 372.6l3.3 3.4M309.7 368.5l3.3 3.4M309.7 364.5l3.3 3.3M309.7 360.6l3.3 3.4M309.7 356.5l3.3 3.4M309.7 352.5l3.3 3.3M309.7 348.4l3.3 3.3M309.7 344.5l3.3 3.4M309.7 340.5l3.3 3.3M309.7 336.4l3.3 3.3M309.7 332.5l3.3 3.4M309.7 328.5l3.3 3.3M309.7 324.4l3.3 3.3M309.7 320.5l3.3 3.4M309.7 316.5l3.3 3.3M309.7 312.4l3.3 3.3M309.7 308.3l3.3 3.4M309.7 304.5l3.3 3.3M309.7 300.4l3.3 3.3M309.7 296.3l3.3 3.4M309.7 292.5l3.3 3.3M309.7 288.4l3.3 3.3M309.7 284.3l3.3 3.4M309.7 280.5l3.3 3.3M309.7 276.4l3.3 3.3M309.7 272.3l3.3 3.4M309.7 268.2l3.3 3.4M309.7 264.4l3.3 3.3M309.7 260.3l3.3 3.4M309.7 256.2l3.3 3.4M309.7 252.4l3.3 3.3M309.7 248.3l3.3 3.4M309.7 244.2l3.3 3.4M309.7 240.1l3.3 3.4M309.7 236.3l3.3 3.4M309.7 232.2l3.3 3.4M309.7 228.1l3.3 3.4M309.7 224.3l3.3 3.4M309.7 220.2l3.3 3.4M309.7 216.1l3.3 3.4M309.7 212.3l3.3 3.4M309.7 208.2l3.3 3.4M309.7 204.1l3.3 3.4M309.7 200.1l3.3 3.3M309.7 196.2l3.3 3.4M309.7 192.1l3.3 3.4M309.7 188.1l3.3 3.3M309.7 184.2l3.3 3.4M309.7 180.1l3.3 3.4M309.7 176.1l3.3 3.3M309.7 172.2l3.3 3.4M309.7 168.1l3.3 3.4M309.7 164.1l3.3 3.3M309.7 160l3.3 3.3M309.7 156.1l3.3 3.4M309.7 152.1l3.3 3.3M309.7 148l3.3 3.3M309.7 144.1l3.3 3.4M309.7 140.1l3.3 3.3M309.7 136l3.3 3.3M309.7 132.1l3.3 3.4M309.7 128.1l3.3 3.3M309.7 124l3.3 3.3M309.7 119.9l3.3 3.4M309.7 116.1l3.3 3.3M309.7 112l3.3 3.3M309.7 107.9l3.3 3.4M309.7 104.1l3.3 3.3M309.7 100l3.3 3.3M309.7 95.9l3.3 3.4M309.7 91.8l3.3 3.4M309.7 88l3.3 3.3M309.7 83.9l3.3 3.4M309.7 79.8l3.3 3.4M309.7 76l3.3 3.3M309.7 71.9l3.3 3.4M309.7 67.8l3.3 3.4M309.7 64l3.3 3.3M309.9 60.1l3.1 3.2M311.8 58l1.2 1.2"/><path class="cls-13" d="M309.4 393.5V60.4l-.4.5V393l.4.5M309 393V60.9l-5.8 5.5v320.9l5.8 5.7"/><path class="cls-5" d="M308.7 392.8h.5M307.5 391.3h1.7M306.1 389.9h3.1M304.6 388.5h4.6M303.4 387h5.8M303.4 385.6h5.8M303.4 384.1h5.8M303.4 382.9h5.8M303.4 381.5h5.8M303.4 380.1h5.8M303.4 378.6h5.8M303.4 377.2h5.8M303.4 375.7h5.8M303.4 374.3h5.8M303.4 372.9h5.8M303.4 371.4h5.8M303.4 370h5.8M303.4 368.8h5.8M303.4 367.3h5.8M303.4 365.9h5.8M303.4 364.5h5.8M303.4 363h5.8M303.4 361.6h5.8M303.4 360.1h5.8M303.4 358.7h5.8M303.4 357.3h5.8M303.4 355.8h5.8M303.4 354.4h5.8M303.4 353.2h5.8M303.4 351.7h5.8M303.4 350.3h5.8M303.4 348.9h5.8M303.4 347.4h5.8M303.4 346h5.8M303.4 344.5h5.8M303.4 343.1h5.8M303.4 341.7h5.8M303.4 340.2h5.8M303.4 339h5.8M303.4 337.6h5.8M303.4 336.1h5.8M303.4 334.7h5.8M303.4 333.3h5.8M303.4 331.8h5.8M303.4 330.4h5.8M303.4 328.9h5.8M303.4 327.5h5.8M303.4 326.1h5.8M303.4 324.6h5.8M303.4 323.4h5.8M303.4 322h5.8M303.4 320.5h5.8M303.4 319.1h5.8M303.4 317.7h5.8M303.4 316.2h5.8M303.4 314.8h5.8M303.4 313.3h5.8M303.4 311.9h5.8M303.4 310.5h5.8M303.4 309.3h5.8M303.4 307.8h5.8M303.4 306.4h5.8M303.4 304.9h5.8M303.4 303.5h5.8M303.4 302.1h5.8M303.4 300.6h5.8M303.4 299.2h5.8M303.4 297.7h5.8M303.4 296.3h5.8M303.4 294.9h5.8M303.4 293.7h5.8M303.4 292.2h5.8M303.4 290.8h5.8M303.4 289.3h5.8M303.4 287.9h5.8M303.4 286.5h5.8M303.4 285h5.8M303.4 283.6h5.8M303.4 282.1h5.8M303.4 280.7h5.8M303.4 279.3h5.8M303.4 278.1h5.8M303.4 276.6h5.8M303.4 275.2h5.8M303.4 273.7h5.8M303.4 272.3h5.8M303.4 270.9h5.8M303.4 269.4h5.8M303.4 268h5.8M303.4 266.5h5.8M303.4 265.1h5.8M303.4 263.9h5.8M303.4 262.5h5.8M303.4 261h5.8M303.4 259.6h5.8M303.4 258.1h5.8M303.4 256.7h5.8M303.4 255.3h5.8M303.4 253.8h5.8M303.4 252.4h5.8M303.4 250.9h5.8M303.4 249.5h5.8M303.4 248.3h5.8M303.4 246.9h5.8M303.4 245.4h5.8M303.4 244h5.8M303.4 242.5h5.8M303.4 241.1h5.8M303.4 239.7h5.8M303.4 238.2h5.8M303.4 236.8h5.8M303.4 235.3h5.8M303.4 234.1h5.8M303.4 232.7h5.8M303.4 231.3h5.8M303.4 229.8h5.8M303.4 228.4h5.8M303.4 226.9h5.8M303.4 225.5h5.8M303.4 224.1h5.8M303.4 222.6h5.8M303.4 221.2h5.8M303.4 219.7h5.8M303.4 218.5h5.8M303.4 217.1h5.8M303.4 215.7h5.8M303.4 214.2h5.8M303.4 212.8h5.8M303.4 211.3h5.8M303.4 209.9h5.8M303.4 208.5h5.8M303.4 207h5.8M303.4 205.6h5.8M303.4 204.1h5.8M303.4 202.9h5.8M303.4 201.5h5.8M303.4 200.1h5.8M303.4 198.6h5.8M303.4 197.2h5.8M303.4 195.7h5.8M303.4 194.3h5.8M303.4 192.9h5.8M303.4 191.4h5.8M303.4 190h5.8M303.4 188.8h5.8M303.4 187.3h5.8M303.4 185.9h5.8M303.4 184.5h5.8M303.4 183h5.8M303.4 181.6h5.8M303.4 180.1h5.8M303.4 178.7h5.8M303.4 177.3h5.8M303.4 175.8h5.8M303.4 174.4h5.8M303.4 173.2h5.8M303.4 171.7h5.8M303.4 170.3h5.8M303.4 168.9h5.8M303.4 167.4h5.8M303.4 166h5.8M303.4 164.5h5.8M303.4 163.1h5.8M303.4 161.7h5.8M303.4 160.2h5.8M303.4 159h5.8M303.4 157.6h5.8M303.4 156.1h5.8M303.4 154.7h5.8M303.4 153.3h5.8M303.4 151.8h5.8M303.4 150.4h5.8M303.4 148.9h5.8M303.4 147.5h5.8M303.4 146.1h5.8M303.4 144.6h5.8M303.4 143.4h5.8M303.4 142h5.8M303.4 140.5h5.8M303.4 139.1h5.8M303.4 137.7h5.8M303.4 136.2h5.8M303.4 134.8h5.8M303.4 133.3h5.8M303.4 131.9h5.8M303.4 130.5h5.8M303.4 129.3h5.8M303.4 127.8h5.8M303.4 126.4h5.8M303.4 124.9h5.8M303.4 123.5h5.8M303.4 122.1h5.8M303.4 120.6h5.8M303.4 119.2h5.8M303.4 117.7h5.8M303.4 116.3h5.8M303.4 114.9h5.8M303.4 113.7h5.8M303.4 112.2h5.8M303.4 110.8h5.8M303.4 109.3h5.8M303.4 107.9h5.8M303.4 106.5h5.8M303.4 105h5.8M303.4 103.6h5.8M303.4 102.1h5.8M303.4 100.7h5.8M303.4 99.3h5.8M303.4 98.1h5.8M303.4 96.6h5.8M303.4 95.2h5.8M303.4 93.7h5.8M303.4 92.3h5.8M303.4 90.9h5.8M303.4 89.4h5.8M303.4 88h5.8M303.4 86.5h5.8M303.4 85.1h5.8M303.4 83.9h5.8M303.4 82.5h5.8M303.4 81h5.8M303.4 79.6h5.8M303.4 78.1h5.8M303.4 76.7h5.8M303.4 75.3h5.8M303.4 73.8h5.8M303.4 72.4h5.8M303.4 70.9h5.8M303.4 69.5h5.8M303.4 68.3h5.8M303.4 66.9h5.8M304.4 65.4h4.8M305.8 64h3.4M307.3 62.5h1.9M308.7 61.1h.5"/><path class="cls-13" d="M303.2 387.3V66.4l-5 5.3v310.5l5 5.1"/><path class="cls-5" d="M298.4 381.3l5 5M298.4 377.4l5 5.1M298.4 373.3l5 5.1M298.4 369.3l5 5M298.4 365.2l5 5M298.4 361.3l5 5.1M298.4 357.3l5 5M298.4 353.2l5 5M298.4 349.3l5 5.1M298.4 345.3l5 5M298.4 341.2l5 5M298.4 337.1l5 5M298.4 333.3l5 5M298.4 329.2l5 5M298.4 325.1l5 5M298.4 321.3l5 5M298.4 317.2l5 5M298.4 313.1l5 5M298.4 309.3l5 5M298.4 305.2l5 5M298.4 301.1l5 5M298.4 297l5 5.1M298.4 293.2l5 5M298.4 289.1l5 5M298.4 285l5 5.1M298.4 281.2l5 5M298.4 277.1l5 5M298.4 273l5 5.1M298.4 269.2l5 5M298.4 265.1l5 5M298.4 261l5 5.1M298.4 256.9l5 5.1M298.4 253.1l5 5M298.4 249l5 5.1M298.4 244.9l5 5.1M298.4 241.1l5 5M298.4 237l5 5.1M298.4 232.9l5 5.1M298.4 228.9l5 5M298.4 225l5 5.1M298.4 220.9l5 5.1M298.4 216.9l5 5M298.4 213l5 5.1M298.4 208.9l5 5.1M298.4 204.9l5 5M298.4 201l5 5.1M298.4 196.9l5 5.1M298.4 192.9l5 5M298.4 188.8l5 5M298.4 184.9l5 5.1M298.4 180.9l5 5M298.4 176.8l5 5M298.4 172.9l5 5.1M298.4 168.9l5 5M298.4 164.8l5 5M298.4 160.9l5 5.1M298.4 156.9l5 5M298.4 152.8l5 5M298.4 148.7l5 5M298.4 144.9l5 5M298.4 140.8l5 5M298.4 136.7l5 5M298.4 132.9l5 5M298.4 128.8l5 5M298.4 124.7l5 5M298.4 120.9l5 5M298.4 116.8l5 5M298.4 112.7l5 5M298.4 108.6l5 5.1M298.4 104.8l5 5M298.4 100.7l5 5M298.4 96.6l5 5.1M298.4 92.8l5 5M298.4 88.7l5 5M298.4 84.6l5 5.1M298.4 80.5l5 5.1M298.4 76.7l5 5M298.4 72.6l5 5.1M299.8 70.2l3.6 3.4M301.8 68.1l1.6 1.6M303.2 66.4v320.9M309 60.9V393"/><path class="cls-6" d="M312.8 56.8v340.3M298.2 71.7v310.5"/><path class="cls-14" d="M298.2 71.7l14.6-14.9h-34.3v14.9h19.7"/><path class="cls-13" d="M309.4 60.4l3.4-3.6h-34.3v3.6h30.9"/><path class="cls-5" d="M278.7 57l3.4 3.4M282.3 56.8l3.6 3.6M286.4 56.8l3.6 3.6M290.5 56.8l3.6 3.6M294.6 56.8l3.6 3.6M298.4 56.8l3.6 3.6M302.5 56.8l3.6 3.6M306.6 56.8l3.3 3.3M310.4 56.8l1.4 1.2"/><path class="cls-13" d="M309 60.9l.4-.5h-30.9v.5H309M303.2 66.4l5.8-5.5h-30.5v5.5h24.7"/><path class="cls-5" d="M308.2 61.6v-.7M306.8 63v-2.1M305.4 64.5v-3.6M303.9 65.7v-4.8M302.7 66.4v-5.5M301.3 66.4v-5.5M299.8 66.4v-5.5M298.4 66.4v-5.5M297 66.4v-5.5M295.5 66.4v-5.5M294.1 66.4v-5.5M292.6 66.4v-5.5M291.2 66.4v-5.5M289.8 66.4v-5.5M288.3 66.4v-5.5M287.1 66.4v-5.5M285.7 66.4v-5.5M284.2 66.4v-5.5M282.8 66.4v-5.5M281.4 66.4v-5.5M279.9 66.4v-5.5"/><path class="cls-13" d="M298.2 71.7l5-5.3h-24.7v5.3h19.7"/><path class="cls-5" d="M278.7 69l2.7 2.7M279.9 66.4l5.3 5.3M284 66.4l5.3 5.3M288.1 66.4l5.3 5.3M291.9 66.4l5.3 5.3M296 66.4l3.8 3.8M300.1 66.4l1.7 1.7M278.5 66.4h24.7M278.5 60.9H309"/><path class="cls-6" d="M278.5 56.8h34.3M278.5 71.7h19.7"/><path class="cls-14" d="M193.5 71.7V56.8h43.9v14.9h-43.9"/><path class="cls-13" d="M193.5 56.8v3.6h43.9v-3.6h-43.9"/><path class="cls-5" d="M193.8 60.1v.3M194.2 56.8l3.6 3.6M198.3 56.8l3.6 3.6M202.2 56.8l3.6 3.6M206.2 56.8l3.6 3.6M210.3 56.8l3.6 3.6M214.2 56.8l3.6 3.6M218.2 56.8l3.6 3.6M222.3 56.8l3.6 3.6M226.4 56.8l3.6 3.6M230.2 56.8l3.6 3.6M234.3 56.8l3.4 3.3"/><path class="cls-13" d="M193.5 60.4v.5h43.9v-.5h-43.9M193.5 60.9v5.5h43.9v-5.5h-43.9"/><path class="cls-5" d="M237.4 66.4v-5.5M236 66.4v-5.5M234.6 66.4v-5.5M233.1 66.4v-5.5M231.7 66.4v-5.5M230.2 66.4v-5.5M228.8 66.4v-5.5M227.6 66.4v-5.5M226.2 66.4v-5.5M224.7 66.4v-5.5M223.3 66.4v-5.5M221.8 66.4v-5.5M220.4 66.4v-5.5M219 66.4v-5.5M217.5 66.4v-5.5M216.1 66.4v-5.5M214.6 66.4v-5.5M213.2 66.4v-5.5M212 66.4v-5.5M210.6 66.4v-5.5M209.1 66.4v-5.5M207.7 66.4v-5.5M206.2 66.4v-5.5M204.8 66.4v-5.5M203.4 66.4v-5.5M201.9 66.4v-5.5M200.5 66.4v-5.5M199 66.4v-5.5M197.6 66.4v-5.5M196.4 66.4v-5.5M195 66.4v-5.5"/><path class="cls-13" d="M193.5 66.4v5.3h43.9v-5.3h-43.9"/><path class="cls-5" d="M193.8 68.3l3.3 3.4M195.9 66.4l5.3 5.3M199.8 66.4l5.2 5.3M203.8 66.4l5.3 5.3M207.9 66.4l5.3 5.3M211.8 66.4l5.2 5.3M215.8 66.4l5.3 5.3M219.9 66.4l5.3 5.3M223.8 66.4l5.2 5.3M227.8 66.4l5.3 5.3M231.9 66.4l5.3 5.3M236 66.4l1.7 1.7M193.5 66.4h43.9M193.5 60.9h43.9"/><path class="cls-6" d="M193.5 56.8h43.9M193.5 71.7h43.9"/><path class="cls-14" d="M130.6 56.8h-29v14.9h29V56.8"/><path class="cls-13" d="M130.6 56.8h-29v3.6h29v-3.6"/><path class="cls-5" d="M102.1 56.8l3.6 3.6M105.9 56.8l3.6 3.6M110 56.8l3.6 3.6M114.1 56.8l3.6 3.6M118.2 56.8l3.6 3.6M122 56.8l3.6 3.6M126.1 56.8l3.6 3.6M130.2 56.8l.7.7"/><path class="cls-13" d="M130.6 60.4h-29v.5h29v-.5M130.6 60.9h-29v5.5h29v-5.5"/><path class="cls-5" d="M129.7 66.4v-5.5M128.2 66.4v-5.5M126.8 66.4v-5.5M125.4 66.4v-5.5M123.9 66.4v-5.5M122.7 66.4v-5.5M121.3 66.4v-5.5M119.8 66.4v-5.5M118.4 66.4v-5.5M117 66.4v-5.5M115.5 66.4v-5.5M114.1 66.4v-5.5M112.6 66.4v-5.5M111.2 66.4v-5.5M109.8 66.4v-5.5M108.3 66.4v-5.5M107.1 66.4v-5.5M105.7 66.4v-5.5M104.2 66.4v-5.5M102.8 66.4v-5.5"/><path class="cls-13" d="M130.6 66.4h-29v5.3h29v-5.3"/><path class="cls-5" d="M101.8 68.5l3.2 3.2M103.5 66.4l5.3 5.3M107.6 66.4l5.3 5.3M111.7 66.4l5.3 5.3M115.5 66.4l5.3 5.3M119.6 66.4l5.3 5.3M123.7 66.4l5.3 5.3M127.8 66.4l3.1 3.1M101.6 66.4h29M101.6 60.9h29"/><path class="cls-6" d="M101.6 56.8h29M101.6 71.7h29M130.6 71.7h62.9M130.6 64.2h62.9v2.2h-62.9zM134.5 64.2v2.2M189.9 64.2v2.2M130.6 66.4v-2.2M149.6 66.4v-2.2M134.5 66.4v-2.2M153.7 66.4v-2.2M149.6 66.4v-2.2M170.5 66.4v-2.2M153.7 66.4v-2.2M174.8 66.4v-2.2M170.5 66.4v-2.2M189.9 66.4v-2.2M174.8 66.4v-2.2M193.5 66.4v-2.2M195.2 56.8v-1.7"/><path class="cls-1" d="M195.2 55.1h-66"/><path class="cls-6" d="M129.2 55.1v1.2"/><path class="cls-13" d="M130.7 60.8h1.8v3.4h-1.8"/><path class="cls-5" d="M132.6 64.2v-3.3M131.1 64.2v-3.3M130.7 60.8h1.8v3.4h-1.8"/><path class="cls-13" d="M130.6 56.8h2v3.6h-2"/><path class="cls-5" d="M130.9 57.5l1.9 1.9"/><path class="cls-6" d="M132.6 60.4v3.8"/><path class="cls-13" d="M193.6 60.8h-1.8v3.4h1.8"/><path class="cls-5" d="M193.5 64.2v-3.3M192.1 64.2v-3.3M193.6 60.8h-1.8v3.4h1.8"/><path class="cls-13" d="M193.5 56.8h-1.7v3.6h1.7"/><path class="cls-5" d="M192.1 58.5l1.7 1.6"/><path class="cls-6" d="M191.8 60.4v3.8M239.4 64.2v-7.4H236v-1.7h43.9v1.7h-3.3v7.4"/><path class="cls-1" d="M237.4 71.7h41.1"/><path class="cls-6" d="M278 71.7h.5M237.4 64.2h41v2.2h-41zM241.3 64.2v2.2M274.6 64.2v2.2M237.4 66.4v-2.2M255.9 66.4v-2.2M241.3 66.4v-2.2M260 66.4v-2.2M255.9 66.4v-2.2M274.6 66.4v-2.2M260 66.4v-2.2M278.5 66.4v-2.2"/><path class="cls-13" d="M237.5 60.8h1.9v3.4h-1.9"/><path class="cls-5" d="M238.9 64.2v-3.3M237.5 60.8h1.9v3.4h-1.9"/><path class="cls-13" d="M237.4 56.8h2v3.6h-2"/><path class="cls-5" d="M237.7 60.1l.2.3M238.4 56.8l1.2 1.2"/><path class="cls-6" d="M239.4 60.4v3.8"/><path class="cls-13" d="M278.4 60.8h-1.9v3.4h1.9"/><path class="cls-5" d="M278.5 64.2v-3.3M277 64.2v-3.3M278.4 60.8h-1.9v3.4h1.9"/><path class="cls-13" d="M278.5 56.8h-1.9v3.6h1.9"/><path class="cls-5" d="M276.8 58.9l1.2 1.5M278.5 56.8l.2.2"/><path class="cls-6" d="M276.6 60.4v3.8"/><path class="cls-14" d="M94.6 71.7l7-5.3v-9.6H35.1v14.9h59.5"/><path class="cls-13" d="M35.1 56.8v3.6h66.5v-3.6H35.1"/><path class="cls-5" d="M35.4 58.2l2.1 2.2M38 56.8l3.6 3.6M41.8 56.8l3.6 3.6M45.9 56.8l3.6 3.6M50 56.8l3.6 3.6M53.8 56.8l3.6 3.6M57.9 56.8l3.6 3.6M62 56.8l3.6 3.6M65.8 56.8l3.6 3.6M69.9 56.8l3.6 3.6M74 56.8l3.6 3.6M78.1 56.8l3.6 3.6M81.9 56.8l3.6 3.6M86 56.8l3.6 3.6M90.1 56.8l3.6 3.6M93.9 56.8l3.6 3.6M98 56.8l3.6 3.6"/><path class="cls-13" d="M35.1 60.4v.5h66.5v-.5H35.1M35.1 60.9v5.5h66.5v-5.5H35.1"/><path class="cls-5" d="M101.4 66.4v-5.5M99.9 66.4v-5.5M98.5 66.4v-5.5M97 66.4v-5.5M95.6 66.4v-5.5M94.2 66.4v-5.5M92.7 66.4v-5.5M91.5 66.4v-5.5M90.1 66.4v-5.5M88.6 66.4v-5.5M87.2 66.4v-5.5M85.8 66.4v-5.5M84.3 66.4v-5.5M82.9 66.4v-5.5M81.4 66.4v-5.5M80 66.4v-5.5M78.6 66.4v-5.5M77.4 66.4v-5.5M75.9 66.4v-5.5M74.5 66.4v-5.5M73 66.4v-5.5M71.6 66.4v-5.5M70.2 66.4v-5.5M68.7 66.4v-5.5M67.3 66.4v-5.5M65.8 66.4v-5.5M64.4 66.4v-5.5M63 66.4v-5.5M61.8 66.4v-5.5M60.3 66.4v-5.5M58.9 66.4v-5.5M57.4 66.4v-5.5M56 66.4v-5.5M54.6 66.4v-5.5M53.1 66.4v-5.5M51.7 66.4v-5.5M50.2 66.4v-5.5M48.8 66.4v-5.5M47.6 66.4v-5.5M46.2 66.4v-5.5M44.7 66.4v-5.5M43.3 66.4v-5.5M41.8 66.4v-5.5M40.4 66.4v-5.5M39 66.4v-5.5M37.5 66.4v-5.5M36.1 66.4v-5.5"/><path class="cls-13" d="M94.6 71.7l7-5.3H35.1v5.3h59.5"/><path class="cls-5" d="M100.4 67.3l-.7-.9M98.2 69l-2.6-2.6M95.8 70.7l-4.3-4.3M93 71.7l-5.3-5.3M88.9 71.7l-5.3-5.3M84.8 71.7l-5.3-5.3M80.7 71.7l-5.3-5.3M76.9 71.7l-5.3-5.3M72.8 71.7l-5.3-5.3M68.7 71.7l-5.3-5.3M64.9 71.7l-5.3-5.3M60.8 71.7l-5.3-5.3M56.7 71.7l-5.3-5.3M52.9 71.7l-5.3-5.3M48.8 71.7l-5.3-5.3M44.7 71.7l-5.3-5.3M40.6 71.7l-5.2-5.3M36.8 71.7l-1.4-1.5M93.7 71.7l5.3-5.3M89.6 71.7l5.3-5.3M85.8 71.7l5.2-5.3M81.7 71.7l5.3-5.3M77.6 71.7l5.3-5.3M73.8 71.7l5.2-5.3M69.7 71.7l5.3-5.3M65.6 71.7l5.3-5.3M61.8 71.7l5.2-5.3M57.7 71.7l5.3-5.3M53.6 71.7l5.3-5.3M49.5 71.7l5.3-5.3M45.7 71.7l5.3-5.3M41.6 71.7l5.3-5.3M37.5 71.7l5.3-5.3M35.4 70l3.6-3.6M35.1 66.4h66.5M35.1 60.9h59.5"/><path class="cls-6" d="M35.1 56.8h66.5M35.1 71.7h59.5"/><path class="cls-14" d="M2.2 66.4l7 5.3h7.2V56.8H2.2v9.6"/><path class="cls-13" d="M2.2 56.8v3.6h14.2v-3.6H2.2"/><path class="cls-5" d="M2.5 57.3l2.9 3.1M5.8 56.8l3.6 3.6M9.9 56.8l3.6 3.6M13.8 56.8l2.8 2.6"/><path class="cls-13" d="M2.2 60.4v.5h14.2v-.5H2.2M2.2 60.9v5.5h14.2v-5.5H2.2"/><path class="cls-5" d="M16.4 66.4v-5.5M15 66.4v-5.5M13.5 66.4v-5.5M12.1 66.4v-5.5M10.6 66.4v-5.5M9.2 66.4v-5.5M7.8 66.4v-5.5M6.3 66.4v-5.5M4.9 66.4v-5.5M3.4 66.4v-5.5"/><path class="cls-13" d="M2.2 66.4l7 5.3h7.2v-5.3H2.2"/><path class="cls-5" d="M16.6 67.6l-1.2-1.2M16.6 71.4l-5.2-5M12.6 71.7l-5.3-5.3M6.6 69.5l-3.2-3.1M13.5 71.7l3.1-2.9M9.4 71.7l5.3-5.3M7 70l3.9-3.6M4.9 68.3l1.9-1.9M2.5 66.6l.2-.2M2.2 66.4h14.2M2.2 60.9h14.2"/><path class="cls-6" d="M2.2 56.8h14.2M9.2 71.7h7.2M101.6 56.8"/><path class="cls-5" d="M94.6 60.9h7"/><path class="cls-6" d="M16.4 66.4v6h18.7v-6M18.3 64.2v-7.4H15v-1.7h21.8v1.7h-3.6v7.4M16.4 64.2h18.7v2.2H16.4zM20.2 64.2v2.2M31.5 64.2v2.2M16.4 66.4v-2.2M31.5 66.4v-2.2M20.2 66.4v-2.2M35.1 66.4v-2.2M18.3 60.4h7.5"/><path class="cls-13" d="M16.4 60.8h1.9v3.4h-1.9"/><path class="cls-5" d="M17.6 64.2v-3.3M16.4 60.8h1.9v3.4h-1.9"/><path class="cls-13" d="M16.4 56.8h1.9v3.6h-1.9"/><path class="cls-5" d="M16.6 59.4l.8 1M17.8 56.8l.8.5"/><path class="cls-6" d="M18.3 60.4v3.8M33.2 60.4h-7.4"/><path class="cls-13" d="M35.1 60.8h-1.8v3.4h1.8"/><path class="cls-5" d="M34.6 64.2v-3.3M35.1 60.8h-1.8v3.4h1.8"/><path class="cls-13" d="M35.1 56.8h-1.9v3.6h1.9"/><path class="cls-5" d="M33.4 60.1v.3M33.9 56.8l1.5 1.4"/><path class="cls-6" d="M33.2 60.4v3.8"/><path class="cls-13" d="M101.6 217.1h-7v54.7h7v-54.7"/><path class="cls-5" d="M101.8 220.9l-3.8-3.8M101.8 224.8l-6.9-7M101.8 228.9l-6.9-7M101.8 232.9l-6.9-6.9M101.8 236.8l-6.9-7M101.8 240.9l-6.9-7M101.8 244.9l-6.9-6.9M101.8 248.8l-6.9-7M101.8 252.9l-6.9-7M101.8 256.9l-6.9-6.9M101.8 261l-6.9-6.9M101.8 264.9l-6.9-7M101.8 268.9l-6.9-6.9M100.6 271.8l-5.7-5.7M96.6 271.8l-1.7-1.9M98 271.8l3.8-3.8M94.9 271.1l6.9-7M94.9 267l6.9-6.9M94.9 262.9l6.9-6.9M94.9 259.1l6.9-7M94.9 255l6.9-6.9M94.9 250.9l6.9-6.9M94.9 247.1l6.9-7M94.9 243l6.9-6.9M94.9 238.9l6.9-6.9M94.9 234.9l6.9-7M94.9 231l6.9-6.9M94.9 226.9l6.9-6.9M94.9 222.9l5.7-5.8M94.9 219l1.7-1.9"/><path class="cls-13" d="M101.6 217.1h-7v54.7h7v-54.7"/><path class="cls-5" d="M101.8 220.9l-3.8-3.8M101.8 224.8l-6.9-7M101.8 228.9l-6.9-7M101.8 232.9l-6.9-6.9M101.8 236.8l-6.9-7M101.8 240.9l-6.9-7M101.8 244.9l-6.9-6.9M101.8 248.8l-6.9-7M101.8 252.9l-6.9-7M101.8 256.9l-6.9-6.9M101.8 261l-6.9-6.9M101.8 264.9l-6.9-7M101.8 268.9l-6.9-6.9M100.6 271.8l-5.7-5.7M96.6 271.8l-1.7-1.9M98 271.8l3.8-3.8M94.9 271.1l6.9-7M94.9 267l6.9-6.9M94.9 262.9l6.9-6.9M94.9 259.1l6.9-7M94.9 255l6.9-6.9M94.9 250.9l6.9-6.9M94.9 247.1l6.9-7M94.9 243l6.9-6.9M94.9 238.9l6.9-6.9M94.9 234.9l6.9-7M94.9 231l6.9-6.9M94.9 226.9l6.9-6.9M94.9 222.9l5.7-5.8M94.9 219l1.7-1.9"/><path class="cls-13" d="M101.6 66.4l-7 5.3v105.6h7V66.4"/><path class="cls-5" d="M101.8 68.5l-1.4-1.2M101.8 72.6L98.2 69M101.8 76.5l-6-5.8M101.8 80.5l-6.9-6.9M101.8 84.6l-6.9-6.9M101.8 88.5l-6.9-7M101.8 92.5l-6.9-6.9M101.8 96.6l-6.9-6.9M101.8 100.5l-6.9-7M101.8 104.5l-6.9-6.9M101.8 108.6l-6.9-6.9M101.8 112.7l-6.9-7M101.8 116.5l-6.9-6.9M101.8 120.6l-6.9-6.9M101.8 124.7l-6.9-7M101.8 128.5l-6.9-6.9M101.8 132.6l-6.9-6.9M101.8 136.7l-6.9-7M101.8 140.5l-6.9-6.9M101.8 144.6l-6.9-6.9M101.8 148.7l-6.9-7M101.8 152.8l-6.9-7M101.8 156.6l-6.9-6.9M101.8 160.7l-6.9-7M101.8 164.8l-6.9-7M101.8 168.6l-6.9-6.9M101.8 172.7l-6.9-7M101.8 176.8l-6.9-7M98.2 177.3l-3.3-3.4M100.4 177.3l1.4-1.5M96.3 177.3l5.5-5.3M94.9 174.9l6.9-7M94.9 170.8l6.9-7M94.9 166.9l6.9-6.9M94.9 162.9l6.9-7M94.9 158.8l6.9-7M94.9 154.7l6.9-7M94.9 150.9l6.9-7M94.9 146.8l6.9-7M94.9 142.7l6.9-7M94.9 138.9l6.9-7M94.9 134.8l6.9-7M94.9 130.7l6.9-7M94.9 126.6l6.9-6.9M94.9 122.8l6.9-7M94.9 118.7l6.9-7M94.9 114.6l6.9-6.9M94.9 110.8l6.9-7M94.9 106.7l6.9-7M94.9 102.6l6.9-6.9M94.9 98.8l6.9-7M94.9 94.7l6.9-7M94.9 90.6l6.9-6.9M94.9 86.5l6.9-6.9M94.9 82.7l6.9-7M94.9 78.6l6.9-6.9M94.9 74.5l6.9-6.9"/><path class="cls-13" d="M101.6 66.4l-7 5.3v105.6h7V66.4"/><path class="cls-5" d="M101.8 68.5l-1.4-1.2M101.8 72.6L98.2 69M101.8 76.5l-6-5.8M101.8 80.5l-6.9-6.9M101.8 84.6l-6.9-6.9M101.8 88.5l-6.9-7M101.8 92.5l-6.9-6.9M101.8 96.6l-6.9-6.9M101.8 100.5l-6.9-7M101.8 104.5l-6.9-6.9M101.8 108.6l-6.9-6.9M101.8 112.7l-6.9-7M101.8 116.5l-6.9-6.9M101.8 120.6l-6.9-6.9M101.8 124.7l-6.9-7M101.8 128.5l-6.9-6.9M101.8 132.6l-6.9-6.9M101.8 136.7l-6.9-7M101.8 140.5l-6.9-6.9M101.8 144.6l-6.9-6.9M101.8 148.7l-6.9-7M101.8 152.8l-6.9-7M101.8 156.6l-6.9-6.9M101.8 160.7l-6.9-7M101.8 164.8l-6.9-7M101.8 168.6l-6.9-6.9M101.8 172.7l-6.9-7M101.8 176.8l-6.9-7M98.2 177.3l-3.3-3.4M100.4 177.3l1.4-1.5M96.3 177.3l5.5-5.3M94.9 174.9l6.9-7M94.9 170.8l6.9-7M94.9 166.9l6.9-6.9M94.9 162.9l6.9-7M94.9 158.8l6.9-7M94.9 154.7l6.9-7M94.9 150.9l6.9-7M94.9 146.8l6.9-7M94.9 142.7l6.9-7M94.9 138.9l6.9-7M94.9 134.8l6.9-7M94.9 130.7l6.9-7M94.9 126.6l6.9-6.9M94.9 122.8l6.9-7M94.9 118.7l6.9-7M94.9 114.6l6.9-6.9M94.9 110.8l6.9-7M94.9 106.7l6.9-7M94.9 102.6l6.9-6.9M94.9 98.8l6.9-7M94.9 94.7l6.9-7M94.9 90.6l6.9-6.9M94.9 86.5l6.9-6.9M94.9 82.7l6.9-7M94.9 78.6l6.9-6.9M94.9 74.5l6.9-6.9"/><path class="cls-13" d="M101.6 213h-4.1l4.1 4.1V213"/><path class="cls-5" d="M101.8 216.9L98 213M101.1 216.6l.7-.7M99.2 214.5l1.4-1.5"/><path class="cls-13" d="M101.6 213h-4.1l4.1 4.1V213"/><path class="cls-5" d="M101.8 216.9L98 213M101.1 216.6l.7-.7M99.2 214.5l1.4-1.5"/><path class="cls-6" d="M100.4 207h1.7v6h-1.7zM100.4 177.3h1.7v2.4h-1.7z"/><path class="cls-6" d="M100.4 179.7h1.7v27.4h-1.7zM100.4 207v-27.3"/><path class="cls-1" d="M94.6 207.3v-27.9"/><path class="cls-6" d="M94.6 179.9v-.5"/><path class="cls-13" d="M94.6 213v-5.7h5.8v5.7"/><path class="cls-5" d="M100.6 207.5l-.4-.2M100.6 211.6l-4.5-4.3M98 213l-3.1-3.1M96.6 213l4-3.8M94.9 210.9l3.6-3.6"/><path class="cls-13" d="M94.6 177.3v2.1h5.8v-2.1"/><path class="cls-5" d="M100.4 179.4l-2.2-2.1M96.3 179.4l-1.4-1.7M98.2 179.4l2.2-2.1M94.9 178.9l1.4-1.6M102.2 207c14.9 0 27.2-12.3 27.2-27.2M102.1 179.7h27.3"/><path class="cls-13" d="M2.2 349.1l7-7v-87.3h-7v94.3"/><path class="cls-5" d="M9.4 256.7l-2.1-1.9M9.4 260.8l-6-6M9.4 264.6l-6.9-6.9M9.4 268.7l-6.9-7M9.4 272.8l-6.9-7M9.4 276.9l-6.9-7M9.4 280.7l-6.9-7M9.4 284.8l-6.9-7M9.4 288.9l-6.9-7M9.4 292.7l-6.9-7M9.4 296.8l-6.9-7M9.4 300.9l-6.9-7M9.4 304.7l-6.9-7M9.4 308.8l-6.9-7M9.4 312.9l-6.9-7M9.4 316.9L2.5 310M9.4 320.8l-6.9-7M9.4 324.9l-6.9-7M9.4 328.9L2.5 322M9.4 332.8l-6.9-7M9.4 336.9l-6.9-7M9.4 340.9L2.5 334M8 343.6l-5.5-5.5M5.8 345.5l-3.3-3.6M3.9 347.4L2.5 346M2.5 347.4l6.9-6.9M2.5 343.3l6.9-6.9M2.5 339.5l6.9-7M2.5 335.4l6.9-6.9M2.5 331.3l6.9-6.9M2.5 327.3l6.9-7M2.5 323.4l6.9-6.9M2.5 319.3l6.9-6.9M2.5 315.3l6.9-7M2.5 311.4l6.9-6.9M2.5 307.3l6.9-6.9M2.5 303.3l6.9-7M2.5 299.4l6.9-6.9M2.5 295.3l6.9-6.9M2.5 291.3l6.9-7M2.5 287.2l6.9-7M2.5 283.3l6.9-6.9M2.5 279.3l6.9-7M2.5 275.2l6.9-7M2.5 271.3l6.9-6.9M2.5 267.3l6.9-7M2.5 263.2l6.9-7M2.5 259.3l4.3-4.5M2.5 255.3l.2-.5"/><path class="cls-13" d="M2.2 349.1l7-7v-87.3h-7v94.3"/><path class="cls-5" d="M9.4 256.7l-2.1-1.9M9.4 260.8l-6-6M9.4 264.6l-6.9-6.9M9.4 268.7l-6.9-7M9.4 272.8l-6.9-7M9.4 276.9l-6.9-7M9.4 280.7l-6.9-7M9.4 284.8l-6.9-7M9.4 288.9l-6.9-7M9.4 292.7l-6.9-7M9.4 296.8l-6.9-7M9.4 300.9l-6.9-7M9.4 304.7l-6.9-7M9.4 308.8l-6.9-7M9.4 312.9l-6.9-7M9.4 316.9L2.5 310M9.4 320.8l-6.9-7M9.4 324.9l-6.9-7M9.4 328.9L2.5 322M9.4 332.8l-6.9-7M9.4 336.9l-6.9-7M9.4 340.9L2.5 334M8 343.6l-5.5-5.5M5.8 345.5l-3.3-3.6M3.9 347.4L2.5 346M2.5 347.4l6.9-6.9M2.5 343.3l6.9-6.9M2.5 339.5l6.9-7M2.5 335.4l6.9-6.9M2.5 331.3l6.9-6.9M2.5 327.3l6.9-7M2.5 323.4l6.9-6.9M2.5 319.3l6.9-6.9M2.5 315.3l6.9-7M2.5 311.4l6.9-6.9M2.5 307.3l6.9-6.9M2.5 303.3l6.9-7M2.5 299.4l6.9-6.9M2.5 295.3l6.9-6.9M2.5 291.3l6.9-7M2.5 287.2l6.9-7M2.5 283.3l6.9-6.9M2.5 279.3l6.9-7M2.5 275.2l6.9-7M2.5 271.3l6.9-6.9M2.5 267.3l6.9-7M2.5 263.2l6.9-7M2.5 259.3l4.3-4.5M2.5 255.3l.2-.5"/><path class="cls-13" d="M2.2 212.1h7v7.2h-7v-7.2"/><path class="cls-5" d="M9.4 212.5l-.7-.4M9.4 216.6l-4.8-4.5M8 219.3l-5.5-5.6M3.9 219.3l-1.4-1.7M6.3 219.3l3.1-3.2M2.5 219l6.9-6.9M2.5 215.2l2.9-3.1"/><path class="cls-13" d="M9.2 212.1h-7v7.2h7v-7.2"/><path class="cls-5" d="M9.4 212.5l-.7-.4M9.4 216.6l-4.8-4.5M8 219.3l-5.5-5.6M3.9 219.3l-1.4-1.7M6.3 219.3l3.1-3.2M2.5 219l6.9-6.9M2.5 215.2l2.9-3.1"/><path class="cls-13" d="M9.2 179.7v-108l-7-5.3v113.3h7"/><path class="cls-5" d="M9.4 72.4l-2.8-2.9M9.4 76.2l-6.9-6.9M9.4 80.3l-6.9-7M9.4 84.4l-6.9-7M9.4 88.5l-6.9-7M9.4 92.3l-6.9-7M9.4 96.4l-6.9-7M9.4 100.5l-6.9-7M9.4 104.3l-6.9-7M9.4 108.4l-6.9-7M9.4 112.5l-6.9-7M9.4 116.3l-6.9-7M9.4 120.4l-6.9-7M9.4 124.5l-6.9-7M9.4 128.5l-6.9-6.9M9.4 132.4l-6.9-7M9.4 136.5l-6.9-7M9.4 140.5l-6.9-6.9M9.4 144.4l-6.9-7M9.4 148.5l-6.9-7M9.4 152.5l-6.9-6.9M9.4 156.4l-6.9-7M9.4 160.5l-6.9-7M9.4 164.5l-6.9-6.9M9.4 168.6l-6.9-6.9M9.4 172.5l-6.9-7M9.4 176.5l-6.9-6.9M8.5 179.7l-6-6M4.4 179.7l-1.9-2.2M5.8 179.7l3.6-3.6M2.5 178.9l6.9-6.9M2.5 175.1l6.9-7M2.5 171l6.9-6.9M2.5 166.9l6.9-6.9M2.5 163.1l6.9-7M2.5 159l6.9-6.9M2.5 154.9l6.9-6.9M2.5 151.1l6.9-7M2.5 147l6.9-6.9M2.5 142.9l6.9-6.9M2.5 138.9l6.9-7M2.5 135l6.9-6.9M2.5 130.9l6.9-6.9M2.5 126.9l6.9-7M2.5 123l6.9-6.9M2.5 118.9l6.9-6.9M2.5 114.9l6.9-7M2.5 110.8l6.9-7M2.5 106.9l6.9-6.9M2.5 102.9l6.9-7M2.5 98.8l6.9-7M2.5 94.9L9.4 88M2.5 90.9l6.9-7M2.5 86.8l6.9-7M2.5 82.9L9.4 76M2.5 78.9l6.9-7M2.5 74.8L7 70M2.5 70.7l2.4-2.4M2.5 66.9v-.3"/><path class="cls-13" d="M9.2 179.7v-108l-7-5.3v113.3h7"/><path class="cls-5" d="M9.4 72.4l-2.8-2.9M9.4 76.2l-6.9-6.9M9.4 80.3l-6.9-7M9.4 84.4l-6.9-7M9.4 88.5l-6.9-7M9.4 92.3l-6.9-7M9.4 96.4l-6.9-7M9.4 100.5l-6.9-7M9.4 104.3l-6.9-7M9.4 108.4l-6.9-7M9.4 112.5l-6.9-7M9.4 116.3l-6.9-7M9.4 120.4l-6.9-7M9.4 124.5l-6.9-7M9.4 128.5l-6.9-6.9M9.4 132.4l-6.9-7M9.4 136.5l-6.9-7M9.4 140.5l-6.9-6.9M9.4 144.4l-6.9-7M9.4 148.5l-6.9-7M9.4 152.5l-6.9-6.9M9.4 156.4l-6.9-7M9.4 160.5l-6.9-7M9.4 164.5l-6.9-6.9M9.4 168.6l-6.9-6.9M9.4 172.5l-6.9-7M9.4 176.5l-6.9-6.9M8.5 179.7l-6-6M4.4 179.7l-1.9-2.2M5.8 179.7l3.6-3.6M2.5 178.9l6.9-6.9M2.5 175.1l6.9-7M2.5 171l6.9-6.9M2.5 166.9l6.9-6.9M2.5 163.1l6.9-7M2.5 159l6.9-6.9M2.5 154.9l6.9-6.9M2.5 151.1l6.9-7M2.5 147l6.9-6.9M2.5 142.9l6.9-6.9M2.5 138.9l6.9-7M2.5 135l6.9-6.9M2.5 130.9l6.9-6.9M2.5 126.9l6.9-7M2.5 123l6.9-6.9M2.5 118.9l6.9-6.9M2.5 114.9l6.9-7M2.5 110.8l6.9-7M2.5 106.9l6.9-6.9M2.5 102.9l6.9-7M2.5 98.8l6.9-7M2.5 94.9L9.4 88M2.5 90.9l6.9-7M2.5 86.8l6.9-7M2.5 82.9L9.4 76M2.5 78.9l6.9-7M2.5 74.8L7 70M2.5 70.7l2.4-2.4M2.5 66.9v-.3"/><path class="cls-6" d="M1.5 179.7h1.7v2.6H1.5zM1.5 209.4h1.7v2.6H1.5zM1.5 182.3h1.7v27.1H1.5zM3.2 182.3v27.1"/><path class="cls-1" d="M9.2 182.1v27.8"/><path class="cls-6" d="M9.2 209.4v.5"/><path class="cls-13" d="M9.2 179.7v2.4h-6v-2.4"/><path class="cls-5" d="M9.4 180.6l-.9-.9M6.8 182.1l-2.4-2.4M7.3 182.1l2.1-2M3.4 182.1l2.4-2.4"/><path class="cls-13" d="M9.2 212.1v-2.2h-6v2.2"/><path class="cls-5" d="M8.7 212.1l-2.1-2.2M4.6 212.1l-1.2-1.5M5.4 212.1l2.1-2.2M3.4 210.1l.3-.2"/><path class="cls-6" d="M1.5 219.3h1.7v2.4H1.5zM1.5 249h1.7v5.8H1.5z"/><path class="cls-6" d="M1.5 221.7h1.7v27.4H1.5zM3.2 221.7V249"/><path class="cls-1" d="M9.2 221.4v27.9"/><path class="cls-6" d="M9.2 248.8v.5"/><path class="cls-13" d="M9.2 219.3v2.1h-6v-2.1"/><path class="cls-5" d="M9.4 220.7L8 219.3M6.1 221.4l-2.2-2.1M8 221.4l1.4-1.2M4.2 221.4l2.1-2.1"/><path class="cls-13" d="M9.2 254.8v-5.5h-6v5.5"/><path class="cls-5" d="M9.4 252.6l-3.6-3.3M7.3 254.8l-3.9-4.1M6.8 254.8l2.6-2.4M3.4 254.3l4.8-5M3.4 250.2l1-.9"/><path class="cls-13" d="M119.6 271.8l-7 7.5v108h7V271.8"/><path class="cls-5" d="M119.8 274.9l-1.6-1.4M119.8 279l-3.6-3.6M119.8 282.9l-5.5-5.3M119.8 286.9l-6.9-6.9M119.8 291l-6.9-6.9M119.8 294.9l-6.9-7M119.8 298.9l-6.9-6.9M119.8 303l-6.9-6.9M119.8 307.1l-6.9-7M119.8 310.9l-6.9-6.9M119.8 315l-6.9-6.9M119.8 319.1l-6.9-7M119.8 322.9l-6.9-6.9M119.8 327l-6.9-6.9M119.8 331.1l-6.9-7M119.8 334.9l-6.9-6.9M119.8 339l-6.9-6.9M119.8 343.1l-6.9-7M119.8 347.2l-6.9-7M119.8 351l-6.9-6.9M119.8 355.1l-6.9-7M119.8 359.2l-6.9-7M119.8 363l-6.9-6.9M119.8 367.1l-6.9-7M119.8 371.2l-6.9-7M119.8 375l-6.9-6.9M119.8 379.1l-6.9-7M119.8 383.2l-6.9-7M119.8 387.3l-6.9-7M115.8 387.3l-2.9-3.2M118.9 387.3l.9-1M114.8 387.3l5-4.8M112.9 385.3l6.9-6.9M112.9 381.3l6.9-7M112.9 377.4l6.9-6.9M112.9 373.3l6.9-6.9M112.9 369.3l6.9-7M112.9 365.2l6.9-7M112.9 361.3l6.9-6.9M112.9 357.3l6.9-7M112.9 353.2l6.9-7M112.9 349.3l6.9-6.9M112.9 345.3l6.9-7M112.9 341.2l6.9-7M112.9 337.3l6.9-6.9M112.9 333.3l6.9-7M112.9 329.2l6.9-7M112.9 325.1l6.9-7M112.9 321.3l6.9-7M112.9 317.2l6.9-7M112.9 313.1l6.9-7M112.9 309.3l6.9-7M112.9 305.2l6.9-7M112.9 301.1l6.9-7M112.9 297.3l6.9-7M112.9 293.2l6.9-7M112.9 289.1l6.9-7M112.9 285l6.9-6.9M112.9 281.2l6.9-7"/><path class="cls-13" d="M119.6 271.8l-7 7.5v108h7V271.8"/><path class="cls-5" d="M119.8 274.9l-1.6-1.4M119.8 279l-3.6-3.6M119.8 282.9l-5.5-5.3M119.8 286.9l-6.9-6.9M119.8 291l-6.9-6.9M119.8 294.9l-6.9-7M119.8 298.9l-6.9-6.9M119.8 303l-6.9-6.9M119.8 307.1l-6.9-7M119.8 310.9l-6.9-6.9M119.8 315l-6.9-6.9M119.8 319.1l-6.9-7M119.8 322.9l-6.9-6.9M119.8 327l-6.9-6.9M119.8 331.1l-6.9-7M119.8 334.9l-6.9-6.9M119.8 339l-6.9-6.9M119.8 343.1l-6.9-7M119.8 347.2l-6.9-7M119.8 351l-6.9-6.9M119.8 355.1l-6.9-7M119.8 359.2l-6.9-7M119.8 363l-6.9-6.9M119.8 367.1l-6.9-7M119.8 371.2l-6.9-7M119.8 375l-6.9-6.9M119.8 379.1l-6.9-7M119.8 383.2l-6.9-7M119.8 387.3l-6.9-7M115.8 387.3l-2.9-3.2M118.9 387.3l.9-1M114.8 387.3l5-4.8M112.9 385.3l6.9-6.9M112.9 381.3l6.9-7M112.9 377.4l6.9-6.9M112.9 373.3l6.9-6.9M112.9 369.3l6.9-7M112.9 365.2l6.9-7M112.9 361.3l6.9-6.9M112.9 357.3l6.9-7M112.9 353.2l6.9-7M112.9 349.3l6.9-6.9M112.9 345.3l6.9-7M112.9 341.2l6.9-7M112.9 337.3l6.9-6.9M112.9 333.3l6.9-7M112.9 329.2l6.9-7M112.9 325.1l6.9-7M112.9 321.3l6.9-7M112.9 317.2l6.9-7M112.9 313.1l6.9-7M112.9 309.3l6.9-7M112.9 305.2l6.9-7M112.9 301.1l6.9-7M112.9 297.3l6.9-7M112.9 293.2l6.9-7M112.9 289.1l6.9-7M112.9 285l6.9-6.9M112.9 281.2l6.9-7"/><path class="cls-13" d="M49.3 217.1l-6-7.2v69.4l6-7.5v-54.7"/><path class="cls-5" d="M46.9 214.2l-3.4-3.6M49.5 220.7l-6-6M49.5 224.5l-6-6M49.5 228.6l-6-6M49.5 232.7l-6-6M49.5 236.8l-6-6M49.5 240.6l-6-6M49.5 244.7l-6-6M49.5 248.8l-6-6M49.5 252.6l-6-6M49.5 256.7l-6-6M49.5 260.8l-6-6M49.5 264.6l-6-6M49.5 268.7l-6-6M49 272.3l-5.5-5.5M47.1 274.5l-3.6-3.6M45.4 276.9l-1.9-2.2M43.5 279v-.2M43.5 278.3l3.9-3.8M43.5 274.2l6-6M43.5 270.4l6-6M43.5 266.3l6-6M43.5 262.2l6-6M43.5 258.4l6-6M43.5 254.3l6-6M43.5 250.2l6-6M43.5 246.1l6-6M43.5 242.3l6-6M43.5 238.2l6-6M43.5 234.1l6-6M43.5 230.3l6-6M43.5 226.2l6-6M43.5 222.1l5.5-5.5M43.5 218.3l3.6-3.8M43.5 214.2l1.9-1.9M43.5 210.1"/><path class="cls-13" d="M49.3 217.1l-6-7.2v69.4l6-7.5v-54.7"/><path class="cls-5" d="M46.9 214.2l-3.4-3.6M49.5 220.7l-6-6M49.5 224.5l-6-6M49.5 228.6l-6-6M49.5 232.7l-6-6M49.5 236.8l-6-6M49.5 240.6l-6-6M49.5 244.7l-6-6M49.5 248.8l-6-6M49.5 252.6l-6-6M49.5 256.7l-6-6M49.5 260.8l-6-6M49.5 264.6l-6-6M49.5 268.7l-6-6M49 272.3l-5.5-5.5M47.1 274.5l-3.6-3.6M45.4 276.9l-1.9-2.2M43.5 279v-.2M43.5 278.3l3.9-3.8M43.5 274.2l6-6M43.5 270.4l6-6M43.5 266.3l6-6M43.5 262.2l6-6M43.5 258.4l6-6M43.5 254.3l6-6M43.5 250.2l6-6M43.5 246.1l6-6M43.5 242.3l6-6M43.5 238.2l6-6M43.5 234.1l6-6M43.5 230.3l6-6M43.5 226.2l6-6M43.5 222.1l5.5-5.5M43.5 218.3l3.6-3.8M43.5 214.2l1.9-1.9M43.5 210.1"/><path class="cls-13" d="M49.3 271.8l-6 7.5h6v-7.5"/><path class="cls-5" d="M49.5 272.8l-.5-.5M49.5 276.9l-2.4-2.4M47.8 279.3l-2.4-2.4M44 279.3l-.5-.3M46.4 279.3l3.1-2.9M47.4 274.5l2.1-2.2"/><path class="cls-13" d="M49.3 271.8l-6 7.5h6v-7.5"/><path class="cls-5" d="M49.5 272.8l-.5-.5M49.5 276.9l-2.4-2.4M47.8 279.3l-2.4-2.4M44 279.3l-.5-.3M46.4 279.3l3.1-2.9M47.4 274.5l2.1-2.2"/><path class="cls-13" d="M84.8 279.3h27.8l7-7.5H84.8v7.5"/><path class="cls-5" d="M118.2 273.5l-1.5-1.7M116.2 275.4l-3.6-3.6M114.3 277.6l-5.7-5.8M112.2 279.3l-7.5-7.5M108.1 279.3l-7.5-7.5M104 279.3l-7.4-7.5M99.9 279.3l-7.4-7.5M96.1 279.3l-7.5-7.5M92 279.3l-7-7M87.9 279.3l-2.9-3.2M110.7 279.3l7.5-7.5M106.6 279.3l7.5-7.5M102.6 279.3l7.4-7.5M98.5 279.3l7.4-7.5M94.6 279.3l7.5-7.5M90.6 279.3l7.4-7.5M86.5 279.3l7.4-7.5M85 276.9l5.1-5.1M85 272.8l1-1"/><path class="cls-13" d="M84.8 279.3h27.8l7-7.5H84.8v7.5"/><path class="cls-5" d="M118.2 273.5l-1.5-1.7M116.2 275.4l-3.6-3.6M114.3 277.6l-5.7-5.8M112.2 279.3l-7.5-7.5M108.1 279.3l-7.5-7.5M104 279.3l-7.4-7.5M99.9 279.3l-7.4-7.5M96.1 279.3l-7.5-7.5M92 279.3l-7-7M87.9 279.3l-2.9-3.2M110.7 279.3l7.5-7.5M106.6 279.3l7.5-7.5M102.6 279.3l7.4-7.5M98.5 279.3l7.4-7.5M94.6 279.3l7.5-7.5M90.6 279.3l7.4-7.5M86.5 279.3l7.4-7.5M85 276.9l5.1-5.1M85 272.8l1-1"/><path class="cls-6" d="M81.7 273.3H52.4M81.7 279.3H52.4M52.9 279.3h-.5"/><path class="cls-13" d="M84.8 279.3h-3.1v-6h3.1"/><path class="cls-5" d="M85 276.1l-3.1-2.8M84.1 279.3l-2.2-2.2M82.6 279.3l2.4-2.4M81.9 275.9l2.7-2.6"/><path class="cls-13" d="M49.3 279.3h3.1v-6h-3.1"/><path class="cls-5" d="M52.6 275.9l-2.6-2.6M51.9 279.3l-2.4-2.4M50.5 279.3l2.1-2.2M49.5 276.4l2.9-3.1"/><path class="cls-6" d="M51.9 224.8h29.8v39.6H51.9zM50.2 273.3h35.6M68.5 270.4H54.6M81.2 267.3H67.5M50.2 215.7h35.6M68.5 218.8H54.6M81.2 221.7H67.5M94.6 110.8h-34M94.6 118.5h-34M94.6 126.1h-34M94.6 133.8h-34M94.6 141.5h-34M94.6 149.2h-34M94.6 156.9h-34M94.6 164.5h-34M9.2 164.5h34.1M9.2 156.9h34.1M9.2 149.2h34.1M9.2 141.5h34.1M9.2 133.8h34.1M9.2 126.1h34.1M9.2 118.5h34.1M9.2 110.8h34.1M94.6 130l-35.5 7.9M44.7 106.9h14.4v61.2H44.7z"/><path class="cls-6" d="M43.3 105.5h17.3v64.1H43.3zM81.4 114.9h-7.9M77.6 110.8l3.8 4.1M73.5 114.9l4.1-4.1M81.4 137.9h-7.9M77.6 133.8l3.8 4.1M73.5 137.9l4.1-4.1M22.2 160.5h7.9M26.2 164.5l-4-4M30.1 160.5l-3.9 4"/><path class="cls-13" d="M212.7 211.6h-4.3v-114h4.3v114"/><path class="cls-5" d="M213 99.5l-2-1.9M213 103.3l-4.4-4.3M213 107.4l-4.4-4.3M213 111.5l-4.4-4.3M213 115.6l-4.4-4.3M213 119.4l-4.4-4.3M213 123.5l-4.4-4.3M213 127.6l-4.4-4.3M213 131.4l-4.4-4.3M213 135.5l-4.4-4.3M213 139.6l-4.4-4.3M213 143.4l-4.4-4.3M213 147.5l-4.4-4.3M213 151.6l-4.4-4.3M213 155.7l-4.4-4.4M213 159.5l-4.4-4.3M213 163.6l-4.4-4.3M213 167.7l-4.4-4.4M213 171.5l-4.4-4.3M213 175.6l-4.4-4.3M213 179.7l-4.4-4.4M213 183.7l-4.4-4.3M213 187.6l-4.4-4.3M213 191.7l-4.4-4.4M213 195.7l-4.4-4.3M213 199.6l-4.4-4.3M213 203.7l-4.4-4.4M213 207.7l-4.4-4.3M212.7 211.6l-4.1-4.3M208.6 211.6v-.3M210.3 211.6l2.7-2.4M208.6 209.4l4.4-4.3M208.6 205.3l4.4-4.3M208.6 201.5l4.4-4.3M208.6 197.4l4.4-4.3M208.6 193.3l4.4-4.3M208.6 189.3l4.4-4.4M208.6 185.4l4.4-4.3M208.6 181.3l4.4-4.3M208.6 177.3l4.4-4.4M208.6 173.4l4.4-4.3M208.6 169.3l4.4-4.3M208.6 165.3l4.4-4.4M208.6 161.2l4.4-4.3M208.6 157.3l4.4-4.3M208.6 153.3l4.4-4.4M208.6 149.2l4.4-4.3M208.6 145.3l4.4-4.3M208.6 141.3l4.4-4.4M208.6 137.2l4.4-4.3M208.6 133.3l4.4-4.3M208.6 129.3l4.4-4.4M208.6 125.2l4.4-4.3M208.6 121.1l4.4-4.3M208.6 117.3l4.4-4.4M208.6 113.2l4.4-4.3M208.6 109.1l4.4-4.3M208.6 105.3l4.4-4.4M208.6 101.2l3.4-3.6"/><path class="cls-13" d="M208.4 211.6h4.3v-114h-4.3v114"/><path class="cls-5" d="M213 99.5l-2-1.9M213 103.3l-4.4-4.3M213 107.4l-4.4-4.3M213 111.5l-4.4-4.3M213 115.6l-4.4-4.3M213 119.4l-4.4-4.3M213 123.5l-4.4-4.3M213 127.6l-4.4-4.3M213 131.4l-4.4-4.3M213 135.5l-4.4-4.3M213 139.6l-4.4-4.3M213 143.4l-4.4-4.3M213 147.5l-4.4-4.3M213 151.6l-4.4-4.3M213 155.7l-4.4-4.4M213 159.5l-4.4-4.3M213 163.6l-4.4-4.3M213 167.7l-4.4-4.4M213 171.5l-4.4-4.3M213 175.6l-4.4-4.3M213 179.7l-4.4-4.4M213 183.7l-4.4-4.3M213 187.6l-4.4-4.3M213 191.7l-4.4-4.4M213 195.7l-4.4-4.3M213 199.6l-4.4-4.3M213 203.7l-4.4-4.4M213 207.7l-4.4-4.3M212.7 211.6l-4.1-4.3M208.6 211.6v-.3M210.3 211.6l2.7-2.4M208.6 209.4l4.4-4.3M208.6 205.3l4.4-4.3M208.6 201.5l4.4-4.3M208.6 197.4l4.4-4.3M208.6 193.3l4.4-4.3M208.6 189.3l4.4-4.4M208.6 185.4l4.4-4.3M208.6 181.3l4.4-4.3M208.6 177.3l4.4-4.4M208.6 173.4l4.4-4.3M208.6 169.3l4.4-4.3M208.6 165.3l4.4-4.4M208.6 161.2l4.4-4.3M208.6 157.3l4.4-4.3M208.6 153.3l4.4-4.4M208.6 149.2l4.4-4.3M208.6 145.3l4.4-4.3M208.6 141.3l4.4-4.4M208.6 137.2l4.4-4.3M208.6 133.3l4.4-4.3M208.6 129.3l4.4-4.4M208.6 125.2l4.4-4.3M208.6 121.1l4.4-4.3M208.6 117.3l4.4-4.4M208.6 113.2l4.4-4.3M208.6 109.1l4.4-4.3M208.6 105.3l4.4-4.4M208.6 101.2l3.4-3.6"/><path class="cls-13" d="M212.7 356.3h-4.3V236.8h4.3v119.5"/><path class="cls-5" d="M213 239.7l-3.2-2.9M213 243.7l-4.4-4.3M213 247.8l-4.4-4.3M213 251.7l-4.4-4.4M213 255.7l-4.4-4.3M213 259.8l-4.4-4.3M213 263.9l-4.4-4.3M213 267.7l-4.4-4.3M213 271.8l-4.4-4.3M213 275.9l-4.4-4.3M213 279.7l-4.4-4.3M213 283.8l-4.4-4.3M213 287.9l-4.4-4.3M213 292l-4.4-4.3M213 295.8l-4.4-4.3M213 299.9l-4.4-4.3M213 304l-4.4-4.3M213 307.8l-4.4-4.3M213 311.9l-4.4-4.3M213 316l-4.4-4.3M213 319.8l-4.4-4.3M213 323.9l-4.4-4.3M213 328l-4.4-4.3M213 332.1l-4.4-4.4M213 335.9l-4.4-4.3M213 340l-4.4-4.3M213 344.1l-4.4-4.4M213 347.9l-4.4-4.3M213 352l-4.4-4.3M213 356.1l-4.4-4.4M209.1 356.3l-.5-.7M209.8 356.3l3.2-2.9M208.6 353.7l4.4-4.4M208.6 349.8l4.4-4.3M208.6 345.7l4.4-4.3M208.6 341.7l4.4-4.4M208.6 337.6l4.4-4.3M208.6 333.7l4.4-4.3M208.6 329.7l4.4-4.4M208.6 325.6l4.4-4.3M208.6 321.7l4.4-4.3M208.6 317.7l4.4-4.4M208.6 313.6l4.4-4.3M208.6 309.7l4.4-4.3M208.6 305.7l4.4-4.4M208.6 301.6l4.4-4.3M208.6 297.5l4.4-4.3M208.6 293.7l4.4-4.4M208.6 289.6l4.4-4.3M208.6 285.5l4.4-4.3M208.6 281.7l4.4-4.4M208.6 277.6l4.4-4.3M208.6 273.5l4.4-4.3M208.6 269.4l4.4-4.3M208.6 265.6l4.4-4.3M208.6 261.5l4.4-4.3M208.6 257.4l4.4-4.3M208.6 253.6l4.4-4.3M208.6 249.5l4.4-4.3M208.6 245.4l4.4-4.3M208.6 241.6l4.4-4.3M208.6 237.5l.5-.7"/><path class="cls-13" d="M208.4 356.3h4.3V236.8h-4.3v119.5"/><path class="cls-5" d="M213 239.7l-3.2-2.9M213 243.7l-4.4-4.3M213 247.8l-4.4-4.3M213 251.7l-4.4-4.4M213 255.7l-4.4-4.3M213 259.8l-4.4-4.3M213 263.9l-4.4-4.3M213 267.7l-4.4-4.3M213 271.8l-4.4-4.3M213 275.9l-4.4-4.3M213 279.7l-4.4-4.3M213 283.8l-4.4-4.3M213 287.9l-4.4-4.3M213 292l-4.4-4.3M213 295.8l-4.4-4.3M213 299.9l-4.4-4.3M213 304l-4.4-4.3M213 307.8l-4.4-4.3M213 311.9l-4.4-4.3M213 316l-4.4-4.3M213 319.8l-4.4-4.3M213 323.9l-4.4-4.3M213 328l-4.4-4.3M213 332.1l-4.4-4.4M213 335.9l-4.4-4.3M213 340l-4.4-4.3M213 344.1l-4.4-4.4M213 347.9l-4.4-4.3M213 352l-4.4-4.3M213 356.1l-4.4-4.4M209.1 356.3l-.5-.7M209.8 356.3l3.2-2.9M208.6 353.7l4.4-4.4M208.6 349.8l4.4-4.3M208.6 345.7l4.4-4.3M208.6 341.7l4.4-4.4M208.6 337.6l4.4-4.3M208.6 333.7l4.4-4.3M208.6 329.7l4.4-4.4M208.6 325.6l4.4-4.3M208.6 321.7l4.4-4.3M208.6 317.7l4.4-4.4M208.6 313.6l4.4-4.3M208.6 309.7l4.4-4.3M208.6 305.7l4.4-4.4M208.6 301.6l4.4-4.3M208.6 297.5l4.4-4.3M208.6 293.7l4.4-4.4M208.6 289.6l4.4-4.3M208.6 285.5l4.4-4.3M208.6 281.7l4.4-4.4M208.6 277.6l4.4-4.3M208.6 273.5l4.4-4.3M208.6 269.4l4.4-4.3M208.6 265.6l4.4-4.3M208.6 261.5l4.4-4.3M208.6 257.4l4.4-4.3M208.6 253.6l4.4-4.3M208.6 249.5l4.4-4.3M208.6 245.4l4.4-4.3M208.6 241.6l4.4-4.3M208.6 237.5l.5-.7"/><path class="cls-6" d="M212.7 380.5h-4.3M212.7 358h-4.3"/><path class="cls-5" d="M212.6 380.6c12.4 0 22.7-10.2 22.7-22.7M212.7 358h22.6"/><path class="cls-6" d="M212.7 95.9h-4.3M212.7 73.3h-4.3"/><path class="cls-5" d="M235.3 96c0-12.4-10.2-22.7-22.7-22.7M212.7 95.9h22.6"/><path class="cls-1" d="M212.7 236.8v-25.2M208.4 236.8v-25.2"/><path class="cls-6" d="M212.7 235.3h-4.3M212.7 212.8h-4.3"/><path class="cls-5" d="M212.6 235.4c6 0 11.8-2.4 16-6.6 4.3-4.3 6.6-10 6.6-16M212.7 212.8h22.6"/><path class="cls-13" d="M212.7 268.2v-4.3h85.5v4.3h-85.5"/><path class="cls-5" d="M213 265.6l1.4-1.7M214.4 268.2l4.3-4.3M218.7 268.2l4.3-4.3M222.8 268.2l4.3-4.3M227.1 268.2l4.3-4.3M231.4 268.2l4.4-4.3M235.8 268.2l4.3-4.3M239.8 268.2l4.4-4.3M244.2 268.2l4.3-4.3M248.5 268.2l4.3-4.3M252.6 268.2l4.3-4.3M256.9 268.2l4.3-4.3M261.2 268.2l4.3-4.3M265.3 268.2l4.3-4.3M269.6 268.2l4.3-4.3M273.9 268.2l4.3-4.3M278.2 268.2l4.4-4.3M282.3 268.2l4.3-4.3M286.6 268.2l4.4-4.3M291 268.2l4.3-4.3M295 268.2l3.4-3.1"/><path class="cls-13" d="M212.7 263.9v4.3h85.5v-4.3h-85.5"/><path class="cls-5" d="M213 265.6l1.4-1.7M214.4 268.2l4.3-4.3M218.7 268.2l4.3-4.3M222.8 268.2l4.3-4.3M227.1 268.2l4.3-4.3M231.4 268.2l4.4-4.3M235.8 268.2l4.3-4.3M239.8 268.2l4.4-4.3M244.2 268.2l4.3-4.3M248.5 268.2l4.3-4.3M252.6 268.2l4.3-4.3M256.9 268.2l4.3-4.3M261.2 268.2l4.3-4.3M265.3 268.2l4.3-4.3M269.6 268.2l4.3-4.3M273.9 268.2l4.3-4.3M278.2 268.2l4.4-4.3M282.3 268.2l4.3-4.3M286.6 268.2l4.4-4.3M291 268.2l4.3-4.3M295 268.2l3.4-3.1"/><path class="cls-13" d="M212.7 207.3v-5.1h85.5v5.1h-85.5"/><path class="cls-5" d="M213 206.1l3.6-3.9M215.8 207.3l5.1-5.1M220.2 207.3l5-5.1M224.2 207.3l5.1-5.1M228.6 207.3l5-5.1M232.9 207.3l5-5.1M237.2 207.3l5-5.1M241.3 207.3l5-5.1M245.6 207.3l5-5.1M249.9 207.3l5.1-5.1M254 207.3l5-5.1M258.3 207.3l5.1-5.1M262.6 207.3l5.1-5.1M267 207.3l5-5.1M271 207.3l5.1-5.1M275.4 207.3l5-5.1M279.7 207.3l5-5.1M283.8 207.3l5-5.1M288.1 207.3l5-5.1M292.4 207.3l5-5.1M296.7 207.3l1.7-1.7"/><path class="cls-13" d="M212.7 202.2v5.1h85.5v-5.1h-85.5"/><path class="cls-5" d="M213 206.1l3.6-3.9M215.8 207.3l5.1-5.1M220.2 207.3l5-5.1M224.2 207.3l5.1-5.1M228.6 207.3l5-5.1M232.9 207.3l5-5.1M237.2 207.3l5-5.1M241.3 207.3l5-5.1M245.6 207.3l5-5.1M249.9 207.3l5.1-5.1M254 207.3l5-5.1M258.3 207.3l5.1-5.1M262.6 207.3l5.1-5.1M267 207.3l5-5.1M271 207.3l5.1-5.1M275.4 207.3l5-5.1M279.7 207.3l5-5.1M283.8 207.3l5-5.1M288.1 207.3l5-5.1M292.4 207.3l5-5.1M296.7 207.3l1.7-1.7"/><path class="cls-6" d="M43.3 266.3H9.2M43.3 273.7H9.2M22.4 270.1h7.9M26.2 266.3l-3.8 3.8M30.3 270.1l-4.1-3.8"/><path class="cls-14" d="M33 397.1l-3.2-3.6H19.5v3.6H33"/><path class="cls-6" d="M19.8 397.1H33"/><path class="cls-13" d="M33 397.1l-3.2-3.6H19.5v3.6H33"/><path class="cls-5" d="M19.8 395.4l1.6 1.7M21.9 393.5l3.6 3.6M25.8 393.5l3.6 3.6M29.8 393.5l.8.7"/><path class="cls-6" d="M19.5 393.5h10.3M19.5 397.1H33"/><path class="cls-13" d="M112.6 347.2v-5.1H95.4v5.1h17.2"/><path class="cls-5" d="M112.9 344.1l-2.2-2M111.9 347.2l-5-5.1M107.8 347.2l-5-5.1M103.8 347.2l-5.1-5.1M99.7 347.2l-4.1-4.3M95.8 347.2l-.2-.3M110.7 347.2l2.2-1.9M106.9 347.2l5-5.1M102.8 347.2l5-5.1M98.7 347.2l5.1-5.1M95.6 346.5l4.3-4.4M95.6 342.4l.2-.3"/><path class="cls-13" d="M112.6 347.2v-5.1H95.4v5.1h17.2"/><path class="cls-5" d="M112.9 344.1l-2.2-2M111.9 347.2l-5-5.1M107.8 347.2l-5-5.1M103.8 347.2l-5.1-5.1M99.7 347.2l-4.1-4.3M95.8 347.2l-.2-.3M110.7 347.2l2.2-1.9M106.9 347.2l5-5.1M102.8 347.2l5-5.1M98.7 347.2l5.1-5.1M95.6 346.5l4.3-4.4M95.6 342.4l.2-.3"/><path class="cls-13" d="M37.5 342.1h-17v5.1h17v-5.1"/><path class="cls-5" d="M37.8 345.3l-3.2-3.2M35.6 347.2l-5-5.1M31.5 347.2l-5-5.1M27.7 347.2l-5.1-5.1M23.6 347.2l-2.9-3.1M34.6 347.2l3.2-2.9M30.6 347.2l5-5.1M26.7 347.2l5.1-5.1M22.6 347.2l5.1-5.1M20.7 345.3l2.9-3.2"/><path class="cls-13" d="M37.5 342.1h-17v5.1h17v-5.1"/><path class="cls-5" d="M37.8 345.3l-3.2-3.2M35.6 347.2l-5-5.1M31.5 347.2l-5-5.1M27.7 347.2l-5.1-5.1M23.6 347.2l-2.9-3.1M34.6 347.2l3.2-2.9M30.6 347.2l5-5.1M26.7 347.2l5.1-5.1M22.6 347.2l5.1-5.1M20.7 345.3l2.9-3.2"/><path class="cls-6" d="M37.5 347.2h57.9M94.9 347.2h.5M37.5 347.2v-5.1M37.5 342.6v-.5"/><path class="cls-1" d="M37.5 342.1h57.9"/><path class="cls-6" d="M94.9 342.1h.5M95.4 342.1v5.1M95.4 346.7v.5M36.8 347.2h59v2.2h-59zM40.4 347.2v2.1M92.2 347.2v2.1M36.8 349.3v-2.1M64.4 349.3v-2.1M40.4 349.3v-2.1M68.5 349.3v-2.1M64.4 349.3v-2.1M92.2 349.3v-2.1M68.5 349.3v-2.1M95.8 349.3v-2.1"/><path class="cls-14" d="M119.6 393.5h-16.8l-3.1 3.6h19.9v-3.6"/><path class="cls-6" d="M99.9 397.1h19.9"/><path class="cls-13" d="M119.6 393.5h-16.8l-3.1 3.6h19.9v-3.6"/><path class="cls-5" d="M100.6 396.1l1 1M102.6 394l3.1 3.1M105.9 393.5l3.6 3.6M110 393.5l3.6 3.6M114.1 393.5l3.6 3.6M118.2 393.5l1.6 1.7"/><path class="cls-6" d="M102.8 393.5h16.8M99.7 397.1h19.9"/><path class="cls-1" d="M29.6 398.8H103"/><path class="cls-13" d="M20.5 342.1l-7 7v28.1l7 10.1v-45.2"/><path class="cls-5" d="M20.7 344.1l-1.2-1M20.7 348.1l-3.1-2.8M20.7 352.2l-5-5M20.7 356.3l-6.9-7M20.7 360.1l-6.9-6.9M20.7 364.2l-6.9-6.9M20.7 368.3l-6.9-7M20.7 372.1l-6.9-6.9M20.7 376.2l-6.9-6.9M20.7 380.3l-6.9-7M20.7 384.1l-6.7-6.7M19.8 386.1l.9-.8M18.1 383.7l2.6-2.4M16.6 381.3l4.1-4.1M15 379.1l5.7-5.8M13.8 376.2l6.9-6.9M13.8 372.1l6.9-6.9M13.8 368.3l6.9-7M13.8 364.2l6.9-6.9M13.8 360.1l6.9-6.9M13.8 356.1l6.9-7M13.8 352.2l6.9-6.9"/><path class="cls-13" d="M20.5 342.1l-7 7v28.1l7 10.1v-45.2"/><path class="cls-5" d="M20.7 344.1l-1.2-1M20.7 348.1l-3.1-2.8M20.7 352.2l-5-5M20.7 356.3l-6.9-7M20.7 360.1l-6.9-6.9M20.7 364.2l-6.9-6.9M20.7 368.3l-6.9-7M20.7 372.1l-6.9-6.9M20.7 376.2l-6.9-6.9M20.7 380.3l-6.9-7M20.7 384.1l-6.7-6.7M19.8 386.1l.9-.8M18.1 383.7l2.6-2.4M16.6 381.3l4.1-4.1M15 379.1l5.7-5.8M13.8 376.2l6.9-6.9M13.8 372.1l6.9-6.9M13.8 368.3l6.9-7M13.8 364.2l6.9-6.9M13.8 360.1l6.9-6.9M13.8 356.1l6.9-7M13.8 352.2l6.9-6.9"/><path class="cls-13" d="M9.2 342.1l-7 7h11.3l7-7H9.2"/><path class="cls-5" d="M19.5 343.1l-.9-1M17.6 345.3l-3.1-3.2M15.7 347.2l-5.1-5.1M13.5 349.1L8 343.6M9.4 349.1l-3.6-3.6M5.6 349.1l-1.7-1.7M12.8 349.1l7-7M8.7 349.1l7-7M4.6 349.1l7-7"/><path class="cls-13" d="M9.2 342.1l-7 7h11.3l7-7H9.2"/><path class="cls-5" d="M19.5 343.1l-.9-1M17.6 345.3l-3.1-3.2M15.7 347.2l-5.1-5.1M13.5 349.1L8 343.6M9.4 349.1l-3.6-3.6M5.6 349.1l-1.7-1.7M12.8 349.1l7-7M8.7 349.1l7-7M4.6 349.1l7-7"/><path class="cls-1" d="M120.1 212.5v-35"/><path class="cls-6" d="M120.1 178v-.5M29.6 398.8v-1.7M103 398.8v-1.7"/><path class="cls-14" d="M29.8 393.5l3.2 3.6.9-10.8-3.3-.2-.8 7.4"/><path class="cls-6" d="M33 397.1h.2"/><path class="cls-13" d="M29.8 393.5l3.2 3.6.9-10.8-3.3-.2-.8 7.4"/><path class="cls-5" d="M30.6 394.2l2.6 2.7M30.3 389.9l3.1 3.1M30.6 386.3l3.1 3.1"/><path class="cls-6" d="M33.9 386.3l-.9 10.8M30.6 386.1l-.8 7.4"/><path class="cls-14" d="M33 352.9l3.3.3-.5 7.2-3.3-.5.5-7"/><path class="cls-13" d="M36.3 353.2l-3.3-.3-.5 7 3.3.5.5-7.2"/><path class="cls-5" d="M33 356.3l3.1 3.4M33.4 352.9l2.9 2.9"/><path class="cls-6" d="M36.3 353.2l-.5 7.2M33 352.9l-.5 7"/><path class="cls-14" d="M33.9 386.3l-3.3-.2 3.3.2M32.5 359.9l3.3.5-3.3-.5M35.8 360.4l-3.3-.5 3.3.5M30.6 386.1l3.3.2-3.3-.2M33.9 386.3l-3.3-.2 3.3.2M32.5 359.9l3.3.5-3.3-.5M35.8 360.4l-3.3-.5 3.3.5M30.6 386.1l3.3.2-3.3-.2M33.9 386.3l-3.3-.2 3.3.2M32.5 359.9l3.3.5-3.3-.5M35.8 360.4l-3.3-.5 3.3.5M30.6 386.1l3.3.2-3.3-.2M33.9 386.3l-3.3-.2 3.3.2M32.5 359.9l3.3.5-3.3-.5M35.8 360.4l-3.3-.5 3.3.5M30.6 386.1l3.3.2-3.3-.2M33.9 386.3l-3.3-.2 3.3.2M32.5 359.9l3.3.5-3.3-.5M35.8 360.4l-3.3-.5 3.3.5M30.6 386.1l3.3.2-3.3-.2M33.9 386.3l-3.3-.2 3.3.2M32.5 359.9l3.3.5-3.3-.5M35.8 360.4l-3.3-.5 3.3.5M30.6 386.1l3.3.2-3.3-.2"/><path class="cls-13" d="M35.8 360.4l-3.3-.5 3.3.5M30.6 386.1l3.3.2-3.3-.2"/><path class="cls-6" d="M33.9 386.3l-3.3-.2M33.9 386.3l-3.3-.2M32.5 359.9l3.3.5"/><path class="cls-14" d="M100.2 359.9l-3.4.5-.5-7.2 3.4-.3.5 7"/><path class="cls-13" d="M96.8 360.4l3.4-.5-.5-7-3.4.3.5 7.2"/><path class="cls-5" d="M96.8 360.4h.2M96.6 356.1l3.6 3.6M97.8 353.2l2.1 2.1"/><path class="cls-6" d="M96.8 360.4l-.5-7.2M100.2 359.9l-.5-7"/><path class="cls-14" d="M98.7 386.3l1 10.8 3.1-3.6-.5-7.4-3.6.2"/><path class="cls-6" d="M99.7 397.1h.2"/><path class="cls-13" d="M98.7 386.3l1 10.8 3.1-3.6-.5-7.4-3.6.2"/><path class="cls-5" d="M99.7 395.2l.9.9M99.2 390.6l3.4 3.4M99 386.3l3.8 3.8"/><path class="cls-6" d="M99.7 397.1l-1-10.8M102.8 393.5l-.5-7.4"/><path class="cls-14" d="M96.8 360.4l3.4-.5-3.4.5M102.3 386.1l-3.6.2 3.6-.2M98.7 386.3l3.6-.2-3.6.2M100.2 359.9l-3.4.5 3.4-.5M96.8 360.4l3.4-.5-3.4.5M102.3 386.1l-3.6.2 3.6-.2M98.7 386.3l3.6-.2-3.6.2M100.2 359.9l-3.4.5 3.4-.5M96.8 360.4l3.4-.5-3.4.5M102.3 386.1l-3.6.2 3.6-.2M98.7 386.3l3.6-.2-3.6.2M100.2 359.9l-3.4.5 3.4-.5M96.8 360.4l3.4-.5-3.4.5M102.3 386.1l-3.6.2 3.6-.2M98.7 386.3l3.6-.2-3.6.2M100.2 359.9l-3.4.5 3.4-.5M96.8 360.4l3.4-.5-3.4.5M102.3 386.1l-3.6.2 3.6-.2M98.7 386.3l3.6-.2-3.6.2M100.2 359.9l-3.4.5 3.4-.5M96.8 360.4l3.4-.5-3.4.5M102.3 386.1l-3.6.2 3.6-.2M98.7 386.3l3.6-.2-3.6.2M100.2 359.9l-3.4.5 3.4-.5"/><path class="cls-13" d="M98.7 386.3l3.6-.2-3.6.2M100.2 359.9l-3.4.5 3.4-.5"/><path class="cls-5" d="M97 360.4"/><path class="cls-6" d="M96.8 360.4l3.4-.5M96.8 360.4l3.4-.5M102.3 386.1l-3.6.2"/><path class="cls-5" d="M66.3 349.4c0 15.2 12.5 27.8 27.8 27.8M94.2 377.2v-27.9M66.3 349.3v2.9l-.5 2.7-.7 2.6-.9 2.6-1.2 2.4-1.2 2.4-1.7 2.2-1.9 1.9-2 1.9-2.1 1.5-2.4 1.4-2.4 1.2-2.7 1-2.6.7-2.6.2-2.9.3M38.5 377.2v-27.9M38.5 349.8v-.5"/><path class="cls-13" d="M101.6 217.1l-7-7.2h-9.8v7.2h16.8"/><path class="cls-5" d="M98 217.1l-7.2-7.2M93.9 217.1l-7.2-7.2M90.1 217.1l-5.1-5M86 217.1l-1-1M100.6 217.1l.5-.5M96.6 217.1l2.6-2.6M92.5 217.1l4.8-4.6M88.6 217.1l6.8-6.7M85 216.9l6.8-7M85 212.8l2.7-2.9"/><path class="cls-13" d="M101.6 217.1l-7-7.2h-9.8v7.2h16.8"/><path class="cls-5" d="M98 217.1l-7.2-7.2M93.9 217.1l-7.2-7.2M90.1 217.1l-5.1-5M86 217.1l-1-1M100.6 217.1l.5-.5M96.6 217.1l2.6-2.6M92.5 217.1l4.8-4.6M88.6 217.1l6.8-6.7M85 216.9l6.8-7M85 212.8l2.7-2.9"/><path class="cls-13" d="M49.3 209.9h-6l6 7.2v-7.2"/><path class="cls-5" d="M49.5 212.5l-2.9-2.6M49.5 216.6l-2.6-2.4M49 216.6l.5-.5M47.1 214.5l2.4-2.2M45.4 212.3l2.2-2.4M43.5 210.1l.3-.2"/><path class="cls-13" d="M49.3 209.9h-6l6 7.2v-7.2"/><path class="cls-5" d="M49.5 212.5l-2.9-2.6M49.5 216.6l-2.6-2.4M49 216.6l.5-.5M47.1 214.5l2.4-2.2M45.4 212.3l2.2-2.4M43.5 210.1l.3-.2"/><path class="cls-6" d="M52.4 215.7h29.3M52.4 209.9h29.3M81.2 209.9h.5"/><path class="cls-13" d="M49.3 209.9h3.1v5.8h-3.1"/><path class="cls-5" d="M52.6 211.8l-1.9-1.9M52.4 215.7l-2.9-3.2M50 215.7l2.6-2.7M49.5 212.3l2.2-2.4"/><path class="cls-13" d="M84.8 209.9h-3.1v5.8h3.1"/><path class="cls-5" d="M85 212.1l-2.1-2.2M84.6 215.7l-2.7-2.7M81.9 215.7l3.1-2.9M81.9 211.8l1.9-1.9"/><path class="cls-1" d="M29.8 393.5h73"/><path class="cls-6" d="M36.3 353.2l.5-3.9M96.3 353.2l-.5-3.9M2.2 377.4h11.3v9.8H2.2z"/><path class="cls-13" d="M2.2 387.3h18.3l-7-10.1H2.2v10.1"/><path class="cls-5" d="M14 377.4l-.5-.2M19.5 387.3L9.4 377.2M15.7 387.3L5.6 377.2M11.6 387.3l-9.1-9.2M7.5 387.3l-5-5.3M3.7 387.3l-1.2-1.2M18.6 387.3l1.2-1.2M14.7 387.3l3.4-3.6M10.6 387.3l6-6M6.6 387.3l8.4-8.2M2.7 387.3l10.1-10.1M2.5 383.4l6.2-6.2M2.5 379.6l2.1-2.4"/><path class="cls-13" d="M2.2 387.3h18.3l-7-10.1H2.2v10.1"/><path class="cls-5" d="M14 377.4l-.5-.2M19.5 387.3L9.4 377.2M15.7 387.3L5.6 377.2M11.6 387.3l-9.1-9.2M7.5 387.3l-5-5.3M3.7 387.3l-1.2-1.2M18.6 387.3l1.2-1.2M14.7 387.3l3.4-3.6M10.6 387.3l6-6M6.6 387.3l8.4-8.2M2.7 387.3l10.1-10.1M2.5 383.4l6.2-6.2M2.5 379.6l2.1-2.4"/><path class="cls-6" d="M104.7 360.6l1.7 24-7.7.7-1.9-24 7.9-.7zM98.7 385.3v1M97.8 373.3l7.9-.7M96.8 361.3v-.9M35.8 361.3l-1.9 24-7.7-.7 1.7-24 7.9.7zM33.9 385.3v1M34.9 373.3l-7.7-.7M35.8 361.3v-.9M96.3 353.2l3.4 43.9M28.4 391.8h5M33 391.8h.4M202.6 56.8l-3.3-55h-73.9l-3.4 55"/><path class="cls-6" d="M204.3 56.8L201 .1h-77.3l-3.6 56.7"/><path class="cls-5" d="M259.4 66.5v1.9c0 .6.2 1.2.3 1.8.1.6.3 1.2.5 1.8l.6 1.8c.2.6.5 1.1.8 1.7.3.5.6 1.1 1 1.6.3.5.7 1 1.1 1.5.4.5.8.9 1.3 1.4.4.4.9.9 1.4 1.3.5.4 1 .8 1.5 1.1.5.3 1 .7 1.6 1 .5.3 1.1.6 1.7.8l1.8.6c.6.2 1.2.3 1.8.5l1.8.3h1.9M278.5 85.6V66.4M259.3 66.4v1.4M259.3 69.3l-.3.9M259 70.2l-.2.5M258.6 71.9l-.8 1.9M257.6 74.5l-.5 1M257.1 75.5l-.2.2M256.2 76.9l-1.2 1.7M254.2 79.3l-.4.5M253.8 79.8l-.5.5M252.3 81.3l-1.4.9M249.9 82.9l-.5.3M249.4 83.2l-.7.5M247.8 84.1l-2 .5M244.6 84.9l-.4.2M244.2 85.1h-1M242.2 85.3l-1.9.3M240.3 85.6V66.4M240.3 66.9v-.5M193.6 367.3c-11 0-20.1 9.1-20.1 20.1M193.5 367.3v20"/><path class="cls-5" d="M153.4 367.3l3.9.3 3.8 1.2 3.4 1.9 3.1 2.4 2.4 3.1 1.9 3.4 1.2 3.8.5 3.9M153.4 367.3v20M255.7 387.3v-1.9c0-.6.2-1.2.3-1.8s.3-1.2.5-1.8l.6-1.8c.2-.6.5-1.1.8-1.7.3-.5.6-1.1 1-1.6.3-.5.7-1 1.1-1.5.4-.5.8-.9 1.3-1.4.4-.4.9-.9 1.4-1.3.5-.4 1-.8 1.5-1.1.5-.3 1.1-.7 1.6-1 .5-.3 1.1-.6 1.7-.8l1.8-.6c.6-.2 1.2-.3 1.8-.5l1.8-.3h1.9M274.6 368.3v19M255.7 387.3v-1.5M255.4 384.4v-.7M255.4 383.7l-.2-.8M255 381.7l-.8-1.6M253.8 378.9l-.3-.5M253.5 378.4l-.5-.7M252.6 376.7l-1.2-1.4M250.4 374.1l-.2-.3M250.2 373.8l-1-.7M248.2 372.1l-.9-.7M247.3 371.4l-1.7-.9M245.6 370.5l-1-.5M243.2 369.5l-1-.5M242.2 369l-1.9-.5M240.3 368.5l-1.2-.2M237.7 368.3h-1M236.7 368.3v19M236.7 386.8v.5M133.5 86.6c11 0 20.1-9.1 20.1-20.1M133.5 86.5V66.4M173.8 86.5l-4-.2-3.6-1.2-3.6-1.9-3.2-2.4-2.4-3.1-1.9-3.4-1.2-3.8-.2-4.1M173.8 86.5V66.4"/><path class="cls-6" d="M145.3 237.7v.8M145.3 238.5v.9M145.3 239.4l-.3.7M145 240.1l-.2.3M144.3 241.8v.3M143.4 243l-.5.7M142.9 243.7l-.5.5M142.4 244.2l-.7.5M141.7 244.7l-.5.2M140 245.7h-.2M138.3 246.1h-.5M137.8 246.1h-.9M136.9 246.1h-.7M136.2 246.1h-.8M134.2 245.7h-.4M132.6 244.9l-.5-.2M132.1 244.7l-.5-.5M131.6 244.2l-.7-.5M130.9 243.7l-.5-.4M129.7 242.1l-.3-.3M129 240.4l-.3-.3M128.7 240.1l-.2-.7M128.5 239.4v-.9M128.5 238.5v-.8M128.5 236.3v-.2M129 234.6v-.2M129 234.4l.4-.7M129.4 233.7l.5-.8M129.9 232.9l.5-.7M131.4 231.3l.2-.3M132.8 230.3v-.2M132.8 230.1l.7-.3M133.5 229.8l1-.2M134.5 229.6l.7-.3M135.2 229.3h.2M136.9 229.1h.2M138.6 229.3l.7.3M139.3 229.6l.9.2M140.2 229.8l.8.3M141 230.1l.2.2M142.4 231v.3M143.6 232.2l.5.7M144.1 232.9l.2.8M144.3 233.7l.5.7M144.8 234.4v.5M145.3 236.1v.2M192.1 401.2v10.3h-37.2v-10.3"/><path class="cls-6" d="M170.7 404.1l2.9-2.9 2.6 2.9h-5.5zM192.1 401.2h-37.2"/><g><path class="cls-6" d="M130.6 393.5h-11M130.6 397.1h-11M130.6 382.2h-11M130.6 387.3h-11M233.8 393.5h-40.3M233.8 397.1h-40.3M233.8 382.2h-40.3M233.8 387.3h-40.3M309.4 393.5h-34.8M312.8 397.1h-38.2M298.2 382.2h-23.6M303.2 387.3h-28.6M191.8 397.1h3.4M132.6 397.1h-3.4M193.5 387.3v-5.1M193.5 397.1h-1.7v-3.6h1.7M130.6 387.3v-5.1M130.6 397.1h2v-3.6h-2M273 397.1h3.3M235.8 397.1h-3.4M274.6 387.3v-5.1M274.6 397.1H273v-3.6h1.6M233.8 387.3v-5.1M233.8 397.1h2v-3.6h-2M19.5 393.5H2.2M19.5 397.1H2.2M19.5 382.2H2.2M19.5 387.3H2.2M309.4 60.4v333.1M312.8 56.8v340.3M298.2 71.7v310.5M303.2 66.4v320.9M278.5 60.4h30.9M278.5 56.8h34.3M278.5 71.7h19.7M278.5 66.4h24.7M193.5 60.4h43.9M193.5 56.8h43.9M193.5 71.7h43.9M193.5 66.4h43.9M101.6 60.4h29M101.6 56.8h29M101.6 71.7h29M101.6 66.4h29M101.6 66.4v5.3M130.6 66.4v5.3M130.6 56.8h2v3.6h-2M193.5 66.4v5.3M193.5 56.8h-1.7v3.6h1.7M239.4 56.8H236M276.6 56.8h3.3M237.4 66.4v5.3M237.4 56.8h2v3.6h-2M278.5 66.4v5.3M278.5 56.8h-1.9v3.6h1.9M35.1 60.4h59.5M35.1 56.8h66.5M35.1 71.7h59.5M35.1 66.4h66.5M2.2 60.4h14.2M2.2 56.8h14.2M9.2 71.7h7.2M2.2 66.4h14.2M94.6 60.4h7M18.3 56.8H15M33.2 56.8h3.6M16.4 66.4v5.3M16.4 56.8h1.9v3.6h-1.9M35.1 66.4v5.3M35.1 56.8h-1.9v3.6h1.9M101.6 271.8v-54.7M94.6 271.8v-54.7M94.6 271.8v-54.7M101.6 271.8v-54.7M101.6 177.3V71.7M94.6 177.3V71.7M94.6 177.3V71.7M101.6 177.3V71.7M101.6 217.1V213M101.6 217.1V213M101.6 71.7v-5.3M94.6 207.3h5.8M94.6 179.4h5.8M94.6 207.3h5.8M94.6 213v-5.7M94.6 179.4h5.8M94.6 177.3v2.1M101.6 213h-1.2M101.6 177.3h-1.2M94.6 213v-5.7M94.6 177.3v2.1M100.4 207.3v5.7M100.4 179.4v-2.1M2.2 254.8v94.3M9.2 254.8v87.3M9.2 254.8v87.3M2.2 254.8v94.3M2.2 212.1v7.2M9.2 212.1v7.2M9.2 212.1v7.2M2.2 212.1v7.2M2.2 71.7v108M9.2 71.7v108M9.2 71.7v108M2.2 71.7v108M2.2 66.4v5.3M9.2 182.1h-6M9.2 209.9h-6M9.2 182.1h-6M9.2 179.7v2.4M9.2 209.9h-6M9.2 212.1v-2.2M2.2 179.7h1M2.2 212.1h1M9.2 179.7v2.4M9.2 212.1v-2.2M3.2 182.1v-2.4M3.2 209.9v2.2M9.2 221.4h-6M9.2 249.3h-6M9.2 221.4h-6M9.2 219.3v2.1M9.2 249.3h-6M9.2 254.8v-5.5M2.2 219.3h1M2.2 254.8h1M9.2 219.3v2.1M9.2 254.8v-5.5M3.2 221.4v-2.1M3.2 249.3v5.5M119.6 382.2V271.8M112.6 342.1v-62.8M112.6 382.2v-35M112.6 342.1v-62.8M119.6 382.2V271.8M112.6 382.2v-35M112.6 387.3v-5.1M112.6 387.3h7M119.6 387.3v-5.1M49.3 271.8v-54.7M43.3 279.3v-69.4M43.3 279.3v-69.4M49.3 271.8v-54.7M49.3 279.3h-6M49.3 279.3h-6M94.6 271.8h-9.8M119.6 271.8h-18M112.6 279.3H84.8M112.6 279.3H84.8M94.6 271.8h-9.8M119.6 271.8h-18M81.7 279.3v-6M52.4 279.3v-6M81.7 279.3v-6M84.8 279.3h-3.1M52.4 279.3v-6M49.3 279.3h3.1M84.8 271.8v1.5M49.3 271.8v1.5M84.8 279.3h-3.1M49.3 279.3h3.1M81.7 273.3h3.1M52.4 273.3h-3.1M212.7 71.7h-4.3M212.7 211.6v-114M208.4 211.6v-114M208.4 211.6v-114M212.7 211.6v-114M212.7 356.3V236.8M208.4 356.3V236.8M208.4 356.3V236.8M212.7 356.3V236.8M212.7 382.2h-4.3M212.7 382.2h-4.3M212.7 356.3h-4.3M212.7 97.6h-4.3M212.7 71.7h-4.3M212.7 236.8h-4.3M212.7 211.6h-4.3M212.7 268.2h85.5M212.7 263.9h85.5M298.2 268.2v-4.3M212.7 263.9h85.5M212.7 268.2h85.5M212.7 268.2v-4.3M212.7 207.3h85.5M212.7 202.2h85.5M298.2 207.3v-5.1M212.7 202.2h85.5M212.7 207.3h85.5M212.7 207.3v-5.1M19.5 397.1H33M19.5 393.5h10.3M95.4 347.2h17.2M95.4 342.1h17.2M95.4 342.1h17.2M95.4 347.2h17.2M20.5 347.2h17M20.5 342.1h17M20.5 342.1h17M20.5 347.2h17M37.5 347.2h-.7M95.4 347.2h.4M37.5 347.2v-5.1M95.4 347.2v-5.1M37.5 347.2v-5.1M95.4 347.2v-5.1M95.4 347.2h.4M37.5 347.2h-.7M99.7 397.1h19.9M102.8 393.5h16.8M20.5 387.3v-40.1M13.5 377.2v-28.1M13.5 377.2v-28.1M20.5 387.3v-40.1M20.5 342.1H9.2M13.5 349.1H2.2M13.5 349.1H2.2M20.5 342.1H9.2M30.6 386.1l-.8 7.4M33.9 386.3l-.9 10.8M33 352.9l-.5 7M36.3 353.2l-.5 7.2M33 352.9l3.3.3M33.9 386.3l-3.3-.2M33.9 386.3l-3.3-.2M32.5 359.9l3.3.5M32.5 359.9l3.3.5M100.2 359.9l-.5-7M96.8 360.4l-.5-7.2M99.7 352.9l-3.4.3M102.8 393.5l-.5-7.4M99.7 397.1l-1-10.8M96.8 360.4l3.4-.5M96.8 360.4l3.4-.5M102.3 386.1l-3.6.2M102.3 386.1l-3.6.2M84.8 217.1h9.8M84.8 209.9h9.8M84.8 209.9h9.8M84.8 217.1h9.8M43.3 209.9h6M43.3 209.9h6M52.4 209.9v5.8M81.7 209.9v5.8M52.4 209.9v5.8M49.3 209.9h3.1M81.7 209.9v5.8M84.8 209.9h-3.1M49.3 217.1v-1.4M84.8 217.1v-1.4M49.3 209.9h3.1M84.8 209.9h-3.1M52.4 215.7h-3.1M81.7 215.7h3.1M13.5 377.2H2.2M20.5 387.3H2.2M20.5 387.3H2.2M13.5 377.2H2.2"/></g></g><g id="Mbel"><path class="cls-2" d="M163 99.3h22.6v51.1H163zM195.6 149v-12.8M187.1 149h8.5M195.6 136.2h-8.5M195.6 131.3v-12.8M187.1 131.3h8.5M195.6 118.5h-8.5M195.6 113.6v-12.8M187.1 113.6h8.5M195.6 100.8h-8.5M153.1 149v-12.8M161.6 149h-8.5M153.1 136.2h8.5M153.1 131.3v-12.8M161.6 131.3h-8.5M153.1 118.5h8.5M153.1 113.6v-12.8M161.6 113.6h-8.5M153.1 100.8h8.5M214.2 119.9h56.6v45.4h-56.6zM214.2 185.2h56.6v15.6h-56.6zM196.2 283.1H207v56.6h-10.8zM156.6 297.3h14.2v28.3h-14.2zM125.6 284.8h19.2l.1.1.1.1v25.7c0 .1-.1.2-.2.3s-.2.1-.3.2h-19v-26.6M121.9 280.2h22.9l.1.1.1.1V284c0 .1-.1.2-.2.3s-.2.1-.3.2h-23c-.1 0-.2-.1-.3-.2 0 0-.1-.2-.2-.3V280.9v-.3c0-.1.1-.2.2-.3 0 0 .2-.1.3-.2h.3M125.6 311.4h-4c-.1 0-.2.1-.3.2 0 0-.1.2-.2.3v25.5c0 .1.1.2.2.3 0 0 .2.1.3.2h4M127.8 338.1v-53.3M125.6 338.1h19.2l.1-.1.1-.1v-.1-.2V312.5v-.2-.2-.1l-.1-.1-.1-.1h-.1-.2-18.9v26.6"/><path class="cls-2" d="M121.9 342.6h22.9l.1-.1.1-.1v-.1-.2-3-.2-.2-.1l-.1-.1-.1-.1h-.1-.2-22.9c-.1 0-.2.1-.3.2 0 0-.1.2-.2.3V342.3c0 .1.1.2.2.3 0 0 .2.1.3.2h.3M125.6 311.4h-4c-.1 0-.2-.1-.3-.2 0 0-.1-.2-.2-.3v-25.2-.3c0-.1.1-.2.2-.3 0 0 .2-.1.3-.2h4M157.9 273.1c-.1-4 0-8 .6-12 .1-1 .8-1.7 1.7-2 3.1-.9 6.4-.9 9.5 0 .9.3 1.6 1 1.7 2 .5 4 .7 8 .6 12-.7.3-1.4.4-2 .4-3.3.1-6.6.1-9.8 0-.7 0-1.4-.1-2-.3"/><path class="cls-2" d="M157.5 272.1c-.3-.2-.5-.5-.6-.8-.7-1.4-1.1-2.9-1-4.4 0-2.1.3-4.1.7-6.1.3-1.4.8-2.8 1.5-4.1.4-.7 1.1-1.3 1.9-1.5 3.3-.8 6.7-.8 10 0 .8.2 1.5.7 1.9 1.5.7 1.3 1.2 2.7 1.5 4.1.4 2 .7 4 .7 6.1 0 1.5-.3 3-1 4.4-.2.3-.4.6-.6.8M269.1 335.2h7.7v11.3h-7.7zM276.8 318.1h19.9v45.4h-19.9zM213.9 269.7h28.6v56.6h-28.6zM251.4 269.7h45.4v15.6h-45.4z"/></g><g id="Text"><path d="M143.5 195.6h-.7v-5.3h.7v2.5l2.1-2.5h.8l-2.2 2.6 2.2 2.7h-.9l-2-2.5v2.5zM150.5 193.7c0 1.1-.8 1.9-1.9 1.9s-1.9-.8-1.9-1.9.8-1.9 1.9-1.9 1.9.8 1.9 1.9zm-3.1 0c0 .8.5 1.4 1.3 1.4s1.2-.6 1.2-1.4-.5-1.4-1.2-1.4-1.3.6-1.3 1.4zM154.5 195.1c-.4.4-.8.5-1.4.5-1.1 0-1.8-.8-1.8-1.9s.8-1.9 1.8-1.9 1 .2 1.3.6l-.4.4c-.3-.3-.6-.4-.9-.4-.7 0-1.2.6-1.2 1.4s.5 1.4 1.2 1.4.6-.1.9-.4l.4.4zM156.1 192.4c.3-.4.7-.6 1.1-.6s.7.1.9.3c.2.2.3.5.3 1v2.5h-.6v-2.4c0-.5-.2-.8-.7-.8s-.5.1-.7.3c-.2.2-.2.4-.2.7v2.2h-.6v-5.3h.6v2.2zM160.1 193.9c0 .3 0 .5.2.7.2.3.6.5 1 .5s.9-.2 1.1-.6l.5.2c-.3.6-.9 1-1.6 1-1.1 0-1.9-.8-1.9-1.9s.8-1.9 1.9-1.9 1.9.8 1.9 1.9v.2h-3.1zm2.4-.4c0-.3 0-.4-.2-.6-.2-.3-.6-.5-1-.5s-.8.2-1 .5c-.1.2-.2.3-.2.6h2.4zM164.8 191.9v.5c.3-.4.6-.6 1.1-.6s.6.1.9.3c.2.2.3.5.3 1v2.5h-.6v-2.4c0-.3 0-.5-.1-.6-.1-.2-.3-.2-.6-.2s-.5.1-.7.3c-.2.2-.2.4-.2.7v2.2h-.6v-3.7h.6zM168.4 196.8h-.4l.7-2.1.6.2-.8 1.9zM173.5 192.6h2.1v.6h-2.1v1.8h2.1v.6h-2.8v-5.3h2.8v.6h-2.1v1.8zM178.5 192.9c0-.4-.3-.6-.7-.6s-.7.2-.7.5.2.4.8.6c.5.1.7.2.9.4.2.2.3.4.3.7 0 .6-.5 1.1-1.3 1.1s-1.3-.4-1.4-1.1h.6c0 .4.3.6.8.6s.7-.2.7-.5-.2-.5-.8-.6c-.8-.2-1.2-.6-1.2-1.1s.5-1.1 1.3-1.1 1.3.4 1.3 1.1h-.6zM182.1 192.9c0-.4-.3-.6-.7-.6s-.7.2-.7.5.2.4.8.6c.5.1.7.2.9.4.2.2.3.4.3.7 0 .6-.5 1.1-1.3 1.1s-1.3-.4-1.4-1.1h.6c0 .4.3.6.8.6s.7-.2.7-.5-.2-.5-.8-.6c-.8-.2-1.2-.6-1.2-1.1s.5-1.1 1.3-1.1 1.3.4 1.3 1.1h-.6zM184.2 193.9c0 .3 0 .5.2.7.2.3.6.5 1 .5s.9-.2 1.1-.6l.5.2c-.3.6-.9 1-1.6 1-1.1 0-1.9-.8-1.9-1.9s.8-1.9 1.9-1.9 1.9.8 1.9 1.9v.2h-3.1zm2.4-.4c0-.3 0-.4-.2-.6-.2-.3-.6-.5-1-.5s-.8.2-1 .5c-.1.2-.2.3-.2.6h2.4zM189 191.9v.5c.3-.4.6-.6 1.1-.6s.6.1.9.3c.2.2.3.5.3 1v2.5h-.6v-2.4c0-.3 0-.5-.1-.6-.1-.2-.3-.2-.6-.2s-.5.1-.7.3c-.2.2-.2.4-.2.7v2.2h-.6v-3.7h.6zM192.5 196.8h-.4l.7-2.1.6.2-.8 1.9zM148.3 199.2h.7l-1.6 5.3h-.6l-1.2-4.2-1.2 4.2h-.6l-1.6-5.3h.7l1.2 4.1 1.2-4.1h.6l1.1 4.1 1.2-4.1zM153.1 202.7c0 1.1-.8 1.9-1.9 1.9s-1.9-.8-1.9-1.9.8-1.9 1.9-1.9 1.9.8 1.9 1.9zm-3.1 0c0 .8.5 1.4 1.3 1.4s1.2-.6 1.2-1.4-.5-1.4-1.2-1.4-1.3.6-1.3 1.4zM154.8 201.4c.3-.4.7-.6 1.1-.6s.7.1.9.3c.2.2.3.5.3 1v2.5h-.6v-2.4c0-.5-.2-.8-.7-.8s-.5.1-.7.3c-.2.2-.2.4-.2.7v2.2h-.6v-5.3h.6v2.2zM159 200.9v.5c.3-.4.6-.6 1.1-.6s.6.1.9.3c.2.2.3.5.3 1v2.5h-.6v-2.4c0-.3 0-.5-.1-.6-.1-.2-.3-.2-.6-.2s-.5.1-.7.3c-.2.2-.2.4-.2.7v2.2h-.6v-3.7h.6zM163 202.9c0 .3 0 .5.2.7.2.3.6.5 1 .5s.9-.2 1.1-.6l.5.2c-.3.6-.9 1-1.6 1-1.1 0-1.9-.8-1.9-1.9s.8-1.9 1.9-1.9 1.9.8 1.9 1.9v.2H163zm2.4-.4c0-.3 0-.4-.2-.6-.2-.3-.6-.5-1-.5s-.8.2-1 .5c-.1.2-.2.3-.2.6h2.4zM167.8 200.9v.5c.3-.4.6-.6 1.1-.6s.6.1.9.3c.2.2.3.5.3 1v2.5h-.6v-2.4c0-.3 0-.5-.1-.6-.1-.2-.3-.2-.6-.2s-.5.1-.7.3c-.2.2-.2.4-.2.7v2.2h-.6v-3.7h.6zM142.7 208.9v-.6h3l-1.6 2c.9 0 1.6.7 1.6 1.6s-.8 1.7-1.8 1.7-1.4-.5-1.6-1.3h.6c.1.4.5.7 1 .7s1.2-.5 1.2-1.1-.5-1.1-1.2-1.1-.4 0-.6.2l-.3-.2 1.5-1.9h-1.9zM149.6 211c.3.3.4.6.4 1 0 .9-.7 1.6-1.7 1.6s-1.6-.6-1.6-1.6.1-.8.4-1.1c.2-.2.3-.3.6-.4-.3 0-.4-.2-.5-.4-.2-.2-.3-.5-.3-.8 0-.8.6-1.3 1.5-1.3s1.4.6 1.4 1.3-.1.6-.3.8c-.1.2-.3.2-.5.3.3 0 .4.2.6.3zm-2.3 1c0 .6.5 1 1 1s1-.5 1-1-.5-1-1-1-1 .5-1 1zm.2-2.5c0 .5.4.8.8.8s.9-.4.9-.8-.4-.8-.8-.8-.9.3-.9.8zM151.9 213.2c0 .2-.2.4-.4.4s-.4-.2-.4-.4.2-.4.4-.4.4.2.4.4zM152.9 212.4v-.5l2.8-3.7v3.6h.6v.6h-.6v1.2h-.6v-1.2H153zm2.1-2.6l-1.5 2h1.5v-2zM159.5 209.9v.5c.3-.4.6-.6 1-.6s.8.2 1 .7c.3-.5.6-.7 1.2-.7s.7.1.9.4c.2.2.2.4.2 1v2.4h-.6v-2.2c0-.4 0-.6-.1-.7-.1-.2-.4-.3-.6-.3-.5 0-.8.4-.8 1v2.2h-.6v-2.2c0-.4 0-.5-.1-.7-.1-.2-.3-.3-.6-.3-.5 0-.9.4-.9 1v2.2h-.6v-3.7h.6zM167.1 211.1v.4h-2l1.2-1.6c.3-.5.4-.6.4-.8 0-.3-.2-.4-.5-.4s-.5.2-.5.6h-.4c0-.6.4-1 1-1s1 .3 1 .8-.1.5-.4.9l-.8 1.1h1.1z"/><g><path d="M146.9 452.2c0 .6.4.9.9.9s1-.4 1-.9-.2-.7-1.1-1c-.6-.2-.8-.3-1.1-.5-.3-.2-.4-.6-.4-1 0-.9.6-1.5 1.6-1.5s1.6.6 1.6 1.5h-.7c0-.3 0-.4-.1-.6-.2-.2-.4-.4-.8-.4-.5 0-.9.4-.9.9s.1.5.3.6c.2.1.3.2.9.4.6.2.8.3 1.1.6.2.2.4.6.4.9 0 .9-.7 1.5-1.7 1.5s-1.1-.2-1.4-.7c-.1-.2-.2-.4-.2-.7h.6zM151.3 448.9c0 .2-.2.4-.4.4s-.4-.2-.4-.4.2-.4.4-.4.4.2.4.4zm0 4.7h-.6v-3.7h.6v3.7zM153.3 452.9c0 .2 0 .2.3.2h.3v.5h-.6c-.4 0-.6-.2-.6-.6v-2.6h-.5v-.5h.5v-1.2h.6v1.2h.6v.5h-.6v2.4zM157.3 453.1v.5h-2.7l1.9-3.2h-1.7v-.5h2.7l-1.9 3.2h1.7zM159 449.9v.7c.4-.5.7-.8 1.3-.8 1 0 1.7.8 1.7 1.9s-.7 2-1.7 2-.6 0-.8-.2c-.2-.1-.3-.2-.5-.5v2.3h-.6v-5.4h.6zm0 1.9c0 .8.5 1.3 1.2 1.3s1.2-.6 1.2-1.4-.1-.8-.3-1-.5-.4-.9-.4c-.7 0-1.2.6-1.2 1.4zM163.2 453.6v-5.3h.6v5.3h-.6zM168 449.9h.6v3.7h-.6v-.7c-.4.6-.8.8-1.3.8-1 0-1.7-.8-1.7-1.9s.7-1.9 1.8-1.9 1 .2 1.3.7v-.6zm-2.1.9c-.2.3-.3.6-.3 1 0 .8.5 1.4 1.2 1.4s1.3-.6 1.3-1.4-.5-1.4-1.2-1.4-.7.1-.9.4zM170.7 452.9c0 .2 0 .2.3.2h.3v.5h-.6c-.4 0-.6-.2-.6-.6v-2.6h-.5v-.5h.5v-1.2h.6v1.2h.6v.5h-.6v2.4zM174.7 453.1v.5H172l1.9-3.2h-1.7v-.5h2.7l-1.9 3.2h1.7zM149.3 462v.6h-3l1.9-2.7c.5-.8.7-1 .7-1.3 0-.5-.4-.8-.9-.8s-.7.2-.8.4v.6h-.6c0-1 .6-1.6 1.5-1.6s1.5.5 1.5 1.3-.2.8-.6 1.5l-1.4 2h1.9zM153.3 462v.6h-3l1.9-2.7c.5-.8.7-1 .7-1.3 0-.5-.4-.8-.9-.8s-.7.2-.8.4v.6h-.6c0-1 .6-1.6 1.5-1.6s1.5.5 1.5 1.3-.2.8-.6 1.5l-1.4 2h1.9zM155.4 462.3c0 .2-.2.4-.4.4s-.4-.2-.4-.4.2-.4.4-.4.4.2.4.4zM159.7 461c0 .6-.1 1-.4 1.2-.3.3-.7.4-1.2.4s-1-.2-1.2-.5c-.3-.3-.4-.6-.4-1.4v-1.8c0-.7 0-1 .3-1.3.3-.3.7-.5 1.2-.5s.9.1 1.2.4c.3.3.4.6.4 1.2v2.1zm-2.5-.1c0 .6 0 .7.2.9.2.2.5.3.8.3s.6-.1.8-.4c.1-.2.2-.4.2-.8v-2c0-.4 0-.6-.3-.8-.2-.2-.4-.2-.7-.2s-.6.1-.8.4c-.1.2-.2.4-.2.8v1.8zM163 458.9v.5c.3-.4.6-.6 1-.6s.8.2 1 .7c.3-.5.6-.7 1.2-.7s.7.1.9.4c.2.2.2.4.2 1v2.4h-.6v-2.2c0-.4 0-.6-.1-.7-.1-.2-.4-.3-.6-.3-.5 0-.8.4-.8 1v2.2h-.6v-2.2c0-.4 0-.5-.1-.7-.1-.2-.3-.3-.6-.3-.5 0-.9.4-.9 1v2.2h-.6v-3.7h.6zM170.6 460.1v.4h-2l1.2-1.6c.3-.5.4-.6.4-.8 0-.3-.2-.4-.5-.4s-.5.2-.5.6h-.4c0-.6.4-1 1-1s1 .3 1 .8-.1.5-.4.9l-.8 1.1h1.1z"/></g><g><path d="M251 301.4v.6h-3.8l3-4.8h-2.7v-.6h3.8l-3 4.8h2.7zM252.9 297.3c0 .2-.2.4-.4.4s-.4-.2-.4-.4.2-.4.4-.4.4.2.4.4zm0 4.7h-.6v-3.7h.6v3.7zM254.8 298.3v.5c.3-.4.6-.6 1-.6s.8.2 1 .7c.3-.5.6-.7 1.2-.7s.7.1.9.4c.2.2.2.4.2 1v2.4h-.6v-2.2c0-.4 0-.6-.1-.7-.1-.2-.4-.3-.6-.3-.5 0-.8.4-.8 1v2.2h-.6v-2.2c0-.4 0-.5-.1-.7-.1-.2-.3-.3-.6-.3-.5 0-.9.4-.9 1v2.2h-.6v-3.7h.6zM261.1 298.3v.5c.3-.4.6-.6 1-.6s.8.2 1 .7c.3-.5.6-.7 1.2-.7s.7.1.9.4c.2.2.2.4.2 1v2.4h-.6v-2.2c0-.4 0-.6-.1-.7-.1-.2-.4-.3-.6-.3-.5 0-.8.4-.8 1v2.2h-.6v-2.2c0-.4 0-.5-.1-.7-.1-.2-.3-.3-.6-.3-.5 0-.9.4-.9 1v2.2h-.6v-3.7h.6zM267.2 300.3c0 .3 0 .5.2.7.2.3.6.5 1 .5s.9-.2 1.1-.6l.5.2c-.3.6-.9 1-1.6 1-1.1 0-1.9-.8-1.9-1.9s.8-1.9 1.9-1.9 1.9.8 1.9 1.9v.2h-3.1zm2.4-.4c0-.3 0-.4-.2-.6-.2-.3-.6-.5-1-.5s-.8.2-1 .5c-.1.2-.2.3-.2.6h2.4zM271.9 298.3v.6c.1-.3.2-.4.3-.5.2-.1.4-.2.7-.2h.1v.6h-.2c-.3 0-.6.2-.8.4-.2.2-.2.4-.2.9v1.9h-.6v-3.7h.6zM248 307.4v-.6l1.8-1.2v5.4h-.6v-4.4l-1.2.8zM254.2 310.4v.6h-3l1.9-2.7c.5-.8.7-1 .7-1.3 0-.5-.4-.8-.9-.8s-.7.2-.8.4v.6h-.6c0-1 .6-1.6 1.5-1.6s1.5.5 1.5 1.3-.2.8-.6 1.5l-1.4 2h1.9zM256.3 310.6c0 .2-.2.4-.4.4s-.4-.2-.4-.4.2-.4.4-.4.4.2.4.4zM257.2 309.8v-.5l2.8-3.7v3.6h.6v.6h-.6v1.2h-.6v-1.2h-2.1zm2.1-2.6l-1.5 2h1.5v-2zM263.8 307.3v.5c.3-.4.6-.6 1-.6s.8.2 1 .7c.3-.5.6-.7 1.2-.7s.7.1.9.4c.2.2.2.4.2 1v2.4h-.6v-2.2c0-.4 0-.6-.1-.7-.1-.2-.4-.3-.6-.3-.5 0-.8.4-.8 1v2.2h-.6v-2.2c0-.4 0-.5-.1-.7-.1-.2-.3-.3-.6-.3-.5 0-.9.4-.9 1v2.2h-.6v-3.7h.6zM271.4 308.5v.4h-2l1.2-1.6c.3-.5.4-.6.4-.8 0-.3-.2-.4-.5-.4s-.5.2-.5.6h-.4c0-.6.4-1 1-1s1 .3 1 .8-.1.5-.4.9l-.8 1.1h1.1z"/></g><g><path d="M244.5 101.9v.6h-3.8l3-4.8H241v-.6h3.8l-3 4.8h2.7zM246.3 97.7c0 .2-.2.4-.4.4s-.4-.2-.4-.4.2-.4.4-.4.4.2.4.4zm0 4.7h-.6v-3.7h.6v3.7zM248.2 98.8v.5c.3-.4.6-.6 1-.6s.8.2 1 .7c.3-.5.6-.7 1.2-.7s.7.1.9.4c.2.2.2.4.2 1v2.4h-.6v-2.2c0-.4 0-.6-.1-.7-.1-.2-.4-.3-.6-.3-.5 0-.8.4-.8 1v2.2h-.6v-2.2c0-.4 0-.5-.1-.7-.1-.2-.3-.3-.6-.3-.5 0-.9.4-.9 1v2.2h-.6v-3.7h.6zM254.5 98.8v.5c.3-.4.6-.6 1-.6s.8.2 1 .7c.3-.5.6-.7 1.2-.7s.7.1.9.4c.2.2.2.4.2 1v2.4h-.6v-2.2c0-.4 0-.6-.1-.7-.1-.2-.4-.3-.6-.3-.5 0-.8.4-.8 1v2.2h-.6v-2.2c0-.4 0-.5-.1-.7-.1-.2-.3-.3-.6-.3-.5 0-.9.4-.9 1v2.2h-.6v-3.7h.6zM260.6 100.8c0 .3 0 .5.2.7.2.3.6.5 1 .5s.9-.2 1.1-.6l.5.2c-.3.6-.9 1-1.6 1-1.1 0-1.9-.8-1.9-1.9s.8-1.9 1.9-1.9 1.9.8 1.9 1.9v.2h-3.1zm2.4-.4c0-.3 0-.4-.2-.6-.2-.3-.6-.5-1-.5s-.8.2-1 .5c-.1.2-.2.3-.2.6h2.4zM265.4 98.8v.6c.1-.3.2-.4.3-.5.2-.1.4-.2.7-.2h.1v.6h-.2c-.3 0-.6.2-.8.4-.2.2-.2.4-.2.9v1.9h-.6v-3.7h.6zM241.5 107.9v-.6l1.8-1.2v5.4h-.6v-4.4l-1.2.8zM244.7 110.3v-.5l2.8-3.7v3.6h.6v.6h-.6v1.2h-.6v-1.2h-2.1zm2.1-2.6l-1.5 2h1.5v-2zM249.8 111.1c0 .2-.2.4-.4.4s-.4-.2-.4-.4.2-.4.4-.4.4.2.4.4zM254.1 109.9c0 .6-.1 1-.4 1.2-.3.3-.7.4-1.2.4s-1-.2-1.2-.5c-.3-.3-.4-.6-.4-1.4v-1.8c0-.7 0-1 .3-1.3.3-.3.7-.5 1.2-.5s.9.1 1.2.4c.3.3.4.6.4 1.2v2.1zm-2.5-.1c0 .6 0 .7.2.9.2.2.5.3.8.3s.6-.1.8-.4c.1-.2.2-.4.2-.8v-2c0-.4 0-.6-.3-.8-.2-.2-.4-.2-.7-.2s-.6.1-.8.4c-.1.2-.2.4-.2.8v1.8zM257.5 107.8v.5c.3-.4.6-.6 1-.6s.8.2 1 .7c.3-.5.6-.7 1.2-.7s.7.1.9.4c.2.2.2.4.2 1v2.4h-.6v-2.2c0-.4 0-.6-.1-.7-.1-.2-.4-.3-.6-.3-.5 0-.8.4-.8 1v2.2h-.6v-2.2c0-.4 0-.5-.1-.7-.1-.2-.3-.3-.6-.3-.5 0-.9.4-.9 1v2.2h-.6v-3.7h.6zM265.1 109v.4h-2l1.2-1.6c.3-.5.4-.6.4-.8 0-.3-.2-.4-.5-.4s-.5.2-.5.6h-.4c0-.6.4-1 1-1s1 .3 1 .8-.1.5-.4.9l-.8 1.1h1.1z"/></g><g><path d="M247.8 218.5c1.1 0 1.7.5 1.7 1.4s-.1.6-.3.9c-.1.2-.3.2-.5.3.3 0 .4.1.6.2.3.2.4.6.4 1s-.2.9-.6 1.2c-.3.2-.7.3-1.3.3h-1.5v-5.3h1.5zm-.8 2.4h.7c.4 0 .7 0 .9-.2.2-.2.3-.4.3-.7s-.2-.6-.4-.8c-.2 0-.4-.1-.9-.1h-.6v1.8zm0 2.4h.7c.6 0 .8 0 1-.2.3-.1.4-.4.4-.8 0-.6-.4-.9-1.2-.9h-.8v1.8zM253.7 220.2h.6v3.7h-.6v-.7c-.4.6-.8.8-1.3.8-1 0-1.7-.8-1.7-1.9s.7-1.9 1.8-1.9 1 .2 1.3.7v-.6zm-2.1.9c-.2.3-.3.6-.3 1 0 .8.5 1.4 1.2 1.4s1.3-.6 1.3-1.4-.5-1.4-1.2-1.4-.7.1-.9.4zM258.5 218.5h.6v5.3h-.6v-.6c-.4.5-.8.7-1.3.7-1 0-1.7-.8-1.7-1.9s.7-2 1.7-2 1 .2 1.3.6v-2.2zm-2.4 3.5c0 .8.5 1.4 1.2 1.4s1.2-.6 1.2-1.4-.5-1.4-1.2-1.4-1.2.6-1.2 1.4zM248.6 228.1h-1.7v1.4c.3-.1.5-.2.8-.2.9 0 1.6.7 1.6 1.7s-.8 1.8-1.8 1.8-1.3-.4-1.6-1.1l.6-.2c.1.2.2.3.3.4.2.2.5.3.8.3.6 0 1.1-.5 1.1-1.2s-.5-1.1-1.2-1.1-.8.2-1.2.5v-3h2.3v.6zM251.2 232.5c0 .2-.2.4-.4.4s-.4-.2-.4-.4.2-.4.4-.4.4.2.4.4zM255.5 231.2c0 .6-.1 1-.4 1.2-.3.3-.7.4-1.2.4s-1-.2-1.2-.5c-.3-.3-.4-.6-.4-1.4v-1.8c0-.7 0-1 .3-1.3.3-.3.7-.5 1.2-.5s.9.1 1.2.4c.3.3.4.6.4 1.2v2.1zm-2.5-.1c0 .6 0 .7.2.9.2.2.5.3.8.3s.6-.1.8-.4c.1-.2.2-.4.2-.8v-2c0-.4 0-.6-.3-.8-.2-.2-.4-.2-.7-.2s-.6.1-.8.4c-.1.2-.2.4-.2.8v1.8zM258.8 229.2v.5c.3-.4.6-.6 1-.6s.8.2 1 .7c.3-.5.6-.7 1.2-.7s.7.1.9.4c.2.2.2.4.2 1v2.4h-.6v-2.2c0-.4 0-.6-.1-.7-.1-.2-.4-.3-.6-.3-.5 0-.8.4-.8 1v2.2h-.6v-2.2c0-.4 0-.5-.1-.7-.1-.2-.3-.3-.6-.3-.5 0-.9.4-.9 1v2.2h-.6v-3.7h.6zM266.4 230.3v.4h-2l1.2-1.6c.3-.5.4-.6.4-.8 0-.3-.2-.4-.5-.4s-.5.2-.5.6h-.4c0-.6.4-1 1-1s1 .3 1 .8-.1.5-.4.9l-.8 1.1h1.1z"/></g><g><path d="M55.6 309.2h2.1v.6h-2.1v1.8h2.1v.6h-2.8v-5.3h2.8v.6h-2.1v1.8zM59.5 307.5c0 .2-.2.4-.4.4s-.4-.2-.4-.4.2-.4.4-.4.4.2.4.4zm0 4.7h-.6v-3.7h.6v3.7zM61.4 308.5v.5c.3-.4.6-.6 1.1-.6s.6.1.9.3c.2.2.3.5.3 1v2.5h-.6v-2.4c0-.3 0-.5-.1-.6-.1-.2-.3-.2-.6-.2s-.5.1-.7.3c-.2.2-.2.4-.2.7v2.2h-.6v-3.7h.6zM67.8 308.5h.6v3.7c0 .6-.2 1-.5 1.4-.3.3-.8.5-1.4.5s-1.2-.2-1.6-.7l.4-.4c.2.2.2.2.4.3.2.1.6.2.9.2s.8-.1 1-.4c.2-.2.3-.5.3-.9v-.8c-.4.5-.8.8-1.4.8-1 0-1.7-.8-1.7-1.9s.2-1.2.6-1.5c.3-.3.7-.4 1.2-.4s.9.2 1.3.7v-.6zm-2.4 1.8c0 .8.5 1.4 1.2 1.4s.7-.2.9-.4c.2-.2.3-.5.3-.9s0-.7-.3-1c-.2-.2-.6-.4-.9-.4-.7 0-1.2.6-1.2 1.4zM72.6 308.5h.6v3.7h-.6v-.7c-.4.6-.8.8-1.3.8-1 0-1.7-.8-1.7-1.9s.7-1.9 1.8-1.9 1 .2 1.3.7v-.6zm-2.1.9c-.2.3-.3.6-.3 1 0 .8.5 1.4 1.2 1.4s1.3-.6 1.3-1.4-.5-1.4-1.2-1.4-.7.1-.9.4zM75.2 308.5v.5c.3-.4.6-.6 1.1-.6s.6.1.9.3c.2.2.3.5.3 1v2.5h-.6v-2.4c0-.3 0-.5-.1-.6-.1-.2-.3-.2-.6-.2s-.5.1-.7.3c-.2.2-.2.4-.2.7v2.2h-.6v-3.7h.6zM81.6 308.5h.6v3.7c0 .6-.2 1-.5 1.4-.3.3-.8.5-1.4.5s-1.2-.2-1.6-.7l.4-.4c.2.2.2.2.4.3.2.1.6.2.9.2s.8-.1 1-.4c.2-.2.3-.5.3-.9v-.8c-.4.5-.8.8-1.4.8-1 0-1.7-.8-1.7-1.9s.2-1.2.6-1.5c.3-.3.7-.4 1.2-.4s.9.2 1.3.7v-.6zm-2.4 1.8c0 .8.5 1.4 1.2 1.4s.7-.2.9-.4c.2-.2.3-.5.3-.9s0-.7-.3-1c-.2-.2-.6-.4-.9-.4-.7 0-1.2.6-1.2 1.4z"/></g><g><path d="M65.6 246.4v.6h-2.5v-5.3h.7v4.7h1.9zM67.2 242.3c0 .2-.2.4-.4.4s-.4-.2-.4-.4.2-.4.4-.4.4.2.4.4zm0 4.7h-.6v-3.7h.6v3.7zM69.2 247h-.6v-3.2h-.5v-.5h.5v-.5c0-.7.4-1.2 1-1.2h.2v.5c-.4 0-.6.2-.6.6v.5h.6v.5h-.6v3.2zM71.6 246.2c0 .2 0 .2.3.2h.3v.5h-.6c-.4 0-.6-.2-.6-.6v-2.6h-.5v-.5h.5V242h.6v1.2h.6v.5h-.6v2.4z"/></g><g><path d="M133.3 9c1.1 0 1.7.5 1.7 1.4s-.1.6-.3.9c-.1.2-.3.2-.5.3.3 0 .4.1.6.2.3.2.4.6.4 1s-.2.9-.6 1.2c-.3.2-.7.3-1.3.3h-1.5V9h1.5zm-.8 2.4h.7c.4 0 .7 0 .9-.2.2-.2.3-.4.3-.7s-.2-.6-.4-.8c-.2 0-.4-.1-.9-.1h-.6v1.8zm0 2.4h.7c.6 0 .8 0 1-.2.3-.1.4-.4.4-.8 0-.6-.4-.9-1.2-.9h-.8v1.8zM139.2 10.7h.6v3.7h-.6v-.7c-.4.6-.8.8-1.3.8-1 0-1.7-.8-1.7-1.9s.7-1.9 1.8-1.9 1 .2 1.3.7v-.6zm-2.1.9c-.2.3-.3.6-.3 1 0 .8.5 1.4 1.2 1.4s1.3-.6 1.3-1.4-.5-1.4-1.2-1.4-.7.1-.9.4zM141.1 14.3V9h.6v5.3h-.6zM143.7 14.3h-.6V9h.6v3.3l1.5-1.6h.8l-1.6 1.8 1.6 1.9h-.8l-1.5-1.6v1.6zM150.1 12.5c0 1.1-.8 1.9-1.9 1.9s-1.9-.8-1.9-1.9.8-1.9 1.9-1.9 1.9.8 1.9 1.9zm-3.1 0c0 .8.5 1.4 1.3 1.4s1.2-.6 1.2-1.4-.5-1.4-1.2-1.4-1.3.6-1.3 1.4zM151.8 10.7v.5c.3-.4.6-.6 1.1-.6s.6.1.9.3c.2.2.3.5.3 1v2.5h-.6V12c0-.3 0-.5-.1-.6-.1-.2-.3-.2-.6-.2s-.5.1-.7.3c-.2.2-.2.4-.2.7v2.2h-.6v-3.7h.6zM132.7 20.2c.2 0 .3-.1.5-.1.9 0 1.6.7 1.6 1.6s-.8 1.7-1.7 1.7-1.7-.8-1.7-1.7.1-.7.4-1.2l1.5-2.5h.7l-1.4 2.1zm-.7 1.5c0 .6.5 1.1 1.1 1.1s1.1-.5 1.1-1.1-.5-1.1-1.1-1.1-1.1.5-1.1 1.1zM136.6 23c0 .2-.2.4-.4.4s-.4-.2-.4-.4.2-.4.4-.4.4.2.4.4zM140.9 21.7c0 .6-.1 1-.4 1.2-.3.3-.7.4-1.2.4s-1-.2-1.2-.5c-.3-.3-.4-.6-.4-1.4v-1.8c0-.7 0-1 .3-1.3.3-.3.7-.5 1.2-.5s.9.1 1.2.4c.3.3.4.6.4 1.2v2.1zm-2.5-.1c0 .6 0 .7.2.9.2.2.5.3.8.3s.6-.1.8-.4c.1-.2.2-.4.2-.8v-2c0-.4 0-.6-.3-.8-.2-.2-.4-.2-.7-.2s-.6.1-.8.4c-.1.2-.2.4-.2.8v1.8zM144.3 19.7v.5c.3-.4.6-.6 1-.6s.8.2 1 .7c.3-.5.6-.7 1.2-.7s.7.1.9.4c.2.2.2.4.2 1v2.4h-.6v-2.2c0-.4 0-.6-.1-.7-.1-.2-.4-.3-.6-.3-.5 0-.8.4-.8 1v2.2h-.6v-2.2c0-.4 0-.5-.1-.7-.1-.2-.3-.3-.6-.3-.5 0-.9.4-.9 1v2.2h-.6v-3.7h.6zM151.9 20.8v.4h-2l1.2-1.6c.3-.5.4-.6.4-.8 0-.3-.2-.4-.5-.4s-.5.2-.5.6h-.4c0-.6.4-1 1-1s1 .3 1 .8-.1.5-.4.9l-.8 1.1h1.1z"/></g></g></svg>