<svg xmlns="http://www.w3.org/2000/svg" viewBox="0 0 311.7 398.9"><defs><style>.cls-1{stroke-dasharray:0 0 0 0 2.9 1.4 .2 1.4}.cls-1,.cls-2,.cls-3,.cls-4,.cls-5,.cls-6,.cls-7{fill:none;stroke-linecap:round;stroke-linejoin:round}.cls-1,.cls-3,.cls-7{stroke:#194164;stroke-width:.3px}.cls-2{stroke:#646464}.cls-2,.cls-4,.cls-6{stroke-width:.1px}.cls-3,.cls-4{stroke-dasharray:0 0 1.4 1.4}.cls-4,.cls-6{stroke:#969696}.cls-5{stroke:#000;stroke-width:.3px}.cls-8{fill:#fff}.cls-8,.cls-9{fill-rule:evenodd}</style></defs><g id="Plan"><path class="cls-7" d="M117.7 267v5.1"/><path class="cls-5" d="M118.5 266.3v5.8"/><path class="cls-7" d="M116.5 268.5v3.6M117.7 267v5.1"/><path class="cls-5" d="M117.7 272.1h.8"/><path class="cls-7" d="M116.5 272.1h1.2M118.5 266.3v5.8M116.5 268.5v3.6"/><path class="cls-6" d="M130.9 60.6h59.3v3.6h-59.3z"/><path class="cls-7" d="M108.4 90.4h17.5v69.1h-17.5zM123.7 107.9h2.2M123.7 124.9h2.2M123.7 142h2.2M123.7 158.8h2.2M102.1 159.5h16.3v.5h-16.3zM118 160h.5v17h-.5zM102.6 176.5H118v.5h-15.4zM102.6 160H118v.7h-15.4zM102.1 160h.5v17h-.5z"/><path class="cls-8" d="M113.6 158h8.9c.3 0 .5 0 .8-.1.2-.1.5-.2.6-.4.2-.2.3-.4.4-.6.1-.2.2-.5.2-.8v-11.2-.4c0-.1 0-.3-.1-.4 0-.1-.1-.2-.2-.3 0-.1-.2-.2-.2-.3 0 0-.2-.2-.3-.2-.1 0-.2-.1-.3-.2-.1 0-.2 0-.4-.1h-9.3c-.3 0-.5 0-.8.2-.2 0-.5.2-.6.4-.2.2-.3.4-.4.6 0 .2-.2.5-.2.8v11.2c0 .3 0 .5.2.8.1.2.2.5.4.6.2.2.4.3.6.4.2 0 .5.1.8.1"/><path class="cls-7" d="M113.6 158h8.9c.3 0 .5 0 .8-.1.2-.1.5-.2.6-.4.2-.2.3-.4.4-.6.1-.2.2-.5.2-.8v-11.2-.4c0-.1 0-.3-.1-.4 0-.1-.1-.2-.2-.3 0-.1-.2-.2-.2-.3 0 0-.2-.2-.3-.2-.1 0-.2-.1-.3-.2-.1 0-.2 0-.4-.1h-9.3c-.3 0-.5 0-.8.2-.2 0-.5.2-.6.4-.2.2-.3.4-.4.6 0 .2-.2.5-.2.8v11.2c0 .3 0 .5.2.8.1.2.2.5.4.6.2.2.4.3.6.4.2 0 .5.1.8.1"/><path class="cls-8" d="M116.1 150.4c0-.7-.5-1.2-1.2-1.2s-1.2.5-1.2 1.2.5 1.2 1.2 1.2 1.2-.5 1.2-1.2"/><path class="cls-7" d="M116.1 150.4c0-.7-.5-1.2-1.2-1.2s-1.2.5-1.2 1.2.5 1.2 1.2 1.2 1.2-.5 1.2-1.2"/><path class="cls-8" d="M109.8 108.4v15.8h14.7v-15.8h-14.7"/><path class="cls-7" d="M109.8 108.4h14.6v15.8h-14.6z"/><path class="cls-8" d="M122.5 112.3c0-1.5-1.2-2.8-2.8-2.8s-2.8 1.2-2.8 2.8 1.2 2.8 2.8 2.8 2.8-1.2 2.8-2.8"/><path class="cls-7" d="M122.5 112.3c0-1.5-1.2-2.8-2.8-2.8s-2.8 1.2-2.8 2.8 1.2 2.8 2.8 2.8 2.8-1.2 2.8-2.8"/><path class="cls-8" d="M115.3 111.4c0-1.3-1-2.3-2.3-2.3s-2.3 1-2.3 2.3 1 2.3 2.3 2.3 2.3-1 2.3-2.3"/><path class="cls-7" d="M115.3 111.4c0-1.3-1-2.3-2.3-2.3s-2.3 1-2.3 2.3 1 2.3 2.3 2.3 2.3-1 2.3-2.3"/><path class="cls-8" d="M122.1 119.9c0-1.2-1-2.2-2.3-2.2s-2.3 1-2.3 2.2 1 2.2 2.3 2.2 2.3-1 2.3-2.2"/><path class="cls-7" d="M122.1 119.9c0-1.2-1-2.2-2.3-2.2s-2.3 1-2.3 2.2 1 2.2 2.3 2.2 2.3-1 2.3-2.2"/><path class="cls-8" d="M116.3 119.7c0-1.6-1.3-2.9-2.9-2.9s-2.9 1.3-2.9 2.9 1.3 2.9 2.9 2.9 2.9-1.3 2.9-2.9"/><path class="cls-7" d="M116.3 119.7c0-1.6-1.3-2.9-2.9-2.9s-2.9 1.3-2.9 2.9 1.3 2.9 2.9 2.9 2.9-1.3 2.9-2.9M123.7 90.9h2.2M102.1 89.7h16.3v.7h-16.3zM118 72.6h.5v17h-.5zM102.6 72.6H118v.7h-15.4zM102.6 89.2H118v.5h-15.4z"/><path class="cls-7" d="M118 71.7h.5v1h-.5zM102.1 72.6h.5v17h-.5zM100.9 177h17.5v.5h-17.5zM100.2 158.5h7.7"/><path class="cls-5" d="M100.2 159.3h8.2"/><path class="cls-7" d="M100.2 157.1h6.3M100.2 158.5h7.7M100.2 159.3h8.2M100.2 157.1h6.3"/><path class="cls-5" d="M100.2 158.5v.8"/><path class="cls-7" d="M100.2 157.1v1.4M107.9 158.5V91.1"/><path class="cls-5" d="M108.4 159.3V90.4"/><path class="cls-7" d="M106.5 157.1V92.5M107.9 158.5V91.1M108.4 159.3V90.4M106.5 157.1V92.5M107.9 91.1h-7.7"/><path class="cls-5" d="M108.4 90.4h-8.2"/><path class="cls-7" d="M106.5 92.5h-6.3M107.9 91.1h-7.7"/><path class="cls-5" d="M100.2 91.1v-.7"/><path class="cls-7" d="M100.2 92.5v-1.4M108.4 90.4h-8.2M106.5 92.5h-6.3"/><path class="cls-1" d="M118.5 90.4v69.1"/><path class="cls-7" d="M118.5 159v.5M100.9 212.5h17.5v.5h-17.5zM118 213h.5v17h-.5zM102.6 229.6H118v.5h-15.4zM102.6 213H118v.5h-15.4zM102.1 213h.5v17h-.5zM118 230.1h.5v17h-.5zM102.6 230.1H118v.5h-15.4zM102.6 246.4H118v.7h-15.4zM102.1 230.1h.5v17h-.5zM118 247.1h.5v17h-.5zM102.6 263.4H118v.7h-15.4zM102.6 247.1H118v.5h-15.4zM102.1 247.1h.5v17h-.5zM118 264.1h.5v2.2h-.5z"/><path class="cls-8" d="M114.1 263.4v2.7h-10v-2.7h10"/><path class="cls-7" d="M104.1 263.4h10.1v2.6h-10.1zM114.4 263.4z"/><path class="cls-4" d="M104.8 263.4v-8.6M104.8 254.8l1.7.2 1.6.5 1.5.7 1.2 1.2 1.2 1.2.7 1.5.5 1.6.2 1.7"/><path class="cls-7" d="M210.6 256.7H250"/><path class="cls-5" d="M210.6 256h40.1"/><path class="cls-7" d="M210.6 258.1h37.9M210.6 256.7H250M210.6 256h40.1M210.6 258.1h37.9"/><path class="cls-5" d="M210.6 256.7v-.7"/><path class="cls-7" d="M210.6 258.1v-1.4M250 260.5h18.5"/><path class="cls-5" d="M250.7 259.8h17"/><path class="cls-7" d="M248.5 262h21.2M250 260.5h18.5M250.7 259.8h17M248.5 262h21.2M268.5 256.7h28"/><path class="cls-5" d="M267.7 256h28.8"/><path class="cls-7" d="M269.7 258.1h26.8M268.5 256.7h28"/><path class="cls-5" d="M296.5 256.7v-.7"/><path class="cls-7" d="M296.5 258.1v-1.4M267.7 256h28.8M269.7 258.1h26.8"/><path class="cls-8" d="M241.5 240.7c-1.3-.9-3-.9-4.3 0-1.9 1.5-2.9 3.8-2.9 6.2l.3 9h9.6l.3-9c0-2.4-1-4.7-2.9-6.2"/><path class="cls-7" d="M241.5 240.7c-1.3-.9-3-.9-4.3 0-1.9 1.5-2.9 3.8-2.9 6.2l.3 9h9.6l.3-9c0-2.4-1-4.7-2.9-6.2"/><path class="cls-8" d="M239.3 250.9c1 0 2-.3 2.8-1.1.7-.7 1.2-1.7 1.2-2.7 0-2.1-.9-4.1-2.5-5.4-.9-.6-2-.6-2.9 0-1.6 1.3-2.5 3.3-2.5 5.4 0 1 .4 2 1.2 2.7.7.7 1.7 1.1 2.8 1.1"/><path class="cls-7" d="M239.3 250.9c1 0 2-.3 2.8-1.1.7-.7 1.2-1.7 1.2-2.7 0-2.1-.9-4.1-2.5-5.4-.9-.6-2-.6-2.9 0-1.6 1.3-2.5 3.3-2.5 5.4 0 1 .4 2 1.2 2.7.7.7 1.7 1.1 2.8 1.1"/><path class="cls-8" d="M296.3 255.5v-48l-.1-.1v-.1h-.1l-.1-.1H275.3l-.1.1-.1.1v.1l-.1.1v48l.1.1v.1h.1v.1h.1l.1.1H296v-.1h.1l.1-.1v-.1h.1v-.2"/><path class="cls-7" d="M296.3 255.5v-48l-.1-.1v-.1h-.1l-.1-.1H275.3l-.1.1-.1.1v.1l-.1.1v48l.1.1v.1h.1v.1h.1l.1.1H296v-.1h.1l.1-.1v-.1h.1v-.2"/><path class="cls-8" d="M294.2 250.3v-37.4-.7c0-.2-.1-.4-.2-.6 0-.2-.2-.4-.3-.6-.1-.2-.3-.4-.4-.5-.2-.2-.3-.3-.5-.4l-.6-.3c-.2 0-.4-.2-.6-.2H280.7c-.4 0-.9 0-1.3.3-.4.2-.8.4-1.1.7-.3.3-.6.7-.7 1.1-.2.4-.3.9-.3 1.3v38.1c0 .2.1.4.2.6 0 .2.2.4.3.6.1.2.3.4.4.5.2.2.3.3.5.4l.6.3c.2 0 .4.2.6.2H291.5c.2 0 .4-.1.6-.2.2 0 .4-.2.6-.3.2-.1.4-.3.5-.4.2-.2.3-.3.4-.5l.3-.6c0-.2.1-.4.2-.6v-.7"/><path class="cls-7" d="M294.2 250.3v-37.4-.7c0-.2-.1-.4-.2-.6 0-.2-.2-.4-.3-.6-.1-.2-.3-.4-.4-.5-.2-.2-.3-.3-.5-.4l-.6-.3c-.2 0-.4-.2-.6-.2H280.7c-.4 0-.9 0-1.3.3-.4.2-.8.4-1.1.7-.3.3-.6.7-.7 1.1-.2.4-.3.9-.3 1.3v38.1c0 .2.1.4.2.6 0 .2.2.4.3.6.1.2.3.4.4.5.2.2.3.3.5.4l.6.3c.2 0 .4.2.6.2H291.5c.2 0 .4-.1.6-.2.2 0 .4-.2.6-.3.2-.1.4-.3.5-.4.2-.2.3-.3.4-.5l.3-.6c0-.2.1-.4.2-.6v-.7"/><path class="cls-8" d="M266.9 256v-12-.4c0-.1-.1-.3-.2-.4-.1-.1-.2-.2-.4-.2H252.2c-.1 0-.3.1-.4.2-.1.1-.2.2-.2.4V256h15.6"/><path class="cls-7" d="M266.9 256v-12-.4c0-.1-.1-.3-.2-.4-.1-.1-.2-.2-.4-.2H252.2c-.1 0-.3.1-.4.2-.1.1-.2.2-.2.4V256h15.6M250.7 256v3.8M250.7 259.8h17M267.7 259.8V256M268.5 260.5v-3.8"/><path class="cls-5" d="M267.7 259.8V256"/><path class="cls-7" d="M269.7 262v-3.9M268.5 260.5v-3.8M267.7 259.8V256M269.7 262v-3.9M250 256.7v3.8"/><path class="cls-5" d="M250.7 256v3.8"/><path class="cls-7" d="M248.5 258.1v3.9M250 256.7v3.8M250.7 256v3.8M248.5 258.1v3.9"/><path class="cls-5" d="M250.7 256h17"/><path class="cls-8" d="M100.2 217.1H93v54.7h7.2v-54.7"/><path class="cls-6" d="M100.5 220.5l-3.4-3.4M100.5 224.5l-7.2-7.2M100.5 228.4l-7.2-7.2M100.5 232.5l-7.2-7.2M100.5 236.5l-7.2-7.2M100.5 240.4l-7.2-7.2M100.5 244.5l-7.2-7.2M100.5 248.5l-7.2-7.2M100.5 252.4l-7.2-7.2M100.5 256.5l-7.2-7.2M100.5 260.5l-7.2-7.2M100.5 264.6l-7.2-7.2M100.5 268.5l-7.2-7.2M99.5 271.8l-6.2-6.5M95.7 271.8l-2.4-2.4M100 271.8l.5-.5M95.9 271.8l4.6-4.3M93.3 270.6l7.2-7.2M93.3 266.5l7.2-7.2M93.3 262.5l7.2-7.2M93.3 258.6l7.2-7.2M93.3 254.5l7.2-7.2M93.3 250.5l7.2-7.2M93.3 246.6l7.2-7.2M93.3 242.5l7.2-7.2M93.3 238.5l7.2-7.2M93.3 234.6l7.2-7.2M93.3 230.5l7.2-7.2M93.3 226.5l7.2-7.2M93.3 222.4l5.2-5.3M93.3 218.5l1.2-1.4"/><path class="cls-8" d="M100.2 217.1H93v54.7h7.2v-54.7"/><path class="cls-6" d="M100.5 220.5l-3.4-3.4M100.5 224.5l-7.2-7.2M100.5 228.4l-7.2-7.2M100.5 232.5l-7.2-7.2M100.5 236.5l-7.2-7.2M100.5 240.4l-7.2-7.2M100.5 244.5l-7.2-7.2M100.5 248.5l-7.2-7.2M100.5 252.4l-7.2-7.2M100.5 256.5l-7.2-7.2M100.5 260.5l-7.2-7.2M100.5 264.6l-7.2-7.2M100.5 268.5l-7.2-7.2M99.5 271.8l-6.2-6.5M95.7 271.8l-2.4-2.4M100 271.8l.5-.5M95.9 271.8l4.6-4.3M93.3 270.6l7.2-7.2M93.3 266.5l7.2-7.2M93.3 262.5l7.2-7.2M93.3 258.6l7.2-7.2M93.3 254.5l7.2-7.2M93.3 250.5l7.2-7.2M93.3 246.6l7.2-7.2M93.3 242.5l7.2-7.2M93.3 238.5l7.2-7.2M93.3 234.6l7.2-7.2M93.3 230.5l7.2-7.2M93.3 226.5l7.2-7.2M93.3 222.4l5.2-5.3M93.3 218.5l1.2-1.4"/><path class="cls-8" d="M100.2 66.4L93 71.7v105.6h7.2V66.4"/><path class="cls-6" d="M100.5 68.1l-1.2-1M100.5 72.1l-3.4-3.3M100.5 76.2l-5.8-5.7M100.5 80.1l-7.2-7.2M100.5 84.1l-7.2-7.2M100.5 88.2L93.3 81M100.5 92.1l-7.2-7.2M100.5 96.1l-7.2-7.2M100.5 100.2L93.3 93M100.5 104.1l-7.2-7.2M100.5 108.1l-7.2-7.2M100.5 112.2l-7.2-7.2M100.5 116.3l-7.2-7.2M100.5 120.1l-7.2-7.2M100.5 124.2l-7.2-7.2M100.5 128.3l-7.2-7.2M100.5 132.1l-7.2-7.2M100.5 136.2l-7.2-7.2M100.5 140.3l-7.2-7.2M100.5 144.4l-7.2-7.2M100.5 148.2l-7.2-7.2M100.5 152.3l-7.2-7.2M100.5 156.4l-7.2-7.2M100.5 160.2l-7.2-7.2M100.5 164.3l-7.2-7.2M100.5 168.4l-7.2-7.2M100.5 172.2l-7.2-7.2M100.5 176.3l-7.2-7.2M97.3 177.3l-4-4.1M98.3 177.3l2.2-2.2M94.2 177.3l6.3-6M93.3 174.4l7.2-7.2M93.3 170.3l7.2-7.2M93.3 166.5l7.2-7.2M93.3 162.4l7.2-7.2M93.3 158.3l7.2-7.2M93.3 154.2l7.2-7.2M93.3 150.4l7.2-7.2M93.3 146.3l7.2-7.2M93.3 142.2l7.2-7.2M93.3 138.4l7.2-7.2M93.3 134.3l7.2-7.2M93.3 130.2l7.2-7.2M93.3 126.4l7.2-7.2M93.3 122.3l7.2-7.2M93.3 118.2l7.2-7.2M93.3 114.1l7.2-7.2M93.3 110.3l7.2-7.2M93.3 106.2l7.2-7.2M93.3 102.1l7.2-7.2M93.3 98.3l7.2-7.2M93.3 94.2l7.2-7.2M93.3 90.1l7.2-7.2M93.3 86.3l7.2-7.2M93.3 82.2l7.2-7.2M93.3 78.1l7.2-7.2M93.3 74.1l7.2-7.2"/><path class="cls-8" d="M100.2 66.4L93 71.7v105.6h7.2V66.4"/><path class="cls-6" d="M100.5 68.1l-1.2-1M100.5 72.1l-3.4-3.3M100.5 76.2l-5.8-5.7M100.5 80.1l-7.2-7.2M100.5 84.1l-7.2-7.2M100.5 88.2L93.3 81M100.5 92.1l-7.2-7.2M100.5 96.1l-7.2-7.2M100.5 100.2L93.3 93M100.5 104.1l-7.2-7.2M100.5 108.1l-7.2-7.2M100.5 112.2l-7.2-7.2M100.5 116.3l-7.2-7.2M100.5 120.1l-7.2-7.2M100.5 124.2l-7.2-7.2M100.5 128.3l-7.2-7.2M100.5 132.1l-7.2-7.2M100.5 136.2l-7.2-7.2M100.5 140.3l-7.2-7.2M100.5 144.4l-7.2-7.2M100.5 148.2l-7.2-7.2M100.5 152.3l-7.2-7.2M100.5 156.4l-7.2-7.2M100.5 160.2l-7.2-7.2M100.5 164.3l-7.2-7.2M100.5 168.4l-7.2-7.2M100.5 172.2l-7.2-7.2M100.5 176.3l-7.2-7.2M97.3 177.3l-4-4.1M98.3 177.3l2.2-2.2M94.2 177.3l6.3-6M93.3 174.4l7.2-7.2M93.3 170.3l7.2-7.2M93.3 166.5l7.2-7.2M93.3 162.4l7.2-7.2M93.3 158.3l7.2-7.2M93.3 154.2l7.2-7.2M93.3 150.4l7.2-7.2M93.3 146.3l7.2-7.2M93.3 142.2l7.2-7.2M93.3 138.4l7.2-7.2M93.3 134.3l7.2-7.2M93.3 130.2l7.2-7.2M93.3 126.4l7.2-7.2M93.3 122.3l7.2-7.2M93.3 118.2l7.2-7.2M93.3 114.1l7.2-7.2M93.3 110.3l7.2-7.2M93.3 106.2l7.2-7.2M93.3 102.1l7.2-7.2M93.3 98.3l7.2-7.2M93.3 94.2l7.2-7.2M93.3 90.1l7.2-7.2M93.3 86.3l7.2-7.2M93.3 82.2l7.2-7.2M93.3 78.1l7.2-7.2M93.3 74.1l7.2-7.2"/><path class="cls-8" d="M100.2 212.8h-4.1l4.1 4.3v-4.3"/><path class="cls-6" d="M100.5 216.4l-3.9-3.6M99.5 216.1l1-.9M97.6 214.2l1.2-1.4"/><path class="cls-8" d="M100.2 212.8h-4.1l4.1 4.3v-4.3"/><path class="cls-6" d="M100.5 216.4l-3.9-3.6M99.5 216.1l1-.9M97.6 214.2l1.2-1.4"/><path class="cls-7" d="M99 207h1.7v5.8H99zM99 177.3h1.7v2.4H99z"/><path class="cls-7" d="M99 179.7h1.7v27.4H99zM99 207v-27.3"/><path class="cls-1" d="M93 207.3v-27.9"/><path class="cls-7" d="M93 179.9v-.5"/><path class="cls-8" d="M93 212.8v-5.5h6v5.5"/><path class="cls-6" d="M99.3 211.1l-4.1-3.8M96.6 212.8l-3.3-3.6M98.8 212.8l.5-.3M94.9 212.8l4.4-4.3M93.3 210.4l3.1-3.1"/><path class="cls-8" d="M93 177.3v2.1h6v-2.1"/><path class="cls-6" d="M99.3 179.2l-2-1.9M95.4 179.4l-2.1-2.1M96.1 179.4l2.2-2.1M93.3 178.5l.9-1.2M100.7 206.9c14.9 0 27.2-12.3 27.2-27.2M100.7 179.7h27.1"/><path class="cls-8" d="M.6 219l5.5-6.9H.6v6.9"/><path class="cls-6" d="M5.2 213.5l-1.5-1.4M3.5 215.7L.9 213M1.6 217.8l-.7-.7M.9 218.8l1.2-1.5M.9 214.7l2.4-2.6"/><path class="cls-8" d="M.6 219l5.5-6.9H.6v6.9"/><path class="cls-6" d="M5.2 213.5l-1.5-1.4M3.5 215.7L.9 213M1.6 217.8l-.7-.7M.9 218.8l1.2-1.5M.9 214.7l2.4-2.6"/><path class="cls-8" d="M7.8 179.7v-108L.6 66.4v113.3h7.2"/><path class="cls-6" d="M8.1 71.9l-1-1M8.1 76L.9 68.8M8.1 79.8L.9 72.6M8.1 83.9L.9 76.7M8.1 88L.9 80.8M8.1 92.1L.9 84.9M8.1 95.9L.9 88.7M8.1 100L.9 92.8M8.1 104.1L.9 96.9M8.1 107.9l-7.2-7.2M8.1 112l-7.2-7.2M8.1 116.1l-7.2-7.2M8.1 119.9l-7.2-7.2M8.1 124l-7.2-7.2M8.1 128.1l-7.2-7.2M8.1 132.1l-7.2-7.2M8.1 136l-7.2-7.2M8.1 140.1l-7.2-7.2M8.1 144.1l-7.2-7.2M8.1 148l-7.2-7.2M8.1 152.1l-7.2-7.2M8.1 156.1l-7.2-7.2M8.1 160l-7.2-7.2M8.1 164.1l-7.2-7.2M8.1 168.1l-7.2-7.2M8.1 172.2L.9 165M8.1 176.1l-7.2-7.2M7.3 179.7l-6.4-6.8M3.5 179.7L.9 177M7.6 179.7l.5-.3M3.7 179.7l4.4-4.4M.9 178.7l7.2-7.2M.9 174.6l7.2-7.2M.9 170.5l7.2-7.2M.9 166.5l7.2-7.2M.9 162.6l7.2-7.2M.9 158.5l7.2-7.2M.9 154.5l7.2-7.2M.9 150.6l7.2-7.2M.9 146.5l7.2-7.2M.9 142.5l7.2-7.2M.9 138.4l7.2-7.2M.9 134.5l7.2-7.2M.9 130.5l7.2-7.2M.9 126.4l7.2-7.2M.9 122.5l7.2-7.2M.9 118.5l7.2-7.2M.9 114.4l7.2-7.2M.9 110.5l7.2-7.2M.9 106.5l7.2-7.2M.9 102.4l7.2-7.2M.9 98.3l7.2-7.2M.9 94.5l7.2-7.2M.9 90.4l7.2-7.2M.9 86.3l7.2-7.2M.9 82.5l7.2-7.2M.9 78.4l6.7-7M.9 74.3l4.5-4.6M.9 70.5L3 68.1"/><path class="cls-8" d="M7.8 179.7v-108L.6 66.4v113.3h7.2"/><path class="cls-6" d="M8.1 71.9l-1-1M8.1 76L.9 68.8M8.1 79.8L.9 72.6M8.1 83.9L.9 76.7M8.1 88L.9 80.8M8.1 92.1L.9 84.9M8.1 95.9L.9 88.7M8.1 100L.9 92.8M8.1 104.1L.9 96.9M8.1 107.9l-7.2-7.2M8.1 112l-7.2-7.2M8.1 116.1l-7.2-7.2M8.1 119.9l-7.2-7.2M8.1 124l-7.2-7.2M8.1 128.1l-7.2-7.2M8.1 132.1l-7.2-7.2M8.1 136l-7.2-7.2M8.1 140.1l-7.2-7.2M8.1 144.1l-7.2-7.2M8.1 148l-7.2-7.2M8.1 152.1l-7.2-7.2M8.1 156.1l-7.2-7.2M8.1 160l-7.2-7.2M8.1 164.1l-7.2-7.2M8.1 168.1l-7.2-7.2M8.1 172.2L.9 165M8.1 176.1l-7.2-7.2M7.3 179.7l-6.4-6.8M3.5 179.7L.9 177M7.6 179.7l.5-.3M3.7 179.7l4.4-4.4M.9 178.7l7.2-7.2M.9 174.6l7.2-7.2M.9 170.5l7.2-7.2M.9 166.5l7.2-7.2M.9 162.6l7.2-7.2M.9 158.5l7.2-7.2M.9 154.5l7.2-7.2M.9 150.6l7.2-7.2M.9 146.5l7.2-7.2M.9 142.5l7.2-7.2M.9 138.4l7.2-7.2M.9 134.5l7.2-7.2M.9 130.5l7.2-7.2M.9 126.4l7.2-7.2M.9 122.5l7.2-7.2M.9 118.5l7.2-7.2M.9 114.4l7.2-7.2M.9 110.5l7.2-7.2M.9 106.5l7.2-7.2M.9 102.4l7.2-7.2M.9 98.3l7.2-7.2M.9 94.5l7.2-7.2M.9 90.4l7.2-7.2M.9 86.3l7.2-7.2M.9 82.5l7.2-7.2M.9 78.4l6.7-7M.9 74.3l4.5-4.6M.9 70.5L3 68.1"/><path class="cls-7" d="M.1 179.7h1.7v2.6H.1zM.1 209.4h1.7v2.6H.1zM.1 182.3h1.7v27.1H.1zM1.8 182.3v27.1"/><path class="cls-1" d="M7.8 182.1v27.6"/><path class="cls-7" d="M7.8 209.2v.5"/><path class="cls-8" d="M7.8 179.7v2.4h-6v-2.4H.6"/><path class="cls-6" d="M8.1 180.1l-.8-.4M5.9 182.1l-2.4-2.4M5.2 182.1l2.4-2.4M2.1 181.3l1.6-1.6"/><path class="cls-8" d="M7.8 212v-2.2h-6v2.2H.7"/><path class="cls-6" d="M7.8 212.1l-2.4-2.4M3.7 212.1l-1.6-2M7.3 212.1l.8-.5M3.3 212.1l2.4-2.4"/><path class="cls-9" d="M129.3 382.2v14.9H111v-14.9h18.3"/><path class="cls-8" d="M129.3 397.1v-3.6H111v3.6h18.3"/><path class="cls-6" d="M111.3 395.7l1.4 1.4M113.2 393.5l3.6 3.6M117 393.5l3.6 3.6M121.1 393.5l3.6 3.6M125.2 393.5l3.6 3.6M129 393.5l.5.2"/><path class="cls-8" d="M129.3 393.5v-.5H111v.5h18.3M129.3 393v-5.7H111v5.7h18.3"/><path class="cls-6" d="M111.3 387.3v5.7M112.5 387.3v5.7M113.9 387.3v5.7M115.3 387.3v5.7M116.8 387.3v5.7M118.2 387.3v5.7M119.7 387.3v5.7M121.1 387.3v5.7M122.5 387.3v5.7M124 387.3v5.7M125.4 387.3v5.7M126.9 387.3v5.7M128.1 387.3v5.7"/><path class="cls-8" d="M129.3 387.3v-5.1H111v5.1h18.3"/><path class="cls-6" d="M111.3 383.7l3.6 3.6M113.9 382.2l5 5.1M117.7 382.2l5.1 5.1M121.8 382.2l5.1 5.1M125.9 382.2l3.6 3.6M129.3 387.3H111M129.3 393H111"/><path class="cls-7" d="M129.3 397.1H111M129.3 382.2H111"/><path class="cls-9" d="M232.5 382.2v14.9h-40.4v-14.9h40.4"/><path class="cls-8" d="M232.5 397.1v-3.6h-40.4v3.6h40.4"/><path class="cls-6" d="M192.4 396.6l.5.5M193.3 393.5l3.6 3.6M197.2 393.5l3.6 3.6M201.3 393.5l3.6 3.6M205.3 393.5l3.6 3.6M209.2 393.5l3.6 3.6M213.3 393.5l3.6 3.6M217.3 393.5l3.6 3.6M221.2 393.5l3.6 3.6M225.3 393.5l3.6 3.6M229.3 393.5l3.4 3.4"/><path class="cls-8" d="M232.5 393.5v-.5h-40.4v.5h40.4M232.5 393v-5.7h-40.4v5.7h40.4"/><path class="cls-6" d="M193.3 387.3v5.7M194.8 387.3v5.7M196.2 387.3v5.7M197.7 387.3v5.7M199.1 387.3v5.7M200.5 387.3v5.7M201.7 387.3v5.7M203.2 387.3v5.7M204.6 387.3v5.7M206.1 387.3v5.7M207.5 387.3v5.7M208.9 387.3v5.7M210.4 387.3v5.7M211.8 387.3v5.7M213.3 387.3v5.7M214.7 387.3v5.7M216.1 387.3v5.7M217.3 387.3v5.7M218.8 387.3v5.7M220.2 387.3v5.7M221.7 387.3v5.7M223.1 387.3v5.7M224.5 387.3v5.7M226 387.3v5.7M227.4 387.3v5.7M228.9 387.3v5.7M230.3 387.3v5.7M231.7 387.3v5.7"/><path class="cls-8" d="M232.5 387.3v-5.1h-40.4v5.1h40.4"/><path class="cls-6" d="M192.4 384.6l2.6 2.7M194.1 382.2l5 5.1M197.9 382.2l5 5.1M202 382.2l5 5.1M206.1 382.2l5 5.1M209.9 382.2l5 5.1M214 382.2l5 5.1M218.1 382.2l5 5.1M222.1 382.2l5.1 5.1M226 382.2l5 5.1M230.1 382.2l2.6 2.4M232.5 387.3h-40.4M232.5 393h-40.4"/><path class="cls-7" d="M232.5 397.1h-40.4M232.5 382.2h-40.4"/><path class="cls-9" d="M273.3 397.1h38.1l-14.9-14.9h-23.2v14.9"/><path class="cls-8" d="M273.3 397.1h38.1l-3.6-3.6h-34.5v3.6"/><path class="cls-6" d="M273.5 393.5l3.6 3.6M277.3 393.5l3.6 3.6M281.4 393.5l3.6 3.6M285.5 393.5l3.6 3.6M289.3 393.5l3.6 3.6M293.4 393.5l3.6 3.6M297.5 393.5l3.6 3.6M301.6 393.5l3.6 3.6M305.4 393.5l3.6 3.6"/><path class="cls-8" d="M273.3 393.5h34.5l-.5-.5h-34v.5M273.3 393h34l-5.7-5.7h-28.3v5.7"/><path class="cls-6" d="M274.2 387.3v5.7M275.7 387.3v5.7M276.9 387.3v5.7M278.3 387.3v5.7M279.7 387.3v5.7M281.2 387.3v5.7M282.6 387.3v5.7M284.1 387.3v5.7M285.5 387.3v5.7M286.9 387.3v5.7M288.4 387.3v5.7M289.8 387.3v5.7M291.3 387.3v5.7M292.5 387.3v5.7M293.9 387.3v5.7M295.3 387.3v5.7M296.8 387.3v5.7M298.2 387.3v5.7M299.7 387.3v5.7M301.1 387.3v5.7M302.5 388v5M304 389.4v3.6M305.4 390.9v2.1M306.9 392.3v.7"/><path class="cls-8" d="M273.3 387.3h28.3l-5.1-5.1h-23.2v5.1"/><path class="cls-6" d="M273.5 385.3l1.7 2M274.2 382.2l5.1 5.1M278.1 382.2l5 5.1M282.1 382.2l5.1 5.1M286.2 382.2l5.1 5.1M290.3 382.2l5 5.1M294.1 382.2l5.1 5.1M301.6 387.3h-28.3M307.3 393h-34"/><path class="cls-7" d="M311.4 397.1h-38.1M296.5 382.2h-23.2M190.2 389.7v7.4h3.4v1.7h-66v-1.7h3.3v-7.4"/><path class="cls-1" d="M192.1 382.2h-62.8"/><path class="cls-7" d="M129.3 387.3h62.9v2.4h-62.9zM188.5 389.7v-2.4M132.9 389.7v-2.4M192.1 387.3v2.4M173.2 387.3v2.4M188.5 387.3v2.4M169.1 387.3v2.4M173.2 387.3v2.4M152.3 387.3v2.4M169.1 387.3v2.4M148.2 387.3v2.4M152.3 387.3v2.4M132.9 387.3v2.4M148.2 387.3v2.4M129.3 387.3v2.4"/><path class="cls-8" d="M192.1 393h-1.8v-3.4h1.8"/><path class="cls-6" d="M190.5 389.7v3.3M191.9 389.7v3.3M192.1 393h-1.8v-3.4h1.8"/><path class="cls-8" d="M192.1 397.1h-1.9v-3.6h1.9"/><path class="cls-6" d="M190.5 394.7l1.9 1.9"/><path class="cls-7" d="M190.2 393.5v-3.8"/><path class="cls-8" d="M129.2 393h1.8v-3.4h-1.8"/><path class="cls-6" d="M129.5 389.7v3.3M130.9 389.7v3.3M129.2 393h1.8v-3.4h-1.8"/><path class="cls-8" d="M129.3 397.1h1.6v-3.6h-1.6"/><path class="cls-6" d="M129.5 393.7l1.7 1.7"/><path class="cls-7" d="M130.9 393.5v-3.8M271.3 389.7v7.4h3.4v1.7h-43.9v-1.7h3.3v-7.4"/><path class="cls-1" d="M273.3 382.2h-40.8"/><path class="cls-7" d="M232.9 382.2h-.4M232.5 387.3h40.8v2.4h-40.8zM269.4 389.7v-2.4M236.1 389.7v-2.4M273.3 387.3v2.4M254.8 387.3v2.4M269.4 387.3v2.4M250.7 387.3v2.4M254.8 387.3v2.4M236.1 387.3v2.4M250.7 387.3v2.4M232.5 387.3v2.4"/><path class="cls-8" d="M273.2 393h-1.9v-3.4h1.9"/><path class="cls-6" d="M272.8 389.7v3.3M273.2 393h-1.9v-3.4h1.9"/><path class="cls-8" d="M273.3 397.1h-2v-3.6h2"/><path class="cls-6" d="M271.6 395.7l1.4 1.4"/><path class="cls-7" d="M271.3 393.5v-3.8"/><path class="cls-8" d="M232.4 393h1.8v-3.4h-1.8"/><path class="cls-6" d="M232.9 389.7v3.3M232.4 393h1.8v-3.4h-1.8"/><path class="cls-8" d="M232.5 397.1h1.6v-3.6h-1.6"/><path class="cls-6" d="M232.7 396.9l.2.2M233.4 393.5l1 1"/><path class="cls-7" d="M234.1 393.5v-3.8"/><path class="cls-9" d="M296.5 71.7l14.9-14.9h-34.5v14.9h19.6"/><path class="cls-8" d="M307.8 60.1l3.6-3.3h-34.5v3.3h30.9"/><path class="cls-6" d="M277.3 56.8l3.4 3.3M281.4 56.8l3.4 3.3M285.5 56.8l3.4 3.3M289.6 56.8l3.3 3.3M293.4 56.8l3.4 3.3M297.5 56.8l3.4 3.3M301.6 56.8l3.3 3.3M305.4 56.8l2.9 2.9M309.5 56.8l1 .9"/><path class="cls-8" d="M307.3 60.9l.5-.8h-30.9v.8h30.4M301.6 66.4l5.7-5.5h-30.4v5.5h24.7"/><path class="cls-6" d="M306.9 61.6v-.7M305.4 63v-2.1M304 64.2v-3.3M302.5 65.7v-4.8M301.1 66.4v-5.5M299.7 66.4v-5.5M298.2 66.4v-5.5M296.8 66.4v-5.5M295.3 66.4v-5.5M293.9 66.4v-5.5M292.5 66.4v-5.5M291.3 66.4v-5.5M289.8 66.4v-5.5M288.4 66.4v-5.5M286.9 66.4v-5.5M285.5 66.4v-5.5M284.1 66.4v-5.5M282.6 66.4v-5.5M281.2 66.4v-5.5M279.7 66.4v-5.5M278.3 66.4v-5.5"/><path class="cls-8" d="M296.5 71.7l5.1-5.3h-24.7v5.3h19.6"/><path class="cls-6" d="M277.1 68.3l3.1 3.4M279 66.4l5.3 5.3M283.1 66.4l5.3 5.3M286.9 66.4l5.3 5.3M291 66.4l5.3 5.3M295.1 66.4l3.4 3.3M299.2 66.4l1.2 1.4M276.9 66.4h24.7M276.9 60.9h30.4"/><path class="cls-7" d="M276.9 56.8h34.5M276.9 71.7h19.6"/><path class="cls-9" d="M192.1 71.7V56.8h44v14.9h-44"/><path class="cls-8" d="M192.1 56.8v3.3h44v-3.3h-44"/><path class="cls-6" d="M192.4 59.9l.2.2M193.3 56.8l3.4 3.3M197.2 56.8l3.3 3.3M201.3 56.8l3.3 3.3M205.3 56.8l3.4 3.3M209.2 56.8l3.3 3.3M213.3 56.8l3.3 3.3M217.3 56.8l3.4 3.3M221.4 56.8l3.4 3.3M225.3 56.8l3.3 3.3M229.3 56.8l3.4 3.3M233.4 56.8l2.9 2.9"/><path class="cls-8" d="M192.1 60.1v.8h44v-.8h-44M192.1 60.9v5.5h44v-5.5h-44"/><path class="cls-6" d="M235.8 66.4v-5.5M234.4 66.4v-5.5M232.9 66.4v-5.5M231.7 66.4v-5.5M230.3 66.4v-5.5M228.9 66.4v-5.5M227.4 66.4v-5.5M226 66.4v-5.5M224.5 66.4v-5.5M223.1 66.4v-5.5M221.7 66.4v-5.5M220.2 66.4v-5.5M218.8 66.4v-5.5M217.3 66.4v-5.5M216.1 66.4v-5.5M214.7 66.4v-5.5M213.3 66.4v-5.5M211.8 66.4v-5.5M210.4 66.4v-5.5M208.9 66.4v-5.5M207.5 66.4v-5.5M206.1 66.4v-5.5M204.6 66.4v-5.5M203.2 66.4v-5.5M201.7 66.4v-5.5M200.5 66.4v-5.5M199.1 66.4v-5.5M197.7 66.4v-5.5M196.2 66.4v-5.5M194.8 66.4v-5.5M193.3 66.4v-5.5"/><path class="cls-8" d="M192.1 66.4v5.3h44v-5.3h-44"/><path class="cls-6" d="M192.4 67.8l3.8 3.9M194.8 66.4l5.3 5.3M198.9 66.4l5.2 5.3M202.9 66.4l5.3 5.3M206.8 66.4l5.3 5.3M210.9 66.4l5.2 5.3M214.9 66.4l5.3 5.3M218.8 66.4l5.3 5.3M222.9 66.4l5.2 5.3M226.9 66.4l5.3 5.3M231 66.4l5.3 5.3M234.9 66.4l1.4 1.2M192.1 66.4h44M192.1 60.9h44"/><path class="cls-7" d="M192.1 56.8h44M192.1 71.7h44"/><path class="cls-9" d="M129.3 56.8h-29.1v14.9h29.1V56.8"/><path class="cls-8" d="M129.3 56.8h-29.1v3.3h29.1v-3.3"/><path class="cls-6" d="M100.9 56.8l3.4 3.3M105 56.8l3.4 3.3M109.1 56.8l3.4 3.3M113.2 56.8l3.3 3.3M117 56.8l3.4 3.3M121.1 56.8l3.4 3.3M125.2 56.8l3.3 3.3M129 56.8l.5.2"/><path class="cls-8" d="M129.3 60.1h-29.1v.8h29.1v-.8M129.3 60.9h-29.1v5.5h29.1v-5.5"/><path class="cls-6" d="M128.1 66.4v-5.5M126.9 66.4v-5.5M125.4 66.4v-5.5M124 66.4v-5.5M122.5 66.4v-5.5M121.1 66.4v-5.5M119.7 66.4v-5.5M118.2 66.4v-5.5M116.8 66.4v-5.5M115.3 66.4v-5.5M113.9 66.4v-5.5M112.5 66.4v-5.5M111.3 66.4v-5.5M109.8 66.4v-5.5M108.4 66.4v-5.5M106.9 66.4v-5.5M105.5 66.4v-5.5M104.1 66.4v-5.5M102.6 66.4v-5.5M101.2 66.4v-5.5"/><path class="cls-8" d="M129.3 66.4h-29.1v5.3h29.1v-5.3"/><path class="cls-6" d="M100.5 68.1l3.3 3.6M102.6 66.4l5.3 5.3M106.7 66.4l5.3 5.3M110.5 66.4l5.3 5.3M114.6 66.4l5.3 5.3M118.7 66.4l5.3 5.3M122.8 66.4l5.3 5.3M126.6 66.4l2.9 2.6M100.2 66.4h29.1M100.2 60.9h29.1"/><path class="cls-7" d="M100.2 56.8h29.1M100.2 71.7h29.1M100.2 66.4"/><path class="cls-1" d="M129.3 71.7h62.8"/><path class="cls-7" d="M129.3 64.2h62.9v2.2h-62.9zM132.9 64.2v2.2M188.5 64.2v2.2M129.3 66.4v-2.2M148.2 66.4v-2.2M132.9 66.4v-2.2M152.3 66.4v-2.2M148.2 66.4v-2.2M169.1 66.4v-2.2M152.3 66.4v-2.2M173.2 66.4v-2.2M169.1 66.4v-2.2M188.5 66.4v-2.2M173.2 66.4v-2.2M192.1 66.4v-2.2M193.6 56.8v-1.7M193.6 55.1h-66M127.6 55.1v1.2"/><path class="cls-8" d="M129.2 60.8h1.8v3.4h-1.8"/><path class="cls-6" d="M130.9 64.2v-3.3M129.5 64.2v-3.3M129.2 60.8h1.8v3.4h-1.8"/><path class="cls-8" d="M129.3 56.8h1.6v3.3h-1.6"/><path class="cls-6" d="M129.5 57l1.7 1.7"/><path class="cls-7" d="M130.9 60.1v4.1"/><path class="cls-8" d="M192.1 60.8h-1.8v3.4h1.8"/><path class="cls-6" d="M191.9 64.2v-3.3M190.5 64.2v-3.3M192.1 60.8h-1.8v3.4h1.8"/><path class="cls-8" d="M192.1 56.8h-1.9v3.3h1.9"/><path class="cls-6" d="M190.5 58l1.9 1.9"/><path class="cls-7" d="M190.2 60.1v4.1M238 64.2v-7.4h-3.6v-1.7h44.1v1.7h-3.6v7.4"/><path class="cls-1" d="M236.1 71.7h40.8"/><path class="cls-7" d="M276.4 71.7h.5M236.1 64.2h40.8v2.2h-40.8zM239.7 64.2v2.2M273.3 64.2v2.2M236.1 66.4v-2.2M254.3 66.4v-2.2M239.7 66.4v-2.2M258.6 66.4v-2.2M254.3 66.4v-2.2M273.3 66.4v-2.2M258.6 66.4v-2.2M276.9 66.4v-2.2"/><path class="cls-8" d="M236.1 60.8h1.8v3.4h-1.8"/><path class="cls-6" d="M237.3 64.2v-3.3M236.1 60.8h1.8v3.4h-1.8"/><path class="cls-8" d="M236.1 56.8h1.9v3.3h-1.9"/><path class="cls-6" d="M236.3 59.7l.5.4M237.3 56.8l.9.7"/><path class="cls-7" d="M238 60.1v4.1"/><path class="cls-8" d="M276.9 60.8H275v3.4h1.9"/><path class="cls-6" d="M276.9 64.2v-3.3M275.7 64.2v-3.3M276.9 60.8H275v3.4h1.9"/><path class="cls-8" d="M276.9 56.8h-2v3.3h2"/><path class="cls-6" d="M275.2 58.5l1.7 1.6"/><path class="cls-7" d="M274.9 60.1v4.1"/><path class="cls-8" d="M211.1 211.6h-4.3v-114h4.3v114"/><path class="cls-6" d="M207 99.5l1.9-1.9M207 103.8l4.3-4.3M207 107.9l4.3-4.3M207 112.2l4.3-4.3M207 116.5l4.3-4.3M207 120.9l4.3-4.4M207 124.9l4.3-4.3M207 129.3l4.3-4.4M207 133.6l4.3-4.3M207 137.7l4.3-4.4M207 142l4.3-4.3M207 146.3l4.3-4.3M207 150.6l4.3-4.3M207 154.7l4.3-4.3M207 159l4.3-4.3M207 163.3l4.3-4.3M207 167.4l4.3-4.3M207 171.7l4.3-4.3M207 176.1l4.3-4.4M207 180.4l4.3-4.3M207 184.5l4.3-4.4M207 188.8l4.3-4.3M207 193.1l4.3-4.3M207 197.2l4.3-4.3M207 201.5l4.3-4.3M207 205.8l4.3-4.3M207 209.9l4.3-4.3M209.7 211.6l1.6-1.7"/><path class="cls-8" d="M206.8 211.6h4.3v-114h-4.3v114"/><path class="cls-6" d="M207 99.5l1.9-1.9M207 103.8l4.3-4.3M207 107.9l4.3-4.3M207 112.2l4.3-4.3M207 116.5l4.3-4.3M207 120.9l4.3-4.4M207 124.9l4.3-4.3M207 129.3l4.3-4.4M207 133.6l4.3-4.3M207 137.7l4.3-4.4M207 142l4.3-4.3M207 146.3l4.3-4.3M207 150.6l4.3-4.3M207 154.7l4.3-4.3M207 159l4.3-4.3M207 163.3l4.3-4.3M207 167.4l4.3-4.3M207 171.7l4.3-4.3M207 176.1l4.3-4.4M207 180.4l4.3-4.3M207 184.5l4.3-4.4M207 188.8l4.3-4.3M207 193.1l4.3-4.3M207 197.2l4.3-4.3M207 201.5l4.3-4.3M207 205.8l4.3-4.3M207 209.9l4.3-4.3M209.7 211.6l1.6-1.7"/><path class="cls-8" d="M211.1 356.1h-4.3V236.8h4.3v119.3"/><path class="cls-6" d="M207 239.7l2.9-2.9M207 244l4.3-4.3M207 248.3l4.3-4.3M207 252.6l4.3-4.3M207 256.7l4.3-4.3M207 261l4.3-4.3M207 265.3l4.3-4.3M207 269.4l4.3-4.3M207 273.7l4.3-4.3M207 278.1l4.3-4.4M207 282.4l4.3-4.3M207 286.5l4.3-4.4M207 290.8l4.3-4.3M207 295.1l4.3-4.3M207 299.2l4.3-4.3M207 303.5l4.3-4.3M207 307.8l4.3-4.3M207 311.9l4.3-4.3M207 316.2l4.3-4.3M207 320.5l4.3-4.3M207 324.9l4.3-4.4M207 328.9l4.3-4.3M207 333.3l4.3-4.4M207 337.6l4.3-4.3M207 341.7l4.3-4.4M207 346l4.3-4.3M207 350.3l4.3-4.3M207 354.6l4.3-4.3M209.7 356.1l1.6-1.7"/><path class="cls-8" d="M206.8 356.1h4.3V236.8h-4.3v119.3"/><path class="cls-6" d="M207 239.7l2.9-2.9M207 244l4.3-4.3M207 248.3l4.3-4.3M207 252.6l4.3-4.3M207 256.7l4.3-4.3M207 261l4.3-4.3M207 265.3l4.3-4.3M207 269.4l4.3-4.3M207 273.7l4.3-4.3M207 278.1l4.3-4.4M207 282.4l4.3-4.3M207 286.5l4.3-4.4M207 290.8l4.3-4.3M207 295.1l4.3-4.3M207 299.2l4.3-4.3M207 303.5l4.3-4.3M207 307.8l4.3-4.3M207 311.9l4.3-4.3M207 316.2l4.3-4.3M207 320.5l4.3-4.3M207 324.9l4.3-4.4M207 328.9l4.3-4.3M207 333.3l4.3-4.4M207 337.6l4.3-4.3M207 341.7l4.3-4.4M207 346l4.3-4.3M207 350.3l4.3-4.3M207 354.6l4.3-4.3M209.7 356.1l1.6-1.7"/><path class="cls-7" d="M211.1 380.5h-4.3M211.1 358h-4.3"/><path class="cls-6" d="M211.1 380.6c12.4 0 22.7-10.2 22.7-22.7M211.1 358h22.8"/><path class="cls-7" d="M211.1 95.9h-4.3M211.1 73.3h-4.3"/><path class="cls-6" d="M233.8 96c0-12.4-10.2-22.7-22.7-22.7M211.1 95.9h22.8"/><path class="cls-1" d="M211.1 236.8v-25.2M206.8 236.8v-25.2"/><path class="cls-7" d="M211.1 235.3h-4.3M211.1 212.8h-4.3"/><path class="cls-6" d="M211.1 235.4c12.4 0 22.7-10.2 22.7-22.7M211.1 212.8h22.8"/><path class="cls-8" d="M40.7 219l7-9.3h-7v9.3"/><path class="cls-6" d="M46.7 211.1l-1.2-1.4M45 213.3l-3.6-3.6M43.3 215.7l-2.4-2.7M41.7 217.8l-.8-.7M40.9 218.8l1-1.2M40.9 214.7l4.8-5M40.9 210.6l1-.9"/><path class="cls-8" d="M40.7 219l7-9.3h-7v9.3"/><path class="cls-6" d="M46.7 211.1l-1.2-1.4M45 213.3l-3.6-3.6M43.3 215.7l-2.4-2.7M41.7 217.8l-.8-.7M40.9 218.8l1-1.2M40.9 214.7l4.8-5M40.9 210.6l1-.9"/><path class="cls-8" d="M8.3 209.7h-.5L.6 219h7.7v-9.3"/><path class="cls-6" d="M8.5 212.8l-1.6-1.7M8.5 216.6l-3.3-3.3M6.6 219l-3.3-3.3M2.8 219l-1.2-1.2M8.3 219h.2M4.5 219l4-4.1M1.8 217.6l6.7-6.5"/><path class="cls-8" d="M8.3 209.7h-.5L.6 219h7.7v-9.3"/><path class="cls-6" d="M8.5 212.8l-1.6-1.7M8.5 216.6l-3.3-3.3M6.6 219l-3.3-3.3M2.8 219l-1.2-1.2M8.3 219h.2M4.5 219l4-4.1M1.8 217.6l6.7-6.5"/><path class="cls-7" d="M8.3 218.1h2.6v1.7H8.3zM38.1 218.1h2.6v1.7h-2.6zM10.9 218.1H38v1.7H10.9zM10.9 218.1h27.2"/><path class="cls-1" d="M10.5 209.7h27.8"/><path class="cls-7" d="M37.8 209.7h.5"/><path class="cls-8" d="M8.3 209.7h2.2v8.4H8.3"/><path class="cls-6" d="M10.7 210.9l-1.2-1.2M10.7 214.9l-2.2-2.1M9.7 218.1l-1.2-1.5M9.3 218.1l1.4-1.2M8.5 214.9l2.2-2.1M8.5 211.1l1.2-1.4"/><path class="cls-8" d="M40.7 209.7h-2.4v8.4h2.4"/><path class="cls-6" d="M40.9 213l-2.4-2.4M40.9 217.1l-2.4-2.4M38.5 217.1l2.4-2.4M38.5 213l2.4-2.4"/><path class="cls-9" d="M296.5 382.2l14.9 14.9V56.8l-14.9 14.9v310.5"/><path class="cls-8" d="M307.8 393.5l3.6 3.6V56.8l-3.6 3.3v333.4"/><path class="cls-6" d="M308.1 392.1l3.6 3.6M308.1 388l3.6 3.6M308.1 383.9l3.6 3.6M308.1 379.8l3.6 3.6M308.1 376l3.6 3.6M308.1 371.9l3.6 3.6M308.1 367.8l3.6 3.6M308.1 364l3.6 3.6M308.1 359.9l3.6 3.6M308.1 355.8l3.6 3.6M308.1 352l3.6 3.6M308.1 347.9l3.6 3.6M308.1 343.8l3.6 3.6M308.1 339.7l3.6 3.6M308.1 335.9l3.6 3.6M308.1 331.8l3.6 3.6M308.1 327.7l3.6 3.6M308.1 323.9l3.6 3.6M308.1 319.8l3.6 3.6M308.1 315.7l3.6 3.6M308.1 311.7l3.6 3.6M308.1 307.8l3.6 3.6M308.1 303.7l3.6 3.6M308.1 299.7l3.6 3.6M308.1 295.8l3.6 3.6M308.1 291.7l3.6 3.6M308.1 287.7l3.6 3.6M308.1 283.8l3.6 3.6M308.1 279.7l3.6 3.6M308.1 275.7l3.6 3.6M308.1 271.6l3.6 3.6M308.1 267.7l3.6 3.6M308.1 263.7l3.6 3.6M308.1 259.6l3.6 3.6M308.1 255.7l3.6 3.6M308.1 251.7l3.6 3.6M308.1 247.6l3.6 3.6M308.1 243.7l3.6 3.6M308.1 239.7l3.6 3.6M308.1 235.6l3.6 3.6M308.1 231.5l3.6 3.6M308.1 227.7l3.6 3.6M308.1 223.6l3.6 3.6M308.1 219.5l3.6 3.6M308.1 215.7l3.6 3.6M308.1 211.6l3.6 3.6M308.1 207.5l3.6 3.6M308.1 203.4l3.6 3.6M308.1 199.6l3.6 3.6M308.1 195.5l3.6 3.6M308.1 191.4l3.6 3.6M308.1 187.6l3.6 3.6M308.1 183.5l3.6 3.6M308.1 179.4l3.6 3.6M308.1 175.6l3.6 3.6M308.1 171.5l3.6 3.6M308.1 167.4l3.6 3.6M308.1 163.3l3.6 3.6M308.1 159.5l3.6 3.6M308.1 155.4l3.6 3.6M308.1 151.3l3.6 3.6M308.1 147.5l3.6 3.6M308.1 143.4l3.6 3.6M308.1 139.3l3.6 3.6M308.1 135.5l3.6 3.6M308.1 131.4l3.6 3.6M308.1 127.3l3.6 3.6M308.1 123.3l3.6 3.6M308.1 119.4l3.6 3.6M308.1 115.3l3.6 3.6M308.1 111.3l3.6 3.6M308.1 107.4l3.6 3.6M308.1 103.3l3.6 3.6M308.1 99.3l3.6 3.6M308.1 95.2l3.6 3.6M308.1 91.3l3.6 3.6M308.1 87.3l3.6 3.6M308.1 83.2l3.6 3.6M308.1 79.3l3.6 3.6M308.1 75.3l3.6 3.6M308.1 71.2l3.6 3.6M308.1 67.3l3.6 3.6M308.1 63.3l3.6 3.6M308.3 59.7l3.4 3.1M310.5 57.7l1.2 1"/><path class="cls-8" d="M307.3 393l.5.5V60.1l-.5.8V393M301.6 387.3l5.7 5.7V60.9l-5.7 5.5v320.9"/><path class="cls-6" d="M307.1 392.8h.5M305.7 391.3h1.9M304.5 389.9h3.1M303 388.5h4.6M301.8 387h5.8M301.8 385.6h5.8M301.8 384.1h5.8M301.8 382.7h5.8M301.8 381.5h5.8M301.8 380.1h5.8M301.8 378.6h5.8M301.8 377.2h5.8M301.8 375.7h5.8M301.8 374.3h5.8M301.8 372.9h5.8M301.8 371.4h5.8M301.8 370h5.8M301.8 368.5h5.8M301.8 367.3h5.8M301.8 365.9h5.8M301.8 364.5h5.8M301.8 363h5.8M301.8 361.6h5.8M301.8 360.1h5.8M301.8 358.7h5.8M301.8 357.3h5.8M301.8 355.8h5.8M301.8 354.4h5.8M301.8 352.9h5.8M301.8 351.7h5.8M301.8 350.3h5.8M301.8 348.9h5.8M301.8 347.4h5.8M301.8 346h5.8M301.8 344.5h5.8M301.8 343.1h5.8M301.8 341.7h5.8M301.8 340.2h5.8M301.8 338.8h5.8M301.8 337.6h5.8M301.8 336.1h5.8M301.8 334.7h5.8M301.8 333.3h5.8M301.8 331.8h5.8M301.8 330.4h5.8M301.8 328.9h5.8M301.8 327.5h5.8M301.8 326.1h5.8M301.8 324.6h5.8M301.8 323.2h5.8M301.8 322h5.8M301.8 320.5h5.8M301.8 319.1h5.8M301.8 317.7h5.8M301.8 316.2h5.8M301.8 314.8h5.8M301.8 313.3h5.8M301.8 311.9h5.8M301.8 310.5h5.8M301.8 309h5.8M301.8 307.6h5.8M301.8 306.4h5.8M301.8 304.9h5.8M301.8 303.5h5.8M301.8 302.1h5.8M301.8 300.6h5.8M301.8 299.2h5.8M301.8 297.7h5.8M301.8 296.3h5.8M301.8 294.9h5.8M301.8 293.4h5.8M301.8 292.2h5.8M301.8 290.8h5.8M301.8 289.3h5.8M301.8 287.9h5.8M301.8 286.5h5.8M301.8 285h5.8M301.8 283.6h5.8M301.8 282.1h5.8M301.8 280.7h5.8M301.8 279.3h5.8M301.8 277.8h5.8M301.8 276.6h5.8M301.8 275.2h5.8M301.8 273.7h5.8M301.8 272.3h5.8M301.8 270.9h5.8M301.8 269.4h5.8M301.8 268h5.8M301.8 266.5h5.8M301.8 265.1h5.8M301.8 263.7h5.8M301.8 262.5h5.8M301.8 261h5.8M301.8 259.6h5.8M301.8 258.1h5.8M301.8 256.7h5.8M301.8 255.3h5.8M301.8 253.8h5.8M301.8 252.4h5.8M301.8 250.9h5.8M301.8 249.5h5.8M301.8 248.1h5.8M301.8 246.9h5.8M301.8 245.4h5.8M301.8 244h5.8M301.8 242.5h5.8M301.8 241.1h5.8M301.8 239.7h5.8M301.8 238.2h5.8M301.8 236.8h5.8M301.8 235.3h5.8M301.8 233.9h5.8M301.8 232.7h5.8M301.8 231.3h5.8M301.8 229.8h5.8M301.8 228.4h5.8M301.8 226.9h5.8M301.8 225.5h5.8M301.8 224.1h5.8M301.8 222.6h5.8M301.8 221.2h5.8M301.8 219.7h5.8M301.8 218.3h5.8M301.8 217.1h5.8M301.8 215.7h5.8M301.8 214.2h5.8M301.8 212.8h5.8M301.8 211.3h5.8M301.8 209.9h5.8M301.8 208.5h5.8M301.8 207h5.8M301.8 205.6h5.8M301.8 204.1h5.8M301.8 202.7h5.8M301.8 201.5h5.8M301.8 200.1h5.8M301.8 198.6h5.8M301.8 197.2h5.8M301.8 195.7h5.8M301.8 194.3h5.8M301.8 192.9h5.8M301.8 191.4h5.8M301.8 190h5.8M301.8 188.5h5.8M301.8 187.3h5.8M301.8 185.9h5.8M301.8 184.5h5.8M301.8 183h5.8M301.8 181.6h5.8M301.8 180.1h5.8M301.8 178.7h5.8M301.8 177.3h5.8M301.8 175.8h5.8M301.8 174.4h5.8M301.8 172.9h5.8M301.8 171.7h5.8M301.8 170.3h5.8M301.8 168.9h5.8M301.8 167.4h5.8M301.8 166h5.8M301.8 164.5h5.8M301.8 163.1h5.8M301.8 161.7h5.8M301.8 160.2h5.8M301.8 158.8h5.8M301.8 157.6h5.8M301.8 156.1h5.8M301.8 154.7h5.8M301.8 153.3h5.8M301.8 151.8h5.8M301.8 150.4h5.8M301.8 148.9h5.8M301.8 147.5h5.8M301.8 146.1h5.8M301.8 144.6h5.8M301.8 143.2h5.8M301.8 142h5.8M301.8 140.5h5.8M301.8 139.1h5.8M301.8 137.7h5.8M301.8 136.2h5.8M301.8 134.8h5.8M301.8 133.3h5.8M301.8 131.9h5.8M301.8 130.5h5.8M301.8 129h5.8M301.8 127.6h5.8M301.8 126.4h5.8M301.8 124.9h5.8M301.8 123.5h5.8M301.8 122.1h5.8M301.8 120.6h5.8M301.8 119.2h5.8M301.8 117.7h5.8M301.8 116.3h5.8M301.8 114.9h5.8M301.8 113.4h5.8M301.8 112.2h5.8M301.8 110.8h5.8M301.8 109.3h5.8M301.8 107.9h5.8M301.8 106.5h5.8M301.8 105h5.8M301.8 103.6h5.8M301.8 102.1h5.8M301.8 100.7h5.8M301.8 99.3h5.8M301.8 97.8h5.8M301.8 96.6h5.8M301.8 95.2h5.8M301.8 93.7h5.8M301.8 92.3h5.8M301.8 90.9h5.8M301.8 89.4h5.8M301.8 88h5.8M301.8 86.5h5.8M301.8 85.1h5.8M301.8 83.7h5.8M301.8 82.5h5.8M301.8 81h5.8M301.8 79.6h5.8M301.8 78.1h5.8M301.8 76.7h5.8M301.8 75.3h5.8M301.8 73.8h5.8M301.8 72.4h5.8M301.8 70.9h5.8M301.8 69.5h5.8M301.8 68.1h5.8M301.8 66.9h5.8M302.8 65.4h4.8M304.2 64h3.4M305.7 62.5h1.9M307.3 61.1h.3"/><path class="cls-8" d="M296.5 382.2l5.1 5.1V66.4l-5.1 5.3v310.5"/><path class="cls-6" d="M296.8 380.8l5 5M296.8 376.7l5 5M296.8 372.6l5 5.1M296.8 368.5l5 5.1M296.8 364.7l5 5M296.8 360.6l5 5.1M296.8 356.5l5 5.1M296.8 352.7l5 5M296.8 348.6l5 5.1M296.8 344.5l5 5.1M296.8 340.7l5 5M296.8 336.6l5 5.1M296.8 332.5l5 5.1M296.8 328.5l5 5M296.8 324.6l5 5.1M296.8 320.5l5 5.1M296.8 316.5l5 5M296.8 312.6l5 5.1M296.8 308.5l5 5.1M296.8 304.5l5 5M296.8 300.4l5 5M296.8 296.5l5 5.1M296.8 292.5l5 5M296.8 288.4l5 5M296.8 284.5l5 5.1M296.8 280.5l5 5M296.8 276.4l5 5M296.8 272.5l5 5.1M296.8 268.5l5 5M296.8 264.4l5 5M296.8 260.3l5 5M296.8 256.5l5 5M296.8 252.4l5 5M296.8 248.3l5 5M296.8 244.5l5 5M296.8 240.4l5 5M296.8 236.3l5 5M296.8 232.5l5 5M296.8 228.4l5 5M296.8 224.3l5 5M296.8 220.2l5 5.1M296.8 216.4l5 5M296.8 212.3l5 5M296.8 208.2l5 5.1M296.8 204.4l5 5M296.8 200.3l5 5M296.8 196.2l5 5.1M296.8 192.1l5 5.1M296.8 188.3l5 5M296.8 184.2l5 5.1M296.8 180.1l5 5.1M296.8 176.3l5 5M296.8 172.2l5 5.1M296.8 168.1l5 5.1M296.8 164.3l5 5M296.8 160.2l5 5.1M296.8 156.1l5 5.1M296.8 152.1l5 5M296.8 148.2l5 5.1M296.8 144.1l5 5.1M296.8 140.1l5 5M296.8 136.2l5 5.1M296.8 132.1l5 5.1M296.8 128.1l5 5M296.8 124.2l5 5.1M296.8 120.1l5 5.1M296.8 116.1l5 5M296.8 112l5 5M296.8 108.1l5 5.1M296.8 104.1l5 5M296.8 100l5 5M296.8 96.1l5 5.1M296.8 92.1l5 5M296.8 88l5 5M296.8 83.9l5 5M296.8 80.1l5 5M296.8 76l5 5M296.8 71.9l5 5M298.5 69.7l3.3 3.4M300.4 67.8l1.4 1.2M301.6 66.4v320.9M307.3 60.9V393"/><path class="cls-7" d="M311.4 56.8v340.3M296.5 71.7v310.5M50.5 224.5h29.8v39.8H50.5zM48.9 215.7h35.2M67.1 218.8H53.2M79.8 221.7H65.9"/><path class="cls-8" d="M47.7 209.7l-7 9.3v60.3l7-7.5v-62.1"/><path class="cls-6" d="M47.9 212.1l-1.2-1M47.9 215.9l-2.9-2.6M47.9 220l-4.6-4.3M47.9 224.1l-6.2-6.3M47.9 227.9l-7-7M47.9 232l-7-7M47.9 236.1l-7-7M47.9 240.1l-7-6.9M47.9 244l-7-7M47.9 248.1l-7-7M47.9 252.1l-7-6.9M47.9 256l-7-7M47.9 260.1l-7-7M47.9 264.1l-7-6.9M47.9 268l-7-7M47.7 272.1l-6.8-7M45.7 274l-4.8-4.8M43.8 276.1l-2.9-2.8M41.9 278.1l-1-1M40.9 278.8l6.5-6.5M40.9 274.7l7-7M40.9 270.9l7-7M40.9 266.8l7-7M40.9 262.7l7-7M40.9 258.9l7-7M40.9 254.8l7-7M40.9 250.7l7-7M40.9 246.9l7-7M40.9 242.8l7-7M40.9 238.7l7-7M40.9 234.6l7-6.9M40.9 230.8l7-7M40.9 226.7l7-7M40.9 222.6l7-6.9M41.9 217.6l6-5.8"/><path class="cls-8" d="M47.7 209.7l-7 9.3v60.3l7-7.5v-62.1"/><path class="cls-6" d="M47.9 212.1l-1.2-1M47.9 215.9l-2.9-2.6M47.9 220l-4.6-4.3M47.9 224.1l-6.2-6.3M47.9 227.9l-7-7M47.9 232l-7-7M47.9 236.1l-7-7M47.9 240.1l-7-6.9M47.9 244l-7-7M47.9 248.1l-7-7M47.9 252.1l-7-6.9M47.9 256l-7-7M47.9 260.1l-7-7M47.9 264.1l-7-6.9M47.9 268l-7-7M47.7 272.1l-6.8-7M45.7 274l-4.8-4.8M43.8 276.1l-2.9-2.8M41.9 278.1l-1-1M40.9 278.8l6.5-6.5M40.9 274.7l7-7M40.9 270.9l7-7M40.9 266.8l7-7M40.9 262.7l7-7M40.9 258.9l7-7M40.9 254.8l7-7M40.9 250.7l7-7M40.9 246.9l7-7M40.9 242.8l7-7M40.9 238.7l7-7M40.9 234.6l7-6.9M40.9 230.8l7-7M40.9 226.7l7-7M40.9 222.6l7-6.9M41.9 217.6l6-5.8"/><path class="cls-9" d="M93 71.7l7.2-5.3v-9.6H33.7v14.9H93"/><path class="cls-8" d="M33.7 56.8v3.3h66.5v-3.3H33.7"/><path class="cls-6" d="M34 57.7l2.4 2.4M36.9 56.8l3.3 3.3M40.9 56.8l3.4 3.3M45 56.8l3.4 3.3M48.9 56.8l3.3 3.3M52.9 56.8l3.4 3.3M57 56.8l3.4 3.3M60.9 56.8l3.3 3.3M64.9 56.8l3.4 3.3M69 56.8l3.4 3.3M73.1 56.8l3.4 3.3M76.9 56.8l3.4 3.3M81 56.8l3.4 3.3M85.1 56.8l3.4 3.3M88.9 56.8l3.4 3.3M93 56.8l3.4 3.3M97.1 56.8l3.4 3.3"/><path class="cls-8" d="M33.7 60.1v.8h66.5v-.8H33.7M33.7 60.9v5.5h66.5v-5.5H33.7"/><path class="cls-6" d="M99.7 66.4v-5.5M98.3 66.4v-5.5M96.9 66.4v-5.5M95.7 66.4v-5.5M94.2 66.4v-5.5M92.8 66.4v-5.5M91.3 66.4v-5.5M89.9 66.4v-5.5M88.5 66.4v-5.5M87 66.4v-5.5M85.6 66.4v-5.5M84.1 66.4v-5.5M82.7 66.4v-5.5M81.5 66.4v-5.5M80.1 66.4v-5.5M78.6 66.4v-5.5M77.2 66.4v-5.5M75.7 66.4v-5.5M74.3 66.4v-5.5M72.9 66.4v-5.5M71.4 66.4v-5.5M70 66.4v-5.5M68.5 66.4v-5.5M67.1 66.4v-5.5M65.9 66.4v-5.5M64.5 66.4v-5.5M63 66.4v-5.5M61.6 66.4v-5.5M60.1 66.4v-5.5M58.7 66.4v-5.5M57.3 66.4v-5.5M55.8 66.4v-5.5M54.4 66.4v-5.5M52.9 66.4v-5.5M51.7 66.4v-5.5M50.3 66.4v-5.5M48.9 66.4v-5.5M47.4 66.4v-5.5M46 66.4v-5.5M44.5 66.4v-5.5M43.1 66.4v-5.5M41.7 66.4v-5.5M40.2 66.4v-5.5M38.8 66.4v-5.5M37.3 66.4v-5.5M36.1 66.4v-5.5M34.7 66.4v-5.5"/><path class="cls-8" d="M93 71.7l7.2-5.3H33.7v5.3H93"/><path class="cls-6" d="M99.3 67.1l-.8-.7M97.1 68.8l-2.4-2.4M94.7 70.5l-4.1-4.1M91.8 71.7l-5.3-5.3M88 71.7l-5.3-5.3M83.9 71.7l-5.3-5.3M79.8 71.7l-5.3-5.3M75.7 71.7l-5.2-5.3M71.9 71.7l-5.3-5.3M67.8 71.7l-5.3-5.3M63.7 71.7l-5.2-5.3M59.9 71.7l-5.3-5.3M55.8 71.7l-5.3-5.3M51.7 71.7l-5.2-5.3M47.9 71.7l-5.3-5.3M43.8 71.7l-5.3-5.3M39.7 71.7l-5.2-5.3M35.7 71.7l-1.7-2M91.6 71.7l5.3-5.3M87.5 71.7l5.3-5.3M83.7 71.7l5.2-5.3M79.6 71.7l5.3-5.3M75.5 71.7l5.3-5.3M71.7 71.7l5.2-5.3M67.6 71.7l5.3-5.3M63.5 71.7l5.3-5.3M59.7 71.7l5.2-5.3M55.6 71.7l5.3-5.3M51.5 71.7l5.3-5.3M47.4 71.7l5.3-5.3M43.6 71.7l5.3-5.3M39.5 71.7l5.3-5.3M35.4 71.7l5.3-5.3M34 69.3l2.9-2.9M33.7 66.4h66.5M33.7 60.9H93"/><path class="cls-7" d="M33.7 56.8h66.5M33.7 71.7H93"/><path class="cls-9" d="M.6 66.4l7.2 5.3H15V56.8H.6v9.6"/><path class="cls-8" d="M.6 56.8v3.3H15v-3.3H.6"/><path class="cls-6" d="M.9 56.8l3.3 3.3M4.9 56.8l3.4 3.3M8.8 56.8l3.3 3.3M12.9 56.8l2.4 2.4"/><path class="cls-8" d="M.6 60.1v.8H15v-.8H.6M.6 60.9v5.5H15v-5.5H.6"/><path class="cls-6" d="M14.8 66.4v-5.5M13.3 66.4v-5.5M11.9 66.4v-5.5M10.5 66.4v-5.5M9 66.4v-5.5M7.6 66.4v-5.5M6.4 66.4v-5.5M4.9 66.4v-5.5M3.5 66.4v-5.5M2.1 66.4v-5.5"/><path class="cls-8" d="M.6 66.4l7.2 5.3H15v-5.3H.6"/><path class="cls-6" d="M15.3 67.1l-.8-.7M15.3 71.2l-4.8-4.8M11.7 71.7l-5.3-5.3M7.1 70.9l-4.8-4.5M11.4 71.7l3.9-3.6M7.6 71.4l5-5M5.4 69.7l3.4-3.3M3 68.1l1.7-1.7M.6 66.4H15M.6 60.9H15"/><path class="cls-7" d="M.6 56.8H15M7.8 71.7H15M100.2 56.8"/><path class="cls-6" d="M93 60.9h7.2"/><path class="cls-7" d="M15 66.4v6h18.7v-6M16.7 64.2v-7.4h-3.4v-1.7h21.9v1.7h-3.4v7.4M15 64.2h18.7v2.2H15zM18.6 64.2v2.2M29.9 64.2v2.2M15 66.4v-2.2M29.9 66.4v-2.2M18.6 66.4v-2.2M33.7 66.4v-2.2M16.7 60.1h7.7"/><path class="cls-8" d="M15 60.8h1.8v3.4H15"/><path class="cls-6" d="M16.2 64.2v-3.3M15 60.8h1.8v3.4H15"/><path class="cls-8" d="M15 56.8h1.7v3.3H15"/><path class="cls-6" d="M15.3 59.2l.9.9"/><path class="cls-7" d="M16.7 60.1v4.1M31.8 60.1h-7.4"/><path class="cls-8" d="M33.7 60.8h-1.9v3.4h1.9"/><path class="cls-6" d="M33.3 64.2v-3.3M33.7 60.8h-1.9v3.4h1.9"/><path class="cls-8" d="M33.7 56.8h-1.9v3.3h1.9"/><path class="cls-6" d="M32.1 59.9l.2.2M33 56.8l1 .9"/><path class="cls-7" d="M31.8 60.1v4.1"/><path class="cls-8" d="M47.7 271.8l-7 7.5H111l7.2-7.5H47.7"/><path class="cls-6" d="M117 273.3l-1.4-1.5M115.1 275.2l-3.4-3.4M113.2 277.3l-5.5-5.5M111 279.3l-7.4-7.5M106.9 279.3l-7.4-7.5M103.1 279.3l-7.4-7.5M99 279.3l-7.4-7.5M94.9 279.3l-7.4-7.5M91.1 279.3l-7.4-7.5M87 279.3l-7.4-7.5M82.9 279.3l-7.4-7.5M79.1 279.3l-7.4-7.5M75 279.3l-7.4-7.5M70.9 279.3l-7.4-7.5M66.9 279.3l-7.5-7.5M63 279.3l-7.4-7.5M58.9 279.3l-7.4-7.5M54.9 279.3l-7.2-7.2M51 279.3l-5.3-5.3M46.9 279.3l-3.1-3.2M42.9 279.3l-1-1.2M108.6 279.3l7.5-7.5M104.5 279.3l7.5-7.5M100.5 279.3l7.4-7.5M96.4 279.3l7.4-7.5M92.5 279.3l7.5-7.5M88.5 279.3l7.4-7.5M84.4 279.3l7.4-7.5M80.5 279.3l7.5-7.5M76.5 279.3l7.4-7.5M72.4 279.3l7.4-7.5M68.5 279.3l7.5-7.5M64.5 279.3l7.4-7.5M60.4 279.3l7.4-7.5M56.3 279.3l7.4-7.5M52.5 279.3l7.4-7.5M48.4 279.3l7.4-7.5M44.3 279.3l7.4-7.5M47.4 272.3l.5-.5"/><path class="cls-8" d="M47.7 271.8l-7 7.5H111l7.2-7.5H47.7"/><path class="cls-6" d="M117 273.3l-1.4-1.5M115.1 275.2l-3.4-3.4M113.2 277.3l-5.5-5.5M111 279.3l-7.4-7.5M106.9 279.3l-7.4-7.5M103.1 279.3l-7.4-7.5M99 279.3l-7.4-7.5M94.9 279.3l-7.4-7.5M91.1 279.3l-7.4-7.5M87 279.3l-7.4-7.5M82.9 279.3l-7.4-7.5M79.1 279.3l-7.4-7.5M75 279.3l-7.4-7.5M70.9 279.3l-7.4-7.5M66.9 279.3l-7.5-7.5M63 279.3l-7.4-7.5M58.9 279.3l-7.4-7.5M54.9 279.3l-7.2-7.2M51 279.3l-5.3-5.3M46.9 279.3l-3.1-3.2M42.9 279.3l-1-1.2M108.6 279.3l7.5-7.5M104.5 279.3l7.5-7.5M100.5 279.3l7.4-7.5M96.4 279.3l7.4-7.5M92.5 279.3l7.5-7.5M88.5 279.3l7.4-7.5M84.4 279.3l7.4-7.5M80.5 279.3l7.5-7.5M76.5 279.3l7.4-7.5M72.4 279.3l7.4-7.5M68.5 279.3l7.5-7.5M64.5 279.3l7.4-7.5M60.4 279.3l7.4-7.5M56.3 279.3l7.4-7.5M52.5 279.3l7.4-7.5M48.4 279.3l7.4-7.5M44.3 279.3l7.4-7.5M47.4 272.3l.5-.5"/><path class="cls-8" d="M118.2 271.8l-7.2 7.5v108h7.2V271.8"/><path class="cls-6" d="M118.5 274.5l-1.5-1.2M118.5 278.5l-3.4-3.3M118.5 282.6l-5.3-5.3M118.5 286.5l-7.2-7.2M118.5 290.5l-7.2-7.2M118.5 294.6l-7.2-7.2M118.5 298.5l-7.2-7.2M118.5 302.5l-7.2-7.2M118.5 306.6l-7.2-7.2M118.5 310.7l-7.2-7.2M118.5 314.5l-7.2-7.2M118.5 318.6l-7.2-7.2M118.5 322.7l-7.2-7.2M118.5 326.5l-7.2-7.2M118.5 330.6l-7.2-7.2M118.5 334.7l-7.2-7.2M118.5 338.5l-7.2-7.2M118.5 342.6l-7.2-7.2M118.5 346.7l-7.2-7.2M118.5 350.8l-7.2-7.2M118.5 354.6l-7.2-7.2M118.5 358.7l-7.2-7.2M118.5 362.8l-7.2-7.2M118.5 366.6l-7.2-7.2M118.5 370.7l-7.2-7.2M118.5 374.8l-7.2-7.2M118.5 378.6l-7.2-7.2M118.5 382.7l-7.2-7.2M118.5 386.8l-7.2-7.2M114.9 387.3l-3.6-3.6M116.8 387.3l1.7-1.7M112.7 387.3l5.8-5.6M111.3 384.9l7.2-7.2M111.3 380.8l7.2-7.2M111.3 376.9l7.2-7.2M111.3 372.9l7.2-7.2M111.3 368.8l7.2-7.2M111.3 364.9l7.2-7.2M111.3 360.9l7.2-7.2M111.3 356.8l7.2-7.2M111.3 352.7l7.2-7.2M111.3 348.9l7.2-7.2M111.3 344.8l7.2-7.2M111.3 340.7l7.2-7.2M111.3 336.9l7.2-7.2M111.3 332.8l7.2-7.2M111.3 328.7l7.2-7.2M111.3 324.9l7.2-7.2M111.3 320.8l7.2-7.2M111.3 316.7l7.2-7.2M111.3 312.6l7.2-7.2M111.3 308.8l7.2-7.2M111.3 304.7l7.2-7.2M111.3 300.6l7.2-7.2M111.3 296.8l7.2-7.2M111.3 292.7l7.2-7.2M111.3 288.6l7.2-7.2M111.3 284.5l7.2-7.2M111.3 280.7l7.2-7.2"/><path class="cls-8" d="M118.2 271.8l-7.2 7.5v108h7.2V271.8"/><path class="cls-6" d="M118.5 274.5l-1.5-1.2M118.5 278.5l-3.4-3.3M118.5 282.6l-5.3-5.3M118.5 286.5l-7.2-7.2M118.5 290.5l-7.2-7.2M118.5 294.6l-7.2-7.2M118.5 298.5l-7.2-7.2M118.5 302.5l-7.2-7.2M118.5 306.6l-7.2-7.2M118.5 310.7l-7.2-7.2M118.5 314.5l-7.2-7.2M118.5 318.6l-7.2-7.2M118.5 322.7l-7.2-7.2M118.5 326.5l-7.2-7.2M118.5 330.6l-7.2-7.2M118.5 334.7l-7.2-7.2M118.5 338.5l-7.2-7.2M118.5 342.6l-7.2-7.2M118.5 346.7l-7.2-7.2M118.5 350.8l-7.2-7.2M118.5 354.6l-7.2-7.2M118.5 358.7l-7.2-7.2M118.5 362.8l-7.2-7.2M118.5 366.6l-7.2-7.2M118.5 370.7l-7.2-7.2M118.5 374.8l-7.2-7.2M118.5 378.6l-7.2-7.2M118.5 382.7l-7.2-7.2M118.5 386.8l-7.2-7.2M114.9 387.3l-3.6-3.6M116.8 387.3l1.7-1.7M112.7 387.3l5.8-5.6M111.3 384.9l7.2-7.2M111.3 380.8l7.2-7.2M111.3 376.9l7.2-7.2M111.3 372.9l7.2-7.2M111.3 368.8l7.2-7.2M111.3 364.9l7.2-7.2M111.3 360.9l7.2-7.2M111.3 356.8l7.2-7.2M111.3 352.7l7.2-7.2M111.3 348.9l7.2-7.2M111.3 344.8l7.2-7.2M111.3 340.7l7.2-7.2M111.3 336.9l7.2-7.2M111.3 332.8l7.2-7.2M111.3 328.7l7.2-7.2M111.3 324.9l7.2-7.2M111.3 320.8l7.2-7.2M111.3 316.7l7.2-7.2M111.3 312.6l7.2-7.2M111.3 308.8l7.2-7.2M111.3 304.7l7.2-7.2M111.3 300.6l7.2-7.2M111.3 296.8l7.2-7.2M111.3 292.7l7.2-7.2M111.3 288.6l7.2-7.2M111.3 284.5l7.2-7.2M111.3 280.7l7.2-7.2"/><path class="cls-7" d="M93 110.8H58.9M93 118.5H58.9M93 126.1H58.9M93 133.8H58.9M93 141.5H58.9M93 149.2H58.9M93 156.9H58.9M93 164.3H58.9M7.8 164.3h33.9M7.8 156.9h33.9M7.8 149.2h33.9M7.8 141.5h33.9M7.8 133.8h33.9M7.8 126.1h33.9M7.8 118.5h33.9M7.8 110.8h33.9M93 130l-35.5 7.9M43.1 106.9h14.4v61.2H43.1z"/><path class="cls-7" d="M41.7 105.5H59v64.1H41.7zM80.1 114.9h-8M76 110.8l4.1 4.1M72.1 114.9l3.9-4.1M80.1 137.7h-8M76 133.8l4.1 3.9M72.1 137.7l3.9-3.9M20.8 160.5h7.9M24.6 164.3l-3.8-3.8M28.7 160.5l-4.1 3.8M118.5 212.5v-35M118.5 178v-.5"/><path class="cls-8" d="M296.5 263.9h-85.4v4.3h85.4v-4.3"/><path class="cls-6" d="M211.3 265.1l1.2-1.2M212.5 268.2l4.4-4.3M216.6 268.2l4.3-4.3M220.9 268.2l4.4-4.3M225.3 268.2l4.3-4.3M229.3 268.2l4.4-4.3M233.7 268.2l4.3-4.3M238 268.2l4.3-4.3M242.3 268.2l4.3-4.3M246.4 268.2l4.3-4.3M250.7 268.2l4.3-4.3M255 268.2l4.3-4.3M259.1 268.2l4.3-4.3M263.4 268.2l4.3-4.3M267.7 268.2l4.4-4.3M272.1 268.2l4.3-4.3M276.1 268.2l4.4-4.3M280.5 268.2l4.3-4.3M284.8 268.2l4.3-4.3M288.9 268.2l4.3-4.3M293.2 268.2l3.6-3.3"/><path class="cls-8" d="M296.5 263.9h-85.4v4.3h85.4v-4.3"/><path class="cls-6" d="M211.3 265.1l1.2-1.2M212.5 268.2l4.4-4.3M216.6 268.2l4.3-4.3M220.9 268.2l4.4-4.3M225.3 268.2l4.3-4.3M229.3 268.2l4.4-4.3M233.7 268.2l4.3-4.3M238 268.2l4.3-4.3M242.3 268.2l4.3-4.3M246.4 268.2l4.3-4.3M250.7 268.2l4.3-4.3M255 268.2l4.3-4.3M259.1 268.2l4.3-4.3M263.4 268.2l4.3-4.3M267.7 268.2l4.4-4.3M272.1 268.2l4.3-4.3M276.1 268.2l4.4-4.3M280.5 268.2l4.3-4.3M284.8 268.2l4.3-4.3M288.9 268.2l4.3-4.3M293.2 268.2l3.6-3.3"/><path class="cls-8" d="M296.5 202.2h-85.4v5.1h85.4v-5.1"/><path class="cls-6" d="M211.3 205.6l3.4-3.4M214 207.3l5-5.1M218.1 207.3l5-5.1M222.4 207.3l5-5.1M226.7 207.3l5-5.1M231 207.3l5.1-5.1M235.1 207.3l5-5.1M239.4 207.3l5.1-5.1M243.7 207.3l5.1-5.1M247.8 207.3l5.1-5.1M252.1 207.3l5.1-5.1M256.5 207.3l5-5.1M260.5 207.3l5.1-5.1M264.9 207.3l5-5.1M269.2 207.3l5-5.1M273.5 207.3l5-5.1M277.6 207.3l5-5.1M281.9 207.3l5-5.1M286.2 207.3l5.1-5.1M290.3 207.3l5-5.1M294.6 207.3l2.2-2"/><path class="cls-8" d="M296.5 202.2h-85.4v5.1h85.4v-5.1"/><path class="cls-6" d="M211.3 205.6l3.4-3.4M214 207.3l5-5.1M218.1 207.3l5-5.1M222.4 207.3l5-5.1M226.7 207.3l5-5.1M231 207.3l5.1-5.1M235.1 207.3l5-5.1M239.4 207.3l5.1-5.1M243.7 207.3l5.1-5.1M247.8 207.3l5.1-5.1M252.1 207.3l5.1-5.1M256.5 207.3l5-5.1M260.5 207.3l5.1-5.1M264.9 207.3l5-5.1M269.2 207.3l5-5.1M273.5 207.3l5-5.1M277.6 207.3l5-5.1M281.9 207.3l5-5.1M286.2 207.3l5.1-5.1M290.3 207.3l5-5.1M294.6 207.3l2.2-2"/><path class="cls-8" d="M100.2 217.1l-7.2-7.4h-9.6v7.4h16.8"/><path class="cls-6" d="M97.1 217.1l-7.4-7.4M93 217.1l-7.4-7.4M88.9 217.1l-5.2-5.5M85.1 217.1l-1.4-1.4M98.5 217.1l1-1M94.5 217.1l3.1-2.9M90.6 217.1l4.8-5M86.5 217.1l7-7M83.7 216.1l6.2-6.4M83.7 212.1l2.1-2.4"/><path class="cls-8" d="M100.2 217.1l-7.2-7.4h-9.6v7.4h16.8"/><path class="cls-6" d="M97.1 217.1l-7.4-7.4M93 217.1l-7.4-7.4M88.9 217.1l-5.2-5.5M85.1 217.1l-1.4-1.4M98.5 217.1l1-1M94.5 217.1l3.1-2.9M90.6 217.1l4.8-5M86.5 217.1l7-7M83.7 216.1l6.2-6.4M83.7 212.1l2.1-2.4"/><path class="cls-7" d="M50.8 215.7h29.5"/><path class="cls-1" d="M50.8 209.7h29.5"/><path class="cls-7" d="M79.8 209.7h.5"/><path class="cls-8" d="M47.7 209.7h3.1v6h-3.1"/><path class="cls-6" d="M51 211.1l-1.4-1.4M51 215.2l-3.1-3.1M47.9 215.7l3.1-3.2M47.9 211.8l1.9-2.1"/><path class="cls-8" d="M83.4 209.7h-3.1v6h3.1"/><path class="cls-6" d="M83.7 211.6l-2.2-1.9M83.7 215.7l-3.2-3.2M80.5 215.2l3.2-3.1M80.5 211.1l1.5-1.4"/><path class="cls-7" d="M100.2 271.8v-54.7M93 271.8v-54.7M93 271.8v-54.7M100.2 271.8v-54.7M100.2 177.3V71.7M93 177.3V71.7M93 177.3V71.7M100.2 177.3V71.7M100.2 217.1v-4.3M100.2 217.1v-4.3M100.2 71.7v-5.3M93 207.3h6M93 179.4h6M93 207.3h6M93 212.8v-5.5M93 179.4h6M93 177.3v2.1M100.2 212.8H99M100.2 177.3H99M93 212.8v-5.5M93 177.3v2.1M99 207.3v5.5M99 179.4v-2.1M.6 212.1v6.9M.6 212.1v6.9M.6 71.7v108M7.8 71.7v108M7.8 71.7v108M.6 71.7v108M.6 66.4v5.3M7.8 179.7v2.4h-6v-2.4H.6M7.8 209.8h-6v2.2H.7M129.3 393.5H111M129.3 397.1H111M129.3 382.2H111M129.3 387.3H111M232.5 393.5h-40.4M232.5 397.1h-40.4M232.5 382.2h-40.4M232.5 387.3h-40.4M307.8 393.5h-34.5M311.4 397.1h-38.1M296.5 382.2h-23.2M301.6 387.3h-28.3M190.2 397.1h3.4M130.9 397.1h-3.3M192.1 387.3v-5.1M192.1 397.1h-1.9v-3.6h1.9M129.3 387.3v-5.1M129.3 397.1h1.6v-3.6h-1.6M271.3 397.1h3.4M234.1 397.1h-3.3M273.3 387.3v-5.1M273.3 397.1h-2v-3.6h2M232.5 387.3v-5.1M232.5 397.1h1.6v-3.6h-1.6M276.9 60.1h30.9M276.9 56.8h34.5M276.9 71.7h19.6M276.9 66.4h24.7M192.1 60.1h44M192.1 56.8h44M192.1 71.7h44M192.1 66.4h44M100.2 60.1h29.1M100.2 56.8h29.1M100.2 71.7h29.1M100.2 66.4h29.1M100.2 66.4v5.3M129.3 66.4v5.3M129.3 56.8h1.6v3.3h-1.6M192.1 66.4v5.3M192.1 56.8h-1.9v3.3h1.9M238 56.8h-3.6M274.9 56.8h3.6M236.1 66.4v5.3M236.1 56.8h1.9v3.3h-1.9M276.9 66.4v5.3M276.9 56.8h-2v3.3h2M211.1 71.7h-4.3M211.1 202.2V97.6M211.1 211.6v-4.3M206.8 211.6v-114M206.8 211.6v-114M211.1 202.2V97.6M211.1 211.6v-4.3M211.1 263.9v-27.1M211.1 356.1v-87.9M206.8 356.1V236.8M206.8 356.1V236.8M211.1 263.9v-27.1M211.1 356.1v-87.9M211.1 382.2h-4.3M211.1 382.2h-4.3M211.1 356.1h-4.3M211.1 97.6h-4.3M211.1 71.7h-4.3M211.1 236.8h-4.3M211.1 211.6h-4.3M40.7 209.7h7M40.7 209.7h7M.6 219h7.7M7.8 209.7h.5M7.8 209.7h.5M.6 219h7.7M10.5 209.7v8.4M38.3 209.7v8.4M10.5 209.7v8.4M8.3 209.7h2.2M38.3 209.7v8.4M40.7 209.7h-2.4M8.3 219v-.9M40.7 219v-.9M8.3 209.7h2.2M40.7 209.7h-2.4M10.5 218.1H8.3M38.3 218.1h2.4M307.8 60.1v333.4M311.4 56.8v340.3M296.5 71.7v310.5M301.6 66.4v320.9M47.7 271.8v-54.7M40.7 279.3V219M40.7 279.3V219M47.7 271.8v-54.7M33.7 60.1H93M33.7 56.8h66.5M33.7 71.7H93M33.7 66.4h66.5M.6 60.1H15M.6 56.8H15M7.8 71.7H15M.6 66.4H15M93 60.1h7.2M16.7 56.8h-3.4M31.8 56.8h3.4M15 66.4v5.3M15 56.8h1.7v3.3H15M33.7 66.4v5.3M33.7 56.8h-1.9v3.3h1.9M93 271.8H47.7M118.2 271.8h-18M111 279.3H40.7M111 279.3H40.7M93 271.8H47.7M118.2 271.8h-18M118.2 387.3V271.8M111 387.3v-108M111 387.3v-108M118.2 387.3V271.8M118.2 387.3H111M211.1 268.2h85.4M211.1 263.9h85.4M296.5 268.2v-4.3M211.1 263.9h85.4M211.1 268.2h85.4M211.1 207.3h85.4M211.1 202.2h85.4M296.5 207.3v-5.1M211.1 202.2h85.4M211.1 207.3h85.4M83.4 217.1H93M83.4 209.7H93M83.4 209.7H93M83.4 217.1H93M50.8 209.7v6M80.3 209.7v6M50.8 209.7v6M47.7 209.7h3.1M80.3 209.7v6M83.4 209.7h-3.1M47.7 217.1v-1.4M83.4 217.1v-1.4M47.7 209.7h3.1M83.4 209.7h-3.1M50.8 215.7h-3.1M80.3 215.7h3.1"/><path class="cls-6" d="M256.5 66.5v1.9c0 .6.2 1.2.3 1.8.1.6.3 1.2.5 1.8l.6 1.8c.2.6.5 1.1.8 1.7.3.5.6 1.1 1 1.6.3.5.7 1 1.1 1.5.4.5.8.9 1.3 1.4.4.4.9.9 1.4 1.3.5.4 1 .8 1.5 1.1.5.3 1 .7 1.6 1 .5.3 1.1.6 1.7.8l1.8.6c.6.2 1.2.3 1.8.5l1.8.3h1.9M275.4 85.6V66.4M256.5 66.4v1.4M256.5 69.3l-.3.9M256.2 70.2l-.2.5M255.7 71.9l-.7 1.9M254.8 74.5l-.5 1M254.3 75.5l-.2.2M253.3 76.9l-1.2 1.7M251.4 79.3l-.5.5M250.9 79.8l-.4.5M249.5 81.3l-1.4.9M247.1 82.7l-.7.5M246.4 83.2l-.5.2M244.7 84.1l-1.7.5M241.8 84.9l-.7.2M241.1 85.1h-.7M239.4 85.3l-1.9.3"/><path class="cls-4" d="M237.5 85.6V66.4"/><path class="cls-6" d="M237.5 66.9v-.5M190.7 367.2c-11 0-20.1 9.1-20.1 20.1M190.7 367.3v20"/><path class="cls-4" d="M150.4 367.3l4.1.3 3.6 1.2 3.6 1.9 3.1 2.4 2.4 3.1 1.9 3.4 1.2 3.8.2 3.9M150.4 367.3v20"/><path class="cls-6" d="M252.8 387.2v-1.9c0-.6.2-1.2.3-1.8s.3-1.2.5-1.8l.6-1.8c.2-.6.5-1.1.8-1.7.3-.5.6-1.1 1-1.6.3-.5.7-1 1.1-1.5.4-.5.8-.9 1.3-1.4.4-.4.9-.9 1.4-1.3.5-.4 1-.8 1.5-1.1.5-.3 1-.7 1.6-1 .5-.3 1.1-.6 1.7-.8l1.8-.6c.6-.2 1.2-.3 1.8-.5l1.8-.3h1.9M271.8 368.3v19M252.9 387.3l-.3-1.5M252.4 384.4v-.7M252.4 383.7l-.3-.8M251.9 381.7l-.5-1.6M250.7 378.9l-.2-.5M250.5 378.4l-.5-.7M249.3 376.5l-.8-1.2M247.1 373.8l-.5-.5M245.9 372.6l-1.7-1.2M243.3 370.7l-.5-.2M242.8 370.5l-.7-.3M241.1 369.7l-1.9-.7M238 368.8l-.5-.3M237.5 368.5h-1"/><path class="cls-4" d="M233.9 368.3v19"/><path class="cls-6" d="M233.9 386.8v.5M130.6 86.6c11 0 20.1-9.1 20.1-20.1M130.7 86.5V66.4"/><path class="cls-6" d="M170.8 86.5l-3.9-.2-3.8-1.2-3.4-1.9-3.1-2.4-2.4-3.1-1.9-3.6-1.2-3.6-.5-4.1M170.8 86.5V66.4"/><path class="cls-7" d="M100.2 267h17.5"/><path class="cls-5" d="M100.2 266.3h18.3"/><path class="cls-7" d="M100.2 268.5h16.3M100.2 267h17.5M100.2 266.3h18.3M100.2 268.5h16.3"/><path class="cls-5" d="M100.2 267v-.7"/><path class="cls-7" d="M100.2 268.5V267M201.3 56.8l-3.6-55h-74l-3.3 55"/><path class="cls-7" d="M202.9 56.8L199.3.1h-77.2l-3.4 56.7"/><path class="cls-3" d="M143.9 237.7v.8M143.9 238.5l-.2.7M143.7 239.2l-.3.9M143.4 240.1v.3M142.7 241.8v.3M141.7 243l-.4.7M141.3 243.7l-.5.5M140.8 244.2l-.7.5M140.1 244.7l-.5.2M138.4 245.7h-.3M136.7 245.9l-.5.2M136.2 246.1h-.9M135.3 246.1h-.8M134.5 246.1l-.4-.2M132.6 245.7h-.2M130.9 244.9l-.2-.2M130.7 244.7l-.7-.5M130 244.2l-.7-.5M129.3 243.7l-.5-.4M128.1 242.1l-.3-.3M127.3 240.4l-.2-.3M127.1 240.1v-.9M127.1 239.2l-.2-.7M126.9 238.5v-.8M126.9 236.3l.2-.2M127.3 234.6l.3-.2M127.6 234.4l.2-.7M127.8 233.7l.5-.8M128.3 232.9l.5-.7M129.7 231.3l.3-.3M131.2 230.3l.2-.2M131.4 230.1l.7-.3M132.1 229.8l.8-.2M132.9 229.6l.7-.3M133.6 229.3h.2M135.3 229.1h.2M136.9 229.3l1 .3M137.9 229.6l.7.2M138.6 229.8l.7.3M139.3 230.1l.3.2M140.8 231l.2.3M142 232.2l.5.7M142.5 232.9l.4.8M142.9 233.7l.3.7M143.2 234.4l.2.2M143.7 236.1v.2"/></g><g id="Mbel"><path class="cls-2" d="M161.6 99.1h22.6v51.1h-22.6zM194.1 148.9v-12.8M185.6 148.9h8.5M194.1 136.1h-8.5M194.1 131.1v-12.7M185.6 131.1h8.5M194.1 118.4h-8.5M194.1 113.4v-12.7M185.6 113.4h8.5M194.1 100.7h-8.5M151.6 148.9v-12.8M160.1 148.9h-8.5M151.6 136.1h8.5M151.6 131.1v-12.7M160.1 131.1h-8.5M151.6 118.4h8.5M151.6 113.4v-12.7M160.1 113.4h-8.5M151.6 100.7h8.5M212.7 119.8h56.6v45.4h-56.6zM212.7 185h56.6v15.6h-56.6zM194.7 283h10.8v56.6h-10.8zM155.1 297.1h14.2v28.3h-14.2zM124.1 284.6h19.2l.1.1.1.1v25.7c0 .1-.1.2-.2.3s-.2.1-.3.2h-19v-26.6M120.4 280.1h22.9l.1.1.1.1V283.9c0 .1-.1.2-.2.3s-.2.1-.3.2h-23c-.1 0-.2-.1-.3-.2 0 0-.1-.2-.2-.3V280.8v-.3c0-.1.1-.2.2-.3 0 0 .2-.1.3-.2h.3M124.1 311.3h-4c-.1 0-.2.1-.3.2 0 0-.1.2-.2.3v25.5c0 .1.1.2.2.3 0 0 .2.1.3.2h4M126.3 337.9v-53.3M124.1 337.9h19.2l.1-.1.1-.1v-.1-.2V312.3v-.2-.2-.1l-.1-.1-.1-.1h-.1-.2-18.9v26.6"/><path class="cls-2" d="M120.4 342.4h22.9l.1-.1.1-.1v-.1-.2-3-.2-.2-.1l-.1-.1-.1-.1h-.1-.2-22.9c-.1 0-.2.1-.3.2 0 0-.1.2-.2.3V342.1c0 .1.1.2.2.3 0 0 .2.1.3.2h.3M124.1 311.3h-4c-.1 0-.2-.1-.3-.2 0 0-.1-.2-.2-.3v-25.2-.3c0-.1.1-.2.2-.3 0 0 .2-.1.3-.2h4M156.5 273c-.1-4 0-8 .6-12 .1-1 .8-1.7 1.7-2 3.1-.9 6.4-.9 9.5 0 .9.3 1.6 1 1.7 2 .5 4 .7 8 .6 12-.7.3-1.4.4-2 .4-3.3.1-6.6.1-9.8 0-.7 0-1.4-.1-2-.3"/><path class="cls-2" d="M156 271.9c-.3-.2-.5-.5-.6-.8-.7-1.4-1.1-2.9-1-4.4 0-2.1.3-4.1.7-6.1.3-1.4.8-2.8 1.5-4.1.4-.7 1.1-1.3 1.9-1.5 3.3-.8 6.7-.8 10 0 .8.2 1.5.7 1.9 1.5.7 1.3 1.2 2.7 1.5 4.1.4 2 .7 4 .7 6.1 0 1.5-.3 3-1 4.4-.2.3-.4.6-.6.8M267.7 335h7.7v11.3h-7.7z"/><path class="cls-2" d="M275.3 318h19.9v45.4h-19.9zM212.5 269.5h28.6v56.6h-28.6zM249.9 269.5h45.4v15.6h-45.4z"/></g><g id="Text"><path d="M142.1 195.4h-.7v-5.3h.7v2.5l2.1-2.5h.8l-2.2 2.6 2.2 2.7h-.9l-2-2.5v2.5zM149.1 193.6c0 1.1-.8 1.9-1.9 1.9s-1.9-.8-1.9-1.9.8-1.9 1.9-1.9 1.9.8 1.9 1.9zm-3.1 0c0 .8.5 1.4 1.3 1.4s1.2-.6 1.2-1.4-.5-1.4-1.2-1.4-1.3.6-1.3 1.4zM153.1 195c-.4.4-.8.5-1.4.5-1.1 0-1.8-.8-1.8-1.9s.8-1.9 1.8-1.9 1 .2 1.3.6l-.4.4c-.3-.3-.6-.4-.9-.4-.7 0-1.2.6-1.2 1.4s.5 1.4 1.2 1.4.6-.1.9-.4l.4.4zM154.6 192.2c.3-.4.7-.6 1.1-.6s.7.1.9.3c.2.2.3.5.3 1v2.5h-.6V193c0-.5-.2-.8-.7-.8s-.5.1-.7.3c-.2.2-.2.4-.2.7v2.2h-.6v-5.3h.6v2.2zM158.6 193.8c0 .3 0 .5.2.7.2.3.6.5 1 .5s.9-.2 1.1-.6l.5.2c-.3.6-.9 1-1.6 1-1.1 0-1.9-.8-1.9-1.9s.8-1.9 1.9-1.9 1.9.8 1.9 1.9v.2h-3.1zm2.4-.4c0-.3 0-.4-.2-.6-.2-.3-.6-.5-1-.5s-.8.2-1 .5c-.1.2-.2.3-.2.6h2.4zM163.4 191.7v.5c.3-.4.6-.6 1.1-.6s.6.1.9.3c.2.2.3.5.3 1v2.5h-.6V193c0-.3 0-.5-.1-.6-.1-.2-.3-.2-.6-.2s-.5.1-.7.3c-.2.2-.2.4-.2.7v2.2h-.6v-3.7h.6zM166.9 196.7h-.4l.7-2.1.6.2-.8 1.9zM172 192.4h2.1v.6H172v1.8h2.1v.6h-2.8v-5.3h2.8v.6H172v1.8zM177.1 192.7c0-.4-.3-.6-.7-.6s-.7.2-.7.5.2.4.8.6c.5.1.7.2.9.4.2.2.3.4.3.7 0 .6-.5 1.1-1.3 1.1s-1.3-.4-1.4-1.1h.6c0 .4.3.6.8.6s.7-.2.7-.5-.2-.5-.8-.6c-.8-.2-1.2-.6-1.2-1.1s.5-1.1 1.3-1.1 1.3.4 1.3 1.1h-.6zM180.6 192.7c0-.4-.3-.6-.7-.6s-.7.2-.7.5.2.4.8.6c.5.1.7.2.9.4.2.2.3.4.3.7 0 .6-.5 1.1-1.3 1.1s-1.3-.4-1.4-1.1h.6c0 .4.3.6.8.6s.7-.2.7-.5-.2-.5-.8-.6c-.8-.2-1.2-.6-1.2-1.1s.5-1.1 1.3-1.1 1.3.4 1.3 1.1h-.6zM182.8 193.8c0 .3 0 .5.2.7.2.3.6.5 1 .5s.9-.2 1.1-.6l.5.2c-.3.6-.9 1-1.6 1-1.1 0-1.9-.8-1.9-1.9s.8-1.9 1.9-1.9 1.9.8 1.9 1.9v.2h-3.1zm2.4-.4c0-.3 0-.4-.2-.6-.2-.3-.6-.5-1-.5s-.8.2-1 .5c-.1.2-.2.3-.2.6h2.4zM187.5 191.7v.5c.3-.4.6-.6 1.1-.6s.6.1.9.3c.2.2.3.5.3 1v2.5h-.6V193c0-.3 0-.5-.1-.6-.1-.2-.3-.2-.6-.2s-.5.1-.7.3c-.2.2-.2.4-.2.7v2.2h-.6v-3.7h.6zM191.1 196.7h-.4l.7-2.1.6.2-.8 1.9zM146.9 199.1h.7l-1.6 5.3h-.6l-1.2-4.2-1.2 4.2h-.6l-1.6-5.3h.7l1.2 4.1 1.2-4.1h.6l1.1 4.1 1.2-4.1zM151.7 202.6c0 1.1-.8 1.9-1.9 1.9s-1.9-.8-1.9-1.9.8-1.9 1.9-1.9 1.9.8 1.9 1.9zm-3.1 0c0 .8.5 1.4 1.3 1.4s1.2-.6 1.2-1.4-.5-1.4-1.2-1.4-1.3.6-1.3 1.4zM153.4 201.2c.3-.4.7-.6 1.1-.6s.7.1.9.3c.2.2.3.5.3 1v2.5h-.6V202c0-.5-.2-.8-.7-.8s-.5.1-.7.3c-.2.2-.2.4-.2.7v2.2h-.6v-5.3h.6v2.2zM157.6 200.7v.5c.3-.4.6-.6 1.1-.6s.6.1.9.3c.2.2.3.5.3 1v2.5h-.6V202c0-.3 0-.5-.1-.6-.1-.2-.3-.2-.6-.2s-.5.1-.7.3c-.2.2-.2.4-.2.7v2.2h-.6v-3.7h.6zM161.6 202.8c0 .3 0 .5.2.7.2.3.6.5 1 .5s.9-.2 1.1-.6l.5.2c-.3.6-.9 1-1.6 1-1.1 0-1.9-.8-1.9-1.9s.8-1.9 1.9-1.9 1.9.8 1.9 1.9v.2h-3.1zm2.4-.4c0-.3 0-.4-.2-.6-.2-.3-.6-.5-1-.5s-.8.2-1 .5c-.1.2-.2.3-.2.6h2.4zM166.3 200.7v.5c.3-.4.6-.6 1.1-.6s.6.1.9.3c.2.2.3.5.3 1v2.5h-.6V202c0-.3 0-.5-.1-.6-.1-.2-.3-.2-.6-.2s-.5.1-.7.3c-.2.2-.2.4-.2.7v2.2h-.6v-3.7h.6zM141.3 208.7v-.6h3l-1.6 2c.9 0 1.6.7 1.6 1.6s-.8 1.7-1.8 1.7-1.4-.5-1.6-1.3h.6c.1.4.5.7 1 .7s1.2-.5 1.2-1.1-.5-1.1-1.2-1.1-.4 0-.6.2l-.3-.2 1.5-1.9h-1.9zM148.2 210.9c.3.3.4.6.4 1 0 .9-.7 1.6-1.7 1.6s-1.6-.6-1.6-1.6.1-.8.4-1.1c.2-.2.3-.3.6-.4-.3 0-.4-.2-.5-.4-.2-.2-.3-.5-.3-.8 0-.8.6-1.3 1.5-1.3s1.4.6 1.4 1.3-.1.6-.3.8c-.1.2-.3.2-.5.3.3 0 .4.2.6.3zm-2.3 1c0 .6.5 1 1 1s1-.5 1-1-.5-1-1-1-1 .5-1 1zm.2-2.5c0 .5.4.8.8.8s.9-.4.9-.8-.4-.8-.8-.8-.9.3-.9.8zM150.5 213.1c0 .2-.2.4-.4.4s-.4-.2-.4-.4.2-.4.4-.4.4.2.4.4zM151.4 212.2v-.5l2.8-3.7v3.6h.6v.6h-.6v1.2h-.6v-1.2h-2.1zm2.1-2.6l-1.5 2h1.5v-2zM158 209.7v.5c.3-.4.6-.6 1-.6s.8.2 1 .7c.3-.5.6-.7 1.2-.7s.7.1.9.4c.2.2.2.4.2 1v2.4h-.6v-2.2c0-.4 0-.6-.1-.7-.1-.2-.4-.3-.6-.3-.5 0-.8.4-.8 1v2.2h-.6v-2.2c0-.4 0-.5-.1-.7-.1-.2-.3-.3-.6-.3-.5 0-.9.4-.9 1v2.2h-.6v-3.7h.6zM165.6 210.9v.4h-2l1.2-1.6c.3-.5.4-.6.4-.8 0-.3-.2-.4-.5-.4s-.5.2-.5.6h-.4c0-.6.4-1 1-1s1 .3 1 .8-.1.5-.4.9l-.8 1.1h1.1z"/><g><path d="M249.6 301.3v.6h-3.8l3-4.8h-2.7v-.6h3.8l-3 4.8h2.7zM251.4 297.1c0 .2-.2.4-.4.4s-.4-.2-.4-.4.2-.4.4-.4.4.2.4.4zm0 4.7h-.6v-3.7h.6v3.7zM253.3 298.1v.5c.3-.4.6-.6 1-.6s.8.2 1 .7c.3-.5.6-.7 1.2-.7s.7.1.9.4c.2.2.2.4.2 1v2.4h-.6v-2.2c0-.4 0-.6-.1-.7-.1-.2-.4-.3-.6-.3-.5 0-.8.4-.8 1v2.2h-.6v-2.2c0-.4 0-.5-.1-.7-.1-.2-.3-.3-.6-.3-.5 0-.9.4-.9 1v2.2h-.6v-3.7h.6zM259.6 298.1v.5c.3-.4.6-.6 1-.6s.8.2 1 .7c.3-.5.6-.7 1.2-.7s.7.1.9.4c.2.2.2.4.2 1v2.4h-.6v-2.2c0-.4 0-.6-.1-.7-.1-.2-.4-.3-.6-.3-.5 0-.8.4-.8 1v2.2h-.6v-2.2c0-.4 0-.5-.1-.7-.1-.2-.3-.3-.6-.3-.5 0-.9.4-.9 1v2.2h-.6v-3.7h.6zM265.7 300.2c0 .3 0 .5.2.7.2.3.6.5 1 .5s.9-.2 1.1-.6l.5.2c-.3.6-.9 1-1.6 1-1.1 0-1.9-.8-1.9-1.9s.8-1.9 1.9-1.9 1.9.8 1.9 1.9v.2h-3.1zm2.4-.4c0-.3 0-.4-.2-.6-.2-.3-.6-.5-1-.5s-.8.2-1 .5c-.1.2-.2.3-.2.6h2.4zM270.5 298.1v.6c.1-.3.2-.4.3-.5.2-.1.4-.2.7-.2h.1v.6h-.2c-.3 0-.6.2-.8.4-.2.2-.2.4-.2.9v1.9h-.6v-3.7h.6zM246.6 307.2v-.6l1.8-1.2v5.4h-.6v-4.4l-1.2.8zM252.8 310.2v.6h-3l1.9-2.7c.5-.8.7-1 .7-1.3 0-.5-.4-.8-.9-.8s-.7.2-.8.4v.6h-.6c0-1 .6-1.6 1.5-1.6s1.5.5 1.5 1.3-.2.8-.6 1.5l-1.4 2h1.9zM254.9 310.5c0 .2-.2.4-.4.4s-.4-.2-.4-.4.2-.4.4-.4.4.2.4.4zM255.8 309.6v-.5l2.8-3.7v3.6h.6v.6h-.6v1.2h-.6v-1.2h-2.1zm2.1-2.6l-1.5 2h1.5v-2zM262.4 307.1v.5c.3-.4.6-.6 1-.6s.8.2 1 .7c.3-.5.6-.7 1.2-.7s.7.1.9.4c.2.2.2.4.2 1v2.4h-.6v-2.2c0-.4 0-.6-.1-.7-.1-.2-.4-.3-.6-.3-.5 0-.8.4-.8 1v2.2h-.6v-2.2c0-.4 0-.5-.1-.7-.1-.2-.3-.3-.6-.3-.5 0-.9.4-.9 1v2.2h-.6v-3.7h.6zM270 308.3v.4h-2l1.2-1.6c.3-.5.4-.6.4-.8 0-.3-.2-.4-.5-.4s-.5.2-.5.6h-.4c0-.6.4-1 1-1s1 .3 1 .8-.1.5-.4.9l-.8 1.1h1.1z"/></g><g><path d="M243 101.7v.6h-3.8l3-4.8h-2.7v-.6h3.8l-3 4.8h2.7zM244.9 97.6c0 .2-.2.4-.4.4s-.4-.2-.4-.4.2-.4.4-.4.4.2.4.4zm0 4.7h-.6v-3.7h.6v3.7zM246.7 98.6v.5c.3-.4.6-.6 1-.6s.8.2 1 .7c.3-.5.6-.7 1.2-.7s.7.1.9.4c.2.2.2.4.2 1v2.4h-.6v-2.2c0-.4 0-.6-.1-.7-.1-.2-.4-.3-.6-.3-.5 0-.8.4-.8 1v2.2h-.6v-2.2c0-.4 0-.5-.1-.7-.1-.2-.3-.3-.6-.3-.5 0-.9.4-.9 1v2.2h-.6v-3.7h.6zM253.1 98.6v.5c.3-.4.6-.6 1-.6s.8.2 1 .7c.3-.5.6-.7 1.2-.7s.7.1.9.4c.2.2.2.4.2 1v2.4h-.6v-2.2c0-.4 0-.6-.1-.7-.1-.2-.4-.3-.6-.3-.5 0-.8.4-.8 1v2.2h-.6v-2.2c0-.4 0-.5-.1-.7-.1-.2-.3-.3-.6-.3-.5 0-.9.4-.9 1v2.2h-.6v-3.7h.6zM259.2 100.7c0 .3 0 .5.2.7.2.3.6.5 1 .5s.9-.2 1.1-.6l.5.2c-.3.6-.9 1-1.6 1-1.1 0-1.9-.8-1.9-1.9s.8-1.9 1.9-1.9 1.9.8 1.9 1.9v.2h-3.1zm2.4-.4c0-.3 0-.4-.2-.6-.2-.3-.6-.5-1-.5s-.8.2-1 .5c-.1.2-.2.3-.2.6h2.4zM263.9 98.6v.6c.1-.3.2-.4.3-.5.2-.1.4-.2.7-.2h.1v.6h-.2c-.3 0-.6.2-.8.4-.2.2-.2.4-.2.9v1.9h-.6v-3.7h.6zM240 107.7v-.6l1.8-1.2v5.4h-.6v-4.4l-1.2.8zM243.2 110.1v-.5l2.8-3.7v3.6h.6v.6h-.6v1.2h-.6v-1.2h-2.1zm2.1-2.6l-1.5 2h1.5v-2zM248.4 111c0 .2-.2.4-.4.4s-.4-.2-.4-.4.2-.4.4-.4.4.2.4.4zM252.7 109.7c0 .6-.1 1-.4 1.2-.3.3-.7.4-1.2.4s-1-.2-1.2-.5c-.3-.3-.4-.6-.4-1.4v-1.8c0-.7 0-1 .3-1.3.3-.3.7-.5 1.2-.5s.9.1 1.2.4c.3.3.4.6.4 1.2v2.1zm-2.5-.1c0 .6 0 .7.2.9.2.2.5.3.8.3s.6-.1.8-.4c.1-.2.2-.4.2-.8v-2c0-.4 0-.6-.3-.8-.2-.2-.4-.2-.7-.2s-.6.1-.8.4c-.1.2-.2.4-.2.8v1.8zM256 107.6v.5c.3-.4.6-.6 1-.6s.8.2 1 .7c.3-.5.6-.7 1.2-.7s.7.1.9.4c.2.2.2.4.2 1v2.4h-.6v-2.2c0-.4 0-.6-.1-.7-.1-.2-.4-.3-.6-.3-.5 0-.8.4-.8 1v2.2h-.6v-2.2c0-.4 0-.5-.1-.7-.1-.2-.3-.3-.6-.3-.5 0-.9.4-.9 1v2.2h-.6v-3.7h.6zM263.6 108.8v.4h-2l1.2-1.6c.3-.5.4-.6.4-.8 0-.3-.2-.4-.5-.4s-.5.2-.5.6h-.4c0-.6.4-1 1-1s1 .3 1 .8-.1.5-.4.9l-.8 1.1h1.1z"/></g><g><path d="M246.4 218.4c1.1 0 1.7.5 1.7 1.4s-.1.6-.3.9c-.1.2-.3.2-.5.3.3 0 .4.1.6.2.3.2.4.6.4 1s-.2.9-.6 1.2c-.3.2-.7.3-1.3.3h-1.5v-5.3h1.5zm-.8 2.4h.7c.4 0 .7 0 .9-.2.2-.2.3-.4.3-.7s-.2-.6-.4-.8c-.2 0-.4-.1-.9-.1h-.6v1.8zm0 2.4h.7c.6 0 .8 0 1-.2.3-.1.4-.4.4-.8 0-.6-.4-.9-1.2-.9h-.8v1.8zM252.3 220h.6v3.7h-.6v-.7c-.4.6-.8.8-1.3.8-1 0-1.7-.8-1.7-1.9s.7-1.9 1.8-1.9 1 .2 1.3.7v-.6zm-2.1.9c-.2.3-.3.6-.3 1 0 .8.5 1.4 1.2 1.4s1.3-.6 1.3-1.4-.5-1.4-1.2-1.4-.7.1-.9.4zM257.1 218.4h.6v5.3h-.6v-.6c-.4.5-.8.7-1.3.7-1 0-1.7-.8-1.7-1.9s.7-2 1.7-2 1 .2 1.3.6v-2.2zm-2.4 3.5c0 .8.5 1.4 1.2 1.4s1.2-.6 1.2-1.4-.5-1.4-1.2-1.4-1.2.6-1.2 1.4zM247.2 228h-1.7v1.4c.3-.1.5-.2.8-.2.9 0 1.6.7 1.6 1.7s-.8 1.8-1.8 1.8-1.3-.4-1.6-1.1l.6-.2c.1.2.2.3.3.4.2.2.5.3.8.3.6 0 1.1-.5 1.1-1.2s-.5-1.1-1.2-1.1-.8.2-1.2.5v-3h2.3v.6zM249.7 232.3c0 .2-.2.4-.4.4s-.4-.2-.4-.4.2-.4.4-.4.4.2.4.4zM254.1 231.1c0 .6-.1 1-.4 1.2-.3.3-.7.4-1.2.4s-1-.2-1.2-.5c-.3-.3-.4-.6-.4-1.4V229c0-.7 0-1 .3-1.3.3-.3.7-.5 1.2-.5s.9.1 1.2.4c.3.3.4.6.4 1.2v2.1zm-2.5-.1c0 .6 0 .7.2.9.2.2.5.3.8.3s.6-.1.8-.4c.1-.2.2-.4.2-.8v-2c0-.4 0-.6-.3-.8-.2-.2-.4-.2-.7-.2s-.6.1-.8.4c-.1.2-.2.4-.2.8v1.8zM257.4 229v.5c.3-.4.6-.6 1-.6s.8.2 1 .7c.3-.5.6-.7 1.2-.7s.7.1.9.4c.2.2.2.4.2 1v2.4h-.6v-2.2c0-.4 0-.6-.1-.7-.1-.2-.4-.3-.6-.3-.5 0-.8.4-.8 1v2.2h-.6v-2.2c0-.4 0-.5-.1-.7-.1-.2-.3-.3-.6-.3-.5 0-.9.4-.9 1v2.2h-.6V229h.6zM265 230.2v.4h-2l1.2-1.6c.3-.5.4-.6.4-.8 0-.3-.2-.4-.5-.4s-.5.2-.5.6h-.4c0-.6.4-1 1-1s1 .3 1 .8-.1.5-.4.9l-.8 1.1h1.1z"/></g><g><path d="M64.1 246.2v.6h-2.5v-5.3h.7v4.7h1.9zM65.8 242.1c0 .2-.2.4-.4.4s-.4-.2-.4-.4.2-.4.4-.4.4.2.4.4zm0 4.7h-.6v-3.7h.6v3.7zM67.7 246.8h-.6v-3.2h-.5v-.5h.5v-.5c0-.7.4-1.2 1-1.2h.2v.5c-.4 0-.6.2-.6.6v.5h.6v.5h-.6v3.2zM70.1 246.1c0 .2 0 .2.3.2h.3v.5h-.6c-.4 0-.6-.2-.6-.6v-2.6H69v-.5h.5v-1.2h.6v1.2h.6v.5h-.6v2.4z"/></g><g><path d="M131.8 8.9c1.1 0 1.7.5 1.7 1.4s-.1.6-.3.9c-.1.2-.3.2-.5.3.3 0 .4.1.6.2.3.2.4.6.4 1s-.2.9-.6 1.2c-.3.2-.7.3-1.3.3h-1.5V8.9h1.5zm-.8 2.4h.7c.4 0 .7 0 .9-.2.2-.2.3-.4.3-.7s-.2-.6-.4-.8c-.2 0-.4-.1-.9-.1h-.6v1.8zm0 2.4h.7c.6 0 .8 0 1-.2.3-.1.4-.4.4-.8 0-.6-.4-.9-1.2-.9h-.8v1.8zM137.7 10.5h.6v3.7h-.6v-.7c-.4.6-.8.8-1.3.8-1 0-1.7-.8-1.7-1.9s.7-1.9 1.8-1.9 1 .2 1.3.7v-.6zm-2.1.9c-.2.3-.3.6-.3 1 0 .8.5 1.4 1.2 1.4s1.3-.6 1.3-1.4-.5-1.4-1.2-1.4-.7.1-.9.4zM139.7 14.2V8.9h.6v5.3h-.6zM142.2 14.2h-.6V8.9h.6v3.3l1.5-1.6h.8l-1.6 1.8 1.6 1.9h-.8l-1.5-1.6v1.6zM148.7 12.4c0 1.1-.8 1.9-1.9 1.9s-1.9-.8-1.9-1.9.8-1.9 1.9-1.9 1.9.8 1.9 1.9zm-3.1 0c0 .8.5 1.4 1.3 1.4s1.2-.6 1.2-1.4-.5-1.4-1.2-1.4-1.3.6-1.3 1.4zM150.4 10.5v.5c.3-.4.6-.6 1.1-.6s.6.1.9.3c.2.2.3.5.3 1v2.5h-.6v-2.4c0-.3 0-.5-.1-.6-.1-.2-.3-.2-.6-.2s-.5.1-.7.3c-.2.2-.2.4-.2.7v2.2h-.6v-3.7h.6zM131.3 20.1c.2 0 .3-.1.5-.1.9 0 1.6.7 1.6 1.6s-.8 1.7-1.7 1.7-1.7-.8-1.7-1.7.1-.7.4-1.2l1.5-2.5h.7l-1.4 2.1zm-.7 1.5c0 .6.5 1.1 1.1 1.1s1.1-.5 1.1-1.1-.5-1.1-1.1-1.1-1.1.5-1.1 1.1zM135.2 22.8c0 .2-.2.4-.4.4s-.4-.2-.4-.4.2-.4.4-.4.4.2.4.4zM139.5 21.6c0 .6-.1 1-.4 1.2-.3.3-.7.4-1.2.4s-1-.2-1.2-.5c-.3-.3-.4-.6-.4-1.4v-1.8c0-.7 0-1 .3-1.3.3-.3.7-.5 1.2-.5s.9.1 1.2.4c.3.3.4.6.4 1.2v2.1zm-2.5-.1c0 .6 0 .7.2.9.2.2.5.3.8.3s.6-.1.8-.4c.1-.2.2-.4.2-.8v-2c0-.4 0-.6-.3-.8-.2-.2-.4-.2-.7-.2s-.6.1-.8.4c-.1.2-.2.4-.2.8v1.8zM142.8 19.5v.5c.3-.4.6-.6 1-.6s.8.2 1 .7c.3-.5.6-.7 1.2-.7s.7.1.9.4c.2.2.2.4.2 1v2.4h-.6V21c0-.4 0-.6-.1-.7-.1-.2-.4-.3-.6-.3-.5 0-.8.4-.8 1v2.2h-.6V21c0-.4 0-.5-.1-.7-.1-.2-.3-.3-.6-.3-.5 0-.9.4-.9 1v2.2h-.6v-3.7h.6zM150.4 20.7v.4h-2l1.2-1.6c.3-.5.4-.6.4-.8 0-.3-.2-.4-.5-.4s-.5.2-.5.6h-.4c0-.6.4-1 1-1s1 .3 1 .8-.1.5-.4.9l-.8 1.1h1.1z"/></g></g></svg>