<svg xmlns="http://www.w3.org/2000/svg" viewBox="0 0 368.9 398.9"><defs><style>.cls-1{stroke-dasharray:0 0 0 0 2.9 1.4 .2 1.4}.cls-1,.cls-2,.cls-3,.cls-4,.cls-5,.cls-6{fill:none}.cls-1,.cls-2,.cls-6{stroke:#194164;stroke-width:.3px}.cls-1,.cls-3,.cls-4,.cls-5,.cls-6{stroke-linecap:round;stroke-linejoin:round}.cls-2{stroke-miterlimit:10}.cls-7,.cls-8{fill:#fff}.cls-3{stroke-dasharray:0 0 1.4 1.4}.cls-3,.cls-5{stroke:#969696;stroke-width:.1px}.cls-4{stroke:#000;stroke-width:.3px}.cls-8,.cls-9{fill-rule:evenodd}</style></defs><g id="Plan"><path class="cls-5" d="M19.6 60.6h59.3v3.6H19.6z"/><path class="cls-6" d="M249.5 157.3h17v.5h-17z"/><path class="cls-6" d="M249.5 142h.5v15.4h-.5zM265.8 142h.7v15.4h-.7zM247.6 157.3h1.9v.5h-1.9zM249.5 141.5h17v.5h-17zM266.5 157.3h1.7v.5h-1.7z"/><path class="cls-8" d="M245.5 121c-.9 1.3-.9 3 0 4.3 1.5 1.9 3.8 2.9 6.2 2.9l9-.3v-9.6l-9-.3c-2.4 0-4.7 1-6.2 2.9"/><path class="cls-6" d="M245.5 121c-.9 1.3-.9 3 0 4.3 1.5 1.9 3.8 2.9 6.2 2.9l9-.3v-9.6l-9-.3c-2.4 0-4.7 1-6.2 2.9"/><path class="cls-8" d="M255.7 123.2c0-1-.3-2-1.1-2.8-.7-.7-1.7-1.2-2.7-1.2-2.1 0-4.1.9-5.4 2.5-.6.9-.6 2 0 2.9 1.3 1.6 3.3 2.5 5.4 2.5 1 0 2-.4 2.7-1.2.7-.7 1.1-1.8 1.1-2.8"/><path class="cls-6" d="M255.7 123.2c0-1-.3-2-1.1-2.8-.7-.7-1.7-1.2-2.7-1.2-2.1 0-4.1.9-5.4 2.5-.6.9-.6 2 0 2.9 1.3 1.6 3.3 2.5 5.4 2.5 1 0 2-.4 2.7-1.2.7-.7 1.1-1.8 1.1-2.8"/><path class="cls-8" d="M260.3 71.9h-48.1l-.1.1-.1.1v20.8h.1v.1l.1.1H260.6V93l.1-.1.1-.1V72.2l-.1-.1V72h-.1v-.1H260.3"/><path class="cls-6" d="M260.3 71.9h-48.1l-.1.1-.1.1v20.8h.1v.1l.1.1H260.6V93l.1-.1.1-.1V72.2l-.1-.1V72h-.1v-.1H260.3"/><path class="cls-8" d="M255.1 74h-37.4c-.4 0-.9 0-1.3.3-.4.2-.8.4-1.1.7-.3.3-.6.7-.7 1.1-.2.4-.3.9-.3 1.3v10.2c0 .4 0 .9.3 1.3.2.4.4.8.7 1.1.3.3.7.6 1.1.7.4.2.9.3 1.3.3h37.4c.4 0 .9 0 1.3-.3.4-.2.8-.4 1.1-.7.3-.3.6-.7.7-1.1.2-.4.3-.9.3-1.3V77.4c0-.4 0-.9-.3-1.3-.2-.4-.4-.8-.7-1.1-.3-.3-.7-.6-1.1-.7-.4-.2-.9-.3-1.3-.3"/><path class="cls-6" d="M255.1 74h-37.4c-.4 0-.9 0-1.3.3-.4.2-.8.4-1.1.7-.3.3-.6.7-.7 1.1-.2.4-.3.9-.3 1.3v10.2c0 .4 0 .9.3 1.3.2.4.4.8.7 1.1.3.3.7.6 1.1.7.4.2.9.3 1.3.3h37.4c.4 0 .9 0 1.3-.3.4-.2.8-.4 1.1-.7.3-.3.6-.7.7-1.1.2-.4.3-.9.3-1.3V77.4c0-.4 0-.9-.3-1.3-.2-.4-.4-.8-.7-1.1-.3-.3-.7-.6-1.1-.7-.4-.2-.9-.3-1.3-.3M261.5 136.2v-20.9"/><path class="cls-4" d="M260.8 136.2v-21.6"/><path class="cls-6" d="M262.9 136.2v-19.4M261.5 136.2v-20.9M260.8 136.2v-21.6M262.9 136.2v-19.4M265.3 115.3V96.9"/><path class="cls-4" d="M264.6 114.6v-17"/><path class="cls-6" d="M266.8 116.8V95.7M265.3 115.3V96.9M264.6 114.6v-17M266.8 116.8V95.7M261.5 96.9V71.7"/><path class="cls-4" d="M260.8 97.6V71.7"/><path class="cls-6" d="M262.9 95.7v-24M261.5 96.9V71.7M260.8 97.6V71.7M262.9 95.7v-24"/><path class="cls-8" d="M260.8 98.4h-12.4c-.1 0-.3.1-.4.2-.1.1-.2.2-.2.4V113.1c0 .1.1.3.2.4.1.1.2.2.4.2h12.4V98.1"/><path class="cls-6" d="M260.8 98.4h-12.4c-.1 0-.3.1-.4.2-.1.1-.2.2-.2.4V113.1c0 .1.1.3.2.4.1.1.2.2.4.2h12.4V98.1M260.8 114.6h3.8M264.6 114.6v-17M264.6 97.6h-3.8M265.3 96.9h-3.8"/><path class="cls-4" d="M264.6 97.6h-3.8"/><path class="cls-6" d="M266.8 95.7h-3.9M265.3 96.9h-3.8M264.6 97.6h-3.8M266.8 95.7h-3.9M261.5 115.3h3.8"/><path class="cls-4" d="M260.8 114.6h3.8"/><path class="cls-6" d="M262.9 116.8h3.9M261.5 115.3h3.8M260.8 114.6h3.8M262.9 116.8h3.9"/><path class="cls-4" d="M260.8 114.6v-17"/><path class="cls-9" d="M239.2 71.7V56.8h29.5v14.9h-29.5"/><path class="cls-8" d="M239.2 56.8v3.3h29.5v-3.3h-29.5"/><path class="cls-5" d="M239.4 58.2l1.9 1.9M241.8 56.8l3.4 3.3M245.9 56.8l3.4 3.3M250 56.8l3.3 3.3M254.1 56.8l3.3 3.3M257.9 56.8l3.4 3.3M262 56.8l3.3 3.3M266.1 56.8l2.8 2.9"/><path class="cls-8" d="M239.2 60.1v.8h29.5v-.8h-29.5M239.2 60.9v5.5h29.5v-5.5h-29.5"/><path class="cls-5" d="M268 66.4v-5.5M266.5 66.4v-5.5M265.1 66.4v-5.5M263.7 66.4v-5.5M262.2 66.4v-5.5M261 66.4v-5.5M259.6 66.4v-5.5M258.1 66.4v-5.5M256.7 66.4v-5.5M255.3 66.4v-5.5M253.8 66.4v-5.5M252.4 66.4v-5.5M250.9 66.4v-5.5M249.5 66.4v-5.5M248.1 66.4v-5.5M246.6 66.4v-5.5M245.4 66.4v-5.5M244 66.4v-5.5M242.5 66.4v-5.5M241.1 66.4v-5.5M239.7 66.4v-5.5"/><path class="cls-8" d="M239.2 66.4v5.3h29.5v-5.3h-29.5"/><path class="cls-5" d="M239.4 70.2l1.5 1.5M239.4 66.4l5.3 5.3M243.5 66.4l5.3 5.3M247.6 66.4l5.3 5.3M251.4 66.4l5.3 5.3M255.5 66.4l5.3 5.3M259.6 66.4l5.3 5.3M263.7 66.4l5.2 5.3M267.5 66.4l1.4 1.2M239.2 66.4h29.5M239.2 60.9h29.5"/><path class="cls-6" d="M239.2 56.8h29.5M239.2 71.7h29.5"/><path class="cls-9" d="M172.7 71.7V56.8h47.8v14.9h-47.8"/><path class="cls-8" d="M172.7 56.8v3.3h47.8v-3.3h-47.8"/><path class="cls-5" d="M172.9 59.9l.3.2M173.9 56.8l3.4 3.3M177.7 56.8l3.4 3.3M181.8 56.8l3.4 3.3M185.9 56.8l3.4 3.3M189.7 56.8l3.4 3.3M193.8 56.8l3.4 3.3M197.9 56.8l3.4 3.3M201.7 56.8l3.4 3.3M205.8 56.8l3.4 3.3M209.9 56.8l3.4 3.3M214 56.8l3.3 3.3M217.8 56.8l2.9 2.6"/><path class="cls-8" d="M172.7 60.1v.8h47.8v-.8h-47.8M172.7 60.9v5.5h47.8v-5.5h-47.8"/><path class="cls-5" d="M219.7 66.4v-5.5M218.3 66.4v-5.5M216.9 66.4v-5.5M215.7 66.4v-5.5M214.2 66.4v-5.5M212.8 66.4v-5.5M211.3 66.4v-5.5M209.9 66.4v-5.5M208.5 66.4v-5.5M207 66.4v-5.5M205.6 66.4v-5.5M204.1 66.4v-5.5M202.7 66.4v-5.5M201.3 66.4v-5.5M200.1 66.4v-5.5M198.6 66.4v-5.5M197.2 66.4v-5.5M195.7 66.4v-5.5M194.3 66.4v-5.5M192.9 66.4v-5.5M191.4 66.4v-5.5M190 66.4v-5.5M188.5 66.4v-5.5M187.1 66.4v-5.5M185.9 66.4v-5.5M184.5 66.4v-5.5M183 66.4v-5.5M181.6 66.4v-5.5M180.1 66.4v-5.5M178.7 66.4v-5.5M177.3 66.4v-5.5M175.8 66.4v-5.5M174.4 66.4v-5.5M172.9 66.4v-5.5"/><path class="cls-8" d="M172.7 66.4v5.3h47.8v-5.3h-47.8"/><path class="cls-5" d="M172.9 67.8l3.6 3.9M175.3 66.4l5.3 5.3M179.4 66.4l5.3 5.3M183.5 66.4l5.3 5.3M187.3 66.4l5.3 5.3M191.4 66.4l5.3 5.3M195.5 66.4l5.3 5.3M199.3 66.4l5.3 5.3M203.4 66.4l5.3 5.3M207.5 66.4l5.3 5.3M211.3 66.4l5.3 5.3M215.4 66.4l5.3 5M219.5 66.4l1.2 1.2M172.7 66.4h47.8M172.7 60.9h47.8"/><path class="cls-6" d="M172.7 56.8h47.8M172.7 71.7h47.8"/><path class="cls-9" d="M80.5 71.7V56.8h51.4v14.9H80.5"/><path class="cls-8" d="M80.5 56.8v3.3h51.4v-3.3H80.5"/><path class="cls-5" d="M80.8 59.9l.2.2M81.5 56.8l3.4 3.3M85.6 56.8l3.3 3.3M89.7 56.8l3.3 3.3M93.5 56.8l3.4 3.3M97.6 56.8l3.3 3.3M101.7 56.8l3.3 3.3M105.7 56.8l3.4 3.3M109.6 56.8l3.3 3.3M113.7 56.8l3.3 3.3M117.7 56.8l3.4 3.3M121.6 56.8l3.3 3.3M125.7 56.8l3.3 3.3M129.7 56.8l2.4 2.4"/><path class="cls-8" d="M80.5 60.1v.8h51.4v-.8H80.5M80.5 60.9v5.5h51.4v-5.5H80.5"/><path class="cls-5" d="M131.9 66.4v-5.5M130.5 66.4v-5.5M129 66.4v-5.5M127.6 66.4v-5.5M126.1 66.4v-5.5M124.9 66.4v-5.5M123.5 66.4v-5.5M122.1 66.4v-5.5M120.6 66.4v-5.5M119.2 66.4v-5.5M117.7 66.4v-5.5M116.3 66.4v-5.5M114.9 66.4v-5.5M113.4 66.4v-5.5M112 66.4v-5.5M110.8 66.4v-5.5M109.3 66.4v-5.5M107.9 66.4v-5.5M106.5 66.4v-5.5M105 66.4v-5.5M103.6 66.4v-5.5M102.1 66.4v-5.5M100.7 66.4v-5.5M99.3 66.4v-5.5M97.8 66.4v-5.5M96.4 66.4v-5.5M95.2 66.4v-5.5M93.7 66.4v-5.5M92.3 66.4v-5.5M90.9 66.4v-5.5M89.4 66.4v-5.5M88 66.4v-5.5M86.5 66.4v-5.5M85.1 66.4v-5.5M83.7 66.4v-5.5M82.2 66.4v-5.5M81 66.4v-5.5"/><path class="cls-8" d="M80.5 66.4v5.3h51.4v-5.3H80.5"/><path class="cls-5" d="M80.8 67.8l3.6 3.9M83.2 66.4l5.3 5.3M87.3 66.4l5.2 5.3M91.1 66.4l5.3 5.3M95.2 66.4l5.3 5.3M99.3 66.4l5.2 5.3M103.1 66.4l5.3 5.3M107.2 66.4l5.3 5.3M111.3 66.4l5.2 5.3M115.3 66.4l5.3 5.3M119.2 66.4l5.3 5.3M123.3 66.4l5.2 5.3M127.3 66.4l4.8 4.8M131.2 66.4l.9.7M80.5 66.4h51.4M80.5 60.9h51.4"/><path class="cls-6" d="M80.5 56.8h51.4M80.5 71.7h51.4"/><path class="cls-9" d="M.1 71.7V56.8h17.6v14.9H.1"/><path class="cls-8" d="M.1 56.8v3.3h17.6v-3.3H.1"/><path class="cls-5" d="M.4 59.7l.5.4M1.3 56.8l3.4 3.3M5.4 56.8l3.4 3.3M9.5 56.8l3.4 3.3M13.3 56.8l3.4 3.3M17.4 56.8l.5.2"/><path class="cls-8" d="M.1 60.1v.8h17.6v-.8H.1M.1 60.9v5.5h17.6v-5.5H.1"/><path class="cls-5" d="M17.2 66.4v-5.5M15.7 66.4v-5.5M14.3 66.4v-5.5M12.9 66.4v-5.5M11.4 66.4v-5.5M10 66.4v-5.5M8.5 66.4v-5.5M7.1 66.4v-5.5M5.9 66.4v-5.5M4.5 66.4v-5.5M3 66.4v-5.5M1.6 66.4v-5.5"/><path class="cls-8" d="M.1 66.4v5.3h17.6v-5.3H.1"/><path class="cls-5" d="M.4 67.6l3.8 4.1M3 66.4l5.3 5.3M7.1 66.4l5.3 5.3M10.9 66.4l5.3 5.3M15 66.4l2.9 2.9M.1 66.4h17.6M.1 60.9h17.6"/><path class="cls-6" d="M.1 56.8h17.6M.1 71.7h17.6"/><path class="cls-1" d="M17.7 71.7h62.8"/><path class="cls-6" d="M17.7 64.2h62.9v2.2H17.7zM21.3 64.2v2.2M76.9 64.2v2.2M17.7 66.4v-2.2M36.6 66.4v-2.2M21.3 66.4v-2.2M40.7 66.4v-2.2M36.6 66.4v-2.2M57.5 66.4v-2.2M40.7 66.4v-2.2M61.8 66.4v-2.2M57.5 66.4v-2.2M76.9 66.4v-2.2M61.8 66.4v-2.2M80.5 66.4v-2.2M82.2 56.8v-1.7"/><path class="cls-1" d="M82.2 55.1h-66"/><path class="cls-6" d="M16.2 55.1v1.2"/><path class="cls-8" d="M17.7 60.8h1.8v3.4h-1.8"/><path class="cls-5" d="M18.6 64.2v-3.3M17.7 60.8h1.8v3.4h-1.8"/><path class="cls-8" d="M17.7 56.8h1.9v3.3h-1.9"/><path class="cls-5" d="M17.9 57l1.9 1.9"/><path class="cls-6" d="M19.6 60.1v4.1"/><path class="cls-8" d="M80.6 60.8h-1.8v3.4h1.8"/><path class="cls-5" d="M79.6 64.2v-3.3M80.6 60.8h-1.8v3.4h1.8"/><path class="cls-8" d="M80.5 56.8h-1.6v3.3h1.6"/><path class="cls-5" d="M79.1 58.2l1.7 1.7"/><path class="cls-6" d="M78.9 60.1v4.1M133.8 64.2v-7.4h-3.3v-1.7h43.9v1.7H171v7.4"/><path class="cls-1" d="M131.9 71.7h40.8"/><path class="cls-6" d="M172.2 71.7h.5M131.9 64.2h40.8v2.2h-40.8zM135.5 64.2v2.2M169.1 64.2v2.2M131.9 66.4v-2.2M150.4 66.4v-2.2M135.5 66.4v-2.2M154.5 66.4v-2.2M150.4 66.4v-2.2M169.1 66.4v-2.2M154.5 66.4v-2.2M172.7 66.4v-2.2"/><path class="cls-8" d="M131.9 60.8h1.9v3.4h-1.9"/><path class="cls-5" d="M133.3 64.2v-3.3M131.9 60.8h1.9v3.4h-1.9"/><path class="cls-8" d="M131.9 56.8h1.9v3.3h-1.9"/><path class="cls-5" d="M132.1 59.2l1 .9M133.6 56.8l.5.2"/><path class="cls-6" d="M133.8 60.1v4.1"/><path class="cls-8" d="M172.7 60.8h-1.8v3.4h1.8"/><path class="cls-5" d="M171.5 64.2v-3.3M172.7 60.8h-1.8v3.4h1.8"/><path class="cls-8" d="M172.7 56.8H171v3.3h1.7"/><path class="cls-5" d="M171.3 58.2l1.6 1.7"/><path class="cls-6" d="M171 60.1v4.1M220.5 66.4v5.3h18.7v-5.3M222.1 64.2v-7.4h-3.3v-1.7h21.8v1.7h-3.3v7.4M222.1 56.8h15.2M220.5 64.2h18.7v2.2h-18.7zM224.1 64.2v2.2M235.3 64.2v2.2M220.5 66.4v-2.2M235.3 66.4v-2.2M224.1 66.4v-2.2M239.2 66.4v-2.2M222.1 60.1h7.7"/><path class="cls-8" d="M220.4 60.8h1.8v3.4h-1.8"/><path class="cls-5" d="M221.2 64.2v-3.3M220.4 60.8h1.8v3.4h-1.8"/><path class="cls-8" d="M220.5 56.8h1.6v3.3h-1.6"/><path class="cls-5" d="M220.7 59.4l.5.7M221.9 56.8l.5.5"/><path class="cls-6" d="M222.1 60.1v4.1M237.3 60.1h-7.5"/><path class="cls-8" d="M239.1 60.8h-1.9v3.4h1.9"/><path class="cls-5" d="M238.2 64.2v-3.3M239.1 60.8h-1.9v3.4h1.9"/><path class="cls-8" d="M239.2 56.8h-1.9v3.3h1.9"/><path class="cls-5" d="M238 56.8l1.4 1.4"/><path class="cls-6" d="M237.3 60.1v4.1"/><path class="cls-8" d="M368.3 217.1h-7.2v54.7l7.2 7.5v-62.2"/><path class="cls-5" d="M368.5 219.3l-2.4-2.2M368.5 223.3l-6.4-6.2M368.5 227.4l-7.2-7.2M368.5 231.3l-7.2-7.2M368.5 235.3l-7.2-7.2M368.5 239.4l-7.2-7.2M368.5 243.5l-7.2-7.2M368.5 247.3l-7.2-7.2M368.5 251.4l-7.2-7.2M368.5 255.5l-7.2-7.2M368.5 259.3l-7.2-7.2M368.5 263.4l-7.2-7.2M368.5 267.5l-7.2-7.2M368.5 271.3l-7.2-7.2M368.5 275.4l-7.2-7.2M367.1 277.8l1.4-1.4M365.2 275.9l3.3-3.4M363 273.7l5.5-5.2M361.3 271.6l7.2-7.2M361.3 267.7l7.2-7.2M361.3 263.7l7.2-7.2M361.3 259.6l7.2-7.2M361.3 255.7l7.2-7.2M361.3 251.7l7.2-7.2M361.3 247.6l7.2-7.2M361.3 243.5l7.2-7.2M361.3 239.7l7.2-7.2M361.3 235.6l7.2-7.2M361.3 231.5l7.2-7.2M361.3 227.7l7.2-7.2M361.3 223.6l6.3-6.5M361.3 219.5l2.4-2.4"/><path class="cls-8" d="M368.3 217.1h-7.2v54.7l7.2 7.5v-62.2"/><path class="cls-5" d="M368.5 219.3l-2.4-2.2M368.5 223.3l-6.4-6.2M368.5 227.4l-7.2-7.2M368.5 231.3l-7.2-7.2M368.5 235.3l-7.2-7.2M368.5 239.4l-7.2-7.2M368.5 243.5l-7.2-7.2M368.5 247.3l-7.2-7.2M368.5 251.4l-7.2-7.2M368.5 255.5l-7.2-7.2M368.5 259.3l-7.2-7.2M368.5 263.4l-7.2-7.2M368.5 267.5l-7.2-7.2M368.5 271.3l-7.2-7.2M368.5 275.4l-7.2-7.2M367.1 277.8l1.4-1.4M365.2 275.9l3.3-3.4M363 273.7l5.5-5.2M361.3 271.6l7.2-7.2M361.3 267.7l7.2-7.2M361.3 263.7l7.2-7.2M361.3 259.6l7.2-7.2M361.3 255.7l7.2-7.2M361.3 251.7l7.2-7.2M361.3 247.6l7.2-7.2M361.3 243.5l7.2-7.2M361.3 239.7l7.2-7.2M361.3 235.6l7.2-7.2M361.3 231.5l7.2-7.2M361.3 227.7l7.2-7.2M361.3 223.6l6.3-6.5M361.3 219.5l2.4-2.4"/><path class="cls-8" d="M368.3 66.4l-7.2 5.3v105.6h7.2V66.4"/><path class="cls-5" d="M368.5 67.1l-.4-.5M368.5 70.9l-2.8-2.6M368.5 75l-5-5M368.5 79.1l-7.2-7.2M368.5 82.9l-7.2-7.2M368.5 87l-7.2-7.2M368.5 91.1l-7.2-7.2M368.5 95.2l-7.2-7.2M368.5 99l-7.2-7.2M368.5 103.1l-7.2-7.2M368.5 107.2l-7.2-7.2M368.5 111l-7.2-7.2M368.5 115.1l-7.2-7.2M368.5 119.2l-7.2-7.2M368.5 123l-7.2-7.2M368.5 127.1l-7.2-7.2M368.5 131.2l-7.2-7.2M368.5 135.3l-7.2-7.2M368.5 139.1l-7.2-7.2M368.5 143.2l-7.2-7.2M368.5 147.3l-7.2-7.2M368.5 151.1l-7.2-7.2M368.5 155.2l-7.2-7.2M368.5 159.3l-7.2-7.2M368.5 163.3l-7.2-7.2M368.5 167.2l-7.2-7.2M368.5 171.3l-7.2-7.2M368.5 175.3l-7.2-7.2M366.4 177.3l-5.1-5.3M362.3 177.3l-1-1.2M367.3 177.3l1.2-1M363.5 177.3l5-5.1M361.3 175.6l7.2-7.2M361.3 171.5l7.2-7.2M361.3 167.4l7.2-7.2M361.3 163.3l7.2-7.2M361.3 159.5l7.2-7.2M361.3 155.4l7.2-7.2M361.3 151.3l7.2-7.2M361.3 147.5l7.2-7.2M361.3 143.4l7.2-7.2M361.3 139.3l7.2-7.2M361.3 135.3l7.2-7.2M361.3 131.4l7.2-7.2M361.3 127.3l7.2-7.2M361.3 123.3l7.2-7.2M361.3 119.4l7.2-7.2M361.3 115.3l7.2-7.2M361.3 111.3l7.2-7.2M361.3 107.4l7.2-7.2M361.3 103.3l7.2-7.2M361.3 99.3l7.2-7.2M361.3 95.2l7.2-7.2M361.3 91.3l7.2-7.2M361.3 87.3l7.2-7.2M361.3 83.2l7.2-7.2M361.3 79.3l7.2-7.2M361.3 75.3l7.2-7.2"/><path class="cls-8" d="M368.3 66.4l-7.2 5.3v105.6h7.2V66.4"/><path class="cls-5" d="M368.5 67.1l-.4-.5M368.5 70.9l-2.8-2.6M368.5 75l-5-5M368.5 79.1l-7.2-7.2M368.5 82.9l-7.2-7.2M368.5 87l-7.2-7.2M368.5 91.1l-7.2-7.2M368.5 95.2l-7.2-7.2M368.5 99l-7.2-7.2M368.5 103.1l-7.2-7.2M368.5 107.2l-7.2-7.2M368.5 111l-7.2-7.2M368.5 115.1l-7.2-7.2M368.5 119.2l-7.2-7.2M368.5 123l-7.2-7.2M368.5 127.1l-7.2-7.2M368.5 131.2l-7.2-7.2M368.5 135.3l-7.2-7.2M368.5 139.1l-7.2-7.2M368.5 143.2l-7.2-7.2M368.5 147.3l-7.2-7.2M368.5 151.1l-7.2-7.2M368.5 155.2l-7.2-7.2M368.5 159.3l-7.2-7.2M368.5 163.3l-7.2-7.2M368.5 167.2l-7.2-7.2M368.5 171.3l-7.2-7.2M368.5 175.3l-7.2-7.2M366.4 177.3l-5.1-5.3M362.3 177.3l-1-1.2M367.3 177.3l1.2-1M363.5 177.3l5-5.1M361.3 175.6l7.2-7.2M361.3 171.5l7.2-7.2M361.3 167.4l7.2-7.2M361.3 163.3l7.2-7.2M361.3 159.5l7.2-7.2M361.3 155.4l7.2-7.2M361.3 151.3l7.2-7.2M361.3 147.5l7.2-7.2M361.3 143.4l7.2-7.2M361.3 139.3l7.2-7.2M361.3 135.3l7.2-7.2M361.3 131.4l7.2-7.2M361.3 127.3l7.2-7.2M361.3 123.3l7.2-7.2M361.3 119.4l7.2-7.2M361.3 115.3l7.2-7.2M361.3 111.3l7.2-7.2M361.3 107.4l7.2-7.2M361.3 103.3l7.2-7.2M361.3 99.3l7.2-7.2M361.3 95.2l7.2-7.2M361.3 91.3l7.2-7.2M361.3 87.3l7.2-7.2M361.3 83.2l7.2-7.2M361.3 79.3l7.2-7.2M361.3 75.3l7.2-7.2"/><path class="cls-8" d="M368.3 212.8h-4.1l4.1 4.3v-4.3"/><path class="cls-5" d="M368.5 215.4l-2.6-2.6M368.1 216.6l.4-.2M366.1 214.7l2-1.9"/><path class="cls-8" d="M368.3 212.8h-4.1l4.1 4.3v-4.3"/><path class="cls-5" d="M368.5 215.4l-2.6-2.6M368.1 216.6l.4-.2M366.1 214.7l2-1.9"/><path class="cls-6" d="M367.1 207h1.7v5.8h-1.7zM367.1 177.3h1.7v2.4h-1.7z"/><path class="cls-6" d="M367.1 179.7h1.7v27.4h-1.7zM367.1 207v-27.3"/><path class="cls-1" d="M361.1 207.3v-27.9"/><path class="cls-6" d="M361.1 179.9v-.5"/><path class="cls-8" d="M361.1 212.8v-5.5h6v5.5"/><path class="cls-5" d="M367.3 210.1l-2.8-2.8M365.9 212.8l-4.6-4.6M361.8 212.8l-.5-.7M364 212.8l3.3-3.1M361.3 211.6l4.1-4.3M361.3 207.5l.3-.2"/><path class="cls-8" d="M361.1 177.3v2.1h6v-2.1"/><path class="cls-5" d="M367.3 178l-.9-.7M364.5 179.4l-2.2-2.1M365.2 179.4l2.1-1.9M361.3 179.4l2.2-2.1"/><path class="cls-8" d="M268.7 219l5.3-6.9h-5.3v6.9"/><path class="cls-5" d="M273.5 212.8l-.5-.7M271.8 214.9l-2.9-2.8M270.1 217.3l-1.2-1.4M268.9 215.7l3.6-3.6"/><path class="cls-8" d="M268.7 219l5.3-6.9h-5.3v6.9"/><path class="cls-5" d="M273.5 212.8l-.5-.7M271.8 214.9l-2.9-2.8M270.1 217.3l-1.2-1.4M268.9 215.7l3.6-3.6"/><path class="cls-8" d="M275.9 179.7v-108l-7.2-5.3v113.3h7.2"/><path class="cls-5" d="M276.1 74.8l-7.2-7.2M276.1 78.9l-7.2-7.2M276.1 82.9l-7.2-7.2M276.1 86.8l-7.2-7.2M276.1 90.9l-7.2-7.2M276.1 94.9l-7.2-7.2M276.1 98.8l-7.2-7.2M276.1 102.9l-7.2-7.2M276.1 106.9l-7.2-7.2M276.1 111l-7.2-7.2M276.1 114.9l-7.2-7.2M276.1 118.9l-7.2-7.2M276.1 123l-7.2-7.2M276.1 126.9l-7.2-7.2M276.1 130.9l-7.2-7.2M276.1 135l-7.2-7.2M276.1 138.9l-7.2-7.2M276.1 142.9l-7.2-7.2M276.1 147l-7.2-7.2M276.1 151.1l-7.2-7.2M276.1 154.9l-7.2-7.2M276.1 159l-7.2-7.2M276.1 163.1l-7.2-7.2M276.1 166.9l-7.2-7.2M276.1 171l-7.2-7.2M276.1 175.1l-7.2-7.2M276.1 178.9l-7.2-7.2M272.5 179.7l-3.6-3.9M272.8 179.7l3.3-3.2M268.9 179.7l7.2-7.2M268.9 175.6l7.2-7.2M268.9 171.7l7.2-7.2M268.9 167.7l7.2-7.2M268.9 163.6l7.2-7.2M268.9 159.7l7.2-7.2M268.9 155.7l7.2-7.2M268.9 151.6l7.2-7.2M268.9 147.5l7.2-7.2M268.9 143.7l7.2-7.2M268.9 139.6l7.2-7.2M268.9 135.5l7.2-7.2M268.9 131.7l7.2-7.2M268.9 127.6l7.2-7.2M268.9 123.5l7.2-7.2M268.9 119.4l7.2-7.2M268.9 115.6l7.2-7.2M268.9 111.5l7.2-7.2M268.9 107.4l7.2-7.2M268.9 103.6l7.2-7.2M268.9 99.5l7.2-7.2M268.9 95.4l7.2-7.2M268.9 91.6l7.2-7.2M268.9 87.5l7.2-7.2M268.9 83.4l7.2-7.2M268.9 79.3l7.2-7.2M268.9 75.5l5.1-5.3M268.9 71.4l2.9-2.9M268.9 67.3l.5-.4"/><path class="cls-8" d="M275.9 179.7v-108l-7.2-5.3v113.3h7.2"/><path class="cls-5" d="M276.1 74.8l-7.2-7.2M276.1 78.9l-7.2-7.2M276.1 82.9l-7.2-7.2M276.1 86.8l-7.2-7.2M276.1 90.9l-7.2-7.2M276.1 94.9l-7.2-7.2M276.1 98.8l-7.2-7.2M276.1 102.9l-7.2-7.2M276.1 106.9l-7.2-7.2M276.1 111l-7.2-7.2M276.1 114.9l-7.2-7.2M276.1 118.9l-7.2-7.2M276.1 123l-7.2-7.2M276.1 126.9l-7.2-7.2M276.1 130.9l-7.2-7.2M276.1 135l-7.2-7.2M276.1 138.9l-7.2-7.2M276.1 142.9l-7.2-7.2M276.1 147l-7.2-7.2M276.1 151.1l-7.2-7.2M276.1 154.9l-7.2-7.2M276.1 159l-7.2-7.2M276.1 163.1l-7.2-7.2M276.1 166.9l-7.2-7.2M276.1 171l-7.2-7.2M276.1 175.1l-7.2-7.2M276.1 178.9l-7.2-7.2M272.5 179.7l-3.6-3.9M272.8 179.7l3.3-3.2M268.9 179.7l7.2-7.2M268.9 175.6l7.2-7.2M268.9 171.7l7.2-7.2M268.9 167.7l7.2-7.2M268.9 163.6l7.2-7.2M268.9 159.7l7.2-7.2M268.9 155.7l7.2-7.2M268.9 151.6l7.2-7.2M268.9 147.5l7.2-7.2M268.9 143.7l7.2-7.2M268.9 139.6l7.2-7.2M268.9 135.5l7.2-7.2M268.9 131.7l7.2-7.2M268.9 127.6l7.2-7.2M268.9 123.5l7.2-7.2M268.9 119.4l7.2-7.2M268.9 115.6l7.2-7.2M268.9 111.5l7.2-7.2M268.9 107.4l7.2-7.2M268.9 103.6l7.2-7.2M268.9 99.5l7.2-7.2M268.9 95.4l7.2-7.2M268.9 91.6l7.2-7.2M268.9 87.5l7.2-7.2M268.9 83.4l7.2-7.2M268.9 79.3l7.2-7.2M268.9 75.5l5.1-5.3M268.9 71.4l2.9-2.9M268.9 67.3l.5-.4"/><path class="cls-6" d="M268.2 179.7h1.7v2.6h-1.7zM268.2 209.4h1.7v2.6h-1.7zM268.2 182.3h1.7v27.1h-1.7zM269.9 182.3v27.1"/><path class="cls-1" d="M275.9 182.1v27.6"/><path class="cls-6" d="M275.9 209.2v.5"/><path class="cls-8" d="M275.9 179.7v2.4h-6v-2.4h-1.2"/><path class="cls-5" d="M274.9 182.1l-2.4-2.4M271.1 182.1l-1-1M274.5 182.1l1.6-1.7M270.4 182.1l2.4-2.4M268.9 179.7"/><path class="cls-8" d="M275.8 212v-2.2h-5.9v2.2h-1.2"/><path class="cls-5" d="M276.1 211.1l-1.6-1.4M273 212.1l-2.4-2.4M272.5 212.1l2.4-2.4M270.1 210.6l.8-.9M268.2 182.3c-14.9 0-27.2 12.3-27.2 27.2M268.2 209.4h-27.3"/><path class="cls-9" d="M28.7 382.2v14.9H.1v-14.9h28.6"/><path class="cls-8" d="M28.7 397.1v-3.6H.1v3.6h28.6"/><path class="cls-5" d="M.4 396.4l.7.7M1.3 393.5l3.6 3.6M5.4 393.5l3.6 3.6M9.5 393.5l3.6 3.6M13.3 393.5l3.6 3.6M17.4 393.5l3.6 3.6M21.5 393.5l3.6 3.6M25.3 393.5l3.6 3.4"/><path class="cls-8" d="M28.7 393.5v-.5H.1v.5h28.6M28.7 393v-5.7H.1v5.7h28.6"/><path class="cls-5" d="M1.6 387.3v5.7M3 387.3v5.7M4.5 387.3v5.7M5.9 387.3v5.7M7.1 387.3v5.7M8.5 387.3v5.7M10 387.3v5.7M11.4 387.3v5.7M12.9 387.3v5.7M14.3 387.3v5.7M15.7 387.3v5.7M17.2 387.3v5.7M18.6 387.3v5.7M20.1 387.3v5.7M21.3 387.3v5.7M22.7 387.3v5.7M24.1 387.3v5.7M25.6 387.3v5.7M27 387.3v5.7M28.5 387.3v5.7"/><path class="cls-8" d="M28.7 387.3v-5.1H.1v5.1h28.6"/><path class="cls-5" d="M.4 384.4l2.9 2.9M2.1 382.2l5 5.1M6.1 382.2l5.1 5.1M10.2 382.2l5.1 5.1M14.1 382.2l5 5.1M18.1 382.2l5.1 5.1M22.2 382.2l5.1 5.1M26.3 382.2l2.6 2.7M28.7 387.3H.1M28.7 393H.1"/><path class="cls-6" d="M28.7 397.1H.1M28.7 382.2H.1"/><path class="cls-9" d="M103.1 382.2v14.9H69.5v-14.9h33.6"/><path class="cls-8" d="M103.1 397.1v-3.6H69.5v3.6h33.6"/><path class="cls-5" d="M69.7 393.5l3.4 3.6M73.6 393.5l3.6 3.6M77.7 393.5l3.6 3.6M81.5 393.5l3.6 3.6M85.6 393.5l3.6 3.6M89.7 393.5l3.6 3.6M93.5 393.5l3.6 3.6M97.6 393.5l3.6 3.6M101.7 393.5l1.6 1.7"/><path class="cls-8" d="M103.1 393.5v-.5H69.5v.5h33.6M103.1 393v-5.7H69.5v5.7h33.6"/><path class="cls-5" d="M70.9 387.3v5.7M72.4 387.3v5.7M73.8 387.3v5.7M75.3 387.3v5.7M76.7 387.3v5.7M78.1 387.3v5.7M79.6 387.3v5.7M81 387.3v5.7M82.2 387.3v5.7M83.7 387.3v5.7M85.1 387.3v5.7M86.5 387.3v5.7M88 387.3v5.7M89.4 387.3v5.7M90.9 387.3v5.7M92.3 387.3v5.7M93.7 387.3v5.7M95.2 387.3v5.7M96.4 387.3v5.7M97.8 387.3v5.7M99.3 387.3v5.7M100.7 387.3v5.7M102.1 387.3v5.7"/><path class="cls-8" d="M103.1 387.3v-5.1H69.5v5.1h33.6"/><path class="cls-5" d="M69.7 385.6l1.7 1.7M70.2 382.2l5.1 5.1M74.3 382.2l5 5.1M78.4 382.2l5 5.1M82.2 382.2l5.1 5.1M86.3 382.2l5 5.1M90.4 382.2l5 5.1M94.2 382.2l5.1 5.1M98.3 382.2l5 4.8M102.4 382.2l.9 1M103.1 387.3H69.5M103.1 393H69.5"/><path class="cls-6" d="M103.1 397.1H69.5M103.1 382.2H69.5M67.8 389.7v7.4h3.4v1.7H27.3v-1.7h3.3v-7.4"/><path class="cls-1" d="M69.5 382.2H28.7"/><path class="cls-6" d="M29.2 382.2h-.5M28.7 387.3h40.8v2.4H28.7zM65.9 389.7v-2.4M32.5 389.7v-2.4M69.5 387.3v2.4M51.3 387.3v2.4M65.9 387.3v2.4M47.2 387.3v2.4M51.3 387.3v2.4M32.5 387.3v2.4M47.2 387.3v2.4M28.7 387.3v2.4"/><path class="cls-8" d="M69.6 393h-1.9v-3.4h1.9"/><path class="cls-5" d="M68.1 389.7v3.3M69.5 389.7v3.3M69.6 393h-1.9v-3.4h1.9"/><path class="cls-8" d="M69.5 397.1h-1.7v-3.6h1.7"/><path class="cls-5" d="M68.1 395.9l.9 1.2M69.5 393.5h.2"/><path class="cls-6" d="M67.8 393.5v-3.8"/><path class="cls-8" d="M28.7 393h1.9v-3.4h-1.9"/><path class="cls-5" d="M29.9 389.7v3.3M28.7 393h1.9v-3.4h-1.9"/><path class="cls-8" d="M28.7 397.1h1.9v-3.6h-1.9"/><path class="cls-5" d="M28.9 396.9v.2M29.4 393.5l1.5 1.2"/><path class="cls-6" d="M30.6 393.5v-3.8M88.2 90.4h17.3v69.1H88.2zM90.4 107.9h-2.2M90.4 124.9h-2.2M90.4 142h-2.2M90.4 158.8h-2.2M95.4 159.5H112v.5H95.4zM95.4 160h.7v17h-.7z"/><path class="cls-6" d="M96.1 176.5h15.1v.5H96.1zM96.1 160h15.1v.7H96.1zM111.3 160h.7v17h-.7z"/><path class="cls-8" d="M100.5 158h-8.9c-.3 0-.5 0-.8-.1-.2-.1-.5-.2-.6-.4-.2-.2-.3-.4-.4-.6-.1-.2-.2-.5-.2-.8v-11.2c0-.3 0-.5.2-.8 0-.2.2-.5.4-.6.2-.2.4-.3.6-.4.2 0 .5-.2.8-.2h8.9c.3 0 .5 0 .8.2.2 0 .5.2.6.4.2.2.3.4.4.6 0 .2.2.5.2.8v11.2c0 .3 0 .5-.2.8-.1.2-.2.5-.4.6-.2.2-.4.3-.6.4-.2 0-.5.1-.8.1"/><path class="cls-6" d="M100.5 158h-8.9c-.3 0-.5 0-.8-.1-.2-.1-.5-.2-.6-.4-.2-.2-.3-.4-.4-.6-.1-.2-.2-.5-.2-.8v-11.2c0-.3 0-.5.2-.8 0-.2.2-.5.4-.6.2-.2.4-.3.6-.4.2 0 .5-.2.8-.2h8.9c.3 0 .5 0 .8.2.2 0 .5.2.6.4.2.2.3.4.4.6 0 .2.2.5.2.8v11.2c0 .3 0 .5-.2.8-.1.2-.2.5-.4.6-.2.2-.4.3-.6.4-.2 0-.5.1-.8.1"/><path class="cls-8" d="M100.2 150.4c0-.7-.5-1.2-1.1-1.2s-1.1.5-1.1 1.2.5 1.2 1.1 1.2 1.1-.5 1.1-1.2"/><path class="cls-6" d="M100.2 150.4c0-.7-.5-1.2-1.1-1.2s-1.1.5-1.1 1.2.5 1.2 1.1 1.2 1.1-.5 1.1-1.2"/><path class="cls-7" d="M89.7 108.4h14.4v15.8H89.7z"/><path class="cls-6" d="M89.7 108.4h14.4v15.8H89.7z"/><path class="cls-8" d="M97.1 112.3c0-1.5-1.2-2.8-2.8-2.8s-2.8 1.2-2.8 2.8 1.2 2.8 2.8 2.8 2.8-1.2 2.8-2.8"/><path class="cls-6" d="M97.1 112.3c0-1.5-1.2-2.8-2.8-2.8s-2.8 1.2-2.8 2.8 1.2 2.8 2.8 2.8 2.8-1.2 2.8-2.8"/><path class="cls-8" d="M103.3 111.4c0-1.3-1-2.3-2.3-2.3s-2.3 1-2.3 2.3 1 2.3 2.3 2.3 2.3-1 2.3-2.3"/><path class="cls-6" d="M103.3 111.4c0-1.3-1-2.3-2.3-2.3s-2.3 1-2.3 2.3 1 2.3 2.3 2.3 2.3-1 2.3-2.3"/><path class="cls-8" d="M96.4 119.9c0-1.2-1-2.2-2.2-2.2s-2.2 1-2.2 2.2 1 2.2 2.2 2.2 2.2-1 2.2-2.2"/><path class="cls-6" d="M96.4 119.9c0-1.2-1-2.2-2.2-2.2s-2.2 1-2.2 2.2 1 2.2 2.2 2.2 2.2-1 2.2-2.2"/><path class="cls-8" d="M103.6 119.7c0-1.6-1.3-2.9-2.9-2.9s-2.9 1.3-2.9 2.9 1.3 2.9 2.9 2.9 2.9-1.3 2.9-2.9"/><path class="cls-6" d="M103.6 119.7c0-1.6-1.3-2.9-2.9-2.9s-2.9 1.3-2.9 2.9 1.3 2.9 2.9 2.9 2.9-1.3 2.9-2.9M90.4 90.9h-2.2M95.4 89.7H112v.7H95.4zM95.4 72.6h.7v17h-.7z"/><path class="cls-6" d="M96.1 72.6h15.1v.7H96.1zM96.1 89.2h15.1v.5H96.1z"/><path class="cls-6" d="M95.4 71.7h.7v1h-.7zM111.3 72.6h.7v17h-.7zM95.4 177h17.8v.5H95.4zM113.9 158.5h-7.7"/><path class="cls-4" d="M113.9 159.3h-8.4"/><path class="cls-6" d="M113.9 157.1h-6.2M113.9 158.5h-7.7M113.9 159.3h-8.4M113.9 157.1h-6.2"/><path class="cls-4" d="M113.9 158.5v.8"/><path class="cls-6" d="M113.9 157.1v1.4M106.2 158.5V91.1"/><path class="cls-4" d="M105.5 159.3V90.4"/><path class="cls-6" d="M107.7 157.1V92.5M106.2 158.5V91.1M105.5 159.3V90.4M107.7 157.1V92.5M106.2 91.1h7.7"/><path class="cls-4" d="M105.5 90.4h8.4"/><path class="cls-6" d="M107.7 92.5h6.2M106.2 91.1h7.7"/><path class="cls-4" d="M113.9 91.1v-.7"/><path class="cls-6" d="M113.9 92.5v-1.4M105.5 90.4h8.4M107.7 92.5h6.2"/><path class="cls-1" d="M95.4 90.4v69.1"/><path class="cls-6" d="M95.4 159v.5"/><path class="cls-8" d="M308.8 219l6.9-9.3h-6.9v9.3"/><path class="cls-5" d="M315.3 210.4l-.8-.7M313.6 212.5l-2.9-2.8M311.9 214.9l-2.9-3.1M310.2 217.3l-1.2-1.4M309 215.7l6-6M309 211.8l1.9-2.1"/><path class="cls-8" d="M308.8 219l6.9-9.3h-6.9v9.3"/><path class="cls-5" d="M315.3 210.4l-.8-.7M313.6 212.5l-2.9-2.8M311.9 214.9l-2.9-3.1M310.2 217.3l-1.2-1.4M309 215.7l6-6M309 211.8l1.9-2.1"/><path class="cls-8" d="M276.4 209.7h-.5l-7.2 9.3h7.7v-9.3"/><path class="cls-5" d="M276.6 211.6l-1.2-1.2M276.6 215.7l-2.9-2.9M275.9 219l-4.1-4.1M271.8 219l-1.7-1.7M273.5 219l3.1-2.9M269.7 219l6.9-6.9"/><path class="cls-8" d="M276.4 209.7h-.5l-7.2 9.3h7.7v-9.3"/><path class="cls-5" d="M276.6 211.6l-1.2-1.2M276.6 215.7l-2.9-2.9M275.9 219l-4.1-4.1M271.8 219l-1.7-1.7M273.5 219l3.1-2.9M269.7 219l6.9-6.9"/><path class="cls-6" d="M276.4 218.1h2.6v1.7h-2.6zM306.1 218.1h2.6v1.7h-2.6zM279 218.1h27.1v1.7H279zM279 218.1h27.1"/><path class="cls-1" d="M278.5 209.7h27.9"/><path class="cls-6" d="M305.9 209.7h.5"/><path class="cls-8" d="M276.4 209.7h2.1v8.4h-2.1"/><path class="cls-5" d="M278.8 209.7h-.3M278.8 213.7l-2.2-2.1M278.8 217.8l-2.2-2.1M278.5 218.1l.3-.3M276.6 216.1l2.2-2.1M276.6 212.1l2.2-2.2"/><path class="cls-8" d="M308.8 209.7h-2.4v8.4h2.4"/><path class="cls-5" d="M309 211.8l-2.4-2.1M309 215.9l-2.4-2.4M307.1 218.1l-.5-.5M306.6 218.1l2.4-2.4M306.6 214.2l2.4-2.4M306.6 210.1l.3-.4"/><path class="cls-6" d="M318.6 224.5h29.8v39.8h-29.8zM316.7 215.7h35.5M335.2 218.8h-13.9M347.9 221.7H334"/><path class="cls-8" d="M315.7 209.7l-6.9 9.3v60.3l6.9-7.5v-62.1"/><path class="cls-5" d="M316 210.9l-.7-.5M316 214.9l-2.4-2.4M316 218.8l-4.1-3.9M316 222.9l-5.8-5.6M316 226.9l-7-6.9M316 231l-7-6.9M316 234.9l-7-7M316 238.9l-7-6.9M316 243l-7-6.9M316 246.9l-7-7M316 250.9l-7-6.9M316 255l-7-6.9M316 259.1l-7-7M316 262.9l-7-6.9M316 267l-7-6.9M316 271.1l-7-7M314.3 273.5L309 268M312.4 275.7l-3.4-3.6M310.5 277.6l-1.5-1.5M309 275.9l7-7M309 271.8l7-6.9M309 268l7-7M309 263.9l7-7M309 259.8l7-6.9M309 255.7l7-6.9M309 251.9l7-7M309 247.8l7-6.9M309 243.7l7-6.9M309 239.9l7-7M309 235.8l7-6.9M309 231.7l7-6.9M309 227.9l7-7M309 223.8l7-6.9M309 219.7l7-6.9"/><path class="cls-8" d="M315.7 209.7l-6.9 9.3v60.3l6.9-7.5v-62.1"/><path class="cls-5" d="M316 210.9l-.7-.5M316 214.9l-2.4-2.4M316 218.8l-4.1-3.9M316 222.9l-5.8-5.6M316 226.9l-7-6.9M316 231l-7-6.9M316 234.9l-7-7M316 238.9l-7-6.9M316 243l-7-6.9M316 246.9l-7-7M316 250.9l-7-6.9M316 255l-7-6.9M316 259.1l-7-7M316 262.9l-7-6.9M316 267l-7-6.9M316 271.1l-7-7M314.3 273.5L309 268M312.4 275.7l-3.4-3.6M310.5 277.6l-1.5-1.5M309 275.9l7-7M309 271.8l7-6.9M309 268l7-7M309 263.9l7-7M309 259.8l7-6.9M309 255.7l7-6.9M309 251.9l7-7M309 247.8l7-6.9M309 243.7l7-6.9M309 239.9l7-7M309 235.8l7-6.9M309 231.7l7-6.9M309 227.9l7-7M309 223.8l7-6.9M309 219.7l7-6.9"/><path class="cls-9" d="M301.8 71.7h59.3l7.2-5.3v-9.6h-66.5v14.9"/><path class="cls-8" d="M301.8 56.8v3.3h66.5v-3.3h-66.5"/><path class="cls-5" d="M302.1 56.8l3.3 3.3M306.1 56.8l3.4 3.3M310 56.8l3.3 3.3M314.1 56.8l3.3 3.3M318.1 56.8l3.4 3.3M322.2 56.8l3.4 3.3M326.1 56.8l3.3 3.3M330.1 56.8l3.4 3.3M334.2 56.8l3.4 3.3M338.1 56.8l3.3 3.3M342.1 56.8l3.4 3.3M346.2 56.8l3.4 3.3M350.1 56.8l3.3 3.3M354.1 56.8l3.4 3.3M358.2 56.8l3.4 3.3M362.3 56.8l3.4 3.3M366.1 56.8l2.4 2.1"/><path class="cls-8" d="M301.8 60.1v.8h66.5v-.8h-66.5M301.8 60.9v5.5h66.5v-5.5h-66.5"/><path class="cls-5" d="M367.1 66.4v-5.5M365.9 66.4v-5.5M364.5 66.4v-5.5M363 66.4v-5.5M361.6 66.4v-5.5M360.1 66.4v-5.5M358.7 66.4v-5.5M357.3 66.4v-5.5M355.8 66.4v-5.5M354.4 66.4v-5.5M352.9 66.4v-5.5M351.5 66.4v-5.5M350.3 66.4v-5.5M348.9 66.4v-5.5M347.4 66.4v-5.5M346 66.4v-5.5M344.5 66.4v-5.5M343.1 66.4v-5.5M341.7 66.4v-5.5M340.2 66.4v-5.5M338.8 66.4v-5.5M337.3 66.4v-5.5M336.1 66.4v-5.5M334.7 66.4v-5.5M333.3 66.4v-5.5M331.8 66.4v-5.5M330.4 66.4v-5.5M328.9 66.4v-5.5M327.5 66.4v-5.5M326.1 66.4v-5.5M324.6 66.4v-5.5M323.2 66.4v-5.5M321.7 66.4v-5.5M320.5 66.4v-5.5M319.1 66.4v-5.5M317.7 66.4v-5.5M316.2 66.4v-5.5M314.8 66.4v-5.5M313.3 66.4v-5.5M311.9 66.4v-5.5M310.5 66.4v-5.5M309 66.4v-5.5M307.6 66.4v-5.5M306.1 66.4v-5.5M304.9 66.4v-5.5M303.5 66.4v-5.5M302.1 66.4v-5.5"/><path class="cls-8" d="M301.8 71.7h59.3l7.2-5.3h-66.5v5.3"/><path class="cls-5" d="M368.1 66.6l-.3-.2M365.7 68.3l-2-1.9M363.5 70l-3.8-3.6M361.1 71.7l-5.3-5.3M357 71.7l-5.3-5.3M352.9 71.7l-5.2-5.3M349.1 71.7l-5.3-5.3M345 71.7l-5.3-5.3M340.9 71.7l-5.2-5.3M337.1 71.7l-5.3-5.3M333 71.7l-5.3-5.3M328.9 71.7l-5.2-5.3M324.9 71.7l-5.3-5.3M321 71.7l-5.3-5.3M316.9 71.7l-5.2-5.3M312.9 71.7l-5.3-5.3M309 71.7l-5.3-5.3M304.9 71.7l-2.8-2.9M360.9 71.7l5.2-5.3M356.8 71.7l5.3-5.3M352.7 71.7l5.3-5.3M348.9 71.7l5.2-5.3M344.8 71.7l5.3-5.3M340.7 71.7l5.3-5.3M336.9 71.7l5.2-5.3M332.8 71.7l5.3-5.3M328.7 71.7l5.3-5.3M324.6 71.7l5.3-5.3M320.8 71.7l5.3-5.3M316.7 71.7l5.3-5.3M312.6 71.7l5.3-5.3M308.8 71.7l5.3-5.3M304.7 71.7l5.3-5.3M302.1 70.5l3.8-4.1M301.8 66.4h66.5M301.8 60.9h66.5"/><path class="cls-6" d="M301.8 56.8h66.5M301.8 71.7h59.3"/><path class="cls-9" d="M268.7 66.4l7.2 5.3h7.2V56.8h-14.4v9.6"/><path class="cls-8" d="M268.7 56.8v3.3h14.4v-3.3h-14.4"/><path class="cls-5" d="M268.9 59.7l.5.4M269.9 56.8l3.4 3.3M274 56.8l3.3 3.3M278.1 56.8l3.3 3.3M282.1 56.8l1.2 1.2"/><path class="cls-8" d="M268.7 60.1v.8h14.4v-.8h-14.4M268.7 60.9v5.5h14.4v-5.5h-14.4"/><path class="cls-5" d="M282.1 66.4v-5.5M280.7 66.4v-5.5M279.3 66.4v-5.5M277.8 66.4v-5.5M276.4 66.4v-5.5M275.2 66.4v-5.5M273.7 66.4v-5.5M272.3 66.4v-5.5M270.9 66.4v-5.5M269.4 66.4v-5.5"/><path class="cls-8" d="M268.7 66.4l7.2 5.3h7.2v-5.3h-14.4"/><path class="cls-5" d="M283.3 70l-3.8-3.6M280.9 71.7l-5.2-5.3M276.9 71.7l-5.3-5.3M280.7 71.7l2.6-2.7M276.6 71.7l5.3-5.3M274 70.2l3.8-3.8M271.8 68.5l2.2-2.1M269.4 66.9l.5-.5M268.7 66.4h14.4M268.7 60.9h14.4"/><path class="cls-6" d="M268.7 56.8h14.4M275.9 71.7h7.2M283.1 66.4v6h18.7v-6M284.8 64.2v-7.4h-3.4v-1.7h21.9v1.7h-3.4v7.4M283.1 64.2h18.7v2.2h-18.7zM286.7 64.2v2.2M298 64.2v2.2M283.1 66.4v-2.2M298 66.4v-2.2M286.7 66.4v-2.2M301.8 66.4v-2.2M284.8 60.1h7.7"/><path class="cls-8" d="M283 60.8h1.9v3.4H283"/><path class="cls-5" d="M283.6 64.2v-3.3M283 60.8h1.9v3.4H283"/><path class="cls-8" d="M283.1 56.8h1.7v3.3h-1.7"/><path class="cls-5" d="M283.3 58l1.7 1.7"/><path class="cls-6" d="M284.8 60.1v4.1M299.9 60.1h-7.4"/><path class="cls-8" d="M301.7 60.8h-1.8v3.4h1.8"/><path class="cls-5" d="M300.6 64.2v-3.3M301.7 60.8h-1.8v3.4h1.8"/><path class="cls-8" d="M301.8 56.8h-1.9v3.3h1.9"/><path class="cls-5" d="M300.1 58.7l1.2 1.4"/><path class="cls-6" d="M299.9 60.1v4.1"/><path class="cls-8" d="M315.7 271.8l-6.9 7.5h59.5l-7.2-7.5h-45.4"/><path class="cls-5" d="M368.3 279.3l-7.4-7.5M364.2 279.3l-7.4-7.5M360.1 279.3l-7.4-7.5M356.1 279.3l-7.5-7.5M352.2 279.3l-7.4-7.5M348.1 279.3l-7.4-7.5M344.1 279.3l-7.5-7.5M340.2 279.3l-7.4-7.5M336.1 279.3l-7.4-7.5M332.1 279.3l-7.5-7.5M328.2 279.3l-7.4-7.5M324.1 279.3l-7.4-7.5M320.1 279.3l-5.8-5.8M316 279.3l-3.6-3.6M312.1 279.3l-1.6-1.7M365.7 279.3l1.4-1.5M361.6 279.3l3.6-3.4M357.7 279.3l5.3-5.6M353.7 279.3l7.4-7.5M349.6 279.3l7.4-7.5M345.5 279.3l7.4-7.5M341.7 279.3l7.4-7.5M337.6 279.3l7.4-7.5M333.5 279.3l7.4-7.5M329.7 279.3l7.4-7.5M325.6 279.3l7.4-7.5M321.5 279.3l7.4-7.5M317.7 279.3l7.4-7.5M313.6 279.3l7.4-7.5M309.5 279.3l7.4-7.5"/><path class="cls-8" d="M315.7 271.8l-6.9 7.5h59.5l-7.2-7.5h-45.4"/><path class="cls-5" d="M368.3 279.3l-7.4-7.5M364.2 279.3l-7.4-7.5M360.1 279.3l-7.4-7.5M356.1 279.3l-7.5-7.5M352.2 279.3l-7.4-7.5M348.1 279.3l-7.4-7.5M344.1 279.3l-7.5-7.5M340.2 279.3l-7.4-7.5M336.1 279.3l-7.4-7.5M332.1 279.3l-7.5-7.5M328.2 279.3l-7.4-7.5M324.1 279.3l-7.4-7.5M320.1 279.3l-5.8-5.8M316 279.3l-3.6-3.6M312.1 279.3l-1.6-1.7M365.7 279.3l1.4-1.5M361.6 279.3l3.6-3.4M357.7 279.3l5.3-5.6M353.7 279.3l7.4-7.5M349.6 279.3l7.4-7.5M345.5 279.3l7.4-7.5M341.7 279.3l7.4-7.5M337.6 279.3l7.4-7.5M333.5 279.3l7.4-7.5M329.7 279.3l7.4-7.5M325.6 279.3l7.4-7.5M321.5 279.3l7.4-7.5M317.7 279.3l7.4-7.5M313.6 279.3l7.4-7.5M309.5 279.3l7.4-7.5"/><path class="cls-6" d="M361.1 110.8H327M361.1 118.5H327M361.1 126.1H327M361.1 133.8H327M361.1 141.5H327M361.1 149.2H327M361.1 156.9H327M361.1 164.3H327M275.9 164.3h33.8M275.9 156.9h33.8M275.9 149.2h33.8M275.9 141.5h33.8M275.9 133.8h33.8M275.9 126.1h33.8M275.9 118.5h33.8M275.9 110.8h33.8M361.1 130l-35.5 7.9M311.2 106.9h14.4v61.2h-14.4z"/><path class="cls-6" d="M309.7 105.5H327v64.1h-17.3zM348.1 114.9h-7.9M344.1 110.8l4 4.1M340.2 114.9l3.9-4.1M348.1 137.7h-7.9M344.1 133.8l4 3.9M340.2 137.7l3.9-3.9M288.9 160.5h7.9M292.7 164.3l-3.8-3.8M296.8 160.5l-4.1 3.8"/><path class="cls-8" d="M207 172.9l5.1 4.4V71.7H207v101.2"/><path class="cls-5" d="M207.3 74.1l2.4-2.4M207.3 78.4l5-5.1M207.3 82.7l5-5M207.3 86.8l5-5.1M207.3 91.1l5-5M207.3 95.4l5-5M207.3 99.5l5-5M207.3 103.8l5-5M207.3 108.1l5-5M207.3 112.2l5-5M207.3 116.5l5-5M207.3 120.9l5-5.1M207.3 125.2l5-5.1M207.3 129.3l5-5.1M207.3 133.6l5-5.1M207.3 137.9l5-5M207.3 142l5-5.1M207.3 146.3l5-5M207.3 150.6l5-5M207.3 154.9l5-5M207.3 159l5-5M207.3 163.3l5-5M207.3 167.7l5-5.1M207.3 171.7l5-5M208.9 174.4l3.4-3.4M211.1 176.3l1.2-1"/><path class="cls-8" d="M207 172.9l5.1 4.4V71.7H207v101.2"/><path class="cls-5" d="M207.3 74.1l2.4-2.4M207.3 78.4l5-5.1M207.3 82.7l5-5M207.3 86.8l5-5.1M207.3 91.1l5-5M207.3 95.4l5-5M207.3 99.5l5-5M207.3 103.8l5-5M207.3 108.1l5-5M207.3 112.2l5-5M207.3 116.5l5-5M207.3 120.9l5-5.1M207.3 125.2l5-5.1M207.3 129.3l5-5.1M207.3 133.6l5-5.1M207.3 137.9l5-5M207.3 142l5-5.1M207.3 146.3l5-5M207.3 150.6l5-5M207.3 154.9l5-5M207.3 159l5-5M207.3 163.3l5-5M207.3 167.7l5-5.1M207.3 171.7l5-5M208.9 174.4l3.4-3.4M211.1 176.3l1.2-1"/><path class="cls-8" d="M268.7 212.1H95.9l7.2 6.9h165.6v-6.9"/><path class="cls-5" d="M268.9 215.9l-4-3.8M268 219l-7-6.9M263.9 219l-7-6.9M259.8 219l-6.9-6.9M255.7 219l-6.9-6.9M251.9 219l-7-6.9M247.8 219l-6.9-6.9M243.7 219l-6.9-6.9M239.9 219l-7-6.9M235.8 219l-6.9-6.9M231.7 219l-6.9-6.9M227.9 219l-7-6.9M223.8 219l-6.9-6.9M219.7 219l-6.9-6.9M215.7 219l-7-6.9M211.8 219l-6.9-6.9M207.7 219l-6.9-6.9M203.7 219l-7-6.9M199.8 219l-6.9-6.9M195.7 219l-6.9-6.9M191.7 219l-7-6.9M187.8 219l-6.9-6.9M183.7 219l-6.9-6.9M179.7 219l-7-6.9M175.6 219l-7-6.9M171.7 219l-6.9-6.9M167.7 219l-7-6.9M163.6 219l-7-6.9M159.7 219l-6.9-6.9M155.7 219l-7-6.9M151.6 219l-7-6.9M147.5 219l-7-6.9M143.7 219l-7-6.9M139.6 219l-7-6.9M135.5 219l-7-6.9M131.7 219l-7-6.9M127.6 219l-7-6.9M123.5 219l-7-6.9M119.7 219l-7-6.9M115.6 219l-7-6.9M111.5 219l-7-6.9M107.4 219l-6.9-6.9M103.6 219l-7-6.9M265.6 219l3.3-3.3M261.5 219l7-6.9M257.4 219l7-6.9M253.6 219l6.9-6.9M249.5 219l7-6.9M245.4 219l7-6.9M241.6 219l6.9-6.9M237.5 219l7-6.9M233.4 219l7-6.9M229.6 219l6.9-6.9M225.5 219l7-6.9M221.4 219l7-6.9M217.3 219l7-6.9M213.5 219l7-6.9M209.4 219l7-6.9M205.3 219l7-6.9M201.5 219l7-6.9M197.4 219l7-6.9M193.3 219l7-6.9M189.5 219l7-6.9M185.4 219l7-6.9M181.3 219l7-6.9M177.3 219l6.9-6.9M173.4 219l7-6.9M169.3 219l7-6.9M165.3 219l6.9-6.9M161.4 219l7-6.9M157.3 219l7-6.9M153.3 219l6.9-6.9M149.2 219l6.9-6.9M145.3 219l7-6.9M141.3 219l6.9-6.9M137.2 219l6.9-6.9M133.3 219l7-6.9M129.3 219l6.9-6.9M125.2 219l6.9-6.9M121.3 219l7-6.9M117.3 219l6.9-6.9M113.2 219l6.9-6.9M109.1 219l7-6.9M105.3 219l6.9-6.9M102.1 218.1l6-6M100.2 216.1l3.9-4M98.1 214l2.1-1.9M96.1 212.1"/><path class="cls-8" d="M268.7 212.1H95.9l7.2 6.9h165.6v-6.9"/><path class="cls-5" d="M268.9 215.9l-4-3.8M268 219l-7-6.9M263.9 219l-7-6.9M259.8 219l-6.9-6.9M255.7 219l-6.9-6.9M251.9 219l-7-6.9M247.8 219l-6.9-6.9M243.7 219l-6.9-6.9M239.9 219l-7-6.9M235.8 219l-6.9-6.9M231.7 219l-6.9-6.9M227.9 219l-7-6.9M223.8 219l-6.9-6.9M219.7 219l-6.9-6.9M215.7 219l-7-6.9M211.8 219l-6.9-6.9M207.7 219l-6.9-6.9M203.7 219l-7-6.9M199.8 219l-6.9-6.9M195.7 219l-6.9-6.9M191.7 219l-7-6.9M187.8 219l-6.9-6.9M183.7 219l-6.9-6.9M179.7 219l-7-6.9M175.6 219l-7-6.9M171.7 219l-6.9-6.9M167.7 219l-7-6.9M163.6 219l-7-6.9M159.7 219l-6.9-6.9M155.7 219l-7-6.9M151.6 219l-7-6.9M147.5 219l-7-6.9M143.7 219l-7-6.9M139.6 219l-7-6.9M135.5 219l-7-6.9M131.7 219l-7-6.9M127.6 219l-7-6.9M123.5 219l-7-6.9M119.7 219l-7-6.9M115.6 219l-7-6.9M111.5 219l-7-6.9M107.4 219l-6.9-6.9M103.6 219l-7-6.9M265.6 219l3.3-3.3M261.5 219l7-6.9M257.4 219l7-6.9M253.6 219l6.9-6.9M249.5 219l7-6.9M245.4 219l7-6.9M241.6 219l6.9-6.9M237.5 219l7-6.9M233.4 219l7-6.9M229.6 219l6.9-6.9M225.5 219l7-6.9M221.4 219l7-6.9M217.3 219l7-6.9M213.5 219l7-6.9M209.4 219l7-6.9M205.3 219l7-6.9M201.5 219l7-6.9M197.4 219l7-6.9M193.3 219l7-6.9M189.5 219l7-6.9M185.4 219l7-6.9M181.3 219l7-6.9M177.3 219l6.9-6.9M173.4 219l7-6.9M169.3 219l7-6.9M165.3 219l6.9-6.9M161.4 219l7-6.9M157.3 219l7-6.9M153.3 219l6.9-6.9M149.2 219l6.9-6.9M145.3 219l7-6.9M141.3 219l6.9-6.9M137.2 219l6.9-6.9M133.3 219l7-6.9M129.3 219l6.9-6.9M125.2 219l6.9-6.9M121.3 219l7-6.9M117.3 219l6.9-6.9M113.2 219l6.9-6.9M109.1 219l7-6.9M105.3 219l6.9-6.9M102.1 218.1l6-6M100.2 216.1l3.9-4M98.1 214l2.1-1.9M96.1 212.1"/><path class="cls-8" d="M268.7 136.2H243l4.1 4.3h21.6v-4.3"/><path class="cls-5" d="M244.9 138.1l2.2-1.9M247.1 140.3l4.1-4.1M251.2 140.5l4.3-4.3M255.5 140.5l4.3-4.3M259.6 140.5l4.3-4.3M263.9 140.5l4.3-4.3M268.2 140.5l.7-.7"/><path class="cls-8" d="M268.7 136.2H243l4.1 4.3h21.6v-4.3"/><path class="cls-5" d="M244.9 138.1l2.2-1.9M247.1 140.3l4.1-4.1M251.2 140.5l4.3-4.3M255.5 140.5l4.3-4.3M259.6 140.5l4.3-4.3M263.9 140.5l4.3-4.3M268.2 140.5l.7-.7"/><path class="cls-8" d="M212.1 177.3l-5.1-4.4v4.4h5.1"/><path class="cls-5" d="M207.3 176.1l1.6-1.7M210.1 177.3l1-1"/><path class="cls-8" d="M212.1 177.3l-5.1-4.4v4.4h5.1"/><path class="cls-5" d="M207.3 176.1l1.6-1.7M210.1 177.3l1-1"/><path class="cls-8" d="M180.4 172.9h-62.2l-4.3 4.4h66.5v-4.4"/><path class="cls-5" d="M116.8 177.3l4.3-4.4M120.9 177.3l4.3-4.4M125.2 177.3l4.3-4.4M129.5 177.3l4.3-4.4M133.8 177.3l4.3-4.4M137.9 177.3l4.3-4.4M142.2 177.3l4.3-4.4M146.5 177.3l4.4-4.4M150.6 177.3l4.3-4.4M154.9 177.3l4.4-4.4M159.3 177.3l4.3-4.4M163.6 177.3l4.3-4.4M167.7 177.3l4.3-4.4M172 177.3l4.3-4.4M176.3 177.3l4.3-4.4M180.4 177.3h.2"/><path class="cls-8" d="M180.4 172.9h-62.2l-4.3 4.4h66.5v-4.4"/><path class="cls-5" d="M116.8 177.3l4.3-4.4M120.9 177.3l4.3-4.4M125.2 177.3l4.3-4.4M129.5 177.3l4.3-4.4M133.8 177.3l4.3-4.4M137.9 177.3l4.3-4.4M142.2 177.3l4.3-4.4M146.5 177.3l4.4-4.4M150.6 177.3l4.3-4.4M154.9 177.3l4.4-4.4M159.3 177.3l4.3-4.4M163.6 177.3l4.3-4.4M167.7 177.3l4.3-4.4M172 177.3l4.3-4.4M176.3 177.3l4.3-4.4M180.4 177.3h.2"/><path class="cls-1" d="M180.4 177.3H207M180.4 172.9H207"/><path class="cls-6" d="M182.3 177.3v-4.4M205.1 177.3v-4.4"/><path class="cls-5" d="M205.1 150.2c-12.4 0-22.7 10.2-22.7 22.7M205.1 172.9v-22.8"/><path class="cls-8" d="M113.9 177.3l4.3-4.4V71.7h-4.3v105.6"/><path class="cls-5" d="M114.1 73.8l2-2.1M114.1 77.9l4.4-4.3M114.1 82.2l4.4-4.3M114.1 86.5l4.4-4.3M114.1 90.6l4.4-4.3M114.1 94.9l4.4-4.3M114.1 99.3l4.4-4.4M114.1 103.3l4.4-4.3M114.1 107.7l4.4-4.4M114.1 112l4.4-4.3M114.1 116.3l4.4-4.3M114.1 120.4l4.4-4.3M114.1 124.7l4.4-4.3M114.1 129l4.4-4.3M114.1 133.1l4.4-4.3M114.1 137.4l4.4-4.3M114.1 141.7l4.4-4.3M114.1 146.1l4.4-4.4M114.1 150.1l4.4-4.3M114.1 154.5l4.4-4.4M114.1 158.8l4.4-4.3M114.1 162.9l4.4-4.4M114.1 167.2l4.4-4.3M114.1 171.5l4.4-4.3M114.1 175.8l4.4-4.3"/><path class="cls-8" d="M113.9 177.3l4.3-4.4V71.7h-4.3v105.6"/><path class="cls-5" d="M114.1 73.8l2-2.1M114.1 77.9l4.4-4.3M114.1 82.2l4.4-4.3M114.1 86.5l4.4-4.3M114.1 90.6l4.4-4.3M114.1 94.9l4.4-4.3M114.1 99.3l4.4-4.4M114.1 103.3l4.4-4.3M114.1 107.7l4.4-4.4M114.1 112l4.4-4.3M114.1 116.3l4.4-4.3M114.1 120.4l4.4-4.3M114.1 124.7l4.4-4.3M114.1 129l4.4-4.3M114.1 133.1l4.4-4.3M114.1 137.4l4.4-4.3M114.1 141.7l4.4-4.3M114.1 146.1l4.4-4.4M114.1 150.1l4.4-4.3M114.1 154.5l4.4-4.4M114.1 158.8l4.4-4.3M114.1 162.9l4.4-4.4M114.1 167.2l4.4-4.3M114.1 171.5l4.4-4.3M114.1 175.8l4.4-4.3"/><path class="cls-1" d="M95.4 212.1v-34.6"/><path class="cls-6" d="M95.4 178v-.5"/><path class="cls-8" d="M103.1 219l-7.2-6.9v175.2h7.2V219"/><path class="cls-5" d="M103.3 222.6l-7.2-7.2M103.3 226.7l-7.2-7.2M103.3 230.8l-7.2-7.2M103.3 234.9l-7.2-7.2M103.3 238.7l-7.2-7.2M103.3 242.8l-7.2-7.2M103.3 246.9l-7.2-7.2M103.3 250.7l-7.2-7.2M103.3 254.8l-7.2-7.2M103.3 258.9l-7.2-7.2M103.3 262.9l-7.2-7.2M103.3 266.8l-7.2-7.2M103.3 270.9l-7.2-7.2M103.3 274.9l-7.2-7.2M103.3 278.8l-7.2-7.2M103.3 282.9l-7.2-7.2M103.3 286.9l-7.2-7.2M103.3 290.8l-7.2-7.2M103.3 294.9l-7.2-7.2M103.3 298.9l-7.2-7.2M103.3 303l-7.2-7.2M103.3 306.9l-7.2-7.2M103.3 310.9l-7.2-7.2M103.3 315l-7.2-7.2M103.3 318.9l-7.2-7.2M103.3 322.9l-7.2-7.2M103.3 327l-7.2-7.2M103.3 330.9l-7.2-7.2M103.3 334.9l-7.2-7.2M103.3 339l-7.2-7.2M103.3 343.1l-7.2-7.2M103.3 346.9l-7.2-7.2M103.3 351l-7.2-7.2M103.3 355.1l-7.2-7.2M103.3 358.9l-7.2-7.2M103.3 363l-7.2-7.2M103.3 367.1l-7.2-7.2M103.3 370.9l-7.2-7.2M103.3 375l-7.2-7.2M103.3 379.1l-7.2-7.2M103.3 383.2l-7.2-7.2M103.3 387l-7.2-7.2M99.3 387.3l-3.2-3.4M101.4 387.3l1.9-2M97.3 387.3l6-6M96.1 384.6l7.2-7.2M96.1 380.5l7.2-7.2M96.1 376.5l7.2-7.2M96.1 372.6l7.2-7.2M96.1 368.5l7.2-7.2M96.1 364.5l7.2-7.2M96.1 360.4l7.2-7.2M96.1 356.5l7.2-7.2M96.1 352.5l7.2-7.2M96.1 348.4l7.2-7.2M96.1 344.5l7.2-7.2M96.1 340.5l7.2-7.2M96.1 336.4l7.2-7.2M96.1 332.5l7.2-7.2M96.1 328.5l7.2-7.2M96.1 324.4l7.2-7.2M96.1 320.3l7.2-7.2M96.1 316.5l7.2-7.2M96.1 312.4l7.2-7.2M96.1 308.3l7.2-7.2M96.1 304.5l7.2-7.2M96.1 300.4l7.2-7.2M96.1 296.3l7.2-7.2M96.1 292.2l7.2-7.2M96.1 288.4l7.2-7.2M96.1 284.3l7.2-7.2M96.1 280.2l7.2-7.2M96.1 276.4l7.2-7.2M96.1 272.3l7.2-7.2M96.1 268.2l7.2-7.2M96.1 264.4l7.2-7.2M96.1 260.3l7.2-7.2M96.1 256.2l7.2-7.2M96.1 252.1l7.2-7.2M96.1 248.3l7.2-7.2M96.1 244.2l7.2-7.2M96.1 240.1l7.2-7.2M96.1 236.3l7.2-7.2M96.1 232.2l7.2-7.2M96.1 228.1l7.2-7.2M96.1 224.3l6-6.2M96.1 220.2l4.1-4.1M96.1 216.1l2-2.1M96.1 212.1"/><path class="cls-8" d="M103.1 219l-7.2-6.9v175.2h7.2V219"/><path class="cls-5" d="M103.3 222.6l-7.2-7.2M103.3 226.7l-7.2-7.2M103.3 230.8l-7.2-7.2M103.3 234.9l-7.2-7.2M103.3 238.7l-7.2-7.2M103.3 242.8l-7.2-7.2M103.3 246.9l-7.2-7.2M103.3 250.7l-7.2-7.2M103.3 254.8l-7.2-7.2M103.3 258.9l-7.2-7.2M103.3 262.9l-7.2-7.2M103.3 266.8l-7.2-7.2M103.3 270.9l-7.2-7.2M103.3 274.9l-7.2-7.2M103.3 278.8l-7.2-7.2M103.3 282.9l-7.2-7.2M103.3 286.9l-7.2-7.2M103.3 290.8l-7.2-7.2M103.3 294.9l-7.2-7.2M103.3 298.9l-7.2-7.2M103.3 303l-7.2-7.2M103.3 306.9l-7.2-7.2M103.3 310.9l-7.2-7.2M103.3 315l-7.2-7.2M103.3 318.9l-7.2-7.2M103.3 322.9l-7.2-7.2M103.3 327l-7.2-7.2M103.3 330.9l-7.2-7.2M103.3 334.9l-7.2-7.2M103.3 339l-7.2-7.2M103.3 343.1l-7.2-7.2M103.3 346.9l-7.2-7.2M103.3 351l-7.2-7.2M103.3 355.1l-7.2-7.2M103.3 358.9l-7.2-7.2M103.3 363l-7.2-7.2M103.3 367.1l-7.2-7.2M103.3 370.9l-7.2-7.2M103.3 375l-7.2-7.2M103.3 379.1l-7.2-7.2M103.3 383.2l-7.2-7.2M103.3 387l-7.2-7.2M99.3 387.3l-3.2-3.4M101.4 387.3l1.9-2M97.3 387.3l6-6M96.1 384.6l7.2-7.2M96.1 380.5l7.2-7.2M96.1 376.5l7.2-7.2M96.1 372.6l7.2-7.2M96.1 368.5l7.2-7.2M96.1 364.5l7.2-7.2M96.1 360.4l7.2-7.2M96.1 356.5l7.2-7.2M96.1 352.5l7.2-7.2M96.1 348.4l7.2-7.2M96.1 344.5l7.2-7.2M96.1 340.5l7.2-7.2M96.1 336.4l7.2-7.2M96.1 332.5l7.2-7.2M96.1 328.5l7.2-7.2M96.1 324.4l7.2-7.2M96.1 320.3l7.2-7.2M96.1 316.5l7.2-7.2M96.1 312.4l7.2-7.2M96.1 308.3l7.2-7.2M96.1 304.5l7.2-7.2M96.1 300.4l7.2-7.2M96.1 296.3l7.2-7.2M96.1 292.2l7.2-7.2M96.1 288.4l7.2-7.2M96.1 284.3l7.2-7.2M96.1 280.2l7.2-7.2M96.1 276.4l7.2-7.2M96.1 272.3l7.2-7.2M96.1 268.2l7.2-7.2M96.1 264.4l7.2-7.2M96.1 260.3l7.2-7.2M96.1 256.2l7.2-7.2M96.1 252.1l7.2-7.2M96.1 248.3l7.2-7.2M96.1 244.2l7.2-7.2M96.1 240.1l7.2-7.2M96.1 236.3l7.2-7.2M96.1 232.2l7.2-7.2M96.1 228.1l7.2-7.2M96.1 224.3l6-6.2M96.1 220.2l4.1-4.1M96.1 216.1l2-2.1M96.1 212.1"/><path class="cls-8" d="M7.1 387.3h-7V66.4h7v320.9"/><path class="cls-5" d="M7.3 66.6l-.2-.2M7.3 70.7L3 66.4M7.3 74.5L.4 67.6M7.3 78.6L.4 71.7M7.3 82.7l-6.9-7M7.3 86.5L.4 79.6M7.3 90.6L.4 83.7M7.3 94.7l-6.9-7M7.3 98.8l-6.9-7M7.3 102.6L.4 95.7M7.3 106.7l-6.9-7M7.3 110.8l-6.9-7M7.3 114.6l-6.9-6.9M7.3 118.7l-6.9-7M7.3 122.8l-6.9-7M7.3 126.6l-6.9-6.9M7.3 130.7l-6.9-7M7.3 134.8l-6.9-7M7.3 138.9l-6.9-7M7.3 142.7l-6.9-7M7.3 146.8l-6.9-7M7.3 150.9l-6.9-7M7.3 154.7l-6.9-7M7.3 158.8l-6.9-7M7.3 162.9l-6.9-7M7.3 166.9L.4 160M7.3 170.8l-6.9-7M7.3 174.9l-6.9-7M7.3 178.9L.4 172M7.3 182.8l-6.9-7M7.3 186.9l-6.9-7M7.3 190.9L.4 184M7.3 194.8l-6.9-7M7.3 198.9l-6.9-7M7.3 202.9L.4 196M7.3 207l-6.9-6.9M7.3 210.9l-6.9-7M7.3 214.9L.4 208M7.3 219l-6.9-6.9M7.3 222.9l-6.9-7M7.3 226.9L.4 220M7.3 231l-6.9-6.9M7.3 234.9l-6.9-7M7.3 238.9L.4 232M7.3 243l-6.9-6.9M7.3 247.1l-6.9-7M7.3 250.9L.4 244M7.3 255l-6.9-6.9M7.3 259.1l-6.9-7M7.3 262.9L.4 256M7.3 267l-6.9-6.9M7.3 271.1l-6.9-7M7.3 274.9L.4 268M7.3 279l-6.9-6.9M7.3 283.1l-6.9-7M7.3 287.2l-6.9-7M7.3 291l-6.9-6.9M7.3 295.1l-6.9-7M7.3 299.2l-6.9-7M7.3 303l-6.9-6.9M7.3 307.1l-6.9-7M7.3 311.2l-6.9-7M7.3 315.3l-6.9-7M7.3 319.1l-6.9-7M7.3 323.2l-6.9-7M7.3 327.3l-6.9-7M7.3 331.1l-6.9-7M7.3 335.2l-6.9-7M7.3 339.3l-6.9-7M7.3 343.1l-6.9-7M7.3 347.2l-6.9-7M7.3 351.3l-6.9-7M7.3 355.3l-6.9-6.9M7.3 359.2l-6.9-7M7.3 363.3l-6.9-7M7.3 367.3l-6.9-6.9M7.3 371.2l-6.9-7M7.3 375.3l-6.9-7M7.3 379.3l-6.9-6.9M7.3 383.2l-6.9-7M7.1 387.3l-6.7-7M3.3 387.3l-2.9-2.9M5.2 387.3l2.1-2.2M1.1 387.3l6.2-6.3M.4 384.1l6.9-6.9M.4 380.1l6.9-7M.4 376l6.9-7M.4 372.1l6.9-6.9M.4 368.1l6.9-7M.4 364l6.9-7M.4 360.1l6.9-6.9M.4 356.1l6.9-7M.4 352l6.9-7M.4 347.9l6.9-7M.4 344.1l6.9-7M.4 340l6.9-7M.4 335.9l6.9-7M.4 332.1l6.9-7M.4 328l6.9-7M.4 323.9l6.9-7M.4 320.1l6.9-7M.4 316l6.9-7M.4 311.9l6.9-7M.4 307.8l6.9-6.9M.4 304l6.9-7M.4 299.9l6.9-7M.4 295.8l6.9-6.9M.4 292l6.9-7M.4 287.9l6.9-7M.4 283.8l6.9-6.9M.4 279.7l6.9-6.9M.4 275.9l6.9-7M.4 271.8l6.9-6.9M.4 267.7l6.9-6.9M.4 263.9l6.9-7M.4 259.8l6.9-6.9M.4 255.7l6.9-6.9M.4 251.9l6.9-7M.4 247.8l6.9-6.9M.4 243.7l6.9-6.9M.4 239.7l6.9-7M.4 235.8l6.9-6.9M.4 231.7l6.9-6.9M.4 227.7l6.9-7M.4 223.8l6.9-6.9M.4 219.7l6.9-6.9M.4 215.7l6.9-7M.4 211.8l6.9-6.9M.4 207.7l6.9-6.9M.4 203.7l6.9-7M.4 199.6l6.9-7M.4 195.7l6.9-6.9M.4 191.7l6.9-7M.4 187.6l6.9-7M.4 183.7l6.9-6.9M.4 179.7l6.9-7M.4 175.6l6.9-7M.4 171.7l6.9-6.9M.4 167.7l6.9-7M.4 163.6l6.9-7M.4 159.5l6.9-7M.4 155.7l6.9-7M.4 151.6l6.9-7M.4 147.5l6.9-7M.4 143.7l6.9-7M.4 139.6l6.9-7M.4 135.5l6.9-7M.4 131.4l6.9-6.9M.4 127.6l6.9-7M.4 123.5l6.9-7M.4 119.4l6.9-6.9M.4 115.6l6.9-7M.4 111.5l6.9-7M.4 107.4l6.9-6.9M.4 103.6l6.9-7M.4 99.5l6.9-7M.4 95.4l6.9-6.9M.4 91.3l6.9-6.9M.4 87.5l6.9-7M.4 83.4l6.9-6.9M.4 79.3l6.9-6.9M.4 75.5l6.9-7M.4 71.4l4.8-5M.4 67.3l.9-.9"/><path class="cls-8" d="M.1 387.3h7V66.4h-7v320.9"/><path class="cls-5" d="M7.3 66.6l-.2-.2M7.3 70.7L3 66.4M7.3 74.5L.4 67.6M7.3 78.6L.4 71.7M7.3 82.7l-6.9-7M7.3 86.5L.4 79.6M7.3 90.6L.4 83.7M7.3 94.7l-6.9-7M7.3 98.8l-6.9-7M7.3 102.6L.4 95.7M7.3 106.7l-6.9-7M7.3 110.8l-6.9-7M7.3 114.6l-6.9-6.9M7.3 118.7l-6.9-7M7.3 122.8l-6.9-7M7.3 126.6l-6.9-6.9M7.3 130.7l-6.9-7M7.3 134.8l-6.9-7M7.3 138.9l-6.9-7M7.3 142.7l-6.9-7M7.3 146.8l-6.9-7M7.3 150.9l-6.9-7M7.3 154.7l-6.9-7M7.3 158.8l-6.9-7M7.3 162.9l-6.9-7M7.3 166.9L.4 160M7.3 170.8l-6.9-7M7.3 174.9l-6.9-7M7.3 178.9L.4 172M7.3 182.8l-6.9-7M7.3 186.9l-6.9-7M7.3 190.9L.4 184M7.3 194.8l-6.9-7M7.3 198.9l-6.9-7M7.3 202.9L.4 196M7.3 207l-6.9-6.9M7.3 210.9l-6.9-7M7.3 214.9L.4 208M7.3 219l-6.9-6.9M7.3 222.9l-6.9-7M7.3 226.9L.4 220M7.3 231l-6.9-6.9M7.3 234.9l-6.9-7M7.3 238.9L.4 232M7.3 243l-6.9-6.9M7.3 247.1l-6.9-7M7.3 250.9L.4 244M7.3 255l-6.9-6.9M7.3 259.1l-6.9-7M7.3 262.9L.4 256M7.3 267l-6.9-6.9M7.3 271.1l-6.9-7M7.3 274.9L.4 268M7.3 279l-6.9-6.9M7.3 283.1l-6.9-7M7.3 287.2l-6.9-7M7.3 291l-6.9-6.9M7.3 295.1l-6.9-7M7.3 299.2l-6.9-7M7.3 303l-6.9-6.9M7.3 307.1l-6.9-7M7.3 311.2l-6.9-7M7.3 315.3l-6.9-7M7.3 319.1l-6.9-7M7.3 323.2l-6.9-7M7.3 327.3l-6.9-7M7.3 331.1l-6.9-7M7.3 335.2l-6.9-7M7.3 339.3l-6.9-7M7.3 343.1l-6.9-7M7.3 347.2l-6.9-7M7.3 351.3l-6.9-7M7.3 355.3l-6.9-6.9M7.3 359.2l-6.9-7M7.3 363.3l-6.9-7M7.3 367.3l-6.9-6.9M7.3 371.2l-6.9-7M7.3 375.3l-6.9-7M7.3 379.3l-6.9-6.9M7.3 383.2l-6.9-7M7.1 387.3l-6.7-7M3.3 387.3l-2.9-2.9M5.2 387.3l2.1-2.2M1.1 387.3l6.2-6.3M.4 384.1l6.9-6.9M.4 380.1l6.9-7M.4 376l6.9-7M.4 372.1l6.9-6.9M.4 368.1l6.9-7M.4 364l6.9-7M.4 360.1l6.9-6.9M.4 356.1l6.9-7M.4 352l6.9-7M.4 347.9l6.9-7M.4 344.1l6.9-7M.4 340l6.9-7M.4 335.9l6.9-7M.4 332.1l6.9-7M.4 328l6.9-7M.4 323.9l6.9-7M.4 320.1l6.9-7M.4 316l6.9-7M.4 311.9l6.9-7M.4 307.8l6.9-6.9M.4 304l6.9-7M.4 299.9l6.9-7M.4 295.8l6.9-6.9M.4 292l6.9-7M.4 287.9l6.9-7M.4 283.8l6.9-6.9M.4 279.7l6.9-6.9M.4 275.9l6.9-7M.4 271.8l6.9-6.9M.4 267.7l6.9-6.9M.4 263.9l6.9-7M.4 259.8l6.9-6.9M.4 255.7l6.9-6.9M.4 251.9l6.9-7M.4 247.8l6.9-6.9M.4 243.7l6.9-6.9M.4 239.7l6.9-7M.4 235.8l6.9-6.9M.4 231.7l6.9-6.9M.4 227.7l6.9-7M.4 223.8l6.9-6.9M.4 219.7l6.9-6.9M.4 215.7l6.9-7M.4 211.8l6.9-6.9M.4 207.7l6.9-6.9M.4 203.7l6.9-7M.4 199.6l6.9-7M.4 195.7l6.9-6.9M.4 191.7l6.9-7M.4 187.6l6.9-7M.4 183.7l6.9-6.9M.4 179.7l6.9-7M.4 175.6l6.9-7M.4 171.7l6.9-6.9M.4 167.7l6.9-7M.4 163.6l6.9-7M.4 159.5l6.9-7M.4 155.7l6.9-7M.4 151.6l6.9-7M.4 147.5l6.9-7M.4 143.7l6.9-7M.4 139.6l6.9-7M.4 135.5l6.9-7M.4 131.4l6.9-6.9M.4 127.6l6.9-7M.4 123.5l6.9-7M.4 119.4l6.9-6.9M.4 115.6l6.9-7M.4 111.5l6.9-7M.4 107.4l6.9-6.9M.4 103.6l6.9-7M.4 99.5l6.9-7M.4 95.4l6.9-6.9M.4 91.3l6.9-6.9M.4 87.5l6.9-7M.4 83.4l6.9-6.9M.4 79.3l6.9-6.9M.4 75.5l6.9-7M.4 71.4l4.8-5M.4 67.3l.9-.9"/><path class="cls-8" d="M95.9 251.9v-4.3H72.6v4.3h23.3"/><path class="cls-5" d="M72.9 250.9l3.3-3.3M76 251.9l4.3-4.3M80.3 251.9l4.3-4.3M84.6 251.9l4.3-4.3M88.9 251.9l4.4-4.3M93 251.9l3.1-2.9"/><path class="cls-8" d="M95.9 251.9v-4.3H72.6v4.3h23.3"/><path class="cls-5" d="M72.9 250.9l3.3-3.3M76 251.9l4.3-4.3M80.3 251.9l4.3-4.3M84.6 251.9l4.3-4.3M88.9 251.9l4.4-4.3M93 251.9l3.1-2.9"/><path class="cls-8" d="M30.4 247.6H7.1v4.3h23.3v-4.3"/><path class="cls-5" d="M7.3 248.5l.8-.9M8.1 251.9l4.3-4.3M12.4 251.9l4.3-4.3M16.5 251.9l4.3-4.3M20.8 251.9l4.3-4.3M25.1 251.9l4.3-4.3M29.4 251.9l1.2-1.2"/><path class="cls-8" d="M30.4 247.6H7.1v4.3h23.3v-4.3"/><path class="cls-5" d="M7.3 248.5l.8-.9M8.1 251.9l4.3-4.3M12.4 251.9l4.3-4.3M16.5 251.9l4.3-4.3M20.8 251.9l4.3-4.3M25.1 251.9l4.3-4.3M29.4 251.9l1.2-1.2"/><path class="cls-1" d="M30.4 251.9h42.2"/><path class="cls-6" d="M72.1 251.9h.5"/><path class="cls-1" d="M30.4 247.6h42.2"/><path class="cls-6" d="M72.1 247.6h.5M31.8 251.9v-4.3M71.4 251.9v-4.3"/><path class="cls-5" d="M31.7 271.7c10.9 0 19.8-9 19.8-19.8M51.6 251.9c0 10.9 9 19.8 19.8 19.8M31.8 251.9v19.9M71.4 251.9v19.9"/><path class="cls-8" d="M247.1 157.6l-4.1-4.3v4.3h4.1"/><path class="cls-5" d="M243.3 157.1l1.6-1.9M246.9 157.6l.2-.3"/><path class="cls-8" d="M247.1 157.6l-4.1-4.3v4.3h4.1"/><path class="cls-5" d="M243.3 157.1l1.6-1.9M246.9 157.6l.2-.3"/><path class="cls-8" d="M216.4 153.3h-4.3v4.3h4.3v-4.3"/><path class="cls-5" d="M212.3 154l.7-.7M212.8 157.6l3.8-3.6"/><path class="cls-8" d="M216.4 153.3h-4.3v4.3h4.3v-4.3"/><path class="cls-5" d="M212.3 154l.7-.7M212.8 157.6l3.8-3.6"/><path class="cls-1" d="M216.4 157.6H243M216.4 153.3H243"/><path class="cls-6" d="M218.3 157.6v-4.3M240.9 157.6v-4.3"/><path class="cls-5" d="M240.9 153.2c0-12.4-10.2-22.7-22.7-22.7M218.3 153.3v-22.8"/><path class="cls-8" d="M247.1 140.5l-4.1-4.3v17.1l4.1 4.3v-17.1"/><path class="cls-5" d="M243.3 140.1l1.6-2M243.3 144.4l3.8-4.1M243.3 148.7l4-4.1M243.3 152.8l4-4.1M244.9 155.2l2.4-2.2M247.1 157.3h.2"/><path class="cls-8" d="M247.1 140.5l-4.1-4.3v17.1l4.1 4.3v-17.1"/><path class="cls-5" d="M243.3 140.1l1.6-2M243.3 144.4l3.8-4.1M243.3 148.7l4-4.1M243.3 152.8l4-4.1M244.9 155.2l2.4-2.2M247.1 157.3h.2"/><path class="cls-7" d="M265.8 143.4h2.6v9.8h-2.6z"/><path class="cls-6" d="M265.8 143.4h2.6v9.8h-2.6zM265.8 143.2v10.3-10.3z"/><path class="cls-5" d="M265.8 144.1h-8.6"/><path class="cls-3" d="M265.8 152.5h-1.7l-1.6-.4-1.5-1-1.2-1-1.2-1.2-.7-1.4-.5-1.7-.2-1.7"/><path class="cls-1" d="M113.9 212.1v-34.6"/><path class="cls-6" d="M113.9 178v-.5"/><path class="cls-8" d="M368.3 217.1l-7.2-7.4h-9.6v7.4h16.8"/><path class="cls-5" d="M366.1 217.1l-7.4-7.4M362.1 217.1l-7.5-7.4M358.2 217.1l-6.5-6.5M354.1 217.1l-2.4-2.6M367.6 217.1l.5-.5M363.7 217.1l2.4-2.4M359.7 217.1l4.5-4.6M355.6 217.1l6.5-6.5M351.7 217.1l7.5-7.4M351.7 213l3.4-3.3"/><path class="cls-8" d="M368.3 217.1l-7.2-7.4h-9.6v7.4h16.8"/><path class="cls-5" d="M366.1 217.1l-7.4-7.4M362.1 217.1l-7.5-7.4M358.2 217.1l-6.5-6.5M354.1 217.1l-2.4-2.6M367.6 217.1l.5-.5M363.7 217.1l2.4-2.4M359.7 217.1l4.5-4.6M355.6 217.1l6.5-6.5M351.7 217.1l7.5-7.4M351.7 213l3.4-3.3"/><path class="cls-6" d="M318.9 215.7h29.5"/><path class="cls-1" d="M318.9 209.7h29.5"/><path class="cls-6" d="M347.9 209.7h.5"/><path class="cls-8" d="M315.7 209.7h3.2v6h-3.2"/><path class="cls-5" d="M319.1 209.9l-.5-.2M319.1 214l-3.1-3.1M316.7 215.7l-.7-.8M316.9 215.7l2.2-2M316 212.8l3.1-3.1"/><path class="cls-8" d="M351.5 209.7h-3.1v6h3.1"/><path class="cls-5" d="M351.7 210.6l-.9-.9M351.7 214.5l-3.1-3.2M348.6 215.7v-.3M349.1 215.7l2.6-2.7M348.6 212.3l2.4-2.6M19.6 60.6h59.3v3.6H19.6z"/><path class="cls-6" d="M89.9 56.8l-3.4-55H12.4L9 56.8"/><path class="cls-6" d="M91.6 56.8L88 .1H10.9L7.3 56.8"/><path class="cls-5" d="M152.3 66.5v1.9c0 .6-.2 1.2-.3 1.8-.1.6-.3 1.2-.5 1.8l-.6 1.8c-.2.6-.5 1.1-.8 1.7-.3.5-.6 1.1-1 1.6-.3.5-.7 1-1.1 1.5-.4.5-.8.9-1.3 1.4-.4.4-.9.9-1.4 1.3-.5.4-1 .8-1.5 1.1-.5.3-1.1.7-1.6 1-.5.3-1.1.6-1.7.8l-1.8.6c-.6.2-1.2.3-1.8.5l-1.8.3h-1.9M133.3 85.6V66.4M152.3 66.4l.2 1.4M152.5 69.3l.3.9M152.8 70.2l.2.5M153.3 71.9l.4 1.9M154.2 74.8l.5.7M154.7 75.5l.2.5M155.7 76.9l.9 1.7M157.3 79.3l.5.5M157.8 79.8l.5.5M159.3 81.3l1.4.9M161.7 82.7l.7.5M162.4 83.2l.5.2M164.1 83.9l1.6.7M166.9 84.9l.8.2M167.7 85.1h.7M169.6 85.3l1.7.3M171.3 85.6V66.4M171.3 66.9v-.5M49.2 387.4v-1.9c0-.6-.2-1.2-.3-1.8-.1-.6-.3-1.2-.5-1.8l-.6-1.8c-.2-.6-.5-1.1-.8-1.7s-.6-1.1-1-1.6c-.3-.5-.7-1-1.1-1.5-.4-.5-.8-.9-1.3-1.4-.4-.4-.9-.9-1.4-1.3-.5-.4-1-.8-1.5-1.1-.5-.3-1-.7-1.6-1-.5-.3-1.1-.6-1.7-.8l-1.8-.6c-.6-.2-1.2-.3-1.8-.5l-1.8-.3h-1.9M30.1 368.3v19M49.1 387.3l.2-1.5M49.6 384.4v-.7M49.6 383.7l.2-.8M50.1 381.7l.4-1.6M51.3 378.9l.2-.5M51.5 378.4l.5-.7M52.7 376.5l.7-1.2M54.6 373.8l1-.7M56.8 372.1l.7-.4M57.5 371.7l.5-.3M59.2 370.7l1.7-1M61.8 369.5l.7-.2M62.5 369.3l.8-.3M64.5 368.8l1.9-.3M68.1 368.3v19M68.1 386.8v.5M59.1 66.5c0 11 9.1 20.1 20.1 20.1M79.1 86.5V66.4"/><path class="cls-5" d="M59.2 66.4l-.5 4.1-1.2 3.6-1.9 3.6-2.4 3.1-3.1 2.4-3.4 1.9-3.8 1.2-3.9.2M39 86.5V66.4"/><path class="cls-6" d="M245.9 185.9v1M245.9 186.9l-.2.7M245.7 187.6l-.3.9M245.4 188.5v.3M244.7 190v.2M243.7 191.4l-.4.5M243.3 191.9l-.5.7M242.8 192.6l-.7.5M242.1 193.1l-.5.2M240.4 193.8l-.3.3M238.7 194.3h-.5M238.2 194.3l-.9.2M237.3 194.5l-.8-.2M236.5 194.3h-.4M234.6 194.1l-.2-.3M232.9 193.3l-.2-.2M232.7 193.1l-.7-.5M232 192.6l-.7-.7M231.3 191.9l-.5-.5M230.1 190.2l-.3-.2M229.3 188.8l-.2-.3M229.1 188.5v-.9M229.1 187.6l-.2-.7M228.9 186.9v-1M228.9 184.7l.2-.5M229.3 183l.3-.2M229.6 182.8l.2-.7M229.8 182.1l.5-.8M230.3 181.3l.5-.7M231.7 179.4h.3M233.2 178.5h.2M233.4 178.5l.7-.5M234.1 178l.8-.3M234.9 177.7l.7-.2M235.6 177.5h.2M237.3 177.5h.2M238.9 177.5l1 .2M239.9 177.7l.7.3M240.6 178l.7.5M241.3 178.5l.3.2M242.8 179.4l.2.3M244 180.6l.5.7M244.5 181.3l.4.8M244.9 182.1l.3.7M245.2 182.8l.2.2M245.7 184.5v.2"/><g><path class="cls-2" d="M239.2 60.1h29.5M239.2 56.8h29.5M239.2 71.7h29.5M239.2 66.4h29.5M172.7 60.1h47.8M172.7 56.8h47.8M172.7 71.7h47.8M172.7 66.4h47.8M80.5 60.1h51.4M80.5 56.8h51.4M80.5 71.7h51.4M80.5 66.4h51.4M.1 60.1h17.6M.1 56.8h17.6M.1 71.7h17.6M.1 66.4h17.6M17.7 66.4v5.3M17.7 56.8h1.9v3.3h-1.9M80.5 66.4v5.3M80.5 56.8h-1.6v3.3h1.6M133.8 56.8h-3.3M171 56.8h3.4M131.9 66.4v5.3M131.9 56.8h1.9v3.3h-1.9M172.7 66.4v5.3M172.7 56.8H171v3.3h1.7M222.1 56.8h-3.3M237.3 56.8h3.3M220.5 66.4v5.3M220.5 56.8h1.6v3.3h-1.6M239.2 66.4v5.3M239.2 56.8h-1.9v3.3h1.9M368.3 279.3v-62.2M361.1 271.8v-54.7M361.1 271.8v-54.7M368.3 279.3v-62.2M368.3 177.3V71.7M361.1 177.3V71.7M361.1 177.3V71.7M368.3 177.3V71.7M368.3 217.1v-4.3M368.3 217.1v-4.3M368.3 71.7v-5.3M361.1 207.3h6M361.1 179.4h6M361.1 207.3h6M361.1 212.8v-5.5M361.1 179.4h6M361.1 177.3v2.1M368.3 212.8h-1.2M368.3 177.3h-1.2M361.1 212.8v-5.5M361.1 177.3v2.1M367.1 207.3v5.5M367.1 179.4v-2.1M268.7 71.7v108M275.9 71.7v108M275.9 71.7v108M268.7 71.7v108M268.7 66.4v5.3M275.9 179.7v2.4h-6v-2.4h-1.2M275.8 209.8h-5.9v2.2h-1.2M28.7 393.5H.1M28.7 397.1H.1M28.7 382.2H.1M28.7 387.3H.1M103.1 393.5H69.5M103.1 397.1H69.5M103.1 382.2H69.5M103.1 387.3H69.5M67.8 397.1h3.4M30.6 397.1h-3.3M69.5 387.3v-5.1M69.5 397.1h-1.7v-3.6h1.7M28.7 387.3v-5.1M28.7 397.1h1.9v-3.6h-1.9M308.8 209.7h6.9M308.8 209.7h6.9M268.7 219h7.7M275.9 209.7h.5M275.9 209.7h.5M268.7 219h7.7M278.5 209.7v8.4M306.4 209.7v8.4M278.5 209.7v8.4M276.4 209.7h2.1M306.4 209.7v8.4M308.8 209.7h-2.4M276.4 219v-.9M308.8 219v-.9M276.4 209.7h2.1M308.8 209.7h-2.4M278.5 218.1h-2.1M306.4 218.1h2.4M315.7 271.8v-54.7M308.8 279.3V219M308.8 279.3V219M315.7 271.8v-54.7M301.8 60.1h66.5M301.8 56.8h66.5M301.8 71.7h59.3M301.8 66.4h66.5M268.7 60.1h14.4M268.7 56.8h14.4M275.9 71.7h7.2M268.7 66.4h14.4M284.8 56.8h-3.4M299.9 56.8h3.4M283.1 66.4v5.3M283.1 56.8h1.7v3.3h-1.7M301.8 66.4v5.3M301.8 56.8h-1.9v3.3h1.9M361.1 271.8h-45.4M368.3 279.3h-59.5M368.3 279.3h-59.5M361.1 271.8h-45.4M207 71.7v101.2M212.1 157.6v19.7M212.1 71.7v81.6M212.1 157.6v19.7M207 71.7v101.2M212.1 71.7v81.6M207 71.7h5.1M103.1 219h165.6M95.9 212.1h172.8M95.9 212.1h172.8M103.1 219h165.6M247.1 140.5h21.6M243 136.2h25.7M268.7 140.5v-4.3M243 136.2h25.7M247.1 140.5h21.6M207 177.3h5.1M207 177.3h5.1M113.9 177.3h66.5M118.2 172.9h62.2M118.2 172.9h62.2M113.9 177.3h66.5M180.4 177.3v-4.4M207 177.3v-4.4M113.9 71.7v105.6M118.2 71.7v101.2M118.2 71.7v101.2M113.9 71.7v105.6M113.9 71.7h4.3M103.1 387.3V219M95.9 247.6v-35.5M95.9 387.3V251.9M95.9 247.6v-35.5M103.1 387.3V219M95.9 387.3V251.9M103.1 387.3h-7.2M95.9 251.9v-4.3M7.1 247.6V66.4M7.1 387.3V251.9M.1 387.3V66.4M7.1 66.4h-7M.1 387.3V66.4M7.1 247.6V66.4M7.1 387.3V251.9M7.1 387.3h-7M7.1 251.9v-4.3M72.6 251.9h23.3M72.6 247.6h23.3M72.6 247.6h23.3M72.6 251.9h23.3M7.1 251.9h23.3M7.1 247.6h23.3M7.1 247.6h23.3M7.1 251.9h23.3M7.1 247.6v4.3M95.9 247.6v4.3M30.4 251.9v-4.3M72.6 251.9v-4.3M243 157.6h4.1M243 157.6h4.1M212.1 157.6h4.3M212.1 153.3h4.3M212.1 153.3h4.3M212.1 157.6h4.3M216.4 157.6v-4.3M243 157.6v-4.3M247.1 157.6v-17.1M243 153.3v-17.1M243 153.3v-17.1M247.1 157.6v-17.1M351.5 217.1h9.6M351.5 209.7h9.6M351.5 209.7h9.6M351.5 217.1h9.6M318.9 209.7v6M348.4 209.7v6M318.9 209.7v6M315.7 209.7h3.2M348.4 209.7v6M351.5 209.7h-3.1M315.7 217.1v-1.4M351.5 217.1v-1.4M315.7 209.7h3.2M351.5 209.7h-3.1M318.9 215.7h-3.2M348.4 215.7h3.1"/></g></g><g id="Mbel"><path class="cls-5" d="M9 181.3h10.8v56.6H9zM73.5 223.9c4 .6 7.9 1.5 11.7 2.7.9.3 1.6 1.1 1.7 2 .3 3.2-.3 6.4-1.6 9.3-.4.9-1.3 1.4-2.3 1.3-4-.2-8-.7-11.9-1.5v-2.2c.4-3.3 1-6.5 1.7-9.7.1-.7.4-1.3.6-2h.1"/><path class="cls-5" d="M74.6 223.7c.3-.2.6-.4.9-.5 1.5-.5 3-.5 4.5-.2 2 .4 4 1 5.9 1.8 1.4.6 2.6 1.3 3.8 2.2.7.5 1.1 1.3 1.1 2.1.2 3.4-.4 6.8-1.7 9.9-.3.8-1 1.4-1.8 1.6-1.4.4-2.9.7-4.3.7-2.1 0-4.1 0-6.1-.3-1.5-.2-2.9-.8-4.2-1.7-.3-.2-.5-.5-.7-.8M120.2 156.4h56.6V172h-56.6zM120.2 90.9h56.6v45.4h-56.6zM45.3 321h14.2v28.3H45.3zM90.4 361.8H71.7h-.2-.2-.1l-.1-.1-.1-.1v-.1-.2V336.2v-.2-.2-.1l.1-.1.1-.1h19.2v26.6"/><path class="cls-5" d="M94.1 366.3H71.7h-.2-.2-.1l-.1-.1-.1-.1v-.1-.2-3-.2-.2-.1l.1-.1.1-.1h23.2c.1 0 .2.1.3.2 0 0 .1.2.2.3V366c0 .1-.1.2-.2.3 0 0-.2.1-.3.2h-.3M90.4 335.1h4c.1 0 .2-.1.3-.2 0 0 .1-.2.2-.3v-25.2-.3c0-.1-.1-.2-.2-.3 0 0-.2-.1-.3-.2h-4M88.2 308.5v53.3"/><path class="cls-5" d="M90.4 308.5H71.7h-.2-.2-.1l-.1.1-.1.1v25.7c0 .1.1.2.2.3 0 0 .2.1.3.2h19v-26.6M94.1 303.9H71.7h-.2-.2-.1l-.1.1-.1.1V307.7c0 .1.1.2.2.3 0 0 .2.1.3.2h23c.1 0 .2-.1.3-.2s.1-.2.2-.3V304.6v-.3c0-.1-.1-.2-.2-.3s-.2-.1-.3-.2h-.3M90.4 335.1h4c.1 0 .2.1.3.2 0 0 .1.2.2.3v25.5c0 .1-.1.2-.2.3 0 0-.2.1-.3.2h-4M9 306.9h10.8v56.6H9zM30.4 99.7H53v51.1H30.4zM63 149.4v-12.8M54.4 149.4H63M63 136.6h-8.6M63 131.6v-12.7M54.4 131.6H63M63 118.9h-8.6M63 113.9v-12.7M54.4 113.9H63M63 101.2h-8.6M20.4 149.4v-12.8M28.9 149.4h-8.5M20.4 136.6h8.5M20.4 131.6v-12.7M28.9 131.6h-8.5M20.4 118.9h8.5M20.4 113.9v-12.7M28.9 113.9h-8.5M20.4 101.2h8.5"/></g><g id="Text"><path d="M221.1 106.5c1.1 0 1.7.5 1.7 1.4s-.1.6-.3.9c-.1.2-.3.2-.5.3.3 0 .4.1.6.2.3.2.4.6.4 1s-.2.9-.6 1.2c-.3.2-.7.3-1.3.3h-1.5v-5.3h1.5zm-.8 2.4h.7c.4 0 .7 0 .9-.2.2-.2.3-.4.3-.7s-.2-.6-.4-.8c-.2 0-.4-.1-.9-.1h-.6v1.8zm0 2.4h.7c.6 0 .8 0 1-.2.3-.1.4-.4.4-.8 0-.6-.4-.9-1.2-.9h-.8v1.8zM227 108.1h.6v3.7h-.6v-.7c-.4.6-.8.8-1.3.8-1 0-1.7-.8-1.7-1.9s.7-1.9 1.8-1.9 1 .2 1.3.7v-.6zm-2.1.9c-.2.3-.3.6-.3 1 0 .8.5 1.4 1.2 1.4s1.3-.6 1.3-1.4-.5-1.4-1.2-1.4-.7.1-.9.4zM231.8 106.5h.6v5.3h-.6v-.6c-.4.5-.8.7-1.3.7-1 0-1.7-.8-1.7-1.9s.7-2 1.7-2 1 .2 1.3.6v-2.2zm-2.4 3.5c0 .8.5 1.4 1.2 1.4s1.2-.6 1.2-1.4-.5-1.4-1.2-1.4-1.2.6-1.2 1.4zM219.2 119.6v-.5l2.8-3.7v3.6h.6v.6h-.6v1.2h-.6v-1.2h-2.1zm2.1-2.6l-1.5 2h1.5v-2zM224.4 120.5c0 .2-.2.4-.4.4s-.4-.2-.4-.4.2-.4.4-.4.4.2.4.4zM225.3 119.6v-.5l2.8-3.7v3.6h.6v.6h-.6v1.2h-.6v-1.2h-2.1zm2.1-2.6l-1.5 2h1.5v-2zM231.9 117.1v.5c.3-.4.6-.6 1-.6s.8.2 1 .7c.3-.5.6-.7 1.2-.7s.7.1.9.4c.2.2.2.4.2 1v2.4h-.6v-2.2c0-.4 0-.6-.1-.7-.1-.2-.4-.3-.6-.3-.5 0-.8.4-.8 1v2.2h-.6v-2.2c0-.4 0-.5-.1-.7-.1-.2-.3-.3-.6-.3-.5 0-.9.4-.9 1v2.2h-.6v-3.7h.6zM239.5 118.3v.4h-2l1.2-1.6c.3-.5.4-.6.4-.8 0-.3-.2-.4-.5-.4s-.5.2-.5.6h-.4c0-.6.4-1 1-1s1 .3 1 .8-.1.5-.4.9l-.8 1.1h1.1z"/><g><path d="M19.2 8.1c1.1 0 1.7.5 1.7 1.4s-.1.6-.3.9c-.1.2-.3.2-.5.3.3 0 .4.1.6.2.3.2.4.6.4 1s-.2.9-.6 1.2c-.3.2-.7.3-1.3.3h-1.5V8.1h1.5zm-.8 2.4h.7c.4 0 .7 0 .9-.2.2-.2.3-.4.3-.7s-.2-.6-.4-.8c-.2 0-.4-.1-.9-.1h-.6v1.8zm0 2.4h.7c.6 0 .8 0 1-.2.3-.1.4-.4.4-.8 0-.6-.4-.9-1.2-.9h-.8v1.8zM25.1 9.7h.6v3.7h-.6v-.7c-.4.6-.8.8-1.3.8-1 0-1.7-.8-1.7-1.9s.7-1.9 1.8-1.9 1 .2 1.3.7v-.6zm-2.1.9c-.2.3-.3.6-.3 1 0 .8.5 1.4 1.2 1.4s1.3-.6 1.3-1.4-.5-1.4-1.2-1.4-.7.1-.9.4zM27.1 13.4V8.1h.6v5.3h-.6zM29.6 13.4H29V8.1h.6v3.3l1.5-1.6h.8l-1.6 1.8 1.6 1.9h-.8l-1.5-1.6v1.6zM36.1 11.6c0 1.1-.8 1.9-1.9 1.9s-1.9-.8-1.9-1.9.8-1.9 1.9-1.9 1.9.8 1.9 1.9zm-3.1 0c0 .8.5 1.4 1.3 1.4s1.2-.6 1.2-1.4-.5-1.4-1.2-1.4-1.3.6-1.3 1.4zM37.8 9.7v.5c.3-.4.6-.6 1.1-.6s.6.1.9.3c.2.2.3.5.3 1v2.5h-.6V11c0-.3 0-.5-.1-.6-.1-.2-.3-.2-.6-.2s-.5.1-.7.3c-.2.2-.2.4-.2.7v2.2h-.6V9.7h.6zM18.7 19.3c.2 0 .3-.1.5-.1.9 0 1.6.7 1.6 1.6s-.8 1.7-1.7 1.7-1.7-.8-1.7-1.7.1-.7.4-1.2l1.5-2.5h.7l-1.4 2.1zm-.7 1.5c0 .6.5 1.1 1.1 1.1s1.1-.5 1.1-1.1-.5-1.1-1.1-1.1-1.1.5-1.1 1.1zM22.6 22c0 .2-.2.4-.4.4s-.4-.2-.4-.4.2-.4.4-.4.4.2.4.4zM26.9 20.8c0 .6-.1 1-.4 1.2-.3.3-.7.4-1.2.4s-1-.2-1.2-.5c-.3-.3-.4-.6-.4-1.4v-1.8c0-.7 0-1 .3-1.3.3-.3.7-.5 1.2-.5s.9.1 1.2.4c.3.3.4.6.4 1.2v2.1zm-2.5-.1c0 .6 0 .7.2.9.2.2.5.3.8.3s.6-.1.8-.4c.1-.2.2-.4.2-.8v-2c0-.4 0-.6-.3-.8-.2-.2-.4-.2-.7-.2s-.6.1-.8.4c-.1.2-.2.4-.2.8v1.8zM30.2 18.7v.5c.3-.4.6-.6 1-.6s.8.2 1 .7c.3-.5.6-.7 1.2-.7s.7.1.9.4c.2.2.2.4.2 1v2.4h-.6v-2.2c0-.4 0-.6-.1-.7-.1-.2-.4-.3-.6-.3-.5 0-.8.4-.8 1v2.2h-.6v-2.2c0-.4 0-.5-.1-.7-.1-.2-.3-.3-.6-.3-.5 0-.9.4-.9 1v2.2h-.6v-3.7h.6zM37.8 19.9v.4h-2l1.2-1.6c.3-.5.4-.6.4-.8 0-.3-.2-.4-.5-.4s-.5.2-.5.6H36c0-.6.4-1 1-1s1 .3 1 .8-.1.5-.4.9l-.8 1.1h1.1z"/></g><g><path d="M32.2 193.2h-.7v-5.3h.7v2.5l2.1-2.5h.8l-2.2 2.6 2.2 2.7h-.9l-2-2.5v2.5zM39.3 191.3c0 1.1-.8 1.9-1.9 1.9s-1.9-.8-1.9-1.9.8-1.9 1.9-1.9 1.9.8 1.9 1.9zm-3.1 0c0 .8.5 1.4 1.3 1.4s1.2-.6 1.2-1.4-.5-1.4-1.2-1.4-1.3.6-1.3 1.4zM43.3 192.7c-.4.4-.8.5-1.4.5-1.1 0-1.8-.8-1.8-1.9s.8-1.9 1.8-1.9 1 .2 1.3.6l-.4.4c-.3-.3-.6-.4-.9-.4-.7 0-1.2.6-1.2 1.4s.5 1.4 1.2 1.4.6-.1.9-.4l.4.4zM44.8 190c.3-.4.7-.6 1.1-.6s.7.1.9.3c.2.2.3.5.3 1v2.5h-.6v-2.4c0-.5-.2-.8-.7-.8s-.5.1-.7.3c-.2.2-.2.4-.2.7v2.2h-.6v-5.3h.6v2.2zM48.8 191.5c0 .3 0 .5.2.7.2.3.6.5 1 .5s.9-.2 1.1-.6l.5.2c-.3.6-.9 1-1.6 1-1.1 0-1.9-.8-1.9-1.9s.8-1.9 1.9-1.9 1.9.8 1.9 1.9v.2h-3.1zm2.4-.4c0-.3 0-.4-.2-.6-.2-.3-.6-.5-1-.5s-.8.2-1 .5c-.1.2-.2.3-.2.6h2.4zM53.5 189.5v.5c.3-.4.6-.6 1.1-.6s.6.1.9.3c.2.2.3.5.3 1v2.5h-.6v-2.4c0-.3 0-.5-.1-.6-.1-.2-.3-.2-.6-.2s-.5.1-.7.3c-.2.2-.2.4-.2.7v2.2H53v-3.7h.6zM57.1 194.5h-.4l.7-2.1.6.2-.8 1.9zM62.2 190.2h2.1v.6h-2.1v1.8h2.1v.6h-2.8v-5.3h2.8v.6h-2.1v1.8zM67.3 190.5c0-.4-.3-.6-.7-.6s-.7.2-.7.5.2.4.8.6c.5.1.7.2.9.4.2.2.3.4.3.7 0 .6-.5 1.1-1.3 1.1s-1.3-.4-1.4-1.1h.6c0 .4.3.6.8.6s.7-.2.7-.5-.2-.5-.8-.6c-.8-.2-1.2-.6-1.2-1.1s.5-1.1 1.3-1.1 1.3.4 1.3 1.1h-.6zM70.8 190.5c0-.4-.3-.6-.7-.6s-.7.2-.7.5.2.4.8.6c.5.1.7.2.9.4.2.2.3.4.3.7 0 .6-.5 1.1-1.3 1.1s-1.3-.4-1.4-1.1h.6c0 .4.3.6.8.6s.7-.2.7-.5-.2-.5-.8-.6c-.8-.2-1.2-.6-1.2-1.1s.5-1.1 1.3-1.1 1.3.4 1.3 1.1h-.6zM72.9 191.5c0 .3 0 .5.2.7.2.3.6.5 1 .5s.9-.2 1.1-.6l.5.2c-.3.6-.9 1-1.6 1-1.1 0-1.9-.8-1.9-1.9s.8-1.9 1.9-1.9 1.9.8 1.9 1.9v.2h-3.1zm2.4-.4c0-.3 0-.4-.2-.6-.2-.3-.6-.5-1-.5s-.8.2-1 .5c-.1.2-.2.3-.2.6h2.4zM77.7 189.5v.5c.3-.4.6-.6 1.1-.6s.6.1.9.3c.2.2.3.5.3 1v2.5h-.6v-2.4c0-.3 0-.5-.1-.6-.1-.2-.3-.2-.6-.2s-.5.1-.7.3c-.2.2-.2.4-.2.7v2.2h-.6v-3.7h.6zM34.2 201.6v.6h-3l1.9-2.7c.5-.8.7-1 .7-1.3 0-.5-.4-.8-.9-.8s-.7.2-.8.4v.6h-.6c0-1 .6-1.6 1.5-1.6s1.5.5 1.5 1.3-.2.8-.6 1.5l-1.4 2h1.9zM35.7 198.6v-.6l1.8-1.2v5.4h-.6v-4.4l-1.2.8zM40.1 201.8c0 .2-.2.4-.4.4s-.4-.2-.4-.4.2-.4.4-.4.4.2.4.4zM41.4 197.5v-.6h3l-1.6 2c.9 0 1.6.7 1.6 1.6s-.8 1.7-1.8 1.7-1.4-.5-1.6-1.3h.6c.1.4.5.7 1 .7s1.2-.5 1.2-1.1-.5-1.1-1.2-1.1-.4 0-.6.2l-.3-.2 1.5-1.9h-1.9zM47.8 198.5v.5c.3-.4.6-.6 1-.6s.8.2 1 .7c.3-.5.6-.7 1.2-.7s.7.1.9.4c.2.2.2.4.2 1v2.4h-.6V200c0-.4 0-.6-.1-.7-.1-.2-.4-.3-.6-.3-.5 0-.8.4-.8 1v2.2h-.6V200c0-.4 0-.5-.1-.7-.1-.2-.3-.3-.6-.3-.5 0-.9.4-.9 1v2.2h-.6v-3.7h.6zM55.4 199.7v.4h-2l1.2-1.6c.3-.5.4-.6.4-.8 0-.3-.2-.4-.5-.4s-.5.2-.5.6h-.4c0-.6.4-1 1-1s1 .3 1 .8-.1.5-.4.9l-.8 1.1h1.1z"/></g><g><path d="M42.5 283.9h.7l-1.6 5.3H41l-1.2-4.2-1.2 4.2H38l-1.6-5.3h.7l1.2 4.1 1.2-4.1h.6l1.1 4.1 1.2-4.1zM47.3 287.4c0 1.1-.8 1.9-1.9 1.9s-1.9-.8-1.9-1.9.8-1.9 1.9-1.9 1.9.8 1.9 1.9zm-3.1 0c0 .8.5 1.4 1.3 1.4s1.2-.6 1.2-1.4-.5-1.4-1.2-1.4-1.3.6-1.3 1.4zM49 286.1c.3-.4.7-.6 1.1-.6s.7.1.9.3c.2.2.3.5.3 1v2.5h-.6v-2.4c0-.5-.2-.8-.7-.8s-.5.1-.7.3c-.2.2-.2.4-.2.7v2.2h-.6V284h.6v2.2zM53.2 285.6v.5c.3-.4.6-.6 1.1-.6s.6.1.9.3c.2.2.3.5.3 1v2.5h-.6v-2.4c0-.3 0-.5-.1-.6-.1-.2-.3-.2-.6-.2s-.5.1-.7.3c-.2.2-.2.4-.2.7v2.2h-.6v-3.7h.6zM57.2 287.6c0 .3 0 .5.2.7.2.3.6.5 1 .5s.9-.2 1.1-.6l.5.2c-.3.6-.9 1-1.6 1-1.1 0-1.9-.8-1.9-1.9s.8-1.9 1.9-1.9 1.9.8 1.9 1.9v.2h-3.1zm2.4-.4c0-.3 0-.4-.2-.6-.2-.3-.6-.5-1-.5s-.8.2-1 .5c-.1.2-.2.3-.2.6h2.4zM62 285.6v.5c.3-.4.6-.6 1.1-.6s.6.1.9.3c.2.2.3.5.3 1v2.5h-.6v-2.4c0-.3 0-.5-.1-.6-.1-.2-.3-.2-.6-.2s-.5.1-.7.3c-.2.2-.2.4-.2.7v2.2h-.6v-3.7h.6zM37.2 294.7v-.6l1.8-1.2v5.4h-.6v-4.4l-1.2.8zM40.5 297.1v-.5l2.8-3.7v3.6h.6v.6h-.6v1.2h-.6v-1.2h-2.1zm2.1-2.6l-1.5 2h1.5v-2zM45.6 297.9c0 .2-.2.4-.4.4s-.4-.2-.4-.4.2-.4.4-.4.4.2.4.4zM49.4 293.6h-1.7v1.4c.3-.1.5-.2.8-.2.9 0 1.6.7 1.6 1.7s-.8 1.8-1.8 1.8-1.3-.4-1.6-1.1l.6-.2c.1.2.2.3.3.4.2.2.5.3.8.3.6 0 1.1-.5 1.1-1.2s-.5-1.1-1.2-1.1-.8.2-1.2.5v-3h2.3v.6zM53.3 294.6v.5c.3-.4.6-.6 1-.6s.8.2 1 .7c.3-.5.6-.7 1.2-.7s.7.1.9.4c.2.2.2.4.2 1v2.4H57v-2.2c0-.4 0-.6-.1-.7-.1-.2-.4-.3-.6-.3-.5 0-.8.4-.8 1v2.2h-.6v-2.2c0-.4 0-.5-.1-.7-.1-.2-.3-.3-.6-.3-.5 0-.9.4-.9 1v2.2h-.6v-3.7h.6zM60.9 295.8v.4h-2l1.2-1.6c.3-.5.4-.6.4-.8 0-.3-.2-.4-.5-.4s-.5.2-.5.6h-.4c0-.6.4-1 1-1s1 .3 1 .8-.1.5-.4.9l-.8 1.1H61z"/></g><g><path d="M331.1 247.6v.6h-2.5v-5.3h.7v4.7h1.9zM332.8 243.5c0 .2-.2.4-.4.4s-.4-.2-.4-.4.2-.4.4-.4.4.2.4.4zm0 4.7h-.6v-3.7h.6v3.7zM334.7 248.2h-.6V245h-.5v-.5h.5v-.5c0-.7.4-1.2 1-1.2h.2v.5c-.4 0-.6.2-.6.6v.5h.6v.5h-.6v3.2zM337.1 247.4c0 .2 0 .2.3.2h.3v.5h-.6c-.4 0-.6-.2-.6-.6v-2.6h-.5v-.5h.5v-1.2h.6v1.2h.6v.5h-.6v2.4z"/></g><g><path d="M136.6 191.5h2.1v.6h-2.1v1.8h2.1v.6h-2.8v-5.3h2.8v.6h-2.1v1.8zM140.5 190.7v.5c.3-.4.6-.6 1.1-.6s.6.1.9.3c.2.2.3.5.3 1v2.5h-.6V192c0-.3 0-.5-.1-.6-.1-.2-.3-.2-.6-.2s-.5.1-.7.3c-.2.2-.2.4-.2.7v2.2h-.6v-3.7h.6zM144.8 193.7c0 .2 0 .2.3.2h.3v.5h-.6c-.4 0-.6-.2-.6-.6v-2.6h-.5v-.5h.5v-1.2h.6v1.2h.6v.5h-.6v2.4zM147 190.7v.6c.1-.3.2-.4.3-.5.2-.1.4-.2.7-.2h.1v.6h-.2c-.3 0-.6.2-.8.4-.2.2-.2.4-.2.9v1.9h-.6v-3.7h.6zM149.4 192.8c0 .3 0 .5.2.7.2.3.6.5 1 .5s.9-.2 1.1-.6l.5.2c-.3.6-.9 1-1.6 1-1.1 0-1.9-.8-1.9-1.9s.8-1.9 1.9-1.9 1.9.8 1.9 1.9v.2h-3.1zm2.4-.4c0-.3 0-.4-.2-.6-.2-.3-.6-.5-1-.5s-.8.2-1 .5c-.1.2-.2.3-.2.6h2.4zm-.2-3.2l-.9 1.1h-.4l.7-1.1h.7zM153.9 192.8c0 .3 0 .5.2.7.2.3.6.5 1 .5s.9-.2 1.1-.6l.5.2c-.3.6-.9 1-1.6 1-1.1 0-1.9-.8-1.9-1.9s.8-1.9 1.9-1.9 1.9.8 1.9 1.9v.2h-3.1zm2.4-.4c0-.3 0-.4-.2-.6-.2-.3-.6-.5-1-.5s-.8.2-1 .5c-.1.2-.2.3-.2.6h2.4zM137.7 201.3c-.2 0-.3.1-.5.1-.9 0-1.6-.7-1.6-1.6s.8-1.7 1.7-1.7 1.7.7 1.7 1.7-.1.7-.4 1.2l-1.5 2.5h-.7l1.3-2.1zm-1.5-1.5c0 .6.5 1.1 1.1 1.1s1.1-.5 1.1-1.1-.5-1.1-1-1.1-1.1.5-1.1 1.1zM140.3 203.1c0 .2-.2.4-.4.4s-.4-.2-.4-.4.2-.4.4-.4.4.2.4.4zM141.3 199.8v-.6l1.8-1.2v5.4h-.6V199l-1.2.8zM147.3 199.7v.5c.3-.4.6-.6 1-.6s.8.2 1 .7c.3-.5.6-.7 1.2-.7s.7.1.9.4c.2.2.2.4.2 1v2.4h-.6v-2.2c0-.4 0-.6-.1-.7-.1-.2-.4-.3-.6-.3-.5 0-.8.4-.8 1v2.2h-.6v-2.2c0-.4 0-.5-.1-.7-.1-.2-.3-.3-.6-.3-.5 0-.9.4-.9 1v2.2h-.6v-3.7h.6zM154.9 200.9v.4h-2l1.2-1.6c.3-.5.4-.6.4-.8 0-.3-.2-.4-.5-.4s-.5.2-.5.6h-.4c0-.6.4-1 1-1s1 .3 1 .8-.1.5-.4.9l-.8 1.1h1.1z"/></g><g><path d="M145.2 113.4v.6h-3.8l3-4.8h-2.7v-.6h3.8l-3 4.8h2.7zM147.1 109.2c0 .2-.2.4-.4.4s-.4-.2-.4-.4.2-.4.4-.4.4.2.4.4zm0 4.7h-.6v-3.7h.6v3.7zM148.9 110.3v.5c.3-.4.6-.6 1-.6s.8.2 1 .7c.3-.5.6-.7 1.2-.7s.7.1.9.4c.2.2.2.4.2 1v2.4h-.6v-2.2c0-.4 0-.6-.1-.7-.1-.2-.4-.3-.6-.3-.5 0-.8.4-.8 1v2.2h-.6v-2.2c0-.4 0-.5-.1-.7-.1-.2-.3-.3-.6-.3-.5 0-.9.4-.9 1v2.2h-.6v-3.7h.6zM155.3 110.3v.5c.3-.4.6-.6 1-.6s.8.2 1 .7c.3-.5.6-.7 1.2-.7s.7.1.9.4c.2.2.2.4.2 1v2.4h-.6v-2.2c0-.4 0-.6-.1-.7-.1-.2-.4-.3-.6-.3-.5 0-.8.4-.8 1v2.2h-.6v-2.2c0-.4 0-.5-.1-.7-.1-.2-.3-.3-.6-.3-.5 0-.9.4-.9 1v2.2h-.6v-3.7h.6zM161.4 112.3c0 .3 0 .5.2.7.2.3.6.5 1 .5s.9-.2 1.1-.6l.5.2c-.3.6-.9 1-1.6 1-1.1 0-1.9-.8-1.9-1.9s.8-1.9 1.9-1.9 1.9.8 1.9 1.9v.2h-3.1zm2.4-.4c0-.3 0-.4-.2-.6-.2-.3-.6-.5-1-.5s-.8.2-1 .5c-.1.2-.2.3-.2.6h2.4zM166.1 110.3v.6c.1-.3.2-.4.3-.5.2-.1.4-.2.7-.2h.1v.6h-.2c-.3 0-.6.2-.8.4-.2.2-.2.4-.2.9v1.9h-.6v-3.7h.6zM142.2 119.4v-.6l1.8-1.2v5.4h-.6v-4.4l-1.2.8zM145.7 119.4v-.6l1.8-1.2v5.4h-.6v-4.4l-1.2.8zM150.1 122.6c0 .2-.2.4-.4.4s-.4-.2-.4-.4.2-.4.4-.4.4.2.4.4zM151.4 118.3v-.6h3l-1.6 2c.9 0 1.6.7 1.6 1.6s-.8 1.7-1.8 1.7-1.4-.5-1.6-1.3h.6c.1.4.5.7 1 .7s1.2-.5 1.2-1.1-.5-1.1-1.2-1.1-.4 0-.6.2l-.3-.2 1.5-1.9h-1.9zM157.8 119.3v.5c.3-.4.6-.6 1-.6s.8.2 1 .7c.3-.5.6-.7 1.2-.7s.7.1.9.4c.2.2.2.4.2 1v2.4h-.6v-2.2c0-.4 0-.6-.1-.7-.1-.2-.4-.3-.6-.3-.5 0-.8.4-.8 1v2.2h-.6v-2.2c0-.4 0-.5-.1-.7-.1-.2-.3-.3-.6-.3-.5 0-.9.4-.9 1v2.2h-.6v-3.7h.6zM165.4 120.4v.4h-2l1.2-1.6c.3-.5.4-.6.4-.8 0-.3-.2-.4-.5-.4s-.5.2-.5.6h-.4c0-.6.4-1 1-1s1 .3 1 .8-.1.5-.4.9l-.8 1.1h1.1z"/></g></g></svg>