<svg xmlns="http://www.w3.org/2000/svg" viewBox="0 0 311.7 340.1"><defs><style>.cls-1{stroke-dasharray:0 0 0 0 2.9 1.4 .2 1.4}.cls-1,.cls-2,.cls-3,.cls-4,.cls-5,.cls-6,.cls-7,.cls-8{fill:none;stroke-linecap:round;stroke-linejoin:round}.cls-1,.cls-8{stroke:#194164;stroke-width:.3px}.cls-2{stroke:#646464}.cls-2,.cls-3,.cls-7{stroke-width:.1px}.cls-3{stroke-dasharray:0 0 1.4 1.4}.cls-3,.cls-7{stroke:#969696}.cls-4{stroke:#000;stroke-width:.3px}.cls-5,.cls-6{stroke:#b8b8b8;stroke-width:0}.cls-6{stroke:#9f9f9f}.cls-9{fill:#fff}.cls-10,.cls-9{fill-rule:evenodd}</style></defs><g id="Plan"><path class="cls-8" d="M108.6 35.4h17.5v69.4h-17.5zM123.7 53.2h2.4M123.7 70.2h2.4M123.7 87h2.4M123.7 104.1h2.4"/><path class="cls-8" d="M102.4 104.8h16.3v.5h-16.3zM118.2 105.3h.5v17h-.5z"/><path class="cls-8" d="M102.9 121.6h15.4v.7h-15.4zM102.9 105.3h15.4v.5h-15.4zM102.4 105.3h.5v17h-.5z"/><path class="cls-9" d="M113.8 103.2h9.3c.1 0 .3 0 .4-.1.1 0 .2-.1.3-.2.1 0 .2-.2.3-.2 0 0 .2-.2.2-.3s.1-.2.2-.3c0-.1 0-.2.1-.4V90.1v-.4c0-.1 0-.3-.1-.4 0-.1-.1-.2-.2-.3 0-.1-.2-.2-.2-.3 0 0-.2-.2-.3-.2-.1 0-.2-.1-.3-.2-.1 0-.2 0-.4-.1h-9.3c-.3 0-.5 0-.8.2-.2 0-.5.2-.6.4-.2.2-.3.4-.4.6-.1.2-.2.5-.2.8v11.2c0 .3 0 .5.2.8 0 .2.2.5.4.6.2.2.4.3.6.4.2.1.5.2.8.2"/><path class="cls-8" d="M113.8 103.2h9.3c.1 0 .3 0 .4-.1.1 0 .2-.1.3-.2.1 0 .2-.2.3-.2 0 0 .2-.2.2-.3s.1-.2.2-.3c0-.1 0-.2.1-.4V90.1v-.4c0-.1 0-.3-.1-.4 0-.1-.1-.2-.2-.3 0-.1-.2-.2-.2-.3 0 0-.2-.2-.3-.2-.1 0-.2-.1-.3-.2-.1 0-.2 0-.4-.1h-9.3c-.3 0-.5 0-.8.2-.2 0-.5.2-.6.4-.2.2-.3.4-.4.6-.1.2-.2.5-.2.8v11.2c0 .3 0 .5.2.8 0 .2.2.5.4.6.2.2.4.3.6.4.2.1.5.2.8.2"/><path class="cls-9" d="M116.3 95.7c0-.7-.5-1.2-1.2-1.2s-1.2.5-1.2 1.2.5 1.2 1.2 1.2 1.2-.5 1.2-1.2"/><path class="cls-8" d="M116.3 95.7c0-.7-.5-1.2-1.2-1.2s-1.2.5-1.2 1.2.5 1.2 1.2 1.2 1.2-.5 1.2-1.2"/><path class="cls-9" d="M110.1 53.7v15.8h14.6V53.7h-14.6"/><path class="cls-8" d="M110.1 53.7h14.6v15.8h-14.6z"/><path class="cls-9" d="M122.8 57.5c0-1.6-1.3-2.9-2.9-2.9s-2.9 1.3-2.9 2.9 1.3 2.9 2.9 2.9 2.9-1.3 2.9-2.9"/><path class="cls-8" d="M122.8 57.5c0-1.6-1.3-2.9-2.9-2.9s-2.9 1.3-2.9 2.9 1.3 2.9 2.9 2.9 2.9-1.3 2.9-2.9"/><path class="cls-9" d="M115.3 56.5c0-1.2-1-2.2-2.2-2.2s-2.2 1-2.2 2.2 1 2.2 2.2 2.2 2.2-1 2.2-2.2"/><path class="cls-8" d="M115.3 56.5c0-1.2-1-2.2-2.2-2.2s-2.2 1-2.2 2.2 1 2.2 2.2 2.2 2.2-1 2.2-2.2"/><path class="cls-9" d="M122.3 65.2c0-1.2-1-2.2-2.3-2.2s-2.3 1-2.3 2.2 1 2.2 2.3 2.2 2.3-1 2.3-2.2"/><path class="cls-8" d="M122.3 65.2c0-1.2-1-2.2-2.3-2.2s-2.3 1-2.3 2.2 1 2.2 2.3 2.2 2.3-1 2.3-2.2"/><path class="cls-9" d="M116.3 64.9c0-1.6-1.2-2.9-2.8-2.9s-2.8 1.3-2.8 2.9 1.2 2.9 2.8 2.9 2.8-1.3 2.8-2.9"/><path class="cls-8" d="M116.3 64.9c0-1.6-1.2-2.9-2.8-2.9s-2.8 1.3-2.8 2.9 1.2 2.9 2.8 2.9 2.8-1.3 2.8-2.9M123.7 36.1h2.4M102.4 34.9h16.3v.5h-16.3zM118.2 17.9h.5v17h-.5z"/><path class="cls-8" d="M102.9 17.9h15.4v.7h-15.4zM102.9 34.5h15.4v.5h-15.4zM118.2 16.7h.5v1.2h-.5zM102.4 17.9h.5v17h-.5zM101.2 122.3h17.5v.5h-17.5zM100.2 103.8h7.7"/><path class="cls-4" d="M100.2 104.5h8.4"/><path class="cls-8" d="M100.2 102.4h6.3M100.2 103.8h7.7M100.2 104.5h8.4M100.2 102.4h6.3"/><path class="cls-4" d="M100.2 103.8v.7"/><path class="cls-8" d="M100.2 102.4v1.4M107.9 103.8V36.4"/><path class="cls-4" d="M108.6 104.5V35.7"/><path class="cls-8" d="M106.5 102.4V37.8M107.9 103.8V36.4M108.6 104.5V35.7M106.5 102.4V37.8M107.9 36.4h-7.7"/><path class="cls-4" d="M108.6 35.7h-8.4"/><path class="cls-8" d="M106.5 37.8h-6.3M107.9 36.4h-7.7"/><path class="cls-4" d="M100.2 36.4v-.7"/><path class="cls-8" d="M100.2 37.8v-1.4M108.6 35.7h-8.4M106.5 37.8h-6.3"/><path class="cls-1" d="M118.7 35.4v69.4"/><path class="cls-8" d="M118.7 104.3v.5"/><path class="cls-9" d="M111.2 275.5h27v.4h15.4v-.4h15.2v.4h15.4v-.4h51v.4h24.1v-.4h15.2v.4h15.4v-.4h17.6v59.9H111.2"/><path class="cls-7" d="M117.3 332.1h10.5M138.6 332.1h10.6M160.2 332.1h10.6M181.6 332.1h10.5M203.2 332.1h10.5M224.5 332.1h10.6M246.1 332.1h10.6M267.5 332.1h10.8M289.1 332.1h10.6M117.3 324.6h10.5M138.6 324.6h10.6M160.2 324.6h10.6M181.6 324.6h10.5M203.2 324.6h10.5M224.5 324.6h10.6M246.1 324.6h10.6M267.5 324.6h10.8M289.1 324.6h10.6M117.3 317.4h10.5M138.6 317.4h10.6M160.2 317.4h10.6M181.6 317.4h10.5M203.2 317.4h10.5M224.5 317.4h10.6M246.1 317.4h10.6M267.5 317.4h10.8M289.1 317.4h10.6M117.3 310.2h10.5M138.6 310.2h10.6M160.2 310.2h10.6M181.6 310.2h10.5M203.2 310.2h10.5M224.5 310.2h10.6M246.1 310.2h10.6M267.5 310.2h10.8M289.1 310.2h10.6M117.3 303h10.5M138.6 303h10.6M160.2 303h10.6M181.6 303h10.5M203.2 303h10.5M224.5 303h10.6M246.1 303h10.6M267.5 303h10.8M289.1 303h10.6M117.3 295.8h10.5M138.6 295.8h10.6M160.2 295.8h10.6M181.6 295.8h10.5M203.2 295.8h10.5M224.5 295.8h10.6M246.1 295.8h10.6M267.5 295.8h10.8M289.1 295.8h10.6M117.3 288.4h10.5M138.6 288.4h10.6M160.2 288.4h10.6M181.6 288.4h10.5M203.2 288.4h10.5M224.5 288.4h10.6M246.1 288.4h10.6M267.5 288.4h10.8M289.1 288.4h10.6M117.3 281.2h10.5M138.6 281.2h10.6M160.2 281.2h10.6M181.6 281.2h10.5M203.2 281.2h10.5M224.5 281.2h10.6M246.1 281.2h10.6M267.5 281.2h10.8M289.1 281.2h10.6M117.3 333.7v-1.6M117.3 326.5v-1.9M117.3 319.1v-1.7M117.3 311.9v-1.7M117.3 304.7V303M117.3 297.5v-1.7M117.3 290.1v-1.7M117.3 282.9v-1.7M117.3 275.7v-.3M138.6 333.7v-1.6M138.6 326.5v-1.9M138.6 319.1v-1.7M138.6 311.9v-1.7M138.6 304.7V303M138.6 297.5v-1.7M138.6 290.1v-1.7M138.6 282.9v-1.7M160.2 333.7v-1.6M160.2 326.5v-1.9M160.2 319.1v-1.7M160.2 311.9v-1.7M160.2 304.7V303M160.2 297.5v-1.7M160.2 290.1v-1.7M160.2 282.9v-1.7M160.2 275.7v-.3M181.6 333.7v-1.6M181.6 326.5v-1.9M181.6 319.1v-1.7M181.6 311.9v-1.7M181.6 304.7V303M181.6 297.5v-1.7M181.6 290.1v-1.7M181.6 282.9v-1.7M203.2 333.7v-1.6M203.2 326.5v-1.9M203.2 319.1v-1.7M203.2 311.9v-1.7M203.2 304.7V303M203.2 297.5v-1.7M203.2 290.1v-1.7M203.2 282.9v-1.7M203.2 275.7v-.3M224.5 333.7v-1.6M224.5 326.5v-1.9M224.5 319.1v-1.7M224.5 311.9v-1.7M224.5 304.7V303M224.5 297.5v-1.7M224.5 290.1v-1.7M224.5 282.9v-1.7M224.5 275.7v-.3M246.1 333.7v-1.6M246.1 326.5v-1.9M246.1 319.1v-1.7M246.1 311.9v-1.7M246.1 304.7V303M246.1 297.5v-1.7M246.1 290.1v-1.7M246.1 282.9v-1.7M267.5 333.7v-1.6M267.5 326.5v-1.9M267.5 319.1v-1.7M267.5 311.9v-1.7M267.5 304.7V303M267.5 297.5v-1.7M267.5 290.1v-1.7M267.5 282.9v-1.7M267.5 275.7v-.3M289.1 333.7v-1.6M289.1 326.5v-1.9M289.1 319.1v-1.7M289.1 311.9v-1.7M289.1 304.7V303M289.1 297.5v-1.7M289.1 290.1v-1.7M289.1 282.9v-1.7M111.5 332.1h5.5M127.8 332.1h10.6M149.2 332.1H160M170.8 332.1h10.5M192.1 332.1h10.8M213.7 332.1h10.6M235.1 332.1h10.8M256.7 332.1h10.6M278.3 332.1h10.6M299.7 332.1h8.1M111.5 324.6h5.5M127.8 324.6h10.6M149.2 324.6H160M170.8 324.6h10.5M192.1 324.6h10.8M213.7 324.6h10.6M235.1 324.6h10.8M256.7 324.6h10.6M278.3 324.6h10.6M299.7 324.6h8.1M111.5 317.4h5.5M127.8 317.4h10.6M149.2 317.4H160M170.8 317.4h10.5M192.1 317.4h10.8M213.7 317.4h10.6M235.1 317.4h10.8M256.7 317.4h10.6M278.3 317.4h10.6M299.7 317.4h8.1M111.5 310.2h5.5M127.8 310.2h10.6M149.2 310.2H160M170.8 310.2h10.5M192.1 310.2h10.8M213.7 310.2h10.6M235.1 310.2h10.8M256.7 310.2h10.6M278.3 310.2h10.6M299.7 310.2h8.1M111.5 303h5.5M127.8 303h10.6M149.2 303H160M170.8 303h10.5M192.1 303h10.8M213.7 303h10.6M235.1 303h10.8M256.7 303h10.6M278.3 303h10.6M299.7 303h8.1M111.5 295.8h5.5M127.8 295.8h10.6M149.2 295.8H160M170.8 295.8h10.5M192.1 295.8h10.8M213.7 295.8h10.6M235.1 295.8h10.8M256.7 295.8h10.6M278.3 295.8h10.6M299.7 295.8h8.1M111.5 288.4h5.5M127.8 288.4h10.6M149.2 288.4H160M170.8 288.4h10.5M192.1 288.4h10.8M213.7 288.4h10.6M235.1 288.4h10.8M256.7 288.4h10.6M278.3 288.4h10.6M299.7 288.4h8.1M111.5 281.2h5.5M127.8 281.2h10.6M149.2 281.2H160M170.8 281.2h10.5M192.1 281.2h10.8M213.7 281.2h10.6M235.1 281.2h10.8M256.7 281.2h10.6M278.3 281.2h10.6M299.7 281.2h8.1M117 333.7v-1.6M117 326.5v-1.9M117 319.1v-1.7M117 311.9v-1.7M117 304.7V303M117 297.5v-1.7M117 290.1v-1.7M117 282.9v-1.7M117 275.7v-.3M138.4 333.7v-1.6M138.4 326.5v-1.9M138.4 319.1v-1.7M138.4 311.9v-1.7M138.4 304.7V303M138.4 297.5v-1.7M138.4 290.1v-1.7M138.4 282.9v-1.7M160 333.7v-1.6M160 326.5v-1.9M160 319.1v-1.7M160 311.9v-1.7M160 304.7V303M160 297.5v-1.7M160 290.1v-1.7M160 282.9v-1.7M160 275.7v-.3M181.3 333.7v-1.6M181.3 326.5v-1.9M181.3 319.1v-1.7M181.3 311.9v-1.7M181.3 304.7V303M181.3 297.5v-1.7M181.3 290.1v-1.7M181.3 282.9v-1.7M202.9 333.7v-1.6M202.9 326.5v-1.9M202.9 319.1v-1.7M202.9 311.9v-1.7M202.9 304.7V303M202.9 297.5v-1.7M202.9 290.1v-1.7M202.9 282.9v-1.7M202.9 275.7v-.3M224.3 333.7v-1.6M224.3 326.5v-1.9M224.3 319.1v-1.7M224.3 311.9v-1.7M224.3 304.7V303M224.3 297.5v-1.7M224.3 290.1v-1.7M224.3 282.9v-1.7M224.3 275.7v-.3M245.9 333.7v-1.6M245.9 326.5v-1.9M245.9 319.1v-1.7M245.9 311.9v-1.7M245.9 304.7V303M245.9 297.5v-1.7M245.9 290.1v-1.7M245.9 282.9v-1.7M267.3 333.7v-1.6M267.3 326.5v-1.9M267.3 319.1v-1.7M267.3 311.9v-1.7M267.3 304.7V303M267.3 297.5v-1.7M267.3 290.1v-1.7M267.3 282.9v-1.7M267.3 275.7v-.3M288.9 333.7v-1.6M288.9 326.5v-1.9M288.9 319.1v-1.7M288.9 311.9v-1.7M288.9 304.7V303M288.9 297.5v-1.7M288.9 290.1v-1.7M288.9 282.9v-1.7M117.3 335.4h10.5M138.6 335.4h10.6M160.2 335.4h10.6M181.6 335.4h10.5M203.2 335.4h10.5M224.5 335.4h10.6M246.1 335.4h10.6M267.5 335.4h10.8M289.1 335.4h10.6M117.3 328.2h10.5M138.6 328.2h10.6M160.2 328.2h10.6M181.6 328.2h10.5M203.2 328.2h10.5M224.5 328.2h10.6M246.1 328.2h10.6M267.5 328.2h10.8M289.1 328.2h10.6M117.3 320.8h10.5M138.6 320.8h10.6M160.2 320.8h10.6M181.6 320.8h10.5M203.2 320.8h10.5M224.5 320.8h10.6M246.1 320.8h10.6M267.5 320.8h10.8M289.1 320.8h10.6M117.3 313.6h10.5M138.6 313.6h10.6M160.2 313.6h10.6M181.6 313.6h10.5M203.2 313.6h10.5M224.5 313.6h10.6M246.1 313.6h10.6M267.5 313.6h10.8M289.1 313.6h10.6M117.3 306.4h10.5M138.6 306.4h10.6M160.2 306.4h10.6M181.6 306.4h10.5M203.2 306.4h10.5M224.5 306.4h10.6M246.1 306.4h10.6M267.5 306.4h10.8M289.1 306.4h10.6M117.3 299.2h10.5M138.6 299.2h10.6M160.2 299.2h10.6M181.6 299.2h10.5M203.2 299.2h10.5M224.5 299.2h10.6M246.1 299.2h10.6M267.5 299.2h10.8M289.1 299.2h10.6M117.3 291.7h10.5M138.6 291.7h10.6M160.2 291.7h10.6M181.6 291.7h10.5M203.2 291.7h10.5M224.5 291.7h10.6M246.1 291.7h10.6M267.5 291.7h10.8M289.1 291.7h10.6M117.3 284.5h10.5M138.6 284.5h10.6M160.2 284.5h10.6M181.6 284.5h10.5M203.2 284.5h10.5M224.5 284.5h10.6M246.1 284.5h10.6M267.5 284.5h10.8M289.1 284.5h10.6M117.3 277.3h10.5M138.6 277.3h10.6M160.2 277.3h10.6M181.6 277.3h10.5M203.2 277.3h10.5M224.5 277.3h10.6M246.1 277.3h10.6M267.5 277.3h10.8M289.1 277.3h10.6M117.3 335.4v-1.7M117.3 328.2v-1.7M117.3 320.8v-1.7M117.3 313.6v-1.7M117.3 306.4v-1.7M117.3 299.2v-1.7M117.3 291.7v-1.6M117.3 284.5v-1.6M117.3 277.3v-1.6M138.6 335.4v-1.7M138.6 328.2v-1.7M138.6 320.8v-1.7M138.6 313.6v-1.7M138.6 306.4v-1.7M138.6 299.2v-1.7M138.6 291.7v-1.6M138.6 284.5v-1.6M138.6 277.3v-1.4M160.2 335.4v-1.7M160.2 328.2v-1.7M160.2 320.8v-1.7M160.2 313.6v-1.7M160.2 306.4v-1.7M160.2 299.2v-1.7M160.2 291.7v-1.6M160.2 284.5v-1.6M160.2 277.3v-1.6M181.6 335.4v-1.7M181.6 328.2v-1.7M181.6 320.8v-1.7M181.6 313.6v-1.7M181.6 306.4v-1.7M181.6 299.2v-1.7M181.6 291.7v-1.6M181.6 284.5v-1.6M181.6 277.3v-1.4M203.2 335.4v-1.7M203.2 328.2v-1.7M203.2 320.8v-1.7M203.2 313.6v-1.7M203.2 306.4v-1.7M203.2 299.2v-1.7M203.2 291.7v-1.6M203.2 284.5v-1.6M203.2 277.3v-1.6M224.5 335.4v-1.7M224.5 328.2v-1.7M224.5 320.8v-1.7M224.5 313.6v-1.7M224.5 306.4v-1.7M224.5 299.2v-1.7M224.5 291.7v-1.6M224.5 284.5v-1.6M224.5 277.3v-1.6M246.1 335.4v-1.7M246.1 328.2v-1.7M246.1 320.8v-1.7M246.1 313.6v-1.7M246.1 306.4v-1.7M246.1 299.2v-1.7M246.1 291.7v-1.6M246.1 284.5v-1.6M246.1 277.3v-1.4M267.5 335.4v-1.7M267.5 328.2v-1.7M267.5 320.8v-1.7M267.5 313.6v-1.7M267.5 306.4v-1.7M267.5 299.2v-1.7M267.5 291.7v-1.6M267.5 284.5v-1.6M267.5 277.3v-1.6M289.1 335.4v-1.7M289.1 328.2v-1.7M289.1 320.8v-1.7M289.1 313.6v-1.7M289.1 306.4v-1.7M289.1 299.2v-1.7M289.1 291.7v-1.6M289.1 284.5v-1.6M289.1 277.3v-1.4M117 335.4v-1.7M117 328.2v-1.7M117 320.8v-1.7M117 313.6v-1.7M117 306.4v-1.7M117 299.2v-1.7M117 291.7v-1.6M117 284.5v-1.6M117 277.3v-1.6M138.4 335.4v-1.7M138.4 328.2v-1.7M138.4 320.8v-1.7M138.4 313.6v-1.7M138.4 306.4v-1.7M138.4 299.2v-1.7M138.4 291.7v-1.6M138.4 284.5v-1.6M138.4 277.3v-1.4M160 335.4v-1.7M160 328.2v-1.7M160 320.8v-1.7M160 313.6v-1.7M160 306.4v-1.7M160 299.2v-1.7M160 291.7v-1.6M160 284.5v-1.6M160 277.3v-1.6M181.3 335.4v-1.7M181.3 328.2v-1.7M181.3 320.8v-1.7M181.3 313.6v-1.7M181.3 306.4v-1.7M181.3 299.2v-1.7M181.3 291.7v-1.6M181.3 284.5v-1.6M181.3 277.3v-1.4M202.9 335.4v-1.7M202.9 328.2v-1.7M202.9 320.8v-1.7M202.9 313.6v-1.7M202.9 306.4v-1.7M202.9 299.2v-1.7M202.9 291.7v-1.6M202.9 284.5v-1.6M202.9 277.3v-1.6M224.3 335.4v-1.7M224.3 328.2v-1.7M224.3 320.8v-1.7M224.3 313.6v-1.7M224.3 306.4v-1.7M224.3 299.2v-1.7M224.3 291.7v-1.6M224.3 284.5v-1.6M224.3 277.3v-1.6M245.9 335.4v-1.7M245.9 328.2v-1.7M245.9 320.8v-1.7M245.9 313.6v-1.7M245.9 306.4v-1.7M245.9 299.2v-1.7M245.9 291.7v-1.6M245.9 284.5v-1.6M245.9 277.3v-1.4M267.3 335.4v-1.7M267.3 328.2v-1.7M267.3 320.8v-1.7M267.3 313.6v-1.7M267.3 306.4v-1.7M267.3 299.2v-1.7M267.3 291.7v-1.6M267.3 284.5v-1.6M267.3 277.3v-1.6M288.9 335.4v-1.7M288.9 328.2v-1.7M288.9 320.8v-1.7M288.9 313.6v-1.7M288.9 306.4v-1.7M288.9 299.2v-1.7M288.9 291.7v-1.6M288.9 284.5v-1.6M288.9 277.3v-1.4M111.5 335.4h5.5M127.8 335.4h10.6M149.2 335.4H160M170.8 335.4h10.5M192.1 335.4h10.8M213.7 335.4h10.6M235.1 335.4h10.8M256.7 335.4h10.6M278.3 335.4h10.6M299.7 335.4h8.1M111.5 328.2h5.5M127.8 328.2h10.6M149.2 328.2H160M170.8 328.2h10.5M192.1 328.2h10.8M213.7 328.2h10.6M235.1 328.2h10.8M256.7 328.2h10.6M278.3 328.2h10.6M299.7 328.2h8.1M111.5 320.8h5.5M127.8 320.8h10.6M149.2 320.8H160M170.8 320.8h10.5M192.1 320.8h10.8M213.7 320.8h10.6M235.1 320.8h10.8M256.7 320.8h10.6M278.3 320.8h10.6M299.7 320.8h8.1M111.5 313.6h5.5M127.8 313.6h10.6M149.2 313.6H160M170.8 313.6h10.5M192.1 313.6h10.8M213.7 313.6h10.6M235.1 313.6h10.8M256.7 313.6h10.6M278.3 313.6h10.6M299.7 313.6h8.1M111.5 306.4h5.5M127.8 306.4h10.6M149.2 306.4H160M170.8 306.4h10.5M192.1 306.4h10.8M213.7 306.4h10.6M235.1 306.4h10.8M256.7 306.4h10.6M278.3 306.4h10.6M299.7 306.4h8.1M111.5 299.2h5.5M127.8 299.2h10.6M149.2 299.2H160M170.8 299.2h10.5M192.1 299.2h10.8M213.7 299.2h10.6M235.1 299.2h10.8M256.7 299.2h10.6M278.3 299.2h10.6M299.7 299.2h8.1M111.5 291.7h5.5M127.8 291.7h10.6M149.2 291.7H160M170.8 291.7h10.5M192.1 291.7h10.8M213.7 291.7h10.6M235.1 291.7h10.8M256.7 291.7h10.6M278.3 291.7h10.6M299.7 291.7h8.1M111.5 284.5h5.5M127.8 284.5h10.6M149.2 284.5H160M170.8 284.5h10.5M192.1 284.5h10.8M213.7 284.5h10.6M235.1 284.5h10.8M256.7 284.5h10.6M278.3 284.5h10.6M299.7 284.5h8.1M111.5 277.3h5.5M127.8 277.3h10.6M149.2 277.3H160M170.8 277.3h10.5M192.1 277.3h10.8M213.7 277.3h10.6M235.1 277.3h10.8M256.7 277.3h10.6M278.3 277.3h10.6M299.7 277.3h8.1M111.5 328.5h16.1M127.8 328.5h21.4M149.4 328.5h21.1M170.8 328.5h21.3M192.4 328.5h21.1M213.7 328.5h21.4M235.3 328.5h21.4M256.7 328.5h21.4M278.3 328.5h21.4M299.9 328.5h7.9M111.5 321h16.1M127.8 321h21.4M149.4 321h21.1M170.8 321h21.3M192.4 321h21.1M213.7 321h21.4M235.3 321h21.4M256.7 321h21.4M278.3 321h21.4M299.9 321h7.9M111.5 313.8h16.1M127.8 313.8h21.4M149.4 313.8h21.1M170.8 313.8h21.3M192.4 313.8h21.1M213.7 313.8h21.4M235.3 313.8h21.4M256.7 313.8h21.4M278.3 313.8h21.4M299.9 313.8h7.9M111.5 306.6h16.1M127.8 306.6h21.4M149.4 306.6h21.1M170.8 306.6h21.3M192.4 306.6h21.1M213.7 306.6h21.4M235.3 306.6h21.4M256.7 306.6h21.4M278.3 306.6h21.4M299.9 306.6h7.9M111.5 299.4h16.1M127.8 299.4h21.4M149.4 299.4h21.1M170.8 299.4h21.3M192.4 299.4h21.1M213.7 299.4h21.4M235.3 299.4h21.4M256.7 299.4h21.4M278.3 299.4h21.4M299.9 299.4h7.9M111.5 292h16.1M127.8 292h21.4M149.4 292h21.1M170.8 292h21.3M192.4 292h21.1M213.7 292h21.4M235.3 292h21.4M256.7 292h21.4M278.3 292h21.4M299.9 292h7.9M111.5 284.8h16.1M127.8 284.8h21.4M149.4 284.8h21.1M170.8 284.8h21.3M192.4 284.8h21.1M213.7 284.8h21.4M235.3 284.8h21.4M256.7 284.8h21.4M278.3 284.8h21.4M299.9 284.8h7.9M111.5 277.6h16.1M127.8 277.6h21.4M149.4 277.6h21.1M170.8 277.6h21.3M192.4 277.6h21.1M213.7 277.6h21.4M235.3 277.6h21.4M256.7 277.6h21.4M278.3 277.6h21.4M299.9 277.6h7.9M127.6 331.8v-3.3M127.6 324.6V321M127.6 317.2v-3.4M127.6 310v-3.4M127.6 302.8v-3.4M127.6 295.6V292M127.6 288.1v-3.3M127.6 280.9v-3.3M149.2 331.8v-3.3M149.2 324.6V321M149.2 317.2v-3.4M149.2 310v-3.4M149.2 302.8v-3.4M149.2 295.6V292M149.2 288.1v-3.3M149.2 280.9v-3.3M170.5 331.8v-3.3M170.5 324.6V321M170.5 317.2v-3.4M170.5 310v-3.4M170.5 302.8v-3.4M170.5 295.6V292M170.5 288.1v-3.3M170.5 280.9v-3.3M192.1 331.8v-3.3M192.1 324.6V321M192.1 317.2v-3.4M192.1 310v-3.4M192.1 302.8v-3.4M192.1 295.6V292M192.1 288.1v-3.3M192.1 280.9v-3.3M213.5 331.8v-3.3M213.5 324.6V321M213.5 317.2v-3.4M213.5 310v-3.4M213.5 302.8v-3.4M213.5 295.6V292M213.5 288.1v-3.3M213.5 280.9v-3.3M235.1 331.8v-3.3M235.1 324.6V321M235.1 317.2v-3.4M235.1 310v-3.4M235.1 302.8v-3.4M235.1 295.6V292M235.1 288.1v-3.3M235.1 280.9v-3.3M256.7 331.8v-3.3M256.7 324.6V321M256.7 317.2v-3.4M256.7 310v-3.4M256.7 302.8v-3.4M256.7 295.6V292M256.7 288.1v-3.3M256.7 280.9v-3.3M278.1 331.8v-3.3M278.1 324.6V321M278.1 317.2v-3.4M278.1 310v-3.4M278.1 302.8v-3.4M278.1 295.6V292M278.1 288.1v-3.3M278.1 280.9v-3.3M299.7 331.8v-3.3M299.7 324.6V321M299.7 317.2v-3.4M299.7 310v-3.4M299.7 302.8v-3.4M299.7 295.6V292M299.7 288.1v-3.3M299.7 280.9v-3.3M111.5 331.8h16.1M127.8 331.8h21.4M149.4 331.8h21.1M170.8 331.8h21.3M192.4 331.8h21.1M213.7 331.8h21.4M235.3 331.8h21.4M256.7 331.8h21.4M278.3 331.8h21.4M299.9 331.8h7.9M111.5 324.6h16.1M127.8 324.6h21.4M149.4 324.6h21.1M170.8 324.6h21.3M192.4 324.6h21.1M213.7 324.6h21.4M235.3 324.6h21.4M256.7 324.6h21.4M278.3 324.6h21.4M299.9 324.6h7.9M111.5 317.2h16.1M127.8 317.2h21.4M149.4 317.2h21.1M170.8 317.2h21.3M192.4 317.2h21.1M213.7 317.2h21.4M235.3 317.2h21.4M256.7 317.2h21.4M278.3 317.2h21.4M299.9 317.2h7.9M111.5 310h16.1M127.8 310h21.4M149.4 310h21.1M170.8 310h21.3M192.4 310h21.1M213.7 310h21.4M235.3 310h21.4M256.7 310h21.4M278.3 310h21.4M299.9 310h7.9M111.5 302.8h16.1M127.8 302.8h21.4M149.4 302.8h21.1M170.8 302.8h21.3M192.4 302.8h21.1M213.7 302.8h21.4M235.3 302.8h21.4M256.7 302.8h21.4M278.3 302.8h21.4M299.9 302.8h7.9M111.5 295.6h16.1M127.8 295.6h21.4M149.4 295.6h21.1M170.8 295.6h21.3M192.4 295.6h21.1M213.7 295.6h21.4M235.3 295.6h21.4M256.7 295.6h21.4M278.3 295.6h21.4M299.9 295.6h7.9M111.5 288.1h16.1M127.8 288.1h21.4M149.4 288.1h21.1M170.8 288.1h21.3M192.4 288.1h21.1M213.7 288.1h21.4M235.3 288.1h21.4M256.7 288.1h21.4M278.3 288.1h21.4M299.9 288.1h7.9M111.5 280.9h16.1M127.8 280.9h21.4M149.4 280.9h21.1M170.8 280.9h21.3M192.4 280.9h21.1M213.7 280.9h21.4M235.3 280.9h21.4M256.7 280.9h21.4M278.3 280.9h21.4M299.9 280.9h7.9"/><path class="cls-6" d="M127.8 331.8v-3.3M127.8 324.6V321M127.8 317.2v-3.4M127.8 310v-3.4M127.8 302.8v-3.4M127.8 295.6V292M127.8 288.1v-3.3M127.8 280.9v-3.3M149.4 331.8v-3.3M149.4 324.6V321M149.4 317.2v-3.4M149.4 310v-3.4M149.4 302.8v-3.4M149.4 295.6V292M149.4 288.1v-3.3M149.4 280.9v-3.3M170.8 331.8v-3.3M170.8 324.6V321M170.8 317.2v-3.4M170.8 310v-3.4M170.8 302.8v-3.4M170.8 295.6V292M170.8 288.1v-3.3M170.8 280.9v-3.3M192.4 331.8v-3.3M192.4 324.6V321M192.4 317.2v-3.4M192.4 310v-3.4M192.4 302.8v-3.4M192.4 295.6V292M192.4 288.1v-3.3M192.4 280.9v-3.3M213.7 331.8v-3.3M213.7 324.6V321M213.7 317.2v-3.4M213.7 310v-3.4M213.7 302.8v-3.4M213.7 295.6V292M213.7 288.1v-3.3M213.7 280.9v-3.3M235.3 331.8v-3.3M235.3 324.6V321M235.3 317.2v-3.4M235.3 310v-3.4M235.3 302.8v-3.4M235.3 295.6V292M235.3 288.1v-3.3M235.3 280.9v-3.3M256.7 331.8v-3.3M256.7 324.6V321M256.7 317.2v-3.4M256.7 310v-3.4M256.7 302.8v-3.4M256.7 295.6V292M256.7 288.1v-3.3M256.7 280.9v-3.3M278.3 331.8v-3.3M278.3 324.6V321M278.3 317.2v-3.4M278.3 310v-3.4M278.3 302.8v-3.4M278.3 295.6V292M278.3 288.1v-3.3M278.3 280.9v-3.3M299.9 331.8v-3.3M299.9 324.6V321M299.9 317.2v-3.4M299.9 310v-3.4M299.9 302.8v-3.4M299.9 295.6V292M299.9 288.1v-3.3M299.9 280.9v-3.3"/><path class="cls-5" d="M111.2 275.5h27v.4h15.4v-.4h15.2v.4h15.4v-.4h51v.4h24.1v-.4h15.2v.4h15.4v-.4h17.6v59.9H111.2"/><path class="cls-7" d="M111.3 335.4h196.3M227.2 272.3h37.4v3.6h-37.4zM131.4 272.3h58.8v3.6h-58.8z"/><path class="cls-8" d="M101.2 157.6h17.5v.7h-17.5zM118.2 158.3h.5v17h-.5z"/><path class="cls-8" d="M102.9 174.6h15.4v.7h-15.4zM102.9 158.3h15.4v.5h-15.4zM102.4 158.3h.5v17h-.5zM118.2 175.3h.5v17h-.5z"/><path class="cls-8" d="M102.9 175.3h15.4v.5h-15.4zM102.9 191.7h15.4v.7h-15.4zM102.4 175.3h.5v17h-.5zM118.2 192.4h.5v16.8h-.5z"/><path class="cls-8" d="M102.9 208.7h15.4v.5h-15.4zM102.9 192.4h15.4v.5h-15.4zM102.4 192.4h.5v16.8h-.5zM118.2 209.2h.5v2.4h-.5zM100.2 212.3H118"/><path class="cls-4" d="M100.2 211.6h18.5"/><path class="cls-8" d="M100.2 213.7h16.3M100.2 212.3H118M100.2 211.6h18.5M100.2 213.7h16.3"/><path class="cls-4" d="M100.2 212.3v-.7"/><path class="cls-8" d="M100.2 213.7v-1.4"/><path class="cls-9" d="M114.1 208.7v2.6h-9.8v-2.6h9.8"/><path class="cls-8" d="M104.3 208.7h9.8v2.6h-9.8z"/><path class="cls-9" d="M114.4 208.5v.2h-10.3v-.2h10.3"/><path class="cls-8" d="M104.1 208.5h10.3v.2h-10.3z"/><path class="cls-3" d="M105 208.5v-8.4M105 200.1l1.7.2 1.4.5 1.7.7 1.2 1 1 1.4.9 1.4.5 1.7v1.5"/><path class="cls-8" d="M118 212.3v5"/><path class="cls-4" d="M118.7 211.6v5.7"/><path class="cls-8" d="M116.5 213.7v3.6M118 212.3v5"/><path class="cls-4" d="M118 217.3h.7"/><path class="cls-8" d="M116.5 217.3h1.5M118.7 211.6v5.7M116.5 213.7v3.6"/><path class="cls-9" d="M241.6 225.9c-1.3.9-3 .9-4.3 0-1.9-1.5-2.9-3.8-2.9-6.2l.3-9h9.6l.3 9c0 2.4-1 4.7-2.9 6.2"/><path class="cls-8" d="M241.6 225.9c-1.3.9-3 .9-4.3 0-1.9-1.5-2.9-3.8-2.9-6.2l.3-9h9.6l.3 9c0 2.4-1 4.7-2.9 6.2"/><path class="cls-9" d="M239.5 215.8c1 0 2 .3 2.8 1.1.7.7 1.2 1.7 1.2 2.7 0 2.1-.9 4.1-2.5 5.4-.9.6-2 .6-2.9 0-1.6-1.3-2.5-3.3-2.5-5.4 0-1 .4-2 1.2-2.7s1.7-1.1 2.8-1.1"/><path class="cls-8" d="M239.5 215.8c1 0 2 .3 2.8 1.1.7.7 1.2 1.7 1.2 2.7 0 2.1-.9 4.1-2.5 5.4-.9.6-2 .6-2.9 0-1.6-1.3-2.5-3.3-2.5-5.4 0-1 .4-2 1.2-2.7s1.7-1.1 2.8-1.1"/><path class="cls-9" d="M273.7 210.6h22.8v53.8h-22.8v-53.8"/><path class="cls-8" d="M273.7 210.6h22.8v53.8h-22.8zM296.5 212.8h-22.8M296.8 209.9h-29.1"/><path class="cls-4" d="M296.8 210.6H267"/><path class="cls-8" d="M296.8 208.5h-27.6M296.8 209.9h-29.1M296.8 210.6H267M296.8 208.5h-27.6"/><path class="cls-4" d="M296.8 209.9v.7"/><path class="cls-8" d="M296.8 208.5v1.4M267.7 206.1h-18.2"/><path class="cls-4" d="M267 206.8h-16.8"/><path class="cls-8" d="M269.2 204.9h-21.1M267.7 206.1h-18.2M267 206.8h-16.8M269.2 204.9h-21.1M249.5 209.9h-38.2"/><path class="cls-4" d="M250.2 210.6h-38.9"/><path class="cls-8" d="M248.1 208.5h-36.8M249.5 209.9h-38.2"/><path class="cls-4" d="M211.3 209.9v.7"/><path class="cls-8" d="M211.3 208.5v1.4M250.2 210.6h-38.9M248.1 208.5h-36.8"/><path class="cls-9" d="M250.8 210.7v12.4c0 .1.1.3.2.4.1.1.2.2.4.2H265.5c.1 0 .3-.1.4-.2.1-.1.2-.2.2-.4v-12.4h-15.6"/><path class="cls-8" d="M250.8 210.7v12.4c0 .1.1.3.2.4.1.1.2.2.4.2H265.5c.1 0 .3-.1.4-.2.1-.1.2-.2.2-.4v-12.4h-15.6M267 210.6v-3.8M267 206.8h-16.8M250.2 206.8v3.8M249.5 206.1v3.8"/><path class="cls-4" d="M250.2 206.8v3.8"/><path class="cls-8" d="M248.1 204.9v3.6M249.5 206.1v3.8M250.2 206.8v3.8M248.1 204.9v3.6M267.7 209.9v-3.8"/><path class="cls-4" d="M267 210.6v-3.8"/><path class="cls-8" d="M269.2 208.5v-3.6M267.7 209.9v-3.8M267 210.6v-3.8M269.2 208.5v-3.6"/><path class="cls-4" d="M267 210.6h-16.8"/><path class="cls-9" d="M111.2 327.9h5.7v-43.3h-5.7"/><path class="cls-5" d="M111.2 327.9h5.7v-43.3h-5.7"/><path class="cls-9" d="M202.9 284.5h96.5V328h-96.5v-43.5"/><path class="cls-5" d="M202.9 284.5h96.5v43.4h-96.5z"/><path class="cls-10" d="M129 265.1v13.4h-17.7v-13.4H129"/><path class="cls-9" d="M129 277.8v-1.4h-17.7v1.4H129M129 276.4v-6.3h-17.7v6.3H129"/><path class="cls-7" d="M112.7 270.1v6.3M114.1 270.1v6.3M115.6 270.1v6.3M117 270.1v6.3M118.5 270.1v6.3M119.9 270.1v6.3M121.3 270.1v6.3M122.8 270.1v6.3M124.2 270.1v6.3M125.7 270.1v6.3M126.9 270.1v6.3M128.3 270.1v6.3"/><path class="cls-9" d="M129 270.1v-5h-17.7v5H129"/><path class="cls-7" d="M111.5 267l2.9 3.1M113.4 265.1l5.1 5M117.5 265.1l5 5M121.3 265.1l5.1 5M125.4 265.1l3.9 3.8M129 270.1h-17.7M129 276.4h-17.7"/><path class="cls-8" d="M129 278.5h-17.7M129 265.1h-17.7"/><path class="cls-10" d="M224.8 265.1v13.4h-32.2v-13.4h32.2"/><path class="cls-9" d="M224.8 277.8v-1.4h-32.2v1.4h32.2M224.8 276.4v-6.3h-32.2v6.3h32.2"/><path class="cls-7" d="M193.6 270.1v6.3M195 270.1v6.3M196.5 270.1v6.3M197.9 270.1v6.3M199.3 270.1v6.3M200.5 270.1v6.3M202 270.1v6.3M203.4 270.1v6.3M204.9 270.1v6.3M206.3 270.1v6.3M207.7 270.1v6.3M209.2 270.1v6.3M210.6 270.1v6.3M212.1 270.1v6.3M213.5 270.1v6.3M214.9 270.1v6.3M216.1 270.1v6.3M217.6 270.1v6.3M219 270.1v6.3M220.5 270.1v6.3M221.9 270.1v6.3M223.3 270.1v6.3M224.8 270.1v6.3"/><path class="cls-9" d="M224.8 270.1v-5h-32.2v5h32.2"/><path class="cls-7" d="M192.9 268.2l1.6 1.9M193.6 265.1l5 5M197.7 265.1l5 5M201.5 265.1l5 5M205.6 265.1l5 5M209.7 265.1l5 5M213.5 265.1l5 5M217.6 265.1l5 5M221.7 265.1l3.3 3.4M224.8 270.1h-32.2M224.8 276.4h-32.2"/><path class="cls-8" d="M224.8 278.5h-32.2M224.8 265.1h-32.2"/><path class="cls-10" d="M296.8 265.1l14.6 13.4H267v-13.4h29.8"/><path class="cls-9" d="M310.7 277.8l-1.4-1.4H267v1.4h43.7M309.3 276.4l-7-6.3H267v6.3h42.3"/><path class="cls-7" d="M267.3 270.1v6.3M268.7 270.1v6.3M270.1 270.1v6.3M271.6 270.1v6.3M273 270.1v6.3M274.5 270.1v6.3M275.7 270.1v6.3M277.1 270.1v6.3M278.5 270.1v6.3M280 270.1v6.3M281.4 270.1v6.3M282.9 270.1v6.3M284.3 270.1v6.3M285.7 270.1v6.3M287.2 270.1v6.3M288.6 270.1v6.3M290.1 270.1v6.3M291.3 270.1v6.3M292.7 270.1v6.3M294.1 270.1v6.3M295.6 270.1v6.3M297 270.1v6.3M298.5 270.1v6.3M299.9 270.1v6.3M301.3 270.1v6.3M302.8 270.4v6M304.2 271.6v4.8M305.7 273v3.4M306.9 274.2v2.2M308.3 275.4v1"/><path class="cls-9" d="M302.3 270.1l-5.5-5H267v5h35.3"/><path class="cls-7" d="M267.3 266.5l3.6 3.6M269.7 265.1l5 5M273.7 265.1l5.1 5M277.8 265.1l5.1 5M281.7 265.1l5 5M285.7 265.1l5.1 5M289.8 265.1l5.1 5M293.9 265.1l5 5M302.3 270.1H267M309.3 276.4H267"/><path class="cls-8" d="M311.4 278.5H267M296.8 265.1H267"/><path class="cls-1" d="M190.2 272.3v6.2"/><path class="cls-8" d="M190.2 278.1v.4"/><path class="cls-1" d="M190.2 278.5h-58.8"/><path class="cls-8" d="M131.9 278.5h-.5M131.4 278.5v-6.2M131.4 272.8v-.5"/><path class="cls-1" d="M192.6 265.1H129"/><path class="cls-8" d="M129.5 265.1h-.5M129 270.1h63.6v2.2H129zM188.3 272.3v-2.2M133.3 272.3v-2.2M192.6 270.1v2.2M173.4 270.1v2.2M188.3 270.1v2.2M169.3 270.1v2.2M173.4 270.1v2.2M152.3 270.1v2.2M169.3 270.1v2.2M148.2 270.1v2.2M152.3 270.1v2.2M133.3 270.1v2.2M148.2 270.1v2.2M129 270.1v2.2"/><path class="cls-7" d="M192.6 272.3v4.1"/><path class="cls-8" d="M190.2 272.3h2.4"/><path class="cls-7" d="M129 272.3v4.1"/><path class="cls-8" d="M131.4 272.3H129"/><path class="cls-1" d="M264.6 272.3v6.2"/><path class="cls-8" d="M264.6 278.1v.4"/><path class="cls-1" d="M264.6 278.5h-37.4M227.2 278.5v-6.2M267 265.1h-42.2"/><path class="cls-8" d="M225.3 265.1h-.5M224.8 270.1H267v2.2h-42.2zM262.7 272.3v-2.2M229.1 272.3v-2.2M267 270.1v2.2M247.8 270.1v2.2M262.7 270.1v2.2M243.7 270.1v2.2M247.8 270.1v2.2M229.1 270.1v2.2M243.7 270.1v2.2M224.8 270.1v2.2"/><path class="cls-7" d="M267 272.3v4.1"/><path class="cls-8" d="M264.6 272.3h2.4"/><path class="cls-7" d="M224.8 272.3v4.1"/><path class="cls-8" d="M227.2 272.3h-2.4"/><path class="cls-10" d="M296.8 16.7l14.6-14.6h-34.3v14.6h19.7"/><path class="cls-9" d="M308.1 5.4l3.3-3.3h-34.3v3.3h31"/><path class="cls-7" d="M277.3 4l1.2 1.4M279.3 2.1l3.3 3.3M283.3 2.1l3.4 3.3M287.4 2.1l3.4 3.3M291.3 2.1l3.3 3.3M295.3 2.1l3.4 3.3M299.4 2.1l3.4 3.3M303.3 2.1l3.3 3.3M307.3 2.1l2.2 2.1M311.4 2.1"/><path class="cls-9" d="M307.6 6.1l.5-.7h-31v.7h30.5M301.8 11.7l5.8-5.6h-30.5v5.6h24.7"/><path class="cls-7" d="M306.9 6.9v-.8M305.7 8.3V6.1M304.2 9.5V6.1M302.8 10.9V6.1M301.3 11.7V6.1M299.9 11.7V6.1M298.5 11.7V6.1M297 11.7V6.1M295.6 11.7V6.1M294.1 11.7V6.1M292.7 11.7V6.1M291.3 11.7V6.1M290.1 11.7V6.1M288.6 11.7V6.1M287.2 11.7V6.1M285.7 11.7V6.1M284.3 11.7V6.1M282.9 11.7V6.1M281.4 11.7V6.1M280 11.7V6.1M278.5 11.7V6.1"/><path class="cls-9" d="M296.8 16.7l5-5h-24.7v5h19.7"/><path class="cls-7" d="M277.3 16l.5.7M277.3 11.9l4.6 4.8M280.9 11.7l5.1 5M284.8 11.7l5 5M288.9 11.7l5 5M292.9 11.7l4.6 4.5M297 11.7l2.4 2.4M300.9 11.7l.4.4M277.1 11.7h24.7M277.1 6.1h30.5"/><path class="cls-8" d="M277.1 2.1h34.3M277.1 16.7h19.7"/><path class="cls-10" d="M192.4 16.7V2.1h43.9v14.6h-43.9"/><path class="cls-9" d="M192.4 2.1v3.3h43.9V2.1h-43.9"/><path class="cls-7" d="M192.6 3.5l1.9 1.9M195 2.1l3.4 3.3M199.1 2.1l3.4 3.3M203.2 2.1l3.3 3.3M207 2.1l3.4 3.3M211.1 2.1l3.4 3.3M215.2 2.1l3.3 3.3M219.3 2.1l3.3 3.3M223.1 2.1l3.4 3.3M227.2 2.1l3.3 3.3M231.3 2.1l3.3 3.3M235.1 2.1l1.4 1.2"/><path class="cls-9" d="M192.4 5.4v.7h43.9v-.7h-43.9"/><path class="cls-9" d="M192.4 6.1v5.6h43.9V6.1h-43.9"/><path class="cls-7" d="M236.1 11.7V6.1M234.6 11.7V6.1M233.2 11.7V6.1M231.7 11.7V6.1M230.5 11.7V6.1M229.1 11.7V6.1M227.7 11.7V6.1M226.2 11.7V6.1M224.8 11.7V6.1M223.3 11.7V6.1M221.9 11.7V6.1M220.5 11.7V6.1M219 11.7V6.1M217.6 11.7V6.1M216.1 11.7V6.1M214.9 11.7V6.1M213.5 11.7V6.1M212.1 11.7V6.1M210.6 11.7V6.1M209.2 11.7V6.1M207.7 11.7V6.1M206.3 11.7V6.1M204.9 11.7V6.1M203.4 11.7V6.1M202 11.7V6.1M200.5 11.7V6.1M199.3 11.7V6.1M197.9 11.7V6.1M196.5 11.7V6.1M195 11.7V6.1M193.6 11.7V6.1"/><path class="cls-9" d="M192.4 11.7v5h43.9v-5h-43.9"/><path class="cls-7" d="M192.6 15.5l1.2 1.2M192.6 11.7l5.1 5M196.7 11.7l5 5M200.8 11.7l5 5M204.6 11.7l5.1 5M208.7 11.7l5 5M212.8 11.7l5 5M216.6 11.7l5.1 5M220.7 11.7l5 5M224.8 11.7l5 5M228.9 11.7l5 5M232.7 11.7l3.8 3.6M192.4 11.7h43.9M192.4 6.1h43.9"/><path class="cls-8" d="M192.4 2.1h43.9M192.4 16.7h43.9"/><path class="cls-10" d="M129.3 2.1h-29.1v14.6h29.1V2.1"/><path class="cls-9" d="M129.3 2.1h-29.1v3.3h29.1V2.1"/><path class="cls-7" d="M100.5 3.5l1.6 1.9M102.9 2.1l3.3 3.3M106.9 2.1l3.4 3.3M111 2.1l3.4 3.3M114.9 2.1l3.3 3.3M118.9 2.1l3.4 3.3M123 2.1l3.4 3.3M126.9 2.1l2.6 2.4"/><path class="cls-9" d="M129.3 5.4h-29.1v.7h29.1v-.7"/><path class="cls-9" d="M129.3 6.1h-29.1v5.6h29.1V6.1"/><path class="cls-7" d="M128.3 11.7V6.1M126.9 11.7V6.1M125.7 11.7V6.1M124.2 11.7V6.1M122.8 11.7V6.1M121.3 11.7V6.1M119.9 11.7V6.1M118.5 11.7V6.1M117 11.7V6.1M115.6 11.7V6.1M114.1 11.7V6.1M112.7 11.7V6.1M111.3 11.7V6.1M110.1 11.7V6.1M108.6 11.7V6.1M107.2 11.7V6.1M105.7 11.7V6.1M104.3 11.7V6.1M102.9 11.7V6.1M101.4 11.7V6.1"/><path class="cls-9" d="M129.3 11.7h-29.1v5h29.1v-5"/><path class="cls-7" d="M100.5 15.5l.9 1.2M100.5 11.7l5 5M104.5 11.7l5.1 5M108.4 11.7l5 5M112.5 11.7l5 5M116.5 11.7l5.1 5M120.6 11.7l5.1 5M124.5 11.7l5 4.8M128.5 11.7l1 .7M100.2 11.7h29.1M100.2 6.1h29.1"/><path class="cls-8" d="M100.2 2.1h29.1M100.2 16.7h29.1M131.2 9.5V2.1h-3.4v-2h66v2h-3.3v7.4"/><path class="cls-1" d="M129.3 16.7h63.1"/><path class="cls-8" d="M191.9 16.7h.5M129.3 9.5h63.1v2.2h-63.1zM133.1 9.5v2.2M188.5 9.5v2.2M129.3 11.7V9.5M148.2 11.7V9.5M133.1 11.7V9.5M152.3 11.7V9.5M148.2 11.7V9.5M169.3 11.7V9.5M152.3 11.7V9.5M173.4 11.7V9.5M169.3 11.7V9.5M188.5 11.7V9.5M173.4 11.7V9.5M192.4 11.7V9.5"/><path class="cls-9" d="M129.4 6h1.8v3.4h-1.8"/><path class="cls-7" d="M131.2 9.5V6.1M129.7 9.5V6.1M129.4 6h1.8v3.4h-1.8"/><path class="cls-9" d="M129.3 2.1h1.9v3.3h-1.9"/><path class="cls-7" d="M129.5 4.5l.7.9M130.9 2.1l.5.2"/><path class="cls-9" d="M192.3 6h-1.8v3.4h1.8"/><path class="cls-7" d="M192.1 9.5V6.1M190.7 9.5V6.1M192.3 6h-1.8v3.4h1.8"/><path class="cls-9" d="M192.4 2.1h-1.9v3.3h1.9"/><path class="cls-7" d="M191.2 2.1l1.4 1.4"/><path class="cls-8" d="M238 9.5V2.1h-3.4v-2h43.9v2h-3.3v7.4"/><path class="cls-1" d="M236.3 16.7h40.8"/><path class="cls-8" d="M276.6 16.7h.5M236.3 9.5h40.8v2.2h-40.8zM239.9 9.5v2.2M273.3 9.5v2.2M236.3 11.7V9.5M254.5 11.7V9.5M239.9 11.7V9.5M258.6 11.7V9.5M254.5 11.7V9.5M273.3 11.7V9.5M258.6 11.7V9.5M277.1 11.7V9.5"/><path class="cls-9" d="M236.2 6h1.9v3.4h-1.9"/><path class="cls-7" d="M237.5 9.5V6.1M236.2 6h1.9v3.4h-1.9"/><path class="cls-9" d="M236.3 2.1h1.7v3.3h-1.7"/><path class="cls-7" d="M236.5 3.3l1.7 1.6"/><path class="cls-9" d="M277.1 6h-1.9v3.4h1.9"/><path class="cls-7" d="M277.1 9.5V6.1M275.7 9.5V6.1M277.1 6h-1.9v3.4h1.9"/><path class="cls-9" d="M277.1 2.1h-1.9v3.3h1.9"/><path class="cls-7" d="M275.4 2.1l1.9 1.9"/><path class="cls-9" d="M211.3 238.5H207V42.9h4.3v195.6"/><path class="cls-7" d="M207.3 43.6l.4-.7M207.3 47.9l4.3-4.3M207.3 52l4.3-4.3M207.3 56.3l4.3-4.3M207.3 60.6l4.3-4.3M207.3 64.7l4.3-4.3M207.3 69l4.3-4.3M207.3 73.3l4.3-4.3M207.3 77.7l4.3-4.4M207.3 81.7l4.3-4.3M207.3 86.1l4.3-4.4M207.3 90.4l4.3-4.3M207.3 94.5l4.3-4.4M207.3 98.8l4.3-4.3M207.3 103.1l4.3-4.3M207.3 107.2l4.3-4.3M207.3 111.5l4.3-4.3M207.3 115.8l4.3-4.3M207.3 120.1l4.3-4.3M207.3 124.2l4.3-4.3M207.3 128.5l4.3-4.3M207.3 132.9l4.3-4.4M207.3 136.9l4.3-4.3M207.3 141.3l4.3-4.4M207.3 145.6l4.3-4.3M207.3 149.9l4.3-4.3M207.3 154l4.3-4.3M207.3 158.3l4.3-4.3M207.3 162.6l4.3-4.3M207.3 166.7l4.3-4.3M207.3 171l4.3-4.3M207.3 175.3l4.3-4.3M207.3 179.7l4.3-4.4M207.3 183.7l4.3-4.3M207.3 188.1l4.3-4.4M207.3 192.4l4.3-4.3M207.3 196.5l4.3-4.4M207.3 200.8l4.3-4.3M207.3 205.1l4.3-4.3M207.3 209.2l4.3-4.3M207.3 213.5l4.3-4.3M207.3 217.8l4.3-4.3M207.3 222.1l4.3-4.3M207.3 226.2l4.3-4.3M207.3 230.5l4.3-4.3M207.3 234.9l4.3-4.4M207.7 238.5l3.9-3.9"/><path class="cls-9" d="M207 238.5h4.3V42.9H207v195.6"/><path class="cls-7" d="M207.3 43.6l.4-.7M207.3 47.9l4.3-4.3M207.3 52l4.3-4.3M207.3 56.3l4.3-4.3M207.3 60.6l4.3-4.3M207.3 64.7l4.3-4.3M207.3 69l4.3-4.3M207.3 73.3l4.3-4.3M207.3 77.7l4.3-4.4M207.3 81.7l4.3-4.3M207.3 86.1l4.3-4.4M207.3 90.4l4.3-4.3M207.3 94.5l4.3-4.4M207.3 98.8l4.3-4.3M207.3 103.1l4.3-4.3M207.3 107.2l4.3-4.3M207.3 111.5l4.3-4.3M207.3 115.8l4.3-4.3M207.3 120.1l4.3-4.3M207.3 124.2l4.3-4.3M207.3 128.5l4.3-4.3M207.3 132.9l4.3-4.4M207.3 136.9l4.3-4.3M207.3 141.3l4.3-4.4M207.3 145.6l4.3-4.3M207.3 149.9l4.3-4.3M207.3 154l4.3-4.3M207.3 158.3l4.3-4.3M207.3 162.6l4.3-4.3M207.3 166.7l4.3-4.3M207.3 171l4.3-4.3M207.3 175.3l4.3-4.3M207.3 179.7l4.3-4.4M207.3 183.7l4.3-4.3M207.3 188.1l4.3-4.4M207.3 192.4l4.3-4.3M207.3 196.5l4.3-4.4M207.3 200.8l4.3-4.3M207.3 205.1l4.3-4.3M207.3 209.2l4.3-4.3M207.3 213.5l4.3-4.3M207.3 217.8l4.3-4.3M207.3 222.1l4.3-4.3M207.3 226.2l4.3-4.3M207.3 230.5l4.3-4.3M207.3 234.9l4.3-4.4M207.7 238.5l3.9-3.9M211.3 262.9H207M211.3 240.4H207M211.3 263c12.4 0 22.7-10.2 22.7-22.7M211.3 240.4h22.6M211.3 41.2H207M211.3 18.6H207M234 41.2c0-12.4-10.2-22.7-22.7-22.7M211.3 41.2h22.6"/><path class="cls-10" d="M311.4 278.5V2.1l-14.6 14.6v248.4l14.6 13.4"/><path class="cls-9" d="M311.4 278.5V2.1l-3.3 3.3v270l3.3 3.1"/><path class="cls-7" d="M308.3 271.6l3.4 3.3M308.3 267.5l3.4 3.4M308.3 263.4l3.4 3.4M308.3 259.3l3.4 3.4M308.3 255.5l3.4 3.4M308.3 251.4l3.4 3.4M308.3 247.3l3.4 3.4M308.3 243.5l3.4 3.4M308.3 239.4l3.4 3.4M308.3 235.3l3.4 3.4M308.3 231.5l3.4 3.4M308.3 227.4l3.4 3.4M308.3 223.3l3.4 3.4M308.3 219.3l3.4 3.3M308.3 215.4l3.4 3.4M308.3 211.3l3.4 3.4M308.3 207.3l3.4 3.3M308.3 203.4l3.4 3.4M308.3 199.3l3.4 3.4M308.3 195.3l3.4 3.3M308.3 191.2l3.4 3.3M308.3 187.3l3.4 3.4M308.3 183.3l3.4 3.3M308.3 179.2l3.4 3.3M308.3 175.3l3.4 3.4M308.3 171.3l3.4 3.3M308.3 167.2l3.4 3.3M308.3 163.3l3.4 3.4M308.3 159.3l3.4 3.3M308.3 155.2l3.4 3.3M308.3 151.1l3.4 3.4M308.3 147.3l3.4 3.3M308.3 143.2l3.4 3.3M308.3 139.1l3.4 3.4M308.3 135.3l3.4 3.3M308.3 131.2l3.4 3.3M308.3 127.1l3.4 3.4M308.3 123.3l3.4 3.3M308.3 119.2l3.4 3.3M308.3 115.1l3.4 3.4M308.3 111l3.4 3.4M308.3 107.2l3.4 3.3M308.3 103.1l3.4 3.4M308.3 99l3.4 3.4M308.3 95.2l3.4 3.3M308.3 91.1l3.4 3.4M308.3 87l3.4 3.4M308.3 83.2l3.4 3.3M308.3 79.1l3.4 3.4M308.3 75l3.4 3.4M308.3 70.9l3.4 3.4M308.3 67.1l3.4 3.4M308.3 63l3.4 3.4M308.3 58.9l3.4 3.4M308.3 55.1l3.4 3.4M308.3 51l3.4 3.4M308.3 46.9l3.4 3.4M308.3 42.9l3.4 3.3M308.3 39l3.4 3.4M308.3 34.9l3.4 3.4M308.3 30.9l3.4 3.3M308.3 27l3.4 3.4M308.3 22.9l3.4 3.4M308.3 18.9l3.4 3.3M308.3 15l3.4 3.4M308.3 10.9l3.4 3.4M308.3 6.9l3.4 3.3M309.5 4.2l2.2 1.9M311.4 2.1l.3.2"/><path class="cls-9" d="M308.1 275.4V5.4l-.5.7v268.8l.5.5M307.6 274.9V6.1l-5.8 5.6v258l5.8 5.2"/><path class="cls-7" d="M306.9 274.2h.9M305.4 272.8h2.4M303.7 271.3h4.1M302.3 269.9h5.5M302.1 268.5h5.7M302.1 267h5.7M302.1 265.6h5.7M302.1 264.4h5.7M302.1 262.9h5.7M302.1 261.5h5.7M302.1 260.1h5.7M302.1 258.6h5.7M302.1 257.2h5.7M302.1 255.7h5.7M302.1 254.3h5.7M302.1 252.9h5.7M302.1 251.4h5.7M302.1 250.2h5.7M302.1 248.8h5.7M302.1 247.3h5.7M302.1 245.9h5.7M302.1 244.5h5.7M302.1 243h5.7M302.1 241.6h5.7M302.1 240.1h5.7M302.1 238.7h5.7M302.1 237.3h5.7M302.1 235.8h5.7M302.1 234.6h5.7M302.1 233.2h5.7M302.1 231.7h5.7M302.1 230.3h5.7M302.1 228.9h5.7M302.1 227.4h5.7M302.1 226h5.7M302.1 224.5h5.7M302.1 223.1h5.7M302.1 221.7h5.7M302.1 220.2h5.7M302.1 219h5.7M302.1 217.6h5.7M302.1 216.1h5.7M302.1 214.7h5.7M302.1 213.3h5.7M302.1 211.8h5.7M302.1 210.4h5.7M302.1 208.9h5.7M302.1 207.5h5.7M302.1 206.1h5.7M302.1 204.9h5.7M302.1 203.4h5.7M302.1 202h5.7M302.1 200.5h5.7M302.1 199.1h5.7M302.1 197.7h5.7M302.1 196.2h5.7M302.1 194.8h5.7M302.1 193.3h5.7M302.1 191.9h5.7M302.1 190.5h5.7M302.1 189.3h5.7M302.1 187.8h5.7M302.1 186.4h5.7M302.1 184.9h5.7M302.1 183.5h5.7M302.1 182.1h5.7M302.1 180.6h5.7M302.1 179.2h5.7M302.1 177.7h5.7M302.1 176.3h5.7M302.1 175.1h5.7M302.1 173.7h5.7M302.1 172.2h5.7M302.1 170.8h5.7M302.1 169.3h5.7M302.1 167.9h5.7M302.1 166.5h5.7M302.1 165h5.7M302.1 163.6h5.7M302.1 162.1h5.7M302.1 160.7h5.7M302.1 159.5h5.7M302.1 158.1h5.7M302.1 156.6h5.7M302.1 155.2h5.7M302.1 153.7h5.7M302.1 152.3h5.7M302.1 150.9h5.7M302.1 149.4h5.7M302.1 148h5.7M302.1 146.5h5.7M302.1 145.1h5.7M302.1 143.9h5.7M302.1 142.5h5.7M302.1 141h5.7M302.1 139.6h5.7M302.1 138.1h5.7M302.1 136.7h5.7M302.1 135.3h5.7M302.1 133.8h5.7M302.1 132.4h5.7M302.1 130.9h5.7M302.1 129.7h5.7M302.1 128.3h5.7M302.1 126.9h5.7M302.1 125.4h5.7M302.1 124h5.7M302.1 122.5h5.7M302.1 121.1h5.7M302.1 119.7h5.7M302.1 118.2h5.7M302.1 116.8h5.7M302.1 115.3h5.7M302.1 114.1h5.7M302.1 112.7h5.7M302.1 111.3h5.7M302.1 109.8h5.7M302.1 108.4h5.7M302.1 106.9h5.7M302.1 105.5h5.7M302.1 104.1h5.7M302.1 102.6h5.7M302.1 101.2h5.7M302.1 100h5.7M302.1 98.5h5.7M302.1 97.1h5.7M302.1 95.7h5.7M302.1 94.2h5.7M302.1 92.8h5.7M302.1 91.3h5.7M302.1 89.9h5.7M302.1 88.5h5.7M302.1 87h5.7M302.1 85.6h5.7M302.1 84.4h5.7M302.1 82.9h5.7M302.1 81.5h5.7M302.1 80.1h5.7M302.1 78.6h5.7M302.1 77.2h5.7M302.1 75.7h5.7M302.1 74.3h5.7M302.1 72.9h5.7M302.1 71.4h5.7M302.1 70.2h5.7M302.1 68.8h5.7M302.1 67.3h5.7M302.1 65.9h5.7M302.1 64.5h5.7M302.1 63h5.7M302.1 61.6h5.7M302.1 60.1h5.7M302.1 58.7h5.7M302.1 57.3h5.7M302.1 55.8h5.7M302.1 54.6h5.7M302.1 53.2h5.7M302.1 51.7h5.7M302.1 50.3h5.7M302.1 48.9h5.7M302.1 47.4h5.7M302.1 46h5.7M302.1 44.5h5.7M302.1 43.1h5.7M302.1 41.7h5.7M302.1 40.2h5.7M302.1 39h5.7M302.1 37.6h5.7M302.1 36.1h5.7M302.1 34.7h5.7M302.1 33.3h5.7M302.1 31.8h5.7M302.1 30.4h5.7M302.1 28.9h5.7M302.1 27.5h5.7M302.1 26.1h5.7M302.1 24.9h5.7M302.1 23.4h5.7M302.1 22h5.7M302.1 20.5h5.7M302.1 19.1h5.7M302.1 17.7h5.7M302.1 16.2h5.7M302.1 14.8h5.7M302.1 13.3h5.7M302.1 11.9h5.7M303 10.5h4.8M304.5 9.3h3.3M306.1 7.8h1.7M307.6 6.4h.2"/><path class="cls-9" d="M301.8 269.7v-258l-5 5v248.4l5 4.6"/><path class="cls-7" d="M297 264.1l5.1 5.1M297 260.3l5.1 5M297 256.2l5.1 5.1M297 252.1l5.1 5.1M297 248.1l5.1 5M297 244.2l5.1 5.1M297 240.1l5.1 5.1M297 236.1l5.1 5M297 232.2l5.1 5.1M297 228.1l5.1 5.1M297 224.1l5.1 5M297 220.2l5.1 5.1M297 216.1l5.1 5.1M297 212.1l5.1 5M297 208l5.1 5M297 204.1l5.1 5.1M297 200.1l5.1 5M297 196l5.1 5M297 192.1l5.1 5.1M297 188.1l5.1 5M297 184l5.1 5M297 179.9l5.1 5M297 176.1l5.1 5M297 172l5.1 5M297 167.9l5.1 5M297 164.1l5.1 5M297 160l5.1 5M297 155.9l5.1 5M297 152.1l5.1 5M297 148l5.1 5M297 143.9l5.1 5M297 139.8l5.1 5.1M297 136l5.1 5M297 131.9l5.1 5M297 127.8l5.1 5.1M297 124l5.1 5M297 119.9l5.1 5M297 115.8l5.1 5.1M297 112l5.1 5M297 107.9l5.1 5M297 103.8l5.1 5.1M297 99.7l5.1 5.1M297 95.9l5.1 5M297 91.8l5.1 5.1M297 87.7l5.1 5.1M297 83.9l5.1 5M297 79.8l5.1 5.1M297 75.7l5.1 5.1M297 71.9l5.1 5M297 67.8l5.1 5.1M297 63.7l5.1 5.1M297 59.7l5.1 5M297 55.8l5.1 5.1M297 51.7l5.1 5.1M297 47.7l5.1 5M297 43.8l5.1 5.1M297 39.7l5.1 5.1M297 35.7l5.1 5M297 31.6l5.1 5M297 27.7l5.1 5.1M297 23.7l5.1 5M297 19.6l5.1 5M297.5 16.2l4.6 4.6M299.4 14.1l2.7 2.6M301.3 12.1l.8.5M301.8 11.7v258M307.6 6.1v268.8"/><path class="cls-8" d="M311.4 2.1v276.4M296.8 16.7v248.4"/><path class="cls-10" d="M100.2 5.4V2.1H33.7v14.6h59.6l6.9-5V6.1h-6.9v-.7h6.9"/><path class="cls-9" d="M100.2 5.4V2.1H33.7v3.3h66.5"/><path class="cls-7" d="M34 5.2l.2.2M34.7 2.1l3.4 3.3M38.8 2.1l3.3 3.3M42.9 2.1l3.3 3.3M46.7 2.1l3.4 3.3M50.8 2.1l3.3 3.3M54.9 2.1l3.3 3.3M58.7 2.1l3.4 3.3M62.8 2.1l3.3 3.3M66.9 2.1l3.3 3.3M70.9 2.1l3.4 3.3M74.8 2.1l3.3 3.3M78.9 2.1l3.3 3.3M82.9 2.1l3.4 3.3M86.8 2.1l3.3 3.3M90.9 2.1l3.3 3.3M94.9 2.1l3.4 3.3M98.8 2.1l1.7 1.4"/><path class="cls-9" d="M93.3 6.1v-.7H33.7v.7h59.6M100.2 11.7V6.1H33.7v5.6h66.5"/><path class="cls-7" d="M100 11.7V6.1M98.5 11.7V6.1M97.1 11.7V6.1M95.7 11.7V6.1M94.2 11.7V6.1M93 11.7V6.1M91.6 11.7V6.1M90.1 11.7V6.1M88.7 11.7V6.1M87.3 11.7V6.1M85.8 11.7V6.1M84.4 11.7V6.1M82.9 11.7V6.1M81.5 11.7V6.1M80.1 11.7V6.1M78.6 11.7V6.1M77.4 11.7V6.1M76 11.7V6.1M74.5 11.7V6.1M73.1 11.7V6.1M71.7 11.7V6.1M70.2 11.7V6.1M68.8 11.7V6.1M67.3 11.7V6.1M65.9 11.7V6.1M64.5 11.7V6.1M63 11.7V6.1M61.8 11.7V6.1M60.4 11.7V6.1M58.9 11.7V6.1M57.5 11.7V6.1M56.1 11.7V6.1M54.6 11.7V6.1M53.2 11.7V6.1M51.7 11.7V6.1M50.3 11.7V6.1M48.9 11.7V6.1M47.7 11.7V6.1M46.2 11.7V6.1M44.8 11.7V6.1M43.3 11.7V6.1M41.9 11.7V6.1M40.5 11.7V6.1M39 11.7V6.1M37.6 11.7V6.1M36.1 11.7V6.1M34.7 11.7V6.1"/><path class="cls-9" d="M93.3 16.7l6.9-5H33.7v5h59.6"/><path class="cls-7" d="M98.1 13.3l-1.7-1.6M95.7 15l-3.2-3.3M93.5 16.7l-5-5M89.4 16.7l-5-5M85.6 16.7l-5.1-5M81.5 16.7l-5-5M77.4 16.7l-5-5M73.3 16.7l-5-5M69.5 16.7l-5-5M65.4 16.7l-5-5M61.3 16.7l-5-5M57.5 16.7l-5-5M53.4 16.7l-5-5M49.3 16.7l-5-5M45.5 16.7l-5-5M41.4 16.7l-5-5M37.3 16.7L34 13.1M97.3 13.8l2.2-2.1M90.4 16.7l5-5M86.5 16.7l5.1-5M82.5 16.7l5-5M78.4 16.7l5-5M74.3 16.7l5-5M70.5 16.7l5-5M66.4 16.7l5-5M62.3 16.7l5-5M58.5 16.7l5-5M54.4 16.7l5-5M50.3 16.7l5-5M46.5 16.7l5-5M42.4 16.7l5-5M38.3 16.7l5-5M34.2 16.7l5.1-5M34 13.1l1.4-1.4M33.7 11.7h66.5M33.7 6.1h59.6"/><path class="cls-8" d="M33.7 2.1h66.5M33.7 16.7h59.6"/><path class="cls-10" d="M.9 11.7l6.9 5H15V2.1H.9v14.6-5"/><path class="cls-9" d="M.9 2.1v3.3H15V2.1H.9"/><path class="cls-7" d="M1.1 4.5l1 .9M2.8 2.1l3.3 3.3M6.6 2.1L10 5.4M10.7 2.1l3.4 3.3M14.8 2.1l.5.4"/><path class="cls-9" d="M.9 5.4v.7H15v-.7H.9"/><path class="cls-9" d="M.9 6.1v5.6H15V6.1H.9"/><path class="cls-7" d="M15 11.7V6.1M13.6 11.7V6.1M12.1 11.7V6.1M10.7 11.7V6.1M9.3 11.7V6.1M7.8 11.7V6.1M6.4 11.7V6.1M4.9 11.7V6.1M3.5 11.7V6.1M2.3 11.7V6.1"/><path class="cls-9" d="M.9 11.7l6.9 5H15v-5H.9"/><path class="cls-7" d="M15.3 14.5l-2.9-2.8M13.3 16.7l-5-5M9.3 16.7l-5.1-5M14.3 16.7l1-1M10.2 16.7l5.1-4.8M6.9 16l4.5-4.3M4.7 14.3l2.6-2.6M2.3 12.6l1-.9M.9 11.7H15M.9 6.1H15"/><path class="cls-8" d="M.9 2.1H15M7.8 16.7H15M.9 16.7"/><path class="cls-7" d="M93.3 6.1h6.9"/><path class="cls-8" d="M15 11.7v5.7h18.7v-5.7M16.9 9.5V2.1h-3.3v-2h21.8v2h-3.3v7.4M15 9.5h18.7v2.2H15zM18.9 9.5v2.2M30.1 9.5v2.2M15 11.7V9.5M30.1 11.7V9.5M18.9 11.7V9.5M33.7 11.7V9.5M16.9 5.4h7.5"/><path class="cls-9" d="M15.1 6H17v3.4h-1.9"/><path class="cls-7" d="M16.5 9.5V6.1M15.1 6H17v3.4h-1.9"/><path class="cls-9" d="M15 2.1h1.9v3.3H15"/><path class="cls-7" d="M15.3 2.5l1.9 2"/><path class="cls-8" d="M32.1 5.4h-7.7"/><path class="cls-9" d="M33.8 6H32v3.4h1.8"/><path class="cls-7" d="M33.3 9.5V6.1M33.8 6H32v3.4h1.8"/><path class="cls-9" d="M33.7 2.1h-1.6v3.3h1.6"/><path class="cls-7" d="M32.3 3.5L34 5.2"/><path class="cls-8" d="M111.3 338.3h196.3v-59.8"/><path class="cls-9" d="M211.3 198.6v4.1h85.5v-4.1h-85.5"/><path class="cls-7" d="M211.6 200.8l1.9-2.2M213.7 202.7l4.1-4.1M218.1 202.7l4-4.1M222.1 202.7l4.1-4.1M226.5 202.7l4-4.1M230.8 202.7l4.1-4.1M235.1 202.7l4.1-4.1M239.2 202.7l4.1-4.1M243.5 202.7l4.1-4.1M247.8 202.7l4.1-4.1M251.9 202.7l4.1-4.1M256.2 202.7l4.1-4.1M260.5 202.7l4.1-4.1M264.6 202.7l4.1-4.1M268.9 202.7l4.1-4.1M273.3 202.7l4-4.1M277.6 202.7l4.1-4.1M281.7 202.7l4-4.1M286 202.7l4.1-4.1M290.3 202.7l4.1-4.1M294.4 202.7l2.6-2.4"/><path class="cls-9" d="M211.3 198.6v4.1h85.5v-4.1h-85.5"/><path class="cls-7" d="M211.6 200.8l1.9-2.2M213.7 202.7l4.1-4.1M218.1 202.7l4-4.1M222.1 202.7l4.1-4.1M226.5 202.7l4-4.1M230.8 202.7l4.1-4.1M235.1 202.7l4.1-4.1M239.2 202.7l4.1-4.1M243.5 202.7l4.1-4.1M247.8 202.7l4.1-4.1M251.9 202.7l4.1-4.1M256.2 202.7l4.1-4.1M260.5 202.7l4.1-4.1M264.6 202.7l4.1-4.1M268.9 202.7l4.1-4.1M273.3 202.7l4-4.1M277.6 202.7l4.1-4.1M281.7 202.7l4-4.1M286 202.7l4.1-4.1M290.3 202.7l4.1-4.1M294.4 202.7l2.6-2.4"/><path class="cls-8" d="M93.3 56.1H59.2M93.3 63.7H59.2M93.3 71.4H59.2M93.3 79.1H59.2M93.3 86.8H59.2M93.3 94.2H59.2M93.3 101.9H59.2M93.3 109.6H59.2M7.8 109.6h34.1M7.8 101.9h34.1M7.8 94.2h34.1M7.8 86.8h34.1M7.8 79.1h34.1M7.8 71.4h34.1M7.8 63.7h34.1M7.8 56.1h34.1M93.3 113.4v1.5H41.9V50.8h17.3v62.6h-1.5V52.2H43.3v61.2h50zM28.9 105.7H21M24.9 109.6l4-3.9M21 105.7l3.9 3.9"/><path class="cls-9" d="M229.1 152.5v-5h67.7v5h-67.7"/><path class="cls-7" d="M229.3 148.9l1.5-1.4M229.8 152.5l5.1-5M234.1 152.5l5.1-5M238.5 152.5l5-5M242.5 152.5l5.1-5M246.9 152.5l5-5M251.2 152.5l5-5M255.5 152.5l5-5M259.6 152.5l5-5M263.9 152.5l5-5M268.2 152.5l5.1-5M272.3 152.5l5-5M276.6 152.5l5.1-5M280.9 152.5l5.1-5M285.3 152.5l5-5M289.3 152.5l5.1-5M293.7 152.5l3.3-3.3"/><path class="cls-9" d="M229.1 147.5v5h67.7v-5h-67.7"/><path class="cls-7" d="M229.3 148.9l1.5-1.4M229.8 152.5l5.1-5M234.1 152.5l5.1-5M238.5 152.5l5-5M242.5 152.5l5.1-5M246.9 152.5l5-5M251.2 152.5l5-5M255.5 152.5l5-5M259.6 152.5l5-5M263.9 152.5l5-5M268.2 152.5l5.1-5M272.3 152.5l5-5M276.6 152.5l5.1-5M280.9 152.5l5.1-5M285.3 152.5l5-5M289.3 152.5l5.1-5M293.7 152.5l3.3-3.3"/><path class="cls-9" d="M100.2 162.4h-6.9v54.7h6.9v-54.7"/><path class="cls-7" d="M100.5 163.8l-1.7-1.4M100.5 167.9l-5.6-5.5M100.5 172l-7-7M100.5 175.8l-7-6.9M100.5 179.9l-7-7M100.5 184l-7-7M100.5 187.8l-7-6.9M100.5 191.9l-7-7M100.5 196l-7-7M100.5 199.8l-7-6.9M100.5 203.9l-7-7M100.5 208l-7-7M100.5 212.1l-7-7M100.5 215.9l-7-7M97.6 217.1l-4.1-4.1M98.5 217.1l2-1.9M94.5 217.1l6-5.8M93.5 214.2l7-6.9M93.5 210.1l7-6.9M93.5 206.3l7-7M93.5 202.2l7-6.9M93.5 198.1l7-6.9M93.5 194.1l7-7M93.5 190.2l7-6.9M93.5 186.1l7-6.9M93.5 182.1l7-7M93.5 178.2l7-6.9M93.5 174.1l7-6.9M93.5 170.1l7-7M93.5 166.2l3.6-3.8"/><path class="cls-9" d="M100.2 162.4h-6.9v54.7h6.9v-54.7"/><path class="cls-7" d="M100.5 163.8l-1.7-1.4M100.5 167.9l-5.6-5.5M100.5 172l-7-7M100.5 175.8l-7-6.9M100.5 179.9l-7-7M100.5 184l-7-7M100.5 187.8l-7-6.9M100.5 191.9l-7-7M100.5 196l-7-7M100.5 199.8l-7-6.9M100.5 203.9l-7-7M100.5 208l-7-7M100.5 212.1l-7-7M100.5 215.9l-7-7M97.6 217.1l-4.1-4.1M98.5 217.1l2-1.9M94.5 217.1l6-5.8M93.5 214.2l7-6.9M93.5 210.1l7-6.9M93.5 206.3l7-7M93.5 202.2l7-6.9M93.5 198.1l7-6.9M93.5 194.1l7-7M93.5 190.2l7-6.9M93.5 186.1l7-6.9M93.5 182.1l7-7M93.5 178.2l7-6.9M93.5 174.1l7-6.9M93.5 170.1l7-7M93.5 166.2l3.6-3.8"/><path class="cls-9" d="M100.2 11.7l-6.9 5v105.6h6.9V11.7"/><path class="cls-7" d="M100.5 15.5l-2.4-2.2M100.5 19.6L95.7 15M100.5 23.7l-7-7M100.5 27.5l-7-7M100.5 31.6l-7-7M100.5 35.7l-7-7M100.5 39.5l-7-7M100.5 43.6l-7-7M100.5 47.7l-7-7M100.5 51.5l-7-7M100.5 55.6l-7-7M100.5 59.7l-7-7M100.5 63.7l-7-6.9M100.5 67.6l-7-7M100.5 71.7l-7-7M100.5 75.7l-7-6.9M100.5 79.6l-7-7M100.5 83.7l-7-7M100.5 87.7l-7-6.9M100.5 91.6l-7-7M100.5 95.7l-7-7M100.5 99.7l-7-6.9M100.5 103.8l-7-6.9M100.5 107.7l-7-7M100.5 111.7l-7-6.9M100.5 115.8l-7-6.9M100.5 119.7l-7-7M98.8 122.3l-5.3-5.5M94.9 122.3l-1.4-1.4M97.1 122.3l3.4-3.4M93.5 122.1l7-7M93.5 118l7-7M93.5 113.9l7-7M93.5 110.1l7-7M93.5 106l7-7M93.5 101.9l7-7M93.5 98.1l7-7M93.5 94l7-7M93.5 89.9l7-7M93.5 85.8l7-6.9M93.5 82l7-7M93.5 77.9l7-7M93.5 73.8l7-6.9M93.5 70l7-7M93.5 65.9l7-7M93.5 61.8l7-6.9M93.5 58l7-7M93.5 53.9l7-7M93.5 49.8l7-6.9M93.5 45.7l7-6.9M93.5 41.9l7-7M93.5 37.8l7-6.9M93.5 33.7l7-6.9M93.5 29.9l7-7M93.5 25.8l7-6.9M93.5 21.7l7-6.9M93.5 17.7l3.8-3.9"/><path class="cls-9" d="M100.2 11.7l-6.9 5v105.6h6.9V11.7"/><path class="cls-7" d="M100.5 15.5l-2.4-2.2M100.5 19.6L95.7 15M100.5 23.7l-7-7M100.5 27.5l-7-7M100.5 31.6l-7-7M100.5 35.7l-7-7M100.5 39.5l-7-7M100.5 43.6l-7-7M100.5 47.7l-7-7M100.5 51.5l-7-7M100.5 55.6l-7-7M100.5 59.7l-7-7M100.5 63.7l-7-6.9M100.5 67.6l-7-7M100.5 71.7l-7-7M100.5 75.7l-7-6.9M100.5 79.6l-7-7M100.5 83.7l-7-7M100.5 87.7l-7-6.9M100.5 91.6l-7-7M100.5 95.7l-7-7M100.5 99.7l-7-6.9M100.5 103.8l-7-6.9M100.5 107.7l-7-7M100.5 111.7l-7-6.9M100.5 115.8l-7-6.9M100.5 119.7l-7-7M98.8 122.3l-5.3-5.5M94.9 122.3l-1.4-1.4M97.1 122.3l3.4-3.4M93.5 122.1l7-7M93.5 118l7-7M93.5 113.9l7-7M93.5 110.1l7-7M93.5 106l7-7M93.5 101.9l7-7M93.5 98.1l7-7M93.5 94l7-7M93.5 89.9l7-7M93.5 85.8l7-6.9M93.5 82l7-7M93.5 77.9l7-7M93.5 73.8l7-6.9M93.5 70l7-7M93.5 65.9l7-7M93.5 61.8l7-6.9M93.5 58l7-7M93.5 53.9l7-7M93.5 49.8l7-6.9M93.5 45.7l7-6.9M93.5 41.9l7-7M93.5 37.8l7-6.9M93.5 33.7l7-6.9M93.5 29.9l7-7M93.5 25.8l7-6.9M93.5 21.7l7-6.9M93.5 17.7l3.8-3.9"/><path class="cls-9" d="M100.2 158.1h-4.1l4.1 4.3v-4.3"/><path class="cls-7" d="M100.5 159.7l-2-1.6M98.8 160.7l1.7-1.4M96.9 158.5l.4-.4"/><path class="cls-9" d="M100.2 158.1h-4.1l4.1 4.3v-4.3"/><path class="cls-7" d="M100.5 159.7l-2-1.6M98.8 160.7l1.7-1.4M96.9 158.5l.4-.4"/><path class="cls-8" d="M99.3 152.1h1.7v6h-1.7zM99.3 122.3h1.7v2.6h-1.7zM99.3 124.9h1.7V152h-1.7zM99.3 152.1v-27.2"/><path class="cls-1" d="M93.3 152.5v-27.8"/><path class="cls-8" d="M93.3 125.2v-.5"/><path class="cls-9" d="M93.3 158.1v-5.6h6v5.6"/><path class="cls-7" d="M99.5 154.9l-2.4-2.4M98.5 158.1l-5-5.3M94.5 158.1l-1-1.2M97.3 158.1l2.2-2M93.5 158.1l5.5-5.6M93.5 154l1.4-1.5"/><path class="cls-9" d="M93.3 122.3v2.4h6v-2.4"/><path class="cls-7" d="M99.5 122.8l-.7-.5M97.3 124.7l-2.4-2.4M98.8 124.7l.7-.7M94.7 124.7l2.4-2.4M100.9 152.2c14.9 0 27.2-12.3 27.2-27.2M100.9 124.9h27.2"/><path class="cls-9" d="M47.9 154.9l-7.2 8.7v60.9l7.2-7.4v-62.2"/><path class="cls-7" d="M48.1 155.7l-.4-.3M48.1 159.7l-2.1-2.1M48.1 163.6l-4-3.9M48.1 167.7l-6-5.8M48.1 171.7l-7.2-7.2M48.1 175.6l-7.2-7.2M48.1 179.7l-7.2-7.2M48.1 183.7l-7.2-7.2M48.1 187.8l-7.2-7.2M48.1 191.7l-7.2-7.2M48.1 195.7l-7.2-7.2M48.1 199.8l-7.2-7.2M48.1 203.7l-7.2-7.2M48.1 207.7l-7.2-7.2M48.1 211.8l-7.2-7.2M48.1 215.7l-7.2-7.2M46.7 218.5l-5.8-6M44.8 220.5l-3.9-3.9M42.9 222.6l-2-1.9M40.9 222.6l7.2-7.2M40.9 218.8l7.2-7.2M40.9 214.7l7.2-7.2M40.9 210.6l7.2-7.2M40.9 206.5l7.2-7.2M40.9 202.7l7.2-7.2M40.9 198.6l7.2-7.2M40.9 194.5l7.2-7.2M40.9 190.7l7.2-7.2M40.9 186.6l7.2-7.2M40.9 182.5l7.2-7.2M40.9 178.5l7.2-7.2M40.9 174.6l7.2-7.2M40.9 170.5l7.2-7.2M40.9 166.5l7.2-7.2M46 157.3l2.1-1.9"/><path class="cls-9" d="M47.9 154.9l-7.2 8.7v60.9l7.2-7.4v-62.2"/><path class="cls-7" d="M48.1 155.7l-.4-.3M48.1 159.7l-2.1-2.1M48.1 163.6l-4-3.9M48.1 167.7l-6-5.8M48.1 171.7l-7.2-7.2M48.1 175.6l-7.2-7.2M48.1 179.7l-7.2-7.2M48.1 183.7l-7.2-7.2M48.1 187.8l-7.2-7.2M48.1 191.7l-7.2-7.2M48.1 195.7l-7.2-7.2M48.1 199.8l-7.2-7.2M48.1 203.7l-7.2-7.2M48.1 207.7l-7.2-7.2M48.1 211.8l-7.2-7.2M48.1 215.7l-7.2-7.2M46.7 218.5l-5.8-6M44.8 220.5l-3.9-3.9M42.9 222.6l-2-1.9M40.9 222.6l7.2-7.2M40.9 218.8l7.2-7.2M40.9 214.7l7.2-7.2M40.9 210.6l7.2-7.2M40.9 206.5l7.2-7.2M40.9 202.7l7.2-7.2M40.9 198.6l7.2-7.2M40.9 194.5l7.2-7.2M40.9 190.7l7.2-7.2M40.9 186.6l7.2-7.2M40.9 182.5l7.2-7.2M40.9 178.5l7.2-7.2M40.9 174.6l7.2-7.2M40.9 170.5l7.2-7.2M40.9 166.5l7.2-7.2M46 157.3l2.1-1.9"/><path class="cls-9" d="M47.9 217.1l-7.2 7.4h70.6l6.9-7.4H47.9"/><path class="cls-7" d="M118 217.6l-.5-.5M116.1 219.5l-2.7-2.4M114.1 221.7l-4.5-4.6M112.2 223.8l-6.7-6.7M108.9 224.5l-7.5-7.4M105 224.5l-7.4-7.4M100.9 224.5l-7.4-7.4M96.9 224.5l-7.5-7.4M92.8 224.5l-7.5-7.4M88.9 224.5l-7.4-7.4M84.9 224.5l-7.5-7.4M80.8 224.5l-7.5-7.4M76.9 224.5l-7.4-7.4M72.9 224.5l-7.5-7.4M68.8 224.5l-7.5-7.4M64.7 224.5l-7.4-7.4M60.9 224.5l-7.5-7.4M56.8 224.5l-7.5-7.4M52.7 224.5l-6-6M48.9 224.5l-4.1-4M44.8 224.5l-1.9-1.9M111 224.5l4.3-4.3M107.2 224.5l7.4-7.4M103.1 224.5l7.4-7.4M99 224.5l7.5-7.4M95.2 224.5l7.4-7.4M91.1 224.5l7.4-7.4M87 224.5l7.5-7.4M82.9 224.5l7.5-7.4M79.1 224.5l7.4-7.4M75 224.5l7.5-7.4M70.9 224.5l7.5-7.4M67.1 224.5l7.4-7.4M63 224.5l7.5-7.4M58.9 224.5l7.5-7.4M55.1 224.5l7.4-7.4M51 224.5l7.5-7.4M46.9 224.5l7.5-7.4M42.9 224.5l7.4-7.4"/><path class="cls-9" d="M47.9 217.1l-7.2 7.4h70.6l6.9-7.4H47.9"/><path class="cls-7" d="M118 217.6l-.5-.5M116.1 219.5l-2.7-2.4M114.1 221.7l-4.5-4.6M112.2 223.8l-6.7-6.7M108.9 224.5l-7.5-7.4M105 224.5l-7.4-7.4M100.9 224.5l-7.4-7.4M96.9 224.5l-7.5-7.4M92.8 224.5l-7.5-7.4M88.9 224.5l-7.4-7.4M84.9 224.5l-7.5-7.4M80.8 224.5l-7.5-7.4M76.9 224.5l-7.4-7.4M72.9 224.5l-7.5-7.4M68.8 224.5l-7.5-7.4M64.7 224.5l-7.4-7.4M60.9 224.5l-7.5-7.4M56.8 224.5l-7.5-7.4M52.7 224.5l-6-6M48.9 224.5l-4.1-4M44.8 224.5l-1.9-1.9M111 224.5l4.3-4.3M107.2 224.5l7.4-7.4M103.1 224.5l7.4-7.4M99 224.5l7.5-7.4M95.2 224.5l7.4-7.4M91.1 224.5l7.4-7.4M87 224.5l7.5-7.4M82.9 224.5l7.5-7.4M79.1 224.5l7.4-7.4M75 224.5l7.5-7.4M70.9 224.5l7.5-7.4M67.1 224.5l7.4-7.4M63 224.5l7.5-7.4M58.9 224.5l7.5-7.4M55.1 224.5l7.4-7.4M51 224.5l7.5-7.4M46.9 224.5l7.5-7.4M42.9 224.5l7.4-7.4"/><path class="cls-9" d="M118.2 217.1l-6.9 7.4v45.6h6.9v-53"/><path class="cls-7" d="M118.5 217.8l-.5-.2M118.5 221.9l-2.4-2.4M118.5 226l-4.4-4.3M118.5 230.1l-6.3-6.3M118.5 233.9l-7-7M118.5 238l-7-7M118.5 242.1l-7-7M118.5 245.9l-7-7M118.5 250l-7-7M118.5 254.1l-7-7M118.5 258.1l-7-6.9M118.5 262l-7-7M118.5 266.1l-7-7M118.5 270.1l-7-6.9M114.4 270.1l-2.9-3.1M117.7 270.1l.8-.7M113.7 270.1l4.8-4.8M111.5 268.5l7-7M111.5 264.4l7-7M111.5 260.3l7-7M111.5 256.2l7-6.9M111.5 252.4l7-7M111.5 248.3l7-7M111.5 244.2l7-6.9M111.5 240.4l7-7M111.5 236.3l7-7M111.5 232.2l7-6.9M111.5 228.4l7-7M115.3 220.2l3.2-2.9"/><path class="cls-9" d="M118.2 217.1l-6.9 7.4v45.6h6.9v-53"/><path class="cls-7" d="M118.5 217.8l-.5-.2M118.5 221.9l-2.4-2.4M118.5 226l-4.4-4.3M118.5 230.1l-6.3-6.3M118.5 233.9l-7-7M118.5 238l-7-7M118.5 242.1l-7-7M118.5 245.9l-7-7M118.5 250l-7-7M118.5 254.1l-7-7M118.5 258.1l-7-6.9M118.5 262l-7-7M118.5 266.1l-7-7M118.5 270.1l-7-6.9M114.4 270.1l-2.9-3.1M117.7 270.1l.8-.7M113.7 270.1l4.8-4.8M111.5 268.5l7-7M111.5 264.4l7-7M111.5 260.3l7-7M111.5 256.2l7-6.9M111.5 252.4l7-7M111.5 248.3l7-7M111.5 244.2l7-6.9M111.5 240.4l7-7M111.5 236.3l7-7M111.5 232.2l7-6.9M111.5 228.4l7-7M115.3 220.2l3.2-2.9"/><path class="cls-9" d="M.9 163.6l5-6.3h-5v6.3"/><path class="cls-7" d="M5.9 157.6l-.2-.3M4 159.7l-2.4-2.4M2.3 161.9l-1.2-1.2M1.1 162.4l4.8-5.1M1.1 158.3l.7-1"/><path class="cls-9" d="M.9 163.6l5-6.3h-5v6.3"/><path class="cls-7" d="M5.9 157.6l-.2-.3M4 159.7l-2.4-2.4M2.3 161.9l-1.2-1.2M1.1 162.4l4.8-5.1M1.1 158.3l.7-1"/><path class="cls-9" d="M7.8 124.9V16.7l-6.9-5v113.2h6.9"/><path class="cls-7" d="M8.1 19.3l-7-6.9M8.1 23.4l-7-6.9M8.1 27.3l-7-7M8.1 31.3l-7-6.9M8.1 35.4l-7-6.9M8.1 39.5l-7-7M8.1 43.3l-7-6.9M8.1 47.4l-7-6.9M8.1 51.5l-7-7M8.1 55.3l-7-6.9M8.1 59.4l-7-6.9M8.1 63.5l-7-7M8.1 67.3l-7-6.9M8.1 71.4l-7-6.9M8.1 75.5l-7-7M8.1 79.6l-7-7M8.1 83.4l-7-6.9M8.1 87.5l-7-7M8.1 91.6l-7-7M8.1 95.4l-7-6.9M8.1 99.5l-7-7M8.1 103.6l-7-7M8.1 107.4l-7-6.9M8.1 111.5l-7-7M8.1 115.6l-7-7M8.1 119.7l-7-7M8.1 123.5l-7-7M5.4 124.9l-4.3-4.3M1.3 124.9l-.2-.2M6.4 124.9l1.7-1.6M2.3 124.9l5.8-5.7M1.1 122.3l7-7M1.1 118.2l7-6.9M1.1 114.1l7-6.9M1.1 110.1l7-7M1.1 106.2l7-6.9M1.1 102.1l7-6.9M1.1 98.1l7-7M1.1 94.2l7-6.9M1.1 90.1l7-6.9M1.1 86.1l7-7M1.1 82.2l7-6.9M1.1 78.1l7-6.9M1.1 74.1l7-7M1.1 70l7-7M1.1 66.1l7-6.9M1.1 62.1l7-7M1.1 58l7-7M1.1 54.1l7-6.9M1.1 50.1l7-7M1.1 46l7-7M1.1 42.1l7-6.9M1.1 38.1l7-7M1.1 34l7-7M1.1 29.9l7-7M1.1 26.1l7-7M1.1 22l5.8-6M1.1 17.9l3.6-3.6M1.1 14.1l1.2-1.5"/><path class="cls-9" d="M7.8 124.9V16.7l-6.9-5v113.2h6.9"/><path class="cls-7" d="M8.1 19.3l-7-6.9M8.1 23.4l-7-6.9M8.1 27.3l-7-7M8.1 31.3l-7-6.9M8.1 35.4l-7-6.9M8.1 39.5l-7-7M8.1 43.3l-7-6.9M8.1 47.4l-7-6.9M8.1 51.5l-7-7M8.1 55.3l-7-6.9M8.1 59.4l-7-6.9M8.1 63.5l-7-7M8.1 67.3l-7-6.9M8.1 71.4l-7-6.9M8.1 75.5l-7-7M8.1 79.6l-7-7M8.1 83.4l-7-6.9M8.1 87.5l-7-7M8.1 91.6l-7-7M8.1 95.4l-7-6.9M8.1 99.5l-7-7M8.1 103.6l-7-7M8.1 107.4l-7-6.9M8.1 111.5l-7-7M8.1 115.6l-7-7M8.1 119.7l-7-7M8.1 123.5l-7-7M5.4 124.9l-4.3-4.3M1.3 124.9l-.2-.2M6.4 124.9l1.7-1.6M2.3 124.9l5.8-5.7M1.1 122.3l7-7M1.1 118.2l7-6.9M1.1 114.1l7-6.9M1.1 110.1l7-7M1.1 106.2l7-6.9M1.1 102.1l7-6.9M1.1 98.1l7-7M1.1 94.2l7-6.9M1.1 90.1l7-6.9M1.1 86.1l7-7M1.1 82.2l7-6.9M1.1 78.1l7-6.9M1.1 74.1l7-7M1.1 70l7-7M1.1 66.1l7-6.9M1.1 62.1l7-7M1.1 58l7-7M1.1 54.1l7-6.9M1.1 50.1l7-7M1.1 46l7-7M1.1 42.1l7-6.9M1.1 38.1l7-7M1.1 34l7-7M1.1 29.9l7-7M1.1 26.1l7-7M1.1 22l5.8-6M1.1 17.9l3.6-3.6M1.1 14.1l1.2-1.5"/><path class="cls-8" d="M.1 124.9H2v2.6H.1zM.1 154.7H2v2.6H.1zM.1 127.6H2v27.1H.1zM2.1 127.6v27.1"/><path class="cls-1" d="M7.8 127.3v27.6"/><path class="cls-8" d="M7.8 154.5v.4"/><path class="cls-9" d="M7.8 124.9v2.4H2.1v-2.4"/><path class="cls-7" d="M7.8 127.3l-2.4-2.4M3.7 127.3l-1.4-1.4M7.8 127.3h.3M4 127.3l2.4-2.4M2.3 124.9"/><path class="cls-9" d="M7.8 157.3v-2.4H2.1v2.4"/><path class="cls-7" d="M8.1 155.7l-.8-.8M5.7 157.3l-2.4-2.4M5.9 157.3l2.2-1.9M2.3 157.1l1.9-2.2"/><path class="cls-9" d="M83.9 162.4v-7.5h3.4v7.5h-3.4"/><path class="cls-7" d="M87.5 159l-3.4-3.3M86.8 162.4l-2.7-2.9M85.1 162.4l2.4-2.4M84.1 159.5l3.4-3.4M84.1 155.4l.3-.5"/><path class="cls-9" d="M83.9 154.9v7.5h3.4v-7.5h-3.4"/><path class="cls-7" d="M87.5 159l-3.4-3.3M86.8 162.4l-2.7-2.9M85.1 162.4l2.4-2.4M84.1 159.5l3.4-3.4M84.1 155.4l.3-.5"/><path class="cls-8" d="M51 160.9h31.7"/><path class="cls-1" d="M51 154.9h31.7"/><path class="cls-9" d="M47.9 154.9H51v6h-3.1"/><path class="cls-7" d="M51.3 158.8l-3.2-3.1M49.3 160.9l-1.2-1.2M50.5 160.9l.8-.7M48.1 159.3l3.2-3.2M48.1 155.4l.3-.5"/><path class="cls-9" d="M83.9 154.9h-1.2v6h1.2"/><path class="cls-7" d="M84.1 155.7l-.7-.8M84.1 159.5l-1.2-1.2M82.9 160.7l1.2-1.2M82.9 156.6l1.2-1.2"/><path class="cls-9" d="M100.2 162.4l-6.9-7.5H82.7v7.5h17.5"/><path class="cls-7" d="M98.8 162.4l-7.5-7.5M94.9 162.4l-7.4-7.5M90.9 162.4l-7.5-7.5M86.8 162.4l-3.9-4.1M97.1 162.4l1.7-1.7M93 162.4l3.9-3.9M89.2 162.4l5.7-5.8M85.1 162.4l7.4-7.5M82.9 160.7l5.6-5.8M82.9 156.6l1.5-1.7"/><path class="cls-9" d="M100.2 162.4l-6.9-7.5H82.7v7.5h17.5"/><path class="cls-7" d="M98.8 162.4l-7.5-7.5M94.9 162.4l-7.4-7.5M90.9 162.4l-7.5-7.5M86.8 162.4l-3.9-4.1M97.1 162.4l1.7-1.7M93 162.4l3.9-3.9M89.2 162.4l5.7-5.8M85.1 162.4l7.4-7.5M82.9 160.7l5.6-5.8M82.9 156.6l1.5-1.7"/><path class="cls-8" d="M48.9 162.4h35.5M67.3 165.3H53.4M80.1 168.4h-14"/><path class="cls-1" d="M118.7 156.9v-34.1"/><path class="cls-8" d="M118.7 123.3v-.5"/><path class="cls-9" d="M40.7 163.6l7.2-8.7H7.8l-6.9 8.7h39.8"/><path class="cls-7" d="M47.7 155.4l-.3-.5M46 157.6l-2.7-2.7M44.1 159.7l-4.8-4.8M42.1 161.9l-6.7-7M40 163.6l-8.7-8.7M35.9 163.6l-8.6-8.7M31.8 163.6l-8.6-8.7M28 163.6l-8.7-8.7M23.9 163.6l-8.6-8.7M19.8 163.6l-8.6-8.7M16 163.6l-8.4-8.2M11.9 163.6l-6-6M7.8 163.6L4 159.7M3.7 163.6l-1.4-1.7M39.7 163.6l6.3-6.3M35.7 163.6l8.6-8.7M31.8 163.6l8.7-8.7M27.7 163.6l8.7-8.7M23.7 163.6l8.6-8.7M19.8 163.6l8.7-8.7M15.7 163.6l8.7-8.7M11.7 163.6l8.6-8.7M7.8 163.6l8.7-8.7M3.7 163.6l8.7-8.7M6.4 156.9l1.9-2"/><path class="cls-9" d="M40.7 163.6l7.2-8.7H7.8l-6.9 8.7h39.8"/><path class="cls-7" d="M47.7 155.4l-.3-.5M46 157.6l-2.7-2.7M44.1 159.7l-4.8-4.8M42.1 161.9l-6.7-7M40 163.6l-8.7-8.7M35.9 163.6l-8.6-8.7M31.8 163.6l-8.6-8.7M28 163.6l-8.7-8.7M23.9 163.6l-8.6-8.7M19.8 163.6l-8.6-8.7M16 163.6l-8.4-8.2M11.9 163.6l-6-6M7.8 163.6L4 159.7M3.7 163.6l-1.4-1.7M39.7 163.6l6.3-6.3M35.7 163.6l8.6-8.7M31.8 163.6l8.7-8.7M27.7 163.6l8.7-8.7M23.7 163.6l8.6-8.7M19.8 163.6l8.7-8.7M15.7 163.6l8.7-8.7M11.7 163.6l8.6-8.7M7.8 163.6l8.7-8.7M3.7 163.6l8.7-8.7M6.4 156.9l1.9-2M150.8 270.1c0-11-9.1-20.1-20.1-20.1M130.7 250v20.1"/><path class="cls-3" d="M150.9 270.1l.2-4 1.2-3.6 1.9-3.6 2.4-3.2 3.1-2.4 3.6-1.9 3.6-.9 4.1-.5M171 250v20.1"/><path class="cls-7" d="M245.8 270v-1.9c0-.6.2-1.2.3-1.8s.3-1.2.5-1.8l.6-1.8c.2-.6.5-1.1.8-1.7.3-.5.6-1.1 1-1.6.3-.5.7-1 1.1-1.5.4-.5.8-.9 1.3-1.4.4-.4.9-.9 1.4-1.3.5-.4 1-.8 1.5-1.1.5-.3 1-.7 1.6-1 .5-.3 1.1-.6 1.7-.8l1.8-.6c.6-.2 1.2-.3 1.8-.5s1.2-.2 1.8-.3h1.9M264.9 250.9v19M245.9 269.9l-.2-1.4M245.4 267v-.7M245.4 266.3l-.2-.7M244.9 264.4l-.4-1.7M243.7 261.5l-.2-.5M243.5 261l-.5-.7M242.3 259.1l-.7-1.2M241.6 257.9l-1.2-1.4M240.4 256.5l-1-.8M238.2 254.8l-.7-.5M237.5 254.3l-.5-.2M235.8 253.3l-1.7-.9M233.2 252.1l-.7-.2M232.5 251.9l-.8-.2M230.5 251.4l-1.9-.2M227.4 250.9h-.5M226.9 250.9v19M226.9 269.4v.5M256.7 11.7v1.9c0 .6.2 1.2.3 1.8.1.6.3 1.2.5 1.8l.6 1.8c.2.6.5 1.1.8 1.7.3.5.6 1.1 1 1.6.3.5.7 1 1.1 1.5.4.5.8.9 1.3 1.4.4.4.9.9 1.4 1.3.5.4 1 .8 1.5 1.1.5.3 1.1.7 1.6 1 .5.3 1.1.6 1.7.8l1.8.6c.6.2 1.2.3 1.8.5s1.2.2 1.8.3h1.9M275.7 30.6V11.7M256.7 11.7v1.4M256.5 14.5l-.3 1M256.2 15.5v.5M256 17.2l-.7 1.9M255 19.8l-.5 1M254.5 20.8l-.2.2M253.6 22.2l-1.2 1.5M251.7 24.6l-.5.5M251.2 25.1l-.5.5M249.7 26.3l-1.4 1.2M247.3 28l-.7.5M246.6 28.5l-.5.2M244.9 29.2l-1.6.7M242.1 30.1l-.8.3M241.3 30.4h-.7M239.7 30.6h-2"/><path class="cls-3" d="M237.7 30.6V11.7"/><path class="cls-7" d="M237.7 12.1v-.4"/><path class="cls-3" d="M130.8 31.8c11 0 20.1-9.1 20.1-20.1M130.7 31.8V11.7"/><path class="cls-7" d="M171 31.8l-3.8-.5-3.9-.9-3.6-1.9-2.8-2.4-2.7-3.2-1.7-3.6-1.2-3.6-.4-4M171 31.8V11.7M111.3 335.4h196.3"/><path class="cls-9" d="M217.8 340v-1h-102v1h102"/><path class="cls-8" d="M115.8 339h102v1h-102z"/><path class="cls-9" d="M153.5 339.4c0-.2-.2-.4-.4-.4s-.4.2-.4.4.2.4.4.4.4-.2.4-.4"/><path class="cls-8" d="M153.5 339.4c0-.2-.2-.4-.4-.4s-.4.2-.4.4.2.4.4.4.4-.2.4-.4"/><path class="cls-9" d="M187.6 339.4c0-.2-.2-.4-.4-.4s-.4.2-.4.4.2.4.4.4.4-.2.4-.4"/><path class="cls-8" d="M187.6 339.4c0-.2-.2-.4-.4-.4s-.4.2-.4.4.2.4.4.4.4-.2.4-.4"/><path class="cls-9" d="M119.4 339.4c0-.2-.2-.4-.4-.4s-.4.2-.4.4.2.4.4.4.4-.2.4-.4"/><path class="cls-8" d="M119.4 339.4c0-.2-.2-.4-.4-.4s-.4.2-.4.4.2.4.4.4.4-.2.4-.4M119.2 279.7v-1.2M119.2 279.7V339M119.2 338.5v.5"/><path class="cls-9" d="M217.8 339h87.4v1h-87.4v-1"/><path class="cls-8" d="M217.8 339h87.4v1h-87.4z"/><path class="cls-9" d="M255.5 339.4c0-.2-.2-.4-.4-.4s-.4.2-.4.4.2.4.4.4.4-.2.4-.4"/><path class="cls-8" d="M255.5 339.4c0-.2-.2-.4-.4-.4s-.4.2-.4.4.2.4.4.4.4-.2.4-.4"/><path class="cls-9" d="M289.6 339.4c0-.2-.2-.4-.4-.4s-.4.2-.4.4.2.4.4.4.4-.2.4-.4"/><path class="cls-8" d="M289.6 339.4c0-.2-.2-.4-.4-.4s-.4.2-.4.4.2.4.4.4.4-.2.4-.4"/><path class="cls-9" d="M221.7 339.4c0-.2-.2-.4-.5-.4s-.5.2-.5.4.2.4.5.4.5-.2.5-.4"/><path class="cls-8" d="M221.7 339.4c0-.2-.2-.4-.5-.4s-.5.2-.5.4.2.4.5.4.5-.2.5-.4M221.2 279.7v-1.2M221.2 279.7V339M221.2 338.5v.5"/><path class="cls-9" d="M309.1 339.9h-3.8v-1h2.9V280.5l.1-.1.1-.1h.1l.1-.1h.1l.1.1h.2v.1l.1.1V339.9"/><path class="cls-8" d="M309.1 339.9h-3.8v-1h2.9V280.5l.1-.1.1-.1h.1l.1-.1h.1l.1.1h.2v.1l.1.1V339.9"/><path class="cls-9" d="M309 293.1c0-.2-.2-.4-.4-.4s-.4.2-.4.4.2.4.4.4.4-.2.4-.4"/><path class="cls-8" d="M309 293.1c0-.2-.2-.4-.4-.4s-.4.2-.4.4.2.4.4.4.4-.2.4-.4"/><path class="cls-9" d="M309 326.9c0-.2-.2-.4-.4-.4s-.4.2-.4.4.2.4.4.4.4-.2.4-.4"/><path class="cls-8" d="M309 326.9c0-.2-.2-.4-.4-.4s-.4.2-.4.4.2.4.4.4.4-.2.4-.4"/><path class="cls-9" d="M309.3 280.7c0-.3-.2-.5-.5-.5s-.5.2-.5.5.2.5.5.5.5-.2.5-.5"/><path class="cls-8" d="M309.3 280.7c0-.3-.2-.5-.5-.5s-.5.2-.5.5.2.5.5.5.5-.2.5-.5"/><path class="cls-9" d="M309 339.4c0-.2-.2-.4-.4-.4s-.4.2-.4.4.2.4.4.4.4-.2.4-.4"/><path class="cls-8" d="M309 339.4c0-.2-.2-.4-.4-.4s-.4.2-.4.4.2.4.4.4.4-.2.4-.4"/><path class="cls-9" d="M142.2 296.3h30.7v9.1h-3.3v9.1h-27.4v-18.2"/><path class="cls-1" d="M150.1 185.4v.7M150.1 186.1v1M150.1 187.1l-.2.7M149.9 187.8l-.2.3M149.2 189.5l-.3.2M148.2 190.7l-.5.7M147.7 191.4l-.7.5M147 191.9l-.5.5M146.5 192.4l-.4.2M144.9 193.3h-.3M143.2 193.8h-.7M142.5 193.8h-.8M141.7 193.8h-.9M140.8 193.8h-.5M138.9 193.3h-.3M137.4 192.6l-.5-.2M136.9 192.4l-.7-.5M136.2 191.9l-.5-.5M135.7 191.4l-.4-.5M134.3 189.7v-.2M133.6 188.1v-.3M133.6 187.8l-.3-.7M133.3 187.1v-1M133.3 186.1l-.2-.7M133.3 184v-.3M133.8 182.3v-.2M133.8 182.1l.5-.8M134.3 181.3l.2-.7M134.5 180.6l.5-.7M135 179.9h.3M136.2 178.9v-.2M136.2 178.7h.3M137.7 178v-.3M137.7 177.7l.7-.2M138.4 177.5l.9-.2M139.3 177.3l.8-.3M140.1 177h.2M141.5 176.8h.2M141.7 176.8h.3M143.4 177l.7.3M144.1 177.3l.8.2M144.9 177.5l.9.2M145.8 177.7l.3.3M147 178.7l.3.2M148.2 179.9l.5.7M148.7 180.6l.5.7M149.2 181.3l.5.8M149.7 182.1v.4M150.1 183.7v.3"/><g><path class="cls-8" d="M129 277.8h-17.7M129 278.5h-17.7M129 265.1h-17.7M129 270.1h-17.7M224.8 277.8h-32.2M224.8 278.5h-32.2M224.8 265.1h-32.2M224.8 270.1h-32.2M310.7 277.8H267M311.4 278.5H267M296.8 265.1H267M302.3 270.1H267M192.6 277.8h-1.7v-5.5h-.7v6.2h2.4M192.6 270.1v-5M129 277.8h1.7v-5.5h.7v6.2H129M129 270.1v-5M267 277.8h-1.7v-5.5h-.7v6.2h2.4M267 270.1v-5M224.8 277.8h1.7v-5.5h.7v6.2h-2.4M224.8 270.1v-5M277.1 5.4h31M277.1 2.1h34.3M277.1 16.7h19.7M277.1 11.7h24.7M192.4 5.4h43.9M192.4 2.1h43.9M192.4 16.7h43.9M192.4 11.7h43.9M100.2 5.4h29.1M100.2 2.1h29.1M100.2 16.7h29.1M100.2 11.7h29.1M100.2 11.7v5M131.2 2.1h-3.4M190.5 2.1h3.3M129.3 11.7v5M129.3 2.1h1.9v3.3h-1.9M131.2 5.4v4.1M192.4 11.7v5M192.4 2.1h-1.9v3.3h1.9M190.5 5.4v4.1M238 2.1h-3.4M275.2 2.1h3.3M236.3 11.7v5M236.3 2.1h1.7v3.3h-1.7M238 5.4v4.1M277.1 11.7v5M277.1 2.1h-1.9v3.3h1.9M275.2 5.4v4.1M211.3 198.6V42.9M211.3 238.5v-35.8M207 238.5V42.9M207 238.5V42.9M211.3 198.6V42.9M211.3 238.5v-35.8M211.3 265.1H207M211.3 238.5H207M211.3 42.9H207M211.3 16.7H207M308.1 5.4v270M311.4 2.1v276.4M296.8 16.7v248.4M301.8 11.7v258M33.7 5.4h59.6M33.7 2.1h66.5M33.7 16.7h59.6M33.7 11.7h66.5M.9 5.4H15M.9 2.1H15M7.8 16.7H15M.9 11.7H15M93.3 5.4h6.9M16.9 2.1h-3.3M32.1 2.1h3.3M15 11.7v5M15 2.1h1.9v3.3H15M16.9 5.4v4.1M33.7 11.7v5M33.7 2.1h-1.6v3.3h1.6M32.1 5.4v4.1M296.8 198.6h-85.5M296.8 202.7h-85.5M296.8 202.7h-85.5M296.8 198.6h-85.5M296.8 198.6v4.1M229.1 152.5h67.7M229.1 147.5h67.7M296.8 152.5v-5M229.1 147.5h67.7M229.1 152.5h67.7M229.1 152.5v-5M100.2 217.1v-54.7M93.3 217.1v-54.7M93.3 217.1v-54.7M100.2 217.1v-54.7M100.2 122.3V16.7M93.3 122.3V16.7M93.3 122.3V16.7M100.2 122.3V16.7M100.2 162.4v-4.3M100.2 162.4v-4.3M100.2 16.7v-5M93.3 152.5h6M93.3 124.7h6M93.3 152.5h6M93.3 158.1v-5.6M93.3 124.7h6M93.3 122.3v2.4M100.2 158.1h-.9M100.2 122.3h-.9M93.3 158.1v-5.6M93.3 122.3v2.4M99.3 152.5v5.6M99.3 124.7v-2.4M47.9 217.1v-54.7M40.7 224.5v-60.9M40.7 224.5v-60.9M47.9 217.1v-54.7M93.3 217.1H47.9M118.2 217.1h-18M111.3 224.5H40.7M111.3 224.5H40.7M93.3 217.1H47.9M118.2 217.1h-18M118.2 270.1v-53M111.3 270.1v-45.6M111.3 270.1v-45.6M118.2 270.1v-53M118.2 270.1h-6.9M.9 157.3v6.3M.9 157.3v6.3M.9 16.7v108.2M7.8 16.7v108.2M7.8 16.7v108.2M.9 16.7v108.2M.9 11.7v5M7.8 127.3H2.1M7.8 154.9H2.1M7.8 127.3H2.1M7.8 124.9v2.4M7.8 154.9H2.1M7.8 157.3v-2.4M.9 124.9h1.2M.9 157.3h1.2M7.8 124.9v2.4M7.8 157.3v-2.4M2.1 127.3v-2.4M2.1 154.9v2.4M83.9 162.4h3.4M83.9 154.9h3.4M83.9 154.9h3.4M83.9 162.4h3.4M51 154.9v6M82.7 154.9v6M51 154.9v6M47.9 154.9H51M82.7 154.9v6M83.9 154.9h-1.2M47.9 162.4v-1.5M83.9 162.4v-1.5M47.9 154.9H51M83.9 154.9h-1.2M51 160.9h-3.1M82.7 160.9h1.2M82.7 162.4h10.6M82.7 154.9h10.6M82.7 154.9h10.6M82.7 162.4h10.6M82.7 162.4v-7.5M50.8 171.3h29.8v39.8H50.8zM.9 163.6h39.8M7.8 154.9h40.1M7.8 154.9h40.1M.9 163.6h39.8"/></g></g><g id="Mbel"><path class="cls-2" d="M161.7 44.5h22.8v51.1h-22.8zM194.3 94.2V81.5M185.8 94.2h8.5M194.3 81.5h-8.5M194.3 76.5V63.7M185.8 76.5h8.5M194.3 63.7h-8.5M194.3 58.8V46M185.8 58.8h8.5M194.3 46h-8.5M151.8 94.2V81.5M160.3 94.2h-8.5M151.8 81.5h8.5M151.8 76.5V63.7M160.3 76.5h-8.5M151.8 63.7h8.5M151.8 58.8V46M160.3 58.8h-8.5M151.8 46h8.5M155.9 189.7h14.4V218h-14.4zM201.1 230.5h-18.7-.2-.2-.1l-.1-.1-.1-.1v-.1-.2V204.9v-.3c0-.1.1-.2.2-.3 0 0 .2-.1.3-.2h19v26.6M204.8 235.1h-22.4-.2-.2-.1l-.1-.1-.1-.1v-.1-.2-3-.3c0-.1.1-.2.2-.3 0 0 .2-.1.3-.2h23c.1 0 .2.1.3.2 0 0 .1.2.2.3V234.7c0 .1-.1.2-.2.3s-.2.1-.3.2h-.3M201.1 203.9h4c.1 0 .2-.1.3-.2 0 0 .1-.2.2-.3v-25.2-.3c0-.1-.1-.2-.2-.3s-.2-.1-.3-.2h-4M198.9 177.3v53.2"/><path class="cls-2" d="M201.1 177.2h-18.7-.2-.2-.1l-.1.1-.1.1v25.9l.1.1.1.1h19.2v-26.6M204.8 172.7h-22.4-.2-.2-.1l-.1.1-.1.1V176.7l.1.1.1.1h23.4l.1-.1.1-.1v-.1-.2-3-.2-.2-.1l-.1-.1-.1-.1h-.1-.2-.2M201.1 203.9h4c.1 0 .2.1.3.2 0 0 .1.2.2.3v25.5c0 .1-.1.2-.2.3s-.2.1-.3.2h-4M174.2 164.5c-1.6-3.7-3.5-7.2-5.7-10.6-.5-.8-1.5-1.2-2.4-1.1-3.2.5-6.1 1.9-8.6 4.1-.7.6-1 1.6-.7 2.5 1.2 3.8 2.8 7.5 4.6 11.1h.1c.7 0 1.3-.3 2-.6 3-1.3 6-2.7 8.9-4.2.6-.3 1.2-.7 1.7-1.1"/><path class="cls-2" d="M174.1 163.4c.1-.3.2-.6.2-1 0-1.5-.3-3-1-4.4-.9-1.8-2-3.6-3.3-5.2-.9-1.2-1.9-2.2-3.1-3.1-.7-.5-1.5-.7-2.4-.5-3.3.7-6.4 2.2-9.1 4.3-.7.5-1.1 1.3-1.1 2.2 0 1.5 0 2.9.4 4.4.5 2 1.1 3.9 1.9 5.8.6 1.4 1.6 2.6 2.8 3.5.3.2.6.3.9.4M129.3 258.2v-34M129.3 224.2h-9.6v34h9.6M238.7 85.1h56.6v45.4h-56.6zM238.7 181.6h56.6v15.6h-56.6z"/></g><g id="Text"><path d="M144.7 117.6h-.7v-5.3h.7v2.5l2.1-2.5h.8l-2.2 2.6 2.2 2.7h-.9l-2-2.5v2.5zM151.7 115.8c0 1.1-.8 1.9-1.9 1.9s-1.9-.8-1.9-1.9.8-1.9 1.9-1.9 1.9.8 1.9 1.9zm-3.1 0c0 .8.5 1.4 1.3 1.4s1.2-.6 1.2-1.4-.5-1.4-1.2-1.4-1.3.6-1.3 1.4zM155.7 117.2c-.4.4-.8.5-1.4.5-1.1 0-1.8-.8-1.8-1.9s.8-1.9 1.8-1.9 1 .2 1.3.6l-.4.4c-.3-.3-.6-.4-.9-.4-.7 0-1.2.6-1.2 1.4s.5 1.4 1.2 1.4.6-.1.9-.4l.4.4zM157.3 114.4c.3-.4.7-.6 1.1-.6s.7.1.9.3c.2.2.3.5.3 1v2.5h-.6v-2.4c0-.5-.2-.8-.7-.8s-.5.1-.7.3c-.2.2-.2.4-.2.7v2.2h-.6v-5.3h.6v2.2zM161.2 116c0 .3 0 .5.2.7.2.3.6.5 1 .5s.9-.2 1.1-.6l.5.2c-.3.6-.9 1-1.6 1-1.1 0-1.9-.8-1.9-1.9s.8-1.9 1.9-1.9 1.9.8 1.9 1.9v.2h-3.1zm2.4-.4c0-.3 0-.4-.2-.6-.2-.3-.6-.5-1-.5s-.8.2-1 .5c-.1.2-.2.3-.2.6h2.4zM166 113.9v.5c.3-.4.6-.6 1.1-.6s.6.1.9.3c.2.2.3.5.3 1v2.5h-.6v-2.4c0-.3 0-.5-.1-.6-.1-.2-.3-.2-.6-.2s-.5.1-.7.3c-.2.2-.2.4-.2.7v2.2h-.6v-3.7h.6zM169.5 118.9h-.4l.7-2.1.6.2-.8 1.9zM174.7 114.6h2.1v.6h-2.1v1.8h2.1v.6H174v-5.3h2.8v.6h-2.1v1.8zM179.7 114.9c0-.4-.3-.6-.7-.6s-.7.2-.7.5.2.4.8.6c.5.1.7.2.9.4.2.2.3.4.3.7 0 .6-.5 1.1-1.3 1.1s-1.3-.4-1.4-1.1h.6c0 .4.3.6.8.6s.7-.2.7-.5-.2-.5-.8-.6c-.8-.2-1.2-.6-1.2-1.1s.5-1.1 1.3-1.1 1.3.4 1.3 1.1h-.6zM183.2 114.9c0-.4-.3-.6-.7-.6s-.7.2-.7.5.2.4.8.6c.5.1.7.2.9.4.2.2.3.4.3.7 0 .6-.5 1.1-1.3 1.1s-1.3-.4-1.4-1.1h.6c0 .4.3.6.8.6s.7-.2.7-.5-.2-.5-.8-.6c-.8-.2-1.2-.6-1.2-1.1s.5-1.1 1.3-1.1 1.3.4 1.3 1.1h-.6zM185.4 116c0 .3 0 .5.2.7.2.3.6.5 1 .5s.9-.2 1.1-.6l.5.2c-.3.6-.9 1-1.6 1-1.1 0-1.9-.8-1.9-1.9s.8-1.9 1.9-1.9 1.9.8 1.9 1.9v.2h-3.1zm2.4-.4c0-.3 0-.4-.2-.6-.2-.3-.6-.5-1-.5s-.8.2-1 .5c-.1.2-.2.3-.2.6h2.4zM190.1 113.9v.5c.3-.4.6-.6 1.1-.6s.6.1.9.3c.2.2.3.5.3 1v2.5h-.6v-2.4c0-.3 0-.5-.1-.6-.1-.2-.3-.2-.6-.2s-.5.1-.7.3c-.2.2-.2.4-.2.7v2.2h-.6v-3.7h.6zM193.7 118.9h-.4l.7-2.1.6.2-.8 1.9zM149.5 121.3h.7l-1.6 5.3h-.6l-1.2-4.2-1.2 4.2h-.6l-1.6-5.3h.7l1.2 4.1 1.2-4.1h.6l1.1 4.1 1.2-4.1zM154.3 124.8c0 1.1-.8 1.9-1.9 1.9s-1.9-.8-1.9-1.9.8-1.9 1.9-1.9 1.9.8 1.9 1.9zm-3.1 0c0 .8.5 1.4 1.3 1.4s1.2-.6 1.2-1.4-.5-1.4-1.2-1.4-1.3.6-1.3 1.4zM156 123.4c.3-.4.7-.6 1.1-.6s.7.1.9.3c.2.2.3.5.3 1v2.5h-.6v-2.4c0-.5-.2-.8-.7-.8s-.5.1-.7.3c-.2.2-.2.4-.2.7v2.2h-.6v-5.3h.6v2.2zM160.2 122.9v.5c.3-.4.6-.6 1.1-.6s.6.1.9.3c.2.2.3.5.3 1v2.5h-.6v-2.4c0-.3 0-.5-.1-.6-.1-.2-.3-.2-.6-.2s-.5.1-.7.3c-.2.2-.2.4-.2.7v2.2h-.6v-3.7h.6zM164.2 125c0 .3 0 .5.2.7.2.3.6.5 1 .5s.9-.2 1.1-.6l.5.2c-.3.6-.9 1-1.6 1-1.1 0-1.9-.8-1.9-1.9s.8-1.9 1.9-1.9 1.9.8 1.9 1.9v.2h-3.1zm2.4-.4c0-.3 0-.4-.2-.6-.2-.3-.6-.5-1-.5s-.8.2-1 .5c-.1.2-.2.3-.2.6h2.4zM169 122.9v.5c.3-.4.6-.6 1.1-.6s.6.1.9.3c.2.2.3.5.3 1v2.5h-.6v-2.4c0-.3 0-.5-.1-.6-.1-.2-.3-.2-.6-.2s-.5.1-.7.3c-.2.2-.2.4-.2.7v2.2h-.6v-3.7h.6zM143.9 130.9v-.6h3l-1.6 2c.9 0 1.6.7 1.6 1.6s-.8 1.7-1.8 1.7-1.4-.5-1.6-1.3h.6c.1.4.5.7 1 .7s1.2-.5 1.2-1.1-.5-1.1-1.2-1.1-.4 0-.6.2l-.3-.2 1.5-1.9h-1.9zM147.9 132v-.6l1.8-1.2v5.4h-.6v-4.4l-1.2.8zM152.3 135.3c0 .2-.2.4-.4.4s-.4-.2-.4-.4.2-.4.4-.4.4.2.4.4zM154.6 132.5c.2 0 .3-.1.5-.1.9 0 1.6.7 1.6 1.6s-.8 1.7-1.7 1.7-1.7-.8-1.7-1.7.1-.7.4-1.2l1.5-2.5h.7l-1.4 2.1zm-.7 1.5c0 .6.5 1.1 1.1 1.1s1.1-.5 1.1-1.1-.5-1.1-1.1-1.1-1.1.5-1.1 1.1zM159.9 131.9v.5c.3-.4.6-.6 1-.6s.8.2 1 .7c.3-.5.6-.7 1.2-.7s.7.1.9.4c.2.2.2.4.2 1v2.4h-.6v-2.2c0-.4 0-.6-.1-.7-.1-.2-.4-.3-.6-.3-.5 0-.8.4-.8 1v2.2h-.6v-2.2c0-.4 0-.5-.1-.7-.1-.2-.3-.3-.6-.3-.5 0-.9.4-.9 1v2.2h-.6v-3.7h.6zM167.5 133.1v.4h-2l1.2-1.6c.3-.5.4-.6.4-.8 0-.3-.2-.4-.5-.4s-.5.2-.5.6h-.4c0-.6.4-1 1-1s1 .3 1 .8-.1.5-.4.9l-.8 1.1h1.1z"/><g><path d="M145 303h-.7v-4.8h-1.4v-.6h3.4v.6h-1.4v4.8zM147.2 301.4c0 .3 0 .5.2.7.2.3.6.5 1 .5s.9-.2 1.1-.6l.5.2c-.3.6-.9 1-1.6 1-1.1 0-1.9-.8-1.9-1.9s.8-1.9 1.9-1.9 1.9.8 1.9 1.9v.2h-3.1zm2.4-.4c0-.3 0-.4-.2-.6-.2-.3-.6-.5-1-.5s-.8.2-1 .5c-.1.2-.2.3-.2.6h2.4zM152 299.3v.6c.1-.3.2-.4.3-.5.2-.1.4-.2.7-.2h.1v.6h-.2c-.3 0-.6.2-.8.4-.2.2-.2.4-.2.9v1.9h-.6v-3.7h.6zM154.7 299.3v.6c.1-.3.2-.4.3-.5.2-.1.4-.2.7-.2h.1v.6h-.2c-.3 0-.6.2-.8.4-.2.2-.2.4-.2.9v1.9h-.6v-3.7h.6zM159.5 299.3h.6v3.7h-.6v-.7c-.4.6-.8.8-1.3.8-1 0-1.7-.8-1.7-1.9s.7-1.9 1.8-1.9 1 .2 1.3.7v-.6zm-2.1.9c-.2.3-.3.6-.3 1 0 .8.5 1.4 1.2 1.4s1.3-.6 1.3-1.4-.5-1.4-1.2-1.4-.7.1-.9.4zM163.3 300.3c0-.4-.3-.6-.7-.6s-.7.2-.7.5.2.4.8.6c.5.1.7.2.9.4.2.2.3.4.3.7 0 .6-.5 1.1-1.3 1.1s-1.3-.4-1.4-1.1h.6c0 .4.3.6.8.6s.7-.2.7-.5-.2-.5-.8-.6c-.8-.2-1.2-.6-1.2-1.1s.5-1.1 1.3-1.1 1.3.4 1.3 1.1h-.6zM166.8 300.3c0-.4-.3-.6-.7-.6s-.7.2-.7.5.2.4.8.6c.5.1.7.2.9.4.2.2.3.4.3.7 0 .6-.5 1.1-1.3 1.1s-1.3-.4-1.4-1.1h.6c0 .4.3.6.8.6s.7-.2.7-.5-.2-.5-.8-.6c-.8-.2-1.2-.6-1.2-1.1s.5-1.1 1.3-1.1 1.3.4 1.3 1.1h-.6zM168.9 301.4c0 .3 0 .5.2.7.2.3.6.5 1 .5s.9-.2 1.1-.6l.5.2c-.3.6-.9 1-1.6 1-1.1 0-1.9-.8-1.9-1.9s.8-1.9 1.9-1.9 1.9.8 1.9 1.9v.2h-3.1zm2.4-.4c0-.3 0-.4-.2-.6-.2-.3-.6-.5-1-.5s-.8.2-1 .5c-.1.2-.2.3-.2.6h2.4zM143.8 308.4v-.6l1.8-1.2v5.4h-.6v-4.4l-1.2.8zM149.8 307.3h-1.7v1.4c.3-.1.5-.2.8-.2.9 0 1.6.7 1.6 1.7s-.8 1.8-1.8 1.8-1.3-.4-1.6-1.1l.6-.2c.1.2.2.3.3.4.2.2.5.3.8.3.6 0 1.1-.5 1.1-1.2s-.5-1.1-1.2-1.1-.8.2-1.2.5v-3h2.3v.6zM152.3 311.7c0 .2-.2.4-.4.4s-.4-.2-.4-.4.2-.4.4-.4.4.2.4.4zM156.6 310.4c0 .6-.1 1-.4 1.2-.3.3-.7.4-1.2.4s-1-.2-1.2-.5c-.3-.3-.4-.6-.4-1.4v-1.8c0-.7 0-1 .3-1.3.3-.3.7-.5 1.2-.5s.9.1 1.2.4c.3.3.4.6.4 1.2v2.1zm-2.5-.1c0 .6 0 .7.2.9.2.2.5.3.8.3s.6-.1.8-.4c.1-.2.2-.4.2-.8v-2c0-.4 0-.6-.3-.8-.2-.2-.4-.2-.7-.2s-.6.1-.8.4c-.1.2-.2.4-.2.8v1.8zM160 308.3v.5c.3-.4.6-.6 1-.6s.8.2 1 .7c.3-.5.6-.7 1.2-.7s.7.1.9.4c.2.2.2.4.2 1v2.4h-.6v-2.2c0-.4 0-.6-.1-.7-.1-.2-.4-.3-.6-.3-.5 0-.8.4-.8 1v2.2h-.6v-2.2c0-.4 0-.5-.1-.7-.1-.2-.3-.3-.6-.3-.5 0-.9.4-.9 1v2.2h-.6v-3.7h.6zM167.6 309.5v.4h-2l1.2-1.6c.3-.5.4-.6.4-.8 0-.3-.2-.4-.5-.4s-.5.2-.5.6h-.4c0-.6.4-1 1-1s1 .3 1 .8-.1.5-.4.9l-.8 1.1h1.1z"/></g><g><path d="M243 64.9v.6h-3.8l3-4.8h-2.7v-.6h3.8l-3 4.8h2.7zM244.9 60.8c0 .2-.2.4-.4.4s-.4-.2-.4-.4.2-.4.4-.4.4.2.4.4zm0 4.7h-.6v-3.7h.6v3.7zM246.7 61.8v.5c.3-.4.6-.6 1-.6s.8.2 1 .7c.3-.5.6-.7 1.2-.7s.7.1.9.4c.2.2.2.4.2 1v2.4h-.6v-2.2c0-.4 0-.6-.1-.7-.1-.2-.4-.3-.6-.3-.5 0-.8.4-.8 1v2.2h-.6v-2.2c0-.4 0-.5-.1-.7-.1-.2-.3-.3-.6-.3-.5 0-.9.4-.9 1v2.2h-.6v-3.7h.6zM253.1 61.8v.5c.3-.4.6-.6 1-.6s.8.2 1 .7c.3-.5.6-.7 1.2-.7s.7.1.9.4c.2.2.2.4.2 1v2.4h-.6v-2.2c0-.4 0-.6-.1-.7-.1-.2-.4-.3-.6-.3-.5 0-.8.4-.8 1v2.2h-.6v-2.2c0-.4 0-.5-.1-.7-.1-.2-.3-.3-.6-.3-.5 0-.9.4-.9 1v2.2h-.6v-3.7h.6zM259.2 63.9c0 .3 0 .5.2.7.2.3.6.5 1 .5s.9-.2 1.1-.6l.5.2c-.3.6-.9 1-1.6 1-1.1 0-1.9-.8-1.9-1.9s.8-1.9 1.9-1.9 1.9.8 1.9 1.9v.2h-3.1zm2.4-.4c0-.3 0-.4-.2-.6-.2-.3-.6-.5-1-.5s-.8.2-1 .5c-.1.2-.2.3-.2.6h2.4zM263.9 61.8v.6c.1-.3.2-.4.3-.5.2-.1.4-.2.7-.2h.1v.6h-.2c-.3 0-.6.2-.8.4-.2.2-.2.4-.2.9v1.9h-.6v-3.7h.6zM240 70.9v-.6l1.8-1.2v5.4h-.6v-4.4l-1.2.8zM243.2 73.3v-.5l2.8-3.7v3.6h.6v.6h-.6v1.2h-.6v-1.2h-2.1zm2.1-2.6l-1.5 2h1.5v-2zM248.4 74.2c0 .2-.2.4-.4.4s-.4-.2-.4-.4.2-.4.4-.4.4.2.4.4zM252.7 72.9c0 .6-.1 1-.4 1.2-.3.3-.7.4-1.2.4s-1-.2-1.2-.5c-.3-.3-.4-.6-.4-1.4v-1.8c0-.7 0-1 .3-1.3.3-.3.7-.5 1.2-.5s.9.1 1.2.4c.3.3.4.6.4 1.2v2.1zm-2.5-.1c0 .6 0 .7.2.9.2.2.5.3.8.3s.6-.1.8-.4c.1-.2.2-.4.2-.8v-2c0-.4 0-.6-.3-.8-.2-.2-.4-.2-.7-.2s-.6.1-.8.4c-.1.2-.2.4-.2.8v1.8zM256 70.8v.5c.3-.4.6-.6 1-.6s.8.2 1 .7c.3-.5.6-.7 1.2-.7s.7.1.9.4c.2.2.2.4.2 1v2.4h-.6v-2.2c0-.4 0-.6-.1-.7-.1-.2-.4-.3-.6-.3-.5 0-.8.4-.8 1v2.2h-.6v-2.2c0-.4 0-.5-.1-.7-.1-.2-.3-.3-.6-.3-.5 0-.9.4-.9 1v2.2h-.6v-3.7h.6zM263.6 72v.4h-2l1.2-1.6c.3-.5.4-.6.4-.8 0-.3-.2-.4-.5-.4s-.5.2-.5.6h-.4c0-.6.4-1 1-1s1 .3 1 .8-.1.5-.4.9l-.8 1.1h1.1z"/></g><g><path d="M241.5 231.9h1.4c1.6 0 2.6 1 2.6 2.6s-.3 1.6-.8 2.1c-.5.4-1.1.6-1.9.6h-1.3v-5.3zm.7 4.8h.2c.9 0 1.3 0 1.7-.4.5-.4.7-1 .7-1.8 0-1.3-.7-2-1.9-2h-.7v4.2zM249.5 233.6v2.4c0 .5 0 .8-.4 1-.3.2-.6.4-1.1.4s-.8-.1-1.1-.4c-.2-.2-.4-.6-.4-1v-2.4h.6v2.3c0 .5.3.9.8.9s.5-.1.7-.3c.1-.1.2-.3.2-.6v-2.4h.6zM252.5 234.6c0-.4-.3-.6-.7-.6s-.7.2-.7.5.2.4.8.6c.5.1.7.2.9.4.2.2.3.4.3.7 0 .6-.5 1.1-1.3 1.1s-1.3-.4-1.4-1.1h.6c0 .4.3.6.8.6s.7-.2.7-.5-.2-.5-.8-.6c-.8-.2-1.2-.6-1.2-1.1s.5-1.1 1.3-1.1 1.3.4 1.3 1.1h-.6zM257.2 236.8c-.4.4-.8.5-1.4.5-1.1 0-1.8-.8-1.8-1.9s.8-1.9 1.8-1.9 1 .2 1.3.6l-.4.4c-.3-.3-.6-.4-.9-.4-.7 0-1.2.6-1.2 1.4s.5 1.4 1.2 1.4.6-.1.9-.4l.4.4zM258.7 234.1c.3-.4.7-.6 1.1-.6s.7.1.9.3c.2.2.3.5.3 1v2.5h-.6v-2.4c0-.5-.2-.8-.7-.8s-.5.1-.7.3c-.2.2-.2.4-.2.7v2.2h-.6V232h.6v2.2zM262.7 235.6c0 .3 0 .5.2.7.2.3.6.5 1 .5s.9-.2 1.1-.6l.5.2c-.3.6-.9 1-1.6 1-1.1 0-1.9-.8-1.9-1.9s.8-1.9 1.9-1.9 1.9.8 1.9 1.9v.2h-3.1zm2.4-.4c0-.3 0-.4-.2-.6-.2-.3-.6-.5-1-.5s-.8.2-1 .5c-.1.2-.2.3-.2.6h2.4zM242.5 243.1c.2 0 .3-.1.5-.1.9 0 1.6.7 1.6 1.6s-.8 1.7-1.7 1.7-1.7-.8-1.7-1.7.1-.7.4-1.2l1.5-2.5h.7l-1.4 2.1zm-.7 1.5c0 .6.5 1.1 1.1 1.1s1.1-.5 1.1-1.1-.5-1.1-1.1-1.1-1.1.5-1.1 1.1zM246.4 245.9c0 .2-.2.4-.4.4s-.4-.2-.4-.4.2-.4.4-.4.4.2.4.4zM250.7 244.7c0 .6-.1 1-.4 1.2-.3.3-.7.4-1.2.4s-1-.2-1.2-.5c-.3-.3-.4-.6-.4-1.4v-1.8c0-.7 0-1 .3-1.3.3-.3.7-.5 1.2-.5s.9.1 1.2.4c.3.3.4.6.4 1.2v2.1zm-2.5-.1c0 .6 0 .7.2.9.2.2.5.3.8.3s.6-.1.8-.4c.1-.2.2-.4.2-.8v-2c0-.4 0-.6-.3-.8-.2-.2-.4-.2-.7-.2s-.6.1-.8.4c-.1.2-.2.4-.2.8v1.8zM254 242.6v.5c.3-.4.6-.6 1-.6s.8.2 1 .7c.3-.5.6-.7 1.2-.7s.7.1.9.4c.2.2.2.4.2 1v2.4h-.6v-2.2c0-.4 0-.6-.1-.7-.1-.2-.4-.3-.6-.3-.5 0-.8.4-.8 1v2.2h-.6v-2.2c0-.4 0-.5-.1-.7-.1-.2-.3-.3-.6-.3-.5 0-.9.4-.9 1v2.2h-.6v-3.7h.6zM261.6 243.8v.4h-2l1.2-1.6c.3-.5.4-.6.4-.8 0-.3-.2-.4-.5-.4s-.5.2-.5.6h-.4c0-.6.4-1 1-1s1 .3 1 .8-.1.5-.4.9l-.8 1.1h1.1z"/></g><g><path d="M63.3 192.6v.6h-2.5v-5.3h.7v4.7h1.9zM64.9 188.4c0 .2-.2.4-.4.4s-.4-.2-.4-.4.2-.4.4-.4.4.2.4.4zm0 4.7h-.6v-3.7h.6v3.7zM66.9 193.2h-.6V190h-.5v-.5h.5v-.5c0-.7.4-1.2 1-1.2h.2v.5c-.4 0-.6.2-.6.6v.5h.6v.5h-.6v3.2zM69.3 192.4c0 .2 0 .2.3.2h.3v.5h-.6c-.4 0-.6-.2-.6-.6v-2.6h-.5v-.5h.5v-1.2h.6v1.2h.6v.5h-.6v2.4z"/></g></g></svg>