<svg xmlns="http://www.w3.org/2000/svg" viewBox="0 0 337.6 458.7"><defs><style>.cls-1,.cls-10,.cls-11,.cls-12,.cls-13,.cls-14,.cls-15,.cls-16,.cls-17,.cls-18,.cls-19,.cls-2,.cls-3,.cls-4,.cls-5,.cls-6,.cls-7,.cls-8,.cls-9{fill:none}.cls-1,.cls-10,.cls-11,.cls-12,.cls-13,.cls-14,.cls-15,.cls-16,.cls-17,.cls-18,.cls-19,.cls-2,.cls-3,.cls-4,.cls-5,.cls-6,.cls-8,.cls-9{stroke-linecap:round;stroke-linejoin:round}.cls-1,.cls-10,.cls-11,.cls-12,.cls-13,.cls-14,.cls-15,.cls-16,.cls-17,.cls-19,.cls-2,.cls-3,.cls-4,.cls-5,.cls-9{stroke-width:.1px}.cls-1,.cls-11,.cls-12,.cls-13,.cls-16,.cls-17,.cls-18,.cls-19,.cls-3,.cls-4{stroke:#194164}.cls-1,.cls-12,.cls-16{stroke-dasharray:0 0 0 0 2.9 1.4 .2 1.4}.cls-15,.cls-2,.cls-9{stroke:#646464}.cls-10,.cls-11,.cls-13,.cls-15,.cls-19,.cls-3,.cls-4,.cls-5,.cls-9{stroke-dasharray:0 0 1.4 1.4}.cls-20{clip-path:url(#clippath)}.cls-4{stroke-dashoffset:1px}.cls-21,.cls-22{fill:#fff}.cls-10,.cls-14,.cls-5{stroke:#969696}.cls-6{stroke:#000;stroke-width:.3px}.cls-7{clip-rule:evenodd}.cls-8{stroke:#4c4c4c;stroke-width:.1px}.cls-23{clip-path:url(#clippath-1)}.cls-24{clip-path:url(#clippath-4)}.cls-25{clip-path:url(#clippath-3)}.cls-26{clip-path:url(#clippath-2)}.cls-27{clip-path:url(#clippath-7)}.cls-28{clip-path:url(#clippath-8)}.cls-29{clip-path:url(#clippath-6)}.cls-30{clip-path:url(#clippath-5)}.cls-10,.cls-15,.cls-19{stroke-dashoffset:.7px}.cls-22,.cls-31{fill-rule:evenodd}.cls-11{stroke-dashoffset:.2px}.cls-12{stroke-dashoffset:1.5px}.cls-13{stroke-dashoffset:.5px}.cls-16{stroke-dashoffset:1.2px}.cls-18{stroke-width:.3px}</style><clipPath id="clippath"><path class="cls-7" d="M24.6 443.6h114.7l15.1 15.1H24.6"/></clipPath><clipPath id="clippath-1"><path class="cls-7" d="M139.3 443.6v-6.2h15.1v21.3"/></clipPath><clipPath id="clippath-2"><path class="cls-7" d="M139.3 451v-6.2l15.1-14.9V451"/></clipPath><clipPath id="clippath-3"><path class="cls-7" d="M139.3 444.8H24.6v-15.1l129.8.2"/></clipPath><clipPath id="clippath-4"><path class="cls-7" d="M146.7 444.8H32.2l-15.1-15.1 129.6.2"/></clipPath><clipPath id="clippath-5"><path class="cls-7" d="M32.2 444.8v6.2H17.1v-21.3"/></clipPath><clipPath id="clippath-6"><path class="cls-7" d="M32.2 437.4v6.2l-15.1 15.1v-21.3"/></clipPath><clipPath id="clippath-7"><path class="cls-7" d="M25.5 430.9h-2.1V416l1.4-.2"/></clipPath><clipPath id="clippath-8"><path class="cls-7" d="M23.8 401.4h-2.4v-14.9l1.7-.3"/></clipPath></defs><g id="Plan"><path class="cls-14" d="M24.6 451l1.2.5M25.8 451.5l.9-.5M26.7 451l1.2-.2M27.9 450.8l1 .2M28.9 451l1.2.5M30.1 451.5l.9-.5M31 451l1-.2M32 450.8l1.2.2M33.2 451l1 .5M34.2 451.5l1.2-.5M35.4 451l.9-.2M36.3 450.8l1.2.2M37.5 451l1 .5M38.5 451.5l.9-.5M39.4 451l1.2-.2M40.6 450.8l1 .2M41.6 451l1.2.5M42.8 451.5l1-.5M43.8 451l1.2-.2M45 450.8l.9.2M45.9 451l1 .5M46.9 451.5l1.2-.5M48.1 451l.9-.2M49 450.8l1.2.2M50.2 451l1 .5M51.2 451.5l1.2-.5M52.4 451l1-.2M53.4 450.8l.9.2M54.3 451l1.2.5M55.5 451.5l1-.5M56.5 451l1.2-.2M57.7 450.8l.9.2M58.6 451l1.2.5M59.8 451.5l1-.5M60.8 451l1-.2M61.8 450.8l1.2.2M63 451l.9.5M63.9 451.5l1.2-.5M65.1 451l1-.2M66.1 450.8l1.2.2M67.3 451l.9.5M68.2 451.5l1-.5M69.2 451l1.2-.2M70.4 450.8l1 .2M71.4 451l1.2.5M72.6 451.5l.9-.5M73.5 451l1.2-.2M74.7 450.8l1 .2M75.7 451l.9.5M76.6 451.5l1.2-.5M77.8 451l1-.2M78.8 450.8l1.2.2M80 451l1 .5M81 451.5l1.2-.5M82.2 451l.9-.2M83.1 450.8l1 .2M84.1 451l1.2.5M85.3 451.5l.9-.5M86.2 451l1.2-.2M87.4 450.8l1 .2M88.4 451l1.2.5M89.6 451.5l1-.5M90.6 451l.9-.2M91.5 450.8l1.2.2M92.7 451l1 .5M93.7 451.5l1.2-.5M94.9 451l.9-.2M95.8 450.8l1.2.2M97 451l1 .5M98 451.5l1-.5M99 451l1.2-.2M100.2 450.8l.9.2M101.1 451l1.2.5M102.3 451.5l1-.5M103.3 451l1.2-.2M104.5 450.8l.9.2M105.4 451l1 .5M106.4 451.5l1.2-.5M107.6 451l1-.2M108.6 450.8l1.2.2M109.8 451l.9.5M110.7 451.5l1.2-.5M111.9 451l1-.2M112.9 450.8l.9.2M113.8 451l1.2.5M115 451.5l1-.5M116 451l1.2-.2M117.2 450.8l1 .2M118.2 451l1.2.5M119.4 451.5l.9-.5M120.3 451l1-.2M121.3 450.8l1.2.2M122.5 451l.9.5M123.4 451.5l1.2-.5M124.6 451l1-.2M125.6 450.8l1.2.2M126.8 451l1 .5M127.8 451.5l.9-.5M128.7 451l1.2-.2M129.9 450.8l1 .2M130.9 451l1.2.5M132.1 451.5l.9-.5M133 451l1.2-.2M134.2 450.8l1 .2M135.2 451l1 .5M136.2 451.5l1.2-.5M137.4 451l.9-.2M138.3 450.8l1.2.2M139.5 451l1 .5M140.5 451.5l1.2-.5M141.7 451l.9-.2M142.6 450.8l1 .2"/><g class="cls-20"><path class="cls-14" d="M143.6 451l1.2.5M144.8 451.5l1-.5M145.8 451l1.2-.2M147 450.8l.9.2"/></g><g class="cls-23"><path class="cls-14" d="M146.7 454.2l.5-1M147.2 453.2l-.5-1M146.7 452.2l-.2-1.2M146.5 451l.2-.9"/></g><path class="cls-14" d="M146.7 450.1l.5-1.2M147.2 448.9l-.5-1M146.7 447.9l-.2-1.2M146.5 446.7l.2-.9M146.7 445.8l.5-1M147.2 444.8l-.5-1.2M146.7 443.6l-.2-1M146.5 442.6l.2-1.2"/><g class="cls-26"><path class="cls-14" d="M146.7 441.4l.5-.9M147.2 440.5l-.5-1.2M146.7 439.3l-.2-1M146.5 438.3l.2-.9"/></g><g class="cls-25"><path class="cls-14" d="M151 437.4l-.9-.3M150.1 437.1l-1.2.3M148.9 437.4l-1 .2M147.9 437.6l-1.2-.2"/></g><path class="cls-14" d="M146.7 437.4l-.9-.3M145.8 437.1l-1.2.3M144.6 437.4l-1 .2M143.6 437.6l-1-.2M142.6 437.4l-1.2-.3M141.4 437.1l-.9.3M140.5 437.4l-1.2.2M139.3 437.6l-1-.2M138.3 437.4l-1.2-.3M137.1 437.1l-.9.3M136.2 437.4l-1 .2M135.2 437.6l-1.2-.2M134 437.4l-1-.3M133 437.1l-1.2.3M131.8 437.4l-.9.2M130.9 437.6l-1.2-.2M129.7 437.4l-1-.3M128.7 437.1l-.9.3M127.8 437.4l-1.2.2M126.6 437.6l-1-.2M125.6 437.4l-1.2-.3M124.4 437.1l-1 .3M123.4 437.4l-1.2.2M122.2 437.6l-.9-.2M121.3 437.4l-1-.3M120.3 437.1l-1.2.3M119.1 437.4l-.9.2M118.2 437.6l-1.2-.2M117 437.4l-1-.3M116 437.1l-1.2.3M114.8 437.4l-1 .2M113.8 437.6l-.9-.2M112.9 437.4l-1.2-.3M111.7 437.1l-1 .3M110.7 437.4l-1.2.2M109.5 437.6l-.9-.2M108.6 437.4l-1.2-.3M107.4 437.1l-1 .3M106.4 437.4l-1 .2M105.4 437.6l-1.2-.2M104.2 437.4l-.9-.3M103.3 437.1l-1.2.3M102.1 437.4l-1 .2M101.1 437.6l-1.2-.2M99.9 437.4l-.9-.3M99 437.1l-1 .3M98 437.4l-1.2.2M96.8 437.6l-1-.2M95.8 437.4l-1.2-.3M94.6 437.1l-.9.3M93.7 437.4l-1.2.2M92.5 437.6l-1-.2M91.5 437.4l-.9-.3M90.6 437.1l-1.2.3M89.4 437.4l-1 .2M88.4 437.6l-1.2-.2M87.2 437.4l-1-.5M86.2 436.9l-1.2.5M85 437.4l-.9.2M84.1 437.6l-1-.2M83.1 437.4l-1.2-.5M81.9 436.9l-.9.5M81 437.4l-1.2.2M79.8 437.6l-1-.2M78.8 437.4l-1.2-.5M77.6 436.9l-1 .5M76.6 437.4l-.9.2M75.7 437.6l-1.2-.2M74.5 437.4l-1-.5M73.5 436.9l-1.2.5M72.3 437.4l-.9.2M71.4 437.6l-1.2-.2M70.2 437.4l-1-.5M69.2 436.9l-1 .5M68.2 437.4l-1.2.2M67 437.6l-.9-.2M66.1 437.4l-1.2-.5M64.9 436.9l-1 .5M63.9 437.4l-1.2.2M62.7 437.6l-.9-.2M61.8 437.4l-1-.5M60.8 436.9l-1.2.5M59.6 437.4l-1 .2M58.6 437.6l-1.2-.2M57.4 437.4l-.9-.5M56.5 436.9l-1.2.5M55.3 437.4l-1 .2M54.3 437.6l-.9-.2M53.4 437.4l-1.2-.5M52.2 436.9l-1 .5M51.2 437.4l-1.2.2M50 437.6l-1-.2M49 437.4l-1.2-.5M47.8 436.9l-.9.5M46.9 437.4l-1 .2M45.9 437.6l-1.2-.2M44.7 437.4l-.9-.5M43.8 436.9l-1.2.5M42.6 437.4l-1 .2M41.6 437.6l-1.2-.2M40.4 437.4l-1-.5M39.4 436.9l-.9.5M38.5 437.4l-1.2.2M37.3 437.6l-1-.2M36.3 437.4l-1.2-.5M35.1 436.9l-.9.5M34.2 437.4l-1.2.2M33 437.6l-1-.2M32 437.4l-1-.5M31 436.9l-1.2.5M29.8 437.4l-.9.2M28.9 437.6l-1.2-.2"/><g class="cls-24"><path class="cls-14" d="M27.7 437.4l-1-.5M26.7 436.9l-1.2.5M25.5 437.4l-.9.2M24.6 437.6l-1-.2"/></g><g class="cls-30"><path class="cls-14" d="M24.6 434.2l-.3 1M24.3 435.2l.3 1.2M24.6 436.4l.4 1M25 437.4l-.4 1.2"/></g><path class="cls-14" d="M24.6 438.6l-.3.9M24.3 439.5l.3 1M24.6 440.5l.4 1.2M25 441.7l-.4.9M24.6 442.6l-.3 1.2M24.3 443.8l.3 1M24.6 444.8l.4 1.2M25 446l-.4 1"/><g class="cls-29"><path class="cls-14" d="M24.6 447l-.3.9M24.3 447.9l.3 1.2M24.6 449.1l.4 1M25 450.1l-.4 1.2"/></g><path class="cls-17" d="M337.4 414.2v-72h-5.7v72M146.8 452.4H26.1M241 414.2v-72h-5.7v72M26.1 458.1h120.7M328.9 214.2h-35.5M310.6 211.3h14M297.9 208.2h13.9M328.9 156.6h-35.5M310.6 159.7h14M297.9 162.6h13.9M146.7 176.2h34.1M146.7 168.8h34.1M146.7 161.1h34.1M146.7 153.4h34.1M279 153.4h-34.1M279 161.1h-34.1M205.3 215.6l-7.9-35.5M180.8 148.2h64.1v33.4h-64.1zM262 153.4l-3.8 3.8M265.8 157.2l-3.8-3.8M186.1 181.5v34.1M193.8 181.5v34.1M201.4 181.5v34.1M209.1 181.5v34.1M216.8 181.5v34.1M224.5 181.5v34.1M231.9 181.5v34.1M239.6 181.5v34.1"/><path class="cls-17" d="M182.2 149.6h61.2v30.5h-61.2z"/><path class="cls-1" d="M244.9 215.6H279"/><path class="cls-17" d="M278.5 215.6h.5"/><path class="cls-1" d="M244.9 222.8H279"/><path class="cls-17" d="M278.5 222.8h.5M258.1 157.3h7.7M239.7 198.6l-3.9-3.8M235.8 202.4l3.9-3.8M235.8 194.7v7.7M201.4 198.6l-3.8-3.8M197.6 202.4l3.8-3.8M197.6 194.7v7.7M163.8 176.3l-3.8-3.8M167.7 172.5l-3.9 3.8M159.9 172.6h7.7"/><path class="cls-22" d="M244.9 213v1.2h-96.7v-66.3h1.4V213h95.3"/><path class="cls-17" d="M244.9 213v1.2h-96.7v-66.3h1.4V213h95.3zM113.8 166.9h17.5v67.9h-17.5z"/><path class="cls-21" d="M115.3 176h14.6v15.8h-14.6z"/><path class="cls-17" d="M115.3 176h14.6v15.8h-14.6z"/><path class="cls-22" d="M123 187.9c0-1.5-1.3-2.8-2.9-2.8s-2.9 1.2-2.9 2.8 1.3 2.8 2.9 2.8 2.9-1.2 2.9-2.8"/><path class="cls-17" d="M123 187.9c0-1.5-1.3-2.8-2.9-2.8s-2.9 1.2-2.9 2.8 1.3 2.8 2.9 2.8 2.9-1.2 2.9-2.8"/><path class="cls-22" d="M129 188.8c0-1.3-1-2.3-2.2-2.3s-2.2 1-2.2 2.3 1 2.3 2.2 2.3 2.2-1 2.2-2.3"/><path class="cls-17" d="M129 188.8c0-1.3-1-2.3-2.2-2.3s-2.2 1-2.2 2.3 1 2.3 2.2 2.3 2.2-1 2.2-2.3"/><path class="cls-22" d="M122.2 180.3c0-1.2-1-2.2-2.2-2.2s-2.2 1-2.2 2.2 1 2.2 2.2 2.2 2.2-1 2.2-2.2"/><path class="cls-17" d="M122.2 180.3c0-1.2-1-2.2-2.2-2.2s-2.2 1-2.2 2.2 1 2.2 2.2 2.2 2.2-1 2.2-2.2"/><path class="cls-22" d="M129.4 180.6c0-1.6-1.3-2.9-2.9-2.9s-2.9 1.3-2.9 2.9 1.3 2.9 2.9 2.9 2.9-1.3 2.9-2.9"/><path class="cls-17" d="M129.4 180.6c0-1.6-1.3-2.9-2.9-2.9s-2.9 1.3-2.9 2.9 1.3 2.9 2.9 2.9 2.9-1.3 2.9-2.9M116.2 175.3h-2.4M116.2 192.3h-2.4M116.2 209.4h-2.4M116.2 234.1h-2.4M121.3 234.8h16.6v.5h-16.6zM121.3 235.3h.7v17h-.7zM122 251.8h15.1v.5H122zM122 235.3h15.1v.5H122zM137.1 235.3h.7v17h-.7z"/><path class="cls-22" d="M126.3 225.4H117c-.1 0-.3 0-.4-.1-.1 0-.2-.1-.3-.2-.1 0-.2-.2-.3-.2 0 0-.2-.2-.2-.3 0-.1-.1-.2-.2-.3 0-.1 0-.2-.1-.4v-11.6-.4c0-.1 0-.3.1-.4 0-.1.1-.2.2-.3 0-.1.2-.2.2-.3 0 0 .2-.2.3-.2.1 0 .2-.1.3-.2.1 0 .2 0 .4-.1h9.3c.3 0 .5 0 .8.2.2 0 .5.2.6.4.2.2.3.4.4.6 0 .2.1.5.1.8v11.2c0 .3 0 .5-.1.8-.1.2-.2.5-.4.6-.2.2-.4.3-.6.4-.2 0-.5.1-.8.1"/><path class="cls-17" d="M126.3 225.4H117c-.1 0-.3 0-.4-.1-.1 0-.2-.1-.3-.2-.1 0-.2-.2-.3-.2 0 0-.2-.2-.2-.3 0-.1-.1-.2-.2-.3 0-.1 0-.2-.1-.4v-11.6-.4c0-.1 0-.3.1-.4 0-.1.1-.2.2-.3 0-.1.2-.2.2-.3 0 0 .2-.2.3-.2.1 0 .2-.1.3-.2.1 0 .2 0 .4-.1h9.3c.3 0 .5 0 .8.2.2 0 .5.2.6.4.2.2.3.4.4.6 0 .2.1.5.1.8v11.2c0 .3 0 .5-.1.8-.1.2-.2.5-.4.6-.2.2-.4.3-.6.4-.2 0-.5.1-.8.1"/><path class="cls-22" d="M126.1 217.9c0-.6-.5-1.1-1.1-1.1s-1.1.5-1.1 1.1.5 1.1 1.1 1.1 1.1-.5 1.1-1.1"/><path class="cls-17" d="M126.1 217.9c0-.6-.5-1.1-1.1-1.1s-1.1.5-1.1 1.1.5 1.1 1.1 1.1 1.1-.5 1.1-1.1M116.2 167.6h-2.4M121.3 166.4h16.6v.5h-16.6zM121.3 149.4h.7v17h-.7zM122 149.4h15.1v.7H122zM122 165.9h15.1v.5H122zM121.3 148.4h.7v1h-.7zM137.1 149.4h.7v17h-.7zM139.8 233.8h-7.7"/><path class="cls-6" d="M139.8 234.6h-8.4"/><path class="cls-17" d="M139.8 232.4h-6.3M139.8 233.8h-7.7M139.8 234.6h-8.4M139.8 232.4h-6.3"/><path class="cls-6" d="M139.8 233.8v.8"/><path class="cls-17" d="M139.8 232.4v1.4M132.1 233.8v-65.7"/><path class="cls-6" d="M131.4 234.6v-67.2"/><path class="cls-17" d="M133.5 232.4v-62.9M132.1 233.8v-65.7M131.4 234.6v-67.2M133.5 232.4v-62.9M132.1 168.1h7.7"/><path class="cls-6" d="M131.4 167.4h8.4"/><path class="cls-17" d="M133.5 169.5h6.3M132.1 168.1h7.7"/><path class="cls-6" d="M139.8 168.1v-.7"/><path class="cls-17" d="M139.8 169.5v-1.4M131.4 167.4h8.4M133.5 169.5h6.3M121.3 252.3h.7v17h-.7zM122 268.6h15.1v.7H122zM122 252.3h15.1v.5H122zM137.1 252.3h.7v17h-.7zM121.3 269.4h.7v17h-.7zM122 285.7h15.1v.7H122zM122 269.4h15.1v.5H122zM137.1 269.4h.7v17h-.7zM121.3 286.4h.7v1h-.7zM116.2 226.4h-2.4"/><path class="cls-1" d="M121.3 234.8v-67.9"/><path class="cls-31" d="M316.2 299.1v-5.7h13.6l-5.5 5.7h-8.1"/><path class="cls-22" d="M316.2 293.4v5.7h8.1l5.5-5.7h-13.6"/><path class="cls-14" d="M329.4 294.1v-.7M327.9 295.5v-2.1M326.5 297v-3.6M325 298.4v-5M323.6 299.1v-5.7M322.4 299.1v-5.7M321 299.1v-5.7M319.5 299.1v-5.7M318.1 299.1v-5.7M316.6 299.1v-5.7M316.2 299.1h8.1M316.2 293.4h13.6"/><path class="cls-17" d="M316.2 293.4h13.6M316.2 299.1h8.1"/><path class="cls-31" d="M249.2 299.1l-5.8-5.7h13.5l-.5 5.7h-7.2"/><path class="cls-22" d="M243.4 293.4l5.8 5.7h7.2l.5-5.7h-13.5"/><path class="cls-14" d="M255.7 299.1v-5.7M254.2 299.1v-5.7M252.8 299.1v-5.7M251.4 299.1v-5.7M249.9 299.1v-5.7M248.5 298.4v-5M247.3 297v-3.6M245.8 295.5v-2.1M244.4 294.1v-.7M249.2 299.1h7.2M243.4 293.4h13.5"/><path class="cls-17" d="M243.4 293.4h13.5M249.2 299.1h7.2"/><path class="cls-21" d="M41.1 17.1h48.2v50.6H41.1z"/><path class="cls-17" d="M41.1 17.1h48.2v50.6H41.1z"/><path class="cls-22" d="M59.4 54.6c.9 1.3.9 3 0 4.3-1.5 1.9-3.8 2.9-6.2 2.9l-7.2-.3v-9.6l7.2-.3c2.4 0 4.7 1 6.2 2.9"/><path class="cls-17" d="M59.4 54.6c.9 1.3.9 3 0 4.3-1.5 1.9-3.8 2.9-6.2 2.9l-7.2-.3v-9.6l7.2-.3c2.4 0 4.7 1 6.2 2.9"/><path class="cls-22" d="M49.3 56.7c0-1 .3-2 1.1-2.8.7-.7 1.7-1.2 2.7-1.2 2.1 0 4.1.9 5.4 2.5.6.9.6 2 0 2.9-1.3 1.6-3.3 2.5-5.4 2.5-1 0-2-.4-2.7-1.2-.7-.7-1.1-1.8-1.1-2.8"/><path class="cls-17" d="M49.3 56.7c0-1 .3-2 1.1-2.8.7-.7 1.7-1.2 2.7-1.2 2.1 0 4.1.9 5.4 2.5.6.9.6 2 0 2.9-1.3 1.6-3.3 2.5-5.4 2.5-1 0-2-.4-2.7-1.2-.7-.7-1.1-1.8-1.1-2.8"/><path class="cls-22" d="M46.2 51.9h-5.1v9.6h5.1v-9.6"/><path class="cls-17" d="M41.1 51.9h5v9.6h-5zM89.4 19H41.1M40.4 102.3V88.6"/><path class="cls-6" d="M41.1 102.3V87.9"/><path class="cls-17" d="M39 102.3V90.1M40.4 102.3V88.6M41.1 102.3V87.9M39 102.3V90.1"/><path class="cls-6" d="M40.4 102.3h.7"/><path class="cls-17" d="M39 102.3h1.4M36.6 88.6V70.2"/><path class="cls-6" d="M37.3 87.9v-17"/><path class="cls-17" d="M35.1 90.1V68.7M36.6 88.6V70.2M37.3 87.9v-17M35.1 90.1V68.7M40.4 70.2V16.6"/><path class="cls-6" d="M41.1 70.9V16.6"/><path class="cls-17" d="M39 68.7V16.6M40.4 70.2V16.6"/><path class="cls-6" d="M40.4 16.6h.7"/><path class="cls-17" d="M39 16.6h1.4M41.1 70.9V16.6M39 68.7V16.6"/><path class="cls-22" d="M41.1 71.6H53.5s.1 0 .2.1.1 0 .2.1c0 0 .1.1.1.2 0 0 0 .1.1.2V86.3c0 .1-.1.3-.2.4-.1.1-.2.2-.4.2H41.1V71.3"/><path class="cls-17" d="M41.1 71.6H53.5s.1 0 .2.1.1 0 .2.1c0 0 .1.1.1.2 0 0 0 .1.1.2V86.3c0 .1-.1.3-.2.4-.1.1-.2.2-.4.2H41.1V71.3"/><path class="cls-11" d="M41.1 87.9h-3.8"/><path class="cls-4" d="M37.3 87.9v-17"/><path class="cls-11" d="M37.3 70.9h3.8"/><path class="cls-17" d="M36.6 70.2h3.8"/><path class="cls-6" d="M37.3 70.9h3.8"/><path class="cls-17" d="M35.1 68.7H39M36.6 70.2h3.8M37.3 70.9h3.8M35.1 68.7H39M40.4 88.6h-3.8"/><path class="cls-6" d="M41.1 87.9h-3.8"/><path class="cls-17" d="M39 90.1h-3.9M40.4 88.6h-3.8M41.1 87.9h-3.8M39 90.1h-3.9"/><path class="cls-6" d="M41.1 87.9v-17"/><path class="cls-17" d="M122 143.1h17.8"/><path class="cls-6" d="M121.3 142.4h18.5"/><path class="cls-17" d="M123.4 144.6h16.4M122 143.1h17.8"/><path class="cls-6" d="M139.8 143.1v-.7"/><path class="cls-17" d="M139.8 144.6v-1.5M121.3 142.4h18.5M123.4 144.6h16.4M122 147.7v-4.6"/><path class="cls-6" d="M121.3 148.4v-6"/><path class="cls-17" d="M123.4 146.2v-1.6M122 147.7v-4.6M121.3 148.4v-6M123.4 146.2v-1.6"/><path class="cls-21" d="M125.4 142.4h9.8v2.4h-9.8z"/><path class="cls-17" d="M125.4 142.4h9.8v2.4h-9.8z"/><path class="cls-21" d="M125.1 142.2h10.3v.2h-10.3z"/><path class="cls-17" d="M125.1 142.2h10.3v.2h-10.3z"/><path class="cls-15" d="M134.5 142.2v-8.4"/><path class="cls-9" d="M126.1 142.2v-1.7l.5-1.5.9-1.6 1-1.2 1.2-1 1.7-1 1.4-.4h1.7"/><path class="cls-17" d="M139.8 147.7H122"/><path class="cls-6" d="M139.8 148.4h-18.5"/><path class="cls-17" d="M139.8 146.2h-16.4M139.8 147.7H122M139.8 148.4h-18.5M139.8 146.2h-16.4"/><path class="cls-6" d="M139.8 147.7v.7"/><path class="cls-17" d="M139.8 146.2v1.5"/><path class="cls-22" d="M94.9 107.1h-5.1V16.6h5.1v90.5"/><path class="cls-14" d="M90.1 21l4.3-4.4M90.1 25.3l5-5.1M90.1 29.4l5-5.1M90.1 33.7l5-5.1M90.1 38l5-5M90.1 42.3l5-5M90.1 46.4l5-5M90.1 50.7l5-5M90.1 55l5-5M90.1 59.1l5-5M90.1 63.4l5-5M90.1 67.8l5-5.1M90.1 72.1l5-5.1M90.1 76.2l5-5.1M90.1 80.5l5-5.1M90.1 84.8l5-5M90.1 88.9l5-5.1M90.1 93.2l5-5M90.1 97.5l5-5M90.1 101.8l5-5M90.1 105.9l5-5M93 107.1l2.1-1.9"/><path class="cls-22" d="M89.8 107.1h5.1V16.6h-5.1v90.5"/><path class="cls-14" d="M90.1 21l4.3-4.4M90.1 25.3l5-5.1M90.1 29.4l5-5.1M90.1 33.7l5-5.1M90.1 38l5-5M90.1 42.3l5-5M90.1 46.4l5-5M90.1 50.7l5-5M90.1 55l5-5M90.1 59.1l5-5M90.1 63.4l5-5M90.1 67.8l5-5.1M90.1 72.1l5-5.1M90.1 76.2l5-5.1M90.1 80.5l5-5.1M90.1 84.8l5-5M90.1 88.9l5-5.1M90.1 93.2l5-5M90.1 97.5l5-5M90.1 101.8l5-5M90.1 105.9l5-5M93 107.1l2.1-1.9"/><path class="cls-17" d="M63.4 100.2h25.9v1.2H63.4zM87.2 98.7h.7v1.4h-.7zM87.2 101.4h.7v1.4h-.7zM83.4 95.1h-9.9M77.1 97.3l-3.6-2.2 3.6-1.9"/><path class="cls-19" d="M67.5 100.2H41.6"/><path class="cls-17" d="M41.6 100.2v.7"/><path class="cls-19" d="M41.6 101.4h25.9"/><path class="cls-17" d="M67.5 101.4v-.8M66.3 98.7v1.5M65.6 99.4v-.7M65.6 98.7h.7M65.6 102.8v-1.4M66.3 102.1v.7M66.3 102.8h-.7"/><path class="cls-1" d="M63.7 102.3h26.1M89.8 107.1H63.7"/><path class="cls-17" d="M95.4 100.2h25.9v1.2H95.4zM96.6 98.7h.7v1.4h-.7zM96.6 101.4h.7v1.4h-.7zM101.8 95.1h9.4M107.6 93.2l3.6 1.9-3.6 2.2"/><path class="cls-13" d="M117 100.2h26.1"/><path class="cls-17" d="M143.1 100.2v.7"/><path class="cls-13" d="M143.1 101.4H117"/><path class="cls-17" d="M117 101.4v-.8M118.4 98.7v1.5M119.1 99.4v-.7M119.1 98.7h-.7M119.1 102.8v-1.4M118.4 102.1v.7M118.4 102.8h.7"/><path class="cls-1" d="M120.8 102.3H94.9M94.9 107.1h25.9"/><path class="cls-22" d="M236.5 253.5h8.4v10.1h-8.4v-10.1"/><path class="cls-14" d="M245.1 254.2l-.9-.7M245.1 258.3l-5-4.8M245.1 262.4l-8.4-8.4M242.2 263.6l-5.5-5.8M238.2 263.6l-1.5-1.7M242.7 263.6l2.4-2.4M238.6 263.6l6.5-6.5M236.7 261.7l7.9-8.2M236.7 257.6l4.1-4.1M236.7 253.5"/><path class="cls-22" d="M244.9 253.5h-8.4v10.1h8.4v-10.1"/><path class="cls-14" d="M245.1 254.2l-.9-.7M245.1 258.3l-5-4.8M245.1 262.4l-8.4-8.4M242.2 263.6l-5.5-5.8M238.2 263.6l-1.5-1.7M242.7 263.6l2.4-2.4M238.6 263.6l6.5-6.5M236.7 261.7l7.9-8.2M236.7 257.6l4.1-4.1M236.7 253.5"/><path class="cls-22" d="M236.5 222.8l8.4-7.2v10.8h-8.4v-3.6"/><path class="cls-14" d="M245.1 218.2l-1.4-1.4M245.1 222.3l-3.6-3.6M245.1 226.2l-5.7-5.8M241 226.4l-3.8-4.1M237.2 226.4l-.5-.5M243.7 226.4l1.4-1.2M239.8 226.4l5.3-5.3M236.7 225.4l8.4-8.4"/><path class="cls-22" d="M244.9 215.6l-8.4 7.2v3.6h8.4v-10.8"/><path class="cls-14" d="M245.1 218.2l-1.4-1.4M245.1 222.3l-3.6-3.6M245.1 226.2l-5.7-5.8M241 226.4l-3.8-4.1M237.2 226.4l-.5-.5M243.7 226.4l1.4-1.2M239.8 226.4l5.3-5.3M236.7 225.4l8.4-8.4"/><path class="cls-1" d="M244.9 226.4v27.1"/><path class="cls-17" d="M244.9 253v.5"/><path class="cls-22" d="M236.5 226.4v27.1H235v-27.1h1.5"/><path class="cls-17" d="M235 226.4h1.4v27.1H235zM236.5 226.4v27.1"/><path class="cls-22" d="M236.5 293.4l8.4-6.3v-23.5h-8.4v29.8"/><path class="cls-14" d="M245.1 266.2l-2.9-2.6M245.1 270.3l-6.9-6.7M245.1 274.4l-8.4-8.4M245.1 278.5l-8.4-8.4M245.1 282.3l-8.4-8.4M245.1 286.4l-8.4-8.4M243.2 288.6l-6.5-6.5M240.8 290.2l-4.1-4.3M238.6 291.9l-1.9-1.9M237.9 292.4l7.2-7.2M236.7 289.8l8.4-8.4M236.7 285.7l8.4-8.4M236.7 281.6l8.4-8.4M236.7 277.8l8.4-8.4M236.7 273.7l8.4-8.4M236.7 269.6l6-6M236.7 265.5l1.9-1.9"/><path class="cls-22" d="M236.5 293.4l8.4-6.3v-23.5h-8.4v29.8"/><path class="cls-14" d="M245.1 266.2l-2.9-2.6M245.1 270.3l-6.9-6.7M245.1 274.4l-8.4-8.4M245.1 278.5l-8.4-8.4M245.1 282.3l-8.4-8.4M245.1 286.4l-8.4-8.4M243.2 288.6l-6.5-6.5M240.8 290.2l-4.1-4.3M238.6 291.9l-1.9-1.9M237.9 292.4l7.2-7.2M236.7 289.8l8.4-8.4M236.7 285.7l8.4-8.4M236.7 281.6l8.4-8.4M236.7 277.8l8.4-8.4M236.7 273.7l8.4-8.4M236.7 269.6l6-6M236.7 265.5l1.9-1.9"/><path class="cls-1" d="M121.8 292.9v30.2"/><path class="cls-17" d="M121.8 322.6v.5"/><path class="cls-31" d="M324.3 338.2l5.5-5.7h7.2v5.7h-12.7"/><path class="cls-22" d="M329.8 332.5l-5.5 5.7H337v-5.7h-7.2"/><path class="cls-14" d="M336.6 338.2v-5.7M335.1 338.2v-5.7M333.7 338.2v-5.7M332.2 338.2v-5.7M330.8 338.2v-5.7M329.4 338.2v-5M327.9 338.2v-3.6M326.5 338.2v-2.1M325 338.2v-.7M324.3 338.2H337M329.8 332.5h7.2"/><path class="cls-17" d="M329.8 332.5h7.2M324.3 338.2H337M337 332.5"/><path class="cls-31" d="M243.4 293.4l5.8 5.7v39.1l-5.8-5.7v-39.1"/><path class="cls-22" d="M249.2 299.1l-5.8-5.7v39.1l5.8 5.7v-39.1"/><path class="cls-14" d="M249 338h.4M247.5 336.6h1.9M246.1 335.1h3.3M244.6 333.7h4.8M243.7 332.2h5.7M243.7 330.8h5.7M243.7 329.4h5.7M243.7 327.9h5.7M243.7 326.5h5.7M243.7 325.3h5.7M243.7 323.8h5.7M243.7 322.4h5.7M243.7 321h5.7M243.7 319.5h5.7M243.7 318.1h5.7M243.7 316.6h5.7M243.7 315.2h5.7M243.7 313.8h5.7M243.7 312.3h5.7M243.7 310.9h5.7M243.7 309.7h5.7M243.7 308.2h5.7M243.7 306.8h5.7M243.7 305.4h5.7M243.7 303.9h5.7M243.7 302.5h5.7M243.7 301h5.7M243.7 299.6h5.7M243.7 298.2h4.8M243.7 296.7h3.3M243.7 295.5h1.9M243.7 294.1h.5M243.4 293.4v39.1M249.2 299.1v39.1"/><path class="cls-17" d="M249.2 299.1v39.1M243.4 293.4v39.1"/><path class="cls-31" d="M236.5 338.2v-5.7h6.9l5.8 5.7h-12.7"/><path class="cls-22" d="M236.5 332.5v5.7h12.7l-5.8-5.7h-6.9"/><path class="cls-14" d="M248.5 338.2v-.7M247.3 338.2v-2.1M245.8 338.2v-3.6M244.4 338.2v-5M243 338.2v-5.7M241.5 338.2v-5.7M240.1 338.2v-5.7M238.6 338.2v-5.7M237.2 338.2v-5.7M236.5 338.2h12.7M236.5 332.5h6.9"/><path class="cls-17" d="M236.5 332.5h6.9M236.5 338.2h12.7"/><path class="cls-22" d="M250.6 321.9l-1.3 16.3.5.6 1.1-13.3"/><path class="cls-14" d="M250.6 321.9l-1.3 16.3"/><path class="cls-31" d="M329.8 332.5l-5.5 5.7v-39.1l5.5-5.7v39.1"/><path class="cls-22" d="M324.3 338.2l5.5-5.7v-39.1l-5.5 5.7v39.1"/><path class="cls-14" d="M330.1 294.1h-.7M330.1 295.5h-2.2M330.1 296.7h-3.4M330.1 298.2h-4.8M330.1 299.6h-5.5M330.1 301h-5.5M330.1 302.5h-5.5M330.1 303.9h-5.5M330.1 305.4h-5.5M330.1 306.8h-5.5M330.1 308.2h-5.5M330.1 309.7h-5.5M330.1 310.9h-5.5M330.1 312.3h-5.5M330.1 313.8h-5.5M330.1 315.2h-5.5M330.1 316.6h-5.5M330.1 318.1h-5.5M330.1 319.5h-5.5M330.1 321h-5.5M330.1 322.4h-5.5M330.1 323.8h-5.5M330.1 325.3h-5.5M330.1 326.5h-5.5M330.1 327.9h-5.5M330.1 329.4h-5.5M330.1 330.8h-5.5M330.1 332.2h-5.5M328.9 333.7h-4.3M327.4 335.1h-2.8M326 336.6h-1.4M324.8 338h-.2M329.8 332.5v-39.1M324.3 338.2v-39.1"/><path class="cls-17" d="M324.3 338.2v-39.1M329.8 332.5v-39.1"/><path class="cls-31" d="M55.8 327.4v14.7H26v-14.7h29.8"/><path class="cls-22" d="M55.8 342.1v-3.4H26v3.4h29.8"/><path class="cls-14" d="M26.2 340.2l2 1.9M28.6 338.7l3.4 3.4M32.7 338.7l3.4 3.4M36.8 338.7l3.4 3.4M40.9 338.7l3.3 3.4M44.7 338.7l3.4 3.4M48.8 338.7l3.4 3.4M52.9 338.7l3.1 3.1"/><path class="cls-22" d="M55.8 338.7v-.5H26v.5h29.8M55.8 338.2v-5.7H26v5.7h29.8"/><path class="cls-14" d="M27.4 332.5v5.7M28.9 332.5v5.7M30.3 332.5v5.7M31.8 332.5v5.7M33.2 332.5v5.7M34.6 332.5v5.7M36.1 332.5v5.7M37.5 332.5v5.7M38.7 332.5v5.7M40.2 332.5v5.7M41.6 332.5v5.7M43 332.5v5.7M44.5 332.5v5.7M45.9 332.5v5.7M47.4 332.5v5.7M48.8 332.5v5.7M50.2 332.5v5.7M51.7 332.5v5.7M53.1 332.5v5.7M54.3 332.5v5.7M55.8 332.5v5.7"/><path class="cls-22" d="M55.8 332.5v-5.1H26v5.1h29.8"/><path class="cls-14" d="M26.2 332l.3.5M26.2 328.2l4.4 4.3M29.6 327.4l5 5.1M33.4 327.4l5.1 5.1M37.5 327.4l5.1 5.1M41.6 327.4l5 5.1M45.4 327.4l5.1 5.1M49.5 327.4l5.1 5.1M53.6 327.4l2.4 2.4M55.8 332.5H26M55.8 338.2H26"/><path class="cls-17" d="M55.8 342.1H26M55.8 327.4H26"/><path class="cls-31" d="M146.7 327.4v14.7h-27.8v-14.7h27.8"/><path class="cls-22" d="M146.7 342.1v-3.4h-27.8v3.4h27.8"/><path class="cls-14" d="M119.1 340.9l1.2 1.2M121 338.7l3.4 3.4M124.9 338.7l3.3 3.4M129 338.7l3.3 3.4M133 338.7l3.4 3.4M136.9 338.7l3.3 3.4M141 338.7l3.3 3.4M145 338.7l2 1.9"/><path class="cls-22" d="M146.7 338.7v-.5h-27.8v.5h27.8M146.7 338.2v-5.7h-27.8v5.7h27.8"/><path class="cls-14" d="M119.6 332.5v5.7M121 332.5v5.7M122.5 332.5v5.7M123.9 332.5v5.7M125.4 332.5v5.7M126.8 332.5v5.7M128.2 332.5v5.7M129.4 332.5v5.7M130.9 332.5v5.7M132.3 332.5v5.7M133.8 332.5v5.7M135.2 332.5v5.7M136.6 332.5v5.7M138.1 332.5v5.7M139.5 332.5v5.7M141 332.5v5.7M142.4 332.5v5.7M143.6 332.5v5.7M145 332.5v5.7M146.5 332.5v5.7"/><path class="cls-22" d="M146.7 332.5v-5.1h-27.8v5.1h27.8"/><path class="cls-14" d="M119.1 328.6l3.6 3.9M121.8 327.4l5 5.1M125.6 327.4l5 5.1M129.7 327.4l5 5.1M133.8 327.4l5 5.1M137.8 327.4l5.1 5.1M141.7 327.4l5 5.1M145.8 327.4l1.2 1.2M146.7 332.5h-27.8M146.7 338.2h-27.8"/><path class="cls-17" d="M146.7 342.1h-27.8M146.7 327.4h-27.8M117 334.9v7.2h3.3v1.9h-66v-1.9h3.4v-7.2"/><path class="cls-1" d="M118.9 327.4H55.8"/><path class="cls-17" d="M56.2 327.4h-.4M55.8 332.5h63.1v2.4H55.8zM115 334.9v-2.4M59.6 334.9v-2.4M118.9 332.5v2.4M99.9 332.5v2.4M115 332.5v2.4M95.8 332.5v2.4M99.9 332.5v2.4M78.8 332.5v2.4M95.8 332.5v2.4M74.7 332.5v2.4M78.8 332.5v2.4M59.6 332.5v2.4M74.7 332.5v2.4M55.8 332.5v2.4"/><path class="cls-22" d="M118.8 338.2h-1.9v-3.4h1.9"/><path class="cls-14" d="M118.2 334.9v3.3M118.8 338.2h-1.9v-3.4h1.9"/><path class="cls-22" d="M118.9 342.1H117v-3.4h1.9"/><path class="cls-14" d="M117.2 339l1.9 1.9"/><path class="cls-22" d="M55.8 338.2h1.9v-3.4h-1.9"/><path class="cls-14" d="M57.2 334.9v3.3M55.8 338.2h1.9v-3.4h-1.9"/><path class="cls-22" d="M55.8 342.1h1.9v-3.4h-1.9"/><path class="cls-14" d="M56 341.8l.2.3M56.7 338.7l1.2 1"/><path class="cls-31" d="M210.8 16.6V2H242v14.6h-31.2"/><path class="cls-22" d="M210.8 2v3.4H242V2h-31.2"/><path class="cls-14" d="M211 3.7l1.5 1.7M213.2 2l3.4 3.4M217.3 2l3.3 3.4M221.1 2l3.4 3.4M225.2 2l3.4 3.4M229.3 2l3.3 3.4M233.1 2l3.4 3.4M237.2 2l3.4 3.4M241.3 2l.9 1"/><path class="cls-22" d="M210.8 5.4v.7H242v-.7h-31.2"/><path class="cls-22" d="M210.8 6.1v5.5H242V6.1h-31.2"/><path class="cls-14" d="M241.5 11.6V6.1M240.1 11.6V6.1M238.6 11.6V6.1M237.2 11.6V6.1M235.8 11.6V6.1M234.3 11.6V6.1M233.1 11.6V6.1M231.7 11.6V6.1M230.2 11.6V6.1M228.8 11.6V6.1M227.4 11.6V6.1M225.9 11.6V6.1M224.5 11.6V6.1M223 11.6V6.1M221.6 11.6V6.1M220.2 11.6V6.1M218.7 11.6V6.1M217.5 11.6V6.1M216.1 11.6V6.1M214.6 11.6V6.1M213.2 11.6V6.1M211.8 11.6V6.1"/><path class="cls-22" d="M210.8 11.6v5H242v-5h-31.2"/><path class="cls-14" d="M211 15.7l.8.9M211 11.8l4.8 4.8M214.6 11.6l5.1 5M218.7 11.6l5.1 5M222.8 11.6l5 5M226.9 11.6l5 5M230.7 11.6l5.1 5M234.8 11.6l5 5M238.9 11.6l3.3 3.4M210.8 11.6H242M210.8 6.1H242"/><path class="cls-17" d="M210.8 2H242M210.8 16.6H242"/><path class="cls-31" d="M78.3 16.6V2h69.6v14.6H78.3"/><path class="cls-22" d="M78.3 2v3.4h69.6V2H78.3"/><path class="cls-14" d="M78.6 3.7l1.6 1.7M81 2l3.3 3.4M84.8 2l3.4 3.4M88.9 2l3.3 3.4M93 2l3.3 3.4M96.8 2l3.4 3.4M100.9 2l3.3 3.4M105 2l3.3 3.4M109 2l3.4 3.4M112.9 2l3.3 3.4M117 2l3.3 3.4M121 2l3.4 3.4M124.9 2l3.3 3.4M129 2l3.3 3.4M133 2l3.4 3.4M137.1 2l3.4 3.4M141 2l3.3 3.4M145 2l3.2 3.1"/><path class="cls-22" d="M78.3 5.4v.7h69.6v-.7H78.3"/><path class="cls-22" d="M78.3 6.1v5.5h69.6V6.1H78.3"/><path class="cls-14" d="M147.9 11.6V6.1M146.5 11.6V6.1M145 11.6V6.1M143.6 11.6V6.1M142.4 11.6V6.1M141 11.6V6.1M139.5 11.6V6.1M138.1 11.6V6.1M136.6 11.6V6.1M135.2 11.6V6.1M133.8 11.6V6.1M132.3 11.6V6.1M130.9 11.6V6.1M129.4 11.6V6.1M128.2 11.6V6.1M126.8 11.6V6.1M125.4 11.6V6.1M123.9 11.6V6.1M122.5 11.6V6.1M121 11.6V6.1M119.6 11.6V6.1M118.2 11.6V6.1M116.7 11.6V6.1M115.3 11.6V6.1M113.8 11.6V6.1M112.6 11.6V6.1M111.2 11.6V6.1M109.8 11.6V6.1M108.3 11.6V6.1M106.9 11.6V6.1M105.4 11.6V6.1M104 11.6V6.1M102.6 11.6V6.1M101.1 11.6V6.1M99.7 11.6V6.1M98.2 11.6V6.1M97 11.6V6.1M95.6 11.6V6.1M94.2 11.6V6.1M92.7 11.6V6.1M91.3 11.6V6.1M89.8 11.6V6.1M88.4 11.6V6.1M87 11.6V6.1M85.5 11.6V6.1M84.1 11.6V6.1M82.9 11.6V6.1M81.4 11.6V6.1M80 11.6V6.1M78.6 11.6V6.1"/><path class="cls-22" d="M78.3 11.6v5h69.6v-5H78.3"/><path class="cls-14" d="M78.6 15.7l.9.9M78.6 11.6l5 5M82.4 11.6l5 5M86.5 11.6l5 5M90.6 11.6l5 5M94.4 11.6l5 5M98.5 11.6l5 5M102.6 11.6l5 5M106.4 11.6l5 5M110.5 11.6l5 5M114.6 11.6l5 5M118.6 11.6l5.1 5M122.5 11.6l5 5M126.6 11.6l5 5M130.6 11.6l5.1 5M134.5 11.6l5 5M138.6 11.6l5 5M142.6 11.6l5.1 5M146.7 11.6l1.5 1.4M78.3 11.6h69.6M78.3 6.1h69.6"/><path class="cls-17" d="M78.3 2h69.6M78.3 16.6h69.6"/><path class="cls-31" d="M26 16.6V2h33.6v14.6H26"/><path class="cls-22" d="M26 2v3.4h33.6V2H26"/><path class="cls-14" d="M26.2 3.4l2 2M28.9 2l3.3 3.4M32.7 2l3.4 3.4M36.8 2l3.4 3.4M40.9 2l3.3 3.4M44.7 2l3.4 3.4M48.8 2l3.4 3.4M52.9 2l3.3 3.4M56.7 2l3.1 2.9"/><path class="cls-22" d="M26 5.4v.7h33.6v-.7H26"/><path class="cls-22" d="M26 6.1v5.5h33.6V6.1H26"/><path class="cls-14" d="M58.6 11.6V6.1M57.2 11.6V6.1M55.8 11.6V6.1M54.3 11.6V6.1M53.1 11.6V6.1M51.7 11.6V6.1M50.2 11.6V6.1M48.8 11.6V6.1M47.4 11.6V6.1M45.9 11.6V6.1M44.5 11.6V6.1M43 11.6V6.1M41.6 11.6V6.1M40.2 11.6V6.1M38.7 11.6V6.1M37.5 11.6V6.1M36.1 11.6V6.1M34.6 11.6V6.1M33.2 11.6V6.1M31.8 11.6V6.1M30.3 11.6V6.1M28.9 11.6V6.1M27.4 11.6V6.1"/><path class="cls-22" d="M26 11.6v5h33.6v-5H26"/><path class="cls-14" d="M26.2 15.4l1.2 1.2M26.2 11.6l5.1 5M30.3 11.6l5.1 5M34.4 11.6l5 5M38.5 11.6l5 5M42.3 11.6l5.1 5M46.4 11.6l5 5M50.5 11.6l5 5M54.3 11.6l5.1 5M58.4 11.6l1.4 1.2M26 11.6h33.6M26 6.1h33.6"/><path class="cls-17" d="M26 2h33.6M26 16.6h33.6M59.6 11.6v5h18.7v-5M61.3 9.4V2h-3.4V0h21.9v2h-3.4v7.4M61.3 2h15.1"/><path class="cls-17" d="M59.6 9.4h18.7v2.2H59.6zM63.2 9.4v2.2M74.5 9.4v2.2M59.6 11.6V9.4M74.5 11.6V9.4M63.2 11.6V9.4M78.3 11.6V9.4M61.3 5.4H69"/><path class="cls-22" d="M59.5 6h1.9v3.4h-1.9"/><path class="cls-14" d="M60.1 9.4V6.1M59.5 6h1.9v3.4h-1.9"/><path class="cls-22" d="M59.6 2h1.7v3.4h-1.7"/><path class="cls-14" d="M59.8 4.9l.3.5M60.8 2l.7.5"/><path class="cls-17" d="M76.4 5.4H69"/><path class="cls-22" d="M78.2 6h-1.8v3.4h1.8"/><path class="cls-14" d="M77.1 9.4V6.1M78.2 6h-1.8v3.4h1.8"/><path class="cls-22" d="M78.3 2h-1.9v3.4h1.9"/><path class="cls-14" d="M76.9 2l1.7 1.7"/><path class="cls-17" d="M149.8 9.4V2h-3.3V0h66v2h-3.4v7.4"/><path class="cls-1" d="M147.9 16.6h62.9"/><path class="cls-17" d="M147.9 9.4h62.9v2.2h-62.9zM151.8 9.4v2.2M207.2 9.4v2.2M147.9 11.6V9.4M166.9 11.6V9.4M151.8 11.6V9.4M171 11.6V9.4M166.9 11.6V9.4M187.8 11.6V9.4M171 11.6V9.4M192.1 11.6V9.4M187.8 11.6V9.4M207.2 11.6V9.4M192.1 11.6V9.4M210.8 11.6V9.4"/><path class="cls-22" d="M148 6h1.8v3.4H148"/><path class="cls-14" d="M149.4 9.4V6.1M148 6h1.8v3.4H148"/><path class="cls-22" d="M147.9 2h1.9v3.4h-1.9"/><path class="cls-14" d="M148.2 5.1l.2.3M149.1 2l1 1"/><path class="cls-22" d="M210.9 6H209v3.4h1.9"/><path class="cls-14" d="M210.3 9.4V6.1M210.9 6H209v3.4h1.9"/><path class="cls-22" d="M210.8 2h-1.7v3.4h1.7"/><path class="cls-14" d="M209.4 2l1.6 1.7"/><path class="cls-22" d="M146.7 215.6v7.2h89.8l8.4-7.2h-98.2"/><path class="cls-14" d="M243.7 216.8l-1.2-1.2M241.5 218.7l-3.1-3.1M239.4 220.4l-5.1-4.8M237.2 222.3l-7-6.7M233.6 222.8l-7.2-7.2M229.5 222.8l-7.2-7.2M225.4 222.8l-7.2-7.2M221.6 222.8l-7.2-7.2M217.5 222.8l-7.2-7.2M213.4 222.8l-7.2-7.2M209.4 222.8l-7.2-7.2M205.5 222.8l-7.2-7.2M201.4 222.8l-7.2-7.2M197.4 222.8l-7.2-7.2M193.5 222.8l-7.2-7.2M189.4 222.8l-7.2-7.2M185.4 222.8l-7.2-7.2M181.5 222.8l-7.2-7.2M177.4 222.8l-7.2-7.2M173.4 222.8l-7.2-7.2M169.3 222.8l-7.2-7.2M165.4 222.8l-7.2-7.2M161.4 222.8l-7.2-7.2M157.3 222.8l-7.2-7.2M153.4 222.8l-6.4-6.5M149.4 222.8l-2.4-2.4M235.3 222.8l7.2-7.2M231.2 222.8l7.2-7.2M227.4 222.8l7.2-7.2M223.3 222.8l7.2-7.2M219.2 222.8l7.2-7.2M215.4 222.8l7.2-7.2M211.3 222.8l7.2-7.2M207.2 222.8l7.2-7.2M203.4 222.8l7.2-7.2M199.3 222.8l7.2-7.2M195.2 222.8l7.2-7.2M191.1 222.8l7.2-7.2M187.3 222.8l7.2-7.2M183.2 222.8l7.2-7.2M179.1 222.8l7.2-7.2M175.3 222.8l7.2-7.2M171.2 222.8l7.2-7.2M167.1 222.8l7.2-7.2M163.3 222.8l7.2-7.2M159.2 222.8l7.2-7.2M155.1 222.8l7.2-7.2M151 222.8l7.2-7.2M147.2 222.8l7.2-7.2M147 219.2l3.3-3.6"/><path class="cls-22" d="M146.7 215.6v7.2h89.8l8.4-7.2h-98.2"/><path class="cls-14" d="M243.7 216.8l-1.2-1.2M241.5 218.7l-3.1-3.1M239.4 220.4l-5.1-4.8M237.2 222.3l-7-6.7M233.6 222.8l-7.2-7.2M229.5 222.8l-7.2-7.2M225.4 222.8l-7.2-7.2M221.6 222.8l-7.2-7.2M217.5 222.8l-7.2-7.2M213.4 222.8l-7.2-7.2M209.4 222.8l-7.2-7.2M205.5 222.8l-7.2-7.2M201.4 222.8l-7.2-7.2M197.4 222.8l-7.2-7.2M193.5 222.8l-7.2-7.2M189.4 222.8l-7.2-7.2M185.4 222.8l-7.2-7.2M181.5 222.8l-7.2-7.2M177.4 222.8l-7.2-7.2M173.4 222.8l-7.2-7.2M169.3 222.8l-7.2-7.2M165.4 222.8l-7.2-7.2M161.4 222.8l-7.2-7.2M157.3 222.8l-7.2-7.2M153.4 222.8l-6.4-6.5M149.4 222.8l-2.4-2.4M235.3 222.8l7.2-7.2M231.2 222.8l7.2-7.2M227.4 222.8l7.2-7.2M223.3 222.8l7.2-7.2M219.2 222.8l7.2-7.2M215.4 222.8l7.2-7.2M211.3 222.8l7.2-7.2M207.2 222.8l7.2-7.2M203.4 222.8l7.2-7.2M199.3 222.8l7.2-7.2M195.2 222.8l7.2-7.2M191.1 222.8l7.2-7.2M187.3 222.8l7.2-7.2M183.2 222.8l7.2-7.2M179.1 222.8l7.2-7.2M175.3 222.8l7.2-7.2M171.2 222.8l7.2-7.2M167.1 222.8l7.2-7.2M163.3 222.8l7.2-7.2M159.2 222.8l7.2-7.2M155.1 222.8l7.2-7.2M151 222.8l7.2-7.2M147.2 222.8l7.2-7.2M147 219.2l3.3-3.6"/><path class="cls-22" d="M139.8 142.6h6.9v189.9h-6.9V142.6"/><path class="cls-14" d="M147 144.1l-1.7-1.5M147 148.2l-5.6-5.6M147 152.2l-7-6.9M147 156.1l-7-7M147 160.2l-7-7M147 164.2l-7-6.9M147 168.1l-7-7M147 172.2l-7-7M147 176.2l-7-6.9M147 180.3l-7-6.9M147 184.2l-7-7M147 188.2l-7-6.9M147 192.3l-7-6.9M147 196.2l-7-7M147 200.2l-7-6.9M147 204.3l-7-6.9M147 208.2l-7-7M147 212.2l-7-6.9M147 216.3l-7-6.9M147 220.4l-7-7M147 224.2l-7-6.9M147 228.3l-7-6.9M147 232.4l-7-7M147 236.2l-7-6.9M147 240.3l-7-6.9M147 244.4l-7-7M147 248.2l-7-6.9M147 252.3l-7-6.9M147 256.4l-7-7M147 260.5l-7-7M147 264.3l-7-6.9M147 268.4l-7-7M147 272.5l-7-7M147 276.3l-7-6.9M147 280.4l-7-7M147 284.5l-7-7M147 288.6l-7-7M147 292.4l-7-7M147 296.5l-7-7M147 300.6l-7-7M147 304.4l-7-7M147 308.5l-7-7M147 312.6l-7-7M147 316.4l-7-7M147 320.5l-7-7M147 324.6l-7-7M147 328.6l-7-6.9M146.7 332.5l-6.7-7M142.9 332.5l-2.9-2.9M145.8 332.5l1.2-1.2M141.7 332.5l5.3-5.1M140 330.3l7-6.9M140 326.2l7-6.9M140 322.2l7-7M140 318.3l7-6.9M140 314.2l7-6.9M140 310.2l7-7M140 306.3l7-6.9M140 302.2l7-6.9M140 298.2l7-7M140 294.1l7-7M140 290.2l7-6.9M140 286.2l7-7M140 282.1l7-7M140 278.2l7-6.9M140 274.2l7-7M140 270.1l7-7M140 266.2l7-6.9M140 262.2l7-7M140 258.1l7-7M140 254l7-7M140 250.2l7-7M140 246.1l7-7M140 242l7-7M140 238.2l7-7M140 234.1l7-7M140 230l7-7M140 226.2l7-7M140 222.1l7-7M140 218l7-7M140 213.9l7-6.9M140 210.1l7-7M140 206l7-7M140 201.9l7-6.9M140 198.1l7-7M140 194l7-7M140 189.9l7-6.9M140 185.8l7-6.9M140 182l7-7M140 177.9l7-6.9M140 173.8l7-6.9M140 170l7-7M140 165.9l7-6.9M140 161.8l7-6.9M140 158l7-7M140 153.9l7-6.9M140 149.8l7-6.9M140 145.8l3.1-3.2"/><path class="cls-22" d="M146.7 142.6h-6.9v189.9h6.9V142.6"/><path class="cls-14" d="M147 144.1l-1.7-1.5M147 148.2l-5.6-5.6M147 152.2l-7-6.9M147 156.1l-7-7M147 160.2l-7-7M147 164.2l-7-6.9M147 168.1l-7-7M147 172.2l-7-7M147 176.2l-7-6.9M147 180.3l-7-6.9M147 184.2l-7-7M147 188.2l-7-6.9M147 192.3l-7-6.9M147 196.2l-7-7M147 200.2l-7-6.9M147 204.3l-7-6.9M147 208.2l-7-7M147 212.2l-7-6.9M147 216.3l-7-6.9M147 220.4l-7-7M147 224.2l-7-6.9M147 228.3l-7-6.9M147 232.4l-7-7M147 236.2l-7-6.9M147 240.3l-7-6.9M147 244.4l-7-7M147 248.2l-7-6.9M147 252.3l-7-6.9M147 256.4l-7-7M147 260.5l-7-7M147 264.3l-7-6.9M147 268.4l-7-7M147 272.5l-7-7M147 276.3l-7-6.9M147 280.4l-7-7M147 284.5l-7-7M147 288.6l-7-7M147 292.4l-7-7M147 296.5l-7-7M147 300.6l-7-7M147 304.4l-7-7M147 308.5l-7-7M147 312.6l-7-7M147 316.4l-7-7M147 320.5l-7-7M147 324.6l-7-7M147 328.6l-7-6.9M146.7 332.5l-6.7-7M142.9 332.5l-2.9-2.9M145.8 332.5l1.2-1.2M141.7 332.5l5.3-5.1M140 330.3l7-6.9M140 326.2l7-6.9M140 322.2l7-7M140 318.3l7-6.9M140 314.2l7-6.9M140 310.2l7-7M140 306.3l7-6.9M140 302.2l7-6.9M140 298.2l7-7M140 294.1l7-7M140 290.2l7-6.9M140 286.2l7-7M140 282.1l7-7M140 278.2l7-6.9M140 274.2l7-7M140 270.1l7-7M140 266.2l7-6.9M140 262.2l7-7M140 258.1l7-7M140 254l7-7M140 250.2l7-7M140 246.1l7-7M140 242l7-7M140 238.2l7-7M140 234.1l7-7M140 230l7-7M140 226.2l7-7M140 222.1l7-7M140 218l7-7M140 213.9l7-6.9M140 210.1l7-7M140 206l7-7M140 201.9l7-6.9M140 198.1l7-7M140 194l7-7M140 189.9l7-6.9M140 185.8l7-6.9M140 182l7-7M140 177.9l7-6.9M140 173.8l7-6.9M140 170l7-7M140 165.9l7-6.9M140 161.8l7-6.9M140 158l7-7M140 153.9l7-6.9M140 149.8l7-6.9M140 145.8l3.1-3.2"/><path class="cls-22" d="M139.8 102.3l6.9 7v-2.2h-6.9v-4.8"/><path class="cls-14" d="M147 108.1l-1-1M141.9 107.1l-1.9-1.9M145.5 108.1l1-1M142.6 107.1l1-.9M140 105.7l1.7-1.7"/><path class="cls-22" d="M146.7 109.3l-6.9-7v4.8h6.9v2.2"/><path class="cls-14" d="M147 108.1l-1-1M141.9 107.1l-1.9-1.9M145.5 108.1l1-1M142.6 107.1l1-.9M140 105.7l1.7-1.7"/><path class="cls-17" d="M139.3 107.1h1.7v2.4h-1.7zM139.3 136.9h1.7v5.8h-1.7zM139.3 109.5h1.7v27.4h-1.7zM141 109.5v27.4"/><path class="cls-1" d="M146.7 109.3v27.8"/><path class="cls-17" d="M146.7 136.6v.5"/><path class="cls-22" d="M146.7 107.1v2.2H141v-2.2"/><path class="cls-14" d="M147 108.1l-1-1M144.1 109.3l-2.2-2.2M144.3 109.3l2.2-2.2M141.2 108.6l1.4-1.5"/><path class="cls-22" d="M146.7 142.6v-5.5H141v5.5"/><path class="cls-14" d="M147 140l-3.2-2.9M145.3 142.6l-4.1-4.3M141.4 142.6l-.2-.2M143.1 142.6l3.9-3.8M141.2 140.7l3.4-3.6"/><path class="cls-2" d="M112 109.6c0 7.2 2.9 14.1 8 19.2s12 8 19.2 8"/><path class="cls-17" d="M139.3 109.5h-27.4"/><path class="cls-22" d="M337 102.3l-4.8 4.8h4.8v-4.8"/><path class="cls-14" d="M337.3 105.9l-1.9-1.7M334.4 107.1l-1-.9M334.9 107.1l2.4-2.1"/><path class="cls-22" d="M337 102.3l-4.8 4.8h4.8v-4.8"/><path class="cls-14" d="M337.3 105.9l-1.9-1.7M334.4 107.1l-1-.9M334.9 107.1l2.4-2.1"/><path class="cls-22" d="M337 332.5h-7.2V142.6h7.2v189.9"/><path class="cls-14" d="M337.3 146l-3.6-3.4M337.3 150.1l-7.2-7.2M337.3 154.2l-7.2-7.2M337.3 158l-7.2-7.2M337.3 162.1l-7.2-7.2M337.3 166.2l-7.2-7.2M337.3 170l-7.2-7.2M337.3 174.1l-7.2-7.2M337.3 178.2l-7.2-7.2M337.3 182l-7.2-7.2M337.3 186.1l-7.2-7.2M337.3 190.2l-7.2-7.2M337.3 194.2l-7.2-7.2M337.3 198.1l-7.2-7.2M337.3 202.2l-7.2-7.2M337.3 206.2l-7.2-7.2M337.3 210.1l-7.2-7.2M337.3 214.2l-7.2-7.2M337.3 218.2l-7.2-7.2M337.3 222.3l-7.2-7.2M337.3 226.2l-7.2-7.2M337.3 230.2l-7.2-7.2M337.3 234.3l-7.2-7.2M337.3 238.2l-7.2-7.2M337.3 242.2l-7.2-7.2M337.3 246.3l-7.2-7.2M337.3 250.2l-7.2-7.2M337.3 254.2l-7.2-7.2M337.3 258.3l-7.2-7.2M337.3 262.4l-7.2-7.2M337.3 266.2l-7.2-7.2M337.3 270.3l-7.2-7.2M337.3 274.4l-7.2-7.2M337.3 278.2l-7.2-7.2M337.3 282.3l-7.2-7.2M337.3 286.4l-7.2-7.2M337.3 290.2l-7.2-7.2M337.3 294.3l-7.2-7.2M337.3 298.4l-7.2-7.2M337.3 302.5l-7.2-7.2M337.3 306.3l-7.2-7.2M337.3 310.4l-7.2-7.2M337.3 314.5l-7.2-7.2M337.3 318.3l-7.2-7.2M337.3 322.4l-7.2-7.2M337.3 326.5l-7.2-7.2M337.3 330.3l-7.2-7.2M335.1 332.5l-5-5.3M331.3 332.5l-1.2-1.2M334.2 332.5l3.1-3.1M330.1 332.5l7.2-7M330.1 328.6l7.2-7.2M330.1 324.6l7.2-7.2M330.1 320.5l7.2-7.2M330.1 316.6l7.2-7.2M330.1 312.6l7.2-7.2M330.1 308.5l7.2-7.2M330.1 304.6l7.2-7.2M330.1 300.6l7.2-7.2M330.1 296.5l7.2-7.2M330.1 292.6l7.2-7.2M330.1 288.6l7.2-7.2M330.1 284.5l7.2-7.2M330.1 280.4l7.2-7.2M330.1 276.6l7.2-7.2M330.1 272.5l7.2-7.2M330.1 268.4l7.2-7.2M330.1 264.6l7.2-7.2M330.1 260.5l7.2-7.2M330.1 256.4l7.2-7.2M330.1 252.3l7.2-7.2M330.1 248.5l7.2-7.2M330.1 244.4l7.2-7.2M330.1 240.3l7.2-7.2M330.1 236.5l7.2-7.2M330.1 232.4l7.2-7.2M330.1 228.3l7.2-7.2M330.1 224.5l7.2-7.2M330.1 220.4l7.2-7.2M330.1 216.3l7.2-7.2M330.1 212.2l7.2-7.2M330.1 208.4l7.2-7.2M330.1 204.3l7.2-7.2M330.1 200.2l7.2-7.2M330.1 196.4l7.2-7.2M330.1 192.3l7.2-7.2M330.1 188.2l7.2-7.2M330.1 184.4l7.2-7.2M330.1 180.3l7.2-7.2M330.1 176.2l7.2-7.2M330.1 172.2l7.2-7.2M330.1 168.3l7.2-7.2M330.1 164.2l7.2-7.2M330.1 160.2l7.2-7.2M330.1 156.3l7.2-7.2M330.1 152.2l7.2-7.2M330.1 148.2l5.5-5.6M330.1 144.3l1.4-1.7"/><path class="cls-22" d="M329.8 332.5h7.2V142.6h-7.2v189.9"/><path class="cls-14" d="M337.3 146l-3.6-3.4M337.3 150.1l-7.2-7.2M337.3 154.2l-7.2-7.2M337.3 158l-7.2-7.2M337.3 162.1l-7.2-7.2M337.3 166.2l-7.2-7.2M337.3 170l-7.2-7.2M337.3 174.1l-7.2-7.2M337.3 178.2l-7.2-7.2M337.3 182l-7.2-7.2M337.3 186.1l-7.2-7.2M337.3 190.2l-7.2-7.2M337.3 194.2l-7.2-7.2M337.3 198.1l-7.2-7.2M337.3 202.2l-7.2-7.2M337.3 206.2l-7.2-7.2M337.3 210.1l-7.2-7.2M337.3 214.2l-7.2-7.2M337.3 218.2l-7.2-7.2M337.3 222.3l-7.2-7.2M337.3 226.2l-7.2-7.2M337.3 230.2l-7.2-7.2M337.3 234.3l-7.2-7.2M337.3 238.2l-7.2-7.2M337.3 242.2l-7.2-7.2M337.3 246.3l-7.2-7.2M337.3 250.2l-7.2-7.2M337.3 254.2l-7.2-7.2M337.3 258.3l-7.2-7.2M337.3 262.4l-7.2-7.2M337.3 266.2l-7.2-7.2M337.3 270.3l-7.2-7.2M337.3 274.4l-7.2-7.2M337.3 278.2l-7.2-7.2M337.3 282.3l-7.2-7.2M337.3 286.4l-7.2-7.2M337.3 290.2l-7.2-7.2M337.3 294.3l-7.2-7.2M337.3 298.4l-7.2-7.2M337.3 302.5l-7.2-7.2M337.3 306.3l-7.2-7.2M337.3 310.4l-7.2-7.2M337.3 314.5l-7.2-7.2M337.3 318.3l-7.2-7.2M337.3 322.4l-7.2-7.2M337.3 326.5l-7.2-7.2M337.3 330.3l-7.2-7.2M335.1 332.5l-5-5.3M331.3 332.5l-1.2-1.2M334.2 332.5l3.1-3.1M330.1 332.5l7.2-7M330.1 328.6l7.2-7.2M330.1 324.6l7.2-7.2M330.1 320.5l7.2-7.2M330.1 316.6l7.2-7.2M330.1 312.6l7.2-7.2M330.1 308.5l7.2-7.2M330.1 304.6l7.2-7.2M330.1 300.6l7.2-7.2M330.1 296.5l7.2-7.2M330.1 292.6l7.2-7.2M330.1 288.6l7.2-7.2M330.1 284.5l7.2-7.2M330.1 280.4l7.2-7.2M330.1 276.6l7.2-7.2M330.1 272.5l7.2-7.2M330.1 268.4l7.2-7.2M330.1 264.6l7.2-7.2M330.1 260.5l7.2-7.2M330.1 256.4l7.2-7.2M330.1 252.3l7.2-7.2M330.1 248.5l7.2-7.2M330.1 244.4l7.2-7.2M330.1 240.3l7.2-7.2M330.1 236.5l7.2-7.2M330.1 232.4l7.2-7.2M330.1 228.3l7.2-7.2M330.1 224.5l7.2-7.2M330.1 220.4l7.2-7.2M330.1 216.3l7.2-7.2M330.1 212.2l7.2-7.2M330.1 208.4l7.2-7.2M330.1 204.3l7.2-7.2M330.1 200.2l7.2-7.2M330.1 196.4l7.2-7.2M330.1 192.3l7.2-7.2M330.1 188.2l7.2-7.2M330.1 184.4l7.2-7.2M330.1 180.3l7.2-7.2M330.1 176.2l7.2-7.2M330.1 172.2l7.2-7.2M330.1 168.3l7.2-7.2M330.1 164.2l7.2-7.2M330.1 160.2l7.2-7.2M330.1 156.3l7.2-7.2M330.1 152.2l7.2-7.2M330.1 148.2l5.5-5.6M330.1 144.3l1.4-1.7"/><path class="cls-17" d="M335.8 136.9h1.7v5.8h-1.7zM335.8 107.1h1.7v2.4h-1.7zM335.8 109.5h1.7v27.4h-1.7zM335.8 136.9v-27.4"/><path class="cls-1" d="M329.8 137.1v-27.8"/><path class="cls-17" d="M329.8 109.8v-.5"/><path class="cls-22" d="M329.8 142.6v-5.5h6v5.5"/><path class="cls-14" d="M336.1 140.7l-3.9-3.6M333.7 142.6l-3.6-3.8M335.6 142.6l.5-.4M331.5 142.6l4.6-4.3M330.1 140.2l2.9-3.1"/><path class="cls-22" d="M329.8 107.1v2.2h6v-2.2"/><path class="cls-14" d="M336.1 108.8l-1.7-1.7M332.5 109.3l-2.2-2.2M332.7 109.3l2.2-2.2M330.1 108.1l.9-1"/><path class="cls-22" d="M284.7 158l-5.7-10.1v74.9l5.7-10.1V158"/><path class="cls-14" d="M279.2 148.4v-.2M284.7 157.8l-5.5-5.8M285 161.8l-5.8-5.7M285 165.9l-5.8-5.7M285 170l-5.8-5.8M285 173.8l-5.8-5.7M285 177.9l-5.8-5.7M285 182l-5.8-5.8M285 185.8l-5.8-5.7M285 189.9l-5.8-5.7M285 194l-5.8-5.8M285 197.8l-5.8-5.7M285 201.9l-5.8-5.7M285 206l-5.8-5.8M285 210.1l-5.8-5.8M284.5 213.4l-5.3-5.2M283 216.1l-3.8-3.9M281.4 218.7l-2.2-2.4M279.9 221.1l-.7-.9M279.2 219.2l4.8-5M279.2 215.1l5.8-5.7M279.2 211l5.8-5.7M279.2 207.2l5.8-5.8M279.2 203.1l5.8-5.7M279.2 199l5.8-5.7M279.2 195.2l5.8-5.8M279.2 191.1l5.8-5.7M279.2 187l5.8-5.7M279.2 183l5.8-5.8M279.2 179.1l5.8-5.7M279.2 175l5.8-5.7M279.2 171l5.8-5.8M279.2 167.1l5.8-5.7M279.2 163l5.3-5.5M279.2 159l3.8-4.1M279.2 154.9l2.4-2.4M279.2 151l1-1.2"/><path class="cls-22" d="M284.7 158l-5.7-10.1v74.9l5.7-10.1V158"/><path class="cls-14" d="M279.2 148.4v-.2M284.7 157.8l-5.5-5.8M285 161.8l-5.8-5.7M285 165.9l-5.8-5.7M285 170l-5.8-5.8M285 173.8l-5.8-5.7M285 177.9l-5.8-5.7M285 182l-5.8-5.8M285 185.8l-5.8-5.7M285 189.9l-5.8-5.7M285 194l-5.8-5.8M285 197.8l-5.8-5.7M285 201.9l-5.8-5.7M285 206l-5.8-5.8M285 210.1l-5.8-5.8M284.5 213.4l-5.3-5.2M283 216.1l-3.8-3.9M281.4 218.7l-2.2-2.4M279.9 221.1l-.7-.9M279.2 219.2l4.8-5M279.2 215.1l5.8-5.7M279.2 211l5.8-5.7M279.2 207.2l5.8-5.8M279.2 203.1l5.8-5.7M279.2 199l5.8-5.7M279.2 195.2l5.8-5.8M279.2 191.1l5.8-5.7M279.2 187l5.8-5.7M279.2 183l5.8-5.8M279.2 179.1l5.8-5.7M279.2 175l5.8-5.7M279.2 171l5.8-5.8M279.2 167.1l5.8-5.7M279.2 163l5.3-5.5M279.2 159l3.8-4.1M279.2 154.9l2.4-2.4M279.2 151l1-1.2"/><path class="cls-22" d="M146.7 109.3h183.1l7.2-7H139.8l6.9 7"/><path class="cls-14" d="M335.4 104l-2-1.7M333.2 106.2l-3.6-3.9M331.3 108.1l-5.8-5.8M328.4 109.3l-7-7M324.6 109.3l-7-7M320.5 109.3l-7-7M316.4 109.3l-7-7M312.3 109.3l-6.9-7M308.5 109.3l-7-7M304.4 109.3l-7-7M300.3 109.3l-6.9-7M296.5 109.3l-7-7M292.4 109.3l-7-7M288.3 109.3l-6.9-7M284.5 109.3l-7-7M280.4 109.3l-7-7M276.3 109.3l-6.9-7M272.2 109.3l-6.9-7M268.4 109.3l-7-7M264.3 109.3l-6.9-7M260.2 109.3l-6.9-7M256.4 109.3l-7-7M252.3 109.3l-6.9-7M248.2 109.3l-6.9-7M244.4 109.3l-7-7M240.3 109.3l-6.9-7M236.2 109.3l-6.9-7M232.2 109.3l-7-7M228.3 109.3l-6.9-7M224.2 109.3l-6.9-7M220.2 109.3l-7-7M216.3 109.3l-6.9-7M212.2 109.3l-6.9-7M208.2 109.3l-7-7M204.1 109.3l-7-7M200.2 109.3l-6.9-7M196.2 109.3l-7-7M192.1 109.3l-7-7M188.2 109.3l-6.9-7M184.2 109.3l-7-7M180.1 109.3l-7-7M176.2 109.3l-6.9-7M172.2 109.3l-7-7M168.1 109.3l-7-7M164 109.3l-7-7M160.2 109.3l-7-7M156.1 109.3l-7-7M152 109.3l-7-7M148.2 109.3l-7-7M328.9 109.3l6.9-7M324.8 109.3l7-7M320.7 109.3l7-7M316.9 109.3l6.9-7M312.8 109.3l7-7M308.7 109.3l7-7M304.6 109.3l7-7M300.8 109.3l7-7M296.7 109.3l7-7M292.6 109.3l7-7M288.8 109.3l7-7M284.7 109.3l7-7M280.6 109.3l7-7M276.8 109.3l7-7M272.7 109.3l7-7M268.6 109.3l7-7M264.6 109.3l6.9-7M260.7 109.3l7-7M256.6 109.3l7-7M252.6 109.3l6.9-7M248.7 109.3l7-7M244.6 109.3l7-7M240.6 109.3l6.9-7M236.7 109.3l7-7M232.6 109.3l7-7M228.6 109.3l6.9-7M224.5 109.3l6.9-7M220.6 109.3l7-7M216.6 109.3l6.9-7M212.5 109.3l6.9-7M208.6 109.3l7-7M204.6 109.3l6.9-7M200.5 109.3l6.9-7M196.4 109.3l7-7M192.6 109.3l6.9-7M188.5 109.3l6.9-7M184.4 109.3l7-7M180.6 109.3l6.9-7M176.5 109.3l6.9-7M172.4 109.3l7-7M168.6 109.3l6.9-7M164.5 109.3l6.9-7M160.4 109.3l7-7M156.3 109.3l7-7M152.5 109.3l6.9-7M148.4 109.3l7-7M145.5 108.1l5.8-5.8M143.6 106.2l3.8-3.9M141.7 104l1.7-1.7"/><path class="cls-22" d="M146.7 109.3h183.1l7.2-7H139.8l6.9 7"/><path class="cls-14" d="M335.4 104l-2-1.7M333.2 106.2l-3.6-3.9M331.3 108.1l-5.8-5.8M328.4 109.3l-7-7M324.6 109.3l-7-7M320.5 109.3l-7-7M316.4 109.3l-7-7M312.3 109.3l-6.9-7M308.5 109.3l-7-7M304.4 109.3l-7-7M300.3 109.3l-6.9-7M296.5 109.3l-7-7M292.4 109.3l-7-7M288.3 109.3l-6.9-7M284.5 109.3l-7-7M280.4 109.3l-7-7M276.3 109.3l-6.9-7M272.2 109.3l-6.9-7M268.4 109.3l-7-7M264.3 109.3l-6.9-7M260.2 109.3l-6.9-7M256.4 109.3l-7-7M252.3 109.3l-6.9-7M248.2 109.3l-6.9-7M244.4 109.3l-7-7M240.3 109.3l-6.9-7M236.2 109.3l-6.9-7M232.2 109.3l-7-7M228.3 109.3l-6.9-7M224.2 109.3l-6.9-7M220.2 109.3l-7-7M216.3 109.3l-6.9-7M212.2 109.3l-6.9-7M208.2 109.3l-7-7M204.1 109.3l-7-7M200.2 109.3l-6.9-7M196.2 109.3l-7-7M192.1 109.3l-7-7M188.2 109.3l-6.9-7M184.2 109.3l-7-7M180.1 109.3l-7-7M176.2 109.3l-6.9-7M172.2 109.3l-7-7M168.1 109.3l-7-7M164 109.3l-7-7M160.2 109.3l-7-7M156.1 109.3l-7-7M152 109.3l-7-7M148.2 109.3l-7-7M328.9 109.3l6.9-7M324.8 109.3l7-7M320.7 109.3l7-7M316.9 109.3l6.9-7M312.8 109.3l7-7M308.7 109.3l7-7M304.6 109.3l7-7M300.8 109.3l7-7M296.7 109.3l7-7M292.6 109.3l7-7M288.8 109.3l7-7M284.7 109.3l7-7M280.6 109.3l7-7M276.8 109.3l7-7M272.7 109.3l7-7M268.6 109.3l7-7M264.6 109.3l6.9-7M260.7 109.3l7-7M256.6 109.3l7-7M252.6 109.3l6.9-7M248.7 109.3l7-7M244.6 109.3l7-7M240.6 109.3l6.9-7M236.7 109.3l7-7M232.6 109.3l7-7M228.6 109.3l6.9-7M224.5 109.3l6.9-7M220.6 109.3l7-7M216.6 109.3l6.9-7M212.5 109.3l6.9-7M208.6 109.3l7-7M204.6 109.3l6.9-7M200.5 109.3l6.9-7M196.4 109.3l7-7M192.6 109.3l6.9-7M188.5 109.3l6.9-7M184.4 109.3l7-7M180.6 109.3l6.9-7M176.5 109.3l6.9-7M172.4 109.3l7-7M168.6 109.3l6.9-7M164.5 109.3l6.9-7M160.4 109.3l7-7M156.3 109.3l7-7M152.5 109.3l6.9-7M148.4 109.3l7-7M145.5 108.1l5.8-5.8M143.6 106.2l3.8-3.9M141.7 104l1.7-1.7"/><path class="cls-22" d="M243.4 332.5v-39.1h-6.9v39.1h6.9"/><path class="cls-14" d="M243.7 297l-3.9-3.6M243.7 301l-7-6.9M243.7 304.9l-7-7M243.7 309l-7-7M243.7 313l-7-6.9M243.7 317.1l-7-6.9M243.7 321l-7-7M243.7 325l-7-6.9M243.7 329.1l-7-6.9M243 332.5l-6.3-6.5M238.9 332.5l-2.2-2.4M242 332.5l1.7-1.7M237.9 332.5l5.8-5.8M236.7 329.8l7-6.9M236.7 325.8l7-7M236.7 321.7l7-7M236.7 317.8l7-6.9M236.7 313.8l7-7M236.7 309.7l7-7M236.7 305.6l7-7M236.7 301.8l7-7M236.7 297.7l4.3-4.3M236.7 293.6l.3-.2"/><path class="cls-22" d="M243.4 332.5v-39.1h-6.9v39.1h6.9"/><path class="cls-14" d="M243.7 297l-3.9-3.6M243.7 301l-7-6.9M243.7 304.9l-7-7M243.7 309l-7-7M243.7 313l-7-6.9M243.7 317.1l-7-6.9M243.7 321l-7-7M243.7 325l-7-6.9M243.7 329.1l-7-6.9M243 332.5l-6.3-6.5M238.9 332.5l-2.2-2.4M242 332.5l1.7-1.7M237.9 332.5l5.8-5.8M236.7 329.8l7-6.9M236.7 325.8l7-7M236.7 321.7l7-7M236.7 317.8l7-6.9M236.7 313.8l7-7M236.7 309.7l7-7M236.7 305.6l7-7M236.7 301.8l7-7M236.7 297.7l4.3-4.3M236.7 293.6l.3-.2"/><path class="cls-22" d="M33.2 332.5H26V11.6h7.2v320.9"/><path class="cls-14" d="M33.4 14.5l-3.1-2.9M33.4 18.6l-7.2-7M33.4 22.6l-7.2-7.2M33.4 26.5l-7.2-7.2M33.4 30.6l-7.2-7.2M33.4 34.6l-7.2-7.2M33.4 38.7l-7.2-7.2M33.4 42.6l-7.2-7.2M33.4 46.6l-7.2-7.2M33.4 50.7l-7.2-7.2M33.4 54.6l-7.2-7.2M33.4 58.6l-7.2-7.2M33.4 62.7l-7.2-7.2M33.4 66.8l-7.2-7.2M33.4 70.6l-7.2-7.2M33.4 74.7l-7.2-7.2M33.4 78.8l-7.2-7.2M33.4 82.6l-7.2-7.2M33.4 86.7l-7.2-7.2M33.4 90.8l-7.2-7.2M33.4 94.6l-7.2-7.2M33.4 98.7l-7.2-7.2M33.4 102.8l-7.2-7.2M33.4 106.9l-7.2-7.2M33.4 110.7l-7.2-7.2M33.4 114.8l-7.2-7.2M33.4 118.9l-7.2-7.2M33.4 122.7l-7.2-7.2M33.4 126.8l-7.2-7.2M33.4 130.9l-7.2-7.2M33.4 134.7l-7.2-7.2M33.4 138.8l-7.2-7.2M33.4 142.9l-7.2-7.2M33.4 147l-7.2-7.2M33.4 150.8l-7.2-7.2M33.4 154.9l-7.2-7.2M33.4 159l-7.2-7.2M33.4 162.8l-7.2-7.2M33.4 166.9l-7.2-7.2M33.4 171l-7.2-7.2M33.4 175l-7.2-7.2M33.4 178.9l-7.2-7.2M33.4 183l-7.2-7.2M33.4 187l-7.2-7.2M33.4 190.9l-7.2-7.2M33.4 195l-7.2-7.2M33.4 199l-7.2-7.2M33.4 202.9l-7.2-7.2M33.4 207l-7.2-7.2M33.4 211l-7.2-7.2M33.4 215.1l-7.2-7.2M33.4 219l-7.2-7.2M33.4 223l-7.2-7.2M33.4 227.1l-7.2-7.2M33.4 231l-7.2-7.2M33.4 235l-7.2-7.2M33.4 239.1l-7.2-7.2M33.4 243l-7.2-7.2M33.4 247l-7.2-7.2M33.4 251.1l-7.2-7.2M33.4 255.2l-7.2-7.2M33.4 259l-7.2-7.2M33.4 263.1l-7.2-7.2M33.4 267.2l-7.2-7.2M33.4 271l-7.2-7.2M33.4 275.1l-7.2-7.2M33.4 279.2l-7.2-7.2M33.4 283.3l-7.2-7.2M33.4 287.1l-7.2-7.2M33.4 291.2l-7.2-7.2M33.4 295.3l-7.2-7.2M33.4 299.1l-7.2-7.2M33.4 303.2l-7.2-7.2M33.4 307.3l-7.2-7.2M33.4 311.1l-7.2-7.2M33.4 315.2l-7.2-7.2M33.4 319.3l-7.2-7.2M33.4 323.4l-7.2-7.2M33.4 327.2l-7.2-7.2M33.4 331.3l-7.2-7.2M30.6 332.5l-4.4-4.3M26.5 332.5l-.3-.5M29.4 332.5l4-3.9M26.2 331.8l7.2-7.2M26.2 327.7l7.2-7.2M26.2 323.8l7.2-7.2M26.2 319.8l7.2-7.2M26.2 315.7l7.2-7.2M26.2 311.8l7.2-7.2M26.2 307.8l7.2-7.2M26.2 303.7l7.2-7.2M26.2 299.6l7.2-7.2M26.2 295.8l7.2-7.2M26.2 291.7l7.2-7.2M26.2 287.6l7.2-7.2M26.2 283.8l7.2-7.2M26.2 279.7l7.2-7.2M26.2 275.6l7.2-7.2M26.2 271.8l7.2-7.2M26.2 267.7l7.2-7.2M26.2 263.6l7.2-7.2M26.2 259.5l7.2-7.2M26.2 255.7l7.2-7.2M26.2 251.6l7.2-7.2M26.2 247.5l7.2-7.2M26.2 243.7l7.2-7.2M26.2 239.6l7.2-7.2M26.2 235.5l7.2-7.2M26.2 231.7l7.2-7.2M26.2 227.6l7.2-7.2M26.2 223.5l7.2-7.2M26.2 219.4l7.2-7.2M26.2 215.6l7.2-7.2M26.2 211.5l7.2-7.2M26.2 207.4l7.2-7.2M26.2 203.6l7.2-7.2M26.2 199.5l7.2-7.2M26.2 195.4l7.2-7.2M26.2 191.4l7.2-7.2M26.2 187.5l7.2-7.2M26.2 183.4l7.2-7.2M26.2 179.4l7.2-7.2M26.2 175.5l7.2-7.2M26.2 171.4l7.2-7.2M26.2 167.4l7.2-7.2M26.2 163.5l7.2-7.2M26.2 159.4l7.2-7.2M26.2 155.4l7.2-7.2M26.2 151.3l7.2-7.2M26.2 147.4l7.2-7.2M26.2 143.4l7.2-7.2M26.2 139.3l7.2-7.2M26.2 135.4l7.2-7.2M26.2 131.4l7.2-7.2M26.2 127.3l7.2-7.2M26.2 123.4l7.2-7.2M26.2 119.4l7.2-7.2M26.2 115.3l7.2-7.2M26.2 111.2l7.2-7.2M26.2 107.4l7.2-7.2M26.2 103.3l7.2-7.2M26.2 99.2l7.2-7.2M26.2 95.4l7.2-7.2M26.2 91.3l7.2-7.2M26.2 87.2l7.2-7.2M26.2 83.4l7.2-7.2M26.2 79.3l7.2-7.2M26.2 75.2l7.2-7.2M26.2 71.1l7.2-7.2M26.2 67.3l7.2-7.2M26.2 63.2l7.2-7.2M26.2 59.1l7.2-7.2M26.2 55.3l7.2-7.2M26.2 51.2l7.2-7.2M26.2 47.1l7.2-7.2M26.2 43l7.2-7.2M26.2 39.2l7.2-7.2M26.2 35.1l7.2-7.2M26.2 31l7.2-7.2M26.2 27.2l7.2-7.2M26.2 23.1l7.2-7.2M26.2 19l7.2-7.2M26.2 15.2l3.4-3.6"/><path class="cls-22" d="M26 332.5h7.2V11.6H26v320.9"/><path class="cls-14" d="M33.4 14.5l-3.1-2.9M33.4 18.6l-7.2-7M33.4 22.6l-7.2-7.2M33.4 26.5l-7.2-7.2M33.4 30.6l-7.2-7.2M33.4 34.6l-7.2-7.2M33.4 38.7l-7.2-7.2M33.4 42.6l-7.2-7.2M33.4 46.6l-7.2-7.2M33.4 50.7l-7.2-7.2M33.4 54.6l-7.2-7.2M33.4 58.6l-7.2-7.2M33.4 62.7l-7.2-7.2M33.4 66.8l-7.2-7.2M33.4 70.6l-7.2-7.2M33.4 74.7l-7.2-7.2M33.4 78.8l-7.2-7.2M33.4 82.6l-7.2-7.2M33.4 86.7l-7.2-7.2M33.4 90.8l-7.2-7.2M33.4 94.6l-7.2-7.2M33.4 98.7l-7.2-7.2M33.4 102.8l-7.2-7.2M33.4 106.9l-7.2-7.2M33.4 110.7l-7.2-7.2M33.4 114.8l-7.2-7.2M33.4 118.9l-7.2-7.2M33.4 122.7l-7.2-7.2M33.4 126.8l-7.2-7.2M33.4 130.9l-7.2-7.2M33.4 134.7l-7.2-7.2M33.4 138.8l-7.2-7.2M33.4 142.9l-7.2-7.2M33.4 147l-7.2-7.2M33.4 150.8l-7.2-7.2M33.4 154.9l-7.2-7.2M33.4 159l-7.2-7.2M33.4 162.8l-7.2-7.2M33.4 166.9l-7.2-7.2M33.4 171l-7.2-7.2M33.4 175l-7.2-7.2M33.4 178.9l-7.2-7.2M33.4 183l-7.2-7.2M33.4 187l-7.2-7.2M33.4 190.9l-7.2-7.2M33.4 195l-7.2-7.2M33.4 199l-7.2-7.2M33.4 202.9l-7.2-7.2M33.4 207l-7.2-7.2M33.4 211l-7.2-7.2M33.4 215.1l-7.2-7.2M33.4 219l-7.2-7.2M33.4 223l-7.2-7.2M33.4 227.1l-7.2-7.2M33.4 231l-7.2-7.2M33.4 235l-7.2-7.2M33.4 239.1l-7.2-7.2M33.4 243l-7.2-7.2M33.4 247l-7.2-7.2M33.4 251.1l-7.2-7.2M33.4 255.2l-7.2-7.2M33.4 259l-7.2-7.2M33.4 263.1l-7.2-7.2M33.4 267.2l-7.2-7.2M33.4 271l-7.2-7.2M33.4 275.1l-7.2-7.2M33.4 279.2l-7.2-7.2M33.4 283.3l-7.2-7.2M33.4 287.1l-7.2-7.2M33.4 291.2l-7.2-7.2M33.4 295.3l-7.2-7.2M33.4 299.1l-7.2-7.2M33.4 303.2l-7.2-7.2M33.4 307.3l-7.2-7.2M33.4 311.1l-7.2-7.2M33.4 315.2l-7.2-7.2M33.4 319.3l-7.2-7.2M33.4 323.4l-7.2-7.2M33.4 327.2l-7.2-7.2M33.4 331.3l-7.2-7.2M30.6 332.5l-4.4-4.3M26.5 332.5l-.3-.5M29.4 332.5l4-3.9M26.2 331.8l7.2-7.2M26.2 327.7l7.2-7.2M26.2 323.8l7.2-7.2M26.2 319.8l7.2-7.2M26.2 315.7l7.2-7.2M26.2 311.8l7.2-7.2M26.2 307.8l7.2-7.2M26.2 303.7l7.2-7.2M26.2 299.6l7.2-7.2M26.2 295.8l7.2-7.2M26.2 291.7l7.2-7.2M26.2 287.6l7.2-7.2M26.2 283.8l7.2-7.2M26.2 279.7l7.2-7.2M26.2 275.6l7.2-7.2M26.2 271.8l7.2-7.2M26.2 267.7l7.2-7.2M26.2 263.6l7.2-7.2M26.2 259.5l7.2-7.2M26.2 255.7l7.2-7.2M26.2 251.6l7.2-7.2M26.2 247.5l7.2-7.2M26.2 243.7l7.2-7.2M26.2 239.6l7.2-7.2M26.2 235.5l7.2-7.2M26.2 231.7l7.2-7.2M26.2 227.6l7.2-7.2M26.2 223.5l7.2-7.2M26.2 219.4l7.2-7.2M26.2 215.6l7.2-7.2M26.2 211.5l7.2-7.2M26.2 207.4l7.2-7.2M26.2 203.6l7.2-7.2M26.2 199.5l7.2-7.2M26.2 195.4l7.2-7.2M26.2 191.4l7.2-7.2M26.2 187.5l7.2-7.2M26.2 183.4l7.2-7.2M26.2 179.4l7.2-7.2M26.2 175.5l7.2-7.2M26.2 171.4l7.2-7.2M26.2 167.4l7.2-7.2M26.2 163.5l7.2-7.2M26.2 159.4l7.2-7.2M26.2 155.4l7.2-7.2M26.2 151.3l7.2-7.2M26.2 147.4l7.2-7.2M26.2 143.4l7.2-7.2M26.2 139.3l7.2-7.2M26.2 135.4l7.2-7.2M26.2 131.4l7.2-7.2M26.2 127.3l7.2-7.2M26.2 123.4l7.2-7.2M26.2 119.4l7.2-7.2M26.2 115.3l7.2-7.2M26.2 111.2l7.2-7.2M26.2 107.4l7.2-7.2M26.2 103.3l7.2-7.2M26.2 99.2l7.2-7.2M26.2 95.4l7.2-7.2M26.2 91.3l7.2-7.2M26.2 87.2l7.2-7.2M26.2 83.4l7.2-7.2M26.2 79.3l7.2-7.2M26.2 75.2l7.2-7.2M26.2 71.1l7.2-7.2M26.2 67.3l7.2-7.2M26.2 63.2l7.2-7.2M26.2 59.1l7.2-7.2M26.2 55.3l7.2-7.2M26.2 51.2l7.2-7.2M26.2 47.1l7.2-7.2M26.2 43l7.2-7.2M26.2 39.2l7.2-7.2M26.2 35.1l7.2-7.2M26.2 31l7.2-7.2M26.2 27.2l7.2-7.2M26.2 23.1l7.2-7.2M26.2 19l7.2-7.2M26.2 15.2l3.4-3.6"/><path class="cls-31" d="M236.5 342.1v-3.4h13.4l3.1 3.4h-16.5"/><path class="cls-22" d="M236.5 338.7v3.4H253l-3.1-3.4h-13.4"/><path class="cls-14" d="M237.2 338.7l3.4 3.4M241.3 338.7l3.3 3.4M245.1 338.7l3.4 3.4M249.2 338.7l3.4 3.4"/><path class="cls-17" d="M236.5 338.7h13.4M236.5 342.1H253"/><path class="cls-22" d="M254.7 287.1h-9.8l-8.4 6.3h18.2v-6.3"/><path class="cls-14" d="M255 288.3l-1.2-1.2M255 292.2l-5.3-5.1M252.1 293.4l-6.3-6.3M248 293.4l-4.8-4.8M243.9 293.4l-3.1-3.2M239.8 293.4l-1.2-1.5M253 293.4l2-2M249 293.4l6-6M244.9 293.4l6.2-6.3M241 293.4l6.3-6.3M237 293.4l.9-1"/><path class="cls-22" d="M254.7 287.1h-9.8l-8.4 6.3h18.2v-6.3"/><path class="cls-14" d="M255 288.3l-1.2-1.2M255 292.2l-5.3-5.1M252.1 293.4l-6.3-6.3M248 293.4l-4.8-4.8M243.9 293.4l-3.1-3.2M239.8 293.4l-1.2-1.5M253 293.4l2-2M249 293.4l6-6M244.9 293.4l6.2-6.3M241 293.4l6.3-6.3M237 293.4l.9-1"/><path class="cls-22" d="M329.8 293.4v-6.3h-12v6.3h12"/><path class="cls-14" d="M330.1 287.1h-.3M330.1 291.2l-4.1-4.1M328.2 293.4l-6.3-6.3M324.1 293.4l-6-6.3M320.2 293.4l-2.1-2.2M329.1 293.4l1-.8M325 293.4l5.1-4.8M321.2 293.4l6.2-6.3M318.1 292.4l5.3-5.3M318.1 288.6l1.2-1.5"/><path class="cls-22" d="M329.8 293.4v-6.3h-12v6.3h12"/><path class="cls-14" d="M330.1 287.1h-.3M330.1 291.2l-4.1-4.1M328.2 293.4l-6.3-6.3M324.1 293.4l-6-6.3M320.2 293.4l-2.1-2.2M329.1 293.4l1-.8M325 293.4l5.1-4.8M321.2 293.4l6.2-6.3M318.1 292.4l5.3-5.3M318.1 288.6l1.2-1.5"/><path class="cls-31" d="M319.5 342.1l3.1-3.4H337v3.4h-17.5"/><path class="cls-22" d="M322.6 338.7l-3.1 3.4H337v-3.4h-14.4"/><path class="cls-14" d="M320.2 341.6l.5.5M322.2 339.4l2.6 2.7M325.3 338.7l3.3 3.4M329.4 338.7l3.3 3.4M333.4 338.7l3.4 3.4"/><path class="cls-17" d="M322.6 338.7H337M319.5 342.1H337"/><path class="cls-22" d="M294.3 147.9H279l5.7 10.1h9.6v-10.1"/><path class="cls-14" d="M294.6 151.5l-3.6-3.6M294.6 155.4l-7.7-7.5M293.1 158L283 147.9M289 158l-9.8-9.6M285 158l-.3-.2M292.2 158l2.4-2.4M288.1 158l6.5-6.2M284.5 157.5l9.6-9.6M283 154.9l7.2-7M281.6 152.5l4.6-4.6M280.2 149.8l1.9-1.9"/><path class="cls-22" d="M294.3 147.9H279l5.7 10.1h9.6v-10.1"/><path class="cls-14" d="M294.6 151.5l-3.6-3.6M294.6 155.4l-7.7-7.5M293.1 158L283 147.9M289 158l-9.8-9.6M285 158l-.3-.2M292.2 158l2.4-2.4M288.1 158l6.5-6.2M284.5 157.5l9.6-9.6M283 154.9l7.2-7M281.6 152.5l4.6-4.6M280.2 149.8l1.9-1.9"/><path class="cls-17" d="M297.4 156.6h29.3"/><path class="cls-1" d="M297.4 147.9h29.3"/><path class="cls-17" d="M326.2 147.9h.5"/><path class="cls-22" d="M294.3 147.9h3.1v8.7h-3.1"/><path class="cls-14" d="M297.7 150.6l-2.7-2.7M297.7 154.6l-3.1-3.1M295.5 156.6l-.9-1.2M297.4 156.6h.3M294.6 155.6l3.1-3.1M294.6 151.8l3.1-3.2"/><path class="cls-22" d="M329.8 147.9h-3.1v8.7h3.1"/><path class="cls-14" d="M330.1 150.8l-3.1-2.9M330.1 154.9l-3.1-3.1M327.7 156.6l-.7-.8M329.6 156.6l.5-.3M327 155.4l3.1-3.2M327 151.3l3.1-3.1"/><path class="cls-22" d="M284.7 212.7l-5.7 10.1h15.3v-10.1h-9.6"/><path class="cls-14" d="M294.6 215.6l-2.9-2.9M294.6 219.7l-7-7M293.6 222.8l-9.1-9.4M289.8 222.8l-6.8-6.7M285.7 222.8l-4.3-4.1M281.6 222.8l-1.7-1.7M291.4 222.8l3.2-2.9M287.4 222.8l7.2-7M283.5 222.8l10.1-10.1M279.4 222.8l10.1-10.1M284 214.2l1.4-1.5"/><path class="cls-22" d="M284.7 212.7l-5.7 10.1h15.3v-10.1h-9.6"/><path class="cls-14" d="M294.6 215.6l-2.9-2.9M294.6 219.7l-7-7M293.6 222.8l-9.1-9.4M289.8 222.8l-6.8-6.7M285.7 222.8l-4.3-4.1M281.6 222.8l-1.7-1.7M291.4 222.8l3.2-2.9M287.4 222.8l7.2-7M283.5 222.8l10.1-10.1M279.4 222.8l10.1-10.1M284 214.2l1.4-1.5"/><path class="cls-17" d="M326.7 214.2h-29.3"/><path class="cls-1" d="M326.7 222.8h-29.3"/><path class="cls-17" d="M297.9 222.8h-.5"/><path class="cls-22" d="M329.8 222.8h-3.1v-8.6h3.1"/><path class="cls-14" d="M330.1 215.1l-1-.9M330.1 219l-3.1-3.2M329.8 222.8l-2.8-2.9M327.4 222.8l2.7-2.4M327 219.4l3.1-3.1M327 215.4l1.2-1.2"/><path class="cls-22" d="M294.3 222.8h3.1v-8.6h-3.1"/><path class="cls-14" d="M297.7 214.6l-.7-.4M297.7 218.7l-3.1-3.1M297.7 222.8l-3.1-3.1M295.5 222.8l2.2-2.2M294.6 219.9l3.1-3.1M294.6 215.8l1.4-1.6"/><path class="cls-22" d="M234.8 11.6v90.7h7.2V11.6h-7.2"/><path class="cls-14" d="M242.2 15l-3.3-3.4M242.2 19l-7.2-7.2M242.2 22.9l-7.2-7.2M242.2 27l-7.2-7.2M242.2 31l-7.2-7.2M242.2 34.9l-7.2-7.2M242.2 39l-7.2-7.2M242.2 43l-7.2-7.2M242.2 46.9l-7.2-7.2M242.2 51l-7.2-7.2M242.2 55l-7.2-7.2M242.2 59.1l-7.2-7.2M242.2 63l-7.2-7.2M242.2 67l-7.2-7.2M242.2 71.1l-7.2-7.2M242.2 75l-7.2-7.2M242.2 79l-7.2-7.2M242.2 83.1l-7.2-7.2M242.2 87l-7.2-7.2M242.2 91l-7.2-7.2M242.2 95.1l-7.2-7.2M242.2 99.2L235 92M241.3 102.3l-6.3-6.5M237.4 102.3l-2.4-2.4M239.6 102.3l2.6-2.6M235.5 102.3l6.7-6.5M235 99l7.2-7.2M235 94.9l7.2-7.2M235 90.8l7.2-7.2M235 87l7.2-7.2M235 82.9l7.2-7.2M235 78.8l7.2-7.2M235 75l7.2-7.2M235 70.9l7.2-7.2M235 66.8l7.2-7.2M235 63l7.2-7.2M235 58.9l7.2-7.2M235 54.8l7.2-7.2M235 50.7l7.2-7.2M235 46.9l7.2-7.2M235 42.8l7.2-7.2M235 38.7l7.2-7.2M235 34.9l7.2-7.2M235 30.8l7.2-7.2M235 26.7l7.2-7.2M235 22.9l7.2-7.2M235 18.8l7-7.2M235 14.7l3.2-3.1"/><path class="cls-22" d="M234.8 11.6v90.7h7.2V11.6h-7.2"/><path class="cls-14" d="M242.2 15l-3.3-3.4M242.2 19l-7.2-7.2M242.2 22.9l-7.2-7.2M242.2 27l-7.2-7.2M242.2 31l-7.2-7.2M242.2 34.9l-7.2-7.2M242.2 39l-7.2-7.2M242.2 43l-7.2-7.2M242.2 46.9l-7.2-7.2M242.2 51l-7.2-7.2M242.2 55l-7.2-7.2M242.2 59.1l-7.2-7.2M242.2 63l-7.2-7.2M242.2 67l-7.2-7.2M242.2 71.1l-7.2-7.2M242.2 75l-7.2-7.2M242.2 79l-7.2-7.2M242.2 83.1l-7.2-7.2M242.2 87l-7.2-7.2M242.2 91l-7.2-7.2M242.2 95.1l-7.2-7.2M242.2 99.2L235 92M241.3 102.3l-6.3-6.5M237.4 102.3l-2.4-2.4M239.6 102.3l2.6-2.6M235.5 102.3l6.7-6.5M235 99l7.2-7.2M235 94.9l7.2-7.2M235 90.8l7.2-7.2M235 87l7.2-7.2M235 82.9l7.2-7.2M235 78.8l7.2-7.2M235 75l7.2-7.2M235 70.9l7.2-7.2M235 66.8l7.2-7.2M235 63l7.2-7.2M235 58.9l7.2-7.2M235 54.8l7.2-7.2M235 50.7l7.2-7.2M235 46.9l7.2-7.2M235 42.8l7.2-7.2M235 38.7l7.2-7.2M235 34.9l7.2-7.2M235 30.8l7.2-7.2M235 26.7l7.2-7.2M235 22.9l7.2-7.2M235 18.8l7-7.2M235 14.7l3.2-3.1"/><path class="cls-1" d="M249.7 344h73.4"/><path class="cls-17" d="M249.7 344v-1.9M323.1 344v-1.9"/><path class="cls-31" d="M250.4 331.3l3.4.2-.8 10.6-3.1-3.4.5-7.4"/><path class="cls-22" d="M253.8 331.5l-3.4-.2-.5 7.4 3.1 3.4.8-10.6"/><path class="cls-14" d="M250.2 335.6l3.1 3.4M250.4 332l3.1 3.1"/><path class="cls-17" d="M253.8 331.5l-.8 10.6M250.4 331.3l-.5 7.4"/><path class="cls-31" d="M253 298.2l3.4.2-.5 7-3.3-.3.4-6.9"/><path class="cls-22" d="M256.4 298.4l-3.4-.2-.4 6.9 3.3.3.5-7"/><path class="cls-14" d="M252.8 302.2l3.1 3.2M253 298.6l3.4 3.2"/><path class="cls-17" d="M256.4 298.4l-.5 7M253 298.2l-.4 6.9"/><path class="cls-31" d="M255.9 305.4l-3.3-.3 3.3.3M250.4 331.3l3.4.2-3.4-.2M253.8 331.5l-3.4-.2 3.4.2M252.6 305.1l3.3.3-3.3-.3M255.9 305.4l-3.3-.3 3.3.3M250.4 331.3l3.4.2-3.4-.2"/><path class="cls-22" d="M255.9 305.4l-3.3-.3 3.3.3"/><path class="cls-14" d="M255.9 305.4"/><path class="cls-22" d="M250.4 331.3l3.4.2-3.4-.2"/><path class="cls-17" d="M253.8 331.5l-3.4-.2M253.8 331.5l-3.4-.2M252.6 305.1l3.3.3"/><path class="cls-31" d="M320.2 305.1l-3.6.3-.4-7 3.3-.2.7 6.9"/><path class="cls-22" d="M316.6 305.4l3.6-.3-.7-6.9-3.3.2.4 7"/><path class="cls-14" d="M316.4 301.8l3.6 3.3M317.1 298.4l2.9 2.9"/><path class="cls-17" d="M316.6 305.4l-.4-7M320.2 305.1l-.7-6.9"/><path class="cls-31" d="M322.6 338.7l-3.1 3.4-.7-10.6 3.4-.2.4 7.4"/><path class="cls-22" d="M319.5 342.1l3.1-3.4-.4-7.4-3.4.2.7 10.6"/><path class="cls-14" d="M319.5 340.9l.7.7M319.3 336.6l2.9 2.8M319 332.2l3.6 3.6M321.9 331.3l.5.2"/><path class="cls-17" d="M319.5 342.1l-.7-10.6M322.6 338.7l-.4-7.4"/><path class="cls-31" d="M318.8 331.5l3.4-.2-3.4.2M320.2 305.1l-3.6.3 3.6-.3M316.6 305.4l3.6-.3-3.6.3M322.2 331.3l-3.4.2 3.4-.2M318.8 331.5l3.4-.2-3.4.2M320.2 305.1l-3.6.3 3.6-.3"/><path class="cls-22" d="M318.8 331.5l3.4-.2-3.4.2"/><path class="cls-14" d="M321.9 331.3"/><path class="cls-22" d="M320.2 305.1l-3.6.3 3.6-.3"/><path class="cls-14" d="M320 305.1"/><path class="cls-17" d="M316.6 305.4l3.6-.3M316.6 305.4l3.6-.3M322.2 331.3l-3.4.2"/><path class="cls-22" d="M139.8 323.1v4.3h-18v-4.3h18"/><path class="cls-14" d="M122 324.8l1.7-1.7M123.4 327.4l4.4-4.3M127.8 327.4l4.3-4.3M132.1 327.4l4.3-4.3M136.2 327.4l3.8-3.6"/><path class="cls-22" d="M139.8 327.4v-4.3h-18v4.3h18"/><path class="cls-14" d="M122 324.8l1.7-1.7M123.4 327.4l4.4-4.3M127.8 327.4l4.3-4.3M132.1 327.4l4.3-4.3M136.2 327.4l3.8-3.6"/><path class="cls-22" d="M121.8 292.9h18v-4.8h-18v4.8"/><path class="cls-14" d="M122 290.7l2.6-2.6M124.2 292.9l4.8-4.8M128.2 292.9l4.8-4.8M132.6 292.9l4.8-4.8M136.9 292.9l3.1-3.1"/><path class="cls-22" d="M121.8 292.9h18v-4.8h-18v4.8"/><path class="cls-14" d="M122 290.7l2.6-2.6M124.2 292.9l4.8-4.8M128.2 292.9l4.8-4.8M132.6 292.9l4.8-4.8M136.9 292.9l3.1-3.1"/><path class="cls-17" d="M308.2 299.8h-10M301.8 301.8l-3.6-2 3.6-2.1"/><path class="cls-22" d="M141 102.3v4.8h-20.2v-4.8H141"/><path class="cls-14" d="M121 104.7l2.4-2.4M122.7 107.1l4.8-4.8M127 107.1l4.8-4.8M131.4 107.1l4.8-4.8M135.7 107.1l4.8-4.8M139.8 107.1l1.4-1.2"/><path class="cls-22" d="M141 107.1v-4.8h-20.2v4.8H141"/><path class="cls-14" d="M121 104.7l2.4-2.4M122.7 107.1l4.8-4.8M127 107.1l4.8-4.8M131.4 107.1l4.8-4.8M135.7 107.1l4.8-4.8M139.8 107.1l1.4-1.2"/><path class="cls-22" d="M63.7 102.3v4.8H33.2v-4.8h30.5"/><path class="cls-14" d="M33.4 103l.8-.7M33.7 107.1l4.8-4.8M37.8 107.1l4.8-4.8M42.1 107.1l4.8-4.8M46.4 107.1l4.8-4.8M50.5 107.1l4.8-4.8M54.8 107.1l4.8-4.8M59.1 107.1l4.8-4.8M63.2 107.1l.7-.5"/><path class="cls-22" d="M63.7 107.1v-4.8H33.2v4.8h30.5"/><path class="cls-14" d="M33.4 103l.8-.7M33.7 107.1l4.8-4.8M37.8 107.1l4.8-4.8M42.1 107.1l4.8-4.8M46.4 107.1l4.8-4.8M50.5 107.1l4.8-4.8M54.8 107.1l4.8-4.8M59.1 107.1l4.8-4.8M63.2 107.1l.7-.5"/><path class="cls-1" d="M249.9 338.7h72.7"/><path class="cls-22" d="M236.5 222.8l2.4-1.4-.3 2.4-2.1-1"/><path class="cls-14" d="M238.4 223.5l-1.2-.9M238.4 223.8l.5-.5"/><path class="cls-1" d="M37.8 342.1l7.6 42.7"/><path class="cls-12" d="M45.4 384.8h83.8"/><path class="cls-16" d="M129.2 384.8l7.7-42.7"/><path class="cls-17" d="M58.1 344v-8.9m0 0h58.4v8.9"/><path class="cls-21" d="M276.3 147.9h1.2v17h-1.2z"/><path class="cls-17" d="M276.3 147.9h1.2v17h-1.2z"/><path class="cls-13" d="M319.5 298.2l-3.3.2"/><path class="cls-3" d="M324.3 337h-5"/><path class="cls-17" d="M319.8 337h-.5"/><path class="cls-3" d="M248.2 337h5.1"/><path class="cls-17" d="M252.8 337h.5"/><path class="cls-22" d="M255.7 306.6l-1.7 23.7-7.9-.5 1.9-24 7.7.8M324.6 305.8l1.9 24-7.7.5-1.9-24 7.7-.5"/><path class="cls-17" d="M254.7 293.4h69.9M285.7 291.7h32.2v1.2h-32.2zM253 293.4h34.6v1.4H253zM316.2 291.7v1.2M254.7 293.4v1.4M285.7 293.4v1.4M285.7 291.7v1.2"/><path class="cls-1" d="M316.2 294.8h-28.6"/><path class="cls-17" d="M288.1 294.8h-.5"/><path class="cls-1" d="M254.7 287.1h63.1"/><path class="cls-17" d="M317.4 287.1h.4M285.7 292.9h1.9v.5h-1.9zM256.6 293.4v1.4M313.8 291.7v1.2M287.6 291.7v1.2"/><path class="cls-14" d="M189.3 11.6c0 11 9.1 20.1 20.1 20.1M209.6 31.8V11.6"/><path class="cls-5" d="M189.4 11.6l-.4 4.1-1.2 3.6-1.7 3.6-2.7 3.1-3.1 2.4-3.3 1.9-3.9 1-3.8.5"/><path class="cls-10" d="M169.3 31.8V11.6"/><path class="cls-14" d="M117.3 312.4c-11 0-20.1 9.1-20.1 20.1M117.4 312.3v20.2"/><path class="cls-5" d="M77.1 312.3l3.9.5 3.8 1.2 3.6 1.9 2.9 2.4 2.6 3.1 1.7 3.4 1.2 3.8.5 3.9"/><path class="cls-10" d="M77.1 312.3v20.2"/><path class="cls-14" d="M23.4 423.4l-1-.4M22.4 423l-1.2.2M21.2 423.2h-1M20.2 423.2l-.9-.5M19.3 423l-1-.8M18.3 422.2l-1.2-.2M17.1 422h-.9M16.2 422l-1-.7M15.2 421.3l-.7-.7M14.5 420.6l-1-.5M13.5 420.1l-.9-.5M12.6 419.6l-.8-.7M11.8 418.9l-.4-1M11.4 417.9l-1-.7M10.4 417.2l-1-.7M9.4 416.5l-.4-1M9.2 415.5l-.2-.9M9 414.6l-.8-1M8.2 413.6l-.7-.7M7.5 412.9l-.2-1.2M7.3 411.7v-1M7.3 410.7l-.5-.9M6.8 409.8l-.5-1.2M6.3 408.6v-1M6.3 407.6l.5-1M6.8 406.6l-.2-1.2M6.6 405.4l-.3-.9M6.3 404.5l.3-1.2M6.6 403.3l.7-1M7.3 402.3v-.9M7.3 401.4v-1.2M7.3 400.2l.7-1M8 399.2l.7-.7M8.7 398.5l.3-1M9 397.5l.4-1.2M9.4 396.3l.8-.7M10.2 395.6l.9-.5M11.1 395.1l.5-.9M11.6 394.2l.7-1M12.3 393.2l1-.5M13.3 392.7l.9-.2M14.2 392.5l.8-.7M15 391.8l.9-.8M15.9 391l1-.4M16.9 390.6h1.2M18.1 390.6l.9-.5M19 390.1l1-.5M20 389.6h1M21 389.6l1.2.2M22.2 389.8l.9-.2M23.1 389.6l1-.5M24.1 389.1l1.2.5M25.3 389.6l.9.5M26.2 390.1h1M27.2 390.1l1.2-.3M28.4 389.8l1 .8M29.4 390.6l.7.7M30.1 391.3l1.2.2M31.3 391.5l.9.3M32.2 391.8l1 .7M33.2 392.5l.5.9M33.7 393.4l.9.5M34.6 393.9l1 .5M35.6 394.4l.7 1M36.3 395.4l.3.9M36.6 396.3l.9.7M37.5 397l.7.8M38.2 397.8l.5.9M38.7 398.7v1.2M38.7 399.9l.5 1M39.2 400.9l.7.9M39.9 401.8v1M39.9 402.8v1.2M39.9 404l.3 1M40.2 405l.4.9M40.6 405.9l-.2 1.2M40.4 407.1l-.5 1M39.9 408.1v.9M39.9 409l.3 1.2M40.2 410.2l-.5 1M39.7 411.2l-.7 1M39 412.2l-.3.9M38.7 413.1v1.2M38.7 414.3l-.7.7M38 415l-1 .8M37 415.8l-.4.9M36.6 416.7l-.3 1M36.3 417.7l-.9.7M35.4 418.4l-1 .5M34.4 418.9l-.7.9M33.7 419.8l-.7.8M33 420.6l-1 .4M32 421l-1.2.3M30.8 421.3l-.7.5M30.1 421.8l-1 .7M29.1 422.5l-.9.2M28.2 422.7l-1.2-.2M27 422.5l-1 .5M26 423l-1 .4M25 423.4h-1.2"/><g class="cls-27"><path class="cls-14" d="M23.8 423.4l-.9-.2M22.9 423.2l-1.2.2M21.7 423.4l-1 .5M20.7 423.9l-.9-.2"/></g><path class="cls-8" d="M24.1 406.4c0-.4-.3-.7-.7-.7s-.7.3-.7.7.3.7.7.7.7-.3.7-.7"/><path class="cls-14" d="M21.4 393.9l-.9-.5M20.5 393.4l-1.2.3M19.3 393.7l-1 .2M18.3 393.9l-1.2-.5M17.1 393.4l-.9-.4M16.2 393h-1M15.2 393l-1.2-.3M14 392.7l-1-.5M13 392.2l-.7-.7M12.3 391.5l-.9-.2M11.4 391.3l-1.2-.3M10.2 391l-.8-.9M9.4 390.1l-.7-.7M8.7 389.4l-.9-.5M7.8 388.9l-1-.5M6.8 388.4l-.7-1M6.1 387.4l-.3-.9M5.8 386.5l-.9-.7M4.9 385.8l-1-.8M3.9 385l-.5-.9M3.4 384.1l-.2-1M3.2 383.1l-.7-.9M2.5 382.2l-.7-.8M1.8 381.4l-.3-1.2M1.5 380.2v-.9M1.5 379.3l-.5-1M1 378.3l-.4-.9M.6 377.4v-1.2M.6 376.2l.2-1M.8 375.2l-.5-1M.3 374.2L0 373M0 373v-.9M0 372.1l.6-1M.6 371.1v-1.2M.6 369.9l-.3-1.2M.3 368.7l.5-.9M.8 367.8l.5-1M1.3 366.8l.2-1M1.5 365.8v-1.2M1.5 364.6l.5-.9M2 363.7l1-.7M3 363l.2-1M3.2 362l.2-1.2M3.4 360.8l.8-.7M4.2 360.1l.9-.5M5.1 359.6l.5-1M5.6 358.6l.5-.9M6.1 357.7l.9-.7M7 357l1-.5M8 356.5l.7-.7M8.7 355.8l.7-1M9.4 354.8l1-.5M10.4 354.6l1.2-.3M11.6 354.3l.7-.7M12.3 353.6l1-.7M13.3 352.9l.9-.3M14.2 352.6h1.2M15.4 352.6l1-.4M16.4 352.2l1-.5M17.4 351.7h.9M18.3 351.7l1.2.2M19.5 351.9l1-.5M20.5 351.4l1.2-.2M21.7 351.2l.9.2M22.6 351.4l1 .5M23.6 351.9l1.2-.2M24.8 351.7h1M25.8 351.7l1.2.5M27 352.2l.7.7M27.7 352.9h1.2M28.9 352.9h.9M29.8 352.9l1 .7M30.8 353.6l.7.7M31.5 354.3l1.2.5M32.7 354.8l1 .2M33.7 355l.7.8M34.4 355.8l.5.9M34.9 356.7l1.2.7M36.1 357.4l.9.5M37 357.9l.5 1M37.5 358.9l.3.9M37.8 359.8l.9.8M38.7 360.6l1 .7M39.7 361.3l.2.9M39.9 362.2l.3 1.2M40.2 363.4l.7.8M40.9 364.2l.5.9M41.4 365.1l.2 1M41.6 366.1v1.2M41.6 367.3l.5.9M42.1 368.2l.5 1M42.6 369.2v1.2M42.6 370.4l-.3 1M42.3 371.4l.3.9M42.6 372.3l.2 1.2M42.8 373.5l-.2 1M42.6 374.5l-.5.9M42.1 375.4v1.2M42.1 376.6l.2 1.2M42.3 377.8l-.5 1M41.8 378.8l-.7.7M41.1 379.5l-.2 1.2M40.9 380.7v1M40.9 381.7l-.7.9M40.2 382.6l-.8.8M39.4 383.4l-.4.9M39 384.3l-.3 1.2M38.7 385.5l-.9.7M37.8 386.2l-1 .5M36.8 386.7l-.5 1M36.3 387.7l-.5.9M35.8 388.6l-.9.5M34.9 389.1l-1.2.5M33.7 389.6l-.7.7M33 390.3l-.8.7M32.2 391l-.9.5M31.3 391.5h-1.2M30.1 391.5l-.7.7M29.4 392.2l-1 .8M28.4 393h-1.2M27.2 393h-1M26.2 393l-.9.4M25.3 393.4l-1 .5M24.3 393.9h-1.2"/><g class="cls-28"><path class="cls-14" d="M23.1 393.9l-.9-.2M22.2 393.7l-1.2.2M21 393.9l-1 .3M20 394.2l-1.2-.3"/></g><path class="cls-8" d="M22.2 372.6c0-.4-.3-.7-.7-.7s-.7.3-.7.7.3.7.7.7.7-.3.7-.7"/><path class="cls-17" d="M46.2 345.9h80.6v89.3H46.2z"/><path class="cls-17" d="M125.1 345.9h1.7v89.3h-1.7zM46.2 345.9h1.7v89.3h-1.7zM64.2 127.8l-.3.7M63.9 128.5v.9M63.9 129.4l-.2.8M63.7 130.2v.4M63 131.8v.3M62 133.3l-.5.5M61.5 133.8l-.5.4M61 134.2l-.7.5M60.3 134.7l-.5.3M58.6 135.7h-.2M57 136.2h-.5M56.5 136.2h-1M55.5 136.2h-.7M54.8 136.2h-.7M52.9 135.7h-.3M51.2 135l-.5-.3M50.7 134.7l-.5-.5M50.2 134.2l-.7-.4M49.5 133.8l-.5-.5M48.3 132.1l-.2-.3M47.6 130.6l-.2-.4M47.4 130.2l-.3-.8M47.1 129.4v-.9M47.1 128.5v-.7M47.1 126.3v-.2M47.6 124.6v-.2M47.6 124.4l.5-.7M48.1 123.7l.5-.7M48.6 123l.4-.8M50 121.3h.2M50.2 121.3v-.3M51.4 120.3l1-.5M52.4 119.8l.7-.2M53.1 119.6l.7-.2M53.8 119.4h.3M55.5 119.4h.3M57.2 119.4l.7.2M57.9 119.6l1 .2M58.9 119.8l.7.5M59.6 120.3h.2M61 121.3h.3M62.2 122.5l.5.5M62.7 123l.3.7M63 123.7l.4.7M63.4 124.4v.5M63.9 126.3v.3"/><path class="cls-18" d="M297.4 165.7h29.8v39.6h-29.8zM94.9 107.1V16.6M89.8 107.1V16.6M89.8 107.1V16.6M94.9 107.1V16.6M94.9 107.1h-5.1M236.5 253.5v10.1M244.9 253.5v10.1M244.9 253.5v10.1M236.5 253.5v10.1M236.5 222.8v3.6M244.9 215.6v10.8M244.9 215.6v10.8M236.5 222.8v3.6M236.5 226.4h8.4M236.5 253.5h8.4M236.5 263.6v29.8M244.9 263.6v23.5M244.9 263.6v23.5M236.5 263.6v29.8M55.8 338.7H26M55.8 342.1H26M55.8 327.4H26M55.8 332.5H26M146.7 338.7h-27.8M146.7 342.1h-27.8M146.7 327.4h-27.8M146.7 332.5h-27.8M117 342.1h3.3M57.7 342.1h-3.4M118.9 332.5v-5.1M118.9 342.1H117v-3.4h1.9M117 338.7v-3.8M55.8 332.5v-5.1M55.8 342.1h1.9v-3.4h-1.9M57.7 338.7v-3.8M210.8 5.4H242M210.8 2H242M210.8 16.6H242M210.8 11.6H242M78.3 5.4h69.6M78.3 2h69.6M78.3 16.6h69.6M78.3 11.6h69.6M26 5.4h33.6M26 2h33.6M26 16.6h33.6M26 11.6h33.6M61.3 2h-3.4M76.4 2h3.4M59.6 11.6v5M59.6 2h1.7v3.4h-1.7M61.3 5.4v4M78.3 11.6v5M78.3 2h-1.9v3.4h1.9M76.4 5.4v4M149.8 2h-3.3M209.1 2h3.4M147.9 11.6v5M147.9 2h1.9v3.4h-1.9M149.8 5.4v4M210.8 11.6v5M210.8 2h-1.7v3.4h1.7M209.1 5.4v4M244.9 215.6h-98.2M236.5 222.8h-89.8M236.5 222.8h-89.8M244.9 215.6h-98.2M139.8 292.9v39.6M139.8 142.6v145.5M146.7 222.8v109.7M146.7 142.6v73M146.7 222.8v109.7M139.8 292.9v39.6M139.8 142.6v145.5M146.7 142.6v73M139.8 102.3v4.8M146.7 109.3v-2.2M146.7 109.3v-2.2M139.8 102.3v4.8M139.8 288.1v4.8M146.7 109.3H141M146.7 137.1H141M146.7 109.3H141M146.7 107.1v2.2M146.7 137.1H141M146.7 142.6v-5.5M139.8 107.1h1.2M139.8 142.6h1.2M146.7 107.1v2.2M146.7 142.6v-5.5M141 109.3v-2.2M141 137.1v5.5M337 107.1v-4.8M337 107.1v-4.8M337 332.5V142.6M329.8 147.9v-5.3M329.8 212.7V158M329.8 287.1v-64.3M329.8 332.5v-39.1M329.8 147.9v-5.3M337 332.5V142.6M329.8 212.7V158M329.8 287.1v-64.3M329.8 332.5v-39.1M337 332.5h-7.2M329.8 137.1h6M329.8 109.3h6M329.8 137.1h6M329.8 142.6v-5.5M329.8 109.3h6M329.8 107.1v2.2M337 142.6h-1.2M337 107.1h-1.2M329.8 142.6v-5.5M329.8 107.1v2.2M335.8 137.1v5.5M335.8 109.3v-2.2M284.7 212.7V158M279 222.8v-74.9M279 222.8v-74.9M284.7 212.7V158M234.8 102.3h-95M337 102.3h-95M329.8 109.3H146.7M329.8 109.3H146.7M234.8 102.3h-95M337 102.3h-95M236.5 293.4v39.1M243.4 293.4v39.1M236.5 332.5h6.9M243.4 293.4v39.1M236.5 293.4v39.1M33.2 332.5V11.6M26 332.5V11.6M33.2 11.6H26M26 332.5V11.6M33.2 332.5V11.6M33.2 332.5H26M236.5 342.1H253M236.5 338.7h13.4M243.4 293.4h11.3M244.9 287.1h9.8M254.7 293.4v-6.3M244.9 287.1h9.8M243.4 293.4h11.3M317.8 293.4h12M317.8 287.1h12M317.8 287.1h12M317.8 293.4h12M317.8 293.4v-6.3M319.5 342.1H337M322.6 338.7H337M284.7 158h9.6M279 147.9h15.3M279 147.9h15.3M284.7 158h9.6M297.4 147.9v8.7M326.7 147.9v8.7M297.4 147.9v8.7M294.3 147.9h3.1M326.7 147.9v8.7M329.8 147.9h-3.1M294.3 158v-1.4M329.8 158v-1.4M294.3 147.9h3.1M329.8 147.9h-3.1M297.4 156.6h-3.1M326.7 156.6h3.1M294.3 212.7h-9.6M294.3 222.8H279M294.3 222.8H279M294.3 212.7h-9.6M326.7 222.8v-8.6M297.4 222.8v-8.6M326.7 222.8v-8.6M329.8 222.8h-3.1M297.4 222.8v-8.6M294.3 222.8h3.1M329.8 212.7v1.5M294.3 212.7v1.5M329.8 222.8h-3.1M294.3 222.8h3.1M326.7 214.2h3.1M297.4 214.2h-3.1M242 102.3V11.6M234.8 102.3V11.6M242 11.6h-7.2M234.8 102.3V11.6M242 102.3V11.6M250.4 331.3l-.5 7.4M253.8 331.5l-.8 10.6M253 298.2l-.4 6.9M256.4 298.4l-.5 7M253 298.2l3.4.2M253.8 331.5l-3.4-.2M253.8 331.5l-3.4-.2M252.6 305.1l3.3.3M252.6 305.1l3.3.3M320.2 305.1l-.7-6.9M316.6 305.4l-.4-7M319.5 298.2l-3.3.2M322.6 338.7l-.4-7.4M319.5 342.1l-.7-10.6M316.6 305.4l3.6-.3M316.6 305.4l3.6-.3M322.2 331.3l-3.4.2M322.2 331.3l-3.4.2M139.8 323.1h-18M139.8 327.4h-18M121.8 323.1v4.3M139.8 327.4h-18M139.8 323.1h-18M139.8 323.1v4.3M139.8 288.1h-18M139.8 292.9h-18M121.8 288.1v4.8M139.8 292.9h-18M139.8 288.1h-18M139.8 292.9v-4.8M141 102.3h-20.2M141 107.1h-20.2M120.8 102.3v4.8M141 107.1h-20.2M141 102.3h-20.2M63.7 102.3H33.2M63.7 107.1H33.2M33.2 102.3v4.8M63.7 107.1H33.2M63.7 102.3H33.2M63.7 102.3v4.8M256.4 298.4v-3.6M316.2 298.4v-5.5M255.7 306.6l-1.7 23.7-7.9-.5 1.9-24 7.7.8zM254 330.3l-.2 1.2M254.7 318.3l-7.7-.5M255.7 306.6l.2-1.2M324.6 305.8l1.9 24-7.7.5-1.9-24 7.7-.5zM318.8 330.3v1.2M317.8 318.3l7.7-.5M316.9 306.3l-.3-.9"/></g><g id="Mbel"><path class="cls-2" d="M55.8 175.3h22.8v51.1H55.8zM88.4 225v-12.8M79.9 225h8.5M88.4 212.2h-8.5M88.4 207.2v-12.7M79.9 207.2h8.5M88.4 194.5h-8.5M88.4 189.5v-12.7M79.9 189.5h8.5M88.4 176.8h-8.5M45.9 225v-12.8M54.4 225h-8.5M45.9 212.2h8.5M45.9 207.2v-12.7M54.4 207.2h-8.5M45.9 194.5h8.5M45.9 189.5v-12.7M54.4 189.5h-8.5M45.9 176.8h8.5M188 44h45.4v56.6H188zM69.9 272h14.2v28.3H69.9zM39.1 312.8h19.2l.1-.1.1-.1v-.1-.2V287.2v-.3c0-.1-.1-.2-.2-.3 0 0-.2-.1-.3-.2H39V313M35.4 317.3h22.9l.1-.1.1-.1v-.1-.2-3-.2-.2-.1l-.1-.1-.1-.1h-.1-.2-22.9c-.1 0-.2.1-.3.2 0 0-.1.2-.2.3V317c0 .1.1.2.2.3 0 0 .2.1.3.2h.3M39.1 286.1h-4c-.1 0-.2-.1-.3-.2 0 0-.1-.2-.2-.3v-25.2-.3c0-.1.1-.2.2-.3 0 0 .2-.1.3-.2h4M41.4 259.5v53.3"/><path class="cls-2" d="M39.1 259.5h19.2l.1.1.1.1v25.7c0 .1-.1.2-.2.3s-.2.1-.3.2H39v-26.6M35.4 254.9h22.9l.1.1.1.1V258.7c0 .1-.1.2-.2.3 0 0-.2.1-.3.2H35c-.1 0-.2-.1-.3-.2 0 0-.1-.2-.2-.3V255.6v-.3c0-.1.1-.2.2-.3 0 0 .2-.1.3-.2h.3M39.1 286.1h-3.7-.2-.2-.1l-.1.1-.1.1V312c0 .1.1.2.2.3 0 0 .2.1.3.2h4M96.3 18.1h50.9v15.6H96.3z"/></g><g id="Text"><path d="M53.1 147.1h-.7v-5.3h.7v2.5l2.1-2.5h.8l-2.2 2.6 2.2 2.7h-.9l-2-2.5v2.5zM60.1 145.3c0 1.1-.8 1.9-1.9 1.9s-1.9-.8-1.9-1.9.8-1.9 1.9-1.9 1.9.8 1.9 1.9zm-3.1 0c0 .8.5 1.4 1.3 1.4s1.2-.6 1.2-1.4-.5-1.4-1.2-1.4-1.3.6-1.3 1.4zM64.1 146.6c-.4.4-.8.5-1.4.5-1.1 0-1.8-.8-1.8-1.9s.8-1.9 1.8-1.9 1 .2 1.3.6l-.4.4c-.3-.3-.6-.4-.9-.4-.7 0-1.2.6-1.2 1.4s.5 1.4 1.2 1.4.6-.1.9-.4l.4.4zM65.7 143.9c.3-.4.7-.6 1.1-.6s.7.1.9.3c.2.2.3.5.3 1v2.5h-.6v-2.4c0-.5-.2-.8-.7-.8s-.5.1-.7.3c-.2.2-.2.4-.2.7v2.2h-.6v-5.3h.6v2.2zM69.6 145.5c0 .3 0 .5.2.7.2.3.6.5 1 .5s.9-.2 1.1-.6l.5.2c-.3.6-.9 1-1.6 1-1.1 0-1.9-.8-1.9-1.9s.8-1.9 1.9-1.9 1.9.8 1.9 1.9v.2h-3.1zm2.4-.4c0-.3 0-.4-.2-.6-.2-.3-.6-.5-1-.5s-.8.2-1 .5c-.1.2-.2.3-.2.6H72zM74.4 143.4v.5c.3-.4.6-.6 1.1-.6s.6.1.9.3c.2.2.3.5.3 1v2.5h-.6v-2.4c0-.3 0-.5-.1-.6-.1-.2-.3-.2-.6-.2s-.5.1-.7.3c-.2.2-.2.4-.2.7v2.2h-.6v-3.7h.6zM77.9 148.4h-.4l.7-2.1.6.2-.8 1.9zM83.1 144.1h2.1v.6h-2.1v1.8h2.1v.6h-2.8v-5.3h2.8v.6h-2.1v1.8zM88.1 144.4c0-.4-.3-.6-.7-.6s-.7.2-.7.5.2.4.8.6c.5.1.7.2.9.4.2.2.3.4.3.7 0 .6-.5 1.1-1.3 1.1s-1.3-.4-1.4-1.1h.6c0 .4.3.6.8.6s.7-.2.7-.5-.2-.5-.8-.6c-.8-.2-1.2-.6-1.2-1.1s.5-1.1 1.3-1.1 1.3.4 1.3 1.1h-.6zM91.6 144.4c0-.4-.3-.6-.7-.6s-.7.2-.7.5.2.4.8.6c.5.1.7.2.9.4.2.2.3.4.3.7 0 .6-.5 1.1-1.3 1.1s-1.3-.4-1.4-1.1h.6c0 .4.3.6.8.6s.7-.2.7-.5-.2-.5-.8-.6c-.8-.2-1.2-.6-1.2-1.1s.5-1.1 1.3-1.1 1.3.4 1.3 1.1h-.6zM93.8 145.5c0 .3 0 .5.2.7.2.3.6.5 1 .5s.9-.2 1.1-.6l.5.2c-.3.6-.9 1-1.6 1-1.1 0-1.9-.8-1.9-1.9s.8-1.9 1.9-1.9 1.9.8 1.9 1.9v.2h-3.1zm2.4-.4c0-.3 0-.4-.2-.6-.2-.3-.6-.5-1-.5s-.8.2-1 .5c-.1.2-.2.3-.2.6h2.4zM98.5 143.4v.5c.3-.4.6-.6 1.1-.6s.6.1.9.3c.2.2.3.5.3 1v2.5h-.6v-2.4c0-.3 0-.5-.1-.6-.1-.2-.3-.2-.6-.2s-.5.1-.7.3c-.2.2-.2.4-.2.7v2.2H98v-3.7h.6zM102.1 148.4h-.4l.7-2.1.6.2-.8 1.9zM57.9 150.8h.7l-1.6 5.3h-.6l-1.2-4.2-1.2 4.2h-.6l-1.6-5.3h.7l1.2 4.1 1.2-4.1h.6l1.1 4.1 1.2-4.1zM62.7 154.3c0 1.1-.8 1.9-1.9 1.9s-1.9-.8-1.9-1.9.8-1.9 1.9-1.9 1.9.8 1.9 1.9zm-3.1 0c0 .8.5 1.4 1.3 1.4s1.2-.6 1.2-1.4-.5-1.4-1.2-1.4-1.3.6-1.3 1.4zM64.4 152.9c.3-.4.7-.6 1.1-.6s.7.1.9.3c.2.2.3.5.3 1v2.5h-.6v-2.4c0-.5-.2-.8-.7-.8s-.5.1-.7.3c-.2.2-.2.4-.2.7v2.2h-.6v-5.3h.6v2.2zM68.6 152.4v.5c.3-.4.6-.6 1.1-.6s.6.1.9.3c.2.2.3.5.3 1v2.5h-.6v-2.4c0-.3 0-.5-.1-.6-.1-.2-.3-.2-.6-.2s-.5.1-.7.3c-.2.2-.2.4-.2.7v2.2h-.6v-3.7h.6zM72.6 154.5c0 .3 0 .5.2.7.2.3.6.5 1 .5s.9-.2 1.1-.6l.5.2c-.3.6-.9 1-1.6 1-1.1 0-1.9-.8-1.9-1.9s.8-1.9 1.9-1.9 1.9.8 1.9 1.9v.2h-3.1zm2.4-.4c0-.3 0-.4-.2-.6-.2-.3-.6-.5-1-.5s-.8.2-1 .5c-.1.2-.2.3-.2.6H75zM77.4 152.4v.5c.3-.4.6-.6 1.1-.6s.6.1.9.3c.2.2.3.5.3 1v2.5h-.6v-2.4c0-.3 0-.5-.1-.6-.1-.2-.3-.2-.6-.2s-.5.1-.7.3c-.2.2-.2.4-.2.7v2.2h-.6v-3.7h.6zM55.1 164.5v.6h-3l1.9-2.7c.5-.8.7-1 .7-1.3 0-.5-.4-.8-.9-.8s-.7.2-.8.4v.6h-.6c0-1 .6-1.6 1.5-1.6s1.5.5 1.5 1.3-.2.8-.6 1.5l-1.4 2h1.9zM59.1 162.6c.3.3.4.6.4 1 0 .9-.7 1.6-1.7 1.6s-1.6-.6-1.6-1.6.1-.8.4-1.1c.2-.2.3-.3.6-.4-.3 0-.4-.2-.5-.4-.2-.2-.3-.5-.3-.8 0-.8.6-1.3 1.5-1.3s1.4.6 1.4 1.3-.1.6-.3.8c-.1.2-.3.2-.5.3.3 0 .4.2.6.3zm-2.3 1c0 .6.5 1 1 1s1-.5 1-1-.5-1-1-1-1 .5-1 1zm.2-2.5c0 .5.4.8.8.8s.9-.4.9-.8-.4-.8-.8-.8-.9.3-.9.8zM61.4 164.8c0 .2-.2.4-.4.4s-.4-.2-.4-.4.2-.4.4-.4.4.2.4.4zM62.7 160.4v-.6h3l-1.6 2c.9 0 1.6.7 1.6 1.6s-.8 1.7-1.8 1.7-1.4-.5-1.6-1.3h.6c.1.4.5.7 1 .7s1.2-.5 1.2-1.1-.5-1.1-1.2-1.1-.4 0-.6.2l-.3-.2 1.5-1.9h-1.9zM69.1 161.4v.5c.3-.4.6-.6 1-.6s.8.2 1 .7c.3-.5.6-.7 1.2-.7s.7.1.9.4c.2.2.2.4.2 1v2.4h-.6v-2.2c0-.4 0-.6-.1-.7-.1-.2-.4-.3-.6-.3-.5 0-.8.4-.8 1v2.2h-.6v-2.2c0-.4 0-.5-.1-.7-.1-.2-.3-.3-.6-.3-.5 0-.9.4-.9 1v2.2h-.6v-3.7h.6zM76.7 162.6v.4h-2l1.2-1.6c.3-.5.4-.6.4-.8 0-.3-.2-.4-.5-.4s-.5.2-.5.6h-.4c0-.6.4-1 1-1s1 .3 1 .8-.1.5-.4.9l-.8 1.1h1.1z"/><g><path d="M63.3 397c0 .6.4.9.9.9s1-.4 1-.9-.2-.7-1.1-1c-.6-.2-.8-.3-1.1-.5-.3-.2-.4-.6-.4-1 0-.9.6-1.5 1.6-1.5s1.6.6 1.6 1.5h-.7c0-.3 0-.4-.1-.6-.2-.2-.4-.4-.8-.4-.5 0-.9.4-.9.9s.1.5.3.6c.2.1.3.2.9.4.6.2.8.3 1.1.6.2.2.4.6.4.9 0 .9-.7 1.5-1.7 1.5s-1.1-.2-1.4-.7c-.1-.2-.2-.4-.2-.7h.6zM67.8 393.7c0 .2-.2.4-.4.4s-.4-.2-.4-.4.2-.4.4-.4.4.2.4.4zm0 4.7h-.6v-3.7h.6v3.7zM69.8 397.7c0 .2 0 .2.3.2h.3v.5h-.6c-.4 0-.6-.2-.6-.6v-2.6h-.5v-.5h.5v-1.2h.6v1.2h.6v.5h-.6v2.4zM73.8 397.9v.5h-2.7l1.9-3.2h-1.7v-.5H74l-1.9 3.2h1.7zM75.5 394.7v.7c.4-.5.7-.8 1.3-.8 1 0 1.7.8 1.7 1.9s-.7 2-1.7 2-.6 0-.8-.2c-.2-.1-.3-.2-.5-.5v2.3h-.6v-5.4h.6zm0 1.9c0 .8.5 1.3 1.2 1.3s1.2-.6 1.2-1.4-.1-.8-.3-1c-.2-.2-.5-.4-.9-.4-.7 0-1.2.6-1.2 1.4zM79.7 398.4v-5.3h.6v5.3h-.6zM84.5 394.7h.6v3.7h-.6v-.7c-.4.6-.8.8-1.3.8-1 0-1.7-.8-1.7-1.9s.7-1.9 1.8-1.9 1 .2 1.3.7v-.6zm-2.1.9c-.2.3-.3.6-.3 1 0 .8.5 1.4 1.2 1.4s1.3-.6 1.3-1.4-.5-1.4-1.2-1.4-.7.1-.9.4zM87.1 397.7c0 .2 0 .2.3.2h.3v.5h-.6c-.4 0-.6-.2-.6-.6v-2.6H86v-.5h.5v-1.2h.6v1.2h.6v.5h-.6v2.4zM91.1 397.9v.5h-2.7l1.9-3.2h-1.7v-.5h2.7l-1.9 3.2h1.7zM64.8 405.3c-.2 0-.3.1-.5.1-.9 0-1.6-.7-1.6-1.6s.8-1.7 1.7-1.7 1.7.7 1.7 1.7-.1.7-.4 1.2l-1.5 2.5h-.7l1.3-2.1zm-1.5-1.5c0 .6.5 1.1 1.1 1.1s1.1-.5 1.1-1.1-.5-1.1-1-1.1-1.1.5-1.1 1.1zM67.4 407.1c0 .2-.2.4-.4.4s-.4-.2-.4-.4.2-.4.4-.4.4.2.4.4zM71.7 405.8c0 .6-.1 1-.4 1.2-.3.3-.7.4-1.2.4s-1-.2-1.2-.5c-.3-.3-.4-.6-.4-1.4v-1.8c0-.7 0-1 .3-1.3.3-.3.7-.5 1.2-.5s.9.1 1.2.4c.3.3.4.6.4 1.2v2.1zm-2.5-.1c0 .6 0 .7.2.9.2.2.5.3.8.3s.6-.1.8-.4c.1-.2.2-.4.2-.8v-2c0-.4 0-.6-.3-.8-.2-.2-.4-.2-.7-.2s-.6.1-.8.4c-.1.2-.2.4-.2.8v1.8zM75 403.7v.5c.3-.4.6-.6 1-.6s.8.2 1 .7c.3-.5.6-.7 1.2-.7s.7.1.9.4c.2.2.2.4.2 1v2.4h-.6v-2.2c0-.4 0-.6-.1-.7-.1-.2-.4-.3-.6-.3-.5 0-.8.4-.8 1v2.2h-.6v-2.2c0-.4 0-.5-.1-.7-.1-.2-.3-.3-.6-.3-.5 0-.9.4-.9 1v2.2h-.6v-3.7h.6zM82.6 404.9v.4h-2l1.2-1.6c.3-.5.4-.6.4-.8 0-.3-.2-.4-.5-.4s-.5.2-.5.6h-.4c0-.6.4-1 1-1s1 .3 1 .8-.1.5-.4.9l-.8 1.1h1.1z"/></g><g><path d="M136.8 60.9v.6H133l3-4.8h-2.7v-.6h3.8l-3 4.8h2.7zM138.6 56.8c0 .2-.2.4-.4.4s-.4-.2-.4-.4.2-.4.4-.4.4.2.4.4zm0 4.7h-.6v-3.7h.6v3.7zM140.5 57.8v.5c.3-.4.6-.6 1-.6s.8.2 1 .7c.3-.5.6-.7 1.2-.7s.7.1.9.4c.2.2.2.4.2 1v2.4h-.6v-2.2c0-.4 0-.6-.1-.7-.1-.2-.4-.3-.6-.3-.5 0-.8.4-.8 1v2.2h-.6v-2.2c0-.4 0-.5-.1-.7-.1-.2-.3-.3-.6-.3-.5 0-.9.4-.9 1v2.2h-.6v-3.7h.6zM146.8 57.8v.5c.3-.4.6-.6 1-.6s.8.2 1 .7c.3-.5.6-.7 1.2-.7s.7.1.9.4c.2.2.2.4.2 1v2.4h-.6v-2.2c0-.4 0-.6-.1-.7-.1-.2-.4-.3-.6-.3-.5 0-.8.4-.8 1v2.2h-.6v-2.2c0-.4 0-.5-.1-.7-.1-.2-.3-.3-.6-.3-.5 0-.9.4-.9 1v2.2h-.6v-3.7h.6zM152.9 59.9c0 .3 0 .5.2.7.2.3.6.5 1 .5s.9-.2 1.1-.6l.5.2c-.3.6-.9 1-1.6 1-1.1 0-1.9-.8-1.9-1.9s.8-1.9 1.9-1.9 1.9.8 1.9 1.9v.2h-3.1zm2.4-.4c0-.3 0-.4-.2-.6-.2-.3-.6-.5-1-.5s-.8.2-1 .5c-.1.2-.2.3-.2.6h2.4zM157.7 57.8v.6c.1-.3.2-.4.3-.5.2-.1.4-.2.7-.2h.1v.6h-.2c-.3 0-.6.2-.8.4-.2.2-.2.4-.2.9v1.9h-.6v-3.7h.6zM133.8 66.9v-.6l1.8-1.2v5.4h-.6v-4.4l-1.2.8zM139.8 65.8h-1.7v1.4c.3-.1.5-.2.8-.2.9 0 1.6.7 1.6 1.7s-.8 1.8-1.8 1.8-1.3-.4-1.6-1.1l.6-.2c.1.2.2.3.3.4.2.2.5.3.8.3.6 0 1.1-.5 1.1-1.2s-.5-1.1-1.2-1.1-.8.2-1.2.5v-3h2.3v.6zM142.3 70.2c0 .2-.2.4-.4.4s-.4-.2-.4-.4.2-.4.4-.4.4.2.4.4zM143.3 66.9v-.6l1.8-1.2v5.4h-.6v-4.4l-1.2.8zM149.3 66.8v.5c.3-.4.6-.6 1-.6s.8.2 1 .7c.3-.5.6-.7 1.2-.7s.7.1.9.4c.2.2.2.4.2 1v2.4h-.6v-2.2c0-.4 0-.6-.1-.7-.1-.2-.4-.3-.6-.3-.5 0-.8.4-.8 1v2.2h-.6v-2.2c0-.4 0-.5-.1-.7-.1-.2-.3-.3-.6-.3-.5 0-.9.4-.9 1v2.2h-.6v-3.7h.6zM156.9 68v.4h-2l1.2-1.6c.3-.5.4-.6.4-.8 0-.3-.2-.4-.5-.4s-.5.2-.5.6h-.4c0-.6.4-1 1-1s1 .3 1 .8-.1.5-.4.9l-.8 1.1h1.1z"/></g><g><path d="M55.4 28.6h1.4c1.6 0 2.6 1 2.6 2.6s-.3 1.6-.8 2.1c-.5.4-1.1.6-1.9.6h-1.3v-5.3zm.7 4.8h.2c.9 0 1.3 0 1.7-.4.5-.4.7-1 .7-1.8 0-1.3-.7-2-1.9-2h-.7v4.2zM63.3 30.3v2.4c0 .5 0 .8-.4 1-.3.2-.6.4-1.1.4s-.8-.1-1.1-.4c-.2-.2-.4-.6-.4-1v-2.4h.6v2.3c0 .5.3.9.8.9s.5-.1.7-.3c.1-.1.2-.3.2-.6v-2.4h.6zM66.4 31.3c0-.4-.3-.6-.7-.6s-.7.2-.7.5.2.4.8.6c.5.1.7.2.9.4.2.2.3.4.3.7 0 .6-.5 1.1-1.3 1.1s-1.3-.4-1.4-1.1h.6c0 .4.3.6.8.6s.7-.2.7-.5-.2-.5-.8-.6c-.8-.2-1.2-.6-1.2-1.1s.5-1.1 1.3-1.1 1.3.4 1.3 1.1h-.6zM71 33.5c-.4.4-.8.5-1.4.5-1.1 0-1.8-.8-1.8-1.9s.8-1.9 1.8-1.9 1 .2 1.3.6l-.4.4c-.3-.3-.6-.4-.9-.4-.7 0-1.2.6-1.2 1.4s.5 1.4 1.2 1.4.6-.1.9-.4l.4.4zM72.6 30.8c.3-.4.7-.6 1.1-.6s.7.1.9.3c.2.2.3.5.3 1V34h-.6v-2.4c0-.5-.2-.8-.7-.8s-.5.1-.7.3c-.2.2-.2.4-.2.7V34h-.6v-5.3h.6v2.2zM76.6 32.3c0 .3 0 .5.2.7.2.3.6.5 1 .5s.9-.2 1.1-.6l.5.2c-.3.6-.9 1-1.6 1-1.1 0-1.9-.8-1.9-1.9s.8-1.9 1.9-1.9 1.9.8 1.9 1.9v.2h-3.1zm2.4-.4c0-.3 0-.4-.2-.6-.2-.3-.6-.5-1-.5s-.8.2-1 .5c-.1.2-.2.3-.2.6H79zM57.7 38.2H56v1.4c.3-.1.5-.2.8-.2.9 0 1.6.7 1.6 1.7s-.8 1.8-1.8 1.8-1.3-.4-1.6-1.1l.6-.2c.1.2.2.3.3.4.2.2.5.3.8.3.6 0 1.1-.5 1.1-1.2s-.5-1.1-1.2-1.1-.8.2-1.2.5v-3h2.3v.6zM60.2 42.6c0 .2-.2.4-.4.4s-.4-.2-.4-.4.2-.4.4-.4.4.2.4.4zM64.5 41.4c0 .6-.1 1-.4 1.2-.3.3-.7.4-1.2.4s-1-.2-1.2-.5c-.3-.3-.4-.6-.4-1.4v-1.8c0-.7 0-1 .3-1.3.3-.3.7-.5 1.2-.5s.9.1 1.2.4c.3.3.4.6.4 1.2v2.1zm-2.5-.1c0 .6 0 .7.2.9.2.2.5.3.8.3s.6-.1.8-.4c.1-.2.2-.4.2-.8v-2c0-.4 0-.6-.3-.8-.2-.2-.4-.2-.7-.2s-.6.1-.8.4c-.1.2-.2.4-.2.8v1.8zM67.9 39.3v.5c.3-.4.6-.6 1-.6s.8.2 1 .7c.3-.5.6-.7 1.2-.7s.7.1.9.4c.2.2.2.4.2 1V43h-.6v-2.2c0-.4 0-.6-.1-.7-.1-.2-.4-.3-.6-.3-.5 0-.8.4-.8 1V43h-.6v-2.2c0-.4 0-.5-.1-.7-.1-.2-.3-.3-.6-.3-.5 0-.9.4-.9 1V43h-.6v-3.7h.6zM75.4 40.5v.4h-2l1.2-1.6c.3-.5.4-.6.4-.8 0-.3-.2-.4-.5-.4s-.5.2-.5.6h-.4c0-.6.4-1 1-1s1 .3 1 .8-.1.5-.4.9l-.8 1.1h1.1z"/></g><g><path d="M310.2 187.1v.6h-2.5v-5.3h.7v4.7h1.9zM311.8 182.9c0 .2-.2.4-.4.4s-.4-.2-.4-.4.2-.4.4-.4.4.2.4.4zm0 4.7h-.6v-3.7h.6v3.7zM313.8 187.7h-.6v-3.2h-.5v-.5h.5v-.5c0-.7.4-1.2 1-1.2h.2v.5c-.4 0-.6.2-.6.6v.5h.6v.5h-.6v3.2zM316.2 186.9c0 .2 0 .2.3.2h.3v.5h-.6c-.4 0-.6-.2-.6-.6v-2.6h-.5v-.5h.5v-1.2h.6v1.2h.6v.5h-.6v2.4z"/></g><g><path d="M273.2 253.5h2.1v.6h-2.1v1.8h2.1v.6h-2.8v-5.3h2.8v.6h-2.1v1.8zM277.2 251.8c0 .2-.2.4-.4.4s-.4-.2-.4-.4.2-.4.4-.4.4.2.4.4zm0 4.7h-.6v-3.7h.6v3.7zM279.1 252.8v.5c.3-.4.6-.6 1.1-.6s.6.1.9.3c.2.2.3.5.3 1v2.5h-.6v-2.4c0-.3 0-.5-.1-.6-.1-.2-.3-.2-.6-.2s-.5.1-.7.3c-.2.2-.2.4-.2.7v2.2h-.6v-3.7h.6zM285.5 252.8h.6v3.7c0 .6-.2 1-.5 1.4-.3.3-.8.5-1.4.5s-1.2-.2-1.6-.7l.4-.4c.2.2.2.2.4.3.2.1.6.2.9.2s.8-.1 1-.4c.2-.2.3-.5.3-.9v-.8c-.4.5-.8.8-1.4.8-1 0-1.7-.8-1.7-1.9s.2-1.2.6-1.5c.3-.3.7-.4 1.2-.4s.9.2 1.3.7v-.6zm-2.4 1.8c0 .8.5 1.4 1.2 1.4s.7-.2.9-.4c.2-.2.3-.5.3-.9s0-.7-.3-1c-.2-.2-.6-.4-.9-.4-.7 0-1.2.6-1.2 1.4zM290.3 252.8h.6v3.7h-.6v-.7c-.4.6-.8.8-1.3.8-1 0-1.7-.8-1.7-1.9s.7-1.9 1.8-1.9 1 .2 1.3.7v-.6zm-2.1.9c-.2.3-.3.6-.3 1 0 .8.5 1.4 1.2 1.4s1.3-.6 1.3-1.4-.5-1.4-1.2-1.4-.7.1-.9.4zM292.8 252.8v.5c.3-.4.6-.6 1.1-.6s.6.1.9.3c.2.2.3.5.3 1v2.5h-.6v-2.4c0-.3 0-.5-.1-.6-.1-.2-.3-.2-.6-.2s-.5.1-.7.3c-.2.2-.2.4-.2.7v2.2h-.6v-3.7h.6zM299.2 252.8h.6v3.7c0 .6-.2 1-.5 1.4-.3.3-.8.5-1.4.5s-1.2-.2-1.6-.7l.4-.4c.2.2.2.2.4.3.2.1.6.2.9.2s.8-.1 1-.4c.2-.2.3-.5.3-.9v-.8c-.4.5-.8.8-1.4.8-1 0-1.7-.8-1.7-1.9s.2-1.2.6-1.5c.3-.3.7-.4 1.2-.4s.9.2 1.3.7v-.6zm-2.4 1.8c0 .8.5 1.4 1.2 1.4s.7-.2.9-.4c.2-.2.3-.5.3-.9s0-.7-.3-1c-.2-.2-.6-.4-.9-.4-.7 0-1.2.6-1.2 1.4z"/></g></g></svg>