<svg xmlns="http://www.w3.org/2000/svg" viewBox="0 0 311.7 384.9"><defs><style>.cls-1,.cls-10,.cls-11,.cls-12,.cls-13,.cls-14,.cls-15,.cls-16,.cls-2,.cls-3,.cls-4,.cls-5,.cls-6,.cls-7,.cls-8,.cls-9{fill:none;stroke-linecap:round;stroke-linejoin:round}.cls-1,.cls-10,.cls-11,.cls-12,.cls-13,.cls-15,.cls-16,.cls-2,.cls-3,.cls-4,.cls-6,.cls-7,.cls-8,.cls-9{stroke-width:.1px}.cls-1,.cls-10,.cls-13,.cls-14,.cls-15,.cls-3,.cls-6{stroke:#194164}.cls-1,.cls-6{stroke-dasharray:0 0 0 0 2.9 1.4 .2 1.4}.cls-2{stroke:#646464}.cls-3{stroke-dashoffset:1px}.cls-10,.cls-11,.cls-15,.cls-16,.cls-3,.cls-4,.cls-7,.cls-8,.cls-9{stroke-dasharray:0 0 1.4 1.4}.cls-17,.cls-18{fill:#fff}.cls-11,.cls-12,.cls-16,.cls-4,.cls-7,.cls-8,.cls-9{stroke:#969696}.cls-5{stroke:#000;stroke-width:.3px}.cls-6{stroke-dashoffset:1.9px}.cls-7{stroke-dashoffset:2.7px}.cls-8{stroke-dashoffset:2.5px}.cls-15,.cls-9{stroke-dashoffset:.7px}.cls-18,.cls-19{fill-rule:evenodd}.cls-10{stroke-dashoffset:.2px}.cls-11{stroke-dashoffset:1px}.cls-14{stroke-width:.3px}.cls-16{stroke-dashoffset:1.2px}</style></defs><g id="Plan"><path class="cls-13" d="M8.7 156.6h35.5M27 159.7H13M39.7 162.6H26"/><path class="cls-12" d="M220.6 334.9h59.3v3.4h-59.3z"/><path class="cls-13" d="M190.9 176.2h-34.1M190.9 168.8h-34.1M190.9 161.1h-34.1M190.9 153.4h-34.1M58.6 153.4h34.1M58.6 161.1h34.1M58.6 168.8h34.1M58.6 176.2h34.1M117.2 215.6l-8.2-35.5M92.7 148.2h64.1v33.4H92.7zM75.7 176.3l3.8-3.8h-7.7l3.9 3.8zM151.5 181.5v34.1M143.8 181.5v34.1M136.2 181.5v34.1M128.5 181.5v34.1M121 181.5v34.1M113.4 181.5v34.1M105.7 181.5v34.1M98 181.5v34.1"/><path class="cls-13" d="M94.2 149.6h61.2v30.5H94.2zM151.5 198.6l-3.9 3.8v-7.7l3.9 3.9zM113.3 198.6l-3.8 3.8v-7.7l3.8 3.9zM173.8 153.4L170 157h7.7l-3.9-3.6z"/><path class="cls-18" d="M61.5 213v-65.1h-1.4v66.3h129.3v-66.3H188V213H61.5"/><path class="cls-13" d="M61.5 213v-65.1h-1.4v66.3h129.3v-66.3H188V213H61.5z"/><path class="cls-18" d="M190.9 215.6l6.9 7.2H58.6v-7.2h132.3"/><path class="cls-12" d="M58.4 215.8l.2-.2M58.4 219.7l4.3-4.1M59.6 222.8l7.2-7.2M63.4 222.8l7.2-7.2M67.5 222.8l7.2-7.2M71.6 222.8l7.2-7.2M75.4 222.8l7.2-7.2M79.5 222.8l7.2-7.2M83.6 222.8l7.2-7.2M87.4 222.8l7.2-7.2M91.5 222.8l7.2-7.2M95.6 222.8l7.2-7.2M99.7 222.8l7.2-7.2M103.5 222.8l7.2-7.2M107.6 222.8l7.2-7.2M111.7 222.8l7.2-7.2M115.5 222.8l7.2-7.2M119.6 222.8l7.2-7.2M123.7 222.8l7.2-7.2M127.5 222.8l7.2-7.2M131.6 222.8l7.2-7.2M135.7 222.8l7.2-7.2M139.8 222.8l7.2-7.2M143.6 222.8l7.2-7.2M147.7 222.8l7.2-7.2M151.8 222.8l7.2-7.2M155.6 222.8l7.2-7.2M159.7 222.8l7.2-7.2M163.8 222.8l7.2-7.2M167.8 222.8l7.2-7.2M171.7 222.8l7.2-7.2M175.8 222.8l7.2-7.2M179.8 222.8l7.2-7.2M183.7 222.8l7.2-7.2M187.8 222.8l5-5M191.8 222.8l2.9-3.1M195.7 222.8l1.2-1M58.6 222.8l-.2-.2M62.7 222.8l-4.3-4.3M66.8 222.8l-7.2-7.2M70.9 222.8l-7.2-7.2M74.7 222.8l-7.2-7.2M78.8 222.8l-7.2-7.2M82.9 222.8l-7.2-7.2M86.7 222.8l-7.2-7.2M90.8 222.8l-7.2-7.2M94.9 222.8l-7.2-7.2M98.7 222.8l-7.2-7.2M102.8 222.8l-7.2-7.2M106.9 222.8l-7.2-7.2M111 222.8l-7.2-7.2M114.8 222.8l-7.2-7.2M118.9 222.8l-7.2-7.2M123 222.8l-7.2-7.2M126.8 222.8l-7.2-7.2M130.9 222.8l-7.2-7.2M135 222.8l-7.2-7.2M139 222.8l-7.2-7.2M142.9 222.8l-7.2-7.2M147 222.8l-7.2-7.2M151 222.8l-7.2-7.2M154.9 222.8l-7.2-7.2M159 222.8l-7.2-7.2M163 222.8l-7.2-7.2M166.9 222.8l-7.2-7.2M171 222.8l-7.2-7.2M175 222.8l-7.2-7.2M179.1 222.8l-7.2-7.2M183 222.8l-7.2-7.2M187 222.8l-7.2-7.2M191.1 222.8l-7.2-7.2M195 222.8l-7.2-7.2"/><path class="cls-18" d="M190.9 215.6l6.9 7.2H58.6v-7.2h132.3"/><path class="cls-12" d="M58.4 215.8l.2-.2M58.4 219.7l4.3-4.1M59.6 222.8l7.2-7.2M63.4 222.8l7.2-7.2M67.5 222.8l7.2-7.2M71.6 222.8l7.2-7.2M75.4 222.8l7.2-7.2M79.5 222.8l7.2-7.2M83.6 222.8l7.2-7.2M87.4 222.8l7.2-7.2M91.5 222.8l7.2-7.2M95.6 222.8l7.2-7.2M99.7 222.8l7.2-7.2M103.5 222.8l7.2-7.2M107.6 222.8l7.2-7.2M111.7 222.8l7.2-7.2M115.5 222.8l7.2-7.2M119.6 222.8l7.2-7.2M123.7 222.8l7.2-7.2M127.5 222.8l7.2-7.2M131.6 222.8l7.2-7.2M135.7 222.8l7.2-7.2M139.8 222.8l7.2-7.2M143.6 222.8l7.2-7.2M147.7 222.8l7.2-7.2M151.8 222.8l7.2-7.2M155.6 222.8l7.2-7.2M159.7 222.8l7.2-7.2M163.8 222.8l7.2-7.2M167.8 222.8l7.2-7.2M171.7 222.8l7.2-7.2M175.8 222.8l7.2-7.2M179.8 222.8l7.2-7.2M183.7 222.8l7.2-7.2M187.8 222.8l5-5M191.8 222.8l2.9-3.1M195.7 222.8l1.2-1M58.6 222.8l-.2-.2M62.7 222.8l-4.3-4.3M66.8 222.8l-7.2-7.2M70.9 222.8l-7.2-7.2M74.7 222.8l-7.2-7.2M78.8 222.8l-7.2-7.2M82.9 222.8l-7.2-7.2M86.7 222.8l-7.2-7.2M90.8 222.8l-7.2-7.2M94.9 222.8l-7.2-7.2M98.7 222.8l-7.2-7.2M102.8 222.8l-7.2-7.2M106.9 222.8l-7.2-7.2M111 222.8l-7.2-7.2M114.8 222.8l-7.2-7.2M118.9 222.8l-7.2-7.2M123 222.8l-7.2-7.2M126.8 222.8l-7.2-7.2M130.9 222.8l-7.2-7.2M135 222.8l-7.2-7.2M139 222.8l-7.2-7.2M142.9 222.8l-7.2-7.2M147 222.8l-7.2-7.2M151 222.8l-7.2-7.2M154.9 222.8l-7.2-7.2M159 222.8l-7.2-7.2M163 222.8l-7.2-7.2M166.9 222.8l-7.2-7.2M171 222.8l-7.2-7.2M175 222.8l-7.2-7.2M179.1 222.8l-7.2-7.2M183 222.8l-7.2-7.2M187 222.8l-7.2-7.2M191.1 222.8l-7.2-7.2M195 222.8l-7.2-7.2"/><path class="cls-18" d="M242.7 107.1h5.1V16.6h-5.1v90.5"/><path class="cls-12" d="M247.5 20.5l-3.8-3.9M247.5 24.8l-5-5M247.5 29.1l-5-5M247.5 33.2l-5-5M247.5 37.5l-5-5M247.5 41.8l-5-5M247.5 45.9l-5-5M247.5 50.2l-5-5M247.5 54.6l-5-5.1M247.5 58.9l-5-5.1M247.5 63l-5-5.1M247.5 67.3l-5-5.1M247.5 71.6l-5-5M247.5 75.7l-5-5.1M247.5 80l-5-5M247.5 84.3l-5-5M247.5 88.6l-5-5M247.5 92.7l-5-5M247.5 97l-5-5M247.5 101.4l-5-5.1M247.5 105.4l-5-5M244.9 107.1l-2.4-2.4"/><path class="cls-18" d="M247.8 107.1h-5.1V16.6h5.1v90.5"/><path class="cls-12" d="M247.5 20.5l-3.8-3.9M247.5 24.8l-5-5M247.5 29.1l-5-5M247.5 33.2l-5-5M247.5 37.5l-5-5M247.5 41.8l-5-5M247.5 45.9l-5-5M247.5 50.2l-5-5M247.5 54.6l-5-5.1M247.5 58.9l-5-5.1M247.5 63l-5-5.1M247.5 67.3l-5-5.1M247.5 71.6l-5-5M247.5 75.7l-5-5.1M247.5 80l-5-5M247.5 84.3l-5-5M247.5 88.6l-5-5M247.5 92.7l-5-5M247.5 97l-5-5M247.5 101.4l-5-5.1M247.5 105.4l-5-5M244.9 107.1l-2.4-2.4"/><path class="cls-13" d="M248.2 100.2h26.2v1.2h-26.2zM249.7 98.7h.7v1.4h-.7zM249.7 101.4h.7v1.4h-.7zM254.2 95.1h9.9M260.7 97.3l3.4-2.2-3.4-1.9"/><path class="cls-15" d="M270.1 100.2H296"/><path class="cls-13" d="M296 100.2v.7"/><path class="cls-15" d="M296 101.4h-25.9"/><path class="cls-13" d="M270.1 101.4v-.8M271.3 98.7v1.5M272 99.4v-.7M272 98.7h-.7M272 102.8v-1.4M271.3 102.1v.7M271.3 102.8h.7"/><path class="cls-1" d="M273.9 102.3h-26.1M247.8 107.1h26.1"/><path class="cls-13" d="M216.3 100.2h25.9v1.2h-25.9zM240.3 98.7h.7v1.4h-.7zM240.3 101.4h.7v1.4h-.7zM236.5 95.1h-10.1M230 93.2l-3.6 1.9 3.6 2.2"/><path class="cls-15" d="M220.6 100.2h-25.9"/><path class="cls-13" d="M194.7 100.2v.7"/><path class="cls-15" d="M194.7 101.4h25.9"/><path class="cls-13" d="M220.6 101.4v-.8M219.2 98.7v1.5M218.5 99.4v-.7M218.5 98.7h.7M218.5 102.8v-1.4M219.2 102.1v.7M219.2 102.8h-.7"/><path class="cls-1" d="M216.8 102.3h25.9M242.7 107.1h-25.9"/><path class="cls-18" d="M216.8 107.1h-19v-4.8h19v4.8"/><path class="cls-12" d="M216.6 104.2l-2-1.9M215.1 107.1l-4.8-4.8M211 107.1l-4.8-4.8M206.7 107.1l-4.8-4.8M202.4 107.1l-4.8-4.8M198.3 107.1l-.7-.5"/><path class="cls-18" d="M216.8 107.1h-19v-4.8h19v4.8"/><path class="cls-12" d="M216.6 104.2l-2-1.9M215.1 107.1l-4.8-4.8M211 107.1l-4.8-4.8M206.7 107.1l-4.8-4.8M202.4 107.1l-4.8-4.8M198.3 107.1l-.7-.5"/><path class="cls-18" d="M273.9 102.3v4.8h30.5v-4.8h-30.5"/><path class="cls-12" d="M304.2 102.6l-.3-.3M304.2 106.9l-4.6-4.6M300.3 107.1l-4.8-4.8M296 107.1l-4.8-4.8M291.7 107.1l-4.8-4.8M287.4 107.1l-4.8-4.8M283.3 107.1l-4.8-4.8M279 107.1l-4.8-4.8M274.6 107.1l-.9-.9"/><path class="cls-18" d="M273.9 107.1v-4.8h30.5v4.8h-30.5"/><path class="cls-12" d="M304.2 102.6l-.3-.3M304.2 106.9l-4.6-4.6M300.3 107.1l-4.8-4.8M296 107.1l-4.8-4.8M291.7 107.1l-4.8-4.8M287.4 107.1l-4.8-4.8M283.3 107.1l-4.8-4.8M279 107.1l-4.8-4.8M274.6 107.1l-.9-.9"/><path class="cls-13" d="M206.2 166.9h17.5v67.9h-17.5z"/><path class="cls-17" d="M207.7 176h14.6v15.8h-14.6z"/><path class="cls-13" d="M207.7 176h14.6v15.8h-14.6z"/><path class="cls-18" d="M214.6 187.9c0-1.5 1.3-2.8 2.9-2.8s2.9 1.2 2.9 2.8-1.3 2.8-2.9 2.8-2.9-1.2-2.9-2.8"/><path class="cls-13" d="M214.6 187.9c0-1.5 1.3-2.8 2.9-2.8s2.9 1.2 2.9 2.8-1.3 2.8-2.9 2.8-2.9-1.2-2.9-2.8"/><path class="cls-18" d="M208.6 188.8c0-1.3 1-2.3 2.2-2.3s2.2 1 2.2 2.3-1 2.3-2.2 2.3-2.2-1-2.2-2.3"/><path class="cls-13" d="M208.6 188.8c0-1.3 1-2.3 2.2-2.3s2.2 1 2.2 2.3-1 2.3-2.2 2.3-2.2-1-2.2-2.3"/><path class="cls-18" d="M215.4 180.3c0-1.2 1-2.2 2.2-2.2s2.2 1 2.2 2.2-1 2.2-2.2 2.2-2.2-1-2.2-2.2"/><path class="cls-13" d="M215.4 180.3c0-1.2 1-2.2 2.2-2.2s2.2 1 2.2 2.2-1 2.2-2.2 2.2-2.2-1-2.2-2.2"/><path class="cls-18" d="M208.4 180.6c0-1.6 1.2-2.9 2.8-2.9s2.8 1.3 2.8 2.9-1.2 2.9-2.8 2.9-2.8-1.3-2.8-2.9"/><path class="cls-13" d="M208.4 180.6c0-1.6 1.2-2.9 2.8-2.9s2.8 1.3 2.8 2.9-1.2 2.9-2.8 2.9-2.8-1.3-2.8-2.9M221.4 175.3h2.4M221.4 192.3h2.4M221.4 209.4h2.4M221.4 234.1h2.4M199.8 234.8h16.6v.5h-16.6zM215.8 235.3h.5v17h-.5z"/><path class="cls-13" d="M200.5 251.8h15.4v.5h-15.4zM200.5 235.3h15.4v.5h-15.4zM199.8 235.3h.7v17h-.7z"/><path class="cls-18" d="M211.4 225.5h9.3c.1 0 .3 0 .4-.1s.2-.1.3-.2c.1 0 .2-.2.3-.2 0 0 .2-.2.2-.3 0-.1.1-.2.2-.3 0-.1 0-.2.1-.4v-11.6c0-.3 0-.5-.2-.8 0-.2-.2-.5-.4-.6-.2-.2-.4-.3-.6-.4-.2 0-.5-.2-.8-.2h-8.9c-.3 0-.5 0-.8.2-.2.1-.5.2-.6.4-.2.2-.3.4-.4.6-.1.2-.2.5-.2.8V224c0 .1 0 .3.1.4 0 .1.1.2.2.3 0 .1.2.2.2.3s.2.2.3.2c.1 0 .2.1.3.2s.2 0 .4.1h.4"/><path class="cls-13" d="M211.4 225.5h9.3c.1 0 .3 0 .4-.1s.2-.1.3-.2c.1 0 .2-.2.3-.2 0 0 .2-.2.2-.3 0-.1.1-.2.2-.3 0-.1 0-.2.1-.4v-11.6c0-.3 0-.5-.2-.8 0-.2-.2-.5-.4-.6-.2-.2-.4-.3-.6-.4-.2 0-.5-.2-.8-.2h-8.9c-.3 0-.5 0-.8.2-.2.1-.5.2-.6.4-.2.2-.3.4-.4.6-.1.2-.2.5-.2.8V224c0 .1 0 .3.1.4 0 .1.1.2.2.3 0 .1.2.2.2.3s.2.2.3.2c.1 0 .2.1.3.2s.2 0 .4.1h.4"/><path class="cls-18" d="M211.5 217.9c0-.6.5-1.1 1.1-1.1s1.1.5 1.1 1.1-.5 1.1-1.1 1.1-1.1-.5-1.1-1.1"/><path class="cls-13" d="M211.5 217.9c0-.6.5-1.1 1.1-1.1s1.1.5 1.1 1.1-.5 1.1-1.1 1.1-1.1-.5-1.1-1.1M221.4 167.6h2.4M199.8 166.4h16.6v.5h-16.6zM215.8 149.4h.5v17h-.5z"/><path class="cls-13" d="M200.5 149.4h15.4v.7h-15.4zM200.5 165.9h15.4v.5h-15.4zM215.8 148.4h.5v1h-.5zM199.8 149.4h.7v17h-.7zM197.8 233.8h7.7"/><path class="cls-5" d="M197.8 234.6h8.4"/><path class="cls-13" d="M197.8 232.4h6.3M197.8 233.8h7.7M197.8 234.6h8.4M197.8 232.4h6.3"/><path class="cls-5" d="M197.8 233.8v.8"/><path class="cls-13" d="M197.8 232.4v1.4M205.5 233.8v-65.7"/><path class="cls-5" d="M206.2 234.6v-67.2"/><path class="cls-13" d="M204.1 232.4v-62.9M205.5 233.8v-65.7M206.2 234.6v-67.2M204.1 232.4v-62.9M205.5 168.1h-7.7"/><path class="cls-5" d="M206.2 167.4h-8.4"/><path class="cls-13" d="M204.1 169.5h-6.3M205.5 168.1h-7.7"/><path class="cls-5" d="M197.8 168.1v-.7"/><path class="cls-13" d="M197.8 169.5v-1.4M206.2 167.4h-8.4M204.1 169.5h-6.3M215.8 252.3h.5v17h-.5z"/><path class="cls-13" d="M200.5 268.6h15.4v.7h-15.4zM200.5 252.3h15.4v.5h-15.4zM199.8 252.3h.7v17h-.7zM215.8 269.4h.5v17h-.5z"/><path class="cls-13" d="M200.5 285.7h15.4v.7h-15.4zM200.5 269.4h15.4v.5h-15.4zM199.8 269.4h.7v17h-.7zM215.8 286.4h.5v1h-.5zM221.4 226.4h2.4"/><path class="cls-1" d="M216.3 234.8v-67.9"/><path class="cls-13" d="M215.6 143.1h-17.8"/><path class="cls-5" d="M216.3 142.4h-18.5"/><path class="cls-13" d="M214.2 144.6h-16.4M215.6 143.1h-17.8"/><path class="cls-5" d="M197.8 143.1v-.7"/><path class="cls-13" d="M197.8 144.6v-1.5M216.3 142.4h-18.5M214.2 144.6h-16.4M215.6 147.7v-4.6"/><path class="cls-5" d="M216.3 148.4v-6"/><path class="cls-13" d="M214.2 146.2v-1.6M215.6 147.7v-4.6M216.3 148.4v-6M214.2 146.2v-1.6"/><path class="cls-17" d="M202.4 142.4h9.8v2.4h-9.8z"/><path class="cls-13" d="M202.4 142.4h9.8v2.4h-9.8z"/><path class="cls-17" d="M202.2 142.2h10.6v.2h-10.6z"/><path class="cls-13" d="M202.2 142.2h10.6v.2h-10.6z"/><path class="cls-9" d="M203.1 142.2v-8.4"/><path class="cls-4" d="M211.8 142.2l-.3-1.7-.5-1.5-.7-1.6-1.2-1.2-1.2-1-1.4-1-1.7-.4h-1.7"/><path class="cls-13" d="M197.8 147.7h17.8"/><path class="cls-5" d="M197.8 148.4h18.5"/><path class="cls-13" d="M197.8 146.2h16.4M197.8 147.7h17.8M197.8 148.4h18.5M197.8 146.2h16.4"/><path class="cls-5" d="M197.8 147.7v.7"/><path class="cls-13" d="M197.8 146.2v1.5"/><path class="cls-17" d="M248.2 17.1h48.2v50.6h-48.2z"/><path class="cls-13" d="M248.2 17.1h48.2v50.6h-48.2z"/><path class="cls-18" d="M278.2 54.6c-.9 1.3-.9 3 0 4.3 1.5 1.9 3.8 2.9 6.2 2.9l7.2-.3v-9.6l-7.2-.3c-2.4 0-4.7 1-6.2 2.9"/><path class="cls-13" d="M278.2 54.6c-.9 1.3-.9 3 0 4.3 1.5 1.9 3.8 2.9 6.2 2.9l7.2-.3v-9.6l-7.2-.3c-2.4 0-4.7 1-6.2 2.9"/><path class="cls-18" d="M288.3 56.7c0-1-.3-2-1.1-2.8-.7-.7-1.7-1.2-2.7-1.2-2.1 0-4.1.9-5.4 2.5-.6.9-.6 2 0 2.9 1.3 1.6 3.3 2.5 5.4 2.5 1 0 2-.4 2.7-1.2.7-.7 1.1-1.8 1.1-2.8"/><path class="cls-13" d="M288.3 56.7c0-1-.3-2-1.1-2.8-.7-.7-1.7-1.2-2.7-1.2-2.1 0-4.1.9-5.4 2.5-.6.9-.6 2 0 2.9 1.3 1.6 3.3 2.5 5.4 2.5 1 0 2-.4 2.7-1.2.7-.7 1.1-1.8 1.1-2.8"/><path class="cls-18" d="M291.7 51.9h4.8v9.6h-4.8v-9.6"/><path class="cls-13" d="M291.7 51.9h4.8v9.6h-4.8zM248.2 19h48.3M297.2 102.3V88.6"/><path class="cls-5" d="M296.5 102.3V87.9"/><path class="cls-13" d="M298.6 102.3V90.1M297.2 102.3V88.6M296.5 102.3V87.9M298.6 102.3V90.1"/><path class="cls-5" d="M297.2 102.3h-.7"/><path class="cls-13" d="M298.6 102.3h-1.4M301 88.6V70.2"/><path class="cls-5" d="M300.3 87.9v-17"/><path class="cls-13" d="M302.5 90.1V68.7M301 88.6V70.2M300.3 87.9v-17M302.5 90.1V68.7M297.2 70.2V16.6"/><path class="cls-5" d="M296.5 70.9V16.6"/><path class="cls-13" d="M298.6 68.7V16.6M297.2 70.2V16.6"/><path class="cls-5" d="M297.2 16.6h-.7"/><path class="cls-13" d="M298.6 16.6h-1.4M296.5 70.9V16.6M298.6 68.7V16.6"/><path class="cls-18" d="M296.5 71.6h-12.4c-.1 0-.3.1-.4.2-.1.1-.2.2-.2.4v14.1s0 .1.1.2c0 0 0 .1.1.2 0 0 .1 0 .2.1 0 0 .1 0 .2.1h12.4V71.3"/><path class="cls-13" d="M296.5 71.6h-12.4c-.1 0-.3.1-.4.2-.1.1-.2.2-.2.4v14.1s0 .1.1.2c0 0 0 .1.1.2 0 0 .1 0 .2.1 0 0 .1 0 .2.1h12.4V71.3"/><path class="cls-10" d="M296.5 87.9h3.8"/><path class="cls-3" d="M300.3 87.9v-17"/><path class="cls-10" d="M300.3 70.9h-3.8"/><path class="cls-13" d="M301 70.2h-3.8"/><path class="cls-5" d="M300.3 70.9h-3.8"/><path class="cls-13" d="M302.5 68.7h-3.9M301 70.2h-3.8M300.3 70.9h-3.8M302.5 68.7h-3.9M297.2 88.6h3.8"/><path class="cls-5" d="M296.5 87.9h3.8"/><path class="cls-13" d="M298.6 90.1h3.9M297.2 88.6h3.8M296.5 87.9h3.8M298.6 90.1h3.9"/><path class="cls-5" d="M296.5 87.9v-17"/><path class="cls-19" d="M281.8 327.4v14.7h29.8v-14.7h-29.8"/><path class="cls-18" d="M281.8 342.1v-3.4h29.8v3.4h-29.8"/><path class="cls-12" d="M311.4 339.7l-2.4 2.4M308.5 338.7l-3.4 3.4M304.4 338.7l-3.4 3.4M300.3 338.7l-3.3 3.4M296.2 338.7l-3.3 3.4M292.4 338.7l-3.4 3.4M288.3 338.7l-3.3 3.4M284.2 338.7l-2.6 2.7"/><path class="cls-18" d="M281.8 338.7v-.5h29.8v.5h-29.8M281.8 338.2v-5.7h29.8v5.7h-29.8"/><path class="cls-12" d="M310.2 332.5v5.7M308.7 332.5v5.7M307.3 332.5v5.7M305.8 332.5v5.7M304.4 332.5v5.7M303 332.5v5.7M301.8 332.5v5.7M300.3 332.5v5.7M298.9 332.5v5.7M297.4 332.5v5.7M296 332.5v5.7M294.6 332.5v5.7M293.1 332.5v5.7M291.7 332.5v5.7M290.2 332.5v5.7M288.8 332.5v5.7M287.4 332.5v5.7M286.2 332.5v5.7M284.7 332.5v5.7M283.3 332.5v5.7M281.8 332.5v5.7"/><path class="cls-18" d="M281.8 332.5v-5.1h29.8v5.1h-29.8"/><path class="cls-12" d="M311.4 331.5l-.8 1M311.4 327.7l-4.8 4.8M307.5 327.4l-5 5.1M303.7 327.4l-5.1 5.1M299.6 327.4l-5 5.1M295.5 327.4l-5 5.1M291.7 327.4l-5.1 5.1M287.6 327.4l-5 5.1M283.5 327.4l-1.9 2M281.8 332.5h29.8M281.8 338.2h29.8"/><path class="cls-13" d="M281.8 342.1h29.8M281.8 327.4h29.8"/><path class="cls-19" d="M167.6 327.4v14.7H219v-14.7h-51.4"/><path class="cls-18" d="M167.6 342.1v-3.4H219v3.4h-51.4"/><path class="cls-12" d="M218.7 340.2l-1.9 1.9M216.1 338.7l-3.4 3.4M212.2 338.7l-3.3 3.4M208.2 338.7l-3.4 3.4M204.1 338.7l-3.4 3.4M200.2 338.7l-3.3 3.4M196.2 338.7l-3.4 3.4M192.1 338.7l-3.4 3.4M188 338.7l-3.4 3.4M184.2 338.7l-3.4 3.4M180.1 338.7l-3.4 3.4M176 338.7l-3.4 3.4M172.2 338.7l-3.4 3.4M168.1 338.7l-.7.5"/><path class="cls-18" d="M167.6 338.7v-.5H219v.5h-51.4M167.6 338.2v-5.7H219v5.7h-51.4"/><path class="cls-12" d="M218 332.5v5.7M216.6 332.5v5.7M215.1 332.5v5.7M213.7 332.5v5.7M212.2 332.5v5.7M211 332.5v5.7M209.6 332.5v5.7M208.2 332.5v5.7M206.7 332.5v5.7M205.3 332.5v5.7M203.8 332.5v5.7M202.4 332.5v5.7M201 332.5v5.7M199.5 332.5v5.7M198.1 332.5v5.7M196.9 332.5v5.7M195.4 332.5v5.7M194 332.5v5.7M192.6 332.5v5.7M191.1 332.5v5.7M189.7 332.5v5.7M188.2 332.5v5.7M186.8 332.5v5.7M185.4 332.5v5.7M183.9 332.5v5.7M182.5 332.5v5.7M181.3 332.5v5.7M179.8 332.5v5.7M178.4 332.5v5.7M177 332.5v5.7M175.5 332.5v5.7M174.1 332.5v5.7M172.6 332.5v5.7M171.2 332.5v5.7M169.8 332.5v5.7M168.3 332.5v5.7"/><path class="cls-18" d="M167.6 332.5v-5.1H219v5.1h-51.4"/><path class="cls-12" d="M218.7 332l-.2.5M218.7 327.9l-4.3 4.6M215.4 327.4l-5.1 5.1M211.5 327.4l-5 5.1M207.4 327.4l-5 5.1M203.4 327.4l-5.1 5.1M199.3 327.4l-5.1 5.1M195.4 327.4l-5 5.1M191.4 327.4l-5.1 5.1M187.3 327.4l-5.1 5.1M183.4 327.4l-5 5.1M179.4 327.4l-5.1 5.1M175.3 327.4l-5.1 5.1M171.4 327.4l-4 3.9M167.6 332.5H219M167.6 338.2H219"/><path class="cls-13" d="M167.6 342.1H219M167.6 327.4H219"/><path class="cls-19" d="M95.6 327.4v14.7h31.2v-14.7H95.6"/><path class="cls-18" d="M95.6 342.1v-3.4h31.2v3.4H95.6"/><path class="cls-12" d="M126.6 339.9l-2 2.2M123.9 338.7l-3.3 3.4M119.8 338.7l-3.3 3.4M116 338.7l-3.4 3.4M111.9 338.7l-3.3 3.4M107.8 338.7l-3.3 3.4M104 338.7l-3.4 3.4M99.9 338.7l-3.3 3.4M95.8 338.7l-.4.5"/><path class="cls-18" d="M95.6 338.7v-.5h31.2v.5H95.6M95.6 338.2v-5.7h31.2v5.7H95.6"/><path class="cls-12" d="M125.8 332.5v5.7M124.4 332.5v5.7M123 332.5v5.7M121.8 332.5v5.7M120.3 332.5v5.7M118.9 332.5v5.7M117.4 332.5v5.7M116 332.5v5.7M114.6 332.5v5.7M113.1 332.5v5.7M111.7 332.5v5.7M110.2 332.5v5.7M108.8 332.5v5.7M107.4 332.5v5.7M106.2 332.5v5.7M104.7 332.5v5.7M103.3 332.5v5.7M101.8 332.5v5.7M100.4 332.5v5.7M99 332.5v5.7M97.5 332.5v5.7M96.1 332.5v5.7"/><path class="cls-18" d="M95.6 332.5v-5.1h31.2v5.1H95.6"/><path class="cls-12" d="M126.6 332l-.5.5M126.6 327.9l-4.4 4.6M123.2 327.4l-5 5.1M119.1 327.4l-5 5.1M115.3 327.4l-5.1 5.1M111.2 327.4l-5 5.1M107.1 327.4l-5 5.1M103.3 327.4l-5.1 5.1M99.2 327.4l-3.8 3.6M95.6 332.5h31.2M95.6 338.2h31.2"/><path class="cls-13" d="M95.6 342.1h31.2M95.6 327.4h31.2"/><path class="cls-1" d="M219 327.4h62.8"/><path class="cls-13" d="M219 332.5h62.9v2.4H219zM222.6 334.9v-2.4M278 334.9v-2.4M219 332.5v2.4M237.7 332.5v2.4M222.6 332.5v2.4M242 332.5v2.4M237.7 332.5v2.4M258.8 332.5v2.4M242 332.5v2.4M262.9 332.5v2.4M258.8 332.5v2.4M278 332.5v2.4M262.9 332.5v2.4M281.8 332.5v2.4M283.3 342.1v1.9"/><path class="cls-6" d="M283.3 344h-66"/><path class="cls-13" d="M217.3 344v-1"/><path class="cls-18" d="M218.9 338.2h1.8v-3.4h-1.8"/><path class="cls-12" d="M219.4 334.9v3.3M218.9 338.2h1.8v-3.4h-1.8"/><path class="cls-18" d="M219 342.1h1.6v-3.4H219"/><path class="cls-12" d="M220.2 338.7l-1.5 1.5"/><path class="cls-18" d="M281.8 338.2h-1.9v-3.4h1.9"/><path class="cls-12" d="M280.4 334.9v3.3M281.8 338.2h-1.9v-3.4h1.9"/><path class="cls-18" d="M281.8 342.1h-1.9v-3.4h1.9"/><path class="cls-12" d="M281.6 341.4l-.7.7M280.4 338.7l-.7.5"/><path class="cls-13" d="M128.5 334.9v7.2h-3.4v1.9H169v-1.9h-3.3v-7.2"/><path class="cls-1" d="M126.8 327.4h40.8"/><path class="cls-13" d="M167.1 327.4h.5M126.8 332.5h40.8v2.4h-40.8zM130.4 334.9v-2.4M163.8 334.9v-2.4M126.8 332.5v2.4M145 332.5v2.4M130.4 332.5v2.4M149.1 332.5v2.4M145 332.5v2.4M163.8 332.5v2.4M149.1 332.5v2.4M167.6 332.5v2.4"/><path class="cls-18" d="M126.7 338.2h1.9v-3.4h-1.9"/><path class="cls-12" d="M127.3 334.9v3.3M126.7 338.2h1.9v-3.4h-1.9"/><path class="cls-18" d="M126.8 342.1h1.7v-3.4h-1.7"/><path class="cls-12" d="M128 338.7l-1.4 1.2"/><path class="cls-18" d="M167.6 338.2h-1.9v-3.4h1.9"/><path class="cls-12" d="M167.1 334.9v3.3M165.7 334.9v3.3M167.6 338.2h-1.9v-3.4h1.9"/><path class="cls-18" d="M167.6 342.1h-1.9v-3.4h1.9"/><path class="cls-12" d="M167.4 339.2l-2 1.9"/><path class="cls-18" d="M95.6 222.8h7.2v109.7h-7.2V222.8"/><path class="cls-12" d="M95.4 222.8h.2M95.4 226.9l4.3-4.1M95.4 231l7.2-7.2M95.4 234.8l7.2-7.2M95.4 238.9l7.2-7.2M95.4 243l7.2-7.2M95.4 247l7.2-7.2M95.4 250.9l7.2-7.2M95.4 255l7.2-7.2M95.4 259l7.2-7.2M95.4 262.9l7.2-7.2M95.4 267l7.2-7.2M95.4 271l7.2-7.2M95.4 275.1l7.2-7.2M95.4 279l7.2-7.2M95.4 283l7.2-7.2M95.4 287.1l7.2-7.2M95.4 291l7.2-7.2M95.4 295l7.2-7.2M95.4 299.1l7.2-7.2M95.4 303l7.2-7.2M95.4 307l7.2-7.2M95.4 311.1l7.2-7.2M95.4 315.2l7.2-7.2M95.4 319l7.2-7.2M95.4 323.1l7.2-7.2M95.4 327.2l7.2-7.2M95.4 331l7.2-7.2M98.2 332.5l4.4-4.6M102.1 332.5l.5-.5M96.3 332.5l-.9-.7M100.4 332.5l-5-4.8M102.6 330.8l-7.2-7.2M102.6 327l-7.2-7.2M102.6 322.9l-7.2-7.2M102.6 318.8l-7.2-7.2M102.6 314.7l-7.2-7.2M102.6 310.9l-7.2-7.2M102.6 306.8l-7.2-7.2M102.6 302.7l-7.2-7.2M102.6 298.9l-7.2-7.2M102.6 294.8l-7.2-7.2M102.6 290.7l-7.2-7.2M102.6 286.9l-7.2-7.2M102.6 282.8l-7.2-7.2M102.6 278.7l-7.2-7.2M102.6 274.6l-7.2-7.2M102.6 270.8l-7.2-7.2M102.6 266.7l-7.2-7.2M102.6 262.6l-7.2-7.2M102.6 258.8l-7.2-7.2M102.6 254.7l-7.2-7.2M102.6 250.6l-7.2-7.2M102.6 246.8l-7.2-7.2M102.6 242.7l-7.2-7.2M102.6 238.6l-7.2-7.2M102.6 234.6l-7.2-7.2M102.6 230.7l-7.2-7.2M102.6 226.6l-3.9-3.8"/><path class="cls-18" d="M95.6 222.8h7.2v109.7h-7.2V222.8"/><path class="cls-12" d="M95.4 222.8h.2M95.4 226.9l4.3-4.1M95.4 231l7.2-7.2M95.4 234.8l7.2-7.2M95.4 238.9l7.2-7.2M95.4 243l7.2-7.2M95.4 247l7.2-7.2M95.4 250.9l7.2-7.2M95.4 255l7.2-7.2M95.4 259l7.2-7.2M95.4 262.9l7.2-7.2M95.4 267l7.2-7.2M95.4 271l7.2-7.2M95.4 275.1l7.2-7.2M95.4 279l7.2-7.2M95.4 283l7.2-7.2M95.4 287.1l7.2-7.2M95.4 291l7.2-7.2M95.4 295l7.2-7.2M95.4 299.1l7.2-7.2M95.4 303l7.2-7.2M95.4 307l7.2-7.2M95.4 311.1l7.2-7.2M95.4 315.2l7.2-7.2M95.4 319l7.2-7.2M95.4 323.1l7.2-7.2M95.4 327.2l7.2-7.2M95.4 331l7.2-7.2M98.2 332.5l4.4-4.6M102.1 332.5l.5-.5M96.3 332.5l-.9-.7M100.4 332.5l-5-4.8M102.6 330.8l-7.2-7.2M102.6 327l-7.2-7.2M102.6 322.9l-7.2-7.2M102.6 318.8l-7.2-7.2M102.6 314.7l-7.2-7.2M102.6 310.9l-7.2-7.2M102.6 306.8l-7.2-7.2M102.6 302.7l-7.2-7.2M102.6 298.9l-7.2-7.2M102.6 294.8l-7.2-7.2M102.6 290.7l-7.2-7.2M102.6 286.9l-7.2-7.2M102.6 282.8l-7.2-7.2M102.6 278.7l-7.2-7.2M102.6 274.6l-7.2-7.2M102.6 270.8l-7.2-7.2M102.6 266.7l-7.2-7.2M102.6 262.6l-7.2-7.2M102.6 258.8l-7.2-7.2M102.6 254.7l-7.2-7.2M102.6 250.6l-7.2-7.2M102.6 246.8l-7.2-7.2M102.6 242.7l-7.2-7.2M102.6 238.6l-7.2-7.2M102.6 234.6l-7.2-7.2M102.6 230.7l-7.2-7.2M102.6 226.6l-3.9-3.8"/><path class="cls-18" d="M197.8 222.8l-6.9-7.2v-73h6.9v80.2"/><path class="cls-12" d="M190.6 143.6l1.2-1M190.6 147.7l5.1-5.1M190.6 151.8l7-7M190.6 155.6l7-7M190.6 159.7l7-7M190.6 163.8l7-7M190.6 167.6l7-7M190.6 171.7l7-7M190.6 175.8l7-7M190.6 179.8l7-6.9M190.6 183.7l7-7M190.6 187.8l7-7M190.6 191.8l7-6.9M190.6 195.7l7-7M190.6 199.8l7-7M190.6 203.8l7-6.9M190.6 207.7l7-7M190.6 211.8l7-7M190.9 215.6l6.7-6.7M192.8 217.8l4.8-4.8M194.7 219.7l2.9-2.9M196.9 221.8l.7-.9M197.6 221.4l-7-7M197.6 217.5l-7-6.9M197.6 213.4l-7-6.9M197.6 209.4l-7-7M197.6 205.5l-7-6.9M197.6 201.4l-7-6.9M197.6 197.4l-7-7M197.6 193.3l-7-7M197.6 189.4l-7-6.9M197.6 185.4l-7-7M197.6 181.3l-7-7M197.6 177.4l-7-6.9M197.6 173.4l-7-7M197.6 169.3l-7-7M197.6 165.4l-7-6.9M197.6 161.4l-7-7M197.6 157.3l-7-7M197.6 153.2l-7-7M197.6 149.4l-6.5-6.8M197.6 145.3l-2.6-2.7"/><path class="cls-18" d="M197.8 222.8l-6.9-7.2v-73h6.9v80.2"/><path class="cls-12" d="M190.6 143.6l1.2-1M190.6 147.7l5.1-5.1M190.6 151.8l7-7M190.6 155.6l7-7M190.6 159.7l7-7M190.6 163.8l7-7M190.6 167.6l7-7M190.6 171.7l7-7M190.6 175.8l7-7M190.6 179.8l7-6.9M190.6 183.7l7-7M190.6 187.8l7-7M190.6 191.8l7-6.9M190.6 195.7l7-7M190.6 199.8l7-7M190.6 203.8l7-6.9M190.6 207.7l7-7M190.6 211.8l7-7M190.9 215.6l6.7-6.7M192.8 217.8l4.8-4.8M194.7 219.7l2.9-2.9M196.9 221.8l.7-.9M197.6 221.4l-7-7M197.6 217.5l-7-6.9M197.6 213.4l-7-6.9M197.6 209.4l-7-7M197.6 205.5l-7-6.9M197.6 201.4l-7-6.9M197.6 197.4l-7-7M197.6 193.3l-7-7M197.6 189.4l-7-6.9M197.6 185.4l-7-7M197.6 181.3l-7-7M197.6 177.4l-7-6.9M197.6 173.4l-7-7M197.6 169.3l-7-7M197.6 165.4l-7-6.9M197.6 161.4l-7-7M197.6 157.3l-7-7M197.6 153.2l-7-7M197.6 149.4l-6.5-6.8M197.6 145.3l-2.6-2.7"/><path class="cls-18" d="M197.8 107.1H193l4.8-4.8v4.8"/><path class="cls-12" d="M195.2 107.1l2.4-2.4M195.7 107.1l-1.5-1.4M197.6 105.2l-1.4-1.4"/><path class="cls-18" d="M197.8 107.1H193l4.8-4.8v4.8"/><path class="cls-12" d="M195.2 107.1l2.4-2.4M195.7 107.1l-1.5-1.4M197.6 105.2l-1.4-1.4"/><path class="cls-13" d="M196.9 107.1h1.7v2.4h-1.7zM196.9 136.9h1.7v5.8h-1.7zM196.9 109.5h1.7v27.4h-1.7zM196.9 109.5v27.4"/><path class="cls-1" d="M190.9 109.3v27.8"/><path class="cls-13" d="M190.9 136.6v.5"/><path class="cls-18" d="M190.9 107.1v2.2h6v-2.2"/><path class="cls-12" d="M190.6 107.6l.5-.5M193 109.3l2.2-2.2M193.8 109.3l-2.2-2.2M196.6 108.3l-.9-1.2"/><path class="cls-18" d="M190.9 142.6v-5.5h6v5.5"/><path class="cls-12" d="M190.6 139.5l2.7-2.4M191.8 142.6l4.8-5M195.7 142.6l.9-.9M191.1 142.6l-.5-.2M195 142.6l-4.4-4.3M196.6 140.2l-3.1-3.1M225.7 109.6c0 14.9-12.3 27.2-27.2 27.2M198.6 109.5h27.1"/><path class="cls-18" d="M.6 102.3l4.8 4.8H.6v-4.8"/><path class="cls-12" d="M.3 105.4L2 104M2.7 107.1l1.2-1.2M3.2 107.1l-2.9-2.9"/><path class="cls-18" d="M.6 102.3l4.8 4.8H.6v-4.8"/><path class="cls-12" d="M.3 105.4L2 104M2.7 107.1l1.2-1.2M3.2 107.1l-2.9-2.9"/><path class="cls-18" d="M7.8 142.6v70.1L.6 222.8v-80.2h7.2"/><path class="cls-12" d="M.3 145.5l3.1-2.9M.3 149.6l7-7M.3 153.7l7.2-7.2M.3 157.5l7.2-7.2M.3 161.6l7.2-7.2M.3 165.7l7.2-7.2M.3 169.5l7.2-7.2M.3 173.6l7.2-7.2M.3 177.7l7.2-7.2M.3 181.5l7.2-7.2M.3 185.6l7.2-7.2M.3 189.7l7.2-7.2M.3 193.8l7.2-7.2M.3 197.6l7.2-7.2M.3 201.7l7.2-7.2M.3 205.8l7.2-7.2M.3 209.6l7.2-7.2M.3 213.7l7.2-7.2M.3 217.8l7.2-7.2M.3 221.6l2.9-2.6M1.3 221.6l-1-1M3 219.2l-2.7-2.6M4.6 216.8l-4.3-4.3M6.3 214.4l-6-5.8M7.5 211.8l-7.2-7.2M7.5 207.7l-7.2-7.2M7.5 203.8l-7.2-7.2M7.5 199.8l-7.2-7.2M7.5 195.7l-7.2-7.2M7.5 191.8l-7.2-7.2M7.5 187.8l-7.2-7.2M7.5 183.7l-7.2-7.2M7.5 179.6l-7.2-7.2M7.5 175.8l-7.2-7.2M7.5 171.7l-7.2-7.2M7.5 167.6l-7.2-7.2M7.5 163.8l-7.2-7.2M7.5 159.7l-7.2-7.2M7.5 155.6l-7.2-7.2M7.5 151.8l-7.2-7.2M7.5 147.7l-4.8-5.1M7.5 143.6l-.9-1"/><path class="cls-18" d="M7.8 142.6v70.1L.6 222.8v-80.2h7.2"/><path class="cls-12" d="M.3 145.5l3.1-2.9M.3 149.6l7-7M.3 153.7l7.2-7.2M.3 157.5l7.2-7.2M.3 161.6l7.2-7.2M.3 165.7l7.2-7.2M.3 169.5l7.2-7.2M.3 173.6l7.2-7.2M.3 177.7l7.2-7.2M.3 181.5l7.2-7.2M.3 185.6l7.2-7.2M.3 189.7l7.2-7.2M.3 193.8l7.2-7.2M.3 197.6l7.2-7.2M.3 201.7l7.2-7.2M.3 205.8l7.2-7.2M.3 209.6l7.2-7.2M.3 213.7l7.2-7.2M.3 217.8l7.2-7.2M.3 221.6l2.9-2.6M1.3 221.6l-1-1M3 219.2l-2.7-2.6M4.6 216.8l-4.3-4.3M6.3 214.4l-6-5.8M7.5 211.8l-7.2-7.2M7.5 207.7l-7.2-7.2M7.5 203.8l-7.2-7.2M7.5 199.8l-7.2-7.2M7.5 195.7l-7.2-7.2M7.5 191.8l-7.2-7.2M7.5 187.8l-7.2-7.2M7.5 183.7l-7.2-7.2M7.5 179.6l-7.2-7.2M7.5 175.8l-7.2-7.2M7.5 171.7l-7.2-7.2M7.5 167.6l-7.2-7.2M7.5 163.8l-7.2-7.2M7.5 159.7l-7.2-7.2M7.5 155.6l-7.2-7.2M7.5 151.8l-7.2-7.2M7.5 147.7l-4.8-5.1M7.5 143.6l-.9-1"/><path class="cls-13" d="M0 136.9h1.7v5.8H0zM0 107.1h1.7v2.4H0zM0 109.5h1.7v27.4H0zM1.8 136.9v-27.4"/><path class="cls-1" d="M7.8 137.1v-27.8"/><path class="cls-13" d="M7.8 109.8v-.5"/><path class="cls-18" d="M7.8 142.6v-5.5h-6v5.5"/><path class="cls-12" d="M1.5 140.2l3.4-3.1M3.4 142.6l4.1-4.3M7.3 142.6l.2-.2M2.7 142.6l-1.2-.9M6.6 142.6l-5.1-5M7.5 139.5l-2.4-2.4"/><path class="cls-18" d="M7.8 107.1v2.2h-6v-2.2"/><path class="cls-12" d="M1.5 108.3l1.2-1.2M4.6 109.3l2.2-2.2M5.4 109.3l-2.2-2.2M7.5 107.6l-.2-.5"/><path class="cls-18" d="M53.1 158l5.5-10.1v74.9l-5.5-10.1V158"/><path class="cls-12" d="M54.1 156.1l4.3-4.6M52.9 161.1l5.5-5.5M52.9 165.2l5.5-5.5M52.9 169l5.5-5.5M52.9 173.1l5.5-5.5M52.9 177.2l5.5-5.5M52.9 181.3l5.5-5.5M52.9 185.1l5.5-5.5M52.9 189.2l5.5-5.5M52.9 193.3l5.5-5.5M52.9 197.1l5.5-5.5M52.9 201.2l5.5-5.5M52.9 205.3l5.5-5.5M52.9 209.4l5.5-5.6M53.1 213l5.3-5.3M54.6 215.6l3.8-3.8M56 218.2l2.4-2.4M57.4 220.9l1-1.2M58.4 222.6l-.2-.3M58.4 218.5l-5-5.1M58.4 214.6l-5.5-5.5M58.4 210.6l-5.5-5.6M58.4 206.5l-5.5-5.5M58.4 202.6l-5.5-5.5M58.4 198.6l-5.5-5.6M58.4 194.5l-5.5-5.5M58.4 190.4l-5.5-5.5M58.4 186.6l-5.5-5.6M58.4 182.5l-5.5-5.5M58.4 178.4l-5.5-5.5M58.4 174.6l-5.5-5.6M58.4 170.5l-5.5-5.5M58.4 166.4l-5.5-5.5M58.4 162.3l-5-5M58.4 158.5l-3.6-3.9M58.4 154.4l-2.2-2.4M58.4 150.3l-.7-.7"/><path class="cls-18" d="M53.1 158l5.5-10.1v74.9l-5.5-10.1V158"/><path class="cls-12" d="M54.1 156.1l4.3-4.6M52.9 161.1l5.5-5.5M52.9 165.2l5.5-5.5M52.9 169l5.5-5.5M52.9 173.1l5.5-5.5M52.9 177.2l5.5-5.5M52.9 181.3l5.5-5.5M52.9 185.1l5.5-5.5M52.9 189.2l5.5-5.5M52.9 193.3l5.5-5.5M52.9 197.1l5.5-5.5M52.9 201.2l5.5-5.5M52.9 205.3l5.5-5.5M52.9 209.4l5.5-5.6M53.1 213l5.3-5.3M54.6 215.6l3.8-3.8M56 218.2l2.4-2.4M57.4 220.9l1-1.2M58.4 222.6l-.2-.3M58.4 218.5l-5-5.1M58.4 214.6l-5.5-5.5M58.4 210.6l-5.5-5.6M58.4 206.5l-5.5-5.5M58.4 202.6l-5.5-5.5M58.4 198.6l-5.5-5.6M58.4 194.5l-5.5-5.5M58.4 190.4l-5.5-5.5M58.4 186.6l-5.5-5.6M58.4 182.5l-5.5-5.5M58.4 178.4l-5.5-5.5M58.4 174.6l-5.5-5.6M58.4 170.5l-5.5-5.5M58.4 166.4l-5.5-5.5M58.4 162.3l-5-5M58.4 158.5l-3.6-3.9M58.4 154.4l-2.2-2.4M58.4 150.3l-.7-.7"/><path class="cls-18" d="M197.8 102.3l-6.9 7H7.8l-7.2-7h197.2"/><path class="cls-12" d="M2 103.8l1.7-1.5M4.2 105.9l3.3-3.6M6.1 107.8l5.5-5.5M8.7 109.3l7-7M12.6 109.3l6.9-7M16.6 109.3l7-7M20.7 109.3l7-7M24.8 109.3l7-7M28.6 109.3l7-7M32.7 109.3l7-7M36.8 109.3l7-7M40.6 109.3l7-7M44.7 109.3l7-7M48.8 109.3l7-7M52.6 109.3l7-7M56.7 109.3l7-7M60.8 109.3l7-7M64.9 109.3l6.9-7M68.7 109.3l7-7M72.8 109.3l7-7M76.9 109.3l6.9-7M80.7 109.3l7-7M84.8 109.3l7-7M88.9 109.3l6.9-7M92.7 109.3l7-7M96.8 109.3l7-7M100.9 109.3l6.9-7M105 109.3l6.9-7M108.8 109.3l7-7M112.9 109.3l6.9-7M117 109.3l6.9-7M120.8 109.3l7-7M124.9 109.3l6.9-7M129 109.3l6.9-7M133 109.3l7-7M136.9 109.3l6.9-7M141 109.3l6.9-7M145 109.3l7-7M148.9 109.3l6.9-7M153 109.3l6.9-7M157 109.3l7-7M160.9 109.3l6.9-7M165 109.3l6.9-7M169 109.3l7-7M173.1 109.3l7-7M177 109.3l6.9-7M181 109.3l7-7M185.1 109.3l7-7M189 109.3l6.9-7M9.4 109.3l-6.9-7M13.3 109.3l-7-7M17.4 109.3l-7-7M21.4 109.3l-6.9-7M25.5 109.3l-6.9-7M29.4 109.3l-7-7M33.4 109.3l-6.9-7M37.5 109.3l-6.9-7M41.4 109.3l-7-7M45.4 109.3l-6.9-7M49.5 109.3l-6.9-7M53.4 109.3l-7-7M57.4 109.3l-6.9-7M61.5 109.3l-6.9-7M65.6 109.3l-7-7M69.4 109.3l-6.9-7M73.5 109.3l-6.9-7M77.6 109.3l-7-7M81.4 109.3l-6.9-7M85.5 109.3l-6.9-7M89.6 109.3l-7-7M93.4 109.3l-6.9-7M97.5 109.3l-6.9-7M101.6 109.3l-7-7M105.7 109.3l-7-7M109.5 109.3l-6.9-7M113.6 109.3l-7-7M117.7 109.3l-7-7M121.5 109.3l-6.9-7M125.6 109.3l-7-7M129.7 109.3l-7-7M133.8 109.3l-7-7M137.6 109.3l-7-7M141.7 109.3l-7-7M145.8 109.3l-7-7M149.6 109.3l-7-7M153.7 109.3l-7-7M157.8 109.3l-7-7M161.6 109.3l-7-7M165.7 109.3l-7-7M169.8 109.3l-7-7M173.8 109.3l-6.9-7M177.7 109.3l-7-7M181.8 109.3l-7-7M185.8 109.3l-6.9-7M189.7 109.3l-7-7M192.3 107.8l-5.5-5.5M194.2 105.7l-3.3-3.4M196.2 103.8l-1.5-1.5"/><path class="cls-18" d="M197.8 102.3l-6.9 7H7.8l-7.2-7h197.2"/><path class="cls-12" d="M2 103.8l1.7-1.5M4.2 105.9l3.3-3.6M6.1 107.8l5.5-5.5M8.7 109.3l7-7M12.6 109.3l6.9-7M16.6 109.3l7-7M20.7 109.3l7-7M24.8 109.3l7-7M28.6 109.3l7-7M32.7 109.3l7-7M36.8 109.3l7-7M40.6 109.3l7-7M44.7 109.3l7-7M48.8 109.3l7-7M52.6 109.3l7-7M56.7 109.3l7-7M60.8 109.3l7-7M64.9 109.3l6.9-7M68.7 109.3l7-7M72.8 109.3l7-7M76.9 109.3l6.9-7M80.7 109.3l7-7M84.8 109.3l7-7M88.9 109.3l6.9-7M92.7 109.3l7-7M96.8 109.3l7-7M100.9 109.3l6.9-7M105 109.3l6.9-7M108.8 109.3l7-7M112.9 109.3l6.9-7M117 109.3l6.9-7M120.8 109.3l7-7M124.9 109.3l6.9-7M129 109.3l6.9-7M133 109.3l7-7M136.9 109.3l6.9-7M141 109.3l6.9-7M145 109.3l7-7M148.9 109.3l6.9-7M153 109.3l6.9-7M157 109.3l7-7M160.9 109.3l6.9-7M165 109.3l6.9-7M169 109.3l7-7M173.1 109.3l7-7M177 109.3l6.9-7M181 109.3l7-7M185.1 109.3l7-7M189 109.3l6.9-7M9.4 109.3l-6.9-7M13.3 109.3l-7-7M17.4 109.3l-7-7M21.4 109.3l-6.9-7M25.5 109.3l-6.9-7M29.4 109.3l-7-7M33.4 109.3l-6.9-7M37.5 109.3l-6.9-7M41.4 109.3l-7-7M45.4 109.3l-6.9-7M49.5 109.3l-6.9-7M53.4 109.3l-7-7M57.4 109.3l-6.9-7M61.5 109.3l-6.9-7M65.6 109.3l-7-7M69.4 109.3l-6.9-7M73.5 109.3l-6.9-7M77.6 109.3l-7-7M81.4 109.3l-6.9-7M85.5 109.3l-6.9-7M89.6 109.3l-7-7M93.4 109.3l-6.9-7M97.5 109.3l-6.9-7M101.6 109.3l-7-7M105.7 109.3l-7-7M109.5 109.3l-6.9-7M113.6 109.3l-7-7M117.7 109.3l-7-7M121.5 109.3l-6.9-7M125.6 109.3l-7-7M129.7 109.3l-7-7M133.8 109.3l-7-7M137.6 109.3l-7-7M141.7 109.3l-7-7M145.8 109.3l-7-7M149.6 109.3l-7-7M153.7 109.3l-7-7M157.8 109.3l-7-7M161.6 109.3l-7-7M165.7 109.3l-7-7M169.8 109.3l-7-7M173.8 109.3l-6.9-7M177.7 109.3l-7-7M181.8 109.3l-7-7M185.8 109.3l-6.9-7M189.7 109.3l-7-7M192.3 107.8l-5.5-5.5M194.2 105.7l-3.3-3.4M196.2 103.8l-1.5-1.5"/><path class="cls-18" d="M.6 222.8l7.2-10.1h45.3l5.5 10.1H.6"/><path class="cls-12" d="M3.2 219l6.2-6.3M3.4 222.8l10.1-10.1M7.3 222.8l10.1-10.1M11.4 222.8l10-10.1M15.4 222.8l10.1-10.1M19.5 222.8l10.1-10.1M23.4 222.8l10-10.1M27.4 222.8l10.1-10.1M31.5 222.8l10.1-10.1M35.4 222.8l10-10.1M39.4 222.8l10.1-10.1M43.5 222.8l9.6-9.8M47.4 222.8l7.2-7.2M51.4 222.8l4.6-4.6M55.5 222.8l1.9-1.9M2.7 222.8l-1.4-1.2M6.6 222.8L3 219.2M10.6 222.8l-6-6M14.7 222.8l-8.4-8.4M18.6 222.8L8.5 212.7M22.6 222.8l-10-10.1M26.7 222.8l-10.1-10.1M30.8 222.8l-10.1-10.1M34.6 222.8l-10-10.1M38.7 222.8l-10.1-10.1M42.8 222.8l-10.1-10.1M46.6 222.8l-10-10.1M50.7 222.8l-10.1-10.1M54.8 222.8l-10.1-10.1M58.2 222.3l-9.6-9.6M53.4 213.4l-.8-.7"/><path class="cls-18" d="M.6 222.8l7.2-10.1h45.3l5.5 10.1H.6"/><path class="cls-12" d="M3.2 219l6.2-6.3M3.4 222.8l10.1-10.1M7.3 222.8l10.1-10.1M11.4 222.8l10-10.1M15.4 222.8l10.1-10.1M19.5 222.8l10.1-10.1M23.4 222.8l10-10.1M27.4 222.8l10.1-10.1M31.5 222.8l10.1-10.1M35.4 222.8l10-10.1M39.4 222.8l10.1-10.1M43.5 222.8l9.6-9.8M47.4 222.8l7.2-7.2M51.4 222.8l4.6-4.6M55.5 222.8l1.9-1.9M2.7 222.8l-1.4-1.2M6.6 222.8L3 219.2M10.6 222.8l-6-6M14.7 222.8l-8.4-8.4M18.6 222.8L8.5 212.7M22.6 222.8l-10-10.1M26.7 222.8l-10.1-10.1M30.8 222.8l-10.1-10.1M34.6 222.8l-10-10.1M38.7 222.8l-10.1-10.1M42.8 222.8l-10.1-10.1M46.6 222.8l-10-10.1M50.7 222.8l-10.1-10.1M54.8 222.8l-10.1-10.1M58.2 222.3l-9.6-9.6M53.4 213.4l-.8-.7"/><path class="cls-18" d="M43.5 147.9h15.1L53.1 158h-9.6v-10.1"/><path class="cls-12" d="M43.3 150.8l2.9-2.9M43.3 154.6l6.9-6.7M44 158l10.1-10.1M48.1 158l10.1-10.1M52.2 158l1.9-1.9M46.2 158l-2.9-2.6M50 158l-6.7-6.7M53.4 157.3l-9.4-9.4M54.8 154.6l-6.7-6.7M56.2 152l-4.3-4.1M57.7 149.6l-1.7-1.7"/><path class="cls-18" d="M43.5 147.9h15.1L53.1 158h-9.6v-10.1"/><path class="cls-12" d="M43.3 150.8l2.9-2.9M43.3 154.6l6.9-6.7M44 158l10.1-10.1M48.1 158l10.1-10.1M52.2 158l1.9-1.9M46.2 158l-2.9-2.6M50 158l-6.7-6.7M53.4 157.3l-9.4-9.4M54.8 154.6l-6.7-6.7M56.2 152l-4.3-4.1M57.7 149.6l-1.7-1.7"/><path class="cls-13" d="M40.4 156.6H10.9"/><path class="cls-1" d="M40.4 147.9H10.9"/><path class="cls-13" d="M11.4 147.9h-.5"/><path class="cls-18" d="M43.5 147.9h-3.1v8.7h3.1"/><path class="cls-12" d="M40.2 149.8l1.9-1.9M40.2 153.9l3.1-3.1M41.6 156.6l1.7-2M40.6 156.6l-.4-.3M43.3 155.4l-3.1-3.2M43.3 151.3l-3.1-3.1"/><path class="cls-18" d="M7.8 147.9h3.1v8.7H7.8"/><path class="cls-12" d="M7.5 150.3l2.7-2.4M7.5 154.4l3.1-3.1M9.4 156.6l1.2-1.2M8.5 156.6l-1-1M10.6 154.9l-3.1-3.1M10.6 150.8L8 147.9"/><path class="cls-13" d="M298.2 342.1l-7.5 40.8h-80.9l-7.2-40.8"/><path class="cls-13" d="M299.8 342.1l-7.6 42.7h-83.8l-7.4-42.7"/><path class="cls-18" d="M197.8 288.1l-4 4.8v-70.1h4v65.3"/><path class="cls-12" d="M197.6 225.7l-2.6-2.9M197.6 229.8l-4.1-4.1M197.6 234.1l-4.1-4.1M197.6 238.4l-4.1-4.1M197.6 242.7l-4.1-4.1M197.6 246.8l-4.1-4.1M197.6 251.1l-4.1-4.1M197.6 255.4l-4.1-4M197.6 259.5l-4.1-4.1M197.6 263.8l-4.1-4M197.6 268.2l-4.1-4.1M197.6 272.5l-4.1-4.1M197.6 276.6l-4.1-4.1M197.6 280.9l-4.1-4.1M197.6 285.2l-4.1-4.1M197.1 288.8l-3.6-3.6M195.2 291l-1.7-1.5"/><path class="cls-18" d="M197.8 288.1l-4 4.8v-70.1h4v65.3"/><path class="cls-12" d="M197.6 225.7l-2.6-2.9M197.6 229.8l-4.1-4.1M197.6 234.1l-4.1-4.1M197.6 238.4l-4.1-4.1M197.6 242.7l-4.1-4.1M197.6 246.8l-4.1-4.1M197.6 251.1l-4.1-4.1M197.6 255.4l-4.1-4M197.6 259.5l-4.1-4.1M197.6 263.8l-4.1-4M197.6 268.2l-4.1-4.1M197.6 272.5l-4.1-4.1M197.6 276.6l-4.1-4.1M197.6 280.9l-4.1-4.1M197.6 285.2l-4.1-4.1M197.1 288.8l-3.6-3.6M195.2 291l-1.7-1.5"/><path class="cls-13" d="M191.6 292.6h1.2v34.6h-1.2zM190.2 325.3h1.4v.7h-1.4zM192.8 325.3h1.4v.7h-1.4zM186.6 317.1V307M188.7 310.6l-2.1-3.6-2.2 3.6"/><path class="cls-15" d="M192.8 262.2v34.5"/><path class="cls-13" d="M192.8 296.7h-.7"/><path class="cls-15" d="M191.6 296.7v-34.5"/><path class="cls-13" d="M191.6 262.2h.7M190.2 295.5h1.4M190.9 294.8h-.7M190.2 294.8v.7M194.2 294.8h-1.4M193.5 295.5h.7M194.2 295.5v-.7"/><path class="cls-18" d="M215.8 292.9h-22l4-4.8h18v4.8"/><path class="cls-12" d="M215.6 290.5l-2.2-2.4M213.9 292.9l-4.8-4.8M209.8 292.9l-4.8-4.8M205.5 292.9l-4.8-4.8M201.2 292.9l-4.1-4.1M196.9 292.9l-1.7-1.9"/><path class="cls-18" d="M215.8 292.9h-22l4-4.8h18v4.8"/><path class="cls-12" d="M215.6 290.5l-2.2-2.4M213.9 292.9l-4.8-4.8M209.8 292.9l-4.8-4.8M205.5 292.9l-4.8-4.8M201.2 292.9l-4.1-4.1M196.9 292.9l-1.7-1.9"/><path class="cls-18" d="M102.8 222.8l-4.3-1.4v2.8l4.3-1.4"/><path class="cls-12" d="M98.2 224l2.2-1.9M99.7 223.8l-1.5-1.5"/><path class="cls-19" d="M126.8 16.6V2H95.6v14.6h31.2"/><path class="cls-18" d="M126.8 2v3.4H95.6V2h31.2"/><path class="cls-12" d="M126.6 3.2l-2 2.2M123.9 2l-3.3 3.4M119.8 2l-3.3 3.4M116 2l-3.4 3.4M111.9 2l-3.3 3.4M107.8 2l-3.3 3.4M104 2l-3.4 3.4M99.9 2l-3.3 3.4M95.8 2l-.4.5"/><path class="cls-18" d="M126.8 5.4v.7H95.6v-.7h31.2"/><path class="cls-18" d="M126.8 6.1v5.5H95.6V6.1h31.2"/><path class="cls-12" d="M96.1 11.6V6.1M97.5 11.6V6.1M99 11.6V6.1M100.4 11.6V6.1M101.8 11.6V6.1M103.3 11.6V6.1M104.7 11.6V6.1M106.2 11.6V6.1M107.4 11.6V6.1M108.8 11.6V6.1M110.2 11.6V6.1M111.7 11.6V6.1M113.1 11.6V6.1M114.6 11.6V6.1M116 11.6V6.1M117.4 11.6V6.1M118.9 11.6V6.1M120.3 11.6V6.1M121.8 11.6V6.1M123 11.6V6.1M124.4 11.6V6.1M125.8 11.6V6.1"/><path class="cls-18" d="M126.8 11.6v5H95.6v-5h31.2"/><path class="cls-12" d="M126.6 15.2l-1.2 1.4M126.3 11.6l-5 5M122.5 11.6l-5.1 5M118.4 11.6l-5 5M114.3 11.6l-5 5M110.2 11.6l-5 5M106.4 11.6l-5 5M102.3 11.6l-5 5M98.2 11.6l-2.8 2.9M126.8 11.6H95.6M126.8 6.1H95.6"/><path class="cls-13" d="M126.8 2H95.6M126.8 16.6H95.6"/><path class="cls-19" d="M259.5 16.6V2h-69.8v14.6h69.8"/><path class="cls-18" d="M259.5 2v3.4h-69.8V2h69.8"/><path class="cls-12" d="M259.3 3l-2.4 2.4M256.2 2l-3.4 3.4M252.3 2L249 5.4M248.2 2l-3.3 3.4M244.2 2l-3.4 3.4M240.3 2L237 5.4M236.2 2l-3.3 3.4M232.2 2l-3.4 3.4M228.1 2l-3.4 3.4M224.2 2l-3.3 3.4M220.2 2l-3.4 3.4M216.1 2l-3.4 3.4M212.2 2l-3.3 3.4M208.2 2l-3.4 3.4M204.1 2l-3.4 3.4M200 2l-3.4 3.4M196.2 2l-3.4 3.4M192.1 2l-2.7 2.6"/><path class="cls-18" d="M259.5 5.4v.7h-69.8v-.7h69.8"/><path class="cls-18" d="M259.5 6.1v5.5h-69.8V6.1h69.8"/><path class="cls-12" d="M189.7 11.6V6.1M191.1 11.6V6.1M192.6 11.6V6.1M194 11.6V6.1M195.4 11.6V6.1M196.9 11.6V6.1M198.1 11.6V6.1M199.5 11.6V6.1M201 11.6V6.1M202.4 11.6V6.1M203.8 11.6V6.1M205.3 11.6V6.1M206.7 11.6V6.1M208.2 11.6V6.1M209.6 11.6V6.1M211 11.6V6.1M212.2 11.6V6.1M213.7 11.6V6.1M215.1 11.6V6.1M216.6 11.6V6.1M218 11.6V6.1M219.4 11.6V6.1M220.9 11.6V6.1M222.3 11.6V6.1M223.8 11.6V6.1M225.2 11.6V6.1M226.6 11.6V6.1M227.8 11.6V6.1M229.3 11.6V6.1M230.7 11.6V6.1M232.2 11.6V6.1M233.6 11.6V6.1M235 11.6V6.1M236.5 11.6V6.1M237.9 11.6V6.1M239.4 11.6V6.1M240.8 11.6V6.1M242.2 11.6V6.1M243.4 11.6V6.1M244.9 11.6V6.1M246.3 11.6V6.1M247.8 11.6V6.1M249.2 11.6V6.1M250.6 11.6V6.1M252.1 11.6V6.1M253.5 11.6V6.1M255 11.6V6.1M256.4 11.6V6.1M257.6 11.6V6.1M259 11.6V6.1"/><path class="cls-18" d="M259.5 11.6v5h-69.8v-5h69.8"/><path class="cls-12" d="M259.3 15l-1.7 1.6M258.6 11.6l-5.1 5M254.7 11.6l-5 5M250.6 11.6l-5 5M246.6 11.6l-5.1 5M242.7 11.6l-5 5M238.6 11.6l-5 5M234.6 11.6l-5.1 5M230.7 11.6l-5 5M226.6 11.6l-5 5M222.6 11.6l-5.1 5M218.5 11.6l-5.1 5M214.6 11.6l-5 5M210.6 11.6l-5.1 5M206.5 11.6l-5.1 5M202.6 11.6l-5 5M198.6 11.6l-5.1 5M194.5 11.6l-5.1 5M190.4 11.6l-1 1M259.5 11.6h-69.8M259.5 6.1h-69.8"/><path class="cls-13" d="M259.5 2h-69.8M259.5 16.6h-69.8"/><path class="cls-19" d="M311.6 16.6V2H278v14.6h33.6"/><path class="cls-18" d="M311.6 2v3.4H278V2h33.6"/><path class="cls-12" d="M311.4 3L309 5.4M308.2 2l-3.3 3.4M304.4 2L301 5.4M300.3 2L297 5.4M296.2 2l-3.3 3.4M292.4 2L289 5.4M288.3 2L285 5.4M284.2 2l-3.3 3.4M280.4 2l-2.6 2.4"/><path class="cls-18" d="M311.6 5.4v.7H278v-.7h33.6"/><path class="cls-18" d="M311.6 6.1v5.5H278V6.1h33.6"/><path class="cls-12" d="M279 11.6V6.1M280.4 11.6V6.1M281.8 11.6V6.1M283.3 11.6V6.1M284.7 11.6V6.1M286.2 11.6V6.1M287.4 11.6V6.1M288.8 11.6V6.1M290.2 11.6V6.1M291.7 11.6V6.1M293.1 11.6V6.1M294.6 11.6V6.1M296 11.6V6.1M297.4 11.6V6.1M298.9 11.6V6.1M300.3 11.6V6.1M301.8 11.6V6.1M303 11.6V6.1M304.4 11.6V6.1M305.8 11.6V6.1M307.3 11.6V6.1M308.7 11.6V6.1M310.2 11.6V6.1"/><path class="cls-18" d="M311.6 11.6v5H278v-5h33.6"/><path class="cls-12" d="M311.4 15l-1.7 1.6M310.9 11.6l-5.1 5M306.8 11.6l-5 5M302.7 11.6l-5 5M298.6 11.6l-5 5M294.8 11.6l-5 5M290.7 11.6l-5 5M286.6 11.6l-5 5M282.8 11.6l-5 4.8M278.7 11.6l-.9.7M311.6 11.6H278M311.6 6.1H278"/><path class="cls-13" d="M311.6 2H278M311.6 16.6H278M278 11.6v5h-18.5v-5M276.3 9.4V2h3.4V0h-21.9v2h3.4v7.4M276.3 2h-15.1"/><path class="cls-13" d="M259.5 9.4H278v2.2h-18.5zM274.4 9.4v2.2M263.1 9.4v2.2M278 11.6V9.4M263.1 11.6V9.4M274.4 11.6V9.4M259.5 11.6V9.4M276.3 5.4h-7.4"/><path class="cls-18" d="M278.1 6h-1.8v3.4h1.8"/><path class="cls-12" d="M277.5 9.4V6.1M278.1 6h-1.8v3.4h1.8"/><path class="cls-18" d="M278 2h-1.7v3.4h1.7"/><path class="cls-12" d="M277.8 4.4l-.8 1M276.3 2h-.2"/><path class="cls-13" d="M261.2 5.4h7.7"/><path class="cls-18" d="M259.4 6h1.8v3.4h-1.8"/><path class="cls-12" d="M260.5 9.4V6.1M259.4 6h1.8v3.4h-1.8"/><path class="cls-18" d="M259.5 2h1.7v3.4h-1.7"/><path class="cls-12" d="M261 5.1v.3M260.2 2l-.9 1"/><path class="cls-13" d="M187.8 9.4V2h3.3V0h-66v2h3.4v7.4"/><path class="cls-1" d="M189.7 16.6h-62.9"/><path class="cls-13" d="M126.8 9.4h62.9v2.2h-62.9zM186.1 9.4v2.2M130.4 9.4v2.2M189.7 11.6V9.4M170.7 11.6V9.4M186.1 11.6V9.4M166.6 11.6V9.4M170.7 11.6V9.4M149.8 11.6V9.4M166.6 11.6V9.4M145.8 11.6V9.4M149.8 11.6V9.4M130.4 11.6V9.4M145.8 11.6V9.4M126.8 11.6V9.4"/><path class="cls-18" d="M189.7 6h-1.9v3.4h1.9"/><path class="cls-12" d="M188.2 9.4V6.1M189.7 6h-1.9v3.4h1.9"/><path class="cls-18" d="M189.7 2h-1.9v3.4h1.9"/><path class="cls-12" d="M189.4 4.6l-.7.8M188 2l-.5.5"/><path class="cls-18" d="M126.7 6h1.9v3.4h-1.9"/><path class="cls-12" d="M127.3 9.4V6.1M126.7 6h1.9v3.4h-1.9"/><path class="cls-18" d="M126.8 2h1.7v3.4h-1.7"/><path class="cls-12" d="M128 2l-1.4 1.2M148.3 11.6c0 11-9.1 20.1-20.1 20.1M128.2 31.8V11.6"/><path class="cls-4" d="M148.4 11.6l.2 4.1 1.2 3.6 2 3.6 2.4 3.1 3.1 2.4 3.3 1.9 3.9 1 3.8.5"/><path class="cls-9" d="M168.3 31.8V11.6"/><path class="cls-12" d="M147.1 332.5v-1.9c0-.6-.2-1.2-.3-1.8-.1-.6-.3-1.2-.5-1.8l-.6-1.8c-.2-.6-.5-1.1-.8-1.7-.3-.5-.6-1.1-1-1.6-.3-.5-.7-1-1.1-1.5-.4-.5-.8-.9-1.3-1.4-.4-.4-.9-.9-1.4-1.3-.5-.4-1-.8-1.5-1.1-.5-.3-1.1-.7-1.6-1-.5-.3-1.1-.6-1.7-.8l-1.8-.6c-.6-.2-1.2-.3-1.8-.5l-1.8-.3H128M128.2 313.5v19M147.2 332.5V331M147.4 329.6v-.7M147.4 328.9l.3-.7"/><path class="cls-7" d="M147.9 327l.7-1.7"/><path class="cls-12" d="M149.1 324.1l.3-.5M149.4 323.6l.4-.7"/><path class="cls-8" d="M150.3 321.9l1.2-1.4"/><path class="cls-12" d="M152.5 319.3l.2-.3M152.7 319l1-.7M154.6 317.4l1-.8"/><path class="cls-16" d="M155.6 316.6l1.7-.9"/><path class="cls-12" d="M157.3 315.7l.9-.5M159.7 314.7l.9-.2"/><path class="cls-11" d="M160.6 314.5l2-.5"/><path class="cls-12" d="M162.6 314l1.4-.5M165.4 313.5h.8"/><path class="cls-4" d="M166.2 313.5v19"/><path class="cls-12" d="M166.2 332v.5M220.3 312.5c11 0 20.1 9.1 20.1 20.1M220.4 312.6v20.1"/><path class="cls-4" d="M260.5 312.6l-3.9.2-3.8 1.2-3.4 1.9-3.1 2.4-2.4 3.1-1.9 3.6-1.2 3.6-.5 4.1"/><path class="cls-9" d="M260.5 312.6v20.1"/><path class="cls-13" d="M273.7 126.1v.9M273.7 127v.8M273.7 127.8l.2.9M273.9 128.7l.3.3M274.6 130.2l.3.2M275.6 131.6l.5.5M276.1 132.1l.7.7M276.8 132.8l.5.5M277.3 133.3l.5.2M279 134l.2.2M280.6 134.5l.8.2M281.4 134.7h.7M282.1 134.7h.7M282.8 134.7l.7-.2M284.7 134.2l.5-.2M286.4 133.5l.5-.2M286.9 133.3l.5-.5M287.4 132.8l.7-.7M288.1 132.1l.5-.5M289.3 130.6l.2-.2M290 129l.2-.3M290.2 128.7l.3-.9M290.5 127.8v-.8M290.5 127v-.7M290.5 124.9v-.3M290 123.2v-.2M290 123l-.5-.8M289.5 122.2l-.5-.7M289 121.5l-.4-.7M287.6 119.8l-.2-.2M286.2 118.9v-.3M286.2 118.6l-.8-.2M285.4 118.4l-.9-.5M284.5 117.9h-.7M283.8 117.9h-.3M282.1 117.7h-.3M280.4 117.9h-.7M279.7 117.9l-1 .5M278.7 118.4l-.7.2M278 118.6l-.2.3M276.6 119.6v.2M275.4 120.8l-.3.7M275.1 121.5l-.5.7M274.6 122.2l-.4.8M274.2 123v.2M273.7 124.6v.3"/><path class="cls-18" d="M304.4 332.5h7.2V11.6h-7.2v320.9"/><path class="cls-12" d="M304.2 14l2.6-2.4M304.2 18.1l6.7-6.5M304.2 22.2l7.2-7.2M304.2 26l7.2-7.2M304.2 30.1l7.2-7.2M304.2 34.2l7.2-7.2M304.2 38.2l7.2-7.2M304.2 42.1l7.2-7.2M304.2 46.2l7.2-7.2M304.2 50.2l7.2-7.2M304.2 54.1l7.2-7.2M304.2 58.2l7.2-7.2M304.2 62.2l7.2-7.2M304.2 66.3l7.2-7.2M304.2 70.2l7.2-7.2M304.2 74.2l7.2-7.2M304.2 78.3l7.2-7.2M304.2 82.2l7.2-7.2M304.2 86.2l7.2-7.2M304.2 90.3l7.2-7.2M304.2 94.2l7.2-7.2M304.2 98.2l7.2-7.2M304.2 102.3l7.2-7.2M304.2 106.4l7.2-7.2M304.2 110.2l7.2-7.2M304.2 114.3l7.2-7.2M304.2 118.4l7.2-7.2M304.2 122.2l7.2-7.2M304.2 126.3l7.2-7.2M304.2 130.4l7.2-7.2M304.2 134.2l7.2-7.2M304.2 138.3l7.2-7.2M304.2 142.4l7.2-7.2M304.2 146.5l7.2-7.2M304.2 150.3l7.2-7.2M304.2 154.4l7.2-7.2M304.2 158.5l7.2-7.2M304.2 162.3l7.2-7.2M304.2 166.4l7.2-7.2M304.2 170.5l7.2-7.2M304.2 174.3l7.2-7.2M304.2 178.4l7.2-7.2M304.2 182.5l7.2-7.2M304.2 186.6l7.2-7.2M304.2 190.4l7.2-7.2M304.2 194.5l7.2-7.2M304.2 198.6l7.2-7.2M304.2 202.4l7.2-7.2M304.2 206.5l7.2-7.2M304.2 210.6l7.2-7.2M304.2 214.6l7.2-7.2M304.2 218.5l7.2-7.2M304.2 222.6l7.2-7.2M304.2 226.6l7.2-7.2M304.2 230.5l7.2-7.2M304.2 234.6l7.2-7.2M304.2 238.6l7.2-7.2M304.2 242.5l7.2-7.2M304.2 246.6l7.2-7.2M304.2 250.6l7.2-7.2M304.2 254.7l7.2-7.2M304.2 258.6l7.2-7.2M304.2 262.6l7.2-7.2M304.2 266.7l7.2-7.2M304.2 270.6l7.2-7.2M304.2 274.6l7.2-7.2M304.2 278.7l7.2-7.2M304.2 282.6l7.2-7.2M304.2 286.6l7.2-7.2M304.2 290.7l7.2-7.2M304.2 294.8l7.2-7.2M304.2 298.6l7.2-7.2M304.2 302.7l7.2-7.2M304.2 306.8l7.2-7.2M304.2 310.6l7.2-7.2M304.2 314.7l7.2-7.2M304.2 318.8l7.2-7.2M304.2 322.9l7.2-7.2M304.2 326.7l7.2-7.2M304.2 330.8l7.2-7.2M306.6 332.5l4.8-4.8M310.6 332.5l.8-1M304.6 332.5l-.4-.5M308.7 332.5l-4.5-4.6M311.4 331.3l-7.2-7.2M311.4 327.2l-7.2-7.2M311.4 323.1l-7.2-7.2M311.4 319.3l-7.2-7.2M311.4 315.2l-7.2-7.2M311.4 311.1l-7.2-7.2M311.4 307l-7.2-7.2M311.4 303.2l-7.2-7.2M311.4 299.1l-7.2-7.2M311.4 295l-7.2-7.2M311.4 291.2l-7.2-7.2M311.4 287.1l-7.2-7.2M311.4 283l-7.2-7.2M311.4 279.2l-7.2-7.2M311.4 275.1l-7.2-7.2M311.4 271l-7.2-7.2M311.4 267l-7.2-7.2M311.4 263.1l-7.2-7.2M311.4 259l-7.2-7.2M311.4 255l-7.2-7.2M311.4 251.1l-7.2-7.2M311.4 247l-7.2-7.2M311.4 243l-7.2-7.2M311.4 239.1l-7.2-7.2M311.4 235l-7.2-7.2M311.4 231l-7.2-7.2M311.4 226.9l-7.2-7.2M311.4 223l-7.2-7.2M311.4 219l-7.2-7.2M311.4 214.9l-7.2-7.2M311.4 211l-7.2-7.2M311.4 207l-7.2-7.2M311.4 202.9l-7.2-7.2M311.4 199l-7.2-7.2M311.4 195l-7.2-7.2M311.4 190.9l-7.2-7.2M311.4 186.8l-7.2-7.2M311.4 183l-7.2-7.2M311.4 178.9l-7.2-7.2M311.4 174.8l-7.2-7.2M311.4 171l-7.2-7.2M311.4 166.9l-7.2-7.2M311.4 162.8l-7.2-7.2M311.4 158.7l-7.2-7.2M311.4 154.9l-7.2-7.2M311.4 150.8l-7.2-7.2M311.4 146.7l-7.2-7.2M311.4 142.9l-7.2-7.2M311.4 138.8l-7.2-7.2M311.4 134.7l-7.2-7.2M311.4 130.9l-7.2-7.2M311.4 126.8l-7.2-7.2M311.4 122.7l-7.2-7.2M311.4 118.6l-7.2-7.2M311.4 114.8l-7.2-7.2M311.4 110.7l-7.2-7.2M311.4 106.6l-7.2-7.2M311.4 102.8l-7.2-7.2M311.4 98.7l-7.2-7.2M311.4 94.6l-7.2-7.2M311.4 90.8l-7.2-7.2M311.4 86.7l-7.2-7.2M311.4 82.6l-7.2-7.2M311.4 78.6l-7.2-7.2M311.4 74.7l-7.2-7.2M311.4 70.6l-7.2-7.2M311.4 66.6l-7.2-7.2M311.4 62.7l-7.2-7.2M311.4 58.6l-7.2-7.2M311.4 54.6l-7.2-7.2M311.4 50.5l-7.2-7.2M311.4 46.6l-7.2-7.2M311.4 42.6l-7.2-7.2M311.4 38.5l-7.2-7.2M311.4 34.6l-7.2-7.2M311.4 30.6l-7.2-7.2M311.4 26.5l-7.2-7.2M311.4 22.6l-7.2-7.2M311.4 18.6l-6.8-7M311.4 14.5l-2.9-2.9"/><path class="cls-18" d="M311.6 332.5h-7.2V11.6h7.2v320.9"/><path class="cls-12" d="M304.2 14l2.6-2.4M304.2 18.1l6.7-6.5M304.2 22.2l7.2-7.2M304.2 26l7.2-7.2M304.2 30.1l7.2-7.2M304.2 34.2l7.2-7.2M304.2 38.2l7.2-7.2M304.2 42.1l7.2-7.2M304.2 46.2l7.2-7.2M304.2 50.2l7.2-7.2M304.2 54.1l7.2-7.2M304.2 58.2l7.2-7.2M304.2 62.2l7.2-7.2M304.2 66.3l7.2-7.2M304.2 70.2l7.2-7.2M304.2 74.2l7.2-7.2M304.2 78.3l7.2-7.2M304.2 82.2l7.2-7.2M304.2 86.2l7.2-7.2M304.2 90.3l7.2-7.2M304.2 94.2l7.2-7.2M304.2 98.2l7.2-7.2M304.2 102.3l7.2-7.2M304.2 106.4l7.2-7.2M304.2 110.2l7.2-7.2M304.2 114.3l7.2-7.2M304.2 118.4l7.2-7.2M304.2 122.2l7.2-7.2M304.2 126.3l7.2-7.2M304.2 130.4l7.2-7.2M304.2 134.2l7.2-7.2M304.2 138.3l7.2-7.2M304.2 142.4l7.2-7.2M304.2 146.5l7.2-7.2M304.2 150.3l7.2-7.2M304.2 154.4l7.2-7.2M304.2 158.5l7.2-7.2M304.2 162.3l7.2-7.2M304.2 166.4l7.2-7.2M304.2 170.5l7.2-7.2M304.2 174.3l7.2-7.2M304.2 178.4l7.2-7.2M304.2 182.5l7.2-7.2M304.2 186.6l7.2-7.2M304.2 190.4l7.2-7.2M304.2 194.5l7.2-7.2M304.2 198.6l7.2-7.2M304.2 202.4l7.2-7.2M304.2 206.5l7.2-7.2M304.2 210.6l7.2-7.2M304.2 214.6l7.2-7.2M304.2 218.5l7.2-7.2M304.2 222.6l7.2-7.2M304.2 226.6l7.2-7.2M304.2 230.5l7.2-7.2M304.2 234.6l7.2-7.2M304.2 238.6l7.2-7.2M304.2 242.5l7.2-7.2M304.2 246.6l7.2-7.2M304.2 250.6l7.2-7.2M304.2 254.7l7.2-7.2M304.2 258.6l7.2-7.2M304.2 262.6l7.2-7.2M304.2 266.7l7.2-7.2M304.2 270.6l7.2-7.2M304.2 274.6l7.2-7.2M304.2 278.7l7.2-7.2M304.2 282.6l7.2-7.2M304.2 286.6l7.2-7.2M304.2 290.7l7.2-7.2M304.2 294.8l7.2-7.2M304.2 298.6l7.2-7.2M304.2 302.7l7.2-7.2M304.2 306.8l7.2-7.2M304.2 310.6l7.2-7.2M304.2 314.7l7.2-7.2M304.2 318.8l7.2-7.2M304.2 322.9l7.2-7.2M304.2 326.7l7.2-7.2M304.2 330.8l7.2-7.2M306.6 332.5l4.8-4.8M310.6 332.5l.8-1M304.6 332.5l-.4-.5M308.7 332.5l-4.5-4.6M311.4 331.3l-7.2-7.2M311.4 327.2l-7.2-7.2M311.4 323.1l-7.2-7.2M311.4 319.3l-7.2-7.2M311.4 315.2l-7.2-7.2M311.4 311.1l-7.2-7.2M311.4 307l-7.2-7.2M311.4 303.2l-7.2-7.2M311.4 299.1l-7.2-7.2M311.4 295l-7.2-7.2M311.4 291.2l-7.2-7.2M311.4 287.1l-7.2-7.2M311.4 283l-7.2-7.2M311.4 279.2l-7.2-7.2M311.4 275.1l-7.2-7.2M311.4 271l-7.2-7.2M311.4 267l-7.2-7.2M311.4 263.1l-7.2-7.2M311.4 259l-7.2-7.2M311.4 255l-7.2-7.2M311.4 251.1l-7.2-7.2M311.4 247l-7.2-7.2M311.4 243l-7.2-7.2M311.4 239.1l-7.2-7.2M311.4 235l-7.2-7.2M311.4 231l-7.2-7.2M311.4 226.9l-7.2-7.2M311.4 223l-7.2-7.2M311.4 219l-7.2-7.2M311.4 214.9l-7.2-7.2M311.4 211l-7.2-7.2M311.4 207l-7.2-7.2M311.4 202.9l-7.2-7.2M311.4 199l-7.2-7.2M311.4 195l-7.2-7.2M311.4 190.9l-7.2-7.2M311.4 186.8l-7.2-7.2M311.4 183l-7.2-7.2M311.4 178.9l-7.2-7.2M311.4 174.8l-7.2-7.2M311.4 171l-7.2-7.2M311.4 166.9l-7.2-7.2M311.4 162.8l-7.2-7.2M311.4 158.7l-7.2-7.2M311.4 154.9l-7.2-7.2M311.4 150.8l-7.2-7.2M311.4 146.7l-7.2-7.2M311.4 142.9l-7.2-7.2M311.4 138.8l-7.2-7.2M311.4 134.7l-7.2-7.2M311.4 130.9l-7.2-7.2M311.4 126.8l-7.2-7.2M311.4 122.7l-7.2-7.2M311.4 118.6l-7.2-7.2M311.4 114.8l-7.2-7.2M311.4 110.7l-7.2-7.2M311.4 106.6l-7.2-7.2M311.4 102.8l-7.2-7.2M311.4 98.7l-7.2-7.2M311.4 94.6l-7.2-7.2M311.4 90.8l-7.2-7.2M311.4 86.7l-7.2-7.2M311.4 82.6l-7.2-7.2M311.4 78.6l-7.2-7.2M311.4 74.7l-7.2-7.2M311.4 70.6l-7.2-7.2M311.4 66.6l-7.2-7.2M311.4 62.7l-7.2-7.2M311.4 58.6l-7.2-7.2M311.4 54.6l-7.2-7.2M311.4 50.5l-7.2-7.2M311.4 46.6l-7.2-7.2M311.4 42.6l-7.2-7.2M311.4 38.5l-7.2-7.2M311.4 34.6l-7.2-7.2M311.4 30.6l-7.2-7.2M311.4 26.5l-7.2-7.2M311.4 22.6l-7.2-7.2M311.4 18.6l-6.8-7M311.4 14.5l-2.9-2.9"/><path class="cls-18" d="M102.8 11.6v90.7h-7.2V11.6h7.2"/><path class="cls-12" d="M95.4 14.5l2.8-2.9M95.4 18.3l6.9-6.7M95.4 22.4l7.2-7.2M95.4 26.5l7.2-7.2M95.4 30.6l7.2-7.2M95.4 34.4l7.2-7.2M95.4 38.5l7.2-7.2M95.4 42.6l7.2-7.2M95.4 46.4l7.2-7.2M95.4 50.5l7.2-7.2M95.4 54.6l7.2-7.2M95.4 58.6l7.2-7.2M95.4 62.5l7.2-7.2M95.4 66.6l7.2-7.2M95.4 70.6l7.2-7.2M95.4 74.5l7.2-7.2M95.4 78.6l7.2-7.2M95.4 82.6l7.2-7.2M95.4 86.5l7.2-7.2M95.4 90.6l7.2-7.2M95.4 94.6l7.2-7.2M95.4 98.7l7.2-7.2M95.8 102.3l6.8-6.9M99.7 102.3l2.9-2.9M98.7 102.3l-3.3-3.1M102.6 102.3l-7.2-7.2M102.6 98.2L95.4 91M102.6 94.4l-7.2-7.2M102.6 90.3l-7.2-7.2M102.6 86.2L95.4 79M102.6 82.4l-7.2-7.2M102.6 78.3l-7.2-7.2M102.6 74.2L95.4 67M102.6 70.4l-7.2-7.2M102.6 66.3l-7.2-7.2M102.6 62.2L95.4 55M102.6 58.2L95.4 51M102.6 54.3l-7.2-7.2M102.6 50.2L95.4 43M102.6 46.2L95.4 39M102.6 42.3l-7.2-7.2M102.6 38.2L95.4 31M102.6 34.2L95.4 27M102.6 30.3l-7.2-7.2M102.6 26.2L95.4 19M102.6 22.2L95.4 15M102.6 18.1l-6.5-6.5M102.6 14.2l-2.4-2.6"/><path class="cls-18" d="M102.8 11.6v90.7h-7.2V11.6h7.2"/><path class="cls-12" d="M95.4 14.5l2.8-2.9M95.4 18.3l6.9-6.7M95.4 22.4l7.2-7.2M95.4 26.5l7.2-7.2M95.4 30.6l7.2-7.2M95.4 34.4l7.2-7.2M95.4 38.5l7.2-7.2M95.4 42.6l7.2-7.2M95.4 46.4l7.2-7.2M95.4 50.5l7.2-7.2M95.4 54.6l7.2-7.2M95.4 58.6l7.2-7.2M95.4 62.5l7.2-7.2M95.4 66.6l7.2-7.2M95.4 70.6l7.2-7.2M95.4 74.5l7.2-7.2M95.4 78.6l7.2-7.2M95.4 82.6l7.2-7.2M95.4 86.5l7.2-7.2M95.4 90.6l7.2-7.2M95.4 94.6l7.2-7.2M95.4 98.7l7.2-7.2M95.8 102.3l6.8-6.9M99.7 102.3l2.9-2.9M98.7 102.3l-3.3-3.1M102.6 102.3l-7.2-7.2M102.6 98.2L95.4 91M102.6 94.4l-7.2-7.2M102.6 90.3l-7.2-7.2M102.6 86.2L95.4 79M102.6 82.4l-7.2-7.2M102.6 78.3l-7.2-7.2M102.6 74.2L95.4 67M102.6 70.4l-7.2-7.2M102.6 66.3l-7.2-7.2M102.6 62.2L95.4 55M102.6 58.2L95.4 51M102.6 54.3l-7.2-7.2M102.6 50.2L95.4 43M102.6 46.2L95.4 39M102.6 42.3l-7.2-7.2M102.6 38.2L95.4 31M102.6 34.2L95.4 27M102.6 30.3l-7.2-7.2M102.6 26.2L95.4 19M102.6 22.2L95.4 15M102.6 18.1l-6.5-6.5M102.6 14.2l-2.4-2.6"/><path class="cls-14" d="M10.6 165.7h29.8v39.6H10.6zM58.6 215.6h132.3M102.8 222.8h95M58.6 222.8h37M102.8 222.8h95M58.6 215.6h132.3M58.6 222.8h37M242.7 107.1V16.6M247.8 107.1V16.6M242.7 16.6h5.1M247.8 107.1V16.6M242.7 107.1V16.6M242.7 107.1h5.1M197.8 102.3h19M197.8 107.1h19M216.8 102.3v4.8M197.8 107.1h19M197.8 102.3h19M197.8 102.3v4.8M273.9 102.3h30.5M273.9 107.1h30.5M304.4 102.3v4.8M273.9 107.1h30.5M273.9 102.3h30.5M273.9 102.3v4.8M281.8 338.7h29.8M281.8 342.1h29.8M281.8 327.4h29.8M281.8 332.5h29.8M167.6 338.7H219M167.6 342.1H219M167.6 327.4H219M167.6 332.5H219M95.6 338.7h31.2M95.6 342.1h31.2M95.6 327.4h31.2M95.6 332.5h31.2M219 332.5v-5.1M219 342.1h1.6v-3.4H219M220.6 338.7v-3.8M281.8 332.5v-5.1M281.8 342.1h-1.9v-3.4h1.9M279.9 338.7v-3.8M128.5 342.1h-3.4M165.7 342.1h3.3M126.8 332.5v-5.1M126.8 342.1h1.7v-3.4h-1.7M128.5 338.7v-3.8M167.6 332.5v-5.1M167.6 342.1h-1.9v-3.4h1.9M165.7 338.7v-3.8M95.6 332.5V222.8M102.8 332.5V222.8M102.8 332.5V222.8M95.6 332.5V222.8M95.6 332.5h7.2M197.8 142.6v80.2M190.9 142.6v73M190.9 142.6v73M197.8 142.6v80.2M197.8 102.3v4.8M190.9 109.3h6M190.9 137.1h6M190.9 109.3h6M190.9 107.1v2.2M190.9 137.1h6M190.9 142.6v-5.5M197.8 107.1h-.9M197.8 142.6h-.9M190.9 107.1v2.2M190.9 142.6v-5.5M196.9 109.3v-2.2M196.9 137.1v5.5M.6 107.1v-4.8M.6 107.1v-4.8M.6 222.8v-80.2M7.8 147.9v-5.3M7.8 212.7V158M7.8 147.9v-5.3M.6 222.8v-80.2M7.8 212.7V158M7.8 137.1h-6M7.8 109.3h-6M7.8 137.1h-6M7.8 142.6v-5.5M7.8 109.3h-6M7.8 107.1v2.2M.6 142.6h1.2M.6 107.1h1.2M7.8 142.6v-5.5M7.8 107.1v2.2M1.8 137.1v5.5M1.8 109.3v-2.2M53.1 212.7V158M58.6 215.6v-67.7M58.6 215.6v-67.7M53.1 212.7V158M102.8 102.3h95M.6 102.3h95M7.8 109.3h183.1M7.8 109.3h183.1M102.8 102.3h95M.6 102.3h95M58.6 222.8H.6M53.1 212.7H7.8M53.1 212.7H7.8M58.6 222.8H.6M53.1 158h-9.6M58.6 147.9H43.5M58.6 147.9H43.5M53.1 158h-9.6M40.4 147.9v8.7M10.9 147.9v8.7M40.4 147.9v8.7M43.5 147.9h-3.1M10.9 147.9v8.7M7.8 147.9h3.1M43.5 158v-1.4M7.8 158v-1.4M43.5 147.9h-3.1M7.8 147.9h3.1M40.4 156.6h3.1M10.9 156.6H7.8M197.8 222.8v65.3M193.8 222.8v70.1M193.8 222.8v70.1M197.8 222.8v65.3M197.8 222.8h-4M197.8 288.1h18M193.8 292.9h22M215.8 288.1v4.8M193.8 292.9h22M197.8 288.1h18M126.8 5.4H95.6M126.8 2H95.6M126.8 16.6H95.6M126.8 11.6H95.6M259.5 5.4h-69.8M259.5 2h-69.8M259.5 16.6h-69.8M259.5 11.6h-69.8M311.6 5.4H278M311.6 2H278M311.6 16.6H278M311.6 11.6H278M276.3 2h3.4M261.2 2h-3.4M278 11.6v5M278 2h-1.7v3.4h1.7M276.3 5.4v4M259.5 11.6v5M259.5 2h1.7v3.4h-1.7M261.2 5.4v4M187.8 2h3.3M128.5 2h-3.4M189.7 11.6v5M189.7 2h-1.9v3.4h1.9M187.8 5.4v4M126.8 11.6v5M126.8 2h1.7v3.4h-1.7M128.5 5.4v4M304.4 332.5V11.6M311.6 332.5V11.6M304.4 11.6h7.2M311.6 332.5V11.6M304.4 332.5V11.6M304.4 332.5h7.2M95.6 102.3V11.6M102.8 102.3V11.6M95.6 11.6h7.2M102.8 102.3V11.6M95.6 102.3V11.6"/></g><g id="Mbel"><path class="cls-2" d="M104.2 224h56.9v28.6h-56.9zM104.2 269.6h15.6v56.6h-15.6zM259 175.3h22.8v51.1H259zM249.2 225v-12.8M257.7 225h-8.5M249.2 212.2h8.5M249.2 207.2v-12.7M257.7 207.2h-8.5M249.2 194.5h8.5M249.2 189.5v-12.7M257.7 189.5h-8.5M249.2 176.8h8.5M291.7 225v-12.8M283.2 225h8.5M291.7 212.2h-8.5M291.7 207.2v-12.7M283.2 207.2h8.5M291.7 194.5h-8.5M291.7 189.5v-12.7M283.2 189.5h8.5M291.7 176.8h-8.5M253.5 272h14.2v28.3h-14.2zM298.5 312.8h-18.7-.2-.2-.1l-.1-.1-.1-.1v-.1-.2V287.2v-.2-.2-.1l.1-.1.1-.1h19.2v26.6"/><path class="cls-2" d="M302.2 317.3h-22.4-.2-.2-.1l-.1-.1-.1-.1v-.1-.2-3-.2-.2-.1l.1-.1.1-.1h23.2c.1 0 .2.1.3.2 0 0 .1.2.2.3V317c0 .1-.1.2-.2.3 0 0-.2.1-.3.2h-.3M298.5 286.1h4c.1 0 .2-.1.3-.2 0 0 .1-.2.2-.3v-25.2-.3c0-.1-.1-.2-.2-.3 0 0-.2-.1-.3-.2h-4M296.2 259.5v53.3M298.5 259.5h-18.7-.2-.2-.1l-.1.1-.1.1v25.9l.1.1.1.1h19.2v-26.6M302.2 254.9h-22.4-.2-.2-.1l-.1.1-.1.1V258.9l.1.1.1.1h23.2c.1 0 .2-.1.3-.2s.1-.2.2-.3V255.5v-.3c0-.1-.1-.2-.2-.3 0 0-.2-.1-.3-.2h-.3M298.5 286.1h4c.1 0 .2.1.3.2 0 0 .1.2.2.3v25.5c0 .1-.1.2-.2.3 0 0-.2.1-.3.2h-4M104.2 44h45.4v56.6h-45.4zM190.4 18.1h51.1v15.6h-51.1z"/></g><g id="Text"><path d="M232.8 147.5h-.7v-5.3h.7v2.5l2.1-2.5h.8l-2.2 2.6 2.2 2.7h-.9l-2-2.5v2.5zM239.8 145.6c0 1.1-.8 1.9-1.9 1.9s-1.9-.8-1.9-1.9.8-1.9 1.9-1.9 1.9.8 1.9 1.9zm-3.1 0c0 .8.5 1.4 1.3 1.4s1.2-.6 1.2-1.4-.5-1.4-1.2-1.4-1.3.6-1.3 1.4zM243.8 147c-.4.4-.8.5-1.4.5-1.1 0-1.8-.8-1.8-1.9s.8-1.9 1.8-1.9 1 .2 1.3.6l-.4.4c-.3-.3-.6-.4-.9-.4-.7 0-1.2.6-1.2 1.4s.5 1.4 1.2 1.4.6-.1.9-.4l.4.4zM245.4 144.3c.3-.4.7-.6 1.1-.6s.7.1.9.3c.2.2.3.5.3 1v2.5h-.6v-2.4c0-.5-.2-.8-.7-.8s-.5.1-.7.3c-.2.2-.2.4-.2.7v2.2h-.6v-5.3h.6v2.2zM249.3 145.8c0 .3 0 .5.2.7.2.3.6.5 1 .5s.9-.2 1.1-.6l.5.2c-.3.6-.9 1-1.6 1-1.1 0-1.9-.8-1.9-1.9s.8-1.9 1.9-1.9 1.9.8 1.9 1.9v.2h-3.1zm2.4-.4c0-.3 0-.4-.2-.6-.2-.3-.6-.5-1-.5s-.8.2-1 .5c-.1.2-.2.3-.2.6h2.4zM254.1 143.8v.5c.3-.4.6-.6 1.1-.6s.6.1.9.3c.2.2.3.5.3 1v2.5h-.6v-2.4c0-.3 0-.5-.1-.6-.1-.2-.3-.2-.6-.2s-.5.1-.7.3c-.2.2-.2.4-.2.7v2.2h-.6v-3.7h.6zM257.6 148.8h-.4l.7-2.1.6.2-.8 1.9zM262.8 144.5h2.1v.6h-2.1v1.8h2.1v.6h-2.8v-5.3h2.8v.6h-2.1v1.8zM267.8 144.8c0-.4-.3-.6-.7-.6s-.7.2-.7.5.2.4.8.6c.5.1.7.2.9.4.2.2.3.4.3.7 0 .6-.5 1.1-1.3 1.1s-1.3-.4-1.4-1.1h.6c0 .4.3.6.8.6s.7-.2.7-.5-.2-.5-.8-.6c-.8-.2-1.2-.6-1.2-1.1s.5-1.1 1.3-1.1 1.3.4 1.3 1.1h-.6zM271.3 144.8c0-.4-.3-.6-.7-.6s-.7.2-.7.5.2.4.8.6c.5.1.7.2.9.4.2.2.3.4.3.7 0 .6-.5 1.1-1.3 1.1s-1.3-.4-1.4-1.1h.6c0 .4.3.6.8.6s.7-.2.7-.5-.2-.5-.8-.6c-.8-.2-1.2-.6-1.2-1.1s.5-1.1 1.3-1.1 1.3.4 1.3 1.1h-.6zM273.5 145.8c0 .3 0 .5.2.7.2.3.6.5 1 .5s.9-.2 1.1-.6l.5.2c-.3.6-.9 1-1.6 1-1.1 0-1.9-.8-1.9-1.9s.8-1.9 1.9-1.9 1.9.8 1.9 1.9v.2h-3.1zm2.4-.4c0-.3 0-.4-.2-.6-.2-.3-.6-.5-1-.5s-.8.2-1 .5c-.1.2-.2.3-.2.6h2.4zM278.2 143.8v.5c.3-.4.6-.6 1.1-.6s.6.1.9.3c.2.2.3.5.3 1v2.5h-.6v-2.4c0-.3 0-.5-.1-.6-.1-.2-.3-.2-.6-.2s-.5.1-.7.3c-.2.2-.2.4-.2.7v2.2h-.6v-3.7h.6zM281.8 148.8h-.4l.7-2.1.6.2-.8 1.9zM237.6 151.1h.7l-1.6 5.3h-.6l-1.2-4.2-1.2 4.2h-.6l-1.6-5.3h.7l1.2 4.1 1.2-4.1h.6l1.1 4.1 1.2-4.1zM242.4 154.6c0 1.1-.8 1.9-1.9 1.9s-1.9-.8-1.9-1.9.8-1.9 1.9-1.9 1.9.8 1.9 1.9zm-3.1 0c0 .8.5 1.4 1.3 1.4s1.2-.6 1.2-1.4-.5-1.4-1.2-1.4-1.3.6-1.3 1.4zM244.1 153.3c.3-.4.7-.6 1.1-.6s.7.1.9.3c.2.2.3.5.3 1v2.5h-.6v-2.4c0-.5-.2-.8-.7-.8s-.5.1-.7.3c-.2.2-.2.4-.2.7v2.2h-.6v-5.3h.6v2.2zM248.3 152.8v.5c.3-.4.6-.6 1.1-.6s.6.1.9.3c.2.2.3.5.3 1v2.5h-.6v-2.4c0-.3 0-.5-.1-.6-.1-.2-.3-.2-.6-.2s-.5.1-.7.3c-.2.2-.2.4-.2.7v2.2h-.6v-3.7h.6zM252.3 154.8c0 .3 0 .5.2.7.2.3.6.5 1 .5s.9-.2 1.1-.6l.5.2c-.3.6-.9 1-1.6 1-1.1 0-1.9-.8-1.9-1.9s.8-1.9 1.9-1.9 1.9.8 1.9 1.9v.2h-3.1zm2.4-.4c0-.3 0-.4-.2-.6-.2-.3-.6-.5-1-.5s-.8.2-1 .5c-.1.2-.2.3-.2.6h2.4zM257.1 152.8v.5c.3-.4.6-.6 1.1-.6s.6.1.9.3c.2.2.3.5.3 1v2.5h-.6v-2.4c0-.3 0-.5-.1-.6-.1-.2-.3-.2-.6-.2s-.5.1-.7.3c-.2.2-.2.4-.2.7v2.2h-.6v-3.7h.6zM234.8 164.9v.6h-3l1.9-2.7c.5-.8.7-1 .7-1.3 0-.5-.4-.8-.9-.8s-.7.2-.8.4v.6h-.6c0-1 .6-1.6 1.5-1.6s1.5.5 1.5 1.3-.2.8-.6 1.5l-1.4 2h1.9zM238.8 162.9c.3.3.4.6.4 1 0 .9-.7 1.6-1.7 1.6s-1.6-.6-1.6-1.6.1-.8.4-1.1c.2-.2.3-.3.6-.4-.3 0-.4-.2-.5-.4-.2-.2-.3-.5-.3-.8 0-.8.6-1.3 1.5-1.3s1.4.6 1.4 1.3-.1.6-.3.8c-.1.2-.3.2-.5.3.3 0 .4.2.6.3zm-2.3 1c0 .6.5 1 1 1s1-.5 1-1-.5-1-1-1-1 .5-1 1zm.2-2.5c0 .5.4.8.8.8s.9-.4.9-.8-.4-.8-.8-.8-.9.3-.9.8zM241.1 165.1c0 .2-.2.4-.4.4s-.4-.2-.4-.4.2-.4.4-.4.4.2.4.4zM243.4 162.4c.2 0 .3-.1.5-.1.9 0 1.6.7 1.6 1.6s-.8 1.7-1.7 1.7-1.7-.8-1.7-1.7.1-.7.4-1.2l1.5-2.5h.7l-1.4 2.1zm-.7 1.5c0 .6.5 1.1 1.1 1.1s1.1-.5 1.1-1.1-.5-1.1-1.1-1.1-1.1.5-1.1 1.1zM248.7 161.8v.5c.3-.4.6-.6 1-.6s.8.2 1 .7c.3-.5.6-.7 1.2-.7s.7.1.9.4c.2.2.2.4.2 1v2.4h-.6v-2.2c0-.4 0-.6-.1-.7-.1-.2-.4-.3-.6-.3-.5 0-.8.4-.8 1v2.2h-.6v-2.2c0-.4 0-.5-.1-.7-.1-.2-.3-.3-.6-.3-.5 0-.9.4-.9 1v2.2h-.6v-3.7h.6zM256.3 163v.4h-2l1.2-1.6c.3-.5.4-.6.4-.8 0-.3-.2-.4-.5-.4s-.5.2-.5.6h-.4c0-.6.4-1 1-1s1 .3 1 .8-.1.5-.4.9l-.8 1.1h1.1z"/><g><path d="M218.9 363.3c1.1 0 1.7.5 1.7 1.4s-.1.6-.3.9c-.1.2-.3.2-.5.3.3 0 .4.1.6.2.3.2.4.6.4 1s-.2.9-.6 1.2c-.3.2-.7.3-1.3.3h-1.5v-5.3h1.5zm-.8 2.4h.7c.4 0 .7 0 .9-.2.2-.2.3-.4.3-.7s-.2-.6-.4-.8c-.2 0-.4-.1-.9-.1h-.6v1.8zm0 2.4h.7c.6 0 .8 0 1-.2.3-.1.4-.4.4-.8 0-.6-.4-.9-1.2-.9h-.8v1.8zM224.8 364.9h.6v3.7h-.6v-.7c-.4.6-.8.8-1.3.8-1 0-1.7-.8-1.7-1.9s.7-1.9 1.8-1.9 1 .2 1.3.7v-.6zm-2.1.9c-.2.3-.3.6-.3 1 0 .8.5 1.4 1.2 1.4s1.3-.6 1.3-1.4-.5-1.4-1.2-1.4-.7.1-.9.4zM226.8 368.6v-5.3h.6v5.3h-.6zM229.3 368.6h-.6v-5.3h.6v3.3l1.5-1.6h.8l-1.6 1.8 1.6 1.9h-.8l-1.5-1.6v1.6zM235.8 366.8c0 1.1-.8 1.9-1.9 1.9s-1.9-.8-1.9-1.9.8-1.9 1.9-1.9 1.9.8 1.9 1.9zm-3.1 0c0 .8.5 1.4 1.3 1.4s1.2-.6 1.2-1.4-.5-1.4-1.2-1.4-1.3.6-1.3 1.4zM237.5 364.9v.5c.3-.4.6-.6 1.1-.6s.6.1.9.3c.2.2.3.5.3 1v2.5h-.6v-2.4c0-.3 0-.5-.1-.6-.1-.2-.3-.2-.6-.2s-.5.1-.7.3c-.2.2-.2.4-.2.7v2.2h-.6v-3.7h.6zM219.7 372.9H218v1.4c.3-.1.5-.2.8-.2.9 0 1.6.7 1.6 1.7s-.8 1.8-1.8 1.8-1.3-.4-1.6-1.1l.6-.2c.1.2.2.3.3.4.2.2.5.3.8.3.6 0 1.1-.5 1.1-1.2s-.5-1.1-1.2-1.1-.8.2-1.2.5v-3h2.3v.6zM222.3 377.3c0 .2-.2.4-.4.4s-.4-.2-.4-.4.2-.4.4-.4.4.2.4.4zM226.6 376c0 .6-.1 1-.4 1.2-.3.3-.7.4-1.2.4s-1-.2-1.2-.5c-.3-.3-.4-.6-.4-1.4v-1.8c0-.7 0-1 .3-1.3.3-.3.7-.5 1.2-.5s.9.1 1.2.4c.3.3.4.6.4 1.2v2.1zm-2.5-.1c0 .6 0 .7.2.9.2.2.5.3.8.3s.6-.1.8-.4c.1-.2.2-.4.2-.8v-2c0-.4 0-.6-.3-.8-.2-.2-.4-.2-.7-.2s-.6.1-.8.4c-.1.2-.2.4-.2.8v1.8zM229.9 373.9v.5c.3-.4.6-.6 1-.6s.8.2 1 .7c.3-.5.6-.7 1.2-.7s.7.1.9.4c.2.2.2.4.2 1v2.4h-.6v-2.2c0-.4 0-.6-.1-.7-.1-.2-.4-.3-.6-.3-.5 0-.8.4-.8 1v2.2h-.6v-2.2c0-.4 0-.5-.1-.7-.1-.2-.3-.3-.6-.3-.5 0-.9.4-.9 1v2.2h-.6v-3.7h.6zM237.5 375.1v.4h-2l1.2-1.6c.3-.5.4-.6.4-.8 0-.3-.2-.4-.5-.4s-.5.2-.5.6h-.4c0-.6.4-1 1-1s1 .3 1 .8-.1.5-.4.9l-.8 1.1h1.1z"/></g><g><path d="M160.7 78.8v.6h-3.8l3-4.8h-2.7V74h3.8l-3 4.8h2.7zM162.5 74.7c0 .2-.2.4-.4.4s-.4-.2-.4-.4.2-.4.4-.4.4.2.4.4zm0 4.7h-.6v-3.7h.6v3.7zM164.4 75.7v.5c.3-.4.6-.6 1-.6s.8.2 1 .7c.3-.5.6-.7 1.2-.7s.7.1.9.4c.2.2.2.4.2 1v2.4h-.6v-2.2c0-.4 0-.6-.1-.7-.1-.2-.4-.3-.6-.3-.5 0-.8.4-.8 1v2.2h-.6v-2.2c0-.4 0-.5-.1-.7-.1-.2-.3-.3-.6-.3-.5 0-.9.4-.9 1v2.2h-.6v-3.7h.6zM170.7 75.7v.5c.3-.4.6-.6 1-.6s.8.2 1 .7c.3-.5.6-.7 1.2-.7s.7.1.9.4c.2.2.2.4.2 1v2.4h-.6v-2.2c0-.4 0-.6-.1-.7-.1-.2-.4-.3-.6-.3-.5 0-.8.4-.8 1v2.2h-.6v-2.2c0-.4 0-.5-.1-.7-.1-.2-.3-.3-.6-.3-.5 0-.9.4-.9 1v2.2h-.6v-3.7h.6zM176.8 77.8c0 .3 0 .5.2.7.2.3.6.5 1 .5s.9-.2 1.1-.6l.5.2c-.3.6-.9 1-1.6 1-1.1 0-1.9-.8-1.9-1.9s.8-1.9 1.9-1.9 1.9.8 1.9 1.9v.2h-3.1zm2.4-.4c0-.3 0-.4-.2-.6-.2-.3-.6-.5-1-.5s-.8.2-1 .5c-.1.2-.2.3-.2.6h2.4zM181.6 75.7v.6c.1-.3.2-.4.3-.5.2-.1.4-.2.7-.2h.1v.6h-.2c-.3 0-.6.2-.8.4-.2.2-.2.4-.2.9v1.9h-.6v-3.7h.6zM157.7 84.8v-.6l1.8-1.2v5.4h-.6V84l-1.2.8zM163.7 83.7H162v1.4c.3-.1.5-.2.8-.2.9 0 1.6.7 1.6 1.7s-.8 1.8-1.8 1.8-1.3-.4-1.6-1.1l.6-.2c.1.2.2.3.3.4.2.2.5.3.8.3.6 0 1.1-.5 1.1-1.2s-.5-1.1-1.2-1.1-.8.2-1.2.5v-3h2.3v.6zM166.2 88.1c0 .2-.2.4-.4.4s-.4-.2-.4-.4.2-.4.4-.4.4.2.4.4zM167.2 84.8v-.6L169 83v5.4h-.6V84l-1.2.8zM173.2 84.7v.5c.3-.4.6-.6 1-.6s.8.2 1 .7c.3-.5.6-.7 1.2-.7s.7.1.9.4c.2.2.2.4.2 1v2.4h-.6v-2.2c0-.4 0-.6-.1-.7-.1-.2-.4-.3-.6-.3-.5 0-.8.4-.8 1v2.2h-.6v-2.2c0-.4 0-.5-.1-.7-.1-.2-.3-.3-.6-.3-.5 0-.9.4-.9 1v2.2h-.6v-3.7h.6zM180.8 85.9v.4h-2l1.2-1.6c.3-.5.4-.6.4-.8 0-.3-.2-.4-.5-.4s-.5.2-.5.6h-.4c0-.6.4-1 1-1s1 .3 1 .8-.1.5-.4.9l-.8 1.1h1.1z"/></g><g><path d="M141.1 283.2v.6h-3.8l3-4.8h-2.7v-.6h3.8l-3 4.8h2.7zM143 279.1c0 .2-.2.4-.4.4s-.4-.2-.4-.4.2-.4.4-.4.4.2.4.4zm0 4.7h-.6v-3.7h.6v3.7zM144.9 280.1v.5c.3-.4.6-.6 1-.6s.8.2 1 .7c.3-.5.6-.7 1.2-.7s.7.1.9.4c.2.2.2.4.2 1v2.4h-.6v-2.2c0-.4 0-.6-.1-.7-.1-.2-.4-.3-.6-.3-.5 0-.8.4-.8 1v2.2h-.6v-2.2c0-.4 0-.5-.1-.7-.1-.2-.3-.3-.6-.3-.5 0-.9.4-.9 1v2.2h-.6v-3.7h.6zM151.2 280.1v.5c.3-.4.6-.6 1-.6s.8.2 1 .7c.3-.5.6-.7 1.2-.7s.7.1.9.4c.2.2.2.4.2 1v2.4h-.6v-2.2c0-.4 0-.6-.1-.7-.1-.2-.4-.3-.6-.3-.5 0-.8.4-.8 1v2.2h-.6v-2.2c0-.4 0-.5-.1-.7-.1-.2-.3-.3-.6-.3-.5 0-.9.4-.9 1v2.2h-.6v-3.7h.6zM157.3 282.2c0 .3 0 .5.2.7.2.3.6.5 1 .5s.9-.2 1.1-.6l.5.2c-.3.6-.9 1-1.6 1-1.1 0-1.9-.8-1.9-1.9s.8-1.9 1.9-1.9 1.9.8 1.9 1.9v.2h-3.1zm2.4-.4c0-.3 0-.4-.2-.6-.2-.3-.6-.5-1-.5s-.8.2-1 .5c-.1.2-.2.3-.2.6h2.4zM162 280.1v.6c.1-.3.2-.4.3-.5.2-.1.4-.2.7-.2h.1v.6h-.2c-.3 0-.6.2-.8.4-.2.2-.2.4-.2.9v1.9h-.6v-3.7h.6zM138.1 289.2v-.6l1.8-1.2v5.4h-.6v-4.4l-1.2.8zM141.6 289.2v-.6l1.8-1.2v5.4h-.6v-4.4l-1.2.8zM146 292.5c0 .2-.2.4-.4.4s-.4-.2-.4-.4.2-.4.4-.4.4.2.4.4zM148.8 290.7c-.2 0-.3.1-.5.1-.9 0-1.6-.7-1.6-1.6s.8-1.7 1.7-1.7 1.7.7 1.7 1.7-.1.7-.4 1.2l-1.5 2.5h-.7l1.3-2.1zm-1.5-1.5c0 .6.5 1.1 1.1 1.1s1.1-.5 1.1-1.1-.5-1.1-1-1.1-1.1.5-1.1 1.1zM153.3 289.1v.5c.3-.4.6-.6 1-.6s.8.2 1 .7c.3-.5.6-.7 1.2-.7s.7.1.9.4c.2.2.2.4.2 1v2.4h-.6v-2.2c0-.4 0-.6-.1-.7-.1-.2-.4-.3-.6-.3-.5 0-.8.4-.8 1v2.2h-.6v-2.2c0-.4 0-.5-.1-.7-.1-.2-.3-.3-.6-.3-.5 0-.9.4-.9 1v2.2h-.6v-3.7h.6zM160.9 290.3v.4h-2l1.2-1.6c.3-.5.4-.6.4-.8 0-.3-.2-.4-.5-.4s-.5.2-.5.6h-.4c0-.6.4-1 1-1s1 .3 1 .8-.1.5-.4.9l-.8 1.1h1.1z"/></g><g><path d="M256.2 28.6h1.4c1.6 0 2.6 1 2.6 2.6s-.3 1.6-.8 2.1c-.5.4-1.1.6-1.9.6h-1.3v-5.3zm.7 4.8h.2c.9 0 1.3 0 1.7-.4.5-.4.7-1 .7-1.8 0-1.3-.7-2-1.9-2h-.7v4.2zM264.1 30.2v2.4c0 .5 0 .8-.4 1-.3.2-.6.4-1.1.4s-.8-.1-1.1-.4c-.2-.2-.4-.6-.4-1v-2.4h.6v2.3c0 .5.3.9.8.9s.5-.1.7-.3c.1-.1.2-.3.2-.6v-2.4h.6zM267.2 31.2c0-.4-.3-.6-.7-.6s-.7.2-.7.5.2.4.8.6c.5.1.7.2.9.4.2.2.3.4.3.7 0 .6-.5 1.1-1.3 1.1s-1.3-.4-1.4-1.1h.6c0 .4.3.6.8.6s.7-.2.7-.5-.2-.5-.8-.6c-.8-.2-1.2-.6-1.2-1.1s.5-1.1 1.3-1.1 1.3.4 1.3 1.1h-.6zM271.9 33.4c-.4.4-.8.5-1.4.5-1.1 0-1.8-.8-1.8-1.9s.8-1.9 1.8-1.9 1 .2 1.3.6l-.4.4c-.3-.3-.6-.4-.9-.4-.7 0-1.2.6-1.2 1.4s.5 1.4 1.2 1.4.6-.1.9-.4l.4.4zM273.4 30.7c.3-.4.7-.6 1.1-.6s.7.1.9.3c.2.2.3.5.3 1v2.5h-.6v-2.4c0-.5-.2-.8-.7-.8s-.5.1-.7.3c-.2.2-.2.4-.2.7v2.2h-.6v-5.3h.6v2.2zM277.4 32.3c0 .3 0 .5.2.7.2.3.6.5 1 .5s.9-.2 1.1-.6l.5.2c-.3.6-.9 1-1.6 1-1.1 0-1.9-.8-1.9-1.9s.8-1.9 1.9-1.9 1.9.8 1.9 1.9v.2h-3.1zm2.4-.4c0-.3 0-.4-.2-.6-.2-.3-.6-.5-1-.5s-.8.2-1 .5c-.1.2-.2.3-.2.6h2.4zM258.5 38.2h-1.7v1.4c.3-.1.5-.2.8-.2.9 0 1.6.7 1.6 1.7s-.8 1.8-1.8 1.8-1.3-.4-1.6-1.1l.6-.2c.1.2.2.3.3.4.2.2.5.3.8.3.6 0 1.1-.5 1.1-1.2s-.5-1.1-1.2-1.1-.8.2-1.2.5v-3h2.3v.6zM261 42.6c0 .2-.2.4-.4.4s-.4-.2-.4-.4.2-.4.4-.4.4.2.4.4zM265.3 41.3c0 .6-.1 1-.4 1.2-.3.3-.7.4-1.2.4s-1-.2-1.2-.5c-.3-.3-.4-.6-.4-1.4v-1.8c0-.7 0-1 .3-1.3.3-.3.7-.5 1.2-.5s.9.1 1.2.4c.3.3.4.6.4 1.2v2.1zm-2.5-.1c0 .6 0 .7.2.9.2.2.5.3.8.3s.6-.1.8-.4c.1-.2.2-.4.2-.8v-2c0-.4 0-.6-.3-.8-.2-.2-.4-.2-.7-.2s-.6.1-.8.4c-.1.2-.2.4-.2.8v1.8zM268.7 39.2v.5c.3-.4.6-.6 1-.6s.8.2 1 .7c.3-.5.6-.7 1.2-.7s.7.1.9.4c.2.2.2.4.2 1v2.4h-.6v-2.2c0-.4 0-.6-.1-.7-.1-.2-.4-.3-.6-.3-.5 0-.8.4-.8 1v2.2h-.6v-2.2c0-.4 0-.5-.1-.7-.1-.2-.3-.3-.6-.3-.5 0-.9.4-.9 1v2.2h-.6v-3.7h.6zM276.3 40.4v.4h-2l1.2-1.6c.3-.5.4-.6.4-.8 0-.3-.2-.4-.5-.4s-.5.2-.5.6h-.4c0-.6.4-1 1-1s1 .3 1 .8-.1.5-.4.9l-.8 1.1h1.1z"/></g><g><path d="M23.9 188.7v.6h-2.5V184h.7v4.7H24zM25.6 184.5c0 .2-.2.4-.4.4s-.4-.2-.4-.4.2-.4.4-.4.4.2.4.4zm0 4.7H25v-3.7h.6v3.7zM27.6 189.3H27v-3.2h-.5v-.5h.5v-.5c0-.7.4-1.2 1-1.2h.2v.5c-.4 0-.6.2-.6.6v.5h.6v.5h-.6v3.2zM29.9 188.5c0 .2 0 .2.3.2h.3v.5h-.6c-.4 0-.6-.2-.6-.6V186h-.5v-.5h.5v-1.2h.6v1.2h.6v.5h-.6v2.4z"/></g></g></svg>