<svg xmlns="http://www.w3.org/2000/svg" viewBox="0 0 311.7 339.8"><defs><style>.cls-1,.cls-10,.cls-11,.cls-12,.cls-13,.cls-14,.cls-15,.cls-16,.cls-17,.cls-18,.cls-19,.cls-2,.cls-20,.cls-21,.cls-22,.cls-3,.cls-4,.cls-5,.cls-6,.cls-7,.cls-8,.cls-9{fill:none;stroke-linecap:round;stroke-linejoin:round}.cls-1,.cls-10,.cls-11,.cls-12,.cls-13,.cls-14,.cls-15,.cls-16,.cls-17,.cls-18,.cls-19,.cls-2,.cls-21,.cls-22,.cls-3,.cls-4,.cls-5,.cls-7,.cls-8,.cls-9{stroke-width:.1px}.cls-1,.cls-13,.cls-15,.cls-16,.cls-17,.cls-19,.cls-20,.cls-21,.cls-3,.cls-4,.cls-7,.cls-8,.cls-9{stroke:#194164}.cls-1,.cls-13,.cls-17,.cls-7,.cls-8,.cls-9{stroke-dasharray:0 0 0 0 2.9 1.4 .2 1.4}.cls-2{stroke:#646464}.cls-10,.cls-11,.cls-12,.cls-14,.cls-15,.cls-16,.cls-21,.cls-22,.cls-3,.cls-4,.cls-5{stroke-dasharray:0 0 1.4 1.4}.cls-4{stroke-dashoffset:1px}.cls-23,.cls-24{fill:#fff}.cls-10,.cls-11,.cls-12,.cls-14,.cls-18,.cls-22,.cls-5{stroke:#969696}.cls-6{stroke:#b8b8b8;stroke-width:0}.cls-7{stroke-dashoffset:4.3px}.cls-15,.cls-8{stroke-dashoffset:.2px}.cls-9{stroke-dashoffset:1.7px}.cls-10{stroke-dashoffset:1.1px}.cls-11{stroke-dashoffset:2.7px}.cls-12{stroke-dashoffset:2.5px}.cls-13{stroke-dashoffset:2.4px}.cls-14,.cls-17,.cls-21{stroke-dashoffset:.7px}.cls-24{fill-rule:evenodd}.cls-16{stroke-dashoffset:.5px}.cls-20{stroke-width:.3px}.cls-22{stroke-dashoffset:1.2px}</style></defs><g id="Plan"><path class="cls-24" d="M.1 4.5h311v89.2h-21.3v-.5h-28.6v.5h-192v-.5H24.4v.5H.1"/><path class="cls-18" d="M.4 91.8h9.8M21 91.8h10.6M42.6 91.8h10.6M64 91.8h10.8M85.6 91.8h10.5M106.9 91.8h10.8M128.5 91.8h10.6M149.9 91.8h10.8M171.5 91.8h10.6M193.1 91.8h10.6M214.5 91.8H225M236.1 91.8h10.5M257.4 91.8H268M279 91.8h10.6M300.4 91.8h10.5M.4 84.6h9.8M21 84.6h10.6M42.6 84.6h10.6M64 84.6h10.8M85.6 84.6h10.5M106.9 84.6h10.8M128.5 84.6h10.6M149.9 84.6h10.8M171.5 84.6h10.6M193.1 84.6h10.6M214.5 84.6H225M236.1 84.6h10.5M257.4 84.6H268M279 84.6h10.6M300.4 84.6h10.5M.4 77.1h9.8M21 77.1h10.6M42.6 77.1h10.6M64 77.1h10.8M85.6 77.1h10.5M106.9 77.1h10.8M128.5 77.1h10.6M149.9 77.1h10.8M171.5 77.1h10.6M193.1 77.1h10.6M214.5 77.1H225M236.1 77.1h10.5M257.4 77.1H268M279 77.1h10.6M300.4 77.1h10.5M.4 69.9h9.8M21 69.9h10.6M42.6 69.9h10.6M64 69.9h10.8M85.6 69.9h10.5M106.9 69.9h10.8M128.5 69.9h10.6M149.9 69.9h10.8M171.5 69.9h10.6M193.1 69.9h10.6M214.5 69.9H225M236.1 69.9h10.5M257.4 69.9H268M279 69.9h10.6M300.4 69.9h10.5M.4 62.7h9.8M21 62.7h10.6M42.6 62.7h10.6M64 62.7h10.8M85.6 62.7h10.5M106.9 62.7h10.8M128.5 62.7h10.6M149.9 62.7h10.8M171.5 62.7h10.6M193.1 62.7h10.6M214.5 62.7H225M236.1 62.7h10.5M257.4 62.7H268M279 62.7h10.6M300.4 62.7h10.5M.4 55.5h9.8M21 55.5h10.6M42.6 55.5h10.6M64 55.5h10.8M85.6 55.5h10.5M106.9 55.5h10.8M128.5 55.5h10.6M149.9 55.5h10.8M171.5 55.5h10.6M193.1 55.5h10.6M214.5 55.5H225M236.1 55.5h10.5M257.4 55.5H268M279 55.5h10.6M300.4 55.5h10.5M.4 48.1h9.8M21 48.1h10.6M42.6 48.1h10.6M64 48.1h10.8M85.6 48.1h10.5M106.9 48.1h10.8M128.5 48.1h10.6M149.9 48.1h10.8M171.5 48.1h10.6M193.1 48.1h10.6M214.5 48.1H225M236.1 48.1h10.5M257.4 48.1H268M279 48.1h10.6M300.4 48.1h10.5M.4 40.9h9.8M21 40.9h10.6M42.6 40.9h10.6M64 40.9h10.8M85.6 40.9h10.5M106.9 40.9h10.8M128.5 40.9h10.6M149.9 40.9h10.8M171.5 40.9h10.6M193.1 40.9h10.6M214.5 40.9H225M236.1 40.9h10.5M257.4 40.9H268M279 40.9h10.6M300.4 40.9h10.5M.4 33.7h9.8M21 33.7h10.6M42.6 33.7h10.6M64 33.7h10.8M85.6 33.7h10.5M106.9 33.7h10.8M128.5 33.7h10.6M149.9 33.7h10.8M171.5 33.7h10.6M193.1 33.7h10.6M214.5 33.7H225M236.1 33.7h10.5M257.4 33.7H268M279 33.7h10.6M300.4 33.7h10.5M.4 26.5h9.8M21 26.5h10.6M42.6 26.5h10.6M64 26.5h10.8M85.6 26.5h10.5M106.9 26.5h10.8M128.5 26.5h10.6M149.9 26.5h10.8M171.5 26.5h10.6M193.1 26.5h10.6M214.5 26.5H225M236.1 26.5h10.5M257.4 26.5H268M279 26.5h10.6M300.4 26.5h10.5M.4 19.3h9.8M21 19.3h10.6M42.6 19.3h10.6M64 19.3h10.8M85.6 19.3h10.5M106.9 19.3h10.8M128.5 19.3h10.6M149.9 19.3h10.8M171.5 19.3h10.6M193.1 19.3h10.6M214.5 19.3H225M236.1 19.3h10.5M257.4 19.3H268M279 19.3h10.6M300.4 19.3h10.5M.4 11.9h9.8M21 11.9h10.6M42.6 11.9h10.6M64 11.9h10.8M85.6 11.9h10.5M106.9 11.9h10.8M128.5 11.9h10.6M149.9 11.9h10.8M171.5 11.9h10.6M193.1 11.9h10.6M214.5 11.9H225M236.1 11.9h10.5M257.4 11.9H268M279 11.9h10.6M300.4 11.9h10.5M.4 4.7h9.8M21 4.7h10.6M42.6 4.7h10.6M64 4.7h10.8M85.6 4.7h10.5M106.9 4.7h10.8M128.5 4.7h10.6M149.9 4.7h10.8M171.5 4.7h10.6M193.1 4.7h10.6M214.5 4.7H225M236.1 4.7h10.5M257.4 4.7H268M279 4.7h10.6M300.4 4.7h10.5M21 93.5v-1.7M21 86.3v-1.7M21 79.1v-2M21 71.6v-1.7M21 64.4v-1.7M21 57.2v-1.7M21 50v-1.9M21 42.6v-1.7M21 35.4v-1.7M21 28.2v-1.7M21 21v-1.7M21 13.5v-1.6M21 6.3V4.7M42.6 93.2v-1.4M42.6 86.3v-1.7M42.6 79.1v-2M42.6 71.6v-1.7M42.6 64.4v-1.7M42.6 57.2v-1.7M42.6 50v-1.9M42.6 42.6v-1.7M42.6 35.4v-1.7M42.6 28.2v-1.7M42.6 21v-1.7M42.6 13.5v-1.6M42.6 6.3V4.7M64 93.2v-1.4M64 86.3v-1.7M64 79.1v-2M64 71.6v-1.7M64 64.4v-1.7M64 57.2v-1.7M64 50v-1.9M64 42.6v-1.7M64 35.4v-1.7M64 28.2v-1.7M64 21v-1.7M64 13.5v-1.6M64 6.3V4.7M85.6 93.5v-1.7M85.6 86.3v-1.7M85.6 79.1v-2M85.6 71.6v-1.7M85.6 64.4v-1.7M85.6 57.2v-1.7M85.6 50v-1.9M85.6 42.6v-1.7M85.6 35.4v-1.7M85.6 28.2v-1.7M85.6 21v-1.7M85.6 13.5v-1.6M85.6 6.3V4.7M106.9 93.5v-1.7M106.9 86.3v-1.7M106.9 79.1v-2M106.9 71.6v-1.7M106.9 64.4v-1.7M106.9 57.2v-1.7M106.9 50v-1.9M106.9 42.6v-1.7M106.9 35.4v-1.7M106.9 28.2v-1.7M106.9 21v-1.7M106.9 13.5v-1.6M106.9 6.3V4.7M128.5 93.5v-1.7M128.5 86.3v-1.7M128.5 79.1v-2M128.5 71.6v-1.7M128.5 64.4v-1.7M128.5 57.2v-1.7M128.5 50v-1.9M128.5 42.6v-1.7M128.5 35.4v-1.7M128.5 28.2v-1.7M128.5 21v-1.7M128.5 13.5v-1.6M128.5 6.3V4.7M149.9 93.5v-1.7M149.9 86.3v-1.7M149.9 79.1v-2M149.9 71.6v-1.7M149.9 64.4v-1.7M149.9 57.2v-1.7M149.9 50v-1.9M149.9 42.6v-1.7M149.9 35.4v-1.7M149.9 28.2v-1.7M149.9 21v-1.7M149.9 13.5v-1.6M149.9 6.3V4.7M171.5 93.5v-1.7M171.5 86.3v-1.7M171.5 79.1v-2M171.5 71.6v-1.7M171.5 64.4v-1.7M171.5 57.2v-1.7M171.5 50v-1.9M171.5 42.6v-1.7M171.5 35.4v-1.7M171.5 28.2v-1.7M171.5 21v-1.7M171.5 13.5v-1.6M171.5 6.3V4.7M193.1 93.5v-1.7M193.1 86.3v-1.7M193.1 79.1v-2M193.1 71.6v-1.7M193.1 64.4v-1.7M193.1 57.2v-1.7M193.1 50v-1.9M193.1 42.6v-1.7M193.1 35.4v-1.7M193.1 28.2v-1.7M193.1 21v-1.7M193.1 13.5v-1.6M193.1 6.3V4.7M214.5 93.5v-1.7M214.5 86.3v-1.7M214.5 79.1v-2M214.5 71.6v-1.7M214.5 64.4v-1.7M214.5 57.2v-1.7M214.5 50v-1.9M214.5 42.6v-1.7M214.5 35.4v-1.7M214.5 28.2v-1.7M214.5 21v-1.7M214.5 13.5v-1.6M214.5 6.3V4.7M236.1 93.5v-1.7M236.1 86.3v-1.7M236.1 79.1v-2M236.1 71.6v-1.7M236.1 64.4v-1.7M236.1 57.2v-1.7M236.1 50v-1.9M236.1 42.6v-1.7M236.1 35.4v-1.7M236.1 28.2v-1.7M236.1 21v-1.7M236.1 13.5v-1.6M236.1 6.3V4.7M257.4 93.5v-1.7M257.4 86.3v-1.7M257.4 79.1v-2M257.4 71.6v-1.7M257.4 64.4v-1.7M257.4 57.2v-1.7M257.4 50v-1.9M257.4 42.6v-1.7M257.4 35.4v-1.7M257.4 28.2v-1.7M257.4 21v-1.7M257.4 13.5v-1.6M257.4 6.3V4.7M279 93.2v-1.4M279 86.3v-1.7M279 79.1v-2M279 71.6v-1.7M279 64.4v-1.7M279 57.2v-1.7M279 50v-1.9M279 42.6v-1.7M279 35.4v-1.7M279 28.2v-1.7M279 21v-1.7M279 13.5v-1.6M279 6.3V4.7M300.4 93.5v-1.7M300.4 86.3v-1.7M300.4 79.1v-2M300.4 71.6v-1.7M300.4 64.4v-1.7M300.4 57.2v-1.7M300.4 50v-1.9M300.4 42.6v-1.7M300.4 35.4v-1.7M300.4 28.2v-1.7M300.4 21v-1.7M300.4 13.5v-1.6M300.4 6.3V4.7M10.2 91.8h10.6M31.6 91.8h10.8M53.2 91.8h10.5M74.8 91.8h10.5M96.1 91.8h10.6M117.7 91.8h10.6M139.1 91.8h10.8M160.7 91.8h10.6M182.1 91.8h10.8M203.7 91.8h10.5M225 91.8h10.8M246.6 91.8h10.6M268 91.8h10.8M289.6 91.8h10.5M310.9 91.8h.5M10.2 84.6h10.6M31.6 84.6h10.8M53.2 84.6h10.5M74.8 84.6h10.5M96.1 84.6h10.6M117.7 84.6h10.6M139.1 84.6h10.8M160.7 84.6h10.6M182.1 84.6h10.8M203.7 84.6h10.5M225 84.6h10.8M246.6 84.6h10.6M268 84.6h10.8M289.6 84.6h10.5M310.9 84.6h.5M10.2 77.1h10.6M31.6 77.1h10.8M53.2 77.1h10.5M74.8 77.1h10.5M96.1 77.1h10.6M117.7 77.1h10.6M139.1 77.1h10.8M160.7 77.1h10.6M182.1 77.1h10.8M203.7 77.1h10.5M225 77.1h10.8M246.6 77.1h10.6M268 77.1h10.8M289.6 77.1h10.5M310.9 77.1h.5M10.2 69.9h10.6M31.6 69.9h10.8M53.2 69.9h10.5M74.8 69.9h10.5M96.1 69.9h10.6M117.7 69.9h10.6M139.1 69.9h10.8M160.7 69.9h10.6M182.1 69.9h10.8M203.7 69.9h10.5M225 69.9h10.8M246.6 69.9h10.6M268 69.9h10.8M289.6 69.9h10.5M310.9 69.9h.5M10.2 62.7h10.6M31.6 62.7h10.8M53.2 62.7h10.5M74.8 62.7h10.5M96.1 62.7h10.6M117.7 62.7h10.6M139.1 62.7h10.8M160.7 62.7h10.6M182.1 62.7h10.8M203.7 62.7h10.5M225 62.7h10.8M246.6 62.7h10.6M268 62.7h10.8M289.6 62.7h10.5M310.9 62.7h.5M10.2 55.5h10.6M31.6 55.5h10.8M53.2 55.5h10.5M74.8 55.5h10.5M96.1 55.5h10.6M117.7 55.5h10.6M139.1 55.5h10.8M160.7 55.5h10.6M182.1 55.5h10.8M203.7 55.5h10.5M225 55.5h10.8M246.6 55.5h10.6M268 55.5h10.8M289.6 55.5h10.5M310.9 55.5h.5M10.2 48.1h10.6M31.6 48.1h10.8M53.2 48.1h10.5M74.8 48.1h10.5M96.1 48.1h10.6M117.7 48.1h10.6M139.1 48.1h10.8M160.7 48.1h10.6M182.1 48.1h10.8M203.7 48.1h10.5M225 48.1h10.8M246.6 48.1h10.6M268 48.1h10.8M289.6 48.1h10.5M310.9 48.1h.5M10.2 40.9h10.6M31.6 40.9h10.8M53.2 40.9h10.5M74.8 40.9h10.5M96.1 40.9h10.6M117.7 40.9h10.6M139.1 40.9h10.8M160.7 40.9h10.6M182.1 40.9h10.8M203.7 40.9h10.5M225 40.9h10.8M246.6 40.9h10.6M268 40.9h10.8M289.6 40.9h10.5M310.9 40.9h.5M10.2 33.7h10.6M31.6 33.7h10.8M53.2 33.7h10.5M74.8 33.7h10.5M96.1 33.7h10.6M117.7 33.7h10.6M139.1 33.7h10.8M160.7 33.7h10.6M182.1 33.7h10.8M203.7 33.7h10.5M225 33.7h10.8M246.6 33.7h10.6M268 33.7h10.8M289.6 33.7h10.5M310.9 33.7h.5M10.2 26.5h10.6M31.6 26.5h10.8M53.2 26.5h10.5M74.8 26.5h10.5M96.1 26.5h10.6M117.7 26.5h10.6M139.1 26.5h10.8M160.7 26.5h10.6M182.1 26.5h10.8M203.7 26.5h10.5M225 26.5h10.8M246.6 26.5h10.6M268 26.5h10.8M289.6 26.5h10.5M310.9 26.5h.5M10.2 19.3h10.6M31.6 19.3h10.8M53.2 19.3h10.5M74.8 19.3h10.5M96.1 19.3h10.6M117.7 19.3h10.6M139.1 19.3h10.8M160.7 19.3h10.6M182.1 19.3h10.8M203.7 19.3h10.5M225 19.3h10.8M246.6 19.3h10.6M268 19.3h10.8M289.6 19.3h10.5M310.9 19.3h.5M10.2 11.9h10.6M31.6 11.9h10.8M53.2 11.9h10.5M74.8 11.9h10.5M96.1 11.9h10.6M117.7 11.9h10.6M139.1 11.9h10.8M160.7 11.9h10.6M182.1 11.9h10.8M203.7 11.9h10.5M225 11.9h10.8M246.6 11.9h10.6M268 11.9h10.8M289.6 11.9h10.5M310.9 11.9h.5M10.2 4.7h10.6M31.6 4.7h10.8M53.2 4.7h10.5M74.8 4.7h10.5M96.1 4.7h10.6M117.7 4.7h10.6M139.1 4.7h10.8M160.7 4.7h10.6M182.1 4.7h10.8M203.7 4.7h10.5M225 4.7h10.8M246.6 4.7h10.6M268 4.7h10.8M289.6 4.7h10.5M310.9 4.7h.5M20.8 93.5v-1.7M20.8 86.3v-1.7M20.8 79.1v-2M20.8 71.6v-1.7M20.8 64.4v-1.7M20.8 57.2v-1.7M20.8 50v-1.9M20.8 42.6v-1.7M20.8 35.4v-1.7M20.8 28.2v-1.7M20.8 21v-1.7M20.8 13.5v-1.6M20.8 6.3V4.7M42.4 93.2v-1.4M42.4 86.3v-1.7M42.4 79.1v-2M42.4 71.6v-1.7M42.4 64.4v-1.7M42.4 57.2v-1.7M42.4 50v-1.9M42.4 42.6v-1.7M42.4 35.4v-1.7M42.4 28.2v-1.7M42.4 21v-1.7M42.4 13.5v-1.6M42.4 6.3V4.7M63.7 93.2v-1.4M63.7 86.3v-1.7M63.7 79.1v-2M63.7 71.6v-1.7M63.7 64.4v-1.7M63.7 57.2v-1.7M63.7 50v-1.9M63.7 42.6v-1.7M63.7 35.4v-1.7M63.7 28.2v-1.7M63.7 21v-1.7M63.7 13.5v-1.6M63.7 6.3V4.7M85.3 93.5v-1.7M85.3 86.3v-1.7M85.3 79.1v-2M85.3 71.6v-1.7M85.3 64.4v-1.7M85.3 57.2v-1.7M85.3 50v-1.9M85.3 42.6v-1.7M85.3 35.4v-1.7M85.3 28.2v-1.7M85.3 21v-1.7M85.3 13.5v-1.6M85.3 6.3V4.7M106.7 93.5v-1.7M106.7 86.3v-1.7M106.7 79.1v-2M106.7 71.6v-1.7M106.7 64.4v-1.7M106.7 57.2v-1.7M106.7 50v-1.9M106.7 42.6v-1.7M106.7 35.4v-1.7M106.7 28.2v-1.7M106.7 21v-1.7M106.7 13.5v-1.6M106.7 6.3V4.7M128.3 93.5v-1.7M128.3 86.3v-1.7M128.3 79.1v-2M128.3 71.6v-1.7M128.3 64.4v-1.7M128.3 57.2v-1.7M128.3 50v-1.9M128.3 42.6v-1.7M128.3 35.4v-1.7M128.3 28.2v-1.7M128.3 21v-1.7M128.3 13.5v-1.6M128.3 6.3V4.7M149.9 93.5v-1.7M149.9 86.3v-1.7M149.9 79.1v-2M149.9 71.6v-1.7M149.9 64.4v-1.7M149.9 57.2v-1.7M149.9 50v-1.9M149.9 42.6v-1.7M149.9 35.4v-1.7M149.9 28.2v-1.7M149.9 21v-1.7M149.9 13.5v-1.6M149.9 6.3V4.7M171.3 93.5v-1.7M171.3 86.3v-1.7M171.3 79.1v-2M171.3 71.6v-1.7M171.3 64.4v-1.7M171.3 57.2v-1.7M171.3 50v-1.9M171.3 42.6v-1.7M171.3 35.4v-1.7M171.3 28.2v-1.7M171.3 21v-1.7M171.3 13.5v-1.6M171.3 6.3V4.7M192.9 93.5v-1.7M192.9 86.3v-1.7M192.9 79.1v-2M192.9 71.6v-1.7M192.9 64.4v-1.7M192.9 57.2v-1.7M192.9 50v-1.9M192.9 42.6v-1.7M192.9 35.4v-1.7M192.9 28.2v-1.7M192.9 21v-1.7M192.9 13.5v-1.6M192.9 6.3V4.7M214.2 93.5v-1.7M214.2 86.3v-1.7M214.2 79.1v-2M214.2 71.6v-1.7M214.2 64.4v-1.7M214.2 57.2v-1.7M214.2 50v-1.9M214.2 42.6v-1.7M214.2 35.4v-1.7M214.2 28.2v-1.7M214.2 21v-1.7M214.2 13.5v-1.6M214.2 6.3V4.7M235.8 93.5v-1.7M235.8 86.3v-1.7M235.8 79.1v-2M235.8 71.6v-1.7M235.8 64.4v-1.7M235.8 57.2v-1.7M235.8 50v-1.9M235.8 42.6v-1.7M235.8 35.4v-1.7M235.8 28.2v-1.7M235.8 21v-1.7M235.8 13.5v-1.6M235.8 6.3V4.7M257.2 93.5v-1.7M257.2 86.3v-1.7M257.2 79.1v-2M257.2 71.6v-1.7M257.2 64.4v-1.7M257.2 57.2v-1.7M257.2 50v-1.9M257.2 42.6v-1.7M257.2 35.4v-1.7M257.2 28.2v-1.7M257.2 21v-1.7M257.2 13.5v-1.6M257.2 6.3V4.7M278.8 93.2v-1.4M278.8 86.3v-1.7M278.8 79.1v-2M278.8 71.6v-1.7M278.8 64.4v-1.7M278.8 57.2v-1.7M278.8 50v-1.9M278.8 42.6v-1.7M278.8 35.4v-1.7M278.8 28.2v-1.7M278.8 21v-1.7M278.8 13.5v-1.6M278.8 6.3V4.7M300.1 93.5v-1.7M300.1 86.3v-1.7M300.1 79.1v-2M300.1 71.6v-1.7M300.1 64.4v-1.7M300.1 57.2v-1.7M300.1 50v-1.9M300.1 42.6v-1.7M300.1 35.4v-1.7M300.1 28.2v-1.7M300.1 21v-1.7M300.1 13.5v-1.6M300.1 6.3V4.7M.4 87.9h9.8M21 87.9h10.6M42.6 87.9h10.6M64 87.9h10.8M85.6 87.9h10.5M106.9 87.9h10.8M128.5 87.9h10.6M149.9 87.9h10.8M171.5 87.9h10.6M193.1 87.9h10.6M214.5 87.9H225M236.1 87.9h10.5M257.4 87.9H268M279 87.9h10.6M300.4 87.9h10.5M.4 80.7h9.8M21 80.7h10.6M42.6 80.7h10.6M64 80.7h10.8M85.6 80.7h10.5M106.9 80.7h10.8M128.5 80.7h10.6M149.9 80.7h10.8M171.5 80.7h10.6M193.1 80.7h10.6M214.5 80.7H225M236.1 80.7h10.5M257.4 80.7H268M279 80.7h10.6M300.4 80.7h10.5M.4 73.3h9.8M21 73.3h10.6M42.6 73.3h10.6M64 73.3h10.8M85.6 73.3h10.5M106.9 73.3h10.8M128.5 73.3h10.6M149.9 73.3h10.8M171.5 73.3h10.6M193.1 73.3h10.6M214.5 73.3H225M236.1 73.3h10.5M257.4 73.3H268M279 73.3h10.6M300.4 73.3h10.5M.4 66.1h9.8M21 66.1h10.6M42.6 66.1h10.6M64 66.1h10.8M85.6 66.1h10.5M106.9 66.1h10.8M128.5 66.1h10.6M149.9 66.1h10.8M171.5 66.1h10.6M193.1 66.1h10.6M214.5 66.1H225M236.1 66.1h10.5M257.4 66.1H268M279 66.1h10.6M300.4 66.1h10.5M.4 58.9h9.8M21 58.9h10.6M42.6 58.9h10.6M64 58.9h10.8M85.6 58.9h10.5M106.9 58.9h10.8M128.5 58.9h10.6M149.9 58.9h10.8M171.5 58.9h10.6M193.1 58.9h10.6M214.5 58.9H225M236.1 58.9h10.5M257.4 58.9H268M279 58.9h10.6M300.4 58.9h10.5M.4 51.7h9.8M21 51.7h10.6M42.6 51.7h10.6M64 51.7h10.8M85.6 51.7h10.5M106.9 51.7h10.8M128.5 51.7h10.6M149.9 51.7h10.8M171.5 51.7h10.6M193.1 51.7h10.6M214.5 51.7H225M236.1 51.7h10.5M257.4 51.7H268M279 51.7h10.6M300.4 51.7h10.5M.4 44.3h9.8M21 44.3h10.6M42.6 44.3h10.6M64 44.3h10.8M85.6 44.3h10.5M106.9 44.3h10.8M128.5 44.3h10.6M149.9 44.3h10.8M171.5 44.3h10.6M193.1 44.3h10.6M214.5 44.3H225M236.1 44.3h10.5M257.4 44.3H268M279 44.3h10.6M300.4 44.3h10.5M.4 37.1h9.8M21 37.1h10.6M42.6 37.1h10.6M64 37.1h10.8M85.6 37.1h10.5M106.9 37.1h10.8M128.5 37.1h10.6M149.9 37.1h10.8M171.5 37.1h10.6M193.1 37.1h10.6M214.5 37.1H225M236.1 37.1h10.5M257.4 37.1H268M279 37.1h10.6M300.4 37.1h10.5M.4 29.9h9.8M21 29.9h10.6M42.6 29.9h10.6M64 29.9h10.8M85.6 29.9h10.5M106.9 29.9h10.8M128.5 29.9h10.6M149.9 29.9h10.8M171.5 29.9h10.6M193.1 29.9h10.6M214.5 29.9H225M236.1 29.9h10.5M257.4 29.9H268M279 29.9h10.6M300.4 29.9h10.5M.4 22.7h9.8M21 22.7h10.6M42.6 22.7h10.6M64 22.7h10.8M85.6 22.7h10.5M106.9 22.7h10.8M128.5 22.7h10.6M149.9 22.7h10.8M171.5 22.7h10.6M193.1 22.7h10.6M214.5 22.7H225M236.1 22.7h10.5M257.4 22.7H268M279 22.7h10.6M300.4 22.7h10.5M.4 15.2h9.8M21 15.2h10.6M42.6 15.2h10.6M64 15.2h10.8M85.6 15.2h10.5M106.9 15.2h10.8M128.5 15.2h10.6M149.9 15.2h10.8M171.5 15.2h10.6M193.1 15.2h10.6M214.5 15.2H225M236.1 15.2h10.5M257.4 15.2H268M279 15.2h10.6M300.4 15.2h10.5M.4 8h9.8M21 8h10.6M42.6 8h10.6M64 8h10.8M85.6 8h10.5M106.9 8h10.8M128.5 8h10.6M149.9 8h10.8M171.5 8h10.6M193.1 8h10.6M214.5 8H225M236.1 8h10.5M257.4 8H268M279 8h10.6M300.4 8h10.5M21 93.7v-.2M21 87.9v-1.6M21 80.7v-1.6M21 73.3v-1.7M21 66.1v-1.7M21 58.9v-1.7M21 51.7V50M21 44.3v-1.7M21 37.1v-1.7M21 29.9v-1.7M21 22.7V21M21 15.2v-1.7M21 8V6.3M42.6 87.9v-1.6M42.6 80.7v-1.6M42.6 73.3v-1.7M42.6 66.1v-1.7M42.6 58.9v-1.7M42.6 51.7V50M42.6 44.3v-1.7M42.6 37.1v-1.7M42.6 29.9v-1.7M42.6 22.7V21M42.6 15.2v-1.7M42.6 8V6.3M64 87.9v-1.6M64 80.7v-1.6M64 73.3v-1.7M64 66.1v-1.7M64 58.9v-1.7M64 51.7V50M64 44.3v-1.7M64 37.1v-1.7M64 29.9v-1.7M64 22.7V21M64 15.2v-1.7M64 8V6.3M85.6 93.7v-.2M85.6 87.9v-1.6M85.6 80.7v-1.6M85.6 73.3v-1.7M85.6 66.1v-1.7M85.6 58.9v-1.7M85.6 51.7V50M85.6 44.3v-1.7M85.6 37.1v-1.7M85.6 29.9v-1.7M85.6 22.7V21M85.6 15.2v-1.7M85.6 8V6.3M106.9 93.7v-.2M106.9 87.9v-1.6M106.9 80.7v-1.6M106.9 73.3v-1.7M106.9 66.1v-1.7M106.9 58.9v-1.7M106.9 51.7V50M106.9 44.3v-1.7M106.9 37.1v-1.7M106.9 29.9v-1.7M106.9 22.7V21M106.9 15.2v-1.7M106.9 8V6.3M128.5 93.7v-.2M128.5 87.9v-1.6M128.5 80.7v-1.6M128.5 73.3v-1.7M128.5 66.1v-1.7M128.5 58.9v-1.7M128.5 51.7V50M128.5 44.3v-1.7M128.5 37.1v-1.7M128.5 29.9v-1.7M128.5 22.7V21M128.5 15.2v-1.7M128.5 8V6.3M149.9 93.7v-.2M149.9 87.9v-1.6M149.9 80.7v-1.6M149.9 73.3v-1.7M149.9 66.1v-1.7M149.9 58.9v-1.7M149.9 51.7V50M149.9 44.3v-1.7M149.9 37.1v-1.7M149.9 29.9v-1.7M149.9 22.7V21M149.9 15.2v-1.7M149.9 8V6.3M171.5 93.7v-.2M171.5 87.9v-1.6M171.5 80.7v-1.6M171.5 73.3v-1.7M171.5 66.1v-1.7M171.5 58.9v-1.7M171.5 51.7V50M171.5 44.3v-1.7M171.5 37.1v-1.7M171.5 29.9v-1.7M171.5 22.7V21M171.5 15.2v-1.7M171.5 8V6.3M193.1 93.7v-.2M193.1 87.9v-1.6M193.1 80.7v-1.6M193.1 73.3v-1.7M193.1 66.1v-1.7M193.1 58.9v-1.7M193.1 51.7V50M193.1 44.3v-1.7M193.1 37.1v-1.7M193.1 29.9v-1.7M193.1 22.7V21M193.1 15.2v-1.7M193.1 8V6.3M214.5 93.7v-.2M214.5 87.9v-1.6M214.5 80.7v-1.6M214.5 73.3v-1.7M214.5 66.1v-1.7M214.5 58.9v-1.7M214.5 51.7V50M214.5 44.3v-1.7M214.5 37.1v-1.7M214.5 29.9v-1.7M214.5 22.7V21M214.5 15.2v-1.7M214.5 8V6.3M236.1 93.7v-.2M236.1 87.9v-1.6M236.1 80.7v-1.6M236.1 73.3v-1.7M236.1 66.1v-1.7M236.1 58.9v-1.7M236.1 51.7V50M236.1 44.3v-1.7M236.1 37.1v-1.7M236.1 29.9v-1.7M236.1 22.7V21M236.1 15.2v-1.7M236.1 8V6.3M257.4 93.7v-.2M257.4 87.9v-1.6M257.4 80.7v-1.6M257.4 73.3v-1.7M257.4 66.1v-1.7M257.4 58.9v-1.7M257.4 51.7V50M257.4 44.3v-1.7M257.4 37.1v-1.7M257.4 29.9v-1.7M257.4 22.7V21M257.4 15.2v-1.7M257.4 8V6.3M279 87.9v-1.6M279 80.7v-1.6M279 73.3v-1.7M279 66.1v-1.7M279 58.9v-1.7M279 51.7V50M279 44.3v-1.7M279 37.1v-1.7M279 29.9v-1.7M279 22.7V21M279 15.2v-1.7M279 8V6.3M300.4 93.7v-.2M300.4 87.9v-1.6M300.4 80.7v-1.6M300.4 73.3v-1.7M300.4 66.1v-1.7M300.4 58.9v-1.7M300.4 51.7V50M300.4 44.3v-1.7M300.4 37.1v-1.7M300.4 29.9v-1.7M300.4 22.7V21M300.4 15.2v-1.7M300.4 8V6.3M20.8 93.7v-.2M20.8 87.9v-1.6M20.8 80.7v-1.6M20.8 73.3v-1.7M20.8 66.1v-1.7M20.8 58.9v-1.7M20.8 51.7V50M20.8 44.3v-1.7M20.8 37.1v-1.7M20.8 29.9v-1.7M20.8 22.7V21M20.8 15.2v-1.7M20.8 8V6.3M42.4 87.9v-1.6M42.4 80.7v-1.6M42.4 73.3v-1.7M42.4 66.1v-1.7M42.4 58.9v-1.7M42.4 51.7V50M42.4 44.3v-1.7M42.4 37.1v-1.7M42.4 29.9v-1.7M42.4 22.7V21M42.4 15.2v-1.7M42.4 8V6.3M63.7 87.9v-1.6M63.7 80.7v-1.6M63.7 73.3v-1.7M63.7 66.1v-1.7M63.7 58.9v-1.7M63.7 51.7V50M63.7 44.3v-1.7M63.7 37.1v-1.7M63.7 29.9v-1.7M63.7 22.7V21M63.7 15.2v-1.7M63.7 8V6.3M85.3 93.7v-.2M85.3 87.9v-1.6M85.3 80.7v-1.6M85.3 73.3v-1.7M85.3 66.1v-1.7M85.3 58.9v-1.7M85.3 51.7V50M85.3 44.3v-1.7M85.3 37.1v-1.7M85.3 29.9v-1.7M85.3 22.7V21M85.3 15.2v-1.7M85.3 8V6.3M106.7 93.7v-.2M106.7 87.9v-1.6M106.7 80.7v-1.6M106.7 73.3v-1.7M106.7 66.1v-1.7M106.7 58.9v-1.7M106.7 51.7V50M106.7 44.3v-1.7M106.7 37.1v-1.7M106.7 29.9v-1.7M106.7 22.7V21M106.7 15.2v-1.7M106.7 8V6.3M128.3 93.7v-.2M128.3 87.9v-1.6M128.3 80.7v-1.6M128.3 73.3v-1.7M128.3 66.1v-1.7M128.3 58.9v-1.7M128.3 51.7V50M128.3 44.3v-1.7M128.3 37.1v-1.7M128.3 29.9v-1.7M128.3 22.7V21M128.3 15.2v-1.7M128.3 8V6.3M149.9 93.7v-.2M149.9 87.9v-1.6M149.9 80.7v-1.6M149.9 73.3v-1.7M149.9 66.1v-1.7M149.9 58.9v-1.7M149.9 51.7V50M149.9 44.3v-1.7M149.9 37.1v-1.7M149.9 29.9v-1.7M149.9 22.7V21M149.9 15.2v-1.7M149.9 8V6.3M171.3 93.7v-.2M171.3 87.9v-1.6M171.3 80.7v-1.6M171.3 73.3v-1.7M171.3 66.1v-1.7M171.3 58.9v-1.7M171.3 51.7V50M171.3 44.3v-1.7M171.3 37.1v-1.7M171.3 29.9v-1.7M171.3 22.7V21M171.3 15.2v-1.7M171.3 8V6.3M192.9 93.7v-.2M192.9 87.9v-1.6M192.9 80.7v-1.6M192.9 73.3v-1.7M192.9 66.1v-1.7M192.9 58.9v-1.7M192.9 51.7V50M192.9 44.3v-1.7M192.9 37.1v-1.7M192.9 29.9v-1.7M192.9 22.7V21M192.9 15.2v-1.7M192.9 8V6.3M214.2 93.7v-.2M214.2 87.9v-1.6M214.2 80.7v-1.6M214.2 73.3v-1.7M214.2 66.1v-1.7M214.2 58.9v-1.7M214.2 51.7V50M214.2 44.3v-1.7M214.2 37.1v-1.7M214.2 29.9v-1.7M214.2 22.7V21M214.2 15.2v-1.7M214.2 8V6.3M235.8 93.7v-.2M235.8 87.9v-1.6M235.8 80.7v-1.6M235.8 73.3v-1.7M235.8 66.1v-1.7M235.8 58.9v-1.7M235.8 51.7V50M235.8 44.3v-1.7M235.8 37.1v-1.7M235.8 29.9v-1.7M235.8 22.7V21M235.8 15.2v-1.7M235.8 8V6.3M257.2 93.7v-.2M257.2 87.9v-1.6M257.2 80.7v-1.6M257.2 73.3v-1.7M257.2 66.1v-1.7M257.2 58.9v-1.7M257.2 51.7V50M257.2 44.3v-1.7M257.2 37.1v-1.7M257.2 29.9v-1.7M257.2 22.7V21M257.2 15.2v-1.7M257.2 8V6.3M278.8 87.9v-1.6M278.8 80.7v-1.6M278.8 73.3v-1.7M278.8 66.1v-1.7M278.8 58.9v-1.7M278.8 51.7V50M278.8 44.3v-1.7M278.8 37.1v-1.7M278.8 29.9v-1.7M278.8 22.7V21M278.8 15.2v-1.7M278.8 8V6.3M300.1 93.7v-.2M300.1 87.9v-1.6M300.1 80.7v-1.6M300.1 73.3v-1.7M300.1 66.1v-1.7M300.1 58.9v-1.7M300.1 51.7V50M300.1 44.3v-1.7M300.1 37.1v-1.7M300.1 29.9v-1.7M300.1 22.7V21M300.1 15.2v-1.7M300.1 8V6.3M10.2 87.9h10.6M31.6 87.9h10.8M53.2 87.9h10.5M74.8 87.9h10.5M96.1 87.9h10.6M117.7 87.9h10.6M139.1 87.9h10.8M160.7 87.9h10.6M182.1 87.9h10.8M203.7 87.9h10.5M225 87.9h10.8M246.6 87.9h10.6M268 87.9h10.8M289.6 87.9h10.5M310.9 87.9h.5M10.2 80.7h10.6M31.6 80.7h10.8M53.2 80.7h10.5M74.8 80.7h10.5M96.1 80.7h10.6M117.7 80.7h10.6M139.1 80.7h10.8M160.7 80.7h10.6M182.1 80.7h10.8M203.7 80.7h10.5M225 80.7h10.8M246.6 80.7h10.6M268 80.7h10.8M289.6 80.7h10.5M310.9 80.7h.5M10.2 73.3h10.6M31.6 73.3h10.8M53.2 73.3h10.5M74.8 73.3h10.5M96.1 73.3h10.6M117.7 73.3h10.6M139.1 73.3h10.8M160.7 73.3h10.6M182.1 73.3h10.8M203.7 73.3h10.5M225 73.3h10.8M246.6 73.3h10.6M268 73.3h10.8M289.6 73.3h10.5M310.9 73.3h.5M10.2 66.1h10.6M31.6 66.1h10.8M53.2 66.1h10.5M74.8 66.1h10.5M96.1 66.1h10.6M117.7 66.1h10.6M139.1 66.1h10.8M160.7 66.1h10.6M182.1 66.1h10.8M203.7 66.1h10.5M225 66.1h10.8M246.6 66.1h10.6M268 66.1h10.8M289.6 66.1h10.5M310.9 66.1h.5M10.2 58.9h10.6M31.6 58.9h10.8M53.2 58.9h10.5M74.8 58.9h10.5M96.1 58.9h10.6M117.7 58.9h10.6M139.1 58.9h10.8M160.7 58.9h10.6M182.1 58.9h10.8M203.7 58.9h10.5M225 58.9h10.8M246.6 58.9h10.6M268 58.9h10.8M289.6 58.9h10.5M310.9 58.9h.5M10.2 51.7h10.6M31.6 51.7h10.8M53.2 51.7h10.5M74.8 51.7h10.5M96.1 51.7h10.6M117.7 51.7h10.6M139.1 51.7h10.8M160.7 51.7h10.6M182.1 51.7h10.8M203.7 51.7h10.5M225 51.7h10.8M246.6 51.7h10.6M268 51.7h10.8M289.6 51.7h10.5M310.9 51.7h.5M10.2 44.3h10.6M31.6 44.3h10.8M53.2 44.3h10.5M74.8 44.3h10.5M96.1 44.3h10.6M117.7 44.3h10.6M139.1 44.3h10.8M160.7 44.3h10.6M182.1 44.3h10.8M203.7 44.3h10.5M225 44.3h10.8M246.6 44.3h10.6M268 44.3h10.8M289.6 44.3h10.5M310.9 44.3h.5M10.2 37.1h10.6M31.6 37.1h10.8M53.2 37.1h10.5M74.8 37.1h10.5M96.1 37.1h10.6M117.7 37.1h10.6M139.1 37.1h10.8M160.7 37.1h10.6M182.1 37.1h10.8M203.7 37.1h10.5M225 37.1h10.8M246.6 37.1h10.6M268 37.1h10.8M289.6 37.1h10.5M310.9 37.1h.5M10.2 29.9h10.6M31.6 29.9h10.8M53.2 29.9h10.5M74.8 29.9h10.5M96.1 29.9h10.6M117.7 29.9h10.6M139.1 29.9h10.8M160.7 29.9h10.6M182.1 29.9h10.8M203.7 29.9h10.5M225 29.9h10.8M246.6 29.9h10.6M268 29.9h10.8M289.6 29.9h10.5M310.9 29.9h.5M10.2 22.7h10.6M31.6 22.7h10.8M53.2 22.7h10.5M74.8 22.7h10.5M96.1 22.7h10.6M117.7 22.7h10.6M139.1 22.7h10.8M160.7 22.7h10.6M182.1 22.7h10.8M203.7 22.7h10.5M225 22.7h10.8M246.6 22.7h10.6M268 22.7h10.8M289.6 22.7h10.5M310.9 22.7h.5M10.2 15.2h10.6M31.6 15.2h10.8M53.2 15.2h10.5M74.8 15.2h10.5M96.1 15.2h10.6M117.7 15.2h10.6M139.1 15.2h10.8M160.7 15.2h10.6M182.1 15.2h10.8M203.7 15.2h10.5M225 15.2h10.8M246.6 15.2h10.6M268 15.2h10.8M289.6 15.2h10.5M310.9 15.2h.5M10.2 8h10.6M31.6 8h10.8M53.2 8h10.5M74.8 8h10.5M96.1 8h10.6M117.7 8h10.6M139.1 8h10.8M160.7 8h10.6M182.1 8h10.8M203.7 8h10.5M225 8h10.8M246.6 8h10.6M268 8h10.8M289.6 8h10.5M310.9 8h.5M.4 88.2H10M10.2 88.2h21.4M31.8 88.2h21.4M53.2 88.2h21.3M74.8 88.2h21.3M96.4 88.2h21.1M117.7 88.2h21.4M139.3 88.2h21.2M160.7 88.2h21.4M182.3 88.2h21.1M203.7 88.2H225M225.3 88.2h21.1M246.6 88.2H268M268.2 88.2h21.1M289.6 88.2h21.3M311.2 88.2h.2M.4 81H10M10.2 81h21.4M31.8 81h21.4M53.2 81h21.3M74.8 81h21.3M96.4 81h21.1M117.7 81h21.4M139.3 81h21.2M160.7 81h21.4M182.3 81h21.1M203.7 81H225M225.3 81h21.1M246.6 81H268M268.2 81h21.1M289.6 81h21.3M311.2 81h.2M.4 73.5H10M10.2 73.5h21.4M31.8 73.5h21.4M53.2 73.5h21.3M74.8 73.5h21.3M96.4 73.5h21.1M117.7 73.5h21.4M139.3 73.5h21.2M160.7 73.5h21.4M182.3 73.5h21.1M203.7 73.5H225M225.3 73.5h21.1M246.6 73.5H268M268.2 73.5h21.1M289.6 73.5h21.3M311.2 73.5h.2M.4 66.3H10M10.2 66.3h21.4M31.8 66.3h21.4M53.2 66.3h21.3M74.8 66.3h21.3M96.4 66.3h21.1M117.7 66.3h21.4M139.3 66.3h21.2M160.7 66.3h21.4M182.3 66.3h21.1M203.7 66.3H225M225.3 66.3h21.1M246.6 66.3H268M268.2 66.3h21.1M289.6 66.3h21.3M311.2 66.3h.2M.4 59.1H10M10.2 59.1h21.4M31.8 59.1h21.4M53.2 59.1h21.3M74.8 59.1h21.3M96.4 59.1h21.1M117.7 59.1h21.4M139.3 59.1h21.2M160.7 59.1h21.4M182.3 59.1h21.1M203.7 59.1H225M225.3 59.1h21.1M246.6 59.1H268M268.2 59.1h21.1M289.6 59.1h21.3M311.2 59.1h.2M.4 51.9H10M10.2 51.9h21.4M31.8 51.9h21.4M53.2 51.9h21.3M74.8 51.9h21.3M96.4 51.9h21.1M117.7 51.9h21.4M139.3 51.9h21.2M160.7 51.9h21.4M182.3 51.9h21.1M203.7 51.9H225M225.3 51.9h21.1M246.6 51.9H268M268.2 51.9h21.1M289.6 51.9h21.3M311.2 51.9h.2M.4 44.5H10M10.2 44.5h21.4M31.8 44.5h21.4M53.2 44.5h21.3M74.8 44.5h21.3M96.4 44.5h21.1M117.7 44.5h21.4M139.3 44.5h21.2M160.7 44.5h21.4M182.3 44.5h21.1M203.7 44.5H225M225.3 44.5h21.1M246.6 44.5H268M268.2 44.5h21.1M289.6 44.5h21.3M311.2 44.5h.2M.4 37.3H10M10.2 37.3h21.4M31.8 37.3h21.4M53.2 37.3h21.3M74.8 37.3h21.3M96.4 37.3h21.1M117.7 37.3h21.4M139.3 37.3h21.2M160.7 37.3h21.4M182.3 37.3h21.1M203.7 37.3H225M225.3 37.3h21.1M246.6 37.3H268M268.2 37.3h21.1M289.6 37.3h21.3M311.2 37.3h.2M.4 30.1H10M10.2 30.1h21.4M31.8 30.1h21.4M53.2 30.1h21.3M74.8 30.1h21.3M96.4 30.1h21.1M117.7 30.1h21.4M139.3 30.1h21.2M160.7 30.1h21.4M182.3 30.1h21.1M203.7 30.1H225M225.3 30.1h21.1M246.6 30.1H268M268.2 30.1h21.1M289.6 30.1h21.3M311.2 30.1h.2M.4 22.9H10M10.2 22.9h21.4M31.8 22.9h21.4M53.2 22.9h21.3M74.8 22.9h21.3M96.4 22.9h21.1M117.7 22.9h21.4M139.3 22.9h21.2M160.7 22.9h21.4M182.3 22.9h21.1M203.7 22.9H225M225.3 22.9h21.1M246.6 22.9H268M268.2 22.9h21.1M289.6 22.9h21.3M311.2 22.9h.2M.4 15.5H10M10.2 15.5h21.4M31.8 15.5h21.4M53.2 15.5h21.3M74.8 15.5h21.3M96.4 15.5h21.1M117.7 15.5h21.4M139.3 15.5h21.2M160.7 15.5h21.4M182.3 15.5h21.1M203.7 15.5H225M225.3 15.5h21.1M246.6 15.5H268M268.2 15.5h21.1M289.6 15.5h21.3M311.2 15.5h.2M.4 8.3H10M10.2 8.3h21.4M31.8 8.3h21.4M53.2 8.3h21.3M74.8 8.3h21.3M96.4 8.3h21.1M117.7 8.3h21.4M139.3 8.3h21.2M160.7 8.3h21.4M182.3 8.3h21.1M203.7 8.3H225M225.3 8.3h21.1M246.6 8.3H268M268.2 8.3h21.1M289.6 8.3h21.3M311.2 8.3h.2M10 91.5v-3.3M10 84.3V81M10 76.9v-3.4M10 69.7v-3.4M10 62.5v-3.4M10 55.3v-3.4M10 48.1v-3.6M10 40.7v-3.4M10 33.5v-3.4M10 26.3v-3.4M10 19.1v-3.6M10 11.6V8.3M31.6 91.5v-3.3M31.6 84.3V81M31.6 76.9v-3.4M31.6 69.7v-3.4M31.6 62.5v-3.4M31.6 55.3v-3.4M31.6 48.1v-3.6M31.6 40.7v-3.4M31.6 33.5v-3.4M31.6 26.3v-3.4M31.6 19.1v-3.6M31.6 11.6V8.3M53.2 91.5v-3.3M53.2 84.3V81M53.2 76.9v-3.4M53.2 69.7v-3.4M53.2 62.5v-3.4M53.2 55.3v-3.4M53.2 48.1v-3.6M53.2 40.7v-3.4M53.2 33.5v-3.4M53.2 26.3v-3.4M53.2 19.1v-3.6M53.2 11.6V8.3M74.5 91.5v-3.3M74.5 84.3V81M74.5 76.9v-3.4M74.5 69.7v-3.4M74.5 62.5v-3.4M74.5 55.3v-3.4M74.5 48.1v-3.6M74.5 40.7v-3.4M74.5 33.5v-3.4M74.5 26.3v-3.4M74.5 19.1v-3.6M74.5 11.6V8.3M96.1 91.5v-3.3M96.1 84.3V81M96.1 76.9v-3.4M96.1 69.7v-3.4M96.1 62.5v-3.4M96.1 55.3v-3.4M96.1 48.1v-3.6M96.1 40.7v-3.4M96.1 33.5v-3.4M96.1 26.3v-3.4M96.1 19.1v-3.6M96.1 11.6V8.3M117.5 91.5v-3.3M117.5 84.3V81M117.5 76.9v-3.4M117.5 69.7v-3.4M117.5 62.5v-3.4M117.5 55.3v-3.4M117.5 48.1v-3.6M117.5 40.7v-3.4M117.5 33.5v-3.4M117.5 26.3v-3.4M117.5 19.1v-3.6M117.5 11.6V8.3M139.1 91.5v-3.3M139.1 84.3V81M139.1 76.9v-3.4M139.1 69.7v-3.4M139.1 62.5v-3.4M139.1 55.3v-3.4M139.1 48.1v-3.6M139.1 40.7v-3.4M139.1 33.5v-3.4M139.1 26.3v-3.4M139.1 19.1v-3.6M139.1 11.6V8.3M160.5 91.5v-3.3M160.5 84.3V81M160.5 76.9v-3.4M160.5 69.7v-3.4M160.5 62.5v-3.4M160.5 55.3v-3.4M160.5 48.1v-3.6M160.5 40.7v-3.4M160.5 33.5v-3.4M160.5 26.3v-3.4M160.5 19.1v-3.6M160.5 11.6V8.3M182.1 91.5v-3.3M182.1 84.3V81M182.1 76.9v-3.4M182.1 69.7v-3.4M182.1 62.5v-3.4M182.1 55.3v-3.4M182.1 48.1v-3.6M182.1 40.7v-3.4M182.1 33.5v-3.4M182.1 26.3v-3.4M182.1 19.1v-3.6M182.1 11.6V8.3M203.4 91.5v-3.3M203.4 84.3V81M203.4 76.9v-3.4M203.4 69.7v-3.4M203.4 62.5v-3.4M203.4 55.3v-3.4M203.4 48.1v-3.6M203.4 40.7v-3.4M203.4 33.5v-3.4M203.4 26.3v-3.4M203.4 19.1v-3.6M203.4 11.6V8.3M225 91.5v-3.3M225 84.3V81M225 76.9v-3.4M225 69.7v-3.4M225 62.5v-3.4M225 55.3v-3.4M225 48.1v-3.6M225 40.7v-3.4M225 33.5v-3.4M225 26.3v-3.4M225 19.1v-3.6M225 11.6V8.3M246.4 91.5v-3.3M246.4 84.3V81M246.4 76.9v-3.4M246.4 69.7v-3.4M246.4 62.5v-3.4M246.4 55.3v-3.4M246.4 48.1v-3.6M246.4 40.7v-3.4M246.4 33.5v-3.4M246.4 26.3v-3.4M246.4 19.1v-3.6M246.4 11.6V8.3M268 91.5v-3.3M268 84.3V81M268 76.9v-3.4M268 69.7v-3.4M268 62.5v-3.4M268 55.3v-3.4M268 48.1v-3.6M268 40.7v-3.4M268 33.5v-3.4M268 26.3v-3.4M268 19.1v-3.6M268 11.6V8.3M289.3 91.5v-3.3M289.3 84.3V81M289.3 76.9v-3.4M289.3 69.7v-3.4M289.3 62.5v-3.4M289.3 55.3v-3.4M289.3 48.1v-3.6M289.3 40.7v-3.4M289.3 33.5v-3.4M289.3 26.3v-3.4M289.3 19.1v-3.6M289.3 11.6V8.3M310.9 91.5v-3.3M310.9 84.3V81M310.9 76.9v-3.4M310.9 69.7v-3.4M310.9 62.5v-3.4M310.9 55.3v-3.4M310.9 48.1v-3.6M310.9 40.7v-3.4M310.9 33.5v-3.4M310.9 26.3v-3.4M310.9 19.1v-3.6M310.9 11.6V8.3M.4 91.5H10M10.2 91.5h21.4M31.8 91.5h21.4M53.2 91.5h21.3M74.8 91.5h21.3M96.4 91.5h21.1M117.7 91.5h21.4M139.3 91.5h21.2M160.7 91.5h21.4M182.3 91.5h21.1M203.7 91.5H225M225.3 91.5h21.1M246.6 91.5H268M268.2 91.5h21.1M289.6 91.5h21.3M311.2 91.5h.2M.4 84.3H10M10.2 84.3h21.4M31.8 84.3h21.4M53.2 84.3h21.3M74.8 84.3h21.3M96.4 84.3h21.1M117.7 84.3h21.4M139.3 84.3h21.2M160.7 84.3h21.4M182.3 84.3h21.1M203.7 84.3H225M225.3 84.3h21.1M246.6 84.3H268M268.2 84.3h21.1M289.6 84.3h21.3M311.2 84.3h.2M.4 76.9H10M10.2 76.9h21.4M31.8 76.9h21.4M53.2 76.9h21.3M74.8 76.9h21.3M96.4 76.9h21.1M117.7 76.9h21.4M139.3 76.9h21.2M160.7 76.9h21.4M182.3 76.9h21.1M203.7 76.9H225M225.3 76.9h21.1M246.6 76.9H268M268.2 76.9h21.1M289.6 76.9h21.3M311.2 76.9h.2M.4 69.7H10M10.2 69.7h21.4M31.8 69.7h21.4M53.2 69.7h21.3M74.8 69.7h21.3M96.4 69.7h21.1M117.7 69.7h21.4M139.3 69.7h21.2M160.7 69.7h21.4M182.3 69.7h21.1M203.7 69.7H225M225.3 69.7h21.1M246.6 69.7H268M268.2 69.7h21.1M289.6 69.7h21.3M311.2 69.7h.2M.4 62.5H10M10.2 62.5h21.4M31.8 62.5h21.4M53.2 62.5h21.3M74.8 62.5h21.3M96.4 62.5h21.1M117.7 62.5h21.4M139.3 62.5h21.2M160.7 62.5h21.4M182.3 62.5h21.1M203.7 62.5H225M225.3 62.5h21.1M246.6 62.5H268M268.2 62.5h21.1M289.6 62.5h21.3M311.2 62.5h.2M.4 55.3H10M10.2 55.3h21.4M31.8 55.3h21.4M53.2 55.3h21.3M74.8 55.3h21.3M96.4 55.3h21.1M117.7 55.3h21.4M139.3 55.3h21.2M160.7 55.3h21.4M182.3 55.3h21.1M203.7 55.3H225M225.3 55.3h21.1M246.6 55.3H268M268.2 55.3h21.1M289.6 55.3h21.3M311.2 55.3h.2M.4 48.1H10M10.2 48.1h21.4M31.8 48.1h21.4M53.2 48.1h21.3M74.8 48.1h21.3M96.4 48.1h21.1M117.7 48.1h21.4M139.3 48.1h21.2M160.7 48.1h21.4M182.3 48.1h21.1M203.7 48.1H225M225.3 48.1h21.1M246.6 48.1H268M268.2 48.1h21.1M289.6 48.1h21.3M311.2 48.1h.2M.4 40.7H10M10.2 40.7h21.4M31.8 40.7h21.4M53.2 40.7h21.3M74.8 40.7h21.3M96.4 40.7h21.1M117.7 40.7h21.4M139.3 40.7h21.2M160.7 40.7h21.4M182.3 40.7h21.1M203.7 40.7H225M225.3 40.7h21.1M246.6 40.7H268M268.2 40.7h21.1M289.6 40.7h21.3M311.2 40.7h.2M.4 33.5H10M10.2 33.5h21.4M31.8 33.5h21.4M53.2 33.5h21.3M74.8 33.5h21.3M96.4 33.5h21.1M117.7 33.5h21.4M139.3 33.5h21.2M160.7 33.5h21.4M182.3 33.5h21.1M203.7 33.5H225M225.3 33.5h21.1M246.6 33.5H268M268.2 33.5h21.1M289.6 33.5h21.3M311.2 33.5h.2M.4 26.3H10M10.2 26.3h21.4M31.8 26.3h21.4M53.2 26.3h21.3M74.8 26.3h21.3M96.4 26.3h21.1M117.7 26.3h21.4M139.3 26.3h21.2M160.7 26.3h21.4M182.3 26.3h21.1M203.7 26.3H225M225.3 26.3h21.1M246.6 26.3H268M268.2 26.3h21.1M289.6 26.3h21.3M311.2 26.3h.2M.4 19.1H10M10.2 19.1h21.4M31.8 19.1h21.4M53.2 19.1h21.3M74.8 19.1h21.3M96.4 19.1h21.1M117.7 19.1h21.4M139.3 19.1h21.2M160.7 19.1h21.4M182.3 19.1h21.1M203.7 19.1H225M225.3 19.1h21.1M246.6 19.1H268M268.2 19.1h21.1M289.6 19.1h21.3M311.2 19.1h.2M.4 11.6H10M10.2 11.6h21.4M31.8 11.6h21.4M53.2 11.6h21.3M74.8 11.6h21.3M96.4 11.6h21.1M117.7 11.6h21.4M139.3 11.6h21.2M160.7 11.6h21.4M182.3 11.6h21.1M203.7 11.6H225M225.3 11.6h21.1M246.6 11.6H268M268.2 11.6h21.1M289.6 11.6h21.3M311.2 11.6h.2M.4 4.4H10M10.2 4.4h21.4M31.8 4.4h21.4M53.2 4.4h21.3M74.8 4.4h21.3M96.4 4.4h21.1M117.7 4.4h21.4M139.3 4.4h21.2M160.7 4.4h21.4M182.3 4.4h21.1M203.7 4.4H225M225.3 4.4h21.1M246.6 4.4H268M268.2 4.4h21.1M289.6 4.4h21.3M311.2 4.4h.2M10.2 91.5v-3.3M10.2 84.3V81M10.2 76.9v-3.4M10.2 69.7v-3.4M10.2 62.5v-3.4M10.2 55.3v-3.4M10.2 48.1v-3.6M10.2 40.7v-3.4M10.2 33.5v-3.4M10.2 26.3v-3.4M10.2 19.1v-3.6M10.2 11.6V8.3M31.8 91.5v-3.3M31.8 84.3V81M31.8 76.9v-3.4M31.8 69.7v-3.4M31.8 62.5v-3.4M31.8 55.3v-3.4M31.8 48.1v-3.6M31.8 40.7v-3.4M31.8 33.5v-3.4M31.8 26.3v-3.4M31.8 19.1v-3.6M31.8 11.6V8.3M53.2 91.5v-3.3M53.2 84.3V81M53.2 76.9v-3.4M53.2 69.7v-3.4M53.2 62.5v-3.4M53.2 55.3v-3.4M53.2 48.1v-3.6M53.2 40.7v-3.4M53.2 33.5v-3.4M53.2 26.3v-3.4M53.2 19.1v-3.6M53.2 11.6V8.3M74.8 91.5v-3.3M74.8 84.3V81M74.8 76.9v-3.4M74.8 69.7v-3.4M74.8 62.5v-3.4M74.8 55.3v-3.4M74.8 48.1v-3.6M74.8 40.7v-3.4M74.8 33.5v-3.4M74.8 26.3v-3.4M74.8 19.1v-3.6M74.8 11.6V8.3M96.4 91.5v-3.3M96.4 84.3V81M96.4 76.9v-3.4M96.4 69.7v-3.4M96.4 62.5v-3.4M96.4 55.3v-3.4M96.4 48.1v-3.6M96.4 40.7v-3.4M96.4 33.5v-3.4M96.4 26.3v-3.4M96.4 19.1v-3.6M96.4 11.6V8.3M117.7 91.5v-3.3M117.7 84.3V81M117.7 76.9v-3.4M117.7 69.7v-3.4M117.7 62.5v-3.4M117.7 55.3v-3.4M117.7 48.1v-3.6M117.7 40.7v-3.4M117.7 33.5v-3.4M117.7 26.3v-3.4M117.7 19.1v-3.6M117.7 11.6V8.3M139.3 91.5v-3.3M139.3 84.3V81M139.3 76.9v-3.4M139.3 69.7v-3.4M139.3 62.5v-3.4M139.3 55.3v-3.4M139.3 48.1v-3.6M139.3 40.7v-3.4M139.3 33.5v-3.4M139.3 26.3v-3.4M139.3 19.1v-3.6M139.3 11.6V8.3M160.7 91.5v-3.3M160.7 84.3V81M160.7 76.9v-3.4M160.7 69.7v-3.4M160.7 62.5v-3.4M160.7 55.3v-3.4M160.7 48.1v-3.6M160.7 40.7v-3.4M160.7 33.5v-3.4M160.7 26.3v-3.4M160.7 19.1v-3.6M160.7 11.6V8.3M182.3 91.5v-3.3M182.3 84.3V81M182.3 76.9v-3.4M182.3 69.7v-3.4M182.3 62.5v-3.4M182.3 55.3v-3.4M182.3 48.1v-3.6M182.3 40.7v-3.4M182.3 33.5v-3.4M182.3 26.3v-3.4M182.3 19.1v-3.6M182.3 11.6V8.3M203.7 91.5v-3.3M203.7 84.3V81M203.7 76.9v-3.4M203.7 69.7v-3.4M203.7 62.5v-3.4M203.7 55.3v-3.4M203.7 48.1v-3.6M203.7 40.7v-3.4M203.7 33.5v-3.4M203.7 26.3v-3.4M203.7 19.1v-3.6M203.7 11.6V8.3M225.3 91.5v-3.3M225.3 84.3V81M225.3 76.9v-3.4M225.3 69.7v-3.4M225.3 62.5v-3.4M225.3 55.3v-3.4M225.3 48.1v-3.6M225.3 40.7v-3.4M225.3 33.5v-3.4M225.3 26.3v-3.4M225.3 19.1v-3.6M225.3 11.6V8.3M246.6 91.5v-3.3M246.6 84.3V81M246.6 76.9v-3.4M246.6 69.7v-3.4M246.6 62.5v-3.4M246.6 55.3v-3.4M246.6 48.1v-3.6M246.6 40.7v-3.4M246.6 33.5v-3.4M246.6 26.3v-3.4M246.6 19.1v-3.6M246.6 11.6V8.3M268.2 91.5v-3.3M268.2 84.3V81M268.2 76.9v-3.4M268.2 69.7v-3.4M268.2 62.5v-3.4M268.2 55.3v-3.4M268.2 48.1v-3.6M268.2 40.7v-3.4M268.2 33.5v-3.4M268.2 26.3v-3.4M268.2 19.1v-3.6M268.2 11.6V8.3M289.6 91.5v-3.3M289.6 84.3V81M289.6 76.9v-3.4M289.6 69.7v-3.4M289.6 62.5v-3.4M289.6 55.3v-3.4M289.6 48.1v-3.6M289.6 40.7v-3.4M289.6 33.5v-3.4M289.6 26.3v-3.4M289.6 19.1v-3.6M289.6 11.6V8.3M311.2 91.5v-3.3M311.2 84.3V81M311.2 76.9v-3.4M311.2 69.7v-3.4M311.2 62.5v-3.4M311.2 55.3v-3.4M311.2 48.1v-3.6M311.2 40.7v-3.4M311.2 33.5v-3.4M311.2 26.3v-3.4M311.2 19.1v-3.6M311.2 11.6V8.3M311.2 4.4"/><path class="cls-6" d="M.1 4.5h311v89.2h-21.3v-.5h-28.6v.5h-192v-.5H24.4v.5H.1"/><path class="cls-18" d="M32.1 93.2h58.6v3.6H32.1z"/><path class="cls-19" d="M120.9 171.9h34M120.9 164.5h34M120.9 156.8h34M120.9 149.1h34M252.9 149.1H219M252.9 156.8H219M252.9 164.5H219M252.9 171.9H219M120.9 145.3v-1.4H219v33.3h-64.1v-31.9h1.5v30.5h61.2v-30.5h-96.7zM160.2 177.2v34.1M167.9 177.2v34.1M175.3 177.2v34.1M183 177.2v34.1M190.7 177.2v34.1M198.4 177.2v34.1M206.1 177.2v34.1M213.7 177.2v34.1M239.9 153H232M236.1 149.1l3.8 3.9M232 153l4.1-3.9"/><path class="cls-24" d="M250.2 208.7H123.5v-63.4h-1.2v64.6h129.4v-66.3h-1.5v65.1"/><path class="cls-19" d="M250.2 208.7H123.5v-63.4h-1.2v64.6h129.4v-66.3h-1.5v65.1zM113.9 143.9H96.1M113.9 142.4H97.6M113.9 143.9H96.1M113.9 144.6H95.4M113.9 142.4H97.6M113.9 142.4v1.5M88 163.3h17.5V231H88z"/><path class="cls-23" d="M89.4 172.2H104V188H89.4z"/><path class="cls-19" d="M89.4 172.2H104V188H89.4z"/><path class="cls-24" d="M97.1 184.2c0-1.6-1.3-2.9-2.9-2.9s-2.9 1.3-2.9 2.9 1.3 2.9 2.9 2.9 2.9-1.3 2.9-2.9"/><path class="cls-19" d="M97.1 184.2c0-1.6-1.3-2.9-2.9-2.9s-2.9 1.3-2.9 2.9 1.3 2.9 2.9 2.9 2.9-1.3 2.9-2.9"/><path class="cls-24" d="M103.1 185.1c0-1.2-1-2.2-2.2-2.2s-2.2 1-2.2 2.2 1 2.2 2.2 2.2 2.2-1 2.2-2.2"/><path class="cls-19" d="M103.1 185.1c0-1.2-1-2.2-2.2-2.2s-2.2 1-2.2 2.2 1 2.2 2.2 2.2 2.2-1 2.2-2.2"/><path class="cls-24" d="M96.4 176.6c0-1.3-1-2.3-2.3-2.3s-2.3 1-2.3 2.3 1 2.3 2.3 2.3 2.3-1 2.3-2.3"/><path class="cls-19" d="M96.4 176.6c0-1.3-1-2.3-2.3-2.3s-2.3 1-2.3 2.3 1 2.3 2.3 2.3 2.3-1 2.3-2.3"/><path class="cls-24" d="M103.3 176.9c0-1.5-1.2-2.8-2.8-2.8s-2.8 1.2-2.8 2.8 1.2 2.8 2.8 2.8 2.8-1.2 2.8-2.8"/><path class="cls-19" d="M103.3 176.9c0-1.5-1.2-2.8-2.8-2.8s-2.8 1.2-2.8 2.8 1.2 2.8 2.8 2.8 2.8-1.2 2.8-2.8M90.1 171.7H88M90.1 188.7H88M90.1 205.5H88M90.1 230.5H88M95.4 231h16.3v.5H95.4zM95.4 231.5h.5v17h-.5zM95.9 248h15.4v.5H95.9zM95.9 231.5h15.4v.7H95.9z"/><path class="cls-19" d="M111.3 231.5h.5v17h-.5z"/><path class="cls-24" d="M100.3 221.7H91c-.1 0-.3 0-.4-.1-.1 0-.2-.1-.3-.2-.1 0-.2-.2-.3-.2 0 0-.2-.2-.2-.3s-.1-.2-.2-.3c0-.1 0-.2-.1-.4v-11.6-.4c0-.1 0-.3.1-.4 0-.1.1-.2.2-.3s.2-.2.2-.3c0 0 .2-.2.3-.2.1 0 .2-.1.3-.2.1 0 .2 0 .4-.1h9.3c.3 0 .5 0 .8.2.2.1.5.2.6.4.2.2.3.4.4.6 0 .2.2.5.2.8v11.6c0 .1 0 .3-.1.4 0 .1-.1.2-.2.3 0 .1-.2.2-.2.3 0 0-.2.2-.3.2-.1 0-.2.1-.3.2-.1 0-.2 0-.4.1h-.4"/><path class="cls-19" d="M100.3 221.7H91c-.1 0-.3 0-.4-.1-.1 0-.2-.1-.3-.2-.1 0-.2-.2-.3-.2 0 0-.2-.2-.2-.3s-.1-.2-.2-.3c0-.1 0-.2-.1-.4v-11.6-.4c0-.1 0-.3.1-.4 0-.1.1-.2.2-.3s.2-.2.2-.3c0 0 .2-.2.3-.2.1 0 .2-.1.3-.2.1 0 .2 0 .4-.1h9.3c.3 0 .5 0 .8.2.2.1.5.2.6.4.2.2.3.4.4.6 0 .2.2.5.2.8v11.6c0 .1 0 .3-.1.4 0 .1-.1.2-.2.3 0 .1-.2.2-.2.3 0 0-.2.2-.3.2-.1 0-.2.1-.3.2-.1 0-.2 0-.4.1h-.4"/><path class="cls-24" d="M100.2 214.2c0-.7-.5-1.2-1.2-1.2s-1.2.5-1.2 1.2.5 1.2 1.2 1.2 1.2-.5 1.2-1.2"/><path class="cls-19" d="M100.2 214.2c0-.7-.5-1.2-1.2-1.2s-1.2.5-1.2 1.2.5 1.2 1.2 1.2 1.2-.5 1.2-1.2M90.1 163.8H88M95.4 162.6h16.3v.7H95.4z"/><path class="cls-19" d="M95.4 145.8h.5v16.8h-.5zM95.9 145.8h15.4v.5H95.9zM95.9 162.1h15.4v.5H95.9zM95.4 144.6h.5v1.2h-.5z"/><path class="cls-19" d="M111.3 145.8h.5v16.8h-.5zM113.9 230h-7.7M113.9 228.6h-6.2M113.9 230h-7.7M113.9 230.7h-8.4M113.9 228.6h-6.2M113.9 228.6v1.4M106.2 230v-65.7M107.7 228.6v-62.9M106.2 230v-65.7M105.5 230.7v-67.2M107.7 228.6v-62.9M106.2 164.3h7.7M107.7 165.7h6.2M106.2 164.3h7.7M113.9 165.7v-1.4M105.5 163.5h8.4M107.7 165.7h6.2M95.4 248.5h.5v17h-.5zM95.9 265.1h15.4v.5H95.9zM95.9 248.5h15.4v.7H95.9z"/><path class="cls-19" d="M111.3 248.5h.5v17h-.5zM95.4 265.5h.5v17h-.5zM95.9 282.1h15.4v.5H95.9zM95.9 265.5h15.4v.7H95.9z"/><path class="cls-19" d="M111.3 265.5h.5v17h-.5zM95.4 282.6h.5v1.2h-.5zM90.1 222.6H88"/><path class="cls-1" d="M95.4 231v-67.7"/><path class="cls-6" d="M107.2 12.1h193.2v72.2H107.2z"/><path class="cls-19" d="M96.1 140.3h17.8M97.6 141.5h16.3M96.1 140.3h17.8M113.9 141.5v-1.2M95.4 139.5h18.5M97.6 141.5h16.3M96.1 143.9v-3.6M97.6 142.4v-.9M96.1 143.9v-3.6M95.4 144.6v-5.1M97.6 142.4v-.9"/><path class="cls-23" d="M118.2 226.7h48.5v57.6h-48.5z"/><path class="cls-19" d="M118.2 226.7h48.5v57.6h-48.5zM120.4 284.5v-58.1"/><path class="cls-24" d="M153.3 244.7c1.3.9 3 .9 4.3 0 1.9-1.5 2.9-3.8 2.9-6.2l-.3-7.2h-9.6l-.3 7.2c0 2.4 1 4.7 2.9 6.2"/><path class="cls-19" d="M153.3 244.7c1.3.9 3 .9 4.3 0 1.9-1.5 2.9-3.8 2.9-6.2l-.3-7.2h-9.6l-.3 7.2c0 2.4 1 4.7 2.9 6.2"/><path class="cls-24" d="M155.5 234.6c-1 0-2 .3-2.8 1.1-.7.7-1.2 1.7-1.2 2.7 0 2.1.9 4.1 2.5 5.4.9.6 2 .6 2.9 0 1.6-1.3 2.5-3.3 2.5-5.4 0-1-.4-2-1.2-2.7-.7-.7-1.8-1.1-2.8-1.1"/><path class="cls-19" d="M155.5 234.6c-1 0-2 .3-2.8 1.1-.7.7-1.2 1.7-1.2 2.7 0 2.1.9 4.1 2.5 5.4.9.6 2 .6 2.9 0 1.6-1.3 2.5-3.3 2.5-5.4 0-1-.4-2-1.2-2.7-.7-.7-1.8-1.1-2.8-1.1"/><path class="cls-24" d="M150.6 231.2v-4.8h9.6v4.8h-9.6"/><path class="cls-19" d="M150.6 226.4h9.6v4.8h-9.6zM192.9 225.7h-5.6M192.9 224.3h-4.1M192.9 225.7h-5.6M192.9 226.4h-6.3M192.9 224.3h-4.1M192.9 224.3v1.4M187.3 221.9h-18.4M188.8 220.4h-21.4M187.3 221.9h-18.4M186.6 222.6h-17M188.8 220.4h-21.4M168.9 225.7H118M167.4 224.3H118M168.9 225.7H118M118 224.3v1.4M169.6 226.4H118M167.4 224.3H118"/><path class="cls-24" d="M170.4 226.3V238.7s0 .1.1.2c0 0 0 .1.1.2 0 0 .1.1.2.1 0 0 .1 0 .2.1h14.1s.1 0 .2-.1c0 0 .1 0 .2-.1 0 0 0-.1.1-.2 0 0 0-.1.1-.2v-.2-12.2h-15.6"/><path class="cls-19" d="M170.4 226.3V238.7s0 .1.1.2c0 0 0 .1.1.2 0 0 .1.1.2.1 0 0 .1 0 .2.1h14.1s.1 0 .2-.1c0 0 .1 0 .2-.1 0 0 0-.1.1-.2 0 0 0-.1.1-.2v-.2-12.2h-15.6"/><path class="cls-15" d="M186.6 226.4v-3.8"/><path class="cls-4" d="M186.6 222.6h-17"/><path class="cls-15" d="M169.6 222.6v3.8"/><path class="cls-19" d="M168.9 221.9v3.8M167.4 220.4v3.9M168.9 221.9v3.8M169.6 222.6v3.8M167.4 220.4v3.9M187.3 225.7v-3.8M188.8 224.3v-3.9M187.3 225.7v-3.8M186.6 226.4v-3.8M188.8 224.3v-3.9"/><path class="cls-24" d="M93 91.3v1.4h20.9v-1.4H93M93 92.7V99h20.9v-6.3H93"/><path class="cls-18" d="M113.4 99v-6.3M112 99v-6.3M110.5 99v-6.3M109.3 99v-6.3M107.9 99v-6.3M106.5 99v-6.3M105 99v-6.3M103.6 99v-6.3M102.1 99v-6.3M100.7 99v-6.3M99.3 99v-6.3M97.8 99v-6.3M96.4 99v-6.3M95.2 99v-6.3M93.7 99v-6.3"/><path class="cls-24" d="M93 99v5.3h20.9V99H93"/><path class="cls-18" d="M93.3 101.9l2.1 2.4M94.2 99l5.3 5.3M98.3 99l5.3 5.3M102.1 99l5.3 5.3M106.2 99l5.3 5.3M110.3 99l3.8 3.8M93 99h20.9M93 92.7h20.9"/><path class="cls-19" d="M93 90.6h20.9M93 104.3h20.9"/><path class="cls-24" d="M.1 91.3v1.4h29.6v-1.4H.1M.1 92.7V99h29.6v-6.3H.1"/><path class="cls-18" d="M28.5 99v-6.3M27 99v-6.3M25.6 99v-6.3M24.1 99v-6.3M22.7 99v-6.3M21.3 99v-6.3M20.1 99v-6.3M18.6 99v-6.3M17.2 99v-6.3M15.7 99v-6.3M14.3 99v-6.3M12.9 99v-6.3M11.4 99v-6.3M10 99v-6.3M8.5 99v-6.3M7.1 99v-6.3M5.7 99v-6.3M4.5 99v-6.3M3 99v-6.3M1.6 99v-6.3"/><path class="cls-24" d="M.1 99v5.3h29.6V99H.1"/><path class="cls-18" d="M.4 101.4l2.9 2.9M2.1 99l5.2 5.3M5.9 99l5.3 5.3M10 99l5.3 5.3M14.1 99l5.2 5.3M18.1 99l5.3 5.3M22 99l5.3 5.3M26.1 99l3.8 3.8M.1 99h29.6M.1 92.7h29.6"/><path class="cls-19" d="M.1 90.6h29.6M.1 104.3h29.6"/><path class="cls-1" d="M32.1 96.8v-6.2"/><path class="cls-19" d="M32.1 91.1v-.5"/><path class="cls-8" d="M32.1 90.6h58.5"/><path class="cls-19" d="M90.1 90.6h.5"/><path class="cls-1" d="M90.6 90.6v6.2"/><path class="cls-19" d="M90.6 96.3v.5"/><path class="cls-1" d="M29.7 104.3H93"/><path class="cls-19" d="M92.5 104.3h.5M29.7 96.8h63.4V99H29.7zM33.7 96.8V99M88.9 96.8V99M29.7 99v-2.2M48.6 99v-2.2M33.7 99v-2.2M52.7 99v-2.2M48.6 99v-2.2M70 99v-2.2M52.7 99v-2.2M74.1 99v-2.2M70 99v-2.2M88.9 99v-2.2M74.1 99v-2.2M93 99v-2.2"/><path class="cls-18" d="M29.7 96.8v-4.1"/><path class="cls-19" d="M32.1 96.8h-2.4"/><path class="cls-18" d="M93 96.8v-4.1"/><path class="cls-19" d="M90.6 96.8H93"/><path class="cls-24" d="M304.2 272l.5 1.5h6.5V272h-7M298.5 265.8l5.7 6.2h7v-6.2h-12.7"/><path class="cls-18" d="M299.2 265.8v.7M300.6 265.8v2.1M302.1 265.8v3.6M303.5 265.8v5.3M304.9 265.8v6.2M306.1 265.8v6.2M307.6 265.8v6.2M309 265.8v6.2M310.5 265.8v6.2"/><path class="cls-24" d="M311.2 265.8l-7.2-5.1h-10.6v5.1h17.8"/><path class="cls-18" d="M309 265.8l-5-5.1M305.2 265.8l-5.1-5.1M301.1 265.8l-5-5.1M297 265.8l-3.3-3.6M308.3 265.8l1.2-1.2M304.2 265.8l2.9-2.9M300.1 265.8l4.6-4.6M296.3 265.8l5-5.1M293.7 264.6l3.6-3.9M311.2 265.8h-12.7M311.2 272h-7"/><path class="cls-19" d="M311.2 274.2h-3.1M304 260.7h-10.6"/><path class="cls-24" d="M29.9 337.8v-3.4H.1v3.4h29.8"/><path class="cls-18" d="M.9 334.4l3.3 3.4M4.9 334.4l3.4 3.4M9 334.4l3.4 3.4M12.9 334.4l3.3 3.4M16.9 334.4l3.4 3.4M21 334.4l3.4 3.4M24.9 334.4l3.3 3.4M28.9 334.4l1.2 1"/><path class="cls-24" d="M29.9 334.4v-.5H.1v.5h29.8M29.9 333.9v-5.7H.1v5.7h29.8"/><path class="cls-18" d="M1.6 328.2v5.7M3 328.2v5.7M4.5 328.2v5.7M5.7 328.2v5.7M7.1 328.2v5.7M8.5 328.2v5.7M10 328.2v5.7M11.4 328.2v5.7M12.9 328.2v5.7M14.3 328.2v5.7M15.7 328.2v5.7M17.2 328.2v5.7M18.6 328.2v5.7M20.1 328.2v5.7M21.3 328.2v5.7M22.7 328.2v5.7M24.1 328.2v5.7M25.6 328.2v5.7M27 328.2v5.7M28.5 328.2v5.7M29.9 328.2v5.7"/><path class="cls-24" d="M29.9 328.2v-5.1H.1v5.1h29.8"/><path class="cls-18" d="M.4 325.8l2.4 2.4M1.6 323.1l5 5.1M5.7 323.1l5 5.1M9.7 323.1l5.1 5.1M13.6 323.1l5 5.1M17.7 323.1l5 5.1M21.7 323.1l5.1 5.1M25.8 323.1l4.3 4.4M29.7 323.1l.4.3M29.9 328.2H.1M29.9 333.9H.1"/><path class="cls-19" d="M29.9 337.8H.1M29.9 323.1H.1"/><path class="cls-24" d="M144.1 337.8v-3.4H92.8v3.4h51.3"/><path class="cls-18" d="M93 334.4l3.4 3.4M97.1 334.4l3.4 3.4M101.2 334.4l3.3 3.4M105 334.4l3.4 3.4M109.1 334.4l3.4 3.4M113.2 334.4l3.3 3.4M117.3 334.4l3.3 3.4M121.1 334.4l3.4 3.4M125.2 334.4l3.3 3.4M129.3 334.4l3.3 3.4M133.1 334.4l3.4 3.4M137.2 334.4l3.3 3.4M141.3 334.4l3.1 3.1"/><path class="cls-24" d="M144.1 334.4v-.5H92.8v.5h51.3M144.1 333.9v-5.7H92.8v5.7h51.3"/><path class="cls-18" d="M93.7 328.2v5.7M95.2 328.2v5.7M96.4 328.2v5.7M97.8 328.2v5.7M99.3 328.2v5.7M100.7 328.2v5.7M102.1 328.2v5.7M103.6 328.2v5.7M105 328.2v5.7M106.5 328.2v5.7M107.9 328.2v5.7M109.3 328.2v5.7M110.5 328.2v5.7M112 328.2v5.7M113.4 328.2v5.7M114.9 328.2v5.7M116.3 328.2v5.7M117.7 328.2v5.7M119.2 328.2v5.7M120.6 328.2v5.7M122.1 328.2v5.7M123.5 328.2v5.7M124.9 328.2v5.7M126.1 328.2v5.7M127.6 328.2v5.7M129 328.2v5.7M130.5 328.2v5.7M131.9 328.2v5.7M133.3 328.2v5.7M134.8 328.2v5.7M136.2 328.2v5.7M137.7 328.2v5.7M139.1 328.2v5.7M140.5 328.2v5.7M141.7 328.2v5.7M143.2 328.2v5.7"/><path class="cls-24" d="M144.1 328.2v-5.1H92.8v5.1h51.3"/><path class="cls-18" d="M93 326.3l1.9 1.9M93.7 323.1l5.1 5.1M97.8 323.1l5.1 5.1M101.9 323.1l5 5.1M106 323.1l5 5.1M109.8 323.1l5.1 5.1M113.9 323.1l5 5.1M118 323.1l5 5.1M121.8 323.1l5.1 5.1M125.9 323.1l5 5.1M130 323.1l5 5.1M134.1 323.1l5 5.1M137.9 323.1l5 5.1M142 323.1l2.4 2.4M144.1 328.2H92.8M144.1 333.9H92.8"/><path class="cls-19" d="M144.1 337.8H92.8M144.1 323.1H92.8"/><path class="cls-24" d="M239.9 337.8v-3.4h-55v3.4h55"/><path class="cls-18" d="M185.4 334.4l3.4 3.4M189.3 334.4l3.3 3.4M193.3 334.4l3.4 3.4M197.4 334.4l3.4 3.4M201.3 334.4l3.3 3.4M205.3 334.4l3.4 3.4M209.4 334.4l3.4 3.4M213.3 334.4l3.3 3.4M217.3 334.4l3.4 3.4M221.4 334.4l3.4 3.4M225.5 334.4l3.4 3.4M229.3 334.4l3.4 3.4M233.4 334.4l3.4 3.4M237.5 334.4l2.6 2.7"/><path class="cls-24" d="M239.9 334.4v-.5h-55v.5h55M239.9 333.9v-5.7h-55v5.7h55"/><path class="cls-18" d="M185.7 328.2v5.7M187.1 328.2v5.7M188.5 328.2v5.7M190 328.2v5.7M191.4 328.2v5.7M192.9 328.2v5.7M194.3 328.2v5.7M195.7 328.2v5.7M197.2 328.2v5.7M198.6 328.2v5.7M200.1 328.2v5.7M201.3 328.2v5.7M202.7 328.2v5.7M204.1 328.2v5.7M205.6 328.2v5.7M207 328.2v5.7M208.5 328.2v5.7M209.9 328.2v5.7M211.3 328.2v5.7M212.8 328.2v5.7M214.2 328.2v5.7M215.7 328.2v5.7M216.9 328.2v5.7M218.3 328.2v5.7M219.7 328.2v5.7M221.2 328.2v5.7M222.6 328.2v5.7M224.1 328.2v5.7M225.5 328.2v5.7M226.9 328.2v5.7M228.4 328.2v5.7M229.8 328.2v5.7M231 328.2v5.7M232.5 328.2v5.7M233.9 328.2v5.7M235.3 328.2v5.7M236.8 328.2v5.7M238.2 328.2v5.7M239.7 328.2v5.7"/><path class="cls-24" d="M239.9 328.2v-5.1h-55v5.1h55"/><path class="cls-18" d="M185.2 326.3l1.9 1.9M186.1 323.1l5.1 5.1M190 323.1l5 5.1M194.1 323.1l5 5.1M198.1 323.1l5.1 5.1M202 323.1l5 5.1M206.1 323.1l5 5.1M210.1 323.1l5.1 5.1M214.2 323.1l5.1 5.1M218.1 323.1l5 5.1M222.1 323.1l5.1 5.1M226.2 323.1l5.1 5.1M230.1 323.1l5 5.1M234.1 323.1l5.1 5.1M238.2 323.1l1.9 2M239.9 328.2h-55M239.9 333.9h-55"/><path class="cls-19" d="M239.9 337.8h-55M239.9 323.1h-55"/><path class="cls-24" d="M308.1 337.8l-3.4-3.4h-24v3.4h27.4"/><path class="cls-18" d="M281.4 334.4l3.4 3.4M285.5 334.4l3.4 3.4M289.6 334.4l3.3 3.4M293.7 334.4l3.3 3.4M297.5 334.4l3.4 3.4M301.6 334.4l3.3 3.4"/><path class="cls-24" d="M304.7 334.4l-.5-.5h-23.5v.5h24M304.2 333.9l-5.7-5.7h-17.8v5.7h23.5"/><path class="cls-18" d="M282.1 328.2v5.7M283.6 328.2v5.7M285 328.2v5.7M286.5 328.2v5.7M287.9 328.2v5.7M289.3 328.2v5.7M290.5 328.2v5.7M292 328.2v5.7M293.4 328.2v5.7M294.9 328.2v5.7M296.3 328.2v5.7M297.7 328.2v5.7M299.2 328.7v5.2M300.6 330.1v3.8M302.1 331.5v2.4M303.5 333v.9"/><path class="cls-24" d="M298.5 328.2l-5.1-5.1h-12.7v5.1h17.8"/><path class="cls-18" d="M280.9 325.8l2.4 2.4M282.4 323.1l5 5.1M286.2 323.1l5.1 5.1M290.3 323.1l5 5.1M298.5 328.2h-17.8M304.2 333.9h-23.5"/><path class="cls-19" d="M308.1 337.8h-27.4M293.4 323.1h-12.7M90.9 330.6v7.2h3.6v1.9H28.2v-1.9h3.6v-7.2"/><path class="cls-1" d="M92.8 323.1H29.9"/><path class="cls-19" d="M29.9 328.2h62.9v2.4H29.9zM89.2 330.6v-2.4M33.5 330.6v-2.4M92.8 328.2v2.4M73.8 328.2v2.4M89.2 328.2v2.4M69.7 328.2v2.4M73.8 328.2v2.4M52.9 328.2v2.4M69.7 328.2v2.4M48.9 328.2v2.4M52.9 328.2v2.4M33.5 328.2v2.4M48.9 328.2v2.4M29.9 328.2v2.4"/><path class="cls-24" d="M92.8 333.9H91v-3.4h1.8"/><path class="cls-18" d="M92.3 330.6v3.3M92.8 333.9H91v-3.4h1.8"/><path class="cls-24" d="M92.8 337.8h-1.9v-3.4h1.9"/><path class="cls-18" d="M91.1 336.3l1.4 1.5"/><path class="cls-24" d="M29.9 333.9h1.8v-3.4h-1.8"/><path class="cls-18" d="M31.3 330.6v3.3M29.9 333.9h1.8v-3.4h-1.8"/><path class="cls-24" d="M29.9 337.8h1.9v-3.4h-1.9"/><path class="cls-18" d="M30.1 335.4l2 1.9"/><path class="cls-19" d="M183 330.6v7.2h3.4v1.9h-43.9v-1.9h3.6v-7.2"/><path class="cls-1" d="M184.9 323.1h-40.8"/><path class="cls-19" d="M144.6 323.1h-.5M144.1 328.2h40.8v2.4h-40.8zM181.3 330.6v-2.4M147.7 330.6v-2.4M184.9 328.2v2.4M166.7 328.2v2.4M181.3 328.2v2.4M162.4 328.2v2.4M166.7 328.2v2.4M147.7 328.2v2.4M162.4 328.2v2.4M144.1 328.2v2.4"/><path class="cls-24" d="M184.9 333.9h-1.8v-3.4h1.8"/><path class="cls-18" d="M184.5 330.6v3.3M184.9 333.9h-1.8v-3.4h1.8"/><path class="cls-24" d="M184.9 337.8H183v-3.4h1.9"/><path class="cls-18" d="M183.3 336.3l1.4 1.5"/><path class="cls-24" d="M144.1 333.9h1.9v-3.4h-1.9"/><path class="cls-18" d="M144.6 330.6v3.3M146.1 330.6v3.3M144.1 333.9h1.9v-3.4h-1.9"/><path class="cls-24" d="M144.1 337.8h2v-3.4h-2"/><path class="cls-18" d="M144.4 337.5l.2.3M145.3 334.4l1 1"/><path class="cls-19" d="M279 330.6v7.2h3.4v1.9h-43.9v-1.9h3.3v-7.2"/><path class="cls-1" d="M280.7 323.1h-40.8"/><path class="cls-19" d="M240.4 323.1h-.5M239.9 328.2h40.8v2.4h-40.8zM277.1 330.6v-2.4M243.5 330.6v-2.4M280.7 328.2v2.4M262.5 328.2v2.4M277.1 328.2v2.4M258.4 328.2v2.4M262.5 328.2v2.4M243.5 328.2v2.4M258.4 328.2v2.4M239.9 328.2v2.4"/><path class="cls-24" d="M280.7 333.9h-1.8v-3.4h1.8"/><path class="cls-18" d="M279.3 330.6v3.3M280.7 330.6v3.3M280.7 333.9h-1.8v-3.4h1.8"/><path class="cls-24" d="M280.7 337.8H279v-3.4h1.7"/><path class="cls-18" d="M279.3 336.1l1.6 1.7"/><path class="cls-24" d="M239.9 333.9h1.9v-3.4h-1.9"/><path class="cls-18" d="M241.1 330.6v3.3M239.9 333.9h1.9v-3.4h-1.9"/><path class="cls-24" d="M239.9 337.8h1.9v-3.4h-1.9"/><path class="cls-18" d="M240.1 337.1l.8.7M241.3 334.4l.8.5"/><path class="cls-24" d="M120.9 211.3l-7 7.2h139v-7.2h-132"/><path class="cls-18" d="M253.1 213.7l-2.4-2.4M253.1 217.8l-6.5-6.5M249.7 218.5l-7.2-7.2M245.7 218.5l-7.2-7.2M241.8 218.5l-7.2-7.2M237.7 218.5l-7.2-7.2M233.7 218.5l-7.2-7.2M229.8 218.5l-7.2-7.2M225.7 218.5l-7.2-7.2M221.7 218.5l-7.2-7.2M217.8 218.5l-7.2-7.2M213.7 218.5l-7.2-7.2M209.7 218.5l-7.2-7.2M205.6 218.5l-7.2-7.2M201.7 218.5l-7.2-7.2M197.7 218.5l-7.2-7.2M193.6 218.5l-7.2-7.2M189.7 218.5l-7.2-7.2M185.7 218.5l-7.2-7.2M181.6 218.5l-7.2-7.2M177.7 218.5l-7.2-7.2M173.7 218.5l-7.2-7.2M169.6 218.5l-7.2-7.2M165.5 218.5l-7.2-7.2M161.7 218.5l-7.2-7.2M157.6 218.5l-7.2-7.2M153.5 218.5l-7.2-7.2M149.7 218.5l-7.2-7.2M145.6 218.5l-7.2-7.2M141.5 218.5l-7.2-7.2M137.7 218.5l-7.2-7.2M133.6 218.5l-7.2-7.2M129.5 218.5l-7.2-7.2M125.4 218.5l-5.7-5.8M121.6 218.5l-3.9-3.8M117.5 218.5l-1.7-1.7M251.4 218.5l1.7-1.7M247.3 218.5l5.8-5.8M243.3 218.5l7.2-7.2M239.2 218.5l7.2-7.2M235.3 218.5l7.2-7.2M231.3 218.5l7.2-7.2M227.2 218.5l7.2-7.2M223.3 218.5l7.2-7.2M219.3 218.5l7.2-7.2M215.2 218.5l7.2-7.2M211.3 218.5l7.2-7.2M207.3 218.5l7.2-7.2M203.2 218.5l7.2-7.2M199.1 218.5l7.2-7.2M195.3 218.5l7.2-7.2M191.2 218.5l7.2-7.2M187.1 218.5l7.2-7.2M183.3 218.5l7.2-7.2M179.2 218.5l7.2-7.2M175.1 218.5l7.2-7.2M171.3 218.5l7.2-7.2M167.2 218.5l7.2-7.2M163.1 218.5l7.2-7.2M159 218.5l7.2-7.2M155.2 218.5l7.2-7.2M151.1 218.5l7.2-7.2M147 218.5l7.2-7.2M143.2 218.5l7.2-7.2M139.1 218.5l7.2-7.2M135 218.5l7.2-7.2M130.9 218.5l7.2-7.2M127.1 218.5l7.2-7.2M123 218.5l7.2-7.2M118.9 218.5l7.2-7.2M115.1 218.5l7.2-7.2"/><path class="cls-24" d="M120.9 211.3l-7 7.2h139v-7.2h-132"/><path class="cls-18" d="M253.1 213.7l-2.4-2.4M253.1 217.8l-6.5-6.5M249.7 218.5l-7.2-7.2M245.7 218.5l-7.2-7.2M241.8 218.5l-7.2-7.2M237.7 218.5l-7.2-7.2M233.7 218.5l-7.2-7.2M229.8 218.5l-7.2-7.2M225.7 218.5l-7.2-7.2M221.7 218.5l-7.2-7.2M217.8 218.5l-7.2-7.2M213.7 218.5l-7.2-7.2M209.7 218.5l-7.2-7.2M205.6 218.5l-7.2-7.2M201.7 218.5l-7.2-7.2M197.7 218.5l-7.2-7.2M193.6 218.5l-7.2-7.2M189.7 218.5l-7.2-7.2M185.7 218.5l-7.2-7.2M181.6 218.5l-7.2-7.2M177.7 218.5l-7.2-7.2M173.7 218.5l-7.2-7.2M169.6 218.5l-7.2-7.2M165.5 218.5l-7.2-7.2M161.7 218.5l-7.2-7.2M157.6 218.5l-7.2-7.2M153.5 218.5l-7.2-7.2M149.7 218.5l-7.2-7.2M145.6 218.5l-7.2-7.2M141.5 218.5l-7.2-7.2M137.7 218.5l-7.2-7.2M133.6 218.5l-7.2-7.2M129.5 218.5l-7.2-7.2M125.4 218.5l-5.7-5.8M121.6 218.5l-3.9-3.8M117.5 218.5l-1.7-1.7M251.4 218.5l1.7-1.7M247.3 218.5l5.8-5.8M243.3 218.5l7.2-7.2M239.2 218.5l7.2-7.2M235.3 218.5l7.2-7.2M231.3 218.5l7.2-7.2M227.2 218.5l7.2-7.2M223.3 218.5l7.2-7.2M219.3 218.5l7.2-7.2M215.2 218.5l7.2-7.2M211.3 218.5l7.2-7.2M207.3 218.5l7.2-7.2M203.2 218.5l7.2-7.2M199.1 218.5l7.2-7.2M195.3 218.5l7.2-7.2M191.2 218.5l7.2-7.2M187.1 218.5l7.2-7.2M183.3 218.5l7.2-7.2M179.2 218.5l7.2-7.2M175.1 218.5l7.2-7.2M171.3 218.5l7.2-7.2M167.2 218.5l7.2-7.2M163.1 218.5l7.2-7.2M159 218.5l7.2-7.2M155.2 218.5l7.2-7.2M151.1 218.5l7.2-7.2M147 218.5l7.2-7.2M143.2 218.5l7.2-7.2M139.1 218.5l7.2-7.2M135 218.5l7.2-7.2M130.9 218.5l7.2-7.2M127.1 218.5l7.2-7.2M123 218.5l7.2-7.2M118.9 218.5l7.2-7.2M115.1 218.5l7.2-7.2"/><path class="cls-24" d="M113.9 218.5l7-7.2v-69.1h-7v76.3"/><path class="cls-18" d="M121.1 145.8l-3.8-3.6M121.1 149.9l-7-7M121.1 153.9l-7-6.9M121.1 157.8l-7-7M121.1 161.9l-7-7M121.1 165.9l-7-6.9M121.1 169.8l-7-7M121.1 173.9l-7-7M121.1 177.9l-7-6.9M121.1 181.8l-7-7M121.1 185.9l-7-7M121.1 189.9l-7-6.9M121.1 194l-7-6.9M121.1 197.9l-7-7M121.1 201.9l-7-6.9M121.1 206l-7-6.9M121.1 209.9l-7-7M119.7 212.7l-5.6-5.7M117.7 214.7l-3.6-3.6M115.8 216.8l-1.7-1.7M114.1 215.4l7-7M114.1 211.5l7-6.9M114.1 207.5l7-7M114.1 203.4l7-7M114.1 199.5l7-6.9M114.1 195.5l7-7M114.1 191.4l7-7M114.1 187.5l7-6.9M114.1 183.5l7-7M114.1 179.4l7-7M114.1 175.3l7-7M114.1 171.5l7-7M114.1 167.4l7-7M114.1 163.3l7-7M114.1 159.5l7-7M114.1 155.4l7-7M114.1 151.3l7-7M114.1 147.5l5.1-5.3M114.1 143.4l1-1.2"/><path class="cls-24" d="M113.9 218.5l7-7.2v-69.1h-7v76.3"/><path class="cls-18" d="M121.1 145.8l-3.8-3.6M121.1 149.9l-7-7M121.1 153.9l-7-6.9M121.1 157.8l-7-7M121.1 161.9l-7-7M121.1 165.9l-7-6.9M121.1 169.8l-7-7M121.1 173.9l-7-7M121.1 177.9l-7-6.9M121.1 181.8l-7-7M121.1 185.9l-7-7M121.1 189.9l-7-6.9M121.1 194l-7-6.9M121.1 197.9l-7-7M121.1 201.9l-7-6.9M121.1 206l-7-6.9M121.1 209.9l-7-7M119.7 212.7l-5.6-5.7M117.7 214.7l-3.6-3.6M115.8 216.8l-1.7-1.7M114.1 215.4l7-7M114.1 211.5l7-6.9M114.1 207.5l7-7M114.1 203.4l7-7M114.1 199.5l7-6.9M114.1 195.5l7-7M114.1 191.4l7-7M114.1 187.5l7-6.9M114.1 183.5l7-7M114.1 179.4l7-7M114.1 175.3l7-7M114.1 171.5l7-7M114.1 167.4l7-7M114.1 163.3l7-7M114.1 159.5l7-7M114.1 155.4l7-7M114.1 151.3l7-7M114.1 147.5l5.1-5.3M114.1 143.4l1-1.2"/><path class="cls-24" d="M113.9 99h7v7.4h-7V99"/><path class="cls-18" d="M121.1 101.6l-2.9-2.6M121.1 105.7l-7-6.7M117.7 106.4l-3.6-3.6M118.9 106.4l2.2-2.1M114.9 106.4l6.2-6.2M114.1 103.3l4.1-4.3M114.1 99.2l.3-.2"/><path class="cls-24" d="M120.9 99h-7v7.4h7V99"/><path class="cls-18" d="M121.1 101.6l-2.9-2.6M121.1 105.7l-7-6.7M117.7 106.4l-3.6-3.6M118.9 106.4l2.2-2.1M114.9 106.4l6.2-6.2M114.1 103.3l4.1-4.3M114.1 99.2l.3-.2"/><path class="cls-19" d="M113.2 106.4h1.7v2.6h-1.7zM113.2 136.2h1.7v6h-1.7zM113.2 109.1h1.7v27.1h-1.7zM114.9 109.1v27.1"/><path class="cls-1" d="M120.9 108.6v27.8"/><path class="cls-19" d="M120.9 135.9v.5"/><path class="cls-24" d="M120.9 106.4v2.2h-6v-2.2"/><path class="cls-18" d="M119.9 108.6l-2.2-2.2M115.8 108.6l-.7-.7M120.6 108.6l.5-.3M116.8 108.6l2.1-2.2"/><path class="cls-24" d="M120.9 142.2v-5.8h-6v5.8"/><path class="cls-18" d="M121.1 137.9l-1.4-1.5M121.1 141.7l-5.5-5.3M117.3 142.2l-2.2-2.4M119.2 142.2l1.9-1.7M115.1 142.2l5.8-5.8M115.1 138.3l1.9-1.9"/><path class="cls-19" d="M86 109c0 14.9 12.3 27.2 27.2 27.2M113.2 109.1H86.1"/><path class="cls-24" d="M308.1 337.8v-63.6h-3.4v60.2l3.4 3.4"/><path class="cls-18" d="M304.9 333.7l3.4 3.4M304.9 329.6l3.4 3.4M304.9 325.5l3.4 3.4M304.9 321.7l3.4 3.4M304.9 317.6l3.4 3.4M304.9 313.5l3.4 3.4M304.9 309.7l3.4 3.4M304.9 305.6l3.4 3.4M304.9 301.5l3.4 3.4M304.9 297.7l3.4 3.4M304.9 293.6l3.4 3.4M304.9 289.5l3.4 3.4M304.9 285.5l3.4 3.3M304.9 281.6l3.4 3.4M304.9 277.5l3.4 3.4M305.4 274.2l2.9 2.6"/><path class="cls-24" d="M304.7 334.4v-60.9l-.5-1.5v61.9l.5.5M304.2 333.9V272l-5.7-6.2v62.4l5.7 5.7"/><path class="cls-18" d="M304 333.7h.5M302.5 332.3h2M301.1 330.8h3.4M299.7 329.4h4.8M298.7 327.9h5.8M298.7 326.5h5.8M298.7 325.1h5.8M298.7 323.6h5.8M298.7 322.2h5.8M298.7 320.7h5.8M298.7 319.5h5.8M298.7 318.1h5.8M298.7 316.7h5.8M298.7 315.2h5.8M298.7 313.8h5.8M298.7 312.3h5.8M298.7 310.9h5.8M298.7 309.5h5.8M298.7 308h5.8M298.7 306.6h5.8M298.7 305.1h5.8M298.7 303.9h5.8M298.7 302.5h5.8M298.7 301.1h5.8M298.7 299.6h5.8M298.7 298.2h5.8M298.7 296.7h5.8M298.7 295.3h5.8M298.7 293.9h5.8M298.7 292.4h5.8M298.7 291h5.8M298.7 289.8h5.8M298.7 288.3h5.8M298.7 286.9h5.8M298.7 285.5h5.8M298.7 284h5.8M298.7 282.6h5.8M298.7 281.1h5.8M298.7 279.7h5.8M298.7 278.3h5.8M298.7 276.8h5.8M298.7 275.4h5.8M298.7 274.2h5.8M298.7 272.7h5.8M298.7 271.3h5M298.7 269.9h3.6M298.7 268.4h2.4M298.7 267h1"/><path class="cls-24" d="M298.5 328.2v-62.4h-5.1v57.3l5.1 5.1"/><path class="cls-18" d="M293.7 322.4l5 5.1M293.7 318.3l5 5.1M293.7 314.3l5 5M293.7 310.4l5 5.1M293.7 306.3l5 5.1M293.7 302.3l5 5M293.7 298.4l5 5.1M293.7 294.3l5 5.1M293.7 290.3l5 5M293.7 286.4l5 5.1M293.7 282.3l5 5.1M293.7 278.3l5 5M293.7 274.2l5 5M293.7 270.3l5 5.1M293.7 266.3l5 5M297 265.8l1.7 1.4M298.5 265.8v62.4M304.2 272v61.9"/><path class="cls-19" d="M308.1 274.2v63.6M293.4 265.8v57.3M293.4 260.7v5.1"/><path class="cls-24" d="M192.9 284.5l5 4.1v-70.1h-5v66"/><path class="cls-18" d="M193.1 221.9l3.1-3.4M193.1 226.2l5-5.1M193.1 230.3l5-5.1M193.1 234.6l5-5.1M193.1 238.9l5-5M193.1 243.2l5-5M193.1 247.3l5-5M193.1 251.6l5-5M193.1 255.9l5-5M193.1 260l5-5M193.1 264.3l5-5M193.1 268.7l5-5.1M193.1 272.7l5-5M193.1 277.1l5-5.1M193.1 281.4l5-5.1M193.6 285l4.5-4.3M196 286.9l2.1-2.2"/><path class="cls-24" d="M192.9 284.5l5 4.1v-70.1h-5v66"/><path class="cls-18" d="M193.1 221.9l3.1-3.4M193.1 226.2l5-5.1M193.1 230.3l5-5.1M193.1 234.6l5-5.1M193.1 238.9l5-5M193.1 243.2l5-5M193.1 247.3l5-5M193.1 251.6l5-5M193.1 255.9l5-5M193.1 260l5-5M193.1 264.3l5-5M193.1 268.7l5-5.1M193.1 272.7l5-5M193.1 277.1l5-5.1M193.1 281.4l5-5.1M193.6 285l4.5-4.3M196 286.9l2.1-2.2"/><path class="cls-24" d="M7.1 328.2h-7V99h7v229.2"/><path class="cls-18" d="M7.3 100.2L5.9 99M7.3 104.3L2.1 99M7.3 108.3l-6.9-6.9M7.3 112.2l-6.9-7M7.3 116.3l-6.9-7M7.3 120.3l-6.9-6.9M7.3 124.2l-6.9-7M7.3 128.3l-6.9-7M7.3 132.3l-6.9-6.9M7.3 136.2l-6.9-7M7.3 140.3l-6.9-7M7.3 144.3l-6.9-6.9M7.3 148.4l-6.9-6.9M7.3 152.3l-6.9-7M7.3 156.3l-6.9-6.9M7.3 160.4l-6.9-6.9M7.3 164.3l-6.9-7M7.3 168.3l-6.9-6.9M7.3 172.4l-6.9-6.9M7.3 176.3l-6.9-7M7.3 180.3l-6.9-6.9M7.3 184.4l-6.9-6.9M7.3 188.5l-6.9-7M7.3 192.3l-6.9-6.9M7.3 196.4l-6.9-6.9M7.3 200.5l-6.9-7M7.3 204.3l-6.9-6.9M7.3 208.4l-6.9-6.9M7.3 212.5l-6.9-7M7.3 216.6l-6.9-7M7.3 220.4l-6.9-6.9M7.3 224.5l-6.9-7M7.3 228.6l-6.9-7M7.3 232.4l-6.9-6.9M7.3 236.5l-6.9-7M7.3 240.6l-6.9-7M7.3 244.4l-6.9-6.9M7.3 248.5l-6.9-7M7.3 252.6l-6.9-7M7.3 256.7l-6.9-7M7.3 260.5l-6.9-7M7.3 264.6l-6.9-7M7.3 268.7l-6.9-7M7.3 272.5l-6.9-7M7.3 276.6l-6.9-7M7.3 280.7l-6.9-7M7.3 284.5l-6.9-7M7.3 288.6l-6.9-7M7.3 292.7l-6.9-7M7.3 296.7l-6.9-6.9M7.3 300.6l-6.9-7M7.3 304.7l-6.9-7M7.3 308.7l-6.9-6.9M7.3 312.6l-6.9-7M7.3 316.7l-6.9-7M7.3 320.7l-6.9-6.9M7.3 324.6l-6.9-7M6.6 328.2l-6.2-6.5M2.8 328.2l-2.4-2.4M5.4 328.2l1.9-1.9M1.3 328.2l6-6M.4 325.3l6.9-7M.4 321.2l6.9-6.9M.4 317.1l6.9-6.9M.4 313.3l6.9-7M.4 309.2l6.9-6.9M.4 305.1l6.9-6.9M.4 301.3l6.9-7M.4 297.2l6.9-6.9M.4 293.1l6.9-6.9M.4 289.1l6.9-7M.4 285.2l6.9-6.9M.4 281.1l6.9-6.9M.4 277.1l6.9-7M.4 273.2l6.9-6.9M.4 269.1l6.9-6.9M.4 265.1l6.9-7M.4 261.2l6.9-6.9M.4 257.1l6.9-6.9M.4 253.1l6.9-7M.4 249l6.9-7M.4 245.1l6.9-6.9M.4 241.1l6.9-7M.4 237l6.9-7M.4 233.1l6.9-6.9M.4 229.1l6.9-7M.4 225l6.9-7M.4 220.9l6.9-7M.4 217.1l6.9-7M.4 213l6.9-7M.4 208.9l6.9-7M.4 205.1l6.9-7M.4 201l6.9-7M.4 196.9l6.9-7M.4 193.1l6.9-7M.4 189l6.9-7M.4 184.9l6.9-7M.4 180.8l6.9-6.9M.4 177l6.9-7M.4 172.9l6.9-7M.4 168.8l6.9-6.9M.4 165l6.9-7M.4 160.9l6.9-7M.4 156.8l6.9-6.9M.4 153l6.9-7M.4 148.9l6.9-7M.4 144.8l6.9-6.9M.4 140.7l6.9-6.9M.4 136.9l6.9-7M.4 132.8l6.9-6.9M.4 128.7l6.9-6.9M.4 124.9l6.9-7M.4 120.8l6.9-6.9M.4 116.7l6.9-6.9M.4 112.9l6.9-7M.4 108.8l6.9-6.9M.4 104.7L6.1 99M.4 100.7L2.1 99"/><path class="cls-24" d="M.1 328.2h7V99h-7v229.2"/><path class="cls-18" d="M7.3 100.2L5.9 99M7.3 104.3L2.1 99M7.3 108.3l-6.9-6.9M7.3 112.2l-6.9-7M7.3 116.3l-6.9-7M7.3 120.3l-6.9-6.9M7.3 124.2l-6.9-7M7.3 128.3l-6.9-7M7.3 132.3l-6.9-6.9M7.3 136.2l-6.9-7M7.3 140.3l-6.9-7M7.3 144.3l-6.9-6.9M7.3 148.4l-6.9-6.9M7.3 152.3l-6.9-7M7.3 156.3l-6.9-6.9M7.3 160.4l-6.9-6.9M7.3 164.3l-6.9-7M7.3 168.3l-6.9-6.9M7.3 172.4l-6.9-6.9M7.3 176.3l-6.9-7M7.3 180.3l-6.9-6.9M7.3 184.4l-6.9-6.9M7.3 188.5l-6.9-7M7.3 192.3l-6.9-6.9M7.3 196.4l-6.9-6.9M7.3 200.5l-6.9-7M7.3 204.3l-6.9-6.9M7.3 208.4l-6.9-6.9M7.3 212.5l-6.9-7M7.3 216.6l-6.9-7M7.3 220.4l-6.9-6.9M7.3 224.5l-6.9-7M7.3 228.6l-6.9-7M7.3 232.4l-6.9-6.9M7.3 236.5l-6.9-7M7.3 240.6l-6.9-7M7.3 244.4l-6.9-6.9M7.3 248.5l-6.9-7M7.3 252.6l-6.9-7M7.3 256.7l-6.9-7M7.3 260.5l-6.9-7M7.3 264.6l-6.9-7M7.3 268.7l-6.9-7M7.3 272.5l-6.9-7M7.3 276.6l-6.9-7M7.3 280.7l-6.9-7M7.3 284.5l-6.9-7M7.3 288.6l-6.9-7M7.3 292.7l-6.9-7M7.3 296.7l-6.9-6.9M7.3 300.6l-6.9-7M7.3 304.7l-6.9-7M7.3 308.7l-6.9-6.9M7.3 312.6l-6.9-7M7.3 316.7l-6.9-7M7.3 320.7l-6.9-6.9M7.3 324.6l-6.9-7M6.6 328.2l-6.2-6.5M2.8 328.2l-2.4-2.4M5.4 328.2l1.9-1.9M1.3 328.2l6-6M.4 325.3l6.9-7M.4 321.2l6.9-6.9M.4 317.1l6.9-6.9M.4 313.3l6.9-7M.4 309.2l6.9-6.9M.4 305.1l6.9-6.9M.4 301.3l6.9-7M.4 297.2l6.9-6.9M.4 293.1l6.9-6.9M.4 289.1l6.9-7M.4 285.2l6.9-6.9M.4 281.1l6.9-6.9M.4 277.1l6.9-7M.4 273.2l6.9-6.9M.4 269.1l6.9-6.9M.4 265.1l6.9-7M.4 261.2l6.9-6.9M.4 257.1l6.9-6.9M.4 253.1l6.9-7M.4 249l6.9-7M.4 245.1l6.9-6.9M.4 241.1l6.9-7M.4 237l6.9-7M.4 233.1l6.9-6.9M.4 229.1l6.9-7M.4 225l6.9-7M.4 220.9l6.9-7M.4 217.1l6.9-7M.4 213l6.9-7M.4 208.9l6.9-7M.4 205.1l6.9-7M.4 201l6.9-7M.4 196.9l6.9-7M.4 193.1l6.9-7M.4 189l6.9-7M.4 184.9l6.9-7M.4 180.8l6.9-6.9M.4 177l6.9-7M.4 172.9l6.9-7M.4 168.8l6.9-6.9M.4 165l6.9-7M.4 160.9l6.9-7M.4 156.8l6.9-6.9M.4 153l6.9-7M.4 148.9l6.9-7M.4 144.8l6.9-6.9M.4 140.7l6.9-6.9M.4 136.9l6.9-7M.4 132.8l6.9-6.9M.4 128.7l6.9-6.9M.4 124.9l6.9-7M.4 120.8l6.9-6.9M.4 116.7l6.9-6.9M.4 112.9l6.9-7M.4 108.8l6.9-6.9M.4 104.7L6.1 99M.4 100.7L2.1 99"/><path class="cls-24" d="M293.4 208.4h-34.8l-5.7 10.1h40.5v-10.1"/><path class="cls-18" d="M293.7 210.1l-2-1.7M293.7 214.2l-5.8-5.8M293.7 218.3l-9.9-9.9M289.8 218.5l-10.1-10.1M286 218.5l-10.1-10.1M281.9 218.5l-10.1-10.1M277.8 218.5l-10.1-10.1M273.7 218.5l-10-10.1M269.9 218.5l-10.1-10.1M265.8 218.5l-8.1-8.2M261.7 218.5l-5.5-5.5M257.9 218.5l-3.1-3.1M253.8 218.5l-.5-.5M291.5 218.5l2.2-2.2M287.4 218.5l6.3-6.2M283.3 218.5l10.1-10.1M279.5 218.5l10.1-10.1M275.4 218.5l10.1-10.1M271.3 218.5l10.1-10.1M267.3 218.5l10-10.1M263.4 218.5l10.1-10.1M259.3 218.5l10.1-10.1M255.3 218.5l10-10.1M255.3 214.7l6.2-6.3"/><path class="cls-24" d="M293.4 208.4h-34.8l-5.7 10.1h40.5v-10.1"/><path class="cls-18" d="M293.7 210.1l-2-1.7M293.7 214.2l-5.8-5.8M293.7 218.3l-9.9-9.9M289.8 218.5l-10.1-10.1M286 218.5l-10.1-10.1M281.9 218.5l-10.1-10.1M277.8 218.5l-10.1-10.1M273.7 218.5l-10-10.1M269.9 218.5l-10.1-10.1M265.8 218.5l-8.1-8.2M261.7 218.5l-5.5-5.5M257.9 218.5l-3.1-3.1M253.8 218.5l-.5-.5M291.5 218.5l2.2-2.2M287.4 218.5l6.3-6.2M283.3 218.5l10.1-10.1M279.5 218.5l10.1-10.1M275.4 218.5l10.1-10.1M271.3 218.5l10.1-10.1M267.3 218.5l10-10.1M263.4 218.5l10.1-10.1M259.3 218.5l10.1-10.1M255.3 218.5l10-10.1M255.3 214.7l6.2-6.3"/><path class="cls-24" d="M304 223.5v-15.1h-10.6v15.1H304"/><path class="cls-18" d="M304.2 208.7l-.5-.3M304.2 212.7l-4.3-4.3M304.2 216.6l-8.4-8.2M304.2 220.7l-10.5-10.6M303 223.5l-9.3-9.3M298.9 223.5l-5.2-5.2M294.9 223.5l-1.2-1.4M302.3 223.5l1.9-1.6M298.5 223.5l5.7-5.7M294.4 223.5l9.8-9.6M293.7 220.4l10.5-10.5M293.7 216.3l7.9-7.9M293.7 212.3l3.8-3.9"/><path class="cls-24" d="M304 223.5v-15.1h-10.6v15.1H304"/><path class="cls-18" d="M304.2 208.7l-.5-.3M304.2 212.7l-4.3-4.3M304.2 216.6l-8.4-8.2M304.2 220.7l-10.5-10.6M303 223.5l-9.3-9.3M298.9 223.5l-5.2-5.2M294.9 223.5l-1.2-1.4M302.3 223.5l1.9-1.6M298.5 223.5l5.7-5.7M294.4 223.5l9.8-9.6M293.7 220.4l10.5-10.5M293.7 216.3l7.9-7.9M293.7 212.3l3.8-3.9"/><path class="cls-19" d="M293.4 260.7v-37.2"/><path class="cls-24" d="M166.7 284.5v4.1H95.9v-4.1h70.8"/><path class="cls-18" d="M96.1 284.7l.3-.2M96.6 288.6l4.1-4.1M100.7 288.6l4.1-4.1M105 288.6l4.1-4.1M109.3 288.6l4.1-4.1M113.4 288.6l4.1-4.1M117.7 288.6l4.1-4.1M122.1 288.6l4-4.1M126.1 288.6l4.1-4.1M130.5 288.6l4-4.1M134.8 288.6l4.1-4.1M139.1 288.6l4.1-4.1M143.2 288.6l4.1-4.1M147.5 288.6l4.1-4.1M151.8 288.6l4.1-4.1M155.9 288.6l4.1-4.1M160.2 288.6l4.1-4.1M164.5 288.6l2.4-2.4"/><path class="cls-24" d="M166.7 288.6v-4.1H95.9v4.1h70.8"/><path class="cls-18" d="M96.1 284.7l.3-.2M96.6 288.6l4.1-4.1M100.7 288.6l4.1-4.1M105 288.6l4.1-4.1M109.3 288.6l4.1-4.1M113.4 288.6l4.1-4.1M117.7 288.6l4.1-4.1M122.1 288.6l4-4.1M126.1 288.6l4.1-4.1M130.5 288.6l4-4.1M134.8 288.6l4.1-4.1M139.1 288.6l4.1-4.1M143.2 288.6l4.1-4.1M147.5 288.6l4.1-4.1M151.8 288.6l4.1-4.1M155.9 288.6l4.1-4.1M160.2 288.6l4.1-4.1M164.5 288.6l2.4-2.4"/><path class="cls-24" d="M192.9 288.6h5l-5-4.1v4.1"/><path class="cls-18" d="M193.1 285.7l.5-.7M194.3 288.6l1.7-1.7"/><path class="cls-24" d="M192.9 288.6h5l-5-4.1v4.1"/><path class="cls-18" d="M193.1 285.7l.5-.7M194.3 288.6l1.7-1.7"/><path class="cls-24" d="M113.9 284.5h4.1v-66h-4.1v66"/><path class="cls-18" d="M114.1 220.2l1.5-1.7M114.1 224.3l4.1-4.1M114.1 228.6l4.1-4.1M114.1 232.9l4.1-4.1M114.1 237l4.1-4.1M114.1 241.3l4.1-4.1M114.1 245.6l4.1-4.1M114.1 249.7l4.1-4.1M114.1 254l4.1-4.1M114.1 258.3l4.1-4M114.1 262.7l4.1-4.1M114.1 266.7l4.1-4M114.1 271.1l4.1-4.1M114.1 275.4l4.1-4.1M114.1 279.5l4.1-4.1M114.1 283.8l4.1-4.1M117.5 284.5l.7-.5"/><path class="cls-24" d="M113.9 284.5h4.1v-66h-4.1v66"/><path class="cls-18" d="M114.1 220.2l1.5-1.7M114.1 224.3l4.1-4.1M114.1 228.6l4.1-4.1M114.1 232.9l4.1-4.1M114.1 237l4.1-4.1M114.1 241.3l4.1-4.1M114.1 245.6l4.1-4.1M114.1 249.7l4.1-4.1M114.1 254l4.1-4.1M114.1 258.3l4.1-4M114.1 262.7l4.1-4.1M114.1 266.7l4.1-4M114.1 271.1l4.1-4.1M114.1 275.4l4.1-4.1M114.1 279.5l4.1-4.1M114.1 283.8l4.1-4.1M117.5 284.5l.7-.5"/><path class="cls-24" d="M252.9 143.6v74.9l5.7-10.1v-54.7l-5.7-10.1"/><path class="cls-18" d="M255.5 148.2l-2.4-2.7M258.9 155.4l-5.8-5.8M258.9 159.2l-5.8-5.7M258.9 163.3l-5.8-5.8M258.9 167.4l-5.8-5.8M258.9 171.2l-5.8-5.7M258.9 175.3l-5.8-5.8M258.9 179.4l-5.8-5.8M258.9 183.5l-5.8-5.8M258.9 187.3l-5.8-5.8M258.9 191.4l-5.8-5.8M258.9 195.5l-5.8-5.8M258.9 199.3l-5.8-5.8M258.9 203.4l-5.8-5.8M258.9 207.5l-5.8-5.8M257.7 210.3l-4.6-4.8M256.2 213l-3.1-3.4M254.8 215.4l-1.7-1.7M253.3 218l-.2-.2M253.1 216.8l2.2-2.1M253.1 212.7l5.8-5.7M253.1 208.9l5.8-5.8M253.1 204.8l5.8-5.7M253.1 200.7l5.8-5.7M253.1 196.9l5.8-5.8M253.1 192.8l5.8-5.7M253.1 188.7l5.8-5.7M253.1 184.7l5.8-5.8M253.1 180.8l5.8-5.7M253.1 176.7l5.8-5.7M253.1 172.7l5.8-5.8M253.1 168.8l5.8-5.7M253.1 164.7l5.8-5.7M253.1 160.7l5.8-5.8M253.1 156.8l4.6-4.8M253.1 152.7l3.1-3.3M253.1 148.7l1.7-2M253.1 144.6l.2-.3"/><path class="cls-24" d="M252.9 143.6v74.9l5.7-10.1v-54.7l-5.7-10.1"/><path class="cls-18" d="M255.5 148.2l-2.4-2.7M258.9 155.4l-5.8-5.8M258.9 159.2l-5.8-5.7M258.9 163.3l-5.8-5.8M258.9 167.4l-5.8-5.8M258.9 171.2l-5.8-5.7M258.9 175.3l-5.8-5.8M258.9 179.4l-5.8-5.8M258.9 183.5l-5.8-5.8M258.9 187.3l-5.8-5.8M258.9 191.4l-5.8-5.8M258.9 195.5l-5.8-5.8M258.9 199.3l-5.8-5.8M258.9 203.4l-5.8-5.8M258.9 207.5l-5.8-5.8M257.7 210.3l-4.6-4.8M256.2 213l-3.1-3.4M254.8 215.4l-1.7-1.7M253.3 218l-.2-.2M253.1 216.8l2.2-2.1M253.1 212.7l5.8-5.7M253.1 208.9l5.8-5.8M253.1 204.8l5.8-5.7M253.1 200.7l5.8-5.7M253.1 196.9l5.8-5.8M253.1 192.8l5.8-5.7M253.1 188.7l5.8-5.7M253.1 184.7l5.8-5.8M253.1 180.8l5.8-5.7M253.1 176.7l5.8-5.7M253.1 172.7l5.8-5.8M253.1 168.8l5.8-5.7M253.1 164.7l5.8-5.7M253.1 160.7l5.8-5.8M253.1 156.8l4.6-4.8M253.1 152.7l3.1-3.3M253.1 148.7l1.7-2M253.1 144.6l.2-.3"/><path class="cls-1" d="M95.4 139.5v-35.2"/><path class="cls-19" d="M95.4 104.7v-.4"/><path class="cls-24" d="M264.6 153.7v-10.1h3.1v10.1h-3.1"/><path class="cls-18" d="M268 144.3l-1-.7M268 148.4l-3.1-3.1M268 152.5l-3.1-3.1M265.1 153.7l-.2-.5M264.9 153l3.1-3.1M264.9 148.9l3.1-3.1M264.9 145.1l1.2-1.5"/><path class="cls-24" d="M264.6 143.6v10.1h3.1v-10.1h-3.1"/><path class="cls-18" d="M268 144.3l-1-.7M268 148.4l-3.1-3.1M268 152.5l-3.1-3.1M265.1 153.7l-.2-.5M264.9 153l3.1-3.1M264.9 148.9l3.1-3.1M264.9 145.1l1.2-1.5"/><path class="cls-19" d="M269.2 152.3h31.7"/><path class="cls-1" d="M269.2 143.6h31.7"/><path class="cls-24" d="M267.7 143.6h1.5v8.7h-1.5"/><path class="cls-18" d="M269.4 145.8l-1.4-1.5M269.4 149.9l-1.4-1.5M268 149.9l1.4-1.5M268 145.8l1.4-1.5"/><path class="cls-24" d="M304 143.6h-3.1v8.7h3.1"/><path class="cls-18" d="M304.2 144.6l-.9-1M304.2 148.7l-3.1-3.2M303.7 152.3l-2.6-2.9M301.6 152.3l2.6-2.7M301.1 148.9l3.1-3.1M301.1 144.8l1-1.2"/><path class="cls-19" d="M303 153.7h-35.5M284.5 156.8h14M271.8 159.7h13.9M311.2 1.8H.1"/><path class="cls-1" d="M170.3 143.9h33.4"/><path class="cls-19" d="M203.2 143.9h.5"/><path class="cls-7" d="M203.7 143.9v33.3"/><path class="cls-9" d="M203.7 177.2h-33.4"/><path class="cls-19" d="M170.8 177.2h-.5"/><path class="cls-1" d="M170.3 177.2v-33.3"/><path class="cls-19" d="M170.3 144.3v-.4"/><path class="cls-1" d="M172.7 146.5H201"/><path class="cls-19" d="M200.5 146.5h.5"/><path class="cls-7" d="M201 146.5v28.3"/><path class="cls-13" d="M201 174.8h-28.3"/><path class="cls-17" d="M172.7 174.8v-28.3"/><path class="cls-19" d="M172.7 147v-.5"/><path class="cls-23" d="M99.3 139.5h10.1v2.4H99.3z"/><path class="cls-19" d="M99.3 139.5h10.1v2.4H99.3z"/><path class="cls-23" d="M99 139.3h10.6v.2H99z"/><path class="cls-19" d="M99 139.3h10.6v.2H99z"/><path class="cls-21" d="M108.6 139.3v-8.4"/><path class="cls-3" d="M100 139.3l.2-1.7.5-1.7.7-1.4 1.2-1.2 1.2-1 1.5-.9 1.6-.5h1.7"/><path class="cls-19" d="M198.6 288.3h1.2v34.6h-1.2zM199.8 321h1.4v.7h-1.4zM197.2 321h1.4v.7h-1.4zM204.9 312.8v-10.1M202.9 306.3l2-3.6 2.1 3.6"/><path class="cls-21" d="M198.6 257.9v34.5"/><path class="cls-19" d="M198.6 292.4h.7"/><path class="cls-21" d="M199.8 292.4v-34.5"/><path class="cls-19" d="M199.8 257.9h-.7M201.3 291.2h-1.5M200.5 290.5h.8M201.3 290.5v.7M197.2 290.5h1.4M197.9 291.2h-.7M197.2 291.2v-.7M166.5 282.3h25.9v1.2h-25.9zM190.2 281.1h.7v1.2h-.7zM190.2 283.5h.7v1.4h-.7zM186.4 277.3h-9.9M180.1 279.5l-3.6-2.2 3.6-1.9"/><path class="cls-21" d="M170.5 282.3h-25.9"/><path class="cls-19" d="M144.6 282.3v.8"/><path class="cls-21" d="M144.6 283.5h25.9"/><path class="cls-19" d="M170.5 283.5v-.7M169.3 281.1v1.2M169.3 282.3h-.2M168.6 281.4v-.3M168.6 281.1h.7M168.6 285v-1.5M169.3 284.3v.7M169.3 285h-.7"/><path class="cls-1" d="M166.7 284.5h26.2M192.9 288.6h-26.2M252.9 143.9v-37.5"/><path class="cls-24" d="M113.9 91.3v1.4h197.3v-1.4H113.9M113.9 92.7V99h197.3v-6.3H113.9"/><path class="cls-18" d="M310.5 99v-6.3M309 99v-6.3M307.6 99v-6.3M306.1 99v-6.3M304.9 99v-6.3M303.5 99v-6.3M302.1 99v-6.3M300.6 99v-6.3M299.2 99v-6.3M297.7 99v-6.3M296.3 99v-6.3M294.9 99v-6.3M293.4 99v-6.3M292 99v-6.3M290.5 99v-6.3M289.3 99v-6.3M287.9 99v-6.3M286.5 99v-6.3M285 99v-6.3M283.6 99v-6.3M282.1 99v-6.3M280.7 99v-6.3M279.3 99v-6.3M277.8 99v-6.3M276.4 99v-6.3M275.2 99v-6.3M273.7 99v-6.3M272.3 99v-6.3M270.9 99v-6.3M269.4 99v-6.3M268 99v-6.3M266.5 99v-6.3M265.1 99v-6.3M263.7 99v-6.3M262.2 99v-6.3M260.8 99v-6.3M259.6 99v-6.3M258.1 99v-6.3M256.7 99v-6.3M255.3 99v-6.3M253.8 99v-6.3M252.4 99v-6.3M250.9 99v-6.3M249.5 99v-6.3M248.1 99v-6.3M246.6 99v-6.3M245.4 99v-6.3M244 99v-6.3M242.5 99v-6.3M241.1 99v-6.3M239.7 99v-6.3M238.2 99v-6.3M236.8 99v-6.3M235.3 99v-6.3M233.9 99v-6.3M232.5 99v-6.3M231 99v-6.3M229.8 99v-6.3M228.4 99v-6.3M226.9 99v-6.3M225.5 99v-6.3M224.1 99v-6.3M222.6 99v-6.3M221.2 99v-6.3M219.7 99v-6.3M218.3 99v-6.3M216.9 99v-6.3M215.7 99v-6.3M214.2 99v-6.3M212.8 99v-6.3M211.3 99v-6.3M209.9 99v-6.3M208.5 99v-6.3M207 99v-6.3M205.6 99v-6.3M204.1 99v-6.3M202.7 99v-6.3M201.3 99v-6.3M200.1 99v-6.3M198.6 99v-6.3M197.2 99v-6.3M195.7 99v-6.3M194.3 99v-6.3M192.9 99v-6.3M191.4 99v-6.3M190 99v-6.3M188.5 99v-6.3M187.1 99v-6.3M185.7 99v-6.3M184.5 99v-6.3M183 99v-6.3M181.6 99v-6.3M180.1 99v-6.3M178.7 99v-6.3M177.3 99v-6.3M175.8 99v-6.3M174.4 99v-6.3M172.9 99v-6.3M171.5 99v-6.3M170.3 99v-6.3M168.9 99v-6.3M167.4 99v-6.3M166 99v-6.3M164.5 99v-6.3M163.1 99v-6.3M161.7 99v-6.3M160.2 99v-6.3M158.8 99v-6.3M157.3 99v-6.3M155.9 99v-6.3M154.7 99v-6.3M153.3 99v-6.3M151.8 99v-6.3M150.4 99v-6.3M148.9 99v-6.3M147.5 99v-6.3M146.1 99v-6.3M144.6 99v-6.3M143.2 99v-6.3M141.7 99v-6.3M140.5 99v-6.3M139.1 99v-6.3M137.7 99v-6.3M136.2 99v-6.3M134.8 99v-6.3M133.3 99v-6.3M131.9 99v-6.3M130.5 99v-6.3M129 99v-6.3M127.6 99v-6.3M126.1 99v-6.3M124.9 99v-6.3M123.5 99v-6.3M122.1 99v-6.3M120.6 99v-6.3M119.2 99v-6.3M117.7 99v-6.3M116.3 99v-6.3M114.9 99v-6.3"/><path class="cls-24" d="M113.9 99v7.4h197.3V99H113.9"/><path class="cls-18" d="M311.4 99.7l-.7-.7M311.4 103.5l-4.8-4.5M310 106.4l-7.5-7.4M306.1 106.4l-7.4-7.4M302.1 106.4l-7.5-7.4M298 106.4l-7.5-7.4M294.1 106.4l-7.4-7.4M290.1 106.4l-7.5-7.4M286 106.4l-7.5-7.4M282.1 106.4l-7.4-7.4M278.1 106.4l-7.5-7.4M274 106.4l-7.5-7.4M269.9 106.4l-7.4-7.4M266.1 106.4l-7.5-7.4M262 106.4l-7.5-7.4M257.9 106.4l-7.4-7.4M254.1 106.4l-7.5-7.4M250 106.4l-7.5-7.4M245.9 106.4l-7.4-7.4M241.8 106.4l-7.4-7.4M238 106.4l-7.5-7.4M233.9 106.4l-7.4-7.4M229.8 106.4l-7.4-7.4M226 106.4l-7.5-7.4M221.9 106.4l-7.4-7.4M217.8 106.4l-7.4-7.4M214 106.4l-7.5-7.4M209.9 106.4l-7.4-7.4M205.8 106.4l-7.4-7.4M201.7 106.4l-7.4-7.4M197.9 106.4l-7.4-7.4M193.8 106.4l-7.4-7.4M189.7 106.4l-7.4-7.4M185.9 106.4l-7.4-7.4M181.8 106.4l-7.4-7.4M177.7 106.4l-7.4-7.4M173.9 106.4l-7.4-7.4M169.8 106.4l-7.4-7.4M165.7 106.4l-7.4-7.4M161.7 106.4l-7.5-7.4M157.8 106.4l-7.4-7.4M153.7 106.4l-7.4-7.4M149.7 106.4l-7.5-7.4M145.8 106.4l-7.4-7.4M141.7 106.4l-7.4-7.4M137.7 106.4l-7.5-7.4M133.6 106.4l-7.5-7.4M129.7 106.4l-7.4-7.4M125.7 106.4l-7.5-7.4M121.6 106.4l-7.5-7.4M117.7 106.4l-3.6-3.6M311.2 106.4h.2M307.3 106.4l4.1-4.1M303.3 106.4l7.4-7.4M299.2 106.4l7.4-7.4M295.3 106.4l7.5-7.4M291.3 106.4l7.4-7.4M287.2 106.4l7.4-7.4M283.3 106.4l7.5-7.4M279.3 106.4l7.4-7.4M275.2 106.4l7.4-7.4M271.1 106.4l7.4-7.4M267.3 106.4l7.4-7.4M263.2 106.4l7.4-7.4M259.1 106.4l7.4-7.4M255.3 106.4l7.4-7.4M251.2 106.4l7.4-7.4M247.1 106.4l7.4-7.4M243 106.4l7.5-7.4M239.2 106.4l7.4-7.4M235.1 106.4l7.4-7.4M231 106.4l7.5-7.4M227.2 106.4l7.4-7.4M223.1 106.4l7.4-7.4M219 106.4l7.5-7.4M215.2 106.4l7.4-7.4M211.1 106.4l7.4-7.4M207 106.4l7.5-7.4M202.9 106.4l7.5-7.4M199.1 106.4l7.4-7.4M195 106.4l7.5-7.4M190.9 106.4l7.5-7.4M187.1 106.4l7.4-7.4M183 106.4l7.5-7.4M178.9 106.4l7.5-7.4M175.1 106.4l7.4-7.4M171 106.4l7.5-7.4M166.9 106.4l7.5-7.4M162.9 106.4l7.4-7.4M159 106.4l7.5-7.4M154.9 106.4l7.5-7.4M150.9 106.4l7.4-7.4M147 106.4l7.5-7.4M142.9 106.4l7.5-7.4M138.9 106.4l7.4-7.4M135 106.4l7.5-7.4M130.9 106.4l7.5-7.4M126.9 106.4l7.4-7.4M122.8 106.4l7.4-7.4M118.9 106.4l7.5-7.4M114.9 106.4l7.4-7.4M114.1 103.3l4.1-4.3M114.1 99.2l.3-.2M113.9 99h197.3M113.9 92.7h197.3"/><path class="cls-19" d="M113.9 90.6h197.3M113.9 106.4h197.3M113.9 104.3v2.1"/><path class="cls-16" d="M304.7 330.6h3.4"/><path class="cls-3" d="M308.1 330.6v7.2"/><path class="cls-16" d="M308.1 337.8h-3.4"/><path class="cls-3" d="M304.7 337.8v-7.2"/><path class="cls-19" d="M304.7 330.6h-1.4"/><path class="cls-18" d="M164.5 328.2v-1.9c0-.6-.2-1.2-.3-1.8-.1-.6-.3-1.2-.5-1.8l-.6-1.8c-.2-.6-.5-1.1-.8-1.7-.3-.5-.6-1.1-1-1.6-.3-.5-.7-1-1.1-1.5-.4-.5-.8-.9-1.3-1.4-.4-.4-.9-.9-1.4-1.3-.5-.4-1-.8-1.5-1.1-.5-.3-1.1-.7-1.6-1-.5-.3-1.1-.6-1.7-.8l-1.8-.6c-.6-.2-1.2-.3-1.8-.5l-1.8-.3h-1.9M145.6 309.2v19M164.5 328.2v-1.5M164.8 325.3v-.7M164.8 324.6l.2-.7"/><path class="cls-11" d="M165.3 322.7l.7-1.7"/><path class="cls-18" d="M166.5 319.8l.2-.5M166.7 319.3l.5-.7"/><path class="cls-12" d="M167.7 317.6l1.2-1.4"/><path class="cls-18" d="M169.8 315l.3-.3M170.1 314.7l.9-.7M172 313.1l.9-.8"/><path class="cls-22" d="M172.9 312.3l1.7-.9"/><path class="cls-18" d="M174.6 311.4l1-.5M177 310.4l1-.5M178 309.9h.5"/><path class="cls-11" d="M179.7 309.7l1.9-.5"/><path class="cls-18" d="M182.8 309.2h.7"/><path class="cls-5" d="M183.5 309.2v19"/><path class="cls-18" d="M183.5 327.7v.5M260.3 328.1v-1.9c0-.6.2-1.2.3-1.8.1-.6.3-1.2.5-1.8l.6-1.8c.2-.6.5-1.1.8-1.7.3-.5.6-1.1 1-1.6.3-.5.7-1 1.1-1.5.4-.5.8-.9 1.3-1.4.4-.4.9-.9 1.4-1.3.5-.4 1-.8 1.5-1.1.5-.3 1-.7 1.6-1 .5-.3 1.1-.6 1.7-.8l1.8-.6c.6-.2 1.2-.3 1.8-.5l1.8-.3h1.9M279.3 309.2v19M260.3 328.2v-1.5M260.3 325.3l-.2-1M260.1 324.3l-.3-.4"/><path class="cls-11" d="M259.6 322.7l-.7-1.7"/><path class="cls-18" d="M258.4 319.8l-.3-.7M258.1 319.1l-.4-.5"/><path class="cls-12" d="M257.2 317.6l-1.2-1.4"/><path class="cls-18" d="M255 315l-.2-.3M254.8 314.7l-1-.7M252.9 313.1l-1-.8"/><path class="cls-22" d="M251.9 312.3l-1.7-.9"/><path class="cls-18" d="M250.2 311.4l-.9-.5M247.8 310.4l-.9-.5"/><path class="cls-10" d="M246.9 309.9l-2-.4"/><path class="cls-18" d="M244.9 309.5l-1.2-.3M242.3 309.2h-1"/><path class="cls-5" d="M241.3 309.2v19"/><path class="cls-18" d="M241.3 327.7v.5M91.4 308.1c-11 0-20.1 9.1-20.1 20.1M91.3 308v20.2"/><path class="cls-5" d="M51 308l4.1.5 3.8 1.2 3.4 1.9 3.1 2.4 2.4 3.1 1.9 3.4 1.2 3.8.3 3.9"/><path class="cls-14" d="M51 308v20.2"/><path class="cls-19" d="M311.2 4.4H.1M189.5 242h2.9"/><path class="cls-7" d="M192.9 242v25.5"/><path class="cls-19" d="M192.9 267v.5M192.9 267.5H190"/><path class="cls-7" d="M189.5 267.5V242"/><path class="cls-19" d="M189.5 242.5v-.5"/><path class="cls-24" d="M258.6 153.7l-5.7-10.1h16.3v10.1h-10.6"/><path class="cls-18" d="M269.4 145.8l-2.4-2.2M269.4 149.9l-6.2-6.3M269.2 153.7l-10.1-10.1M265.1 153.7L255 143.6M261.3 153.7l-5.8-5.5M268 153.7l1.4-1.2M263.9 153.7l5.5-5.3M260.1 153.7l9.3-9.4M257.7 152l8.4-8.4M256.2 149.4l5.8-5.8M254.8 146.7l3.3-3.1M253.3 144.3l.8-.7"/><path class="cls-24" d="M252.9 143.6l5.7 10.1h10.6v-10.1h-16.3"/><path class="cls-18" d="M269.4 145.8l-2.4-2.2M269.4 149.9l-6.2-6.3M269.2 153.7l-10.1-10.1M265.1 153.7L255 143.6M261.3 153.7l-5.8-5.5M268 153.7l1.4-1.2M263.9 153.7l5.5-5.3M260.1 153.7l9.3-9.4M257.7 152l8.4-8.4M256.2 149.4l5.8-5.8M254.8 146.7l3.3-3.1M253.3 144.3l.8-.7"/><path class="cls-24" d="M28 0v1.1h102V0H28"/><path class="cls-19" d="M28 0h102v1H28z"/><path class="cls-24" d="M93 .5c0-.2-.2-.4-.4-.4s-.4.2-.4.4.2.4.4.4.4-.2.4-.4"/><path class="cls-19" d="M93 .5c0-.2-.2-.4-.4-.4s-.4.2-.4.4.2.4.4.4.4-.2.4-.4"/><path class="cls-24" d="M58.9.5c0-.2-.2-.4-.4-.4s-.4.2-.4.4.2.4.4.4.4-.2.4-.4"/><path class="cls-19" d="M58.9.5c0-.2-.2-.4-.4-.4s-.4.2-.4.4.2.4.4.4.4-.2.4-.4"/><path class="cls-24" d="M127.1.5c0-.2-.2-.4-.5-.4s-.5.2-.5.4.2.4.5.4.5-.2.5-.4"/><path class="cls-19" d="M127.1.5c0-.2-.2-.4-.5-.4s-.5.2-.5.4.2.4.5.4.5-.2.5-.4M126.6 89.6v1M126.6 2.3V1.1"/><path class="cls-24" d="M130 0v1.1h102V0H130"/><path class="cls-19" d="M130 0h102v1H130z"/><path class="cls-24" d="M195 .5c0-.2-.2-.4-.4-.4s-.4.2-.4.4.2.4.4.4.4-.2.4-.4"/><path class="cls-19" d="M195 .5c0-.2-.2-.4-.4-.4s-.4.2-.4.4.2.4.4.4.4-.2.4-.4"/><path class="cls-24" d="M160.9.5c0-.2-.2-.4-.4-.4s-.4.2-.4.4.2.4.4.4.4-.2.4-.4"/><path class="cls-19" d="M160.9.5c0-.2-.2-.4-.4-.4s-.4.2-.4.4.2.4.4.4.4-.2.4-.4"/><path class="cls-24" d="M229.1.5c0-.2-.2-.4-.4-.4s-.4.2-.4.4.2.4.4.4.4-.2.4-.4"/><path class="cls-19" d="M229.1.5c0-.2-.2-.4-.4-.4s-.4.2-.4.4.2.4.4.4.4-.2.4-.4"/><path class="cls-1" d="M228.6 2.3v88.3"/><path class="cls-19" d="M228.6 90.1v.5M228.6 2.3V1.1"/><path class="cls-24" d="M311.1 1h-79V0h79"/><path class="cls-19" d="M311.1 1h-79V0h79"/><path class="cls-24" d="M297 .5c0-.2-.2-.4-.4-.4s-.4.2-.4.4.2.4.4.4.4-.2.4-.4"/><path class="cls-19" d="M297 .5c0-.2-.2-.4-.4-.4s-.4.2-.4.4.2.4.4.4.4-.2.4-.4"/><path class="cls-24" d="M262.9.5c0-.2-.2-.4-.4-.4s-.4.2-.4.4.2.4.4.4.4-.2.4-.4"/><path class="cls-19" d="M262.9.5c0-.2-.2-.4-.4-.4s-.4.2-.4.4.2.4.4.4.4-.2.4-.4"/><path class="cls-1" d="M126.6 89.6V2.3"/><path class="cls-19" d="M126.6 2.7v-.4"/><path class="cls-24" d="M.1 0H28v1H.1"/><path class="cls-19" d="M.1 0H28v1H.1"/><path class="cls-24" d="M24.9.5c0-.2-.2-.4-.4-.4s-.4.2-.4.4.2.4.4.4.4-.2.4-.4"/><path class="cls-19" d="M24.9.5c0-.2-.2-.4-.4-.4s-.4.2-.4.4.2.4.4.4.4-.2.4-.4"/><path class="cls-1" d="M24.6 2.3v88.3"/><path class="cls-19" d="M24.6 90.1v.5M24.6 2.3V1.1M38.1 126.3v.8M38.1 127.1l-.3.9M37.8 128v.7M37.8 128.7l-.2.3M37.1 130.4l-.2.3M36.1 131.6l-.4.7M35.7 132.3l-.8.5M34.9 132.8l-.7.5M34.2 133.3l-.2.2M32.8 134.3h-.5M31.1 134.7h-.7M30.4 134.7h-.7M29.7 134.7h-1M28.7 134.7h-.5M26.8 134.3h-.3M25.3 133.5l-.4-.2M24.9 133.3l-.8-.5M24.1 132.8l-.4-.5M23.7 132.3l-.5-.4M22.2 130.7v-.3M21.5 129v-.3M21.5 128.7l-.2-.7M21.3 128l-.3-.9M21 127.1v-.8M21.3 124.9v-.2M21.7 123.2v-.2M21.7 123l.3-.7M22 122.3l.5-.8M22.5 121.5l.4-.7M24.1 119.9v-.3M24.1 119.6h.3M25.3 118.9l.3-.2M25.6 118.7l.7-.3M26.3 118.4l.7-.2M27 118.2l1-.3M29.4 117.7h.3M29.7 117.7h.2M31.1 117.9h.2M31.3 117.9l.8.3M32.1 118.2l.7.2M32.8 118.4l.7.3M33.5 118.7l.2.2M34.9 119.6l.3.3M36.1 120.8l.5.7M36.6 121.5l.5.8M37.1 122.3l.2.7M37.3 123l.3.5M38.1 124.7v.2"/><path class="cls-24" d="M311.2 104.3H304V99h7.2v5.3"/><path class="cls-18" d="M311.4 99.7l-.7-.7M311.4 103.5l-4.8-4.5M307.8 104.3l-3.6-3.9M309.5 104.3l1.9-2M305.4 104.3l5.3-5.3M304.2 101.6l2.4-2.6"/><path class="cls-24" d="M304 104.3h7.2V99H304v5.3"/><path class="cls-18" d="M311.4 99.7l-.7-.7M311.4 103.5l-4.8-4.5M307.8 104.3l-3.6-3.9M309.5 104.3l1.9-2M305.4 104.3l5.3-5.3M304.2 101.6l2.4-2.6"/><path class="cls-24" d="M304 139.8v120.9l7.2 5.1v-126H304"/><path class="cls-18" d="M311.4 143.6l-4.1-3.8M311.4 147.7l-7.2-7.2M311.4 151.8l-7.2-7.2M311.4 155.9l-7.2-7.2M311.4 159.7l-7.2-7.2M311.4 163.8l-7.2-7.2M311.4 167.9l-7.2-7.2M311.4 171.7l-7.2-7.2M311.4 175.8l-7.2-7.2M311.4 179.9l-7.2-7.2M311.4 183.7l-7.2-7.2M311.4 187.8l-7.2-7.2M311.4 191.9l-7.2-7.2M311.4 195.9l-7.2-7.2M311.4 199.8l-7.2-7.2M311.4 203.9l-7.2-7.2M311.4 207.9l-7.2-7.2M311.4 211.8l-7.2-7.2M311.4 215.9l-7.2-7.2M311.4 219.9l-7.2-7.2M311.4 223.8l-7.2-7.2M311.4 227.9l-7.2-7.2M311.4 231.9l-7.2-7.2M311.4 236l-7.2-7.2M311.4 239.9l-7.2-7.2M311.4 243.9l-7.2-7.2M311.4 248l-7.2-7.2M311.4 251.9l-7.2-7.2M311.4 255.9l-7.2-7.2M311.4 260l-7.2-7.2M311.4 263.9l-7.2-7.2M309.5 264.6l1.9-1.9M307.1 262.9l4.3-4.1M304.7 261.2l6.7-6.5M304.2 257.9l7.2-7.2M304.2 254l7.2-7.2M304.2 249.9l7.2-7.2M304.2 245.9l7.2-7.2M304.2 241.8l7.2-7.2M304.2 237.9l7.2-7.2M304.2 233.9l7.2-7.2M304.2 229.8l7.2-7.2M304.2 225.9l7.2-7.2M304.2 221.9l7.2-7.2M304.2 217.8l7.2-7.2M304.2 213.9l7.2-7.2M304.2 209.9l7.2-7.2M304.2 205.8l7.2-7.2M304.2 201.7l7.2-7.2M304.2 197.9l7.2-7.2M304.2 193.8l7.2-7.2M304.2 189.7l7.2-7.2M304.2 185.9l7.2-7.2M304.2 181.8l7.2-7.2M304.2 177.7l7.2-7.2M304.2 173.9l7.2-7.2M304.2 169.8l7.2-7.2M304.2 165.7l7.2-7.2M304.2 161.6l7.2-7.2M304.2 157.8l7.2-7.2M304.2 153.7l7.2-7.2M304.2 149.6l7.2-7.2M304.2 145.8l5.8-6M304.2 141.7l1.7-1.9"/><path class="cls-24" d="M304 139.8v120.9l7.2 5.1v-126H304"/><path class="cls-18" d="M311.4 143.6l-4.1-3.8M311.4 147.7l-7.2-7.2M311.4 151.8l-7.2-7.2M311.4 155.9l-7.2-7.2M311.4 159.7l-7.2-7.2M311.4 163.8l-7.2-7.2M311.4 167.9l-7.2-7.2M311.4 171.7l-7.2-7.2M311.4 175.8l-7.2-7.2M311.4 179.9l-7.2-7.2M311.4 183.7l-7.2-7.2M311.4 187.8l-7.2-7.2M311.4 191.9l-7.2-7.2M311.4 195.9l-7.2-7.2M311.4 199.8l-7.2-7.2M311.4 203.9l-7.2-7.2M311.4 207.9l-7.2-7.2M311.4 211.8l-7.2-7.2M311.4 215.9l-7.2-7.2M311.4 219.9l-7.2-7.2M311.4 223.8l-7.2-7.2M311.4 227.9l-7.2-7.2M311.4 231.9l-7.2-7.2M311.4 236l-7.2-7.2M311.4 239.9l-7.2-7.2M311.4 243.9l-7.2-7.2M311.4 248l-7.2-7.2M311.4 251.9l-7.2-7.2M311.4 255.9l-7.2-7.2M311.4 260l-7.2-7.2M311.4 263.9l-7.2-7.2M309.5 264.6l1.9-1.9M307.1 262.9l4.3-4.1M304.7 261.2l6.7-6.5M304.2 257.9l7.2-7.2M304.2 254l7.2-7.2M304.2 249.9l7.2-7.2M304.2 245.9l7.2-7.2M304.2 241.8l7.2-7.2M304.2 237.9l7.2-7.2M304.2 233.9l7.2-7.2M304.2 229.8l7.2-7.2M304.2 225.9l7.2-7.2M304.2 221.9l7.2-7.2M304.2 217.8l7.2-7.2M304.2 213.9l7.2-7.2M304.2 209.9l7.2-7.2M304.2 205.8l7.2-7.2M304.2 201.7l7.2-7.2M304.2 197.9l7.2-7.2M304.2 193.8l7.2-7.2M304.2 189.7l7.2-7.2M304.2 185.9l7.2-7.2M304.2 181.8l7.2-7.2M304.2 177.7l7.2-7.2M304.2 173.9l7.2-7.2M304.2 169.8l7.2-7.2M304.2 165.7l7.2-7.2M304.2 161.6l7.2-7.2M304.2 157.8l7.2-7.2M304.2 153.7l7.2-7.2M304.2 149.6l7.2-7.2M304.2 145.8l5.8-6M304.2 141.7l1.7-1.9"/><path class="cls-19" d="M310 134h1.7v5.8H310zM310 104.3h1.7v2.4H310z"/><path class="cls-19" d="M310 106.7h1.7v27.4H310zM310 134v-27.3"/><path class="cls-1" d="M304 134.3v-27.9"/><path class="cls-19" d="M304 106.9v-.5"/><path class="cls-24" d="M304 139.8v-5.5h6v5.5"/><path class="cls-18" d="M310.2 134.5l-.2-.2M310.2 138.6l-4.3-4.3M307.3 139.8l-3.1-3.4M310 139.8h.2M305.9 139.8l4.3-4.1M304.2 137.6l3.4-3.3"/><path class="cls-24" d="M304 104.3v2.1h6v-2.1"/><path class="cls-18" d="M310 106.4l-2.2-2.1M306.1 106.4l-1.9-1.9M307.3 106.4l2.2-2.1M304.2 105.7l1.2-1.4"/><path class="cls-24" d="M42.6 39.9h30.7v9.2H70v9.1H42.6V39.9"/><path class="cls-20" d="M93 91.3h20.9M93 90.6h20.9M93 104.3h20.9M93 99h20.9M.1 91.3h29.6M.1 90.6h29.6M.1 104.3h29.6M.1 99h29.6M113.9 99v5.3M29.7 91.3h1.6v5.5h.8v-6.2h-2.4M29.7 99v5.3M93 91.3h-1.7v5.5h-.7v-6.2H93M93 99v5.3M311.2 273.5h-6.5M311.2 274.2h-3.1M304 260.7h-10.6M311.2 265.8h-12.7M308.1 274.2h-3.4M304.7 274.2v-.7M298.5 265.8h-5.1M293.4 265.8v-5.1M29.9 334.4H.1M29.9 337.8H.1M29.9 323.1H.1M29.9 328.2H.1M144.1 334.4H92.8M144.1 337.8H92.8M144.1 323.1H92.8M144.1 328.2H92.8M239.9 334.4h-55M239.9 337.8h-55M239.9 323.1h-55M239.9 328.2h-55M304.7 334.4h-24M308.1 337.8h-27.4M293.4 323.1h-12.7M298.5 328.2h-17.8M90.9 337.8h3.6M31.8 337.8h-3.6M92.8 328.2v-5.1M92.8 337.8h-1.9v-3.4h1.9M90.9 334.4v-3.8M29.9 328.2v-5.1M29.9 337.8h1.9v-3.4h-1.9M31.8 334.4v-3.8M183 337.8h3.4M146.1 337.8h-3.6M184.9 328.2v-5.1M184.9 337.8H183v-3.4h1.9M183 334.4v-3.8M144.1 328.2v-5.1M144.1 337.8h2v-3.4h-2M146.1 334.4v-3.8M279 337.8h3.4M241.8 337.8h-3.3M280.7 328.2v-5.1M280.7 337.8H279v-3.4h1.7M279 334.4v-3.8M239.9 328.2v-5.1M239.9 337.8h1.9v-3.4h-1.9M241.8 334.4v-3.8M252.9 211.3h-132M192.9 218.5H118M252.9 218.5h-55M192.9 218.5H118M252.9 211.3h-132M252.9 218.5h-55M197.9 218.5h-5M118 218.5h-4.1M113.9 142.2v76.3M120.9 142.2v69.1M120.9 142.2v69.1M113.9 142.2v76.3M113.9 99v7.4M120.9 99v7.4M120.9 99v7.4M113.9 99v7.4M120.9 108.6h-6M120.9 136.4h-6M120.9 108.6h-6M120.9 106.4v2.2M120.9 136.4h-6M120.9 142.2v-5.8M113.9 106.4h1M113.9 142.2h1M120.9 106.4v2.2M120.9 142.2v-5.8M114.9 108.6v-2.2M114.9 136.4v5.8M304.7 274.2v60.2M308.1 274.2v63.6M293.4 265.8v57.3M298.5 265.8v62.4M304.7 274.2h3.4M293.4 265.8h5.1M192.9 218.5v66M197.9 218.5v70.1M197.9 218.5v70.1M192.9 218.5v66M197.9 218.5h-5M7.1 328.2V99M.1 328.2V99M7.1 99h-7M.1 328.2V99M7.1 328.2V99M7.1 328.2h-7M252.9 218.5h40.5M258.6 208.4h34.8M258.6 208.4h34.8M252.9 218.5h40.5M293.4 223.5H304M293.4 208.4H304M293.4 208.4H304M293.4 223.5H304M293.4 223.5v-5M113.9 284.5h-18M166.7 284.5H118M166.7 288.6H95.9M95.9 284.5v4.1M166.7 288.6H95.9M113.9 284.5h-18M166.7 284.5H118M197.9 288.6h-5M192.9 284.5v4.1M166.7 284.5v4.1M197.9 288.6h-5M113.9 218.5v66M118 218.5v66M118 218.5v66M113.9 218.5v66M113.9 218.5h4.1M258.6 208.4v-54.7M252.9 211.3v-67.7M252.9 211.3v-67.7M258.6 208.4v-54.7M264.6 153.7h3.1M264.6 143.6h3.1M264.6 143.6h3.1M264.6 153.7h3.1M269.2 143.6v8.7M300.9 143.6v8.7M269.2 143.6v8.7M267.7 143.6h1.5M300.9 143.6v8.7M304 143.6h-3.1M267.7 153.7v-1.4M304 153.7v-1.4M267.7 143.6h1.5M304 143.6h-3.1M269.2 152.3h-1.5M300.9 152.3h3.1M271.3 162.6h29.8v39.8h-29.8zM113.9 91.3h197.3M113.9 90.6h197.3M113.9 106.4h197.3M113.9 99h197.3M113.9 99v5.3M258.6 153.7h10.6M252.9 143.6h16.3M269.2 153.7v-10.1M252.9 143.6h16.3M258.6 153.7h10.6M311.2 104.3V99M304 104.3V99M304 104.3V99M311.2 104.3V99M311.2 260.7V139.8M304 208.4v-68.6M304 260.7v-37.2M304 143.6v-3.8M311.2 260.7V139.8M304 208.4v-54.7M304 260.7v-37.2M311.2 265.8v-5.1M304 134.3h6M304 106.4h6M304 134.3h6M304 139.8v-5.5M304 106.4h6M304 104.3v2.1M311.2 139.8H310M311.2 104.3H310M304 139.8v-5.5M304 104.3v2.1M310 134.3v5.5M310 106.4v-2.1"/></g><g id="Mbel"><path class="cls-2" d="M201.3 219.7h15.6v56.9h-15.6zM261.7 219.7H290v56.9h-28.3zM29.9 171h22.6v51.1H29.9zM62.5 220.7v-12.8M54 220.7h8.5M62.5 207.9H54M62.5 202.9v-12.7M54 202.9h8.5M62.5 190.2H54M62.5 185.2v-12.7M54 185.2h8.5M62.5 172.5H54M20 220.7v-12.8M28.5 220.7H20M20 207.9h8.5M20 202.9v-12.7M28.5 202.9H20M20 190.2h8.5M20 185.2v-12.7M28.5 185.2H20M20 172.5h8.5M44.1 267.7h14.2V296H44.1zM13.2 308.5h19c.1 0 .2-.1.3-.2 0 0 .1-.2.2-.3v-25.2-.2-.2-.1l-.1-.1-.1-.1h-.1-.2-19v26.6"/><path class="cls-2" d="M9.5 313h22.9l.1-.1.1-.1v-.1-.2-3-.3c0-.1-.1-.2-.2-.3 0 0-.2-.1-.3-.2H9.5h-.2-.2H9l-.1.1-.1.1V312.5c0 .1.1.2.2.3 0 0 .2.1.3.2h.3M13.2 281.8h-4c-.1 0-.2-.1-.3-.2 0 0-.1-.2-.2-.3v-25.2-.3c0-.1.1-.2.2-.3 0 0 .2-.1.3-.2h4M15.5 255.2v53.3"/><path class="cls-2" d="M13.2 255.2h19.2l.1.1.1.1v25.7c0 .1-.1.2-.2.3 0 0-.2.1-.3.2H13.2V255M9.5 250.6h22.9l.1.1.1.1V254.6l-.1.1-.1.1h-.1-.2H9.2c-.1 0-.2-.1-.3-.2 0 0-.1-.2-.2-.3V251.2v-.3c0-.1.1-.2.2-.3 0 0 .2-.1.3-.2h.3M13.2 281.8h-4c-.1 0-.2.1-.3.2 0 0-.1.2-.2.3v25.5c0 .1.1.2.2.3 0 0 .2.1.3.2h4"/></g><g id="Text"><path d="M25.1 144.1h-.7v-5.3h.7v2.5l2.1-2.5h.8l-2.2 2.6 2.2 2.7h-.9l-2-2.5v2.5zM32.2 142.3c0 1.1-.8 1.9-1.9 1.9s-1.9-.8-1.9-1.9.8-1.9 1.9-1.9 1.9.8 1.9 1.9zm-3.1 0c0 .8.5 1.4 1.3 1.4s1.2-.6 1.2-1.4-.5-1.4-1.2-1.4-1.3.6-1.3 1.4zM36.2 143.7c-.4.4-.8.5-1.4.5-1.1 0-1.8-.8-1.8-1.9s.8-1.9 1.8-1.9 1 .2 1.3.6l-.4.4c-.3-.3-.6-.4-.9-.4-.7 0-1.2.6-1.2 1.4s.5 1.4 1.2 1.4.6-.1.9-.4l.4.4zM37.7 140.9c.3-.4.7-.6 1.1-.6s.7.1.9.3c.2.2.3.5.3 1v2.5h-.6v-2.4c0-.5-.2-.8-.7-.8s-.5.1-.7.3c-.2.2-.2.4-.2.7v2.2h-.6v-5.3h.6v2.2zM41.7 142.5c0 .3 0 .5.2.7.2.3.6.5 1 .5s.9-.2 1.1-.6l.5.2c-.3.6-.9 1-1.6 1-1.1 0-1.9-.8-1.9-1.9s.8-1.9 1.9-1.9 1.9.8 1.9 1.9v.2h-3.1zm2.4-.4c0-.3 0-.4-.2-.6-.2-.3-.6-.5-1-.5s-.8.2-1 .5c-.1.2-.2.3-.2.6h2.4zM46.5 140.4v.5c.3-.4.6-.6 1.1-.6s.6.1.9.3c.2.2.3.5.3 1v2.5h-.6v-2.4c0-.3 0-.5-.1-.6-.1-.2-.3-.2-.6-.2s-.5.1-.7.3c-.2.2-.2.4-.2.7v2.2H46v-3.7h.6zM50 145.4h-.4l.7-2.1.6.2-.8 1.9zM55.1 141.1h2.1v.6h-2.1v1.8h2.1v.6h-2.8v-5.3h2.8v.6h-2.1v1.8zM60.2 141.4c0-.4-.3-.6-.7-.6s-.7.2-.7.5.2.4.8.6c.5.1.7.2.9.4.2.2.3.4.3.7 0 .6-.5 1.1-1.3 1.1s-1.3-.4-1.4-1.1h.6c0 .4.3.6.8.6s.7-.2.7-.5-.2-.5-.8-.6c-.8-.2-1.2-.6-1.2-1.1s.5-1.1 1.3-1.1 1.3.4 1.3 1.1h-.6zM63.7 141.4c0-.4-.3-.6-.7-.6s-.7.2-.7.5.2.4.8.6c.5.1.7.2.9.4.2.2.3.4.3.7 0 .6-.5 1.1-1.3 1.1s-1.3-.4-1.4-1.1h.6c0 .4.3.6.8.6s.7-.2.7-.5-.2-.5-.8-.6c-.8-.2-1.2-.6-1.2-1.1s.5-1.1 1.3-1.1 1.3.4 1.3 1.1h-.6zM65.8 142.5c0 .3 0 .5.2.7.2.3.6.5 1 .5s.9-.2 1.1-.6l.5.2c-.3.6-.9 1-1.6 1-1.1 0-1.9-.8-1.9-1.9s.8-1.9 1.9-1.9 1.9.8 1.9 1.9v.2h-3.1zm2.4-.4c0-.3 0-.4-.2-.6-.2-.3-.6-.5-1-.5s-.8.2-1 .5c-.1.2-.2.3-.2.6h2.4zM70.6 140.4v.5c.3-.4.6-.6 1.1-.6s.6.1.9.3c.2.2.3.5.3 1v2.5h-.6v-2.4c0-.3 0-.5-.1-.6-.1-.2-.3-.2-.6-.2s-.5.1-.7.3c-.2.2-.2.4-.2.7v2.2h-.6v-3.7h.6zM74.1 145.4h-.4l.7-2.1.6.2-.8 1.9zM30 147.8h.7l-1.6 5.3h-.6l-1.2-4.2-1.2 4.2h-.6l-1.6-5.3h.7l1.2 4.1 1.2-4.1h.6l1.1 4.1 1.2-4.1zM34.8 151.3c0 1.1-.8 1.9-1.9 1.9s-1.9-.8-1.9-1.9.8-1.9 1.9-1.9 1.9.8 1.9 1.9zm-3.1 0c0 .8.5 1.4 1.3 1.4s1.2-.6 1.2-1.4-.5-1.4-1.2-1.4-1.3.6-1.3 1.4zM36.5 149.9c.3-.4.7-.6 1.1-.6s.7.1.9.3c.2.2.3.5.3 1v2.5h-.6v-2.4c0-.5-.2-.8-.7-.8s-.5.1-.7.3c-.2.2-.2.4-.2.7v2.2H36v-5.3h.6v2.2zM40.7 149.4v.5c.3-.4.6-.6 1.1-.6s.6.1.9.3c.2.2.3.5.3 1v2.5h-.6v-2.4c0-.3 0-.5-.1-.6-.1-.2-.3-.2-.6-.2s-.5.1-.7.3c-.2.2-.2.4-.2.7v2.2h-.6v-3.7h.6zM44.7 151.5c0 .3 0 .5.2.7.2.3.6.5 1 .5s.9-.2 1.1-.6l.5.2c-.3.6-.9 1-1.6 1-1.1 0-1.9-.8-1.9-1.9s.8-1.9 1.9-1.9 1.9.8 1.9 1.9v.2h-3.1zm2.4-.4c0-.3 0-.4-.2-.6-.2-.3-.6-.5-1-.5s-.8.2-1 .5c-.1.2-.2.3-.2.6h2.4zM49.4 149.4v.5c.3-.4.6-.6 1.1-.6s.6.1.9.3c.2.2.3.5.3 1v2.5h-.6v-2.4c0-.3 0-.5-.1-.6-.1-.2-.3-.2-.6-.2s-.5.1-.7.3c-.2.2-.2.4-.2.7v2.2h-.6v-3.7h.6zM24.4 157.4v-.6h3l-1.6 2c.9 0 1.6.7 1.6 1.6s-.8 1.7-1.8 1.7-1.4-.5-1.6-1.3h.6c.1.4.5.7 1 .7s1.2-.5 1.2-1.1-.5-1.1-1.2-1.1-.4 0-.6.2l-.3-.2 1.5-1.9h-1.9zM31.1 161.5v.6h-3l1.9-2.7c.5-.8.7-1 .7-1.3 0-.5-.4-.8-.9-.8s-.7.2-.8.4v.6h-.6c0-1 .6-1.6 1.5-1.6s1.5.5 1.5 1.3-.2.8-.6 1.5l-1.4 2h1.9zM33.2 161.8c0 .2-.2.4-.4.4s-.4-.2-.4-.4.2-.4.4-.4.4.2.4.4zM36.9 157.4h-1.7v1.4c.3-.1.5-.2.8-.2.9 0 1.6.7 1.6 1.7s-.8 1.8-1.8 1.8-1.3-.4-1.6-1.1l.6-.2c.1.2.2.3.3.4.2.2.5.3.8.3.6 0 1.1-.5 1.1-1.2s-.5-1.1-1.2-1.1-.8.2-1.2.5v-3h2.3v.6zM40.9 158.4v.5c.3-.4.6-.6 1-.6s.8.2 1 .7c.3-.5.6-.7 1.2-.7s.7.1.9.4c.2.2.2.4.2 1v2.4h-.6v-2.2c0-.4 0-.6-.1-.7-.1-.2-.4-.3-.6-.3-.5 0-.8.4-.8 1v2.2h-.6v-2.2c0-.4 0-.5-.1-.7-.1-.2-.3-.3-.6-.3-.5 0-.9.4-.9 1v2.2h-.6v-3.7h.6zM48.5 159.6v.4h-2l1.2-1.6c.3-.5.4-.6.4-.8 0-.3-.2-.4-.5-.4s-.5.2-.5.6h-.4c0-.6.4-1 1-1s1 .3 1 .8-.1.5-.4.9l-.8 1.1h1.1z"/><g><path d="M44.9 47.4h-.7v-4.8h-1.4V42h3.4v.6h-1.4v4.8zM47.1 45.7c0 .3 0 .5.2.7.2.3.6.5 1 .5s.9-.2 1.1-.6l.5.2c-.3.6-.9 1-1.6 1-1.1 0-1.9-.8-1.9-1.9s.8-1.9 1.9-1.9 1.9.8 1.9 1.9v.2h-3.1zm2.4-.4c0-.3 0-.4-.2-.6-.2-.3-.6-.5-1-.5s-.8.2-1 .5c-.1.2-.2.3-.2.6h2.4zM51.9 43.7v.6c.1-.3.2-.4.3-.5.2-.1.4-.2.7-.2h.1v.6h-.2c-.3 0-.6.2-.8.4-.2.2-.2.4-.2.9v1.9h-.6v-3.7h.6zM56.7 43.7h.6v3.7h-.6v-.7c-.4.6-.8.8-1.3.8-1 0-1.7-.8-1.7-1.9s.7-1.9 1.8-1.9 1 .2 1.3.7v-.6zm-2.1.9c-.2.3-.3.6-.3 1 0 .8.5 1.4 1.2 1.4s1.3-.6 1.3-1.4-.5-1.4-1.2-1.4-.7.1-.9.4zM60.5 44.7c0-.4-.3-.6-.7-.6s-.7.2-.7.5.2.4.8.6c.5.1.7.2.9.4.2.2.3.4.3.7 0 .6-.5 1.1-1.3 1.1s-1.3-.4-1.4-1.1h.6c0 .4.3.6.8.6s.7-.2.7-.5-.2-.5-.8-.6c-.8-.2-1.2-.6-1.2-1.1s.5-1.1 1.3-1.1 1.3.4 1.3 1.1h-.6zM64 44.7c0-.4-.3-.6-.7-.6s-.7.2-.7.5.2.4.8.6c.5.1.7.2.9.4.2.2.3.4.3.7 0 .6-.5 1.1-1.3 1.1s-1.3-.4-1.4-1.1h.6c0 .4.3.6.8.6s.7-.2.7-.5-.2-.5-.8-.6c-.8-.2-1.2-.6-1.2-1.1s.5-1.1 1.3-1.1 1.3.4 1.3 1.1H64zM66.2 45.7c0 .3 0 .5.2.7.2.3.6.5 1 .5s.9-.2 1.1-.6l.5.2c-.3.6-.9 1-1.6 1-1.1 0-1.9-.8-1.9-1.9s.8-1.9 1.9-1.9 1.9.8 1.9 1.9v.2h-3.1zm2.4-.4c0-.3 0-.4-.2-.6-.2-.3-.6-.5-1-.5s-.8.2-1 .5c-.1.2-.2.3-.2.6h2.4zM43.4 51.7v-.6h3l-1.6 2c.9 0 1.6.7 1.6 1.6s-.8 1.7-1.8 1.7-1.4-.5-1.6-1.3h.6c.1.4.5.7 1 .7s1.2-.5 1.2-1.1-.5-1.1-1.2-1.1-.4 0-.6.2l-.3-.2 1.5-1.9h-1.9zM50 51.6h-1.7V53c.3-.1.5-.2.8-.2.9 0 1.6.7 1.6 1.7s-.8 1.8-1.8 1.8-1.3-.4-1.6-1.1l.6-.2c.1.2.2.3.3.4.2.2.5.3.8.3.6 0 1.1-.5 1.1-1.2s-.5-1.1-1.2-1.1-.8.2-1.2.5v-3H50v.6zM52.5 56c0 .2-.2.4-.4.4s-.4-.2-.4-.4.2-.4.4-.4.4.2.4.4zM56.8 54.8c0 .6-.1 1-.4 1.2-.3.3-.7.4-1.2.4s-1-.2-1.2-.5c-.3-.3-.4-.6-.4-1.4v-1.8c0-.7 0-1 .3-1.3.3-.3.7-.5 1.2-.5s.9.1 1.2.4c.3.3.4.6.4 1.2v2.1zm-2.5-.1c0 .6 0 .7.2.9.2.2.5.3.8.3s.6-.1.8-.4c.1-.2.2-.4.2-.8v-2c0-.4 0-.6-.3-.8-.2-.2-.4-.2-.7-.2s-.6.1-.8.4c-.1.2-.2.4-.2.8v1.8zM60.2 52.7v.5c.3-.4.6-.6 1-.6s.8.2 1 .7c.3-.5.6-.7 1.2-.7s.7.1.9.4c.2.2.2.4.2 1v2.4h-.6v-2.2c0-.4 0-.6-.1-.7-.1-.2-.4-.3-.6-.3-.5 0-.8.4-.8 1v2.2h-.6v-2.2c0-.4 0-.5-.1-.7-.1-.2-.3-.3-.6-.3-.5 0-.9.4-.9 1v2.2h-.6v-3.7h.6zM67.8 53.9v.4h-2l1.2-1.6c.3-.5.4-.6.4-.8 0-.3-.2-.4-.5-.4s-.5.2-.5.6H66c0-.6.4-1 1-1s1 .3 1 .8-.1.5-.4.9l-.8 1.1h1.1z"/></g><g><path d="M233.7 274.3v.6h-3.8l3-4.8h-2.7v-.6h3.8l-3 4.8h2.7zM235.5 270.2c0 .2-.2.4-.4.4s-.4-.2-.4-.4.2-.4.4-.4.4.2.4.4zm0 4.7h-.6v-3.7h.6v3.7zM237.4 271.2v.5c.3-.4.6-.6 1-.6s.8.2 1 .7c.3-.5.6-.7 1.2-.7s.7.1.9.4c.2.2.2.4.2 1v2.4h-.6v-2.2c0-.4 0-.6-.1-.7-.1-.2-.4-.3-.6-.3-.5 0-.8.4-.8 1v2.2h-.6v-2.2c0-.4 0-.5-.1-.7-.1-.2-.3-.3-.6-.3-.5 0-.9.4-.9 1v2.2h-.6v-3.7h.6zM243.7 271.2v.5c.3-.4.6-.6 1-.6s.8.2 1 .7c.3-.5.6-.7 1.2-.7s.7.1.9.4c.2.2.2.4.2 1v2.4h-.6v-2.2c0-.4 0-.6-.1-.7-.1-.2-.4-.3-.6-.3-.5 0-.8.4-.8 1v2.2h-.6v-2.2c0-.4 0-.5-.1-.7-.1-.2-.3-.3-.6-.3-.5 0-.9.4-.9 1v2.2h-.6v-3.7h.6zM249.8 273.2c0 .3 0 .5.2.7.2.3.6.5 1 .5s.9-.2 1.1-.6l.5.2c-.3.6-.9 1-1.6 1-1.1 0-1.9-.8-1.9-1.9s.8-1.9 1.9-1.9 1.9.8 1.9 1.9v.2h-3.1zm2.4-.4c0-.3 0-.4-.2-.6-.2-.3-.6-.5-1-.5s-.8.2-1 .5c-.1.2-.2.3-.2.6h2.4zM254.6 271.2v.6c.1-.3.2-.4.3-.5.2-.1.4-.2.7-.2h.1v.6h-.2c-.3 0-.6.2-.8.4-.2.2-.2.4-.2.9v1.9h-.6v-3.7h.6zM230.6 280.3v-.6l1.8-1.2v5.4h-.6v-4.4l-1.2.8zM234.2 279.2v-.6h3l-1.6 2c.9 0 1.6.7 1.6 1.6s-.8 1.7-1.8 1.7-1.4-.5-1.6-1.3h.6c.1.4.5.7 1 .7s1.2-.5 1.2-1.1-.5-1.1-1.2-1.1-.4 0-.6.2l-.3-.2 1.5-1.9h-1.9zM239.1 283.5c0 .2-.2.4-.4.4s-.4-.2-.4-.4.2-.4.4-.4.4.2.4.4zM243.4 282.3c0 .6-.1 1-.4 1.2-.3.3-.7.4-1.2.4s-1-.2-1.2-.5c-.3-.3-.4-.6-.4-1.4v-1.8c0-.7 0-1 .3-1.3.3-.3.7-.5 1.2-.5s.9.1 1.2.4c.3.3.4.6.4 1.2v2.1zm-2.5-.1c0 .6 0 .7.2.9.2.2.5.3.8.3s.6-.1.8-.4c.1-.2.2-.4.2-.8v-2c0-.4 0-.6-.3-.8-.2-.2-.4-.2-.7-.2s-.6.1-.8.4c-.1.2-.2.4-.2.8v1.8zM246.7 280.2v.5c.3-.4.6-.6 1-.6s.8.2 1 .7c.3-.5.6-.7 1.2-.7s.7.1.9.4c.2.2.2.4.2 1v2.4h-.6v-2.2c0-.4 0-.6-.1-.7-.1-.2-.4-.3-.6-.3-.5 0-.8.4-.8 1v2.2h-.6v-2.2c0-.4 0-.5-.1-.7-.1-.2-.3-.3-.6-.3-.5 0-.9.4-.9 1v2.2h-.6v-3.7h.6zM254.3 281.4v.4h-2l1.2-1.6c.3-.5.4-.6.4-.8 0-.3-.2-.4-.5-.4s-.5.2-.5.6h-.4c0-.6.4-1 1-1s1 .3 1 .8-.1.5-.4.9l-.8 1.1h1.1z"/></g><g><path d="M131.6 251.4h1.4c1.6 0 2.6 1 2.6 2.6s-.3 1.6-.8 2.1c-.5.4-1.1.6-1.9.6h-1.3v-5.3zm.7 4.8h.2c.9 0 1.3 0 1.7-.4.5-.4.7-1 .7-1.8 0-1.3-.7-2-1.9-2h-.7v4.2zM139.5 253.1v2.4c0 .5 0 .8-.4 1-.3.2-.6.4-1.1.4s-.8-.1-1.1-.4c-.2-.2-.4-.6-.4-1v-2.4h.6v2.3c0 .5.3.9.8.9s.5-.1.7-.3c.1-.1.2-.3.2-.6V253h.6zM142.6 254.1c0-.4-.3-.6-.7-.6s-.7.2-.7.5.2.4.8.6c.5.1.7.2.9.4.2.2.3.4.3.7 0 .6-.5 1.1-1.3 1.1s-1.3-.4-1.4-1.1h.6c0 .4.3.6.8.6s.7-.2.7-.5-.2-.5-.8-.6c-.8-.2-1.2-.6-1.2-1.1s.5-1.1 1.3-1.1 1.3.4 1.3 1.1h-.6zM147.3 256.3c-.4.4-.8.5-1.4.5-1.1 0-1.8-.8-1.8-1.9s.8-1.9 1.8-1.9 1 .2 1.3.6l-.4.4c-.3-.3-.6-.4-.9-.4-.7 0-1.2.6-1.2 1.4s.5 1.4 1.2 1.4.6-.1.9-.4l.4.4zM148.8 253.6c.3-.4.7-.6 1.1-.6s.7.1.9.3c.2.2.3.5.3 1v2.5h-.6v-2.4c0-.5-.2-.8-.7-.8s-.5.1-.7.3c-.2.2-.2.4-.2.7v2.2h-.6v-5.3h.6v2.2zM152.8 255.1c0 .3 0 .5.2.7.2.3.6.5 1 .5s.9-.2 1.1-.6l.5.2c-.3.6-.9 1-1.6 1-1.1 0-1.9-.8-1.9-1.9s.8-1.9 1.9-1.9 1.9.8 1.9 1.9v.2h-3.1zm2.4-.4c0-.3 0-.4-.2-.6-.2-.3-.6-.5-1-.5s-.8.2-1 .5c-.1.2-.2.3-.2.6h2.4zM133.9 261h-1.7v1.4c.3-.1.5-.2.8-.2.9 0 1.6.7 1.6 1.7s-.8 1.8-1.8 1.8-1.3-.4-1.6-1.1l.6-.2c.1.2.2.3.3.4.2.2.5.3.8.3.6 0 1.1-.5 1.1-1.2s-.5-1.1-1.2-1.1-.8.2-1.2.5v-3h2.3v.6zM136.4 265.4c0 .2-.2.4-.4.4s-.4-.2-.4-.4.2-.4.4-.4.4.2.4.4zM140.5 265.2v.6h-3l1.9-2.7c.5-.8.7-1 .7-1.3 0-.5-.4-.8-.9-.8s-.7.2-.8.4v.6h-.6c0-1 .6-1.6 1.5-1.6s1.5.5 1.5 1.3-.2.8-.6 1.5l-1.4 2h1.9zM144.1 262.1v.5c.3-.4.6-.6 1-.6s.8.2 1 .7c.3-.5.6-.7 1.2-.7s.7.1.9.4c.2.2.2.4.2 1v2.4h-.6v-2.2c0-.4 0-.6-.1-.7-.1-.2-.4-.3-.6-.3-.5 0-.8.4-.8 1v2.2h-.6v-2.2c0-.4 0-.5-.1-.7-.1-.2-.3-.3-.6-.3-.5 0-.9.4-.9 1v2.2h-.6v-3.7h.6zM151.7 263.3v.4h-2l1.2-1.6c.3-.5.4-.6.4-.8 0-.3-.2-.4-.5-.4s-.5.2-.5.6h-.4c0-.6.4-1 1-1s1 .3 1 .8-.1.5-.4.9l-.8 1.1h1.1z"/></g><g><path d="M284.1 185.6v.6h-2.5v-5.3h.7v4.7h1.9zM285.7 181.5c0 .2-.2.4-.4.4s-.4-.2-.4-.4.2-.4.4-.4.4.2.4.4zm0 4.7h-.6v-3.7h.6v3.7zM287.7 186.2h-.6V183h-.5v-.5h.5v-.5c0-.7.4-1.2 1-1.2h.2v.5c-.4 0-.6.2-.6.6v.5h.6v.5h-.6v3.2zM290.1 185.5c0 .2 0 .2.3.2h.3v.5h-.6c-.4 0-.6-.2-.6-.6V183h-.5v-.5h.5v-1.2h.6v1.2h.6v.5h-.6v2.4z"/></g></g></svg>