<svg xmlns="http://www.w3.org/2000/svg" viewBox="0 0 338.8 383.7"><defs><style>.cls-1,.cls-10,.cls-11,.cls-12,.cls-13,.cls-14,.cls-15,.cls-16,.cls-17,.cls-18,.cls-19,.cls-2,.cls-3,.cls-4,.cls-5,.cls-6,.cls-7,.cls-8,.cls-9{fill:none}.cls-1,.cls-10,.cls-11,.cls-12,.cls-13,.cls-14,.cls-15,.cls-16,.cls-17,.cls-18,.cls-19,.cls-2,.cls-3,.cls-4,.cls-5,.cls-6,.cls-8,.cls-9{stroke-linecap:round;stroke-linejoin:round}.cls-1,.cls-10,.cls-11,.cls-12,.cls-13,.cls-14,.cls-15,.cls-16,.cls-17,.cls-18,.cls-3,.cls-4,.cls-5,.cls-9{stroke-width:.1px}.cls-1,.cls-11,.cls-15,.cls-16,.cls-18,.cls-19,.cls-3,.cls-4,.cls-9{stroke:#194164}.cls-1,.cls-11,.cls-15,.cls-9{stroke-dasharray:0 0 0 0 2.9 1.4 .2 1.4}.cls-2{stroke:#646464;stroke-width:.1px}.cls-10,.cls-12,.cls-13,.cls-14,.cls-16,.cls-3,.cls-4,.cls-5{stroke-dasharray:0 0 1.4 1.4}.cls-20{clip-path:url(#clippath)}.cls-15,.cls-4{stroke-dashoffset:1px}.cls-21,.cls-22{fill:#fff}.cls-10,.cls-12,.cls-13,.cls-14,.cls-17,.cls-5{stroke:#969696}.cls-6{stroke:#000;stroke-width:.3px}.cls-7{clip-rule:evenodd}.cls-8{stroke:#4c4c4c;stroke-width:.1px}.cls-23{clip-path:url(#clippath-1)}.cls-24{clip-path:url(#clippath-4)}.cls-25{clip-path:url(#clippath-3)}.cls-26{clip-path:url(#clippath-2)}.cls-27{clip-path:url(#clippath-7)}.cls-28{clip-path:url(#clippath-6)}.cls-29{clip-path:url(#clippath-5)}.cls-9{stroke-dashoffset:4.3px}.cls-10{stroke-dashoffset:2.8px}.cls-11{stroke-dashoffset:1.2px}.cls-12{stroke-dashoffset:2.7px}.cls-13{stroke-dashoffset:2.5px}.cls-14{stroke-dashoffset:.7px}.cls-22,.cls-30{fill-rule:evenodd}.cls-16{stroke-dashoffset:.2px}.cls-19{stroke-width:.3px}</style><clipPath id="clippath"><path class="cls-7" d="M121.5 368.8h195.4l15.1 14.9H121.5"/></clipPath><clipPath id="clippath-1"><path class="cls-7" d="M3.2 368.5h6l14.9 15.2H3.2"/></clipPath><clipPath id="clippath-2"><path class="cls-7" d="M9.2 368.5v-9.3h14.9v24.5"/></clipPath><clipPath id="clippath-3"><path class="cls-7" d="M9.2 376v-9.4l14.9-15.1V376"/></clipPath><clipPath id="clippath-4"><path class="cls-7" d="M9.2 366.6h-6v-15.1h20.9"/></clipPath><clipPath id="clippath-5"><path class="cls-7" d="M16.6 366.6H3.2v-15.1h13.4"/></clipPath><clipPath id="clippath-6"><path class="cls-7" d="M317.4 355.8l-2.2.3v-15.2h1.4"/></clipPath><clipPath id="clippath-7"><path class="cls-7" d="M319.8 326.3l-2.7.2v-15.1h1.9"/></clipPath></defs><g id="Plan"><path class="cls-17" d="M324.6 376.2l.2-1.2M324.8 375l-.2-.9M324.6 374.1l-.5-1M324.1 373.1l.5-1.2M324.6 371.9l.2-1M324.8 370.9l-.2-1.2M324.6 369.7l-.5-.9M324.1 368.8l.5-1.2M324.6 367.6l.2-1M324.8 366.6l-.2-.9M324.6 365.7l-.5-1.2M324.1 364.5l.5-1M324.6 363.5l.2-1.2M324.8 362.3l-.2-1M324.6 361.3l-.5-1.2M324.1 360.1l.5-.9M324.6 359.2l-1.2-.3M323.4 358.9l-1 .3M322.4 359.2l-1.2.2M321.2 359.4l-1-.2M320.2 359.2l-1.2-.3M319 358.9l-.9.3M318.1 359.2l-1 .2M317.1 359.4l-1.2-.2M315.9 359.2l-.9-.3M315 358.9l-1.2.3M313.8 359.2l-1 .2M312.8 359.4l-1.2-.2M311.6 359.2l-1-.3M310.6 358.9l-.9.3M309.7 359.2l-1.2.2M308.5 359.4l-1-.2M307.5 359.2l-1.2-.3M306.3 358.9l-.9.3M305.4 359.2l-1.2.2M304.2 359.4l-1-.2M303.2 359.2l-1-.3M302.2 358.9l-1.2.3M301 359.2l-.9.2M300.1 359.4l-1.2-.2M298.9 359.2l-1-.3M297.9 358.9l-1.2.3M296.7 359.2l-.9.2M295.8 359.4l-1-.2M294.8 359.2l-1.2-.3M293.6 358.9l-1 .3M292.6 359.2l-1.2.2M291.4 359.4l-.9-.2M290.5 359.2l-1.2-.3M289.3 358.9l-1 .3M288.3 359.2l-.9.2M287.4 359.4l-1.2-.2M286.2 359.2l-1-.3M285.2 358.9l-1.2.3M284 359.2l-1 .2M283 359.4l-1.2-.2M281.8 359.2l-.9-.3M280.9 358.9l-1 .3M279.9 359.2l-1.2.2M278.7 359.4l-.9-.2M277.8 359.2l-1.2-.3M276.6 358.9l-1 .3M275.6 359.2l-1.2.2M274.4 359.4l-1-.2M273.4 359.2l-.9-.3M272.5 358.9l-1.2.3M271.3 359.2l-1 .2M270.3 359.4l-1.2-.2M269.1 359.2l-.9-.3M268.2 358.9l-1.2.3M267 359.2l-1 .2M266 359.4l-1-.2M265 359.2l-1.2-.3M263.8 358.9l-.9.3M262.9 359.2l-1.2.2M261.7 359.4l-1-.2M260.7 359.2l-1.2-.3M259.5 358.9l-.9.3M258.6 359.2l-1 .2M257.6 359.4l-1.2-.2M256.4 359.2l-1-.3M255.4 358.9l-1.2.3M254.2 359.2l-.9.2M253.3 359.4l-1.2-.2M252.1 359.2l-1-.3M251.1 358.9l-.9.3M250.2 359.2l-1.2.2M249 359.4l-1-.2M248 359.2l-1.2-.3M246.8 358.9l-1 .3M245.8 359.2l-1.2.2M244.6 359.4l-.9-.2M243.7 359.2l-1-.3M242.7 358.9l-1.2.3M241.5 359.2l-.9.2M240.6 359.4l-1.2-.2M239.4 359.2l-1-.3M238.4 358.9l-1.2.3M237.2 359.2l-1 .2M236.2 359.4l-.9-.2M235.3 359.2l-1.2-.3M234.1 358.9l-1 .3M233.1 359.2l-1.2.2M231.9 359.4l-.9-.2M231 359.2l-1.2-.3M229.8 358.9l-1 .3M228.8 359.2l-1 .2M227.8 359.4l-1.2-.2M226.6 359.2l-.9-.3M225.7 358.9l-1.2.3M224.5 359.2l-1 .2M223.5 359.4l-1.2-.2M222.3 359.2l-.9-.3M221.4 358.9l-1 .3M220.4 359.2l-1.2.2M219.2 359.4l-1-.2M218.2 359.2l-1.2-.3M217 358.9l-.9.3M216.1 359.2l-1.2.2M214.9 359.4l-1-.2M213.9 359.2l-.9-.3M213 358.9l-1.2.3M211.8 359.2l-1 .2M210.8 359.4l-1.2-.2M209.6 359.2l-1-.3M208.6 358.9l-1.2.3M207.4 359.2l-.9.2M206.5 359.4l-1-.2M205.5 359.2l-1.2-.3M204.3 358.9l-.9.3M203.4 359.2l-1.2.2M202.2 359.4l-1-.2M201.2 359.2l-1.2-.3M200 358.9l-1 .3M199 359.2l-.9.2M198.1 359.4l-1.2-.2M196.9 359.2l-1-.3M195.9 358.9l-1.2.3M194.7 359.2l-.9.2M193.8 359.4l-1.2-.2M192.6 359.2l-1-.3M191.6 358.9l-1.2.3M190.4 359.2l-1 .2M189.4 359.4l-.9-.2M188.5 359.2l-1.2-.3M187.3 358.9l-1 .3M186.3 359.2l-1.2.2M185.1 359.4l-.9-.2M184.2 359.2l-1.2-.3M183 358.9l-1 .3M182 359.2l-1 .2M181 359.4l-1.2-.2M179.8 359.2l-.9-.3M178.9 358.9l-1.2.3M177.7 359.2l-1 .2M176.7 359.4l-1.2-.2M175.5 359.2l-.9-.3M174.6 358.9l-1 .3M173.6 359.2l-1.2.2M172.4 359.4l-1-.2M171.4 359.2l-1.2-.3M170.2 358.9l-.9.3M169.3 359.2l-1.2.2M168.1 359.4l-1-.2M167.1 359.2l-.9-.3M166.2 358.9l-1.2.3M165 359.2l-1 .2M164 359.4l-1.2-.2M162.8 359.2l-1-.3M161.8 358.9l-1.2.3M160.6 359.2l-.9.2M159.7 359.4l-1-.2M158.7 359.2l-1.2-.3M157.5 358.9l-.9.3M156.6 359.2l-1.2.2M155.4 359.4l-1-.2M154.4 359.2l-1.2-.3M153.2 358.9l-1 .3M152.2 359.2l-.9.2M151.3 359.4l-1.2-.2M150.1 359.2l-1-.3M149.1 358.9l-1.2.3M147.9 359.2l-.9.2M147 359.4l-1.2-.2M145.8 359.2l-1-.3M144.8 358.9l-1 .3M143.8 359.2l-1.2.2M142.6 359.4l-.9-.2M141.7 359.2l-1.2-.3M140.5 358.9l-1 .3M139.5 359.2l-1.2.2M138.3 359.4l-.9-.2M137.4 359.2l-1-.3M136.4 358.9l-1.2.3M135.2 359.2l-1 .2M134.2 359.4l-1.2-.2M133 359.2l-.9-.3M132.1 358.9l-1.2.3M130.9 359.2l-1 .2M129.9 359.4l-.9-.2M129 359.2l-1.2-.3M127.8 358.9l-1 .3M126.8 359.2l-1.2.2M125.6 359.4l-1-.2M125.1 358.9l-1.2.3M123.9 359.2l-.9.5M123 359.7l-.8.7M122.2 360.4H121M121.5 360.4l-.2.9M121.3 361.3l.2 1M121.5 362.3l.3 1.2M121.8 363.5l-.3 1M121.5 364.5l-.2 1.2M121.3 365.7l.2.9M121.5 366.6l.3 1.2M121.8 367.8l-.3 1M121.5 368.8l-.2.9M121.3 369.7l.2 1.2M121.5 370.9l.3 1M121.8 371.9l-.3 1.2M121.3 372.6v1M121.3 373.6l.7.9M122 374.5l.7 1M122.7 375.5v1.2M122.5 376.2l1.2.3M123.7 376.5l.9-.3M124.6 376.2l1.2-.2M125.8 376l1 .2M126.8 376.2l1.2.3M128 376.5l1-.3M129 376.2l.9-.2M129.9 376l1.2.2M131.1 376.2l1 .3M132.1 376.5l1.2-.3M133.3 376.2l.9-.2M134.2 376l1.2.2M135.4 376.2l1 .3M136.4 376.5l1-.3M137.4 376.2l1.2-.2M138.6 376l.9.2M139.5 376.2l1.2.3M140.7 376.5l1-.3M141.7 376.2l1.2-.2M142.9 376l.9.2M143.8 376.2l1 .3M144.8 376.5l1.2-.3M146 376.2l1-.2M147 376l1.2.2M148.2 376.2l.9.3M149.1 376.5l1.2-.3M150.3 376.2l1-.2M151.3 376l.9.2M152.2 376.2l1.2.3M153.4 376.5l1-.3M154.4 376.2l1.2-.2M155.6 376l1 .2M156.6 376.2l1.2.3M157.8 376.5l.9-.3M158.7 376.2l1-.2M159.7 376l1.2.2M160.9 376.2l.9.3M161.8 376.5l1.2-.3M163 376.2l1-.2M164 376l1.2.2M165.2 376.2l1 .3M166.2 376.5l.9-.3M167.1 376.2l1.2-.2M168.3 376l1 .2M169.3 376.2l1.2.3M170.5 376.5l.9-.3M171.4 376.2l1.2-.2M172.6 376l1 .2M173.6 376.2l1 .3M174.6 376.5l1.2-.3M175.8 376.2l.9-.2M176.7 376l1.2.2M177.9 376.2l1 .3M178.9 376.5l1.2-.3M180.1 376.2l.9-.2M181 376l1 .2M182 376.2l1.2.3M183.2 376.5l1-.3M184.2 376.2l1.2-.2M185.4 376l.9.2M186.3 376.2l1.2.3M187.5 376.5l1-.3M188.5 376.2l.9-.2M189.4 376l1.2.2M190.6 376.2l1 .3M191.6 376.5l1.2-.3M192.8 376.2l1-.2M193.8 376l1.2.2M195 376.2l.9.3M195.9 376.5l1-.3M196.9 376.2l1.2-.2M198.1 376l.9.2M199 376.2l1.2.3M200.2 376.5l1-.3M201.2 376.2l1.2-.2M202.4 376l1 .2M203.4 376.2l.9.3M204.3 376.5l1.2-.3M205.5 376.2l1-.2M206.5 376l1.2.2M207.7 376.2l.9.3M208.6 376.5l1.2-.3M209.8 376.2l1-.2M210.8 376l1 .2M211.8 376.2l1.2.3M213 376.5l.9-.3M213.9 376.2l1.2-.2M215.1 376l1 .2M216.1 376.2l1.2.3M217.3 376.5l.9-.3M218.2 376.2l1-.2M219.2 376l1.2.2M220.4 376.2l1 .3M221.4 376.5l1.2-.3M222.6 376.2l.9-.2M223.5 376l1.2.2M224.7 376.2l1 .3M225.7 376.5l.9-.3M226.6 376.2l1.2-.2M227.8 376l1 .2M228.8 376.2l1.2.3M230 376.5l1-.3M231 376.2l1.2-.2M232.2 376l.9.2M233.1 376.2l1 .3M234.1 376.5l1.2-.3M235.3 376.2l.9-.2M236.2 376l1.2.2M237.4 376.2l1 .3M238.4 376.5l1.2-.3M239.6 376.2l1-.2M240.6 376l.9.2M241.5 376.2l1.2.3M242.7 376.5l1-.3M243.7 376.2l1.2-.2M244.9 376l.9.2M245.8 376.2l1.2.3M247 376.5l1-.3M248 376.2l1-.2M249 376l1.2.2M250.2 376.2l.9.3M251.1 376.5l1.2-.3M252.3 376.2l1-.2M253.3 376l1.2.2M254.5 376.2l.9.3M255.4 376.5l1-.3M256.4 376.2l1.2-.2M257.6 376l1 .2M258.6 376.2l1.2.3M259.8 376.5l.9-.3M260.7 376.2l1.2-.2M261.9 376l1 .2M262.9 376.2l.9.3M263.8 376.5l1.2-.3M265 376.2l1-.2M266 376l1.2.2M267.2 376.2l1 .3M268.2 376.5l1.2-.3M269.4 376.2l.9-.2M270.3 376l1 .2M271.3 376.2l1.2.3M272.5 376.5l.9-.3M273.4 376.2l1.2-.2M274.6 376l1 .2M275.6 376.2l1.2.3M276.8 376.5l1-.3M277.8 376.2l.9-.2M278.7 376l1.2.2M279.9 376.2l1 .3M280.9 376.5l1.2-.3M282.1 376.2l.9-.2M283 376l1.2.2M284.2 376.2l1 .3M285.2 376.5l1-.3M286.2 376.2l1.2-.2M287.4 376l.9.2M288.3 376.2l1.2.3M289.5 376.5l1-.3M290.5 376.2l1.2-.2M291.7 376l.9.2M292.6 376.2l1 .3M293.6 376.5l1.2-.3M294.8 376.2l1-.2M295.8 376l1.2.2M297 376.2l.9.3M297.9 376.5l1.2-.3M299.1 376.2l1-.2M300.1 376l.9.2M301 376.2l1.2.3M302.2 376.5l1-.3M303.2 376.2l1.2-.2M304.4 376l1 .2M305.4 376.2l1.2.3M306.6 376.5l.9-.3M307.5 376.2l1-.2M308.5 376l1.2.2M309.7 376.2l.9.3M310.6 376.5l1.2-.3M311.8 376.2l1-.2M312.8 376l1.2.2M314 376.2l1 .3M315 376.5l.9-.3M315.9 376.2l1.2-.2M317.1 376l1 .2M318.1 376.2l1.2.3M319.3 376.5l.9-.3M320.2 376.2l1.2-.2M321.4 376l1 .2"/><g class="cls-20"><path class="cls-17" d="M322.4 376.2l1 .3M323.4 376.5l1.2-.3M324.6 376.2l.9-.2M325.5 376l1.2.2"/></g><path class="cls-18" d="M324.4 377.5H120.1V267.2h-5.7v116h210M4.7 377.5H18V267.2h5.7v116h-19"/><path class="cls-17" d="M3.2 376l1.2.5M4.4 376.5l1-.5M5.4 376l1.2-.3M6.6 375.7l.9.3M7.5 376l1.2.5M8.7 376.5l1-.5M9.7 376l.9-.3M10.6 375.7l1.2.3M11.8 376l1 .5M12.8 376.5l1.2-.5M14 376l1-.3M15 375.7l1.2.3"/><g class="cls-23"><path class="cls-17" d="M16.2 376l.9.5M17.1 376.5l1-.5M18.1 376l1.2-.3M19.3 375.7l.9.3"/></g><g class="cls-26"><path class="cls-17" d="M16.6 376.7l.3-1.2M16.9 375.5l-.3-1M16.6 374.5l-.2-1.2M16.4 373.3l.2-.9"/></g><path class="cls-17" d="M16.6 372.4l.3-1M16.9 371.4l-.3-1.2M16.6 370.2l-.2-.9M16.4 369.3l.2-1.2M16.6 368.1l.3-1M16.9 367.1l-.3-1.2M16.6 365.9l-.2-1M16.4 364.9l.2-.9M16.6 364l.3-1.2M16.9 362.8l-.3-1M16.6 361.8l-.2-1.2M16.4 360.6l.2-.9"/><g class="cls-25"><path class="cls-17" d="M16.6 359.7l.3-1.2M16.9 358.5l-.3-1M16.6 357.5l-.2-1M16.4 356.5l.2-1.2"/></g><g class="cls-24"><path class="cls-17" d="M17.1 359.2l-.9-.5M16.2 358.7l-1.2.5M15 359.2l-1 .2M14 359.4l-1.2-.2"/></g><path class="cls-17" d="M12.8 359.2l-1-.5M11.8 358.7l-.9.5M10.9 359.2l-1.2.2M9.7 359.4l-1-.2M8.7 359.2l-1.2-.5M7.5 358.7l-.9.5M6.6 359.2l-1.2.2M5.4 359.4l-1-.2"/><g class="cls-29"><path class="cls-17" d="M4.4 359.2l-1-.5M3.4 358.7l-1.2.5M2.2 359.2l-.9.2M1.3 359.4l-1.3-.2"/></g><path class="cls-19" d="M38.5 231.5l-1.9 24-7.7-.7 1.9-24 7.7.7zM36.6 255.5v1M37.5 243.5l-7.7-.7M38.5 231.5l.2-1"/><path class="cls-18" d="M259.8 12.1h-40.1"/><path class="cls-6" d="M259.8 12.9h-40.1"/><path class="cls-18" d="M259.8 10.9h-40.1M259.8 12.1h-40.1"/><path class="cls-6" d="M219.7 12.1v.8"/><path class="cls-18" d="M219.7 10.9v1.2M259.8 12.9h-40.1M259.8 10.9h-40.1"/><path class="cls-30" d="M28.4 223.1l-5.5-5.8h16.8l-.5 5.8H28.4"/><path class="cls-22" d="M22.9 217.3l5.5 5.8h10.8l.5-5.8H22.9"/><path class="cls-17" d="M39.2 223.1v-5.8M37.8 223.1v-5.8M36.3 223.1v-5.8M34.9 223.1v-5.8M33.4 223.1v-5.8M32 223.1v-5.8M30.6 223.1v-5.8M29.4 223.1v-5.8M27.9 222.4v-5.1M26.5 220.9v-3.6M25 219.5v-2.2M23.6 218.1v-.8M28.4 223.1h10.8M22.9 217.3h16.8"/><path class="cls-18" d="M22.9 217.3h16.8M28.4 223.1h10.8"/><path class="cls-30" d="M99 223.1l-.5-5.8h16.1l-5.8 5.8H99"/><path class="cls-22" d="M98.5 217.3l.5 5.8h9.8l5.8-5.8H98.5"/><path class="cls-17" d="M114.3 217.8v-.5M112.9 219v-1.7M111.4 220.5v-3.2M110 221.9v-4.6M108.6 223.1v-5.8M107.1 223.1v-5.8M105.7 223.1v-5.8M104.5 223.1v-5.8M103 223.1v-5.8M101.6 223.1v-5.8M100.2 223.1v-5.8M98.7 218.8v-1.5M99 223.1h9.8M98.5 217.3h16.1"/><path class="cls-18" d="M98.5 217.3h16.1M99 223.1h9.8"/><path class="cls-30" d="M15.7 263.2v-5.5h7.2l5.5 5.5H15.7"/><path class="cls-22" d="M15.7 257.7v5.5h12.7l-5.5-5.5h-7.2"/><path class="cls-17" d="M27.9 263.2v-.7M26.5 263.2V261M25 263.2v-3.6M23.6 263.2v-5.1M22.2 263.2v-5.5M20.7 263.2v-5.5M19.3 263.2v-5.5M17.8 263.2v-5.5M16.4 263.2v-5.5M15.7 263.2h12.7M15.7 257.7h7.2"/><path class="cls-18" d="M15.7 257.7h7.2M15.7 263.2h12.7"/><path class="cls-30" d="M22.9 217.3l5.5 5.8v40.1l-5.5-5.5v-40.4"/><path class="cls-22" d="M28.4 223.1l-5.5-5.8v40.4l5.5 5.5v-40.1"/><path class="cls-17" d="M28.4 262.9h.2M27 261.5h1.6M25.5 260.1h3.1M24.1 258.6h4.5M23.1 257.4h5.5M23.1 256h5.5M23.1 254.5h5.5M23.1 253.1h5.5M23.1 251.7h5.5M23.1 250.2h5.5M23.1 248.8h5.5M23.1 247.3h5.5M23.1 245.9h5.5M23.1 244.5h5.5M23.1 243h5.5M23.1 241.8h5.5M23.1 240.4h5.5M23.1 238.9h5.5M23.1 237.5h5.5M23.1 236.1h5.5M23.1 234.6h5.5M23.1 233.2h5.5M23.1 231.7h5.5M23.1 230.3h5.5M23.1 228.9h5.5M23.1 227.7h5.5M23.1 226.2h5.5M23.1 224.8h5.5M23.1 223.3h5.5M23.1 221.9h4.3M23.1 220.5H26M23.1 219h1.5M23.1 217.6h.3M22.9 217.3v40.4M28.4 223.1v40.1"/><path class="cls-18" d="M28.4 223.1v40.1M22.9 217.3v40.4"/><path class="cls-30" d="M114.6 257.7l-5.8 5.5v-40.1l5.8-5.8v40.4"/><path class="cls-22" d="M108.8 263.2l5.8-5.5v-40.4l-5.8 5.8v40.1"/><path class="cls-17" d="M114.8 217.6h-.5M114.8 219h-1.9M114.8 220.5h-3.4M114.8 221.9h-4.6M114.8 223.3H109M114.8 224.8H109M114.8 226.2H109M114.8 227.7H109M114.8 228.9H109M114.8 230.3H109M114.8 231.7H109M114.8 233.2H109M114.8 234.6H109M114.8 236.1H109M114.8 237.5H109M114.8 238.9H109M114.8 240.4H109M114.8 241.8H109M114.8 243H109M114.8 244.5H109M114.8 245.9H109M114.8 247.3H109M114.8 248.8H109M114.8 250.2H109M114.8 251.7H109M114.8 253.1H109M114.8 254.5H109M114.8 256H109M114.8 257.4H109M113.6 258.6H109M112.2 260.1H109M110.7 261.5H109M114.6 257.7v-40.4M108.8 263.2v-40.1"/><path class="cls-18" d="M108.8 263.2v-40.1M114.6 257.7v-40.4"/><path class="cls-30" d="M108.8 263.2l5.8-5.5h6.9v5.5h-12.7"/><path class="cls-22" d="M114.6 257.7l-5.8 5.5h12.7v-5.5h-6.9"/><path class="cls-17" d="M121.3 263.2v-5.5M120.1 263.2v-5.5M118.6 263.2v-5.5M117.2 263.2v-5.5M115.8 263.2v-5.5M114.3 263.2v-5.1M112.9 263.2v-3.9M111.4 263.2v-2.4M110 263.2V262M108.8 263.2h12.7M114.6 257.7h6.9"/><path class="cls-18" d="M114.6 257.7h6.9M108.8 263.2h12.7"/><path class="cls-30" d="M144.6 252.4v14.9h-23.1v-14.9h23.1"/><path class="cls-18" d="M121.8 267.3h23"/><path class="cls-22" d="M144.6 267.3v-3.4h-23.1v3.4h23.1"/><path class="cls-17" d="M122 263.9l3.4 3.4M126.1 263.9l3.3 3.4M130.2 263.9l3.3 3.4M134.2 263.9l3.4 3.4M138.1 263.9l3.3 3.4M142.2 263.9l2.6 2.6"/><path class="cls-22" d="M144.6 263.9v-.7h-23.1v.7h23.1M144.6 263.2v-5.5h-23.1v5.5h23.1"/><path class="cls-17" d="M122.7 257.7v5.5M124.2 257.7v5.5M125.6 257.7v5.5M127 257.7v5.5M128.5 257.7v5.5M129.9 257.7v5.5M131.4 257.7v5.5M132.8 257.7v5.5M134.2 257.7v5.5M135.7 257.7v5.5M136.9 257.7v5.5M138.3 257.7v5.5M139.8 257.7v5.5M141.2 257.7v5.5M142.6 257.7v5.5M144.1 257.7v5.5"/><path class="cls-22" d="M144.6 257.7v-5.3h-23.1v5.3h23.1"/><path class="cls-17" d="M121.8 255.5l2.1 2.2M122.7 252.4l5.3 5.3M126.6 252.4l5.2 5.3M130.6 252.4l5.3 5.3M134.7 252.4l5.3 5.3M138.6 252.4l5.2 5.3M142.6 252.4l2.2 1.9"/><path class="cls-19" d="M144.6 263.9h-23.1M144.6 267.3h-23.1"/><path class="cls-17" d="M144.6 257.7h-23.1M144.6 263.2h-23.1"/><path class="cls-19" d="M144.6 252.4h-23.1M144.6 257.7h-23.1"/><path class="cls-18" d="M144.6 267.3h-23.1M144.6 252.4h-23.1"/><path class="cls-30" d="M236.5 252.4v14.9h-51.1v-14.9h51.1"/><path class="cls-18" d="M185.6 267.3h51.1"/><path class="cls-22" d="M236.5 267.3v-3.4h-51.1v3.4h51.1"/><path class="cls-17" d="M186.3 263.9l3.4 3.4M190.2 263.9l3.3 3.4M194.2 263.9l3.4 3.4M198.3 263.9l3.4 3.4M202.2 263.9l3.3 3.4M206.2 263.9l3.4 3.4M210.3 263.9l3.4 3.4M214.4 263.9l3.4 3.4M218.2 263.9l3.4 3.4M222.3 263.9l3.4 3.4M226.4 263.9l3.4 3.4M230.2 263.9l3.4 3.4M234.3 263.9l2.4 2.2"/><path class="cls-22" d="M236.5 263.9v-.7h-51.1v.7h51.1M236.5 263.2v-5.5h-51.1v5.5h51.1"/><path class="cls-17" d="M186.6 257.7v5.5M188 257.7v5.5M189.4 257.7v5.5M190.9 257.7v5.5M192.3 257.7v5.5M193.8 257.7v5.5M195.2 257.7v5.5M196.4 257.7v5.5M197.8 257.7v5.5M199.3 257.7v5.5M200.7 257.7v5.5M202.2 257.7v5.5M203.6 257.7v5.5M205 257.7v5.5M206.5 257.7v5.5M207.9 257.7v5.5M209.4 257.7v5.5M210.6 257.7v5.5M212 257.7v5.5M213.4 257.7v5.5M214.9 257.7v5.5M216.3 257.7v5.5M217.8 257.7v5.5M219.2 257.7v5.5M220.6 257.7v5.5M222.1 257.7v5.5M223.5 257.7v5.5M225 257.7v5.5M226.2 257.7v5.5M227.6 257.7v5.5M229 257.7v5.5M230.5 257.7v5.5M231.9 257.7v5.5M233.4 257.7v5.5M234.8 257.7v5.5M236.2 257.7v5.5"/><path class="cls-22" d="M236.5 257.7v-5.3h-51.1v5.3h51.1"/><path class="cls-17" d="M185.6 255l2.4 2.7M186.8 252.4l5.3 5.3M190.6 252.4l5.3 5.3M194.7 252.4l5.3 5.3M198.8 252.4l5.3 5.3M202.9 252.4l5.3 5.3M206.7 252.4l5.3 5.3M210.8 252.4l5.3 5.3M214.9 252.4l5.3 5.3M218.7 252.4l5.3 5.3M222.8 252.4l5.3 5.3M226.9 252.4l5.3 5.3M230.7 252.4l5.3 5.3M234.8 252.4l1.9 1.7"/><path class="cls-19" d="M236.5 263.9h-51.1M236.5 267.3h-51.1"/><path class="cls-17" d="M236.5 257.7h-51.1M236.5 263.2h-51.1"/><path class="cls-19" d="M236.5 252.4h-51.1M236.5 257.7h-51.1"/><path class="cls-18" d="M236.5 267.3h-51.1M236.5 252.4h-51.1"/><path class="cls-30" d="M324.6 252.4v14.9h-25v-14.9h25"/><path class="cls-18" d="M299.8 267.3h25"/><path class="cls-22" d="M324.6 267.3v-3.4h-25v3.4h25"/><path class="cls-17" d="M299.8 265.1l2 2.2M302.5 263.9l3.3 3.4M306.6 263.9l3.3 3.4M310.4 263.9l3.4 3.4M314.5 263.9l3.3 3.4M318.6 263.9l3.3 3.4M322.6 263.9l2.2 2.2"/><path class="cls-22" d="M324.6 263.9v-.7h-25v.7h25M324.6 263.2v-5.5h-25v5.5h25"/><path class="cls-17" d="M300.1 257.7v5.5M301.3 257.7v5.5M302.7 257.7v5.5M304.2 257.7v5.5M305.6 257.7v5.5M307 257.7v5.5M308.5 257.7v5.5M309.9 257.7v5.5M311.4 257.7v5.5M312.8 257.7v5.5M314.2 257.7v5.5M315.7 257.7v5.5M316.9 257.7v5.5M318.3 257.7v5.5M319.8 257.7v5.5M321.2 257.7v5.5M322.6 257.7v5.5M324.1 257.7v5.5"/><path class="cls-22" d="M324.6 257.7v-5.3h-25v5.3h25"/><path class="cls-17" d="M299.8 257.2l.5.5M299.8 253.1l4.4 4.6M303 252.4l5.2 5.3M307 252.4l5.3 5.3M311.1 252.4l5.3 5.3M315 252.4l5.2 5.3M319 252.4l5.3 5.3M323.1 252.4l1.7 1.7"/><path class="cls-19" d="M324.6 263.9h-25M324.6 267.3h-25"/><path class="cls-17" d="M324.6 257.7h-25M324.6 263.2h-25"/><path class="cls-19" d="M324.6 252.4h-25M324.6 257.7h-25"/><path class="cls-18" d="M324.6 267.3h-25M324.6 252.4h-25M183.4 259.8v7.5h3.4v1.9h-43.9v-1.9h3.3v-7.5"/><path class="cls-1" d="M185.4 252.4h-40.8"/><path class="cls-18" d="M145 252.4h-.4"/><path class="cls-19" d="M183.4 267.3h3.4M146.2 267.3h-3.3"/><path class="cls-18" d="M144.6 257.7h40.8v2.2h-40.8zM181.5 259.8v-2.1M148.2 259.8v-2.1M185.4 257.7v2.1M166.9 257.7v2.1M181.5 257.7v2.1M162.8 257.7v2.1M166.9 257.7v2.1M148.2 257.7v2.1M162.8 257.7v2.1M144.6 257.7v2.1"/><path class="cls-22" d="M185.3 263.3h-1.9v-3.4h1.9"/><path class="cls-17" d="M183.7 259.8v3.4M185.1 259.8v3.4M185.3 263.3h-1.9v-3.4h1.9"/><path class="cls-19" d="M185.4 257.7v-5.3"/><path class="cls-22" d="M185.4 267.3h-2v-3.4h2"/><path class="cls-17" d="M183.7 265.3l1.9 2"/><path class="cls-19" d="M185.4 267.3h-2v-3.4h2M183.4 263.9v-4.1"/><path class="cls-22" d="M144.4 263.3h1.9v-3.4h-1.9"/><path class="cls-17" d="M145.5 259.8v3.4M144.4 263.3h1.9v-3.4h-1.9"/><path class="cls-19" d="M144.6 257.7v-5.3"/><path class="cls-22" d="M144.6 267.3h1.6v-3.4h-1.6"/><path class="cls-17" d="M144.8 266.5l.7.8M146.2 263.9l.3.2"/><path class="cls-19" d="M144.6 267.3h1.6v-3.4h-1.6M146.2 263.9v-4.1"/><path class="cls-18" d="M297.7 259.8v7.5h3.3v1.9h-66v-1.9h3.4v-7.5"/><path class="cls-1" d="M299.6 252.4h-63.1"/><path class="cls-18" d="M237 252.4h-.5"/><path class="cls-19" d="M297.7 267.3h3.3M238.4 267.3H235"/><path class="cls-18" d="M236.5 257.7h63.1v2.2h-63.1zM295.8 259.8v-2.1M240.3 259.8v-2.1M299.6 257.7v2.1M280.6 257.7v2.1M295.8 257.7v2.1M276.6 257.7v2.1M280.6 257.7v2.1M259.5 257.7v2.1M276.6 257.7v2.1M255.4 257.7v2.1M259.5 257.7v2.1M240.3 257.7v2.1M255.4 257.7v2.1M236.5 257.7v2.1"/><path class="cls-22" d="M299.5 263.3h-1.8v-3.4h1.8"/><path class="cls-17" d="M298.6 259.8v3.4M299.5 263.3h-1.8v-3.4h1.8"/><path class="cls-19" d="M299.6 257.7v-5.3"/><path class="cls-22" d="M299.6 267.3h-1.9v-3.4h1.9"/><path class="cls-17" d="M298.4 263.9l1.4 1.2"/><path class="cls-19" d="M299.6 267.3h-1.9v-3.4h1.9M297.7 263.9v-4.1"/><path class="cls-22" d="M236.6 263.3h1.8v-3.4h-1.8"/><path class="cls-17" d="M237.7 259.8v3.4M236.6 263.3h1.8v-3.4h-1.8"/><path class="cls-19" d="M236.5 257.7v-5.3"/><path class="cls-22" d="M236.5 267.3h1.9v-3.4h-1.9"/><path class="cls-17" d="M236.7 266.1l1 1.2M238.4 263.9l.2.2"/><path class="cls-19" d="M236.5 267.3h1.9v-3.4h-1.9M238.4 263.9v-4.1"/><path class="cls-30" d="M15.7 252.4v14.9H4.6v-14.9h11.1"/><path class="cls-18" d="M4.9 267.3h11"/><path class="cls-22" d="M15.7 267.3v-3.4H4.6v3.4h11.1"/><path class="cls-17" d="M4.9 266.8l.2.5M5.8 263.9l3.4 3.4M9.9 263.9l3.4 3.4M13.8 263.9l2.1 1.9"/><path class="cls-22" d="M15.7 263.9v-.7H4.6v.7h11.1M15.7 263.2v-5.5H4.6v5.5h11.1"/><path class="cls-17" d="M5.1 257.7v5.5M6.6 257.7v5.5M8 257.7v5.5M9.4 257.7v5.5M10.9 257.7v5.5M12.3 257.7v5.5M13.8 257.7v5.5M15.2 257.7v5.5"/><path class="cls-22" d="M15.7 257.7v-5.3H4.6v5.3h11.1"/><path class="cls-17" d="M4.9 254.8l2.6 2.9M6.3 252.4l5.3 5.3M10.4 252.4l5.3 5.3M14.5 252.4l1.4 1.4"/><path class="cls-19" d="M15.7 263.9H4.6M15.7 267.3H4.6"/><path class="cls-17" d="M15.7 257.7H4.6M15.7 263.2H4.6"/><path class="cls-19" d="M15.7 252.4H4.6M15.7 257.7H4.6"/><path class="cls-18" d="M15.7 267.3H4.6M15.7 252.4H4.6M15.7 263.9v-.7M15.7 257.7v5.5M15.7 257.7v-5.3M212.7 109.3h-34.1M212.7 101.7h-34.1M212.7 94h-34.1M212.7 86.3h-34.1M80.5 86.3h34.1M80.5 94h34.1M154.2 148.7l8.1-35.5M114.6 81.3h64.1v33.4h-64.1zM97.5 86.4l3.8 3.8M93.6 90.2l3.9-3.8M173.4 114.6v34.1M165.7 114.6v34.1M158 114.6v34.1M150.3 114.6v34.1M142.6 114.6v34.1M135.2 114.6v34.1M127.5 114.6v34.1M119.8 114.6v34.1"/><path class="cls-18" d="M116 82.5h61.2v30.7H116z"/><path class="cls-1" d="M114.6 148.7H80.5"/><path class="cls-18" d="M81 148.7h-.5"/><path class="cls-1" d="M114.6 155.7H80.5"/><path class="cls-18" d="M81 155.7h-.5M101.4 90.1h-7.7M119.8 131.6l3.8-3.8M123.6 135.4l-3.8-3.8M123.7 127.8v7.7M158.1 131.6l3.8-3.8M161.9 135.4l-3.8-3.8M161.8 127.8v7.7M195.6 109.4l3.8-3.9M191.8 105.5l3.8 3.9M199.5 105.5h-7.7"/><path class="cls-22" d="M114.6 148.7l6.9 7h98.2l-7-7h-98.1"/><path class="cls-17" d="M218.2 155.7l-6.9-7M214.4 155.7l-7-7M210.3 155.7l-6.9-7M206.2 155.7l-6.9-7M202.2 155.7l-7-7M198.3 155.7l-6.9-7M194.2 155.7l-6.9-7M190.2 155.7l-7-7M186.3 155.7l-6.9-7M182.2 155.7l-6.9-7M178.2 155.7l-7-7M174.3 155.7l-6.9-7M170.2 155.7l-6.9-7M166.2 155.7l-7-7M162.1 155.7l-7-7M158.2 155.7l-6.9-7M154.2 155.7l-7-7M150.1 155.7l-7-7M146.2 155.7l-6.9-7M142.2 155.7l-7-7M138.1 155.7l-7-7M134 155.7l-7-7M130.2 155.7l-7-7M126.1 155.7l-7-7M122 155.7l-7-7M216.6 155.7l1.6-1.7M212.5 155.7l3.6-3.6M208.4 155.7l5.8-5.8M204.6 155.7l6.9-7M200.5 155.7l6.9-7M196.4 155.7l7-7M192.6 155.7l6.9-7M188.5 155.7l6.9-7M184.4 155.7l7-7M180.6 155.7l6.9-7M176.5 155.7l6.9-7M172.4 155.7l7-7M168.3 155.7l7-7M164.5 155.7l6.9-7M160.4 155.7l7-7M156.3 155.7l7-7M152.5 155.7l6.9-7M148.4 155.7l7-7M144.3 155.7l7-7M140.5 155.7l6.9-7M136.4 155.7l7-7M132.3 155.7l7-7M128.2 155.7l7-7M124.4 155.7l7-7M121 154.9l6.3-6.2M118.9 153l4.3-4.3M117 151.1l2.4-2.4M115 148.9l.3-.2"/><path class="cls-22" d="M114.6 148.7l6.9 7h98.2l-7-7h-98.1"/><path class="cls-17" d="M218.2 155.7l-6.9-7M214.4 155.7l-7-7M210.3 155.7l-6.9-7M206.2 155.7l-6.9-7M202.2 155.7l-7-7M198.3 155.7l-6.9-7M194.2 155.7l-6.9-7M190.2 155.7l-7-7M186.3 155.7l-6.9-7M182.2 155.7l-6.9-7M178.2 155.7l-7-7M174.3 155.7l-6.9-7M170.2 155.7l-6.9-7M166.2 155.7l-7-7M162.1 155.7l-7-7M158.2 155.7l-6.9-7M154.2 155.7l-7-7M150.1 155.7l-7-7M146.2 155.7l-6.9-7M142.2 155.7l-7-7M138.1 155.7l-7-7M134 155.7l-7-7M130.2 155.7l-7-7M126.1 155.7l-7-7M122 155.7l-7-7M216.6 155.7l1.6-1.7M212.5 155.7l3.6-3.6M208.4 155.7l5.8-5.8M204.6 155.7l6.9-7M200.5 155.7l6.9-7M196.4 155.7l7-7M192.6 155.7l6.9-7M188.5 155.7l6.9-7M184.4 155.7l7-7M180.6 155.7l6.9-7M176.5 155.7l6.9-7M172.4 155.7l7-7M168.3 155.7l7-7M164.5 155.7l6.9-7M160.4 155.7l7-7M156.3 155.7l7-7M152.5 155.7l6.9-7M148.4 155.7l7-7M144.3 155.7l7-7M140.5 155.7l6.9-7M136.4 155.7l7-7M132.3 155.7l7-7M128.2 155.7l7-7M124.4 155.7l7-7M121 154.9l6.3-6.2M118.9 153l4.3-4.3M117 151.1l2.4-2.4M115 148.9l.3-.2"/><path class="cls-19" d="M212.7 148.7h-98.1M219.7 155.7h-98.2M219.7 155.7h-98.2M212.7 148.7h-98.1"/><path class="cls-22" d="M219.7 40l-7 7.2v2.4h7V40"/><path class="cls-17" d="M219.9 40.9l-.5-.4M219.9 45l-2.6-2.6M219.9 48.9l-4.5-4.4M216.6 49.6l-3.2-3.1M218.5 49.6l1.4-1.5M214.4 49.6l5.5-5.5M215.1 44.8l4.8-4.6"/><path class="cls-22" d="M219.7 40l-7 7.2v2.4h7V40"/><path class="cls-17" d="M219.9 40.9l-.5-.4M219.9 45l-2.6-2.6M219.9 48.9l-4.5-4.4M216.6 49.6l-3.2-3.1M218.5 49.6l1.4-1.5M214.4 49.6l5.5-5.5M215.1 44.8l4.8-4.6"/><path class="cls-19" d="M219.7 49.6V40M212.7 49.6v-2.4M212.7 49.6v-2.4M219.7 49.6V40"/><path class="cls-22" d="M219.7 155.7l-7-7V82h7v73.7"/><path class="cls-17" d="M219.9 85.1l-3.1-3.1M219.9 88.9L213 82M219.9 93l-6.9-6.9M219.9 97.1l-6.9-7M219.9 100.9L213 94M219.9 105l-6.9-6.9M219.9 109.1l-6.9-7M219.9 112.9L213 106M219.9 117l-6.9-6.9M219.9 121.1l-6.9-7M219.9 125.2l-6.9-7M219.9 129l-6.9-6.9M219.9 133.1l-6.9-7M219.9 137.2l-6.9-7M219.9 141l-6.9-6.9M219.9 145.1l-6.9-7M219.9 149.2l-6.9-7M219.9 153.3l-6.9-7M218.2 154l1.7-1.7M216.1 152.1l3.8-3.6M214.2 149.9l5.7-5.5M213 147.3l6.9-7M213 143.4l6.9-6.9M213 139.3l6.9-6.9M213 135.3l6.9-7M213 131.2l6.9-7M213 127.3l6.9-6.9M213 123.3l6.9-7M213 119.2l6.9-7M213 115.3l6.9-6.9M213 111.3l6.9-7M213 107.2l6.9-7M213 103.3l6.9-6.9M213 99.3l6.9-7M213 95.2l6.9-7M213 91.1l6.9-7M213 87.3l5-5.3M213 83.2l1.2-1.2"/><path class="cls-22" d="M212.7 148.7l7 7V82h-7v66.7"/><path class="cls-17" d="M219.9 85.1l-3.1-3.1M219.9 88.9L213 82M219.9 93l-6.9-6.9M219.9 97.1l-6.9-7M219.9 100.9L213 94M219.9 105l-6.9-6.9M219.9 109.1l-6.9-7M219.9 112.9L213 106M219.9 117l-6.9-6.9M219.9 121.1l-6.9-7M219.9 125.2l-6.9-7M219.9 129l-6.9-6.9M219.9 133.1l-6.9-7M219.9 137.2l-6.9-7M219.9 141l-6.9-6.9M219.9 145.1l-6.9-7M219.9 149.2l-6.9-7M219.9 153.3l-6.9-7M218.2 154l1.7-1.7M216.1 152.1l3.8-3.6M214.2 149.9l5.7-5.5M213 147.3l6.9-7M213 143.4l6.9-6.9M213 139.3l6.9-6.9M213 135.3l6.9-7M213 131.2l6.9-7M213 127.3l6.9-6.9M213 123.3l6.9-7M213 119.2l6.9-7M213 115.3l6.9-6.9M213 111.3l6.9-7M213 107.2l6.9-7M213 103.3l6.9-6.9M213 99.3l6.9-7M213 95.2l6.9-7M213 91.1l6.9-7M213 87.3l5-5.3M213 83.2l1.2-1.2"/><path class="cls-19" d="M219.7 155.7V82M212.7 148.7V82M212.7 148.7V82M219.7 155.7V82"/><path class="cls-18" d="M218.5 79.3h1.9v2.6h-1.9zM218.5 49.6h1.9v2.6h-1.9z"/><path class="cls-18" d="M218.5 52.2h1.9v27.1h-1.9zM218.5 79.3V52.2"/><path class="cls-1" d="M212.7 79.8V52"/><path class="cls-18" d="M212.7 52.5V52"/><path class="cls-22" d="M212.7 82v-2.2h5.8V82"/><path class="cls-17" d="M216.8 82l-2.2-2.2M218 82l.7-.5M214.2 82l2.1-2.2"/><path class="cls-22" d="M212.7 49.6V52h5.8v-2.4"/><path class="cls-17" d="M218.7 51.7l-2.1-2.1M214.9 52l-1.9-1.9M216.1 52l2.4-2.4M213 51l1.4-1.4"/><path class="cls-19" d="M212.7 79.8h5.8M212.7 52h5.8M212.7 79.8h5.8M212.7 82v-2.2M212.7 52h5.8M212.7 49.6V52M219.7 82h-1.2M219.7 49.6h-1.2M212.7 82v-2.2M212.7 49.6V52M218.5 79.8V82M218.5 52v-2.4"/><path class="cls-17" d="M220.3 79.4c14.9 0 27.2-12.3 27.2-27.2M220.4 52.2h27.1"/><path class="cls-22" d="M75 145.8l5.5 9.9V80.8L75 91.1v54.7"/><path class="cls-17" d="M80.7 82l-.5-.3M80.7 86.1l-1.9-2M80.7 90.1l-3.3-3.3M80.7 94.2l-4.8-4.8M80.7 98.1l-5.5-5.6M80.7 102.1l-5.5-5.5M80.7 106.2l-5.5-5.5M80.7 110.1l-5.5-5.6M80.7 114.1l-5.5-5.5M80.7 118.2l-5.5-5.5M80.7 122.3l-5.5-5.5M80.7 126.1l-5.5-5.5M80.7 130.2l-5.5-5.5M80.7 134.3l-5.5-5.5M80.7 138.1l-5.5-5.5M80.7 142.2l-5.5-5.5M80.7 146.3l-5.5-5.5M80.7 150.1l-5.5-5.5M80.7 154.2l-1.9-1.7M80.5 155.4l.2-.2M79 152.8l1.7-1.5M77.6 150.4l3.1-3.1M76.2 147.7l4.5-4.5M75.2 144.9l5.5-5.6M75.2 140.8l5.5-5.5M75.2 136.7l5.5-5.5M75.2 132.9l5.5-5.6M75.2 128.8l5.5-5.5M75.2 124.7l5.5-5.5M75.2 120.6l5.5-5.5M75.2 116.8l5.5-5.5M75.2 112.7l5.5-5.5M75.2 108.6l5.5-5.5M75.2 104.8l5.5-5.5M75.2 100.7l5.5-5.5M75.2 96.6l5.5-5.5M75.2 92.8l5.5-5.5M77.8 85.8l2.9-2.6"/><path class="cls-22" d="M75 145.8l5.5 9.9V80.8L75 91.1v54.7"/><path class="cls-17" d="M80.7 82l-.5-.3M80.7 86.1l-1.9-2M80.7 90.1l-3.3-3.3M80.7 94.2l-4.8-4.8M80.7 98.1l-5.5-5.6M80.7 102.1l-5.5-5.5M80.7 106.2l-5.5-5.5M80.7 110.1l-5.5-5.6M80.7 114.1l-5.5-5.5M80.7 118.2l-5.5-5.5M80.7 122.3l-5.5-5.5M80.7 126.1l-5.5-5.5M80.7 130.2l-5.5-5.5M80.7 134.3l-5.5-5.5M80.7 138.1l-5.5-5.5M80.7 142.2l-5.5-5.5M80.7 146.3l-5.5-5.5M80.7 150.1l-5.5-5.5M80.7 154.2l-1.9-1.7M80.5 155.4l.2-.2M79 152.8l1.7-1.5M77.6 150.4l3.1-3.1M76.2 147.7l4.5-4.5M75.2 144.9l5.5-5.6M75.2 140.8l5.5-5.5M75.2 136.7l5.5-5.5M75.2 132.9l5.5-5.6M75.2 128.8l5.5-5.5M75.2 124.7l5.5-5.5M75.2 120.6l5.5-5.5M75.2 116.8l5.5-5.5M75.2 112.7l5.5-5.5M75.2 108.6l5.5-5.5M75.2 104.8l5.5-5.5M75.2 100.7l5.5-5.5M75.2 96.6l5.5-5.5M75.2 92.8l5.5-5.5M77.8 85.8l2.9-2.6"/><path class="cls-19" d="M75 91.1v54.7M80.5 80.8v74.9M80.5 80.8v74.9M75 91.1v54.7"/><path class="cls-22" d="M22.4 40l7.2 7.2h144.7V40H22.4"/><path class="cls-17" d="M174.6 43.6l-3.9-3.6M174.1 47.2l-7.2-7.2M170 47.2l-7.2-7.2M165.9 47.2l-7.2-7.2M161.8 47.2l-7.2-7.2M158 47.2l-7.2-7.2M153.9 47.2l-7.2-7.2M149.8 47.2l-7.2-7.2M146 47.2l-7.2-7.2M141.9 47.2l-7.2-7.2M137.8 47.2l-7.2-7.2M133.8 47.2l-7.2-7.2M129.9 47.2l-7.2-7.2M125.8 47.2l-7.2-7.2M121.8 47.2l-7.2-7.2M117.9 47.2l-7.2-7.2M113.8 47.2l-7.2-7.2M109.8 47.2l-7.2-7.2M105.9 47.2L98.7 40M101.8 47.2L94.6 40M97.8 47.2L90.6 40M93.7 47.2L86.5 40M89.8 47.2L82.6 40M85.8 47.2L78.6 40M81.7 47.2L74.5 40M77.8 47.2L70.6 40M73.8 47.2L66.6 40M69.7 47.2L62.5 40M65.8 47.2L58.6 40M61.8 47.2L54.6 40M57.7 47.2L50.5 40M53.6 47.2L46.4 40M49.8 47.2L42.6 40M45.7 47.2L38.5 40M41.6 47.2L34.4 40M37.8 47.2L30.6 40M33.7 47.2L26.5 40M172.6 47.2l2-1.7M168.6 47.2l6-5.8M164.7 47.2l7.2-7.2M160.6 47.2l7.2-7.2M156.6 47.2l7.2-7.2M152.7 47.2l7.2-7.2M148.6 47.2l7.2-7.2M144.6 47.2l7.2-7.2M140.7 47.2l7.2-7.2M136.6 47.2l7.2-7.2M132.6 47.2l7.2-7.2M128.5 47.2l7.2-7.2M124.6 47.2l7.2-7.2M120.6 47.2l7.2-7.2M116.5 47.2l7.2-7.2M112.6 47.2l7.2-7.2M108.6 47.2l7.2-7.2M104.5 47.2l7.2-7.2M100.4 47.2l7.2-7.2M96.6 47.2l7.2-7.2M92.5 47.2l7.2-7.2M88.4 47.2l7.2-7.2M84.6 47.2l7.2-7.2M80.5 47.2l7.2-7.2M76.4 47.2l7.2-7.2M72.6 47.2l7.2-7.2M68.5 47.2l7.2-7.2M64.4 47.2l7.2-7.2M60.3 47.2l7.2-7.2M56.5 47.2l7.2-7.2M52.4 47.2l7.2-7.2M48.3 47.2l7.2-7.2M44.5 47.2l7.2-7.2M40.4 47.2l7.2-7.2M36.3 47.2l7.2-7.2M32.5 47.2l7.2-7.2M29.1 46.5l6.5-6.5M27 44.5l4.5-4.5M25 42.4l2.4-2.4M23.1 40.5l.5-.5"/><path class="cls-22" d="M22.4 40l7.2 7.2h144.7V40H22.4"/><path class="cls-17" d="M174.6 43.6l-3.9-3.6M174.1 47.2l-7.2-7.2M170 47.2l-7.2-7.2M165.9 47.2l-7.2-7.2M161.8 47.2l-7.2-7.2M158 47.2l-7.2-7.2M153.9 47.2l-7.2-7.2M149.8 47.2l-7.2-7.2M146 47.2l-7.2-7.2M141.9 47.2l-7.2-7.2M137.8 47.2l-7.2-7.2M133.8 47.2l-7.2-7.2M129.9 47.2l-7.2-7.2M125.8 47.2l-7.2-7.2M121.8 47.2l-7.2-7.2M117.9 47.2l-7.2-7.2M113.8 47.2l-7.2-7.2M109.8 47.2l-7.2-7.2M105.9 47.2L98.7 40M101.8 47.2L94.6 40M97.8 47.2L90.6 40M93.7 47.2L86.5 40M89.8 47.2L82.6 40M85.8 47.2L78.6 40M81.7 47.2L74.5 40M77.8 47.2L70.6 40M73.8 47.2L66.6 40M69.7 47.2L62.5 40M65.8 47.2L58.6 40M61.8 47.2L54.6 40M57.7 47.2L50.5 40M53.6 47.2L46.4 40M49.8 47.2L42.6 40M45.7 47.2L38.5 40M41.6 47.2L34.4 40M37.8 47.2L30.6 40M33.7 47.2L26.5 40M172.6 47.2l2-1.7M168.6 47.2l6-5.8M164.7 47.2l7.2-7.2M160.6 47.2l7.2-7.2M156.6 47.2l7.2-7.2M152.7 47.2l7.2-7.2M148.6 47.2l7.2-7.2M144.6 47.2l7.2-7.2M140.7 47.2l7.2-7.2M136.6 47.2l7.2-7.2M132.6 47.2l7.2-7.2M128.5 47.2l7.2-7.2M124.6 47.2l7.2-7.2M120.6 47.2l7.2-7.2M116.5 47.2l7.2-7.2M112.6 47.2l7.2-7.2M108.6 47.2l7.2-7.2M104.5 47.2l7.2-7.2M100.4 47.2l7.2-7.2M96.6 47.2l7.2-7.2M92.5 47.2l7.2-7.2M88.4 47.2l7.2-7.2M84.6 47.2l7.2-7.2M80.5 47.2l7.2-7.2M76.4 47.2l7.2-7.2M72.6 47.2l7.2-7.2M68.5 47.2l7.2-7.2M64.4 47.2l7.2-7.2M60.3 47.2l7.2-7.2M56.5 47.2l7.2-7.2M52.4 47.2l7.2-7.2M48.3 47.2l7.2-7.2M44.5 47.2l7.2-7.2M40.4 47.2l7.2-7.2M36.3 47.2l7.2-7.2M32.5 47.2l7.2-7.2M29.1 46.5l6.5-6.5M27 44.5l4.5-4.5M25 42.4l2.4-2.4M23.1 40.5l.5-.5"/><path class="cls-19" d="M174.3 40H22.4M174.3 47.2H29.6M174.3 47.2H29.6M174.3 40H22.4"/><path class="cls-22" d="M210.1 47.2h2.6l7-7.2h-9.6v7.2"/><path class="cls-17" d="M219.4 40.5l-.4-.5M217.3 42.4l-2.4-2.4M215.4 44.5l-4.6-4.5M213.4 46.5l-3.1-3.2M212.7 47.2l2.4-2.4M210.3 45.7l5.5-5.7M210.3 41.7L212 40"/><path class="cls-22" d="M210.1 47.2h2.6l7-7.2h-9.6v7.2"/><path class="cls-17" d="M219.4 40.5l-.4-.5M217.3 42.4l-2.4-2.4M215.4 44.5l-4.6-4.5M213.4 46.5l-3.1-3.2M212.7 47.2l2.4-2.4M210.3 45.7l5.5-5.7M210.3 41.7L212 40"/><path class="cls-19" d="M212.7 47.2h-2.6M212.7 47.2h-2.6"/><path class="cls-18" d="M207.4 39.5h2.6v1.7h-2.6zM174.3 39.5h6v1.7h-6zM180.3 39.5h27.1v1.7h-27.1zM207.4 41.2h-27.1"/><path class="cls-1" d="M207.9 47.2h-27.8"/><path class="cls-18" d="M180.6 47.2h-.5"/><path class="cls-22" d="M210.1 47.2h-2.2v-6h2.2"/><path class="cls-17" d="M210.3 43.3l-2.1-2.1M210.1 47.2l-1.9-1.9M208.6 47.2l1.7-1.5M208.2 43.8l2.1-2.1"/><path class="cls-22" d="M174.3 47.2h5.8v-6h-5.8"/><path class="cls-17" d="M180.3 41.4l-.2-.2M180.3 45.5l-4.3-4.3M177.9 47.2l-3.3-3.6M176.7 47.2l3.6-3.6M174.6 45.5l4-4.3M174.6 41.4v-.2"/><path class="cls-19" d="M207.9 47.2v-6M180.1 47.2v-6M207.9 47.2v-6M210.1 47.2h-2.2M180.1 47.2v-6M174.3 47.2h5.8M210.1 40v1.2M174.3 40v1.2M210.1 47.2h-2.2M174.3 47.2h5.8M207.9 41.2h2.2M180.1 41.2h-5.8"/><path class="cls-22" d="M11.6 155.7l-7.2-7v70.6l7.2-7v-56.6"/><path class="cls-17" d="M11.8 157.6l-7.2-7.2M11.8 161.7l-7.2-7.2M11.8 165.5l-7.2-7.2M11.8 169.6l-7.2-7.2M11.8 173.7l-7.2-7.2M11.8 177.5l-7.2-7.2M11.8 181.6l-7.2-7.2M11.8 185.7l-7.2-7.2M11.8 189.5l-7.2-7.2M11.8 193.6l-7.2-7.2M11.8 197.7l-7.2-7.2M11.8 201.7l-7.2-7.2M11.8 205.6l-7.2-7.2M11.8 209.7l-7.2-7.2M11.1 213l-6.5-6.5M9 214.9l-4.4-4.5M7 216.9l-2.4-2.4M4.9 218.8l-.3-.3M7 216.9l4.8-4.8M4.6 215.4l7.2-7.2M4.6 211.3l7.2-7.2M4.6 207.3l7.2-7.2M4.6 203.4l7.2-7.2M4.6 199.3l7.2-7.2M4.6 195.3l7.2-7.2M4.6 191.2l7.2-7.2M4.6 187.3l7.2-7.2M4.6 183.3l7.2-7.2M4.6 179.2l7.2-7.2M4.6 175.3l7.2-7.2M4.6 171.3l7.2-7.2M4.6 167.2l7.2-7.2M4.6 163.3l7.2-7.2M4.6 159.3l5.3-5.3M4.6 155.2l3.2-3.4M4.6 151.1l1.2-1.2"/><path class="cls-22" d="M11.6 155.7l-7.2-7v70.6l7.2-7v-56.6"/><path class="cls-17" d="M11.8 157.6l-7.2-7.2M11.8 161.7l-7.2-7.2M11.8 165.5l-7.2-7.2M11.8 169.6l-7.2-7.2M11.8 173.7l-7.2-7.2M11.8 177.5l-7.2-7.2M11.8 181.6l-7.2-7.2M11.8 185.7l-7.2-7.2M11.8 189.5l-7.2-7.2M11.8 193.6l-7.2-7.2M11.8 197.7l-7.2-7.2M11.8 201.7l-7.2-7.2M11.8 205.6l-7.2-7.2M11.8 209.7l-7.2-7.2M11.1 213l-6.5-6.5M9 214.9l-4.4-4.5M7 216.9l-2.4-2.4M4.9 218.8l-.3-.3M7 216.9l4.8-4.8M4.6 215.4l7.2-7.2M4.6 211.3l7.2-7.2M4.6 207.3l7.2-7.2M4.6 203.4l7.2-7.2M4.6 199.3l7.2-7.2M4.6 195.3l7.2-7.2M4.6 191.2l7.2-7.2M4.6 187.3l7.2-7.2M4.6 183.3l7.2-7.2M4.6 179.2l7.2-7.2M4.6 175.3l7.2-7.2M4.6 171.3l7.2-7.2M4.6 167.2l7.2-7.2M4.6 163.3l7.2-7.2M4.6 159.3l5.3-5.3M4.6 155.2l3.2-3.4M4.6 151.1l1.2-1.2"/><path class="cls-19" d="M11.6 212.3v-56.6M4.4 219.3v-70.6M4.4 219.3v-70.6M11.6 212.3v-56.6"/><path class="cls-22" d="M121.5 155.7l-6.9-7v109h6.9v-102"/><path class="cls-17" d="M121.8 159.3l-7-7M121.8 163.3l-7-6.9M121.8 167.2l-7-7M121.8 171.3l-7-7M121.8 175.3l-7-6.9M121.8 179.2l-7-7M121.8 183.3l-7-7M121.8 187.3l-7-6.9M121.8 191.2l-7-7M121.8 195.3l-7-7M121.8 199.3l-7-6.9M121.8 203.4l-7-6.9M121.8 207.3l-7-7M121.8 211.3l-7-6.9M121.8 215.4l-7-6.9M121.8 219.3l-7-7M121.8 223.3l-7-6.9M121.8 227.4l-7-6.9M121.8 231.3l-7-7M121.8 235.3l-7-6.9M121.8 239.4l-7-6.9M121.8 243.5l-7-7M121.8 247.3l-7-6.9M121.8 251.4l-7-6.9M121.8 255.5l-7-7M119.8 257.7l-5-5.3M115.8 257.7l-1-1.2M118.6 257.7l3.2-3.2M114.8 257.4l7-6.9M114.8 253.6l7-7M114.8 249.5l7-7M114.8 245.4l7-6.9M114.8 241.6l7-7M114.8 237.5l7-7M114.8 233.4l7-6.9M114.8 229.3l7-6.9M114.8 225.5l7-7M114.8 221.4l7-6.9M114.8 217.3l7-6.9M114.8 213.5l7-7M114.8 209.4l7-6.9M114.8 205.3l7-6.9M114.8 201.5l7-7M114.8 197.4l7-6.9M114.8 193.3l7-6.9M114.8 189.3l7-7M114.8 185.4l7-6.9M114.8 181.3l7-6.9M114.8 177.3l7-7M114.8 173.4l7-6.9M114.8 169.3l7-6.9M114.8 165.3l7-7M114.8 161.2l6.2-6.3M114.8 157.3l4.1-4.3M114.8 153.3l2.2-2.2M114.8 149.2l.2-.3"/><path class="cls-22" d="M121.5 155.7l-6.9-7v109h6.9v-102"/><path class="cls-17" d="M121.8 159.3l-7-7M121.8 163.3l-7-6.9M121.8 167.2l-7-7M121.8 171.3l-7-7M121.8 175.3l-7-6.9M121.8 179.2l-7-7M121.8 183.3l-7-7M121.8 187.3l-7-6.9M121.8 191.2l-7-7M121.8 195.3l-7-7M121.8 199.3l-7-6.9M121.8 203.4l-7-6.9M121.8 207.3l-7-7M121.8 211.3l-7-6.9M121.8 215.4l-7-6.9M121.8 219.3l-7-7M121.8 223.3l-7-6.9M121.8 227.4l-7-6.9M121.8 231.3l-7-7M121.8 235.3l-7-6.9M121.8 239.4l-7-6.9M121.8 243.5l-7-7M121.8 247.3l-7-6.9M121.8 251.4l-7-6.9M121.8 255.5l-7-7M119.8 257.7l-5-5.3M115.8 257.7l-1-1.2M118.6 257.7l3.2-3.2M114.8 257.4l7-6.9M114.8 253.6l7-7M114.8 249.5l7-7M114.8 245.4l7-6.9M114.8 241.6l7-7M114.8 237.5l7-7M114.8 233.4l7-6.9M114.8 229.3l7-6.9M114.8 225.5l7-7M114.8 221.4l7-6.9M114.8 217.3l7-6.9M114.8 213.5l7-7M114.8 209.4l7-6.9M114.8 205.3l7-6.9M114.8 201.5l7-7M114.8 197.4l7-6.9M114.8 193.3l7-6.9M114.8 189.3l7-7M114.8 185.4l7-6.9M114.8 181.3l7-6.9M114.8 177.3l7-7M114.8 173.4l7-6.9M114.8 169.3l7-6.9M114.8 165.3l7-7M114.8 161.2l6.2-6.3M114.8 157.3l4.1-4.3M114.8 153.3l2.2-2.2M114.8 149.2l.2-.3"/><path class="cls-19" d="M121.5 257.7v-102M114.6 212.3v-63.6M114.6 257.7v-40.4M114.6 212.3v-63.6M121.5 257.7v-102M114.6 257.7v-40.4M121.5 257.7h-6.9"/><path class="cls-22" d="M29.6 145.8l-7.2 9.9h7.2v-9.9"/><path class="cls-17" d="M29.8 147.5l-.7-.7M29.8 151.6l-2.4-2.4M29.8 155.4l-4.3-4.1M26 155.7l-2.2-2M28.2 155.7l1.6-1.7M24.1 155.7l5.7-5.6M29.1 146.5l.7-.4"/><path class="cls-22" d="M29.6 145.8l-7.2 9.9h7.2v-9.9"/><path class="cls-17" d="M29.8 147.5l-.7-.7M29.8 151.6l-2.4-2.4M29.8 155.4l-4.3-4.1M26 155.7l-2.2-2M28.2 155.7l1.6-1.7M24.1 155.7l5.7-5.6M29.1 146.5l.7-.4"/><path class="cls-19" d="M29.6 155.7h-7.2M29.6 155.7h-7.2"/><path class="cls-22" d="M65.1 155.7h15.4l-5.5-9.9h-9.9v9.9"/><path class="cls-17" d="M78.8 152.5l-6.7-6.7M78.1 155.7l-9.9-9.9M74 155.7l-8.6-8.7M69.9 155.7l-4.5-4.8M66.1 155.7l-.7-.8M80.2 155.7l.3-.3M76.2 155.7l2.8-2.9M72.3 155.7l5.3-5.3M68.2 155.7l8-8M65.4 154.7l8.6-8.9M65.4 150.6l4.5-4.8M65.4 146.5l.7-.7"/><path class="cls-22" d="M65.1 155.7h15.4l-5.5-9.9h-9.9v9.9"/><path class="cls-17" d="M78.8 152.5l-6.7-6.7M78.1 155.7l-9.9-9.9M74 155.7l-8.6-8.7M69.9 155.7l-4.5-4.8M66.1 155.7l-.7-.8M80.2 155.7l.3-.3M76.2 155.7l2.8-2.9M72.3 155.7l5.3-5.3M68.2 155.7l8-8M65.4 154.7l8.6-8.9M65.4 150.6l4.5-4.8M65.4 146.5l.7-.7"/><path class="cls-19" d="M75 145.8h-9.9M80.5 155.7H65.1M80.5 155.7H65.1M75 145.8h-9.9"/><path class="cls-18" d="M62 147.3H32.7"/><path class="cls-1" d="M62 155.7H32.7"/><path class="cls-18" d="M33.2 155.7h-.5"/><path class="cls-22" d="M65.1 155.7H62v-8.4h3.1"/><path class="cls-17" d="M65.4 150.9l-3.2-3.2M65.4 154.9l-3.2-3.1M64.2 155.7l1.2-1M62.2 153.7l3.2-3.1M62.2 149.7l2.4-2.4"/><path class="cls-22" d="M29.6 155.7h3.1v-8.4h-3.1"/><path class="cls-17" d="M33 150.6l-3.2-3.1M33 154.7l-3.2-3.1M29.8 155.7v-.3M32.2 155.7l.8-.8M29.8 154l3.2-3.1M29.8 150.1l2.7-2.8"/><path class="cls-19" d="M62 155.7v-8.4M32.7 155.7v-8.4M62 155.7v-8.4M65.1 155.7H62M32.7 155.7v-8.4M29.6 155.7h3.1M65.1 145.8v1.5M29.6 145.8v1.5M65.1 155.7H62M29.6 155.7h3.1M62 147.3h3.1M32.7 147.3h-3.1M32.2 98.5H62v39.6H32.2z"/><path class="cls-18" d="M30.6 147.3h35.5M48.8 144.1H34.9M61.5 141.3H47.8M30.6 89.7h35.5M48.8 92.5H34.9M61.5 95.7H47.8"/><path class="cls-30" d="M35.8 267.3l-3.1-3.4h-17v3.4h20.1"/><path class="cls-18" d="M15.9 267.3h19.9"/><path class="cls-22" d="M35.8 267.3l-3.1-3.4h-17v3.4h20.1"/><path class="cls-17" d="M15.9 265.8l1.2 1.5M17.8 263.9l3.4 3.4M21.9 263.9l3.4 3.4M26 263.9l3.4 3.4M29.8 263.9l3.4 3.4"/><path class="cls-19" d="M15.7 267.3h20.1M15.7 263.9h17"/><path class="cls-18" d="M15.7 263.9h17M15.7 267.3h20.1"/><path class="cls-19" d="M15.7 263.9"/><path class="cls-22" d="M114.6 217.3v-5H98v5h16.6"/><path class="cls-17" d="M114.8 212.3h-.2M114.8 216.4l-4.3-4.1M111.7 217.3l-5.1-5M107.6 217.3l-5-5M103.5 217.3l-5-5M99.7 217.3l-1.5-1.4M110.7 217.3l4.1-3.8M106.6 217.3l5.1-5M102.8 217.3l5-5M98.7 217.3l5.1-5M98.2 214l1.5-1.7"/><path class="cls-22" d="M114.6 217.3v-5H98v5h16.6"/><path class="cls-17" d="M114.8 212.3h-.2M114.8 216.4l-4.3-4.1M111.7 217.3l-5.1-5M107.6 217.3l-5-5M103.5 217.3l-5-5M99.7 217.3l-1.5-1.4M110.7 217.3l4.1-3.8M106.6 217.3l5.1-5M102.8 217.3l5-5M98.7 217.3l5.1-5M98.2 214l1.5-1.7"/><path class="cls-19" d="M98 217.3h16.6M98 212.3h16.6M98 212.3h16.6M98 217.3h16.6"/><path class="cls-22" d="M40.2 212.3H22.9v5h17.3v-5"/><path class="cls-17" d="M40.4 214.2l-1.9-1.9M39.4 217.3l-5-5M35.4 217.3l-5.1-5M31.5 217.3l-5-5M27.4 217.3l-4.3-4.3M23.4 217.3l-.3-.4M38.5 217.3l1.9-1.6M34.6 217.3l5.1-5M30.6 217.3l5-5M26.5 217.3l5-5M23.1 216.9l4.6-4.6M23.1 212.8l.5-.5"/><path class="cls-22" d="M40.2 212.3H22.9v5h17.3v-5"/><path class="cls-17" d="M40.4 214.2l-1.9-1.9M39.4 217.3l-5-5M35.4 217.3l-5.1-5M31.5 217.3l-5-5M27.4 217.3l-4.3-4.3M23.4 217.3l-.3-.4M38.5 217.3l1.9-1.6M34.6 217.3l5.1-5M30.6 217.3l5-5M26.5 217.3l5-5M23.1 216.9l4.6-4.6M23.1 212.8l.5-.5"/><path class="cls-19" d="M22.9 217.3h17.3M22.9 212.3h17.3M22.9 212.3h17.3M22.9 217.3h17.3"/><path class="cls-1" d="M40.2 217.3H98"/><path class="cls-18" d="M97.5 217.3h.5"/><path class="cls-1" d="M40.2 217.3v-5"/><path class="cls-18" d="M40.2 212.8v-.5"/><path class="cls-1" d="M40.2 212.3H98"/><path class="cls-18" d="M97.5 212.3h.5"/><path class="cls-9" d="M98 212.3v5"/><path class="cls-18" d="M98 216.9v.4M39.4 217.3h59.3v2.2H39.4zM43 217.3v2.2M94.9 217.3v2.2M39.4 219.5v-2.2M67 219.5v-2.2M43 219.5v-2.2M71.1 219.5v-2.2M67 219.5v-2.2M94.9 219.5v-2.2M71.1 219.5v-2.2M98.7 219.5v-2.2"/><path class="cls-19" d="M40.2 217.3h-.8M98 217.3h.7M40.2 217.3v-5M98 217.3v-5M40.2 217.3v-5M98 217.3v-5M98 217.3h.7M40.2 217.3h-.8"/><path class="cls-30" d="M32.7 263.9l3.1 3.4.8-10.8-3.4-.3-.5 7.7"/><path class="cls-18" d="M35.8 267.3h.3"/><path class="cls-22" d="M32.7 263.9l3.1 3.4.8-10.8-3.4-.3-.5 7.7"/><path class="cls-17" d="M33 262.9l3.1 3.2M33.2 259.1l3.1 3.1M34.4 256.2l2.2 2.4"/><path class="cls-19" d="M33.2 256.2l-.5 7.7M36.6 256.5l-.8 10.8"/><path class="cls-18" d="M36.6 256.5l-.8 10.8M33.2 256.2l-.5 7.7"/><path class="cls-30" d="M35.8 223.1l3.4.2-.5 7.2-3.6-.2.7-7.2"/><path class="cls-22" d="M39.2 223.3l-3.4-.2-.7 7.2 3.6.2.5-7.2"/><path class="cls-17" d="M35.4 229.3l1.2 1M35.6 225.5l3.4 3.4M37.3 223.1l1.9 1.9"/><path class="cls-19" d="M35.8 223.1l-.7 7.2M39.2 223.3l-.5 7.2"/><path class="cls-18" d="M39.2 223.3l-.5 7.2M35.8 223.1l-.7 7.2"/><path class="cls-19" d="M35.8 223.1l3.4.2"/><path class="cls-30" d="M38.7 230.5l-3.6-.2 3.6.2M33.2 256.2l3.4.3-3.4-.3M36.6 256.5l-3.4-.3 3.4.3M35.1 230.3l3.6.2-3.6-.2M38.7 230.5l-3.6-.2 3.6.2M33.2 256.2l3.4.3-3.4-.3M36.6 256.5l-3.4-.3 3.4.3M35.1 230.3l3.6.2-3.6-.2M38.7 230.5l-3.6-.2 3.6.2M33.2 256.2l3.4.3-3.4-.3M36.6 256.5l-3.4-.3 3.4.3M35.1 230.3l3.6.2-3.6-.2M38.7 230.5l-3.6-.2 3.6.2M33.2 256.2l3.4.3-3.4-.3M36.6 256.5l-3.4-.3 3.4.3M35.1 230.3l3.6.2-3.6-.2M38.7 230.5l-3.6-.2 3.6.2M33.2 256.2l3.4.3-3.4-.3"/><path class="cls-22" d="M38.7 230.5l-3.6-.2 3.6.2"/><path class="cls-17" d="M36.6 230.3"/><path class="cls-22" d="M33.2 256.2l3.4.3-3.4-.3"/><path class="cls-17" d="M34.4 256.2"/><path class="cls-19" d="M36.6 256.5l-3.4-.3M36.6 256.5l-3.4-.3M35.1 230.3l3.6.2M35.1 230.3l3.6.2M35.1 230.3"/><path class="cls-18" d="M36.6 256.5l-3.4-.3M36.6 256.5l-3.4-.3M35.1 230.3l3.6.2"/><path class="cls-19" d="M35.1 230.3"/><path class="cls-30" d="M102.8 230.3l-3.4.2-.4-7.2 3.3-.2.5 7.2"/><path class="cls-22" d="M99.4 230.5l3.4-.2-.5-7.2-3.3.2.4 7.2"/><path class="cls-17" d="M99.4 229.3l1.2 1.2M99.2 225l3.6 3.6M101.4 223.1l1.2 1.2"/><path class="cls-19" d="M102.8 230.3l-.5-7.2M99.4 230.5l-.4-7.2M102.3 223.1l-3.3.2"/><path class="cls-18" d="M99.4 230.5l-.4-7.2M102.8 230.3l-.5-7.2"/><path class="cls-30" d="M105.4 263.9l-3.1 3.4-.7-10.8 3.4-.3.4 7.7"/><path class="cls-18" d="M102.3 267.3h.3"/><path class="cls-22" d="M102.3 267.3l3.1-3.4-.4-7.7-3.4.3.7 10.8"/><path class="cls-17" d="M102.3 264.1l1.5 1.7M101.8 259.8l3.6 3.6M102.6 256.5l2.6 2.6"/><path class="cls-19" d="M105.4 263.9l-.4-7.7M102.3 267.3l-.7-10.8"/><path class="cls-18" d="M102.3 267.3l-.7-10.8M105.4 263.9l-.4-7.7"/><path class="cls-30" d="M101.6 256.5l3.4-.3-3.4.3M102.8 230.3l-3.4.2 3.4-.2M99.4 230.5l3.4-.2-3.4.2M105 256.2l-3.4.3 3.4-.3M101.6 256.5l3.4-.3-3.4.3M102.8 230.3l-3.4.2 3.4-.2M99.4 230.5l3.4-.2-3.4.2M105 256.2l-3.4.3 3.4-.3M101.6 256.5l3.4-.3-3.4.3M102.8 230.3l-3.4.2 3.4-.2M99.4 230.5l3.4-.2-3.4.2M105 256.2l-3.4.3 3.4-.3M101.6 256.5l3.4-.3-3.4.3M102.8 230.3l-3.4.2 3.4-.2M99.4 230.5l3.4-.2-3.4.2M105 256.2l-3.4.3 3.4-.3M101.6 256.5l3.4-.3-3.4.3M102.8 230.3l-3.4.2 3.4-.2"/><path class="cls-22" d="M101.6 256.5l3.4-.3-3.4.3"/><path class="cls-17" d="M102.6 256.5"/><path class="cls-22" d="M102.8 230.3l-3.4.2 3.4-.2"/><path class="cls-17" d="M100.6 230.5"/><path class="cls-19" d="M99.4 230.5l3.4-.2M99.4 230.5l3.4-.2M105 256.2l-3.4.3M105 256.2l-3.4.3M105 256.2"/><path class="cls-18" d="M99.4 230.5l3.4-.2M99.4 230.5l3.4-.2M105 256.2l-3.4.3"/><path class="cls-19" d="M105 256.2"/><path class="cls-30" d="M102.3 267.3l3.1-3.4h16.1v3.4h-19.2"/><path class="cls-18" d="M102.6 267.3h19.2"/><path class="cls-22" d="M105.4 263.9l-3.1 3.4h19.2v-3.4h-16.1"/><path class="cls-17" d="M103.8 265.8l1.6 1.5M106.2 263.9l3.3 3.4M110 263.9l3.4 3.4M114.1 263.9l3.3 3.4M118.2 263.9l3.3 3.4"/><path class="cls-19" d="M102.3 267.3h19.2M105.4 263.9h16.1"/><path class="cls-18" d="M105.4 263.9h16.1M102.3 267.3h19.2"/><path class="cls-22" d="M22.9 212.3l-7.2 7v28l7.2 10.4v-45.4"/><path class="cls-17" d="M23.1 213l-.5-.5M23.1 216.9l-2.4-2.4M23.1 220.9l-4.5-4.3M23.1 225l-6.5-6.5M23.1 228.9l-7.2-7.2M23.1 232.9l-7.2-7.2M23.1 237l-7.2-7.2M23.1 240.9l-7.2-7.2M23.1 244.9l-7.2-7.2M23.1 249l-7.2-7.2M23.1 253.1l-7.2-7.2M23.1 256.9l-1.7-1.4M22.6 257.2l.5-.3M21 255l2.1-2.1M19.5 252.6l3.6-3.6M17.8 250.2l5.3-5.3M16.2 247.8l6.9-6.9M15.9 244.2l7.2-7.2M15.9 240.1l7.2-7.2M15.9 236.1l7.2-7.2M15.9 232.2l7.2-7.2M15.9 228.1l7.2-7.2M15.9 224.1l7.2-7.2M15.9 220l7.2-7.2"/><path class="cls-22" d="M22.9 212.3l-7.2 7v28l7.2 10.4v-45.4"/><path class="cls-17" d="M23.1 213l-.5-.5M23.1 216.9l-2.4-2.4M23.1 220.9l-4.5-4.3M23.1 225l-6.5-6.5M23.1 228.9l-7.2-7.2M23.1 232.9l-7.2-7.2M23.1 237l-7.2-7.2M23.1 240.9l-7.2-7.2M23.1 244.9l-7.2-7.2M23.1 249l-7.2-7.2M23.1 253.1l-7.2-7.2M23.1 256.9l-1.7-1.4M22.6 257.2l.5-.3M21 255l2.1-2.1M19.5 252.6l3.6-3.6M17.8 250.2l5.3-5.3M16.2 247.8l6.9-6.9M15.9 244.2l7.2-7.2M15.9 240.1l7.2-7.2M15.9 236.1l7.2-7.2M15.9 232.2l7.2-7.2M15.9 228.1l7.2-7.2M15.9 224.1l7.2-7.2M15.9 220l7.2-7.2"/><path class="cls-19" d="M22.9 257.7v-40.4M15.7 247.3v-28M15.7 247.3v-28M22.9 257.7v-40.4"/><path class="cls-22" d="M11.6 212.3l-7.2 7h11.3l7.2-7H11.6"/><path class="cls-17" d="M22.6 212.5l-.2-.2M20.7 214.5l-2.4-2.2M18.6 216.6l-4.1-4.3M16.6 218.5l-5.5-5.5M13.3 219.3L9 214.9M9.2 219.3L7 216.9M5.4 219.3l-.5-.5M12.6 219.3l6.9-7M8.7 219.3l7-7M4.6 219.3l2.4-2.4"/><path class="cls-22" d="M11.6 212.3l-7.2 7h11.3l7.2-7H11.6"/><path class="cls-17" d="M22.6 212.5l-.2-.2M20.7 214.5l-2.4-2.2M18.6 216.6l-4.1-4.3M16.6 218.5l-5.5-5.5M13.3 219.3L9 214.9M9.2 219.3L7 216.9M5.4 219.3l-.5-.5M12.6 219.3l6.9-7M8.7 219.3l7-7M4.6 219.3l2.4-2.4"/><path class="cls-19" d="M22.9 212.3H11.6M15.7 219.3H4.4M15.7 219.3H4.4M22.9 212.3H11.6"/><path class="cls-1" d="M218.5 267.3l7.7 42.4"/><path class="cls-11" d="M226.2 309.7h83.7"/><path class="cls-15" d="M309.9 309.7l7.7-42.4"/><path class="cls-18" d="M299.6 174.9h17.3v77.5h-17.3zM301.8 251.4h-2.2M301.8 242.8h-2.2M301.8 225.7h-2.2M301.8 208.9h-2.2M301.8 191.9h-2.2M299.6 174.1h17.3v.7h-17.3z"/><path class="cls-18" d="M299.6 157.3h.5v16.8h-.5zM300.1 157.3h15.4v.5h-15.4zM300.1 173.7h15.4v.5h-15.4zM299.6 156.1h.5v1.2h-.5z"/><path class="cls-18" d="M315.4 157.3h.5v16.8h-.5z"/><path class="cls-22" d="M311.8 192.8h-9.3c-.1 0-.3 0-.4.1-.1 0-.2.1-.3.2-.1 0-.2.2-.3.2 0 0-.2.2-.2.3 0 .1-.1.2-.2.3 0 .1 0 .2-.1.4v12c0 .1 0 .3.1.4 0 .1.1.2.2.3 0 .1.2.2.2.3 0 0 .2.2.3.2.1 0 .2.1.3.2.1 0 .2 0 .4.1H312.2c.1 0 .3 0 .4-.1.1 0 .2-.1.3-.2.1 0 .2-.2.3-.2 0 0 .2-.2.2-.3 0-.1.1-.2.2-.3 0-.1 0-.2.1-.4v-11.6-.4c0-.1 0-.3-.1-.4 0-.1-.1-.2-.2-.3 0-.1-.2-.2-.2-.3 0 0-.2-.2-.3-.2-.1 0-.2-.1-.3-.2-.1 0-.2 0-.4-.1h-.4"/><path class="cls-18" d="M311.8 192.8h-9.3c-.1 0-.3 0-.4.1-.1 0-.2.1-.3.2-.1 0-.2.2-.3.2 0 0-.2.2-.2.3 0 .1-.1.2-.2.3 0 .1 0 .2-.1.4v12c0 .1 0 .3.1.4 0 .1.1.2.2.3 0 .1.2.2.2.3 0 0 .2.2.3.2.1 0 .2.1.3.2.1 0 .2 0 .4.1H312.2c.1 0 .3 0 .4-.1.1 0 .2-.1.3-.2.1 0 .2-.2.3-.2 0 0 .2-.2.2-.3 0-.1.1-.2.2-.3 0-.1 0-.2.1-.4v-11.6-.4c0-.1 0-.3-.1-.4 0-.1-.1-.2-.2-.3 0-.1-.2-.2-.2-.3 0 0-.2-.2-.3-.2-.1 0-.2-.1-.3-.2-.1 0-.2 0-.4-.1h-.4"/><path class="cls-22" d="M311.6 200.3c0-.7-.5-1.2-1.1-1.2s-1.1.5-1.1 1.2.5 1.2 1.1 1.2 1.1-.5 1.1-1.2"/><path class="cls-18" d="M311.6 200.3c0-.7-.5-1.2-1.1-1.2s-1.1.5-1.1 1.2.5 1.2 1.1 1.2 1.1-.5 1.1-1.2"/><path class="cls-21" d="M301 226.5h14.4v15.8H301z"/><path class="cls-18" d="M301 226.5h14.4v15.8H301z"/><path class="cls-22" d="M308.5 238.5c0-1.6-1.2-2.9-2.8-2.9s-2.8 1.3-2.8 2.9 1.2 2.9 2.8 2.9 2.8-1.3 2.8-2.9"/><path class="cls-18" d="M308.5 238.5c0-1.6-1.2-2.9-2.8-2.9s-2.8 1.3-2.8 2.9 1.2 2.9 2.8 2.9 2.8-1.3 2.8-2.9"/><path class="cls-22" d="M314.7 239.4c0-1.2-1-2.2-2.3-2.2s-2.3 1-2.3 2.2 1 2.2 2.3 2.2 2.3-1 2.3-2.2"/><path class="cls-18" d="M314.7 239.4c0-1.2-1-2.2-2.3-2.2s-2.3 1-2.3 2.2 1 2.2 2.3 2.2 2.3-1 2.3-2.2"/><path class="cls-22" d="M307.8 230.8c0-1.2-1-2.2-2.2-2.2s-2.2 1-2.2 2.2 1 2.2 2.2 2.2 2.2-1 2.2-2.2"/><path class="cls-18" d="M307.8 230.8c0-1.2-1-2.2-2.2-2.2s-2.2 1-2.2 2.2 1 2.2 2.2 2.2 2.2-1 2.2-2.2"/><path class="cls-22" d="M315 231c0-1.6-1.3-2.9-2.9-2.9s-2.9 1.3-2.9 2.9 1.3 2.9 2.9 2.9 2.9-1.3 2.9-2.9"/><path class="cls-18" d="M315 231c0-1.6-1.3-2.9-2.9-2.9s-2.9 1.3-2.9 2.9 1.3 2.9 2.9 2.9 2.9-1.3 2.9-2.9"/><path class="cls-1" d="M306.8 156.1v96.3"/><path class="cls-18" d="M306.8 251.9v.5"/><path class="cls-22" d="M324.6 69.7l-7.2 7.2v180.8h7.2v-188"/><path class="cls-17" d="M324.8 73.6l-2.2-1.9M324.8 77.7l-4.1-4.1M324.8 81.7l-6-6M324.8 85.6l-7.2-7.2M324.8 89.7l-7.2-7.2M324.8 93.7l-7.2-7.2M324.8 97.6l-7.2-7.2M324.8 101.7l-7.2-7.2M324.8 105.7l-7.2-7.2M324.8 109.8l-7.2-7.2M324.8 113.7l-7.2-7.2M324.8 117.7l-7.2-7.2M324.8 121.8l-7.2-7.2M324.8 125.7l-7.2-7.2M324.8 129.7l-7.2-7.2M324.8 133.8l-7.2-7.2M324.8 137.7l-7.2-7.2M324.8 141.7l-7.2-7.2M324.8 145.8l-7.2-7.2M324.8 149.9l-7.2-7.2M324.8 153.7l-7.2-7.2M324.8 157.8l-7.2-7.2M324.8 161.9l-7.2-7.2M324.8 165.7l-7.2-7.2M324.8 169.8l-7.2-7.2M324.8 173.9l-7.2-7.2M324.8 177.7l-7.2-7.2M324.8 181.8l-7.2-7.2M324.8 185.9l-7.2-7.2M324.8 190l-7.2-7.2M324.8 193.8l-7.2-7.2M324.8 197.9l-7.2-7.2M324.8 202l-7.2-7.2M324.8 205.8l-7.2-7.2M324.8 209.9l-7.2-7.2M324.8 214l-7.2-7.2M324.8 217.8l-7.2-7.2M324.8 221.9l-7.2-7.2M324.8 226l-7.2-7.2M324.8 230.1l-7.2-7.2M324.8 233.9l-7.2-7.2M324.8 238l-7.2-7.2M324.8 242.1l-7.2-7.2M324.8 245.9l-7.2-7.2M324.8 250l-7.2-7.2M324.8 254.1l-7.2-7.2M324.3 257.7l-6.7-6.8M320.2 257.7l-2.6-2.9M322.9 257.7l1.9-1.7M319 257.7l5.8-5.8M317.6 255.3l7.2-7.2M317.6 251.2l7.2-7.2M317.6 247.1l7.2-7.2M317.6 243l7.2-7.2M317.6 239.2l7.2-7.2M317.6 235.1l7.2-7.2M317.6 231l7.2-7.2M317.6 227.2l7.2-7.2M317.6 223.1l7.2-7.2M317.6 219l7.2-7.2M317.6 215.2l7.2-7.2M317.6 211.1l7.2-7.2M317.6 207l7.2-7.2M317.6 202.9l7.2-7.2M317.6 199.1l7.2-7.2M317.6 195l7.2-7.2M317.6 190.9l7.2-7.2M317.6 187.1l7.2-7.2M317.6 183l7.2-7.2M317.6 178.9l7.2-7.2M317.6 174.9l7.2-7.2M317.6 171l7.2-7.2M317.6 166.9l7.2-7.2M317.6 162.9l7.2-7.2M317.6 159l7.2-7.2M317.6 154.9l7.2-7.2M317.6 150.9l7.2-7.2M317.6 147l7.2-7.2M317.6 142.9l7.2-7.2M317.6 138.9l7.2-7.2M317.6 134.8l7.2-7.2M317.6 130.9l7.2-7.2M317.6 126.9l7.2-7.2M317.6 122.8l7.2-7.2M317.6 118.9l7.2-7.2M317.6 114.9l7.2-7.2M317.6 110.8l7.2-7.2M317.6 106.9l7.2-7.2M317.6 102.9l7.2-7.2M317.6 98.8l7.2-7.2M317.6 94.7l7.2-7.2M317.6 90.9l7.2-7.2M317.6 86.8l7.2-7.2M317.6 82.7l7.2-7.2M317.6 78.9l7.2-7.2"/><path class="cls-22" d="M324.6 69.7l-7.2 7.2v180.8h7.2v-188"/><path class="cls-17" d="M324.8 73.6l-2.2-1.9M324.8 77.7l-4.1-4.1M324.8 81.7l-6-6M324.8 85.6l-7.2-7.2M324.8 89.7l-7.2-7.2M324.8 93.7l-7.2-7.2M324.8 97.6l-7.2-7.2M324.8 101.7l-7.2-7.2M324.8 105.7l-7.2-7.2M324.8 109.8l-7.2-7.2M324.8 113.7l-7.2-7.2M324.8 117.7l-7.2-7.2M324.8 121.8l-7.2-7.2M324.8 125.7l-7.2-7.2M324.8 129.7l-7.2-7.2M324.8 133.8l-7.2-7.2M324.8 137.7l-7.2-7.2M324.8 141.7l-7.2-7.2M324.8 145.8l-7.2-7.2M324.8 149.9l-7.2-7.2M324.8 153.7l-7.2-7.2M324.8 157.8l-7.2-7.2M324.8 161.9l-7.2-7.2M324.8 165.7l-7.2-7.2M324.8 169.8l-7.2-7.2M324.8 173.9l-7.2-7.2M324.8 177.7l-7.2-7.2M324.8 181.8l-7.2-7.2M324.8 185.9l-7.2-7.2M324.8 190l-7.2-7.2M324.8 193.8l-7.2-7.2M324.8 197.9l-7.2-7.2M324.8 202l-7.2-7.2M324.8 205.8l-7.2-7.2M324.8 209.9l-7.2-7.2M324.8 214l-7.2-7.2M324.8 217.8l-7.2-7.2M324.8 221.9l-7.2-7.2M324.8 226l-7.2-7.2M324.8 230.1l-7.2-7.2M324.8 233.9l-7.2-7.2M324.8 238l-7.2-7.2M324.8 242.1l-7.2-7.2M324.8 245.9l-7.2-7.2M324.8 250l-7.2-7.2M324.8 254.1l-7.2-7.2M324.3 257.7l-6.7-6.8M320.2 257.7l-2.6-2.9M322.9 257.7l1.9-1.7M319 257.7l5.8-5.8M317.6 255.3l7.2-7.2M317.6 251.2l7.2-7.2M317.6 247.1l7.2-7.2M317.6 243l7.2-7.2M317.6 239.2l7.2-7.2M317.6 235.1l7.2-7.2M317.6 231l7.2-7.2M317.6 227.2l7.2-7.2M317.6 223.1l7.2-7.2M317.6 219l7.2-7.2M317.6 215.2l7.2-7.2M317.6 211.1l7.2-7.2M317.6 207l7.2-7.2M317.6 202.9l7.2-7.2M317.6 199.1l7.2-7.2M317.6 195l7.2-7.2M317.6 190.9l7.2-7.2M317.6 187.1l7.2-7.2M317.6 183l7.2-7.2M317.6 178.9l7.2-7.2M317.6 174.9l7.2-7.2M317.6 171l7.2-7.2M317.6 166.9l7.2-7.2M317.6 162.9l7.2-7.2M317.6 159l7.2-7.2M317.6 154.9l7.2-7.2M317.6 150.9l7.2-7.2M317.6 147l7.2-7.2M317.6 142.9l7.2-7.2M317.6 138.9l7.2-7.2M317.6 134.8l7.2-7.2M317.6 130.9l7.2-7.2M317.6 126.9l7.2-7.2M317.6 122.8l7.2-7.2M317.6 118.9l7.2-7.2M317.6 114.9l7.2-7.2M317.6 110.8l7.2-7.2M317.6 106.9l7.2-7.2M317.6 102.9l7.2-7.2M317.6 98.8l7.2-7.2M317.6 94.7l7.2-7.2M317.6 90.9l7.2-7.2M317.6 86.8l7.2-7.2M317.6 82.7l7.2-7.2M317.6 78.9l7.2-7.2"/><path class="cls-19" d="M324.6 257.7v-188M317.4 150.6V76.9M317.4 257.7v-102M317.4 150.6V76.9M324.6 257.7v-188M317.4 257.7v-102M324.6 257.7h-7.2M317.4 155.7v-5.1"/><path class="cls-22" d="M317.4 155.7v-5.1h-56.9l-4.1 5.1h61"/><path class="cls-17" d="M260.5 150.6h.2M259.8 155.7l5-5.1M264.1 155.7l5-5.1M268.4 155.7l5-5.1M272.5 155.7l5-5.1M276.8 155.7l5-5.1M281.1 155.7l5.1-5.1M285.2 155.7l5-5.1M289.5 155.7l5.1-5.1M293.8 155.7l5.1-5.1M298.2 155.7l5-5.1M302.2 155.7l5.1-5.1M306.6 155.7l5-5.1M310.9 155.7l5-5.1M315 155.7l2.6-2.4"/><path class="cls-22" d="M317.4 155.7v-5.1h-56.9l-4.1 5.1h61"/><path class="cls-17" d="M260.5 150.6h.2M259.8 155.7l5-5.1M264.1 155.7l5-5.1M268.4 155.7l5-5.1M272.5 155.7l5-5.1M276.8 155.7l5-5.1M281.1 155.7l5.1-5.1M285.2 155.7l5-5.1M289.5 155.7l5.1-5.1M293.8 155.7l5.1-5.1M298.2 155.7l5-5.1M302.2 155.7l5.1-5.1M306.6 155.7l5-5.1M310.9 155.7l5-5.1M315 155.7l2.6-2.4"/><path class="cls-19" d="M256.4 155.7h61M260.5 150.6h56.9M260.5 150.6h56.9M256.4 155.7h61M317.4 155.7v-5.1"/><path class="cls-22" d="M256.4 12.6v64.3l7-7.2V5.4l-7 7.2"/><path class="cls-17" d="M263.6 8.3l-1.7-1.4M263.6 12.4L260 9M263.6 16.5l-5.5-5.6M263.6 20.5l-7-6.9M263.6 24.4l-7-7M263.6 28.5l-7-7M263.6 32.5l-7-6.9M263.6 36.4l-7-7M263.6 40.5l-7-7M263.6 44.5l-7-6.9M263.6 48.6l-7-6.9M263.6 52.5l-7-7M263.6 56.5l-7-6.9M263.6 60.6l-7-6.9M263.6 64.5l-7-7M263.6 68.5l-7-6.9M262.2 71.2l-5.6-5.5M260.2 73.1l-3.6-3.6M258.1 75.3l-1.5-1.7M256.6 75.5l7-7M256.6 71.7l7-7M256.6 67.6l7-7M256.6 63.5l7-7M256.6 59.7l7-7M256.6 55.6l7-7M256.6 51.5l7-7M256.6 47.4l7-6.9M256.6 43.6l7-7M256.6 39.5l7-7M256.6 35.4l7-6.9M256.6 31.6l7-7M256.6 27.5l7-7M256.6 23.4l7-6.9M256.6 19.3l7-6.9M256.6 15.5l7-7"/><path class="cls-22" d="M256.4 12.6v64.3l7-7.2V5.4l-7 7.2"/><path class="cls-17" d="M263.6 8.3l-1.7-1.4M263.6 12.4L260 9M263.6 16.5l-5.5-5.6M263.6 20.5l-7-6.9M263.6 24.4l-7-7M263.6 28.5l-7-7M263.6 32.5l-7-6.9M263.6 36.4l-7-7M263.6 40.5l-7-7M263.6 44.5l-7-6.9M263.6 48.6l-7-6.9M263.6 52.5l-7-7M263.6 56.5l-7-6.9M263.6 60.6l-7-6.9M263.6 64.5l-7-7M263.6 68.5l-7-6.9M262.2 71.2l-5.6-5.5M260.2 73.1l-3.6-3.6M258.1 75.3l-1.5-1.7M256.6 75.5l7-7M256.6 71.7l7-7M256.6 67.6l7-7M256.6 63.5l7-7M256.6 59.7l7-7M256.6 55.6l7-7M256.6 51.5l7-7M256.6 47.4l7-6.9M256.6 43.6l7-7M256.6 39.5l7-7M256.6 35.4l7-6.9M256.6 31.6l7-7M256.6 27.5l7-7M256.6 23.4l7-6.9M256.6 19.3l7-6.9M256.6 15.5l7-7"/><path class="cls-19" d="M263.4 69.7V5.4M256.4 76.9V12.6M256.4 76.9V12.6M263.4 69.7V5.4"/><path class="cls-22" d="M210.1.1l9.6 7.2h13.9l7.2-7.2h-30.7"/><path class="cls-17" d="M240.1 1.1l-1-1M238.2 3L235.3.1M236 4.9L231.2.1M234.1 7.1l-7-7M230.2 7.3L223 .1M226.4 7.3L219.2.1M222.3 7.3L215.1.1M213.9 2.8L211 .1M232.6 7.3l7.2-7.2M228.6 7.3l7.2-7.2M224.5 7.3l7.2-7.2M220.6 7.3l7.2-7.2M218 5.9l5.8-5.8M215.6 4.2l4.1-4.1M213.4 2.5l2.2-2.4M211 .9l.8-.8"/><path class="cls-22" d="M210.1.1l9.6 7.2h13.9l7.2-7.2h-30.7"/><path class="cls-17" d="M240.1 1.1l-1-1M238.2 3L235.3.1M236 4.9L231.2.1M234.1 7.1l-7-7M230.2 7.3L223 .1M226.4 7.3L219.2.1M222.3 7.3L215.1.1M213.9 2.8L211 .1M232.6 7.3l7.2-7.2M228.6 7.3l7.2-7.2M224.5 7.3l7.2-7.2M220.6 7.3l7.2-7.2M218 5.9l5.8-5.8M215.6 4.2l4.1-4.1M213.4 2.5l2.2-2.4M211 .9l.8-.8"/><path class="cls-19" d="M240.8.1h-30.7M233.6 7.3h-13.9M233.6 7.3h-13.9M240.8.1h-30.7"/><path class="cls-22" d="M263.4 69.7l-7 7.2h61l7.2-7.2h-61.2"/><path class="cls-17" d="M322.6 71.7l-1.9-2M320.7 73.6l-3.8-3.9M318.8 75.7l-6-6M315.9 76.9l-7.2-7.2M312.1 76.9l-7.2-7.2M308 76.9l-7.2-7.2M303.9 76.9l-7.2-7.2M299.8 76.9l-7.2-7.2M296 76.9l-7.2-7.2M291.9 76.9l-7.2-7.2M287.8 76.9l-7.2-7.2M284 76.9l-7.2-7.2M279.9 76.9l-7.2-7.2M275.8 76.9l-7.2-7.2M271.8 76.9l-7.2-7.2M267.9 76.9l-5.7-5.7M263.8 76.9l-3.6-3.8M259.8 76.9l-1.7-1.6M315.2 76.9l7.2-7.2M311.4 76.9l7.2-7.2M307.3 76.9l7.2-7.2M303.2 76.9l7.2-7.2M299.4 76.9l7.2-7.2M295.3 76.9l7.2-7.2M291.2 76.9l7.2-7.2M287.1 76.9l7.2-7.2M283.3 76.9l7.2-7.2M279.2 76.9l7.2-7.2M275.1 76.9l7.2-7.2M271.3 76.9l7.2-7.2M267.2 76.9l7.2-7.2M263.1 76.9l7.2-7.2M259.3 76.9l7.2-7.2"/><path class="cls-22" d="M263.4 69.7l-7 7.2h61l7.2-7.2h-61.2"/><path class="cls-17" d="M322.6 71.7l-1.9-2M320.7 73.6l-3.8-3.9M318.8 75.7l-6-6M315.9 76.9l-7.2-7.2M312.1 76.9l-7.2-7.2M308 76.9l-7.2-7.2M303.9 76.9l-7.2-7.2M299.8 76.9l-7.2-7.2M296 76.9l-7.2-7.2M291.9 76.9l-7.2-7.2M287.8 76.9l-7.2-7.2M284 76.9l-7.2-7.2M279.9 76.9l-7.2-7.2M275.8 76.9l-7.2-7.2M271.8 76.9l-7.2-7.2M267.9 76.9l-5.7-5.7M263.8 76.9l-3.6-3.8M259.8 76.9l-1.7-1.6M315.2 76.9l7.2-7.2M311.4 76.9l7.2-7.2M307.3 76.9l7.2-7.2M303.2 76.9l7.2-7.2M299.4 76.9l7.2-7.2M295.3 76.9l7.2-7.2M291.2 76.9l7.2-7.2M287.1 76.9l7.2-7.2M283.3 76.9l7.2-7.2M279.2 76.9l7.2-7.2M275.1 76.9l7.2-7.2M271.3 76.9l7.2-7.2M267.2 76.9l7.2-7.2M263.1 76.9l7.2-7.2M259.3 76.9l7.2-7.2"/><path class="cls-19" d="M324.6 69.7h-61.2M317.4 76.9h-56.9M317.4 76.9h-56.9M324.6 69.7h-61.2M260.5 76.9h-4.1"/><path class="cls-18" d="M317.4 85.3h-56.9"/><path class="cls-6" d="M317.4 86.1h-56.9"/><path class="cls-18" d="M317.4 83.9h-56.9M317.4 85.3h-56.9"/><path class="cls-6" d="M260.5 85.3v.8"/><path class="cls-18" d="M260.5 83.9v1.4M317.4 86.1h-56.9M317.4 83.9h-56.9"/><path class="cls-6" d="M317.4 85.3v.8"/><path class="cls-18" d="M317.4 83.9v1.4"/><path class="cls-22" d="M260.5 76.9h-4.1v44.4h4.1V76.9"/><path class="cls-17" d="M256.6 78.1l1.2-1.2M256.6 82.5l4.1-4.1M256.6 86.8l4.1-4.1M256.6 90.9l4.1-4.1M256.6 95.2l4.1-4.1M256.6 99.5l4.1-4.1M256.6 103.8l4.1-4.1M256.6 107.9l4.1-4.1M256.6 112.2l4.1-4.1M256.6 116.5l4.1-4M256.6 120.6l4.1-4.1M260.2 121.3l.5-.4"/><path class="cls-22" d="M260.5 76.9h-4.1v44.4h4.1V76.9"/><path class="cls-17" d="M256.6 78.1l1.2-1.2M256.6 82.5l4.1-4.1M256.6 86.8l4.1-4.1M256.6 90.9l4.1-4.1M256.6 95.2l4.1-4.1M256.6 99.5l4.1-4.1M256.6 103.8l4.1-4.1M256.6 107.9l4.1-4.1M256.6 112.2l4.1-4.1M256.6 116.5l4.1-4M256.6 120.6l4.1-4.1M260.2 121.3l.5-.4"/><path class="cls-19" d="M260.5 121.3V76.9M256.4 121.3V76.9M256.4 121.3V76.9M260.5 121.3V76.9"/><path class="cls-22" d="M256.4 146.5v9.2l4.1-5.1v-4.1h-4.1"/><path class="cls-17" d="M256.6 150.4l3.9-3.9M256.6 154.7l3.9-4.1"/><path class="cls-22" d="M256.4 146.5v9.2l4.1-5.1v-4.1h-4.1"/><path class="cls-17" d="M256.6 150.4l3.9-3.9M256.6 154.7l3.9-4.1"/><path class="cls-19" d="M260.5 150.6v-4.1M256.4 155.7v-9.2M256.4 155.7v-9.2M260.5 150.6v-4.1M256.4 76.9h4.1"/><path class="cls-1" d="M260.5 146.5v-25.2M256.4 146.5v-25.2"/><path class="cls-18" d="M260.5 145.1h-4.1M260.5 122.5h-4.1"/><path class="cls-19" d="M260.5 146.5h-4.1M260.5 121.3h-4.1"/><path class="cls-17" d="M283.2 145.2c0-6-2.4-11.8-6.6-16-4.3-4.3-10-6.6-16-6.6M260.5 145.1h22.8"/><path class="cls-22" d="M210.1 40h9.6V7.3L210.1.1V40"/><path class="cls-17" d="M219.9 8.8l-6-6M219.9 12.9l-9.6-9.6M219.9 16.9l-9.6-9.6M219.9 20.8l-9.6-9.6M219.9 24.9l-9.6-9.6M219.9 28.9l-9.6-9.6M219.9 32.8l-9.6-9.6M219.9 36.9l-9.6-9.6M219 40l-8.7-8.7M214.9 40l-4.6-4.6M210.8 40l-.5-.7M215.8 40l4.1-3.9M212 40l7.9-7.9M210.3 37.8l9.6-9.6M210.3 33.7l9.6-9.6M210.3 29.7l9.6-9.6M210.3 25.6l9.6-9.6M210.3 21.7l9.6-9.6M210.3 17.7l9.6-9.6M210.3 13.6l7.7-7.7M210.3 9.7l5.3-5.5M210.3 5.7l3.1-3.2M210.3 1.6l.7-.7"/><path class="cls-22" d="M210.1 40h9.6V7.3L210.1.1V40"/><path class="cls-17" d="M219.9 8.8l-6-6M219.9 12.9l-9.6-9.6M219.9 16.9l-9.6-9.6M219.9 20.8l-9.6-9.6M219.9 24.9l-9.6-9.6M219.9 28.9l-9.6-9.6M219.9 32.8l-9.6-9.6M219.9 36.9l-9.6-9.6M219 40l-8.7-8.7M214.9 40l-4.6-4.6M210.8 40l-.5-.7M215.8 40l4.1-3.9M212 40l7.9-7.9M210.3 37.8l9.6-9.6M210.3 33.7l9.6-9.6M210.3 29.7l9.6-9.6M210.3 25.6l9.6-9.6M210.3 21.7l9.6-9.6M210.3 17.7l9.6-9.6M210.3 13.6l7.7-7.7M210.3 9.7l5.3-5.5M210.3 5.7l3.1-3.2M210.3 1.6l.7-.7"/><path class="cls-19" d="M210.1.1V40M219.7 7.3V40M219.7 7.3V40M210.1.1V40"/><path class="cls-18" d="M220.9 31.3h17v.7h-17z"/><path class="cls-18" d="M220.9 16h.7v15.4h-.7zM237.4 16h.5v15.4h-.5zM219.9 31.3h1v.7h-1zM220.9 15.5h17v.5h-17zM237.9 31.3h17v.7h-17z"/><path class="cls-18" d="M237.9 16h.7v15.4h-.7zM254.5 16h.5v15.4h-.5zM237.9 15.5h17v.5h-17zM255 31.3h1.2v.7H255z"/><path class="cls-22" d="M4.4 148.7l7.2 7h10.8v-7h-18"/><path class="cls-17" d="M22.6 152.3l-3.6-3.6M21.9 155.7l-6.9-7M17.8 155.7l-6.9-7M13.8 155.7l-7-7M20 155.7l2.6-2.4M16.2 155.7l6.4-6.5M12.1 155.7l6.9-7M9.9 154l5.1-5.3M7.8 151.8l3.3-3.1M5.8 149.9l1.2-1.2"/><path class="cls-22" d="M4.4 148.7l7.2 7h10.8v-7h-18"/><path class="cls-17" d="M22.6 152.3l-3.6-3.6M21.9 155.7l-6.9-7M17.8 155.7l-6.9-7M13.8 155.7l-7-7M20 155.7l2.6-2.4M16.2 155.7l6.4-6.5M12.1 155.7l6.9-7M9.9 154l5.1-5.3M7.8 151.8l3.3-3.1M5.8 149.9l1.2-1.2"/><path class="cls-19" d="M22.4 148.7h-18M22.4 155.7H11.6M22.4 155.7H11.6M22.4 148.7h-18"/><path class="cls-21" d="M223 13.6h9.8V16H223z"/><path class="cls-18" d="M223 13.6h9.8V16H223z"/><path class="cls-21" d="M222.8 16h10.3v.2h-10.3z"/><path class="cls-18" d="M222.8 16h10.3v.2h-10.3z"/><path class="cls-14" d="M223.8 16.2v8.4"/><path class="cls-5" d="M232.2 16.2l-.3 1.7-.5 1.7-.7 1.4-.9 1.2-1.5 1-1.4.9-1.5.5h-1.6"/><path class="cls-1" d="M32.2 269.2h73.5"/><path class="cls-18" d="M32.2 269.2v-1.9M105.7 269.2v-1.9"/><path class="cls-22" d="M294.1 135.6c-.9 1.3-.9 3 0 4.3 1.5 1.9 3.8 2.9 6.2 2.9l9-.3v-9.6l-9-.3c-2.4 0-4.7 1-6.2 2.9"/><path class="cls-18" d="M294.1 135.6c-.9 1.3-.9 3 0 4.3 1.5 1.9 3.8 2.9 6.2 2.9l9-.3v-9.6l-9-.3c-2.4 0-4.7 1-6.2 2.9"/><path class="cls-22" d="M304.2 137.7c0-1-.3-2-1.1-2.8-.7-.7-1.7-1.2-2.7-1.2-2.1 0-4.1.9-5.4 2.5-.6.9-.6 2 0 2.9 1.3 1.6 3.3 2.5 5.4 2.5 1 0 2-.4 2.7-1.2.7-.7 1.1-1.8 1.1-2.8"/><path class="cls-18" d="M304.2 137.7c0-1-.3-2-1.1-2.8-.7-.7-1.7-1.2-2.7-1.2-2.1 0-4.1.9-5.4 2.5-.6.9-.6 2 0 2.9 1.3 1.6 3.3 2.5 5.4 2.5 1 0 2-.4 2.7-1.2.7-.7 1.1-1.8 1.1-2.8"/><path class="cls-22" d="M260.7 86.3h48.5v22.8h-48.5V86.3"/><path class="cls-18" d="M260.7 86.3h48.5v22.8h-48.5zM307.3 86.3v22.8M309.9 150.6v-19.2"/><path class="cls-6" d="M309.2 150.6v-19.2"/><path class="cls-18" d="M311.4 150.6v-19.2M309.9 150.6v-19.2M309.2 150.6v-19.2M311.4 150.6v-19.2"/><path class="cls-6" d="M309.9 150.6h-.7"/><path class="cls-18" d="M311.4 150.6h-1.5M309.9 131.4V130"/><path class="cls-6" d="M309.2 131.4v-2.1"/><path class="cls-18" d="M309.9 131.4V130M309.2 131.4v-2.1M313.8 130v-18.5"/><path class="cls-6" d="M313 129.3v-17.1"/><path class="cls-18" d="M315.2 131.4v-21.3M313.8 130v-18.5M313 129.3v-17.1M315.2 131.4v-21.3M309.9 111.5v-1.4"/><path class="cls-6" d="M309.2 112.2v-2.1"/><path class="cls-18" d="M309.9 111.5v-1.4M309.2 112.2v-2.1M309.9 110.1v-24"/><path class="cls-6" d="M309.2 110.1v-24"/><path class="cls-18" d="M311.4 110.1v-24M309.9 110.1v-24"/><path class="cls-6" d="M309.9 86.1h-.7"/><path class="cls-18" d="M311.4 86.1h-1.5M309.2 110.1v-24M311.4 110.1v-24"/><path class="cls-22" d="M309.3 112.9h-12.4c-.1 0-.3.1-.4.2-.1.1-.2.2-.2.4v14.1s0 .1.1.2c0 0 0 .1.1.2 0 0 .1 0 .2.1 0 0 .1 0 .2.1h12.4v-15.6"/><path class="cls-18" d="M309.3 112.9h-12.4c-.1 0-.3.1-.4.2-.1.1-.2.2-.2.4v14.1s0 .1.1.2c0 0 0 .1.1.2 0 0 .1 0 .2.1 0 0 .1 0 .2.1h12.4v-15.6"/><path class="cls-16" d="M309.2 129.3h3.8"/><path class="cls-4" d="M313 129.3v-17.1"/><path class="cls-16" d="M313 112.2h-3.8"/><path class="cls-18" d="M313.8 111.5h-3.9"/><path class="cls-6" d="M313 112.2h-3.8"/><path class="cls-18" d="M315.2 110.1h-3.8M313.8 111.5h-3.9M313 112.2h-3.8M315.2 110.1h-3.8M309.9 130h3.9"/><path class="cls-6" d="M309.2 129.3h3.8"/><path class="cls-18" d="M311.4 131.4h3.8M309.9 130h3.9M309.2 129.3h3.8M311.4 131.4h3.8"/><path class="cls-6" d="M309.2 129.3v-17.1"/><path class="cls-17" d="M69 219.6c0 15.2 12.5 27.8 27.8 27.8M96.8 247.3v-27.8"/><path class="cls-5" d="M69 219.5v2.9l-.5 2.6-.7 2.7-.8 2.6-1.2 2.4-1.4 2.4-1.7 2.2-1.9 1.9-1.9 1.9-2.2 1.7-2.4 1.4-2.4 1-2.6.9-2.7.8-2.6.4h-2.6M41.4 247.3v-27.8"/><path class="cls-17" d="M41.4 220v-.5"/><path class="cls-22" d="M22.4 91.1l5.5-7.9h-5.5v7.9"/><path class="cls-17" d="M27 84.6l-1.5-1.4M25.3 87l-2.7-2.9M23.8 89.4l-1.2-1.2M22.6 89.2l4.6-4.8M22.6 85.1l1.7-1.9"/><path class="cls-22" d="M22.4 91.1l5.5-7.9h-5.5v7.9"/><path class="cls-17" d="M27 84.6l-1.5-1.4M25.3 87l-2.7-2.9M23.8 89.4l-1.2-1.2M22.6 89.2l4.6-4.8M22.6 85.1l1.7-1.9"/><path class="cls-19" d="M22.4 83.2v7.9M22.4 83.2v7.9"/><path class="cls-22" d="M29.6 47.4v-.2L22.4 40v7.4h7.2"/><path class="cls-17" d="M29.8 47.2L22.6 40M25.8 47.4l-3.2-3.3M28.2 47.4l.9-.9M24.1 47.4l2.9-2.9M22.6 45l2.4-2.6M22.6 40.9l.5-.4"/><path class="cls-22" d="M29.6 47.4v-.2L22.4 40v7.4h7.2"/><path class="cls-17" d="M29.8 47.2L22.6 40M25.8 47.4l-3.2-3.3M28.2 47.4l.9-.9M24.1 47.4l2.9-2.9M22.6 45l2.4-2.6M22.6 40.9l.5-.4"/><path class="cls-19" d="M22.4 40v7.4M29.6 47.2v.2M29.6 47.2v.2M22.4 40v7.4"/><path class="cls-18" d="M21.9 47.4h1.7V50h-1.7zM21.9 77.2h1.7v6h-1.7zM21.9 50.1h1.7v27.1h-1.7zM23.6 50.1v27.1"/><path class="cls-1" d="M29.6 49.6v27.8"/><path class="cls-18" d="M29.6 76.9v.5"/><path class="cls-22" d="M29.6 47.4v2.2h-6v-2.2"/><path class="cls-17" d="M27.9 49.6l-2.1-2.2M24.1 49.6l-.3-.3M26 49.6l2.2-2.2M23.8 47.9l.3-.5"/><path class="cls-22" d="M29.6 83.2v-5.8h-6v5.8"/><path class="cls-17" d="M29.8 79.3l-1.9-1.9M29.6 83.2l-5.8-5.8M25.5 83.2l-1.7-1.9M28.4 83.2l1.4-1.2M24.3 83.2l5.5-5.3M23.8 79.8l2.4-2.4"/><path class="cls-19" d="M29.6 49.6h-6M29.6 77.4h-6M29.6 49.6h-6M29.6 47.4v2.2M29.6 77.4h-6M29.6 83.2v-5.8M22.4 47.4h1.2M22.4 83.2h1.2M29.6 47.4v2.2M29.6 83.2v-5.8M23.6 49.6v-2.2M23.6 77.4v5.8"/><path class="cls-22" d="M22.4 155.7l7.2-9.9V91.1h-7.2v64.6"/><path class="cls-17" d="M29.8 91.3l-.4-.2M29.8 95.4l-4.3-4.3M29.8 99.3l-7.2-7.2M29.8 103.3l-7.2-7.2M29.8 107.4l-7.2-7.2M29.8 111.5l-7.2-7.2M29.8 115.3l-7.2-7.2M29.8 119.4l-7.2-7.2M29.8 123.5l-7.2-7.2M29.8 127.3l-7.2-7.2M29.8 131.4l-7.2-7.2M29.8 135.5l-7.2-7.2M29.8 139.3l-7.2-7.2M29.8 143.4l-7.2-7.2M29.1 146.8l-6.5-6.5M27.4 149.2l-4.8-4.8M25.5 151.3l-2.9-3.1M23.8 153.7l-1.2-1.4M22.6 153.3l6.5-6.8M22.6 149.2l7.2-7.2M22.6 145.3l7.2-7.2M22.6 141.3l7.2-7.2M22.6 137.2l7.2-7.2M22.6 133.1l7.2-7.2M22.6 129.3l7.2-7.2M22.6 125.2l7.2-7.2M22.6 121.1l7.2-7.2M22.6 117.3l7.2-7.2M22.6 113.2l7.2-7.2M22.6 109.1l7.2-7.2M22.6 105l7.2-7.2M22.6 101.2l7.2-7.2M22.6 97.1l6-6M22.6 93l2-1.9"/><path class="cls-22" d="M22.4 155.7l7.2-9.9V91.1h-7.2v64.6"/><path class="cls-17" d="M29.8 91.3l-.4-.2M29.8 95.4l-4.3-4.3M29.8 99.3l-7.2-7.2M29.8 103.3l-7.2-7.2M29.8 107.4l-7.2-7.2M29.8 111.5l-7.2-7.2M29.8 115.3l-7.2-7.2M29.8 119.4l-7.2-7.2M29.8 123.5l-7.2-7.2M29.8 127.3l-7.2-7.2M29.8 131.4l-7.2-7.2M29.8 135.5l-7.2-7.2M29.8 139.3l-7.2-7.2M29.8 143.4l-7.2-7.2M29.1 146.8l-6.5-6.5M27.4 149.2l-4.8-4.8M25.5 151.3l-2.9-3.1M23.8 153.7l-1.2-1.4M22.6 153.3l6.5-6.8M22.6 149.2l7.2-7.2M22.6 145.3l7.2-7.2M22.6 141.3l7.2-7.2M22.6 137.2l7.2-7.2M22.6 133.1l7.2-7.2M22.6 129.3l7.2-7.2M22.6 125.2l7.2-7.2M22.6 121.1l7.2-7.2M22.6 117.3l7.2-7.2M22.6 113.2l7.2-7.2M22.6 109.1l7.2-7.2M22.6 105l7.2-7.2M22.6 101.2l7.2-7.2M22.6 97.1l6-6M22.6 93l2-1.9"/><path class="cls-19" d="M22.4 91.1v57.6M29.6 91.1v54.7M29.6 91.1v54.7M22.4 91.1v57.6"/><path class="cls-22" d="M75 91.1l5.5-10.3H65.1v10.3H75"/><path class="cls-17" d="M80.2 81.7l-.9-.9M78.8 84.1l-3.6-3.3M77.4 86.8l-6-6M75.9 89.4l-8.6-8.6M73.5 91.1l-8.1-8.4M69.4 91.1l-4-4.3M65.6 91.1l-.2-.2M72.6 91.1l5.2-5.3M68.7 91.1L79 80.8M65.4 90.4l9.6-9.6M65.4 86.5l5.5-5.7M65.4 82.5l1.4-1.7"/><path class="cls-22" d="M75 91.1l5.5-10.3H65.1v10.3H75"/><path class="cls-17" d="M80.2 81.7l-.9-.9M78.8 84.1l-3.6-3.3M77.4 86.8l-6-6M75.9 89.4l-8.6-8.6M73.5 91.1l-8.1-8.4M69.4 91.1l-4-4.3M65.6 91.1l-.2-.2M72.6 91.1l5.2-5.3M68.7 91.1L79 80.8M65.4 90.4l9.6-9.6M65.4 86.5l5.5-5.7M65.4 82.5l1.4-1.7"/><path class="cls-19" d="M65.1 91.1H75M65.1 80.8h15.4M65.1 80.8h15.4M65.1 91.1H75"/><path class="cls-22" d="M29.6 91.1V80.8l-7.2 10.3h7.2"/><path class="cls-17" d="M29.8 83.4l-1.2-1.2M29.8 87.3L27 84.6M29.4 91.1L25.3 87M25.5 91.1l-1.7-1.7M28.6 91.1l1.2-1.2M24.6 91.1l5.2-5.3M27.2 84.4l2.6-2.4"/><path class="cls-22" d="M29.6 91.1V80.8l-7.2 10.3h7.2"/><path class="cls-17" d="M29.8 83.4l-1.2-1.2M29.8 87.3L27 84.6M29.4 91.1L25.3 87M25.5 91.1l-1.7-1.7M28.6 91.1l1.2-1.2M24.6 91.1l5.2-5.3M27.2 84.4l2.6-2.4"/><path class="cls-18" d="M32.7 89.7H62"/><path class="cls-1" d="M32.7 80.8H62"/><path class="cls-18" d="M61.5 80.8h.5"/><path class="cls-22" d="M29.6 80.8h3.1v8.9h-3.1"/><path class="cls-17" d="M33 82.5l-1.7-1.7M33 86.5l-3.2-3.1M32 89.7l-2.2-2.4M30.1 89.7l2.9-2.9M29.8 85.8l3.2-3.1M29.8 82l1-1.2"/><path class="cls-22" d="M65.1 80.8H62v8.9h3.1"/><path class="cls-17" d="M65.4 82.7l-2.2-1.9M65.4 86.8l-3.2-3.1M64.2 89.7l-2-2M62.2 89.7l3.2-3.2M62.2 85.6l3.2-3.1M62.2 81.5l.8-.7"/><path class="cls-19" d="M32.7 80.8v8.9M62 80.8v8.9M32.7 80.8v8.9M29.6 80.8h3.1M62 80.8v8.9M65.1 80.8H62M29.6 91.1v-1.4M65.1 91.1v-1.4M29.6 80.8h3.1M65.1 80.8H62M32.7 89.7h-3.1M62 89.7h3.1"/><path class="cls-1" d="M32.7 263.9h72.7"/><path class="cls-19" d="M39.2 223.3l.2-3.8M99 223.3l-.3-3.8"/><path class="cls-22" d="M4.4 257.7h18.5l-7.2-10.4H4.4v10.4"/><path class="cls-17" d="M21.4 255.5l-8.1-8.2M19.8 257.7L9.4 247.3M15.7 257.7L5.4 247.3M11.6 257.7l-7-7.2M7.5 257.7l-2.9-3.2M22.4 257.7l.2-.5M18.3 257.7L21 255M14.2 257.7l5.3-5.1M10.4 257.7l7.4-7.5M6.3 257.7l9.9-9.9M4.6 255.5l8-8.2M4.6 251.4l3.9-4.1M4.6 247.3"/><path class="cls-22" d="M4.4 257.7h18.5l-7.2-10.4H4.4v10.4"/><path class="cls-17" d="M21.4 255.5l-8.1-8.2M19.8 257.7L9.4 247.3M15.7 257.7L5.4 247.3M11.6 257.7l-7-7.2M7.5 257.7l-2.9-3.2M22.4 257.7l.2-.5M18.3 257.7L21 255M14.2 257.7l5.3-5.1M10.4 257.7l7.4-7.5M6.3 257.7l9.9-9.9M4.6 255.5l8-8.2M4.6 251.4l3.9-4.1M4.6 247.3"/><path class="cls-19" d="M15.7 247.3H4.4M22.9 257.7H4.4M22.9 257.7H4.4M15.7 247.3H4.4"/><path class="cls-3" d="M31 262.2h5.1"/><path class="cls-18" d="M35.6 262.2h.5"/><path class="cls-3" d="M107.1 262.2h-5"/><path class="cls-18" d="M102.6 262.2h-.5"/><path class="cls-22" d="M240.8 5.4l-7.2 7.2h22.8l7-7.2h-22.6"/><path class="cls-17" d="M261.9 6.9l-1.4-1.5M260 9l-3.6-3.6M258.1 10.9l-5.5-5.5M255.7 12.6l-7.2-7.2M251.6 12.6l-7.2-7.2M247.8 12.6l-7-6.9M243.7 12.6l-5.1-5M239.6 12.6l-2.9-2.9M235.5 12.6l-.9-.9M255.4 12.6l7.2-7.2M251.4 12.6l7.2-7.2M247.3 12.6l7.2-7.2M243.2 12.6l7.2-7.2M239.4 12.6l7.2-7.2M235.3 12.6l7.2-7.2"/><path class="cls-22" d="M240.8 5.4l-7.2 7.2h22.8l7-7.2h-22.6"/><path class="cls-17" d="M261.9 6.9l-1.4-1.5M260 9l-3.6-3.6M258.1 10.9l-5.5-5.5M255.7 12.6l-7.2-7.2M251.6 12.6l-7.2-7.2M247.8 12.6l-7-6.9M243.7 12.6l-5.1-5M239.6 12.6l-2.9-2.9M235.5 12.6l-.9-.9M255.4 12.6l7.2-7.2M251.4 12.6l7.2-7.2M247.3 12.6l7.2-7.2M243.2 12.6l7.2-7.2M239.4 12.6l7.2-7.2M235.3 12.6l7.2-7.2"/><path class="cls-19" d="M263.4 5.4h-22.6M256.4 12.6h-22.8M256.4 12.6h-22.8M263.4 5.4h-22.6"/><path class="cls-22" d="M233.6 12.6l7.2-7.2V.1l-7.2 7.2v5.3"/><path class="cls-17" d="M241 1.8l-.9-.7M240.8 5.7L238.2 3M238.6 7.6L236 4.9M236.7 9.7l-2.6-2.6M234.6 11.7l-.8-1M233.8 10.2L241 3"/><path class="cls-22" d="M233.6 12.6l7.2-7.2V.1l-7.2 7.2v5.3"/><path class="cls-17" d="M241 1.8l-.9-.7M240.8 5.7L238.2 3M238.6 7.6L236 4.9M236.7 9.7l-2.6-2.6M234.6 11.7l-.8-1M233.8 10.2L241 3"/><path class="cls-19" d="M233.6 7.3v5.3M240.8.1v5.3M240.8.1v5.3M233.6 7.3v5.3"/><path class="cls-22" d="M263.4 91.6h29.7v24.9h-29.7V91.6"/><path class="cls-17" d="M276.8 257.5v-1.9c0-.6.2-1.2.3-1.8.1-.6.3-1.2.5-1.8l.6-1.8c.2-.6.5-1.1.8-1.7.3-.5.6-1.1 1-1.6.3-.5.7-1 1.1-1.5.4-.5.8-.9 1.3-1.4.4-.4.9-.9 1.4-1.3.5-.4 1-.8 1.5-1.1.5-.3 1-.7 1.6-1 .5-.3 1.1-.6 1.7-.8l1.8-.6c.6-.2 1.2-.3 1.8-.5l1.8-.3h1.9M295.8 238.5v18.9M276.8 257.4V256M276.6 254.5v-.7M276.6 253.8l-.3-.7"/><path class="cls-12" d="M276.1 251.9l-.7-1.7"/><path class="cls-17" d="M274.9 249l-.3-.5M274.6 248.5l-.4-.7"/><path class="cls-13" d="M273.7 246.9l-1.2-1.5"/><path class="cls-17" d="M271.5 244.2l-.2-.2M271.3 244l-1-.7M269.1 242.3l-.7-.5M268.4 241.8l-.5-.2"/><path class="cls-10" d="M266.7 240.9l-1.7-1"/><path class="cls-17" d="M264.1 239.7l-.7-.3M263.4 239.4l-.8-.2"/><path class="cls-12" d="M261.4 238.9l-1.6-.2"/><path class="cls-17" d="M258.3 238.5h-.5"/><path class="cls-5" d="M257.8 238.5v18.9"/><path class="cls-17" d="M257.8 256.9v.5M163.7 257.6c0-11-9.1-20.1-20.1-20.1M143.6 237.5v20.2"/><path class="cls-5" d="M163.8 257.7l.2-4.1 1.2-3.6 1.9-3.6 2.4-3.1 3.1-2.4 3.6-2 3.6-1.2 4.1-.2"/><path class="cls-14" d="M183.9 237.5v20.2"/><path class="cls-17" d="M315.2 348.4l-1-.3M314.2 348.1H313M313 348.1l-.9.3M312.1 348.4l-1-.5M311.1 347.9l-.9-.7M310.2 347.2H309M309 347.2l-1-.3M308 346.9l-1-.4M307 346.5l-.7-1M306.3 345.5l-.9-.5M305.4 345l-1-.2M304.4 344.8l-.7-1M303.7 343.8l-.5-.9M303.2 342.9l-1-.8M302.2 342.1l-.9-.4M301.3 341.7l-.3-1M301 340.7l-.2-1.2M300.8 339.5l-.7-.7M300.1 338.8l-.7-1M299.4 337.8l-.3-.9M299.1 336.9v-1.2M299.1 335.7l-.5-1M298.6 334.7l-.4-1M298.2 333.7l.2-1.2M298.4 332.5l.2-.9M298.6 331.6l-.2-1M298.4 330.6l-.2-1.2M298.2 329.4l.4-.9M298.4 328.5l.7-1M299.1 327.5v-1.2M299.1 326.3v-1M299.1 325.3l.7-.9M299.8 324.4l.8-.7M300.6 323.7l.2-1.2M300.8 322.5l.5-1M301.3 321.5l.7-.7M302 320.8l1-.5M303 320.3l.4-1M303.4 319.3l.8-.9M304.2 318.4l.9-.5M305.1 317.9l1-.2M306.1 317.7l.9-1M307 316.7l.8-.7M307.8 316l.9-.3M308.7 315.7h1.2M309.9 315.7l1-.4M310.9 315.3l.9-.8M311.8 314.5h1M312.8 314.5l1.2.3M314 314.8l1-.3M315 314.5l1.2-.2M316.2 314.3l.9.2M317.1 314.5l1 .5M318.1 315h1.2M319.3 315h.9M320.2 315l1 .5M321.2 315.5l.7.7M321.9 316.2l1.2.3M323.1 316.5l1 .2M324.1 316.7l.9.7M325 317.4l.5 1M325.5 318.4l1 .5M326.5 318.9l.9.4M327.4 319.3l.8 1M328.2 320.3l.2 1.2M328.4 321.5l1 .7M329.4 322.2l.7.7M330.1 322.9l.5 1M330.6 323.9v1M330.6 324.9l.7.9M331.3 325.8l.5 1M331.8 326.8v1.2M331.8 328v.9M331.8 328.9l.2 1M332 329.9l.5 1.2M332.5 331.1l-.3 1M332.2 332.1l-.4.9M331.8 333v1.2M331.8 334.2l.2 1M332 335.2l-.5 1.2M331.5 336.4l-.7.7M330.8 337.1l-.2 1.2M330.6 338.3v1M330.6 339.3l-.8.9M329.8 340.2l-.9.7M328.9 340.9l-.5 1M328.4 341.9l-.2 1M328.2 342.9l-1 .7M327.2 343.6l-1 .2M326.2 343.8l-.7 1M325.5 344.8l-.7.9M324.8 345.7l-1 .3M323.8 346l-.9.2M322.9 346.2l-1 .7M321.9 346.9l-.9.8M321 347.7h-1M320 347.7h-1.2M318.8 347.7l-1 .4M317.8 348.1l-.9.5M316.9 348.6l-1.2-.2"/><g class="cls-28"><path class="cls-17" d="M315.7 348.4l-1-.3M314.7 348.1l-.9.5M313.8 348.6l-1.2.3M312.6 348.9l-1-.3"/></g><path class="cls-8" d="M315.9 331.3c0-.4-.3-.7-.7-.7s-.7.3-.7.7.3.7.7.7.7-.3.7-.7"/><path class="cls-17" d="M317.1 318.9l-.9-.3M316.2 318.6l-1 .3M315.2 318.9H314M314 318.9l-1-.3M313 318.6l-.9-.7M312.1 317.9h-1.2M310.9 317.9h-1M309.9 317.9l-.9-.7M309 317.2l-.8-.7M308.2 316.5l-1.2-.3M307 316.2l-.9-.2M306.1 316l-1-.7M305.1 315.3l-.5-1M304.6 314.3l-.9-.5M303.7 313.8l-1-.5M302.7 313.3l-.7-.7M302 312.6l-.5-1.2M301.5 311.4l-.9-.5M300.6 310.9l-.8-.7M299.8 310.2l-.4-.9M299.4 309.3l-.3-1.2M299.1 308.1l-.7-.8M298.4 307.3l-.7-.9M297.7 306.4l-.3-1M297.4 305.4v-1.2M297.4 304.2l-.4-.9M297 303.3l-.8-1M296.2 302.3v-1M296.2 301.3l.3-1.2M296.5 300.1l-.3-.9M296.2 299.2l-.4-1M295.8 298.2l.2-1.2M296 297l.5-.9M296.5 296.1l-.3-1.2M296.2 294.9v-1M296.2 293.9l.3-1M296.5 292.9l.7-.9M297.2 292v-1.2M297.2 290.8v-1M297.2 289.8l.7-.9M297.9 288.9l.7-.8M298.6 288.1l.3-1.2M298.9 286.9l.5-.9M299.4 286l.7-.7M300.1 285.3l.9-.8M301 284.5l.5-.9M301.5 283.6l.5-1M302 282.6l1-.5M303 282.1l.9-.4M303.9 281.7l.7-1M304.6 280.7l.8-.7M305.4 280l.9-.5M306.3 279.5l1-.2M307.3 279.3l.9-.8M308.2 278.5l.8-.7M309 277.8l1.2-.2M310.2 277.6l.9.2M311.1 277.8l1-.7M312.1 277.1l1.2-.5M313.3 276.6h.9M314.2 276.6l1.2.3M315.4 276.9l1-.3M316.4 276.6l1-.2M317.4 276.4l1.2.2M318.6 276.6l.9.3M319.5 276.9h1M320.5 276.9l1.2-.3M321.7 276.6l.9.5M322.6 277.1l1 .7M323.6 277.8h1M324.6 277.8l1.2.3M325.8 278.1l.9.7M326.7 278.8l.7.7M327.4 279.5l1 .2M328.4 279.7l1.2.5M329.6 280.2l.7.7M330.3 280.9l.5 1M330.8 281.9l1 .5M331.8 282.4l.9.5M332.7 282.9l.7.9M333.4 283.8l.3 1M333.7 284.8l.9.7M334.6 285.5l.8.7M335.4 286.2l.4 1.2M335.8 287.4v1M335.8 288.4l.8.9M336.6 289.3l.7.8M337.3 290.1l.2 1.2M337.5 291.3v.9M337.5 292.2l.5 1M338 293.2l.5 1.2M338.5 294.4l-.3.9M338.2 295.3l-.2 1.2M338 296.5l.5 1M338.5 297.5l.2 1M338.7 298.5l-.2 1.2M338.5 299.7l-.5.9M338 300.6v1M338 301.6v1.2M338 302.8l-.5.9M337.5 303.7l-.5 1M337 304.7l-.2 1M336.8 305.7l-.2 1.2M336.6 306.9l-.5.9M336.1 307.8l-1 .7M335.1 308.5l-.2 1M334.9 309.5l-.5 1M334.4 310.5l-.7.7M333.7 311.2l-1 .5M332.7 311.7l-.7.9M332 312.6l-.5 1M331.5 313.6l-.9.7M330.6 314.3l-1 .2M329.6 314.5l-.7 1M328.9 315.5l-.7.7M328.2 316.2l-1.2.3M327 316.5l-1 .2M326 316.7l-1 .7M325 317.4l-.7.5M324.3 317.9l-1.2.2M323.1 318.1h-1.2M321.9 318.1l-.9.5M321 318.6l-1 .3M320 318.9h-1"/><g class="cls-27"><path class="cls-17" d="M319 318.9l-1.2-.3M317.8 318.6l-.9.5M316.9 319.1l-1.2.2M315.7 319.3l-1-.2"/></g><path class="cls-8" d="M317.8 297.7c0-.4-.3-.7-.7-.7s-.7.3-.7.7.3.7.7.7.7-.3.7-.7"/><path class="cls-18" d="M246.3 100.9v1M246.3 101.9v.7M246.3 102.6l-.2.7M246.1 103.3l-.3.5M245.4 105l-.3.3M244.4 106.5l-.5.4M243.9 106.9l-.7.8M243.2 107.7l-.5.4M242.7 108.1l-.5.3M241 108.9l-.2.2M239.4 109.3h-.8M238.6 109.3l-.7.3M237.9 109.6l-.9-.3M237 109.3h-.5M235 109.1l-.2-.2M233.6 108.4l-.5-.3M233.1 108.1l-.7-.4M232.4 107.7l-.5-.8M231.9 106.9l-.5-.4M230.7 105.3l-.2-.3M230 103.8l-.2-.5M229.8 103.3l-.3-.7M229.5 102.6v-.7M229.5 101.9v-1M229.5 99.7v-.4M230 98.1v-.3M230 97.8l.5-.9M230.5 96.9l.2-.8M230.7 96.1l.7-.4M232.4 94.5h.2M233.8 93.5l.8-.5M234.6 93l.9-.2M235.5 92.8l.7-.3M236.2 92.5h.3M237.9 92.5h.3M239.6 92.5l.7.3M240.3 92.8l1 .2M241.3 93l.7.5M242 93.5l.2.2M243.2 94.5l.2.2M244.4 95.7l.5.4M244.9 96.1l.5.8M245.4 96.9l.4.9M245.8 97.8v.3M246.3 99.5v.2M295.5 271.3v10.4h-37.2v-10.4"/><path class="cls-18" d="M273.9 274.2l2.9-2.9 2.9 2.9h-5.8zM295.5 271.3h-37.2"/><path class="cls-22" d="M107.4 230.8l1.9 24-7.9.7-1.7-24 7.7-.7"/><path class="cls-19" d="M107.4 230.8l1.9 24-7.9.7-1.7-24 7.7-.7zM101.4 255.5l.2 1M100.4 243.5l7.9-.7M99.7 231.5l-.3-1"/></g><g id="Mbel"><path class="cls-2" d="M123.2 157.3h15.6v56.6h-15.6zM155.8 157.3h45.4v56.6h-45.4zM243.5 201.1h-7.4v11.4h7.4M243.5 230.2h-7.4v-11.4h7.4M269 212.5h7.4v-11.4H269M269 230.2h7.4v-11.4H269M244.9 198.6h22.8v34.1h-22.8z"/></g><g id="Text"><path d="M222.7 171.5h-.7v-5.3h.7v2.5l2.1-2.5h.8l-2.2 2.6 2.2 2.7h-.9l-2-2.5v2.5zM229.8 169.6c0 1.1-.8 1.9-1.9 1.9s-1.9-.8-1.9-1.9.8-1.9 1.9-1.9 1.9.8 1.9 1.9zm-3.1 0c0 .8.5 1.4 1.3 1.4s1.2-.6 1.2-1.4-.5-1.4-1.2-1.4-1.3.6-1.3 1.4zM233.8 171c-.4.4-.8.5-1.4.5-1.1 0-1.8-.8-1.8-1.9s.8-1.9 1.8-1.9 1 .2 1.3.6l-.4.4c-.3-.3-.6-.4-.9-.4-.7 0-1.2.6-1.2 1.4s.5 1.4 1.2 1.4.6-.1.9-.4l.4.4zM235.3 168.3c.3-.4.7-.6 1.1-.6s.7.1.9.3c.2.2.3.5.3 1v2.5h-.6v-2.4c0-.5-.2-.8-.7-.8s-.5.1-.7.3c-.2.2-.2.4-.2.7v2.2h-.6v-5.3h.6v2.2zM239.3 169.8c0 .3 0 .5.2.7.2.3.6.5 1 .5s.9-.2 1.1-.6l.5.2c-.3.6-.9 1-1.6 1-1.1 0-1.9-.8-1.9-1.9s.8-1.9 1.9-1.9 1.9.8 1.9 1.9v.2h-3.1zm2.4-.4c0-.3 0-.4-.2-.6-.2-.3-.6-.5-1-.5s-.8.2-1 .5c-.1.2-.2.3-.2.6h2.4zM244 167.8v.5c.3-.4.6-.6 1.1-.6s.6.1.9.3c.2.2.3.5.3 1v2.5h-.6v-2.4c0-.3 0-.5-.1-.6-.1-.2-.3-.2-.6-.2s-.5.1-.7.3c-.2.2-.2.4-.2.7v2.2h-.6v-3.7h.6zM247.6 172.7h-.4l.7-2.1.6.2-.8 1.9zM252.7 168.5h2.1v.6h-2.1v1.8h2.1v.6H252v-5.3h2.8v.6h-2.1v1.8zM257.7 168.8c0-.4-.3-.6-.7-.6s-.7.2-.7.5.2.4.8.6c.5.1.7.2.9.4.2.2.3.4.3.7 0 .6-.5 1.1-1.3 1.1s-1.3-.4-1.4-1.1h.6c0 .4.3.6.8.6s.7-.2.7-.5-.2-.5-.8-.6c-.8-.2-1.2-.6-1.2-1.1s.5-1.1 1.3-1.1 1.3.4 1.3 1.1h-.6zM261.3 168.8c0-.4-.3-.6-.7-.6s-.7.2-.7.5.2.4.8.6c.5.1.7.2.9.4.2.2.3.4.3.7 0 .6-.5 1.1-1.3 1.1s-1.3-.4-1.4-1.1h.6c0 .4.3.6.8.6s.7-.2.7-.5-.2-.5-.8-.6c-.8-.2-1.2-.6-1.2-1.1s.5-1.1 1.3-1.1 1.3.4 1.3 1.1h-.6zM263.4 169.8c0 .3 0 .5.2.7.2.3.6.5 1 .5s.9-.2 1.1-.6l.5.2c-.3.6-.9 1-1.6 1-1.1 0-1.9-.8-1.9-1.9s.8-1.9 1.9-1.9 1.9.8 1.9 1.9v.2h-3.1zm2.4-.4c0-.3 0-.4-.2-.6-.2-.3-.6-.5-1-.5s-.8.2-1 .5c-.1.2-.2.3-.2.6h2.4zM268.2 167.8v.5c.3-.4.6-.6 1.1-.6s.6.1.9.3c.2.2.3.5.3 1v2.5h-.6v-2.4c0-.3 0-.5-.1-.6-.1-.2-.3-.2-.6-.2s-.5.1-.7.3c-.2.2-.2.4-.2.7v2.2h-.6v-3.7h.6zM271.7 172.7h-.4l.7-2.1.6.2-.8 1.9zM227.5 175.1h.7l-1.6 5.3h-.6l-1.2-4.2-1.2 4.2h-.6l-1.6-5.3h.7l1.2 4.1 1.2-4.1h.6l1.1 4.1 1.2-4.1zM232.4 178.6c0 1.1-.8 1.9-1.9 1.9s-1.9-.8-1.9-1.9.8-1.9 1.9-1.9 1.9.8 1.9 1.9zm-3.1 0c0 .8.5 1.4 1.3 1.4s1.2-.6 1.2-1.4-.5-1.4-1.2-1.4-1.3.6-1.3 1.4zM234.1 177.3c.3-.4.7-.6 1.1-.6s.7.1.9.3c.2.2.3.5.3 1v2.5h-.6v-2.4c0-.5-.2-.8-.7-.8s-.5.1-.7.3c-.2.2-.2.4-.2.7v2.2h-.6v-5.3h.6v2.2zM238.3 176.8v.5c.3-.4.6-.6 1.1-.6s.6.1.9.3c.2.2.3.5.3 1v2.5h-.6v-2.4c0-.3 0-.5-.1-.6-.1-.2-.3-.2-.6-.2s-.5.1-.7.3c-.2.2-.2.4-.2.7v2.2h-.6v-3.7h.6zM242.3 178.8c0 .3 0 .5.2.7.2.3.6.5 1 .5s.9-.2 1.1-.6l.5.2c-.3.6-.9 1-1.6 1-1.1 0-1.9-.8-1.9-1.9s.8-1.9 1.9-1.9 1.9.8 1.9 1.9v.2h-3.1zm2.4-.4c0-.3 0-.4-.2-.6-.2-.3-.6-.5-1-.5s-.8.2-1 .5c-.1.2-.2.3-.2.6h2.4zM247 176.8v.5c.3-.4.6-.6 1.1-.6s.6.1.9.3c.2.2.3.5.3 1v2.5h-.6v-2.4c0-.3 0-.5-.1-.6-.1-.2-.3-.2-.6-.2s-.5.1-.7.3c-.2.2-.2.4-.2.7v2.2h-.6v-3.7h.6zM224.7 188.9v.6h-3l1.9-2.7c.5-.8.7-1 .7-1.3 0-.5-.4-.8-.9-.8s-.7.2-.8.4v.6h-.6c0-1 .6-1.6 1.5-1.6s1.5.5 1.5 1.3-.2.8-.6 1.5l-1.4 2h1.9zM225.6 188.3v-.5l2.8-3.7v3.6h.6v.6h-.6v1.2h-.6v-1.2h-2.1zm2.1-2.6l-1.5 2h1.5v-2zM230.7 189.1c0 .2-.2.4-.4.4s-.4-.2-.4-.4.2-.4.4-.4.4.2.4.4zM235 187.9c0 .6-.1 1-.4 1.2-.3.3-.7.4-1.2.4s-1-.2-1.2-.5c-.3-.3-.4-.6-.4-1.4v-1.8c0-.7 0-1 .3-1.3.3-.3.7-.5 1.2-.5s.9.1 1.2.4c.3.3.4.6.4 1.2v2.1zm-2.5-.1c0 .6 0 .7.2.9.2.2.5.3.8.3s.6-.1.8-.4c.1-.2.2-.4.2-.8v-2c0-.4 0-.6-.3-.8-.2-.2-.4-.2-.7-.2s-.6.1-.8.4c-.1.2-.2.4-.2.8v1.8zM238.4 185.8v.5c.3-.4.6-.6 1-.6s.8.2 1 .7c.3-.5.6-.7 1.2-.7s.7.1.9.4c.2.2.2.4.2 1v2.4h-.6v-2.2c0-.4 0-.6-.1-.7-.1-.2-.4-.3-.6-.3-.5 0-.8.4-.8 1v2.2h-.6v-2.2c0-.4 0-.5-.1-.7-.1-.2-.3-.3-.6-.3-.5 0-.9.4-.9 1v2.2h-.6v-3.7h.6zM246 187v.4h-2l1.2-1.6c.3-.5.4-.6.4-.8 0-.3-.2-.4-.5-.4s-.5.2-.5.6h-.4c0-.6.4-1 1-1s1 .3 1 .8-.1.5-.4.9l-.8 1.1h1.1z"/><g><path d="M52.8 198.9h2.1v.6h-2.1v1.8h2.1v.6h-2.8v-5.3h2.8v.6h-2.1v1.8zM56.8 197.1c0 .2-.2.4-.4.4s-.4-.2-.4-.4.2-.4.4-.4.4.2.4.4zm0 4.7h-.6v-3.7h.6v3.7zM58.7 198.2v.5c.3-.4.6-.6 1.1-.6s.6.1.9.3c.2.2.3.5.3 1v2.5h-.6v-2.4c0-.3 0-.5-.1-.6-.1-.2-.3-.2-.6-.2s-.5.1-.7.3c-.2.2-.2.4-.2.7v2.2h-.6v-3.7h.6zM65 198.2h.6v3.7c0 .6-.2 1-.5 1.4-.3.3-.8.5-1.4.5s-1.2-.2-1.6-.7l.4-.4c.2.2.2.2.4.3.2.1.6.2.9.2s.8-.1 1-.4c.2-.2.3-.5.3-.9v-.8c-.4.5-.8.8-1.4.8-1 0-1.7-.8-1.7-1.9s.2-1.2.6-1.5c.3-.3.7-.4 1.2-.4s.9.2 1.3.7v-.6zm-2.4 1.8c0 .8.5 1.4 1.2 1.4s.7-.2.9-.4c.2-.2.3-.5.3-.9s0-.7-.3-1c-.2-.2-.6-.4-.9-.4-.7 0-1.2.6-1.2 1.4zM69.9 198.2h.6v3.7h-.6v-.7c-.4.6-.8.8-1.3.8-1 0-1.7-.8-1.7-1.9s.7-1.9 1.8-1.9 1 .2 1.3.7v-.6zm-2.1.9c-.2.3-.3.6-.3 1 0 .8.5 1.4 1.2 1.4s1.3-.6 1.3-1.4-.5-1.4-1.2-1.4-.7.1-.9.4zM72.4 198.2v.5c.3-.4.6-.6 1.1-.6s.6.1.9.3c.2.2.3.5.3 1v2.5h-.6v-2.4c0-.3 0-.5-.1-.6-.1-.2-.3-.2-.6-.2s-.5.1-.7.3c-.2.2-.2.4-.2.7v2.2h-.6v-3.7h.6zM78.8 198.2h.6v3.7c0 .6-.2 1-.5 1.4-.3.3-.8.5-1.4.5s-1.2-.2-1.6-.7l.4-.4c.2.2.2.2.4.3.2.1.6.2.9.2s.8-.1 1-.4c.2-.2.3-.5.3-.9v-.8c-.4.5-.8.8-1.4.8-1 0-1.7-.8-1.7-1.9s.2-1.2.6-1.5c.3-.3.7-.4 1.2-.4s.9.2 1.3.7v-.6zm-2.4 1.8c0 .8.5 1.4 1.2 1.4s.7-.2.9-.4c.2-.2.3-.5.3-.9s0-.7-.3-1c-.2-.2-.6-.4-.9-.4-.7 0-1.2.6-1.2 1.4z"/></g><g><path d="M154.5 321.6c0 .6.4.9.9.9s1-.4 1-.9-.2-.7-1.1-1c-.6-.2-.8-.3-1.1-.5-.3-.2-.4-.6-.4-1 0-.9.6-1.5 1.6-1.5s1.6.6 1.6 1.5h-.7c0-.3 0-.4-.1-.6-.2-.2-.4-.4-.8-.4-.5 0-.9.4-.9.9s.1.5.3.6c.2.1.3.2.9.4.6.2.8.3 1.1.6.2.2.4.6.4.9 0 .9-.7 1.5-1.7 1.5s-1.1-.2-1.4-.7c-.1-.2-.2-.4-.2-.7h.6zM159 318.3c0 .2-.2.4-.4.4s-.4-.2-.4-.4.2-.4.4-.4.4.2.4.4zm0 4.7h-.6v-3.7h.6v3.7zM161 322.3c0 .2 0 .2.3.2h.3v.5h-.6c-.4 0-.6-.2-.6-.6v-2.6h-.5v-.5h.5v-1.2h.6v1.2h.6v.5h-.6v2.4zM165 322.5v.5h-2.7l1.9-3.2h-1.7v-.5h2.7l-1.9 3.2h1.7zM166.7 319.3v.7c.4-.5.7-.8 1.3-.8 1 0 1.7.8 1.7 1.9s-.7 2-1.7 2-.6 0-.8-.2c-.2-.1-.3-.2-.5-.5v2.3h-.6v-5.4h.6zm0 1.9c0 .8.5 1.3 1.2 1.3s1.2-.6 1.2-1.4-.1-.8-.3-1-.5-.4-.9-.4c-.7 0-1.2.6-1.2 1.4zM170.9 323v-5.3h.6v5.3h-.6zM175.7 319.3h.6v3.7h-.6v-.7c-.4.6-.8.8-1.3.8-1 0-1.7-.8-1.7-1.9s.7-1.9 1.8-1.9 1 .2 1.3.7v-.6zm-2.1.9c-.2.3-.3.6-.3 1 0 .8.5 1.4 1.2 1.4s1.3-.6 1.3-1.4-.5-1.4-1.2-1.4-.7.1-.9.4zM178.3 322.3c0 .2 0 .2.3.2h.3v.5h-.6c-.4 0-.6-.2-.6-.6v-2.6h-.5v-.5h.5v-1.2h.6v1.2h.6v.5h-.6v2.4zM182.3 322.5v.5h-2.7l1.9-3.2h-1.7v-.5h2.7l-1.9 3.2h1.7zM156.9 331.4v.6h-3l1.9-2.7c.5-.8.7-1 .7-1.3 0-.5-.4-.8-.9-.8s-.7.2-.8.4v.6h-.6c0-1 .6-1.6 1.5-1.6s1.5.5 1.5 1.3-.2.8-.6 1.5l-1.4 2h1.9zM158.2 327.4v-.6h3l-1.6 2c.9 0 1.6.7 1.6 1.6s-.8 1.7-1.8 1.7-1.4-.5-1.6-1.3h.6c.1.4.5.7 1 .7s1.2-.5 1.2-1.1-.5-1.1-1.2-1.1-.4 0-.6.2l-.3-.2 1.5-1.9h-1.9zM163.1 331.7c0 .2-.2.4-.4.4s-.4-.2-.4-.4.2-.4.4-.4.4.2.4.4zM167.4 330.4c0 .6-.1 1-.4 1.2-.3.3-.7.4-1.2.4s-1-.2-1.2-.5c-.3-.3-.4-.6-.4-1.4v-1.8c0-.7 0-1 .3-1.3.3-.3.7-.5 1.2-.5s.9.1 1.2.4c.3.3.4.6.4 1.2v2.1zm-2.5-.1c0 .6 0 .7.2.9.2.2.5.3.8.3s.6-.1.8-.4c.1-.2.2-.4.2-.8v-2c0-.4 0-.6-.3-.8-.2-.2-.4-.2-.7-.2s-.6.1-.8.4c-.1.2-.2.4-.2.8v1.8zM170.7 328.3v.5c.3-.4.6-.6 1-.6s.8.2 1 .7c.3-.5.6-.7 1.2-.7s.7.1.9.4c.2.2.2.4.2 1v2.4h-.6v-2.2c0-.4 0-.6-.1-.7-.1-.2-.4-.3-.6-.3-.5 0-.8.4-.8 1v2.2h-.6v-2.2c0-.4 0-.5-.1-.7-.1-.2-.3-.3-.6-.3-.5 0-.9.4-.9 1v2.2h-.6v-3.7h.6zM178.3 329.5v.4h-2l1.2-1.6c.3-.5.4-.6.4-.8 0-.3-.2-.4-.5-.4s-.5.2-.5.6h-.4c0-.6.4-1 1-1s1 .3 1 .8-.1.5-.4.9l-.8 1.1h1.1z"/></g><g><path d="M226.9 125.6h2.1v.6h-2.1v1.8h2.1v.6h-2.8v-5.3h2.8v.6h-2.1v1.8zM230.8 124.9v.5c.3-.4.6-.6 1.1-.6s.6.1.9.3c.2.2.3.5.3 1v2.5h-.6v-2.4c0-.3 0-.5-.1-.6-.1-.2-.3-.2-.6-.2s-.5.1-.7.3c-.2.2-.2.4-.2.7v2.2h-.6v-3.7h.6zM235.1 127.8c0 .2 0 .2.3.2h.3v.5h-.6c-.4 0-.6-.2-.6-.6v-2.6h-.5v-.5h.5v-1.2h.6v1.2h.6v.5h-.6v2.4zM237.3 124.9v.6c.1-.3.2-.4.3-.5.2-.1.4-.2.7-.2h.1v.6h-.2c-.3 0-.6.2-.8.4-.2.2-.2.4-.2.9v1.9h-.6v-3.7h.6zM239.7 126.9c0 .3 0 .5.2.7.2.3.6.5 1 .5s.9-.2 1.1-.6l.5.2c-.3.6-.9 1-1.6 1-1.1 0-1.9-.8-1.9-1.9s.8-1.9 1.9-1.9 1.9.8 1.9 1.9v.2h-3.1zm2.4-.4c0-.3 0-.4-.2-.6-.2-.3-.6-.5-1-.5s-.8.2-1 .5c-.1.2-.2.3-.2.6h2.4zm-.2-3.2l-.9 1.1h-.4l.7-1.1h.7zM244.3 126.9c0 .3 0 .5.2.7.2.3.6.5 1 .5s.9-.2 1.1-.6l.5.2c-.3.6-.9 1-1.6 1-1.1 0-1.9-.8-1.9-1.9s.8-1.9 1.9-1.9 1.9.8 1.9 1.9v.2h-3.1zm2.4-.4c0-.3 0-.4-.2-.6-.2-.3-.6-.5-1-.5s-.8.2-1 .5c-.1.2-.2.3-.2.6h2.4zM227.2 134.4c.2 0 .3-.1.5-.1.9 0 1.6.7 1.6 1.6s-.8 1.7-1.7 1.7-1.7-.8-1.7-1.7.1-.7.4-1.2l1.5-2.5h.7l-1.4 2.1zm-.7 1.5c0 .6.5 1.1 1.1 1.1s1.1-.5 1.1-1.1-.5-1.1-1.1-1.1-1.1.5-1.1 1.1zM231.2 137.2c0 .2-.2.4-.4.4s-.4-.2-.4-.4.2-.4.4-.4.4.2.4.4zM232.5 132.9v-.6h3l-1.6 2c.9 0 1.6.7 1.6 1.6s-.8 1.7-1.8 1.7-1.4-.5-1.6-1.3h.6c.1.4.5.7 1 .7s1.2-.5 1.2-1.1-.5-1.1-1.2-1.1-.4 0-.6.2l-.3-.2 1.5-1.9h-1.9zM238.9 133.9v.5c.3-.4.6-.6 1-.6s.8.2 1 .7c.3-.5.6-.7 1.2-.7s.7.1.9.4c.2.2.2.4.2 1v2.4h-.6v-2.2c0-.4 0-.6-.1-.7-.1-.2-.4-.3-.6-.3-.5 0-.8.4-.8 1v2.2h-.6v-2.2c0-.4 0-.5-.1-.7-.1-.2-.3-.3-.6-.3-.5 0-.9.4-.9 1v2.2h-.6v-3.7h.6zM246.5 135v.4h-2l1.2-1.6c.3-.5.4-.6.4-.8 0-.3-.2-.4-.5-.4s-.5.2-.5.6h-.4c0-.6.4-1 1-1s1 .3 1 .8-.1.5-.4.9l-.8 1.1h1.1z"/></g><g><path d="M264.6 93.8h1.4c1.6 0 2.6 1 2.6 2.6s-.3 1.6-.8 2.1c-.5.4-1.1.6-1.9.6h-1.3v-5.3zm.7 4.8h.2c.9 0 1.3 0 1.7-.4.5-.4.7-1 .7-1.8 0-1.3-.7-2-1.9-2h-.7v4.2zM272.5 95.4v2.4c0 .5 0 .8-.4 1-.3.2-.6.4-1.1.4s-.8-.1-1.1-.4c-.2-.2-.4-.6-.4-1v-2.4h.6v2.3c0 .5.3.9.8.9s.5-.1.7-.3c.1-.1.2-.3.2-.6v-2.4h.6zM275.6 96.4c0-.4-.3-.6-.7-.6s-.7.2-.7.5.2.4.8.6c.5.1.7.2.9.4.2.2.3.4.3.7 0 .6-.5 1.1-1.3 1.1s-1.3-.4-1.4-1.1h.6c0 .4.3.6.8.6s.7-.2.7-.5-.2-.5-.8-.6c-.8-.2-1.2-.6-1.2-1.1s.5-1.1 1.3-1.1 1.3.4 1.3 1.1h-.6zM280.3 98.7c-.4.4-.8.5-1.4.5-1.1 0-1.8-.8-1.8-1.9s.8-1.9 1.8-1.9 1 .2 1.3.6l-.4.4c-.3-.3-.6-.4-.9-.4-.7 0-1.2.6-1.2 1.4s.5 1.4 1.2 1.4.6-.1.9-.4l.4.4zM281.8 95.9c.3-.4.7-.6 1.1-.6s.7.1.9.3c.2.2.3.5.3 1v2.5h-.6v-2.4c0-.5-.2-.8-.7-.8s-.5.1-.7.3c-.2.2-.2.4-.2.7v2.2h-.6v-5.3h.6V96zM285.8 97.5c0 .3 0 .5.2.7.2.3.6.5 1 .5s.9-.2 1.1-.6l.5.2c-.3.6-.9 1-1.6 1-1.1 0-1.9-.8-1.9-1.9s.8-1.9 1.9-1.9 1.9.8 1.9 1.9v.2h-3.1zm2.4-.4c0-.3 0-.4-.2-.6-.2-.3-.6-.5-1-.5s-.8.2-1 .5c-.1.2-.2.3-.2.6h2.4zM264.5 103.4v-.6h3l-1.6 2c.9 0 1.6.7 1.6 1.6s-.8 1.7-1.8 1.7-1.4-.5-1.6-1.3h.6c.1.4.5.7 1 .7s1.2-.5 1.2-1.1-.5-1.1-1.2-1.1-.4 0-.6.2l-.3-.2 1.5-1.9h-1.9zM269.4 107.8c0 .2-.2.4-.4.4s-.4-.2-.4-.4.2-.4.4-.4.4.2.4.4zM273.4 105.6c.3.3.4.6.4 1 0 .9-.7 1.6-1.7 1.6s-1.6-.6-1.6-1.6.1-.8.4-1.1c.2-.2.3-.3.6-.4-.3 0-.4-.2-.5-.4-.2-.2-.3-.5-.3-.8 0-.8.6-1.3 1.5-1.3s1.4.6 1.4 1.3-.1.6-.3.8c-.1.2-.3.2-.5.3.3 0 .4.2.6.3zm-2.3 1c0 .6.5 1 1 1s1-.5 1-1-.5-1-1-1-1 .5-1 1zm.2-2.5c0 .5.4.8.8.8s.9-.4.9-.8-.4-.8-.8-.8-.9.3-.9.8zM277.1 104.4v.5c.3-.4.6-.6 1-.6s.8.2 1 .7c.3-.5.6-.7 1.2-.7s.7.1.9.4c.2.2.2.4.2 1v2.4h-.6v-2.2c0-.4 0-.6-.1-.7-.1-.2-.4-.3-.6-.3-.5 0-.8.4-.8 1v2.2h-.6v-2.2c0-.4 0-.5-.1-.7-.1-.2-.3-.3-.6-.3-.5 0-.9.4-.9 1v2.2h-.6v-3.7h.6zM284.7 105.6v.4h-2l1.2-1.6c.3-.5.4-.6.4-.8 0-.3-.2-.4-.5-.4s-.5.2-.5.6h-.4c0-.6.4-1 1-1s1 .3 1 .8-.1.5-.4.9l-.8 1.1h1.1z"/></g><g><path d="M44.3 120.2v.6h-2.5v-5.3h.7v4.7h1.9zM45.9 116.1c0 .2-.2.4-.4.4s-.4-.2-.4-.4.2-.4.4-.4.4.2.4.4zm0 4.7h-.6v-3.7h.6v3.7zM47.9 120.8h-.6v-3.2h-.5v-.5h.5v-.5c0-.7.4-1.2 1-1.2h.2v.5c-.4 0-.6.2-.6.6v.5h.6v.5h-.6v3.2zM50.3 120.1c0 .2 0 .2.3.2h.3v.5h-.6c-.4 0-.6-.2-.6-.6v-2.6h-.5v-.5h.5v-1.2h.6v1.2h.6v.5h-.6v2.4z"/></g></g></svg>