<svg xmlns="http://www.w3.org/2000/svg" viewBox="0 0 416.3 458.2"><defs><style>.cls-1,.cls-10,.cls-11,.cls-12,.cls-13,.cls-14,.cls-15,.cls-16,.cls-17,.cls-18,.cls-19,.cls-2,.cls-20,.cls-21,.cls-22,.cls-23,.cls-3,.cls-4,.cls-5,.cls-6,.cls-7,.cls-8,.cls-9{fill:none}.cls-1,.cls-10,.cls-11,.cls-12,.cls-13,.cls-14,.cls-15,.cls-16,.cls-17,.cls-18,.cls-19,.cls-2,.cls-20,.cls-21,.cls-22,.cls-23,.cls-3,.cls-4,.cls-5,.cls-6,.cls-7,.cls-8{stroke-linecap:round;stroke-linejoin:round}.cls-1,.cls-10,.cls-12,.cls-13,.cls-14,.cls-15,.cls-16,.cls-17,.cls-18,.cls-19,.cls-2,.cls-20,.cls-21,.cls-22,.cls-3,.cls-4,.cls-5,.cls-6,.cls-7{stroke-width:.1px}.cls-1,.cls-12,.cls-14,.cls-20,.cls-22,.cls-3,.cls-4,.cls-5{stroke:#32648c}.cls-1,.cls-20,.cls-3,.cls-4{stroke-dasharray:0 0 0 0 2.9 1.4 .2 1.4}.cls-2{stroke:#646464}.cls-14,.cls-3{stroke-dashoffset:1px}.cls-24{clip-path:url(#clippath)}.cls-4{stroke-dashoffset:4.3px}.cls-10,.cls-12,.cls-13,.cls-14,.cls-15,.cls-16,.cls-17,.cls-18,.cls-19,.cls-5,.cls-6,.cls-7{stroke-dasharray:0 0 1.4 1.4}.cls-6{stroke-dashoffset:2.5px}.cls-10,.cls-13,.cls-15,.cls-16,.cls-17,.cls-18,.cls-19,.cls-21,.cls-6,.cls-7{stroke:#969696}.cls-25,.cls-26{fill:#fff}.cls-8{stroke:#000;stroke-width:.3px}.cls-9{clip-rule:evenodd}.cls-10{stroke-dashoffset:2.8px}.cls-11{stroke:#4c4c4c;stroke-width:.1px}.cls-27{clip-path:url(#clippath-1)}.cls-28{clip-path:url(#clippath-4)}.cls-29{clip-path:url(#clippath-3)}.cls-30{clip-path:url(#clippath-2)}.cls-31{clip-path:url(#clippath-6)}.cls-32{clip-path:url(#clippath-5)}.cls-12{stroke-dashoffset:.2px}.cls-13{stroke-dashoffset:2.8px}.cls-15{stroke-dashoffset:2.4px}.cls-16{stroke-dashoffset:2.7px}.cls-17{stroke-dashoffset:2.5px}.cls-18{stroke-dashoffset:1.4px}.cls-19{stroke-dashoffset:.7px}.cls-26,.cls-33{fill-rule:evenodd}.cls-20{stroke-dashoffset:1.2px}.cls-23{stroke:#194164;stroke-width:.3px}</style><clipPath id="clippath"><path class="cls-9" d="M13 443.4h192l14.9 14.8H13"/></clipPath><clipPath id="clippath-1"><path class="cls-9" d="M205 443.4v-9.6h14.9v24.4"/></clipPath><clipPath id="clippath-2"><path class="cls-9" d="M205 450.8v-9.4l14.9-15.1v24.5"/></clipPath><clipPath id="clippath-3"><path class="cls-9" d="M205 441.4H13v-15.1h206.9"/></clipPath><clipPath id="clippath-4"><path class="cls-9" d="M212.5 441.4H13v-15.1h199.5"/></clipPath><clipPath id="clippath-5"><path class="cls-9" d="M25.8 430.6h-2.2v-14.8h1.2"/></clipPath><clipPath id="clippath-6"><path class="cls-9" d="M24.1 401.1h-2.4v-14.9h1.7"/></clipPath></defs><g id="Plan"><path class="cls-22" d="M317.6 452.3H316V342h-5.7v115.9h7.3M14.4 452.3h199.5V342h5.7v115.9H14.4"/><path class="cls-21" d="M13 450.8l1 .2M14 451l1.2-.2M15.2 450.8l1-.2M16.2 450.6l.9.2M17.1 450.8l1.2.2M18.3 451l1-.2M19.3 450.8l1.2-.2M20.5 450.6l.9.2M21.4 450.8l1.2.2M22.6 451l1-.2M23.6 450.8l1-.2M24.6 450.6l1.2.2M25.8 450.8l.9.2M26.7 451l1.2-.2M27.9 450.8l1-.2M28.9 450.6l1.2.2M30.1 450.8l.9.2M31 451l1.2-.2M32.2 450.8l1-.2M33.2 450.6l1 .2M34.2 450.8l1.2.2M35.4 451l.9-.2M36.3 450.8l1.2-.2M37.5 450.6l1 .2M38.5 450.8l1.2.2M39.7 451l.9-.2M40.6 450.8l1-.2M41.6 450.6l1.2.2M42.8 450.8l1 .2M43.8 451l1.2-.2M45 450.8l.9-.2M45.9 450.6l1.2.2M47.1 450.8l1 .2M48.1 451l.9-.2M49 450.8l1.2-.2M50.2 450.6l1 .2M51.2 450.8l1.2.2M52.4 451l1-.2M53.4 450.8l1.2-.2M54.6 450.6l.9.2M55.5 450.8l1 .2M56.5 451l1.2-.2M57.7 450.8l.9-.2M58.6 450.6l1.2.2M59.8 450.8l1 .2M60.8 451l1.2-.2M62 450.8l1-.2M63 450.6l.9.2M63.9 450.8l1.2.2M65.1 451l1-.2M66.1 450.8l1.2-.2M67.3 450.6l.9.2M68.2 450.8l1.2.2M69.4 451l1-.2M70.4 450.8l1-.2M71.4 450.6l1.2.2M72.6 450.8l.9.2M73.5 451l1.2-.2M74.7 450.8l1-.2M75.7 450.6l1.2.2M76.9 450.8l.9.2M77.8 451l1-.2M78.8 450.8l1.2-.2M80 450.6l1 .2M81 450.8l1.2.2M82.2 451l.9-.2M83.1 450.8l1.2-.2M84.3 450.6l1 .2M85.3 450.8l.9.2M86.2 451l1.2-.2M87.4 450.8l1-.2M88.4 450.6l1.2.2M89.6 450.8l1 .2M90.6 451l1.2-.2M91.8 450.8l.9-.2M92.7 450.6l1 .2M93.7 450.8l1.2.2M94.9 451l.9-.2M95.8 450.8l1.2-.2M97 450.6l1 .2M98 450.8l1.2.2M99.2 451l1-.2M100.2 450.8l.9-.2M101.1 450.6l1.2.2M102.3 450.8l1 .2M103.3 451l1.2-.2M104.5 450.8l.9-.2M105.4 450.6l1.2.2M106.6 450.8l1 .2M107.6 451l1-.2M108.6 450.8l1.2-.2M109.8 450.6l.9.2M110.7 450.8l1.2.2M111.9 451l1-.2M112.9 450.8l1.2-.2M114.1 450.6l.9.2M115 450.8l1 .2M116 451l1.2-.2M117.2 450.8l1-.2M118.2 450.6l1.2.2M119.4 450.8l.9.2M120.3 451l1.2-.2M121.5 450.8l1-.2M122.5 450.6l.9.2M123.4 450.8l1.2.2M124.6 451l1-.2M125.6 450.8l1.2-.2M126.8 450.6l1 .2M127.8 450.8l1.2.2M129 451l.9-.2M129.9 450.8l1-.2M130.9 450.6l1.2.2M132.1 450.8l.9.2M133 451l1.2-.2M134.2 450.8l1-.2M135.2 450.6l1.2.2M136.4 450.8l1 .2M137.4 451l.9-.2M138.3 450.8l1.2-.2M139.5 450.6l1 .2M140.5 450.8l1.2.2M141.7 451l.9-.2M142.6 450.8l1.2-.2M143.8 450.6l1 .2M144.8 450.8l1 .2M145.8 451l1.2-.2M147 450.8l.9-.2M147.9 450.6l1.2.2M149.1 450.8l1 .2M150.1 451l1.2-.2M151.3 450.8l.9-.2M152.2 450.6l1 .2M153.2 450.8l1.2.2M154.4 451l1-.2M155.4 450.8l1.2-.2M156.6 450.6l.9.2M157.5 450.8l1.2.2M158.7 451l1-.2M159.7 450.8l.9-.2M160.6 450.6l1.2.2M161.8 450.8l1 .2M162.8 451l1.2-.2M164 450.8l1-.2M165 450.6l1.2.2M166.2 450.8l.9.2M167.1 451l1-.2M168.1 450.8l1.2-.2M169.3 450.6l.9.2M170.2 450.8l1.2.2M171.4 451l1-.2M172.4 450.8l1.2-.2M173.6 450.6l1 .2M174.6 450.8l.9.2M175.5 451l1.2-.2M176.7 450.8l1-.2M177.7 450.6l1.2.2M178.9 450.8l.9.2M179.8 451l1.2-.2M181 450.8l1-.2M182 450.6l1 .2M183 450.8l1.2.2M184.2 451l.9-.2M185.1 450.8l1.2-.2M186.3 450.6l1 .2M187.3 450.8l1.2.2M188.5 451l.9-.2M189.4 450.8l1-.2M190.4 450.6l1.2.2M191.6 450.8l1 .2M192.6 451l1.2-.2M193.8 450.8l.9-.2M194.7 450.6l1.2.2M195.9 450.8l1 .2M196.9 451l.9-.2M197.8 450.8l1.2-.2M199 450.6l1 .2M200 450.8l1.2.2M201.2 451l1-.2M202.2 450.8l1.2-.2M203.4 450.6l.9.2M204.3 450.8l1 .2M205.3 451l1.2-.2M206.5 450.8l.9-.2M207.4 450.6l1.2.2"/><g class="cls-24"><path class="cls-21" d="M208.6 450.8l1 .2M209.6 451l1.2-.2M210.8 450.8l1-.2M211.8 450.6l.9.2"/></g><g class="cls-27"><path class="cls-21" d="M212.5 454.9l.2-1.2M212.7 453.7l-.2-1M212.5 452.7l-.3-1.2M212.2 451.5l.3-.9"/></g><path class="cls-21" d="M212.5 450.6l.2-1M212.7 449.6l-.2-1.2M212.5 448.4l-.3-1M212.2 447.4l.3-1.2M212.5 446.2l.2-.9M212.7 445.3l-.2-1.2M212.5 444.1l-.3-1M212.2 443.1l.3-.9M212.5 442.2l.2-1.2M212.7 441l-.2-1M212.5 440l-.3-1.2M212.2 438.8l.3-1"/><g class="cls-30"><path class="cls-21" d="M212.5 437.8l.2-1.2M212.7 436.6l-.2-.9M212.5 435.7l-.3-1M212.2 434.7l.3-1.2"/></g><g class="cls-29"><path class="cls-21" d="M216.6 433.8l-1.2-.3M215.4 433.5l-1 .3M214.4 433.8l-1.2.4M213.2 434.2l-1-.4"/></g><path class="cls-21" d="M212.2 433.8l-.9-.3M211.3 433.5l-1.2.3M210.1 433.8l-1 .4M209.1 434.2l-1.2-.4M207.9 433.8l-.9-.3M207 433.5l-1.2.3M205.8 433.8l-1 .4M204.8 434.2l-1-.4M203.8 433.8l-1.2-.3M202.6 433.5l-.9.3M201.7 433.8l-1.2.4M200.5 434.2l-1-.4M199.5 433.8l-1.2-.3M198.3 433.5l-.9.3M197.4 433.8l-1 .4M196.4 434.2l-1.2-.4M195.2 433.8l-1-.3M194.2 433.5l-1.2.3M193 433.8l-.9.4M192.1 434.2l-1.2-.4M190.9 433.8l-1-.3M189.9 433.5l-.9.3M189 433.8l-1.2.4M187.8 434.2l-1-.4M186.8 433.8l-1.2-.3M185.6 433.5l-1 .3M184.6 433.8l-1.2.4M183.4 434.2l-.9-.4M182.5 433.8l-1-.3M181.5 433.5l-1.2.3M180.3 433.8l-.9.4M179.4 434.2l-1.2-.4M178.2 433.8l-1-.3M177.2 433.5l-1.2.3M176 433.8l-1 .4M175 434.2l-.9-.4M174.1 433.8l-1.2-.3M172.9 433.5l-1 .3M171.9 433.8l-1.2.4M170.7 434.2l-.9-.4M169.8 433.8l-1.2-.3M168.6 433.5l-1 .3M167.6 433.8l-1 .4M166.6 434.2l-1.2-.4M165.4 433.8l-.9-.3M164.5 433.5l-1.2.3M163.3 433.8l-1 .4M162.3 434.2l-1.2-.4M161.1 433.8l-.9-.3M160.2 433.5l-1 .3M159.2 433.8l-1.2.4M158 434.2l-1-.4M157 433.8l-1.2-.3M155.8 433.5l-.9.3M154.9 433.8l-1.2.4M153.7 434.2l-1-.4M152.7 433.8l-.9-.3M151.8 433.5l-1.2.3M150.6 433.8l-1 .4M149.6 434.2l-1.2-.4M148.4 433.8l-1-.3M147.4 433.5l-1.2.3M146.2 433.8l-.9.4M145.3 434.2l-1-.4M144.3 433.8l-1.2-.3M143.1 433.5l-.9.3M142.2 433.8l-1.2.4M141 434.2l-1-.4M140 433.8l-1.2-.3M138.8 433.5l-1 .3M137.8 433.8l-.9.4M136.9 434.2l-1.2-.4M135.7 433.8l-1-.3M134.7 433.5l-1.2.3M133.5 433.8l-.9.4M132.6 434.2l-1.2-.4M131.4 433.8l-1-.3M130.4 433.5l-1 .3M129.4 433.8l-1.2.4M128.2 434.2l-.9-.4M127.3 433.8l-1.2-.3M126.1 433.5l-1 .3M125.1 433.8l-1.2.4M123.9 434.2l-.9-.4M123 433.8l-1-.3M122 433.5l-1.2.3M120.8 433.8l-1 .4M119.8 434.2l-1.2-.4M118.6 433.8l-.9-.3M117.7 433.5l-1.2.3M116.5 433.8l-1 .4M115.5 434.2l-.9-.4M114.6 433.8l-1.2-.3M113.4 433.5l-1 .3M112.4 433.8l-1.2.4M111.2 434.2l-1-.4M110.2 433.8l-1.2-.3M109 433.5l-.9.3M108.1 433.8l-1 .4M107.1 434.2l-1.2-.4M105.9 433.8l-.9-.3M105 433.5l-1.2.3M103.8 433.8l-1 .4M102.8 434.2l-1.2-.4M101.6 433.8l-1-.3M100.6 433.5l-.9.3M99.7 433.8l-1.2.4M98.5 434.2l-1-.4M97.5 433.8l-1.2-.3M96.3 433.5l-.9.3M95.4 433.8l-1.2.4M94.2 434.2l-1-.4M93.2 433.8l-1-.3M92.2 433.5l-1.2.3M91 433.8l-.9.4M90.1 434.2l-1.2-.4M88.9 433.8l-1-.3M87.9 433.5l-1.2.3M86.7 433.8l-.9.4M85.8 434.2l-1-.4M84.8 433.8l-1.2-.3M83.6 433.5l-1 .3M82.6 433.8l-1.2.4M81.4 434.2l-.9-.4M80.5 433.8l-1.2-.3M79.3 433.5l-1 .3M78.3 433.8l-.9.4M77.4 434.2l-1.2-.4M76.2 433.8l-1-.3M75.2 433.5l-1.2.3M74 433.8l-1 .4M73 434.2l-1.2-.4M71.8 433.8l-.9-.3M70.9 433.5l-1 .3M69.9 433.8l-1.2.4M68.7 434.2l-.9-.4M67.8 433.8l-1.2-.3M66.6 433.5l-1 .3M65.6 433.8l-1.2.4M64.4 434.2l-1-.4M63.4 433.8l-.9-.3M62.5 433.5l-1.2.3M61.3 433.8l-1 .4M60.3 434.2l-1.2-.4M59.1 433.8l-.9-.3M58.2 433.5l-1.2.3M57 433.8l-1 .4M56 434.2l-1.2-.4M54.8 433.8l-1-.3M53.8 433.5l-.9.3M52.9 433.8l-1.2.4M51.7 434.2l-1-.4M50.7 433.8l-1.2-.3M49.5 433.5l-.9.3M48.6 433.8l-1.2.4M47.4 434.2l-1-.4M46.4 433.8l-1-.3M45.4 433.5l-1.2.3M44.2 433.8l-.9.4M43.3 434.2l-1.2-.4M42.1 433.8l-1-.3M41.1 433.5l-1.2.3M39.9 433.8l-.9.4M39 434.2l-1-.4M38 433.8l-1.2-.3M36.8 433.5l-1 .3M35.8 433.8l-1.2.4M34.6 434.2l-.9-.4M33.7 433.8l-1.2-.3M32.5 433.5l-1 .3M31.5 433.8l-.9.4M30.6 434.2l-1.2-.4M29.4 433.8l-1-.3M28.4 433.5l-1.2.3M27.2 433.8l-1 .4M26.2 434.2l-1.2-.4M25 433.8l-.9-.3M24.1 433.5l-1 .3M23.1 433.8l-1.2.4M21.9 434.2l-.9-.4M21 433.8l-1.2-.3M19.8 433.5l-1 .3M18.8 433.8l-1.2.4M17.6 434.2l-1-.4"/><g class="cls-28"><path class="cls-21" d="M16.6 433.8l-.9-.3M15.7 433.5l-1.2.3M14.5 433.8l-1 .4M13.5 434.2l-1.2-.4"/></g><path class="cls-23" d="M303.2 305.6l1.9 24-7.7.7-1.9-24 7.7-.7zM297.4 330.3v1M296.5 318.3l7.7-.7M295.5 306.3v-.9M234.6 306.3l-2 24-7.9-.7 1.9-24 8 .7zM232.6 330.3l-.2 1M233.6 318.3l-7.9-.7M234.6 306.3v-.9"/><path class="cls-33" d="M224.5 297.7l-5.8-5.5h16.8l-.5 5.5h-10.5"/><path class="cls-26" d="M218.7 292.2l5.8 5.5H235l.5-5.5h-16.8"/><path class="cls-21" d="M235.5 293.8v-1.6M234.1 297.7v-5.5M232.6 297.7v-5.5M231.2 297.7v-5.5M229.8 297.7v-5.5M228.3 297.7v-5.5M226.9 297.7v-5.5M225.7 297.7v-5.5M224.2 297.2v-5M222.8 296v-3.8M221.4 294.6v-2.4M219.9 293.1v-.9M224.5 297.7H235M218.7 292.2h16.8"/><path class="cls-22" d="M218.7 292.2h16.8M224.5 297.7H235"/><path class="cls-33" d="M294.8 297.7l-.5-5.5h16.1l-5.5 5.5h-10.1"/><path class="cls-26" d="M294.3 292.2l.5 5.5h10.1l5.5-5.5h-16.1"/><path class="cls-21" d="M309.2 293.6v-1.4M307.8 294.8v-2.6M306.3 296.2v-4M304.9 297.7v-5.5M303.4 297.7v-5.5M302 297.7v-5.5M300.8 297.7v-5.5M299.4 297.7v-5.5M297.9 297.7v-5.5M296.5 297.7v-5.5M295 297.7v-5.5M294.8 297.7h10.1M294.3 292.2h16.1"/><path class="cls-22" d="M294.3 292.2h16.1M294.8 297.7h10.1M200.7 223.3V212"/><path class="cls-8" d="M200 223.3v-12"/><path class="cls-22" d="M202.2 223.3v-9.9M200.7 223.3V212M200 223.3v-12M202.2 223.3v-9.9"/><path class="cls-8" d="M200.7 223.3h-.7"/><path class="cls-22" d="M202.2 223.3h-1.5M214.9 212h3.3M200.7 212h13.5"/><path class="cls-8" d="M200 211.3h18.2"/><path class="cls-22" d="M216.3 213.4h1.9M202.2 213.4h12M214.9 212h3.3M200.7 212h13.5"/><path class="cls-8" d="M218.2 212v-.7"/><path class="cls-22" d="M218.2 213.4V212M200 211.3h18.2M216.3 213.4h1.9M202.2 213.4h12M107.4 165.9H68"/><path class="cls-8" d="M107.4 166.6H67.3"/><path class="cls-22" d="M107.4 164.5h-38M107.4 165.9H68M107.4 166.6H67.3M107.4 164.5h-38"/><path class="cls-8" d="M107.4 165.9v.7"/><path class="cls-22" d="M107.4 164.5v1.4M68 162.1H49.8"/><path class="cls-8" d="M67.3 162.8H50.5"/><path class="cls-22" d="M69.4 160.6H48.3M68 162.1H49.8M67.3 162.8H50.5M69.4 160.6H48.3M49.8 165.9H21.4"/><path class="cls-8" d="M50.5 166.6H21.4"/><path class="cls-22" d="M48.3 164.5H21.4M49.8 165.9H21.4"/><path class="cls-8" d="M21.4 165.9v.7"/><path class="cls-22" d="M21.4 164.5v1.4M50.5 166.6H21.4M48.3 164.5H21.4"/><path class="cls-26" d="M76.6 181.8c1.3.9 3 .9 4.3 0 1.9-1.5 2.9-3.8 2.9-6.2l-.3-9h-9.6l-.3 9c0 2.4 1 4.7 2.9 6.2"/><path class="cls-22" d="M76.6 181.8c1.3.9 3 .9 4.3 0 1.9-1.5 2.9-3.8 2.9-6.2l-.3-9h-9.6l-.3 9c0 2.4 1 4.7 2.9 6.2"/><path class="cls-26" d="M78.7 171.6c-1 0-2 .3-2.8 1.1-.7.7-1.2 1.7-1.2 2.7 0 2.1.9 4.1 2.5 5.4.9.6 2 .6 2.9 0 1.6-1.3 2.5-3.3 2.5-5.4 0-1-.4-2-1.2-2.7-.7-.7-1.7-1.1-2.8-1.1"/><path class="cls-22" d="M78.7 171.6c-1 0-2 .3-2.8 1.1-.7.7-1.2 1.7-1.2 2.7 0 2.1.9 4.1 2.5 5.4.9.6 2 .6 2.9 0 1.6-1.3 2.5-3.3 2.5-5.4 0-1-.4-2-1.2-2.7-.7-.7-1.7-1.1-2.8-1.1"/><path class="cls-26" d="M21.8 167v48.1h.1v.1h.1v.1h20.8v-.1h.1l.1-.1V166.7h-.1l-.1-.1-.1-.1H22.1l-.1.1h-.1v.1h-.1V167"/><path class="cls-22" d="M21.8 167v48.1h.1v.1h.1v.1h20.8v-.1h.1l.1-.1V166.7h-.1l-.1-.1-.1-.1H22.1l-.1.1h-.1v.1h-.1V167"/><path class="cls-26" d="M23.9 172.2v38.1c0 .2.1.4.2.6 0 .2.2.4.3.6.1.2.3.4.4.5.2.2.3.3.5.4l.6.3c.2 0 .4.2.6.2H37.4c.4 0 .9 0 1.3-.3s.8-.4 1.1-.7c.3-.3.6-.7.7-1.1.2-.4.3-.9.3-1.3v-37.4-.7c0-.2-.1-.4-.2-.6 0-.2-.2-.4-.3-.6-.1-.2-.3-.4-.4-.5-.2-.2-.3-.3-.5-.4l-.6-.3c-.2 0-.4-.2-.6-.2H27.3c-.4 0-.9 0-1.3.3-.4.2-.8.4-1.1.7s-.6.7-.7 1.1c-.2.4-.3.9-.3 1.3"/><path class="cls-22" d="M23.9 172.2v38.1c0 .2.1.4.2.6 0 .2.2.4.3.6.1.2.3.4.4.5.2.2.3.3.5.4l.6.3c.2 0 .4.2.6.2H37.4c.4 0 .9 0 1.3-.3s.8-.4 1.1-.7c.3-.3.6-.7.7-1.1.2-.4.3-.9.3-1.3v-37.4-.7c0-.2-.1-.4-.2-.6 0-.2-.2-.4-.3-.6-.1-.2-.3-.4-.4-.5-.2-.2-.3-.3-.5-.4l-.6-.3c-.2 0-.4-.2-.6-.2H27.3c-.4 0-.9 0-1.3.3-.4.2-.8.4-1.1.7s-.6.7-.7 1.1c-.2.4-.3.9-.3 1.3"/><path class="cls-26" d="M51.1 166.5v12.4c0 .1.1.3.2.4.1.1.2.2.4.2h14.1s.1 0 .2-.1c0 0 .1 0 .2-.1s0-.1.1-.2c0 0 0-.1.1-.2v-.2-12.2H50.8"/><path class="cls-22" d="M51.1 166.5v12.4c0 .1.1.3.2.4.1.1.2.2.4.2h14.1s.1 0 .2-.1c0 0 .1 0 .2-.1s0-.1.1-.2c0 0 0-.1.1-.2v-.2-12.2H50.8"/><path class="cls-12" d="M67.5 166.6v-3.8"/><path class="cls-14" d="M67.5 162.8h-17"/><path class="cls-12" d="M50.5 162.8v3.8"/><path class="cls-22" d="M49.8 162.1v3.8"/><path class="cls-8" d="M50.5 162.8v3.8"/><path class="cls-22" d="M48.3 160.6v3.9M49.8 162.1v3.8M50.5 162.8v3.8M48.3 160.6v3.9M68 165.9v-3.8"/><path class="cls-8" d="M67.3 166.6v-3.8"/><path class="cls-22" d="M69.4 164.5v-3.9M68 165.9v-3.8M67.3 166.6v-3.8M69.4 164.5v-3.9"/><path class="cls-8" d="M67.3 166.6H50.5"/><path class="cls-33" d="M211.8 338v-5.5h6.9l5.8 5.5h-12.7"/><path class="cls-26" d="M211.8 332.5v5.5h12.7l-5.8-5.5h-6.9"/><path class="cls-21" d="M224.2 338v-.5M222.8 338v-1.7M221.4 338v-3.1M219.9 338v-4.6M218.5 338v-5.5M217 338v-5.5M215.6 338v-5.5M214.2 338v-5.5M212.7 338v-5.5M211.8 338h12.7M211.8 332.5h6.9"/><path class="cls-22" d="M211.8 332.5h6.9M211.8 338h12.7"/><path class="cls-33" d="M218.7 292.2l5.8 5.5V338l-5.8-5.5v-40.3"/><path class="cls-26" d="M224.5 297.7l-5.8-5.5v40.3l5.8 5.5v-40.3"/><path class="cls-21" d="M224.2 337.8h.5M222.8 336.3h1.9M221.4 334.9h3.3M219.9 333.4h4.8M219 332h5.7M219 330.6h5.7M219 329.4h5.7M219 327.9h5.7M219 326.5h5.7M219 325h5.7M219 323.6h5.7M219 322.2h5.7M219 320.7h5.7M219 319.3h5.7M219 317.8h5.7M219 316.4h5.7M219 315h5.7M219 313.8h5.7M219 312.3h5.7M219 310.9h5.7M219 309.4h5.7M219 308h5.7M219 306.6h5.7M219 305.1h5.7M219 303.7h5.7M219 302.2h5.7M219 300.8h5.7M219 299.6h5.7M219 298.2h5.7M219 296.7h4.5M219 295.3h3.1M219 293.8h1.6M219 292.4h.2M218.7 292.2v40.3M224.5 297.7V338"/><path class="cls-22" d="M224.5 297.7V338M218.7 292.2v40.3"/><path class="cls-33" d="M310.4 332.5l-5.5 5.5v-40.3l5.5-5.5v40.3"/><path class="cls-26" d="M304.9 338l5.5-5.5v-40.3l-5.5 5.5V338"/><path class="cls-21" d="M310.6 292.4h-.2M310.6 293.8H309M310.6 295.3h-3.1M310.6 296.7h-4.5M310.6 298.2h-5.5M310.6 299.6h-5.5M310.6 300.8h-5.5M310.6 302.2h-5.5M310.6 303.7h-5.5M310.6 305.1h-5.5M310.6 306.6h-5.5M310.6 308h-5.5M310.6 309.4h-5.5M310.6 310.9h-5.5M310.6 312.3h-5.5M310.6 313.8h-5.5M310.6 315h-5.5M310.6 316.4h-5.5M310.6 317.8h-5.5M310.6 319.3h-5.5M310.6 320.7h-5.5M310.6 322.2h-5.5M310.6 323.6h-5.5M310.6 325h-5.5M310.6 326.5h-5.5M310.6 327.9h-5.5M310.6 329.4h-5.5M310.6 330.6h-5.5M310.6 332h-5.5M309.4 333.4h-4.3M308 334.9h-2.9M306.6 336.3h-1.5M305.4 337.8h-.3M310.4 332.5v-40.3M304.9 338v-40.3"/><path class="cls-22" d="M304.9 338v-40.3M310.4 332.5v-40.3"/><path class="cls-33" d="M304.9 338l5.5-5.5h7.2v5.5h-12.7"/><path class="cls-26" d="M310.4 332.5l-5.5 5.5h12.7v-5.5h-7.2"/><path class="cls-21" d="M317.6 338v-5.5M316.4 338v-5.5M315 338v-5.5M313.5 338v-5.5M312.1 338v-5.5M310.6 338v-5.5M309.2 338v-4.1M307.8 338v-2.9M306.3 338v-1.4M304.9 338h12.7M310.4 332.5h7.2"/><path class="cls-22" d="M310.4 332.5h7.2M304.9 338h12.7"/><path class="cls-33" d="M38.2 327.2v14.9H14.5v-14.9h23.7"/><path class="cls-22" d="M14.7 342.1h23.8"/><path class="cls-26" d="M38.2 342.1v-3.4H14.5v3.4h23.7"/><path class="cls-21" d="M14.7 341.6l.3.5M15.7 338.7l3.3 3.4M19.8 338.7l3.3 3.4M23.6 338.7l3.4 3.4M27.7 338.7l3.3 3.4M31.8 338.7l3.3 3.4M35.6 338.7l2.9 2.7"/><path class="cls-26" d="M38.2 338.7v-.7H14.5v.7h23.7M38.2 338v-5.5H14.5v5.5h23.7"/><path class="cls-21" d="M15.9 332.5v5.5M17.1 332.5v5.5M18.6 332.5v5.5M20 332.5v5.5M21.4 332.5v5.5M22.9 332.5v5.5M24.3 332.5v5.5M25.8 332.5v5.5M27.2 332.5v5.5M28.6 332.5v5.5M30.1 332.5v5.5M31.3 332.5v5.5M32.7 332.5v5.5M34.2 332.5v5.5M35.6 332.5v5.5M37 332.5v5.5"/><path class="cls-26" d="M38.2 332.5v-5.3H14.5v5.3h23.7"/><path class="cls-21" d="M14.7 329.6l2.7 2.9M16.2 327.2l5.2 5.3M20.2 327.2l5.3 5.3M24.1 327.2l5.3 5.3M28.2 327.2l5.2 5.3M32.2 327.2l5.3 5.3M36.1 327.2l2.4 2.2"/><path class="cls-23" d="M38.2 338.7H14.5M38.2 342.1H14.5"/><path class="cls-21" d="M38.2 332.5H14.5M38.2 338H14.5"/><path class="cls-23" d="M38.2 327.2H14.5M38.2 332.5H14.5"/><path class="cls-22" d="M38.2 342.1H14.5M38.2 327.2H14.5"/><path class="cls-33" d="M126.6 327.2v14.9H79v-14.9h47.6"/><path class="cls-22" d="M79.3 342.1h47.5"/><path class="cls-26" d="M126.6 342.1v-3.4H79v3.4h47.6"/><path class="cls-21" d="M79.8 338.7l3.3 3.4M83.8 338.7l3.4 3.4M87.9 338.7l3.4 3.4M91.8 338.7l3.3 3.4M95.8 338.7l3.4 3.4M99.9 338.7l3.4 3.4M103.8 338.7l3.3 3.4M107.8 338.7l3.4 3.4M111.9 338.7l3.4 3.4M115.8 338.7l3.3 3.4M119.8 338.7l3.4 3.4M123.9 338.7l2.9 2.9"/><path class="cls-26" d="M126.6 338.7v-.7H79v.7h47.6M126.6 338v-5.5H79v5.5h47.6"/><path class="cls-21" d="M79.5 332.5v5.5M81 332.5v5.5M82.4 332.5v5.5M83.8 332.5v5.5M85.3 332.5v5.5M86.7 332.5v5.5M88.2 332.5v5.5M89.6 332.5v5.5M91 332.5v5.5M92.2 332.5v5.5M93.7 332.5v5.5M95.1 332.5v5.5M96.6 332.5v5.5M98 332.5v5.5M99.4 332.5v5.5M100.9 332.5v5.5M102.3 332.5v5.5M103.8 332.5v5.5M105.2 332.5v5.5M106.4 332.5v5.5M107.8 332.5v5.5M109.3 332.5v5.5M110.7 332.5v5.5M112.2 332.5v5.5M113.6 332.5v5.5M115 332.5v5.5M116.5 332.5v5.5M117.9 332.5v5.5M119.4 332.5v5.5M120.8 332.5v5.5M122 332.5v5.5M123.4 332.5v5.5M124.9 332.5v5.5M126.3 332.5v5.5"/><path class="cls-26" d="M126.6 332.5v-5.3H79v5.3h47.6"/><path class="cls-21" d="M79.3 330.1l2.4 2.4M80.2 327.2l5.3 5.3M84.3 327.2l5.3 5.3M88.4 327.2l5.3 5.3M92.2 327.2l5.3 5.3M96.3 327.2l5.3 5.3M100.4 327.2l5.3 5.3M104.2 327.2l5.3 5.3M108.3 327.2l5.3 5.3M112.4 327.2l5.3 5.3M116.5 327.2l5.3 5.3M120.3 327.2l5.3 5.3M124.4 327.2l2.4 2.4"/><path class="cls-23" d="M126.6 338.7H79M126.6 342.1H79"/><path class="cls-21" d="M126.6 332.5H79M126.6 338H79"/><path class="cls-23" d="M126.6 327.2H79M126.6 332.5H79"/><path class="cls-22" d="M126.6 342.1H79M126.6 327.2H79"/><path class="cls-33" d="M211.8 327.2v14.9h-22.1v-14.9h22.1"/><path class="cls-22" d="M189.9 342.1H212"/><path class="cls-26" d="M211.8 342.1v-3.4h-22.1v3.4h22.1"/><path class="cls-21" d="M189.9 340.4l1.5 1.7M192.1 338.7l3.3 3.4M195.9 338.7l3.4 3.4M200 338.7l3.4 3.4M204.1 338.7l3.3 3.4M208.2 338.7l3.3 3.4"/><path class="cls-26" d="M211.8 338.7v-.7h-22.1v.7h22.1M211.8 338v-5.5h-22.1v5.5h22.1"/><path class="cls-21" d="M190.2 332.5v5.5M191.6 332.5v5.5M193 332.5v5.5M194.5 332.5v5.5M195.9 332.5v5.5M197.1 332.5v5.5M198.6 332.5v5.5M200 332.5v5.5M201.4 332.5v5.5M202.9 332.5v5.5M204.3 332.5v5.5M205.8 332.5v5.5M207.2 332.5v5.5M208.6 332.5v5.5M210.1 332.5v5.5M211.3 332.5v5.5"/><path class="cls-26" d="M211.8 332.5v-5.3h-22.1v5.3h22.1"/><path class="cls-21" d="M189.9 328.4l3.9 4.1M192.6 327.2l5.2 5.3M196.6 327.2l5.3 5.3M200.5 327.2l5.3 5.3M204.6 327.2l5.2 5.3M208.6 327.2l3.4 3.4"/><path class="cls-23" d="M211.8 338.7h-22.1M211.8 342.1h-22.1"/><path class="cls-21" d="M211.8 332.5h-22.1M211.8 338h-22.1"/><path class="cls-23" d="M211.8 327.2h-22.1M211.8 332.5h-22.1"/><path class="cls-22" d="M211.8 342.1h-22.1M211.8 327.2h-22.1M211.8 338.7v-11.5M187.8 334.6v7.5h3.3v1.7h-66v-1.7h3.4v-7.5"/><path class="cls-1" d="M189.7 327.2h-63.1"/><path class="cls-22" d="M127 327.2h-.4"/><path class="cls-23" d="M187.8 342.1h3.3M128.5 342.1h-3.4"/><path class="cls-22" d="M126.6 332.5h63.1v2.2h-63.1zM185.8 334.6v-2.1M130.4 334.6v-2.1M189.7 332.5v2.1M170.7 332.5v2.1M185.8 332.5v2.1M166.6 332.5v2.1M170.7 332.5v2.1M149.6 332.5v2.1M166.6 332.5v2.1M145.5 332.5v2.1M149.6 332.5v2.1M130.4 332.5v2.1M145.5 332.5v2.1M126.6 332.5v2.1"/><path class="cls-26" d="M189.6 338h-1.9v-3.4h1.9"/><path class="cls-21" d="M188.7 334.6v3.4M189.6 338h-1.9v-3.4h1.9"/><path class="cls-23" d="M189.7 332.5v-5.3"/><path class="cls-26" d="M189.7 342.1h-1.9v-3.4h1.9"/><path class="cls-21" d="M188 338.7l1.9 1.7"/><path class="cls-23" d="M189.7 342.1h-1.9v-3.4h1.9M187.8 338.7v-4.1"/><path class="cls-26" d="M126.6 338h1.9v-3.4h-1.9"/><path class="cls-21" d="M127.8 334.6v3.4M126.6 338h1.9v-3.4h-1.9"/><path class="cls-23" d="M126.6 332.5v-5.3"/><path class="cls-26" d="M126.6 342.1h1.9v-3.4h-1.9"/><path class="cls-21" d="M126.8 341.6l.5.5M128 338.7l.7.7"/><path class="cls-23" d="M126.6 342.1h1.9v-3.4h-1.9M128.5 338.7v-4.1"/><path class="cls-22" d="M77.1 334.6v7.5h3.4v1.7H36.6v-1.7h3.6v-7.5"/><path class="cls-1" d="M79 327.2H38.2"/><path class="cls-22" d="M38.7 327.2h-.5"/><path class="cls-23" d="M77.1 342.1h3.4M40.2 342.1h-3.6"/><path class="cls-22" d="M38.2 332.5H79v2.2H38.2zM75.4 334.6v-2.1M41.8 334.6v-2.1M79 332.5v2.1M60.6 332.5v2.1M75.4 332.5v2.1M56.5 332.5v2.1M60.6 332.5v2.1M41.8 332.5v2.1M56.5 332.5v2.1M38.2 332.5v2.1"/><path class="cls-26" d="M79 338h-1.8v-3.4H79"/><path class="cls-21" d="M78.1 334.6v3.4M79 338h-1.8v-3.4H79"/><path class="cls-23" d="M79 332.5v-5.3"/><path class="cls-26" d="M79 342.1h-1.9v-3.4H79"/><path class="cls-21" d="M77.4 340.2l1.6 1.9"/><path class="cls-23" d="M79 342.1h-1.9v-3.4H79M77.1 338.7v-4.1"/><path class="cls-26" d="M38.2 338H40v-3.4h-1.8"/><path class="cls-21" d="M38.5 334.6v3.4M39.9 334.6v3.4M38.2 338H40v-3.4h-1.8"/><path class="cls-23" d="M38.2 332.5v-5.3"/><path class="cls-26" d="M38.2 342.1h2v-3.4h-2"/><path class="cls-21" d="M38.5 341.4l.5.7M39.7 338.7l.7.5"/><path class="cls-23" d="M38.2 342.1h2v-3.4h-2M40.2 338.7v-4.1"/><path class="cls-33" d="M189.7 16.6V1.8h35.7v14.8h-35.7"/><path class="cls-26" d="M189.7 1.8v3.6h35.7V1.8h-35.7"/><path class="cls-21" d="M189.9 3.7l1.5 1.7M191.8 1.8l3.6 3.6M195.9 1.8l3.6 3.6M199.8 1.8l3.6 3.6M203.8 1.8l3.6 3.6M207.9 1.8l3.6 3.6M211.8 1.8l3.6 3.6M215.8 1.8l3.6 3.6M219.9 1.8l3.6 3.6M223.8 1.8l1.9 1.6"/><path class="cls-26" d="M189.7 5.4v.4h35.7v-.4h-35.7"/><path class="cls-26" d="M189.7 5.8v5.8h35.7V5.8h-35.7"/><path class="cls-21" d="M224.2 11.6V5.8M222.8 11.6V5.8M221.4 11.6V5.8M219.9 11.6V5.8M218.5 11.6V5.8M217 11.6V5.8M215.6 11.6V5.8M214.2 11.6V5.8M212.7 11.6V5.8M211.3 11.6V5.8M210.1 11.6V5.8M208.6 11.6V5.8M207.2 11.6V5.8M205.8 11.6V5.8M204.3 11.6V5.8M202.9 11.6V5.8M201.4 11.6V5.8M200 11.6V5.8M198.6 11.6V5.8M197.1 11.6V5.8M195.9 11.6V5.8M194.5 11.6V5.8M193 11.6V5.8M191.6 11.6V5.8M190.2 11.6V5.8"/><path class="cls-26" d="M189.7 11.6v5h35.7v-5h-35.7"/><path class="cls-21" d="M189.9 15.7l.7.9M189.9 11.8l4.8 4.8M193.5 11.6l5.1 5M197.6 11.6l5 5M201.7 11.6l5 5M205.8 11.6l5 5M209.6 11.6l5 5M213.7 11.6l5 5M217.8 11.6l5 5M221.6 11.6l4.1 3.8"/><path class="cls-23" d="M189.7 5.4h35.7M189.7 1.8h35.7"/><path class="cls-21" d="M189.7 11.6h35.7M189.7 5.8h35.7"/><path class="cls-23" d="M189.7 16.6h35.7M189.7 11.6h35.7"/><path class="cls-22" d="M189.7 1.8h35.7M189.7 16.6h35.7"/><path class="cls-33" d="M82.6 16.6V1.8h44v14.8h-44"/><path class="cls-26" d="M82.6 1.8v3.6h44V1.8h-44"/><path class="cls-21" d="M82.9 4.9l.2.5M83.6 1.8l3.6 3.6M87.7 1.8l3.6 3.6M91.5 1.8l3.6 3.6M95.6 1.8l3.6 3.6M99.7 1.8l3.6 3.6M103.5 1.8l3.6 3.6M107.6 1.8l3.6 3.6M111.7 1.8l3.6 3.6M115.8 1.8l3.6 3.6M119.6 1.8l3.6 3.6M123.7 1.8l3.1 3.1"/><path class="cls-26" d="M82.6 5.4v.4h44v-.4h-44"/><path class="cls-26" d="M82.6 5.8v5.8h44V5.8h-44"/><path class="cls-21" d="M126.3 11.6V5.8M124.9 11.6V5.8M123.4 11.6V5.8M122 11.6V5.8M120.8 11.6V5.8M119.4 11.6V5.8M117.9 11.6V5.8M116.5 11.6V5.8M115 11.6V5.8M113.6 11.6V5.8M112.2 11.6V5.8M110.7 11.6V5.8M109.3 11.6V5.8M107.8 11.6V5.8M106.4 11.6V5.8M105.2 11.6V5.8M103.8 11.6V5.8M102.3 11.6V5.8M100.9 11.6V5.8M99.4 11.6V5.8M98 11.6V5.8M96.6 11.6V5.8M95.1 11.6V5.8M93.7 11.6V5.8M92.2 11.6V5.8M91 11.6V5.8M89.6 11.6V5.8M88.2 11.6V5.8M86.7 11.6V5.8M85.3 11.6V5.8M83.8 11.6V5.8"/><path class="cls-26" d="M82.6 11.6v5h44v-5h-44"/><path class="cls-21" d="M82.9 13l3.6 3.6M85.3 11.6l5 5M89.4 11.6l5 5M93.4 11.6l5.1 5M97.5 11.6l5.1 5M101.4 11.6l5 5M105.4 11.6l5.1 5M109.5 11.6l5.1 5M113.4 11.6l5 5M117.4 11.6l5.1 5M121.5 11.6l5.1 5M125.6 11.6l1.2 1.2"/><path class="cls-23" d="M82.6 5.4h44M82.6 1.8h44"/><path class="cls-21" d="M82.6 11.6h44M82.6 5.8h44"/><path class="cls-23" d="M82.6 16.6h44M82.6 11.6h44"/><path class="cls-22" d="M82.6 1.8h44M82.6 16.6h44"/><path class="cls-33" d="M14.5 16.6V1.8h27.3v14.8H14.5"/><path class="cls-26" d="M14.5 1.8v3.6h27.3V1.8H14.5"/><path class="cls-21" d="M14.7 4.9l.3.5M15.4 1.8L19 5.4M19.5 1.8l3.6 3.6M23.4 1.8L27 5.4M27.4 1.8L31 5.4M31.5 1.8l3.6 3.6M35.4 1.8L39 5.4M39.4 1.8l2.7 2.4"/><path class="cls-26" d="M14.5 5.4v.4h27.3v-.4H14.5"/><path class="cls-26" d="M14.5 5.8v5.8h27.3V5.8H14.5"/><path class="cls-21" d="M41.4 11.6V5.8M39.9 11.6V5.8M38.5 11.6V5.8M37 11.6V5.8M35.6 11.6V5.8M34.2 11.6V5.8M32.7 11.6V5.8M31.3 11.6V5.8M30.1 11.6V5.8M28.6 11.6V5.8M27.2 11.6V5.8M25.8 11.6V5.8M24.3 11.6V5.8M22.9 11.6V5.8M21.4 11.6V5.8M20 11.6V5.8M18.6 11.6V5.8M17.1 11.6V5.8M15.9 11.6V5.8"/><path class="cls-26" d="M14.5 11.6v5h27.3v-5H14.5"/><path class="cls-21" d="M14.7 13l3.6 3.6M17.4 11.6l5 5M21.2 11.6l5 5M25.3 11.6l5 5M29.4 11.6l5 5M33.2 11.6l5 5M37.3 11.6l4.8 4.6M41.4 11.6l.7.7"/><path class="cls-23" d="M14.5 5.4h27.3M14.5 1.8h27.3"/><path class="cls-21" d="M14.5 11.6h27.3M14.5 5.8h27.3"/><path class="cls-23" d="M14.5 16.6h27.3M14.5 11.6h27.3"/><path class="cls-22" d="M14.5 1.8h27.3M14.5 16.6h27.3M128.5 9.2V1.8h-3.4V0h66v1.8h-3.3v7.4"/><path class="cls-1" d="M126.6 16.6h63.1"/><path class="cls-22" d="M189.2 16.6h.5"/><path class="cls-23" d="M128.5 1.8h-3.4M187.8 1.8h3.3"/><path class="cls-22" d="M126.6 9.2h63.1v2.4h-63.1zM130.4 9.2v2.4M185.8 9.2v2.4M126.6 11.6V9.2M145.5 11.6V9.2M130.4 11.6V9.2M149.6 11.6V9.2M145.5 11.6V9.2M166.6 11.6V9.2M149.6 11.6V9.2M170.7 11.6V9.2M166.6 11.6V9.2M185.8 11.6V9.2M170.7 11.6V9.2M189.7 11.6V9.2"/><path class="cls-26" d="M126.6 5.8h1.9v3.4h-1.9"/><path class="cls-21" d="M127.8 9.2V5.8M126.6 5.8h1.9v3.4h-1.9"/><path class="cls-23" d="M126.6 11.6v5"/><path class="cls-26" d="M126.6 1.8h1.9v3.6h-1.9"/><path class="cls-21" d="M126.8 4.9l.5.5M127.8 1.8l.9.9"/><path class="cls-23" d="M126.6 1.8h1.9v3.6h-1.9M128.5 5.4v3.8"/><path class="cls-26" d="M189.6 5.8h-1.9v3.4h1.9"/><path class="cls-21" d="M188.7 9.2V5.8M189.6 5.8h-1.9v3.4h1.9"/><path class="cls-23" d="M189.7 11.6v5"/><path class="cls-26" d="M189.7 1.8h-1.9v3.6h1.9"/><path class="cls-21" d="M188 1.8l1.9 1.9"/><path class="cls-23" d="M189.7 1.8h-1.9v3.6h1.9M187.8 5.4v3.8"/><path class="cls-22" d="M43.8 9.2V1.8h-3.4V0h43.9v1.8H81v7.4"/><path class="cls-1" d="M41.8 16.6h40.8"/><path class="cls-22" d="M82.2 16.6h.4"/><path class="cls-23" d="M43.8 1.8h-3.4M81 1.8h3.3"/><path class="cls-22" d="M41.8 9.2h40.8v2.4H41.8zM45.7 9.2v2.4M79 9.2v2.4M41.8 11.6V9.2M60.3 11.6V9.2M45.7 11.6V9.2M64.4 11.6V9.2M60.3 11.6V9.2M79 11.6V9.2M64.4 11.6V9.2M82.6 11.6V9.2"/><path class="cls-26" d="M41.9 5.8h1.8v3.4h-1.8"/><path class="cls-21" d="M42.8 9.2V5.8M41.9 5.8h1.8v3.4h-1.8"/><path class="cls-23" d="M41.8 11.6v5"/><path class="cls-26" d="M41.8 1.8h2v3.6h-2"/><path class="cls-21" d="M42.1 4.2l.9 1.2M43.5 1.8l.5.4"/><path class="cls-23" d="M41.8 1.8h2v3.6h-2M43.8 5.4v3.8"/><path class="cls-26" d="M82.7 5.8h-1.8v3.4h1.8"/><path class="cls-21" d="M82.4 9.2V5.8M82.7 5.8h-1.8v3.4h1.8"/><path class="cls-23" d="M82.6 11.6v5"/><path class="cls-26" d="M82.6 1.8H81v3.6h1.6"/><path class="cls-21" d="M81.2 3.2l1.7 1.7"/><path class="cls-23" d="M82.6 1.8H81v3.6h1.6M81 5.4v3.8"/><path class="cls-22" d="M408.6 184.2h-34.1M408.6 176.5h-34.1M408.6 168.8h-34.1M408.6 161.1h-34.1M276.6 161.1h33.8M276.6 168.8h33.8M350.2 223.3l8-35.3M310.4 155.8h64.1v33.6h-64.1zM293.4 161.2l3.8 3.8M289.6 165l3.8-3.8M369.2 189.4v33.9M361.8 189.4v33.9M354.1 189.4v33.9M346.4 189.4v33.9M338.7 189.4v33.9M331 189.4v33.9M323.4 189.4v33.9M315.7 189.4v33.9"/><path class="cls-22" d="M311.8 157.3H373V188h-61.2z"/><path class="cls-1" d="M310.4 223.3h-33.8"/><path class="cls-22" d="M277 223.3h-.4"/><path class="cls-1" d="M310.4 230.5h-33.8"/><path class="cls-22" d="M277 230.5h-.4M297.2 165h-7.7M315.7 206.4l3.8-3.9M319.5 210.2l-3.8-3.8M319.5 202.6v7.5M354 206.4l3.8-3.9M357.8 210.2l-3.8-3.8M357.9 202.6v7.5M391.5 184.1l3.9-3.8M387.7 180.3l3.8 3.8M395.4 180.3h-7.7"/><path class="cls-26" d="M310.4 223.3l7.2 7.2h98.2l-7.2-7.2h-98.2"/><path class="cls-21" d="M412.4 230.5l-7.2-7.2M408.6 230.5l-7.2-7.2M404.5 230.5l-7.2-7.2M400.4 230.5l-7.2-7.2M396.6 230.5l-7.2-7.2M392.5 230.5l-7.2-7.2M388.4 230.5l-7.2-7.2M384.6 230.5l-7.2-7.2M380.5 230.5l-7.2-7.2M376.4 230.5l-7.2-7.2M372.3 230.5l-7.2-7.2M368.5 230.5l-7.2-7.2M364.4 230.5l-7.2-7.2M360.3 230.5l-7.2-7.2M356.5 230.5l-7.2-7.2M352.4 230.5l-7.2-7.2M348.3 230.5l-7.2-7.2M344.5 230.5l-7.2-7.2M340.4 230.5l-7.2-7.2M336.3 230.5l-7.2-7.2M332.2 230.5l-7.2-7.2M328.4 230.5l-7.2-7.2M324.3 230.5l-7.2-7.2M320.2 230.5l-7.2-7.2M414.6 230.5l.7-.7M410.7 230.5l2.7-2.7M406.6 230.5l4.6-4.6M402.6 230.5l6.7-6.7M398.7 230.5l7.2-7.2M394.6 230.5l7.2-7.2M390.6 230.5l7.2-7.2M386.5 230.5l7.2-7.2M382.6 230.5l7.2-7.2M378.6 230.5l7.2-7.2M374.5 230.5l7.2-7.2M370.6 230.5l7.2-7.2M366.6 230.5l7.2-7.2M362.5 230.5l7.2-7.2M358.6 230.5l7.2-7.2M354.6 230.5l7.2-7.2M350.5 230.5l7.2-7.2M346.4 230.5l7.2-7.2M342.6 230.5l7.2-7.2M338.5 230.5l7.2-7.2M334.4 230.5l7.2-7.2M330.6 230.5l7.2-7.2M326.5 230.5l7.2-7.2M322.4 230.5l7.2-7.2M318.3 230.5l7.2-7.2M316.2 228.8l5.5-5.5M314 226.9l3.6-3.6M312.1 224.7l1.4-1.4"/><path class="cls-26" d="M310.4 223.3l7.2 7.2h98.2l-7.2-7.2h-98.2"/><path class="cls-21" d="M412.4 230.5l-7.2-7.2M408.6 230.5l-7.2-7.2M404.5 230.5l-7.2-7.2M400.4 230.5l-7.2-7.2M396.6 230.5l-7.2-7.2M392.5 230.5l-7.2-7.2M388.4 230.5l-7.2-7.2M384.6 230.5l-7.2-7.2M380.5 230.5l-7.2-7.2M376.4 230.5l-7.2-7.2M372.3 230.5l-7.2-7.2M368.5 230.5l-7.2-7.2M364.4 230.5l-7.2-7.2M360.3 230.5l-7.2-7.2M356.5 230.5l-7.2-7.2M352.4 230.5l-7.2-7.2M348.3 230.5l-7.2-7.2M344.5 230.5l-7.2-7.2M340.4 230.5l-7.2-7.2M336.3 230.5l-7.2-7.2M332.2 230.5l-7.2-7.2M328.4 230.5l-7.2-7.2M324.3 230.5l-7.2-7.2M320.2 230.5l-7.2-7.2M414.6 230.5l.7-.7M410.7 230.5l2.7-2.7M406.6 230.5l4.6-4.6M402.6 230.5l6.7-6.7M398.7 230.5l7.2-7.2M394.6 230.5l7.2-7.2M390.6 230.5l7.2-7.2M386.5 230.5l7.2-7.2M382.6 230.5l7.2-7.2M378.6 230.5l7.2-7.2M374.5 230.5l7.2-7.2M370.6 230.5l7.2-7.2M366.6 230.5l7.2-7.2M362.5 230.5l7.2-7.2M358.6 230.5l7.2-7.2M354.6 230.5l7.2-7.2M350.5 230.5l7.2-7.2M346.4 230.5l7.2-7.2M342.6 230.5l7.2-7.2M338.5 230.5l7.2-7.2M334.4 230.5l7.2-7.2M330.6 230.5l7.2-7.2M326.5 230.5l7.2-7.2M322.4 230.5l7.2-7.2M318.3 230.5l7.2-7.2M316.2 228.8l5.5-5.5M314 226.9l3.6-3.6M312.1 224.7l1.4-1.4"/><path class="cls-23" d="M408.6 223.3h-98.2M415.8 230.5h-98.2M415.8 230.5h-98.2M408.6 223.3h-98.2"/><path class="cls-26" d="M415.8 114.8l-7.2 7.2v2.4h7.2v-9.6"/><path class="cls-21" d="M416 117.7l-1.4-1.5M416 121.5l-3.6-3.3M414.6 124.4l-4.1-4.1M410.7 124.4l-1.9-1.9M412.4 124.4l3.6-3.4M408.8 124.2l7.2-7.2"/><path class="cls-26" d="M415.8 114.8l-7.2 7.2v2.4h7.2v-9.6"/><path class="cls-21" d="M416 117.7l-1.4-1.5M416 121.5l-3.6-3.3M414.6 124.4l-4.1-4.1M410.7 124.4l-1.9-1.9M412.4 124.4l3.6-3.4M408.8 124.2l7.2-7.2"/><path class="cls-23" d="M415.8 124.4v-9.6M408.6 124.4V122M408.6 124.4V122M415.8 124.4v-9.6"/><path class="cls-26" d="M415.8 230.5l-7.2-7.2v-66.5h7.2v73.7"/><path class="cls-21" d="M416 157.8l-1-1M416 161.6l-5-4.8M416 165.7l-7.2-7.2M416 169.8l-7.2-7.2M416 173.6l-7.2-7.2M416 177.7l-7.2-7.2M416 181.8l-7.2-7.2M416 185.8l-7.2-7.2M416 189.7l-7.2-7.2M416 193.8l-7.2-7.2M416 197.8l-7.2-7.2M416 201.7l-7.2-7.2M416 205.8l-7.2-7.2M416 209.8l-7.2-7.2M416 213.9l-7.2-7.2M416 217.8l-7.2-7.2M416 221.8l-7.2-7.2M416 225.9l-7.2-7.2M416 229.8l-7.2-7.2M415.3 229.8l.7-.5M413.4 227.8l2.6-2.6M411.2 225.9l4.8-4.8M409.3 223.8l6.7-6.5M408.8 220.4l7.2-7.2M408.8 216.3l7.2-7.2M408.8 212.5l7.2-7.2M408.8 208.4l7.2-7.2M408.8 204.3l7.2-7.2M408.8 200.5l7.2-7.2M408.8 196.4l7.2-7.2M408.8 192.3l7.2-7.2M408.8 188.2l7.2-7.2M408.8 184.4l7.2-7.2M408.8 180.3l7.2-7.2M408.8 176.2l7.2-7.2M408.8 172.4l7.2-7.2M408.8 168.3l7.2-7.2M408.8 164.2l7.2-7.2M408.8 160.4l3.4-3.6"/><path class="cls-26" d="M408.6 223.3l7.2 7.2v-73.7h-7.2v66.5"/><path class="cls-21" d="M416 157.8l-1-1M416 161.6l-5-4.8M416 165.7l-7.2-7.2M416 169.8l-7.2-7.2M416 173.6l-7.2-7.2M416 177.7l-7.2-7.2M416 181.8l-7.2-7.2M416 185.8l-7.2-7.2M416 189.7l-7.2-7.2M416 193.8l-7.2-7.2M416 197.8l-7.2-7.2M416 201.7l-7.2-7.2M416 205.8l-7.2-7.2M416 209.8l-7.2-7.2M416 213.9l-7.2-7.2M416 217.8l-7.2-7.2M416 221.8l-7.2-7.2M416 225.9l-7.2-7.2M416 229.8l-7.2-7.2M415.3 229.8l.7-.5M413.4 227.8l2.6-2.6M411.2 225.9l4.8-4.8M409.3 223.8l6.7-6.5M408.8 220.4l7.2-7.2M408.8 216.3l7.2-7.2M408.8 212.5l7.2-7.2M408.8 208.4l7.2-7.2M408.8 204.3l7.2-7.2M408.8 200.5l7.2-7.2M408.8 196.4l7.2-7.2M408.8 192.3l7.2-7.2M408.8 188.2l7.2-7.2M408.8 184.4l7.2-7.2M408.8 180.3l7.2-7.2M408.8 176.2l7.2-7.2M408.8 172.4l7.2-7.2M408.8 168.3l7.2-7.2M408.8 164.2l7.2-7.2M408.8 160.4l3.4-3.6"/><path class="cls-23" d="M415.8 230.5v-73.7M408.6 223.3v-66.5M408.6 223.3v-66.5M415.8 230.5v-73.7"/><path class="cls-22" d="M414.6 154.2h1.7v2.6h-1.7zM414.6 124.4h1.7v2.6h-1.7zM414.6 127h1.7v27.1h-1.7zM414.6 154.2V127"/><path class="cls-1" d="M408.6 154.4v-27.6"/><path class="cls-22" d="M408.6 127.3v-.5"/><path class="cls-26" d="M408.6 156.8v-2.4h6v2.4"/><path class="cls-21" d="M414.8 156.6l-2.2-2.2M411 156.8l-2.2-2.4M412.2 156.8l2.4-2.4M408.8 156.3l1.7-1.9"/><path class="cls-26" d="M408.6 124.4v2.4h6v-2.4"/><path class="cls-21" d="M414.8 124.4h-.2M413.1 126.8l-2.4-2.4M409 126.8l-.2-.5M414.1 126.8l.7-.5M410 126.8l2.4-2.4"/><path class="cls-23" d="M408.6 154.4h6M408.6 126.8h6M408.6 154.4h6M408.6 156.8v-2.4M408.6 126.8h6M408.6 124.4v2.4M415.8 156.8h-1.2M415.8 124.4h-1.2M408.6 156.8v-2.4M408.6 124.4v2.4M414.6 154.4v2.4M414.6 126.8v-2.4"/><path class="cls-26" d="M270.8 220.6l5.8 9.9v-74.9l-5.8 10.3v54.7"/><path class="cls-21" d="M276.8 158.7l-1.2-.9M276.8 162.8l-2.6-2.6M276.8 166.9l-4.1-4.1M276.8 170.7l-5.5-5.3M276.8 174.8L271 169M276.8 178.9l-5.8-5.8M276.8 183l-5.8-5.8M276.8 186.8L271 181M276.8 190.9l-5.8-5.8M276.8 195l-5.8-5.8M276.8 198.8L271 193M276.8 202.9l-5.8-5.8M276.8 207l-5.8-5.8M276.8 210.8L271 205M276.8 214.9l-5.8-5.8M276.8 219l-5.8-5.8M276.8 223l-5.8-5.7M276.8 226.9l-5-5.1M275.8 229l1-.9M274.4 226.4l2.4-2.2M273 224l3.8-3.8M271.3 221.4l5.5-5.3M271 217.8l5.8-5.8M271 213.9l5.8-5.7M271 209.8l5.8-5.7M271 205.8l5.8-5.8M271 201.9l5.8-5.7M271 197.8l5.8-5.7M271 193.8l5.8-5.8M271 189.9l5.8-5.7M271 185.8l5.8-5.7M271 181.8l5.8-5.8M271 177.7l5.8-5.8M271 173.8l5.8-5.7M271 169.8l5.8-5.8M271 165.4l5.8-5.5M276.1 156.6l.7-.5"/><path class="cls-26" d="M270.8 220.6l5.8 9.9v-74.9l-5.8 10.3v54.7"/><path class="cls-21" d="M276.8 158.7l-1.2-.9M276.8 162.8l-2.6-2.6M276.8 166.9l-4.1-4.1M276.8 170.7l-5.5-5.3M276.8 174.8L271 169M276.8 178.9l-5.8-5.8M276.8 183l-5.8-5.8M276.8 186.8L271 181M276.8 190.9l-5.8-5.8M276.8 195l-5.8-5.8M276.8 198.8L271 193M276.8 202.9l-5.8-5.8M276.8 207l-5.8-5.8M276.8 210.8L271 205M276.8 214.9l-5.8-5.8M276.8 219l-5.8-5.8M276.8 223l-5.8-5.7M276.8 226.9l-5-5.1M275.8 229l1-.9M274.4 226.4l2.4-2.2M273 224l3.8-3.8M271.3 221.4l5.5-5.3M271 217.8l5.8-5.8M271 213.9l5.8-5.7M271 209.8l5.8-5.7M271 205.8l5.8-5.8M271 201.9l5.8-5.7M271 197.8l5.8-5.7M271 193.8l5.8-5.8M271 189.9l5.8-5.7M271 185.8l5.8-5.7M271 181.8l5.8-5.8M271 177.7l5.8-5.8M271 173.8l5.8-5.7M271 169.8l5.8-5.8M271 165.4l5.8-5.5M276.1 156.6l.7-.5"/><path class="cls-23" d="M270.8 165.9v54.7M276.6 155.6v74.9M276.6 155.6v74.9M270.8 165.9v54.7"/><path class="cls-26" d="M225.4 114.8v7.2h145v-7.2h-145"/><path class="cls-21" d="M370.6 116.2l-1.6-1.4M370.6 120.3l-5.7-5.5M368.2 122l-7.2-7.2M364.2 122l-7.2-7.2M360.1 122l-7.2-7.2M356.2 122l-7.2-7.2M352.2 122l-7.2-7.2M348.1 122l-7.2-7.2M344 122l-7.2-7.2M340.2 122l-7.2-7.2M336.1 122l-7.2-7.2M332 122l-7.2-7.2M328.2 122l-7.2-7.2M324.1 122l-7.2-7.2M320 122l-7.2-7.2M316.2 122l-7.2-7.2M312.1 122l-7.2-7.2M308 122l-7.2-7.2M303.9 122l-7.2-7.2M300.1 122l-7.2-7.2M296 122l-7.2-7.2M291.9 122l-7.2-7.2M288.1 122l-7.2-7.2M284 122l-7.2-7.2M279.9 122l-7.2-7.2M276.1 122l-7.2-7.2M272 122l-7.2-7.2M267.9 122l-7.2-7.2M263.8 122l-7.2-7.2M260 122l-7.2-7.2M255.9 122l-7.2-7.2M251.8 122l-7.2-7.2M248 122l-7.2-7.2M243.9 122l-7.2-7.2M239.8 122l-7.2-7.2M236 122l-7.2-7.2M231.9 122l-6.2-6.2M227.8 122l-2.1-2.4M366.8 122l3.8-3.8M362.7 122l7.2-7.2M358.9 122l7.2-7.2M354.8 122l7.2-7.2M350.7 122l7.2-7.2M346.6 122l7.2-7.2M342.8 122l7.2-7.2M338.7 122l7.2-7.2M334.6 122l7.2-7.2M330.8 122l7.2-7.2M326.7 122l7.2-7.2M322.6 122l7.2-7.2M318.6 122l7.2-7.2M314.7 122l7.2-7.2M310.6 122l7.2-7.2M306.6 122l7.2-7.2M302.7 122l7.2-7.2M298.6 122l7.2-7.2M294.6 122l7.2-7.2M290.7 122l7.2-7.2M286.6 122l7.2-7.2M282.6 122l7.2-7.2M278.5 122l7.2-7.2M274.6 122l7.2-7.2M270.6 122l7.2-7.2M266.5 122l7.2-7.2M262.6 122l7.2-7.2M258.6 122l7.2-7.2M254.5 122l7.2-7.2M250.6 122l7.2-7.2M246.6 122l7.2-7.2M242.5 122l7.2-7.2M238.4 122l7.2-7.2M234.6 122l7.2-7.2M230.5 122l7.2-7.2M226.4 122l7.2-7.2M225.7 118.9l4.1-4.1M225.7 114.8"/><path class="cls-26" d="M225.4 114.8v7.2h145v-7.2h-145"/><path class="cls-21" d="M370.6 116.2l-1.6-1.4M370.6 120.3l-5.7-5.5M368.2 122l-7.2-7.2M364.2 122l-7.2-7.2M360.1 122l-7.2-7.2M356.2 122l-7.2-7.2M352.2 122l-7.2-7.2M348.1 122l-7.2-7.2M344 122l-7.2-7.2M340.2 122l-7.2-7.2M336.1 122l-7.2-7.2M332 122l-7.2-7.2M328.2 122l-7.2-7.2M324.1 122l-7.2-7.2M320 122l-7.2-7.2M316.2 122l-7.2-7.2M312.1 122l-7.2-7.2M308 122l-7.2-7.2M303.9 122l-7.2-7.2M300.1 122l-7.2-7.2M296 122l-7.2-7.2M291.9 122l-7.2-7.2M288.1 122l-7.2-7.2M284 122l-7.2-7.2M279.9 122l-7.2-7.2M276.1 122l-7.2-7.2M272 122l-7.2-7.2M267.9 122l-7.2-7.2M263.8 122l-7.2-7.2M260 122l-7.2-7.2M255.9 122l-7.2-7.2M251.8 122l-7.2-7.2M248 122l-7.2-7.2M243.9 122l-7.2-7.2M239.8 122l-7.2-7.2M236 122l-7.2-7.2M231.9 122l-6.2-6.2M227.8 122l-2.1-2.4M366.8 122l3.8-3.8M362.7 122l7.2-7.2M358.9 122l7.2-7.2M354.8 122l7.2-7.2M350.7 122l7.2-7.2M346.6 122l7.2-7.2M342.8 122l7.2-7.2M338.7 122l7.2-7.2M334.6 122l7.2-7.2M330.8 122l7.2-7.2M326.7 122l7.2-7.2M322.6 122l7.2-7.2M318.6 122l7.2-7.2M314.7 122l7.2-7.2M310.6 122l7.2-7.2M306.6 122l7.2-7.2M302.7 122l7.2-7.2M298.6 122l7.2-7.2M294.6 122l7.2-7.2M290.7 122l7.2-7.2M286.6 122l7.2-7.2M282.6 122l7.2-7.2M278.5 122l7.2-7.2M274.6 122l7.2-7.2M270.6 122l7.2-7.2M266.5 122l7.2-7.2M262.6 122l7.2-7.2M258.6 122l7.2-7.2M254.5 122l7.2-7.2M250.6 122l7.2-7.2M246.6 122l7.2-7.2M242.5 122l7.2-7.2M238.4 122l7.2-7.2M234.6 122l7.2-7.2M230.5 122l7.2-7.2M226.4 122l7.2-7.2M225.7 118.9l4.1-4.1M225.7 114.8"/><path class="cls-23" d="M370.4 114.8h-145M370.4 122h-145M370.4 122h-145M370.4 114.8h-145"/><path class="cls-26" d="M405.9 122h2.7l7.2-7.2h-9.9v7.2"/><path class="cls-21" d="M414.6 116.2l-1.5-1.4M412.4 118.2l-3.4-3.4M410.5 120.3l-4.3-4.5M408.3 122l-2.1-2.2M406.9 122l7.2-7.2M406.2 118.9l3.8-4.1M406.2 114.8"/><path class="cls-26" d="M405.9 122h2.7l7.2-7.2h-9.9v7.2"/><path class="cls-21" d="M414.6 116.2l-1.5-1.4M412.4 118.2l-3.4-3.4M410.5 120.3l-4.3-4.5M408.3 122l-2.1-2.2M406.9 122l7.2-7.2M406.2 118.9l3.8-4.1M406.2 114.8"/><path class="cls-23" d="M415.8 114.8h-9.9M408.6 122h-2.7M408.6 122h-2.7M415.8 114.8h-9.9"/><path class="cls-22" d="M403.5 114.3h2.4v1.7h-2.4zM370.4 114.3h5.8v1.7h-5.8z"/><path class="cls-22" d="M376.2 114.3h27.4v1.7h-27.4zM403.5 116h-27.3"/><path class="cls-1" d="M403.8 122h-27.9"/><path class="cls-22" d="M376.4 122h-.5"/><path class="cls-26" d="M405.9 122h-2.1v-6h2.1"/><path class="cls-21" d="M406.2 119.8l-2.2-2.1M404.2 122l-.2-.5M404 121l2.2-2.1M404 117l1-1"/><path class="cls-26" d="M370.4 122h5.5v-6h-5.5"/><path class="cls-21" d="M376.2 117.9l-2-1.9M376.2 121.8l-5.6-5.6M372.1 122l-1.5-1.7M374.7 122l1.5-1.2M370.9 122l5.3-5.3M370.6 118.2l2.2-2.2"/><path class="cls-23" d="M403.8 122v-6M375.9 122v-6M403.8 122v-6M405.9 122h-2.1M375.9 122v-6M370.4 122h5.5M405.9 114.8v1.2M370.4 114.8v1.2M405.9 122h-2.1M370.4 122h5.5M403.8 116h2.1M375.9 116h-5.5"/><path class="cls-26" d="M207.4 230.5l-7.2-7.2v70.8l7.2-7v-56.6"/><path class="cls-21" d="M207.7 234.1l-7.2-7.2M207.7 237.9l-7.2-7.2M207.7 242l-7.2-7.2M207.7 246.1l-7.2-7.2M207.7 249.9l-7.2-7.2M207.7 254l-7.2-7.2M207.7 258.1l-7.2-7.2M207.7 262.2l-7.2-7.2M207.7 266l-7.2-7.2M207.7 270.1l-7.2-7.2M207.7 274.2l-7.2-7.2M207.7 278l-7.2-7.2M207.7 282.1l-7.2-7.2M207.7 286.2l-7.2-7.2M206 288.6l-5.5-5.8M204.1 290.5l-3.6-3.6M201.9 292.6l-1.4-1.6M200.5 292.4l7.2-7.2M200.5 288.3l7.2-7.2M200.5 284.5l7.2-7.2M200.5 280.4l7.2-7.2M200.5 276.3l7.2-7.2M200.5 272.5l7.2-7.2M200.5 268.4l7.2-7.2M200.5 264.3l7.2-7.2M200.5 260.5l7.2-7.2M200.5 256.4l7.2-7.2M200.5 252.3l7.2-7.2M200.5 248.2l7.2-7.2M200.5 244.4l7.2-7.2M200.5 240.3l7.2-7.2M200.5 236.2l6.5-6.4M200.5 232.4l4.3-4.6M200.5 228.3l2.4-2.6M200.5 224.2l.5-.4"/><path class="cls-26" d="M207.4 230.5l-7.2-7.2v70.8l7.2-7v-56.6"/><path class="cls-21" d="M207.7 234.1l-7.2-7.2M207.7 237.9l-7.2-7.2M207.7 242l-7.2-7.2M207.7 246.1l-7.2-7.2M207.7 249.9l-7.2-7.2M207.7 254l-7.2-7.2M207.7 258.1l-7.2-7.2M207.7 262.2l-7.2-7.2M207.7 266l-7.2-7.2M207.7 270.1l-7.2-7.2M207.7 274.2l-7.2-7.2M207.7 278l-7.2-7.2M207.7 282.1l-7.2-7.2M207.7 286.2l-7.2-7.2M206 288.6l-5.5-5.8M204.1 290.5l-3.6-3.6M201.9 292.6l-1.4-1.6M200.5 292.4l7.2-7.2M200.5 288.3l7.2-7.2M200.5 284.5l7.2-7.2M200.5 280.4l7.2-7.2M200.5 276.3l7.2-7.2M200.5 272.5l7.2-7.2M200.5 268.4l7.2-7.2M200.5 264.3l7.2-7.2M200.5 260.5l7.2-7.2M200.5 256.4l7.2-7.2M200.5 252.3l7.2-7.2M200.5 248.2l7.2-7.2M200.5 244.4l7.2-7.2M200.5 240.3l7.2-7.2M200.5 236.2l6.5-6.4M200.5 232.4l4.3-4.6M200.5 228.3l2.4-2.6M200.5 224.2l.5-.4"/><path class="cls-23" d="M207.4 287.1v-56.6M200.2 294.1v-70.8M200.2 294.1v-70.8M207.4 287.1v-56.6"/><path class="cls-26" d="M317.6 230.5l-7.2-7.2v109.2h7.2v-102"/><path class="cls-21" d="M317.8 231.9l-7.2-7.2M317.8 236l-7.2-7.2M317.8 239.8l-7.2-7.2M317.8 243.9l-7.2-7.2M317.8 248l-7.2-7.2M317.8 251.8l-7.2-7.2M317.8 255.9l-7.2-7.2M317.8 260l-7.2-7.2M317.8 264.1l-7.2-7.2M317.8 267.9l-7.2-7.2M317.8 272l-7.2-7.2M317.8 276.1l-7.2-7.2M317.8 279.9l-7.2-7.2M317.8 284l-7.2-7.2M317.8 288.1l-7.2-7.2M317.8 291.9l-7.2-7.2M317.8 296l-7.2-7.2M317.8 300.1l-7.2-7.2M317.8 304.2l-7.2-7.2M317.8 308l-7.2-7.2M317.8 312.1l-7.2-7.2M317.8 316.2l-7.2-7.2M317.8 320l-7.2-7.2M317.8 324.1l-7.2-7.2M317.8 328.2l-7.2-7.2M317.8 332l-7.2-7.2M314 332.5l-3.4-3.6M316.6 332.5l1.2-1M312.6 332.5l5.2-5.1M310.6 330.6l7.2-7.2M310.6 326.5l7.2-7.2M310.6 322.6l7.2-7.2M310.6 318.6l7.2-7.2M310.6 314.5l7.2-7.2M310.6 310.6l7.2-7.2M310.6 306.6l7.2-7.2M310.6 302.5l7.2-7.2M310.6 298.6l7.2-7.2M310.6 294.6l7.2-7.2M310.6 290.5l7.2-7.2M310.6 286.4l7.2-7.2M310.6 282.6l7.2-7.2M310.6 278.5l7.2-7.2M310.6 274.4l7.2-7.2M310.6 270.6l7.2-7.2M310.6 266.5l7.2-7.2M310.6 262.4l7.2-7.2M310.6 258.6l7.2-7.2M310.6 254.5l7.2-7.2M310.6 250.4l7.2-7.2M310.6 246.3l7.2-7.2M310.6 242.5l7.2-7.2M310.6 238.4l7.2-7.2M310.6 234.3l5.6-5.5M310.6 230.5l3.4-3.6M310.6 226.4l1.5-1.7"/><path class="cls-26" d="M317.6 230.5l-7.2-7.2v109.2h7.2v-102"/><path class="cls-21" d="M317.8 231.9l-7.2-7.2M317.8 236l-7.2-7.2M317.8 239.8l-7.2-7.2M317.8 243.9l-7.2-7.2M317.8 248l-7.2-7.2M317.8 251.8l-7.2-7.2M317.8 255.9l-7.2-7.2M317.8 260l-7.2-7.2M317.8 264.1l-7.2-7.2M317.8 267.9l-7.2-7.2M317.8 272l-7.2-7.2M317.8 276.1l-7.2-7.2M317.8 279.9l-7.2-7.2M317.8 284l-7.2-7.2M317.8 288.1l-7.2-7.2M317.8 291.9l-7.2-7.2M317.8 296l-7.2-7.2M317.8 300.1l-7.2-7.2M317.8 304.2l-7.2-7.2M317.8 308l-7.2-7.2M317.8 312.1l-7.2-7.2M317.8 316.2l-7.2-7.2M317.8 320l-7.2-7.2M317.8 324.1l-7.2-7.2M317.8 328.2l-7.2-7.2M317.8 332l-7.2-7.2M314 332.5l-3.4-3.6M316.6 332.5l1.2-1M312.6 332.5l5.2-5.1M310.6 330.6l7.2-7.2M310.6 326.5l7.2-7.2M310.6 322.6l7.2-7.2M310.6 318.6l7.2-7.2M310.6 314.5l7.2-7.2M310.6 310.6l7.2-7.2M310.6 306.6l7.2-7.2M310.6 302.5l7.2-7.2M310.6 298.6l7.2-7.2M310.6 294.6l7.2-7.2M310.6 290.5l7.2-7.2M310.6 286.4l7.2-7.2M310.6 282.6l7.2-7.2M310.6 278.5l7.2-7.2M310.6 274.4l7.2-7.2M310.6 270.6l7.2-7.2M310.6 266.5l7.2-7.2M310.6 262.4l7.2-7.2M310.6 258.6l7.2-7.2M310.6 254.5l7.2-7.2M310.6 250.4l7.2-7.2M310.6 246.3l7.2-7.2M310.6 242.5l7.2-7.2M310.6 238.4l7.2-7.2M310.6 234.3l5.6-5.5M310.6 230.5l3.4-3.6M310.6 226.4l1.5-1.7"/><path class="cls-23" d="M317.6 332.5v-102M310.4 287.1v-63.8M310.4 332.5v-40.3M310.4 287.1v-63.8M317.6 332.5v-102M310.4 332.5v-40.3M317.6 332.5h-7.2"/><path class="cls-26" d="M225.4 220.6l-7.2 9.9h7.2v-9.9"/><path class="cls-21" d="M225.7 224l-1.5-1.4M225.7 227.8l-3.1-2.8M224 230.5l-3.1-3.4M220.2 230.5l-1-1M222.3 230.5l3.4-3.4M218.7 230l7-7"/><path class="cls-26" d="M225.4 220.6l-7.2 9.9h7.2v-9.9"/><path class="cls-21" d="M225.7 224l-1.5-1.4M225.7 227.8l-3.1-2.8M224 230.5l-3.1-3.4M220.2 230.5l-1-1M222.3 230.5l3.4-3.4M218.7 230l7-7"/><path class="cls-23" d="M225.4 230.5h-7.2M225.4 230.5h-7.2"/><path class="cls-26" d="M261.2 230.5h15.4l-5.8-9.9h-9.6v9.9"/><path class="cls-21" d="M271.8 221.8l-1.5-1.2M276.3 230.5l-9.8-9.9M272.2 230.5l-9.8-9.9M268.2 230.5l-6.8-7M264.1 230.5l-2.7-2.9M274.4 230.5l1.4-1.5M270.3 230.5l4.1-4.1M266.2 230.5l6.8-6.5M262.4 230.5l8.9-9.1M261.4 227.4l6.8-6.8M261.4 223.5l2.7-2.9"/><path class="cls-26" d="M261.2 230.5h15.4l-5.8-9.9h-9.6v9.9"/><path class="cls-21" d="M271.8 221.8l-1.5-1.2M276.3 230.5l-9.8-9.9M272.2 230.5l-9.8-9.9M268.2 230.5l-6.8-7M264.1 230.5l-2.7-2.9M274.4 230.5l1.4-1.5M270.3 230.5l4.1-4.1M266.2 230.5l6.8-6.5M262.4 230.5l8.9-9.1M261.4 227.4l6.8-6.8M261.4 223.5l2.7-2.9"/><path class="cls-23" d="M270.8 220.6h-9.6M276.6 230.5h-15.4M276.6 230.5h-15.4M270.8 220.6h-9.6"/><path class="cls-22" d="M258.1 221.8h-29.5"/><path class="cls-1" d="M258.1 230.5h-29.5"/><path class="cls-22" d="M229 230.5h-.4"/><path class="cls-26" d="M261.2 230.5h-3.1v-8.7h3.1"/><path class="cls-21" d="M261.4 223.5l-1.9-1.7M261.4 227.6l-3.1-3.1M260.2 230.5l-1.9-1.9M258.3 230.5l3.1-3.1M258.3 226.6l3.1-3.1M258.3 222.6l.7-.8"/><path class="cls-26" d="M225.4 230.5h3.2v-8.7h-3.2"/><path class="cls-21" d="M228.8 223l-1.2-1.2M228.8 227.1l-3.1-3.1M228.1 230.5l-2.4-2.7M226.2 230.5l2.6-2.4M225.7 227.1l3.1-3.1M225.7 223l1.2-1.2"/><path class="cls-23" d="M258.1 230.5v-8.7M228.6 230.5v-8.7M258.1 230.5v-8.7M261.2 230.5h-3.1M228.6 230.5v-8.7M225.4 230.5h3.2M261.2 220.6v1.2M225.4 220.6v1.2M261.2 230.5h-3.1M225.4 230.5h3.2M258.1 221.8h3.1M228.6 221.8h-3.2M228.3 173.4h29.8V213h-29.8z"/><path class="cls-22" d="M226.4 221.8h35.5M244.9 219H231M257.6 216.1h-13.9M226.4 164.5h35.5M244.9 167.4H231M257.6 170.5h-13.9"/><path class="cls-26" d="M21.4 332.5h-6.9V11.6h6.9v320.9"/><path class="cls-21" d="M21.7 11.8l-.5-.2M21.7 15.9l-4.3-4.3M21.7 20l-7-7M21.7 23.8l-7-6.9M21.7 27.9l-7-6.9M21.7 32l-7-7M21.7 35.8l-7-6.9M21.7 39.9l-7-6.9M21.7 44l-7-7M21.7 48.1l-7-7M21.7 51.9l-7-6.9M21.7 56l-7-7M21.7 60.1l-7-7M21.7 63.9l-7-6.9M21.7 68l-7-7M21.7 72.1l-7-7M21.7 76.2l-7-7M21.7 80l-7-7M21.7 84.1l-7-7M21.7 88.2l-7-7M21.7 92l-7-7M21.7 96.1l-7-7M21.7 100.2l-7-7M21.7 104l-7-7M21.7 108.1l-7-7M21.7 112.2l-7-7M21.7 116.2l-7-6.9M21.7 120.1l-7-7M21.7 124.2l-7-7M21.7 128.2l-7-6.9M21.7 132.1l-7-7M21.7 136.2l-7-7M21.7 140.2l-7-6.9M21.7 144.1l-7-7M21.7 148.2l-7-7M21.7 152.2l-7-6.9M21.7 156.3l-7-6.9M21.7 160.2l-7-7M21.7 164.2l-7-6.9M21.7 168.3l-7-6.9M21.7 172.2l-7-7M21.7 176.2l-7-6.9M21.7 180.3l-7-6.9M21.7 184.4l-7-7M21.7 188.2l-7-6.9M21.7 192.3l-7-6.9M21.7 196.4l-7-7M21.7 200.2l-7-6.9M21.7 204.3l-7-6.9M21.7 208.4l-7-7M21.7 212.2l-7-6.9M21.7 216.3l-7-6.9M21.7 220.4l-7-7M21.7 224.5l-7-7M21.7 228.3l-7-6.9M21.7 232.4l-7-7M21.7 236.5l-7-7M21.7 240.3l-7-6.9M21.7 244.4l-7-7M21.7 248.5l-7-7M21.7 252.3l-7-6.9M21.7 256.4l-7-7M21.7 260.5l-7-7M21.7 264.6l-7-7M21.7 268.4l-7-7M21.7 272.5l-7-7M21.7 276.6l-7-7M21.7 280.4l-7-7M21.7 284.5l-7-7M21.7 288.6l-7-7M21.7 292.6l-7-6.9M21.7 296.5l-7-7M21.7 300.6l-7-7M21.7 304.6l-7-6.9M21.7 308.5l-7-7M21.7 312.6l-7-7M21.7 316.6l-7-6.9M21.7 320.5l-7-7M21.7 324.6l-7-7M21.7 328.6l-7-6.9M21.4 332.5l-6.7-6.7M17.4 332.5l-2.7-2.9M20 332.5l1.7-1.5M15.9 332.5l5.8-5.5M14.7 329.8l7-6.9M14.7 325.8l7-7M14.7 321.9l7-6.9M14.7 317.8l7-6.9M14.7 313.8l7-7M14.7 309.9l7-6.9M14.7 305.8l7-6.9M14.7 301.8l7-7M14.7 297.7l7-7M14.7 293.8l7-6.9M14.7 289.8l7-7M14.7 285.7l7-7M14.7 281.8l7-6.9M14.7 277.8l7-7M14.7 273.7l7-7M14.7 269.8l7-6.9M14.7 265.8l7-7M14.7 261.7l7-7M14.7 257.6l7-7M14.7 253.8l7-7M14.7 249.7l7-7M14.7 245.6l7-7M14.7 241.8l7-7M14.7 237.7l7-7M14.7 233.6l7-7M14.7 229.8l7-7M14.7 225.7l7-7M14.7 221.6l7-7M14.7 217.5l7-6.9M14.7 213.7l7-7M14.7 209.6l7-7M14.7 205.5l7-6.9M14.7 201.7l7-7M14.7 197.6l7-7M14.7 193.5l7-6.9M14.7 189.7l7-7M14.7 185.6l7-7M14.7 181.5l7-6.9M14.7 177.4l7-6.9M14.7 173.6l7-7M14.7 169.5l7-6.9M14.7 165.4l7-6.9M14.7 161.6l7-7M14.7 157.5l7-6.9M14.7 153.4l7-6.9M14.7 149.4l7-7M14.7 145.5l7-6.9M14.7 141.4l7-6.9M14.7 137.4l7-7M14.7 133.5l7-6.9M14.7 129.4l7-6.9M14.7 125.4l7-7M14.7 121.5l7-6.9M14.7 117.4l7-6.9M14.7 113.4l7-7M14.7 109.3l7-7M14.7 105.4l7-6.9M14.7 101.4l7-7M14.7 97.3l7-7M14.7 93.4l7-6.9M14.7 89.4l7-7M14.7 85.3l7-7M14.7 81.4l7-6.9M14.7 77.4l7-7M14.7 73.3l7-7M14.7 69.2l7-7M14.7 65.4l7-7M14.7 61.3l7-7M14.7 57.2l7-7M14.7 53.4l7-7M14.7 49.3l7-7M14.7 45.2l7-7M14.7 41.1l7-6.9M14.7 37.3l7-7M14.7 33.2l7-7M14.7 29.1l7-6.9M14.7 25.3l7-7M14.7 21.2l7-7M14.7 17.1l5.5-5.5M14.7 13.3l1.5-1.7"/><path class="cls-26" d="M14.5 332.5h6.9V11.6h-6.9v320.9"/><path class="cls-21" d="M21.7 11.8l-.5-.2M21.7 15.9l-4.3-4.3M21.7 20l-7-7M21.7 23.8l-7-6.9M21.7 27.9l-7-6.9M21.7 32l-7-7M21.7 35.8l-7-6.9M21.7 39.9l-7-6.9M21.7 44l-7-7M21.7 48.1l-7-7M21.7 51.9l-7-6.9M21.7 56l-7-7M21.7 60.1l-7-7M21.7 63.9l-7-6.9M21.7 68l-7-7M21.7 72.1l-7-7M21.7 76.2l-7-7M21.7 80l-7-7M21.7 84.1l-7-7M21.7 88.2l-7-7M21.7 92l-7-7M21.7 96.1l-7-7M21.7 100.2l-7-7M21.7 104l-7-7M21.7 108.1l-7-7M21.7 112.2l-7-7M21.7 116.2l-7-6.9M21.7 120.1l-7-7M21.7 124.2l-7-7M21.7 128.2l-7-6.9M21.7 132.1l-7-7M21.7 136.2l-7-7M21.7 140.2l-7-6.9M21.7 144.1l-7-7M21.7 148.2l-7-7M21.7 152.2l-7-6.9M21.7 156.3l-7-6.9M21.7 160.2l-7-7M21.7 164.2l-7-6.9M21.7 168.3l-7-6.9M21.7 172.2l-7-7M21.7 176.2l-7-6.9M21.7 180.3l-7-6.9M21.7 184.4l-7-7M21.7 188.2l-7-6.9M21.7 192.3l-7-6.9M21.7 196.4l-7-7M21.7 200.2l-7-6.9M21.7 204.3l-7-6.9M21.7 208.4l-7-7M21.7 212.2l-7-6.9M21.7 216.3l-7-6.9M21.7 220.4l-7-7M21.7 224.5l-7-7M21.7 228.3l-7-6.9M21.7 232.4l-7-7M21.7 236.5l-7-7M21.7 240.3l-7-6.9M21.7 244.4l-7-7M21.7 248.5l-7-7M21.7 252.3l-7-6.9M21.7 256.4l-7-7M21.7 260.5l-7-7M21.7 264.6l-7-7M21.7 268.4l-7-7M21.7 272.5l-7-7M21.7 276.6l-7-7M21.7 280.4l-7-7M21.7 284.5l-7-7M21.7 288.6l-7-7M21.7 292.6l-7-6.9M21.7 296.5l-7-7M21.7 300.6l-7-7M21.7 304.6l-7-6.9M21.7 308.5l-7-7M21.7 312.6l-7-7M21.7 316.6l-7-6.9M21.7 320.5l-7-7M21.7 324.6l-7-7M21.7 328.6l-7-6.9M21.4 332.5l-6.7-6.7M17.4 332.5l-2.7-2.9M20 332.5l1.7-1.5M15.9 332.5l5.8-5.5M14.7 329.8l7-6.9M14.7 325.8l7-7M14.7 321.9l7-6.9M14.7 317.8l7-6.9M14.7 313.8l7-7M14.7 309.9l7-6.9M14.7 305.8l7-6.9M14.7 301.8l7-7M14.7 297.7l7-7M14.7 293.8l7-6.9M14.7 289.8l7-7M14.7 285.7l7-7M14.7 281.8l7-6.9M14.7 277.8l7-7M14.7 273.7l7-7M14.7 269.8l7-6.9M14.7 265.8l7-7M14.7 261.7l7-7M14.7 257.6l7-7M14.7 253.8l7-7M14.7 249.7l7-7M14.7 245.6l7-7M14.7 241.8l7-7M14.7 237.7l7-7M14.7 233.6l7-7M14.7 229.8l7-7M14.7 225.7l7-7M14.7 221.6l7-7M14.7 217.5l7-6.9M14.7 213.7l7-7M14.7 209.6l7-7M14.7 205.5l7-6.9M14.7 201.7l7-7M14.7 197.6l7-7M14.7 193.5l7-6.9M14.7 189.7l7-7M14.7 185.6l7-7M14.7 181.5l7-6.9M14.7 177.4l7-6.9M14.7 173.6l7-7M14.7 169.5l7-6.9M14.7 165.4l7-6.9M14.7 161.6l7-7M14.7 157.5l7-6.9M14.7 153.4l7-6.9M14.7 149.4l7-7M14.7 145.5l7-6.9M14.7 141.4l7-6.9M14.7 137.4l7-7M14.7 133.5l7-6.9M14.7 129.4l7-6.9M14.7 125.4l7-7M14.7 121.5l7-6.9M14.7 117.4l7-6.9M14.7 113.4l7-7M14.7 109.3l7-7M14.7 105.4l7-6.9M14.7 101.4l7-7M14.7 97.3l7-7M14.7 93.4l7-6.9M14.7 89.4l7-7M14.7 85.3l7-7M14.7 81.4l7-6.9M14.7 77.4l7-7M14.7 73.3l7-7M14.7 69.2l7-7M14.7 65.4l7-7M14.7 61.3l7-7M14.7 57.2l7-7M14.7 53.4l7-7M14.7 49.3l7-7M14.7 45.2l7-7M14.7 41.1l7-6.9M14.7 37.3l7-7M14.7 33.2l7-7M14.7 29.1l7-6.9M14.7 25.3l7-7M14.7 21.2l7-7M14.7 17.1l5.5-5.5M14.7 13.3l1.5-1.7"/><path class="cls-23" d="M21.4 332.5V11.6M14.5 332.5V11.6M21.4 11.6h-6.9M14.5 332.5V11.6M21.4 332.5V11.6M21.4 332.5h-6.9"/><path class="cls-33" d="M231.7 342.1l-3.1-3.4h-16.8v3.4h19.9"/><path class="cls-22" d="M212 342.1h19.7"/><path class="cls-26" d="M231.7 342.1l-3.1-3.4h-16.8v3.4h19.9"/><path class="cls-21" d="M212 338.7l3.4 3.4M216.1 338.7l3.3 3.4M220.2 338.7l3.3 3.4M224 338.7l3.4 3.4M228.1 338.7l3.3 3.4"/><path class="cls-23" d="M211.8 342.1h19.9M211.8 338.7h16.8"/><path class="cls-22" d="M211.8 338.7h16.8M211.8 342.1h19.9"/><path class="cls-26" d="M310.4 292.2v-5.1h-16.6v5.1h16.6"/><path class="cls-21" d="M310.6 288.8l-1.9-1.7M309.9 292.2l-5-5.1M305.8 292.2l-5-5.1M301.8 292.2l-5.1-5.1M297.9 292.2l-3.8-3.9M309 292.2l1.6-1.7M304.9 292.2l5-5.1M300.8 292.2l5-5.1M297 292.2l5-5.1M294.1 291l3.8-3.9"/><path class="cls-26" d="M310.4 292.2v-5.1h-16.6v5.1h16.6"/><path class="cls-21" d="M310.6 288.8l-1.9-1.7M309.9 292.2l-5-5.1M305.8 292.2l-5-5.1M301.8 292.2l-5.1-5.1M297.9 292.2l-3.8-3.9M309 292.2l1.6-1.7M304.9 292.2l5-5.1M300.8 292.2l5-5.1M297 292.2l5-5.1M294.1 291l3.8-3.9"/><path class="cls-23" d="M293.8 292.2h16.6M293.8 287.1h16.6M293.8 287.1h16.6M293.8 292.2h16.6"/><path class="cls-26" d="M236 287.1h-17.3v5.1H236v-5.1"/><path class="cls-21" d="M236.2 290.7l-3.6-3.6M233.6 292.2l-5-5.1M229.8 292.2l-5.1-5.1M225.7 292.2l-5.1-5.1M221.6 292.2l-2.6-2.9M232.6 292.2l3.6-3.4M228.8 292.2l5-5.1M224.7 292.2l5.1-5.1M220.6 292.2l5.1-5.1M219 290l2.6-2.9"/><path class="cls-26" d="M236 287.1h-17.3v5.1H236v-5.1"/><path class="cls-21" d="M236.2 290.7l-3.6-3.6M233.6 292.2l-5-5.1M229.8 292.2l-5.1-5.1M225.7 292.2l-5.1-5.1M221.6 292.2l-2.6-2.9M232.6 292.2l3.6-3.4M228.8 292.2l5-5.1M224.7 292.2l5.1-5.1M220.6 292.2l5.1-5.1M219 290l2.6-2.9"/><path class="cls-23" d="M218.7 292.2H236M218.7 287.1H236M218.7 287.1H236M218.7 292.2H236"/><path class="cls-1" d="M236 292.2h57.8"/><path class="cls-22" d="M293.4 292.2h.4"/><path class="cls-1" d="M236 292.2v-5.1"/><path class="cls-22" d="M236 287.6v-.5"/><path class="cls-1" d="M236 287.1h57.8"/><path class="cls-22" d="M293.4 287.1h.4"/><path class="cls-4" d="M293.8 287.1v5.1"/><path class="cls-22" d="M293.8 291.7v.5M235.3 292.2h59.3v2.2h-59.3zM239.1 292.2v2.1M291 292.2v2.1M235.3 294.3v-2.1M262.9 294.3v-2.1M239.1 294.3v-2.1M267 294.3v-2.1M262.9 294.3v-2.1M291 294.3v-2.1M267 294.3v-2.1M294.6 294.3v-2.1"/><path class="cls-23" d="M236 292.2h-.7M293.8 292.2h.8M236 292.2v-5.1M293.8 292.2v-5.1M236 292.2v-5.1M293.8 292.2v-5.1M293.8 292.2h.8M236 292.2h-.7"/><path class="cls-33" d="M228.6 338.7l3.1 3.4.7-10.8-3.4-.3-.4 7.7"/><path class="cls-22" d="M231.7 342.1h.2"/><path class="cls-26" d="M228.6 338.7l3.1 3.4.7-10.8-3.4-.3-.4 7.7"/><path class="cls-21" d="M228.8 335.6l3.1 3.1M229 331.8l3.4 3.1"/><path class="cls-23" d="M229 331l-.4 7.7M232.4 331.3l-.7 10.8"/><path class="cls-22" d="M232.4 331.3l-.7 10.8M229 331l-.4 7.7"/><path class="cls-33" d="M231.7 297.9l3.3.3-.4 7.2-3.4-.5.5-7"/><path class="cls-26" d="M235 298.2l-3.3-.3-.5 7 3.4.5.4-7.2"/><path class="cls-21" d="M231.4 302l3.4 3.1M231.7 298.4l3.3 3.1"/><path class="cls-23" d="M231.7 297.9l-.5 7M235 298.2l-.4 7.2"/><path class="cls-22" d="M235 298.2l-.4 7.2M231.7 297.9l-.5 7"/><path class="cls-23" d="M231.7 297.9l3.3.3"/><path class="cls-33" d="M234.6 305.4l-3.4-.3v-.2l3.4.5M229 331l3.4.3-3.4-.3M232.4 331.3l-3.4-.3 3.4.3"/><path class="cls-33" d="M231.2 305.1v-.2l3.4.5-3.4-.3"/><path class="cls-33" d="M234.6 305.4l-3.4-.3v-.2l3.4.5M229 331l3.4.3-3.4-.3"/><path class="cls-26" d="M234.6 305.4l-3.4-.5v.2l3.4.3M229 331l3.4.3-3.4-.3"/><path class="cls-23" d="M232.4 331.3l-3.4-.3M232.4 331.3l-3.4-.3M231.2 305.1l3.4.3M231.2 305.1l3.4.3M231.2 304.9v.2"/><path class="cls-22" d="M232.4 331.3l-3.4-.3M232.4 331.3l-3.4-.3M231.2 304.9v.2M231.2 305.1l3.4.3"/><path class="cls-23" d="M231.2 304.9v.2"/><path class="cls-33" d="M298.9 304.9l-3.4.5-.7-7.2 3.6-.3.5 7"/><path class="cls-26" d="M295.5 305.4l3.4-.5-.5-7-3.6.3.7 7.2"/><path class="cls-21" d="M295.3 301.8l3.3 3.1M295.8 298.2l2.8 2.8"/><path class="cls-23" d="M298.9 304.9l-.5-7M295.5 305.4l-.7-7.2M298.4 297.9l-3.6.3"/><path class="cls-22" d="M295.5 305.4l-.7-7.2M298.9 304.9l-.5-7"/><path class="cls-33" d="M301.5 338.7l-3.1 3.4-1-10.8 3.4-.3.7 7.7"/><path class="cls-22" d="M298.4 342.1h.2"/><path class="cls-26" d="M298.4 342.1l3.1-3.4-.7-7.7-3.4.3 1 10.8"/><path class="cls-21" d="M298.4 340.9l.7.7M297.9 336.6l3.1 2.8M297.7 332l3.6 3.8M300.6 331l.4.3"/><path class="cls-23" d="M301.5 338.7l-.7-7.7M298.4 342.1l-1-10.8"/><path class="cls-22" d="M298.4 342.1l-1-10.8M301.5 338.7l-.7-7.7"/><path class="cls-33" d="M297.4 331.3l3.4-.3-3.4.3M298.9 304.9v.2l-3.4.3 3.4-.5"/><path class="cls-33" d="M295.5 305.4l3.4-.5v.2l-3.4.3M300.8 331l-3.4.3 3.4-.3M297.4 331.3l3.4-.3-3.4.3"/><path class="cls-33" d="M298.9 304.9v.2l-3.4.3 3.4-.5"/><path class="cls-26" d="M297.4 331.3l3.4-.3-3.4.3"/><path class="cls-21" d="M300.6 331"/><path class="cls-26" d="M298.9 304.9l-3.4.5 3.4-.3v-.2"/><path class="cls-21" d="M298.6 304.9v.2"/><path class="cls-23" d="M298.9 305.1v-.2M298.9 305.1v-.2M295.5 305.4l3.4-.3M295.5 305.4l3.4-.3M300.8 331l-3.4.3M300.8 331l-3.4.3M300.8 331"/><path class="cls-22" d="M298.9 305.1v-.2M295.5 305.4l3.4-.3M298.9 305.1v-.2M295.5 305.4l3.4-.3M300.8 331l-3.4.3"/><path class="cls-23" d="M300.8 331"/><path class="cls-33" d="M298.4 342.1l3.1-3.4h16.1v3.4h-19.2"/><path class="cls-22" d="M298.6 342.1h19.2"/><path class="cls-26" d="M301.5 338.7l-3.1 3.4h19.2v-3.4h-16.1"/><path class="cls-21" d="M299.1 341.6l.5.5M301 339.4l2.7 2.7M304.2 338.7l3.3 3.4M308.2 338.7l3.4 3.4M312.3 338.7l3.4 3.4M316.4 338.7l1.4 1.5"/><path class="cls-23" d="M298.4 342.1h19.2M301.5 338.7h16.1"/><path class="cls-22" d="M301.5 338.7h16.1M298.4 342.1h19.2"/><path class="cls-26" d="M218.7 287.1l-6.9 7v28.1l6.9 10.3v-45.4"/><path class="cls-21" d="M219 289.3l-1.2-1M219 293.4l-3.4-3.2M219 297.4l-5.3-5.2M219 301.3l-7-7M219 305.4l-7-7M219 309.4l-7-6.9M219 313.5l-7-6.9M219 317.4l-7-7M219 321.4l-7-6.9M219 325.5l-7-6.9M219 329.4l-6.5-6.3M217.8 331l1.2-.9M216.3 328.6l2.7-2.6M214.6 326.2l4.4-4M213 323.8l6-5.7M212 321l7-7M212 316.9l7-7M212 313l7-6.9M212 309l7-7M212 304.9l7-7M212 301l7-6.9M212 297l7-7"/><path class="cls-26" d="M218.7 287.1l-6.9 7v28.1l6.9 10.3v-45.4"/><path class="cls-21" d="M219 289.3l-1.2-1M219 293.4l-3.4-3.2M219 297.4l-5.3-5.2M219 301.3l-7-7M219 305.4l-7-7M219 309.4l-7-6.9M219 313.5l-7-6.9M219 317.4l-7-7M219 321.4l-7-6.9M219 325.5l-7-6.9M219 329.4l-6.5-6.3M217.8 331l1.2-.9M216.3 328.6l2.7-2.6M214.6 326.2l4.4-4M213 323.8l6-5.7M212 321l7-7M212 316.9l7-7M212 313l7-6.9M212 309l7-7M212 304.9l7-7M212 301l7-6.9M212 297l7-7"/><path class="cls-23" d="M218.7 332.5v-40.3M211.8 322.2v-28.1M211.8 322.2v-28.1M218.7 332.5v-40.3"/><path class="cls-26" d="M207.4 287.1l-7.2 7h11.6l6.9-7h-11.3"/><path class="cls-21" d="M217.8 288.3l-1.2-1.2M215.6 290.2l-3.1-3.1M213.7 292.2l-5.1-5.1M211.5 294.1l-5.5-5.5M207.4 294.1l-3.3-3.6M203.6 294.1l-1.7-1.5M210.8 294.1l7-7M206.7 294.1l7-7M202.6 294.1l7-7"/><path class="cls-26" d="M207.4 287.1l-7.2 7h11.6l6.9-7h-11.3"/><path class="cls-21" d="M217.8 288.3l-1.2-1.2M215.6 290.2l-3.1-3.1M213.7 292.2l-5.1-5.1M211.5 294.1l-5.5-5.5M207.4 294.1l-3.3-3.6M203.6 294.1l-1.7-1.5M210.8 294.1l7-7M206.7 294.1l7-7M202.6 294.1l7-7"/><path class="cls-23" d="M218.7 287.1h-11.3M211.8 294.1h-11.6M211.8 294.1h-11.6M218.7 287.1h-11.3"/><path class="cls-1" d="M108.6 342.1l7.6 42.5"/><path class="cls-20" d="M116.2 384.6H200"/><path class="cls-3" d="M200 384.6l7.7-42.5"/><path class="cls-22" d="M200.2 294.1v28.1"/><path class="cls-23" d="M111.7 16.6h-4.3"/><path class="cls-26" d="M111.7 185.8h-4.3V42.6h4.3v143.2"/><path class="cls-21" d="M107.6 45.7l2.9-3.1M107.6 50l4.3-4.3M107.6 54.1l4.3-4.3M107.6 58.4l4.3-4.3M107.6 62.7l4.3-4.3M107.6 67l4.3-4.3M107.6 71.1l4.3-4.3M107.6 75.4l4.3-4.3M107.6 79.8l4.3-4.4M107.6 83.8l4.3-4.3M107.6 88.2l4.3-4.4M107.6 92.5l4.3-4.3M107.6 96.6l4.3-4.4M107.6 100.9l4.3-4.3M107.6 105.2l4.3-4.3M107.6 109.5l4.3-4.3M107.6 113.6l4.3-4.3M107.6 117.9l4.3-4.3M107.6 122.2l4.3-4.3M107.6 126.3l4.3-4.3M107.6 130.6l4.3-4.3M107.6 135l4.3-4.4M107.6 139.3l4.3-4.3M107.6 143.4l4.3-4.4M107.6 147.7l4.3-4.3M107.6 152l4.3-4.3M107.6 156.1l4.3-4.3M107.6 160.4l4.3-4.3M107.6 164.7l4.3-4.3M107.6 169l4.3-4.3M107.6 173.1l4.3-4.3M107.6 177.4l4.3-4.3M107.6 181.8l4.3-4.4M107.6 185.8l4.3-4.3"/><path class="cls-26" d="M107.4 185.8h4.3V42.6h-4.3v143.2"/><path class="cls-21" d="M107.6 45.7l2.9-3.1M107.6 50l4.3-4.3M107.6 54.1l4.3-4.3M107.6 58.4l4.3-4.3M107.6 62.7l4.3-4.3M107.6 67l4.3-4.3M107.6 71.1l4.3-4.3M107.6 75.4l4.3-4.3M107.6 79.8l4.3-4.4M107.6 83.8l4.3-4.3M107.6 88.2l4.3-4.4M107.6 92.5l4.3-4.3M107.6 96.6l4.3-4.4M107.6 100.9l4.3-4.3M107.6 105.2l4.3-4.3M107.6 109.5l4.3-4.3M107.6 113.6l4.3-4.3M107.6 117.9l4.3-4.3M107.6 122.2l4.3-4.3M107.6 126.3l4.3-4.3M107.6 130.6l4.3-4.3M107.6 135l4.3-4.4M107.6 139.3l4.3-4.3M107.6 143.4l4.3-4.4M107.6 147.7l4.3-4.3M107.6 152l4.3-4.3M107.6 156.1l4.3-4.3M107.6 160.4l4.3-4.3M107.6 164.7l4.3-4.3M107.6 169l4.3-4.3M107.6 173.1l4.3-4.3M107.6 177.4l4.3-4.3M107.6 181.8l4.3-4.4M107.6 185.8l4.3-4.3"/><path class="cls-23" d="M111.7 185.8V42.6M107.4 154.4V42.6M107.4 185.8v-27.1M107.4 154.4V42.6M111.7 185.8V42.6M107.4 185.8v-27.1"/><path class="cls-26" d="M111.7 301.3h-4.3V211h4.3v90.3"/><path class="cls-21" d="M107.6 211.5l.2-.5M107.6 215.6l4.3-4.3M107.6 219.9l4.3-4.3M107.6 224.2l4.3-4.3M107.6 228.3l4.3-4.3M107.6 232.6l4.3-4.3M107.6 237l4.3-4.4M107.6 241.3l4.3-4.3M107.6 245.4l4.3-4.4M107.6 249.7l4.3-4.3M107.6 254l4.3-4.3M107.6 258.1l4.3-4.3M107.6 262.4l4.3-4.3M107.6 266.7l4.3-4.3M107.6 271l4.3-4.3M107.6 275.1l4.3-4.3M107.6 279.4l4.3-4.3M107.6 283.8l4.3-4.4M107.6 287.8l4.3-4.3M107.6 292.2l4.3-4.4M107.6 296.5l4.3-4.3M107.6 300.6l4.3-4.4M111.2 301.3l.7-.7"/><path class="cls-26" d="M107.4 301.3h4.3V211h-4.3v90.3"/><path class="cls-21" d="M107.6 211.5l.2-.5M107.6 215.6l4.3-4.3M107.6 219.9l4.3-4.3M107.6 224.2l4.3-4.3M107.6 228.3l4.3-4.3M107.6 232.6l4.3-4.3M107.6 237l4.3-4.4M107.6 241.3l4.3-4.3M107.6 245.4l4.3-4.4M107.6 249.7l4.3-4.3M107.6 254l4.3-4.3M107.6 258.1l4.3-4.3M107.6 262.4l4.3-4.3M107.6 266.7l4.3-4.3M107.6 271l4.3-4.3M107.6 275.1l4.3-4.3M107.6 279.4l4.3-4.3M107.6 283.8l4.3-4.4M107.6 287.8l4.3-4.3M107.6 292.2l4.3-4.4M107.6 296.5l4.3-4.3M107.6 300.6l4.3-4.4M111.2 301.3l.7-.7"/><path class="cls-23" d="M111.7 301.3V211M107.4 215.4V211M107.4 301.3v-81.1M107.4 215.4V211M111.7 301.3V211M107.4 301.3v-81.1M111.7 327.2h-4.3"/><path class="cls-22" d="M111.7 40.9h-4.3M111.7 18.3h-4.3"/><path class="cls-23" d="M111.7 42.6h-4.3M111.7 16.6h-4.3"/><path class="cls-21" d="M107.4 18.3C95 18.3 84.7 28.5 84.7 41M107.4 40.9H84.8"/><path class="cls-22" d="M111.7 325.5h-4.3M111.7 303h-4.3"/><path class="cls-23" d="M111.7 327.2h-4.3M111.7 301.3h-4.3"/><path class="cls-21" d="M84.7 302.9c0 12.4 10.2 22.7 22.7 22.7M107.4 303H84.8"/><path class="cls-1" d="M111.7 211v-25.2M107.4 211v-25.2"/><path class="cls-22" d="M111.7 209.8h-4.3M111.7 187h-4.3"/><path class="cls-23" d="M111.7 211h-4.3M111.7 185.8h-4.3"/><path class="cls-21" d="M107.4 187.1c-12.4 0-22.7 10.2-22.7 22.7M107.4 209.8H84.8"/><path class="cls-26" d="M21.4 158.7h86v-4.3h-86v4.3"/><path class="cls-21" d="M21.7 157l2.6-2.6M24.1 158.7l4.3-4.3M28.4 158.7l4.3-4.3M32.7 158.7l4.3-4.3M37 158.7l4.4-4.3M41.1 158.7l4.3-4.3M45.4 158.7l4.4-4.3M49.8 158.7l4.3-4.3M53.8 158.7l4.4-4.3M58.2 158.7l4.3-4.3M62.5 158.7l4.3-4.3M66.8 158.7l4.3-4.3M70.9 158.7l4.3-4.3M75.2 158.7l4.3-4.3M79.5 158.7l4.3-4.3M83.6 158.7l4.3-4.3M87.9 158.7l4.3-4.3M92.2 158.7l4.4-4.3M96.3 158.7l4.3-4.3M100.6 158.7l4.4-4.3M105 158.7l2.6-2.6"/><path class="cls-26" d="M21.4 158.7h86v-4.3h-86v4.3"/><path class="cls-21" d="M21.7 157l2.6-2.6M24.1 158.7l4.3-4.3M28.4 158.7l4.3-4.3M32.7 158.7l4.3-4.3M37 158.7l4.4-4.3M41.1 158.7l4.3-4.3M45.4 158.7l4.4-4.3M49.8 158.7l4.3-4.3M53.8 158.7l4.4-4.3M58.2 158.7l4.3-4.3M62.5 158.7l4.3-4.3M66.8 158.7l4.3-4.3M70.9 158.7l4.3-4.3M75.2 158.7l4.3-4.3M79.5 158.7l4.3-4.3M83.6 158.7l4.3-4.3M87.9 158.7l4.3-4.3M92.2 158.7l4.4-4.3M96.3 158.7l4.3-4.3M100.6 158.7l4.4-4.3M105 158.7l2.6-2.6"/><path class="cls-23" d="M107.4 154.4h-86M107.4 158.7h-86M21.4 154.4v4.3M107.4 158.7h-86M107.4 154.4h-86"/><path class="cls-26" d="M21.4 220.2h86v-4.8h-86v4.8"/><path class="cls-21" d="M21.7 216.6l1.2-1.2M22.2 220.2l4.8-4.8M26.5 220.2l4.8-4.8M30.8 220.2l4.8-4.8M34.9 220.2l4.8-4.8M39.2 220.2l4.8-4.8M43.5 220.2l4.8-4.8M47.8 220.2l4.8-4.8M51.9 220.2l4.8-4.8M56.2 220.2l4.8-4.8M60.6 220.2l4.8-4.8M64.6 220.2l4.8-4.8M69 220.2l4.8-4.8M73.3 220.2l4.8-4.8M77.6 220.2l4.8-4.8M81.7 220.2l4.8-4.8M86 220.2l4.8-4.8M90.3 220.2l4.8-4.8M94.4 220.2l4.8-4.8M98.7 220.2l4.8-4.8M103 220.2l4.6-4.6M107.4 220.2l.2-.3"/><path class="cls-26" d="M21.4 220.2h86v-4.8h-86v4.8"/><path class="cls-21" d="M21.7 216.6l1.2-1.2M22.2 220.2l4.8-4.8M26.5 220.2l4.8-4.8M30.8 220.2l4.8-4.8M34.9 220.2l4.8-4.8M39.2 220.2l4.8-4.8M43.5 220.2l4.8-4.8M47.8 220.2l4.8-4.8M51.9 220.2l4.8-4.8M56.2 220.2l4.8-4.8M60.6 220.2l4.8-4.8M64.6 220.2l4.8-4.8M69 220.2l4.8-4.8M73.3 220.2l4.8-4.8M77.6 220.2l4.8-4.8M81.7 220.2l4.8-4.8M86 220.2l4.8-4.8M90.3 220.2l4.8-4.8M94.4 220.2l4.8-4.8M98.7 220.2l4.8-4.8M103 220.2l4.6-4.6M107.4 220.2l.2-.3"/><path class="cls-23" d="M107.4 215.4h-86M107.4 220.2h-86M21.4 215.4v4.8M107.4 220.2h-86M107.4 215.4h-86"/><path class="cls-1" d="M200 156.6v-33.9"/><path class="cls-22" d="M200 123.2v-.5M200 157.5h17.5v.5H200zM200 158h.5v17h-.5zM200.5 174.6h15.4v.5h-15.4zM200.5 158h15.4v.7h-15.4z"/><path class="cls-22" d="M215.8 158h.5v17h-.5zM200 192.1h.5v17h-.5zM200.5 192.1h15.4v.5h-15.4zM200.5 208.4h15.4v.7h-15.4z"/><path class="cls-22" d="M215.8 192.1h.5v17h-.5zM200 209.1h.5v1.9h-.5zM200 175h.5v17h-.5zM200.5 175h15.4v.5h-15.4zM200.5 191.6h15.4v.5h-15.4z"/><path class="cls-22" d="M215.8 175h.5v17h-.5zM192.6 35.4h17.5v69.1h-17.5zM194.7 52.9h-2.1M194.7 69.9h-2.1M194.7 87h-2.1M194.7 104h-2.1M200 104.5h16.3v.5H200zM200 105h.5v17h-.5zM200.5 121.5h15.4v.5h-15.4zM200.5 105h15.4v.7h-15.4z"/><path class="cls-22" d="M215.8 105h.5v17h-.5z"/><path class="cls-26" d="M204.9 103h-9.3c-.1 0-.3 0-.4-.1s-.2-.1-.3-.2-.2-.2-.3-.2c0 0-.2-.2-.2-.3 0-.1-.1-.2-.2-.3 0-.1 0-.2-.1-.4V89.9v-.4c0-.1 0-.3.1-.4 0-.1.1-.2.2-.3 0-.1.2-.2.2-.3 0 0 .2-.2.3-.2.1 0 .2-.1.3-.2.1 0 .2 0 .4-.1h9.3c.3 0 .5 0 .8.2.2 0 .5.2.6.4.2.2.3.4.4.6.1.2.2.5.2.8v11.2c0 .3 0 .5-.2.8-.1.2-.2.5-.4.6-.2.2-.4.3-.6.4-.2 0-.5.2-.8.2"/><path class="cls-22" d="M204.9 103h-9.3c-.1 0-.3 0-.4-.1s-.2-.1-.3-.2-.2-.2-.3-.2c0 0-.2-.2-.2-.3 0-.1-.1-.2-.2-.3 0-.1 0-.2-.1-.4V89.9v-.4c0-.1 0-.3.1-.4 0-.1.1-.2.2-.3 0-.1.2-.2.2-.3 0 0 .2-.2.3-.2.1 0 .2-.1.3-.2.1 0 .2 0 .4-.1h9.3c.3 0 .5 0 .8.2.2 0 .5.2.6.4.2.2.3.4.4.6.1.2.2.5.2.8v11.2c0 .3 0 .5-.2.8-.1.2-.2.5-.4.6-.2.2-.4.3-.6.4-.2 0-.5.2-.8.2"/><path class="cls-26" d="M204.8 95.4c0-.7-.5-1.2-1.2-1.2s-1.2.5-1.2 1.2.5 1.2 1.2 1.2 1.2-.5 1.2-1.2"/><path class="cls-22" d="M204.8 95.4c0-.7-.5-1.2-1.2-1.2s-1.2.5-1.2 1.2.5 1.2 1.2 1.2 1.2-.5 1.2-1.2"/><path class="cls-25" d="M194 53.4h14.6v15.8H194z"/><path class="cls-22" d="M194 53.4h14.6v15.8H194z"/><path class="cls-26" d="M201.7 57.3c0-1.5-1.3-2.8-2.9-2.8s-2.9 1.2-2.9 2.8 1.3 2.8 2.9 2.8 2.9-1.2 2.9-2.8"/><path class="cls-22" d="M201.7 57.3c0-1.5-1.3-2.8-2.9-2.8s-2.9 1.2-2.9 2.8 1.3 2.8 2.9 2.8 2.9-1.2 2.9-2.8"/><path class="cls-26" d="M207.7 56.4c0-1.3-1-2.3-2.2-2.3s-2.2 1-2.2 2.3 1 2.3 2.2 2.3 2.2-1 2.2-2.3"/><path class="cls-22" d="M207.7 56.4c0-1.3-1-2.3-2.2-2.3s-2.2 1-2.2 2.3 1 2.3 2.2 2.3 2.2-1 2.2-2.3"/><path class="cls-26" d="M201 64.9c0-1.2-1-2.2-2.3-2.2s-2.3 1-2.3 2.2 1 2.2 2.3 2.2 2.3-1 2.3-2.2"/><path class="cls-22" d="M201 64.9c0-1.2-1-2.2-2.3-2.2s-2.3 1-2.3 2.2 1 2.2 2.3 2.2 2.3-1 2.3-2.2"/><path class="cls-26" d="M207.9 64.6c0-1.6-1.2-2.9-2.8-2.9s-2.8 1.3-2.8 2.9 1.2 2.9 2.8 2.9 2.8-1.3 2.8-2.9"/><path class="cls-22" d="M207.9 64.6c0-1.6-1.2-2.9-2.8-2.9s-2.8 1.3-2.8 2.9 1.2 2.9 2.8 2.9 2.8-1.3 2.8-2.9M194.7 35.8h-2.1M200 34.6h16.3v.7H200zM200 17.8h.5v16.8h-.5zM200.5 17.8h15.4v.5h-15.4z"/><path class="cls-22" d="M200.5 34.2h15.4v.5h-15.4zM200 16.6h.5v1.2h-.5z"/><path class="cls-22" d="M215.8 17.8h.5v16.8h-.5zM200 122h17.5v.7H200zM218.2 103.5h-7.4"/><path class="cls-8" d="M218.2 104.2h-8.1"/><path class="cls-22" d="M218.2 102.1H212M218.2 103.5h-7.4M218.2 104.2h-8.1M218.2 102.1H212"/><path class="cls-8" d="M218.2 103.5v.7"/><path class="cls-22" d="M218.2 102.1v1.4M210.8 103.5V36.1"/><path class="cls-8" d="M210.1 104.2V35.4"/><path class="cls-22" d="M212 102.1V37.5M210.8 103.5V36.1M210.1 104.2V35.4M212 102.1V37.5M210.8 36.1h7.4"/><path class="cls-8" d="M210.1 35.4h8.1"/><path class="cls-22" d="M212 37.5h6.2M210.8 36.1h7.4"/><path class="cls-8" d="M218.2 36.1v-.7"/><path class="cls-22" d="M218.2 37.5v-1.4M210.1 35.4h8.1M212 37.5h6.2"/><path class="cls-1" d="M200 35.4v69.1"/><path class="cls-22" d="M200 104v.5"/><path class="cls-26" d="M200.2 223.3l7.2 7.2h10.8v-7.2h-18"/><path class="cls-21" d="M218.5 224.7l-1.7-1.4M218.5 228.8l-5.5-5.5M216.1 230.5l-7.2-7.2M212 230.5l-7.2-7.2M208.2 230.5l-7.2-7.2M218.2 230.5l.3-.3M214.2 230.5l4.3-4.1M210.1 230.5l7.2-7.2M207 229.8l6.4-6.5M204.8 227.8l4.6-4.5M202.9 225.7l2.4-2.4M201 223.8l.4-.5"/><path class="cls-26" d="M200.2 223.3l7.2 7.2h10.8v-7.2h-18"/><path class="cls-21" d="M218.5 224.7l-1.7-1.4M218.5 228.8l-5.5-5.5M216.1 230.5l-7.2-7.2M212 230.5l-7.2-7.2M208.2 230.5l-7.2-7.2M218.2 230.5l.3-.3M214.2 230.5l4.3-4.1M210.1 230.5l7.2-7.2M207 229.8l6.4-6.5M204.8 227.8l4.6-4.5M202.9 225.7l2.4-2.4M201 223.8l.4-.5"/><path class="cls-23" d="M218.2 223.3h-18M218.2 230.5h-10.8M218.2 230.5h-10.8M218.2 223.3h-18"/><path class="cls-25" d="M204.6 208.4h9.8v2.6h-9.8z"/><path class="cls-22" d="M204.6 208.4h9.8v2.6h-9.8zM204.3 208.4z"/><path class="cls-19" d="M213.7 208.4v-8.6"/><path class="cls-7" d="M205.3 208.4v-1.7l.5-1.7.9-1.4 1-1.2 1.2-1.2 1.4-.7 1.7-.5 1.7-.2"/><path class="cls-1" d="M228.3 343.8h73.5"/><path class="cls-22" d="M228.3 343.8v-1.7M301.8 343.8v-1.7"/><path class="cls-21" d="M265 294.4c0 15.2 12.5 27.8 27.8 27.8M292.9 322.2v-27.9"/><path class="cls-7" d="M265 294.3l-.2 2.9-.2 2.6-.8 2.7-.9 2.6-1.2 2.4-1.5 2.4-1.4 2.2-1.9 1.9-2.2 1.9-2.1 1.7-2.2 1.2-2.6 1.2-2.4 1-2.7.7-2.9.2-2.6.3M237.2 322.2v-27.9"/><path class="cls-21" d="M237.2 294.8v-.5"/><path class="cls-26" d="M218.2 165.9l5.6-7.9h-5.6v7.9"/><path class="cls-21" d="M222.1 160.4l-2.4-2.4M220.6 162.8l-2.1-2.2M219 165.2l-.5-.5M218.5 162.1l4.1-4.1M218.5 158.2v-.2"/><path class="cls-26" d="M218.2 165.9l5.6-7.9h-5.6v7.9"/><path class="cls-21" d="M222.1 160.4l-2.4-2.4M220.6 162.8l-2.1-2.2M219 165.2l-.5-.5M218.5 162.1l4.1-4.1M218.5 158.2v-.2"/><path class="cls-23" d="M218.2 158v7.9M218.2 158v7.9"/><path class="cls-26" d="M218.2 11.6h7.2v110.6h-7.2V11.6"/><path class="cls-21" d="M225.7 15.4l-4.1-3.8M225.7 19.5l-7.2-7.2M225.7 23.6l-7.2-7.2M225.7 27.4l-7.2-7.2M225.7 31.5l-7.2-7.2M225.7 35.6l-7.2-7.2M225.7 39.4l-7.2-7.2M225.7 43.5l-7.2-7.2M225.7 47.6l-7.2-7.2M225.7 51.4l-7.2-7.2M225.7 55.5l-7.2-7.2M225.7 59.6l-7.2-7.2M225.7 63.7l-7.2-7.2M225.7 67.5l-7.2-7.2M225.7 71.6l-7.2-7.2M225.7 75.7l-7.2-7.2M225.7 79.5l-7.2-7.2M225.7 83.6l-7.2-7.2M225.7 87.7l-7.2-7.2M225.7 91.5l-7.2-7.2M225.7 95.6l-7.2-7.2M225.7 99.7l-7.2-7.2M225.7 103.8l-7.2-7.2M225.7 107.6l-7.2-7.2M225.7 111.7l-7.2-7.2M225.7 115.8l-7.2-7.2M225.7 119.6l-7.2-7.2M224 122.2l-5.5-5.7M220.2 122.2l-1.7-1.6M222.3 122.2l3.4-3.3M218.5 122l7.2-7.2M218.5 118.2l7.2-7.2M218.5 114.1l7.2-7.2M218.5 110l7.2-7.2M218.5 106.2l7.2-7.2M218.5 102.1l7.2-7.2M218.5 98l7.2-7.2M218.5 93.9l7.2-7.2M218.5 90.1l7.2-7.2M218.5 86l7.2-7.2M218.5 81.9l7.2-7.2M218.5 78.1l7.2-7.2M218.5 74l7.2-7.2M218.5 69.9l7.2-7.2M218.5 66.1l7.2-7.2M218.5 62l7.2-7.2M218.5 57.9l7.2-7.2M218.5 53.8l7.2-7.2M218.5 50l7.2-7.2M218.5 45.9l7.2-7.2M218.5 41.8l7.2-7.2M218.5 38l7.2-7.2M218.5 33.9l7.2-7.2M218.5 29.8l7.2-7.2M218.5 26l7.2-7.2M218.5 21.9l7.2-7.2M218.5 17.8l6.2-6.2M218.5 13.8l2.1-2.2"/><path class="cls-26" d="M225.4 11.6h-7.2v110.6h7.2V11.6"/><path class="cls-21" d="M225.7 15.4l-4.1-3.8M225.7 19.5l-7.2-7.2M225.7 23.6l-7.2-7.2M225.7 27.4l-7.2-7.2M225.7 31.5l-7.2-7.2M225.7 35.6l-7.2-7.2M225.7 39.4l-7.2-7.2M225.7 43.5l-7.2-7.2M225.7 47.6l-7.2-7.2M225.7 51.4l-7.2-7.2M225.7 55.5l-7.2-7.2M225.7 59.6l-7.2-7.2M225.7 63.7l-7.2-7.2M225.7 67.5l-7.2-7.2M225.7 71.6l-7.2-7.2M225.7 75.7l-7.2-7.2M225.7 79.5l-7.2-7.2M225.7 83.6l-7.2-7.2M225.7 87.7l-7.2-7.2M225.7 91.5l-7.2-7.2M225.7 95.6l-7.2-7.2M225.7 99.7l-7.2-7.2M225.7 103.8l-7.2-7.2M225.7 107.6l-7.2-7.2M225.7 111.7l-7.2-7.2M225.7 115.8l-7.2-7.2M225.7 119.6l-7.2-7.2M224 122.2l-5.5-5.7M220.2 122.2l-1.7-1.6M222.3 122.2l3.4-3.3M218.5 122l7.2-7.2M218.5 118.2l7.2-7.2M218.5 114.1l7.2-7.2M218.5 110l7.2-7.2M218.5 106.2l7.2-7.2M218.5 102.1l7.2-7.2M218.5 98l7.2-7.2M218.5 93.9l7.2-7.2M218.5 90.1l7.2-7.2M218.5 86l7.2-7.2M218.5 81.9l7.2-7.2M218.5 78.1l7.2-7.2M218.5 74l7.2-7.2M218.5 69.9l7.2-7.2M218.5 66.1l7.2-7.2M218.5 62l7.2-7.2M218.5 57.9l7.2-7.2M218.5 53.8l7.2-7.2M218.5 50l7.2-7.2M218.5 45.9l7.2-7.2M218.5 41.8l7.2-7.2M218.5 38l7.2-7.2M218.5 33.9l7.2-7.2M218.5 29.8l7.2-7.2M218.5 26l7.2-7.2M218.5 21.9l7.2-7.2M218.5 17.8l6.2-6.2M218.5 13.8l2.1-2.2"/><path class="cls-23" d="M218.2 11.6v110.6M225.4 122v.2M225.4 11.6v103.2M225.4 122v.2M218.2 11.6v110.6M225.4 11.6v103.2M218.2 11.6h7.2"/><path class="cls-22" d="M217.8 122.2h1.7v2.4h-1.7zM217.8 152h1.7v6h-1.7z"/><path class="cls-22" d="M217.8 124.6h1.7V152h-1.7zM219.4 124.6V152"/><path class="cls-1" d="M225.4 124.4v27.8"/><path class="cls-22" d="M225.4 151.8v.4"/><path class="cls-26" d="M225.4 122.2v2.2h-6v-2.2"/><path class="cls-21" d="M225.7 123.7l-1.7-1.5M222.3 124.4l-2.1-2.2M224 124.4l1.7-1.4M220.2 124.4l2.1-2.2"/><path class="cls-26" d="M225.4 158v-5.8h-6v5.8"/><path class="cls-21" d="M225.7 155.8l-3.6-3.6M223.8 158l-4.1-4.3M219.7 158v-.2M222.6 158l3.1-3.1M219.7 157l4.5-4.8M219.7 153l.7-.8"/><path class="cls-23" d="M225.4 124.4h-6M225.4 152.2h-6M225.4 124.4h-6M225.4 122.2v2.2M225.4 152.2h-6M225.4 158v-5.8M218.2 122.2h1.2M218.2 158h1.2M225.4 122.2v2.2M225.4 158v-5.8M219.4 124.4v-2.2M219.4 152.2v5.8"/><path class="cls-21" d="M190.6 124.7c0 14.9 12.3 27.2 27.2 27.2M217.8 124.6h-27.2"/><path class="cls-26" d="M218.2 230.5l7.2-9.9v-54.7h-7.2v64.6"/><path class="cls-21" d="M225.7 167.8l-1.9-1.9M225.7 171.9l-6-6M225.7 175.8l-7.2-7.2M225.7 179.8l-7.2-7.2M225.7 183.9l-7.2-7.2M225.7 187.8l-7.2-7.2M225.7 191.8l-7.2-7.2M225.7 195.9l-7.2-7.2M225.7 199.8l-7.2-7.2M225.7 203.8l-7.2-7.2M225.7 207.9l-7.2-7.2M225.7 212l-7.2-7.2M225.7 215.8l-7.2-7.2M225.7 219.9l-7.2-7.2M224.2 222.6l-5.7-5.8M222.6 225l-4.1-4.4M220.9 227.1l-2.4-2.4M219.2 229.5l-.7-.7M218.5 230.2l.2-.2M218.5 226.4l7.2-7.2M218.5 222.3l7.2-7.2M218.5 218.2l7.2-7.2M218.5 214.4l7.2-7.2M218.5 210.3l7.2-7.2M218.5 206.2l7.2-7.2M218.5 202.2l7.2-7.2M218.5 198.3l7.2-7.2M218.5 194.2l7.2-7.2M218.5 190.2l7.2-7.2M218.5 186.3l7.2-7.2M218.5 182.2l7.2-7.2M218.5 178.2l7.2-7.2M218.5 174.3l7.2-7.2M218.5 170.2l4.1-4.3M218.5 166.2l.2-.3"/><path class="cls-26" d="M218.2 230.5l7.2-9.9v-54.7h-7.2v64.6"/><path class="cls-21" d="M225.7 167.8l-1.9-1.9M225.7 171.9l-6-6M225.7 175.8l-7.2-7.2M225.7 179.8l-7.2-7.2M225.7 183.9l-7.2-7.2M225.7 187.8l-7.2-7.2M225.7 191.8l-7.2-7.2M225.7 195.9l-7.2-7.2M225.7 199.8l-7.2-7.2M225.7 203.8l-7.2-7.2M225.7 207.9l-7.2-7.2M225.7 212l-7.2-7.2M225.7 215.8l-7.2-7.2M225.7 219.9l-7.2-7.2M224.2 222.6l-5.7-5.8M222.6 225l-4.1-4.4M220.9 227.1l-2.4-2.4M219.2 229.5l-.7-.7M218.5 230.2l.2-.2M218.5 226.4l7.2-7.2M218.5 222.3l7.2-7.2M218.5 218.2l7.2-7.2M218.5 214.4l7.2-7.2M218.5 210.3l7.2-7.2M218.5 206.2l7.2-7.2M218.5 202.2l7.2-7.2M218.5 198.3l7.2-7.2M218.5 194.2l7.2-7.2M218.5 190.2l7.2-7.2M218.5 186.3l7.2-7.2M218.5 182.2l7.2-7.2M218.5 178.2l7.2-7.2M218.5 174.3l7.2-7.2M218.5 170.2l4.1-4.3M218.5 166.2l.2-.3"/><path class="cls-23" d="M218.2 165.9v57.4M225.4 165.9v54.7M225.4 165.9v54.7M218.2 165.9v57.4"/><path class="cls-26" d="M270.8 165.9l5.8-10.3h-15.4v10.3h9.6"/><path class="cls-21" d="M275.6 157.8l-2.2-2.2M274.2 160.2l-4.6-4.6M272.7 162.8l-7.2-7.2M271.3 165.4l-9.9-9.8M267.7 165.9l-6.3-6.5M263.8 165.9l-2.4-2.4M270.8 165.9l.2-.5M266.7 165.9l9.4-9.3M262.6 165.9l10.4-10.3M261.4 163.3l7.7-7.7M261.4 159.2l3.6-3.6"/><path class="cls-26" d="M270.8 165.9l5.8-10.3h-15.4v10.3h9.6"/><path class="cls-21" d="M275.6 157.8l-2.2-2.2M274.2 160.2l-4.6-4.6M272.7 162.8l-7.2-7.2M271.3 165.4l-9.9-9.8M267.7 165.9l-6.3-6.5M263.8 165.9l-2.4-2.4M270.8 165.9l.2-.5M266.7 165.9l9.4-9.3M262.6 165.9l10.4-10.3M261.4 163.3l7.7-7.7M261.4 159.2l3.6-3.6"/><path class="cls-23" d="M261.2 165.9h9.6M261.2 155.6h15.4M261.2 155.6h15.4M261.2 165.9h9.6"/><path class="cls-26" d="M225.4 165.9v-10.3l-7.2 10.3h7.2"/><path class="cls-21" d="M225.7 155.8l-.3-.2M225.7 159.7l-1.9-1.7M225.7 163.8l-3.6-3.4M223.8 165.9l-3.2-3.1M219.7 165.9l-.7-.7M222.6 165.9l3.1-2.9M218.7 165.9l7-6.9"/><path class="cls-26" d="M225.4 165.9v-10.3l-7.2 10.3h7.2"/><path class="cls-21" d="M225.7 155.8l-.3-.2M225.7 159.7l-1.9-1.7M225.7 163.8l-3.6-3.4M223.8 165.9l-3.2-3.1M219.7 165.9l-.7-.7M222.6 165.9l3.1-2.9M218.7 165.9l7-6.9"/><path class="cls-22" d="M228.6 164.5h29.5"/><path class="cls-1" d="M228.6 155.6h29.5"/><path class="cls-22" d="M257.6 155.6h.5"/><path class="cls-26" d="M225.4 155.6h3.2v8.9h-3.2"/><path class="cls-21" d="M228.8 159l-3.1-3.2M228.8 162.8l-3.1-3.1M226.2 164.5l-.5-.7M228.1 164.5l.7-.5M225.7 163l3.1-3.1M225.7 159l3.1-3.2"/><path class="cls-26" d="M261.2 155.6h-3.1v8.9h3.1"/><path class="cls-21" d="M261.4 159.4l-3.1-3.1M261.4 163.5l-3.1-3.1M260.2 164.5l1.2-1.2M258.3 162.3l3.1-3.1M258.3 158.5l2.7-2.9"/><path class="cls-23" d="M228.6 155.6v8.9M258.1 155.6v8.9M228.6 155.6v8.9M225.4 155.6h3.2M258.1 155.6v8.9M261.2 155.6h-3.1M225.4 165.9v-1.4M261.2 165.9v-1.4M225.4 155.6h3.2M261.2 155.6h-3.1M228.6 164.5h-3.2M258.1 164.5h3.1"/><path class="cls-1" d="M228.6 338.7h72.9"/><path class="cls-23" d="M235 298.2l.3-3.9M294.8 298.2l-.2-3.9"/><path class="cls-26" d="M200.2 332.5h18.5l-6.9-10.3h-11.6v10.3"/><path class="cls-21" d="M212.5 323.1l-1-.9M217.8 332.5l-10.4-10.3M213.9 332.5l-10.3-10.3M209.8 332.5l-9.3-9.6M205.8 332.5l-5.3-5.5M201.9 332.5l-1.4-1.5M216.3 332.5l1.5-1.5M212.5 332.5l3.8-3.9M208.4 332.5l6.2-6.3M204.3 332.5l8.7-8.7M200.5 332.5l10.3-10.3M200.5 328.4l6.2-6.2M200.5 324.6l2.1-2.4"/><path class="cls-26" d="M200.2 332.5h18.5l-6.9-10.3h-11.6v10.3"/><path class="cls-21" d="M212.5 323.1l-1-.9M217.8 332.5l-10.4-10.3M213.9 332.5l-10.3-10.3M209.8 332.5l-9.3-9.6M205.8 332.5l-5.3-5.5M201.9 332.5l-1.4-1.5M216.3 332.5l1.5-1.5M212.5 332.5l3.8-3.9M208.4 332.5l6.2-6.3M204.3 332.5l8.7-8.7M200.5 332.5l10.3-10.3M200.5 328.4l6.2-6.2M200.5 324.6l2.1-2.4"/><path class="cls-23" d="M211.8 322.2h-11.6M218.7 332.5h-18.5M200.2 322.2v10.3M218.7 332.5h-18.5M211.8 322.2h-11.6"/><path class="cls-14" d="M226.9 336.8h5.3"/><path class="cls-5" d="M303 336.8h-5.1"/><path class="cls-22" d="M298.4 336.8h-.5M214.9 223.3V212"/><path class="cls-8" d="M214.2 223.3v-9.9"/><path class="cls-22" d="M216.3 223.3v-9.9M214.9 223.3V212M214.2 223.3v-9.9M216.3 223.3v-9.9"/><path class="cls-8" d="M214.9 223.3h-.7"/><path class="cls-22" d="M216.3 223.3h-1.4"/><path class="cls-8" d="M214.2 213.4V212"/><path class="cls-21" d="M168 11.5c0 11 9.1 20.1 20.1 20.1M188.2 31.5V11.6"/><path class="cls-7" d="M168.1 11.6l-.5 3.8-1.2 3.9-1.7 3.3-2.6 3.2-2.9 2.4-3.6 1.9-3.8 1.2-3.9.2"/><path class="cls-19" d="M147.9 31.5V11.6"/><path class="cls-21" d="M62.3 11.6v1.9c0 .6-.2 1.2-.3 1.8-.1.6-.3 1.2-.5 1.8l-.6 1.8c-.2.6-.5 1.1-.8 1.7-.3.5-.6 1.1-1 1.6-.3.5-.7 1-1.1 1.5-.4.5-.8.9-1.3 1.4-.4.4-.9.9-1.4 1.3-.5.4-1 .8-1.5 1.1-.5.3-1 .7-1.6 1-.5.3-1.1.6-1.7.8l-1.8.6c-.6.2-1.2.3-1.8.5l-1.8.3h-1.9M43.3 30.6v-19M62.2 11.6l.3 1.4M62.7 14.5v.7M62.7 15.2l.3.7"/><path class="cls-16" d="M63.2 17.1l.5 1.7"/><path class="cls-21" d="M64.4 20l.2.5M64.6 20.5l.5.7M65.8 22.4l.8 1.2"/><path class="cls-18" d="M66.6 23.6L68 25"/><path class="cls-21" d="M68 25l.5.5"/><path class="cls-6" d="M69.2 26.2l1.4 1.2"/><path class="cls-21" d="M71.8 28.2l.5.2M72.3 28.4l.7.2"/><path class="cls-17" d="M74 29.1l1.7.7"/><path class="cls-21" d="M77.1 30.1l.5.2M77.6 30.3h1M80 30.6h1.2"/><path class="cls-7" d="M81.2 30.6v-19"/><path class="cls-21" d="M81.2 12.1v-.5M188.2 312.2c-11 0-20.1 9.1-20.1 20.1M188.2 312.3v20.2"/><path class="cls-7" d="M147.9 312.3l3.9.3 3.8 1.2 3.6 1.9 2.9 2.4 2.6 3.1 1.7 3.4 1.2 3.8.5 4.1"/><path class="cls-19" d="M147.9 312.3v20.2"/><path class="cls-21" d="M58.6 332.4v-1.9c0-.6-.2-1.2-.3-1.8-.1-.6-.3-1.2-.5-1.8l-.6-1.8c-.2-.6-.5-1.1-.8-1.7-.3-.5-.6-1.1-1-1.6-.3-.5-.7-1-1.1-1.5-.4-.5-.8-.9-1.3-1.4-.4-.4-.9-.9-1.4-1.3-.5-.4-1-.8-1.5-1.1-.5-.3-1-.7-1.6-1-.5-.3-1.1-.6-1.7-.8l-1.8-.6c-.6-.2-1.2-.3-1.8-.5l-1.8-.3h-1.9M39.7 313.3v19.2M58.6 332.5V331M58.6 329.6l.3-1M58.9 328.6l.2-.4"/><path class="cls-16" d="M59.4 327l.7-2"/><path class="cls-21" d="M60.3 324.3l.5-.9M60.8 323.4l.2-.3"/><path class="cls-13" d="M61.8 321.9l1.2-1.7"/><path class="cls-21" d="M63.7 319.5l.5-.5M64.2 319l.4-.4"/><path class="cls-10" d="M65.6 317.6l1.4-1"/><path class="cls-21" d="M68 316.2l.7-.5M68.7 315.7l.5-.3"/><path class="cls-13" d="M70.4 314.7l1.7-.5"/><path class="cls-21" d="M73.3 314l.7-.2M74 313.8h.7"/><path class="cls-15" d="M75.7 313.5l1.9-.2"/><path class="cls-7" d="M77.6 313.3v19.2"/><path class="cls-21" d="M77.6 332v.5M23.6 423.2l-1-.5M22.6 422.7l-1.2.3M21.4 423l-.9.2M20.5 423.2l-1-.5M19.5 422.7l-.9-.7M18.6 422h-1.2M17.4 422l-1-.2M16.4 421.8l-1-.8M15.4 421l-.7-.7M14.7 420.3l-.9-.5M13.8 419.8l-1-.2M12.8 419.6l-.7-1M12.1 418.6l-.5-.9M11.6 417.7l-1-.7M10.6 417l-.9-.5M9.7 416.5l-.5-1.2M9.2 415.3v-1M9.2 414.3l-.7-.9M8.5 413.4l-.7-.8M7.8 412.6l-.3-1.2M7.5 411.7v-1.2M7.5 410.5l-.5-1M7 409.5l-.4-.9M6.6 408.6v-1.2M6.6 407.4l.4-1M7 406.4l-.2-1.2M6.8 405.2l-.2-1M6.6 404.2l.2-.9M6.8 403.3l.7-1M7.5 402.3v-1.2M7.5 401.1v-.9M7.5 400.2l.7-1M8.2 399.2l.8-.7M9 398.5l.2-1.2M9.2 397.3l.5-1M9.7 396.3l.7-.7M10.4 395.6l1-.7M11.4 394.9l.4-.7M11.8 394.2l.8-1M12.6 393.2l.9-.7M13.5 392.5l1-.3M14.5 392.2l.7-.7M15.2 391.5l1-.7M16.2 390.8l.9-.2M17.1 390.6h1.2M18.3 390.6l1-.8M19.3 389.8l.9-.4M20.2 389.4h1M21.2 389.4l1.2.2M22.4 389.6l1-.2M23.4 389.4l.9-.3M24.3 389.1l1.2.3M25.5 389.4l1 .4M26.5 389.8h.9M27.4 389.8h1.2M28.6 389.8l1 .5M29.6 390.3l.7.7M30.3 391l1.2.3M31.5 391.3l1 .2M32.5 391.5l.9.7M33.4 392.2l.5 1M33.9 393.2l1 .5M34.9 393.7l.9.5M35.8 394.2l.8.9M36.6 395.1l.2 1M36.8 396.1l1 .7M37.8 396.8l.7.7M38.5 397.5l.2 1.2M38.7 398.7l.3 1M39 399.7l.4.9M39.4 400.6l.8 1M40.2 401.6v1M40.2 402.6v1.2M40.2 403.8l.2.9M40.4 404.7l.5 1.2M40.9 405.9l-.3 1M40.6 406.9l-.4.9M40.2 407.8v1.2M40.2 409l.2 1M40.4 410l-.5 1M39.9 411l-.7.9M39.2 411.9l-.2 1.2M39 413.1v1M39 414.1l-.8.9M38.2 415l-.9.5M37.3 415.5l-.5 1.2M36.8 416.7l-.2 1M36.6 417.7l-1 .7M35.6 418.4l-1 .2M34.6 418.6l-.7 1M33.9 419.6l-.7 1M33.2 420.6l-1 .2M32.2 420.8l-1.2.2M31 421l-.7.8M30.3 421.8l-.9.7M29.4 422.5h-1M28.4 422.5h-1.2M27.2 422.5l-1 .5M26.2 423l-.9.2M25.3 423.2h-1.2"/><g class="cls-32"><path class="cls-21" d="M24.1 423.2l-1-.2M23.1 423l-1.2.2M21.9 423.2l-.9.5M21 423.7l-1-.3"/></g><path class="cls-11" d="M24.3 406.2c0-.4-.3-.7-.7-.7s-.7.3-.7.7.3.7.7.7.7-.3.7-.7"/><path class="cls-21" d="M21.7 393.7l-1-.3M20.7 393.4h-1.2M19.5 393.4l-1.2.3M18.3 393.7l-.9-.5M17.4 393.2l-1-.5M16.4 392.7h-1M15.4 392.7h-1.2M14.2 392.7l-.9-.7M13.3 392l-.7-.7M12.6 391.3l-1-.3M11.6 391l-1.2-.2M10.4 390.8l-.7-.7M9.7 390.1l-.7-1M9 389.1l-1-.5M8 388.6l-1-.4M7 388.2l-.7-1M6.3 387.2l-.5-1M5.8 386.2l-.7-.7M5.1 385.5l-.9-.5M4.2 385l-.5-1.2M3.7 383.8l-.3-.9M3.4 382.9l-.7-.7M2.7 382.2l-.7-1M2 381.2l-.2-1M1.8 380.2V379M1.8 379l-.5-.9M1.3 378.1l-.5-1M.8 377.1v-.9M.8 376.2V375M.8 375l-.2-1M.6 374l-.6-1M0 373l.3-1.2M.3 371.8l.5-.9M.8 370.9l-.2-1.2M.6 369.7v-1M.6 368.7l.4-1.2M1 367.8l.5-1M1.5 366.8l.3-1.2M1.8 365.6v-1M1.8 364.6l.4-.9M2.2 363.7l1-.7M3.2 363l.2-1.2M3.4 361.8l.3-1M3.7 360.8l.7-.7M4.4 360.1l1-.7M5.4 359.4l.4-1M5.8 358.4l.5-1M6.3 357.4l1-.7M7.3 356.7l.9-.2M8.2 356.5l.8-1M9 355.5l.7-.9M9.7 354.6l.9-.3M10.6 354.3l1.2-.2M11.8 354.1l.8-.7M12.6 353.4l.9-.8M13.5 352.6l1-.2M14.5 352.4h1.2M15.7 352.4l.9-.5M16.6 351.9l1-.5M17.6 351.4h1M18.6 351.4l1.2.3M19.8 351.7l.9-.3M20.7 351.4l1.2-.4M21.9 351l1 .2M22.9 351.2l.9.5M23.8 351.7H25M25 351.7l1-.3M26 351.4l1.2.5M27.2 351.9l.7.7M27.9 352.6h1.2M29.1 352.6l1 .3M30.1 352.9l.9.5M31 353.4l.8.9M31.8 354.3l1.2.3M33 354.6l.9.2M33.9 354.8l.7 1M34.6 355.8l.5.9M35.1 356.7l1 .5M36.1 357.2l.9.5M37 357.7l.8.9M37.8 358.6l.2 1M38 359.6l1 .7M39 360.3l.7.7M39.7 361l.5 1M40.2 362l.2 1.2M40.4 363.2l.7 1M41.1 364.2l.5.7M41.6 364.9l.2 1.2M41.8 366.1v.9M41.8 367l.5 1M42.3 368l.5 1M42.8 369v1.2M42.8 370.2l-.2.9M42.6 371.1l.2 1.2M42.8 372.3l.2 1M43 373.3l-.2 1.2M42.8 374.5l-.5.9M42.3 375.4v1M42.3 376.4l.3 1.2M42.6 377.6l-.5 1M42.1 378.6l-.7.9M41.4 379.5l-.3 1M41.1 380.5v1.2M41.1 381.7l-.7.7M40.4 382.4l-.7.7M39.7 383.1l-.5 1.2M39.2 384.3l-.2 1M39 385.3l-1 .7M38 386l-1 .5M37 386.5l-.4.9M36.6 387.4l-.5 1M36.1 388.4l-1 .5M35.1 388.9l-1.2.5M33.9 389.4l-.7.7M33.2 390.1l-.7.9M32.5 391l-1 .3M31.5 391.3l-1.2.2M30.3 391.5l-.7.5M29.6 392l-1 .7M28.6 392.7l-1.2.3M27.4 393l-.9-.3M26.5 392.7l-1 .5M25.5 393.2l-1.2.5M24.3 393.7h-.9"/><g class="cls-31"><path class="cls-21" d="M23.4 393.7l-1.2-.3M22.2 393.4l-1 .3M21.2 393.7l-1 .5M20.2 394.2l-1.2-.3"/></g><path class="cls-11" d="M22.4 372.6c0-.4-.3-.7-.7-.7s-.7.3-.7.7.3.7.7.7.7-.3.7-.7"/><path class="cls-22" d="M191.6 183.4v.8M191.6 184.2l-.2.9M191.4 185.1l-.3.7M191.1 185.8v.3M190.6 187.5l-.2.3M189.7 189l-.7.4M189 189.4l-.5.5M188.5 189.9l-.7.5M187.8 190.4l-.3.2M186.1 191.4h-.3M184.4 191.8h-.5M183.9 191.8h-.9M183 191.8h-.8M182.2 191.8h-.4M180.3 191.4h-.2M178.9 190.6l-.5-.2M178.4 190.4l-.7-.5M177.7 189.9l-.7-.5M177 189.4l-.3-.4M175.8 187.8l-.3-.3M175 186.3v-.5M175 185.8l-.2-.7M174.8 185.1l-.2-.9M174.6 184.2v-.8M174.6 182l.2-.2M175 180.3l.3-.2M175.3 180.1l.2-.7M175.5 179.4l.5-.8M176 178.6l.5-.7M177.4 177l.3-.3M178.9 176h.2M179.1 176l.7-.5M179.8 175.5l.8-.2M180.6 175.3l.9-.3M183 174.8h.2M184.6 175l1 .3M185.6 175.3l.7.2M186.3 175.5l.7.5M187 176h.3M188.5 177h.2M189.7 178.2l.5.4M190.2 178.6l.4.8M190.6 179.4l.3.7M190.9 180.1l.2.5M191.4 182v.2M186.6 346.2v10.3h-37.2v-10.3"/><path class="cls-22" d="M165.2 349l2.9-2.8 2.9 2.8h-5.8zM186.6 346.2h-37.2"/></g><g id="Mbel"><path class="cls-2" d="M49 69.2h56.9v45.4H49zM49 137.1h56.9v15.6H49zM134.2 44.5H157v50.9h-22.8zM166.9 94V81.2M158.4 94h8.5M166.9 81.2h-8.5M166.9 76.3V63.5M158.4 76.3h8.5M166.9 63.5h-8.5M166.9 58.5V45.8M158.4 58.5h8.5M166.9 45.8h-8.5M124.4 94V81.2M132.9 94h-8.5M124.4 81.2h8.5M124.4 76.3V63.5M132.9 76.3h-8.5M124.4 63.5h8.5M124.4 58.5V45.8M132.9 58.5h-8.5M124.4 45.8h8.5M113.1 228.1h10.8v56.6h-10.8zM149.4 242.2h14.2v28.3h-14.2zM162 223.7c.1-4 0-8-.6-12-.1-1-.8-1.7-1.7-2-3.1-.9-6.4-.9-9.5 0-.9.3-1.6 1-1.7 2-.5 4-.7 8-.6 12 .7.3 1.4.4 2 .4 3.3.1 6.6.1 9.8 0 .7 0 1.4-.1 2-.3"/><path class="cls-2" d="M162.5 222.6c.3-.2.5-.5.6-.8.7-1.4 1.1-2.9 1-4.4 0-2-.3-4.1-.7-6.1-.3-1.4-.8-2.8-1.5-4.1-.4-.7-1.1-1.3-1.9-1.5-3.3-.8-6.7-.8-10 0-.8.2-1.5.7-1.9 1.5-.7 1.3-1.2 2.7-1.5 4.1-.4 2-.7 4-.7 6.1 0 1.5.3 3 1 4.4.2.3.4.6.6.8M194.4 283h-18.7-.2-.2-.1l-.1-.1-.1-.1v-.1-.2V257.4v-.2-.2-.1l.1-.1.1-.1c.1-.1 0 0 .1 0H194.4v26.6M198.1 287.6h-22.4-.2-.2-.1l-.1-.1-.1-.1v-.1-.2-3-.2-.2-.1l.1-.1.1-.1h23.4l.1.1.1.1V287.2c0 .1-.1.2-.2.3 0 0-.2.1-.3.2h-.3M194.4 256.4h4c.1 0 .2-.1.3-.2s.1-.2.2-.3v-25.2-.3c0-.1-.1-.2-.2-.3 0 0-.2-.1-.3-.2h-4M192.1 229.8V283"/><path class="cls-2" d="M194.4 229.7h-18.7-.2-.2-.1l-.1.1-.1.1v25.7c0 .1.1.2.2.3s.2.1.3.2h19v-26.6"/><path class="cls-2" d="M198.1 225.2h-22.4-.2-.2-.1l-.1.1-.1.1V229c0 .1.1.2.2.3 0 0 .2.1.3.2h23c.1 0 .2-.1.3-.2 0 0 .1-.2.2-.3V225.9v-.3c0-.1-.1-.2-.2-.3 0 0-.2-.1-.3-.2h-.3M194.4 256.4h4.2l.1.1.1.1v25.7c0 .1-.1.2-.2.3 0 0-.2.1-.3.2h-4M78.6 273H86v11.3h-7.4zM86 255.9h19.9v45.4H86zM22.9 221.6h56.6v28.3H22.9zM22.9 274.9h15.6v50.9H22.9z"/></g><g id="Text"><path d="M131.5 140.3h-.7V135h.7v2.5l2.1-2.5h.8l-2.2 2.6 2.2 2.7h-.9l-2-2.5v2.5zM138.5 138.5c0 1.1-.8 1.9-1.9 1.9s-1.9-.8-1.9-1.9.8-1.9 1.9-1.9 1.9.8 1.9 1.9zm-3.1 0c0 .8.5 1.4 1.3 1.4s1.2-.6 1.2-1.4-.5-1.4-1.2-1.4-1.3.6-1.3 1.4zM142.5 139.9c-.4.4-.8.5-1.4.5-1.1 0-1.8-.8-1.8-1.9s.8-1.9 1.8-1.9 1 .2 1.3.6l-.4.4c-.3-.3-.6-.4-.9-.4-.7 0-1.2.6-1.2 1.4s.5 1.4 1.2 1.4.6-.1.9-.4l.4.4zM144.1 137.1c.3-.4.7-.6 1.1-.6s.7.1.9.3c.2.2.3.5.3 1v2.5h-.6v-2.4c0-.5-.2-.8-.7-.8s-.5.1-.7.3c-.2.2-.2.4-.2.7v2.2h-.6V135h.6v2.2zM148 138.7c0 .3 0 .5.2.7.2.3.6.5 1 .5s.9-.2 1.1-.6l.5.2c-.3.6-.9 1-1.6 1-1.1 0-1.9-.8-1.9-1.9s.8-1.9 1.9-1.9 1.9.8 1.9 1.9v.2H148zm2.4-.4c0-.3 0-.4-.2-.6-.2-.3-.6-.5-1-.5s-.8.2-1 .5c-.1.2-.2.3-.2.6h2.4zM152.8 136.6v.5c.3-.4.6-.6 1.1-.6s.6.1.9.3c.2.2.3.5.3 1v2.5h-.6v-2.4c0-.3 0-.5-.1-.6-.1-.2-.3-.2-.6-.2s-.5.1-.7.3c-.2.2-.2.4-.2.7v2.2h-.6v-3.7h.6zM156.3 141.6h-.4l.7-2.1.6.2-.8 1.9zM161.5 137.3h2.1v.6h-2.1v1.8h2.1v.6h-2.8V135h2.8v.6h-2.1v1.8zM166.5 137.6c0-.4-.3-.6-.7-.6s-.7.2-.7.5.2.4.8.6c.5.1.7.2.9.4.2.2.3.4.3.7 0 .6-.5 1.1-1.3 1.1s-1.3-.4-1.4-1.1h.6c0 .4.3.6.8.6s.7-.2.7-.5-.2-.5-.8-.6c-.8-.2-1.2-.6-1.2-1.1s.5-1.1 1.3-1.1 1.3.4 1.3 1.1h-.6zM170 137.6c0-.4-.3-.6-.7-.6s-.7.2-.7.5.2.4.8.6c.5.1.7.2.9.4.2.2.3.4.3.7 0 .6-.5 1.1-1.3 1.1s-1.3-.4-1.4-1.1h.6c0 .4.3.6.8.6s.7-.2.7-.5-.2-.5-.8-.6c-.8-.2-1.2-.6-1.2-1.1s.5-1.1 1.3-1.1 1.3.4 1.3 1.1h-.6zM172.2 138.7c0 .3 0 .5.2.7.2.3.6.5 1 .5s.9-.2 1.1-.6l.5.2c-.3.6-.9 1-1.6 1-1.1 0-1.9-.8-1.9-1.9s.8-1.9 1.9-1.9 1.9.8 1.9 1.9v.2h-3.1zm2.4-.4c0-.3 0-.4-.2-.6-.2-.3-.6-.5-1-.5s-.8.2-1 .5c-.1.2-.2.3-.2.6h2.4zM176.9 136.6v.5c.3-.4.6-.6 1.1-.6s.6.1.9.3c.2.2.3.5.3 1v2.5h-.6v-2.4c0-.3 0-.5-.1-.6-.1-.2-.3-.2-.6-.2s-.5.1-.7.3c-.2.2-.2.4-.2.7v2.2h-.6v-3.7h.6zM180.5 141.6h-.4l.7-2.1.6.2-.8 1.9zM136.3 144h.7l-1.6 5.3h-.6l-1.2-4.2-1.2 4.2h-.6l-1.6-5.3h.7l1.2 4.1 1.2-4.1h.6l1.1 4.1 1.2-4.1zM141.1 147.5c0 1.1-.8 1.9-1.9 1.9s-1.9-.8-1.9-1.9.8-1.9 1.9-1.9 1.9.8 1.9 1.9zm-3.1 0c0 .8.5 1.4 1.3 1.4s1.2-.6 1.2-1.4-.5-1.4-1.2-1.4-1.3.6-1.3 1.4zM142.8 146.1c.3-.4.7-.6 1.1-.6s.7.1.9.3c.2.2.3.5.3 1v2.5h-.6v-2.4c0-.5-.2-.8-.7-.8s-.5.1-.7.3c-.2.2-.2.4-.2.7v2.2h-.6V144h.6v2.2zM147 145.6v.5c.3-.4.6-.6 1.1-.6s.6.1.9.3c.2.2.3.5.3 1v2.5h-.6v-2.4c0-.3 0-.5-.1-.6-.1-.2-.3-.2-.6-.2s-.5.1-.7.3c-.2.2-.2.4-.2.7v2.2h-.6v-3.7h.6zM151 147.7c0 .3 0 .5.2.7.2.3.6.5 1 .5s.9-.2 1.1-.6l.5.2c-.3.6-.9 1-1.6 1-1.1 0-1.9-.8-1.9-1.9s.8-1.9 1.9-1.9 1.9.8 1.9 1.9v.2H151zm2.4-.4c0-.3 0-.4-.2-.6-.2-.3-.6-.5-1-.5s-.8.2-1 .5c-.1.2-.2.3-.2.6h2.4zM155.8 145.6v.5c.3-.4.6-.6 1.1-.6s.6.1.9.3c.2.2.3.5.3 1v2.5h-.6v-2.4c0-.3 0-.5-.1-.6-.1-.2-.3-.2-.6-.2s-.5.1-.7.3c-.2.2-.2.4-.2.7v2.2h-.6v-3.7h.6zM130.7 153.6v-.6h3l-1.6 2c.9 0 1.6.7 1.6 1.6s-.8 1.7-1.8 1.7-1.4-.5-1.6-1.3h.6c.1.4.5.7 1 .7s1.2-.5 1.2-1.1-.5-1.1-1.2-1.1-.4 0-.6.2l-.3-.2 1.5-1.9h-1.9zM137.6 155.8c.3.3.4.6.4 1 0 .9-.7 1.6-1.7 1.6s-1.6-.6-1.6-1.6.1-.8.4-1.1c.2-.2.3-.3.6-.4-.3 0-.4-.2-.5-.4-.2-.2-.3-.5-.3-.8 0-.8.6-1.3 1.5-1.3s1.4.6 1.4 1.3-.1.6-.3.8c-.1.2-.3.2-.5.3.3 0 .4.2.6.3zm-2.3 1c0 .6.5 1 1 1s1-.5 1-1-.5-1-1-1-1 .5-1 1zm.2-2.5c0 .5.4.8.8.8s.9-.4.9-.8-.4-.8-.8-.8-.9.3-.9.8zM139.9 158c0 .2-.2.4-.4.4s-.4-.2-.4-.4.2-.4.4-.4.4.2.4.4zM142.2 155.2c.2 0 .3-.1.5-.1.9 0 1.6.7 1.6 1.6s-.8 1.7-1.7 1.7-1.7-.8-1.7-1.7.1-.7.4-1.2l1.5-2.5h.7l-1.4 2.1zm-.7 1.5c0 .6.5 1.1 1.1 1.1s1.1-.5 1.1-1.1-.5-1.1-1.1-1.1-1.1.5-1.1 1.1zM147.5 154.6v.5c.3-.4.6-.6 1-.6s.8.2 1 .7c.3-.5.6-.7 1.2-.7s.7.1.9.4c.2.2.2.4.2 1v2.4h-.6v-2.2c0-.4 0-.6-.1-.7-.1-.2-.4-.3-.6-.3-.5 0-.8.4-.8 1v2.2h-.6v-2.2c0-.4 0-.5-.1-.7-.1-.2-.3-.3-.6-.3-.5 0-.9.4-.9 1v2.2h-.6v-3.7h.6zM155.1 155.8v.4h-2l1.2-1.6c.3-.5.4-.6.4-.8 0-.3-.2-.4-.5-.4s-.5.2-.5.6h-.4c0-.6.4-1 1-1s1 .3 1 .8-.1.5-.4.9l-.8 1.1h1.1z"/><g><path d="M246.6 273.3h2.1v.6h-2.1v1.8h2.1v.6h-2.8V271h2.8v.6h-2.1v1.8zM250.6 271.5c0 .2-.2.4-.4.4s-.4-.2-.4-.4.2-.4.4-.4.4.2.4.4zm0 4.7h-.6v-3.7h.6v3.7zM252.4 272.5v.5c.3-.4.6-.6 1.1-.6s.6.1.9.3c.2.2.3.5.3 1v2.5h-.6v-2.4c0-.3 0-.5-.1-.6-.1-.2-.3-.2-.6-.2s-.5.1-.7.3c-.2.2-.2.4-.2.7v2.2h-.6v-3.7h.6zM258.8 272.5h.6v3.7c0 .6-.2 1-.5 1.4-.3.3-.8.5-1.4.5s-1.2-.2-1.6-.7l.4-.4c.2.2.2.2.4.3.2.1.6.2.9.2s.8-.1 1-.4c.2-.2.3-.5.3-.9v-.8c-.4.5-.8.8-1.4.8-1 0-1.7-.8-1.7-1.9s.2-1.2.6-1.5c.3-.3.7-.4 1.2-.4s.9.2 1.3.7v-.6zm-2.4 1.8c0 .8.5 1.4 1.2 1.4s.7-.2.9-.4c.2-.2.3-.5.3-.9s0-.7-.3-1c-.2-.2-.6-.4-.9-.4-.7 0-1.2.6-1.2 1.4zM263.6 272.5h.6v3.7h-.6v-.7c-.4.6-.8.8-1.3.8-1 0-1.7-.8-1.7-1.9s.7-1.9 1.8-1.9 1 .2 1.3.7v-.6zm-2.1.9c-.2.3-.3.6-.3 1 0 .8.5 1.4 1.2 1.4s1.3-.6 1.3-1.4-.5-1.4-1.2-1.4-.7.1-.9.4zM266.2 272.5v.5c.3-.4.6-.6 1.1-.6s.6.1.9.3c.2.2.3.5.3 1v2.5h-.6v-2.4c0-.3 0-.5-.1-.6-.1-.2-.3-.2-.6-.2s-.5.1-.7.3c-.2.2-.2.4-.2.7v2.2h-.6v-3.7h.6zM272.6 272.5h.6v3.7c0 .6-.2 1-.5 1.4-.3.3-.8.5-1.4.5s-1.2-.2-1.6-.7l.4-.4c.2.2.2.2.4.3.2.1.6.2.9.2s.8-.1 1-.4c.2-.2.3-.5.3-.9v-.8c-.4.5-.8.8-1.4.8-1 0-1.7-.8-1.7-1.9s.2-1.2.6-1.5c.3-.3.7-.4 1.2-.4s.9.2 1.3.7v-.6zm-2.4 1.8c0 .8.5 1.4 1.2 1.4s.7-.2.9-.4c.2-.2.3-.5.3-.9s0-.7-.3-1c-.2-.2-.6-.4-.9-.4-.7 0-1.2.6-1.2 1.4z"/></g><g><path d="M66.8 396.4c0 .6.4.9.9.9s1-.4 1-.9-.2-.7-1.1-1c-.6-.2-.8-.3-1.1-.5-.3-.2-.4-.6-.4-1 0-.9.6-1.5 1.6-1.5s1.6.6 1.6 1.5h-.7c0-.3 0-.4-.1-.6-.2-.2-.4-.4-.8-.4-.5 0-.9.4-.9.9s.1.5.3.6c.2.1.3.2.9.4.6.2.8.3 1.1.6.2.2.4.6.4.9 0 .9-.7 1.5-1.7 1.5s-1.1-.2-1.4-.7c-.1-.2-.2-.4-.2-.7h.6zM71.2 393.1c0 .2-.2.4-.4.4s-.4-.2-.4-.4.2-.4.4-.4.4.2.4.4zm0 4.7h-.6v-3.7h.6v3.7zM73.2 397.1c0 .2 0 .2.3.2h.3v.5h-.6c-.4 0-.6-.2-.6-.6v-2.6h-.5v-.5h.5v-1.2h.6v1.2h.6v.5h-.6v2.4zM77.2 397.3v.5h-2.7l1.9-3.2h-1.7v-.5h2.7l-1.9 3.2h1.7zM78.9 394.2v.7c.4-.5.7-.8 1.3-.8 1 0 1.7.8 1.7 1.9s-.7 2-1.7 2-.6 0-.8-.2c-.2-.1-.3-.2-.5-.5v2.3h-.6v-5.4h.6zm0 1.9c0 .8.5 1.3 1.2 1.3s1.2-.6 1.2-1.4-.1-.8-.3-1c-.2-.2-.5-.4-.9-.4-.7 0-1.2.6-1.2 1.4zM83.1 397.9v-5.3h.6v5.3h-.6zM87.9 394.2h.6v3.7h-.6v-.7c-.4.6-.8.8-1.3.8-1 0-1.7-.8-1.7-1.9s.7-1.9 1.8-1.9 1 .2 1.3.7v-.6zm-2.1.9c-.2.3-.3.6-.3 1 0 .8.5 1.4 1.2 1.4s1.3-.6 1.3-1.4-.5-1.4-1.2-1.4-.7.1-.9.4zM90.6 397.1c0 .2 0 .2.3.2h.3v.5h-.6c-.4 0-.6-.2-.6-.6v-2.6h-.5v-.5h.5v-1.2h.6v1.2h.6v.5h-.6v2.4zM94.6 397.3v.5h-2.7l1.9-3.2h-1.7v-.5h2.7l-1.9 3.2h1.7zM69.2 406.3v.6h-3l1.9-2.7c.5-.8.7-1 .7-1.3 0-.5-.4-.8-.9-.8s-.7.2-.8.4v.6h-.6c0-1 .6-1.6 1.5-1.6s1.5.5 1.5 1.3-.2.8-.6 1.5l-1.4 2h1.9zM73.2 406.3v.6h-3l1.9-2.7c.5-.8.7-1 .7-1.3 0-.5-.4-.8-.9-.8s-.7.2-.8.4v.6h-.6c0-1 .6-1.6 1.5-1.6s1.5.5 1.5 1.3-.2.8-.6 1.5l-1.4 2h1.9zM75.3 406.5c0 .2-.2.4-.4.4s-.4-.2-.4-.4.2-.4.4-.4.4.2.4.4zM79.6 405.3c0 .6-.1 1-.4 1.2-.3.3-.7.4-1.2.4s-1-.2-1.2-.5c-.3-.3-.4-.6-.4-1.4v-1.8c0-.7 0-1 .3-1.3.3-.3.7-.5 1.2-.5s.9.1 1.2.4c.3.3.4.6.4 1.2v2.1zm-2.5-.1c0 .6 0 .7.2.9.2.2.5.3.8.3s.6-.1.8-.4c.1-.2.2-.4.2-.8v-2c0-.4 0-.6-.3-.8-.2-.2-.4-.2-.7-.2s-.6.1-.8.4c-.1.2-.2.4-.2.8v1.8zM82.9 403.2v.5c.3-.4.6-.6 1-.6s.8.2 1 .7c.3-.5.6-.7 1.2-.7s.7.1.9.4c.2.2.2.4.2 1v2.4h-.6v-2.2c0-.4 0-.6-.1-.7-.1-.2-.4-.3-.6-.3-.5 0-.8.4-.8 1v2.2h-.6v-2.2c0-.4 0-.5-.1-.7-.1-.2-.3-.3-.6-.3-.5 0-.9.4-.9 1v2.2h-.6v-3.7h.6zM90.5 404.4v.4h-2l1.2-1.6c.3-.5.4-.6.4-.8 0-.3-.2-.4-.5-.4s-.5.2-.5.6h-.4c0-.6.4-1 1-1s1 .3 1 .8-.1.5-.4.9l-.8 1.1h1.1z"/></g><g><path d="M51.2 50.2v.6h-3.8l3-4.8h-2.7v-.6h3.8l-3 4.8h2.7zM53.1 46c0 .2-.2.4-.4.4s-.4-.2-.4-.4.2-.4.4-.4.4.2.4.4zm0 4.7h-.6V47h.6v3.7zM54.9 47v.5c.3-.4.6-.6 1-.6s.8.2 1 .7c.3-.5.6-.7 1.2-.7s.7.1.9.4c.2.2.2.4.2 1v2.4h-.6v-2.2c0-.4 0-.6-.1-.7-.1-.2-.4-.3-.6-.3-.5 0-.8.4-.8 1v2.2h-.6v-2.2c0-.4 0-.5-.1-.7-.1-.2-.3-.3-.6-.3-.5 0-.9.4-.9 1v2.2h-.6V47h.6zM61.3 47v.5c.3-.4.6-.6 1-.6s.8.2 1 .7c.3-.5.6-.7 1.2-.7s.7.1.9.4c.2.2.2.4.2 1v2.4H65v-2.2c0-.4 0-.6-.1-.7-.1-.2-.4-.3-.6-.3-.5 0-.8.4-.8 1v2.2h-.6v-2.2c0-.4 0-.5-.1-.7-.1-.2-.3-.3-.6-.3-.5 0-.9.4-.9 1v2.2h-.6V47h.6zM67.4 49.1c0 .3 0 .5.2.7.2.3.6.5 1 .5s.9-.2 1.1-.6l.5.2c-.3.6-.9 1-1.6 1-1.1 0-1.9-.8-1.9-1.9s.8-1.9 1.9-1.9 1.9.8 1.9 1.9v.2h-3.1zm2.4-.4c0-.3 0-.4-.2-.6-.2-.3-.6-.5-1-.5s-.8.2-1 .5c-.1.2-.2.3-.2.6h2.4zM72.1 47v.6c.1-.3.2-.4.3-.5.2-.1.4-.2.7-.2h.1v.6H73c-.3 0-.6.2-.8.4-.2.2-.2.4-.2.9v1.9h-.6V47h.6zM48.2 56.2v-.6l1.8-1.2v5.4h-.6v-4.4l-1.2.8zM51.4 58.5V58l2.8-3.7v3.6h.6v.6h-.6v1.2h-.6v-1.2h-2.1zm2.1-2.6l-1.5 2h1.5v-2zM56.6 59.4c0 .2-.2.4-.4.4s-.4-.2-.4-.4.2-.4.4-.4.4.2.4.4zM57.8 55.1v-.6h3l-2.1 5.3H58l1.9-4.7h-2zM64.1 56v.5c.3-.4.6-.6 1-.6s.8.2 1 .7c.3-.5.6-.7 1.2-.7s.7.1.9.4c.2.2.2.4.2 1v2.4h-.6v-2.2c0-.4 0-.6-.1-.7-.1-.2-.4-.3-.6-.3-.5 0-.8.4-.8 1v2.2h-.6v-2.2c0-.4 0-.5-.1-.7-.1-.2-.3-.3-.6-.3-.5 0-.9.4-.9 1v2.2h-.6V56h.6zM71.6 57.2v.4h-2l1.2-1.6c.3-.5.4-.6.4-.8 0-.3-.2-.4-.5-.4s-.5.2-.5.6h-.4c0-.6.4-1 1-1s1 .3 1 .8-.1.5-.4.9l-.8 1.1h1.1z"/></g><g><path d="M51.2 267v.6h-3.8l3-4.8h-2.7v-.6h3.8l-3 4.8h2.7zM53.1 262.8c0 .2-.2.4-.4.4s-.4-.2-.4-.4.2-.4.4-.4.4.2.4.4zm0 4.7h-.6v-3.7h.6v3.7zM54.9 263.9v.5c.3-.4.6-.6 1-.6s.8.2 1 .7c.3-.5.6-.7 1.2-.7s.7.1.9.4c.2.2.2.4.2 1v2.4h-.6v-2.2c0-.4 0-.6-.1-.7-.1-.2-.4-.3-.6-.3-.5 0-.8.4-.8 1v2.2h-.6v-2.2c0-.4 0-.5-.1-.7-.1-.2-.3-.3-.6-.3-.5 0-.9.4-.9 1v2.2h-.6v-3.7h.6zM61.3 263.9v.5c.3-.4.6-.6 1-.6s.8.2 1 .7c.3-.5.6-.7 1.2-.7s.7.1.9.4c.2.2.2.4.2 1v2.4H65v-2.2c0-.4 0-.6-.1-.7-.1-.2-.4-.3-.6-.3-.5 0-.8.4-.8 1v2.2h-.6v-2.2c0-.4 0-.5-.1-.7-.1-.2-.3-.3-.6-.3-.5 0-.9.4-.9 1v2.2h-.6v-3.7h.6zM67.4 265.9c0 .3 0 .5.2.7.2.3.6.5 1 .5s.9-.2 1.1-.6l.5.2c-.3.6-.9 1-1.6 1-1.1 0-1.9-.8-1.9-1.9s.8-1.9 1.9-1.9 1.9.8 1.9 1.9v.2h-3.1zm2.4-.4c0-.3 0-.4-.2-.6-.2-.3-.6-.5-1-.5s-.8.2-1 .5c-.1.2-.2.3-.2.6h2.4zM72.1 263.9v.6c.1-.3.2-.4.3-.5.2-.1.4-.2.7-.2h.1v.6H73c-.3 0-.6.2-.8.4-.2.2-.2.4-.2.9v1.9h-.6v-3.7h.6zM48.2 273v-.6l1.8-1.2v5.4h-.6v-4.4l-1.2.8zM51.7 273v-.6l1.8-1.2v5.4h-.6v-4.4l-1.2.8zM56.1 276.2c0 .2-.2.4-.4.4s-.4-.2-.4-.4.2-.4.4-.4.4.2.4.4zM59.8 271.8h-1.7v1.4c.3-.1.5-.2.8-.2.9 0 1.6.7 1.6 1.7s-.8 1.8-1.8 1.8-1.3-.4-1.6-1.1l.6-.2c.1.2.2.3.3.4.2.2.5.3.8.3.6 0 1.1-.5 1.1-1.2s-.5-1.1-1.2-1.1-.8.2-1.2.5v-3h2.3v.6zM63.8 272.9v.5c.3-.4.6-.6 1-.6s.8.2 1 .7c.3-.5.6-.7 1.2-.7s.7.1.9.4c.2.2.2.4.2 1v2.4h-.6v-2.2c0-.4 0-.6-.1-.7-.1-.2-.4-.3-.6-.3-.5 0-.8.4-.8 1v2.2h-.6v-2.2c0-.4 0-.5-.1-.7-.1-.2-.3-.3-.6-.3-.5 0-.9.4-.9 1v2.2h-.6v-3.7h.6zM71.4 274v.4h-2l1.2-1.6c.3-.5.4-.6.4-.8 0-.3-.2-.4-.5-.4s-.5.2-.5.6h-.4c0-.6.4-1 1-1s1 .3 1 .8-.1.5-.4.9l-.8 1.1h1.1z"/></g><g><path d="M49.1 188.6c1.1 0 1.7.5 1.7 1.4s-.1.6-.3.9c-.1.2-.3.2-.5.3.3 0 .4.1.6.2.3.2.4.6.4 1s-.2.9-.6 1.2c-.3.2-.7.3-1.3.3h-1.5v-5.3h1.5zm-.8 2.4h.7c.4 0 .7 0 .9-.2.2-.2.3-.4.3-.7s-.2-.6-.4-.8c-.2 0-.4-.1-.9-.1h-.6v1.8zm0 2.4h.7c.6 0 .8 0 1-.2.3-.1.4-.4.4-.8 0-.6-.4-.9-1.2-.9h-.8v1.8zM54.9 190.2h.6v3.7h-.6v-.7c-.4.6-.8.8-1.3.8-1 0-1.7-.8-1.7-1.9s.7-1.9 1.8-1.9 1 .2 1.3.7v-.6zm-2.1.9c-.2.3-.3.6-.3 1 0 .8.5 1.4 1.2 1.4s1.3-.6 1.3-1.4-.5-1.4-1.2-1.4-.7.1-.9.4zM59.7 188.6h.6v5.3h-.6v-.6c-.4.5-.8.7-1.3.7-1 0-1.7-.8-1.7-1.9s.7-2 1.7-2 1 .2 1.3.6v-2.2zm-2.4 3.5c0 .8.5 1.4 1.2 1.4s1.2-.6 1.2-1.4-.5-1.4-1.2-1.4-1.2.6-1.2 1.4zM49.8 198.2h-1.7v1.4c.3-.1.5-.2.8-.2.9 0 1.6.7 1.6 1.7s-.8 1.8-1.8 1.8-1.3-.4-1.6-1.1l.6-.2c.1.2.2.3.3.4.2.2.5.3.8.3.6 0 1.1-.5 1.1-1.2s-.5-1.1-1.2-1.1-.8.2-1.2.5v-3h2.3v.6zM52.4 202.6c0 .2-.2.4-.4.4s-.4-.2-.4-.4.2-.4.4-.4.4.2.4.4zM56.7 201.3c0 .6-.1 1-.4 1.2-.3.3-.7.4-1.2.4s-1-.2-1.2-.5c-.3-.3-.4-.6-.4-1.4v-1.8c0-.7 0-1 .3-1.3.3-.3.7-.5 1.2-.5s.9.1 1.2.4c.3.3.4.6.4 1.2v2.1zm-2.5-.1c0 .6 0 .7.2.9.2.2.5.3.8.3s.6-.1.8-.4c.1-.2.2-.4.2-.8v-2c0-.4 0-.6-.3-.8-.2-.2-.4-.2-.7-.2s-.6.1-.8.4c-.1.2-.2.4-.2.8v1.8zM60 199.2v.5c.3-.4.6-.6 1-.6s.8.2 1 .7c.3-.5.6-.7 1.2-.7s.7.1.9.4c.2.2.2.4.2 1v2.4h-.6v-2.2c0-.4 0-.6-.1-.7-.1-.2-.4-.3-.6-.3-.5 0-.8.4-.8 1v2.2h-.6v-2.2c0-.4 0-.5-.1-.7-.1-.2-.3-.3-.6-.3-.5 0-.9.4-.9 1v2.2h-.6v-3.7h.6zM67.6 200.4v.4h-2l1.2-1.6c.3-.5.4-.6.4-.8 0-.3-.2-.4-.5-.4s-.5.2-.5.6h-.4c0-.6.4-1 1-1s1 .3 1 .8-.1.5-.4.9l-.8 1.1h1.1z"/></g><g><path d="M241 195v.6h-2.5v-5.3h.7v4.7h1.9zM242.6 190.9c0 .2-.2.4-.4.4s-.4-.2-.4-.4.2-.4.4-.4.4.2.4.4zm0 4.7h-.6v-3.7h.6v3.7zM244.6 195.6h-.6v-3.2h-.5v-.5h.5v-.5c0-.7.4-1.2 1-1.2h.2v.5c-.4 0-.6.2-.6.6v.5h.6v.5h-.6v3.2zM247 194.9c0 .2 0 .2.3.2h.3v.5h-.6c-.4 0-.6-.2-.6-.6v-2.6h-.5v-.5h.5v-1.2h.6v1.2h.6v.5h-.6v2.4z"/></g></g></svg>