<svg xmlns="http://www.w3.org/2000/svg" viewBox="0 0 398.8 398.8"><defs><style>.cls-1,.cls-10,.cls-11,.cls-12,.cls-13,.cls-14,.cls-15,.cls-2,.cls-3,.cls-4,.cls-5,.cls-6,.cls-7,.cls-8,.cls-9{fill:none;stroke-linecap:round;stroke-linejoin:round}.cls-1,.cls-10,.cls-11,.cls-12,.cls-13,.cls-15,.cls-2,.cls-3,.cls-4,.cls-6,.cls-7,.cls-8,.cls-9{stroke-width:.1px}.cls-1,.cls-11,.cls-13,.cls-14,.cls-3,.cls-6{stroke:#194164}.cls-1,.cls-6{stroke-dasharray:0 0 0 0 2.9 1.4 .2 1.4}.cls-2{stroke:#646464}.cls-3{stroke-dashoffset:1px}.cls-10,.cls-11,.cls-15,.cls-3,.cls-4,.cls-7,.cls-8,.cls-9{stroke-dasharray:0 0 1.4 1.4}.cls-16,.cls-17{fill:#fff}.cls-10,.cls-12,.cls-15,.cls-4,.cls-7,.cls-8,.cls-9{stroke:#969696}.cls-5{stroke:#000;stroke-width:.3px}.cls-6{stroke-dashoffset:1.9px}.cls-7{stroke-dashoffset:1.1px}.cls-8{stroke-dashoffset:2.7px}.cls-9{stroke-dashoffset:2.5px}.cls-10{stroke-dashoffset:.7px}.cls-17,.cls-18{fill-rule:evenodd}.cls-11{stroke-dashoffset:.2px}.cls-14{stroke-width:.3px}.cls-15{stroke-dashoffset:1.2px}</style></defs><g id="Plan"><path class="cls-12" d="M316.2 60.6h59.3V64h-59.3z"/><path class="cls-17" d="M197.8 169.5l-6.9 7.2v2.7h6.9v-9.9"/><path class="cls-12" d="M198.1 172.6l-1.7-1.4M198.1 176.7l-3.6-3.6M196.6 179.4l-4.3-4.1M192.6 179.4l-1.5-1.5M197.1 179.4l1-1M193 179.4l5.1-5.1M191.1 177.4l7-6.9"/><path class="cls-17" d="M197.8 169.5l-6.9 7.2v2.7h6.9v-9.9"/><path class="cls-12" d="M198.1 172.6l-1.7-1.4M198.1 176.7l-3.6-3.6M196.6 179.4l-4.3-4.1M192.6 179.4l-1.5-1.5M197.1 179.4l1-1M193 179.4l5.1-5.1M191.1 177.4l7-6.9"/><path class="cls-14" d="M197.8 179.4v-9.9M190.9 179.4v-2.7M190.9 179.4v-2.7M197.8 179.4v-9.9"/><path class="cls-17" d="M190.9 211.5v66.7l6.9 7v-73.7h-6.9"/><path class="cls-12" d="M198.1 212.7l-1.5-1.2M198.1 216.8l-5.5-5.3M198.1 220.9l-7-7M198.1 225l-7-7M198.1 228.8l-7-7M198.1 232.9l-7-7M198.1 237l-7-7M198.1 240.8l-7-7M198.1 244.9l-7-7M198.1 249l-7-7M198.1 253l-7-6.9M198.1 256.9l-7-7M198.1 261l-7-7M198.1 265l-7-6.9M198.1 268.9l-7-7M198.1 273l-7-7M198.1 277l-7-6.9M198.1 280.9l-7-7M198.1 285l-7-7M196.6 284l1.5-1.4M194.7 281.8l3.4-3.1M192.8 279.9l5.3-5.3M191.1 277.5l7-6.9M191.1 273.7l7-7M191.1 269.6l7-7M191.1 265.5l7-6.9M191.1 261.7l7-7M191.1 257.6l7-7M191.1 253.5l7-6.9M191.1 249.4l7-6.9M191.1 245.6l7-7M191.1 241.5l7-6.9M191.1 237.4l7-6.9M191.1 233.6l7-7M191.1 229.5l7-6.9M191.1 225.4l7-6.9M191.1 221.4l7-7M191.1 217.5l5.8-6M191.1 213.4l1.9-1.9"/><path class="cls-17" d="M190.9 211.5v66.7l6.9 7v-73.7h-6.9"/><path class="cls-12" d="M198.1 212.7l-1.5-1.2M198.1 216.8l-5.5-5.3M198.1 220.9l-7-7M198.1 225l-7-7M198.1 228.8l-7-7M198.1 232.9l-7-7M198.1 237l-7-7M198.1 240.8l-7-7M198.1 244.9l-7-7M198.1 249l-7-7M198.1 253l-7-6.9M198.1 256.9l-7-7M198.1 261l-7-7M198.1 265l-7-6.9M198.1 268.9l-7-7M198.1 273l-7-7M198.1 277l-7-6.9M198.1 280.9l-7-7M198.1 285l-7-7M196.6 284l1.5-1.4M194.7 281.8l3.4-3.1M192.8 279.9l5.3-5.3M191.1 277.5l7-6.9M191.1 273.7l7-7M191.1 269.6l7-7M191.1 265.5l7-6.9M191.1 261.7l7-7M191.1 257.6l7-7M191.1 253.5l7-6.9M191.1 249.4l7-6.9M191.1 245.6l7-7M191.1 241.5l7-6.9M191.1 237.4l7-6.9M191.1 233.6l7-7M191.1 229.5l7-6.9M191.1 225.4l7-6.9M191.1 221.4l7-7M191.1 217.5l5.8-6M191.1 213.4l1.9-1.9"/><path class="cls-14" d="M197.8 285.2v-73.7M190.9 278.2v-66.7M190.9 278.2v-66.7M197.8 285.2v-73.7"/><path class="cls-13" d="M196.6 209.1h1.9v2.4h-1.9zM196.6 179.4h1.9v2.4h-1.9z"/><path class="cls-13" d="M196.6 181.8h1.9v27.4h-1.9zM196.6 209.1v-27.3"/><path class="cls-1" d="M190.9 209.4v-27.9"/><path class="cls-13" d="M190.9 182v-.5"/><path class="cls-17" d="M190.9 211.5v-2.1h5.7v2.1"/><path class="cls-12" d="M196.6 211.5l-2.1-2.1M192.6 211.5l-1.5-1.7M193 211.5l2.2-2.1M191.1 209.4"/><path class="cls-17" d="M190.9 179.4v2.1h5.7v-2.1"/><path class="cls-12" d="M196.9 179.6l-.3-.2M194.7 181.5l-2.1-2.1M195 181.5l1.9-1.9M191.1 181.3l1.9-1.9"/><path class="cls-14" d="M190.9 209.4h5.7M190.9 181.5h5.7M190.9 209.4h5.7M190.9 211.5v-2.1M190.9 181.5h5.7M190.9 179.4v2.1M197.8 211.5h-1.2M197.8 179.4h-1.2M190.9 211.5v-2.1M190.9 179.4v2.1M196.6 209.4v2.1M196.6 181.5v-2.1"/><path class="cls-13" d="M135.2 166.9h13.7M135.2 166.2h13.7M148.9 166.9v-.7M135.2 166.2h13.7M135.2 166.9h13.7M135.2 166.9v-.7M152.5 146.5h.5v17h-.5zM137.1 163h15.4v.5h-15.4zM137.1 146.5h15.4v.7h-15.4zM152.5 163.5h.5v1.2h-.5zM136.4 146.5h.7v17h-.7zM152.5 129.4h.5v17h-.5zM137.1 146h15.4v.5h-15.4zM137.1 129.4h15.4v.7h-15.4zM136.4 129.4h.7v17h-.7z"/><path class="cls-13" d="M152.5 128.5h.5v1h-.5z"/><path class="cls-18" d="M377.1 71.4V56.7h21.4v14.7h-21.4"/><path class="cls-17" d="M377.1 56.7v3.4h21.4v-3.4h-21.4"/><path class="cls-12" d="M377.4 59.4l.4.7M378.6 56.7l3.3 3.4M382.6 56.7l3.4 3.4M386.7 56.7l3.4 3.4M390.6 56.7l3.3 3.4M394.6 56.7l3.4 3.4"/><path class="cls-17" d="M377.1 60.1v.5h21.4v-.5h-21.4"/><path class="cls-17" d="M377.1 60.6v5.7h21.4v-5.7h-21.4"/><path class="cls-12" d="M397.5 66.3v-5.7M396.1 66.3v-5.7M394.6 66.3v-5.7M393.2 66.3v-5.7M391.8 66.3v-5.7M390.3 66.3v-5.7M388.9 66.3v-5.7M387.4 66.3v-5.7M386 66.3v-5.7M384.6 66.3v-5.7M383.4 66.3v-5.7M381.9 66.3v-5.7M380.5 66.3v-5.7M379 66.3v-5.7M377.6 66.3v-5.7"/><path class="cls-17" d="M377.1 66.3v5.1h21.4v-5.1h-21.4"/><path class="cls-12" d="M377.4 67.5l3.8 3.9M380.2 66.3l5.1 5.1M384.1 66.3l5 5.1M388.2 66.3l5 5.1M392.2 66.3l5.1 5.1M396.3 66.3l2.4 2.4"/><path class="cls-14" d="M377.1 60.1h21.4M377.1 56.7h21.4"/><path class="cls-12" d="M377.1 66.3h21.4M377.1 60.6h21.4"/><path class="cls-14" d="M377.1 71.4h21.4M377.1 66.3h21.4"/><path class="cls-13" d="M377.1 56.7h21.4M377.1 71.4h21.4"/><path class="cls-18" d="M270.3 71.4V56.7h43.9v14.7h-43.9"/><path class="cls-17" d="M270.3 56.7v3.4h43.9v-3.4h-43.9"/><path class="cls-12" d="M270.6 56.7l3.1 3.4M274.4 56.7l3.4 3.4M278.5 56.7l3.3 3.4M282.3 56.7l3.4 3.4M286.4 56.7l3.4 3.4M290.5 56.7l3.3 3.4M294.3 56.7l3.4 3.4M298.4 56.7l3.4 3.4M302.5 56.7l3.3 3.4M306.3 56.7l3.4 3.4M310.4 56.7l3.4 3.4"/><path class="cls-17" d="M270.3 60.1v.5h43.9v-.5h-43.9"/><path class="cls-17" d="M270.3 60.6v5.7h43.9v-5.7h-43.9"/><path class="cls-12" d="M313.8 66.3v-5.7M312.3 66.3v-5.7M310.9 66.3v-5.7M309.4 66.3v-5.7M308.2 66.3v-5.7M306.8 66.3v-5.7M305.4 66.3v-5.7M303.9 66.3v-5.7M302.5 66.3v-5.7M301 66.3v-5.7M299.6 66.3v-5.7M298.2 66.3v-5.7M296.7 66.3v-5.7M295.3 66.3v-5.7M294.1 66.3v-5.7M292.6 66.3v-5.7M291.2 66.3v-5.7M289.8 66.3v-5.7M288.3 66.3v-5.7M286.9 66.3v-5.7M285.4 66.3v-5.7M284 66.3v-5.7M282.6 66.3v-5.7M281.1 66.3v-5.7M279.7 66.3v-5.7M278.5 66.3v-5.7M277 66.3v-5.7M275.6 66.3v-5.7M274.2 66.3v-5.7M272.7 66.3v-5.7M271.3 66.3v-5.7"/><path class="cls-17" d="M270.3 66.3v5.1h43.9v-5.1h-43.9"/><path class="cls-12" d="M270.6 69l2.4 2.4M272 66.3l5 5.1M275.8 66.3l5.1 5.1M279.9 66.3l5.1 5.1M284 66.3l5 5.1M288.1 66.3l5 5.1M291.9 66.3l5.1 5.1M296 66.3l5 5.1M300.1 66.3l5 5.1M303.9 66.3l5.1 5.1M308 66.3l5 5.1M312.1 66.3l2.4 2.4"/><path class="cls-14" d="M270.3 60.1h43.9M270.3 56.7h43.9"/><path class="cls-12" d="M270.3 66.3h43.9M270.3 60.6h43.9"/><path class="cls-14" d="M270.3 71.4h43.9M270.3 66.3h43.9"/><path class="cls-13" d="M270.3 56.7h43.9M270.3 71.4h43.9"/><path class="cls-18" d="M181.8 71.4V56.7h47.7v14.7h-47.7"/><path class="cls-17" d="M181.8 56.7v3.4h47.7v-3.4h-47.7"/><path class="cls-12" d="M182.2 56.7l3.4 3.4M186.1 56.7l3.3 3.4M190.2 56.7l3.3 3.4M194.2 56.7l3.4 3.4M198.1 56.7l3.3 3.4M202.2 56.7l3.3 3.4M206.2 56.7l3.4 3.4M210.3 56.7l3.4 3.4M214.2 56.7l3.3 3.4M218.2 56.7l3.4 3.4M222.3 56.7l3.4 3.4M226.2 56.7l3.3 3.4"/><path class="cls-17" d="M181.8 60.1v.5h47.7v-.5h-47.7"/><path class="cls-17" d="M181.8 60.6v5.7h47.7v-5.7h-47.7"/><path class="cls-12" d="M228.8 66.3v-5.7M227.4 66.3v-5.7M225.9 66.3v-5.7M224.5 66.3v-5.7M223 66.3v-5.7M221.6 66.3v-5.7M220.2 66.3v-5.7M219 66.3v-5.7M217.5 66.3v-5.7M216.1 66.3v-5.7M214.6 66.3v-5.7M213.2 66.3v-5.7M211.8 66.3v-5.7M210.3 66.3v-5.7M208.9 66.3v-5.7M207.4 66.3v-5.7M206 66.3v-5.7M204.6 66.3v-5.7M203.4 66.3v-5.7M201.9 66.3v-5.7M200.5 66.3v-5.7M199 66.3v-5.7M197.6 66.3v-5.7M196.2 66.3v-5.7M194.7 66.3v-5.7M193.3 66.3v-5.7M191.8 66.3v-5.7M190.4 66.3v-5.7M189.2 66.3v-5.7M187.8 66.3v-5.7M186.3 66.3v-5.7M184.9 66.3v-5.7M183.4 66.3v-5.7M182 66.3v-5.7"/><path class="cls-17" d="M181.8 66.3v5.1h47.7v-5.1h-47.7"/><path class="cls-12" d="M182 68.5l2.9 2.9M183.7 66.3l5 5.1M187.8 66.3l5 5.1M191.8 66.3l5.1 5.1M195.7 66.3l5 5.1M199.8 66.3l5 5.1M203.8 66.3l5.1 5.1M207.7 66.3l5 5.1M211.8 66.3l5 5.1M215.8 66.3l5.1 5.1M219.9 66.3l5.1 5.1M223.8 66.3l5 5.1M227.8 66.3l2 1.9"/><path class="cls-14" d="M181.8 60.1h47.7M181.8 56.7h47.7"/><path class="cls-12" d="M181.8 66.3h47.7M181.8 60.6h47.7"/><path class="cls-14" d="M181.8 71.4h47.7M181.8 66.3h47.7"/><path class="cls-13" d="M181.8 56.7h47.7M181.8 71.4h47.7"/><path class="cls-18" d="M93.4 71.4V56.7H141v14.7H93.4"/><path class="cls-17" d="M93.4 56.7v3.4H141v-3.4H93.4"/><path class="cls-12" d="M93.9 56.7l3.4 3.4M98 56.7l3.4 3.4M102.1 56.7l3.3 3.4M105.9 56.7l3.4 3.4M110 56.7l3.4 3.4M114.1 56.7l3.3 3.4M117.9 56.7l3.4 3.4M122 56.7l3.4 3.4M126.1 56.7l3.3 3.4M129.9 56.7l3.4 3.4M134 56.7l3.4 3.4M138.1 56.7l3.1 3.1"/><path class="cls-17" d="M93.4 60.1v.5H141v-.5H93.4"/><path class="cls-17" d="M93.4 60.6v5.7H141v-5.7H93.4"/><path class="cls-12" d="M141 66.3v-5.7M139.5 66.3v-5.7M138.1 66.3v-5.7M136.6 66.3v-5.7M135.2 66.3v-5.7M133.8 66.3v-5.7M132.3 66.3v-5.7M130.9 66.3v-5.7M129.4 66.3v-5.7M128.2 66.3v-5.7M126.8 66.3v-5.7M125.4 66.3v-5.7M123.9 66.3v-5.7M122.5 66.3v-5.7M121 66.3v-5.7M119.6 66.3v-5.7M118.2 66.3v-5.7M116.7 66.3v-5.7M115.3 66.3v-5.7M114.1 66.3v-5.7M112.6 66.3v-5.7M111.2 66.3v-5.7M109.8 66.3v-5.7M108.3 66.3v-5.7M106.9 66.3v-5.7M105.4 66.3v-5.7M104 66.3v-5.7M102.6 66.3v-5.7M101.1 66.3v-5.7M99.7 66.3v-5.7M98.5 66.3v-5.7M97 66.3v-5.7M95.6 66.3v-5.7M94.2 66.3v-5.7"/><path class="cls-17" d="M93.4 66.3v5.1H141v-5.1H93.4"/><path class="cls-12" d="M93.7 68.2l2.9 3.2M95.6 66.3l5 5.1M99.4 66.3l5.1 5.1M103.5 66.3l5.1 5.1M107.6 66.3l5 5.1M111.7 66.3l5 5.1M115.5 66.3l5.1 5.1M119.6 66.3l5 5.1M123.7 66.3l5 5.1M127.5 66.3l5.1 5.1M131.6 66.3l5 5.1M135.7 66.3l5 5.1M139.5 66.3l1.7 1.5"/><path class="cls-14" d="M93.4 60.1H141M93.4 56.7H141"/><path class="cls-12" d="M93.4 66.3H141M93.4 60.6H141"/><path class="cls-14" d="M93.4 71.4H141M93.4 66.3H141"/><path class="cls-13" d="M93.4 56.7H141M93.4 71.4H141"/><path class="cls-18" d="M.6 71.4V56.7h52v14.7H.6"/><path class="cls-17" d="M.6 56.7v3.4h52v-3.4H.6"/><path class="cls-12" d="M.8 59.6l.2.5M1.8 56.7l3.3 3.4M5.8 56.7l3.4 3.4M9.7 56.7l3.3 3.4M13.8 56.7l3.3 3.4M17.8 56.7l3.4 3.4M21.9 56.7l3.4 3.4M25.8 56.7l3.3 3.4M29.8 56.7l3.4 3.4M33.9 56.7l3.4 3.4M37.8 56.7l3.3 3.4M41.8 56.7l3.4 3.4M45.9 56.7l3.4 3.4M49.8 56.7l3.1 2.9"/><path class="cls-17" d="M.6 60.1v.5h52v-.5H.6"/><path class="cls-17" d="M.6 60.6v5.7h52v-5.7H.6"/><path class="cls-12" d="M51.7 66.3v-5.7M50.2 66.3v-5.7M48.8 66.3v-5.7M47.4 66.3v-5.7M45.9 66.3v-5.7M44.5 66.3v-5.7M43 66.3v-5.7M41.6 66.3v-5.7M40.2 66.3v-5.7M39 66.3v-5.7M37.5 66.3v-5.7M36.1 66.3v-5.7M34.6 66.3v-5.7M33.2 66.3v-5.7M31.8 66.3v-5.7M30.3 66.3v-5.7M28.9 66.3v-5.7M27.4 66.3v-5.7M26 66.3v-5.7M24.6 66.3v-5.7M23.4 66.3v-5.7M21.9 66.3v-5.7M20.5 66.3v-5.7M19 66.3v-5.7M17.6 66.3v-5.7M16.2 66.3v-5.7M14.7 66.3v-5.7M13.3 66.3v-5.7M11.8 66.3v-5.7M10.4 66.3v-5.7M9.2 66.3v-5.7M7.8 66.3v-5.7M6.3 66.3v-5.7M4.9 66.3v-5.7M3.4 66.3v-5.7M2 66.3v-5.7"/><path class="cls-17" d="M.6 66.3v5.1h52v-5.1H.6"/><path class="cls-12" d="M.8 67.8l3.6 3.6M3.4 66.3l5.1 5.1M7.3 66.3l5 5.1M11.4 66.3l5 5.1M15.4 66.3l5.1 5.1M19.3 66.3l5 5.1M23.4 66.3l5 5.1M27.4 66.3l5.1 5.1M31.5 66.3l5.1 5.1M35.4 66.3l5 5.1M39.4 66.3l5.1 5.1M43.5 66.3l5.1 5.1M47.4 66.3l5 5.1M51.4 66.3l1.5 1.2"/><path class="cls-14" d="M.6 60.1h52M.6 56.7h52"/><path class="cls-12" d="M.6 66.3h52M.6 60.6h52"/><path class="cls-14" d="M.6 71.4h52M.6 66.3h52"/><path class="cls-13" d="M.6 56.7h52M.6 71.4h52M142.9 63.9v-7.2h-3.4v-1.9h43.9v1.9h-3.3v7.2"/><path class="cls-1" d="M141 71.4h40.8"/><path class="cls-13" d="M181.3 71.4h.5"/><path class="cls-14" d="M142.9 56.7h-3.4M180.1 56.7h3.3"/><path class="cls-13" d="M141 63.9h40.8v2.4H141zM144.8 63.9v2.4M178.2 63.9v2.4M141 66.3v-2.4M159.4 66.3v-2.4M144.8 66.3v-2.4M163.5 66.3v-2.4M159.4 66.3v-2.4M178.2 66.3v-2.4M163.5 66.3v-2.4M181.8 66.3v-2.4"/><path class="cls-17" d="M141 60.6h1.9V64H141"/><path class="cls-12" d="M142.4 63.9v-3.3M141 60.6h1.9V64H141"/><path class="cls-14" d="M141 66.3v5.1"/><path class="cls-17" d="M141 56.7h1.9v3.4H141"/><path class="cls-12" d="M141.2 59.8l.2.3M142.2 56.7l.9 1"/><path class="cls-14" d="M141 56.7h1.9v3.4H141M142.9 60.1v3.8"/><path class="cls-17" d="M181.9 60.6H180V64h1.9"/><path class="cls-12" d="M180.6 63.9v-3.3M181.9 60.6H180V64h1.9"/><path class="cls-14" d="M181.8 66.3v5.1"/><path class="cls-17" d="M181.8 56.7h-1.7v3.4h1.7"/><path class="cls-12" d="M180.3 58.9l1.2 1.2"/><path class="cls-14" d="M181.8 56.7h-1.7v3.4h1.7M180.1 60.1v3.8"/><path class="cls-13" d="M54.6 63.9v-7.2H51v-1.9h43.9v1.9h-3.4v7.2"/><path class="cls-1" d="M52.6 71.4h40.8"/><path class="cls-13" d="M93 71.4h.4"/><path class="cls-14" d="M54.6 56.7H51M91.5 56.7h3.4"/><path class="cls-13" d="M52.6 63.9h40.8v2.4H52.6zM56.2 63.9v2.4M89.8 63.9v2.4M52.6 66.3v-2.4M70.9 66.3v-2.4M56.2 66.3v-2.4M75 66.3v-2.4M70.9 66.3v-2.4M89.8 66.3v-2.4M75 66.3v-2.4M93.4 66.3v-2.4"/><path class="cls-17" d="M52.6 60.6h1.8V64h-1.8"/><path class="cls-12" d="M54.3 63.9v-3.3M53.1 63.9v-3.3M52.6 60.6h1.8V64h-1.8"/><path class="cls-14" d="M52.6 66.3v5.1"/><path class="cls-17" d="M52.6 56.7h2v3.4h-2"/><path class="cls-12" d="M52.9 59.6l.2.5M53.8 56.7l1 .7"/><path class="cls-14" d="M52.6 56.7h2v3.4h-2M54.6 60.1v3.8"/><path class="cls-17" d="M93.4 60.6h-1.8V64h1.8"/><path class="cls-12" d="M92.7 63.9v-3.3M93.4 60.6h-1.8V64h1.8"/><path class="cls-14" d="M93.4 66.3v5.1"/><path class="cls-17" d="M93.4 56.7h-1.9v3.4h1.9"/><path class="cls-12" d="M91.8 58.4l1.4 1.7"/><path class="cls-14" d="M93.4 56.7h-1.9v3.4h1.9M91.5 60.1v3.8"/><path class="cls-13" d="M231.4 63.9v-7.2h-3.6v-1.9h44v1.9h-3.4v7.2"/><path class="cls-1" d="M229.5 71.4h40.8"/><path class="cls-13" d="M269.8 71.4h.5"/><path class="cls-14" d="M231.4 56.7h-3.6M268.4 56.7h3.4"/><path class="cls-13" d="M229.5 63.9h40.8v2.4h-40.8zM233.1 63.9v2.4M266.7 63.9v2.4M229.5 66.3v-2.4M247.8 66.3v-2.4M233.1 66.3v-2.4M251.8 66.3v-2.4M247.8 66.3v-2.4M266.7 66.3v-2.4M251.8 66.3v-2.4M270.3 66.3v-2.4"/><path class="cls-17" d="M229.5 60.6h1.8V64h-1.8"/><path class="cls-12" d="M230.2 63.9v-3.3M229.5 60.6h1.8V64h-1.8"/><path class="cls-14" d="M229.5 66.3v5.1"/><path class="cls-17" d="M229.5 56.7h1.9v3.4h-1.9"/><path class="cls-12" d="M230.2 56.7l1.5 1.2"/><path class="cls-14" d="M229.5 56.7h1.9v3.4h-1.9M231.4 60.1v3.8"/><path class="cls-17" d="M270.3 60.6h-1.8V64h1.8"/><path class="cls-12" d="M269.8 63.9v-3.3M270.3 60.6h-1.8V64h1.8"/><path class="cls-14" d="M270.3 66.3v5.1"/><path class="cls-17" d="M270.3 56.7h-1.9v3.4h1.9"/><path class="cls-12" d="M268.6 58.9l1 1.2M270.3 56.7h.3"/><path class="cls-14" d="M270.3 56.7h-1.9v3.4h1.9M268.4 60.1v3.8"/><path class="cls-1" d="M314.2 71.4h62.9"/><path class="cls-13" d="M314.2 63.9h62.9v2.4h-62.9zM317.8 63.9v2.4M373.5 63.9v2.4M314.2 66.3v-2.4M333.2 66.3v-2.4M317.8 66.3v-2.4M337.3 66.3v-2.4M333.2 66.3v-2.4M354.1 66.3v-2.4M337.3 66.3v-2.4M358.2 66.3v-2.4M354.1 66.3v-2.4M373.5 66.3v-2.4M358.2 66.3v-2.4M377.1 66.3v-2.4"/><path class="cls-14" d="M314.2 66.3v5.1"/><path class="cls-13" d="M378.8 56.7v-1.9"/><path class="cls-6" d="M378.8 54.8h-66"/><path class="cls-13" d="M312.8 54.8v1"/><path class="cls-17" d="M314.2 60.6h1.9V64h-1.9"/><path class="cls-12" d="M315.2 63.9v-3.3M314.2 60.6h1.9V64h-1.9"/><path class="cls-17" d="M314.2 56.7h2v3.4h-2"/><path class="cls-12" d="M314.5 56.7l1.9 1.9"/><path class="cls-14" d="M314.2 56.7h2v3.4h-2M316.2 60.1v3.8"/><path class="cls-17" d="M377.2 60.6h-1.9V64h1.9"/><path class="cls-12" d="M376.2 63.9v-3.3M377.2 60.6h-1.9V64h1.9"/><path class="cls-14" d="M377.1 66.3v5.1"/><path class="cls-17" d="M377.1 56.7h-1.7v3.4h1.7"/><path class="cls-12" d="M375.7 57.7l1.7 1.7"/><path class="cls-14" d="M377.1 56.7h-1.7v3.4h1.7M375.4 60.1v3.8"/><path class="cls-17" d="M264.8 149.9c.9-1.3.9-3 0-4.3-1.5-1.9-3.8-2.9-6.2-2.9l-9 .3v9.6l9 .3c2.4 0 4.7-1 6.2-2.9"/><path class="cls-13" d="M264.8 149.9c.9-1.3.9-3 0-4.3-1.5-1.9-3.8-2.9-6.2-2.9l-9 .3v9.6l9 .3c2.4 0 4.7-1 6.2-2.9"/><path class="cls-17" d="M254.7 147.8c0 1 .3 2 1.1 2.8.7.7 1.7 1.2 2.7 1.2 2.1 0 4.1-.9 5.4-2.5.6-.9.6-2 0-2.9-1.3-1.6-3.3-2.5-5.4-2.5-1 0-2 .4-2.7 1.2-.7.7-1.1 1.8-1.1 2.8"/><path class="cls-13" d="M254.7 147.8c0 1 .3 2 1.1 2.8.7.7 1.7 1.2 2.7 1.2 2.1 0 4.1-.9 5.4-2.5.6-.9.6-2 0-2.9-1.3-1.6-3.3-2.5-5.4-2.5-1 0-2 .4-2.7 1.2-.7.7-1.1 1.8-1.1 2.8"/><path class="cls-17" d="M250 199.1h48.1l.1-.1.1-.1v-.1h.1v-20.6l-.1-.1v-.1h-.1v-.1h-.1l-.1-.1h-48.1v.1h-.1l-.1.1-.1.1v20.7l.1.1v.1h.1l.1.1h.1"/><path class="cls-13" d="M250 199.1h48.1l.1-.1.1-.1v-.1h.1v-20.6l-.1-.1v-.1h-.1v-.1h-.1l-.1-.1h-48.1v.1h-.1l-.1.1-.1.1v20.7l.1.1v.1h.1l.1.1h.1"/><path class="cls-17" d="M255.3 197h37.4c.4 0 .9 0 1.3-.3.4-.2.8-.4 1.1-.7.3-.3.6-.7.7-1.1.2-.4.3-.9.3-1.3v-10.2c0-.4 0-.9-.3-1.3-.2-.4-.4-.8-.7-1.1-.3-.3-.7-.6-1.1-.7-.4-.2-.9-.3-1.3-.3h-37.4c-.4 0-.9 0-1.3.3s-.8.4-1.1.7c-.3.3-.6.7-.7 1.1-.2.4-.3.9-.3 1.3v10.2c0 .4 0 .9.3 1.3.2.4.4.8.7 1.1.3.3.7.6 1.1.7s.9.3 1.3.3"/><path class="cls-13" d="M255.3 197h37.4c.4 0 .9 0 1.3-.3.4-.2.8-.4 1.1-.7.3-.3.6-.7.7-1.1.2-.4.3-.9.3-1.3v-10.2c0-.4 0-.9-.3-1.3-.2-.4-.4-.8-.7-1.1-.3-.3-.7-.6-1.1-.7-.4-.2-.9-.3-1.3-.3h-37.4c-.4 0-.9 0-1.3.3s-.8.4-1.1.7c-.3.3-.6.7-.7 1.1-.2.4-.3.9-.3 1.3v10.2c0 .4 0 .9.3 1.3.2.4.4.8.7 1.1.3.3.7.6 1.1.7s.9.3 1.3.3M249 134.7v20.9"/><path class="cls-5" d="M249.7 134.7v21.6"/><path class="cls-13" d="M247.5 134.7v19.5M249 134.7v20.9M249.7 134.7v21.6M247.5 134.7v19.5M245.1 155.6v18.5"/><path class="cls-5" d="M245.8 156.3v17.1"/><path class="cls-13" d="M243.7 154.2v21.3M245.1 155.6v18.5M245.8 156.3v17.1M243.7 154.2v21.3M249 174.1v25.2"/><path class="cls-5" d="M249.7 173.4v25.9"/><path class="cls-13" d="M247.5 175.5v23.8M249 174.1v25.2M249.7 173.4v25.9M247.5 175.5v23.8"/><path class="cls-17" d="M249.6 172.6H262c.1 0 .3-.1.4-.2.1-.1.2-.2.2-.4V158.3v-.4c0-.1-.1-.3-.2-.4-.1-.1-.2-.2-.4-.2h-12.4v15.6"/><path class="cls-13" d="M249.6 172.6H262c.1 0 .3-.1.4-.2.1-.1.2-.2.2-.4V158.3v-.4c0-.1-.1-.3-.2-.4-.1-.1-.2-.2-.4-.2h-12.4v15.6"/><path class="cls-11" d="M249.7 156.3h-3.9"/><path class="cls-3" d="M245.8 156.3v17.1"/><path class="cls-11" d="M245.8 173.4h3.9"/><path class="cls-13" d="M245.1 174.1h3.9"/><path class="cls-5" d="M245.8 173.4h3.9"/><path class="cls-13" d="M243.7 175.5h3.8M245.1 174.1h3.9M245.8 173.4h3.9M243.7 175.5h3.8M249 155.6h-3.9"/><path class="cls-5" d="M249.7 156.3h-3.9"/><path class="cls-13" d="M247.5 154.2h-3.8M249 155.6h-3.9M249.7 156.3h-3.9M247.5 154.2h-3.8"/><path class="cls-5" d="M249.7 156.3v17.1"/><path class="cls-18" d="M328.9 382.2v14.6h-33.4v-14.6h33.4"/><path class="cls-17" d="M328.9 396.8v-3.4h-33.4v3.4h33.4"/><path class="cls-12" d="M295.8 394.6l1.9 2.2M298.4 393.4l3.4 3.4M302.5 393.4l3.3 3.4M306.3 393.4l3.4 3.4M310.4 393.4l3.4 3.4M314.5 393.4l3.3 3.4M318.3 393.4l3.4 3.4M322.4 393.4l3.4 3.4M326.5 393.4l2.6 2.7"/><path class="cls-17" d="M328.9 393.4v-.4h-33.4v.4h33.4M328.9 393v-5.8h-33.4v5.8h33.4"/><path class="cls-12" d="M296.7 387.2v5.8M298.2 387.2v5.8M299.6 387.2v5.8M301 387.2v5.8M302.5 387.2v5.8M303.9 387.2v5.8M305.4 387.2v5.8M306.8 387.2v5.8M308.2 387.2v5.8M309.4 387.2v5.8M310.9 387.2v5.8M312.3 387.2v5.8M313.8 387.2v5.8M315.2 387.2v5.8M316.6 387.2v5.8M318.1 387.2v5.8M319.5 387.2v5.8M321 387.2v5.8M322.4 387.2v5.8M323.8 387.2v5.8M325 387.2v5.8M326.5 387.2v5.8M327.9 387.2v5.8"/><path class="cls-17" d="M328.9 387.2v-5h-33.4v5h33.4"/><path class="cls-12" d="M295.8 386.7l.4.5M295.8 382.6l4.3 4.6M299.1 382.2l5.1 5M303.2 382.2l5 5M307 382.2l5.1 5M311.1 382.2l5.1 5M315.2 382.2l5 5M319.3 382.2l5 5M323.1 382.2l5.1 5M327.2 382.2l1.9 1.9"/><path class="cls-14" d="M328.9 393.4h-33.4M328.9 396.8h-33.4"/><path class="cls-12" d="M328.9 387.2h-33.4M328.9 393h-33.4"/><path class="cls-14" d="M328.9 382.2h-33.4M328.9 387.2h-33.4"/><path class="cls-13" d="M328.9 396.8h-33.4M328.9 382.2h-33.4"/><path class="cls-18" d="M398.5 382.2v14.6h-28.6v-14.6h28.6"/><path class="cls-17" d="M398.5 396.8v-3.4h-28.6v3.4h28.6"/><path class="cls-12" d="M370.6 393.4l3.4 3.4M374.5 393.4l3.3 3.4M378.6 393.4l3.3 3.4M382.6 393.4l3.4 3.4M386.5 393.4l3.3 3.4M390.6 393.4l3.3 3.4M394.6 393.4l3.4 3.4"/><path class="cls-17" d="M398.5 393.4v-.4h-28.6v.4h28.6M398.5 393v-5.8h-28.6v5.8h28.6"/><path class="cls-12" d="M370.4 387.2v5.8M371.8 387.2v5.8M373.3 387.2v5.8M374.7 387.2v5.8M376.2 387.2v5.8M377.6 387.2v5.8M379 387.2v5.8M380.5 387.2v5.8M381.9 387.2v5.8M383.4 387.2v5.8M384.6 387.2v5.8M386 387.2v5.8M387.4 387.2v5.8M388.9 387.2v5.8M390.3 387.2v5.8M391.8 387.2v5.8M393.2 387.2v5.8M394.6 387.2v5.8M396.1 387.2v5.8M397.5 387.2v5.8"/><path class="cls-17" d="M398.5 387.2v-5h-28.6v5h28.6"/><path class="cls-12" d="M370.2 384.8l2.1 2.4M371.4 382.2l5 5M375.2 382.2l5 5M379.3 382.2l5 5M383.4 382.2l5 5M387.4 382.2l5.1 5M391.3 382.2l5 5M395.4 382.2l3.3 3.3"/><path class="cls-14" d="M398.5 393.4h-28.6M398.5 396.8h-28.6"/><path class="cls-12" d="M398.5 387.2h-28.6M398.5 393h-28.6"/><path class="cls-14" d="M398.5 382.2h-28.6M398.5 387.2h-28.6"/><path class="cls-13" d="M398.5 396.8h-28.6M398.5 382.2h-28.6M368 389.4v7.4h3.4v1.9h-44v-1.9h3.4v-7.4"/><path class="cls-1" d="M369.9 382.2h-41"/><path class="cls-13" d="M329.4 382.2h-.5"/><path class="cls-14" d="M368 396.8h3.4M330.8 396.8h-3.4"/><path class="cls-13" d="M328.9 387.2h41v2.2h-41zM366.1 389.4v-2.2M332.7 389.4v-2.2M369.9 387.2v2.2M351.4 387.2v2.2M366.1 387.2v2.2M347.4 387.2v2.2M351.4 387.2v2.2M332.7 387.2v2.2M347.4 387.2v2.2M328.9 387.2v2.2"/><path class="cls-17" d="M369.8 392.8H368v-3.4h1.8"/><path class="cls-12" d="M369.2 389.4v3.6M369.8 392.8H368v-3.4h1.8"/><path class="cls-14" d="M369.9 387.2v-5"/><path class="cls-17" d="M369.9 396.8H368v-3.4h1.9"/><path class="cls-12" d="M368.2 395.1l1.7 1.7"/><path class="cls-14" d="M369.9 396.8H368v-3.4h1.9M368 393.4v-4"/><path class="cls-17" d="M329 392.8h1.8v-3.4H329"/><path class="cls-12" d="M329.4 389.4v3.6M330.8 389.4v3.6M329 392.8h1.8v-3.4H329"/><path class="cls-14" d="M328.9 387.2v-5"/><path class="cls-17" d="M328.9 396.8h1.9v-3.4h-1.9"/><path class="cls-12" d="M329.1 396.1l.7.7M330.6 393.4l.4.5"/><path class="cls-14" d="M328.9 396.8h1.9v-3.4h-1.9M330.8 393.4v-4"/><path class="cls-17" d="M58.6 278.2v7h139.2l-6.9-7H58.6"/><path class="cls-12" d="M194.2 285.2l-6.9-7M190.2 285.2l-7-7M186.1 285.2l-7-7M182.2 285.2l-6.9-7M178.2 285.2l-7-7M174.1 285.2l-7-7M170 285.2l-7-7M166.2 285.2l-7-7M162.1 285.2l-7-7M158 285.2l-7-7M154.2 285.2l-7-7M150.1 285.2l-7-7M146 285.2l-7-7M142.2 285.2l-7-7M138.1 285.2l-7-7M134 285.2l-7-7M129.9 285.2l-6.9-7M126.1 285.2l-7-7M122 285.2l-7-7M117.9 285.2l-6.9-7M114.1 285.2l-7-7M110 285.2l-7-7M105.9 285.2l-6.9-7M101.8 285.2l-6.9-7M98 285.2l-7-7M93.9 285.2l-6.9-7M89.8 285.2l-6.9-7M86 285.2l-7-7M81.9 285.2l-6.9-7M77.8 285.2l-6.9-7M74 285.2l-7-7M69.9 285.2l-6.9-7M65.8 285.2l-6.9-7M61.8 285.2l-2.9-3.1M195.4 285.2l1.2-1.2M191.4 285.2l3.3-3.4M187.5 285.2l5.3-5.3M183.4 285.2l7-7M179.4 285.2l6.9-7M175.3 285.2l6.9-7M171.4 285.2l7-7M167.4 285.2l6.9-7M163.3 285.2l6.9-7M159.4 285.2l7-7M155.4 285.2l6.9-7M151.3 285.2l6.9-7M147.2 285.2l7-7M143.4 285.2l6.9-7M139.3 285.2l6.9-7M135.2 285.2l7-7M131.4 285.2l6.9-7M127.3 285.2l6.9-7M123.2 285.2l7-7M119.4 285.2l6.9-7M115.3 285.2l6.9-7M111.2 285.2l7-7M107.1 285.2l7-7M103.3 285.2l6.9-7M99.2 285.2l7-7M95.1 285.2l7-7M91.3 285.2l6.9-7M87.2 285.2l7-7M83.1 285.2l7-7M79.3 285.2l6.9-7M75.2 285.2l7-7M71.1 285.2l7-7M67 285.2l7-7M63.2 285.2l7-7M59.1 285.2l7-7M58.9 281.6l3.1-3.4"/><path class="cls-17" d="M58.6 278.2v7h139.2l-6.9-7H58.6"/><path class="cls-12" d="M194.2 285.2l-6.9-7M190.2 285.2l-7-7M186.1 285.2l-7-7M182.2 285.2l-6.9-7M178.2 285.2l-7-7M174.1 285.2l-7-7M170 285.2l-7-7M166.2 285.2l-7-7M162.1 285.2l-7-7M158 285.2l-7-7M154.2 285.2l-7-7M150.1 285.2l-7-7M146 285.2l-7-7M142.2 285.2l-7-7M138.1 285.2l-7-7M134 285.2l-7-7M129.9 285.2l-6.9-7M126.1 285.2l-7-7M122 285.2l-7-7M117.9 285.2l-6.9-7M114.1 285.2l-7-7M110 285.2l-7-7M105.9 285.2l-6.9-7M101.8 285.2l-6.9-7M98 285.2l-7-7M93.9 285.2l-6.9-7M89.8 285.2l-6.9-7M86 285.2l-7-7M81.9 285.2l-6.9-7M77.8 285.2l-6.9-7M74 285.2l-7-7M69.9 285.2l-6.9-7M65.8 285.2l-6.9-7M61.8 285.2l-2.9-3.1M195.4 285.2l1.2-1.2M191.4 285.2l3.3-3.4M187.5 285.2l5.3-5.3M183.4 285.2l7-7M179.4 285.2l6.9-7M175.3 285.2l6.9-7M171.4 285.2l7-7M167.4 285.2l6.9-7M163.3 285.2l6.9-7M159.4 285.2l7-7M155.4 285.2l6.9-7M151.3 285.2l6.9-7M147.2 285.2l7-7M143.4 285.2l6.9-7M139.3 285.2l6.9-7M135.2 285.2l7-7M131.4 285.2l6.9-7M127.3 285.2l6.9-7M123.2 285.2l7-7M119.4 285.2l6.9-7M115.3 285.2l6.9-7M111.2 285.2l7-7M107.1 285.2l7-7M103.3 285.2l6.9-7M99.2 285.2l7-7M95.1 285.2l7-7M91.3 285.2l6.9-7M87.2 285.2l7-7M83.1 285.2l7-7M79.3 285.2l6.9-7M75.2 285.2l7-7M71.1 285.2l7-7M67 285.2l7-7M63.2 285.2l7-7M59.1 285.2l7-7M58.9 281.6l3.1-3.4"/><path class="cls-14" d="M190.9 278.2H58.6M197.8 285.2H58.6M197.8 285.2H58.6M190.9 278.2H58.6"/><path class="cls-17" d="M53.1 275.4l5.5 9.8v-74.6l-5.5 10v54.8"/><path class="cls-12" d="M58.9 213.9l-1.2-1.2M58.9 218l-2.7-2.6M58.9 222.1l-4.1-4.1M58.9 225.9l-5.5-5.5M58.9 230l-5.5-5.5M58.9 234.1l-5.5-5.5M58.9 237.9l-5.5-5.5M58.9 242l-5.5-5.5M58.9 246.1l-5.5-5.5M58.9 249.9l-5.5-5.5M58.9 254l-5.5-5.5M58.9 258.1l-5.5-5.5M58.9 262.2l-5.5-5.6M58.9 266l-5.5-5.5M58.9 270.1l-5.5-5.5M58.9 274.2l-5.5-5.6M58.9 278l-5.5-5.5M58.9 282.1l-4.1-3.9M57.4 282.8l1.5-1.2M56 280.4l2.9-2.9M54.6 277.8l4.3-4.4M53.4 275.1l5.5-5.5M53.4 271l5.5-5.5M53.4 267l5.5-5.6M53.4 263.1l5.5-5.5M53.4 259l5.5-5.5M53.4 255l5.5-5.6M53.4 250.9l5.5-5.5M53.4 247l5.5-5.5M53.4 243l5.5-5.6M53.4 238.9l5.5-5.5M53.4 235l5.5-5.5M53.4 231l5.5-5.6M53.4 226.9l5.5-5.5M53.4 223l5.5-5.5M55.3 216.8l3.6-3.4"/><path class="cls-17" d="M53.1 275.4l5.5 9.8v-74.6l-5.5 10v54.8"/><path class="cls-12" d="M58.9 213.9l-1.2-1.2M58.9 218l-2.7-2.6M58.9 222.1l-4.1-4.1M58.9 225.9l-5.5-5.5M58.9 230l-5.5-5.5M58.9 234.1l-5.5-5.5M58.9 237.9l-5.5-5.5M58.9 242l-5.5-5.5M58.9 246.1l-5.5-5.5M58.9 249.9l-5.5-5.5M58.9 254l-5.5-5.5M58.9 258.1l-5.5-5.5M58.9 262.2l-5.5-5.6M58.9 266l-5.5-5.5M58.9 270.1l-5.5-5.5M58.9 274.2l-5.5-5.6M58.9 278l-5.5-5.5M58.9 282.1l-4.1-3.9M57.4 282.8l1.5-1.2M56 280.4l2.9-2.9M54.6 277.8l4.3-4.4M53.4 275.1l5.5-5.5M53.4 271l5.5-5.5M53.4 267l5.5-5.6M53.4 263.1l5.5-5.5M53.4 259l5.5-5.5M53.4 255l5.5-5.6M53.4 250.9l5.5-5.5M53.4 247l5.5-5.5M53.4 243l5.5-5.6M53.4 238.9l5.5-5.5M53.4 235l5.5-5.5M53.4 231l5.5-5.6M53.4 226.9l5.5-5.5M53.4 223l5.5-5.5M55.3 216.8l3.6-3.4"/><path class="cls-14" d="M53.1 220.6v54.8M58.6 210.6v67.6M58.6 210.6v67.6M53.1 220.6v54.8M10.4 228.1h29.8v39.8H10.4z"/><path class="cls-13" d="M8.7 219.2h35.5M27 222.3H13M39.7 225.2H26M190.9 238.9h-34.1M190.9 231.2h-34.1M190.9 223.5h-34.1M190.9 216.1h-34.1M58.6 216.1h34.1M58.6 223.5h34.1M58.6 231.2h34.1M58.6 238.9h34.1M132.3 278.2l8.2-35.5M92.7 210.8h64.1v33.4H92.7zM75.7 216.1l-3.9 3.8h7.7l-3.8-3.8zM151.5 244.2v34M143.8 244.2v34M136.2 244.2v34M128.5 244.2v34M121 244.2v34M113.4 244.2v34M105.7 244.2v34M98 244.2v34"/><path class="cls-13" d="M94.2 212.2h61.2v30.5H94.2zM98 261.2l3.8 3.8v-7.6l-3.8 3.8zM136.2 261.2l3.8 3.8v-7.6l-3.8 3.8zM173.8 238.9l3.9-3.9H170l3.8 3.9z"/><path class="cls-17" d="M7.8 169.5v7.2h144.7v-7.2H7.8"/><path class="cls-12" d="M152.7 171.4l-2.1-1.9M152.7 175.5l-6-6M149.8 176.7l-7.2-7.2M145.8 176.7l-7.2-7.2M141.9 176.7l-7.2-7.2M137.8 176.7l-7.2-7.2M133.8 176.7l-7.2-7.2M129.7 176.7l-7.2-7.2M125.8 176.7l-7.2-7.2M121.8 176.7l-7.2-7.2M117.7 176.7l-7.2-7.2M113.8 176.7l-7.2-7.2M109.8 176.7l-7.2-7.2M105.7 176.7l-7.2-7.2M101.6 176.7l-7.2-7.2M97.8 176.7l-7.2-7.2M93.7 176.7l-7.2-7.2M89.6 176.7l-7.2-7.2M85.8 176.7l-7.2-7.2M81.7 176.7l-7.2-7.2M77.6 176.7l-7.2-7.2M73.8 176.7l-7.2-7.2M69.7 176.7l-7.2-7.2M65.6 176.7l-7.2-7.2M61.5 176.7l-7.2-7.2M57.7 176.7l-7.2-7.2M53.6 176.7l-7.2-7.2M49.5 176.7l-7.2-7.2M45.7 176.7l-7.2-7.2M41.6 176.7l-7.2-7.2M37.5 176.7l-7.2-7.2M33.7 176.7l-7.2-7.2M29.6 176.7l-7.2-7.2M25.5 176.7l-7.2-7.2M21.4 176.7l-7.2-7.2M17.6 176.7l-7.2-7.2M13.5 176.7L8 171.2M9.4 176.7L8 175M151.5 176.7l1.2-.9M147.7 176.7l5-5M143.6 176.7l7.2-7.2M139.5 176.7l7.2-7.2M135.4 176.7l7.2-7.2M131.6 176.7l7.2-7.2M127.5 176.7l7.2-7.2M123.4 176.7l7.2-7.2M119.6 176.7l7.2-7.2M115.5 176.7l7.2-7.2M111.4 176.7l7.2-7.2M107.4 176.7l7.2-7.2M103.5 176.7l7.2-7.2M99.4 176.7l7.2-7.2M95.4 176.7l7.2-7.2M91.5 176.7l7.2-7.2M87.4 176.7l7.2-7.2M83.4 176.7l7.2-7.2M79.5 176.7l7.2-7.2M75.4 176.7l7.2-7.2M71.4 176.7l7.2-7.2M67.3 176.7l7.2-7.2M63.4 176.7l7.2-7.2M59.4 176.7l7.2-7.2M55.3 176.7l7.2-7.2M51.4 176.7l7.2-7.2M47.4 176.7l7.2-7.2M43.3 176.7l7.2-7.2M39.4 176.7l7.2-7.2M35.4 176.7l7.2-7.2M31.3 176.7l7.2-7.2M27.2 176.7l7.2-7.2M23.4 176.7l7.2-7.2M19.3 176.7l7.2-7.2M15.2 176.7l7.2-7.2M11.4 176.7l7.2-7.2M8 176l6.5-6.5M8 172.2l2.4-2.7"/><path class="cls-17" d="M7.8 169.5v7.2h144.7v-7.2H7.8"/><path class="cls-12" d="M152.7 171.4l-2.1-1.9M152.7 175.5l-6-6M149.8 176.7l-7.2-7.2M145.8 176.7l-7.2-7.2M141.9 176.7l-7.2-7.2M137.8 176.7l-7.2-7.2M133.8 176.7l-7.2-7.2M129.7 176.7l-7.2-7.2M125.8 176.7l-7.2-7.2M121.8 176.7l-7.2-7.2M117.7 176.7l-7.2-7.2M113.8 176.7l-7.2-7.2M109.8 176.7l-7.2-7.2M105.7 176.7l-7.2-7.2M101.6 176.7l-7.2-7.2M97.8 176.7l-7.2-7.2M93.7 176.7l-7.2-7.2M89.6 176.7l-7.2-7.2M85.8 176.7l-7.2-7.2M81.7 176.7l-7.2-7.2M77.6 176.7l-7.2-7.2M73.8 176.7l-7.2-7.2M69.7 176.7l-7.2-7.2M65.6 176.7l-7.2-7.2M61.5 176.7l-7.2-7.2M57.7 176.7l-7.2-7.2M53.6 176.7l-7.2-7.2M49.5 176.7l-7.2-7.2M45.7 176.7l-7.2-7.2M41.6 176.7l-7.2-7.2M37.5 176.7l-7.2-7.2M33.7 176.7l-7.2-7.2M29.6 176.7l-7.2-7.2M25.5 176.7l-7.2-7.2M21.4 176.7l-7.2-7.2M17.6 176.7l-7.2-7.2M13.5 176.7L8 171.2M9.4 176.7L8 175M151.5 176.7l1.2-.9M147.7 176.7l5-5M143.6 176.7l7.2-7.2M139.5 176.7l7.2-7.2M135.4 176.7l7.2-7.2M131.6 176.7l7.2-7.2M127.5 176.7l7.2-7.2M123.4 176.7l7.2-7.2M119.6 176.7l7.2-7.2M115.5 176.7l7.2-7.2M111.4 176.7l7.2-7.2M107.4 176.7l7.2-7.2M103.5 176.7l7.2-7.2M99.4 176.7l7.2-7.2M95.4 176.7l7.2-7.2M91.5 176.7l7.2-7.2M87.4 176.7l7.2-7.2M83.4 176.7l7.2-7.2M79.5 176.7l7.2-7.2M75.4 176.7l7.2-7.2M71.4 176.7l7.2-7.2M67.3 176.7l7.2-7.2M63.4 176.7l7.2-7.2M59.4 176.7l7.2-7.2M55.3 176.7l7.2-7.2M51.4 176.7l7.2-7.2M47.4 176.7l7.2-7.2M43.3 176.7l7.2-7.2M39.4 176.7l7.2-7.2M35.4 176.7l7.2-7.2M31.3 176.7l7.2-7.2M27.2 176.7l7.2-7.2M23.4 176.7l7.2-7.2M19.3 176.7l7.2-7.2M15.2 176.7l7.2-7.2M11.4 176.7l7.2-7.2M8 176l6.5-6.5M8 172.2l2.4-2.7"/><path class="cls-14" d="M152.5 169.5H7.8M152.5 176.7H7.8M152.5 176.7H7.8M152.5 169.5H7.8"/><path class="cls-17" d="M188.2 176.7h2.7l6.9-7.2h-9.6v7.2"/><path class="cls-12" d="M196.4 171.2l-1.7-1.7M194.5 173.1l-3.9-3.6M192.3 175.3l-3.8-4.1M189.9 176.7l-1.4-1.4M188.5 176l6.5-6.5M188.5 171.9l2.4-2.4"/><path class="cls-17" d="M188.2 176.7h2.7l6.9-7.2h-9.6v7.2"/><path class="cls-12" d="M196.4 171.2l-1.7-1.7M194.5 173.1l-3.9-3.6M192.3 175.3l-3.8-4.1M189.9 176.7l-1.4-1.4M188.5 176l6.5-6.5M188.5 171.9l2.4-2.4"/><path class="cls-14" d="M190.9 176.7h-2.7M190.9 176.7h-2.7"/><path class="cls-13" d="M185.6 169h2.6v1.7h-2.6zM152.5 169h6v1.7h-6zM158.5 169h27.1v1.7h-27.1zM185.6 170.7h-27.1"/><path class="cls-1" d="M186.1 176.7h-27.9"/><path class="cls-13" d="M158.7 176.7h-.5"/><path class="cls-17" d="M188.2 176.7h-2.1v-6h2.1"/><path class="cls-12" d="M188.5 171.2l-.5-.5M188.5 175.3l-2.2-2.2M187.8 176.7l.7-.7M186.3 174.1l2.2-2.2"/><path class="cls-17" d="M152.5 176.7h5.7v-6h-5.7"/><path class="cls-12" d="M158.5 173.1l-2.7-2.4M157.8 176.7l-5.1-5.3M153.9 176.7l-1.2-1.2M155.6 176.7l2.9-2.9M152.7 175.8l4.8-5.1M152.7 171.7l1-1"/><path class="cls-14" d="M186.1 176.7v-6M158.2 176.7v-6M186.1 176.7v-6M188.2 176.7h-2.1M158.2 176.7v-6M152.5 176.7h5.7M188.2 169.5v1.2M152.5 169.5v1.2M188.2 176.7h-2.1M152.5 176.7h5.7M186.1 170.7h2.1M158.2 170.7h-5.7"/><path class="cls-12" d="M185.7 141.8c-14.9 0-27.2 12.3-27.2 27.2M185.6 169v-27.1"/><path class="cls-17" d="M302.7 199.3l-7.2 7.2v180.7h7.2V199.3"/><path class="cls-12" d="M303 201.4l-1.2-.9M303 205.5l-3.2-3.1M303 209.4l-5.3-5.1M303 213.4l-7.2-6.9M303 217.5l-7.2-7.2M303 221.6l-7.2-7.2M303 225.4l-7.2-7.2M303 229.5l-7.2-7.2M303 233.6l-7.2-7.2M303 237.4l-7.2-7.2M303 241.5l-7.2-7.2M303 245.6l-7.2-7.2M303 249.7l-7.2-7.2M303 253.5l-7.2-7.2M303 257.6l-7.2-7.2M303 261.7l-7.2-7.2M303 265.5l-7.2-7.2M303 269.6l-7.2-7.2M303 273.7l-7.2-7.2M303 277.5l-7.2-7.2M303 281.6l-7.2-7.2M303 285.7l-7.2-7.2M303 289.8l-7.2-7.2M303 293.6l-7.2-7.2M303 297.7l-7.2-7.2M303 301.8l-7.2-7.2M303 305.6l-7.2-7.2M303 309.7l-7.2-7.2M303 313.8l-7.2-7.2M303 317.6l-7.2-7.2M303 321.7l-7.2-7.2M303 325.8l-7.2-7.2M303 329.8l-7.2-7.2M303 333.7l-7.2-7.2M303 337.8l-7.2-7.2M303 341.8l-7.2-7.2M303 345.7l-7.2-7.2M303 349.8l-7.2-7.2M303 353.8l-7.2-7.2M303 357.9l-7.2-7.2M303 361.8l-7.2-7.2M303 365.8l-7.2-7.2M303 369.9l-7.2-7.2M303 373.8l-7.2-7.2M303 377.8l-7.2-7.2M303 381.9l-7.2-7.2M303 385.8l-7.2-7.2M300.1 387.2l-4.3-4.6M296.2 387.2l-.4-.5M302 387.2l1-1M297.9 387.2l5.1-5M295.8 385.5l7.2-7.2M295.8 381.4l7.2-7.2M295.8 377.4l7.2-7.2M295.8 373.3l7.2-7.2M295.8 369.4l7.2-7.2M295.8 365.4l7.2-7.2M295.8 361.3l7.2-7.2M295.8 357.4l7.2-7.2M295.8 353.4l7.2-7.2M295.8 349.3l7.2-7.2M295.8 345.4l7.2-7.2M295.8 341.4l7.2-7.2M295.8 337.3l7.2-7.2M295.8 333.2l7.2-7.2M295.8 329.4l7.2-7.2M295.8 325.3l7.2-7.2M295.8 321.2l7.2-7.2M295.8 317.4l7.2-7.2M295.8 313.3l7.2-7.2M295.8 309.2l7.2-7.2M295.8 305.4l7.2-7.2M295.8 301.3l7.2-7.2M295.8 297.2l7.2-7.2M295.8 293.1l7.2-7.2M295.8 289.3l7.2-7.2M295.8 285.2l7.2-7.2M295.8 281.1l7.2-7.2M295.8 277.3l7.2-7.2M295.8 273.2l7.2-7.2M295.8 269.1l7.2-7.2M295.8 265.3l7.2-7.2M295.8 261.2l7.2-7.2M295.8 257.1l7.2-7.2M295.8 253l7.2-7.2M295.8 249.2l7.2-7.2M295.8 245.1l7.2-7.2M295.8 241l7.2-7.2M295.8 237.2l7.2-7.2M295.8 233.1l7.2-7.2M295.8 229l7.2-7.2M295.8 225l7.2-7.2M295.8 221.1l7.2-7.2M295.8 217l7.2-7.2M295.8 213l7.2-7.2M295.8 209.1l7.2-7.2"/><path class="cls-17" d="M302.7 199.3l-7.2 7.2v180.7h7.2V199.3"/><path class="cls-12" d="M303 201.4l-1.2-.9M303 205.5l-3.2-3.1M303 209.4l-5.3-5.1M303 213.4l-7.2-6.9M303 217.5l-7.2-7.2M303 221.6l-7.2-7.2M303 225.4l-7.2-7.2M303 229.5l-7.2-7.2M303 233.6l-7.2-7.2M303 237.4l-7.2-7.2M303 241.5l-7.2-7.2M303 245.6l-7.2-7.2M303 249.7l-7.2-7.2M303 253.5l-7.2-7.2M303 257.6l-7.2-7.2M303 261.7l-7.2-7.2M303 265.5l-7.2-7.2M303 269.6l-7.2-7.2M303 273.7l-7.2-7.2M303 277.5l-7.2-7.2M303 281.6l-7.2-7.2M303 285.7l-7.2-7.2M303 289.8l-7.2-7.2M303 293.6l-7.2-7.2M303 297.7l-7.2-7.2M303 301.8l-7.2-7.2M303 305.6l-7.2-7.2M303 309.7l-7.2-7.2M303 313.8l-7.2-7.2M303 317.6l-7.2-7.2M303 321.7l-7.2-7.2M303 325.8l-7.2-7.2M303 329.8l-7.2-7.2M303 333.7l-7.2-7.2M303 337.8l-7.2-7.2M303 341.8l-7.2-7.2M303 345.7l-7.2-7.2M303 349.8l-7.2-7.2M303 353.8l-7.2-7.2M303 357.9l-7.2-7.2M303 361.8l-7.2-7.2M303 365.8l-7.2-7.2M303 369.9l-7.2-7.2M303 373.8l-7.2-7.2M303 377.8l-7.2-7.2M303 381.9l-7.2-7.2M303 385.8l-7.2-7.2M300.1 387.2l-4.3-4.6M296.2 387.2l-.4-.5M302 387.2l1-1M297.9 387.2l5.1-5M295.8 385.5l7.2-7.2M295.8 381.4l7.2-7.2M295.8 377.4l7.2-7.2M295.8 373.3l7.2-7.2M295.8 369.4l7.2-7.2M295.8 365.4l7.2-7.2M295.8 361.3l7.2-7.2M295.8 357.4l7.2-7.2M295.8 353.4l7.2-7.2M295.8 349.3l7.2-7.2M295.8 345.4l7.2-7.2M295.8 341.4l7.2-7.2M295.8 337.3l7.2-7.2M295.8 333.2l7.2-7.2M295.8 329.4l7.2-7.2M295.8 325.3l7.2-7.2M295.8 321.2l7.2-7.2M295.8 317.4l7.2-7.2M295.8 313.3l7.2-7.2M295.8 309.2l7.2-7.2M295.8 305.4l7.2-7.2M295.8 301.3l7.2-7.2M295.8 297.2l7.2-7.2M295.8 293.1l7.2-7.2M295.8 289.3l7.2-7.2M295.8 285.2l7.2-7.2M295.8 281.1l7.2-7.2M295.8 277.3l7.2-7.2M295.8 273.2l7.2-7.2M295.8 269.1l7.2-7.2M295.8 265.3l7.2-7.2M295.8 261.2l7.2-7.2M295.8 257.1l7.2-7.2M295.8 253l7.2-7.2M295.8 249.2l7.2-7.2M295.8 245.1l7.2-7.2M295.8 241l7.2-7.2M295.8 237.2l7.2-7.2M295.8 233.1l7.2-7.2M295.8 229l7.2-7.2M295.8 225l7.2-7.2M295.8 221.1l7.2-7.2M295.8 217l7.2-7.2M295.8 213l7.2-7.2M295.8 209.1l7.2-7.2"/><path class="cls-14" d="M302.7 387.2V199.3M295.5 387.2V206.5M295.5 387.2V206.5M302.7 387.2V199.3M302.7 387.2h-7.2"/><path class="cls-17" d="M302.7 139h-4.3v-19.2h4.3V139"/><path class="cls-12" d="M298.6 120.1l.3-.3M298.6 124.4l4.4-4.3M298.6 128.7l4.4-4.3M298.6 132.8l4.4-4.3M298.6 137.1l4.4-4.3M300.8 139l2.2-1.9"/><path class="cls-17" d="M298.4 139h4.3v-19.2h-4.3V139"/><path class="cls-12" d="M298.6 120.1l.3-.3M298.6 124.4l4.4-4.3M298.6 128.7l4.4-4.3M298.6 132.8l4.4-4.3M298.6 137.1l4.4-4.3M300.8 139l2.2-1.9"/><path class="cls-14" d="M302.7 139v-19.2M298.4 129.7v-9.9M298.4 139v-4.3M302.7 119.8h-4.3M298.4 129.7v-9.9M302.7 139v-19.2M298.4 139v-4.3"/><path class="cls-17" d="M298.4 164.2v35.1h4.3v-35.1h-4.3"/><path class="cls-12" d="M298.6 166.9l2.4-2.7M298.6 171.2l4.4-4.3M298.6 175.3l4.4-4.3M298.6 179.6l4.4-4.3M298.6 183.9l4.4-4.3M298.6 188l4.4-4.3M298.6 192.3l4.4-4.3M298.6 196.6l4.4-4.3M300.1 199.3l2.9-2.7"/><path class="cls-17" d="M298.4 164.2v35.1h4.3v-35.1h-4.3"/><path class="cls-12" d="M298.6 166.9l2.4-2.7M298.6 171.2l4.4-4.3M298.6 175.3l4.4-4.3M298.6 179.6l4.4-4.3M298.6 183.9l4.4-4.3M298.6 188l4.4-4.3M298.6 192.3l4.4-4.3M298.6 196.6l4.4-4.3M300.1 199.3l2.9-2.7"/><path class="cls-14" d="M302.7 199.3v-35.1M298.4 199.3v-35.1M298.4 199.3v-35.1M302.7 199.3v-35.1M298.4 199.3h4.3"/><path class="cls-1" d="M302.7 164.2V139M298.4 164.2V139"/><path class="cls-13" d="M302.7 163h-4.3M302.7 140.2h-4.3"/><path class="cls-14" d="M302.7 164.2h-4.3M302.7 139h-4.3"/><path class="cls-12" d="M275.7 140.3c0 12.4 10.2 22.7 22.7 22.7M298.4 140.2h-22.8"/><path class="cls-17" d="M234.6 142.2v64.3l6.9-7.2V135l-6.9 7.2"/><path class="cls-12" d="M241.8 136.2l-.8-.5M241.8 140.2l-2.7-2.6M241.8 144.3l-4.8-4.5M241.8 148.2l-6.8-6.5M241.8 152.2l-7-6.9M241.8 156.3l-7-6.9M241.8 160.4l-7-7M241.8 164.2l-7-6.9M241.8 168.3l-7-6.9M241.8 172.4l-7-7M241.8 176.2l-7-6.9M241.8 180.3l-7-6.9M241.8 184.4l-7-7M241.8 188.5l-7-7M241.8 192.3l-7-6.9M241.8 196.4l-7-7M241 199.8l-6.2-6.3M239.1 201.9l-4.3-4.5M237.2 203.8l-2.4-2.4M235.3 206l-.5-.5M234.8 205.8l7-7M234.8 201.9l7-6.9M234.8 197.8l7-6.9M234.8 193.8l7-7M234.8 189.9l7-6.9M234.8 185.8l7-6.9M234.8 181.8l7-7M234.8 177.7l7-7M234.8 173.8l7-6.9M234.8 169.8l7-7M234.8 165.7l7-7M234.8 161.8l7-6.9M234.8 157.8l7-7M234.8 153.7l7-7M234.8 149.8l7-6.9M234.8 145.8l7-7"/><path class="cls-17" d="M234.6 142.2v64.3l6.9-7.2V135l-6.9 7.2"/><path class="cls-12" d="M241.8 136.2l-.8-.5M241.8 140.2l-2.7-2.6M241.8 144.3l-4.8-4.5M241.8 148.2l-6.8-6.5M241.8 152.2l-7-6.9M241.8 156.3l-7-6.9M241.8 160.4l-7-7M241.8 164.2l-7-6.9M241.8 168.3l-7-6.9M241.8 172.4l-7-7M241.8 176.2l-7-6.9M241.8 180.3l-7-6.9M241.8 184.4l-7-7M241.8 188.5l-7-7M241.8 192.3l-7-6.9M241.8 196.4l-7-7M241 199.8l-6.2-6.3M239.1 201.9l-4.3-4.5M237.2 203.8l-2.4-2.4M235.3 206l-.5-.5M234.8 205.8l7-7M234.8 201.9l7-6.9M234.8 197.8l7-6.9M234.8 193.8l7-7M234.8 189.9l7-6.9M234.8 185.8l7-6.9M234.8 181.8l7-7M234.8 177.7l7-7M234.8 173.8l7-6.9M234.8 169.8l7-7M234.8 165.7l7-7M234.8 161.8l7-6.9M234.8 157.8l7-7M234.8 153.7l7-7M234.8 149.8l7-6.9M234.8 145.8l7-7"/><path class="cls-14" d="M241.5 199.3V135M234.6 206.5v-64.3M234.6 206.5v-64.3M241.5 199.3V135"/><path class="cls-17" d="M192.6 133.3h-4.4v-13.5h4.4v13.5"/><path class="cls-12" d="M188.5 123.9l4.1-4.1M188.5 128.2l4.3-4.3M188.5 132.6l4.3-4.4M191.8 133.3l1-.7"/><path class="cls-17" d="M188.2 133.3h4.4v-13.5h-4.4v13.5"/><path class="cls-12" d="M188.5 123.9l4.1-4.1M188.5 128.2l4.3-4.3M188.5 132.6l4.3-4.4M191.8 133.3l1-.7"/><path class="cls-14" d="M192.6 133.3v-13.5M188.2 133.3v-13.5M192.6 119.8h-4.4M188.2 133.3v-13.5M192.6 133.3v-13.5"/><path class="cls-17" d="M219 129.7v5h79.4v-5H219"/><path class="cls-12" d="M219.2 131.6l1.7-1.9M220.2 134.7l5-5M224.5 134.7l5-5M228.6 134.7l5-5M232.9 134.7l5-5M237.2 134.7l5-5M241.5 134.7l5.1-5M245.6 134.7l5-5M249.9 134.7l5.1-5M254.2 134.7l5.1-5M258.3 134.7l5.1-5M262.6 134.7l5.1-5M267 134.7l5-5M271 134.7l5.1-5M275.4 134.7l5-5M279.7 134.7l5-5M284 134.7l5-5M288.1 134.7l5-5M292.4 134.7l5-5M296.7 134.7l1.9-1.9"/><path class="cls-17" d="M219 129.7v5h79.4v-5H219"/><path class="cls-12" d="M219.2 131.6l1.7-1.9M220.2 134.7l5-5M224.5 134.7l5-5M228.6 134.7l5-5M232.9 134.7l5-5M237.2 134.7l5-5M241.5 134.7l5.1-5M245.6 134.7l5-5M249.9 134.7l5.1-5M254.2 134.7l5.1-5M258.3 134.7l5.1-5M262.6 134.7l5.1-5M267 134.7l5-5M271 134.7l5.1-5M275.4 134.7l5-5M279.7 134.7l5-5M284 134.7l5-5M288.1 134.7l5-5M292.4 134.7l5-5M296.7 134.7l1.9-1.9"/><path class="cls-14" d="M298.4 129.7H219M298.4 134.7H219M298.4 134.7H219M298.4 129.7H219M219 134.7v-5M135.2 71.4h-4.3"/><path class="cls-17" d="M135.2 169.5h-4.3v-72h4.3v72"/><path class="cls-12" d="M131.1 100.6l2.9-3.1M131.1 105l4.3-4.4M131.1 109l4.3-4.3M131.1 113.4l4.3-4.4M131.1 117.7l4.3-4.3M131.1 121.8l4.3-4.4M131.1 126.1l4.3-4.3M131.1 130.4l4.3-4.3M131.1 134.7l4.3-4.3M131.1 138.8l4.3-4.3M131.1 143.1l4.3-4.3M131.1 147.4l4.3-4.3M131.1 151.5l4.3-4.3M131.1 155.8l4.3-4.3M131.1 160.2l4.3-4.4M131.1 164.5l4.3-4.3M131.1 168.6l4.3-4.4M134.2 169.5l1.2-.9"/><path class="cls-17" d="M130.9 169.5h4.3v-72h-4.3v72"/><path class="cls-12" d="M131.1 100.6l2.9-3.1M131.1 105l4.3-4.4M131.1 109l4.3-4.3M131.1 113.4l4.3-4.4M131.1 117.7l4.3-4.3M131.1 121.8l4.3-4.4M131.1 126.1l4.3-4.3M131.1 130.4l4.3-4.3M131.1 134.7l4.3-4.3M131.1 138.8l4.3-4.3M131.1 143.1l4.3-4.3M131.1 147.4l4.3-4.3M131.1 151.5l4.3-4.3M131.1 155.8l4.3-4.3M131.1 160.2l4.3-4.4M131.1 164.5l4.3-4.3M131.1 168.6l4.3-4.4M134.2 169.5l1.2-.9"/><path class="cls-14" d="M135.2 119.8V97.5M135.2 169.5v-46.3M130.9 169.5v-72M130.9 169.5v-72M135.2 119.8V97.5M135.2 169.5v-46.3M135.2 169.5h-4.3"/><path class="cls-13" d="M135.2 95.8h-4.3M135.2 73h-4.3"/><path class="cls-14" d="M135.2 97.5h-4.3M135.2 71.4h-4.3"/><path class="cls-12" d="M130.8 73.1c-12.4 0-22.7 10.2-22.7 22.7M130.9 95.8h-22.8"/><path class="cls-17" d="M241.5 199.3l-6.9 7.2h60.9l7.2-7.2h-61.2"/><path class="cls-12" d="M301.8 200.5l-1.2-1.2M299.8 202.4l-3.1-3.1M297.7 204.3l-5.1-5M295.8 206.5l-7.2-7.2M291.9 206.5l-7.2-7.2M287.8 206.5l-7.2-7.2M283.8 206.5l-7.2-7.2M279.7 206.5l-7.2-7.2M275.8 206.5l-7.2-7.2M271.8 206.5l-7.2-7.2M267.7 206.5l-7.2-7.2M263.8 206.5l-7.2-7.2M259.8 206.5l-7.2-7.2M255.7 206.5l-7.2-7.2M251.8 206.5l-7.2-7.2M247.8 206.5l-6.8-6.7M243.7 206.5l-4.6-4.6M239.6 206.5l-2.4-2.7M235.8 206.5l-.5-.5M294.1 206.5l7.2-7.2M290.2 206.5l7.2-7.2M286.2 206.5l7.2-7.2M282.1 206.5l7.2-7.2M278.2 206.5l7.2-7.2M274.2 206.5l7.2-7.2M270.1 206.5l7.2-7.2M266.2 206.5l7.2-7.2M262.2 206.5l7.2-7.2M258.1 206.5l7.2-7.2M254 206.5l7.2-7.2M250.2 206.5l7.2-7.2M246.1 206.5l7.2-7.2M242 206.5l7.2-7.2M238.2 206.5l7.2-7.2"/><path class="cls-17" d="M241.5 199.3l-6.9 7.2h60.9l7.2-7.2h-61.2"/><path class="cls-12" d="M301.8 200.5l-1.2-1.2M299.8 202.4l-3.1-3.1M297.7 204.3l-5.1-5M295.8 206.5l-7.2-7.2M291.9 206.5l-7.2-7.2M287.8 206.5l-7.2-7.2M283.8 206.5l-7.2-7.2M279.7 206.5l-7.2-7.2M275.8 206.5l-7.2-7.2M271.8 206.5l-7.2-7.2M267.7 206.5l-7.2-7.2M263.8 206.5l-7.2-7.2M259.8 206.5l-7.2-7.2M255.7 206.5l-7.2-7.2M251.8 206.5l-7.2-7.2M247.8 206.5l-6.8-6.7M243.7 206.5l-4.6-4.6M239.6 206.5l-2.4-2.7M235.8 206.5l-.5-.5M294.1 206.5l7.2-7.2M290.2 206.5l7.2-7.2M286.2 206.5l7.2-7.2M282.1 206.5l7.2-7.2M278.2 206.5l7.2-7.2M274.2 206.5l7.2-7.2M270.1 206.5l7.2-7.2M266.2 206.5l7.2-7.2M262.2 206.5l7.2-7.2M258.1 206.5l7.2-7.2M254 206.5l7.2-7.2M250.2 206.5l7.2-7.2M246.1 206.5l7.2-7.2M242 206.5l7.2-7.2M238.2 206.5l7.2-7.2"/><path class="cls-14" d="M298.4 199.3h-56.9M295.5 206.5h-60.9M295.5 206.5h-60.9M298.4 199.3h-56.9M302.7 199.3h-4.3"/><path class="cls-17" d="M398.5 387.2h-7.2V66.3h7.2v320.9"/><path class="cls-12" d="M398.7 68.7l-2.4-2.4M398.7 72.8l-6.5-6.5M398.7 76.6l-7.2-7.2M398.7 80.7l-7.2-7.2M398.7 84.8l-7.2-7.2M398.7 88.9l-7.2-7.2M398.7 92.7l-7.2-7.2M398.7 96.8l-7.2-7.2M398.7 100.9l-7.2-7.2M398.7 104.7l-7.2-7.2M398.7 108.8l-7.2-7.2M398.7 112.9l-7.2-7.2M398.7 116.7l-7.2-7.2M398.7 120.8l-7.2-7.2M398.7 124.9l-7.2-7.2M398.7 129l-7.2-7.2M398.7 132.8l-7.2-7.2M398.7 136.9l-7.2-7.2M398.7 141l-7.2-7.2M398.7 144.8l-7.2-7.2M398.7 148.9l-7.2-7.2M398.7 153l-7.2-7.2M398.7 156.8l-7.2-7.2M398.7 160.9l-7.2-7.2M398.7 165l-7.2-7.2M398.7 169l-7.2-7.2M398.7 172.9l-7.2-7.2M398.7 177l-7.2-7.2M398.7 181l-7.2-7.2M398.7 184.9l-7.2-7.2M398.7 189l-7.2-7.2M398.7 193l-7.2-7.2M398.7 197.1l-7.2-7.2M398.7 201l-7.2-7.2M398.7 205l-7.2-7.2M398.7 209.1l-7.2-7.2M398.7 213l-7.2-7.2M398.7 217l-7.2-7.2M398.7 221.1l-7.2-7.2M398.7 225l-7.2-7.2M398.7 229l-7.2-7.2M398.7 233.1l-7.2-7.2M398.7 237.2l-7.2-7.2M398.7 241l-7.2-7.2M398.7 245.1l-7.2-7.2M398.7 249.2l-7.2-7.2M398.7 253l-7.2-7.2M398.7 257.1l-7.2-7.2M398.7 261.2l-7.2-7.2M398.7 265l-7.2-7.2M398.7 269.1l-7.2-7.2M398.7 273.2l-7.2-7.2M398.7 277.3l-7.2-7.2M398.7 281.1l-7.2-7.2M398.7 285.2l-7.2-7.2M398.7 289.3l-7.2-7.2M398.7 293.1l-7.2-7.2M398.7 297.2l-7.2-7.2M398.7 301.3l-7.2-7.2M398.7 305.1l-7.2-7.2M398.7 309.2l-7.2-7.2M398.7 313.3l-7.2-7.2M398.7 317.4l-7.2-7.2M398.7 321.2l-7.2-7.2M398.7 325.3l-7.2-7.2M398.7 329.4l-7.2-7.2M398.7 333.2l-7.2-7.2M398.7 337.3l-7.2-7.2M398.7 341.4l-7.2-7.2M398.7 345.4l-7.2-7.2M398.7 349.3l-7.2-7.2M398.7 353.4l-7.2-7.2M398.7 357.4l-7.2-7.2M398.7 361.3l-7.2-7.2M398.7 365.4l-7.2-7.2M398.7 369.4l-7.2-7.2M398.7 373.3l-7.2-7.2M398.7 377.4l-7.2-7.2M398.7 381.4l-7.2-7.2M398.7 385.5l-7.2-7.2M396.3 387.2l-4.8-5M392.5 387.2l-1-1M398 387.2l.7-.5M394.2 387.2l4.5-4.6M391.5 385.8l7.2-7.2M391.5 381.9l7.2-7.2M391.5 377.8l7.2-7.2M391.5 373.8l7.2-7.2M391.5 369.9l7.2-7.2M391.5 365.8l7.2-7.2M391.5 361.8l7.2-7.2M391.5 357.9l7.2-7.2M391.5 353.8l7.2-7.2M391.5 349.8l7.2-7.2M391.5 345.7l7.2-7.2M391.5 341.8l7.2-7.2M391.5 337.8l7.2-7.2M391.5 333.7l7.2-7.2M391.5 329.8l7.2-7.2M391.5 325.8l7.2-7.2M391.5 321.7l7.2-7.2M391.5 317.8l7.2-7.2M391.5 313.8l7.2-7.2M391.5 309.7l7.2-7.2M391.5 305.6l7.2-7.2M391.5 301.8l7.2-7.2M391.5 297.7l7.2-7.2M391.5 293.6l7.2-7.2M391.5 289.8l7.2-7.2M391.5 285.7l7.2-7.2M391.5 281.6l7.2-7.2M391.5 277.5l7.2-7.2M391.5 273.7l7.2-7.2M391.5 269.6l7.2-7.2M391.5 265.5l7.2-7.2M391.5 261.7l7.2-7.2M391.5 257.6l7.2-7.2M391.5 253.5l7.2-7.2M391.5 249.7l7.2-7.2M391.5 245.6l7.2-7.2M391.5 241.5l7.2-7.2M391.5 237.4l7.2-7.2M391.5 233.6l7.2-7.2M391.5 229.5l7.2-7.2M391.5 225.4l7.2-7.2M391.5 221.6l7.2-7.2M391.5 217.5l7.2-7.2M391.5 213.4l7.2-7.2M391.5 209.6l7.2-7.2M391.5 205.5l7.2-7.2M391.5 201.4l7.2-7.2M391.5 197.4l7.2-7.2M391.5 193.5l7.2-7.2M391.5 189.4l7.2-7.2M391.5 185.4l7.2-7.2M391.5 181.5l7.2-7.2M391.5 177.4l7.2-7.2M391.5 173.4l7.2-7.2M391.5 169.5l7.2-7.2M391.5 165.4l7.2-7.2M391.5 161.4l7.2-7.2M391.5 157.3l7.2-7.2M391.5 153.4l7.2-7.2M391.5 149.4l7.2-7.2M391.5 145.3l7.2-7.2M391.5 141.4l7.2-7.2M391.5 137.4l7.2-7.2M391.5 133.3l7.2-7.2M391.5 129.2l7.2-7.2M391.5 125.4l7.2-7.2M391.5 121.3l7.2-7.2M391.5 117.2l7.2-7.2M391.5 113.4l7.2-7.2M391.5 109.3l7.2-7.2M391.5 105.2l7.2-7.2M391.5 101.4l7.2-7.2M391.5 97.3l7.2-7.2M391.5 93.2l7.2-7.2M391.5 89.1l7.2-7.2M391.5 85.3l7.2-7.2M391.5 81.2l7.2-7.2M391.5 77.1l7.2-7.2M391.5 73.3l6.7-7M391.5 69.2l2.7-2.9"/><path class="cls-17" d="M391.3 387.2h7.2V66.3h-7.2v320.9"/><path class="cls-12" d="M398.7 68.7l-2.4-2.4M398.7 72.8l-6.5-6.5M398.7 76.6l-7.2-7.2M398.7 80.7l-7.2-7.2M398.7 84.8l-7.2-7.2M398.7 88.9l-7.2-7.2M398.7 92.7l-7.2-7.2M398.7 96.8l-7.2-7.2M398.7 100.9l-7.2-7.2M398.7 104.7l-7.2-7.2M398.7 108.8l-7.2-7.2M398.7 112.9l-7.2-7.2M398.7 116.7l-7.2-7.2M398.7 120.8l-7.2-7.2M398.7 124.9l-7.2-7.2M398.7 129l-7.2-7.2M398.7 132.8l-7.2-7.2M398.7 136.9l-7.2-7.2M398.7 141l-7.2-7.2M398.7 144.8l-7.2-7.2M398.7 148.9l-7.2-7.2M398.7 153l-7.2-7.2M398.7 156.8l-7.2-7.2M398.7 160.9l-7.2-7.2M398.7 165l-7.2-7.2M398.7 169l-7.2-7.2M398.7 172.9l-7.2-7.2M398.7 177l-7.2-7.2M398.7 181l-7.2-7.2M398.7 184.9l-7.2-7.2M398.7 189l-7.2-7.2M398.7 193l-7.2-7.2M398.7 197.1l-7.2-7.2M398.7 201l-7.2-7.2M398.7 205l-7.2-7.2M398.7 209.1l-7.2-7.2M398.7 213l-7.2-7.2M398.7 217l-7.2-7.2M398.7 221.1l-7.2-7.2M398.7 225l-7.2-7.2M398.7 229l-7.2-7.2M398.7 233.1l-7.2-7.2M398.7 237.2l-7.2-7.2M398.7 241l-7.2-7.2M398.7 245.1l-7.2-7.2M398.7 249.2l-7.2-7.2M398.7 253l-7.2-7.2M398.7 257.1l-7.2-7.2M398.7 261.2l-7.2-7.2M398.7 265l-7.2-7.2M398.7 269.1l-7.2-7.2M398.7 273.2l-7.2-7.2M398.7 277.3l-7.2-7.2M398.7 281.1l-7.2-7.2M398.7 285.2l-7.2-7.2M398.7 289.3l-7.2-7.2M398.7 293.1l-7.2-7.2M398.7 297.2l-7.2-7.2M398.7 301.3l-7.2-7.2M398.7 305.1l-7.2-7.2M398.7 309.2l-7.2-7.2M398.7 313.3l-7.2-7.2M398.7 317.4l-7.2-7.2M398.7 321.2l-7.2-7.2M398.7 325.3l-7.2-7.2M398.7 329.4l-7.2-7.2M398.7 333.2l-7.2-7.2M398.7 337.3l-7.2-7.2M398.7 341.4l-7.2-7.2M398.7 345.4l-7.2-7.2M398.7 349.3l-7.2-7.2M398.7 353.4l-7.2-7.2M398.7 357.4l-7.2-7.2M398.7 361.3l-7.2-7.2M398.7 365.4l-7.2-7.2M398.7 369.4l-7.2-7.2M398.7 373.3l-7.2-7.2M398.7 377.4l-7.2-7.2M398.7 381.4l-7.2-7.2M398.7 385.5l-7.2-7.2M396.3 387.2l-4.8-5M392.5 387.2l-1-1M398 387.2l.7-.5M394.2 387.2l4.5-4.6M391.5 385.8l7.2-7.2M391.5 381.9l7.2-7.2M391.5 377.8l7.2-7.2M391.5 373.8l7.2-7.2M391.5 369.9l7.2-7.2M391.5 365.8l7.2-7.2M391.5 361.8l7.2-7.2M391.5 357.9l7.2-7.2M391.5 353.8l7.2-7.2M391.5 349.8l7.2-7.2M391.5 345.7l7.2-7.2M391.5 341.8l7.2-7.2M391.5 337.8l7.2-7.2M391.5 333.7l7.2-7.2M391.5 329.8l7.2-7.2M391.5 325.8l7.2-7.2M391.5 321.7l7.2-7.2M391.5 317.8l7.2-7.2M391.5 313.8l7.2-7.2M391.5 309.7l7.2-7.2M391.5 305.6l7.2-7.2M391.5 301.8l7.2-7.2M391.5 297.7l7.2-7.2M391.5 293.6l7.2-7.2M391.5 289.8l7.2-7.2M391.5 285.7l7.2-7.2M391.5 281.6l7.2-7.2M391.5 277.5l7.2-7.2M391.5 273.7l7.2-7.2M391.5 269.6l7.2-7.2M391.5 265.5l7.2-7.2M391.5 261.7l7.2-7.2M391.5 257.6l7.2-7.2M391.5 253.5l7.2-7.2M391.5 249.7l7.2-7.2M391.5 245.6l7.2-7.2M391.5 241.5l7.2-7.2M391.5 237.4l7.2-7.2M391.5 233.6l7.2-7.2M391.5 229.5l7.2-7.2M391.5 225.4l7.2-7.2M391.5 221.6l7.2-7.2M391.5 217.5l7.2-7.2M391.5 213.4l7.2-7.2M391.5 209.6l7.2-7.2M391.5 205.5l7.2-7.2M391.5 201.4l7.2-7.2M391.5 197.4l7.2-7.2M391.5 193.5l7.2-7.2M391.5 189.4l7.2-7.2M391.5 185.4l7.2-7.2M391.5 181.5l7.2-7.2M391.5 177.4l7.2-7.2M391.5 173.4l7.2-7.2M391.5 169.5l7.2-7.2M391.5 165.4l7.2-7.2M391.5 161.4l7.2-7.2M391.5 157.3l7.2-7.2M391.5 153.4l7.2-7.2M391.5 149.4l7.2-7.2M391.5 145.3l7.2-7.2M391.5 141.4l7.2-7.2M391.5 137.4l7.2-7.2M391.5 133.3l7.2-7.2M391.5 129.2l7.2-7.2M391.5 125.4l7.2-7.2M391.5 121.3l7.2-7.2M391.5 117.2l7.2-7.2M391.5 113.4l7.2-7.2M391.5 109.3l7.2-7.2M391.5 105.2l7.2-7.2M391.5 101.4l7.2-7.2M391.5 97.3l7.2-7.2M391.5 93.2l7.2-7.2M391.5 89.1l7.2-7.2M391.5 85.3l7.2-7.2M391.5 81.2l7.2-7.2M391.5 77.1l7.2-7.2M391.5 73.3l6.7-7M391.5 69.2l2.7-2.9"/><path class="cls-14" d="M398.5 387.2V66.3M391.3 387.2V66.3M398.5 66.3h-7.2M391.3 387.2V66.3M398.5 387.2V66.3M398.5 387.2h-7.2"/><path class="cls-17" d="M188.2 169.5h9.6v-32.6l-9.6-7.2v39.8"/><path class="cls-12" d="M198.1 140.7l-9.6-9.6M198.1 144.8l-9.6-9.6M198.1 148.6l-9.6-9.6M198.1 152.7l-9.6-9.6M198.1 156.8l-9.6-9.6M198.1 160.6l-9.6-9.6M198.1 164.7l-9.6-9.6M198.1 168.8l-9.6-9.6M194.7 169.5l-6.2-6.5M190.6 169.5l-2.1-2.4M195 169.5l3.1-3.1M190.9 169.5l7.2-7.2M188.5 168.1l9.6-9.6M188.5 164l9.6-9.6M188.5 159.9l9.6-9.6M188.5 156.1l9.6-9.6M188.5 152l9.6-9.6M188.5 147.9l9.6-9.6M188.5 143.8l7.9-8.1M188.5 140l5.7-6M188.5 135.9l3.3-3.6M188.5 131.8l1.2-1.2"/><path class="cls-17" d="M188.2 169.5h9.6v-32.6l-9.6-7.2v39.8"/><path class="cls-12" d="M198.1 140.7l-9.6-9.6M198.1 144.8l-9.6-9.6M198.1 148.6l-9.6-9.6M198.1 152.7l-9.6-9.6M198.1 156.8l-9.6-9.6M198.1 160.6l-9.6-9.6M198.1 164.7l-9.6-9.6M198.1 168.8l-9.6-9.6M194.7 169.5l-6.2-6.5M190.6 169.5l-2.1-2.4M195 169.5l3.1-3.1M190.9 169.5l7.2-7.2M188.5 168.1l9.6-9.6M188.5 164l9.6-9.6M188.5 159.9l9.6-9.6M188.5 156.1l9.6-9.6M188.5 152l9.6-9.6M188.5 147.9l9.6-9.6M188.5 143.8l7.9-8.1M188.5 140l5.7-6M188.5 135.9l3.3-3.6M188.5 131.8l1.2-1.2"/><path class="cls-14" d="M188.2 129.7v39.8M197.8 136.9v32.6M197.8 136.9v32.6M188.2 129.7v39.8"/><path class="cls-17" d="M58.6 285.2l-5.5-9.8H7.8l-7.2 9.8h58"/><path class="cls-12" d="M54.8 278.2l-2.9-2.8M57.9 285.2l-9.8-9.8M53.8 285.2l-9.8-9.8M49.8 285.2l-9.9-9.8M45.9 285.2l-9.8-9.8M41.8 285.2l-9.8-9.8M37.8 285.2l-9.9-9.8M33.9 285.2l-9.8-9.8M29.8 285.2l-9.8-9.8M25.8 285.2l-9.9-9.8M21.7 285.2l-9.9-9.8M17.8 285.2L8 275.4M13.8 285.2l-7.5-7.4M9.7 285.2l-5.3-5.3M5.8 285.2l-3.1-2.9M1.8 285.2l-.8-.7M55 285.2l2.4-2.4M51.2 285.2l4.8-4.8M47.1 285.2l7.5-7.4M43 285.2l9.9-9.8M39.2 285.2l9.8-9.8M35.1 285.2l9.9-9.8M31 285.2l9.9-9.8M27 285.2l9.8-9.8M23.1 285.2l9.9-9.8M19 285.2l9.9-9.8M15 285.2l9.8-9.8M11.1 285.2l9.9-9.8M7 285.2l9.9-9.8M3 285.2l9.8-9.8M5.4 279l3.3-3.6"/><path class="cls-17" d="M58.6 285.2l-5.5-9.8H7.8l-7.2 9.8h58"/><path class="cls-12" d="M54.8 278.2l-2.9-2.8M57.9 285.2l-9.8-9.8M53.8 285.2l-9.8-9.8M49.8 285.2l-9.9-9.8M45.9 285.2l-9.8-9.8M41.8 285.2l-9.8-9.8M37.8 285.2l-9.9-9.8M33.9 285.2l-9.8-9.8M29.8 285.2l-9.8-9.8M25.8 285.2l-9.9-9.8M21.7 285.2l-9.9-9.8M17.8 285.2L8 275.4M13.8 285.2l-7.5-7.4M9.7 285.2l-5.3-5.3M5.8 285.2l-3.1-2.9M1.8 285.2l-.8-.7M55 285.2l2.4-2.4M51.2 285.2l4.8-4.8M47.1 285.2l7.5-7.4M43 285.2l9.9-9.8M39.2 285.2l9.8-9.8M35.1 285.2l9.9-9.8M31 285.2l9.9-9.8M27 285.2l9.8-9.8M23.1 285.2l9.9-9.8M19 285.2l9.9-9.8M15 285.2l9.8-9.8M11.1 285.2l9.9-9.8M7 285.2l9.9-9.8M3 285.2l9.8-9.8M5.4 279l3.3-3.6"/><path class="cls-14" d="M.6 285.2h58M7.8 275.4h45.3M7.8 275.4h45.3M.6 285.2h58"/><path class="cls-13" d="M220.2 111.9h77v17.5h-77zM296.7 114.3v-2.4M288.1 114.3v-2.4M271.3 114.3v-2.4M254.2 114.3v-2.4M219.7 111.9h.5v17.5h-.5zM202.6 111.9h17v.5h-17zM202.6 112.4h.5v15.4h-.5zM219 112.4h.7v15.4h-.7z"/><path class="cls-13" d="M202.6 127.8h17v.7h-17z"/><path class="cls-17" d="M238.1 124.3v-8.9c0-.3 0-.5.2-.8.1-.2.2-.5.4-.6.2-.2.4-.3.6-.4.2 0 .5-.2.8-.2h11.2c.3 0 .5 0 .8.2.2 0 .5.2.6.4.2.2.3.4.4.6.1.2.2.5.2.8v8.9c0 .3 0 .5-.2.8 0 .2-.2.5-.4.6-.2.2-.4.3-.6.4-.2 0-.5.2-.8.2h-11.2c-.3 0-.5 0-.8-.2-.2 0-.5-.2-.6-.4-.2-.2-.3-.4-.4-.6 0-.2-.2-.5-.2-.8"/><path class="cls-13" d="M238.1 124.3v-8.9c0-.3 0-.5.2-.8.1-.2.2-.5.4-.6.2-.2.4-.3.6-.4.2 0 .5-.2.8-.2h11.2c.3 0 .5 0 .8.2.2 0 .5.2.6.4.2.2.3.4.4.6.1.2.2.5.2.8v8.9c0 .3 0 .5-.2.8 0 .2-.2.5-.4.6-.2.2-.4.3-.6.4-.2 0-.5.2-.8.2h-11.2c-.3 0-.5 0-.8-.2-.2 0-.5-.2-.6-.4-.2-.2-.3-.4-.4-.6 0-.2-.2-.5-.2-.8"/><path class="cls-17" d="M246.8 123c0-.7-.5-1.2-1.2-1.2s-1.2.5-1.2 1.2.5 1.2 1.2 1.2 1.2-.5 1.2-1.2"/><path class="cls-13" d="M246.8 123c0-.7-.5-1.2-1.2-1.2s-1.2.5-1.2 1.2.5 1.2 1.2 1.2 1.2-.5 1.2-1.2"/><path class="cls-16" d="M271.8 113.4h15.8V128h-15.8z"/><path class="cls-13" d="M271.8 113.4h15.8V128h-15.8z"/><path class="cls-17" d="M286.6 118.2c0-1.6-1.3-2.9-2.9-2.9s-2.9 1.3-2.9 2.9 1.3 2.9 2.9 2.9 2.9-1.3 2.9-2.9"/><path class="cls-13" d="M286.6 118.2c0-1.6-1.3-2.9-2.9-2.9s-2.9 1.3-2.9 2.9 1.3 2.9 2.9 2.9 2.9-1.3 2.9-2.9"/><path class="cls-17" d="M286.9 124.9c0-1.2-1-2.2-2.2-2.2s-2.2 1-2.2 2.2 1 2.2 2.2 2.2 2.2-1 2.2-2.2"/><path class="cls-13" d="M286.9 124.9c0-1.2-1-2.2-2.2-2.2s-2.2 1-2.2 2.2 1 2.2 2.2 2.2 2.2-1 2.2-2.2"/><path class="cls-17" d="M278.2 118c0-1.3-1-2.3-2.2-2.3s-2.2 1-2.2 2.3 1 2.3 2.2 2.3 2.2-1 2.2-2.3"/><path class="cls-13" d="M278.2 118c0-1.3-1-2.3-2.2-2.3s-2.2 1-2.2 2.3 1 2.3 2.2 2.3 2.2-1 2.2-2.3"/><path class="cls-17" d="M279.2 124.5c0-1.5-1.3-2.8-2.9-2.8s-2.9 1.2-2.9 2.8 1.3 2.8 2.9 2.8 2.9-1.2 2.9-2.8"/><path class="cls-13" d="M279.2 124.5c0-1.5-1.3-2.8-2.9-2.8s-2.9 1.2-2.9 2.8 1.3 2.8 2.9 2.8 2.9-1.2 2.9-2.8M194 111.9h8.6v.5H194zM194 112.4h.7v15.4h-.7zM201.9 112.4h.7v15.4h-.7z"/><path class="cls-13" d="M194 127.8h8.6v.7H194zM192.6 119.4h1v.5h-1z"/><path class="cls-14" d="M297.2 119.4h1v.5h-1z"/><path class="cls-1" d="M297.2 119.4H192.6"/><path class="cls-13" d="M193.5 111.9h.5v16.6h-.5zM237.2 114.3v-2.4"/><path class="cls-17" d="M391.3 251.6v-4.1H368v4.1h23.3"/><path class="cls-12" d="M368.2 250.2l2.7-2.7M371.1 251.6l4.1-4.1M375.2 251.6l4.1-4.1M379.5 251.6l4.1-4.1M383.8 251.6l4.1-4.1M387.9 251.6l3.6-3.4"/><path class="cls-17" d="M391.3 251.6v-4.1H368v4.1h23.3"/><path class="cls-12" d="M368.2 250.2l2.7-2.7M371.1 251.6l4.1-4.1M375.2 251.6l4.1-4.1M379.5 251.6l4.1-4.1M383.8 251.6l4.1-4.1M387.9 251.6l3.6-3.4"/><path class="cls-14" d="M368 251.6h23.3M368 247.5h23.3M368 247.5h23.3M368 251.6h23.3"/><path class="cls-17" d="M325.8 247.5h-23.1v4.1h23.1v-4.1"/><path class="cls-12" d="M303 251.6l4-4.1M307.3 251.6l4.1-4.1M311.6 251.6l4.1-4.1M315.7 251.6l4.1-4.1M320 251.6l4.1-4.1M324.3 251.6l1.7-1.7"/><path class="cls-17" d="M325.8 247.5h-23.1v4.1h23.1v-4.1"/><path class="cls-12" d="M303 251.6l4-4.1M307.3 251.6l4.1-4.1M311.6 251.6l4.1-4.1M315.7 251.6l4.1-4.1M320 251.6l4.1-4.1M324.3 251.6l1.7-1.7"/><path class="cls-14" d="M302.7 251.6h23.1M302.7 247.5h23.1M302.7 247.5h23.1M302.7 251.6h23.1M302.7 251.6v-4.1M391.3 247.5v4.1"/><path class="cls-1" d="M325.8 251.6H368"/><path class="cls-13" d="M367.5 251.6h.5"/><path class="cls-1" d="M325.8 247.5H368"/><path class="cls-13" d="M367.5 247.5h.5M327.2 251.6v-4.1M366.8 251.6v-4.1"/><path class="cls-14" d="M325.8 251.6v-4.1M368 251.6v-4.1"/><path class="cls-12" d="M327.1 271.5c10.9 0 19.8-9 19.8-19.8M347 251.7c0 10.9 9 19.8 19.8 19.8M327.2 251.6v19.9M366.8 251.6v19.9"/><path class="cls-17" d="M148.9 165.2v4.3h3.6v-4.3h-3.6"/><path class="cls-12" d="M149.1 167.6l2.4-2.4M151.3 169.5l1.4-1.2"/><path class="cls-17" d="M148.9 165.2v4.3h3.6v-4.3h-3.6"/><path class="cls-12" d="M149.1 167.6l2.4-2.4M151.3 169.5l1.4-1.2"/><path class="cls-14" d="M152.5 169.5v-4.3M148.9 169.5v-4.3M152.5 165.2h-3.6M148.9 169.5v-4.3M152.5 169.5v-4.3M148.9 169.5h3.6"/><path class="cls-17" d="M152.5 119.8l-3.6 3.4v4.8h3.6v-8.2"/><path class="cls-12" d="M149.1 125.1l3.6-3.6M150.3 128l2.4-2.2"/><path class="cls-17" d="M152.5 119.8l-3.6 3.4v4.8h3.6v-8.2"/><path class="cls-12" d="M149.1 125.1l3.6-3.6M150.3 128l2.4-2.2"/><path class="cls-14" d="M152.5 128v-8.2M148.9 128v-4.8M148.9 128v-4.8M152.5 128v-8.2M152.5 128h-3.6"/><path class="cls-17" d="M135.2 119.8v3.4h13.7l3.6-3.4h-17.3"/><path class="cls-12" d="M135.4 121.8l2-2M138.1 123.2l3.3-3.4M142.4 123.2l3.4-3.4M146.7 123.2l3.4-3.4"/><path class="cls-17" d="M135.2 119.8v3.4h13.7l3.6-3.4h-17.3"/><path class="cls-12" d="M135.4 121.8l2-2M138.1 123.2l3.3-3.4M142.4 123.2l3.4-3.4M146.7 123.2l3.4-3.4"/><path class="cls-14" d="M152.5 119.8h-17.3M148.9 123.2h-13.7M148.9 123.2h-13.7M152.5 119.8h-17.3"/><path class="cls-16" d="M138.6 163h9.8v2.4h-9.8z"/><path class="cls-13" d="M138.6 163h9.8v2.4h-9.8z"/><path class="cls-16" d="M138.3 162.8h10.3v.2h-10.3z"/><path class="cls-13" d="M138.3 162.8h10.3v.2h-10.3z"/><path class="cls-10" d="M139.3 162.8v-8.4"/><path class="cls-4" d="M139.3 154.4h1.7l1.4.5 1.4.9 1.5 1 .9 1.2.8 1.7.4 1.4.3 1.7"/><path class="cls-17" d="M.6 220.6l5.5-7.9H.6v7.9"/><path class="cls-12" d="M5.8 213.2l-.4-.5M4.2 215.6l-2.7-2.9M2.5 218l-1.7-1.9M1 220.2l-.2-.3M.8 219.4l2.9-2.8M.8 215.4l2.6-2.7"/><path class="cls-17" d="M.6 220.6l5.5-7.9H.6v7.9"/><path class="cls-12" d="M5.8 213.2l-.4-.5M4.2 215.6l-2.7-2.9M2.5 218l-1.7-1.9M1 220.2l-.2-.3M.8 219.4l2.9-2.8M.8 215.4l2.6-2.7"/><path class="cls-14" d="M.6 212.7v7.9M.6 212.7v7.9"/><path class="cls-17" d="M.6 66.3h7.2V177H.6V66.3"/><path class="cls-12" d="M8 66.8l-.7-.5M8 70.9l-4.6-4.6M8 75L.8 67.8M8 78.8L.8 71.6M8 82.9L.8 75.7M8 87L.8 79.8M8 90.8L.8 83.6M8 94.9L.8 87.7M8 99L.8 91.8M8 103L.8 95.8M8 106.9L.8 99.7M8 111l-7.2-7.2M8 115l-7.2-7.2M8 118.9l-7.2-7.2M8 123l-7.2-7.2M8 127l-7.2-7.2M8 130.9l-7.2-7.2M8 135l-7.2-7.2M8 139l-7.2-7.2M8 143.1l-7.2-7.2M8 147l-7.2-7.2M8 151l-7.2-7.2M8 155.1l-7.2-7.2M8 159l-7.2-7.2M8 163l-7.2-7.2M8 167.1l-7.2-7.2M8 171.2L.8 164M8 175l-7.2-7.2M5.8 177l-5-5.1M1.8 177l-1-1M7 177l1-1M3 177l5-4.8M.8 175.3l7.2-7.2M.8 171.2L8 164M.8 167.4l7.2-7.2M.8 163.3l7.2-7.2M.8 159.2L8 152M.8 155.1l7.2-7.2M.8 151.3l7.2-7.2M.8 147.2L8 140M.8 143.1l7.2-7.2M.8 139.3l7.2-7.2M.8 135.2L8 128M.8 131.1l7.2-7.2M.8 127.3l7.2-7.2M.8 123.2L8 116M.8 119.1l7.2-7.2M.8 115l7.2-7.2M.8 111.2L8 104M.8 107.1L8 99.9M.8 103L8 95.8M.8 99.2L8 92M.8 95.1L8 87.9M.8 91L8 83.8M.8 87.2L8 80M.8 83.1L8 75.9M.8 79L8 71.8M.8 75L8 67.8M.8 71.1l4.6-4.8M.8 67l.5-.7"/><path class="cls-17" d="M7.8 66.3H.6V177h7.2V66.3"/><path class="cls-12" d="M8 66.8l-.7-.5M8 70.9l-4.6-4.6M8 75L.8 67.8M8 78.8L.8 71.6M8 82.9L.8 75.7M8 87L.8 79.8M8 90.8L.8 83.6M8 94.9L.8 87.7M8 99L.8 91.8M8 103L.8 95.8M8 106.9L.8 99.7M8 111l-7.2-7.2M8 115l-7.2-7.2M8 118.9l-7.2-7.2M8 123l-7.2-7.2M8 127l-7.2-7.2M8 130.9l-7.2-7.2M8 135l-7.2-7.2M8 139l-7.2-7.2M8 143.1l-7.2-7.2M8 147l-7.2-7.2M8 151l-7.2-7.2M8 155.1l-7.2-7.2M8 159l-7.2-7.2M8 163l-7.2-7.2M8 167.1l-7.2-7.2M8 171.2L.8 164M8 175l-7.2-7.2M5.8 177l-5-5.1M1.8 177l-1-1M7 177l1-1M3 177l5-4.8M.8 175.3l7.2-7.2M.8 171.2L8 164M.8 167.4l7.2-7.2M.8 163.3l7.2-7.2M.8 159.2L8 152M.8 155.1l7.2-7.2M.8 151.3l7.2-7.2M.8 147.2L8 140M.8 143.1l7.2-7.2M.8 139.3l7.2-7.2M.8 135.2L8 128M.8 131.1l7.2-7.2M.8 127.3l7.2-7.2M.8 123.2L8 116M.8 119.1l7.2-7.2M.8 115l7.2-7.2M.8 111.2L8 104M.8 107.1L8 99.9M.8 103L8 95.8M.8 99.2L8 92M.8 95.1L8 87.9M.8 91L8 83.8M.8 87.2L8 80M.8 83.1L8 75.9M.8 79L8 71.8M.8 75L8 67.8M.8 71.1l4.6-4.8M.8 67l.5-.7"/><path class="cls-14" d="M.6 66.3V177M7.8 176.7v.3M7.8 66.3v103.2M7.8 176.7v.3M.6 66.3V177M7.8 66.3v103.2M.6 66.3h7.2"/><path class="cls-13" d="M0 177h1.7v2.6H0zM0 206.7h1.7v6H0zM0 179.6h1.7v27.1H0zM1.8 179.6v27.1"/><path class="cls-1" d="M7.8 179.4V207"/><path class="cls-13" d="M7.8 206.5v.5"/><path class="cls-17" d="M7.8 177v2.4h-6V177"/><path class="cls-12" d="M8 179.1L5.8 177M4.2 179.4L2 177.2M4.6 179.4L7 177M2 178.2l1-1.2"/><path class="cls-17" d="M7.8 212.7V207h-6v5.7"/><path class="cls-12" d="M8 207.2l-.2-.2M8 211.3L3.7 207M5.4 212.7L2 209.1M7.3 212.7l.7-.5M3.4 212.7l4.6-4.5M2 210.1l3.1-3.1"/><path class="cls-14" d="M7.8 179.4h-6M7.8 207h-6M7.8 179.4h-6M7.8 177v2.4M7.8 207h-6M7.8 212.7V207M.6 177h1.2M.6 212.7h1.2M7.8 177v2.4M7.8 212.7V207M1.8 179.4V177M1.8 207v5.7"/><path class="cls-17" d="M.6 285.2l7.2-9.8v-54.8H.6v64.6"/><path class="cls-12" d="M8 223.3l-2.6-2.7M8 227.1l-6.7-6.5M8 231.2L.8 224M8 235.3l-7.2-7.2M8 239.1l-7.2-7.2M8 243.2L.8 236M8 247.3l-7.2-7.2M8 251.4l-7.2-7.2M8 255.2L.8 248M8 259.3l-7.2-7.2M8 263.4l-7.2-7.2M8 267.2L.8 260M8 271.3l-7.2-7.2M8 275.4l-7.2-7.2M6.3 277.8L.8 272M4.4 279.9l-3.6-3.8M2.7 282.3l-1.9-2.1M1 284.5l-.2-.3M.8 283.5l4.6-4.5M.8 279.4l7.2-7.2M.8 275.6l7.2-7.2M.8 271.5l7.2-7.2M.8 267.4l7.2-7.2M.8 263.4l7.2-7.2M.8 259.5l7.2-7.2M.8 255.4l7.2-7.2M.8 251.4l7.2-7.2M.8 247.5l7.2-7.2M.8 243.4l7.2-7.2M.8 239.4l7.2-7.2M.8 235.5l7.2-7.2M.8 231.4l7.2-7.2M.8 227.4l6.7-6.8M.8 223.3l2.6-2.7"/><path class="cls-17" d="M.6 285.2l7.2-9.8v-54.8H.6v64.6"/><path class="cls-12" d="M8 223.3l-2.6-2.7M8 227.1l-6.7-6.5M8 231.2L.8 224M8 235.3l-7.2-7.2M8 239.1l-7.2-7.2M8 243.2L.8 236M8 247.3l-7.2-7.2M8 251.4l-7.2-7.2M8 255.2L.8 248M8 259.3l-7.2-7.2M8 263.4l-7.2-7.2M8 267.2L.8 260M8 271.3l-7.2-7.2M8 275.4l-7.2-7.2M6.3 277.8L.8 272M4.4 279.9l-3.6-3.8M2.7 282.3l-1.9-2.1M1 284.5l-.2-.3M.8 283.5l4.6-4.5M.8 279.4l7.2-7.2M.8 275.6l7.2-7.2M.8 271.5l7.2-7.2M.8 267.4l7.2-7.2M.8 263.4l7.2-7.2M.8 259.5l7.2-7.2M.8 255.4l7.2-7.2M.8 251.4l7.2-7.2M.8 247.5l7.2-7.2M.8 243.4l7.2-7.2M.8 239.4l7.2-7.2M.8 235.5l7.2-7.2M.8 231.4l7.2-7.2M.8 227.4l6.7-6.8M.8 223.3l2.6-2.7"/><path class="cls-14" d="M.6 220.6v64.6M7.8 220.6v54.8M7.8 220.6v54.8M.6 220.6v64.6"/><path class="cls-17" d="M53.1 220.6l5.5-10H43.3v10h9.8"/><path class="cls-12" d="M57.7 212.7l-2.4-2.1M56.2 215.4l-4.8-4.8M54.8 218l-7.4-7.4M53.4 220.4l-9.9-9.8M49.5 220.6l-6-6M45.4 220.6l-1.9-1.9M51.4 220.6l3.9-3.8M47.6 220.6l10.1-10M43.5 220.6l10.1-10M43.5 216.8l6-6.2M43.5 212.7l2.2-2.1"/><path class="cls-17" d="M53.1 220.6l5.5-10H43.3v10h9.8"/><path class="cls-12" d="M57.7 212.7l-2.4-2.1M56.2 215.4l-4.8-4.8M54.8 218l-7.4-7.4M53.4 220.4l-9.9-9.8M49.5 220.6l-6-6M45.4 220.6l-1.9-1.9M51.4 220.6l3.9-3.8M47.6 220.6l10.1-10M43.5 220.6l10.1-10M43.5 216.8l6-6.2M43.5 212.7l2.2-2.1"/><path class="cls-14" d="M43.3 220.6h9.8M43.3 210.6h15.3M43.3 210.6h15.3M43.3 220.6h9.8"/><path class="cls-17" d="M7.8 220.6v-10l-7.2 10h7.2"/><path class="cls-12" d="M8 211.3l-.5-.5M8 215.1l-2.2-1.9M8 219.2l-3.6-3.6M5.4 220.6L2.7 218M1.3 220.6l-.3-.4M7.5 220.6l.5-.4M3.4 220.6l4.6-4.5M3.9 216.3l4.1-4.1"/><path class="cls-17" d="M7.8 220.6v-10l-7.2 10h7.2"/><path class="cls-12" d="M8 211.3l-.5-.5M8 215.1l-2.2-1.9M8 219.2l-3.6-3.6M5.4 220.6L2.7 218M1.3 220.6l-.3-.4M7.5 220.6l.5-.4M3.4 220.6l4.6-4.5M3.9 216.3l4.1-4.1"/><path class="cls-13" d="M10.9 219.2h29.3"/><path class="cls-1" d="M10.9 210.6h29.3"/><path class="cls-13" d="M39.7 210.6h.5"/><path class="cls-17" d="M7.8 210.6h3.1v8.6H7.8"/><path class="cls-12" d="M11.1 214.4L8 211.3M11.1 218.2L8 215.1M9 219.2l2.1-2.2M8 216.1l3.1-3.1M8 212.2l1.4-1.6"/><path class="cls-17" d="M43.3 210.6h-3.1v8.6h3.1"/><path class="cls-12" d="M43.5 210.6h-.2M43.5 214.6l-3.1-3.1M43.5 218.7l-3.1-3.1M40.9 219.2l2.6-2.4M40.4 215.8l3.1-3.1M40.4 211.8l1.2-1.2"/><path class="cls-14" d="M10.9 210.6v8.6M40.2 210.6v8.6M10.9 210.6v8.6M7.8 210.6h3.1M40.2 210.6v8.6M43.3 210.6h-3.1M7.8 220.6v-1.4M43.3 220.6v-1.4M7.8 210.6h3.1M43.3 210.6h-3.1M10.9 219.2H7.8M40.2 219.2h3.1"/><path class="cls-17" d="M188.2 129.7l9.6 7.2h14l7.2-7.2h-30.8"/><path class="cls-12" d="M217 131.6l-1.9-1.9M215.1 133.8l-4.1-4.1M213 135.7l-6-6M210.1 136.9l-7.2-7.2M206.2 136.9l-7.2-7.2M202.2 136.9l-7.2-7.2M198.1 136.9l-7.2-7.2M211.5 136.9l7.2-7.2M207.4 136.9l7.2-7.2M203.4 136.9l7.2-7.2M199.5 136.9l7.2-7.2M196.4 135.7l6.2-6M194.2 134l4.4-4.3M191.8 132.3l2.9-2.6M189.7 130.6l.9-.9"/><path class="cls-17" d="M188.2 129.7l9.6 7.2h14l7.2-7.2h-30.8"/><path class="cls-12" d="M217 131.6l-1.9-1.9M215.1 133.8l-4.1-4.1M213 135.7l-6-6M210.1 136.9l-7.2-7.2M206.2 136.9l-7.2-7.2M202.2 136.9l-7.2-7.2M198.1 136.9l-7.2-7.2M211.5 136.9l7.2-7.2M207.4 136.9l7.2-7.2M203.4 136.9l7.2-7.2M199.5 136.9l7.2-7.2M196.4 135.7l6.2-6M194.2 134l4.4-4.3M191.8 132.3l2.9-2.6M189.7 130.6l.9-.9"/><path class="cls-14" d="M219 129.7h-30.8M211.8 136.9h-14M211.8 136.9h-14M219 129.7h-30.8"/><path class="cls-17" d="M211.8 142.2l7.2-7.2v-5.3l-7.2 7.2v5.3"/><path class="cls-12" d="M219.2 129.7h-.2M219.2 133.8l-2.2-2.2M217.8 136.4l-2.7-2.6M215.6 138.3l-2.6-2.6M213.7 140.5l-1.7-1.9M212 140.5l7.2-7.2"/><path class="cls-17" d="M211.8 142.2l7.2-7.2v-5.3l-7.2 7.2v5.3"/><path class="cls-12" d="M219.2 129.7h-.2M219.2 133.8l-2.2-2.2M217.8 136.4l-2.7-2.6M215.6 138.3l-2.6-2.6M213.7 140.5l-1.7-1.9M212 140.5l7.2-7.2"/><path class="cls-14" d="M211.8 136.9v5.3M219 134.7v.3M219 134.7v.3M211.8 136.9v5.3M219 129.7v5"/><path class="cls-17" d="M219 135l-7.2 7.2h22.8l6.9-7.2H219"/><path class="cls-12" d="M241 135.7l-.7-.7M239.1 137.6l-2.9-2.6M237 139.8l-4.6-4.8M235 141.7l-6.7-6.7M231.4 142.2l-7.2-7.2M227.6 142.2l-7.2-7.2M223.5 142.2l-5.7-5.8M219.4 142.2l-3.8-3.9M215.4 142.2l-1.7-1.7M234.3 142.2l7.2-7.2M230.2 142.2l7.2-7.2M226.2 142.2l7.2-7.2M222.3 142.2l7.2-7.2M218.2 142.2l7.2-7.2M214.2 142.2l7.2-7.2"/><path class="cls-17" d="M219 135l-7.2 7.2h22.8l6.9-7.2H219"/><path class="cls-12" d="M241 135.7l-.7-.7M239.1 137.6l-2.9-2.6M237 139.8l-4.6-4.8M235 141.7l-6.7-6.7M231.4 142.2l-7.2-7.2M227.6 142.2l-7.2-7.2M223.5 142.2l-5.7-5.8M219.4 142.2l-3.8-3.9M215.4 142.2l-1.7-1.7M234.3 142.2l7.2-7.2M230.2 142.2l7.2-7.2M226.2 142.2l7.2-7.2M222.3 142.2l7.2-7.2M218.2 142.2l7.2-7.2M214.2 142.2l7.2-7.2"/><path class="cls-14" d="M241.5 135H219M234.6 142.2h-22.8M234.6 142.2h-22.8M241.5 135H219"/><path class="cls-13" d="M386 56.7l-3.4-54.9h-73.9l-3.3 54.9"/><path class="cls-13" d="M387.9 56.7L384.3 0H307l-3.3 56.7"/><path class="cls-12" d="M73 66.3v1.9c0 .6-.2 1.2-.3 1.8-.1.6-.3 1.2-.5 1.8l-.6 1.8c-.2.6-.5 1.1-.8 1.7-.3.5-.6 1.1-1 1.6-.3.5-.7 1-1.1 1.5-.4.5-.8.9-1.3 1.4-.4.4-.9.9-1.4 1.3-.5.4-1 .8-1.5 1.1-.5.3-1 .7-1.6 1-.5.3-1.1.6-1.7.8l-1.8.6c-.6.2-1.2.3-1.8.5l-1.8.3h-1.9M54.1 85.3v-19M73 66.3v1.5M73.3 69.2v.7M73.3 69.9l.2.7"/><path class="cls-8" d="M73.8 71.8l.7 1.7"/><path class="cls-12" d="M75 74.7l.2.5M75.2 75.2l.5.7"/><path class="cls-9" d="M76.2 76.9l1.2 1.4"/><path class="cls-12" d="M78.3 79.5l.3.3M78.6 79.8l.9.7M80.5 81.4l.9.8"/><path class="cls-15" d="M81.4 82.2l1.7.9"/><path class="cls-12" d="M83.1 83.1l1 .5M85.5 84.1l1 .5"/><path class="cls-7" d="M86.5 84.6l1.9.4"/><path class="cls-12" d="M88.4 85l1.2.3M91 85.3h1"/><path class="cls-4" d="M92 85.3v-19"/><path class="cls-12" d="M92 66.8v-.5M249.9 66.3v1.9c0 .6.2 1.2.3 1.8.1.6.3 1.2.5 1.8l.6 1.8c.2.6.5 1.1.8 1.7.3.5.6 1.1 1 1.6.3.5.7 1 1.1 1.5.4.5.8.9 1.3 1.4.4.4.9.9 1.4 1.3.5.4 1 .8 1.5 1.1.5.3 1 .7 1.6 1 .5.3 1.1.6 1.7.8l1.8.6c.6.2 1.2.3 1.8.5l1.8.3h1.9M268.9 85.3v-19M249.9 66.3v1.5M249.7 69.2l-.3.7M249.4 69.9l-.2.7"/><path class="cls-8" d="M249 71.8l-.5 1.7"/><path class="cls-12" d="M248 75l-.2.2M247.8 75.2l-.5 1M246.3 77.4l-.7.9"/><path class="cls-15" d="M245.6 78.3l-1.2 1.5"/><path class="cls-12" d="M244.4 79.8l-1 .7M242.5 81.4l-1 .8"/><path class="cls-15" d="M241.5 82.2l-1.7.9"/><path class="cls-12" d="M239.8 83.1l-.9.5M237.4 84.1l-.9.5"/><path class="cls-7" d="M236.5 84.6l-1.9.4"/><path class="cls-12" d="M234.6 85l-1.2.3M231.9 85.3h-.9"/><path class="cls-4" d="M231 85.3v-19"/><path class="cls-12" d="M231 66.8v-.5M315.7 86.4c11 0 20.1-9.1 20.1-20.1M315.7 86.5V66.3"/><path class="cls-4" d="M356 86.5l-4.1-.5-3.6-1.2-3.6-1.7-3.1-2.6-2.4-2.9-1.9-3.6-1.2-3.8-.3-3.9"/><path class="cls-10" d="M356 86.5V66.3"/><path class="cls-12" d="M349.4 387.2v-1.9c0-.6.2-1.2.3-1.8.1-.6.3-1.2.5-1.8l.6-1.8c.2-.6.5-1.1.8-1.7.3-.5.6-1.1 1-1.6.3-.5.7-1 1.1-1.5.4-.5.8-.9 1.3-1.4.4-.4.9-.9 1.4-1.3.5-.4 1-.8 1.5-1.1.5-.3 1.1-.7 1.6-1 .5-.3 1.1-.6 1.7-.8l1.8-.6c.6-.2 1.2-.3 1.8-.5l1.8-.3h1.9M368.5 368.2v19M349.3 387.2v-1.4M349 384.3v-.7M349 383.6l-.2-.7"/><path class="cls-8" d="M348.6 381.7l-.8-1.7"/><path class="cls-12" d="M347.4 378.8l-.3-.5M347.1 378.3l-.5-.7"/><path class="cls-9" d="M346.2 376.6l-1.2-1.4"/><path class="cls-12" d="M344 374l-.2-.2M343.8 373.8l-.8-.8M341.8 372.1l-.9-.7"/><path class="cls-15" d="M340.9 371.4l-1.5-1"/><path class="cls-12" d="M339.4 370.4l-1.4-.5M336.8 369.2l-1-.2M335.8 369l-.4-.3"/><path class="cls-8" d="M334.2 368.5l-2-.3"/><path class="cls-12" d="M331 368.2h-.7"/><path class="cls-4" d="M330.3 368.2v19"/><path class="cls-12" d="M330.3 386.7v.5M161.5 66.3v1.9c0 .6.2 1.2.3 1.8.1.6.3 1.2.5 1.8l.6 1.8c.2.6.5 1.1.8 1.7.3.5.6 1.1 1 1.6.3.5.7 1 1.1 1.5.4.5.8.9 1.3 1.4.4.4.9.9 1.4 1.3.5.4 1 .8 1.5 1.1.5.3 1.1.7 1.6 1 .5.3 1.1.6 1.7.8l1.8.6c.6.2 1.2.3 1.8.5l1.8.3h1.9M180.6 85.3v-19M161.4 66.3v1.5M161.1 69.2v.7M161.1 69.9l-.2.7"/><path class="cls-8" d="M160.6 71.8l-.7 1.7"/><path class="cls-12" d="M159.4 74.7l-.2.5M159.2 75.2l-.5.7"/><path class="cls-9" d="M158.2 76.9l-1.2 1.4"/><path class="cls-12" d="M156.1 79.5l-.3.3M155.8 79.8l-.9.7M153.9 81.4l-.9.8"/><path class="cls-15" d="M153 82.2l-1.5.9"/><path class="cls-12" d="M151.5 83.1l-1.4.5M148.9 84.3l-1 .3M147.9 84.6l-.5.2"/><path class="cls-8" d="M146.2 85l-1.9.3"/><path class="cls-12" d="M143.1 85.3h-.7"/><path class="cls-4" d="M142.4 85.3v-19"/><path class="cls-12" d="M142.4 66.8v-.5"/><path class="cls-13" d="M177 147.9v1M177 148.9l-.3.7M176.7 149.6v1M176.7 150.6l-.2.2M176 152l-.2.2M175 153.4l-.4.5M174.6 153.9l-.8.7M173.8 154.6l-.7.5M173.1 155.1l-.2.3M171.4 155.8l-.2.3M170 156.3l-.7.3M169.3 156.6h-.7M168.6 156.6h-1M167.6 156.6l-.5-.3M165.7 156.1l-.3-.3M164.2 155.4l-.4-.3M163.8 155.1l-.8-.5M163 154.6l-.4-.7M162.6 153.9l-.5-.5M161.1 152.5v-.3M160.4 150.8v-.2M160.4 150.6l-.2-1M160.2 149.6l-.3-.7M159.9 148.9v-.7M160.2 146.7v-.2M160.4 145l.2-.2M160.6 144.8l.3-.7M160.9 144.1l.5-.7M161.4 143.4l.4-.8M162.8 141.7l.2-.3M164.2 140.5h.3M164.5 140.5l.7-.3M165.2 140.2l.7-.4M165.9 139.8h1M166.9 139.8v-.3M168.3 139.5h.3M170 139.8h.2M170.2 139.8h.8M171 139.8l.7.4M171.7 140.2l.7.3M172.4 140.5l.2.2M173.8 141.4l.3.3M175 142.6l.5.8M175.5 143.4l.5.7M176 144.1l.2.7M176.2 144.8l.3.2M176.7 146.5l.3.2"/><path class="cls-17" d="M265.8 148.9h29.7v24.9h-29.7v-24.9"/></g><g id="Mbel"><path class="cls-2" d="M46.4 111.4h45.4V168H46.4zM114.6 111.4h15.6V168h-15.6zM345.9 91.3h22.8v50.9h-22.8zM378.6 140.9v-12.8M370.1 140.9h8.5M378.6 128.1h-8.5M378.6 123.1v-12.7M370.1 123.1h8.5M378.6 110.4h-8.5M378.6 105.4V92.7M370.1 105.4h8.5M378.6 92.7h-8.5M336.1 140.9v-12.8M344.6 140.9h-8.5M336.1 128.1h8.5M336.1 123.1v-12.7M344.6 123.1h-8.5M336.1 110.4h8.5M336.1 105.4V92.7M344.6 105.4h-8.5M336.1 92.7h8.5M379.3 177.9h10.6v56.6h-10.6zM339.9 317.6h14.2v28.3h-14.2zM309 305.1h19.2l.1.1.1.1V331c0 .1-.1.2-.2.3s-.2.1-.3.2h-19v-26.6M305.3 300.5h22.9l.1.1.1.1V304.5l-.1.1-.1.1h-.1-.2H305c-.1 0-.2-.1-.3-.2 0 0-.1-.2-.2-.3V301.1v-.3c0-.1.1-.2.2-.3 0 0 .2-.1.3-.2h.3M309 331.7h-4c-.1 0-.2.1-.3.2s-.1.2-.2.3v25.5c0 .1.1.2.2.3s.2.1.3.2h4M311.1 358.4v-53.3"/><path class="cls-2" d="M309 358.3h19.2l.1-.1.1-.1v-.1-.2V332.7v-.2-.2-.1l-.1-.1-.1-.1c-.1-.1 0 0-.1 0h-.2H309v26.6"/><path class="cls-2" d="M305.3 362.9h22.9l.1-.1.1-.1v-.1-.2-3-.3c0-.1-.1-.2-.2-.3 0 0-.2-.1-.3-.2h-23c-.1 0-.2.1-.3.2 0 0-.1.2-.2.3V362.5c0 .1.1.2.2.3s.2.1.3.2h.3M309 331.7h-4c-.1 0-.2-.1-.3-.2 0 0-.1-.2-.2-.3V306v-.3c0-.1.1-.2.2-.3 0 0 .2-.1.3-.2h4M379.5 303.4h10.8V360h-10.8zM324.2 199.8c-4-.6-7.9-1.5-11.7-2.7-.9-.3-1.6-1.1-1.7-2-.3-3.2.3-6.4 1.6-9.3.4-.9 1.3-1.4 2.3-1.3 4 .2 8 .7 11.9 1.5v2.2c-.4 3.3-1 6.5-1.7 9.7-.1.7-.4 1.3-.6 2h-.1"/><path class="cls-2" d="M323.1 200.1c-.3.2-.6.4-.9.5-1.5.5-3 .5-4.5.2-2-.4-4-1-5.9-1.8-1.4-.5-2.6-1.3-3.8-2.2-.7-.5-1.1-1.3-1.1-2.1-.2-3.4.4-6.8 1.7-9.9.3-.8 1-1.4 1.8-1.6 1.4-.4 2.9-.7 4.3-.7 2 0 4.1 0 6.1.3 1.5.2 2.9.8 4.2 1.7.3.2.5.5.7.8M324.2 218c-4 .6-7.9 1.5-11.7 2.7-.9.3-1.6 1.1-1.7 2-.3 3.2.3 6.4 1.6 9.3.4.9 1.3 1.4 2.3 1.3 4-.2 8-.7 11.9-1.5v-2.2c-.4-3.3-1-6.5-1.7-9.7-.1-.7-.4-1.3-.6-2h-.1"/><path class="cls-2" d="M323.1 217.7c-.3-.2-.6-.4-.9-.5-1.5-.5-3-.5-4.5-.2-2 .4-4 1-5.9 1.8-1.4.5-2.6 1.3-3.8 2.2-.7.5-1.1 1.3-1.1 2.1-.2 3.4.4 6.8 1.7 9.9.3.8 1 1.4 1.8 1.6 1.4.4 2.9.7 4.3.7 2 0 4.1 0 6.1-.3 1.5-.2 2.9-.8 4.2-1.7.3-.2.5-.5.7-.8"/></g><g id="Text"><path d="M208.4 94.2h-.7v-5.3h.7v2.5l2.1-2.5h.8l-2.2 2.6 2.2 2.7h-.9l-2-2.5v2.5zM215.4 92.4c0 1.1-.8 1.9-1.9 1.9s-1.9-.8-1.9-1.9.8-1.9 1.9-1.9 1.9.8 1.9 1.9zm-3.1 0c0 .8.5 1.4 1.3 1.4s1.2-.6 1.2-1.4-.5-1.4-1.2-1.4-1.3.6-1.3 1.4zM219.4 93.7c-.4.4-.8.5-1.4.5-1.1 0-1.8-.8-1.8-1.9s.8-1.9 1.8-1.9 1 .2 1.3.6l-.4.4c-.3-.3-.6-.4-.9-.4-.7 0-1.2.6-1.2 1.4s.5 1.4 1.2 1.4.6-.1.9-.4l.4.4zM221 91c.3-.4.7-.6 1.1-.6s.7.1.9.3c.2.2.3.5.3 1v2.5h-.6v-2.4c0-.5-.2-.8-.7-.8s-.5.1-.7.3c-.2.2-.2.4-.2.7v2.2h-.6v-5.3h.6v2.2zM225 92.5c0 .3 0 .5.2.7.2.3.6.5 1 .5s.9-.2 1.1-.6l.5.2c-.3.6-.9 1-1.6 1-1.1 0-1.9-.8-1.9-1.9s.8-1.9 1.9-1.9 1.9.8 1.9 1.9v.2H225zm2.4-.4c0-.3 0-.4-.2-.6-.2-.3-.6-.5-1-.5s-.8.2-1 .5c-.1.2-.2.3-.2.6h2.4zM229.7 90.5v.5c.3-.4.6-.6 1.1-.6s.6.1.9.3c.2.2.3.5.3 1v2.5h-.6v-2.4c0-.3 0-.5-.1-.6-.1-.2-.3-.2-.6-.2s-.5.1-.7.3c-.2.2-.2.4-.2.7v2.2h-.6v-3.7h.6zM233.3 95.5h-.4l.7-2.1.6.2-.8 1.9zM238.4 91.2h2.1v.6h-2.1v1.8h2.1v.6h-2.8v-5.3h2.8v.6h-2.1v1.8zM243.4 91.5c0-.4-.3-.6-.7-.6s-.7.2-.7.5.2.4.8.6c.5.1.7.2.9.4.2.2.3.4.3.7 0 .6-.5 1.1-1.3 1.1s-1.3-.4-1.4-1.1h.6c0 .4.3.6.8.6s.7-.2.7-.5-.2-.5-.8-.6c-.8-.2-1.2-.6-1.2-1.1s.5-1.1 1.3-1.1 1.3.4 1.3 1.1h-.6zM247 91.5c0-.4-.3-.6-.7-.6s-.7.2-.7.5.2.4.8.6c.5.1.7.2.9.4.2.2.3.4.3.7 0 .6-.5 1.1-1.3 1.1s-1.3-.4-1.4-1.1h.6c0 .4.3.6.8.6s.7-.2.7-.5-.2-.5-.8-.6c-.8-.2-1.2-.6-1.2-1.1s.5-1.1 1.3-1.1 1.3.4 1.3 1.1h-.6zM249.1 92.5c0 .3 0 .5.2.7.2.3.6.5 1 .5s.9-.2 1.1-.6l.5.2c-.3.6-.9 1-1.6 1-1.1 0-1.9-.8-1.9-1.9s.8-1.9 1.9-1.9 1.9.8 1.9 1.9v.2h-3.1zm2.4-.4c0-.3 0-.4-.2-.6-.2-.3-.6-.5-1-.5s-.8.2-1 .5c-.1.2-.2.3-.2.6h2.4zM253.9 90.5v.5c.3-.4.6-.6 1.1-.6s.6.1.9.3c.2.2.3.5.3 1v2.5h-.6v-2.4c0-.3 0-.5-.1-.6-.1-.2-.3-.2-.6-.2s-.5.1-.7.3c-.2.2-.2.4-.2.7v2.2h-.6v-3.7h.6zM207.6 98.5v-.6h3l-1.6 2c.9 0 1.6.7 1.6 1.6s-.8 1.7-1.8 1.7-1.4-.5-1.6-1.3h.6c.1.4.5.7 1 .7s1.2-.5 1.2-1.1-.5-1.1-1.2-1.1-.4 0-.6.2l-.3-.2 1.5-1.9h-1.9zM211.6 99.6V99l1.8-1.2v5.4h-.6v-4.4l-1.2.8zM216 102.8c0 .2-.2.4-.4.4s-.4-.2-.4-.4.2-.4.4-.4.4.2.4.4zM216.9 102v-.5l2.8-3.7v3.6h.6v.6h-.6v1.2h-.6V102H217zm2.1-2.6l-1.5 2h1.5v-2zM223.5 99.5v.5c.3-.4.6-.6 1-.6s.8.2 1 .7c.3-.5.6-.7 1.2-.7s.7.1.9.4c.2.2.2.4.2 1v2.4h-.6V101c0-.4 0-.6-.1-.7-.1-.2-.4-.3-.6-.3-.5 0-.8.4-.8 1v2.2h-.6V101c0-.4 0-.5-.1-.7-.1-.2-.3-.3-.6-.3-.5 0-.9.4-.9 1v2.2h-.6v-3.7h.6zM231.1 100.7v.4h-2l1.2-1.6c.3-.5.4-.6.4-.8 0-.3-.2-.4-.5-.4s-.5.2-.5.6h-.4c0-.6.4-1 1-1s1 .3 1 .8-.1.5-.4.9l-.8 1.1h1.1z"/><g><path d="M316.1 8.8c1.1 0 1.7.5 1.7 1.4s-.1.6-.3.9c-.1.2-.3.2-.5.3.3 0 .4.1.6.2.3.2.4.6.4 1s-.2.9-.6 1.2c-.3.2-.7.3-1.3.3h-1.5V8.8h1.5zm-.8 2.4h.7c.4 0 .7 0 .9-.2.2-.2.3-.4.3-.7s-.2-.6-.4-.8c-.2 0-.4-.1-.9-.1h-.6v1.8zm0 2.4h.7c.6 0 .8 0 1-.2.3-.1.4-.4.4-.8 0-.6-.4-.9-1.2-.9h-.8v1.8zM322 10.5h.6v3.7h-.6v-.7c-.4.6-.8.8-1.3.8-1 0-1.7-.8-1.7-1.9s.7-1.9 1.8-1.9 1 .2 1.3.7v-.6zm-2.1.9c-.2.3-.3.6-.3 1 0 .8.5 1.4 1.2 1.4s1.3-.6 1.3-1.4-.5-1.4-1.2-1.4-.7.1-.9.4zM323.9 14.1V8.8h.6v5.3h-.6zM326.5 14.1h-.6V8.8h.6v3.3l1.5-1.6h.8l-1.6 1.8 1.6 1.9h-.8l-1.5-1.6v1.6zM332.9 12.3c0 1.1-.8 1.9-1.9 1.9s-1.9-.8-1.9-1.9.8-1.9 1.9-1.9 1.9.8 1.9 1.9zm-3.1 0c0 .8.5 1.4 1.3 1.4s1.2-.6 1.2-1.4-.5-1.4-1.2-1.4-1.3.6-1.3 1.4zM334.6 10.5v.5c.3-.4.6-.6 1.1-.6s.6.1.9.3c.2.2.3.5.3 1v2.5h-.6v-2.4c0-.3 0-.5-.1-.6-.1-.2-.3-.2-.6-.2s-.5.1-.7.3c-.2.2-.2.4-.2.7v2.2h-.6v-3.7h.6zM315.5 20c.2 0 .3-.1.5-.1.9 0 1.6.7 1.6 1.6s-.8 1.7-1.7 1.7-1.7-.8-1.7-1.7.1-.7.4-1.2l1.5-2.5h.7l-1.4 2.1zm-.7 1.5c0 .6.5 1.1 1.1 1.1s1.1-.5 1.1-1.1-.5-1.1-1.1-1.1-1.1.5-1.1 1.1zM319.4 22.8c0 .2-.2.4-.4.4s-.4-.2-.4-.4.2-.4.4-.4.4.2.4.4zM323.7 21.5c0 .6-.1 1-.4 1.2-.3.3-.7.4-1.2.4s-1-.2-1.2-.5c-.3-.3-.4-.6-.4-1.4v-1.8c0-.7 0-1 .3-1.3.3-.3.7-.5 1.2-.5s.9.1 1.2.4c.3.3.4.6.4 1.2v2.1zm-2.5-.1c0 .6 0 .7.2.9.2.2.5.3.8.3s.6-.1.8-.4c.1-.2.2-.4.2-.8v-2c0-.4 0-.6-.3-.8-.2-.2-.4-.2-.7-.2s-.6.1-.8.4c-.1.2-.2.4-.2.8v1.8zM327.1 19.5v.5c.3-.4.6-.6 1-.6s.8.2 1 .7c.3-.5.6-.7 1.2-.7s.7.1.9.4c.2.2.2.4.2 1v2.4h-.6V21c0-.4 0-.6-.1-.7-.1-.2-.4-.3-.6-.3-.5 0-.8.4-.8 1v2.2h-.6V21c0-.4 0-.5-.1-.7-.1-.2-.3-.3-.6-.3-.5 0-.9.4-.9 1v2.2h-.6v-3.7h.6zM334.7 20.6v.4h-2l1.2-1.6c.3-.5.4-.6.4-.8 0-.3-.2-.4-.5-.4s-.5.2-.5.6h-.4c0-.6.4-1 1-1s1 .3 1 .8-.1.5-.4.9l-.8 1.1h1.1z"/></g><g><path d="M340.4 280.4h.7l-1.6 5.3h-.6l-1.2-4.2-1.2 4.2h-.6l-1.6-5.3h.7l1.2 4.1 1.2-4.1h.6l1.1 4.1 1.2-4.1zM345.3 283.9c0 1.1-.8 1.9-1.9 1.9s-1.9-.8-1.9-1.9.8-1.9 1.9-1.9 1.9.8 1.9 1.9zm-3.1 0c0 .8.5 1.4 1.3 1.4s1.2-.6 1.2-1.4-.5-1.4-1.2-1.4-1.3.6-1.3 1.4zM347 282.5c.3-.4.7-.6 1.1-.6s.7.1.9.3c.2.2.3.5.3 1v2.5h-.6v-2.4c0-.5-.2-.8-.7-.8s-.5.1-.7.3c-.2.2-.2.4-.2.7v2.2h-.6v-5.3h.6v2.2zM351.2 282v.5c.3-.4.6-.6 1.1-.6s.6.1.9.3c.2.2.3.5.3 1v2.5h-.6v-2.4c0-.3 0-.5-.1-.6-.1-.2-.3-.2-.6-.2s-.5.1-.7.3c-.2.2-.2.4-.2.7v2.2h-.6V282h.6zM355.2 284.1c0 .3 0 .5.2.7.2.3.6.5 1 .5s.9-.2 1.1-.6l.5.2c-.3.6-.9 1-1.6 1-1.1 0-1.9-.8-1.9-1.9s.8-1.9 1.9-1.9 1.9.8 1.9 1.9v.2h-3.1zm2.4-.4c0-.3 0-.4-.2-.6-.2-.3-.6-.5-1-.5s-.8.2-1 .5c-.1.2-.2.3-.2.6h2.4zM359.9 282v.5c.3-.4.6-.6 1.1-.6s.6.1.9.3c.2.2.3.5.3 1v2.5h-.6v-2.4c0-.3 0-.5-.1-.6-.1-.2-.3-.2-.6-.2s-.5.1-.7.3c-.2.2-.2.4-.2.7v2.2h-.6V282h.6zM335.2 291.1v-.6l1.8-1.2v5.4h-.6v-4.4l-1.2.8zM338.4 293.5v-.5l2.8-3.7v3.6h.6v.6h-.6v1.2h-.6v-1.2h-2.1zm2.1-2.6l-1.5 2h1.5v-2zM343.6 294.4c0 .2-.2.4-.4.4s-.4-.2-.4-.4.2-.4.4-.4.4.2.4.4zM347.3 290h-1.7v1.4c.3-.1.5-.2.8-.2.9 0 1.6.7 1.6 1.7s-.8 1.8-1.8 1.8-1.3-.4-1.6-1.1l.6-.2c.1.2.2.3.3.4.2.2.5.3.8.3.6 0 1.1-.5 1.1-1.2s-.5-1.1-1.2-1.1-.8.2-1.2.5v-3h2.3v.6zM351.3 291v.5c.3-.4.6-.6 1-.6s.8.2 1 .7c.3-.5.6-.7 1.2-.7s.7.1.9.4c.2.2.2.4.2 1v2.4h-.6v-2.2c0-.4 0-.6-.1-.7-.1-.2-.4-.3-.6-.3-.5 0-.8.4-.8 1v2.2h-.6v-2.2c0-.4 0-.5-.1-.7-.1-.2-.3-.3-.6-.3-.5 0-.9.4-.9 1v2.2h-.6V291h.6zM358.8 292.2v.4h-2l1.2-1.6c.3-.5.4-.6.4-.8 0-.3-.2-.4-.5-.4s-.5.2-.5.6h-.4c0-.6.4-1 1-1s1 .3 1 .8-.1.5-.4.9l-.8 1.1h1.1z"/></g><g><path d="M160.2 124.6h2.1v.6h-2.1v1.8h2.1v.6h-2.8v-5.3h2.8v.6h-2.1v1.8zM164.1 123.8v.5c.3-.4.6-.6 1.1-.6s.6.1.9.3c.2.2.3.5.3 1v2.5h-.6v-2.4c0-.3 0-.5-.1-.6-.1-.2-.3-.2-.6-.2s-.5.1-.7.3c-.2.2-.2.4-.2.7v2.2h-.6v-3.7h.6zM168.4 126.8c0 .2 0 .2.3.2h.3v.5h-.6c-.4 0-.6-.2-.6-.6v-2.6h-.5v-.5h.5v-1.2h.6v1.2h.6v.5h-.6v2.4zM170.6 123.8v.6c.1-.3.2-.4.3-.5.2-.1.4-.2.7-.2h.1v.6h-.2c-.3 0-.6.2-.8.4-.2.2-.2.4-.2.9v1.9h-.6v-3.7h.6zM173 125.9c0 .3 0 .5.2.7.2.3.6.5 1 .5s.9-.2 1.1-.6l.5.2c-.3.6-.9 1-1.6 1-1.1 0-1.9-.8-1.9-1.9s.8-1.9 1.9-1.9 1.9.8 1.9 1.9v.2H173zm2.4-.4c0-.3 0-.4-.2-.6-.2-.3-.6-.5-1-.5s-.8.2-1 .5c-.1.2-.2.3-.2.6h2.4zm-.2-3.2l-.9 1.1h-.4l.7-1.1h.7zM177.5 125.9c0 .3 0 .5.2.7.2.3.6.5 1 .5s.9-.2 1.1-.6l.5.2c-.3.6-.9 1-1.6 1-1.1 0-1.9-.8-1.9-1.9s.8-1.9 1.9-1.9 1.9.8 1.9 1.9v.2h-3.1zm2.4-.4c0-.3 0-.4-.2-.6-.2-.3-.6-.5-1-.5s-.8.2-1 .5c-.1.2-.2.3-.2.6h2.4zM162.3 136v.6h-3l1.9-2.7c.5-.8.7-1 .7-1.3 0-.5-.4-.8-.9-.8s-.7.2-.8.4v.6h-.6c0-1 .6-1.6 1.5-1.6s1.5.5 1.5 1.3-.2.8-.6 1.5l-1.4 2h1.9zM164.3 136.2c0 .2-.2.4-.4.4s-.4-.2-.4-.4.2-.4.4-.4.4.2.4.4zM168.3 134c.3.3.4.6.4 1 0 .9-.7 1.6-1.7 1.6s-1.6-.6-1.6-1.6.1-.8.4-1.1c.2-.2.3-.3.6-.4-.3 0-.4-.2-.5-.4-.2-.2-.3-.5-.3-.8 0-.8.6-1.3 1.5-1.3s1.4.6 1.4 1.3-.1.6-.3.8c-.1.2-.3.2-.5.3.3 0 .4.2.6.3zm-2.3 1c0 .6.5 1 1 1s1-.5 1-1-.5-1-1-1-1 .5-1 1zm.2-2.5c0 .5.4.8.8.8s.9-.4.9-.8-.4-.8-.8-.8-.9.3-.9.8zM172 132.8v.5c.3-.4.6-.6 1-.6s.8.2 1 .7c.3-.5.6-.7 1.2-.7s.7.1.9.4c.2.2.2.4.2 1v2.4h-.6v-2.2c0-.4 0-.6-.1-.7-.1-.2-.4-.3-.6-.3-.5 0-.8.4-.8 1v2.2h-.6v-2.2c0-.4 0-.5-.1-.7-.1-.2-.3-.3-.6-.3-.5 0-.9.4-.9 1v2.2h-.6v-3.7h.6zM179.6 134v.4h-2l1.2-1.6c.3-.5.4-.6.4-.8 0-.3-.2-.4-.5-.4s-.5.2-.5.6h-.4c0-.6.4-1 1-1s1 .3 1 .8-.1.5-.4.9l-.8 1.1h1.1z"/></g><g><path d="M19.2 94v.6h-3.8l3-4.8h-2.7v-.6h3.8l-3 4.8h2.7zM21 89.9c0 .2-.2.4-.4.4s-.4-.2-.4-.4.2-.4.4-.4.4.2.4.4zm0 4.7h-.6v-3.7h.6v3.7zM22.9 90.9v.5c.3-.4.6-.6 1-.6s.8.2 1 .7c.3-.5.6-.7 1.2-.7s.7.1.9.4c.2.2.2.4.2 1v2.4h-.6v-2.2c0-.4 0-.6-.1-.7-.1-.2-.4-.3-.6-.3-.5 0-.8.4-.8 1v2.2h-.6v-2.2c0-.4 0-.5-.1-.7-.1-.2-.3-.3-.6-.3-.5 0-.9.4-.9 1v2.2h-.6v-3.7h.6zM29.2 90.9v.5c.3-.4.6-.6 1-.6s.8.2 1 .7c.3-.5.6-.7 1.2-.7s.7.1.9.4c.2.2.2.4.2 1v2.4h-.6v-2.2c0-.4 0-.6-.1-.7-.1-.2-.4-.3-.6-.3-.5 0-.8.4-.8 1v2.2h-.6v-2.2c0-.4 0-.5-.1-.7-.1-.2-.3-.3-.6-.3-.5 0-.9.4-.9 1v2.2h-.6v-3.7h.6zM35.3 93c0 .3 0 .5.2.7.2.3.6.5 1 .5s.9-.2 1.1-.6l.5.2c-.3.6-.9 1-1.6 1-1.1 0-1.9-.8-1.9-1.9s.8-1.9 1.9-1.9 1.9.8 1.9 1.9v.2h-3.1zm2.4-.4c0-.3 0-.4-.2-.6-.2-.3-.6-.5-1-.5s-.8.2-1 .5c-.1.2-.2.3-.2.6h2.4zM40.1 90.9v.6c.1-.3.2-.4.3-.5.2-.1.4-.2.7-.2h.1v.6H41c-.3 0-.6.2-.8.4-.2.2-.2.4-.2.9v1.9h-.6v-3.7h.6zM16.2 100v-.6l1.8-1.2v5.4h-.6v-4.4l-1.2.8zM22.2 98.9h-1.7v1.4c.3-.1.5-.2.8-.2.9 0 1.6.7 1.6 1.7s-.8 1.8-1.8 1.8-1.3-.4-1.6-1.1l.6-.2c.1.2.2.3.3.4.2.2.5.3.8.3.6 0 1.1-.5 1.1-1.2s-.5-1.1-1.2-1.1-.8.2-1.2.5v-3h2.3v.6zM24.7 103.3c0 .2-.2.4-.4.4s-.4-.2-.4-.4.2-.4.4-.4.4.2.4.4zM28.8 103v.6h-3l1.9-2.7c.5-.8.7-1 .7-1.3 0-.5-.4-.8-.9-.8s-.7.2-.8.4v.6h-.6c0-1 .6-1.6 1.5-1.6s1.5.5 1.5 1.3-.2.8-.6 1.5l-1.4 2H29zM32.4 99.9v.5c.3-.4.6-.6 1-.6s.8.2 1 .7c.3-.5.6-.7 1.2-.7s.7.1.9.4c.2.2.2.4.2 1v2.4h-.6v-2.2c0-.4 0-.6-.1-.7-.1-.2-.4-.3-.6-.3-.5 0-.8.4-.8 1v2.2H34v-2.2c0-.4 0-.5-.1-.7-.1-.2-.3-.3-.6-.3-.5 0-.9.4-.9 1v2.2h-.6v-3.7h.6zM39.9 101.1v.4h-2l1.2-1.6c.3-.5.4-.6.4-.8 0-.3-.2-.4-.5-.4s-.5.2-.5.6h-.4c0-.6.4-1 1-1s1 .3 1 .8-.1.5-.4.9l-.8 1.1H40z"/></g><g><path d="M273.1 150.4c1.1 0 1.7.5 1.7 1.4s-.1.6-.3.9c-.1.2-.3.2-.5.3.3 0 .4.1.6.2.3.2.4.6.4 1s-.2.9-.6 1.2c-.3.2-.7.3-1.3.3h-1.5v-5.3h1.5zm-.8 2.4h.7c.4 0 .7 0 .9-.2.2-.2.3-.4.3-.7s-.2-.6-.4-.8c-.2 0-.4-.1-.9-.1h-.6v1.8zm0 2.4h.7c.6 0 .8 0 1-.2.3-.1.4-.4.4-.8 0-.6-.4-.9-1.2-.9h-.8v1.8zM279 152.1h.6v3.7h-.6v-.7c-.4.6-.8.8-1.3.8-1 0-1.7-.8-1.7-1.9s.7-1.9 1.8-1.9 1 .2 1.3.7v-.6zm-2.1.9c-.2.3-.3.6-.3 1 0 .8.5 1.4 1.2 1.4s1.3-.6 1.3-1.4-.5-1.4-1.2-1.4-.7.1-.9.4zM283.8 150.4h.6v5.3h-.6v-.6c-.4.5-.8.7-1.3.7-1 0-1.7-.8-1.7-1.9s.7-2 1.7-2 1 .2 1.3.6v-2.2zm-2.4 3.5c0 .8.5 1.4 1.2 1.4s1.2-.6 1.2-1.4-.5-1.4-1.2-1.4-1.2.6-1.2 1.4zM271.5 160.1v-.6h3l-1.6 2c.9 0 1.6.7 1.6 1.6s-.8 1.7-1.8 1.7-1.4-.5-1.6-1.3h.6c.1.4.5.7 1 .7s1.2-.5 1.2-1.1-.5-1.1-1.2-1.1-.4 0-.6.2l-.3-.2 1.5-1.9h-1.9zM276.4 164.4c0 .2-.2.4-.4.4s-.4-.2-.4-.4.2-.4.4-.4.4.2.4.4zM280.4 162.2c.3.3.4.6.4 1 0 .9-.7 1.6-1.7 1.6s-1.6-.6-1.6-1.6.1-.8.4-1.1c.2-.2.3-.3.6-.4-.3 0-.4-.2-.5-.4-.2-.2-.3-.5-.3-.8 0-.8.6-1.3 1.5-1.3s1.4.6 1.4 1.3-.1.6-.3.8c-.1.2-.3.2-.5.3.3 0 .4.2.6.3zm-2.3 1c0 .6.5 1 1 1s1-.5 1-1-.5-1-1-1-1 .5-1 1zm.2-2.5c0 .5.4.8.8.8s.9-.4.9-.8-.4-.8-.8-.8-.9.3-.9.8zM284.1 161.1v.5c.3-.4.6-.6 1-.6s.8.2 1 .7c.3-.5.6-.7 1.2-.7s.7.1.9.4c.2.2.2.4.2 1v2.4h-.6v-2.2c0-.4 0-.6-.1-.7-.1-.2-.4-.3-.6-.3-.5 0-.8.4-.8 1v2.2h-.6v-2.2c0-.4 0-.5-.1-.7-.1-.2-.3-.3-.6-.3-.5 0-.9.4-.9 1v2.2h-.6v-3.7h.6zM291.7 162.2v.4h-2l1.2-1.6c.3-.5.4-.6.4-.8 0-.3-.2-.4-.5-.4s-.5.2-.5.6h-.4c0-.6.4-1 1-1s1 .3 1 .8-.1.5-.4.9l-.8 1.1h1.1z"/></g><g><path d="M22.9 250.9v.6h-2.5v-5.3h.7v4.7H23zM24.6 246.8c0 .2-.2.4-.4.4s-.4-.2-.4-.4.2-.4.4-.4.4.2.4.4zm0 4.7H24v-3.7h.6v3.7zM26.5 251.5h-.6v-3.2h-.5v-.5h.5v-.5c0-.7.4-1.2 1-1.2h.2v.5c-.4 0-.6.2-.6.6v.5h.6v.5h-.6v3.2zM28.9 250.7c0 .2 0 .2.3.2h.3v.5h-.6c-.4 0-.6-.2-.6-.6v-2.6h-.5v-.5h.5v-1.2h.6v1.2h.6v.5h-.6v2.4z"/></g></g></svg>