<svg xmlns="http://www.w3.org/2000/svg" viewBox="0 0 320.6 309.8"><defs><style>.cls-1,.cls-10,.cls-11,.cls-12,.cls-13,.cls-14,.cls-15,.cls-16,.cls-17,.cls-2,.cls-3,.cls-4,.cls-5,.cls-6,.cls-7,.cls-8,.cls-9{fill:none;stroke-linecap:round;stroke-linejoin:round}.cls-1,.cls-10,.cls-11,.cls-12,.cls-13,.cls-14,.cls-15,.cls-17,.cls-2,.cls-3,.cls-4,.cls-5,.cls-7,.cls-8,.cls-9{stroke-width:.1px}.cls-1,.cls-13,.cls-15,.cls-16,.cls-3,.cls-7{stroke:#194164}.cls-1,.cls-7{stroke-dasharray:0 0 0 0 2.9 1.4 .2 1.4}.cls-2{stroke:#646464}.cls-3{stroke-dashoffset:1px}.cls-10,.cls-11,.cls-12,.cls-13,.cls-17,.cls-3,.cls-4,.cls-5,.cls-8,.cls-9{stroke-dasharray:0 0 1.4 1.4}.cls-4{stroke-dashoffset:2.5px}.cls-10,.cls-11,.cls-12,.cls-14,.cls-17,.cls-4,.cls-5,.cls-8,.cls-9{stroke:#969696}.cls-18,.cls-19{fill:#fff}.cls-6{stroke:#000;stroke-width:.3px}.cls-7{stroke-dashoffset:1.9px}.cls-8{stroke-dashoffset:2.4px}.cls-9{stroke-dashoffset:2.7px}.cls-10{stroke-dashoffset:2.5px}.cls-11{stroke-dashoffset:1.4px}.cls-12{stroke-dashoffset:.7px}.cls-19,.cls-20{fill-rule:evenodd}.cls-13{stroke-dashoffset:.2px}.cls-16{stroke-width:.3px}.cls-17{stroke-dashoffset:1.2px}</style></defs><g id="Plan"><path class="cls-14" d="M234.1 259.8h59.3v3.6h-59.3z"/><path class="cls-15" d="M255.5 12.4h-40.1"/><path class="cls-6" d="M255.5 13.1h-40.1"/><path class="cls-15" d="M255.5 10.9h-40.1M255.5 12.4h-40.1"/><path class="cls-6" d="M215.4 12.4v.7"/><path class="cls-15" d="M215.4 10.9v1.5M255.5 13.1h-40.1M255.5 10.9h-40.1"/><path class="cls-19" d="M215.4 40l-6.9 7.2v2.6h6.9V40"/><path class="cls-14" d="M215.7 42.4l-1.2-1.2M215.7 46.5l-3.4-3.2M214.9 49.8l-4.5-4.5M210.9 49.8l-2.2-2.4M215.4 49.8h.3M211.3 49.8l4.4-4.1M208.7 48.6l7-6.9"/><path class="cls-19" d="M215.4 40l-6.9 7.2v2.6h6.9V40"/><path class="cls-14" d="M215.7 42.4l-1.2-1.2M215.7 46.5l-3.4-3.2M214.9 49.8l-4.5-4.5M210.9 49.8l-2.2-2.4M215.4 49.8h.3M211.3 49.8l4.4-4.1M208.7 48.6l7-6.9"/><path class="cls-16" d="M215.4 49.8V40M208.5 49.8v-2.6M208.5 49.8v-2.6M215.4 49.8V40"/><path class="cls-19" d="M208.5 82v66.7l6.9 7V82h-6.9"/><path class="cls-14" d="M215.7 82.5l-.8-.5M215.7 86.5l-4.6-4.5M215.7 90.4l-7-7M215.7 94.5l-7-7M215.7 98.5l-7-6.9M215.7 102.6l-7-6.9M215.7 106.5l-7-7M215.7 110.5l-7-6.9M215.7 114.6l-7-6.9M215.7 118.5l-7-7M215.7 122.5l-7-6.9M215.7 126.6l-7-6.9M215.7 130.5l-7-7M215.7 134.5l-7-6.9M215.7 138.6l-7-6.9M215.7 142.7l-7-7M215.7 146.5l-7-6.9M215.7 150.6l-7-6.9M215.7 154.7l-7-7M214.7 154.7l1-.7M212.8 152.8l2.9-2.9M210.6 150.9l5.1-5.1M208.7 148.7l7-6.7M208.7 144.9l7-7M208.7 140.8l7-7M208.7 136.9l7-6.9M208.7 132.9l7-7M208.7 128.8l7-7M208.7 124.9l7-6.9M208.7 120.9l7-7M208.7 116.8l7-7M208.7 112.7l7-7M208.7 108.9l7-7M208.7 104.8l7-7M208.7 100.7l7-7M208.7 96.9l7-7M208.7 92.8l7-7M208.7 88.7l6.7-6.7M208.7 84.6l2.6-2.6"/><path class="cls-19" d="M208.5 82v66.7l6.9 7V82h-6.9"/><path class="cls-14" d="M215.7 82.5l-.8-.5M215.7 86.5l-4.6-4.5M215.7 90.4l-7-7M215.7 94.5l-7-7M215.7 98.5l-7-6.9M215.7 102.6l-7-6.9M215.7 106.5l-7-7M215.7 110.5l-7-6.9M215.7 114.6l-7-6.9M215.7 118.5l-7-7M215.7 122.5l-7-6.9M215.7 126.6l-7-6.9M215.7 130.5l-7-7M215.7 134.5l-7-6.9M215.7 138.6l-7-6.9M215.7 142.7l-7-7M215.7 146.5l-7-6.9M215.7 150.6l-7-6.9M215.7 154.7l-7-7M214.7 154.7l1-.7M212.8 152.8l2.9-2.9M210.6 150.9l5.1-5.1M208.7 148.7l7-6.7M208.7 144.9l7-7M208.7 140.8l7-7M208.7 136.9l7-6.9M208.7 132.9l7-7M208.7 128.8l7-7M208.7 124.9l7-6.9M208.7 120.9l7-7M208.7 116.8l7-7M208.7 112.7l7-7M208.7 108.9l7-7M208.7 104.8l7-7M208.7 100.7l7-7M208.7 96.9l7-7M208.7 92.8l7-7M208.7 88.7l6.7-6.7M208.7 84.6l2.6-2.6"/><path class="cls-16" d="M215.4 155.7V82M208.5 148.7V82M208.5 148.7V82M215.4 155.7V82"/><path class="cls-15" d="M214.2 79.6h1.9V82h-1.9zM214.2 49.8h1.9v2.4h-1.9zM214.2 52.2h1.9v27.4h-1.9zM214.2 79.6V52.2"/><path class="cls-1" d="M208.5 79.8V52"/><path class="cls-15" d="M208.5 52.5V52"/><path class="cls-19" d="M208.5 82v-2.2h5.7V82"/><path class="cls-14" d="M214.5 81.3l-1.7-1.5M211.1 82l-2.2-2.2M211.3 82l2.2-2.2M208.7 80.8l.7-1"/><path class="cls-19" d="M208.5 49.8V52h5.7v-2.2"/><path class="cls-14" d="M213 52l-2.1-2.2M209.2 52l-.5-.5M213.3 52l1.2-1M209.2 52l2.1-2.2"/><path class="cls-16" d="M208.5 79.8h5.7M208.5 52h5.7M208.5 79.8h5.7M208.5 82v-2.2M208.5 52h5.7M208.5 49.8V52M215.4 82h-1.2M215.4 49.8h-1.2M208.5 82v-2.2M208.5 49.8V52M214.2 79.8V82M214.2 52v-2.2"/><path class="cls-14" d="M216 79.5c14.9 0 27.2-12.3 27.2-27.2M216.1 52.2h27.2"/><path class="cls-15" d="M313.1 85.3h-56.9"/><path class="cls-6" d="M313.1 86.1h-56.9"/><path class="cls-15" d="M313.1 83.9h-56.9M313.1 85.3h-56.9"/><path class="cls-6" d="M256.2 85.3v.8"/><path class="cls-15" d="M256.2 83.9v1.4M313.1 86.1h-56.9M313.1 83.9h-56.9"/><path class="cls-6" d="M313.1 85.3v.8"/><path class="cls-15" d="M313.1 83.9v1.4"/><path class="cls-20" d="M44.3 252.6v14.7H.1v-14.7h44.2"/><path class="cls-19" d="M44.3 267.3v-3.4H.1v3.4h44.2"/><path class="cls-14" d="M.4 264.1l3.1 3.2M4.2 263.9l3.4 3.4M8.1 263.9l3.3 3.4M12.1 263.9l3.4 3.4M16.2 263.9l3.4 3.4M20.1 263.9l3.3 3.4M24.1 263.9l3.4 3.4M28.2 263.9l3.4 3.4M32.1 263.9l3.3 3.4M36.1 263.9l3.4 3.4M40.2 263.9l3.4 3.4M44.3 263.9l.2.2"/><path class="cls-19" d="M44.3 263.9v-.5H.1v.5h44.2M44.3 263.4v-5.7H.1v5.7h44.2"/><path class="cls-14" d="M1.3 257.7v5.7M2.8 257.7v5.7M4.2 257.7v5.7M5.7 257.7v5.7M7.1 257.7v5.7M8.3 257.7v5.7M9.7 257.7v5.7M11.2 257.7v5.7M12.6 257.7v5.7M14.1 257.7v5.7M15.5 257.7v5.7M16.9 257.7v5.7M18.4 257.7v5.7M19.8 257.7v5.7M21.3 257.7v5.7M22.7 257.7v5.7M23.9 257.7v5.7M25.3 257.7v5.7M26.8 257.7v5.7M28.2 257.7v5.7M29.7 257.7v5.7M31.1 257.7v5.7M32.5 257.7v5.7M34 257.7v5.7M35.4 257.7v5.7M36.9 257.7v5.7M38.3 257.7v5.7M39.5 257.7v5.7M40.9 257.7v5.7M42.4 257.7v5.7M43.8 257.7v5.7"/><path class="cls-19" d="M44.3 257.7v-5.1H.1v5.1h44.2"/><path class="cls-14" d="M.4 256l1.4 1.7M.9 252.6l5 5.1M4.9 252.6l5.1 5.1M8.8 252.6l5 5.1M12.9 252.6l5 5.1M16.9 252.6l5.1 5.1M20.8 252.6l5 5.1M24.9 252.6l5 5.1M28.9 252.6l5.1 5.1M33 252.6l5.1 5.1M36.9 252.6l5 5.1M40.9 252.6l3.6 3.6"/><path class="cls-16" d="M44.3 263.9H.1M44.3 267.3H.1"/><path class="cls-14" d="M44.3 257.7H.1M44.3 263.4H.1"/><path class="cls-16" d="M44.3 252.6H.1M44.3 257.7H.1"/><path class="cls-15" d="M44.3 267.3H.1M44.3 252.6H.1"/><path class="cls-20" d="M140.3 252.6v14.7H85.1v-14.7h55.2"/><path class="cls-19" d="M140.3 267.3v-3.4H85.1v3.4h55.2"/><path class="cls-14" d="M85.3 264.9l2.4 2.4M88.2 263.9l3.4 3.4M92.3 263.9l3.4 3.4M96.4 263.9l3.3 3.4M100.2 263.9l3.4 3.4M104.3 263.9l3.4 3.4M108.4 263.9l3.3 3.4M112.5 263.9l3.3 3.4M116.3 263.9l3.4 3.4M120.4 263.9l3.3 3.4M124.5 263.9l3.3 3.4M128.3 263.9l3.4 3.4M132.4 263.9l3.3 3.4M136.5 263.9l3.3 3.4M140.3 263.9h.2"/><path class="cls-19" d="M140.3 263.9v-.5H85.1v.5h55.2M140.3 263.4v-5.7H85.1v5.7h55.2"/><path class="cls-14" d="M86.3 257.7v5.7M87.7 257.7v5.7M89.2 257.7v5.7M90.6 257.7v5.7M92.1 257.7v5.7M93.5 257.7v5.7M94.9 257.7v5.7M96.4 257.7v5.7M97.8 257.7v5.7M99 257.7v5.7M100.5 257.7v5.7M101.9 257.7v5.7M103.3 257.7v5.7M104.8 257.7v5.7M106.2 257.7v5.7M107.7 257.7v5.7M109.1 257.7v5.7M110.5 257.7v5.7M112 257.7v5.7M113.4 257.7v5.7M114.6 257.7v5.7M116.1 257.7v5.7M117.5 257.7v5.7M118.9 257.7v5.7M120.4 257.7v5.7M121.8 257.7v5.7M123.3 257.7v5.7M124.7 257.7v5.7M126.1 257.7v5.7M127.6 257.7v5.7M128.8 257.7v5.7M130.2 257.7v5.7M131.7 257.7v5.7M133.1 257.7v5.7M134.5 257.7v5.7M136 257.7v5.7M137.4 257.7v5.7M138.9 257.7v5.7M140.3 257.7v5.7"/><path class="cls-19" d="M140.3 257.7v-5.1H85.1v5.1h55.2"/><path class="cls-14" d="M85.3 256.7l.8 1M85.3 252.9l4.8 4.8M88.9 252.6l5.1 5.1M93 252.6l5.1 5.1M97.1 252.6l5 5.1M101.2 252.6l5 5.1M105 252.6l5.1 5.1M109.1 252.6l5 5.1M113.2 252.6l5 5.1M117 252.6l5.1 5.1M121.1 252.6l5 5.1M125.2 252.6l5 5.1M129 252.6l5.1 5.1M133.1 252.6l5 5.1M137.2 252.6l3.3 3.4"/><path class="cls-16" d="M140.3 263.9H85.1M140.3 267.3H85.1"/><path class="cls-14" d="M140.3 257.7H85.1M140.3 263.4H85.1"/><path class="cls-16" d="M140.3 252.6H85.1M140.3 257.7H85.1"/><path class="cls-15" d="M140.3 267.3H85.1M140.3 252.6H85.1"/><path class="cls-20" d="M232.2 252.6v14.7h-51.1v-14.7h51.1"/><path class="cls-19" d="M232.2 267.3v-3.4h-51.1v3.4h51.1"/><path class="cls-14" d="M181.3 264.6l2.4 2.7M184.5 263.9l3.3 3.4M188.5 263.9l3.4 3.4M192.6 263.9l3.4 3.4M196.5 263.9l3.3 3.4M200.5 263.9l3.4 3.4M204.6 263.9l3.4 3.4M208.5 263.9l3.3 3.4M212.5 263.9l3.4 3.4M216.6 263.9l3.4 3.4M220.7 263.9l3.4 3.4M224.5 263.9l3.4 3.4M228.6 263.9l3.4 3.4"/><path class="cls-19" d="M232.2 263.9v-.5h-51.1v.5h51.1M232.2 263.4v-5.7h-51.1v5.7h51.1"/><path class="cls-14" d="M181.3 257.7v5.7M182.8 257.7v5.7M184.2 257.7v5.7M185.7 257.7v5.7M187.1 257.7v5.7M188.3 257.7v5.7M189.7 257.7v5.7M191.2 257.7v5.7M192.6 257.7v5.7M194.1 257.7v5.7M195.5 257.7v5.7M196.9 257.7v5.7M198.4 257.7v5.7M199.8 257.7v5.7M201.3 257.7v5.7M202.7 257.7v5.7M203.9 257.7v5.7M205.3 257.7v5.7M206.8 257.7v5.7M208.2 257.7v5.7M209.7 257.7v5.7M211.1 257.7v5.7M212.5 257.7v5.7M214 257.7v5.7M215.4 257.7v5.7M216.9 257.7v5.7M218.3 257.7v5.7M219.5 257.7v5.7M220.9 257.7v5.7M222.4 257.7v5.7M223.8 257.7v5.7M225.3 257.7v5.7M226.7 257.7v5.7M228.1 257.7v5.7M229.6 257.7v5.7M231 257.7v5.7"/><path class="cls-19" d="M232.2 257.7v-5.1h-51.1v5.1h51.1"/><path class="cls-14" d="M181.3 256.7l1 1M181.3 252.6l5.1 5.1M185.2 252.6l5 5.1M189.3 252.6l5 5.1M193.3 252.6l5.1 5.1M197.2 252.6l5 5.1M201.3 252.6l5 5.1M205.3 252.6l5.1 5.1M209.4 252.6l5.1 5.1M213.3 252.6l5 5.1M217.3 252.6l5.1 5.1M221.4 252.6l5.1 5.1M225.3 252.6l5 5.1M229.3 252.6l3.2 2.9"/><path class="cls-16" d="M232.2 263.9h-51.1M232.2 267.3h-51.1"/><path class="cls-14" d="M232.2 257.7h-51.1M232.2 263.4h-51.1"/><path class="cls-16" d="M232.2 252.6h-51.1M232.2 257.7h-51.1"/><path class="cls-15" d="M232.2 267.3h-51.1M232.2 252.6h-51.1"/><path class="cls-20" d="M320.3 252.6v14.7h-25v-14.7h25"/><path class="cls-19" d="M320.3 267.3v-3.4h-25v3.4h25"/><path class="cls-14" d="M295.6 266.5l.5.8M296.8 263.9l3.3 3.4M300.9 263.9l3.3 3.4M304.7 263.9l3.4 3.4M308.8 263.9l3.3 3.4M312.9 263.9l3.3 3.4M316.7 263.9l3.4 3.4"/><path class="cls-19" d="M320.3 263.9v-.5h-25v.5h25M320.3 263.4v-5.7h-25v5.7h25"/><path class="cls-14" d="M296.1 257.7v5.7M297.5 257.7v5.7M298.9 257.7v5.7M300.4 257.7v5.7M301.8 257.7v5.7M303.3 257.7v5.7M304.7 257.7v5.7M306.1 257.7v5.7M307.6 257.7v5.7M308.8 257.7v5.7M310.2 257.7v5.7M311.7 257.7v5.7M313.1 257.7v5.7M314.5 257.7v5.7M316 257.7v5.7M317.4 257.7v5.7M318.9 257.7v5.7M320.3 257.7v5.7"/><path class="cls-19" d="M320.3 257.7v-5.1h-25v5.1h25"/><path class="cls-14" d="M295.6 254.5l2.9 3.2M297.5 252.6l5 5.1M301.6 252.6l5 5.1M305.4 252.6l5.1 5.1M309.5 252.6l5 5.1M313.6 252.6l5 5.1M317.7 252.6l2.8 2.9"/><path class="cls-16" d="M320.3 263.9h-25M320.3 267.3h-25"/><path class="cls-14" d="M320.3 257.7h-25M320.3 263.4h-25"/><path class="cls-16" d="M320.3 252.6h-25M320.3 257.7h-25"/><path class="cls-15" d="M320.3 267.3h-25M320.3 252.6h-25M83.4 259.8v7.5h3.4v1.9H42.9v-1.9h3.3v-7.5"/><path class="cls-1" d="M85.1 252.6H44.3"/><path class="cls-15" d="M44.8 252.6h-.5"/><path class="cls-16" d="M83.4 267.3h3.4M46.2 267.3h-3.3"/><path class="cls-15" d="M44.3 257.7h40.8v2.2H44.3zM81.5 259.8v-2.1M48.1 259.8v-2.1M85.1 257.7v2.1M66.9 257.7v2.1M81.5 257.7v2.1M62.8 257.7v2.1M66.9 257.7v2.1M48.1 257.7v2.1M62.8 257.7v2.1M44.3 257.7v2.1"/><path class="cls-19" d="M85.2 263.3h-1.8v-3.4h1.8"/><path class="cls-14" d="M84.9 259.8v3.6M85.2 263.3h-1.8v-3.4h1.8"/><path class="cls-16" d="M85.1 257.7v-5.1"/><path class="cls-19" d="M85.1 267.3h-1.7v-3.4h1.7"/><path class="cls-14" d="M84.4 263.9l.9 1"/><path class="cls-16" d="M85.1 267.3h-1.7v-3.4h1.7M83.4 263.9v-4.1"/><path class="cls-19" d="M44.4 263.3h1.8v-3.4h-1.8"/><path class="cls-14" d="M45.3 259.8v3.6M44.4 263.3h1.8v-3.4h-1.8"/><path class="cls-16" d="M44.3 257.7v-5.1"/><path class="cls-19" d="M44.3 267.3h1.9v-3.4h-1.9"/><path class="cls-14" d="M44.5 264.1l2 2"/><path class="cls-16" d="M44.3 267.3h1.9v-3.4h-1.9M46.2 263.9v-4.1"/><path class="cls-15" d="M179.2 259.8v7.5h3.3v1.9h-43.9v-1.9h3.4v-7.5"/><path class="cls-1" d="M181.1 252.6h-40.8"/><path class="cls-15" d="M140.8 252.6h-.5"/><path class="cls-16" d="M179.2 267.3h3.3M142 267.3h-3.4"/><path class="cls-15" d="M140.3 257.7h40.8v2.2h-40.8zM177.3 259.8v-2.1M143.9 259.8v-2.1M181.1 257.7v2.1M162.6 257.7v2.1M177.3 257.7v2.1M158.5 257.7v2.1M162.6 257.7v2.1M143.9 257.7v2.1M158.5 257.7v2.1M140.3 257.7v2.1"/><path class="cls-19" d="M181 263.3h-1.8v-3.4h1.8"/><path class="cls-14" d="M179.9 259.8v3.6M181 263.3h-1.8v-3.4h1.8"/><path class="cls-16" d="M181.1 257.7v-5.1"/><path class="cls-19" d="M181.1 267.3h-1.9v-3.4h1.9"/><path class="cls-14" d="M179.4 266.8l.5.5M180.4 263.9l.9.7"/><path class="cls-16" d="M181.1 267.3h-1.9v-3.4h1.9M179.2 263.9v-4.1"/><path class="cls-19" d="M140.2 263.3h1.8v-3.4h-1.8"/><path class="cls-14" d="M141.7 259.8v3.6M140.2 263.3h1.8v-3.4h-1.8"/><path class="cls-16" d="M140.3 257.7v-5.1"/><path class="cls-19" d="M140.3 267.3h1.7v-3.4h-1.7"/><path class="cls-14" d="M140.5 263.9l1.7 1.7"/><path class="cls-16" d="M140.3 267.3h1.7v-3.4h-1.7M142 263.9v-4.1"/><path class="cls-1" d="M295.3 252.6h-63.1"/><path class="cls-15" d="M232.7 252.6h-.5M232.2 257.7h63.1v2.2h-63.1zM291.5 259.8v-2.1M236.1 259.8v-2.1M295.3 257.7v2.1M276.4 257.7v2.1M291.5 257.7v2.1M272.3 257.7v2.1M276.4 257.7v2.1M255.3 257.7v2.1M272.3 257.7v2.1M251.2 257.7v2.1M255.3 257.7v2.1M236.1 257.7v2.1M251.2 257.7v2.1M232.2 257.7v2.1"/><path class="cls-16" d="M295.3 257.7v-5.1"/><path class="cls-15" d="M230.8 267.3v1.9"/><path class="cls-7" d="M230.8 269.2h66"/><path class="cls-15" d="M296.8 269.2v-1"/><path class="cls-19" d="M295.3 263.3h-1.9v-3.4h1.9"/><path class="cls-14" d="M294.6 259.8v3.6M295.3 263.3h-1.9v-3.4h1.9"/><path class="cls-19" d="M295.3 267.3h-1.9v-3.4h1.9"/><path class="cls-14" d="M293.7 264.6l1.9 1.9"/><path class="cls-16" d="M295.3 267.3h-1.9v-3.4h1.9M293.4 263.9v-4.1"/><path class="cls-19" d="M232.3 263.3h1.9v-3.4h-1.9"/><path class="cls-14" d="M232.5 259.8v3.6M233.7 259.8v3.6M232.3 263.3h1.9v-3.4h-1.9"/><path class="cls-16" d="M232.2 257.7v-5.1"/><path class="cls-19" d="M232.2 267.3h1.9v-3.4h-1.9"/><path class="cls-14" d="M232.7 263.9l1.7 1.7"/><path class="cls-16" d="M232.2 267.3h1.9v-3.4h-1.9M234.1 263.9v-4.1"/><path class="cls-19" d="M76.2 148.7v7h139.2l-6.9-7H76.2"/><path class="cls-14" d="M212.5 155.7l-6.9-7M208.5 155.7l-7-7M204.6 155.7l-6.9-7M200.5 155.7l-6.9-7M196.5 155.7l-7-7M192.6 155.7l-6.9-7M188.5 155.7l-6.9-7M184.5 155.7l-7-7M180.4 155.7l-7-7M176.5 155.7l-6.9-7M172.5 155.7l-7-7M168.4 155.7l-7-7M164.5 155.7l-6.9-7M160.5 155.7l-7-7M156.4 155.7l-7-7M152.5 155.7l-6.9-7M148.5 155.7l-7-7M144.4 155.7l-7-7M140.3 155.7l-7-7M136.5 155.7l-7-7M132.4 155.7l-7-7M128.3 155.7l-7-7M124.5 155.7l-7-7M120.4 155.7l-7-7M116.3 155.7l-7-7M112.5 155.7l-7-7M108.4 155.7l-7-7M104.3 155.7l-7-7M100.2 155.7l-6.9-7M96.4 155.7l-7-7M92.3 155.7l-7-7M88.2 155.7l-6.9-7M84.4 155.7l-7-7M80.3 155.7l-3.8-3.9M213.7 155.7l1-1M209.9 155.7l2.9-2.9M205.8 155.7l4.8-4.8M201.7 155.7l7-7M197.9 155.7l7-7M193.8 155.7l7-7M189.7 155.7l7-7M185.7 155.7l6.9-7M181.8 155.7l7-7M177.7 155.7l7-7M173.7 155.7l6.9-7M169.8 155.7l7-7M165.7 155.7l7-7M161.7 155.7l6.9-7M157.8 155.7l7-7M153.7 155.7l7-7M149.7 155.7l6.9-7M145.6 155.7l6.9-7M141.7 155.7l7-7M137.7 155.7l6.9-7M133.6 155.7l6.9-7M129.7 155.7l7-7M125.7 155.7l6.9-7M121.6 155.7l6.9-7M117.5 155.7l7-7M113.7 155.7l6.9-7M109.6 155.7l6.9-7M105.5 155.7l7-7M101.7 155.7l6.9-7M97.6 155.7l6.9-7M93.5 155.7l7-7M89.7 155.7l6.9-7M85.6 155.7l6.9-7M81.5 155.7l7-7M77.4 155.7l7-7M76.5 152.8l4-4.1M76.5 148.9v-.2"/><path class="cls-19" d="M76.2 148.7v7h139.2l-6.9-7H76.2"/><path class="cls-14" d="M212.5 155.7l-6.9-7M208.5 155.7l-7-7M204.6 155.7l-6.9-7M200.5 155.7l-6.9-7M196.5 155.7l-7-7M192.6 155.7l-6.9-7M188.5 155.7l-6.9-7M184.5 155.7l-7-7M180.4 155.7l-7-7M176.5 155.7l-6.9-7M172.5 155.7l-7-7M168.4 155.7l-7-7M164.5 155.7l-6.9-7M160.5 155.7l-7-7M156.4 155.7l-7-7M152.5 155.7l-6.9-7M148.5 155.7l-7-7M144.4 155.7l-7-7M140.3 155.7l-7-7M136.5 155.7l-7-7M132.4 155.7l-7-7M128.3 155.7l-7-7M124.5 155.7l-7-7M120.4 155.7l-7-7M116.3 155.7l-7-7M112.5 155.7l-7-7M108.4 155.7l-7-7M104.3 155.7l-7-7M100.2 155.7l-6.9-7M96.4 155.7l-7-7M92.3 155.7l-7-7M88.2 155.7l-6.9-7M84.4 155.7l-7-7M80.3 155.7l-3.8-3.9M213.7 155.7l1-1M209.9 155.7l2.9-2.9M205.8 155.7l4.8-4.8M201.7 155.7l7-7M197.9 155.7l7-7M193.8 155.7l7-7M189.7 155.7l7-7M185.7 155.7l6.9-7M181.8 155.7l7-7M177.7 155.7l7-7M173.7 155.7l6.9-7M169.8 155.7l7-7M165.7 155.7l7-7M161.7 155.7l6.9-7M157.8 155.7l7-7M153.7 155.7l7-7M149.7 155.7l6.9-7M145.6 155.7l6.9-7M141.7 155.7l7-7M137.7 155.7l6.9-7M133.6 155.7l6.9-7M129.7 155.7l7-7M125.7 155.7l6.9-7M121.6 155.7l6.9-7M117.5 155.7l7-7M113.7 155.7l6.9-7M109.6 155.7l6.9-7M105.5 155.7l7-7M101.7 155.7l6.9-7M97.6 155.7l6.9-7M93.5 155.7l7-7M89.7 155.7l6.9-7M85.6 155.7l6.9-7M81.5 155.7l7-7M77.4 155.7l7-7M76.5 152.8l4-4.1M76.5 148.9v-.2"/><path class="cls-16" d="M208.5 148.7H76.2M123.5 155.7H76.2M215.4 155.7h-87.6M123.5 155.7H76.2M208.5 148.7H76.2M215.4 155.7h-87.6"/><path class="cls-19" d="M.1 148.7l7.2 7h10.8v-7H.1"/><path class="cls-14" d="M18.4 149.7l-1.2-1M18.4 153.7l-5.3-5M16.2 155.7l-6.9-7M12.1 155.7l-6.9-7M8.1 155.7l-7-7M17.4 155.7l1-1M13.3 155.7l5.1-4.8M9.3 155.7l6.9-7M6.4 154.7l6-6M4.5 152.8l3.8-4.1M2.3 150.6l1.9-1.9M.4 148.7"/><path class="cls-19" d="M.1 148.7l7.2 7h10.8v-7H.1"/><path class="cls-14" d="M18.4 149.7l-1.2-1M18.4 153.7l-5.3-5M16.2 155.7l-6.9-7M12.1 155.7l-6.9-7M8.1 155.7l-7-7M17.4 155.7l1-1M13.3 155.7l5.1-4.8M9.3 155.7l6.9-7M6.4 154.7l6-6M4.5 152.8l3.8-4.1M2.3 150.6l1.9-1.9M.4 148.7"/><path class="cls-16" d="M18.1 148.7H.1M18.1 155.7H7.3M18.1 155.7H7.3M18.1 148.7H.1"/><path class="cls-19" d="M70.7 145.8l5.5 9.9V81l-5.5 10.1v54.7"/><path class="cls-14" d="M76.5 83.7l-1-1M76.5 87.5l-2.4-2.2M76.5 91.6l-3.9-3.9M76.5 95.7l-5.3-5.3M76.5 99.5L70.9 94M76.5 103.6l-5.6-5.5M76.5 107.7l-5.6-5.6M76.5 111.7l-5.6-5.5M76.5 115.6l-5.6-5.5M76.5 119.7l-5.6-5.6M76.5 123.7l-5.6-5.5M76.5 127.6l-5.6-5.5M76.5 131.7l-5.6-5.6M76.5 135.7l-5.6-5.5M76.5 139.6l-5.6-5.5M76.5 143.7l-5.6-5.6M76.5 147.7l-5.6-5.5M76.5 151.8l-5.1-5M75.3 153.7l1.2-.9M73.8 151.3l2.7-2.4M72.4 148.7l4.1-3.8M70.9 146.1l5.6-5.3M70.9 142.2l5.6-5.5M70.9 138.4l5.6-5.5M70.9 134.3l5.6-5.5M70.9 130.2l5.6-5.5M70.9 126.4l5.6-5.5M70.9 122.3l5.6-5.5M70.9 118.2l5.6-5.5M70.9 114.1l5.6-5.5M70.9 110.3l5.6-5.5M70.9 106.2l5.6-5.5M70.9 102.1l5.6-5.5M70.9 98.3l5.6-5.5M70.9 94.2l5.6-5.5M71.9 89.2l4.6-4.6"/><path class="cls-19" d="M70.7 145.8l5.5 9.9V81l-5.5 10.1v54.7"/><path class="cls-14" d="M76.5 83.7l-1-1M76.5 87.5l-2.4-2.2M76.5 91.6l-3.9-3.9M76.5 95.7l-5.3-5.3M76.5 99.5L70.9 94M76.5 103.6l-5.6-5.5M76.5 107.7l-5.6-5.6M76.5 111.7l-5.6-5.5M76.5 115.6l-5.6-5.5M76.5 119.7l-5.6-5.6M76.5 123.7l-5.6-5.5M76.5 127.6l-5.6-5.5M76.5 131.7l-5.6-5.6M76.5 135.7l-5.6-5.5M76.5 139.6l-5.6-5.5M76.5 143.7l-5.6-5.6M76.5 147.7l-5.6-5.5M76.5 151.8l-5.1-5M75.3 153.7l1.2-.9M73.8 151.3l2.7-2.4M72.4 148.7l4.1-3.8M70.9 146.1l5.6-5.3M70.9 142.2l5.6-5.5M70.9 138.4l5.6-5.5M70.9 134.3l5.6-5.5M70.9 130.2l5.6-5.5M70.9 126.4l5.6-5.5M70.9 122.3l5.6-5.5M70.9 118.2l5.6-5.5M70.9 114.1l5.6-5.5M70.9 110.3l5.6-5.5M70.9 106.2l5.6-5.5M70.9 102.1l5.6-5.5M70.9 98.3l5.6-5.5M70.9 94.2l5.6-5.5M71.9 89.2l4.6-4.6"/><path class="cls-16" d="M70.7 91.1v54.7M76.2 81v67.7M76.2 81v67.7M70.7 91.1v54.7M28 98.5h29.8v39.8H28z"/><path class="cls-15" d="M26.3 89.7h35.5M44.5 92.8H30.6M57.3 95.7H43.6M208.5 109.3h-34.1M208.5 101.7h-34.1M208.5 94h-34.1M208.5 86.5h-34.1M76.2 86.5h34.1M76.2 94h34.1M76.2 101.7h34.1M76.2 109.3h34.1M149.9 148.7l8.2-35.5M110.3 81.3h64.1v33.4h-64.1zM93.3 86.5l-3.9 3.6h7.7l-3.8-3.6zM169.1 114.6v34.1M161.4 114.6v34.1M153.7 114.6v34.1M146.1 114.6v34.1M138.4 114.6v34.1M130.9 114.6v34.1M123.3 114.6v34.1M115.6 114.6v34.1"/><path class="cls-15" d="M111.7 82.7h61.2v30.5h-61.2zM115.6 131.7l3.8 3.8v-7.7l-3.8 3.9zM153.7 131.7l3.9 3.8v-7.7l-3.9 3.9zM191.4 109.3l3.9-3.8h-7.7l3.8 3.8z"/><path class="cls-19" d="M18.1 40l7.2 7.2h144.8V40h-152"/><path class="cls-14" d="M170.3 41.2l-1.2-1.2M170.3 45l-5.3-5M168.1 47.2l-7.2-7.2M164.3 47.2l-7.2-7.2M160.2 47.2L153 40M156.1 47.2l-7.2-7.2M152.3 47.2l-7.2-7.2M148.2 47.2L141 40M144.1 47.2l-7.2-7.2M140.1 47.2l-7.2-7.2M136.2 47.2L129 40M132.1 47.2l-7.2-7.2M128.1 47.2l-7.2-7.2M124.2 47.2L117 40M120.1 47.2l-7.2-7.2M116.1 47.2l-7.2-7.2M112.2 47.2L105 40M108.1 47.2l-7.2-7.2M104.1 47.2L96.9 40M100 47.2L92.8 40M96.1 47.2L88.9 40M92.1 47.2L84.9 40M88 47.2L80.8 40M84.1 47.2L76.9 40M80.1 47.2L72.9 40M76 47.2L68.8 40M71.9 47.2L64.7 40M68.1 47.2L60.9 40M64 47.2L56.8 40M59.9 47.2L52.7 40M56.1 47.2L48.9 40M52 47.2L44.8 40M47.9 47.2L40.7 40M44.1 47.2L36.9 40M40 47.2L32.8 40M35.9 47.2L28.7 40M31.8 47.2L24.6 40M28 47.2L20.8 40M170.1 47.2l.2-.3M166 47.2l4.3-4.3M161.9 47.2l7.2-7.2M158.1 47.2l7.2-7.2M154 47.2l7.2-7.2M149.9 47.2l7.2-7.2M145.8 47.2L153 40M142 47.2l7.2-7.2M137.9 47.2l7.2-7.2M133.8 47.2L141 40M130 47.2l7.2-7.2M125.9 47.2l7.2-7.2M121.8 47.2L129 40M117.7 47.2l7.2-7.2M113.9 47.2l7.2-7.2M109.8 47.2L117 40M105.7 47.2l7.2-7.2M101.9 47.2l7.2-7.2M97.8 47.2L105 40M93.7 47.2l7.2-7.2M89.9 47.2l7.2-7.2M85.8 47.2L93 40M81.7 47.2l7.2-7.2M77.7 47.2l7.2-7.2M73.8 47.2L81 40M69.7 47.2l7.2-7.2M65.7 47.2l7.2-7.2M61.8 47.2L69 40M57.7 47.2l7.2-7.2M53.7 47.2l7.2-7.2M49.8 47.2L57 40M45.7 47.2l7.2-7.2M41.7 47.2l7.2-7.2M37.6 47.2l7.2-7.2M33.7 47.2l7.2-7.2M29.7 47.2l7.2-7.2M25.6 47.2l7.2-7.2M23.7 45.3l5.2-5.3M21.5 43.3l3.4-3.3M19.6 41.2l1.2-1.2"/><path class="cls-19" d="M18.1 40l7.2 7.2h144.8V40h-152"/><path class="cls-14" d="M170.3 41.2l-1.2-1.2M170.3 45l-5.3-5M168.1 47.2l-7.2-7.2M164.3 47.2l-7.2-7.2M160.2 47.2L153 40M156.1 47.2l-7.2-7.2M152.3 47.2l-7.2-7.2M148.2 47.2L141 40M144.1 47.2l-7.2-7.2M140.1 47.2l-7.2-7.2M136.2 47.2L129 40M132.1 47.2l-7.2-7.2M128.1 47.2l-7.2-7.2M124.2 47.2L117 40M120.1 47.2l-7.2-7.2M116.1 47.2l-7.2-7.2M112.2 47.2L105 40M108.1 47.2l-7.2-7.2M104.1 47.2L96.9 40M100 47.2L92.8 40M96.1 47.2L88.9 40M92.1 47.2L84.9 40M88 47.2L80.8 40M84.1 47.2L76.9 40M80.1 47.2L72.9 40M76 47.2L68.8 40M71.9 47.2L64.7 40M68.1 47.2L60.9 40M64 47.2L56.8 40M59.9 47.2L52.7 40M56.1 47.2L48.9 40M52 47.2L44.8 40M47.9 47.2L40.7 40M44.1 47.2L36.9 40M40 47.2L32.8 40M35.9 47.2L28.7 40M31.8 47.2L24.6 40M28 47.2L20.8 40M170.1 47.2l.2-.3M166 47.2l4.3-4.3M161.9 47.2l7.2-7.2M158.1 47.2l7.2-7.2M154 47.2l7.2-7.2M149.9 47.2l7.2-7.2M145.8 47.2L153 40M142 47.2l7.2-7.2M137.9 47.2l7.2-7.2M133.8 47.2L141 40M130 47.2l7.2-7.2M125.9 47.2l7.2-7.2M121.8 47.2L129 40M117.7 47.2l7.2-7.2M113.9 47.2l7.2-7.2M109.8 47.2L117 40M105.7 47.2l7.2-7.2M101.9 47.2l7.2-7.2M97.8 47.2L105 40M93.7 47.2l7.2-7.2M89.9 47.2l7.2-7.2M85.8 47.2L93 40M81.7 47.2l7.2-7.2M77.7 47.2l7.2-7.2M73.8 47.2L81 40M69.7 47.2l7.2-7.2M65.7 47.2l7.2-7.2M61.8 47.2L69 40M57.7 47.2l7.2-7.2M53.7 47.2l7.2-7.2M49.8 47.2L57 40M45.7 47.2l7.2-7.2M41.7 47.2l7.2-7.2M37.6 47.2l7.2-7.2M33.7 47.2l7.2-7.2M29.7 47.2l7.2-7.2M25.6 47.2l7.2-7.2M23.7 45.3l5.2-5.3M21.5 43.3l3.4-3.3M19.6 41.2l1.2-1.2"/><path class="cls-16" d="M170.1 40h-152M170.1 47.2H25.3M170.1 47.2H25.3M170.1 40h-152"/><path class="cls-19" d="M205.8 47.2h2.7l6.9-7.2h-9.6v7.2"/><path class="cls-14" d="M214.5 41.2l-1.2-1.2M212.3 43.3l-3.1-3.3M210.4 45.3l-4.3-4.6M208.2 47.2l-2.1-2.4M206.1 47.2l7.2-7.2M206.1 43.3l3.1-3.3"/><path class="cls-19" d="M205.8 47.2h2.7l6.9-7.2h-9.6v7.2"/><path class="cls-14" d="M214.5 41.2l-1.2-1.2M212.3 43.3l-3.1-3.3M210.4 45.3l-4.3-4.6M208.2 47.2l-2.1-2.4M206.1 47.2l7.2-7.2M206.1 43.3l3.1-3.3"/><path class="cls-16" d="M208.5 47.2h-2.7M208.5 47.2h-2.7"/><path class="cls-15" d="M203.2 39.5h2.6v1.7h-2.6zM170.1 39.5h6v1.7h-6zM176.1 39.5h27.1v1.7h-27.1zM203.2 41.2h-27.1"/><path class="cls-1" d="M203.7 47.2h-27.9"/><path class="cls-15" d="M176.3 47.2h-.5"/><path class="cls-19" d="M205.8 47.2h-2.1v-6h2.1"/><path class="cls-14" d="M206.1 44.8l-2.2-2.2M204.4 47.2l-.5-.5M203.9 45.5l2.2-2.2M203.9 41.4l.2-.2"/><path class="cls-19" d="M170.1 47.2h5.7v-6h-5.7"/><path class="cls-14" d="M176.1 42.9l-2-1.7M176.1 46.9l-5.8-5.7M172.2 47.2l-1.9-2.2M173.9 47.2l2.2-1.9M170.3 46.9l5.8-5.7M170.3 42.9l1.7-1.7"/><path class="cls-16" d="M203.7 47.2v-6M175.8 47.2v-6M203.7 47.2v-6M205.8 47.2h-2.1M175.8 47.2v-6M170.1 47.2h5.7M205.8 40v1.2M170.1 40v1.2M205.8 47.2h-2.1M170.1 47.2h5.7M203.7 41.2h2.1M175.8 41.2h-5.7"/><path class="cls-19" d="M320.3 69.7l-7.2 7.2v180.8h7.2v-188"/><path class="cls-14" d="M320.5 71.2l-.7-.7M320.5 75l-2.8-2.6M320.5 79.1l-4.8-4.6M320.5 83.2l-6.7-6.7M320.5 87l-7.2-7.2M320.5 91.1l-7.2-7.2M320.5 95.2l-7.2-7.2M320.5 99.3l-7.2-7.2M320.5 103.1l-7.2-7.2M320.5 107.2l-7.2-7.2M320.5 111.3l-7.2-7.2M320.5 115.1l-7.2-7.2M320.5 119.2l-7.2-7.2M320.5 123.3l-7.2-7.2M320.5 127.1l-7.2-7.2M320.5 131.2l-7.2-7.2M320.5 135.3l-7.2-7.2M320.5 139.3l-7.2-7.2M320.5 143.2l-7.2-7.2M320.5 147.3l-7.2-7.2M320.5 151.3l-7.2-7.2M320.5 155.2l-7.2-7.2M320.5 159.3l-7.2-7.2M320.5 163.3l-7.2-7.2M320.5 167.4l-7.2-7.2M320.5 171.3l-7.2-7.2M320.5 175.3l-7.2-7.2M320.5 179.4l-7.2-7.2M320.5 183.3l-7.2-7.2M320.5 187.3l-7.2-7.2M320.5 191.4l-7.2-7.2M320.5 195.3l-7.2-7.2M320.5 199.3l-7.2-7.2M320.5 203.4l-7.2-7.2M320.5 207.5l-7.2-7.2M320.5 211.3l-7.2-7.2M320.5 215.4l-7.2-7.2M320.5 219.5l-7.2-7.2M320.5 223.3l-7.2-7.2M320.5 227.4l-7.2-7.2M320.5 231.5l-7.2-7.2M320.5 235.3l-7.2-7.2M320.5 239.4l-7.2-7.2M320.5 243.5l-7.2-7.2M320.5 247.6l-7.2-7.2M320.5 251.4l-7.2-7.2M320.5 255.5l-7.2-7.2M318.6 257.7l-5.3-5.3M314.5 257.7l-1.2-1.5M320.3 257.7l.2-.3M316.2 257.7l4.3-4.1M313.3 256.7l7.2-7.2M313.3 252.6l7.2-7.2M313.3 248.8l7.2-7.2M313.3 244.7l7.2-7.2M313.3 240.6l7.2-7.2M313.3 236.5l7.2-7.2M313.3 232.7l7.2-7.2M313.3 228.6l7.2-7.2M313.3 224.5l7.2-7.2M313.3 220.7l7.2-7.2M313.3 216.6l7.2-7.2M313.3 212.5l7.2-7.2M313.3 208.7l7.2-7.2M313.3 204.6l7.2-7.2M313.3 200.5l7.2-7.2M313.3 196.5l7.2-7.2M313.3 192.6l7.2-7.2M313.3 188.5l7.2-7.2M313.3 184.5l7.2-7.2M313.3 180.6l7.2-7.2M313.3 176.5l7.2-7.2M313.3 172.5l7.2-7.2M313.3 168.6l7.2-7.2M313.3 164.5l7.2-7.2M313.3 160.5l7.2-7.2M313.3 156.4l7.2-7.2M313.3 152.5l7.2-7.2M313.3 148.5l7.2-7.2M313.3 144.4l7.2-7.2M313.3 140.5l7.2-7.2M313.3 136.5l7.2-7.2M313.3 132.4l7.2-7.2M313.3 128.5l7.2-7.2M313.3 124.5l7.2-7.2M313.3 120.4l7.2-7.2M313.3 116.3l7.2-7.2M313.3 112.5l7.2-7.2M313.3 108.4l7.2-7.2M313.3 104.3l7.2-7.2M313.3 100.5l7.2-7.2M313.3 96.4l7.2-7.2M313.3 92.3l7.2-7.2M313.3 88.2l7.2-7.2M313.3 84.4l7.2-7.2M313.3 80.3l7.2-7.2"/><path class="cls-19" d="M320.3 69.7l-7.2 7.2v180.8h7.2v-188"/><path class="cls-14" d="M320.5 71.2l-.7-.7M320.5 75l-2.8-2.6M320.5 79.1l-4.8-4.6M320.5 83.2l-6.7-6.7M320.5 87l-7.2-7.2M320.5 91.1l-7.2-7.2M320.5 95.2l-7.2-7.2M320.5 99.3l-7.2-7.2M320.5 103.1l-7.2-7.2M320.5 107.2l-7.2-7.2M320.5 111.3l-7.2-7.2M320.5 115.1l-7.2-7.2M320.5 119.2l-7.2-7.2M320.5 123.3l-7.2-7.2M320.5 127.1l-7.2-7.2M320.5 131.2l-7.2-7.2M320.5 135.3l-7.2-7.2M320.5 139.3l-7.2-7.2M320.5 143.2l-7.2-7.2M320.5 147.3l-7.2-7.2M320.5 151.3l-7.2-7.2M320.5 155.2l-7.2-7.2M320.5 159.3l-7.2-7.2M320.5 163.3l-7.2-7.2M320.5 167.4l-7.2-7.2M320.5 171.3l-7.2-7.2M320.5 175.3l-7.2-7.2M320.5 179.4l-7.2-7.2M320.5 183.3l-7.2-7.2M320.5 187.3l-7.2-7.2M320.5 191.4l-7.2-7.2M320.5 195.3l-7.2-7.2M320.5 199.3l-7.2-7.2M320.5 203.4l-7.2-7.2M320.5 207.5l-7.2-7.2M320.5 211.3l-7.2-7.2M320.5 215.4l-7.2-7.2M320.5 219.5l-7.2-7.2M320.5 223.3l-7.2-7.2M320.5 227.4l-7.2-7.2M320.5 231.5l-7.2-7.2M320.5 235.3l-7.2-7.2M320.5 239.4l-7.2-7.2M320.5 243.5l-7.2-7.2M320.5 247.6l-7.2-7.2M320.5 251.4l-7.2-7.2M320.5 255.5l-7.2-7.2M318.6 257.7l-5.3-5.3M314.5 257.7l-1.2-1.5M320.3 257.7l.2-.3M316.2 257.7l4.3-4.1M313.3 256.7l7.2-7.2M313.3 252.6l7.2-7.2M313.3 248.8l7.2-7.2M313.3 244.7l7.2-7.2M313.3 240.6l7.2-7.2M313.3 236.5l7.2-7.2M313.3 232.7l7.2-7.2M313.3 228.6l7.2-7.2M313.3 224.5l7.2-7.2M313.3 220.7l7.2-7.2M313.3 216.6l7.2-7.2M313.3 212.5l7.2-7.2M313.3 208.7l7.2-7.2M313.3 204.6l7.2-7.2M313.3 200.5l7.2-7.2M313.3 196.5l7.2-7.2M313.3 192.6l7.2-7.2M313.3 188.5l7.2-7.2M313.3 184.5l7.2-7.2M313.3 180.6l7.2-7.2M313.3 176.5l7.2-7.2M313.3 172.5l7.2-7.2M313.3 168.6l7.2-7.2M313.3 164.5l7.2-7.2M313.3 160.5l7.2-7.2M313.3 156.4l7.2-7.2M313.3 152.5l7.2-7.2M313.3 148.5l7.2-7.2M313.3 144.4l7.2-7.2M313.3 140.5l7.2-7.2M313.3 136.5l7.2-7.2M313.3 132.4l7.2-7.2M313.3 128.5l7.2-7.2M313.3 124.5l7.2-7.2M313.3 120.4l7.2-7.2M313.3 116.3l7.2-7.2M313.3 112.5l7.2-7.2M313.3 108.4l7.2-7.2M313.3 104.3l7.2-7.2M313.3 100.5l7.2-7.2M313.3 96.4l7.2-7.2M313.3 92.3l7.2-7.2M313.3 88.2l7.2-7.2M313.3 84.4l7.2-7.2M313.3 80.3l7.2-7.2"/><path class="cls-16" d="M320.3 257.7v-188M313.1 150.9v-74M313.1 257.7v-102M313.1 150.9v-74M320.3 257.7v-188M313.1 257.7v-102M320.3 257.7h-7.2M313.1 155.7v-4.8"/><path class="cls-19" d="M313.1 155.7v-4.8h-56.9l-4.1 4.8h61"/><path class="cls-14" d="M254.3 155.7l4.8-4.8M258.4 155.7l4.8-4.8M262.7 155.7l4.8-4.8M267 155.7l4.8-4.8M271.1 155.7l4.8-4.8M275.4 155.7l4.8-4.8M279.7 155.7l4.8-4.8M284.1 155.7l4.8-4.8M288.1 155.7l4.8-4.8M292.5 155.7l4.8-4.8M296.8 155.7l4.8-4.8M300.9 155.7l4.8-4.8M305.2 155.7l4.8-4.8M309.5 155.7l3.8-3.9"/><path class="cls-19" d="M313.1 155.7v-4.8h-56.9l-4.1 4.8h61"/><path class="cls-14" d="M254.3 155.7l4.8-4.8M258.4 155.7l4.8-4.8M262.7 155.7l4.8-4.8M267 155.7l4.8-4.8M271.1 155.7l4.8-4.8M275.4 155.7l4.8-4.8M279.7 155.7l4.8-4.8M284.1 155.7l4.8-4.8M288.1 155.7l4.8-4.8M292.5 155.7l4.8-4.8M296.8 155.7l4.8-4.8M300.9 155.7l4.8-4.8M305.2 155.7l4.8-4.8M309.5 155.7l3.8-3.9"/><path class="cls-16" d="M252.1 155.7h61M256.2 150.9h56.9M256.2 150.9h56.9M252.1 155.7h61M313.1 150.9v4.8"/><path class="cls-19" d="M252.1 12.6v64.3l7-7.2V5.4l-7 7.2"/><path class="cls-14" d="M259.3 5.9l-.2-.2M259.3 10l-2.4-2.4M259.3 13.8L255 9.7M259.3 17.9l-6.2-6.2M259.3 22l-6.9-7M259.3 25.8l-6.9-6.9M259.3 29.9l-6.9-7M259.3 34l-6.9-7M259.3 38.1l-6.9-7M259.3 41.9l-6.9-7M259.3 46l-6.9-7M259.3 50.1l-6.9-7M259.3 53.9l-6.9-7M259.3 58l-6.9-7M259.3 62.1l-6.9-7M259.3 65.9l-6.9-7M259.1 70l-6.7-7M257.2 71.9l-4.8-4.8M255.3 74.1l-2.9-2.9M253.1 76l-.7-1M252.4 73.1l6.9-7M252.4 69l6.9-6.9M252.4 65.2l6.9-7M252.4 61.1l6.9-7M252.4 57l6.9-6.9M252.4 53.2l6.9-7M252.4 49.1l6.9-7M252.4 45l6.9-6.9M252.4 40.9l6.9-6.9M252.4 37.1l6.9-7M252.4 33l6.9-6.9M252.4 28.9l6.9-6.9M252.4 25.1l6.9-7M252.4 21l6.9-6.9M252.4 16.9l6.9-6.9M252.4 13.1l6.9-7"/><path class="cls-19" d="M252.1 12.6v64.3l7-7.2V5.4l-7 7.2"/><path class="cls-14" d="M259.3 5.9l-.2-.2M259.3 10l-2.4-2.4M259.3 13.8L255 9.7M259.3 17.9l-6.2-6.2M259.3 22l-6.9-7M259.3 25.8l-6.9-6.9M259.3 29.9l-6.9-7M259.3 34l-6.9-7M259.3 38.1l-6.9-7M259.3 41.9l-6.9-7M259.3 46l-6.9-7M259.3 50.1l-6.9-7M259.3 53.9l-6.9-7M259.3 58l-6.9-7M259.3 62.1l-6.9-7M259.3 65.9l-6.9-7M259.1 70l-6.7-7M257.2 71.9l-4.8-4.8M255.3 74.1l-2.9-2.9M253.1 76l-.7-1M252.4 73.1l6.9-7M252.4 69l6.9-6.9M252.4 65.2l6.9-7M252.4 61.1l6.9-7M252.4 57l6.9-6.9M252.4 53.2l6.9-7M252.4 49.1l6.9-7M252.4 45l6.9-6.9M252.4 40.9l6.9-6.9M252.4 37.1l6.9-7M252.4 33l6.9-6.9M252.4 28.9l6.9-6.9M252.4 25.1l6.9-7M252.4 21l6.9-6.9M252.4 16.9l6.9-6.9M252.4 13.1l6.9-7"/><path class="cls-16" d="M259.1 69.7V5.4M252.1 76.9V12.6M252.1 76.9V12.6M259.1 69.7V5.4"/><path class="cls-19" d="M259.1 69.7l-7 7.2h61l7.2-7.2h-61.2"/><path class="cls-14" d="M319.8 70.5l-.7-.8M317.7 72.4l-2.7-2.7M315.7 74.5l-4.8-4.8M313.8 76.5l-6.7-6.8M310.2 76.9l-7.2-7.2M306.1 76.9l-7.2-7.2M302.3 76.9l-7.2-7.2M298.2 76.9l-7.2-7.2M294.1 76.9l-7.2-7.2M290.3 76.9l-7.2-7.2M286.2 76.9l-7.2-7.2M282.1 76.9l-7.2-7.2M278.1 76.9l-7.2-7.2M274.2 76.9l-7.2-7.2M270.1 76.9l-7.2-7.2M266.1 76.9l-7-6.9M262.2 76.9l-5-5M258.1 76.9l-2.8-2.8M254.1 76.9l-1-.9M312.6 76.9l7.2-7.2M308.5 76.9l7.2-7.2M304.5 76.9l7.2-7.2M300.6 76.9l7.2-7.2M296.5 76.9l7.2-7.2M292.5 76.9l7.2-7.2M288.6 76.9l7.2-7.2M284.5 76.9l7.2-7.2M280.5 76.9l7.2-7.2M276.6 76.9l7.2-7.2M272.5 76.9l7.2-7.2M268.5 76.9l7.2-7.2M264.4 76.9l7.2-7.2M260.5 76.9l7.2-7.2M256.5 76.9l7.2-7.2M252.4 76.9l7.2-7.2"/><path class="cls-19" d="M259.1 69.7l-7 7.2h61l7.2-7.2h-61.2"/><path class="cls-14" d="M319.8 70.5l-.7-.8M317.7 72.4l-2.7-2.7M315.7 74.5l-4.8-4.8M313.8 76.5l-6.7-6.8M310.2 76.9l-7.2-7.2M306.1 76.9l-7.2-7.2M302.3 76.9l-7.2-7.2M298.2 76.9l-7.2-7.2M294.1 76.9l-7.2-7.2M290.3 76.9l-7.2-7.2M286.2 76.9l-7.2-7.2M282.1 76.9l-7.2-7.2M278.1 76.9l-7.2-7.2M274.2 76.9l-7.2-7.2M270.1 76.9l-7.2-7.2M266.1 76.9l-7-6.9M262.2 76.9l-5-5M258.1 76.9l-2.8-2.8M254.1 76.9l-1-.9M312.6 76.9l7.2-7.2M308.5 76.9l7.2-7.2M304.5 76.9l7.2-7.2M300.6 76.9l7.2-7.2M296.5 76.9l7.2-7.2M292.5 76.9l7.2-7.2M288.6 76.9l7.2-7.2M284.5 76.9l7.2-7.2M280.5 76.9l7.2-7.2M276.6 76.9l7.2-7.2M272.5 76.9l7.2-7.2M268.5 76.9l7.2-7.2M264.4 76.9l7.2-7.2M260.5 76.9l7.2-7.2M256.5 76.9l7.2-7.2M252.4 76.9l7.2-7.2"/><path class="cls-16" d="M320.3 69.7h-61.2M313.1 76.9h-56.9M313.1 76.9h-56.9M320.3 69.7h-61.2M256.2 76.9h-4.1"/><path class="cls-19" d="M256.2 76.9h-4.1v44.4h4.1V76.9"/><path class="cls-14" d="M252.4 81l4.1-4.1M252.4 85.3l4.1-4M252.4 89.7l4.1-4.1M252.4 93.7l4.1-4M252.4 98.1l4.1-4.1M252.4 102.4l4.1-4.1M252.4 106.7l4.1-4.1M252.4 110.8l4.1-4.1M252.4 115.1l4.1-4.1M252.4 119.4l4.1-4.1M254.5 121.3l2-1.9"/><path class="cls-19" d="M256.2 76.9h-4.1v44.4h4.1V76.9"/><path class="cls-14" d="M252.4 81l4.1-4.1M252.4 85.3l4.1-4M252.4 89.7l4.1-4.1M252.4 93.7l4.1-4M252.4 98.1l4.1-4.1M252.4 102.4l4.1-4.1M252.4 106.7l4.1-4.1M252.4 110.8l4.1-4.1M252.4 115.1l4.1-4.1M252.4 119.4l4.1-4.1M254.5 121.3l2-1.9"/><path class="cls-16" d="M256.2 121.3V76.9M252.1 121.3V76.9M252.1 121.3V76.9M256.2 121.3V76.9"/><path class="cls-19" d="M252.1 146.5v9.2l4.1-4.8v-4.4h-4.1"/><path class="cls-14" d="M252.4 149.2l2.4-2.7M252.4 153.3l4.1-4.1"/><path class="cls-19" d="M252.1 146.5v9.2l4.1-4.8v-4.4h-4.1"/><path class="cls-14" d="M252.4 149.2l2.4-2.7M252.4 153.3l4.1-4.1"/><path class="cls-16" d="M256.2 150.9v-4.4M252.1 155.7v-9.2M252.1 155.7v-9.2M256.2 150.9v-4.4M252.1 76.9h4.1"/><path class="cls-1" d="M256.2 146.5v-25.2M252.1 146.5v-25.2"/><path class="cls-15" d="M256.2 145.3h-4.1M256.2 122.5h-4.1"/><path class="cls-16" d="M256.2 146.5h-4.1M256.2 121.3h-4.1"/><path class="cls-14" d="M279 145.2c0-12.4-10.2-22.7-22.7-22.7M256.2 145.3H279"/><path class="cls-19" d="M7.3 155.7l-7.2-7v109h7.2v-102"/><path class="cls-14" d="M7.6 159l-7.2-7.2M7.6 163.1l-7.2-7.2M7.6 166.9l-7.2-7.2M7.6 171l-7.2-7.2M7.6 175.1l-7.2-7.2M7.6 178.9l-7.2-7.2M7.6 183l-7.2-7.2M7.6 187.1l-7.2-7.2M7.6 191.2L.4 184M7.6 195l-7.2-7.2M7.6 199.1l-7.2-7.2M7.6 203.2L.4 196M7.6 207l-7.2-7.2M7.6 211.1l-7.2-7.2M7.6 215.2L.4 208M7.6 219.3l-7.2-7.2M7.6 223.1l-7.2-7.2M7.6 227.2L.4 220M7.6 231.3l-7.2-7.2M7.6 235.1l-7.2-7.2M7.6 239.2L.4 232M7.6 243.3l-7.2-7.2M7.6 247.1l-7.2-7.2M7.6 251.2L.4 244M7.6 255.3l-7.2-7.2M5.9 257.7l-5.5-5.6M1.8 257.7L.4 256M3.5 257.7l4.1-3.9M.4 256.9l7.2-7.2M.4 252.9l7.2-7.2M.4 249l7.2-7.2M.4 244.9l7.2-7.2M.4 240.9l7.2-7.2M.4 237l7.2-7.2M.4 232.9l7.2-7.2M.4 228.9l7.2-7.2M.4 225l7.2-7.2M.4 220.9l7.2-7.2M.4 216.9l7.2-7.2M.4 212.8l7.2-7.2M.4 208.9l7.2-7.2M.4 204.9l7.2-7.2M.4 200.8l7.2-7.2M.4 196.9l7.2-7.2M.4 192.9l7.2-7.2M.4 188.8l7.2-7.2M.4 184.7l7.2-7.2M.4 180.9l7.2-7.2M.4 176.8l7.2-7.2M.4 172.7l7.2-7.2M.4 168.9l7.2-7.2M.4 164.8l7.2-7.2M.4 160.7l6-6M.4 156.9l4.1-4.1M.4 152.8l1.9-2.2M.4 148.7"/><path class="cls-19" d="M7.3 155.7l-7.2-7v109h7.2v-102"/><path class="cls-14" d="M7.6 159l-7.2-7.2M7.6 163.1l-7.2-7.2M7.6 166.9l-7.2-7.2M7.6 171l-7.2-7.2M7.6 175.1l-7.2-7.2M7.6 178.9l-7.2-7.2M7.6 183l-7.2-7.2M7.6 187.1l-7.2-7.2M7.6 191.2L.4 184M7.6 195l-7.2-7.2M7.6 199.1l-7.2-7.2M7.6 203.2L.4 196M7.6 207l-7.2-7.2M7.6 211.1l-7.2-7.2M7.6 215.2L.4 208M7.6 219.3l-7.2-7.2M7.6 223.1l-7.2-7.2M7.6 227.2L.4 220M7.6 231.3l-7.2-7.2M7.6 235.1l-7.2-7.2M7.6 239.2L.4 232M7.6 243.3l-7.2-7.2M7.6 247.1l-7.2-7.2M7.6 251.2L.4 244M7.6 255.3l-7.2-7.2M5.9 257.7l-5.5-5.6M1.8 257.7L.4 256M3.5 257.7l4.1-3.9M.4 256.9l7.2-7.2M.4 252.9l7.2-7.2M.4 249l7.2-7.2M.4 244.9l7.2-7.2M.4 240.9l7.2-7.2M.4 237l7.2-7.2M.4 232.9l7.2-7.2M.4 228.9l7.2-7.2M.4 225l7.2-7.2M.4 220.9l7.2-7.2M.4 216.9l7.2-7.2M.4 212.8l7.2-7.2M.4 208.9l7.2-7.2M.4 204.9l7.2-7.2M.4 200.8l7.2-7.2M.4 196.9l7.2-7.2M.4 192.9l7.2-7.2M.4 188.8l7.2-7.2M.4 184.7l7.2-7.2M.4 180.9l7.2-7.2M.4 176.8l7.2-7.2M.4 172.7l7.2-7.2M.4 168.9l7.2-7.2M.4 164.8l7.2-7.2M.4 160.7l6-6M.4 156.9l4.1-4.1M.4 152.8l1.9-2.2M.4 148.7"/><path class="cls-16" d="M7.3 257.7v-102M.1 257.7v-109M.1 257.7v-109M7.3 257.7v-102M7.3 257.7H.1"/><path class="cls-19" d="M205.8 40h9.6V7.3L205.8.1V40"/><path class="cls-14" d="M215.7 10.2L206.1.6M215.7 14.3l-9.6-9.6M215.7 18.4l-9.6-9.6M215.7 22.2l-9.6-9.6M215.7 26.3l-9.6-9.6M215.7 30.4l-9.6-9.6M215.7 34.5l-9.6-9.6M215.7 38.3l-9.6-9.6M213.3 40l-7.2-7.2M209.2 40l-3.1-3.1M213.3 40l2.4-2.4M209.2 40l6.5-6.3M206.1 39.3l9.6-9.6M206.1 35.2l9.6-9.6M206.1 31.3l9.6-9.6M206.1 27.3l9.6-9.6M206.1 23.2l9.6-9.6M206.1 19.3l9.6-9.6M206.1 15.3l8.4-8.7M206.1 11.2l6.2-6.3M206.1 7.1l3.8-3.8M206.1 3.3l1.6-2"/><path class="cls-19" d="M205.8 40h9.6V7.3L205.8.1V40"/><path class="cls-14" d="M215.7 10.2L206.1.6M215.7 14.3l-9.6-9.6M215.7 18.4l-9.6-9.6M215.7 22.2l-9.6-9.6M215.7 26.3l-9.6-9.6M215.7 30.4l-9.6-9.6M215.7 34.5l-9.6-9.6M215.7 38.3l-9.6-9.6M213.3 40l-7.2-7.2M209.2 40l-3.1-3.1M213.3 40l2.4-2.4M209.2 40l6.5-6.3M206.1 39.3l9.6-9.6M206.1 35.2l9.6-9.6M206.1 31.3l9.6-9.6M206.1 27.3l9.6-9.6M206.1 23.2l9.6-9.6M206.1 19.3l9.6-9.6M206.1 15.3l8.4-8.7M206.1 11.2l6.2-6.3M206.1 7.1l3.8-3.8M206.1 3.3l1.6-2"/><path class="cls-16" d="M205.8.1V40M215.4 7.3V40M215.4 7.3V40M205.8.1V40"/><path class="cls-19" d="M76.2 155.7l-5.5-9.9H25.3l-7.2 9.9h58.1"/><path class="cls-14" d="M71.4 146.8l-.9-1M76.2 155.7l-9.8-9.9M72.1 155.7l-9.8-9.9M68.3 155.7l-9.8-9.9M64.2 155.7l-9.8-9.9M60.1 155.7l-9.8-9.9M56.3 155.7l-9.8-9.9M52.2 155.7l-9.8-9.9M48.1 155.7l-9.8-9.9M44.3 155.7l-9.8-9.9M40.2 155.7l-9.8-9.9M36.1 155.7l-9.8-9.9M32.1 155.7l-8-8M28.2 155.7l-5.7-5.8M24.1 155.7l-3.3-3.4M20.1 155.7l-1-1.2M73.6 155.7l1.7-2M69.5 155.7l4.3-4.4M65.4 155.7l7-7M61.6 155.7l9.3-9.6M57.5 155.7l9.8-9.9M53.4 155.7l9.9-9.9M49.6 155.7l9.8-9.9M45.5 155.7l9.8-9.9M41.4 155.7l9.9-9.9M37.3 155.7l9.9-9.9M33.5 155.7l9.8-9.9M29.4 155.7l9.9-9.9M25.3 155.7l9.9-9.9M21.5 155.7l9.8-9.9M20.5 152.5l6.8-6.7"/><path class="cls-19" d="M76.2 155.7l-5.5-9.9H25.3l-7.2 9.9h58.1"/><path class="cls-14" d="M71.4 146.8l-.9-1M76.2 155.7l-9.8-9.9M72.1 155.7l-9.8-9.9M68.3 155.7l-9.8-9.9M64.2 155.7l-9.8-9.9M60.1 155.7l-9.8-9.9M56.3 155.7l-9.8-9.9M52.2 155.7l-9.8-9.9M48.1 155.7l-9.8-9.9M44.3 155.7l-9.8-9.9M40.2 155.7l-9.8-9.9M36.1 155.7l-9.8-9.9M32.1 155.7l-8-8M28.2 155.7l-5.7-5.8M24.1 155.7l-3.3-3.4M20.1 155.7l-1-1.2M73.6 155.7l1.7-2M69.5 155.7l4.3-4.4M65.4 155.7l7-7M61.6 155.7l9.3-9.6M57.5 155.7l9.8-9.9M53.4 155.7l9.9-9.9M49.6 155.7l9.8-9.9M45.5 155.7l9.8-9.9M41.4 155.7l9.9-9.9M37.3 155.7l9.9-9.9M33.5 155.7l9.8-9.9M29.4 155.7l9.9-9.9M25.3 155.7l9.9-9.9M21.5 155.7l9.8-9.9M20.5 152.5l6.8-6.7"/><path class="cls-16" d="M18.1 155.7h58.1M25.3 145.8h45.4M25.3 145.8h45.4M18.1 155.7h58.1"/><path class="cls-19" d="M127.8 155.7h-4.3v70.8h4.3v-70.8"/><path class="cls-14" d="M123.7 158.8l2.9-3.1M123.7 163.1l4.4-4.3M123.7 167.2l4.4-4.3M123.7 171.5l4.4-4.3M123.7 175.8l4.4-4.3M123.7 179.9l4.4-4.3M123.7 184.2l4.4-4.3M123.7 188.5l4.4-4.3M123.7 192.9l4.4-4.4M123.7 196.9l4.4-4.3M123.7 201.3l4.4-4.4M123.7 205.6l4.4-4.3M123.7 209.7l4.4-4.4M123.7 214l4.4-4.3M123.7 218.3l4.4-4.3M123.7 222.4l4.4-4.3M124 226.5l4.1-4.1"/><path class="cls-19" d="M127.8 155.7h-4.3v70.8h4.3v-70.8"/><path class="cls-14" d="M123.7 158.8l2.9-3.1M123.7 163.1l4.4-4.3M123.7 167.2l4.4-4.3M123.7 171.5l4.4-4.3M123.7 175.8l4.4-4.3M123.7 179.9l4.4-4.3M123.7 184.2l4.4-4.3M123.7 188.5l4.4-4.3M123.7 192.9l4.4-4.4M123.7 196.9l4.4-4.3M123.7 201.3l4.4-4.4M123.7 205.6l4.4-4.3M123.7 209.7l4.4-4.4M123.7 214l4.4-4.3M123.7 218.3l4.4-4.3M123.7 222.4l4.4-4.3M124 226.5l4.1-4.1"/><path class="cls-16" d="M127.8 226.5v-70.8M123.5 226.5v-70.8M123.5 226.5v-70.8M127.8 226.5v-70.8M127.8 252.6h-4.3M123.5 155.7h4.3"/><path class="cls-15" d="M127.8 250.9h-4.3M127.8 228.1h-4.3"/><path class="cls-16" d="M127.8 252.6h-4.3M127.8 226.5h-4.3"/><path class="cls-14" d="M100.8 228.2c0 12.4 10.2 22.7 22.7 22.7M123.5 228.1h-22.8"/><path class="cls-19" d="M289.8 135.6c-.9 1.3-.9 3 0 4.3 1.5 1.9 3.8 2.9 6.2 2.9l9-.3v-9.6l-9-.3c-2.4 0-4.7 1-6.2 2.9"/><path class="cls-15" d="M289.8 135.6c-.9 1.3-.9 3 0 4.3 1.5 1.9 3.8 2.9 6.2 2.9l9-.3v-9.6l-9-.3c-2.4 0-4.7 1-6.2 2.9"/><path class="cls-19" d="M299.9 137.7c0-1-.3-2-1.1-2.8-.7-.7-1.7-1.2-2.7-1.2-2.1 0-4.1.9-5.4 2.5-.6.9-.6 2 0 2.9 1.3 1.6 3.3 2.5 5.4 2.5 1 0 2-.4 2.7-1.2.7-.7 1.1-1.7 1.1-2.8"/><path class="cls-15" d="M299.9 137.7c0-1-.3-2-1.1-2.8-.7-.7-1.7-1.2-2.7-1.2-2.1 0-4.1.9-5.4 2.5-.6.9-.6 2 0 2.9 1.3 1.6 3.3 2.5 5.4 2.5 1 0 2-.4 2.7-1.2.7-.7 1.1-1.7 1.1-2.8"/><path class="cls-19" d="M256.5 86.5h48.4v22.6h-48.4V86.5"/><path class="cls-15" d="M256.5 86.5H305v22.6h-48.5zM303 86.5v22.6M305.7 150.9v-19.5"/><path class="cls-6" d="M304.9 150.9v-19.5"/><path class="cls-15" d="M307.1 150.9v-19.5M305.7 150.9v-19.5M304.9 150.9v-19.5M307.1 150.9v-19.5"/><path class="cls-6" d="M305.7 150.9h-.8"/><path class="cls-15" d="M307.1 150.9h-1.4M305.7 131.4V130"/><path class="cls-6" d="M304.9 131.4v-2.1"/><path class="cls-15" d="M305.7 131.4V130M304.9 131.4v-2.1M309.5 130v-18.5"/><path class="cls-6" d="M308.8 129.3v-17.1"/><path class="cls-15" d="M310.9 131.4v-21.3M309.5 130v-18.5M308.8 129.3v-17.1M310.9 131.4v-21.3M305.7 111.5v-1.4"/><path class="cls-6" d="M304.9 112.2v-2.1"/><path class="cls-15" d="M305.7 111.5v-1.4M304.9 112.2v-2.1M305.7 110.1v-24"/><path class="cls-6" d="M304.9 110.1v-24"/><path class="cls-15" d="M307.1 110.1v-24M305.7 110.1v-24"/><path class="cls-6" d="M305.7 86.1h-.8"/><path class="cls-15" d="M307.1 86.1h-1.4M304.9 110.1v-24M307.1 110.1v-24"/><path class="cls-19" d="M305 112.9h-12.4c-.1 0-.3.1-.4.2-.1.1-.2.2-.2.4V127.6c0 .1.1.3.2.4.1.1.2.2.4.2H305v-15.6"/><path class="cls-15" d="M305 112.9h-12.4c-.1 0-.3.1-.4.2-.1.1-.2.2-.2.4V127.6c0 .1.1.3.2.4.1.1.2.2.4.2H305v-15.6"/><path class="cls-13" d="M304.9 129.3h3.9"/><path class="cls-3" d="M308.8 129.3v-17.1"/><path class="cls-13" d="M308.8 112.2h-3.9"/><path class="cls-15" d="M309.5 111.5h-3.8"/><path class="cls-6" d="M308.8 112.2h-3.9"/><path class="cls-15" d="M310.9 110.1h-3.8M309.5 111.5h-3.8M308.8 112.2h-3.9M310.9 110.1h-3.8M305.7 130h3.8"/><path class="cls-6" d="M304.9 129.3h3.9"/><path class="cls-15" d="M307.1 131.4h3.8M305.7 130h3.8M304.9 129.3h3.9M307.1 131.4h3.8"/><path class="cls-6" d="M304.9 129.3v-17.1"/><path class="cls-15" d="M216.6 31.3h17v.7h-17zM216.6 16.2h.7v15.1h-.7zM233.2 16.2h.5v15.1h-.5z"/><path class="cls-15" d="M215.7 31.3h1v.7h-1zM216.6 15.5h17v.7h-17zM233.7 31.3h17v.7h-17zM233.7 16.2h.7v15.1h-.7zM250.2 16.2h.5v15.1h-.5zM233.7 15.5h17v.7h-17zM250.7 31.3h1.2v.7h-1.2z"/><path class="cls-18" d="M218.8 13.6h9.8v2.6h-9.8z"/><path class="cls-15" d="M218.8 13.6h9.8v2.6h-9.8zM218.5 16.2z"/><path class="cls-12" d="M219.5 16.2v8.7"/><path class="cls-5" d="M227.9 16.2l-.2 1.7-.5 1.7-.7 1.4-1 1.2-1.4 1.2-1.5.7-1.4.5-1.7.3"/><path class="cls-15" d="M295.3 174.9h17.3v77.8h-17.3zM297.5 251.4h-2.2M297.5 243h-2.2M297.5 226h-2.2M297.5 208.9h-2.2M297.5 191.9h-2.2M295.3 174.4h17.3v.5h-17.3zM295.3 157.3h.5v17h-.5zM295.8 157.3h15.4v.5h-15.4zM295.8 173.7h15.4v.7h-15.4zM295.3 156.1h.5v1.2h-.5zM311.2 157.3h.5v17h-.5z"/><path class="cls-19" d="M307.6 192.8h-8.9c-.3 0-.5 0-.8.2-.2.1-.5.2-.6.4-.2.2-.3.4-.4.6-.1.2-.2.5-.2.8V206c0 .3 0 .5.2.8 0 .2.2.5.4.6.2.2.4.3.6.4.2.1.5.2.8.2h8.9c.3 0 .5 0 .8-.2.2-.1.5-.2.6-.4.2-.2.3-.4.4-.6 0-.2.2-.5.2-.8v-11.2c0-.3 0-.5-.2-.8-.1-.2-.2-.5-.4-.6-.2-.2-.4-.3-.6-.4-.2-.1-.5-.2-.8-.2"/><path class="cls-15" d="M307.6 192.8h-8.9c-.3 0-.5 0-.8.2-.2.1-.5.2-.6.4-.2.2-.3.4-.4.6-.1.2-.2.5-.2.8V206c0 .3 0 .5.2.8 0 .2.2.5.4.6.2.2.4.3.6.4.2.1.5.2.8.2h8.9c.3 0 .5 0 .8-.2.2-.1.5-.2.6-.4.2-.2.3-.4.4-.6 0-.2.2-.5.2-.8v-11.2c0-.3 0-.5-.2-.8-.1-.2-.2-.5-.4-.6-.2-.2-.4-.3-.6-.4-.2-.1-.5-.2-.8-.2"/><path class="cls-19" d="M307.3 200.4c0-.6-.5-1.1-1.1-1.1s-1.1.5-1.1 1.1.5 1.1 1.1 1.1 1.1-.5 1.1-1.1"/><path class="cls-15" d="M307.3 200.4c0-.6-.5-1.1-1.1-1.1s-1.1.5-1.1 1.1.5 1.1 1.1 1.1 1.1-.5 1.1-1.1"/><path class="cls-18" d="M296.8 226.5h14.4v15.8h-14.4z"/><path class="cls-15" d="M296.8 226.5h14.4v15.8h-14.4z"/><path class="cls-19" d="M304.2 238.5c0-1.6-1.2-2.9-2.8-2.9s-2.8 1.3-2.8 2.9 1.2 2.9 2.8 2.9 2.8-1.3 2.8-2.9"/><path class="cls-15" d="M304.2 238.5c0-1.6-1.2-2.9-2.8-2.9s-2.8 1.3-2.8 2.9 1.2 2.9 2.8 2.9 2.8-1.3 2.8-2.9"/><path class="cls-19" d="M310.5 239.4c0-1.2-1-2.2-2.3-2.2s-2.3 1-2.3 2.2 1 2.2 2.3 2.2 2.3-1 2.3-2.2"/><path class="cls-15" d="M310.5 239.4c0-1.2-1-2.2-2.3-2.2s-2.3 1-2.3 2.2 1 2.2 2.3 2.2 2.3-1 2.3-2.2"/><path class="cls-19" d="M303.5 230.8c0-1.2-1-2.2-2.2-2.2s-2.2 1-2.2 2.2 1 2.2 2.2 2.2 2.2-1 2.2-2.2"/><path class="cls-15" d="M303.5 230.8c0-1.2-1-2.2-2.2-2.2s-2.2 1-2.2 2.2 1 2.2 2.2 2.2 2.2-1 2.2-2.2"/><path class="cls-19" d="M310.7 231.1c0-1.5-1.3-2.8-2.9-2.8s-2.9 1.2-2.9 2.8 1.3 2.8 2.9 2.8 2.9-1.2 2.9-2.8"/><path class="cls-15" d="M310.7 231.1c0-1.5-1.3-2.8-2.9-2.8s-2.9 1.2-2.9 2.8 1.3 2.8 2.9 2.8 2.9-1.2 2.9-2.8"/><path class="cls-1" d="M302.5 156.1v96.5"/><path class="cls-15" d="M216.1 267.3l7.2 40.8h80.9l7.5-40.8"/><path class="cls-15" d="M214.2 267.3l7.7 42.4h83.8l7.6-42.4"/><path class="cls-19" d="M18.1 91.1l5.6-7.9h-5.6v7.9"/><path class="cls-14" d="M22.2 85.6l-2.4-2.4M20.5 88l-2.1-2.4M18.9 90.1l-.5-.4M18.4 90.6l.9-.9M18.4 86.5l3.3-3.3"/><path class="cls-19" d="M18.1 91.1l5.6-7.9h-5.6v7.9"/><path class="cls-14" d="M22.2 85.6l-2.4-2.4M20.5 88l-2.1-2.4M18.9 90.1l-.5-.4M18.4 90.6l.9-.9M18.4 86.5l3.3-3.3"/><path class="cls-16" d="M18.1 83.2v7.9M18.1 83.2v7.9"/><path class="cls-19" d="M25.3 47.4v-.2L18.1 40v7.4h7.2"/><path class="cls-14" d="M24.1 47.4l-5.7-6M20.1 47.4l-1.7-1.9M25.3 47.4h.3M21.5 47.4l2.2-2.1M18.4 46.5l3.1-3.2M18.4 42.6l1.2-1.4"/><path class="cls-19" d="M25.3 47.4v-.2L18.1 40v7.4h7.2"/><path class="cls-14" d="M24.1 47.4l-5.7-6M20.1 47.4l-1.7-1.9M25.3 47.4h.3M21.5 47.4l2.2-2.1M18.4 46.5l3.1-3.2M18.4 42.6l1.2-1.4"/><path class="cls-16" d="M18.1 40v7.4M25.3 47.2v.2M25.3 47.2v.2M18.1 40v7.4"/><path class="cls-15" d="M17.7 47.4h1.7V50h-1.7zM17.7 77.2h1.7v6h-1.7zM17.7 50.1h1.7v27.1h-1.7zM19.3 50.1v27.1"/><path class="cls-1" d="M25.3 49.8v27.6"/><path class="cls-15" d="M25.3 76.9v.5"/><path class="cls-19" d="M25.3 47.4v2.4h-6v-2.4"/><path class="cls-14" d="M25.6 48.6l-1.5-1.2M22.5 49.8l-2.4-2.4M22.9 49.8l2.4-2.4M19.6 49.3l1.9-1.9"/><path class="cls-19" d="M25.3 83.2v-5.8h-6v5.8"/><path class="cls-14" d="M25.6 80.8L22 77.4M23.9 83.2l-4.3-4.3M19.8 83.2l-.2-.5M21.7 83.2l3.9-3.9M19.6 81.5l3.8-4.1M19.6 77.4"/><path class="cls-16" d="M25.3 49.8h-6M25.3 77.4h-6M25.3 49.8h-6M25.3 47.4v2.4M25.3 77.4h-6M25.3 83.2v-5.8M18.1 47.4h1.2M18.1 83.2h1.2M25.3 47.4v2.4M25.3 83.2v-5.8M19.3 49.8v-2.4M19.3 77.4v5.8"/><path class="cls-19" d="M18.1 155.7l7.2-9.9V91.1h-7.2v64.6"/><path class="cls-14" d="M25.6 92.8l-1.9-1.7M25.6 96.9l-5.8-5.8M25.6 100.9l-7.2-7.2M25.6 104.8l-7.2-7.2M25.6 108.9l-7.2-7.2M25.6 112.9l-7.2-7.2M25.6 116.8l-7.2-7.2M25.6 120.9l-7.2-7.2M25.6 124.9l-7.2-7.2M25.6 129l-7.2-7.2M25.6 132.9l-7.2-7.2M25.6 136.9l-7.2-7.2M25.6 141l-7.2-7.2M25.6 144.9l-7.2-7.2M24.1 147.7l-5.7-6M22.5 149.9l-4.1-4.1M20.8 152.3l-2.4-2.6M19.1 154.5l-.7-.8M18.4 154.7l2.1-2.2M18.4 150.9l7.2-7.2M18.4 146.8l7.2-7.2M18.4 142.7l7.2-7.2M18.4 138.9l7.2-7.2M18.4 134.8l7.2-7.2M18.4 130.7l7.2-7.2M18.4 126.6l7.2-7.2M18.4 122.8l7.2-7.2M18.4 118.7l7.2-7.2M18.4 114.6l7.2-7.2M18.4 110.8l7.2-7.2M18.4 106.7l7.2-7.2M18.4 102.6l7.2-7.2M18.4 98.8l7.2-7.2M18.4 94.7l3.3-3.6"/><path class="cls-19" d="M18.1 155.7l7.2-9.9V91.1h-7.2v64.6"/><path class="cls-14" d="M25.6 92.8l-1.9-1.7M25.6 96.9l-5.8-5.8M25.6 100.9l-7.2-7.2M25.6 104.8l-7.2-7.2M25.6 108.9l-7.2-7.2M25.6 112.9l-7.2-7.2M25.6 116.8l-7.2-7.2M25.6 120.9l-7.2-7.2M25.6 124.9l-7.2-7.2M25.6 129l-7.2-7.2M25.6 132.9l-7.2-7.2M25.6 136.9l-7.2-7.2M25.6 141l-7.2-7.2M25.6 144.9l-7.2-7.2M24.1 147.7l-5.7-6M22.5 149.9l-4.1-4.1M20.8 152.3l-2.4-2.6M19.1 154.5l-.7-.8M18.4 154.7l2.1-2.2M18.4 150.9l7.2-7.2M18.4 146.8l7.2-7.2M18.4 142.7l7.2-7.2M18.4 138.9l7.2-7.2M18.4 134.8l7.2-7.2M18.4 130.7l7.2-7.2M18.4 126.6l7.2-7.2M18.4 122.8l7.2-7.2M18.4 118.7l7.2-7.2M18.4 114.6l7.2-7.2M18.4 110.8l7.2-7.2M18.4 106.7l7.2-7.2M18.4 102.6l7.2-7.2M18.4 98.8l7.2-7.2M18.4 94.7l3.3-3.6"/><path class="cls-16" d="M18.1 91.1v57.6M25.3 91.1v54.7M25.3 91.1v54.7M18.1 91.1v57.6"/><path class="cls-19" d="M70.7 91.1L76.2 81H60.9v10.1h9.8"/><path class="cls-14" d="M75.5 82.7L73.8 81M74.1 85.3L69.7 81M72.6 87.7L65.7 81M71.2 90.4L61.8 81M67.8 91.1l-6.7-7M63.7 91.1l-2.6-2.9M70 91.1l1.9-1.9M65.9 91.1L76 81M61.8 91.1L71.9 81M61.1 88l7-7M61.1 83.9L64 81"/><path class="cls-19" d="M70.7 91.1L76.2 81H60.9v10.1h9.8"/><path class="cls-14" d="M75.5 82.7L73.8 81M74.1 85.3L69.7 81M72.6 87.7L65.7 81M71.2 90.4L61.8 81M67.8 91.1l-6.7-7M63.7 91.1l-2.6-2.9M70 91.1l1.9-1.9M65.9 91.1L76 81M61.8 91.1L71.9 81M61.1 88l7-7M61.1 83.9L64 81"/><path class="cls-16" d="M60.9 91.1h9.8M60.9 81h15.3M60.9 81h15.3M60.9 91.1h9.8"/><path class="cls-19" d="M25.3 91.1V81l-7.2 10.1h7.2"/><path class="cls-14" d="M25.6 84.9l-1.7-1.7M25.6 88.7l-3.4-3.1M23.7 91.1L20.5 88M19.8 91.1l-.9-1M21.7 91.1l3.9-3.6M19.3 89.4l6.3-6"/><path class="cls-19" d="M25.3 91.1V81l-7.2 10.1h7.2"/><path class="cls-14" d="M25.6 84.9l-1.7-1.7M25.6 88.7l-3.4-3.1M23.7 91.1L20.5 88M19.8 91.1l-.9-1M21.7 91.1l3.9-3.6M19.3 89.4l6.3-6"/><path class="cls-15" d="M28.5 89.7h29.2"/><path class="cls-1" d="M28.5 81h29.2"/><path class="cls-15" d="M57.3 81h.4"/><path class="cls-19" d="M25.3 81h3.2v8.7h-3.2"/><path class="cls-14" d="M28.7 83.9L25.6 81M28.7 88l-3.1-3.1M26.3 89.7l-.7-1M27.3 89.7l1.4-1.2M25.6 87.5l3.1-3.1M25.6 83.4L28 81"/><path class="cls-19" d="M60.9 81h-3.2v8.7h3.2"/><path class="cls-14" d="M61.1 84.1L58 81M61.1 88.2L58 85.1M58.5 89.7l-.5-.5M59.4 89.7l1.7-1.7M58 87l3.1-3.1M58 83.2l1.9-2.2"/><path class="cls-16" d="M28.5 81v8.7M57.7 81v8.7M28.5 81v8.7M25.3 81h3.2M57.7 81v8.7M60.9 81h-3.2M25.3 91.1v-1.4M60.9 91.1v-1.4M25.3 81h3.2M60.9 81h-3.2M28.5 89.7h-3.2M57.7 89.7h3.2"/><path class="cls-19" d="M205.8.1l9.6 7.2h13.9l7.2-7.2h-30.7"/><path class="cls-14" d="M235.1 1.8L233.4.1M232.9 3.7L229.3.1M231 5.7L225.5.1M228.6 7.3L221.4.1M224.5 7.3L217.3.1M220.7 7.3L213.5.1M216.6 7.3L209.4.1M225.7 7.3l7.2-7.2M221.9 7.3l7.2-7.2M217.8 7.3L225 .1M214.5 6.6l6.4-6.5M212.3 4.9l4.8-4.8M209.9 3.3L213 .1M207.7 1.3l1.2-1.2"/><path class="cls-19" d="M205.8.1l9.6 7.2h13.9l7.2-7.2h-30.7"/><path class="cls-14" d="M235.1 1.8L233.4.1M232.9 3.7L229.3.1M231 5.7L225.5.1M228.6 7.3L221.4.1M224.5 7.3L217.3.1M220.7 7.3L213.5.1M216.6 7.3L209.4.1M225.7 7.3l7.2-7.2M221.9 7.3l7.2-7.2M217.8 7.3L225 .1M214.5 6.6l6.4-6.5M212.3 4.9l4.8-4.8M209.9 3.3L213 .1M207.7 1.3l1.2-1.2"/><path class="cls-16" d="M236.5.1h-30.7M229.3 7.3h-13.9M229.3 7.3h-13.9M236.5.1h-30.7"/><path class="cls-19" d="M229.3 12.6l7.2-7.2V.1l-7.2 7.2v5.3"/><path class="cls-14" d="M236.8 3.3l-1.7-1.5M235.6 6.4l-2.7-2.7M233.7 8.3L231 5.7M231.7 10.5l-2.1-2.2M229.6 12.4v-.3M229.6 11.7l7.2-7.2M229.6 7.8l7.2-7.2"/><path class="cls-19" d="M229.3 12.6l7.2-7.2V.1l-7.2 7.2v5.3"/><path class="cls-14" d="M236.8 3.3l-1.7-1.5M235.6 6.4l-2.7-2.7M233.7 8.3L231 5.7M231.7 10.5l-2.1-2.2M229.6 12.4v-.3M229.6 11.7l7.2-7.2M229.6 7.8l7.2-7.2"/><path class="cls-16" d="M229.3 7.3v5.3M236.5.1v5.3M236.5.1v5.3M229.3 7.3v5.3"/><path class="cls-19" d="M236.5 5.4l-7.2 7.2h22.8l7-7.2h-22.6"/><path class="cls-14" d="M259.1 5.7l-.2-.3M256.9 7.6l-2.1-2.2M255 9.7l-4.3-4.3M253.1 11.7l-6.5-6.3M250 12.6l-7.2-7.2M245.9 12.6l-7.2-7.2M241.8 12.6l-6.2-6.2M238 12.6l-4.3-4.3M233.9 12.6l-2.2-2.1M229.8 12.6l-.2-.2M248.5 12.6l7.2-7.2M244.7 12.6l7.2-7.2M240.6 12.6l7.2-7.2M236.5 12.6l7.2-7.2M232.7 12.6l7.2-7.2"/><path class="cls-19" d="M236.5 5.4l-7.2 7.2h22.8l7-7.2h-22.6"/><path class="cls-14" d="M259.1 5.7l-.2-.3M256.9 7.6l-2.1-2.2M255 9.7l-4.3-4.3M253.1 11.7l-6.5-6.3M250 12.6l-7.2-7.2M245.9 12.6l-7.2-7.2M241.8 12.6l-6.2-6.2M238 12.6l-4.3-4.3M233.9 12.6l-2.2-2.1M229.8 12.6l-.2-.2M248.5 12.6l7.2-7.2M244.7 12.6l7.2-7.2M240.6 12.6l7.2-7.2M236.5 12.6l7.2-7.2M232.7 12.6l7.2-7.2"/><path class="cls-16" d="M259.1 5.4h-22.6M252.1 12.6h-22.8M252.1 12.6h-22.8M259.1 5.4h-22.6"/><path class="cls-19" d="M259.1 91.8h29.8v25h-29.8v-25"/><path class="cls-14" d="M64.8 257.6v-1.9c0-.6-.2-1.2-.3-1.8-.1-.6-.3-1.2-.5-1.8l-.6-1.8c-.2-.6-.5-1.1-.8-1.7-.3-.5-.6-1.1-1-1.6-.3-.5-.7-1-1.1-1.5-.4-.5-.8-.9-1.3-1.4-.4-.4-.9-.9-1.4-1.3-.5-.4-1-.8-1.5-1.1-.5-.3-1-.7-1.6-1-.5-.3-1.1-.6-1.7-.8l-1.8-.6c-.6-.2-1.2-.3-1.8-.5l-1.8-.3h-1.9M45.7 238.7v19M64.7 257.7l.2-1.5M64.9 254.8l.3-1M65.2 253.8l.2-.5"/><path class="cls-9" d="M65.7 252.1l.4-1.6"/><path class="cls-14" d="M66.9 249.3l.2-.5M67.1 248.8l.5-.7M68.3 246.9l.7-1.2"/><path class="cls-11" d="M69 245.7l1.5-1.5"/><path class="cls-14" d="M70.5 244.2l.4-.5"/><path class="cls-4" d="M71.7 243l1.6-1.2"/><path class="cls-14" d="M74.3 241.1l.5-.2M74.8 240.9l.7-.3"/><path class="cls-10" d="M76.5 240.1l1.9-.7"/><path class="cls-14" d="M79.6 239.2l.5-.3M80.1 238.9h.9"/><path class="cls-8" d="M82 238.7h1.9"/><path class="cls-5" d="M83.9 238.7v19"/><path class="cls-14" d="M83.9 257.2v.5M160.6 257.6v-1.9c0-.7-.2-1.2-.3-1.8-.1-.6-.3-1.2-.5-1.8l-.6-1.8c-.2-.6-.5-1.1-.8-1.7-.3-.5-.6-1.1-1-1.6-.3-.5-.7-1-1.1-1.5-.4-.5-.8-.9-1.3-1.4-.4-.4-.9-.9-1.4-1.3-.5-.4-1-.8-1.5-1.1-.5-.3-1.1-.7-1.6-1-.5-.3-1.1-.6-1.7-.8l-1.8-.6c-.6-.2-1.2-.3-1.8-.5l-1.8-.3h-1.9M141.5 238.7v19M160.7 257.7v-1.5M160.7 254.8l.2-1M160.9 253.8l.3-.5"/><path class="cls-9" d="M161.4 252.1l.7-1.6"/><path class="cls-14" d="M162.6 249.3l.3-.5M162.9 248.8l.4-.7"/><path class="cls-10" d="M163.8 247.1l1.2-1.4"/><path class="cls-14" d="M166 244.5l.2-.3M166.2 244.2l1-.7M168.1 242.5l1-.7"/><path class="cls-17" d="M169.1 241.8l1.4-.9"/><path class="cls-14" d="M170.5 240.9l1.5-.5M173.2 239.7l.9-.3M174.1 239.4l.5-.2"/><path class="cls-9" d="M175.8 238.9l1.9-.2"/><path class="cls-14" d="M178.9 238.7h.8"/><path class="cls-5" d="M179.7 238.7v19"/><path class="cls-14" d="M179.7 257.2v.5M253.9 257.7c0-11-9.1-20.1-20.1-20.1M233.9 237.5v20.2"/><path class="cls-5" d="M253.8 257.7l.5-3.9 1.2-3.8 1.9-3.6 2.4-2.9 3.1-2.6 3.4-1.7 3.8-1.2 3.9-.5"/><path class="cls-12" d="M274 237.5v20.2"/><path class="cls-15" d="M241.8 100.9v1M241.8 101.9l-.2.7M241.6 102.6l-.3 1M241.3 103.6v.2M240.6 105v.3M239.7 106.5l-.5.4M239.2 106.9l-.5.8M238.7 107.7l-.7.4M238 108.1l-.3.3M236.3 108.9l-.2.2M234.6 109.3l-.5.3M234.1 109.6h-.9M233.2 109.6h-.7M232.5 109.6l-.5-.3M230.5 109.1l-.2-.2M229.1 108.4l-.5-.3M228.6 108.1l-.7-.4M227.9 107.7l-.7-.8M227.2 106.9l-.5-.4M226 105.5l-.3-.2M225.3 103.8v-.2M225.3 103.6l-.3-1M225 102.6l-.2-.7M224.8 101.9v-.7M224.8 99.7l.2-.2M225.3 98.1l.2-.3M225.5 97.8l.2-.7M225.7 97.1l.5-.7M226.2 96.4l.5-.7M227.7 94.7l.2-.2M229.1 93.5h.2M229.3 93.5l.8-.2M230.1 93.3l.7-.5M230.8 92.8h.7M231.5 92.8h.2M233.2 92.5h.2M234.9 92.8h.9M235.8 92.8l.7.5M236.5 93.3l.8.2M237.3 93.5l.2.2M238.7 94.5l.2.2M239.9 95.7l.5.7M240.4 96.4l.5.7M240.9 97.1l.2.7M241.1 97.8l.2.3M241.6 99.5v.2"/></g><g id="Mbel"><path class="cls-2" d="M38.3 157.3h45.4v56.6H38.3zM106.2 157.3h15.6v56.6h-15.6zM166 192.6h28.3v14.2H166zM206.8 161.7v19.2l-.1.1-.1.1h-.1-.2-25.4c-.1 0-.2-.1-.3-.2 0 0-.1-.2-.2-.3v-19H207M211.4 158v22.9l-.1.1-.1.1h-.1-.2-3.3c-.1 0-.2-.1-.3-.2 0 0-.1-.2-.2-.3v-22.7-.3c0-.1.1-.2.2-.3 0 0 .2-.1.3-.2H211c.1 0 .2.1.3.2 0 0 .1.2.2.3v.3M180.2 161.7V158v-.2-.2-.1l-.1-.1-.1-.1h-.1-.2-25.4c-.1 0-.2.1-.3.2 0 0-.1.2-.2.3v4M153.5 164.1h53.3"/><path class="cls-2" d="M153.5 161.7v19.2l.1.1.1.1h25.9l.1-.1.1-.1v-.1-.2-18.9h-26.6M149 158v22.9l.1.1.1.1H153l.1-.1.1-.1v-.1-.2V158v-.3c0-.1-.1-.2-.2-.3 0 0-.2-.1-.3-.2H149.3c-.1 0-.2.1-.3.2 0 0-.1.2-.2.3v.3M180.2 161.7V158v-.3c0-.1.1-.2.2-.3 0 0 .2-.1.3-.2h25.5c.1 0 .2.1.3.2 0 0 .1.2.2.3v4M129.3 193.8h10.8v28.3h-10.8zM265.3 202.5l6.2-6.3-8-8-6.2 6.3M244.9 222.8l-6.2 6.3-8.1-8 6.3-6.3M257.3 222.8l6.2 6.3 8-8-6.2-6.3M236.9 202.5l-6.3-6.3 8.1-8 6.2 6.3"/><path class="cls-2" d="M265.3 208.7c0-7.8-6.4-14.2-14.2-14.2s-14.2 6.4-14.2 14.2 6.4 14.2 14.2 14.2 14.2-6.4 14.2-14.2"/></g><g id="Text"><path d="M176.4 217.1h-.7v-5.3h.7v2.5l2.1-2.5h.8l-2.2 2.6 2.2 2.7h-.9l-2-2.5v2.5zM183.4 215.3c0 1.1-.8 1.9-1.9 1.9s-1.9-.8-1.9-1.9.8-1.9 1.9-1.9 1.9.8 1.9 1.9zm-3.1 0c0 .8.5 1.4 1.3 1.4s1.2-.6 1.2-1.4-.5-1.4-1.2-1.4-1.3.6-1.3 1.4zM187.4 216.7c-.4.4-.8.5-1.4.5-1.1 0-1.8-.8-1.8-1.9s.8-1.9 1.8-1.9 1 .2 1.3.6l-.4.4c-.3-.3-.6-.4-.9-.4-.7 0-1.2.6-1.2 1.4s.5 1.4 1.2 1.4.6-.1.9-.4l.4.4zM189 213.9c.3-.4.7-.6 1.1-.6s.7.1.9.3c.2.2.3.5.3 1v2.5h-.6v-2.4c0-.5-.2-.8-.7-.8s-.5.1-.7.3c-.2.2-.2.4-.2.7v2.2h-.6v-5.3h.6v2.2zM192.9 215.5c0 .3 0 .5.2.7.2.3.6.5 1 .5s.9-.2 1.1-.6l.5.2c-.3.6-.9 1-1.6 1-1.1 0-1.9-.8-1.9-1.9s.8-1.9 1.9-1.9 1.9.8 1.9 1.9v.2h-3.1zm2.4-.4c0-.3 0-.4-.2-.6-.2-.3-.6-.5-1-.5s-.8.2-1 .5c-.1.2-.2.3-.2.6h2.4zM197.7 213.4v.5c.3-.4.6-.6 1.1-.6s.6.1.9.3c.2.2.3.5.3 1v2.5h-.6v-2.4c0-.3 0-.5-.1-.6-.1-.2-.3-.2-.6-.2s-.5.1-.7.3c-.2.2-.2.4-.2.7v2.2h-.6v-3.7h.6zM201.2 218.4h-.4l.7-2.1.6.2-.8 1.9zM206.4 214.1h2.1v.6h-2.1v1.8h2.1v.6h-2.8v-5.3h2.8v.6h-2.1v1.8zM211.4 214.4c0-.4-.3-.6-.7-.6s-.7.2-.7.5.2.4.8.6c.5.1.7.2.9.4.2.2.3.4.3.7 0 .6-.5 1.1-1.3 1.1s-1.3-.4-1.4-1.1h.6c0 .4.3.6.8.6s.7-.2.7-.5-.2-.5-.8-.6c-.8-.2-1.2-.6-1.2-1.1s.5-1.1 1.3-1.1 1.3.4 1.3 1.1h-.6zM214.9 214.4c0-.4-.3-.6-.7-.6s-.7.2-.7.5.2.4.8.6c.5.1.7.2.9.4.2.2.3.4.3.7 0 .6-.5 1.1-1.3 1.1s-1.3-.4-1.4-1.1h.6c0 .4.3.6.8.6s.7-.2.7-.5-.2-.5-.8-.6c-.8-.2-1.2-.6-1.2-1.1s.5-1.1 1.3-1.1 1.3.4 1.3 1.1h-.6zM217.1 215.5c0 .3 0 .5.2.7.2.3.6.5 1 .5s.9-.2 1.1-.6l.5.2c-.3.6-.9 1-1.6 1-1.1 0-1.9-.8-1.9-1.9s.8-1.9 1.9-1.9 1.9.8 1.9 1.9v.2h-3.1zm2.4-.4c0-.3 0-.4-.2-.6-.2-.3-.6-.5-1-.5s-.8.2-1 .5c-.1.2-.2.3-.2.6h2.4zM221.8 213.4v.5c.3-.4.6-.6 1.1-.6s.6.1.9.3c.2.2.3.5.3 1v2.5h-.6v-2.4c0-.3 0-.5-.1-.6-.1-.2-.3-.2-.6-.2s-.5.1-.7.3c-.2.2-.2.4-.2.7v2.2h-.6v-3.7h.6zM225.4 218.4h-.4l.7-2.1.6.2-.8 1.9zM181.2 220.8h.7l-1.6 5.3h-.6l-1.2-4.2-1.2 4.2h-.6l-1.6-5.3h.7l1.2 4.1 1.2-4.1h.6l1.1 4.1 1.2-4.1zM186 224.3c0 1.1-.8 1.9-1.9 1.9s-1.9-.8-1.9-1.9.8-1.9 1.9-1.9 1.9.8 1.9 1.9zm-3.1 0c0 .8.5 1.4 1.3 1.4s1.2-.6 1.2-1.4-.5-1.4-1.2-1.4-1.3.6-1.3 1.4zM187.7 222.9c.3-.4.7-.6 1.1-.6s.7.1.9.3c.2.2.3.5.3 1v2.5h-.6v-2.4c0-.5-.2-.8-.7-.8s-.5.1-.7.3c-.2.2-.2.4-.2.7v2.2h-.6v-5.3h.6v2.2zM191.9 222.4v.5c.3-.4.6-.6 1.1-.6s.6.1.9.3c.2.2.3.5.3 1v2.5h-.6v-2.4c0-.3 0-.5-.1-.6-.1-.2-.3-.2-.6-.2s-.5.1-.7.3c-.2.2-.2.4-.2.7v2.2h-.6v-3.7h.6zM195.9 224.5c0 .3 0 .5.2.7.2.3.6.5 1 .5s.9-.2 1.1-.6l.5.2c-.3.6-.9 1-1.6 1-1.1 0-1.9-.8-1.9-1.9s.8-1.9 1.9-1.9 1.9.8 1.9 1.9v.2h-3.1zm2.4-.4c0-.3 0-.4-.2-.6-.2-.3-.6-.5-1-.5s-.8.2-1 .5c-.1.2-.2.3-.2.6h2.4zM200.7 222.4v.5c.3-.4.6-.6 1.1-.6s.6.1.9.3c.2.2.3.5.3 1v2.5h-.6v-2.4c0-.3 0-.5-.1-.6-.1-.2-.3-.2-.6-.2s-.5.1-.7.3c-.2.2-.2.4-.2.7v2.2h-.6v-3.7h.6zM178.4 234.5v.6h-3l1.9-2.7c.5-.8.7-1 .7-1.3 0-.5-.4-.8-.9-.8s-.7.2-.8.4v.6h-.6c0-1 .6-1.6 1.5-1.6s1.5.5 1.5 1.3-.2.8-.6 1.5l-1.4 2h1.9zM182.5 234.5v.6h-3l1.9-2.7c.5-.8.7-1 .7-1.3 0-.5-.4-.8-.9-.8s-.7.2-.8.4v.6h-.6c0-1 .6-1.6 1.5-1.6s1.5.5 1.5 1.3-.2.8-.6 1.5l-1.4 2h1.9zM184.5 234.8c0 .2-.2.4-.4.4s-.4-.2-.4-.4.2-.4.4-.4.4.2.4.4zM188.5 232.6c.3.3.4.6.4 1 0 .9-.7 1.6-1.7 1.6s-1.6-.6-1.6-1.6.1-.8.4-1.1c.2-.2.3-.3.6-.4-.3 0-.4-.2-.5-.4-.2-.2-.3-.5-.3-.8 0-.8.6-1.3 1.5-1.3s1.4.6 1.4 1.3-.1.6-.3.8c-.1.2-.3.2-.5.3.3 0 .4.2.6.3zm-2.3 1c0 .6.5 1 1 1s1-.5 1-1-.5-1-1-1-1 .5-1 1zm.2-2.5c0 .5.4.8.8.8s.9-.4.9-.8-.4-.8-.8-.8-.9.3-.9.8zM192.2 231.4v.5c.3-.4.6-.6 1-.6s.8.2 1 .7c.3-.5.6-.7 1.2-.7s.7.1.9.4c.2.2.2.4.2 1v2.4h-.6v-2.2c0-.4 0-.6-.1-.7-.1-.2-.4-.3-.6-.3-.5 0-.8.4-.8 1v2.2h-.6v-2.2c0-.4 0-.5-.1-.7-.1-.2-.3-.3-.6-.3-.5 0-.9.4-.9 1v2.2h-.6v-3.7h.6zM199.8 232.6v.4h-2l1.2-1.6c.3-.5.4-.6.4-.8 0-.3-.2-.4-.5-.4s-.5.2-.5.6h-.4c0-.6.4-1 1-1s1 .3 1 .8-.1.5-.4.9l-.8 1.1h1.1z"/><g><path d="M233.5 284.3c1.1 0 1.7.5 1.7 1.4s-.1.6-.3.9c-.1.2-.3.2-.5.3.3 0 .4.1.6.2.3.2.4.6.4 1s-.2.9-.6 1.2c-.3.2-.7.3-1.3.3H232v-5.3h1.5zm-.8 2.4h.7c.4 0 .7 0 .9-.2.2-.2.3-.4.3-.7s-.2-.6-.4-.8c-.2 0-.4-.1-.9-.1h-.6v1.8zm0 2.4h.7c.6 0 .8 0 1-.2.3-.1.4-.4.4-.8 0-.6-.4-.9-1.2-.9h-.8v1.8zM239.4 285.9h.6v3.7h-.6v-.7c-.4.6-.8.8-1.3.8-1 0-1.7-.8-1.7-1.9s.7-1.9 1.8-1.9 1 .2 1.3.7v-.6zm-2.1.9c-.2.3-.3.6-.3 1 0 .8.5 1.4 1.2 1.4s1.3-.6 1.3-1.4-.5-1.4-1.2-1.4-.7.1-.9.4zM241.4 289.6v-5.3h.6v5.3h-.6zM243.9 289.6h-.6v-5.3h.6v3.3l1.5-1.6h.8l-1.6 1.8 1.6 1.9h-.8l-1.5-1.6v1.6zM250.4 287.8c0 1.1-.8 1.9-1.9 1.9s-1.9-.8-1.9-1.9.8-1.9 1.9-1.9 1.9.8 1.9 1.9zm-3.1 0c0 .8.5 1.4 1.3 1.4s1.2-.6 1.2-1.4-.5-1.4-1.2-1.4-1.3.6-1.3 1.4zM252.1 285.9v.5c.3-.4.6-.6 1.1-.6s.6.1.9.3c.2.2.3.5.3 1v2.5h-.6v-2.4c0-.3 0-.5-.1-.6-.1-.2-.3-.2-.6-.2s-.5.1-.7.3c-.2.2-.2.4-.2.7v2.2h-.6v-3.7h.6zM234.3 293.9h-1.7v1.4c.3-.1.5-.2.8-.2.9 0 1.6.7 1.6 1.7s-.8 1.8-1.8 1.8-1.3-.4-1.6-1.1l.6-.2c.1.2.2.3.3.4.2.2.5.3.8.3.6 0 1.1-.5 1.1-1.2s-.5-1.1-1.2-1.1-.8.2-1.2.5v-3h2.3v.6zM236.9 298.2c0 .2-.2.4-.4.4s-.4-.2-.4-.4.2-.4.4-.4.4.2.4.4zM241.2 297c0 .6-.1 1-.4 1.2-.3.3-.7.4-1.2.4s-1-.2-1.2-.5c-.3-.3-.4-.6-.4-1.4v-1.8c0-.7 0-1 .3-1.3.3-.3.7-.5 1.2-.5s.9.1 1.2.4c.3.3.4.6.4 1.2v2.1zm-2.5-.1c0 .6 0 .7.2.9.2.2.5.3.8.3s.6-.1.8-.4c.1-.2.2-.4.2-.8v-2c0-.4 0-.6-.3-.8-.2-.2-.4-.2-.7-.2s-.6.1-.8.4c-.1.2-.2.4-.2.8v1.8zM244.5 294.9v.5c.3-.4.6-.6 1-.6s.8.2 1 .7c.3-.5.6-.7 1.2-.7s.7.1.9.4c.2.2.2.4.2 1v2.4h-.6v-2.2c0-.4 0-.6-.1-.7-.1-.2-.4-.3-.6-.3-.5 0-.8.4-.8 1v2.2h-.6v-2.2c0-.4 0-.5-.1-.7-.1-.2-.3-.3-.6-.3-.5 0-.9.4-.9 1v2.2h-.6v-3.7h.6zM252.1 296.1v.4h-2l1.2-1.6c.3-.5.4-.6.4-.8 0-.3-.2-.4-.5-.4s-.5.2-.5.6h-.4c0-.6.4-1 1-1s1 .3 1 .8-.1.5-.4.9l-.8 1.1h1.1z"/></g><g><path d="M20.2 225.8v.6h-3.8l3-4.8h-2.7v-.6h3.8l-3 4.8h2.7zM22.1 221.7c0 .2-.2.4-.4.4s-.4-.2-.4-.4.2-.4.4-.4.4.2.4.4zm0 4.7h-.6v-3.7h.6v3.7zM23.9 222.7v.5c.3-.4.6-.6 1-.6s.8.2 1 .7c.3-.5.6-.7 1.2-.7s.7.1.9.4c.2.2.2.4.2 1v2.4h-.6v-2.2c0-.4 0-.6-.1-.7-.1-.2-.4-.3-.6-.3-.5 0-.8.4-.8 1v2.2h-.6v-2.2c0-.4 0-.5-.1-.7-.1-.2-.3-.3-.6-.3-.5 0-.9.4-.9 1v2.2h-.6v-3.7h.6zM30.2 222.7v.5c.3-.4.6-.6 1-.6s.8.2 1 .7c.3-.5.6-.7 1.2-.7s.7.1.9.4c.2.2.2.4.2 1v2.4h-.6v-2.2c0-.4 0-.6-.1-.7-.1-.2-.4-.3-.6-.3-.5 0-.8.4-.8 1v2.2h-.6v-2.2c0-.4 0-.5-.1-.7-.1-.2-.3-.3-.6-.3-.5 0-.9.4-.9 1v2.2h-.6v-3.7h.6zM36.3 224.8c0 .3 0 .5.2.7.2.3.6.5 1 .5s.9-.2 1.1-.6l.5.2c-.3.6-.9 1-1.6 1-1.1 0-1.9-.8-1.9-1.9s.8-1.9 1.9-1.9 1.9.8 1.9 1.9v.2h-3.1zm2.4-.4c0-.3 0-.4-.2-.6-.2-.3-.6-.5-1-.5s-.8.2-1 .5c-.1.2-.2.3-.2.6h2.4zM41.1 222.7v.6c.1-.3.2-.4.3-.5.2-.1.4-.2.7-.2h.1v.6H42c-.3 0-.6.2-.8.4-.2.2-.2.4-.2.9v1.9h-.6v-3.7h.6zM17.2 231.8v-.6L19 230v5.4h-.6V231l-1.2.8zM20.4 234.2v-.5l2.8-3.7v3.6h.6v.6h-.6v1.2h-.6v-1.2h-2.1zm2.1-2.6l-1.5 2h1.5v-2zM25.6 235.1c0 .2-.2.4-.4.4s-.4-.2-.4-.4.2-.4.4-.4.4.2.4.4zM26.5 231.8v-.6l1.8-1.2v5.4h-.6V231l-1.2.8zM32.5 231.7v.5c.3-.4.6-.6 1-.6s.8.2 1 .7c.3-.5.6-.7 1.2-.7s.7.1.9.4c.2.2.2.4.2 1v2.4h-.6v-2.2c0-.4 0-.6-.1-.7-.1-.2-.4-.3-.6-.3-.5 0-.8.4-.8 1v2.2h-.6v-2.2c0-.4 0-.5-.1-.7-.1-.2-.3-.3-.6-.3-.5 0-.9.4-.9 1v2.2h-.6v-3.7h.6zM40.1 232.9v.4h-2l1.2-1.6c.3-.5.4-.6.4-.8 0-.3-.2-.4-.5-.4s-.5.2-.5.6h-.4c0-.6.4-1 1-1s1 .3 1 .8-.1.5-.4.9l-.8 1.1h1.1z"/></g><g><path d="M221.7 128.2h2.1v.6h-2.1v1.8h2.1v.6H221v-5.3h2.8v.6h-2.1v1.8zM225.6 127.5v.5c.3-.4.6-.6 1.1-.6s.6.1.9.3c.2.2.3.5.3 1v2.5h-.6v-2.4c0-.3 0-.5-.1-.6-.1-.2-.3-.2-.6-.2s-.5.1-.7.3c-.2.2-.2.4-.2.7v2.2h-.6v-3.7h.6zM229.9 130.4c0 .2 0 .2.3.2h.3v.5h-.6c-.4 0-.6-.2-.6-.6v-2.6h-.5v-.5h.5v-1.2h.6v1.2h.6v.5h-.6v2.4zM232.1 127.5v.6c.1-.3.2-.4.3-.5.2-.1.4-.2.7-.2h.1v.6h-.2c-.3 0-.6.2-.8.4-.2.2-.2.4-.2.9v1.9h-.6v-3.7h.6zM234.5 129.5c0 .3 0 .5.2.7.2.3.6.5 1 .5s.9-.2 1.1-.6l.5.2c-.3.6-.9 1-1.6 1-1.1 0-1.9-.8-1.9-1.9s.8-1.9 1.9-1.9 1.9.8 1.9 1.9v.2h-3.1zm2.4-.4c0-.3 0-.4-.2-.6-.2-.3-.6-.5-1-.5s-.8.2-1 .5c-.1.2-.2.3-.2.6h2.4zm-.2-3.2l-.9 1.1h-.4l.7-1.1h.7zM239.1 129.5c0 .3 0 .5.2.7.2.3.6.5 1 .5s.9-.2 1.1-.6l.5.2c-.3.6-.9 1-1.6 1-1.1 0-1.9-.8-1.9-1.9s.8-1.9 1.9-1.9 1.9.8 1.9 1.9v.2h-3.1zm2.4-.4c0-.3 0-.4-.2-.6-.2-.3-.6-.5-1-.5s-.8.2-1 .5c-.1.2-.2.3-.2.6h2.4zM222.1 137.1c.2 0 .3-.1.5-.1.9 0 1.6.7 1.6 1.6s-.8 1.7-1.7 1.7-1.7-.8-1.7-1.7.1-.7.4-1.2l1.5-2.5h.7L222 137zm-.7 1.5c0 .6.5 1.1 1.1 1.1s1.1-.5 1.1-1.1-.5-1.1-1.1-1.1-1.1.5-1.1 1.1zM226 139.8c0 .2-.2.4-.4.4s-.4-.2-.4-.4.2-.4.4-.4.4.2.4.4zM227.4 135.5v-.6h3l-1.6 2c.9 0 1.6.7 1.6 1.6s-.8 1.7-1.8 1.7-1.4-.5-1.6-1.3h.6c.1.4.5.7 1 .7s1.2-.5 1.2-1.1-.5-1.1-1.2-1.1-.4 0-.6.2l-.3-.2 1.5-1.9h-1.9zM233.7 136.5v.5c.3-.4.6-.6 1-.6s.8.2 1 .7c.3-.5.6-.7 1.2-.7s.7.1.9.4c.2.2.2.4.2 1v2.4h-.6V138c0-.4 0-.6-.1-.7-.1-.2-.4-.3-.6-.3-.5 0-.8.4-.8 1v2.2h-.6V138c0-.4 0-.5-.1-.7-.1-.2-.3-.3-.6-.3-.5 0-.9.4-.9 1v2.2h-.6v-3.7h.6zM241.3 137.7v.4h-2l1.2-1.6c.3-.5.4-.6.4-.8 0-.3-.2-.4-.5-.4s-.5.2-.5.6h-.4c0-.6.4-1 1-1s1 .3 1 .8-.1.5-.4.9l-.8 1.1h1.1z"/></g><g><path d="M260.2 93.8h1.4c1.6 0 2.6 1 2.6 2.6s-.3 1.6-.8 2.1c-.5.4-1.1.6-1.9.6h-1.3v-5.3zm.7 4.8h.2c.9 0 1.3 0 1.7-.4.5-.4.7-1 .7-1.8 0-1.3-.7-2-1.9-2h-.7v4.2zM268.1 95.4v2.4c0 .5 0 .8-.4 1-.3.2-.6.4-1.1.4s-.8-.1-1.1-.4c-.2-.2-.4-.6-.4-1v-2.4h.6v2.3c0 .5.3.9.8.9s.5-.1.7-.3c.1-.1.2-.3.2-.6v-2.4h.6zM271.2 96.4c0-.4-.3-.6-.7-.6s-.7.2-.7.5.2.4.8.6c.5.1.7.2.9.4.2.2.3.4.3.7 0 .6-.5 1.1-1.3 1.1s-1.3-.4-1.4-1.1h.6c0 .4.3.6.8.6s.7-.2.7-.5-.2-.5-.8-.6c-.8-.2-1.2-.6-1.2-1.1s.5-1.1 1.3-1.1 1.3.4 1.3 1.1h-.6zM275.8 98.6c-.4.4-.8.5-1.4.5-1.1 0-1.8-.8-1.8-1.9s.8-1.9 1.8-1.9 1 .2 1.3.6l-.4.4c-.3-.3-.6-.4-.9-.4-.7 0-1.2.6-1.2 1.4s.5 1.4 1.2 1.4.6-.1.9-.4l.4.4zM277.4 95.9c.3-.4.7-.6 1.1-.6s.7.1.9.3c.2.2.3.5.3 1v2.5h-.6v-2.4c0-.5-.2-.8-.7-.8s-.5.1-.7.3c-.2.2-.2.4-.2.7v2.2h-.6v-5.3h.6V96zM281.4 97.4c0 .3 0 .5.2.7.2.3.6.5 1 .5s.9-.2 1.1-.6l.5.2c-.3.6-.9 1-1.6 1-1.1 0-1.9-.8-1.9-1.9s.8-1.9 1.9-1.9 1.9.8 1.9 1.9v.2h-3.1zm2.4-.4c0-.3 0-.4-.2-.6-.2-.3-.6-.5-1-.5s-.8.2-1 .5c-.1.2-.2.3-.2.6h2.4zM260.1 103.4v-.6h3l-1.6 2c.9 0 1.6.7 1.6 1.6s-.8 1.7-1.8 1.7-1.4-.5-1.6-1.3h.6c.1.4.5.7 1 .7s1.2-.5 1.2-1.1-.5-1.1-1.2-1.1-.4 0-.6.2l-.3-.2 1.5-1.9H260zM265 107.8c0 .2-.2.4-.4.4s-.4-.2-.4-.4.2-.4.4-.4.4.2.4.4zM269 105.5c.3.3.4.6.4 1 0 .9-.7 1.6-1.7 1.6s-1.6-.6-1.6-1.6.1-.8.4-1.1c.2-.2.3-.3.6-.4-.3 0-.4-.2-.5-.4-.2-.2-.3-.5-.3-.8 0-.8.6-1.3 1.5-1.3s1.4.6 1.4 1.3-.1.6-.3.8c-.1.2-.3.2-.5.3.3 0 .4.2.6.3zm-2.3 1c0 .6.5 1 1 1s1-.5 1-1-.5-1-1-1-1 .5-1 1zm.2-2.5c0 .5.4.8.8.8s.9-.4.9-.8-.4-.8-.8-.8-.9.3-.9.8zM272.6 104.4v.5c.3-.4.6-.6 1-.6s.8.2 1 .7c.3-.5.6-.7 1.2-.7s.7.1.9.4c.2.2.2.4.2 1v2.4h-.6v-2.2c0-.4 0-.6-.1-.7-.1-.2-.4-.3-.6-.3-.5 0-.8.4-.8 1v2.2h-.6v-2.2c0-.4 0-.5-.1-.7-.1-.2-.3-.3-.6-.3-.5 0-.9.4-.9 1v2.2h-.6v-3.7h.6zM280.2 105.6v.4h-2l1.2-1.6c.3-.5.4-.6.4-.8 0-.3-.2-.4-.5-.4s-.5.2-.5.6h-.4c0-.6.4-1 1-1s1 .3 1 .8-.1.5-.4.9l-.8 1.1h1.1z"/></g><g><path d="M41 120.6v.6h-2.5v-5.3h.7v4.7h1.9zM42.7 116.5c0 .2-.2.4-.4.4s-.4-.2-.4-.4.2-.4.4-.4.4.2.4.4zm0 4.7h-.6v-3.7h.6v3.7zM44.6 121.2H44V118h-.5v-.5h.5v-.5c0-.7.4-1.2 1-1.2h.2v.5c-.4 0-.6.2-.6.6v.5h.6v.5h-.6v3.2zM47 120.5c0 .2 0 .2.3.2h.3v.5H47c-.4 0-.6-.2-.6-.6V118h-.5v-.5h.5v-1.2h.6v1.2h.6v.5H47v2.4z"/></g></g></svg>