<svg xmlns="http://www.w3.org/2000/svg" viewBox="0 0 402 384.9"><defs><style>.cls-1,.cls-10,.cls-11,.cls-12,.cls-13,.cls-14,.cls-15,.cls-16,.cls-17,.cls-2,.cls-3,.cls-4,.cls-5,.cls-6,.cls-7,.cls-8,.cls-9{fill:none;stroke-linecap:round;stroke-linejoin:round}.cls-1,.cls-10,.cls-11,.cls-12,.cls-13,.cls-14,.cls-15,.cls-17,.cls-2,.cls-3,.cls-4,.cls-5,.cls-7,.cls-8,.cls-9{stroke-width:.1px}.cls-1,.cls-13,.cls-15,.cls-16,.cls-3,.cls-7{stroke:#194164}.cls-1,.cls-7{stroke-dasharray:0 0 0 0 2.9 1.4 .2 1.4}.cls-2{stroke:#646464}.cls-3{stroke-dashoffset:1px}.cls-10,.cls-11,.cls-12,.cls-13,.cls-17,.cls-3,.cls-4,.cls-5,.cls-8,.cls-9{stroke-dasharray:0 0 1.4 1.4}.cls-4{stroke-dashoffset:2.5px}.cls-10,.cls-11,.cls-12,.cls-14,.cls-17,.cls-4,.cls-5,.cls-8,.cls-9{stroke:#969696}.cls-18,.cls-19{fill:#fff}.cls-6{stroke:#000;stroke-width:.3px}.cls-7{stroke-dashoffset:1.9px}.cls-8{stroke-dashoffset:2.4px}.cls-9{stroke-dashoffset:2.7px}.cls-10{stroke-dashoffset:2.5px}.cls-11{stroke-dashoffset:1.4px}.cls-12{stroke-dashoffset:.7px}.cls-19,.cls-20{fill-rule:evenodd}.cls-13{stroke-dashoffset:.2px}.cls-16{stroke-width:.3px}.cls-17{stroke-dashoffset:1.2px}</style></defs><g id="Plan"><path class="cls-15" d="M186.6 223.5v-11.3"/><path class="cls-6" d="M185.9 223.5v-12"/><path class="cls-15" d="M188.1 223.5v-9.8M186.6 223.5v-11.3M185.9 223.5v-12M188.1 223.5v-9.8"/><path class="cls-6" d="M186.6 223.5h-.7"/><path class="cls-15" d="M188.1 223.5h-1.5M200.5 212.2h3.6M186.6 212.2h13.2"/><path class="cls-6" d="M185.9 211.5h18.2"/><path class="cls-15" d="M202 213.7h2.1M188.1 213.7h11.7M200.5 212.2h3.6M186.6 212.2h13.2"/><path class="cls-6" d="M204.1 212.2v-.7"/><path class="cls-15" d="M204.1 213.7v-1.5M185.9 211.5h18.2M202 213.7h2.1M188.1 213.7h11.7M200.5 223.5v-11.3"/><path class="cls-6" d="M199.8 223.5v-9.8"/><path class="cls-15" d="M202 223.5v-9.8M200.5 223.5v-11.3M199.8 223.5v-9.8M202 223.5v-9.8"/><path class="cls-6" d="M200.5 223.5h-.7"/><path class="cls-15" d="M202 223.5h-1.5"/><path class="cls-6" d="M199.8 213.7v-1.5"/><path class="cls-14" d="M114.4 334.9h59v3.4h-59z"/><path class="cls-19" d="M401.4 115l-7.2 7v2.6h7.2V115"/><path class="cls-14" d="M401.7 117.2l-1.2-1.2M401.7 121l-3.2-3.1M400.9 124.6l-4.5-4.5M397.1 124.6l-2.6-2.6M397.6 124.6l4.1-3.8M394.5 123.9l7.2-7.2"/><path class="cls-19" d="M401.4 115l-7.2 7v2.6h7.2V115"/><path class="cls-14" d="M401.7 117.2l-1.2-1.2M401.7 121l-3.2-3.1M400.9 124.6l-4.5-4.5M397.1 124.6l-2.6-2.6M397.6 124.6l4.1-3.8M394.5 123.9l7.2-7.2"/><path class="cls-16" d="M401.4 124.6V115M394.2 124.6V122M394.2 124.6V122M401.4 124.6V115"/><path class="cls-19" d="M394.2 157v66.5l7.2 7.2V157h-7.2"/><path class="cls-14" d="M401.7 157.3l-.3-.3M401.7 161.1l-4.4-4.1M401.7 165.2l-7.2-7.2M401.7 169.3l-7.2-7.2M401.7 173.4l-7.2-7.2M401.7 177.2l-7.2-7.2M401.7 181.3l-7.2-7.2M401.7 185.4l-7.2-7.2M401.7 189.2l-7.2-7.2M401.7 193.3l-7.2-7.2M401.7 197.4l-7.2-7.2M401.7 201.2l-7.2-7.2M401.7 205.3l-7.2-7.2M401.7 209.4l-7.2-7.2M401.7 213.4l-7.2-7.2M401.7 217.3l-7.2-7.2M401.7 221.4l-7.2-7.2M401.7 225.4l-7.2-7.2M401.7 229.3l-7.2-7.2M400.7 229.8l1-.8M398.8 227.8l2.9-2.8M396.6 225.9l5.1-5M394.7 223.8l7-6.8M394.5 220.2l7.2-7.2M394.5 216.1l7.2-7.2M394.5 212.2l7.2-7.2M394.5 208.2l7.2-7.2M394.5 204.1l7.2-7.2M394.5 200l7.2-7.2M394.5 196.2l7.2-7.2M394.5 192.1l7.2-7.2M394.5 188l7.2-7.2M394.5 184.2l7.2-7.2M394.5 180.1l7.2-7.2M394.5 176l7.2-7.2M394.5 172.2l7.2-7.2M394.5 168.1l7.2-7.2M394.5 164l6.9-7M394.5 159.9l2.8-2.9"/><path class="cls-19" d="M394.2 157v66.5l7.2 7.2V157h-7.2"/><path class="cls-14" d="M401.7 157.3l-.3-.3M401.7 161.1l-4.4-4.1M401.7 165.2l-7.2-7.2M401.7 169.3l-7.2-7.2M401.7 173.4l-7.2-7.2M401.7 177.2l-7.2-7.2M401.7 181.3l-7.2-7.2M401.7 185.4l-7.2-7.2M401.7 189.2l-7.2-7.2M401.7 193.3l-7.2-7.2M401.7 197.4l-7.2-7.2M401.7 201.2l-7.2-7.2M401.7 205.3l-7.2-7.2M401.7 209.4l-7.2-7.2M401.7 213.4l-7.2-7.2M401.7 217.3l-7.2-7.2M401.7 221.4l-7.2-7.2M401.7 225.4l-7.2-7.2M401.7 229.3l-7.2-7.2M400.7 229.8l1-.8M398.8 227.8l2.9-2.8M396.6 225.9l5.1-5M394.7 223.8l7-6.8M394.5 220.2l7.2-7.2M394.5 216.1l7.2-7.2M394.5 212.2l7.2-7.2M394.5 208.2l7.2-7.2M394.5 204.1l7.2-7.2M394.5 200l7.2-7.2M394.5 196.2l7.2-7.2M394.5 192.1l7.2-7.2M394.5 188l7.2-7.2M394.5 184.2l7.2-7.2M394.5 180.1l7.2-7.2M394.5 176l7.2-7.2M394.5 172.2l7.2-7.2M394.5 168.1l7.2-7.2M394.5 164l6.9-7M394.5 159.9l2.8-2.9"/><path class="cls-16" d="M401.4 230.7V157M394.2 223.5V157M394.2 223.5V157M401.4 230.7V157"/><path class="cls-15" d="M400.2 154.4h1.7v2.6h-1.7zM400.2 124.6h1.7v2.6h-1.7zM400.2 127.3h1.7v27.1h-1.7zM400.2 154.4v-27.1"/><path class="cls-1" d="M394.2 154.6v-27.8"/><path class="cls-15" d="M394.2 127.3v-.5"/><path class="cls-19" d="M394.2 157v-2.4h6v2.4"/><path class="cls-14" d="M400.5 156.1l-1.5-1.5M397.3 157l-2.4-2.4M397.3 157l2.4-2.4M394.5 156.1l1.2-1.5"/><path class="cls-19" d="M394.2 124.6v2.2h6v-2.2"/><path class="cls-14" d="M399.3 126.8l-2.2-2.2M395.2 126.8l-.7-1M399.5 126.8l1-.7M395.4 126.8l2.2-2.2"/><path class="cls-16" d="M394.2 154.6h6M394.2 126.8h6M394.2 154.6h6M394.2 157v-2.4M394.2 126.8h6M394.2 124.6v2.2M401.4 157h-1.2M401.4 124.6h-1.2M394.2 157v-2.4M394.2 124.6v2.2M400.2 154.6v2.4M400.2 126.8v-2.2"/><path class="cls-15" d="M93.3 165.9H53.9"/><path class="cls-6" d="M93.3 166.6H53.2"/><path class="cls-15" d="M93.3 164.5h-38M93.3 165.9H53.9M93.3 166.6H53.2M93.3 164.5h-38"/><path class="cls-6" d="M93.3 165.9v.7"/><path class="cls-15" d="M93.3 164.5v1.4M53.9 162.1H35.4"/><path class="cls-6" d="M53.2 162.8H36.1"/><path class="cls-15" d="M55.3 160.6H34M53.9 162.1H35.4M53.2 162.8H36.1M55.3 160.6H34M35.4 165.9H7.3"/><path class="cls-6" d="M36.1 166.6H7.3"/><path class="cls-15" d="M34 164.5H7.3M35.4 165.9H7.3"/><path class="cls-6" d="M7.3 165.9v.7"/><path class="cls-15" d="M7.3 164.5v1.4M36.1 166.6H7.3M34 164.5H7.3"/><path class="cls-19" d="M62.4 181.9c1.3.9 3 .9 4.3 0 1.9-1.5 2.9-3.8 2.9-6.2l-.3-9h-9.6l-.3 9c0 2.4 1 4.7 2.9 6.2"/><path class="cls-15" d="M62.4 181.9c1.3.9 3 .9 4.3 0 1.9-1.5 2.9-3.8 2.9-6.2l-.3-9h-9.6l-.3 9c0 2.4 1 4.7 2.9 6.2"/><path class="cls-19" d="M64.5 171.8c-1 0-2 .3-2.8 1.1-.7.7-1.2 1.7-1.2 2.7 0 2.1.9 4.1 2.5 5.4.9.6 2 .6 2.9 0 1.6-1.3 2.5-3.3 2.5-5.4 0-1-.4-2-1.2-2.7-.7-.7-1.8-1.1-2.8-1.1"/><path class="cls-15" d="M64.5 171.8c-1 0-2 .3-2.8 1.1-.7.7-1.2 1.7-1.2 2.7 0 2.1.9 4.1 2.5 5.4.9.6 2 .6 2.9 0 1.6-1.3 2.5-3.3 2.5-5.4 0-1-.4-2-1.2-2.7-.7-.7-1.8-1.1-2.8-1.1"/><path class="cls-19" d="M7.5 167.1v48l.1.1v.1h.1v.1h.1l.1.1h20.6v-.1h.1l.1-.1.1-.1V167l-.1-.1v-.1h-.1l-.1-.1H7.8l-.1.1-.1.1v.1h-.1v.1"/><path class="cls-15" d="M7.5 167.1v48l.1.1v.1h.1v.1h.1l.1.1h20.6v-.1h.1l.1-.1.1-.1V167l-.1-.1v-.1h-.1l-.1-.1H7.8l-.1.1-.1.1v.1h-.1v.1"/><path class="cls-19" d="M9.7 172.4v37.4c0 .4 0 .9.3 1.3.2.4.4.8.7 1.1.3.3.7.6 1.1.7.4.2.9.3 1.3.3h10.2c.4 0 .9 0 1.3-.3.4-.2.8-.4 1.1-.7.3-.3.6-.7.7-1.1.2-.4.3-.9.3-1.3v-37.4c0-.4 0-.9-.3-1.3-.2-.4-.4-.8-.7-1.1-.3-.3-.7-.6-1.1-.7-.4-.2-.9-.3-1.3-.3H13.1c-.4 0-.9 0-1.3.3-.4.2-.8.4-1.1.7-.3.3-.6.7-.7 1.1-.2.4-.3.9-.3 1.3"/><path class="cls-15" d="M9.7 172.4v37.4c0 .4 0 .9.3 1.3.2.4.4.8.7 1.1.3.3.7.6 1.1.7.4.2.9.3 1.3.3h10.2c.4 0 .9 0 1.3-.3.4-.2.8-.4 1.1-.7.3-.3.6-.7.7-1.1.2-.4.3-.9.3-1.3v-37.4c0-.4 0-.9-.3-1.3-.2-.4-.4-.8-.7-1.1-.3-.3-.7-.6-1.1-.7-.4-.2-.9-.3-1.3-.3H13.1c-.4 0-.9 0-1.3.3-.4.2-.8.4-1.1.7-.3.3-.6.7-.7 1.1-.2.4-.3.9-.3 1.3"/><path class="cls-19" d="M36.9 166.7V179.1s0 .1.1.2c0 0 0 .1.1.2 0 0 .1 0 .2.1 0 0 .1 0 .2.1h14.1s.1 0 .2-.1c0 0 .1 0 .2-.1 0 0 0-.1.1-.2 0 0 0-.1.1-.2v-.2-12.2H36.6"/><path class="cls-15" d="M36.9 166.7V179.1s0 .1.1.2c0 0 0 .1.1.2 0 0 .1 0 .2.1 0 0 .1 0 .2.1h14.1s.1 0 .2-.1c0 0 .1 0 .2-.1 0 0 0-.1.1-.2 0 0 0-.1.1-.2v-.2-12.2H36.6"/><path class="cls-13" d="M53.2 166.6v-3.8"/><path class="cls-3" d="M53.2 162.8H36.1"/><path class="cls-13" d="M36.1 162.8v3.8"/><path class="cls-15" d="M35.4 162.1v3.8"/><path class="cls-6" d="M36.1 162.8v3.8"/><path class="cls-15" d="M34 160.6v3.9M35.4 162.1v3.8M36.1 162.8v3.8M34 160.6v3.9M53.9 165.9v-3.8"/><path class="cls-6" d="M53.2 166.6v-3.8"/><path class="cls-15" d="M55.3 164.5v-3.9M53.9 165.9v-3.8M53.2 166.6v-3.8M55.3 164.5v-3.9"/><path class="cls-6" d="M53.2 166.6H36.1"/><path class="cls-20" d="M175.3 16.6V2h35.8v14.6h-35.8"/><path class="cls-19" d="M175.3 2v3.4h35.8V2h-35.8"/><path class="cls-14" d="M175.6 3.2l1.9 2.2M178.2 2l3.4 3.4M182.3 2l3.4 3.4M186.1 2l3.4 3.4M190.2 2l3.4 3.4M194.3 2l3.4 3.4M198.1 2l3.4 3.4M202.2 2l3.4 3.4M206.3 2l3.4 3.4M210.1 2l1.2 1"/><path class="cls-19" d="M175.3 5.4v.7h35.8v-.7h-35.8"/><path class="cls-19" d="M175.3 6.1v5.5h35.8V6.1h-35.8"/><path class="cls-14" d="M209.9 11.6V6.1M208.5 11.6V6.1M207 11.6V6.1M205.6 11.6V6.1M204.1 11.6V6.1M202.9 11.6V6.1M201.5 11.6V6.1M200.1 11.6V6.1M198.6 11.6V6.1M197.2 11.6V6.1M195.7 11.6V6.1M194.3 11.6V6.1M192.9 11.6V6.1M191.4 11.6V6.1M190 11.6V6.1M188.8 11.6V6.1M187.3 11.6V6.1M185.9 11.6V6.1M184.5 11.6V6.1M183 11.6V6.1M181.6 11.6V6.1M180.1 11.6V6.1M178.7 11.6V6.1M177.3 11.6V6.1M175.8 11.6V6.1"/><path class="cls-19" d="M175.3 11.6v5h35.8v-5h-35.8"/><path class="cls-14" d="M175.6 15.2l1.2 1.4M175.8 11.6l5.1 5M179.7 11.6l5 5M183.7 11.6l5.1 5M187.8 11.6l5.1 5M191.9 11.6l5 5M195.7 11.6l5.1 5M199.8 11.6l5.1 5M203.9 11.6l5 5M207.7 11.6l3.6 3.4"/><path class="cls-16" d="M175.3 5.4h35.8M175.3 2h35.8"/><path class="cls-14" d="M175.3 11.6h35.8M175.3 6.1h35.8"/><path class="cls-16" d="M175.3 16.6h35.8M175.3 11.6h35.8"/><path class="cls-15" d="M175.3 2h35.8M175.3 16.6h35.8"/><path class="cls-20" d="M68.5 16.6V2h44v14.6h-44"/><path class="cls-19" d="M68.5 2v3.4h44V2h-44"/><path class="cls-14" d="M68.8 4.6l.5.8M70 2l3.3 3.4M74.1 2l3.3 3.4M77.9 2l3.4 3.4M82 2l3.3 3.4M86.1 2l3.3 3.4M89.9 2l3.4 3.4M94 2l3.3 3.4M98.1 2l3.3 3.4M101.9 2l3.4 3.4M106 2l3.3 3.4M110.1 2l2.6 2.6"/><path class="cls-19" d="M68.5 5.4v.7h44v-.7h-44"/><path class="cls-19" d="M68.5 6.1v5.5h44V6.1h-44"/><path class="cls-14" d="M112.2 11.6V6.1M110.8 11.6V6.1M109.3 11.6V6.1M107.9 11.6V6.1M106.5 11.6V6.1M105 11.6V6.1M103.6 11.6V6.1M102.1 11.6V6.1M100.7 11.6V6.1M99.3 11.6V6.1M98.1 11.6V6.1M96.6 11.6V6.1M95.2 11.6V6.1M93.7 11.6V6.1M92.3 11.6V6.1M90.9 11.6V6.1M89.4 11.6V6.1M88 11.6V6.1M86.5 11.6V6.1M85.1 11.6V6.1M83.9 11.6V6.1M82.5 11.6V6.1M81 11.6V6.1M79.6 11.6V6.1M78.1 11.6V6.1M76.7 11.6V6.1M75.3 11.6V6.1M73.8 11.6V6.1M72.4 11.6V6.1M70.9 11.6V6.1M69.5 11.6V6.1"/><path class="cls-19" d="M68.5 11.6v5h44v-5h-44"/><path class="cls-14" d="M68.8 12.8l3.8 3.8M71.4 11.6l5.1 5M75.5 11.6l5 5M79.6 11.6l5 5M83.7 11.6l5 5M87.5 11.6l5 5M91.6 11.6l5 5M95.7 11.6l5 5M99.5 11.6l5 5M103.6 11.6l5 5M107.7 11.6l5 5M111.5 11.6l1.2 1"/><path class="cls-16" d="M68.5 5.4h44M68.5 2h44"/><path class="cls-14" d="M68.5 11.6h44M68.5 6.1h44"/><path class="cls-16" d="M68.5 16.6h44M68.5 11.6h44"/><path class="cls-15" d="M68.5 2h44M68.5 16.6h44"/><path class="cls-20" d="M.1 16.6V2h27.6v14.6H.1"/><path class="cls-19" d="M.1 2v3.4h27.6V2H.1"/><path class="cls-14" d="M.4 4.4l.7 1M1.8 2l3.4 3.4M5.9 2l3.4 3.4M9.7 2l3.4 3.4M13.8 2l3.4 3.4M17.9 2l3.4 3.4M21.7 2l3.4 3.4M25.8 2L28 3.9"/><path class="cls-19" d="M.1 5.4v.7h27.6v-.7H.1"/><path class="cls-19" d="M.1 6.1v5.5h27.6V6.1H.1"/><path class="cls-14" d="M27 11.6V6.1M25.6 11.6V6.1M24.1 11.6V6.1M22.9 11.6V6.1M21.5 11.6V6.1M20.1 11.6V6.1M18.6 11.6V6.1M17.2 11.6V6.1M15.7 11.6V6.1M14.3 11.6V6.1M12.9 11.6V6.1M11.4 11.6V6.1M10 11.6V6.1M8.8 11.6V6.1M7.3 11.6V6.1M5.9 11.6V6.1M4.5 11.6V6.1M3 11.6V6.1M1.6 11.6V6.1"/><path class="cls-19" d="M.1 11.6v5h27.6v-5H.1"/><path class="cls-14" d="M.4 16.4v.2M.4 12.6l4.1 4M3.3 11.6l5 5M7.3 11.6l5.1 5M11.4 11.6l5.1 5M15.5 11.6l5 5M19.3 11.6l5.1 5M23.4 11.6l4.6 4.3M27.5 11.6l.5.5"/><path class="cls-16" d="M.1 5.4h27.6M.1 2h27.6"/><path class="cls-14" d="M.1 11.6h27.6M.1 6.1h27.6"/><path class="cls-16" d="M.1 16.6h27.6M.1 11.6h27.6"/><path class="cls-15" d="M.1 2h27.6M.1 16.6h27.6M114.4 9.4V2h-3.6V0H177v2h-3.6v7.4"/><path class="cls-1" d="M112.5 16.6h62.8"/><path class="cls-16" d="M114.4 2h-3.6M173.4 2h3.6"/><path class="cls-15" d="M112.5 9.4h62.9v2.2h-62.9zM116.1 9.4v2.2M171.7 9.4v2.2M112.5 11.6V9.4M131.4 11.6V9.4M116.1 11.6V9.4M135.5 11.6V9.4M131.4 11.6V9.4M152.3 11.6V9.4M135.5 11.6V9.4M156.4 11.6V9.4M152.3 11.6V9.4M171.7 11.6V9.4M156.4 11.6V9.4M175.3 11.6V9.4"/><path class="cls-19" d="M112.4 6h1.9v3.4h-1.9"/><path class="cls-14" d="M113.7 9.4V6.1M112.4 6h1.9v3.4h-1.9"/><path class="cls-16" d="M112.5 11.6v5"/><path class="cls-19" d="M112.5 2h1.9v3.4h-1.9"/><path class="cls-14" d="M112.7 4.6l.7.8M114.1 2l.5.5"/><path class="cls-16" d="M112.5 2h1.9v3.4h-1.9M114.4 5.4v4"/><path class="cls-19" d="M175.4 6h-1.9v3.4h1.9"/><path class="cls-14" d="M174.4 9.4V6.1M175.4 6h-1.9v3.4h1.9"/><path class="cls-16" d="M175.3 11.6v5"/><path class="cls-19" d="M175.3 2h-1.9v3.4h1.9"/><path class="cls-14" d="M174.1 2l1.5 1.2"/><path class="cls-16" d="M175.3 2h-1.9v3.4h1.9M173.4 5.4v4"/><path class="cls-15" d="M29.4 9.4V2h-3.3V0H70v2h-3.4v7.4"/><path class="cls-1" d="M27.7 16.6h40.8"/><path class="cls-15" d="M68.1 16.6h.4"/><path class="cls-16" d="M29.4 2h-3.3M66.6 2H70"/><path class="cls-15" d="M27.7 9.4h40.8v2.2H27.7zM31.3 9.4v2.2M64.7 9.4v2.2M27.7 11.6V9.4M46 11.6V9.4M31.3 11.6V9.4M50.1 11.6V9.4M46 11.6V9.4M64.7 11.6V9.4M50.1 11.6V9.4M68.5 11.6V9.4"/><path class="cls-19" d="M27.7 6h1.8v3.4h-1.8"/><path class="cls-14" d="M28.5 9.4V6.1M27.7 6h1.8v3.4h-1.8"/><path class="cls-16" d="M27.7 11.6v5"/><path class="cls-19" d="M27.7 2h1.7v3.4h-1.7"/><path class="cls-14" d="M28 3.9l1.2 1.5"/><path class="cls-16" d="M27.7 2h1.7v3.4h-1.7M29.4 5.4v4"/><path class="cls-19" d="M68.5 6h-1.9v3.4h1.9"/><path class="cls-14" d="M68.3 9.4V6.1M66.9 9.4V6.1M68.5 6h-1.9v3.4h1.9"/><path class="cls-16" d="M68.5 11.6v5"/><path class="cls-19" d="M68.5 2h-1.9v3.4h1.9"/><path class="cls-14" d="M66.9 2.7l1.9 1.9"/><path class="cls-16" d="M68.5 2h-1.9v3.4h1.9M66.6 5.4v4"/><path class="cls-20" d="M23.9 327.4v14.7H.1v-14.7h23.8"/><path class="cls-19" d="M23.9 342.1v-3.4H.1v3.4h23.8"/><path class="cls-14" d="M.4 341.1l.7 1M1.8 338.7l3.4 3.4M5.9 338.7l3.4 3.4M9.7 338.7l3.4 3.4M13.8 338.7l3.4 3.4M17.9 338.7l3.4 3.4M21.7 338.7l2.4 2.2"/><path class="cls-19" d="M23.9 338.7v-.5H.1v.5h23.8M23.9 338.2v-5.7H.1v5.7h23.8"/><path class="cls-14" d="M1.6 332.5v5.7M3 332.5v5.7M4.5 332.5v5.7M5.9 332.5v5.7M7.3 332.5v5.7M8.8 332.5v5.7M10 332.5v5.7M11.4 332.5v5.7M12.9 332.5v5.7M14.3 332.5v5.7M15.7 332.5v5.7M17.2 332.5v5.7M18.6 332.5v5.7M20.1 332.5v5.7M21.5 332.5v5.7M22.9 332.5v5.7"/><path class="cls-19" d="M23.9 332.5v-5.1H.1v5.1h23.8"/><path class="cls-14" d="M.4 329.1l3.1 3.4M2.5 327.4l5.1 5.1M6.6 327.4l5.1 5.1M10.5 327.4l5 5.1M14.5 327.4l5.1 5.1M18.6 327.4l5.1 5.1M22.5 327.4l1.6 1.5"/><path class="cls-16" d="M23.9 338.7H.1M23.9 342.1H.1"/><path class="cls-14" d="M23.9 332.5H.1M23.9 338.2H.1"/><path class="cls-16" d="M23.9 327.4H.1M23.9 332.5H.1"/><path class="cls-15" d="M23.9 342.1H.1M23.9 327.4H.1"/><path class="cls-20" d="M112.5 327.4v14.7H64.7v-14.7h47.8"/><path class="cls-19" d="M112.5 342.1v-3.4H64.7v3.4h47.8"/><path class="cls-14" d="M64.9 341.6l.3.5M65.9 338.7l3.4 3.4M70 338.7l3.3 3.4M73.8 338.7l3.4 3.4M77.9 338.7l3.4 3.4M82 338.7l3.3 3.4M86.1 338.7l3.3 3.4M89.9 338.7l3.4 3.4M94 338.7l3.3 3.4M98.1 338.7l3.3 3.4M101.9 338.7l3.4 3.4M106 338.7l3.3 3.4M110.1 338.7l2.6 2.7"/><path class="cls-19" d="M112.5 338.7v-.5H64.7v.5h47.8M112.5 338.2v-5.7H64.7v5.7h47.8"/><path class="cls-14" d="M65.4 332.5v5.7M66.9 332.5v5.7M68.3 332.5v5.7M69.5 332.5v5.7M70.9 332.5v5.7M72.4 332.5v5.7M73.8 332.5v5.7M75.3 332.5v5.7M76.7 332.5v5.7M78.1 332.5v5.7M79.6 332.5v5.7M81 332.5v5.7M82.5 332.5v5.7M83.9 332.5v5.7M85.1 332.5v5.7M86.5 332.5v5.7M88 332.5v5.7M89.4 332.5v5.7M90.9 332.5v5.7M92.3 332.5v5.7M93.7 332.5v5.7M95.2 332.5v5.7M96.6 332.5v5.7M98.1 332.5v5.7M99.3 332.5v5.7M100.7 332.5v5.7M102.1 332.5v5.7M103.6 332.5v5.7M105 332.5v5.7M106.5 332.5v5.7M107.9 332.5v5.7M109.3 332.5v5.7M110.8 332.5v5.7M112.2 332.5v5.7"/><path class="cls-19" d="M112.5 332.5v-5.1H64.7v5.1h47.8"/><path class="cls-14" d="M64.9 329.6l2.7 2.9M66.6 327.4l5.1 5.1M70.7 327.4l5 5.1M74.8 327.4l5 5.1M78.6 327.4l5.1 5.1M82.7 327.4l5 5.1M86.8 327.4l5 5.1M90.6 327.4l5.1 5.1M94.7 327.4l5 5.1M98.8 327.4l5 5.1M102.9 327.4l5 5.1M106.7 327.4l5 5.1M110.8 327.4l1.9 2"/><path class="cls-16" d="M112.5 338.7H64.7M112.5 342.1H64.7"/><path class="cls-14" d="M112.5 332.5H64.7M112.5 338.2H64.7"/><path class="cls-16" d="M112.5 327.4H64.7M112.5 332.5H64.7"/><path class="cls-15" d="M112.5 342.1H64.7M112.5 327.4H64.7"/><path class="cls-20" d="M193.1 327.4v14.7h-17.8v-14.7h17.8"/><path class="cls-19" d="M193.1 342.1v-3.4h-17.8v3.4h17.8"/><path class="cls-14" d="M175.6 339.9l1.9 2.2M178.2 338.7l3.4 3.4M182.1 338.7l3.3 3.4M186.1 338.7l3.4 3.4M190.2 338.7l3.1 3.1"/><path class="cls-19" d="M193.1 338.7v-.5h-17.8v.5h17.8M193.1 338.2v-5.7h-17.8v5.7h17.8"/><path class="cls-14" d="M175.8 332.5v5.7M177.3 332.5v5.7M178.7 332.5v5.7M180.1 332.5v5.7M181.6 332.5v5.7M183 332.5v5.7M184.5 332.5v5.7M185.9 332.5v5.7M187.3 332.5v5.7M188.8 332.5v5.7M190 332.5v5.7M191.4 332.5v5.7M192.9 332.5v5.7"/><path class="cls-19" d="M193.1 332.5v-5.1h-17.8v5.1h17.8"/><path class="cls-14" d="M175.6 332l.2.5M175.6 327.9l4.3 4.6M178.9 327.4l5.1 5.1M183 327.4l5.1 5.1M186.9 327.4l5 5.1M190.9 327.4l2.4 2.4"/><path class="cls-16" d="M193.1 338.7h-17.8M193.1 342.1h-17.8"/><path class="cls-14" d="M193.1 332.5h-17.8M193.1 338.2h-17.8"/><path class="cls-16" d="M193.1 327.4h-17.8M193.1 332.5h-17.8"/><path class="cls-15" d="M193.1 342.1h-17.8M193.1 327.4h-17.8M63 334.9v7.2h3.4v1.9H22.5v-1.9h3.3v-7.2"/><path class="cls-1" d="M64.7 327.4H23.9"/><path class="cls-15" d="M24.4 327.4h-.5"/><path class="cls-16" d="M63 342.1h3.4M25.8 342.1h-3.3"/><path class="cls-15" d="M23.9 332.5h40.8v2.4H23.9zM61.1 334.9v-2.4M27.7 334.9v-2.4M64.7 332.5v2.4M46.5 332.5v2.4M61.1 332.5v2.4M42.4 332.5v2.4M46.5 332.5v2.4M27.7 332.5v2.4M42.4 332.5v2.4M23.9 332.5v2.4"/><path class="cls-19" d="M64.8 338.2H63v-3.4h1.8"/><path class="cls-14" d="M64 334.9v3.3M64.8 338.2H63v-3.4h1.8"/><path class="cls-16" d="M64.7 332.5v-5.1"/><path class="cls-19" d="M64.7 342.1H63v-3.4h1.7"/><path class="cls-14" d="M63.3 339.9l1.6 1.7"/><path class="cls-16" d="M64.7 342.1H63v-3.4h1.7M63 338.7v-3.8"/><path class="cls-19" d="M24 338.2h1.8v-3.4H24"/><path class="cls-14" d="M24.1 334.9v3.3M25.6 334.9v3.3M24 338.2h1.8v-3.4H24"/><path class="cls-16" d="M23.9 332.5v-5.1"/><path class="cls-19" d="M23.9 342.1h1.9v-3.4h-1.9"/><path class="cls-14" d="M24.1 340.9l1 1.2M25.8 338.7h.3"/><path class="cls-16" d="M23.9 342.1h1.9v-3.4h-1.9M25.8 338.7v-3.8"/><path class="cls-1" d="M175.3 327.4h-62.8"/><path class="cls-15" d="M112.5 332.5h62.9v2.4h-62.9zM171.7 334.9v-2.4M116.1 334.9v-2.4M175.3 332.5v2.4M156.4 332.5v2.4M171.7 332.5v2.4M152.3 332.5v2.4M156.4 332.5v2.4M135.5 332.5v2.4M152.3 332.5v2.4M131.4 332.5v2.4M135.5 332.5v2.4M116.1 332.5v2.4M131.4 332.5v2.4M112.5 332.5v2.4"/><path class="cls-16" d="M175.3 332.5v-5.1"/><path class="cls-15" d="M110.8 342.1v1.9"/><path class="cls-7" d="M110.8 344H177"/><path class="cls-15" d="M177 344v-.7"/><path class="cls-19" d="M175.4 338.2h-1.9v-3.4h1.9"/><path class="cls-14" d="M174.4 334.9v3.3M175.4 338.2h-1.9v-3.4h1.9"/><path class="cls-19" d="M175.3 342.1h-1.9v-3.4h1.9"/><path class="cls-14" d="M174.1 338.7l1.5 1.2"/><path class="cls-16" d="M175.3 342.1h-1.9v-3.4h1.9M173.4 338.7v-3.8"/><path class="cls-19" d="M112.4 338.2h1.9v-3.4h-1.9"/><path class="cls-14" d="M113.7 334.9v3.3M112.4 338.2h1.9v-3.4h-1.9"/><path class="cls-16" d="M112.5 332.5v-5.1"/><path class="cls-19" d="M112.5 342.1h1.9v-3.4h-1.9"/><path class="cls-14" d="M112.7 341.4l.7.7M114.1 338.7l.5.5"/><path class="cls-16" d="M112.5 342.1h1.9v-3.4h-1.9M114.4 338.7v-3.8"/><path class="cls-19" d="M262.2 223.5v7.2h139.2l-7.2-7.2h-132"/><path class="cls-14" d="M398.8 230.7l-7.2-7.2M394.9 230.7l-7.2-7.2M390.9 230.7l-7.2-7.2M386.8 230.7l-7.2-7.2M382.9 230.7l-7.2-7.2M378.9 230.7l-7.2-7.2M374.8 230.7l-7.2-7.2M370.9 230.7l-7.2-7.2M366.9 230.7l-7.2-7.2M362.8 230.7l-7.2-7.2M358.7 230.7l-7.2-7.2M354.9 230.7l-7.2-7.2M350.8 230.7l-7.2-7.2M346.7 230.7l-7.2-7.2M342.9 230.7l-7.2-7.2M338.8 230.7l-7.2-7.2M334.7 230.7l-7.2-7.2M330.6 230.7l-7.2-7.2M326.8 230.7l-7.2-7.2M322.7 230.7l-7.2-7.2M318.6 230.7l-7.2-7.2M314.8 230.7l-7.2-7.2M310.7 230.7l-7.2-7.2M306.6 230.7l-7.2-7.2M302.8 230.7l-7.2-7.2M298.7 230.7l-7.2-7.2M294.6 230.7l-7.2-7.2M290.5 230.7l-7.2-7.2M286.7 230.7l-7.2-7.2M282.6 230.7l-7.2-7.2M278.5 230.7l-7.2-7.2M274.7 230.7l-7.2-7.2M270.6 230.7l-7.2-7.2M266.5 230.7l-4-4.3M262.7 230.7l-.2-.2M399.7 230.7l1-.9M395.9 230.7l2.9-2.9M391.8 230.7l4.8-4.8M387.7 230.7l7-6.9M383.9 230.7l7.2-7.2M379.8 230.7l7.2-7.2M375.7 230.7l7.2-7.2M371.7 230.7l7.2-7.2M367.8 230.7l7.2-7.2M363.7 230.7l7.2-7.2M359.7 230.7l7.2-7.2M355.8 230.7l7.2-7.2M351.7 230.7l7.2-7.2M347.7 230.7l7.2-7.2M343.6 230.7l7.2-7.2M339.7 230.7l7.2-7.2M335.7 230.7l7.2-7.2M331.6 230.7l7.2-7.2M327.7 230.7l7.2-7.2M323.7 230.7l7.2-7.2M319.6 230.7l7.2-7.2M315.7 230.7l7.2-7.2M311.7 230.7l7.2-7.2M307.6 230.7l7.2-7.2M303.5 230.7l7.2-7.2M299.7 230.7l7.2-7.2M295.6 230.7l7.2-7.2M291.5 230.7l7.2-7.2M287.7 230.7l7.2-7.2M283.6 230.7l7.2-7.2M279.5 230.7l7.2-7.2M275.7 230.7l7.2-7.2M271.6 230.7l7.2-7.2M267.5 230.7l7.2-7.2M263.4 230.7l7.2-7.2M262.5 227.8l4.3-4.3M262.5 223.8l.2-.3"/><path class="cls-19" d="M262.2 223.5v7.2h139.2l-7.2-7.2h-132"/><path class="cls-14" d="M398.8 230.7l-7.2-7.2M394.9 230.7l-7.2-7.2M390.9 230.7l-7.2-7.2M386.8 230.7l-7.2-7.2M382.9 230.7l-7.2-7.2M378.9 230.7l-7.2-7.2M374.8 230.7l-7.2-7.2M370.9 230.7l-7.2-7.2M366.9 230.7l-7.2-7.2M362.8 230.7l-7.2-7.2M358.7 230.7l-7.2-7.2M354.9 230.7l-7.2-7.2M350.8 230.7l-7.2-7.2M346.7 230.7l-7.2-7.2M342.9 230.7l-7.2-7.2M338.8 230.7l-7.2-7.2M334.7 230.7l-7.2-7.2M330.6 230.7l-7.2-7.2M326.8 230.7l-7.2-7.2M322.7 230.7l-7.2-7.2M318.6 230.7l-7.2-7.2M314.8 230.7l-7.2-7.2M310.7 230.7l-7.2-7.2M306.6 230.7l-7.2-7.2M302.8 230.7l-7.2-7.2M298.7 230.7l-7.2-7.2M294.6 230.7l-7.2-7.2M290.5 230.7l-7.2-7.2M286.7 230.7l-7.2-7.2M282.6 230.7l-7.2-7.2M278.5 230.7l-7.2-7.2M274.7 230.7l-7.2-7.2M270.6 230.7l-7.2-7.2M266.5 230.7l-4-4.3M262.7 230.7l-.2-.2M399.7 230.7l1-.9M395.9 230.7l2.9-2.9M391.8 230.7l4.8-4.8M387.7 230.7l7-6.9M383.9 230.7l7.2-7.2M379.8 230.7l7.2-7.2M375.7 230.7l7.2-7.2M371.7 230.7l7.2-7.2M367.8 230.7l7.2-7.2M363.7 230.7l7.2-7.2M359.7 230.7l7.2-7.2M355.8 230.7l7.2-7.2M351.7 230.7l7.2-7.2M347.7 230.7l7.2-7.2M343.6 230.7l7.2-7.2M339.7 230.7l7.2-7.2M335.7 230.7l7.2-7.2M331.6 230.7l7.2-7.2M327.7 230.7l7.2-7.2M323.7 230.7l7.2-7.2M319.6 230.7l7.2-7.2M315.7 230.7l7.2-7.2M311.7 230.7l7.2-7.2M307.6 230.7l7.2-7.2M303.5 230.7l7.2-7.2M299.7 230.7l7.2-7.2M295.6 230.7l7.2-7.2M291.5 230.7l7.2-7.2M287.7 230.7l7.2-7.2M283.6 230.7l7.2-7.2M279.5 230.7l7.2-7.2M275.7 230.7l7.2-7.2M271.6 230.7l7.2-7.2M267.5 230.7l7.2-7.2M263.4 230.7l7.2-7.2M262.5 227.8l4.3-4.3M262.5 223.8l.2-.3"/><path class="cls-16" d="M394.2 223.5h-132M401.4 230.7H262.2M401.4 230.7H262.2M394.2 223.5h-132"/><path class="cls-19" d="M186.1 223.5l7 7.2h11v-7.2h-18"/><path class="cls-14" d="M204.4 224.5l-1.2-1M204.4 228.6l-5.1-5.1M202.5 230.7l-7.2-7.2M198.4 230.7l-7.2-7.2M194.5 230.7l-7.2-7.2M203.4 230.7l1-.9M199.3 230.7l5.1-4.8M195.3 230.7l7.2-7.2M192.4 229.8l6.2-6.3M190.2 227.8l4.3-4.3M188.3 225.7l2.2-2.2M186.4 223.8l.2-.3"/><path class="cls-19" d="M186.1 223.5l7 7.2h11v-7.2h-18"/><path class="cls-14" d="M204.4 224.5l-1.2-1M204.4 228.6l-5.1-5.1M202.5 230.7l-7.2-7.2M198.4 230.7l-7.2-7.2M194.5 230.7l-7.2-7.2M203.4 230.7l1-.9M199.3 230.7l5.1-4.8M195.3 230.7l7.2-7.2M192.4 229.8l6.2-6.3M190.2 227.8l4.3-4.3M188.3 225.7l2.2-2.2M186.4 223.8l.2-.3"/><path class="cls-16" d="M204.1 223.5h-18M204.1 230.7h-11M204.1 230.7h-11M204.1 223.5h-18"/><path class="cls-19" d="M256.5 220.6l5.7 10.1v-74.9l-5.7 10.1v54.7"/><path class="cls-14" d="M262.5 158.2l-1-.7M262.5 162.3l-2.4-2.4M262.5 166.4l-3.9-3.8M262.5 170.2l-5.3-5.2M262.5 174.3l-5.8-5.7M262.5 178.4l-5.8-5.8M262.5 182.5l-5.8-5.8M262.5 186.3l-5.8-5.7M262.5 190.4l-5.8-5.8M262.5 194.5l-5.8-5.8M262.5 198.3l-5.8-5.7M262.5 202.4l-5.8-5.8M262.5 206.5l-5.8-5.8M262.5 210.3l-5.8-5.7M262.5 214.4l-5.8-5.8M262.5 218.5l-5.8-5.8M262.5 222.6l-5.8-5.8M262.5 226.4l-5.8-5.5M262.5 230.5l-.5-.3M261.3 228.8l1.2-1M259.8 226.4l2.7-2.6M258.4 223.8l4.1-3.9M256.9 221.4l5.6-5.6M256.7 217.5l5.8-5.7M256.7 213.7l5.8-5.8M256.7 209.6l5.8-5.8M256.7 205.5l5.8-5.7M256.7 201.7l5.8-5.8M256.7 197.6l5.8-5.8M256.7 193.5l5.8-5.7M256.7 189.4l5.8-5.7M256.7 185.6l5.8-5.8M256.7 181.5l5.8-5.7M256.7 177.4l5.8-5.7M256.7 173.6l5.8-5.8M256.7 169.5l5.8-5.7M257.2 165l5.3-5.3"/><path class="cls-19" d="M256.5 220.6l5.7 10.1v-74.9l-5.7 10.1v54.7"/><path class="cls-14" d="M262.5 158.2l-1-.7M262.5 162.3l-2.4-2.4M262.5 166.4l-3.9-3.8M262.5 170.2l-5.3-5.2M262.5 174.3l-5.8-5.7M262.5 178.4l-5.8-5.8M262.5 182.5l-5.8-5.8M262.5 186.3l-5.8-5.7M262.5 190.4l-5.8-5.8M262.5 194.5l-5.8-5.8M262.5 198.3l-5.8-5.7M262.5 202.4l-5.8-5.8M262.5 206.5l-5.8-5.8M262.5 210.3l-5.8-5.7M262.5 214.4l-5.8-5.8M262.5 218.5l-5.8-5.8M262.5 222.6l-5.8-5.8M262.5 226.4l-5.8-5.5M262.5 230.5l-.5-.3M261.3 228.8l1.2-1M259.8 226.4l2.7-2.6M258.4 223.8l4.1-3.9M256.9 221.4l5.6-5.6M256.7 217.5l5.8-5.7M256.7 213.7l5.8-5.8M256.7 209.6l5.8-5.8M256.7 205.5l5.8-5.7M256.7 201.7l5.8-5.8M256.7 197.6l5.8-5.8M256.7 193.5l5.8-5.7M256.7 189.4l5.8-5.7M256.7 185.6l5.8-5.8M256.7 181.5l5.8-5.7M256.7 177.4l5.8-5.7M256.7 173.6l5.8-5.8M256.7 169.5l5.8-5.7M257.2 165l5.3-5.3"/><path class="cls-16" d="M256.5 165.9v54.7M262.2 155.8v67.7M262.2 155.8v67.7M256.5 165.9v54.7M214 173.6h29.8v39.6H214z"/><path class="cls-15" d="M212.3 164.5h35.5M230.5 167.6h-13.9M243.3 170.5h-14M394.2 184.4h-33.8M394.2 176.7h-33.8M394.2 169h-33.8M394.2 161.4h-33.8M262.2 161.4h34.1M262.2 169h34.1M262.2 176.7h34.1M262.2 184.4h34.1M335.9 223.5l7.9-35.5M296.3 156.1h64.1v33.4h-64.1zM279.3 161.4l-3.9 3.8h7.7l-3.8-3.8zM355.1 189.4v34.1M347.4 189.4v34.1M339.7 189.4v34.1M332.1 189.4v34.1M324.4 189.4v34.1M316.7 189.4v34.1M309.3 189.4v34.1M301.6 189.4v34.1"/><path class="cls-15" d="M297.7 157.5h61.2V188h-61.2zM301.6 206.5l3.8 3.8v-7.7l-3.8 3.9zM339.7 206.5l3.9 3.8v-7.7l-3.9 3.9zM377.4 184.4l3.9-3.8h-7.7l3.8 3.8z"/><path class="cls-19" d="M211.1 115v7h145v-7h-145"/><path class="cls-14" d="M356.3 115.8l-1-.8M356.3 119.8l-5-4.8M354.4 122l-7-7M350.3 122l-7-7M346.2 122l-6.9-7M342.4 122l-7-7M338.3 122l-7-7M334.2 122l-6.9-7M330.1 122l-6.9-7M326.3 122l-7-7M322.2 122l-6.9-7M318.1 122l-6.9-7M314.3 122l-7-7M310.2 122l-6.9-7M306.1 122l-6.9-7M302.3 122l-7-7M298.2 122l-6.9-7M294.1 122l-6.9-7M290.1 122l-7-7M286.2 122l-6.9-7M282.1 122l-6.9-7M278.1 122l-7-7M274.2 122l-6.9-7M270.1 122l-6.9-7M266.1 122l-7-7M262.2 122l-6.9-7M258.1 122l-6.9-7M254.1 122l-7-7M250 122l-7-7M246.1 122l-6.9-7M242.1 122l-7-7M238 122l-7-7M234.1 122l-6.9-7M230.1 122l-7-7M226 122l-7-7M221.9 122l-7-7M218.1 122l-6.8-6.7M214 122l-2.7-2.9M352.2 122l4.1-4.1M348.1 122l7-7M344.1 122l6.9-7M340.2 122l7-7M336.1 122l7-7M332.1 122l6.9-7M328.2 122l7-7M324.1 122l7-7M320.1 122l6.9-7M316.2 122l7-7M312.1 122l7-7M308.1 122l6.9-7M304 122l6.9-7M300.1 122l7-7M296.1 122l6.9-7M292 122l6.9-7M288.1 122l7-7M284.1 122l6.9-7M280 122l6.9-7M276.1 122l7-7M272.1 122l6.9-7M268 122l6.9-7M263.9 122l7-7M260.1 122l6.9-7M256 122l6.9-7M251.9 122l7-7M248.1 122l6.9-7M244 122l6.9-7M239.9 122l7-7M235.8 122l7-7M232 122l6.9-7M227.9 122l7-7M223.8 122l7-7M220 122l6.9-7M215.9 122l7-7M211.8 122l7-7M211.3 118.6l3.6-3.6"/><path class="cls-19" d="M211.1 115v7h145v-7h-145"/><path class="cls-14" d="M356.3 115.8l-1-.8M356.3 119.8l-5-4.8M354.4 122l-7-7M350.3 122l-7-7M346.2 122l-6.9-7M342.4 122l-7-7M338.3 122l-7-7M334.2 122l-6.9-7M330.1 122l-6.9-7M326.3 122l-7-7M322.2 122l-6.9-7M318.1 122l-6.9-7M314.3 122l-7-7M310.2 122l-6.9-7M306.1 122l-6.9-7M302.3 122l-7-7M298.2 122l-6.9-7M294.1 122l-6.9-7M290.1 122l-7-7M286.2 122l-6.9-7M282.1 122l-6.9-7M278.1 122l-7-7M274.2 122l-6.9-7M270.1 122l-6.9-7M266.1 122l-7-7M262.2 122l-6.9-7M258.1 122l-6.9-7M254.1 122l-7-7M250 122l-7-7M246.1 122l-6.9-7M242.1 122l-7-7M238 122l-7-7M234.1 122l-6.9-7M230.1 122l-7-7M226 122l-7-7M221.9 122l-7-7M218.1 122l-6.8-6.7M214 122l-2.7-2.9M352.2 122l4.1-4.1M348.1 122l7-7M344.1 122l6.9-7M340.2 122l7-7M336.1 122l7-7M332.1 122l6.9-7M328.2 122l7-7M324.1 122l7-7M320.1 122l6.9-7M316.2 122l7-7M312.1 122l7-7M308.1 122l6.9-7M304 122l6.9-7M300.1 122l7-7M296.1 122l6.9-7M292 122l6.9-7M288.1 122l7-7M284.1 122l6.9-7M280 122l6.9-7M276.1 122l7-7M272.1 122l6.9-7M268 122l6.9-7M263.9 122l7-7M260.1 122l6.9-7M256 122l6.9-7M251.9 122l7-7M248.1 122l6.9-7M244 122l6.9-7M239.9 122l7-7M235.8 122l7-7M232 122l6.9-7M227.9 122l7-7M223.8 122l7-7M220 122l6.9-7M215.9 122l7-7M211.8 122l7-7M211.3 118.6l3.6-3.6"/><path class="cls-16" d="M356.1 115h-145M356.1 122h-145M356.1 122h-145M356.1 115h-145"/><path class="cls-19" d="M391.8 122h2.4l7.2-7h-9.6v7"/><path class="cls-14" d="M400.5 116l-1-1M398.5 117.9l-3.1-2.9M396.4 120.1l-4.3-4.6M394.5 122l-2.4-2.4M392.3 122l7-7M392.1 118.4l3.1-3.4"/><path class="cls-19" d="M391.8 122h2.4l7.2-7h-9.6v7"/><path class="cls-14" d="M400.5 116l-1-1M398.5 117.9l-3.1-2.9M396.4 120.1l-4.3-4.6M394.5 122l-2.4-2.4M392.3 122l7-7M392.1 118.4l3.1-3.4"/><path class="cls-16" d="M401.4 115h-9.6M394.2 122h-2.4M394.2 122h-2.4M401.4 115h-9.6"/><path class="cls-15" d="M389.2 114.3h2.6v1.7h-2.6zM356.1 114.3h6v1.7h-6z"/><path class="cls-15" d="M362.1 114.3h27.1v1.7h-27.1zM389.2 116h-27.1"/><path class="cls-1" d="M389.4 122h-27.6"/><path class="cls-15" d="M362.3 122h-.5"/><path class="cls-19" d="M391.8 122h-2.4v-6h2.4"/><path class="cls-14" d="M392.1 119.6l-2.4-2.4M390.4 122l-.7-1M389.7 120.8l2.4-2.4M389.7 116.7l.7-.7"/><path class="cls-19" d="M356.1 122h5.7v-6h-5.7"/><path class="cls-14" d="M362.1 117.7l-1.7-1.7M362.1 121.5l-5.8-5.5M358.2 122l-1.9-2.2M360.1 122l2-1.7M356.3 122l5.8-5.8M356.3 117.9l1.9-1.9"/><path class="cls-16" d="M389.4 122v-6M361.8 122v-6M389.4 122v-6M391.8 122h-2.4M361.8 122v-6M356.1 122h5.7M391.8 115v1M356.1 115v1M391.8 122h-2.4M356.1 122h5.7M389.4 116h2.4M361.8 116h-5.7"/><path class="cls-19" d="M193.1 230.7l-7-7.2v109h7V230.7"/><path class="cls-14" d="M193.3 233.6l-6.9-7M193.3 237.4l-6.9-6.9M193.3 241.5l-6.9-6.9M193.3 245.6l-6.9-7M193.3 249.4l-6.9-6.9M193.3 253.5l-6.9-6.9M193.3 257.6l-6.9-7M193.3 261.7l-6.9-7M193.3 265.5l-6.9-6.9M193.3 269.6l-6.9-7M193.3 273.7l-6.9-7M193.3 277.5l-6.9-6.9M193.3 281.6l-6.9-7M193.3 285.7l-6.9-7M193.3 289.5l-6.9-6.9M193.3 293.6l-6.9-7M193.3 297.7l-6.9-7M193.3 301.8l-6.9-7M193.3 305.6l-6.9-7M193.3 309.7l-6.9-7M193.3 313.8l-6.9-7M193.3 317.6l-6.9-7M193.3 321.7l-6.9-7M193.3 325.8l-6.9-7M193.3 329.8l-6.9-6.9M191.9 332.5l-5.5-5.8M188.1 332.5l-1.7-1.7M189.7 332.5l3.6-3.4M186.4 332l6.9-7M186.4 327.9l6.9-6.9M186.4 324.1l6.9-7M186.4 320l6.9-7M186.4 315.9l6.9-6.9M186.4 312.1l6.9-7M186.4 308l6.9-7M186.4 303.9l6.9-6.9M186.4 299.8l6.9-6.9M186.4 296l6.9-7M186.4 291.9l6.9-6.9M186.4 287.8l6.9-6.9M186.4 284l6.9-7M186.4 279.9l6.9-6.9M186.4 275.8l6.9-6.9M186.4 272l6.9-7M186.4 267.9l6.9-6.9M186.4 263.8l6.9-6.9M186.4 259.8l6.9-7M186.4 255.9l6.9-6.9M186.4 251.8l6.9-6.9M186.4 247.8l6.9-7M186.4 243.9l6.9-6.9M186.4 239.8l6.9-6.9M186.4 235.8l6-6M186.4 231.9l3.8-4.1M186.4 227.8l1.9-2.1M186.4 223.8"/><path class="cls-19" d="M193.1 230.7l-7-7.2v109h7V230.7"/><path class="cls-14" d="M193.3 233.6l-6.9-7M193.3 237.4l-6.9-6.9M193.3 241.5l-6.9-6.9M193.3 245.6l-6.9-7M193.3 249.4l-6.9-6.9M193.3 253.5l-6.9-6.9M193.3 257.6l-6.9-7M193.3 261.7l-6.9-7M193.3 265.5l-6.9-6.9M193.3 269.6l-6.9-7M193.3 273.7l-6.9-7M193.3 277.5l-6.9-6.9M193.3 281.6l-6.9-7M193.3 285.7l-6.9-7M193.3 289.5l-6.9-6.9M193.3 293.6l-6.9-7M193.3 297.7l-6.9-7M193.3 301.8l-6.9-7M193.3 305.6l-6.9-7M193.3 309.7l-6.9-7M193.3 313.8l-6.9-7M193.3 317.6l-6.9-7M193.3 321.7l-6.9-7M193.3 325.8l-6.9-7M193.3 329.8l-6.9-6.9M191.9 332.5l-5.5-5.8M188.1 332.5l-1.7-1.7M189.7 332.5l3.6-3.4M186.4 332l6.9-7M186.4 327.9l6.9-6.9M186.4 324.1l6.9-7M186.4 320l6.9-7M186.4 315.9l6.9-6.9M186.4 312.1l6.9-7M186.4 308l6.9-7M186.4 303.9l6.9-6.9M186.4 299.8l6.9-6.9M186.4 296l6.9-7M186.4 291.9l6.9-6.9M186.4 287.8l6.9-6.9M186.4 284l6.9-7M186.4 279.9l6.9-6.9M186.4 275.8l6.9-6.9M186.4 272l6.9-7M186.4 267.9l6.9-6.9M186.4 263.8l6.9-6.9M186.4 259.8l6.9-7M186.4 255.9l6.9-6.9M186.4 251.8l6.9-6.9M186.4 247.8l6.9-7M186.4 243.9l6.9-6.9M186.4 239.8l6.9-6.9M186.4 235.8l6-6M186.4 231.9l3.8-4.1M186.4 227.8l1.9-2.1M186.4 223.8"/><path class="cls-16" d="M193.1 332.5V230.7M186.1 332.5v-109M186.1 332.5v-109M193.1 332.5V230.7M193.1 332.5h-7"/><path class="cls-19" d="M7.3 332.5H.1V11.6h7.2v320.9"/><path class="cls-14" d="M7.6 11.6h-.3M7.6 15.7l-4.3-4.1M7.6 19.8L.4 12.6M7.6 23.6L.4 16.4M7.6 27.7L.4 20.5M7.6 31.8L.4 24.6M7.6 35.8L.4 28.6M7.6 39.7L.4 32.5M7.6 43.8L.4 36.6M7.6 47.8L.4 40.6M7.6 51.7L.4 44.5M7.6 55.8L.4 48.6M7.6 59.8L.4 52.6M7.6 63.7L.4 56.5M7.6 67.8L.4 60.6M7.6 71.8L.4 64.6M7.6 75.9L.4 68.7M7.6 79.8L.4 72.6M7.6 83.8L.4 76.6M7.6 87.9L.4 80.7M7.6 91.8L.4 84.6M7.6 95.8L.4 88.6M7.6 99.9L.4 92.7M7.6 103.8L.4 96.6M7.6 107.8l-7.2-7.2M7.6 111.9l-7.2-7.2M7.6 116l-7.2-7.2M7.6 119.8l-7.2-7.2M7.6 123.9l-7.2-7.2M7.6 128l-7.2-7.2M7.6 131.8l-7.2-7.2M7.6 135.9l-7.2-7.2M7.6 140l-7.2-7.2M7.6 144.1l-7.2-7.2M7.6 147.9l-7.2-7.2M7.6 152l-7.2-7.2M7.6 156.1l-7.2-7.2M7.6 159.9l-7.2-7.2M7.6 164l-7.2-7.2M7.6 168.1l-7.2-7.2M7.6 171.9l-7.2-7.2M7.6 176l-7.2-7.2M7.6 180.1l-7.2-7.2M7.6 184.2L.4 177M7.6 188l-7.2-7.2M7.6 192.1l-7.2-7.2M7.6 196.2L.4 189M7.6 200l-7.2-7.2M7.6 204.1l-7.2-7.2M7.6 208.2L.4 201M7.6 212l-7.2-7.2M7.6 216.1l-7.2-7.2M7.6 220.2L.4 213M7.6 224.2L.4 217M7.6 228.1l-7.2-7.2M7.6 232.2L.4 225M7.6 236.2L.4 229M7.6 240.1l-7.2-7.2M7.6 244.2L.4 237M7.6 248.2L.4 241M7.6 252.3l-7.2-7.2M7.6 256.2L.4 249M7.6 260.2L.4 253M7.6 264.3l-7.2-7.2M7.6 268.2L.4 261M7.6 272.2L.4 265M7.6 276.3l-7.2-7.2M7.6 280.2L.4 273M7.6 284.2L.4 277M7.6 288.3l-7.2-7.2M7.6 292.4l-7.2-7.2M7.6 296.2L.4 289M7.6 300.3l-7.2-7.2M7.6 304.4l-7.2-7.2M7.6 308.2L.4 301M7.6 312.3l-7.2-7.2M7.6 316.4l-7.2-7.2M7.6 320.2L.4 313M7.6 324.3l-7.2-7.2M7.6 328.4l-7.2-7.2M7.6 332.5l-7.2-7.2M3.5 332.5l-3.1-3.4M5.4 332.5l2.2-2.2M1.3 332.5l6.3-6M.4 329.6l7.2-7.2M.4 325.5l7.2-7.2M.4 321.7l7.2-7.2M.4 317.6l7.2-7.2M.4 313.5l7.2-7.2M.4 309.7l7.2-7.2M.4 305.6l7.2-7.2M.4 301.5l7.2-7.2M.4 297.4l7.2-7.2M.4 293.6l7.2-7.2M.4 289.5l7.2-7.2M.4 285.4l7.2-7.2M.4 281.6l7.2-7.2M.4 277.5l7.2-7.2M.4 273.4l7.2-7.2M.4 269.6l7.2-7.2M.4 265.5l7.2-7.2M.4 261.4l7.2-7.2M.4 257.4l7.2-7.2M.4 253.5l7.2-7.2M.4 249.4l7.2-7.2M.4 245.4l7.2-7.2M.4 241.5l7.2-7.2M.4 237.4l7.2-7.2M.4 233.4l7.2-7.2M.4 229.3l7.2-7.2M.4 225.4l7.2-7.2M.4 221.4l7.2-7.2M.4 217.3l7.2-7.2M.4 213.4l7.2-7.2M.4 209.4l7.2-7.2M.4 205.3l7.2-7.2M.4 201.4l7.2-7.2M.4 197.4l7.2-7.2M.4 193.3l7.2-7.2M.4 189.2l7.2-7.2M.4 185.4l7.2-7.2M.4 181.3l7.2-7.2M.4 177.2l7.2-7.2M.4 173.4l7.2-7.2M.4 169.3l7.2-7.2M.4 165.2l7.2-7.2M.4 161.4l7.2-7.2M.4 157.3l7.2-7.2M.4 153.2l7.2-7.2M.4 149.1l7.2-7.2M.4 145.3l7.2-7.2M.4 141.2l7.2-7.2M.4 137.1l7.2-7.2M.4 133.3l7.2-7.2M.4 129.2l7.2-7.2M.4 125.1l7.2-7.2M.4 121.3l7.2-7.2M.4 117.2l7.2-7.2M.4 113.1l7.2-7.2M.4 109l7.2-7.2M.4 105.2L7.6 98M.4 101.1l7.2-7.2M.4 97l7.2-7.2M.4 93.2L7.6 86M.4 89.1l7.2-7.2M.4 85l7.2-7.2M.4 81l7.2-7.2M.4 77.1l7.2-7.2M.4 73l7.2-7.2M.4 69l7.2-7.2M.4 65.1l7.2-7.2M.4 61l7.2-7.2M.4 57l7.2-7.2M.4 53.1l7.2-7.2M.4 49l7.2-7.2M.4 45l7.2-7.2M.4 40.9l7.2-7.2M.4 37l7.2-7.2M.4 33l7.2-7.2M.4 28.9l7.2-7.2M.4 25l7.2-7.2M.4 21l7.2-7.2M.4 16.9l5.3-5.3M.4 13l1.2-1.4"/><path class="cls-19" d="M.1 332.5h7.2V11.6H.1v320.9"/><path class="cls-14" d="M7.6 11.6h-.3M7.6 15.7l-4.3-4.1M7.6 19.8L.4 12.6M7.6 23.6L.4 16.4M7.6 27.7L.4 20.5M7.6 31.8L.4 24.6M7.6 35.8L.4 28.6M7.6 39.7L.4 32.5M7.6 43.8L.4 36.6M7.6 47.8L.4 40.6M7.6 51.7L.4 44.5M7.6 55.8L.4 48.6M7.6 59.8L.4 52.6M7.6 63.7L.4 56.5M7.6 67.8L.4 60.6M7.6 71.8L.4 64.6M7.6 75.9L.4 68.7M7.6 79.8L.4 72.6M7.6 83.8L.4 76.6M7.6 87.9L.4 80.7M7.6 91.8L.4 84.6M7.6 95.8L.4 88.6M7.6 99.9L.4 92.7M7.6 103.8L.4 96.6M7.6 107.8l-7.2-7.2M7.6 111.9l-7.2-7.2M7.6 116l-7.2-7.2M7.6 119.8l-7.2-7.2M7.6 123.9l-7.2-7.2M7.6 128l-7.2-7.2M7.6 131.8l-7.2-7.2M7.6 135.9l-7.2-7.2M7.6 140l-7.2-7.2M7.6 144.1l-7.2-7.2M7.6 147.9l-7.2-7.2M7.6 152l-7.2-7.2M7.6 156.1l-7.2-7.2M7.6 159.9l-7.2-7.2M7.6 164l-7.2-7.2M7.6 168.1l-7.2-7.2M7.6 171.9l-7.2-7.2M7.6 176l-7.2-7.2M7.6 180.1l-7.2-7.2M7.6 184.2L.4 177M7.6 188l-7.2-7.2M7.6 192.1l-7.2-7.2M7.6 196.2L.4 189M7.6 200l-7.2-7.2M7.6 204.1l-7.2-7.2M7.6 208.2L.4 201M7.6 212l-7.2-7.2M7.6 216.1l-7.2-7.2M7.6 220.2L.4 213M7.6 224.2L.4 217M7.6 228.1l-7.2-7.2M7.6 232.2L.4 225M7.6 236.2L.4 229M7.6 240.1l-7.2-7.2M7.6 244.2L.4 237M7.6 248.2L.4 241M7.6 252.3l-7.2-7.2M7.6 256.2L.4 249M7.6 260.2L.4 253M7.6 264.3l-7.2-7.2M7.6 268.2L.4 261M7.6 272.2L.4 265M7.6 276.3l-7.2-7.2M7.6 280.2L.4 273M7.6 284.2L.4 277M7.6 288.3l-7.2-7.2M7.6 292.4l-7.2-7.2M7.6 296.2L.4 289M7.6 300.3l-7.2-7.2M7.6 304.4l-7.2-7.2M7.6 308.2L.4 301M7.6 312.3l-7.2-7.2M7.6 316.4l-7.2-7.2M7.6 320.2L.4 313M7.6 324.3l-7.2-7.2M7.6 328.4l-7.2-7.2M7.6 332.5l-7.2-7.2M3.5 332.5l-3.1-3.4M5.4 332.5l2.2-2.2M1.3 332.5l6.3-6M.4 329.6l7.2-7.2M.4 325.5l7.2-7.2M.4 321.7l7.2-7.2M.4 317.6l7.2-7.2M.4 313.5l7.2-7.2M.4 309.7l7.2-7.2M.4 305.6l7.2-7.2M.4 301.5l7.2-7.2M.4 297.4l7.2-7.2M.4 293.6l7.2-7.2M.4 289.5l7.2-7.2M.4 285.4l7.2-7.2M.4 281.6l7.2-7.2M.4 277.5l7.2-7.2M.4 273.4l7.2-7.2M.4 269.6l7.2-7.2M.4 265.5l7.2-7.2M.4 261.4l7.2-7.2M.4 257.4l7.2-7.2M.4 253.5l7.2-7.2M.4 249.4l7.2-7.2M.4 245.4l7.2-7.2M.4 241.5l7.2-7.2M.4 237.4l7.2-7.2M.4 233.4l7.2-7.2M.4 229.3l7.2-7.2M.4 225.4l7.2-7.2M.4 221.4l7.2-7.2M.4 217.3l7.2-7.2M.4 213.4l7.2-7.2M.4 209.4l7.2-7.2M.4 205.3l7.2-7.2M.4 201.4l7.2-7.2M.4 197.4l7.2-7.2M.4 193.3l7.2-7.2M.4 189.2l7.2-7.2M.4 185.4l7.2-7.2M.4 181.3l7.2-7.2M.4 177.2l7.2-7.2M.4 173.4l7.2-7.2M.4 169.3l7.2-7.2M.4 165.2l7.2-7.2M.4 161.4l7.2-7.2M.4 157.3l7.2-7.2M.4 153.2l7.2-7.2M.4 149.1l7.2-7.2M.4 145.3l7.2-7.2M.4 141.2l7.2-7.2M.4 137.1l7.2-7.2M.4 133.3l7.2-7.2M.4 129.2l7.2-7.2M.4 125.1l7.2-7.2M.4 121.3l7.2-7.2M.4 117.2l7.2-7.2M.4 113.1l7.2-7.2M.4 109l7.2-7.2M.4 105.2L7.6 98M.4 101.1l7.2-7.2M.4 97l7.2-7.2M.4 93.2L7.6 86M.4 89.1l7.2-7.2M.4 85l7.2-7.2M.4 81l7.2-7.2M.4 77.1l7.2-7.2M.4 73l7.2-7.2M.4 69l7.2-7.2M.4 65.1l7.2-7.2M.4 61l7.2-7.2M.4 57l7.2-7.2M.4 53.1l7.2-7.2M.4 49l7.2-7.2M.4 45l7.2-7.2M.4 40.9l7.2-7.2M.4 37l7.2-7.2M.4 33l7.2-7.2M.4 28.9l7.2-7.2M.4 25l7.2-7.2M.4 21l7.2-7.2M.4 16.9l5.3-5.3M.4 13l1.2-1.4"/><path class="cls-16" d="M7.3 332.5V11.6M.1 332.5V11.6M7.3 11.6H.1M.1 332.5V11.6M7.3 332.5V11.6M7.3 332.5H.1M97.3 16.6h-4"/><path class="cls-19" d="M97.3 186.1h-4V42.8h4v143.3"/><path class="cls-14" d="M93.5 45.4l2.4-2.6M93.5 49.5l4.1-4.1M93.5 53.8l4.1-4M93.5 58.2l4.1-4.1M93.5 62.2l4.1-4M93.5 66.6l4.1-4.1M93.5 70.9l4.1-4.1M93.5 75l4.1-4.1M93.5 79.3l4.1-4.1M93.5 83.6l4.1-4.1M93.5 87.9l4.1-4.1M93.5 92l4.1-4.1M93.5 96.3l4.1-4.1M93.5 100.6l4.1-4M93.5 104.7l4.1-4.1M93.5 109l4.1-4M93.5 113.4l4.1-4.1M93.5 117.7l4.1-4.1M93.5 121.8l4.1-4.1M93.5 126.1l4.1-4.1M93.5 130.4l4.1-4.1M93.5 134.5l4.1-4.1M93.5 138.8l4.1-4.1M93.5 143.1l4.1-4.1M93.5 147.4l4.1-4M93.5 151.5l4.1-4.1M93.5 155.8l4.1-4M93.5 160.2l4.1-4.1M93.5 164.2l4.1-4M93.5 168.6l4.1-4.1M93.5 172.9l4.1-4.1M93.5 177l4.1-4.1M93.5 181.3l4.1-4.1M93.5 185.6l4.1-4.1M97.1 186.1l.5-.3"/><path class="cls-19" d="M93.3 186.1h4V42.8h-4v143.3"/><path class="cls-14" d="M93.5 45.4l2.4-2.6M93.5 49.5l4.1-4.1M93.5 53.8l4.1-4M93.5 58.2l4.1-4.1M93.5 62.2l4.1-4M93.5 66.6l4.1-4.1M93.5 70.9l4.1-4.1M93.5 75l4.1-4.1M93.5 79.3l4.1-4.1M93.5 83.6l4.1-4.1M93.5 87.9l4.1-4.1M93.5 92l4.1-4.1M93.5 96.3l4.1-4.1M93.5 100.6l4.1-4M93.5 104.7l4.1-4.1M93.5 109l4.1-4M93.5 113.4l4.1-4.1M93.5 117.7l4.1-4.1M93.5 121.8l4.1-4.1M93.5 126.1l4.1-4.1M93.5 130.4l4.1-4.1M93.5 134.5l4.1-4.1M93.5 138.8l4.1-4.1M93.5 143.1l4.1-4.1M93.5 147.4l4.1-4M93.5 151.5l4.1-4.1M93.5 155.8l4.1-4M93.5 160.2l4.1-4.1M93.5 164.2l4.1-4M93.5 168.6l4.1-4.1M93.5 172.9l4.1-4.1M93.5 177l4.1-4.1M93.5 181.3l4.1-4.1M93.5 185.6l4.1-4.1M97.1 186.1l.5-.3"/><path class="cls-16" d="M97.3 186.1V42.8M93.3 154.6V42.8M93.3 186.1v-27.4M93.3 154.6V42.8M97.3 186.1V42.8M93.3 186.1v-27.4"/><path class="cls-19" d="M97.3 301.3h-4v-90h4v90"/><path class="cls-14" d="M93.5 215.4l3.8-4.1M93.5 219.7l4.1-4.1M93.5 223.8l4.1-4.1M93.5 228.1l4.1-4.1M93.5 232.4l4.1-4.1M93.5 236.5l4.1-4.1M93.5 240.8l4.1-4.1M93.5 245.1l4.1-4.1M93.5 249.4l4.1-4M93.5 253.5l4.1-4.1M93.5 257.8l4.1-4M93.5 262.2l4.1-4.1M93.5 266.2l4.1-4M93.5 270.6l4.1-4.1M93.5 274.9l4.1-4.1M93.5 279l4.1-4.1M93.5 283.3l4.1-4.1M93.5 287.6l4.1-4.1M93.5 291.9l4.1-4.1M93.5 296l4.1-4.1M93.5 300.3l4.1-4.1M96.6 301.3l1-.7"/><path class="cls-19" d="M93.3 301.3h4v-90h-4v90"/><path class="cls-14" d="M93.5 215.4l3.8-4.1M93.5 219.7l4.1-4.1M93.5 223.8l4.1-4.1M93.5 228.1l4.1-4.1M93.5 232.4l4.1-4.1M93.5 236.5l4.1-4.1M93.5 240.8l4.1-4.1M93.5 245.1l4.1-4.1M93.5 249.4l4.1-4M93.5 253.5l4.1-4.1M93.5 257.8l4.1-4M93.5 262.2l4.1-4.1M93.5 266.2l4.1-4M93.5 270.6l4.1-4.1M93.5 274.9l4.1-4.1M93.5 279l4.1-4.1M93.5 283.3l4.1-4.1M93.5 287.6l4.1-4.1M93.5 291.9l4.1-4.1M93.5 296l4.1-4.1M93.5 300.3l4.1-4.1M96.6 301.3l1-.7"/><path class="cls-16" d="M97.3 301.3v-90M93.3 215.4v-4.1M93.3 301.3v-80.9M93.3 215.4v-4.1M97.3 301.3v-90M93.3 301.3v-80.9M97.3 327.4h-4"/><path class="cls-15" d="M97.3 41.1h-4M97.3 18.6h-4"/><path class="cls-16" d="M97.3 42.8h-4M97.3 16.6h-4"/><path class="cls-14" d="M93.2 18.5c-12.4 0-22.7 10.2-22.7 22.7M93.3 41.1H70.5"/><path class="cls-15" d="M97.3 325.8h-4M97.3 303h-4"/><path class="cls-16" d="M97.3 327.4h-4M97.3 301.3h-4"/><path class="cls-14" d="M70.5 303c0 6 2.4 11.8 6.6 16 4.3 4.3 10 6.6 16 6.6M93.3 303H70.5"/><path class="cls-1" d="M97.3 211.3v-25.2M93.3 211.3v-25.2"/><path class="cls-15" d="M97.3 209.8h-4M97.3 187.3h-4"/><path class="cls-16" d="M97.3 211.3h-4M97.3 186.1h-4"/><path class="cls-14" d="M93.2 187.3c-12.4 0-22.7 10.2-22.7 22.7M93.3 209.8H70.5"/><path class="cls-19" d="M7.3 158.7h86v-4.1h-86v4.1"/><path class="cls-14" d="M7.6 156.8l1.9-2.2M9.7 158.7l4.1-4.1M14.1 158.7l4-4.1M18.1 158.7l4.1-4.1M22.5 158.7l4-4.1M26.8 158.7l4.1-4.1M31.1 158.7l4.1-4.1M35.2 158.7l4.1-4.1M39.5 158.7l4.1-4.1M43.8 158.7l4.1-4.1M47.9 158.7l4.1-4.1M52.2 158.7l4.1-4.1M56.5 158.7l4.1-4.1M60.6 158.7l4.1-4.1M64.9 158.7l4.1-4.1M69.3 158.7l4-4.1M73.6 158.7l4.1-4.1M77.7 158.7l4-4.1M82 158.7l4.1-4.1M86.3 158.7l4.1-4.1M90.4 158.7l3.1-2.9"/><path class="cls-19" d="M7.3 158.7h86v-4.1h-86v4.1"/><path class="cls-14" d="M7.6 156.8l1.9-2.2M9.7 158.7l4.1-4.1M14.1 158.7l4-4.1M18.1 158.7l4.1-4.1M22.5 158.7l4-4.1M26.8 158.7l4.1-4.1M31.1 158.7l4.1-4.1M35.2 158.7l4.1-4.1M39.5 158.7l4.1-4.1M43.8 158.7l4.1-4.1M47.9 158.7l4.1-4.1M52.2 158.7l4.1-4.1M56.5 158.7l4.1-4.1M60.6 158.7l4.1-4.1M64.9 158.7l4.1-4.1M69.3 158.7l4-4.1M73.6 158.7l4.1-4.1M77.7 158.7l4-4.1M82 158.7l4.1-4.1M86.3 158.7l4.1-4.1M90.4 158.7l3.1-2.9"/><path class="cls-16" d="M93.3 154.6h-86M93.3 158.7h-86M7.3 154.6v4.1M93.3 158.7h-86M93.3 154.6h-86"/><path class="cls-19" d="M7.3 220.4h86v-5h-86v5"/><path class="cls-14" d="M7.6 216.3l.7-.9M7.6 220.4l5-5M11.9 220.4l5-5M16 220.4l5-5M20.3 220.4l5-5M24.6 220.4l5.1-5M28.7 220.4l5-5M33 220.4l5.1-5M37.3 220.4l5.1-5M41.7 220.4l5-5M45.7 220.4l5.1-5M50.1 220.4l5-5M54.4 220.4l5-5M58.5 220.4l5-5M62.8 220.4l5-5M67.1 220.4l5-5M71.4 220.4l5.1-5M75.5 220.4l5-5M79.8 220.4l5.1-5M84.1 220.4l5.1-5M88.2 220.4l5.1-5M92.5 220.4l1-.7"/><path class="cls-19" d="M7.3 220.4h86v-5h-86v5"/><path class="cls-14" d="M7.6 216.3l.7-.9M7.6 220.4l5-5M11.9 220.4l5-5M16 220.4l5-5M20.3 220.4l5-5M24.6 220.4l5.1-5M28.7 220.4l5-5M33 220.4l5.1-5M37.3 220.4l5.1-5M41.7 220.4l5-5M45.7 220.4l5.1-5M50.1 220.4l5-5M54.4 220.4l5-5M58.5 220.4l5-5M62.8 220.4l5-5M67.1 220.4l5-5M71.4 220.4l5.1-5M75.5 220.4l5-5M79.8 220.4l5.1-5M84.1 220.4l5.1-5M88.2 220.4l5.1-5M92.5 220.4l1-.7"/><path class="cls-16" d="M93.3 215.4h-86M93.3 220.4h-86M7.3 215.4v5M93.3 220.4h-86M93.3 215.4h-86"/><path class="cls-19" d="M262.2 230.7l-5.7-10.1h-45.4l-7 10.1h58.1"/><path class="cls-14" d="M256.7 220.9l-.2-.3M262 230.2l-9.4-9.6M258.6 230.7l-10.1-10.1M254.5 230.7l-10-10.1M250.5 230.7l-10.1-10.1M246.6 230.7l-10.1-10.1M242.5 230.7l-10-10.1M238.5 230.7l-10.1-10.1M234.6 230.7l-10.1-10.1M230.5 230.7l-10-10.1M226.5 230.7l-10.1-10.1M222.4 230.7l-10.1-10.1M218.5 230.7l-8.4-8.4M214.5 230.7l-6-6M210.4 230.7l-3.6-3.6M206.5 230.7l-1.4-1.2M259.6 230.7l1.7-1.9M255.5 230.7l4.3-4.3M251.4 230.7l7-6.9M247.6 230.7l9.3-9.3M243.5 230.7l10.1-10.1M239.4 230.7l10.1-10.1M235.3 230.7l10.1-10.1M231.5 230.7l10.1-10.1M227.4 230.7l10.1-10.1M223.3 230.7l10.1-10.1M219.5 230.7l10.1-10.1M215.4 230.7l10.1-10.1M211.3 230.7l10.1-10.1M207.5 230.7l10.1-10.1M206.3 227.8l7.2-7.2"/><path class="cls-19" d="M262.2 230.7l-5.7-10.1h-45.4l-7 10.1h58.1"/><path class="cls-14" d="M256.7 220.9l-.2-.3M262 230.2l-9.4-9.6M258.6 230.7l-10.1-10.1M254.5 230.7l-10-10.1M250.5 230.7l-10.1-10.1M246.6 230.7l-10.1-10.1M242.5 230.7l-10-10.1M238.5 230.7l-10.1-10.1M234.6 230.7l-10.1-10.1M230.5 230.7l-10-10.1M226.5 230.7l-10.1-10.1M222.4 230.7l-10.1-10.1M218.5 230.7l-8.4-8.4M214.5 230.7l-6-6M210.4 230.7l-3.6-3.6M206.5 230.7l-1.4-1.2M259.6 230.7l1.7-1.9M255.5 230.7l4.3-4.3M251.4 230.7l7-6.9M247.6 230.7l9.3-9.3M243.5 230.7l10.1-10.1M239.4 230.7l10.1-10.1M235.3 230.7l10.1-10.1M231.5 230.7l10.1-10.1M227.4 230.7l10.1-10.1M223.3 230.7l10.1-10.1M219.5 230.7l10.1-10.1M215.4 230.7l10.1-10.1M211.3 230.7l10.1-10.1M207.5 230.7l10.1-10.1M206.3 227.8l7.2-7.2"/><path class="cls-16" d="M204.1 230.7h58.1M211.1 220.6h45.4M211.1 220.6h45.4M204.1 230.7h58.1"/><path class="cls-15" d="M178.2 35.4h17.5v69.4h-17.5zM180.6 53.1h-2.4M180.6 70.2h-2.4M180.6 87h-2.4M180.6 104h-2.4"/><path class="cls-15" d="M185.7 104.7h16.6v.5h-16.6zM185.7 105.2h.7v17h-.7zM186.4 121.8h15.1v.5h-15.1zM186.4 105.2h15.1v.5h-15.1zM201.5 105.2h.7v17h-.7z"/><path class="cls-19" d="M190.7 103.1h-8.9c-.3 0-.5 0-.8-.2-.2 0-.5-.2-.6-.4-.2-.2-.3-.4-.4-.6-.1-.2-.2-.5-.2-.8V89.9c0-.3 0-.5.2-.8.1-.2.2-.5.4-.6.2-.2.4-.3.6-.4.2 0 .5-.2.8-.2h8.9c.3 0 .5 0 .8.2.2 0 .5.2.6.4.2.2.3.4.4.6.1.2.2.5.2.8v11.2c0 .3 0 .5-.2.8 0 .2-.2.5-.4.6-.2.2-.4.3-.6.4-.2 0-.5.2-.8.2"/><path class="cls-15" d="M190.7 103.1h-8.9c-.3 0-.5 0-.8-.2-.2 0-.5-.2-.6-.4-.2-.2-.3-.4-.4-.6-.1-.2-.2-.5-.2-.8V89.9c0-.3 0-.5.2-.8.1-.2.2-.5.4-.6.2-.2.4-.3.6-.4.2 0 .5-.2.8-.2h8.9c.3 0 .5 0 .8.2.2 0 .5.2.6.4.2.2.3.4.4.6.1.2.2.5.2.8v11.2c0 .3 0 .5-.2.8 0 .2-.2.5-.4.6-.2.2-.4.3-.6.4-.2 0-.5.2-.8.2"/><path class="cls-19" d="M190.5 95.6c0-.7-.5-1.2-1.1-1.2s-1.1.5-1.1 1.2.5 1.2 1.1 1.2 1.1-.5 1.1-1.2"/><path class="cls-15" d="M190.5 95.6c0-.7-.5-1.2-1.1-1.2s-1.1.5-1.1 1.2.5 1.2 1.1 1.2 1.1-.5 1.1-1.2"/><path class="cls-18" d="M179.7 53.6h14.6v15.8h-14.6z"/><path class="cls-15" d="M179.7 53.6h14.6v15.8h-14.6z"/><path class="cls-19" d="M187.3 57.4c0-1.6-1.3-2.9-2.9-2.9s-2.9 1.3-2.9 2.9 1.3 2.9 2.9 2.9 2.9-1.3 2.9-2.9"/><path class="cls-15" d="M187.3 57.4c0-1.6-1.3-2.9-2.9-2.9s-2.9 1.3-2.9 2.9 1.3 2.9 2.9 2.9 2.9-1.3 2.9-2.9"/><path class="cls-19" d="M193.3 56.5c0-1.2-1-2.2-2.2-2.2s-2.2 1-2.2 2.2 1 2.2 2.2 2.2 2.2-1 2.2-2.2"/><path class="cls-15" d="M193.3 56.5c0-1.2-1-2.2-2.2-2.2s-2.2 1-2.2 2.2 1 2.2 2.2 2.2 2.2-1 2.2-2.2"/><path class="cls-19" d="M186.6 65.1c0-1.2-1-2.2-2.2-2.2s-2.2 1-2.2 2.2 1 2.2 2.2 2.2 2.2-1 2.2-2.2"/><path class="cls-15" d="M186.6 65.1c0-1.2-1-2.2-2.2-2.2s-2.2 1-2.2 2.2 1 2.2 2.2 2.2 2.2-1 2.2-2.2"/><path class="cls-19" d="M193.8 64.9c0-1.6-1.3-2.9-2.9-2.9s-2.9 1.3-2.9 2.9 1.3 2.9 2.9 2.9 2.9-1.3 2.9-2.9"/><path class="cls-15" d="M193.8 64.9c0-1.6-1.3-2.9-2.9-2.9s-2.9 1.3-2.9 2.9 1.3 2.9 2.9 2.9 2.9-1.3 2.9-2.9M180.6 36.1h-2.4M185.7 34.9h16.6v.5h-16.6zM185.7 17.8h.7v17h-.7zM186.4 17.8h15.1v.7h-15.1zM186.4 34.4h15.1v.5h-15.1zM185.7 16.6h.7v1.2h-.7zM201.5 17.8h.7v17h-.7zM185.7 122.2h17.5v.5h-17.5zM204.1 103.8h-7.6"/><path class="cls-6" d="M204.1 104.5h-8.4"/><path class="cls-15" d="M204.1 102.3h-6.2M204.1 103.8h-7.6M204.1 104.5h-8.4M204.1 102.3h-6.2"/><path class="cls-6" d="M204.1 103.8v.7"/><path class="cls-15" d="M204.1 102.3v1.5M196.5 103.8V36.3"/><path class="cls-6" d="M195.7 104.5V35.6"/><path class="cls-15" d="M197.9 102.3V37.8M196.5 103.8V36.3M195.7 104.5V35.6M197.9 102.3V37.8M196.5 36.3h7.6"/><path class="cls-6" d="M195.7 35.6h8.4"/><path class="cls-15" d="M197.9 37.8h6.2M196.5 36.3h7.6"/><path class="cls-6" d="M204.1 36.3v-.7"/><path class="cls-15" d="M204.1 37.8v-1.5M195.7 35.6h8.4M197.9 37.8h6.2"/><path class="cls-1" d="M185.7 35.4v69.3"/><path class="cls-15" d="M185.7 104.2v.5"/><path class="cls-1" d="M185.7 156.8v-34.1"/><path class="cls-15" d="M185.7 123.2v-.5M185.7 157.8h17.5v.5h-17.5z"/><path class="cls-15" d="M185.7 158.2h.7v17h-.7zM186.4 174.6h15.1v.7h-15.1zM186.4 158.2h15.1v.5h-15.1zM201.5 158.2h.7v17h-.7zM185.7 192.3h.7v16.8h-.7zM186.4 192.3h15.1v.5h-15.1zM186.4 208.6h15.1v.5h-15.1zM201.5 192.3h.7v16.8h-.7z"/><path class="cls-15" d="M185.7 209.1h.7v2.2h-.7zM185.7 175.3h.7v17h-.7zM186.4 175.3h15.1v.5h-15.1zM186.4 191.6h15.1v.7h-15.1zM201.5 175.3h.7v17h-.7z"/><path class="cls-18" d="M190.2 208.6h9.8v2.6h-9.8z"/><path class="cls-15" d="M190.2 208.6h9.8v2.6h-9.8zM190 208.6z"/><path class="cls-12" d="M199.3 208.6V200"/><path class="cls-5" d="M190.9 208.6l.3-1.6.5-1.7.7-1.5.9-1.4 1.5-1 1.4-.7 1.7-.5 1.4-.2"/><path class="cls-15" d="M96.1 342.1l7.2 40.8h81.2l7.2-40.8"/><path class="cls-15" d="M94.5 342.1l7.4 42.7h83.8l7.6-42.7"/><path class="cls-19" d="M204.1 165.9l5.6-7.9h-5.6v7.9"/><path class="cls-14" d="M208.2 160.4l-2.4-2.4M206.5 162.6l-2.1-2.2M204.9 165l-.5-.5M204.4 165.7l.5-.5M204.4 161.6l3.6-3.6"/><path class="cls-19" d="M204.1 165.9l5.6-7.9h-5.6v7.9"/><path class="cls-14" d="M208.2 160.4l-2.4-2.4M206.5 162.6l-2.1-2.2M204.9 165l-.5-.5M204.4 165.7l.5-.5M204.4 161.6l3.6-3.6"/><path class="cls-16" d="M204.1 158v7.9M204.1 158v7.9"/><path class="cls-19" d="M204.1 11.6h7v110.6h-7V11.6"/><path class="cls-14" d="M211.3 15l-3.6-3.4M211.3 19l-6.9-6.9M211.3 23.1l-6.9-6.9M211.3 27l-6.9-7M211.3 31l-6.9-6.9M211.3 35.1l-6.9-6.9M211.3 39l-6.9-7M211.3 43l-6.9-6.9M211.3 47.1l-6.9-6.9M211.3 51l-6.9-7M211.3 55l-6.9-6.9M211.3 59.1l-6.9-6.9M211.3 63.2l-6.9-7M211.3 67l-6.9-6.9M211.3 71.1l-6.9-6.9M211.3 75.2l-6.9-7M211.3 79l-6.9-6.9M211.3 83.1l-6.9-6.9M211.3 87.2l-6.9-7M211.3 91.3l-6.9-7M211.3 95.1l-6.9-6.9M211.3 99.2l-6.9-7M211.3 103.3l-6.9-7M211.3 107.1l-6.9-6.9M211.3 111.2l-6.9-7M211.3 115.3l-6.9-7M211.3 119.1l-6.9-6.9M210.1 122.2l-5.7-6M206.3 122.2l-1.9-1.9M207.7 122.2l3.6-3.6M204.4 121.5l6.9-6.9M204.4 117.7l6.9-7M204.4 113.6l6.9-7M204.4 109.5l6.9-6.9M204.4 105.7l6.9-7M204.4 101.6l6.9-7M204.4 97.5l6.9-6.9M204.4 93.4l6.9-6.9M204.4 89.6l6.9-7M204.4 85.5l6.9-6.9M204.4 81.4l6.9-6.9M204.4 77.6l6.9-7M204.4 73.5l6.9-6.9M204.4 69.4l6.9-6.9M204.4 65.6l6.9-7M204.4 61.5l6.9-6.9M204.4 57.4l6.9-6.9M204.4 53.4l6.9-7M204.4 49.5l6.9-6.9M204.4 45.4l6.9-6.9M204.4 41.4l6.9-7M204.4 37.5l6.9-6.9M204.4 33.4l6.9-6.9M204.4 29.4l6.9-7M204.4 25.3l6.9-7M204.4 21.4l6.9-6.9M204.4 17.4l5.7-5.8M204.4 13.3l1.7-1.7"/><path class="cls-19" d="M211.1 11.6h-7v110.6h7V11.6"/><path class="cls-14" d="M211.3 15l-3.6-3.4M211.3 19l-6.9-6.9M211.3 23.1l-6.9-6.9M211.3 27l-6.9-7M211.3 31l-6.9-6.9M211.3 35.1l-6.9-6.9M211.3 39l-6.9-7M211.3 43l-6.9-6.9M211.3 47.1l-6.9-6.9M211.3 51l-6.9-7M211.3 55l-6.9-6.9M211.3 59.1l-6.9-6.9M211.3 63.2l-6.9-7M211.3 67l-6.9-6.9M211.3 71.1l-6.9-6.9M211.3 75.2l-6.9-7M211.3 79l-6.9-6.9M211.3 83.1l-6.9-6.9M211.3 87.2l-6.9-7M211.3 91.3l-6.9-7M211.3 95.1l-6.9-6.9M211.3 99.2l-6.9-7M211.3 103.3l-6.9-7M211.3 107.1l-6.9-6.9M211.3 111.2l-6.9-7M211.3 115.3l-6.9-7M211.3 119.1l-6.9-6.9M210.1 122.2l-5.7-6M206.3 122.2l-1.9-1.9M207.7 122.2l3.6-3.6M204.4 121.5l6.9-6.9M204.4 117.7l6.9-7M204.4 113.6l6.9-7M204.4 109.5l6.9-6.9M204.4 105.7l6.9-7M204.4 101.6l6.9-7M204.4 97.5l6.9-6.9M204.4 93.4l6.9-6.9M204.4 89.6l6.9-7M204.4 85.5l6.9-6.9M204.4 81.4l6.9-6.9M204.4 77.6l6.9-7M204.4 73.5l6.9-6.9M204.4 69.4l6.9-6.9M204.4 65.6l6.9-7M204.4 61.5l6.9-6.9M204.4 57.4l6.9-6.9M204.4 53.4l6.9-7M204.4 49.5l6.9-6.9M204.4 45.4l6.9-6.9M204.4 41.4l6.9-7M204.4 37.5l6.9-6.9M204.4 33.4l6.9-6.9M204.4 29.4l6.9-7M204.4 25.3l6.9-7M204.4 21.4l6.9-6.9M204.4 17.4l5.7-5.8M204.4 13.3l1.7-1.7"/><path class="cls-16" d="M204.1 11.6v110.6M211.1 122v.2M211.1 11.6V115M211.1 122v.2M204.1 11.6v110.6M211.1 11.6V115M204.1 11.6h7"/><path class="cls-15" d="M203.7 122.2h1.7v2.6h-1.7zM203.7 152h1.7v6h-1.7zM203.7 124.9h1.7V152h-1.7zM205.3 124.9V152"/><path class="cls-1" d="M211.1 124.6v27.9"/><path class="cls-15" d="M211.1 152v.5"/><path class="cls-19" d="M211.1 122.2v2.4h-5.8v-2.4"/><path class="cls-14" d="M211.3 123.2l-1.2-1M208.7 124.6l-2.4-2.4M209.2 124.6l2.1-1.9M205.6 124.4l2.1-2.2"/><path class="cls-19" d="M211.1 158v-5.5h-5.8v5.5"/><path class="cls-14" d="M211.3 155.4l-2.8-2.9M209.9 158l-4.3-4.6M205.8 158l-.2-.5M208 158l3.3-3.4M205.6 156.6l3.8-4.1"/><path class="cls-16" d="M211.1 124.6h-5.8M211.1 152.5h-5.8M211.1 124.6h-5.8M211.1 122.2v2.4M211.1 152.5h-5.8M211.1 158v-5.5M204.1 122.2h1.2M204.1 158h1.2M211.1 122.2v2.4M211.1 158v-5.5M205.3 124.6v-2.4M205.3 152.5v5.5"/><path class="cls-14" d="M176.3 124.9c0 14.9 12.3 27.2 27.2 27.2M203.7 124.9h-27.4"/><path class="cls-19" d="M204.1 230.7l7-10.1v-54.7h-7v64.8"/><path class="cls-14" d="M211.3 167.4l-1.4-1.5M211.3 171.4l-5.5-5.5M211.3 175.3l-6.9-7M211.3 179.4l-6.9-7M211.3 183.4l-6.9-6.9M211.3 187.3l-6.9-7M211.3 191.4l-6.9-7M211.3 195.4l-6.9-6.9M211.3 199.3l-6.9-7M211.3 203.4l-6.9-7M211.3 207.4l-6.9-6.9M211.3 211.5l-6.9-6.9M211.3 215.4l-6.9-7M211.3 219.4l-6.9-6.9M210.1 222.3l-5.7-5.7M208.5 224.7l-4.1-4.3M206.8 227.1l-2.4-2.6M205.1 229.5l-.7-.9M204.4 229.8l1.9-2M204.4 225.9l6.9-6.9M204.4 221.8l6.9-6.9M204.4 217.8l6.9-7M204.4 213.9l6.9-6.9M204.4 209.8l6.9-6.9M204.4 205.8l6.9-7M204.4 201.7l6.9-7M204.4 197.8l6.9-6.9M204.4 193.8l6.9-7M204.4 189.7l6.9-7M204.4 185.8l6.9-6.9M204.4 181.8l6.9-7M204.4 177.7l6.9-7M204.4 173.8l6.9-6.9M204.4 169.8l3.6-3.9"/><path class="cls-19" d="M204.1 230.7l7-10.1v-54.7h-7v64.8"/><path class="cls-14" d="M211.3 167.4l-1.4-1.5M211.3 171.4l-5.5-5.5M211.3 175.3l-6.9-7M211.3 179.4l-6.9-7M211.3 183.4l-6.9-6.9M211.3 187.3l-6.9-7M211.3 191.4l-6.9-7M211.3 195.4l-6.9-6.9M211.3 199.3l-6.9-7M211.3 203.4l-6.9-7M211.3 207.4l-6.9-6.9M211.3 211.5l-6.9-6.9M211.3 215.4l-6.9-7M211.3 219.4l-6.9-6.9M210.1 222.3l-5.7-5.7M208.5 224.7l-4.1-4.3M206.8 227.1l-2.4-2.6M205.1 229.5l-.7-.9M204.4 229.8l1.9-2M204.4 225.9l6.9-6.9M204.4 221.8l6.9-6.9M204.4 217.8l6.9-7M204.4 213.9l6.9-6.9M204.4 209.8l6.9-6.9M204.4 205.8l6.9-7M204.4 201.7l6.9-7M204.4 197.8l6.9-6.9M204.4 193.8l6.9-7M204.4 189.7l6.9-7M204.4 185.8l6.9-6.9M204.4 181.8l6.9-7M204.4 177.7l6.9-7M204.4 173.8l6.9-6.9M204.4 169.8l3.6-3.9"/><path class="cls-16" d="M204.1 165.9v57.6M211.1 165.9v54.7M211.1 165.9v54.7M204.1 165.9v57.6"/><path class="cls-19" d="M256.5 165.9l5.7-10.1h-15.3v10.1h9.6"/><path class="cls-14" d="M261.5 157.5l-1.7-1.7M260.1 159.9l-4.4-4.1M258.6 162.6l-6.7-6.8M257.2 165l-9.4-9.2M253.8 165.9l-6.7-6.9M250 165.9l-2.9-2.9M256.2 165.9l1-.9M252.1 165.9l10.1-10.1M248.1 165.9l10-10.1M247.1 163l7.2-7.2M247.1 159l3.1-3.2"/><path class="cls-19" d="M256.5 165.9l5.7-10.1h-15.3v10.1h9.6"/><path class="cls-14" d="M261.5 157.5l-1.7-1.7M260.1 159.9l-4.4-4.1M258.6 162.6l-6.7-6.8M257.2 165l-9.4-9.2M253.8 165.9l-6.7-6.9M250 165.9l-2.9-2.9M256.2 165.9l1-.9M252.1 165.9l10.1-10.1M248.1 165.9l10-10.1M247.1 163l7.2-7.2M247.1 159l3.1-3.2"/><path class="cls-16" d="M246.9 165.9h9.6M246.9 155.8h15.3M246.9 155.8h15.3M246.9 165.9h9.6"/><path class="cls-19" d="M211.1 165.9v-10.1l-7 10.1h7"/><path class="cls-14" d="M211.3 159.2l-1.4-1.2M211.3 163.3l-3.1-3.1M209.9 165.9l-3.4-3.3M205.8 165.9l-.9-.9M208 165.9l3.3-3.1M204.6 165.2l6.7-6.5"/><path class="cls-19" d="M211.1 165.9v-10.1l-7 10.1h7"/><path class="cls-14" d="M211.3 159.2l-1.4-1.2M211.3 163.3l-3.1-3.1M209.9 165.9l-3.4-3.3M205.8 165.9l-.9-.9M208 165.9l3.3-3.1M204.6 165.2l6.7-6.5"/><path class="cls-15" d="M214.2 164.5h29.5"/><path class="cls-1" d="M214.2 155.8h29.5"/><path class="cls-15" d="M243.3 155.8h.4"/><path class="cls-19" d="M211.1 155.8h3.1v8.7h-3.1"/><path class="cls-14" d="M214.5 158.5l-2.7-2.7M214.5 162.3l-3.2-3.1M212.3 164.5l-1-1.2M213.5 164.5l1-.7M211.3 162.8l3.2-3.1M211.3 158.7l2.9-2.9"/><path class="cls-19" d="M246.9 155.8h-3.2v8.7h3.2"/><path class="cls-14" d="M247.1 159l-3.1-3.2M247.1 163l-3.1-3.1M244.5 164.5l-.5-.5M245.7 164.5l1.4-1.5M244 162.1l3.1-3.1M244 158.2l2.1-2.4"/><path class="cls-16" d="M214.2 155.8v8.7M243.7 155.8v8.7M214.2 155.8v8.7M211.1 155.8h3.1M243.7 155.8v8.7M246.9 155.8h-3.2M211.1 165.9v-1.4M246.9 165.9v-1.4M211.1 155.8h3.1M246.9 155.8h-3.2M214.2 164.5h-3.1M243.7 164.5h3.2"/><path class="cls-14" d="M153.8 11.5c0 11 9.1 20.1 20.1 20.1M173.9 31.8V11.6"/><path class="cls-5" d="M153.7 11.6l-.2 3.8-1.2 3.9-1.9 3.3-2.4 3.2-3.1 2.4-3.4 1.9-3.8 1.2-4.1.5"/><path class="cls-12" d="M133.6 31.8V11.6"/><path class="cls-14" d="M48.1 11.6v1.9c0 .6-.2 1.2-.3 1.8-.1.6-.3 1.2-.5 1.8l-.6 1.8c-.2.6-.5 1.1-.8 1.7-.3.5-.6 1.1-1 1.6-.3.5-.7 1-1.1 1.5-.4.5-.8.9-1.3 1.4-.4.4-.9.9-1.4 1.3-.5.4-1 .8-1.5 1.1-.5.3-1 .7-1.6 1-.5.3-1.1.6-1.7.8l-1.8.6c-.6.2-1.2.3-1.8.5l-1.8.3H29M29.2 30.6v-19M48.1 11.6V13M48.1 14.5l.3.9M48.4 15.4l.2.5"/><path class="cls-9" d="M48.9 17.1l.7 1.7"/><path class="cls-14" d="M50.1 20l.2.7M50.3 20.7l.5.5"/><path class="cls-10" d="M51.3 22.2l1.2 1.4"/><path class="cls-14" d="M53.4 24.8l.3.2M53.7 25l.9.8M55.6 26.7l.9.7"/><path class="cls-17" d="M56.5 27.4l1.7 1"/><path class="cls-14" d="M58.2 28.4l1 .5M60.6 29.4l1 .4M61.6 29.8h.2M63.3 30.3l1.4.3M66.1 30.6h1"/><path class="cls-5" d="M67.1 30.6v-19"/><path class="cls-14" d="M67.1 12.1v-.5M44.4 332.4v-1.9c0-.6-.2-1.2-.3-1.8-.1-.6-.3-1.2-.5-1.8l-.6-1.8c-.2-.6-.5-1.1-.8-1.7-.3-.5-.6-1.1-1-1.6-.3-.5-.7-1-1.1-1.5-.4-.5-.8-.9-1.3-1.4-.4-.4-.9-.9-1.4-1.3-.5-.4-1-.8-1.5-1.1-.5-.3-1-.7-1.6-1-.5-.3-1.1-.6-1.7-.8l-1.8-.6c-.6-.2-1.2-.3-1.8-.5s-1.2-.2-1.8-.3h-1.9M25.3 313.5v19M44.3 332.5l.2-1.5M44.5 329.6l.3-1M44.8 328.6l.2-.4"/><path class="cls-9" d="M45.3 327l.4-1.7"/><path class="cls-14" d="M46.5 324.1l.2-.7M46.7 323.4l.5-.5M47.9 321.7l.7-1.2"/><path class="cls-11" d="M48.6 320.5l1.5-1.5"/><path class="cls-14" d="M50.1 319l.4-.4"/><path class="cls-4" d="M51.3 317.8l1.6-1.2"/><path class="cls-14" d="M53.9 315.9l.5-.2M54.4 315.7l.7-.3"/><path class="cls-10" d="M56.1 315l1.9-.8"/><path class="cls-14" d="M59.2 314l.5-.2M59.7 313.8h.9"/><path class="cls-8" d="M61.6 313.5h1.9"/><path class="cls-5" d="M63.5 313.5v19"/><path class="cls-14" d="M63.5 332v.5M173.9 312.3c-11 0-20.1 9.1-20.1 20.1M173.9 312.3v20.2"/><path class="cls-5" d="M133.6 312.3l4.1.5 3.8 1 3.4 1.9 3.1 2.4 2.4 3.1 1.9 3.6 1.2 3.6.2 4.1"/><path class="cls-12" d="M133.6 312.3v20.2"/><path class="cls-15" d="M177.3 183.7v.7M177.3 184.4v.7M177.3 185.1l-.3 1M177 186.1l-.2.2M176.3 187.8l-.2.2M175.3 189l-.4.7M174.9 189.7l-.8.5M174.1 190.2l-.4.4M173.7 190.6l-.5.3M172 191.6h-.3M170.3 191.8l-.7.3M169.6 192.1h-.7M168.9 192.1h-1M167.9 192.1l-.5-.3M166 191.6h-.3M164.5 190.9l-.4-.3M164.1 190.6l-.8-.4M163.3 190.2l-.4-.5M162.9 189.7l-.5-.5M161.7 188l-.3-.2M160.9 186.3l-.2-.2M160.7 186.1l-.2-1M160.5 185.1v-.7M160.5 184.4l-.3-.7M160.5 182.2v-.2M160.9 180.6v-.3M160.9 180.3l.5-.7M161.4 179.6l.3-.7M161.7 178.9l.7-.7M163.3 177.2v-.2M163.3 177h.3M164.8 176.2v-.2M164.8 176l.7-.2M165.5 175.8l1-.3M166.5 175.5l.7-.2M167.2 175.3h.2M168.9 175h.2M170.5 175.3l.8.2M171.3 175.5l.7.3M172 175.8l.9.2M172.9 176l.3.2M174.1 177l.3.2M175.3 178.2l.5.7M175.8 178.9l.5.7M176.3 179.6l.5.7M176.8 180.3v.5M177.3 182v.2"/></g><g id="Mbel"><path class="cls-2" d="M34.9 69.4h56.6v45.4H34.9zM34.9 137.4h56.6V153H34.9zM120.1 44.5h22.6v51.1h-22.6zM152.7 94.1V81.4M144.2 94.1h8.5M152.7 81.4h-8.5M152.7 76.4V63.7M144.2 76.4h8.5M152.7 63.7h-8.5M152.7 58.7V45.9M144.2 58.7h8.5M152.7 45.9h-8.5M110.2 94.1V81.4M118.7 94.1h-8.5M110.2 81.4h8.5M110.2 76.4V63.7M118.7 76.4h-8.5M110.2 63.7h8.5M110.2 58.7V45.9M118.7 58.7h-8.5M110.2 45.9h8.5M98.8 228.3h10.8v56.6H98.8zM135 242.5h14.2v28.3H135zM147.8 223.8c.1-4 0-8-.6-12-.1-1-.8-1.7-1.7-2-3.1-.9-6.4-.9-9.5 0-.9.3-1.6 1-1.7 2-.5 4-.7 8-.6 12 .7.3 1.4.4 2 .4 3.3.1 6.6.1 9.8 0 .7 0 1.4-.1 2-.3"/><path class="cls-2" d="M148.3 222.8c.3-.2.5-.5.6-.8.7-1.4 1.1-2.9 1-4.4 0-2-.3-4.1-.7-6.1-.3-1.4-.8-2.8-1.5-4.1-.4-.7-1.1-1.3-1.9-1.5-3.3-.8-6.7-.8-10 0-.8.2-1.5.7-1.9 1.5-.7 1.3-1.2 2.7-1.5 4.1-.4 2-.7 4-.7 6.1 0 1.5.3 3 1 4.4.2.3.4.6.6.8M180.2 283.2h-18.7-.2-.2-.1l-.1-.1-.1-.1v-.1-.2V257.6v-.2-.2-.1l.1-.1.1-.1h19.2v26.6"/><path class="cls-2" d="M183.9 287.7h-22.4-.2-.2-.1l-.1-.1-.1-.1v-.1-.2-3-.2-.2-.1l.1-.1.1-.1h23.4l.1.1.1.1V287.3c0 .1-.1.2-.2.3 0 0-.2.1-.3.2h-.3M180.2 256.6h4c.1 0 .2-.1.3-.2 0 0 .1-.2.2-.3v-25.2-.3c0-.1-.1-.2-.2-.3 0 0-.2-.1-.3-.2h-4M178 230v53.3"/><path class="cls-2" d="M180.2 229.9h-19c-.1 0-.2.1-.3.2 0 0-.1.2-.2.3v25.5c0 .1.1.2.2.3s.2.1.3.2h19v-26.6M183.9 225.4h-22.4-.2-.2-.1l-.1.1-.1.1V229.2c0 .1.1.2.2.3 0 0 .2.1.3.2h23c.1 0 .2-.1.3-.2 0 0 .1-.2.2-.3V226.1v-.3c0-.1-.1-.2-.2-.3 0 0-.2-.1-.3-.2h-.3M180.2 256.6h4c.1 0 .2.1.3.2s.1.2.2.3v25.5c0 .1-.1.2-.2.3 0 0-.2.1-.3.2h-4M64.2 273h7.7v11.3h-7.7zM71.9 255.9h19.9v45.4H71.9zM8.8 221.8h56.6v28.3H8.8zM8.8 274.9h15.6V326H8.8z"/></g><g id="Text"><path d="M112.3 123h-.7v-5.3h.7v2.5l2.1-2.5h.8l-2.2 2.6 2.2 2.7h-.9l-2-2.5v2.5zM119.3 121.2c0 1.1-.8 1.9-1.9 1.9s-1.9-.8-1.9-1.9.8-1.9 1.9-1.9 1.9.8 1.9 1.9zm-3.1 0c0 .8.5 1.4 1.3 1.4s1.2-.6 1.2-1.4-.5-1.4-1.2-1.4-1.3.6-1.3 1.4zM123.3 122.5c-.4.4-.8.5-1.4.5-1.1 0-1.8-.8-1.8-1.9s.8-1.9 1.8-1.9 1 .2 1.3.6l-.4.4c-.3-.3-.6-.4-.9-.4-.7 0-1.2.6-1.2 1.4s.5 1.4 1.2 1.4.6-.1.9-.4l.4.4zM124.9 119.8c.3-.4.7-.6 1.1-.6s.7.1.9.3c.2.2.3.5.3 1v2.5h-.6v-2.4c0-.5-.2-.8-.7-.8s-.5.1-.7.3c-.2.2-.2.4-.2.7v2.2h-.6v-5.3h.6v2.2zM128.9 121.4c0 .3 0 .5.2.7.2.3.6.5 1 .5s.9-.2 1.1-.6l.5.2c-.3.6-.9 1-1.6 1-1.1 0-1.9-.8-1.9-1.9s.8-1.9 1.9-1.9 1.9.8 1.9 1.9v.2h-3.1zm2.4-.4c0-.3 0-.4-.2-.6-.2-.3-.6-.5-1-.5s-.8.2-1 .5c-.1.2-.2.3-.2.6h2.4zM133.6 119.3v.5c.3-.4.6-.6 1.1-.6s.6.1.9.3c.2.2.3.5.3 1v2.5h-.6v-2.4c0-.3 0-.5-.1-.6-.1-.2-.3-.2-.6-.2s-.5.1-.7.3c-.2.2-.2.4-.2.7v2.2h-.6v-3.7h.6zM137.2 124.3h-.4l.7-2.1.6.2-.8 1.9zM142.3 120h2.1v.6h-2.1v1.8h2.1v.6h-2.8v-5.3h2.8v.6h-2.1v1.8zM147.3 120.3c0-.4-.3-.6-.7-.6s-.7.2-.7.5.2.4.8.6c.5.1.7.2.9.4.2.2.3.4.3.7 0 .6-.5 1.1-1.3 1.1s-1.3-.4-1.4-1.1h.6c0 .4.3.6.8.6s.7-.2.7-.5-.2-.5-.8-.6c-.8-.2-1.2-.6-1.2-1.1s.5-1.1 1.3-1.1 1.3.4 1.3 1.1h-.6zM150.9 120.3c0-.4-.3-.6-.7-.6s-.7.2-.7.5.2.4.8.6c.5.1.7.2.9.4.2.2.3.4.3.7 0 .6-.5 1.1-1.3 1.1s-1.3-.4-1.4-1.1h.6c0 .4.3.6.8.6s.7-.2.7-.5-.2-.5-.8-.6c-.8-.2-1.2-.6-1.2-1.1s.5-1.1 1.3-1.1 1.3.4 1.3 1.1h-.6zM153 121.4c0 .3 0 .5.2.7.2.3.6.5 1 .5s.9-.2 1.1-.6l.5.2c-.3.6-.9 1-1.6 1-1.1 0-1.9-.8-1.9-1.9s.8-1.9 1.9-1.9 1.9.8 1.9 1.9v.2H153zm2.4-.4c0-.3 0-.4-.2-.6-.2-.3-.6-.5-1-.5s-.8.2-1 .5c-.1.2-.2.3-.2.6h2.4zM157.8 119.3v.5c.3-.4.6-.6 1.1-.6s.6.1.9.3c.2.2.3.5.3 1v2.5h-.6v-2.4c0-.3 0-.5-.1-.6-.1-.2-.3-.2-.6-.2s-.5.1-.7.3c-.2.2-.2.4-.2.7v2.2h-.6v-3.7h.6zM161.3 124.3h-.4l.7-2.1.6.2-.8 1.9zM117.1 126.7h.7l-1.6 5.3h-.6l-1.2-4.2-1.2 4.2h-.6l-1.6-5.3h.7l1.2 4.1 1.2-4.1h.6l1.1 4.1 1.2-4.1zM121.9 130.2c0 1.1-.8 1.9-1.9 1.9s-1.9-.8-1.9-1.9.8-1.9 1.9-1.9 1.9.8 1.9 1.9zm-3.1 0c0 .8.5 1.4 1.3 1.4s1.2-.6 1.2-1.4-.5-1.4-1.2-1.4-1.3.6-1.3 1.4zM123.6 128.8c.3-.4.7-.6 1.1-.6s.7.1.9.3c.2.2.3.5.3 1v2.5h-.6v-2.4c0-.5-.2-.8-.7-.8s-.5.1-.7.3c-.2.2-.2.4-.2.7v2.2h-.6v-5.3h.6v2.2zM127.9 128.3v.5c.3-.4.6-.6 1.1-.6s.6.1.9.3c.2.2.3.5.3 1v2.5h-.6v-2.4c0-.3 0-.5-.1-.6-.1-.2-.3-.2-.6-.2s-.5.1-.7.3c-.2.2-.2.4-.2.7v2.2h-.6v-3.7h.6zM131.8 130.4c0 .3 0 .5.2.7.2.3.6.5 1 .5s.9-.2 1.1-.6l.5.2c-.3.6-.9 1-1.6 1-1.1 0-1.9-.8-1.9-1.9s.8-1.9 1.9-1.9 1.9.8 1.9 1.9v.2h-3.1zm2.4-.4c0-.3 0-.4-.2-.6-.2-.3-.6-.5-1-.5s-.8.2-1 .5c-.1.2-.2.3-.2.6h2.4zM136.6 128.3v.5c.3-.4.6-.6 1.1-.6s.6.1.9.3c.2.2.3.5.3 1v2.5h-.6v-2.4c0-.3 0-.5-.1-.6-.1-.2-.3-.2-.6-.2s-.5.1-.7.3c-.2.2-.2.4-.2.7v2.2h-.6v-3.7h.6zM111.6 136.3v-.6h3l-1.6 2c.9 0 1.6.7 1.6 1.6s-.8 1.7-1.8 1.7-1.4-.5-1.6-1.3h.6c.1.4.5.7 1 .7s1.2-.5 1.2-1.1-.5-1.1-1.2-1.1-.4 0-.6.2l-.3-.2 1.5-1.9h-1.9zM118.4 138.5c.3.3.4.6.4 1 0 .9-.7 1.6-1.7 1.6s-1.6-.6-1.6-1.6.1-.8.4-1.1c.2-.2.3-.3.6-.4-.3 0-.4-.2-.5-.4-.2-.2-.3-.5-.3-.8 0-.8.6-1.3 1.5-1.3s1.4.6 1.4 1.3-.1.6-.3.8c-.1.2-.3.2-.5.3.3 0 .4.2.6.3zm-2.3 1c0 .6.5 1 1 1s1-.5 1-1-.5-1-1-1-1 .5-1 1zm.2-2.5c0 .5.4.8.8.8s.9-.4.9-.8-.4-.8-.8-.8-.9.3-.9.8zM120.7 140.7c0 .2-.2.4-.4.4s-.4-.2-.4-.4.2-.4.4-.4.4.2.4.4zM121.7 139.8v-.5l2.8-3.7v3.6h.6v.6h-.6v1.2h-.6v-1.2h-2.1zm2.1-2.6l-1.5 2h1.5v-2zM128.3 137.3v.5c.3-.4.6-.6 1-.6s.8.2 1 .7c.3-.5.6-.7 1.2-.7s.7.1.9.4c.2.2.2.4.2 1v2.4h-.6v-2.2c0-.4 0-.6-.1-.7-.1-.2-.4-.3-.6-.3-.5 0-.8.4-.8 1v2.2h-.6v-2.2c0-.4 0-.5-.1-.7-.1-.2-.3-.3-.6-.3-.5 0-.9.4-.9 1v2.2h-.6v-3.7h.6zM135.9 138.5v.4h-2l1.2-1.6c.3-.5.4-.6.4-.8 0-.3-.2-.4-.5-.4s-.5.2-.5.6h-.4c0-.6.4-1 1-1s1 .3 1 .8-.1.5-.4.9l-.8 1.1h1.1z"/><g><path d="M36.9 50.5v.6h-3.8l3-4.8h-2.7v-.6h3.8l-3 4.8h2.7zM38.7 46.4c0 .2-.2.4-.4.4s-.4-.2-.4-.4.2-.4.4-.4.4.2.4.4zm0 4.7h-.6v-3.7h.6v3.7zM40.6 47.4v.5c.3-.4.6-.6 1-.6s.8.2 1 .7c.3-.5.6-.7 1.2-.7s.7.1.9.4c.2.2.2.4.2 1v2.4h-.6v-2.2c0-.4 0-.6-.1-.7-.1-.2-.4-.3-.6-.3-.5 0-.8.4-.8 1v2.2h-.6v-2.2c0-.4 0-.5-.1-.7-.1-.2-.3-.3-.6-.3-.5 0-.9.4-.9 1v2.2H40v-3.7h.6zM46.9 47.4v.5c.3-.4.6-.6 1-.6s.8.2 1 .7c.3-.5.6-.7 1.2-.7s.7.1.9.4c.2.2.2.4.2 1v2.4h-.6v-2.2c0-.4 0-.6-.1-.7-.1-.2-.4-.3-.6-.3-.5 0-.8.4-.8 1v2.2h-.6v-2.2c0-.4 0-.5-.1-.7-.1-.2-.3-.3-.6-.3-.5 0-.9.4-.9 1v2.2h-.6v-3.7h.6zM53 49.5c0 .3 0 .5.2.7.2.3.6.5 1 .5s.9-.2 1.1-.6l.5.2c-.3.6-.9 1-1.6 1-1.1 0-1.9-.8-1.9-1.9s.8-1.9 1.9-1.9 1.9.8 1.9 1.9v.2H53zm2.4-.4c0-.3 0-.4-.2-.6-.2-.3-.6-.5-1-.5s-.8.2-1 .5c-.1.2-.2.3-.2.6h2.4zM57.8 47.4v.6c.1-.3.2-.4.3-.5.2-.1.4-.2.7-.2h.1v.6h-.2c-.3 0-.6.2-.8.4-.2.2-.2.4-.2.9v1.9h-.6v-3.7h.6zM33.8 56.5v-.6l1.8-1.2v5.4H35v-4.4l-1.2.8zM37.1 58.9v-.5l2.8-3.7v3.6h.6v.6h-.6v1.2h-.6v-1.2h-2.1zm2.1-2.6l-1.5 2h1.5v-2zM42.2 59.8c0 .2-.2.4-.4.4s-.4-.2-.4-.4.2-.4.4-.4.4.2.4.4zM43.5 55.4v-.6h3l-2.1 5.3h-.7l1.9-4.7h-2zM49.7 56.4v.5c.3-.4.6-.6 1-.6s.8.2 1 .7c.3-.5.6-.7 1.2-.7s.7.1.9.4c.2.2.2.4.2 1v2.4h-.6v-2.2c0-.4 0-.6-.1-.7-.1-.2-.4-.3-.6-.3-.5 0-.8.4-.8 1v2.2h-.6v-2.2c0-.4 0-.5-.1-.7-.1-.2-.3-.3-.6-.3-.5 0-.9.4-.9 1v2.2h-.6v-3.7h.6zM57.3 57.6v.4h-2l1.2-1.6c.3-.5.4-.6.4-.8 0-.3-.2-.4-.5-.4s-.5.2-.5.6h-.4c0-.6.4-1 1-1s1 .3 1 .8-.1.5-.4.9l-.8 1.1h1.1z"/></g><g><path d="M36.9 267.3v.6h-3.8l3-4.8h-2.7v-.6h3.8l-3 4.8h2.7zM38.7 263.2c0 .2-.2.4-.4.4s-.4-.2-.4-.4.2-.4.4-.4.4.2.4.4zm0 4.7h-.6v-3.7h.6v3.7zM40.6 264.2v.5c.3-.4.6-.6 1-.6s.8.2 1 .7c.3-.5.6-.7 1.2-.7s.7.1.9.4c.2.2.2.4.2 1v2.4h-.6v-2.2c0-.4 0-.6-.1-.7-.1-.2-.4-.3-.6-.3-.5 0-.8.4-.8 1v2.2h-.6v-2.2c0-.4 0-.5-.1-.7-.1-.2-.3-.3-.6-.3-.5 0-.9.4-.9 1v2.2H40v-3.7h.6zM46.9 264.2v.5c.3-.4.6-.6 1-.6s.8.2 1 .7c.3-.5.6-.7 1.2-.7s.7.1.9.4c.2.2.2.4.2 1v2.4h-.6v-2.2c0-.4 0-.6-.1-.7-.1-.2-.4-.3-.6-.3-.5 0-.8.4-.8 1v2.2h-.6v-2.2c0-.4 0-.5-.1-.7-.1-.2-.3-.3-.6-.3-.5 0-.9.4-.9 1v2.2h-.6v-3.7h.6zM53 266.3c0 .3 0 .5.2.7.2.3.6.5 1 .5s.9-.2 1.1-.6l.5.2c-.3.6-.9 1-1.6 1-1.1 0-1.9-.8-1.9-1.9s.8-1.9 1.9-1.9 1.9.8 1.9 1.9v.2H53zm2.4-.4c0-.3 0-.4-.2-.6-.2-.3-.6-.5-1-.5s-.8.2-1 .5c-.1.2-.2.3-.2.6h2.4zM57.8 264.2v.6c.1-.3.2-.4.3-.5.2-.1.4-.2.7-.2h.1v.6h-.2c-.3 0-.6.2-.8.4-.2.2-.2.4-.2.9v1.9h-.6v-3.7h.6zM33.8 273.3v-.6l1.8-1.2v5.4H35v-4.4l-1.2.8zM37.4 273.3v-.6l1.8-1.2v5.4h-.6v-4.4l-1.2.8zM41.7 276.6c0 .2-.2.4-.4.4s-.4-.2-.4-.4.2-.4.4-.4.4.2.4.4zM45.5 272.2h-1.7v1.4c.3-.1.5-.2.8-.2.9 0 1.6.7 1.6 1.7s-.8 1.8-1.8 1.8-1.3-.4-1.6-1.1l.6-.2c.1.2.2.3.3.4.2.2.5.3.8.3.6 0 1.1-.5 1.1-1.2s-.5-1.1-1.2-1.1-.8.2-1.2.5v-3h2.3v.6zM49.4 273.2v.5c.3-.4.6-.6 1-.6s.8.2 1 .7c.3-.5.6-.7 1.2-.7s.7.1.9.4c.2.2.2.4.2 1v2.4h-.6v-2.2c0-.4 0-.6-.1-.7-.1-.2-.4-.3-.6-.3-.5 0-.8.4-.8 1v2.2H51v-2.2c0-.4 0-.5-.1-.7-.1-.2-.3-.3-.6-.3-.5 0-.9.4-.9 1v2.2h-.6v-3.7h.6zM57 274.4v.4h-2l1.2-1.6c.3-.5.4-.6.4-.8 0-.3-.2-.4-.5-.4s-.5.2-.5.6h-.4c0-.6.4-1 1-1s1 .3 1 .8-.1.5-.4.9l-.8 1.1h1.1z"/></g><g><path d="M115.2 366.1c1.1 0 1.7.5 1.7 1.4s-.1.6-.3.9c-.1.2-.3.2-.5.3.3 0 .4.1.6.2.3.2.4.6.4 1s-.2.9-.6 1.2c-.3.2-.7.3-1.3.3h-1.5v-5.3h1.5zm-.8 2.4h.7c.4 0 .7 0 .9-.2.2-.2.3-.4.3-.7s-.2-.6-.4-.8c-.2 0-.4-.1-.9-.1h-.6v1.8zm0 2.4h.7c.6 0 .8 0 1-.2.3-.1.4-.4.4-.8 0-.6-.4-.9-1.2-.9h-.8v1.8zM121.1 367.7h.6v3.7h-.6v-.7c-.4.6-.8.8-1.3.8-1 0-1.7-.8-1.7-1.9s.7-1.9 1.8-1.9 1 .2 1.3.7v-.6zm-2.1.9c-.2.3-.3.6-.3 1 0 .8.5 1.4 1.2 1.4s1.3-.6 1.3-1.4-.5-1.4-1.2-1.4-.7.1-.9.4zM123 371.4v-5.3h.6v5.3h-.6zM125.6 371.4h-.6v-5.3h.6v3.3l1.5-1.6h.8l-1.6 1.8 1.6 1.9h-.8l-1.5-1.6v1.6zM132 369.6c0 1.1-.8 1.9-1.9 1.9s-1.9-.8-1.9-1.9.8-1.9 1.9-1.9 1.9.8 1.9 1.9zm-3.1 0c0 .8.5 1.4 1.3 1.4s1.2-.6 1.2-1.4-.5-1.4-1.2-1.4-1.3.6-1.3 1.4zM133.7 367.7v.5c.3-.4.6-.6 1.1-.6s.6.1.9.3c.2.2.3.5.3 1v2.5h-.6V369c0-.3 0-.5-.1-.6-.1-.2-.3-.2-.6-.2s-.5.1-.7.3c-.2.2-.2.4-.2.7v2.2h-.6v-3.7h.6zM116 375.7h-1.7v1.4c.3-.1.5-.2.8-.2.9 0 1.6.7 1.6 1.7s-.8 1.8-1.8 1.8-1.3-.4-1.6-1.1l.6-.2c.1.2.2.3.3.4.2.2.5.3.8.3.6 0 1.1-.5 1.1-1.2s-.5-1.1-1.2-1.1-.8.2-1.2.5v-3h2.3v.6zM118.5 380c0 .2-.2.4-.4.4s-.4-.2-.4-.4.2-.4.4-.4.4.2.4.4zM122.8 378.8c0 .6-.1 1-.4 1.2-.3.3-.7.4-1.2.4s-1-.2-1.2-.5c-.3-.3-.4-.6-.4-1.4v-1.8c0-.7 0-1 .3-1.3.3-.3.7-.5 1.2-.5s.9.1 1.2.4c.3.3.4.6.4 1.2v2.1zm-2.5-.1c0 .6 0 .7.2.9.2.2.5.3.8.3s.6-.1.8-.4c.1-.2.2-.4.2-.8v-2c0-.4 0-.6-.3-.8-.2-.2-.4-.2-.7-.2s-.6.1-.8.4c-.1.2-.2.4-.2.8v1.8zM126.2 376.7v.5c.3-.4.6-.6 1-.6s.8.2 1 .7c.3-.5.6-.7 1.2-.7s.7.1.9.4c.2.2.2.4.2 1v2.4h-.6v-2.2c0-.4 0-.6-.1-.7-.1-.2-.4-.3-.6-.3-.5 0-.8.4-.8 1v2.2h-.6v-2.2c0-.4 0-.5-.1-.7-.1-.2-.3-.3-.6-.3-.5 0-.9.4-.9 1v2.2h-.6v-3.7h.6zM133.7 377.9v.4h-2l1.2-1.6c.3-.5.4-.6.4-.8 0-.3-.2-.4-.5-.4s-.5.2-.5.6h-.4c0-.6.4-1 1-1s1 .3 1 .8-.1.5-.4.9l-.8 1.1h1.1z"/></g><g><path d="M35.1 189c1.1 0 1.7.5 1.7 1.4s-.1.6-.3.9c-.1.2-.3.2-.5.3.3 0 .4.1.6.2.3.2.4.6.4 1s-.2.9-.6 1.2c-.3.2-.7.3-1.3.3h-1.5V189h1.5zm-.8 2.4h.7c.4 0 .7 0 .9-.2.2-.2.3-.4.3-.7s-.2-.6-.4-.8c-.2 0-.4-.1-.9-.1h-.6v1.8zm0 2.4h.7c.6 0 .8 0 1-.2.3-.1.4-.4.4-.8 0-.6-.4-.9-1.2-.9h-.8v1.8zM40.9 190.6h.6v3.7h-.6v-.7c-.4.6-.8.8-1.3.8-1 0-1.7-.8-1.7-1.9s.7-1.9 1.8-1.9 1 .2 1.3.7v-.6zm-2.1.9c-.2.3-.3.6-.3 1 0 .8.5 1.4 1.2 1.4s1.3-.6 1.3-1.4-.5-1.4-1.2-1.4-.7.1-.9.4zM45.7 189h.6v5.3h-.6v-.6c-.4.5-.8.7-1.3.7-1 0-1.7-.8-1.7-1.9s.7-2 1.7-2 1 .2 1.3.6v-2.2zm-2.4 3.5c0 .8.5 1.4 1.2 1.4s1.2-.6 1.2-1.4-.5-1.4-1.2-1.4-1.2.6-1.2 1.4zM35.9 198.6h-1.7v1.4c.3-.1.5-.2.8-.2.9 0 1.6.7 1.6 1.7s-.8 1.8-1.8 1.8-1.3-.4-1.6-1.1l.6-.2c.1.2.2.3.3.4.2.2.5.3.8.3.6 0 1.1-.5 1.1-1.2s-.5-1.1-1.2-1.1-.8.2-1.2.5v-3h2.3v.6zM38.4 203c0 .2-.2.4-.4.4s-.4-.2-.4-.4.2-.4.4-.4.4.2.4.4zM42.7 201.7c0 .6-.1 1-.4 1.2-.3.3-.7.4-1.2.4s-1-.2-1.2-.5c-.3-.3-.4-.6-.4-1.4v-1.8c0-.7 0-1 .3-1.3.3-.3.7-.5 1.2-.5s.9.1 1.2.4c.3.3.4.6.4 1.2v2.1zm-2.5-.1c0 .6 0 .7.2.9.2.2.5.3.8.3s.6-.1.8-.4c.1-.2.2-.4.2-.8v-2c0-.4 0-.6-.3-.8-.2-.2-.4-.2-.7-.2s-.6.1-.8.4c-.1.2-.2.4-.2.8v1.8zM46 199.6v.5c.3-.4.6-.6 1-.6s.8.2 1 .7c.3-.5.6-.7 1.2-.7s.7.1.9.4c.2.2.2.4.2 1v2.4h-.6v-2.2c0-.4 0-.6-.1-.7-.1-.2-.4-.3-.6-.3-.5 0-.8.4-.8 1v2.2h-.6v-2.2c0-.4 0-.5-.1-.7-.1-.2-.3-.3-.6-.3-.5 0-.9.4-.9 1v2.2h-.6v-3.7h.6zM53.6 200.8v.4h-2l1.2-1.6c.3-.5.4-.6.4-.8 0-.3-.2-.4-.5-.4s-.5.2-.5.6h-.4c0-.6.4-1 1-1s1 .3 1 .8-.1.5-.4.9l-.8 1.1h1.1z"/></g><g><path d="M226.1 195v.6h-2.5v-5.3h.7v4.7h1.9zM227.7 190.9c0 .2-.2.4-.4.4s-.4-.2-.4-.4.2-.4.4-.4.4.2.4.4zm0 4.7h-.6v-3.7h.6v3.7zM229.7 195.6h-.6v-3.2h-.5v-.5h.5v-.5c0-.7.4-1.2 1-1.2h.2v.5c-.4 0-.6.2-.6.6v.5h.6v.5h-.6v3.2zM232.1 194.9c0 .2 0 .2.3.2h.3v.5h-.6c-.4 0-.6-.2-.6-.6v-2.6h-.5v-.5h.5v-1.2h.6v1.2h.6v.5h-.6v2.4z"/></g></g></svg>