<svg xmlns="http://www.w3.org/2000/svg" viewBox="0 0 445.2 478"><defs><style>.cls-1,.cls-10,.cls-11,.cls-12,.cls-13,.cls-14,.cls-15,.cls-16,.cls-17,.cls-18,.cls-19,.cls-2,.cls-20,.cls-21,.cls-3,.cls-4,.cls-5,.cls-6,.cls-7,.cls-8,.cls-9{fill:none}.cls-1,.cls-10,.cls-11,.cls-12,.cls-13,.cls-14,.cls-15,.cls-16,.cls-17,.cls-18,.cls-19,.cls-2,.cls-20,.cls-21,.cls-3,.cls-4,.cls-5,.cls-6,.cls-8,.cls-9{stroke-linecap:round;stroke-linejoin:round}.cls-1,.cls-10,.cls-11,.cls-12,.cls-13,.cls-14,.cls-15,.cls-16,.cls-17,.cls-18,.cls-19,.cls-2,.cls-21,.cls-3,.cls-4,.cls-5,.cls-9{stroke-width:.1px}.cls-1,.cls-14,.cls-15,.cls-19,.cls-20,.cls-21,.cls-3,.cls-4,.cls-9{stroke:#194164}.cls-1,.cls-14,.cls-9{stroke-dasharray:0 0 0 0 2.9 1.4 .2 1.4}.cls-2{stroke:#646464}.cls-10,.cls-11,.cls-12,.cls-13,.cls-15,.cls-16,.cls-18,.cls-21,.cls-3,.cls-4,.cls-5{stroke-dasharray:0 0 1.4 1.4}.cls-22{clip-path:url(#clippath)}.cls-14,.cls-4{stroke-dashoffset:1px}.cls-10,.cls-11,.cls-12,.cls-13,.cls-16,.cls-17,.cls-18,.cls-5{stroke:#969696}.cls-6{stroke:#000;stroke-width:.3px}.cls-7{clip-rule:evenodd}.cls-8{stroke:#4c4c4c;stroke-width:.1px}.cls-23{clip-path:url(#clippath-1)}.cls-24{clip-path:url(#clippath-4)}.cls-25{clip-path:url(#clippath-3)}.cls-26{clip-path:url(#clippath-2)}.cls-27{clip-path:url(#clippath-7)}.cls-28{clip-path:url(#clippath-8)}.cls-29{clip-path:url(#clippath-6)}.cls-30{clip-path:url(#clippath-5)}.cls-31{clip-path:url(#clippath-9)}.cls-32{clip-path:url(#clippath-10)}.cls-9{stroke-dashoffset:1.2px}.cls-10{stroke-dashoffset:2.7px}.cls-11{stroke-dashoffset:2.5px}.cls-12{stroke-dashoffset:1.4px}.cls-13,.cls-21{stroke-dashoffset:.7px}.cls-33{fill:#fff}.cls-33,.cls-34{fill-rule:evenodd}.cls-15{stroke-dashoffset:.2px}.cls-16{stroke-dashoffset:1.4px}.cls-18{stroke-dashoffset:1.3px}.cls-20{stroke-width:.3px}</style><clipPath id="clippath"><path class="cls-7" d="M426.7 470.7l-.3-9.6 14.5-15.1.7 24.3"/></clipPath><clipPath id="clippath-1"><path class="cls-7" d="M426.4 461.1l-198-.4.1-14.9 212.4.2"/></clipPath><clipPath id="clippath-2"><path class="cls-7" d="M433.6 461.1l-197.5-.4-15.3-15 212.9.2"/></clipPath><clipPath id="clippath-3"><path class="cls-7" d="M236.1 460.7l.1 9.4-14.9.2-.5-24.6"/></clipPath><clipPath id="clippath-4"><path class="cls-7" d="M235.9 453l.3 9.7-14.7 15.1-.5-24.4"/></clipPath><clipPath id="clippath-5"><path class="cls-7" d="M236.2 462.7l198 .3-.1 15-212.6-.2"/></clipPath><clipPath id="clippath-6"><path class="cls-7" d="M228.8 462.6l197.7.4 15.6 15-213.4-.2"/></clipPath><clipPath id="clippath-7"><path class="cls-7" d="M235.7 449.4l-2.1-.1 1-14.9 1.4.1"/></clipPath><clipPath id="clippath-8"><path class="cls-7" d="M234.4 420l-2.6-.2 1-14.9 1.7-.1"/></clipPath><clipPath id="clippath-9"><path class="cls-7" d="M422.4 449.7l-1.9-.1 1-14.9 1.2.1"/></clipPath><clipPath id="clippath-10"><path class="cls-7" d="M424.2 420.2l-2.6-.1 1-14.9 1.9-.1"/></clipPath></defs><g id="Plan"><path class="cls-34" d="M246.2 24.5l-6.2 5.6.8-11.9 5.8.4-.4 5.9"/><path class="cls-33" d="M240 30.1l6.2-5.6.4-5.9-5.8-.4-.8 11.9"/><path class="cls-17" d="M246.8 19.3l-5.8-.4M246.7 20.7l-5.8-.4M246.6 22.2l-5.8-.4M246.5 23.6l-5.8-.4M245.9 25l-5.3-.4M244.4 26.3l-3.9-.2M243.1 27.5l-2.7-.2M241.5 28.8l-1.2-.1M246.2 24.5l.4-5.9M240 30.1l.8-11.9"/><path class="cls-19" d="M240 30.1l.8-11.9M246.2 24.5l.4-5.9"/><path class="cls-34" d="M240.1 28.2l-5-.3.7-10.1 5 .4-.7 10"/><path class="cls-33" d="M235.1 27.9l5 .3.7-10-5-.4-.7 10.1"/><path class="cls-17" d="M235.4 26.9l.7 1M235.7 23.1l4.4 5.1M236 19l4.6 5.4M238.7 18l2.2 2.3"/><path class="cls-20" d="M240.1 28.2l.7-10M235.1 27.9l.7-10.1"/><path class="cls-19" d="M235.1 27.9l.7-10.1M240.1 28.2l.7-10"/><path class="cls-20" transform="rotate(-86 39.34 39.19)" d="M24.4 19.4h29.8V59H24.4z"/><path class="cls-19" d="M9.6 53.7L12 18.3M13.7 35.7l-1 13.9M17.5 23.2l-1 13.9M66.8 57.7l2.5-35.4M65.2 39.3l-1 13.9M63.2 26.4l-1 13.9"/><path class="cls-33" d="M65.3 58.6l5.5 7.6.5-7.2-6-.4"/><path class="cls-17" d="M71.2 62.8l-3.5-4.1M70.6 65.7l.5-.5M68.8 63.4l2.6-2.2M67 60.9l2.6-2M65.5 58.6"/><path class="cls-33" d="M65.3 58.6l5.5 7.6.5-7.2-6-.4"/><path class="cls-17" d="M71.2 62.8l-3.5-4.1M70.6 65.7l.5-.5M68.8 63.4l2.6-2.2M67 60.9l2.6-2M65.5 58.6"/><path class="cls-20" d="M71.3 59l-.5 7.2M71.3 59l-.5 7.2"/><path class="cls-33" d="M67.8 23.1l5.7.4-5.3-7.3-.4 6.9"/><path class="cls-17" d="M69.1 17.2l-.6-.8M70.6 23.3l-2.4-3M71.3 23.4l1.3-1.1M68 22.7l3.1-2.7M68.3 18.8l1-1.1"/><path class="cls-33" d="M67.8 23.1l5.7.4-5.3-7.3-.4 6.9"/><path class="cls-17" d="M69.1 17.2l-.6-.8M70.6 23.3l-2.4-3M71.3 23.4l1.3-1.1M68 22.7l3.1-2.7M68.3 18.8l1-1.1"/><path class="cls-20" d="M68.2 16.2l-.4 6.9M68.2 16.2l-.4 6.9"/><path class="cls-19" d="M69 26.3l-2.1 29.3"/><path class="cls-1" d="M73.5 26.7l-2 29.2"/><path class="cls-19" d="M71.5 55.4v.5"/><path class="cls-33" d="M73.7 23.6l-.2 3.1-4.5-.4.2-3.1"/><path class="cls-17" d="M73.5 26.7l-2.9-3.4M69.5 26.4l-.3-.5M72.1 26.6l1.8-1.4M69.3 25.4l2-2"/><path class="cls-33" d="M71.3 59l.2-3.1-4.6-.3-.2 3.1"/><path class="cls-17" d="M71.5 58.8l-2.9-3.1M67.7 58.7L67 58M69.6 58.9l2-1.8M67 57.5l1.8-1.8"/><path class="cls-20" d="M73.5 26.7l-4.5-.4M71.5 55.9l-4.6-.3M73.5 26.7l-4.5-.4M73.7 23.6l-.2 3.1M71.5 55.9l-4.6-.3M71.3 59l.2-3.1M67.8 23.1l1.4.1M65.3 58.6l1.4.1M73.7 23.6l-.2 3.1M71.3 59l.2-3.1M69 26.3l.2-3.1M66.9 55.6l-.2 3.1"/><path class="cls-33" d="M68.2 16.2l5.5 7.6L91 25l.5-7.2-23.3-1.6"/><path class="cls-17" d="M91.5 21.2l-3.4-3.6M91 25l-6.7-7.7M86.9 24.7L80.2 17M82.8 24.4l-6.7-7.7M78.8 24.1l-6.7-7.6M74.9 23.9l-5.8-6.4M87.1 24.7l4.4-3.5M83.3 24.5l7.7-6.7M79.2 24.2l7.7-6.7M75.2 23.9l7.6-6.7M72.6 22.3l6.2-5.4M71.1 20l3.8-3.3M69.3 17.7l1.6-1.3"/><path class="cls-33" d="M68.2 16.2l5.5 7.6L91 25l.5-7.2-23.3-1.6"/><path class="cls-17" d="M91.5 21.2l-3.4-3.6M91 25l-6.7-7.7M86.9 24.7L80.2 17M82.8 24.4l-6.7-7.7M78.8 24.1l-6.7-7.6M74.9 23.9l-5.8-6.4M87.1 24.7l4.4-3.5M83.3 24.5l7.7-6.7M79.2 24.2l7.7-6.7M75.2 23.9l7.6-6.7M72.6 22.3l6.2-5.4M71.1 20l3.8-3.3M69.3 17.7l1.6-1.3"/><path class="cls-20" d="M91.5 17.8l-16.1-1.1M91 25l-17.3-1.2M91 25l-17.3-1.2M91.5 17.8l-16.1-1.1"/><path class="cls-33" d="M240.1 28.2l-.5 7.2-113-7.9.5-7.2 113 7.9"/><path class="cls-17" d="M240.4 28.5l-.3-.3M240.1 32.3l-4-4.4M238.9 35.3l-6.7-7.6M234.8 35.1l-6.6-7.7M230.8 34.8l-6.7-7.7M226.7 34.5l-6.7-7.7M222.9 34.2l-6.7-7.7M218.8 33.9l-6.7-7.6M214.7 33.7l-6.6-7.7M210.9 33.4l-6.7-7.7M206.8 33.1l-6.6-7.7M202.8 32.8l-6.7-7.7M198.9 32.5l-6.6-7.6M194.9 32.3l-6.7-7.7M190.8 32l-6.7-7.7M186.7 31.7L180 24M182.9 31.4l-6.7-7.7M178.8 31.1l-6.7-7.6M174.8 30.9l-6.7-7.7M170.9 30.6l-6.7-7.7M166.9 30.3l-6.7-7.7M162.8 30l-6.7-7.7M159 29.8l-6.7-7.7M154.9 29.5l-6.7-7.7M150.8 29.2l-6.7-7.7M146.7 28.9l-6.6-7.7M142.9 28.6l-6.7-7.7M138.8 28.3l-6.6-7.6M134.8 28.1l-6.7-7.7M130.9 27.8l-3.7-4.4M239.2 35.4l.7-.5M235.1 35.1l5.1-4.2M231.3 34.8l7.6-6.7M227.2 34.5l7.7-6.7M223.1 34.2l7.7-6.6M219.3 34l7.7-6.7M215.2 33.7l7.7-6.7M211.1 33.4l7.7-6.7M207.1 33.1l7.7-6.7M203.2 32.9l7.7-6.7M199.2 32.6l7.7-6.7M195.1 32.3l7.7-6.7M191.3 32l7.7-6.7M187.2 31.7l7.7-6.7M183.1 31.4l7.7-6.6M179.1 31.2l7.6-6.7M175.2 30.9l7.7-6.7M171.2 30.6l7.6-6.7M167.1 30.3l7.7-6.7M163.3 30.1l7.6-6.7M159.2 29.8l7.7-6.7M155.1 29.5l7.7-6.7M151.3 29.2l7.7-6.7M147.2 28.9l7.7-6.6M143.2 28.6l7.6-6.6M139.1 28.4l7.7-6.7M135.3 28.1l7.6-6.7M131.2 27.8l7.7-6.7M127.1 27.5l7.7-6.7M127.1 23.9l3.9-3.3"/><path class="cls-33" d="M239.6 35.4l.5-7.2-113-7.9-.5 7.2 113 7.9"/><path class="cls-17" d="M240.4 28.5l-.3-.3M240.1 32.3l-4-4.4M238.9 35.3l-6.7-7.6M234.8 35.1l-6.6-7.7M230.8 34.8l-6.7-7.7M226.7 34.5l-6.7-7.7M222.9 34.2l-6.7-7.7M218.8 33.9l-6.7-7.6M214.7 33.7l-6.6-7.7M210.9 33.4l-6.7-7.7M206.8 33.1l-6.6-7.7M202.8 32.8l-6.7-7.7M198.9 32.5l-6.6-7.6M194.9 32.3l-6.7-7.7M190.8 32l-6.7-7.7M186.7 31.7L180 24M182.9 31.4l-6.7-7.7M178.8 31.1l-6.7-7.6M174.8 30.9l-6.7-7.7M170.9 30.6l-6.7-7.7M166.9 30.3l-6.7-7.7M162.8 30l-6.7-7.7M159 29.8l-6.7-7.7M154.9 29.5l-6.7-7.7M150.8 29.2l-6.7-7.7M146.7 28.9l-6.6-7.7M142.9 28.6l-6.7-7.7M138.8 28.3l-6.6-7.6M134.8 28.1l-6.7-7.7M130.9 27.8l-3.7-4.4M239.2 35.4l.7-.5M235.1 35.1l5.1-4.2M231.3 34.8l7.6-6.7M227.2 34.5l7.7-6.7M223.1 34.2l7.7-6.6M219.3 34l7.7-6.7M215.2 33.7l7.7-6.7M211.1 33.4l7.7-6.7M207.1 33.1l7.7-6.7M203.2 32.9l7.7-6.7M199.2 32.6l7.7-6.7M195.1 32.3l7.7-6.7M191.3 32l7.7-6.7M187.2 31.7l7.7-6.7M183.1 31.4l7.7-6.6M179.1 31.2l7.6-6.7M175.2 30.9l7.7-6.7M171.2 30.6l7.6-6.7M167.1 30.3l7.7-6.7M163.3 30.1l7.6-6.7M159.2 29.8l7.7-6.7M155.1 29.5l7.7-6.7M151.3 29.2l7.7-6.7M147.2 28.9l7.7-6.6M143.2 28.6l7.6-6.6M139.1 28.4l7.7-6.7M135.3 28.1l7.6-6.7M131.2 27.8l7.7-6.7M127.1 27.5l7.7-6.7M127.1 23.9l3.9-3.3"/><path class="cls-20" d="M240.1 28.2l-113-7.9M239.6 35.4l-113-7.9M239.6 35.4l-113-7.9M240.1 28.2l-113-7.9"/><path class="cls-19" transform="rotate(-86 124.067 20.462)" d="M123.3 17.5h1.7v6h-1.7z"/><path class="cls-19" transform="rotate(-86 92.762 18.236)" d="M91.9 16.9h1.7v2.6h-1.7z"/><path class="cls-19" transform="rotate(-86 107.584 19.326)" d="M106.8 5.7h1.7v27.1h-1.7z"/><path class="cls-19" d="M121.1 21.1L94 19.2"/><path class="cls-1" d="M121.1 27.1l-27.7-1.9"/><path class="cls-19" d="M93.8 25.2h-.4"/><path class="cls-33" d="M126.6 27.5l-5.5-.4.4-6 5.6.4"/><path class="cls-17" d="M127.2 23.4l-1.8-2M126.9 27.5l-5.1-5.9M122.8 27.2l-1.3-1.8M123.3 27.3l3.8-3.4M121.5 25l4.1-3.6"/><path class="cls-33" d="M91 25l2.4.2.4-6-2.4-.2"/><path class="cls-17" d="M94 19.9l-.7-.8M93.7 23.7l-2.2-2.5M91.2 25l2.5-2M91.5 21.2l2-2"/><path class="cls-20" d="M121.1 27.1l.4-6M93.4 25.2l.4-6M121.1 27.1l.4-6M126.6 27.5l-5.5-.4M93.4 25.2l.4-6M91 25l2.4.2M127.1 20.3v1.2M91.5 17.8l-.1 1.2M126.6 27.5l-5.5-.4M91 25l2.4.2M121.5 21.1l5.6.4M93.8 19.2l-2.4-.2"/><path class="cls-33" d="M76.2 5l-7.8 8.3-.2 2.9 7.2.5.8-11.7"/><path class="cls-17" d="M76.3 8.1l-1.4-1.5M76 12.2l-3.1-3.6M75.7 16L71 10.9M72.1 16.5L69 12.9M74.9 16.7l.8-.7M70.9 16.4l5.1-4.2M68.6 14.8l7.7-6.7"/><path class="cls-33" d="M76.2 5l-7.8 8.3-.2 2.9 7.2.5.8-11.7"/><path class="cls-17" d="M76.3 8.1l-1.4-1.5M76 12.2l-3.1-3.6M75.7 16L71 10.9M72.1 16.5L69 12.9M74.9 16.7l.8-.7M70.9 16.4l5.1-4.2M68.6 14.8l7.7-6.7"/><path class="cls-20" d="M75.4 16.7L76.2 5M68.2 16.2l.2-2.9M68.2 16.2l.2-2.9M75.4 16.7L76.2 5"/><path class="cls-33" d="M300.2 84.7c.9 1.3.9 3 0 4.3-1.5 1.9-3.8 2.9-6.2 2.9l-9-.3V82l9-.2c2.4 0 4.7 1 6.2 2.9"/><path class="cls-19" d="M300.2 84.7c.9 1.3.9 3 0 4.3-1.5 1.9-3.8 2.9-6.2 2.9l-9-.3V82l9-.2c2.4 0 4.7 1 6.2 2.9"/><path class="cls-33" d="M290.1 86.9c0-1 .3-2 1.1-2.8.7-.7 1.7-1.2 2.7-1.2 2.1 0 4.1.9 5.4 2.5.6.9.6 2 0 2.9-1.3 1.6-3.3 2.5-5.4 2.5-1 0-2-.4-2.7-1.2-.7-.7-1.1-1.8-1.1-2.8"/><path class="cls-19" d="M290.1 86.9c0-1 .3-2 1.1-2.8.7-.7 1.7-1.2 2.7-1.2 2.1 0 4.1.9 5.4 2.5.6.9.6 2 0 2.9-1.3 1.6-3.3 2.5-5.4 2.5-1 0-2-.4-2.7-1.2-.7-.7-1.1-1.8-1.1-2.8"/><path class="cls-33" d="M285.5 35.6h48v.1h.1l.1.1.1.1v20.7h-.1v.2h-.1l-.1.1h-.1l-48-.1h-.1l-.1-.1h-.1v-.1l-.1-.1v-.1l.1-20.4V35.7h.1v-.1H285.5"/><path class="cls-19" d="M285.5 35.6h48v.1h.1l.1.1.1.1v20.7h-.1v.2h-.1l-.1.1h-.1l-48-.1h-.1l-.1-.1h-.1v-.1l-.1-.1v-.1l.1-20.4V35.7h.1v-.1H285.5"/><path class="cls-33" d="M290.7 37.7h37.4c.4 0 .9.1 1.3.3.4.2.8.4 1.1.7.3.3.6.7.7 1.1.2.4.3.9.3 1.3V52c0 .2-.1.4-.2.6 0 .2-.2.4-.3.6-.1.2-.3.4-.4.5-.2.2-.3.3-.5.4l-.6.3c-.2 0-.4.1-.6.2h-38.1c-.4 0-.9-.1-1.3-.3-.4-.2-.8-.4-1.1-.7-.3-.3-.6-.7-.7-1.1-.2-.4-.3-.9-.3-1.3V41c0-.4.1-.9.3-1.3.2-.4.4-.8.7-1.1.3-.3.7-.6 1.1-.7.4-.2.9-.3 1.3-.3"/><path class="cls-19" d="M290.7 37.7h37.4c.4 0 .9.1 1.3.3.4.2.8.4 1.1.7.3.3.6.7.7 1.1.2.4.3.9.3 1.3V52c0 .2-.1.4-.2.6 0 .2-.2.4-.3.6-.1.2-.3.4-.4.5-.2.2-.3.3-.5.4l-.6.3c-.2 0-.4.1-.6.2h-38.1c-.4 0-.9-.1-1.3-.3-.4-.2-.8-.4-1.1-.7-.3-.3-.6-.7-.7-1.1-.2-.4-.3-.9-.3-1.3V41c0-.4.1-.9.3-1.3.2-.4.4-.8.7-1.1.3-.3.7-.6 1.1-.7.4-.2.9-.3 1.3-.3M284.2 117.7V78.9"/><path class="cls-6" d="M284.9 117.7l.1-39.4"/><path class="cls-19" d="M282.7 117.6l.2-37.1M284.2 117.7V78.9M284.9 117.7l.1-39.4M282.7 117.6l.2-37.1"/><path class="cls-6" d="M284.2 117.7h.7"/><path class="cls-19" d="M282.7 117.6l1.5.1M280.4 79.1l.1-18.5"/><path class="cls-6" d="M281.1 78.2V61.4"/><path class="cls-19" d="M279.1 80.5V59.3M280.4 79.1l.1-18.5M281.1 78.2V61.4M279.1 80.5V59.3M284.3 60.7l.1-25.5"/><path class="cls-6" d="M285 61.4l.1-26.2"/><path class="cls-19" d="M283 59.4l-.1-24.1M284.3 60.7l.1-25.5"/><path class="cls-6" d="M284.4 35.2h.7"/><path class="cls-19" d="M282.9 35.3l1.5-.1M285 61.4l.1-26.2M283 59.4l-.1-24.1"/><path class="cls-33" d="M285 62.1h12c.1 0 .3 0 .4.1.1 0 .3.1.4.2.1.1.2.2.2.4v14.1s0 .1-.1.2c0 0 0 .1-.1.2 0 0-.1 0-.2.1 0 0-.1 0-.2.1h-.2H285V61.9"/><path class="cls-19" d="M285 62.1h12c.1 0 .3 0 .4.1.1 0 .3.1.4.2.1.1.2.2.2.4v14.1s0 .1-.1.2c0 0 0 .1-.1.2 0 0-.1 0-.2.1 0 0-.1 0-.2.1h-.2H285V61.9"/><path class="cls-15" d="M285 78.3l-3.9.2"/><path class="cls-4" d="M281.1 78.5V61.4"/><path class="cls-15" d="M281.1 61.4h3.9"/><path class="cls-19" d="M280.5 60.6l3.8.1"/><path class="cls-6" d="M281.1 61.4h3.9"/><path class="cls-19" d="M279.1 59.3l3.9.1M280.5 60.6l3.8.1M281.1 61.4h3.9M279.1 59.3l3.9.1M284.2 78.9l-3.8.2"/><path class="cls-6" d="M285 78.3l-3.9-.1"/><path class="cls-19" d="M282.9 80.5h-3.8M284.2 78.9l-3.8.2M285 78.3l-3.9-.1M282.9 80.5h-3.8"/><path class="cls-6" d="M285 78.3V61.4"/><path class="cls-34" d="M403.7 35.3l.1-14.7H431l.1 15-27.4-.3"/><path class="cls-33" d="M403.8 20.6V24l27.2.2v-3.6h-27.2"/><path class="cls-17" d="M403.9 22.1l1.6 2M406.4 20.6l2.9 3.6M410 20.6l3.2 3.6M413.9 20.6l2.9 3.6M417.5 20.6l3.1 3.6M421.3 20.7l3.2 3.6M425.2 20.7l3.1 3.6M428.8 20.7l2.2 2.6"/><path class="cls-33" d="M403.8 24l-.1.7h27.5l-.2-.5-27.2-.2"/><path class="cls-33" d="M403.7 24.7l.1 5.6 27.2.2.2-5.8h-27.5"/><path class="cls-17" d="M430.5 30.5l-.1-5.8M429.1 30.6l.1-5.8M427.6 30.5l.2-5.8M426.2 30.4l.2-5.8M425 30.6l-.1-5.8M423.5 30.5v-5.8M422.1 30.4l-.1-5.6M420.7 30.5l-.1-5.8M419.2 30.4l-.1-5.5M417.8 30.3l-.1-5.6M416.3 30.4l.2-5.7M414.9 30.3l.1-5.5M413.4 30.5l.2-5.8M412 30.4l.2-5.6M410.8 30.3l-.1-5.6M409.4 30.4l-.1-5.8M407.9 30.3l-.1-5.5M406.5 30.2l-.1-5.5M405 30.4l-.1-5.6"/><path class="cls-33" d="M403.8 30.3l-.1 5 27.4.3-.1-5.1-27.2-.2"/><path class="cls-17" d="M403.7 35.1l.3.2M404 30.8l3.8 4.6M407.2 30.3l4.5 5.1M411.1 30.3l4.4 5.1M414.9 30.3l4.2 5.1M418.5 30.3l4.5 5.2M422.4 30.4l4.4 5.1M426.2 30.4l4.5 5.1M429.8 30.4l1.3 1.5"/><path class="cls-20" d="M403.8 24l27.2.2M403.8 20.6H431"/><path class="cls-17" d="M403.8 30.3l27.2.2M403.7 24.7h27.5"/><path class="cls-20" d="M403.7 35.3l27.4.3M403.8 30.3l27.2.2"/><path class="cls-19" d="M403.8 20.6H431M403.7 35.3l27.4.3"/><path class="cls-34" d="M326.5 35.5l.1-15 36.5.2v14.7l-36.6.1"/><path class="cls-33" d="M326.6 20.5v3.4l36.5.2v-3.4l-36.5-.2"/><path class="cls-17" d="M327.3 20.6l3.1 3.3M331.1 20.6L334 24M335 20.7l2.9 3.3M338.6 20.7l3.1 3.3M342.4 20.7l2.9 3.3M346.3 20.7l2.9 3.3M349.9 20.7l3.1 3.4M353.7 20.8l2.9 3.3M357.6 20.8l2.9 3.3M361.2 20.8l2 2.1"/><path class="cls-33" d="M326.6 23.9l-.1.7 36.6-.1v-.4l-36.5-.2M326.5 24.6l-.1 5.6 36.5.1.2-5.8-36.6.1"/><path class="cls-17" d="M362.5 30.3l.1-5.8M361 30.4l.2-5.8M359.6 30.3l.1-5.8M358.4 30.2l-.1-5.8M356.9 30.4l-.1-5.8M355.5 30.3l-.1-5.8M354 30.2l-.1-5.6M352.6 30.3l-.1-5.8M351.2 30.2l.1-5.5M349.7 30.3l.2-5.7M348.3 30.2l.1-5.7M346.8 30.1l.2-5.5M345.6 30.3l-.1-5.8M344.2 30.2l-.1-5.5M342.7 30.3l-.1-5.7M341.3 30.2l-.1-5.5M339.8 30.1v-5.5M338.4 30.3l-.1-5.8M337 30.2l.1-5.6M335.5 30.3l.2-5.8M334.1 30.2l.1-5.5M332.9 30.1l-.1-5.5M331.4 30.3l-.1-5.6M330 30.2l-.1-5.6M328.5 30.1v-5.6M327.1 30.2l-.1-5.5"/><path class="cls-33" d="M326.4 30.2l.1 5.3 36.6-.1-.2-5.1-36.5-.1"/><path class="cls-17" d="M326.4 32.6l2.7 2.8M328.3 30.3l4.4 5.1M331.9 30.1l4.7 5.3M335.8 30.1l4.4 5.4M339.6 30.1l4.4 5.4M343.2 30.1l4.7 5.4M347.1 30.2l4.4 5.1M350.9 30.2l4.5 5.1M354.5 30.2l4.5 5.1M358.4 30.2l4.4 5.1M362.2 30.3l.9 1"/><path class="cls-20" d="M326.6 23.9l36.5.2M326.6 20.5l36.5.2"/><path class="cls-17" d="M326.4 30.2l36.5.1M326.5 24.6l36.6-.1"/><path class="cls-20" d="M326.5 35.5l36.6-.1M326.4 30.2l36.5.1"/><path class="cls-19" d="M326.6 20.5l36.5.2M326.5 35.5l36.6-.1"/><path class="cls-34" d="M276.5 35.3V20.4l31.3.3-.1 14.6h-31.2"/><path class="cls-33" d="M276.5 20.4V24h31.3v-3.3l-31.3-.3"/><path class="cls-17" d="M276.6 22.6l1.1 1.5M278.4 20.5l3.2 3.6M282.3 20.6l3.1 3.3M285.9 20.6l3.1 3.3M289.8 20.6l3.1 3.4M293.6 20.6l2.9 3.4M297.4 20.7l2.9 3.3M301.1 20.7l3.1 3.3M304.9 20.7l2.9 3.3"/><path class="cls-33" d="M276.5 24v.5h31.3V24h-31.3M276.5 24.5l.1 5.5 31.2.3v-5.8h-31.3"/><path class="cls-17" d="M307.4 30.3l-.1-5.8M305.9 30.4l-.1-5.8M304.5 30.3l-.1-5.8M303 30.2v-5.8M301.6 30.3l-.1-5.7M300.1 30.2v-5.7M298.7 30.1l.2-5.5M297.3 30.3l.1-5.8M295.8 30.2l.2-5.8M294.4 30.1l.1-5.5M293.2 30.2l-.1-5.7M291.7 30.1l-.1-5.5M290.3 30.3l-.1-5.8M288.8 30.2v-5.8M287.4 30.1l-.1-5.6M286 30.2l-.1-5.8M284.5 30.1l.2-5.5M283.1 30l.1-5.5M281.6 30.2l.2-5.6M280.4 30.1l-.1-5.6M279 30l-.1-5.6M277.5 30.1l-.1-5.5"/><path class="cls-33" d="M276.6 30l-.1 5.3h31.2l.1-5-31.2-.3"/><path class="cls-17" d="M276.7 31.3l3.4 4M279.2 30l4.7 5.4M283.1 30l4.7 5.4M286.9 30l4.5 5.4M290.8 30.1l4.4 5.3M294.4 30.1l4.4 5.3M298.2 30.1l4.5 5.1M302.1 30.4l4.4 4.9M305.7 30.4l2.2 2.3"/><path class="cls-20" d="M276.5 24h31.3M276.5 20.4l31.3.3"/><path class="cls-17" d="M276.6 30l31.2.3M276.5 24.5h31.3"/><path class="cls-20" d="M276.5 35.3h31.2M276.6 30l31.2.3"/><path class="cls-19" d="M276.5 20.4l31.3.3M276.5 35.3h31.2M307.8 30.3l-.1 5 18.8.2-.1-5.3M309.7 28l-.2-7.4h-3.4l.1-2 21.9.1-.1 1.9h-3.4v7.3M309.5 20.6h15.1"/><path class="cls-20" d="M309.5 20.6h-3.4M324.6 20.6h3.4"/><path class="cls-19" d="M307.8 27.9l18.7.1-.1 2.2-18.6.1v-2.4zM311.4 27.9v2.4M322.7 28l.1 2.1M307.8 30.3v-2.4M322.8 30.1l-.1-2.1M311.4 30.3v-2.4M326.4 30.2l.1-2.2"/><path class="cls-20" d="M307.8 30.3l-.1 5"/><path class="cls-19" d="M309.5 23.9l7.7.1"/><path class="cls-33" d="M307.7 24.5h1.9v3.4h-1.9"/><path class="cls-17" d="M308.7 28v-3.4M307.7 24.5h1.9v3.4h-1.9"/><path class="cls-33" d="M307.8 20.7l1.7-.1v3.3l-1.7.1"/><path class="cls-17" d="M308.7 20.7l.9 1.1"/><path class="cls-20" d="M307.8 20.7l1.7-.1v3.3l-1.7.1M309.5 23.9l.2 4.1M326.4 30.2l.1 5.3"/><path class="cls-19" d="M324.6 24h-7.4"/><path class="cls-33" d="M326.5 24.6h-1.9V28h1.9"/><path class="cls-17" d="M325.6 27.9v-3.3M326.5 24.6h-1.9V28h1.9"/><path class="cls-33" d="M326.6 20.5l-2 .1V24l2-.1"/><path class="cls-17" d="M324.8 21.9l1.8 2"/><path class="cls-20" d="M326.6 20.5l-2 .1V24l2-.1M324.6 24v3.9"/><path class="cls-19" d="M364.8 28v-7.4h-3.4l.2-1.7 43.8-.1.1 2h-3.4V28"/><path class="cls-1" d="M363.1 35.4l40.6-.1"/><path class="cls-19" d="M403.2 35.3h.5"/><path class="cls-20" d="M364.8 20.6h-3.4M402.1 20.8h3.4"/><path class="cls-19" d="M363.1 27.9l40.6.2.1 2.2h-40.9l.2-2.4zM366.7 27.9l.1 2.4M400.1 28.1l.1 2.2M362.9 30.3l.2-2.4M381.5 30.4l-.1-2.4M366.8 30.3l-.1-2.4M385.6 30.2l-.1-2.2M381.5 30.4l-.1-2.4M400.2 30.3l-.1-2.2M385.6 30.2l-.1-2.2M403.8 30.3l-.1-2.2"/><path class="cls-33" d="M363 24.6h1.9V28H363"/><path class="cls-17" d="M363.8 28l.3-3.4M363 24.6h1.9V28H363"/><path class="cls-20" d="M362.9 30.3l.2 5.1"/><path class="cls-33" d="M363.1 20.7l1.7-.1v3.3l-1.7.2"/><path class="cls-17" d="M363.2 22.9l.9 1"/><path class="cls-20" d="M363.1 20.7l1.7-.1v3.3l-1.7.2M364.8 23.9V28"/><path class="cls-33" d="M403.8 24.7H402v3.4h1.8"/><path class="cls-17" d="M403.5 28.1l.2-3.4M402.3 28v-3.4M403.8 24.7H402v3.4h1.8"/><path class="cls-20" d="M403.8 30.3l-.1 5"/><path class="cls-33" d="M403.8 20.6l-1.7.2v3.3l1.7-.1"/><path class="cls-17" d="M402.6 20.8l1.3 1.3"/><path class="cls-20" d="M403.8 20.6l-1.7.2v3.3l1.7-.1M402.1 24.1V28"/><path class="cls-33" d="M14.1 9.5L7.3.1 6 18.8l7.4.5.7-9.8"/><path class="cls-17" d="M14.3 10.3l-6.9-8M14 14.3L7.1 6.4M13.7 18.2l-6.9-8M10.5 19.1l-4-4.8M6.7 18.9l-.4-.5M11.5 19.2l2.3-2M7.4 18.9l6.7-5.5M6.4 16.2l7.7-6.9M6.7 12.1L12.3 7M7 8.3l3.8-3.6M7.2 4.2l1.9-1.8M7.5.2"/><path class="cls-33" d="M14.1 9.5L7.3.1 6 18.8l7.4.5.7-9.8"/><path class="cls-17" d="M14.3 10.3l-6.9-8M14 14.3L7.1 6.4M13.7 18.2l-6.9-8M10.5 19.1l-4-4.8M6.7 18.9l-.4-.5M11.5 19.2l2.3-2M7.4 18.9l6.7-5.5M6.4 16.2l7.7-6.9M6.7 12.1L12.3 7M7 8.3l3.8-3.6M7.2 4.2l1.9-1.8M7.5.2"/><path class="cls-20" d="M13.4 19.3l.7-9.8M6 18.8L7.3.1M6 18.8L7.3.1M13.4 19.3l.7-9.8"/><path class="cls-33" d="M3.5 54.2L3 61.4l7.9-6.6-7.4-.6"/><path class="cls-17" d="M9.1 56.3l-1.5-1.8M7.1 58.1l-3.4-3.8M4.8 59.9l-1.3-1.6M3.3 60.3l6.2-5.6M3.6 56.2l2.1-1.8"/><path class="cls-33" d="M3.5 54.2L3 61.4l7.9-6.6-7.4-.6"/><path class="cls-17" d="M9.1 56.3l-1.5-1.8M7.1 58.1l-3.4-3.8M4.8 59.9l-1.3-1.6M3.3 60.3l6.2-5.6M3.6 56.2l2.1-1.8"/><path class="cls-20" d="M3 61.4l.5-7.2M3 61.4l.5-7.2"/><path class="cls-19" d="M9.7 51.6l2.1-29.3"/><path class="cls-1" d="M3.7 51.1l2.1-29.2"/><path class="cls-19" d="M5.7 22.4l.1-.5"/><path class="cls-33" d="M3.5 54.2l.2-3.1 6 .5-.2 3.1"/><path class="cls-17" d="M9.9 52.8l-1.1-1.3M7.6 54.5l-2.9-3.3M9.5 54.7h.2M5.7 54.4L9 51.5M3.9 52.1l1-.9"/><path class="cls-33" d="M6 18.8l-.2 3.1 6 .4.2-3.1"/><path class="cls-17" d="M12.1 20.7l-1.6-1.6M9.6 22.2l-2.9-3.3M8.2 22.1l3.3-2.9M6.1 20.3l1.3-1.4"/><path class="cls-20" d="M3.7 51.1l6 .5M5.8 21.9l6 .4M3.7 51.1l6 .5M3.5 54.2l.2-3.1M5.8 21.9l6 .4M6 18.8l-.2 3.1M10.9 54.8l-1.4-.1M13.4 19.3l-1.4-.1M3.5 54.2l.2-3.1M6 18.8l-.2 3.1M9.7 51.6l-.2 3.1M11.8 22.3l.2-3.1"/><path class="cls-33" d="M10.9 54.8L3 61.4l67.8 4.8-5.5-7.6-54.4-3.8"/><path class="cls-17" d="M70.3 66.1l-6.7-7.6M66.2 65.9l-6.7-7.7M62.4 65.6l-6.7-7.7M58.3 65.3l-6.7-7.7M54.2 65l-6.6-7.7M50.2 64.7L43.5 57M46.3 64.5l-6.6-7.7M42.3 64.2l-6.7-7.7M38.2 63.9l-6.7-7.7M34.4 63.6l-6.7-7.7M30.3 63.3l-6.7-7.6M26.2 63.1l-6.7-7.7M22.4 62.8l-6.7-7.7M18.3 62.5l-6.7-7.7M14.3 62.2l-5.2-5.9M10.2 61.9l-3.1-3.8M6.4 61.7l-1.6-1.8M69.8 66.1l.8-.4M66 65.8l2.8-2.4M61.9 65.6l5.1-4.7M57.8 65.3l7.7-6.7M53.8 65l7.6-6.7M49.9 64.7l7.7-6.7M45.9 64.4l7.6-6.7M41.8 64.1l7.7-6.6M38 63.9l7.6-6.7M33.9 63.6l7.7-6.7M29.8 63.3l7.7-6.7M25.7 63l7.7-6.7M21.9 62.8l7.7-6.7M17.8 62.5l7.7-6.7M13.8 62.2l7.7-6.7M9.9 61.9l7.7-6.7M5.9 61.6l7.7-6.6"/><path class="cls-33" d="M10.9 54.8L3 61.4l67.8 4.8-5.5-7.6-54.4-3.8"/><path class="cls-17" d="M70.3 66.1l-6.7-7.6M66.2 65.9l-6.7-7.7M62.4 65.6l-6.7-7.7M58.3 65.3l-6.7-7.7M54.2 65l-6.6-7.7M50.2 64.7L43.5 57M46.3 64.5l-6.6-7.7M42.3 64.2l-6.7-7.7M38.2 63.9l-6.7-7.7M34.4 63.6l-6.7-7.7M30.3 63.3l-6.7-7.6M26.2 63.1l-6.7-7.7M22.4 62.8l-6.7-7.7M18.3 62.5l-6.7-7.7M14.3 62.2l-5.2-5.9M10.2 61.9l-3.1-3.8M6.4 61.7l-1.6-1.8M69.8 66.1l.8-.4M66 65.8l2.8-2.4M61.9 65.6l5.1-4.7M57.8 65.3l7.7-6.7M53.8 65l7.6-6.7M49.9 64.7l7.7-6.7M45.9 64.4l7.6-6.7M41.8 64.1l7.7-6.6M38 63.9l7.6-6.7M33.9 63.6l7.7-6.7M29.8 63.3l7.7-6.7M25.7 63l7.7-6.7M21.9 62.8l7.7-6.7M17.8 62.5l7.7-6.7M13.8 62.2l7.7-6.7M9.9 61.9l7.7-6.7M5.9 61.6l7.7-6.6"/><path class="cls-20" d="M65.3 58.6l-54.4-3.8M70.8 66.2L3 61.4M70.8 66.2L3 61.4M65.3 58.6l-54.4-3.8"/><path class="cls-33" d="M97.8 109.2l.5-6.9 138.4 9.6v7l-138.9-9.7"/><path class="cls-17" d="M236.7 115.1l-2.9-3.4M236.4 118.9l-6.4-7.4M232.4 118.6l-6.5-7.4M228.3 118.3l-6.5-7.4M224.2 118l-6.4-7.4M220.4 117.8l-6.5-7.5M216.3 117.5l-6.4-7.4M212.3 117.2l-6.5-7.4M208.4 116.9l-6.4-7.4M204.4 116.7l-6.5-7.5M200.3 116.4l-6.5-7.5M196.2 116.1l-6.4-7.4M192.4 115.8l-6.5-7.4M188.3 115.5l-6.4-7.4M184.3 115.2l-6.5-7.4M180.4 115l-6.4-7.5M176.4 114.7l-6.5-7.4M172.3 114.4l-6.5-7.4M168.5 114.1l-6.5-7.4M164.4 113.9l-6.5-7.5M160.3 113.6l-6.4-7.5M156.2 113.3l-6.4-7.4M152.4 113l-6.4-7.4M148.3 112.7l-6.4-7.4M144.3 112.5l-6.5-7.5M140.4 112.2l-6.4-7.4M136.4 111.9l-6.5-7.4M132.3 111.6l-6.5-7.4M128.5 111.3l-6.5-7.4M124.4 111.1l-6.5-7.5M120.3 110.8l-6.4-7.5M116.3 110.5l-6.5-7.4M112.4 110.2l-6.4-7.4M108.4 109.9l-6.5-7.4M104.3 109.7l-5.8-6.9M100.5 109.4l-2.3-2.6M234.1 118.7l2.8-2.4M230 118.4l6.9-6M225.9 118.2l7.4-6.5M222.1 117.9l7.4-6.5M218 117.6l7.4-6.5M213.9 117.3l7.5-6.4M210.1 117.1l7.4-6.5M206 116.8l7.5-6.5M202 116.5l7.4-6.5M197.9 116.2l7.4-6.5M194.1 115.9l7.4-6.4M190 115.6l7.4-6.4M185.9 115.4l7.5-6.5M182.1 115.1l7.4-6.5M178 114.8l7.5-6.4M174 114.5l7.4-6.4M170.1 114.3l7.5-6.5M166.1 114l7.4-6.5M162 113.7l7.4-6.5M157.9 113.4l7.4-6.5M154.1 113.1l7.4-6.4M150 112.9l7.4-6.5M145.9 112.6l7.5-6.5M142.1 112.3l7.4-6.5M138 112l7.5-6.4M134 111.7l7.4-6.4M130.1 111.5l7.5-6.5M126.1 111.2l7.4-6.5M122 110.9l7.4-6.5M117.9 110.6l7.5-6.4M114.1 110.3l7.4-6.4M110 110.1l7.5-6.5M106 109.8l7.4-6.5M102.1 109.5l7.5-6.5M98.1 109.2l7.4-6.4M98.3 105.4l3.1-2.9"/><path class="cls-33" d="M98.3 102.3l-.5 6.9 138.9 9.7v-7l-138.4-9.6"/><path class="cls-17" d="M236.7 115.1l-2.9-3.4M236.4 118.9l-6.4-7.4M232.4 118.6l-6.5-7.4M228.3 118.3l-6.5-7.4M224.2 118l-6.4-7.4M220.4 117.8l-6.5-7.5M216.3 117.5l-6.4-7.4M212.3 117.2l-6.5-7.4M208.4 116.9l-6.4-7.4M204.4 116.7l-6.5-7.5M200.3 116.4l-6.5-7.5M196.2 116.1l-6.4-7.4M192.4 115.8l-6.5-7.4M188.3 115.5l-6.4-7.4M184.3 115.2l-6.5-7.4M180.4 115l-6.4-7.5M176.4 114.7l-6.5-7.4M172.3 114.4l-6.5-7.4M168.5 114.1l-6.5-7.4M164.4 113.9l-6.5-7.5M160.3 113.6l-6.4-7.5M156.2 113.3l-6.4-7.4M152.4 113l-6.4-7.4M148.3 112.7l-6.4-7.4M144.3 112.5l-6.5-7.5M140.4 112.2l-6.4-7.4M136.4 111.9l-6.5-7.4M132.3 111.6l-6.5-7.4M128.5 111.3l-6.5-7.4M124.4 111.1l-6.5-7.5M120.3 110.8l-6.4-7.5M116.3 110.5l-6.5-7.4M112.4 110.2l-6.4-7.4M108.4 109.9l-6.5-7.4M104.3 109.7l-5.8-6.9M100.5 109.4l-2.3-2.6M234.1 118.7l2.8-2.4M230 118.4l6.9-6M225.9 118.2l7.4-6.5M222.1 117.9l7.4-6.5M218 117.6l7.4-6.5M213.9 117.3l7.5-6.4M210.1 117.1l7.4-6.5M206 116.8l7.5-6.5M202 116.5l7.4-6.5M197.9 116.2l7.4-6.5M194.1 115.9l7.4-6.4M190 115.6l7.4-6.4M185.9 115.4l7.5-6.5M182.1 115.1l7.4-6.5M178 114.8l7.5-6.4M174 114.5l7.4-6.4M170.1 114.3l7.5-6.5M166.1 114l7.4-6.5M162 113.7l7.4-6.5M157.9 113.4l7.4-6.5M154.1 113.1l7.4-6.4M150 112.9l7.4-6.5M145.9 112.6l7.5-6.5M142.1 112.3l7.4-6.5M138 112l7.5-6.4M134 111.7l7.4-6.4M130.1 111.5l7.5-6.5M126.1 111.2l7.4-6.5M122 110.9l7.4-6.5M117.9 110.6l7.5-6.4M114.1 110.3l7.4-6.4M110 110.1l7.5-6.5M106 109.8l7.4-6.5M102.1 109.5l7.5-6.5M98.1 109.2l7.4-6.4M98.3 105.4l3.1-2.9"/><path class="cls-20" d="M234.5 118.8l2.2.1M97.8 109.2l129.5 9.1M98.3 102.3l138.4 9.6M98.3 102.3l138.4 9.6M234.5 118.8l2.2.1M97.8 109.2l129.5 9.1"/><path class="cls-33" d="M.1 102.4l.5-7 65.6 4.6-.5 7-65.6-4.6"/><path class="cls-17" d="M66.4 100.5l-.4-.5M66.1 104.6l-4.2-4.9M64.3 106.9l-6.5-7.5M60.5 106.6L54 99.2M56.4 106.3l-6.5-7.4M52.3 106l-6.4-7.4M48.3 105.7l-6.5-7.4M44.4 105.5L38 98M40.4 105.2l-6.5-7.4M36.3 104.9l-6.5-7.4M32.5 104.6L26 97.2M28.4 104.3l-6.5-7.4M24.3 104.1l-6.4-7.5M20.5 103.8L14 96.4M16.4 103.5L10 96.1M12.4 103.2l-6.5-7.4M8.3 102.9l-6.5-7.4M4.5 102.7L.7 98.3M.4 102.4v-.3M62.2 106.7l4-3.6M58.1 106.4l7.4-6.4M54 106.1l7.4-6.4M49.9 105.9l7.5-6.5M46.1 105.6l7.4-6.5M42 105.3l7.5-6.5M38 105l7.4-6.4M34.1 104.7l7.5-6.4M30.1 104.5l7.4-6.5M26 104.2l7.4-6.5M22.2 103.9l7.4-6.4M18.1 103.6l7.4-6.4M14 103.3l7.5-6.4M10 103.1l7.4-6.5M6.1 102.8l7.5-6.5M2.1 102.5L9.5 96M.5 100.2l4.9-4.4M.8 96.2l.8-.7"/><path class="cls-33" d="M.6 95.4l-.5 7 65.6 4.6.5-7L.6 95.4"/><path class="cls-17" d="M66.4 100.5l-.4-.5M66.1 104.6l-4.2-4.9M64.3 106.9l-6.5-7.5M60.5 106.6L54 99.2M56.4 106.3l-6.5-7.4M52.3 106l-6.4-7.4M48.3 105.7l-6.5-7.4M44.4 105.5L38 98M40.4 105.2l-6.5-7.4M36.3 104.9l-6.5-7.4M32.5 104.6L26 97.2M28.4 104.3l-6.5-7.4M24.3 104.1l-6.4-7.5M20.5 103.8L14 96.4M16.4 103.5L10 96.1M12.4 103.2l-6.5-7.4M8.3 102.9l-6.5-7.4M4.5 102.7L.7 98.3M.4 102.4v-.3M62.2 106.7l4-3.6M58.1 106.4l7.4-6.4M54 106.1l7.4-6.4M49.9 105.9l7.5-6.5M46.1 105.6l7.4-6.5M42 105.3l7.5-6.5M38 105l7.4-6.4M34.1 104.7l7.5-6.4M30.1 104.5l7.4-6.5M26 104.2l7.4-6.5M22.2 103.9l7.4-6.4M18.1 103.6l7.4-6.4M14 103.3l7.5-6.4M10 103.1l7.4-6.5M6.1 102.8l7.5-6.5M2.1 102.5L9.5 96M.5 100.2l4.9-4.4M.8 96.2l.8-.7"/><path class="cls-20" d="M.1 102.4l65.6 4.6M.6 95.4l65.6 4.6M.6 95.4l65.6 4.6M.1 102.4l65.6 4.6"/><path class="cls-19" transform="rotate(-86 66.914 106.907)" d="M66.1 105.7h1.7v2.4h-1.7z"/><path class="cls-19" transform="rotate(-86 96.657 108.98)" d="M95.8 107.8h1.7v2.4h-1.7z"/><path class="cls-19" transform="rotate(-86 81.786 107.943)" d="M81 94.3h1.7v27.4H81z"/><path class="cls-19" d="M68.2 106.2l27.3 1.9"/><path class="cls-1" d="M68.4 100.2l27.8 1.9"/><path class="cls-19" d="M95.7 102.1h.5"/><path class="cls-33" d="M66.2 100l2.2.2-.4 6-2.2-.2"/><path class="cls-17" d="M68.4 102.8l-2-2.3M67.5 106.1l-1.4-1.5M67 106.1l1.3-.9M66.2 103.1l2.4-2"/><path class="cls-33" d="M98.3 102.3l-2.1-.2-.5 6 2.2.1"/><path class="cls-17" d="M98.5 102.8l-.7-.6M98.2 106.8l-2-2.3M96 107.4l2.3-2M96.3 103.3l1.1-1.1"/><path class="cls-20" d="M68.4 100.2l-.4 6M96.2 102.1l-.5 6M68.4 100.2l-.4 6M66.2 100l2.2.2M96.2 102.1l-.5 6M98.3 102.3l-2.1-.2M65.7 107l.1-1M97.8 109.2l.1-1M66.2 100l2.2.2M98.3 102.3l-2.1-.2M68 106.2l-2.2-.2M95.7 108.1l2.2.1"/><path class="cls-19" d="M230.2 77.3l-2.4 34M222.5 76.8l-2.3 34M214.9 76.2l-2.4 34M207.2 75.7l-2.4 34M199.6 75.2l-2.4 34M191.9 74.6l-2.4 34M184.5 74.1l-2.4 34M176.8 73.6l-2.4 34"/><path class="cls-19" transform="rotate(-86 173.33 69.007)" d="M170.4 7.8h5.8v122.4h-5.8z"/><path class="cls-19" d="M187.9 72.9l5.5 36M169.2 73.1l-2.4 33.9M161.5 72.5l-2.4 34M153.8 72l-2.3 34M146.2 71.4l-2.4 34M138.5 70.9l-2.4 34M130.9 70.4l-2.4 34M123.2 69.8l-2.4 34M115.5 69.3l-2.3 34"/><path class="cls-19" transform="rotate(-86 173.283 69.164)" d="M169.1 6.5h8.4v125.3h-8.4z"/><path class="cls-19" d="M190.8 91.6l3.6 4.1M194.9 88.1l-4.1 3.5M194.3 95.7l.5-7.6M114.5 86.3l3.5 4.1M118.5 82.7l-4 3.6M117.9 90.4l.5-7.7M29.1 97.4l2.4-34M21.5 96.9l2.3-34M13.8 96.3l2.4-33.9M30.3 80.5L26.2 84M26.8 76.4l3.5 4.1M26.2 84l.5-7.7"/><path class="cls-1" d="M234 360.5l7.6 42.6"/><path class="cls-9" d="M241.6 403.1l83.7.1"/><path class="cls-14" d="M325.3 403.2l7.6-42.5"/><path class="cls-19" d="M234.4 120.7l2.6-.1-.1 1.7-2.4.1-.1-1.7zM264.2 120.6l2.7.2-.1 1.7h-2.5l-.1-1.9z"/><path class="cls-19" d="M237 120.6h27.2l.1 1.9-27.4-.2.1-1.7z"/><path class="cls-1" d="M236.7 111.9l27.8 2"/><path class="cls-19" d="M264 113.8l.5.1"/><path class="cls-17" d="M237 149.6c14.9 0 27.2-12.2 27.3-27.2M236.9 122.3l.1 27.2"/><path class="cls-33" d="M338.5 117.6l-4.1 4.3v20.2l4.1.1v-24.6"/><path class="cls-17" d="M338 118.3l.8-.7M334.6 125.3l4.1-3.6M334.6 129.4l4.1-3.6M334.6 133.2l4.1-3.5M334.5 137.3l4.1-3.6M334.5 141.1l4.1-3.5M338 142.1l.5-.4"/><path class="cls-33" d="M338.5 117.6l-4.1 4.3v20.2l4.1.1v-24.6"/><path class="cls-17" d="M338 118.3l.8-.7M334.6 125.3l4.1-3.6M334.6 129.4l4.1-3.6M334.6 133.2l4.1-3.5M334.5 137.3l4.1-3.6M334.5 141.1l4.1-3.5M338 142.1l.5-.4"/><path class="cls-20" d="M338.5 142.2v-24.6M334.4 142.1v-20.2M334.4 142.1v-20.2M338.5 142.2v-24.6"/><path class="cls-33" d="M338.5 214.1l-4.3-.1.1-46.6h4.4l-.2 46.7"/><path class="cls-17" d="M334.5 169.1l2-1.6M334.4 173.1l4.4-3.7M334.4 177.2l4.3-3.8M334.3 181.1l4.4-3.8M334.3 185.2l4.4-3.8M334.5 189l4.1-3.5M334.5 193.1l4.3-3.8M334.4 197.2l4.4-3.8M334.4 201l4.3-3.7M334.3 205.1l4.4-3.8M334.3 209l4.4-3.6M334.3 213.1l4.3-3.8M337.8 214l.8-.6"/><path class="cls-33" d="M334.2 214l4.3.1.2-46.7h-4.4l-.1 46.6"/><path class="cls-17" d="M334.5 169.1l2-1.6M334.4 173.1l4.4-3.7M334.4 177.2l4.3-3.8M334.3 181.1l4.4-3.8M334.3 185.2l4.4-3.8M334.5 189l4.1-3.5M334.5 193.1l4.3-3.8M334.4 197.2l4.4-3.8M334.4 201l4.3-3.7M334.3 205.1l4.4-3.8M334.3 209l4.4-3.6M334.3 213.1l4.3-3.8M337.8 214l.8-.6"/><path class="cls-20" d="M338.5 214.1l.2-46.7M334.2 214l.1-46.6M334.2 214l.1-46.6M338.5 214.1l.2-46.7"/><path class="cls-33" d="M338.2 345.9l-4.1.2V239.3h4.4l-.3 106.6"/><path class="cls-17" d="M334.2 241l2.1-1.6M334.2 245.1l4.4-3.8M334.2 248.9l4.3-3.8M334.1 253l4.4-3.8M334.3 256.9l4.1-3.6M334.3 260.9l4.3-3.7M334.2 265l4.4-3.8M334.2 268.9l4.4-3.8M334.2 273l4.3-3.8M334.1 276.8l4.4-3.5M334.3 280.9l4.2-3.8M334.3 284.8l4.1-3.6M334.3 288.9l4.1-3.8M334.2 292.7l4.4-3.5M334.2 296.8l4.3-3.6M334.1 300.9l4.4-3.8M334.1 304.7l4.4-3.5M334.3 308.8l4.1-3.8M334.3 312.7l4.1-3.6M334.2 316.8l4.2-3.8M334.2 320.6l4.1-3.6M334.2 324.7l4.1-3.6M334.1 328.5l4.4-3.5M334.3 332.6l4.1-3.5M334.3 336.5l4.1-3.6M334.3 340.6l4.1-3.6M334.2 344.7l4.1-3.6M337.2 346.1l1.1-1.1"/><path class="cls-33" d="M334.1 346.1l4.1-.2.3-106.6h-4.4v106.8"/><path class="cls-17" d="M334.2 241l2.1-1.6M334.2 245.1l4.4-3.8M334.2 248.9l4.3-3.8M334.1 253l4.4-3.8M334.3 256.9l4.1-3.6M334.3 260.9l4.3-3.7M334.2 265l4.4-3.8M334.2 268.9l4.4-3.8M334.2 273l4.3-3.8M334.1 276.8l4.4-3.5M334.3 280.9l4.2-3.8M334.3 284.8l4.1-3.6M334.3 288.9l4.1-3.8M334.2 292.7l4.4-3.5M334.2 296.8l4.3-3.6M334.1 300.9l4.4-3.8M334.1 304.7l4.4-3.5M334.3 308.8l4.1-3.8M334.3 312.7l4.1-3.6M334.2 316.8l4.2-3.8M334.2 320.6l4.1-3.6M334.2 324.7l4.1-3.6M334.1 328.5l4.4-3.5M334.3 332.6l4.1-3.5M334.3 336.5l4.1-3.6M334.3 340.6l4.1-3.6M334.2 344.7l4.1-3.6M337.2 346.1l1.1-1.1"/><path class="cls-20" d="M338.2 345.9l.3-106.6M334.2 262.6l-.1-23.3M334.1 346.1v-79.4M334.2 262.6l-.1-23.3M338.2 345.9l.3-106.6M334.1 346.1v-79.4M338.2 345.9l-4.1.2"/><path class="cls-1" d="M338.7 167.4l-.2-25.2M334.3 167.4l.1-25.3"/><path class="cls-19" d="M338.5 166l-4.1-.1M338.7 143.4l-4.4-.1"/><path class="cls-20" d="M338.7 167.4h-4.4M338.5 142.2l-4.1-.1"/><path class="cls-17" d="M361.3 166.1c0-6-2.4-11.8-6.6-16-4.2-4.3-10-6.7-16-6.7M338.5 166l22.6.1"/><path class="cls-1" d="M338.5 239.3v-25.2M334.1 239.3l.1-25.3"/><path class="cls-19" d="M338.5 238.1h-4.3M338.4 215.3l-4-.1"/><path class="cls-20" d="M338.5 239.3h-4.4M338.5 214.1l-4.3-.1"/><path class="cls-17" d="M338.5 238c12.4 0 22.7-10.2 22.7-22.6M338.4 215.3l22.9.1"/><path class="cls-33" d="M304.1 117.6l.2 4.4h-27.4l.1-4.4h27.1"/><path class="cls-17" d="M277.1 119.6l2-2.1M278.8 121.9l4.9-4.3M283.4 121.9l5.1-4.2M288 122l5.1-4.4M292.5 121.9l5.1-4.3M297.1 121.9l5.1-4.2M301.7 122l2.5-2.2"/><path class="cls-33" d="M304.3 122l-.2-4.4H277l-.1 4.4h27.4"/><path class="cls-17" d="M277.1 119.6l2-2.1M278.8 121.9l4.9-4.3M283.4 121.9l5.1-4.2M288 122l5.1-4.4M292.5 121.9l5.1-4.3M297.1 121.9l5.1-4.2M301.7 122l2.5-2.2"/><path class="cls-20" d="M304.1 117.6H277M304.3 122h-27.4M277 117.6l-.1 4.4M304.3 122h-27.4M304.1 117.6H277"/><path class="cls-33" d="M329.3 122l5.1-.1 4.1-4.3-9.1.1-.1 4.3"/><path class="cls-17" d="M329.3 121.8l4.9-4.2M333.9 121.9l4.1-3.6"/><path class="cls-33" d="M329.3 122l5.1-.1 4.1-4.3-9.1.1-.1 4.3"/><path class="cls-17" d="M329.3 121.8l4.9-4.2M333.9 121.9l4.1-3.6"/><path class="cls-20" d="M333.7 117.8l-4.3-.1M334.4 121.9l-5.1.1M334.4 121.9l-5.1.1M333.7 117.8l-4.3-.1"/><path class="cls-1" d="M329.4 117.7l-25.3-.1M329.3 122h-25"/><path class="cls-19" d="M328.2 117.6l-.1 4.3M305.6 117.7l-.1 4.1"/><path class="cls-20" d="M329.4 117.7l-.1 4.3M304.1 117.6l.2 4.4"/><path class="cls-17" d="M328.2 95c-12.4 0-22.7 10.2-22.7 22.6M328.2 117.6l-.1-22.6"/><path class="cls-33" d="M261.5 262.4l.2 4.3h-27.4l.1-4.3h27.1"/><path class="cls-17" d="M234.5 264.1l1.8-1.8M236 266.8l5.1-4.4M240.5 266.7l5.2-4.3M245.1 266.7l5.1-4.4M249.7 266.8l5.1-4.4M254.3 266.7l5.1-4.3M258.8 266.7l2.8-2.4"/><path class="cls-33" d="M261.7 266.7l-.2-4.3h-27.1l-.1 4.3h27.4"/><path class="cls-17" d="M234.5 264.1l1.8-1.8M236 266.8l5.1-4.4M240.5 266.7l5.2-4.3M245.1 266.7l5.1-4.4M249.7 266.8l5.1-4.4M254.3 266.7l5.1-4.3M258.8 266.7l2.8-2.4"/><path class="cls-20" d="M261.5 262.4h-27.1M261.7 266.7h-27.4M234.4 262.4l-.1 4.3M261.7 266.7h-27.4M261.5 262.4h-27.1"/><path class="cls-33" d="M306.7 266.7h27.4l.1-4.1-27.4-.2-.1 4.3"/><path class="cls-17" d="M306.8 264.8l2.9-2.4M309.4 266.7l4.8-4.3M313.9 266.7l4.9-4.2M318.5 266.8l4.9-4.2M323.1 266.7l4.6-4M327.6 266.7l4.6-4M332.2 266.8l2.1-2"/><path class="cls-33" d="M306.7 266.7h27.4l.1-4.1-27.4-.2-.1 4.3"/><path class="cls-17" d="M306.8 264.8l2.9-2.4M309.4 266.7l4.8-4.3M313.9 266.7l4.9-4.2M318.5 266.8l4.9-4.2M323.1 266.7l4.6-4M327.6 266.7l4.6-4M332.2 266.8l2.1-2"/><path class="cls-20" d="M334.2 262.6l-27.4-.2M334.1 266.7h-27.4M334.1 266.7h-27.4M334.2 262.6l-27.4-.2"/><path class="cls-19" d="M305.3 262.5l.2 4.4M263 262.5l-.1 4.3"/><path class="cls-20" d="M306.8 262.4l-.1 4.3M261.5 262.4l.2 4.3"/><path class="cls-17" d="M305.4 241.2c-11.7 0-21.3 9.6-21.3 21.2M284.2 262.5c0-5.6-2.2-11.1-6.2-15-4-4-9.4-6.2-15-6.2M305.3 262.5l.1-21.4M263 262.5v-21.2"/><path class="cls-33" d="M423.7 192.9l.1-4.1-85.2-.2v4.3h85.1"/><path class="cls-17" d="M423.8 192.1l-2.7-3.3M420.9 192.9l-3.6-4.1M417 192.9l-3.6-4.1M413.4 192.9l-3.6-4.1M409.5 192.8l-3.5-4.1M405.7 192.8l-3.6-4.1M402.1 192.8l-3.6-4.1M398.2 193l-3.5-4.3M394.6 193l-3.8-4.4M390.8 193l-3.6-4.4M386.9 192.9l-3.5-4.3M383.3 192.9l-3.8-4.3M379.5 192.9l-3.6-4.1M375.9 192.9l-3.8-4.1M372 192.9l-3.5-4.1M368.2 192.8l-3.6-4.1M364.6 192.8l-3.8-4.1M360.7 193l-3.5-4.3M357.1 193l-3.8-4.3M353.2 193l-3.7-4.4M349.4 193l-3.6-4.4M345.8 192.9l-3.8-4.3M341.9 192.9l-3.1-3.8M420.9 192.9l3-2.7M416.5 192.8l4.9-4M412.2 192.8l4.8-4M407.9 193l4.8-4.3M403.5 192.9l4.9-4.2M399.2 192.8l4.9-4M394.9 192.8l4.8-4M390.5 192.9l4.9-4.2M386.2 192.9l4.9-4.2M381.9 192.8l4.8-4.2M377.8 193l4.6-4.2M373.5 193l4.6-4.3M369.1 192.9l4.9-4.2M364.8 192.8l4.9-4.2M360.5 193l4.8-4.2M356.1 192.9l4.9-4.2M351.8 192.9l4.9-4.2M347.5 192.8l4.8-4.2M343.1 193l4.9-4.5M338.8 192.9l4.9-4.2M338.8 189.1l.5-.5"/><path class="cls-33" d="M423.7 192.9l.1-4.1-85.2-.2v4.3h85.1"/><path class="cls-17" d="M423.8 192.1l-2.7-3.3M420.9 192.9l-3.6-4.1M417 192.9l-3.6-4.1M413.4 192.9l-3.6-4.1M409.5 192.8l-3.5-4.1M405.7 192.8l-3.6-4.1M402.1 192.8l-3.6-4.1M398.2 193l-3.5-4.3M394.6 193l-3.8-4.4M390.8 193l-3.6-4.4M386.9 192.9l-3.5-4.3M383.3 192.9l-3.8-4.3M379.5 192.9l-3.6-4.1M375.9 192.9l-3.8-4.1M372 192.9l-3.5-4.1M368.2 192.8l-3.6-4.1M364.6 192.8l-3.8-4.1M360.7 193l-3.5-4.3M357.1 193l-3.8-4.3M353.2 193l-3.7-4.4M349.4 193l-3.6-4.4M345.8 192.9l-3.8-4.3M341.9 192.9l-3.1-3.8M420.9 192.9l3-2.7M416.5 192.8l4.9-4M412.2 192.8l4.8-4M407.9 193l4.8-4.3M403.5 192.9l4.9-4.2M399.2 192.8l4.9-4M394.9 192.8l4.8-4M390.5 192.9l4.9-4.2M386.2 192.9l4.9-4.2M381.9 192.8l4.8-4.2M377.8 193l4.6-4.2M373.5 193l4.6-4.3M369.1 192.9l4.9-4.2M364.8 192.8l4.9-4.2M360.5 193l4.8-4.2M356.1 192.9l4.9-4.2M351.8 192.9l4.9-4.2M347.5 192.8l4.8-4.2M343.1 193l4.9-4.5M338.8 192.9l4.9-4.2M338.8 189.1l.5-.5"/><path class="cls-20" d="M338.6 192.9h85.1M338.6 188.6l85.2.2M338.6 188.6l85.2.2M338.6 192.9h85.1M338.6 192.9v-4.3"/><path class="cls-33" d="M333.7 35.2v82.6l4.8-.2.3-82.3-5.1-.1"/><path class="cls-17" d="M333.7 38.4l3.6-3.2M334 42.2l4.8-4.2M333.9 46.3l4.9-4.5M333.9 50.2l4.8-4.3M333.8 54.3l5.2-4.5M333.8 58.1l5.1-4.2M333.8 62.2l5.1-4.2M333.7 66.3l5.1-4.5M333.9 70.1l4.9-4.2M333.9 74.2l4.9-4.4M333.8 78.1l4.9-4.3M333.8 82.2l4.9-4.3M333.8 86l4.8-4.2M333.7 90.1l5.1-4.2M333.9 94l4.9-4.3M333.9 98l4.9-4.2M333.9 102.1l4.8-4.4M333.8 106l4.9-4.3M333.8 110.1l4.8-4.3M333.7 113.9l4.9-4.2M334 117.8l4.6-4"/><path class="cls-33" d="M333.7 35.2v82.6l4.8-.2.3-82.3-5.1-.1"/><path class="cls-17" d="M333.7 38.4l3.6-3.2M334 42.2l4.8-4.2M333.9 46.3l4.9-4.5M333.9 50.2l4.8-4.3M333.8 54.3l5.2-4.5M333.8 58.1l5.1-4.2M333.8 62.2l5.1-4.2M333.7 66.3l5.1-4.5M333.9 70.1l4.9-4.2M333.9 74.2l4.9-4.4M333.8 78.1l4.9-4.3M333.8 82.2l4.9-4.3M333.8 86l4.8-4.2M333.7 90.1l5.1-4.2M333.9 94l4.9-4.3M333.9 98l4.9-4.2M333.9 102.1l4.8-4.4M333.8 106l4.9-4.3M333.8 110.1l4.8-4.3M333.7 113.9l4.9-4.2M334 117.8l4.6-4"/><path class="cls-20" d="M338.5 117.6l.3-82.3M333.7 117.8V35.2M338.8 35.3l-5.1-.1M333.7 117.8V35.2M338.5 117.6l.3-82.3"/><path class="cls-19" d="M234.8 267h17.3v78.9h-17.6l.3-78.9zM249.8 344.8l2.1-.1M249.6 336.3h2.4M249.9 319.3l2.1-.1M249.9 302.2l2.1.1M249.8 285.4l2.2-.1"/><path class="cls-33" d="M239.8 286.1h9.3c.1 0 .3 0 .4.1.1 0 .2.1.3.2.1 0 .2.2.3.2 0 0 .2.2.2.3 0 .1.1.2.2.3 0 .1 0 .2.1.4v11.6c0 .3 0 .5-.2.8-.1.2-.2.5-.4.6-.2.2-.4.3-.6.4-.2 0-.5.2-.8.1h-9.3c-.1 0-.3 0-.4-.1s-.2-.1-.3-.2c-.1 0-.2-.2-.3-.2 0 0-.2-.2-.2-.3 0-.1-.1-.2-.2-.3 0-.1 0-.2-.1-.4V288v-.4c0-.1 0-.3.1-.4 0-.1.1-.2.2-.3 0-.1.2-.2.2-.3 0 0 .2-.2.3-.2.1 0 .2-.1.3-.2.1 0 .2 0 .4-.1h.4"/><path class="cls-19" d="M239.8 286.1h9.3c.1 0 .3 0 .4.1.1 0 .2.1.3.2.1 0 .2.2.3.2 0 0 .2.2.2.3 0 .1.1.2.2.3 0 .1 0 .2.1.4v11.6c0 .3 0 .5-.2.8-.1.2-.2.5-.4.6-.2.2-.4.3-.6.4-.2 0-.5.2-.8.1h-9.3c-.1 0-.3 0-.4-.1s-.2-.1-.3-.2c-.1 0-.2-.2-.3-.2 0 0-.2-.2-.2-.3 0-.1-.1-.2-.2-.3 0-.1 0-.2-.1-.4V288v-.4c0-.1 0-.3.1-.4 0-.1.1-.2.2-.3 0-.1.2-.2.2-.3 0 0 .2-.2.3-.2.1 0 .2-.1.3-.2.1 0 .2 0 .4-.1h.4"/><path class="cls-33" d="M242.3 293.8c0-.6-.5-1.1-1.1-1.2s-1.2.4-1.3 1 .5 1.1 1.1 1.2 1.2-.4 1.3-1"/><path class="cls-19" d="M242.3 293.8c0-.6-.5-1.1-1.1-1.2s-1.2.4-1.3 1 .5 1.1 1.1 1.2 1.2-.4 1.3-1"/><path class="cls-33" d="M236 335.6l.1-15.8h14.4l.1 15.9-14.6-.1"/><path class="cls-19" d="M236 335.6l.1-15.8h14.4l.1 15.9-14.6-.1z"/><path class="cls-33" d="M248.7 332c.1-1.6-1.1-3-2.7-3.1s-3 1.1-3.1 2.7 1.1 3 2.7 3.1 3-1.1 3.1-2.7"/><path class="cls-19" d="M248.7 332c.1-1.6-1.1-3-2.7-3.1s-3 1.1-3.1 2.7 1.1 3 2.7 3.1 3-1.1 3.1-2.7"/><path class="cls-33" d="M241.2 332.9c0-1.2-.8-2.2-2-2.3s-2.2.8-2.3 2 .8 2.2 2 2.3 2.2-.8 2.3-2"/><path class="cls-19" d="M241.2 332.9c0-1.2-.8-2.2-2-2.3s-2.2.8-2.3 2 .8 2.2 2 2.3 2.2-.8 2.3-2"/><path class="cls-33" d="M248.1 324.3c0-1.2-.8-2.3-2-2.4s-2.2.9-2.3 2.1.8 2.3 2 2.4 2.2-.9 2.3-2.1"/><path class="cls-19" d="M248.1 324.3c0-1.2-.8-2.3-2-2.4s-2.2.9-2.3 2.1.8 2.3 2 2.4 2.2-.9 2.3-2.1"/><path class="cls-33" d="M242.3 324.6c.1-1.5-1.1-2.8-2.7-3s-3 1-3.1 2.6 1.1 2.8 2.7 3 3-1 3.1-2.6"/><path class="cls-19" d="M242.3 324.6c.1-1.5-1.1-2.8-2.7-3s-3 1-3.1 2.6 1.1 2.8 2.7 3 3-1 3.1-2.6"/><path class="cls-1" d="M244.8 267.2l-.2 78.7"/><path class="cls-19" d="M249.8 268.3l2.4-.1M315.1 319.3h.4v17.1l-.7-.1.3-17zM315.6 335.9l15.1-.1v.7l-15.2-.1.1-.5zM315.5 319.3l15.4.1v.5l-15.4.1v-.7zM315 344.8h.4l.2 1.2h-.7l.1-1.2z"/><path class="cls-19" d="M330.9 319.4h.5v16.9l-.7.2.2-17.1zM315 302.4l.5-.2v17.1h-.4l-.1-16.9z"/><path class="cls-19" d="M315.6 318.8l15.1-.1.2.7-15.4-.1.1-.5zM315.5 302.2l15.4.1v.5l-15.4.1v-.7z"/><path class="cls-19" d="M330.9 302.3l.5.1v17h-.5v-17.1zM315 285.3l.5.1v16.8l-.5.2v-17.1zM315.6 301.7l15.4.2-.1.4-15.4-.1.1-.5zM315.5 285.4l15.4-.1v.7l-15.4-.1v-.5z"/><path class="cls-19" d="M330.9 285.3h.5v17.1l-.5-.1v-17zM315 268.3h.5v17.1l-.5-.1v-17zM330.9 284.8v.5l-15.4.1.1-.7 15.3.1zM330.9 268.4v.5l-15.2-.1-.2-.5 15.4.1z"/><path class="cls-19" d="M330.9 268.4h.5v16.9h-.5v-16.9zM315.1 267.3l.5-.2-.1 1.2h-.5l.1-1zM315 344.8h.4l.1-8.4-.7-.1.2 8.5zM315.5 344.3l15.4.1-.1.5-15.4-.1.1-.5zM315.5 336.4l15.2.1.2.5-15.4-.1v-.5z"/><path class="cls-19" d="M330.8 344.9h.5l.1-8.6-.7.2.1 8.4z"/><path class="cls-33" d="M330.8 280.2l2.6-.1v-9.8H331l-.2 9.9"/><path class="cls-19" d="M330.8 280.2l2.6-.1v-9.8H331l-.2 9.9z"/><path class="cls-33" d="M330.8 280.4h.2v-10.3h-.2v10.3"/><path class="cls-19" d="M330.8 280.4h.2v-10.3h-.2v10.3z"/><path class="cls-21" d="M330.7 271l-8.4-.1"/><path class="cls-3" d="M330.8 279.5l-1.6-.1-1.7-.4-1.4-.8-1.4-1.1-1.1-1.3-.6-1.4-.6-1.8-.1-1.7"/><path class="cls-34" d="M247.1 18.6l-.4 5.3 3.6-3.4.1-1.7-3.3-.2"/><path class="cls-33" d="M247.1 18.6l-.4 5.3 3.6-3.4.1-1.7-3.3-.2"/><path class="cls-17" d="M247 22.9l.2.5M247.3 19.1l2 2.5"/><path class="cls-20" d="M250.3 20.5l.1-1.7M246.7 23.9l.4-5.3"/><path class="cls-19" d="M246.7 23.9l.4-5.3M250.3 20.5l.1-1.7"/><path class="cls-34" d="M250.3 20.5l-3.6 3.4 30.6-.1v-3.3h-27"/><path class="cls-33" d="M250.3 20.5l-3.6 3.4 30.6-.1v-3.3h-27"/><path class="cls-17" d="M247.2 23.4l.5.5M249.3 21.6l2 2.3M252.2 20.4l2.9 3.6M256.1 20.4l2.9 3.4M259.7 20.4l2.9 3.4M263.5 20.5l2.9 3.3M267.1 20.5l2.9 3.3M271 20.5l2.9 3.3M274.6 20.5l2.7 3.1"/><path class="cls-20" d="M277.3 20.5h-27M277.3 23.8l-30.6.1"/><path class="cls-19" d="M277.3 23.8l-30.6.1M277.3 20.5h-27"/><path class="cls-34" d="M277.4 24.6l-.1 5.5H240l6.2-5.6 31.2.1"/><path class="cls-33" d="M277.3 30.1l.1-5.5-31.2-.1-6.2 5.6h37.3"/><path class="cls-17" d="M240.5 29.7l.2.5M242.1 28.3l-.2 1.7M243.6 27l-.2 3.1M244.9 25.9l-.1 4.3M246.4 24.6l-.1 5.5M247.6 24.6l.1 5.6M249.1 24.5l.1 5.5M250.5 24.6l.1 5.5M251.9 24.5l.1 5.7M253.4 24.6l.1 5.5M254.8 24.7l-.1 5.5M256.3 24.5l-.2 5.6M257.7 24.6l-.1 5.6M259.2 24.5L259 30M260.4 24.6l.1 5.5M261.8 24.7l.1 5.5M263.3 24.5v5.6M264.7 24.6l.1 5.6M266.1 24.5l.1 5.5M267.6 24.6l.1 5.5M269 24.5l-.1 5.5M270.5 24.6l-.2 5.5M271.9 24.7l-.1 5.5M273.1 24.5l.1 5.5M274.6 24.6v5.5M276 24.5l.1 5.5M277.4 24.6l.1 3.1M277.4 24.6l-31.2-.1M277.3 30.1H240"/><path class="cls-19" d="M277.3 30.1H240M277.4 24.6l-31.2-.1"/><path class="cls-33" d="M239.6 35.4l29.2 2 .5 76.8-6-.4.2 6.7 2.4.2-.1 1 11.1.3-.3-92-36.6-.1.1-1.7"/><path class="cls-17" d="M276.7 31.5l-1.1-1.5M276.7 35.8l-4.9-5.9M276.8 40.2l-8.9-10.3M276.8 44.5l-12.5-14.6M276.7 48.8l-7.8-9M266.7 37.3l-6.2-7.4M276.9 53.2l-7.8-9M262.9 37l-6.3-7.2M276.8 57.5l-7.8-9M258.8 36.7l-5.8-6.6M276.8 61.8l-7.8-9M254.7 36.5l-5.5-6.5M276.7 66.1l-7.6-8.9M250.9 36.2l-5.6-6.2M276.9 70.5l-7.8-9M246.8 35.9l-5.1-5.9M276.8 74.8l-7.8-9M242.7 35.6l-2.6-3.3M276.8 79.1l-7.6-8.9M276.9 83.5l-7.8-9M276.9 87.8l-7.8-9M276.8 92.1l-7.5-8.9M277 96.5l-7.8-9M276.9 100.8l-7.5-9M276.9 105.1l-7.6-8.7M277 109.5l-7.8-8.8M277 113.8l-7.6-8.7M276.9 118.1l-7.6-8.7M276.6 121.9l-7.3-8.2M272.8 121.9l-6.9-7.9M269 121.7l-5.6-6.2M264 120.6l-.5-.5M273.5 122l3.6-3.1M269.5 121.7l7.4-6.5M266.1 121l10.8-9.6M263.6 119.4l13.3-11.6M263.4 115.7l2-1.8M269.3 110.6l7.6-6.7M269.3 106.8l7.7-6.7M269.3 103.1l7.7-6.6M269.3 99.3l7.7-6.7M269.3 95.7l7.5-6.7M269.4 91.8l7.4-6.6M269.2 88l7.6-6.5M269.2 84.4l7.7-6.7M269.2 80.5l7.7-6.4M269.2 76.9l7.7-6.7M269.2 73.1l7.7-6.7M269 69.4l7.7-6.6M269 65.6l7.7-6.7M269.1 62l7.6-6.7M269.1 58.1l7.7-6.6M269.1 54.5l7.7-6.6M269.1 50.7l7.7-6.7M268.9 47.1l7.9-6.9M268.9 43.2l7.7-6.7M268.9 39.6l7.7-6.9M267.2 37.3l8.4-7.3M263.1 37l8.2-7.1M259.3 36.8l7.7-6.7M255.2 36.5l7.4-6.5M251.1 36.2l7.2-6.2M247.1 35.9l6.9-6M243.2 35.6l6.4-5.8M239.9 34.9l5.4-4.9M240.2 30.9l1-.9"/><path class="cls-20" d="M239.6 35.4l29.2 2 .5 76.8-6-.4.2 6.7 2.4.2-.1 1 11.1.3-.3-92-36.6-.1.1-1.7"/><path class="cls-33" d="M7.3.1l6.8 9.4 54.3 3.8L76.2 5 7.3.1"/><path class="cls-17" d="M74.9 6.6l-1.5-1.8M72.9 8.6l-3.6-4.1M71 10.9l-5.8-6.7M69 12.9l-7.8-9M65.6 13.1l-8.3-9.5M61.5 12.8l-8.2-9.4M57.4 12.5l-8.2-9.4M53.6 12.3l-8.2-9.5M49.5 12l-8.2-9.5M45.5 11.7l-8.3-9.5M41.6 11.4L33.4 2M37.6 11.2l-8.3-9.5M33.5 10.9l-8.3-9.5M29.4 10.6l-8.2-9.5M25.6 10.3L17.3.8M21.5 10L13.3.6M17.4 9.8L9.2.3M66 13.2l9.5-8.3M62 12.9l9.5-8.3M57.9 12.6l9.5-8.3M54.1 12.3l9.5-8.2M50 12l9.5-8.2M45.9 11.7l9.5-8.2M41.9 11.5l9.4-8.3M38 11.2L47.5 3M34 10.9l9.4-8.2M29.9 10.6l9.5-8.2M26.1 10.4l9.4-8.3M22 10.1l9.5-8.3M17.9 9.8l9.5-8.3M14.1 9.3l9.5-8M12.3 7l7.2-6M10.8 4.7l4.6-4M9.1 2.4l2.3-2M7.5.2"/><path class="cls-33" d="M7.3.1l6.8 9.4 54.3 3.8L76.2 5 7.3.1"/><path class="cls-17" d="M74.9 6.6l-1.5-1.8M72.9 8.6l-3.6-4.1M71 10.9l-5.8-6.7M69 12.9l-7.8-9M65.6 13.1l-8.3-9.5M61.5 12.8l-8.2-9.4M57.4 12.5l-8.2-9.4M53.6 12.3l-8.2-9.5M49.5 12l-8.2-9.5M45.5 11.7l-8.3-9.5M41.6 11.4L33.4 2M37.6 11.2l-8.3-9.5M33.5 10.9l-8.3-9.5M29.4 10.6l-8.2-9.5M25.6 10.3L17.3.8M21.5 10L13.3.6M17.4 9.8L9.2.3M66 13.2l9.5-8.3M62 12.9l9.5-8.3M57.9 12.6l9.5-8.3M54.1 12.3l9.5-8.2M50 12l9.5-8.2M45.9 11.7l9.5-8.2M41.9 11.5l9.4-8.3M38 11.2L47.5 3M34 10.9l9.4-8.2M29.9 10.6l9.5-8.2M26.1 10.4l9.4-8.3M22 10.1l9.5-8.3M17.9 9.8l9.5-8.3M14.1 9.3l9.5-8M12.3 7l7.2-6M10.8 4.7l4.6-4M9.1 2.4l2.3-2M7.5.2"/><path class="cls-20" d="M76.2 5L7.3.1M68.4 13.3L14.1 9.5M68.4 13.3L14.1 9.5M76.2 5L7.3.1"/><path class="cls-34" d="M252.1 345.9l-.1 14.7-25-.1.1-14.7 25 .1"/><path class="cls-33" d="M252 360.6v-3.4l-25-.1v3.4l25 .1"/><path class="cls-17" d="M227.1 358.8l1.3 1.8M229.4 357.1l2.9 3.5M233 357.1l3.1 3.6M236.9 357.1l2.9 3.3M240.7 357.1l2.9 3.4M244.3 357.1l3.2 3.4M248.2 357.2l2.9 3.3M252 357.2l.2.3"/><path class="cls-33" d="M252 357.2l.1-.5H227v.4l25 .1M252.1 356.7l-.1-5.8h-25v5.8h25.1"/><path class="cls-17" d="M227.4 350.9l-.1 5.8M228.9 351l-.2 5.8M230.3 350.9l-.1 5.7M231.8 351l-.2 5.7M233 350.8l.1 5.8M234.4 350.9l.1 5.8M235.9 351v5.8M237.3 350.9l.1 5.8M238.7 351l.1 5.8M240.2 350.8l.1 5.8M241.6 350.9l-.1 5.8M243.1 351l-.2 5.8M244.5 350.9l-.1 5.8M245.7 351l.1 5.8M247.2 350.8v5.8M248.6 350.9l.1 5.8M250 351.1l.1 5.7M251.5 350.9l.1 5.8"/><path class="cls-33" d="M252 350.9l.1-5-25-.1-.1 5.1h25"/><path class="cls-17" d="M227 350.2l.7.7M227.3 346.1l4.2 4.9M230.9 345.9l4.2 5.1M234.5 345.9l4.5 5.1M238.4 345.9l4.4 5.1M242 345.9l4.4 5.1M245.8 345.9l4.5 5.2M249.7 346l2.4 2.8"/><path class="cls-20" d="M252 357.2l-25-.1M252 360.6l-25-.1"/><path class="cls-17" d="M252 350.9h-25M252.1 356.7H227"/><path class="cls-20" d="M252.1 345.9l-25-.1M252 350.9h-25"/><path class="cls-19" d="M252 360.6l-25-.1M252.1 345.9l-25-.1"/><path class="cls-34" d="M355.3 346.1l-.1 14.7-40.4-.2.1-14.6 40.4.1"/><path class="cls-33" d="M355.2 360.8v-3.4l-40.4-.1v3.3l40.4.2"/><path class="cls-17" d="M314.8 360.6h.3M315.8 357.3l3.1 3.4M319.6 357.4l2.9 3.3M323.5 357.4l2.9 3.3M327.1 357.4l3.1 3.3M330.9 357.4l2.9 3.4M334.8 357.5l2.9 3.3M338.4 357.5l3.1 3.3M342.2 357.5l2.9 3.3M346.1 357.5l2.9 3.4M349.7 357.5l3.1 3.4M353.5 357.3l1.8 2.1"/><path class="cls-33" d="M355.2 357.4l.1-.7-40.5.1v.5l40.4.1"/><path class="cls-33" d="M355.3 356.7l-.1-5.5-40.2-.2-.2 5.8 40.5-.1"/><path class="cls-17" d="M315.2 351l.1 5.8M316.7 351.1l.1 5.6M318.1 351l.1 5.8M319.6 351.1l-.2 5.8M321 351l-.1 5.7M322.5 351.1l-.2 5.7M323.7 351.1l.1 5.6M325.1 351l.1 5.8M326.5 351.1l.1 5.8M328 351l.1 5.7M329.4 351.1l.1 5.7M330.9 351.2l.1 5.5M332.3 351l-.1 5.8M333.8 351.1l-.2 5.6M335.2 351.2l-.1 5.6M336.7 351.1l-.2 5.8M337.8 351.2l.1 5.5M339.3 351l.1 5.8M340.7 351.1l.1 5.6M342.2 351.2l.1 5.6M343.6 351.1l.1 5.5M345.1 351.2l-.2 5.5M346.5 351.1l-.1 5.7M348 351.2l-.2 5.5M349.4 351.3l-.2 5.5M350.6 351.1l.1 5.5M352 351.2l.1 5.5M353.5 351.1l.1 5.7M354.9 351.2l.1 5.5"/><path class="cls-33" d="M355.2 351.2l.1-5.1-40.4-.1.1 5 40.2.2"/><path class="cls-17" d="M315 347.7l2.9 3.3M317.3 345.9l4.4 5.1M321.1 345.9l4.5 5.1M324.7 345.9l4.5 5.2M328.6 346l4.4 5.1M332.4 346l4.5 5.1M336 346l4.5 5.1M339.9 346l4.4 5.1M343.7 346.1l4.5 5.1M347.3 346.1l4.5 5.1M351.2 346.1l4 4.6M355 346.1l.5.5"/><path class="cls-20" d="M355.2 357.4l-40.4-.1M355.2 360.8l-40.4-.2"/><path class="cls-17" d="M355.2 351.2L315 351M355.3 356.7l-40.5.1"/><path class="cls-20" d="M355.3 346.1l-40.4-.1M355.2 351.2L315 351"/><path class="cls-19" d="M355.2 360.8l-40.4-.2M355.3 346.1l-40.4-.1"/><path class="cls-34" d="M430.6 346.1l-.1 14.7h-34.6v-14.7h34.7"/><path class="cls-33" d="M430.5 360.8v-3.4h-34.6v3.4h34.6"/><path class="cls-17" d="M396 358.9l1.8 1.8M398.5 357.3l2.9 3.4M402.4 357.4l2.9 3.3M406.2 357.4l2.9 3.3M409.8 357.4l2.9 3.3M413.7 357.4l2.9 3.4M417.3 357.5l3.1 3.3M421.1 357.5l2.9 3.3M425 357.5l2.9 3.3M428.6 357.5l2 2.1"/><path class="cls-33" d="M430.5 357.4l.1-.5h-34.7v.5h34.6M430.6 356.9l-.1-5.7h-34.4l-.2 5.7h34.7"/><path class="cls-17" d="M396 356l.1.9M397.5 351.3l-.2 5.7M399 351.1l-.2 5.8M400.4 351.2l-.2 5.8M401.9 351.1l-.2 5.7M403 351.2l.1 5.7M404.5 351.3l.1 5.7M405.9 351.1l.1 5.8M407.4 351.2l.1 5.8M408.8 351.1l.1 5.8M410.3 351.2v5.8M411.7 351.3l-.1 5.5M413.2 351.1l-.2 5.8M414.6 351.2l-.2 5.8M415.8 351.1l.1 5.8M417.2 351.2l.1 5.8M418.7 351.1l.1 5.7M420.1 351.2l.1 5.7M421.6 351.3v5.7M423 351.1l.1 5.8M424.5 351.2l-.2 5.8M425.9 351.1l-.2 5.7M427.3 351.2l-.1 5.7M428.5 351.3l.1 5.7M430 351.1l.1 5.8"/><path class="cls-33" d="M430.5 351.2l.1-5.1h-34.7l.2 5.1h34.4"/><path class="cls-17" d="M396.1 350.2l.9 1M396.2 346.1l4.4 5.1M400 346.1l4.5 5.2M403.9 346.2l4.2 5.1M407.5 346.2l4.5 4.9M411.3 346.2l4.5 4.9M414.9 346.2l4.5 4.9M418.8 346l4.5 5.1M422.7 346l4.2 5.1M426.3 346.1l4.2 4.8M430.1 346.1l.7.7"/><path class="cls-20" d="M430.5 357.4h-34.6M430.5 360.8h-34.6"/><path class="cls-17" d="M430.5 351.2h-34.4M430.6 356.9h-34.7"/><path class="cls-20" d="M430.6 346.1h-34.7M430.5 351.2h-34.4"/><path class="cls-19" d="M430.5 360.8h-34.6M430.6 346.1h-34.7M313.2 353.3l-.1 7.5 3.4-.1-.1 2-65.9-.3-.2-1.7h3.6l-.2-7.5"/><path class="cls-1" d="M314.9 346l-62.8-.1"/><path class="cls-20" d="M313.1 360.8l3.4-.1M253.9 360.7h-3.6"/><path class="cls-19" d="M314.8 353.4H252v-2.5l63 .1-.2 2.4zM311.2 353.4V351M255.7 353.4l-.1-2.4M315 351l-.2 2.4M296 351.1l.1 2.2M311.2 351v2.4M291.9 351.1l.1 2.2M296 351.1l.1 2.2M275.1 351.1l-.2 2.2M291.9 351.1l.1 2.2M271 351.1l-.2 2.1M275.1 351.1l-.2 2.2M255.6 351l.1 2.4M271 351.1l-.2 2.1M252 350.9v2.5"/><path class="cls-33" d="M314.9 356.8h-1.8v-3.4h1.8"/><path class="cls-17" d="M313.9 353.3v3.4M314.9 356.8h-1.8v-3.4h1.8"/><path class="cls-20" d="M315 351l-.1-5"/><path class="cls-33" d="M314.8 360.6l-1.7.2v-3.4l1.7-.1"/><path class="cls-17" d="M313.3 358.6l1.5 2"/><path class="cls-20" d="M314.8 360.6l-1.7.2v-3.4l1.7-.1M313.1 357.4l.1-4.1"/><path class="cls-33" d="M252 356.7h1.8v-3.4H252"/><path class="cls-17" d="M253 353.4v3.4M252 356.7h1.8v-3.4H252"/><path class="cls-20" d="M252 350.9l.1-5"/><path class="cls-33" d="M252 360.6l1.9.1v-3.4l-1.9-.1"/><path class="cls-17" d="M252.2 357.5l1.8 2.2"/><path class="cls-20" d="M252 360.6l1.9.1v-3.4l-1.9-.1M253.9 357.3l-.2-4.1"/><path class="cls-19" d="M394.2 353.4v7.5h3.4l-.2 1.9-43.8-.2-.1-1.9h3.4v-7.2"/><path class="cls-1" d="M395.9 346.1h-40.6"/><path class="cls-19" d="M355.8 346.2l-.5-.1"/><path class="cls-20" d="M394.2 360.9h3.4M356.9 360.7h-3.4"/><path class="cls-19" d="M395.9 353.6l-40.6-.2-.1-2.2h40.9l-.2 2.4zM392.3 353.5l-.1-2.4M358.9 353.4l-.1-2.2M396.1 351.2l-.2 2.4M377.6 351.1v2.4M392.2 351.1l.1 2.4M373.4 351.3l.1 2.1M377.6 351.1v2.4M358.8 351.2l.1 2.2M373.4 351.3l.1 2.1M355.2 351.2l.1 2.2"/><path class="cls-33" d="M396 356.9h-1.9l.1-3.4h1.8"/><path class="cls-17" d="M394.7 353.5v3.3M396 356.9h-1.9l.1-3.4h1.8"/><path class="cls-20" d="M396.1 351.2l-.2-5.1"/><path class="cls-33" d="M395.9 360.8l-1.7.1v-3.4l1.7-.1"/><path class="cls-17" d="M394.9 357.6l1.1 1.3"/><path class="cls-20" d="M395.9 360.8l-1.7.1v-3.4l1.7-.1M394.2 357.5v-4.1"/><path class="cls-33" d="M355.2 356.8h1.8v-3.4h-1.8"/><path class="cls-17" d="M356.5 353.4v3.4M355.2 356.8h1.8v-3.4h-1.8"/><path class="cls-20" d="M355.2 351.2l.1-5.1"/><path class="cls-33" d="M355.2 360.8l1.7-.1v-3.4l-1.7.1"/><path class="cls-17" d="M355.3 359.4l1.1 1.3"/><path class="cls-20" d="M355.2 360.8l1.7-.1v-3.4l-1.7.1M356.9 357.3v-3.8"/><path class="cls-17" d="M383.4 30.3v1.9c0 .6.2 1.2.3 1.8.1.6.3 1.2.5 1.8l.6 1.8c.2.6.5 1.1.8 1.7.3.5.6 1.1 1 1.6.3.5.7 1 1.1 1.5.4.5.8.9 1.3 1.4.4.4.9.9 1.4 1.3.5.4 1 .8 1.5 1.1s1 .7 1.6 1c.5.3 1.1.6 1.7.8l1.8.6c.6.2 1.2.3 1.8.5l1.8.3h1.9M402.5 49.4l-.1-19M383.4 30.3l-.1 1.4M383.2 33.2l-.1.9M383.1 34.1l-.3.5"/><path class="cls-10" d="M382.5 35.8l-.6 1.8"/><path class="cls-17" d="M381.3 38.8l-.2.5M381.1 39.3l-.3.7M380 41.1l-.8 1.2"/><path class="cls-12" d="M379.2 42.3l-1.3 1.3"/><path class="cls-17" d="M377.9 43.6l-.8.7M376.1 45.2l-1 .9"/><path class="cls-16" d="M375.1 46.1l-1.8 1"/><path class="cls-17" d="M373.3 47.1l-.7.2"/><path class="cls-11" d="M371.6 47.7l-1.7.7"/><path class="cls-17" d="M368.4 48.7l-.3.3M368.1 49l-.9.1M365.7 49.3l-1.2-.1"/><path class="cls-5" d="M364.5 49.2l-.1-19"/><path class="cls-17" d="M364.4 30.6v-.4M313.5 331c-11 0-20.1 9.1-20.2 20.1M313.5 330.9l.1 20.3"/><path class="cls-5" d="M273.3 331l3.9.3 3.7 1.2 3.5 1.7 3.2 2.6 2.4 3.1 2 3.5.9 3.7.5 3.9"/><path class="cls-13" d="M273.3 331l-.2 20"/><path class="cls-17" d="M375.6 351.2v-1.9c0-.6-.2-1.2-.3-1.8-.1-.6-.3-1.2-.5-1.8l-.6-1.8c-.2-.6-.5-1.1-.8-1.7-.3-.5-.6-1.1-1-1.6-.3-.5-.7-1-1.1-1.5-.4-.5-.8-.9-1.3-1.4-.4-.4-.9-.9-1.4-1.3-.5-.4-1-.8-1.5-1.1-.5-.3-1-.7-1.6-1-.5-.3-1.1-.6-1.7-.8l-1.8-.6c-.6-.2-1.2-.3-1.8-.5s-1.2-.2-1.8-.3h-1.9M356.7 332.3l-.1 18.7M375.6 351.2l.1-1.5M375.8 348.3l.1-.7M375.9 347.6l.3-.7"/><path class="cls-10" d="M376.5 345.7l.6-1.9"/><path class="cls-17" d="M377.7 342.7l.2-.5M377.9 342.2l.3-.7M379 340.3l.8-1.1"/><path class="cls-12" d="M379.8 339.2l1.3-1.4"/><path class="cls-17" d="M381.1 337.8l.8-.6M382.9 336.3l1-.9"/><path class="cls-16" d="M383.9 335.4l1.8-.8"/><path class="cls-17" d="M385.7 334.6l1-.5M387.9 333.5l1.3-.4"/><path class="cls-18" d="M389.2 333.1l1.7-.6"/><path class="cls-17" d="M390.9 332.5l1.2-.1M393.5 332.5l1-.2"/><path class="cls-5" d="M394.5 332.3l.1 19"/><path class="cls-17" d="M394.7 350.8l-.1.5"/><path class="cls-19" d="M434.8 477.6l-207.5-.3M227.3 471.6l207.3.3"/><path class="cls-17" d="M434.2 470.5l.3-1.2M434.5 469.3l-.4-1M434.1 468.3l-.2-.9M433.9 467.4l.3-1.2M434.2 466.2l.1-1M434.3 465.2l-.2-1M434.1 464.2l-.4-1.2M433.7 463l.3-.9M434 462.1l.1-1.2M434.1 460.9l-.2-1M433.9 459.9l-.4-1M433.5 458.9l.3-1.2M433.8 457.7l.4-.9M434.2 456.8l-.4-1.2M433.8 455.6l-.5-1M433.3 454.6l.4-1.2"/><g class="cls-22"><path class="cls-17" d="M433.7 453.4l.3-1M434 452.4l-.4-.9M433.6 451.5l-.4-1.3M433.2 450.2l.3-.9"/></g><g class="cls-23"><path class="cls-17" d="M433.7 453.4l-1-.1M432.7 453.3l-1.2.2M431.5 453.5l-1 .4M430.5 453.9l-1.2-.3"/></g><path class="cls-17" d="M429.3 453.6l-.9-.3M428.4 453.3l-1 .1M427.4 453.4l-1.2.4M426.2 453.8l-1-.3M425.2 453.5l-1.1-.3M424.1 453.2l-1 .2M423.1 453.4l-1 .4M422.1 453.8l-1.2-.3M420.9 453.5l-.9-.3M420 453.2l-1.3.3M418.7 453.5l-.9.2M417.8 453.7l-1.2-.3M416.6 453.4l-1-.3M415.6 453.1l-.9.4M414.7 453.5l-1.3.2M413.4 453.7l-.9-.1M412.5 453.6l-1.2-.3M411.3 453.3l-1 .1M410.3 453.4l-1 .5M409.3 453.9l-1.1-.4M408.2 453.5l-1-.3M407.2 453.2l-1.2.2M406 453.4l-1 .4M405 453.8l-1.2-.3M403.8 453.5l-.9-.3M402.9 453.2l-1 .4M401.9 453.6l-1.2.1M400.7 453.7l-1-.3M399.7 453.4l-1.1-.3M398.6 453.1l-1 .4M397.6 453.5l-1.2.2M396.4 453.7l-1-.3M395.4 453.4l-1.2-.4M394.2 453l-1 .4M393.2 453.4l-.9.2M392.3 453.6l-1.2-.1M391.1 453.5l-1-.3M390.1 453.2l-1.2.2M388.9 453.4l-1 .4M387.9 453.8l-.9-.3M387 453.5l-1.2-.3M385.8 453.2l-1 .1M384.8 453.3l-1.2.4M383.6 453.7l-.9-.3M382.7 453.4l-1.2-.3M381.5 453.1l-1 .4M380.5 453.5l-1 .2M379.5 453.7l-1.2-.3M378.3 453.4l-.9-.3M377.4 453.1l-1.2.4M376.2 453.5l-1 .1M375.2 453.6l-.9-.3M374.3 453.3l-1.2-.1M373.1 453.2l-1 .2M372.1 453.4l-1.3.4M370.8 453.8l-.9-.3M369.9 453.5l-1.2-.3M368.7 453.2l-.9.2M367.8 453.4l-1 .4M366.8 453.8l-1.2-.4M365.6 453.4l-1-.3M364.6 453.1l-1.2.2M363.4 453.3l-1 .4M362.4 453.7l-.9-.3M361.5 453.4l-1.2-.3M360.3 453.1l-1 .4M359.3 453.5l-1.2.1M358.1 453.6l-.9-.3M357.2 453.3l-1.2-.3M356 453l-1 .4M355 453.4l-1 .2M354 453.6l-1.2-.3M352.8 453.3l-.9-.1M351.9 453.2l-1.2.2M350.7 453.4l-1 .4M349.7 453.8l-1-.3M348.7 453.5l-1.1-.4M347.6 453.1l-1 .2M346.6 453.3l-1.2.4M345.4 453.7l-1-.3M344.4 453.4l-1.2-.3M343.2 453.1l-.9.2M342.3 453.3l-1 .4M341.3 453.7l-1.2-.4M340.1 453.3l-1-.3M339.1 453l-1.2.4M337.9 453.4l-1 .2M336.9 453.6l-.9-.3M336 453.3l-1.2-.3M334.8 453l-1 .4M333.8 453.4l-1.2.1M332.6 453.5h-.9M331.7 453.5l-1.2-.4M330.5 453.1l-1 .2M329.5 453.3l-1 .4M328.5 453.7l-1.2-.3M327.3 453.4l-.9-.3M326.4 453.1l-1.2.2M325.2 453.3l-1 .4M324.2 453.7l-1-.3M323.2 453.4l-1.1-.4M322.1 453l-1 .5M321.1 453.5l-1.2.1M319.9 453.6l-1-.3M318.9 453.3l-1.2-.3M317.7 453l-1 .4M316.7 453.4l-.9.2M315.8 453.6l-1.2-.4M314.6 453.2l-.9-.3M313.7 452.9l-1.3.4M312.4 453.3l-1 .2M311.4 453.5l-1.2-.1M310.2 453.4l-.9-.3M309.3 453.1l-1 .2M308.3 453.3l-1.2.4M307.1 453.7l-.9-.3M306.2 453.4l-1.2-.3M305 453.1l-1 .1M304 453.2l-1 .4M303 453.6l-1.2-.3M301.8 453.3l-.9-.3M300.9 453l-1.2.4M299.7 453.4l-1 .2M298.7 453.6l-1.2-.3M297.5 453.3l-.9-.4M296.6 452.9l-1 .5M295.6 453.4l-1.2.1M294.4 453.5l-1-.3M293.4 453.2l-1.2-.1M292.2 453.1l-.9.2M291.3 453.3l-1 .4M290.3 453.7l-1.2-.3M289.1 453.4l-1-.3M288.1 453.1l-1.2.1M286.9 453.2l-1 .4M285.9 453.6l-1.1-.3M284.8 453.3l-1-.3M283.8 453l-1 .2M282.8 453.2l-1.2.4M281.6 453.6l-.9-.3M280.7 453.3l-1.2-.3M279.5 453l-1 .4M278.5 453.4l-1 .1M277.5 453.5l-1.2-.3M276.3 453.2l-.9-.3M275.4 452.9l-1.2.4M274.2 453.3l-1 .2M273.2 453.5l-1.2-.3M272 453.2l-.9-.1M271.1 453.1l-1 .2M270.1 453.3l-1.2.4M268.9 453.7l-1-.4M267.9 453.3l-1.2-.3M266.7 453l-.9.2M265.8 453.2l-1 .4M264.8 453.6l-1.2-.3M263.6 453.3l-1-.3M262.6 453l-1.2.4M261.4 453.4l-1 .1M260.4 453.5l-1.1-.3M259.3 453.2l-1-.3M258.3 452.9l-1 .4M257.3 453.3l-1.2.2M256.1 453.5l-.9-.3M255.2 453.2l-1.2-.3M254 452.9l-1 .4M253 453.3l-1 .1M252 453.4h-1.2M250.8 453.4l-.9-.4M249.9 453l-1.2.2M248.7 453.2l-1 .4M247.7 453.6l-1.2-.3M246.5 453.3l-.9-.3M245.6 453l-1 .2M244.6 453.2l-1.2.4M243.4 453.6l-1-.4M242.4 453.2l-1.2-.3M241.2 452.9l-1 .4M240.2 453.3l-.9.2M239.3 453.5l-1.2-.3M238.1 453.2l-1-.3M237.1 452.9l-1.2.4M235.9 453.3l-1 .1M234.9 453.4l-1.1-.3M233.8 453.1h-1M232.8 453.1l-1 .1M231.8 453.2l-1.2.2M230.6 453.4l-.9-.1"/><g class="cls-26"><path class="cls-17" d="M229.7 453.3l-1.2-.3M228.5 453l-1 .2M227.5 453.2l-1.2.4M226.3 453.6l-1-.3"/></g><g class="cls-25"><path class="cls-17" d="M228.5 452l-.3 1.2M228.2 453.2l.4 1M228.6 454.2l.2 1.2M228.8 455.4l-.3 1"/></g><path class="cls-17" d="M228.5 456.4l-.1 1.2M228.4 457.6l.2.9M228.6 458.5l.4 1M229 459.5l-.3 1.2M228.7 460.7l-.3.9M228.4 461.6l.4 1.3M228.8 462.9l.1 1M228.9 463.9l-.3.9M228.6 464.8l-.1 1.2M228.5 466l.2 1M228.7 467l.4 1.2M229.1 468.2l-.3.9"/><g class="cls-24"><path class="cls-17" d="M228.8 469.1l-.3 1.2M228.5 470.3l.4 1M228.9 471.3l.2 1M229.1 472.3l-.4 1.2"/></g><g class="cls-30"><path class="cls-17" d="M227.8 470.3l.9.3M228.7 470.6l1.2-.4M229.9 470.2l1-.2M230.9 470l1.2.3"/></g><path class="cls-17" d="M232.1 470.3l.9.3M233 470.6l1-.4M234 470.2l1.2-.1M235.2 470.1h1M236.2 470.1l1.2.4M237.4 470.5l.9-.2M238.3 470.3l1-.4M239.3 469.9l1.2.3M240.5 470.2l1 .3M241.5 470.5l1.2-.2M242.7 470.3l1-.4M243.7 469.9l1.1.4M244.8 470.3l1 .3M245.8 470.6l1-.4M246.8 470.2l1.2-.2M248 470l.9.3M248.9 470.3l1.2.3M250.1 470.6l1-.4M251.1 470.2l1-.2M252.1 470l1.1.4M253.2 470.4h1M254.2 470.4l1.2-.1M255.4 470.3l1-.4M256.4 469.9l1.2.3M257.6 470.2l.9.3M258.5 470.5l1-.2M259.5 470.3l1.2-.4M260.7 469.9l1 .3M261.7 470.2l1.2.4M262.9 470.6l.9-.2M263.8 470.4l1-.4M264.8 470l1.2.3M266 470.3l.9.3M266.9 470.6l1.3-.4M268.2 470.2l1-.2M269.2 470l1.1.4M270.3 470.4l1 .3M271.3 470.7l1-.4M272.3 470.3l1.2-.2M273.5 470.1l.9.3M274.4 470.4l1.2.1M275.6 470.5l1-.2M276.6 470.3l1-.4M277.6 469.9l1.2.3M278.8 470.2l.9.3M279.7 470.5l1.2-.1M280.9 470.4l1-.4M281.9 470l1.2.3M283.1 470.3l.9.3M284 470.6l1-.4M285 470.2l1.2-.2M286.2 470l1 .3M287.2 470.3l1.2.4M288.4 470.7l.9-.5M289.3 470.2l1-.1M290.3 470.1l1.2.3M291.5 470.4l.9.3M292.4 470.7l1.3-.4M293.7 470.3l.9-.2M294.6 470.1l1.2.1M295.8 470.2l1 .3M296.8 470.5l1-.2M297.8 470.3l1.2-.3M299 470l.9.3M299.9 470.3l1.2.3M301.1 470.6l1-.2M302.1 470.4l1-.4M303.1 470l1.2.3M304.3 470.3l.9.3M305.2 470.6l1.2-.4M306.4 470.2l1-.1M307.4 470.1l1.2.3M308.6 470.4l.9.3M309.5 470.7l1-.4M310.5 470.3l1.2-.2M311.7 470.1l1 .3M312.7 470.4l1.2.1M313.9 470.5l.9-.2M314.8 470.3l1.3-.1M316.1 470.2l.9.1M317 470.3l1.2.3M318.2 470.6l1-.2M319.2 470.4l1-.4M320.2 470l1.1.3M321.3 470.3l1 .3M322.3 470.6l1.2-.1M323.5 470.5l1-.4M324.5 470.1l.9.3M325.4 470.4l1.2.3M326.6 470.7l1-.4M327.6 470.3l1.2-.2M328.8 470.1l1 .3M329.8 470.4l1.1.3M330.9 470.7l1-.4M331.9 470.3l1-.1M332.9 470.2l1.2.3M334.1 470.5h.9M335 470.5l1.2-.1M336.2 470.4l1-.4M337.2 470l1 .3M338.2 470.3l1.2.3M339.4 470.6l.9-.2M340.3 470.4l1.3-.4M341.6 470l.9.4M342.5 470.4l1.2.3M343.7 470.7l1-.2M344.7 470.5l1-.4M345.7 470.1l1.1.3M346.8 470.4l1 .3M347.8 470.7l1.2-.4M349 470.3l1-.1M350 470.2l.9.3M350.9 470.5l1.2.3M352.1 470.8l1-.4M353.1 470.4l1.2-.2M354.3 470.2l1 .1M355.3 470.3l1.1.3M356.4 470.6l1-.2M357.4 470.4l1-.4M358.4 470l1.2.3M359.6 470.3l.9.3M360.5 470.6l1.2-.1M361.7 470.5l1-.4M362.7 470.1l1 .3M363.7 470.4l1.2.3M364.9 470.7l.9-.4M365.8 470.3l1.3-.2M367.1 470.1l.9.3M368 470.4l1.2.4M369.2 470.8l1-.4M370.2 470.4l.9-.2M371.1 470.2l1.2.3M372.3 470.5l1 .3M373.3 470.8l1.2-.4M374.5 470.4l1-.1M375.5 470.3h.9M376.4 470.3l1.2.3M377.6 470.6l1-.1M378.6 470.5l1.2-.4M379.8 470.1l1 .3M380.8 470.4l1.1.3M381.9 470.7l1-.2M382.9 470.5l1-.4M383.9 470.1l1.2.3M385.1 470.4l.9.3M386 470.7l1.3-.3M387.3 470.4l.9-.2M388.2 470.2l1 .3M389.2 470.5l1.2.3M390.4 470.8l.9-.4M391.3 470.4l1.3-.2M392.6 470.2l.9.3M393.5 470.5l1.2.1M394.7 470.6l1-.1M395.7 470.5l1-.5M396.7 470l1.1.4M397.8 470.4l1 .3M398.8 470.7l1.2-.2M400 470.5l1-.4M401 470.1l1.2.3M402.2 470.4l.9.3M403.1 470.7l1-.1M404.1 470.6l1.2-.4M405.3 470.2l1 .3M406.3 470.5l1.1.3M407.4 470.8l1-.4M408.4 470.4l1-.2M409.4 470.2l1.2.3M410.6 470.5l.9.3M411.5 470.8l1.3-.3M412.8 470.5l.9-.2M413.7 470.3l1.2.3M414.9 470.6l1 .1M415.9 470.7l.9-.2M416.8 470.5l1.3-.4M418.1 470.1l.9.3M419 470.4l1.2.3M420.2 470.7l1-.1M421.2 470.6l1-.5M422.2 470.1l1.1.4M423.3 470.5l1 .3M424.3 470.8l1.2-.4M425.5 470.4l1-.2M426.5 470.2l1.2.3M427.7 470.5l.9.3M428.6 470.8l1-.4M429.6 470.4l1.2-.1M430.8 470.3l.9.3"/><g class="cls-29"><path class="cls-17" d="M431.7 470.6l1.2.3M432.9 470.9l1-.4M433.9 470.5l1-.2M434.9 470.3l1.2.1"/></g><path class="cls-19" d="M298.4 193.2l-.1 1.2M298.3 194.4l-.4 1.5M297.4 197.3v.2M296.8 198.9l-.6.7M296.2 199.6l-.8 1.1M295.4 200.7l-.2.5M292.8 203.4l-.2.3M292.6 203.7l-1.3.8M291.3 204.5l-.7.5M289.3 205.4l-.2.2M287.6 206l-.2-.1M287.4 205.9l-1.3.4M286.1 206.3h-1.2M283.5 206.4h-.2M283.3 206.4h-.3M281.8 206h-1.2M280.6 206l-1.4-.6M279.2 205.4h-.2M277.8 204.8l-.4-.3M276.2 204l-.7-.6M275.5 203.4l-.9-1M274.6 202.4l-.4-.3M273.3 200.9l-.2-.1M272.2 199.6l-.2-.5M272 199.1l-.7-1.3M271.3 197.8l-.4-.7M270.5 195.6l.1-.2M270.2 193.9l-.2-1.4M270 192.5l.1-1.2M270.2 189.8v-.2M270.6 188.2l.5-1M271.1 187.2l.4-1.4M271.5 185.8l.2-.2M272.5 184.2l.1-.2M273.6 182.8l.3-.4M273.9 182.4l1-.9M274.9 181.5l.7-.4M276.7 180.2l.2-.3M278.2 179.3h.2M278.4 179.3l1.3-.6M279.7 178.7l1.2-.4M282.3 178.2h.3M284 178l1.2.1M285.2 178.1l1.5.1M288.1 178.6h.2M289.7 179.2l1 .3M290.7 179.5l1.1.8M291.8 180.3l.5.2M293.4 181.3l.3.3M294.6 182.4l.4.5M295 182.9l.9 1M295.9 183.9l.4.8M297 185.9l.2.3M297.6 187.6l.2.1M297.8 187.7l.4 1.4M298.2 189.1l.1 1.2M298.5 191.8v.2"/><path class="cls-17" d="M234.1 441.8l-1-.5M233.1 441.3l-.9.2M232.2 441.5l-1.2.1M231 441.6l-1-.5M230 441.1l-.9-.8M229.1 440.3l-.9-.1M228.2 440.2l-1.2-.3M227 439.9l-.9-.5M226.1 439.4l-.4-1M225.7 438.4l-1.2-.6M224.5 437.8l-1-.3M223.5 437.5l-.6-1M222.9 436.5l-.4-1M222.5 435.5l-.9-.8M221.6 434.7l-.7-.5M220.9 434.2l-.4-1M220.5 433.2l-.2-1.2M220.3 432l-.6-.8M219.7 431.2l-.7-1M219 430.2l-.2-1M218.8 429.2l.4-1.2M219.2 428l-.5-.9M218.7 427.1l-.4-1M218.3 426.1l.1-1.2M218.4 424.9l.3-1M218.7 423.9l-.1-1M218.6 422.9l-.2-1.2M218.4 421.7l.5-.9M218.9 420.8l.6-.9M219.5 419.9l.1-1.2M219.6 418.7l.3-1M219.9 417.7l.5-.9M220.4 416.8l.8-.6M221.2 416.2l.6-1.2M221.8 415l.3-.9M222.1 414.1l.7-.7M222.8 413.4l1-.4M223.8 413l.8-.9M224.6 412.1l.6-1M225.2 411.1l.9-.4M226.1 410.7l1.3-.4M227.4 410.3l.7-.6M228.1 409.7l.8-.7M228.9 409l1-.2M229.9 408.8l1.2.1M231.1 408.9l1-.4M232.1 408.5l1-.7M233.1 407.8l1.2.1M234.3 407.9l.9.3M235.2 408.2l1-.1M236.2 408.1l1.2-.2M237.4 407.9l.9.3M238.3 408.2l1 .6M239.3 408.8h1.2M240.5 408.8l.9.1M241.4 408.9l1 .6M242.4 409.5l.9.7M243.3 410.2l.9.3M244.2 410.5l1.2.4M245.4 410.9l.6.7M246 411.6l.5 1M246.5 412.6l1.1.6M247.6 413.2l.9.5M248.5 413.7l.5 1M249 414.7l.4 1M249.4 415.7l.6 1M250 416.7l.7.8M250.7 417.5l.4 1M251.1 418.5l-.1.9M251 419.4l.7 1.1M251.7 420.5l.4.9M252.1 421.4l.2 1.3M252.3 422.7l-.4.9M251.9 423.6l.2 1M252.1 424.6l.4 1.2M252.5 425.8l-.3.9M252.2 426.7l-.5 1M251.7 427.7l.1 1.2M251.8 428.9v.9M251.8 429.8l-.6 1.2M251.2 431l-.8.7M250.4 431.7l-.1 1.2M250.3 432.9l-.3.9M250 433.8l-.8.9M249.2 434.7l-.7.4M248.5 435.1l-.6 1.2M247.9 436.3l-.5.9M247.4 437.2l-1 .7M246.4 437.9l-1 .2M245.4 438.1l-.8.9M244.6 439l-.8.9M243.8 439.9l-.9.1M242.9 440l-1 .2M241.9 440.2l-1 .7M240.9 440.9l-.8.6M240.1 441.5h-1.2M238.9 441.5l-.9-.1M238 441.4l-1.3.4M236.7 441.8l-1 .4M235.7 442.2l-.9-.3"/><g class="cls-27"><path class="cls-17" d="M234.8 441.9l-1.2-.3M233.6 441.6l-1 .4M232.6 442l-1.2.1M231.4 442.1l-.9-.3"/></g><path class="cls-8" d="M236 424.9c0-.4-.3-.7-.7-.8s-.7.3-.8.7.3.7.7.8.7-.3.8-.7"/><path class="cls-17" d="M232.3 412.4l-.9-.6M231.4 411.8l-1 .2M230.4 412l-1.2.1M229.2 412.1l-1-.5M228.2 411.6l-.9-.5M227.3 411.1l-1.2-.1M226.1 411l-.9-.3M225.2 410.7l-.9-.6M224.3 410.1l-.7-.8M223.6 409.3l-1.2-.3M222.4 409l-.9-.3M221.5 408.7l-.9-.8M220.6 407.9l-.4-1M220.2 406.9l-1-.5M219.2 406.4l-1.1-.6M218.1 405.8l-.4-1M217.7 404.8l-.5-.9M217.2 403.9l-.9-.8M216.3 403.1l-.6-.8M215.7 402.3l-.4-1M215.3 401.3l-.2-1M215.1 400.3l-.7-1M214.4 399.3l-.6-.7M213.8 398.6l-.2-1M213.6 397.6l.1-1.2M213.7 396.4l-.7-1M213 395.4l-.4-1M212.6 394.4l.1-1.2M212.7 393.2l.3-1M213 392.2l-.4-.9M212.6 391.3l-.2-1.3M212.4 390l.3-.9M212.7 389.1l.6-.9M213.3 388.2l-.2-1.2M213.1 387l-.1-1M213 386l.5-1.2M213.5 384.8l.8-.6M214.3 384.2l.1-1.2M214.4 383l.1-1.2M214.5 381.8l.7-.7M215.2 381.1l.8-.9M216 380.2l.3-1M216.3 379.2l.6-.9M216.9 378.3l.7-.9M217.6 377.4l1-.4M218.6 377l.6-.9M219.2 376.1l.5-.9M219.7 375.2l1-.7M220.7 374.5l1-.2M221.7 374.3l.8-.9M222.5 373.4l.8-.9M223.3 372.5l1-.2M224.3 372.3l.9-.1M225.2 372.2l1-.7M226.2 371.5l.8-.6M227 370.9l1.2-.2M228.2 370.7l1 .1M229.2 370.8l1-.4M230.2 370.4l1-.5M231.2 369.9l1.2.1M232.4 370l.9.3M233.3 370.3l1.2-.1M234.5 370.2l1-.4M235.5 369.8l1.2.3M236.7 370.1l.9.5M237.6 370.6l1 .1M238.6 370.7l1.2-.2M239.8 370.5l.9.6M240.7 371.1l.9.8M241.6 371.9h1M242.6 371.9l1.1.4M243.7 372.3l1 .5M244.7 372.8l.6 1M245.3 373.8l1 .3M246.3 374.1l.9.3M247.2 374.4l.9 1.1M248.1 375.5l.4.7M248.5 376.2l.9.8M249.4 377l1 .5M250.4 377.5l.4 1M250.8 378.5l.4 1M251.2 379.5l.6.8M251.8 380.3l1 .8M252.8 381.1l.4 1M253.2 382.1l-.1 1.2M253.1 383.3l.7.7M253.8 384l.6 1M254.4 385l.2 1M254.6 386l-.3 1.2M254.3 387.2l.4 1M254.7 388.2l.6 1M255.3 389.2l-.3 1.2M255 390.4l-.3.9M254.7 391.3l.1 1.2M254.8 392.5l.5 1M255.3 393.5l-.4 1M254.9 394.5l-.5 1.1M254.4 395.6l-.1 1M254.3 396.6l-.1 1.2M254.2 397.8l-.5.9M253.7 398.7l-.8.7M252.9 399.4l-.1 1.2M252.8 400.6l-.3 1.1M252.5 401.7l-.8.7M251.7 402.4l-.7.7M251 403.1l-.3.9M250.7 404l-.6 1.2M250.1 405.2l-.8.7M249.3 405.9l-1 .4M248.3 406.3l-.7.9M247.6 407.2l-.6.9M247 408.1l-1 .4M246 408.5l-1 .4M245 408.9l-.7.7M244.3 409.6l-.8.9M243.5 410.5l-1.2.2M242.3 410.7l-1 .1M241.3 410.8l-1 .4M240.3 411.2l-1 .7M239.3 411.9l-1 .2M238.3 412.1l-1.2-.4M237.1 411.7l-1 .4M236.1 412.1l-.9.5M235.2 412.6l-1.2-.1"/><g class="cls-28"><path class="cls-17" d="M234 412.5l-1-.3M233 412.2l-1 .1M232 412.3l-1.2.4M230.8 412.7l-.9-.3"/></g><path class="cls-8" d="M234.5 391.2c0-.3-.3-.6-.7-.6s-.7.2-.8.5.3.6.7.6.7-.2.8-.5"/><path class="cls-17" d="M421 442.2l-1.2-.6M419.8 441.6l-1 .2M418.8 441.8l-1.2.1M417.6 441.9l-.9-.5M416.7 441.4l-.9-.8M415.8 440.6l-1-.1M414.8 440.5l-1.1-.3M413.7 440.2l-.7-.8M413 439.4l-.7-.7M412.3 438.7l-1.1-.6M411.2 438.1l-1-.3M410.2 437.8l-.6-1M409.6 436.8l-.4-1M409.2 435.8l-.7-.8M408.5 435l-.9-.5M407.6 434.5l-.4-1.2M407.2 433.3l-.2-1M407 432.3l-.7-1M406.3 431.3l-.6-.8M405.7 430.5l-.2-1.2M405.5 429.5l.3-1.2M405.8 428.3l-.4-.9M405.4 427.4l-.4-1M405 426.4l.1-1.2M405.1 425.2l.3-1M405.4 424.2l-.2-1.2M405.2 423l-.1-1M405.1 422l.5-.9M405.6 421.1l.6-.9M406.2 420.2l.3-1.2M406.5 419l.1-.9M406.6 418.1l.5-1M407.1 417.1l1-.6M408.1 416.5l.3-1.2M408.4 415.3l.3-.9M408.7 414.4l.8-.7M409.5 413.7l1-.7M410.5 413l.8-.6M411.3 412.4l.5-1M411.8 411.4l1-.6M412.8 410.8l1.2-.2M414 410.6l.8-.6M414.8 410l.8-.7M415.6 409.3l1.2-.2M416.8 409.1l1 .1M417.8 409.2l1-.6M418.8 408.6l1-.5M419.8 408.1l1.2.1M421 408.2l.9.3M421.9 408.5l1-.1M422.9 408.4l1.2-.2M424.1 408.2l.9.3M425 408.5l.9.6M425.9 409.1h1.2M427.1 409.1l1 .1M428.1 409.2l.9.6M429 409.8l.9.7M429.9 410.5l1 .3M430.9 410.8l1.2.4M432.1 411.2l.6.7M432.7 411.9l.7 1M433.4 412.9l.9.6M434.3 413.5l.9.5M435.2 414l.4 1M435.6 415l.4 1M436 416l.7.8M436.7 416.8l.9.8M437.6 417.6l.2 1.2M437.8 418.8l-.1.9M437.7 419.7l.7 1.1M438.4 420.8l.4.9M438.8 421.7l.1 1M438.9 422.7l-.3 1.2M438.6 423.9l.4 1M439 424.9l.2 1.2M439.2 426.1l-.3.9M438.9 427l-.6 1M438.3 428l.2 1.2M438.5 429.2l-.1.9M438.4 430.1l-.5 1M437.9 431.1l-.6.9M437.3 432l-.3 1.2M437 433.2l-.3.9M436.7 434.1l-.8.9M435.9 435l-.7.4M435.2 435.4l-.6 1.2M434.6 436.6l-.5.9M434.1 437.5l-1 .7M433.1 438.2l-1 .2M432.1 438.4l-.8.9M431.3 439.3l-.6.9M430.7 440.2l-1.2.1M429.5 440.3l-.9.2M428.6 440.5l-1.1.7M427.5 441.2l-.7.6M426.8 441.8h-1.2M425.6 441.8l-1-.1M424.6 441.7l-1.2.4M423.4 442.1l-1 .2M422.4 442.3l-.9-.1"/><g class="cls-31"><path class="cls-17" d="M421.5 442.2l-1.2-.3M420.3 441.9l-1 .1M419.3 442l-1.2.4M418.1 442.4l-1-.3"/></g><path class="cls-8" d="M422.7 425.2c0-.4-.2-.7-.5-.8s-.6.3-.6.7.2.7.5.8.6-.3.6-.7"/><path class="cls-17" d="M422.1 412.6l-.9-.5M421.2 412.1l-1 .2M420.2 412.3l-1.2.1M419 412.4l-1-.5M418 411.9l-.9-.6M417.1 411.3l-1.2-.1M415.9 411.2l-.9-.3M415 410.9l-.9-.5M414.1 410.4l-.7-.8M413.4 409.6l-1.2-.3M412.2 409.3l-.9-.3M411.3 409l-.9-.8M410.4 408.2l-.4-1M410 407.2l-1-.5M409 406.7l-.9-.6M408.1 406.1l-.6-1M407.5 405.1l-.5-1M407 404.1l-.9-.8M406.1 403.3l-.6-.7M405.5 402.6l-.4-1M405.1 401.6l-.2-1M404.9 400.6l-.7-1M404.2 399.6l-.6-.8M403.6 398.8l-.2-1.2M403.4 397.9l.1-1.2M403.5 396.7l-.4-1M403.1 395.7l-.7-1M402.4 394.7l.1-1.2M402.5 393.5l.3-1M402.8 392.5l-.2-.9M402.6 391.6l-.4-1.3M402.2 390.3l.3-.9M402.5 389.4l.6-.9M403.1 388.5l-.2-1.3M402.9 387.2l.1-.9M403 386.3l.3-1.2M403.3 385.1l.8-.7M404.1 384.4l.1-1.2M404.2 383.2l.1-1.2M404.3 382l.7-.6M405 381.4l.8-.9M405.8 380.5l.3-1M406.1 379.5l.6-.9M406.7 378.6l.7-.9M407.4 377.7l1-.4M408.4 377.3l.6-.9M409 376.4l.5-1M409.5 375.4l1-.6M410.5 374.8l1-.4M411.5 374.4l.8-.7M412.3 373.7l.8-.9M413.1 372.8l1-.2M414.1 372.6l.9-.1M415 372.5l1-.7M416 371.8l.8-.7M416.8 371.1l1.2-.1M418 371h1M419 371l1-.4M420 370.6l1-.4M421 370.2l1.2.1M422.2 370.3l1.1.3M423.3 370.6l1-.4M424.3 370.2l1-.2M425.3 370l1.2.4M426.5 370.4l.9.5M427.4 370.9l1 .1M428.4 371l1.2-.2M429.6 370.8l.9.6M430.5 371.4l.9.8M431.4 372.2h1M432.4 372.2l1.2.3M433.6 372.5l.9.6M434.5 373.1l.6 1M435.1 374.1l1 .3M436.1 374.4l1.1.3M437.2 374.7l.7 1M437.9 375.7l.4.8M438.3 376.5l.9.8M439.2 377.3l1 .5M440.2 377.8l.6 1M440.6 378.8l.4 1M441 379.8l.9.8M441.9 380.6l.7.8M442.6 381.4l.4.9M443 382.3l-.1 1.2M442.9 383.5l.7.8M443.6 384.3l.6 1M444.2 385.3l.2 1M444.4 386.3l-.3 1.2M444.1 387.5l.6 1M444.7 388.5l.4 1M445.1 389.5l-.3 1.2M444.8 390.7l-.3.9M444.5 391.6l.4 1.2M444.9 392.8l.2 1M445.1 393.8l-.3.9M444.8 394.7l-.6 1M444.2 395.7l-.1 1.2M444.1 396.9l-.1 1.2M444 398.1l-.5.9M443.5 399l-.5.7M443 399.7l-.4 1.1M442.6 400.8l-.3 1M442.3 401.8l-.5.9M441.8 402.7l-1 .7M440.8 403.4l-.3.9M440.5 404.3l-.6 1.2M439.9 405.5l-.8.6M439.1 406.1l-.9.4M438.2 406.5l-.8 1M437.4 407.5l-.6.9M436.8 408.4l-1 .4M435.8 408.8l-1 .4M434.8 409.2l-.7.7M434.1 409.9l-.8.9M433.3 410.8l-1.2.1M432.1 410.9h-1M431.1 410.9l-1 .6M430.1 411.5l-.8.7M429.3 412.2l-1.2.1M428.1 412.3l-1.2-.3M426.9 412l-.9.4M426 412.4l-1 .4M425 412.8h-1"/><g class="cls-32"><path class="cls-17" d="M424 412.8l-1.2-.3M422.8 412.5l-1 .1M421.8 412.6l-1.2.4M420.6 413l-.9-.3"/></g><path class="cls-8" d="M424.3 391.5c0-.3-.3-.6-.7-.6s-.7.2-.8.5.3.6.7.6.7-.2.8-.5"/><path class="cls-33" d="M234.5 118.8l-7.2-.5-.3 232.6h7.2l.3-232.1"/><path class="cls-17" d="M234.6 121.2l-2.2-2.6M234.5 125.5l-6.2-7.2M234.7 129.8l-7.3-8.2M234.7 134.2l-7.2-8.2M234.6 138.5l-7.1-8.2M234.5 142.8l-7.1-8.2M234.7 147.2l-7.4-8.2M234.6 151.5l-7.1-8.2M234.6 155.8l-7.1-8.2M234.5 160.1l-7.1-8.2M234.5 164.5l-7.1-8.5M234.6 168.8l-7.3-8.4M234.6 173.1l-7.1-8.4M234.5 177.2l-7.1-8.2M234.5 181.6l-7.2-8.2M234.6 185.9l-7.3-8.2M234.6 190.2l-7.1-8.2M234.5 194.5l-7.1-8.2M234.5 198.9l-7.2-8.2M234.6 203.2l-7.3-8.2M234.6 207.5l-7.4-8.2M234.5 211.9l-7.1-8.2M234.5 216.2l-7.2-8.2M234.4 220.5l-7.1-8.2M234.6 224.9l-7.4-8.5M234.5 229.2l-7.1-8.4M234.4 233.5l-7.1-8.4M234.4 237.8l-7.1-8.4M234.6 241.9l-7.4-8.2M234.5 246.3l-7.4-8.2M234.5 250.6l-7.2-8.2M234.4 254.9l-7.1-8.2M234.3 259.3l-7.1-8.2M234.5 263.6l-7.4-8.2M234.4 267.9l-7.1-8.2M234.4 272.2l-7.1-8.2M234.3 276.6l-7.1-8.2M234.5 280.9l-7.4-8.2M234.4 285.2l-7.1-8.4M234.4 289.6l-7.1-8.5M234.3 293.9l-7.1-8.4M234.3 298.2l-7.2-8.4M234.4 302.3l-7.3-8.2M234.4 306.6l-7.1-8.1M234.3 311l-7.1-8.2M234.3 315.3l-7.2-8.2M234.4 319.6l-7.3-8.2M234.4 324l-7.2-8.2M234.3 328.3l-7.1-8.2M234.3 332.6l-7.2-8.2M234.4 337l-7.3-8.2M234.4 341.3l-7.4-8.5M234.3 345.6l-7.1-8.4M234.2 349.9l-7.1-8.4M231.5 351l-4.4-5.2M227.7 350.9l-.7-.7M230.6 350.9l3.8-3.3M227 350.2l7.2-6.3M227 346.3l7.2-6.2M227.1 342.5l7.1-6.3M227.1 338.9l7.2-6.3M227.1 335l7.2-6.2M227.1 331.4l7.2-6.5M227.1 327.6l7.2-6.3M227.2 323.7l7.1-6.2M227.2 320.1l7.2-6.5M227.2 316.3l7.2-6.3M227.2 312.4l7.2-6.2M227.3 308.8l7.1-6.2M227 304.9l7.5-6.2M227.1 301.1l7.4-6.2M227.1 297.5l7.4-6.2M227.1 293.6l7.2-6.2M227.1 290l7.2-6.5M227.2 286.2l7.1-6.3M227.2 282.3l7.2-6.2M227.2 278.7l7.2-6.5M227.2 274.9l7.2-6.3M227.3 271l7.1-6.2M227.3 267.4l7.1-6.2M227.3 263.6l7.2-6.3M227.3 259.7l7.2-6.2M227.3 256.1l7.2-6.2M227.4 252.3l7.1-6.3M227.1 248.6l7.5-6.4M227.2 244.8l7.4-6.2M227.2 240.9l7.2-6.2M227.2 237.3l7.2-6.4M227.2 233.5l7.2-6.2M227.3 229.6l7.1-6.2M227.3 226l7.1-6.2M227.3 222.2l7.2-6.2M227.3 218.3l7.2-6.2M227.3 214.7l7.2-6.2M227.4 210.9l7.1-6.2M227.4 207.3l7.2-6.5M227.4 203.4l7.2-6.2M227.4 199.6l7.2-6.3M227.4 196l7.2-6.3M227.2 192.1l7.4-6.2M227.3 188.3l7.4-6.3M227.3 184.7l7.1-6.3M227.3 180.8l7.2-6.2M227.3 177l7.2-6.3M227.3 173.4l7.2-6.3M227.4 169.5l7.1-6.2M227.4 165.9l7.2-6.5M227.4 162.1l7.2-6.3M227.4 158.2l7.2-6.2M227.5 154.6l7.1-6.2M227.5 150.7l7.2-6.2M227.5 146.9l7.2-6.2M227.5 143.3l7.2-6.2M227.5 139.4l7.2-6.2M227.3 135.6l7.5-6.2M227.4 132l7.1-6.3M227.4 128.1l7.2-6.2M227.4 124.5l6.7-5.8M227.4 120.7l2.6-2.3"/><path class="cls-33" d="M234.5 118.8l-7.2-.5-.3 232.6h7.2l.3-232.1"/><path class="cls-17" d="M234.6 121.2l-2.2-2.6M234.5 125.5l-6.2-7.2M234.7 129.8l-7.3-8.2M234.7 134.2l-7.2-8.2M234.6 138.5l-7.1-8.2M234.5 142.8l-7.1-8.2M234.7 147.2l-7.4-8.2M234.6 151.5l-7.1-8.2M234.6 155.8l-7.1-8.2M234.5 160.1l-7.1-8.2M234.5 164.5l-7.1-8.5M234.6 168.8l-7.3-8.4M234.6 173.1l-7.1-8.4M234.5 177.2l-7.1-8.2M234.5 181.6l-7.2-8.2M234.6 185.9l-7.3-8.2M234.6 190.2l-7.1-8.2M234.5 194.5l-7.1-8.2M234.5 198.9l-7.2-8.2M234.6 203.2l-7.3-8.2M234.6 207.5l-7.4-8.2M234.5 211.9l-7.1-8.2M234.5 216.2l-7.2-8.2M234.4 220.5l-7.1-8.2M234.6 224.9l-7.4-8.5M234.5 229.2l-7.1-8.4M234.4 233.5l-7.1-8.4M234.4 237.8l-7.1-8.4M234.6 241.9l-7.4-8.2M234.5 246.3l-7.4-8.2M234.5 250.6l-7.2-8.2M234.4 254.9l-7.1-8.2M234.3 259.3l-7.1-8.2M234.5 263.6l-7.4-8.2M234.4 267.9l-7.1-8.2M234.4 272.2l-7.1-8.2M234.3 276.6l-7.1-8.2M234.5 280.9l-7.4-8.2M234.4 285.2l-7.1-8.4M234.4 289.6l-7.1-8.5M234.3 293.9l-7.1-8.4M234.3 298.2l-7.2-8.4M234.4 302.3l-7.3-8.2M234.4 306.6l-7.1-8.1M234.3 311l-7.1-8.2M234.3 315.3l-7.2-8.2M234.4 319.6l-7.3-8.2M234.4 324l-7.2-8.2M234.3 328.3l-7.1-8.2M234.3 332.6l-7.2-8.2M234.4 337l-7.3-8.2M234.4 341.3l-7.4-8.5M234.3 345.6l-7.1-8.4M234.2 349.9l-7.1-8.4M231.5 351l-4.4-5.2M227.7 350.9l-.7-.7M230.6 350.9l3.8-3.3M227 350.2l7.2-6.3M227 346.3l7.2-6.2M227.1 342.5l7.1-6.3M227.1 338.9l7.2-6.3M227.1 335l7.2-6.2M227.1 331.4l7.2-6.5M227.1 327.6l7.2-6.3M227.2 323.7l7.1-6.2M227.2 320.1l7.2-6.5M227.2 316.3l7.2-6.3M227.2 312.4l7.2-6.2M227.3 308.8l7.1-6.2M227 304.9l7.5-6.2M227.1 301.1l7.4-6.2M227.1 297.5l7.4-6.2M227.1 293.6l7.2-6.2M227.1 290l7.2-6.5M227.2 286.2l7.1-6.3M227.2 282.3l7.2-6.2M227.2 278.7l7.2-6.5M227.2 274.9l7.2-6.3M227.3 271l7.1-6.2M227.3 267.4l7.1-6.2M227.3 263.6l7.2-6.3M227.3 259.7l7.2-6.2M227.3 256.1l7.2-6.2M227.4 252.3l7.1-6.3M227.1 248.6l7.5-6.4M227.2 244.8l7.4-6.2M227.2 240.9l7.2-6.2M227.2 237.3l7.2-6.4M227.2 233.5l7.2-6.2M227.3 229.6l7.1-6.2M227.3 226l7.1-6.2M227.3 222.2l7.2-6.2M227.3 218.3l7.2-6.2M227.3 214.7l7.2-6.2M227.4 210.9l7.1-6.2M227.4 207.3l7.2-6.5M227.4 203.4l7.2-6.2M227.4 199.6l7.2-6.3M227.4 196l7.2-6.3M227.2 192.1l7.4-6.2M227.3 188.3l7.4-6.3M227.3 184.7l7.1-6.3M227.3 180.8l7.2-6.2M227.3 177l7.2-6.3M227.3 173.4l7.2-6.3M227.4 169.5l7.1-6.2M227.4 165.9l7.2-6.5M227.4 162.1l7.2-6.3M227.4 158.2l7.2-6.2M227.5 154.6l7.1-6.2M227.5 150.7l7.2-6.2M227.5 146.9l7.2-6.2M227.5 143.3l7.2-6.2M227.5 139.4l7.2-6.2M227.3 135.6l7.5-6.2M227.4 132l7.1-6.3M227.4 128.1l7.2-6.2M227.4 124.5l6.7-5.8M227.4 120.7l2.6-2.3"/><path class="cls-20" d="M234.2 350.9l.3-232.1M227 350.9l.3-232.6M227 350.9l.3-232.6M234.2 350.9l.3-232.1M234.2 350.9H227"/><path class="cls-33" d="M430.5 351.2h-7l.5-320.7h7l-.5 320.7"/><path class="cls-17" d="M431.1 31.9l-1.3-1.5M431.1 36.3l-4.9-5.9M431 40.6l-6.9-8.2M431.2 44.9l-7.1-8.2M431.2 49l-7-7.9M431.1 53.4l-6.9-8M431 57.7l-6.9-8M431 62l-6.9-7.9M431.1 66.3l-7.1-7.9M431.1 70.7l-6.9-8M431 75l-6.9-7.9M431 79.3l-6.9-7.9M431.1 83.7l-7.1-8M431.1 88l-6.9-7.9M431 92.3l-6.9-8.2M431 96.6l-6.9-8.1M430.9 101l-6.9-8.2M431.1 105.3l-7.2-8.2M431 109.4l-6.9-7.9M431 113.7l-6.9-7.9M430.9 118.1l-6.9-8M431.1 122.4l-7.2-8M431 126.7l-6.9-7.9M431 131.1l-7-8M430.9 135.4l-6.9-8M430.8 139.7l-6.9-7.9M431 144l-7.1-7.9M430.9 148.4l-6.9-8M430.9 152.7l-6.9-8.2M430.8 157l-6.9-8.2M431 161.4l-7.1-8.2M431 165.5l-7-8M430.9 169.8l-6.9-8M430.8 174.1l-6.9-7.9M431 178.5l-7.1-8M430.9 182.8l-7.1-8M430.9 187.1l-6.9-7.9M430.8 191.4l-6.9-7.9M430.8 195.8l-6.9-8M430.9 200.1l-7.1-8M430.9 204.4l-6.9-7.9M430.8 208.8l-6.9-8.2M430.7 213.1l-6.8-8.2M430.9 217.4l-7.1-8.2M430.9 221.7l-7.2-8.1M430.8 225.8l-6.9-7.9M430.8 230.2l-6.9-8M430.7 234.5l-6.9-8M430.9 238.8l-7.2-7.9M430.8 243.2l-6.9-8M430.7 247.5l-6.9-8M430.7 251.8l-6.9-7.9M430.9 256.2l-7.2-8M430.8 260.5l-7.1-8M430.7 264.8l-6.9-7.9M430.7 269.1l-6.9-8.1M430.6 273.5l-6.9-8.2M430.8 277.8l-7.1-8.2M430.7 282.1l-6.9-8.2M430.7 286.2l-6.9-7.9M430.6 290.5l-6.9-7.9M430.8 294.9l-7.1-8M430.7 299.2l-7.1-7.9M430.7 303.5l-6.9-7.9M430.6 307.9l-6.9-8M430.6 312.2l-6.9-8M430.7 316.5l-7.1-7.9M430.7 320.9l-6.9-8M430.6 325.2l-6.9-8M430.5 329.5l-6.8-8.2M430.7 333.9l-7.1-8.2M430.7 338.2l-6.9-8.2M430.6 342.5l-6.9-8.2M430.6 346.6l-6.9-7.9M430.5 350.9l-6.9-7.9M426.9 351.1l-3.4-3.8M429 351.1l1.6-1.4M424.7 351.2l5.9-5.3M423.7 348.3l6.9-6M423.7 344.4l6.9-6M423.7 340.8l7-6.2M423.5 337l7.2-6M423.6 333.1l7.1-6M423.6 329.5l7.1-6M423.6 325.7l7.2-6M423.6 322l6.9-6.2M423.6 318.2l7-6M423.7 314.4l6.9-6.1M423.7 310.7l6.9-6.2M423.7 306.9l6.9-6M423.7 303l7-6M423.7 299.4l7-6.2M423.8 295.6l6.9-6M423.8 291.7l6.9-6M423.8 288.1l6.9-6M423.8 284.3l7-6M423.6 280.7l7.2-6.3M423.6 276.8l7.2-6M423.7 273l7.1-6M423.7 269.4l7.2-6.3M423.7 265.5l6.9-6M423.7 261.7l7-6M423.8 258.1l6.9-6.3M423.8 254.2l6.9-6M423.8 250.4l6.9-6M423.8 246.8l6.9-6.1M423.9 242.9l6.9-6M423.9 239.3l6.9-6.2M423.9 235.5l6.9-6.1M423.9 231.6l6.9-6M423.9 228l7-6.3M423.7 224.1l7.2-6M423.7 220.3l7.2-6M423.8 216.7l7.1-6.3M423.8 212.8l7.1-6M423.8 209l6.9-6M423.8 205.4l6.9-6M423.9 201.5l6.9-6M423.9 197.9l6.9-6.2M423.9 194.1l6.9-6M423.9 190.2l6.9-6M423.9 186.6l7-6.2M424 182.8l6.9-6M424 178.9l6.9-6M424 175.3l6.9-6.2M424 171.5l7-6M423.8 167.6l7.2-6M423.8 164l7.2-6M423.9 160.2l7.1-6M423.9 156.5l7.1-6.2M423.9 152.7l6.9-6M423.9 148.8l6.9-6M423.9 145.2l7-6.2M424 141.4l6.9-6M424 137.5l6.9-6M424 133.9l6.9-6.2M424 130.1l7-6M424.1 126.2l6.9-6M424.1 122.6l6.9-6M424.1 118.8l6.9-6M423.9 115.2l7.2-6.3M423.9 111.3l7.2-6M423.9 107.5l7.2-6M424 103.9l7.1-6.3M424 100l7.1-6M424 96.2l6.9-6M424 92.6l7-6.3M424 88.7l7-6M424.1 84.9l6.9-6.1M424.1 81.3l6.9-6.1M424.1 77.4l6.9-6M424.1 73.8l7-6.3M424.2 70l6.9-6.1M424.2 66.1l6.9-6M424.2 62.5l6.9-6.3M424 58.6l7.1-6M424 54.8l7.2-6M424 51.2l7.2-6.3M424.1 47.3l7.1-6M424.1 43.5l6.9-6M424.1 39.9l6.9-6M424.1 36l6.4-5.5M424.1 32.4l2.1-2"/><path class="cls-33" d="M423.5 351.2h7l.5-320.7h-7l-.5 320.7"/><path class="cls-17" d="M431.1 31.9l-1.3-1.5M431.1 36.3l-4.9-5.9M431 40.6l-6.9-8.2M431.2 44.9l-7.1-8.2M431.2 49l-7-7.9M431.1 53.4l-6.9-8M431 57.7l-6.9-8M431 62l-6.9-7.9M431.1 66.3l-7.1-7.9M431.1 70.7l-6.9-8M431 75l-6.9-7.9M431 79.3l-6.9-7.9M431.1 83.7l-7.1-8M431.1 88l-6.9-7.9M431 92.3l-6.9-8.2M431 96.6l-6.9-8.1M430.9 101l-6.9-8.2M431.1 105.3l-7.2-8.2M431 109.4l-6.9-7.9M431 113.7l-6.9-7.9M430.9 118.1l-6.9-8M431.1 122.4l-7.2-8M431 126.7l-6.9-7.9M431 131.1l-7-8M430.9 135.4l-6.9-8M430.8 139.7l-6.9-7.9M431 144l-7.1-7.9M430.9 148.4l-6.9-8M430.9 152.7l-6.9-8.2M430.8 157l-6.9-8.2M431 161.4l-7.1-8.2M431 165.5l-7-8M430.9 169.8l-6.9-8M430.8 174.1l-6.9-7.9M431 178.5l-7.1-8M430.9 182.8l-7.1-8M430.9 187.1l-6.9-7.9M430.8 191.4l-6.9-7.9M430.8 195.8l-6.9-8M430.9 200.1l-7.1-8M430.9 204.4l-6.9-7.9M430.8 208.8l-6.9-8.2M430.7 213.1l-6.8-8.2M430.9 217.4l-7.1-8.2M430.9 221.7l-7.2-8.1M430.8 225.8l-6.9-7.9M430.8 230.2l-6.9-8M430.7 234.5l-6.9-8M430.9 238.8l-7.2-7.9M430.8 243.2l-6.9-8M430.7 247.5l-6.9-8M430.7 251.8l-6.9-7.9M430.9 256.2l-7.2-8M430.8 260.5l-7.1-8M430.7 264.8l-6.9-7.9M430.7 269.1l-6.9-8.1M430.6 273.5l-6.9-8.2M430.8 277.8l-7.1-8.2M430.7 282.1l-6.9-8.2M430.7 286.2l-6.9-7.9M430.6 290.5l-6.9-7.9M430.8 294.9l-7.1-8M430.7 299.2l-7.1-7.9M430.7 303.5l-6.9-7.9M430.6 307.9l-6.9-8M430.6 312.2l-6.9-8M430.7 316.5l-7.1-7.9M430.7 320.9l-6.9-8M430.6 325.2l-6.9-8M430.5 329.5l-6.8-8.2M430.7 333.9l-7.1-8.2M430.7 338.2l-6.9-8.2M430.6 342.5l-6.9-8.2M430.6 346.6l-6.9-7.9M430.5 350.9l-6.9-7.9M426.9 351.1l-3.4-3.8M429 351.1l1.6-1.4M424.7 351.2l5.9-5.3M423.7 348.3l6.9-6M423.7 344.4l6.9-6M423.7 340.8l7-6.2M423.5 337l7.2-6M423.6 333.1l7.1-6M423.6 329.5l7.1-6M423.6 325.7l7.2-6M423.6 322l6.9-6.2M423.6 318.2l7-6M423.7 314.4l6.9-6.1M423.7 310.7l6.9-6.2M423.7 306.9l6.9-6M423.7 303l7-6M423.7 299.4l7-6.2M423.8 295.6l6.9-6M423.8 291.7l6.9-6M423.8 288.1l6.9-6M423.8 284.3l7-6M423.6 280.7l7.2-6.3M423.6 276.8l7.2-6M423.7 273l7.1-6M423.7 269.4l7.2-6.3M423.7 265.5l6.9-6M423.7 261.7l7-6M423.8 258.1l6.9-6.3M423.8 254.2l6.9-6M423.8 250.4l6.9-6M423.8 246.8l6.9-6.1M423.9 242.9l6.9-6M423.9 239.3l6.9-6.2M423.9 235.5l6.9-6.1M423.9 231.6l6.9-6M423.9 228l7-6.3M423.7 224.1l7.2-6M423.7 220.3l7.2-6M423.8 216.7l7.1-6.3M423.8 212.8l7.1-6M423.8 209l6.9-6M423.8 205.4l6.9-6M423.9 201.5l6.9-6M423.9 197.9l6.9-6.2M423.9 194.1l6.9-6M423.9 190.2l6.9-6M423.9 186.6l7-6.2M424 182.8l6.9-6M424 178.9l6.9-6M424 175.3l6.9-6.2M424 171.5l7-6M423.8 167.6l7.2-6M423.8 164l7.2-6M423.9 160.2l7.1-6M423.9 156.5l7.1-6.2M423.9 152.7l6.9-6M423.9 148.8l6.9-6M423.9 145.2l7-6.2M424 141.4l6.9-6M424 137.5l6.9-6M424 133.9l6.9-6.2M424 130.1l7-6M424.1 126.2l6.9-6M424.1 122.6l6.9-6M424.1 118.8l6.9-6M423.9 115.2l7.2-6.3M423.9 111.3l7.2-6M423.9 107.5l7.2-6M424 103.9l7.1-6.3M424 100l7.1-6M424 96.2l6.9-6M424 92.6l7-6.3M424 88.7l7-6M424.1 84.9l6.9-6.1M424.1 81.3l6.9-6.1M424.1 77.4l6.9-6M424.1 73.8l7-6.3M424.2 70l6.9-6.1M424.2 66.1l6.9-6M424.2 62.5l6.9-6.3M424 58.6l7.1-6M424 54.8l7.2-6M424 51.2l7.2-6.3M424.1 47.3l7.1-6M424.1 43.5l6.9-6M424.1 39.9l6.9-6M424.1 36l6.4-5.5M424.1 32.4l2.1-2"/><path class="cls-20" d="M430.5 351.2l.5-320.7M423.8 188.8l.2-158.3M423.5 351.2l.2-158.3M431 30.5h-7M423.8 188.8l.2-158.3M430.5 351.2l.5-320.7M423.5 351.2l.2-158.3M430.5 351.2h-7"/><path class="cls-19" d="M311.9 364.8v10.3l-37.1.1v-10.4"/><path class="cls-19" d="M290.5 367.6l2.8-2.7 3 2.9-5.8-.2zM311.9 364.8h-37.1"/><path class="cls-33" d="M232.8 116.4l1.7 5.4v-1.1h2.2l.1-8.8"/><path class="cls-17" d="M237 115.1l-1.6-1.6M236.9 119.6l-3.4-3.8M234.6 121.2l-.2-.3M236.1 120.6l.8-.7M233.8 119l3.1-2.7M234.8 114.2l2.1-1.8"/><path class="cls-20" d="M234.5 121.8v-1.1h2.2l.1-8.8"/></g><g id="Mbel"><path class="cls-2" transform="rotate(-89.9 407.945 158.833)" d="M379.7 144.6h56.8V173h-56.8z"/><path class="cls-2" d="M360.1 87.6l.1-11.3 7.5-.2.1 11.6-7.7-.1z"/><path class="cls-2" d="M340.2 104.5V59.3l20-.1v45.3h-20zM406.8 95l.1-56.8 15.4.1.1 56.8-15.6-.1zM273 166.7l22.7-.1-.2 51-22.7.1.2-51zM305.5 216.3v-12.7M297 216.3h8.5M305.5 203.6l-8.5-.1M305.5 198.6v-12.8M297 198.6h8.5M305.5 185.8H297M305.5 180.9l.1-12.8M297 180.8l8.5.1M305.6 168.1h-8.5M263 216.2v-12.7M271.5 216.3l-8.5-.1M263 203.5h8.5M263 198.5v-12.7M271.5 198.5H263M263 185.8h8.5M263 180.8V168M271.5 180.8H263M263 168l8.5.1M365.9 266l56.8.2v45.2l-56.8-.1V266zM339.9 194.2l56.8.1-.1 15.7-56.6-.1-.1-15.7zM402.3 238.4c3.8-1.3 7.4-2.9 11-4.8.8-.4 1.3-1.4 1.3-2.3-.3-3.2-1.4-6.3-3.3-8.9-.6-.8-1.5-1.1-2.5-.9-3.9.9-7.7 2.2-11.4 3.7 0 .8.2 1.5.5 2.1 1 3.1 2.2 6.2 3.5 9.2.3.6.6 1.2 1 1.8h.1"/><path class="cls-2" d="M403.5 238.4c.3.2.6.3.9.3 1.5.2 3.1 0 4.5-.6 1.9-.8 3.7-1.7 5.4-2.9 1.2-.8 2.4-1.7 3.3-2.8.6-.6.8-1.5.7-2.3-.4-3.4-1.7-6.6-3.5-9.4-.5-.7-1.2-1.2-2.1-1.3-1.5-.2-2.9-.1-4.4 0-2 .3-4 .8-6 1.5-1.4.5-2.7 1.3-3.8 2.5-.2.3-.4.5-.5.9"/></g><g id="Text"><path d="M371.2 244v.6h-3.8l3-4.8h-2.7v-.6h3.8l-3 4.8h2.7zM373 239.9c0 .2-.2.4-.4.4s-.4-.2-.4-.4.2-.4.4-.4.4.2.4.4zm0 4.7h-.6v-3.7h.6v3.7zM374.9 240.9v.5c.3-.4.6-.6 1-.6s.8.2 1 .7c.3-.5.6-.7 1.2-.7s.7.1.9.4c.2.2.2.4.2 1v2.4h-.6v-2.2c0-.4 0-.6-.1-.7-.1-.2-.4-.3-.6-.3-.5 0-.8.4-.8 1v2.2h-.6v-2.2c0-.4 0-.5-.1-.7-.1-.2-.3-.3-.6-.3-.5 0-.9.4-.9 1v2.2h-.6v-3.7h.6zM381.2 240.9v.5c.3-.4.6-.6 1-.6s.8.2 1 .7c.3-.5.6-.7 1.2-.7s.7.1.9.4c.2.2.2.4.2 1v2.4h-.6v-2.2c0-.4 0-.6-.1-.7-.1-.2-.4-.3-.6-.3-.5 0-.8.4-.8 1v2.2h-.6v-2.2c0-.4 0-.5-.1-.7-.1-.2-.3-.3-.6-.3-.5 0-.9.4-.9 1v2.2h-.6v-3.7h.6zM387.3 243c0 .3 0 .5.2.7.2.3.6.5 1 .5s.9-.2 1.1-.6l.5.2c-.3.6-.9 1-1.6 1-1.1 0-1.9-.8-1.9-1.9s.8-1.9 1.9-1.9 1.9.8 1.9 1.9v.2h-3.1zm2.4-.4c0-.3 0-.4-.2-.6-.2-.3-.6-.5-1-.5s-.8.2-1 .5c-.1.2-.2.3-.2.6h2.4zM392.1 240.9v.6c.1-.3.2-.4.3-.5.2-.1.4-.2.7-.2h.1v.6h-.2c-.3 0-.6.2-.8.4-.2.2-.2.4-.2.9v1.9h-.6v-3.7h.6zM368.2 250v-.6l1.8-1.2v5.4h-.6v-4.4l-1.2.8zM372.7 250.5c.2 0 .3-.1.5-.1.9 0 1.6.7 1.6 1.6s-.8 1.7-1.7 1.7-1.7-.8-1.7-1.7.1-.7.4-1.2l1.5-2.5h.7l-1.4 2.1zm-.7 1.5c0 .6.5 1.1 1.1 1.1s1.1-.5 1.1-1.1-.5-1.1-1.1-1.1-1.1.5-1.1 1.1zM376.7 253.3c0 .2-.2.4-.4.4s-.4-.2-.4-.4.2-.4.4-.4.4.2.4.4zM378 248.9v-.6h3l-1.6 2c.9 0 1.6.7 1.6 1.6s-.8 1.7-1.8 1.7-1.4-.5-1.6-1.3h.6c.1.4.5.7 1 .7s1.2-.5 1.2-1.1-.5-1.1-1.2-1.1-.4 0-.6.2l-.3-.2 1.5-1.9h-1.9zM384.4 249.9v.5c.3-.4.6-.6 1-.6s.8.2 1 .7c.3-.5.6-.7 1.2-.7s.7.1.9.4c.2.2.2.4.2 1v2.4h-.6v-2.2c0-.4 0-.6-.1-.7-.1-.2-.4-.3-.6-.3-.5 0-.8.4-.8 1v2.2h-.6v-2.2c0-.4 0-.5-.1-.7-.1-.2-.3-.3-.6-.3-.5 0-.9.4-.9 1v2.2h-.6v-3.7h.6zM392 251.1v.4h-2l1.2-1.6c.3-.5.4-.6.4-.8 0-.3-.2-.4-.5-.4s-.5.2-.5.6h-.4c0-.6.4-1 1-1s1 .3 1 .8-.1.5-.4.9l-.8 1.1h1.1z"/><g><path d="M371.2 110.1v.6h-3.8l3-4.8h-2.7v-.6h3.8l-3 4.8h2.7zM373 106c0 .2-.2.4-.4.4s-.4-.2-.4-.4.2-.4.4-.4.4.2.4.4zm0 4.7h-.6V107h.6v3.7zM374.9 107v.5c.3-.4.6-.6 1-.6s.8.2 1 .7c.3-.5.6-.7 1.2-.7s.7.1.9.4c.2.2.2.4.2 1v2.4h-.6v-2.2c0-.4 0-.6-.1-.7-.1-.2-.4-.3-.6-.3-.5 0-.8.4-.8 1v2.2h-.6v-2.2c0-.4 0-.5-.1-.7-.1-.2-.3-.3-.6-.3-.5 0-.9.4-.9 1v2.2h-.6V107h.6zM381.2 107v.5c.3-.4.6-.6 1-.6s.8.2 1 .7c.3-.5.6-.7 1.2-.7s.7.1.9.4c.2.2.2.4.2 1v2.4h-.6v-2.2c0-.4 0-.6-.1-.7-.1-.2-.4-.3-.6-.3-.5 0-.8.4-.8 1v2.2h-.6v-2.2c0-.4 0-.5-.1-.7-.1-.2-.3-.3-.6-.3-.5 0-.9.4-.9 1v2.2h-.6V107h.6zM387.3 109.1c0 .3 0 .5.2.7.2.3.6.5 1 .5s.9-.2 1.1-.6l.5.2c-.3.6-.9 1-1.6 1-1.1 0-1.9-.8-1.9-1.9s.8-1.9 1.9-1.9 1.9.8 1.9 1.9v.2h-3.1zm2.4-.4c0-.3 0-.4-.2-.6-.2-.3-.6-.5-1-.5s-.8.2-1 .5c-.1.2-.2.3-.2.6h2.4zM392.1 107v.6c.1-.3.2-.4.3-.5.2-.1.4-.2.7-.2h.1v.6h-.2c-.3 0-.6.2-.8.4-.2.2-.2.4-.2.9v1.9h-.6V107h.6zM368.2 116.1v-.6l1.8-1.2v5.4h-.6v-4.4l-1.2.8zM372.7 116.6c.2 0 .3-.1.5-.1.9 0 1.6.7 1.6 1.6s-.8 1.7-1.7 1.7-1.7-.8-1.7-1.7.1-.7.4-1.2l1.5-2.5h.7l-1.4 2.1zm-.7 1.5c0 .6.5 1.1 1.1 1.1s1.1-.5 1.1-1.1-.5-1.1-1.1-1.1-1.1.5-1.1 1.1zM376.7 119.4c0 .2-.2.4-.4.4s-.4-.2-.4-.4.2-.4.4-.4.4.2.4.4zM378 115v-.6h3l-1.6 2c.9 0 1.6.7 1.6 1.6s-.8 1.7-1.8 1.7-1.4-.5-1.6-1.3h.6c.1.4.5.7 1 .7s1.2-.5 1.2-1.1-.5-1.1-1.2-1.1-.4 0-.6.2l-.3-.2 1.5-1.9h-1.9zM384.4 116v.5c.3-.4.6-.6 1-.6s.8.2 1 .7c.3-.5.6-.7 1.2-.7s.7.1.9.4c.2.2.2.4.2 1v2.4h-.6v-2.2c0-.4 0-.6-.1-.7-.1-.2-.4-.3-.6-.3-.5 0-.8.4-.8 1v2.2h-.6v-2.2c0-.4 0-.5-.1-.7-.1-.2-.3-.3-.6-.3-.5 0-.9.4-.9 1v2.2h-.6V116h.6zM392 117.2v.4h-2l1.2-1.6c.3-.5.4-.6.4-.8 0-.3-.2-.4-.5-.4s-.5.2-.5.6h-.4c0-.6.4-1 1-1s1 .3 1 .8-.1.5-.4.9l-.8 1.1h1.1z"/></g><g><path d="M275.5 301.4h-.7v-5.3h.7v2.5l2.1-2.5h.8l-2.2 2.6 2.2 2.7h-.9l-2-2.5v2.5zM282.5 299.5c0 1.1-.8 1.9-1.9 1.9s-1.9-.8-1.9-1.9.8-1.9 1.9-1.9 1.9.8 1.9 1.9zm-3.1 0c0 .8.5 1.4 1.3 1.4s1.2-.6 1.2-1.4-.5-1.4-1.2-1.4-1.3.6-1.3 1.4zM286.5 300.9c-.4.4-.8.5-1.4.5-1.1 0-1.8-.8-1.8-1.9s.8-1.9 1.8-1.9 1 .2 1.3.6l-.4.4c-.3-.3-.6-.4-.9-.4-.7 0-1.2.6-1.2 1.4s.5 1.4 1.2 1.4.6-.1.9-.4l.4.4zM288 298.2c.3-.4.7-.6 1.1-.6s.7.1.9.3c.2.2.3.5.3 1v2.5h-.6V299c0-.5-.2-.8-.7-.8s-.5.1-.7.3c-.2.2-.2.4-.2.7v2.2h-.6v-5.3h.6v2.2zM292 299.7c0 .3 0 .5.2.7.2.3.6.5 1 .5s.9-.2 1.1-.6l.5.2c-.3.6-.9 1-1.6 1-1.1 0-1.9-.8-1.9-1.9s.8-1.9 1.9-1.9 1.9.8 1.9 1.9v.2H292zm2.4-.4c0-.3 0-.4-.2-.6-.2-.3-.6-.5-1-.5s-.8.2-1 .5c-.1.2-.2.3-.2.6h2.4zM296.8 297.7v.5c.3-.4.6-.6 1.1-.6s.6.1.9.3c.2.2.3.5.3 1v2.5h-.6V299c0-.3 0-.5-.1-.6-.1-.2-.3-.2-.6-.2s-.5.1-.7.3c-.2.2-.2.4-.2.7v2.2h-.6v-3.7h.6zM275 306.8v-.6l1.8-1.2v5.4h-.6V306l-1.2.8zM281.7 308.8c0 .6-.1 1-.4 1.2-.3.3-.7.4-1.2.4s-1-.2-1.2-.5c-.3-.3-.4-.6-.4-1.4v-1.8c0-.7 0-1 .3-1.3.3-.3.7-.5 1.2-.5s.9.1 1.2.4c.3.3.4.6.4 1.2v2.1zm-2.5-.1c0 .6 0 .7.2.9.2.2.5.3.8.3s.6-.1.8-.4c.1-.2.2-.4.2-.8v-2c0-.4 0-.6-.3-.8-.2-.2-.4-.2-.7-.2s-.6.1-.8.4c-.1.2-.2.4-.2.8v1.8zM283.7 310c0 .2-.2.4-.4.4s-.4-.2-.4-.4.2-.4.4-.4.4.2.4.4zM287.7 309.8v.6h-3l1.9-2.7c.5-.8.7-1 .7-1.3 0-.5-.4-.8-.9-.8s-.7.2-.8.4v.6h-.6c0-1 .6-1.6 1.5-1.6s1.5.5 1.5 1.3-.2.8-.6 1.5l-1.4 2h1.9zM292.2 306.7v.5c.3-.4.6-.6 1-.6s.8.2 1 .7c.3-.5.6-.7 1.2-.7s.7.1.9.4c.2.2.2.4.2 1v2.4h-.6v-2.2c0-.4 0-.6-.1-.7-.1-.2-.4-.3-.6-.3-.5 0-.8.4-.8 1v2.2h-.6v-2.2c0-.4 0-.5-.1-.7-.1-.2-.3-.3-.6-.3-.5 0-.9.4-.9 1v2.2h-.6v-3.7h.6zM299.7 307.9v.4h-2l1.2-1.6c.3-.5.4-.6.4-.8 0-.3-.2-.4-.5-.4s-.5.2-.5.6h-.4c0-.6.4-1 1-1s1 .3 1 .8-.1.5-.4.9l-.8 1.1h1.1z"/></g><g><path d="M282.5 144.5h2.1v.6h-2.1v1.8h2.1v.6h-2.8v-5.3h2.8v.6h-2.1v1.8zM287.5 144.8c0-.4-.3-.6-.7-.6s-.7.2-.7.5.2.4.8.6c.5.1.7.2.9.4.2.2.3.4.3.7 0 .6-.5 1.1-1.3 1.1s-1.3-.4-1.4-1.1h.6c0 .4.3.6.8.6s.7-.2.7-.5-.2-.5-.8-.6c-.8-.2-1.2-.6-1.2-1.1s.5-1.1 1.3-1.1 1.3.4 1.3 1.1h-.6zM291.1 144.8c0-.4-.3-.6-.7-.6s-.7.2-.7.5.2.4.8.6c.5.1.7.2.9.4.2.2.3.4.3.7 0 .6-.5 1.1-1.3 1.1s-1.3-.4-1.4-1.1h.6c0 .4.3.6.8.6s.7-.2.7-.5-.2-.5-.8-.6c-.8-.2-1.2-.6-1.2-1.1s.5-1.1 1.3-1.1 1.3.4 1.3 1.1h-.6zM293.2 145.9c0 .3 0 .5.2.7.2.3.6.5 1 .5s.9-.2 1.1-.6l.5.2c-.3.6-.9 1-1.6 1-1.1 0-1.9-.8-1.9-1.9s.8-1.9 1.9-1.9 1.9.8 1.9 1.9v.2h-3.1zm2.4-.4c0-.3 0-.4-.2-.6-.2-.3-.6-.5-1-.5s-.8.2-1 .5c-.1.2-.2.3-.2.6h2.4zM298 143.8v.5c.3-.4.6-.6 1.1-.6s.6.1.9.3c.2.2.3.5.3 1v2.5h-.6v-2.4c0-.3 0-.5-.1-.6-.1-.2-.3-.2-.6-.2s-.5.1-.7.3c-.2.2-.2.4-.2.7v2.2h-.6v-3.7h.6zM282.1 152.9v-.6l1.8-1.2v5.4h-.6v-4.4l-1.2.8zM285.5 151.9v-.6h3l-2.1 5.3h-.7l1.9-4.7h-2zM289.6 156.2c0 .2-.2.4-.4.4s-.4-.2-.4-.4.2-.4.4-.4.4.2.4.4zM293.7 155.9v.6h-3l1.9-2.7c.5-.8.7-1 .7-1.3 0-.5-.4-.8-.9-.8s-.7.2-.8.4v.6h-.6c0-1 .6-1.6 1.5-1.6s1.5.5 1.5 1.3-.2.8-.6 1.5l-1.4 2h1.9zM298.1 152.8v.5c.3-.4.6-.6 1-.6s.8.2 1 .7c.3-.5.6-.7 1.2-.7s.7.1.9.4c.2.2.2.4.2 1v2.4h-.6v-2.2c0-.4 0-.6-.1-.7-.1-.2-.4-.3-.6-.3-.5 0-.8.4-.8 1v2.2h-.6v-2.2c0-.4 0-.5-.1-.7-.1-.2-.3-.3-.6-.3-.5 0-.9.4-.9 1v2.2h-.6v-3.7h.6zM305.7 154v.4h-2l1.2-1.6c.3-.5.4-.6.4-.8 0-.3-.2-.4-.5-.4s-.5.2-.5.6h-.4c0-.6.4-1 1-1s1 .3 1 .8-.1.5-.4.9l-.8 1.1h1.1z"/></g><g><path d="M283.8 418.4c0 .6.4.9.9.9s1-.4 1-.9-.2-.7-1.1-1c-.6-.2-.8-.3-1.1-.5-.3-.2-.4-.6-.4-1 0-.9.6-1.5 1.6-1.5s1.6.6 1.6 1.5h-.7c0-.3 0-.4-.1-.6-.2-.2-.4-.4-.8-.4-.5 0-.9.4-.9.9s.1.5.3.6c.2.1.3.2.9.4.6.2.8.3 1.1.6.2.2.4.6.4.9 0 .9-.7 1.5-1.7 1.5s-1.1-.2-1.4-.7c-.1-.2-.2-.4-.2-.7h.6zM288.3 415.1c0 .2-.2.4-.4.4s-.4-.2-.4-.4.2-.4.4-.4.4.2.4.4zm0 4.7h-.6v-3.7h.6v3.7zM290.2 419.1c0 .2 0 .2.3.2h.3v.5h-.6c-.4 0-.6-.2-.6-.6v-2.6h-.5v-.5h.5v-1.2h.6v1.2h.6v.5h-.6v2.4zM294.2 419.3v.5h-2.7l1.9-3.2h-1.7v-.5h2.7l-1.9 3.2h1.7zM295.9 416.2v.7c.4-.5.7-.8 1.3-.8 1 0 1.7.8 1.7 1.9s-.7 2-1.7 2-.6 0-.8-.2c-.2-.1-.3-.2-.5-.5v2.3h-.6v-5.4h.6zm0 1.9c0 .8.5 1.3 1.2 1.3s1.2-.6 1.2-1.4-.1-.8-.3-1c-.2-.2-.5-.4-.9-.4-.7 0-1.2.6-1.2 1.4zM300.1 419.9v-5.3h.6v5.3h-.6zM304.9 416.2h.6v3.7h-.6v-.7c-.4.6-.8.8-1.3.8-1 0-1.7-.8-1.7-1.9s.7-1.9 1.8-1.9 1 .2 1.3.7v-.6zm-2.1.9c-.2.3-.3.6-.3 1 0 .8.5 1.4 1.2 1.4s1.3-.6 1.3-1.4-.5-1.4-1.2-1.4-.7.1-.9.4zM307.6 419.1c0 .2 0 .2.3.2h.3v.5h-.6c-.4 0-.6-.2-.6-.6v-2.6h-.5v-.5h.5v-1.2h.6v1.2h.6v.5h-.6v2.4zM311.6 419.3v.5h-2.7l1.9-3.2h-1.7v-.5h2.7l-1.9 3.2h1.7zM286.2 428.3v.6h-3l1.9-2.7c.5-.8.7-1 .7-1.3 0-.5-.4-.8-.9-.8s-.7.2-.8.4v.6h-.6c0-1 .6-1.6 1.5-1.6s1.5.5 1.5 1.3-.2.8-.6 1.5l-1.4 2h1.9zM287.5 424.2v-.6h3l-1.6 2c.9 0 1.6.7 1.6 1.6s-.8 1.7-1.8 1.7-1.4-.5-1.6-1.3h.6c.1.4.5.7 1 .7s1.2-.5 1.2-1.1-.5-1.1-1.2-1.1-.4 0-.6.2l-.3-.2 1.5-1.9h-1.9zM292.4 428.5c0 .2-.2.4-.4.4s-.4-.2-.4-.4.2-.4.4-.4.4.2.4.4zM296.7 427.3c0 .6-.1 1-.4 1.2-.3.3-.7.4-1.2.4s-1-.2-1.2-.5c-.3-.3-.4-.6-.4-1.4v-1.8c0-.7 0-1 .3-1.3.3-.3.7-.5 1.2-.5s.9.1 1.2.4c.3.3.4.6.4 1.2v2.1zm-2.5-.1c0 .6 0 .7.2.9.2.2.5.3.8.3s.6-.1.8-.4c.1-.2.2-.4.2-.8v-2c0-.4 0-.6-.3-.8-.2-.2-.4-.2-.7-.2s-.6.1-.8.4c-.1.2-.2.4-.2.8v1.8zM300.9 425.2v.5c.3-.4.6-.6 1-.6s.8.2 1 .7c.3-.5.6-.7 1.2-.7s.7.1.9.4c.2.2.2.4.2 1v2.4h-.6v-2.2c0-.4 0-.6-.1-.7-.1-.2-.4-.3-.6-.3-.5 0-.8.4-.8 1v2.2h-.6v-2.2c0-.4 0-.5-.1-.7-.1-.2-.3-.3-.6-.3-.5 0-.9.4-.9 1v2.2h-.6v-3.7h.6zM308.5 426.4v.4h-2l1.2-1.6c.3-.5.4-.6.4-.8 0-.3-.2-.4-.5-.4s-.5.2-.5.6h-.4c0-.6.4-1 1-1s1 .3 1 .8-.1.5-.4.9l-.8 1.1h1.1z"/></g><g><path d="M306.2 65c1.1 0 1.7.5 1.7 1.4s-.1.6-.3.9c-.1.2-.3.2-.5.3.3 0 .4.1.6.2.3.2.4.6.4 1s-.2.9-.6 1.2c-.3.2-.7.3-1.3.3h-1.5V65h1.5zm-.8 2.4h.7c.4 0 .7 0 .9-.2.2-.2.3-.4.3-.7s-.2-.6-.4-.8c-.2 0-.4-.1-.9-.1h-.6v1.8zm0 2.4h.7c.6 0 .8 0 1-.2.3-.1.4-.4.4-.8 0-.6-.4-.9-1.2-.9h-.8v1.8zM312 66.7h.6v3.7h-.6v-.7c-.4.6-.8.8-1.3.8-1 0-1.7-.8-1.7-1.9s.7-1.9 1.8-1.9 1 .2 1.3.7v-.6zm-2.1.9c-.2.3-.3.6-.3 1 0 .8.5 1.4 1.2 1.4s1.3-.6 1.3-1.4-.5-1.4-1.2-1.4-.7.1-.9.4zM316.8 65h.6v5.3h-.6v-.6c-.4.5-.8.7-1.3.7-1 0-1.7-.8-1.7-1.9s.7-2 1.7-2 1 .2 1.3.6v-2.2zm-2.4 3.5c0 .8.5 1.4 1.2 1.4s1.2-.6 1.2-1.4-.5-1.4-1.2-1.4-1.2.6-1.2 1.4zM304.3 78.2v-.5l2.8-3.7v3.6h.6v.6h-.6v1.2h-.6v-1.2h-2.1zm2.1-2.6l-1.5 2h1.5v-2zM309.5 79c0 .2-.2.4-.4.4s-.4-.2-.4-.4.2-.4.4-.4.4.2.4.4zM313.5 76.8c.3.3.4.6.4 1 0 .9-.7 1.6-1.7 1.6s-1.6-.6-1.6-1.6.1-.8.4-1.1c.2-.2.3-.3.6-.4-.3 0-.4-.2-.5-.4-.2-.2-.3-.5-.3-.8 0-.8.6-1.3 1.5-1.3s1.4.6 1.4 1.3-.1.6-.3.8c-.1.2-.3.2-.5.3.3 0 .4.2.6.3zm-2.3 1c0 .6.5 1 1 1s1-.5 1-1-.5-1-1-1-1 .5-1 1zm.2-2.5c0 .5.4.8.8.8s.9-.4.9-.8-.4-.8-.8-.8-.9.3-.9.8zM317.1 75.7v.5c.3-.4.6-.6 1-.6s.8.2 1 .7c.3-.5.6-.7 1.2-.7s.7.1.9.4c.2.2.2.4.2 1v2.4h-.6v-2.2c0-.4 0-.6-.1-.7-.1-.2-.4-.3-.6-.3-.5 0-.8.4-.8 1v2.2h-.6v-2.2c0-.4 0-.5-.1-.7-.1-.2-.3-.3-.6-.3-.5 0-.9.4-.9 1v2.2h-.6v-3.7h.6zM324.7 76.9v.4h-2l1.2-1.6c.3-.5.4-.6.4-.8 0-.3-.2-.4-.5-.4s-.5.2-.5.6h-.4c0-.6.4-1 1-1s1 .3 1 .8-.1.5-.4.9l-.8 1.1h1.1z"/></g><g><path d="M36.3 41.6v.6h-2.5v-5.3h.7v4.7h1.9zM38 37.5c0 .2-.2.4-.4.4s-.4-.2-.4-.4.2-.4.4-.4.4.2.4.4zm0 4.7h-.6v-3.7h.6v3.7zM39.9 42.2h-.6V39h-.5v-.5h.5V38c0-.7.4-1.2 1-1.2h.2v.5c-.4 0-.6.2-.6.6v.5h.6v.5h-.6v3.2zM42.3 41.5c0 .2 0 .2.3.2h.3v.5h-.6c-.4 0-.6-.2-.6-.6V39h-.5v-.5h.5v-1.2h.6v1.2h.6v.5h-.6v2.4z"/></g></g></svg>