<svg xmlns="http://www.w3.org/2000/svg" viewBox="0 0 416.5 403.8"><defs><style>.cls-1{stroke-dasharray:0 0 0 0 2.9 1.4 .2 1.4}.cls-1,.cls-10,.cls-11,.cls-12,.cls-13,.cls-14,.cls-15,.cls-16,.cls-17,.cls-18,.cls-19,.cls-2,.cls-20,.cls-21,.cls-22,.cls-23,.cls-3,.cls-4,.cls-5,.cls-6,.cls-7,.cls-8,.cls-9{fill:none;stroke-linecap:round;stroke-linejoin:round}.cls-1,.cls-10,.cls-11,.cls-12,.cls-13,.cls-14,.cls-15,.cls-16,.cls-17,.cls-18,.cls-2,.cls-20,.cls-21,.cls-22,.cls-23,.cls-3,.cls-4,.cls-5,.cls-6,.cls-7,.cls-8,.cls-9{stroke-width:.1px}.cls-1,.cls-15,.cls-16,.cls-21,.cls-22,.cls-3,.cls-4{stroke:#194164}.cls-2{stroke:#646464}.cls-10,.cls-11,.cls-12,.cls-13,.cls-14,.cls-15,.cls-16,.cls-17,.cls-20,.cls-22,.cls-23,.cls-3,.cls-4,.cls-5,.cls-6,.cls-7,.cls-8,.cls-9{stroke-dasharray:0 0 1.4 1.4}.cls-4{stroke-dashoffset:1px}.cls-10,.cls-11,.cls-12,.cls-13,.cls-14,.cls-17,.cls-18,.cls-20,.cls-23,.cls-5,.cls-6,.cls-7,.cls-8,.cls-9{stroke:#969696}.cls-6,.cls-7{stroke-dashoffset:2.8px}.cls-8{stroke-dashoffset:1.1px}.cls-9{stroke-dashoffset:2.4px}.cls-10{stroke-dashoffset:2.7px}.cls-11{stroke-dashoffset:2.5px}.cls-12{stroke-dashoffset:2.6px}.cls-13{stroke-dashoffset:1.4px}.cls-14,.cls-22{stroke-dashoffset:.7px}.cls-24{fill:#fff}.cls-24,.cls-25{fill-rule:evenodd}.cls-15{stroke-dashoffset:.2px}.cls-16{stroke-dashoffset:.5px}.cls-17{stroke-dashoffset:1px}.cls-19{stroke:#32648c;stroke-width:.3px}.cls-20{stroke-dashoffset:1.3px}.cls-23{stroke-dashoffset:1.2px}</style></defs><g id="Plan"><path class="cls-19" d="M153.7 22h39.6v29.8h-39.6z"/><path class="cls-21" d="M202.4 53.4V18.1M199.3 35.2v13.9M196.4 22.5v13.9"/><path class="cls-4" d="M108.1 350.1l-52.3-49"/><path class="cls-3" d="M107.1 352.5l-53.5-50.2M144.6 351l-36.5-.9"/><path class="cls-21" d="M108.6 350.1h-.5"/><path class="cls-3" d="M154.9 350.5l-10.3.5"/><path class="cls-21" d="M145 351h-.4"/><path class="cls-16" d="M144.8 353.4l-37.7-.9"/><path class="cls-3" d="M144.6 351l.7 9.9"/><path class="cls-16" d="M52.2 264.9v-23.6"/><path class="cls-15" d="M52.2 264.9h-9.6"/><path class="cls-3" d="M55.8 301.1l-3.6-36.2"/><path class="cls-21" d="M52.2 265.3v-.4"/><path class="cls-22" d="M53.6 302.3L50 264.9"/><path class="cls-21" d="M145.2 360.7l-5.5 41.2c-17.5.6-35-2.3-51.4-8.4-16.4-6.2-31.4-15.5-44.2-27.4-12.8-12-23.1-26.3-30.4-42.3-7.3-15.9-11.3-33.2-11.9-50.7l40.7-8.3"/><path class="cls-21" d="M147 360.6l-5.7 43h-1.4c-17.7.6-35.4-2.3-52-8.5s-31.8-15.7-44.8-27.8c-13-12.1-23.4-26.6-30.8-42.8C4.8 308.4.7 290.9.1 273.2v-1.4l42.4-8.6M80.5 327.3l-36.3 38.8M349.3 191.4l-29.3 1.9M349.3 192.1l-30 2M349.3 190l-29.3 1.9M349.3 191.4l-29.3 1.9M349 189.3l-30 1.9M349.3 190l-29.3 1.9M349.3 192.1l-30 2M349 189.3l-30 1.9M320 193.3v-1.4M319 191.2l.3 2.9M349.3 191.4v.7M349.3 190l13.9-1M349.3 191.4l14.1-.9M349.3 190l13.9-1M363.4 190.5l-.2-1.5M349 189.3l14.2-1M349.3 191.4l14.1-.9M367 244.5l-17.2 1.2 5.7 85.9 17.5-1.2-6-85.9zM357.7 330.4h-2.2M356.7 313.3h-2.4M355.5 296.3l-2.4.2M354.3 279.3l-2.1.2M353.1 262.5H351"/><path class="cls-21" d="M367 244.5l-17.2 1.2v-.8l17.2-1.2v.8z"/><path class="cls-21" d="M350.2 244.9h-.4l-1.2-16.8.4-.2 1.2 17z"/><path class="cls-21" d="M364.4 226.9v.5l-15.4 1.2v-.7l15.4-1zM365.6 243.3v.7l-15.4.9v-.4l15.4-1.2z"/><path class="cls-21" d="M366.1 244h-.5l-1.2-17.1h.5l1.2 17.1z"/><path class="cls-24" d="M363.2 262.6l-8.9.6h-.4c-.1 0-.2 0-.4.1-.1 0-.2.1-.3.2-.1 0-.2.2-.3.3 0 0-.2.2-.2.3 0 .1-.1.2-.2.4v.8l.8 11.2v.4c0 .1 0 .2.1.4 0 .1.1.2.2.3 0 .1.2.2.3.3 0 0 .2.2.3.2s.2.1.4.2h.8l8.9-.6h.4c.1 0 .2 0 .4-.1.1 0 .2-.1.3-.2.1 0 .2-.2.3-.3 0 0 .2-.2.2-.3 0-.1.1-.2.2-.4v-.4-.4l-.8-11.2v-.4c0-.1 0-.2-.1-.4 0-.1-.1-.2-.2-.3 0-.1-.2-.2-.3-.3 0 0-.2-.2-.3-.2-.1 0-.2-.1-.4-.2h-.8"/><path class="cls-21" d="M363.2 262.6l-8.9.6h-.4c-.1 0-.2 0-.4.1-.1 0-.2.1-.3.2-.1 0-.2.2-.3.3 0 0-.2.2-.2.3 0 .1-.1.2-.2.4v.8l.8 11.2v.4c0 .1 0 .2.1.4 0 .1.1.2.2.3 0 .1.2.2.3.3 0 0 .2.2.3.2s.2.1.4.2h.8l8.9-.6h.4c.1 0 .2 0 .4-.1.1 0 .2-.1.3-.2.1 0 .2-.2.3-.3 0 0 .2-.2.2-.3 0-.1.1-.2.2-.4v-.4-.4l-.8-11.2v-.4c0-.1 0-.2-.1-.4 0-.1-.1-.2-.2-.3 0-.1-.2-.2-.3-.3 0 0-.2-.2-.3-.2-.1 0-.2-.1-.4-.2h-.8"/><path class="cls-24" d="M363.7 270.3c0-.6-.5-1.1-1.2-1.1s-1.2.5-1.2 1.1.5 1.1 1.2 1.1 1.2-.5 1.2-1.1"/><path class="cls-21" d="M363.7 270.3c0-.6-.5-1.1-1.2-1.1s-1.2.5-1.2 1.1.5 1.1 1.2 1.1 1.2-.5 1.2-1.1"/><path class="cls-24" d="M370.4 311.9l-1.2-15.8-14.6.9 1.2 15.9 14.6-1"/><path class="cls-21" d="M370.4 311.9l-1.2-15.8-14.6.9 1.2 15.9 14.6-1z"/><path class="cls-24" d="M363 308.5c0-1.6-1.2-2.9-2.8-2.9s-2.8 1.3-2.8 2.9 1.2 2.9 2.8 2.9 2.8-1.3 2.8-2.9"/><path class="cls-21" d="M363 308.5c0-1.6-1.2-2.9-2.8-2.9s-2.8 1.3-2.8 2.9 1.2 2.9 2.8 2.9 2.8-1.3 2.8-2.9"/><path class="cls-24" d="M369.2 309c0-1.2-1-2.2-2.2-2.2s-2.2 1-2.2 2.2 1 2.2 2.2 2.2 2.2-1 2.2-2.2"/><path class="cls-21" d="M369.2 309c0-1.2-1-2.2-2.2-2.2s-2.2 1-2.2 2.2 1 2.2 2.2 2.2 2.2-1 2.2-2.2"/><path class="cls-24" d="M361.8 301c0-1.3-1-2.3-2.2-2.3s-2.2 1-2.2 2.3 1 2.3 2.2 2.3 2.2-1 2.2-2.3"/><path class="cls-21" d="M361.8 301c0-1.3-1-2.3-2.2-2.3s-2.2 1-2.2 2.3 1 2.3 2.2 2.3 2.2-1 2.2-2.3"/><path class="cls-24" d="M369 300.9c0-1.6-1.3-2.9-2.9-2.9s-2.9 1.3-2.9 2.9 1.3 2.9 2.9 2.9 2.9-1.3 2.9-2.9"/><path class="cls-21" d="M369 300.9c0-1.6-1.3-2.9-2.9-2.9s-2.9 1.3-2.9 2.9 1.3 2.9 2.9 2.9 2.9-1.3 2.9-2.9"/><path class="cls-1" d="M353.4 191.7l9.6 139.4"/><path class="cls-21" d="M349 227.9l-.4.2-1.2-17h.4l1.2 16.8z"/><path class="cls-21" d="M363.2 209.9v.7l-15.1 1-.3-.5 15.4-1.2zM364.4 226.5v.4l-15.4 1v-.5l15.4-.9z"/><path class="cls-21" d="M364.9 226.9h-.5l-1.2-17h.5l1.2 17zM347.8 211.1h-.4l-1.2-17h.7l.9 17z"/><path class="cls-21" d="M362 193.1v.5l-15.1.9v-.4l15.1-1zM363.2 209.4v.5l-15.4 1.2v-.7l15.4-1z"/><path class="cls-21" d="M363.7 209.9h-.5l-1.2-16.8h.7l1 16.8zM346.2 192.4l.4-.3.3 2h-.7v-1.7z"/><path class="cls-24" d="M350.7 194.3l-.2-2.4 10.1-.7v2.4l-9.9.7"/><path class="cls-21" d="M350.7 194.3l-.2-2.4 10.1-.7v2.4l-9.9.7z"/><path class="cls-24" d="M350.5 194.5v-.2l10.3-.7.2.2-10.5.7"/><path class="cls-21" d="M350.5 194.5v-.2l10.3-.7.2.2-10.5.7z"/><path class="cls-22" d="M360.1 193.8l.5 8.7"/><path class="cls-3" d="M360.6 202.5l-1.7-.3-1.7-.2-1.4-.7-1.5-1-1.2-1.2-.7-1.4-.7-1.5-.3-1.7"/><path class="cls-18" d="M59.1 307.6l42.5 39.3-2.4 2.7-42.5-39.4 2.4-2.6z"/><path class="cls-24" d="M201 18.9h5.5l-5.5-7v7"/><path class="cls-18" d="M206.2 18.9l-5-5.3M202.4 18.9l-1.2-1.2M202.9 18.9l1.9-2.2M201.2 16.5l1.9-2M201.2 12.6l.2-.2"/><path class="cls-24" d="M201 18.9h5.5l-5.5-7v7"/><path class="cls-18" d="M206.2 18.9l-5-5.3M202.4 18.9l-1.2-1.2M202.9 18.9l1.9-2.2M201.2 16.5l1.9-2M201.2 12.6l.2-.2"/><path class="cls-19" d="M201 11.9v7M201 11.9v7"/><path class="cls-21" d="M202.4 22v29.5"/><path class="cls-1" d="M206.7 22v29.5"/><path class="cls-21" d="M206.7 51v.5"/><path class="cls-24" d="M206.7 18.9V22h-4.3v-3.1"/><path class="cls-18" d="M207 19.3l-.8-.4M205.5 22l-2.9-2.9M203.6 22l3.1-3.1M202.6 19.1l.3-.2"/><path class="cls-24" d="M206.7 54.6v-3.1h-4.3v3.1"/><path class="cls-18" d="M206 54.6l-3.1-3.1M203.1 54.6l3.1-3.1"/><path class="cls-19" d="M206.7 22h-4.3M206.7 51.5h-4.3M206.7 22h-4.3M206.7 18.9V22M206.7 51.5h-4.3M206.7 54.6v-3.1M201 18.9h1.4M201 54.6h1.4M206.7 18.9V22M206.7 54.6v-3.1M202.4 22v-3.1M202.4 51.5v3.1"/><path class="cls-24" d="M201 11.9l5.7 7.2h17.5v-7.2H201"/><path class="cls-18" d="M224.5 12.9l-1-1M224.5 16.9l-5.1-5M222.6 19.1l-7.2-7.2M218.7 19.1l-7.2-7.2M214.6 19.1l-7.2-7.2M210.6 19.1l-7.2-7.2M222.6 19.1l1.9-1.7M218.5 19.1l6-5.8M214.6 19.1l7.2-7.2M210.6 19.1l7.2-7.2M206.7 18.9l7-7M205 16.7l4.8-4.8M203.1 14.5l2.7-2.6M201.4 12.4l.3-.5"/><path class="cls-24" d="M201 11.9l5.7 7.2h17.5v-7.2H201"/><path class="cls-18" d="M224.5 12.9l-1-1M224.5 16.9l-5.1-5M222.6 19.1l-7.2-7.2M218.7 19.1l-7.2-7.2M214.6 19.1l-7.2-7.2M210.6 19.1l-7.2-7.2M222.6 19.1l1.9-1.7M218.5 19.1l6-5.8M214.6 19.1l7.2-7.2M210.6 19.1l7.2-7.2M206.7 18.9l7-7M205 16.7l4.8-4.8M203.1 14.5l2.7-2.6M201.4 12.4l.3-.5"/><path class="cls-19" d="M224.2 11.9h-16.3M224.2 19.1h-17.5M224.2 19.1h-17.5M224.2 11.9h-16.3"/><path class="cls-24" d="M398.2 11.9v7.2H259.8v-7.2h138.4"/><path class="cls-18" d="M398.5 14.5l-2.7-2.6M398.5 18.4l-6.7-6.5M394.9 19.1l-7.2-7.2M391 19.1l-7.2-7.2M387 19.1l-7.2-7.2M382.9 19.1l-7.2-7.2M379 19.1l-7.2-7.2M375 19.1l-7.2-7.2M370.9 19.1l-7.2-7.2M367 19.1l-7.2-7.2M363 19.1l-7.2-7.2M358.9 19.1l-7.2-7.2M354.8 19.1l-7.2-7.2M351 19.1l-7.2-7.2M346.9 19.1l-7.2-7.2M342.8 19.1l-7.2-7.2M339 19.1l-7.2-7.2M334.9 19.1l-7.2-7.2M330.8 19.1l-7.2-7.2M327 19.1l-7.2-7.2M322.9 19.1l-7.2-7.2M318.8 19.1l-7.2-7.2M314.7 19.1l-7.2-7.2M310.9 19.1l-7.2-7.2M306.8 19.1l-7.2-7.2M302.7 19.1l-7.2-7.2M298.9 19.1l-7.2-7.2M294.8 19.1l-7.2-7.2M290.7 19.1l-7.2-7.2M286.9 19.1l-7.2-7.2M282.8 19.1l-7.2-7.2M278.7 19.1l-7.2-7.2M274.6 19.1l-7.2-7.2M270.8 19.1l-7.2-7.2M266.7 19.1l-6.7-6.7M262.6 19.1l-2.6-2.9M394.9 19.1l3.6-3.4M391 19.1l7.2-7.2M387 19.1l7.2-7.2M382.9 19.1l7.2-7.2M379 19.1l7.2-7.2M375 19.1l7.2-7.2M370.9 19.1l7.2-7.2M366.8 19.1l7.2-7.2M363 19.1l7.2-7.2M358.9 19.1l7.2-7.2M354.8 19.1l7.2-7.2M351 19.1l7.2-7.2M346.9 19.1l7.2-7.2M342.8 19.1l7.2-7.2M339 19.1l7.2-7.2M334.9 19.1l7.2-7.2M330.8 19.1l7.2-7.2M326.7 19.1l7.2-7.2M322.9 19.1l7.2-7.2M318.8 19.1l7.2-7.2M314.7 19.1l7.2-7.2M310.9 19.1l7.2-7.2M306.8 19.1l7.2-7.2M302.7 19.1l7.2-7.2M298.9 19.1l7.2-7.2M294.8 19.1l7.2-7.2M290.7 19.1l7.2-7.2M286.6 19.1l7.2-7.2M282.8 19.1l7.2-7.2M278.7 19.1l7.2-7.2M274.6 19.1l7.2-7.2M270.8 19.1l7.2-7.2M266.7 19.1l7.2-7.2M262.6 19.1l7.2-7.2M260 17.9l5.8-6M260 13.8l1.9-1.9"/><path class="cls-24" d="M398.2 19.1v-7.2H259.8v7.2h138.4"/><path class="cls-18" d="M398.5 14.5l-2.7-2.6M398.5 18.4l-6.7-6.5M394.9 19.1l-7.2-7.2M391 19.1l-7.2-7.2M387 19.1l-7.2-7.2M382.9 19.1l-7.2-7.2M379 19.1l-7.2-7.2M375 19.1l-7.2-7.2M370.9 19.1l-7.2-7.2M367 19.1l-7.2-7.2M363 19.1l-7.2-7.2M358.9 19.1l-7.2-7.2M354.8 19.1l-7.2-7.2M351 19.1l-7.2-7.2M346.9 19.1l-7.2-7.2M342.8 19.1l-7.2-7.2M339 19.1l-7.2-7.2M334.9 19.1l-7.2-7.2M330.8 19.1l-7.2-7.2M327 19.1l-7.2-7.2M322.9 19.1l-7.2-7.2M318.8 19.1l-7.2-7.2M314.7 19.1l-7.2-7.2M310.9 19.1l-7.2-7.2M306.8 19.1l-7.2-7.2M302.7 19.1l-7.2-7.2M298.9 19.1l-7.2-7.2M294.8 19.1l-7.2-7.2M290.7 19.1l-7.2-7.2M286.9 19.1l-7.2-7.2M282.8 19.1l-7.2-7.2M278.7 19.1l-7.2-7.2M274.6 19.1l-7.2-7.2M270.8 19.1l-7.2-7.2M266.7 19.1l-6.7-6.7M262.6 19.1l-2.6-2.9M394.9 19.1l3.6-3.4M391 19.1l7.2-7.2M387 19.1l7.2-7.2M382.9 19.1l7.2-7.2M379 19.1l7.2-7.2M375 19.1l7.2-7.2M370.9 19.1l7.2-7.2M366.8 19.1l7.2-7.2M363 19.1l7.2-7.2M358.9 19.1l7.2-7.2M354.8 19.1l7.2-7.2M351 19.1l7.2-7.2M346.9 19.1l7.2-7.2M342.8 19.1l7.2-7.2M339 19.1l7.2-7.2M334.9 19.1l7.2-7.2M330.8 19.1l7.2-7.2M326.7 19.1l7.2-7.2M322.9 19.1l7.2-7.2M318.8 19.1l7.2-7.2M314.7 19.1l7.2-7.2M310.9 19.1l7.2-7.2M306.8 19.1l7.2-7.2M302.7 19.1l7.2-7.2M298.9 19.1l7.2-7.2M294.8 19.1l7.2-7.2M290.7 19.1l7.2-7.2M286.6 19.1l7.2-7.2M282.8 19.1l7.2-7.2M278.7 19.1l7.2-7.2M274.6 19.1l7.2-7.2M270.8 19.1l7.2-7.2M266.7 19.1l7.2-7.2M262.6 19.1l7.2-7.2M260 17.9l5.8-6M260 13.8l1.9-1.9"/><path class="cls-19" d="M398.2 11.9H259.8M398.2 19.1H259.8M398.2 19.1H259.8M398.2 11.9H259.8"/><path class="cls-21" d="M254 11.4h5.8v1.7H254zM224.2 11.4h2.4v1.7h-2.4zM226.6 11.4H254v1.7h-27.4zM254 13.1h-27.4"/><path class="cls-1" d="M254.2 19.1h-27.8"/><path class="cls-21" d="M226.9 19.1h-.5"/><path class="cls-24" d="M259.8 19.1h-5.6v-6h5.6"/><path class="cls-18" d="M260 16.2l-3.4-3.1M258.8 19.1l-4.3-4.3M254.7 19.1l-.2-.2M258.6 19.1l1.4-1.2M254.7 19.1l5.3-5.3M254.5 15.5l2.1-2.4"/><path class="cls-24" d="M224.2 19.1h2.2v-6h-2.2"/><path class="cls-18" d="M226.6 15l-1.9-1.9M226.6 19.1l-2.1-2.2M224.5 17.4l2.1-2.1M224.5 13.3v-.2"/><path class="cls-19" d="M254.2 19.1v-6M226.4 19.1v-6M254.2 19.1v-6M259.8 19.1h-5.6M226.4 19.1v-6M224.2 19.1h2.2M259.8 11.9v1.2M224.2 11.9v1.2M259.8 19.1h-5.6M224.2 19.1h2.2M254.2 13.1h5.6M226.4 13.1h-2.2"/><path class="cls-21" d="M373.8 330.4l-11.6-168.5M375.2 330.1l-11.5-168.2M373.8 330.4l-11.6-168.5M375.2 330.1l-11.5-168.2M375.2 330.1l-1.4.3"/><path class="cls-24" d="M52.2 254.6c0 3.5.2 7 .6 10.5s1 6.9 1.7 10.3c.8 3.4 1.7 6.8 2.8 10.1s2.4 6.6 3.9 9.7l-5.5 5.9 3.7 3.5-1.5 1.7 1.3 1.3-2.4 2.5c-.3-.5-.5-1-.8-1.5-.3-.5-.5-1-.8-1.5-.2-.5-.5-1-.7-1.5-.2-.5-.5-1-.7-1.6-1.2-2.8-2.3-5.7-3.2-8.6-.9-2.9-1.7-5.9-2.3-8.9-.6-3-1.1-6.1-1.4-9.1-.3-3.1-.4-6.1-.4-9.2v-13.9"/><path class="cls-18" d="M56.7 309.3h1M56 307.8h3.1M55.3 306.4h2.9M54.6 304.9h4.8M53.8 303.5h4.6M53.4 302.1H57M52.9 300.6h3.3M52.2 299.4h5.5M51.7 298h7.2M51.2 296.5h9.1M50.7 295.1h10.6M50.5 293.7h10.1M50 292.2h10.1M49.5 290.8h9.9M49.3 289.3h9.6M48.8 287.9h9.6M48.6 286.5h9.3M48.3 285h9.1M48.1 283.8H57M47.8 282.4h8.7M47.6 280.9H56M47.4 279.5h8.4M47.1 278.1h8.2M46.9 276.6H55M46.9 275.2h7.7M46.9 273.7h7.4M46.9 272.3h7.2M46.9 270.9h6.9M46.9 269.4h6.7M46.9 268.2h6.5M46.9 266.8h6.2M46.9 265.3h6.2M46.9 263.9h6M46.9 262.5h5.7M46.9 261h5.7M46.9 259.6h5.5M46.9 258.1h5.5M46.9 256.7h5.5M46.9 255.3h5.5M52.2 254.6c0 3.5.2 7 .6 10.5s1 6.9 1.7 10.3c.8 3.4 1.7 6.8 2.8 10.1s2.4 6.6 3.9 9.7l-5.5 5.9 3.7 3.5-1.5 1.7 1.3 1.3-2.4 2.5c-.3-.5-.5-1-.8-1.5-.3-.5-.5-1-.8-1.5-.2-.5-.5-1-.7-1.5-.2-.5-.5-1-.7-1.6-1.2-2.8-2.3-5.7-3.2-8.6-.9-2.9-1.7-5.9-2.3-8.9-.6-3-1.1-6.1-1.4-9.1-.3-3.1-.4-6.1-.4-9.2v-13.9"/><path class="cls-24" d="M155.7 356l-13.9 1c-3.1.2-6.1.3-9.2.2-3.1 0-6.1-.3-9.2-.8-3-.4-6.1-1-9.1-1.7s-5.9-1.6-8.8-2.6c-.5-.2-1.1-.4-1.6-.6-.5-.2-1.1-.4-1.6-.6-.5-.2-1.1-.4-1.6-.6-.5-.2-1-.4-1.6-.7l2.4-2.5 1.3 1.3 1.5-1.7 3.7 3.5 5.5-5.9c3.3 1.3 6.6 2.3 10 3.2 3.4.9 6.8 1.6 10.3 2.1 3.5.5 6.9.9 10.4 1 3.5.1 7 0 10.5-.1"/><path class="cls-18" d="M154.4 356.1v-5.8M153.2 356.3v-6M151.8 356.3v-5.8M150.3 356.5v-6M148.9 356.5v-6M147.4 356.5v-6M146 356.8v-6.3M144.6 356.8v-6.3M143.1 357v-6.5M141.7 357v-6.7M140.2 357v-6.7M138.8 357v-6.7M137.6 357v-6.9M136.2 357.3v-7.5M134.7 357.3v-7.7M133.3 357.3v-8M131.8 357.3v-8.2M130.4 357v-8.1M129 357v-8.4M127.5 356.8v-8.4M126.1 356.8v-8.9M124.6 356.5v-8.8M123.4 356.5v-9.3M122 356.3v-9.4M120.6 355.8v-9.3M119.1 355.6V346M117.7 355.3v-9.8M116.2 355.1V345M114.8 354.6v-10.1M113.4 354.4v-10.1M111.9 353.9V346M110.5 353.4v-6M109 352.9v-3.8M107.8 352.7v-3.1M106.4 352.2v-3.8M105 351.7v-4.8M103.5 351.3v-3.4M102.1 350.5v-3.1M100.6 350.1v-2M155.7 356l-13.9 1c-3.1.2-6.1.3-9.2.2-3.1 0-6.1-.3-9.2-.8-3-.4-6.1-1-9.1-1.7s-5.9-1.6-8.8-2.6c-.5-.2-1.1-.4-1.6-.6-.5-.2-1.1-.4-1.6-.6-.5-.2-1.1-.4-1.6-.6-.5-.2-1-.4-1.6-.7l2.4-2.5 1.3 1.3 1.5-1.7 3.7 3.5 5.5-5.9c3.3 1.3 6.6 2.3 10 3.2 3.4.9 6.8 1.6 10.3 2.1 3.5.5 6.9.9 10.4 1 3.5.1 7 0 10.5-.1"/><path class="cls-24" d="M314.1 136.2c-1.3-.9-3-.9-4.3 0-1.9 1.5-2.9 3.8-2.9 6.2l.3 9h9.6l.3-9c0-2.4-1-4.7-2.9-6.2"/><path class="cls-21" d="M314.1 136.2c-1.3-.9-3-.9-4.3 0-1.9 1.5-2.9 3.8-2.9 6.2l.3 9h9.6l.3-9c0-2.4-1-4.7-2.9-6.2"/><path class="cls-24" d="M312 146.4c1 0 2-.3 2.8-1.1.7-.7 1.2-1.7 1.2-2.7 0-2.1-.9-4.1-2.5-5.4-.9-.6-2-.6-2.9 0-1.6 1.3-2.5 3.3-2.5 5.4 0 1 .4 2 1.2 2.7.7.7 1.7 1.1 2.8 1.1"/><path class="cls-21" d="M312 146.4c1 0 2-.3 2.8-1.1.7-.7 1.2-1.7 1.2-2.7 0-2.1-.9-4.1-2.5-5.4-.9-.6-2-.6-2.9 0-1.6 1.3-2.5 3.3-2.5 5.4 0 1 .4 2 1.2 2.7.7.7 1.7 1.1 2.8 1.1"/><path class="cls-24" d="M365.6 151.1v-48l-.1-.1v-.1l-.1-.1h-.1l-.1-.1h-20.6v.1h-.2v.1l-.1.1v48.2l.1.1v.1h.2v.1h20.6l.1-.1h.1l.1-.1v-.1l.1-.1"/><path class="cls-21" d="M365.6 151.1v-48l-.1-.1v-.1l-.1-.1h-.1l-.1-.1h-20.6v.1h-.2v.1l-.1.1v48.2l.1.1v.1h.2v.1h20.6l.1-.1h.1l.1-.1v-.1l.1-.1"/><path class="cls-24" d="M363.4 145.8v-37.4c0-.4 0-.9-.3-1.3-.2-.4-.4-.8-.7-1.1-.3-.3-.7-.6-1.1-.7-.4-.2-.9-.3-1.3-.3h-10.2c-.4 0-.9 0-1.3.3-.4.2-.8.4-1.1.7-.3.3-.6.7-.7 1.1-.2.4-.3.9-.3 1.3v37.4c0 .4 0 .9.3 1.3.2.4.4.8.7 1.1.3.3.7.6 1.1.7s.9.3 1.3.3H360c.4 0 .9 0 1.3-.3.4-.2.8-.4 1.1-.7.3-.3.6-.7.7-1.1.2-.4.3-.9.3-1.3"/><path class="cls-21" d="M363.4 145.8v-37.4c0-.4 0-.9-.3-1.3-.2-.4-.4-.8-.7-1.1-.3-.3-.7-.6-1.1-.7-.4-.2-.9-.3-1.3-.3h-10.2c-.4 0-.9 0-1.3.3-.4.2-.8.4-1.1.7-.3.3-.6.7-.7 1.1-.2.4-.3.9-.3 1.3v37.4c0 .4 0 .9.3 1.3.2.4.4.8.7 1.1.3.3.7.6 1.1.7s.9.3 1.3.3H360c.4 0 .9 0 1.3-.3.4-.2.8-.4 1.1-.7.3-.3.6-.7.7-1.1.2-.4.3-.9.3-1.3M299.1 152.3h23.5M299.1 153.5h22.1M299.1 152.3h23.5M299.1 151.6h24.3M299.1 153.5h22.1M299.1 153.5v-1.2M322.6 155.9h18.5M321.2 157.3h21.4M322.6 155.9h18.5M323.4 155.4h17M321.2 157.3h21.4M341.1 152.3h24.7M342.6 153.5h23.2M341.1 152.3h24.7M365.8 153.5v-1.2M340.4 151.6h25.4M342.6 153.5h23.2"/><path class="cls-24" d="M339.6 151.5v-12-.4c0-.1-.1-.3-.2-.4-.1-.1-.2-.2-.4-.2H324.9c-.1 0-.3.1-.4.2-.1.1-.2.2-.2.4v12.4h15.6"/><path class="cls-21" d="M339.6 151.5v-12-.4c0-.1-.1-.3-.2-.4-.1-.1-.2-.2-.4-.2H324.9c-.1 0-.3.1-.4.2-.1.1-.2.2-.2.4v12.4h15.6"/><path class="cls-15" d="M323.4 151.6v3.8"/><path class="cls-4" d="M323.4 155.4h17"/><path class="cls-15" d="M340.4 155.4v-3.8"/><path class="cls-21" d="M341.1 155.9v-3.6M342.6 157.3v-3.8M341.1 155.9v-3.6M340.4 155.4v-3.8M342.6 157.3v-3.8M322.6 152.3v3.6M321.2 153.5v3.8M322.6 152.3v3.6M323.4 151.6v3.8M321.2 153.5v3.8M366.6 159.5v-56.9M368 159.5v-56.9M366.6 159.5v-56.9M365.8 159.5v-56.9M368 159.5v-56.9M368 159.5h-1.4"/><path class="cls-24" d="M296 106.9l-4.3.3-.3-4.6h4.1l.5 4.3"/><path class="cls-18" d="M291.7 103.8l1.2-1.2M292.6 107.2l3.2-3.4"/><path class="cls-24" d="M291.7 107.2l4.3-.3-.5-4.3h-4.1l.3 4.6"/><path class="cls-18" d="M291.7 103.8l1.2-1.2M292.6 107.2l3.2-3.4"/><path class="cls-19" d="M296 106.9l-.5-4.3M291.7 107.2l-.3-4.6M295.5 102.6h-4.1M291.7 107.2l-.3-4.6M296 106.9l-.5-4.3"/><path class="cls-24" d="M302 196.2l-4.3.3-4.3-64.1 4.3-.3 4.3 64.1"/><path class="cls-18" d="M293.6 135.7l3.6-3.6M294.1 139.8l3.8-4.1M294.3 143.7l4.1-4.1M294.6 147.7l4-4M294.8 151.6l4.1-4.1M295 155.7l4.1-4.1M295.3 159.7l4.1-4M295.5 163.6l4.1-4.1M295.8 167.7l4-4.1M296.2 171.5l3.9-4.1M296.5 175.6l4.1-4.1M296.7 179.7l4.1-4.1M297 183.5l4-4.1M297.2 187.6l4.1-4.1M297.4 191.4l4.1-4.1M297.7 195.5l4.1-4.1M301.3 196.2l.7-.7"/><path class="cls-24" d="M297.7 196.5l4.3-.3-4.3-64.1-4.3.3 4.3 64.1"/><path class="cls-18" d="M293.6 135.7l3.6-3.6M294.1 139.8l3.8-4.1M294.3 143.7l4.1-4.1M294.6 147.7l4-4M294.8 151.6l4.1-4.1M295 155.7l4.1-4.1M295.3 159.7l4.1-4M295.5 163.6l4.1-4.1M295.8 167.7l4-4.1M296.2 171.5l3.9-4.1M296.5 175.6l4.1-4.1M296.7 179.7l4.1-4.1M297 183.5l4-4.1M297.2 187.6l4.1-4.1M297.4 191.4l4.1-4.1M297.7 195.5l4.1-4.1M301.3 196.2l.7-.7"/><path class="cls-19" d="M299.6 159.5l-1.9-27.4M302 196.2l-2.2-31.9M297.7 196.5l-4.3-64.1M297.7 196.5l-4.3-64.1M299.6 159.5l-1.9-27.4M302 196.2l-2.2-31.9"/><path class="cls-24" d="M311.6 334.5l-4.3.4-7.7-113.2 4.1-.3 7.9 113.1"/><path class="cls-18" d="M299.8 223.1l1.5-1.4M300.1 227.2l3.8-3.9M300.3 231l3.9-3.8M300.6 235.1l3.8-3.8M300.8 239.2l4.1-4.1M301.3 243l3.8-3.8M301.5 247.1l3.9-4.1M301.8 250.9l3.8-3.8M302 255l3.8-3.8M302.2 258.9l3.9-3.9M302.5 262.9l3.8-3.8M302.7 267l4.1-4.1M303 270.9l4-3.9M303.4 274.9l3.9-4M303.7 278.8l3.8-3.9M303.9 282.9l3.9-4.1M304.2 286.9l3.8-4M304.4 290.8l4.1-3.9M304.6 294.9l4.1-4.1M304.9 298.7l4.1-3.8M305.1 302.8l4.1-4.1M305.6 306.6l3.8-3.8M305.8 310.7l3.9-4.1M306.1 314.8l4.1-4.1M306.3 318.6l4.1-4.1M306.6 322.7l4-4.1M306.8 326.5l4.1-4M307 330.6l4.1-4.1M307.3 334.7l4.1-4.1"/><path class="cls-24" d="M307.3 334.9l4.3-.4-7.9-113.1-4.1.3 7.7 113.2"/><path class="cls-18" d="M299.8 223.1l1.5-1.4M300.1 227.2l3.8-3.9M300.3 231l3.9-3.8M300.6 235.1l3.8-3.8M300.8 239.2l4.1-4.1M301.3 243l3.8-3.8M301.5 247.1l3.9-4.1M301.8 250.9l3.8-3.8M302 255l3.8-3.8M302.2 258.9l3.9-3.9M302.5 262.9l3.8-3.8M302.7 267l4.1-4.1M303 270.9l4-3.9M303.4 274.9l3.9-4M303.7 278.8l3.8-3.9M303.9 282.9l3.9-4.1M304.2 286.9l3.8-4M304.4 290.8l4.1-3.9M304.6 294.9l4.1-4.1M304.9 298.7l4.1-3.8M305.1 302.8l4.1-4.1M305.6 306.6l3.8-3.8M305.8 310.7l3.9-4.1M306.1 314.8l4.1-4.1M306.3 318.6l4.1-4.1M306.6 322.7l4-4.1M306.8 326.5l4.1-4M307 330.6l4.1-4.1M307.3 334.7l4.1-4.1"/><path class="cls-19" d="M311.6 334.5l-7.9-113.1M307.3 334.9l-7.7-113.2M307.3 334.9l-7.7-113.2M311.6 334.5l-7.9-113.1M311.6 334.5l-4.3.4"/><path class="cls-1" d="M303.7 221.4l-1.7-25.2M299.6 221.7l-1.9-25.2"/><path class="cls-21" d="M303.7 220l-4.3.2M302 197.4l-4.1.3"/><path class="cls-19" d="M303.7 221.4l-4.1.3M302 196.2l-4.3.3"/><path class="cls-18" d="M303.6 220c12.4-.8 21.9-11.8 21.1-24.2M302 197.4l22.8-1.4"/><path class="cls-1" d="M297.7 132.1l-1.7-25.2M293.4 132.4l-1.7-25.2"/><path class="cls-21" d="M297.4 130.9l-4 .3M296 108.1l-4.3.5"/><path class="cls-19" d="M297.7 132.1l-4.3.3M296 106.9l-4.3.3"/><path class="cls-18" d="M297.5 130.9c12.4-.8 21.9-11.8 21.1-24.2M296 108.1l22.6-1.4"/><path class="cls-25" d="M223.3 340.7l.9 14.6-68.6 4.8-1.2-14.8 68.9-4.6"/><path class="cls-24" d="M224.2 355.3l-.2-3.3-68.6 4.5.2 3.6 68.6-4.8"/><path class="cls-18" d="M155.6 356.8l2.9 3.1M159 356.3l3.3 3.4M162.8 356.1l3.4 3.3M166.4 355.8l3.4 3.4M170.2 355.6l3.4 3.3M174.1 355.3l3.1 3.4M177.7 355.1l3.3 3.4M181.5 354.9l3.4 3.3M185.4 354.6l3.1 3.1M189 354.4l3.3 3.1M192.8 354.1l3.4 3.2M196.6 353.9l3.2 3.1M200.2 353.7l3.4 3.1M204.1 353.4l3.1 3.1M207.9 353.2l3.1 3.1M211.5 352.7l3.4 3.4M215.4 352.5l3.1 3.3M219.2 352.2l3.1 3.4M222.8 352l1.4 1.4"/><path class="cls-24" d="M224 352v-.7l-68.6 4.8v.4L224 352"/><path class="cls-24" d="M224 351.3l-.5-5.6-68.6 4.6.5 5.8 68.6-4.8"/><path class="cls-18" d="M156.1 350.3l.5 5.8M157.5 350.1l.5 5.7M159 350.1l.4 5.7M160.4 350.1l.5 5.5M161.8 349.8l.5 5.8M163.3 349.8l.2 5.8M164.7 349.6l.3 5.7M166.2 349.6l.2 5.7M167.4 349.6l.4 5.5M168.8 349.3l.5 5.8M170.2 349.3l.5 5.8M171.7 349.1l.5 5.8M173.1 349.1l.5 5.8M174.6 349.1l.4 5.5M176 348.9l.2 5.7M177.4 348.9l.3 5.7M178.9 348.6l.2 5.8M180.3 348.6l.3 5.8M181.5 348.6l.5 5.5M183 348.4l.4 5.7M184.4 348.4l.5 5.5M185.8 348.1l.5 5.8M187.3 348.1l.5 5.8M188.7 348.1l.3 5.6M190.2 347.9l.2 5.8M191.6 347.9l.2 5.5M193 347.9l.3 5.5M194.2 347.7l.5 5.7M195.7 347.7l.5 5.5M197.1 347.4l.5 5.8M198.6 347.4l.4 5.5M200 347.4l.5 5.5M201.4 347.2l.5 5.7M202.9 347.2l.2 5.5M204.3 346.9l.3 5.8M205.8 346.9l.2 5.6M207 346.9l.4 5.6M208.4 346.7l.5 5.5M209.8 346.7l.5 5.5M211.3 346.5l.5 5.7M212.7 346.5l.5 5.5M214.2 346.5l.4 5.5M215.6 346.2l.2 5.5M217 346.2l.3 5.5M218.5 346l.2 5.7M219.9 346l.3 5.5M221.1 346l.5 5.5M222.6 345.7l.4 5.6"/><path class="cls-24" d="M223.5 345.7l-.2-5-68.9 4.6.5 5 68.6-4.6"/><path class="cls-18" d="M154.9 348.1l1.9 2M155.8 345.3l4.8 4.5M159.7 345l4.5 4.6M163.3 344.8l4.8 4.5M167.1 344.5l4.8 4.6M171 344.1l4.5 4.8M174.6 343.8l4.8 4.8M178.4 343.6l4.8 4.8M182.2 343.3l4.6 4.8M185.8 343.1l4.8 4.8M189.7 342.9l4.8 4.8M193.5 342.6l4.6 4.8M197.1 342.4l4.8 4.8M201 342.1l4.8 4.8M204.8 341.9l4.6 4.8M208.4 341.7l4.8 4.8M212.2 341.4l4.8 4.8M216.1 341.2l4.5 4.8M219.7 340.9l3.8 3.9"/><path class="cls-19" d="M224 352l-68.6 4.5M224.2 355.3l-68.6 4.8"/><path class="cls-18" d="M223.5 345.7l-68.6 4.6M224 351.3l-68.6 4.8"/><path class="cls-19" d="M223.3 340.7l-68.9 4.6M223.5 345.7l-68.6 4.6"/><path class="cls-21" d="M224.2 355.3l-68.6 4.8M223.3 340.7l-68.9 4.6"/><path class="cls-25" d="M311.6 334.5l1 14.8-47.6 3.2-.9-14.7 47.5-3.3"/><path class="cls-24" d="M312.6 349.3l-.3-3.3-47.5 3.1.2 3.4 47.6-3.2"/><path class="cls-18" d="M265 350.1l2.2 2.1M267.9 348.9l3.1 3.1M271.5 348.6l3.1 3.1M275.4 348.4l3.1 3.1M279.2 348.1l3.1 3.2M282.8 347.9l3.1 3.1M286.6 347.7l3.2 3.1M290.5 347.4l3.1 3.1M294.1 347.2l3.1 3.1M297.9 346.9l3.1 3.2M301.8 346.7l3.1 3.1M305.4 346.5l3.1 3.1M309.2 346.2l3.1 3.1"/><path class="cls-24" d="M312.3 346v-.7l-47.5 3.3v.5l47.5-3.1M312.3 345.3l-.5-5.6-47.5 3.2.5 5.7 47.5-3.3"/><path class="cls-18" d="M265 342.9l.5 5.7M266.5 342.6l.5 5.8M267.9 342.6l.3 5.8M269.4 342.6l.2 5.8M270.8 342.4l.2 5.7M272 342.4l.5 5.7M273.4 342.4l.5 5.5M274.9 342.1l.5 5.8M276.3 342.1l.5 5.8M277.8 341.9l.4 5.8M279.2 341.9l.5 5.8M280.6 341.9l.3 5.5M282.1 341.7l.2 5.7M283.5 341.7l.3 5.5M285 341.4l.2 5.8M286.2 341.4l.4 5.8M287.6 341.4l.5 5.5M289 341.2l.5 5.7M290.5 341.2l.5 5.5M291.9 340.9l.5 5.8M293.4 340.9l.2 5.8M294.8 340.9l.2 5.6M296.2 340.7l.3 5.8M297.7 340.7l.2 5.5M298.9 340.7l.5 5.5M300.3 340.5l.5 5.5M301.8 340.5l.4 5.5M303.2 340.2l.5 5.8M304.6 340.2l.5 5.5M306.1 340.2l.2 5.5M307.5 340l.3 5.5M309 340l.2 5.5M310.4 339.7l.2 5.8M311.6 339.7l.5 5.6"/><path class="cls-24" d="M311.8 339.7l-.2-5.2-47.5 3.3.2 5.1 47.5-3.2"/><path class="cls-18" d="M264.3 341.4l1.5 1.5M264.8 337.8l4.6 4.8M268.4 337.6l4.8 4.8M272.2 337.3l4.8 4.8M275.8 337.1l4.8 4.8M279.7 336.6l4.8 5.1M283.5 336.4l4.8 4.8M287.1 336.1l4.8 4.8M291 335.9l4.8 4.8M294.6 335.7l5 4.8M298.4 335.4l4.8 4.8M302.2 335.2l4.8 4.8M305.8 334.9l5.1 4.8M309.7 334.7l2.1 2.2"/><path class="cls-19" d="M312.3 346l-47.5 3.1M312.6 349.3l-47.6 3.2"/><path class="cls-18" d="M311.8 339.7l-47.5 3.2M312.3 345.3l-47.5 3.3"/><path class="cls-19" d="M311.6 334.5l-47.5 3.3M311.8 339.7l-47.5 3.2"/><path class="cls-21" d="M312.6 349.3l-47.6 3.2M311.6 334.5l-47.5 3.3"/><path class="cls-25" d="M389.4 329.2l.9 14.9-37.2 2.4-.9-14.7 37.2-2.6"/><path class="cls-24" d="M390.3 344.1l-.2-3.6-37.2 2.6.2 3.4 37.2-2.4"/><path class="cls-18" d="M353.1 346.2l.5.3M354.1 343.1l3.1 3.1M357.9 342.9l3.1 3.1M361.5 342.4l3.4 3.3M365.4 342.1l3.1 3.4M369.2 341.9l3.1 3.4M372.8 341.7l3.4 3.3M376.6 341.4l3.4 3.4M380.2 341.2l3.4 3.3M384.1 340.9l3.3 3.4M387.9 340.7l2.4 2.4"/><path class="cls-24" d="M390.1 340.5v-.5l-37.2 2.6v.5l37.2-2.6M390.1 340l-.5-5.8-37 2.7.3 5.7 37.2-2.6"/><path class="cls-18" d="M352.9 338.5l.2 4.1M354.1 336.9l.5 5.7M355.5 336.6l.5 5.8M357 336.6l.4 5.8M358.4 336.4l.5 5.7M359.8 336.4l.3 5.7M361.3 336.1l.2 5.8M362.7 336.1l.3 5.8M363.9 336.1l.5 5.8M365.4 335.9l.4 5.8M366.8 335.9l.5 5.8M368.2 335.7l.5 5.7M369.7 335.7l.5 5.7M371.1 335.7l.5 5.7M372.6 335.4l.2 5.8M374 335.4l.2 5.8M375.4 335.2l.3 5.7M376.6 335.2l.5 5.7M378.1 334.9l.5 5.8M379.5 334.9l.5 5.8M381 334.9l.4 5.8M382.4 334.7l.5 5.8M383.8 334.7l.5 5.8M385.3 334.5l.2 5.7M386.7 334.5l.3 5.7M388.2 334.2l.2 6M389.4 334.2l.4 5.8"/><path class="cls-24" d="M389.6 334.2l-.2-5-37.2 2.6.4 5.1 37-2.7"/><path class="cls-18" d="M352.4 333.3l3.4 3.3M354.8 331.6l4.8 4.8M358.4 331.3l4.8 4.8M362.2 331.1l4.8 4.8M366.1 330.9l4.5 4.8M369.7 330.6l4.8 4.8M373.5 330.4l4.8 4.5M377.1 330.1l4.8 4.6M381 329.9l4.8 4.6M384.8 329.4l4.6 4.8M388.4 329.2l1.2 1.2"/><path class="cls-19" d="M390.1 340.5l-37.2 2.6M390.3 344.1l-37.2 2.4"/><path class="cls-18" d="M389.6 334.2l-37 2.7M390.1 340l-37.2 2.6"/><path class="cls-19" d="M389.4 329.2l-37.2 2.6M389.6 334.2l-37 2.7"/><path class="cls-21" d="M390.3 344.1l-37.2 2.4M389.4 329.2l-37.2 2.6M155.6 360.1l-.7-9.8M262.6 345.3l.5 7.4 3.4-.2.2 1.9-43.9 2.9v-2l3.4-.2-.5-7.2"/><path class="cls-1" d="M264.1 337.8l-40.8 2.9"/><path class="cls-21" d="M223.8 340.7h-.5"/><path class="cls-19" d="M263.1 352.7l3.4-.2M226.2 355.1l-3.4.2"/><path class="cls-21" d="M264.6 345.3l-40.8 2.6-.3-2.2 40.8-2.8.3 2.4zM260.7 345.5v-2.4M227.4 347.7v-2.2M264.3 342.9l.3 2.4M246.1 344.1v2.4M260.7 343.1v2.4M242 344.5v2.2M246.1 344.1v2.4M227.4 345.5v2.2M242 344.5v2.2M223.5 345.7l.3 2.2"/><path class="cls-24" d="M264.7 348.6l-1.8.1-.3-3.4 1.9-.1"/><path class="cls-18" d="M263.8 345.3l.3 3.3M264.7 348.6l-1.8.1-.3-3.4 1.9-.1"/><path class="cls-19" d="M264.3 342.9l-.2-5.1"/><path class="cls-24" d="M265 352.5l-1.9.2-.2-3.4 1.9-.2"/><path class="cls-18" d="M263.1 352.2l.5.5M264.1 349.1l.9 1"/><path class="cls-19" d="M265 352.5l-1.9.2-.2-3.4 1.9-.2M262.9 349.3l-.3-4"/><path class="cls-24" d="M224 351.4l1.8-.2-.2-3.4-1.8.2"/><path class="cls-18" d="M224.2 347.9l.3 3.4M225.7 347.9l.2 3.4M224 351.4l1.8-.2-.2-3.4-1.8.2"/><path class="cls-19" d="M223.5 345.7l-.2-5"/><path class="cls-24" d="M224.2 355.3l2-.2-.3-3.4-1.9.3"/><path class="cls-18" d="M224.2 353.4l1.7 1.7"/><path class="cls-19" d="M224.2 355.3l2-.2-.3-3.4-1.9.3M225.9 351.7l-.2-3.8"/><path class="cls-21" d="M351 339.3l.4 7.4 3.4-.2v1.6l-43.7 3.2-.2-2 3.3-.2-.4-7.2"/><path class="cls-1" d="M352.2 331.8l-40.6 2.7"/><path class="cls-21" d="M312.1 334.5h-.5"/><path class="cls-19" d="M351.4 346.7l3.4-.2M314.2 349.1l-3.3.2"/><path class="cls-21" d="M352.6 339l-40.5 2.9-.3-2.2 40.8-2.8v2.1zM349 339.5l-.2-2.4M315.7 341.7l-.3-2.2M352.6 336.9v2.1M334.2 338.1l.2 2.4M348.8 337.1l.2 2.4M330.1 338.3l.2 2.4M334.2 338.1l.2 2.4M315.4 339.5l.3 2.2M330.1 338.3l.2 2.4M311.8 339.7l.3 2.2"/><path class="cls-24" d="M352.9 342.5l-1.8.2-.2-3.4 1.8-.2"/><path class="cls-18" d="M351.4 339.3l.3 3.3M352.9 342.5l-1.8.2-.2-3.4 1.8-.2"/><path class="cls-19" d="M352.6 336.9l-.4-5.1"/><path class="cls-24" d="M353.1 346.5l-1.7.2-.2-3.4 1.7-.2"/><path class="cls-18" d="M351.4 344.3l1.7 1.9"/><path class="cls-19" d="M353.1 346.5l-1.7.2-.2-3.4 1.7-.2M351.2 343.3l-.2-4"/><path class="cls-24" d="M312.2 345.3l1.9-.1-.3-3.4-1.8.1"/><path class="cls-18" d="M313.3 341.9l.2 3.4M312.2 345.3l1.9-.1-.3-3.4-1.8.1"/><path class="cls-19" d="M311.8 339.7l-.2-5.2"/><path class="cls-24" d="M312.6 349.3l1.6-.2-.2-3.4-1.7.3"/><path class="cls-18" d="M312.8 346l1.4 1.2"/><path class="cls-19" d="M312.6 349.3l1.6-.2-.2-3.4-1.7.3M314 345.7l-.2-3.8"/><path class="cls-25" d="M57.2 144.9H42.6V97.6h14.6v47.3"/><path class="cls-24" d="M42.6 144.9h3.3V97.6h-3.3v47.3"/><path class="cls-18" d="M42.8 143.9l1 1M42.8 139.8l3.4 3.4M42.8 135.7l3.4 3.4M42.8 131.9l3.4 3.4M42.8 127.8l3.4 3.4M42.8 123.7l3.4 3.4M42.8 119.7l3.4 3.3M42.8 115.8l3.4 3.4M42.8 111.7l3.4 3.4M42.8 107.7l3.4 3.3M42.8 103.8l3.4 3.4M42.8 99.7l3.4 3.4M44.5 97.6l1.7 1.4"/><path class="cls-24" d="M45.9 144.9h.7V97.6h-.7v47.3M46.6 144.9h5.6V97.6h-5.6v47.3"/><path class="cls-18" d="M52.4 98.1h-5.5M52.4 99.5h-5.5M52.4 100.9h-5.5M52.4 102.4h-5.5M52.4 103.8h-5.5M52.4 105h-5.5M52.4 106.5h-5.5M52.4 107.9h-5.5M52.4 109.3h-5.5M52.4 110.8h-5.5M52.4 112.2h-5.5M52.4 113.7h-5.5M52.4 115.1h-5.5M52.4 116.5h-5.5M52.4 118h-5.5M52.4 119.2h-5.5M52.4 120.6h-5.5M52.4 122.1h-5.5M52.4 123.5h-5.5M52.4 124.9h-5.5M52.4 126.4h-5.5M52.4 127.8h-5.5M52.4 129.3h-5.5M52.4 130.7h-5.5M52.4 132.1h-5.5M52.4 133.6h-5.5M52.4 134.8h-5.5M52.4 136.2h-5.5M52.4 137.7h-5.5M52.4 139.1h-5.5M52.4 140.5h-5.5M52.4 142h-5.5M52.4 143.4h-5.5M52.4 144.9h-5.5"/><path class="cls-24" d="M52.2 144.9h5V97.6h-5v47.3"/><path class="cls-18" d="M52.4 141.5l3.4 3.4M52.4 137.4l5 5.1M52.4 133.3l5 5.1M52.4 129.3l5 5M52.4 125.4l5 5.1M52.4 121.3l5 5.1M52.4 117.3l5 5M52.4 113.4l5 5.1M52.4 109.3l5 5.1M52.4 105.3l5 5M52.4 101.4l5 5.1M52.6 97.6l4.8 4.8M56.5 97.6l.9.7"/><path class="cls-19" d="M45.9 144.9V97.6M42.6 144.9V97.6"/><path class="cls-18" d="M52.2 144.9V97.6M46.6 144.9V97.6"/><path class="cls-19" d="M57.2 144.9V97.6M52.2 144.9V97.6"/><path class="cls-21" d="M42.6 144.9V97.6M57.2 144.9V97.6"/><path class="cls-25" d="M57.2 254.5H42.6v-68.8h14.6v68.8"/><path class="cls-24" d="M42.6 254.5h3.3v-68.8h-3.3v68.8"/><path class="cls-18" d="M42.8 252.1l2.4 2.4M42.8 248.1l3.4 3.3M42.8 244l3.4 3.3M42.8 240.1l3.4 3.4M42.8 236.1l3.4 3.3M42.8 232l3.4 3.3M42.8 227.9l3.4 3.4M42.8 224.1l3.4 3.3M42.8 220l3.4 3.3M42.8 215.9l3.4 3.4M42.8 212.1l3.4 3.3M42.8 208l3.4 3.3M42.8 203.9l3.4 3.4M42.8 200.1l3.4 3.3M42.8 196l3.4 3.3M42.8 191.9l3.4 3.4M42.8 187.8l3.4 3.4M44.5 185.7l1.7 1.6"/><path class="cls-24" d="M45.9 254.5h.7v-68.8h-.7v68.8M46.6 254.5h5.6v-68.8h-5.6v68.8"/><path class="cls-18" d="M52.4 185.9h-5.5M52.4 187.3h-5.5M52.4 188.8h-5.5M52.4 190.2h-5.5M52.4 191.7h-5.5M52.4 193.1h-5.5M52.4 194.3h-5.5M52.4 195.7h-5.5M52.4 197.2h-5.5M52.4 198.6h-5.5M52.4 200.1h-5.5M52.4 201.5h-5.5M52.4 202.9h-5.5M52.4 204.4h-5.5M52.4 205.8h-5.5M52.4 207.3h-5.5M52.4 208.7h-5.5M52.4 209.9h-5.5M52.4 211.3h-5.5M52.4 212.8h-5.5M52.4 214.2h-5.5M52.4 215.7h-5.5M52.4 217.1h-5.5M52.4 218.5h-5.5M52.4 220h-5.5M52.4 221.4h-5.5M52.4 222.9h-5.5M52.4 224.1h-5.5M52.4 225.5h-5.5M52.4 226.9h-5.5M52.4 228.4h-5.5M52.4 229.8h-5.5M52.4 231.3h-5.5M52.4 232.7h-5.5M52.4 234.1h-5.5M52.4 235.6h-5.5M52.4 237h-5.5M52.4 238.5h-5.5M52.4 239.7h-5.5M52.4 241.1h-5.5M52.4 242.5h-5.5M52.4 244h-5.5M52.4 245.4h-5.5M52.4 246.9h-5.5M52.4 248.3h-5.5M52.4 249.7h-5.5M52.4 251.2h-5.5M52.4 252.6h-5.5M52.4 254.1h-5.5"/><path class="cls-24" d="M52.2 254.5h5v-68.8h-5v68.8"/><path class="cls-18" d="M52.4 253.6l.7.9M52.4 249.7l4.8 4.8M52.4 245.7l5 5M52.4 241.6l5 5M52.4 237.5l5 5M52.4 233.7l5 5M52.4 229.6l5 5M52.4 225.5l5 5M52.4 221.7l5 5M52.4 217.6l5 5M52.4 213.5l5 5M52.4 209.7l5 5M52.4 205.6l5 5M52.4 201.5l5 5M52.4 197.4l5 5.1M52.4 193.6l5 5M52.4 189.5l5 5M52.4 185.7l5 4.8M56.5 185.7l.9.9"/><path class="cls-19" d="M45.9 254.5v-68.8M42.6 254.5v-68.8"/><path class="cls-18" d="M52.2 254.5v-68.8M46.6 254.5v-68.8"/><path class="cls-19" d="M57.2 254.5v-68.8M52.2 254.5v-68.8"/><path class="cls-21" d="M42.6 254.5v-68.8M57.2 254.5v-68.8M42.6 254.5h3.3M45.9 254.5h.7M46.6 254.5h5.6"/><path class="cls-18" d="M52.2 254.5"/><path class="cls-19" d="M52.2 254.5h5"/><path class="cls-21" d="M50 183.7h-7.4v3.4h-2v-43.9h2v3.3H50"/><path class="cls-1" d="M57.2 185.7v-40.8"/><path class="cls-21" d="M57.2 145.3v-.4"/><path class="cls-19" d="M42.6 183.7v3.4M42.6 146.5v-3.3"/><path class="cls-21" d="M50 144.9h2.2v40.8H50zM50 182.1h2.2M50 148.5h2.2M52.2 185.7H50M52.2 167.2H50M52.2 182.1H50M52.2 163.1H50M52.2 167.2H50M52.2 148.5H50M52.2 163.1H50M52.2 144.9H50"/><path class="cls-24" d="M46.5 185.6v-1.8h3.4v1.8"/><path class="cls-18" d="M50.2 184.5h-3.3M46.5 185.6v-1.8h3.4v1.8"/><path class="cls-19" d="M52.2 185.7h5"/><path class="cls-24" d="M42.6 185.7v-2h3.3v2"/><path class="cls-18" d="M42.8 184l1.7 1.7"/><path class="cls-19" d="M42.6 185.7v-2h3.3v2M45.9 183.7H50"/><path class="cls-24" d="M46.5 144.8v1.9h3.4v-1.9"/><path class="cls-18" d="M50.2 146.3h-3.3M46.5 144.8v1.9h3.4v-1.9"/><path class="cls-19" d="M52.2 144.9h5"/><path class="cls-24" d="M42.6 144.9v1.6h3.3v-1.6"/><path class="cls-18" d="M43.8 144.9l1.6 1.6"/><path class="cls-19" d="M42.6 144.9v1.6h3.3v-1.6M45.9 146.5H50"/><path class="cls-24" d="M52.2 104.8h94l-7.4-7.2H52.2v7.2"/><path class="cls-18" d="M143.8 104.8l-7.2-7.2M140 104.8l-7.2-7.2M135.9 104.8l-7.2-7.2M131.8 104.8l-7.2-7.2M128 104.8l-7.2-7.2M123.9 104.8l-7.2-7.2M119.8 104.8l-7.2-7.2M115.8 104.8l-7.2-7.2M111.9 104.8l-7.2-7.2M107.8 104.8l-7.2-7.2M103.8 104.8l-7.2-7.2M99.9 104.8l-7.2-7.2M95.8 104.8l-7.2-7.2M91.8 104.8l-7.2-7.2M87.9 104.8l-7.2-7.2M83.8 104.8l-7.2-7.2M79.8 104.8l-7.2-7.2M75.7 104.8l-7.2-7.2M71.8 104.8l-7.2-7.2M67.8 104.8l-7.2-7.2M63.7 104.8l-7.2-7.2M59.8 104.8l-7.2-7.2M55.8 104.8l-3.4-3.4M145 104.8l.5-.7M141 104.8l2.6-2.7M136.9 104.8l4.8-4.6M132.8 104.8l6.7-6.7M129 104.8l7.2-7.2M124.9 104.8l7.2-7.2M120.8 104.8l7.2-7.2M117 104.8l7.2-7.2M112.9 104.8l7.2-7.2M108.8 104.8l7.2-7.2M105 104.8l7.2-7.2M100.9 104.8l7.2-7.2M96.8 104.8l7.2-7.2M92.7 104.8l7.2-7.2M88.9 104.8l7.2-7.2M84.8 104.8l7.2-7.2M80.7 104.8l7.2-7.2M76.9 104.8l7.2-7.2M72.8 104.8l7.2-7.2M68.7 104.8l7.2-7.2M64.9 104.8l7.2-7.2M60.8 104.8l7.2-7.2M56.7 104.8l7.2-7.2M52.6 104.8l7.2-7.2M52.4 101.2l3.6-3.6"/><path class="cls-24" d="M52.2 104.8h94l-7.4-7.2H52.2v7.2"/><path class="cls-18" d="M143.8 104.8l-7.2-7.2M140 104.8l-7.2-7.2M135.9 104.8l-7.2-7.2M131.8 104.8l-7.2-7.2M128 104.8l-7.2-7.2M123.9 104.8l-7.2-7.2M119.8 104.8l-7.2-7.2M115.8 104.8l-7.2-7.2M111.9 104.8l-7.2-7.2M107.8 104.8l-7.2-7.2M103.8 104.8l-7.2-7.2M99.9 104.8l-7.2-7.2M95.8 104.8l-7.2-7.2M91.8 104.8l-7.2-7.2M87.9 104.8l-7.2-7.2M83.8 104.8l-7.2-7.2M79.8 104.8l-7.2-7.2M75.7 104.8l-7.2-7.2M71.8 104.8l-7.2-7.2M67.8 104.8l-7.2-7.2M63.7 104.8l-7.2-7.2M59.8 104.8l-7.2-7.2M55.8 104.8l-3.4-3.4M145 104.8l.5-.7M141 104.8l2.6-2.7M136.9 104.8l4.8-4.6M132.8 104.8l6.7-6.7M129 104.8l7.2-7.2M124.9 104.8l7.2-7.2M120.8 104.8l7.2-7.2M117 104.8l7.2-7.2M112.9 104.8l7.2-7.2M108.8 104.8l7.2-7.2M105 104.8l7.2-7.2M100.9 104.8l7.2-7.2M96.8 104.8l7.2-7.2M92.7 104.8l7.2-7.2M88.9 104.8l7.2-7.2M84.8 104.8l7.2-7.2M80.7 104.8l7.2-7.2M76.9 104.8l7.2-7.2M72.8 104.8l7.2-7.2M68.7 104.8l7.2-7.2M64.9 104.8l7.2-7.2M60.8 104.8l7.2-7.2M56.7 104.8l7.2-7.2M52.6 104.8l7.2-7.2M52.4 101.2l3.6-3.6"/><path class="cls-19" d="M138.8 97.6H52.2M146.2 104.8h-94M52.2 97.6v7.2M146.2 104.8h-94M138.8 97.6H52.2"/><path class="cls-24" d="M138.8 97.6l7.4 7.2V9.3L138.8.1v97.5"/><path class="cls-18" d="M146.5 10.9L139 3.5M146.5 15L139 7.6M146.5 19.1l-7.5-7.4M146.5 22.9l-7.5-7.4M146.5 27l-7.5-7.4M146.5 31.1l-7.5-7.4M146.5 34.9l-7.5-7.4M146.5 39l-7.5-7.4M146.5 43.1l-7.5-7.4M146.5 47.2l-7.5-7.5M146.5 51l-7.5-7.4M146.5 55.1l-7.5-7.4M146.5 59.2l-7.5-7.5M146.5 63l-7.5-7.4M146.5 67.1l-7.5-7.4M146.5 71.2l-7.5-7.5M146.5 75l-7.5-7.4M146.5 79.1l-7.5-7.4M146.5 83.2l-7.5-7.5M146.5 87.3l-7.5-7.5M146.5 91.1l-7.5-7.4M146.5 95.2l-7.5-7.5M146.5 99.3l-7.5-7.5M146.5 103.1l-7.5-7.4M145.5 104.1l1-.8M143.6 102.1l2.9-2.8M141.7 100.2l4.8-4.8M139.5 98.1l7-6.8M139 94.7l7.5-7.4M139 90.9l7.5-7.5M139 86.8l7.5-7.5M139 82.7l7.5-7.4M139 78.6l7.5-7.4M139 74.8l7.5-7.5M139 70.7l7.5-7.4M139 66.6l7.5-7.4M139 62.8l7.5-7.5M139 58.7l7.5-7.4M139 54.6l7.5-7.4M139 50.8l7.5-7.5M139 46.7l7.5-7.4M139 42.6l7.5-7.4M139 38.5l7.5-7.4M139 34.7l7.5-7.4M139 30.6l7.5-7.4M139 26.5l7.5-7.4M139 22.7l7.5-7.4M139 18.6l7.5-7.4M139 14.5l6.5-6.4M139 10.5l4.6-4.6M139 6.6l2.9-2.9M139 2.5l1-.9"/><path class="cls-24" d="M138.8 97.6l7.4 7.2V9.3L138.8.1v97.5"/><path class="cls-18" d="M146.5 10.9L139 3.5M146.5 15L139 7.6M146.5 19.1l-7.5-7.4M146.5 22.9l-7.5-7.4M146.5 27l-7.5-7.4M146.5 31.1l-7.5-7.4M146.5 34.9l-7.5-7.4M146.5 39l-7.5-7.4M146.5 43.1l-7.5-7.4M146.5 47.2l-7.5-7.5M146.5 51l-7.5-7.4M146.5 55.1l-7.5-7.4M146.5 59.2l-7.5-7.5M146.5 63l-7.5-7.4M146.5 67.1l-7.5-7.4M146.5 71.2l-7.5-7.5M146.5 75l-7.5-7.4M146.5 79.1l-7.5-7.4M146.5 83.2l-7.5-7.5M146.5 87.3l-7.5-7.5M146.5 91.1l-7.5-7.4M146.5 95.2l-7.5-7.5M146.5 99.3l-7.5-7.5M146.5 103.1l-7.5-7.4M145.5 104.1l1-.8M143.6 102.1l2.9-2.8M141.7 100.2l4.8-4.8M139.5 98.1l7-6.8M139 94.7l7.5-7.4M139 90.9l7.5-7.5M139 86.8l7.5-7.5M139 82.7l7.5-7.4M139 78.6l7.5-7.4M139 74.8l7.5-7.5M139 70.7l7.5-7.4M139 66.6l7.5-7.4M139 62.8l7.5-7.5M139 58.7l7.5-7.4M139 54.6l7.5-7.4M139 50.8l7.5-7.5M139 46.7l7.5-7.4M139 42.6l7.5-7.4M139 38.5l7.5-7.4M139 34.7l7.5-7.4M139 30.6l7.5-7.4M139 26.5l7.5-7.4M139 22.7l7.5-7.4M139 18.6l7.5-7.4M139 14.5l6.5-6.4M139 10.5l4.6-4.6M139 6.6l2.9-2.9M139 2.5l1-.9"/><path class="cls-19" d="M138.8.1v97.5M146.2 61.6v43.2M146.2 9.3v45.3M146.2 61.6v43.2M138.8.1v97.5M146.2 9.3v45.3"/><path class="cls-24" d="M199.8 95.7h6.9V54.6l-6.9 7v34.1"/><path class="cls-18" d="M207 55.3l-.5-.2M207 59.4l-2.7-2.4M207 63.5l-4.6-4.6M207 67.6l-6.5-6.5M207 71.4l-7-6.9M207 75.5l-7-7M207 79.6l-7-7M207 83.4l-7-6.9M207 87.5l-7-7M207 91.6l-7-7M207 95.4l-7-6.9M202.9 95.7l-2.9-3.2M206.2 95.7l.8-.8M202.2 95.7l4.8-4.6M200 94l7-7M200 89.9l7-7M200 85.8l7-6.9M200 82l7-7M200 77.9l7-7M200 73.8l7-6.9M200 70l7-7M200 65.9l7-7M200 61.8l7-6.9"/><path class="cls-24" d="M199.8 95.7h6.9V54.6l-6.9 7v34.1"/><path class="cls-18" d="M207 55.3l-.5-.2M207 59.4l-2.7-2.4M207 63.5l-4.6-4.6M207 67.6l-6.5-6.5M207 71.4l-7-6.9M207 75.5l-7-7M207 79.6l-7-7M207 83.4l-7-6.9M207 87.5l-7-7M207 91.6l-7-7M207 95.4l-7-6.9M202.9 95.7l-2.9-3.2M206.2 95.7l.8-.8M202.2 95.7l4.8-4.6M200 94l7-7M200 89.9l7-7M200 85.8l7-6.9M200 82l7-7M200 77.9l7-7M200 73.8l7-6.9M200 70l7-7M200 65.9l7-7M200 61.8l7-6.9"/><path class="cls-19" d="M199.8 61.6v34.1M206.7 54.6v41.1M206.7 54.6v41.1M199.8 61.6v34.1"/><path class="cls-24" d="M146.2 54.6v7h53.6l6.9-7h-60.5"/><path class="cls-18" d="M206.5 55.1l-.5-.5M204.3 57l-2.4-2.4M202.4 58.9l-4.3-4.3M200.5 61.1l-6.5-6.5M196.9 61.6l-7-7M193 61.6l-6.9-7M189 61.6l-7-7M184.9 61.6l-7-7M180.8 61.6l-7-7M177 61.6l-7-7M172.9 61.6l-7-7M168.8 61.6l-7-7M165 61.6l-7-7M160.9 61.6l-7-7M156.8 61.6l-7-7M153 61.6l-6.5-6.5M148.9 61.6l-2.4-2.4M196.2 61.6l6.9-7M192.1 61.6l6.9-7M188.2 61.6l7-7M184.2 61.6l6.9-7M180.1 61.6l6.9-7M176 61.6l7-7M172.2 61.6l6.9-7M168.1 61.6l6.9-7M164 61.6l7-7M160.2 61.6l6.9-7M156.1 61.6l6.9-7M152 61.6l7-7M148.2 61.6l6.9-7M146.5 59.2l4.5-4.6M146.5 55.3l.5-.7"/><path class="cls-24" d="M146.2 54.6v7h53.6l6.9-7h-60.5"/><path class="cls-18" d="M206.5 55.1l-.5-.5M204.3 57l-2.4-2.4M202.4 58.9l-4.3-4.3M200.5 61.1l-6.5-6.5M196.9 61.6l-7-7M193 61.6l-6.9-7M189 61.6l-7-7M184.9 61.6l-7-7M180.8 61.6l-7-7M177 61.6l-7-7M172.9 61.6l-7-7M168.8 61.6l-7-7M165 61.6l-7-7M160.9 61.6l-7-7M156.8 61.6l-7-7M153 61.6l-6.5-6.5M148.9 61.6l-2.4-2.4M196.2 61.6l6.9-7M192.1 61.6l6.9-7M188.2 61.6l7-7M184.2 61.6l6.9-7M180.1 61.6l6.9-7M176 61.6l7-7M172.2 61.6l6.9-7M168.1 61.6l6.9-7M164 61.6l7-7M160.2 61.6l6.9-7M156.1 61.6l6.9-7M152 61.6l7-7M148.2 61.6l6.9-7M146.5 59.2l4.5-4.6M146.5 55.3l.5-.7"/><path class="cls-19" d="M201 54.6h-54.8M199.8 61.6h-53.6M199.8 61.6h-53.6M201 54.6h-54.8"/><path class="cls-24" d="M366.6 102.6l6.7-6.9H237v6.9h129.6"/><path class="cls-18" d="M372.3 96.6l-.9-.9M370.4 98.8l-3.1-3.1M368.5 100.7l-5.1-5M366.3 102.6l-6.9-6.9M362.2 102.6l-6.9-6.9M358.2 102.6l-7-6.9M354.3 102.6l-6.9-6.9M350.2 102.6l-6.9-6.9M346.2 102.6l-7-6.9M342.3 102.6l-6.9-6.9M338.2 102.6l-6.9-6.9M334.2 102.6l-7-6.9M330.1 102.6l-7-6.9M326.2 102.6l-6.9-6.9M322.2 102.6l-7-6.9M318.1 102.6l-7-6.9M314.2 102.6l-6.9-6.9M310.2 102.6l-7-6.9M306.1 102.6l-7-6.9M302.2 102.6l-6.9-6.9M298.2 102.6l-7-6.9M294.1 102.6l-7-6.9M290 102.6l-7-6.9M286.2 102.6l-7-6.9M282.1 102.6l-7-6.9M278 102.6l-7-6.9M274.2 102.6l-7-6.9M270.1 102.6l-7-6.9M266 102.6l-7-6.9M262.2 102.6l-7-6.9M258.1 102.6l-7-6.9M254 102.6l-7-6.9M249.9 102.6l-6.9-6.9M246.1 102.6l-7-6.9M242 102.6l-4.8-4.8M237.9 102.6l-.7-.9M363.7 102.6l6.9-6.9M359.6 102.6l7-6.9M355.5 102.6l7-6.9M351.4 102.6l7-6.9M347.6 102.6l7-6.9M343.5 102.6l7-6.9M339.4 102.6l7-6.9M335.6 102.6l7-6.9M331.5 102.6l7-6.9M327.4 102.6l7-6.9M323.6 102.6l7-6.9M319.5 102.6l7-6.9M315.4 102.6l7-6.9M311.4 102.6l6.9-6.9M307.5 102.6l7-6.9M303.4 102.6l7-6.9M299.4 102.6l6.9-6.9M295.5 102.6l7-6.9M291.4 102.6l7-6.9M287.4 102.6l6.9-6.9M283.3 102.6l6.9-6.9M279.4 102.6l7-6.9M275.4 102.6l6.9-6.9M271.3 102.6l6.9-6.9M267.4 102.6l7-6.9M263.4 102.6l6.9-6.9M259.3 102.6l6.9-6.9M255.4 102.6l7-6.9M251.4 102.6l6.9-6.9M247.3 102.6l6.9-6.9M243.2 102.6l7-6.9M239.4 102.6l6.9-6.9M237.2 100.9l5-5.2M237.2 96.9l1-1.2"/><path class="cls-24" d="M366.6 102.6l6.7-6.9H237v6.9h129.6"/><path class="cls-18" d="M372.3 96.6l-.9-.9M370.4 98.8l-3.1-3.1M368.5 100.7l-5.1-5M366.3 102.6l-6.9-6.9M362.2 102.6l-6.9-6.9M358.2 102.6l-7-6.9M354.3 102.6l-6.9-6.9M350.2 102.6l-6.9-6.9M346.2 102.6l-7-6.9M342.3 102.6l-6.9-6.9M338.2 102.6l-6.9-6.9M334.2 102.6l-7-6.9M330.1 102.6l-7-6.9M326.2 102.6l-6.9-6.9M322.2 102.6l-7-6.9M318.1 102.6l-7-6.9M314.2 102.6l-6.9-6.9M310.2 102.6l-7-6.9M306.1 102.6l-7-6.9M302.2 102.6l-6.9-6.9M298.2 102.6l-7-6.9M294.1 102.6l-7-6.9M290 102.6l-7-6.9M286.2 102.6l-7-6.9M282.1 102.6l-7-6.9M278 102.6l-7-6.9M274.2 102.6l-7-6.9M270.1 102.6l-7-6.9M266 102.6l-7-6.9M262.2 102.6l-7-6.9M258.1 102.6l-7-6.9M254 102.6l-7-6.9M249.9 102.6l-6.9-6.9M246.1 102.6l-7-6.9M242 102.6l-4.8-4.8M237.9 102.6l-.7-.9M363.7 102.6l6.9-6.9M359.6 102.6l7-6.9M355.5 102.6l7-6.9M351.4 102.6l7-6.9M347.6 102.6l7-6.9M343.5 102.6l7-6.9M339.4 102.6l7-6.9M335.6 102.6l7-6.9M331.5 102.6l7-6.9M327.4 102.6l7-6.9M323.6 102.6l7-6.9M319.5 102.6l7-6.9M315.4 102.6l7-6.9M311.4 102.6l6.9-6.9M307.5 102.6l7-6.9M303.4 102.6l7-6.9M299.4 102.6l6.9-6.9M295.5 102.6l7-6.9M291.4 102.6l7-6.9M287.4 102.6l6.9-6.9M283.3 102.6l6.9-6.9M279.4 102.6l7-6.9M275.4 102.6l6.9-6.9M271.3 102.6l6.9-6.9M267.4 102.6l7-6.9M263.4 102.6l6.9-6.9M259.3 102.6l6.9-6.9M255.4 102.6l7-6.9M251.4 102.6l6.9-6.9M247.3 102.6l6.9-6.9M243.2 102.6l7-6.9M239.4 102.6l6.9-6.9M237.2 100.9l5-5.2M237.2 96.9l1-1.2"/><path class="cls-19" d="M237 102.6h129.6M237 95.7h136.3M237 95.7h136.3M237 102.6h129.6"/><path class="cls-24" d="M204.6 95.7h-42.3l4.3 6.9h38v-6.9"/><path class="cls-18" d="M204.8 97.3l-1.9-1.6M204.8 101.4l-5.8-5.7M201.9 102.6l-6.9-6.9M197.8 102.6l-6.9-6.9M194 102.6l-7-6.9M189.9 102.6l-6.9-6.9M185.8 102.6l-6.9-6.9M181.8 102.6l-7-6.9M177.9 102.6l-6.9-6.9M173.8 102.6l-6.9-6.9M169.8 102.6l-7-6.9M203.1 102.6l1.7-1.4M199.3 102.6l5.5-5.5M195.2 102.6l7-6.9M191.1 102.6l7-6.9M187.3 102.6l6.9-6.9M183.2 102.6l7-6.9M179.1 102.6l7-6.9M175 102.6l7-6.9M171.2 102.6l7-6.9M167.1 102.6l7-6.9M165.4 100.5l4.6-4.8M163.8 97.8l2.4-2.1"/><path class="cls-24" d="M204.6 95.7h-42.3l4.3 6.9h38v-6.9"/><path class="cls-18" d="M204.8 97.3l-1.9-1.6M204.8 101.4l-5.8-5.7M201.9 102.6l-6.9-6.9M197.8 102.6l-6.9-6.9M194 102.6l-7-6.9M189.9 102.6l-6.9-6.9M185.8 102.6l-6.9-6.9M181.8 102.6l-7-6.9M177.9 102.6l-6.9-6.9M173.8 102.6l-6.9-6.9M169.8 102.6l-7-6.9M203.1 102.6l1.7-1.4M199.3 102.6l5.5-5.5M195.2 102.6l7-6.9M191.1 102.6l7-6.9M187.3 102.6l6.9-6.9M183.2 102.6l7-6.9M179.1 102.6l7-6.9M175 102.6l7-6.9M171.2 102.6l7-6.9M167.1 102.6l7-6.9M165.4 100.5l4.6-4.8M163.8 97.8l2.4-2.1"/><path class="cls-19" d="M166.6 102.6h38M162.3 95.7h37.5M166.6 102.6h38M162.3 95.7h37.5"/><path class="cls-21" d="M204.6 101.7h2.6v1.7h-2.6zM234.3 101.7h2.6v1.7h-2.6zM207.2 101.7h27.1v1.7h-27.1zM207.2 101.7h27.1"/><path class="cls-1" d="M206.7 95.7h27.9"/><path class="cls-21" d="M234.1 95.7h.5"/><path class="cls-24" d="M204.6 95.6h2.2v6h-2.2v1.1"/><path class="cls-18" d="M207 99.5l-2.2-2.2M205 101.7l-.2-.3M204.8 101.2L207 99M204.8 97.1l1.4-1.4"/><path class="cls-19" d="M206.8 95.6v6h-2.2v1.1"/><path class="cls-24" d="M237 95.7h-2.4v6h2.4v.9"/><path class="cls-18" d="M237.2 97.8l-2.2-2.1M237 101.7l-2.2-2.4M236.2 101.7l1-.8M234.8 99.3l2.4-2.4"/><path class="cls-19" d="M237 95.7h-2.4v6h2.4v.9"/><path class="cls-18" d="M207.1 130.5c14.9 0 27.2-12.3 27.2-27.2M207.2 103.3v27.2"/><path class="cls-24" d="M138.8.1l7.4 9.2H201l6.9-9.2h-69.1"/><path class="cls-18" d="M207.9.4l-.2-.3M206.2 2.5L203.6.1M204.3 4.9L199.8.1M202.6 7.1l-6.9-7M200.7 9.3L191.6.1M196.6 9.3L187.5.1M192.8 9.3L183.7.1M188.7 9.3L179.6.1M184.6 9.3L175.5.1M180.8 9.3L171.7.1M176.7 9.3L167.6.1M172.6 9.3L163.5.1M168.8 9.3L159.7.1M164.7 9.3L155.6.1M160.6 9.3L151.5.1M156.6 9.3L147.4.1M152.7 9.3L143.6.1M148.6 9.3L139.5.1M200.5 9.3l2.9-3.2M196.4 9.3l9.1-9.2M192.3 9.3l9.1-9.2M188.2 9.3l9.2-9.2M184.4 9.3l9.1-9.2M180.3 9.3l9.1-9.2M176.2 9.3l9.2-9.2M172.4 9.3l9.1-9.2M168.3 9.3l9.1-9.2M164.2 9.3l9.2-9.2M160.4 9.3l9.1-9.2M156.3 9.3l9.1-9.2M152.2 9.3l9.2-9.2M148.2 9.3l9.1-9.2M145.5 8.1l7.9-8M143.6 5.9l5.8-5.8M141.9 3.7l3.4-3.6M140 1.6l1.4-1.5"/><path class="cls-24" d="M138.8.1l7.4 9.2H201l6.9-9.2h-69.1"/><path class="cls-18" d="M207.9.4l-.2-.3M206.2 2.5L203.6.1M204.3 4.9L199.8.1M202.6 7.1l-6.9-7M200.7 9.3L191.6.1M196.6 9.3L187.5.1M192.8 9.3L183.7.1M188.7 9.3L179.6.1M184.6 9.3L175.5.1M180.8 9.3L171.7.1M176.7 9.3L167.6.1M172.6 9.3L163.5.1M168.8 9.3L159.7.1M164.7 9.3L155.6.1M160.6 9.3L151.5.1M156.6 9.3L147.4.1M152.7 9.3L143.6.1M148.6 9.3L139.5.1M200.5 9.3l2.9-3.2M196.4 9.3l9.1-9.2M192.3 9.3l9.1-9.2M188.2 9.3l9.2-9.2M184.4 9.3l9.1-9.2M180.3 9.3l9.1-9.2M176.2 9.3l9.2-9.2M172.4 9.3l9.1-9.2M168.3 9.3l9.1-9.2M164.2 9.3l9.2-9.2M160.4 9.3l9.1-9.2M156.3 9.3l9.1-9.2M152.2 9.3l9.2-9.2M148.2 9.3l9.1-9.2M145.5 8.1l7.9-8M143.6 5.9l5.8-5.8M141.9 3.7l3.4-3.6M140 1.6l1.4-1.5"/><path class="cls-19" d="M207.9.1h-69.1M201 9.3h-54.8M201 9.3h-54.8M207.9.1h-69.1"/><path class="cls-24" d="M373.3 95.7l-6.7 6.9 16 232.3 7-.7-16.3-238.5"/><path class="cls-18" d="M373.5 97.8l-1.2-1.2M373.8 102.1l-3.4-3.3M374.2 106.5l-5.7-5.8M374.5 110.8l-7.7-7.7M374.7 115.1l-7.7-7.7M375 119.4l-7.7-7.7M375.2 123.7l-7.7-7.6M375.7 128.1l-7.7-7.7M375.9 132.4l-7.7-7.7M376.2 136.7l-7.7-7.7M376.4 141l-7.7-7.9M376.9 145.1l-7.7-7.7M377.1 149.4l-7.7-7.7M377.4 153.7l-7.7-7.6M377.6 158.1l-7.7-7.7M378.1 162.4l-7.7-7.7M378.3 166.7l-7.7-7.7M378.6 171l-7.7-7.7M378.8 175.3l-7.7-7.6M379 179.7l-7.6-7.7M379.5 184l-7.7-7.7M379.8 188.3l-7.7-7.7M380 192.6l-7.7-7.7M380.2 196.9l-7.6-7.6M380.7 201.3l-7.7-7.7M381 205.3l-7.7-7.4M381.2 209.7l-7.7-7.5M381.4 214l-7.6-7.5M381.7 218.3l-7.5-7.7M382.2 222.6l-7.7-7.7M382.4 226.9l-7.7-7.6M382.6 231.3l-7.6-7.7M382.9 235.6l-7.5-7.7M383.4 239.9l-7.7-7.7M383.6 244.2l-7.7-7.7M383.8 248.5l-7.6-7.6M384.1 252.9l-7.5-7.7M384.6 257.2l-7.7-7.7M384.8 261.5l-7.7-7.7M385 265.6l-7.6-7.5M385.3 269.9l-7.5-7.4M385.5 274.2l-7.4-7.4M386 278.5l-7.7-7.4M386.2 282.9l-7.6-7.5M386.5 287.2l-7.5-7.5M386.7 291.5l-7.4-7.4M387.2 295.8l-7.7-7.7M387.4 300.1l-7.6-7.6M387.7 304.5l-7.5-7.7M387.9 308.8l-7.4-7.7M388.2 313.1l-7.5-7.7M388.6 317.4l-7.6-7.7M388.9 321.7l-7.7-7.6M389.1 326.1l-7.4-7.7M389.4 330.1l-7.5-7.4M389.4 334.2l-7.2-7.2M385.8 334.7l-3.4-3.4M388.4 334.5l1.2-1.5M383.8 334.7l5.6-5.3M382.6 332.1l6.5-6.5M382.4 328.5l6.5-6.8M382.2 324.6l6.4-6.5M381.7 321l6.7-6.7M381.4 317.2l6.8-6.5M381.2 313.3l6.7-6.4M381 309.7l6.7-6.7M380.7 305.9l6.7-6.5M380.5 302.1l6.5-6.5M380.2 298.5l6.5-6.8M380 294.6l6.5-6.5M379.8 291l6.4-6.7M379.5 287.2l6.5-6.7M379.3 283.3l6.5-6.4M379 279.7l6.5-6.7M378.6 275.9l6.7-6.5M378.3 272.1l6.7-6.5M378.1 268.5l6.7-6.8M377.8 264.6l6.8-6.5M377.6 261l6.7-6.7M377.4 257.2l6.7-6.7M377.1 253.3l6.7-6.4M376.9 249.7l6.7-6.7M376.6 245.9l6.5-6.5M376.4 242.3l6.5-6.7M376.2 238.5l6.4-6.8M375.9 234.6l6.5-6.5M375.7 231l6.5-6.7M375.2 227.2l6.7-6.7M375 223.3l6.7-6.4M374.7 219.7l6.7-6.7M374.5 215.9l6.7-6.7M374.2 212.3l6.8-6.7M374 208.5l6.7-6.8M373.8 204.6l6.7-6.5M373.5 201l6.7-6.7M373.3 197.2l6.7-6.7M373 193.3l6.5-6.4M372.8 189.7l6.5-6.7M372.6 185.9l6.4-6.7M372.1 182.3l6.7-6.7M371.8 178.5l6.8-6.8M371.6 174.6l6.7-6.7M371.4 171l6.7-6.7M371.1 167.2l6.7-6.7M370.9 163.3l6.7-6.4M370.6 159.7l6.8-6.7M370.4 155.9l6.7-6.7M370.2 152.3l6.7-6.7M369.9 148.5l6.7-6.8M369.7 144.6l6.7-6.7M369.4 141l6.5-6.7M369 137.2l6.7-6.7M368.7 133.3l6.7-6.4M368.5 129.7l6.7-6.7M368.2 125.9l6.8-6.7M368 122.3l6.7-6.7M367.8 118.5l6.7-6.8M367.5 114.6l6.7-6.7M367.3 111l6.7-6.7M367 107.2l6.8-6.7M366.8 103.6l6.7-7"/><path class="cls-24" d="M373.3 95.7l-6.7 6.9 16 232.3 7-.7-16.3-238.5"/><path class="cls-18" d="M373.5 97.8l-1.2-1.2M373.8 102.1l-3.4-3.3M374.2 106.5l-5.7-5.8M374.5 110.8l-7.7-7.7M374.7 115.1l-7.7-7.7M375 119.4l-7.7-7.7M375.2 123.7l-7.7-7.6M375.7 128.1l-7.7-7.7M375.9 132.4l-7.7-7.7M376.2 136.7l-7.7-7.7M376.4 141l-7.7-7.9M376.9 145.1l-7.7-7.7M377.1 149.4l-7.7-7.7M377.4 153.7l-7.7-7.6M377.6 158.1l-7.7-7.7M378.1 162.4l-7.7-7.7M378.3 166.7l-7.7-7.7M378.6 171l-7.7-7.7M378.8 175.3l-7.7-7.6M379 179.7l-7.6-7.7M379.5 184l-7.7-7.7M379.8 188.3l-7.7-7.7M380 192.6l-7.7-7.7M380.2 196.9l-7.6-7.6M380.7 201.3l-7.7-7.7M381 205.3l-7.7-7.4M381.2 209.7l-7.7-7.5M381.4 214l-7.6-7.5M381.7 218.3l-7.5-7.7M382.2 222.6l-7.7-7.7M382.4 226.9l-7.7-7.6M382.6 231.3l-7.6-7.7M382.9 235.6l-7.5-7.7M383.4 239.9l-7.7-7.7M383.6 244.2l-7.7-7.7M383.8 248.5l-7.6-7.6M384.1 252.9l-7.5-7.7M384.6 257.2l-7.7-7.7M384.8 261.5l-7.7-7.7M385 265.6l-7.6-7.5M385.3 269.9l-7.5-7.4M385.5 274.2l-7.4-7.4M386 278.5l-7.7-7.4M386.2 282.9l-7.6-7.5M386.5 287.2l-7.5-7.5M386.7 291.5l-7.4-7.4M387.2 295.8l-7.7-7.7M387.4 300.1l-7.6-7.6M387.7 304.5l-7.5-7.7M387.9 308.8l-7.4-7.7M388.2 313.1l-7.5-7.7M388.6 317.4l-7.6-7.7M388.9 321.7l-7.7-7.6M389.1 326.1l-7.4-7.7M389.4 330.1l-7.5-7.4M389.4 334.2l-7.2-7.2M385.8 334.7l-3.4-3.4M388.4 334.5l1.2-1.5M383.8 334.7l5.6-5.3M382.6 332.1l6.5-6.5M382.4 328.5l6.5-6.8M382.2 324.6l6.4-6.5M381.7 321l6.7-6.7M381.4 317.2l6.8-6.5M381.2 313.3l6.7-6.4M381 309.7l6.7-6.7M380.7 305.9l6.7-6.5M380.5 302.1l6.5-6.5M380.2 298.5l6.5-6.8M380 294.6l6.5-6.5M379.8 291l6.4-6.7M379.5 287.2l6.5-6.7M379.3 283.3l6.5-6.4M379 279.7l6.5-6.7M378.6 275.9l6.7-6.5M378.3 272.1l6.7-6.5M378.1 268.5l6.7-6.8M377.8 264.6l6.8-6.5M377.6 261l6.7-6.7M377.4 257.2l6.7-6.7M377.1 253.3l6.7-6.4M376.9 249.7l6.7-6.7M376.6 245.9l6.5-6.5M376.4 242.3l6.5-6.7M376.2 238.5l6.4-6.8M375.9 234.6l6.5-6.5M375.7 231l6.5-6.7M375.2 227.2l6.7-6.7M375 223.3l6.7-6.4M374.7 219.7l6.7-6.7M374.5 215.9l6.7-6.7M374.2 212.3l6.8-6.7M374 208.5l6.7-6.8M373.8 204.6l6.7-6.5M373.5 201l6.7-6.7M373.3 197.2l6.7-6.7M373 193.3l6.5-6.4M372.8 189.7l6.5-6.7M372.6 185.9l6.4-6.7M372.1 182.3l6.7-6.7M371.8 178.5l6.8-6.8M371.6 174.6l6.7-6.7M371.4 171l6.7-6.7M371.1 167.2l6.7-6.7M370.9 163.3l6.7-6.4M370.6 159.7l6.8-6.7M370.4 155.9l6.7-6.7M370.2 152.3l6.7-6.7M369.9 148.5l6.7-6.8M369.7 144.6l6.7-6.7M369.4 141l6.5-6.7M369 137.2l6.7-6.7M368.7 133.3l6.7-6.4M368.5 129.7l6.7-6.7M368.2 125.9l6.8-6.7M368 122.3l6.7-6.7M367.8 118.5l6.7-6.8M367.5 114.6l6.7-6.7M367.3 111l6.7-6.7M367 107.2l6.8-6.7M366.8 103.6l6.7-7"/><path class="cls-19" d="M389.6 334.2L373.3 95.7M382.6 334.9l-16-232.3M382.6 334.9l-16-232.3M389.6 334.2L373.3 95.7M389.6 334.2l-7 .7"/><path class="cls-25" d="M155.1 356.5l.3 3.6-13.7.8-.3-3.4 13.7-1"/><path class="cls-24" d="M155.4 360.1l-.3-3.6-13.7 1 .3 3.4 13.7-.8"/><path class="cls-18" d="M141.7 359.2l1.7 1.7M143.8 357.3l3.4 3.3M147.7 357l3.3 3.4M151.5 356.8l3.4 3.3M155.1 356.5h.3"/><path class="cls-19" d="M155.1 356.5l-13.7 1M155.4 360.1l-13.7.8"/><path class="cls-21" d="M155.4 360.1l-13.7.8M155.1 356.5l-13.7 1"/><path class="cls-25" d="M45.9 268.5h-3.3v-14h3.3v14"/><path class="cls-24" d="M42.6 268.5h3.3v-14h-3.3v14"/><path class="cls-18" d="M42.8 268.2l.2.3M42.8 264.1l3.4 3.4M42.8 260.1l3.4 3.3M42.8 256l3.4 3.3M45.2 254.5l1 1"/><path class="cls-19" d="M45.9 268.5v-14M42.6 268.5v-14"/><path class="cls-21" d="M42.6 268.5v-14M45.9 268.5v-14"/><path class="cls-25" d="M42.6 268.5c0 15.2 3.7 30.1 10.8 43.5l3.1-1.5c-6.9-12.9-10.5-27.4-10.5-42h-3.4"/><path class="cls-24" d="M46 268.5c0 14.7 3.6 29.1 10.5 42l-3.1 1.5c-7.1-13.4-10.8-28.3-10.8-43.5H46"/><path class="cls-18" d="M52.6 310.2l1.5 1.5M49.3 302.8l6.9 6.9M47.1 296.5l5.5 5.8M45.2 290.8l5 5M44.2 285.5l4.6 4.6M43.5 280.9l4.1 4.1M43 276.6l3.9 3.6M42.8 272.3l3.6 3.6M43 268.5l3.2 3.1"/><path class="cls-19" d="M42.6 268.5c0 15.2 3.7 30.1 10.8 43.5M46 268.5c0 14.7 3.6 29.1 10.5 42"/><path class="cls-21" d="M46 268.5c0 14.7 3.6 29.1 10.5 42M42.6 268.5c0 15.2 3.7 30.1 10.8 43.5"/><path class="cls-19" d="M53.4 311.9l3.1-1.4"/><path class="cls-25" d="M97.4 353.1c13.9 6.2 29 8.9 44.1 7.8l-.2-3.4c-14.6 1-29.3-1.6-42.6-7.6l-1.3 3.2"/><path class="cls-24" d="M98.7 350c13.4 6 28 8.6 42.6 7.6l.2 3.4c-15.1 1-30.3-1.7-44.1-7.8l1.3-3.2"/><path class="cls-18" d="M98.2 351.7l3.2 2.9M101.6 351l5.8 5.8M108.1 353.4l5 5.1M113.6 355.1l4.3 4.3M118.6 356.1l4.1 4.3M123.7 357l3.8 3.9M128 357.5l3.6 3.6M132.3 357.7l3.4 3.4M136.4 357.7l3.1 3.2M140.2 357.5l1.5 1.7"/><path class="cls-19" d="M98.7 350c13.4 6 28 8.6 42.6 7.6M97.4 353.1c13.9 6.2 29 8.9 44.1 7.8"/><path class="cls-21" d="M98.7 350c13.4 6 28 8.6 42.6 7.6M97.4 353.1c13.9 6.2 29 8.9 44.1 7.8"/><path class="cls-19" d="M98.7 350.1l-1.2 3.1"/><path class="cls-21" d="M366.6 61.6v34.1M358.9 61.6v34.1M351.2 61.6v34.1M343.5 61.6v34.1M335.8 61.6v34.1M328.4 61.6v34.1M320.7 61.6v34.1M313 61.6v34.1M248 54.6h122.4v5.5H248zM324.1 60.1l8.1 35.6M305.4 61.6v34.1M297.7 61.6v34.1M290 61.6v34.1M282.3 61.6v34.1M274.6 61.6v34.1M267 61.6v34.1M259.5 61.6v34.1M251.8 61.6v34.1"/><path class="cls-21" d="M246.6 53.2h125.3v8.4H246.6zM328.3 78.6l3.8 3.9M332.1 74.8l-3.8 3.8M332.2 82.5v-7.7M251.8 78.6l3.8 3.9M255.6 74.8l-3.8 3.8M255.7 82.5v-7.7"/><path class="cls-24" d="M299.6 159.5l.2 4.8h71.1l-.3-4.8h-71"/><path class="cls-18" d="M299.8 163.6l4.1-4.1M303.4 164.3l4.8-4.8M307.8 164.3l4.8-4.8M311.8 164.3l4.8-4.8M316.2 164.3l4.8-4.8M320.5 164.3l4.8-4.8M324.6 164.3l4.8-4.8M328.9 164.3l4.8-4.8M333.2 164.3l4.8-4.8M337.5 164.3l4.8-4.8M341.6 164.3l4.8-4.8M345.9 164.3l4.8-4.8M350.2 164.3l4.8-4.8M354.3 164.3l4.8-4.8M358.6 164.3l4.8-4.8M363 164.3l4.8-4.8M367 164.3l3.9-3.6"/><path class="cls-24" d="M299.6 159.5l.2 4.8h71.1l-.3-4.8h-71"/><path class="cls-18" d="M299.8 163.6l4.1-4.1M303.4 164.3l4.8-4.8M307.8 164.3l4.8-4.8M311.8 164.3l4.8-4.8M316.2 164.3l4.8-4.8M320.5 164.3l4.8-4.8M324.6 164.3l4.8-4.8M328.9 164.3l4.8-4.8M333.2 164.3l4.8-4.8M337.5 164.3l4.8-4.8M341.6 164.3l4.8-4.8M345.9 164.3l4.8-4.8M350.2 164.3l4.8-4.8M354.3 164.3l4.8-4.8M358.6 164.3l4.8-4.8M363 164.3l4.8-4.8M367 164.3l3.9-3.6"/><path class="cls-19" d="M370.6 159.5h-71M370.9 164.3h-71.1M370.9 164.3h-71.1M370.6 159.5h-71M370.6 159.5l.3 4.8"/><path class="cls-21" d="M373.8 104.5l2.6-.2.2 1.7-2.6.2-.2-1.7zM403.5 102.6l2.7-.2v1.7l-2.4.2-.3-1.7z"/><path class="cls-21" d="M376.4 104.3l27.1-1.7.3 1.7-27.2 1.7-.2-1.7z"/><path class="cls-1" d="M375.4 95.7h27.9"/><path class="cls-21" d="M402.8 95.7h.5"/><path class="cls-24" d="M373.3 95.6l-1.4 4.8 2.1 5.3-.1-1.1 2.2-.2-.6-8.8h-2.2"/><path class="cls-18" d="M375.7 95.9l-.3-.2M375.9 100.2l-2.9-2.9M375.9 104.3l-3.8-4.1M373.8 104.5l2.4-2.4M372.6 101.7l3.1-3.4M372.8 97.3l1.7-1.6"/><path class="cls-19" d="M374 105.7l-.1-1.1 2.2-.2-.6-8.8h-2.2"/><path class="cls-24" d="M207.9.1L201 9.3v2.6h6.9V.1"/><path class="cls-18" d="M208.2.6l-.3-.2M208.2 4.5l-2-2M208.2 8.5l-3.9-3.6M207.4 11.9l-4.8-4.8M203.4 11.9l-2.2-2.4M205.8 11.9l2.4-2.4M201.7 11.9l6.5-6.2M203.4 6.1l4.8-4.5"/><path class="cls-24" d="M207.9.1L201 9.3v2.6h6.9V.1"/><path class="cls-18" d="M208.2.6l-.3-.2M208.2 4.5l-2-2M208.2 8.5l-3.9-3.6M207.4 11.9l-4.8-4.8M203.4 11.9l-2.2-2.4M205.8 11.9l2.4-2.4M201.7 11.9l6.5-6.2M203.4 6.1l4.8-4.5"/><path class="cls-19" d="M207.9 11.9V.1M201 11.9V9.3M201 11.9V9.3M207.9 11.9V.1"/><path class="cls-24" d="M398.3 19.1h5.2l5.3 76.5h-5.4l.5 6.9 2.2-.1.1 1.1 10.2-.7-6.3-91.5-11.8.8"/><path class="cls-18" d="M410.2 14.3l-2.6-2.6M410.7 18.6l-6.9-6.7M411 22.9l-11.1-10.8M411.2 27.3l-7.4-7.5M403 19.1l-4.5-4.6M411.4 31.6l-7.4-7.5M399 19.1l-.5-.7M411.9 35.9l-7.7-7.4M412.2 40.2l-7.7-7.4M412.4 44.5l-7.4-7.4M412.9 48.9l-7.7-7.7M413.1 53.2l-7.7-7.7M413.4 57.5l-7.7-7.7M413.6 61.8l-7.4-7.7M414.1 66.1l-7.7-7.6M414.3 70.5l-7.7-7.7M414.6 74.8l-7.7-7.7M414.8 79.1l-7.4-7.7M415.3 83.4l-7.7-7.7M415.5 87.7l-7.7-7.6M415.8 92.1l-7.7-7.7M416.2 96.4l-7.9-7.7M416.5 100.7l-7.7-7.7M414.8 103.1l-7.4-7.4M411 103.3l-7.5-7.6M407.4 103.6l-1-1M406.2 102.4l-2.4-2.4M415.3 102.9l1.2-1M411 103.3l5.2-5.2M406.6 103.6l9.4-9.4M403.8 102.4l12-11.8M403.5 98.8l3.1-3.1M408.8 93.5l6.7-6.7M408.6 89.7l6.7-6.5M408.3 86.1l6.7-6.8M408.1 82.2l6.5-6.7M407.8 78.4l6.5-6.5M407.4 74.8l6.7-6.7M407.1 70.9l6.7-6.4M406.9 67.3l6.7-6.7M406.6 63.5l6.8-6.7M406.4 59.7l6.7-6.5M406.2 56.1l6.7-6.8M405.9 52.2l6.7-6.5M405.7 48.4l6.5-6.5M405.4 44.8l6.5-6.7M405.2 40.9l6.5-6.4M405 37.3l6.4-6.7M404.7 33.5l6.5-6.5M404.5 29.7l6.5-6.5M404 26.1l6.7-6.8M403.8 22.2l6.7-6.5M403 19.1l7.2-7.2M399 19.1l7.4-7.4M398.5 15.7l3.6-3.8"/><path class="cls-19" d="M416.4 102.8l-6.3-91.5-11.8.8m0 7h5.2l5.2 76.5h-5.4l.5 6.9 2.3-.2v1.1l10.3-.7"/><path class="cls-24" d="M154.5 345.3c-14.4 1-28.9-1.5-42.2-7.2l1.3 6.1c13.1 5.1 27.2 7.2 41.2 6.2l-.3-5.1"/><path class="cls-18" d="M154.9 348.1l-2.9-2.8M153 350.3l-4.8-4.8M149.1 350.5l-5-5M145.3 350.5l-5.5-5.2M141 350.3l-5.8-5.8M136.6 349.8l-6.4-6.2M131.8 349.1l-6.7-6.7M126.8 348.1l-7.4-7.2M121.3 346.7l-8.7-8.6M115.3 344.5l-1.7-1.6M151.8 350.5l2.8-3.1M147.7 350.5l5.3-5.2M143.8 350.5l4.8-5M140 350.3l4.8-4.8M136.4 349.8l4.6-4.5M132.8 349.3l4.6-4.5M129.4 348.6l4.4-4.3M126.3 347.9l4.1-4.3M123 347.2l4.3-4.3M119.8 346.2l4.1-4.1M117 345.3l3.8-3.9M114.1 344.1l3.8-3.9M113.1 340.9l1.9-1.9"/><path class="cls-24" d="M154.5 345.3c-14.4 1-28.9-1.5-42.2-7.2l1.3 6.1c13.1 5.1 27.2 7.2 41.2 6.2l-.3-5.1"/><path class="cls-18" d="M154.9 348.1l-2.9-2.8M153 350.3l-4.8-4.8M149.1 350.5l-5-5M145.3 350.5l-5.5-5.2M141 350.3l-5.8-5.8M136.6 349.8l-6.4-6.2M131.8 349.1l-6.7-6.7M126.8 348.1l-7.4-7.2M121.3 346.7l-8.7-8.6M115.3 344.5l-1.7-1.6M151.8 350.5l2.8-3.1M147.7 350.5l5.3-5.2M143.8 350.5l4.8-5M140 350.3l4.8-4.8M136.4 349.8l4.6-4.5M132.8 349.3l4.6-4.5M129.4 348.6l4.4-4.3M126.3 347.9l4.1-4.3M123 347.2l4.3-4.3M119.8 346.2l4.1-4.1M117 345.3l3.8-3.9M114.1 344.1l3.8-3.9M113.1 340.9l1.9-1.9"/><path class="cls-19" d="M113.6 344.2c13.1 5.1 27.2 7.2 41.2 6.2M112.3 338.1c13.3 5.7 27.8 8.2 42.2 7.2M112.3 338.1c13.3 5.7 27.8 8.2 42.2 7.2M113.6 344.2c13.1 5.1 27.2 7.2 41.2 6.2M154.4 345.3l.5 5"/><path class="cls-24" d="M61.2 295.2l6.1.9c-6.6-12.9-10.1-27.1-10.1-41.6h-5.1c0 14.1 3.1 27.9 9 40.7"/><path class="cls-18" d="M57.4 254.8l-.2-.3M57.4 258.9l-4.3-4.4M57.9 263.2l-5.5-5.3M58.4 267.7l-5.8-5.5M59.1 272.5l-6-6M60.6 277.8l-6.8-6.5M62.2 283.6l-7.4-7.2M64.9 290.3l-8.7-8.6M66.6 296.1l-8.4-8.4M62 295.3l-1-.9M66.1 295.8l.9-.7M62.5 295.6l3.1-3.4M60.6 293.4l3.8-3.8M59.4 290.5l3.8-3.8M58.2 287.7l4-4.1M57.2 284.8l4.1-4.1M56.2 281.7l4.1-4.1M55.5 278.5l4.1-4.3M54.6 275.2l4.3-4.1M54.1 271.8l4.3-4.3M53.4 268.5l4.5-4.6M52.9 264.9l4.8-4.6M52.6 261.3l4.8-4.8M52.4 257.4l2.9-2.9"/><path class="cls-24" d="M61.2 295.2l6.1.9c-6.6-12.9-10.1-27.1-10.1-41.6h-5.1c0 14.1 3.1 27.9 9 40.7"/><path class="cls-18" d="M57.4 254.8l-.2-.3M57.4 258.9l-4.3-4.4M57.9 263.2l-5.5-5.3M58.4 267.7l-5.8-5.5M59.1 272.5l-6-6M60.6 277.8l-6.8-6.5M62.2 283.6l-7.4-7.2M64.9 290.3l-8.7-8.6M66.6 296.1l-8.4-8.4M62 295.3l-1-.9M66.1 295.8l.9-.7M62.5 295.6l3.1-3.4M60.6 293.4l3.8-3.8M59.4 290.5l3.8-3.8M58.2 287.7l4-4.1M57.2 284.8l4.1-4.1M56.2 281.7l4.1-4.1M55.5 278.5l4.1-4.3M54.6 275.2l4.3-4.1M54.1 271.8l4.3-4.3M53.4 268.5l4.5-4.6M52.9 264.9l4.8-4.6M52.6 261.3l4.8-4.8M52.4 257.4l2.9-2.9"/><path class="cls-19" d="M52.2 254.5c0 14.1 3.1 27.9 9 40.7M57.3 254.5c0 14.5 3.5 28.7 10.1 41.6M57.3 254.5c0 14.5 3.5 28.7 10.1 41.6M52.2 254.5c0 14.1 3.1 27.9 9 40.7M57.2 254.5h-5"/><path class="cls-24" d="M59.4 304.7l7.9-8.6-6-.8-5.5 5.8 3.6 3.6"/><path class="cls-18" d="M67 296.5l-.4-.4M65.1 298.5l-3.1-3.2M63.2 300.6l-3.6-3.6M61.3 302.8l-3.6-3.6M58.4 303.5l7.7-7.7M56.5 301.6l6-6"/><path class="cls-24" d="M59.4 304.7l7.9-8.6-6-.8-5.5 5.8 3.6 3.6"/><path class="cls-18" d="M67 296.5l-.4-.4M65.1 298.5l-3.1-3.2M63.2 300.6l-3.6-3.6M61.3 302.8l-3.6-3.6M58.4 303.5l7.7-7.7M56.5 301.6l6-6"/><path class="cls-19" d="M61.3 295.3l-5.5 5.8M67.3 296.1l-7.9 8.6M55.8 301.1l3.6 3.6M67.3 296.1l-7.9 8.6M61.3 295.3l-5.5 5.8"/><path class="cls-24" d="M108.1 350.1l5.5-6-1.2-6-7.9 8.6 3.6 3.4"/><path class="cls-18" d="M113.6 342.9l-2.9-2.9M112.2 345.7l-3.4-3.6M110.2 347.7l-3.3-3.4M108.3 349.8l-3.3-3.3M108.1 350.1l1.2-1.2M106.2 348.1l6.9-7.2"/><path class="cls-24" d="M108.1 350.1l5.5-6-1.2-6-7.9 8.6 3.6 3.4"/><path class="cls-18" d="M113.6 342.9l-2.9-2.9M112.2 345.7l-3.4-3.6M110.2 347.7l-3.3-3.4M108.3 349.8l-3.3-3.3M108.1 350.1l1.2-1.2M106.2 348.1l6.9-7.2"/><path class="cls-19" d="M112.4 338.1l-7.9 8.6M113.6 344.1l-5.5 6M104.5 346.7l3.6 3.4M113.6 344.1l-5.5 6M112.4 338.1l-7.9 8.6"/><path class="cls-24" d="M186.3 255l-4.3-1.4 6.2 89.5 4.1-.5-6-87.6"/><path class="cls-18" d="M182.2 255.7l1.7-1.6M182.5 259.6l4.1-3.9M182.7 263.7l4.1-4.1M183.2 267.5l3.8-3.8M183.4 271.6l3.9-3.9M183.7 275.7l3.8-4.1M183.9 279.5l3.9-3.8M184.2 283.6l4-4.1M184.4 287.4l4.1-3.8M184.6 291.5l4.1-3.8M185.1 295.3l3.9-3.8M185.4 299.4l3.8-3.8M185.6 303.3l3.8-3.9M185.8 307.3l3.9-3.8M186.1 311.4l3.8-4.1M186.3 315.3l4.1-3.9M186.8 319.3l3.8-3.8M187 323.2l3.9-3.9M187.3 327.3l3.8-3.9M187.5 331.1l3.9-3.8M187.8 335.2l3.8-3.9M188 339l3.8-3.8M188.2 343.1l4.1-3.8"/><path class="cls-24" d="M186.3 255l-4.3-1.4 6.2 89.5 4.1-.5-6-87.6"/><path class="cls-18" d="M182.2 255.7l1.7-1.6M182.5 259.6l4.1-3.9M182.7 263.7l4.1-4.1M183.2 267.5l3.8-3.8M183.4 271.6l3.9-3.9M183.7 275.7l3.8-4.1M183.9 279.5l3.9-3.8M184.2 283.6l4-4.1M184.4 287.4l4.1-3.8M184.6 291.5l4.1-3.8M185.1 295.3l3.9-3.8M185.4 299.4l3.8-3.8M185.6 303.3l3.8-3.9M185.8 307.3l3.9-3.8M186.1 311.4l3.8-4.1M186.3 315.3l4.1-3.9M186.8 319.3l3.8-3.8M187 323.2l3.9-3.9M187.3 327.3l3.8-3.9M187.5 331.1l3.9-3.8M187.8 335.2l3.8-3.9M188 339l3.8-3.8M188.2 343.1l4.1-3.8"/><path class="cls-19" d="M192.3 342.6l-6-87.6M188.2 343.1l-6.2-89.5M188.2 343.1l-6.2-89.5M192.3 342.6l-6-87.6M192.3 342.6l-4.1.5"/><path class="cls-24" d="M57.2 220.7H147l-1.7-4.1H57.2v4.1"/><path class="cls-18" d="M57.4 219l2.4-2.4M60.1 220.7l4.1-4.1M64.2 220.7l4-4.1M68.5 220.7l4.1-4.1M72.8 220.7l4.1-4.1M77.1 220.7l4.1-4.1M81.2 220.7l4.1-4.1M85.5 220.7l4.1-4.1M89.8 220.7l4.1-4.1M93.9 220.7l4.1-4.1M98.2 220.7l4.1-4.1M102.6 220.7l4-4.1M106.6 220.7l4.1-4.1M111 220.7l4-4.1M115.3 220.7l4.1-4.1M119.6 220.7l4.1-4.1M123.7 220.7l4.1-4.1M128 220.7l4.1-4.1M132.3 220.7l4.1-4.1M136.4 220.7l4.1-4.1M140.7 220.7l4.1-4.1M145 220.7l1.5-1.4"/><path class="cls-24" d="M57.2 220.7H147l-1.7-4.1H57.2v4.1"/><path class="cls-18" d="M57.4 219l2.4-2.4M60.1 220.7l4.1-4.1M64.2 220.7l4-4.1M68.5 220.7l4.1-4.1M72.8 220.7l4.1-4.1M77.1 220.7l4.1-4.1M81.2 220.7l4.1-4.1M85.5 220.7l4.1-4.1M89.8 220.7l4.1-4.1M93.9 220.7l4.1-4.1M98.2 220.7l4.1-4.1M102.6 220.7l4-4.1M106.6 220.7l4.1-4.1M111 220.7l4-4.1M115.3 220.7l4.1-4.1M119.6 220.7l4.1-4.1M123.7 220.7l4.1-4.1M128 220.7l4.1-4.1M132.3 220.7l4.1-4.1M136.4 220.7l4.1-4.1M140.7 220.7l4.1-4.1M145 220.7l1.5-1.4"/><path class="cls-19" d="M145.3 216.6H57.2M147 220.7H57.2M57.2 216.6v4.1M147 220.7H57.2M145.3 216.6H57.2"/><path class="cls-24" d="M145.3 216.6l1.7 4.1 19.6-20.9-4.3-1.7-17 18.5"/><path class="cls-18" d="M152 209.4l11-11M146.5 219.3l19.7-19.7"/><path class="cls-24" d="M145.3 216.6l1.7 4.1 19.6-20.9-4.3-1.7-17 18.5"/><path class="cls-18" d="M152 209.4l11-11M146.5 219.3l19.7-19.7"/><path class="cls-19" d="M162.3 198.1l-17 18.5M163.8 202.9L147 220.7M163.8 202.9L147 220.7M162.3 198.1l-17 18.5"/><path class="cls-24" d="M203.6 236.8l-1.9-4.3-19.7 21.1 4.3 1.4 17.3-18.2"/><path class="cls-18" d="M183.9 254.1l19-19"/><path class="cls-24" d="M203.6 236.8l-1.9-4.3-19.7 21.1 4.3 1.4 17.3-18.2"/><path class="cls-18" d="M183.9 254.1l19-19"/><path class="cls-19" d="M186.3 255l17.3-18.2M182 253.6l16.8-18M182 253.6l16.8-18M186.3 255l17.3-18.2"/><path class="cls-21" d="M199.5 230.8l-2.9 3.1M168.6 201.7l-2.9 3.2"/><path class="cls-19" d="M201.7 232.5l-2.9 3.1M166.6 199.8l-2.8 3.1"/><path class="cls-18" d="M181.2 219.3c-3.8 4.1-5.9 9.6-5.7 15.2.2 5.6 2.6 11 6.7 14.8M151.1 220.4c8.5 8 22.1 7.5 30-1M196.6 233.9l-14.4 15.4M165.7 204.9L151 220.5"/><path class="cls-24" d="M300.1 230.1l-.3-4.4-18.4 1.5.2 4.1 18.5-1.2"/><path class="cls-18" d="M300.1 228.9l-2.9-2.9M297.4 230.3l-4-4.1M293.6 230.5l-3.8-4M290 230.8l-4.1-3.9M286.2 231l-3.9-3.8M282.3 231.3l-.7-.8M296 230.3l4.1-4.1M291.7 230.5l4.5-4.5M287.4 230.8l4.5-4.3M283 231.3l4.6-4.6M281.6 228.6l1.7-1.7"/><path class="cls-24" d="M300.1 230.1l-.3-4.4-18.4 1.5.2 4.1 18.5-1.2"/><path class="cls-18" d="M300.1 228.9l-2.9-2.9M297.4 230.3l-4-4.1M293.6 230.5l-3.8-4M290 230.8l-4.1-3.9M286.2 231l-3.9-3.8M282.3 231.3l-.7-.8M296 230.3l4.1-4.1M291.7 230.5l4.5-4.5M287.4 230.8l4.5-4.3M283 231.3l4.6-4.6M281.6 228.6l1.7-1.7"/><path class="cls-19" d="M281.6 231.3l18.5-1.2M281.4 227.2l18.4-1.5M281.4 227.2l18.4-1.5M281.6 231.3l18.5-1.2"/><path class="cls-24" d="M256.2 228.9l-54.5 3.6 1.9 4.3 53-3.6-.4-4.3"/><path class="cls-18" d="M256.4 229.1l-.5-.2M256.4 233.2l-4.1-4.1M252.6 233.4l-4.1-4.1M248.7 233.7l-4.1-4.1M245.1 233.9l-4.1-4.1M241.3 234.1l-4.1-4M237.7 234.4l-4.3-4.1M233.8 234.6l-4-4.1M230 235.1l-4.1-4.3M226.4 235.3l-4.3-4.3M222.6 235.6l-4.1-4.3M218.7 235.8l-4.1-4.3M215.1 236.1l-4.3-4.4M211.3 236.3l-4.1-4.1M207.4 236.5l-4-4M203.8 236.8h-.2M252.8 233.4l3.6-3.6M248.5 233.7l4.5-4.6M244.2 234.1l4.8-4.8M239.8 234.4l4.8-4.8M235.5 234.6l4.8-4.8M231.2 234.9l4.8-4.6M226.9 235.1l4.8-4.6M222.6 235.6l4.8-4.8M218.5 235.8l4.5-4.8M214.2 236.1l4.5-4.8M209.8 236.3l4.8-4.8M205.5 236.8l4.8-4.8M202.9 235.1l3.1-2.9"/><path class="cls-24" d="M256.2 228.9l-54.5 3.6 1.9 4.3 53-3.6-.4-4.3"/><path class="cls-18" d="M256.4 229.1l-.5-.2M256.4 233.2l-4.1-4.1M252.6 233.4l-4.1-4.1M248.7 233.7l-4.1-4.1M245.1 233.9l-4.1-4.1M241.3 234.1l-4.1-4M237.7 234.4l-4.3-4.1M233.8 234.6l-4-4.1M230 235.1l-4.1-4.3M226.4 235.3l-4.3-4.3M222.6 235.6l-4.1-4.3M218.7 235.8l-4.1-4.3M215.1 236.1l-4.3-4.4M211.3 236.3l-4.1-4.1M207.4 236.5l-4-4M203.8 236.8h-.2M252.8 233.4l3.6-3.6M248.5 233.7l4.5-4.6M244.2 234.1l4.8-4.8M239.8 234.4l4.8-4.8M235.5 234.6l4.8-4.8M231.2 234.9l4.8-4.6M226.9 235.1l4.8-4.6M222.6 235.6l4.8-4.8M218.5 235.8l4.5-4.8M214.2 236.1l4.5-4.8M209.8 236.3l4.8-4.8M205.5 236.8l4.8-4.8M202.9 235.1l3.1-2.9"/><path class="cls-19" d="M203.6 236.8l53-3.6M201.7 232.5l54.5-3.6M201.7 232.5l54.5-3.6M203.6 236.8l53-3.6M201.7 232.5l1.9 4.3M299.8 225.7l.3 4.4"/><path class="cls-1" d="M256.6 233.2l25-1.9M256.2 228.9l25.2-1.7"/><path class="cls-21" d="M257.8 232.9l-.2-4.3M280.4 231.5l-.2-4.3"/><path class="cls-19" d="M256.6 233.2l-.4-4.3M281.6 231.3l-.2-4.1"/><path class="cls-18" d="M257.8 233c.8 12.4 11.8 21.9 24.2 21.1M280.4 231.5l1.7 22.6"/><path class="cls-24" d="M162.3 198.1l4.3 1.7v-53.5h-4.3v51.8"/><path class="cls-18" d="M166.9 147.7l-1.5-1.4M166.9 151.6l-4.3-4.3M166.9 155.7l-4.3-4.4M166.9 159.7l-4.3-4.3M166.9 163.6l-4.3-4.3M166.9 167.7l-4.3-4.4M166.9 171.7l-4.3-4.3M166.9 175.8l-4.3-4.3M166.9 179.7l-4.3-4.4M166.9 183.7l-4.3-4.3M166.9 187.8l-4.3-4.3M166.9 191.7l-4.3-4.4M166.9 195.7l-4.3-4.3M166.9 199.8l-4.3-4.3M166.4 199.6l.5-.5M163.5 198.6l3.4-3.3M162.6 195.5l4.3-4.3M162.6 191.4l4.3-4.3M162.6 187.6l4.3-4.3M162.6 183.5l4.3-4.3M162.6 179.4l4.3-4.3M162.6 175.6l4.3-4.3M162.6 171.5l4.3-4.3M162.6 167.4l4.3-4.3M162.6 163.3l4.3-4.3M162.6 159.5l4.3-4.3M162.6 155.4l4.3-4.3M162.6 151.3l4.3-4.3M162.6 147.5l.9-1.2"/><path class="cls-24" d="M162.3 198.1l4.3 1.7v-53.5h-4.3v51.8"/><path class="cls-18" d="M166.9 147.7l-1.5-1.4M166.9 151.6l-4.3-4.3M166.9 155.7l-4.3-4.4M166.9 159.7l-4.3-4.3M166.9 163.6l-4.3-4.3M166.9 167.7l-4.3-4.4M166.9 171.7l-4.3-4.3M166.9 175.8l-4.3-4.3M166.9 179.7l-4.3-4.4M166.9 183.7l-4.3-4.3M166.9 187.8l-4.3-4.3M166.9 191.7l-4.3-4.4M166.9 195.7l-4.3-4.3M166.9 199.8l-4.3-4.3M166.4 199.6l.5-.5M163.5 198.6l3.4-3.3M162.6 195.5l4.3-4.3M162.6 191.4l4.3-4.3M162.6 187.6l4.3-4.3M162.6 183.5l4.3-4.3M162.6 179.4l4.3-4.3M162.6 175.6l4.3-4.3M162.6 171.5l4.3-4.3M162.6 167.4l4.3-4.3M162.6 163.3l4.3-4.3M162.6 159.5l4.3-4.3M162.6 155.4l4.3-4.3M162.6 151.3l4.3-4.3M162.6 147.5l.9-1.2"/><path class="cls-19" d="M162.3 146.3v51.8M166.6 146.3v53.5M166.6 146.3v53.5M162.3 146.3v51.8"/><path class="cls-24" d="M166.6 121.1v-18.5l-4.3-6.9v25.4h4.3"/><path class="cls-18" d="M166.9 103.6l-4.3-4.3M166.9 107.7l-4.3-4.4M166.9 111.5l-4.3-4.3M166.9 115.6l-4.3-4.3M166.9 119.7l-4.3-4.4M164.2 121.1l-1.6-1.9M164.7 121.1l2.2-2.2M162.6 119.4l4.3-4.3M162.6 115.3l4.3-4.3M162.6 111.3l4.3-4.4M162.6 107.4l4.3-4.3M162.6 103.3l2.8-2.8M162.6 99.3l1.2-1.5"/><path class="cls-24" d="M166.6 121.1v-18.5l-4.3-6.9v25.4h4.3"/><path class="cls-18" d="M166.9 103.6l-4.3-4.3M166.9 107.7l-4.3-4.4M166.9 111.5l-4.3-4.3M166.9 115.6l-4.3-4.3M166.9 119.7l-4.3-4.4M164.2 121.1l-1.6-1.9M164.7 121.1l2.2-2.2M162.6 119.4l4.3-4.3M162.6 115.3l4.3-4.3M162.6 111.3l4.3-4.4M162.6 107.4l4.3-4.3M162.6 103.3l2.8-2.8M162.6 99.3l1.2-1.5"/><path class="cls-19" d="M162.3 95.7v25.4M166.6 102.6v18.5M166.6 102.6v18.5M162.3 95.7v25.4M162.3 198.1l4.3 1.7"/><path class="cls-1" d="M162.3 121.1v25.2M166.6 121.1v25.2"/><path class="cls-21" d="M162.3 122.5h4.3M162.3 145.1h4.3"/><path class="cls-19" d="M162.3 121.1h4.3M162.3 146.3h4.3"/><path class="cls-18" d="M139.6 122.4c0 12.4 10.2 22.7 22.7 22.7M162.3 122.5h-22.5M52.2 165.2h1.9c.6 0 1.2.2 1.8.3.6.1 1.2.3 1.8.5l1.8.6c.6.2 1.1.5 1.7.8.5.3 1.1.6 1.6 1 .5.3 1 .7 1.5 1.1.5.4.9.8 1.4 1.3.4.4.9.9 1.3 1.4.4.5.8 1 1.1 1.5.3.5.7 1.1 1 1.6.3.5.6 1.1.8 1.7l.6 1.8c.2.6.3 1.2.5 1.8l.3 1.8v1.9M71.1 184.2H52.2M52.2 165.3l1.4-.3M55 165l1-.2M56 164.8l.5-.3"/><path class="cls-10" d="M57.7 164.3l1.7-.5"/><path class="cls-18" d="M60.6 163.1l.4-.2M61 162.9l.8-.5M63 161.7l1.2-.8"/><path class="cls-13" d="M64.2 160.9l1.4-1.2"/><path class="cls-18" d="M65.6 159.7l.7-.9M67.3 157.8l.7-.9"/><path class="cls-23" d="M68 156.9l1-1.7"/><path class="cls-18" d="M69 155.2l.4-1M69.9 152.8l.5-1"/><path class="cls-8" d="M70.4 151.8l.5-1.9"/><path class="cls-18" d="M70.9 149.9l.2-1.2M71.1 147.3v-1"/><path class="cls-5" d="M71.1 146.3H52.2"/><path class="cls-18" d="M52.6 146.3h-.4M243.8 344.2c0-.6-.1-1.2-.2-1.8-.1-.6-.2-1.2-.4-1.8l-.6-1.8c-.2-.6-.5-1.1-.7-1.7-.3-.6-.6-1.1-.9-1.6-.3-.5-.7-1-1.1-1.5-.4-.5-.8-1-1.2-1.4-.4-.5-.9-.9-1.3-1.3l-1.5-1.2c-.5-.4-1-.7-1.6-1-.5-.3-1.1-.6-1.7-.8-.6-.3-1.1-.5-1.7-.7-.6-.2-1.2-.4-1.8-.5l-1.8-.3c-.6 0-1.2-.1-1.9-.1h-1.9M223.5 326.5l1.5 19M243.9 344.3l-.2-1.4M243.7 341.4l.2-.9M243.9 340.5v-.5"/><path class="cls-10" d="M244.2 338.8l.7-1.9"/><path class="cls-18" d="M245.1 335.9l.3-.7M245.4 335.2l.2-.5"/><path class="cls-7" d="M246.3 333.5l1-1.7"/><path class="cls-18" d="M247.8 331.1l.7-.7M248.5 330.4l.2-.3"/><path class="cls-6" d="M249.7 329.2l1.4-1.2"/><path class="cls-18" d="M252.1 327.3l.7-.5M252.8 326.8l.5-.3"/><path class="cls-12" d="M254.2 325.8l1.7-.7"/><path class="cls-18" d="M257.1 324.9l.7-.3M257.8 324.6l.8-.2"/><path class="cls-9" d="M259.5 324.1l1.9-.2"/><path class="cls-5" d="M261.4 323.9l1.2 19"/><path class="cls-18" d="M262.6 342.4v.5M332 338.2c0-.6-.1-1.2-.2-1.8-.1-.6-.2-1.2-.4-1.8l-.6-1.8c-.2-.6-.5-1.1-.7-1.7-.3-.6-.6-1.1-.9-1.6-.3-.5-.7-1-1.1-1.5-.4-.5-.8-1-1.2-1.4-.4-.5-.9-.9-1.3-1.3l-1.5-1.2c-.5-.4-1-.7-1.6-1-.5-.3-1.1-.6-1.7-.8-.6-.3-1.1-.5-1.7-.7-.6-.2-1.2-.4-1.8-.5l-1.8-.3c-.6 0-1.2-.1-1.9-.1h-1.9M311.8 320.5l1.2 19M332 338.3v-1.4M332 335.4l.2-.9"/><path class="cls-17" d="M332.2 334.5l.3-2"/><path class="cls-18" d="M332.5 332.5l.5-1.4M333.4 329.7l.3-.5M333.7 329.2l.5-.7"/><path class="cls-11" d="M334.6 327.5l1-1.7"/><path class="cls-18" d="M336.6 324.6l.2-.2M336.8 324.4l.7-.7M338.5 322.7l.9-.7"/><path class="cls-23" d="M339.4 322l1.5-1.2"/><path class="cls-18" d="M340.9 320.8l.9-.5M343 319.6l1.2-.5"/><path class="cls-20" d="M344.2 319.1l1.7-.5"/><path class="cls-18" d="M345.9 318.6l1.2-.2M348.6 318.1l1.2-.2"/><path class="cls-5" d="M349.8 317.9l1.2 19"/><path class="cls-18" d="M351 336.4v.5M74.9 319.1c3.6-3.9 5.6-9.1 5.4-14.4-.2-5.3-2.5-10.4-6.4-14M74 290.8l-13.7 14.6"/><path class="cls-5" d="M75 319.1l2.8-2.6 3.4-2 3.8-1.2 3.9-.4 4.1.2 3.8 1 3.4 1.6 3.1 2.4"/><path class="cls-14" d="M103.3 318.1l-13.7 14.7"/><path class="cls-21" d="M373 330.4l-11.5-168.5"/></g><g id="Mbel"><path class="cls-2" d="M285.4 197.2l-4-56.6 10.8-.8 3.8 56.7-10.6.7zM58.4 188.8H115v28.3H58.4zM58.4 106.2H115v15.6H58.4zM246.6 195.3L224 197l-3.6-50.9 22.8-1.7 3.4 50.9zM220.4 165.2l-8.5.6.8 12.7 8.5-.6M219 147.9l-8.5.6.9 12.7 8.5-.6M221.6 182.9l-8.5.6.9 12.7 8.4-.6M244.6 145.8l8.5-.6.9 12.7-8.5.6M245.8 163.5l8.5-.6.9 12.7-8.5.6M247 181.2l8.5-.6.9 12.7-8.5.6M81.4 259.6h28.3v14.2H81.4zM69 228.8V248l.1.1.1.1h25.7c.1 0 .2-.1.3-.2 0 0 .1-.2.2-.3s0-.2 0-.3v-18.7H68.8M64.4 225.1V248l.1.1.1.1H68.2c.1 0 .2-.1.3-.2 0 0 .1-.2.2-.3V225v-.3c0-.1-.1-.2-.2-.3 0 0-.2-.1-.3-.2H64.8c-.1 0-.2.1-.3.2 0 0-.1.2-.2.3v.3M95.6 228.8v-3.7-.3c0-.1.1-.2.2-.3s.2-.1.3-.2h25.5c.1 0 .2.1.3.2 0 0 .1.2.2.3v4M122.2 231H69"/><path class="cls-2" d="M122.3 228.8V248l-.1.1-.1.1h-.1-.2-25.4c-.1 0-.2-.1-.3-.2 0 0-.1-.2-.2-.3v-19h26.6M126.8 225.1V248l-.1.1-.1.1h-.1-.2-3.3c-.1 0-.2-.1-.3-.2 0 0-.1-.2-.2-.3V225v-.3c0-.1.1-.2.2-.3 0 0 .2-.1.3-.2s.2 0 .3 0H126.4c.1 0 .2.1.3.2 0 0 .1.2.2.3v.3M95.6 228.8v-3.7-.3c0-.1-.1-.2-.2-.3 0 0-.2-.1-.3-.2s-.2 0-.3 0H69.6c-.1 0-.2.1-.3.2 0 0-.1.2-.2.3v4M171.2 275.2l3.8 56.6 10.8-.7-3.8-56.6-10.8.7zM143.2 320.7c-.4 4-1.1 7.9-2.1 11.8-.2.9-1 1.6-2 1.8-3.2.5-6.4 0-9.4-1.2-.9-.4-1.5-1.2-1.5-2.2 0-4 .3-8 .9-11.9.7-.2 1.4-.2 2.1-.1 3.3.3 6.5.7 9.8 1.3.7.1 1.4.3 2 .5"/><path class="cls-2" d="M143.5 321.8c.2.2.4.5.5.8.5 1.4.7 3 .4 4.5-.3 2-.8 4-1.5 6-.5 1.4-1.2 2.7-2 3.9-.5.7-1.2 1.1-2.1 1.2-3.4.3-6.8 0-10-1.3-.8-.3-1.4-.9-1.7-1.7-.5-1.4-.8-2.8-.9-4.3-.2-2-.2-4.1 0-6.1.1-1.5.7-3 1.6-4.2.2-.3.4-.5.7-.7M324.3 286.2l.7 8.7-12.7.7-.7-8.4 12.7-1zM322.4 255.3l.5 8.4-12.7.9-.8-8.6 13-.7z"/><path class="cls-2" d="M325 263.4l1.5 22.8-16.8 1-1.7-22.6 17-1.2z"/><path class="cls-2" transform="rotate(-3.9 218.076 288.244)" d="M190.2 266.3h56.5v45.5h-56.5z"/><path class="cls-2" d="M298.9 233.7l3.8 56.6-15.6 1-3.8-56.7 15.6-.9zM133.5 171h7.7v11.3h-7.7zM141.2 154h19.7v45.4h-19.7z"/></g><g id="Text"><path d="M87.5 155.7v.6h-3.8l3-4.8H84v-.6h3.8l-3 4.8h2.7zM89.3 151.5c0 .2-.2.4-.4.4s-.4-.2-.4-.4.2-.4.4-.4.4.2.4.4zm0 4.7h-.6v-3.7h.6v3.7zM91.2 152.6v.5c.3-.4.6-.6 1-.6s.8.2 1 .7c.3-.5.6-.7 1.2-.7s.7.1.9.4c.2.2.2.4.2 1v2.4h-.6v-2.2c0-.4 0-.6-.1-.7-.1-.2-.4-.3-.6-.3-.5 0-.8.4-.8 1v2.2h-.6v-2.2c0-.4 0-.5-.1-.7-.1-.2-.3-.3-.6-.3-.5 0-.9.4-.9 1v2.2h-.6v-3.7h.6zM97.5 152.6v.5c.3-.4.6-.6 1-.6s.8.2 1 .7c.3-.5.6-.7 1.2-.7s.7.1.9.4c.2.2.2.4.2 1v2.4h-.6v-2.2c0-.4 0-.6-.1-.7-.1-.2-.4-.3-.6-.3-.5 0-.8.4-.8 1v2.2h-.6v-2.2c0-.4 0-.5-.1-.7-.1-.2-.3-.3-.6-.3-.5 0-.9.4-.9 1v2.2h-.6v-3.7h.6zM103.6 154.6c0 .3 0 .5.2.7.2.3.6.5 1 .5s.9-.2 1.1-.6l.5.2c-.3.6-.9 1-1.6 1-1.1 0-1.9-.8-1.9-1.9s.8-1.9 1.9-1.9 1.9.8 1.9 1.9v.2h-3.1zm2.4-.4c0-.3 0-.4-.2-.6-.2-.3-.6-.5-1-.5s-.8.2-1 .5c-.1.2-.2.3-.2.6h2.4zM108.4 152.6v.6c.1-.3.2-.4.3-.5.2-.1.4-.2.7-.2h.1v.6h-.2c-.3 0-.6.2-.8.4-.2.2-.2.4-.2.9v1.9h-.6v-3.7h.6zM84.5 161.7v-.6l1.8-1.2v5.4h-.6v-4.4l-1.2.8zM87.7 164.1v-.5l2.8-3.7v3.6h.6v.6h-.6v1.2h-.6v-1.2h-2.1zm2.1-2.6l-1.5 2h1.5v-2zM92.8 164.9c0 .2-.2.4-.4.4s-.4-.2-.4-.4.2-.4.4-.4.4.2.4.4zM96.6 160.5h-1.7v1.4c.3-.1.5-.2.8-.2.9 0 1.6.7 1.6 1.7s-.8 1.8-1.8 1.8-1.3-.4-1.6-1.1l.6-.2c.1.2.2.3.3.4.2.2.5.3.8.3.6 0 1.1-.5 1.1-1.2s-.5-1.1-1.2-1.1-.8.2-1.2.5v-3h2.3v.6zM100.5 161.6v.5c.3-.4.6-.6 1-.6s.8.2 1 .7c.3-.5.6-.7 1.2-.7s.7.1.9.4c.2.2.2.4.2 1v2.4h-.6v-2.2c0-.4 0-.6-.1-.7-.1-.2-.4-.3-.6-.3-.5 0-.8.4-.8 1v2.2h-.6v-2.2c0-.4 0-.5-.1-.7-.1-.2-.3-.3-.6-.3-.5 0-.9.4-.9 1v2.2h-.6v-3.7h.6zM108.1 162.8v.4h-2l1.2-1.6c.3-.5.4-.6.4-.8 0-.3-.2-.4-.5-.4s-.5.2-.5.6h-.4c0-.6.4-1 1-1s1 .3 1 .8-.1.5-.4.9l-.8 1.1h1.1z"/><g><path d="M161.6 78.2h-.7v-5.3h1.5c1.1 0 1.8.6 1.8 1.6s-.3 1.1-.8 1.3c-.3.1-.5.2-1 .2l2.1 2.2h-.9l-2.1-2.2v2.2zm.7-2.7c.8 0 1.2-.4 1.2-1s-.4-1-1.1-1h-.8v2.1h.7zM165.7 76.6c0 .3 0 .5.2.7.2.3.6.5 1 .5s.9-.2 1.1-.6l.5.2c-.3.6-.9 1-1.6 1-1.1 0-1.9-.8-1.9-1.9s.8-1.9 1.9-1.9 1.9.8 1.9 1.9v.2h-3.1zm2.4-.4c0-.3 0-.4-.2-.6-.2-.3-.6-.5-1-.5s-.8.2-1 .5c-.1.2-.2.3-.2.6h2.4zM172.7 72.9h.6v5.3h-.6v-.6c-.4.5-.8.7-1.3.7-1 0-1.7-.8-1.7-1.9s.7-2 1.7-2 1 .2 1.3.6v-2.2zm-2.4 3.5c0 .8.5 1.4 1.2 1.4s1.2-.6 1.2-1.4-.5-1.4-1.2-1.4-1.2.6-1.2 1.4zM177.5 74.5v2.4c0 .5 0 .8-.4 1-.3.2-.6.4-1.1.4s-.8-.1-1.1-.4c-.2-.2-.4-.6-.4-1v-2.4h.6v2.3c0 .5.3.9.8.9s.5-.1.7-.3c.1-.1.2-.3.2-.6v-2.4h.6zM179.4 73.5c0 .2-.2.4-.4.4s-.4-.2-.4-.4.2-.4.4-.4.4.2.4.4zm0 4.7h-.6v-3.7h.6v3.7zM181.4 77.5c0 .2 0 .2.3.2h.3v.5h-.6c-.4 0-.6-.2-.6-.6V75h-.5v-.5h.5v-1.2h.6v1.2h.6v.5h-.6v2.4zM163.6 86.6v.6h-3l1.9-2.7c.5-.8.7-1 .7-1.3 0-.5-.4-.8-.9-.8s-.7.2-.8.4v.6h-.6c0-1 .6-1.6 1.5-1.6s1.5.5 1.5 1.3-.2.8-.6 1.5l-1.4 2h1.9zM165.7 86.9c0 .2-.2.4-.4.4s-.4-.2-.4-.4.2-.4.4-.4.4.2.4.4zM166.6 86v-.5l2.8-3.7v3.6h.6v.6h-.6v1.2h-.6V86h-2.1zm2.1-2.6l-1.5 2h1.5v-2zM173.2 83.5v.5c.3-.4.6-.6 1-.6s.8.2 1 .7c.3-.5.6-.7 1.2-.7s.7.1.9.4c.2.2.2.4.2 1v2.4h-.6V85c0-.4 0-.6-.1-.7-.1-.2-.4-.3-.6-.3-.5 0-.8.4-.8 1v2.2h-.6V85c0-.4 0-.5-.1-.7-.1-.2-.3-.3-.6-.3-.5 0-.9.4-.9 1v2.2h-.6v-3.7h.6zM180.8 84.7v.4h-2l1.2-1.6c.3-.5.4-.6.4-.8 0-.3-.2-.4-.5-.4s-.5.2-.5.6h-.4c0-.6.4-1 1-1s1 .3 1 .8-.1.5-.4.9l-.8 1.1h1.1z"/></g><g><path d="M258.1 298v.6h-3.8l3-4.8h-2.7v-.6h3.8l-3 4.8h2.7zM259.9 293.9c0 .2-.2.4-.4.4s-.4-.2-.4-.4.2-.4.4-.4.4.2.4.4zm0 4.7h-.6v-3.7h.6v3.7zM261.8 294.9v.5c.3-.4.6-.6 1-.6s.8.2 1 .7c.3-.5.6-.7 1.2-.7s.7.1.9.4c.2.2.2.4.2 1v2.4h-.6v-2.2c0-.4 0-.6-.1-.7-.1-.2-.4-.3-.6-.3-.5 0-.8.4-.8 1v2.2h-.6v-2.2c0-.4 0-.5-.1-.7-.1-.2-.3-.3-.6-.3-.5 0-.9.4-.9 1v2.2h-.6v-3.7h.6zM268.1 294.9v.5c.3-.4.6-.6 1-.6s.8.2 1 .7c.3-.5.6-.7 1.2-.7s.7.1.9.4c.2.2.2.4.2 1v2.4h-.6v-2.2c0-.4 0-.6-.1-.7-.1-.2-.4-.3-.6-.3-.5 0-.8.4-.8 1v2.2h-.6v-2.2c0-.4 0-.5-.1-.7-.1-.2-.3-.3-.6-.3-.5 0-.9.4-.9 1v2.2h-.6v-3.7h.6zM274.2 296.9c0 .3 0 .5.2.7.2.3.6.5 1 .5s.9-.2 1.1-.6l.5.2c-.3.6-.9 1-1.6 1-1.1 0-1.9-.8-1.9-1.9s.8-1.9 1.9-1.9 1.9.8 1.9 1.9v.2h-3.1zm2.4-.4c0-.3 0-.4-.2-.6-.2-.3-.6-.5-1-.5s-.8.2-1 .5c-.1.2-.2.3-.2.6h2.4zM279 294.9v.6c.1-.3.2-.4.3-.5.2-.1.4-.2.7-.2h.1v.6h-.2c-.3 0-.6.2-.8.4-.2.2-.2.4-.2.9v1.9h-.6v-3.7h.6zM255 304v-.6l1.8-1.2v5.4h-.6v-4.4l-1.2.8zM258.2 306.4v-.5l2.8-3.7v3.6h.6v.6h-.6v1.2h-.6v-1.2h-2.1zm2.1-2.6l-1.5 2h1.5v-2zM263.4 307.2c0 .2-.2.4-.4.4s-.4-.2-.4-.4.2-.4.4-.4.4.2.4.4zM266.2 305.4c-.2 0-.3.1-.5.1-.9 0-1.6-.7-1.6-1.6s.8-1.7 1.7-1.7 1.7.7 1.7 1.7-.1.7-.4 1.2l-1.5 2.5h-.7l1.3-2.1zm-1.5-1.5c0 .6.5 1.1 1.1 1.1s1.1-.5 1.1-1.1-.5-1.1-1-1.1-1.1.5-1.1 1.1zM270.7 303.9v.5c.3-.4.6-.6 1-.6s.8.2 1 .7c.3-.5.6-.7 1.2-.7s.7.1.9.4c.2.2.2.4.2 1v2.4h-.6v-2.2c0-.4 0-.6-.1-.7-.1-.2-.4-.3-.6-.3-.5 0-.8.4-.8 1v2.2h-.6v-2.2c0-.4 0-.5-.1-.7-.1-.2-.3-.3-.6-.3-.5 0-.9.4-.9 1v2.2h-.6v-3.7h.6zM278.3 305.1v.4h-2l1.2-1.6c.3-.5.4-.6.4-.8 0-.3-.2-.4-.5-.4s-.5.2-.5.6h-.4c0-.6.4-1 1-1s1 .3 1 .8-.1.5-.4.9l-.8 1.1h1.1z"/></g><g><path d="M107.5 290.6h.7l-1.6 5.3h-.6l-1.2-4.2-1.2 4.2h-.6l-1.6-5.3h.7l1.2 4.1 1.2-4.1h.6l1.1 4.1 1.2-4.1zM112.3 294.1c0 1.1-.8 1.9-1.9 1.9s-1.9-.8-1.9-1.9.8-1.9 1.9-1.9 1.9.8 1.9 1.9zm-3.1 0c0 .8.5 1.4 1.3 1.4s1.2-.6 1.2-1.4-.5-1.4-1.2-1.4-1.3.6-1.3 1.4zM114 292.7c.3-.4.7-.6 1.1-.6s.7.1.9.3c.2.2.3.5.3 1v2.5h-.6v-2.4c0-.5-.2-.8-.7-.8s-.5.1-.7.3c-.2.2-.2.4-.2.7v2.2h-.6v-5.3h.6v2.2zM118.2 292.2v.5c.3-.4.6-.6 1.1-.6s.6.1.9.3c.2.2.3.5.3 1v2.5h-.6v-2.4c0-.3 0-.5-.1-.6-.1-.2-.3-.2-.6-.2s-.5.1-.7.3c-.2.2-.2.4-.2.7v2.2h-.6v-3.7h.6zM122.2 294.3c0 .3 0 .5.2.7.2.3.6.5 1 .5s.9-.2 1.1-.6l.5.2c-.3.6-.9 1-1.6 1-1.1 0-1.9-.8-1.9-1.9s.8-1.9 1.9-1.9 1.9.8 1.9 1.9v.2h-3.1zm2.4-.4c0-.3 0-.4-.2-.6-.2-.3-.6-.5-1-.5s-.8.2-1 .5c-.1.2-.2.3-.2.6h2.4zM126.9 292.2v.5c.3-.4.6-.6 1.1-.6s.6.1.9.3c.2.2.3.5.3 1v2.5h-.6v-2.4c0-.3 0-.5-.1-.6-.1-.2-.3-.2-.6-.2s-.5.1-.7.3c-.2.2-.2.4-.2.7v2.2h-.6v-3.7h.6zM102.2 301.3v-.6l1.8-1.2v5.4h-.6v-4.4l-1.2.8zM108.5 302.4c.3.3.4.6.4 1 0 .9-.7 1.6-1.7 1.6s-1.6-.6-1.6-1.6.1-.8.4-1.1c.2-.2.3-.3.6-.4-.3 0-.4-.2-.5-.4-.2-.2-.3-.5-.3-.8 0-.8.6-1.3 1.5-1.3s1.4.6 1.4 1.3-.1.6-.3.8c-.1.2-.3.2-.5.3.3 0 .4.2.6.3zm-2.3 1c0 .6.5 1 1 1s1-.5 1-1-.5-1-1-1-1 .5-1 1zm.2-2.5c0 .5.4.8.8.8s.9-.4.9-.8-.4-.8-.8-.8-.9.3-.9.8zM110.8 304.6c0 .2-.2.4-.4.4s-.4-.2-.4-.4.2-.4.4-.4.4.2.4.4zM112 300.3v-.6h3l-2.1 5.3h-.7l1.9-4.7h-2zM118.3 301.2v.5c.3-.4.6-.6 1-.6s.8.2 1 .7c.3-.5.6-.7 1.2-.7s.7.1.9.4c.2.2.2.4.2 1v2.4h-.6v-2.2c0-.4 0-.6-.1-.7-.1-.2-.4-.3-.6-.3-.5 0-.8.4-.8 1v2.2h-.6v-2.2c0-.4 0-.5-.1-.7-.1-.2-.3-.3-.6-.3-.5 0-.9.4-.9 1v2.2h-.6v-3.7h.6zM125.9 302.4v.4h-2l1.2-1.6c.3-.5.4-.6.4-.8 0-.3-.2-.4-.5-.4s-.5.2-.5.6h-.4c0-.6.4-1 1-1s1 .3 1 .8-.1.5-.4.9l-.8 1.1h1.1z"/></g><g><path d="M318.1 237.4h-.7v-5.3h.7v2.5l2.1-2.5h.8l-2.2 2.6 2.2 2.7h-.9l-2-2.5v2.5zM325.1 235.6c0 1.1-.8 1.9-1.9 1.9s-1.9-.8-1.9-1.9.8-1.9 1.9-1.9 1.9.8 1.9 1.9zm-3.1 0c0 .8.5 1.4 1.3 1.4s1.2-.6 1.2-1.4-.5-1.4-1.2-1.4-1.3.6-1.3 1.4zM329.1 236.9c-.4.4-.8.5-1.4.5-1.1 0-1.8-.8-1.8-1.9s.8-1.9 1.8-1.9 1 .2 1.3.6l-.4.4c-.3-.3-.6-.4-.9-.4-.7 0-1.2.6-1.2 1.4s.5 1.4 1.2 1.4.6-.1.9-.4l.4.4zM330.7 234.2c.3-.4.7-.6 1.1-.6s.7.1.9.3c.2.2.3.5.3 1v2.5h-.6V235c0-.5-.2-.8-.7-.8s-.5.1-.7.3c-.2.2-.2.4-.2.7v2.2h-.6v-5.3h.6v2.2zM334.6 235.7c0 .3 0 .5.2.7.2.3.6.5 1 .5s.9-.2 1.1-.6l.5.2c-.3.6-.9 1-1.6 1-1.1 0-1.9-.8-1.9-1.9s.8-1.9 1.9-1.9 1.9.8 1.9 1.9v.2h-3.1zm2.4-.4c0-.3 0-.4-.2-.6-.2-.3-.6-.5-1-.5s-.8.2-1 .5c-.1.2-.2.3-.2.6h2.4zM339.4 233.7v.5c.3-.4.6-.6 1.1-.6s.6.1.9.3c.2.2.3.5.3 1v2.5h-.6V235c0-.3 0-.5-.1-.6-.1-.2-.3-.2-.6-.2s-.5.1-.7.3c-.2.2-.2.4-.2.7v2.2h-.6v-3.7h.6zM317.6 242.8v-.6l1.8-1.2v5.4h-.6V242l-1.2.8zM324.3 244.8c0 .6-.1 1-.4 1.2-.3.3-.7.4-1.2.4s-1-.2-1.2-.5c-.3-.3-.4-.6-.4-1.4v-1.8c0-.7 0-1 .3-1.3.3-.3.7-.5 1.2-.5s.9.1 1.2.4c.3.3.4.6.4 1.2v2.1zm-2.5-.1c0 .6 0 .7.2.9.2.2.5.3.8.3s.6-.1.8-.4c.1-.2.2-.4.2-.8v-2c0-.4 0-.6-.3-.8-.2-.2-.4-.2-.7-.2s-.6.1-.8.4c-.1.2-.2.4-.2.8v1.8zM326.3 246.1c0 .2-.2.4-.4.4s-.4-.2-.4-.4.2-.4.4-.4.4.2.4.4zM329.1 244.3c-.2 0-.3.1-.5.1-.9 0-1.6-.7-1.6-1.6s.8-1.7 1.7-1.7 1.7.7 1.7 1.7-.1.7-.4 1.2l-1.5 2.5h-.7l1.3-2.1zm-1.5-1.5c0 .6.5 1.1 1.1 1.1s1.1-.5 1.1-1.1-.5-1.1-1-1.1-1.1.5-1.1 1.1zM334.5 242.7v.5c.3-.4.6-.6 1-.6s.8.2 1 .7c.3-.5.6-.7 1.2-.7s.7.1.9.4c.2.2.2.4.2 1v2.4h-.6v-2.2c0-.4 0-.6-.1-.7-.1-.2-.4-.3-.6-.3-.5 0-.8.4-.8 1v2.2h-.6v-2.2c0-.4 0-.5-.1-.7-.1-.2-.3-.3-.6-.3-.5 0-.9.4-.9 1v2.2h-.6v-3.7h.6zM342.1 243.9v.4h-2l1.2-1.6c.3-.5.4-.6.4-.8 0-.3-.2-.4-.5-.4s-.5.2-.5.6h-.4c0-.6.4-1 1-1s1 .3 1 .8-.1.5-.4.9l-.8 1.1h1.1z"/></g><g><path d="M214.3 207.8h2.1v.6h-2.1v1.8h2.1v.6h-2.8v-5.3h2.8v.6h-2.1v1.8zM219.3 208.1c0-.4-.3-.6-.7-.6s-.7.2-.7.5.2.4.8.6c.5.1.7.2.9.4.2.2.3.4.3.7 0 .6-.5 1.1-1.3 1.1s-1.3-.4-1.4-1.1h.6c0 .4.3.6.8.6s.7-.2.7-.5-.2-.5-.8-.6c-.8-.2-1.2-.6-1.2-1.1s.5-1.1 1.3-1.1 1.3.4 1.3 1.1h-.6zM222.8 208.1c0-.4-.3-.6-.7-.6s-.7.2-.7.5.2.4.8.6c.5.1.7.2.9.4.2.2.3.4.3.7 0 .6-.5 1.1-1.3 1.1s-1.3-.4-1.4-1.1h.6c0 .4.3.6.8.6s.7-.2.7-.5-.2-.5-.8-.6c-.8-.2-1.2-.6-1.2-1.1s.5-1.1 1.3-1.1 1.3.4 1.3 1.1h-.6zM225 209.1c0 .3 0 .5.2.7.2.3.6.5 1 .5s.9-.2 1.1-.6l.5.2c-.3.6-.9 1-1.6 1-1.1 0-1.9-.8-1.9-1.9s.8-1.9 1.9-1.9 1.9.8 1.9 1.9v.2H225zm2.4-.4c0-.3 0-.4-.2-.6-.2-.3-.6-.5-1-.5s-.8.2-1 .5c-.1.2-.2.3-.2.6h2.4zM229.7 207.1v.5c.3-.4.6-.6 1.1-.6s.6.1.9.3c.2.2.3.5.3 1v2.5h-.6v-2.4c0-.3 0-.5-.1-.6-.1-.2-.3-.2-.6-.2s-.5.1-.7.3c-.2.2-.2.4-.2.7v2.2h-.6v-3.7h.6zM213.9 216.2v-.6l1.8-1.2v5.4h-.6v-4.4l-1.2.8zM219.2 217.7c-.2 0-.3.1-.5.1-.9 0-1.6-.7-1.6-1.6s.8-1.7 1.7-1.7 1.7.7 1.7 1.7-.1.7-.4 1.2l-1.5 2.5h-.7l1.3-2.1zm-1.5-1.5c0 .6.5 1.1 1.1 1.1s1.1-.5 1.1-1.1-.5-1.1-1-1.1-1.1.5-1.1 1.1zM221.9 219.4c0 .2-.2.4-.4.4s-.4-.2-.4-.4.2-.4.4-.4.4.2.4.4zM225.6 215.1h-1.7v1.4c.3-.1.5-.2.8-.2.9 0 1.6.7 1.6 1.7s-.8 1.8-1.8 1.8-1.3-.4-1.6-1.1l.6-.2c.1.2.2.3.3.4.2.2.5.3.8.3.6 0 1.1-.5 1.1-1.2s-.5-1.1-1.2-1.1-.8.2-1.2.5v-3h2.3v.6zM230.4 216.1v.5c.3-.4.6-.6 1-.6s.8.2 1 .7c.3-.5.6-.7 1.2-.7s.7.1.9.4c.2.2.2.4.2 1v2.4h-.6v-2.2c0-.4 0-.6-.1-.7-.1-.2-.4-.3-.6-.3-.5 0-.8.4-.8 1v2.2h-.6v-2.2c0-.4 0-.5-.1-.7-.1-.2-.3-.3-.6-.3-.5 0-.9.4-.9 1v2.2h-.6v-3.7h.6zM238 217.3v.4h-2l1.2-1.6c.3-.5.4-.6.4-.8 0-.3-.2-.4-.5-.4s-.5.2-.5.6h-.4c0-.6.4-1 1-1s1 .3 1 .8-.1.5-.4.9l-.8 1.1h1.1z"/></g><g><path d="M312.1 178h-.7v-5.3h1.5c1.1 0 1.8.6 1.8 1.6s-.3 1.1-.8 1.3c-.3.1-.5.2-1 .2l2.1 2.2h-.9l-2.1-2.2v2.2zm.7-2.7c.8 0 1.2-.4 1.2-1s-.4-1-1.1-1h-.8v2.1h.7zM316.3 176.3c0 .3 0 .5.2.7.2.3.6.5 1 .5s.9-.2 1.1-.6l.5.2c-.3.6-.9 1-1.6 1-1.1 0-1.9-.8-1.9-1.9s.8-1.9 1.9-1.9 1.9.8 1.9 1.9v.2h-3.1zm2.4-.4c0-.3 0-.4-.2-.6-.2-.3-.6-.5-1-.5s-.8.2-1 .5c-.1.2-.2.3-.2.6h2.4zM323.2 172.6h.6v5.3h-.6v-.6c-.4.5-.8.7-1.3.7-1 0-1.7-.8-1.7-1.9s.7-2 1.7-2 1 .2 1.3.6v-2.2zm-2.4 3.5c0 .8.5 1.4 1.2 1.4s1.2-.6 1.2-1.4-.5-1.4-1.2-1.4-1.2.6-1.2 1.4zM328 174.3v2.4c0 .5 0 .8-.4 1-.3.2-.6.4-1.1.4s-.8-.1-1.1-.4c-.2-.2-.4-.6-.4-1v-2.4h.6v2.3c0 .5.3.9.8.9s.5-.1.7-.3c.1-.1.2-.3.2-.6v-2.4h.6zM330 173.3c0 .2-.2.4-.4.4s-.4-.2-.4-.4.2-.4.4-.4.4.2.4.4zm0 4.7h-.6v-3.7h.6v3.7zM331.9 177.2c0 .2 0 .2.3.2h.3v.5h-.6c-.4 0-.6-.2-.6-.6v-2.6h-.5v-.5h.5V173h.6v1.2h.6v.5h-.6v2.4zM314.1 186.4v.6h-3l1.9-2.7c.5-.8.7-1 .7-1.3 0-.5-.4-.8-.9-.8s-.7.2-.8.4v.6h-.6c0-1 .6-1.6 1.5-1.6s1.5.5 1.5 1.3-.2.8-.6 1.5l-1.4 2h1.9zM316.2 186.6c0 .2-.2.4-.4.4s-.4-.2-.4-.4.2-.4.4-.4.4.2.4.4zM320.5 185.4c0 .6-.1 1-.4 1.2-.3.3-.7.4-1.2.4s-1-.2-1.2-.5c-.3-.3-.4-.6-.4-1.4v-1.8c0-.7 0-1 .3-1.3.3-.3.7-.5 1.2-.5s.9.1 1.2.4c.3.3.4.6.4 1.2v2.1zm-2.5-.1c0 .6 0 .7.2.9.2.2.5.3.8.3s.6-.1.8-.4c.1-.2.2-.4.2-.8v-2c0-.4 0-.6-.3-.8-.2-.2-.4-.2-.7-.2s-.6.1-.8.4c-.1.2-.2.4-.2.8v1.8zM324.7 183.3v.5c.3-.4.6-.6 1-.6s.8.2 1 .7c.3-.5.6-.7 1.2-.7s.7.1.9.4c.2.2.2.4.2 1v2.4h-.6v-2.2c0-.4 0-.6-.1-.7-.1-.2-.4-.3-.6-.3-.5 0-.8.4-.8 1v2.2h-.6v-2.2c0-.4 0-.5-.1-.7-.1-.2-.3-.3-.6-.3-.5 0-.9.4-.9 1v2.2h-.6v-3.7h.6zM332.3 184.5v.4h-2l1.2-1.6c.3-.5.4-.6.4-.8 0-.3-.2-.4-.5-.4s-.5.2-.5.6h-.4c0-.6.4-1 1-1s1 .3 1 .8-.1.5-.4.9l-.8 1.1h1.1z"/></g><g><path d="M94 368.7c1.1 0 1.7.5 1.7 1.4s-.1.6-.3.9c-.1.2-.3.2-.5.3.3 0 .4.1.6.2.3.2.4.6.4 1s-.2.9-.6 1.2c-.3.2-.7.3-1.3.3h-1.5v-5.3H94zm-.8 2.4h.7c.4 0 .7 0 .9-.2.2-.2.3-.4.3-.7s-.2-.6-.4-.8c-.2 0-.4-.1-.9-.1h-.6v1.8zm0 2.4h.7c.6 0 .8 0 1-.2.3-.1.4-.4.4-.8 0-.6-.4-.9-1.2-.9h-.8v1.8zM99.9 370.4h.6v3.7h-.6v-.7c-.4.6-.8.8-1.3.8-1 0-1.7-.8-1.7-1.9s.7-1.9 1.8-1.9 1 .2 1.3.7v-.6zm-2.1.9c-.2.3-.3.6-.3 1 0 .8.5 1.4 1.2 1.4s1.3-.6 1.3-1.4-.5-1.4-1.2-1.4-.7.1-.9.4zM101.8 374.1v-5.3h.6v5.3h-.6zM104.4 374.1h-.6v-5.3h.6v3.3l1.5-1.6h.8l-1.6 1.8 1.6 1.9h-.8l-1.5-1.6v1.6zM110.8 372.2c0 1.1-.8 1.9-1.9 1.9s-1.9-.8-1.9-1.9.8-1.9 1.9-1.9 1.9.8 1.9 1.9zm-3.1 0c0 .8.5 1.4 1.3 1.4s1.2-.6 1.2-1.4-.5-1.4-1.2-1.4-1.3.6-1.3 1.4zM112.5 370.4v.5c.3-.4.6-.6 1.1-.6s.6.1.9.3c.2.2.3.5.3 1v2.5h-.6v-2.4c0-.3 0-.5-.1-.6-.1-.2-.3-.2-.6-.2s-.5.1-.7.3c-.2.2-.2.4-.2.7v2.2h-.6v-3.7h.6zM92.7 379.5v-.6l1.8-1.2v5.4h-.6v-4.4l-1.2.8zM98.9 382.5v.6h-3l1.9-2.7c.5-.8.7-1 .7-1.3 0-.5-.4-.8-.9-.8s-.7.2-.8.4v.6h-.6c0-1 .6-1.6 1.5-1.6s1.5.5 1.5 1.3-.2.8-.6 1.5l-1.4 2h1.9zM101 382.7c0 .2-.2.4-.4.4s-.4-.2-.4-.4.2-.4.4-.4.4.2.4.4zM105.3 381.5c0 .6-.1 1-.4 1.2-.3.3-.7.4-1.2.4s-1-.2-1.2-.5c-.3-.3-.4-.6-.4-1.4v-1.8c0-.7 0-1 .3-1.3.3-.3.7-.5 1.2-.5s.9.1 1.2.4c.3.3.4.6.4 1.2v2.1zm-2.5-.1c0 .6 0 .7.2.9.2.2.5.3.8.3s.6-.1.8-.4c.1-.2.2-.4.2-.8v-2c0-.4 0-.6-.3-.8-.2-.2-.4-.2-.7-.2s-.6.1-.8.4c-.1.2-.2.4-.2.8v1.8zM109.5 379.4v.5c.3-.4.6-.6 1-.6s.8.2 1 .7c.3-.5.6-.7 1.2-.7s.7.1.9.4c.2.2.2.4.2 1v2.4h-.6v-2.2c0-.4 0-.6-.1-.7-.1-.2-.4-.3-.6-.3-.5 0-.8.4-.8 1v2.2h-.6v-2.2c0-.4 0-.5-.1-.7-.1-.2-.3-.3-.6-.3-.5 0-.9.4-.9 1v2.2h-.6v-3.7h.6zM117.1 380.6v.4h-2l1.2-1.6c.3-.5.4-.6.4-.8 0-.3-.2-.4-.5-.4s-.5.2-.5.6h-.4c0-.6.4-1 1-1s1 .3 1 .8-.1.5-.4.9l-.8 1.1h1.1z"/></g><g><path d="M322.6 120.8c1.1 0 1.7.5 1.7 1.4s-.1.6-.3.9c-.1.2-.3.2-.5.3.3 0 .4.1.6.2.3.2.4.6.4 1s-.2.9-.6 1.2c-.3.2-.7.3-1.3.3h-1.5v-5.3h1.5zm-.8 2.4h.7c.4 0 .7 0 .9-.2.2-.2.3-.4.3-.7s-.2-.6-.4-.8c-.2 0-.4-.1-.9-.1h-.6v1.8zm0 2.4h.7c.6 0 .8 0 1-.2.3-.1.4-.4.4-.8 0-.6-.4-.9-1.2-.9h-.8v1.8zM328.5 122.4h.6v3.7h-.6v-.7c-.4.6-.8.8-1.3.8-1 0-1.7-.8-1.7-1.9s.7-1.9 1.8-1.9 1 .2 1.3.7v-.6zm-2.1.9c-.2.3-.3.6-.3 1 0 .8.5 1.4 1.2 1.4s1.3-.6 1.3-1.4-.5-1.4-1.2-1.4-.7.1-.9.4zM333.3 120.8h.6v5.3h-.6v-.6c-.4.5-.8.7-1.3.7-1 0-1.7-.8-1.7-1.9s.7-2 1.7-2 1 .2 1.3.6v-2.2zm-2.4 3.5c0 .8.5 1.4 1.2 1.4s1.2-.6 1.2-1.4-.5-1.4-1.2-1.4-1.2.6-1.2 1.4zM320.8 133.9v-.5l2.8-3.7v3.6h.6v.6h-.6v1.2h-.6v-1.2h-2.1zm2.1-2.6l-1.5 2h1.5v-2zM326 134.8c0 .2-.2.4-.4.4s-.4-.2-.4-.4.2-.4.4-.4.4.2.4.4zM330.3 133.5c0 .6-.1 1-.4 1.2-.3.3-.7.4-1.2.4s-1-.2-1.2-.5c-.3-.3-.4-.6-.4-1.4v-1.8c0-.7 0-1 .3-1.3.3-.3.7-.5 1.2-.5s.9.1 1.2.4c.3.3.4.6.4 1.2v2.1zm-2.5-.1c0 .6 0 .7.2.9.2.2.5.3.8.3s.6-.1.8-.4c.1-.2.2-.4.2-.8v-2c0-.4 0-.6-.3-.8-.2-.2-.4-.2-.7-.2s-.6.1-.8.4c-.1.2-.2.4-.2.8v1.8zM333.6 131.4v.5c.3-.4.6-.6 1-.6s.8.2 1 .7c.3-.5.6-.7 1.2-.7s.7.1.9.4c.2.2.2.4.2 1v2.4h-.6v-2.2c0-.4 0-.6-.1-.7-.1-.2-.4-.3-.6-.3-.5 0-.8.4-.8 1v2.2h-.6v-2.2c0-.4 0-.5-.1-.7-.1-.2-.3-.3-.6-.3-.5 0-.9.4-.9 1v2.2h-.6v-3.7h.6zM341.2 132.6v.4h-2l1.2-1.6c.3-.5.4-.6.4-.8 0-.3-.2-.4-.5-.4s-.5.2-.5.6h-.4c0-.6.4-1 1-1s1 .3 1 .8-.1.5-.4.9l-.8 1.1h1.1z"/></g><g><path d="M171 43.1v.6h-2.5v-5.3h.7v4.7h1.9zM172.6 38.9c0 .2-.2.4-.4.4s-.4-.2-.4-.4.2-.4.4-.4.4.2.4.4zm0 4.7h-.6v-3.7h.6v3.7zM174.6 43.7h-.6v-3.2h-.5V40h.5v-.5c0-.7.4-1.2 1-1.2h.2v.5c-.4 0-.6.2-.6.6v.5h.6v.5h-.6v3.2zM176.9 42.9c0 .2 0 .2.3.2h.3v.5h-.6c-.4 0-.6-.2-.6-.6v-2.6h-.5v-.5h.5v-1.2h.6v1.2h.6v.5h-.6v2.4z"/></g></g></svg>