<svg xmlns="http://www.w3.org/2000/svg" viewBox="0 0 428.6 403.3"><defs><style>.cls-1,.cls-10,.cls-11,.cls-12,.cls-13,.cls-14,.cls-15,.cls-2,.cls-3,.cls-4,.cls-5,.cls-6,.cls-7,.cls-8,.cls-9{fill:none;stroke-linecap:round;stroke-linejoin:round}.cls-1,.cls-10,.cls-11,.cls-12,.cls-13,.cls-15,.cls-2,.cls-3,.cls-4,.cls-6,.cls-7,.cls-8,.cls-9{stroke-width:.1px}.cls-1,.cls-10,.cls-11,.cls-13,.cls-14,.cls-3{stroke:#194164}.cls-1,.cls-11{stroke-dasharray:0 0 0 0 2.9 1.4 .2 1.4}.cls-2{stroke:#646464}.cls-3{stroke-dashoffset:1px}.cls-10,.cls-15,.cls-3,.cls-4,.cls-6,.cls-7,.cls-8,.cls-9{stroke-dasharray:0 0 1.4 1.4}.cls-12,.cls-15,.cls-4,.cls-6,.cls-7,.cls-8,.cls-9{stroke:#969696}.cls-5{stroke:#000;stroke-width:.3px}.cls-6{stroke-dashoffset:1.1px}.cls-7{stroke-dashoffset:2.7px}.cls-8{stroke-dashoffset:1.4px}.cls-9{stroke-dashoffset:.7px}.cls-16{fill:#fff}.cls-16,.cls-17{fill-rule:evenodd}.cls-10{stroke-dashoffset:.2px}.cls-11{stroke-dashoffset:1.7px}.cls-14{stroke-width:.3px}.cls-15{stroke-dashoffset:1.2px}</style></defs><g id="Plan"><path class="cls-17" d="M243.3 24.5l-5.9 5.6.8-11.9 5.5.4-.4 5.9"/><path class="cls-16" d="M237.4 30.1l5.9-5.6.4-5.9-5.5-.4-.8 11.9"/><path class="cls-12" d="M243.9 19.8l-5.5-.4M243.8 21.2l-5.5-.4M243.7 22.6l-5.5-.3M243.6 24.1l-5.5-.4M242.5 25.5l-4.5-.4M241.2 26.8l-3.3-.2M239.7 27.9l-1.9-.1M238.4 29.3l-.7-.1M243.3 24.5l.4-5.9M237.4 30.1l.8-11.9"/><path class="cls-13" d="M237.4 30.1l.8-11.9M243.3 24.5l.4-5.9"/><path class="cls-17" d="M237.5 28.2l-5.3-.3.8-10.1 5.2.4-.7 10"/><path class="cls-16" d="M232.2 27.9l5.3.3.7-10-5.2-.4-.8 10.1"/><path class="cls-12" d="M232.7 24.5l2.9 3.6M233 20.7l4.9 5.6M234.4 17.9l3.8 4.4M238.2 18.2h.3"/><path class="cls-14" d="M237.5 28.2l.7-10M232.2 27.9l.8-10.1"/><path class="cls-13" d="M232.2 27.9l.8-10.1M237.5 28.2l.7-10"/><path class="cls-14" transform="rotate(-86 36.591 39.235)" d="M21.7 19.3h29.8v39.8H21.7z"/><path class="cls-13" d="M64.2 57.7l2.4-35.4M62.6 39.3l-1 13.9M60.3 26.4l-.9 13.9"/><path class="cls-12" d="M310.3 356.9h-59.2v-3.6h59.2v3.6z"/><path class="cls-16" d="M65.1 23.2l5.8.4-5.3-7.4-.5 7"/><path class="cls-12" d="M70.2 23.5l-4.5-5.1M66.1 23.2l-.7-1M70.6 23.5l.3-.2M66.6 23.3l2.5-2.3M65.6 20.5l1.8-1.8M65.8 16.5l.1-.3"/><path class="cls-16" d="M65.1 23.2l5.8.4-5.3-7.4-.5 7"/><path class="cls-12" d="M70.2 23.5l-4.5-5.1M66.1 23.2l-.7-1M70.6 23.5l.3-.2M66.6 23.3l2.5-2.3M65.6 20.5l1.8-1.8M65.8 16.5l.1-.3"/><path class="cls-14" d="M65.6 16.2l-.5 7M65.6 16.2l-.5 7"/><path class="cls-13" d="M66.3 26.4l-2 29.2"/><path class="cls-1" d="M70.9 26.7l-2 29.2"/><path class="cls-13" d="M68.9 55.4v.5"/><path class="cls-16" d="M71.1 23.6l-.2 3.1-4.6-.3.3-3.1"/><path class="cls-12" d="M71.3 24.8l-1.1-1.3M69 26.5l-2.2-2.8M67.3 26.4l3.3-2.9"/><path class="cls-16" d="M68.6 59l.3-3.1-4.6-.3-.2 3.1"/><path class="cls-12" d="M69 56.6l-.9-.8M67.2 58.9l-2.7-3.1M68.6 59l.3-.2M64.6 58.7l3.3-2.9"/><path class="cls-14" d="M70.9 26.7l-4.6-.3M68.9 55.9l-4.6-.3M70.9 26.7l-4.6-.3M71.1 23.6l-.2 3.1M68.9 55.9l-4.6-.3M68.6 59l.3-3.1M65.1 23.2l1.5.1M62.7 58.6l1.4.1M71.1 23.6l-.2 3.1M68.6 59l.3-3.1M66.3 26.4l.3-3.1M64.3 55.6l-.2 3.1"/><path class="cls-16" d="M65.6 16.2l5.5 7.6L88.3 25l.5-7.2-23.2-1.6"/><path class="cls-12" d="M89 19l-1.4-1.3M88.7 23.1l-5.1-5.6M86.4 24.9l-6.7-7.7M82.4 24.6l-6.7-7.7M78.3 24.3l-6.7-7.7M74.5 24l-6.7-7.6M86.2 24.9l2.5-2M82.4 24.6l6.6-5.8M78.3 24.3l7.7-6.7M74.2 24l7.7-6.7M70.9 23.3l7.2-6.2M69.1 21l4.9-4.2M67.4 18.7l2.5-2.2M65.9 16.2"/><path class="cls-16" d="M65.6 16.2l5.5 7.6L88.3 25l.5-7.2-23.2-1.6"/><path class="cls-12" d="M89 19l-1.4-1.3M88.7 23.1l-5.1-5.6M86.4 24.9l-6.7-7.7M82.4 24.6l-6.7-7.7M78.3 24.3l-6.7-7.7M74.5 24l-6.7-7.6M86.2 24.9l2.5-2M82.4 24.6l6.6-5.8M78.3 24.3l7.7-6.7M74.2 24l7.7-6.7M70.9 23.3l7.2-6.2M69.1 21l4.9-4.2M67.4 18.7l2.5-2.2M65.9 16.2"/><path class="cls-14" d="M88.8 17.8l-16-1.1M88.3 25l-17.2-1.2M88.3 25l-17.2-1.2M88.8 17.8l-16-1.1"/><path class="cls-16" d="M237.5 28.2l-.5 7.2-113-7.9.5-7.2 113 7.9"/><path class="cls-12" d="M237.6 30.2l-2-2.1M237.3 34.2l-5.8-6.4M234.4 35.2l-6.7-7.7M230.3 34.9l-6.7-7.6M226.2 34.7l-6.6-7.7M222.4 34.4l-6.7-7.7M218.3 34.1l-6.6-7.7M214.3 33.8l-6.7-7.7M210.4 33.6l-6.6-7.7M206.4 33.3l-6.7-7.7M202.3 33l-6.7-7.7M198.2 32.7l-6.7-7.7M194.4 32.4l-6.7-7.7M190.3 32.1l-6.7-7.6M186.3 31.9l-6.7-7.7M182.4 31.6l-6.7-7.7M178.4 31.3l-6.7-7.7M174.3 31l-6.7-7.7M170.5 30.8l-6.7-7.7M166.4 30.5l-6.7-7.7M162.3 30.2l-6.7-7.7M158.2 29.9l-6.6-7.7M154.4 29.6l-6.7-7.6M150.3 29.4l-6.6-7.7M146.3 29.1l-6.7-7.7M142.4 28.8l-6.6-7.7M138.4 28.5l-6.7-7.7M134.3 28.2l-6.7-7.7M130.5 28l-5.8-6.7M126.4 27.7l-2-2.3M234.1 35.2l3.4-2.6M230.3 34.9l7.4-6.4M226.2 34.7l7.7-6.7M222.2 34.4l7.7-6.7M218.3 34.1l7.7-6.7M214.3 33.8l7.7-6.7M210.2 33.5l7.7-6.6M206.1 33.3l7.7-6.7M202.3 33l7.7-6.7M198.2 32.7l7.7-6.7M194.2 32.4l7.6-6.7M190.3 32.1l7.7-6.6M186.3 31.9l7.6-6.7M182.2 31.6l7.7-6.7M178.1 31.3l7.7-6.7M174.3 31l7.7-6.7M170.2 30.7l7.7-6.6M166.1 30.5l7.7-6.7M162.3 30.2l7.7-6.7M158.2 29.9l7.7-6.7M154.2 29.6l7.7-6.7M150.3 29.4l7.7-6.7M146.3 29.1l7.7-6.7M142.2 28.8l7.7-6.7M138.1 28.5l7.7-6.7M134.3 28.2l7.7-6.7M130.2 27.9l7.7-6.6M126.2 27.7l7.6-6.7M124.4 25.6l5.6-4.9M124.7 21.5l1.2-1.1"/><path class="cls-16" d="M237 35.4l.5-7.2-113-7.9-.5 7.2 113 7.9"/><path class="cls-12" d="M237.6 30.2l-2-2.1M237.3 34.2l-5.8-6.4M234.4 35.2l-6.7-7.7M230.3 34.9l-6.7-7.6M226.2 34.7l-6.6-7.7M222.4 34.4l-6.7-7.7M218.3 34.1l-6.6-7.7M214.3 33.8l-6.7-7.7M210.4 33.6l-6.6-7.7M206.4 33.3l-6.7-7.7M202.3 33l-6.7-7.7M198.2 32.7l-6.7-7.7M194.4 32.4l-6.7-7.7M190.3 32.1l-6.7-7.6M186.3 31.9l-6.7-7.7M182.4 31.6l-6.7-7.7M178.4 31.3l-6.7-7.7M174.3 31l-6.7-7.7M170.5 30.8l-6.7-7.7M166.4 30.5l-6.7-7.7M162.3 30.2l-6.7-7.7M158.2 29.9l-6.6-7.7M154.4 29.6l-6.7-7.6M150.3 29.4l-6.6-7.7M146.3 29.1l-6.7-7.7M142.4 28.8l-6.6-7.7M138.4 28.5l-6.7-7.7M134.3 28.2l-6.7-7.7M130.5 28l-5.8-6.7M126.4 27.7l-2-2.3M234.1 35.2l3.4-2.6M230.3 34.9l7.4-6.4M226.2 34.7l7.7-6.7M222.2 34.4l7.7-6.7M218.3 34.1l7.7-6.7M214.3 33.8l7.7-6.7M210.2 33.5l7.7-6.6M206.1 33.3l7.7-6.7M202.3 33l7.7-6.7M198.2 32.7l7.7-6.7M194.2 32.4l7.6-6.7M190.3 32.1l7.7-6.6M186.3 31.9l7.6-6.7M182.2 31.6l7.7-6.7M178.1 31.3l7.7-6.7M174.3 31l7.7-6.7M170.2 30.7l7.7-6.6M166.1 30.5l7.7-6.7M162.3 30.2l7.7-6.7M158.2 29.9l7.7-6.7M154.2 29.6l7.7-6.7M150.3 29.4l7.7-6.7M146.3 29.1l7.7-6.7M142.2 28.8l7.7-6.7M138.1 28.5l7.7-6.7M134.3 28.2l7.7-6.7M130.2 27.9l7.7-6.6M126.2 27.7l7.6-6.7M124.4 25.6l5.6-4.9M124.7 21.5l1.2-1.1"/><path class="cls-14" d="M237.5 28.2l-113-7.9M237 35.4l-113-7.9M237 35.4l-113-7.9M237.5 28.2l-113-7.9"/><path class="cls-13" transform="rotate(-86 121.473 20.45)" d="M120.7 17.5h1.7v6h-1.7z"/><path class="cls-13" transform="rotate(-86 90.118 18.276)" d="M89.3 17H91v2.6h-1.7z"/><path class="cls-13" transform="rotate(-86 104.99 19.313)" d="M104.1 5.8h1.7v27.1h-1.7z"/><path class="cls-13" d="M118.4 21.1l-27-1.9"/><path class="cls-1" d="M118.3 27.1l-27.8-1.9"/><path class="cls-13" d="M91 25.2h-.5"/><path class="cls-16" d="M124 27.5l-5.7-.4.4-6 5.7.4"/><path class="cls-12" d="M124.4 25.4l-3.6-4.1M122.3 27.4l-3.5-4.3M122.3 27.4l2.1-1.8M118.5 26.9l6.2-5.4M118.8 23.1l1.8-1.8"/><path class="cls-16" d="M88.3 25l2.2.2.4-6-2.1-.2"/><path class="cls-12" d="M91 21.4L89 19M90.3 25.1l-1.6-2M90.3 25.1l.4-.2M88.7 22.9l2.3-2"/><path class="cls-14" d="M118.3 27.1l.4-6M90.5 25.2l.4-6M118.3 27.1l.4-6M124 27.5l-5.7-.4M90.5 25.2l.4-6M88.3 25l2.2.2M124.5 20.3l-.1 1.2M88.8 17.8V19M124 27.5l-5.7-.4M88.3 25l2.2.2M118.7 21.1l5.7.4M90.9 19.2l-2.1-.2"/><path class="cls-16" d="M297.5 84.8c.9 1.3.9 3 0 4.3-1.5 1.9-3.8 2.9-6.2 2.9l-9-.3v-9.6l9-.2c2.4 0 4.7 1 6.2 2.9"/><path class="cls-13" d="M297.5 84.8c.9 1.3.9 3 0 4.3-1.5 1.9-3.8 2.9-6.2 2.9l-9-.3v-9.6l9-.2c2.4 0 4.7 1 6.2 2.9"/><path class="cls-16" d="M287.4 86.9c0-1 .3-2 1.1-2.8.7-.7 1.7-1.2 2.7-1.2 2.1 0 4.1.9 5.4 2.5.6.9.6 2 0 2.9-1.3 1.6-3.3 2.5-5.4 2.5-1 0-2-.4-2.7-1.2-.7-.7-1.1-1.8-1.1-2.8"/><path class="cls-13" d="M287.4 86.9c0-1 .3-2 1.1-2.8.7-.7 1.7-1.2 2.7-1.2 2.1 0 4.1.9 5.4 2.5.6.9.6 2 0 2.9-1.3 1.6-3.3 2.5-5.4 2.5-1 0-2-.4-2.7-1.2-.7-.7-1.1-1.8-1.1-2.8"/><path class="cls-16" d="M282.8 35.6h48v.1h.1l.1.1v.1h.1v20.7h-.1v.1l-.1.1h-.1v.1h-.2l-47.9-.1h-.2l-.1-.1v-.1h-.1V35.9h.1v-.2h.1v-.1H282.8"/><path class="cls-13" d="M282.8 35.6h48v.1h.1l.1.1v.1h.1v20.7h-.1v.1l-.1.1h-.1v.1h-.2l-47.9-.1h-.2l-.1-.1v-.1h-.1V35.9h.1v-.2h.1v-.1H282.8"/><path class="cls-16" d="M288 37.7h37.4c.4 0 .9.1 1.3.3.4.2.8.4 1.1.7.3.3.6.7.7 1.1.2.4.3.9.3 1.3V52c0 .2-.1.4-.2.6 0 .2-.2.4-.3.6-.1.2-.3.4-.4.5-.2.2-.3.3-.5.4l-.6.3c-.2 0-.4.1-.6.2h-38.1c-.4 0-.9-.1-1.3-.3-.4-.2-.8-.4-1.1-.7-.3-.3-.6-.7-.7-1.1-.2-.4-.3-.9-.3-1.3V41c0-.4.1-.9.3-1.3.2-.4.4-.8.7-1.1.3-.3.7-.6 1.1-.7.4-.2.9-.3 1.3-.3"/><path class="cls-13" d="M288 37.7h37.4c.4 0 .9.1 1.3.3.4.2.8.4 1.1.7.3.3.6.7.7 1.1.2.4.3.9.3 1.3V52c0 .2-.1.4-.2.6 0 .2-.2.4-.3.6-.1.2-.3.4-.4.5-.2.2-.3.3-.5.4l-.6.3c-.2 0-.4.1-.6.2h-38.1c-.4 0-.9-.1-1.3-.3-.4-.2-.8-.4-1.1-.7-.3-.3-.6-.7-.7-1.1-.2-.4-.3-.9-.3-1.3V41c0-.4.1-.9.3-1.3.2-.4.4-.8.7-1.1.3-.3.7-.6 1.1-.7.4-.2.9-.3 1.3-.3M281.5 117.7l.1-38.8"/><path class="cls-5" d="M282.3 117.7l.1-39.4"/><path class="cls-13" d="M280.1 117.6V80.5M281.5 117.7l.1-38.8M282.3 117.7l.1-39.4M280.1 117.6V80.5"/><path class="cls-5" d="M281.5 117.7h.8"/><path class="cls-13" d="M280.1 117.6l1.4.1M277.7 79.2l.1-18.6"/><path class="cls-5" d="M278.5 78.3V61.4"/><path class="cls-13" d="M276.2 80.5V59.3M277.7 79.2l.1-18.6M278.5 78.3V61.4M276.2 80.5V59.3M281.7 60.7l-.2-25.5"/><path class="cls-5" d="M282.3 61.4V35.2"/><path class="cls-13" d="M280.1 59.4l.2-24.1M281.7 60.7l-.2-25.5"/><path class="cls-5" d="M281.5 35.2h.8"/><path class="cls-13" d="M280.3 35.3l1.2-.1M282.3 61.4V35.2M280.1 59.4l.2-24.1"/><path class="cls-16" d="M282.3 62.1H294.7s.1 0 .2.1c0 0 .1 0 .2.1 0 0 0 .1.1.2 0 0 0 .1.1.2v14.1s0 .1-.1.2c0 0 0 .1-.1.2 0 0-.1 0-.2.1 0 0-.1 0-.2.1h-12.4V61.8"/><path class="cls-13" d="M282.3 62.1H294.7s.1 0 .2.1c0 0 .1 0 .2.1 0 0 0 .1.1.2 0 0 0 .1.1.2v14.1s0 .1-.1.2c0 0 0 .1-.1.2 0 0-.1 0-.2.1 0 0-.1 0-.2.1h-12.4V61.8"/><path class="cls-10" d="M282.4 78.3l-3.9.2"/><path class="cls-3" d="M278.5 78.5V61.4"/><path class="cls-10" d="M278.5 61.4h3.8"/><path class="cls-13" d="M277.8 60.6l3.9.1"/><path class="cls-5" d="M278.5 61.4h3.8"/><path class="cls-13" d="M276.2 59.3l3.9.1M277.8 60.6l3.9.1M278.5 61.4h3.8M276.2 59.3l3.9.1M281.6 78.9l-3.9.3"/><path class="cls-5" d="M282.4 78.3h-3.9"/><path class="cls-13" d="M280.1 80.5h-3.9M281.6 78.9l-3.9.3M282.4 78.3h-3.9M280.1 80.5h-3.9"/><path class="cls-5" d="M282.4 78.3l-.1-16.9"/><path class="cls-17" d="M401.1 35.3l.1-14.6 27.2-.1-.1 15-27.2-.3"/><path class="cls-16" d="M401.2 20.7V24l27.1.3.1-3.7-27.2.1"/><path class="cls-12" d="M401.9 20.7l3.1 3.4M405.7 20.7l2.9 3.4M409.6 20.8l2.9 3.3M413.2 20.5l3.1 3.6M417 20.6l3.2 3.6M420.7 20.6l3.1 3.6M424.5 20.6l3.1 3.6M428.4 20.6l.2.3"/><path class="cls-16" d="M401.2 24l-.1.8 27.2-.1v-.4l-27.1-.3M401.1 24.8l.1 5.5 27.2.2-.1-5.8-27.2.1"/><path class="cls-12" d="M427.7 30.5l-.1-5.8M426.2 30.6l-.1-5.8M424.8 30.5l-.1-5.8M423.3 30.4l-.1-5.5M421.9 30.5l-.1-5.7M420.4 30.4v-5.7M419 30.3l.2-5.5M417.6 30.5l.1-5.8M416.1 30.4l.2-5.5M414.7 30.5l.1-5.8M413.5 30.4l-.1-5.8M412 30.3l-.1-5.5M410.6 30.5l-.1-5.8M409.1 30.4v-5.6M407.7 30.3l-.1-5.6M406.3 30.4l.1-5.5M404.8 30.3l.2-5.5M403.4 30.2l.1-5.5M401.9 30.3l.2-5.5"/><path class="cls-16" d="M401.2 30.3l-.1 5 27.2.3.1-5.1-27.2-.2"/><path class="cls-12" d="M401.3 32.9l2.2 2.4M402.9 30.4l4.5 4.9M406.5 30.4l4.5 4.9M410.3 30.5l4.5 4.8M414.2 30.5l4.4 5.1M418 30.5l4.3 5.1M421.6 30.5l4.5 5.1M425.5 30.5l2.9 3.4"/><path class="cls-14" d="M401.2 24l27.1.3M401.2 20.7l27.2-.1"/><path class="cls-12" d="M401.2 30.3l27.2.2M401.1 24.8l27.2-.1"/><path class="cls-14" d="M401.1 35.3l27.2.3M401.2 30.3l27.2.2"/><path class="cls-13" d="M401.2 20.7l27.2-.1M401.1 35.3l27.2.3"/><path class="cls-17" d="M323.6 35.5l.1-15 36.6.2-.1 14.7-36.6.1"/><path class="cls-16" d="M323.7 20.5v3.4l36.6.2v-3.4l-36.6-.2"/><path class="cls-12" d="M323.9 21.5l2 2.3M326.8 20.5l2.9 3.4M330.4 20.5l3.2 3.4M334.3 20.6l2.9 3.3M338.1 20.6l2.9 3.3M341.7 20.6l3.2 3.3M345.6 20.6l2.9 3.4M349.4 20.7l2.9 3.3M353 20.7l3.2 3.3M356.9 20.7l2.9 3.3"/><path class="cls-16" d="M323.7 23.9v.7l36.5-.1.1-.4-36.6-.2M323.7 24.6l.1 5.6 36.5.1-.1-5.8-36.5.1"/><path class="cls-12" d="M359.6 30.3l-.1-5.8M358.1 30.4v-5.8M356.7 30.3l-.1-5.8M355.3 30.2l-.1-5.5M353.8 30.3l.2-5.7M352.4 30.2l.1-5.7M350.9 30.4l.2-5.8M349.5 30.3l.1-5.8M348.3 30.2l-.1-5.5M346.8 30.3v-5.7M345.4 30.2l-.1-5.5M343.9 30.4v-5.8M342.5 30.3l-.1-5.8M341.1 30.2l.1-5.5M339.6 30.3l.2-5.7M338.2 30.2l.1-5.5M336.7 30.1l.2-5.5M335.5 30.3v-5.8M334.1 30.2l-.1-5.6M332.6 30.3v-5.8M331.2 30.2l-.1-5.5M329.8 30.1l-.1-5.5M328.3 30.2l-.1-5.5M326.9 30.1l.1-5.5M325.4 30.3l.2-5.8M324 30.2l.1-5.5"/><path class="cls-16" d="M323.8 30.2l-.2 5.3 36.6-.1.1-5.1-36.5-.1"/><path class="cls-12" d="M323.7 34.5l.9 1M324 30.2l4.4 5.3M327.6 30.2l4.7 5.1M331.4 30.2l4.5 5.1M335.1 30.2l4.6 5.2M338.9 30.3l4.5 5.1M342.7 30.3l4.5 5.1M346.4 30.3l4.4 5.1M350.2 30.3l4.5 5.2M354.1 30.4l4.4 5.1M357.7 30.4l2.6 2.8"/><path class="cls-14" d="M323.7 23.9l36.6.2M323.7 20.5l36.6.2"/><path class="cls-12" d="M323.8 30.2l36.5.1M323.7 24.6l36.5-.1"/><path class="cls-14" d="M323.6 35.5l36.6-.1M323.8 30.2l36.5.1"/><path class="cls-13" d="M323.7 20.5l36.6.2M323.6 35.5l36.6-.1"/><path class="cls-17" d="M274.3 35.4l.1-14.9 30.5.2.2 14.7h-30.8"/><path class="cls-16" d="M274.4 20.5v3.3l30.5.2v-3.3l-30.5-.2"/><path class="cls-12" d="M274.6 21l2.4 2.8M277.8 20.5l3.1 3.3M281.6 20.5l2.9 3.3M285.5 20.5l2.8 3.3M289.3 20.5l2.9 3.4M292.9 20.6l3.1 3.3M296.8 20.6l2.8 3.3M300.6 20.6l2.9 3.3M304.2 20.6l.9.8"/><path class="cls-16" d="M274.4 23.8l-.1.7h30.8l-.2-.5-30.5-.2M274.3 24.5l.1 5.6 30.6.2.1-5.8h-30.8"/><path class="cls-12" d="M304.3 30.3l-.1-5.8M302.8 30.4l-.1-5.8M301.4 30.3l.1-5.8M299.9 30.2l.2-5.5M298.5 30.3l.1-5.7M297 30.2l.2-5.7M295.8 30.1v-5.5M294.4 30.3l-.1-5.8M293 30.2l-.1-5.6M291.5 30.3l-.1-5.8M290.1 30.2l-.1-5.8M288.6 30.1l.2-5.5M287.2 30.3l.1-5.8M285.7 30.2l.2-5.6M284.3 30.1l.1-5.6M283.1 30.2l-.1-5.5M281.7 30.1l-.1-5.5M280.2 30.3l-.1-5.8M278.8 30.2l-.1-5.6M277.3 30.1l-.1-5.6M275.9 30.2l.1-5.5M274.5 26l.1-1.4"/><path class="cls-16" d="M274.4 30.1l-.1 5.3h30.8l-.1-5.1-30.6-.2"/><path class="cls-12" d="M274.4 33.9l1.3 1.6M274.9 30.1l4.7 5.4M278.8 30.2l4.4 5.1M282.6 30.2l4.5 5.1M286.2 30.2l4.7 5.1M290.1 30.2l4.4 5.1M293.9 30.2l4.5 5.2M297.5 30.3l4.5 5.1M301.4 30.3l3.8 4.3"/><path class="cls-14" d="M274.4 23.8l30.5.2M274.4 20.5l30.5.2"/><path class="cls-12" d="M274.4 30.1l30.6.2M274.3 24.5h30.8"/><path class="cls-14" d="M274.3 35.4h30.8M274.4 30.1l30.6.2"/><path class="cls-13" d="M274.4 20.5l30.5.2M274.3 35.4h30.8M274.4 23.8l-.1 11.6M305 30.3l.1 5.1 18.5.1.2-5.3M306.8 28l.1-7.4h-3.4l-.1-2 21.9.1.1 2H322v7.2M306.9 20.6l15.1.1"/><path class="cls-14" d="M306.9 20.6h-3.4M322 20.7h3.4"/><path class="cls-13" d="M305.1 27.9l18.6.1.1 2.2-18.8.1.1-2.4zM308.8 27.9l-.2 2.4M320.1 28v2.2M305 30.3l.1-2.4M320.1 30.2V28M308.6 30.3l.2-2.4M323.8 30.2l-.1-2.2"/><path class="cls-14" d="M305 30.3l.1 5.1"/><path class="cls-13" d="M306.9 23.9l7.4.1"/><path class="cls-16" d="M305 24.5h1.9v3.4H305"/><path class="cls-12" d="M305.6 27.9v-3.3M305 24.5h1.9v3.4H305"/><path class="cls-16" d="M304.9 20.7l2-.1v3.3l-2 .1"/><path class="cls-12" d="M305.1 21.4l1.8 2.3"/><path class="cls-14" d="M304.9 20.7l2-.1v3.3l-2 .1M306.9 23.9l-.1 4.1M323.8 30.2l-.2 5.3"/><path class="cls-13" d="M322 24h-7.7"/><path class="cls-16" d="M323.7 24.6h-1.8V28h1.8"/><path class="cls-12" d="M322.7 27.9v-3.3M323.7 24.6h-1.8V28h1.8"/><path class="cls-16" d="M323.7 20.5l-1.7.2V24l1.7-.1"/><path class="cls-12" d="M322 23.8l.3.3M323 20.5l.9 1"/><path class="cls-14" d="M323.7 20.5l-1.7.2V24l1.7-.1M322 24v3.9"/><path class="cls-13" d="M362.2 28v-7.4h-3.4l-.1-1.7h44l-.1 1.9h-3.4V28"/><path class="cls-1" d="M360.2 35.4l40.9-.1"/><path class="cls-13" d="M400.6 35.3h.5"/><path class="cls-14" d="M362.2 20.6h-3.4M399.2 20.8h3.4"/><path class="cls-13" d="M360.2 27.9l40.9.2.1 2.2h-40.9l-.1-2.4zM364.1 27.9l-.2 2.4M397.5 28.1l-.1 2.2M360.3 30.3l-.1-2.4M378.6 30.4l.2-2.4M363.9 30.3l.2-2.4M382.7 30.2l.1-2.2M378.6 30.4l.2-2.4M397.4 30.3l.1-2.2M382.7 30.2l.1-2.2M401.2 30.3l-.1-2.2"/><path class="cls-16" d="M360.3 24.6h1.9l-.1 3.4h-1.8"/><path class="cls-12" d="M361 28v-3.4M360.3 24.6h1.9l-.1 3.4h-1.8"/><path class="cls-14" d="M360.3 30.3l-.1 5.1"/><path class="cls-16" d="M360.3 20.7l1.9-.1V24l-1.9.1"/><path class="cls-12" d="M360.7 20.7l1.6 1.8"/><path class="cls-14" d="M360.3 20.7l1.9-.1V24l-1.9.1M362.2 24v4"/><path class="cls-16" d="M401.1 24.7h-1.8v3.4h1.8"/><path class="cls-12" d="M400.6 28.1v-3.4M401.1 24.7h-1.8v3.4h1.8"/><path class="cls-14" d="M401.2 30.3l-.1 5"/><path class="cls-16" d="M401.2 20.7l-2 .1v3.3l2-.1"/><path class="cls-12" d="M399.4 22l1.8 2"/><path class="cls-14" d="M401.2 20.7l-2 .1v3.3l2-.1M399.2 24.1V28"/><path class="cls-17" d="M249.2 345.9v14.7l-24.8-.1v-14.6h24.8"/><path class="cls-16" d="M249.2 360.6v-3.4h-24.8v3.3l24.8.1"/><path class="cls-12" d="M224.9 357.2l3.1 3.3M228.7 357.2l2.9 3.3M232.6 357.2l2.8 3.4M236.2 357.3l3.1 3.3M240 357.3l2.9 3.3M243.9 357.3l2.9 3.3M247.5 357.1l1.8 2"/><path class="cls-16" d="M249.2 357.2v-.5h-24.8v.5h24.8M249.2 356.7l.2-5.7-25.1-.1.1 5.8h24.8"/><path class="cls-12" d="M225.8 351v5.8M227.2 350.9l.1 5.7M228.7 351v5.7M230.1 350.8l.1 5.8M231.6 350.9l-.2 5.8M233 351l-.2 5.8M234.4 350.9l-.1 5.7M235.6 351l.1 5.7M237.1 350.8l.1 5.8M238.5 350.9l.1 5.8M240 351v5.8M241.4 350.9l.1 5.8M242.9 351v5.8M244.3 350.8l-.2 5.8M245.7 350.9l-.1 5.8M247.2 351.1l-.2 5.7M248.4 350.9l.1 5.8"/><path class="cls-16" d="M249.4 351l-.2-5.1h-24.8l-.1 5 25.1.1"/><path class="cls-12" d="M224.5 348l2.5 2.8M226.4 345.7l4.4 5.2M230.2 345.8l4.5 5.1M233.8 345.8l4.5 5.1M237.7 345.8l4.4 5.1M241.5 345.8l4.5 5.2M245.1 345.9l4.3 4.8M249 345.9l.4.5"/><path class="cls-14" d="M249.2 357.2h-24.8M249.2 360.6l-24.8-.1"/><path class="cls-12" d="M249.4 351l-25.1-.1M249.2 356.7h-24.8"/><path class="cls-14" d="M249.2 345.9h-24.8M249.4 351l-25.1-.1"/><path class="cls-13" d="M249.2 360.6l-24.8-.1M249.2 345.9h-24.8"/><path class="cls-17" d="M352.4 346.1v14.7l-40.2-.2.1-14.6 40.1.1"/><path class="cls-16" d="M352.4 360.8v-3.4l-40.2-.1v3.3l40.2.2"/><path class="cls-12" d="M312.4 358.3l2 2.3M315.3 357.3l2.9 3.3M318.9 357.3l3.2 3.3M322.8 357.3l2.9 3.3M326.6 357.3l2.9 3.4M330.2 357.3l3.2 3.4M334.1 357.4l2.9 3.3M337.9 357.4l2.9 3.3M341.5 357.4l3.2 3.4M345.4 357.4l2.9 3.4M349.2 357.5l2.9 3.3"/><path class="cls-16" d="M352.4 357.4v-.7l-40.2.1v.5l40.2.1"/><path class="cls-16" d="M352.4 356.7l.1-5.5-40.4-.2.1 5.8 40.2-.1"/><path class="cls-12" d="M312.4 351l-.1 1.5M313.6 351.1l.1 5.8M315 351l.1 5.8M316.5 351.1v5.8M317.9 350.9l.1 5.8M319.4 351v5.8M320.8 351.1l.1 5.6M322.2 351l-.1 5.8M323.7 351.1l-.2 5.8M325.1 351.2l-.1 5.5M326.6 351.1l-.2 5.7M327.8 351.2l.1 5.5M329.2 351l.1 5.8M330.7 351.1v5.8M332.1 351.2l.1 5.6M333.5 351.1l.1 5.8M335 351.2l-.2 5.5M336.4 351l-.1 5.8M337.9 351.1l-.2 5.6M339.3 351.2l-.1 5.6M340.5 351.1l.1 5.8M342 351.2l.1 5.5M343.4 351.3l.1 5.5M344.9 351.1v5.6M346.3 351.2l.1 5.6M347.7 351.1l-.1 5.5M349.2 351.2l-.2 5.5M350.6 351.3l-.1 5.5M352.1 351.2l-.2 5.5"/><path class="cls-16" d="M352.5 351.2l-.1-5.1-40.1-.1-.2 5 40.4.2"/><path class="cls-12" d="M312.2 349.6l1.4 1.5M313 346l4.4 5.2M316.6 346l4.4 5.2M320.4 346.1l4.5 5.1M324.3 346.1l4.4 5.1M327.9 346.1l4.4 5.1M331.7 346.1l4.5 4.9M335.6 346.2l4.4 4.8M339.2 346.2l4.5 4.9M343 346.2l4.5 4.9M346.9 346.2l4.4 4.9M350.5 346.2l2 2.1"/><path class="cls-14" d="M352.4 357.4l-40.2-.1M352.4 360.8l-40.2-.2"/><path class="cls-12" d="M352.5 351.2l-40.4-.2M352.4 356.7l-40.2.1"/><path class="cls-14" d="M352.4 346.1l-40.1-.1M352.5 351.2l-40.4-.2"/><path class="cls-13" d="M352.4 360.8l-40.2-.2M352.4 346.1l-40.1-.1"/><path class="cls-17" d="M428 346.1l-.1 14.7h-34.6v-14.7H428"/><path class="cls-16" d="M427.9 360.8v-3.4h-34.6v3.4h34.6"/><path class="cls-12" d="M393.3 360.8h.2M394.2 357.5l2.9 3.3M398.1 357.5l2.9 3.3M401.7 357.5l2.9 3.4M405.5 357.6l2.9 3.3M409.4 357.3l2.9 3.6M413 357.4l2.9 3.3M416.8 357.4l2.9 3.3M420.4 357.4l3.2 3.3M424.3 357.4l2.9 3.4"/><path class="cls-16" d="M427.9 357.4v-.4l-34.6-.1v.5h34.6M427.9 357v-5.8h-34.7l.1 5.7 34.6.1"/><path class="cls-12" d="M394.4 351.2l.1 5.8M395.9 351.1v5.8M397.3 351.2l.1 5.8M398.7 351.1l.1 5.7M400.2 351.2l.1 5.7M401.6 351.3l-.1 5.7M403.1 351.1l-.2 5.8M404.5 351.2l-.2 5.8M405.7 351.1l.1 5.7M407.2 351.2v5.7M408.6 351.3l.1 5.8M410.1 351.1v5.8M411.5 351.2l.1 5.8M412.9 351.1l.1 5.8M414.4 351.2l-.2 5.8M415.8 351.3l-.1 5.8M417.3 351.2l-.2 5.7M418.5 351.2v5.8M419.9 351.1l.1 5.8M421.4 351.2v5.8M422.8 351.1l.1 6M424.2 351.2l.1 5.7M425.7 351.3l.1 5.7M427.1 351.1l-.1 5.8"/><path class="cls-16" d="M427.9 351.2l.1-5.1h-34.7l-.1 5.1h34.7"/><path class="cls-12" d="M393.4 347.8l2.9 3.3M395.7 346l4.2 5.1M399.3 346.1l4.5 5.1M403.2 346.1l4.4 5.1M407 346.1l4.2 5.1M410.6 346.1l4.5 5.1M414.5 346.1l4.4 5.2M418.1 346.2l4.5 5.1M421.9 346.2l4.5 4.9M425.8 346.2l2.2 2.6"/><path class="cls-14" d="M427.9 357.4h-34.6M427.9 360.8h-34.6"/><path class="cls-12" d="M427.9 351.2h-34.7M427.9 357l-34.6-.1"/><path class="cls-14" d="M428 346.1h-34.7M427.9 351.2h-34.7"/><path class="cls-13" d="M427.9 360.8h-34.6M428 346.1h-34.7"/><path class="cls-1" d="M312.3 346l-63.1-.1"/><path class="cls-13" d="M249.7 345.9h-.5M312.2 353.4h-63l.2-2.4h62.7l.1 2.4zM308.6 353.4l-.1-2.4M253 353.4V351M312.1 351l.1 2.4M293.4 351.2l-.2 2.1M308.5 351l.1 2.4M289.3 351.1l-.2 2.2M293.4 351.2l-.2 2.1M272.2 351.1l.1 2.2M289.3 351.1l-.2 2.2M268.1 351.1l.1 2.1M272.2 351.1l.1 2.2M253 351v2.4M268.1 351.1l.1 2.1M249.4 351l-.2 2.4"/><path class="cls-14" d="M312.1 351l.2-5"/><path class="cls-13" d="M247.7 360.7l.1 1.7"/><path class="cls-11" d="M247.8 362.4l65.9.3"/><path class="cls-13" d="M313.7 362.7l.1-1.2"/><path class="cls-16" d="M312.2 356.8h-1.8v-3.4h1.8"/><path class="cls-12" d="M310.8 353.3v3.4M312.2 353.4v3.4M312.2 356.8h-1.8v-3.4h1.8"/><path class="cls-16" d="M312.2 360.6l-1.9.2v-3.4l1.9-.1"/><path class="cls-12" d="M310.3 360.3l.4.5M311.5 357.2l.9 1.1"/><path class="cls-14" d="M312.2 360.6l-1.9.2v-3.4l1.9-.1M310.3 357.4v-4.1"/><path class="cls-16" d="M249.3 356.7h1.8v-3.4h-1.8"/><path class="cls-12" d="M249.9 353.4v3.4M249.3 356.7h1.8v-3.4h-1.8"/><path class="cls-14" d="M249.4 351l-.2-5.1"/><path class="cls-16" d="M249.2 360.6l1.9.1v-3.4l-1.9-.1"/><path class="cls-12" d="M249.3 359.1l1.3 1.6"/><path class="cls-14" d="M249.2 360.6l1.9.1v-3.4l-1.9-.1M251.1 357.3v-4"/><path class="cls-13" d="M391.4 353.4l-.1 7.5h3.6l-.1 1.9-44-.2.1-1.9h3.4v-7.2"/><path class="cls-1" d="M393.3 346.1h-40.9"/><path class="cls-13" d="M352.9 346.2l-.5-.1"/><path class="cls-14" d="M391.3 360.9h3.6M354.3 360.7h-3.4"/><path class="cls-13" d="M393.3 353.6l-40.9-.2.1-2.2h40.7l.1 2.4zM389.7 353.6l-.1-2.5M356.2 353.4v-2.2M393.2 351.2l.1 2.4M374.9 351.1l.1 2.4M389.6 351.1l.1 2.5M370.8 351.3l.1 2.1M374.9 351.1l.1 2.4M356.2 351.2v2.2M370.8 351.3l.1 2.1M352.5 351.2l-.1 2.2"/><path class="cls-16" d="M393.3 356.9h-1.9v-3.4h1.9"/><path class="cls-12" d="M391.6 353.5v3.3M393 353.6v3.3M393.3 356.9h-1.9v-3.4h1.9"/><path class="cls-14" d="M393.2 351.2l.1-5.1"/><path class="cls-16" d="M393.3 360.8l-2 .1v-3.4l2-.1"/><path class="cls-12" d="M391.5 358.5l1.8 2.3"/><path class="cls-14" d="M393.3 360.8l-2 .1v-3.4l2-.1M391.3 357.5l.1-4.1"/><path class="cls-16" d="M352.5 356.8h1.8v-3.4h-1.8"/><path class="cls-12" d="M353.4 353.4v3.4M352.5 356.8h1.8v-3.4h-1.8"/><path class="cls-14" d="M352.5 351.2l-.1-5.1"/><path class="cls-16" d="M352.4 360.8l1.9-.1v-3.4l-1.9.1"/><path class="cls-12" d="M352.8 357.5l1.6 1.5"/><path class="cls-14" d="M352.4 360.8l1.9-.1v-3.4l-1.9.1M354.3 357.3v-3.8"/><path class="cls-16" d="M.1 61.4l8-6.6 3.1-45.3L4.4.1.1 61.4"/><path class="cls-12" d="M11.3 11.9L4.4 4M11 15.8l-6.9-8M10.7 19.8l-6.9-7.9M10.5 23.9L3.6 16M10.2 28l-6.9-8M9.9 31.8L3 23.9M9.6 35.9l-6.9-8M9.3 39.9L2.4 32M9.1 43.8l-6.9-8M8.8 47.8l-6.9-7.9M8.5 51.9L1.6 44M7.6 55.2l-6.3-7.4M5.5 57l-4.4-5.1M3.2 59L.8 55.9M1.1 60.8L.5 60M.6 58.1l8-6.9M.9 54l7.9-6.9M1.2 50.2l7.9-6.9M1.5 46.1l7.9-6.9M1.7 42.1l8-6.9M2 38.2l7.9-6.9M2.3 34.2l7.9-6.9M2.6 30.1l7.9-6.9M2.9 26l7.9-6.9M3.1 22.2l8-6.9M3.4 18.1l8-6.9M3.7 14l6.7-5.7M4 10.2L8.6 6M4.2 6.1l2.9-2.4M4.5 2.1l.8-.9"/><path class="cls-16" d="M.1 61.4l8-6.6 3.1-45.3L4.4.1.1 61.4"/><path class="cls-12" d="M11.3 11.9L4.4 4M11 15.8l-6.9-8M10.7 19.8l-6.9-7.9M10.5 23.9L3.6 16M10.2 28l-6.9-8M9.9 31.8L3 23.9M9.6 35.9l-6.9-8M9.3 39.9L2.4 32M9.1 43.8l-6.9-8M8.8 47.8l-6.9-7.9M8.5 51.9L1.6 44M7.6 55.2l-6.3-7.4M5.5 57l-4.4-5.1M3.2 59L.8 55.9M1.1 60.8L.5 60M.6 58.1l8-6.9M.9 54l7.9-6.9M1.2 50.2l7.9-6.9M1.5 46.1l7.9-6.9M1.7 42.1l8-6.9M2 38.2l7.9-6.9M2.3 34.2l7.9-6.9M2.6 30.1l7.9-6.9M2.9 26l7.9-6.9M3.1 22.2l8-6.9M3.4 18.1l8-6.9M3.7 14l6.7-5.7M4 10.2L8.6 6M4.2 6.1l2.9-2.4M4.5 2.1l.8-.9"/><path class="cls-14" d="M4.4.1L.1 61.4M11.2 9.5L8.1 54.8M11.2 9.5L8.1 54.8M4.4.1L.1 61.4"/><path class="cls-16" d="M58.1 106.6l7.7-6.4L68.6 59 61 65.7l-2.9 40.9"/><path class="cls-12" d="M68.8 60.7l-.9-1M68.5 64.8l-2.7-3.1M68.2 68.6l-4.7-5.1M67.9 72.7l-6.4-7.5M67.6 76.7L61 69.1M67.4 80.6l-6.7-7.7M67.1 84.6L60.4 77M66.8 88.7L60.1 81M66.5 92.8l-6.7-7.7M66.2 96.6l-6.6-7.7M65.7 100.4L59.3 93M63.5 102.2L59 97.1M61.4 104l-2.7-3.1M59.1 106l-.7-1M58.4 105.4l7.7-6.6M58.7 101.6l7.7-6.7M59 97.5l7.7-6.6M59.3 93.5l7.6-6.7M59.5 89.6l7.7-6.6M59.8 85.6l7.7-6.7M60.1 81.5l7.7-6.7M60.4 77.4l7.7-6.6M60.6 73.6l7.7-6.7M60.9 69.5l7.7-6.6"/><path class="cls-16" d="M58.1 106.6l7.7-6.4L68.6 59 61 65.7l-2.9 40.9"/><path class="cls-12" d="M68.8 60.7l-.9-1M68.5 64.8l-2.7-3.1M68.2 68.6l-4.7-5.1M67.9 72.7l-6.4-7.5M67.6 76.7L61 69.1M67.4 80.6l-6.7-7.7M67.1 84.6L60.4 77M66.8 88.7L60.1 81M66.5 92.8l-6.7-7.7M66.2 96.6l-6.6-7.7M65.7 100.4L59.3 93M63.5 102.2L59 97.1M61.4 104l-2.7-3.1M59.1 106l-.7-1M58.4 105.4l7.7-6.6M58.7 101.6l7.7-6.7M59 97.5l7.7-6.6M59.3 93.5l7.6-6.7M59.5 89.6l7.7-6.6M59.8 85.6l7.7-6.7M60.1 81.5l7.7-6.7M60.4 77.4l7.7-6.6M60.6 73.6l7.7-6.7M60.9 69.5l7.7-6.6"/><path class="cls-14" d="M61 65.7l-2.9 40.9M68.6 59l-2.8 41.2M68.6 59l-2.8 41.2M61 65.7l-2.9 40.9"/><path class="cls-16" d="M8.1 54.8l-8 6.6L61 65.7l7.6-6.7-60.5-4.2"/><path class="cls-12" d="M67.9 59.7l-.7-.8M65.8 61.7l-2.7-3.1M63.5 63.5l-4.4-5.2M61.5 65.2l-6.3-7.1M57.8 65.5l-6.6-7.7M53.8 65.2l-6.7-7.7M49.7 64.9L43 57.2M45.9 64.6l-6.7-7.7M41.8 64.3l-6.7-7.6M37.7 64.1L31 56.4M33.9 63.8l-6.7-7.7M29.8 63.5l-6.7-7.7M25.8 63.2l-6.7-7.7M21.7 62.9L15 55.3M17.9 62.7L11.2 55M13.8 62.4l-6.2-7.2M9.7 62.1L5.5 57M5.9 61.8L3.2 59M1.8 61.5l-.7-.7M61 65.7l7.6-6.7M56.9 65.4l7.7-6.7M52.8 65.1l7.7-6.7M49 64.8l7.7-6.6M44.9 64.6l7.7-6.7M40.8 64.3l7.7-6.7M37 64l7.7-6.7M32.9 63.7l7.7-6.7M28.9 63.4l7.7-6.6M25 63.2l7.7-6.7M21 62.9l7.7-6.7M16.9 62.6l7.7-6.7M12.8 62.3l7.7-6.7M9 62.1l7.7-6.7M4.9 61.8l7.7-6.7M.9 61.5l7.6-6.7"/><path class="cls-16" d="M8.1 54.8l-8 6.6L61 65.7l7.6-6.7-60.5-4.2"/><path class="cls-12" d="M67.9 59.7l-.7-.8M65.8 61.7l-2.7-3.1M63.5 63.5l-4.4-5.2M61.5 65.2l-6.3-7.1M57.8 65.5l-6.6-7.7M53.8 65.2l-6.7-7.7M49.7 64.9L43 57.2M45.9 64.6l-6.7-7.7M41.8 64.3l-6.7-7.6M37.7 64.1L31 56.4M33.9 63.8l-6.7-7.7M29.8 63.5l-6.7-7.7M25.8 63.2l-6.7-7.7M21.7 62.9L15 55.3M17.9 62.7L11.2 55M13.8 62.4l-6.2-7.2M9.7 62.1L5.5 57M5.9 61.8L3.2 59M1.8 61.5l-.7-.7M61 65.7l7.6-6.7M56.9 65.4l7.7-6.7M52.8 65.1l7.7-6.7M49 64.8l7.7-6.6M44.9 64.6l7.7-6.7M40.8 64.3l7.7-6.7M37 64l7.7-6.7M32.9 63.7l7.7-6.7M28.9 63.4l7.7-6.6M25 63.2l7.7-6.7M21 62.9l7.7-6.7M16.9 62.6l7.7-6.7M12.8 62.3l7.7-6.7M9 62.1l7.7-6.7M4.9 61.8l7.7-6.7M.9 61.5l7.6-6.7"/><path class="cls-14" d="M62.7 58.6L8.1 54.8M61 65.7L.1 61.4M61 65.7L.1 61.4M62.7 58.6L8.1 54.8"/><path class="cls-16" d="M95.2 109.2l.5-6.9 136 9.5-7 6.5-129.5-9.1"/><path class="cls-12" d="M230.6 112.9l-1.3-1.3M228.6 114.9l-3.2-3.5M226.5 117l-5.1-5.9M223.8 118.2l-6.5-7.4M219.9 117.9l-6.4-7.4M215.9 117.7l-6.5-7.5M211.8 117.4l-6.5-7.5M208 117.1l-6.5-7.4M203.9 116.8l-6.5-7.4M199.8 116.5l-6.4-7.4M195.8 116.3l-6.5-7.5M191.9 116l-6.4-7.4M187.9 115.7l-6.5-7.4M183.8 115.4l-6.5-7.4M180 115.1l-6.5-7.4M175.9 114.9l-6.5-7.5M171.8 114.6l-6.4-7.5M167.7 114.3l-6.4-7.4M163.9 114l-6.4-7.4M159.8 113.7l-6.4-7.4M155.8 113.5l-6.5-7.5M151.9 113.2l-6.4-7.4M147.9 112.9l-6.5-7.4M143.8 112.6l-6.5-7.4M140 112.4l-6.5-7.5M135.9 112.1l-6.5-7.5M131.8 111.8l-6.4-7.4M127.8 111.5l-6.5-7.4M123.9 111.2l-6.4-7.4M119.9 110.9l-6.5-7.4M115.8 110.7l-6.5-7.5M112 110.4l-6.5-7.4M107.9 110.1l-6.5-7.4M103.8 109.8l-6.4-7.4M100 109.6l-4.2-4.9M95.9 109.3l-.4-.5M221.1 118l7.5-6.4M217.1 117.7l7.4-6.4M213 117.5l7.4-6.5M209.2 117.2l7.4-6.5M205.1 116.9l7.4-6.5M201 116.6l7.4-6.4M197 116.3l7.4-6.4M193.1 116.1l7.4-6.5M189.1 115.8l7.4-6.5M185 115.5l7.4-6.5M181.1 115.2l7.5-6.4M177.1 114.9l7.4-6.4M173 114.7l7.4-6.5M169.2 114.4l7.4-6.5M165.1 114.1l7.4-6.4M161 113.8l7.5-6.4M157 113.5l7.4-6.4M153.1 113.3l7.5-6.5M149.1 113l7.4-6.5M145 112.7l7.4-6.5M141.2 112.4l7.4-6.4M137.1 112.1l7.4-6.4M133 111.9l7.5-6.5M129.2 111.6l7.4-6.5M125.1 111.3l7.5-6.4M121.1 111l7.4-6.4M117 110.7l7.4-6.4M113.2 110.5l7.4-6.5M109.1 110.2l7.4-6.5M105 109.9l7.4-6.5M101.2 109.6l7.4-6.4M97.1 109.4l7.4-6.5M95.6 107.1l4.9-4.5M95.9 103l.5-.7"/><path class="cls-16" d="M95.7 102.3l-.5 6.9 129.5 9.1 7-6.5-136-9.5"/><path class="cls-12" d="M230.6 112.9l-1.3-1.3M228.6 114.9l-3.2-3.5M226.5 117l-5.1-5.9M223.8 118.2l-6.5-7.4M219.9 117.9l-6.4-7.4M215.9 117.7l-6.5-7.5M211.8 117.4l-6.5-7.5M208 117.1l-6.5-7.4M203.9 116.8l-6.5-7.4M199.8 116.5l-6.4-7.4M195.8 116.3l-6.5-7.5M191.9 116l-6.4-7.4M187.9 115.7l-6.5-7.4M183.8 115.4l-6.5-7.4M180 115.1l-6.5-7.4M175.9 114.9l-6.5-7.5M171.8 114.6l-6.4-7.5M167.7 114.3l-6.4-7.4M163.9 114l-6.4-7.4M159.8 113.7l-6.4-7.4M155.8 113.5l-6.5-7.5M151.9 113.2l-6.4-7.4M147.9 112.9l-6.5-7.4M143.8 112.6l-6.5-7.4M140 112.4l-6.5-7.5M135.9 112.1l-6.5-7.5M131.8 111.8l-6.4-7.4M127.8 111.5l-6.5-7.4M123.9 111.2l-6.4-7.4M119.9 110.9l-6.5-7.4M115.8 110.7l-6.5-7.5M112 110.4l-6.5-7.4M107.9 110.1l-6.5-7.4M103.8 109.8l-6.4-7.4M100 109.6l-4.2-4.9M95.9 109.3l-.4-.5M221.1 118l7.5-6.4M217.1 117.7l7.4-6.4M213 117.5l7.4-6.5M209.2 117.2l7.4-6.5M205.1 116.9l7.4-6.5M201 116.6l7.4-6.4M197 116.3l7.4-6.4M193.1 116.1l7.4-6.5M189.1 115.8l7.4-6.5M185 115.5l7.4-6.5M181.1 115.2l7.5-6.4M177.1 114.9l7.4-6.4M173 114.7l7.4-6.5M169.2 114.4l7.4-6.5M165.1 114.1l7.4-6.4M161 113.8l7.5-6.4M157 113.5l7.4-6.4M153.1 113.3l7.5-6.5M149.1 113l7.4-6.5M145 112.7l7.4-6.5M141.2 112.4l7.4-6.4M137.1 112.1l7.4-6.4M133 111.9l7.5-6.5M129.2 111.6l7.4-6.5M125.1 111.3l7.5-6.4M121.1 111l7.4-6.4M117 110.7l7.4-6.4M113.2 110.5l7.4-6.5M109.1 110.2l7.4-6.5M105 109.9l7.4-6.5M101.2 109.6l7.4-6.4M97.1 109.4l7.4-6.5M95.6 107.1l4.9-4.5M95.9 103l.5-.7"/><path class="cls-14" d="M95.2 109.2l129.5 9.1M95.7 102.3l136 9.5M95.7 102.3l136 9.5M95.2 109.2l129.5 9.1"/><path class="cls-16" d="M62.9 107l.3-4.8-5.1 4.4 4.8.4"/><path class="cls-12" d="M63.2 106l-2-2M59.8 106.7l-.7-.7M61.2 106.8l2.1-1.7"/><path class="cls-16" d="M62.9 107l.3-4.8-5.1 4.4 4.8.4"/><path class="cls-12" d="M63.2 106l-2-2M59.8 106.7l-.7-.7M61.2 106.8l2.1-1.7"/><path class="cls-14" d="M58.1 106.6l4.8.4M58.1 106.6l4.8.4"/><path class="cls-13" transform="rotate(-86 64.216 106.897)" d="M63.4 105.6h1.7v2.6h-1.7z"/><path class="cls-13" transform="rotate(-86 93.91 109.024)" d="M93.1 107.7h1.7v2.6h-1.7z"/><path class="cls-13" transform="rotate(-86 79.038 107.988)" d="M78.2 94.4h1.7v27.1h-1.7z"/><path class="cls-13" d="M65.6 106.2l27 1.9"/><path class="cls-1" d="M65.8 100.2l27.7 1.9"/><path class="cls-13" d="M93.1 102.1h.4"/><path class="cls-16" d="M63.5 100l2.2.1-.4 6-2.2-.2-.1 1.1"/><path class="cls-12" d="M66 100.7l-.5-.5M65.7 104.7l-2.2-2.5M63.3 105.1l2.5-2.3M63.5 101l1.1-.9"/><path class="cls-14" d="M65.7 100.1l-.4 6-2.2-.2-.1 1.1"/><path class="cls-16" d="M95.7 102.3l-2.2-.2-.4 6 2.2.2-.1.9"/><path class="cls-12" d="M95.8 104.7l-2-2.3M95 108.2l-1.5-1.7M94.1 108.2l1.5-1.1M93.6 105l2.3-2"/><path class="cls-14" d="M95.7 102.3l-2.2-.2-.4 6 2.2.2-.1.9"/><path class="cls-16" d="M4.4.1l6.8 9.4 54.6 3.8L73.6 5 4.4.1"/><path class="cls-12" d="M73.3 5.4l-.6-.5M71.3 7.5l-2.5-2.9M69.4 9.7l-4.6-5.3M67.4 11.8l-6.7-7.7M65.1 13.3l-8.2-9.5M61 13l-8.2-9.5M57 12.7l-8.3-9.5M53.1 12.4L44.9 3M49.1 12.2l-8.3-9.5M45 11.9l-8.3-9.5M40.9 11.6l-8.2-9.5M37.1 11.3l-8.3-9.5M33 11l-8.2-9.4M28.9 10.8l-8.2-9.5M25.1 10.5L16.9 1M21 10.2L12.8.7M17 9.9L8.7.4M13.1 9.7L4.9.2M65.1 13.3l5.1-4.5M61 13l9.5-8.2M57 12.7l9.4-8.2M53.1 12.4l9.5-8.2M49.1 12.2l9.4-8.3M45 11.9l9.5-8.3M40.9 11.6l9.5-8.2M37.1 11.3l9.5-8.2M33 11l9.5-8.2M28.9 10.8l9.5-8.3M25.1 10.5l9.5-8.2M21 10.2L30.5 2M17 9.9l9.5-8.2M13.1 9.7l9.5-8.3M10.4 8.3l8.2-7.2M8.6 6L14.5.8M7.1 3.7L10.4.6M5.3 1.2L6.6.3"/><path class="cls-16" d="M4.4.1l6.8 9.4 54.6 3.8L73.6 5 4.4.1"/><path class="cls-12" d="M73.3 5.4l-.6-.5M71.3 7.5l-2.5-2.9M69.4 9.7l-4.6-5.3M67.4 11.8l-6.7-7.7M65.1 13.3l-8.2-9.5M61 13l-8.2-9.5M57 12.7l-8.3-9.5M53.1 12.4L44.9 3M49.1 12.2l-8.3-9.5M45 11.9l-8.3-9.5M40.9 11.6l-8.2-9.5M37.1 11.3l-8.3-9.5M33 11l-8.2-9.4M28.9 10.8l-8.2-9.5M25.1 10.5L16.9 1M21 10.2L12.8.7M17 9.9L8.7.4M13.1 9.7L4.9.2M65.1 13.3l5.1-4.5M61 13l9.5-8.2M57 12.7l9.4-8.2M53.1 12.4l9.5-8.2M49.1 12.2l9.4-8.3M45 11.9l9.5-8.3M40.9 11.6l9.5-8.2M37.1 11.3l9.5-8.2M33 11l9.5-8.2M28.9 10.8l9.5-8.3M25.1 10.5l9.5-8.2M21 10.2L30.5 2M17 9.9l9.5-8.2M13.1 9.7l9.5-8.3M10.4 8.3l8.2-7.2M8.6 6L14.5.8M7.1 3.7L10.4.6M5.3 1.2L6.6.3"/><path class="cls-14" d="M73.6 5L4.4.1M65.8 13.3L11.2 9.5M65.8 13.3L11.2 9.5M73.6 5L4.4.1"/><path class="cls-16" d="M231.3 350.9h-7l.4-232.6 7-6.5-.4 239.1"/><path class="cls-12" d="M231.7 114.4l-1.1-1.5M231.7 118.8l-3.1-3.9M231.8 123.1l-5.3-6.1M231.8 127.4l-6.9-8.1M231.7 131.8l-6.9-8.2M231.7 135.8l-6.9-7.9M231.9 140.2l-7.2-8M231.8 144.5l-6.9-7.9M231.7 148.8l-6.9-7.9M231.7 153.2l-6.9-8M231.8 157.5l-7.1-7.9M231.8 161.8l-6.9-7.9M231.7 166.2l-6.9-8M231.7 170.5l-6.9-8M231.6 174.8l-6.9-7.9M231.8 179.2l-7.2-8M231.7 183.5l-6.9-8M231.7 187.8l-6.9-8.2M231.6 192.1l-6.9-8.1M231.8 196.2l-7.2-7.9M231.7 200.6l-6.9-8M231.7 204.9l-6.9-7.9M231.6 209.2l-6.9-7.9M231.5 213.5l-6.9-7.9M231.7 217.9l-6.9-8M231.7 222.2l-7-7.9M231.6 226.5l-6.9-7.9M231.5 230.9l-6.9-8M231.7 235.2l-7.1-7.9M231.6 239.5l-6.9-7.9M231.6 243.9l-6.9-8M231.5 248.2l-6.9-8.2M231.5 252.5l-6.9-8.2M231.6 256.9l-6.9-8.2M231.6 260.9l-6.9-7.9M231.5 265.3l-6.9-8M231.5 269.6l-6.9-7.9M231.6 273.9l-7.1-7.9M231.6 278.3l-6.9-8M231.5 282.6l-6.9-8M231.5 286.9l-6.9-7.9M231.6 291.3l-7.1-8M231.6 295.6l-6.9-8M231.5 299.9l-6.9-7.9M231.4 304.2l-6.8-8.1M231.4 308.6l-6.9-8.2M231.6 312.9l-7.2-8.2M231.5 317.2l-6.9-8.1M231.5 321.3l-6.9-7.9M231.4 325.6l-6.9-7.9M231.6 330l-7.2-8M231.5 334.3l-6.9-7.9M231.4 338.6l-6.9-7.9M231.4 343l-6.9-8M231.3 347.3l-6.9-7.9M230.8 350.9l-6.4-7.2M227 350.8l-2.5-2.8M229.6 351l1.8-1.5M225.3 351l6.1-5.4M224.5 348l7-6.2M224.6 344.2l6.9-6M224.6 340.3l6.9-6M224.4 336.7l7.1-6.2M224.4 332.9l7.2-6M224.4 329l7.2-6M224.4 325.4l7.2-6M224.5 321.6l6.9-6.1M224.5 317.9l6.9-6.2M224.5 314.1l6.9-6M224.5 310.3l6.9-6.1M224.5 306.6l7-6.2M224.6 302.8l6.9-6M224.6 298.9l6.9-6M224.6 295.3l6.9-6M224.6 291.5l7-6M224.7 287.6l6.9-6M224.7 284l6.9-6M224.5 280.2l7.1-6M224.5 276.6l7.2-6.3M224.5 272.7l7.2-6M224.5 268.9l7-6M224.5 265.3l7-6.3M224.6 261.4l6.9-6M224.6 257.6l6.9-6M224.6 254l6.9-6.1M224.6 250.1l7-6M224.7 246.3l6.9-6M224.7 242.7l6.9-6.1M224.7 238.8l6.9-6M224.7 235.2l7-6.2M224.8 231.4l6.9-6.1M224.8 227.5l6.9-6M224.6 223.9l7.1-6.3M224.6 220l7.1-6M224.6 216.2l6.9-6M224.6 212.6l6.9-6M224.7 208.7l6.9-6M224.7 204.9l6.9-6M224.7 201.3l6.9-6M224.7 197.4l6.9-6M224.7 193.8l7-6.2M224.8 190l6.9-6M224.8 186.1l6.9-6M224.8 182.5l6.9-6.2M224.8 178.7l6.9-6M224.9 174.8l6.9-6M224.6 171.2l7.2-6M224.7 167.4l7.1-6M224.7 163.5l7.1-6M224.7 159.9l6.9-6M224.7 156l6.9-6M224.7 152.4l7-6.2M224.8 148.6l6.9-6M224.8 144.7l6.9-6M224.8 141.1l6.9-6M224.8 137.3l7-6M224.9 133.4l6.9-6M224.9 129.8l6.9-6M224.9 126l6.9-6M224.9 122.1l7-6M224.9 118.5l7-6"/><path class="cls-16" d="M224.3 350.9h7l.4-239.1-7 6.5-.4 232.6"/><path class="cls-12" d="M231.7 114.4l-1.1-1.5M231.7 118.8l-3.1-3.9M231.8 123.1l-5.3-6.1M231.8 127.4l-6.9-8.1M231.7 131.8l-6.9-8.2M231.7 135.8l-6.9-7.9M231.9 140.2l-7.2-8M231.8 144.5l-6.9-7.9M231.7 148.8l-6.9-7.9M231.7 153.2l-6.9-8M231.8 157.5l-7.1-7.9M231.8 161.8l-6.9-7.9M231.7 166.2l-6.9-8M231.7 170.5l-6.9-8M231.6 174.8l-6.9-7.9M231.8 179.2l-7.2-8M231.7 183.5l-6.9-8M231.7 187.8l-6.9-8.2M231.6 192.1l-6.9-8.1M231.8 196.2l-7.2-7.9M231.7 200.6l-6.9-8M231.7 204.9l-6.9-7.9M231.6 209.2l-6.9-7.9M231.5 213.5l-6.9-7.9M231.7 217.9l-6.9-8M231.7 222.2l-7-7.9M231.6 226.5l-6.9-7.9M231.5 230.9l-6.9-8M231.7 235.2l-7.1-7.9M231.6 239.5l-6.9-7.9M231.6 243.9l-6.9-8M231.5 248.2l-6.9-8.2M231.5 252.5l-6.9-8.2M231.6 256.9l-6.9-8.2M231.6 260.9l-6.9-7.9M231.5 265.3l-6.9-8M231.5 269.6l-6.9-7.9M231.6 273.9l-7.1-7.9M231.6 278.3l-6.9-8M231.5 282.6l-6.9-8M231.5 286.9l-6.9-7.9M231.6 291.3l-7.1-8M231.6 295.6l-6.9-8M231.5 299.9l-6.9-7.9M231.4 304.2l-6.8-8.1M231.4 308.6l-6.9-8.2M231.6 312.9l-7.2-8.2M231.5 317.2l-6.9-8.1M231.5 321.3l-6.9-7.9M231.4 325.6l-6.9-7.9M231.6 330l-7.2-8M231.5 334.3l-6.9-7.9M231.4 338.6l-6.9-7.9M231.4 343l-6.9-8M231.3 347.3l-6.9-7.9M230.8 350.9l-6.4-7.2M227 350.8l-2.5-2.8M229.6 351l1.8-1.5M225.3 351l6.1-5.4M224.5 348l7-6.2M224.6 344.2l6.9-6M224.6 340.3l6.9-6M224.4 336.7l7.1-6.2M224.4 332.9l7.2-6M224.4 329l7.2-6M224.4 325.4l7.2-6M224.5 321.6l6.9-6.1M224.5 317.9l6.9-6.2M224.5 314.1l6.9-6M224.5 310.3l6.9-6.1M224.5 306.6l7-6.2M224.6 302.8l6.9-6M224.6 298.9l6.9-6M224.6 295.3l6.9-6M224.6 291.5l7-6M224.7 287.6l6.9-6M224.7 284l6.9-6M224.5 280.2l7.1-6M224.5 276.6l7.2-6.3M224.5 272.7l7.2-6M224.5 268.9l7-6M224.5 265.3l7-6.3M224.6 261.4l6.9-6M224.6 257.6l6.9-6M224.6 254l6.9-6.1M224.6 250.1l7-6M224.7 246.3l6.9-6M224.7 242.7l6.9-6.1M224.7 238.8l6.9-6M224.7 235.2l7-6.2M224.8 231.4l6.9-6.1M224.8 227.5l6.9-6M224.6 223.9l7.1-6.3M224.6 220l7.1-6M224.6 216.2l6.9-6M224.6 212.6l6.9-6M224.7 208.7l6.9-6M224.7 204.9l6.9-6M224.7 201.3l6.9-6M224.7 197.4l6.9-6M224.7 193.8l7-6.2M224.8 190l6.9-6M224.8 186.1l6.9-6M224.8 182.5l6.9-6.2M224.8 178.7l6.9-6M224.9 174.8l6.9-6M224.6 171.2l7.2-6M224.7 167.4l7.1-6M224.7 163.5l7.1-6M224.7 159.9l6.9-6M224.7 156l6.9-6M224.7 152.4l7-6.2M224.8 148.6l6.9-6M224.8 144.7l6.9-6M224.8 141.1l6.9-6M224.8 137.3l7-6M224.9 133.4l6.9-6M224.9 129.8l6.9-6M224.9 126l6.9-6M224.9 122.1l7-6M224.9 118.5l7-6"/><path class="cls-14" d="M231.3 350.9l.4-239.1M224.3 350.9l.4-232.6M224.3 350.9l.4-232.6M231.3 350.9l.4-239.1M231.3 350.9h-7"/><path class="cls-13" d="M227.3 77.3l-2.3 34M219.9 76.8l-2.4 34M212.3 76.3l-2.4 34M204.6 75.7l-2.4 34M196.9 75.2l-2.3 34M189.3 74.7l-2.4 34M181.6 74.1l-2.4 34M174 73.6l-2.4 34"/><path class="cls-13" transform="rotate(-86 170.424 69.004)" d="M167.5 7.8h5.8v122.4h-5.8z"/><path class="cls-13" d="M185.3 72.9l5.4 36M166.3 73.1l-2.4 33.9M158.6 72.5l-2.3 34M151.2 72l-2.4 34M143.6 71.5l-2.4 34M135.9 70.9l-2.4 34M128.2 70.4l-2.3 34M120.6 69.9l-2.4 34M112.9 69.3l-2.4 34"/><path class="cls-13" transform="rotate(-86 170.428 69.108)" d="M166.2 6.5h8.4v125.3h-8.4z"/><path class="cls-13" d="M188.1 91.6l3.5 4.1M192.2 88.1l-4.1 3.5M191.7 95.8l.5-7.7M111.7 86.3l3.6 4.1M115.8 82.7l-4.1 3.6M115.3 90.4l.5-7.6"/><path class="cls-16" d="M427.9 351.2h-7l.3-320.7h7.2l-.5 320.7"/><path class="cls-12" d="M428.4 33.9l-2.9-3.4M428.6 38.2l-6.7-7.7M428.5 42.5l-7.1-8.2M428.4 46.9l-7.1-8.2M428.4 51.2l-7.1-8.2M428.6 55.5l-7.4-8.4M428.5 59.9l-7.1-8.5M428.4 64.2l-7.1-8.4M428.4 68.5l-7.1-8.4M428.3 72.6l-7.1-8.2M428.5 77l-7.4-8.3M428.4 81.3l-7.1-8.2M428.4 85.6l-7.1-8.2M428.3 89.9l-7.1-8.2M428.5 94.3l-7.4-8.2M428.4 98.6l-7.1-8.2M428.4 102.9l-7.2-8.2M428.3 107.3l-7.1-8.2M428.2 111.6l-7.1-8.2M428.4 115.9l-7.1-8.2M428.4 120.2l-7.2-8.2M428.3 124.6l-7.1-8.2M428.2 128.9l-7.1-8.4M428.4 133l-7.1-8.2M428.4 137.3l-7.2-8.2M428.3 141.7l-7.1-8.2M428.2 146l-7.1-8.2M428.4 150.3l-7.1-8.2M428.4 154.7l-7.2-8.2M428.3 159l-7.1-8.2M428.2 163.3l-7.1-8.2M428.2 167.6l-7.1-8.2M428.4 172l-7.2-8.2M428.3 176.3l-7.1-8.2M428.2 180.6l-7.1-8.2M428.2 185l-7.2-8.2M428.4 189.1l-7.2-8M428.3 193.4l-7.1-8M428.2 197.7l-7.1-8M428.2 202l-7.1-8.2M428.1 206.4l-6.9-8.2M428.3 210.7l-7.1-8.2M428.2 215l-7.1-8.2M428.2 219.4l-7.2-8.2M428.1 223.7l-6.9-8.2M428.3 228l-7.1-8.2M428.2 232.3l-7.1-8.1M428.2 236.7l-7.2-8.2M428.1 241l-6.9-8.2M428 245.3l-6.9-8.2M428.2 249.4l-7.1-7.9M428.2 253.8l-7.2-8M428.1 258.1l-7.1-8M428 262.4l-6.9-7.9M428.2 266.8l-7.1-8M428.2 271.1l-7.2-8M428.1 275.4l-7.1-8.2M428 279.7l-6.8-8.1M428 284.1l-6.9-8.2M428.2 288.4l-7.2-8.2M428.1 292.7l-7.1-8.2M428 297.1l-6.9-8.2M428 301.4l-6.9-8.2M428.1 305.7l-7.1-8.2M428.1 309.8l-7.1-7.9M428 314.1l-6.9-7.9M428 318.5l-6.9-8M427.9 322.8l-6.9-8M428.1 327.1l-7.2-7.9M428 331.5l-6.9-8M428 335.8l-6.9-8M427.9 340.1l-6.9-7.9M428.1 344.5l-7.2-8M428 348.8l-7.1-8.2M426.4 351.1l-5.3-6.2M422.6 351.3l-1.6-2M423.8 351.1l4.1-3.5M421 350l6.9-6.3M421 346.1l6.9-6M421 342.3l6.9-6M421 338.7l7-6.3M421.1 334.8l6.9-6M421.1 331l6.9-6M421.1 327.4l6.9-6.3M421.1 323.5l6.9-6M420.9 319.9l7.2-6.2M420.9 316l7.2-6M421 312.2l7.1-6M421 308.6l7.1-6.2M421 304.7l7.2-6M421 300.9l7.2-6M421 297.3l7-6.3M421.1 293.4l6.9-6M421.1 289.8l6.9-6.2M421.1 286l6.9-6.3M421.1 282.1l6.9-6M421.1 278.5l7-6.2M421.2 274.7l6.9-6M421 270.8l7.1-6M421 267.2l7.1-6.2M421 263.4l7.2-6M421 259.8l7.2-6.3M421 255.9l7.2-6.2M421.1 252.1l7.1-6M421.1 248.5l7.2-6.3M421.1 244.6l7.2-6.2M421.1 240.8l7-6.1M421.1 237.1l7-6.2M421.2 233.3l6.9-6M421.2 229.7l6.9-6.3M421.2 225.8l7-6.2M421 222l7.2-6M421 218.4l7.2-6.3M421 214.5l7.2-6.2M421.1 210.7l7.1-6M421.1 207.1l7.2-6.3M421.1 203.2l7.2-6.2M421.1 199.6l7.2-6.2M421.2 195.8l7.1-6.3M421.2 191.9l7.1-6M421.2 188.3l7.2-6.2M421.2 184.5l7-6.3M421.3 180.6l6.9-6M421.3 177l6.9-6.2M421.1 173.1l7.1-6.2M421.1 169.5l7.1-6.2M421.1 165.7l7.2-6.2M421.1 161.8l7.2-6.2M421.1 158.2l7.2-6.2M421.2 154.4l7.1-6.2M421.2 150.5l7.1-6M421.2 146.9l7.2-6.2M421.2 143.1l7.2-6.3M421.2 139.5l7.2-6.3M421.3 135.6l7.1-6.2M421.3 131.8l6.9-6.3M421.1 128.2l7.1-6.3M421.1 124.3l7.2-6.2M421.1 120.5l7.2-6.3M421.1 116.9l7.2-6.3M421.2 113l7.1-6.2M421.2 109.4l7.2-6.2M421.2 105.6l7.2-6.3M421.2 101.7l7.2-6.2M421.2 98.1l7.2-6.2M421.3 94.2l7.2-6.2M421.3 90.4l7.2-6.2M421.3 86.8l7.2-6.2M421.3 82.9l7.2-6.2M421.1 79.3l7.4-6.4M421.1 75.5l7.2-6.3M421.2 71.6l7.1-6.2M421.2 68l7.2-6.2M421.2 64.2l7.2-6.3M421.2 60.3l7.2-6.2M421.3 56.7l7.1-6.2M421.3 52.9l7.2-6.3M421.3 49.3l7.2-6.5M421.3 45.4l7.2-6.2M421.4 41.6l7.1-6.3M421.4 38l7.2-6.5M421.4 34.1l4.1-3.6"/><path class="cls-16" d="M420.9 351.2h7l.5-320.7h-7.2l-.3 320.7"/><path class="cls-12" d="M428.4 33.9l-2.9-3.4M428.6 38.2l-6.7-7.7M428.5 42.5l-7.1-8.2M428.4 46.9l-7.1-8.2M428.4 51.2l-7.1-8.2M428.6 55.5l-7.4-8.4M428.5 59.9l-7.1-8.5M428.4 64.2l-7.1-8.4M428.4 68.5l-7.1-8.4M428.3 72.6l-7.1-8.2M428.5 77l-7.4-8.3M428.4 81.3l-7.1-8.2M428.4 85.6l-7.1-8.2M428.3 89.9l-7.1-8.2M428.5 94.3l-7.4-8.2M428.4 98.6l-7.1-8.2M428.4 102.9l-7.2-8.2M428.3 107.3l-7.1-8.2M428.2 111.6l-7.1-8.2M428.4 115.9l-7.1-8.2M428.4 120.2l-7.2-8.2M428.3 124.6l-7.1-8.2M428.2 128.9l-7.1-8.4M428.4 133l-7.1-8.2M428.4 137.3l-7.2-8.2M428.3 141.7l-7.1-8.2M428.2 146l-7.1-8.2M428.4 150.3l-7.1-8.2M428.4 154.7l-7.2-8.2M428.3 159l-7.1-8.2M428.2 163.3l-7.1-8.2M428.2 167.6l-7.1-8.2M428.4 172l-7.2-8.2M428.3 176.3l-7.1-8.2M428.2 180.6l-7.1-8.2M428.2 185l-7.2-8.2M428.4 189.1l-7.2-8M428.3 193.4l-7.1-8M428.2 197.7l-7.1-8M428.2 202l-7.1-8.2M428.1 206.4l-6.9-8.2M428.3 210.7l-7.1-8.2M428.2 215l-7.1-8.2M428.2 219.4l-7.2-8.2M428.1 223.7l-6.9-8.2M428.3 228l-7.1-8.2M428.2 232.3l-7.1-8.1M428.2 236.7l-7.2-8.2M428.1 241l-6.9-8.2M428 245.3l-6.9-8.2M428.2 249.4l-7.1-7.9M428.2 253.8l-7.2-8M428.1 258.1l-7.1-8M428 262.4l-6.9-7.9M428.2 266.8l-7.1-8M428.2 271.1l-7.2-8M428.1 275.4l-7.1-8.2M428 279.7l-6.8-8.1M428 284.1l-6.9-8.2M428.2 288.4l-7.2-8.2M428.1 292.7l-7.1-8.2M428 297.1l-6.9-8.2M428 301.4l-6.9-8.2M428.1 305.7l-7.1-8.2M428.1 309.8l-7.1-7.9M428 314.1l-6.9-7.9M428 318.5l-6.9-8M427.9 322.8l-6.9-8M428.1 327.1l-7.2-7.9M428 331.5l-6.9-8M428 335.8l-6.9-8M427.9 340.1l-6.9-7.9M428.1 344.5l-7.2-8M428 348.8l-7.1-8.2M426.4 351.1l-5.3-6.2M422.6 351.3l-1.6-2M423.8 351.1l4.1-3.5M421 350l6.9-6.3M421 346.1l6.9-6M421 342.3l6.9-6M421 338.7l7-6.3M421.1 334.8l6.9-6M421.1 331l6.9-6M421.1 327.4l6.9-6.3M421.1 323.5l6.9-6M420.9 319.9l7.2-6.2M420.9 316l7.2-6M421 312.2l7.1-6M421 308.6l7.1-6.2M421 304.7l7.2-6M421 300.9l7.2-6M421 297.3l7-6.3M421.1 293.4l6.9-6M421.1 289.8l6.9-6.2M421.1 286l6.9-6.3M421.1 282.1l6.9-6M421.1 278.5l7-6.2M421.2 274.7l6.9-6M421 270.8l7.1-6M421 267.2l7.1-6.2M421 263.4l7.2-6M421 259.8l7.2-6.3M421 255.9l7.2-6.2M421.1 252.1l7.1-6M421.1 248.5l7.2-6.3M421.1 244.6l7.2-6.2M421.1 240.8l7-6.1M421.1 237.1l7-6.2M421.2 233.3l6.9-6M421.2 229.7l6.9-6.3M421.2 225.8l7-6.2M421 222l7.2-6M421 218.4l7.2-6.3M421 214.5l7.2-6.2M421.1 210.7l7.1-6M421.1 207.1l7.2-6.3M421.1 203.2l7.2-6.2M421.1 199.6l7.2-6.2M421.2 195.8l7.1-6.3M421.2 191.9l7.1-6M421.2 188.3l7.2-6.2M421.2 184.5l7-6.3M421.3 180.6l6.9-6M421.3 177l6.9-6.2M421.1 173.1l7.1-6.2M421.1 169.5l7.1-6.2M421.1 165.7l7.2-6.2M421.1 161.8l7.2-6.2M421.1 158.2l7.2-6.2M421.2 154.4l7.1-6.2M421.2 150.5l7.1-6M421.2 146.9l7.2-6.2M421.2 143.1l7.2-6.3M421.2 139.5l7.2-6.3M421.3 135.6l7.1-6.2M421.3 131.8l6.9-6.3M421.1 128.2l7.1-6.3M421.1 124.3l7.2-6.2M421.1 120.5l7.2-6.3M421.1 116.9l7.2-6.3M421.2 113l7.1-6.2M421.2 109.4l7.2-6.2M421.2 105.6l7.2-6.3M421.2 101.7l7.2-6.2M421.2 98.1l7.2-6.2M421.3 94.2l7.2-6.2M421.3 90.4l7.2-6.2M421.3 86.8l7.2-6.2M421.3 82.9l7.2-6.2M421.1 79.3l7.4-6.4M421.1 75.5l7.2-6.3M421.2 71.6l7.1-6.2M421.2 68l7.2-6.2M421.2 64.2l7.2-6.3M421.2 60.3l7.2-6.2M421.3 56.7l7.1-6.2M421.3 52.9l7.2-6.3M421.3 49.3l7.2-6.5M421.3 45.4l7.2-6.2M421.4 41.6l7.1-6.3M421.4 38l7.2-6.5M421.4 34.1l4.1-3.6"/><path class="cls-14" d="M427.9 351.2l.5-320.7M420.9 351.2l.3-320.7M428.4 30.5h-7.2M420.9 188.8l.3-158.3M427.9 351.2l.5-320.7M420.9 351.2l.2-158.3M427.9 351.2h-7"/><path class="cls-16" d="M335.9 117.6l-4.1 4.3-.2 20.2 4.3.1v-24.6"/><path class="cls-12" d="M335.4 118.3l.8-.7M331.8 125.3l4.3-3.6M331.7 129.4l4.4-3.6M331.7 133.5l4.3-3.8M331.7 137.3l4.3-3.5M331.6 141.4l4.4-3.8M335.4 142.1l.5-.4"/><path class="cls-16" d="M335.9 117.6l-4.1 4.3-.2 20.2 4.3.1v-24.6"/><path class="cls-12" d="M335.4 118.3l.8-.7M331.8 125.3l4.3-3.6M331.7 129.4l4.4-3.6M331.7 133.5l4.3-3.8M331.7 137.3l4.3-3.5M331.6 141.4l4.4-3.8M335.4 142.1l.5-.4"/><path class="cls-14" d="M335.9 142.2v-24.6M331.6 142.1l.2-20.2M331.6 142.1l.2-20.2M335.9 142.2v-24.6"/><path class="cls-16" d="M335.9 214.1l-4.3-.1.1-46.6h4.1l.1 46.7"/><path class="cls-12" d="M331.8 169.1l2.1-1.6M331.8 173.2l4.1-3.6M331.8 177.2l4.1-3.8M331.7 181.1l4.4-3.6M331.7 185.2l4.3-3.6M331.9 189l4.1-3.5M331.8 193.1l4.1-3.5M331.8 197.2l4.1-3.8M331.8 201.1l4.1-3.6M331.7 205.2l4.4-3.8M331.7 209l4.3-3.5M331.7 213.1l4.3-3.8M335.2 214.1l.8-.7"/><path class="cls-16" d="M331.6 214l4.3.1-.1-46.7h-4.1l-.1 46.6"/><path class="cls-12" d="M331.8 169.1l2.1-1.6M331.8 173.2l4.1-3.6M331.8 177.2l4.1-3.8M331.7 181.1l4.4-3.6M331.7 185.2l4.3-3.6M331.9 189l4.1-3.5M331.8 193.1l4.1-3.5M331.8 197.2l4.1-3.8M331.8 201.1l4.1-3.6M331.7 205.2l4.4-3.8M331.7 209l4.3-3.5M331.7 213.1l4.3-3.8M335.2 214.1l.8-.7"/><path class="cls-14" d="M335.8 188.6v-21.2M335.9 214.1l-.2-21.2M331.6 214l.1-46.6M331.6 214l.1-46.6M335.8 188.6v-21.2M335.9 214.1l-.2-21.2"/><path class="cls-16" d="M335.6 345.9l-4.3.2.2-106.8 4.3.1-.2 106.5"/><path class="cls-12" d="M331.6 241l2.1-1.5M331.6 245.1l4.3-3.8M331.6 248.9l4.3-3.8M331.5 253l4.4-3.8M331.5 257.1l4.3-3.8M331.7 261l4.3-3.8M331.6 265.1l4.4-3.8M331.6 268.9l4.4-3.8M331.6 273l4.3-3.8M331.5 276.8l4.4-3.5M331.5 280.9l4.3-3.8M331.4 285l4.4-3.8M331.4 288.9l4.4-3.8M331.6 293l4.4-3.8M331.6 296.8l4.3-3.8M331.5 300.9l4.4-3.8M331.5 305l4.3-3.8M331.5 308.8l4.3-3.8M331.4 312.9l4.4-3.8M331.4 316.8l4.3-3.8M331.3 320.8l4.4-3.7M331.5 325l4.1-3.9M331.5 328.8l4.4-3.8M331.5 332.9l4.3-3.8M331.4 336.7l4.4-3.8M331.4 340.8l4.3-3.8M331.4 344.7l4.3-3.8M334.6 346.1l1.1-1.1"/><path class="cls-16" d="M331.3 346.1l4.3-.2.2-106.5-4.3-.1-.2 106.8"/><path class="cls-12" d="M331.6 241l2.1-1.5M331.6 245.1l4.3-3.8M331.6 248.9l4.3-3.8M331.5 253l4.4-3.8M331.5 257.1l4.3-3.8M331.7 261l4.3-3.8M331.6 265.1l4.4-3.8M331.6 268.9l4.4-3.8M331.6 273l4.3-3.8M331.5 276.8l4.4-3.5M331.5 280.9l4.3-3.8M331.4 285l4.4-3.8M331.4 288.9l4.4-3.8M331.6 293l4.4-3.8M331.6 296.8l4.3-3.8M331.5 300.9l4.4-3.8M331.5 305l4.3-3.8M331.5 308.8l4.3-3.8M331.4 312.9l4.4-3.8M331.4 316.8l4.3-3.8M331.3 320.8l4.4-3.7M331.5 325l4.1-3.9M331.5 328.8l4.4-3.8M331.5 332.9l4.3-3.8M331.4 336.7l4.4-3.8M331.4 340.8l4.3-3.8M331.4 344.7l4.3-3.8M334.6 346.1l1.1-1.1"/><path class="cls-14" d="M335.6 345.9l.2-106.5M331.6 262.6l-.1-23.3M331.3 346.1l.2-79.4M331.6 262.6l-.1-23.3M335.6 345.9l.2-106.5M331.3 346.1l.2-79.4M335.6 345.9l-4.3.2"/><path class="cls-1" d="M335.8 167.4l.1-25.2M331.7 167.4l-.1-25.3"/><path class="cls-13" d="M335.9 166l-4.3-.1M335.8 143.4l-4.1-.1"/><path class="cls-14" d="M335.8 167.4h-4.1M335.9 142.2l-4.3-.1"/><path class="cls-12" d="M358.5 166.1c0-6-2.4-11.8-6.6-16-4.2-4.3-10-6.7-16-6.7M335.9 166l22.6.1"/><path class="cls-1" d="M335.8 239.4l.1-25.3M331.5 239.3l.1-25.3"/><path class="cls-13" d="M335.7 238.1h-4.1M335.8 215.3l-4.3-.1"/><path class="cls-14" d="M335.8 239.4l-4.3-.1M335.9 214.1l-4.3-.1"/><path class="cls-12" d="M335.8 238c12.4 0 22.7-10.2 22.7-22.6M335.8 215.3l22.6.1"/><path class="cls-16" d="M301.5 117.6v4.4h-27.2v-4.3l27.2-.1"/><path class="cls-12" d="M274.4 119.6l2.1-2M276.2 121.9l4.9-4.3M280.8 122l4.8-4.3M285.3 122l4.9-4.4M289.9 121.9l5.1-4.2M294.5 122l5.1-4.3M299 122l2.6-2.2"/><path class="cls-16" d="M301.5 122v-4.4l-27.2.1v4.3h27.2"/><path class="cls-12" d="M274.4 119.6l2.1-2M276.2 121.9l4.9-4.3M280.8 122l4.8-4.3M285.3 122l4.9-4.4M289.9 121.9l5.1-4.2M294.5 122l5.1-4.3M299 122l2.6-2.2"/><path class="cls-14" d="M301.5 117.6l-27.2.1M301.5 122h-27.2M301.5 122h-27.2M301.5 117.6l-27.2.1"/><path class="cls-16" d="M326.7 122l5.1-.1 4.1-4.3-9.1.1-.1 4.3"/><path class="cls-12" d="M326.7 121.8l4.9-4.2M331.3 121.9l4.1-3.6"/><path class="cls-16" d="M326.7 122l5.1-.1 4.1-4.3-9.1.1-.1 4.3"/><path class="cls-12" d="M326.7 121.8l4.9-4.2M331.3 121.9l4.1-3.6"/><path class="cls-14" d="M330.9 117.8l-4.1-.1M331.8 121.9l-5.1.1M331.8 121.9l-5.1.1M330.9 117.8l-4.1-.1"/><path class="cls-1" d="M326.8 117.7l-25.3-.1M326.7 122h-25.2"/><path class="cls-13" d="M325.3 117.6l.2 4.4M302.7 117.7v4.1"/><path class="cls-14" d="M326.8 117.7l-.1 4.3M301.5 117.6v4.4"/><path class="cls-12" d="M325.5 95c-12.4 0-22.7 10.2-22.7 22.6M325.3 117.6l.2-22.6"/><path class="cls-16" d="M258.9 262.4v4.3h-27.5l.1-4.3h27.4"/><path class="cls-12" d="M231.6 264.3l2.1-2M233.4 266.6l4.8-4.2M237.9 266.7l5.1-4.2M242.5 266.8l5.1-4.5M247.1 266.6l5.1-4.2M251.6 266.7l5.1-4.2M256.2 266.8l2.8-2.5"/><path class="cls-16" d="M258.9 266.7v-4.3h-27.4l-.1 4.3h27.5"/><path class="cls-12" d="M231.6 264.3l2.1-2M233.4 266.6l4.8-4.2M237.9 266.7l5.1-4.2M242.5 266.8l5.1-4.5M247.1 266.6l5.1-4.2M251.6 266.7l5.1-4.2M256.2 266.8l2.8-2.5"/><path class="cls-14" d="M258.9 262.4h-27.4M258.9 266.7h-27.5M231.5 262.4l-.1 4.3M258.9 266.7h-27.5M258.9 262.4h-27.4"/><path class="cls-16" d="M304.1 266.7h27.4l.1-4.1-27.7-.2.2 4.3"/><path class="cls-12" d="M304.2 264.8l2.8-2.4M306.7 266.7l4.9-4.3M311.3 266.8l4.9-4.3M315.9 266.8l4.6-4.2M320.4 266.7l4.7-4M325 266.8l4.6-4.1M329.6 266.8l2-2"/><path class="cls-16" d="M304.1 266.7h27.4l.1-4.1-27.7-.2.2 4.3"/><path class="cls-12" d="M304.2 264.8l2.8-2.4M306.7 266.7l4.9-4.3M311.3 266.8l4.9-4.3M315.9 266.8l4.6-4.2M320.4 266.7l4.7-4M325 266.8l4.6-4.1M329.6 266.8l2-2"/><path class="cls-14" d="M331.6 262.6l-27.7-.2M331.5 266.7h-27.4M331.5 266.7h-27.4M331.6 262.6l-27.7-.2"/><path class="cls-13" d="M302.7 262.5l-.1 4.4M260.1 262.5v4.3"/><path class="cls-14" d="M303.9 262.4l.2 4.3M258.9 262.4v4.3"/><path class="cls-12" d="M302.7 241.2c-11.7 0-21.3 9.6-21.3 21.2M281.4 262.5c0-5.6-2.2-11.1-6.2-15-4-4-9.4-6.2-15-6.2M302.7 262.5v-21.4M260.1 262.5v-21.2"/><path class="cls-16" d="M420.9 188.8l-85.1-.2-.1 4.3h85.4l-.2-4.1"/><path class="cls-12" d="M335.9 189.6l1.1-.9M336.7 193l4.8-4.5M341.2 192.8l4.9-4.2M345.8 192.9l4.9-4.2M350.4 193l4.8-4.2M355 192.8l4.8-4.2M359.5 192.9l4.9-4.2M364.1 193l4.9-4.3M368.7 192.8l4.8-4.2M373.2 192.9l4.9-4.2M377.8 193l4.9-4.3M382.4 192.8l4.8-4M387 192.9l4.8-4.2M391.5 193l4.9-4.3M396.1 192.8l4.9-4M400.7 192.9l4.8-4.2M405.2 193l4.9-4.3M409.8 192.8l4.9-4M414.4 192.9l4.8-4M418.9 193l2.4-2"/><path class="cls-16" d="M420.9 188.8l-85.1-.2-.1 4.3h85.4l-.2-4.1"/><path class="cls-12" d="M335.9 189.6l1.1-.9M336.7 193l4.8-4.5M341.2 192.8l4.9-4.2M345.8 192.9l4.9-4.2M350.4 193l4.8-4.2M355 192.8l4.8-4.2M359.5 192.9l4.9-4.2M364.1 193l4.9-4.3M368.7 192.8l4.8-4.2M373.2 192.9l4.9-4.2M377.8 193l4.9-4.3M382.4 192.8l4.8-4M387 192.9l4.8-4.2M391.5 193l4.9-4.3M396.1 192.8l4.9-4M400.7 192.9l4.8-4.2M405.2 193l4.9-4.3M409.8 192.8l4.9-4M414.4 192.9l4.8-4M418.9 193l2.4-2"/><path class="cls-14" d="M335.7 192.9h85.4M335.8 188.6l85.1.2M335.8 188.6l85.1.2M335.7 192.9h85.4"/><path class="cls-16" d="M231.8 111.7l-1.7 4.7 1.7 5.4v-1.1h2.2v-8.8l-2.2-.2"/><path class="cls-12" d="M234.2 112.9l-.9-1M234.2 117l-3.1-3.3M233.5 120.6l-2.9-3.4M231.3 120.4l2.8-2.4M230.6 117.2l3.6-3.1M231.6 112.7l.8-.9"/><path class="cls-14" d="M231.8 121.8v-1.1h2.2v-8.8l-2.2-.2"/><path class="cls-16" d="M331.1 35.3l-.2 82.5 5-.2.2-82.2-5-.1"/><path class="cls-12" d="M331.1 38.4l3.6-3.1M331.1 42.2l5.1-4.2M331.3 46.3l4.9-4.4M331.3 50.2l4.8-4.2M331.2 54.3l5.1-4.5M331.2 58.4l5.1-4.5M331.1 62.2l5.2-4.5M331.1 66.3l5.1-4.5M331.1 70.1l5.1-4.2M331 74.2l5.1-4.4M331 78.3l5.1-4.4M331.2 82.2l4.9-4.5M331.1 86.3l4.9-4.5M331.1 90.1l5.1-4.2M331.1 94.2l5.1-4.5M331 98.3l5.1-4.5M331 102.1l5.1-4.4M330.9 106.2l5.2-4.4M330.9 110.1l5.1-4.2M330.9 114.2l5.1-4.5M331.3 117.8l4.6-4"/><path class="cls-16" d="M331.1 35.3l-.2 82.5 5-.2.2-82.2-5-.1"/><path class="cls-12" d="M331.1 38.4l3.6-3.1M331.1 42.2l5.1-4.2M331.3 46.3l4.9-4.4M331.3 50.2l4.8-4.2M331.2 54.3l5.1-4.5M331.2 58.4l5.1-4.5M331.1 62.2l5.2-4.5M331.1 66.3l5.1-4.5M331.1 70.1l5.1-4.2M331 74.2l5.1-4.4M331 78.3l5.1-4.4M331.2 82.2l4.9-4.5M331.1 86.3l4.9-4.5M331.1 90.1l5.1-4.2M331.1 94.2l5.1-4.5M331 98.3l5.1-4.5M331 102.1l5.1-4.4M330.9 106.2l5.2-4.4M330.9 110.1l5.1-4.2M330.9 114.2l5.1-4.5M331.3 117.8l4.6-4"/><path class="cls-14" d="M335.9 117.6l.2-82.2M330.9 117.8l.2-82.5M336.1 35.4l-5-.1M330.9 117.8l.2-82.5M335.9 117.6l.2-82.2"/><path class="cls-16" d="M73.6 5l-7.8 8.3-.2 2.9 7.2.5.8-11.7"/><path class="cls-12" d="M73.8 6l-.5-.6M73.5 10l-2.2-2.5M73.2 13.9l-3.8-4.2M71.6 16.6l-4.2-4.8M67.8 16.4L66 14.3M69.9 16.5l3.3-2.6M65.9 16.2l7.6-6.4M70.2 8.8l3.6-3.1"/><path class="cls-16" d="M73.6 5l-7.8 8.3-.2 2.9 7.2.5.8-11.7"/><path class="cls-12" d="M73.8 6l-.5-.6M73.5 10l-2.2-2.5M73.2 13.9l-3.8-4.2M71.6 16.6l-4.2-4.8M67.8 16.4L66 14.3M69.9 16.5l3.3-2.6M65.9 16.2l7.6-6.4M70.2 8.8l3.6-3.1"/><path class="cls-14" d="M72.8 16.7L73.6 5M65.6 16.2l.2-2.9M65.6 16.2l.2-2.9M72.8 16.7L73.6 5"/><path class="cls-17" d="M244.4 18.6l-.3 5.3 3.6-3.4.1-1.7-3.4-.2"/><path class="cls-16" d="M244.4 18.6l-.3 5.3 3.6-3.4.1-1.7-3.4-.2"/><path class="cls-12" d="M244.5 20.8l1.4 1.8M246.4 18.7l1.5 1.8"/><path class="cls-14" d="M247.7 20.5l.1-1.7M244.1 23.9l.3-5.3"/><path class="cls-13" d="M244.1 23.9l.3-5.3M247.7 20.5l.1-1.7"/><path class="cls-17" d="M247.7 20.5l-3.6 3.4 30.3-.1v-3.3h-26.7"/><path class="cls-16" d="M247.7 20.5l-3.6 3.4 30.3-.1v-3.3h-26.7"/><path class="cls-12" d="M245.9 22.6l1.1 1.2M247.9 20.5l2.9 3.4M251.5 20.5l2.9 3.4M255.4 20.6l2.9 3.3M259 20.6l3.1 3.3M262.8 20.4l2.9 3.5M266.7 20.4l2.9 3.3M270.3 20.4l2.9 3.3M274.1 20.4l.5.6"/><path class="cls-14" d="M274.4 20.5h-26.7M274.4 23.8l-30.3.1"/><path class="cls-13" d="M274.4 23.8l-30.3.1M274.4 20.5h-26.7"/><path class="cls-17" d="M274.6 24.6l.1 5.5h-37.3l5.9-5.6 31.3.1"/><path class="cls-16" d="M274.7 30.1l-.1-5.5-31.3-.1-5.9 5.6h37.3"/><path class="cls-12" d="M237.6 29.9v.3M239.2 28.6l-.1 1.7M240.5 27.2v2.9M242 25.9l-.1 4.3M243.3 24.8l.1 5.3M244.7 24.6l-.1 5.6M246.2 24.5l-.1 5.5M247.6 24.6l-.1 5.5M249.1 24.5l-.2 5.7M250.3 24.6l.1 5.5M251.7 24.7l.1 5.5M253.2 24.5l.1 5.6M254.6 24.6l.1 5.6M256.1 24.5v5.8M257.5 24.6l.1 5.5M258.9 24.7l-.1 5.5M260.4 24.5l-.2 5.6M261.8 24.6l-.1 5.6M263 24.5l.1 5.5M264.5 24.6l.1 5.5M265.9 24.7l.1 5.5M267.4 24.5l.1 5.6M268.8 24.6l.1 5.6M270.3 24.5V30M271.7 24.6l-.2 5.5M273.1 24.5l-.1 5.7M274.6 24.6l-.2 5.5M274.6 24.6l-31.3-.1M274.7 30.1h-37.3"/><path class="cls-13" d="M274.7 30.1h-37.3M274.6 24.6l-31.3-.1"/><path class="cls-16" d="M237 35.4l29.2 2.1.4 76.7-6-.4.1 6.7 2.3.2.2 1 11.1.3-.3-91.9-36.6-.2.1-1.7"/><path class="cls-12" d="M274.2 33.4l-3.1-3.3M274.1 37.8l-6.6-7.7M274.1 42.1l-10.5-12M274 46.4l-7.5-8.9M266.2 37.5l-6.4-7.5M274.2 50.8l-7.8-9M262.4 37.2l-6.2-7.2M274.1 55.1l-7.8-9M258.3 36.9l-6-6.9M274.1 59.4l-7.6-8.9M254.3 36.6l-5.8-6.6M274.2 63.8l-7.7-9M250.4 36.3l-5.5-6.4M274.2 68.1l-7.8-9M246.4 36.1l-5.4-6.2M274.1 72.4l-7.5-8.9M242.3 35.8l-4.7-5.6M274.3 76.8l-7.8-8.8M238.2 35.5l-.9-1.3M274.2 81.1l-7.8-8.7M274.2 85.4l-7.6-8.7M274.4 89.7l-7.9-8.7M274.3 94.1l-7.8-8.8M274.2 98.4l-7.5-8.7M274.4 102.7l-7.8-8.7M274.3 107.1l-7.5-8.7M274.3 111.4l-7.6-8.7M274.5 115.7l-7.8-8.7M274.4 120.1l-7.6-8.7M272.1 121.8l-6.7-7.7M268.3 121.8l-6.9-7.9M264.4 121.8l-3.5-4.4M272.8 121.9l1.6-1.4M268.5 121.8l5.9-5.1M264.4 121.8l10-8.7M261.4 120.6l13-11.4M260.9 117.2l3.6-3.1M266.8 112.1l7.4-6.5M266.8 108.5l7.4-6.7M266.6 104.6l7.7-6.7M266.6 101l7.7-6.7M266.6 97.1l7.7-6.6M266.6 93.5l7.7-6.6M266.7 89.7l7.6-6.7M266.7 85.8l7.4-6.4M266.5 82.2l7.6-6.7M266.5 78.4l7.7-6.7M266.5 74.8l7.7-6.7M266.5 70.9l7.7-6.7M266.5 67.3l7.7-6.7M266.6 63.5l7.7-6.7M266.3 59.8l8-6.6M266.4 56l7.7-6.7M266.4 52.4l7.7-6.7M266.4 48.5l7.7-6.6M266.4 44.9l7.7-6.9M266.5 41.1l7.6-6.7M266.2 37.5l8-6.9M262.2 37.2l8.1-7.2M258.3 36.9L266 30M254.3 36.6l7.6-6.7M250.2 36.3l7.4-6.2M246.1 36l7.2-5.9M242.3 35.8l6.6-5.8M238.2 35.5l6.4-5.6M237.5 32.6l2.8-2.7M237.7 28.5"/><path class="cls-14" d="M237 35.4l29.2 2.1.4 76.7-6-.4.1 6.7 2.3.2.2 1 11.1.3-.3-91.9-36.6-.2.1-1.7"/><path class="cls-13" d="M231.9 267h17.5l-.2 78.9h-17.3V267zM246.9 344.8l2.4-.1M247 336.4l2.4-.1M247 319.3l2.4-.1M247 302.2l2.4.2M247.2 285.4l2.2-.1"/><path class="cls-16" d="M237 286.2h8.9c.3 0 .5 0 .8.2.2.1.5.2.6.4.2.2.3.4.4.6 0 .2.2.5.1.8v11.6c0 .1 0 .3-.1.4 0 .1-.1.2-.2.3 0 .1-.2.2-.2.3 0 0-.2.2-.3.2-.1 0-.2.1-.3.2-.1 0-.2 0-.4.1H236.6c-.1 0-.3 0-.4-.1-.1 0-.2-.1-.3-.2-.1 0-.2-.2-.3-.2 0 0-.2-.2-.2-.3 0-.1-.1-.2-.2-.3 0-.1 0-.2-.1-.4v-11.6-.4c0-.1 0-.3.1-.4 0-.1.1-.2.2-.3 0-.1.2-.2.2-.3 0 0 .2-.2.3-.2.1 0 .2-.1.3-.2.1 0 .2 0 .4-.1h.4"/><path class="cls-13" d="M237 286.2h8.9c.3 0 .5 0 .8.2.2.1.5.2.6.4.2.2.3.4.4.6 0 .2.2.5.1.8v11.6c0 .1 0 .3-.1.4 0 .1-.1.2-.2.3 0 .1-.2.2-.2.3 0 0-.2.2-.3.2-.1 0-.2.1-.3.2-.1 0-.2 0-.4.1H236.6c-.1 0-.3 0-.4-.1-.1 0-.2-.1-.3-.2-.1 0-.2-.2-.3-.2 0 0-.2-.2-.2-.3 0-.1-.1-.2-.2-.3 0-.1 0-.2-.1-.4v-11.6-.4c0-.1 0-.3.1-.4 0-.1.1-.2.2-.3 0-.1.2-.2.2-.3 0 0 .2-.2.3-.2.1 0 .2-.1.3-.2.1 0 .2 0 .4-.1h.4"/><path class="cls-16" d="M239.4 293.8c0-.6-.4-1.1-1-1.2s-1.1.4-1.2 1 .4 1.1 1 1.2 1.1-.4 1.2-1"/><path class="cls-13" d="M239.4 293.8c0-.6-.4-1.1-1-1.2s-1.1.4-1.2 1 .4 1.1 1 1.2 1.1-.4 1.2-1"/><path class="cls-16" d="M233.3 335.6l-.1-15.8h14.7l-.1 15.9-14.5-.1"/><path class="cls-13" d="M233.3 335.6l-.1-15.8h14.7l-.1 15.9-14.5-.1z"/><path class="cls-16" d="M245.9 332c.1-1.6-1-3-2.6-3.1s-2.8 1.1-3 2.7 1 3 2.6 3.1 2.8-1.1 3-2.7"/><path class="cls-13" d="M245.9 332c.1-1.6-1-3-2.6-3.1s-2.8 1.1-3 2.7 1 3 2.6 3.1 2.8-1.1 3-2.7"/><path class="cls-16" d="M238.6 332.9c0-1.2-.8-2.2-2-2.3s-2.2.8-2.3 2 .8 2.2 2 2.3 2.2-.8 2.3-2"/><path class="cls-13" d="M238.6 332.9c0-1.2-.8-2.2-2-2.3s-2.2.8-2.3 2 .8 2.2 2 2.3 2.2-.8 2.3-2"/><path class="cls-16" d="M245.4 324.3c0-1.2-.9-2.3-2.1-2.4s-2.3.9-2.4 2.1.9 2.3 2.1 2.4 2.3-.9 2.4-2.1"/><path class="cls-13" d="M245.4 324.3c0-1.2-.9-2.3-2.1-2.4s-2.3.9-2.4 2.1.9 2.3 2.1 2.4 2.3-.9 2.4-2.1"/><path class="cls-16" d="M239.6 324.7c.1-1.5-1.1-2.8-2.7-3s-3 1-3.1 2.6 1.1 2.8 2.7 3 3-1 3.1-2.6"/><path class="cls-13" d="M239.6 324.7c.1-1.5-1.1-2.8-2.7-3s-3 1-3.1 2.6 1.1 2.8 2.7 3 3-1 3.1-2.6"/><path class="cls-1" d="M242 267.2v78.7"/><path class="cls-13" d="M247.2 268.3l2.2-.1M312.2 319.3h.7l-.2 17.1h-.5v-17.1z"/><path class="cls-13" d="M312.7 335.9l15.4-.1v.7l-15.4-.1v-.5zM312.9 319.3l15.2.1-.1.5-15.1.1v-.7z"/><path class="cls-13" transform="rotate(-86 312.558 345.397)" d="M311.9 345.2h1.2v.5h-1.2z"/><path class="cls-13" d="M328.1 319.4l.7.1-.2 16.8-.5.2v-17.1zM312.2 302.4l.7-.2v17.1h-.7v-16.9z"/><path class="cls-13" d="M312.7 318.8l15.4-.1v.7l-15.2-.1-.2-.5zM312.9 302.2l15.2.1.2.5-15.4.2v-.8z"/><path class="cls-13" d="M328.1 302.3l.7.1v17.1l-.7-.1v-17.1zM312.4 285.4h.5v16.8l-.7.2.2-17zM312.9 301.8l15.2.1v.4l-15.2-.1v-.4z"/><path class="cls-13" d="M312.9 285.4l15.4-.1-.1.7-15.4-.1.1-.5zM328.3 285.3h.5v17.1l-.7-.1.2-17z"/><path class="cls-13" d="M312.4 268.3h.5v17.1h-.5v-17.1zM328.1 284.8l.2.5-15.4.1v-.7l15.2.1z"/><path class="cls-13" d="M328.3 268.4l-.1.5-15.4-.1.1-.5 15.4.1zM328.3 268.4l.4.1.1 16.8h-.5v-16.9zM312.2 267.3l.8-.2-.1 1.2h-.5l-.2-1zM312.3 344.8h.5l-.1-8.4h-.5l.1 8.4zM312.8 344.3l15.2.1.2.5-15.4-.1v-.5z"/><path class="cls-13" d="M312.7 336.4l15.4.1-.1.5-15.1-.1-.2-.5zM328.2 344.9l.5.1-.1-8.7-.5.2.1 8.4z"/><path class="cls-16" d="M328.2 280.2h2.6v-9.9h-2.7l.1 9.9"/><path class="cls-13" d="M328.2 280.2h2.6v-9.9h-2.7l.1 9.9z"/><path class="cls-16" d="M328.1 280.4v-10.3 10.3"/><path class="cls-13" d="M328.1 280.4z"/><path class="cls-9" d="M328.1 271.1l-8.4-.1"/><path class="cls-4" d="M328 279.5l-1.7-.1-1.4-.4-1.7-.8-1.1-1.1-1.1-1.2-.9-1.5-.3-1.8-.1-1.6"/><path class="cls-13" d="M233 360.6l7.3 41 80.8.1 7.4-40.9"/><path class="cls-13" d="M231.4 360.5l7.3 42.6 83.7.1 7.8-42.5"/><path class="cls-12" d="M380.7 30.3v1.9c0 .6.2 1.2.3 1.8s.3 1.2.5 1.8l.6 1.8c.2.6.5 1.1.8 1.7.3.5.6 1.1 1 1.6.3.5.7 1 1.1 1.5.4.5.8.9 1.2 1.4.4.4.9.9 1.4 1.3.5.4 1 .8 1.5 1.1.5.3 1 .7 1.6 1 .5.3 1.1.6 1.7.8l1.8.6c.6.2 1.2.3 1.8.5l1.8.3h1.9M399.6 49.4l.2-19M380.8 30.3l-.1 1.4M380.6 33.2l-.3.9M380.3 34.1l-.1.5"/><path class="cls-7" d="M379.9 35.8l-.6 1.9"/><path class="cls-12" d="M378.7 38.8l-.3.5M378.4 39.3l-.5.7M377.1 41.1l-.8 1.2"/><path class="cls-8" d="M376.3 42.3l-1.3 1.3"/><path class="cls-12" d="M375 43.6l-.8.9M373.2 45.4l-1 .7"/><path class="cls-15" d="M372.2 46.1l-1.5 1.1"/><path class="cls-12" d="M370.7 47.2l-1 .4M368.2 48l-1 .4"/><path class="cls-6" d="M367.2 48.4l-1.7.6"/><path class="cls-12" d="M365.5 49l-1.5.1M362.6 49.2h-1"/><path class="cls-4" d="M361.6 49.2l.2-19"/><path class="cls-12" d="M361.7 30.7l.1-.5M372.9 351.2v-1.9c0-.6-.2-1.2-.3-1.8-.1-.6-.3-1.2-.5-1.8l-.6-1.8c-.2-.6-.5-1.1-.8-1.7-.3-.5-.6-1.1-1-1.6-.3-.5-.7-1-1.1-1.5-.4-.5-.8-.9-1.3-1.4-.4-.4-.9-.9-1.4-1.3-.5-.4-1-.8-1.5-1.1-.5-.3-1.1-.7-1.6-1-.5-.3-1.1-.6-1.7-.8l-1.8-.6c-.6-.2-1.2-.3-1.8-.5s-1.2-.2-1.8-.3h-1.9M353.9 332.3l.1 18.8M372.8 351.2l.1-1.5M373.2 348.3v-.7M373.2 347.6l.1-.7"/><path class="cls-7" d="M373.6 345.7l.6-1.9"/><path class="cls-12" d="M374.8 342.7l.3-.5M375.1 342.2l.5-.7M376.4 340.4l.8-1.2"/><path class="cls-8" d="M377.2 339.2l1.3-1.3"/><path class="cls-12" d="M378.5 337.9l.8-.9M380.3 336.1l1-.7"/><path class="cls-15" d="M381.3 335.4l1.5-.8"/><path class="cls-12" d="M382.8 334.6l1.3-.7M385.3 333.5l1-.4"/><path class="cls-6" d="M386.3 333.1l2-.6"/><path class="cls-12" d="M388.3 332.5l1.2-.1M390.9 332.5l1-.2"/><path class="cls-4" d="M391.9 332.3l-.1 19"/><path class="cls-12" d="M391.8 350.8v.5M310.9 331c-11 0-20.1 9.1-20.2 20.1M310.9 331v20.2"/><path class="cls-4" d="M270.7 331l3.8.3 3.8 1.2 3.5 2 2.9 2.3 2.7 3.1 1.7 3.5 1.2 3.7.4 4.1"/><path class="cls-9" d="M270.7 331l-.2 20"/><path class="cls-13" d="M231.8 120.7l2.6-.1-.1 1.7-2.6.1.1-1.7zM261.6 120.6l2.4.2.1 1.7h-2.6l.1-1.9z"/><path class="cls-13" d="M234.4 120.6h27.2l-.1 1.9-27.2-.2.1-1.7z"/><path class="cls-1" d="M234.1 112l27.7 1.9"/><path class="cls-13" d="M261.4 113.9h.4"/><path class="cls-12" d="M234.3 149.6c14.9 0 27.2-12.2 27.3-27.2M234.3 122.3v27.2"/></g><g id="Mbel"><path class="cls-2" d="M295.7 193.3l-.3 1.1M295.4 194.4l-.1 1.5M294.7 197.3v.2M294.1 198.9l-.5.7M293.6 199.6l-.8 1.1M292.8 200.7l-.3.5M291.5 202.3h-.2M290.2 203.5l-.5.2M289.7 203.7l-1.2.8M288.5 204.5l-.8.5M286.5 205.4l-.3.2M285 206h-.2M284.8 206l-1.5.3M283.3 206.3h-1.2M280.6 206.4h-.2M279 206h-1.2M277.8 206l-1.2-.6M276.6 205.4h-.2M275 204.8l-.3-.3M273.6 204l-.7-.6M272.9 203.4l-1.1-1M271.8 202.4l-.5-.3M270.4 200.9l-.2-.1M269.6 199.6l-.2-.5M269.4 199.1l-.7-1.2M268.7 197.9l-.4-.8M267.9 195.6l-.2-.2M267.6 193.9l-.2-1.4M267.4 192.5l.1-1.2M267.6 189.8v-.2M268 188.2l.3-1M268.3 187.2l.5-1.4M268.8 185.8l.3-.2M269.7 184.2l.2-.2M270.7 182.8l.5-.4M271.2 182.4l1.1-.9M272.3 181.5l.5-.4M274 180.2l.3-.2M275.5 179.3h.3M275.8 179.3l1.2-.6M277 178.7l1.3-.4M279.5 178.2h.2M281.2 178l1.4.1M282.6 178.1l1.2.1M283.8 178.2h.2M285.5 178.6h.2M287.1 179.2l.7.3M287.8 179.5l1.2.8M289 180.3l.4.2M290.6 181.3l.2.3M291.9 182.4l.2.5M292.1 182.9l.9 1M293 183.9l.7.8M294.3 185.9v.3M294.9 187.7l.4 1.4M295.3 189.1l.4 1.3M295.6 191.8v.2M391.2 187.2l-.1-56.8 28.4.1-.2 56.7h-28.1zM357.3 87.6V76.3l7.7-.2v11.6l-7.7-.1zM337.6 104.5V59.3l19.7-.1v45.3h-19.7zM403.9 95l.1-56.8 15.7.1-.2 56.8-15.6-.1zM270.2 166.7l22.8-.1-.2 51-22.6.1v-51zM302.8 216.3v-12.7M294.3 216.3h8.5M302.8 203.6l-8.5-.1M302.8 198.6v-12.8M294.3 198.6h8.5M302.8 185.8h-8.5M302.8 180.9v-12.8M294.3 180.9h8.5M302.8 168.1h-8.5M260.2 216.3l.1-12.8M268.8 216.3h-8.6M260.3 203.5h8.5M260.3 198.5v-12.7M268.8 198.5h-8.5M260.3 185.8h8.5M260.3 180.8v-12.7M268.8 180.8h-8.5M260.3 168.1h8.5M363.3 266.1l56.5.1v45.2l-56.8-.1.3-45.2zM337.3 194.2l56.5.1.1 15.7-56.7-.1.1-15.7zM399.6 238.4c3.8-1.3 7.4-2.9 11-4.8.8-.4 1.3-1.4 1.3-2.3-.3-3.2-1.4-6.3-3.3-8.9-.6-.8-1.5-1.1-2.5-.9-3.9.9-7.7 2.2-11.4 3.7 0 .8.2 1.5.5 2.1 1 3.1 2.2 6.2 3.5 9.2.3.6.6 1.2 1 1.8h.1"/><path class="cls-2" d="M400.8 238.4c.3.2.6.3 1 .3 1.5.2 3.1 0 4.5-.6 1.9-.8 3.7-1.7 5.4-2.9 1.2-.8 2.4-1.7 3.3-2.8.6-.6.8-1.5.7-2.3-.4-3.4-1.7-6.6-3.5-9.4-.5-.7-1.2-1.2-2.1-1.3-1.5-.2-2.9-.1-4.4 0-2 .3-4 .8-6 1.5-1.4.5-2.7 1.3-3.8 2.5-.2.3-.4.5-.5.9"/></g><g id="Text"><path d="M368.3 244.1v.6h-3.8l3-4.8h-2.7v-.6h3.8l-3 4.8h2.7zM370.1 240c0 .2-.2.4-.4.4s-.4-.2-.4-.4.2-.4.4-.4.4.2.4.4zm0 4.7h-.6V241h.6v3.7zM372 241v.5c.3-.4.6-.6 1-.6s.8.2 1 .7c.3-.5.6-.7 1.2-.7s.7.1.9.4c.2.2.2.4.2 1v2.4h-.6v-2.2c0-.4 0-.6-.1-.7-.1-.2-.4-.3-.6-.3-.5 0-.8.4-.8 1v2.2h-.6v-2.2c0-.4 0-.5-.1-.7-.1-.2-.3-.3-.6-.3-.5 0-.9.4-.9 1v2.2h-.6V241h.6zM378.3 241v.5c.3-.4.6-.6 1-.6s.8.2 1 .7c.3-.5.6-.7 1.2-.7s.7.1.9.4c.2.2.2.4.2 1v2.4h-.6v-2.2c0-.4 0-.6-.1-.7-.1-.2-.4-.3-.6-.3-.5 0-.8.4-.8 1v2.2h-.6v-2.2c0-.4 0-.5-.1-.7-.1-.2-.3-.3-.6-.3-.5 0-.9.4-.9 1v2.2h-.6V241h.6zM384.4 243c0 .3 0 .5.2.7.2.3.6.5 1 .5s.9-.2 1.1-.6l.5.2c-.3.6-.9 1-1.6 1-1.1 0-1.9-.8-1.9-1.9s.8-1.9 1.9-1.9 1.9.8 1.9 1.9v.2h-3.1zm2.4-.4c0-.3 0-.4-.2-.6-.2-.3-.6-.5-1-.5s-.8.2-1 .5c-.1.2-.2.3-.2.6h2.4zM389.2 241v.6c.1-.3.2-.4.3-.5.2-.1.4-.2.7-.2h.1v.6h-.2c-.3 0-.6.2-.8.4-.2.2-.2.4-.2.9v1.9h-.6V241h.6zM365.3 250.1v-.6l1.8-1.2v5.4h-.6v-4.4l-1.2.8zM369.8 250.6c.2 0 .3-.1.5-.1.9 0 1.6.7 1.6 1.6s-.8 1.7-1.7 1.7-1.7-.8-1.7-1.7.1-.7.4-1.2l1.5-2.5h.7l-1.4 2.1zm-.7 1.5c0 .6.5 1.1 1.1 1.1s1.1-.5 1.1-1.1-.5-1.1-1.1-1.1-1.1.5-1.1 1.1zM373.8 253.3c0 .2-.2.4-.4.4s-.4-.2-.4-.4.2-.4.4-.4.4.2.4.4zM375.1 249v-.6h3l-1.6 2c.9 0 1.6.7 1.6 1.6s-.8 1.7-1.8 1.7-1.4-.5-1.6-1.3h.6c.1.4.5.7 1 .7s1.2-.5 1.2-1.1-.5-1.1-1.2-1.1-.4 0-.6.2l-.3-.2 1.5-1.9H375zM381.5 250v.5c.3-.4.6-.6 1-.6s.8.2 1 .7c.3-.5.6-.7 1.2-.7s.7.1.9.4c.2.2.2.4.2 1v2.4h-.6v-2.2c0-.4 0-.6-.1-.7-.1-.2-.4-.3-.6-.3-.5 0-.8.4-.8 1v2.2h-.6v-2.2c0-.4 0-.5-.1-.7-.1-.2-.3-.3-.6-.3-.5 0-.9.4-.9 1v2.2h-.6V250h.6zM389.1 251.2v.4h-2l1.2-1.6c.3-.5.4-.6.4-.8 0-.3-.2-.4-.5-.4s-.5.2-.5.6h-.4c0-.6.4-1 1-1s1 .3 1 .8-.1.5-.4.9l-.8 1.1h1.1z"/><g><path d="M368.3 110.2v.6h-3.8l3-4.8h-2.7v-.6h3.8l-3 4.8h2.7zM370.1 106.1c0 .2-.2.4-.4.4s-.4-.2-.4-.4.2-.4.4-.4.4.2.4.4zm0 4.7h-.6v-3.7h.6v3.7zM372 107.1v.5c.3-.4.6-.6 1-.6s.8.2 1 .7c.3-.5.6-.7 1.2-.7s.7.1.9.4c.2.2.2.4.2 1v2.4h-.6v-2.2c0-.4 0-.6-.1-.7-.1-.2-.4-.3-.6-.3-.5 0-.8.4-.8 1v2.2h-.6v-2.2c0-.4 0-.5-.1-.7-.1-.2-.3-.3-.6-.3-.5 0-.9.4-.9 1v2.2h-.6v-3.7h.6zM378.3 107.1v.5c.3-.4.6-.6 1-.6s.8.2 1 .7c.3-.5.6-.7 1.2-.7s.7.1.9.4c.2.2.2.4.2 1v2.4h-.6v-2.2c0-.4 0-.6-.1-.7-.1-.2-.4-.3-.6-.3-.5 0-.8.4-.8 1v2.2h-.6v-2.2c0-.4 0-.5-.1-.7-.1-.2-.3-.3-.6-.3-.5 0-.9.4-.9 1v2.2h-.6v-3.7h.6zM384.4 109.1c0 .3 0 .5.2.7.2.3.6.5 1 .5s.9-.2 1.1-.6l.5.2c-.3.6-.9 1-1.6 1-1.1 0-1.9-.8-1.9-1.9s.8-1.9 1.9-1.9 1.9.8 1.9 1.9v.2h-3.1zm2.4-.4c0-.3 0-.4-.2-.6-.2-.3-.6-.5-1-.5s-.8.2-1 .5c-.1.2-.2.3-.2.6h2.4zM389.2 107.1v.6c.1-.3.2-.4.3-.5.2-.1.4-.2.7-.2h.1v.6h-.2c-.3 0-.6.2-.8.4-.2.2-.2.4-.2.9v1.9h-.6v-3.7h.6zM365.3 116.2v-.6l1.8-1.2v5.4h-.6v-4.4l-1.2.8zM369.8 116.7c.2 0 .3-.1.5-.1.9 0 1.6.7 1.6 1.6s-.8 1.7-1.7 1.7-1.7-.8-1.7-1.7.1-.7.4-1.2l1.5-2.5h.7l-1.4 2.1zm-.7 1.5c0 .6.5 1.1 1.1 1.1s1.1-.5 1.1-1.1-.5-1.1-1.1-1.1-1.1.5-1.1 1.1zM373.8 119.4c0 .2-.2.4-.4.4s-.4-.2-.4-.4.2-.4.4-.4.4.2.4.4zM375.1 115.1v-.6h3l-1.6 2c.9 0 1.6.7 1.6 1.6s-.8 1.7-1.8 1.7-1.4-.5-1.6-1.3h.6c.1.4.5.7 1 .7s1.2-.5 1.2-1.1-.5-1.1-1.2-1.1-.4 0-.6.2l-.3-.2 1.5-1.9H375zM381.5 116.1v.5c.3-.4.6-.6 1-.6s.8.2 1 .7c.3-.5.6-.7 1.2-.7s.7.1.9.4c.2.2.2.4.2 1v2.4h-.6v-2.2c0-.4 0-.6-.1-.7-.1-.2-.4-.3-.6-.3-.5 0-.8.4-.8 1v2.2h-.6v-2.2c0-.4 0-.5-.1-.7-.1-.2-.3-.3-.6-.3-.5 0-.9.4-.9 1v2.2h-.6v-3.7h.6zM389.1 117.3v.4h-2l1.2-1.6c.3-.5.4-.6.4-.8 0-.3-.2-.4-.5-.4s-.5.2-.5.6h-.4c0-.6.4-1 1-1s1 .3 1 .8-.1.5-.4.9l-.8 1.1h1.1z"/></g><g><path d="M272.6 301.4h-.7v-5.3h.7v2.5l2.1-2.5h.8l-2.2 2.6 2.2 2.7h-.9l-2-2.5v2.5zM279.6 299.6c0 1.1-.8 1.9-1.9 1.9s-1.9-.8-1.9-1.9.8-1.9 1.9-1.9 1.9.8 1.9 1.9zm-3.1 0c0 .8.5 1.4 1.3 1.4s1.2-.6 1.2-1.4-.5-1.4-1.2-1.4-1.3.6-1.3 1.4zM283.6 301c-.4.4-.8.5-1.4.5-1.1 0-1.8-.8-1.8-1.9s.8-1.9 1.8-1.9 1 .2 1.3.6l-.4.4c-.3-.3-.6-.4-.9-.4-.7 0-1.2.6-1.2 1.4s.5 1.4 1.2 1.4.6-.1.9-.4l.4.4zM285.1 298.3c.3-.4.7-.6 1.1-.6s.7.1.9.3c.2.2.3.5.3 1v2.5h-.6v-2.4c0-.5-.2-.8-.7-.8s-.5.1-.7.3c-.2.2-.2.4-.2.7v2.2h-.6v-5.3h.6v2.2zM289.1 299.8c0 .3 0 .5.2.7.2.3.6.5 1 .5s.9-.2 1.1-.6l.5.2c-.3.6-.9 1-1.6 1-1.1 0-1.9-.8-1.9-1.9s.8-1.9 1.9-1.9 1.9.8 1.9 1.9v.2h-3.1zm2.4-.4c0-.3 0-.4-.2-.6-.2-.3-.6-.5-1-.5s-.8.2-1 .5c-.1.2-.2.3-.2.6h2.4zM293.9 297.8v.5c.3-.4.6-.6 1.1-.6s.6.1.9.3c.2.2.3.5.3 1v2.5h-.6v-2.4c0-.3 0-.5-.1-.6-.1-.2-.3-.2-.6-.2s-.5.1-.7.3c-.2.2-.2.4-.2.7v2.2h-.6v-3.7h.6zM272.1 306.9v-.6l1.8-1.2v5.4h-.6v-4.4l-1.2.8zM278.8 308.8c0 .6-.1 1-.4 1.2-.3.3-.7.4-1.2.4s-1-.2-1.2-.5c-.3-.3-.4-.6-.4-1.4v-1.8c0-.7 0-1 .3-1.3.3-.3.7-.5 1.2-.5s.9.1 1.2.4c.3.3.4.6.4 1.2v2.1zm-2.5-.1c0 .6 0 .7.2.9.2.2.5.3.8.3s.6-.1.8-.4c.1-.2.2-.4.2-.8v-2c0-.4 0-.6-.3-.8-.2-.2-.4-.2-.7-.2s-.6.1-.8.4c-.1.2-.2.4-.2.8v1.8zM280.8 310.1c0 .2-.2.4-.4.4s-.4-.2-.4-.4.2-.4.4-.4.4.2.4.4zM284.8 309.9v.6h-3l1.9-2.7c.5-.8.7-1 .7-1.3 0-.5-.4-.8-.9-.8s-.7.2-.8.4v.6h-.6c0-1 .6-1.6 1.5-1.6s1.5.5 1.5 1.3-.2.8-.6 1.5l-1.4 2h1.9zM289.3 306.8v.5c.3-.4.6-.6 1-.6s.8.2 1 .7c.3-.5.6-.7 1.2-.7s.7.1.9.4c.2.2.2.4.2 1v2.4h-.6v-2.2c0-.4 0-.6-.1-.7-.1-.2-.4-.3-.6-.3-.5 0-.8.4-.8 1v2.2h-.6v-2.2c0-.4 0-.5-.1-.7-.1-.2-.3-.3-.6-.3-.5 0-.9.4-.9 1v2.2h-.6v-3.7h.6zM296.9 307.9v.4h-2l1.2-1.6c.3-.5.4-.6.4-.8 0-.3-.2-.4-.5-.4s-.5.2-.5.6h-.4c0-.6.4-1 1-1s1 .3 1 .8-.1.5-.4.9l-.8 1.1h1.1z"/></g><g><path d="M279.6 144.6h2.1v.6h-2.1v1.8h2.1v.6h-2.8v-5.3h2.8v.6h-2.1v1.8zM284.6 144.9c0-.4-.3-.6-.7-.6s-.7.2-.7.5.2.4.8.6c.5.1.7.2.9.4.2.2.3.4.3.7 0 .6-.5 1.1-1.3 1.1s-1.3-.4-1.4-1.1h.6c0 .4.3.6.8.6s.7-.2.7-.5-.2-.5-.8-.6c-.8-.2-1.2-.6-1.2-1.1s.5-1.1 1.3-1.1 1.3.4 1.3 1.1h-.6zM288.2 144.9c0-.4-.3-.6-.7-.6s-.7.2-.7.5.2.4.8.6c.5.1.7.2.9.4.2.2.3.4.3.7 0 .6-.5 1.1-1.3 1.1s-1.3-.4-1.4-1.1h.6c0 .4.3.6.8.6s.7-.2.7-.5-.2-.5-.8-.6c-.8-.2-1.2-.6-1.2-1.1s.5-1.1 1.3-1.1 1.3.4 1.3 1.1h-.6zM290.3 145.9c0 .3 0 .5.2.7.2.3.6.5 1 .5s.9-.2 1.1-.6l.5.2c-.3.6-.9 1-1.6 1-1.1 0-1.9-.8-1.9-1.9s.8-1.9 1.9-1.9 1.9.8 1.9 1.9v.2h-3.1zm2.4-.4c0-.3 0-.4-.2-.6-.2-.3-.6-.5-1-.5s-.8.2-1 .5c-.1.2-.2.3-.2.6h2.4zM295.1 143.9v.5c.3-.4.6-.6 1.1-.6s.6.1.9.3c.2.2.3.5.3 1v2.5h-.6v-2.4c0-.3 0-.5-.1-.6-.1-.2-.3-.2-.6-.2s-.5.1-.7.3c-.2.2-.2.4-.2.7v2.2h-.6v-3.7h.6zM279.2 153v-.6l1.8-1.2v5.4h-.6v-4.4l-1.2.8zM282.6 151.9v-.6h3l-2.1 5.3h-.7l1.9-4.7h-2zM286.8 156.2c0 .2-.2.4-.4.4s-.4-.2-.4-.4.2-.4.4-.4.4.2.4.4zM290.8 156v.6h-3l1.9-2.7c.5-.8.7-1 .7-1.3 0-.5-.4-.8-.9-.8s-.7.2-.8.4v.6h-.6c0-1 .6-1.6 1.5-1.6s1.5.5 1.5 1.3-.2.8-.6 1.5l-1.4 2h1.9zM295.3 152.9v.5c.3-.4.6-.6 1-.6s.8.2 1 .7c.3-.5.6-.7 1.2-.7s.7.1.9.4c.2.2.2.4.2 1v2.4h-.6v-2.2c0-.4 0-.6-.1-.7-.1-.2-.4-.3-.6-.3-.5 0-.8.4-.8 1v2.2h-.6v-2.2c0-.4 0-.5-.1-.7-.1-.2-.3-.3-.6-.3-.5 0-.9.4-.9 1v2.2h-.6v-3.7h.6zM302.8 154.1v.4h-2l1.2-1.6c.3-.5.4-.6.4-.8 0-.3-.2-.4-.5-.4s-.5.2-.5.6h-.4c0-.6.4-1 1-1s1 .3 1 .8-.1.5-.4.9l-.8 1.1h1.1z"/></g><g><path d="M270.8 379.3c1.1 0 1.7.5 1.7 1.4s-.1.6-.3.9c-.1.2-.3.2-.5.3.3 0 .4.1.6.2.3.2.4.6.4 1s-.2.9-.6 1.2c-.3.2-.7.3-1.3.3h-1.5v-5.3h1.5zm-.8 2.4h.7c.4 0 .7 0 .9-.2.2-.2.3-.4.3-.7s-.2-.6-.4-.8c-.2 0-.4-.1-.9-.1h-.6v1.8zm0 2.4h.7c.6 0 .8 0 1-.2.3-.1.4-.4.4-.8 0-.6-.4-.9-1.2-.9h-.8v1.8zM276.7 381h.6v3.7h-.6v-.7c-.4.6-.8.8-1.3.8-1 0-1.7-.8-1.7-1.9s.7-1.9 1.8-1.9 1 .2 1.3.7v-.6zm-2.1.9c-.2.3-.3.6-.3 1 0 .8.5 1.4 1.2 1.4s1.3-.6 1.3-1.4-.5-1.4-1.2-1.4-.7.1-.9.4zM278.7 384.7v-5.3h.6v5.3h-.6zM281.2 384.7h-.6v-5.3h.6v3.3l1.5-1.6h.8l-1.6 1.8 1.6 1.9h-.8l-1.5-1.6v1.6zM287.7 382.8c0 1.1-.8 1.9-1.9 1.9s-1.9-.8-1.9-1.9.8-1.9 1.9-1.9 1.9.8 1.9 1.9zm-3.1 0c0 .8.5 1.4 1.3 1.4s1.2-.6 1.2-1.4-.5-1.4-1.2-1.4-1.3.6-1.3 1.4zM289.4 381v.5c.3-.4.6-.6 1.1-.6s.6.1.9.3c.2.2.3.5.3 1v2.5h-.6v-2.4c0-.3 0-.5-.1-.6-.1-.2-.3-.2-.6-.2s-.5.1-.7.3c-.2.2-.2.4-.2.7v2.2h-.6V381h.6zM271.6 389h-1.7v1.4c.3-.1.5-.2.8-.2.9 0 1.6.7 1.6 1.7s-.8 1.8-1.8 1.8-1.3-.4-1.6-1.1l.6-.2c.1.2.2.3.3.4.2.2.5.3.8.3.6 0 1.1-.5 1.1-1.2s-.5-1.1-1.2-1.1-.8.2-1.2.5v-3h2.3v.6zM274.2 393.3c0 .2-.2.4-.4.4s-.4-.2-.4-.4.2-.4.4-.4.4.2.4.4zM278.5 392.1c0 .6-.1 1-.4 1.2-.3.3-.7.4-1.2.4s-1-.2-1.2-.5c-.3-.3-.4-.6-.4-1.4V390c0-.7 0-1 .3-1.3.3-.3.7-.5 1.2-.5s.9.1 1.2.4c.3.3.4.6.4 1.2v2.1zm-2.5-.1c0 .6 0 .7.2.9.2.2.5.3.8.3s.6-.1.8-.4c.1-.2.2-.4.2-.8v-2c0-.4 0-.6-.3-.8-.2-.2-.4-.2-.7-.2s-.6.1-.8.4c-.1.2-.2.4-.2.8v1.8zM282.7 390v.5c.3-.4.6-.6 1-.6s.8.2 1 .7c.3-.5.6-.7 1.2-.7s.7.1.9.4c.2.2.2.4.2 1v2.4h-.6v-2.2c0-.4 0-.6-.1-.7-.1-.2-.4-.3-.6-.3-.5 0-.8.4-.8 1v2.2h-.6v-2.2c0-.4 0-.5-.1-.7-.1-.2-.3-.3-.6-.3-.5 0-.9.4-.9 1v2.2h-.6V390h.6zM290.3 391.2v.4h-2l1.2-1.6c.3-.5.4-.6.4-.8 0-.3-.2-.4-.5-.4s-.5.2-.5.6h-.4c0-.6.4-1 1-1s1 .3 1 .8-.1.5-.4.9l-.8 1.1h1.1z"/></g><g><path d="M303.3 65.1c1.1 0 1.7.5 1.7 1.4s-.1.6-.3.9c-.1.2-.3.2-.5.3.3 0 .4.1.6.2.3.2.4.6.4 1s-.2.9-.6 1.2c-.3.2-.7.3-1.3.3h-1.5v-5.3h1.5zm-.8 2.4h.7c.4 0 .7 0 .9-.2.2-.2.3-.4.3-.7s-.2-.6-.4-.8c-.2 0-.4-.1-.9-.1h-.6v1.8zm0 2.4h.7c.6 0 .8 0 1-.2.3-.1.4-.4.4-.8 0-.6-.4-.9-1.2-.9h-.8v1.8zM309.2 66.8h.6v3.7h-.6v-.7c-.4.6-.8.8-1.3.8-1 0-1.7-.8-1.7-1.9s.7-1.9 1.8-1.9 1 .2 1.3.7v-.6zm-2.1.9c-.2.3-.3.6-.3 1 0 .8.5 1.4 1.2 1.4s1.3-.6 1.3-1.4-.5-1.4-1.2-1.4-.7.1-.9.4zM313.9 65.1h.6v5.3h-.6v-.6c-.4.5-.8.7-1.3.7-1 0-1.7-.8-1.7-1.9s.7-2 1.7-2 1 .2 1.3.6V65zm-2.4 3.5c0 .8.5 1.4 1.2 1.4s1.2-.6 1.2-1.4-.5-1.4-1.2-1.4-1.2.6-1.2 1.4zM301.4 78.3v-.5l2.8-3.7v3.6h.6v.6h-.6v1.2h-.6v-1.2h-2.1zm2.1-2.6l-1.5 2h1.5v-2zM306.6 79.1c0 .2-.2.4-.4.4s-.4-.2-.4-.4.2-.4.4-.4.4.2.4.4zM310.6 76.9c.3.3.4.6.4 1 0 .9-.7 1.6-1.7 1.6s-1.6-.6-1.6-1.6.1-.8.4-1.1c.2-.2.3-.3.6-.4-.3 0-.4-.2-.5-.4-.2-.2-.3-.5-.3-.8 0-.8.6-1.3 1.5-1.3s1.4.6 1.4 1.3-.1.6-.3.8c-.1.2-.3.2-.5.3.3 0 .4.2.6.3zm-2.3 1c0 .6.5 1 1 1s1-.5 1-1-.5-1-1-1-1 .5-1 1zm.2-2.5c0 .5.4.8.8.8s.9-.4.9-.8-.4-.8-.8-.8-.9.3-.9.8zM314.3 75.8v.5c.3-.4.6-.6 1-.6s.8.2 1 .7c.3-.5.6-.7 1.2-.7s.7.1.9.4c.2.2.2.4.2 1v2.4h-.6v-2.2c0-.4 0-.6-.1-.7-.1-.2-.4-.3-.6-.3-.5 0-.8.4-.8 1v2.2h-.6v-2.2c0-.4 0-.5-.1-.7-.1-.2-.3-.3-.6-.3-.5 0-.9.4-.9 1v2.2h-.6v-3.7h.6zM321.8 76.9v.4h-2l1.2-1.6c.3-.5.4-.6.4-.8 0-.3-.2-.4-.5-.4s-.5.2-.5.6h-.4c0-.6.4-1 1-1s1 .3 1 .8-.1.5-.4.9l-.8 1.1h1.1z"/></g><g><path d="M33.4 41.7v.6h-2.5V37h.7v4.7h1.9zM35.1 37.6c0 .2-.2.4-.4.4s-.4-.2-.4-.4.2-.4.4-.4.4.2.4.4zm0 4.7h-.6v-3.7h.6v3.7zM37.1 42.3h-.6v-3.2H36v-.5h.5v-.5c0-.7.4-1.2 1-1.2h.2v.5c-.4 0-.6.2-.6.6v.5h.6v.5h-.6v3.2zM39.4 41.6c0 .2 0 .2.3.2h.3v.5h-.6c-.4 0-.6-.2-.6-.6v-2.6h-.5v-.5h.5v-1.2h.6v1.2h.6v.5h-.6v2.4z"/></g></g></svg>