<svg xmlns="http://www.w3.org/2000/svg" viewBox="0 0 440.1 361.2"><defs><style>.cls-1,.cls-10,.cls-11,.cls-12,.cls-13,.cls-14,.cls-15,.cls-16,.cls-17,.cls-18,.cls-2,.cls-3,.cls-4,.cls-5,.cls-6,.cls-7,.cls-8,.cls-9{fill:none;stroke-linecap:round;stroke-linejoin:round}.cls-1,.cls-10,.cls-11,.cls-12,.cls-13,.cls-14,.cls-15,.cls-16,.cls-18,.cls-2,.cls-4,.cls-5,.cls-7,.cls-8,.cls-9{stroke-width:.1px}.cls-1,.cls-14,.cls-16,.cls-17,.cls-4,.cls-7{stroke:#194164}.cls-1,.cls-7{stroke-dasharray:0 0 0 0 2.9 1.4 .2 1.4}.cls-2,.cls-3{stroke:#646464}.cls-3{stroke-width:.1px}.cls-4{stroke-dashoffset:1px}.cls-10,.cls-11,.cls-12,.cls-13,.cls-14,.cls-18,.cls-4,.cls-5,.cls-8,.cls-9{stroke-dasharray:0 0 1.4 1.4}.cls-19,.cls-20{fill:#fff}.cls-10,.cls-11,.cls-12,.cls-13,.cls-15,.cls-18,.cls-5,.cls-8,.cls-9{stroke:#969696}.cls-6{stroke:#000;stroke-width:.3px}.cls-7{stroke-dashoffset:1.7px}.cls-8{stroke-dashoffset:2.8px}.cls-9{stroke-dashoffset:2.4px}.cls-10{stroke-dashoffset:2.7px}.cls-11{stroke-dashoffset:2.5px}.cls-12{stroke-dashoffset:1.4px}.cls-13{stroke-dashoffset:.7px}.cls-20,.cls-21{fill-rule:evenodd}.cls-14{stroke-dashoffset:.2px}.cls-17{stroke-width:.3px}.cls-18{stroke-dashoffset:1.2px}</style></defs><g id="Plan"><path class="cls-21" d="M47.2 345.5l5.5-1.2L58 340l-12.5-2.2-2.4 13 3.4.7v-.7l.7-5.3"/><path class="cls-20" d="M43.3 350.3l3.2.5.7-5.3-2.9-.5-1 5.3"/><path class="cls-20" d="M44.3 345l2.9.5 5.5-1.2-8.2-1.4-.2 2.1"/><path class="cls-15" d="M45 342.9l-.2 2.1M46.5 343.1l-.3 2.2M47.9 343.3l-.5 2.2M49.3 343.6l-.2 1.4M50.8 343.8l-.3 1M52 344.1v.4"/><path class="cls-20" d="M44.5 342.9l8.2 1.4L58 340l-12.5-2.2-1 5.1"/><path class="cls-15" d="M45.3 339.5l4.3 4.3M47.9 338.3l5.5 5.5M52.9 339l2.9 2.9M57.7 340l.3.2"/><path class="cls-17" d="M46.5 350.8l-3.2-.5"/><path class="cls-15" d="M52.7 344.3l-8.2-1.4M47.2 345.5l-2.9-.5"/><path class="cls-17" d="M58 340l-12.5-2.2M52.7 344.3l-8.2-1.4"/><path class="cls-16" d="M58 340l-12.5-2.2"/><path class="cls-17" d="M46.5 351.5l-3.4-.7M46.5 351.5v-.7"/><path class="cls-16" d="M44.3 342.7l1-5.7-30.6-5.5M44.2 345l-1.1 6.4L0 343.7M8.8 336.4l35.7 6.5-.2 2.1-37.7-6.7M40.2 344.3l.5-2.2M10.5 339l.4-2.4M44.5 342.9l-.2 2.1M27.7 339.7l-.2 2.2M40.7 342.1l-.5 2.2M23.9 339l-.5 2.2M27.7 339.7l-.2 2.2M10.9 336.6l-.4 2.4M23.9 339l-.5 2.2"/><path class="cls-20" d="M45.5 337.8l-.2-.2-1 5 .2.3"/><path class="cls-15" d="M45 339.3l.3.2"/><path class="cls-17" d="M45.3 337.6l-1 5 .2.3M45.5 337.8l-.2-.2"/><path class="cls-15" d="M44.5 342.9l-.2 2.1"/><path class="cls-17" d="M43.3 350.3l-.2.5M45.3 337.6l-1 5 .2.3M45.5 337.8l-.2-.2"/><path class="cls-21" d="M46.5 345.5l-3.4-.7v16.3H58V340l-5.3 4.3-5.5 1.2-.7 5.3v-5.3"/><path class="cls-20" d="M46.5 345.5l-3.4-.7v16.3h3.4v-15.6"/><path class="cls-15" d="M43.3 357.5l3.4 3.4M43.3 353.4l3.4 3.4M43.3 349.6l3.4 3.3M43.3 345.5l3.4 3.4"/><path class="cls-20" d="M47.2 345.5l-.7 5.3v10.3h.7v-15.6M52.7 344.3l-5.5 1.2v15.6h5.5v-16.8"/><path class="cls-15" d="M52.9 344.5h-1.4M52.9 346h-5.5M52.9 347.4h-5.5M52.9 348.9h-5.5M52.9 350.3h-5.5M52.9 351.7h-5.5M52.9 353.2h-5.5M52.9 354.6h-5.5M52.9 356.1h-5.5M52.9 357.3h-5.5M52.9 358.7h-5.5M52.9 360.1h-5.5"/><path class="cls-20" d="M58 340l-5.3 4.3v16.8H58V340"/><path class="cls-15" d="M52.9 359.2l2 1.9M52.9 355.1l5.3 5.3M52.9 351l5.3 5.3M52.9 346.9l5.3 5.3M53.4 343.8l4.8 4.6M55.8 341.9l2.4 2.4M58 340.2h.2"/><path class="cls-17" d="M46.5 361.1v-10.3M43.1 361.1v-10.3"/><path class="cls-15" d="M52.7 361.1v-16.8M47.2 361.1v-15.6"/><path class="cls-17" d="M58 361.1V340M52.7 361.1v-16.8"/><path class="cls-16" d="M43.1 361.1v-10.3M58 361.1V340"/><path class="cls-17" d="M43.1 350.8v-6M46.5 345.5l-3.4-.7M46.5 350.8v-5.3M154.2 264.1H194v29.8h-39.8z"/><path class="cls-16" d="M202.9 295.8v-35.5M199.8 277.6v13.9M196.9 264.9v13.6"/><path class="cls-15" d="M376 105.3h3.6v59.3H376z"/><path class="cls-20" d="M139.3 242.5v4.1H83.9v-4.1h55.4"/><path class="cls-15" d="M84.1 244.5l2-2M86.1 246.6l4-4.1M90.4 246.6l4.1-4.1M94.7 246.6l4.1-4.1M99 246.6l4.1-4.1M103.1 246.6l4.1-4.1M107.4 246.6l4.1-4.1M111.7 246.6l4.1-4.1M115.8 246.6l4.1-4.1M120.1 246.6l4.1-4.1M124.5 246.6l4-4.1M128.5 246.6l4.1-4.1M132.9 246.6l4-4.1M137.2 246.6l2.4-2.4"/><path class="cls-20" d="M139.3 246.6v-4.1H83.9v4.1h55.4"/><path class="cls-15" d="M84.1 244.5l2-2M86.1 246.6l4-4.1M90.4 246.6l4.1-4.1M94.7 246.6l4.1-4.1M99 246.6l4.1-4.1M103.1 246.6l4.1-4.1M107.4 246.6l4.1-4.1M111.7 246.6l4.1-4.1M115.8 246.6l4.1-4.1M120.1 246.6l4.1-4.1M124.5 246.6l4-4.1M128.5 246.6l4.1-4.1M132.9 246.6l4-4.1M137.2 246.6l2.4-2.4"/><path class="cls-17" d="M139.3 242.5H83.9M139.3 246.6H83.9M139.3 246.6H83.9M139.3 242.5H83.9M139.3 242.5v4.1"/><path class="cls-16" d="M82.2 242.5v4.1M59.7 242.5v4.1"/><path class="cls-17" d="M83.9 242.5v4.1M58 242.5v4.1"/><path class="cls-15" d="M59.6 246.7c0 12.4 10.2 22.7 22.7 22.7M82.2 246.6v22.8"/><path class="cls-21" d="M368.5 166.2h14.9v29.3h-14.9v-29.3"/><path class="cls-20" d="M383.4 166.2h-3.6v29.3h3.6v-29.3"/><path class="cls-15" d="M380.1 193.1l2.1 2.4M380.1 189l3.6 3.6M380.1 185.2l3.6 3.6M380.1 181.1l3.6 3.6M380.1 177l3.6 3.6M380.1 173.2l3.6 3.6M380.1 169.1l3.6 3.6M381 166.2l2.7 2.4"/><path class="cls-20" d="M379.8 166.2h-.5v29.3h.5v-29.3M379.3 166.2h-5.7v29.3h5.7v-29.3"/><path class="cls-15" d="M373.8 194.3h5.8M373.8 192.9h5.8M373.8 191.7h5.8M373.8 190.2h5.8M373.8 188.8h5.8M373.8 187.3h5.8M373.8 185.9h5.8M373.8 184.5h5.8M373.8 183h5.8M373.8 181.6h5.8M373.8 180.1h5.8M373.8 178.7h5.8M373.8 177.3h5.8M373.8 176.1h5.8M373.8 174.6h5.8M373.8 173.2h5.8M373.8 171.7h5.8M373.8 170.3h5.8M373.8 168.9h5.8M373.8 167.4h5.8"/><path class="cls-20" d="M373.6 166.2h-5.1v29.3h5.1v-29.3"/><path class="cls-15" d="M373.8 166.9l-.7-.7M373.8 170.8l-4.8-4.6M373.8 174.9l-5-5.1M373.8 178.9l-5-5M373.8 182.8l-5-5.1M373.8 186.9l-5-5.1M373.8 190.9l-5-5M373.8 194.8l-5-5.1M370.2 195.5l-1.4-1.7M369.7 195.5l4.1-3.8M368.8 192.6l5-5M368.8 188.5l5-5M368.8 184.7l5-5M368.8 180.6l5-5M368.8 176.5l5-5M368.8 172.7l5-5M368.8 168.6l2.1-2.4"/><path class="cls-17" d="M379.8 166.2v29.3M383.4 166.2v29.3"/><path class="cls-15" d="M373.6 166.2v29.3M379.3 166.2v29.3"/><path class="cls-17" d="M368.5 166.2v29.3M373.6 166.2v29.3"/><path class="cls-16" d="M383.4 166.2v29.3M368.5 166.2v29.3"/><path class="cls-21" d="M368.5 74.3h14.9v29h-14.9v-29"/><path class="cls-20" d="M383.4 74.3h-3.6v29h3.6v-29"/><path class="cls-15" d="M380.1 100.9l2.4 2.4M380.1 96.9l3.6 3.6M380.1 92.8l3.6 3.6M380.1 88.9l3.6 3.6M380.1 84.9l3.6 3.6M380.1 80.8l3.6 3.6M380.1 76.9l3.6 3.6M381.5 74.3l2.2 2.2"/><path class="cls-20" d="M379.8 74.3h-.5v29h.5v-29M379.3 74.3h-5.7v29h5.7v-29"/><path class="cls-15" d="M373.8 102.1h5.8M373.8 100.9h5.8M373.8 99.5h5.8M373.8 98.1h5.8M373.8 96.6h5.8M373.8 95.2h5.8M373.8 93.7h5.8M373.8 92.3h5.8M373.8 90.9h5.8M373.8 89.4h5.8M373.8 88h5.8M373.8 86.5h5.8M373.8 85.3h5.8M373.8 83.9h5.8M373.8 82.5h5.8M373.8 81h5.8M373.8 79.6h5.8M373.8 78.1h5.8M373.8 76.7h5.8M373.8 75.3h5.8"/><path class="cls-20" d="M373.6 74.3h-5.1v29h5.1v-29"/><path class="cls-15" d="M373.8 74.5l-.5-.2M373.8 78.6l-4.5-4.3M373.8 82.7l-5-5M373.8 86.5l-5-5M373.8 90.6l-5-5M373.8 94.7l-5-5M373.8 98.8l-5-5.1M373.8 102.6l-5-5M370.2 103.3l-1.4-1.6M369.7 103.3l4.1-3.8M368.8 100.5l5-5.1M368.8 96.4l5-5.1M368.8 92.5l5-5M368.8 88.5l5-5.1M368.8 84.4l5-5.1M368.8 80.3l5-5M368.8 76.5l1.9-2.2"/><path class="cls-17" d="M379.8 74.3v29M383.4 74.3v29"/><path class="cls-15" d="M373.6 74.3v29M379.3 74.3v29"/><path class="cls-17" d="M368.5 74.3v29M373.6 74.3v29"/><path class="cls-16" d="M383.4 74.3v29M368.5 74.3v29"/><path class="cls-1" d="M368.5 103.3v62.9"/><path class="cls-16" d="M373.6 103.3h2.4v62.9h-2.4zM376 107.2h-2.4M376 162.6h-2.4M373.6 103.3h2.4M373.6 122.3h2.4M373.6 107.2h2.4M373.6 126.4h2.4M373.6 122.3h2.4M373.6 143.2h2.4M373.6 126.4h2.4M373.6 147.5h2.4M373.6 143.2h2.4M373.6 162.6h2.4M373.6 147.5h2.4M373.6 166.2h2.4"/><path class="cls-17" d="M373.6 103.3h-5.1"/><path class="cls-16" d="M383.4 167.9h1.7"/><path class="cls-7" d="M385.1 167.9v-66"/><path class="cls-16" d="M385.1 101.9h-1.2"/><path class="cls-20" d="M379.3 103.4v1.8h-3.4v-1.8"/><path class="cls-15" d="M376.2 105h3.4M376.2 103.6h3.4M379.3 103.4v1.8h-3.4v-1.8"/><path class="cls-20" d="M383.4 103.3v2h-3.6v-2"/><path class="cls-15" d="M380.1 105l.2.3M382.5 103.3l1.2 1.2"/><path class="cls-17" d="M383.4 103.3v2h-3.6v-2M379.8 105.3H376"/><path class="cls-20" d="M379.3 166.3v-1.8h-3.4v1.8"/><path class="cls-15" d="M376.2 166h3.4M376.2 164.5h3.4M379.3 166.3v-1.8h-3.4v1.8"/><path class="cls-17" d="M373.6 166.2h-5.1"/><path class="cls-20" d="M383.4 166.2v-1.7h-3.6v1.7"/><path class="cls-15" d="M380.1 165l.9 1.2M383.4 164.5h.3"/><path class="cls-17" d="M383.4 166.2v-1.7h-3.6v1.7M379.8 164.5H376"/><path class="cls-21" d="M368.5 236.3h14.9v7.9h-14.9v-7.9"/><path class="cls-20" d="M383.4 236.3h-3.6v7.9h3.6v-7.9"/><path class="cls-15" d="M380.1 241.3l2.8 2.9M380.1 237.3l3.6 3.6M382.9 236.3l.8.5"/><path class="cls-20" d="M379.8 236.3h-.5v7.9h.5v-7.9M379.3 236.3h-5.7v7.9h5.7v-7.9"/><path class="cls-15" d="M373.8 244h5.8M373.8 242.5h5.8M373.8 241.1h5.8M373.8 239.7h5.8M373.8 238.2h5.8M373.8 236.8h5.8"/><path class="cls-20" d="M373.6 236.3h-5.1v7.9h5.1v-7.9"/><path class="cls-15" d="M368.8 242.1l2.1 2.1M368.8 238l5 5M370.9 236.3l2.9 2.6"/><path class="cls-17" d="M379.8 236.3v7.9M383.4 236.3v7.9"/><path class="cls-15" d="M373.6 236.3v7.9M379.3 236.3v7.9"/><path class="cls-17" d="M368.5 236.3v7.9M373.6 236.3v7.9"/><path class="cls-16" d="M383.4 236.3v7.9M368.5 236.3v7.9M376 197.4h7.4v-3.3h1.7V238h-1.7v-3.6H376"/><path class="cls-1" d="M368.5 195.5v40.8"/><path class="cls-16" d="M368.5 235.8v.5"/><path class="cls-17" d="M383.4 197.4v-3.3M383.4 234.4v3.6"/><path class="cls-16" d="M373.6 195.5h2.4v40.8h-2.4zM376 199.1h-2.4M376 232.7h-2.4M373.6 195.5h2.4M373.6 214h2.4M373.6 199.1h2.4M373.6 218.1h2.4M373.6 214h2.4M373.6 232.7h2.4M373.6 218.1h2.4M373.6 236.3h2.4"/><path class="cls-20" d="M379.3 195.5v1.9h-3.4v-1.9"/><path class="cls-15" d="M376.2 197.2h3.4M376.2 195.7h3.4M379.3 195.5v1.9h-3.4v-1.9"/><path class="cls-17" d="M373.6 195.5h-5.1"/><path class="cls-20" d="M383.4 195.5v1.9h-3.6v-1.9"/><path class="cls-15" d="M380.1 197.2l.2.2M382.2 195.5l1.5 1.2"/><path class="cls-17" d="M383.4 195.5v1.9h-3.6v-1.9M379.8 197.4H376"/><path class="cls-20" d="M379.3 236.3v-1.8h-3.4v1.8"/><path class="cls-15" d="M376.2 235.6h3.4M379.3 236.3v-1.8h-3.4v1.8"/><path class="cls-17" d="M373.6 236.3h-5.1"/><path class="cls-20" d="M383.4 236.3v-1.9h-3.6v1.9"/><path class="cls-15" d="M381 234.4l1.9 1.9"/><path class="cls-17" d="M383.4 236.3v-1.9h-3.6v1.9M379.8 234.4H376"/><path class="cls-21" d="M368.5.1h14.9v33.2h-14.9V.1"/><path class="cls-20" d="M383.4.1h-3.6v33.2h3.6V.1"/><path class="cls-15" d="M380.1 32.8l.4.5M380.1 28.7l3.6 3.6M380.1 24.9l3.6 3.6M380.1 20.8l3.6 3.6M380.1 16.7l3.6 3.6M380.1 12.6l3.6 3.6M380.1 8.8l3.6 3.6M380.1 4.7l3.6 3.6M380.1.6l3.6 3.6M383.4.1l.3.3"/><path class="cls-20" d="M379.8.1h-.5v33.2h.5V.1M379.3.1h-5.7v33.2h5.7V.1"/><path class="cls-15" d="M373.8 32.8h5.8M373.8 31.3h5.8M373.8 29.9h5.8M373.8 28.5h5.8M373.8 27h5.8M373.8 25.8h5.8M373.8 24.4h5.8M373.8 22.9h5.8M373.8 21.5h5.8M373.8 20.1h5.8M373.8 18.6h5.8M373.8 17.2h5.8M373.8 15.7h5.8M373.8 14.3h5.8M373.8 12.9h5.8M373.8 11.7h5.8M373.8 10.2h5.8M373.8 8.8h5.8M373.8 7.3h5.8M373.8 5.9h5.8M373.8 4.5h5.8M373.8 3h5.8M373.8 1.6h5.8M373.8.1h5.8"/><path class="cls-20" d="M373.6.1h-5.1v33.2h5.1V.1"/><path class="cls-15" d="M368.8 29.4l3.6 3.9M368.8 25.6l5 5M368.8 21.5l5 5M368.8 17.4l5 5.1M368.8 13.6l5 5M368.8 9.5l5 5M368.8 5.4l5 5.1M368.8 1.3l5 5.1M371.4.1l2.4 2.4"/><path class="cls-17" d="M379.8.1v33.2M383.4.1v33.2"/><path class="cls-15" d="M373.6.1v33.2M379.3.1v33.2"/><path class="cls-17" d="M368.5.1v33.2M373.6.1v33.2"/><path class="cls-16" d="M383.4.1v33.2M368.5.1v33.2M376 35.2h7.4v-3.4h1.7v43.9h-1.7v-3.3H376"/><path class="cls-1" d="M368.5 33.3v41"/><path class="cls-16" d="M368.5 73.8v.5"/><path class="cls-17" d="M383.4 35.2v-3.4M383.4 72.4v3.3"/><path class="cls-16" d="M373.6 33.3h2.4v41h-2.4zM376 37.1h-2.4M376 70.5h-2.4M373.6 33.3h2.4M373.6 51.7h2.4M373.6 37.1h2.4M373.6 55.8h2.4M373.6 51.7h2.4M373.6 70.5h2.4M373.6 55.8h2.4M373.6 74.3h2.4"/><path class="cls-20" d="M379.3 33.4v1.8h-3.4v-1.8"/><path class="cls-15" d="M376.2 34.2h3.4M379.3 33.4v1.8h-3.4v-1.8"/><path class="cls-17" d="M373.6 33.3h-5.1"/><path class="cls-20" d="M383.4 33.3v1.9h-3.6v-1.9"/><path class="cls-15" d="M380.5 33.3l2 1.9"/><path class="cls-17" d="M383.4 33.3v1.9h-3.6v-1.9M379.8 35.2H376"/><path class="cls-20" d="M379.3 74.2v-1.9h-3.4v1.9"/><path class="cls-15" d="M376.2 73.8h3.4M376.2 72.4h3.4M379.3 74.2v-1.9h-3.4v1.9"/><path class="cls-17" d="M373.6 74.3h-5.1"/><path class="cls-20" d="M383.4 74.3v-1.9h-3.6v1.9"/><path class="cls-15" d="M380.1 72.9l1.4 1.4M383.4 72.4h.3"/><path class="cls-17" d="M383.4 74.3v-1.9h-3.6v1.9M379.8 72.4H376"/><path class="cls-16" d="M191.7 35.7V93"/><path class="cls-6" d="M192.4 34.9V93"/><path class="cls-16" d="M190.2 37.1V93M191.7 35.7V93"/><path class="cls-6" d="M191.7 93h.7"/><path class="cls-16" d="M190.2 93h1.5M192.4 34.9V93M190.2 37.1V93"/><path class="cls-20" d="M207.5 65.1c.9-1.3.9-3 0-4.3-1.5-1.9-3.8-2.9-6.2-2.9l-9 .3v9.6l9 .3c2.4 0 4.7-1 6.2-2.9"/><path class="cls-16" d="M207.5 65.1c.9-1.3.9-3 0-4.3-1.5-1.9-3.8-2.9-6.2-2.9l-9 .3v9.6l9 .3c2.4 0 4.7-1 6.2-2.9"/><path class="cls-20" d="M197.4 63c0 1 .3 2 1.1 2.8.7.7 1.7 1.2 2.7 1.2 2.1 0 4.1-.9 5.4-2.5.6-.9.6-2 0-2.9-1.3-1.6-3.3-2.5-5.4-2.5-1 0-2 .4-2.7 1.2-.7.7-1.1 1.8-1.1 2.8"/><path class="cls-16" d="M197.4 63c0 1 .3 2 1.1 2.8.7.7 1.7 1.2 2.7 1.2 2.1 0 4.1-.9 5.4-2.5.6-.9.6-2 0-2.9-1.3-1.6-3.3-2.5-5.4-2.5-1 0-2 .4-2.7 1.2-.7.7-1.1 1.8-1.1 2.8"/><path class="cls-20" d="M192.4 70h41.3v22.8h-41.3V70"/><path class="cls-16" d="M192.4 70h41.3v22.8h-41.3zM194.3 92.8V70M183 35.7h8.7"/><path class="cls-6" d="M183 34.9h9.4"/><path class="cls-16" d="M183 37.1h7.2M183 35.7h8.7M183 34.9h9.4M183 37.1h7.2"/><path class="cls-20" d="M192.3 38.2h12.4c.1 0 .3.1.4.2.1.1.2.2.2.4V52.9c0 .1-.1.3-.2.4-.1.1-.2.2-.4.2h-12.4V37.9"/><path class="cls-16" d="M192.3 38.2h12.4c.1 0 .3.1.4.2.1.1.2.2.2.4V52.9c0 .1-.1.3-.2.4-.1.1-.2.2-.4.2h-12.4V37.9"/><path class="cls-21" d="M379.3 250l-5.7 6.2v-12h5.7v5.8"/><path class="cls-20" d="M373.6 256.2l5.7-6.2v-5.8h-5.7v12"/><path class="cls-15" d="M379.6 245.4h-5.8M379.6 246.9h-5.8M379.6 248.3h-5.8M379.6 249.7h-5.8M378.4 251.2h-4.6M377.2 252.4h-3.4M375.7 253.8h-1.9M374.5 255.3h-.7M379.3 250v-5.8M373.6 256.2v-12"/><path class="cls-16" d="M373.6 256.2v-12M379.3 250v-5.8"/><path class="cls-21" d="M373.6 254.3h-5.1v-10.1h5.1v10.1"/><path class="cls-20" d="M368.5 254.3h5.1v-10.1h-5.1v10.1"/><path class="cls-15" d="M368.8 254.1l.2.2M368.8 250l4.1 4.3M368.8 245.9l5 5M370.9 244.2l2.9 2.9"/><path class="cls-17" d="M373.6 254.3v-10.1M368.5 254.3v-10.1"/><path class="cls-16" d="M368.5 254.3v-10.1M373.6 254.3v-10.1"/><path class="cls-20" d="M204.4 219.3c1.3-.9 3-.9 4.3 0 1.9 1.5 2.9 3.8 2.9 6.2l-.3 9h-9.6l-.3-9c0-2.4 1-4.7 2.9-6.2"/><path class="cls-16" d="M204.4 219.3c1.3-.9 3-.9 4.3 0 1.9 1.5 2.9 3.8 2.9 6.2l-.3 9h-9.6l-.3-9c0-2.4 1-4.7 2.9-6.2"/><path class="cls-20" d="M206.6 229.4c-1 0-2-.3-2.8-1.1-.7-.7-1.2-1.7-1.2-2.7 0-2.1.9-4.1 2.5-5.4.9-.6 2-.6 2.9 0 1.6 1.3 2.5 3.3 2.5 5.4 0 1-.4 2-1.2 2.7-.7.7-1.8 1.1-2.8 1.1"/><path class="cls-16" d="M206.6 229.4c-1 0-2-.3-2.8-1.1-.7-.7-1.2-1.7-1.2-2.7 0-2.1.9-4.1 2.5-5.4.9-.6 2-.6 2.9 0 1.6 1.3 2.5 3.3 2.5 5.4 0 1-.4 2-1.2 2.7-.7.7-1.8 1.1-2.8 1.1"/><path class="cls-20" d="M149.6 234.1V186l.1-.1.1-.1h.1v-.1h20.6l.1.1h.1v.1h.1v.1l.1.1v48l-.1.1v.1l-.1.1-.1.1h-20.7l-.1-.1h-.1v-.1l-.1-.1v-.1"/><path class="cls-16" d="M149.6 234.1V186l.1-.1.1-.1h.1v-.1h20.6l.1.1h.1v.1h.1v.1l.1.1v48l-.1.1v.1l-.1.1-.1.1h-20.7l-.1-.1h-.1v-.1l-.1-.1v-.1"/><path class="cls-20" d="M151.7 228.8v-37.4c0-.4 0-.9.3-1.3.2-.4.4-.8.7-1.1.3-.3.7-.6 1.1-.7.4-.2.9-.3 1.3-.3h10.2c.4 0 .9 0 1.3.3.4.2.8.4 1.1.7.3.3.6.7.7 1.1.2.4.3.9.3 1.3v37.4c0 .4 0 .9-.3 1.3-.2.4-.4.8-.7 1.1-.3.3-.7.6-1.1.7-.4.2-.9.3-1.3.3h-10.2c-.4 0-.9 0-1.3-.3-.4-.2-.8-.4-1.1-.7-.3-.3-.6-.7-.7-1.1-.2-.4-.3-.9-.3-1.3"/><path class="cls-16" d="M151.7 228.8v-37.4c0-.4 0-.9.3-1.3.2-.4.4-.8.7-1.1.3-.3.7-.6 1.1-.7.4-.2.9-.3 1.3-.3h10.2c.4 0 .9 0 1.3.3.4.2.8.4 1.1.7.3.3.6.7.7 1.1.2.4.3.9.3 1.3v37.4c0 .4 0 .9-.3 1.3-.2.4-.4.8-.7 1.1-.3.3-.7.6-1.1.7-.4.2-.9.3-1.3.3h-10.2c-.4 0-.9 0-1.3-.3-.4-.2-.8-.4-1.1-.7-.3-.3-.6-.7-.7-1.1-.2-.4-.3-.9-.3-1.3M220.5 235.1H196"/><path class="cls-6" d="M220.5 234.4h-25.2"/><path class="cls-16" d="M220.5 236.5h-23.1M220.5 235.1H196M220.5 234.4h-25.2M220.5 236.5h-23.1"/><path class="cls-6" d="M220.5 235.1v-.7"/><path class="cls-16" d="M220.5 236.5v-1.4M196 238.9h-18.5"/><path class="cls-6" d="M195.3 238.2h-17.1"/><path class="cls-16" d="M197.4 240.4h-21.3M196 238.9h-18.5M195.3 238.2h-17.1M197.4 240.4h-21.3M177.5 235.1h-28.1"/><path class="cls-6" d="M178.2 234.4h-28.8"/><path class="cls-16" d="M176.1 236.5h-26.7M177.5 235.1h-28.1"/><path class="cls-6" d="M149.4 235.1v-.7"/><path class="cls-16" d="M149.4 236.5v-1.4M178.2 234.4h-28.8M176.1 236.5h-26.7"/><path class="cls-20" d="M178.9 234.5v-12-.4c0-.1.1-.3.2-.4.1-.1.2-.2.4-.2H193.6c.1 0 .3.1.4.2.1.1.2.2.2.4v12.4h-15.6"/><path class="cls-16" d="M178.9 234.5v-12-.4c0-.1.1-.3.2-.4.1-.1.2-.2.4-.2H193.6c.1 0 .3.1.4.2.1.1.2.2.2.4v12.4h-15.6"/><path class="cls-14" d="M195.3 234.4v3.8"/><path class="cls-4" d="M195.3 238.2h-17.1"/><path class="cls-14" d="M178.2 238.2v-3.8"/><path class="cls-16" d="M177.5 238.9v-3.8"/><path class="cls-6" d="M178.2 238.2v-3.8"/><path class="cls-16" d="M176.1 240.4v-3.9M177.5 238.9v-3.8M178.2 238.2v-3.8M176.1 240.4v-3.9M196 235.1v3.8"/><path class="cls-6" d="M195.3 234.4v3.8"/><path class="cls-16" d="M197.4 236.5v3.9M196 235.1v3.8M195.3 234.4v3.8M197.4 236.5v3.9"/><path class="cls-6" d="M195.3 234.4h-17.1"/><path class="cls-16" d="M14.7 331.5v-76.3M0 343.7V242.9M8.9 250.3v86m-2.3 1.9v-89.8M6.6 334.2h2.2M6.6 252.6h2.2M8.8 316.7H6.6M8.8 334.2H6.6M8.8 312.6H6.6M8.8 316.7H6.6M8.8 295.3H6.6M8.8 312.6H6.6M8.8 291.3H6.6M8.8 295.3H6.6M8.8 274H6.6M8.8 291.3H6.6M8.8 269.9H6.6M8.8 274H6.6M8.8 252.6H6.6M8.8 269.9H6.6"/><path class="cls-21" d="M46.5 235.8v-.7l-3.4.7 2.4 13 12.5-2.2-5.3-4.3-5.5-1.2-.7-5.3"/><path class="cls-20" d="M47.2 241.1l-.7-5.3-3.2.5 1 5.3 2.9-.5M52.7 242.3l-5.5-1.2-2.9.5.2 2.1 8.2-1.4"/><path class="cls-15" d="M52.2 242.3v-.2M50.8 242.5l-.3-.7M49.3 243l-.2-1.4M47.9 243.3l-.2-2.2M46.7 243.5l-.5-2.2M45.3 243.7l-.5-2.1"/><path class="cls-20" d="M58 246.6l-5.3-4.3-8.2 1.4 1 5.1 12.5-2.2"/><path class="cls-15" d="M45.3 247.3l1.4 1.2M45.5 243.5l4.6 4.6M48.9 243l4.5 4.3M52.5 242.3l4.3 4.6"/><path class="cls-17" d="M43.3 236.3l3.2-.5"/><path class="cls-15" d="M44.5 243.7l8.2-1.4M44.3 241.6l2.9-.5"/><path class="cls-17" d="M45.5 248.8l12.5-2.2M44.5 243.7l8.2-1.4"/><path class="cls-16" d="M45.5 248.8l12.5-2.2"/><path class="cls-17" d="M43.1 235.8l3.4-.7M46.5 235.8v-.7"/><path class="cls-16" d="M14.7 255.2l30.6-5.6-1-5.7M0 242.9l43.1-7.7 1.1 6.4M6.6 248.3l37.7-6.7.2 2.1-35.7 6.5M10.5 247.6l.4 2.4M40.2 242.3l.5 2.2M23.9 247.6l-.5-2.2M10.9 250l-.4-2.4M27.7 246.9l-.2-2.2M23.9 247.6l-.5-2.2M40.7 244.5l-.5-2.2M27.7 246.9l-.2-2.2M44.5 243.7l-.2-2.1"/><path class="cls-20" d="M45.5 248.8l-.2.2-1-5 .2-.3"/><path class="cls-15" d="M45 247.1l.3.2"/><path class="cls-17" d="M45.3 249l-1-5 .2-.3M45.5 248.8l-.2.2"/><path class="cls-15" d="M44.5 243.7l-.2-2.1"/><path class="cls-17" d="M43.3 236.3l-.2-.5M45.3 249l-1-5 .2-.3M45.5 248.8l-.2.2"/><path class="cls-21" d="M58 33.3H43.1V.1H58v33.2"/><path class="cls-20" d="M43.1 33.3h3.4V.1h-3.4v33.2"/><path class="cls-15" d="M43.3 32.8l.3.5M43.3 28.7l3.4 3.4M43.3 24.9l3.4 3.3M43.3 20.8l3.4 3.3M43.3 16.7l3.4 3.4M43.3 12.9l3.4 3.3M43.3 8.8l3.4 3.3M43.3 4.7l3.4 3.4M43.3.6L46.7 4"/><path class="cls-20" d="M46.5 33.3h.7V.1h-.7v33.2M47.2 33.3h5.5V.1h-5.5v33.2"/><path class="cls-15" d="M52.9.1h-5.5M52.9 1.6h-5.5M52.9 3h-5.5M52.9 4.5h-5.5M52.9 5.9h-5.5M52.9 7.3h-5.5M52.9 8.8h-5.5M52.9 10.2h-5.5M52.9 11.7h-5.5M52.9 12.9h-5.5M52.9 14.3h-5.5M52.9 15.7h-5.5M52.9 17.2h-5.5M52.9 18.6h-5.5M52.9 20.1h-5.5M52.9 21.5h-5.5M52.9 22.9h-5.5M52.9 24.4h-5.5M52.9 25.8h-5.5M52.9 27h-5.5M52.9 28.5h-5.5M52.9 29.9h-5.5M52.9 31.3h-5.5M52.9 32.8h-5.5"/><path class="cls-20" d="M52.7 33.3H58V.1h-5.3v33.2"/><path class="cls-15" d="M52.9 30.4l2.9 2.9M52.9 26.3l5.3 5.3M52.9 22.5l5.3 5.2M52.9 18.4l5.3 5.3M52.9 14.3l5.3 5.3M52.9 10.2l5.3 5.3M52.9 6.4l5.3 5.3M52.9 2.3l5.3 5.3M54.6.1l3.6 3.4"/><path class="cls-17" d="M46.5 33.3V.1M43.1 33.3V.1"/><path class="cls-15" d="M52.7 33.3V.1M47.2 33.3V.1"/><path class="cls-17" d="M58 33.3V.1M52.7 33.3V.1"/><path class="cls-16" d="M43.1 33.3V.1M58 33.3V.1"/><path class="cls-21" d="M58 136.5H43.1V74.3H58v62.2"/><path class="cls-20" d="M43.1 136.5h3.4V74.3h-3.4v62.2"/><path class="cls-15" d="M43.3 133.1l3.4 3.4M43.3 129l3.4 3.4M43.3 124.9l3.4 3.4M43.3 120.9l3.4 3.3M43.3 117l3.4 3.4M43.3 112.9l3.4 3.4M43.3 108.9l3.4 3.3M43.3 105l3.4 3.4M43.3 100.9l3.4 3.4M43.3 96.9l3.4 3.3M43.3 93l3.4 3.4M43.3 88.9l3.4 3.4M43.3 84.9l3.4 3.3M43.3 80.8l3.4 3.3M43.3 76.9l3.4 3.4M44.5 74.3l2.2 1.9"/><path class="cls-20" d="M46.5 136.5h.7V74.3h-.7v62.2M47.2 136.5h5.5V74.3h-5.5v62.2"/><path class="cls-15" d="M52.9 75.3h-5.5M52.9 76.7h-5.5M52.9 78.1h-5.5M52.9 79.6h-5.5M52.9 81h-5.5M52.9 82.5h-5.5M52.9 83.9h-5.5M52.9 85.3h-5.5M52.9 86.5h-5.5M52.9 88h-5.5M52.9 89.4h-5.5M52.9 90.9h-5.5M52.9 92.3h-5.5M52.9 93.7h-5.5M52.9 95.2h-5.5M52.9 96.6h-5.5M52.9 98.1h-5.5M52.9 99.5h-5.5M52.9 100.9h-5.5M52.9 102.1h-5.5M52.9 103.6h-5.5M52.9 105h-5.5M52.9 106.5h-5.5M52.9 107.9h-5.5M52.9 109.3h-5.5M52.9 110.8h-5.5M52.9 112.2h-5.5M52.9 113.7h-5.5M52.9 115.1h-5.5M52.9 116.5h-5.5M52.9 117.7h-5.5M52.9 119.2h-5.5M52.9 120.6h-5.5M52.9 122.1h-5.5M52.9 123.5h-5.5M52.9 124.9h-5.5M52.9 126.4h-5.5M52.9 127.8h-5.5M52.9 129.3h-5.5M52.9 130.7h-5.5M52.9 131.9h-5.5M52.9 133.3h-5.5M52.9 134.8h-5.5M52.9 136.2h-5.5"/><path class="cls-20" d="M52.7 136.5H58V74.3h-5.3v62.2"/><path class="cls-15" d="M52.9 134.5l1.7 2M52.9 130.5l5.3 5.2M52.9 126.6l5.3 5.3M52.9 122.5l5.3 5.3M52.9 118.5l5.3 5.2M52.9 114.6l5.3 5.3M52.9 110.5l5.3 5.3M52.9 106.5l5.3 5.2M52.9 102.6l5.3 5.3M52.9 98.5l5.3 5.3M52.9 94.5l5.3 5.2M52.9 90.4l5.3 5.3M52.9 86.5l5.3 5.3M52.9 82.5l5.3 5.2M52.9 78.4l5.3 5.3M52.9 74.5l5.3 5.3M56.8 74.3l1.4 1.4"/><path class="cls-17" d="M46.5 136.5V74.3M43.1 136.5V74.3"/><path class="cls-15" d="M52.7 136.5V74.3M47.2 136.5V74.3"/><path class="cls-17" d="M58 136.5V74.3M52.7 136.5V74.3"/><path class="cls-16" d="M43.1 136.5V74.3M58 136.5V74.3"/><path class="cls-21" d="M47.2 241.1l5.5 1.2 5.3 4.3v-47H43.1v42.2l3.4-.7v-5.3l.7 5.3"/><path class="cls-20" d="M43.1 199.6v42.2l3.4-.7v-41.5h-3.4"/><path class="cls-15" d="M43.3 241.3l.3.5M43.3 237.3l3.4 3.3M43.3 233.2l3.4 3.3M43.3 229.1l3.4 3.4M43.3 225.3l3.4 3.3M43.3 221.2l3.4 3.3M43.3 217.1l3.4 3.4M43.3 213.3l3.4 3.3M43.3 209.2l3.4 3.3M43.3 205.1l3.4 3.4M43.3 201.3l3.4 3.3M45.7 199.6l1 .9"/><path class="cls-20" d="M46.5 199.6v36.2l.7 5.3v-41.5h-.7M47.2 199.6v41.5l5.5 1.2v-42.7h-5.5"/><path class="cls-15" d="M52.9 200.1h-5.5M52.9 201.5h-5.5M52.9 202.9h-5.5M52.9 204.4h-5.5M52.9 205.8h-5.5M52.9 207h-5.5M52.9 208.5h-5.5M52.9 209.9h-5.5M52.9 211.3h-5.5M52.9 212.8h-5.5M52.9 214.2h-5.5M52.9 215.7h-5.5M52.9 217.1h-5.5M52.9 218.5h-5.5M52.9 220h-5.5M52.9 221.4h-5.5M52.9 222.6h-5.5M52.9 224.1h-5.5M52.9 225.5h-5.5M52.9 226.9h-5.5M52.9 228.4h-5.5M52.9 229.8h-5.5M52.9 231.3h-5.5M52.9 232.7h-5.5M52.9 234.1h-5.5M52.9 235.6h-5.5M52.9 236.8h-5.5M52.9 238.2h-5.5M52.9 239.7h-5.5M52.9 241.1h-5.5"/><path class="cls-20" d="M52.7 199.6v42.7l5.3 4.3v-47h-5.3"/><path class="cls-15" d="M52.9 238.7l5.3 5.3M52.9 234.9l5.3 5.2M52.9 230.8l5.3 5.3M52.9 226.7l5.3 5.3M52.9 222.9l5.3 5.2M52.9 218.8l5.3 5.3M52.9 214.7l5.3 5.3M52.9 210.9l5.3 5.2M52.9 206.8l5.3 5.3M52.9 202.7l5.3 5.3M53.7 199.6l4.5 4.3M57.7 199.6l.5.5"/><path class="cls-17" d="M46.5 235.8v-36.2M43.1 235.8v-36.2"/><path class="cls-15" d="M52.7 242.3v-42.7M47.2 241.1v-41.5"/><path class="cls-17" d="M58 246.6v-47M52.7 242.3v-42.7"/><path class="cls-16" d="M43.1 235.8v-36.2M58 246.6v-47"/><path class="cls-17" d="M43.1 241.8v-6M43.1 241.8l3.4-.7M46.5 241.1v-5.3"/><path class="cls-16" d="M50.5 72.4h-7.4v3.3h-1.7V31.8h1.7v3.4h7.4"/><path class="cls-1" d="M58 74.3v-41"/><path class="cls-16" d="M58 33.7v-.4"/><path class="cls-17" d="M43.1 72.4v3.3M43.1 35.2v-3.4"/><path class="cls-16" d="M50.5 33.3h2.2v41h-2.2zM50.5 70.5h2.2M50.5 37.1h2.2M52.7 74.3h-2.2M52.7 55.8h-2.2M52.7 70.5h-2.2M52.7 51.7h-2.2M52.7 55.8h-2.2M52.7 37.1h-2.2M52.7 51.7h-2.2M52.7 33.3h-2.2"/><path class="cls-20" d="M47.1 74.2v-1.9h3.4v1.9"/><path class="cls-15" d="M50.8 72.4h-3.4M50.8 73.8h-3.4M47.1 74.2v-1.9h3.4v1.9"/><path class="cls-17" d="M52.7 74.3H58"/><path class="cls-20" d="M43.1 74.3v-1.9h3.4v1.9"/><path class="cls-15" d="M43.3 72.9l1.2 1.4"/><path class="cls-17" d="M43.1 74.3v-1.9h3.4v1.9M46.5 72.4h4"/><path class="cls-20" d="M47.1 33.4v1.8h3.4v-1.8"/><path class="cls-15" d="M50.8 34.2h-3.4M47.1 33.4v1.8h3.4v-1.8"/><path class="cls-17" d="M52.7 33.3H58"/><path class="cls-20" d="M43.1 33.3v1.9h3.4v-1.9"/><path class="cls-15" d="M43.6 33.3l1.9 1.9"/><path class="cls-17" d="M43.1 33.3v1.9h3.4v-1.9M46.5 35.2h4"/><path class="cls-16" d="M50.5 197.7h-7.4v3.3h-1.7v-66h1.7v3.4h7.4"/><path class="cls-1" d="M58 199.6v-63.1"/><path class="cls-16" d="M58 136.9v-.4"/><path class="cls-17" d="M43.1 197.7v3.3M43.1 138.4V135"/><path class="cls-16" d="M50.5 136.5h2.2v63.1h-2.2zM50.5 195.7h2.2M50.5 140.3h2.2M52.7 199.6h-2.2M52.7 180.6h-2.2M52.7 195.7h-2.2M52.7 176.5h-2.2M52.7 180.6h-2.2M52.7 159.5h-2.2M52.7 176.5h-2.2M52.7 155.4h-2.2M52.7 159.5h-2.2M52.7 140.3h-2.2M52.7 155.4h-2.2M52.7 136.5h-2.2"/><path class="cls-20" d="M47.1 199.5v-1.9h3.4v1.9"/><path class="cls-15" d="M50.8 198.6h-3.4M47.1 199.5v-1.9h3.4v1.9"/><path class="cls-17" d="M52.7 199.6H58"/><path class="cls-20" d="M43.1 199.6v-1.9h3.4v1.9"/><path class="cls-15" d="M43.8 197.7l1.9 1.9"/><path class="cls-17" d="M43.1 199.6v-1.9h3.4v1.9M46.5 197.7h4"/><path class="cls-20" d="M47.1 136.6v1.8h3.4v-1.8"/><path class="cls-15" d="M50.8 137.7h-3.4M47.1 136.6v1.8h3.4v-1.8"/><path class="cls-17" d="M52.7 136.5H58"/><path class="cls-20" d="M43.1 136.5v1.9h3.4v-1.9"/><path class="cls-15" d="M43.3 136.9l1.2 1.5"/><path class="cls-17" d="M43.1 136.5v1.9h3.4v-1.9M46.5 138.4h4"/><path class="cls-20" d="M52.7 7.1v-7h320.9v7H52.7"/><path class="cls-15" d="M373.8 2.5L371.4.1M373.8 6.4L367.3.1M370.2 7.1l-6.9-7M366.4 7.1l-7-7M362.3 7.1l-7-7M358.2 7.1l-6.9-7M354.4 7.1l-7-7M350.3 7.1l-7-7M346.2 7.1l-6.9-7M342.1 7.1l-6.9-7M338.3 7.1l-7-7M334.2 7.1l-6.9-7M330.1 7.1l-6.9-7M326.3 7.1l-7-7M322.2 7.1l-6.9-7M318.1 7.1l-6.9-7M314.3 7.1l-7-7M310.2 7.1l-6.9-7M306.1 7.1l-6.9-7M302.1 7.1l-7-7M298.2 7.1l-6.9-7M294.1 7.1l-6.9-7M290.1 7.1l-7-7M286.2 7.1l-6.9-7M282.1 7.1l-6.9-7M278.1 7.1l-7-7M274 7.1l-7-7M270.1 7.1l-6.9-7M266.1 7.1l-7-7M262 7.1l-7-7M258.1 7.1l-6.9-7M254.1 7.1l-7-7M250 7.1l-7-7M246.1 7.1l-6.9-7M242.1 7.1l-7-7M238 7.1l-7-7M233.9 7.1l-7-7M230.1 7.1l-7-7M226 7.1l-7-7M221.9 7.1l-7-7M218.1 7.1l-7-7M214 7.1l-7-7M209.9 7.1l-7-7M206.1 7.1l-7-7M202 7.1l-7-7M197.9 7.1l-7-7M193.8 7.1l-6.9-7M190 7.1l-7-7M185.9 7.1l-7-7M181.8 7.1l-6.9-7M178 7.1l-7-7M173.9 7.1l-7-7M169.8 7.1l-6.9-7M166 7.1l-7-7M161.9 7.1l-7-7M157.8 7.1l-6.9-7M153.7 7.1l-6.9-7M149.9 7.1l-7-7M145.8 7.1l-6.9-7M141.7 7.1l-6.9-7M137.9 7.1l-7-7M133.8 7.1l-6.9-7M129.7 7.1l-6.9-7M125.7 7.1l-7-7M121.8 7.1l-6.9-7M117.7 7.1l-6.9-7M113.7 7.1l-7-7M109.8 7.1l-6.9-7M105.7 7.1l-6.9-7M101.7 7.1l-7-7M97.8 7.1l-6.9-7M93.7 7.1l-6.9-7M89.7 7.1l-7-7M85.6 7.1l-7-7M81.7 7.1l-6.9-7M77.7 7.1l-7-7M73.6 7.1l-7-7M69.7 7.1l-6.9-7M65.7 7.1l-7-7M61.6 7.1l-7-7M57.7 7.1l-4.8-4.8M53.7 7.1l-.8-.7M369.7 7.1l4.1-3.8M365.9 7.1l7-7M361.8 7.1l7-7M357.7 7.1l7-7M353.7 7.1l6.9-7M349.8 7.1l7-7M345.7 7.1l7-7M341.7 7.1l6.9-7M337.8 7.1l7-7M333.7 7.1l7-7M329.7 7.1l6.9-7M325.8 7.1l7-7M321.7 7.1l7-7M317.7 7.1l6.9-7M313.6 7.1l6.9-7M309.7 7.1l7-7M305.7 7.1l6.9-7M301.6 7.1l6.9-7M297.7 7.1l7-7M293.7 7.1l6.9-7M289.6 7.1l6.9-7M285.7 7.1l7-7M281.7 7.1l6.9-7M277.6 7.1l6.9-7M273.5 7.1l7-7M269.7 7.1l6.9-7M265.6 7.1l6.9-7M261.5 7.1l7-7M257.7 7.1l6.9-7M253.6 7.1l6.9-7M249.5 7.1l7-7M245.4 7.1l7-7M241.6 7.1l6.9-7M237.5 7.1l7-7M233.4 7.1l7-7M229.6 7.1l6.9-7M225.5 7.1l7-7M221.4 7.1l7-7M217.6 7.1l6.9-7M213.5 7.1l7-7M209.4 7.1l7-7M205.3 7.1l7-7M201.5 7.1l7-7M197.4 7.1l7-7M193.3 7.1l7-7M189.5 7.1l7-7M185.4 7.1l7-7M181.3 7.1l7-7M177.5 7.1l7-7M173.4 7.1l7-7M169.3 7.1l7-7M165.3 7.1l6.9-7M161.4 7.1l7-7M157.3 7.1l7-7M153.3 7.1l6.9-7M149.4 7.1l7-7M145.3 7.1l7-7M141.3 7.1l6.9-7M137.4 7.1l7-7M133.3 7.1l7-7M129.3 7.1l6.9-7M125.2 7.1l6.9-7M121.3 7.1l7-7M117.3 7.1l6.9-7M113.2 7.1l6.9-7M109.3 7.1l7-7M105.3 7.1l6.9-7M101.2 7.1l6.9-7M97.1 7.1l7-7M93.3 7.1l6.9-7M89.2 7.1l6.9-7M85.1 7.1l7-7M81.3 7.1l6.9-7M77.2 7.1l6.9-7M73.1 7.1l7-7M69.3 7.1l6.9-7M65.2 7.1l6.9-7M61.1 7.1l7-7M57 7.1l7-7M53.2 7.1l6.9-7M52.9 3.5L56.1.1"/><path class="cls-20" d="M52.7.1v7h320.9v-7H52.7"/><path class="cls-15" d="M373.8 2.5L371.4.1M373.8 6.4L367.3.1M370.2 7.1l-6.9-7M366.4 7.1l-7-7M362.3 7.1l-7-7M358.2 7.1l-6.9-7M354.4 7.1l-7-7M350.3 7.1l-7-7M346.2 7.1l-6.9-7M342.1 7.1l-6.9-7M338.3 7.1l-7-7M334.2 7.1l-6.9-7M330.1 7.1l-6.9-7M326.3 7.1l-7-7M322.2 7.1l-6.9-7M318.1 7.1l-6.9-7M314.3 7.1l-7-7M310.2 7.1l-6.9-7M306.1 7.1l-6.9-7M302.1 7.1l-7-7M298.2 7.1l-6.9-7M294.1 7.1l-6.9-7M290.1 7.1l-7-7M286.2 7.1l-6.9-7M282.1 7.1l-6.9-7M278.1 7.1l-7-7M274 7.1l-7-7M270.1 7.1l-6.9-7M266.1 7.1l-7-7M262 7.1l-7-7M258.1 7.1l-6.9-7M254.1 7.1l-7-7M250 7.1l-7-7M246.1 7.1l-6.9-7M242.1 7.1l-7-7M238 7.1l-7-7M233.9 7.1l-7-7M230.1 7.1l-7-7M226 7.1l-7-7M221.9 7.1l-7-7M218.1 7.1l-7-7M214 7.1l-7-7M209.9 7.1l-7-7M206.1 7.1l-7-7M202 7.1l-7-7M197.9 7.1l-7-7M193.8 7.1l-6.9-7M190 7.1l-7-7M185.9 7.1l-7-7M181.8 7.1l-6.9-7M178 7.1l-7-7M173.9 7.1l-7-7M169.8 7.1l-6.9-7M166 7.1l-7-7M161.9 7.1l-7-7M157.8 7.1l-6.9-7M153.7 7.1l-6.9-7M149.9 7.1l-7-7M145.8 7.1l-6.9-7M141.7 7.1l-6.9-7M137.9 7.1l-7-7M133.8 7.1l-6.9-7M129.7 7.1l-6.9-7M125.7 7.1l-7-7M121.8 7.1l-6.9-7M117.7 7.1l-6.9-7M113.7 7.1l-7-7M109.8 7.1l-6.9-7M105.7 7.1l-6.9-7M101.7 7.1l-7-7M97.8 7.1l-6.9-7M93.7 7.1l-6.9-7M89.7 7.1l-7-7M85.6 7.1l-7-7M81.7 7.1l-6.9-7M77.7 7.1l-7-7M73.6 7.1l-7-7M69.7 7.1l-6.9-7M65.7 7.1l-7-7M61.6 7.1l-7-7M57.7 7.1l-4.8-4.8M53.7 7.1l-.8-.7M369.7 7.1l4.1-3.8M365.9 7.1l7-7M361.8 7.1l7-7M357.7 7.1l7-7M353.7 7.1l6.9-7M349.8 7.1l7-7M345.7 7.1l7-7M341.7 7.1l6.9-7M337.8 7.1l7-7M333.7 7.1l7-7M329.7 7.1l6.9-7M325.8 7.1l7-7M321.7 7.1l7-7M317.7 7.1l6.9-7M313.6 7.1l6.9-7M309.7 7.1l7-7M305.7 7.1l6.9-7M301.6 7.1l6.9-7M297.7 7.1l7-7M293.7 7.1l6.9-7M289.6 7.1l6.9-7M285.7 7.1l7-7M281.7 7.1l6.9-7M277.6 7.1l6.9-7M273.5 7.1l7-7M269.7 7.1l6.9-7M265.6 7.1l6.9-7M261.5 7.1l7-7M257.7 7.1l6.9-7M253.6 7.1l6.9-7M249.5 7.1l7-7M245.4 7.1l7-7M241.6 7.1l6.9-7M237.5 7.1l7-7M233.4 7.1l7-7M229.6 7.1l6.9-7M225.5 7.1l7-7M221.4 7.1l7-7M217.6 7.1l6.9-7M213.5 7.1l7-7M209.4 7.1l7-7M205.3 7.1l7-7M201.5 7.1l7-7M197.4 7.1l7-7M193.3 7.1l7-7M189.5 7.1l7-7M185.4 7.1l7-7M181.3 7.1l7-7M177.5 7.1l7-7M173.4 7.1l7-7M169.3 7.1l7-7M165.3 7.1l6.9-7M161.4 7.1l7-7M157.3 7.1l7-7M153.3 7.1l6.9-7M149.4 7.1l7-7M145.3 7.1l7-7M141.3 7.1l6.9-7M137.4 7.1l7-7M133.3 7.1l7-7M129.3 7.1l6.9-7M125.2 7.1l6.9-7M121.3 7.1l7-7M117.3 7.1l6.9-7M113.2 7.1l6.9-7M109.3 7.1l7-7M105.3 7.1l6.9-7M101.2 7.1l6.9-7M97.1 7.1l7-7M93.3 7.1l6.9-7M89.2 7.1l6.9-7M85.1 7.1l7-7M81.3 7.1l6.9-7M77.2 7.1l6.9-7M73.1 7.1l7-7M69.3 7.1l6.9-7M65.2 7.1l6.9-7M61.1 7.1l7-7M57 7.1l7-7M53.2 7.1l6.9-7M52.9 3.5L56.1.1"/><path class="cls-17" d="M52.7 7.1h320.9M52.7.1h320.9M373.6 7.1v-7M52.7.1h320.9M52.7 7.1h320.9M52.7 7.1v-7"/><path class="cls-20" d="M58 340v6.9h88.8l-7.5-6.9H57.7h.3"/><path class="cls-15" d="M144.9 346.9l-7-6.9M141 346.9l-6.9-6.9M136.9 346.9L130 340M132.9 346.9l-7-6.9M128.8 346.9l-7-6.9M124.9 346.9L118 340M120.9 346.9l-7-6.9M116.8 346.9l-7-6.9M112.9 346.9L106 340M108.9 346.9l-7-6.9M104.8 346.9l-7-6.9M100.7 346.9l-7-6.9M96.9 346.9l-7-6.9M92.8 346.9l-7-6.9M88.7 346.9l-7-6.9M84.9 346.9l-7-6.9M80.8 346.9l-7-6.9M76.7 346.9l-7-6.9M72.9 346.9l-7-6.9M68.8 346.9l-7-6.9M64.7 346.9l-6.5-6.7M60.6 346.9l-2.4-2.6M146.3 346.9l.2-.2M142.2 346.9l2.2-2.1M138.1 346.9l4.4-4.3M134.3 346.9l6-6.2M130.2 346.9l7-6.9M126.1 346.9l7-6.9M122.1 346.9l6.9-6.9M118.2 346.9l7-6.9M114.1 346.9l7-6.9M110.1 346.9l6.9-6.9M106.2 346.9l7-6.9M102.1 346.9l7-6.9M98.1 346.9l6.9-6.9M94.2 346.9l7-6.9M90.1 346.9l7-6.9M86.1 346.9L93 340M82 346.9l6.9-6.9M78.1 346.9l7-6.9M74.1 346.9L81 340M70 346.9l6.9-6.9M66.1 346.9l7-6.9M62.1 346.9L69 340M58.2 346.9l6.7-6.9M58.2 342.9l2.9-2.9"/><path class="cls-20" d="M58 340v6.9h88.8l-7.5-6.9H57.7h.3"/><path class="cls-15" d="M144.9 346.9l-7-6.9M141 346.9l-6.9-6.9M136.9 346.9L130 340M132.9 346.9l-7-6.9M128.8 346.9l-7-6.9M124.9 346.9L118 340M120.9 346.9l-7-6.9M116.8 346.9l-7-6.9M112.9 346.9L106 340M108.9 346.9l-7-6.9M104.8 346.9l-7-6.9M100.7 346.9l-7-6.9M96.9 346.9l-7-6.9M92.8 346.9l-7-6.9M88.7 346.9l-7-6.9M84.9 346.9l-7-6.9M80.8 346.9l-7-6.9M76.7 346.9l-7-6.9M72.9 346.9l-7-6.9M68.8 346.9l-7-6.9M64.7 346.9l-6.5-6.7M60.6 346.9l-2.4-2.6M146.3 346.9l.2-.2M142.2 346.9l2.2-2.1M138.1 346.9l4.4-4.3M134.3 346.9l6-6.2M130.2 346.9l7-6.9M126.1 346.9l7-6.9M122.1 346.9l6.9-6.9M118.2 346.9l7-6.9M114.1 346.9l7-6.9M110.1 346.9l6.9-6.9M106.2 346.9l7-6.9M102.1 346.9l7-6.9M98.1 346.9l6.9-6.9M94.2 346.9l7-6.9M90.1 346.9l7-6.9M86.1 346.9L93 340M82 346.9l6.9-6.9M78.1 346.9l7-6.9M74.1 346.9L81 340M70 346.9l6.9-6.9M66.1 346.9l7-6.9M62.1 346.9L69 340M58.2 346.9l6.7-6.9M58.2 342.9l2.9-2.9"/><path class="cls-17" d="M139.3 340H57.7M146.8 346.9H58M146.8 346.9H58M139.3 340H57.7"/><path class="cls-20" d="M139.3 340l7.5 6.9v-95.5l-7.5-8.9V340"/><path class="cls-15" d="M147 252.6l-7.4-7.4M147 256.7l-7.4-7.4M147 260.8l-7.4-7.5M147 264.9l-7.4-7.5M147 268.7l-7.4-7.4M147 272.8l-7.4-7.5M147 276.9l-7.4-7.5M147 280.7l-7.4-7.4M147 284.8l-7.4-7.5M147 288.9l-7.4-7.5M147 292.7l-7.4-7.4M147 296.8l-7.4-7.5M147 300.9l-7.4-7.5M147 304.9l-7.4-7.4M147 308.8l-7.4-7.5M147 312.9l-7.4-7.5M147 316.9l-7.4-7.4M147 320.8l-7.4-7.5M147 324.9l-7.4-7.5M147 328.9l-7.4-7.4M147 332.8l-7.4-7.5M147 336.9l-7.4-7.5M147 340.9l-7.4-7.4M147 345l-7.4-7.4M146.5 346.7l.5-.5M144.4 344.8l2.6-2.7M142.5 342.6l4.5-4.3M140.3 340.7l6.7-6.5M139.6 337.6l7.4-7.5M139.6 333.7l7.4-7.4M139.6 329.7l7.4-7.5M139.6 325.6l7.4-7.5M139.6 321.7l7.4-7.4M139.6 317.7l7.4-7.5M139.6 313.6l7.4-7.5M139.6 309.5l7.4-7.4M139.6 305.7l7.4-7.5M139.6 301.6l7.4-7.5M139.6 297.5l7.4-7.4M139.6 293.7l7.4-7.5M139.6 289.6l7.4-7.5M139.6 285.5l7.4-7.4M139.6 281.7l7.4-7.5M139.6 277.6l7.4-7.5M139.6 273.5l7.4-7.4M139.6 269.4l7.4-7.4M139.6 265.6l7.4-7.5M139.6 261.5l7.4-7.4M139.6 257.4l6.7-6.7M139.6 253.6l4.8-5.1M139.6 249.5l3.1-3.1M139.6 245.4l1.2-1.2"/><path class="cls-20" d="M139.3 340l7.5 6.9v-95.5l-7.5-8.9V340"/><path class="cls-15" d="M147 252.6l-7.4-7.4M147 256.7l-7.4-7.4M147 260.8l-7.4-7.5M147 264.9l-7.4-7.5M147 268.7l-7.4-7.4M147 272.8l-7.4-7.5M147 276.9l-7.4-7.5M147 280.7l-7.4-7.4M147 284.8l-7.4-7.5M147 288.9l-7.4-7.5M147 292.7l-7.4-7.4M147 296.8l-7.4-7.5M147 300.9l-7.4-7.5M147 304.9l-7.4-7.4M147 308.8l-7.4-7.5M147 312.9l-7.4-7.5M147 316.9l-7.4-7.4M147 320.8l-7.4-7.5M147 324.9l-7.4-7.5M147 328.9l-7.4-7.4M147 332.8l-7.4-7.5M147 336.9l-7.4-7.5M147 340.9l-7.4-7.4M147 345l-7.4-7.4M146.5 346.7l.5-.5M144.4 344.8l2.6-2.7M142.5 342.6l4.5-4.3M140.3 340.7l6.7-6.5M139.6 337.6l7.4-7.5M139.6 333.7l7.4-7.4M139.6 329.7l7.4-7.5M139.6 325.6l7.4-7.5M139.6 321.7l7.4-7.4M139.6 317.7l7.4-7.5M139.6 313.6l7.4-7.5M139.6 309.5l7.4-7.4M139.6 305.7l7.4-7.5M139.6 301.6l7.4-7.5M139.6 297.5l7.4-7.4M139.6 293.7l7.4-7.5M139.6 289.6l7.4-7.5M139.6 285.5l7.4-7.4M139.6 281.7l7.4-7.5M139.6 277.6l7.4-7.5M139.6 273.5l7.4-7.4M139.6 269.4l7.4-7.4M139.6 265.6l7.4-7.5M139.6 261.5l7.4-7.4M139.6 257.4l6.7-6.7M139.6 253.6l4.8-5.1M139.6 249.5l3.1-3.1M139.6 245.4l1.2-1.2"/><path class="cls-17" d="M139.3 242.5V340M146.8 304v42.9M146.8 251.4v45.4M146.8 304v42.9M139.3 242.5V340M146.8 251.4v45.4"/><path class="cls-20" d="M200.3 345l7.2-6.9v-41.3l-7.2 7.2v41"/><path class="cls-15" d="M207.7 297.5l-.4-.5M207.7 301.3l-2.4-2.1M207.7 305.4l-4.5-4.3M207.7 309.5l-6.4-6.5M207.7 313.3l-7.2-7.2M207.7 317.4l-7.2-7.2M207.7 321.5l-7.2-7.2M207.7 325.6l-7.2-7.2M207.7 329.4l-7.2-7.2M207.7 333.5l-7.2-7.2M207.7 337.6l-7.2-7.2M205.8 339.7l-5.3-5.5M203.9 341.7l-3.4-3.4M201.7 343.6l-1.2-1.2M200.5 344.8l7.2-7.2M200.5 340.9l7.2-7.2M200.5 336.9l7.2-7.2M200.5 332.8l7.2-7.2M200.5 328.9l7.2-7.2M200.5 324.9l7.2-7.2M200.5 320.8l7.2-7.2M200.5 316.7l7.2-7.2M200.5 312.9l7.2-7.2M200.5 308.8l7.2-7.2M200.5 304.7l7.2-7.2"/><path class="cls-20" d="M200.3 345l7.2-6.9v-41.3l-7.2 7.2v41"/><path class="cls-15" d="M207.7 297.5l-.4-.5M207.7 301.3l-2.4-2.1M207.7 305.4l-4.5-4.3M207.7 309.5l-6.4-6.5M207.7 313.3l-7.2-7.2M207.7 317.4l-7.2-7.2M207.7 321.5l-7.2-7.2M207.7 325.6l-7.2-7.2M207.7 329.4l-7.2-7.2M207.7 333.5l-7.2-7.2M207.7 337.6l-7.2-7.2M205.8 339.7l-5.3-5.5M203.9 341.7l-3.4-3.4M201.7 343.6l-1.2-1.2M200.5 344.8l7.2-7.2M200.5 340.9l7.2-7.2M200.5 336.9l7.2-7.2M200.5 332.8l7.2-7.2M200.5 328.9l7.2-7.2M200.5 324.9l7.2-7.2M200.5 320.8l7.2-7.2M200.5 316.7l7.2-7.2M200.5 312.9l7.2-7.2M200.5 308.8l7.2-7.2M200.5 304.7l7.2-7.2"/><path class="cls-17" d="M200.3 304v41M207.5 296.8v41.3M207.5 296.8v41.3M200.3 304v41"/><path class="cls-20" d="M146.8 296.8v7.2h53.5l7.2-7.2h-60.7"/><path class="cls-15" d="M207.3 297l-.3-.2M205.3 299.2l-2.4-2.4M203.2 301.1l-4.3-4.3M201.3 303l-6.3-6.2M198.1 304l-7.2-7.2M194.1 304l-7.2-7.2M190.2 304l-7.2-7.2M186.1 304l-7.2-7.2M182.1 304l-7.2-7.2M178.2 304l-7.2-7.2M174.1 304l-7.2-7.2M170.1 304l-7.2-7.2M166 304l-7.2-7.2M162.1 304l-7.2-7.2M158.1 304l-7.2-7.2M154 304l-7-7.2M150.1 304l-3.1-3.1M197.2 304l7.2-7.2M193.1 304l7.2-7.2M189.3 304l7.2-7.2M185.2 304l7.2-7.2M181.1 304l7.2-7.2M177.3 304l7.2-7.2M173.2 304l7.2-7.2M169.1 304l7.2-7.2M165 304l7.2-7.2M161.2 304l7.2-7.2M157.1 304l7.2-7.2M153 304l7.2-7.2M149.2 304l7.2-7.2M147 302.1l5.3-5.3M147 298.2l1.2-1.4"/><path class="cls-20" d="M146.8 296.8v7.2h53.5l7.2-7.2h-60.7"/><path class="cls-15" d="M207.3 297l-.3-.2M205.3 299.2l-2.4-2.4M203.2 301.1l-4.3-4.3M201.3 303l-6.3-6.2M198.1 304l-7.2-7.2M194.1 304l-7.2-7.2M190.2 304l-7.2-7.2M186.1 304l-7.2-7.2M182.1 304l-7.2-7.2M178.2 304l-7.2-7.2M174.1 304l-7.2-7.2M170.1 304l-7.2-7.2M166 304l-7.2-7.2M162.1 304l-7.2-7.2M158.1 304l-7.2-7.2M154 304l-7-7.2M150.1 304l-3.1-3.1M197.2 304l7.2-7.2M193.1 304l7.2-7.2M189.3 304l7.2-7.2M185.2 304l7.2-7.2M181.1 304l7.2-7.2M177.3 304l7.2-7.2M173.2 304l7.2-7.2M169.1 304l7.2-7.2M165 304l7.2-7.2M161.2 304l7.2-7.2M157.1 304l7.2-7.2M153 304l7.2-7.2M149.2 304l7.2-7.2M147 302.1l5.3-5.3M147 298.2l1.2-1.4"/><path class="cls-17" d="M201.5 296.8h-54.7M200.3 304h-53.5M200.3 304h-53.5M201.5 296.8h-54.7"/><path class="cls-20" d="M237.5 345v-6.9h136.3l-6.5 6.9H237.5"/><path class="cls-15" d="M373.3 338.8l-.7-.7M371.4 340.9l-2.9-2.8M369.5 342.9l-5-4.8M367.6 345l-7-6.9M363.5 345l-7-6.9M359.4 345l-6.9-6.9M355.3 345l-6.9-6.9M351.5 345l-7-6.9M347.4 345l-6.9-6.9M343.3 345l-6.9-6.9M339.5 345l-7-6.9M335.4 345l-6.9-6.9M331.3 345l-6.9-6.9M327.5 345l-7-6.9M323.4 345l-6.9-6.9M319.3 345l-6.9-6.9M315.3 345l-7-6.9M311.4 345l-6.9-6.9M307.3 345l-6.9-6.9M303.3 345l-7-6.9M299.4 345l-6.9-6.9M295.3 345l-6.9-6.9M291.3 345l-7-6.9M287.4 345l-6.9-6.9M283.3 345l-6.9-6.9M279.3 345l-7-6.9M275.2 345l-7-6.9M271.3 345l-6.9-6.9M267.3 345l-7-6.9M263.2 345l-7-6.9M259.3 345l-6.9-6.9M255.3 345l-7-6.9M251.2 345l-7-6.9M247.1 345l-7-6.9M243.3 345l-5.6-5.5M239.2 345l-1.5-1.7M364.7 345l7-6.9M360.6 345l7-6.9M356.5 345l7-6.9M352.7 345l7-6.9M348.6 345l7-6.9M344.5 345l7-6.9M340.5 345l6.9-6.9M336.6 345l7-6.9M332.5 345l7-6.9M328.5 345l6.9-6.9M324.6 345l7-6.9M320.5 345l7-6.9M316.5 345l6.9-6.9M312.6 345l7-6.9M308.5 345l7-6.9M304.5 345l6.9-6.9M300.4 345l6.9-6.9M296.5 345l7-6.9M292.5 345l6.9-6.9M288.4 345l6.9-6.9M284.5 345l7-6.9M280.5 345l6.9-6.9M276.4 345l6.9-6.9M272.3 345l7-6.9M268.5 345l6.9-6.9M264.4 345l6.9-6.9M260.3 345l7-6.9M256.5 345l6.9-6.9M252.4 345l6.9-6.9M248.3 345l7-6.9M244.5 345l6.9-6.9M240.4 345l6.9-6.9M237.7 343.8l5.6-5.7M237.7 339.7l1.5-1.6"/><path class="cls-20" d="M237.5 338.1v6.9h129.8l6.5-6.9H237.5"/><path class="cls-15" d="M373.3 338.8l-.7-.7M371.4 340.9l-2.9-2.8M369.5 342.9l-5-4.8M367.6 345l-7-6.9M363.5 345l-7-6.9M359.4 345l-6.9-6.9M355.3 345l-6.9-6.9M351.5 345l-7-6.9M347.4 345l-6.9-6.9M343.3 345l-6.9-6.9M339.5 345l-7-6.9M335.4 345l-6.9-6.9M331.3 345l-6.9-6.9M327.5 345l-7-6.9M323.4 345l-6.9-6.9M319.3 345l-6.9-6.9M315.3 345l-7-6.9M311.4 345l-6.9-6.9M307.3 345l-6.9-6.9M303.3 345l-7-6.9M299.4 345l-6.9-6.9M295.3 345l-6.9-6.9M291.3 345l-7-6.9M287.4 345l-6.9-6.9M283.3 345l-6.9-6.9M279.3 345l-7-6.9M275.2 345l-7-6.9M271.3 345l-6.9-6.9M267.3 345l-7-6.9M263.2 345l-7-6.9M259.3 345l-6.9-6.9M255.3 345l-7-6.9M251.2 345l-7-6.9M247.1 345l-7-6.9M243.3 345l-5.6-5.5M239.2 345l-1.5-1.7M364.7 345l7-6.9M360.6 345l7-6.9M356.5 345l7-6.9M352.7 345l7-6.9M348.6 345l7-6.9M344.5 345l7-6.9M340.5 345l6.9-6.9M336.6 345l7-6.9M332.5 345l7-6.9M328.5 345l6.9-6.9M324.6 345l7-6.9M320.5 345l7-6.9M316.5 345l6.9-6.9M312.6 345l7-6.9M308.5 345l7-6.9M304.5 345l6.9-6.9M300.4 345l6.9-6.9M296.5 345l7-6.9M292.5 345l6.9-6.9M288.4 345l6.9-6.9M284.5 345l7-6.9M280.5 345l6.9-6.9M276.4 345l6.9-6.9M272.3 345l7-6.9M268.5 345l6.9-6.9M264.4 345l6.9-6.9M260.3 345l7-6.9M256.5 345l6.9-6.9M252.4 345l6.9-6.9M248.3 345l7-6.9M244.5 345l6.9-6.9M240.4 345l6.9-6.9M237.7 343.8l5.6-5.7M237.7 339.7l1.5-1.6"/><path class="cls-17" d="M237.5 345h129.8M237.5 338.1h136.3M237.5 338.1h136.3M237.5 345h129.8"/><path class="cls-20" d="M205.1 345v-4.8l-4.8 4.8h4.8"/><path class="cls-15" d="M205.3 343.1l-1.6-1.4M203.2 345l-1.5-1.4M204.4 345l.9-.9"/><path class="cls-20" d="M205.1 345v-4.8l-4.8 4.8h4.8"/><path class="cls-15" d="M205.3 343.1l-1.6-1.4M203.2 345l-1.5-1.4M204.4 345l.9-.9"/><path class="cls-17" d="M200.3 345h4.8M200.3 345h4.8"/><path class="cls-16" d="M205.1 343.8h2.6v1.7h-2.6zM234.9 343.8h2.6v1.7h-2.6zM207.7 343.8h27.1v1.7h-27.1zM207.7 343.8h27.2"/><path class="cls-1" d="M207.5 338.1h27.6"/><path class="cls-16" d="M234.6 338.1h.5"/><path class="cls-20" d="M205.2 338h2.2v5.9h-2.2v1.1"/><path class="cls-15" d="M207.7 341.4l-2.4-2.4M205.8 343.8l-.5-.7M205.6 343.8l2.1-2.1M205.3 340l2-1.9"/><path class="cls-17" d="M207.4 338v5.9h-2.2v1.1"/><path class="cls-20" d="M237.5 338.1h-2.4v5.7h2.4v1.2"/><path class="cls-15" d="M237.7 339.5l-1.4-1.4M237.7 343.3l-2.4-2.4M237.5 343.8h.2M235.3 342.1l2.4-2.4M235.3 338.1"/><path class="cls-17" d="M237.5 338.1h-2.4v5.7h2.4v1.2"/><path class="cls-20" d="M139.3 242.5l7.5 8.9h54.7l7-8.9h-69.2"/><path class="cls-15" d="M207 244.7l-2.1-2.2M205.1 246.9l-4.3-4.4M203.4 249l-6.5-6.5M201.7 251.4l-8.8-8.9M197.7 251.4l-8.9-8.9M193.8 251.4l-8.9-8.9M189.7 251.4l-8.8-8.9M185.7 251.4l-8.9-8.9M181.6 251.4l-8.9-8.9M177.7 251.4l-8.8-8.9M173.7 251.4l-8.9-8.9M169.6 251.4l-8.9-8.9M165.7 251.4l-8.8-8.9M161.7 251.4l-8.9-8.9M157.6 251.4l-8.9-8.9M153.5 251.4l-8.9-8.9M149.7 251.4l-8.9-8.9M197.7 251.4l8.8-8.9M193.6 251.4l8.9-8.9M189.7 251.4l8.9-8.9M185.7 251.4l8.8-8.9M181.6 251.4l8.9-8.9M177.5 251.4l8.9-8.9M173.7 251.4l8.8-8.9M169.6 251.4l8.9-8.9M165.5 251.4l8.9-8.9M161.7 251.4l8.8-8.9M157.6 251.4l8.9-8.9M153.5 251.4l8.9-8.9M149.7 251.4l8.8-8.9M146.3 250.7l8.2-8.2M144.4 248.5l6-6M142.7 246.4l3.6-3.9M140.8 244.2l1.7-1.7"/><path class="cls-20" d="M139.3 242.5l7.5 8.9h54.7l7-8.9h-69.2"/><path class="cls-15" d="M207 244.7l-2.1-2.2M205.1 246.9l-4.3-4.4M203.4 249l-6.5-6.5M201.7 251.4l-8.8-8.9M197.7 251.4l-8.9-8.9M193.8 251.4l-8.9-8.9M189.7 251.4l-8.8-8.9M185.7 251.4l-8.9-8.9M181.6 251.4l-8.9-8.9M177.7 251.4l-8.8-8.9M173.7 251.4l-8.9-8.9M169.6 251.4l-8.9-8.9M165.7 251.4l-8.8-8.9M161.7 251.4l-8.9-8.9M157.6 251.4l-8.9-8.9M153.5 251.4l-8.9-8.9M149.7 251.4l-8.9-8.9M197.7 251.4l8.8-8.9M193.6 251.4l8.9-8.9M189.7 251.4l8.9-8.9M185.7 251.4l8.8-8.9M181.6 251.4l8.9-8.9M177.5 251.4l8.9-8.9M173.7 251.4l8.8-8.9M169.6 251.4l8.9-8.9M165.5 251.4l8.9-8.9M161.7 251.4l8.8-8.9M157.6 251.4l8.9-8.9M153.5 251.4l8.9-8.9M149.7 251.4l8.8-8.9M146.3 250.7l8.2-8.2M144.4 248.5l6-6M142.7 246.4l3.6-3.9M140.8 244.2l1.7-1.7"/><path class="cls-17" d="M208.5 242.5h-69.2M201.5 251.4h-54.7M201.5 251.4h-54.7M208.5 242.5h-69.2"/><path class="cls-20" d="M374.5 348.1l-6.9.3-.3-3.4 6.5-6.9.7 10"/><path class="cls-15" d="M374.1 339.5l-.8-.7M374.3 343.8l-2.9-2.9M374.5 348.1l-5-5.2M370.7 348.4l-3.1-3.4M373.6 348.1l.9-.9M369.3 348.4l5-5.1M367.6 346.2l6.5-6.7"/><path class="cls-20" d="M367.6 348.4l6.9-.3-.7-10-6.5 6.9.3 3.4"/><path class="cls-15" d="M374.1 339.5l-.8-.7M374.3 343.8l-2.9-2.9M374.5 348.1l-5-5.2M370.7 348.4l-3.1-3.4M373.6 348.1l.9-.9M369.3 348.4l5-5.1M367.6 346.2l6.5-6.7"/><path class="cls-17" d="M374.5 348.1l-.7-10M367.6 348.4l-.3-3.4M367.6 348.4l-.3-3.4M374.5 348.1l-.7-10M374.5 348.1l-6.9.3"/><path class="cls-20" d="M44.3 342.6l8.4 1.7L58 340l-12.7-2.4-1 5"/><path class="cls-15" d="M58 340.2l-.3-.2M55.8 341.9l-3.1-2.9M53.4 343.8l-5.5-5.7M49.3 343.6l-4.3-4.3M52.7 344.3l4.6-4.6M49.3 343.6l4.6-4.3M46 342.9l4.3-4.4M45 340l1.9-2.2"/><path class="cls-20" d="M44.3 342.6l8.4 1.7L58 340l-12.7-2.4-1 5"/><path class="cls-15" d="M58 340.2l-.3-.2M55.8 341.9l-3.1-2.9M53.4 343.8l-5.5-5.7M49.3 343.6l-4.3-4.3M52.7 344.3l4.6-4.6M49.3 343.6l4.6-4.3M46 342.9l4.3-4.4M45 340l1.9-2.2"/><path class="cls-17" d="M57.7 340l-12.4-2.4M52.7 344.3l-8.4-1.7M45.3 337.6l-1 5M52.7 344.3l-8.4-1.7M57.7 340l-12.4-2.4"/><path class="cls-20" d="M58 346.9V340l-5.3 4.3v2.6H58"/><path class="cls-15" d="M58.2 340.2H58M58.2 344.3l-2.4-2.4M56.8 346.9l-3.4-3.1M58 346.9h.2M54.1 346.9l4.1-4"/><path class="cls-20" d="M58 346.9V340l-5.3 4.3v2.6H58"/><path class="cls-15" d="M58.2 340.2H58M58.2 344.3l-2.4-2.4M56.8 346.9l-3.4-3.1M58 346.9h.2M54.1 346.9l4.1-4"/><path class="cls-17" d="M52.7 344.3v2.6M52.7 346.9H58M52.7 344.3v2.6"/><path class="cls-16" d="M367.1 304v34.1M359.4 304v34.1M351.7 304v34.1M344.3 304v34.1M336.6 304v34.1M328.9 304v34.1M321.3 304v34.1M313.6 304v34.1M248.5 296.8h122.4v5.8H248.5zM324.9 302.5l7.9 35.6M305.9 304v34.1M298.2 304v34.1M290.5 304v34.1M282.9 304v34.1M275.4 304v34.1M267.7 304v34.1M260.1 304v34.1M252.4 304v34.1"/><path class="cls-16" d="M247.1 295.3h125.3v8.6H247.1zM328.9 320.9l3.8 3.9M332.7 317.1l-3.8 3.8M332.8 324.9v-7.7M252.4 320.9l3.8 3.9M256.2 317.1l-3.8 3.8M256.2 324.9v-7.7M374.5 346.9l2.4-.2.3 1.7-2.7.2v-1.7zM404.1 344.8h2.6l.2 1.7h-2.6l-.2-1.7z"/><path class="cls-16" d="M376.9 346.7l27.2-1.9.2 1.7-27.1 1.9-.3-1.7z"/><path class="cls-1" d="M376.2 338.1h27.9"/><path class="cls-16" d="M403.6 338.1h.5"/><path class="cls-20" d="M373.9 338l-1.4 4.8 2.1 5.2-.1-1.1 2.2-.2-.6-8.7h-2.2"/><path class="cls-15" d="M376.5 342.1l-2.9-2.8M376.7 346.2l-3.8-3.8M374.3 347.2l.5-.3M374.8 346.9l1.9-1.9M373.3 344.3l3.2-3.1M373.3 340.2l2.2-2.1"/><path class="cls-17" d="M374.6 348l-.1-1.1 2.2-.2-.6-8.7h-2.2"/><path class="cls-16" d="M202 163.3h17v.5h-17zM218.3 163.8h.7v15.4h-.7zM202 163.8h.5v15.4h-.5zM219.5 170.8h.5v.5h-.5z"/><path class="cls-16" d="M202 179.2h17v.7h-17zM184.9 163.3h17v.5h-17zM201.3 163.8h.7v15.4h-.7zM184.9 163.8h.5v15.4h-.5z"/><path class="cls-16" d="M184.9 179.2h17v.7h-17zM167.9 163.3h17v.5h-17zM184.2 163.8h.7v15.4h-.7zM167.9 163.8h.5v15.4h-.5z"/><path class="cls-16" d="M167.9 179.2h17v.7h-17zM150.9 163.3h17v.5h-17zM167.4 163.8h.5v15.4h-.5zM150.9 163.8h.5v15.4h-.5z"/><path class="cls-16" d="M150.9 179.2h17v.7h-17zM149.7 170.8h.7v.5h-.7zM219 163.3h.5v16.6h-.5zM150.4 163.3h.5v16.6h-.5z"/><path class="cls-17" d="M368.5 97.3V93"/><path class="cls-20" d="M83.9 97.3V93h258.7v4.3H83.9"/><path class="cls-15" d="M84.1 95.7l2.7-2.7M86.8 97.3l4.3-4.3M90.9 97.3l4.3-4.3M95.2 97.3l4.3-4.3M99.5 97.3l4.3-4.3M103.6 97.3l4.3-4.3M107.9 97.3l4.3-4.3M112.2 97.3l4.3-4.3M116.5 97.3l4.4-4.3M120.6 97.3l4.3-4.3M124.9 97.3l4.4-4.3M129.3 97.3l4.3-4.3M133.3 97.3l4.4-4.3M137.7 97.3L142 93M142 97.3l4.3-4.3M146.3 97.3l4.3-4.3M150.4 97.3l4.3-4.3M154.7 97.3L159 93M159 97.3l4.3-4.3M163.1 97.3l4.3-4.3M167.4 97.3l4.3-4.3M171.7 97.3l4.4-4.3M175.8 97.3l4.3-4.3M180.1 97.3l4.4-4.3M184.5 97.3l4.3-4.3M188.8 97.3l4.3-4.3M192.9 97.3l4.3-4.3M197.2 97.3l4.3-4.3M201.5 97.3l4.3-4.3M205.6 97.3l4.3-4.3M209.9 97.3l4.3-4.3M214.2 97.3l4.3-4.3M218.5 97.3l4.4-4.3M222.6 97.3l4.3-4.3M226.9 97.3l4.4-4.3M231.3 97.3l4.3-4.3M235.3 97.3l4.4-4.3M239.7 97.3L244 93M244 97.3l4.3-4.3M248.3 97.3l4.3-4.3M252.4 97.3l4.3-4.3M256.7 97.3L261 93M261 97.3l4.3-4.3M265.1 97.3l4.3-4.3M269.4 97.3l4.3-4.3M273.7 97.3l4.4-4.3M277.8 97.3l4.3-4.3M282.1 97.3l4.4-4.3M286.5 97.3l4.3-4.3M290.8 97.3l4.3-4.3M294.9 97.3l4.3-4.3M299.2 97.3l4.3-4.3M303.5 97.3l4.3-4.3M307.6 97.3l4.3-4.3M311.9 97.3l4.3-4.3M316.2 97.3l4.3-4.3M320.5 97.3l4.4-4.3M324.6 97.3l4.3-4.3M328.9 97.3l4.4-4.3M333.3 97.3l4.3-4.3M337.3 97.3l4.4-4.3M341.7 97.3l1.2-.9"/><path class="cls-20" d="M83.9 93v4.3h258.7V93H83.9"/><path class="cls-15" d="M84.1 95.7l2.7-2.7M86.8 97.3l4.3-4.3M90.9 97.3l4.3-4.3M95.2 97.3l4.3-4.3M99.5 97.3l4.3-4.3M103.6 97.3l4.3-4.3M107.9 97.3l4.3-4.3M112.2 97.3l4.3-4.3M116.5 97.3l4.4-4.3M120.6 97.3l4.3-4.3M124.9 97.3l4.4-4.3M129.3 97.3l4.3-4.3M133.3 97.3l4.4-4.3M137.7 97.3L142 93M142 97.3l4.3-4.3M146.3 97.3l4.3-4.3M150.4 97.3l4.3-4.3M154.7 97.3L159 93M159 97.3l4.3-4.3M163.1 97.3l4.3-4.3M167.4 97.3l4.3-4.3M171.7 97.3l4.4-4.3M175.8 97.3l4.3-4.3M180.1 97.3l4.4-4.3M184.5 97.3l4.3-4.3M188.8 97.3l4.3-4.3M192.9 97.3l4.3-4.3M197.2 97.3l4.3-4.3M201.5 97.3l4.3-4.3M205.6 97.3l4.3-4.3M209.9 97.3l4.3-4.3M214.2 97.3l4.3-4.3M218.5 97.3l4.4-4.3M222.6 97.3l4.3-4.3M226.9 97.3l4.4-4.3M231.3 97.3l4.3-4.3M235.3 97.3l4.4-4.3M239.7 97.3L244 93M244 97.3l4.3-4.3M248.3 97.3l4.3-4.3M252.4 97.3l4.3-4.3M256.7 97.3L261 93M261 97.3l4.3-4.3M265.1 97.3l4.3-4.3M269.4 97.3l4.3-4.3M273.7 97.3l4.4-4.3M277.8 97.3l4.3-4.3M282.1 97.3l4.4-4.3M286.5 97.3l4.3-4.3M290.8 97.3l4.3-4.3M294.9 97.3l4.3-4.3M299.2 97.3l4.3-4.3M303.5 97.3l4.3-4.3M307.6 97.3l4.3-4.3M311.9 97.3l4.3-4.3M316.2 97.3l4.3-4.3M320.5 97.3l4.4-4.3M324.6 97.3l4.3-4.3M328.9 97.3l4.4-4.3M333.3 97.3l4.3-4.3M337.3 97.3l4.4-4.3M341.7 97.3l1.2-.9"/><path class="cls-17" d="M224.8 97.3h117.8M149.4 97.3h71.1M83.9 97.3h61.2M238.2 93h104.4M183 93h50.9M83.9 93h94.8M238.2 93h104.4M224.8 97.3h117.8M183 93h50.9M149.4 97.3h71.1M83.9 93h94.8M83.9 97.3h61.2M58 97.3V93"/><path class="cls-16" d="M344.3 97.3V93M366.9 97.3V93"/><path class="cls-17" d="M342.6 97.3V93M368.5 97.3V93"/><path class="cls-15" d="M366.9 93c0-12.4-10.2-22.7-22.7-22.7M344.3 93V70.5"/><path class="cls-16" d="M59.7 97.3V93M82.2 97.3V93"/><path class="cls-17" d="M58 97.3V93M83.9 97.3V93"/><path class="cls-15" d="M82.3 70.4c-12.4 0-22.7 10.2-22.7 22.7M82.2 93V70.5"/><path class="cls-16" d="M150.4 106.7h69.1V124h-69.1zM219 121.6v2.4M202 121.6v2.4M184.9 121.6v2.4M167.9 121.6v2.4M150.9 121.6v2.4"/><path class="cls-20" d="M151.8 111.6v8.9c0 .3 0 .5.2.8 0 .2.2.5.4.6.2.2.4.3.6.4.2 0 .5.2.8.2H165c.3 0 .5 0 .8-.2.2 0 .5-.2.6-.4.2-.2.3-.4.4-.6 0-.2.1-.5.1-.8v-8.9c0-.3 0-.5-.1-.8-.1-.2-.2-.5-.4-.6-.2-.2-.4-.3-.6-.4-.2 0-.5-.2-.8-.2h-11.2c-.3 0-.5 0-.8.2-.2 0-.5.2-.6.4-.2.2-.3.4-.4.6-.1.2-.2.5-.2.8"/><path class="cls-16" d="M151.8 111.6v8.9c0 .3 0 .5.2.8 0 .2.2.5.4.6.2.2.4.3.6.4.2 0 .5.2.8.2H165c.3 0 .5 0 .8-.2.2 0 .5-.2.6-.4.2-.2.3-.4.4-.6 0-.2.1-.5.1-.8v-8.9c0-.3 0-.5-.1-.8-.1-.2-.2-.5-.4-.6-.2-.2-.4-.3-.6-.4-.2 0-.5-.2-.8-.2h-11.2c-.3 0-.5 0-.8.2-.2 0-.5.2-.6.4-.2.2-.3.4-.4.6-.1.2-.2.5-.2.8"/><path class="cls-20" d="M160.5 112.8c0-.6-.5-1.1-1.1-1.1s-1.1.5-1.1 1.1.5 1.1 1.1 1.1 1.1-.5 1.1-1.1"/><path class="cls-16" d="M160.5 112.8c0-.6-.5-1.1-1.1-1.1s-1.1.5-1.1 1.1.5 1.1 1.1 1.1 1.1-.5 1.1-1.1"/><path class="cls-19" d="M185.4 107.9h15.8v14.6h-15.8z"/><path class="cls-16" d="M185.4 107.9h15.8v14.6h-15.8z"/><path class="cls-20" d="M200.3 117.7c0-1.6-1.3-2.9-2.9-2.9s-2.9 1.3-2.9 2.9 1.3 2.9 2.9 2.9 2.9-1.3 2.9-2.9"/><path class="cls-16" d="M200.3 117.7c0-1.6-1.3-2.9-2.9-2.9s-2.9 1.3-2.9 2.9 1.3 2.9 2.9 2.9 2.9-1.3 2.9-2.9"/><path class="cls-20" d="M200.5 111c0-1.2-1-2.2-2.2-2.2s-2.2 1-2.2 2.2 1 2.2 2.2 2.2 2.2-1 2.2-2.2"/><path class="cls-16" d="M200.5 111c0-1.2-1-2.2-2.2-2.2s-2.2 1-2.2 2.2 1 2.2 2.2 2.2 2.2-1 2.2-2.2"/><path class="cls-20" d="M192.1 117.9c0-1.3-1-2.3-2.3-2.3s-2.3 1-2.3 2.3 1 2.3 2.3 2.3 2.3-1 2.3-2.3"/><path class="cls-16" d="M192.1 117.9c0-1.3-1-2.3-2.3-2.3s-2.3 1-2.3 2.3 1 2.3 2.3 2.3 2.3-1 2.3-2.3"/><path class="cls-20" d="M192.9 111.4c0-1.5-1.2-2.8-2.8-2.8s-2.8 1.2-2.8 2.8 1.2 2.8 2.8 2.8 2.8-1.2 2.8-2.8"/><path class="cls-16" d="M192.9 111.4c0-1.5-1.2-2.8-2.8-2.8s-2.8 1.2-2.8 2.8 1.2 2.8 2.8 2.8 2.8-1.2 2.8-2.8"/><path class="cls-1" d="M150.4 116.5h69.1"/><path class="cls-16" d="M219 116.5h.5M220.5 106h-71.1"/><path class="cls-6" d="M220.5 106.7h-71.1"/><path class="cls-16" d="M220.5 104.8h-71.1M220.5 106h-71.1"/><path class="cls-6" d="M149.4 106v.7"/><path class="cls-16" d="M149.4 104.8v1.2M220.5 106.7h-71.1M220.5 104.8h-71.1"/><path class="cls-6" d="M220.5 106v.7"/><path class="cls-16" d="M220.5 104.8v1.2"/><path class="cls-20" d="M149.4 97.3h-4.3v18.8h4.3V97.3"/><path class="cls-15" d="M145.3 98.3l1-1M145.3 102.6l4.4-4.3M145.3 106.7l4.4-4.3M145.3 111l4.4-4.3M145.3 115.3l4.4-4.3M148.7 116.1l1-.8"/><path class="cls-20" d="M149.4 97.3h-4.3v18.8h4.3V97.3"/><path class="cls-15" d="M145.3 98.3l1-1M145.3 102.6l4.4-4.3M145.3 106.7l4.4-4.3M145.3 111l4.4-4.3M145.3 115.3l4.4-4.3M148.7 116.1l1-.8"/><path class="cls-17" d="M149.4 116.1V97.3M145.1 116.1V97.3M145.1 116.1V97.3M149.4 116.1V97.3M149.4 116.1h-4.3"/><path class="cls-20" d="M224.8 97.3h-4.3v18.8h4.3V97.3"/><path class="cls-15" d="M220.7 99.5l1.9-2.2M220.7 103.6l4.3-4.3M220.7 107.9l4.3-4.3M220.7 112.2l4.3-4.3M220.9 116.1l4.1-3.9"/><path class="cls-20" d="M224.8 97.3h-4.3v18.8h4.3V97.3"/><path class="cls-15" d="M220.7 99.5l1.9-2.2M220.7 103.6l4.3-4.3M220.7 107.9l4.3-4.3M220.7 112.2l4.3-4.3M220.9 116.1l4.1-3.9"/><path class="cls-17" d="M224.8 116.1V97.3M220.5 116.1V97.3M220.5 116.1V97.3M224.8 116.1V97.3M224.8 116.1h-4.3"/><path class="cls-20" d="M149.4 242.5h-4.3V171h4.3v71.5"/><path class="cls-15" d="M145.3 174.9l3.6-3.9M145.3 178.9l4.4-4.3M145.3 183.3l4.4-4.4M145.3 187.6l4.4-4.3M145.3 191.9l4.4-4.3M145.3 196l4.4-4.3M145.3 200.3l4.4-4.3M145.3 204.6l4.4-4.3M145.3 208.7l4.4-4.3M145.3 213l4.4-4.3M145.3 217.3l4.4-4.3M145.3 221.7l4.4-4.4M145.3 225.7l4.4-4.3M145.3 230.1l4.4-4.4M145.3 234.4l4.4-4.3M145.3 238.5l4.4-4.4M145.6 242.5l4.1-4"/><path class="cls-20" d="M145.1 242.5h4.3V171h-4.3v71.5"/><path class="cls-15" d="M145.3 174.9l3.6-3.9M145.3 178.9l4.4-4.3M145.3 183.3l4.4-4.4M145.3 187.6l4.4-4.3M145.3 191.9l4.4-4.3M145.3 196l4.4-4.3M145.3 200.3l4.4-4.3M145.3 204.6l4.4-4.3M145.3 208.7l4.4-4.3M145.3 213l4.4-4.3M145.3 217.3l4.4-4.3M145.3 221.7l4.4-4.4M145.3 225.7l4.4-4.3M145.3 230.1l4.4-4.4M145.3 234.4l4.4-4.3M145.3 238.5l4.4-4.4M145.6 242.5l4.1-4"/><path class="cls-17" d="M149.4 182.3V171M149.4 242.5v-56.8M145.1 242.5V171M149.4 171h-4.3M145.1 242.5V171M149.4 182.3V171M149.4 242.5v-56.8M149.4 242.5h-4.3"/><path class="cls-20" d="M224.8 190h-4.3v-19h4.3v19"/><path class="cls-15" d="M220.7 171.7l.5-.7M220.7 176.1l4.3-4.4M220.7 180.1l4.3-4.3M220.7 184.5l4.3-4.4M220.7 188.8l4.3-4.3M223.6 190l1.4-1.5"/><path class="cls-20" d="M220.5 190h4.3v-19h-4.3v19"/><path class="cls-15" d="M220.7 171.7l.5-.7M220.7 176.1l4.3-4.4M220.7 180.1l4.3-4.3M220.7 184.5l4.3-4.4M220.7 188.8l4.3-4.3M223.6 190l1.4-1.5"/><path class="cls-17" d="M224.8 190v-19M220.5 180.9V171M220.5 190v-4.3M224.8 171h-4.3M220.5 180.9V171M224.8 190v-19M220.5 190v-4.3"/><path class="cls-20" d="M224.8 254.3h-4.3v-39.1h4.3v39.1"/><path class="cls-15" d="M220.7 218.5l3.1-3.3M220.7 222.6l4.3-4.3M220.7 226.9l4.3-4.3M220.7 231.3l4.3-4.4M220.7 235.3l4.3-4.3M220.7 239.7l4.3-4.4M220.7 244l4.3-4.3M220.7 248.3l4.3-4.3M220.7 252.4l4.3-4.3M222.9 254.3l2.1-1.9"/><path class="cls-20" d="M220.5 254.3h4.3v-39.1h-4.3v39.1"/><path class="cls-15" d="M220.7 218.5l3.1-3.3M220.7 222.6l4.3-4.3M220.7 226.9l4.3-4.3M220.7 231.3l4.3-4.4M220.7 235.3l4.3-4.3M220.7 239.7l4.3-4.4M220.7 244l4.3-4.3M220.7 248.3l4.3-4.3M220.7 252.4l4.3-4.3M222.9 254.3l2.1-1.9"/><path class="cls-17" d="M224.8 254.3v-39.1M220.5 254.3v-39.1M220.5 254.3v-39.1M224.8 254.3v-39.1M224.8 254.3h-4.3"/><path class="cls-1" d="M224.8 215.2V190M220.5 215.2V190"/><path class="cls-16" d="M224.8 214h-4.3M224.8 191.2h-4.3"/><path class="cls-17" d="M224.8 215.2h-4.3M224.8 190h-4.3"/><path class="cls-15" d="M197.8 191.3c0 12.4 10.2 22.7 22.7 22.7M220.5 191.2h-22.6"/><path class="cls-20" d="M166.2 185.7h54.3v-4.8h-54.3v4.8"/><path class="cls-15" d="M166.5 183.5l2.4-2.6M168.4 185.7l4.8-4.8M172.7 185.7l4.8-4.8M176.8 185.7l4.8-4.8M181.1 185.7l4.8-4.8M185.4 185.7l4.8-4.8M189.5 185.7l4.8-4.8M193.8 185.7l4.8-4.8M198.1 185.7l4.8-4.8M202.5 185.7l4.8-4.8M206.5 185.7l4.8-4.8M210.9 185.7l4.8-4.8M215.2 185.7l4.8-4.8M219.3 185.7l1.4-1.2"/><path class="cls-20" d="M166.2 185.7h54.3v-4.8h-54.3v4.8"/><path class="cls-15" d="M166.5 183.5l2.4-2.6M168.4 185.7l4.8-4.8M172.7 185.7l4.8-4.8M176.8 185.7l4.8-4.8M181.1 185.7l4.8-4.8M185.4 185.7l4.8-4.8M189.5 185.7l4.8-4.8M193.8 185.7l4.8-4.8M198.1 185.7l4.8-4.8M202.5 185.7l4.8-4.8M206.5 185.7l4.8-4.8M210.9 185.7l4.8-4.8M215.2 185.7l4.8-4.8M219.3 185.7l1.4-1.2"/><path class="cls-17" d="M220.5 180.9h-54.3M220.5 185.7h-54.3M220.5 185.7h-54.3M220.5 180.9h-54.3M166.2 182.3v-1.4"/><path class="cls-20" d="M264.6 175.3l-4.1-4.3v83.3h4.1v-79"/><path class="cls-15" d="M260.8 174.1l1.4-1.4M260.8 178.5l3.3-3.6M260.8 182.5l4.1-4M260.8 186.9l4.1-4.1M260.8 191.2l4.1-4.1M260.8 195.3l4.1-4.1M260.8 199.6l4.1-4.1M260.8 203.9l4.1-4.1M260.8 208.2l4.1-4.1M260.8 212.3l4.1-4.1M260.8 216.6l4.1-4.1M260.8 220.9l4.1-4M260.8 225l4.1-4.1M260.8 229.3l4.1-4M260.8 233.7l4.1-4.1M260.8 238l4.1-4.1M260.8 242.1l4.1-4.1M260.8 246.4l4.1-4.1M260.8 250.7l4.1-4.1M261.3 254.3l3.6-3.6"/><path class="cls-20" d="M264.6 175.3l-4.1-4.3v83.3h4.1v-79"/><path class="cls-15" d="M260.8 174.1l1.4-1.4M260.8 178.5l3.3-3.6M260.8 182.5l4.1-4M260.8 186.9l4.1-4.1M260.8 191.2l4.1-4.1M260.8 195.3l4.1-4.1M260.8 199.6l4.1-4.1M260.8 203.9l4.1-4.1M260.8 208.2l4.1-4.1M260.8 212.3l4.1-4.1M260.8 216.6l4.1-4.1M260.8 220.9l4.1-4M260.8 225l4.1-4.1M260.8 229.3l4.1-4M260.8 233.7l4.1-4.1M260.8 238l4.1-4.1M260.8 242.1l4.1-4.1M260.8 246.4l4.1-4.1M260.8 250.7l4.1-4.1M261.3 254.3l3.6-3.6"/><path class="cls-17" d="M264.6 254.3v-79M260.5 254.3V171M260.5 254.3V171M264.6 254.3v-79M264.6 254.3h-4.1M368.5 175.3V171"/><path class="cls-20" d="M342.6 171h-82.1l4.1 4.3h78V171"/><path class="cls-15" d="M262.2 172.7l1.5-1.7M264.1 174.9l3.9-3.9M268 175.3l4.3-4.3M272.3 175.3l4.3-4.3M276.4 175.3l4.3-4.3M280.7 175.3l4.3-4.3M285 175.3l4.3-4.3M289.1 175.3l4.3-4.3M293.4 175.3l4.3-4.3M297.7 175.3l4.4-4.3M301.8 175.3l4.3-4.3M306.1 175.3l4.4-4.3M310.5 175.3l4.3-4.3M314.8 175.3l4.3-4.3M318.9 175.3l4.3-4.3M323.2 175.3l4.3-4.3M327.5 175.3l4.3-4.3M331.6 175.3l4.3-4.3M335.9 175.3l4.3-4.3M340.2 175.3l2.7-2.6"/><path class="cls-20" d="M342.6 171h-82.1l4.1 4.3h78V171"/><path class="cls-15" d="M262.2 172.7l1.5-1.7M264.1 174.9l3.9-3.9M268 175.3l4.3-4.3M272.3 175.3l4.3-4.3M276.4 175.3l4.3-4.3M280.7 175.3l4.3-4.3M285 175.3l4.3-4.3M289.1 175.3l4.3-4.3M293.4 175.3l4.3-4.3M297.7 175.3l4.4-4.3M301.8 175.3l4.3-4.3M306.1 175.3l4.4-4.3M310.5 175.3l4.3-4.3M314.8 175.3l4.3-4.3M318.9 175.3l4.3-4.3M323.2 175.3l4.3-4.3M327.5 175.3l4.3-4.3M331.6 175.3l4.3-4.3M335.9 175.3l4.3-4.3M340.2 175.3l2.7-2.6"/><path class="cls-17" d="M264.6 175.3h78M260.5 171h82.1M260.5 171h82.1M264.6 175.3h78"/><path class="cls-16" d="M344.3 175.3V171M366.9 175.3V171"/><path class="cls-17" d="M342.6 175.3V171M368.5 175.3V171"/><path class="cls-15" d="M344.2 198.1c12.4 0 22.7-10.2 22.7-22.7M344.3 175.3v22.8"/><path class="cls-17" d="M183 7.1h-4.3"/><path class="cls-20" d="M178.7 33.7V93h4.3V33.7h-4.3"/><path class="cls-15" d="M178.9 34.9l1.2-1.2M178.9 39.3l4.4-4.4M178.9 43.3l4.4-4.3M178.9 47.7l4.4-4.4M178.9 52l4.4-4.3M178.9 56.3l4.4-4.3M178.9 60.4l4.4-4.3M178.9 64.7l4.4-4.3M178.9 69l4.4-4.3M178.9 73.1l4.4-4.3M178.9 77.4l4.4-4.3M178.9 81.7l4.4-4.3M178.9 86.1l4.4-4.4M178.9 90.1l4.4-4.3M180.1 93l3.2-2.9"/><path class="cls-20" d="M178.7 33.7V93h4.3V33.7h-4.3"/><path class="cls-15" d="M178.9 34.9l1.2-1.2M178.9 39.3l4.4-4.4M178.9 43.3l4.4-4.3M178.9 47.7l4.4-4.4M178.9 52l4.4-4.3M178.9 56.3l4.4-4.3M178.9 60.4l4.4-4.3M178.9 64.7l4.4-4.3M178.9 69l4.4-4.3M178.9 73.1l4.4-4.3M178.9 77.4l4.4-4.3M178.9 81.7l4.4-4.3M178.9 86.1l4.4-4.4M178.9 90.1l4.4-4.3M180.1 93l3.2-2.9"/><path class="cls-17" d="M183 93V33.7M178.7 93V33.7M178.7 93V33.7M183 93V33.7"/><path class="cls-16" d="M183 31.8h-4.3M183 9h-4.3"/><path class="cls-17" d="M183 33.7h-4.3M183 7.1h-4.3"/><path class="cls-15" d="M182.9 31.8c12.4 0 22.7-10.2 22.7-22.7M183 9h22.6"/><path class="cls-17" d="M238.2 7.1h-4.3"/><path class="cls-20" d="M233.9 33.7V93h4.3V33.7h-4.3"/><path class="cls-15" d="M234.1 34.9l1.2-1.2M234.1 39.3l4.4-4.4M234.1 43.6l4.4-4.3M234.1 47.7l4.4-4.4M234.1 52l4.4-4.3M234.1 56.3l4.4-4.3M234.1 60.6l4.4-4.3M234.1 64.7l4.4-4.3M234.1 69l4.4-4.3M234.1 73.3l4.4-4.3M234.1 77.4l4.4-4.3M234.1 81.7l4.4-4.3M234.1 86.1l4.4-4.4M234.1 90.1l4.4-4.3M235.6 93l2.9-2.9"/><path class="cls-20" d="M233.9 33.7V93h4.3V33.7h-4.3"/><path class="cls-15" d="M234.1 34.9l1.2-1.2M234.1 39.3l4.4-4.4M234.1 43.6l4.4-4.3M234.1 47.7l4.4-4.4M234.1 52l4.4-4.3M234.1 56.3l4.4-4.3M234.1 60.6l4.4-4.3M234.1 64.7l4.4-4.3M234.1 69l4.4-4.3M234.1 73.3l4.4-4.3M234.1 77.4l4.4-4.3M234.1 81.7l4.4-4.3M234.1 86.1l4.4-4.4M234.1 90.1l4.4-4.3M235.6 93l2.9-2.9"/><path class="cls-17" d="M238.2 93V33.7M233.9 93V33.7M233.9 93V33.7M238.2 93V33.7"/><path class="cls-16" d="M238.2 31.8h-4.3M238.2 9h-4.3"/><path class="cls-17" d="M238.2 33.7h-4.3M238.2 7.1h-4.3"/><path class="cls-15" d="M211.3 9.1c0 12.4 10.2 22.7 22.7 22.7M233.9 9h-22.6"/><path class="cls-19" d="M152.8 179.2h10.1v2.6h-10.1z"/><path class="cls-16" d="M152.8 179.2h10.1v2.6h-10.1zM152.5 179.2z"/><path class="cls-13" d="M153.5 179.2v-8.7"/><path class="cls-5" d="M153.5 170.5l1.7.3 1.7.5 1.4.7 1.2.9 1.2 1.5.7 1.4.5 1.7.2 1.7"/><path class="cls-20" d="M166.2 182.3h-16.8v3.4h16.8v-3.4"/><path class="cls-15" d="M149.7 183.3l.7-1M151.3 185.7l3.4-3.4M155.7 185.7l3.3-3.4M160 185.7l3.3-3.4M164.1 185.7l2.4-2.2"/><path class="cls-20" d="M166.2 182.3h-16.8v3.4h16.8v-3.4"/><path class="cls-15" d="M149.7 183.3l.7-1M151.3 185.7l3.4-3.4M155.7 185.7l3.3-3.4M160 185.7l3.3-3.4M164.1 185.7l2.4-2.2"/><path class="cls-17" d="M149.4 185.7h16.8M149.4 182.3h16.8M149.4 182.3h16.8M149.4 185.7h16.8"/><path class="cls-20" d="M208.5 242.5l-7 8.9v2.9h7v-11.8"/><path class="cls-15" d="M208.7 246.1l-1.7-1.4M208.7 250.2l-3.6-3.3M208.7 254.3l-5.3-5.3M204.6 254.3l-2.9-2.9M206.8 254.3l1.9-1.7M202.7 254.3l6-5.8M201.7 251.4l7-6.9"/><path class="cls-20" d="M208.5 242.5l-7 8.9v2.9h7v-11.8"/><path class="cls-15" d="M208.7 246.1l-1.7-1.4M208.7 250.2l-3.6-3.3M208.7 254.3l-5.3-5.3M204.6 254.3l-2.9-2.9M206.8 254.3l1.9-1.7M202.7 254.3l6-5.8M201.7 251.4l7-6.9"/><path class="cls-17" d="M208.5 254.3v-11.8M201.5 254.3v-2.9M201.5 254.3v-2.9M208.5 254.3v-11.8"/><path class="cls-21" d="M379.8 244.2v5.3l3.6-3.6v-1.7h-3.6"/><path class="cls-20" d="M379.8 244.2v5.3l3.6-3.6v-1.7h-3.6"/><path class="cls-15" d="M380.1 245.2l1.9 2.1M382.9 244.2l.8.7"/><path class="cls-17" d="M383.4 245.9v-1.7M379.8 249.5v-5.3"/><path class="cls-16" d="M379.8 249.5v-5.3M383.4 245.9v-1.7"/><path class="cls-21" d="M383.4 245.9l-3.6 3.6 30.5-2.2-.2-3.3-26.7 1.9"/><path class="cls-20" d="M383.4 245.9l-3.6 3.6 30.5-2.2-.2-3.3-26.7 1.9"/><path class="cls-15" d="M380.1 249.3l.2.2M382 247.3l1.9 2M384.6 245.9l3.1 3.1M388.2 245.7l3.1 3.1M392.1 245.2l3.1 3.3M395.7 244.9l3.1 3.2M399.5 244.7l3.1 3.1M403.3 244.5l3.2 3.1M406.9 244.2l3.2 3.1"/><path class="cls-17" d="M410.1 244l-26.7 1.9M410.3 247.3l-30.5 2.2"/><path class="cls-16" d="M410.3 247.3l-30.5 2.2M410.1 244l-26.7 1.9"/><path class="cls-21" d="M410.5 248.1l.5 5.5-37.4 2.6 5.7-6.2 31.2-1.9"/><path class="cls-20" d="M411 253.6l-.5-5.5-31.2 1.9-5.7 6.2 37.4-2.6"/><path class="cls-15" d="M374.5 255.3l.3.9M376 253.8v2.2M377.2 252.4l.2 3.6M378.6 250.9l.3 4.8M379.8 250l.5 5.7M381.3 250l.4 5.7M382.7 249.7l.5 5.8M384.1 249.7l.5 5.8M385.6 249.5l.5 5.8M387 249.5l.5 5.8M388.5 249.5l.2 5.8M389.9 249.3l.2 5.7M391.3 249.3l.3 5.7M392.8 249.3l.2 5.5M394 249l.5 5.8M395.4 249l.5 5.5M396.9 249l.4 5.5M398.3 248.8l.5 5.7M399.7 248.8l.5 5.5M401.2 248.5l.2 5.8M402.6 248.5l.3 5.6M404.1 248.5l.2 5.6M405.5 248.3l.2 5.8M406.7 248.3l.5 5.5M408.1 248.3l.5 5.5M409.6 248.1l.5 5.5M410.5 248.1l-31.2 1.9M411 253.6l-37.4 2.6"/><path class="cls-16" d="M411 253.6l-37.4 2.6M410.5 248.1l-31.2 1.9M383.4 175.3l55-3.6V97.8l-55-3.3"/><path class="cls-16" d="M383.4 177l56.7-3.6v-77l-56.7-3.6"/><path class="cls-15" d="M373.8 216h-1.9c-.6 0-1.2.2-1.8.3-.6.1-1.2.3-1.8.5l-1.8.6c-.6.2-1.1.5-1.7.8-.5.3-1.1.6-1.6 1-.5.3-1 .7-1.5 1.1-.5.4-.9.8-1.4 1.3-.4.4-.9.9-1.3 1.4-.4.5-.8 1-1.1 1.5-.3.5-.7 1-1 1.6-.3.5-.6 1.1-.8 1.7l-.6 1.8c-.2.6-.3 1.2-.5 1.8l-.3 1.8v1.9M354.9 234.9h18.9M373.8 215.9h-1.4M370.9 215.9l-.9-.2M370 215.7l-.5-.3"/><path class="cls-10" d="M368.3 215.2l-1.7-.7"/><path class="cls-15" d="M365.4 214l-.5-.3M364.9 213.7l-.7-.4"/><path class="cls-11" d="M363.3 212.8l-1.5-1.2"/><path class="cls-15" d="M360.6 210.6l-.2-.2M360.4 210.4l-.7-1M358.7 208.5l-.7-1"/><path class="cls-18" d="M358 207.5l-1-1.7"/><path class="cls-15" d="M357 205.8l-.5-.9M356.1 203.4l-.5-.9M355.6 202.5v-.3M355.1 200.8l-.2-1.5M354.9 197.9v-1"/><path class="cls-5" d="M354.9 196.9h18.9"/><path class="cls-15" d="M373.3 196.9h.5M373.7 53.8h-1.9c-.6 0-1.2-.2-1.8-.3-.6-.1-1.2-.3-1.8-.5l-1.8-.6c-.6-.2-1.1-.5-1.7-.8-.5-.3-1.1-.6-1.6-1-.5-.3-1-.7-1.5-1.1-.5-.4-.9-.8-1.4-1.3-.4-.4-.9-.9-1.3-1.4-.4-.5-.8-1-1.1-1.5-.3-.5-.7-1-1-1.6-.3-.5-.6-1.1-.8-1.7l-.6-1.8c-.2-.6-.3-1.2-.5-1.8l-.3-1.8v-1.9M354.6 34.7h19M373.6 53.9h-1.5M370.7 54.1h-.7M370 54.1l-.7.3"/><path class="cls-10" d="M368.1 54.6l-1.7.7"/><path class="cls-15" d="M365.2 55.8l-.5.3M364.7 56.1l-.7.4M362.8 57.3l-1.2.7"/><path class="cls-12" d="M361.6 58l-1.2 1.4"/><path class="cls-15" d="M360.4 59.4l-1 .7M358.5 61.3l-.5 1M358 62.3l-.3.2"/><path class="cls-8" d="M357 63.7l-.9 1.7"/><path class="cls-15" d="M355.8 66.4l-.2.9M355.6 67.3l-.3.5"/><path class="cls-10" d="M355.1 69l-.2 1.9"/><path class="cls-15" d="M354.6 72.1v.8"/><path class="cls-5" d="M354.6 72.9h19"/><path class="cls-15" d="M373.1 72.9h.5M52.8 158.1c11 0 20.1-9.1 20.1-20.1M72.9 137.9H52.7"/><path class="cls-5" d="M52.7 158.1l4.1.4 3.8 1.2 3.4 1.7 3.1 2.7 2.4 2.8 1.9 3.6 1.2 3.9.3 3.8"/><path class="cls-13" d="M72.9 178.2H52.7"/><path class="cls-15" d="M52.8 53.7h1.9c.6 0 1.2-.2 1.8-.3.6-.1 1.2-.3 1.8-.5l1.8-.6c.6-.2 1.1-.5 1.7-.8.5-.3 1.1-.6 1.6-1 .5-.3 1-.7 1.5-1.1.5-.4.9-.8 1.4-1.3.4-.4.9-.9 1.3-1.4s.8-1 1.1-1.5.7-1 1-1.6c.3-.5.6-1.1.8-1.7l.6-1.8c.2-.6.3-1.2.5-1.8l.3-1.8v-1.9M71.9 34.7h-19M52.9 53.7l1.5.2M55.8 54.1h.7M56.5 54.1l.8.3"/><path class="cls-9" d="M58.2 54.6l1.9.5"/><path class="cls-15" d="M61.3 55.8l.5.3M61.8 56.1l.7.4M63.7 57.3l1.2.7"/><path class="cls-12" d="M64.9 58l1.2 1.4"/><path class="cls-15" d="M66.1 59.4l1 .7M68.1 61.3l.4 1M68.5 62.3l.3.2"/><path class="cls-8" d="M69.5 63.7l1 1.7"/><path class="cls-15" d="M70.7 66.4l.2.9M70.9 67.3l.3.5"/><path class="cls-10" d="M71.4 69l.3 1.9"/><path class="cls-15" d="M71.9 72.1v.5"/><path class="cls-5" d="M71.9 72.6h-19"/><path class="cls-15" d="M53.4 72.6h-.5M373.8 144.8c-11 0-20.1 9.1-20.1 20.1M353.7 164.8h20.1"/><path class="cls-5" d="M373.8 144.9l-3.8-.5-3.9-1.2-3.6-1.7-2.8-2.6-2.7-3.2-1.9-3.3-1-3.9-.4-3.8"/><path class="cls-13" d="M353.7 124.7h20.1"/><path class="cls-15" d="M31.2 315.3c0-5.8-2.3-11.4-6.4-15.5-4.1-4.1-9.7-6.4-15.5-6.4M31.1 315.3H9.3"/><path class="cls-5" d="M31.1 271.3l-.2 4.4-1.5 4-1.9 3.9-2.6 3.3-3.4 2.7-3.8 2.1-4.1 1.2-4.3.5M31.1 271.3H9.3"/><path class="cls-15" d="M9.7 271.3h-.4M46 261l-3.1-16.8M26.2 247.3c1.7 9.2 10.6 15.4 19.8 13.7M46 325.8l-3.1 16.6M45.9 325.7c-9.2-1.7-18.1 4.5-19.8 13.7"/><path class="cls-16" d="M251.2 212.3l-.3 1M250.9 213.3v.7M250.9 214l-.2.7M250.7 214.7v.5M250 216.4v.2M249 217.8l-.5.5M248.5 218.3l-.4.5M248.1 218.8l-.8.5M247.3 219.3l-.4.2M245.7 220.2h-.3M244 220.7h-.5M243.5 220.7h-1M242.5 220.7h-.7M241.8 220.7h-.7M239.9 220.5l-.2-.3M238.2 219.7l-.5-.4M237.7 219.3l-.4-.5M237.3 218.8l-.8-.5M236.5 218.3l-.4-.5M235.3 216.6l-.2-.2M234.6 215.2l-.2-.5M234.4 214.7l-.3-.7M234.1 214v-.7M234.1 213.3v-1M234.1 210.9v-.3M234.6 209.4v-.5M234.6 208.9l.5-.7M235.1 208.2l.5-.7M235.6 207.5l.5-.5M236.1 207v-.2M237 205.8h.3M237.3 205.8v-.2M238.5 204.9l.9-.5M239.4 204.4l.7-.3M240.1 204.1l.8-.2M240.9 203.9h.2M242.5 203.9h.3M244.2 203.9l.7.2M244.9 204.1l1 .3M245.9 204.4l.7.5M246.6 204.9h.3M248.1 205.8h.2M249.3 207l.4.5M249.7 207.5l.3.7M250 208.2l.5.7M250.5 208.9v.5M250.9 210.9v.2"/><path class="cls-20" d="M201.5 254.3l6 7.2h17.3v-7.2h-23.3"/><path class="cls-15" d="M225 254.5l-.5-.2M225 258.6l-4.3-4.3M223.8 261.5l-7.2-7.2M219.7 261.5l-7.2-7.2M215.9 261.5l-7.2-7.2M211.8 261.5l-7.2-7.2M207.7 261.5l-.9-1M223.6 261.5l1.4-1.2M219.7 261.5l5.3-5.3M215.7 261.5l7.2-7.2M211.6 261.5l7.2-7.2M207.5 261.5l7.2-7.2M205.8 259.3l5.1-5M203.9 257.2l2.9-2.9M202.2 255l.5-.7"/><path class="cls-20" d="M201.5 254.3l6 7.2h17.3v-7.2h-23.3"/><path class="cls-15" d="M225 254.5l-.5-.2M225 258.6l-4.3-4.3M223.8 261.5l-7.2-7.2M219.7 261.5l-7.2-7.2M215.9 261.5l-7.2-7.2M211.8 261.5l-7.2-7.2M207.7 261.5l-.9-1M223.6 261.5l1.4-1.2M219.7 261.5l5.3-5.3M215.7 261.5l7.2-7.2M211.6 261.5l7.2-7.2M207.5 261.5l7.2-7.2M205.8 259.3l5.1-5M203.9 257.2l2.9-2.9M202.2 255l.5-.7"/><path class="cls-17" d="M224.8 254.3h-16.3M224.8 261.5h-17.3M224.8 261.5h-17.3M224.8 254.3h-16.3"/><path class="cls-20" d="M373.6 254.3v7.2H260.5v-7.2h113.1"/><path class="cls-15" d="M373.8 255l-.9-.7M373.8 259.1l-4.8-4.8M372.1 261.5l-7.2-7.2M368.1 261.5l-7.2-7.2M364.2 261.5l-7.2-7.2M360.1 261.5l-7.2-7.2M356.1 261.5l-7.2-7.2M352.2 261.5l-7.2-7.2M348.1 261.5l-7.2-7.2M344.1 261.5l-7.2-7.2M340 261.5l-7.2-7.2M336.1 261.5l-7.2-7.2M332.1 261.5l-7.2-7.2M328 261.5l-7.2-7.2M324.1 261.5l-7.2-7.2M320.1 261.5l-7.2-7.2M316 261.5l-7.2-7.2M312.1 261.5l-7.2-7.2M308.1 261.5l-7.2-7.2M304 261.5l-7.2-7.2M299.9 261.5l-7.2-7.2M296.1 261.5l-7.2-7.2M292 261.5l-7.2-7.2M287.9 261.5l-7.2-7.2M284.1 261.5l-7.2-7.2M280 261.5l-7.2-7.2M275.9 261.5l-7.2-7.2M271.8 261.5l-7.2-7.2M268 261.5l-7.2-7.2M263.9 261.5l-3.1-3.4M371.9 261.5l1.9-1.7M368.1 261.5l5.7-5.8M364 261.5l7.2-7.2M359.9 261.5l7.2-7.2M355.8 261.5l7.2-7.2M352 261.5l7.2-7.2M347.9 261.5l7.2-7.2M343.8 261.5l7.2-7.2M340 261.5l7.2-7.2M335.9 261.5l7.2-7.2M331.8 261.5l7.2-7.2M328 261.5l7.2-7.2M323.9 261.5l7.2-7.2M319.8 261.5l7.2-7.2M315.7 261.5l7.2-7.2M311.9 261.5l7.2-7.2M307.8 261.5l7.2-7.2M303.7 261.5l7.2-7.2M299.9 261.5l7.2-7.2M295.8 261.5l7.2-7.2M291.7 261.5l7.2-7.2M287.9 261.5l7.2-7.2M283.8 261.5l7.2-7.2M279.7 261.5l7.2-7.2M275.7 261.5l7.2-7.2M271.8 261.5l7.2-7.2M267.7 261.5l7.2-7.2M263.7 261.5l7.2-7.2M260.8 260.5l6.2-6.2M260.8 256.5l2.1-2.2"/><path class="cls-20" d="M373.6 261.5v-7.2H260.5v7.2h113.1"/><path class="cls-15" d="M373.8 255l-.9-.7M373.8 259.1l-4.8-4.8M372.1 261.5l-7.2-7.2M368.1 261.5l-7.2-7.2M364.2 261.5l-7.2-7.2M360.1 261.5l-7.2-7.2M356.1 261.5l-7.2-7.2M352.2 261.5l-7.2-7.2M348.1 261.5l-7.2-7.2M344.1 261.5l-7.2-7.2M340 261.5l-7.2-7.2M336.1 261.5l-7.2-7.2M332.1 261.5l-7.2-7.2M328 261.5l-7.2-7.2M324.1 261.5l-7.2-7.2M320.1 261.5l-7.2-7.2M316 261.5l-7.2-7.2M312.1 261.5l-7.2-7.2M308.1 261.5l-7.2-7.2M304 261.5l-7.2-7.2M299.9 261.5l-7.2-7.2M296.1 261.5l-7.2-7.2M292 261.5l-7.2-7.2M287.9 261.5l-7.2-7.2M284.1 261.5l-7.2-7.2M280 261.5l-7.2-7.2M275.9 261.5l-7.2-7.2M271.8 261.5l-7.2-7.2M268 261.5l-7.2-7.2M263.9 261.5l-3.1-3.4M371.9 261.5l1.9-1.7M368.1 261.5l5.7-5.8M364 261.5l7.2-7.2M359.9 261.5l7.2-7.2M355.8 261.5l7.2-7.2M352 261.5l7.2-7.2M347.9 261.5l7.2-7.2M343.8 261.5l7.2-7.2M340 261.5l7.2-7.2M335.9 261.5l7.2-7.2M331.8 261.5l7.2-7.2M328 261.5l7.2-7.2M323.9 261.5l7.2-7.2M319.8 261.5l7.2-7.2M315.7 261.5l7.2-7.2M311.9 261.5l7.2-7.2M307.8 261.5l7.2-7.2M303.7 261.5l7.2-7.2M299.9 261.5l7.2-7.2M295.8 261.5l7.2-7.2M291.7 261.5l7.2-7.2M287.9 261.5l7.2-7.2M283.8 261.5l7.2-7.2M279.7 261.5l7.2-7.2M275.7 261.5l7.2-7.2M271.8 261.5l7.2-7.2M267.7 261.5l7.2-7.2M263.7 261.5l7.2-7.2M260.8 260.5l6.2-6.2M260.8 256.5l2.1-2.2"/><path class="cls-17" d="M373.6 254.3H260.5M373.6 261.5H260.5M373.6 261.5H260.5M373.6 254.3H260.5"/><path class="cls-16" d="M254.5 253.8h6v1.7h-6zM224.8 253.8h2.4v1.7h-2.4z"/><path class="cls-16" d="M227.2 253.8h27.4v1.7h-27.4zM254.5 255.5h-27.3"/><path class="cls-1" d="M254.8 261.5h-27.9"/><path class="cls-16" d="M227.4 261.5h-.5"/><path class="cls-20" d="M260.5 261.5h-5.7v-6h5.7"/><path class="cls-15" d="M260.8 258.1l-2.9-2.6M259.8 261.5l-4.8-5M256 261.5l-1-1M259.8 261.5l1-1M255.7 261.5l5.1-5M255 258.4l2.7-2.9"/><path class="cls-20" d="M224.8 261.5h2.1v-6h-2.1"/><path class="cls-15" d="M227.2 256.7l-1.5-1.2M227.2 260.8l-2.2-2.2M225 260.3l2.2-2.2M225 256.2l.7-.7"/><path class="cls-17" d="M254.8 261.5v-6M226.9 261.5v-6M254.8 261.5v-6M260.5 261.5h-5.7M226.9 261.5v-6M224.8 261.5h2.1M260.5 254.3v1.2M224.8 254.3v1.2M260.5 261.5h-5.7M224.8 261.5h2.1M254.8 255.5h5.7M226.9 255.5h-2.1"/><path class="cls-15" d="M254.5 253.8c0-14.9-12.3-27.2-27.2-27.2M227.2 253.8v-27.3"/><path class="cls-20" d="M373.6 261.5h29.5l5.5 76.6h-5.7l.4 6.7h2.4l.3.9 11-.7-6.9-91.4-36.5 2.4v-1.7"/><path class="cls-15" d="M410.3 255.5l-1.9-1.9M410.8 259.8l-6-5.7M411 264.1l-10.1-9.8M411.3 268.7l-14.2-14.2M411.7 273l-8.4-8.4M400.2 261.5l-6.7-6.7M412 277.3l-8.2-8.4M396.1 261.5l-6.4-6.5M412.2 281.7l-8.1-8.4M392.3 261.5l-6.5-6.2M412.7 286l-8.4-8.4M388.2 261.5l-6-6M412.9 290.3l-8.1-8.4M384.1 261.5l-5.7-5.8M413.4 294.6l-8.4-8.4M380.1 261.5l-5.6-5.5M413.7 298.9l-8.4-8.4M376.2 261.5l-2.4-2.4M413.9 303.3l-8.2-8.4M414.4 307.6l-8.4-8.4M414.6 311.9l-8.4-8.4M414.9 316.2l-8.4-8.4M415.3 320.8l-8.4-8.4M415.6 325.1l-8.4-8.4M416.1 329.4l-8.7-8.4M416.3 333.7l-8.4-8.4M416.5 338.1l-8.4-8.4M417 342.4l-8.6-8.4M415.6 345l-7-6.9M412 345.3l-7.5-7.2M408.1 345.5l-5-4.8M416.8 345l.2-.5M412.5 345.3l4.3-4.4M408.1 345.5l8.4-8.4M405 344.8l11.3-11.3M403.3 342.4l4.4-4.3M408.6 337.1l7.5-7.4M403.1 338.8l.5-.7M408.4 333.3l7.2-7.2M408.1 329.7l7.2-7.5M407.9 325.8l7.2-7.2M407.7 322l7.2-7.2M407.4 318.4l7.2-7.2M406.9 314.5l7.5-7.2M406.7 310.9l7.2-7.2M406.5 307.1l7.2-7.2M406.2 303.5l7.2-7.2M406 299.7l7.2-7.2M405.7 295.8l7.2-6.9M405.5 292.2l7-7.2M405.3 288.4l6.9-7M404.8 284.8l7.2-7.2M404.5 280.9l7.2-6.9M404.3 277.3l7.2-7.2M404.1 273.5l7.2-7.2M403.8 269.7l7-7M403.6 266.1l6.9-7.2M403.3 262.2l7-6.9M400 261.5l7.9-7.7M396.1 261.5l7.5-7.4M392.1 261.5l7.2-7.2M388 261.5l6.9-7M383.9 261.5l6.7-6.7M380.1 261.5l6.2-6.2M376 261.5l6-6M373.8 259.8l3.9-4.1M373.8 255.7"/><path class="cls-17" d="M373.6 261.5h29.5l5.5 76.6h-5.7l.4 6.7h2.4l.3.9 11-.7-6.9-91.4-36.5 2.4v-1.7"/><path class="cls-20" d="M58 242.3v4.3L45.3 249l-1-5 8.4-1.7H58"/><path class="cls-15" d="M58.2 244l-1.9-1.7M56.8 246.9l-4.3-4.6M53.4 247.6l-4.3-4.6M50.1 248.1l-4.4-4.4M46.7 248.8l-1.7-1.7M53.2 247.6l5-5.1M48.1 248.5l6.3-6.2M45 247.6l4.8-4.8M44.5 244.2l.3-.2"/><path class="cls-17" d="M58 242.3v4.3L45.3 249l-1-5 8.4-1.7H58z"/><path class="cls-20" d="M58 242.3v4.3L45.3 249l-1-5 8.4-1.7H58"/><path class="cls-15" d="M58.2 244l-1.9-1.7M56.8 246.9l-4.3-4.6M53.4 247.6l-4.3-4.6M50.1 248.1l-4.4-4.4M46.7 248.8l-1.7-1.7M53.2 247.6l5-5.1M48.1 248.5l6.3-6.2M45 247.6l4.8-4.8M44.5 244.2l.3-.2"/><path class="cls-17" d="M58 242.3v4.3L45.3 249l-1-5 8.4-1.7H58z"/><path class="cls-20" d="M201.5 261h5.8l-5.8-6.7v6.7"/><path class="cls-15" d="M207.3 261l-5.6-5.7M203.4 261l-1.7-1.7M204.1 261l1.7-1.7M201.7 259.6l2.2-2.4M201.7 255.5l.5-.5"/><path class="cls-20" d="M201.5 261h5.8l-5.8-6.7v6.7"/><path class="cls-15" d="M207.3 261l-5.6-5.7M203.4 261l-1.7-1.7M204.1 261l1.7-1.7M201.7 259.6l2.2-2.4M201.7 255.5l.5-.5"/><path class="cls-17" d="M201.5 254.3v6.7M201.5 254.3v6.7"/><path class="cls-16" d="M202.9 264.1v29.6"/><path class="cls-1" d="M207.5 264.1v29.6"/><path class="cls-16" d="M207.5 293.2v.5"/><path class="cls-20" d="M207.5 261v3.1h-4.6V261"/><path class="cls-15" d="M207.7 261.3l-.4-.3M206.5 264.1l-3.1-3.1M204.9 264.1l2.8-2.6M203.2 262l.9-1"/><path class="cls-20" d="M207.5 296.8v-3.1h-4.6v3.1"/><path class="cls-15" d="M207 296.8l-3.1-3.1M204.4 296.8l3.1-3.1M203.2 294.1l.2-.4"/><path class="cls-17" d="M207.5 264.1h-4.6M207.5 293.7h-4.6M207.5 264.1h-4.6M207.5 261v3.1M207.5 293.7h-4.6M207.5 296.8v-3.1M201.5 261h1.4M201.5 296.8h1.4M207.5 261v3.1M207.5 296.8v-3.1M202.9 264.1V261M202.9 293.7v3.1"/></g><g id="Mbel"><path class="cls-3" d="M94 190.8h14.2v28.3H94zM139.1 231.5h-18.7-.2-.2-.1l-.1-.1-.1-.1v-.1-.2V205.9v-.3c0-.1.1-.2.2-.3 0 0 .2-.1.3-.2h19v26.6M142.8 236.1h-22.4-.2-.2-.1l-.1-.1-.1-.1v-.1-.2-3-.3c0-.1.1-.2.2-.3 0 0 .2-.1.3-.2h23c.1 0 .2.1.3.2 0 0 .1.2.2.3V235.7c0 .1-.1.2-.2.3 0 0-.2.1-.3.2h-.3M139.1 204.9h4c.1 0 .2-.1.3-.2 0 0 .1-.2.2-.3v-25.2-.3c0-.1-.1-.2-.2-.3 0 0-.2-.1-.3-.2h-4M136.9 178.3v53.3"/><path class="cls-3" d="M139.1 178.3h-18.7-.2-.2-.1l-.1.1-.1.1v25.7c0 .1.1.2.2.3 0 0 .2.1.3.2h19v-26.6M142.8 173.7h-22.4-.2-.2-.1l-.1.1-.1.1V177.5c0 .1.1.2.2.3 0 0 .2.1.3.2s.2 0 .3 0h22.7c.1 0 .2-.1.3-.2 0 0 .1-.2.2-.3V174.4v-.3c0-.1-.1-.2-.2-.3s-.2-.1-.3-.2h-.3M139.1 204.9h4c.1 0 .2.1.3.2 0 0 .1.2.2.3v25.5c0 .1-.1.2-.2.3 0 0-.2.1-.3.2h-4M97.4 178.3c-1.3-3.8-2.9-7.4-4.8-11-.4-.8-1.4-1.3-2.3-1.3-3.2.3-6.3 1.4-8.9 3.4-.8.6-1.1 1.5-.9 2.5.9 3.9 2.2 7.7 3.7 11.4h.1c.7 0 1.4-.2 2-.4 3.1-1 6.2-2.2 9.2-3.5.6-.3 1.2-.6 1.8-1"/><path class="cls-3" d="M97.4 177.1c.2-.3.3-.6.3-1 .2-1.5 0-3.1-.6-4.5-.8-1.9-1.7-3.7-2.9-5.4-.8-1.2-1.8-2.4-2.8-3.3-.6-.6-1.5-.8-2.3-.7-3.4.5-6.6 1.7-9.4 3.6-.7.5-1.2 1.2-1.3 2.1-.2 1.5-.1 2.9 0 4.4.3 2 .8 4 1.5 6 .5 1.4 1.4 2.7 2.5 3.8.3.2.6.4.9.5M275.4 119.7h51.1v22.6h-51.1zM276.9 152.3h12.7M276.9 143.8v8.5M289.6 152.3v-8.5M294.6 152.3h12.7M294.6 143.8v8.5M307.3 152.3v-8.5M312.3 152.3h12.8M312.3 143.8v8.5M325.1 152.3v-8.5M276.9 109.8h12.7M276.9 118.3v-8.5M289.6 109.8v8.5M294.6 109.8h12.7M294.6 118.3v-8.5M307.3 109.8v8.5M312.3 109.8h12.8M312.3 118.3v-8.5M325.1 109.8v8.5M266.1 195.8h15.6v56.6h-15.6zM239.7 34.5h15.6v56.6h-15.6zM278.1 34.5h45.4v56.6h-45.4zM148.7 34.5H177v56.6h-28.3zM91.8 28.3h11.5V36H91.8zM75 8.4h45.4v19.9H75zM85.3 75.6h56.6v15.6H85.3zM59.4 206.6H70v28.3H59.4zM322.7 225.1h11.5v7.7h-11.5zM305.9 232.8h45.4v19.7h-45.4z"/><path class="cls-2" d="M122.3 248.3h15.6v56.6h-15.6zM81.3 310.2h56.6v28.3H81.3zM35.9 273.5h7.7v11.3h-7.7zM16 256.5h19.9v45.4H16z"/></g><g id="Text"><path d="M232.5 182.1h2.1v.6h-2.1v1.8h2.1v.6h-2.8v-5.3h2.8v.6h-2.1v1.8zM236.4 181.4v.5c.3-.4.6-.6 1.1-.6s.6.1.9.3c.2.2.3.5.3 1v2.5h-.6v-2.4c0-.3 0-.5-.1-.6-.1-.2-.3-.2-.6-.2s-.5.1-.7.3c-.2.2-.2.4-.2.7v2.2h-.6v-3.7h.6zM240.7 184.4c0 .2 0 .2.3.2h.3v.5h-.6c-.4 0-.6-.2-.6-.6v-2.6h-.5v-.5h.5v-1.2h.6v1.2h.6v.5h-.6v2.4zM242.9 181.4v.6c.1-.3.2-.4.3-.5.2-.1.4-.2.7-.2h.1v.6h-.2c-.3 0-.6.2-.8.4-.2.2-.2.4-.2.9v1.9h-.6v-3.7h.6zM245.3 183.5c0 .3 0 .5.2.7.2.3.6.5 1 .5s.9-.2 1.1-.6l.5.2c-.3.6-.9 1-1.6 1-1.1 0-1.9-.8-1.9-1.9s.8-1.9 1.9-1.9 1.9.8 1.9 1.9v.2h-3.1zm2.4-.4c0-.3 0-.4-.2-.6-.2-.3-.6-.5-1-.5s-.8.2-1 .5c-.1.2-.2.3-.2.6h2.4zm-.2-3.2l-.9 1.1h-.4l.7-1.1h.7zM249.9 183.5c0 .3 0 .5.2.7.2.3.6.5 1 .5s.9-.2 1.1-.6l.5.2c-.3.6-.9 1-1.6 1-1.1 0-1.9-.8-1.9-1.9s.8-1.9 1.9-1.9 1.9.8 1.9 1.9v.2h-3.1zm2.4-.4c0-.3 0-.4-.2-.6-.2-.3-.6-.5-1-.5s-.8.2-1 .5c-.1.2-.2.3-.2.6h2.4zM231.8 189.4v-.6h3l-1.6 2c.9 0 1.6.7 1.6 1.6s-.8 1.7-1.8 1.7-1.4-.5-1.6-1.3h.6c.1.4.5.7 1 .7s1.2-.5 1.2-1.1-.5-1.1-1.2-1.1-.4 0-.6.2l-.3-.2 1.5-1.9h-1.9zM236.8 193.8c0 .2-.2.4-.4.4s-.4-.2-.4-.4.2-.4.4-.4.4.2.4.4zM239.1 191c.2 0 .3-.1.5-.1.9 0 1.6.7 1.6 1.6s-.8 1.7-1.7 1.7-1.7-.8-1.7-1.7.1-.7.4-1.2l1.5-2.5h.7l-1.4 2.1zm-.7 1.5c0 .6.5 1.1 1.1 1.1s1.1-.5 1.1-1.1-.5-1.1-1.1-1.1-1.1.5-1.1 1.1zM245.3 190.4v.5c.3-.4.6-.6 1-.6s.8.2 1 .7c.3-.5.6-.7 1.2-.7s.7.1.9.4c.2.2.2.4.2 1v2.4h-.6v-2.2c0-.4 0-.6-.1-.7-.1-.2-.4-.3-.6-.3-.5 0-.8.4-.8 1v2.2h-.6v-2.2c0-.4 0-.5-.1-.7-.1-.2-.3-.3-.6-.3-.5 0-.9.4-.9 1v2.2h-.6v-3.7h.6zM252.9 191.6v.4h-2l1.2-1.6c.3-.5.4-.6.4-.8 0-.3-.2-.4-.5-.4s-.5.2-.5.6h-.4c0-.6.4-1 1-1s1 .3 1 .8-.1.5-.4.9l-.8 1.1h1.1z"/><g><path d="M89.7 281.6v.6h-3.8l3-4.8h-2.7v-.6H90l-3 4.8h2.7zM91.6 277.4c0 .2-.2.4-.4.4s-.4-.2-.4-.4.2-.4.4-.4.4.2.4.4zm0 4.7H91v-3.7h.6v3.7zM93.4 278.5v.5c.3-.4.6-.6 1-.6s.8.2 1 .7c.3-.5.6-.7 1.2-.7s.7.1.9.4c.2.2.2.4.2 1v2.4h-.6V280c0-.4 0-.6-.1-.7-.1-.2-.4-.3-.6-.3-.5 0-.8.4-.8 1v2.2H95V280c0-.4 0-.5-.1-.7-.1-.2-.3-.3-.6-.3-.5 0-.9.4-.9 1v2.2h-.6v-3.7h.6zM99.8 278.5v.5c.3-.4.6-.6 1-.6s.8.2 1 .7c.3-.5.6-.7 1.2-.7s.7.1.9.4c.2.2.2.4.2 1v2.4h-.6V280c0-.4 0-.6-.1-.7-.1-.2-.4-.3-.6-.3-.5 0-.8.4-.8 1v2.2h-.6V280c0-.4 0-.5-.1-.7-.1-.2-.3-.3-.6-.3-.5 0-.9.4-.9 1v2.2h-.6v-3.7h.6zM105.9 280.5c0 .3 0 .5.2.7.2.3.6.5 1 .5s.9-.2 1.1-.6l.5.2c-.3.6-.9 1-1.6 1-1.1 0-1.9-.8-1.9-1.9s.8-1.9 1.9-1.9 1.9.8 1.9 1.9v.2h-3.1zm2.4-.4c0-.3 0-.4-.2-.6-.2-.3-.6-.5-1-.5s-.8.2-1 .5c-.1.2-.2.3-.2.6h2.4zM110.6 278.5v.6c.1-.3.2-.4.3-.5.2-.1.4-.2.7-.2h.1v.6h-.2c-.3 0-.6.2-.8.4-.2.2-.2.4-.2.9v1.9h-.6v-3.7h.6zM86.7 287.6v-.6l1.8-1.2v5.4h-.6v-4.4l-1.2.8zM90.2 286.5v-.6h3l-1.6 2c.9 0 1.6.7 1.6 1.6s-.8 1.7-1.8 1.7-1.4-.5-1.6-1.3h.6c.1.4.5.7 1 .7s1.2-.5 1.2-1.1-.5-1.1-1.2-1.1-.4 0-.6.2l-.3-.2 1.5-1.9h-1.9zM95.1 290.8c0 .2-.2.4-.4.4s-.4-.2-.4-.4.2-.4.4-.4.4.2.4.4zM97.9 289c-.2 0-.3.1-.5.1-.9 0-1.6-.7-1.6-1.6s.8-1.7 1.7-1.7 1.7.7 1.7 1.7-.1.7-.4 1.2l-1.5 2.5h-.7l1.3-2.1zm-1.5-1.5c0 .6.5 1.1 1.1 1.1s1.1-.5 1.1-1.1-.5-1.1-1-1.1-1.1.5-1.1 1.1zM102.4 287.5v.5c.3-.4.6-.6 1-.6s.8.2 1 .7c.3-.5.6-.7 1.2-.7s.7.1.9.4c.2.2.2.4.2 1v2.4h-.6V289c0-.4 0-.6-.1-.7-.1-.2-.4-.3-.6-.3-.5 0-.8.4-.8 1v2.2h-.6V289c0-.4 0-.5-.1-.7-.1-.2-.3-.3-.6-.3-.5 0-.9.4-.9 1v2.2h-.6v-3.7h.6zM110 288.6v.4h-2l1.2-1.6c.3-.5.4-.6.4-.8 0-.3-.2-.4-.5-.4s-.5.2-.5.6h-.4c0-.6.4-1 1-1s1 .3 1 .8-.1.5-.4.9l-.8 1.1h1.1z"/></g><g><path d="M291.4 51.2v.6h-3.8l3-4.8h-2.7v-.6h3.8l-3 4.8h2.7zM293.2 47c0 .2-.2.4-.4.4s-.4-.2-.4-.4.2-.4.4-.4.4.2.4.4zm0 4.7h-.6V48h.6v3.7zM295.1 48.1v.5c.3-.4.6-.6 1-.6s.8.2 1 .7c.3-.5.6-.7 1.2-.7s.7.1.9.4c.2.2.2.4.2 1v2.4h-.6v-2.2c0-.4 0-.6-.1-.7-.1-.2-.4-.3-.6-.3-.5 0-.8.4-.8 1v2.2h-.6v-2.2c0-.4 0-.5-.1-.7-.1-.2-.3-.3-.6-.3-.5 0-.9.4-.9 1v2.2h-.6v-3.7h.6zM301.4 48.1v.5c.3-.4.6-.6 1-.6s.8.2 1 .7c.3-.5.6-.7 1.2-.7s.7.1.9.4c.2.2.2.4.2 1v2.4h-.6v-2.2c0-.4 0-.6-.1-.7-.1-.2-.4-.3-.6-.3-.5 0-.8.4-.8 1v2.2h-.6v-2.2c0-.4 0-.5-.1-.7-.1-.2-.3-.3-.6-.3-.5 0-.9.4-.9 1v2.2h-.6v-3.7h.6zM307.5 50.1c0 .3 0 .5.2.7.2.3.6.5 1 .5s.9-.2 1.1-.6l.5.2c-.3.6-.9 1-1.6 1-1.1 0-1.9-.8-1.9-1.9s.8-1.9 1.9-1.9 1.9.8 1.9 1.9v.2h-3.1zm2.4-.4c0-.3 0-.4-.2-.6-.2-.3-.6-.5-1-.5s-.8.2-1 .5c-.1.2-.2.3-.2.6h2.4zM312.3 48.1v.6c.1-.3.2-.4.3-.5.2-.1.4-.2.7-.2h.1v.6h-.2c-.3 0-.6.2-.8.4-.2.2-.2.4-.2.9v1.9h-.6v-3.7h.6zM288.3 57.2v-.6l1.8-1.2v5.4h-.6v-4.4l-1.2.8zM291.5 59.6v-.5l2.8-3.7V59h.6v.6h-.6v1.2h-.6v-1.2h-2.1zm2.1-2.6l-1.5 2h1.5v-2zM296.7 60.4c0 .2-.2.4-.4.4s-.4-.2-.4-.4.2-.4.4-.4.4.2.4.4zM301 59.2c0 .6-.1 1-.4 1.2-.3.3-.7.4-1.2.4s-1-.2-1.2-.5c-.3-.3-.4-.6-.4-1.4v-1.8c0-.7 0-1 .3-1.3.3-.3.7-.5 1.2-.5s.9.1 1.2.4c.3.3.4.6.4 1.2V59zm-2.5-.1c0 .6 0 .7.2.9.2.2.5.3.8.3s.6-.1.8-.4c.1-.2.2-.4.2-.8v-2c0-.4 0-.6-.3-.8-.2-.2-.4-.2-.7-.2s-.6.1-.8.4c-.1.2-.2.4-.2.8v1.8zM304.4 57.1v.5c.3-.4.6-.6 1-.6s.8.2 1 .7c.3-.5.6-.7 1.2-.7s.7.1.9.4c.2.2.2.4.2 1v2.4h-.6v-2.2c0-.4 0-.6-.1-.7-.1-.2-.4-.3-.6-.3-.5 0-.8.4-.8 1v2.2h-.6v-2.2c0-.4 0-.5-.1-.7-.1-.2-.3-.3-.6-.3-.5 0-.9.4-.9 1v2.2h-.6v-3.7h.6zM312 58.3v.4h-2l1.2-1.6c.3-.5.4-.6.4-.8 0-.3-.2-.4-.5-.4s-.5.2-.5.6h-.4c0-.6.4-1 1-1s1 .3 1 .8-.1.5-.4.9l-.8 1.1h1.1z"/></g><g><path d="M103.4 51.2v.6h-3.8l3-4.8h-2.7v-.6h3.8l-3 4.8h2.7zM105.3 47c0 .2-.2.4-.4.4s-.4-.2-.4-.4.2-.4.4-.4.4.2.4.4zm0 4.7h-.6V48h.6v3.7zM107.1 48.1v.5c.3-.4.6-.6 1-.6s.8.2 1 .7c.3-.5.6-.7 1.2-.7s.7.1.9.4c.2.2.2.4.2 1v2.4h-.6v-2.2c0-.4 0-.6-.1-.7-.1-.2-.4-.3-.6-.3-.5 0-.8.4-.8 1v2.2h-.6v-2.2c0-.4 0-.5-.1-.7-.1-.2-.3-.3-.6-.3-.5 0-.9.4-.9 1v2.2h-.6v-3.7h.6zM113.5 48.1v.5c.3-.4.6-.6 1-.6s.8.2 1 .7c.3-.5.6-.7 1.2-.7s.7.1.9.4c.2.2.2.4.2 1v2.4h-.6v-2.2c0-.4 0-.6-.1-.7-.1-.2-.4-.3-.6-.3-.5 0-.8.4-.8 1v2.2h-.6v-2.2c0-.4 0-.5-.1-.7-.1-.2-.3-.3-.6-.3-.5 0-.9.4-.9 1v2.2h-.6v-3.7h.6zM119.6 50.1c0 .3 0 .5.2.7.2.3.6.5 1 .5s.9-.2 1.1-.6l.5.2c-.3.6-.9 1-1.6 1-1.1 0-1.9-.8-1.9-1.9s.8-1.9 1.9-1.9 1.9.8 1.9 1.9v.2h-3.1zm2.4-.4c0-.3 0-.4-.2-.6-.2-.3-.6-.5-1-.5s-.8.2-1 .5c-.1.2-.2.3-.2.6h2.4zM124.3 48.1v.6c.1-.3.2-.4.3-.5.2-.1.4-.2.7-.2h.1v.6h-.2c-.3 0-.6.2-.8.4-.2.2-.2.4-.2.9v1.9h-.6v-3.7h.6zM100.4 57.2v-.6l1.8-1.2v5.4h-.6v-4.4l-1.2.8zM103.6 59.6v-.5l2.8-3.7V59h.6v.6h-.6v1.2h-.6v-1.2h-2.1zm2.1-2.6l-1.5 2h1.5v-2zM108.8 60.4c0 .2-.2.4-.4.4s-.4-.2-.4-.4.2-.4.4-.4.4.2.4.4zM113.1 59.2c0 .6-.1 1-.4 1.2-.3.3-.7.4-1.2.4s-1-.2-1.2-.5c-.3-.3-.4-.6-.4-1.4v-1.8c0-.7 0-1 .3-1.3.3-.3.7-.5 1.2-.5s.9.1 1.2.4c.3.3.4.6.4 1.2V59zm-2.5-.1c0 .6 0 .7.2.9.2.2.5.3.8.3s.6-.1.8-.4c.1-.2.2-.4.2-.8v-2c0-.4 0-.6-.3-.8-.2-.2-.4-.2-.7-.2s-.6.1-.8.4c-.1.2-.2.4-.2.8v1.8zM116.4 57.1v.5c.3-.4.6-.6 1-.6s.8.2 1 .7c.3-.5.6-.7 1.2-.7s.7.1.9.4c.2.2.2.4.2 1v2.4h-.6v-2.2c0-.4 0-.6-.1-.7-.1-.2-.4-.3-.6-.3-.5 0-.8.4-.8 1v2.2h-.6v-2.2c0-.4 0-.5-.1-.7-.1-.2-.3-.3-.6-.3-.5 0-.9.4-.9 1v2.2h-.6v-3.7h.6zM124 58.3v.4h-2l1.2-1.6c.3-.5.4-.6.4-.8 0-.3-.2-.4-.5-.4s-.5.2-.5.6h-.4c0-.6.4-1 1-1s1 .3 1 .8-.1.5-.4.9l-.8 1.1h1.1z"/></g><g><path d="M303.3 204.6v.6h-3.8l3-4.8h-2.7v-.6h3.8l-3 4.8h2.7zM305.2 200.5c0 .2-.2.4-.4.4s-.4-.2-.4-.4.2-.4.4-.4.4.2.4.4zm0 4.7h-.6v-3.7h.6v3.7zM307.1 201.5v.5c.3-.4.6-.6 1-.6s.8.2 1 .7c.3-.5.6-.7 1.2-.7s.7.1.9.4c.2.2.2.4.2 1v2.4h-.6V203c0-.4 0-.6-.1-.7-.1-.2-.4-.3-.6-.3-.5 0-.8.4-.8 1v2.2h-.6V203c0-.4 0-.5-.1-.7-.1-.2-.3-.3-.6-.3-.5 0-.9.4-.9 1v2.2h-.6v-3.7h.6zM313.4 201.5v.5c.3-.4.6-.6 1-.6s.8.2 1 .7c.3-.5.6-.7 1.2-.7s.7.1.9.4c.2.2.2.4.2 1v2.4h-.6V203c0-.4 0-.6-.1-.7-.1-.2-.4-.3-.6-.3-.5 0-.8.4-.8 1v2.2h-.6V203c0-.4 0-.5-.1-.7-.1-.2-.3-.3-.6-.3-.5 0-.9.4-.9 1v2.2h-.6v-3.7h.6zM319.5 203.5c0 .3 0 .5.2.7.2.3.6.5 1 .5s.9-.2 1.1-.6l.5.2c-.3.6-.9 1-1.6 1-1.1 0-1.9-.8-1.9-1.9s.8-1.9 1.9-1.9 1.9.8 1.9 1.9v.2h-3.1zm2.4-.4c0-.3 0-.4-.2-.6-.2-.3-.6-.5-1-.5s-.8.2-1 .5c-.1.2-.2.3-.2.6h2.4zM324.2 201.5v.6c.1-.3.2-.4.3-.5.2-.1.4-.2.7-.2h.1v.6h-.2c-.3 0-.6.2-.8.4-.2.2-.2.4-.2.9v1.9h-.6v-3.7h.6zM300.3 210.6v-.6l1.8-1.2v5.4h-.6v-4.4l-1.2.8zM307 212.6c0 .6-.1 1-.4 1.2-.3.3-.7.4-1.2.4s-1-.2-1.2-.5c-.3-.3-.4-.6-.4-1.4v-1.8c0-.7 0-1 .3-1.3.3-.3.7-.5 1.2-.5s.9.1 1.2.4c.3.3.4.6.4 1.2v2.1zm-2.5-.1c0 .6 0 .7.2.9.2.2.5.3.8.3s.6-.1.8-.4c.1-.2.2-.4.2-.8v-2c0-.4 0-.6-.3-.8-.2-.2-.4-.2-.7-.2s-.6.1-.8.4c-.1.2-.2.4-.2.8v1.8zM309 213.8c0 .2-.2.4-.4.4s-.4-.2-.4-.4.2-.4.4-.4.4.2.4.4zM310.3 209.5v-.6h3l-1.6 2c.9 0 1.6.7 1.6 1.6s-.8 1.7-1.8 1.7-1.4-.5-1.6-1.3h.6c.1.4.5.7 1 .7s1.2-.5 1.2-1.1-.5-1.1-1.2-1.1-.4 0-.6.2l-.3-.2 1.5-1.9h-1.9zM316.7 210.5v.5c.3-.4.6-.6 1-.6s.8.2 1 .7c.3-.5.6-.7 1.2-.7s.7.1.9.4c.2.2.2.4.2 1v2.4h-.6V212c0-.4 0-.6-.1-.7-.1-.2-.4-.3-.6-.3-.5 0-.8.4-.8 1v2.2h-.6V212c0-.4 0-.5-.1-.7-.1-.2-.3-.3-.6-.3-.5 0-.9.4-.9 1v2.2h-.6v-3.7h.6zM324.3 211.7v.4h-2l1.2-1.6c.3-.5.4-.6.4-.8 0-.3-.2-.4-.5-.4s-.5.2-.5.6h-.4c0-.6.4-1 1-1s1 .3 1 .8-.1.5-.4.9l-.8 1.1h1.1z"/></g><g><path d="M406.7 105.8c1.1 0 1.7.5 1.7 1.4s-.1.6-.3.9c-.1.2-.3.2-.5.3.3 0 .4.1.6.2.3.2.4.6.4 1s-.2.9-.6 1.2c-.3.2-.7.3-1.3.3h-1.5v-5.3h1.5zm-.8 2.4h.7c.4 0 .7 0 .9-.2.2-.2.3-.4.3-.7s-.2-.6-.4-.8c-.2 0-.4-.1-.9-.1h-.6v1.8zm0 2.4h.7c.6 0 .8 0 1-.2.3-.1.4-.4.4-.8 0-.6-.4-.9-1.2-.9h-.8v1.8zM412.6 107.5h.6v3.7h-.6v-.7c-.4.6-.8.8-1.3.8-1 0-1.7-.8-1.7-1.9s.7-1.9 1.8-1.9 1 .2 1.3.7v-.6zm-2.1.9c-.2.3-.3.6-.3 1 0 .8.5 1.4 1.2 1.4s1.3-.6 1.3-1.4-.5-1.4-1.2-1.4-.7.1-.9.4zM414.5 111.2v-5.3h.6v5.3h-.6zM417.1 111.2h-.6v-5.3h.6v3.3l1.5-1.6h.8l-1.6 1.8 1.6 1.9h-.8l-1.5-1.6v1.6zM423.5 109.3c0 1.1-.8 1.9-1.9 1.9s-1.9-.8-1.9-1.9.8-1.9 1.9-1.9 1.9.8 1.9 1.9zm-3.1 0c0 .8.5 1.4 1.3 1.4s1.2-.6 1.2-1.4-.5-1.4-1.2-1.4-1.3.6-1.3 1.4zM425.2 107.5v.5c.3-.4.6-.6 1.1-.6s.6.1.9.3c.2.2.3.5.3 1v2.5h-.6v-2.4c0-.3 0-.5-.1-.6-.1-.2-.3-.2-.6-.2s-.5.1-.7.3c-.2.2-.2.4-.2.7v2.2h-.6v-3.7h.6zM406.1 117c.2 0 .3-.1.5-.1.9 0 1.6.7 1.6 1.6s-.8 1.7-1.7 1.7-1.7-.8-1.7-1.7.1-.7.4-1.2l1.5-2.5h.7l-1.4 2.1zm-.7 1.5c0 .6.5 1.1 1.1 1.1s1.1-.5 1.1-1.1-.5-1.1-1.1-1.1-1.1.5-1.1 1.1zM410 119.8c0 .2-.2.4-.4.4s-.4-.2-.4-.4.2-.4.4-.4.4.2.4.4zM414.4 118.6c0 .6-.1 1-.4 1.2-.3.3-.7.4-1.2.4s-1-.2-1.2-.5c-.3-.3-.4-.6-.4-1.4v-1.8c0-.7 0-1 .3-1.3.3-.3.7-.5 1.2-.5s.9.1 1.2.4c.3.3.4.6.4 1.2v2.1zm-2.5-.1c0 .6 0 .7.2.9.2.2.5.3.8.3s.6-.1.8-.4c.1-.2.2-.4.2-.8v-2c0-.4 0-.6-.3-.8-.2-.2-.4-.2-.7-.2s-.6.1-.8.4c-.1.2-.2.4-.2.8v1.8zM417.7 116.5v.5c.3-.4.6-.6 1-.6s.8.2 1 .7c.3-.5.6-.7 1.2-.7s.7.1.9.4c.2.2.2.4.2 1v2.4h-.6V118c0-.4 0-.6-.1-.7-.1-.2-.4-.3-.6-.3-.5 0-.8.4-.8 1v2.2h-.6V118c0-.4 0-.5-.1-.7-.1-.2-.3-.3-.6-.3-.5 0-.9.4-.9 1v2.2h-.6v-3.7h.6zM425.3 117.7v.4h-2l1.2-1.6c.3-.5.4-.6.4-.8 0-.3-.2-.4-.5-.4s-.5.2-.5.6h-.4c0-.6.4-1 1-1s1 .3 1 .8-.1.5-.4.9l-.8 1.1h1.1z"/></g><g><path d="M112 139.6h-.7v-5.3h.7v2.5l2.1-2.5h.8l-2.2 2.6 2.2 2.7h-.9l-2-2.5v2.5zM119 137.7c0 1.1-.8 1.9-1.9 1.9s-1.9-.8-1.9-1.9.8-1.9 1.9-1.9 1.9.8 1.9 1.9zm-3.1 0c0 .8.5 1.4 1.3 1.4s1.2-.6 1.2-1.4-.5-1.4-1.2-1.4-1.3.6-1.3 1.4zM123 139.1c-.4.4-.8.5-1.4.5-1.1 0-1.8-.8-1.8-1.9s.8-1.9 1.8-1.9 1 .2 1.3.6l-.4.4c-.3-.3-.6-.4-.9-.4-.7 0-1.2.6-1.2 1.4s.5 1.4 1.2 1.4.6-.1.9-.4l.4.4zM124.6 136.4c.3-.4.7-.6 1.1-.6s.7.1.9.3c.2.2.3.5.3 1v2.5h-.6v-2.4c0-.5-.2-.8-.7-.8s-.5.1-.7.3c-.2.2-.2.4-.2.7v2.2h-.6v-5.3h.6v2.2zM128.5 137.9c0 .3 0 .5.2.7.2.3.6.5 1 .5s.9-.2 1.1-.6l.5.2c-.3.6-.9 1-1.6 1-1.1 0-1.9-.8-1.9-1.9s.8-1.9 1.9-1.9 1.9.8 1.9 1.9v.2h-3.1zm2.4-.4c0-.3 0-.4-.2-.6-.2-.3-.6-.5-1-.5s-.8.2-1 .5c-.1.2-.2.3-.2.6h2.4zM133.3 135.9v.5c.3-.4.6-.6 1.1-.6s.6.1.9.3c.2.2.3.5.3 1v2.5h-.6v-2.4c0-.3 0-.5-.1-.6-.1-.2-.3-.2-.6-.2s-.5.1-.7.3c-.2.2-.2.4-.2.7v2.2h-.6v-3.7h.6zM136.8 140.8h-.4l.7-2.1.6.2-.8 1.9zM142 136.6h2.1v.6H142v1.8h2.1v.6h-2.8v-5.3h2.8v.6H142v1.8zM147 136.9c0-.4-.3-.6-.7-.6s-.7.2-.7.5.2.4.8.6c.5.1.7.2.9.4.2.2.3.4.3.7 0 .6-.5 1.1-1.3 1.1s-1.3-.4-1.4-1.1h.6c0 .4.3.6.8.6s.7-.2.7-.5-.2-.5-.8-.6c-.8-.2-1.2-.6-1.2-1.1s.5-1.1 1.3-1.1 1.3.4 1.3 1.1h-.6zM150.5 136.9c0-.4-.3-.6-.7-.6s-.7.2-.7.5.2.4.8.6c.5.1.7.2.9.4.2.2.3.4.3.7 0 .6-.5 1.1-1.3 1.1s-1.3-.4-1.4-1.1h.6c0 .4.3.6.8.6s.7-.2.7-.5-.2-.5-.8-.6c-.8-.2-1.2-.6-1.2-1.1s.5-1.1 1.3-1.1 1.3.4 1.3 1.1h-.6zM152.7 137.9c0 .3 0 .5.2.7.2.3.6.5 1 .5s.9-.2 1.1-.6l.5.2c-.3.6-.9 1-1.6 1-1.1 0-1.9-.8-1.9-1.9s.8-1.9 1.9-1.9 1.9.8 1.9 1.9v.2h-3.1zm2.4-.4c0-.3 0-.4-.2-.6-.2-.3-.6-.5-1-.5s-.8.2-1 .5c-.1.2-.2.3-.2.6h2.4zM157.4 135.9v.5c.3-.4.6-.6 1.1-.6s.6.1.9.3c.2.2.3.5.3 1v2.5h-.6v-2.4c0-.3 0-.5-.1-.6-.1-.2-.3-.2-.6-.2s-.5.1-.7.3c-.2.2-.2.4-.2.7v2.2h-.6v-3.7h.6zM161 140.8h-.4l.7-2.1.6.2-.8 1.9zM116.8 143.2h.7l-1.6 5.3h-.6l-1.2-4.2-1.2 4.2h-.6l-1.6-5.3h.7l1.2 4.1 1.2-4.1h.6l1.1 4.1 1.2-4.1zM121.6 146.7c0 1.1-.8 1.9-1.9 1.9s-1.9-.8-1.9-1.9.8-1.9 1.9-1.9 1.9.8 1.9 1.9zm-3.1 0c0 .8.5 1.4 1.3 1.4s1.2-.6 1.2-1.4-.5-1.4-1.2-1.4-1.3.6-1.3 1.4zM123.3 145.4c.3-.4.7-.6 1.1-.6s.7.1.9.3c.2.2.3.5.3 1v2.5h-.6v-2.4c0-.5-.2-.8-.7-.8s-.5.1-.7.3c-.2.2-.2.4-.2.7v2.2h-.6v-5.3h.6v2.2zM127.5 144.9v.5c.3-.4.6-.6 1.1-.6s.6.1.9.3c.2.2.3.5.3 1v2.5h-.6v-2.4c0-.3 0-.5-.1-.6-.1-.2-.3-.2-.6-.2s-.5.1-.7.3c-.2.2-.2.4-.2.7v2.2h-.6v-3.7h.6zM131.5 146.9c0 .3 0 .5.2.7.2.3.6.5 1 .5s.9-.2 1.1-.6l.5.2c-.3.6-.9 1-1.6 1-1.1 0-1.9-.8-1.9-1.9s.8-1.9 1.9-1.9 1.9.8 1.9 1.9v.2h-3.1zm2.4-.4c0-.3 0-.4-.2-.6-.2-.3-.6-.5-1-.5s-.8.2-1 .5c-.1.2-.2.3-.2.6h2.4zM136.3 144.9v.5c.3-.4.6-.6 1.1-.6s.6.1.9.3c.2.2.3.5.3 1v2.5h-.6v-2.4c0-.3 0-.5-.1-.6-.1-.2-.3-.2-.6-.2s-.5.1-.7.3c-.2.2-.2.4-.2.7v2.2h-.6v-3.7h.6zM111.2 152.9v-.6h3l-1.6 2c.9 0 1.6.7 1.6 1.6s-.8 1.7-1.8 1.7-1.4-.5-1.6-1.3h.6c.1.4.5.7 1 .7s1.2-.5 1.2-1.1-.5-1.1-1.2-1.1-.4 0-.6.2l-.3-.2 1.5-1.9h-1.9zM116.5 154.4c.2 0 .3-.1.5-.1.9 0 1.6.7 1.6 1.6s-.8 1.7-1.7 1.7-1.7-.8-1.7-1.7.1-.7.4-1.2l1.5-2.5h.7l-1.4 2.1zm-.7 1.5c0 .6.5 1.1 1.1 1.1s1.1-.5 1.1-1.1-.5-1.1-1.1-1.1-1.1.5-1.1 1.1zM120.4 157.2c0 .2-.2.4-.4.4s-.4-.2-.4-.4.2-.4.4-.4.4.2.4.4zM122.8 154.4c.2 0 .3-.1.5-.1.9 0 1.6.7 1.6 1.6s-.8 1.7-1.7 1.7-1.7-.8-1.7-1.7.1-.7.4-1.2l1.5-2.5h.7l-1.4 2.1zm-.7 1.5c0 .6.5 1.1 1.1 1.1s1.1-.5 1.1-1.1-.5-1.1-1.1-1.1-1.1.5-1.1 1.1zM128.9 153.9v.5c.3-.4.6-.6 1-.6s.8.2 1 .7c.3-.5.6-.7 1.2-.7s.7.1.9.4c.2.2.2.4.2 1v2.4h-.6v-2.2c0-.4 0-.6-.1-.7-.1-.2-.4-.3-.6-.3-.5 0-.8.4-.8 1v2.2h-.6v-2.2c0-.4 0-.5-.1-.7-.1-.2-.3-.3-.6-.3-.5 0-.9.4-.9 1v2.2h-.6v-3.7h.6zM136.5 155v.4h-2l1.2-1.6c.3-.5.4-.6.4-.8 0-.3-.2-.4-.5-.4s-.5.2-.5.6h-.4c0-.6.4-1 1-1s1 .3 1 .8-.1.5-.4.9l-.8 1.1h1.1z"/></g><g><path d="M200.8 74.6h1.4c1.6 0 2.6 1 2.6 2.6s-.3 1.6-.8 2.1c-.5.4-1.1.6-1.9.6h-1.3v-5.3zm.7 4.8h.2c.9 0 1.3 0 1.7-.4.5-.4.7-1 .7-1.8 0-1.3-.7-2-1.9-2h-.7v4.2zM208.7 76.3v2.4c0 .5 0 .8-.4 1-.3.2-.6.4-1.1.4s-.8-.1-1.1-.4c-.2-.2-.4-.6-.4-1v-2.4h.6v2.3c0 .5.3.9.8.9s.5-.1.7-.3c.1-.1.2-.3.2-.6v-2.4h.6zM211.8 77.3c0-.4-.3-.6-.7-.6s-.7.2-.7.5.2.4.8.6c.5.1.7.2.9.4.2.2.3.4.3.7 0 .6-.5 1.1-1.3 1.1s-1.3-.4-1.4-1.1h.6c0 .4.3.6.8.6s.7-.2.7-.5-.2-.5-.8-.6c-.8-.2-1.2-.6-1.2-1.1s.5-1.1 1.3-1.1 1.3.4 1.3 1.1h-.6zM216.5 79.5c-.4.4-.8.5-1.4.5-1.1 0-1.8-.8-1.8-1.9s.8-1.9 1.8-1.9 1 .2 1.3.6l-.4.4c-.3-.3-.6-.4-.9-.4-.7 0-1.2.6-1.2 1.4s.5 1.4 1.2 1.4.6-.1.9-.4l.4.4zM218 76.8c.3-.4.7-.6 1.1-.6s.7.1.9.3c.2.2.3.5.3 1V80h-.6v-2.4c0-.5-.2-.8-.7-.8s-.5.1-.7.3c-.2.2-.2.4-.2.7V80h-.6v-5.3h.6v2.2zM222 78.3c0 .3 0 .5.2.7.2.3.6.5 1 .5s.9-.2 1.1-.6l.5.2c-.3.6-.9 1-1.6 1-1.1 0-1.9-.8-1.9-1.9s.8-1.9 1.9-1.9 1.9.8 1.9 1.9v.2H222zm2.4-.4c0-.3 0-.4-.2-.6-.2-.3-.6-.5-1-.5s-.8.2-1 .5c-.1.2-.2.3-.2.6h2.4zM200.4 87.8v-.5l2.8-3.7v3.6h.6v.6h-.6V89h-.6v-1.2h-2.1zm2.1-2.6l-1.5 2h1.5v-2zM205.6 88.6c0 .2-.2.4-.4.4s-.4-.2-.4-.4.2-.4.4-.4.4.2.4.4zM207.9 85.9c.2 0 .3-.1.5-.1.9 0 1.6.7 1.6 1.6s-.8 1.7-1.7 1.7-1.7-.8-1.7-1.7.1-.7.4-1.2l1.5-2.5h.7l-1.4 2.1zm-.7 1.5c0 .6.5 1.1 1.1 1.1s1.1-.5 1.1-1.1-.5-1.1-1.1-1.1-1.1.5-1.1 1.1zM213.2 85.3v.5c.3-.4.6-.6 1-.6s.8.2 1 .7c.3-.5.6-.7 1.2-.7s.7.1.9.4c.2.2.2.4.2 1V89h-.6v-2.2c0-.4 0-.6-.1-.7-.1-.2-.4-.3-.6-.3-.5 0-.8.4-.8 1V89h-.6v-2.2c0-.4 0-.5-.1-.7-.1-.2-.3-.3-.6-.3-.5 0-.9.4-.9 1V89h-.6v-3.7h.6zM220.8 86.5v.4h-2l1.2-1.6c.3-.5.4-.6.4-.8 0-.3-.2-.4-.5-.4s-.5.2-.5.6h-.4c0-.6.4-1 1-1s1 .3 1 .8-.1.5-.4.9l-.8 1.1h1.1z"/></g><g><path d="M180.4 198.1c1.1 0 1.7.5 1.7 1.4s-.1.6-.3.9c-.1.2-.3.2-.5.3.3 0 .4.1.6.2.3.2.4.6.4 1s-.2.9-.6 1.2c-.3.2-.7.3-1.3.3h-1.5v-5.3h1.5zm-.8 2.4h.7c.4 0 .7 0 .9-.2.2-.2.3-.4.3-.7s-.2-.6-.4-.8c-.2 0-.4-.1-.9-.1h-.6v1.8zm0 2.4h.7c.6 0 .8 0 1-.2.3-.1.4-.4.4-.8 0-.6-.4-.9-1.2-.9h-.8v1.8zM186.3 199.7h.6v3.7h-.6v-.7c-.4.6-.8.8-1.3.8-1 0-1.7-.8-1.7-1.9s.7-1.9 1.8-1.9 1 .2 1.3.7v-.6zm-2.1.9c-.2.3-.3.6-.3 1 0 .8.5 1.4 1.2 1.4s1.3-.6 1.3-1.4-.5-1.4-1.2-1.4-.7.1-.9.4zM191 198.1h.6v5.3h-.6v-.6c-.4.5-.8.7-1.3.7-1 0-1.7-.8-1.7-1.9s.7-2 1.7-2 1 .2 1.3.6V198zm-2.4 3.5c0 .8.5 1.4 1.2 1.4s1.2-.6 1.2-1.4-.5-1.4-1.2-1.4-1.2.6-1.2 1.4zM178.5 211.2v-.5l2.8-3.7v3.6h.6v.6h-.6v1.2h-.6v-1.2h-2.1zm2.1-2.6l-1.5 2h1.5v-2zM183.7 212.1c0 .2-.2.4-.4.4s-.4-.2-.4-.4.2-.4.4-.4.4.2.4.4zM187.8 211.8v.6h-3l1.9-2.7c.5-.8.7-1 .7-1.3 0-.5-.4-.8-.9-.8s-.7.2-.8.4v.6h-.6c0-1 .6-1.6 1.5-1.6s1.5.5 1.5 1.3-.2.8-.6 1.5l-1.4 2h1.9zM191.3 208.7v.5c.3-.4.6-.6 1-.6s.8.2 1 .7c.3-.5.6-.7 1.2-.7s.7.1.9.4c.2.2.2.4.2 1v2.4h-.6v-2.2c0-.4 0-.6-.1-.7-.1-.2-.4-.3-.6-.3-.5 0-.8.4-.8 1v2.2h-.6v-2.2c0-.4 0-.5-.1-.7-.1-.2-.3-.3-.6-.3-.5 0-.9.4-.9 1v2.2h-.6v-3.7h.6zM198.9 209.9v.4h-2l1.2-1.6c.3-.5.4-.6.4-.8 0-.3-.2-.4-.5-.4s-.5.2-.5.6h-.4c0-.6.4-1 1-1s1 .3 1 .8-.1.5-.4.9l-.8 1.1h1.1z"/></g><g><path d="M172.4 281.1v.6h-2.5v-5.3h.7v4.7h1.9zM174 277c0 .2-.2.4-.4.4s-.4-.2-.4-.4.2-.4.4-.4.4.2.4.4zm0 4.7h-.6V278h.6v3.7zM176 281.7h-.6v-3.2h-.5v-.5h.5v-.5c0-.7.4-1.2 1-1.2h.2v.5c-.4 0-.6.2-.6.6v.5h.6v.5h-.6v3.2zM178.4 280.9c0 .2 0 .2.3.2h.3v.5h-.6c-.4 0-.6-.2-.6-.6v-2.6h-.5v-.5h.5v-1.2h.6v1.2h.6v.5h-.6v2.4z"/></g></g></svg>