<svg xmlns="http://www.w3.org/2000/svg" viewBox="0 0 439.6 351.2"><defs><style>.cls-1{stroke-dashoffset:1.7px}.cls-1,.cls-2{stroke-dasharray:0 0 0 0 2.9 1.4 .2 1.4}.cls-1,.cls-10,.cls-11,.cls-12,.cls-13,.cls-14,.cls-15,.cls-16,.cls-17,.cls-18,.cls-2,.cls-3,.cls-4,.cls-5,.cls-6,.cls-7,.cls-8,.cls-9{fill:none;stroke-linecap:round;stroke-linejoin:round}.cls-1,.cls-10,.cls-11,.cls-12,.cls-13,.cls-14,.cls-15,.cls-16,.cls-18,.cls-2,.cls-3,.cls-4,.cls-6,.cls-7,.cls-8,.cls-9{stroke-width:.1px}.cls-1,.cls-16,.cls-2,.cls-6,.cls-7{stroke:#32648c}.cls-3{stroke:#646464}.cls-19,.cls-20{fill:#fff}.cls-10,.cls-11,.cls-12,.cls-13,.cls-14,.cls-18,.cls-4,.cls-6,.cls-7,.cls-8,.cls-9{stroke-dasharray:0 0 1.4 1.4}.cls-10,.cls-11,.cls-12,.cls-13,.cls-14,.cls-15,.cls-18,.cls-4,.cls-8,.cls-9{stroke:#969696}.cls-5{stroke:#000;stroke-width:.3px}.cls-6{stroke-dashoffset:.2px}.cls-7{stroke-dashoffset:1px}.cls-8{stroke-dashoffset:1.1px}.cls-9{stroke-dashoffset:2.4px}.cls-10{stroke-dashoffset:2.7px}.cls-11{stroke-dashoffset:2.5px}.cls-12{stroke-dashoffset:1.4px}.cls-13{stroke-dashoffset:.7px}.cls-20,.cls-21{fill-rule:evenodd}.cls-14{stroke-dashoffset:2.3px}.cls-17{stroke:#194164;stroke-width:.3px}.cls-18{stroke-dashoffset:1.2px}</style></defs><g id="Plan"><path class="cls-21" d="M378.8 250.2l-5.8 6v-11.7h5.8v5.7"/><path class="cls-20" d="M373 256.2l5.8-6v-5.7H373v11.7"/><path class="cls-15" d="M379 245.7h-5.7M379 246.9h-5.7M379 248.3h-5.7M379 249.7h-5.7M377.8 251.2h-4.5M376.6 252.6h-3.3M375.2 254.1h-1.9M373.8 255.5h-.5M378.8 250.2v-5.7M373 256.2v-11.7"/><path class="cls-16" d="M373 256.2v-11.7M378.8 250.2v-5.7"/><path class="cls-21" d="M410 248.1l.5 5.7-37.5 2.4 5.8-6 31.2-2.1"/><path class="cls-20" d="M410.5 253.8l-.5-5.7-31.2 2.1-5.8 6 37.5-2.4"/><path class="cls-15" d="M374 255.3v.9M375.4 254.1v1.9M376.6 252.6l.3 3.4M378.1 251.2l.2 4.8M379.3 250.2l.5 5.5M380.7 250l.5 5.7M382.2 250l.4 5.5M383.6 250l.5 5.5M385 249.7l.3 5.8M386.5 249.7l.2 5.6M387.9 249.5l.3 5.8M389.4 249.5l.2 5.8M390.6 249.5l.4 5.5M392 249.3l.5 5.7M393.4 249.3l.5 5.5M394.9 249l.5 5.8M396.3 249l.5 5.8M397.8 249l.2 5.5M399.2 248.8l.2 5.7M400.6 248.8l.3 5.7M402.1 248.5l.2 5.8M403.3 248.5l.5 5.8M404.7 248.5l.5 5.6M406.2 248.3l.4 5.8M407.6 248.3l.5 5.8M409 248.1l.5 5.7M410 248.1l-31.2 2.1M410.5 253.8l-37.5 2.4"/><path class="cls-16" d="M410.5 253.8l-37.5 2.4M410 248.1l-31.2 2.1"/><path class="cls-21" d="M373 254.5h-5v-10h5v10"/><path class="cls-20" d="M368 254.5h5v-10h-5v10"/><path class="cls-15" d="M368.2 253.1l1.5 1.4M368.2 249l5.1 5.1M368.2 245.2l5.1 5M371.6 244.5l1.7 1.6"/><path class="cls-17" d="M373 254.5v-10M368 254.5v-10"/><path class="cls-16" d="M368 254.5v-10M373 254.5v-10"/><path class="cls-17" d="M153.7 264.4h39.8v29.8h-39.8z"/><path class="cls-16" d="M202.4 296.1v-35.6M199.3 277.6v13.9M196.4 264.9v13.9"/><path class="cls-20" d="M4.9 342.4l37.7 6.9h4.3v-26.1h-.5v-59.3h.5v-26.2h-4.3l-37.7 6.8v97.9"/><path class="cls-15" d="M44.7 349.3v-9.1M44.7 329.2v-10.6M44.7 307.8V297M44.7 286.2v-10.5M44.7 264.9v-10.8M44.7 243.3v-5.6M37.5 348.4v-8.2M37.5 329.2v-10.6M37.5 307.8V297M37.5 286.2v-10.5M37.5 264.9v-10.8M37.5 243.3v-4.6M30.3 346.9v-6.7M30.3 329.2v-10.6M30.3 307.8V297M30.3 286.2v-10.5M30.3 264.9v-10.8M30.3 243.3v-3.4M23.1 345.7v-5.5M23.1 329.2v-10.6M23.1 307.8V297M23.1 286.2v-10.5M23.1 264.9v-10.8M23.1 243.3v-2M15.9 344.3v-4.1M15.9 329.2v-10.6M15.9 307.8V297M15.9 286.2v-10.5M15.9 264.9v-10.8M15.9 243.3v-.8M8.5 343.1v-2.9M8.5 329.2v-10.6M8.5 307.8V297M8.5 286.2v-10.5M8.5 264.9v-10.8M46.6 329.2h-1.9M39.2 329.2h-1.7M32 329.2h-1.7M24.8 329.2h-1.7M17.6 329.2h-1.7M10.2 329.2H8.5M46.6 307.8h-1.9M39.2 307.8h-1.7M32 307.8h-1.7M24.8 307.8h-1.7M17.6 307.8h-1.7M10.2 307.8H8.5M46.6 286.2h-1.9M39.2 286.2h-1.7M32 286.2h-1.7M24.8 286.2h-1.7M17.6 286.2h-1.7M10.2 286.2H8.5M46.6 264.9h-1.9M39.2 264.9h-1.7M32 264.9h-1.7M24.8 264.9h-1.7M17.6 264.9h-1.7M10.2 264.9H8.5M46.6 243.3h-1.9M39.2 243.3h-1.7M32 243.3h-1.7M24.8 243.3h-1.7M17.6 243.3h-1.7M44.7 340.2v-10.8M44.7 318.6v-10.5M44.7 297v-10.5M44.7 275.7v-10.6M44.7 254.1v-10.6M37.5 340.2v-10.8M37.5 318.6v-10.5M37.5 297v-10.5M37.5 275.7v-10.6M37.5 254.1v-10.6M30.3 340.2v-10.8M30.3 318.6v-10.5M30.3 297v-10.5M30.3 275.7v-10.6M30.3 254.1v-10.6M23.1 340.2v-10.8M23.1 318.6v-10.5M23.1 297v-10.5M23.1 275.7v-10.6M23.1 254.1v-10.6M15.9 340.2v-10.8M15.9 318.6v-10.5M15.9 297v-10.5M15.9 275.7v-10.6M15.9 254.1v-10.6M8.5 340.2v-10.8M8.5 318.6v-10.5M8.5 297v-10.5M8.5 275.7v-10.6M8.5 254.1v-10.4M46.6 329.4h-1.9M39.2 329.4h-1.7M32 329.4h-1.7M24.8 329.4h-1.7M17.6 329.4h-1.7M10.2 329.4H8.5M46.6 308.1h-1.9M39.2 308.1h-1.7M32 308.1h-1.7M24.8 308.1h-1.7M17.6 308.1h-1.7M10.2 308.1H8.5M46.6 286.5h-1.9M39.2 286.5h-1.7M32 286.5h-1.7M24.8 286.5h-1.7M17.6 286.5h-1.7M10.2 286.5H8.5M46.6 265.1h-1.9M39.2 265.1h-1.7M32 265.1h-1.7M24.8 265.1h-1.7M17.6 265.1h-1.7M10.2 265.1H8.5M46.6 243.5h-1.9M39.2 243.5h-1.7M32 243.5h-1.7M24.8 243.5h-1.7M17.6 243.5h-1.7M40.9 349.1v-8.9M40.9 329.2v-10.6M40.9 307.8V297M40.9 286.2v-10.5M40.9 264.9v-10.8M40.9 243.3V238M33.7 347.7v-7.5M33.7 329.2v-10.6M33.7 307.8V297M33.7 286.2v-10.5M33.7 264.9v-10.8M33.7 243.3v-3.9M26.5 346.5v-6.3M26.5 329.2v-10.6M26.5 307.8V297M26.5 286.2v-10.5M26.5 264.9v-10.8M26.5 243.3v-2.7M19.3 345v-4.8M19.3 329.2v-10.6M19.3 307.8V297M19.3 286.2v-10.5M19.3 264.9v-10.8M19.3 243.3v-1.5M11.8 343.6v-3.4M11.8 329.2v-10.6M11.8 307.8V297M11.8 286.2v-10.5M11.8 264.9v-10.8M47.1 329.2h-.5M40.9 329.2h-1.7M33.7 329.2H32M26.5 329.2h-1.7M19.3 329.2h-1.7M11.8 329.2h-1.6M40.9 307.8h-1.7M33.7 307.8H32M26.5 307.8h-1.7M19.3 307.8h-1.7M11.8 307.8h-1.6M40.9 286.2h-1.7M33.7 286.2H32M26.5 286.2h-1.7M19.3 286.2h-1.7M11.8 286.2h-1.6M40.9 264.9h-1.7M33.7 264.9H32M26.5 264.9h-1.7M19.3 264.9h-1.7M11.8 264.9h-1.6M47.1 243.3h-.5M40.9 243.3h-1.7M33.7 243.3H32M26.5 243.3h-1.7M19.3 243.3h-1.7M11.8 243.3h-.2M47.1 329.4h-.5M40.9 329.4h-1.7M33.7 329.4H32M26.5 329.4h-1.7M19.3 329.4h-1.7M11.8 329.4h-1.6M40.9 308.1h-1.7M33.7 308.1H32M26.5 308.1h-1.7M19.3 308.1h-1.7M11.8 308.1h-1.6M40.9 286.5h-1.7M33.7 286.5H32M26.5 286.5h-1.7M19.3 286.5h-1.7M11.8 286.5h-1.6M40.9 265.1h-1.7M33.7 265.1H32M26.5 265.1h-1.7M19.3 265.1h-1.7M11.8 265.1h-1.6M47.1 243.5h-.5M40.9 243.5h-1.7M33.7 243.5H32M26.5 243.5h-1.7M19.3 243.5h-1.7M11.8 243.5h-1.4M40.9 340.2v-10.8M40.9 318.6v-10.5M40.9 297v-10.5M40.9 275.7v-10.6M40.9 254.1v-10.6M33.7 340.2v-10.8M33.7 318.6v-10.5M33.7 297v-10.5M33.7 275.7v-10.6M33.7 254.1v-10.6M26.5 340.2v-10.8M26.5 318.6v-10.5M26.5 297v-10.5M26.5 275.7v-10.6M26.5 254.1v-10.6M19.3 340.2v-10.8M19.3 318.6v-10.5M19.3 297v-10.5M19.3 275.7v-10.6M19.3 254.1v-10.6M11.8 340.2v-10.8M11.8 318.6v-10.5M11.8 297v-10.5M11.8 275.7v-10.6M11.8 254.1v-10.6M41.1 349.1v-8.9M41.1 340v-21.4M41.1 318.6v-21.3M41.1 297v-21.3M41.1 275.4v-21.1M41.1 254.1V238M33.9 347.7v-7.5M33.9 340v-21.4M33.9 318.6v-21.3M33.9 297v-21.3M33.9 275.4v-21.1M33.9 254.1v-14.9M26.7 346.5v-6.3M26.7 340v-21.4M26.7 318.6v-21.3M26.7 297v-21.3M26.7 275.4v-21.1M26.7 254.1v-13.5M19.5 345v-4.8M19.5 340v-21.4M19.5 318.6v-21.3M19.5 297v-21.3M19.5 275.4v-21.1M19.5 254.1v-12.3M12.1 343.8v-3.6M12.1 340v-21.4M12.1 318.6v-21.3M12.1 297v-21.3M12.1 275.4v-21.1M12.1 254.1v-10.8M44.7 340.2h-3.6M37.3 340.2h-3.4M30.1 340.2h-3.4M22.9 340.2h-3.4M15.7 340.2h-3.6M8.2 340.2H5.1M44.7 318.6h-3.6M37.3 318.6h-3.4M30.1 318.6h-3.4M22.9 318.6h-3.4M15.7 318.6h-3.6M8.2 318.6H5.1M44.7 297.3h-3.6M37.3 297.3h-3.4M30.1 297.3h-3.4M22.9 297.3h-3.4M15.7 297.3h-3.6M8.2 297.3H5.1M44.7 275.7h-3.6M37.3 275.7h-3.4M30.1 275.7h-3.4M22.9 275.7h-3.4M15.7 275.7h-3.6M8.2 275.7H5.1M44.7 254.3h-3.6M37.3 254.3h-3.4M30.1 254.3h-3.4M22.9 254.3h-3.4M15.7 254.3h-3.6M8.2 254.3H5.1M44.7 349.3v-9.1M44.7 340v-21.4M44.7 318.6v-21.3M44.7 297v-21.3M44.7 275.4v-21.1M44.7 254.1v-16.4M37.3 348.4v-8.2M37.3 340v-21.4M37.3 318.6v-21.3M37.3 297v-21.3M37.3 275.4v-21.1M37.3 254.1v-15.4M30.1 346.9v-6.7M30.1 340v-21.4M30.1 318.6v-21.3M30.1 297v-21.3M30.1 275.4v-21.1M30.1 254.1v-14.2M22.9 345.7v-5.5M22.9 340v-21.4M22.9 318.6v-21.3M22.9 297v-21.3M22.9 275.4v-21.1M22.9 254.1v-12.8M15.7 344.3v-4.1M15.7 340v-21.4M15.7 318.6v-21.3M15.7 297v-21.3M15.7 275.4v-21.1M15.7 254.1v-11.6M8.2 343.1v-2.9M8.2 340v-21.4M8.2 318.6v-21.3M8.2 297v-21.3M8.2 275.4v-21.1M8.2 254.1V244M44.7 340h-3.6M37.3 340h-3.4M30.1 340h-3.4M22.9 340h-3.4M15.7 340h-3.6M8.2 340H5.1M44.7 318.6h-3.6M37.3 318.6h-3.4M30.1 318.6h-3.4M22.9 318.6h-3.4M15.7 318.6h-3.6M8.2 318.6H5.1M44.7 297h-3.6M37.3 297h-3.4M30.1 297h-3.4M22.9 297h-3.4M15.7 297h-3.6M8.2 297H5.1M44.7 275.4h-3.6M37.3 275.4h-3.4M30.1 275.4h-3.4M22.9 275.4h-3.4M15.7 275.4h-3.6M8.2 275.4H5.1M44.7 254.1h-3.6M37.3 254.1h-3.4M30.1 254.1h-3.4M22.9 254.1h-3.4M15.7 254.1h-3.6M8.2 254.1H5.1M4.9 342.4l37.7 6.9h4.3v-26.1h-.5v-59.3h.5v-26.2h-4.3l-37.7 6.8v97.9zM375.4 105.5h3.6v59h-3.6z"/><path class="cls-15" d="M46.4 263.9H50v59.3h-3.6z"/><path class="cls-20" d="M201 297l6 7v-7h-6"/><path class="cls-15" d="M207.2 300.6l-3.6-3.6M205.5 302.3l1.7-1.7M203.6 300.1l3.1-3.1M201.9 298l.7-1"/><path class="cls-20" d="M201 297l6 7v-7h-6"/><path class="cls-15" d="M207.2 300.6l-3.6-3.6M205.5 302.3l1.7-1.7M203.6 300.1l3.1-3.1M201.9 298l.7-1"/><path class="cls-17" d="M207 297v7M207 297v7"/><path class="cls-20" d="M201 261.3h5.7l-5.7-6.8v6.8"/><path class="cls-15" d="M203.8 261.3l-2.6-2.9M206.5 261.3l.2-.3M202.4 261.3l2.4-2.4M201.2 258.6l1.7-1.9M201.2 254.5"/><path class="cls-20" d="M201 261.3h5.7l-5.7-6.8v6.8"/><path class="cls-15" d="M203.8 261.3l-2.6-2.9M206.5 261.3l.2-.3M202.4 261.3l2.4-2.4M201.2 258.6l1.7-1.9M201.2 254.5"/><path class="cls-17" d="M201 254.5v6.8M201 254.5v6.8"/><path class="cls-16" d="M202.4 264.4v29.5"/><path class="cls-2" d="M207 264.4v29.5"/><path class="cls-16" d="M207 293.4v.5"/><path class="cls-20" d="M207 261.3v3.1h-4.6v-3.1"/><path class="cls-15" d="M207 264.4l-3.2-3.1M203.1 264.4l-.5-.5M203.4 264.4l3.1-3.1"/><path class="cls-20" d="M207 297v-3.1h-4.6v3.1"/><path class="cls-15" d="M207.2 296.5l-2.6-2.6M203.6 297l-1-.9M206.7 297l.5-.2M202.6 297l3.2-3.1"/><path class="cls-17" d="M207 264.4h-4.6M207 293.9h-4.6M207 264.4h-4.6M207 261.3v3.1M207 293.9h-4.6M207 297v-3.1M201 261.3h1.4M201 297h1.4M207 261.3v3.1M207 297v-3.1M202.4 264.4v-3.1M202.4 293.9v3.1"/><path class="cls-16" d="M191.1 35.9v57.4"/><path class="cls-5" d="M191.8 35.2v58.1"/><path class="cls-16" d="M189.7 37.1v56.2M191.1 35.9v57.4"/><path class="cls-5" d="M191.1 93.3h.7"/><path class="cls-16" d="M189.7 93.3h1.4M191.8 35.2v58.1M189.7 37.1v56.2"/><path class="cls-20" d="M206.9 65.3c.9-1.3.9-3 0-4.3-1.5-1.9-3.8-2.9-6.2-2.9l-9 .3V68l9 .3c2.4 0 4.7-1 6.2-2.9"/><path class="cls-16" d="M206.9 65.3c.9-1.3.9-3 0-4.3-1.5-1.9-3.8-2.9-6.2-2.9l-9 .3V68l9 .3c2.4 0 4.7-1 6.2-2.9"/><path class="cls-20" d="M196.8 63.2c0 1 .3 2 1.1 2.8.7.7 1.7 1.2 2.7 1.2 2.1 0 4.1-.9 5.4-2.5.6-.9.6-2 0-2.9-1.3-1.6-3.3-2.5-5.4-2.5-1 0-2 .4-2.7 1.2-.7.7-1.1 1.8-1.1 2.8"/><path class="cls-16" d="M196.8 63.2c0 1 .3 2 1.1 2.8.7.7 1.7 1.2 2.7 1.2 2.1 0 4.1-.9 5.4-2.5.6-.9.6-2 0-2.9-1.3-1.6-3.3-2.5-5.4-2.5-1 0-2 .4-2.7 1.2-.7.7-1.1 1.8-1.1 2.8"/><path class="cls-20" d="M191.8 70.2h41.3V93h-41.3V70.2"/><path class="cls-16" d="M191.8 70.2h41.3V93h-41.3zM193.8 93V70.2M182.5 35.9h8.6"/><path class="cls-5" d="M182.5 35.2h9.3"/><path class="cls-16" d="M182.5 37.1h7.2M182.5 35.9h8.6M182.5 35.2h9.3M182.5 37.1h7.2"/><path class="cls-20" d="M191.7 38.4h12.4c.1 0 .3.1.4.2.1.1.2.2.2.4V53.1c0 .1-.1.3-.2.4-.1.1-.2.2-.4.2h-12.4V38.1"/><path class="cls-16" d="M191.7 38.4h12.4c.1 0 .3.1.4.2.1.1.2.2.2.4V53.1c0 .1-.1.3-.2.4-.1.1-.2.2-.4.2h-12.4V38.1"/><path class="cls-20" d="M203.9 219.4c1.3-.9 3-.9 4.3 0 1.9 1.5 2.9 3.8 2.9 6.2l-.3 9h-9.6l-.3-9c0-2.4 1-4.7 2.9-6.2"/><path class="cls-16" d="M203.9 219.4c1.3-.9 3-.9 4.3 0 1.9 1.5 2.9 3.8 2.9 6.2l-.3 9h-9.6l-.3-9c0-2.4 1-4.7 2.9-6.2"/><path class="cls-20" d="M206 229.5c-1 0-2-.3-2.8-1.1-.7-.7-1.2-1.7-1.2-2.7 0-2.1.9-4.1 2.5-5.4.9-.6 2-.6 2.9 0 1.6 1.3 2.5 3.3 2.5 5.4 0 1-.4 2-1.2 2.7-.7.7-1.7 1.1-2.8 1.1"/><path class="cls-16" d="M206 229.5c-1 0-2-.3-2.8-1.1-.7-.7-1.2-1.7-1.2-2.7 0-2.1.9-4.1 2.5-5.4.9-.6 2-.6 2.9 0 1.6 1.3 2.5 3.3 2.5 5.4 0 1-.4 2-1.2 2.7-.7.7-1.7 1.1-2.8 1.1"/><path class="cls-20" d="M149.1 234.2v-48.1l.1-.1.1-.1h20.8v.1h.1l.1.1V234.5h-.1l-.1.1-.1.1h-20.6l-.1-.1h-.1v-.1h-.1V234.2"/><path class="cls-16" d="M149.1 234.2v-48.1l.1-.1.1-.1h20.8v.1h.1l.1.1V234.5h-.1l-.1.1-.1.1h-20.6l-.1-.1h-.1v-.1h-.1V234.2"/><path class="cls-20" d="M151.2 229v-37.4c0-.4 0-.9.3-1.3.2-.4.4-.8.7-1.1.3-.3.7-.6 1.1-.7.4-.2.9-.3 1.3-.3h10.2c.4 0 .9 0 1.3.3.4.2.8.4 1.1.7.3.3.6.7.7 1.1.2.4.3.9.3 1.3V229c0 .4 0 .9-.3 1.3-.2.4-.4.8-.7 1.1-.3.3-.7.6-1.1.7-.4.2-.9.3-1.3.3h-10.2c-.4 0-.9 0-1.3-.3-.4-.2-.8-.4-1.1-.7-.3-.3-.6-.7-.7-1.1s-.3-.9-.3-1.3"/><path class="cls-16" d="M151.2 229v-37.4c0-.4 0-.9.3-1.3.2-.4.4-.8.7-1.1.3-.3.7-.6 1.1-.7.4-.2.9-.3 1.3-.3h10.2c.4 0 .9 0 1.3.3.4.2.8.4 1.1.7.3.3.6.7.7 1.1.2.4.3.9.3 1.3V229c0 .4 0 .9-.3 1.3-.2.4-.4.8-.7 1.1-.3.3-.7.6-1.1.7-.4.2-.9.3-1.3.3h-10.2c-.4 0-.9 0-1.3-.3-.4-.2-.8-.4-1.1-.7-.3-.3-.6-.7-.7-1.1s-.3-.9-.3-1.3M219.9 235.3h-24.5"/><path class="cls-5" d="M219.9 234.6h-25.2"/><path class="cls-16" d="M219.9 236.8h-23M219.9 235.3h-24.5M219.9 234.6h-25.2M219.9 236.8h-23"/><path class="cls-5" d="M219.9 235.3v-.7"/><path class="cls-16" d="M219.9 236.8v-1.5M195.4 239.2H177"/><path class="cls-5" d="M194.7 238.5h-17"/><path class="cls-16" d="M196.9 240.6h-21.4M195.4 239.2H177M194.7 238.5h-17M196.9 240.6h-21.4M177 235.3h-28.1"/><path class="cls-5" d="M177.7 234.6h-28.8"/><path class="cls-16" d="M175.5 236.8h-26.6M177 235.3h-28.1"/><path class="cls-5" d="M148.9 235.3v-.7"/><path class="cls-16" d="M148.9 236.8v-1.5M177.7 234.6h-28.8M175.5 236.8h-26.6"/><path class="cls-20" d="M178.4 234.7v-12-.4c0-.1.1-.3.2-.4.1-.1.2-.2.4-.2H193.1c.1 0 .3.1.4.2.1.1.2.2.2.4v12.4h-15.6"/><path class="cls-16" d="M178.4 234.7v-12-.4c0-.1.1-.3.2-.4.1-.1.2-.2.4-.2H193.1c.1 0 .3.1.4.2.1.1.2.2.2.4v12.4h-15.6"/><path class="cls-6" d="M194.7 234.6v3.9"/><path class="cls-7" d="M194.7 238.5h-17"/><path class="cls-6" d="M177.7 238.5v-3.9"/><path class="cls-16" d="M177 239.2v-3.9"/><path class="cls-5" d="M177.7 238.5v-3.9"/><path class="cls-16" d="M175.5 240.6v-3.8M177 239.2v-3.9M177.7 238.5v-3.9M175.5 240.6v-3.8M195.4 235.3v3.9"/><path class="cls-5" d="M194.7 234.6v3.9"/><path class="cls-16" d="M196.9 236.8v3.8M195.4 235.3v3.9M194.7 234.6v3.9M196.9 236.8v3.8"/><path class="cls-5" d="M194.7 234.6h-17"/><path class="cls-16" d="M149.8 106.9h69.1v17h-69.1zM218.5 121.8v2.2M201.4 121.8v2.2M184.4 121.8v2.2M167.4 121.8v2.2M150.3 121.8v2.2"/><path class="cls-20" d="M151.3 111.8v8.9c0 .3 0 .5.2.8.1.2.2.5.4.6.2.2.4.3.6.4.2 0 .5.2.8.2h11.2c.3 0 .5 0 .8-.2.2 0 .5-.2.6-.4.2-.2.3-.4.4-.6s.2-.5.2-.8v-8.9c0-.3 0-.5-.2-.8s-.2-.5-.4-.6c-.2-.2-.4-.3-.6-.4-.2 0-.5-.2-.8-.2h-11.2c-.3 0-.5 0-.8.2-.2 0-.5.2-.6.4-.2.2-.3.4-.4.6-.1.2-.2.5-.2.8"/><path class="cls-16" d="M151.3 111.8v8.9c0 .3 0 .5.2.8.1.2.2.5.4.6.2.2.4.3.6.4.2 0 .5.2.8.2h11.2c.3 0 .5 0 .8-.2.2 0 .5-.2.6-.4.2-.2.3-.4.4-.6s.2-.5.2-.8v-8.9c0-.3 0-.5-.2-.8s-.2-.5-.4-.6c-.2-.2-.4-.3-.6-.4-.2 0-.5-.2-.8-.2h-11.2c-.3 0-.5 0-.8.2-.2 0-.5.2-.6.4-.2.2-.3.4-.4.6-.1.2-.2.5-.2.8"/><path class="cls-20" d="M159.9 113.1c0-.6-.5-1.1-1.1-1.1s-1.1.5-1.1 1.1.5 1.1 1.1 1.1 1.1-.5 1.1-1.1"/><path class="cls-16" d="M159.9 113.1c0-.6-.5-1.1-1.1-1.1s-1.1.5-1.1 1.1.5 1.1 1.1 1.1 1.1-.5 1.1-1.1"/><path class="cls-19" d="M184.9 108.1h15.8v14.6h-15.8z"/><path class="cls-16" d="M184.9 108.1h15.8v14.6h-15.8z"/><path class="cls-20" d="M199.8 118c0-1.6-1.3-2.9-2.9-2.9s-2.9 1.3-2.9 2.9 1.3 2.9 2.9 2.9 2.9-1.3 2.9-2.9"/><path class="cls-16" d="M199.8 118c0-1.6-1.3-2.9-2.9-2.9s-2.9 1.3-2.9 2.9 1.3 2.9 2.9 2.9 2.9-1.3 2.9-2.9"/><path class="cls-20" d="M200 111.3c0-1.2-1-2.2-2.2-2.2s-2.2 1-2.2 2.2 1 2.2 2.2 2.2 2.2-1 2.2-2.2"/><path class="cls-16" d="M200 111.3c0-1.2-1-2.2-2.2-2.2s-2.2 1-2.2 2.2 1 2.2 2.2 2.2 2.2-1 2.2-2.2"/><path class="cls-20" d="M191.6 118c0-1.2-1-2.2-2.3-2.2s-2.3 1-2.3 2.2 1 2.2 2.3 2.2 2.3-1 2.3-2.2"/><path class="cls-16" d="M191.6 118c0-1.2-1-2.2-2.3-2.2s-2.3 1-2.3 2.2 1 2.2 2.3 2.2 2.3-1 2.3-2.2"/><path class="cls-20" d="M192.3 111.5c0-1.6-1.2-2.9-2.8-2.9s-2.8 1.3-2.8 2.9 1.2 2.9 2.8 2.9 2.8-1.3 2.8-2.9"/><path class="cls-16" d="M192.3 111.5c0-1.6-1.2-2.9-2.8-2.9s-2.8 1.3-2.8 2.9 1.2 2.9 2.8 2.9 2.8-1.3 2.8-2.9"/><path class="cls-2" d="M149.8 116.8H219"/><path class="cls-16" d="M218.5 116.8h.5"/><path class="cls-20" d="M366.8 345.3l6.5-7.2H237v7.2h129.8"/><path class="cls-15" d="M373.3 338.3l-.5-.2M371.4 340.5l-2.4-2.4M369.4 342.6l-4.5-4.5M367.5 344.5l-6.7-6.4M364.2 345.3l-7.2-7.2M360.1 345.3l-7.2-7.2M356 345.3l-7.2-7.2M352.2 345.3l-7.2-7.2M348.1 345.3l-7.2-7.2M344 345.3l-7.2-7.2M339.9 345.3l-7.2-7.2M336.1 345.3l-7.2-7.2M332 345.3l-7.2-7.2M327.9 345.3l-7.2-7.2M324.1 345.3l-7.2-7.2M320 345.3l-7.2-7.2M315.9 345.3l-7.2-7.2M312.1 345.3l-7.2-7.2M308 345.3l-7.2-7.2M303.9 345.3l-7.2-7.2M299.8 345.3l-7.2-7.2M296 345.3l-7.2-7.2M291.9 345.3l-7.2-7.2M287.8 345.3l-7.2-7.2M284 345.3l-7.2-7.2M279.9 345.3l-7.2-7.2M275.8 345.3l-7.2-7.2M271.8 345.3l-7.2-7.2M267.9 345.3l-7.2-7.2M263.8 345.3l-7.2-7.2M259.8 345.3l-7.2-7.2M255.9 345.3l-7.2-7.2M251.8 345.3l-7.2-7.2M247.8 345.3l-7.2-7.2M243.9 345.3l-6.7-6.8M239.8 345.3l-2.6-2.7M363 345.3l7.2-7.2M358.9 345.3l7.2-7.2M355 345.3l7.2-7.2M351 345.3l7.2-7.2M346.9 345.3l7.2-7.2M342.8 345.3l7.2-7.2M339 345.3l7.2-7.2M334.9 345.3l7.2-7.2M330.8 345.3l7.2-7.2M327 345.3l7.2-7.2M322.9 345.3l7.2-7.2M318.8 345.3l7.2-7.2M314.7 345.3l7.2-7.2M310.9 345.3l7.2-7.2M306.8 345.3l7.2-7.2M302.7 345.3l7.2-7.2M298.9 345.3l7.2-7.2M294.8 345.3l7.2-7.2M290.7 345.3l7.2-7.2M286.9 345.3l7.2-7.2M282.8 345.3l7.2-7.2M278.7 345.3l7.2-7.2M274.6 345.3l7.2-7.2M270.8 345.3l7.2-7.2M266.7 345.3l7.2-7.2M262.6 345.3l7.2-7.2M258.8 345.3l7.2-7.2M254.7 345.3l7.2-7.2M250.6 345.3l7.2-7.2M246.8 345.3l7.2-7.2M242.7 345.3l7.2-7.2M238.6 345.3l7.2-7.2M237.2 342.9l4.6-4.8M237.2 338.8l.7-.7"/><path class="cls-20" d="M366.8 345.3l6.5-7.2H237v7.2h129.8"/><path class="cls-15" d="M373.3 338.3l-.5-.2M371.4 340.5l-2.4-2.4M369.4 342.6l-4.5-4.5M367.5 344.5l-6.7-6.4M364.2 345.3l-7.2-7.2M360.1 345.3l-7.2-7.2M356 345.3l-7.2-7.2M352.2 345.3l-7.2-7.2M348.1 345.3l-7.2-7.2M344 345.3l-7.2-7.2M339.9 345.3l-7.2-7.2M336.1 345.3l-7.2-7.2M332 345.3l-7.2-7.2M327.9 345.3l-7.2-7.2M324.1 345.3l-7.2-7.2M320 345.3l-7.2-7.2M315.9 345.3l-7.2-7.2M312.1 345.3l-7.2-7.2M308 345.3l-7.2-7.2M303.9 345.3l-7.2-7.2M299.8 345.3l-7.2-7.2M296 345.3l-7.2-7.2M291.9 345.3l-7.2-7.2M287.8 345.3l-7.2-7.2M284 345.3l-7.2-7.2M279.9 345.3l-7.2-7.2M275.8 345.3l-7.2-7.2M271.8 345.3l-7.2-7.2M267.9 345.3l-7.2-7.2M263.8 345.3l-7.2-7.2M259.8 345.3l-7.2-7.2M255.9 345.3l-7.2-7.2M251.8 345.3l-7.2-7.2M247.8 345.3l-7.2-7.2M243.9 345.3l-6.7-6.8M239.8 345.3l-2.6-2.7M363 345.3l7.2-7.2M358.9 345.3l7.2-7.2M355 345.3l7.2-7.2M351 345.3l7.2-7.2M346.9 345.3l7.2-7.2M342.8 345.3l7.2-7.2M339 345.3l7.2-7.2M334.9 345.3l7.2-7.2M330.8 345.3l7.2-7.2M327 345.3l7.2-7.2M322.9 345.3l7.2-7.2M318.8 345.3l7.2-7.2M314.7 345.3l7.2-7.2M310.9 345.3l7.2-7.2M306.8 345.3l7.2-7.2M302.7 345.3l7.2-7.2M298.9 345.3l7.2-7.2M294.8 345.3l7.2-7.2M290.7 345.3l7.2-7.2M286.9 345.3l7.2-7.2M282.8 345.3l7.2-7.2M278.7 345.3l7.2-7.2M274.6 345.3l7.2-7.2M270.8 345.3l7.2-7.2M266.7 345.3l7.2-7.2M262.6 345.3l7.2-7.2M258.8 345.3l7.2-7.2M254.7 345.3l7.2-7.2M250.6 345.3l7.2-7.2M246.8 345.3l7.2-7.2M242.7 345.3l7.2-7.2M238.6 345.3l7.2-7.2M237.2 342.9l4.6-4.8M237.2 338.8l.7-.7"/><path class="cls-17" d="M237 345.3h129.8M237 338.1h136.3M237 338.1h136.3M237 345.3h129.8"/><path class="cls-20" d="M204.6 345.3v-4.8l-4.8 4.8h4.8"/><path class="cls-15" d="M204.8 342.1l-1-.7M203.8 345.3l-1.9-2M202.6 345.3l2.2-2.2"/><path class="cls-20" d="M204.6 345.3v-4.8l-4.8 4.8h4.8"/><path class="cls-15" d="M204.8 342.1l-1-.7M203.8 345.3l-1.9-2M202.6 345.3l2.2-2.2"/><path class="cls-17" d="M199.8 345.3h4.8M199.8 345.3h4.8"/><path class="cls-16" d="M204.6 344.1h2.6v1.7h-2.6zM234.3 344.1h2.6v1.7h-2.6zM207.2 344.1h27.1v1.7h-27.1zM207.2 344.1h27.1"/><path class="cls-2" d="M207 338.1h27.6"/><path class="cls-16" d="M234.1 338.1h.5"/><path class="cls-20" d="M204.6 338.1h2.3v6h-2.3v1.1"/><path class="cls-15" d="M207.2 340.7l-2.4-2.4M206.5 344.1l-1.7-2M204.8 343.1l2.4-2.4M204.8 339.3l1-1.2"/><path class="cls-17" d="M206.9 338.1v6h-2.3v1.1"/><path class="cls-20" d="M237 338.1h-2.4v6h2.4v1.2"/><path class="cls-15" d="M237.2 338.5l-.5-.4M237.2 342.6l-2.4-2.4M235.8 344.1l1.4-1.2M234.8 341.2l2.4-2.4"/><path class="cls-17" d="M237 338.1h-2.4v6h2.4v1.2"/><path class="cls-16" d="M374 346.9h2.4l.2 1.7H374v-1.7zM403.5 345l2.7-.2.2 1.7-2.6.2-.3-1.7z"/><path class="cls-16" d="M376.4 346.9l27.1-1.9.3 1.7-27.2 1.9-.2-1.7z"/><path class="cls-2" d="M375.7 338.1h27.8"/><path class="cls-16" d="M403 338.1h.5"/><path class="cls-21" d="M57.4 33.5H42.6V.1h14.8v33.4"/><path class="cls-20" d="M42.6 33.5h3.3V.1h-3.3v33.4"/><path class="cls-15" d="M42.8 31.8l1.4 1.7M42.8 28l3.4 3.3M42.8 23.9l3.4 3.4M42.8 19.8l3.4 3.4M42.8 15.7l3.4 3.4M42.8 11.9l3.4 3.4M42.8 7.8l3.4 3.4M42.8 3.7l3.4 3.4M43 .1l3.2 3.2"/><path class="cls-20" d="M45.9 33.5h.7V.1h-.7v33.4M46.6 33.5h5.6V.1h-5.6v33.4"/><path class="cls-15" d="M52.4.4h-5.5M52.4 1.8h-5.5M52.4 3.3h-5.5M52.4 4.7h-5.5M52.4 6.1h-5.5M52.4 7.3h-5.5M52.4 8.8h-5.5M52.4 10.2h-5.5M52.4 11.7h-5.5M52.4 13.1h-5.5M52.4 14.5h-5.5M52.4 16h-5.5M52.4 17.4h-5.5M52.4 18.9h-5.5M52.4 20.3h-5.5M52.4 21.5h-5.5M52.4 22.9h-5.5M52.4 24.4h-5.5M52.4 25.8h-5.5M52.4 27.3h-5.5M52.4 28.7h-5.5M52.4 30.1h-5.5M52.4 31.6h-5.5M52.4 33h-5.5"/><path class="cls-20" d="M52.2 33.5h5.2V.1h-5.2v33.4"/><path class="cls-15" d="M52.4 29.4l3.8 4.1M52.4 25.3l5.3 5.3M52.4 21.5l5.3 5.3M52.4 17.4l5.3 5.3M52.4 13.3l5.3 5.3M52.4 9.5l5.3 5.3M52.4 5.4l5.3 5.3M52.4 1.3l5.3 5.3M55 .1l2.7 2.7"/><path class="cls-17" d="M45.9 33.5V.1M42.6 33.5V.1"/><path class="cls-15" d="M52.2 33.5V.1M46.6 33.5V.1"/><path class="cls-17" d="M57.4 33.5V.1M52.2 33.5V.1"/><path class="cls-16" d="M42.6 33.5V.1M57.4 33.5V.1"/><path class="cls-21" d="M57.4 136.7H42.6V74.3h14.8v62.4"/><path class="cls-20" d="M42.6 136.7h3.3V74.3h-3.3v62.4"/><path class="cls-15" d="M42.8 136.2l.5.5M42.8 132.1l3.4 3.4M42.8 128.1l3.4 3.3M42.8 124l3.4 3.3M42.8 120.1l3.4 3.4M42.8 116.1l3.4 3.3M42.8 112l3.4 3.3M42.8 108.1l3.4 3.4M42.8 104.1l3.4 3.3M42.8 100l3.4 3.3M42.8 96.1l3.4 3.4M42.8 92.1l3.4 3.3M42.8 88l3.4 3.3M42.8 83.9l3.4 3.4M42.8 80.1l3.4 3.3M42.8 76l3.4 3.3M45 74.3l1.2 1"/><path class="cls-20" d="M45.9 136.7h.7V74.3h-.7v62.4M46.6 136.7h5.6V74.3h-5.6v62.4"/><path class="cls-15" d="M52.4 75.5h-5.5M52.4 76.9h-5.5M52.4 78.4h-5.5M52.4 79.8h-5.5M52.4 81.3h-5.5M52.4 82.5h-5.5M52.4 83.9h-5.5M52.4 85.3h-5.5M52.4 86.8h-5.5M52.4 88.2h-5.5M52.4 89.7h-5.5M52.4 91.1h-5.5M52.4 92.5h-5.5M52.4 94h-5.5M52.4 95.4h-5.5M52.4 96.6h-5.5M52.4 98.1h-5.5M52.4 99.5h-5.5M52.4 100.9h-5.5M52.4 102.4h-5.5M52.4 103.8h-5.5M52.4 105.3h-5.5M52.4 106.7h-5.5M52.4 108.1h-5.5M52.4 109.6h-5.5M52.4 111h-5.5M52.4 112.2h-5.5M52.4 113.7h-5.5M52.4 115.1h-5.5M52.4 116.5h-5.5M52.4 118h-5.5M52.4 119.4h-5.5M52.4 120.9h-5.5M52.4 122.3h-5.5M52.4 123.7h-5.5M52.4 125.2h-5.5M52.4 126.4h-5.5M52.4 127.8h-5.5M52.4 129.3h-5.5M52.4 130.7h-5.5M52.4 132.1h-5.5M52.4 133.6h-5.5M52.4 135h-5.5M52.4 136.5h-5.5"/><path class="cls-20" d="M52.2 136.7h5.2V74.3h-5.2v62.4"/><path class="cls-15" d="M52.4 133.6l2.9 3.1M52.4 129.7l5.3 5.3M52.4 125.7l5.3 5.2M52.4 121.6l5.3 5.3M52.4 117.7l5.3 5.3M52.4 113.7l5.3 5.2M52.4 109.6l5.3 5.3M52.4 105.7l5.3 5.3M52.4 101.7l5.3 5.2M52.4 97.6l5.3 5.3M52.4 93.5l5.3 5.3M52.4 89.7l5.3 5.2M52.4 85.6l5.3 5.3M52.4 81.5l5.3 5.3M52.4 77.7l5.3 5.2M53.1 74.3l4.6 4.6M57 74.3l.7.5"/><path class="cls-17" d="M45.9 136.7V74.3M42.6 136.7V74.3"/><path class="cls-15" d="M52.2 136.7V74.3M46.6 136.7V74.3"/><path class="cls-17" d="M57.4 136.7V74.3M52.2 136.7V74.3"/><path class="cls-16" d="M42.6 136.7V74.3M57.4 136.7V74.3"/><path class="cls-21" d="M57.4 262H42.6v-62.4h14.8V262"/><path class="cls-20" d="M42.6 262h3.3v-62.4h-3.3V262"/><path class="cls-15" d="M42.8 260.3l1.4 1.7M42.8 256.5l3.4 3.3M42.8 252.4l3.4 3.3M42.8 248.3l3.4 3.4M42.8 244.5l3.4 3.3M42.8 240.4l3.4 3.3M42.8 236.3l3.4 3.4M42.8 232.2l3.4 3.4M42.8 228.4l3.4 3.3M42.8 224.3l3.4 3.4M42.8 220.2l3.4 3.4M42.8 216.4l3.4 3.3M42.8 212.3l3.4 3.4M42.8 208.2l3.4 3.4M42.8 204.1l3.4 3.4M42.8 200.3l3.4 3.4M45.9 199.6h.3"/><path class="cls-20" d="M45.9 262h.7v-62.4h-.7V262M46.6 262h5.6v-62.4h-5.6V262"/><path class="cls-15" d="M52.4 200.3h-5.5M52.4 201.5h-5.5M52.4 202.9h-5.5M52.4 204.4h-5.5M52.4 205.8h-5.5M52.4 207.3h-5.5M52.4 208.7h-5.5M52.4 210.1h-5.5M52.4 211.6h-5.5M52.4 213h-5.5M52.4 214.5h-5.5M52.4 215.9h-5.5M52.4 217.1h-5.5M52.4 218.5h-5.5M52.4 220h-5.5M52.4 221.4h-5.5M52.4 222.9h-5.5M52.4 224.3h-5.5M52.4 225.7h-5.5M52.4 227.2h-5.5M52.4 228.6h-5.5M52.4 230.1h-5.5M52.4 231.5h-5.5M52.4 232.7h-5.5M52.4 234.1h-5.5M52.4 235.6h-5.5M52.4 237h-5.5M52.4 238.5h-5.5M52.4 239.9h-5.5M52.4 241.3h-5.5M52.4 242.8h-5.5M52.4 244.2h-5.5M52.4 245.7h-5.5M52.4 246.9h-5.5M52.4 248.3h-5.5M52.4 249.7h-5.5M52.4 251.2h-5.5M52.4 252.6h-5.5M52.4 254.1h-5.5M52.4 255.5h-5.5M52.4 256.9h-5.5M52.4 258.4h-5.5M52.4 259.8h-5.5M52.4 261.3h-5.5"/><path class="cls-20" d="M52.2 262h5.2v-62.4h-5.2V262"/><path class="cls-15" d="M52.4 257.9l3.8 4.1M52.4 254.1l5.3 5.2M52.4 250l5.3 5.3M52.4 245.9l5.3 5.3M52.4 241.8l5.3 5.3M52.4 238l5.3 5.3M52.4 233.9l5.3 5.3M52.4 229.8l5.3 5.3M52.4 226l5.3 5.3M52.4 221.9l5.3 5.3M52.4 217.8l5.3 5.3M52.4 213.7l5.3 5.3M52.4 209.9l5.3 5.3M52.4 205.8l5.3 5.3M52.4 201.7l5.3 5.3M54.1 199.6l3.6 3.6"/><path class="cls-17" d="M45.9 262v-62.4M42.6 262v-62.4"/><path class="cls-15" d="M52.2 262v-62.4M46.6 262v-62.4"/><path class="cls-17" d="M57.4 262v-62.4M52.2 262v-62.4"/><path class="cls-16" d="M42.6 262v-62.4M57.4 262v-62.4"/><path class="cls-21" d="M57.4 351H42.6v-26.1h14.8V351"/><path class="cls-20" d="M42.6 351h3.3v-26.1h-3.3V351"/><path class="cls-15" d="M42.8 348.6l2.4 2.4M42.8 344.5l3.4 3.4M42.8 340.5l3.4 3.3M42.8 336.6l3.4 3.4M42.8 332.5l3.4 3.4M42.8 328.5l3.4 3.3M43 324.9l3.2 3.1"/><path class="cls-20" d="M45.9 351h.7v-26.1h-.7V351M46.6 351h5.6v-26.1h-5.6V351"/><path class="cls-15" d="M52.4 324.9h-5.5M52.4 326.3h-5.5M52.4 327.7h-5.5M52.4 329.2h-5.5M52.4 330.6h-5.5M52.4 332.1h-5.5M52.4 333.5h-5.5M52.4 334.9h-5.5M52.4 336.4h-5.5M52.4 337.6h-5.5M52.4 339h-5.5M52.4 340.5h-5.5M52.4 341.9h-5.5M52.4 343.3h-5.5M52.4 344.8h-5.5M52.4 346.2h-5.5M52.4 347.7h-5.5M52.4 349.1h-5.5M52.4 350.5h-5.5"/><path class="cls-20" d="M52.2 351h5.2v-26.1h-5.2V351"/><path class="cls-15" d="M52.4 350.1l.7.9M52.4 346.2l4.8 4.8M52.4 342.1l5.3 5.3M52.4 338.1l5.3 5.2M52.4 334.2l5.3 5.3M52.4 330.1l5.3 5.3M52.4 326.1l5.3 5.2M55 324.9l2.7 2.4"/><path class="cls-17" d="M45.9 351v-26.1M42.6 351v-26.1"/><path class="cls-15" d="M52.2 351v-26.1M46.6 351v-26.1"/><path class="cls-17" d="M57.4 351v-26.1M52.2 351v-26.1"/><path class="cls-16" d="M42.6 351v-26.1M57.4 351v-26.1M50 197.9h-7.4v3.4h-1.7v-66h1.7v3.3H50"/><path class="cls-2" d="M57.4 199.6v-62.9"/><path class="cls-17" d="M42.6 197.9v3.4M42.6 138.6v-3.3"/><path class="cls-16" d="M50 136.7h2.2v62.9H50zM50 196h2.2M50 140.3h2.2M52.2 199.6H50M52.2 180.6H50M52.2 196H50M52.2 176.5H50M52.2 180.6H50M52.2 159.7H50M52.2 176.5H50M52.2 155.7H50M52.2 159.7H50M52.2 140.3H50M52.2 155.7H50M52.2 136.7H50"/><path class="cls-20" d="M46.6 199.6v-1.8H50v1.8"/><path class="cls-15" d="M50.2 198.9h-3.3M46.6 199.6v-1.8H50v1.8"/><path class="cls-17" d="M52.2 199.6h5.2"/><path class="cls-20" d="M42.6 199.6v-1.7h3.3v1.7"/><path class="cls-15" d="M44.2 197.9l1.7 1.7"/><path class="cls-17" d="M42.6 199.6v-1.7h3.3v1.7M45.9 197.9H50"/><path class="cls-20" d="M46.6 136.7v1.9H50v-1.9"/><path class="cls-15" d="M50.2 137.9h-3.3M46.6 136.7v1.9H50v-1.9"/><path class="cls-17" d="M52.2 136.7h5.2"/><path class="cls-20" d="M42.6 136.7v1.9h3.3v-1.9"/><path class="cls-15" d="M43.3 136.7l1.9 1.9"/><path class="cls-17" d="M42.6 136.7v1.9h3.3v-1.9M45.9 138.6H50"/><path class="cls-16" d="M50 72.6h-7.4V76h-1.7V32.1h1.7v3.3H50"/><path class="cls-2" d="M57.4 74.3V33.5"/><path class="cls-16" d="M57.4 34v-.5"/><path class="cls-17" d="M42.6 72.6V76M42.6 35.4v-3.3"/><path class="cls-16" d="M50 33.5h2.2v40.8H50zM50 70.7h2.2M50 37.1h2.2M52.2 74.3H50M52.2 56.1H50M52.2 70.7H50M52.2 52H50M52.2 56.1H50M52.2 37.1H50M52.2 52H50M52.2 33.5H50"/><path class="cls-20" d="M46.6 74.4v-1.9H50v1.9"/><path class="cls-15" d="M50.2 72.6h-3.3M50.2 74.1h-3.3M46.6 74.4v-1.9H50v1.9"/><path class="cls-17" d="M52.2 74.3h5.2"/><path class="cls-20" d="M42.6 74.3v-1.7h3.3v1.7"/><path class="cls-15" d="M43.3 72.6l1.7 1.7"/><path class="cls-17" d="M42.6 74.3v-1.7h3.3v1.7M45.9 72.6H50"/><path class="cls-20" d="M46.6 33.5v1.9H50v-1.9"/><path class="cls-15" d="M50.2 34.5h-3.3M46.6 33.5v1.9H50v-1.9"/><path class="cls-17" d="M52.2 33.5h5.2"/><path class="cls-20" d="M42.6 33.5v1.9h3.3v-1.9"/><path class="cls-15" d="M44.2 33.5l2 1.7"/><path class="cls-17" d="M42.6 33.5v1.9h3.3v-1.9M45.9 35.4H50"/><path class="cls-2" d="M57.4 324.9V262"/><path class="cls-16" d="M50 262h2.2v62.9H50zM50 321.3h2.2M50 265.6h2.2M52.2 324.9H50M52.2 305.9H50M52.2 321.3H50M52.2 301.8H50M52.2 305.9H50M52.2 285H50M52.2 301.8H50M52.2 280.9H50M52.2 285H50M52.2 265.6H50M52.2 280.9H50M52.2 262H50"/><path class="cls-17" d="M52.2 324.9h5.2"/><path class="cls-16" d="M42.6 260.5h-1.7"/><path class="cls-1" d="M40.9 260.5v66"/><path class="cls-16" d="M40.9 326.5h1.2"/><path class="cls-20" d="M46.6 324.9v-1.8H50v1.8"/><path class="cls-15" d="M50.2 323.4h-3.3M46.6 324.9v-1.8H50v1.8"/><path class="cls-20" d="M42.6 324.9v-1.7h3.3v1.7"/><path class="cls-15" d="M42.8 324.6l.2.3M45.4 323.2l.8.7"/><path class="cls-17" d="M42.6 324.9v-1.7h3.3v1.7M45.9 323.2H50"/><path class="cls-20" d="M46.6 262v1.8H50V262"/><path class="cls-15" d="M50.2 262.5h-3.3M46.6 262v1.8H50V262"/><path class="cls-17" d="M52.2 262h5.2"/><path class="cls-20" d="M42.6 262v1.9h3.3V262"/><path class="cls-15" d="M44.2 262l2 1.7"/><path class="cls-17" d="M42.6 262v1.9h3.3V262M45.9 263.9H50"/><path class="cls-21" d="M368 236.5h14.9v8H368v-8"/><path class="cls-20" d="M382.9 236.5h-3.6v8h3.6v-8"/><path class="cls-15" d="M379.5 244.2v.3M379.5 240.4l3.6 3.6M379.5 236.5l3.6 3.4"/><path class="cls-20" d="M379.3 236.5h-.5v8h.5v-8M378.8 236.5H373v8h5.8v-8"/><path class="cls-15" d="M373.3 244.2h5.7M373.3 242.8h5.7M373.3 241.3h5.7M373.3 239.9h5.7M373.3 238.5h5.7M373.3 237h5.7"/><path class="cls-20" d="M373 236.5h-5v8h5v-8"/><path class="cls-15" d="M368.2 241.1l3.4 3.4M368.2 237l5.1 5.1M371.6 236.5l1.7 1.5"/><path class="cls-17" d="M379.3 236.5v8M382.9 236.5v8"/><path class="cls-15" d="M373 236.5v8M378.8 236.5v8"/><path class="cls-17" d="M368 236.5v8M373 236.5v8"/><path class="cls-16" d="M382.9 236.5v8M368 236.5v8"/><path class="cls-21" d="M368 166.5h14.9v29.2H368v-29.2"/><path class="cls-20" d="M382.9 166.5h-3.6v29.2h3.6v-29.2"/><path class="cls-15" d="M379.5 192.1l3.4 3.6M379.5 188.3l3.6 3.6M379.5 184.2l3.6 3.6M379.5 180.1l3.6 3.6M379.5 176.1l3.6 3.6M379.5 172.2l3.6 3.6M379.5 168.1l3.6 3.6M381.7 166.5l1.4 1.2"/><path class="cls-20" d="M379.3 166.5h-.5v29.2h.5v-29.2M378.8 166.5H373v29.2h5.8v-29.2"/><path class="cls-15" d="M373.3 194.5h5.7M373.3 193.1h5.7M373.3 191.7h5.7M373.3 190.2h5.7M373.3 188.8h5.7M373.3 187.3h5.7M373.3 186.1h5.7M373.3 184.7h5.7M373.3 183.3h5.7M373.3 181.8h5.7M373.3 180.4h5.7M373.3 178.9h5.7M373.3 177.5h5.7M373.3 176.1h5.7M373.3 174.6h5.7M373.3 173.2h5.7M373.3 171.7h5.7M373.3 170.5h5.7M373.3 169.1h5.7M373.3 167.7h5.7"/><path class="cls-20" d="M373 166.5h-5v29.2h5v-29.2"/><path class="cls-15" d="M368.2 192.9l2.7 2.8M368.2 189l5.1 5.1M368.2 184.9l5.1 5.1M368.2 180.9l5.1 5M368.2 177l5.1 5.1M368.2 172.9l5.1 5.1M368.2 168.9l5.1 5M369.7 166.5l3.6 3.3"/><path class="cls-17" d="M379.3 166.5v29.2M382.9 166.5v29.2"/><path class="cls-15" d="M373 166.5v29.2M378.8 166.5v29.2"/><path class="cls-17" d="M368 166.5v29.2M373 166.5v29.2"/><path class="cls-16" d="M382.9 166.5v29.2M368 166.5v29.2"/><path class="cls-21" d="M368 74.3h14.9v29.3H368V74.3"/><path class="cls-20" d="M382.9 74.3h-3.6v29.3h3.6V74.3"/><path class="cls-15" d="M379.5 100l3.4 3.6M379.5 95.9l3.6 3.6M379.5 92.1l3.6 3.6M379.5 88l3.6 3.6M379.5 83.9l3.6 3.6M379.5 80.1l3.6 3.6M379.5 76l3.6 3.6M381.7 74.3l1.4 1.2"/><path class="cls-20" d="M379.3 74.3h-.5v29.3h.5V74.3M378.8 74.3H373v29.3h5.8V74.3"/><path class="cls-15" d="M373.3 102.4h5.7M373.3 100.9h5.7M373.3 99.5h5.7M373.3 98.1h5.7M373.3 96.6h5.7M373.3 95.4h5.7M373.3 94h5.7M373.3 92.5h5.7M373.3 91.1h5.7M373.3 89.7h5.7M373.3 88.2h5.7M373.3 86.8h5.7M373.3 85.3h5.7M373.3 83.9h5.7M373.3 82.5h5.7M373.3 81.3h5.7M373.3 79.8h5.7M373.3 78.4h5.7M373.3 76.9h5.7M373.3 75.5h5.7"/><path class="cls-20" d="M373 74.3h-5v29.3h5V74.3"/><path class="cls-15" d="M368.2 100.7l2.7 2.9M368.2 96.9l5.1 5M368.2 92.8l5.1 5M368.2 88.7l5.1 5M368.2 84.6l5.1 5.1M368.2 80.8l5.1 5M368.2 76.7l5.1 5M369.7 74.3l3.6 3.4"/><path class="cls-17" d="M379.3 74.3v29.3M382.9 74.3v29.3"/><path class="cls-15" d="M373 74.3v29.3M378.8 74.3v29.3"/><path class="cls-17" d="M368 74.3v29.3M373 74.3v29.3"/><path class="cls-16" d="M382.9 74.3v29.3M368 74.3v29.3"/><path class="cls-21" d="M368 .1h14.9v33.4H368V.1"/><path class="cls-20" d="M382.9.1h-3.6v33.4h3.6V.1"/><path class="cls-15" d="M379.5 31.8l1.5 1.7M379.5 27.7l3.6 3.6M379.5 23.9l3.6 3.6M379.5 19.8l3.6 3.6M379.5 15.7l3.6 3.6M379.5 11.9l3.6 3.6M379.5 7.8l3.6 3.6M379.5 3.7l3.6 3.6M379.8.1l3.3 3.4"/><path class="cls-20" d="M379.3.1h-.5v33.4h.5V.1M378.8.1H373v33.4h5.8V.1"/><path class="cls-15" d="M373.3 33h5.7M373.3 31.6h5.7M373.3 30.1h5.7M373.3 28.7h5.7M373.3 27.3h5.7M373.3 25.8h5.7M373.3 24.4h5.7M373.3 22.9h5.7M373.3 21.5h5.7M373.3 20.3h5.7M373.3 18.9h5.7M373.3 17.4h5.7M373.3 16h5.7M373.3 14.5h5.7M373.3 13.1h5.7M373.3 11.7h5.7M373.3 10.2h5.7M373.3 8.8h5.7M373.3 7.3h5.7M373.3 6.1h5.7M373.3 4.7h5.7M373.3 3.3h5.7M373.3 1.8h5.7M373.3.4h5.7"/><path class="cls-20" d="M373 .1h-5v33.4h5V.1"/><path class="cls-15" d="M368.2 32.5l.8 1M368.2 28.7l4.8 4.8M368.2 24.6l5.1 5.1M368.2 20.5l5.1 5.1M368.2 16.5l5.1 5M368.2 12.6l5.1 5.1M368.2 8.5l5.1 5.1M368.2 4.5l5.1 5M368.2.6l5.1 5.1M371.8.1l1.5 1.5"/><path class="cls-17" d="M379.3.1v33.4M382.9.1v33.4"/><path class="cls-15" d="M373 .1v33.4M378.8.1v33.4"/><path class="cls-17" d="M368 .1v33.4M373 .1v33.4"/><path class="cls-16" d="M382.9.1v33.4M368 .1v33.4M375.4 35.4h7.5v-3.3h1.7V76h-1.7v-3.4h-7.5"/><path class="cls-2" d="M368 33.5v40.8"/><path class="cls-16" d="M368 73.8v.5"/><path class="cls-17" d="M382.9 35.4v-3.3M382.9 72.6V76"/><path class="cls-16" d="M373 33.5h2.4v40.8H373zM375.4 37.1H373M375.4 70.7H373M373 33.5h2.4M373 52h2.4M373 37.1h2.4M373 56.1h2.4M373 52h2.4M373 70.7h2.4M373 56.1h2.4M373 74.3h2.4"/><path class="cls-20" d="M378.8 33.5v1.9h-3.4v-1.9"/><path class="cls-15" d="M375.7 34.5h3.3M378.8 33.5v1.9h-3.4v-1.9"/><path class="cls-17" d="M373 33.5h-5"/><path class="cls-20" d="M382.9 33.5v1.9h-3.6v-1.9"/><path class="cls-15" d="M381 33.5l1.9 1.9"/><path class="cls-17" d="M382.9 33.5v1.9h-3.6v-1.9M379.3 35.4h-3.9"/><path class="cls-20" d="M378.8 74.4v-1.9h-3.4v1.9"/><path class="cls-15" d="M375.7 74.1h3.3M375.7 72.6h3.3M378.8 74.4v-1.9h-3.4v1.9"/><path class="cls-17" d="M373 74.3h-5"/><path class="cls-20" d="M382.9 74.3v-1.7h-3.6v1.7"/><path class="cls-15" d="M380 72.6l1.7 1.7"/><path class="cls-17" d="M382.9 74.3v-1.7h-3.6v1.7M379.3 72.6h-3.9"/><path class="cls-2" d="M368 103.6v62.9"/><path class="cls-16" d="M373 103.6h2.4v62.9H373zM375.4 107.2H373M375.4 162.9H373M373 103.6h2.4M373 122.5h2.4M373 107.2h2.4M373 126.6h2.4M373 122.5h2.4M373 143.4h2.4M373 126.6h2.4M373 147.5h2.4M373 143.4h2.4M373 162.9h2.4M373 147.5h2.4M373 166.5h2.4"/><path class="cls-17" d="M373 103.6h-5"/><path class="cls-16" d="M382.9 168.1h1.7"/><path class="cls-1" d="M384.6 168.1v-66.2"/><path class="cls-16" d="M384.6 101.9h-1"/><path class="cls-20" d="M378.8 103.5v1.9h-3.4v-1.9"/><path class="cls-15" d="M375.7 105.3h3.3M375.7 103.8h3.3M378.8 103.5v1.9h-3.4v-1.9"/><path class="cls-20" d="M382.9 103.6v1.9h-3.6v-1.9"/><path class="cls-15" d="M379.5 104.1l1.5 1.4M382.9 103.6h.2"/><path class="cls-17" d="M382.9 103.6v1.9h-3.6v-1.9M379.3 105.5h-3.9"/><path class="cls-20" d="M378.8 166.5v-1.9h-3.4v1.9"/><path class="cls-15" d="M375.7 166.2h3.3M375.7 164.8h3.3M378.8 166.5v-1.9h-3.4v1.9"/><path class="cls-17" d="M373 166.5h-5"/><path class="cls-20" d="M382.9 166.5v-2h-3.6v2"/><path class="cls-15" d="M379.8 164.5l1.9 2"/><path class="cls-17" d="M382.9 166.5v-2h-3.6v2M379.3 164.5h-3.9"/><path class="cls-16" d="M375.4 197.4h7.5v-3.3h1.7V238h-1.7v-3.4h-7.5"/><path class="cls-2" d="M368 195.7v40.8"/><path class="cls-16" d="M368 236.1v.4"/><path class="cls-17" d="M382.9 197.4v-3.3M382.9 234.6v3.4"/><path class="cls-16" d="M373 195.7h2.4v40.8H373zM375.4 199.3H373M375.4 232.7H373M373 195.7h2.4M373 214h2.4M373 199.3h2.4M373 218.1h2.4M373 214h2.4M373 232.7h2.4M373 218.1h2.4M373 236.5h2.4"/><path class="cls-20" d="M378.8 195.7v1.8h-3.4v-1.8"/><path class="cls-15" d="M375.7 197.4h3.3M375.7 196h3.3M378.8 195.7v1.8h-3.4v-1.8"/><path class="cls-17" d="M373 195.7h-5"/><path class="cls-20" d="M382.9 195.7v1.7h-3.6v-1.7"/><path class="cls-15" d="M379.5 196.2l1 1.2M382.9 195.7h.2"/><path class="cls-17" d="M382.9 195.7v1.7h-3.6v-1.7M379.3 197.4h-3.9"/><path class="cls-20" d="M378.8 236.5v-1.8h-3.4v1.8"/><path class="cls-15" d="M375.7 235.6h3.3M378.8 236.5v-1.8h-3.4v1.8"/><path class="cls-17" d="M373 236.5h-5"/><path class="cls-20" d="M382.9 236.5v-1.9h-3.6v1.9"/><path class="cls-15" d="M379.5 236.3v.2M381.7 234.6l1.4 1.2"/><path class="cls-17" d="M382.9 236.5v-1.9h-3.6v1.9M379.3 234.6h-3.9"/><path class="cls-20" d="M52.2 7.3V.1H373v7.2H52.2"/><path class="cls-15" d="M373.3 1.6L371.8.1M373.3 5.7L367.8.1M370.9 7.3L363.7.1M366.8 7.3L359.6.1M363 7.3L355.8.1M358.9 7.3L351.7.1M354.8 7.3L347.6.1M351 7.3L343.8.1M346.9 7.3L339.7.1M342.8 7.3L335.6.1M339 7.3L331.8.1M334.9 7.3L327.7.1M330.8 7.3L323.6.1M326.7 7.3L319.5.1M322.9 7.3L315.7.1M318.8 7.3L311.6.1M314.7 7.3L307.5.1M310.9 7.3L303.7.1M306.8 7.3L299.6.1M302.7 7.3L295.5.1M298.6 7.3L291.4.1M294.8 7.3L287.6.1M290.7 7.3L283.5.1M286.6 7.3L279.4.1M282.8 7.3L275.6.1M278.7 7.3L271.5.1M274.6 7.3L267.4.1M270.8 7.3L263.6.1M266.7 7.3L259.5.1M262.6 7.3L255.4.1M258.6 7.3L251.4.1M254.7 7.3L247.5.1M250.6 7.3L243.4.1M246.6 7.3L239.4.1M242.7 7.3L235.5.1M238.6 7.3L231.4.1M234.6 7.3L227.4.1M230.7 7.3L223.5.1M226.6 7.3L219.4.1M222.6 7.3L215.4.1M218.5 7.3L211.3.1M214.6 7.3L207.4.1M210.6 7.3L203.4.1M206.5 7.3L199.3.1M202.6 7.3L195.4.1M198.6 7.3L191.4.1M194.5 7.3L187.3.1M190.4 7.3L183.2.1M186.6 7.3L179.4.1M182.5 7.3L175.3.1M178.4 7.3L171.2.1M174.6 7.3L167.4.1M170.5 7.3L163.3.1M166.4 7.3L159.2.1M162.6 7.3L155.4.1M158.5 7.3L151.3.1M154.4 7.3L147.2.1M150.3 7.3L143.1.1M146.5 7.3L139.3.1M142.4 7.3L135.2.1M138.3 7.3L131.1.1M134.5 7.3L127.3.1M130.4 7.3L123.2.1M126.3 7.3L119.1.1M122.5 7.3L115.3.1M118.4 7.3L111.2.1M114.3 7.3L107.1.1M110.2 7.3L103 .1M106.4 7.3L99.2.1M102.3 7.3L95.1.1M98.2 7.3L91 .1M94.4 7.3L87.2.1M90.3 7.3L83.1.1M86.2 7.3L79 .1M82.2 7.3L75 .1M78.3 7.3L71.1.1M74.2 7.3L67 .1M70.2 7.3L63 .1M66.3 7.3L59.1.1M62.2 7.3L55 .1M58.2 7.3l-5.8-6M54.3 7.3l-1.9-1.9M372.1 7.3l1.2-.9M368.2 7.3l5.1-5M364.2 7.3l7.2-7.2M360.1 7.3l7.2-7.2M356 7.3l7.2-7.2M352.2 7.3l7.2-7.2M348.1 7.3l7.2-7.2M344 7.3l7.2-7.2M340.2 7.3l7.2-7.2M336.1 7.3l7.2-7.2M332 7.3l7.2-7.2M328.2 7.3l7.2-7.2M324.1 7.3l7.2-7.2M320 7.3l7.2-7.2M315.9 7.3l7.2-7.2M312.1 7.3l7.2-7.2M308 7.3l7.2-7.2M303.9 7.3l7.2-7.2M300.1 7.3l7.2-7.2M296 7.3l7.2-7.2M291.9 7.3l7.2-7.2M287.8 7.3L295 .1M284 7.3l7.2-7.2M279.9 7.3l7.2-7.2M275.8 7.3L283 .1M272 7.3l7.2-7.2M267.9 7.3l7.2-7.2M263.8 7.3L271 .1M260 7.3l7.2-7.2M255.9 7.3l7.2-7.2M251.8 7.3L259 .1M247.8 7.3L255 .1M243.9 7.3l7.2-7.2M239.8 7.3L247 .1M235.8 7.3L243 .1M231.9 7.3l7.2-7.2M227.8 7.3L235 .1M223.8 7.3L231 .1M219.9 7.3l7.2-7.2M215.8 7.3L223 .1M211.8 7.3L219 .1M207.7 7.3l7.2-7.2M203.8 7.3L211 .1M199.8 7.3L207 .1M195.7 7.3l7.2-7.2M191.8 7.3L199 .1M187.8 7.3L195 .1M183.7 7.3l7.2-7.2M179.6 7.3l7.2-7.2M175.8 7.3L183 .1M171.7 7.3l7.2-7.2M167.6 7.3l7.2-7.2M163.8 7.3L171 .1M159.7 7.3l7.2-7.2M155.6 7.3l7.2-7.2M151.8 7.3L159 .1M147.7 7.3l7.2-7.2M143.6 7.3l7.2-7.2M139.5 7.3l7.2-7.2M135.7 7.3l7.2-7.2M131.6 7.3l7.2-7.2M127.5 7.3l7.2-7.2M123.7 7.3l7.2-7.2M119.6 7.3l7.2-7.2M115.5 7.3l7.2-7.2M111.7 7.3l7.2-7.2M107.6 7.3l7.2-7.2M103.5 7.3l7.2-7.2M99.4 7.3l7.2-7.2M95.6 7.3l7.2-7.2M91.5 7.3L98.7.1M87.4 7.3L94.6.1M83.6 7.3L90.8.1M79.5 7.3L86.7.1M75.4 7.3L82.6.1M71.6 7.3L78.8.1M67.5 7.3L74.7.1M63.4 7.3L70.6.1M59.4 7.3L66.6.1M55.5 7.3L62.7.1M52.4 6.4L58.6.1M52.4 2.5L54.6.1"/><path class="cls-20" d="M52.2.1v7.2H373V.1H52.2"/><path class="cls-15" d="M373.3 1.6L371.8.1M373.3 5.7L367.8.1M370.9 7.3L363.7.1M366.8 7.3L359.6.1M363 7.3L355.8.1M358.9 7.3L351.7.1M354.8 7.3L347.6.1M351 7.3L343.8.1M346.9 7.3L339.7.1M342.8 7.3L335.6.1M339 7.3L331.8.1M334.9 7.3L327.7.1M330.8 7.3L323.6.1M326.7 7.3L319.5.1M322.9 7.3L315.7.1M318.8 7.3L311.6.1M314.7 7.3L307.5.1M310.9 7.3L303.7.1M306.8 7.3L299.6.1M302.7 7.3L295.5.1M298.6 7.3L291.4.1M294.8 7.3L287.6.1M290.7 7.3L283.5.1M286.6 7.3L279.4.1M282.8 7.3L275.6.1M278.7 7.3L271.5.1M274.6 7.3L267.4.1M270.8 7.3L263.6.1M266.7 7.3L259.5.1M262.6 7.3L255.4.1M258.6 7.3L251.4.1M254.7 7.3L247.5.1M250.6 7.3L243.4.1M246.6 7.3L239.4.1M242.7 7.3L235.5.1M238.6 7.3L231.4.1M234.6 7.3L227.4.1M230.7 7.3L223.5.1M226.6 7.3L219.4.1M222.6 7.3L215.4.1M218.5 7.3L211.3.1M214.6 7.3L207.4.1M210.6 7.3L203.4.1M206.5 7.3L199.3.1M202.6 7.3L195.4.1M198.6 7.3L191.4.1M194.5 7.3L187.3.1M190.4 7.3L183.2.1M186.6 7.3L179.4.1M182.5 7.3L175.3.1M178.4 7.3L171.2.1M174.6 7.3L167.4.1M170.5 7.3L163.3.1M166.4 7.3L159.2.1M162.6 7.3L155.4.1M158.5 7.3L151.3.1M154.4 7.3L147.2.1M150.3 7.3L143.1.1M146.5 7.3L139.3.1M142.4 7.3L135.2.1M138.3 7.3L131.1.1M134.5 7.3L127.3.1M130.4 7.3L123.2.1M126.3 7.3L119.1.1M122.5 7.3L115.3.1M118.4 7.3L111.2.1M114.3 7.3L107.1.1M110.2 7.3L103 .1M106.4 7.3L99.2.1M102.3 7.3L95.1.1M98.2 7.3L91 .1M94.4 7.3L87.2.1M90.3 7.3L83.1.1M86.2 7.3L79 .1M82.2 7.3L75 .1M78.3 7.3L71.1.1M74.2 7.3L67 .1M70.2 7.3L63 .1M66.3 7.3L59.1.1M62.2 7.3L55 .1M58.2 7.3l-5.8-6M54.3 7.3l-1.9-1.9M372.1 7.3l1.2-.9M368.2 7.3l5.1-5M364.2 7.3l7.2-7.2M360.1 7.3l7.2-7.2M356 7.3l7.2-7.2M352.2 7.3l7.2-7.2M348.1 7.3l7.2-7.2M344 7.3l7.2-7.2M340.2 7.3l7.2-7.2M336.1 7.3l7.2-7.2M332 7.3l7.2-7.2M328.2 7.3l7.2-7.2M324.1 7.3l7.2-7.2M320 7.3l7.2-7.2M315.9 7.3l7.2-7.2M312.1 7.3l7.2-7.2M308 7.3l7.2-7.2M303.9 7.3l7.2-7.2M300.1 7.3l7.2-7.2M296 7.3l7.2-7.2M291.9 7.3l7.2-7.2M287.8 7.3L295 .1M284 7.3l7.2-7.2M279.9 7.3l7.2-7.2M275.8 7.3L283 .1M272 7.3l7.2-7.2M267.9 7.3l7.2-7.2M263.8 7.3L271 .1M260 7.3l7.2-7.2M255.9 7.3l7.2-7.2M251.8 7.3L259 .1M247.8 7.3L255 .1M243.9 7.3l7.2-7.2M239.8 7.3L247 .1M235.8 7.3L243 .1M231.9 7.3l7.2-7.2M227.8 7.3L235 .1M223.8 7.3L231 .1M219.9 7.3l7.2-7.2M215.8 7.3L223 .1M211.8 7.3L219 .1M207.7 7.3l7.2-7.2M203.8 7.3L211 .1M199.8 7.3L207 .1M195.7 7.3l7.2-7.2M191.8 7.3L199 .1M187.8 7.3L195 .1M183.7 7.3l7.2-7.2M179.6 7.3l7.2-7.2M175.8 7.3L183 .1M171.7 7.3l7.2-7.2M167.6 7.3l7.2-7.2M163.8 7.3L171 .1M159.7 7.3l7.2-7.2M155.6 7.3l7.2-7.2M151.8 7.3L159 .1M147.7 7.3l7.2-7.2M143.6 7.3l7.2-7.2M139.5 7.3l7.2-7.2M135.7 7.3l7.2-7.2M131.6 7.3l7.2-7.2M127.5 7.3l7.2-7.2M123.7 7.3l7.2-7.2M119.6 7.3l7.2-7.2M115.5 7.3l7.2-7.2M111.7 7.3l7.2-7.2M107.6 7.3l7.2-7.2M103.5 7.3l7.2-7.2M99.4 7.3l7.2-7.2M95.6 7.3l7.2-7.2M91.5 7.3L98.7.1M87.4 7.3L94.6.1M83.6 7.3L90.8.1M79.5 7.3L86.7.1M75.4 7.3L82.6.1M71.6 7.3L78.8.1M67.5 7.3L74.7.1M63.4 7.3L70.6.1M59.4 7.3L66.6.1M55.5 7.3L62.7.1M52.4 6.4L58.6.1M52.4 2.5L54.6.1"/><path class="cls-17" d="M52.2 7.3H373M52.2.1H373M373 7.3V.1M52.2.1H373M52.2 7.3H373M52.2 7.3V.1"/><path class="cls-20" d="M201 254.5l6 7h17.2v-7H201"/><path class="cls-15" d="M224.5 257.7l-3.1-3.2M224.2 261.5l-6.9-7M220.2 261.5l-7-7M216.1 261.5l-7-7M212.2 261.5l-6.9-7M208.2 261.5l-7-7M222.3 261.5l2.2-2.2M218.2 261.5l6.3-6.2M214.2 261.5l6.9-7M210.1 261.5l6.9-7M206.7 261l6.5-6.5M204.8 258.9l4.3-4.4M202.9 256.7l2.1-2.2M201.2 254.5"/><path class="cls-20" d="M201 254.5l6 7h17.2v-7H201"/><path class="cls-15" d="M224.5 257.7l-3.1-3.2M224.2 261.5l-6.9-7M220.2 261.5l-7-7M216.1 261.5l-7-7M212.2 261.5l-6.9-7M208.2 261.5l-7-7M222.3 261.5l2.2-2.2M218.2 261.5l6.3-6.2M214.2 261.5l6.9-7M210.1 261.5l6.9-7M206.7 261l6.5-6.5M204.8 258.9l4.3-4.4M202.9 256.7l2.1-2.2M201.2 254.5"/><path class="cls-17" d="M224.2 254.5h-16.3M224.2 261.5H207M224.2 261.5H207M224.2 254.5h-16.3"/><path class="cls-20" d="M373 254.5v7H260v-7h113"/><path class="cls-15" d="M373.3 258.1l-3.6-3.6M372.6 261.5l-7-7M368.5 261.5l-7-7M364.4 261.5l-7-7M360.6 261.5l-7-7M356.5 261.5l-7-7M352.4 261.5l-7-7M348.6 261.5l-7-7M344.5 261.5l-7-7M340.4 261.5l-7-7M336.3 261.5l-6.9-7M332.5 261.5l-7-7M328.4 261.5l-7-7M324.3 261.5l-6.9-7M320.5 261.5l-7-7M316.4 261.5l-7-7M312.3 261.5l-6.9-7M308.5 261.5l-7-7M304.4 261.5l-7-7M300.3 261.5l-6.9-7M296.2 261.5l-6.9-7M292.4 261.5l-7-7M288.3 261.5l-6.9-7M284.2 261.5l-6.9-7M280.4 261.5l-7-7M276.3 261.5l-6.9-7M272.2 261.5l-6.9-7M268.4 261.5l-7-7M264.3 261.5l-4.1-4.1M260.2 261.5v-.2M370.6 261.5l2.7-2.6M366.6 261.5l6.7-6.7M362.5 261.5l6.9-7M358.4 261.5l7-7M354.6 261.5l6.9-7M350.5 261.5l6.9-7M346.4 261.5l7-7M342.6 261.5l6.9-7M338.5 261.5l6.9-7M334.4 261.5l7-7M330.6 261.5l6.9-7M326.5 261.5l6.9-7M322.4 261.5l7-7M318.3 261.5l7-7M314.5 261.5l6.9-7M310.4 261.5l7-7M306.3 261.5l7-7M302.5 261.5l6.9-7M298.4 261.5l7-7M294.3 261.5l7-7M290.2 261.5l7-7M286.4 261.5l7-7M282.3 261.5l7-7M278.2 261.5l7-7M274.4 261.5l7-7M270.3 261.5l7-7M266.2 261.5l7-7M262.4 261.5l7-7M260.2 259.6l5.1-5.1M260.2 255.7l1-1.2"/><path class="cls-20" d="M373 261.5v-7H260v7h113"/><path class="cls-15" d="M373.3 258.1l-3.6-3.6M372.6 261.5l-7-7M368.5 261.5l-7-7M364.4 261.5l-7-7M360.6 261.5l-7-7M356.5 261.5l-7-7M352.4 261.5l-7-7M348.6 261.5l-7-7M344.5 261.5l-7-7M340.4 261.5l-7-7M336.3 261.5l-6.9-7M332.5 261.5l-7-7M328.4 261.5l-7-7M324.3 261.5l-6.9-7M320.5 261.5l-7-7M316.4 261.5l-7-7M312.3 261.5l-6.9-7M308.5 261.5l-7-7M304.4 261.5l-7-7M300.3 261.5l-6.9-7M296.2 261.5l-6.9-7M292.4 261.5l-7-7M288.3 261.5l-6.9-7M284.2 261.5l-6.9-7M280.4 261.5l-7-7M276.3 261.5l-6.9-7M272.2 261.5l-6.9-7M268.4 261.5l-7-7M264.3 261.5l-4.1-4.1M260.2 261.5v-.2M370.6 261.5l2.7-2.6M366.6 261.5l6.7-6.7M362.5 261.5l6.9-7M358.4 261.5l7-7M354.6 261.5l6.9-7M350.5 261.5l6.9-7M346.4 261.5l7-7M342.6 261.5l6.9-7M338.5 261.5l6.9-7M334.4 261.5l7-7M330.6 261.5l6.9-7M326.5 261.5l6.9-7M322.4 261.5l7-7M318.3 261.5l7-7M314.5 261.5l6.9-7M310.4 261.5l7-7M306.3 261.5l7-7M302.5 261.5l6.9-7M298.4 261.5l7-7M294.3 261.5l7-7M290.2 261.5l7-7M286.4 261.5l7-7M282.3 261.5l7-7M278.2 261.5l7-7M274.4 261.5l7-7M270.3 261.5l7-7M266.2 261.5l7-7M262.4 261.5l7-7M260.2 259.6l5.1-5.1M260.2 255.7l1-1.2"/><path class="cls-17" d="M373 254.5H260M373 261.5H260M373 261.5H260M373 254.5H260"/><path class="cls-16" d="M254 253.8h6v1.9h-6zM224.2 253.8h2.4v1.9h-2.4zM226.6 253.8H254v1.9h-27.4zM254 255.7h-27.4"/><path class="cls-2" d="M254.2 261.5h-27.8"/><path class="cls-16" d="M226.9 261.5h-.5"/><path class="cls-20" d="M260 261.5h-5.8v-5.8h5.8"/><path class="cls-15" d="M260.2 257.4l-1.6-1.7M260.2 261.3l-5.7-5.6M256.2 261.5l-1.7-1.9M258.3 261.5l1.9-1.9M254.5 261.5l5.5-5.8M254.5 257.4l1.4-1.7"/><path class="cls-20" d="M224.2 261.5h2.2v-5.8h-2.2"/><path class="cls-15" d="M226.6 255.7h-.2M226.6 259.8l-2.1-2.1M226.2 261.5l.4-.2M224.5 259.3l2.1-2.1"/><path class="cls-17" d="M254.2 261.5v-5.8M226.4 261.5v-5.8M254.2 261.5v-5.8M260 261.5h-5.8M226.4 261.5v-5.8M224.2 261.5h2.2M260 254.5v1.2M224.2 254.5v1.2M260 261.5h-5.8M224.2 261.5h2.2M254.2 255.7h5.8M226.4 255.7h-2.2"/><path class="cls-15" d="M253.9 253.9c0-14.9-12.3-27.2-27.2-27.2M226.6 253.8v-27.1"/><path class="cls-20" d="M146.2 297v7H207l-6-7h-54.8"/><path class="cls-15" d="M206.5 304l-7-7M202.6 304l-6.9-7M198.6 304l-7-7M194.5 304l-7-7M190.4 304l-7-7M186.6 304l-7-7M182.5 304l-7-7M178.4 304l-7-7M174.6 304l-7-7M170.5 304l-7-7M166.4 304l-7-7M162.6 304l-7-7M158.5 304l-7-7M154.4 304l-7-7M150.3 304l-3.8-4.1M203.8 304l1.7-1.7M199.8 304l3.8-3.9M195.7 304l6.2-6M191.8 304l7-7M187.8 304l6.9-7M183.7 304l6.9-7M179.8 304l7-7M175.8 304l6.9-7M171.7 304l6.9-7M167.6 304l7-7M163.8 304l6.9-7M159.7 304l6.9-7M155.6 304l7-7M151.8 304l6.9-7M147.7 304l6.9-7M146.5 301.3l4.1-4.3M146.5 297.3l.2-.3"/><path class="cls-20" d="M146.2 297v7H207l-6-7h-54.8"/><path class="cls-15" d="M206.5 304l-7-7M202.6 304l-6.9-7M198.6 304l-7-7M194.5 304l-7-7M190.4 304l-7-7M186.6 304l-7-7M182.5 304l-7-7M178.4 304l-7-7M174.6 304l-7-7M170.5 304l-7-7M166.4 304l-7-7M162.6 304l-7-7M158.5 304l-7-7M154.4 304l-7-7M150.3 304l-3.8-4.1M203.8 304l1.7-1.7M199.8 304l3.8-3.9M195.7 304l6.2-6M191.8 304l7-7M187.8 304l6.9-7M183.7 304l6.9-7M179.8 304l7-7M175.8 304l6.9-7M171.7 304l6.9-7M167.6 304l7-7M163.8 304l6.9-7M159.7 304l6.9-7M155.6 304l7-7M151.8 304l6.9-7M147.7 304l6.9-7M146.5 301.3l4.1-4.3M146.5 297.3l.2-.3"/><path class="cls-17" d="M201 297h-54.8M207 304h-60.8M207 304h-60.8M201 297h-54.8"/><path class="cls-20" d="M52.2 345.3v-7.2h86.6l7.4 7.2h-94"/><path class="cls-15" d="M143.6 345.3l-7.2-7.2M139.5 345.3l-7.2-7.2M135.7 345.3l-7.2-7.2M131.6 345.3l-7.2-7.2M127.5 345.3l-7.2-7.2M123.4 345.3l-7.2-7.2M119.6 345.3l-7.2-7.2M115.5 345.3l-7.2-7.2M111.4 345.3l-7.2-7.2M107.6 345.3l-7.2-7.2M103.5 345.3l-7.2-7.2M99.4 345.3l-7.2-7.2M95.6 345.3l-7.2-7.2M91.5 345.3l-7.2-7.2M87.4 345.3l-7.2-7.2M83.4 345.3l-7.2-7.2M79.5 345.3l-7.2-7.2M75.4 345.3l-7.2-7.2M71.4 345.3l-7.2-7.2M67.5 345.3l-7.2-7.2M63.4 345.3l-7.2-7.2M59.4 345.3l-7-7.2M55.3 345.3l-2.9-3.2M142.4 345.3l1.9-2M138.6 345.3l3.8-3.9M134.5 345.3l5.7-5.8M130.4 345.3l7.2-7.2M126.3 345.3l7.2-7.2M122.5 345.3l7.2-7.2M118.4 345.3l7.2-7.2M114.3 345.3l7.2-7.2M110.5 345.3l7.2-7.2M106.4 345.3l7.2-7.2M102.3 345.3l7.2-7.2M98.5 345.3l7.2-7.2M94.4 345.3l7.2-7.2M90.3 345.3l7.2-7.2M86.2 345.3l7.2-7.2M82.4 345.3l7.2-7.2M78.3 345.3l7.2-7.2M74.2 345.3l7.2-7.2M70.4 345.3l7.2-7.2M66.3 345.3l7.2-7.2M62.2 345.3l7.2-7.2M58.2 345.3l7.2-7.2M54.3 345.3l7.2-7.2M52.4 343.3l5-5.2M52.4 339.3l1-1.2"/><path class="cls-20" d="M52.2 338.1v7.2h94l-7.4-7.2H52.2"/><path class="cls-15" d="M143.6 345.3l-7.2-7.2M139.5 345.3l-7.2-7.2M135.7 345.3l-7.2-7.2M131.6 345.3l-7.2-7.2M127.5 345.3l-7.2-7.2M123.4 345.3l-7.2-7.2M119.6 345.3l-7.2-7.2M115.5 345.3l-7.2-7.2M111.4 345.3l-7.2-7.2M107.6 345.3l-7.2-7.2M103.5 345.3l-7.2-7.2M99.4 345.3l-7.2-7.2M95.6 345.3l-7.2-7.2M91.5 345.3l-7.2-7.2M87.4 345.3l-7.2-7.2M83.4 345.3l-7.2-7.2M79.5 345.3l-7.2-7.2M75.4 345.3l-7.2-7.2M71.4 345.3l-7.2-7.2M67.5 345.3l-7.2-7.2M63.4 345.3l-7.2-7.2M59.4 345.3l-7-7.2M55.3 345.3l-2.9-3.2M142.4 345.3l1.9-2M138.6 345.3l3.8-3.9M134.5 345.3l5.7-5.8M130.4 345.3l7.2-7.2M126.3 345.3l7.2-7.2M122.5 345.3l7.2-7.2M118.4 345.3l7.2-7.2M114.3 345.3l7.2-7.2M110.5 345.3l7.2-7.2M106.4 345.3l7.2-7.2M102.3 345.3l7.2-7.2M98.5 345.3l7.2-7.2M94.4 345.3l7.2-7.2M90.3 345.3l7.2-7.2M86.2 345.3l7.2-7.2M82.4 345.3l7.2-7.2M78.3 345.3l7.2-7.2M74.2 345.3l7.2-7.2M70.4 345.3l7.2-7.2M66.3 345.3l7.2-7.2M62.2 345.3l7.2-7.2M58.2 345.3l7.2-7.2M54.3 345.3l7.2-7.2M52.4 343.3l5-5.2M52.4 339.3l1-1.2"/><path class="cls-17" d="M52.2 345.3h94M52.2 338.1h86.6M52.2 338.1h86.6M52.2 345.3h94M52.2 345.3v-7.2"/><path class="cls-20" d="M373.3 338.1l-6.5 7.2.2 5.7 7.2-.5-.9-12.4"/><path class="cls-15" d="M373.5 338.5l-.2-.2M373.8 342.9l-2.4-2.4M374 347.2l-4.6-4.6M373.5 350.5l-6-6M369.7 350.8l-2.7-2.7M373.8 350.5l.4-.7M369.4 350.8l4.6-4.6M367 349.1l6.8-6.7M367 345.3l6.5-6.5"/><path class="cls-20" d="M373.3 338.1l-6.5 7.2.2 5.7 7.2-.5-.9-12.4"/><path class="cls-15" d="M373.5 338.5l-.2-.2M373.8 342.9l-2.4-2.4M374 347.2l-4.6-4.6M373.5 350.5l-6-6M369.7 350.8l-2.7-2.7M373.8 350.5l.4-.7M369.4 350.8l4.6-4.6M367 349.1l6.8-6.7M367 345.3l6.5-6.5"/><path class="cls-17" d="M373.8 345.3l-.5-7.2M366.8 345.7v-.4M366.8 345.7v-.4M373.8 345.3l-.5-7.2M367 351l-.2-5.3M374.2 350.5l-7.2.5M374.2 350.5l-.4-5.2"/><path class="cls-20" d="M83.4 232.9h61.2v-4.3H83.4v4.3"/><path class="cls-15" d="M83.6 231l2.4-2.4M86 232.9l4.3-4.3M90.1 232.9l4.3-4.3M94.4 232.9l4.3-4.3M98.7 232.9l4.3-4.3M102.8 232.9l4.3-4.3M107.1 232.9l4.3-4.3M111.4 232.9l4.4-4.3M115.8 232.9l4.3-4.3M119.8 232.9l4.4-4.3M124.2 232.9l4.3-4.3M128.5 232.9l4.3-4.3M132.6 232.9l4.3-4.3M136.9 232.9l4.3-4.3M141.2 232.9l3.6-3.6"/><path class="cls-20" d="M83.4 232.9h61.2v-4.3H83.4v4.3"/><path class="cls-15" d="M83.6 231l2.4-2.4M86 232.9l4.3-4.3M90.1 232.9l4.3-4.3M94.4 232.9l4.3-4.3M98.7 232.9l4.3-4.3M102.8 232.9l4.3-4.3M107.1 232.9l4.3-4.3M111.4 232.9l4.4-4.3M115.8 232.9l4.3-4.3M119.8 232.9l4.4-4.3M124.2 232.9l4.3-4.3M128.5 232.9l4.3-4.3M132.6 232.9l4.3-4.3M136.9 232.9l4.3-4.3M141.2 232.9l3.6-3.6"/><path class="cls-17" d="M144.6 228.6H83.4M144.6 232.9H83.4M144.6 232.9H83.4M144.6 228.6H83.4"/><path class="cls-16" d="M81.7 228.6v4.3M59.1 228.6v4.3"/><path class="cls-17" d="M83.4 228.6v4.3M57.4 228.6v4.3"/><path class="cls-15" d="M59.1 232.9c0 12.4 10.2 22.7 22.7 22.7M81.7 232.9v22.8"/><path class="cls-16" d="M366.6 304v34.1M358.9 304v34.1M351.2 304v34.1M343.8 304v34.1M336.1 304v34.1M328.4 304v34.1M320.7 304v34.1M313 304v34.1M248 297h122.4v5.8H248zM324.3 302.8l7.9 35.3M305.4 304v34.1M297.7 304v34.1M290 304v34.1M282.3 304v34.1M274.9 304v34.1M267.2 304v34.1M259.5 304v34.1M251.8 304v34.1"/><path class="cls-16" d="M246.6 295.6h125.3v8.4H246.6zM328.3 321.1l3.9 3.8M332.2 317.3l-3.9 3.8M332.2 324.9v-7.7M251.8 321.1l3.8 3.8M255.6 317.3l-3.8 3.8M255.7 324.9v-7.7M201.4 163.6h17v.5h-17zM217.8 164.1h.7v15.4h-.7zM201.4 164.1h.5v15.4h-.5zM219 170.8h.5v.7h-.5z"/><path class="cls-16" d="M201.4 179.4h17v.5h-17zM184.4 163.6h17v.5h-17zM200.7 164.1h.7v15.4h-.7zM184.4 164.1h.5v15.4h-.5z"/><path class="cls-16" d="M184.4 179.4h17v.5h-17zM167.4 163.6h17v.5h-17zM183.7 164.1h.7v15.4h-.7zM167.4 164.1h.5v15.4h-.5z"/><path class="cls-16" d="M167.4 179.4h17v.5h-17zM150.3 163.6h17v.5h-17zM166.9 164.1h.5v15.4h-.5zM150.3 164.1h.5v15.4h-.5z"/><path class="cls-16" d="M150.3 179.4h17v.5h-17zM149.1 170.8h.7v.7h-.7zM218.5 163.6h.5v16.3h-.5zM149.8 163.6h.5v16.3h-.5z"/><path class="cls-17" d="M368 97.3v-4"/><path class="cls-20" d="M83.4 97.3v-4h258.7v4H83.4"/><path class="cls-15" d="M83.6 95.2l1.7-1.9M85.5 97.3l4.1-4M89.8 97.3l4.1-4M93.9 97.3l4.1-4M98.2 97.3l4.1-4M102.6 97.3l4-4M106.9 97.3l4.1-4M111 97.3l4-4M115.3 97.3l4.1-4M119.6 97.3l4.1-4M123.7 97.3l4.1-4M128 97.3l4.1-4M132.3 97.3l4.1-4M136.4 97.3l4.1-4M140.7 97.3l4.1-4M145 97.3l4.1-4M149.4 97.3l4-4M153.4 97.3l4.1-4M157.8 97.3l4-4M162.1 97.3l4.1-4M166.2 97.3l4-4M170.5 97.3l4.1-4M174.8 97.3l4.1-4M179.1 97.3l4.1-4M183.2 97.3l4.1-4M187.5 97.3l4.1-4M191.8 97.3l4.1-4M195.9 97.3l4.1-4M200.2 97.3l4.1-4M204.6 97.3l4-4M208.9 97.3l4.1-4M213 97.3l4-4M217.3 97.3l4.1-4M221.6 97.3l4.1-4M225.7 97.3l4.1-4M230 97.3l4.1-4M234.3 97.3l4.1-4M238.4 97.3l4.1-4M242.7 97.3l4.1-4M247 97.3l4.1-4M251.4 97.3l4-4M255.4 97.3l4.1-4M259.8 97.3l4-4M264.1 97.3l4.1-4M268.2 97.3l4-4M272.5 97.3l4.1-4M276.8 97.3l4.1-4M281.1 97.3l4.1-4M285.2 97.3l4.1-4M289.5 97.3l4.1-4M293.8 97.3l4.1-4M297.9 97.3l4.1-4M302.2 97.3l4.1-4M306.6 97.3l4-4M310.9 97.3l4.1-4M315 97.3l4-4M319.3 97.3l4.1-4M323.6 97.3l4.1-4M327.7 97.3l4.1-4M332 97.3l4.1-4M336.3 97.3l4.1-4M340.4 97.3l1.9-1.6"/><path class="cls-20" d="M83.4 93.3v4h258.7v-4H83.4"/><path class="cls-15" d="M83.6 95.2l1.7-1.9M85.5 97.3l4.1-4M89.8 97.3l4.1-4M93.9 97.3l4.1-4M98.2 97.3l4.1-4M102.6 97.3l4-4M106.9 97.3l4.1-4M111 97.3l4-4M115.3 97.3l4.1-4M119.6 97.3l4.1-4M123.7 97.3l4.1-4M128 97.3l4.1-4M132.3 97.3l4.1-4M136.4 97.3l4.1-4M140.7 97.3l4.1-4M145 97.3l4.1-4M149.4 97.3l4-4M153.4 97.3l4.1-4M157.8 97.3l4-4M162.1 97.3l4.1-4M166.2 97.3l4-4M170.5 97.3l4.1-4M174.8 97.3l4.1-4M179.1 97.3l4.1-4M183.2 97.3l4.1-4M187.5 97.3l4.1-4M191.8 97.3l4.1-4M195.9 97.3l4.1-4M200.2 97.3l4.1-4M204.6 97.3l4-4M208.9 97.3l4.1-4M213 97.3l4-4M217.3 97.3l4.1-4M221.6 97.3l4.1-4M225.7 97.3l4.1-4M230 97.3l4.1-4M234.3 97.3l4.1-4M238.4 97.3l4.1-4M242.7 97.3l4.1-4M247 97.3l4.1-4M251.4 97.3l4-4M255.4 97.3l4.1-4M259.8 97.3l4-4M264.1 97.3l4.1-4M268.2 97.3l4-4M272.5 97.3l4.1-4M276.8 97.3l4.1-4M281.1 97.3l4.1-4M285.2 97.3l4.1-4M289.5 97.3l4.1-4M293.8 97.3l4.1-4M297.9 97.3l4.1-4M302.2 97.3l4.1-4M306.6 97.3l4-4M310.9 97.3l4.1-4M315 97.3l4-4M319.3 97.3l4.1-4M323.6 97.3l4.1-4M327.7 97.3l4.1-4M332 97.3l4.1-4M336.3 97.3l4.1-4M340.4 97.3l1.9-1.6"/><path class="cls-17" d="M224.2 97.3h117.9M148.9 97.3h71M83.4 97.3h61.2M237.7 93.3h104.4M182.5 93.3h50.9M83.4 93.3h94.8M237.7 93.3h104.4M224.2 97.3h117.9M182.5 93.3h50.9M148.9 97.3h71M83.4 93.3h94.8M83.4 97.3h61.2M57.4 97.3v-4"/><path class="cls-16" d="M343.8 97.3v-4M366.3 97.3v-4"/><path class="cls-17" d="M342.1 97.3v-4M368 97.3v-4"/><path class="cls-15" d="M366.3 93.2c0-6-2.4-11.8-6.6-16-4.3-4.3-10-6.6-16-6.6M343.8 93.3V70.5"/><path class="cls-16" d="M59.1 97.3v-4M81.7 97.3v-4"/><path class="cls-17" d="M57.4 97.3v-4M83.4 97.3v-4"/><path class="cls-15" d="M81.7 70.5C69.3 70.5 59 80.7 59 93.2M81.7 93.3V70.5"/><path class="cls-16" d="M219.9 106.2h-71"/><path class="cls-5" d="M219.9 106.9h-71"/><path class="cls-16" d="M219.9 104.8h-71M219.9 106.2h-71"/><path class="cls-5" d="M148.9 106.2v.7"/><path class="cls-16" d="M148.9 104.8v1.4M219.9 106.9h-71M219.9 104.8h-71"/><path class="cls-5" d="M219.9 106.2v.7"/><path class="cls-16" d="M219.9 104.8v1.4"/><path class="cls-20" d="M148.9 97.3h-4.3v19h4.3v-19"/><path class="cls-15" d="M144.8 97.6l.2-.3M144.8 101.9l4.3-4.3M144.8 106.2l4.3-4.3M144.8 110.5l4.3-4.3M144.8 114.6l4.3-4.3M147.2 116.3l1.9-1.7"/><path class="cls-20" d="M148.9 97.3h-4.3v19h4.3v-19"/><path class="cls-15" d="M144.8 97.6l.2-.3M144.8 101.9l4.3-4.3M144.8 106.2l4.3-4.3M144.8 110.5l4.3-4.3M144.8 114.6l4.3-4.3M147.2 116.3l1.9-1.7"/><path class="cls-17" d="M148.9 116.3v-19M144.6 116.3v-19M144.6 116.3v-19M148.9 116.3v-19M148.9 116.3h-4.3"/><path class="cls-20" d="M224.2 97.3h-4.3v19h4.3v-19"/><path class="cls-15" d="M220.2 98.8l1.4-1.5M220.2 103.1l4.3-4.3M220.2 107.4l4.3-4.3M220.2 111.5l4.3-4.3M220.2 115.8l4.3-4.3M223.8 116.3l.7-.5"/><path class="cls-20" d="M224.2 97.3h-4.3v19h4.3v-19"/><path class="cls-15" d="M220.2 98.8l1.4-1.5M220.2 103.1l4.3-4.3M220.2 107.4l4.3-4.3M220.2 111.5l4.3-4.3M220.2 115.8l4.3-4.3M223.8 116.3l.7-.5"/><path class="cls-17" d="M224.2 116.3v-19M219.9 116.3v-19M219.9 116.3v-19M224.2 116.3v-19M224.2 116.3h-4.3"/><path class="cls-20" d="M148.9 232.9h-4.3v-61.6h4.3v61.6"/><path class="cls-15" d="M144.8 174.1l2.9-2.8M144.8 178.5l4.3-4.4M144.8 182.8l4.3-4.3M144.8 186.9l4.3-4.4M144.8 191.2l4.3-4.3M144.8 195.5l4.3-4.3M144.8 199.6l4.3-4.3M144.8 203.9l4.3-4.3M144.8 208.2l4.3-4.3M144.8 212.5l4.3-4.3M144.8 216.6l4.3-4.3M144.8 220.9l4.3-4.3M144.8 225.3l4.3-4.4M144.8 229.3l4.3-4.3M145.5 232.9l3.6-3.6"/><path class="cls-20" d="M144.6 232.9h4.3v-61.6h-4.3v61.6"/><path class="cls-15" d="M144.8 174.1l2.9-2.8M144.8 178.5l4.3-4.4M144.8 182.8l4.3-4.3M144.8 186.9l4.3-4.4M144.8 191.2l4.3-4.3M144.8 195.5l4.3-4.3M144.8 199.6l4.3-4.3M144.8 203.9l4.3-4.3M144.8 208.2l4.3-4.3M144.8 212.5l4.3-4.3M144.8 216.6l4.3-4.3M144.8 220.9l4.3-4.3M144.8 225.3l4.3-4.4M144.8 229.3l4.3-4.3M145.5 232.9l3.6-3.6"/><path class="cls-17" d="M148.9 182.3v-11M148.9 232.9v-47M144.6 228.6v-57.3M148.9 171.3h-4.3M144.6 228.6v-57.3M148.9 182.3v-11M148.9 232.9v-47M144.6 232.9h4.3M148.9 232.9"/><path class="cls-20" d="M224.2 190.2h-4.3v-18.9h4.3v18.9"/><path class="cls-15" d="M220.2 175.3l3.8-4M220.2 179.7l4.3-4.4M220.2 183.7l4.3-4.3M220.2 188.1l4.3-4.4M222.1 190.2l2.4-2.1"/><path class="cls-20" d="M219.9 190.2h4.3v-18.9h-4.3v18.9"/><path class="cls-15" d="M220.2 175.3l3.8-4M220.2 179.7l4.3-4.4M220.2 183.7l4.3-4.3M220.2 188.1l4.3-4.4M222.1 190.2l2.4-2.1"/><path class="cls-17" d="M224.2 190.2v-18.9M219.9 180.9v-9.6M219.9 190.2v-4.3M224.2 171.3h-4.3M219.9 180.9v-9.6M224.2 190.2v-18.9M219.9 190.2v-4.3"/><path class="cls-20" d="M224.2 254.5h-4.3v-39.1h4.3v39.1"/><path class="cls-15" d="M220.2 217.8l2.1-2.4M220.2 222.1l4.3-4.3M220.2 226.2l4.3-4.3M220.2 230.5l4.3-4.3M220.2 234.9l4.3-4.4M220.2 239.2l4.3-4.3M220.2 243.3l4.3-4.4M220.2 247.6l4.3-4.3M220.2 251.9l4.3-4.3M221.6 254.5l2.9-2.8"/><path class="cls-20" d="M219.9 254.5h4.3v-39.1h-4.3v39.1"/><path class="cls-15" d="M220.2 217.8l2.1-2.4M220.2 222.1l4.3-4.3M220.2 226.2l4.3-4.3M220.2 230.5l4.3-4.3M220.2 234.9l4.3-4.4M220.2 239.2l4.3-4.3M220.2 243.3l4.3-4.4M220.2 247.6l4.3-4.3M220.2 251.9l4.3-4.3M221.6 254.5l2.9-2.8"/><path class="cls-17" d="M224.2 254.5v-39.1M219.9 254.5v-39.1M219.9 254.5v-39.1M224.2 254.5v-39.1M224.2 254.5h-4.3"/><path class="cls-2" d="M224.2 215.4v-25.2M219.9 215.4v-25.2"/><path class="cls-16" d="M224.2 214h-4.3M224.2 191.4h-4.3"/><path class="cls-17" d="M224.2 215.4h-4.3M224.2 190.2h-4.3"/><path class="cls-15" d="M197.2 191.4c0 12.4 10.2 22.7 22.7 22.7M219.9 191.4h-22.5"/><path class="cls-20" d="M264.1 175.6l-4.1-4.3v83.2h4.1v-78.9"/><path class="cls-15" d="M260.2 173.4l1-.9M260.2 177.7l3.2-3.1M260.2 182.1l4.1-4.1M260.2 186.1l4.1-4M260.2 190.5l4.1-4.1M260.2 194.8l4.1-4.1M260.2 199.1l4.1-4.1M260.2 203.2l4.1-4.1M260.2 207.5l4.1-4.1M260.2 211.8l4.1-4.1M260.2 215.9l4.1-4.1M260.2 220.2l4.1-4.1M260.2 224.5l4.1-4M260.2 228.6l4.1-4.1M260.2 232.9l4.1-4M260.2 237.3l4.1-4.1M260.2 241.6l4.1-4.1M260.2 245.7l4.1-4.1M260.2 250l4.1-4.1M260.2 254.3l4.1-4.1M264.1 254.5l.2-.2"/><path class="cls-20" d="M264.1 175.6l-4.1-4.3v83.2h4.1v-78.9"/><path class="cls-15" d="M260.2 173.4l1-.9M260.2 177.7l3.2-3.1M260.2 182.1l4.1-4.1M260.2 186.1l4.1-4M260.2 190.5l4.1-4.1M260.2 194.8l4.1-4.1M260.2 199.1l4.1-4.1M260.2 203.2l4.1-4.1M260.2 207.5l4.1-4.1M260.2 211.8l4.1-4.1M260.2 215.9l4.1-4.1M260.2 220.2l4.1-4.1M260.2 224.5l4.1-4M260.2 228.6l4.1-4.1M260.2 232.9l4.1-4M260.2 237.3l4.1-4.1M260.2 241.6l4.1-4.1M260.2 245.7l4.1-4.1M260.2 250l4.1-4.1M260.2 254.3l4.1-4.1M264.1 254.5l.2-.2"/><path class="cls-17" d="M264.1 254.5v-78.9M260 254.5v-83.2M260 254.5v-83.2M264.1 254.5v-78.9M264.1 254.5H260M368 175.6v-4.3"/><path class="cls-20" d="M342.1 171.3H260l4.1 4.3h78v-4.3"/><path class="cls-15" d="M261.2 172.5l1.2-1.2M263.4 174.6l3.1-3.3M266.5 175.6l4.3-4.3M270.8 175.6l4.3-4.3M275.1 175.6l4.3-4.3M279.2 175.6l4.3-4.3M283.5 175.6l4.3-4.3M287.8 175.6l4.4-4.3M291.9 175.6l4.3-4.3M296.2 175.6l4.4-4.3M300.6 175.6l4.3-4.3M304.9 175.6l4.3-4.3M309 175.6l4.3-4.3M313.3 175.6l4.3-4.3M317.6 175.6l4.3-4.3M321.7 175.6l4.3-4.3M326 175.6l4.3-4.3M330.3 175.6l4.3-4.3M334.6 175.6l4.4-4.3M338.7 175.6l3.6-3.4"/><path class="cls-20" d="M342.1 171.3H260l4.1 4.3h78v-4.3"/><path class="cls-15" d="M261.2 172.5l1.2-1.2M263.4 174.6l3.1-3.3M266.5 175.6l4.3-4.3M270.8 175.6l4.3-4.3M275.1 175.6l4.3-4.3M279.2 175.6l4.3-4.3M283.5 175.6l4.3-4.3M287.8 175.6l4.4-4.3M291.9 175.6l4.3-4.3M296.2 175.6l4.4-4.3M300.6 175.6l4.3-4.3M304.9 175.6l4.3-4.3M309 175.6l4.3-4.3M313.3 175.6l4.3-4.3M317.6 175.6l4.3-4.3M321.7 175.6l4.3-4.3M326 175.6l4.3-4.3M330.3 175.6l4.3-4.3M334.6 175.6l4.4-4.3M338.7 175.6l3.6-3.4"/><path class="cls-17" d="M264.1 175.6h78M260 171.3h82.1M260 171.3h82.1M264.1 175.6h78"/><path class="cls-16" d="M343.8 175.6v-4.3M366.3 175.6v-4.3"/><path class="cls-17" d="M342.1 175.6v-4.3M368 175.6v-4.3"/><path class="cls-15" d="M343.7 198.2c12.4 0 22.7-10.2 22.7-22.7M343.8 175.6v22.5"/><path class="cls-17" d="M182.5 7.3h-4.3"/><path class="cls-20" d="M178.2 34v59.3h4.3V34h-4.3"/><path class="cls-15" d="M178.4 34.2l.2-.2M178.4 38.5l4.3-4.3M178.4 42.9l4.3-4.4M178.4 47.2l4.3-4.3M178.4 51.3l4.3-4.4M178.4 55.6l4.3-4.3M178.4 59.9l4.3-4.3M178.4 64l4.3-4.3M178.4 68.3l4.3-4.3M178.4 72.6l4.3-4.3M178.4 76.9l4.3-4.3M178.4 81l4.3-4.3M178.4 85.3l4.3-4.3M178.4 89.7l4.3-4.4M178.9 93.3l3.8-3.9"/><path class="cls-20" d="M178.2 34v59.3h4.3V34h-4.3"/><path class="cls-15" d="M178.4 34.2l.2-.2M178.4 38.5l4.3-4.3M178.4 42.9l4.3-4.4M178.4 47.2l4.3-4.3M178.4 51.3l4.3-4.4M178.4 55.6l4.3-4.3M178.4 59.9l4.3-4.3M178.4 64l4.3-4.3M178.4 68.3l4.3-4.3M178.4 72.6l4.3-4.3M178.4 76.9l4.3-4.3M178.4 81l4.3-4.3M178.4 85.3l4.3-4.3M178.4 89.7l4.3-4.4M178.9 93.3l3.8-3.9"/><path class="cls-17" d="M182.5 93.3V34M178.2 93.3V34M178.2 93.3V34M182.5 93.3V34"/><path class="cls-16" d="M182.5 32.1h-4.3M182.5 9.3h-4.3"/><path class="cls-17" d="M182.5 34h-4.3M182.5 7.3h-4.3"/><path class="cls-15" d="M182.4 32c12.4 0 22.7-10.2 22.7-22.7M182.5 9.3H205"/><path class="cls-17" d="M237.7 7.3h-4.3"/><path class="cls-20" d="M233.4 34v59.3h4.3V34h-4.3"/><path class="cls-15" d="M233.6 34.5l.2-.5M233.6 38.5l4.3-4.3M233.6 42.9l4.3-4.4M233.6 47.2l4.3-4.3M233.6 51.3l4.3-4.4M233.6 55.6l4.3-4.3M233.6 59.9l4.3-4.3M233.6 64.2l4.3-4.3M233.6 68.3l4.3-4.3M233.6 72.6l4.3-4.3M233.6 76.9l4.3-4.3M233.6 81l4.3-4.3M233.6 85.3l4.3-4.3M233.6 89.7l4.3-4.4M234.1 93.3l3.8-3.6"/><path class="cls-20" d="M233.4 34v59.3h4.3V34h-4.3"/><path class="cls-15" d="M233.6 34.5l.2-.5M233.6 38.5l4.3-4.3M233.6 42.9l4.3-4.4M233.6 47.2l4.3-4.3M233.6 51.3l4.3-4.4M233.6 55.6l4.3-4.3M233.6 59.9l4.3-4.3M233.6 64.2l4.3-4.3M233.6 68.3l4.3-4.3M233.6 72.6l4.3-4.3M233.6 76.9l4.3-4.3M233.6 81l4.3-4.3M233.6 85.3l4.3-4.3M233.6 89.7l4.3-4.4M234.1 93.3l3.8-3.6"/><path class="cls-17" d="M237.7 93.3V34M233.4 93.3V34M233.4 93.3V34M237.7 93.3V34"/><path class="cls-16" d="M237.7 32.1h-4.3M237.7 9.3h-4.3"/><path class="cls-17" d="M237.7 34h-4.3M237.7 7.3h-4.3"/><path class="cls-15" d="M210.7 9.3c0 12.4 10.2 22.7 22.7 22.7M233.4 9.3h-22.6"/><path class="cls-20" d="M413.5 338.4l-4.7-.3h-5.4l.5 6.9 2.3-.2v1.2l10.2-.7"/><path class="cls-15" d="M413.8 339l-.4-.5M416.2 345.3l-7.2-7.2M412.4 345.5l-7.4-7.4M408.8 345.7l-5-4.8M415 345.3l1.2-1.2M410.7 345.7l4.3-4.3M406.4 346l7.4-7.5M404 344.3l6-6.2M403.8 340.5l2.4-2.4"/><path class="cls-17" d="M408.8 338.1h-5.4l.5 6.9 2.3-.2v1.2l10.2-.7"/><path class="cls-20" d="M146.2 345.3v-93.6h-7.4v86.4l7.4 7.2"/><path class="cls-15" d="M146.5 251.9l-.3-.2M146.5 255.7l-4.3-4M146.5 259.8l-7.5-7.4M146.5 263.9l-7.5-7.4M146.5 267.7l-7.5-7.4M146.5 271.8l-7.5-7.4M146.5 275.9l-7.5-7.4M146.5 280l-7.5-7.5M146.5 283.8l-7.5-7.4M146.5 287.9l-7.5-7.4M146.5 292l-7.5-7.5M146.5 295.8l-7.5-7.4M146.5 299.9l-7.5-7.4M146.5 304l-7.5-7.5M146.5 307.8l-7.5-7.4M146.5 311.9l-7.5-7.4M146.5 316l-7.5-7.5M146.5 320.1l-7.5-7.5M146.5 323.9l-7.5-7.4M146.5 328l-7.5-7.5M146.5 332.1l-7.5-7.5M146.5 335.9l-7.5-7.4M146.5 340l-7.5-7.5M146.5 344.1l-7.5-7.5M144.3 343.3l2.2-1.9M142.4 341.4l4.1-4.1M140.2 339.5l6.3-6.2M139 336.9l7.5-7.5M139 332.8l7.5-7.5M139 328.7l7.5-7.4M139 324.9l7.5-7.5M139 320.8l7.5-7.5M139 316.7l7.5-7.4M139 312.6l7.5-7.4M139 308.8l7.5-7.5M139 304.7l7.5-7.4M139 300.6l7.5-7.4M139 296.8l7.5-7.5M139 292.7l7.5-7.4M139 288.6l7.5-7.4M139 284.5l7.5-7.4M139 280.7l7.5-7.4M139 276.6l7.5-7.4M139 272.5l7.5-7.4M139 268.7l7.5-7.4M139 264.6l7.5-7.4M139 260.5l7.5-7.4M139 256.7l4.8-5M139 252.6l.8-.9"/><path class="cls-20" d="M146.2 345.3v-93.6h-7.4v86.4l7.4 7.2"/><path class="cls-15" d="M146.5 251.9l-.3-.2M146.5 255.7l-4.3-4M146.5 259.8l-7.5-7.4M146.5 263.9l-7.5-7.4M146.5 267.7l-7.5-7.4M146.5 271.8l-7.5-7.4M146.5 275.9l-7.5-7.4M146.5 280l-7.5-7.5M146.5 283.8l-7.5-7.4M146.5 287.9l-7.5-7.4M146.5 292l-7.5-7.5M146.5 295.8l-7.5-7.4M146.5 299.9l-7.5-7.4M146.5 304l-7.5-7.5M146.5 307.8l-7.5-7.4M146.5 311.9l-7.5-7.4M146.5 316l-7.5-7.5M146.5 320.1l-7.5-7.5M146.5 323.9l-7.5-7.4M146.5 328l-7.5-7.5M146.5 332.1l-7.5-7.5M146.5 335.9l-7.5-7.4M146.5 340l-7.5-7.5M146.5 344.1l-7.5-7.5M144.3 343.3l2.2-1.9M142.4 341.4l4.1-4.1M140.2 339.5l6.3-6.2M139 336.9l7.5-7.5M139 332.8l7.5-7.5M139 328.7l7.5-7.4M139 324.9l7.5-7.5M139 320.8l7.5-7.5M139 316.7l7.5-7.4M139 312.6l7.5-7.4M139 308.8l7.5-7.5M139 304.7l7.5-7.4M139 300.6l7.5-7.4M139 296.8l7.5-7.5M139 292.7l7.5-7.4M139 288.6l7.5-7.4M139 284.5l7.5-7.4M139 280.7l7.5-7.4M139 276.6l7.5-7.4M139 272.5l7.5-7.4M139 268.7l7.5-7.4M139 264.6l7.5-7.4M139 260.5l7.5-7.4M139 256.7l4.8-5M139 252.6l.8-.9"/><path class="cls-17" d="M138.8 251.7v86.4M146.2 304v41.3M146.2 251.7V297M146.2 304v41.3M138.8 251.7v86.4M146.2 251.7V297"/><path class="cls-20" d="M199.8 345.3l7.2-7.2V297l-7.2 7v41.3"/><path class="cls-15" d="M207.2 300.6l-1.9-1.9M207.2 304.5l-3.8-3.9M207.2 308.5l-6-5.7M207.2 312.6l-7.2-7.2M207.2 316.5l-7.2-7.2M207.2 320.5l-7.2-7.2M207.2 324.6l-7.2-7.2M207.2 328.5l-7.2-7.2M207.2 332.5l-7.2-7.2M207.2 336.6l-7.2-7.2M205.8 339.3l-5.8-5.8M203.8 341.4l-3.8-4.1M201.9 343.3l-1.9-1.9M200 344.1l7.2-7.2M200 340l7.2-7.2M200 335.9l7.2-7.2M200 331.8l7.2-7.2M200 328l7.2-7.2M200 323.9l7.2-7.2M200 319.8l7.2-7.2M200 316l7.2-7.2M200 311.9l7.2-7.2M200 307.8l7.2-7.2"/><path class="cls-20" d="M199.8 345.3l7.2-7.2V297l-7.2 7v41.3"/><path class="cls-15" d="M207.2 300.6l-1.9-1.9M207.2 304.5l-3.8-3.9M207.2 308.5l-6-5.7M207.2 312.6l-7.2-7.2M207.2 316.5l-7.2-7.2M207.2 320.5l-7.2-7.2M207.2 324.6l-7.2-7.2M207.2 328.5l-7.2-7.2M207.2 332.5l-7.2-7.2M207.2 336.6l-7.2-7.2M205.8 339.3l-5.8-5.8M203.8 341.4l-3.8-4.1M201.9 343.3l-1.9-1.9M200 344.1l7.2-7.2M200 340l7.2-7.2M200 335.9l7.2-7.2M200 331.8l7.2-7.2M200 328l7.2-7.2M200 323.9l7.2-7.2M200 319.8l7.2-7.2M200 316l7.2-7.2M200 311.9l7.2-7.2M200 307.8l7.2-7.2"/><path class="cls-17" d="M199.8 304v41.3M207 297v41.1M207 297v41.1M199.8 304v41.3"/><path class="cls-20" d="M138.8 251.7l10.1-9.2v-9.6h-10.1v18.8"/><path class="cls-15" d="M149.1 234.4l-1.7-1.5M149.1 238.5l-5.5-5.6M149.1 242.5l-9.6-9.6M147 244.5l-8-8.2M144.8 246.4l-5.8-6M142.6 248.3l-3.6-3.8M140.7 250.2l-1.7-1.9M148.6 242.8l.5-.3M139 248.5l10.1-10M139 244.5l10.1-10.1M139 240.6l7.5-7.7M139 236.5l3.6-3.6"/><path class="cls-20" d="M138.8 251.7l10.1-9.2v-9.6h-10.1v18.8"/><path class="cls-15" d="M149.1 234.4l-1.7-1.5M149.1 238.5l-5.5-5.6M149.1 242.5l-9.6-9.6M147 244.5l-8-8.2M144.8 246.4l-5.8-6M142.6 248.3l-3.6-3.8M140.7 250.2l-1.7-1.9M148.6 242.8l.5-.3M139 248.5l10.1-10M139 244.5l10.1-10.1M139 240.6l7.5-7.7M139 236.5l3.6-3.6"/><path class="cls-17" d="M138.8 232.9v18.8M148.9 232.9v9.6M148.9 232.9v9.6M138.8 232.9v18.8M148.9 232.9h-4.3M144.6 232.9h-5.8"/><path class="cls-20" d="M373.3 338.1l-1.3 4.8 2 5.3-.1-1.2 2.3-.1-.6-8.8h-2.3"/><path class="cls-15" d="M375.9 341.2l-2.6-2.7M376.2 345.3l-3.6-3.6M374.2 347.2l-.7-.5M373.5 346.7l2.7-2.6M372.6 343.8l3.3-3.6M373 339l1.2-.9"/><path class="cls-17" d="M374 348.2l-.1-1.2 2.3-.1-.6-8.8h-2.3"/><path class="cls-20" d="M207.9 242.5l-6.9 9.2v2.8h6.9v-12"/><path class="cls-15" d="M208.2 245.4l-1.5-1.2M208.2 249.3l-3.2-2.9M208.2 253.3l-4.8-4.5M205.3 254.5l-3.6-3.6M205 254.5l3.2-2.8M201.2 254.5l7-6.9M204.6 247.1l3.6-3.6"/><path class="cls-20" d="M207.9 242.5l-6.9 9.2v2.8h6.9v-12"/><path class="cls-15" d="M208.2 245.4l-1.5-1.2M208.2 249.3l-3.2-2.9M208.2 253.3l-4.8-4.5M205.3 254.5l-3.6-3.6M205 254.5l3.2-2.8M201.2 254.5l7-6.9M204.6 247.1l3.6-3.6"/><path class="cls-17" d="M207.9 254.5v-12M201 254.5v-2.8M201 254.5v-2.8M207.9 254.5v-12"/><path class="cls-21" d="M379.3 244.5v5.2l3.6-3.8v-1.4h-3.6"/><path class="cls-20" d="M379.3 244.5v5.2l3.6-3.8v-1.4h-3.6"/><path class="cls-15" d="M379.5 248.3l.5.7M379.5 244.5l2.4 2.4"/><path class="cls-17" d="M382.9 245.9v-1.4M379.3 249.7v-5.2"/><path class="cls-16" d="M379.3 249.7v-5.2M382.9 245.9v-1.4"/><path class="cls-21" d="M382.9 245.9l-3.6 3.8 30.5-2.1-.3-3.4-26.6 1.7"/><path class="cls-20" d="M382.9 245.9l-3.6 3.8 30.5-2.1-.3-3.4-26.6 1.7"/><path class="cls-15" d="M380 249l.7.7M381.9 246.9l2.7 2.6M384.8 245.9l3.4 3.1M388.6 245.7l3.4 3.1M392.5 245.4l3.1 3.1M396.1 245.2l3.3 3.1M399.9 244.9l3.4 3.2M403.8 244.7l3.1 3.1M407.6 244.5l2.2 2.1"/><path class="cls-17" d="M409.5 244.2l-26.6 1.7M409.8 247.6l-30.5 2.1"/><path class="cls-16" d="M409.8 247.6l-30.5 2.1M409.5 244.2l-26.6 1.7"/><path class="cls-20" d="M373 261.5h29.1l5.7 76.6h-6l.5 6.9 2.7-.2v1.2l11.5-.7-7-91.5L373 256v-1.5"/><path class="cls-15" d="M409.8 254.5l-.8-.7M410 258.9l-4.8-4.8M410.2 263.2l-8.8-8.9M410.7 267.5l-13.2-13M411 271.8l-8.7-8.6M400.6 261.5l-6.7-6.7M411.4 276.4l-8.8-8.9M396.6 261.5l-6.5-6.5M411.7 280.7l-8.7-8.9M392.5 261.5l-6.3-6.2M411.9 285l-8.6-8.9M388.6 261.5l-6.2-6M412.4 289.3l-8.9-8.6M384.6 261.5l-5.8-5.8M412.6 293.7L404 285M380.5 261.5L375 256M413.1 298l-8.9-8.7M376.6 261.5l-3.3-3.4M413.4 302.3l-8.7-8.6M413.6 306.6L405 298M414.1 310.9l-8.9-8.6M414.3 315.3l-8.6-8.7M414.6 319.6l-8.7-8.7M415 323.9l-8.8-8.6M415.3 328.5l-8.7-8.9M415.8 332.8l-8.9-8.9M416 337.1l-8.9-8.9M416.2 341.4l-8.6-8.9M416.2 345.3l-8.4-8.4M412.4 345.5l-7.4-7.4M408.6 345.7l-6.5-6.7M403.8 344.8l-1.5-1.5M415 345.3l1.5-1.5M410.7 345.7l5.5-5.7M406.4 346l9.6-9.6M403.3 345l12.5-12.5M402.3 342.1l3.9-4M407.8 336.4l7.5-7.5M402.1 338.3l.2-.2M407.6 332.8l7.4-7.7M407.4 328.9l7.4-7.4M406.9 325.3l7.7-7.6M406.6 321.5l7.7-7.4M406.4 317.9l7.4-7.7M406.2 314.1l7.4-7.5M405.9 310.5l7.5-7.7M405.7 306.6l7.4-7.4M405.2 302.8l7.7-7.5M405 299.2l7.6-7.5M404.7 295.3l7.5-7.4M404.5 291.7l7.4-7.4M404.2 287.9l7.5-7.4M404 284.3l7.4-7.4M403.5 280.5l7.7-7.5M403.3 276.9l7.4-7.5M403 273l7.5-7.4M402.8 269.4l7.4-7.4M402.6 265.6l7.4-7.5M402.3 262l7.5-7.7M398.5 261.5l7.7-7.4M394.6 261.5l7.2-7.2M390.6 261.5l6.9-7M386.5 261.5l6.7-6.7M382.6 261.5l6.5-6.5M378.6 261.5l6.2-6.2M374.5 261.5l6-6M373.3 258.9l2.9-3.2M373.3 254.8"/><path class="cls-17" d="M373 261.5h29.1l5.7 76.6h-6l.5 6.9 2.7-.2v1.2l11.5-.7-7-91.5L373 256v-1.5"/><path class="cls-20" d="M165.7 185.9h54.2v-5h-54.2v5"/><path class="cls-15" d="M165.9 182.8l1.9-1.9M166.9 185.9l5-5M171.2 185.9l5-5M175.5 185.9l5.1-5M179.6 185.9l5-5M183.9 185.9l5.1-5M188.2 185.9l5.1-5M192.6 185.9l5-5M196.6 185.9l5.1-5M201 185.9l5-5M205.3 185.9l5-5M209.4 185.9l5-5M213.7 185.9l5-5M218 185.9l2.2-2.2"/><path class="cls-20" d="M165.7 185.9h54.2v-5h-54.2v5"/><path class="cls-15" d="M165.9 182.8l1.9-1.9M166.9 185.9l5-5M171.2 185.9l5-5M175.5 185.9l5.1-5M179.6 185.9l5-5M183.9 185.9l5.1-5M188.2 185.9l5.1-5M192.6 185.9l5-5M196.6 185.9l5.1-5M201 185.9l5-5M205.3 185.9l5-5M209.4 185.9l5-5M213.7 185.9l5-5M218 185.9l2.2-2.2"/><path class="cls-17" d="M219.9 180.9h-54.2M219.9 185.9h-54.2M219.9 185.9h-54.2M219.9 180.9h-54.2M165.7 182.3v-1.4"/><path class="cls-19" d="M152.2 179.4h10.1v2.4h-10.1z"/><path class="cls-16" d="M152.2 179.4h10.1v2.4h-10.1z"/><path class="cls-19" d="M152 179.2h10.6v.2H152z"/><path class="cls-16" d="M152 179.2h10.6v.2H152z"/><path class="cls-13" d="M153 179.2v-8.4"/><path class="cls-4" d="M153 170.8h1.6l1.7.5 1.5.9 1.2 1 1.2 1.4.7 1.5.5 1.4.2 1.7"/><path class="cls-20" d="M165.7 182.3h-16.8v3.6h16.8v-3.6"/><path class="cls-15" d="M149.1 182.5l.3-.2M149.8 185.9l3.6-3.6M154.2 185.9l3.6-3.6M158.5 185.9l3.6-3.6M162.8 185.9l3.1-3.1"/><path class="cls-20" d="M165.7 182.3h-16.8v3.6h16.8v-3.6"/><path class="cls-15" d="M149.1 182.5l.3-.2M149.8 185.9l3.6-3.6M154.2 185.9l3.6-3.6M158.5 185.9l3.6-3.6M162.8 185.9l3.1-3.1"/><path class="cls-17" d="M148.9 185.9h16.8M148.9 182.3h16.8M148.9 182.3h16.8M148.9 185.9h16.8"/><path class="cls-20" d="M148.9 242.5l-10.1 9.2H201l6.9-9.2h-59"/><path class="cls-15" d="M206.7 244.2l-1.4-1.7M205 246.4l-3.8-3.9M203.4 248.8l-6.3-6.3M201.7 250.9l-8.4-8.4M198.3 251.7l-9.1-9.2M194.2 251.7l-9.1-9.2M190.4 251.7l-9.1-9.2M186.3 251.7l-9.1-9.2M182.2 251.7l-9.1-9.2M178.2 251.7l-9.2-9.2M174.3 251.7l-9.1-9.2M170.2 251.7l-9.1-9.2M166.2 251.7l-9.2-9.2M162.3 251.7l-9.1-9.2M158.2 251.7l-9.1-9.2M154.2 251.7l-7.2-7.2M150.3 251.7l-5.5-5.3M146.2 251.7l-3.6-3.4M142.2 251.7l-1.5-1.5M200 251.7l4.6-4.6M195.9 251.7l9.1-9.2M192.1 251.7l9.1-9.2M188 251.7l9.1-9.2M183.9 251.7l9.1-9.2M179.8 251.7l9.2-9.2M176 251.7l9.1-9.2M171.9 251.7l9.1-9.2M167.8 251.7l9.2-9.2M164 251.7l9.1-9.2M159.9 251.7l9.1-9.2M155.8 251.7l9.2-9.2M151.8 251.7l9.1-9.2M147.9 251.7l9.1-9.2M143.8 251.7l9.2-9.2M139.8 251.7l8.8-8.9"/><path class="cls-20" d="M148.9 242.5l-10.1 9.2H201l6.9-9.2h-59"/><path class="cls-15" d="M206.7 244.2l-1.4-1.7M205 246.4l-3.8-3.9M203.4 248.8l-6.3-6.3M201.7 250.9l-8.4-8.4M198.3 251.7l-9.1-9.2M194.2 251.7l-9.1-9.2M190.4 251.7l-9.1-9.2M186.3 251.7l-9.1-9.2M182.2 251.7l-9.1-9.2M178.2 251.7l-9.2-9.2M174.3 251.7l-9.1-9.2M170.2 251.7l-9.1-9.2M166.2 251.7l-9.2-9.2M162.3 251.7l-9.1-9.2M158.2 251.7l-9.1-9.2M154.2 251.7l-7.2-7.2M150.3 251.7l-5.5-5.3M146.2 251.7l-3.6-3.4M142.2 251.7l-1.5-1.5M200 251.7l4.6-4.6M195.9 251.7l9.1-9.2M192.1 251.7l9.1-9.2M188 251.7l9.1-9.2M183.9 251.7l9.1-9.2M179.8 251.7l9.2-9.2M176 251.7l9.1-9.2M171.9 251.7l9.1-9.2M167.8 251.7l9.2-9.2M164 251.7l9.1-9.2M159.9 251.7l9.1-9.2M155.8 251.7l9.2-9.2M151.8 251.7l9.1-9.2M147.9 251.7l9.1-9.2M143.8 251.7l9.2-9.2M139.8 251.7l8.8-8.9"/><path class="cls-17" d="M207.9 242.5h-59M201 251.7h-54.8M201 251.7h-54.8M207.9 242.5h-59"/><path class="cls-2" d="M368 338.1v-76.6"/><path class="cls-16" d="M368 262v-.5M42.6 235.8L0 243.5v99.8l42.6 7.7"/><path class="cls-16" d="M42.6 237.7l-40.8 7.2v97l40.8 7.4M382.9 175.3l54.9-3.3V98.1l-54.9-3.4"/><path class="cls-16" d="M382.9 177l56.6-3.3V96.4L382.9 93"/><path class="cls-15" d="M373.2 216.1h-1.9c-.6 0-1.2.2-1.8.3-.6.1-1.2.3-1.8.5l-1.8.6c-.6.2-1.1.5-1.7.8-.5.3-1.1.6-1.6 1-.5.3-1 .7-1.5 1.1-.5.4-.9.8-1.4 1.3-.4.4-.9.9-1.3 1.4-.4.5-.8 1-1.1 1.5-.3.5-.7 1.1-1 1.6-.3.5-.6 1.1-.8 1.7l-.6 1.8c-.2.6-.3 1.2-.5 1.8s-.2 1.2-.3 1.8v1.9M354.3 235.1h19M373.3 216.1h-1.5M370.4 215.9l-1-.2M369.4 215.7h-.4"/><path class="cls-10" d="M367.8 215.4l-1.7-.7"/><path class="cls-15" d="M364.9 214.2l-.5-.2M364.4 214l-.7-.5"/><path class="cls-11" d="M362.7 213l-1.4-1.2"/><path class="cls-15" d="M360.1 210.9l-.3-.3M359.8 210.6l-.7-.9M358.2 208.7l-.8-1"/><path class="cls-18" d="M357.4 207.7l-.9-1.6"/><path class="cls-15" d="M356.5 206.1l-.5-1M355.5 203.7l-.5-1"/><path class="cls-8" d="M355 202.7l-.4-1.9"/><path class="cls-15" d="M354.6 200.8l-.3-1.2M354.3 198.1v-.9"/><path class="cls-4" d="M354.3 197.2h19"/><path class="cls-15" d="M372.8 197.2h.5M373.1 53.9h-1.9c-.6 0-1.2-.2-1.8-.3-.6-.1-1.2-.3-1.8-.5l-1.8-.6c-.6-.2-1.1-.5-1.7-.8-.5-.3-1.1-.6-1.6-1-.5-.3-1-.7-1.5-1.1-.5-.4-.9-.8-1.4-1.3-.4-.4-.9-.9-1.3-1.4-.4-.5-.8-1-1.1-1.5-.3-.5-.7-1-1-1.6-.3-.5-.6-1.1-.8-1.7l-.6-1.8c-.2-.6-.3-1.2-.5-1.8l-.3-1.8v-1.9M354.1 34.9H373M373 53.9l-1.4.2M370.2 54.4h-.8M369.4 54.4l-.7.2"/><path class="cls-10" d="M367.5 54.9l-1.7.4"/><path class="cls-15" d="M364.6 56.1l-.4.2M364.2 56.3l-.8.5M362.2 57.5l-1.2.7"/><path class="cls-12" d="M361 58.2l-1.2 1.2"/><path class="cls-15" d="M359.8 59.4l-.7.7M358.2 61.1l-.8 1.2"/><path class="cls-12" d="M357.4 62.3l-.9 1.7"/><path class="cls-15" d="M356.5 64l-.5.7M355.5 65.9l-.5 1.4M354.8 68.8l-.2.5M354.6 69.3v.9M354.3 71.7l-.2 1.2"/><path class="cls-4" d="M354.1 72.9H373"/><path class="cls-15" d="M372.6 72.9h.4M52.3 158.3c11 0 20.1-9.1 20.1-20.1M72.3 138.1H52.2"/><path class="cls-4" d="M52.2 158.3l4 .2 3.9 1.2 3.3 2 3.2 2.4 2.4 3.1 1.9 3.6 1.2 3.6.2 4.1"/><path class="cls-13" d="M72.3 178.5H52.2"/><path class="cls-15" d="M52.3 53.9h1.9c.6 0 1.2-.2 1.8-.3.6-.1 1.2-.3 1.8-.5l1.8-.6c.6-.2 1.1-.5 1.7-.8.5-.3 1.1-.6 1.6-1 .5-.3 1-.7 1.5-1.1.5-.4.9-.8 1.4-1.3.4-.4.9-.9 1.3-1.4.4-.5.8-1 1.1-1.5.3-.5.7-1 1-1.6.3-.5.6-1.1.8-1.7l.6-1.8c.2-.6.3-1.2.5-1.8l.3-1.8v-1.9M71.4 34.9h-19M52.4 53.9h1.4M55.3 54.1l.7.3M56 54.4h.7"/><path class="cls-9" d="M57.7 54.6l1.9.7"/><path class="cls-15" d="M60.8 55.8l.5.3M61.3 56.1l.7.4"/><path class="cls-14" d="M62.7 57l1.7 1.2"/><path class="cls-15" d="M65.4 59.2l.2.2M65.6 59.4l.7.7M67.3 61.1l.7 1.2"/><path class="cls-12" d="M68 62.3l1 1.7"/><path class="cls-15" d="M69 64l.4.7M69.9 65.9l.5 1.4M70.6 68.8l.3.5M70.9 69.3l.2.9M71.1 71.7l.3 1.2"/><path class="cls-4" d="M71.4 72.9h-19"/><path class="cls-15" d="M52.9 72.9h-.5M373.2 144.9c-11 0-20.1 9.1-20.1 20.1M353.1 165h20.2"/><path class="cls-4" d="M373.3 144.9l-3.9-.3-3.8-1.2-3.6-1.9-2.9-2.4-2.6-3.1-1.9-3.4-1-3.8-.5-4.1"/><path class="cls-13" d="M353.1 124.7h20.2"/><path class="cls-15" d="M72.4 323.5c0-11-9.1-20.1-20.1-20.1M72.3 323.4H52.2"/><path class="cls-4" d="M72.3 283.3l-.2 3.9-1.2 3.8-1.9 3.4-2.4 3.1-3.2 2.4-3.3 1.9-3.9 1.2-4 .5"/><path class="cls-13" d="M72.3 283.3H52.2"/><path class="cls-20" d="M8.5 319.3H33v18.3H8.5v-18.3"/><path class="cls-15" d="M86.2 99h56.6v10.8H86.2z"/><path class="cls-15" d="M86.2 99h56.6v10.8H86.2z"/></g><g id="Mbel"><path class="cls-3" d="M239.1 34.9h15.6v56.6h-15.6zM277.5 34.9h45.4v56.6h-45.4zM148.2 34.9h28.3v56.6h-28.3zM91.3 28.7h11.5v7.7H91.3zM74.5 8.8h45.4v19.9H74.5zM84.8 76h56.6v15.6H84.8zM265.5 196.2h15.6v56.6h-15.6zM322.2 225.5h11.5v7.7h-11.5zM305.4 233.2h45.4v19.7h-45.4zM274.9 120.1H326v22.6h-51.1zM276.3 152.7h12.8M276.3 144.2v8.5M289.1 152.7v-8.5M294 152.7h12.8M294 144.2v8.5M306.8 152.7v-8.5M311.8 152.7h12.7M311.8 144.2v8.5M324.5 152.7v-8.5M276.3 110.2h12.8M276.3 118.7v-8.5M289.1 110.2v8.5M294 110.2h12.8M294 118.7v-8.5M306.8 110.2v8.5M311.8 110.2h12.7M311.8 118.7v-8.5M324.5 110.2v8.5M93.4 180.9h14.2v28.3H93.4zM138.6 221.8h-18.7-.2-.2-.1l-.1-.1-.1-.1v-.1-.2V196.2v-.3c0-.1.1-.2.2-.3 0 0 .2-.1.3-.2h19V222M142.3 226.3h-22.4-.2-.2-.1l-.1-.1-.1-.1v-.1-.2-3-.3c0-.1.1-.2.2-.3 0 0 .2-.1.3-.2h23c.1 0 .2.1.3.2 0 0 .1.2.2.3V225.9c0 .1-.1.2-.2.3 0 0-.2.1-.3.2h-.3M138.6 195.1h4c.1 0 .2-.1.3-.2 0 0 .1-.2.2-.3v-25.2-.3c0-.1-.1-.2-.2-.3 0 0-.2-.1-.3-.2h-4M136.4 168.4v53.3"/><path class="cls-3" d="M138.6 168.5h-18.7-.2-.2-.1l-.1.1-.1.1v25.7c0 .1.1.2.2.3 0 0 .2.1.3.2h19v-26.6M142.3 163.9h-22.4-.2-.2-.1l-.1.1-.1.1V167.7c0 .1.1.2.2.3 0 0 .2.1.3.2h23c.1 0 .2-.1.3-.2 0 0 .1-.2.2-.3V164.6v-.3c0-.1-.1-.2-.2-.3s-.2-.1-.3-.2h-.3M138.6 195.1h4c.1 0 .2.1.3.2 0 0 .1.2.2.3v25.5c0 .1-.1.2-.2.3 0 0-.2.1-.3.2h-4M96.8 168.5c-1.3-3.8-2.9-7.4-4.8-11-.4-.8-1.4-1.3-2.3-1.3-3.2.3-6.3 1.4-8.9 3.4-.8.6-1.1 1.5-.9 2.5.9 3.9 2.2 7.7 3.7 11.4h.1c.7 0 1.4-.2 2-.4 3.1-1 6.2-2.2 9.2-3.5.6-.3 1.2-.6 1.8-1"/><path class="cls-3" d="M96.9 167.3c.2-.3.3-.6.3-1 .2-1.5 0-3.1-.6-4.5-.8-1.9-1.7-3.7-2.9-5.4-.8-1.2-1.8-2.4-2.8-3.3-.6-.6-1.5-.8-2.3-.7-3.4.4-6.6 1.7-9.4 3.6-.7.5-1.2 1.2-1.3 2.1-.2 1.5-.1 2.9 0 4.4.3 2 .8 4 1.5 6 .5 1.4 1.4 2.7 2.5 3.8.3.2.6.4.9.5M80.7 321h56.6v15.6H80.7zM109 234.6h28.3v56.6H109z"/></g><g id="Text"><path d="M232 182.2h2.1v.6H232v1.8h2.1v.6h-2.8v-5.3h2.8v.6H232v1.8zM235.9 181.5v.5c.3-.4.6-.6 1.1-.6s.6.1.9.3c.2.2.3.5.3 1v2.5h-.6v-2.4c0-.3 0-.5-.1-.6-.1-.2-.3-.2-.6-.2s-.5.1-.7.3c-.2.2-.2.4-.2.7v2.2h-.6v-3.7h.6zM240.2 184.4c0 .2 0 .2.3.2h.3v.5h-.6c-.4 0-.6-.2-.6-.6v-2.6h-.5v-.5h.5v-1.2h.6v1.2h.6v.5h-.6v2.4zM242.4 181.5v.6c.1-.3.2-.4.3-.5.2-.1.4-.2.7-.2h.1v.6h-.2c-.3 0-.6.2-.8.4-.2.2-.2.4-.2.9v1.9h-.6v-3.7h.6zM244.8 183.5c0 .3 0 .5.2.7.2.3.6.5 1 .5s.9-.2 1.1-.6l.5.2c-.3.6-.9 1-1.6 1-1.1 0-1.9-.8-1.9-1.9s.8-1.9 1.9-1.9 1.9.8 1.9 1.9v.2h-3.1zm2.4-.4c0-.3 0-.4-.2-.6-.2-.3-.6-.5-1-.5s-.8.2-1 .5c-.1.2-.2.3-.2.6h2.4zm-.2-3.2l-.9 1.1h-.4l.7-1.1h.7zM249.3 183.5c0 .3 0 .5.2.7.2.3.6.5 1 .5s.9-.2 1.1-.6l.5.2c-.3.6-.9 1-1.6 1-1.1 0-1.9-.8-1.9-1.9s.8-1.9 1.9-1.9 1.9.8 1.9 1.9v.2h-3.1zm2.4-.4c0-.3 0-.4-.2-.6-.2-.3-.6-.5-1-.5s-.8.2-1 .5c-.1.2-.2.3-.2.6h2.4zM231.3 189.5v-.6h3l-1.6 2c.9 0 1.6.7 1.6 1.6s-.8 1.7-1.8 1.7-1.4-.5-1.6-1.3h.6c.1.4.5.7 1 .7s1.2-.5 1.2-1.1-.5-1.1-1.2-1.1-.4 0-.6.2l-.3-.2 1.5-1.9h-1.9zM236.2 193.8c0 .2-.2.4-.4.4s-.4-.2-.4-.4.2-.4.4-.4.4.2.4.4zM238.6 191.1c.2 0 .3-.1.5-.1.9 0 1.6.7 1.6 1.6s-.8 1.7-1.7 1.7-1.7-.8-1.7-1.7.1-.7.4-1.2l1.5-2.5h.7l-1.4 2.1zm-.7 1.5c0 .6.5 1.1 1.1 1.1s1.1-.5 1.1-1.1-.5-1.1-1.1-1.1-1.1.5-1.1 1.1zM244.7 190.5v.5c.3-.4.6-.6 1-.6s.8.2 1 .7c.3-.5.6-.7 1.2-.7s.7.1.9.4c.2.2.2.4.2 1v2.4h-.6V192c0-.4 0-.6-.1-.7-.1-.2-.4-.3-.6-.3-.5 0-.8.4-.8 1v2.2h-.6V192c0-.4 0-.5-.1-.7-.1-.2-.3-.3-.6-.3-.5 0-.9.4-.9 1v2.2h-.6v-3.7h.6zM252.3 191.7v.4h-2l1.2-1.6c.3-.5.4-.6.4-.8 0-.3-.2-.4-.5-.4s-.5.2-.5.6h-.4c0-.6.4-1 1-1s1 .3 1 .8-.1.5-.4.9l-.8 1.1h1.1z"/><g><path d="M89.2 281.6v.6h-3.8l3-4.8h-2.7v-.6h3.8l-3 4.8h2.7zM91 277.5c0 .2-.2.4-.4.4s-.4-.2-.4-.4.2-.4.4-.4.4.2.4.4zm0 4.7h-.6v-3.7h.6v3.7zM92.9 278.5v.5c.3-.4.6-.6 1-.6s.8.2 1 .7c.3-.5.6-.7 1.2-.7s.7.1.9.4c.2.2.2.4.2 1v2.4h-.6V280c0-.4 0-.6-.1-.7-.1-.2-.4-.3-.6-.3-.5 0-.8.4-.8 1v2.2h-.6V280c0-.4 0-.5-.1-.7-.1-.2-.3-.3-.6-.3-.5 0-.9.4-.9 1v2.2h-.6v-3.7h.6zM99.2 278.5v.5c.3-.4.6-.6 1-.6s.8.2 1 .7c.3-.5.6-.7 1.2-.7s.7.1.9.4c.2.2.2.4.2 1v2.4h-.6V280c0-.4 0-.6-.1-.7-.1-.2-.4-.3-.6-.3-.5 0-.8.4-.8 1v2.2h-.6V280c0-.4 0-.5-.1-.7-.1-.2-.3-.3-.6-.3-.5 0-.9.4-.9 1v2.2h-.6v-3.7h.6zM105.3 280.6c0 .3 0 .5.2.7.2.3.6.5 1 .5s.9-.2 1.1-.6l.5.2c-.3.6-.9 1-1.6 1-1.1 0-1.9-.8-1.9-1.9s.8-1.9 1.9-1.9 1.9.8 1.9 1.9v.2h-3.1zm2.4-.4c0-.3 0-.4-.2-.6-.2-.3-.6-.5-1-.5s-.8.2-1 .5c-.1.2-.2.3-.2.6h2.4zM110.1 278.5v.6c.1-.3.2-.4.3-.5.2-.1.4-.2.7-.2h.1v.6h-.2c-.3 0-.6.2-.8.4-.2.2-.2.4-.2.9v1.9h-.6v-3.7h.6zM86.2 287.6v-.6l1.8-1.2v5.4h-.6v-4.4l-1.2.8zM92.8 289.6c0 .6-.1 1-.4 1.2-.3.3-.7.4-1.2.4s-1-.2-1.2-.5c-.3-.3-.4-.6-.4-1.4v-1.8c0-.7 0-1 .3-1.3.3-.3.7-.5 1.2-.5s.9.1 1.2.4c.3.3.4.6.4 1.2v2.1zm-2.5-.1c0 .6 0 .7.2.9.2.2.5.3.8.3s.6-.1.8-.4c.1-.2.2-.4.2-.8v-2c0-.4 0-.6-.3-.8-.2-.2-.4-.2-.7-.2s-.6.1-.8.4c-.1.2-.2.4-.2.8v1.8zM94.8 290.9c0 .2-.2.4-.4.4s-.4-.2-.4-.4.2-.4.4-.4.4.2.4.4zM97.6 289.1c-.2 0-.3.1-.5.1-.9 0-1.6-.7-1.6-1.6s.8-1.7 1.7-1.7 1.7.7 1.7 1.7-.1.7-.4 1.2l-1.5 2.5h-.7l1.3-2.1zm-1.5-1.5c0 .6.5 1.1 1.1 1.1s1.1-.5 1.1-1.1-.5-1.1-1-1.1-1.1.5-1.1 1.1zM102.1 287.5v.5c.3-.4.6-.6 1-.6s.8.2 1 .7c.3-.5.6-.7 1.2-.7s.7.1.9.4c.2.2.2.4.2 1v2.4h-.6V289c0-.4 0-.6-.1-.7-.1-.2-.4-.3-.6-.3-.5 0-.8.4-.8 1v2.2h-.6V289c0-.4 0-.5-.1-.7-.1-.2-.3-.3-.6-.3-.5 0-.9.4-.9 1v2.2h-.6v-3.7h.6zM109.7 288.7v.4h-2l1.2-1.6c.3-.5.4-.6.4-.8 0-.3-.2-.4-.5-.4s-.5.2-.5.6h-.4c0-.6.4-1 1-1s1 .3 1 .8-.1.5-.4.9l-.8 1.1h1.1z"/></g><g><path d="M290.8 51.3v.6H287l3-4.8h-2.7v-.6h3.8l-3 4.8h2.7zM292.7 47.1c0 .2-.2.4-.4.4s-.4-.2-.4-.4.2-.4.4-.4.4.2.4.4zm0 4.7h-.6v-3.7h.6v3.7zM294.6 48.2v.5c.3-.4.6-.6 1-.6s.8.2 1 .7c.3-.5.6-.7 1.2-.7s.7.1.9.4c.2.2.2.4.2 1v2.4h-.6v-2.2c0-.4 0-.6-.1-.7-.1-.2-.4-.3-.6-.3-.5 0-.8.4-.8 1v2.2h-.6v-2.2c0-.4 0-.5-.1-.7-.1-.2-.3-.3-.6-.3-.5 0-.9.4-.9 1v2.2h-.6v-3.7h.6zM300.9 48.2v.5c.3-.4.6-.6 1-.6s.8.2 1 .7c.3-.5.6-.7 1.2-.7s.7.1.9.4c.2.2.2.4.2 1v2.4h-.6v-2.2c0-.4 0-.6-.1-.7-.1-.2-.4-.3-.6-.3-.5 0-.8.4-.8 1v2.2h-.6v-2.2c0-.4 0-.5-.1-.7-.1-.2-.3-.3-.6-.3-.5 0-.9.4-.9 1v2.2h-.6v-3.7h.6zM307 50.2c0 .3 0 .5.2.7.2.3.6.5 1 .5s.9-.2 1.1-.6l.5.2c-.3.6-.9 1-1.6 1-1.1 0-1.9-.8-1.9-1.9s.8-1.9 1.9-1.9 1.9.8 1.9 1.9v.2H307zm2.4-.4c0-.3 0-.4-.2-.6-.2-.3-.6-.5-1-.5s-.8.2-1 .5c-.1.2-.2.3-.2.6h2.4zM311.7 48.2v.6c.1-.3.2-.4.3-.5.2-.1.4-.2.7-.2h.1v.6h-.2c-.3 0-.6.2-.8.4-.2.2-.2.4-.2.9v1.9h-.6v-3.7h.6zM287.8 57.3v-.6l1.8-1.2v5.4h-.6v-4.4l-1.2.8zM291 59.6v-.5l2.8-3.7V59h.6v.6h-.6v1.2h-.6v-1.2h-2.1zm2.1-2.6l-1.5 2h1.5v-2zM296.2 60.5c0 .2-.2.4-.4.4s-.4-.2-.4-.4.2-.4.4-.4.4.2.4.4zM300.5 59.2c0 .6-.1 1-.4 1.2-.3.3-.7.4-1.2.4s-1-.2-1.2-.5c-.3-.3-.4-.6-.4-1.4v-1.8c0-.7 0-1 .3-1.3.3-.3.7-.5 1.2-.5s.9.1 1.2.4c.3.3.4.6.4 1.2V59zm-2.5-.1c0 .6 0 .7.2.9.2.2.5.3.8.3s.6-.1.8-.4c.1-.2.2-.4.2-.8v-2c0-.4 0-.6-.3-.8-.2-.2-.4-.2-.7-.2s-.6.1-.8.4c-.1.2-.2.4-.2.8v1.8zM303.8 57.2v.5c.3-.4.6-.6 1-.6s.8.2 1 .7c.3-.5.6-.7 1.2-.7s.7.1.9.4c.2.2.2.4.2 1v2.4h-.6v-2.2c0-.4 0-.6-.1-.7-.1-.2-.4-.3-.6-.3-.5 0-.8.4-.8 1v2.2h-.6v-2.2c0-.4 0-.5-.1-.7-.1-.2-.3-.3-.6-.3-.5 0-.9.4-.9 1v2.2h-.6v-3.7h.6zM311.4 58.3v.4h-2l1.2-1.6c.3-.5.4-.6.4-.8 0-.3-.2-.4-.5-.4s-.5.2-.5.6h-.4c0-.6.4-1 1-1s1 .3 1 .8-.1.5-.4.9l-.8 1.1h1.1z"/></g><g><path d="M102.9 51.3v.6h-3.8l3-4.8h-2.7v-.6h3.8l-3 4.8h2.7zM104.7 47.1c0 .2-.2.4-.4.4s-.4-.2-.4-.4.2-.4.4-.4.4.2.4.4zm0 4.7h-.6v-3.7h.6v3.7zM106.6 48.2v.5c.3-.4.6-.6 1-.6s.8.2 1 .7c.3-.5.6-.7 1.2-.7s.7.1.9.4c.2.2.2.4.2 1v2.4h-.6v-2.2c0-.4 0-.6-.1-.7-.1-.2-.4-.3-.6-.3-.5 0-.8.4-.8 1v2.2h-.6v-2.2c0-.4 0-.5-.1-.7-.1-.2-.3-.3-.6-.3-.5 0-.9.4-.9 1v2.2h-.6v-3.7h.6zM112.9 48.2v.5c.3-.4.6-.6 1-.6s.8.2 1 .7c.3-.5.6-.7 1.2-.7s.7.1.9.4c.2.2.2.4.2 1v2.4h-.6v-2.2c0-.4 0-.6-.1-.7-.1-.2-.4-.3-.6-.3-.5 0-.8.4-.8 1v2.2h-.6v-2.2c0-.4 0-.5-.1-.7-.1-.2-.3-.3-.6-.3-.5 0-.9.4-.9 1v2.2h-.6v-3.7h.6zM119 50.2c0 .3 0 .5.2.7.2.3.6.5 1 .5s.9-.2 1.1-.6l.5.2c-.3.6-.9 1-1.6 1-1.1 0-1.9-.8-1.9-1.9s.8-1.9 1.9-1.9 1.9.8 1.9 1.9v.2H119zm2.4-.4c0-.3 0-.4-.2-.6-.2-.3-.6-.5-1-.5s-.8.2-1 .5c-.1.2-.2.3-.2.6h2.4zM123.8 48.2v.6c.1-.3.2-.4.3-.5.2-.1.4-.2.7-.2h.1v.6h-.2c-.3 0-.6.2-.8.4-.2.2-.2.4-.2.9v1.9h-.6v-3.7h.6zM99.9 57.3v-.6l1.8-1.2v5.4h-.6v-4.4l-1.2.8zM103.4 56.2v-.6h3l-1.6 2c.9 0 1.6.7 1.6 1.6s-.8 1.7-1.8 1.7-1.4-.5-1.6-1.3h.6c.1.4.5.7 1 .7s1.2-.5 1.2-1.1-.5-1.1-1.2-1.1-.4 0-.6.2l-.3-.2 1.5-1.9h-1.9zM108.3 60.5c0 .2-.2.4-.4.4s-.4-.2-.4-.4.2-.4.4-.4.4.2.4.4zM112.6 59.2c0 .6-.1 1-.4 1.2-.3.3-.7.4-1.2.4s-1-.2-1.2-.5c-.3-.3-.4-.6-.4-1.4v-1.8c0-.7 0-1 .3-1.3.3-.3.7-.5 1.2-.5s.9.1 1.2.4c.3.3.4.6.4 1.2V59zm-2.5-.1c0 .6 0 .7.2.9.2.2.5.3.8.3s.6-.1.8-.4c.1-.2.2-.4.2-.8v-2c0-.4 0-.6-.3-.8-.2-.2-.4-.2-.7-.2s-.6.1-.8.4c-.1.2-.2.4-.2.8v1.8zM115.9 57.2v.5c.3-.4.6-.6 1-.6s.8.2 1 .7c.3-.5.6-.7 1.2-.7s.7.1.9.4c.2.2.2.4.2 1v2.4h-.6v-2.2c0-.4 0-.6-.1-.7-.1-.2-.4-.3-.6-.3-.5 0-.8.4-.8 1v2.2h-.6v-2.2c0-.4 0-.5-.1-.7-.1-.2-.3-.3-.6-.3-.5 0-.9.4-.9 1v2.2h-.6v-3.7h.6zM123.5 58.3v.4h-2l1.2-1.6c.3-.5.4-.6.4-.8 0-.3-.2-.4-.5-.4s-.5.2-.5.6h-.4c0-.6.4-1 1-1s1 .3 1 .8-.1.5-.4.9l-.8 1.1h1.1z"/></g><g><path d="M302.8 204.7v.6H299l3-4.8h-2.7v-.6h3.8l-3 4.8h2.7zM304.7 200.5c0 .2-.2.4-.4.4s-.4-.2-.4-.4.2-.4.4-.4.4.2.4.4zm0 4.7h-.6v-3.7h.6v3.7zM306.5 201.6v.5c.3-.4.6-.6 1-.6s.8.2 1 .7c.3-.5.6-.7 1.2-.7s.7.1.9.4c.2.2.2.4.2 1v2.4h-.6v-2.2c0-.4 0-.6-.1-.7-.1-.2-.4-.3-.6-.3-.5 0-.8.4-.8 1v2.2h-.6v-2.2c0-.4 0-.5-.1-.7-.1-.2-.3-.3-.6-.3-.5 0-.9.4-.9 1v2.2h-.6v-3.7h.6zM312.8 201.6v.5c.3-.4.6-.6 1-.6s.8.2 1 .7c.3-.5.6-.7 1.2-.7s.7.1.9.4c.2.2.2.4.2 1v2.4h-.6v-2.2c0-.4 0-.6-.1-.7-.1-.2-.4-.3-.6-.3-.5 0-.8.4-.8 1v2.2h-.6v-2.2c0-.4 0-.5-.1-.7-.1-.2-.3-.3-.6-.3-.5 0-.9.4-.9 1v2.2h-.6v-3.7h.6zM318.9 203.6c0 .3 0 .5.2.7.2.3.6.5 1 .5s.9-.2 1.1-.6l.5.2c-.3.6-.9 1-1.6 1-1.1 0-1.9-.8-1.9-1.9s.8-1.9 1.9-1.9 1.9.8 1.9 1.9v.2h-3.1zm2.4-.4c0-.3 0-.4-.2-.6-.2-.3-.6-.5-1-.5s-.8.2-1 .5c-.1.2-.2.3-.2.6h2.4zM323.7 201.6v.6c.1-.3.2-.4.3-.5.2-.1.4-.2.7-.2h.1v.6h-.2c-.3 0-.6.2-.8.4-.2.2-.2.4-.2.9v1.9h-.6v-3.7h.6zM299.8 210.7v-.6l1.8-1.2v5.4h-.6v-4.4l-1.2.8zM306.5 212.6c0 .6-.1 1-.4 1.2-.3.3-.7.4-1.2.4s-1-.2-1.2-.5c-.3-.3-.4-.6-.4-1.4v-1.8c0-.7 0-1 .3-1.3.3-.3.7-.5 1.2-.5s.9.1 1.2.4c.3.3.4.6.4 1.2v2.1zm-2.5-.1c0 .6 0 .7.2.9.2.2.5.3.8.3s.6-.1.8-.4c.1-.2.2-.4.2-.8v-2c0-.4 0-.6-.3-.8-.2-.2-.4-.2-.7-.2s-.6.1-.8.4c-.1.2-.2.4-.2.8v1.8zM308.4 213.9c0 .2-.2.4-.4.4s-.4-.2-.4-.4.2-.4.4-.4.4.2.4.4zM309.8 209.6v-.6h3l-1.6 2c.9 0 1.6.7 1.6 1.6s-.8 1.7-1.8 1.7-1.4-.5-1.6-1.3h.6c.1.4.5.7 1 .7s1.2-.5 1.2-1.1-.5-1.1-1.2-1.1-.4 0-.6.2l-.3-.2 1.5-1.9h-1.9zM316.1 210.6v.5c.3-.4.6-.6 1-.6s.8.2 1 .7c.3-.5.6-.7 1.2-.7s.7.1.9.4c.2.2.2.4.2 1v2.4h-.6v-2.2c0-.4 0-.6-.1-.7-.1-.2-.4-.3-.6-.3-.5 0-.8.4-.8 1v2.2h-.6v-2.2c0-.4 0-.5-.1-.7-.1-.2-.3-.3-.6-.3-.5 0-.9.4-.9 1v2.2h-.6v-3.7h.6zM323.7 211.7v.4h-2l1.2-1.6c.3-.5.4-.6.4-.8 0-.3-.2-.4-.5-.4s-.5.2-.5.6h-.4c0-.6.4-1 1-1s1 .3 1 .8-.1.5-.4.9l-.8 1.1h1.1z"/></g><g><path d="M406.1 105.9c1.1 0 1.7.5 1.7 1.4s-.1.6-.3.9c-.1.2-.3.2-.5.3.3 0 .4.1.6.2.3.2.4.6.4 1s-.2.9-.6 1.2c-.3.2-.7.3-1.3.3h-1.5v-5.3h1.5zm-.8 2.4h.7c.4 0 .7 0 .9-.2.2-.2.3-.4.3-.7s-.2-.6-.4-.8c-.2 0-.4-.1-.9-.1h-.6v1.8zm0 2.4h.7c.6 0 .8 0 1-.2.3-.1.4-.4.4-.8 0-.6-.4-.9-1.2-.9h-.8v1.8zM412 107.6h.6v3.7h-.6v-.7c-.4.6-.8.8-1.3.8-1 0-1.7-.8-1.7-1.9s.7-1.9 1.8-1.9 1 .2 1.3.7v-.6zm-2.1.9c-.2.3-.3.6-.3 1 0 .8.5 1.4 1.2 1.4s1.3-.6 1.3-1.4-.5-1.4-1.2-1.4-.7.1-.9.4zM414 111.2v-5.3h.6v5.3h-.6zM416.6 111.2h-.6v-5.3h.6v3.3l1.5-1.6h.8l-1.6 1.8 1.6 1.9h-.8l-1.5-1.6v1.6zM423 109.4c0 1.1-.8 1.9-1.9 1.9s-1.9-.8-1.9-1.9.8-1.9 1.9-1.9 1.9.8 1.9 1.9zm-3.1 0c0 .8.5 1.4 1.3 1.4s1.2-.6 1.2-1.4-.5-1.4-1.2-1.4-1.3.6-1.3 1.4zM424.7 107.6v.5c.3-.4.6-.6 1.1-.6s.6.1.9.3c.2.2.3.5.3 1v2.5h-.6v-2.4c0-.3 0-.5-.1-.6-.1-.2-.3-.2-.6-.2s-.5.1-.7.3c-.2.2-.2.4-.2.7v2.2h-.6v-3.7h.6zM405.6 117.1c.2 0 .3-.1.5-.1.9 0 1.6.7 1.6 1.6s-.8 1.7-1.7 1.7-1.7-.8-1.7-1.7.1-.7.4-1.2l1.5-2.5h.7l-1.4 2.1zm-.7 1.5c0 .6.5 1.1 1.1 1.1s1.1-.5 1.1-1.1-.5-1.1-1.1-1.1-1.1.5-1.1 1.1zM409.5 119.9c0 .2-.2.4-.4.4s-.4-.2-.4-.4.2-.4.4-.4.4.2.4.4zM413.8 118.6c0 .6-.1 1-.4 1.2-.3.3-.7.4-1.2.4s-1-.2-1.2-.5c-.3-.3-.4-.6-.4-1.4v-1.8c0-.7 0-1 .3-1.3.3-.3.7-.5 1.2-.5s.9.1 1.2.4c.3.3.4.6.4 1.2v2.1zm-2.5-.1c0 .6 0 .7.2.9.2.2.5.3.8.3s.6-.1.8-.4c.1-.2.2-.4.2-.8v-2c0-.4 0-.6-.3-.8-.2-.2-.4-.2-.7-.2s-.6.1-.8.4c-.1.2-.2.4-.2.8v1.8zM417.1 116.6v.5c.3-.4.6-.6 1-.6s.8.2 1 .7c.3-.5.6-.7 1.2-.7s.7.1.9.4c.2.2.2.4.2 1v2.4h-.6v-2.2c0-.4 0-.6-.1-.7-.1-.2-.4-.3-.6-.3-.5 0-.8.4-.8 1v2.2h-.6v-2.2c0-.4 0-.5-.1-.7-.1-.2-.3-.3-.6-.3-.5 0-.9.4-.9 1v2.2h-.6v-3.7h.6zM424.7 117.7v.4h-2l1.2-1.6c.3-.5.4-.6.4-.8 0-.3-.2-.4-.5-.4s-.5.2-.5.6h-.4c0-.6.4-1 1-1s1 .3 1 .8-.1.5-.4.9l-.8 1.1h1.1z"/></g><g><path d="M11.1 322.1c1.1 0 1.7.5 1.7 1.4s-.1.6-.3.9c-.1.2-.3.2-.5.3.3 0 .4.1.6.2.3.2.4.6.4 1s-.2.9-.6 1.2c-.3.2-.7.3-1.3.3H9.6v-5.3h1.5zm-.8 2.4h.7c.4 0 .7 0 .9-.2.2-.2.3-.4.3-.7s-.2-.6-.4-.8c-.2 0-.4-.1-.9-.1h-.6v1.8zm0 2.4h.7c.6 0 .8 0 1-.2.3-.1.4-.4.4-.8 0-.6-.4-.9-1.2-.9h-.8v1.8zM17 323.7h.6v3.7H17v-.7c-.4.6-.8.8-1.3.8-1 0-1.7-.8-1.7-1.9s.7-1.9 1.8-1.9 1 .2 1.3.7v-.6zm-2.1.9c-.2.3-.3.6-.3 1 0 .8.5 1.4 1.2 1.4s1.3-.6 1.3-1.4-.5-1.4-1.2-1.4-.7.1-.9.4zM18.9 327.4v-5.3h.6v5.3h-.6zM21.5 327.4h-.6v-5.3h.6v3.3l1.5-1.6h.8l-1.6 1.8 1.6 1.9H23l-1.5-1.6v1.6zM27.9 325.6c0 1.1-.8 1.9-1.9 1.9s-1.9-.8-1.9-1.9.8-1.9 1.9-1.9 1.9.8 1.9 1.9zm-3.1 0c0 .8.5 1.4 1.3 1.4s1.2-.6 1.2-1.4-.5-1.4-1.2-1.4-1.3.6-1.3 1.4zM29.6 323.7v.5c.3-.4.6-.6 1.1-.6s.6.1.9.3c.2.2.3.5.3 1v2.5h-.6V325c0-.3 0-.5-.1-.6-.1-.2-.3-.2-.6-.2s-.5.1-.7.3c-.2.2-.2.4-.2.7v2.2h-.6v-3.7h.6zM11.9 331.7h-1.7v1.4c.3-.1.5-.2.8-.2.9 0 1.6.7 1.6 1.7s-.8 1.8-1.8 1.8-1.3-.4-1.6-1.1l.6-.2c.1.2.2.3.3.4.2.2.5.3.8.3.6 0 1.1-.5 1.1-1.2s-.5-1.1-1.2-1.1-.8.2-1.2.5v-3h2.3v.6zM14.4 336c0 .2-.2.4-.4.4s-.4-.2-.4-.4.2-.4.4-.4.4.2.4.4zM18.7 334.8c0 .6-.1 1-.4 1.2-.3.3-.7.4-1.2.4s-1-.2-1.2-.5c-.3-.3-.4-.6-.4-1.4v-1.8c0-.7 0-1 .3-1.3.3-.3.7-.5 1.2-.5s.9.1 1.2.4c.3.3.4.6.4 1.2v2.1zm-2.5-.1c0 .6 0 .7.2.9.2.2.5.3.8.3s.6-.1.8-.4c.1-.2.2-.4.2-.8v-2c0-.4 0-.6-.3-.8-.2-.2-.4-.2-.7-.2s-.6.1-.8.4c-.1.2-.2.4-.2.8v1.8zM22.1 332.7v.5c.3-.4.6-.6 1-.6s.8.2 1 .7c.3-.5.6-.7 1.2-.7s.7.1.9.4c.2.2.2.4.2 1v2.4h-.6v-2.2c0-.4 0-.6-.1-.7-.1-.2-.4-.3-.6-.3-.5 0-.8.4-.8 1v2.2h-.6v-2.2c0-.4 0-.5-.1-.7-.1-.2-.3-.3-.6-.3-.5 0-.9.4-.9 1v2.2h-.6v-3.7h.6zM29.7 333.9v.4h-2l1.2-1.6c.3-.5.4-.6.4-.8 0-.3-.2-.4-.5-.4s-.5.2-.5.6h-.4c0-.6.4-1 1-1s1 .3 1 .8-.1.5-.4.9l-.8 1.1h1.1z"/></g><g><path d="M111.5 139.6h-.7v-5.3h.7v2.5l2.1-2.5h.8l-2.2 2.6 2.2 2.7h-.9l-2-2.5v2.5zM118.5 137.8c0 1.1-.8 1.9-1.9 1.9s-1.9-.8-1.9-1.9.8-1.9 1.9-1.9 1.9.8 1.9 1.9zm-3.1 0c0 .8.5 1.4 1.3 1.4s1.2-.6 1.2-1.4-.5-1.4-1.2-1.4-1.3.6-1.3 1.4zM122.5 139.2c-.4.4-.8.5-1.4.5-1.1 0-1.8-.8-1.8-1.9s.8-1.9 1.8-1.9 1 .2 1.3.6l-.4.4c-.3-.3-.6-.4-.9-.4-.7 0-1.2.6-1.2 1.4s.5 1.4 1.2 1.4.6-.1.9-.4l.4.4zM124 136.5c.3-.4.7-.6 1.1-.6s.7.1.9.3c.2.2.3.5.3 1v2.5h-.6v-2.4c0-.5-.2-.8-.7-.8s-.5.1-.7.3c-.2.2-.2.4-.2.7v2.2h-.6v-5.3h.6v2.2zM128 138c0 .3 0 .5.2.7.2.3.6.5 1 .5s.9-.2 1.1-.6l.5.2c-.3.6-.9 1-1.6 1-1.1 0-1.9-.8-1.9-1.9s.8-1.9 1.9-1.9 1.9.8 1.9 1.9v.2H128zm2.4-.4c0-.3 0-.4-.2-.6-.2-.3-.6-.5-1-.5s-.8.2-1 .5c-.1.2-.2.3-.2.6h2.4zM132.8 135.9v.5c.3-.4.6-.6 1.1-.6s.6.1.9.3c.2.2.3.5.3 1v2.5h-.6v-2.4c0-.3 0-.5-.1-.6-.1-.2-.3-.2-.6-.2s-.5.1-.7.3c-.2.2-.2.4-.2.7v2.2h-.6v-3.7h.6zM136.3 140.9h-.4l.7-2.1.6.2-.8 1.9zM141.4 136.7h2.1v.6h-2.1v1.8h2.1v.6h-2.8v-5.3h2.8v.6h-2.1v1.8zM146.5 136.9c0-.4-.3-.6-.7-.6s-.7.2-.7.5.2.4.8.6c.5.1.7.2.9.4.2.2.3.4.3.7 0 .6-.5 1.1-1.3 1.1s-1.3-.4-1.4-1.1h.6c0 .4.3.6.8.6s.7-.2.7-.5-.2-.5-.8-.6c-.8-.2-1.2-.6-1.2-1.1s.5-1.1 1.3-1.1 1.3.4 1.3 1.1h-.6zM150 136.9c0-.4-.3-.6-.7-.6s-.7.2-.7.5.2.4.8.6c.5.1.7.2.9.4.2.2.3.4.3.7 0 .6-.5 1.1-1.3 1.1s-1.3-.4-1.4-1.1h.6c0 .4.3.6.8.6s.7-.2.7-.5-.2-.5-.8-.6c-.8-.2-1.2-.6-1.2-1.1s.5-1.1 1.3-1.1 1.3.4 1.3 1.1h-.6zM152.2 138c0 .3 0 .5.2.7.2.3.6.5 1 .5s.9-.2 1.1-.6l.5.2c-.3.6-.9 1-1.6 1-1.1 0-1.9-.8-1.9-1.9s.8-1.9 1.9-1.9 1.9.8 1.9 1.9v.2h-3.1zm2.4-.4c0-.3 0-.4-.2-.6-.2-.3-.6-.5-1-.5s-.8.2-1 .5c-.1.2-.2.3-.2.6h2.4zM156.9 135.9v.5c.3-.4.6-.6 1.1-.6s.6.1.9.3c.2.2.3.5.3 1v2.5h-.6v-2.4c0-.3 0-.5-.1-.6-.1-.2-.3-.2-.6-.2s-.5.1-.7.3c-.2.2-.2.4-.2.7v2.2h-.6v-3.7h.6zM160.5 140.9h-.4l.7-2.1.6.2-.8 1.9zM116.3 143.3h.7l-1.6 5.3h-.6l-1.2-4.2-1.2 4.2h-.6l-1.6-5.3h.7l1.2 4.1 1.2-4.1h.6l1.1 4.1 1.2-4.1zM121.1 146.8c0 1.1-.8 1.9-1.9 1.9s-1.9-.8-1.9-1.9.8-1.9 1.9-1.9 1.9.8 1.9 1.9zm-3.1 0c0 .8.5 1.4 1.3 1.4s1.2-.6 1.2-1.4-.5-1.4-1.2-1.4-1.3.6-1.3 1.4zM122.8 145.5c.3-.4.7-.6 1.1-.6s.7.1.9.3c.2.2.3.5.3 1v2.5h-.6v-2.4c0-.5-.2-.8-.7-.8s-.5.1-.7.3c-.2.2-.2.4-.2.7v2.2h-.6v-5.3h.6v2.2zM127 144.9v.5c.3-.4.6-.6 1.1-.6s.6.1.9.3c.2.2.3.5.3 1v2.5h-.6v-2.4c0-.3 0-.5-.1-.6-.1-.2-.3-.2-.6-.2s-.5.1-.7.3c-.2.2-.2.4-.2.7v2.2h-.6v-3.7h.6zM131 147c0 .3 0 .5.2.7.2.3.6.5 1 .5s.9-.2 1.1-.6l.5.2c-.3.6-.9 1-1.6 1-1.1 0-1.9-.8-1.9-1.9s.8-1.9 1.9-1.9 1.9.8 1.9 1.9v.2H131zm2.4-.4c0-.3 0-.4-.2-.6-.2-.3-.6-.5-1-.5s-.8.2-1 .5c-.1.2-.2.3-.2.6h2.4zM135.7 144.9v.5c.3-.4.6-.6 1.1-.6s.6.1.9.3c.2.2.3.5.3 1v2.5h-.6v-2.4c0-.3 0-.5-.1-.6-.1-.2-.3-.2-.6-.2s-.5.1-.7.3c-.2.2-.2.4-.2.7v2.2h-.6v-3.7h.6zM110.7 153v-.6h3l-1.6 2c.9 0 1.6.7 1.6 1.6s-.8 1.7-1.8 1.7-1.4-.5-1.6-1.3h.6c.1.4.5.7 1 .7s1.2-.5 1.2-1.1-.5-1.1-1.2-1.1-.4 0-.6.2l-.3-.2 1.5-1.9h-1.9zM117.3 152.9h-1.7v1.4c.3-.1.5-.2.8-.2.9 0 1.6.7 1.6 1.7s-.8 1.8-1.8 1.8-1.3-.4-1.6-1.1l.6-.2c.1.2.2.3.3.4.2.2.5.3.8.3.6 0 1.1-.5 1.1-1.2s-.5-1.1-1.2-1.1-.8.2-1.2.5v-3h2.3v.6zM119.8 157.3c0 .2-.2.4-.4.4s-.4-.2-.4-.4.2-.4.4-.4.4.2.4.4zM122.2 154.5c.2 0 .3-.1.5-.1.9 0 1.6.7 1.6 1.6s-.8 1.7-1.7 1.7-1.7-.8-1.7-1.7.1-.7.4-1.2l1.5-2.5h.7l-1.4 2.1zm-.7 1.5c0 .6.5 1.1 1.1 1.1s1.1-.5 1.1-1.1-.5-1.1-1.1-1.1-1.1.5-1.1 1.1zM128.3 153.9v.5c.3-.4.6-.6 1-.6s.8.2 1 .7c.3-.5.6-.7 1.2-.7s.7.1.9.4c.2.2.2.4.2 1v2.4h-.6v-2.2c0-.4 0-.6-.1-.7-.1-.2-.4-.3-.6-.3-.5 0-.8.4-.8 1v2.2h-.6v-2.2c0-.4 0-.5-.1-.7-.1-.2-.3-.3-.6-.3-.5 0-.9.4-.9 1v2.2h-.6v-3.7h.6zM135.9 155.1v.4h-2l1.2-1.6c.3-.5.4-.6.4-.8 0-.3-.2-.4-.5-.4s-.5.2-.5.6h-.4c0-.6.4-1 1-1s1 .3 1 .8-.1.5-.4.9l-.8 1.1h1.1z"/></g><g><path d="M200.2 74.7h1.4c1.6 0 2.6 1 2.6 2.6s-.3 1.6-.8 2.1c-.5.4-1.1.6-1.9.6h-1.3v-5.3zm.7 4.8h.2c.9 0 1.3 0 1.7-.4.5-.4.7-1 .7-1.8 0-1.3-.7-2-1.9-2h-.7v4.2zM208.2 76.4v2.4c0 .5 0 .8-.4 1-.3.2-.6.4-1.1.4s-.8-.1-1.1-.4c-.2-.2-.4-.6-.4-1v-2.4h.6v2.3c0 .5.3.9.8.9s.5-.1.7-.3c.1-.1.2-.3.2-.6v-2.4h.6zM211.3 77.4c0-.4-.3-.6-.7-.6s-.7.2-.7.5.2.4.8.6c.5.1.7.2.9.4.2.2.3.4.3.7 0 .6-.5 1.1-1.3 1.1s-1.3-.4-1.4-1.1h.6c0 .4.3.6.8.6s.7-.2.7-.5-.2-.5-.8-.6c-.8-.2-1.2-.6-1.2-1.1s.5-1.1 1.3-1.1 1.3.4 1.3 1.1h-.6zM215.9 79.6c-.4.4-.8.5-1.4.5-1.1 0-1.8-.8-1.8-1.9s.8-1.9 1.8-1.9 1 .2 1.3.6l-.4.4c-.3-.3-.6-.4-.9-.4-.7 0-1.2.6-1.2 1.4s.5 1.4 1.2 1.4.6-.1.9-.4l.4.4zM217.5 76.9c.3-.4.7-.6 1.1-.6s.7.1.9.3c.2.2.3.5.3 1v2.5h-.6v-2.4c0-.5-.2-.8-.7-.8s-.5.1-.7.3c-.2.2-.2.4-.2.7v2.2h-.6v-5.3h.6V77zM221.4 78.4c0 .3 0 .5.2.7.2.3.6.5 1 .5s.9-.2 1.1-.6l.5.2c-.3.6-.9 1-1.6 1-1.1 0-1.9-.8-1.9-1.9s.8-1.9 1.9-1.9 1.9.8 1.9 1.9v.2h-3.1zm2.4-.4c0-.3 0-.4-.2-.6-.2-.3-.6-.5-1-.5s-.8.2-1 .5c-.1.2-.2.3-.2.6h2.4zM199.9 87.9v-.5l2.8-3.7v3.6h.6v.6h-.6v1.2h-.6v-1.2H200zm2.1-2.6l-1.5 2h1.5v-2zM205.1 88.7c0 .2-.2.4-.4.4s-.4-.2-.4-.4.2-.4.4-.4.4.2.4.4zM207.4 85.9c.2 0 .3-.1.5-.1.9 0 1.6.7 1.6 1.6s-.8 1.7-1.7 1.7-1.7-.8-1.7-1.7.1-.7.4-1.2l1.5-2.5h.7l-1.4 2.1zm-.7 1.5c0 .6.5 1.1 1.1 1.1s1.1-.5 1.1-1.1-.5-1.1-1.1-1.1-1.1.5-1.1 1.1zM212.7 85.4v.5c.3-.4.6-.6 1-.6s.8.2 1 .7c.3-.5.6-.7 1.2-.7s.7.1.9.4c.2.2.2.4.2 1v2.4h-.6v-2.2c0-.4 0-.6-.1-.7-.1-.2-.4-.3-.6-.3-.5 0-.8.4-.8 1v2.2h-.6v-2.2c0-.4 0-.5-.1-.7-.1-.2-.3-.3-.6-.3-.5 0-.9.4-.9 1v2.2h-.6v-3.7h.6zM220.3 86.5v.4h-2l1.2-1.6c.3-.5.4-.6.4-.8 0-.3-.2-.4-.5-.4s-.5.2-.5.6h-.4c0-.6.4-1 1-1s1 .3 1 .8-.1.5-.4.9l-.8 1.1h1.1z"/></g><g><path d="M179.8 198.2c1.1 0 1.7.5 1.7 1.4s-.1.6-.3.9c-.1.2-.3.2-.5.3.3 0 .4.1.6.2.3.2.4.6.4 1s-.2.9-.6 1.2c-.3.2-.7.3-1.3.3h-1.5v-5.3h1.5zm-.8 2.4h.7c.4 0 .7 0 .9-.2.2-.2.3-.4.3-.7s-.2-.6-.4-.8c-.2 0-.4-.1-.9-.1h-.6v1.8zm0 2.4h.7c.6 0 .8 0 1-.2.3-.1.4-.4.4-.8 0-.6-.4-.9-1.2-.9h-.8v1.8zM185.7 199.8h.6v3.7h-.6v-.7c-.4.6-.8.8-1.3.8-1 0-1.7-.8-1.7-1.9s.7-1.9 1.8-1.9 1 .2 1.3.7v-.6zm-2.1.9c-.2.3-.3.6-.3 1 0 .8.5 1.4 1.2 1.4s1.3-.6 1.3-1.4-.5-1.4-1.2-1.4-.7.1-.9.4zM190.5 198.2h.6v5.3h-.6v-.6c-.4.5-.8.7-1.3.7-1 0-1.7-.8-1.7-1.9s.7-2 1.7-2 1 .2 1.3.6v-2.2zm-2.4 3.5c0 .8.5 1.4 1.2 1.4s1.2-.6 1.2-1.4-.5-1.4-1.2-1.4-1.2.6-1.2 1.4zM178 211.3v-.5l2.8-3.7v3.6h.6v.6h-.6v1.2h-.6v-1.2h-2.1zm2.1-2.6l-1.5 2h1.5v-2zM183.2 212.1c0 .2-.2.4-.4.4s-.4-.2-.4-.4.2-.4.4-.4.4.2.4.4zM187.2 211.9v.6h-3l1.9-2.7c.5-.8.7-1 .7-1.3 0-.5-.4-.8-.9-.8s-.7.2-.8.4v.6h-.6c0-1 .6-1.6 1.5-1.6s1.5.5 1.5 1.3-.2.8-.6 1.5l-1.4 2h1.9zM190.8 208.8v.5c.3-.4.6-.6 1-.6s.8.2 1 .7c.3-.5.6-.7 1.2-.7s.7.1.9.4c.2.2.2.4.2 1v2.4h-.6v-2.2c0-.4 0-.6-.1-.7-.1-.2-.4-.3-.6-.3-.5 0-.8.4-.8 1v2.2h-.6v-2.2c0-.4 0-.5-.1-.7-.1-.2-.3-.3-.6-.3-.5 0-.9.4-.9 1v2.2h-.6v-3.7h.6zM198.4 210v.4h-2l1.2-1.6c.3-.5.4-.6.4-.8 0-.3-.2-.4-.5-.4s-.5.2-.5.6h-.4c0-.6.4-1 1-1s1 .3 1 .8-.1.5-.4.9l-.8 1.1h1.1z"/></g><g><path d="M171.9 281.2v.6h-2.5v-5.3h.7v4.7h1.9zM173.5 277c0 .2-.2.4-.4.4s-.4-.2-.4-.4.2-.4.4-.4.4.2.4.4zm0 4.7h-.6V278h.6v3.7zM175.5 281.8h-.6v-3.2h-.5v-.5h.5v-.5c0-.7.4-1.2 1-1.2h.2v.5c-.4 0-.6.2-.6.6v.5h.6v.5h-.6v3.2zM177.9 281c0 .2 0 .2.3.2h.3v.5h-.6c-.4 0-.6-.2-.6-.6v-2.6h-.5v-.5h.5v-1.2h.6v1.2h.6v.5h-.6v2.4z"/></g></g></svg>