<svg xmlns="http://www.w3.org/2000/svg" viewBox="0 0 342.2 345.8"><defs><style>.cls-1,.cls-10,.cls-11,.cls-12,.cls-13,.cls-14,.cls-15,.cls-16,.cls-17,.cls-18,.cls-19,.cls-2,.cls-20,.cls-21,.cls-22,.cls-23,.cls-24,.cls-25,.cls-26,.cls-27,.cls-3,.cls-4,.cls-5,.cls-6,.cls-7,.cls-8,.cls-9{fill:none;stroke-linecap:round;stroke-linejoin:round}.cls-1,.cls-10,.cls-11,.cls-12,.cls-13,.cls-14,.cls-15,.cls-16,.cls-17,.cls-18,.cls-19,.cls-2,.cls-20,.cls-21,.cls-22,.cls-23,.cls-24,.cls-25,.cls-27,.cls-3,.cls-4,.cls-5,.cls-6{stroke-width:.1px}.cls-1,.cls-10,.cls-12,.cls-16,.cls-18,.cls-19,.cls-20,.cls-21,.cls-23,.cls-24,.cls-25,.cls-26,.cls-3,.cls-4,.cls-6{stroke:#194164}.cls-1,.cls-10,.cls-12,.cls-16,.cls-18,.cls-21,.cls-23,.cls-24,.cls-6{stroke-dasharray:0 0 0 0 2.9 1.4 .2 1.4}.cls-2{stroke:#646464}.cls-11,.cls-13,.cls-14,.cls-15,.cls-17,.cls-19,.cls-20,.cls-27,.cls-3,.cls-4,.cls-5{stroke-dasharray:0 0 1.4 1.4}.cls-18,.cls-4{stroke-dashoffset:1px}.cls-28,.cls-29{fill:#fff}.cls-11,.cls-13,.cls-14,.cls-15,.cls-17,.cls-22,.cls-27,.cls-5{stroke:#969696}.cls-6{stroke-dashoffset:1.4px}.cls-7{stroke:#000;stroke-width:.3px}.cls-8,.cls-9{stroke:#b8b8b8;stroke-width:0}.cls-9{stroke:#9f9f9f}.cls-10{stroke-dashoffset:4.3px}.cls-11{stroke-dashoffset:2.8px}.cls-12{stroke-dashoffset:1.9px}.cls-13{stroke-dashoffset:1.1px}.cls-14{stroke-dashoffset:2.7px}.cls-15{stroke-dashoffset:2.5px}.cls-16{stroke-dashoffset:2.4px}.cls-17,.cls-21{stroke-dashoffset:.7px}.cls-29{fill-rule:evenodd}.cls-19{stroke-dashoffset:.2px}.cls-20{stroke-dashoffset:.5px}.cls-23,.cls-27{stroke-dashoffset:1.2px}.cls-24{stroke-dashoffset:2.2px}.cls-26{stroke-width:.3px}</style></defs><g id="Plan"><path class="cls-26" d="M111.3 264.4h39.8v29.8h-39.8z"/><path class="cls-25" d="M160 295.8v-35.3M156.9 277.6v13.9M154 264.9v13.9"/><path class="cls-29" d="M66.9 273H7.1V17.2h59.8v9.6h-.3v19.9h.3v36.7h-.3v31.2h.3v70.8h-.3v31.2h.3V273"/><path class="cls-22" d="M65.2 273v-8.9M65.2 253.3v-10.8M65.2 231.7v-10.5M65.2 210.4v-10.8M65.2 188.8v-10.6M65.2 167.2v-10.6M65.2 145.8v-10.5M65.2 124.2v-10.5M65.2 102.9V92.3M65.2 81.3V70.7M65.2 59.9V49.3M65.2 38.3V27.7M57.7 273v-8.9M57.7 253.3v-10.8M57.7 231.7v-10.5M57.7 210.4v-10.8M57.7 188.8v-10.6M57.7 167.2v-10.6M57.7 145.8v-10.5M57.7 124.2v-10.5M57.7 102.9V92.3M57.7 81.3V70.7M57.7 59.9V49.3M57.7 38.3V27.7M50.5 273v-8.9M50.5 253.3v-10.8M50.5 231.7v-10.5M50.5 210.4v-10.8M50.5 188.8v-10.6M50.5 167.2v-10.6M50.5 145.8v-10.5M50.5 124.2v-10.5M50.5 102.9V92.3M50.5 81.3V70.7M50.5 59.9V49.3M50.5 38.3V27.7M43.3 273v-8.9M43.3 253.3v-10.8M43.3 231.7v-10.5M43.3 210.4v-10.8M43.3 188.8v-10.6M43.3 167.2v-10.6M43.3 145.8v-10.5M43.3 124.2v-10.5M43.3 102.9V92.3M43.3 81.3V70.7M43.3 59.9V49.3M43.3 38.3V27.7M36.1 273v-8.9M36.1 253.3v-10.8M36.1 231.7v-10.5M36.1 210.4v-10.8M36.1 188.8v-10.6M36.1 167.2v-10.6M36.1 145.8v-10.5M36.1 124.2v-10.5M36.1 102.9V92.3M36.1 81.3V70.7M36.1 59.9V49.3M36.1 38.3V27.7M28.7 273v-8.9M28.7 253.3v-10.8M28.7 231.7v-10.5M28.7 210.4v-10.8M28.7 188.8v-10.6M28.7 167.2v-10.6M28.7 145.8v-10.5M28.7 124.2v-10.5M28.7 102.9V92.3M28.7 81.3V70.7M28.7 59.9V49.3M28.7 38.3V27.7M21.5 273v-8.9M21.5 253.3v-10.8M21.5 231.7v-10.5M21.5 210.4v-10.8M21.5 188.8v-10.6M21.5 167.2v-10.6M21.5 145.8v-10.5M21.5 124.2v-10.5M21.5 102.9V92.3M21.5 81.3V70.7M21.5 59.9V49.3M21.5 38.3V27.7M14.3 273v-8.9M14.3 253.3v-10.8M14.3 231.7v-10.5M14.3 210.4v-10.8M14.3 188.8v-10.6M14.3 167.2v-10.6M14.3 145.8v-10.5M14.3 124.2v-10.5M14.3 102.9V92.3M14.3 81.3V70.7M14.3 59.9V49.3M14.3 38.3V27.7M66.9 253.3h-1.7M59.4 253.3h-1.7M52.2 253.3h-1.7M45 253.3h-1.7M37.8 253.3h-1.7M30.6 253.3h-1.9M23.2 253.3h-1.7M16 253.3h-1.7M8.8 253.3H7.3M66.9 231.7h-1.7M59.4 231.7h-1.7M52.2 231.7h-1.7M45 231.7h-1.7M37.8 231.7h-1.7M30.6 231.7h-1.9M23.2 231.7h-1.7M16 231.7h-1.7M8.8 231.7H7.3M66.9 210.4h-1.7M59.4 210.4h-1.7M52.2 210.4h-1.7M45 210.4h-1.7M37.8 210.4h-1.7M30.6 210.4h-1.9M23.2 210.4h-1.7M16 210.4h-1.7M8.8 210.4H7.3M66.9 188.8h-1.7M59.4 188.8h-1.7M52.2 188.8h-1.7M45 188.8h-1.7M37.8 188.8h-1.7M30.6 188.8h-1.9M23.2 188.8h-1.7M16 188.8h-1.7M8.8 188.8H7.3M66.9 167.2h-1.7M59.4 167.2h-1.7M52.2 167.2h-1.7M45 167.2h-1.7M37.8 167.2h-1.7M30.6 167.2h-1.9M23.2 167.2h-1.7M16 167.2h-1.7M8.8 167.2H7.3M66.9 145.8h-1.7M59.4 145.8h-1.7M52.2 145.8h-1.7M45 145.8h-1.7M37.8 145.8h-1.7M30.6 145.8h-1.9M23.2 145.8h-1.7M16 145.8h-1.7M8.8 145.8H7.3M66.9 124.2h-1.7M59.4 124.2h-1.7M52.2 124.2h-1.7M45 124.2h-1.7M37.8 124.2h-1.7M30.6 124.2h-1.9M23.2 124.2h-1.7M16 124.2h-1.7M8.8 124.2H7.3M66.9 102.9h-1.7M59.4 102.9h-1.7M52.2 102.9h-1.7M45 102.9h-1.7M37.8 102.9h-1.7M30.6 102.9h-1.9M23.2 102.9h-1.7M16 102.9h-1.7M8.8 102.9H7.3M66.9 81.3h-1.7M59.4 81.3h-1.7M52.2 81.3h-1.7M45 81.3h-1.7M37.8 81.3h-1.7M30.6 81.3h-1.9M23.2 81.3h-1.7M16 81.3h-1.7M8.8 81.3H7.3M66.9 59.9h-1.7M59.4 59.9h-1.7M52.2 59.9h-1.7M45 59.9h-1.7M37.8 59.9h-1.7M30.6 59.9h-1.9M23.2 59.9h-1.7M16 59.9h-1.7M8.8 59.9H7.3M66.9 38.3h-1.7M59.4 38.3h-1.7M52.2 38.3h-1.7M45 38.3h-1.7M37.8 38.3h-1.7M30.6 38.3h-1.9M23.2 38.3h-1.7M16 38.3h-1.7M8.8 38.3H7.3M65.2 264.1v-10.5M65.2 242.5V232M65.2 221.2v-10.8M65.2 199.6V189M65.2 178.2v-10.8M65.2 156.6v-10.5M65.2 135.3v-10.8M65.2 113.7v-10.6M65.2 92.3V81.5M65.2 70.7V60.1M65.2 49.3V38.5M65.2 27.7V17.2M57.7 264.1v-10.5M57.7 242.5V232M57.7 221.2v-10.8M57.7 199.6V189M57.7 178.2v-10.8M57.7 156.6v-10.5M57.7 135.3v-10.8M57.7 113.7v-10.6M57.7 92.3V81.5M57.7 70.7V60.1M57.7 49.3V38.5M57.7 27.7V17.2M50.5 264.1v-10.5M50.5 242.5V232M50.5 221.2v-10.8M50.5 199.6V189M50.5 178.2v-10.8M50.5 156.6v-10.5M50.5 135.3v-10.8M50.5 113.7v-10.6M50.5 92.3V81.5M50.5 70.7V60.1M50.5 49.3V38.5M50.5 27.7V17.2M43.3 264.1v-10.5M43.3 242.5V232M43.3 221.2v-10.8M43.3 199.6V189M43.3 178.2v-10.8M43.3 156.6v-10.5M43.3 135.3v-10.8M43.3 113.7v-10.6M43.3 92.3V81.5M43.3 70.7V60.1M43.3 49.3V38.5M43.3 27.7V17.2M36.1 264.1v-10.5M36.1 242.5V232M36.1 221.2v-10.8M36.1 199.6V189M36.1 178.2v-10.8M36.1 156.6v-10.5M36.1 135.3v-10.8M36.1 113.7v-10.6M36.1 92.3V81.5M36.1 70.7V60.1M36.1 49.3V38.5M36.1 27.7V17.2M28.7 264.1v-10.5M28.7 242.5V232M28.7 221.2v-10.8M28.7 199.6V189M28.7 178.2v-10.8M28.7 156.6v-10.5M28.7 135.3v-10.8M28.7 113.7v-10.6M28.7 92.3V81.5M28.7 70.7V60.1M28.7 49.3V38.5M28.7 27.7V17.2M21.5 264.1v-10.5M21.5 242.5V232M21.5 221.2v-10.8M21.5 199.6V189M21.5 178.2v-10.8M21.5 156.6v-10.5M21.5 135.3v-10.8M21.5 113.7v-10.6M21.5 92.3V81.5M21.5 70.7V60.1M21.5 49.3V38.5M21.5 27.7V17.2M14.3 264.1v-10.5M14.3 242.5V232M14.3 221.2v-10.8M14.3 199.6V189M14.3 178.2v-10.8M14.3 156.6v-10.5M14.3 135.3v-10.8M14.3 113.7v-10.6M14.3 92.3V81.5M14.3 70.7V60.1M14.3 49.3V38.5M14.3 27.7V17.2M66.9 253.6h-1.7M59.4 253.6h-1.7M52.2 253.6h-1.7M45 253.6h-1.7M37.8 253.6h-1.7M30.6 253.6h-1.9M23.2 253.6h-1.7M16 253.6h-1.7M8.8 253.6H7.3M66.9 232h-1.7M59.4 232h-1.7M52.2 232h-1.7M45 232h-1.7M37.8 232h-1.7M30.6 232h-1.9M23.2 232h-1.7M16 232h-1.7M8.8 232H7.3M66.9 210.4h-1.7M59.4 210.4h-1.7M52.2 210.4h-1.7M45 210.4h-1.7M37.8 210.4h-1.7M30.6 210.4h-1.9M23.2 210.4h-1.7M16 210.4h-1.7M8.8 210.4H7.3M66.9 189h-1.7M59.4 189h-1.7M52.2 189h-1.7M45 189h-1.7M37.8 189h-1.7M30.6 189h-1.9M23.2 189h-1.7M16 189h-1.7M8.8 189H7.3M66.9 167.4h-1.7M59.4 167.4h-1.7M52.2 167.4h-1.7M45 167.4h-1.7M37.8 167.4h-1.7M30.6 167.4h-1.9M23.2 167.4h-1.7M16 167.4h-1.7M8.8 167.4H7.3M66.9 146.1h-1.7M59.4 146.1h-1.7M52.2 146.1h-1.7M45 146.1h-1.7M37.8 146.1h-1.7M30.6 146.1h-1.9M23.2 146.1h-1.7M16 146.1h-1.7M8.8 146.1H7.3M66.9 124.5h-1.7M59.4 124.5h-1.7M52.2 124.5h-1.7M45 124.5h-1.7M37.8 124.5h-1.7M30.6 124.5h-1.9M23.2 124.5h-1.7M16 124.5h-1.7M8.8 124.5H7.3M66.9 103.1h-1.7M59.4 103.1h-1.7M52.2 103.1h-1.7M45 103.1h-1.7M37.8 103.1h-1.7M30.6 103.1h-1.9M23.2 103.1h-1.7M16 103.1h-1.7M8.8 103.1H7.3M66.9 81.5h-1.7M59.4 81.5h-1.7M52.2 81.5h-1.7M45 81.5h-1.7M37.8 81.5h-1.7M30.6 81.5h-1.9M23.2 81.5h-1.7M16 81.5h-1.7M8.8 81.5H7.3M66.9 60.1h-1.7M59.4 60.1h-1.7M52.2 60.1h-1.7M45 60.1h-1.7M37.8 60.1h-1.7M30.6 60.1h-1.9M23.2 60.1h-1.7M16 60.1h-1.7M8.8 60.1H7.3M66.9 38.5h-1.7M59.4 38.5h-1.7M52.2 38.5h-1.7M45 38.5h-1.7M37.8 38.5h-1.7M30.6 38.5h-1.9M23.2 38.5h-1.7M16 38.5h-1.7M8.8 38.5H7.3M61.3 273v-8.9M61.3 253.3v-10.8M61.3 231.7v-10.5M61.3 210.4v-10.8M61.3 188.8v-10.6M61.3 167.2v-10.6M61.3 145.8v-10.5M61.3 124.2v-10.5M61.3 102.9V92.3M61.3 81.3V70.7M61.3 59.9V49.3M61.3 38.3V27.7M53.9 273v-8.9M53.9 253.3v-10.8M53.9 231.7v-10.5M53.9 210.4v-10.8M53.9 188.8v-10.6M53.9 167.2v-10.6M53.9 145.8v-10.5M53.9 124.2v-10.5M53.9 102.9V92.3M53.9 81.3V70.7M53.9 59.9V49.3M53.9 38.3V27.7M46.7 273v-8.9M46.7 253.3v-10.8M46.7 231.7v-10.5M46.7 210.4v-10.8M46.7 188.8v-10.6M46.7 167.2v-10.6M46.7 145.8v-10.5M46.7 124.2v-10.5M46.7 102.9V92.3M46.7 81.3V70.7M46.7 59.9V49.3M46.7 38.3V27.7M39.5 273v-8.9M39.5 253.3v-10.8M39.5 231.7v-10.5M39.5 210.4v-10.8M39.5 188.8v-10.6M39.5 167.2v-10.6M39.5 145.8v-10.5M39.5 124.2v-10.5M39.5 102.9V92.3M39.5 81.3V70.7M39.5 59.9V49.3M39.5 38.3V27.7M32.3 273v-8.9M32.3 253.3v-10.8M32.3 231.7v-10.5M32.3 210.4v-10.8M32.3 188.8v-10.6M32.3 167.2v-10.6M32.3 145.8v-10.5M32.3 124.2v-10.5M32.3 102.9V92.3M32.3 81.3V70.7M32.3 59.9V49.3M32.3 38.3V27.7M24.9 273v-8.9M24.9 253.3v-10.8M24.9 231.7v-10.5M24.9 210.4v-10.8M24.9 188.8v-10.6M24.9 167.2v-10.6M24.9 145.8v-10.5M24.9 124.2v-10.5M24.9 102.9V92.3M24.9 81.3V70.7M24.9 59.9V49.3M24.9 38.3V27.7M17.7 273v-8.9M17.7 253.3v-10.8M17.7 231.7v-10.5M17.7 210.4v-10.8M17.7 188.8v-10.6M17.7 167.2v-10.6M17.7 145.8v-10.5M17.7 124.2v-10.5M17.7 102.9V92.3M17.7 81.3V70.7M17.7 59.9V49.3M17.7 38.3V27.7M10.5 273v-8.9M10.5 253.3v-10.8M10.5 231.7v-10.5M10.5 210.4v-10.8M10.5 188.8v-10.6M10.5 167.2v-10.6M10.5 145.8v-10.5M10.5 124.2v-10.5M10.5 102.9V92.3M10.5 81.3V70.7M10.5 59.9V49.3M10.5 38.3V27.7M67.1 253.3h-.2M61.3 253.3h-1.9M53.9 253.3h-1.7M46.7 253.3H45M39.5 253.3h-1.7M32.3 253.3h-1.7M24.9 253.3h-1.7M17.7 253.3H16M10.5 253.3H8.8M67.1 231.7h-.2M61.3 231.7h-1.9M53.9 231.7h-1.7M46.7 231.7H45M39.5 231.7h-1.7M32.3 231.7h-1.7M24.9 231.7h-1.7M17.7 231.7H16M10.5 231.7H8.8M61.3 210.4h-1.9M53.9 210.4h-1.7M46.7 210.4H45M39.5 210.4h-1.7M32.3 210.4h-1.7M24.9 210.4h-1.7M17.7 210.4H16M10.5 210.4H8.8M61.3 188.8h-1.9M53.9 188.8h-1.7M46.7 188.8H45M39.5 188.8h-1.7M32.3 188.8h-1.7M24.9 188.8h-1.7M17.7 188.8H16M10.5 188.8H8.8M67.1 167.2h-.2M61.3 167.2h-1.9M53.9 167.2h-1.7M46.7 167.2H45M39.5 167.2h-1.7M32.3 167.2h-1.7M24.9 167.2h-1.7M17.7 167.2H16M10.5 167.2H8.8M67.1 145.8h-.2M61.3 145.8h-1.9M53.9 145.8h-1.7M46.7 145.8H45M39.5 145.8h-1.7M32.3 145.8h-1.7M24.9 145.8h-1.7M17.7 145.8H16M10.5 145.8H8.8M67.1 124.2h-.2M61.3 124.2h-1.9M53.9 124.2h-1.7M46.7 124.2H45M39.5 124.2h-1.7M32.3 124.2h-1.7M24.9 124.2h-1.7M17.7 124.2H16M10.5 124.2H8.8M61.3 102.9h-1.9M53.9 102.9h-1.7M46.7 102.9H45M39.5 102.9h-1.7M32.3 102.9h-1.7M24.9 102.9h-1.7M17.7 102.9H16M10.5 102.9H8.8M67.1 81.3h-.2M61.3 81.3h-1.9M53.9 81.3h-1.7M46.7 81.3H45M39.5 81.3h-1.7M32.3 81.3h-1.7M24.9 81.3h-1.7M17.7 81.3H16M10.5 81.3H8.8M67.1 59.9h-.2M61.3 59.9h-1.9M53.9 59.9h-1.7M46.7 59.9H45M39.5 59.9h-1.7M32.3 59.9h-1.7M24.9 59.9h-1.7M17.7 59.9H16M10.5 59.9H8.8M61.3 38.3h-1.9M53.9 38.3h-1.7M46.7 38.3H45M39.5 38.3h-1.7M32.3 38.3h-1.7M24.9 38.3h-1.7M17.7 38.3H16M10.5 38.3H8.8M67.1 253.6h-.2M61.3 253.6h-1.9M53.9 253.6h-1.7M46.7 253.6H45M39.5 253.6h-1.7M32.3 253.6h-1.7M24.9 253.6h-1.7M17.7 253.6H16M10.5 253.6H8.8M67.1 232h-.2M61.3 232h-1.9M53.9 232h-1.7M46.7 232H45M39.5 232h-1.7M32.3 232h-1.7M24.9 232h-1.7M17.7 232H16M10.5 232H8.8M61.3 210.4h-1.9M53.9 210.4h-1.7M46.7 210.4H45M39.5 210.4h-1.7M32.3 210.4h-1.7M24.9 210.4h-1.7M17.7 210.4H16M10.5 210.4H8.8M61.3 189h-1.9M53.9 189h-1.7M46.7 189H45M39.5 189h-1.7M32.3 189h-1.7M24.9 189h-1.7M17.7 189H16M10.5 189H8.8M67.1 167.4h-.2M61.3 167.4h-1.9M53.9 167.4h-1.7M46.7 167.4H45M39.5 167.4h-1.7M32.3 167.4h-1.7M24.9 167.4h-1.7M17.7 167.4H16M10.5 167.4H8.8M67.1 146.1h-.2M61.3 146.1h-1.9M53.9 146.1h-1.7M46.7 146.1H45M39.5 146.1h-1.7M32.3 146.1h-1.7M24.9 146.1h-1.7M17.7 146.1H16M10.5 146.1H8.8M67.1 124.5h-.2M61.3 124.5h-1.9M53.9 124.5h-1.7M46.7 124.5H45M39.5 124.5h-1.7M32.3 124.5h-1.7M24.9 124.5h-1.7M17.7 124.5H16M10.5 124.5H8.8M61.3 103.1h-1.9M53.9 103.1h-1.7M46.7 103.1H45M39.5 103.1h-1.7M32.3 103.1h-1.7M24.9 103.1h-1.7M17.7 103.1H16M10.5 103.1H8.8M67.1 81.5h-.2M61.3 81.5h-1.9M53.9 81.5h-1.7M46.7 81.5H45M39.5 81.5h-1.7M32.3 81.5h-1.7M24.9 81.5h-1.7M17.7 81.5H16M10.5 81.5H8.8M67.1 60.1h-.2M61.3 60.1h-1.9M53.9 60.1h-1.7M46.7 60.1H45M39.5 60.1h-1.7M32.3 60.1h-1.7M24.9 60.1h-1.7M17.7 60.1H16M10.5 60.1H8.8M61.3 38.5h-1.9M53.9 38.5h-1.7M46.7 38.5H45M39.5 38.5h-1.7M32.3 38.5h-1.7M24.9 38.5h-1.7M17.7 38.5H16M10.5 38.5H8.8M61.3 264.1v-10.5M61.3 242.5V232M61.3 221.2v-10.8M61.3 199.6V189M61.3 178.2v-10.8M61.3 156.6v-10.5M61.3 135.3v-10.8M61.3 113.7v-10.6M61.3 92.3V81.5M61.3 70.7V60.1M61.3 49.3V38.5M61.3 27.7V17.2M53.9 264.1v-10.5M53.9 242.5V232M53.9 221.2v-10.8M53.9 199.6V189M53.9 178.2v-10.8M53.9 156.6v-10.5M53.9 135.3v-10.8M53.9 113.7v-10.6M53.9 92.3V81.5M53.9 70.7V60.1M53.9 49.3V38.5M53.9 27.7V17.2M46.7 264.1v-10.5M46.7 242.5V232M46.7 221.2v-10.8M46.7 199.6V189M46.7 178.2v-10.8M46.7 156.6v-10.5M46.7 135.3v-10.8M46.7 113.7v-10.6M46.7 92.3V81.5M46.7 70.7V60.1M46.7 49.3V38.5M46.7 27.7V17.2M39.5 264.1v-10.5M39.5 242.5V232M39.5 221.2v-10.8M39.5 199.6V189M39.5 178.2v-10.8M39.5 156.6v-10.5M39.5 135.3v-10.8M39.5 113.7v-10.6M39.5 92.3V81.5M39.5 70.7V60.1M39.5 49.3V38.5M39.5 27.7V17.2M32.3 264.1v-10.5M32.3 242.5V232M32.3 221.2v-10.8M32.3 199.6V189M32.3 178.2v-10.8M32.3 156.6v-10.5M32.3 135.3v-10.8M32.3 113.7v-10.6M32.3 92.3V81.5M32.3 70.7V60.1M32.3 49.3V38.5M32.3 27.7V17.2M24.9 264.1v-10.5M24.9 242.5V232M24.9 221.2v-10.8M24.9 199.6V189M24.9 178.2v-10.8M24.9 156.6v-10.5M24.9 135.3v-10.8M24.9 113.7v-10.6M24.9 92.3V81.5M24.9 70.7V60.1M24.9 49.3V38.5M24.9 27.7V17.2M17.7 264.1v-10.5M17.7 242.5V232M17.7 221.2v-10.8M17.7 199.6V189M17.7 178.2v-10.8M17.7 156.6v-10.5M17.7 135.3v-10.8M17.7 113.7v-10.6M17.7 92.3V81.5M17.7 70.7V60.1M17.7 49.3V38.5M17.7 27.7V17.2M10.5 264.1v-10.5M10.5 242.5V232M10.5 221.2v-10.8M10.5 199.6V189M10.5 178.2v-10.8M10.5 156.6v-10.5M10.5 135.3v-10.8M10.5 113.7v-10.6M10.5 92.3V81.5M10.5 70.7V60.1M10.5 49.3V38.5M10.5 27.7V17.2M61.3 273v-8.9M61.3 263.9v-21.1M61.3 242.5v-21.3M61.3 220.9v-21.1M61.3 199.6v-21.4M61.3 178v-21.1M61.3 156.6v-21.3M61.3 135v-21.1M61.3 113.7V92.3M61.3 92.1V70.9M61.3 70.7V49.3M61.3 49.1V28M61.3 27.7V17.2M54.1 273v-8.9M54.1 263.9v-21.1M54.1 242.5v-21.3M54.1 220.9v-21.1M54.1 199.6v-21.4M54.1 178v-21.1M54.1 156.6v-21.3M54.1 135v-21.1M54.1 113.7V92.3M54.1 92.1V70.9M54.1 70.7V49.3M54.1 49.1V28M54.1 27.7V17.2M46.9 273v-8.9M46.9 263.9v-21.1M46.9 242.5v-21.3M46.9 220.9v-21.1M46.9 199.6v-21.4M46.9 178v-21.1M46.9 156.6v-21.3M46.9 135v-21.1M46.9 113.7V92.3M46.9 92.1V70.9M46.9 70.7V49.3M46.9 49.1V28M46.9 27.7V17.2M39.7 273v-8.9M39.7 263.9v-21.1M39.7 242.5v-21.3M39.7 220.9v-21.1M39.7 199.6v-21.4M39.7 178v-21.1M39.7 156.6v-21.3M39.7 135v-21.1M39.7 113.7V92.3M39.7 92.1V70.9M39.7 70.7V49.3M39.7 49.1V28M39.7 27.7V17.2M32.5 273v-8.9M32.5 263.9v-21.1M32.5 242.5v-21.3M32.5 220.9v-21.1M32.5 199.6v-21.4M32.5 178v-21.1M32.5 156.6v-21.3M32.5 135v-21.1M32.5 113.7V92.3M32.5 92.1V70.9M32.5 70.7V49.3M32.5 49.1V28M32.5 27.7V17.2M25.1 273v-8.9M25.1 263.9v-21.1M25.1 242.5v-21.3M25.1 220.9v-21.1M25.1 199.6v-21.4M25.1 178v-21.1M25.1 156.6v-21.3M25.1 135v-21.1M25.1 113.7V92.3M25.1 92.1V70.9M25.1 70.7V49.3M25.1 49.1V28M25.1 27.7V17.2M17.9 273v-8.9M17.9 263.9v-21.1M17.9 242.5v-21.3M17.9 220.9v-21.1M17.9 199.6v-21.4M17.9 178v-21.1M17.9 156.6v-21.3M17.9 135v-21.1M17.9 113.7V92.3M17.9 92.1V70.9M17.9 70.7V49.3M17.9 49.1V28M17.9 27.7V17.2M10.7 273v-8.9M10.7 263.9v-21.1M10.7 242.5v-21.3M10.7 220.9v-21.1M10.7 199.6v-21.4M10.7 178v-21.1M10.7 156.6v-21.3M10.7 135v-21.1M10.7 113.7V92.3M10.7 92.1V70.9M10.7 70.7V49.3M10.7 49.1V28M10.7 27.7V17.2M64.9 264.1h-3.6M57.5 264.1h-3.4M50.3 264.1h-3.4M43.1 264.1h-3.4M35.9 264.1h-3.4M28.5 264.1h-3.4M21.3 264.1h-3.4M14.1 264.1h-3.4M64.9 242.8h-3.6M57.5 242.8h-3.4M50.3 242.8h-3.4M43.1 242.8h-3.4M35.9 242.8h-3.4M28.5 242.8h-3.4M21.3 242.8h-3.4M14.1 242.8h-3.4M64.9 221.2h-3.6M57.5 221.2h-3.4M50.3 221.2h-3.4M43.1 221.2h-3.4M35.9 221.2h-3.4M28.5 221.2h-3.4M21.3 221.2h-3.4M14.1 221.2h-3.4M64.9 199.8h-3.6M57.5 199.8h-3.4M50.3 199.8h-3.4M43.1 199.8h-3.4M35.9 199.8h-3.4M28.5 199.8h-3.4M21.3 199.8h-3.4M14.1 199.8h-3.4M64.9 178.2h-3.6M57.5 178.2h-3.4M50.3 178.2h-3.4M43.1 178.2h-3.4M35.9 178.2h-3.4M28.5 178.2h-3.4M21.3 178.2h-3.4M14.1 178.2h-3.4M64.9 156.9h-3.6M57.5 156.9h-3.4M50.3 156.9h-3.4M43.1 156.9h-3.4M35.9 156.9h-3.4M28.5 156.9h-3.4M21.3 156.9h-3.4M14.1 156.9h-3.4M64.9 135.3h-3.6M57.5 135.3h-3.4M50.3 135.3h-3.4M43.1 135.3h-3.4M35.9 135.3h-3.4M28.5 135.3h-3.4M21.3 135.3h-3.4M14.1 135.3h-3.4M64.9 113.9h-3.6M57.5 113.9h-3.4M50.3 113.9h-3.4M43.1 113.9h-3.4M35.9 113.9h-3.4M28.5 113.9h-3.4M21.3 113.9h-3.4M14.1 113.9h-3.4M64.9 92.3h-3.6M57.5 92.3h-3.4M50.3 92.3h-3.4M43.1 92.3h-3.4M35.9 92.3h-3.4M28.5 92.3h-3.4M21.3 92.3h-3.4M14.1 92.3h-3.4M64.9 70.9h-3.6M57.5 70.9h-3.4M50.3 70.9h-3.4M43.1 70.9h-3.4M35.9 70.9h-3.4M28.5 70.9h-3.4M21.3 70.9h-3.4M14.1 70.9h-3.4M64.9 49.3h-3.6M57.5 49.3h-3.4M50.3 49.3h-3.4M43.1 49.3h-3.4M35.9 49.3h-3.4M28.5 49.3h-3.4M21.3 49.3h-3.4M14.1 49.3h-3.4M64.9 28h-3.6M57.5 28h-3.4M50.3 28h-3.4M43.1 28h-3.4M35.9 28h-3.4M28.5 28h-3.4M21.3 28h-3.4M14.1 28h-3.4M64.9 273v-8.9M64.9 263.9v-21.1M64.9 242.5v-21.3M64.9 220.9v-21.1M64.9 199.6v-21.4M64.9 178v-21.1M64.9 156.6v-21.3M64.9 135v-21.1M64.9 113.7V92.3M64.9 92.1V70.9M64.9 70.7V49.3M64.9 49.1V28M64.9 27.7V17.2M57.5 273v-8.9M57.5 263.9v-21.1M57.5 242.5v-21.3M57.5 220.9v-21.1M57.5 199.6v-21.4M57.5 178v-21.1M57.5 156.6v-21.3M57.5 135v-21.1M57.5 113.7V92.3M57.5 92.1V70.9M57.5 70.7V49.3M57.5 49.1V28M57.5 27.7V17.2M50.3 273v-8.9M50.3 263.9v-21.1M50.3 242.5v-21.3M50.3 220.9v-21.1M50.3 199.6v-21.4M50.3 178v-21.1M50.3 156.6v-21.3M50.3 135v-21.1M50.3 113.7V92.3M50.3 92.1V70.9M50.3 70.7V49.3M50.3 49.1V28M50.3 27.7V17.2M43.1 273v-8.9M43.1 263.9v-21.1M43.1 242.5v-21.3M43.1 220.9v-21.1M43.1 199.6v-21.4M43.1 178v-21.1M43.1 156.6v-21.3M43.1 135v-21.1M43.1 113.7V92.3M43.1 92.1V70.9M43.1 70.7V49.3M43.1 49.1V28M43.1 27.7V17.2M35.9 273v-8.9M35.9 263.9v-21.1M35.9 242.5v-21.3M35.9 220.9v-21.1M35.9 199.6v-21.4M35.9 178v-21.1M35.9 156.6v-21.3M35.9 135v-21.1M35.9 113.7V92.3M35.9 92.1V70.9M35.9 70.7V49.3M35.9 49.1V28M35.9 27.7V17.2M28.5 273v-8.9M28.5 263.9v-21.1M28.5 242.5v-21.3M28.5 220.9v-21.1M28.5 199.6v-21.4M28.5 178v-21.1M28.5 156.6v-21.3M28.5 135v-21.1M28.5 113.7V92.3M28.5 92.1V70.9M28.5 70.7V49.3M28.5 49.1V28M28.5 27.7V17.2M21.3 273v-8.9M21.3 263.9v-21.1M21.3 242.5v-21.3M21.3 220.9v-21.1M21.3 199.6v-21.4M21.3 178v-21.1M21.3 156.6v-21.3M21.3 135v-21.1M21.3 113.7V92.3M21.3 92.1V70.9M21.3 70.7V49.3M21.3 49.1V28M21.3 27.7V17.2M14.1 273v-8.9M14.1 263.9v-21.1M14.1 242.5v-21.3M14.1 220.9v-21.1M14.1 199.6v-21.4M14.1 178v-21.1M14.1 156.6v-21.3M14.1 135v-21.1M14.1 113.7V92.3M14.1 92.1V70.9M14.1 70.7V49.3M14.1 49.1V28M14.1 27.7V17.2"/><path class="cls-9" d="M64.9 263.9h-3.6M57.5 263.9h-3.4M50.3 263.9h-3.4M43.1 263.9h-3.4M35.9 263.9h-3.4M28.5 263.9h-3.4M21.3 263.9h-3.4M14.1 263.9h-3.4M64.9 242.5h-3.6M57.5 242.5h-3.4M50.3 242.5h-3.4M43.1 242.5h-3.4M35.9 242.5h-3.4M28.5 242.5h-3.4M21.3 242.5h-3.4M14.1 242.5h-3.4M64.9 220.9h-3.6M57.5 220.9h-3.4M50.3 220.9h-3.4M43.1 220.9h-3.4M35.9 220.9h-3.4M28.5 220.9h-3.4M21.3 220.9h-3.4M14.1 220.9h-3.4M64.9 199.6h-3.6M57.5 199.6h-3.4M50.3 199.6h-3.4M43.1 199.6h-3.4M35.9 199.6h-3.4M28.5 199.6h-3.4M21.3 199.6h-3.4M14.1 199.6h-3.4M64.9 178h-3.6M57.5 178h-3.4M50.3 178h-3.4M43.1 178h-3.4M35.9 178h-3.4M28.5 178h-3.4M21.3 178h-3.4M14.1 178h-3.4M64.9 156.6h-3.6M57.5 156.6h-3.4M50.3 156.6h-3.4M43.1 156.6h-3.4M35.9 156.6h-3.4M28.5 156.6h-3.4M21.3 156.6h-3.4M14.1 156.6h-3.4M64.9 135h-3.6M57.5 135h-3.4M50.3 135h-3.4M43.1 135h-3.4M35.9 135h-3.4M28.5 135h-3.4M21.3 135h-3.4M14.1 135h-3.4M64.9 113.7h-3.6M57.5 113.7h-3.4M50.3 113.7h-3.4M43.1 113.7h-3.4M35.9 113.7h-3.4M28.5 113.7h-3.4M21.3 113.7h-3.4M14.1 113.7h-3.4M64.9 92.1h-3.6M57.5 92.1h-3.4M50.3 92.1h-3.4M43.1 92.1h-3.4M35.9 92.1h-3.4M28.5 92.1h-3.4M21.3 92.1h-3.4M14.1 92.1h-3.4M64.9 70.7h-3.6M57.5 70.7h-3.4M50.3 70.7h-3.4M43.1 70.7h-3.4M35.9 70.7h-3.4M28.5 70.7h-3.4M21.3 70.7h-3.4M14.1 70.7h-3.4M64.9 49.1h-3.6M57.5 49.1h-3.4M50.3 49.1h-3.4M43.1 49.1h-3.4M35.9 49.1h-3.4M28.5 49.1h-3.4M21.3 49.1h-3.4M14.1 49.1h-3.4M64.9 27.7h-3.6M57.5 27.7h-3.4M50.3 27.7h-3.4M43.1 27.7h-3.4M35.9 27.7h-3.4M28.5 27.7h-3.4M21.3 27.7h-3.4M14.1 27.7h-3.4"/><path class="cls-8" d="M66.9 273H7.1V17.2h59.8v9.6h-.3v19.9h.3v36.7h-.3v31.2h.3v70.8h-.3v31.2h.3V273z"/><path class="cls-25" d="M7 16.9v256.2"/><path class="cls-22" d="M66.6 141.5H70v58.6h-3.4zM66.6 35.2H70v37.4h-3.4z"/><path class="cls-29" d="M158.5 254.3l6 7.2v-3.1h-6v-4.1"/><path class="cls-22" d="M164.8 258.6l-.5-.2M160.2 258.4l-1.4-1.7M163.6 260.1l1.2-1.2M161.2 258.4l.5-.5M158.8 256.9l.9-1.2"/><path class="cls-29" d="M164.5 261.5l-6-7.2v4.1h6v3.1"/><path class="cls-22" d="M164.8 258.6l-.5-.2M160.2 258.4l-1.4-1.7M163.6 260.1l1.2-1.2M161.2 258.4l.5-.5M158.8 256.9l.9-1.2"/><path class="cls-26" d="M158.5 254.3v4.1M158.5 254.3v4.1"/><path class="cls-25" d="M160 261.5v32.4"/><path class="cls-1" d="M164.5 261.5v32.4"/><path class="cls-29" d="M164.5 258.4v3.1H160v-3.1"/><path class="cls-22" d="M164.8 258.6l-.5-.2M163.3 261.5l-3.1-3.1M162.1 261.5l2.7-2.6M160.2 259.3l1-.9"/><path class="cls-29" d="M164.5 297v-3.1H160v3.1"/><path class="cls-22" d="M164.8 294.9l-1-1M162.9 297l-2.7-2.9M162.6 297l2.2-2.1M160.2 295.6l1.5-1.7"/><path class="cls-26" d="M164.5 261.5H160M164.5 293.9H160M164.5 261.5H160M164.5 258.4v3.1M164.5 293.9H160M164.5 297v-3.1M158.5 258.4h1.5M158.5 297h1.5M164.5 258.4v3.1M164.5 297v-3.1M160 261.5v-3.1M160 293.9v3.1"/><path class="cls-25" d="M77.4 234.6h19v.5h-19zM95.7 235.1h.7v1.4h-.7zM77.4 235.1h1v1.4h-1zM167.4 105.7h-57.8"/><path class="cls-7" d="M167.4 106.5h-57.8"/><path class="cls-25" d="M167.4 104.3h-57.8M167.4 105.7h-57.8M167.4 106.5h-57.8M167.4 104.3h-57.8"/><path class="cls-7" d="M167.4 105.7v.8"/><path class="cls-25" d="M167.4 104.3v1.4"/><path class="cls-7" d="M109.6 106.5v-.8"/><path class="cls-25" d="M109.6 105.7v-1.4M100.7 235.3h66.7"/><path class="cls-7" d="M96.4 234.6h71"/><path class="cls-25" d="M100.7 236.8h66.7M100.7 235.3h66.7"/><path class="cls-7" d="M167.4 235.3v-.7"/><path class="cls-25" d="M167.4 236.8v-1.5M96.4 234.6h71M100.7 236.8h66.7"/><path class="cls-7" d="M96.4 234.6v.7"/><path class="cls-25" d="M96.4 235.3h4.3M100.7 235.3v1.5"/><path class="cls-29" d="M330.6 345l-5-6.9H194.5v6.9h136.1"/><path class="cls-22" d="M329.7 343.6l-5.6-5.5M327.3 345l-7-6.9M323.2 345l-7-6.9M319.1 345l-7-6.9M315 345l-6.9-6.9M311.2 345l-7-6.9M307.1 345l-7-6.9M303 345l-6.9-6.9M299.2 345l-7-6.9M295.1 345l-7-6.9M291 345l-6.9-6.9M286.9 345l-6.9-6.9M283.1 345l-7-6.9M279 345l-6.9-6.9M274.9 345l-6.9-6.9M271.1 345l-7-6.9M267 345l-6.9-6.9M262.9 345l-6.9-6.9M259.1 345l-7-6.9M255 345l-6.9-6.9M250.9 345l-6.9-6.9M246.9 345l-7-6.9M243 345l-6.9-6.9M238.9 345l-6.9-6.9M234.9 345l-7-6.9M231 345l-6.9-6.9M226.9 345l-6.9-6.9M222.9 345l-7-6.9M219 345l-6.9-6.9M214.9 345l-6.9-6.9M210.9 345l-7-6.9M206.8 345l-7-6.9M202.9 345l-6.9-6.9M198.9 345l-4.1-4.3M194.8 345v-.2M327 345l2.2-2.1M322.9 345l4.6-4.5M319.1 345l6.7-6.7M315 345l7-6.9M310.9 345l7-6.9M307.1 345l7-6.9M303 345l7-6.9M298.9 345l7-6.9M295.1 345l7-6.9M291 345l7-6.9M286.9 345l7-6.9M282.9 345l6.9-6.9M279 345l7-6.9M274.9 345l7-6.9M270.9 345l6.9-6.9M267 345l7-6.9M262.9 345l7-6.9M258.9 345l6.9-6.9M254.8 345l6.9-6.9M250.9 345l7-6.9M246.9 345l6.9-6.9M242.8 345l6.9-6.9M238.9 345l7-6.9M234.9 345l6.9-6.9M230.8 345l6.9-6.9M226.9 345l7-6.9M222.9 345l6.9-6.9M218.8 345l6.9-6.9M214.7 345l7-6.9M210.9 345l6.9-6.9M206.8 345l6.9-6.9M202.7 345l7-6.9M198.9 345l6.9-6.9M194.8 345l6.9-6.9M194.8 341.2l2.9-3.1"/><path class="cls-29" d="M330.6 345l-5-6.9H194.5v6.9h136.1"/><path class="cls-22" d="M329.7 343.6l-5.6-5.5M327.3 345l-7-6.9M323.2 345l-7-6.9M319.1 345l-7-6.9M315 345l-6.9-6.9M311.2 345l-7-6.9M307.1 345l-7-6.9M303 345l-6.9-6.9M299.2 345l-7-6.9M295.1 345l-7-6.9M291 345l-6.9-6.9M286.9 345l-6.9-6.9M283.1 345l-7-6.9M279 345l-6.9-6.9M274.9 345l-6.9-6.9M271.1 345l-7-6.9M267 345l-6.9-6.9M262.9 345l-6.9-6.9M259.1 345l-7-6.9M255 345l-6.9-6.9M250.9 345l-6.9-6.9M246.9 345l-7-6.9M243 345l-6.9-6.9M238.9 345l-6.9-6.9M234.9 345l-7-6.9M231 345l-6.9-6.9M226.9 345l-6.9-6.9M222.9 345l-7-6.9M219 345l-6.9-6.9M214.9 345l-6.9-6.9M210.9 345l-7-6.9M206.8 345l-7-6.9M202.9 345l-6.9-6.9M198.9 345l-4.1-4.3M194.8 345v-.2M327 345l2.2-2.1M322.9 345l4.6-4.5M319.1 345l6.7-6.7M315 345l7-6.9M310.9 345l7-6.9M307.1 345l7-6.9M303 345l7-6.9M298.9 345l7-6.9M295.1 345l7-6.9M291 345l7-6.9M286.9 345l7-6.9M282.9 345l6.9-6.9M279 345l7-6.9M274.9 345l7-6.9M270.9 345l6.9-6.9M267 345l7-6.9M262.9 345l7-6.9M258.9 345l6.9-6.9M254.8 345l6.9-6.9M250.9 345l7-6.9M246.9 345l6.9-6.9M242.8 345l6.9-6.9M238.9 345l7-6.9M234.9 345l6.9-6.9M230.8 345l6.9-6.9M226.9 345l7-6.9M222.9 345l6.9-6.9M218.8 345l6.9-6.9M214.7 345l7-6.9M210.9 345l6.9-6.9M206.8 345l6.9-6.9M202.7 345l7-6.9M198.9 345l6.9-6.9M194.8 345l6.9-6.9M194.8 341.2l2.9-3.1"/><path class="cls-26" d="M194.5 345h131.1M194.5 338.1h131.1M194.5 338.1h131.1M194.5 345h131.1"/><path class="cls-29" d="M162.1 345v-4.8l-4.8 4.8h4.8"/><path class="cls-22" d="M162.4 340.5h-.3M162.4 344.5l-2.2-2.1M158.8 345l-.7-.7M158.8 345l3.6-3.6"/><path class="cls-29" d="M162.1 345v-4.8l-4.8 4.8h4.8"/><path class="cls-22" d="M162.4 340.5h-.3M162.4 344.5l-2.2-2.1M158.8 345l-.7-.7M158.8 345l3.6-3.6"/><path class="cls-26" d="M157.3 345h4.8M157.3 345h4.8M325.6 345h5"/><path class="cls-25" d="M162.1 344.1h2.6v1.7h-2.6zM191.9 344.1h2.6v1.7h-2.6zM164.8 344.1h27.1v1.7h-27.1zM164.8 344.1h27.1"/><path class="cls-1" d="M164.5 338.1h27.6"/><path class="cls-25" d="M191.7 338.1h.4"/><path class="cls-29" d="M162.1 338.1h2.4v6h-2.4"/><path class="cls-22" d="M164.8 338.8l-1-.7M164.8 342.9l-2.4-2.4M163.6 344.1l1.2-1M162.4 341.4l2.4-2.4"/><path class="cls-29" d="M194.5 338.1h-2.4v6h2.4"/><path class="cls-22" d="M194.8 340.7l-2.4-2.4M193.8 344.1l-1.4-1.7M192.4 343.6l2.4-2.4M192.4 339.5l1.4-1.4"/><path class="cls-26" d="M164.5 338.1v6M192.1 338.1v6M164.5 338.1v6M162.1 338.1h2.4M192.1 338.1v6M194.5 338.1h-2.4M162.1 345v-.9M194.5 345v-.9M162.1 338.1h2.4M194.5 338.1h-2.4M164.5 344.1h-2.4M192.1 344.1h2.4"/><path class="cls-25" d="M324.1 304v34.1M316.5 304v34.1M308.8 304v34.1M301.3 304v34.1M293.7 304v34.1M286 304v34.1M278.3 304v34.1M270.6 304v34.1M262.9 304v34.1M255.3 304v34.1M247.6 304v34.1M239.9 304v34.1M232.5 304v34.1M224.8 304v34.1M217.1 304v34.1M209.4 304v34.1M205.6 297h120v-1.4H204.1v8.4h121.5v-1.5h-120V297zM209.4 321l3.8 3.8M213.2 317.2l-3.8 3.8M213.3 324.9v-7.7"/><path class="cls-29" d="M66.1 12.9l-1.4.7v19.2h1.4V12.9M72.4 7.3l-6.3 5.6v19.9h6.3V7.3"/><path class="cls-22" d="M72.6 8.3h-1.2M72.6 9.5H70M72.6 10.9h-4.3M72.6 12.4h-6M72.6 13.8h-6.2M72.6 15.3h-6.2M72.6 16.7h-6.2M72.6 18.1h-6.2M72.6 19.6h-6.2M72.6 21h-6.2M72.6 22.5h-6.2M72.6 23.9h-6.2M72.6 25.1h-6.2M72.6 26.5h-6.2M72.6 28h-6.2M72.6 29.4h-6.2M72.6 30.9h-6.2M72.6 32.3h-6.2"/><path class="cls-29" d="M77.4 7.3h-5v25.5h5V7.3"/><path class="cls-22" d="M72.6 30.1l2.4 2.7M72.6 26.3l5.1 5M72.6 22.2l5.1 5.1M72.6 18.1l5.1 5.1M72.6 14.3l5.1 5M72.6 10.2l5.1 5.1M73.6 7.3l4.1 3.9"/><path class="cls-25" d="M64.7 32.8V16.9M64 32.8V16.9"/><path class="cls-22" d="M72.4 32.8V7.3M66.1 32.8V12.9"/><path class="cls-26" d="M77.4 32.8V7.3M72.4 32.8V7.3"/><path class="cls-25" d="M64 32.8V16.9M77.4 32.8V7.3"/><path class="cls-29" d="M64.7 139.1h1.4V75h-1.4v64.1"/><path class="cls-29" d="M66.1 139.1h6.3V75h-6.3v64.1"/><path class="cls-22" d="M72.6 76.2h-6.2M72.6 77.7h-6.2M72.6 79.1h-6.2M72.6 80.5h-6.2M72.6 82h-6.2M72.6 83.4h-6.2M72.6 84.6h-6.2M72.6 86.1h-6.2M72.6 87.5h-6.2M72.6 88.9h-6.2M72.6 90.4h-6.2M72.6 91.8h-6.2M72.6 93.3h-6.2M72.6 94.7h-6.2M72.6 96.1h-6.2M72.6 97.6h-6.2M72.6 99h-6.2M72.6 100.2h-6.2M72.6 101.7h-6.2M72.6 103.1h-6.2M72.6 104.5h-6.2M72.6 106h-6.2M72.6 107.4h-6.2M72.6 108.9h-6.2M72.6 110.3h-6.2M72.6 111.7h-6.2M72.6 113.2h-6.2M72.6 114.4h-6.2M72.6 115.8h-6.2M72.6 117.3h-6.2M72.6 118.7h-6.2M72.6 120.1h-6.2M72.6 121.6h-6.2M72.6 123h-6.2M72.6 124.5h-6.2M72.6 125.9h-6.2M72.6 127.3h-6.2M72.6 128.8h-6.2M72.6 130h-6.2M72.6 131.4h-6.2M72.6 132.9h-6.2M72.6 134.3h-6.2M72.6 135.7h-6.2M72.6 137.2h-6.2M72.6 138.6h-6.2"/><path class="cls-29" d="M72.4 139.1h5V75h-5v64.1"/><path class="cls-22" d="M72.6 138.4l.5.7M72.6 134.5l4.6 4.6M72.6 130.5l5.1 5M72.6 126.4l5.1 5M72.6 122.5l5.1 5.1M72.6 118.5l5.1 5M72.6 114.4l5.1 5M72.6 110.5l5.1 5.1M72.6 106.5l5.1 5M72.6 102.4l5.1 5M72.6 98.3l5.1 5M72.6 94.5l5.1 5M72.6 90.4l5.1 5M72.6 86.3l5.1 5M72.6 82.5l5.1 5M72.6 78.4l5.1 5M73.1 75l4.6 4.3M77.2 75l.5.3"/><path class="cls-25" d="M64.7 139.1V75M64 139.1V75"/><path class="cls-22" d="M72.4 139.1V75M66.1 139.1V75"/><path class="cls-26" d="M77.4 139.1V75M72.4 139.1V75"/><path class="cls-25" d="M64 139.1V75M77.4 139.1V75"/><path class="cls-29" d="M64.7 273h1.4v-70.5h-1.4V273"/><path class="cls-29" d="M66.1 273h6.3v-70.5h-6.3V273"/><path class="cls-22" d="M72.6 203.9h-6.2M72.6 205.1h-6.2M72.6 206.5h-6.2M72.6 208h-6.2M72.6 209.4h-6.2M72.6 210.9h-6.2M72.6 212.3h-6.2M72.6 213.7h-6.2M72.6 215.2h-6.2M72.6 216.6h-6.2M72.6 218.1h-6.2M72.6 219.3h-6.2M72.6 220.7h-6.2M72.6 222.1h-6.2M72.6 223.6h-6.2M72.6 225h-6.2M72.6 226.5h-6.2M72.6 227.9h-6.2M72.6 229.3h-6.2M72.6 230.8h-6.2M72.6 232.2h-6.2M72.6 233.7h-6.2M72.6 234.9h-6.2M72.6 236.3h-6.2M72.6 237.7h-6.2M72.6 239.2h-6.2M72.6 240.6h-6.2M72.6 242.1h-6.2M72.6 243.5h-6.2M72.6 244.9h-6.2M72.6 246.4h-6.2M72.6 247.8h-6.2M72.6 249.3h-6.2M72.6 250.5h-6.2M72.6 251.9h-6.2M72.6 253.3h-6.2M72.6 254.8h-6.2M72.6 256.2h-6.2M72.6 257.7h-6.2M72.6 259.1h-6.2M72.6 260.5h-6.2M72.6 262h-6.2M72.6 263.4h-6.2M72.6 264.6h-6.2M72.6 266.1h-6.2M72.6 267.5h-6.2M72.6 268.9h-6.2M72.6 270.4h-6.2M72.6 271.8h-6.2"/><path class="cls-29" d="M72.4 273h5v-70.5h-5V273"/><path class="cls-22" d="M72.6 270.9l2.2 2.1M72.6 266.8l5.1 5M72.6 262.7l5.1 5M72.6 258.9l5.1 5M72.6 254.8l5.1 5M72.6 250.7l5.1 5M72.6 246.6l5.1 5.1M72.6 242.8l5.1 5M72.6 238.7l5.1 5M72.6 234.6l5.1 5.1M72.6 230.8l5.1 5M72.6 226.7l5.1 5M72.6 222.6l5.1 5.1M72.6 218.5l5.1 5.1M72.6 214.7l5.1 5M72.6 210.6l5.1 5.1M72.6 206.5l5.1 5.1M72.6 202.7l5.1 5M76.5 202.5l1.2 1.2"/><path class="cls-25" d="M64.7 273v-70.5M64 273v-70.5"/><path class="cls-22" d="M72.4 273v-70.5M66.1 273v-70.5"/><path class="cls-26" d="M77.4 273v-70.5M72.4 273v-70.5"/><path class="cls-25" d="M64 273v-70.5M77.4 273v-70.5M64 16.9h.7"/><path class="cls-26" d="M72.4 7.3h5"/><path class="cls-25" d="M77.4 7.3V.1"/><path class="cls-1" d="M70 72.6h-6"/><path class="cls-25" d="M64.5 72.6H64"/><path class="cls-1" d="M64 72.6V35.2"/><path class="cls-6" d="M64 35.2h6"/><path class="cls-1" d="M77.4 75V32.8"/><path class="cls-25" d="M77.4 33.3v-.5M70 32.8h2.4V75H70zM70 70.7h2.4M70 37.1h2.4M72.4 75H70M72.4 55.8H70M72.4 70.7H70M72.4 51.7H70M72.4 55.8H70M72.4 37.1H70M72.4 51.7H70M72.4 32.8H70M64.7 75v-1.7H70v-.7h-6V75"/><path class="cls-26" d="M72.4 75h5"/><path class="cls-22" d="M70 75h-3.9"/><path class="cls-25" d="M70 72.6V75M64.7 32.8v1.7H70v.7h-6v-2.4"/><path class="cls-26" d="M72.4 32.8h5"/><path class="cls-22" d="M70 32.8h-3.9"/><path class="cls-25" d="M70 35.2v-2.4"/><path class="cls-1" d="M70 200.1h-6"/><path class="cls-25" d="M64.5 200.1H64"/><path class="cls-1" d="M64 200.1v-58.6"/><path class="cls-25" d="M64 142v-.5"/><path class="cls-1" d="M64 141.5h6"/><path class="cls-25" d="M69.5 141.5h.5"/><path class="cls-1" d="M77.4 202.5v-63.4"/><path class="cls-25" d="M77.4 139.6v-.5M70 139.1h2.4v63.4H70zM70 198.4h2.4M70 143.2h2.4M72.4 202.5H70M72.4 183.5H70M72.4 198.4H70M72.4 179.4H70M72.4 183.5H70M72.4 162.1H70M72.4 179.4H70M72.4 158.1H70M72.4 162.1H70M72.4 143.2H70M72.4 158.1H70M72.4 139.1H70M64.7 202.5v-1.7H70v-.7h-6v2.4"/><path class="cls-26" d="M72.4 202.5h5"/><path class="cls-22" d="M70 202.5h-3.9"/><path class="cls-25" d="M70 200.1v2.4M64.7 139.1v1.7H70v.7h-6v-2.4"/><path class="cls-26" d="M72.4 139.1h5"/><path class="cls-22" d="M70 139.1h-3.9"/><path class="cls-25" d="M70 141.5v-2.4"/><path class="cls-29" d="M336.9 254.3h3.6v-87.8h-3.6v87.8"/><path class="cls-22" d="M337.1 250.7l3.6 3.6M337.1 246.6l3.6 3.6M337.1 242.5l3.6 3.6M337.1 238.7l3.6 3.6M337.1 234.6l3.6 3.6M337.1 230.5l3.6 3.6M337.1 226.5l3.6 3.6M337.1 222.6l3.6 3.6M337.1 218.5l3.6 3.6M337.1 214.5l3.6 3.6M337.1 210.6l3.6 3.6M337.1 206.5l3.6 3.6M337.1 202.5l3.6 3.6M337.1 198.6l3.6 3.6M337.1 194.5l3.6 3.6M337.1 190.5l3.6 3.6M337.1 186.4l3.6 3.6M337.1 182.5l3.6 3.6M337.1 178.5l3.6 3.6M337.1 174.4l3.6 3.6M337.1 170.5l3.6 3.6M337.1 166.5l3.6 3.6"/><path class="cls-29" d="M336.4 254.3h.5v-87.8h-.5v87.8"/><path class="cls-29" d="M330.6 254.3h5.8v-87.8h-5.8v87.8"/><path class="cls-22" d="M330.9 253.3h5.7M330.9 251.9h5.7M330.9 250.5h5.7M330.9 249.3h5.7M330.9 247.8h5.7M330.9 246.4h5.7M330.9 244.9h5.7M330.9 243.5h5.7M330.9 242.1h5.7M330.9 240.6h5.7M330.9 239.2h5.7M330.9 237.7h5.7M330.9 236.3h5.7M330.9 234.9h5.7M330.9 233.7h5.7M330.9 232.2h5.7M330.9 230.8h5.7M330.9 229.3h5.7M330.9 227.9h5.7M330.9 226.5h5.7M330.9 225h5.7M330.9 223.6h5.7M330.9 222.1h5.7M330.9 220.7h5.7M330.9 219.3h5.7M330.9 218.1h5.7M330.9 216.6h5.7M330.9 215.2h5.7M330.9 213.7h5.7M330.9 212.3h5.7M330.9 210.9h5.7M330.9 209.4h5.7M330.9 208h5.7M330.9 206.5h5.7M330.9 205.1h5.7M330.9 203.9h5.7M330.9 202.5h5.7M330.9 201h5.7M330.9 199.6h5.7M330.9 198.1h5.7M330.9 196.7h5.7M330.9 195.3h5.7M330.9 193.8h5.7M330.9 192.4h5.7M330.9 190.9h5.7M330.9 189.5h5.7M330.9 188.3h5.7M330.9 186.9h5.7M330.9 185.4h5.7M330.9 184h5.7M330.9 182.5h5.7M330.9 181.1h5.7M330.9 179.7h5.7M330.9 178.2h5.7M330.9 176.8h5.7M330.9 175.3h5.7M330.9 174.1h5.7M330.9 172.7h5.7M330.9 171.3h5.7M330.9 169.8h5.7M330.9 168.4h5.7M330.9 166.9h5.7"/><path class="cls-29" d="M325.6 254.3h5v-87.8h-5v87.8"/><path class="cls-22" d="M325.8 251.4l2.9 2.9M325.8 247.3l5.1 5.1M325.8 243.3l5.1 5M325.8 239.4l5.1 5.1M325.8 235.3l5.1 5.1M325.8 231.3l5.1 5M325.8 227.4l5.1 5.1M325.8 223.3l5.1 5.1M325.8 219.3l5.1 5M325.8 215.2l5.1 5M325.8 211.3l5.1 5.1M325.8 207.3l5.1 5M325.8 203.2l5.1 5M325.8 199.3l5.1 5.1M325.8 195.3l5.1 5M325.8 191.2l5.1 5M325.8 187.3l5.1 5.1M325.8 183.3l5.1 5M325.8 179.2l5.1 5M325.8 175.1l5.1 5M325.8 171.3l5.1 5M325.8 167.2l5.1 5M328.9 166.5l2 1.6"/><path class="cls-26" d="M336.9 166.5v87.8M340.5 166.5v87.8"/><path class="cls-22" d="M330.6 166.5v87.8M336.4 166.5v87.8"/><path class="cls-26" d="M325.6 166.5v87.8M330.6 166.5v87.8"/><path class="cls-25" d="M340.5 166.5v87.8M325.6 166.5v87.8"/><path class="cls-29" d="M340.5 74.3h-3.6v29.3h3.6V74.3"/><path class="cls-22" d="M337.1 102.4l1.2 1.2M337.1 98.3l3.6 3.6M337.1 94.2l3.6 3.6M337.1 90.4l3.6 3.6M337.1 86.3l3.6 3.6M337.1 82.2l3.6 3.6M337.1 78.1l3.6 3.6M337.1 74.3l3.6 3.6"/><path class="cls-29" d="M336.9 74.3h-.5v29.3h.5V74.3M336.4 74.3h-5.8v29.3h5.8V74.3"/><path class="cls-22" d="M330.9 103.1h5.7M330.9 101.7h5.7M330.9 100.2h5.7M330.9 99h5.7M330.9 97.6h5.7M330.9 96.1h5.7M330.9 94.7h5.7M330.9 93.3h5.7M330.9 91.8h5.7M330.9 90.4h5.7M330.9 88.9h5.7M330.9 87.5h5.7M330.9 86.1h5.7M330.9 84.6h5.7M330.9 83.4h5.7M330.9 82h5.7M330.9 80.5h5.7M330.9 79.1h5.7M330.9 77.7h5.7M330.9 76.2h5.7M330.9 74.8h5.7"/><path class="cls-29" d="M330.6 74.3h-5v29.3h5V74.3"/><path class="cls-22" d="M325.8 103.1l.5.5M325.8 99l4.3 4.6M325.8 94.9l5.1 5.1M325.8 91.1l5.1 5M325.8 87l5.1 5.1M325.8 82.9l5.1 5.1M325.8 79.1l5.1 5M325.8 75l5.1 5.1M328.9 74.3l2 1.7"/><path class="cls-26" d="M336.9 74.3v29.3M340.5 74.3v29.3"/><path class="cls-22" d="M330.6 74.3v29.3M336.4 74.3v29.3"/><path class="cls-26" d="M325.6 74.3v29.3M330.6 74.3v29.3"/><path class="cls-25" d="M340.5 74.3v29.3M325.6 74.3v29.3"/><path class="cls-29" d="M340.5.1h-3.6v33.4h3.6V.1"/><path class="cls-22" d="M337.1 30.1l3.1 3.4M337.1 26.1l3.6 3.6M337.1 22.2l3.6 3.6M337.1 18.1l3.6 3.6M337.1 14.1l3.6 3.6M337.1 10.2l3.6 3.6M337.1 6.1l3.6 3.6M337.1 2.1l3.6 3.6M339 .1l1.7 1.5"/><path class="cls-29" d="M336.9.1h-.5v33.4h.5V.1M336.4.1h-5.8v33.4h5.8V.1"/><path class="cls-22" d="M330.9 32.3h5.7M330.9 30.9h5.7M330.9 29.4h5.7M330.9 28h5.7M330.9 26.5h5.7M330.9 25.1h5.7M330.9 23.9h5.7M330.9 22.5h5.7M330.9 21h5.7M330.9 19.6h5.7M330.9 18.1h5.7M330.9 16.7h5.7M330.9 15.3h5.7M330.9 13.8h5.7M330.9 12.4h5.7M330.9 10.9h5.7M330.9 9.5h5.7M330.9 8.3h5.7M330.9 6.9h5.7M330.9 5.4h5.7M330.9 4h5.7M330.9 2.5h5.7M330.9 1.1h5.7"/><path class="cls-29" d="M330.6.1h-5v33.4h5V.1"/><path class="cls-22" d="M325.8 30.9l2.4 2.6M325.8 26.8l5.1 5M325.8 22.9l5.1 5.1M325.8 18.9l5.1 5M325.8 14.8l5.1 5M325.8 10.9l5.1 5.1M325.8 6.9l5.1 5M325.8 2.8l5.1 5M327 .1l3.9 3.9"/><path class="cls-26" d="M336.9.1v33.4M340.5.1v33.4"/><path class="cls-22" d="M330.6.1v33.4M336.4.1v33.4"/><path class="cls-26" d="M325.6.1v33.4M330.6.1v33.4"/><path class="cls-25" d="M340.5.1v33.4M325.6.1v33.4"/><path class="cls-26" d="M330.6 254.3h-5"/><path class="cls-25" d="M333 35.2h7.5v-3.4h1.6v43.9h-1.6v-3.3H333"/><path class="cls-1" d="M325.6 33.5v40.8"/><path class="cls-25" d="M325.6 73.8v.5"/><path class="cls-26" d="M340.5 35.2v-3.4M340.5 72.4v3.3"/><path class="cls-25" d="M330.6 33.5h2.4v40.8h-2.4zM333 37.1h-2.4M333 70.7h-2.4M330.6 33.5h2.4M330.6 51.7h2.4M330.6 37.1h2.4M330.6 55.8h2.4M330.6 51.7h2.4M330.6 70.7h2.4M330.6 55.8h2.4M330.6 74.3h2.4"/><path class="cls-29" d="M336.4 33.4v1.9H333v-1.9"/><path class="cls-22" d="M333.3 35.2h3.3M333.3 33.7h3.3M336.4 33.4v1.9H333v-1.9"/><path class="cls-26" d="M330.6 33.5h-5"/><path class="cls-29" d="M340.5 33.5v1.7h-3.6v-1.7"/><path class="cls-22" d="M337.1 34.2l1 1M340.2 33.5l.5.2"/><path class="cls-26" d="M340.5 33.5v1.7h-3.6v-1.7"/><path class="cls-25" d="M336.9 35.2H333"/><path class="cls-29" d="M336.4 74.3v-1.9H333v1.9"/><path class="cls-22" d="M333.3 73.3h3.3M336.4 74.3v-1.9H333v1.9"/><path class="cls-26" d="M330.6 74.3h-5"/><path class="cls-29" d="M340.5 74.3v-1.9h-3.6v1.9"/><path class="cls-22" d="M339 72.4l1.7 1.4"/><path class="cls-26" d="M340.5 74.3v-1.9h-3.6v1.9"/><path class="cls-25" d="M336.9 72.4H333M333 105.3h7.5v-3.4h1.6v66h-1.6v-3.4H333"/><path class="cls-1" d="M325.6 103.6v62.9"/><path class="cls-26" d="M340.5 105.3v-3.4M340.5 164.5v3.4"/><path class="cls-25" d="M330.6 103.6h2.4v62.9h-2.4zM333 107.2h-2.4M333 162.6h-2.4M330.6 103.6h2.4M330.6 122.3h2.4M330.6 107.2h2.4M330.6 126.4h2.4M330.6 122.3h2.4M330.6 143.4h2.4M330.6 126.4h2.4M330.6 147.5h2.4M330.6 143.4h2.4M330.6 162.6h2.4M330.6 147.5h2.4M330.6 166.5h2.4"/><path class="cls-29" d="M336.4 103.5v1.8H333v-1.8"/><path class="cls-22" d="M333.3 104.5h3.3M336.4 103.5v1.8H333v-1.8"/><path class="cls-26" d="M330.6 103.6h-5"/><path class="cls-29" d="M340.5 103.6v1.7h-3.6v-1.7"/><path class="cls-22" d="M338.3 103.6l1.7 1.7"/><path class="cls-26" d="M340.5 103.6v1.7h-3.6v-1.7"/><path class="cls-25" d="M336.9 105.3H333"/><path class="cls-29" d="M336.4 166.4v-1.8H333v1.8"/><path class="cls-22" d="M333.3 165.5h3.3M336.4 166.4v-1.8H333v1.8"/><path class="cls-26" d="M330.6 166.5h-5"/><path class="cls-29" d="M340.5 166.5v-2h-3.6v2"/><path class="cls-22" d="M339 164.5l1.7 1.5"/><path class="cls-26" d="M340.5 166.5v-2h-3.6v2"/><path class="cls-25" d="M336.9 164.5H333"/><path class="cls-29" d="M.1.1v16.8l3.4-3.3V.1H.1"/><path class="cls-22" d="M.4 14.1l1.2 1.4M.4 10.2l3.3 3.4M.4 6.1l3.3 3.4M.4 2.1l3.3 3.3M2.3.1l1.4 1.2"/><path class="cls-29" d="M3.5.1v13.5l.7-.7V.1h-.7M4.2.1v12.8l5.5-5.6V.1H4.2"/><path class="cls-22" d="M10 1.1H4.5M10 2.5H4.5M10 4H4.5M10 5.4H4.5M10 6.9H4.5M9 8.3H4.5M7.6 9.5H4.5M6.1 10.9H4.5M4.7 12.4h-.2"/><path class="cls-29" d="M9.7.1v7.2H15V.1H9.7"/><path class="cls-22" d="M10 3.7l3.6 3.6M10.2.1l5.1 4.8M14.3.1l1 .8"/><path class="cls-26" d="M3.5 13.6V.1M.1 16.9V.1"/><path class="cls-22" d="M9.7 7.3V.1M4.2 12.9V.1"/><path class="cls-26" d="M9.7 7.3V.1"/><path class="cls-25" d="M.1 16.9V.1"/><path class="cls-26" d="M9.7 7.3H15M15 7.3V.1"/><path class="cls-29" d="M157.3 345l7.2-6.9V297l-7.2 7v41"/><path class="cls-22" d="M164.8 298.7l-1-.7M164.8 302.8l-3.1-2.9M164.8 306.9l-5.1-5.1M164.8 310.7l-7.2-7M164.8 314.8l-7.2-7.2M164.8 318.9l-7.2-7.2M164.8 322.9l-7.2-7.2M164.8 326.8l-7.2-7.2M164.8 330.9l-7.2-7.2M164.8 334.9l-7.2-7.2M164.3 338.5l-6.7-6.9M162.1 340.5l-4.5-4.8M160.2 342.4l-2.6-2.7M158.1 344.3l-.5-.5M157.6 342.1l7.2-7.2M157.6 338.3l7.2-7.2M157.6 334.2l7.2-7.2M157.6 330.1l7.2-7.2M157.6 326.3l7.2-7.2M157.6 322.2l7.2-7.2M157.6 318.1l7.2-7.2M157.6 314.1l7.2-7.2M157.6 310.2l7.2-7.2M157.6 306.1l7.2-7.2"/><path class="cls-29" d="M157.3 345l7.2-6.9V297l-7.2 7v41"/><path class="cls-22" d="M164.8 298.7l-1-.7M164.8 302.8l-3.1-2.9M164.8 306.9l-5.1-5.1M164.8 310.7l-7.2-7M164.8 314.8l-7.2-7.2M164.8 318.9l-7.2-7.2M164.8 322.9l-7.2-7.2M164.8 326.8l-7.2-7.2M164.8 330.9l-7.2-7.2M164.8 334.9l-7.2-7.2M164.3 338.5l-6.7-6.9M162.1 340.5l-4.5-4.8M160.2 342.4l-2.6-2.7M158.1 344.3l-.5-.5M157.6 342.1l7.2-7.2M157.6 338.3l7.2-7.2M157.6 334.2l7.2-7.2M157.6 330.1l7.2-7.2M157.6 326.3l7.2-7.2M157.6 322.2l7.2-7.2M157.6 318.1l7.2-7.2M157.6 314.1l7.2-7.2M157.6 310.2l7.2-7.2M157.6 306.1l7.2-7.2"/><path class="cls-26" d="M157.3 304v41M164.5 297v41.1M164.5 297v41.1M157.3 304v41"/><path class="cls-29" d="M103.8 297l-7.4 7h60.9l7.2-7h-60.7"/><path class="cls-22" d="M163.8 298l-.9-1M161.7 299.9l-2.9-2.9M159.7 301.8l-4.8-4.8M157.6 303.7l-6.7-6.7M153.7 304l-6.9-7M149.9 304l-7-7M145.8 304l-6.9-7M141.7 304l-6.9-7M137.7 304l-7-7M133.8 304l-6.9-7M129.7 304l-6.9-7M125.7 304l-7-7M121.8 304l-6.9-7M117.7 304l-6.9-7M113.7 304l-7-7M109.8 304l-6.5-6.5M105.7 304l-4.5-4.6M101.7 304l-2.4-2.4M97.6 304l-.5-.5M155.7 304l6.9-7M151.6 304l6.9-7M147.5 304l7-7M143.7 304l6.9-7M139.6 304l6.9-7M135.5 304l7-7M131.7 304l6.9-7M127.6 304l6.9-7M123.5 304l7-7M119.7 304l6.9-7M115.6 304l6.9-7M111.5 304l7-7M107.4 304l7-7M103.6 304l6.9-7M99.5 304l7-7"/><path class="cls-29" d="M103.8 297l-7.4 7h60.9l7.2-7h-60.7"/><path class="cls-22" d="M163.8 298l-.9-1M161.7 299.9l-2.9-2.9M159.7 301.8l-4.8-4.8M157.6 303.7l-6.7-6.7M153.7 304l-6.9-7M149.9 304l-7-7M145.8 304l-6.9-7M141.7 304l-6.9-7M137.7 304l-7-7M133.8 304l-6.9-7M129.7 304l-6.9-7M125.7 304l-7-7M121.8 304l-6.9-7M117.7 304l-6.9-7M113.7 304l-7-7M109.8 304l-6.5-6.5M105.7 304l-4.5-4.6M101.7 304l-2.4-2.4M97.6 304l-.5-.5M155.7 304l6.9-7M151.6 304l6.9-7M147.5 304l7-7M143.7 304l6.9-7M139.6 304l6.9-7M135.5 304l7-7M131.7 304l6.9-7M127.6 304l6.9-7M123.5 304l7-7M119.7 304l6.9-7M115.6 304l6.9-7M111.5 304l7-7M107.4 304l7-7M103.6 304l6.9-7M99.5 304l7-7"/><path class="cls-26" d="M158.5 297h-54.7M157.3 304H96.4M157.3 304H96.4M158.5 297h-54.7"/><path class="cls-29" d="M96.4 244.5l7.4 7.2h54.7l7-7.2H96.4"/><path class="cls-22" d="M164.1 246.1l-1.7-1.6M162.1 248.1l-3.6-3.6M160.2 250.2l-5.7-5.7M157.6 251.7l-7.2-7.2M153.5 251.7l-7.2-7.2M149.7 251.7l-7.2-7.2M145.6 251.7l-7.2-7.2M141.5 251.7l-7.2-7.2M137.7 251.7l-7.2-7.2M133.6 251.7l-7.2-7.2M129.5 251.7l-7.2-7.2M125.7 251.7l-7.2-7.2M121.6 251.7l-7.2-7.2M117.5 251.7l-7.2-7.2M113.4 251.7l-7.2-7.2M109.6 251.7l-7.2-7.2M105.5 251.7l-7.2-7.2M155.9 251.7l7.2-7.2M151.8 251.7l7.2-7.2M147.7 251.7l7.2-7.2M143.9 251.7l7.2-7.2M139.8 251.7l7.2-7.2M135.7 251.7l7.2-7.2M131.7 251.7l7.2-7.2M127.8 251.7l7.2-7.2M123.7 251.7l7.2-7.2M119.7 251.7l7.2-7.2M115.8 251.7l7.2-7.2M111.7 251.7l7.2-7.2M107.7 251.7l7.2-7.2M103.8 251.7l7.2-7.2M101.9 249.5l5-5M99.7 247.6l3.2-3.1M97.8 245.7l1-1.2"/><path class="cls-29" d="M96.4 244.5l7.4 7.2h54.7l7-7.2H96.4"/><path class="cls-22" d="M164.1 246.1l-1.7-1.6M162.1 248.1l-3.6-3.6M160.2 250.2l-5.7-5.7M157.6 251.7l-7.2-7.2M153.5 251.7l-7.2-7.2M149.7 251.7l-7.2-7.2M145.6 251.7l-7.2-7.2M141.5 251.7l-7.2-7.2M137.7 251.7l-7.2-7.2M133.6 251.7l-7.2-7.2M129.5 251.7l-7.2-7.2M125.7 251.7l-7.2-7.2M121.6 251.7l-7.2-7.2M117.5 251.7l-7.2-7.2M113.4 251.7l-7.2-7.2M109.6 251.7l-7.2-7.2M105.5 251.7l-7.2-7.2M155.9 251.7l7.2-7.2M151.8 251.7l7.2-7.2M147.7 251.7l7.2-7.2M143.9 251.7l7.2-7.2M139.8 251.7l7.2-7.2M135.7 251.7l7.2-7.2M131.7 251.7l7.2-7.2M127.8 251.7l7.2-7.2M123.7 251.7l7.2-7.2M119.7 251.7l7.2-7.2M115.8 251.7l7.2-7.2M111.7 251.7l7.2-7.2M107.7 251.7l7.2-7.2M103.8 251.7l7.2-7.2M101.9 249.5l5-5M99.7 247.6l3.2-3.1M97.8 245.7l1-1.2"/><path class="cls-26" d="M165.5 244.5h-64.8M158.5 251.7h-54.7M158.5 251.7h-54.7M165.5 244.5h-64.8"/><path class="cls-29" d="M3.5 13.6L.1 16.9h64.6v-3.3H3.5"/><path class="cls-22" d="M1.6 15.5L3 16.9M3.7 13.6l3.4 3.3M7.8 13.6l3.4 3.3M11.7 13.6l3.3 3.3M15.7 13.6l3.4 3.3M19.8 13.6l3.4 3.3M23.7 13.6l3.3 3.3M27.7 13.6l3.4 3.3M31.8 13.6l3.4 3.3M35.9 13.6l3.4 3.3M39.7 13.6l3.4 3.3M43.8 13.6l3.4 3.3M47.9 13.6l3.4 3.3M51.7 13.6l3.4 3.3M55.8 13.6l3.4 3.3M59.9 13.6l3.4 3.3M63.7 13.6l1.2.9"/><path class="cls-29" d="M4.2 12.9l-.7.7h61.2l1.4-.7H4.2M9.7 7.3l-5.5 5.6h61.9l6.3-5.6H9.7"/><path class="cls-22" d="M5.9 11.4v1.5M7.3 10v2.9M8.8 8.5v4.4M10.2 7.3v5.6M11.4 7.3v5.6M12.9 7.3v5.6M14.3 7.3v5.6M15.7 7.3v5.6M17.2 7.3v5.6M18.6 7.3v5.6M20.1 7.3v5.6M21.5 7.3v5.6M22.9 7.3v5.6M24.4 7.3v5.6M25.6 7.3v5.6M27 7.3v5.6M28.5 7.3v5.6M29.9 7.3v5.6M31.3 7.3v5.6M32.8 7.3v5.6M34.2 7.3v5.6M35.7 7.3v5.6M37.1 7.3v5.6M38.5 7.3v5.6M40 7.3v5.6M41.2 7.3v5.6M42.6 7.3v5.6M44.1 7.3v5.6M45.5 7.3v5.6M46.9 7.3v5.6M48.4 7.3v5.6M49.8 7.3v5.6M51.3 7.3v5.6M52.7 7.3v5.6M54.1 7.3v5.6M55.3 7.3v5.6M56.8 7.3v5.6M58.2 7.3v5.6M59.7 7.3v5.6M61.1 7.3v5.6M62.5 7.3v5.6M64 7.3v5.6M65.4 7.3v5.6M66.9 7.3v5.1M68.3 7.3v3.9M69.7 7.3V10M70.9 7.3v1.2M72.4 7.3"/><path class="cls-29" d="M15 .1v7.2h62.4V.1H15"/><path class="cls-22" d="M77.7 3.3L74.5.1M77.7 7.3L70.5.1M73.6 7.3L66.4.1M69.7 7.3L62.5.1M65.7 7.3L58.5.1M61.6 7.3L54.4.1M57.5 7.3L50.3.1M53.7 7.3L46.5.1M49.6 7.3L42.4.1M45.5 7.3L38.3.1M41.7 7.3L34.5.1M37.6 7.3L30.4.1M33.5 7.3L26.3.1M29.7 7.3L22.5.1M25.6 7.3L18.4.1M21.5 7.3L15.3.9M17.4 7.3l-2.1-2.4M75.5 7.3l2.2-2.1M71.4 7.3l6.3-6M67.3 7.3L74.5.1M63.5 7.3L70.7.1M59.4 7.3L66.6.1M55.3 7.3L62.5.1M51.5 7.3L58.7.1M47.4 7.3L54.6.1M43.3 7.3L50.5.1M39.3 7.3L46.5.1M35.4 7.3L42.6.1M31.3 7.3L38.5.1M27.3 7.3L34.5.1M23.4 7.3L30.6.1M19.3 7.3L26.5.1M15.3 7.3L22.5.1M15.3 3.5L18.4.1"/><path class="cls-26" d="M64.7 13.6H3.5M64 16.9H.1"/><path class="cls-22" d="M72.4 7.3H15M66.1 12.9H4.2"/><path class="cls-26" d="M77.4.1H15M72.4 7.3H15"/><path class="cls-25" d="M64 16.9H.1M77.4.1H15"/><path class="cls-26" d="M64.7 16.9H64M64.7 16.9v-3.3M77.4 7.3h-5M77.4 7.3V.1"/><path class="cls-22" d="M15 7.3H9.7"/><path class="cls-26" d="M15 7.3V.1"/><path class="cls-25" d="M4.2 16.9v256.2"/><path class="cls-29" d="M226.7 219.3c1.3-.9 3-.9 4.3 0 1.9 1.5 2.9 3.8 2.9 6.2l-.3 9H224l-.3-9c0-2.4 1-4.7 2.9-6.2"/><path class="cls-25" d="M226.7 219.3c1.3-.9 3-.9 4.3 0 1.9 1.5 2.9 3.8 2.9 6.2l-.3 9H224l-.3-9c0-2.4 1-4.7 2.9-6.2"/><path class="cls-29" d="M228.8 229.5c-1 0-2-.3-2.8-1.1-.7-.7-1.2-1.7-1.2-2.7 0-2.1.9-4.1 2.5-5.4.9-.6 2-.6 2.9 0 1.6 1.3 2.5 3.3 2.5 5.4 0 1-.4 2-1.2 2.7-.7.7-1.7 1.1-2.8 1.1"/><path class="cls-25" d="M228.8 229.5c-1 0-2-.3-2.8-1.1-.7-.7-1.2-1.7-1.2-2.7 0-2.1.9-4.1 2.5-5.4.9-.6 2-.6 2.9 0 1.6 1.3 2.5 3.3 2.5 5.4 0 1-.4 2-1.2 2.7-.7.7-1.7 1.1-2.8 1.1"/><path class="cls-29" d="M171.8 234.1v-47.9l.1-.1v-.1l.1-.1.1-.1h20.7l.1.1h.1v.1l.1.1v48.2l-.1.1-.1.1h-.1v.1h-20.6l-.1-.1h-.1v-.1h-.1v-.1l-.1-.1v-.1"/><path class="cls-25" d="M171.8 234.1v-47.9l.1-.1v-.1l.1-.1.1-.1h20.7l.1.1h.1v.1l.1.1v48.2l-.1.1-.1.1h-.1v.1h-20.6l-.1-.1h-.1v-.1h-.1v-.1l-.1-.1v-.1"/><path class="cls-29" d="M174 228.9v-37.4c0-.4 0-.9.3-1.3.2-.4.4-.8.7-1.1.3-.3.7-.6 1.1-.7.4-.2.9-.3 1.3-.3h10.2c.4 0 .9 0 1.3.3.4.2.8.4 1.1.7s.6.7.7 1.1c.2.4.3.9.3 1.3v37.4c0 .4 0 .9-.3 1.3-.2.4-.4.8-.7 1.1-.3.3-.7.6-1.1.7-.4.2-.9.3-1.3.3h-10.2c-.4 0-.9 0-1.3-.3-.4-.2-.8-.4-1.1-.7-.3-.3-.6-.7-.7-1.1-.2-.4-.3-.9-.3-1.3"/><path class="cls-25" d="M174 228.9v-37.4c0-.4 0-.9.3-1.3.2-.4.4-.8.7-1.1.3-.3.7-.6 1.1-.7.4-.2.9-.3 1.3-.3h10.2c.4 0 .9 0 1.3.3.4.2.8.4 1.1.7s.6.7.7 1.1c.2.4.3.9.3 1.3v37.4c0 .4 0 .9-.3 1.3-.2.4-.4.8-.7 1.1-.3.3-.7.6-1.1.7-.4.2-.9.3-1.3.3h-10.2c-.4 0-.9 0-1.3-.3-.4-.2-.8-.4-1.1-.7-.3-.3-.6-.7-.7-1.1-.2-.4-.3-.9-.3-1.3M242.8 235.3h-24.7"/><path class="cls-7" d="M242.8 234.6h-25.2"/><path class="cls-25" d="M242.8 236.8h-23.3M242.8 235.3h-24.7M242.8 234.6h-25.2M242.8 236.8h-23.3"/><path class="cls-7" d="M242.8 235.3v-.7"/><path class="cls-25" d="M242.8 236.8v-1.5M218.1 239.2h-18.3"/><path class="cls-7" d="M217.6 238.5h-17.1"/><path class="cls-25" d="M219.5 240.6h-21.1M218.1 239.2h-18.3M217.6 238.5h-17.1M219.5 240.6h-21.1M199.8 235.3h-28.3"/><path class="cls-7" d="M200.5 234.6h-29"/><path class="cls-25" d="M198.4 236.8h-26.9M199.8 235.3h-28.3"/><path class="cls-7" d="M171.5 235.3v-.7"/><path class="cls-25" d="M171.5 236.8v-1.5M200.5 234.6h-29M198.4 236.8h-26.9"/><path class="cls-29" d="M201.2 234.6v-12-.4c0-.1.1-.3.2-.4.1-.1.2-.2.4-.2H215.9c.1 0 .3.1.4.2.1.1.2.2.2.4v12.4h-15.6"/><path class="cls-25" d="M201.2 234.6v-12-.4c0-.1.1-.3.2-.4.1-.1.2-.2.4-.2H215.9c.1 0 .3.1.4.2.1.1.2.2.2.4v12.4h-15.6"/><path class="cls-19" d="M217.6 234.6v3.9"/><path class="cls-4" d="M217.6 238.5h-17.1"/><path class="cls-19" d="M200.5 238.5v-3.9"/><path class="cls-25" d="M199.8 239.2v-3.9"/><path class="cls-7" d="M200.5 238.5v-3.9"/><path class="cls-25" d="M198.4 240.6v-3.8M199.8 239.2v-3.9M200.5 238.5v-3.9M198.4 240.6v-3.8M218.1 235.3v3.9"/><path class="cls-7" d="M217.6 234.6v3.9"/><path class="cls-25" d="M219.5 236.8v3.8M218.1 235.3v3.9M217.6 234.6v3.9M219.5 236.8v3.8"/><path class="cls-7" d="M217.6 234.6h-17.1"/><path class="cls-26" d="M325.6 97.3V93"/><path class="cls-29" d="M299.4 93H105.3l4.3 4.3h189.8V93"/><path class="cls-22" d="M106.2 94l1-1M108.4 96.1l3.1-3.1M111.5 97.3l4.3-4.3M115.6 97.3l4.3-4.3M119.9 97.3l4.3-4.3M124.2 97.3l4.3-4.3M128.5 97.3l4.4-4.3M132.6 97.3l4.3-4.3M136.9 97.3l4.4-4.3M141.3 97.3l4.3-4.3M145.3 97.3l4.4-4.3M149.7 97.3L154 93M154 97.3l4.3-4.3M158.3 97.3l4.3-4.3M162.4 97.3l4.3-4.3M166.7 97.3L171 93M171 97.3l4.3-4.3M175.1 97.3l4.3-4.3M179.4 97.3l4.3-4.3M183.7 97.3l4.4-4.3M187.8 97.3l4.3-4.3M192.1 97.3l4.4-4.3M196.5 97.3l4.3-4.3M200.8 97.3l4.3-4.3M204.9 97.3l4.3-4.3M209.2 97.3l4.3-4.3M213.5 97.3l4.3-4.3M217.6 97.3l4.3-4.3M221.9 97.3l4.3-4.3M226.2 97.3l4.3-4.3M230.5 97.3l4.4-4.3M234.6 97.3l4.3-4.3M238.9 97.3l4.4-4.3M243.3 97.3l4.3-4.3M247.3 97.3l4.4-4.3M251.7 97.3L256 93M256 97.3l4.3-4.3M260.3 97.3l4.3-4.3M264.4 97.3l4.3-4.3M268.7 97.3L273 93M273 97.3l4.3-4.3M277.1 97.3l4.3-4.3M281.4 97.3l4.3-4.3M285.7 97.3l4.4-4.3M289.8 97.3l4.3-4.3M294.1 97.3l4.4-4.3M298.5 97.3l1.2-1.2"/><path class="cls-29" d="M299.4 93H105.3l4.3 4.3h189.8V93"/><path class="cls-22" d="M106.2 94l1-1M108.4 96.1l3.1-3.1M111.5 97.3l4.3-4.3M115.6 97.3l4.3-4.3M119.9 97.3l4.3-4.3M124.2 97.3l4.3-4.3M128.5 97.3l4.4-4.3M132.6 97.3l4.3-4.3M136.9 97.3l4.4-4.3M141.3 97.3l4.3-4.3M145.3 97.3l4.4-4.3M149.7 97.3L154 93M154 97.3l4.3-4.3M158.3 97.3l4.3-4.3M162.4 97.3l4.3-4.3M166.7 97.3L171 93M171 97.3l4.3-4.3M175.1 97.3l4.3-4.3M179.4 97.3l4.3-4.3M183.7 97.3l4.4-4.3M187.8 97.3l4.3-4.3M192.1 97.3l4.4-4.3M196.5 97.3l4.3-4.3M200.8 97.3l4.3-4.3M204.9 97.3l4.3-4.3M209.2 97.3l4.3-4.3M213.5 97.3l4.3-4.3M217.6 97.3l4.3-4.3M221.9 97.3l4.3-4.3M226.2 97.3l4.3-4.3M230.5 97.3l4.4-4.3M234.6 97.3l4.3-4.3M238.9 97.3l4.4-4.3M243.3 97.3l4.3-4.3M247.3 97.3l4.4-4.3M251.7 97.3L256 93M256 97.3l4.3-4.3M260.3 97.3l4.3-4.3M264.4 97.3l4.3-4.3M268.7 97.3L273 93M273 97.3l4.3-4.3M277.1 97.3l4.3-4.3M281.4 97.3l4.3-4.3M285.7 97.3l4.4-4.3M289.8 97.3l4.3-4.3M294.1 97.3l4.4-4.3M298.5 97.3l1.2-1.2"/><path class="cls-26" d="M246.9 97.3h52.5M171.5 97.3h71.3M109.6 97.3h57.8M195.3 93h104.1M105.3 93h85.6M195.3 93h104.1M246.9 97.3h52.5M171.5 97.3h71.3M105.3 93h85.6M109.6 97.3h57.8"/><path class="cls-25" d="M301.3 97.3V93M323.9 97.3V93"/><path class="cls-26" d="M299.4 97.3V93M325.6 97.3V93"/><path class="cls-22" d="M323.9 93.1c0-12.4-10.2-22.7-22.7-22.7M301.3 93V70.5"/><path class="cls-25" d="M172.5 106.9h69.4v17h-69.4zM241.1 121.8v2.2M224.1 121.8v2.2M207 121.8v2.2M190.2 121.8v2.2M173.2 121.8v2.2"/><path class="cls-29" d="M174 111.7v8.9c0 .3 0 .5.2.8 0 .2.2.5.4.6.2.2.4.3.6.4.2 0 .5.2.8.2h11.2c.3 0 .5 0 .8-.2.2 0 .5-.2.6-.4.2-.2.3-.4.4-.6 0-.2.2-.5.2-.8v-8.9-.4c0-.1 0-.3-.1-.4 0-.1-.1-.2-.2-.3 0-.1-.2-.2-.2-.3 0 0-.2-.2-.3-.2s-.2-.1-.3-.2-.2 0-.4-.1h-12c-.1 0-.3 0-.4.1-.1 0-.2.1-.3.2-.1 0-.2.2-.3.2 0 0-.2.2-.2.3 0 .1-.1.2-.2.3 0 .1 0 .2-.1.4v.4"/><path class="cls-25" d="M174 111.7v8.9c0 .3 0 .5.2.8 0 .2.2.5.4.6.2.2.4.3.6.4.2 0 .5.2.8.2h11.2c.3 0 .5 0 .8-.2.2 0 .5-.2.6-.4.2-.2.3-.4.4-.6 0-.2.2-.5.2-.8v-8.9-.4c0-.1 0-.3-.1-.4 0-.1-.1-.2-.2-.3 0-.1-.2-.2-.2-.3 0 0-.2-.2-.3-.2s-.2-.1-.3-.2-.2 0-.4-.1h-12c-.1 0-.3 0-.4.1-.1 0-.2.1-.3.2-.1 0-.2.2-.3.2 0 0-.2.2-.2.3 0 .1-.1.2-.2.3 0 .1 0 .2-.1.4v.4"/><path class="cls-29" d="M182.8 112.9c0-.7-.5-1.2-1.2-1.2s-1.2.5-1.2 1.2.5 1.2 1.2 1.2 1.2-.5 1.2-1.2"/><path class="cls-25" d="M182.8 112.9c0-.7-.5-1.2-1.2-1.2s-1.2.5-1.2 1.2.5 1.2 1.2 1.2 1.2-.5 1.2-1.2"/><path class="cls-28" d="M207.7 107.9h15.8v14.6h-15.8z"/><path class="cls-25" d="M207.7 107.9h15.8v14.6h-15.8z"/><path class="cls-29" d="M222.6 117.9c0-1.5-1.3-2.8-2.9-2.8s-2.9 1.2-2.9 2.8 1.3 2.8 2.9 2.8 2.9-1.2 2.9-2.8"/><path class="cls-25" d="M222.6 117.9c0-1.5-1.3-2.8-2.9-2.8s-2.9 1.2-2.9 2.8 1.3 2.8 2.9 2.8 2.9-1.2 2.9-2.8"/><path class="cls-29" d="M222.9 111.1c0-1.3-1-2.3-2.2-2.3s-2.2 1-2.2 2.3 1 2.3 2.2 2.3 2.2-1 2.2-2.3"/><path class="cls-25" d="M222.9 111.1c0-1.3-1-2.3-2.2-2.3s-2.2 1-2.2 2.3 1 2.3 2.2 2.3 2.2-1 2.2-2.3"/><path class="cls-29" d="M214.2 117.9c0-1.3-1-2.3-2.2-2.3s-2.2 1-2.2 2.3 1 2.3 2.2 2.3 2.2-1 2.2-2.3"/><path class="cls-25" d="M214.2 117.9c0-1.3-1-2.3-2.2-2.3s-2.2 1-2.2 2.3 1 2.3 2.2 2.3 2.2-1 2.2-2.3"/><path class="cls-29" d="M215.2 111.5c0-1.6-1.3-2.9-2.9-2.9s-2.9 1.3-2.9 2.9 1.3 2.9 2.9 2.9 2.9-1.3 2.9-2.9"/><path class="cls-25" d="M215.2 111.5c0-1.6-1.3-2.9-2.9-2.9s-2.9 1.3-2.9 2.9 1.3 2.9 2.9 2.9 2.9-1.3 2.9-2.9"/><path class="cls-1" d="M172.5 116.5h69.3"/><path class="cls-25" d="M241.3 116.5h.5M242.8 106.2h-71.3"/><path class="cls-7" d="M242.8 106.9h-71.3"/><path class="cls-25" d="M242.8 104.8h-71.3M242.8 106.2h-71.3"/><path class="cls-7" d="M171.5 106.2v.7"/><path class="cls-25" d="M171.5 104.8v1.4M242.8 106.9h-71.3M242.8 104.8h-71.3"/><path class="cls-7" d="M242.8 106.2v.7"/><path class="cls-25" d="M242.8 104.8v1.4"/><path class="cls-29" d="M171.5 97.3h-4.1v19h4.1v-19"/><path class="cls-22" d="M167.7 100.7l3.3-3.4M167.7 105l4-4.1M167.7 109.3l4-4M167.7 113.4l4-4.1M168.9 116.3l2.8-2.6"/><path class="cls-29" d="M171.5 97.3h-4.1v19h4.1v-19"/><path class="cls-22" d="M167.7 100.7l3.3-3.4M167.7 105l4-4.1M167.7 109.3l4-4M167.7 113.4l4-4.1M168.9 116.3l2.8-2.6"/><path class="cls-26" d="M171.5 116.3v-19M167.4 116.3v-19M167.4 116.3v-19M171.5 116.3v-19M171.5 116.3h-4.1"/><path class="cls-29" d="M246.9 97.3h-4.1v19h4.1v-19"/><path class="cls-22" d="M243 97.6l.3-.3M243 101.9l4.1-4.1M243 106.2l4.1-4.1M243 110.3l4.1-4.1M243 114.6l4.1-4.1M245.4 116.3l1.7-1.4"/><path class="cls-29" d="M246.9 97.3h-4.1v19h4.1v-19"/><path class="cls-22" d="M243 97.6l.3-.3M243 101.9l4.1-4.1M243 106.2l4.1-4.1M243 110.3l4.1-4.1M243 114.6l4.1-4.1M245.4 116.3l1.7-1.4"/><path class="cls-26" d="M246.9 116.3v-19M242.8 116.3v-19M242.8 116.3v-19M246.9 116.3v-19M246.9 116.3h-4.1"/><path class="cls-29" d="M171.5 254.3h-4.1v-83h4.1v83"/><path class="cls-22" d="M167.7 172.9l1.6-1.6M167.7 177.3l4-4.1M167.7 181.6l4-4.1M167.7 185.7l4-4.1M167.7 190l4-4.1M167.7 194.3l4-4.1M167.7 198.4l4-4.1M167.7 202.7l4-4.1M167.7 207l4-4.1M167.7 211.3l4-4M167.7 215.4l4-4.1M167.7 219.7l4-4M167.7 224.1l4-4.1M167.7 228.1l4-4M167.7 232.5l4-4.1M167.7 236.8l4-4.1M167.7 241.1l4-4.1M167.7 245.2l4-4.1M167.7 249.5l4-4.1M167.7 253.8l4-4.1M171.3 254.3l.4-.5"/><path class="cls-29" d="M167.4 254.3h4.1v-83h-4.1v83"/><path class="cls-22" d="M167.7 172.9l1.6-1.6M167.7 177.3l4-4.1M167.7 181.6l4-4.1M167.7 185.7l4-4.1M167.7 190l4-4.1M167.7 194.3l4-4.1M167.7 198.4l4-4.1M167.7 202.7l4-4.1M167.7 207l4-4.1M167.7 211.3l4-4M167.7 215.4l4-4.1M167.7 219.7l4-4M167.7 224.1l4-4.1M167.7 228.1l4-4M167.7 232.5l4-4.1M167.7 236.8l4-4.1M167.7 241.1l4-4.1M167.7 245.2l4-4.1M167.7 249.5l4-4.1M167.7 253.8l4-4.1M171.3 254.3l.4-.5"/><path class="cls-26" d="M171.5 182.3v-11M171.5 254.3v-68.4M167.4 254.3v-83M171.5 171.3h-4.1M167.4 254.3v-83M171.5 182.3v-11M171.5 254.3v-68.4M171.5 254.3h-4.1"/><path class="cls-29" d="M246.9 190h-4.1v-18.7h4.1V190"/><path class="cls-22" d="M243 174.1l2.7-2.8M243 178.5l4.1-4.1M243 182.5l4.1-4M243 186.9l4.1-4.1M244 190l3.1-2.9"/><path class="cls-29" d="M242.8 190h4.1v-18.7h-4.1V190"/><path class="cls-22" d="M243 174.1l2.7-2.8M243 178.5l4.1-4.1M243 182.5l4.1-4M243 186.9l4.1-4.1M244 190l3.1-2.9"/><path class="cls-26" d="M246.9 190v-18.7M242.8 180.9v-9.6M242.8 190v-4.1M246.9 171.3h-4.1M242.8 180.9v-9.6M246.9 190v-18.7M242.8 190v-4.1"/><path class="cls-29" d="M246.9 254.3h-4.1v-39.1h4.1v39.1"/><path class="cls-22" d="M243 216.6l1.5-1.4M243 220.9l4.1-4M243 225l4.1-4.1M243 229.3l4.1-4M243 233.7l4.1-4.1M243 238l4.1-4.1M243 242.1l4.1-4.1M243 246.4l4.1-4.1M243 250.7l4.1-4.1M243.5 254.3l3.6-3.6"/><path class="cls-29" d="M242.8 254.3h4.1v-39.1h-4.1v39.1"/><path class="cls-22" d="M243 216.6l1.5-1.4M243 220.9l4.1-4M243 225l4.1-4.1M243 229.3l4.1-4M243 233.7l4.1-4.1M243 238l4.1-4.1M243 242.1l4.1-4.1M243 246.4l4.1-4.1M243 250.7l4.1-4.1M243.5 254.3l3.6-3.6"/><path class="cls-26" d="M246.9 254.3v-39.1M242.8 254.3v-39.1M242.8 254.3v-39.1M246.9 254.3v-39.1M246.9 254.3h-4.1"/><path class="cls-1" d="M246.9 215.2V190M242.8 215.2V190"/><path class="cls-25" d="M246.9 214h-4.1M246.9 191.4h-4.1"/><path class="cls-26" d="M246.9 215.2h-4.1M246.9 190h-4.1"/><path class="cls-22" d="M220 191.3c0 12.4 10.2 22.7 22.7 22.7M242.8 191.4H220"/><path class="cls-29" d="M190.9 7.3V93h4.4V7.3h-4.4"/><path class="cls-22" d="M191.2 9.3l1.7-2M191.2 13.6l4.3-4.3M191.2 17.7l4.3-4.4M191.2 22l4.3-4.3M191.2 26.3l4.3-4.3M191.2 30.4l4.3-4.3M191.2 34.7l4.3-4.3M191.2 39l4.3-4.3M191.2 43.1l4.3-4.3M191.2 47.4l4.3-4.3M191.2 51.7l4.3-4.3M191.2 56.1l4.3-4.4M191.2 60.1l4.3-4.3M191.2 64.5l4.3-4.4M191.2 68.8l4.3-4.3M191.2 72.9l4.3-4.4M191.2 77.2l4.3-4.3M191.2 81.5l4.3-4.3M191.2 85.8l4.3-4.3M191.2 89.9l4.3-4.3M192.1 93l3.4-3.1"/><path class="cls-29" d="M190.9 7.3V93h4.4V7.3h-4.4"/><path class="cls-22" d="M191.2 9.3l1.7-2M191.2 13.6l4.3-4.3M191.2 17.7l4.3-4.4M191.2 22l4.3-4.3M191.2 26.3l4.3-4.3M191.2 30.4l4.3-4.3M191.2 34.7l4.3-4.3M191.2 39l4.3-4.3M191.2 43.1l4.3-4.3M191.2 47.4l4.3-4.3M191.2 51.7l4.3-4.3M191.2 56.1l4.3-4.4M191.2 60.1l4.3-4.3M191.2 64.5l4.3-4.4M191.2 68.8l4.3-4.3M191.2 72.9l4.3-4.4M191.2 77.2l4.3-4.3M191.2 81.5l4.3-4.3M191.2 85.8l4.3-4.3M191.2 89.9l4.3-4.3M192.1 93l3.4-3.1"/><path class="cls-26" d="M195.3 93V7.3M190.9 93V7.3M190.9 93V7.3M195.3 93V7.3"/><path class="cls-29" d="M246.9 254.3v7.2h-88.4l7-7.2h81.4"/><path class="cls-22" d="M247.1 256.9l-2.6-2.6M247.1 260.8l-6.7-6.5M243.7 261.5l-7.2-7.2M239.7 261.5l-7.2-7.2M235.6 261.5l-7.2-7.2M231.5 261.5l-7.2-7.2M227.7 261.5l-7.2-7.2M223.6 261.5l-7.2-7.2M219.5 261.5l-7.2-7.2M215.7 261.5l-7.2-7.2M211.6 261.5l-7.2-7.2M207.5 261.5l-7.2-7.2M203.4 261.5l-7.2-7.2M199.6 261.5l-7.2-7.2M195.5 261.5l-7.2-7.2M191.4 261.5l-7.2-7.2M187.6 261.5l-7.2-7.2M183.5 261.5l-7.2-7.2M179.4 261.5l-7.2-7.2M175.6 261.5l-7.2-7.2M171.5 261.5L165 255M167.4 261.5l-4.3-4.6M163.3 261.5l-2.4-2.4M159.5 261.5l-.5-.5M246.1 261.5l1-.7M242.3 261.5l4.8-4.8M238.2 261.5l7.2-7.2M234.1 261.5l7.2-7.2M230.1 261.5l7.2-7.2M226.2 261.5l7.2-7.2M222.1 261.5l7.2-7.2M218.1 261.5l7.2-7.2M214.2 261.5l7.2-7.2M210.1 261.5l7.2-7.2M206.1 261.5l7.2-7.2M202.2 261.5l7.2-7.2M198.1 261.5l7.2-7.2M194.1 261.5l7.2-7.2M190 261.5l7.2-7.2M186.1 261.5l7.2-7.2M182.1 261.5l7.2-7.2M178 261.5l7.2-7.2M174.1 261.5l7.2-7.2M170.1 261.5l7.2-7.2M166 261.5l7.2-7.2M162.1 261.5l7.2-7.2"/><path class="cls-29" d="M246.9 261.5v-7.2h-81.4l-7 7.2h88.4"/><path class="cls-22" d="M247.1 256.9l-2.6-2.6M247.1 260.8l-6.7-6.5M243.7 261.5l-7.2-7.2M239.7 261.5l-7.2-7.2M235.6 261.5l-7.2-7.2M231.5 261.5l-7.2-7.2M227.7 261.5l-7.2-7.2M223.6 261.5l-7.2-7.2M219.5 261.5l-7.2-7.2M215.7 261.5l-7.2-7.2M211.6 261.5l-7.2-7.2M207.5 261.5l-7.2-7.2M203.4 261.5l-7.2-7.2M199.6 261.5l-7.2-7.2M195.5 261.5l-7.2-7.2M191.4 261.5l-7.2-7.2M187.6 261.5l-7.2-7.2M183.5 261.5l-7.2-7.2M179.4 261.5l-7.2-7.2M175.6 261.5l-7.2-7.2M171.5 261.5L165 255M167.4 261.5l-4.3-4.6M163.3 261.5l-2.4-2.4M159.5 261.5l-.5-.5M246.1 261.5l1-.7M242.3 261.5l4.8-4.8M238.2 261.5l7.2-7.2M234.1 261.5l7.2-7.2M230.1 261.5l7.2-7.2M226.2 261.5l7.2-7.2M222.1 261.5l7.2-7.2M218.1 261.5l7.2-7.2M214.2 261.5l7.2-7.2M210.1 261.5l7.2-7.2M206.1 261.5l7.2-7.2M202.2 261.5l7.2-7.2M198.1 261.5l7.2-7.2M194.1 261.5l7.2-7.2M190 261.5l7.2-7.2M186.1 261.5l7.2-7.2M182.1 261.5l7.2-7.2M178 261.5l7.2-7.2M174.1 261.5l7.2-7.2M170.1 261.5l7.2-7.2M166 261.5l7.2-7.2M162.1 261.5l7.2-7.2"/><path class="cls-26" d="M246.9 254.3h-81.4M246.9 261.5h-88.4M246.9 261.5h-88.4M246.9 254.3h-81.4"/><path class="cls-29" d="M279.3 261.5h46.3l5-7.2h-51.3v7.2"/><path class="cls-22" d="M329.9 255.5l-1.2-1.2M328.2 257.9l-3.6-3.6M326.5 260.3l-6-6M323.9 261.5l-7.2-7.2M319.8 261.5l-7.2-7.2M315.7 261.5l-7.2-7.2M311.7 261.5l-7.2-7.2M307.8 261.5l-7.2-7.2M303.7 261.5l-7.2-7.2M299.7 261.5l-7.2-7.2M295.8 261.5l-7.2-7.2M291.7 261.5l-7.2-7.2M287.7 261.5l-7.2-7.2M283.8 261.5l-4.3-4.3M279.7 261.5l-.2-.2M322.5 261.5l7.2-7.2M318.4 261.5l7.2-7.2M314.3 261.5l7.2-7.2M310.5 261.5l7.2-7.2M306.4 261.5l7.2-7.2M302.3 261.5l7.2-7.2M298.2 261.5l7.2-7.2M294.4 261.5l7.2-7.2M290.3 261.5l7.2-7.2M286.2 261.5l7.2-7.2M282.4 261.5l7.2-7.2M279.5 260.3l6-6M279.5 256.5l1.9-2.2"/><path class="cls-29" d="M279.3 261.5h46.3l5-7.2h-51.3v7.2"/><path class="cls-22" d="M329.9 255.5l-1.2-1.2M328.2 257.9l-3.6-3.6M326.5 260.3l-6-6M323.9 261.5l-7.2-7.2M319.8 261.5l-7.2-7.2M315.7 261.5l-7.2-7.2M311.7 261.5l-7.2-7.2M307.8 261.5l-7.2-7.2M303.7 261.5l-7.2-7.2M299.7 261.5l-7.2-7.2M295.8 261.5l-7.2-7.2M291.7 261.5l-7.2-7.2M287.7 261.5l-7.2-7.2M283.8 261.5l-4.3-4.3M279.7 261.5l-.2-.2M322.5 261.5l7.2-7.2M318.4 261.5l7.2-7.2M314.3 261.5l7.2-7.2M310.5 261.5l7.2-7.2M306.4 261.5l7.2-7.2M302.3 261.5l7.2-7.2M298.2 261.5l7.2-7.2M294.4 261.5l7.2-7.2M290.3 261.5l7.2-7.2M286.2 261.5l7.2-7.2M282.4 261.5l7.2-7.2M279.5 260.3l6-6M279.5 256.5l1.9-2.2"/><path class="cls-26" d="M325.6 254.3h-46.3M325.6 261.5h-46.3M325.6 261.5h-46.3M325.6 254.3h-46.3M330.6 254.3h-5"/><path class="cls-25" d="M276.6 253.8h2.6v1.7h-2.6zM246.9 253.8h2.6v1.7h-2.6zM249.5 253.8h27.1v1.7h-27.1zM276.6 255.5h-27.1"/><path class="cls-1" d="M277.1 261.5h-27.8"/><path class="cls-25" d="M249.7 261.5h-.4"/><path class="cls-29" d="M279.3 261.5h-2.2v-6h2.2"/><path class="cls-22" d="M279.5 257.2l-1.7-1.7M279.5 261.3l-2.2-2.2M278.3 261.5l1.2-1.2M277.3 258.6l2.2-2.1"/><path class="cls-29" d="M246.9 261.5h2.4v-6h-2.4"/><path class="cls-22" d="M249.5 259.3l-2.4-2.4M247.6 261.5l-.5-.7M247.1 260.8l2.4-2.4M247.1 256.7l1.2-1.2"/><path class="cls-26" d="M277.1 261.5v-6M249.3 261.5v-6M277.1 261.5v-6M279.3 261.5h-2.2M249.3 261.5v-6M246.9 261.5h2.4M279.3 254.3v1.2M246.9 254.3v1.2M279.3 261.5h-2.2M246.9 261.5h2.4M277.1 255.5h2.2M249.3 255.5h-2.4"/><path class="cls-22" d="M276.7 253.8c0-14.9-12.3-27.2-27.2-27.2M249.5 253.8v-27.1"/><path class="cls-29" d="M340.5 254.3h-3.6V345h3.6v-90.7"/><path class="cls-22" d="M337.1 342.9l2.2 2.1M337.1 338.8l3.6 3.6M337.1 334.7l3.6 3.6M337.1 330.9l3.6 3.6M337.1 326.8l3.6 3.6M337.1 322.7l3.6 3.6M337.1 318.9l3.6 3.6M337.1 314.8l3.6 3.6M337.1 310.7l3.6 3.6M337.1 306.9l3.6 3.6M337.1 302.8l3.6 3.6M337.1 298.7l3.6 3.6M337.1 294.6l3.6 3.6M337.1 290.8l3.6 3.6M337.1 286.7l3.6 3.6M337.1 282.6l3.6 3.6M337.1 278.8l3.6 3.6M337.1 274.7l3.6 3.6M337.1 270.6l3.6 3.6M337.1 266.8l3.6 3.6M337.1 262.7l3.6 3.6M337.1 258.6l3.6 3.6M337.1 254.5l3.6 3.6"/><path class="cls-29" d="M336.9 254.3h-.5V345h.5v-90.7M336.4 254.3h-5.8V345h5.8v-90.7"/><path class="cls-22" d="M330.9 344.1h5.7M330.9 342.6h5.7M330.9 341.2h5.7M330.9 339.7h5.7M330.9 338.5h5.7M330.9 337.1h5.7M330.9 335.7h5.7M330.9 334.2h5.7M330.9 332.8h5.7M330.9 331.3h5.7M330.9 329.9h5.7M330.9 328.5h5.7M330.9 327h5.7M330.9 325.6h5.7M330.9 324.1h5.7M330.9 322.9h5.7M330.9 321.5h5.7M330.9 320.1h5.7M330.9 318.6h5.7M330.9 317.2h5.7M330.9 315.7h5.7M330.9 314.3h5.7M330.9 312.9h5.7M330.9 311.4h5.7M330.9 310h5.7M330.9 308.8h5.7M330.9 307.3h5.7M330.9 305.9h5.7M330.9 304.5h5.7M330.9 303h5.7M330.9 301.6h5.7M330.9 300.1h5.7M330.9 298.7h5.7M330.9 297.3h5.7M330.9 295.8h5.7M330.9 294.4h5.7M330.9 293.2h5.7M330.9 291.7h5.7M330.9 290.3h5.7M330.9 288.9h5.7M330.9 287.4h5.7M330.9 286h5.7M330.9 284.5h5.7M330.9 283.1h5.7M330.9 281.7h5.7M330.9 280.2h5.7M330.9 279h5.7M330.9 277.6h5.7M330.9 276.1h5.7M330.9 274.7h5.7M330.9 273.3h5.7M330.9 271.8h5.7M330.9 270.4h5.7M330.9 268.9h5.7M330.9 267.5h5.7M330.9 266.1h5.7M330.9 264.6h5.7M330.9 263.4h5.7M330.9 262h5.7M330.9 260.5h5.7M330.9 259.1h5.7M330.9 257.7h5.7M330.9 256.2h5.7M330.9 254.8h5.7"/><path class="cls-29" d="M325.6 261.5v76.6l5 6.9v-90.7l-5 7.2"/><path class="cls-22" d="M330.9 256.5l-1-1M330.9 260.5l-2.7-2.6M330.9 264.4l-4.4-4.1M330.9 268.5l-5.1-5.1M330.9 272.5l-5.1-5M330.9 276.4l-5.1-5.1M330.9 280.5l-5.1-5.1M330.9 284.5l-5.1-5M330.9 288.4l-5.1-5.1M330.9 292.5l-5.1-5.1M330.9 296.5l-5.1-5M330.9 300.6l-5.1-5M330.9 304.5l-5.1-5.1M330.9 308.5l-5.1-5M330.9 312.6l-5.1-5M330.9 316.5l-5.1-5.1M330.9 320.5l-5.1-5M330.9 324.6l-5.1-5M330.9 328.5l-5.1-5.1M330.9 332.5l-5.1-5M330.9 336.6l-5.1-5M330.9 340.7l-5.1-5M330.9 344.5l-1.2-.9M329.2 342.9l1.7-1.5M327.5 340.5l3.4-3.2M325.8 338.3l5.1-5M325.8 334.5l5.1-5.1M325.8 330.4l5.1-5.1M325.8 326.3l5.1-5M325.8 322.2l5.1-5M325.8 318.4l5.1-5.1M325.8 314.3l5.1-5M325.8 310.2l5.1-5M325.8 306.4l5.1-5.1M325.8 302.3l5.1-5M325.8 298.2l5.1-5M325.8 294.1l5.1-5M325.8 290.3l5.1-5M325.8 286.2l5.1-5M325.8 282.1l5.1-5M325.8 278.3l5.1-5M325.8 274.2l5.1-5M325.8 270.1l5.1-5M325.8 266.3l5.1-5M325.8 262.2l5.1-5"/><path class="cls-26" d="M336.9 261.5V345M340.5 254.3V345"/><path class="cls-22" d="M330.6 254.3V345M336.4 261.5V345"/><path class="cls-26" d="M325.6 261.5v76.6M330.6 254.3V345"/><path class="cls-25" d="M340.5 254.3V345M325.6 261.5v76.6"/><path class="cls-26" d="M336.9 254.3v7.2"/><path class="cls-22" d="M336.4 254.3v7.2"/><path class="cls-29" d="M109.6 97.3l-4.3-4.3v8.9l4.3 4.3v-8.9"/><path class="cls-22" d="M105.5 94.9l.7-.9M105.5 99.3l2.9-3.2M106.2 102.6l3.6-3.6M108.1 104.8l1.7-1.5"/><path class="cls-29" d="M109.6 97.3l-4.3-4.3v8.9l4.3 4.3v-8.9"/><path class="cls-22" d="M105.5 94.9l.7-.9M105.5 99.3l2.9-3.2M106.2 102.6l3.6-3.6M108.1 104.8l1.7-1.5"/><path class="cls-26" d="M109.6 104.3v-7M105.3 101.9V93M105.3 101.9V93M109.6 104.3v-7M109.6 106.2v-1.9"/><path class="cls-29" d="M109.6 106.2l-4.3-4.3v4.3h4.3"/><path class="cls-22" d="M105.5 103.3l.7-.7M106.7 106.2l1.4-1.4"/><path class="cls-29" d="M109.6 106.2l-4.3-4.3v4.3h4.3"/><path class="cls-22" d="M105.5 103.3l.7-.7M106.7 106.2l1.4-1.4"/><path class="cls-26" d="M105.3 106.2h4.3M105.3 106.2h4.3M77.4 106.2v-4.3"/><path class="cls-25" d="M80.1 106.2v-4.3M102.6 106.2v-4.3"/><path class="cls-26" d="M77.4 106.2v-4.3M105.3 106.2v-4.3"/><path class="cls-22" d="M102.7 79.2C90.3 79.2 80 89.4 80 101.9M102.6 101.9V79.3"/><path class="cls-29" d="M96.4 304l7.4-7v-45.3l-7.4-7.2V304"/><path class="cls-22" d="M104.1 254.1l-7.5-7.5M104.1 258.1l-7.5-7.4M104.1 262.2l-7.5-7.4M104.1 266.1l-7.5-7.5M104.1 270.1l-7.5-7.4M104.1 274.2l-7.5-7.4M104.1 278.1l-7.5-7.5M104.1 282.1l-7.5-7.4M104.1 286.2l-7.5-7.4M104.1 290.3l-7.5-7.4M104.1 294.1l-7.5-7.4M103.3 297.5l-6.7-6.7M101.2 299.4l-4.6-4.5M99.3 301.6l-2.7-2.9M97.1 303.5l-.5-.7M96.6 303l7.5-7.4M96.6 298.9l7.5-7.4M96.6 294.9l7.5-7.5M96.6 291l7.5-7.4M96.6 286.9l7.5-7.4M96.6 282.9l7.5-7.5M96.6 279l7.5-7.4M96.6 274.9l7.5-7.4M96.6 270.9l7.5-7.5M96.6 266.8l7.5-7.5M96.6 262.9l7.5-7.4M96.6 258.9l7.2-7.2M96.6 254.8l5.3-5.3M96.6 250.9l3.1-3.3M96.6 246.9l1.2-1.2"/><path class="cls-29" d="M96.4 304l7.4-7v-45.3l-7.4-7.2V304"/><path class="cls-22" d="M104.1 254.1l-7.5-7.5M104.1 258.1l-7.5-7.4M104.1 262.2l-7.5-7.4M104.1 266.1l-7.5-7.5M104.1 270.1l-7.5-7.4M104.1 274.2l-7.5-7.4M104.1 278.1l-7.5-7.5M104.1 282.1l-7.5-7.4M104.1 286.2l-7.5-7.4M104.1 290.3l-7.5-7.4M104.1 294.1l-7.5-7.4M103.3 297.5l-6.7-6.7M101.2 299.4l-4.6-4.5M99.3 301.6l-2.7-2.9M97.1 303.5l-.5-.7M96.6 303l7.5-7.4M96.6 298.9l7.5-7.4M96.6 294.9l7.5-7.5M96.6 291l7.5-7.4M96.6 286.9l7.5-7.4M96.6 282.9l7.5-7.5M96.6 279l7.5-7.4M96.6 274.9l7.5-7.4M96.6 270.9l7.5-7.5M96.6 266.8l7.5-7.5M96.6 262.9l7.5-7.4M96.6 258.9l7.2-7.2M96.6 254.8l5.3-5.3M96.6 250.9l3.1-3.3M96.6 246.9l1.2-1.2"/><path class="cls-26" d="M96.4 273v31M96.4 244.5v21.6M103.8 251.7V297M103.8 251.7V297M96.4 273v31M96.4 244.5v21.6"/><path class="cls-29" d="M165.5 257.9h-7v-4.1h7v4.1"/><path class="cls-22" d="M165.7 255.7l-1.9-1.9M163.8 257.9l-4.1-4.1M159.7 257.9l-.9-1.2M161.7 257.9l4-4.1M158.8 256.9l2.9-3.1"/><path class="cls-29" d="M158.5 257.9h7v-4.1h-7v4.1"/><path class="cls-22" d="M165.7 255.7l-1.9-1.9M163.8 257.9l-4.1-4.1M159.7 257.9l-.9-1.2M161.7 257.9l4-4.1M158.8 256.9l2.9-3.1"/><path class="cls-26" d="M165.5 257.9v-4.1M158.5 257.9v-4.1M158.5 257.9v-4.1M165.5 257.9v-4.1"/><path class="cls-29" d="M165.5 254.3l-7 7.2v-9.8l7-7.2v9.8"/><path class="cls-22" d="M165.7 247.6l-1.6-1.5M165.7 251.7l-3.6-3.6M165 255l-4.8-4.8M163.1 256.9l-4.3-4.3M160.9 259.1l-2.1-2.4M159 261l-.2-.2M158.8 260.8l6.9-7M158.8 256.9l6.9-6.9M158.8 252.9l6.9-7"/><path class="cls-29" d="M158.5 261.5l7-7.2v-9.8l-7 7.2v9.8"/><path class="cls-22" d="M165.7 247.6l-1.6-1.5M165.7 251.7l-3.6-3.6M165 255l-4.8-4.8M163.1 256.9l-4.3-4.3M160.9 259.1l-2.1-2.4M159 261l-.2-.2M158.8 260.8l6.9-7M158.8 256.9l6.9-6.9M158.8 252.9l6.9-7"/><path class="cls-26" d="M165.5 254.3v-9.8M158.5 261.5v-9.8M158.5 261.5v-9.8M165.5 254.3v-9.8"/><path class="cls-29" d="M100.7 235.3h-4.3v9.2h4.3v-9.2"/><path class="cls-22" d="M96.6 235.6v-.3M96.6 239.7l4.3-4.4M96.6 244l4.3-4.3M100.2 244.5l.7-.5"/><path class="cls-29" d="M100.7 235.3h-4.3v9.2h4.3v-9.2"/><path class="cls-22" d="M96.6 235.6v-.3M96.6 239.7l4.3-4.4M96.6 244l4.3-4.3M100.2 244.5l.7-.5"/><path class="cls-26" d="M100.7 244.5v-7.7M96.4 244.5v-9.2M96.4 244.5v-9.2M100.7 244.5v-7.7M100.7 244.5h-4.3M96.4 235.3v-.7M100.7 235.3h-4.3M100.7 236.8v-1.5"/><path class="cls-29" d="M72.4 273h24v-6.9h-24v6.9"/><path class="cls-22" d="M96.6 266.8l-.7-.7M96.6 270.6l-4.8-4.5M94.7 273l-7-6.9M90.9 273l-7-6.9M86.8 273l-7-6.9M82.7 273l-7-6.9M78.9 273l-6.3-6.2M74.8 273l-2.2-2.1M94.5 273l2.1-2.1M90.4 273l6.2-6.2M86.3 273l7-6.9M82.5 273l6.9-6.9M78.4 273l6.9-6.9M74.3 273l7-6.9M72.6 270.9l4.6-4.8M72.6 266.8l.7-.7"/><path class="cls-29" d="M72.4 273h24v-6.9h-24v6.9"/><path class="cls-22" d="M96.6 266.8l-.7-.7M96.6 270.6l-4.8-4.5M94.7 273l-7-6.9M90.9 273l-7-6.9M86.8 273l-7-6.9M82.7 273l-7-6.9M78.9 273l-6.3-6.2M74.8 273l-2.2-2.1M94.5 273l2.1-2.1M90.4 273l6.2-6.2M86.3 273l7-6.9M82.5 273l6.9-6.9M78.4 273l6.9-6.9M74.3 273l7-6.9M72.6 270.9l4.6-4.8M72.6 266.8l.7-.7"/><path class="cls-26" d="M96.4 266.1h-24M96.4 273h-24M72.4 266.1v6.9M96.4 273h-24M96.4 266.1h-24"/><path class="cls-25" d="M224.1 163.3h17v.7h-17zM240.6 164.1h.5v15.1h-.5zM224.1 164.1h.7v15.1h-.7zM241.8 170.8h.5v.5h-.5zM224.1 179.2h17v.7h-17zM207 163.3h17v.7h-17zM223.6 164.1h.5v15.1h-.5zM207 164.1h.7v15.1h-.7zM207 179.2h17v.7h-17zM190.2 163.3H207v.7h-16.8zM206.5 164.1h.5v15.1h-.5zM190.2 164.1h.5v15.1h-.5zM190.2 179.2H207v.7h-16.8zM173.2 163.3h17v.7h-17zM189.5 164.1h.7v15.1h-.7zM173.2 164.1h.5v15.1h-.5zM173.2 179.2h17v.7h-17zM172 170.8h.5v.5h-.5zM241.1 163.3h.7v16.6h-.7zM172.5 163.3h.7v16.6h-.7z"/><path class="cls-29" d="M188.5 185.9h54.3v-5h-54.3v5"/><path class="cls-22" d="M188.8 181.6l.7-.7M188.8 185.9l4.8-5M192.9 185.9l5-5M197.2 185.9l5-5M201.3 185.9l5-5M205.6 185.9l5-5M209.9 185.9l5-5M214.2 185.9l5.1-5M218.3 185.9l5-5M222.6 185.9l5.1-5M226.9 185.9l5.1-5M231 185.9l5.1-5M235.3 185.9l5.1-5M239.7 185.9l3.3-3.4"/><path class="cls-29" d="M188.5 185.9h54.3v-5h-54.3v5"/><path class="cls-22" d="M188.8 181.6l.7-.7M188.8 185.9l4.8-5M192.9 185.9l5-5M197.2 185.9l5-5M201.3 185.9l5-5M205.6 185.9l5-5M209.9 185.9l5-5M214.2 185.9l5.1-5M218.3 185.9l5-5M222.6 185.9l5.1-5M226.9 185.9l5.1-5M231 185.9l5.1-5M235.3 185.9l5.1-5M239.7 185.9l3.3-3.4"/><path class="cls-26" d="M242.8 180.9h-54.3M242.8 185.9h-54.3M242.8 185.9h-54.3M242.8 180.9h-54.3M188.5 182.3v-1.4"/><path class="cls-28" d="M175.1 179.2h9.8v2.6h-9.8z"/><path class="cls-25" d="M175.1 179.2h9.8v2.6h-9.8zM174.9 179.2z"/><path class="cls-17" d="M175.8 179.2v-8.7"/><path class="cls-5" d="M175.8 170.5l1.7.3 1.7.5 1.4.7 1.2 1.2 1 1.2.9 1.4.5 1.7v1.7"/><path class="cls-29" d="M188.5 182.3h-17v3.6h17v-3.6"/><path class="cls-22" d="M171.7 185.9l3.6-3.6M175.8 185.9l3.6-3.6M180.1 185.9l3.6-3.6M184.5 185.9l3.6-3.6M188.5 185.9h.3"/><path class="cls-29" d="M188.5 182.3h-17v3.6h17v-3.6"/><path class="cls-22" d="M171.7 185.9l3.6-3.6M175.8 185.9l3.6-3.6M180.1 185.9l3.6-3.6M184.5 185.9l3.6-3.6M188.5 185.9h.3"/><path class="cls-26" d="M171.5 185.9h17M171.5 182.3h17M171.5 182.3h17M171.5 185.9h17"/><path class="cls-1" d="M278.1 323.9h33.3"/><path class="cls-25" d="M310.9 323.9h.5"/><path class="cls-10" d="M311.4 323.9v-33.6"/><path class="cls-12" d="M311.4 290.3h-33.3"/><path class="cls-25" d="M278.5 290.3h-.4"/><path class="cls-1" d="M278.1 290.3v33.6"/><path class="cls-25" d="M278.1 323.4v.5"/><path class="cls-1" d="M280.5 321.3h28.3"/><path class="cls-25" d="M308.3 321.3h.5"/><path class="cls-10" d="M308.8 321.3v-28.4"/><path class="cls-16" d="M308.8 292.9h-28.3"/><path class="cls-21" d="M280.5 292.9v28.4"/><path class="cls-25" d="M280.5 320.8v.5"/><path class="cls-3" d="M.1 13.6h7.5"/><path class="cls-25" d="M7.1 13.6h.5"/><path class="cls-20" d="M7.6 13.6v3.3"/><path class="cls-3" d="M7.6 16.9H.1"/><path class="cls-25" d="M.6 16.9H.1"/><path class="cls-20" d="M.1 16.9v-3.3"/><path class="cls-22" d="M72.3 160.9c11 0 20.1-9.1 20.1-20.1M92.5 140.8H72.4"/><path class="cls-5" d="M72.4 160.9l3.8.3 3.9 1.2 3.3 1.9 3.1 2.4 2.7 3.1 1.7 3.4 1.2 3.8.4 4.1"/><path class="cls-17" d="M92.5 181.1H72.4"/><path class="cls-22" d="M72.3 53.9h1.9c.6 0 1.2-.2 1.8-.3.6-.1 1.2-.3 1.8-.5l1.8-.6c.6-.2 1.1-.5 1.7-.8.5-.3 1.1-.6 1.6-1 .5-.3 1-.7 1.5-1.1.5-.4.9-.8 1.4-1.3.4-.4.9-.9 1.3-1.4.4-.5.8-1 1.1-1.5.3-.5.7-1 1-1.6.3-.5.6-1.1.8-1.7l.6-1.8c.2-.6.3-1.2.5-1.8l.3-1.8c.1-.6 0-1.2 0-1.9M91.3 34.9H72.4M72.4 53.9h1.4M75.3 54.1h.7M76 54.1l.7.3"/><path class="cls-14" d="M77.9 54.6l1.7.7"/><path class="cls-22" d="M80.8 55.8l.5.3M81.3 56.1l.7.4"/><path class="cls-15" d="M82.9 57l1.5 1.2"/><path class="cls-22" d="M85.6 59.2l.2.2M85.8 59.4l.7 1M87.5 61.3l.7 1"/><path class="cls-27" d="M88.2 62.3l1 1.7"/><path class="cls-22" d="M89.2 64l.5.9M90.1 66.4l.5.9"/><path class="cls-13" d="M90.6 67.3l.3 2"/><path class="cls-22" d="M90.9 69.3l.2 1.2M91.3 71.9v1"/><path class="cls-5" d="M91.3 72.9H72.4"/><path class="cls-22" d="M72.9 72.9h-.5M330.7 53.9h-1.9c-.6 0-1.2-.2-1.8-.3-.6-.1-1.2-.3-1.8-.5l-1.8-.6c-.6-.2-1.1-.5-1.7-.8-.5-.3-1.1-.6-1.6-1-.5-.3-1-.7-1.5-1.1-.5-.4-.9-.8-1.4-1.3-.4-.4-.9-.9-1.3-1.4-.4-.5-.8-1-1.1-1.5-.3-.5-.7-1-1-1.6-.3-.5-.6-1.1-.8-1.7l-.6-1.8c-.2-.6-.3-1.2-.5-1.8l-.3-1.8v-1.9M311.7 34.9h18.9M330.6 53.9h-1.4M327.7 54.1h-.7M327 54.1l-.7.3"/><path class="cls-14" d="M325.1 54.6l-1.7.7"/><path class="cls-22" d="M322.2 55.8l-.5.3M321.7 56.1l-.7.4"/><path class="cls-15" d="M320.1 57l-1.5 1.2"/><path class="cls-22" d="M317.4 59.2l-.2.2M317.2 59.4l-.7 1M315.5 61.6l-.5.7M315 62.3l-.2.5"/><path class="cls-11" d="M314.1 64l-1 1.7"/><path class="cls-22" d="M312.9 66.6l-.3.7M312.6 67.3l-.2.8"/><path class="cls-14" d="M312.1 69.3l-.2 1.6"/><path class="cls-22" d="M311.7 72.4v.5"/><path class="cls-5" d="M311.7 72.9h18.9"/><path class="cls-22" d="M330.1 72.9h.5M330.7 144.8c-11 0-20.1 9.1-20.1 20.1M310.7 165h19.9"/><path class="cls-5" d="M330.6 144.9l-3.8-.5-3.9-1-3.3-1.9-3.1-2.6-2.4-2.9-2-3.6-1.2-3.9-.2-3.8"/><path class="cls-17" d="M310.7 124.7h19.9"/><path class="cls-29" d="M165.5 254.3l-1 3.6 2 .2-1-3.8"/><path class="cls-22" d="M166 256.2l-.7-.9M165.5 257.9l1-.7"/><path class="cls-29" d="M2.6 273.1v-12.4h.9v12.4"/><path class="cls-1" d="M2.5 273v-12.2"/><path class="cls-25" d="M2.5 261.3v-.5M2.5 260.8h1"/><path class="cls-23" d="M3.5 260.8V273"/><path class="cls-29" d="M3 264.6l-.2-.2-.3-.3.3-.2.2-.2.3.2.2.2-.2.3-.3.2"/><path class="cls-25" d="M3.5 264.1v.3M3.5 264.4h-.2M3.3 264.4v.2M3.3 264.6H3M3 264.6l-.2-.2M2.8 264.4v-.3M2.8 264.1h-.3M2.5 264.1h.3M2.8 264.1v-.2M2.8 263.9l.2-.2M3 263.7h.3M3.3 263.7v.2M3.3 263.9h.2M3.5 263.9v.2M62.8 264.1H64M4.7 264.1H3.5"/><path class="cls-29" d="M2.5 260.8h1v-102h-1v102"/><path class="cls-25" d="M2.5 260.8h1"/><path class="cls-18" d="M3.5 260.8v-102"/><path class="cls-25" d="M3.5 158.8h-1"/><path class="cls-12" d="M2.5 158.8v102"/><path class="cls-29" d="M3 196.5h-.2l-.3-.3.3-.5h.5l.2.5-.2.3H3"/><path class="cls-25" d="M3.5 196.2h-.2M3.3 196.2v.3M3.3 196.5H3M3 196.5h-.2M2.8 196.5v-.3M2.8 196.2h-.3M2.5 196.2v-.2M2.5 196h.3M2.8 196v-.3M2.8 195.7H3M3 195.7h.3M3.3 195.7v.3M3.3 196h.2M3.5 196v.2"/><path class="cls-29" d="M3 230.5l-.2-.2-.3-.2.3-.3h.5l.2.3-.2.2-.3.2"/><path class="cls-25" d="M3.5 230.1v.2M3.5 230.3h-.2M3.3 230.3v.2M3.3 230.5H3M3 230.5h-.2M2.8 230.5v-.2M2.8 230.3h-.3M2.5 230.3v-.2M2.5 230.1h.3M2.8 230.1v-.3M2.8 229.8H3M3 229.8h.3M3.3 229.8v.3M3.3 230.1h.2M3.5 230.1"/><path class="cls-29" d="M3 162.4h-.2l-.3-.3.3-.2.2-.2.3.2.2.2-.2.3H3"/><path class="cls-25" d="M3.5 162.1l-.2.3M3.3 162.4H3M3 162.4h-.2M2.8 162.4v-.3M2.8 162.1h-.3M2.5 162.1v-.2M2.5 161.9h.3M2.8 161.9v-.2M2.8 161.7H3M3 161.7h.3M3.3 161.7v.2M3.3 161.9h.2M3.5 161.9v.2M3.5 162.1"/><path class="cls-1" d="M4.7 162.1H64"/><path class="cls-25" d="M63.5 162.1h.5M4.7 162.1H3.5"/><path class="cls-29" d="M2.5 158.8h1V56.5h-1v102.3"/><path class="cls-25" d="M2.5 158.8h1"/><path class="cls-18" d="M3.5 158.8V56.5"/><path class="cls-25" d="M3.5 56.5h-1"/><path class="cls-24" d="M2.5 56.5v102.3"/><path class="cls-29" d="M3 94.5l-.2-.3-.3-.2.3-.3h.5l.2.3-.2.2-.3.3"/><path class="cls-25" d="M3.5 94v.2M3.5 94.2h-.2M3.3 94.2v.3M3.3 94.5H3M3 94.5h-.2M2.8 94.5v-.3M2.8 94.2h-.3M2.5 94.2V94M2.5 94h.3M2.8 94v-.3M2.8 93.7H3M3 93.7h.3M3.3 93.7v.3M3.3 94h.2M3.5 94"/><path class="cls-29" d="M3 128.5l-.2-.2-.3-.2.3-.3h.5l.2.3-.2.2-.3.2"/><path class="cls-25" d="M3.5 128.1v.2M3.5 128.3h-.2M3.3 128.3v.2M3.3 128.5H3M3 128.5h-.2M2.8 128.5v-.2M2.8 128.3l-.3-.2M2.5 128.1h.3M2.8 128.1v-.3M2.8 127.8H3M3 127.8h.3M3.3 127.8h.2M3.5 127.8v.3M3.5 128.1"/><path class="cls-29" d="M3 60.4h-.2l-.3-.3.3-.4h.5l.2.4-.2.3H3"/><path class="cls-25" d="M3.5 60.1h-.2M3.3 60.1v.3M3.3 60.4H3M3 60.4h-.2M2.8 60.4v-.3M2.8 60.1h-.3M2.5 60.1v-.2M2.5 59.9h.3M2.8 59.9v-.2M2.8 59.7H3M3 59.7h.3M3.3 59.7v.2M3.3 59.9h.2M3.5 59.9v.2"/><path class="cls-1" d="M4.7 60.1H64"/><path class="cls-25" d="M63.5 60.1h.5M4.7 60.1H3.5"/><path class="cls-29" d="M2.6 19.1v-.2l.1-.1.1-.1h.5v.1h.1v.1l.1.1v37.6h-.9V19.1"/><path class="cls-25" d="M2.5 19.1h1"/><path class="cls-18" d="M3.5 19.1v37.4"/><path class="cls-25" d="M3.5 56.5H3"/><path class="cls-10" d="M2.5 56.5V19.1"/><path class="cls-25" d="M2.5 19.6v-.5"/><path class="cls-29" d="M3 26.5l-.2-.2-.3-.2.3-.3.2-.2.3.2.2.3-.2.2-.3.2"/><path class="cls-25" d="M3.5 26.1v.2M3.5 26.3h-.2M3.3 26.3l-.3.2M3 26.5v-.2M3 26.3h-.2M2.8 26.3v-.2M2.8 26.1h-.3M2.5 26.1h.3M2.8 26.1v-.3M2.8 25.8v-.2M2.8 25.6H3M3 25.6h.3M3.3 25.6v.2M3.3 25.8h.2M3.5 25.8v.3M3.5 26.1"/><path class="cls-29" d="M3 19.6h-.2l-.3-.5.3-.2.2-.3.3.3.2.2-.2.5H3"/><path class="cls-25" d="M3.5 19.1v.2M3.5 19.3l-.2.3M3.3 19.6H3M3 19.6h-.2M2.8 19.6v-.3M2.8 19.3h-.3M2.5 19.3v-.2M2.5 19.1v-.2M2.5 18.9h.3M2.8 18.9v-.3M2.8 18.6H3M3 18.6h.3M3.3 18.6v.3M3.3 18.9h.2M3.5 18.9"/><path class="cls-1" d="M4.7 264.1h58.1"/><path class="cls-25" d="M62.3 264.1h.5"/><path class="cls-29" d="M21.5 166.7h30.7v18.2H21.5v-18.2"/><path class="cls-25" d="M315.5 238.7l-.2.7M315.3 239.4v1M315.3 240.4l-.3.7M315 241.1v.2M314.3 242.8v.2M313.3 244.2l-.4.5M312.9 244.7l-.5.5M312.4 245.2l-.7.5M311.7 245.7l-.5.2M310 246.6h-.3M308.3 247.1h-.5M307.8 247.1h-.9M306.9 247.1h-.8M306.1 247.1h-.7M304.2 246.6h-.2M302.5 245.9l-.2-.2M302.3 245.7l-.7-.5M301.6 245.2l-.7-.5M300.9 244.7l-.5-.5M299.7 243l-.3-.2M298.9 241.6l-.2-.5M298.7 241.1l-.2-.7M298.5 240.4v-1M298.5 239.4v-.7M298.5 237.3v-.3M298.9 235.6v-.3M298.9 235.3l.5-.7M299.4 234.6l.5-.7M299.9 233.9l.5-.7M301.3 232.2l.3-.2M302.8 231.3l.9-.5M303.7 230.8l.8-.3M304.5 230.5l.7-.2M305.2 230.3h.2M306.9 230.1h.2M308.5 230.3l.8.2M309.3 230.5l.9.3M310.2 230.8l.7.5M310.9 231.3h.3M312.4 232.2h.2M313.6 233.4l.5.5M314.1 233.9l.2.7M314.3 234.6l.5.7M314.8 235.3v.5M315.3 237v.5"/><path class="cls-29" d="M9.7 7.3V.1h320.9v7.2H9.7"/><path class="cls-22" d="M330.9 4L327 .1M330.1 7.3L322.9.1M326.3 7.3L319.1.1M322.2 7.3L315 .1M318.1 7.3L310.9.1M314.1 7.3L306.9.1M310.2 7.3L303 .1M306.1 7.3L298.9.1M302.1 7.3L294.9.1M298.2 7.3L291 .1M294.1 7.3L286.9.1M290.1 7.3L282.9.1M286.2 7.3L279 .1M282.1 7.3L274.9.1M278.1 7.3L270.9.1M274 7.3L266.8.1M270.1 7.3L262.9.1M266.1 7.3L258.9.1M262 7.3L254.8.1M258.1 7.3L250.9.1M254.1 7.3L246.9.1M250 7.3L242.8.1M246.1 7.3L238.9.1M242.1 7.3L234.9.1M238 7.3L230.8.1M233.9 7.3L226.7.1M230.1 7.3L222.9.1M226 7.3L218.8.1M221.9 7.3L214.7.1M218.1 7.3L210.9.1M214 7.3L206.8.1M209.9 7.3L202.7.1M205.8 7.3L198.6.1M202 7.3L194.8.1M197.9 7.3L190.7.1M193.8 7.3L186.6.1M190 7.3L182.8.1M185.9 7.3L178.7.1M181.8 7.3L174.6.1M178 7.3L170.8.1M173.9 7.3L166.7.1M169.8 7.3L162.6.1M165.7 7.3L158.5.1M161.9 7.3L154.7.1M157.8 7.3L150.6.1M153.7 7.3L146.5.1M149.9 7.3L142.7.1M145.8 7.3L138.6.1M141.7 7.3L134.5.1M137.9 7.3L130.7.1M133.8 7.3L126.6.1M129.7 7.3L122.5.1M125.7 7.3L118.5.1M121.8 7.3L114.6.1M117.7 7.3L110.5.1M113.7 7.3L106.5.1M109.8 7.3L102.6.1M105.7 7.3L98.5.1M101.7 7.3L94.5.1M97.8 7.3L90.6.1M93.7 7.3L86.5.1M89.7 7.3L82.5.1M85.6 7.3L78.4.1M81.7 7.3L74.5.1M77.7 7.3L70.5.1M73.6 7.3L66.4.1M69.7 7.3L62.5.1M65.7 7.3L58.5.1M61.6 7.3L54.4.1M57.5 7.3L50.3.1M53.7 7.3L46.5.1M49.6 7.3L42.4.1M45.5 7.3L38.3.1M41.7 7.3L34.5.1M37.6 7.3L30.4.1M33.5 7.3L26.3.1M29.7 7.3L22.5.1M25.6 7.3L18.4.1M21.5 7.3L14.3.1M17.4 7.3L10.2.1M13.6 7.3L10 3.7M328 7.3l2.9-2.6M323.9 7.3l7-6.7M320.1 7.3l7.2-7.2M316 7.3l7.2-7.2M311.9 7.3l7.2-7.2M308.1 7.3l7.2-7.2M304 7.3l7.2-7.2M299.9 7.3l7.2-7.2M295.8 7.3L303 .1M292 7.3l7.2-7.2M287.9 7.3l7.2-7.2M283.8 7.3L291 .1M280 7.3l7.2-7.2M275.9 7.3l7.2-7.2M271.8 7.3L279 .1M268 7.3l7.2-7.2M263.9 7.3l7.2-7.2M259.8 7.3L267 .1M255.7 7.3l7.2-7.2M251.9 7.3l7.2-7.2M247.8 7.3L255 .1M243.7 7.3l7.2-7.2M239.9 7.3l7.2-7.2M235.8 7.3L243 .1M231.7 7.3l7.2-7.2M227.7 7.3l7.2-7.2M223.8 7.3L231 .1M219.7 7.3l7.2-7.2M215.7 7.3l7.2-7.2M211.8 7.3L219 .1M207.7 7.3l7.2-7.2M203.7 7.3l7.2-7.2M199.8 7.3L207 .1M195.7 7.3l7.2-7.2M191.7 7.3l7.2-7.2M187.6 7.3l7.2-7.2M183.7 7.3l7.2-7.2M179.7 7.3l7.2-7.2M175.6 7.3l7.2-7.2M171.7 7.3l7.2-7.2M167.7 7.3l7.2-7.2M163.6 7.3l7.2-7.2M159.7 7.3l7.2-7.2M155.7 7.3l7.2-7.2M151.6 7.3l7.2-7.2M147.5 7.3l7.2-7.2M143.7 7.3l7.2-7.2M139.6 7.3l7.2-7.2M135.5 7.3l7.2-7.2M131.7 7.3l7.2-7.2M127.6 7.3l7.2-7.2M123.5 7.3l7.2-7.2M119.4 7.3l7.2-7.2M115.6 7.3l7.2-7.2M111.5 7.3l7.2-7.2M107.4 7.3l7.2-7.2M103.6 7.3l7.2-7.2M99.5 7.3l7.2-7.2M95.4 7.3l7.2-7.2M91.6 7.3L98.8.1M87.5 7.3L94.7.1M83.4 7.3L90.6.1M79.3 7.3L86.5.1M75.5 7.3L82.7.1M71.4 7.3L78.6.1M67.3 7.3L74.5.1M63.5 7.3L70.7.1M59.4 7.3L66.6.1M55.3 7.3L62.5.1M51.5 7.3L58.7.1M47.4 7.3L54.6.1M43.3 7.3L50.5.1M39.3 7.3L46.5.1M35.4 7.3L42.6.1M31.3 7.3L38.5.1M27.3 7.3L34.5.1M23.4 7.3L30.6.1M19.3 7.3L26.5.1M15.3 7.3L22.5.1M11.2 7.3L18.4.1M10 4.7L14.5.1M10 .9l.5-.8"/><path class="cls-29" d="M9.7.1v7.2h320.9V.1H9.7"/><path class="cls-22" d="M330.9 4L327 .1M330.1 7.3L322.9.1M326.3 7.3L319.1.1M322.2 7.3L315 .1M318.1 7.3L310.9.1M314.1 7.3L306.9.1M310.2 7.3L303 .1M306.1 7.3L298.9.1M302.1 7.3L294.9.1M298.2 7.3L291 .1M294.1 7.3L286.9.1M290.1 7.3L282.9.1M286.2 7.3L279 .1M282.1 7.3L274.9.1M278.1 7.3L270.9.1M274 7.3L266.8.1M270.1 7.3L262.9.1M266.1 7.3L258.9.1M262 7.3L254.8.1M258.1 7.3L250.9.1M254.1 7.3L246.9.1M250 7.3L242.8.1M246.1 7.3L238.9.1M242.1 7.3L234.9.1M238 7.3L230.8.1M233.9 7.3L226.7.1M230.1 7.3L222.9.1M226 7.3L218.8.1M221.9 7.3L214.7.1M218.1 7.3L210.9.1M214 7.3L206.8.1M209.9 7.3L202.7.1M205.8 7.3L198.6.1M202 7.3L194.8.1M197.9 7.3L190.7.1M193.8 7.3L186.6.1M190 7.3L182.8.1M185.9 7.3L178.7.1M181.8 7.3L174.6.1M178 7.3L170.8.1M173.9 7.3L166.7.1M169.8 7.3L162.6.1M165.7 7.3L158.5.1M161.9 7.3L154.7.1M157.8 7.3L150.6.1M153.7 7.3L146.5.1M149.9 7.3L142.7.1M145.8 7.3L138.6.1M141.7 7.3L134.5.1M137.9 7.3L130.7.1M133.8 7.3L126.6.1M129.7 7.3L122.5.1M125.7 7.3L118.5.1M121.8 7.3L114.6.1M117.7 7.3L110.5.1M113.7 7.3L106.5.1M109.8 7.3L102.6.1M105.7 7.3L98.5.1M101.7 7.3L94.5.1M97.8 7.3L90.6.1M93.7 7.3L86.5.1M89.7 7.3L82.5.1M85.6 7.3L78.4.1M81.7 7.3L74.5.1M77.7 7.3L70.5.1M73.6 7.3L66.4.1M69.7 7.3L62.5.1M65.7 7.3L58.5.1M61.6 7.3L54.4.1M57.5 7.3L50.3.1M53.7 7.3L46.5.1M49.6 7.3L42.4.1M45.5 7.3L38.3.1M41.7 7.3L34.5.1M37.6 7.3L30.4.1M33.5 7.3L26.3.1M29.7 7.3L22.5.1M25.6 7.3L18.4.1M21.5 7.3L14.3.1M17.4 7.3L10.2.1M13.6 7.3L10 3.7M328 7.3l2.9-2.6M323.9 7.3l7-6.7M320.1 7.3l7.2-7.2M316 7.3l7.2-7.2M311.9 7.3l7.2-7.2M308.1 7.3l7.2-7.2M304 7.3l7.2-7.2M299.9 7.3l7.2-7.2M295.8 7.3L303 .1M292 7.3l7.2-7.2M287.9 7.3l7.2-7.2M283.8 7.3L291 .1M280 7.3l7.2-7.2M275.9 7.3l7.2-7.2M271.8 7.3L279 .1M268 7.3l7.2-7.2M263.9 7.3l7.2-7.2M259.8 7.3L267 .1M255.7 7.3l7.2-7.2M251.9 7.3l7.2-7.2M247.8 7.3L255 .1M243.7 7.3l7.2-7.2M239.9 7.3l7.2-7.2M235.8 7.3L243 .1M231.7 7.3l7.2-7.2M227.7 7.3l7.2-7.2M223.8 7.3L231 .1M219.7 7.3l7.2-7.2M215.7 7.3l7.2-7.2M211.8 7.3L219 .1M207.7 7.3l7.2-7.2M203.7 7.3l7.2-7.2M199.8 7.3L207 .1M195.7 7.3l7.2-7.2M191.7 7.3l7.2-7.2M187.6 7.3l7.2-7.2M183.7 7.3l7.2-7.2M179.7 7.3l7.2-7.2M175.6 7.3l7.2-7.2M171.7 7.3l7.2-7.2M167.7 7.3l7.2-7.2M163.6 7.3l7.2-7.2M159.7 7.3l7.2-7.2M155.7 7.3l7.2-7.2M151.6 7.3l7.2-7.2M147.5 7.3l7.2-7.2M143.7 7.3l7.2-7.2M139.6 7.3l7.2-7.2M135.5 7.3l7.2-7.2M131.7 7.3l7.2-7.2M127.6 7.3l7.2-7.2M123.5 7.3l7.2-7.2M119.4 7.3l7.2-7.2M115.6 7.3l7.2-7.2M111.5 7.3l7.2-7.2M107.4 7.3l7.2-7.2M103.6 7.3l7.2-7.2M99.5 7.3l7.2-7.2M95.4 7.3l7.2-7.2M91.6 7.3L98.8.1M87.5 7.3L94.7.1M83.4 7.3L90.6.1M79.3 7.3L86.5.1M75.5 7.3L82.7.1M71.4 7.3L78.6.1M67.3 7.3L74.5.1M63.5 7.3L70.7.1M59.4 7.3L66.6.1M55.3 7.3L62.5.1M51.5 7.3L58.7.1M47.4 7.3L54.6.1M43.3 7.3L50.5.1M39.3 7.3L46.5.1M35.4 7.3L42.6.1M31.3 7.3L38.5.1M27.3 7.3L34.5.1M23.4 7.3L30.6.1M19.3 7.3L26.5.1M15.3 7.3L22.5.1M11.2 7.3L18.4.1M10 4.7L14.5.1M10 .9l.5-.8"/><path class="cls-26" d="M9.7 7.3h320.9M9.7.1h320.9M330.6 7.3V.1M9.7.1h320.9M195.3 7.3h135.3M9.7 7.3h181.2M9.7 7.3V.1"/></g><g id="Mbel"><path class="cls-2" d="M274.9 129.5h22.8v51.1h-22.8zM265 131v12.8M273.5 131H265M265 143.8h8.5M265 148.7v12.8M273.5 148.7H265M265 161.5h8.5M265 166.5v12.7M273.5 166.5H265M265 179.2h8.5M307.5 131v12.8M299 131h8.5M307.5 143.8H299M307.5 148.7v12.8M299 148.7h8.5M307.5 161.5H299M307.5 166.5v12.7M299 166.5h8.5M307.5 179.2H299M117.7 183.5H146v14.2h-28.3zM158.5 228.6v-18.7-.2-.2-.1l-.1-.1-.1-.1h-.1-.2H132.9h-.2-.2-.1l-.1.1-.1.1v19.2h26.6M163.1 232.3v-22.4-.2-.2-.1l-.1-.1-.1-.1h-.1-.2-3-.2-.2-.1l-.1.1-.1.1v23.2c0 .1.1.2.2.3 0 0 .2.1.3.2H162.8c.1 0 .2-.1.3-.2 0 0 .1-.2.2-.3v-.3M131.9 228.6v4.2l-.1.1-.1.1h-.1-.2H106c-.1 0-.2-.1-.3-.2 0 0-.1-.2-.2-.3v-4M105.3 226.5h53.2"/><path class="cls-2" d="M105.2 228.6v-18.7-.2-.2-.1l.1-.1.1-.1h25.9l.1.1.1.1v19.2h-26.6"/><path class="cls-2" d="M100.7 232.3v-22.4-.2-.2-.1l.1-.1.1-.1H104.7l.1.1.1.1v23.2c0 .1-.1.2-.2.3 0 0-.2.1-.3.2H101c-.1 0-.2-.1-.3-.2s-.1-.2-.2-.3v-.3M131.9 228.6v4.2l.1.1.1.1h25.7c.1 0 .2-.1.3-.2s.1-.2.2-.3v-4M106.8 190.5c-3.1-2.5-6.1-5.2-8.8-8.1-.7-.7-.8-1.7-.4-2.6 1.3-2.9 3.4-5.4 6.1-7.3.8-.5 1.8-.6 2.6 0 3.4 2.2 6.6 4.6 9.6 7.2-.3.7-.7 1.3-1.1 1.9-2 2.6-4.1 5.1-6.3 7.5-.5.5-1 1-1.5 1.4h-.1"/><path class="cls-2" d="M105.7 190.2h-1c-1.5-.3-2.9-1-4-2.1-1.5-1.4-2.9-2.9-4.2-4.5-.9-1.2-1.6-2.4-2.2-3.8-.3-.8-.3-1.7 0-2.4 1.5-3 3.7-5.7 6.4-7.7.7-.5 1.5-.7 2.4-.5 1.4.3 2.8.8 4.1 1.5 1.8 1 3.5 2.1 5.2 3.3 1.2.9 2.1 2.2 2.7 3.6.1.3.2.7.2 1M238 8.8h45.4v56.6H238zM196.7 8.8h15.6v56.6h-15.6zM161.2 8.5h28.3v56.9h-28.3zM79.1 8.8h56.6v15.6H79.1zM124.7 64H136v7.7h-11.3zM107.7 71.7h45.4v19.9h-45.4zM115.8 107.7h45.4v10.8h-45.4z"/></g><g id="Text"><path d="M250.9 34.3v.6h-3.8l3-4.8h-2.7v-.6h3.8l-3 4.8h2.7zM252.7 30.2c0 .2-.2.4-.4.4s-.4-.2-.4-.4.2-.4.4-.4.4.2.4.4zm0 4.7h-.6v-3.7h.6v3.7zM254.6 31.2v.5c.3-.4.6-.6 1-.6s.8.2 1 .7c.3-.5.6-.7 1.2-.7s.7.1.9.4c.2.2.2.4.2 1v2.4h-.6v-2.2c0-.4 0-.6-.1-.7-.1-.2-.4-.3-.6-.3-.5 0-.8.4-.8 1v2.2h-.6v-2.2c0-.4 0-.5-.1-.7-.1-.2-.3-.3-.6-.3-.5 0-.9.4-.9 1v2.2h-.6v-3.7h.6zM260.9 31.2v.5c.3-.4.6-.6 1-.6s.8.2 1 .7c.3-.5.6-.7 1.2-.7s.7.1.9.4c.2.2.2.4.2 1v2.4h-.6v-2.2c0-.4 0-.6-.1-.7-.1-.2-.4-.3-.6-.3-.5 0-.8.4-.8 1v2.2h-.6v-2.2c0-.4 0-.5-.1-.7-.1-.2-.3-.3-.6-.3-.5 0-.9.4-.9 1v2.2h-.6v-3.7h.6zM267 33.3c0 .3 0 .5.2.7.2.3.6.5 1 .5s.9-.2 1.1-.6l.5.2c-.3.6-.9 1-1.6 1-1.1 0-1.9-.8-1.9-1.9s.8-1.9 1.9-1.9 1.9.8 1.9 1.9v.2H267zm2.4-.4c0-.3 0-.4-.2-.6-.2-.3-.6-.5-1-.5s-.8.2-1 .5c-.1.2-.2.3-.2.6h2.4zM271.8 31.2v.6c.1-.3.2-.4.3-.5.2-.1.4-.2.7-.2h.1v.6h-.2c-.3 0-.6.2-.8.4-.2.2-.2.4-.2.9v1.9h-.6v-3.7h.6zM247.9 40.3v-.6l1.8-1.2v5.4h-.6v-4.4l-1.2.8zM251.1 42.7v-.5l2.8-3.7v3.6h.6v.6h-.6v1.2h-.6v-1.2h-2.1zm2.1-2.6l-1.5 2h1.5v-2zM256.3 43.6c0 .2-.2.4-.4.4s-.4-.2-.4-.4.2-.4.4-.4.4.2.4.4zM260.6 42.3c0 .6-.1 1-.4 1.2-.3.3-.7.4-1.2.4s-1-.2-1.2-.5c-.3-.3-.4-.6-.4-1.4v-1.8c0-.7 0-1 .3-1.3.3-.3.7-.5 1.2-.5s.9.1 1.2.4c.3.3.4.6.4 1.2v2.1zm-2.5-.1c0 .6 0 .7.2.9.2.2.5.3.8.3s.6-.1.8-.4c.1-.2.2-.4.2-.8v-2c0-.4 0-.6-.3-.8-.2-.2-.4-.2-.7-.2s-.6.1-.8.4c-.1.2-.2.4-.2.8v1.8zM263.9 40.2v.5c.3-.4.6-.6 1-.6s.8.2 1 .7c.3-.5.6-.7 1.2-.7s.7.1.9.4c.2.2.2.4.2 1v2.4h-.6v-2.2c0-.4 0-.6-.1-.7-.1-.2-.4-.3-.6-.3-.5 0-.8.4-.8 1v2.2h-.6v-2.2c0-.4 0-.5-.1-.7-.1-.2-.3-.3-.6-.3-.5 0-.9.4-.9 1v2.2h-.6v-3.7h.6zM271.5 41.4v.4h-2l1.2-1.6c.3-.5.4-.6.4-.8 0-.3-.2-.4-.5-.4s-.5.2-.5.6h-.4c0-.6.4-1 1-1s1 .3 1 .8-.1.5-.4.9l-.8 1.1h1.1z"/><g><path d="M120.5 34.3v.6h-3.8l3-4.8H117v-.6h3.8l-3 4.8h2.7zM122.4 30.2c0 .2-.2.4-.4.4s-.4-.2-.4-.4.2-.4.4-.4.4.2.4.4zm0 4.7h-.6v-3.7h.6v3.7zM124.3 31.2v.5c.3-.4.6-.6 1-.6s.8.2 1 .7c.3-.5.6-.7 1.2-.7s.7.1.9.4c.2.2.2.4.2 1v2.4h-.6v-2.2c0-.4 0-.6-.1-.7-.1-.2-.4-.3-.6-.3-.5 0-.8.4-.8 1v2.2h-.6v-2.2c0-.4 0-.5-.1-.7-.1-.2-.3-.3-.6-.3-.5 0-.9.4-.9 1v2.2h-.6v-3.7h.6zM130.6 31.2v.5c.3-.4.6-.6 1-.6s.8.2 1 .7c.3-.5.6-.7 1.2-.7s.7.1.9.4c.2.2.2.4.2 1v2.4h-.6v-2.2c0-.4 0-.6-.1-.7-.1-.2-.4-.3-.6-.3-.5 0-.8.4-.8 1v2.2h-.6v-2.2c0-.4 0-.5-.1-.7-.1-.2-.3-.3-.6-.3-.5 0-.9.4-.9 1v2.2h-.6v-3.7h.6zM136.7 33.3c0 .3 0 .5.2.7.2.3.6.5 1 .5s.9-.2 1.1-.6l.5.2c-.3.6-.9 1-1.6 1-1.1 0-1.9-.8-1.9-1.9s.8-1.9 1.9-1.9 1.9.8 1.9 1.9v.2h-3.1zm2.4-.4c0-.3 0-.4-.2-.6-.2-.3-.6-.5-1-.5s-.8.2-1 .5c-.1.2-.2.3-.2.6h2.4zM141.4 31.2v.6c.1-.3.2-.4.3-.5.2-.1.4-.2.7-.2h.1v.6h-.2c-.3 0-.6.2-.8.4-.2.2-.2.4-.2.9v1.9h-.6v-3.7h.6zM117.5 40.3v-.6l1.8-1.2v5.4h-.6v-4.4l-1.2.8zM123.7 43.3v.6h-3l1.9-2.7c.5-.8.7-1 .7-1.3 0-.5-.4-.8-.9-.8s-.7.2-.8.4v.6h-.6c0-1 .6-1.6 1.5-1.6s1.5.5 1.5 1.3-.2.8-.6 1.5l-1.4 2h1.9zM125.8 43.6c0 .2-.2.4-.4.4s-.4-.2-.4-.4.2-.4.4-.4.4.2.4.4zM129.5 39.2h-1.7v1.4c.3-.1.5-.2.8-.2.9 0 1.6.7 1.6 1.7s-.8 1.8-1.8 1.8-1.3-.4-1.6-1.1l.6-.2c.1.2.2.3.3.4.2.2.5.3.8.3.6 0 1.1-.5 1.1-1.2s-.5-1.1-1.2-1.1-.8.2-1.2.5v-3h2.3v.6zM133.5 40.2v.5c.3-.4.6-.6 1-.6s.8.2 1 .7c.3-.5.6-.7 1.2-.7s.7.1.9.4c.2.2.2.4.2 1v2.4h-.6v-2.2c0-.4 0-.6-.1-.7-.1-.2-.4-.3-.6-.3-.5 0-.8.4-.8 1v2.2h-.6v-2.2c0-.4 0-.5-.1-.7-.1-.2-.3-.3-.6-.3-.5 0-.9.4-.9 1v2.2h-.6v-3.7h.6zM141.1 41.4v.4h-2l1.2-1.6c.3-.5.4-.6.4-.8 0-.3-.2-.4-.5-.4s-.5.2-.5.6h-.4c0-.6.4-1 1-1s1 .3 1 .8-.1.5-.4.9l-.8 1.1h1.1z"/></g><g><path d="M133.2 142.2h-.7v-5.3h.7v2.5l2.1-2.5h.8l-2.2 2.6 2.2 2.7h-.9l-2-2.5v2.5zM140.2 140.4c0 1.1-.8 1.9-1.9 1.9s-1.9-.8-1.9-1.9.8-1.9 1.9-1.9 1.9.8 1.9 1.9zm-3.1 0c0 .8.5 1.4 1.3 1.4s1.2-.6 1.2-1.4-.5-1.4-1.2-1.4-1.3.6-1.3 1.4zM144.2 141.8c-.4.4-.8.5-1.4.5-1.1 0-1.8-.8-1.8-1.9s.8-1.9 1.8-1.9 1 .2 1.3.6l-.4.4c-.3-.3-.6-.4-.9-.4-.7 0-1.2.6-1.2 1.4s.5 1.4 1.2 1.4.6-.1.9-.4l.4.4zM145.8 139c.3-.4.7-.6 1.1-.6s.7.1.9.3c.2.2.3.5.3 1v2.5h-.6v-2.4c0-.5-.2-.8-.7-.8s-.5.1-.7.3c-.2.2-.2.4-.2.7v2.2h-.6v-5.3h.6v2.2zM149.7 140.6c0 .3 0 .5.2.7.2.3.6.5 1 .5s.9-.2 1.1-.6l.5.2c-.3.6-.9 1-1.6 1-1.1 0-1.9-.8-1.9-1.9s.8-1.9 1.9-1.9 1.9.8 1.9 1.9v.2h-3.1zm2.4-.4c0-.3 0-.4-.2-.6-.2-.3-.6-.5-1-.5s-.8.2-1 .5c-.1.2-.2.3-.2.6h2.4zM154.5 138.5v.5c.3-.4.6-.6 1.1-.6s.6.1.9.3c.2.2.3.5.3 1v2.5h-.6v-2.4c0-.3 0-.5-.1-.6-.1-.2-.3-.2-.6-.2s-.5.1-.7.3c-.2.2-.2.4-.2.7v2.2h-.6v-3.7h.6zM158 143.5h-.4l.7-2.1.6.2-.8 1.9zM163.2 139.2h2.1v.6h-2.1v1.8h2.1v.6h-2.8v-5.3h2.8v.6h-2.1v1.8zM168.2 139.5c0-.4-.3-.6-.7-.6s-.7.2-.7.5.2.4.8.6c.5.1.7.2.9.4.2.2.3.4.3.7 0 .6-.5 1.1-1.3 1.1s-1.3-.4-1.4-1.1h.6c0 .4.3.6.8.6s.7-.2.7-.5-.2-.5-.8-.6c-.8-.2-1.2-.6-1.2-1.1s.5-1.1 1.3-1.1 1.3.4 1.3 1.1h-.6zM171.8 139.5c0-.4-.3-.6-.7-.6s-.7.2-.7.5.2.4.8.6c.5.1.7.2.9.4.2.2.3.4.3.7 0 .6-.5 1.1-1.3 1.1s-1.3-.4-1.4-1.1h.6c0 .4.3.6.8.6s.7-.2.7-.5-.2-.5-.8-.6c-.8-.2-1.2-.6-1.2-1.1s.5-1.1 1.3-1.1 1.3.4 1.3 1.1h-.6zM173.9 140.6c0 .3 0 .5.2.7.2.3.6.5 1 .5s.9-.2 1.1-.6l.5.2c-.3.6-.9 1-1.6 1-1.1 0-1.9-.8-1.9-1.9s.8-1.9 1.9-1.9 1.9.8 1.9 1.9v.2h-3.1zm2.4-.4c0-.3 0-.4-.2-.6-.2-.3-.6-.5-1-.5s-.8.2-1 .5c-.1.2-.2.3-.2.6h2.4zM178.6 138.5v.5c.3-.4.6-.6 1.1-.6s.6.1.9.3c.2.2.3.5.3 1v2.5h-.6v-2.4c0-.3 0-.5-.1-.6-.1-.2-.3-.2-.6-.2s-.5.1-.7.3c-.2.2-.2.4-.2.7v2.2h-.6v-3.7h.6zM182.2 143.5h-.4l.7-2.1.6.2-.8 1.9zM138 145.9h.7l-1.6 5.3h-.6l-1.2-4.2-1.2 4.2h-.6l-1.6-5.3h.7l1.2 4.1 1.2-4.1h.6l1.1 4.1 1.2-4.1zM142.8 149.4c0 1.1-.8 1.9-1.9 1.9s-1.9-.8-1.9-1.9.8-1.9 1.9-1.9 1.9.8 1.9 1.9zm-3.1 0c0 .8.5 1.4 1.3 1.4s1.2-.6 1.2-1.4-.5-1.4-1.2-1.4-1.3.6-1.3 1.4zM144.5 148c.3-.4.7-.6 1.1-.6s.7.1.9.3c.2.2.3.5.3 1v2.5h-.6v-2.4c0-.5-.2-.8-.7-.8s-.5.1-.7.3c-.2.2-.2.4-.2.7v2.2h-.6v-5.3h.6v2.2zM148.7 147.5v.5c.3-.4.6-.6 1.1-.6s.6.1.9.3c.2.2.3.5.3 1v2.5h-.6v-2.4c0-.3 0-.5-.1-.6-.1-.2-.3-.2-.6-.2s-.5.1-.7.3c-.2.2-.2.4-.2.7v2.2h-.6v-3.7h.6zM152.7 149.6c0 .3 0 .5.2.7.2.3.6.5 1 .5s.9-.2 1.1-.6l.5.2c-.3.6-.9 1-1.6 1-1.1 0-1.9-.8-1.9-1.9s.8-1.9 1.9-1.9 1.9.8 1.9 1.9v.2h-3.1zm2.4-.4c0-.3 0-.4-.2-.6-.2-.3-.6-.5-1-.5s-.8.2-1 .5c-.1.2-.2.3-.2.6h2.4zM157.5 147.5v.5c.3-.4.6-.6 1.1-.6s.6.1.9.3c.2.2.3.5.3 1v2.5h-.6v-2.4c0-.3 0-.5-.1-.6-.1-.2-.3-.2-.6-.2s-.5.1-.7.3c-.2.2-.2.4-.2.7v2.2h-.6v-3.7h.6zM132.4 155.5v-.6h3l-1.6 2c.9 0 1.6.7 1.6 1.6s-.8 1.7-1.8 1.7-1.4-.5-1.6-1.3h.6c.1.4.5.7 1 .7s1.2-.5 1.2-1.1-.5-1.1-1.2-1.1-.4 0-.6.2l-.3-.2 1.5-1.9h-1.9zM139.3 157.7c.3.3.4.6.4 1 0 .9-.7 1.6-1.7 1.6s-1.6-.6-1.6-1.6.1-.8.4-1.1c.2-.2.3-.3.6-.4-.3 0-.4-.2-.5-.4-.2-.2-.3-.5-.3-.8 0-.8.6-1.3 1.5-1.3s1.4.6 1.4 1.3-.1.6-.3.8c-.1.2-.3.2-.5.3.3 0 .4.2.6.3zm-2.3 1c0 .6.5 1 1 1s1-.5 1-1-.5-1-1-1-1 .5-1 1zm.2-2.5c0 .5.4.8.8.8s.9-.4.9-.8-.4-.8-.8-.8-.9.3-.9.8zM141.6 159.9c0 .2-.2.4-.4.4s-.4-.2-.4-.4.2-.4.4-.4.4.2.4.4zM142.6 156.6v-.6l1.8-1.2v5.4h-.6v-4.4l-1.2.8zM149.5 156.5v.5c.3-.4.6-.6 1-.6s.8.2 1 .7c.3-.5.6-.7 1.2-.7s.7.1.9.4c.2.2.2.4.2 1v2.4h-.6V158c0-.4 0-.6-.1-.7-.1-.2-.4-.3-.6-.3-.5 0-.8.4-.8 1v2.2h-.6V158c0-.4 0-.5-.1-.7-.1-.2-.3-.3-.6-.3-.5 0-.9.4-.9 1v2.2h-.6v-3.7h.6zM157.1 157.7v.4h-2l1.2-1.6c.3-.5.4-.6.4-.8 0-.3-.2-.4-.5-.4s-.5.2-.5.6h-.4c0-.6.4-1 1-1s1 .3 1 .8-.1.5-.4.9l-.8 1.1h1.1z"/></g><g><path d="M24.7 173.7H24v-4.8h-1.4v-.6H26v.6h-1.4v4.8zM26.9 172c0 .3 0 .5.2.7.2.3.6.5 1 .5s.9-.2 1.1-.6l.5.2c-.3.6-.9 1-1.6 1-1.1 0-1.9-.8-1.9-1.9s.8-1.9 1.9-1.9 1.9.8 1.9 1.9v.2h-3.1zm2.4-.4c0-.3 0-.4-.2-.6-.2-.3-.6-.5-1-.5s-.8.2-1 .5c-.1.2-.2.3-.2.6h2.4zM31.6 170v.6c.1-.3.2-.4.3-.5.2-.1.4-.2.7-.2h.1v.6h-.2c-.3 0-.6.2-.8.4-.2.2-.2.4-.2.9v1.9h-.6V170h.6zM34.3 170v.6c.1-.3.2-.4.3-.5.2-.1.4-.2.7-.2h.1v.6h-.2c-.3 0-.6.2-.8.4-.2.2-.2.4-.2.9v1.9h-.6V170h.6zM39.2 170h.6v3.7h-.6v-.7c-.4.6-.8.8-1.3.8-1 0-1.7-.8-1.7-1.9s.7-1.9 1.8-1.9 1 .2 1.3.7v-.6zm-2.1.9c-.2.3-.3.6-.3 1 0 .8.5 1.4 1.2 1.4s1.3-.6 1.3-1.4-.5-1.4-1.2-1.4-.7.1-.9.4zM42.9 171c0-.4-.3-.6-.7-.6s-.7.2-.7.5.2.4.8.6c.5.1.7.2.9.4.2.2.3.4.3.7 0 .6-.5 1.1-1.3 1.1s-1.3-.4-1.4-1.1h.6c0 .4.3.6.8.6s.7-.2.7-.5-.2-.5-.8-.6c-.8-.2-1.2-.6-1.2-1.1s.5-1.1 1.3-1.1 1.3.4 1.3 1.1h-.6zM46.5 171c0-.4-.3-.6-.7-.6s-.7.2-.7.5.2.4.8.6c.5.1.7.2.9.4.2.2.3.4.3.7 0 .6-.5 1.1-1.3 1.1s-1.3-.4-1.4-1.1h.6c0 .4.3.6.8.6s.7-.2.7-.5-.2-.5-.8-.6c-.8-.2-1.2-.6-1.2-1.1s.5-1.1 1.3-1.1 1.3.4 1.3 1.1h-.6zM48.6 172c0 .3 0 .5.2.7.2.3.6.5 1 .5s.9-.2 1.1-.6l.5.2c-.3.6-.9 1-1.6 1-1.1 0-1.9-.8-1.9-1.9s.8-1.9 1.9-1.9 1.9.8 1.9 1.9v.2h-3.1zm2.4-.4c0-.3 0-.4-.2-.6-.2-.3-.6-.5-1-.5s-.8.2-1 .5c-.1.2-.2.3-.2.6H51zM25.9 182.1v.6h-3l1.9-2.7c.5-.8.7-1 .7-1.3 0-.5-.4-.8-.9-.8s-.7.2-.8.4v.6h-.6c0-1 .6-1.6 1.5-1.6s1.5.5 1.5 1.3-.2.8-.6 1.5l-1.4 2h1.9zM30.3 181.1c0 .6-.1 1-.4 1.2-.3.3-.7.4-1.2.4s-1-.2-1.2-.5c-.3-.3-.4-.6-.4-1.4V179c0-.7 0-1 .3-1.3.3-.3.7-.5 1.2-.5s.9.1 1.2.4c.3.3.4.6.4 1.2v2.1zm-2.5-.1c0 .6 0 .7.2.9.2.2.5.3.8.3s.6-.1.8-.4c.1-.2.2-.4.2-.8v-2c0-.4 0-.6-.3-.8-.2-.2-.4-.2-.7-.2s-.6.1-.8.4c-.1.2-.2.4-.2.8v1.8zM32.2 182.3c0 .2-.2.4-.4.4s-.4-.2-.4-.4.2-.4.4-.4.4.2.4.4zM36.5 181.1c0 .6-.1 1-.4 1.2-.3.3-.7.4-1.2.4s-1-.2-1.2-.5c-.3-.3-.4-.6-.4-1.4V179c0-.7 0-1 .3-1.3.3-.3.7-.5 1.2-.5s.9.1 1.2.4c.3.3.4.6.4 1.2v2.1zM34 181c0 .6 0 .7.2.9.2.2.5.3.8.3s.6-.1.8-.4c.1-.2.2-.4.2-.8v-2c0-.4 0-.6-.3-.8-.2-.2-.4-.2-.7-.2s-.6.1-.8.4c-.1.2-.2.4-.2.8v1.8zM40.7 179v.5c.3-.4.6-.6 1-.6s.8.2 1 .7c.3-.5.6-.7 1.2-.7s.7.1.9.4c.2.2.2.4.2 1v2.4h-.6v-2.2c0-.4 0-.6-.1-.7-.1-.2-.4-.3-.6-.3-.5 0-.8.4-.8 1v2.2h-.6v-2.2c0-.4 0-.5-.1-.7-.1-.2-.3-.3-.6-.3-.5 0-.9.4-.9 1v2.2h-.6V179h.6zM48.3 180.2v.4h-2l1.2-1.6c.3-.5.4-.6.4-.8 0-.3-.2-.4-.5-.4s-.5.2-.5.6h-.4c0-.6.4-1 1-1s1 .3 1 .8-.1.5-.4.9l-.8 1.1h1.1z"/></g><g><path d="M204 195.9c1.1 0 1.7.5 1.7 1.4s-.1.6-.3.9c-.1.2-.3.2-.5.3.3 0 .4.1.6.2.3.2.4.6.4 1s-.2.9-.6 1.2c-.3.2-.7.3-1.3.3h-1.5v-5.3h1.5zm-.8 2.4h.7c.4 0 .7 0 .9-.2.2-.2.3-.4.3-.7s-.2-.6-.4-.8c-.2 0-.4-.1-.9-.1h-.6v1.8zm0 2.4h.7c.6 0 .8 0 1-.2.3-.1.4-.4.4-.8 0-.6-.4-.9-1.2-.9h-.8v1.8zM209.9 197.5h.6v3.7h-.6v-.7c-.4.6-.8.8-1.3.8-1 0-1.7-.8-1.7-1.9s.7-1.9 1.8-1.9 1 .2 1.3.7v-.6zm-2.1.9c-.2.3-.3.6-.3 1 0 .8.5 1.4 1.2 1.4s1.3-.6 1.3-1.4-.5-1.4-1.2-1.4-.7.1-.9.4zM214.7 195.9h.6v5.3h-.6v-.6c-.4.5-.8.7-1.3.7-1 0-1.7-.8-1.7-1.9s.7-2 1.7-2 1 .2 1.3.6v-2.2zm-2.4 3.5c0 .8.5 1.4 1.2 1.4s1.2-.6 1.2-1.4-.5-1.4-1.2-1.4-1.2.6-1.2 1.4zM202.1 209v-.5l2.8-3.7v3.6h.6v.6h-.6v1.2h-.6V209h-2.1zm2.1-2.6l-1.5 2h1.5v-2zM207.3 209.9c0 .2-.2.4-.4.4s-.4-.2-.4-.4.2-.4.4-.4.4.2.4.4zM211.4 209.6v.6h-3l1.9-2.7c.5-.8.7-1 .7-1.3 0-.5-.4-.8-.9-.8s-.7.2-.8.4v.6h-.6c0-1 .6-1.6 1.5-1.6s1.5.5 1.5 1.3-.2.8-.6 1.5l-1.4 2h1.9zM215 206.5v.5c.3-.4.6-.6 1-.6s.8.2 1 .7c.3-.5.6-.7 1.2-.7s.7.1.9.4c.2.2.2.4.2 1v2.4h-.6V208c0-.4 0-.6-.1-.7-.1-.2-.4-.3-.6-.3-.5 0-.8.4-.8 1v2.2h-.6V208c0-.4 0-.5-.1-.7-.1-.2-.3-.3-.6-.3-.5 0-.9.4-.9 1v2.2h-.6v-3.7h.6zM222.6 207.7v.4h-2l1.2-1.6c.3-.5.4-.6.4-.8 0-.3-.2-.4-.5-.4s-.5.2-.5.6h-.4c0-.6.4-1 1-1s1 .3 1 .8-.1.5-.4.9l-.8 1.1h1.1z"/></g><g><path d="M128.4 281.3v.6h-2.5v-5.3h.7v4.7h1.9zM130.1 277.2c0 .2-.2.4-.4.4s-.4-.2-.4-.4.2-.4.4-.4.4.2.4.4zm0 4.7h-.6v-3.7h.6v3.7zM132 281.9h-.6v-3.2h-.5v-.5h.5v-.5c0-.7.4-1.2 1-1.2h.2v.5c-.4 0-.6.2-.6.6v.5h.6v.5h-.6v3.2zM134.4 281.2c0 .2 0 .2.3.2h.3v.5h-.6c-.4 0-.6-.2-.6-.6v-2.6h-.5v-.5h.5V277h.6v1.2h.6v.5h-.6v2.4z"/></g></g></svg>