<svg xmlns="http://www.w3.org/2000/svg" viewBox="0 0 439.6 390.9"><defs><style>.cls-1,.cls-10,.cls-11,.cls-12,.cls-2,.cls-3,.cls-4,.cls-5,.cls-6,.cls-7,.cls-8,.cls-9{stroke-width:.1px}.cls-1,.cls-10,.cls-11,.cls-12,.cls-13,.cls-2,.cls-3,.cls-4,.cls-5,.cls-6,.cls-7,.cls-8,.cls-9{fill:none;stroke-linecap:round;stroke-linejoin:round}.cls-1,.cls-10,.cls-12,.cls-13,.cls-3,.cls-5{stroke:#194164}.cls-1,.cls-5{stroke-dasharray:0 0 0 0 2.9 1.4 .2 1.4}.cls-2{stroke:#646464}.cls-3{stroke-dashoffset:1px}.cls-10,.cls-3,.cls-4,.cls-6,.cls-7,.cls-8,.cls-9{stroke-dasharray:0 0 1.4 1.4}.cls-14,.cls-15{fill:#fff}.cls-11,.cls-4,.cls-6,.cls-7,.cls-8,.cls-9{stroke:#969696}.cls-5{stroke-dashoffset:1.7px}.cls-6{stroke-dashoffset:2.8px}.cls-7{stroke-dashoffset:2.7px}.cls-8{stroke-dashoffset:2.5px}.cls-9{stroke-dashoffset:.7px}.cls-15,.cls-16{fill-rule:evenodd}.cls-10{stroke-dashoffset:.2px}.cls-13{stroke-width:.3px}</style></defs><g id="Plan"><path class="cls-11" d="M46.4 79.8H50v59.3h-3.6zM375.4 194h3.6v59.3h-3.6z"/><path class="cls-15" d="M4.9 158.5l37.7 6.7h4.3V139h-.5V79.8h.5V53.6h-4.3L4.9 60.3v98.2"/><path class="cls-11" d="M45 165.2v-9.1M45 145v-10.5M45 123.7v-10.6M45 102.1V91.5M45 80.7V70.2M45 59.1v-5.5M37.5 164.2v-8.1M37.5 145v-10.5M37.5 123.7v-10.6M37.5 102.1V91.5M37.5 80.7V70.2M37.5 59.1v-4.5M30.3 163v-6.9M30.3 145v-10.5M30.3 123.7v-10.6M30.3 102.1V91.5M30.3 80.7V70.2M30.3 59.1v-3.3M23.1 161.6v-5.5M23.1 145v-10.5M23.1 123.7v-10.6M23.1 102.1V91.5M23.1 80.7V70.2M23.1 59.1v-1.9M15.9 160.4v-4.3M15.9 145v-10.5M15.9 123.7v-10.6M15.9 102.1V91.5M15.9 80.7V70.2M15.9 59.1v-.7M8.7 159.2v-3.1M8.7 145v-10.5M8.7 123.7v-10.6M8.7 102.1V91.5M8.7 80.7V70.2M46.6 145H45M39.4 145h-1.9M32 145h-1.7M24.8 145h-1.7M17.6 145h-1.7M10.4 145H8.7M46.6 123.7H45M39.4 123.7h-1.9M32 123.7h-1.7M24.8 123.7h-1.7M17.6 123.7h-1.7M10.4 123.7H8.7M46.6 102.1H45M39.4 102.1h-1.9M32 102.1h-1.7M24.8 102.1h-1.7M17.6 102.1h-1.7M10.4 102.1H8.7M46.6 80.7H45M39.4 80.7h-1.9M32 80.7h-1.7M24.8 80.7h-1.7M17.6 80.7h-1.7M10.4 80.7H8.7M46.6 59.1H45M39.4 59.1h-1.9M32 59.1h-1.7M24.8 59.1h-1.7M17.6 59.1h-1.7M45 156.1v-10.8M45 134.5v-10.6M45 113.1v-10.8M45 91.5V81M45 70.2V59.4M37.5 156.1v-10.8M37.5 134.5v-10.6M37.5 113.1v-10.8M37.5 91.5V81M37.5 70.2V59.4M30.3 156.1v-10.8M30.3 134.5v-10.6M30.3 113.1v-10.8M30.3 91.5V81M30.3 70.2V59.4M23.1 156.1v-10.8M23.1 134.5v-10.6M23.1 113.1v-10.8M23.1 91.5V81M23.1 70.2V59.4M15.9 156.1v-10.8M15.9 134.5v-10.6M15.9 113.1v-10.8M15.9 91.5V81M15.9 70.2V59.4M8.7 156.1v-10.8M8.7 134.5v-10.6M8.7 113.1v-10.8M8.7 91.5V81M8.7 70.2V59.6M46.6 145.3H45M39.4 145.3h-1.9M32 145.3h-1.7M24.8 145.3h-1.7M17.6 145.3h-1.7M10.4 145.3H8.7M46.6 123.9H45M39.4 123.9h-1.9M32 123.9h-1.7M24.8 123.9h-1.7M17.6 123.9h-1.7M10.4 123.9H8.7M46.6 102.3H45M39.4 102.3h-1.9M32 102.3h-1.7M24.8 102.3h-1.7M17.6 102.3h-1.7M10.4 102.3H8.7M46.6 81H45M39.4 81h-1.9M32 81h-1.7M24.8 81h-1.7M17.6 81h-1.7M10.4 81H8.7M46.6 59.4H45M39.4 59.4h-1.9M32 59.4h-1.7M24.8 59.4h-1.7M17.6 59.4h-1.7M10.4 59.4h-.5M41.1 165v-8.9M41.1 145v-10.5M41.1 123.7v-10.6M41.1 102.1V91.5M41.1 80.7V70.2M41.1 59.1v-5.3M33.7 163.5v-7.4M33.7 145v-10.5M33.7 123.7v-10.6M33.7 102.1V91.5M33.7 80.7V70.2M33.7 59.1v-3.8M26.5 162.3v-6.2M26.5 145v-10.5M26.5 123.7v-10.6M26.5 102.1V91.5M26.5 80.7V70.2M26.5 59.1v-2.6M19.3 161.1v-5M19.3 145v-10.5M19.3 123.7v-10.6M19.3 102.1V91.5M19.3 80.7V70.2M19.3 59.1v-1.4M12.1 159.7v-3.6M12.1 145v-10.5M12.1 123.7v-10.6M12.1 102.1V91.5M12.1 80.7V70.2M47.1 145h-.5M41.1 145h-1.7M33.7 145H32M26.5 145h-1.7M19.3 145h-1.7M12.1 145h-1.7M41.1 123.7h-1.7M33.7 123.7H32M26.5 123.7h-1.7M19.3 123.7h-1.7M12.1 123.7h-1.7M41.1 102.1h-1.7M33.7 102.1H32M26.5 102.1h-1.7M19.3 102.1h-1.7M12.1 102.1h-1.7M41.1 80.7h-1.7M33.7 80.7H32M26.5 80.7h-1.7M19.3 80.7h-1.7M12.1 80.7h-1.7M47.1 59.1h-.5M41.1 59.1h-1.7M33.7 59.1H32M26.5 59.1h-1.7M19.3 59.1h-1.7M12.1 59.1h-.7M47.1 145.3h-.5M41.1 145.3h-1.7M33.7 145.3H32M26.5 145.3h-1.7M19.3 145.3h-1.7M12.1 145.3h-1.7M41.1 123.9h-1.7M33.7 123.9H32M26.5 123.9h-1.7M19.3 123.9h-1.7M12.1 123.9h-1.7M41.1 102.3h-1.7M33.7 102.3H32M26.5 102.3h-1.7M19.3 102.3h-1.7M12.1 102.3h-1.7M41.1 81h-1.7M33.7 81H32M26.5 81h-1.7M19.3 81h-1.7M12.1 81h-1.7M47.1 59.4h-.5M41.1 59.4h-1.7M33.7 59.4H32M26.5 59.4h-1.7M19.3 59.4h-1.7M12.1 59.4h-1.7M41.1 156.1v-10.8M41.1 134.5v-10.6M41.1 113.1v-10.8M41.1 91.5V81M41.1 70.2V59.4M33.7 156.1v-10.8M33.7 134.5v-10.6M33.7 113.1v-10.8M33.7 91.5V81M33.7 70.2V59.4M26.5 156.1v-10.8M26.5 134.5v-10.6M26.5 113.1v-10.8M26.5 91.5V81M26.5 70.2V59.4M19.3 156.1v-10.8M19.3 134.5v-10.6M19.3 113.1v-10.8M19.3 91.5V81M19.3 70.2V59.4M12.1 156.1v-10.8M12.1 134.5v-10.6M12.1 113.1v-10.8M12.1 91.5V81M12.1 70.2V59.4M41.4 165v-8.9M41.4 155.8v-21.1M41.4 134.5v-21.4M41.4 112.9V91.8M41.4 91.5V70.2M41.4 69.9V53.8M33.9 163.8v-7.7M33.9 155.8v-21.1M33.9 134.5v-21.4M33.9 112.9V91.8M33.9 91.5V70.2M33.9 69.9V55M26.7 162.3v-6.2M26.7 155.8v-21.1M26.7 134.5v-21.4M26.7 112.9V91.8M26.7 91.5V70.2M26.7 69.9V56.5M19.5 161.1v-5M19.5 155.8v-21.1M19.5 134.5v-21.4M19.5 112.9V91.8M19.5 91.5V70.2M19.5 69.9V57.7M12.3 159.7v-3.6M12.3 155.8v-21.1M12.3 134.5v-21.4M12.3 112.9V91.8M12.3 91.5V70.2M12.3 69.9V59.1M44.7 156.1h-3.3M37.5 156.1h-3.6M30.1 156.1h-3.4M22.9 156.1h-3.4M15.7 156.1h-3.4M8.5 156.1H5.1M44.7 134.7h-3.3M37.5 134.7h-3.6M30.1 134.7h-3.4M22.9 134.7h-3.4M15.7 134.7h-3.4M8.5 134.7H5.1M44.7 113.1h-3.3M37.5 113.1h-3.6M30.1 113.1h-3.4M22.9 113.1h-3.4M15.7 113.1h-3.4M8.5 113.1H5.1M44.7 91.8h-3.3M37.5 91.8h-3.6M30.1 91.8h-3.4M22.9 91.8h-3.4M15.7 91.8h-3.4M8.5 91.8H5.1M44.7 70.2h-3.3M37.5 70.2h-3.6M30.1 70.2h-3.4M22.9 70.2h-3.4M15.7 70.2h-3.4M8.5 70.2H5.1M44.7 165.2v-9.1M44.7 155.8v-21.1M44.7 134.5v-21.4M44.7 112.9V91.8M44.7 91.5V70.2M44.7 69.9V53.6M37.5 164.2v-8.1M37.5 155.8v-21.1M37.5 134.5v-21.4M37.5 112.9V91.8M37.5 91.5V70.2M37.5 69.9V54.6M30.1 163v-6.9M30.1 155.8v-21.1M30.1 134.5v-21.4M30.1 112.9V91.8M30.1 91.5V70.2M30.1 69.9V55.8M22.9 161.6v-5.5M22.9 155.8v-21.1M22.9 134.5v-21.4M22.9 112.9V91.8M22.9 91.5V70.2M22.9 69.9V57.2M15.7 160.4v-4.3M15.7 155.8v-21.1M15.7 134.5v-21.4M15.7 112.9V91.8M15.7 91.5V70.2M15.7 69.9V58.4M8.5 159.2v-3.1M8.5 155.8v-21.1M8.5 134.5v-21.4M8.5 112.9V91.8M8.5 91.5V70.2M8.5 69.9V59.6M44.7 155.8h-3.3M37.5 155.8h-3.6M30.1 155.8h-3.4M22.9 155.8h-3.4M15.7 155.8h-3.4M8.5 155.8H5.1M44.7 134.5h-3.3M37.5 134.5h-3.6M30.1 134.5h-3.4M22.9 134.5h-3.4M15.7 134.5h-3.4M8.5 134.5H5.1M44.7 112.9h-3.3M37.5 112.9h-3.6M30.1 112.9h-3.4M22.9 112.9h-3.4M15.7 112.9h-3.4M8.5 112.9H5.1M44.7 91.5h-3.3M37.5 91.5h-3.6M30.1 91.5h-3.4M22.9 91.5h-3.4M15.7 91.5h-3.4M8.5 91.5H5.1M44.7 69.9h-3.3M37.5 69.9h-3.6M30.1 69.9h-3.4M22.9 69.9h-3.4M15.7 69.9h-3.4M8.5 69.9H5.1M4.9 158.5l37.7 6.7h4.3V139h-.5V79.8h.5V53.6h-4.3L4.9 60.3v98.2z"/><path class="cls-12" d="M145.8 225.4h17v.5h-17z"/><path class="cls-12" d="M145.8 210.1h.5v15.4h-.5zM162.1 210.1h.7v15.4h-.7zM145.8 209.6h17v.5h-17zM162.8 225.4h17v.5h-17z"/><path class="cls-12" d="M162.8 210.1h.5v15.4h-.5zM179.1 210.1h.7v15.4h-.7zM162.8 209.6h17v.5h-17zM179.8 225.4h16.8v.5h-16.8z"/><path class="cls-12" d="M179.8 210.1h.5v15.4h-.5zM196.2 210.1h.5v15.4h-.5zM179.8 209.6h16.8v.5h-16.8z"/><path class="cls-12" d="M196.6 225.4h17v.5h-17zM196.6 214.4h.7v11h-.7zM213.2 214.4h.5v11h-.5zM196.6 213.9h17v.5h-17zM145 209.6h.7v16.3h-.7zM213.7 213.9h.7v12h-.7z"/><path class="cls-12" d="M144.1 218h1v.7h-1zM214.4 218h1v.7h-1zM91.5 261.4h86.2v17H91.5zM92.2 263.6v-2.2M109 263.6v-2.2M126.1 263.6v-2.2M143.1 263.6v-2.2M160.2 263.6v-2.2"/><path class="cls-15" d="M159.2 273.7v-8.9c0-.3 0-.5-.2-.8-.1-.2-.2-.5-.4-.6-.2-.2-.4-.3-.6-.4-.2-.1-.5-.2-.8-.2H146c-.3 0-.5 0-.8.2-.2 0-.5.2-.6.4-.2.2-.3.4-.4.6-.1.2-.2.5-.2.8v9.3c0 .1 0 .3.1.4 0 .1.1.2.2.3 0 .1.2.2.2.3 0 0 .2.2.3.2.1 0 .2.1.3.2.1 0 .2 0 .4.1h12c.1 0 .3 0 .4-.1.1 0 .2-.1.3-.2.1 0 .2-.2.3-.2 0 0 .2-.2.2-.3 0-.1.1-.2.2-.3 0-.1 0-.2.1-.4v-.4"/><path class="cls-12" d="M159.2 273.7v-8.9c0-.3 0-.5-.2-.8-.1-.2-.2-.5-.4-.6-.2-.2-.4-.3-.6-.4-.2-.1-.5-.2-.8-.2H146c-.3 0-.5 0-.8.2-.2 0-.5.2-.6.4-.2.2-.3.4-.4.6-.1.2-.2.5-.2.8v9.3c0 .1 0 .3.1.4 0 .1.1.2.2.3 0 .1.2.2.2.3 0 0 .2.2.3.2.1 0 .2.1.3.2.1 0 .2 0 .4.1h12c.1 0 .3 0 .4-.1.1 0 .2-.1.3-.2.1 0 .2-.2.3-.2 0 0 .2-.2.2-.3 0-.1.1-.2.2-.3 0-.1 0-.2.1-.4v-.4"/><path class="cls-15" d="M152.7 272.4c0-.6-.5-1.1-1.1-1.1s-1.1.5-1.1 1.1.5 1.1 1.1 1.1 1.1-.5 1.1-1.1"/><path class="cls-12" d="M152.7 272.4c0-.6-.5-1.1-1.1-1.1s-1.1.5-1.1 1.1.5 1.1 1.1 1.1 1.1-.5 1.1-1.1"/><path class="cls-14" d="M109.8 262.6h15.8v14.6h-15.8z"/><path class="cls-12" d="M109.8 262.6h15.8v14.6h-15.8z"/><path class="cls-15" d="M116.5 267.4c0-1.6-1.3-2.9-2.9-2.9s-2.9 1.3-2.9 2.9 1.3 2.9 2.9 2.9 2.9-1.3 2.9-2.9"/><path class="cls-12" d="M116.5 267.4c0-1.6-1.3-2.9-2.9-2.9s-2.9 1.3-2.9 2.9 1.3 2.9 2.9 2.9 2.9-1.3 2.9-2.9"/><path class="cls-15" d="M114.8 274.2c0-1.2-1-2.2-2.2-2.2s-2.2 1-2.2 2.2 1 2.2 2.2 2.2 2.2-1 2.2-2.2"/><path class="cls-12" d="M114.8 274.2c0-1.2-1-2.2-2.2-2.2s-2.2 1-2.2 2.2 1 2.2 2.2 2.2 2.2-1 2.2-2.2"/><path class="cls-15" d="M123.4 267.4c0-1.2-1-2.2-2.2-2.2s-2.2 1-2.2 2.2 1 2.2 2.2 2.2 2.2-1 2.2-2.2"/><path class="cls-12" d="M123.4 267.4c0-1.2-1-2.2-2.2-2.2s-2.2 1-2.2 2.2 1 2.2 2.2 2.2 2.2-1 2.2-2.2"/><path class="cls-15" d="M123.7 273.9c0-1.6-1.2-2.9-2.8-2.9s-2.8 1.3-2.8 2.9 1.2 2.9 2.8 2.9 2.8-1.3 2.8-2.9"/><path class="cls-12" d="M123.7 273.9c0-1.6-1.2-2.9-2.8-2.9s-2.8 1.3-2.8 2.9 1.2 2.9 2.8 2.9 2.8-1.3 2.8-2.9"/><path class="cls-1" d="M177.7 268.6H91.5"/><path class="cls-12" d="M177.2 263.6v-2.2"/><path class="cls-14" d="M200.2 211.8h10.1v2.6h-10.1z"/><path class="cls-12" d="M200.2 211.8h10.1v2.6h-10.1z"/><path class="cls-14" d="M200 214.4h10.6v.2H200z"/><path class="cls-12" d="M200 214.4h10.6v.2H200z"/><path class="cls-9" d="M209.6 214.6v8.4"/><path class="cls-4" d="M209.6 223l-1.7-.2-1.7-.5-1.4-.7-1.2-1-1.2-1.4-.7-1.4-.5-1.5-.2-1.7"/><path class="cls-15" d="M235.3 306.9c1.3-.9 3-.9 4.3 0 1.9 1.5 2.9 3.8 2.9 6.2l-.3 9h-9.6l-.3-9c0-2.4 1-4.7 2.9-6.2"/><path class="cls-12" d="M235.3 306.9c1.3-.9 3-.9 4.3 0 1.9 1.5 2.9 3.8 2.9 6.2l-.3 9h-9.6l-.3-9c0-2.4 1-4.7 2.9-6.2"/><path class="cls-15" d="M237.4 317c-1 0-2-.3-2.8-1.1-.7-.7-1.2-1.7-1.2-2.7 0-2.1.9-4.1 2.5-5.4.9-.6 2-.6 2.9 0 1.6 1.3 2.5 3.3 2.5 5.4 0 1-.4 2-1.2 2.7-.7.7-1.7 1.1-2.8 1.1"/><path class="cls-12" d="M237.4 317c-1 0-2-.3-2.8-1.1-.7-.7-1.2-1.7-1.2-2.7 0-2.1.9-4.1 2.5-5.4.9-.6 2-.6 2.9 0 1.6 1.3 2.5 3.3 2.5 5.4 0 1-.4 2-1.2 2.7-.7.7-1.7 1.1-2.8 1.1"/><path class="cls-15" d="M184.7 321.7v-48.1h.1v-.1l.1-.1H205.8v.1l.1.1V321.9l-.1.1v.1H184.9l-.1-.1v-.1h-.1v-.2"/><path class="cls-12" d="M184.7 321.7v-48.1h.1v-.1l.1-.1H205.8v.1l.1.1V321.9l-.1.1v.1H184.9l-.1-.1v-.1h-.1v-.2"/><path class="cls-15" d="M186.8 316.5v-37.4c0-.4 0-.9.3-1.3.2-.4.4-.8.7-1.1.3-.3.7-.6 1.1-.7.4-.2.9-.3 1.3-.3h10.2c.4 0 .9 0 1.3.3.4.2.8.4 1.1.7s.6.7.7 1.1c.2.4.3.9.3 1.3v37.4c0 .4 0 .9-.3 1.3-.2.4-.4.8-.7 1.1-.3.3-.7.6-1.1.7-.4.2-.9.3-1.3.3h-10.2c-.4 0-.9 0-1.3-.3-.4-.2-.8-.4-1.1-.7s-.6-.7-.7-1.1c-.2-.4-.3-.9-.3-1.3"/><path class="cls-12" d="M186.8 316.5v-37.4c0-.4 0-.9.3-1.3.2-.4.4-.8.7-1.1.3-.3.7-.6 1.1-.7.4-.2.9-.3 1.3-.3h10.2c.4 0 .9 0 1.3.3.4.2.8.4 1.1.7s.6.7.7 1.1c.2.4.3.9.3 1.3v37.4c0 .4 0 .9-.3 1.3-.2.4-.4.8-.7 1.1-.3.3-.7.6-1.1.7-.4.2-.9.3-1.3.3h-10.2c-.4 0-.9 0-1.3-.3-.4-.2-.8-.4-1.1-.7s-.6-.7-.7-1.1c-.2-.4-.3-.9-.3-1.3M249 322.9h-20.9M249 324.3h-19.5M249 322.9h-20.9M249 324.3h-19.5M228.1 326.7h-18.3M229.5 328.2h-21.1M228.1 326.7h-18.3M227.6 326h-17M229.5 328.2h-21.1M209.8 322.9h-25.4M208.4 324.3h-24M209.8 322.9h-25.4M210.6 322.2h-26.2M208.4 324.3h-24"/><path class="cls-15" d="M211.2 322.1v-12-.4c0-.1.1-.3.2-.4.1-.1.2-.2.4-.2H225.9c.1 0 .3.1.4.2.1.1.2.2.2.4v12.4h-15.6"/><path class="cls-12" d="M211.2 322.1v-12-.4c0-.1.1-.3.2-.4.1-.1.2-.2.4-.2H225.9c.1 0 .3.1.4.2.1.1.2.2.2.4v12.4h-15.6"/><path class="cls-10" d="M227.6 322.2v3.8"/><path class="cls-3" d="M227.6 326h-17"/><path class="cls-10" d="M210.6 326v-3.8"/><path class="cls-12" d="M209.8 326.7v-3.8M208.4 328.2v-3.9M209.8 326.7v-3.8M210.6 326v-3.8M208.4 328.2v-3.9M228.1 322.9v3.8M229.5 324.3v3.9M228.1 322.9v3.8M227.6 322.2v3.8M229.5 324.3v3.9"/><path class="cls-14" d="M184.4 334.9h25.4v21.4h-25.4z"/><path class="cls-12" d="M184.4 334.9h25.4v21.4h-25.4zM184.4 336.8h25.4"/><path class="cls-15" d="M235.3 350.1c1.3.9 3 .9 4.3 0 1.9-1.5 2.9-3.8 2.9-6.2l-.3-9h-9.6l-.3 9c0 2.4 1 4.7 2.9 6.2"/><path class="cls-12" d="M235.3 350.1c1.3.9 3 .9 4.3 0 1.9-1.5 2.9-3.8 2.9-6.2l-.3-9h-9.6l-.3 9c0 2.4 1 4.7 2.9 6.2"/><path class="cls-15" d="M237.4 340c-1 0-2 .3-2.8 1.1-.7.7-1.2 1.7-1.2 2.7 0 2.1.9 4.1 2.5 5.4.9.6 2 .6 2.9 0 1.6-1.3 2.5-3.3 2.5-5.4 0-1-.4-2-1.2-2.7s-1.7-1.1-2.8-1.1"/><path class="cls-12" d="M237.4 340c-1 0-2 .3-2.8 1.1-.7.7-1.2 1.7-1.2 2.7 0 2.1.9 4.1 2.5 5.4.9.6 2 .6 2.9 0 1.6-1.3 2.5-3.3 2.5-5.4 0-1-.4-2-1.2-2.7s-1.7-1.1-2.8-1.1M249 334.2h-18M249 332.7h-16.6M249 334.2h-18M249 334.9h-18.8M249 332.7h-16.6M249 332.7v1.5M231 330.3h-18.3M232.4 328.9h-21.1M231 330.3h-18.3M230.2 331h-16.8M232.4 328.9h-21.1M212.7 334.2h-28.3M211.3 332.7h-26.9M212.7 334.2h-28.3M184.4 332.7v1.5M213.4 334.9h-29M211.3 332.7h-26.9"/><path class="cls-15" d="M214 334.9v12.4c0 .1.1.3.2.4.1.1.2.2.4.2H228.7c.1 0 .3-.1.4-.2.1-.1.2-.2.2-.4v-12.4h-15.6"/><path class="cls-12" d="M214 334.9v12.4c0 .1.1.3.2.4.1.1.2.2.4.2H228.7c.1 0 .3-.1.4-.2.1-.1.2-.2.2-.4v-12.4h-15.6"/><path class="cls-10" d="M230.2 334.9V331"/><path class="cls-3" d="M230.2 331h-16.8"/><path class="cls-10" d="M213.4 331v3.9"/><path class="cls-12" d="M212.7 330.3v3.9M211.3 328.9v3.8M212.7 330.3v3.9M213.4 331v3.9M211.3 328.9v3.8M231 334.2v-3.9M232.4 332.7v-3.8M231 334.2v-3.9M230.2 334.9V331M232.4 332.7v-3.8"/><path class="cls-15" d="M257.4 218.2l-4.8-4.8v4.8h4.8"/><path class="cls-11" d="M254.5 218.2l-1.7-1.9M254.7 218.2l1.5-1.4M252.8 216.3l1.4-1.4"/><path class="cls-15" d="M257.4 218.2l-4.8-4.8v4.8h4.8"/><path class="cls-11" d="M254.5 218.2l-1.7-1.9M254.7 218.2l1.5-1.4M252.8 216.3l1.4-1.4"/><path class="cls-13" d="M252.6 218.2h4.8M252.6 218.2h4.8"/><path class="cls-15" d="M220.2 218.2v-4.8l-4.8 4.8h4.8"/><path class="cls-11" d="M220.4 216.1l-1.4-1.5M218.5 218.2l-1.5-1.4M218.7 218.2l1.7-1.4"/><path class="cls-15" d="M220.2 218.2v-4.8l-4.8 4.8h4.8"/><path class="cls-11" d="M220.4 216.1l-1.4-1.5M218.5 218.2l-1.5-1.4M218.7 218.2l1.7-1.4"/><path class="cls-13" d="M215.4 218.2h4.8M215.4 218.2h4.8"/><path class="cls-12" d="M220.2 217h2.4v1.7h-2.4zM249.9 217h2.6v1.7h-2.6z"/><path class="cls-12" d="M222.6 217H250v1.7h-27.4zM222.6 217h27.3"/><path class="cls-15" d="M220.2 211h2.1v6h-2.1"/><path class="cls-11" d="M222.6 214.2l-2.2-2.2M221.4 217l-1-.9M220.4 216.8l2.2-2.2M220.4 212.7l1.4-1.7"/><path class="cls-15" d="M252.6 211h-2.4v6h2.4"/><path class="cls-11" d="M252.8 212.5l-1.4-1.5M252.8 216.3l-2.4-2.4M252.1 217l.7-.7M250.4 214.6l2.4-2.4"/><path class="cls-13" d="M222.3 211v6M250.2 211v6M222.3 211v6M220.2 211h2.1M250.2 211v6M252.6 211h-2.4M220.2 218.2V217M252.6 218.2V217M220.2 211h2.1M252.6 211h-2.4M222.3 217h-2.1M250.2 217h2.4"/><path class="cls-11" d="M222.7 218.8c0 14.9 12.3 27.2 27.2 27.2M249.9 218.7v27.4"/><path class="cls-15" d="M215.4.6l4.8 4.8V.6h-4.8"/><path class="cls-11" d="M220.4 3.7L217.3.6M219.7 4.9l.7-.7M217.8 2.7l2.1-2.1M215.6.8l.2-.2"/><path class="cls-15" d="M215.4.6l4.8 4.8V.6h-4.8"/><path class="cls-11" d="M220.4 3.7L217.3.6M219.7 4.9l.7-.7M217.8 2.7l2.1-2.1M215.6.8l.2-.2"/><path class="cls-13" d="M220.2.6h-4.8M220.2.6h-4.8"/><path class="cls-15" d="M252.6.6v4.8l4.8-4.8h-4.8"/><path class="cls-11" d="M255.4 2.7L253.3.6M253.5 4.6l-.7-.7M252.8 3.9l3.1-3.3"/><path class="cls-15" d="M252.6.6v4.8l4.8-4.8h-4.8"/><path class="cls-11" d="M255.4 2.7L253.3.6M253.5 4.6l-.7-.7M252.8 3.9l3.1-3.3"/><path class="cls-13" d="M257.4.6h-4.8M257.4.6h-4.8"/><path class="cls-12" d="M249.9 0h2.6v1.7h-2.6zM220.2 0h2.4v1.7h-2.4z"/><path class="cls-12" d="M222.6 0H250v1.7h-27.4zM249.9 1.8h-27.3"/><path class="cls-15" d="M252.6 7.5h-2.4V1.8h2.4"/><path class="cls-11" d="M252.8 3.9l-2.2-2.1M252.3 7.5l-1.9-1.9M250.4 6.3l2.4-2.4M250.4 2.2l.5-.4"/><path class="cls-15" d="M220.2 7.5h2.1V1.8h-2.1"/><path class="cls-11" d="M222.6 5.8l-2.2-2.1M220.9 7.5l1.7-1.4M220.4 4.2l2.2-2.2"/><path class="cls-13" d="M250.2 7.5V1.8M222.3 7.5V1.8M250.2 7.5V1.8M252.6 7.5h-2.4M222.3 7.5V1.8M220.2 7.5h2.1M252.6.6v1.2M220.2.6v1.2M252.6 7.5h-2.4M220.2 7.5h2.1M250.2 1.8h2.4M222.3 1.8h-2.1"/><path class="cls-16" d="M57.4 77.8H42.6V47.1h14.8v30.7"/><path class="cls-15" d="M42.6 77.8h3.6V47.1h-3.6v30.7"/><path class="cls-11" d="M42.8 74.5l3.1 3.3M42.8 70.4l3.6 3.6M42.8 66.6l3.6 3.6M42.8 62.5l3.6 3.6M42.8 58.4l3.6 3.6M42.8 54.6l3.6 3.6M42.8 50.5l3.6 3.6M43.3 47.1l3.1 2.9"/><path class="cls-15" d="M46.2 77.8h.4V47.1h-.4v30.7M46.6 77.8h5.8V47.1h-5.8v30.7"/><path class="cls-11" d="M52.6 47.6h-5.7M52.6 49h-5.7M52.6 50.5h-5.7M52.6 51.9h-5.7M52.6 53.4h-5.7M52.6 54.6h-5.7M52.6 56h-5.7M52.6 57.4h-5.7M52.6 58.9h-5.7M52.6 60.3h-5.7M52.6 61.8h-5.7M52.6 63.2h-5.7M52.6 64.6h-5.7M52.6 66.1h-5.7M52.6 67.5h-5.7M52.6 69h-5.7M52.6 70.2h-5.7M52.6 71.6h-5.7M52.6 73h-5.7M52.6 74.5h-5.7M52.6 75.9h-5.7M52.6 77.4h-5.7"/><path class="cls-15" d="M52.4 77.8h5V47.1h-5v30.7"/><path class="cls-11" d="M52.6 76.4l1.5 1.4M52.6 72.3l5.1 5.1M52.6 68.2l5.1 5.1M52.6 64.4l5.1 5M52.6 60.3l5.1 5.1M52.6 56.2l5.1 5.1M52.6 52.4l5.1 5M52.6 48.3l5.1 5.1M55.3 47.1l2.4 2.2"/><path class="cls-13" d="M46.2 77.8V47.1M42.6 77.8V47.1"/><path class="cls-11" d="M52.4 77.8V47.1M46.6 77.8V47.1"/><path class="cls-13" d="M57.4 77.8V47.1M52.4 77.8V47.1"/><path class="cls-12" d="M42.6 77.8V47.1M57.4 77.8V47.1"/><path class="cls-16" d="M57.4 210.6H42.6V141h14.8v69.6"/><path class="cls-15" d="M42.6 210.6h3.6V141h-3.6v69.6"/><path class="cls-11" d="M42.8 206.7l3.6 3.6M42.8 202.9l3.6 3.6M42.8 198.8l3.6 3.6M42.8 194.7l3.6 3.6M42.8 190.9l3.6 3.6M42.8 186.8l3.6 3.6M42.8 182.7l3.6 3.6M42.8 178.6l3.6 3.6M42.8 174.8l3.6 3.6M42.8 170.7l3.6 3.6M42.8 166.6l3.6 3.6M42.8 162.8l3.6 3.6M42.8 158.7l3.6 3.6M42.8 154.6l3.6 3.6M42.8 150.8l3.6 3.6M42.8 146.7l3.6 3.6M42.8 142.6l3.6 3.6M45 141l1.4 1.2"/><path class="cls-15" d="M46.2 210.6h.4V141h-.4v69.6M46.6 210.6h5.8V141h-5.8v69.6"/><path class="cls-11" d="M52.6 141.2h-5.7M52.6 142.6h-5.7M52.6 144.1h-5.7M52.6 145.3h-5.7M52.6 146.7h-5.7M52.6 148.2h-5.7M52.6 149.6h-5.7M52.6 151h-5.7M52.6 152.5h-5.7M52.6 153.9h-5.7M52.6 155.4h-5.7M52.6 156.8h-5.7M52.6 158.2h-5.7M52.6 159.4h-5.7M52.6 160.9h-5.7M52.6 162.3h-5.7M52.6 163.8h-5.7M52.6 165.2h-5.7M52.6 166.6h-5.7M52.6 168.1h-5.7M52.6 169.5h-5.7M52.6 171h-5.7M52.6 172.4h-5.7M52.6 173.8h-5.7M52.6 175h-5.7M52.6 176.5h-5.7M52.6 177.9h-5.7M52.6 179.4h-5.7M52.6 180.8h-5.7M52.6 182.2h-5.7M52.6 183.7h-5.7M52.6 185.1h-5.7M52.6 186.6h-5.7M52.6 188h-5.7M52.6 189.4h-5.7M52.6 190.6h-5.7M52.6 192.1h-5.7M52.6 193.5h-5.7M52.6 195h-5.7M52.6 196.4h-5.7M52.6 197.8h-5.7M52.6 199.3h-5.7M52.6 200.7h-5.7M52.6 202.2h-5.7M52.6 203.6h-5.7M52.6 204.8h-5.7M52.6 206.2h-5.7M52.6 207.7h-5.7M52.6 209.1h-5.7"/><path class="cls-15" d="M52.4 210.6h5V141h-5v69.6"/><path class="cls-11" d="M52.6 208.6l2 2M52.6 204.6l5.1 5M52.6 200.7l5.1 5.1M52.6 196.6l5.1 5.1M52.6 192.6l5.1 5M52.6 188.5l5.1 5M52.6 184.6l5.1 5.1M52.6 180.6l5.1 5M52.6 176.5l5.1 5M52.6 172.6l5.1 5.1M52.6 168.6l5.1 5M52.6 164.5l5.1 5M52.6 160.6l5.1 5.1M52.6 156.6l5.1 5M52.6 152.5l5.1 5M52.6 148.4l5.1 5M52.6 144.6l5.1 5M52.9 141l4.8 4.5M57 141l.7.4"/><path class="cls-13" d="M46.2 210.6V141M42.6 210.6V141"/><path class="cls-11" d="M52.4 210.6V141M46.6 210.6V141"/><path class="cls-13" d="M57.4 210.6V141M52.4 210.6V141"/><path class="cls-12" d="M42.6 210.6V141M57.4 210.6V141"/><path class="cls-16" d="M57.4 313.8H42.6v-62.4h14.8v62.4"/><path class="cls-15" d="M42.6 313.8h3.6v-62.4h-3.6v62.4"/><path class="cls-11" d="M42.8 311.1l2.6 2.7M42.8 307l3.6 3.6M42.8 303l3.6 3.6M42.8 299.1l3.6 3.6M42.8 295l3.6 3.6M42.8 291l3.6 3.6M42.8 286.9l3.6 3.6M42.8 283l3.6 3.6M42.8 279l3.6 3.6M42.8 274.9l3.6 3.6M42.8 271l3.6 3.6M42.8 267l3.6 3.6M42.8 262.9l3.6 3.6M42.8 259l3.6 3.6M42.8 255l3.6 3.6M43 251.4l3.4 3.1"/><path class="cls-15" d="M46.2 313.8h.4v-62.4h-.4v62.4M46.6 313.8h5.8v-62.4h-5.8v62.4"/><path class="cls-11" d="M52.6 251.6h-5.7M52.6 253h-5.7M52.6 254.5h-5.7M52.6 255.9h-5.7M52.6 257.4h-5.7M52.6 258.8h-5.7M52.6 260.2h-5.7M52.6 261.7h-5.7M52.6 263.1h-5.7M52.6 264.3h-5.7M52.6 265.8h-5.7M52.6 267.2h-5.7M52.6 268.6h-5.7M52.6 270.1h-5.7M52.6 271.5h-5.7M52.6 273h-5.7M52.6 274.4h-5.7M52.6 275.8h-5.7M52.6 277.3h-5.7M52.6 278.7h-5.7M52.6 279.9h-5.7M52.6 281.4h-5.7M52.6 282.8h-5.7M52.6 284.2h-5.7M52.6 285.7h-5.7M52.6 287.1h-5.7M52.6 288.6h-5.7M52.6 290h-5.7M52.6 291.4h-5.7M52.6 292.9h-5.7M52.6 294.3h-5.7M52.6 295.5h-5.7M52.6 297h-5.7M52.6 298.4h-5.7M52.6 299.8h-5.7M52.6 301.3h-5.7M52.6 302.7h-5.7M52.6 304.2h-5.7M52.6 305.6h-5.7M52.6 307h-5.7M52.6 308.5h-5.7M52.6 309.7h-5.7M52.6 311.1h-5.7M52.6 312.6h-5.7"/><path class="cls-15" d="M52.4 313.8h5v-62.4h-5v62.4"/><path class="cls-11" d="M52.6 312.8l.8 1M52.6 309l4.8 4.8M52.6 304.9l5.1 5M52.6 300.8l5.1 5M52.6 296.7l5.1 5.1M52.6 292.9l5.1 5M52.6 288.8l5.1 5M52.6 284.7l5.1 5.1M52.6 280.9l5.1 5M52.6 276.8l5.1 5M52.6 272.7l5.1 5.1M52.6 268.9l5.1 5M52.6 264.8l5.1 5M52.6 260.7l5.1 5.1M52.6 256.6l5.1 5.1M52.6 252.8l5.1 5M55 251.4l2.7 2.4"/><path class="cls-13" d="M46.2 313.8v-62.4M42.6 313.8v-62.4"/><path class="cls-11" d="M52.4 313.8v-62.4M46.6 313.8v-62.4"/><path class="cls-13" d="M57.4 313.8v-62.4M52.4 313.8v-62.4"/><path class="cls-12" d="M42.6 313.8v-62.4M57.4 313.8v-62.4"/><path class="cls-16" d="M57.4 390.8H42.6v-36.2h14.8v36.2"/><path class="cls-15" d="M42.6 390.8h3.6v-36.2h-3.6v36.2"/><path class="cls-11" d="M42.8 387.2l3.4 3.6M42.8 383.1l3.6 3.6M42.8 379.3l3.6 3.6M42.8 375.2l3.6 3.6M42.8 371.1l3.6 3.6M42.8 367.3l3.6 3.6M42.8 363.2l3.6 3.6M42.8 359.1l3.6 3.6M42.8 355l3.6 3.6M46.2 354.6l.2.2"/><path class="cls-15" d="M46.2 390.8h.4v-36.2h-.4v36.2M46.6 390.8h5.8v-36.2h-5.8v36.2"/><path class="cls-11" d="M52.6 355h-5.7M52.6 356.5h-5.7M52.6 357.9h-5.7M52.6 359.4h-5.7M52.6 360.8h-5.7M52.6 362.2h-5.7M52.6 363.7h-5.7M52.6 365.1h-5.7M52.6 366.6h-5.7M52.6 368h-5.7M52.6 369.4h-5.7M52.6 370.6h-5.7M52.6 372.1h-5.7M52.6 373.5h-5.7M52.6 375h-5.7M52.6 376.4h-5.7M52.6 377.8h-5.7M52.6 379.3h-5.7M52.6 380.7h-5.7M52.6 382.2h-5.7M52.6 383.6h-5.7M52.6 384.8h-5.7M52.6 386.2h-5.7M52.6 387.7h-5.7M52.6 389.1h-5.7M52.6 390.6h-5.7"/><path class="cls-15" d="M52.4 390.8h5v-36.2h-5v36.2"/><path class="cls-11" d="M52.6 389.1l1.7 1.7M52.6 385l5.1 5.1M52.6 381l5.1 5M52.6 377.1l5.1 5.1M52.6 373l5.1 5.1M52.6 369l5.1 5M52.6 364.9l5.1 5M52.6 361l5.1 5.1M52.6 357l5.1 5M54.1 354.6l3.6 3.3"/><path class="cls-13" d="M46.2 390.8v-36.2M42.6 390.8v-36.2"/><path class="cls-11" d="M52.4 390.8v-36.2M46.6 390.8v-36.2"/><path class="cls-13" d="M57.4 390.8v-36.2M52.4 390.8v-36.2"/><path class="cls-12" d="M42.6 390.8v-36.2M57.4 390.8v-36.2M50 352.6h-7.4v3.6h-1.7v-43.9h1.7v3.4H50"/><path class="cls-1" d="M57.4 354.6v-40.8"/><path class="cls-12" d="M57.4 314.2v-.4"/><path class="cls-13" d="M42.6 352.6v3.6M42.6 315.7v-3.4"/><path class="cls-12" d="M50 313.8h2.4v40.8H50zM50 351h2.4M50 317.4h2.4M52.4 354.6H50M52.4 336.3H50M52.4 351H50M52.4 332.2H50M52.4 336.3H50M52.4 317.4H50M52.4 332.2H50M52.4 313.8H50"/><path class="cls-15" d="M46.6 354.6v-1.9H50v1.9"/><path class="cls-11" d="M50.2 353.8h-3.3M46.6 354.6v-1.9H50v1.9"/><path class="cls-13" d="M52.4 354.6h5"/><path class="cls-15" d="M42.6 354.6v-2h3.6v2"/><path class="cls-11" d="M44.2 352.6l2 2"/><path class="cls-13" d="M42.6 354.6v-2h3.6v2M46.2 352.6H50"/><path class="cls-15" d="M46.6 313.8v1.8H50v-1.8"/><path class="cls-11" d="M50.2 314h-3.3M50.2 315.4h-3.3M46.6 313.8v1.8H50v-1.8"/><path class="cls-13" d="M52.4 313.8h5"/><path class="cls-15" d="M42.6 313.8v1.9h3.6v-1.9"/><path class="cls-11" d="M42.8 315l.5.7M45.4 313.8l1 .9"/><path class="cls-13" d="M42.6 313.8v1.9h3.6v-1.9M46.2 315.7H50"/><path class="cls-12" d="M50 249.7h-7.4v3.3h-1.7v-43.9h1.7v3.4H50"/><path class="cls-1" d="M57.4 251.4v-40.8"/><path class="cls-12" d="M57.4 211v-.4"/><path class="cls-13" d="M42.6 249.7v3.3M42.6 212.5v-3.4"/><path class="cls-12" d="M50 210.6h2.4v40.8H50zM50 247.8h2.4M50 214.2h2.4M52.4 251.4H50M52.4 233.1H50M52.4 247.8H50M52.4 229H50M52.4 233.1H50M52.4 214.2H50M52.4 229H50M52.4 210.6H50"/><path class="cls-15" d="M46.6 251.4v-1.8H50v1.8"/><path class="cls-11" d="M50.2 250.2h-3.3M46.6 251.4v-1.8H50v1.8"/><path class="cls-13" d="M52.4 251.4h5"/><path class="cls-15" d="M42.6 251.4v-1.7h3.6v1.7"/><path class="cls-11" d="M42.8 250.9l.2.5M45.4 249.7l1 .7"/><path class="cls-13" d="M42.6 251.4v-1.7h3.6v1.7M46.2 249.7H50"/><path class="cls-15" d="M46.6 210.6v1.8H50v-1.8"/><path class="cls-11" d="M50.2 210.6h-3.3M50.2 212h-3.3M46.6 210.6v1.8H50v-1.8"/><path class="cls-13" d="M52.4 210.6h5"/><path class="cls-15" d="M42.6 210.6v1.9h3.6v-1.9"/><path class="cls-11" d="M42.8 210.8l1.4 1.7"/><path class="cls-13" d="M42.6 210.6v1.9h3.6v-1.9M46.2 212.5H50"/><path class="cls-1" d="M57.4 141V77.8"/><path class="cls-12" d="M57.4 78.3v-.5M50 77.8h2.4v63.1H50zM50 137.1h2.4M50 81.7h2.4M52.4 141H50M52.4 122H50M52.4 137.1H50M52.4 117.9H50M52.4 122H50M52.4 100.9H50M52.4 117.9H50M52.4 96.8H50M52.4 100.9H50M52.4 81.7H50M52.4 96.8H50M52.4 77.8H50"/><path class="cls-13" d="M52.4 141h5"/><path class="cls-12" d="M42.6 76.4h-1.7"/><path class="cls-5" d="M40.9 76.4v66"/><path class="cls-12" d="M40.9 142.4h1.2"/><path class="cls-15" d="M46.6 140.8V139H50v1.8"/><path class="cls-11" d="M50.2 139.8h-3.3M46.6 140.8V139H50v1.8"/><path class="cls-15" d="M42.6 141v-2h3.6v2"/><path class="cls-11" d="M43 139l2 2"/><path class="cls-13" d="M42.6 141v-2h3.6v2M46.2 139H50"/><path class="cls-15" d="M46.6 77.9v1.9H50v-1.9"/><path class="cls-11" d="M50.2 78.8h-3.3M46.6 77.9v1.9H50v-1.9"/><path class="cls-13" d="M52.4 77.8h5"/><path class="cls-15" d="M42.6 77.8v2h3.6v-2"/><path class="cls-11" d="M42.8 78.6l1.2 1.2M45.9 77.8l.5.3"/><path class="cls-13" d="M42.6 77.8v2h3.6v-2M46.2 79.8H50"/><path class="cls-16" d="M368 358.2h14.9v32.6H368v-32.6"/><path class="cls-15" d="M382.9 358.2h-3.4v32.6h3.4v-32.6"/><path class="cls-11" d="M379.8 387.4l3.3 3.4M379.8 383.4l3.3 3.3M379.8 379.5l3.3 3.4M379.8 375.4l3.3 3.4M379.8 371.4l3.3 3.3M379.8 367.3l3.3 3.3M379.8 363.4l3.3 3.4M379.8 359.4l3.3 3.3M382.4 358.2l.7.4"/><path class="cls-15" d="M379.5 358.2h-.7v32.6h.7v-32.6M378.8 358.2h-5.5v32.6h5.5v-32.6"/><path class="cls-11" d="M373.5 390.6h5.5M373.5 389.1h5.5M373.5 387.7h5.5M373.5 386.2h5.5M373.5 384.8h5.5M373.5 383.6h5.5M373.5 382.2h5.5M373.5 380.7h5.5M373.5 379.3h5.5M373.5 377.8h5.5M373.5 376.4h5.5M373.5 375h5.5M373.5 373.5h5.5M373.5 372.1h5.5M373.5 370.6h5.5M373.5 369.4h5.5M373.5 368h5.5M373.5 366.6h5.5M373.5 365.1h5.5M373.5 363.7h5.5M373.5 362.2h5.5M373.5 360.8h5.5M373.5 359.4h5.5"/><path class="cls-15" d="M373.3 358.2H368v32.6h5.3v-32.6"/><path class="cls-11" d="M368.2 387.9l2.7 2.9M368.2 383.8l5.3 5.3M368.2 380l5.3 5.3M368.2 375.9l5.3 5.3M368.2 371.8l5.3 5.3M368.2 368l5.3 5.3M368.2 363.9l5.3 5.3M368.2 359.8l5.3 5.3M370.4 358.2l3.1 2.8"/><path class="cls-13" d="M379.5 358.2v32.6M382.9 358.2v32.6"/><path class="cls-11" d="M373.3 358.2v32.6M378.8 358.2v32.6"/><path class="cls-13" d="M368 358.2v32.6M373.3 358.2v32.6"/><path class="cls-12" d="M382.9 358.2v32.6M368 358.2v32.6"/><path class="cls-16" d="M368 255.2h14.9v40.1H368v-40.1"/><path class="cls-15" d="M382.9 255.2h-3.4v40.1h3.4v-40.1"/><path class="cls-11" d="M379.8 291.2l3.3 3.4M379.8 287.1l3.3 3.4M379.8 283.3l3.3 3.3M379.8 279.2l3.3 3.4M379.8 275.1l3.3 3.4M379.8 271.3l3.3 3.3M379.8 267.2l3.3 3.4M379.8 263.1l3.3 3.4M379.8 259l3.3 3.4M379.8 255.2l3.3 3.4"/><path class="cls-15" d="M379.5 255.2h-.7v40.1h.7v-40.1M378.8 255.2h-5.5v40.1h5.5v-40.1"/><path class="cls-11" d="M373.5 294.3h5.5M373.5 292.9h5.5M373.5 291.4h5.5M373.5 290h5.5M373.5 288.6h5.5M373.5 287.1h5.5M373.5 285.7h5.5M373.5 284.2h5.5M373.5 282.8h5.5M373.5 281.4h5.5M373.5 279.9h5.5M373.5 278.7h5.5M373.5 277.3h5.5M373.5 275.8h5.5M373.5 274.4h5.5M373.5 273h5.5M373.5 271.5h5.5M373.5 270.1h5.5M373.5 268.6h5.5M373.5 267.2h5.5M373.5 265.8h5.5M373.5 264.3h5.5M373.5 263.1h5.5M373.5 261.7h5.5M373.5 260.2h5.5M373.5 258.8h5.5M373.5 257.4h5.5M373.5 255.9h5.5"/><path class="cls-15" d="M373.3 255.2H368v40.1h5.3v-40.1"/><path class="cls-11" d="M368.2 291.7l3.4 3.6M368.2 287.8l5.3 5.3M368.2 283.8l5.3 5.2M368.2 279.7l5.3 5.3M368.2 275.6l5.3 5.3M368.2 271.8l5.3 5.2M368.2 267.7l5.3 5.3M368.2 263.6l5.3 5.3M368.2 259.8l5.3 5.2M368.2 255.7l5.3 5.3M371.6 255.2l1.9 1.7"/><path class="cls-13" d="M379.5 255.2v40.1M382.9 255.2v40.1"/><path class="cls-11" d="M373.3 255.2v40.1M378.8 255.2v40.1"/><path class="cls-13" d="M368 255.2v40.1M373.3 255.2v40.1"/><path class="cls-12" d="M382.9 255.2v40.1M368 255.2v40.1"/><path class="cls-16" d="M368 155.1h14.9v37H368v-37"/><path class="cls-15" d="M382.9 155.1h-3.4v37h3.4v-37"/><path class="cls-11" d="M379.8 191.1l.9 1M379.8 187l3.3 3.4M379.8 183l3.3 3.3M379.8 178.9l3.3 3.3M379.8 175l3.3 3.4M379.8 171l3.3 3.3M379.8 166.9l3.3 3.3M379.8 163l3.3 3.4M379.8 159l3.3 3.3M379.8 155.1l3.3 3.1"/><path class="cls-15" d="M379.5 155.1h-.7v37h.7v-37M378.8 155.1h-5.5v37h5.5v-37"/><path class="cls-11" d="M373.5 190.6h5.5M373.5 189.4h5.5M373.5 188h5.5M373.5 186.6h5.5M373.5 185.1h5.5M373.5 183.7h5.5M373.5 182.2h5.5M373.5 180.8h5.5M373.5 179.4h5.5M373.5 177.9h5.5M373.5 176.5h5.5M373.5 175h5.5M373.5 173.8h5.5M373.5 172.4h5.5M373.5 171h5.5M373.5 169.5h5.5M373.5 168.1h5.5M373.5 166.6h5.5M373.5 165.2h5.5M373.5 163.8h5.5M373.5 162.3h5.5M373.5 160.9h5.5M373.5 159.4h5.5M373.5 158.2h5.5M373.5 156.8h5.5M373.5 155.4h5.5"/><path class="cls-15" d="M373.3 155.1H368v37h5.3v-37"/><path class="cls-11" d="M368.2 191.6l.5.5M368.2 187.5l4.6 4.6M368.2 183.4l5.3 5.3M368.2 179.6l5.3 5.3M368.2 175.5l5.3 5.3M368.2 171.4l5.3 5.3M368.2 167.4l5.3 5.2M368.2 163.5l5.3 5.3M368.2 159.4l5.3 5.3M368.2 155.4l5.3 5.2M371.8 155.1l1.7 1.7"/><path class="cls-13" d="M379.5 155.1v37M382.9 155.1v37"/><path class="cls-11" d="M373.3 155.1v37M378.8 155.1v37"/><path class="cls-13" d="M368 155.1v37M373.3 155.1v37"/><path class="cls-12" d="M382.9 155.1v37M368 155.1v37"/><path class="cls-1" d="M368 192.1v63.1"/><path class="cls-12" d="M368 254.7v.5M373.3 192.1h2.2v63.1h-2.2zM375.4 195.9h-2.1M375.4 251.4h-2.1M373.3 192.1h2.1M373.3 211h2.1M373.3 195.9h2.1M373.3 215.1h2.1M373.3 211h2.1M373.3 232.2h2.1M373.3 215.1h2.1M373.3 236.2h2.1M373.3 232.2h2.1M373.3 251.4h2.1M373.3 236.2h2.1M373.3 255.2h2.1"/><path class="cls-13" d="M373.3 192.1H368"/><path class="cls-12" d="M382.9 256.6h1.7"/><path class="cls-5" d="M384.6 256.6v-66"/><path class="cls-12" d="M384.6 190.6h-1.2"/><path class="cls-15" d="M378.9 192.2v1.8h-3.4v-1.8"/><path class="cls-11" d="M375.7 193.5h3.3M375.7 192.1h3.3M378.9 192.2v1.8h-3.4v-1.8"/><path class="cls-15" d="M382.9 192.1v1.9h-3.4v-1.9"/><path class="cls-11" d="M380.7 192.1l1.9 1.9"/><path class="cls-13" d="M382.9 192.1v1.9h-3.4v-1.9M379.5 194h-4.1"/><path class="cls-15" d="M378.9 255.1v-1.9h-3.4v1.9"/><path class="cls-11" d="M375.7 254.5h3.3M378.9 255.1v-1.9h-3.4v1.9"/><path class="cls-13" d="M373.3 255.2H368"/><path class="cls-15" d="M382.9 255.2v-1.9h-3.4v1.9"/><path class="cls-11" d="M381.7 253.3l1.4 1.2"/><path class="cls-13" d="M382.9 255.2v-1.9h-3.4v1.9M379.5 253.3h-4.1"/><path class="cls-12" d="M375.4 297.2h7.5v-3.4h1.7v66h-1.7v-3.3h-7.5"/><path class="cls-1" d="M368 295.3v62.9"/><path class="cls-13" d="M382.9 297.2v-3.4M382.9 356.5v3.3"/><path class="cls-12" d="M373.3 295.3h2.2v62.9h-2.2zM375.4 299.1h-2.1M375.4 354.6h-2.1M373.3 295.3h2.1M373.3 314.2h2.1M373.3 299.1h2.1M373.3 318.3h2.1M373.3 314.2h2.1M373.3 335.4h2.1M373.3 318.3h2.1M373.3 339.4h2.1M373.3 335.4h2.1M373.3 354.6h2.1M373.3 339.4h2.1M373.3 358.2h2.1"/><path class="cls-15" d="M378.9 295.3v1.9h-3.4v-1.9"/><path class="cls-11" d="M375.7 297h3.3M375.7 295.5h3.3M378.9 295.3v1.9h-3.4v-1.9"/><path class="cls-13" d="M373.3 295.3H368"/><path class="cls-15" d="M382.9 295.3v1.9h-3.4v-1.9"/><path class="cls-11" d="M379.8 295.3l1.9 1.9"/><path class="cls-13" d="M382.9 295.3v1.9h-3.4v-1.9M379.5 297.2h-4.1"/><path class="cls-15" d="M378.9 358.3v-1.9h-3.4v1.9"/><path class="cls-11" d="M375.7 357.9h3.3M375.7 356.5h3.3M378.9 358.3v-1.9h-3.4v1.9"/><path class="cls-13" d="M373.3 358.2H368"/><path class="cls-15" d="M382.9 358.2v-1.7h-3.4v1.7"/><path class="cls-11" d="M380.7 356.5l1.7 1.7"/><path class="cls-13" d="M382.9 358.2v-1.7h-3.4v1.7M379.5 356.5h-4.1"/><path class="cls-15" d="M52.4 390.8v-7.2h320.9v7.2H52.4"/><path class="cls-11" d="M373.5 385.3l-1.7-1.7M373.5 389.1l-5.7-5.5M370.9 390.8l-7.2-7.2M367 390.8l-7.2-7.2M363 390.8l-7.2-7.2M358.9 390.8l-7.2-7.2M355 390.8l-7.2-7.2M351 390.8l-7.2-7.2M346.9 390.8l-7.2-7.2M342.8 390.8l-7.2-7.2M339 390.8l-7.2-7.2M334.9 390.8l-7.2-7.2M330.8 390.8l-7.2-7.2M327 390.8l-7.2-7.2M322.9 390.8l-7.2-7.2M318.8 390.8l-7.2-7.2M315 390.8l-7.2-7.2M310.9 390.8l-7.2-7.2M306.8 390.8l-7.2-7.2M302.7 390.8l-7.2-7.2M298.9 390.8l-7.2-7.2M294.8 390.8l-7.2-7.2M290.7 390.8l-7.2-7.2M286.9 390.8l-7.2-7.2M282.8 390.8l-7.2-7.2M278.7 390.8l-7.2-7.2M274.9 390.8l-7.2-7.2M270.8 390.8l-7.2-7.2M266.7 390.8l-7.2-7.2M262.6 390.8l-7.2-7.2M258.8 390.8l-7.2-7.2M254.7 390.8l-7.2-7.2M250.6 390.8l-7.2-7.2M246.8 390.8l-7.2-7.2M242.7 390.8l-7.2-7.2M238.6 390.8l-7.2-7.2M234.8 390.8l-7.2-7.2M230.7 390.8l-7.2-7.2M226.6 390.8l-7.2-7.2M222.6 390.8l-7.2-7.2M218.7 390.8l-7.2-7.2M214.6 390.8l-7.2-7.2M210.6 390.8l-7.2-7.2M206.7 390.8l-7.2-7.2M202.6 390.8l-7.2-7.2M198.6 390.8l-7.2-7.2M194.5 390.8l-7.2-7.2M190.6 390.8l-7.2-7.2M186.6 390.8l-7.2-7.2M182.5 390.8l-7.2-7.2M178.6 390.8l-7.2-7.2M174.6 390.8l-7.2-7.2M170.5 390.8l-7.2-7.2M166.6 390.8l-7.2-7.2M162.6 390.8l-7.2-7.2M158.5 390.8l-7.2-7.2M154.4 390.8l-7.2-7.2M150.6 390.8l-7.2-7.2M146.5 390.8l-7.2-7.2M142.4 390.8l-7.2-7.2M138.6 390.8l-7.2-7.2M134.5 390.8l-7.2-7.2M130.4 390.8l-7.2-7.2M126.6 390.8l-7.2-7.2M122.5 390.8l-7.2-7.2M118.4 390.8l-7.2-7.2M114.3 390.8l-7.2-7.2M110.5 390.8l-7.2-7.2M106.4 390.8l-7.2-7.2M102.3 390.8l-7.2-7.2M98.5 390.8l-7.2-7.2M94.4 390.8l-7.2-7.2M90.3 390.8l-7.2-7.2M86.2 390.8l-7.2-7.2M82.4 390.8l-7.2-7.2M78.3 390.8l-7.2-7.2M74.2 390.8l-7.2-7.2M70.4 390.8l-7.2-7.2M66.3 390.8l-7.2-7.2M62.2 390.8l-7.2-7.2M58.4 390.8l-5.8-5.8M54.3 390.8l-1.7-1.7M370.9 390.8l2.6-2.4M366.8 390.8l6.7-6.5M363 390.8l7.2-7.2M358.9 390.8l7.2-7.2M354.8 390.8l7.2-7.2M350.7 390.8l7.2-7.2M346.9 390.8l7.2-7.2M342.8 390.8l7.2-7.2M338.7 390.8l7.2-7.2M334.9 390.8l7.2-7.2M330.8 390.8l7.2-7.2M326.7 390.8l7.2-7.2M322.9 390.8l7.2-7.2M318.8 390.8l7.2-7.2M314.7 390.8l7.2-7.2M310.6 390.8l7.2-7.2M306.8 390.8l7.2-7.2M302.7 390.8l7.2-7.2M298.6 390.8l7.2-7.2M294.8 390.8l7.2-7.2M290.7 390.8l7.2-7.2M286.6 390.8l7.2-7.2M282.8 390.8l7.2-7.2M278.7 390.8l7.2-7.2M274.6 390.8l7.2-7.2M270.6 390.8l7.2-7.2M266.7 390.8l7.2-7.2M262.6 390.8l7.2-7.2M258.6 390.8l7.2-7.2M254.7 390.8l7.2-7.2M250.6 390.8l7.2-7.2M246.6 390.8l7.2-7.2M242.7 390.8l7.2-7.2M238.6 390.8l7.2-7.2M234.6 390.8l7.2-7.2M230.5 390.8l7.2-7.2M226.6 390.8l7.2-7.2M222.6 390.8l7.2-7.2M218.5 390.8l7.2-7.2M214.6 390.8l7.2-7.2M210.6 390.8l7.2-7.2M206.5 390.8l7.2-7.2M202.4 390.8l7.2-7.2M198.6 390.8l7.2-7.2M194.5 390.8l7.2-7.2M190.4 390.8l7.2-7.2M186.6 390.8l7.2-7.2M182.5 390.8l7.2-7.2M178.4 390.8l7.2-7.2M174.6 390.8l7.2-7.2M170.5 390.8l7.2-7.2M166.4 390.8l7.2-7.2M162.3 390.8l7.2-7.2M158.5 390.8l7.2-7.2M154.4 390.8l7.2-7.2M150.3 390.8l7.2-7.2M146.5 390.8l7.2-7.2M142.4 390.8l7.2-7.2M138.3 390.8l7.2-7.2M134.5 390.8l7.2-7.2M130.4 390.8l7.2-7.2M126.3 390.8l7.2-7.2M122.2 390.8l7.2-7.2M118.4 390.8l7.2-7.2M114.3 390.8l7.2-7.2M110.2 390.8l7.2-7.2M106.4 390.8l7.2-7.2M102.3 390.8l7.2-7.2M98.2 390.8l7.2-7.2M94.2 390.8l7.2-7.2M90.3 390.8l7.2-7.2M86.2 390.8l7.2-7.2M82.2 390.8l7.2-7.2M78.3 390.8l7.2-7.2M74.2 390.8l7.2-7.2M70.2 390.8l7.2-7.2M66.3 390.8l7.2-7.2M62.2 390.8l7.2-7.2M58.2 390.8l7.2-7.2M54.1 390.8l7.2-7.2M52.6 388.4l4.8-4.8M52.6 384.6l.8-1"/><path class="cls-15" d="M52.4 383.6v7.2h320.9v-7.2H52.4"/><path class="cls-11" d="M373.5 385.3l-1.7-1.7M373.5 389.1l-5.7-5.5M370.9 390.8l-7.2-7.2M367 390.8l-7.2-7.2M363 390.8l-7.2-7.2M358.9 390.8l-7.2-7.2M355 390.8l-7.2-7.2M351 390.8l-7.2-7.2M346.9 390.8l-7.2-7.2M342.8 390.8l-7.2-7.2M339 390.8l-7.2-7.2M334.9 390.8l-7.2-7.2M330.8 390.8l-7.2-7.2M327 390.8l-7.2-7.2M322.9 390.8l-7.2-7.2M318.8 390.8l-7.2-7.2M315 390.8l-7.2-7.2M310.9 390.8l-7.2-7.2M306.8 390.8l-7.2-7.2M302.7 390.8l-7.2-7.2M298.9 390.8l-7.2-7.2M294.8 390.8l-7.2-7.2M290.7 390.8l-7.2-7.2M286.9 390.8l-7.2-7.2M282.8 390.8l-7.2-7.2M278.7 390.8l-7.2-7.2M274.9 390.8l-7.2-7.2M270.8 390.8l-7.2-7.2M266.7 390.8l-7.2-7.2M262.6 390.8l-7.2-7.2M258.8 390.8l-7.2-7.2M254.7 390.8l-7.2-7.2M250.6 390.8l-7.2-7.2M246.8 390.8l-7.2-7.2M242.7 390.8l-7.2-7.2M238.6 390.8l-7.2-7.2M234.8 390.8l-7.2-7.2M230.7 390.8l-7.2-7.2M226.6 390.8l-7.2-7.2M222.6 390.8l-7.2-7.2M218.7 390.8l-7.2-7.2M214.6 390.8l-7.2-7.2M210.6 390.8l-7.2-7.2M206.7 390.8l-7.2-7.2M202.6 390.8l-7.2-7.2M198.6 390.8l-7.2-7.2M194.5 390.8l-7.2-7.2M190.6 390.8l-7.2-7.2M186.6 390.8l-7.2-7.2M182.5 390.8l-7.2-7.2M178.6 390.8l-7.2-7.2M174.6 390.8l-7.2-7.2M170.5 390.8l-7.2-7.2M166.6 390.8l-7.2-7.2M162.6 390.8l-7.2-7.2M158.5 390.8l-7.2-7.2M154.4 390.8l-7.2-7.2M150.6 390.8l-7.2-7.2M146.5 390.8l-7.2-7.2M142.4 390.8l-7.2-7.2M138.6 390.8l-7.2-7.2M134.5 390.8l-7.2-7.2M130.4 390.8l-7.2-7.2M126.6 390.8l-7.2-7.2M122.5 390.8l-7.2-7.2M118.4 390.8l-7.2-7.2M114.3 390.8l-7.2-7.2M110.5 390.8l-7.2-7.2M106.4 390.8l-7.2-7.2M102.3 390.8l-7.2-7.2M98.5 390.8l-7.2-7.2M94.4 390.8l-7.2-7.2M90.3 390.8l-7.2-7.2M86.2 390.8l-7.2-7.2M82.4 390.8l-7.2-7.2M78.3 390.8l-7.2-7.2M74.2 390.8l-7.2-7.2M70.4 390.8l-7.2-7.2M66.3 390.8l-7.2-7.2M62.2 390.8l-7.2-7.2M58.4 390.8l-5.8-5.8M54.3 390.8l-1.7-1.7M370.9 390.8l2.6-2.4M366.8 390.8l6.7-6.5M363 390.8l7.2-7.2M358.9 390.8l7.2-7.2M354.8 390.8l7.2-7.2M350.7 390.8l7.2-7.2M346.9 390.8l7.2-7.2M342.8 390.8l7.2-7.2M338.7 390.8l7.2-7.2M334.9 390.8l7.2-7.2M330.8 390.8l7.2-7.2M326.7 390.8l7.2-7.2M322.9 390.8l7.2-7.2M318.8 390.8l7.2-7.2M314.7 390.8l7.2-7.2M310.6 390.8l7.2-7.2M306.8 390.8l7.2-7.2M302.7 390.8l7.2-7.2M298.6 390.8l7.2-7.2M294.8 390.8l7.2-7.2M290.7 390.8l7.2-7.2M286.6 390.8l7.2-7.2M282.8 390.8l7.2-7.2M278.7 390.8l7.2-7.2M274.6 390.8l7.2-7.2M270.6 390.8l7.2-7.2M266.7 390.8l7.2-7.2M262.6 390.8l7.2-7.2M258.6 390.8l7.2-7.2M254.7 390.8l7.2-7.2M250.6 390.8l7.2-7.2M246.6 390.8l7.2-7.2M242.7 390.8l7.2-7.2M238.6 390.8l7.2-7.2M234.6 390.8l7.2-7.2M230.5 390.8l7.2-7.2M226.6 390.8l7.2-7.2M222.6 390.8l7.2-7.2M218.5 390.8l7.2-7.2M214.6 390.8l7.2-7.2M210.6 390.8l7.2-7.2M206.5 390.8l7.2-7.2M202.4 390.8l7.2-7.2M198.6 390.8l7.2-7.2M194.5 390.8l7.2-7.2M190.4 390.8l7.2-7.2M186.6 390.8l7.2-7.2M182.5 390.8l7.2-7.2M178.4 390.8l7.2-7.2M174.6 390.8l7.2-7.2M170.5 390.8l7.2-7.2M166.4 390.8l7.2-7.2M162.3 390.8l7.2-7.2M158.5 390.8l7.2-7.2M154.4 390.8l7.2-7.2M150.3 390.8l7.2-7.2M146.5 390.8l7.2-7.2M142.4 390.8l7.2-7.2M138.3 390.8l7.2-7.2M134.5 390.8l7.2-7.2M130.4 390.8l7.2-7.2M126.3 390.8l7.2-7.2M122.2 390.8l7.2-7.2M118.4 390.8l7.2-7.2M114.3 390.8l7.2-7.2M110.2 390.8l7.2-7.2M106.4 390.8l7.2-7.2M102.3 390.8l7.2-7.2M98.2 390.8l7.2-7.2M94.2 390.8l7.2-7.2M90.3 390.8l7.2-7.2M86.2 390.8l7.2-7.2M82.2 390.8l7.2-7.2M78.3 390.8l7.2-7.2M74.2 390.8l7.2-7.2M70.2 390.8l7.2-7.2M66.3 390.8l7.2-7.2M62.2 390.8l7.2-7.2M58.2 390.8l7.2-7.2M54.1 390.8l7.2-7.2M52.6 388.4l4.8-4.8M52.6 384.6l.8-1"/><path class="cls-13" d="M52.4 390.8h320.9M52.4 383.6h320.9M373.3 390.8v-7.2M52.4 383.6h320.9M52.4 390.8h320.9M52.4 390.8v-7.2"/><path class="cls-15" d="M83.6 171.4v-4.3h55.9v4.3H83.6"/><path class="cls-11" d="M83.8 169.8l2.7-2.7M86.2 171.4l4.4-4.3M90.6 171.4l4.3-4.3M94.9 171.4l4.3-4.3M99.2 171.4l4.3-4.3M103.3 171.4l4.3-4.3M107.6 171.4l4.3-4.3M111.9 171.4l4.3-4.3M116 171.4l4.3-4.3M120.3 171.4l4.3-4.3M124.6 171.4l4.4-4.3M128.7 171.4l4.3-4.3M133 171.4l4.4-4.3M137.4 171.4l2.4-2.4"/><path class="cls-15" d="M83.6 167.1v4.3h55.9v-4.3H83.6"/><path class="cls-11" d="M83.8 169.8l2.7-2.7M86.2 171.4l4.4-4.3M90.6 171.4l4.3-4.3M94.9 171.4l4.3-4.3M99.2 171.4l4.3-4.3M103.3 171.4l4.3-4.3M107.6 171.4l4.3-4.3M111.9 171.4l4.3-4.3M116 171.4l4.3-4.3M120.3 171.4l4.3-4.3M124.6 171.4l4.4-4.3M128.7 171.4l4.3-4.3M133 171.4l4.4-4.3M137.4 171.4l2.4-2.4"/><path class="cls-13" d="M83.6 171.4h55.9M83.6 167.1h55.9M83.6 167.1h55.9M83.6 171.4h55.9"/><path class="cls-12" d="M59.1 171.4v-4.3M81.7 171.4v-4.3"/><path class="cls-13" d="M57.4 171.4v-4.3M83.6 171.4v-4.3"/><path class="cls-11" d="M81.8 144.4c-12.4 0-22.7 10.2-22.7 22.7M81.7 167.1v-22.8"/><path class="cls-15" d="M139.5 54.3v-7.2H52.4v7.2h87.1"/><path class="cls-11" d="M139.8 47.1h-.3M139.8 51.2l-4.4-4.1M138.8 54.3l-7.2-7.2M134.7 54.3l-7.2-7.2M130.6 54.3l-7.2-7.2M126.8 54.3l-7.2-7.2M122.7 54.3l-7.2-7.2M118.6 54.3l-7.2-7.2M114.6 54.3l-7.2-7.2M110.7 54.3l-7.2-7.2M106.6 54.3l-7.2-7.2M102.6 54.3l-7.2-7.2M98.7 54.3l-7.2-7.2M94.6 54.3l-7.2-7.2M90.6 54.3l-7.2-7.2M86.7 54.3l-7.2-7.2M82.6 54.3l-7.2-7.2M78.6 54.3l-7.2-7.2M74.5 54.3l-7.2-7.2M70.6 54.3l-7.2-7.2M66.6 54.3l-7.2-7.2M62.5 54.3l-7.2-7.2M58.6 54.3l-6-6M54.6 54.3l-2-1.9M138.1 54.3l1.7-1.4M134 54.3l5.8-5.5M130.2 54.3l7.2-7.2M126.1 54.3l7.2-7.2M122 54.3l7.2-7.2M118.2 54.3l7.2-7.2M114.1 54.3l7.2-7.2M110 54.3l7.2-7.2M106.2 54.3l7.2-7.2M102.1 54.3l7.2-7.2M98 54.3l7.2-7.2M93.9 54.3l7.2-7.2M90.1 54.3l7.2-7.2M86 54.3l7.2-7.2M81.9 54.3l7.2-7.2M78.1 54.3l7.2-7.2M74 54.3l7.2-7.2M69.9 54.3l7.2-7.2M65.8 54.3l7.2-7.2M62 54.3l7.2-7.2M57.9 54.3l7.2-7.2M53.8 54.3l7.2-7.2M52.6 51.7l4.6-4.6M52.6 47.6l.5-.5"/><path class="cls-15" d="M139.5 54.3v-7.2H52.4v7.2h87.1"/><path class="cls-11" d="M139.8 47.1h-.3M139.8 51.2l-4.4-4.1M138.8 54.3l-7.2-7.2M134.7 54.3l-7.2-7.2M130.6 54.3l-7.2-7.2M126.8 54.3l-7.2-7.2M122.7 54.3l-7.2-7.2M118.6 54.3l-7.2-7.2M114.6 54.3l-7.2-7.2M110.7 54.3l-7.2-7.2M106.6 54.3l-7.2-7.2M102.6 54.3l-7.2-7.2M98.7 54.3l-7.2-7.2M94.6 54.3l-7.2-7.2M90.6 54.3l-7.2-7.2M86.7 54.3l-7.2-7.2M82.6 54.3l-7.2-7.2M78.6 54.3l-7.2-7.2M74.5 54.3l-7.2-7.2M70.6 54.3l-7.2-7.2M66.6 54.3l-7.2-7.2M62.5 54.3l-7.2-7.2M58.6 54.3l-6-6M54.6 54.3l-2-1.9M138.1 54.3l1.7-1.4M134 54.3l5.8-5.5M130.2 54.3l7.2-7.2M126.1 54.3l7.2-7.2M122 54.3l7.2-7.2M118.2 54.3l7.2-7.2M114.1 54.3l7.2-7.2M110 54.3l7.2-7.2M106.2 54.3l7.2-7.2M102.1 54.3l7.2-7.2M98 54.3l7.2-7.2M93.9 54.3l7.2-7.2M90.1 54.3l7.2-7.2M86 54.3l7.2-7.2M81.9 54.3l7.2-7.2M78.1 54.3l7.2-7.2M74 54.3l7.2-7.2M69.9 54.3l7.2-7.2M65.8 54.3l7.2-7.2M62 54.3l7.2-7.2M57.9 54.3l7.2-7.2M53.8 54.3l7.2-7.2M52.6 51.7l4.6-4.6M52.6 47.6l.5-.5"/><path class="cls-13" d="M52.4 54.3h87.1M52.4 47.1h87.1M52.4 47.1h87.1M52.4 54.3h87.1M52.4 54.3v-7.2"/><path class="cls-15" d="M151.5 63.2l-12 5.8h77.1l-10.4-5.8h-54.7"/><path class="cls-11" d="M213.4 69l-3.8-4.1M209.6 69l-5.8-5.8M205.5 69l-5.7-5.8M201.4 69l-5.7-5.8M197.4 69l-5.8-5.8M193.5 69l-5.7-5.8M189.4 69l-5.7-5.8M185.4 69l-5.8-5.8M181.5 69l-5.7-5.8M177.4 69l-5.7-5.8M173.4 69l-5.8-5.8M169.5 69l-5.7-5.8M165.4 69l-5.7-5.8M161.4 69l-5.8-5.8M157.3 69l-5.8-5.8M153.4 69l-4.5-4.6M149.4 69l-3.2-3.2M145.3 69l-1.7-2M141.4 69l-.7-.5M215.6 69l.5-.3M211.8 69l1.6-1.7M207.7 69l3.1-3.2M203.6 69l4.8-4.6M199.8 69l5.7-5.8M195.7 69l5.7-5.8M191.6 69l5.8-5.8M187.5 69l5.8-5.8M183.7 69l5.7-5.8M179.6 69l5.8-5.8M175.5 69l5.8-5.8M171.7 69l5.7-5.8M167.6 69l5.8-5.8M163.5 69l5.8-5.8M159.4 69l5.8-5.8M155.6 69l5.8-5.8M151.5 69l5.8-5.8M147.4 69l5.8-5.8M143.6 69l3.6-3.6"/><path class="cls-15" d="M151.5 63.2l-12 5.8h77.1l-10.4-5.8h-54.7"/><path class="cls-11" d="M213.4 69l-3.8-4.1M209.6 69l-5.8-5.8M205.5 69l-5.7-5.8M201.4 69l-5.7-5.8M197.4 69l-5.8-5.8M193.5 69l-5.7-5.8M189.4 69l-5.7-5.8M185.4 69l-5.8-5.8M181.5 69l-5.7-5.8M177.4 69l-5.7-5.8M173.4 69l-5.8-5.8M169.5 69l-5.7-5.8M165.4 69l-5.7-5.8M161.4 69l-5.8-5.8M157.3 69l-5.8-5.8M153.4 69l-4.5-4.6M149.4 69l-3.2-3.2M145.3 69l-1.7-2M141.4 69l-.7-.5M215.6 69l.5-.3M211.8 69l1.6-1.7M207.7 69l3.1-3.2M203.6 69l4.8-4.6M199.8 69l5.7-5.8M195.7 69l5.7-5.8M191.6 69l5.8-5.8M187.5 69l5.8-5.8M183.7 69l5.7-5.8M179.6 69l5.8-5.8M175.5 69l5.8-5.8M171.7 69l5.7-5.8M167.6 69l5.8-5.8M163.5 69l5.8-5.8M159.4 69l5.8-5.8M155.6 69l5.8-5.8M151.5 69l5.8-5.8M147.4 69l5.8-5.8M143.6 69l3.6-3.6"/><path class="cls-13" d="M206.2 63.2h-54.7M216.6 69h-68M216.6 69h-68M206.2 63.2h-54.7"/><path class="cls-15" d="M257.4.6l-7.2 6.9V211l7.2 7.2V.6"/><path class="cls-11" d="M257.6.8l-.2-.2M257.6 4.6l-2.2-2.1M257.6 8.7l-4.3-4.1M257.6 12.8l-6.2-6.2M257.6 16.6l-7.2-7.2M257.6 20.7l-7.2-7.2M257.6 24.8l-7.2-7.2M257.6 28.6l-7.2-7.2M257.6 32.7l-7.2-7.2M257.6 36.8l-7.2-7.2M257.6 40.9l-7.2-7.2M257.6 44.7l-7.2-7.2M257.6 48.8l-7.2-7.2M257.6 52.9l-7.2-7.2M257.6 56.7l-7.2-7.2M257.6 60.8l-7.2-7.2M257.6 64.9l-7.2-7.2M257.6 69l-7.2-7.2M257.6 72.8l-7.2-7.2M257.6 76.9l-7.2-7.2M257.6 81l-7.2-7.2M257.6 84.8l-7.2-7.2M257.6 88.9l-7.2-7.2M257.6 93l-7.2-7.2M257.6 96.8l-7.2-7.2M257.6 100.9l-7.2-7.2M257.6 105l-7.2-7.2M257.6 109l-7.2-7.2M257.6 112.9l-7.2-7.2M257.6 117l-7.2-7.2M257.6 121l-7.2-7.2M257.6 124.9l-7.2-7.2M257.6 129l-7.2-7.2M257.6 133l-7.2-7.2M257.6 136.9l-7.2-7.2M257.6 141l-7.2-7.2M257.6 145l-7.2-7.2M257.6 149.1l-7.2-7.2M257.6 153l-7.2-7.2M257.6 157l-7.2-7.2M257.6 161.1l-7.2-7.2M257.6 165l-7.2-7.2M257.6 169l-7.2-7.2M257.6 173.1l-7.2-7.2M257.6 177.2l-7.2-7.2M257.6 181l-7.2-7.2M257.6 185.1l-7.2-7.2M257.6 189.2l-7.2-7.2M257.6 193l-7.2-7.2M257.6 197.1l-7.2-7.2M257.6 201.2l-7.2-7.2M257.6 205l-7.2-7.2M257.6 209.1l-7.2-7.2M257.6 213.2l-7.2-7.2M257.6 217.3l-7.2-7.2M256.2 216.8l1.4-1.2M254.2 214.9l3.4-3.4M252.1 213l5.5-5.6M250.4 210.8l7.2-7.2M250.4 206.7l7.2-7.2M250.4 202.6l7.2-7.2M250.4 198.8l7.2-7.2M250.4 194.7l7.2-7.2M250.4 190.6l7.2-7.2M250.4 186.8l7.2-7.2M250.4 182.7l7.2-7.2M250.4 178.6l7.2-7.2M250.4 174.6l7.2-7.2M250.4 170.7l7.2-7.2M250.4 166.6l7.2-7.2M250.4 162.6l7.2-7.2M250.4 158.7l7.2-7.2M250.4 154.6l7.2-7.2M250.4 150.6l7.2-7.2M250.4 146.7l7.2-7.2M250.4 142.6l7.2-7.2M250.4 138.6l7.2-7.2M250.4 134.5l7.2-7.2M250.4 130.6l7.2-7.2M250.4 126.6l7.2-7.2M250.4 122.5l7.2-7.2M250.4 118.6l7.2-7.2M250.4 114.6l7.2-7.2M250.4 110.5l7.2-7.2M250.4 106.4l7.2-7.2M250.4 102.6l7.2-7.2M250.4 98.5l7.2-7.2M250.4 94.4l7.2-7.2M250.4 90.6l7.2-7.2M250.4 86.5l7.2-7.2M250.4 82.4l7.2-7.2M250.4 78.6l7.2-7.2M250.4 74.5l7.2-7.2M250.4 70.4l7.2-7.2M250.4 66.3l7.2-7.2M250.4 62.5l7.2-7.2M250.4 58.4l7.2-7.2M250.4 54.3l7.2-7.2M250.4 50.5l7.2-7.2M250.4 46.4l7.2-7.2M250.4 42.3l7.2-7.2M250.4 38.5l7.2-7.2M250.4 34.4l7.2-7.2M250.4 30.3l7.2-7.2M250.4 26.2l7.2-7.2M250.4 22.4l7.2-7.2M250.4 18.3l7.2-7.2M250.4 14.2l7.2-7.2M250.4 10.4l7.2-7.2"/><path class="cls-15" d="M257.4.6l-7.2 6.9V211l7.2 7.2V.6"/><path class="cls-11" d="M257.6.8l-.2-.2M257.6 4.6l-2.2-2.1M257.6 8.7l-4.3-4.1M257.6 12.8l-6.2-6.2M257.6 16.6l-7.2-7.2M257.6 20.7l-7.2-7.2M257.6 24.8l-7.2-7.2M257.6 28.6l-7.2-7.2M257.6 32.7l-7.2-7.2M257.6 36.8l-7.2-7.2M257.6 40.9l-7.2-7.2M257.6 44.7l-7.2-7.2M257.6 48.8l-7.2-7.2M257.6 52.9l-7.2-7.2M257.6 56.7l-7.2-7.2M257.6 60.8l-7.2-7.2M257.6 64.9l-7.2-7.2M257.6 69l-7.2-7.2M257.6 72.8l-7.2-7.2M257.6 76.9l-7.2-7.2M257.6 81l-7.2-7.2M257.6 84.8l-7.2-7.2M257.6 88.9l-7.2-7.2M257.6 93l-7.2-7.2M257.6 96.8l-7.2-7.2M257.6 100.9l-7.2-7.2M257.6 105l-7.2-7.2M257.6 109l-7.2-7.2M257.6 112.9l-7.2-7.2M257.6 117l-7.2-7.2M257.6 121l-7.2-7.2M257.6 124.9l-7.2-7.2M257.6 129l-7.2-7.2M257.6 133l-7.2-7.2M257.6 136.9l-7.2-7.2M257.6 141l-7.2-7.2M257.6 145l-7.2-7.2M257.6 149.1l-7.2-7.2M257.6 153l-7.2-7.2M257.6 157l-7.2-7.2M257.6 161.1l-7.2-7.2M257.6 165l-7.2-7.2M257.6 169l-7.2-7.2M257.6 173.1l-7.2-7.2M257.6 177.2l-7.2-7.2M257.6 181l-7.2-7.2M257.6 185.1l-7.2-7.2M257.6 189.2l-7.2-7.2M257.6 193l-7.2-7.2M257.6 197.1l-7.2-7.2M257.6 201.2l-7.2-7.2M257.6 205l-7.2-7.2M257.6 209.1l-7.2-7.2M257.6 213.2l-7.2-7.2M257.6 217.3l-7.2-7.2M256.2 216.8l1.4-1.2M254.2 214.9l3.4-3.4M252.1 213l5.5-5.6M250.4 210.8l7.2-7.2M250.4 206.7l7.2-7.2M250.4 202.6l7.2-7.2M250.4 198.8l7.2-7.2M250.4 194.7l7.2-7.2M250.4 190.6l7.2-7.2M250.4 186.8l7.2-7.2M250.4 182.7l7.2-7.2M250.4 178.6l7.2-7.2M250.4 174.6l7.2-7.2M250.4 170.7l7.2-7.2M250.4 166.6l7.2-7.2M250.4 162.6l7.2-7.2M250.4 158.7l7.2-7.2M250.4 154.6l7.2-7.2M250.4 150.6l7.2-7.2M250.4 146.7l7.2-7.2M250.4 142.6l7.2-7.2M250.4 138.6l7.2-7.2M250.4 134.5l7.2-7.2M250.4 130.6l7.2-7.2M250.4 126.6l7.2-7.2M250.4 122.5l7.2-7.2M250.4 118.6l7.2-7.2M250.4 114.6l7.2-7.2M250.4 110.5l7.2-7.2M250.4 106.4l7.2-7.2M250.4 102.6l7.2-7.2M250.4 98.5l7.2-7.2M250.4 94.4l7.2-7.2M250.4 90.6l7.2-7.2M250.4 86.5l7.2-7.2M250.4 82.4l7.2-7.2M250.4 78.6l7.2-7.2M250.4 74.5l7.2-7.2M250.4 70.4l7.2-7.2M250.4 66.3l7.2-7.2M250.4 62.5l7.2-7.2M250.4 58.4l7.2-7.2M250.4 54.3l7.2-7.2M250.4 50.5l7.2-7.2M250.4 46.4l7.2-7.2M250.4 42.3l7.2-7.2M250.4 38.5l7.2-7.2M250.4 34.4l7.2-7.2M250.4 30.3l7.2-7.2M250.4 26.2l7.2-7.2M250.4 22.4l7.2-7.2M250.4 18.3l7.2-7.2M250.4 14.2l7.2-7.2M250.4 10.4l7.2-7.2"/><path class="cls-13" d="M257.4 155.1V.6M257.4 218.2v-55.9M250.2 211V7.5M250.2 211V7.5M257.4 155.1V.6M257.4 218.2v-55.9"/><path class="cls-15" d="M139.5 10.6l12 7.2h70.8l-6.9-7.2h-75.9"/><path class="cls-11" d="M220.4 15.7l-5-5.1M218.5 17.8l-7.2-7.2M214.4 17.8l-7.2-7.2M210.6 17.8l-7.2-7.2M206.5 17.8l-7.2-7.2M202.4 17.8l-7.2-7.2M198.6 17.8l-7.2-7.2M194.5 17.8l-7.2-7.2M190.4 17.8l-7.2-7.2M186.3 17.8l-7.2-7.2M182.5 17.8l-7.2-7.2M178.4 17.8l-7.2-7.2M174.3 17.8l-7.2-7.2M170.5 17.8l-7.2-7.2M166.4 17.8l-7.2-7.2M162.3 17.8l-7.2-7.2M158.5 17.8l-7.2-7.2M154.4 17.8l-7.2-7.2M148.4 15.9l-5.3-5.3M218.7 17.8l1.9-1.9M214.6 17.8l4.1-3.8M210.6 17.8l6-6M206.7 17.8l7.2-7.2M202.6 17.8l7.2-7.2M198.6 17.8l7.2-7.2M194.7 17.8l7.2-7.2M190.6 17.8l7.2-7.2M186.6 17.8l7.2-7.2M182.7 17.8l7.2-7.2M178.6 17.8l7.2-7.2M174.6 17.8l7.2-7.2M170.5 17.8l7.2-7.2M166.6 17.8l7.2-7.2M162.6 17.8l7.2-7.2M158.5 17.8l7.2-7.2M154.6 17.8l7.2-7.2M151 17.4l6.8-6.8M148.4 15.9l5.3-5.3M146 14.5l3.8-3.9M143.4 12.8l2.4-2.2M141 11.4l.7-.8"/><path class="cls-15" d="M139.5 10.6l12 7.2h70.8l-6.9-7.2h-75.9"/><path class="cls-11" d="M220.4 15.7l-5-5.1M218.5 17.8l-7.2-7.2M214.4 17.8l-7.2-7.2M210.6 17.8l-7.2-7.2M206.5 17.8l-7.2-7.2M202.4 17.8l-7.2-7.2M198.6 17.8l-7.2-7.2M194.5 17.8l-7.2-7.2M190.4 17.8l-7.2-7.2M186.3 17.8l-7.2-7.2M182.5 17.8l-7.2-7.2M178.4 17.8l-7.2-7.2M174.3 17.8l-7.2-7.2M170.5 17.8l-7.2-7.2M166.4 17.8l-7.2-7.2M162.3 17.8l-7.2-7.2M158.5 17.8l-7.2-7.2M154.4 17.8l-7.2-7.2M148.4 15.9l-5.3-5.3M218.7 17.8l1.9-1.9M214.6 17.8l4.1-3.8M210.6 17.8l6-6M206.7 17.8l7.2-7.2M202.6 17.8l7.2-7.2M198.6 17.8l7.2-7.2M194.7 17.8l7.2-7.2M190.6 17.8l7.2-7.2M186.6 17.8l7.2-7.2M182.7 17.8l7.2-7.2M178.6 17.8l7.2-7.2M174.6 17.8l7.2-7.2M170.5 17.8l7.2-7.2M166.6 17.8l7.2-7.2M162.6 17.8l7.2-7.2M158.5 17.8l7.2-7.2M154.6 17.8l7.2-7.2M151 17.4l6.8-6.8M148.4 15.9l5.3-5.3M146 14.5l3.8-3.9M143.4 12.8l2.4-2.2M141 11.4l.7-.8"/><path class="cls-13" d="M215.4 10.6h-75.9M206.2 17.8h-54.7M222.3 17.8h-5.7M206.2 17.8h-54.7M215.4 10.6h-75.9M222.3 17.8h-5.7M159 20.7h39.8v29.8H159z"/><path class="cls-12" d="M207.7 18.8v35.5M204.6 37.3V23.4M201.7 50V36.1M188 201v-34.1M195.7 201v-34.1M203.4 201v-34.1M210.8 201v-34.1M210.8 69v33.8M203.4 69v33.8M195.7 69v33.8M188 69v33.8M148.6 142.6l35.6 8M182.7 102.8h33.4v64.1h-33.4zM210.8 85.8l-3.6-3.9v7.7l3.6-3.8zM182.7 161.6h-34.1M182.7 153.9h-34.1M182.7 146.5h-34.1M182.7 138.8h-34.1M182.7 131.1h-34.1M182.7 123.4h-34.1M182.7 115.8h-34.1M182.7 108.1h-34.1"/><path class="cls-12" d="M184.2 104.2h30.5v61.2h-30.5zM165.7 108.1l-3.9 3.8h7.7l-3.8-3.8zM165.7 146.5l-3.9 3.8h7.7l-3.8-3.8zM188 183.9l3.8 3.9v-7.7l-3.8 3.8z"/><path class="cls-15" d="M206.2 53.6h10.4V69l-10.4-5.8v-9.6"/><path class="cls-11" d="M216.8 56l-2.6-2.4M216.8 60.1l-6.7-6.5M216.8 64.2l-10.3-10.4M216.8 68.2l-10.3-10.3M209.6 64.9l-3.1-3.1M216.1 68.7l.7-.7M213.4 67.3l3.4-3.4M210.8 65.8l6-6M208.4 64.4l8.4-8.4M206.5 62.2l8.6-8.6M206.5 58.2l4.5-4.6M206.5 54.3l.5-.7"/><path class="cls-15" d="M216.6 53.6h-10.4v9.6l10.4 5.8V53.6"/><path class="cls-11" d="M216.8 56l-2.6-2.4M216.8 60.1l-6.7-6.5M216.8 64.2l-10.3-10.4M216.8 68.2l-10.3-10.3M209.6 64.9l-3.1-3.1M216.1 68.7l.7-.7M213.4 67.3l3.4-3.4M210.8 65.8l6-6M208.4 64.4l8.4-8.4M206.5 62.2l8.6-8.6M206.5 58.2l4.5-4.6M206.5 54.3l.5-.7"/><path class="cls-13" d="M206.2 53.6v9.6M216.6 53.6V69M216.6 53.6V69M206.2 53.6v9.6"/><path class="cls-12" d="M207.7 21v29.5"/><path class="cls-1" d="M216.6 21v29.5"/><path class="cls-12" d="M216.6 50v.5"/><path class="cls-15" d="M216.6 17.8V21h-8.9v-3.2"/><path class="cls-11" d="M216.8 20l-2.4-2.2M213.7 21l-3.1-3.2M209.6 21l-1.7-1.7M215.6 21l1.2-1.2M211.5 21l3.1-3.2M207.9 20.7l2.7-2.9"/><path class="cls-15" d="M216.6 53.6v-3.1h-8.9v3.1"/><path class="cls-11" d="M216.8 52.2l-1.7-1.7M214.2 53.6l-3.2-3.1M210.1 53.6l-2.2-2.4M215.1 53.6l1.7-1.7M211 53.6l3.2-3.1M207.9 52.9l2.2-2.4"/><path class="cls-13" d="M216.6 21h-8.9M216.6 50.5h-8.9M216.6 21h-8.9M216.6 17.8V21M216.6 50.5h-8.9M216.6 53.6v-3.1M206.2 17.8h1.5M206.2 53.6h1.5M216.6 17.8V21M216.6 53.6v-3.1M207.7 21v-3.2M207.7 50.5v3.1"/><path class="cls-15" d="M257.4 155.1v7.2h115.9v-7.2H257.4"/><path class="cls-11" d="M373.5 156.8l-1.7-1.7M373.5 160.6l-5.7-5.5M371.1 162.3l-7.2-7.2M367 162.3l-7.2-7.2M363 162.3l-7.2-7.2M358.9 162.3l-7.2-7.2M355 162.3l-7.2-7.2M351 162.3l-7.2-7.2M346.9 162.3l-7.2-7.2M343 162.3l-7.2-7.2M339 162.3l-7.2-7.2M334.9 162.3l-7.2-7.2M330.8 162.3l-7.2-7.2M327 162.3l-7.2-7.2M322.9 162.3l-7.2-7.2M318.8 162.3l-7.2-7.2M315 162.3l-7.2-7.2M310.9 162.3l-7.2-7.2M306.8 162.3l-7.2-7.2M303 162.3l-7.2-7.2M298.9 162.3l-7.2-7.2M294.8 162.3l-7.2-7.2M290.7 162.3l-7.2-7.2M286.9 162.3l-7.2-7.2M282.8 162.3l-7.2-7.2M278.7 162.3l-7.2-7.2M274.9 162.3l-7.2-7.2M270.8 162.3l-7.2-7.2M266.7 162.3l-7.2-7.2M262.9 162.3l-5.3-5.3M258.8 162.3l-1.2-1.2M370.9 162.3l2.6-2.6M366.8 162.3l6.7-6.5M363 162.3l7.2-7.2M358.9 162.3l7.2-7.2M354.8 162.3l7.2-7.2M350.7 162.3l7.2-7.2M346.9 162.3l7.2-7.2M342.8 162.3l7.2-7.2M338.7 162.3l7.2-7.2M334.9 162.3l7.2-7.2M330.8 162.3l7.2-7.2M326.7 162.3l7.2-7.2M322.6 162.3l7.2-7.2M318.8 162.3l7.2-7.2M314.7 162.3l7.2-7.2M310.6 162.3l7.2-7.2M306.8 162.3l7.2-7.2M302.7 162.3l7.2-7.2M298.6 162.3l7.2-7.2M294.8 162.3l7.2-7.2M290.7 162.3l7.2-7.2M286.6 162.3l7.2-7.2M282.6 162.3l7.2-7.2M278.7 162.3l7.2-7.2M274.6 162.3l7.2-7.2M270.6 162.3l7.2-7.2M266.7 162.3l7.2-7.2M262.6 162.3l7.2-7.2M258.6 162.3l7.2-7.2M257.6 159.4l4.3-4.3M257.6 155.4l.2-.3"/><path class="cls-15" d="M257.4 155.1v7.2h115.9v-7.2H257.4"/><path class="cls-11" d="M373.5 156.8l-1.7-1.7M373.5 160.6l-5.7-5.5M371.1 162.3l-7.2-7.2M367 162.3l-7.2-7.2M363 162.3l-7.2-7.2M358.9 162.3l-7.2-7.2M355 162.3l-7.2-7.2M351 162.3l-7.2-7.2M346.9 162.3l-7.2-7.2M343 162.3l-7.2-7.2M339 162.3l-7.2-7.2M334.9 162.3l-7.2-7.2M330.8 162.3l-7.2-7.2M327 162.3l-7.2-7.2M322.9 162.3l-7.2-7.2M318.8 162.3l-7.2-7.2M315 162.3l-7.2-7.2M310.9 162.3l-7.2-7.2M306.8 162.3l-7.2-7.2M303 162.3l-7.2-7.2M298.9 162.3l-7.2-7.2M294.8 162.3l-7.2-7.2M290.7 162.3l-7.2-7.2M286.9 162.3l-7.2-7.2M282.8 162.3l-7.2-7.2M278.7 162.3l-7.2-7.2M274.9 162.3l-7.2-7.2M270.8 162.3l-7.2-7.2M266.7 162.3l-7.2-7.2M262.9 162.3l-5.3-5.3M258.8 162.3l-1.2-1.2M370.9 162.3l2.6-2.6M366.8 162.3l6.7-6.5M363 162.3l7.2-7.2M358.9 162.3l7.2-7.2M354.8 162.3l7.2-7.2M350.7 162.3l7.2-7.2M346.9 162.3l7.2-7.2M342.8 162.3l7.2-7.2M338.7 162.3l7.2-7.2M334.9 162.3l7.2-7.2M330.8 162.3l7.2-7.2M326.7 162.3l7.2-7.2M322.6 162.3l7.2-7.2M318.8 162.3l7.2-7.2M314.7 162.3l7.2-7.2M310.6 162.3l7.2-7.2M306.8 162.3l7.2-7.2M302.7 162.3l7.2-7.2M298.6 162.3l7.2-7.2M294.8 162.3l7.2-7.2M290.7 162.3l7.2-7.2M286.6 162.3l7.2-7.2M282.6 162.3l7.2-7.2M278.7 162.3l7.2-7.2M274.6 162.3l7.2-7.2M270.6 162.3l7.2-7.2M266.7 162.3l7.2-7.2M262.6 162.3l7.2-7.2M258.6 162.3l7.2-7.2M257.6 159.4l4.3-4.3M257.6 155.4l.2-.3"/><path class="cls-13" d="M373.3 155.1H257.4M373.3 162.3H257.4M373.3 162.3H257.4M373.3 155.1H257.4M373.3 155.1v7.2"/><path class="cls-12" d="M215.4 210.8h-16.8M215.4 209.4h-15.6M215.4 210.8h-16.8M215.4 211.5h-17.6M215.4 209.4h-15.6M215.4 209.4v1.4M198.6 210.8v-6.2M199.8 209.4v-4.8M198.6 210.8v-6.2M197.8 211.5v-6.9M199.8 209.4v-4.8M90.6 279.2h88M90.6 280.6h88M90.6 279.2h88M90.6 278.5h88M90.6 280.6h88M90.6 279.2v1.4M178.6 279.2v1.4"/><path class="cls-15" d="M90.6 288.1l-5.8 4.1h99.6l-5.8-4.1h-88"/><path class="cls-11" d="M88.9 292.2l4.1-4.1M93.2 292.2l4.1-4.1M97.3 292.2l4.1-4.1M101.6 292.2l4.1-4.1M105.9 292.2l4.1-4.1M110 292.2l4.1-4.1M114.3 292.2l4.1-4.1M118.6 292.2l4.1-4.1M123 292.2l4-4.1M127 292.2l4.1-4.1M131.4 292.2l4-4.1M135.7 292.2l4.1-4.1M139.8 292.2l4-4.1M144.1 292.2l4.1-4.1M148.4 292.2l4.1-4.1M152.7 292.2l4.1-4.1M156.8 292.2l4.1-4.1M161.1 292.2l4.1-4.1M165.4 292.2l4.1-4.1M169.5 292.2l4.1-4.1M173.8 292.2l4.1-4.1M178.2 292.2l2.6-2.7M182.5 292.2l.7-1"/><path class="cls-15" d="M90.6 288.1l-5.8 4.1h99.6l-5.8-4.1h-88"/><path class="cls-11" d="M88.9 292.2l4.1-4.1M93.2 292.2l4.1-4.1M97.3 292.2l4.1-4.1M101.6 292.2l4.1-4.1M105.9 292.2l4.1-4.1M110 292.2l4.1-4.1M114.3 292.2l4.1-4.1M118.6 292.2l4.1-4.1M123 292.2l4-4.1M127 292.2l4.1-4.1M131.4 292.2l4-4.1M135.7 292.2l4.1-4.1M139.8 292.2l4-4.1M144.1 292.2l4.1-4.1M148.4 292.2l4.1-4.1M152.7 292.2l4.1-4.1M156.8 292.2l4.1-4.1M161.1 292.2l4.1-4.1M165.4 292.2l4.1-4.1M169.5 292.2l4.1-4.1M173.8 292.2l4.1-4.1M178.2 292.2l2.6-2.7M182.5 292.2l.7-1"/><path class="cls-13" d="M178.6 288.1h-88M180.1 292.2H84.8M180.1 292.2H84.8M178.6 288.1h-88"/><path class="cls-15" d="M178.6 288.1l5.8 4.1v-18.8l-5.8-4.3v19"/><path class="cls-11" d="M178.9 270.3l.5-.7M178.9 274.4l2.9-2.9M178.9 278.7l5.3-5.5M178.9 283l5.7-5.7M178.9 287.4l5.7-5.8M180.8 289.5l3.8-3.8M183.2 291.2l1.4-1.2"/><path class="cls-15" d="M178.6 288.1l5.8 4.1v-18.8l-5.8-4.3v19"/><path class="cls-11" d="M178.9 270.3l.5-.7M178.9 274.4l2.9-2.9M178.9 278.7l5.3-5.5M178.9 283l5.7-5.7M178.9 287.4l5.7-5.8M180.8 289.5l3.8-3.8M183.2 291.2l1.4-1.2"/><path class="cls-13" d="M178.6 280.6v7.5M178.6 269.1v9.4M184.4 273.4v18.8M184.4 273.4v18.8M178.6 280.6v7.5M178.6 269.1v9.4M178.6 278.5v.7M178.6 279.2v1.4M180.1 383.6h4.3"/><path class="cls-15" d="M184.4 357v-64.8h-4.3V357h4.3"/><path class="cls-11" d="M180.3 294.3l2.2-2.1M180.3 298.6l4.3-4.3M180.3 302.7l4.3-4.3M180.3 307l4.3-4.3M180.3 311.4l4.3-4.4M180.3 315.7l4.3-4.3M180.3 319.8l4.3-4.4M180.3 324.1l4.3-4.3M180.3 328.4l4.3-4.3M180.3 332.5l4.3-4.3M180.3 336.8l4.3-4.3M180.3 341.1l4.3-4.3M180.3 345.4l4.3-4.3M180.3 349.5l4.3-4.3M180.3 353.8l4.3-4.3M181.3 357l3.3-3.2"/><path class="cls-15" d="M184.4 357v-64.8h-4.3V357h4.3"/><path class="cls-11" d="M180.3 294.3l2.2-2.1M180.3 298.6l4.3-4.3M180.3 302.7l4.3-4.3M180.3 307l4.3-4.3M180.3 311.4l4.3-4.4M180.3 315.7l4.3-4.3M180.3 319.8l4.3-4.4M180.3 324.1l4.3-4.3M180.3 328.4l4.3-4.3M180.3 332.5l4.3-4.3M180.3 336.8l4.3-4.3M180.3 341.1l4.3-4.3M180.3 345.4l4.3-4.3M180.3 349.5l4.3-4.3M180.3 353.8l4.3-4.3M181.3 357l3.3-3.2"/><path class="cls-13" d="M180.1 292.2V357M184.4 292.2V357M184.4 292.2V357M180.1 292.2V357"/><path class="cls-12" d="M180.1 358.9h4.3M180.1 381.7h4.3"/><path class="cls-13" d="M180.1 357h4.3M180.1 383.6h4.3"/><path class="cls-11" d="M207.1 381.7c0-12.4-10.2-22.7-22.7-22.7M184.4 381.7h22.8"/><path class="cls-15" d="M219.7 269.1v4.3h-35.3l-5.8-4.3h41.1"/><path class="cls-11" d="M179.4 269.6l.4-.5M181.8 271.5l2.4-2.4M184.2 273.2l4.3-4.1M188.2 273.4l4.4-4.3M192.6 273.4l4.3-4.3M196.9 273.4l4.3-4.3M201.2 273.4l4.3-4.3M205.3 273.4l4.3-4.3M209.6 273.4l4.3-4.3M213.9 273.4l4.3-4.3M218 273.4l1.9-1.6"/><path class="cls-15" d="M219.7 273.4v-4.3h-41.1l5.8 4.3h35.3"/><path class="cls-11" d="M179.4 269.6l.4-.5M181.8 271.5l2.4-2.4M184.2 273.2l4.3-4.1M188.2 273.4l4.4-4.3M192.6 273.4l4.3-4.3M196.9 273.4l4.3-4.3M201.2 273.4l4.3-4.3M205.3 273.4l4.3-4.3M209.6 273.4l4.3-4.3M213.9 273.4l4.3-4.3M218 273.4l1.9-1.6"/><path class="cls-13" d="M219.7 269.1h-41.1M219.7 273.4h-35.3M219.7 273.4h-35.3M219.7 269.1h-41.1"/><path class="cls-15" d="M342.1 269.1v4.3h-97.2v-4.3h97.2"/><path class="cls-11" d="M245.1 272l2.9-2.9M247.8 273.4l4.3-4.3M252.1 273.4l4.3-4.3M256.4 273.4l4.3-4.3M260.5 273.4l4.3-4.3M264.8 273.4l4.3-4.3M269.1 273.4l4.3-4.3M273.4 273.4l4.4-4.3M277.5 273.4l4.3-4.3M281.8 273.4l4.4-4.3M286.2 273.4l4.3-4.3M290.2 273.4l4.4-4.3M294.6 273.4l4.3-4.3M298.9 273.4l4.3-4.3M303.2 273.4l4.3-4.3M307.3 273.4l4.3-4.3M311.6 273.4l4.3-4.3M315.9 273.4l4.3-4.3M320 273.4l4.3-4.3M324.3 273.4l4.3-4.3M328.6 273.4l4.4-4.3M332.7 273.4l4.3-4.3M337 273.4l4.4-4.3M341.4 273.4l.9-.9"/><path class="cls-15" d="M342.1 273.4v-4.3h-97.2v4.3h97.2"/><path class="cls-11" d="M245.1 272l2.9-2.9M247.8 273.4l4.3-4.3M252.1 273.4l4.3-4.3M256.4 273.4l4.3-4.3M260.5 273.4l4.3-4.3M264.8 273.4l4.3-4.3M269.1 273.4l4.3-4.3M273.4 273.4l4.4-4.3M277.5 273.4l4.3-4.3M281.8 273.4l4.4-4.3M286.2 273.4l4.3-4.3M290.2 273.4l4.4-4.3M294.6 273.4l4.3-4.3M298.9 273.4l4.3-4.3M303.2 273.4l4.3-4.3M307.3 273.4l4.3-4.3M311.6 273.4l4.3-4.3M315.9 273.4l4.3-4.3M320 273.4l4.3-4.3M324.3 273.4l4.3-4.3M328.6 273.4l4.4-4.3M332.7 273.4l4.3-4.3M337 273.4l4.4-4.3M341.4 273.4l.9-.9"/><path class="cls-13" d="M342.1 269.1h-97.2M249 273.4h-4.1M342.1 273.4H254M249 273.4h-4.1M342.1 269.1h-97.2M342.1 273.4H254M368 269.1v4.3"/><path class="cls-12" d="M366.3 269.1v4.3M343.8 269.1v4.3"/><path class="cls-13" d="M368 269.1v4.3M342.1 269.1v4.3"/><path class="cls-11" d="M343.7 296c12.4 0 22.7-10.2 22.7-22.7M343.8 273.4V296"/><path class="cls-1" d="M244.9 269.1h-25.2M244.9 273.4h-25.2"/><path class="cls-12" d="M243.4 269.1v4.3M220.9 269.1v4.3"/><path class="cls-13" d="M244.9 269.1v4.3M219.7 269.1v4.3"/><path class="cls-11" d="M220.8 273.4c0 12.4 10.2 22.7 22.7 22.7M243.4 273.4V296"/><path class="cls-13" d="M249 383.6h5"/><path class="cls-15" d="M254 357v-83.6h-5V357h5"/><path class="cls-11" d="M249.2 276.6l2.9-3.2M249.2 280.6l5-5M249.2 285l5-5.1M249.2 289.3l5-5.1M249.2 293.4l5-5.1M249.2 297.7l5-5.1M249.2 302l5-5M249.2 306.1l5-5.1M249.2 310.4l5-5M249.2 314.7l5-5M249.2 319l5-5M249.2 323.1l5-5M249.2 327.4l5-5M249.2 331.8l5-5.1M249.2 335.8l5-5M249.2 340.2l5-5.1M249.2 344.5l5-5.1M249.2 348.8l5-5M249.2 352.9l5-5.1M249.2 357l5-4.8M253.5 357l.7-.5"/><path class="cls-15" d="M254 357v-83.6h-5V357h5"/><path class="cls-11" d="M249.2 276.6l2.9-3.2M249.2 280.6l5-5M249.2 285l5-5.1M249.2 289.3l5-5.1M249.2 293.4l5-5.1M249.2 297.7l5-5.1M249.2 302l5-5M249.2 306.1l5-5.1M249.2 310.4l5-5M249.2 314.7l5-5M249.2 319l5-5M249.2 323.1l5-5M249.2 327.4l5-5M249.2 331.8l5-5.1M249.2 335.8l5-5M249.2 340.2l5-5.1M249.2 344.5l5-5.1M249.2 348.8l5-5M249.2 352.9l5-5.1M249.2 357l5-4.8M253.5 357l.7-.5"/><path class="cls-13" d="M249 273.4V357M254 273.4V357M254 273.4V357M249 273.4V357"/><path class="cls-12" d="M249 358.9h5M249 381.7h5"/><path class="cls-13" d="M249 357h5M249 383.6h5"/><path class="cls-11" d="M249 359c-12.4 0-22.7 10.2-22.7 22.7M249 381.7h-22.6"/><path class="cls-15" d="M144.1 218.2v-10.3h-4.6v10.3h4.6"/><path class="cls-11" d="M144.3 208.2l-.2-.3M144.3 212.2l-4.3-4.3M144.3 216.1l-4.5-4.6M142.4 218.2l-2.6-2.6M142.6 218.2l1.7-1.6M139.8 217l4.5-4.5M139.8 213.2l4.5-4.6M139.8 209.1l1.2-1.2"/><path class="cls-15" d="M144.1 218.2v-10.3h-4.6v10.3h4.6"/><path class="cls-11" d="M144.3 208.2l-.2-.3M144.3 212.2l-4.3-4.3M144.3 216.1l-4.5-4.6M142.4 218.2l-2.6-2.6M142.6 218.2l1.7-1.6M139.8 217l4.5-4.5M139.8 213.2l4.5-4.6M139.8 209.1l1.2-1.2"/><path class="cls-13" d="M139.5 207.9v10.3M144.1 207.9v10.3M139.5 218.2h4.6M144.1 207.9v10.3M139.5 207.9v10.3"/><path class="cls-15" d="M222.3 201l-6.9 6.9v10.3l6.9-7.2v-10"/><path class="cls-11" d="M222.6 202.2l-.8-.5M222.6 206.2l-2.7-2.6M222.6 210.1l-4.8-4.6M220.9 212.7l-5.1-5M219 214.6l-3.4-3.3M217 216.8l-1.4-1.4M215.6 217.5l7-6.9M215.6 213.4l7-6.9M215.6 209.4l7-7"/><path class="cls-15" d="M222.3 201l-6.9 6.9v10.3l6.9-7.2v-10"/><path class="cls-11" d="M222.6 202.2l-.8-.5M222.6 206.2l-2.7-2.6M222.6 210.1l-4.8-4.6M220.9 212.7l-5.1-5M219 214.6l-3.4-3.3M217 216.8l-1.4-1.4M215.6 217.5l7-6.9M215.6 213.4l7-6.9M215.6 209.4l7-7"/><path class="cls-13" d="M222.3 211v-10M215.4 218.2v-10.3M215.4 218.2v-10.3M222.3 211v-10"/><path class="cls-15" d="M222.3 7.5L215.4.6v10l6.9 7.2V7.5"/><path class="cls-11" d="M222.6 9.7l-7-7M222.6 13.8l-7-7M222.6 17.8l-2.2-2.1M220.6 15.9l2-1.9M218.7 14l3.9-3.8M216.6 11.8l5-5M215.6 9l4.1-4.1M215.6 5.1l2.2-2.4M215.6 1V.8"/><path class="cls-15" d="M222.3 7.5L215.4.6v10l6.9 7.2V7.5"/><path class="cls-11" d="M222.6 9.7l-7-7M222.6 13.8l-7-7M222.6 17.8l-2.2-2.1M220.6 15.9l2-1.9M218.7 14l3.9-3.8M216.6 11.8l5-5M215.6 9l4.1-4.1M215.6 5.1l2.2-2.4M215.6 1V.8"/><path class="cls-13" d="M222.3 17.8V7.5M215.4 10.6V.6M215.4 10.6V.6M222.3 17.8V7.5"/><path class="cls-15" d="M148.6 69h-9.1v138.9l9.1-6.9V69"/><path class="cls-11" d="M148.9 72.3l-3.6-3.3M148.9 76.4l-7.5-7.4M148.9 80.5l-9.1-9.1M148.9 84.3l-9.1-9.1M148.9 88.4l-9.1-9.1M148.9 92.5l-9.1-9.1M148.9 96.3l-9.1-9.1M148.9 100.4l-9.1-9.1M148.9 104.5l-9.1-9.1M148.9 108.6l-9.1-9.2M148.9 112.4l-9.1-9.1M148.9 116.5l-9.1-9.1M148.9 120.6l-9.1-9.2M148.9 124.4l-9.1-9.1M148.9 128.5l-9.1-9.1M148.9 132.6l-9.1-9.2M148.9 136.4l-9.1-9.1M148.9 140.5l-9.1-9.1M148.9 144.6l-9.1-9.2M148.9 148.6l-9.1-9.1M148.9 152.5l-9.1-9.1M148.9 156.6l-9.1-9.2M148.9 160.6l-9.1-9.1M148.9 164.5l-9.1-9.1M148.9 168.6l-9.1-9.2M148.9 172.6l-9.1-9.1M148.9 176.5l-9.1-9.1M148.9 180.6l-9.1-9.2M148.9 184.6l-9.1-9.1M148.9 188.7l-9.1-9.1M148.9 192.6l-9.1-9.2M148.9 196.6l-9.1-9.1M148.9 200.7l-9.1-9.1M146.7 202.6l-6.9-7.2M144.3 204.3l-4.5-4.8M142.2 206l-2.4-2.4M144.8 204.1l4.1-4.1M139.8 205l9.1-9.1M139.8 201.2l9.1-9.1M139.8 197.1l9.1-9.1M139.8 193l9.1-9.1M139.8 189.2l9.1-9.1M139.8 185.1l9.1-9.1M139.8 181l9.1-9.1M139.8 177l9.1-9.2M139.8 173.1l9.1-9.1M139.8 169l9.1-9.1M139.8 165l9.1-9.2M139.8 161.1l9.1-9.1M139.8 157l9.1-9.1M139.8 153l9.1-9.2M139.8 149.1l9.1-9.1M139.8 145l9.1-9.1M139.8 141l9.1-9.2M139.8 136.9l9.1-9.1M139.8 133l9.1-9.1M139.8 129l9.1-9.2M139.8 124.9l9.1-9.1M139.8 121l9.1-9.1M139.8 117l9.1-9.2M139.8 112.9l9.1-9.1M139.8 108.8l9.1-9.1M139.8 105l9.1-9.2M139.8 100.9l9.1-9.1M139.8 96.8l9.1-9.1M139.8 93l9.1-9.2M139.8 88.9l9.1-9.1M139.8 84.8l9.1-9.1M139.8 81l9.1-9.2M139.8 76.9l7.6-7.9M139.8 72.8l3.8-3.8"/><path class="cls-15" d="M148.6 69h-9.1v138.9l9.1-6.9V69"/><path class="cls-11" d="M148.9 72.3l-3.6-3.3M148.9 76.4l-7.5-7.4M148.9 80.5l-9.1-9.1M148.9 84.3l-9.1-9.1M148.9 88.4l-9.1-9.1M148.9 92.5l-9.1-9.1M148.9 96.3l-9.1-9.1M148.9 100.4l-9.1-9.1M148.9 104.5l-9.1-9.1M148.9 108.6l-9.1-9.2M148.9 112.4l-9.1-9.1M148.9 116.5l-9.1-9.1M148.9 120.6l-9.1-9.2M148.9 124.4l-9.1-9.1M148.9 128.5l-9.1-9.1M148.9 132.6l-9.1-9.2M148.9 136.4l-9.1-9.1M148.9 140.5l-9.1-9.1M148.9 144.6l-9.1-9.2M148.9 148.6l-9.1-9.1M148.9 152.5l-9.1-9.1M148.9 156.6l-9.1-9.2M148.9 160.6l-9.1-9.1M148.9 164.5l-9.1-9.1M148.9 168.6l-9.1-9.2M148.9 172.6l-9.1-9.1M148.9 176.5l-9.1-9.1M148.9 180.6l-9.1-9.2M148.9 184.6l-9.1-9.1M148.9 188.7l-9.1-9.1M148.9 192.6l-9.1-9.2M148.9 196.6l-9.1-9.1M148.9 200.7l-9.1-9.1M146.7 202.6l-6.9-7.2M144.3 204.3l-4.5-4.8M142.2 206l-2.4-2.4M144.8 204.1l4.1-4.1M139.8 205l9.1-9.1M139.8 201.2l9.1-9.1M139.8 197.1l9.1-9.1M139.8 193l9.1-9.1M139.8 189.2l9.1-9.1M139.8 185.1l9.1-9.1M139.8 181l9.1-9.1M139.8 177l9.1-9.2M139.8 173.1l9.1-9.1M139.8 169l9.1-9.1M139.8 165l9.1-9.2M139.8 161.1l9.1-9.1M139.8 157l9.1-9.1M139.8 153l9.1-9.2M139.8 149.1l9.1-9.1M139.8 145l9.1-9.1M139.8 141l9.1-9.2M139.8 136.9l9.1-9.1M139.8 133l9.1-9.1M139.8 129l9.1-9.2M139.8 124.9l9.1-9.1M139.8 121l9.1-9.1M139.8 117l9.1-9.2M139.8 112.9l9.1-9.1M139.8 108.8l9.1-9.1M139.8 105l9.1-9.2M139.8 100.9l9.1-9.1M139.8 96.8l9.1-9.1M139.8 93l9.1-9.2M139.8 88.9l9.1-9.1M139.8 84.8l9.1-9.1M139.8 81l9.1-9.2M139.8 76.9l7.6-7.9M139.8 72.8l3.8-3.8"/><path class="cls-13" d="M148.6 201V69M139.5 207.9V69M139.5 207.9V69M148.6 201V69"/><path class="cls-15" d="M151.5 17.8l-12-7.2V69l12-5.8V17.8"/><path class="cls-11" d="M151.8 19l-3.4-3.1M151.8 23.1l-12-12M151.8 27.2l-12-12M151.8 31l-12-12M151.8 35.1l-12-12M151.8 39.2l-12-12M151.8 43.3l-12-12M151.8 47.1l-12-12M151.8 51.2l-12-12M151.8 55.3l-12-12M151.8 59.1l-12-12M151.5 63.2l-11.7-12M148.9 64.4l-9.1-9.1M146.2 65.8l-6.4-6.4M143.6 67l-3.8-3.8M140.7 68.5l-.9-1.2M147.2 65.4l4.6-4.6M139.8 68.7l12-12M139.8 64.9l12-12M139.8 60.8l12-12M139.8 56.7l12-12M139.8 52.9l12-12M139.8 48.8l12-12M139.8 44.7l12-12M139.8 40.9l12-12M139.8 36.8l12-12M139.8 32.7l12-12M139.8 28.6L151 17.4M139.8 24.8l8.6-8.9M139.8 20.7l6.2-6.2M139.8 16.6l3.6-3.8M139.8 12.8l1.2-1.4"/><path class="cls-15" d="M151.5 17.8l-12-7.2V69l12-5.8V17.8"/><path class="cls-11" d="M151.8 19l-3.4-3.1M151.8 23.1l-12-12M151.8 27.2l-12-12M151.8 31l-12-12M151.8 35.1l-12-12M151.8 39.2l-12-12M151.8 43.3l-12-12M151.8 47.1l-12-12M151.8 51.2l-12-12M151.8 55.3l-12-12M151.8 59.1l-12-12M151.5 63.2l-11.7-12M148.9 64.4l-9.1-9.1M146.2 65.8l-6.4-6.4M143.6 67l-3.8-3.8M140.7 68.5l-.9-1.2M147.2 65.4l4.6-4.6M139.8 68.7l12-12M139.8 64.9l12-12M139.8 60.8l12-12M139.8 56.7l12-12M139.8 52.9l12-12M139.8 48.8l12-12M139.8 44.7l12-12M139.8 40.9l12-12M139.8 36.8l12-12M139.8 32.7l12-12M139.8 28.6L151 17.4M139.8 24.8l8.6-8.9M139.8 20.7l6.2-6.2M139.8 16.6l3.6-3.8M139.8 12.8l1.2-1.4"/><path class="cls-13" d="M151.5 63.2V17.8M139.5 47.1V10.6M139.5 69V54.3M139.5 47.1V10.6M151.5 63.2V17.8M139.5 69V54.3M57.4 269.1v4.3"/><path class="cls-15" d="M84.8 269.1v4.3l5.8-4.3h-5.8"/><path class="cls-11" d="M85 270.6l1.5-1.5M90.6 269.1"/><path class="cls-15" d="M84.8 269.1v4.3l5.8-4.3h-5.8"/><path class="cls-11" d="M85 270.6l1.5-1.5M90.6 269.1"/><path class="cls-13" d="M90.6 269.1h-5.8M90.6 269.1h-5.8"/><path class="cls-12" d="M82.4 269.1v4.3M59.8 269.1v4.3"/><path class="cls-13" d="M84.8 269.1v4.3M57.4 269.1v4.3"/><path class="cls-11" d="M59.8 273.4c0 12.4 10.2 22.7 22.7 22.7M82.4 273.4V296"/><path class="cls-15" d="M84.8 292.2l5.8-4.1v-19l-5.8 4.3v18.8"/><path class="cls-11" d="M85 274.9l5.6-5.8M85 279.2l5.8-5.8M85 283.3l5.8-5.8M85 287.6l5.8-5.8M85 291.9l5.8-5.7"/><path class="cls-15" d="M84.8 292.2l5.8-4.1v-19l-5.8 4.3v18.8"/><path class="cls-11" d="M85 274.9l5.6-5.8M85 279.2l5.8-5.8M85 283.3l5.8-5.8M85 287.6l5.8-5.8M85 291.9l5.8-5.7"/><path class="cls-13" d="M84.8 273.4v18.8M90.6 280.6v7.5M90.6 269.1v9.4M90.6 280.6v7.5M84.8 273.4v18.8M90.6 269.1v9.4M90.6 278.5v.7M90.6 279.2v1.4"/><path class="cls-1" d="M222.3 17.8h27.9"/><path class="cls-12" d="M249.7 17.8h.5"/><path class="cls-1" d="M222.3 201h27.9"/><path class="cls-12" d="M249.7 201h.5M382.9 264.1l54.9-3.4v-74.1l-54.9-3.4"/><path class="cls-12" d="M382.9 265.8l56.6-3.6v-77.1l-56.6-3.6M42.6 51.9L0 59.6v99.6l42.6 7.7"/><path class="cls-12" d="M42.6 53.6L1.8 61v96.8l40.8 7.4"/><path class="cls-15" d="M215.4 207.9l6.9-6.9h-73.7l-9.1 6.9h75.9"/><path class="cls-11" d="M221.8 201.7l-.7-.7M219.9 203.6l-2.6-2.6M217.8 205.5l-4.6-4.5M215.8 207.7l-6.7-6.7M212.2 207.9l-6.9-6.9M208.2 207.9l-7-6.9M204.1 207.9l-7-6.9M200.2 207.9l-6.9-6.9M196.2 207.9l-7-6.9M192.1 207.9l-7-6.9M188 207.9l-7-6.9M184.2 207.9l-7-6.9M180.1 207.9l-7-6.9M176 207.9l-7-6.9M172.2 207.9l-7-6.9M168.1 207.9l-7-6.9M164 207.9l-7-6.9M159.9 207.9L153 201M156.1 207.9l-7-6.9M152 207.9l-5.3-5.3M147.9 207.9l-3.6-3.6M144.1 207.9l-1.9-1.9M140 207.9l-.2-.2M213 207.9l6.9-6.9M209.1 207.9l7-6.9M205 207.9l7-6.9M201 207.9l6.9-6.9M196.9 207.9l6.9-6.9M193 207.9l7-6.9M189 207.9l6.9-6.9M184.9 207.9l6.9-6.9M181 207.9l7-6.9M177 207.9l6.9-6.9M172.9 207.9l6.9-6.9M169 207.9l7-6.9M165 207.9l6.9-6.9M160.9 207.9l6.9-6.9M156.8 207.9l7-6.9M153 207.9l6.9-6.9M148.9 207.9l6.9-6.9M144.8 207.9l7-6.9M141 207.9l3.8-3.8"/><path class="cls-15" d="M215.4 207.9l6.9-6.9h-73.7l-9.1 6.9h75.9"/><path class="cls-11" d="M221.8 201.7l-.7-.7M219.9 203.6l-2.6-2.6M217.8 205.5l-4.6-4.5M215.8 207.7l-6.7-6.7M212.2 207.9l-6.9-6.9M208.2 207.9l-7-6.9M204.1 207.9l-7-6.9M200.2 207.9l-6.9-6.9M196.2 207.9l-7-6.9M192.1 207.9l-7-6.9M188 207.9l-7-6.9M184.2 207.9l-7-6.9M180.1 207.9l-7-6.9M176 207.9l-7-6.9M172.2 207.9l-7-6.9M168.1 207.9l-7-6.9M164 207.9l-7-6.9M159.9 207.9L153 201M156.1 207.9l-7-6.9M152 207.9l-5.3-5.3M147.9 207.9l-3.6-3.6M144.1 207.9l-1.9-1.9M140 207.9l-.2-.2M213 207.9l6.9-6.9M209.1 207.9l7-6.9M205 207.9l7-6.9M201 207.9l6.9-6.9M196.9 207.9l6.9-6.9M193 207.9l7-6.9M189 207.9l6.9-6.9M184.9 207.9l6.9-6.9M181 207.9l7-6.9M177 207.9l6.9-6.9M172.9 207.9l6.9-6.9M169 207.9l7-6.9M165 207.9l6.9-6.9M160.9 207.9l6.9-6.9M156.8 207.9l7-6.9M153 207.9l6.9-6.9M148.9 207.9l6.9-6.9M144.8 207.9l7-6.9M141 207.9l3.8-3.8"/><path class="cls-13" d="M144.1 207.9h71.3M148.6 201h73.7M148.6 201h73.7M144.1 207.9h71.3"/><path class="cls-15" d="M9 70.2h24.4v18.2H9V70.2"/><path class="cls-11" d="M373.2 336.7c-11 0-20.1 9.1-20.1 20.1M353.1 357h20.2"/><path class="cls-4" d="M373.3 336.8l-4.1-.5-3.6-1.2-3.6-1.7-3.1-2.6-2.4-3.1-1.9-3.4-1.2-3.8-.3-3.9"/><path class="cls-9" d="M353.1 316.6h20.2"/><path class="cls-11" d="M52.3 231h1.9c.6 0 1.2.2 1.8.3.6.1 1.2.3 1.8.5l1.8.6c.6.2 1.1.5 1.7.8.5.3 1.1.6 1.6 1 .5.3 1 .7 1.5 1.1.5.4.9.8 1.4 1.3.4.4.9.9 1.3 1.4.4.5.8 1 1.1 1.5.3.5.7 1 1 1.6.3.5.6 1.1.8 1.7l.6 1.8c.2.6.3 1.2.5 1.8l.3 1.8v1.9M71.4 249.9h-19M52.4 231h1.4M55.3 230.7h.7M56 230.7l.7-.2"/><path class="cls-7" d="M57.9 230.2l1.7-.7"/><path class="cls-11" d="M60.8 229l.5-.2M61.3 228.8l.7-.5"/><path class="cls-8" d="M63 227.8l1.4-1.2"/><path class="cls-11" d="M65.6 225.7l.2-.3M65.8 225.4l.8-.9M67.5 223.3l.5-.7M68 222.6l.2-.5"/><path class="cls-6" d="M69 220.9l.9-1.7"/><path class="cls-11" d="M70.2 218.2l.2-.7M70.4 217.5l.2-.7"/><path class="cls-7" d="M70.9 215.6l.2-1.7"/><path class="cls-11" d="M71.4 212.5v-.5"/><path class="cls-4" d="M71.4 212h-19"/><path class="cls-11" d="M52.9 212h-.5M52.3 334.2h1.9c.6 0 1.2.2 1.8.3.6.1 1.2.3 1.8.5l1.8.6c.6.2 1.1.5 1.7.8.5.3 1.1.6 1.6 1 .5.3 1 .7 1.5 1.1.5.4.9.8 1.4 1.3.4.4.9.9 1.3 1.4.4.5.8 1 1.1 1.5.3.5.7 1 1 1.6.3.5.6 1.1.8 1.7l.6 1.8c.2.6.3 1.2.5 1.8l.3 1.8v1.9M71.4 353.1h-19M52.4 334.2h1.4M55.3 333.9h.7M56 333.9l.7-.2"/><path class="cls-7" d="M57.9 333.4l1.7-.7"/><path class="cls-11" d="M60.8 332.2l.5-.2M61.3 332l.7-.5"/><path class="cls-8" d="M63 331l1.4-1.2"/><path class="cls-11" d="M65.6 328.9l.2-.3M65.8 328.6l.8-.9M67.5 326.5l.5-.7M68 325.8l.2-.5"/><path class="cls-6" d="M69 324.1l.9-1.7"/><path class="cls-11" d="M70.2 321.4l.2-.7M70.4 320.7l.2-.7"/><path class="cls-7" d="M70.9 318.8l.2-1.7"/><path class="cls-11" d="M71.4 315.7v-.5"/><path class="cls-4" d="M71.4 315.2h-19"/><path class="cls-11" d="M52.9 315.2h-.5M373.2 233.5c-11 0-20.1 9.1-20.1 20.1M353.1 253.8h20.2"/><path class="cls-4" d="M373.3 233.6l-4.1-.5-3.6-1.2-3.6-1.7-3.1-2.6-2.4-2.9-1.9-3.6-1.2-3.8-.3-3.9"/><path class="cls-9" d="M353.1 213.4h20.2"/><path class="cls-11" d="M52.2 99.5c11 0 20.1-9.1 20.1-20.1M72.3 79.3H52.2"/><path class="cls-4" d="M52.2 99.4l4 .5 3.6 1.2 3.6 1.7 2.9 2.6 2.7 2.9 1.9 3.6.9 3.9.5 3.8"/><path class="cls-9" d="M72.3 119.6H52.2"/><path class="cls-12" d="M249 322.2h-21.4"/></g><g id="Mbel"><path class="cls-2" d="M291 274.9h45.4v56.6H291zM150.3 293.8h28.3v56.6h-28.3zM84.6 293.8h56.6v15.6H84.6zM255.7 274.9h15.4v56.6h-15.4zM271.5 256.9h56.6v10.8h-56.6zM94.2 179.8H117v50.9H94.2zM126.9 229.4v-12.8M118.4 229.4h8.5M126.9 216.6h-8.5M126.9 211.6v-12.7M118.4 211.6h8.5M126.9 198.9h-8.5M126.9 193.9v-12.7M118.4 193.9h8.5M126.9 181.2h-8.5M84.3 229.4v-12.8M92.8 229.4h-8.5M84.3 216.6h8.5M84.3 211.6v-12.7M92.8 211.6h-8.5M84.3 198.9h8.5M84.3 193.9v-12.7M92.8 193.9h-8.5M84.3 181.2h8.5M120 139.1c2.7 2.9 5.2 6.1 7.4 9.4.5.8.5 1.8 0 2.6-1.8 2.7-4.2 4.8-7.1 6.2-.9.4-1.9.3-2.6-.4-3-2.7-5.8-5.5-8.3-8.6.4-.7.9-1.2 1.4-1.7 2.4-2.3 4.9-4.4 7.4-6.5.5-.4 1.1-.8 1.7-1.1h.1"/><path class="cls-2" d="M121 139.6c.3 0 .7 0 1 .2 1.4.6 2.7 1.5 3.6 2.7 1.3 1.6 2.4 3.3 3.4 5.1.7 1.3 1.2 2.7 1.6 4.1.2.8 0 1.7-.5 2.4-2 2.7-4.6 5-7.6 6.6-.7.4-1.6.4-2.4.1-1.4-.5-2.7-1.3-3.8-2.1-1.6-1.2-3.2-2.6-4.6-4.1-1-1.1-1.8-2.5-2.1-4v-1M285.7 199H314v14.2h-28.3zM273.1 168.2v19.2l.1.1.1.1h25.9l.1-.1.1-.1v-.1-.2-18.9h-26.6M268.6 164.5v22.9l.1.1.1.1H272.6l.1-.1.1-.1v-.1-.2V164.5v-.3c0-.1-.1-.2-.2-.3 0 0-.2-.1-.3-.2H268.9c-.1 0-.2.1-.3.2 0 0-.1.2-.2.3v.3M299.8 168.2v-3.7-.2-.2-.1l.1-.1.1-.1h25.7c.1 0 .2.1.3.2 0 0 .1.2.2.3v4M326.5 170.5h-53.3"/><path class="cls-2" d="M326.4 168.2v19.2l-.1.1-.1.1h-.1-.2H300.8h-.2-.2-.1l-.1-.1-.1-.1v-.1-.2-18.9h26.6M331 164.5v22.9l-.1.1-.1.1h-.1-.2-3-.2-.2-.1l-.1-.1-.1-.1v-.1-.2V164.5v-.3c0-.1.1-.2.2-.3 0 0 .2-.1.3-.2H330.7c.1 0 .2.1.3.2s.1.2.2.3v.3M299.8 168.2v-3.7-.2-.2-.1l-.1-.1-.1-.1h-.1-.2-25.4c-.1 0-.2.1-.3.2 0 0-.1.2-.2.3v4M326.4 209.9c3.8 1.3 7.4 2.9 11 4.8.8.4 1.3 1.4 1.3 2.3-.3 3.2-1.4 6.3-3.4 8.9-.6.8-1.5 1.1-2.5.9-3.9-.9-7.7-2.2-11.4-3.7 0-.8.2-1.5.5-2.1 1-3.1 2.2-6.2 3.5-9.2.3-.6.6-1.2 1-1.8h.1"/><path class="cls-2" d="M327.6 209.9c.3-.2.6-.3 1-.3 1.5-.2 3.1 0 4.5.6 1.9.8 3.7 1.7 5.4 2.9 1.2.8 2.4 1.8 3.3 2.8.6.6.8 1.5.7 2.3-.5 3.4-1.7 6.6-3.6 9.4-.5.7-1.2 1.2-2.1 1.3-1.5.2-2.9.1-4.4 0-2-.3-4-.8-6-1.5-1.4-.5-2.7-1.4-3.8-2.5-.2-.3-.4-.5-.5-.9M80 75.7h11.5v7.7H80zM63.2 55.8h45.4v19.9H63.2zM122.5 55.8h15.6v56.6h-15.6zM91.5 354.6h11.3v7.4H91.5zM74.5 362h45.4v19.9H74.5z"/></g><g id="Text"><path d="M114.1 334.3v.6h-3.8l3-4.8h-2.7v-.6h3.8l-3 4.8h2.7zM115.9 330.2c0 .2-.2.4-.4.4s-.4-.2-.4-.4.2-.4.4-.4.4.2.4.4zm0 4.7h-.6v-3.7h.6v3.7zM117.8 331.2v.5c.3-.4.6-.6 1-.6s.8.2 1 .7c.3-.5.6-.7 1.2-.7s.7.1.9.4c.2.2.2.4.2 1v2.4h-.6v-2.2c0-.4 0-.6-.1-.7-.1-.2-.4-.3-.6-.3-.5 0-.8.4-.8 1v2.2h-.6v-2.2c0-.4 0-.5-.1-.7-.1-.2-.3-.3-.6-.3-.5 0-.9.4-.9 1v2.2h-.6v-3.7h.6zM124.1 331.2v.5c.3-.4.6-.6 1-.6s.8.2 1 .7c.3-.5.6-.7 1.2-.7s.7.1.9.4c.2.2.2.4.2 1v2.4h-.6v-2.2c0-.4 0-.6-.1-.7-.1-.2-.4-.3-.6-.3-.5 0-.8.4-.8 1v2.2h-.6v-2.2c0-.4 0-.5-.1-.7-.1-.2-.3-.3-.6-.3-.5 0-.9.4-.9 1v2.2h-.6v-3.7h.6zM130.2 333.2c0 .3 0 .5.2.7.2.3.6.5 1 .5s.9-.2 1.1-.6l.5.2c-.3.6-.9 1-1.6 1-1.1 0-1.9-.8-1.9-1.9s.8-1.9 1.9-1.9 1.9.8 1.9 1.9v.2h-3.1zm2.4-.4c0-.3 0-.4-.2-.6-.2-.3-.6-.5-1-.5s-.8.2-1 .5c-.1.2-.2.3-.2.6h2.4zM135 331.2v.6c.1-.3.2-.4.3-.5.2-.1.4-.2.7-.2h.1v.6h-.2c-.3 0-.6.2-.8.4-.2.2-.2.4-.2.9v1.9h-.6v-3.7h.6zM111.1 340.3v-.6l1.8-1.2v5.4h-.6v-4.4l-1.2.8zM114.3 342.7v-.5l2.8-3.7v3.6h.6v.6h-.6v1.2h-.6v-1.2h-2.1zm2.1-2.6l-1.5 2h1.5v-2zM119.4 343.5c0 .2-.2.4-.4.4s-.4-.2-.4-.4.2-.4.4-.4.4.2.4.4zM120.7 339.2v-.6h3l-2.1 5.3h-.7l1.9-4.7h-2zM126.9 340.2v.5c.3-.4.6-.6 1-.6s.8.2 1 .7c.3-.5.6-.7 1.2-.7s.7.1.9.4c.2.2.2.4.2 1v2.4h-.6v-2.2c0-.4 0-.6-.1-.7-.1-.2-.4-.3-.6-.3-.5 0-.8.4-.8 1v2.2h-.6v-2.2c0-.4 0-.5-.1-.7-.1-.2-.3-.3-.6-.3-.5 0-.9.4-.9 1v2.2h-.6v-3.7h.6zM134.5 341.4v.4h-2l1.2-1.6c.3-.5.4-.6.4-.8 0-.3-.2-.4-.5-.4s-.5.2-.5.6h-.4c0-.6.4-1 1-1s1 .3 1 .8-.1.5-.4.9l-.8 1.1h1.1z"/><g><path d="M78.2 102.6v.6h-3.8l3-4.8h-2.7v-.6h3.8l-3 4.8h2.7zM80 98.4c0 .2-.2.4-.4.4s-.4-.2-.4-.4.2-.4.4-.4.4.2.4.4zm0 4.7h-.6v-3.7h.6v3.7zM81.9 99.4v.5c.3-.4.6-.6 1-.6s.8.2 1 .7c.3-.5.6-.7 1.2-.7s.7.1.9.4c.2.2.2.4.2 1v2.4h-.6v-2.2c0-.4 0-.6-.1-.7-.1-.2-.4-.3-.6-.3-.5 0-.8.4-.8 1v2.2h-.6v-2.2c0-.4 0-.5-.1-.7-.1-.2-.3-.3-.6-.3-.5 0-.9.4-.9 1v2.2h-.6v-3.7h.6zM88.2 99.4v.5c.3-.4.6-.6 1-.6s.8.2 1 .7c.3-.5.6-.7 1.2-.7s.7.1.9.4c.2.2.2.4.2 1v2.4h-.6v-2.2c0-.4 0-.6-.1-.7-.1-.2-.4-.3-.6-.3-.5 0-.8.4-.8 1v2.2h-.6v-2.2c0-.4 0-.5-.1-.7-.1-.2-.3-.3-.6-.3-.5 0-.9.4-.9 1v2.2h-.6v-3.7h.6zM94.3 101.5c0 .3 0 .5.2.7.2.3.6.5 1 .5s.9-.2 1.1-.6l.5.2c-.3.6-.9 1-1.6 1-1.1 0-1.9-.8-1.9-1.9s.8-1.9 1.9-1.9 1.9.8 1.9 1.9v.2h-3.1zm2.4-.4c0-.3 0-.4-.2-.6-.2-.3-.6-.5-1-.5s-.8.2-1 .5c-.1.2-.2.3-.2.6h2.4zM99.1 99.4v.6c.1-.3.2-.4.3-.5.2-.1.4-.2.7-.2h.1v.6h-.2c-.3 0-.6.2-.8.4-.2.2-.2.4-.2.9v1.9h-.6v-3.7h.6zM75.1 108.6v-.6l1.8-1.2v5.4h-.6v-4.4l-1.2.8zM78.7 108.6v-.6l1.8-1.2v5.4h-.6v-4.4l-1.2.8zM83 111.8c0 .2-.2.4-.4.4s-.4-.2-.4-.4.2-.4.4-.4.4.2.4.4zM84.2 107.5v-.6h3l-2.1 5.3h-.7l1.9-4.7h-2zM91.4 108.4v.5c.3-.4.6-.6 1-.6s.8.2 1 .7c.3-.5.6-.7 1.2-.7s.7.1.9.4c.2.2.2.4.2 1v2.4h-.6v-2.2c0-.4 0-.6-.1-.7-.1-.2-.4-.3-.6-.3-.5 0-.8.4-.8 1v2.2H93v-2.2c0-.4 0-.5-.1-.7-.1-.2-.3-.3-.6-.3-.5 0-.9.4-.9 1v2.2h-.6v-3.7h.6zM98.9 109.6v.4h-2l1.2-1.6c.3-.5.4-.6.4-.8 0-.3-.2-.4-.5-.4s-.5.2-.5.6h-.4c0-.6.4-1 1-1s1 .3 1 .8-.1.5-.4.9l-.8 1.1H99z"/></g><g><path d="M304.3 299.1v.6h-3.8l3-4.8h-2.7v-.6h3.8l-3 4.8h2.7zM306.1 295c0 .2-.2.4-.4.4s-.4-.2-.4-.4.2-.4.4-.4.4.2.4.4zm0 4.7h-.6V296h.6v3.7zM308 296v.5c.3-.4.6-.6 1-.6s.8.2 1 .7c.3-.5.6-.7 1.2-.7s.7.1.9.4c.2.2.2.4.2 1v2.4h-.6v-2.2c0-.4 0-.6-.1-.7-.1-.2-.4-.3-.6-.3-.5 0-.8.4-.8 1v2.2h-.6v-2.2c0-.4 0-.5-.1-.7-.1-.2-.3-.3-.6-.3-.5 0-.9.4-.9 1v2.2h-.6V296h.6zM314.3 296v.5c.3-.4.6-.6 1-.6s.8.2 1 .7c.3-.5.6-.7 1.2-.7s.7.1.9.4c.2.2.2.4.2 1v2.4h-.6v-2.2c0-.4 0-.6-.1-.7-.1-.2-.4-.3-.6-.3-.5 0-.8.4-.8 1v2.2h-.6v-2.2c0-.4 0-.5-.1-.7-.1-.2-.3-.3-.6-.3-.5 0-.9.4-.9 1v2.2h-.6V296h.6zM320.4 298c0 .3 0 .5.2.7.2.3.6.5 1 .5s.9-.2 1.1-.6l.5.2c-.3.6-.9 1-1.6 1-1.1 0-1.9-.8-1.9-1.9s.8-1.9 1.9-1.9 1.9.8 1.9 1.9v.2h-3.1zm2.4-.4c0-.3 0-.4-.2-.6-.2-.3-.6-.5-1-.5s-.8.2-1 .5c-.1.2-.2.3-.2.6h2.4zM325.2 296v.6c.1-.3.2-.4.3-.5.2-.1.4-.2.7-.2h.1v.6h-.2c-.3 0-.6.2-.8.4-.2.2-.2.4-.2.9v1.9h-.6V296h.6zM301.3 305.1v-.6l1.8-1.2v5.4h-.6v-4.4l-1.2.8zM307.3 304h-1.7v1.4c.3-.1.5-.2.8-.2.9 0 1.6.7 1.6 1.7s-.8 1.8-1.8 1.8-1.3-.4-1.6-1.1l.6-.2c.1.2.2.3.3.4.2.2.5.3.8.3.6 0 1.1-.5 1.1-1.2s-.5-1.1-1.2-1.1-.8.2-1.2.5v-3h2.3v.6zM309.8 308.3c0 .2-.2.4-.4.4s-.4-.2-.4-.4.2-.4.4-.4.4.2.4.4zM312.6 306.5c-.2 0-.3.1-.5.1-.9 0-1.6-.7-1.6-1.6s.8-1.7 1.7-1.7 1.7.7 1.7 1.7-.1.7-.4 1.2l-1.5 2.5h-.7l1.3-2.1zm-1.5-1.5c0 .6.5 1.1 1.1 1.1s1.1-.5 1.1-1.1-.5-1.1-1-1.1-1.1.5-1.1 1.1z"/></g><g><path d="M154.3 238.6h-.7v-5.3h.7v2.5l2.1-2.5h.8l-2.2 2.6 2.2 2.7h-.9l-2-2.5v2.5zM161.3 236.8c0 1.1-.8 1.9-1.9 1.9s-1.9-.8-1.9-1.9.8-1.9 1.9-1.9 1.9.8 1.9 1.9zm-3.1 0c0 .8.5 1.4 1.3 1.4s1.2-.6 1.2-1.4-.5-1.4-1.2-1.4-1.3.6-1.3 1.4zM165.3 238.2c-.4.4-.8.5-1.4.5-1.1 0-1.8-.8-1.8-1.9s.8-1.9 1.8-1.9 1 .2 1.3.6l-.4.4c-.3-.3-.6-.4-.9-.4-.7 0-1.2.6-1.2 1.4s.5 1.4 1.2 1.4.6-.1.9-.4l.4.4zM166.9 235.5c.3-.4.7-.6 1.1-.6s.7.1.9.3c.2.2.3.5.3 1v2.5h-.6v-2.4c0-.5-.2-.8-.7-.8s-.5.1-.7.3c-.2.2-.2.4-.2.7v2.2h-.6v-5.3h.6v2.2zM170.8 237c0 .3 0 .5.2.7.2.3.6.5 1 .5s.9-.2 1.1-.6l.5.2c-.3.6-.9 1-1.6 1-1.1 0-1.9-.8-1.9-1.9s.8-1.9 1.9-1.9 1.9.8 1.9 1.9v.2h-3.1zm2.4-.4c0-.3 0-.4-.2-.6-.2-.3-.6-.5-1-.5s-.8.2-1 .5c-.1.2-.2.3-.2.6h2.4zM175.6 235v.5c.3-.4.6-.6 1.1-.6s.6.1.9.3c.2.2.3.5.3 1v2.5h-.6v-2.4c0-.3 0-.5-.1-.6-.1-.2-.3-.2-.6-.2s-.5.1-.7.3c-.2.2-.2.4-.2.7v2.2h-.6V235h.6zM179.1 239.9h-.4l.7-2.1.6.2-.8 1.9zM184.3 235.7h2.1v.6h-2.1v1.8h2.1v.6h-2.8v-5.3h2.8v.6h-2.1v1.8zM189.3 236c0-.4-.3-.6-.7-.6s-.7.2-.7.5.2.4.8.6c.5.1.7.2.9.4.2.2.3.4.3.7 0 .6-.5 1.1-1.3 1.1s-1.3-.4-1.4-1.1h.6c0 .4.3.6.8.6s.7-.2.7-.5-.2-.5-.8-.6c-.8-.2-1.2-.6-1.2-1.1s.5-1.1 1.3-1.1 1.3.4 1.3 1.1h-.6zM192.8 236c0-.4-.3-.6-.7-.6s-.7.2-.7.5.2.4.8.6c.5.1.7.2.9.4.2.2.3.4.3.7 0 .6-.5 1.1-1.3 1.1s-1.3-.4-1.4-1.1h.6c0 .4.3.6.8.6s.7-.2.7-.5-.2-.5-.8-.6c-.8-.2-1.2-.6-1.2-1.1s.5-1.1 1.3-1.1 1.3.4 1.3 1.1h-.6zM195 237c0 .3 0 .5.2.7.2.3.6.5 1 .5s.9-.2 1.1-.6l.5.2c-.3.6-.9 1-1.6 1-1.1 0-1.9-.8-1.9-1.9s.8-1.9 1.9-1.9 1.9.8 1.9 1.9v.2H195zm2.4-.4c0-.3 0-.4-.2-.6-.2-.3-.6-.5-1-.5s-.8.2-1 .5c-.1.2-.2.3-.2.6h2.4zM199.7 235v.5c.3-.4.6-.6 1.1-.6s.6.1.9.3c.2.2.3.5.3 1v2.5h-.6v-2.4c0-.3 0-.5-.1-.6-.1-.2-.3-.2-.6-.2s-.5.1-.7.3c-.2.2-.2.4-.2.7v2.2h-.6V235h.6zM203.3 239.9h-.4l.7-2.1.6.2-.8 1.9zM159.1 242.3h.7l-1.6 5.3h-.6l-1.2-4.2-1.2 4.2h-.6l-1.6-5.3h.7l1.2 4.1 1.2-4.1h.6l1.1 4.1 1.2-4.1zM163.9 245.8c0 1.1-.8 1.9-1.9 1.9s-1.9-.8-1.9-1.9.8-1.9 1.9-1.9 1.9.8 1.9 1.9zm-3.1 0c0 .8.5 1.4 1.3 1.4s1.2-.6 1.2-1.4-.5-1.4-1.2-1.4-1.3.6-1.3 1.4zM165.6 244.5c.3-.4.7-.6 1.1-.6s.7.1.9.3c.2.2.3.5.3 1v2.5h-.6v-2.4c0-.5-.2-.8-.7-.8s-.5.1-.7.3c-.2.2-.2.4-.2.7v2.2h-.6v-5.3h.6v2.2zM169.8 244v.5c.3-.4.6-.6 1.1-.6s.6.1.9.3c.2.2.3.5.3 1v2.5h-.6v-2.4c0-.3 0-.5-.1-.6-.1-.2-.3-.2-.6-.2s-.5.1-.7.3c-.2.2-.2.4-.2.7v2.2h-.6V244h.6zM173.8 246c0 .3 0 .5.2.7.2.3.6.5 1 .5s.9-.2 1.1-.6l.5.2c-.3.6-.9 1-1.6 1-1.1 0-1.9-.8-1.9-1.9s.8-1.9 1.9-1.9 1.9.8 1.9 1.9v.2h-3.1zm2.4-.4c0-.3 0-.4-.2-.6-.2-.3-.6-.5-1-.5s-.8.2-1 .5c-.1.2-.2.3-.2.6h2.4zM178.6 244v.5c.3-.4.6-.6 1.1-.6s.6.1.9.3c.2.2.3.5.3 1v2.5h-.6v-2.4c0-.3 0-.5-.1-.6-.1-.2-.3-.2-.6-.2s-.5.1-.7.3c-.2.2-.2.4-.2.7v2.2h-.6V244h.6zM153.5 252v-.6h3l-1.6 2c.9 0 1.6.7 1.6 1.6s-.8 1.7-1.8 1.7-1.4-.5-1.6-1.3h.6c.1.4.5.7 1 .7s1.2-.5 1.2-1.1-.5-1.1-1.2-1.1-.4 0-.6.2l-.3-.2 1.5-1.9h-1.9zM157.5 255.4v-.5l2.8-3.7v3.6h.6v.6h-.6v1.2h-.6v-1.2h-2.1zm2.1-2.6l-1.5 2h1.5v-2zM162.7 256.3c0 .2-.2.4-.4.4s-.4-.2-.4-.4.2-.4.4-.4.4.2.4.4zM163.6 255.4v-.5l2.8-3.7v3.6h.6v.6h-.6v1.2h-.6v-1.2h-2.1zm2.1-2.6l-1.5 2h1.5v-2zM171.1 253v.5c.3-.4.6-.6 1-.6s.8.2 1 .7c.3-.5.6-.7 1.2-.7s.7.1.9.4c.2.2.2.4.2 1v2.4h-.6v-2.2c0-.4 0-.6-.1-.7-.1-.2-.4-.3-.6-.3-.5 0-.8.4-.8 1v2.2h-.6v-2.2c0-.4 0-.5-.1-.7-.1-.2-.3-.3-.6-.3-.5 0-.9.4-.9 1v2.2h-.6V253h.6zM178.6 254.1v.4h-2l1.2-1.6c.3-.5.4-.6.4-.8 0-.3-.2-.4-.5-.4s-.5.2-.5.6h-.4c0-.6.4-1 1-1s1 .3 1 .8-.1.5-.4.9l-.8 1.1h1.1z"/></g><g><path d="M403.3 192.7c1.1 0 1.7.5 1.7 1.4s-.1.6-.3.9c-.1.2-.3.2-.5.3.3 0 .4.1.6.2.3.2.4.6.4 1s-.2.9-.6 1.2c-.3.2-.7.3-1.3.3h-1.5v-5.3h1.5zm-.8 2.4h.7c.4 0 .7 0 .9-.2.2-.2.3-.4.3-.7s-.2-.6-.4-.8c-.2 0-.4-.1-.9-.1h-.6v1.8zm0 2.4h.7c.6 0 .8 0 1-.2.3-.1.4-.4.4-.8 0-.6-.4-.9-1.2-.9h-.8v1.8zM409.2 194.4h.6v3.7h-.6v-.7c-.4.6-.8.8-1.3.8-1 0-1.7-.8-1.7-1.9s.7-1.9 1.8-1.9 1 .2 1.3.7v-.6zm-2.1.9c-.2.3-.3.6-.3 1 0 .8.5 1.4 1.2 1.4s1.3-.6 1.3-1.4-.5-1.4-1.2-1.4-.7.1-.9.4zM411.2 198.1v-5.3h.6v5.3h-.6zM413.7 198.1h-.6v-5.3h.6v3.3l1.5-1.6h.8l-1.6 1.8 1.6 1.9h-.8l-1.5-1.6v1.6zM420.2 196.3c0 1.1-.8 1.9-1.9 1.9s-1.9-.8-1.9-1.9.8-1.9 1.9-1.9 1.9.8 1.9 1.9zm-3.1 0c0 .8.5 1.4 1.3 1.4s1.2-.6 1.2-1.4-.5-1.4-1.2-1.4-1.3.6-1.3 1.4zM421.9 194.4v.5c.3-.4.6-.6 1.1-.6s.6.1.9.3c.2.2.3.5.3 1v2.5h-.6v-2.4c0-.3 0-.5-.1-.6-.1-.2-.3-.2-.6-.2s-.5.1-.7.3c-.2.2-.2.4-.2.7v2.2h-.6v-3.7h.6zM402.7 204c.2 0 .3-.1.5-.1.9 0 1.6.7 1.6 1.6s-.8 1.7-1.7 1.7-1.7-.8-1.7-1.7.1-.7.4-1.2l1.5-2.5h.7l-1.4 2.1zm-.7 1.5c0 .6.5 1.1 1.1 1.1s1.1-.5 1.1-1.1-.5-1.1-1.1-1.1-1.1.5-1.1 1.1zM406.7 206.7c0 .2-.2.4-.4.4s-.4-.2-.4-.4.2-.4.4-.4.4.2.4.4zM411 205.5c0 .6-.1 1-.4 1.2-.3.3-.7.4-1.2.4s-1-.2-1.2-.5c-.3-.3-.4-.6-.4-1.4v-1.8c0-.7 0-1 .3-1.3.3-.3.7-.5 1.2-.5s.9.1 1.2.4c.3.3.4.6.4 1.2v2.1zm-2.5-.1c0 .6 0 .7.2.9.2.2.5.3.8.3s.6-.1.8-.4c.1-.2.2-.4.2-.8v-2c0-.4 0-.6-.3-.8-.2-.2-.4-.2-.7-.2s-.6.1-.8.4c-.1.2-.2.4-.2.8v1.8zM415.2 203.4v.5c.3-.4.6-.6 1-.6s.8.2 1 .7c.3-.5.6-.7 1.2-.7s.7.1.9.4c.2.2.2.4.2 1v2.4h-.6v-2.2c0-.4 0-.6-.1-.7-.1-.2-.4-.3-.6-.3-.5 0-.8.4-.8 1v2.2h-.6v-2.2c0-.4 0-.5-.1-.7-.1-.2-.3-.3-.6-.3-.5 0-.9.4-.9 1v2.2h-.6v-3.7h.6zM422.8 204.6v.4h-2l1.2-1.6c.3-.5.4-.6.4-.8 0-.3-.2-.4-.5-.4s-.5.2-.5.6h-.4c0-.6.4-1 1-1s1 .3 1 .8-.1.5-.4.9l-.8 1.1h1.1z"/></g><g><path d="M11.8 71.4c1.1 0 1.7.5 1.7 1.4s-.1.6-.3.9c-.1.2-.3.2-.5.3.3 0 .4.1.6.2.3.2.4.6.4 1s-.2.9-.6 1.2c-.3.2-.7.3-1.3.3h-1.5v-5.3h1.5zm-.8 2.4h.7c.4 0 .7 0 .9-.2.2-.2.3-.4.3-.7s-.2-.6-.4-.8c-.2 0-.4-.1-.9-.1H11v1.8zm0 2.4h.7c.6 0 .8 0 1-.2.3-.1.4-.4.4-.8 0-.6-.4-.9-1.2-.9h-.8v1.8zM17.6 73h.6v3.7h-.6V76c-.4.6-.8.8-1.3.8-1 0-1.7-.8-1.7-1.9s.7-1.9 1.8-1.9 1 .2 1.3.7v-.6zm-2.1.9c-.2.3-.3.6-.3 1 0 .8.5 1.4 1.2 1.4s1.3-.6 1.3-1.4-.5-1.4-1.2-1.4-.7.1-.9.4zM19.6 76.7v-5.3h.6v5.3h-.6zM22.2 76.7h-.6v-5.3h.6v3.3l1.5-1.6h.8l-1.6 1.8 1.6 1.9h-.8l-1.5-1.6v1.6zM28.6 74.9c0 1.1-.8 1.9-1.9 1.9s-1.9-.8-1.9-1.9.8-1.9 1.9-1.9 1.9.8 1.9 1.9zm-3.1 0c0 .8.5 1.4 1.3 1.4s1.2-.6 1.2-1.4-.5-1.4-1.2-1.4-1.3.6-1.3 1.4zM30.3 73v.5c.3-.4.6-.6 1.1-.6s.6.1.9.3c.2.2.3.5.3 1v2.5H32v-2.4c0-.3 0-.5-.1-.6-.1-.2-.3-.2-.6-.2s-.5.1-.7.3c-.2.2-.2.4-.2.7v2.2h-.6V73h.6zM12.5 81h-1.7v1.4c.3-.1.5-.2.8-.2.9 0 1.6.7 1.6 1.7s-.8 1.8-1.8 1.8-1.3-.4-1.6-1.1l.6-.2c.1.2.2.3.3.4.2.2.5.3.8.3.6 0 1.1-.5 1.1-1.2s-.5-1.1-1.2-1.1-.8.2-1.2.5v-3h2.3v.6zM15.1 85.4c0 .2-.2.4-.4.4s-.4-.2-.4-.4.2-.4.4-.4.4.2.4.4zM19.4 84.1c0 .6-.1 1-.4 1.2-.3.3-.7.4-1.2.4s-1-.2-1.2-.5c-.3-.3-.4-.6-.4-1.4V82c0-.7 0-1 .3-1.3.3-.3.7-.5 1.2-.5s.9.1 1.2.4c.3.3.4.6.4 1.2v2.1zm-2.5-.1c0 .6 0 .7.2.9.2.2.5.3.8.3s.6-.1.8-.4c.1-.2.2-.4.2-.8v-2c0-.4 0-.6-.3-.8-.2-.2-.4-.2-.7-.2s-.6.1-.8.4c-.1.2-.2.4-.2.8V84zM23.6 82v.5c.3-.4.6-.6 1-.6s.8.2 1 .7c.3-.5.6-.7 1.2-.7s.7.1.9.4c.2.2.2.4.2 1v2.4h-.6v-2.2c0-.4 0-.6-.1-.7-.1-.2-.4-.3-.6-.3-.5 0-.8.4-.8 1v2.2h-.6v-2.2c0-.4 0-.5-.1-.7-.1-.2-.3-.3-.6-.3-.5 0-.9.4-.9 1v2.2H23V82h.6zM31.2 83.2v.4h-2l1.2-1.6c.3-.5.4-.6.4-.8 0-.3-.2-.4-.5-.4s-.5.2-.5.6h-.4c0-.6.4-1 1-1s1 .3 1 .8-.1.5-.4.9l-.8 1.1h1.1z"/></g><g><path d="M207.5 359.4h1.4c1.6 0 2.6 1 2.6 2.6s-.3 1.6-.8 2.1c-.5.4-1.1.6-1.9.6h-1.3v-5.3zm.7 4.8h.2c.9 0 1.3 0 1.7-.4.5-.4.7-1 .7-1.8 0-1.3-.7-2-1.9-2h-.7v4.2zM215.5 361v2.4c0 .5 0 .8-.4 1-.3.2-.6.4-1.1.4s-.8-.1-1.1-.4c-.2-.2-.4-.6-.4-1V361h.6v2.3c0 .5.3.9.8.9s.5-.1.7-.3c.1-.1.2-.3.2-.6v-2.4h.6zM218.5 362c0-.4-.3-.6-.7-.6s-.7.2-.7.5.2.4.8.6c.5.1.7.2.9.4s.3.4.3.7c0 .6-.5 1.1-1.3 1.1s-1.3-.4-1.4-1.1h.6c0 .4.3.6.8.6s.7-.2.7-.5-.2-.5-.8-.6c-.8-.2-1.2-.6-1.2-1.1s.5-1.1 1.3-1.1 1.3.4 1.3 1.1h-.6zM223.2 364.2c-.4.4-.8.5-1.4.5-1.1 0-1.8-.8-1.8-1.9s.8-1.9 1.8-1.9 1 .2 1.3.6l-.4.4c-.3-.3-.6-.4-.9-.4-.7 0-1.2.6-1.2 1.4s.5 1.4 1.2 1.4.6-.1.9-.4l.4.4zM224.7 361.5c.3-.4.7-.6 1.1-.6s.7.1.9.3c.2.2.3.5.3 1v2.5h-.6v-2.4c0-.5-.2-.8-.7-.8s-.5.1-.7.3c-.2.2-.2.4-.2.7v2.2h-.6v-5.3h.6v2.2zM228.7 363.1c0 .3 0 .5.2.7.2.3.6.5 1 .5s.9-.2 1.1-.6l.5.2c-.3.6-.9 1-1.6 1-1.1 0-1.9-.8-1.9-1.9s.8-1.9 1.9-1.9 1.9.8 1.9 1.9v.2h-3.1zm2.4-.4c0-.3 0-.4-.2-.6-.2-.3-.6-.5-1-.5s-.8.2-1 .5c-.1.2-.2.3-.2.6h2.4zM207.4 369v-.6h3l-1.6 2c.9 0 1.6.7 1.6 1.6s-.8 1.7-1.8 1.7-1.4-.5-1.6-1.3h.6c.1.4.5.7 1 .7s1.2-.5 1.2-1.1-.5-1.1-1.2-1.1-.4 0-.6.2l-.3-.2 1.5-1.9h-1.9zM212.3 373.4c0 .2-.2.4-.4.4s-.4-.2-.4-.4.2-.4.4-.4.4.2.4.4zM216.3 371.2c.3.3.4.6.4 1 0 .9-.7 1.6-1.7 1.6s-1.6-.6-1.6-1.6.1-.8.4-1.1c.2-.2.3-.3.6-.4-.3 0-.4-.2-.5-.4-.2-.2-.3-.5-.3-.8 0-.8.6-1.3 1.5-1.3s1.4.6 1.4 1.3-.1.6-.3.8c-.1.2-.3.2-.5.3.3 0 .4.2.6.3zm-2.3 1c0 .6.5 1 1 1s1-.5 1-1-.5-1-1-1-1 .5-1 1zm.2-2.5c0 .5.4.8.8.8s.9-.4.9-.8-.4-.8-.8-.8-.9.3-.9.8zM220.8 370v.5c.3-.4.6-.6 1-.6s.8.2 1 .7c.3-.5.6-.7 1.2-.7s.7.1.9.4c.2.2.2.4.2 1v2.4h-.6v-2.2c0-.4 0-.6-.1-.7-.1-.2-.4-.3-.6-.3-.5 0-.8.4-.8 1v2.2h-.6v-2.2c0-.4 0-.5-.1-.7-.1-.2-.3-.3-.6-.3-.5 0-.9.4-.9 1v2.2h-.6V370h.6zM228.4 371.2v.4h-2l1.2-1.6c.3-.5.4-.6.4-.8 0-.3-.2-.4-.5-.4s-.5.2-.5.6h-.4c0-.6.4-1 1-1s1 .3 1 .8-.1.5-.4.9l-.8 1.1h1.1z"/></g><g><path d="M215.1 290.9c1.1 0 1.7.5 1.7 1.4s-.1.6-.3.9c-.1.2-.3.2-.5.3.3 0 .4.1.6.2.3.2.4.6.4 1s-.2.9-.6 1.2c-.3.2-.7.3-1.3.3h-1.5v-5.3h1.5zm-.8 2.4h.7c.4 0 .7 0 .9-.2.2-.2.3-.4.3-.7s-.2-.6-.4-.8c-.2 0-.4-.1-.9-.1h-.6v1.8zm0 2.4h.7c.6 0 .8 0 1-.2.3-.1.4-.4.4-.8 0-.6-.4-.9-1.2-.9h-.8v1.8zM221 292.6h.6v3.7h-.6v-.7c-.4.6-.8.8-1.3.8-1 0-1.7-.8-1.7-1.9s.7-1.9 1.8-1.9 1 .2 1.3.7v-.6zm-2.1.9c-.2.3-.3.6-.3 1 0 .8.5 1.4 1.2 1.4s1.3-.6 1.3-1.4-.5-1.4-1.2-1.4-.7.1-.9.4zM225.8 290.9h.6v5.3h-.6v-.6c-.4.5-.8.7-1.3.7-1 0-1.7-.8-1.7-1.9s.7-2 1.7-2 1 .2 1.3.6v-2.2zm-2.4 3.5c0 .8.5 1.4 1.2 1.4s1.2-.6 1.2-1.4-.5-1.4-1.2-1.4-1.2.6-1.2 1.4zM213.5 300.6v-.6h3l-1.6 2c.9 0 1.6.7 1.6 1.6s-.8 1.7-1.8 1.7-1.4-.5-1.6-1.3h.6c.1.4.5.7 1 .7s1.2-.5 1.2-1.1-.5-1.1-1.2-1.1-.4 0-.6.2l-.3-.2 1.5-1.9h-1.9zM218.4 304.9c0 .2-.2.4-.4.4s-.4-.2-.4-.4.2-.4.4-.4.4.2.4.4zM222.4 302.7c.3.3.4.6.4 1 0 .9-.7 1.6-1.7 1.6s-1.6-.6-1.6-1.6.1-.8.4-1.1c.2-.2.3-.3.6-.4-.3 0-.4-.2-.5-.4-.2-.2-.3-.5-.3-.8 0-.8.6-1.3 1.5-1.3s1.4.6 1.4 1.3-.1.6-.3.8c-.1.2-.3.2-.5.3.3 0 .4.2.6.3zm-2.3 1c0 .6.5 1 1 1s1-.5 1-1-.5-1-1-1-1 .5-1 1zm.2-2.5c0 .5.4.8.8.8s.9-.4.9-.8-.4-.8-.8-.8-.9.3-.9.8zM226.9 301.6v.5c.3-.4.6-.6 1-.6s.8.2 1 .7c.3-.5.6-.7 1.2-.7s.7.1.9.4c.2.2.2.4.2 1v2.4h-.6v-2.2c0-.4 0-.6-.1-.7-.1-.2-.4-.3-.6-.3-.5 0-.8.4-.8 1v2.2h-.6v-2.2c0-.4 0-.5-.1-.7-.1-.2-.3-.3-.6-.3-.5 0-.9.4-.9 1v2.2h-.6v-3.7h.6zM234.5 302.7v.4h-2l1.2-1.6c.3-.5.4-.6.4-.8 0-.3-.2-.4-.5-.4s-.5.2-.5.6h-.4c0-.6.4-1 1-1s1 .3 1 .8-.1.5-.4.9l-.8 1.1h1.1z"/></g><g><path d="M176.6 38.3v.6h-2.5v-5.3h.7v4.7h1.9zM178.2 34.1c0 .2-.2.4-.4.4s-.4-.2-.4-.4.2-.4.4-.4.4.2.4.4zm0 4.7h-.6v-3.7h.6v3.7zM180.2 38.9h-.6v-3.2h-.5v-.5h.5v-.5c0-.7.4-1.2 1-1.2h.2v.5c-.4 0-.6.2-.6.6v.5h.6v.5h-.6v3.2zM182.6 38.1c0 .2 0 .2.3.2h.3v.5h-.6c-.4 0-.6-.2-.6-.6v-2.6h-.5v-.5h.5v-1.2h.6v1.2h.6v.5h-.6V38z"/></g></g></svg>