<svg xmlns="http://www.w3.org/2000/svg" viewBox="0 0 568.5 408.7"><defs><style>.cls-1,.cls-10,.cls-11,.cls-12,.cls-13,.cls-14,.cls-15,.cls-16,.cls-17,.cls-18,.cls-19,.cls-2,.cls-20,.cls-21,.cls-22,.cls-23,.cls-3,.cls-4,.cls-5,.cls-6,.cls-7,.cls-8,.cls-9{fill:none;stroke-linecap:round;stroke-linejoin:round}.cls-1,.cls-10,.cls-11,.cls-12,.cls-13,.cls-14,.cls-15,.cls-16,.cls-17,.cls-18,.cls-19,.cls-2,.cls-20,.cls-22,.cls-23,.cls-3,.cls-4,.cls-5,.cls-6,.cls-8,.cls-9{stroke-width:.1px}.cls-1,.cls-10,.cls-11,.cls-15,.cls-17,.cls-18,.cls-20,.cls-21,.cls-22,.cls-3,.cls-4,.cls-6,.cls-8,.cls-9{stroke:#194164}.cls-1,.cls-10,.cls-11,.cls-15,.cls-18,.cls-6,.cls-8,.cls-9{stroke-dasharray:0 0 0 0 2.9 1.4 .2 1.4}.cls-2{stroke:#646464}.cls-12,.cls-13,.cls-14,.cls-16,.cls-17,.cls-22,.cls-23,.cls-3,.cls-4,.cls-5{stroke-dasharray:0 0 1.4 1.4}.cls-4{stroke-dashoffset:1px}.cls-24,.cls-25{fill:#fff}.cls-12,.cls-13,.cls-14,.cls-16,.cls-19,.cls-23,.cls-5{stroke:#969696}.cls-6{stroke-dashoffset:1.4px}.cls-7{stroke:#000;stroke-width:.3px}.cls-8{stroke-dashoffset:4.3px}.cls-9{stroke-dashoffset:2.6px}.cls-10{stroke-dashoffset:1.2px}.cls-11{stroke-dashoffset:1px}.cls-12{stroke-dashoffset:1.1px}.cls-13{stroke-dashoffset:2.7px}.cls-14{stroke-dashoffset:2.5px}.cls-15{stroke-dashoffset:2.4px}.cls-16,.cls-18,.cls-22{stroke-dashoffset:.7px}.cls-25,.cls-26{fill-rule:evenodd}.cls-17{stroke-dashoffset:.2px}.cls-21{stroke-width:.3px}.cls-23{stroke-dashoffset:1.2px}</style></defs><g id="Plan"><path class="cls-21" d="M153.7 335.4h39.6v29.8h-39.6z"/><path class="cls-20" d="M144.8 333.7V369M147.7 351.9V338M150.6 364.6v-13.9M202.2 333.7V369M199.3 351.9V338M196.4 364.6v-13.9"/><path class="cls-25" d="M200.7 375.2l5.8-7h-5.8v7"/><path class="cls-19" d="M204.8 370.4l-2.4-2.2M202.9 372.6l-1.9-2M201.2 375l-.2-.3M201 374.5l2.8-2.9M201 370.6l2.1-2.4"/><path class="cls-25" d="M200.7 375.2l5.8-7h-5.8v7"/><path class="cls-19" d="M204.8 370.4l-2.4-2.2M202.9 372.6l-1.9-2M201.2 375l-.2-.3M201 374.5l2.8-2.9M201 370.6l2.1-2.4"/><path class="cls-21" d="M200.7 368.2v7M200.7 368.2v7"/><path class="cls-25" d="M206.7 332.5v-7l-6 7h6"/><path class="cls-19" d="M207 328.4l-1.5-1.2M206.7 332.5l-3.1-3.1M202.9 332.5l-1.2-1M202.9 332.5l4.1-4.1"/><path class="cls-25" d="M206.7 332.5v-7l-6 7h6"/><path class="cls-19" d="M207 328.4l-1.5-1.2M206.7 332.5l-3.1-3.1M202.9 332.5l-1.2-1M202.9 332.5l4.1-4.1"/><path class="cls-21" d="M206.7 325.5v7M206.7 325.5v7"/><path class="cls-20" d="M202.2 335.6v29.5"/><path class="cls-1" d="M206.7 335.6v29.5"/><path class="cls-20" d="M206.7 364.6v.5"/><path class="cls-25" d="M206.7 332.5v3.1h-4.5v-3.1"/><path class="cls-19" d="M207 332.5h-.3M206 335.6l-3.1-3.1M203.8 335.6l3.2-3.1M202.4 333l.5-.5"/><path class="cls-25" d="M206.7 368.2v-3.1h-4.5v3.1"/><path class="cls-19" d="M206.5 368.2l-3.1-3.1M202.4 368.2v-.2M203.1 368.2l3.1-3.1M202.4 365.1"/><path class="cls-21" d="M206.7 335.6h-4.5M206.7 365.1h-4.5M206.7 335.6h-4.5M206.7 332.5v3.1M206.7 365.1h-4.5M206.7 368.2v-3.1M200.7 332.5h1.5M200.7 368.2h1.5M206.7 332.5v3.1M206.7 368.2v-3.1M202.2 335.6v-3.1M202.2 365.1v3.1"/><path class="cls-25" d="M436.9 318.5c.9-1.3.9-3 0-4.3-1.5-1.9-3.8-2.9-6.2-2.9l-9 .3v9.6l9 .3c2.4 0 4.7-1 6.2-2.9"/><path class="cls-20" d="M436.9 318.5c.9-1.3.9-3 0-4.3-1.5-1.9-3.8-2.9-6.2-2.9l-9 .3v9.6l9 .3c2.4 0 4.7-1 6.2-2.9"/><path class="cls-25" d="M426.8 316.4c0 1 .3 2 1.1 2.8.7.7 1.7 1.2 2.7 1.2 2.1 0 4.1-.9 5.4-2.5.6-.9.6-2 0-2.9-1.3-1.6-3.3-2.5-5.4-2.5-1 0-2 .4-2.7 1.2-.7.7-1.1 1.7-1.1 2.8"/><path class="cls-20" d="M426.8 316.4c0 1 .3 2 1.1 2.8.7.7 1.7 1.2 2.7 1.2 2.1 0 4.1-.9 5.4-2.5.6-.9.6-2 0-2.9-1.3-1.6-3.3-2.5-5.4-2.5-1 0-2 .4-2.7 1.2-.7.7-1.1 1.7-1.1 2.8"/><path class="cls-25" d="M422.1 367.7h48l.1-.1h.1v-.1l.1-.1V346.7l-.1-.1-.1-.1h-.1v-.1H422l-.1.1h-.1v.1h-.1v.1l-.1.1v20.6h.1v.1l.1.1.1.1h.2"/><path class="cls-20" d="M422.1 367.7h48l.1-.1h.1v-.1l.1-.1V346.7l-.1-.1-.1-.1h-.1v-.1H422l-.1.1h-.1v.1h-.1v.1l-.1.1v20.6h.1v.1l.1.1.1.1h.2"/><path class="cls-25" d="M427.3 365.6h37.4c.4 0 .9 0 1.3-.3.4-.2.8-.4 1.1-.7.3-.3.6-.7.7-1.1.2-.4.3-.9.3-1.3V352c0-.4 0-.9-.3-1.3-.2-.4-.4-.8-.7-1.1-.3-.3-.7-.6-1.1-.7-.4-.2-.9-.3-1.3-.3h-37.4c-.4 0-.9 0-1.3.3-.4.2-.8.4-1.1.7-.3.3-.6.7-.7 1.1-.2.4-.3.9-.3 1.3v10.2c0 .4 0 .9.3 1.3.2.4.4.8.7 1.1s.7.6 1.1.7c.4.2.9.3 1.3.3"/><path class="cls-20" d="M427.3 365.6h37.4c.4 0 .9 0 1.3-.3.4-.2.8-.4 1.1-.7.3-.3.6-.7.7-1.1.2-.4.3-.9.3-1.3V352c0-.4 0-.9-.3-1.3-.2-.4-.4-.8-.7-1.1-.3-.3-.7-.6-1.1-.7-.4-.2-.9-.3-1.3-.3h-37.4c-.4 0-.9 0-1.3.3-.4.2-.8.4-1.1.7-.3.3-.6.7-.7 1.1-.2.4-.3.9-.3 1.3v10.2c0 .4 0 .9.3 1.3.2.4.4.8.7 1.1s.7.6 1.1.7c.4.2.9.3 1.3.3M421 288.6v36.2"/><path class="cls-7" d="M421.8 288.6v36.9"/><path class="cls-20" d="M419.6 288.6v34.8M421 288.6v36.2M421.8 288.6v36.9M419.6 288.6v34.8M417.2 324.8v18.5"/><path class="cls-7" d="M417.9 325.5v17.1"/><path class="cls-20" d="M415.8 323.4v21.3M417.2 324.8v18.5M417.9 325.5v17.1M415.8 323.4v21.3M421 343.3V368"/><path class="cls-7" d="M421.8 342.6V368"/><path class="cls-20" d="M419.6 344.7V368M421 343.3V368M421.8 342.6V368M419.6 344.7V368"/><path class="cls-25" d="M421.6 341.9H434c.1 0 .3-.1.4-.2.1-.1.2-.2.2-.4V327.6v-.4c0-.1-.1-.3-.2-.4-.1-.1-.2-.2-.4-.2h-12.4v15.6"/><path class="cls-20" d="M421.6 341.9H434c.1 0 .3-.1.4-.2.1-.1.2-.2.2-.4V327.6v-.4c0-.1-.1-.3-.2-.4-.1-.1-.2-.2-.4-.2h-12.4v15.6"/><path class="cls-17" d="M421.8 325.5h-3.9"/><path class="cls-4" d="M417.9 325.5v17.1"/><path class="cls-17" d="M417.9 342.6h3.9"/><path class="cls-20" d="M417.2 343.3h3.8"/><path class="cls-7" d="M417.9 342.6h3.9"/><path class="cls-20" d="M415.8 344.7h3.8M417.2 343.3h3.8M417.9 342.6h3.9M415.8 344.7h3.8M421 324.8h-3.8"/><path class="cls-7" d="M421.8 325.5h-3.9"/><path class="cls-20" d="M419.6 323.4h-3.8M421 324.8h-3.8M421.8 325.5h-3.9M419.6 323.4h-3.8"/><path class="cls-7" d="M421.8 325.5v17.1"/><path class="cls-20" d="M371.8 57.2h17.5v79h-17.5zM387 58.4h2.4M387 67h2.4M387 84.1h2.4M387 100.9h2.4M387 117.9h2.4"/><path class="cls-25" d="M377 117h9.3c.1 0 .3 0 .4-.1.1 0 .2-.1.3-.2s.2-.2.3-.2c0 0 .2-.2.2-.3 0-.1.1-.2.2-.3 0-.1 0-.2.1-.4v-11.6-.4c0-.1 0-.3-.1-.4 0-.1-.1-.2-.2-.3 0-.1-.2-.2-.2-.3 0 0-.2-.2-.3-.2-.1 0-.2-.1-.3-.2s-.2 0-.4-.1H376.6c-.1 0-.3 0-.4.1s-.2.1-.3.2c-.1 0-.2.2-.3.2 0 0-.2.2-.2.3 0 .1-.1.2-.2.3 0 .1 0 .2-.1.4v12c0 .1 0 .3.1.4 0 .1.1.2.2.3 0 .1.2.2.2.3 0 0 .2.2.3.2s.2.1.3.2c.1 0 .2 0 .4.1h.4"/><path class="cls-20" d="M377 117h9.3c.1 0 .3 0 .4-.1.1 0 .2-.1.3-.2s.2-.2.3-.2c0 0 .2-.2.2-.3 0-.1.1-.2.2-.3 0-.1 0-.2.1-.4v-11.6-.4c0-.1 0-.3-.1-.4 0-.1-.1-.2-.2-.3 0-.1-.2-.2-.2-.3 0 0-.2-.2-.3-.2-.1 0-.2-.1-.3-.2s-.2 0-.4-.1H376.6c-.1 0-.3 0-.4.1s-.2.1-.3.2c-.1 0-.2.2-.3.2 0 0-.2.2-.2.3 0 .1-.1.2-.2.3 0 .1 0 .2-.1.4v12c0 .1 0 .3.1.4 0 .1.1.2.2.3 0 .1.2.2.2.3 0 0 .2.2.3.2s.2.1.3.2c.1 0 .2 0 .4.1h.4"/><path class="cls-25" d="M379.5 109.5c0-.7-.5-1.2-1.2-1.2s-1.2.5-1.2 1.2.5 1.2 1.2 1.2 1.2-.5 1.2-1.2"/><path class="cls-20" d="M379.5 109.5c0-.7-.5-1.2-1.2-1.2s-1.2.5-1.2 1.2.5 1.2 1.2 1.2 1.2-.5 1.2-1.2"/><path class="cls-24" d="M373.3 67.5h14.6v15.8h-14.6z"/><path class="cls-20" d="M373.3 67.5h14.6v15.8h-14.6z"/><path class="cls-25" d="M386 71.4c0-1.6-1.3-2.9-2.9-2.9s-2.9 1.3-2.9 2.9 1.3 2.9 2.9 2.9 2.9-1.3 2.9-2.9"/><path class="cls-20" d="M386 71.4c0-1.6-1.3-2.9-2.9-2.9s-2.9 1.3-2.9 2.9 1.3 2.9 2.9 2.9 2.9-1.3 2.9-2.9"/><path class="cls-25" d="M378.6 70.4c0-1.2-1-2.2-2.2-2.2s-2.2 1-2.2 2.2 1 2.2 2.2 2.2 2.2-1 2.2-2.2"/><path class="cls-20" d="M378.6 70.4c0-1.2-1-2.2-2.2-2.2s-2.2 1-2.2 2.2 1 2.2 2.2 2.2 2.2-1 2.2-2.2"/><path class="cls-25" d="M385.5 79c0-1.2-1-2.2-2.3-2.2s-2.3 1-2.3 2.2 1 2.2 2.3 2.2 2.3-1 2.3-2.2"/><path class="cls-20" d="M385.5 79c0-1.2-1-2.2-2.3-2.2s-2.3 1-2.3 2.2 1 2.2 2.3 2.2 2.3-1 2.3-2.2"/><path class="cls-25" d="M379.5 78.8c0-1.6-1.2-2.9-2.8-2.9s-2.8 1.3-2.8 2.9 1.2 2.9 2.8 2.9 2.8-1.3 2.8-2.9"/><path class="cls-20" d="M379.5 78.8c0-1.6-1.2-2.9-2.8-2.9s-2.8 1.3-2.8 2.9 1.2 2.9 2.8 2.9 2.8-1.3 2.8-2.9"/><path class="cls-1" d="M381.9 136.2v-79"/><path class="cls-20" d="M387 135h2.4"/><path class="cls-26" d="M544.4 57.2V42.6h23.8v14.6h-23.8"/><path class="cls-25" d="M544.4 42.6v3.3h23.8v-3.3h-23.8"/><path class="cls-19" d="M544.6 44.7l1 1.2M546.3 42.6l3.4 3.3M550.4 42.6l3.4 3.3M554.2 42.6l3.4 3.3M558.3 42.6l3.4 3.3M562.4 42.6l3.4 3.3M566.2 42.6l2.2 1.9"/><path class="cls-25" d="M544.4 45.9v.7h23.8v-.7h-23.8M544.4 46.6v5.6h23.8v-5.6h-23.8"/><path class="cls-19" d="M568.2 52.2v-5.6M566.7 52.2v-5.6M565.3 52.2v-5.6M563.8 52.2v-5.6M562.4 52.2v-5.6M561.2 52.2v-5.6M559.8 52.2v-5.6M558.3 52.2v-5.6M556.9 52.2v-5.6M555.4 52.2v-5.6M554 52.2v-5.6M552.6 52.2v-5.6M551.1 52.2v-5.6M549.7 52.2v-5.6M548.2 52.2v-5.6M546.8 52.2v-5.6M545.6 52.2v-5.6"/><path class="cls-25" d="M544.4 52.2v5h23.8v-5h-23.8"/><path class="cls-19" d="M544.6 56.7l.3.5M544.6 52.9l4.4 4.3M547.8 52.2l5 5M551.8 52.2l5.1 5M555.9 52.2l5.1 5M560 52.2l5 5M563.8 52.2l4.6 4.3M567.9 52.2l.5.4"/><path class="cls-21" d="M544.4 45.9h23.8M544.4 42.6h23.8"/><path class="cls-19" d="M544.4 52.2h23.8M544.4 46.6h23.8"/><path class="cls-21" d="M544.4 57.2h23.8M544.4 52.2h23.8"/><path class="cls-20" d="M544.4 42.6h23.8M544.4 57.2h23.8"/><path class="cls-26" d="M452.2 57.2V42.6h51.4v14.6h-51.4"/><path class="cls-25" d="M452.2 42.6v3.3h51.4v-3.3h-51.4"/><path class="cls-19" d="M452.5 45l.9.9M454.2 42.6l3.3 3.3M458 42.6l3.4 3.3M462.1 42.6l3.3 3.3M466.2 42.6l3.3 3.3M470 42.6l3.4 3.3M474.1 42.6l3.3 3.3M478.2 42.6l3.3 3.3M482.2 42.6l3.4 3.3M486.1 42.6l3.3 3.3M490.2 42.6l3.3 3.3M494.2 42.6l3.4 3.3M498.1 42.6l3.3 3.3M502.2 42.6l1.6 1.4"/><path class="cls-25" d="M452.2 45.9v.7h51.4v-.7h-51.4M452.2 46.6v5.6h51.4v-5.6h-51.4"/><path class="cls-19" d="M502.9 52.2v-5.6M501.4 52.2v-5.6M500.2 52.2v-5.6M498.8 52.2v-5.6M497.4 52.2v-5.6M495.9 52.2v-5.6M494.5 52.2v-5.6M493 52.2v-5.6M491.6 52.2v-5.6M490.2 52.2v-5.6M488.7 52.2v-5.6M487.3 52.2v-5.6M486.1 52.2v-5.6M484.6 52.2v-5.6M483.2 52.2v-5.6M481.8 52.2v-5.6M480.3 52.2v-5.6M478.9 52.2v-5.6M477.4 52.2v-5.6M476 52.2v-5.6M474.6 52.2v-5.6M473.1 52.2v-5.6M471.7 52.2v-5.6M470.5 52.2v-5.6M469 52.2v-5.6M467.6 52.2v-5.6M466.2 52.2v-5.6M464.7 52.2v-5.6M463.3 52.2v-5.6M461.8 52.2v-5.6M460.4 52.2v-5.6M459 52.2v-5.6M457.5 52.2v-5.6M456.3 52.2v-5.6M454.9 52.2v-5.6M453.4 52.2v-5.6"/><path class="cls-25" d="M452.2 52.2v5h51.4v-5h-51.4"/><path class="cls-19" d="M452.5 57l.2.2M452.5 52.9l4.3 4.3M455.6 52.2l5 5M459.7 52.2l5 5M463.8 52.2l5 5M467.6 52.2l5 5M471.7 52.2l5 5M475.8 52.2l5 5M479.6 52.2l5 5M483.7 52.2l5 5M487.8 52.2l5 5M491.8 52.2l5.1 5M495.7 52.2l5 5M499.8 52.2l4 3.8"/><path class="cls-21" d="M452.2 45.9h51.4M452.2 42.6h51.4"/><path class="cls-19" d="M452.2 52.2h51.4M452.2 46.6h51.4"/><path class="cls-21" d="M452.2 57.2h51.4M452.2 52.2h51.4"/><path class="cls-20" d="M452.2 42.6h51.4M452.2 57.2h51.4"/><path class="cls-26" d="M362 57.2V42.6h27.4v14.6H362"/><path class="cls-25" d="M362 42.6v3.3h27.4v-3.3H362"/><path class="cls-19" d="M362.2 42.8l2.9 3.1M365.8 42.6l3.4 3.3M369.9 42.6l3.4 3.3M374 42.6l3.4 3.3M377.8 42.6l3.4 3.3M381.9 42.6l3.4 3.3M386 42.6l3.4 3.3"/><path class="cls-25" d="M362 45.9v.7h27.4v-.7H362M362 46.6v5.6h27.4v-5.6H362"/><path class="cls-19" d="M388.2 52.2v-5.6M386.7 52.2v-5.6M385.3 52.2v-5.6M383.8 52.2v-5.6M382.4 52.2v-5.6M381.2 52.2v-5.6M379.8 52.2v-5.6M378.3 52.2v-5.6M376.9 52.2v-5.6M375.4 52.2v-5.6M374 52.2v-5.6M372.6 52.2v-5.6M371.1 52.2v-5.6M369.7 52.2v-5.6M368.2 52.2v-5.6M366.8 52.2v-5.6M365.6 52.2v-5.6M364.2 52.2v-5.6M362.7 52.2v-5.6"/><path class="cls-25" d="M362 52.2v5h27.4v-5H362"/><path class="cls-19" d="M362.2 54.8l2.2 2.4M363.4 52.2l5.1 5M367.5 52.2l5.1 5M371.4 52.2l5 5M375.4 52.2l5.1 5M379.5 52.2l5.1 5M383.6 52.2l5 5M387.4 52.2l2.2 1.9"/><path class="cls-21" d="M362 45.9h27.4M362 42.6h27.4"/><path class="cls-19" d="M362 52.2h27.4M362 46.6h27.4"/><path class="cls-21" d="M362 57.2h27.4M362 52.2h27.4"/><path class="cls-20" d="M362 42.6h27.4M362 57.2h27.4M505.5 50v-7.4h-3.6v-2h43.9v2h-3.3V50"/><path class="cls-1" d="M503.6 57.2h40.8"/><path class="cls-20" d="M543.9 57.2h.5"/><path class="cls-21" d="M505.5 42.6h-3.6M542.5 42.6h3.3"/><path class="cls-20" d="M503.6 50h40.8v2.2h-40.8zM507.2 50v2.2M540.8 50v2.2M503.6 52.2V50M521.8 52.2V50M507.2 52.2V50M525.9 52.2V50M521.8 52.2V50M540.8 52.2V50M525.9 52.2V50M544.4 52.2V50"/><path class="cls-25" d="M503.6 46.5h1.8v3.4h-1.8"/><path class="cls-19" d="M504.3 50v-3.4M503.6 46.5h1.8v3.4h-1.8"/><path class="cls-21" d="M503.6 52.2v5"/><path class="cls-25" d="M503.6 42.6h1.9v3.3h-1.9"/><path class="cls-19" d="M503.8 44l1.7 1.9"/><path class="cls-21" d="M503.6 42.6h1.9v3.3h-1.9M505.5 45.9V50"/><path class="cls-25" d="M544.4 46.5h-1.9v3.4h1.9"/><path class="cls-19" d="M544.2 50v-3.4M542.7 50v-3.4M544.4 46.5h-1.9v3.4h1.9"/><path class="cls-21" d="M544.4 52.2v5"/><path class="cls-25" d="M544.4 42.6h-1.9v3.3h1.9"/><path class="cls-19" d="M542.7 42.8l1.9 1.9"/><path class="cls-21" d="M544.4 42.6h-1.9v3.3h1.9M542.5 45.9V50"/><path class="cls-20" d="M391.3 50v-7.4h-3.6v-2h66.2v2h-3.6V50"/><path class="cls-1" d="M389.4 57.2h62.8"/><path class="cls-21" d="M391.3 42.6h-3.6M450.3 42.6h3.6"/><path class="cls-20" d="M389.4 50h62.9v2.2h-62.9zM393 50v2.2M448.6 50v2.2M389.4 52.2V50M408.3 52.2V50M393 52.2V50M412.4 52.2V50M408.3 52.2V50M429.2 52.2V50M412.4 52.2V50M433.3 52.2V50M429.2 52.2V50M448.6 52.2V50M433.3 52.2V50M452.2 52.2V50"/><path class="cls-25" d="M389.3 46.5h1.9v3.4h-1.9"/><path class="cls-19" d="M391 50v-3.4M389.6 50v-3.4M389.3 46.5h1.9v3.4h-1.9"/><path class="cls-21" d="M389.4 52.2v5"/><path class="cls-25" d="M389.4 42.6h1.9v3.3h-1.9"/><path class="cls-19" d="M389.8 42.6l1.7 1.4"/><path class="cls-21" d="M389.4 42.6h1.9v3.3h-1.9M391.3 45.9V50"/><path class="cls-25" d="M452.3 46.5h-1.9v3.4h1.9"/><path class="cls-19" d="M452 50v-3.4M450.6 50v-3.4M452.3 46.5h-1.9v3.4h1.9"/><path class="cls-21" d="M452.2 52.2v5"/><path class="cls-25" d="M452.2 42.6h-1.9v3.3h1.9"/><path class="cls-19" d="M450.6 43l1.9 2"/><path class="cls-21" d="M452.2 42.6h-1.9v3.3h1.9M450.3 45.9V50"/><path class="cls-26" d="M441 368v14.6h-28.1V368H441"/><path class="cls-25" d="M441 382.6v-3.3h-28.1v3.3H441"/><path class="cls-19" d="M413.1 382.4l.3.2M414.1 379.3l3.3 3.3M417.9 379.3l3.4 3.3M422 379.3l3.4 3.3M426.1 379.3l3.3 3.3M429.9 379.3l3.4 3.3M434 379.3l3.4 3.3M438.1 379.3l3.1 3.1"/><path class="cls-25" d="M441 379.3v-.5h-28.1v.5H441M441 378.8V373h-28.1v5.8H441"/><path class="cls-19" d="M413.6 373v5.8M415 373v5.8M416.5 373v5.8M417.9 373v5.8M419.4 373v5.8M420.8 373v5.8M422.2 373v5.8M423.7 373v5.8M425.1 373v5.8M426.3 373v5.8M427.8 373v5.8M429.2 373v5.8M430.6 373v5.8M432.1 373v5.8M433.5 373v5.8M435 373v5.8M436.4 373v5.8M437.8 373v5.8M439.3 373v5.8M440.7 373v5.8"/><path class="cls-25" d="M441 373v-5h-28.1v5H441"/><path class="cls-19" d="M413.1 370.4l2.7 2.6M414.8 368l5 5M418.6 368l5.1 5M422.7 368l5.1 5M426.8 368l5 5M430.6 368l5.1 5M434.7 368l5.1 5M438.8 368l2.4 2.4"/><path class="cls-21" d="M441 379.3h-28.1M441 382.6h-28.1"/><path class="cls-19" d="M441 373h-28.1M441 378.8h-28.1"/><path class="cls-21" d="M441 368h-28.1M441 373h-28.1"/><path class="cls-20" d="M441 382.6h-28.1M441 368h-28.1"/><path class="cls-26" d="M500 368v14.6h-40.3V368H500"/><path class="cls-25" d="M500 382.6v-3.3h-40.3v3.3H500"/><path class="cls-19" d="M459.9 381l1.5 1.6M462.1 379.3l3.3 3.3M466.2 379.3l3.3 3.3M470 379.3l3.4 3.3M474.1 379.3l3.3 3.3M478.2 379.3l3.3 3.3M482.2 379.3l3.4 3.3M486.1 379.3l3.3 3.3M490.2 379.3l3.3 3.3M494.2 379.3l3.4 3.3M498.1 379.3l2.1 1.9"/><path class="cls-25" d="M500 379.3v-.5h-40.3v.5H500M500 378.8V373h-40.3v5.8H500"/><path class="cls-19" d="M460.4 373v5.8M461.8 373v5.8M463.3 373v5.8M464.7 373v5.8M466.2 373v5.8M467.6 373v5.8M469 373v5.8M470.5 373v5.8M471.7 373v5.8M473.1 373v5.8M474.6 373v5.8M476 373v5.8M477.4 373v5.8M478.9 373v5.8M480.3 373v5.8M481.8 373v5.8M483.2 373v5.8M484.6 373v5.8M486.1 373v5.8M487.3 373v5.8M488.7 373v5.8M490.2 373v5.8M491.6 373v5.8M493 373v5.8M494.5 373v5.8M495.9 373v5.8M497.4 373v5.8M498.8 373v5.8"/><path class="cls-25" d="M500 373v-5h-40.3v5H500"/><path class="cls-19" d="M459.9 369l3.9 4M462.8 368l5 5M466.9 368l5 5M471 368l5 5M474.8 368l5 5M478.9 368l5 5M483 368l5 5M486.8 368l5 5M490.9 368l5 5M495 368l5 5M498.8 368l1.4 1.2"/><path class="cls-21" d="M500 379.3h-40.3M500 382.6h-40.3"/><path class="cls-19" d="M500 373h-40.3M500 378.8h-40.3"/><path class="cls-21" d="M500 368h-40.3M500 373h-40.3"/><path class="cls-20" d="M500 382.6h-40.3M500 368h-40.3"/><path class="cls-26" d="M568.2 368v14.6h-27.4V368h27.4"/><path class="cls-25" d="M568.2 382.6v-3.3h-27.4v3.3h27.4"/><path class="cls-19" d="M541 381.9l.5.7M542.2 379.3l3.4 3.3M546.3 379.3l3.4 3.3M550.2 379.3l3.3 3.3M554.2 379.3l3.4 3.3M558.3 379.3l3.4 3.3M562.4 379.3l3.4 3.3M566.2 379.3l2.2 1.9"/><path class="cls-25" d="M568.2 379.3v-.5h-27.4v.5h27.4M568.2 378.8V373h-27.4v5.8h27.4"/><path class="cls-19" d="M541.3 373v5.8M542.7 373v5.8M544.2 373v5.8M545.6 373v5.8M546.8 373v5.8M548.2 373v5.8M549.7 373v5.8M551.1 373v5.8M552.6 373v5.8M554 373v5.8M555.4 373v5.8M556.9 373v5.8M558.3 373v5.8M559.8 373v5.8M561.2 373v5.8M562.4 373v5.8M563.8 373v5.8M565.3 373v5.8M566.7 373v5.8M568.2 373v5.8"/><path class="cls-25" d="M568.2 373v-5h-27.4v5h27.4"/><path class="cls-19" d="M541 369.9l2.9 3.1M543 368l5 5M547 368l5.1 5M551.1 368l5.1 5M555 368l5 5M559 368l5.1 5M563.1 368l5.1 5M567 368l1.4 1.2"/><path class="cls-21" d="M568.2 379.3h-27.4M568.2 382.6h-27.4"/><path class="cls-19" d="M568.2 373h-27.4M568.2 378.8h-27.4"/><path class="cls-21" d="M568.2 368h-27.4M568.2 373h-27.4"/><path class="cls-20" d="M568.2 382.6h-27.4M568.2 368h-27.4M538.9 375.4v7.2h3.3v2h-43.9v-2h3.4v-7.2"/><path class="cls-1" d="M540.8 368H500"/><path class="cls-20" d="M500.5 368h-.5"/><path class="cls-21" d="M538.9 382.6h3.3M501.7 382.6h-3.4"/><path class="cls-20" d="M500 373h40.8v2.4H500zM537 375.4V373M503.6 375.4V373M540.8 373v2.4M522.3 373v2.4M537 373v2.4M518.2 373v2.4M522.3 373v2.4M503.6 373v2.4M518.2 373v2.4M500 373v2.4"/><path class="cls-25" d="M540.7 378.8h-1.8v-3.4h1.8"/><path class="cls-19" d="M539.8 375.4v3.4M540.7 378.8h-1.8v-3.4h1.8"/><path class="cls-21" d="M540.8 373v-5"/><path class="cls-25" d="M540.8 382.6h-1.9v-3.3h1.9"/><path class="cls-19" d="M539.1 380l1.9 1.9"/><path class="cls-21" d="M540.8 382.6h-1.9v-3.3h1.9M538.9 379.3v-3.9"/><path class="cls-25" d="M499.9 378.8h1.8v-3.4h-1.8"/><path class="cls-19" d="M500.2 375.4v3.4M501.4 375.4v3.4M499.9 378.8h1.8v-3.4h-1.8"/><path class="cls-21" d="M500 373v-5"/><path class="cls-25" d="M500 382.6h1.7v-3.3H500"/><path class="cls-19" d="M500.2 381.2l1.2 1.4"/><path class="cls-21" d="M500 382.6h1.7v-3.3H500M501.7 379.3v-3.9"/><path class="cls-20" d="M459.7 373v-5H441v5M457.8 375.4v7.2h3.3v2h-21.8v-2h3.6v-7.2M457.8 382.6h-14.9"/><path class="cls-21" d="M457.8 382.6h3.3M442.9 382.6h-3.6"/><path class="cls-20" d="M441 373h18.7v2.4H441zM455.8 375.4V373M444.6 375.4V373M459.7 373v2.4M444.6 373v2.4M455.8 373v2.4M441 373v2.4"/><path class="cls-21" d="M459.7 373v-5"/><path class="cls-20" d="M457.8 379.3h-7.5"/><path class="cls-25" d="M459.6 378.8h-1.8v-3.4h1.8"/><path class="cls-19" d="M459 375.4v3.4M459.6 378.8h-1.8v-3.4h1.8"/><path class="cls-25" d="M459.7 382.6h-1.9v-3.3h1.9"/><path class="cls-19" d="M458 379.3l1.9 1.7"/><path class="cls-21" d="M459.7 382.6h-1.9v-3.3h1.9M457.8 379.3v-3.9M441 373v-5"/><path class="cls-20" d="M442.9 379.3h7.4"/><path class="cls-25" d="M440.9 378.8h1.9v-3.4h-1.9"/><path class="cls-19" d="M441.9 375.4v3.4M440.9 378.8h1.9v-3.4h-1.9"/><path class="cls-25" d="M441 382.6h1.9v-3.3H441"/><path class="cls-19" d="M441.2 382.4l.2.2M441.9 379.3l1.2.9"/><path class="cls-21" d="M441 382.6h1.9v-3.3H441M442.9 379.3v-3.9"/><path class="cls-26" d="M379.3 379.3l3.3 3.3h30.3V373H373v5.8h5.8v.5h.5"/><path class="cls-25" d="M379.3 379.3l3.3 3.3h30.3v-3.3h-33.6"/><path class="cls-19" d="M381.9 379.3l3.4 3.3M386 379.3l3.4 3.3M389.8 379.3l3.4 3.3M393.9 379.3l3.4 3.3M398 379.3l3.4 3.3M401.8 379.3l3.4 3.3M405.9 379.3l3.4 3.3M410 379.3l3.1 3.1"/><path class="cls-25" d="M378.8 378.8v.5h34.1v-.5h-34.1M373 373v5.8h39.9V373H373"/><path class="cls-19" d="M374 373v5.8M375.4 373v5.8M376.9 373v5.8M378.3 373v5.8M379.8 373v5.8M381.2 373v5.8M382.4 373v5.8M383.8 373v5.8M385.3 373v5.8M386.7 373v5.8M388.2 373v5.8M389.6 373v5.8M391 373v5.8M392.5 373v5.8M393.9 373v5.8M395.4 373v5.8M396.6 373v5.8M398 373v5.8M399.4 373v5.8M400.9 373v5.8M402.3 373v5.8M403.8 373v5.8M405.2 373v5.8M406.6 373v5.8M408.1 373v5.8M409.5 373v5.8M411 373v5.8M412.2 373v5.8"/><path class="cls-21" d="M412.9 379.3h-33.6M412.9 382.6h-30.3"/><path class="cls-19" d="M412.9 373H373M412.9 378.8h-34.1"/><path class="cls-20" d="M412.9 382.6h-30.3M412.9 373H373"/><path class="cls-19" d="M378.8 378.8H373M373 378.8V373"/><path class="cls-20" d="M373 373h-5"/><path class="cls-25" d="M568.2 373H561V52.2h7.2V373"/><path class="cls-19" d="M568.4 52.6l-.5-.4M568.4 56.5l-4.6-4.3M568.4 60.6l-7.2-7.2M568.4 64.6l-7.2-7.2M568.4 68.5l-7.2-7.2M568.4 72.6l-7.2-7.2M568.4 76.6l-7.2-7.2M568.4 80.5l-7.2-7.2M568.4 84.6l-7.2-7.2M568.4 88.6l-7.2-7.2M568.4 92.7l-7.2-7.2M568.4 96.6l-7.2-7.2M568.4 100.6l-7.2-7.2M568.4 104.7l-7.2-7.2M568.4 108.6l-7.2-7.2M568.4 112.6l-7.2-7.2M568.4 116.7l-7.2-7.2M568.4 120.6l-7.2-7.2M568.4 124.6l-7.2-7.2M568.4 128.7l-7.2-7.2M568.4 132.8l-7.2-7.2M568.4 136.6l-7.2-7.2M568.4 140.7l-7.2-7.2M568.4 144.8l-7.2-7.2M568.4 148.6l-7.2-7.2M568.4 152.7l-7.2-7.2M568.4 156.8l-7.2-7.2M568.4 160.9l-7.2-7.2M568.4 164.7l-7.2-7.2M568.4 168.8l-7.2-7.2M568.4 172.9l-7.2-7.2M568.4 176.7l-7.2-7.2M568.4 180.8l-7.2-7.2M568.4 184.9l-7.2-7.2M568.4 188.7l-7.2-7.2M568.4 192.8l-7.2-7.2M568.4 196.9l-7.2-7.2M568.4 201l-7.2-7.2M568.4 204.8l-7.2-7.2M568.4 208.9l-7.2-7.2M568.4 213l-7.2-7.2M568.4 216.8l-7.2-7.2M568.4 220.9l-7.2-7.2M568.4 225l-7.2-7.2M568.4 228.8l-7.2-7.2M568.4 232.9l-7.2-7.2M568.4 237l-7.2-7.2M568.4 241l-7.2-7.2M568.4 244.9l-7.2-7.2M568.4 249l-7.2-7.2M568.4 253l-7.2-7.2M568.4 256.9l-7.2-7.2M568.4 261l-7.2-7.2M568.4 265l-7.2-7.2M568.4 269.1l-7.2-7.2M568.4 273l-7.2-7.2M568.4 277l-7.2-7.2M568.4 281.1l-7.2-7.2M568.4 285l-7.2-7.2M568.4 289l-7.2-7.2M568.4 293.1l-7.2-7.2M568.4 297l-7.2-7.2M568.4 301l-7.2-7.2M568.4 305.1l-7.2-7.2M568.4 309.2l-7.2-7.2M568.4 313l-7.2-7.2M568.4 317.1l-7.2-7.2M568.4 321.2l-7.2-7.2M568.4 325l-7.2-7.2M568.4 329.1l-7.2-7.2M568.4 333.2l-7.2-7.2M568.4 337l-7.2-7.2M568.4 341.1l-7.2-7.2M568.4 345.2l-7.2-7.2M568.4 349.3l-7.2-7.2M568.4 353.1l-7.2-7.2M568.4 357.2l-7.2-7.2M568.4 361.3l-7.2-7.2M568.4 365.1l-7.2-7.2M568.4 369.2l-7.2-7.2M568.2 373l-7-6.9M564.1 373l-2.9-2.8M567.2 373l1.2-1.2M563.1 373l5.3-5M561.2 371.1l7.2-7.2M561.2 367l7.2-7.2M561.2 363.2l7.2-7.2M561.2 359.1l7.2-7.2M561.2 355l7.2-7.2M561.2 351.2l7.2-7.2M561.2 347.1l7.2-7.2M561.2 343l7.2-7.2M561.2 339l7.2-7.2M561.2 335.1l7.2-7.2M561.2 331l7.2-7.2M561.2 327l7.2-7.2M561.2 323.1l7.2-7.2M561.2 319l7.2-7.2M561.2 315l7.2-7.2M561.2 311.1l7.2-7.2M561.2 307l7.2-7.2M561.2 303l7.2-7.2M561.2 298.9l7.2-7.2M561.2 295l7.2-7.2M561.2 291l7.2-7.2M561.2 286.9l7.2-7.2M561.2 283l7.2-7.2M561.2 279l7.2-7.2M561.2 274.9l7.2-7.2M561.2 270.8l7.2-7.2M561.2 267l7.2-7.2M561.2 262.9l7.2-7.2M561.2 258.8l7.2-7.2M561.2 255l7.2-7.2M561.2 250.9l7.2-7.2M561.2 246.8l7.2-7.2M561.2 243l7.2-7.2M561.2 238.9l7.2-7.2M561.2 234.8l7.2-7.2M561.2 230.7l7.2-7.2M561.2 226.9l7.2-7.2M561.2 222.8l7.2-7.2M561.2 218.7l7.2-7.2M561.2 214.9l7.2-7.2M561.2 210.8l7.2-7.2M561.2 206.7l7.2-7.2M561.2 202.9l7.2-7.2M561.2 198.8l7.2-7.2M561.2 194.7l7.2-7.2M561.2 190.6l7.2-7.2M561.2 186.8l7.2-7.2M561.2 182.7l7.2-7.2M561.2 178.6l7.2-7.2M561.2 174.8l7.2-7.2M561.2 170.7l7.2-7.2M561.2 166.6l7.2-7.2M561.2 162.6l7.2-7.2M561.2 158.7l7.2-7.2M561.2 154.6l7.2-7.2M561.2 150.6l7.2-7.2M561.2 146.7l7.2-7.2M561.2 142.6l7.2-7.2M561.2 138.6l7.2-7.2M561.2 134.7l7.2-7.2M561.2 130.6l7.2-7.2M561.2 126.6l7.2-7.2M561.2 122.5l7.2-7.2M561.2 118.6l7.2-7.2M561.2 114.6l7.2-7.2M561.2 110.5l7.2-7.2M561.2 106.6l7.2-7.2M561.2 102.6l7.2-7.2M561.2 98.5l7.2-7.2M561.2 94.6l7.2-7.2M561.2 90.6l7.2-7.2M561.2 86.5l7.2-7.2M561.2 82.4l7.2-7.2M561.2 78.6l7.2-7.2M561.2 74.5l7.2-7.2M561.2 70.4l7.2-7.2M561.2 66.6l7.2-7.2M561.2 62.5l7.2-7.2M561.2 58.4l6.2-6.2M561.2 54.3l2.2-2.1"/><path class="cls-25" d="M561 373h7.2V52.2H561V373"/><path class="cls-19" d="M568.4 52.6l-.5-.4M568.4 56.5l-4.6-4.3M568.4 60.6l-7.2-7.2M568.4 64.6l-7.2-7.2M568.4 68.5l-7.2-7.2M568.4 72.6l-7.2-7.2M568.4 76.6l-7.2-7.2M568.4 80.5l-7.2-7.2M568.4 84.6l-7.2-7.2M568.4 88.6l-7.2-7.2M568.4 92.7l-7.2-7.2M568.4 96.6l-7.2-7.2M568.4 100.6l-7.2-7.2M568.4 104.7l-7.2-7.2M568.4 108.6l-7.2-7.2M568.4 112.6l-7.2-7.2M568.4 116.7l-7.2-7.2M568.4 120.6l-7.2-7.2M568.4 124.6l-7.2-7.2M568.4 128.7l-7.2-7.2M568.4 132.8l-7.2-7.2M568.4 136.6l-7.2-7.2M568.4 140.7l-7.2-7.2M568.4 144.8l-7.2-7.2M568.4 148.6l-7.2-7.2M568.4 152.7l-7.2-7.2M568.4 156.8l-7.2-7.2M568.4 160.9l-7.2-7.2M568.4 164.7l-7.2-7.2M568.4 168.8l-7.2-7.2M568.4 172.9l-7.2-7.2M568.4 176.7l-7.2-7.2M568.4 180.8l-7.2-7.2M568.4 184.9l-7.2-7.2M568.4 188.7l-7.2-7.2M568.4 192.8l-7.2-7.2M568.4 196.9l-7.2-7.2M568.4 201l-7.2-7.2M568.4 204.8l-7.2-7.2M568.4 208.9l-7.2-7.2M568.4 213l-7.2-7.2M568.4 216.8l-7.2-7.2M568.4 220.9l-7.2-7.2M568.4 225l-7.2-7.2M568.4 228.8l-7.2-7.2M568.4 232.9l-7.2-7.2M568.4 237l-7.2-7.2M568.4 241l-7.2-7.2M568.4 244.9l-7.2-7.2M568.4 249l-7.2-7.2M568.4 253l-7.2-7.2M568.4 256.9l-7.2-7.2M568.4 261l-7.2-7.2M568.4 265l-7.2-7.2M568.4 269.1l-7.2-7.2M568.4 273l-7.2-7.2M568.4 277l-7.2-7.2M568.4 281.1l-7.2-7.2M568.4 285l-7.2-7.2M568.4 289l-7.2-7.2M568.4 293.1l-7.2-7.2M568.4 297l-7.2-7.2M568.4 301l-7.2-7.2M568.4 305.1l-7.2-7.2M568.4 309.2l-7.2-7.2M568.4 313l-7.2-7.2M568.4 317.1l-7.2-7.2M568.4 321.2l-7.2-7.2M568.4 325l-7.2-7.2M568.4 329.1l-7.2-7.2M568.4 333.2l-7.2-7.2M568.4 337l-7.2-7.2M568.4 341.1l-7.2-7.2M568.4 345.2l-7.2-7.2M568.4 349.3l-7.2-7.2M568.4 353.1l-7.2-7.2M568.4 357.2l-7.2-7.2M568.4 361.3l-7.2-7.2M568.4 365.1l-7.2-7.2M568.4 369.2l-7.2-7.2M568.2 373l-7-6.9M564.1 373l-2.9-2.8M567.2 373l1.2-1.2M563.1 373l5.3-5M561.2 371.1l7.2-7.2M561.2 367l7.2-7.2M561.2 363.2l7.2-7.2M561.2 359.1l7.2-7.2M561.2 355l7.2-7.2M561.2 351.2l7.2-7.2M561.2 347.1l7.2-7.2M561.2 343l7.2-7.2M561.2 339l7.2-7.2M561.2 335.1l7.2-7.2M561.2 331l7.2-7.2M561.2 327l7.2-7.2M561.2 323.1l7.2-7.2M561.2 319l7.2-7.2M561.2 315l7.2-7.2M561.2 311.1l7.2-7.2M561.2 307l7.2-7.2M561.2 303l7.2-7.2M561.2 298.9l7.2-7.2M561.2 295l7.2-7.2M561.2 291l7.2-7.2M561.2 286.9l7.2-7.2M561.2 283l7.2-7.2M561.2 279l7.2-7.2M561.2 274.9l7.2-7.2M561.2 270.8l7.2-7.2M561.2 267l7.2-7.2M561.2 262.9l7.2-7.2M561.2 258.8l7.2-7.2M561.2 255l7.2-7.2M561.2 250.9l7.2-7.2M561.2 246.8l7.2-7.2M561.2 243l7.2-7.2M561.2 238.9l7.2-7.2M561.2 234.8l7.2-7.2M561.2 230.7l7.2-7.2M561.2 226.9l7.2-7.2M561.2 222.8l7.2-7.2M561.2 218.7l7.2-7.2M561.2 214.9l7.2-7.2M561.2 210.8l7.2-7.2M561.2 206.7l7.2-7.2M561.2 202.9l7.2-7.2M561.2 198.8l7.2-7.2M561.2 194.7l7.2-7.2M561.2 190.6l7.2-7.2M561.2 186.8l7.2-7.2M561.2 182.7l7.2-7.2M561.2 178.6l7.2-7.2M561.2 174.8l7.2-7.2M561.2 170.7l7.2-7.2M561.2 166.6l7.2-7.2M561.2 162.6l7.2-7.2M561.2 158.7l7.2-7.2M561.2 154.6l7.2-7.2M561.2 150.6l7.2-7.2M561.2 146.7l7.2-7.2M561.2 142.6l7.2-7.2M561.2 138.6l7.2-7.2M561.2 134.7l7.2-7.2M561.2 130.6l7.2-7.2M561.2 126.6l7.2-7.2M561.2 122.5l7.2-7.2M561.2 118.6l7.2-7.2M561.2 114.6l7.2-7.2M561.2 110.5l7.2-7.2M561.2 106.6l7.2-7.2M561.2 102.6l7.2-7.2M561.2 98.5l7.2-7.2M561.2 94.6l7.2-7.2M561.2 90.6l7.2-7.2M561.2 86.5l7.2-7.2M561.2 82.4l7.2-7.2M561.2 78.6l7.2-7.2M561.2 74.5l7.2-7.2M561.2 70.4l7.2-7.2M561.2 66.6l7.2-7.2M561.2 62.5l7.2-7.2M561.2 58.4l6.2-6.2M561.2 54.3l2.2-2.1"/><path class="cls-21" d="M568.2 373V52.2M561 373V52.2M568.2 52.2H561M561 210.6V52.2M568.2 373V52.2M561 373V214.9M568.2 373H561"/><path class="cls-25" d="M146.2 332.5l-7.4-7v7h7.4"/><path class="cls-19" d="M142.6 332.5l-3.6-3.9M142.6 332.5l2-1.7M139 332.2l3.4-3.3M139 328.2l1.2-1.2"/><path class="cls-25" d="M146.2 332.5l-7.4-7v7h7.4"/><path class="cls-19" d="M142.6 332.5l-3.6-3.9M142.6 332.5l2-1.7M139 332.2l3.4-3.3M139 328.2l1.2-1.2"/><path class="cls-21" d="M138.8 332.5v-7M138.8 332.5v-7"/><path class="cls-25" d="M138.8 368.2V387l7.4-9.2v-9.6h-7.4"/><path class="cls-19" d="M146.5 372.3l-4.1-4.1M146.5 376.2l-7.5-7.5M145.3 379.3l-6.3-6.5M143.4 381.4l-4.4-4.5M141.7 383.6l-2.7-2.9M139.8 385.8l-.8-1M139 384.3l7.5-7.4M139 380.5l7.5-7.5M139 376.4l7.5-7.4M139 372.3l4.1-4.1M139 368.5v-.3"/><path class="cls-25" d="M138.8 368.2V387l7.4-9.2v-9.6h-7.4"/><path class="cls-19" d="M146.5 372.3l-4.1-4.1M146.5 376.2l-7.5-7.5M145.3 379.3l-6.3-6.5M143.4 381.4l-4.4-4.5M141.7 383.6l-2.7-2.9M139.8 385.8l-.8-1M139 384.3l7.5-7.4M139 380.5l7.5-7.5M139 376.4l7.5-7.4M139 372.3l4.1-4.1M139 368.5v-.3"/><path class="cls-21" d="M146.2 377.8v-9.6M138.8 380v-11.8M138.8 380v-11.8M146.2 377.8v-9.6"/><path class="cls-20" d="M144.8 365.1v-29.5"/><path class="cls-1" d="M138.8 365.1v-29.5"/><path class="cls-20" d="M138.8 336.1v-.5"/><path class="cls-25" d="M138.8 368.2v-3.1h6v3.1"/><path class="cls-19" d="M145 366.8l-1.6-1.7M142.4 368.2l-3.1-3.1M143.1 368.2l1.9-1.9M139 368.2l3.2-3.1"/><path class="cls-25" d="M138.8 332.5v3.1h6v-3.1"/><path class="cls-19" d="M145 334.6l-2.4-2.1M141.7 335.6l-2.7-2.9M143.6 335.6l1.4-1.2M139.5 335.6l3.1-3.1"/><path class="cls-21" d="M138.8 365.1h6M138.8 335.6h6M138.8 365.1h6M138.8 368.2v-3.1M138.8 335.6h6M138.8 332.5v3.1M146.2 368.2h-1.4M146.2 332.5h-1.4M138.8 368.2v-3.1M138.8 332.5v3.1M144.8 365.1v3.1M144.8 335.6v-3.1"/><path class="cls-25" d="M412.9 373v-88.5l-7.2 6.9V368l7.2 5"/><path class="cls-19" d="M413.1 286.2l-.9-1M413.1 290l-2.9-2.6M413.1 294.1l-5-4.8M413.1 298.2l-6.9-7M413.1 302.2l-7.2-7.2M413.1 306.1l-7.2-7.2M413.1 310.2l-7.2-7.2M413.1 314.2l-7.2-7.2M413.1 318.1l-7.2-7.2M413.1 322.2l-7.2-7.2M413.1 326.2l-7.2-7.2M413.1 330.1l-7.2-7.2M413.1 334.2l-7.2-7.2M413.1 338.2l-7.2-7.2M413.1 342.3l-7.2-7.2M413.1 346.2l-7.2-7.2M413.1 350.2l-7.2-7.2M413.1 354.3l-7.2-7.2M413.1 358.2l-7.2-7.2M413.1 362.2l-7.2-7.2M413.1 366.3l-7.2-7.2M413.1 370.4l-7.2-7.2M408.8 370.2l-2.9-3.2M411.7 372.1l1.4-1.2M409.3 370.4l3.8-3.6M407.1 369l6-6M405.9 366.1l7.2-7.2M405.9 362l7.2-7.2M405.9 358.2l7.2-7.2M405.9 354.1l7.2-7.2M405.9 350l7.2-7.2M405.9 345.9l7.2-7.2M405.9 342.1l7.2-7.2M405.9 338l7.2-7.2M405.9 333.9l7.2-7.2M405.9 330.1l7.2-7.2M405.9 326l7.2-7.2M405.9 321.9l7.2-7.2M405.9 317.8l7.2-7.2M405.9 314l7.2-7.2M405.9 309.9l7.2-7.2M405.9 305.8l7.2-7.2M405.9 302l7.2-7.2M405.9 297.9l7.2-7.2M405.9 293.8l7.2-7.2"/><path class="cls-25" d="M412.9 373v-88.5l-7.2 6.9V368l7.2 5"/><path class="cls-19" d="M413.1 286.2l-.9-1M413.1 290l-2.9-2.6M413.1 294.1l-5-4.8M413.1 298.2l-6.9-7M413.1 302.2l-7.2-7.2M413.1 306.1l-7.2-7.2M413.1 310.2l-7.2-7.2M413.1 314.2l-7.2-7.2M413.1 318.1l-7.2-7.2M413.1 322.2l-7.2-7.2M413.1 326.2l-7.2-7.2M413.1 330.1l-7.2-7.2M413.1 334.2l-7.2-7.2M413.1 338.2l-7.2-7.2M413.1 342.3l-7.2-7.2M413.1 346.2l-7.2-7.2M413.1 350.2l-7.2-7.2M413.1 354.3l-7.2-7.2M413.1 358.2l-7.2-7.2M413.1 362.2l-7.2-7.2M413.1 366.3l-7.2-7.2M413.1 370.4l-7.2-7.2M408.8 370.2l-2.9-3.2M411.7 372.1l1.4-1.2M409.3 370.4l3.8-3.6M407.1 369l6-6M405.9 366.1l7.2-7.2M405.9 362l7.2-7.2M405.9 358.2l7.2-7.2M405.9 354.1l7.2-7.2M405.9 350l7.2-7.2M405.9 345.9l7.2-7.2M405.9 342.1l7.2-7.2M405.9 338l7.2-7.2M405.9 333.9l7.2-7.2M405.9 330.1l7.2-7.2M405.9 326l7.2-7.2M405.9 321.9l7.2-7.2M405.9 317.8l7.2-7.2M405.9 314l7.2-7.2M405.9 309.9l7.2-7.2M405.9 305.8l7.2-7.2M405.9 302l7.2-7.2M405.9 297.9l7.2-7.2M405.9 293.8l7.2-7.2"/><path class="cls-21" d="M405.7 291.4V368M412.9 284.5V373M412.9 284.5V373M405.7 291.4V368"/><path class="cls-25" d="M200.7 332.5l6-7h-67.9l7.4 7h54.5"/><path class="cls-19" d="M205.5 327.2l-1.7-1.7M203.6 329.4l-3.8-3.9M201.7 331.5l-5.8-6M198.8 332.5l-7-7M194.7 332.5l-6.9-7M190.9 332.5l-7-7M186.8 332.5l-7-7M182.7 332.5l-6.9-7M178.9 332.5l-7-7M174.8 332.5l-7-7M170.7 332.5l-6.9-7M166.6 332.5l-6.9-7M162.8 332.5l-7-7M158.7 332.5l-6.9-7M154.6 332.5l-6.9-7M150.8 332.5l-7-7M146.7 332.5l-6.9-7M198.8 332.5l7-7M195 332.5l6.9-7M190.9 332.5l6.9-7M186.8 332.5l7-7M182.7 332.5l7-7M178.9 332.5l6.9-7M174.8 332.5l7-7M170.7 332.5l7-7M166.9 332.5l6.9-7M162.8 332.5l7-7M158.7 332.5l7-7M154.6 332.5l7-7M150.8 332.5l7-7M146.7 332.5l7-7M144.6 330.8l5-5.3M142.4 328.9l3.4-3.4M140.2 327l1.5-1.5"/><path class="cls-25" d="M200.7 332.5l6-7h-67.9l7.4 7h54.5"/><path class="cls-19" d="M205.5 327.2l-1.7-1.7M203.6 329.4l-3.8-3.9M201.7 331.5l-5.8-6M198.8 332.5l-7-7M194.7 332.5l-6.9-7M190.9 332.5l-7-7M186.8 332.5l-7-7M182.7 332.5l-6.9-7M178.9 332.5l-7-7M174.8 332.5l-7-7M170.7 332.5l-6.9-7M166.6 332.5l-6.9-7M162.8 332.5l-7-7M158.7 332.5l-6.9-7M154.6 332.5l-6.9-7M150.8 332.5l-7-7M146.7 332.5l-6.9-7M198.8 332.5l7-7M195 332.5l6.9-7M190.9 332.5l6.9-7M186.8 332.5l7-7M182.7 332.5l7-7M178.9 332.5l6.9-7M174.8 332.5l7-7M170.7 332.5l7-7M166.9 332.5l6.9-7M162.8 332.5l7-7M158.7 332.5l7-7M154.6 332.5l7-7M150.8 332.5l7-7M146.7 332.5l7-7M144.6 330.8l5-5.3M142.4 328.9l3.4-3.4M140.2 327l1.5-1.5"/><path class="cls-21" d="M146.2 332.5h54.5M138.8 325.5h67.9M138.8 325.5h67.9M146.2 332.5h54.5"/><path class="cls-25" d="M207.9 375.2h-7.2v2.6l7.2 9.2v-11.8"/><path class="cls-19" d="M208.2 377.8l-2.7-2.6M208.2 381.9l-6.8-6.7M208.2 385.8l-4.4-4.4M206.5 385l1.7-1.6M204.8 382.6l3.4-3.1M202.9 380.5l5.3-5.1M201.2 378.3l3.1-3.1"/><path class="cls-25" d="M207.9 375.2h-7.2v2.6l7.2 9.2v-11.8"/><path class="cls-19" d="M208.2 377.8l-2.7-2.6M208.2 381.9l-6.8-6.7M208.2 385.8l-4.4-4.4M206.5 385l1.7-1.6M204.8 382.6l3.4-3.1M202.9 380.5l5.3-5.1M201.2 378.3l3.1-3.1"/><path class="cls-21" d="M207.9 387v-11.8M200.7 377.8v-2.6M200.7 377.8v-2.6M207.9 387v-11.8"/><path class="cls-25" d="M371.6 284.5h-7.2V52.2h7.2v232.3"/><path class="cls-19" d="M371.8 52.4l-.4-.2M371.8 56.5l-4.3-4.3M371.8 60.3l-7.2-7.2M371.8 64.4l-7.2-7.2M371.8 68.5l-7.2-7.2M371.8 72.6l-7.2-7.2M371.8 76.4l-7.2-7.2M371.8 80.5l-7.2-7.2M371.8 84.6l-7.2-7.2M371.8 88.4l-7.2-7.2M371.8 92.5l-7.2-7.2M371.8 96.6l-7.2-7.2M371.8 100.4l-7.2-7.2M371.8 104.5l-7.2-7.2M371.8 108.6l-7.2-7.2M371.8 112.6l-7.2-7.2M371.8 116.5l-7.2-7.2M371.8 120.6l-7.2-7.2M371.8 124.6l-7.2-7.2M371.8 128.5l-7.2-7.2M371.8 132.6l-7.2-7.2M371.8 136.6l-7.2-7.2M371.8 140.5l-7.2-7.2M371.8 144.6l-7.2-7.2M371.8 148.6l-7.2-7.2M371.8 152.7l-7.2-7.2M371.8 156.6l-7.2-7.2M371.8 160.6l-7.2-7.2M371.8 164.7l-7.2-7.2M371.8 168.6l-7.2-7.2M371.8 172.6l-7.2-7.2M371.8 176.7l-7.2-7.2M371.8 180.8l-7.2-7.2M371.8 184.6l-7.2-7.2M371.8 188.7l-7.2-7.2M371.8 192.8l-7.2-7.2M371.8 196.6l-7.2-7.2M371.8 200.7l-7.2-7.2M371.8 204.8l-7.2-7.2M371.8 208.6l-7.2-7.2M371.8 212.7l-7.2-7.2M371.8 216.8l-7.2-7.2M371.8 220.9l-7.2-7.2M371.8 224.7l-7.2-7.2M371.8 228.8l-7.2-7.2M371.8 232.9l-7.2-7.2M371.8 236.7l-7.2-7.2M371.8 240.8l-7.2-7.2M371.8 244.9l-7.2-7.2M371.8 248.7l-7.2-7.2M371.8 252.8l-7.2-7.2M371.8 256.9l-7.2-7.2M371.8 261l-7.2-7.2M371.8 264.8l-7.2-7.2M371.8 268.9l-7.2-7.2M371.8 273l-7.2-7.2M371.8 276.8l-7.2-7.2M371.8 280.9l-7.2-7.2M371.4 284.5l-6.8-6.7M367.3 284.5l-2.7-2.9M371.1 284.5l.7-.5M367 284.5l4.8-4.6M364.6 283l7.2-7.2M364.6 279l7.2-7.2M364.6 275.1l7.2-7.2M364.6 271l7.2-7.2M364.6 267l7.2-7.2M364.6 263.1l7.2-7.2M364.6 259l7.2-7.2M364.6 255l7.2-7.2M364.6 250.9l7.2-7.2M364.6 247l7.2-7.2M364.6 243l7.2-7.2M364.6 238.9l7.2-7.2M364.6 235l7.2-7.2M364.6 231l7.2-7.2M364.6 226.9l7.2-7.2M364.6 223l7.2-7.2M364.6 219l7.2-7.2M364.6 214.9l7.2-7.2M364.6 210.8l7.2-7.2M364.6 207l7.2-7.2M364.6 202.9l7.2-7.2M364.6 198.8l7.2-7.2M364.6 195l7.2-7.2M364.6 190.9l7.2-7.2M364.6 186.8l7.2-7.2M364.6 183l7.2-7.2M364.6 178.9l7.2-7.2M364.6 174.8l7.2-7.2M364.6 170.7l7.2-7.2M364.6 166.9l7.2-7.2M364.6 162.8l7.2-7.2M364.6 158.7l7.2-7.2M364.6 154.9l7.2-7.2M364.6 150.8l7.2-7.2M364.6 146.7l7.2-7.2M364.6 142.9l7.2-7.2M364.6 138.8l7.2-7.2M364.6 134.7l7.2-7.2M364.6 130.6l7.2-7.2M364.6 126.8l7.2-7.2M364.6 122.7l7.2-7.2M364.6 118.6l7.2-7.2M364.6 114.8l7.2-7.2M364.6 110.7l7.2-7.2M364.6 106.6l7.2-7.2M364.6 102.6l7.2-7.2M364.6 98.7l7.2-7.2M364.6 94.6l7.2-7.2M364.6 90.6l7.2-7.2M364.6 86.7l7.2-7.2M364.6 82.6l7.2-7.2M364.6 78.6l7.2-7.2M364.6 74.7l7.2-7.2M364.6 70.6l7.2-7.2M364.6 66.6l7.2-7.2M364.6 62.5l7.2-7.2M364.6 58.6l6.3-6.4M364.6 54.6l2.4-2.4"/><path class="cls-25" d="M364.4 284.5h7.2V52.2h-7.2v232.3"/><path class="cls-19" d="M371.8 52.4l-.4-.2M371.8 56.5l-4.3-4.3M371.8 60.3l-7.2-7.2M371.8 64.4l-7.2-7.2M371.8 68.5l-7.2-7.2M371.8 72.6l-7.2-7.2M371.8 76.4l-7.2-7.2M371.8 80.5l-7.2-7.2M371.8 84.6l-7.2-7.2M371.8 88.4l-7.2-7.2M371.8 92.5l-7.2-7.2M371.8 96.6l-7.2-7.2M371.8 100.4l-7.2-7.2M371.8 104.5l-7.2-7.2M371.8 108.6l-7.2-7.2M371.8 112.6l-7.2-7.2M371.8 116.5l-7.2-7.2M371.8 120.6l-7.2-7.2M371.8 124.6l-7.2-7.2M371.8 128.5l-7.2-7.2M371.8 132.6l-7.2-7.2M371.8 136.6l-7.2-7.2M371.8 140.5l-7.2-7.2M371.8 144.6l-7.2-7.2M371.8 148.6l-7.2-7.2M371.8 152.7l-7.2-7.2M371.8 156.6l-7.2-7.2M371.8 160.6l-7.2-7.2M371.8 164.7l-7.2-7.2M371.8 168.6l-7.2-7.2M371.8 172.6l-7.2-7.2M371.8 176.7l-7.2-7.2M371.8 180.8l-7.2-7.2M371.8 184.6l-7.2-7.2M371.8 188.7l-7.2-7.2M371.8 192.8l-7.2-7.2M371.8 196.6l-7.2-7.2M371.8 200.7l-7.2-7.2M371.8 204.8l-7.2-7.2M371.8 208.6l-7.2-7.2M371.8 212.7l-7.2-7.2M371.8 216.8l-7.2-7.2M371.8 220.9l-7.2-7.2M371.8 224.7l-7.2-7.2M371.8 228.8l-7.2-7.2M371.8 232.9l-7.2-7.2M371.8 236.7l-7.2-7.2M371.8 240.8l-7.2-7.2M371.8 244.9l-7.2-7.2M371.8 248.7l-7.2-7.2M371.8 252.8l-7.2-7.2M371.8 256.9l-7.2-7.2M371.8 261l-7.2-7.2M371.8 264.8l-7.2-7.2M371.8 268.9l-7.2-7.2M371.8 273l-7.2-7.2M371.8 276.8l-7.2-7.2M371.8 280.9l-7.2-7.2M371.4 284.5l-6.8-6.7M367.3 284.5l-2.7-2.9M371.1 284.5l.7-.5M367 284.5l4.8-4.6M364.6 283l7.2-7.2M364.6 279l7.2-7.2M364.6 275.1l7.2-7.2M364.6 271l7.2-7.2M364.6 267l7.2-7.2M364.6 263.1l7.2-7.2M364.6 259l7.2-7.2M364.6 255l7.2-7.2M364.6 250.9l7.2-7.2M364.6 247l7.2-7.2M364.6 243l7.2-7.2M364.6 238.9l7.2-7.2M364.6 235l7.2-7.2M364.6 231l7.2-7.2M364.6 226.9l7.2-7.2M364.6 223l7.2-7.2M364.6 219l7.2-7.2M364.6 214.9l7.2-7.2M364.6 210.8l7.2-7.2M364.6 207l7.2-7.2M364.6 202.9l7.2-7.2M364.6 198.8l7.2-7.2M364.6 195l7.2-7.2M364.6 190.9l7.2-7.2M364.6 186.8l7.2-7.2M364.6 183l7.2-7.2M364.6 178.9l7.2-7.2M364.6 174.8l7.2-7.2M364.6 170.7l7.2-7.2M364.6 166.9l7.2-7.2M364.6 162.8l7.2-7.2M364.6 158.7l7.2-7.2M364.6 154.9l7.2-7.2M364.6 150.8l7.2-7.2M364.6 146.7l7.2-7.2M364.6 142.9l7.2-7.2M364.6 138.8l7.2-7.2M364.6 134.7l7.2-7.2M364.6 130.6l7.2-7.2M364.6 126.8l7.2-7.2M364.6 122.7l7.2-7.2M364.6 118.6l7.2-7.2M364.6 114.8l7.2-7.2M364.6 110.7l7.2-7.2M364.6 106.6l7.2-7.2M364.6 102.6l7.2-7.2M364.6 98.7l7.2-7.2M364.6 94.6l7.2-7.2M364.6 90.6l7.2-7.2M364.6 86.7l7.2-7.2M364.6 82.6l7.2-7.2M364.6 78.6l7.2-7.2M364.6 74.7l7.2-7.2M364.6 70.6l7.2-7.2M364.6 66.6l7.2-7.2M364.6 62.5l7.2-7.2M364.6 58.6l6.3-6.4M364.6 54.6l2.4-2.4"/><path class="cls-21" d="M371.6 136.6V52.2M371.6 284.5V140.7M364.4 284.5V52.2M371.6 52.2h-7.2M364.4 284.5V52.2M371.6 136.6V52.2M371.6 284.5V140.7M371.6 140.7v-4.1"/><path class="cls-20" d="M366.6 325.5v-34.1M358.9 325.5v-34.1M351.2 325.5v-34.1M343.5 325.5v-34.1M335.8 325.5v-34.1M328.2 325.5v-34.1M320.5 325.5v-34.1M313 325.5v-34.1M248 327h122.4v5.5H248zM324.1 327l7.9-35.6M305.4 325.5v-34.1M297.7 325.5v-34.1M290 325.5v-34.1M282.3 325.5v-34.1M274.6 325.5v-34.1M267 325.5v-34.1M259.3 325.5v-34.1M251.6 325.5v-34.1"/><path class="cls-20" d="M246.6 325.5h125.3v8.4H246.6zM328.2 308.5l3.9-3.9M332.1 312.3l-3.9-3.8M332 304.6v7.7M251.7 308.5l3.8-3.9M255.5 312.3l-3.8-3.8M255.4 304.6v7.7"/><path class="cls-25" d="M475.3 284.5l-4.8 4.1V368h4.8v-83.5"/><path class="cls-19" d="M470.7 289.3l4.6-4.6M470.7 293.6l4.8-4.8M470.7 297.7l4.8-4.8M470.7 302l4.8-4.8M470.7 306.3l4.8-4.8M470.7 310.4l4.8-4.8M470.7 314.7l4.8-4.8M470.7 319l4.8-4.8M470.7 323.4l4.8-4.8M470.7 327.4l4.8-4.8M470.7 331.8l4.8-4.8M470.7 336.1l4.8-4.8M470.7 340.2l4.8-4.8M470.7 344.5l4.8-4.8M470.7 348.8l4.8-4.8M470.7 353.1l4.8-4.8M470.7 357.2l4.8-4.8M470.7 361.5l4.8-4.8M470.7 365.8l4.8-4.8M472.6 368l2.9-2.9"/><path class="cls-25" d="M475.3 284.5l-4.8 4.1V368h4.8v-83.5"/><path class="cls-19" d="M470.7 289.3l4.6-4.6M470.7 293.6l4.8-4.8M470.7 297.7l4.8-4.8M470.7 302l4.8-4.8M470.7 306.3l4.8-4.8M470.7 310.4l4.8-4.8M470.7 314.7l4.8-4.8M470.7 319l4.8-4.8M470.7 323.4l4.8-4.8M470.7 327.4l4.8-4.8M470.7 331.8l4.8-4.8M470.7 336.1l4.8-4.8M470.7 340.2l4.8-4.8M470.7 344.5l4.8-4.8M470.7 348.8l4.8-4.8M470.7 353.1l4.8-4.8M470.7 357.2l4.8-4.8M470.7 361.5l4.8-4.8M470.7 365.8l4.8-4.8M472.6 368l2.9-2.9"/><path class="cls-21" d="M475.3 368v-83.5M470.5 368v-79.4M470.5 368v-79.4M475.3 368v-83.5M475.3 368h-4.8"/><path class="cls-25" d="M475.3 164h-4.1V57.2h4.1V164"/><path class="cls-19" d="M471.4 59.1l1.7-1.9M471.4 63.2l4.1-4.1M471.4 67.5l4.1-4.1M471.4 71.8l4.1-4M471.4 75.9l4.1-4.1M471.4 80.2l4.1-4M471.4 84.6l4.1-4.1M471.4 88.9l4.1-4.1M471.4 93l4.1-4.1M471.4 97.3l4.1-4.1M471.4 101.6l4.1-4.1M471.4 105.7l4.1-4.1M471.4 110l4.1-4.1M471.4 114.3l4.1-4.1M471.4 118.6l4.1-4M471.4 122.7l4.1-4.1M471.4 127l4.1-4M471.4 131.4l4.1-4.1M471.4 135.4l4.1-4M471.4 139.8l4.1-4.1M471.4 144.1l4.1-4.1M471.4 148.4l4.1-4.1M471.4 152.5l4.1-4.1M471.4 156.8l4.1-4.1M471.4 161.1l4.1-4.1M472.6 164l2.9-2.9"/><path class="cls-25" d="M471.2 164h4.1V57.2h-4.1V164"/><path class="cls-19" d="M471.4 59.1l1.7-1.9M471.4 63.2l4.1-4.1M471.4 67.5l4.1-4.1M471.4 71.8l4.1-4M471.4 75.9l4.1-4.1M471.4 80.2l4.1-4M471.4 84.6l4.1-4.1M471.4 88.9l4.1-4.1M471.4 93l4.1-4.1M471.4 97.3l4.1-4.1M471.4 101.6l4.1-4.1M471.4 105.7l4.1-4.1M471.4 110l4.1-4.1M471.4 114.3l4.1-4.1M471.4 118.6l4.1-4M471.4 122.7l4.1-4.1M471.4 127l4.1-4M471.4 131.4l4.1-4.1M471.4 135.4l4.1-4M471.4 139.8l4.1-4.1M471.4 144.1l4.1-4.1M471.4 148.4l4.1-4.1M471.4 152.5l4.1-4.1M471.4 156.8l4.1-4.1M471.4 161.1l4.1-4.1M472.6 164l2.9-2.9"/><path class="cls-21" d="M475.3 164V57.2M471.2 136.6V57.2M471.2 164v-23.3M475.3 57.2h-4.1M471.2 136.6V57.2M475.3 164V57.2M471.2 164v-23.3"/><path class="cls-25" d="M475.3 236h-4.1v-46.8h4.1V236"/><path class="cls-19" d="M471.4 190.9l1.5-1.7M471.4 195l4.1-4.1M471.4 199.3l4.1-4.1M471.4 203.6l4.1-4.1M471.4 207.7l4.1-4.1M471.4 212l4.1-4.1M471.4 216.3l4.1-4.1M471.4 220.6l4.1-4M471.4 224.7l4.1-4.1M471.4 229l4.1-4M471.4 233.4l4.1-4.1M472.9 236l2.6-2.6"/><path class="cls-25" d="M471.2 236h4.1v-46.8h-4.1V236"/><path class="cls-19" d="M471.4 190.9l1.5-1.7M471.4 195l4.1-4.1M471.4 199.3l4.1-4.1M471.4 203.6l4.1-4.1M471.4 207.7l4.1-4.1M471.4 212l4.1-4.1M471.4 216.3l4.1-4.1M471.4 220.6l4.1-4M471.4 224.7l4.1-4.1M471.4 229l4.1-4M471.4 233.4l4.1-4.1M472.9 236l2.6-2.6"/><path class="cls-21" d="M475.3 236v-46.8M471.2 236v-46.8M471.2 236v-46.8M475.3 236v-46.8"/><path class="cls-25" d="M471.2 261.2v23.3h4.1v-23.3h-4.1"/><path class="cls-19" d="M471.4 263.1l1.7-1.9M471.4 267.2l4.1-4.1M471.4 271.5l4.1-4.1M471.4 275.8l4.1-4M471.4 279.9l4.1-4.1M471.4 284.2l4.1-4M475.3 284.5h.2"/><path class="cls-25" d="M471.2 261.2v23.3h4.1v-23.3h-4.1"/><path class="cls-19" d="M471.4 263.1l1.7-1.9M471.4 267.2l4.1-4.1M471.4 271.5l4.1-4.1M471.4 275.8l4.1-4M471.4 279.9l4.1-4.1M471.4 284.2l4.1-4M475.3 284.5h.2"/><path class="cls-21" d="M475.3 284.5v-23.3M471.2 284.5v-23.3M471.2 284.5v-23.3M475.3 284.5v-23.3"/><path class="cls-1" d="M475.3 261.2V236M471.2 261.2V236"/><path class="cls-20" d="M475.3 260h-4.1M475.3 237.2h-4.1"/><path class="cls-21" d="M475.3 261.2h-4.1M475.3 236h-4.1"/><path class="cls-19" d="M475.4 260c6 0 11.8-2.4 16-6.6 4.3-4.3 6.6-10 6.6-16M475.3 237.2h22.8"/><path class="cls-1" d="M475.3 189.2V164M471.2 189.2V164"/><path class="cls-20" d="M475.3 188h-4.1M475.3 165.2h-4.1"/><path class="cls-21" d="M475.3 189.2h-4.1M475.3 164h-4.1"/><path class="cls-19" d="M498 188c0-12.4-10.2-22.7-22.7-22.7M475.3 188h22.8"/><path class="cls-25" d="M470.5 288.6l4.8-4.1h-9.1v4.1h4.3"/><path class="cls-19" d="M466.4 285l.5-.5M467.1 288.6l4.1-4.1M475.3 284.7v-.2"/><path class="cls-25" d="M470.5 288.6l4.8-4.1h-9.1v4.1h4.3"/><path class="cls-19" d="M466.4 285l.5-.5M467.1 288.6l4.1-4.1M475.3 284.7v-.2"/><path class="cls-21" d="M466.2 288.6h4.3M466.2 284.5h5M466.2 284.5h5M466.2 288.6h4.3"/><path class="cls-25" d="M412.9 288.6v-4.1H441v4.1h-28.1"/><path class="cls-19" d="M413.1 287.4l2.7-2.9M416 288.6l4.1-4.1M420.3 288.6l4.1-4.1M424.6 288.6l4.1-4.1M428.7 288.6l4.1-4.1M433 288.6l4.1-4.1M437.4 288.6l3.8-3.9"/><path class="cls-25" d="M412.9 284.5v4.1H441v-4.1h-28.1"/><path class="cls-19" d="M413.1 287.4l2.7-2.9M416 288.6l4.1-4.1M420.3 288.6l4.1-4.1M424.6 288.6l4.1-4.1M428.7 288.6l4.1-4.1M433 288.6l4.1-4.1M437.4 288.6l3.8-3.9"/><path class="cls-21" d="M412.9 288.6H441M412.9 284.5H441M412.9 284.5H441M412.9 288.6H441M412.9 288.6v-4.1"/><path class="cls-1" d="M441 288.6h25.2M441 284.5h25.2"/><path class="cls-20" d="M442.2 288.6v-4.1M465 288.6v-4.1"/><path class="cls-21" d="M441 288.6v-4.1M466.2 288.6v-4.1"/><path class="cls-19" d="M442.2 288.6c0 12.4 10.2 22.7 22.7 22.7M465 288.6v22.8"/><path class="cls-25" d="M561 210.6v4.3h-85.7v-4.3H561"/><path class="cls-19" d="M561.2 213.7l-3.4-3.1M558.3 214.9l-4.3-4.3M554.2 214.9l-4.3-4.3M550.2 214.9l-4.4-4.3M546.3 214.9l-4.3-4.3M542.2 214.9l-4.3-4.3M538.2 214.9l-4.4-4.3M534.1 214.9l-4.3-4.3M530.2 214.9l-4.3-4.3M526.2 214.9l-4.4-4.3M522.1 214.9l-4.3-4.3M518.2 214.9l-4.3-4.3M514.2 214.9l-4.4-4.3M510.1 214.9l-4.3-4.3M506.2 214.9l-4.3-4.3M502.2 214.9l-4.4-4.3M498.1 214.9l-4.3-4.3M494 214.9l-4.3-4.3M490.2 214.9l-4.4-4.3M486.1 214.9l-4.3-4.3M482 214.9l-4.3-4.3M478.2 214.9l-2.7-2.7M561 214.9h.2M556.9 214.9l4.3-4.1M553 214.9l4.4-4.3M549 214.9l4.3-4.3M544.9 214.9l4.3-4.3M541 214.9l4.4-4.3M537 214.9l4.3-4.3M532.9 214.9l4.3-4.3M528.8 214.9l4.3-4.3M525 214.9l4.3-4.3M520.9 214.9l4.3-4.3M516.8 214.9l4.3-4.3M513 214.9l4.3-4.3M508.9 214.9l4.3-4.3M504.8 214.9l4.3-4.3M501 214.9l4.3-4.3M496.9 214.9l4.3-4.3M492.8 214.9l4.3-4.3M488.7 214.9l4.3-4.3M484.9 214.9l4.3-4.3M480.8 214.9l4.3-4.3M476.7 214.9l4.3-4.3M475.5 212.2l1.7-1.6"/><path class="cls-25" d="M561 214.9v-4.3h-85.7v4.3H561"/><path class="cls-19" d="M561.2 213.7l-3.4-3.1M558.3 214.9l-4.3-4.3M554.2 214.9l-4.3-4.3M550.2 214.9l-4.4-4.3M546.3 214.9l-4.3-4.3M542.2 214.9l-4.3-4.3M538.2 214.9l-4.4-4.3M534.1 214.9l-4.3-4.3M530.2 214.9l-4.3-4.3M526.2 214.9l-4.4-4.3M522.1 214.9l-4.3-4.3M518.2 214.9l-4.3-4.3M514.2 214.9l-4.4-4.3M510.1 214.9l-4.3-4.3M506.2 214.9l-4.3-4.3M502.2 214.9l-4.4-4.3M498.1 214.9l-4.3-4.3M494 214.9l-4.3-4.3M490.2 214.9l-4.4-4.3M486.1 214.9l-4.3-4.3M482 214.9l-4.3-4.3M478.2 214.9l-2.7-2.7M561 214.9h.2M556.9 214.9l4.3-4.1M553 214.9l4.4-4.3M549 214.9l4.3-4.3M544.9 214.9l4.3-4.3M541 214.9l4.4-4.3M537 214.9l4.3-4.3M532.9 214.9l4.3-4.3M528.8 214.9l4.3-4.3M525 214.9l4.3-4.3M520.9 214.9l4.3-4.3M516.8 214.9l4.3-4.3M513 214.9l4.3-4.3M508.9 214.9l4.3-4.3M504.8 214.9l4.3-4.3M501 214.9l4.3-4.3M496.9 214.9l4.3-4.3M492.8 214.9l4.3-4.3M488.7 214.9l4.3-4.3M484.9 214.9l4.3-4.3M480.8 214.9l4.3-4.3M476.7 214.9l4.3-4.3M475.5 212.2l1.7-1.6"/><path class="cls-21" d="M561 210.6h-85.7M561 214.9h-85.7M475.3 210.6v4.3M561 214.9h-85.7M561 210.6h-85.7"/><path class="cls-25" d="M471.2 140.7v-4.1h-27.4v4.1h27.4"/><path class="cls-19" d="M444.1 137.4l.7-.8M444.8 140.7l4.1-4.1M449.1 140.7l4.1-4.1M453.4 140.7l4.1-4.1M457.5 140.7l4.1-4.1M461.8 140.7l4.1-4.1M466.2 140.7l4-4.1M470.5 140.7l.9-.9"/><path class="cls-25" d="M471.2 140.7v-4.1h-27.4v4.1h27.4"/><path class="cls-19" d="M444.1 137.4l.7-.8M444.8 140.7l4.1-4.1M449.1 140.7l4.1-4.1M453.4 140.7l4.1-4.1M457.5 140.7l4.1-4.1M461.8 140.7l4.1-4.1M466.2 140.7l4-4.1M470.5 140.7l.9-.9"/><path class="cls-21" d="M443.8 140.7h27.4M443.8 136.6h27.4M443.8 136.6h27.4M443.8 140.7h27.4"/><path class="cls-25" d="M398.7 136.6h-27.1v4.1h27.1v-4.1"/><path class="cls-19" d="M371.8 137.4l.8-.8M372.6 140.7l4-4.1M376.9 140.7l4.1-4.1M381.2 140.7l4.1-4.1M385.3 140.7l4.1-4.1M389.6 140.7l4.1-4.1M393.9 140.7l4.1-4.1M398.2 140.7l.8-.7"/><path class="cls-25" d="M398.7 136.6h-27.1v4.1h27.1v-4.1"/><path class="cls-19" d="M371.8 137.4l.8-.8M372.6 140.7l4-4.1M376.9 140.7l4.1-4.1M381.2 140.7l4.1-4.1M385.3 140.7l4.1-4.1M389.6 140.7l4.1-4.1M393.9 140.7l4.1-4.1M398.2 140.7l.8-.7"/><path class="cls-21" d="M371.6 140.7h27.1M371.6 136.6h27.1M371.6 136.6h27.1M371.6 140.7h27.1M371.6 136.6v4.1"/><path class="cls-20" d="M399.9 140.7v-4.1M442.4 140.7v-4.1"/><path class="cls-21" d="M398.7 140.7v-4.1M443.8 140.7v-4.1"/><path class="cls-19" d="M400 162c11.7 0 21.3-9.6 21.3-21.3M421.2 140.8c0 11.7 9.6 21.3 21.3 21.3M399.9 140.7v21.4M442.4 140.7v21.4"/><path class="cls-20" d="M167.4 325.5v-34.1M159.7 325.5v-34.1M152 325.5v-34.1M167.4 308.5l-3.9 3.9M163.5 304.7l3.9 3.8M163.5 312.3v-7.7"/><path class="cls-1" d="M42.6 278.5l-32.2 6"/><path class="cls-15" d="M10.4 284.5L0 286.2"/><path class="cls-11" d="M0 286.2V386"/><path class="cls-20" d="M0 385.5v.5"/><path class="cls-1" d="M0 386l5.6 1"/><path class="cls-20" d="M5.1 387h.5"/><path class="cls-1" d="M5.6 387l37 6.7"/><path class="cls-25" d="M207.9 387l-7.2-9.2h-54.5l-7.4 9.2h69.1"/><path class="cls-19" d="M203.8 381.4l-3.8-3.6M205.3 387l-9.1-9.2M201.2 387l-9.1-9.2M197.1 387l-9.1-9.2M193 387l-9.1-9.2M189.2 387l-9.1-9.2M185.1 387l-9.1-9.2M181 387l-9.1-9.2M177.2 387l-9.1-9.2M173.1 387l-9.1-9.2M169 387l-9.1-9.2M165.2 387l-9.1-9.2M161.1 387l-9.1-9.2M157 387l-9.1-9.2M153 387l-7.7-7.7M149.1 387l-5.7-5.6M145 387l-3.3-3.4M141 387l-1.2-1.2M204.6 387l1.9-2M200.5 387l4.3-4.4M196.4 387l6.5-6.5M192.6 387l8.6-8.7M188.5 387l9.1-9.2M184.4 387l9.1-9.2M180.6 387l9.1-9.2M176.5 387l9.1-9.2M172.4 387l9.1-9.2M168.3 387l9.1-9.2M164.5 387l9.1-9.2M160.4 387l9.1-9.2M156.3 387l9.1-9.2M152.5 387l9.1-9.2M148.4 387l9.1-9.2M144.3 387l9.1-9.2M140.5 387l9.1-9.2"/><path class="cls-25" d="M207.9 387l-7.2-9.2h-54.5l-7.4 9.2h69.1"/><path class="cls-19" d="M203.8 381.4l-3.8-3.6M205.3 387l-9.1-9.2M201.2 387l-9.1-9.2M197.1 387l-9.1-9.2M193 387l-9.1-9.2M189.2 387l-9.1-9.2M185.1 387l-9.1-9.2M181 387l-9.1-9.2M177.2 387l-9.1-9.2M173.1 387l-9.1-9.2M169 387l-9.1-9.2M165.2 387l-9.1-9.2M161.1 387l-9.1-9.2M157 387l-9.1-9.2M153 387l-7.7-7.7M149.1 387l-5.7-5.6M145 387l-3.3-3.4M141 387l-1.2-1.2M204.6 387l1.9-2M200.5 387l4.3-4.4M196.4 387l6.5-6.5M192.6 387l8.6-8.7M188.5 387l9.1-9.2M184.4 387l9.1-9.2M180.6 387l9.1-9.2M176.5 387l9.1-9.2M172.4 387l9.1-9.2M168.3 387l9.1-9.2M164.5 387l9.1-9.2M160.4 387l9.1-9.2M156.3 387l9.1-9.2M152.5 387l9.1-9.2M148.4 387l9.1-9.2M144.3 387l9.1-9.2M140.5 387l9.1-9.2"/><path class="cls-21" d="M138.8 387h69.1M146.2 377.8h54.5M146.2 377.8h54.5M138.8 387h69.1"/><path class="cls-20" d="M452.2 67h.5v17h-.5zM452.7 67h15.4v.5h-15.4zM452.7 83.4h15.4v.7h-15.4zM452.2 57.2h.5v1.2h-.5zM468.1 67h.7v17h-.7zM452.2 84.1h.5v16.8h-.5z"/><path class="cls-20" d="M452.7 84.1h15.4v.5h-15.4zM452.7 100.4h15.4v.5h-15.4zM468.1 84.1h.7v16.8h-.7zM452.2 100.9h.5v17h-.5zM452.7 100.9h15.4v.7h-15.4zM452.7 117.4h15.4v.5h-15.4zM468.1 100.9h.7v17h-.7zM452.2 117.9h.5v17h-.5zM452.7 117.9h15.4v.7h-15.4zM452.7 134.5h15.4v.5h-15.4zM468.1 117.9h.7v17h-.7zM452.2 135h.5v1.2h-.5zM452.2 58.4h.5V67h-.5zM452.7 58.4h15.4v.7h-15.4zM452.7 66.3h15.4v.7h-15.4zM468.1 58.4h.7V67h-.7z"/><path class="cls-24" d="M468.1 123.2h2.6v9.8h-2.6z"/><path class="cls-20" d="M468.1 123.2h2.6v9.8h-2.6zM468.1 122.7v10.6-10.6z"/><path class="cls-22" d="M468.1 132.3h-8.7"/><path class="cls-3" d="M459.4 132.3l.3-1.7.5-1.6.7-1.5 1.2-1.2 1.2-1.2 1.4-.7 1.7-.5 1.7-.2"/><path class="cls-25" d="M373 373v-5h32.7l7.2 5H373"/><path class="cls-19" d="M411.7 373l-2.9-2.8M407.8 373l-5-5M403.8 373l-5.1-5M399.7 373l-5.1-5M395.6 373l-5-5M391.8 373l-5.1-5M387.7 373l-5.1-5M383.6 373l-5-5M379.8 373l-5.1-5M375.7 373l-2.4-2.4M411 373l.7-.9M406.9 373l2.4-2.6M402.8 373l4.3-4M398.7 373l5.1-5M394.9 373l5-5M390.8 373l5-5M386.7 373l5.1-5M382.9 373l5-5M378.8 373l5-5M374.7 373l5.1-5M373.3 370.6l2.4-2.6"/><path class="cls-25" d="M373 368v5h39.9l-7.2-5H373"/><path class="cls-19" d="M411.7 373l-2.9-2.8M407.8 373l-5-5M403.8 373l-5.1-5M399.7 373l-5.1-5M395.6 373l-5-5M391.8 373l-5.1-5M387.7 373l-5.1-5M383.6 373l-5-5M379.8 373l-5.1-5M375.7 373l-2.4-2.4M411 373l.7-.9M406.9 373l2.4-2.6M402.8 373l4.3-4M398.7 373l5.1-5M394.9 373l5-5M390.8 373l5-5M386.7 373l5.1-5M382.9 373l5-5M378.8 373l5-5M374.7 373l5.1-5M373.3 370.6l2.4-2.6"/><path class="cls-21" d="M373 373h39.9M373 368h32.7M373 368h32.7M373 373h39.9M373 368"/><path class="cls-1" d="M479.6 42.6L471.9 0"/><path class="cls-10" d="M471.9 0H369.7"/><path class="cls-6" d="M369.7 0L362 42.6"/><path class="cls-25" d="M364.4 284.5l1.9 2.4 2.7-3.4-4.6 1"/><path class="cls-19" d="M367.8 285l-1-1M365.6 285.9l2.2-2.1M524 52.2v1.9c0 .6.2 1.2.3 1.8.1.6.3 1.2.5 1.8l.6 1.8c.2.6.5 1.1.8 1.7.3.5.6 1.1 1 1.6.3.5.7 1 1.1 1.5.4.5.8.9 1.3 1.4.4.4.9.9 1.4 1.3.5.4 1 .8 1.5 1.1.5.3 1 .7 1.6 1 .5.3 1.1.6 1.7.8l1.8.6c.6.2 1.2.3 1.8.5l1.8.3h1.9M543 71.1V52.2M524 52.2v1.4M523.8 55l-.3 1M523.5 56v.5"/><path class="cls-13" d="M523.3 57.7l-.7 1.7"/><path class="cls-19" d="M522.1 60.6l-.3.7M521.8 61.3l-.4.5"/><path class="cls-14" d="M520.9 62.7l-1.2 1.5"/><path class="cls-19" d="M518.7 65.4l-.2.2M518.5 65.6l-1 .7M516.6 67.3l-1 .7"/><path class="cls-23" d="M515.6 68l-1.7 1"/><path class="cls-19" d="M513.9 69l-.9.4M511.5 69.9l-.9.5"/><path class="cls-12" d="M510.6 70.4l-2 .5"/><path class="cls-19" d="M508.6 70.9l-1.2.2M506 71.1h-1"/><path class="cls-5" d="M505 71.1V52.2"/><path class="cls-19" d="M505 52.6v-.4M520.2 373.1v-1.9c0-.6.2-1.2.3-1.8.1-.6.3-1.2.5-1.8l.6-1.8c.2-.6.5-1.1.8-1.7.3-.5.6-1.1 1-1.6.3-.5.7-1 1.1-1.5.4-.5.8-.9 1.3-1.4.4-.4.9-.9 1.4-1.3.5-.4 1-.8 1.5-1.1.5-.3 1.1-.7 1.6-1 .5-.3 1.1-.6 1.7-.8l1.8-.6c.6-.2 1.2-.3 1.8-.5l1.8-.3h1.9M539.4 354.1V373M520.2 373v-1.4M519.9 370.2v-.8M519.9 369.4l-.2-.7"/><path class="cls-13" d="M519.4 367.5l-.7-1.7"/><path class="cls-19" d="M518.2 364.6l-.2-.4M518 364.2l-.5-.8"/><path class="cls-14" d="M517 362.5l-1.2-1.5"/><path class="cls-19" d="M514.9 359.8l-.3-.2M514.6 359.6l-.9-.7M512.7 357.9l-.9-.7"/><path class="cls-23" d="M511.8 357.2l-1.5-1"/><path class="cls-19" d="M510.3 356.2l-1.4-.4M507.7 355l-1-.2M506.7 354.8h-.5"/><path class="cls-13" d="M505 354.6l-1.9-.5"/><path class="cls-19" d="M501.9 354.1h-.7"/><path class="cls-5" d="M501.2 354.1V373"/><path class="cls-19" d="M501.2 372.6v.4M430.7 52.2c0 11 9.1 20.1 20.1 20.1M450.8 72.3V52.2"/><path class="cls-5" d="M430.6 52.2l-.2 4-1.2 3.6-1.9 3.6-2.4 2.9-3.1 2.7-3.6 1.9-3.6.9-4.1.5"/><path class="cls-16" d="M410.5 72.3V52.2"/><path class="cls-20" d="M435.7 214.2v1.2M435.7 215.4l-.3 1.4M435 218.2v.3M434.5 219.9l-.5.7M434 220.6l-.7 1.2M433.3 221.8l-.3.5M430.9 224.7l-.5.3M430.4 225l-1 .9M429.4 225.9l-.7.5M427.5 226.9l-.2.2M425.8 227.6h-.2M425.6 227.6l-1.4.5M424.2 228.1H423M421.8 228.3h-.3M421.5 228.3h-.2M419.8 228.1h-1.2M418.6 228.1l-1.2-.5M417.4 227.6h-.2M415.8 227.1l-.3-.2M414.3 226.4l-.7-.5M413.6 225.9l-1-.9M412.6 225l-.4-.3M410 222.3l-.2-.5M409.8 221.8l-.8-1.2M409 220.6l-.4-.7M408.1 218.5v-.3M407.6 216.8l-.2-1.4M407.4 215.4v-1.2M407.4 212.7v-.2M407.6 211l.2-.9M407.8 210.1l.5-1.5M408.3 208.6l.3-.2M409.3 207v-.3M410.2 205.5l.3-.5M410.5 205l.9-.9M411.4 204.1l.8-.5M413.1 202.6l.3-.2M414.6 201.7h.2M414.8 201.7l1.2-.7M416 201l1.2-.5M418.6 200.2h.3M420.3 200h1.2M421.5 200h1.5M424.4 200.2h.2M426.1 200.7l.9.3M427 201l1.2.7M428.2 201.7l.5.2M429.9 202.6l.3.3M431.1 203.6l.5.5M431.6 204.1l1 .9M432.6 205l.4.8M433.8 207l.2.2M434.5 208.6h.2M434.7 208.6l.3 1.5M435 210.1l.4 1.2M435.7 212.7v.3M412.2 38.5V28.2h37.2v10.3"/><path class="cls-20" d="M433.5 35.6l-2.9 2.9-2.8-2.9h5.7zM412.2 38.5h37.2"/><path class="cls-26" d="M378.8 378.8H373V373h-5v16.4h14.6v-6.8l-3.3-3.3h-.5v-.5"/><path class="cls-20" d="M368.2 382.9h14.7"/><path class="cls-25" d="M382.6 389.4v-6.8l-3.3-3.3v10.1h3.3"/><path class="cls-19" d="M379.5 388.9l.5.5M379.5 384.8l3.4 3.4M379.5 380.7l3.4 3.4"/><path class="cls-25" d="M379.3 389.4v-10.1h-.5v10.1h.5M378.8 389.4v-10.6H373v10.6h5.8"/><path class="cls-19" d="M373.3 388.4h5.7M373.3 387h5.7M373.3 385.8h5.7M373.3 384.3h5.7M373.3 382.9h5.7M373.3 381.4h5.7M373.3 380h5.7"/><path class="cls-25" d="M373 373h-5v16.4h5V373"/><path class="cls-19" d="M368.2 385.5l3.6 3.9M368.2 381.4l5.1 5.1M368.2 377.6l5.1 5M368.2 373.5l5.1 5.1M371.6 373l1.7 1.5"/><path class="cls-21" d="M379.3 379.3v10.1M382.6 382.6v6.8"/><path class="cls-19" d="M373 378.8v10.6M378.8 379.3v10.1"/><path class="cls-21" d="M368 373v16.4M373 378.8v10.6"/><path class="cls-20" d="M382.6 382.6v6.8M368 373v16.4"/><path class="cls-19" d="M378.8 378.8v.5M378.8 378.8H373"/><path class="cls-21" d="M373 373v5.8M373 373h-5"/><path class="cls-25" d="M259.8 375.2V368H373v7.2H259.8"/><path class="cls-19" d="M373.3 370.6l-2.7-2.6M373.3 374.5l-6.7-6.5M369.9 375.2l-7.2-7.2M365.8 375.2l-7.2-7.2M361.8 375.2l-7.2-7.2M357.7 375.2l-7.2-7.2M353.8 375.2l-7.2-7.2M349.8 375.2l-7.2-7.2M345.7 375.2l-7.2-7.2M341.8 375.2l-7.2-7.2M337.8 375.2l-7.2-7.2M333.7 375.2l-7.2-7.2M329.6 375.2l-7.2-7.2M325.8 375.2l-7.2-7.2M321.7 375.2l-7.2-7.2M317.6 375.2l-7.2-7.2M313.8 375.2l-7.2-7.2M309.7 375.2l-7.2-7.2M305.6 375.2l-7.2-7.2M301.8 375.2l-7.2-7.2M297.7 375.2l-7.2-7.2M293.6 375.2l-7.2-7.2M289.5 375.2l-7.2-7.2M285.7 375.2l-7.2-7.2M281.6 375.2l-7.2-7.2M277.5 375.2l-7.2-7.2M273.7 375.2l-7.2-7.2M269.6 375.2l-7.2-7.2M265.5 375.2l-5.5-5.8M261.7 375.2l-1.7-1.7M372.6 375.2l.7-.5M368.5 375.2l4.8-4.6M364.6 375.2l7.2-7.2M360.6 375.2l7.2-7.2M356.5 375.2l7.2-7.2M352.6 375.2l7.2-7.2M348.6 375.2l7.2-7.2M344.5 375.2l7.2-7.2M340.6 375.2l7.2-7.2M336.6 375.2l7.2-7.2M332.5 375.2l7.2-7.2M328.4 375.2l7.2-7.2M324.6 375.2l7.2-7.2M320.5 375.2l7.2-7.2M316.4 375.2l7.2-7.2M312.6 375.2l7.2-7.2M308.5 375.2l7.2-7.2M304.4 375.2l7.2-7.2M300.6 375.2l7.2-7.2M296.5 375.2l7.2-7.2M292.4 375.2l7.2-7.2M288.3 375.2l7.2-7.2M284.5 375.2l7.2-7.2M280.4 375.2l7.2-7.2M276.3 375.2l7.2-7.2M272.5 375.2l7.2-7.2M268.4 375.2l7.2-7.2M264.3 375.2l7.2-7.2M260.5 375.2l7.2-7.2M260 371.6l3.6-3.6"/><path class="cls-25" d="M259.8 368v7.2H373V368H259.8"/><path class="cls-19" d="M373.3 370.6l-2.7-2.6M373.3 374.5l-6.7-6.5M369.9 375.2l-7.2-7.2M365.8 375.2l-7.2-7.2M361.8 375.2l-7.2-7.2M357.7 375.2l-7.2-7.2M353.8 375.2l-7.2-7.2M349.8 375.2l-7.2-7.2M345.7 375.2l-7.2-7.2M341.8 375.2l-7.2-7.2M337.8 375.2l-7.2-7.2M333.7 375.2l-7.2-7.2M329.6 375.2l-7.2-7.2M325.8 375.2l-7.2-7.2M321.7 375.2l-7.2-7.2M317.6 375.2l-7.2-7.2M313.8 375.2l-7.2-7.2M309.7 375.2l-7.2-7.2M305.6 375.2l-7.2-7.2M301.8 375.2l-7.2-7.2M297.7 375.2l-7.2-7.2M293.6 375.2l-7.2-7.2M289.5 375.2l-7.2-7.2M285.7 375.2l-7.2-7.2M281.6 375.2l-7.2-7.2M277.5 375.2l-7.2-7.2M273.7 375.2l-7.2-7.2M269.6 375.2l-7.2-7.2M265.5 375.2l-5.5-5.8M261.7 375.2l-1.7-1.7M372.6 375.2l.7-.5M368.5 375.2l4.8-4.6M364.6 375.2l7.2-7.2M360.6 375.2l7.2-7.2M356.5 375.2l7.2-7.2M352.6 375.2l7.2-7.2M348.6 375.2l7.2-7.2M344.5 375.2l7.2-7.2M340.6 375.2l7.2-7.2M336.6 375.2l7.2-7.2M332.5 375.2l7.2-7.2M328.4 375.2l7.2-7.2M324.6 375.2l7.2-7.2M320.5 375.2l7.2-7.2M316.4 375.2l7.2-7.2M312.6 375.2l7.2-7.2M308.5 375.2l7.2-7.2M304.4 375.2l7.2-7.2M300.6 375.2l7.2-7.2M296.5 375.2l7.2-7.2M292.4 375.2l7.2-7.2M288.3 375.2l7.2-7.2M284.5 375.2l7.2-7.2M280.4 375.2l7.2-7.2M276.3 375.2l7.2-7.2M272.5 375.2l7.2-7.2M268.4 375.2l7.2-7.2M264.3 375.2l7.2-7.2M260.5 375.2l7.2-7.2M260 371.6l3.6-3.6"/><path class="cls-21" d="M259.8 375.2H373M259.8 368H373M259.8 368H373M259.8 375.2H373"/><path class="cls-25" d="M224 368h-17.3l-6 7.2H224V368"/><path class="cls-19" d="M224.2 369.9l-1.9-1.9M224.2 373.8l-6-5.8M221.6 375.2l-7.2-7.2M217.5 375.2l-7.2-7.2M213.4 375.2l-6.9-7M209.4 375.2l-4.6-4.8M205.5 375.2l-2.6-2.4M201.4 375.2l-.2-.2M220.2 375.2l4-3.8M216.3 375.2l7.2-7.2M212.2 375.2l7.2-7.2M208.2 375.2l7.2-7.2M204.3 375.2l7.2-7.2M203.8 371.6l3.6-3.6"/><path class="cls-25" d="M224 368h-17.3l-6 7.2H224V368"/><path class="cls-19" d="M224.2 369.9l-1.9-1.9M224.2 373.8l-6-5.8M221.6 375.2l-7.2-7.2M217.5 375.2l-7.2-7.2M213.4 375.2l-6.9-7M209.4 375.2l-4.6-4.8M205.5 375.2l-2.6-2.4M201.4 375.2l-.2-.2M220.2 375.2l4-3.8M216.3 375.2l7.2-7.2M212.2 375.2l7.2-7.2M208.2 375.2l7.2-7.2M204.3 375.2l7.2-7.2M203.8 371.6l3.6-3.6"/><path class="cls-21" d="M207.9 375.2H224M206.7 368H224M206.7 368H224M207.9 375.2H224M373 373v2.2"/><path class="cls-20" d="M224 374h2.6v1.7H224zM253.8 374h6v1.7h-6zM226.6 374h27.1v1.7h-27.1zM226.6 374h27.2"/><path class="cls-1" d="M226.4 368h27.8"/><path class="cls-20" d="M253.8 368h.4"/><path class="cls-25" d="M224 368h2.4v6H224"/><path class="cls-19" d="M226.6 368.2l-.2-.2M226.6 372.3l-2.4-2.4M224.2 374v-.2M225.4 374l1.2-1M224.2 371.4l2.4-2.4"/><path class="cls-25" d="M259.8 368h-5.6v6h5.6"/><path class="cls-19" d="M260 369.4l-1.7-1.4M260 373.5l-5.5-5.5M256.4 374l-1.9-1.9M257.6 374l2.4-2.4M254.5 373.3l5-5.3M254.5 369.2l.9-1.2"/><path class="cls-21" d="M226.4 368v6M254.2 368v6M226.4 368v6M224 368h2.4M254.2 368v6M259.8 368h-5.6M224 375.2V374M259.8 375.2V374M224 368h2.4M259.8 368h-5.6M226.4 374H224M254.2 374h5.6"/><path class="cls-26" d="M57.2 273.2H42.6v-10.3h14.6v10.3"/><path class="cls-25" d="M42.6 273.2h3.3v-10.3h-3.3v10.3"/><path class="cls-19" d="M42.8 272.5l.5.7M42.8 268.6l3.4 3.4M42.8 264.6l3.4 3.3M45 262.9l1.2.9"/><path class="cls-25" d="M45.9 273.2h.5v-10.3h-.5v10.3M46.4 273.2h5.8v-10.3h-5.8v10.3"/><path class="cls-19" d="M52.4 263.8h-5.8M52.4 265.3h-5.8M52.4 266.7h-5.8M52.4 267.9h-5.8M52.4 269.4h-5.8M52.4 270.8h-5.8M52.4 272.2h-5.8"/><path class="cls-25" d="M52.2 273.2h5v-10.3h-5v10.3"/><path class="cls-19" d="M52.4 270.1l2.9 3.1M52.4 266.2l5 5.1M53.1 262.9l4.3 4.3M57 262.9l.4.2"/><path class="cls-21" d="M45.9 273.2v-10.3M42.6 273.2v-10.3"/><path class="cls-19" d="M52.2 273.2v-10.3M46.4 273.2v-10.3"/><path class="cls-21" d="M57.2 273.2v-10.3M52.2 273.2v-10.3"/><path class="cls-20" d="M42.6 273.2v-10.3M57.2 273.2v-10.3"/><path class="cls-26" d="M57.2 306.6H42.6v-7.2h14.6v7.2"/><path class="cls-25" d="M42.6 306.6h3.3v-7.2h-3.3v7.2"/><path class="cls-19" d="M42.8 304.6l1.9 2M42.8 300.6l3.4 3.3M45.4 299.4l.8.7"/><path class="cls-25" d="M45.9 306.6h.5v-7.2h-.5v7.2M46.4 306.6h5.8v-7.2h-5.8v7.2"/><path class="cls-19" d="M52.4 300.6h-5.8M52.4 302h-5.8M52.4 303.4h-5.8M52.4 304.9h-5.8M52.4 306.3h-5.8"/><path class="cls-25" d="M52.2 306.6h5v-7.2h-5v7.2"/><path class="cls-19" d="M52.4 306.3l.2.3M52.4 302.2l4.3 4.4M53.4 299.4l4 3.8"/><path class="cls-21" d="M45.9 306.6v-7.2M42.6 306.6v-7.2"/><path class="cls-19" d="M52.2 306.6v-7.2M46.4 306.6v-7.2"/><path class="cls-21" d="M57.2 306.6v-7.2M52.2 306.6v-7.2M45.9 299.4h-3.3"/><path class="cls-19" d="M52.2 299.4h-5.8"/><path class="cls-21" d="M57.2 299.4h-5M45.9 273.2h-3.3"/><path class="cls-19" d="M52.2 273.2h-5.8"/><path class="cls-21" d="M57.2 273.2h-5"/><path class="cls-20" d="M42.6 306.6v-7.2M57.2 306.6v-7.2"/><path class="cls-26" d="M57.2 372.8H42.6v-7h14.6v7"/><path class="cls-25" d="M42.6 372.8h3.3v-7h-3.3v7"/><path class="cls-19" d="M42.8 368.7l3.4 3.4M43.8 365.8l2.4 2.4"/><path class="cls-25" d="M45.9 372.8h.5v-7h-.5v7M46.4 372.8h5.8v-7h-5.8v7"/><path class="cls-19" d="M52.4 367.3h-5.8M52.4 368.7h-5.8M52.4 370.2h-5.8M52.4 371.6h-5.8"/><path class="cls-25" d="M52.2 372.8h5v-7h-5v7"/><path class="cls-19" d="M52.4 370.4l2.4 2.4M52.4 366.3l5 5.1M55.8 365.8l1.6 1.5"/><path class="cls-21" d="M45.9 372.8v-7M42.6 372.8v-7"/><path class="cls-19" d="M52.2 372.8v-7M46.4 372.8v-7"/><path class="cls-21" d="M57.2 372.8v-7M52.2 372.8v-7"/><path class="cls-20" d="M42.6 372.8v-7M57.2 372.8v-7"/><path class="cls-26" d="M42.6 408.6V399h14.6v9.6"/><path class="cls-25" d="M45.9 408.6V399h-3.3v9.6"/><path class="cls-19" d="M42.8 400.9l3.4 3.3M44.7 399l1.5 1.2"/><path class="cls-25" d="M46.4 408.6V399h-.5v9.6M52.2 408.6V399h-5.8v9.6"/><path class="cls-19" d="M52.4 399.9h-5.8M52.4 401.4h-5.8"/><path class="cls-25" d="M57.2 408.6V399h-5v9.6"/><path class="cls-19" d="M52.9 399l4.5 4.5M56.7 399l.7.4"/><path class="cls-21" d="M45.9 408.6V399M42.6 408.6V399"/><path class="cls-19" d="M52.2 408.6V399M46.4 408.6V399"/><path class="cls-21" d="M57.2 408.6V399M52.2 408.6V399"/><path class="cls-20" d="M42.6 408.6V399M57.2 408.6V399"/><path class="cls-1" d="M52.2 365.1h5"/><path class="cls-20" d="M56.7 365.1h.5"/><path class="cls-1" d="M57.2 365.1v-57.8"/><path class="cls-20" d="M57.2 307.8v-.5"/><path class="cls-8" d="M57.2 307.3h-5"/><path class="cls-20" d="M52.6 307.3h-.4"/><path class="cls-1" d="M50 365.8h-7.4"/><path class="cls-6" d="M42.6 365.8v3.4"/><path class="cls-20" d="M41.4 369.2h-.8"/><path class="cls-18" d="M40.6 369.2v-66"/><path class="cls-20" d="M40.6 303.2h2"/><path class="cls-9" d="M42.6 303.2v3.4"/><path class="cls-1" d="M42.6 306.6H50"/><path class="cls-21" d="M42.6 365.8v3.4M42.6 306.6v-3.4"/><path class="cls-20" d="M50 306.6h2.2v59.3H50zM50 362h2.2M50 310.2h2.2M52.2 365.8H50M52.2 338.2H50M52.2 362H50M52.2 334.2H50M52.2 338.2H50M52.2 310.2H50M52.2 334.2H50M52.2 306.6H50"/><path class="cls-21" d="M42.6 365.8h3.3M45.9 365.8H50"/><path class="cls-25" d="M57.2 365.8v-.7h-5v.7"/><path class="cls-19" d="M55.8 365.8l-.8-.7M57.2 365.8h.2M53.4 365.8l.7-.7"/><path class="cls-21" d="M57.2 365.8v-.7h-5v.7M42.6 306.6h3.3M45.9 306.6H50"/><path class="cls-25" d="M57.2 306.6v.7h-5v-.7"/><path class="cls-19" d="M57.4 307.3l-.7-.7M53.4 307.3l-.8-.7M55.8 307.3l.7-.7M52.4 306.6"/><path class="cls-21" d="M57.2 306.6v.7h-5v-.7"/><path class="cls-26" d="M50.2 299.4v-26.2h-7.6 14.6v26.2H42.6h7.6"/><path class="cls-26" d="M42.6 273.2h14.6v26.2H42.6h7.6v-26.2h-7.6"/><path class="cls-26" d="M57.2 273.2v26.2H42.6h7.6v-26.2h-7.6 14.6"/><path class="cls-26" d="M42.6 299.4h7.6v-26.2h-7.6 14.6v26.2H42.6"/><path class="cls-26" d="M50.2 299.4v-26.2h-7.6 14.6v26.2H42.6h7.6"/><path class="cls-26" d="M42.6 273.2h14.6v26.2H42.6h7.6v-26.2h-7.6"/><path class="cls-26" d="M57.2 273.2v26.2H42.6h7.6v-26.2h-7.6 14.6"/><path class="cls-26" d="M42.6 299.4h7.6v-26.2h-7.6 14.6v26.2H42.6"/><path class="cls-26" d="M50.2 299.4v-26.2h-7.6 14.6v26.2H42.6h7.6"/><path class="cls-26" d="M42.6 273.2h14.6v26.2H42.6h7.6v-26.2h-7.6"/><path class="cls-26" d="M57.2 273.2v26.2H42.6h7.6v-26.2h-7.6 14.6"/><path class="cls-25" d="M46.4 299.4h5.8v-26.2h-5.8 3.8v26.2h-3.8"/><path class="cls-19" d="M52.4 273.7h-1.9M52.4 275.1h-1.9M52.4 276.6h-1.9M52.4 278h-1.9M52.4 279.4h-1.9M52.4 280.9h-1.9M52.4 282.1h-1.9M52.4 283.5h-1.9M52.4 285h-1.9M52.4 286.4h-1.9M52.4 287.8h-1.9M52.4 289.3h-1.9M52.4 290.7h-1.9M52.4 292.2h-1.9M52.4 293.6h-1.9M52.4 295h-1.9M52.4 296.5h-1.9M52.4 297.7h-1.9M52.4 299.1h-1.9"/><path class="cls-25" d="M52.2 299.4h5v-26.2h-5v26.2"/><path class="cls-19" d="M52.4 298.2l1 1.2M52.4 294.1l5 5M52.4 290.2l5 5.1M52.4 286.2l5 5M52.4 282.1l5 5M52.4 278.2l5 5.1M52.4 274.2l5 5M55.3 273.2l2.1 1.9"/><path class="cls-21" d="M57.2 299.4v-26.2"/><path class="cls-20" d="M50.2 299.4h-3.8M50.2 273.2v26.2M46.4 273.2h3.8"/><path class="cls-19" d="M52.2 299.4v-26.2"/><path class="cls-21" d="M52.2 299.4v-26.2"/><path class="cls-20" d="M45.9 273.2h.5M46.4 299.4h-.5M45.9 273.2"/><path class="cls-21" d="M42.6 273.2h3.3M45.9 299.4h-3.3"/><path class="cls-20" d="M57.2 299.4v-26.2M42.6 273.2h7.6M50.2 273.2v26.2M50.2 299.4h-7.6M45.9 299.4"/><path class="cls-26" d="M42.6 399h7.6v-26.2h-7.6 14.6V399H42.6"/><path class="cls-20" d="M50.5 382.9h6.9"/><path class="cls-26" d="M50.2 399v-26.2h-7.6 14.6V399H42.6h7.6"/><path class="cls-20" d="M50.5 382.9h6.9"/><path class="cls-26" d="M42.6 372.8h14.6V399H42.6h7.6v-26.2h-7.6"/><path class="cls-20" d="M50.5 382.9h6.9"/><path class="cls-26" d="M57.2 372.8V399H42.6h7.6v-26.2h-7.6 14.6"/><path class="cls-20" d="M50.5 382.9h6.9"/><path class="cls-26" d="M42.6 399h7.6v-26.2h-7.6 14.6V399H42.6"/><path class="cls-20" d="M50.5 382.9h6.9"/><path class="cls-26" d="M50.2 399v-26.2h-7.6 14.6V399H42.6h7.6"/><path class="cls-20" d="M50.5 382.9h6.9"/><path class="cls-26" d="M42.6 372.8h14.6V399H42.6h7.6v-26.2h-7.6"/><path class="cls-20" d="M50.5 382.9h6.9"/><path class="cls-26" d="M57.2 372.8V399H42.6h7.6v-26.2h-7.6 14.6"/><path class="cls-20" d="M50.5 382.9h6.9"/><path class="cls-26" d="M42.6 399h7.6v-26.2h-7.6 14.6V399H42.6"/><path class="cls-20" d="M50.5 382.9h6.9"/><path class="cls-26" d="M50.2 399v-26.2h-7.6 14.6V399H42.6h7.6"/><path class="cls-20" d="M50.5 382.9h6.9"/><path class="cls-26" d="M42.6 372.8h14.6V399H42.6h7.6v-26.2h-7.6"/><path class="cls-20" d="M50.5 382.9h6.9"/><path class="cls-26" d="M57.2 372.8V399H42.6h7.6v-26.2h-7.6 14.6"/><path class="cls-20" d="M50.5 382.9h6.9"/><path class="cls-25" d="M46.4 399h5.8v-26.2h-5.8 3.8V399h-3.8"/><path class="cls-19" d="M52.4 372.8h-1.9M52.4 374.2h-1.9M52.4 375.7h-1.9M52.4 377.1h-1.9M52.4 378.6h-1.9M52.4 380h-1.9M52.4 381.4h-1.9M52.4 382.9h-1.9M52.4 384.3h-1.9M52.4 385.8h-1.9M52.4 387h-1.9M52.4 388.4h-1.9M52.4 389.8h-1.9M52.4 391.3h-1.9M52.4 392.7h-1.9M52.4 394.2h-1.9M52.4 395.6h-1.9M52.4 397h-1.9M52.4 398.5h-1.9"/><path class="cls-25" d="M52.2 399h5v-26.2h-5V399"/><path class="cls-19" d="M52.4 398.5l.5.5M52.4 394.4l4.3 4.6M52.4 390.3l5 5.1M52.4 386.5l5 5M52.4 382.4l5 5M52.4 378.3l5 5.1M52.4 374.5l5 5M54.8 372.8l2.6 2.6"/><path class="cls-21" d="M57.2 399v-26.2"/><path class="cls-20" d="M50.2 399h-3.8M50.2 372.8V399M46.4 372.8h3.8"/><path class="cls-19" d="M52.2 399v-26.2"/><path class="cls-21" d="M52.2 399v-26.2"/><path class="cls-20" d="M45.9 372.8h.5M46.4 399h-.5M45.9 372.8"/><path class="cls-21" d="M42.6 372.8h3.3M45.9 399h-3.3"/><path class="cls-20" d="M57.2 399v-26.2M42.6 372.8h7.6M50.2 372.8V399M50.2 399h-7.6M45.9 399"/><path class="cls-26" d="M50.2 299.4v-26.2h-7.6 14.6v26.2H42.6h7.6"/><path class="cls-26" d="M42.6 273.2h14.6v26.2H42.6h7.6v-26.2h-7.6"/><path class="cls-26" d="M57.2 273.2v26.2H42.6h7.6v-26.2h-7.6 14.6"/><path class="cls-25" d="M46.4 299.4h5.8v-26.2h-5.8 3.8v26.2h-3.8"/><path class="cls-19" d="M52.4 273.7h-1.9M52.4 275.1h-1.9M52.4 276.6h-1.9M52.4 278h-1.9M52.4 279.4h-1.9M52.4 280.9h-1.9M52.4 282.1h-1.9M52.4 283.5h-1.9M52.4 285h-1.9M52.4 286.4h-1.9M52.4 287.8h-1.9M52.4 289.3h-1.9M52.4 290.7h-1.9M52.4 292.2h-1.9M52.4 293.6h-1.9M52.4 295h-1.9M52.4 296.5h-1.9M52.4 297.7h-1.9M52.4 299.1h-1.9"/><path class="cls-25" d="M52.2 299.4h5v-26.2h-5v26.2"/><path class="cls-19" d="M52.4 298.2l1 1.2M52.4 294.1l5 5M52.4 290.2l5 5.1M52.4 286.2l5 5M52.4 282.1l5 5M52.4 278.2l5 5.1M52.4 274.2l5 5M55.3 273.2l2.1 1.9"/><path class="cls-21" d="M57.2 299.4v-26.2"/><path class="cls-20" d="M50.2 299.4h-3.8M50.2 273.2v26.2M46.4 273.2h3.8"/><path class="cls-19" d="M52.2 299.4v-26.2"/><path class="cls-21" d="M52.2 299.4v-26.2"/><path class="cls-20" d="M45.9 273.2h.5M46.4 299.4h-.5M45.9 273.2"/><path class="cls-21" d="M42.6 273.2h3.3M45.9 299.4h-3.3"/><path class="cls-20" d="M57.2 299.4v-26.2M42.6 273.2h7.6M50.2 273.2v26.2M50.2 299.4h-7.6M45.9 299.4"/><path class="cls-19" d="M49.9 336.1c-15.2 0-27.8 12.5-27.8 27.8M22.2 363.9H50"/><path class="cls-5" d="M50 336.1h-2.9l-2.6-.5-2.7-.7-2.6-1-2.4-1.2-2.4-1.2-2.2-1.7-1.9-1.9-1.9-1.9-1.7-2.2-1.4-2.4-1-2.4-.9-2.6-.8-2.6-.4-2.7v-2.9M22.2 308.2H50"/><path class="cls-19" d="M49.5 308.2h.5"/><path class="cls-25" d="M57.2 291.4l-5-6.9v22.8h5v-15.9"/><path class="cls-19" d="M56.7 290.7l-4.3-4.5M57.4 295.3l-5-5.1M57.4 299.1l-5-5M57.4 303.2l-5-5M57.4 307.3l-5-5.1M53.4 307.3l-1-1M55.8 307.3l1.6-1.7M52.4 306.6l5-5.1M52.4 302.7l5-5M52.4 298.6l5-5M52.4 294.6l4.1-4.1M52.4 290.7l2.4-2.6M52.4 286.6l.7-.9"/><path class="cls-25" d="M57.2 291.4l-5-6.9v22.8h5v-15.9"/><path class="cls-19" d="M56.7 290.7l-4.3-4.5M57.4 295.3l-5-5.1M57.4 299.1l-5-5M57.4 303.2l-5-5M57.4 307.3l-5-5.1M53.4 307.3l-1-1M55.8 307.3l1.6-1.7M52.4 306.6l5-5.1M52.4 302.7l5-5M52.4 298.6l5-5M52.4 294.6l4.1-4.1M52.4 290.7l2.4-2.6M52.4 286.6l.7-.9"/><path class="cls-21" d="M57.2 307.3v-15.9M52.2 307.3v-22.8M52.2 307.3v-22.8M57.2 307.3v-15.9M57.2 307.3h-5"/><path class="cls-25" d="M52.2 365.1V387l5-7v-14.9h-5"/><path class="cls-19" d="M57.4 367.3l-2.4-2.2M57.4 371.4l-5-5.1M57.4 375.4l-5-5M57.4 379.5l-5-5M56 381.9l-3.6-3.6M54.3 384.3l-1.9-1.9M52.4 386.7v-.2M52.4 387l.2-.5M52.4 382.9l5-5.1M52.4 378.8l5-5M52.4 374.7l5-5M52.4 370.9l5-5.1M52.4 366.8l1.7-1.7"/><path class="cls-25" d="M52.2 365.1V387l5-7v-14.9h-5"/><path class="cls-19" d="M57.4 367.3l-2.4-2.2M57.4 371.4l-5-5.1M57.4 375.4l-5-5M57.4 379.5l-5-5M56 381.9l-3.6-3.6M54.3 384.3l-1.9-1.9M52.4 386.7v-.2M52.4 387l.2-.5M52.4 382.9l5-5.1M52.4 378.8l5-5M52.4 374.7l5-5M52.4 370.9l5-5.1M52.4 366.8l1.7-1.7"/><path class="cls-21" d="M57.2 380v-14.9M52.2 387v-21.9M57.2 365.1h-5M52.2 387v-21.9M57.2 380v-14.9"/><path class="cls-24" d="M46.4 273.2h3.8v1.2h-3.8z"/><path class="cls-19" d="M49.5 274.4v-1.2M48.1 274.4v-1.2M46.6 274.4v-1.2M46.4 273.2h3.8v1.2h-3.8z"/><path class="cls-24" d="M46.4 298.4h3.8v1h-3.8z"/><path class="cls-19" d="M49.5 299.4v-1M48.1 299.4v-1M46.6 299.4v-1M46.4 298.4h3.8v1h-3.8z"/><path class="cls-21" d="M42.6 274.4h7.7v24h-7.7zM42.6 274.4v-1.2M42.6 286.4h7.6M42.6 298.4v1"/><path class="cls-20" d="M42.6 274.4h-.8"/><path class="cls-18" d="M41.8 274.4v24"/><path class="cls-20" d="M41.8 298.4h.8"/><path class="cls-24" d="M46.4 372.8h3.8v1.2h-3.8z"/><path class="cls-19" d="M49.5 374v-1.2M48.1 374v-1.2M46.6 374v-1.2M46.4 372.8h3.8v1.2h-3.8z"/><path class="cls-24" d="M46.4 398h3.8v1h-3.8z"/><path class="cls-19" d="M49.5 399v-1M48.1 399v-1M46.6 399v-1M46.4 398h3.8v1h-3.8z"/><path class="cls-21" d="M42.6 374h7.7v24h-7.7zM42.6 374v-1.2M42.6 386h7.6M42.6 398v1"/><path class="cls-20" d="M42.6 374h-.8"/><path class="cls-18" d="M41.8 374v24"/><path class="cls-20" d="M41.8 398h.8"/><path class="cls-25" d="M204.6 284.5v6.9H52.2v-6.9h152.4"/><path class="cls-19" d="M204.8 286.2l-1.9-1.7M204.8 290.2l-6-5.7M201.9 291.4l-6.9-6.9M197.8 291.4l-6.9-6.9M193.8 291.4l-7-6.9M189.9 291.4l-6.9-6.9M185.8 291.4l-6.9-6.9M181.8 291.4l-7-6.9M177.9 291.4l-6.9-6.9M173.8 291.4l-6.9-6.9M169.8 291.4l-7-6.9M165.7 291.4l-7-6.9M161.8 291.4l-6.9-6.9M157.8 291.4l-7-6.9M153.7 291.4l-7-6.9M149.8 291.4l-6.9-6.9M145.8 291.4l-7-6.9M141.7 291.4l-7-6.9M137.8 291.4l-6.9-6.9M133.8 291.4l-7-6.9M129.7 291.4l-7-6.9M125.6 291.4l-7-6.9M121.8 291.4l-7-6.9M117.7 291.4l-7-6.9M113.6 291.4l-7-6.9M109.8 291.4l-7-6.9M105.7 291.4l-7-6.9M101.6 291.4l-7-6.9M97.5 291.4l-6.9-6.9M93.7 291.4l-7-6.9M89.6 291.4l-7-6.9M85.5 291.4l-6.9-6.9M81.7 291.4l-7-6.9M77.6 291.4l-7-6.9M73.5 291.4l-6.9-6.9M69.7 291.4l-7-6.9M65.6 291.4l-7-6.9M61.5 291.4l-6.9-6.9M57.4 291.4l-5-5.2M53.6 291.4l-1.2-1.2M203.8 291.4l1-.9M199.8 291.4l5-4.8M195.7 291.4l6.9-6.9M191.8 291.4l7-6.9M187.8 291.4l6.9-6.9M183.7 291.4l6.9-6.9M179.8 291.4l7-6.9M175.8 291.4l6.9-6.9M171.7 291.4l6.9-6.9M167.8 291.4l7-6.9M163.8 291.4l6.9-6.9M159.7 291.4l6.9-6.9M155.6 291.4l7-6.9M151.8 291.4l6.9-6.9M147.7 291.4l6.9-6.9M143.6 291.4l7-6.9M139.8 291.4l6.9-6.9M135.7 291.4l6.9-6.9M131.6 291.4l7-6.9M127.8 291.4l6.9-6.9M123.7 291.4l6.9-6.9M119.6 291.4l7-6.9M115.5 291.4l7-6.9M111.7 291.4l6.9-6.9M107.6 291.4l7-6.9M103.5 291.4l7-6.9M99.7 291.4l6.9-6.9M95.6 291.4l7-6.9M91.5 291.4l7-6.9M87.4 291.4l7-6.9M83.6 291.4l7-6.9M79.5 291.4l7-6.9M75.4 291.4l7-6.9M71.6 291.4l7-6.9M67.5 291.4l7-6.9M63.4 291.4l7-6.9M59.6 291.4l7-6.9M55.5 291.4l7-6.9M52.4 290.7l6-6.2M52.4 286.6l1.9-2.1"/><path class="cls-25" d="M204.6 291.4v-6.9H52.2v6.9h152.4"/><path class="cls-19" d="M204.8 286.2l-1.9-1.7M204.8 290.2l-6-5.7M201.9 291.4l-6.9-6.9M197.8 291.4l-6.9-6.9M193.8 291.4l-7-6.9M189.9 291.4l-6.9-6.9M185.8 291.4l-6.9-6.9M181.8 291.4l-7-6.9M177.9 291.4l-6.9-6.9M173.8 291.4l-6.9-6.9M169.8 291.4l-7-6.9M165.7 291.4l-7-6.9M161.8 291.4l-6.9-6.9M157.8 291.4l-7-6.9M153.7 291.4l-7-6.9M149.8 291.4l-6.9-6.9M145.8 291.4l-7-6.9M141.7 291.4l-7-6.9M137.8 291.4l-6.9-6.9M133.8 291.4l-7-6.9M129.7 291.4l-7-6.9M125.6 291.4l-7-6.9M121.8 291.4l-7-6.9M117.7 291.4l-7-6.9M113.6 291.4l-7-6.9M109.8 291.4l-7-6.9M105.7 291.4l-7-6.9M101.6 291.4l-7-6.9M97.5 291.4l-6.9-6.9M93.7 291.4l-7-6.9M89.6 291.4l-7-6.9M85.5 291.4l-6.9-6.9M81.7 291.4l-7-6.9M77.6 291.4l-7-6.9M73.5 291.4l-6.9-6.9M69.7 291.4l-7-6.9M65.6 291.4l-7-6.9M61.5 291.4l-6.9-6.9M57.4 291.4l-5-5.2M53.6 291.4l-1.2-1.2M203.8 291.4l1-.9M199.8 291.4l5-4.8M195.7 291.4l6.9-6.9M191.8 291.4l7-6.9M187.8 291.4l6.9-6.9M183.7 291.4l6.9-6.9M179.8 291.4l7-6.9M175.8 291.4l6.9-6.9M171.7 291.4l6.9-6.9M167.8 291.4l7-6.9M163.8 291.4l6.9-6.9M159.7 291.4l6.9-6.9M155.6 291.4l7-6.9M151.8 291.4l6.9-6.9M147.7 291.4l6.9-6.9M143.6 291.4l7-6.9M139.8 291.4l6.9-6.9M135.7 291.4l6.9-6.9M131.6 291.4l7-6.9M127.8 291.4l6.9-6.9M123.7 291.4l6.9-6.9M119.6 291.4l7-6.9M115.5 291.4l7-6.9M111.7 291.4l6.9-6.9M107.6 291.4l7-6.9M103.5 291.4l7-6.9M99.7 291.4l6.9-6.9M95.6 291.4l7-6.9M91.5 291.4l7-6.9M87.4 291.4l7-6.9M83.6 291.4l7-6.9M79.5 291.4l7-6.9M75.4 291.4l7-6.9M71.6 291.4l7-6.9M67.5 291.4l7-6.9M63.4 291.4l7-6.9M59.6 291.4l7-6.9M55.5 291.4l7-6.9M52.4 290.7l6-6.2M52.4 286.6l1.9-2.1"/><path class="cls-21" d="M204.6 284.5H52.2M204.6 291.4H52.2M52.2 284.5v6.9M204.6 291.4H52.2M204.6 284.5H52.2"/><path class="cls-25" d="M371.6 284.5v6.9H236.7v-6.9h134.9"/><path class="cls-19" d="M371.8 285l-.4-.5M371.8 288.8l-4.5-4.3M370.2 291.4l-7-6.9M366.3 291.4l-6.9-6.9M362.2 291.4l-6.9-6.9M358.2 291.4l-7-6.9M354.1 291.4l-7-6.9M350.2 291.4l-6.9-6.9M346.2 291.4l-7-6.9M342.1 291.4l-7-6.9M338.2 291.4l-6.9-6.9M334.2 291.4l-7-6.9M330.1 291.4l-7-6.9M326.2 291.4l-6.9-6.9M322.2 291.4l-7-6.9M318.1 291.4l-7-6.9M314 291.4l-7-6.9M310.2 291.4l-7-6.9M306.1 291.4l-7-6.9M302 291.4l-7-6.9M298.2 291.4l-7-6.9M294.1 291.4l-7-6.9M290 291.4l-7-6.9M286.2 291.4l-7-6.9M282.1 291.4l-7-6.9M278 291.4l-7-6.9M273.9 291.4l-6.9-6.9M270.1 291.4l-7-6.9M266 291.4l-7-6.9M261.9 291.4l-6.9-6.9M258.1 291.4l-7-6.9M254 291.4l-7-6.9M249.9 291.4l-6.9-6.9M245.8 291.4l-6.9-6.9M242 291.4l-5-5M237.9 291.4l-.9-1.2M368.2 291.4l3.6-3.6M364.2 291.4l6.9-6.9M360.1 291.4l6.9-6.9M356.2 291.4l7-6.9M352.2 291.4l6.9-6.9M348.1 291.4l6.9-6.9M344.2 291.4l7-6.9M340.2 291.4l6.9-6.9M336.1 291.4l6.9-6.9M332 291.4l7-6.9M328.2 291.4l6.9-6.9M324.1 291.4l6.9-6.9M320 291.4l7-6.9M316.2 291.4l6.9-6.9M312.1 291.4l6.9-6.9M308 291.4l7-6.9M303.9 291.4l7-6.9M300.1 291.4l6.9-6.9M296 291.4l7-6.9M291.9 291.4l7-6.9M288.1 291.4l6.9-6.9M284 291.4l7-6.9M279.9 291.4l7-6.9M276.1 291.4l6.9-6.9M272 291.4l7-6.9M267.9 291.4l7-6.9M263.8 291.4l7-6.9M260 291.4l7-6.9M255.9 291.4l7-6.9M251.8 291.4l7-6.9M248 291.4l7-6.9M243.9 291.4l7-6.9M239.8 291.4l7-6.9M237 290.5l6-6M237 286.4l1.9-1.9"/><path class="cls-25" d="M371.6 291.4v-6.9H236.7v6.9h134.9"/><path class="cls-19" d="M371.8 285l-.4-.5M371.8 288.8l-4.5-4.3M370.2 291.4l-7-6.9M366.3 291.4l-6.9-6.9M362.2 291.4l-6.9-6.9M358.2 291.4l-7-6.9M354.1 291.4l-7-6.9M350.2 291.4l-6.9-6.9M346.2 291.4l-7-6.9M342.1 291.4l-7-6.9M338.2 291.4l-6.9-6.9M334.2 291.4l-7-6.9M330.1 291.4l-7-6.9M326.2 291.4l-6.9-6.9M322.2 291.4l-7-6.9M318.1 291.4l-7-6.9M314 291.4l-7-6.9M310.2 291.4l-7-6.9M306.1 291.4l-7-6.9M302 291.4l-7-6.9M298.2 291.4l-7-6.9M294.1 291.4l-7-6.9M290 291.4l-7-6.9M286.2 291.4l-7-6.9M282.1 291.4l-7-6.9M278 291.4l-7-6.9M273.9 291.4l-6.9-6.9M270.1 291.4l-7-6.9M266 291.4l-7-6.9M261.9 291.4l-6.9-6.9M258.1 291.4l-7-6.9M254 291.4l-7-6.9M249.9 291.4l-6.9-6.9M245.8 291.4l-6.9-6.9M242 291.4l-5-5M237.9 291.4l-.9-1.2M368.2 291.4l3.6-3.6M364.2 291.4l6.9-6.9M360.1 291.4l6.9-6.9M356.2 291.4l7-6.9M352.2 291.4l6.9-6.9M348.1 291.4l6.9-6.9M344.2 291.4l7-6.9M340.2 291.4l6.9-6.9M336.1 291.4l6.9-6.9M332 291.4l7-6.9M328.2 291.4l6.9-6.9M324.1 291.4l6.9-6.9M320 291.4l7-6.9M316.2 291.4l6.9-6.9M312.1 291.4l6.9-6.9M308 291.4l7-6.9M303.9 291.4l7-6.9M300.1 291.4l6.9-6.9M296 291.4l7-6.9M291.9 291.4l7-6.9M288.1 291.4l6.9-6.9M284 291.4l7-6.9M279.9 291.4l7-6.9M276.1 291.4l6.9-6.9M272 291.4l7-6.9M267.9 291.4l7-6.9M263.8 291.4l7-6.9M260 291.4l7-6.9M255.9 291.4l7-6.9M251.8 291.4l7-6.9M248 291.4l7-6.9M243.9 291.4l7-6.9M239.8 291.4l7-6.9M237 290.5l6-6M237 286.4l1.9-1.9"/><path class="cls-21" d="M371.6 284.5H236.7M371.6 291.4H236.7M371.6 291.4H236.7M364.4 284.5H236.7"/><path class="cls-25" d="M403.8 291.4h1.9l7.2-6.9h-9.1v6.9"/><path class="cls-19" d="M412.2 285.2l-.8-.7M410.2 287.4l-2.8-2.9M408.1 289.3L404 285M406.2 291.2L404 289M404.2 291.4l7-6.9M404 287.8l3.1-3.3"/><path class="cls-25" d="M403.8 291.4h1.9l7.2-6.9h-9.1v6.9"/><path class="cls-19" d="M412.2 285.2l-.8-.7M410.2 287.4l-2.8-2.9M408.1 289.3L404 285M406.2 291.2L404 289M404.2 291.4l7-6.9M404 287.8l3.1-3.3"/><path class="cls-21" d="M412.9 284.5h-9.1M405.7 291.4h-1.9M405.7 291.4h-1.9M412.9 284.5h-9.1"/><path class="cls-20" d="M234.3 283.8h2.4v1.7h-2.4zM204.6 283.8h2.4v1.7h-2.4z"/><path class="cls-20" d="M207 283.8h27.4v1.7H207zM234.3 285.4H207"/><path class="cls-1" d="M234.6 291.4h-27.9"/><path class="cls-20" d="M207.2 291.4h-.5"/><path class="cls-25" d="M236.7 291.4h-2.1v-6h2.1"/><path class="cls-19" d="M237 286.4l-1-1M237 290.2l-2.2-2.1M236 291.4l1-.9M234.8 288.6l2.2-2.2"/><path class="cls-25" d="M204.6 291.4h2.1v-6h-2.1"/><path class="cls-19" d="M207 288.3l-2.2-2.1M205.8 291.4l-1-1.2M204.8 290.5l2.2-2.2M204.8 286.6l1-1.2"/><path class="cls-21" d="M234.6 291.4v-6M206.7 291.4v-6M234.6 291.4v-6M236.7 291.4h-2.1M206.7 291.4v-6M204.6 291.4h2.1M236.7 284.5v.9M204.6 284.5v.9M236.7 291.4h-2.1M204.6 291.4h2.1M234.6 285.4h2.1M206.7 285.4h-2.1"/><path class="cls-20" d="M401.4 283.8h2.4v1.7h-2.4zM371.6 283.8h2.4v1.7h-2.4zM374 283.8h27.4v1.7H374zM401.4 285.4H374"/><path class="cls-1" d="M401.6 291.4h-27.8"/><path class="cls-20" d="M374.2 291.4h-.4"/><path class="cls-25" d="M403.8 291.4h-2.2v-6h2.2"/><path class="cls-19" d="M404 289l-2.2-2.1M402.3 291.4l-.5-.4M401.8 290l2.2-2.2M401.8 285.9l.5-.5"/><path class="cls-25" d="M371.6 291.4h2.2v-6h-2.2"/><path class="cls-19" d="M374 287.1l-1.7-1.7M374 291l-2.2-2.2M372.1 291.4l1.9-1.6M371.8 287.8l2.2-2.1"/><path class="cls-21" d="M401.6 291.4v-6M373.8 291.4v-6M401.6 291.4v-6M403.8 291.4h-2.2M373.8 291.4v-6M371.6 291.4h2.2M403.8 284.5v.9M371.6 284.5v.9M403.8 291.4h-2.2M371.6 291.4h2.2M401.6 285.4h2.2M373.8 285.4h-2.2"/><path class="cls-19" d="M401.2 283.8c0-14.9-12.3-27.2-27.2-27.2M374 283.8v-27.2"/><path class="cls-25" d="M138.8 387v-7H52.2v7h86.6"/><path class="cls-19" d="M139 380.7l-.9-.7M139 384.8l-5-4.8M137.1 387l-6.9-7M133 387l-6.9-7M129 387l-7-7M125.1 387l-6.9-7M121 387l-6.9-7M117 387l-7-7M112.9 387l-7-7M109 387l-6.9-7M105 387l-7-7M100.9 387l-7-7M97 387l-6.9-7M93 387l-7-7M88.9 387l-7-7M84.8 387l-7-7M81 387l-7-7M76.9 387l-7-7M72.8 387l-7-7M69 387l-7-7M64.9 387l-7-7M60.8 387l-7-7M57 387l-4.6-4.6M52.9 387l-.5-.5M136.4 387l2.6-2.7M132.3 387l6.7-6.5M128.2 387l7-7M124.4 387l7-7M120.3 387l7-7M116.2 387l7-7M112.4 387l7-7M108.3 387l7-7M104.2 387l7-7M100.2 387l6.9-7M96.3 387l7-7M92.2 387l7-7M88.2 387l6.9-7M84.3 387l7-7M80.2 387l7-7M76.2 387l6.9-7M72.3 387l7-7M68.2 387l7-7M64.2 387l6.9-7M60.1 387l6.9-7M56.2 387l7-7M52.4 387l6.7-7M52.4 382.9L55 380"/><path class="cls-25" d="M138.8 387v-7H52.2v7h86.6"/><path class="cls-19" d="M139 380.7l-.9-.7M139 384.8l-5-4.8M137.1 387l-6.9-7M133 387l-6.9-7M129 387l-7-7M125.1 387l-6.9-7M121 387l-6.9-7M117 387l-7-7M112.9 387l-7-7M109 387l-6.9-7M105 387l-7-7M100.9 387l-7-7M97 387l-6.9-7M93 387l-7-7M88.9 387l-7-7M84.8 387l-7-7M81 387l-7-7M76.9 387l-7-7M72.8 387l-7-7M69 387l-7-7M64.9 387l-7-7M60.8 387l-7-7M57 387l-4.6-4.6M52.9 387l-.5-.5M136.4 387l2.6-2.7M132.3 387l6.7-6.5M128.2 387l7-7M124.4 387l7-7M120.3 387l7-7M116.2 387l7-7M112.4 387l7-7M108.3 387l7-7M104.2 387l7-7M100.2 387l6.9-7M96.3 387l7-7M92.2 387l7-7M88.2 387l6.9-7M84.3 387l7-7M80.2 387l7-7M76.2 387l6.9-7M72.3 387l7-7M68.2 387l7-7M64.2 387l6.9-7M60.1 387l6.9-7M56.2 387l7-7M52.4 387l6.7-7M52.4 382.9L55 380"/><path class="cls-21" d="M52.2 387h86.6M52.2 380h86.6M52.2 380h86.6M52.2 387h86.6M52.2 387v-7"/></g><g id="Mbel"><path class="cls-2" d="M410.2 188.5h22.6v51.1h-22.6zM400.2 190v12.7M408.7 190h-8.5M400.2 202.7h8.5M400.2 207.7v12.7M408.7 207.7h-8.5M400.2 220.4h8.5M400.2 225.4v12.8M408.7 225.4h-8.5M400.2 238.2h8.5M442.8 190v12.7M434.3 190h8.5M442.8 202.7h-8.5M442.8 207.7v12.7M434.3 207.7h8.5M442.8 220.4h-8.5M442.8 225.4v12.8M434.3 225.4h8.5M442.8 238.2h-8.5M502.9 287.8h56.6v45.4h-56.6zM476.7 216.3h56.9v15.4h-56.9zM539.2 260.2c3.8-1.3 7.4-2.9 11-4.8.8-.4 1.3-1.4 1.3-2.3-.3-3.2-1.4-6.3-3.4-8.9-.6-.8-1.5-1.1-2.5-.9-3.9.9-7.7 2.2-11.4 3.7 0 .8.2 1.5.5 2.1 1 3.1 2.2 6.2 3.5 9.2.3.6.6 1.2 1 1.8h.1"/><path class="cls-2" d="M540.4 260.3c.3.2.6.3 1 .3 1.5.2 3.1 0 4.5-.6 1.9-.8 3.7-1.7 5.4-2.9 1.2-.8 2.4-1.7 3.3-2.8.6-.6.8-1.5.7-2.3-.5-3.4-1.7-6.6-3.6-9.4-.5-.7-1.2-1.2-2.1-1.3-1.5-.2-2.9-.1-4.4 0-2 .3-4 .8-6 1.5-1.4.5-2.7 1.4-3.8 2.5-.2.3-.4.6-.5.9M531 152.2h28.6v56.6H531zM497.1 98.2h7.7v11.3h-7.7zM477.4 81.2h19.7v45.4h-19.7zM543.9 60.1h15.6V117h-15.6z"/></g><g id="Text"><path d="M501.5 266v.6h-3.8l3-4.8H498v-.6h3.8l-3 4.8h2.7zM503.3 261.8c0 .2-.2.4-.4.4s-.4-.2-.4-.4.2-.4.4-.4.4.2.4.4zm0 4.7h-.6v-3.7h.6v3.7zM505.2 262.9v.5c.3-.4.6-.6 1-.6s.8.2 1 .7c.3-.5.6-.7 1.2-.7s.7.1.9.4c.2.2.2.4.2 1v2.4h-.6v-2.2c0-.4 0-.6-.1-.7-.1-.2-.4-.3-.6-.3-.5 0-.8.4-.8 1v2.2h-.6v-2.2c0-.4 0-.5-.1-.7-.1-.2-.3-.3-.6-.3-.5 0-.9.4-.9 1v2.2h-.6v-3.7h.6zM511.5 262.9v.5c.3-.4.6-.6 1-.6s.8.2 1 .7c.3-.5.6-.7 1.2-.7s.7.1.9.4c.2.2.2.4.2 1v2.4h-.6v-2.2c0-.4 0-.6-.1-.7-.1-.2-.4-.3-.6-.3-.5 0-.8.4-.8 1v2.2h-.6v-2.2c0-.4 0-.5-.1-.7-.1-.2-.3-.3-.6-.3-.5 0-.9.4-.9 1v2.2h-.6v-3.7h.6zM517.6 264.9c0 .3 0 .5.2.7.2.3.6.5 1 .5s.9-.2 1.1-.6l.5.2c-.3.6-.9 1-1.6 1-1.1 0-1.9-.8-1.9-1.9s.8-1.9 1.9-1.9 1.9.8 1.9 1.9v.2h-3.1zm2.4-.4c0-.3 0-.4-.2-.6-.2-.3-.6-.5-1-.5s-.8.2-1 .5c-.1.2-.2.3-.2.6h2.4zM522.4 262.9v.6c.1-.3.2-.4.3-.5.2-.1.4-.2.7-.2h.1v.6h-.2c-.3 0-.6.2-.8.4-.2.2-.2.4-.2.9v1.9h-.6v-3.7h.6zM498.5 272v-.6l1.8-1.2v5.4h-.6v-4.4l-1.2.8zM503 272.4c.2 0 .3-.1.5-.1.9 0 1.6.7 1.6 1.6s-.8 1.7-1.7 1.7-1.7-.8-1.7-1.7.1-.7.4-1.2l1.5-2.5h.7l-1.4 2.1zm-.7 1.5c0 .6.5 1.1 1.1 1.1s1.1-.5 1.1-1.1-.5-1.1-1.1-1.1-1.1.5-1.1 1.1zM507 275.2c0 .2-.2.4-.4.4s-.4-.2-.4-.4.2-.4.4-.4.4.2.4.4zM507.9 274.4v-.5l2.8-3.7v3.6h.6v.6h-.6v1.2h-.6v-1.2H508zm2.1-2.6l-1.5 2h1.5v-2zM514.5 271.9v.5c.3-.4.6-.6 1-.6s.8.2 1 .7c.3-.5.6-.7 1.2-.7s.7.1.9.4c.2.2.2.4.2 1v2.4h-.6v-2.2c0-.4 0-.6-.1-.7-.1-.2-.4-.3-.6-.3-.5 0-.8.4-.8 1v2.2h-.6v-2.2c0-.4 0-.5-.1-.7-.1-.2-.3-.3-.6-.3-.5 0-.9.4-.9 1v2.2h-.6v-3.7h.6zM522.1 273.1v.4h-2l1.2-1.6c.3-.5.4-.6.4-.8 0-.3-.2-.4-.5-.4s-.5.2-.5.6h-.4c0-.6.4-1 1-1s1 .3 1 .8-.1.5-.4.9l-.8 1.1h1.1z"/><g><path d="M501.5 146.4v.6h-3.8l3-4.8H498v-.6h3.8l-3 4.8h2.7zM503.3 142.2c0 .2-.2.4-.4.4s-.4-.2-.4-.4.2-.4.4-.4.4.2.4.4zm0 4.7h-.6v-3.7h.6v3.7zM505.2 143.3v.5c.3-.4.6-.6 1-.6s.8.2 1 .7c.3-.5.6-.7 1.2-.7s.7.1.9.4c.2.2.2.4.2 1v2.4h-.6v-2.2c0-.4 0-.6-.1-.7-.1-.2-.4-.3-.6-.3-.5 0-.8.4-.8 1v2.2h-.6v-2.2c0-.4 0-.5-.1-.7-.1-.2-.3-.3-.6-.3-.5 0-.9.4-.9 1v2.2h-.6v-3.7h.6zM511.5 143.3v.5c.3-.4.6-.6 1-.6s.8.2 1 .7c.3-.5.6-.7 1.2-.7s.7.1.9.4c.2.2.2.4.2 1v2.4h-.6v-2.2c0-.4 0-.6-.1-.7-.1-.2-.4-.3-.6-.3-.5 0-.8.4-.8 1v2.2h-.6v-2.2c0-.4 0-.5-.1-.7-.1-.2-.3-.3-.6-.3-.5 0-.9.4-.9 1v2.2h-.6v-3.7h.6zM517.6 145.3c0 .3 0 .5.2.7.2.3.6.5 1 .5s.9-.2 1.1-.6l.5.2c-.3.6-.9 1-1.6 1-1.1 0-1.9-.8-1.9-1.9s.8-1.9 1.9-1.9 1.9.8 1.9 1.9v.2h-3.1zm2.4-.4c0-.3 0-.4-.2-.6-.2-.3-.6-.5-1-.5s-.8.2-1 .5c-.1.2-.2.3-.2.6h2.4zM522.4 143.3v.6c.1-.3.2-.4.3-.5.2-.1.4-.2.7-.2h.1v.6h-.2c-.3 0-.6.2-.8.4-.2.2-.2.4-.2.9v1.9h-.6v-3.7h.6zM498.5 152.4v-.6l1.8-1.2v5.4h-.6v-4.4l-1.2.8zM503 152.8c.2 0 .3-.1.5-.1.9 0 1.6.7 1.6 1.6s-.8 1.7-1.7 1.7-1.7-.8-1.7-1.7.1-.7.4-1.2l1.5-2.5h.7l-1.4 2.1zm-.7 1.5c0 .6.5 1.1 1.1 1.1s1.1-.5 1.1-1.1-.5-1.1-1.1-1.1-1.1.5-1.1 1.1zM507 155.6c0 .2-.2.4-.4.4s-.4-.2-.4-.4.2-.4.4-.4.4.2.4.4zM507.9 154.8v-.5l2.8-3.7v3.6h.6v.6h-.6v1.2h-.6v-1.2H508zm2.1-2.6l-1.5 2h1.5v-2zM514.5 152.3v.5c.3-.4.6-.6 1-.6s.8.2 1 .7c.3-.5.6-.7 1.2-.7s.7.1.9.4c.2.2.2.4.2 1v2.4h-.6v-2.2c0-.4 0-.6-.1-.7-.1-.2-.4-.3-.6-.3-.5 0-.8.4-.8 1v2.2h-.6v-2.2c0-.4 0-.5-.1-.7-.1-.2-.3-.3-.6-.3-.5 0-.9.4-.9 1v2.2h-.6v-3.7h.6zM522.1 153.4v.4h-2l1.2-1.6c.3-.5.4-.6.4-.8 0-.3-.2-.4-.5-.4s-.5.2-.5.6h-.4c0-.6.4-1 1-1s1 .3 1 .8-.1.5-.4.9l-.8 1.1h1.1z"/></g><g><path d="M409.7 91.3h-.7V86h.7v2.5l2.1-2.5h.8l-2.2 2.6 2.2 2.7h-.9l-2-2.5v2.5zM416.7 89.4c0 1.1-.8 1.9-1.9 1.9s-1.9-.8-1.9-1.9.8-1.9 1.9-1.9 1.9.8 1.9 1.9zm-3.1 0c0 .8.5 1.4 1.3 1.4s1.2-.6 1.2-1.4-.5-1.4-1.2-1.4-1.3.6-1.3 1.4zM420.8 90.8c-.4.4-.8.5-1.4.5-1.1 0-1.8-.8-1.8-1.9s.8-1.9 1.8-1.9 1 .2 1.3.6l-.4.4c-.3-.3-.6-.4-.9-.4-.7 0-1.2.6-1.2 1.4s.5 1.4 1.2 1.4.6-.1.9-.4l.4.4zM422.3 88.1c.3-.4.7-.6 1.1-.6s.7.1.9.3c.2.2.3.5.3 1v2.5h-.6v-2.4c0-.5-.2-.8-.7-.8s-.5.1-.7.3c-.2.2-.2.4-.2.7v2.2h-.6V86h.6v2.2zM426.3 89.6c0 .3 0 .5.2.7.2.3.6.5 1 .5s.9-.2 1.1-.6l.5.2c-.3.6-.9 1-1.6 1-1.1 0-1.9-.8-1.9-1.9s.8-1.9 1.9-1.9 1.9.8 1.9 1.9v.2h-3.1zm2.4-.4c0-.3 0-.4-.2-.6-.2-.3-.6-.5-1-.5s-.8.2-1 .5c-.1.2-.2.3-.2.6h2.4zM431 87.6v.5c.3-.4.6-.6 1.1-.6s.6.1.9.3c.2.2.3.5.3 1v2.5h-.6v-2.4c0-.3 0-.5-.1-.6-.1-.2-.3-.2-.6-.2s-.5.1-.7.3c-.2.2-.2.4-.2.7v2.2h-.6v-3.7h.6zM409.3 96.7v-.6l1.8-1.2v5.4h-.6v-4.4l-1.2.8zM416 98.7c0 .6-.1 1-.4 1.2-.3.3-.7.4-1.2.4s-1-.2-1.2-.5c-.3-.3-.4-.6-.4-1.4v-1.8c0-.7 0-1 .3-1.3.3-.3.7-.5 1.2-.5s.9.1 1.2.4c.3.3.4.6.4 1.2v2.1zm-2.5-.1c0 .6 0 .7.2.9.2.2.5.3.8.3s.6-.1.8-.4c.1-.2.2-.4.2-.8v-2c0-.4 0-.6-.3-.8-.2-.2-.4-.2-.7-.2s-.6.1-.8.4c-.1.2-.2.4-.2.8v1.8zM417.9 99.9c0 .2-.2.4-.4.4s-.4-.2-.4-.4.2-.4.4-.4.4.2.4.4zM422.2 98.7c0 .6-.1 1-.4 1.2-.3.3-.7.4-1.2.4s-1-.2-1.2-.5c-.3-.3-.4-.6-.4-1.4v-1.8c0-.7 0-1 .3-1.3.3-.3.7-.5 1.2-.5s.9.1 1.2.4c.3.3.4.6.4 1.2v2.1zm-2.5-.1c0 .6 0 .7.2.9.2.2.5.3.8.3s.6-.1.8-.4c.1-.2.2-.4.2-.8v-2c0-.4 0-.6-.3-.8-.2-.2-.4-.2-.7-.2s-.6.1-.8.4c-.1.2-.2.4-.2.8v1.8zM426.4 96.6v.5c.3-.4.6-.6 1-.6s.8.2 1 .7c.3-.5.6-.7 1.2-.7s.7.1.9.4c.2.2.2.4.2 1v2.4h-.6v-2.2c0-.4 0-.6-.1-.7-.1-.2-.4-.3-.6-.3-.5 0-.8.4-.8 1v2.2h-.6v-2.2c0-.4 0-.5-.1-.7-.1-.2-.3-.3-.6-.3-.5 0-.9.4-.9 1v2.2h-.6v-3.7h.6zM434 97.8v.4h-2l1.2-1.6c.3-.5.4-.6.4-.8 0-.3-.2-.4-.5-.4s-.5.2-.5.6h-.4c0-.6.4-1 1-1s1 .3 1 .8-.1.5-.4.9l-.8 1.1h1.1z"/></g><g><path d="M443.9 317.9c1.1 0 1.7.5 1.7 1.4s-.1.6-.3.9c-.1.2-.3.2-.5.3.3 0 .4.1.6.2.3.2.4.6.4 1s-.2.9-.6 1.2c-.3.2-.7.3-1.3.3h-1.5v-5.3h1.5zm-.8 2.4h.7c.4 0 .7 0 .9-.2.2-.2.3-.4.3-.7s-.2-.6-.4-.8c-.2 0-.4-.1-.9-.1h-.6v1.8zm0 2.4h.7c.6 0 .8 0 1-.2.3-.1.4-.4.4-.8 0-.6-.4-.9-1.2-.9h-.8v1.8zM449.8 319.5h.6v3.7h-.6v-.7c-.4.6-.8.8-1.3.8-1 0-1.7-.8-1.7-1.9s.7-1.9 1.8-1.9 1 .2 1.3.7v-.6zm-2.1.9c-.2.3-.3.6-.3 1 0 .8.5 1.4 1.2 1.4s1.3-.6 1.3-1.4-.5-1.4-1.2-1.4-.7.1-.9.4zM454.6 317.9h.6v5.3h-.6v-.6c-.4.5-.8.7-1.3.7-1 0-1.7-.8-1.7-1.9s.7-2 1.7-2 1 .2 1.3.6v-2.2zm-2.4 3.5c0 .8.5 1.4 1.2 1.4s1.2-.6 1.2-1.4-.5-1.4-1.2-1.4-1.2.6-1.2 1.4zM442.1 331v-.5l2.8-3.7v3.6h.6v.6h-.6v1.2h-.6V331h-2.1zm2.1-2.6l-1.5 2h1.5v-2zM447.3 331.9c0 .2-.2.4-.4.4s-.4-.2-.4-.4.2-.4.4-.4.4.2.4.4zM448.5 327.5v-.6h3l-2.1 5.3h-.7l1.9-4.7h-2zM455.6 328.5v.5c.3-.4.6-.6 1-.6s.8.2 1 .7c.3-.5.6-.7 1.2-.7s.7.1.9.4c.2.2.2.4.2 1v2.4h-.6V330c0-.4 0-.6-.1-.7-.1-.2-.4-.3-.6-.3-.5 0-.8.4-.8 1v2.2h-.6V330c0-.4 0-.5-.1-.7-.1-.2-.3-.3-.6-.3-.5 0-.9.4-.9 1v2.2h-.6v-3.7h.6zM463.2 329.7v.4h-2l1.2-1.6c.3-.5.4-.6.4-.8 0-.3-.2-.4-.5-.4s-.5.2-.5.6h-.4c0-.6.4-1 1-1s1 .3 1 .8-.1.5-.4.9l-.8 1.1h1.1z"/></g><g><path d="M409.7 250.9h2.1v.6h-2.1v1.8h2.1v.6H409v-5.3h2.8v.6h-2.1v1.8zM414.8 251.2c0-.4-.3-.6-.7-.6s-.7.2-.7.5.2.4.8.6c.5.1.7.2.9.4.2.2.3.4.3.7 0 .6-.5 1.1-1.3 1.1s-1.3-.4-1.4-1.1h.6c0 .4.3.6.8.6s.7-.2.7-.5-.2-.5-.8-.6c-.8-.2-1.2-.6-1.2-1.1s.5-1.1 1.3-1.1 1.3.4 1.3 1.1h-.6zM418.3 251.2c0-.4-.3-.6-.7-.6s-.7.2-.7.5.2.4.8.6c.5.1.7.2.9.4.2.2.3.4.3.7 0 .6-.5 1.1-1.3 1.1s-1.3-.4-1.4-1.1h.6c0 .4.3.6.8.6s.7-.2.7-.5-.2-.5-.8-.6c-.8-.2-1.2-.6-1.2-1.1s.5-1.1 1.3-1.1 1.3.4 1.3 1.1h-.6zM420.4 252.2c0 .3 0 .5.2.7.2.3.6.5 1 .5s.9-.2 1.1-.6l.5.2c-.3.6-.9 1-1.6 1-1.1 0-1.9-.8-1.9-1.9s.8-1.9 1.9-1.9 1.9.8 1.9 1.9v.2h-3.1zm2.4-.4c0-.3 0-.4-.2-.6-.2-.3-.6-.5-1-.5s-.8.2-1 .5c-.1.2-.2.3-.2.6h2.4zM425.2 250.2v.5c.3-.4.6-.6 1.1-.6s.6.1.9.3c.2.2.3.5.3 1v2.5h-.6v-2.4c0-.3 0-.5-.1-.6-.1-.2-.3-.2-.6-.2s-.5.1-.7.3c-.2.2-.2.4-.2.7v2.2h-.6v-3.7h.6zM409.3 259.3v-.6l1.8-1.2v5.4h-.6v-4.4l-1.2.8zM412.7 258.2v-.6h3l-2.1 5.3h-.7l1.9-4.7h-2zM416.9 262.5c0 .2-.2.4-.4.4s-.4-.2-.4-.4.2-.4.4-.4.4.2.4.4zM420.6 258.1h-1.7v1.4c.3-.1.5-.2.8-.2.9 0 1.6.7 1.6 1.7s-.8 1.8-1.8 1.8-1.3-.4-1.6-1.1l.6-.2c.1.2.2.3.3.4.2.2.5.3.8.3.6 0 1.1-.5 1.1-1.2s-.5-1.1-1.2-1.1-.8.2-1.2.5v-3h2.3v.6zM425.4 259.2v.5c.3-.4.6-.6 1-.6s.8.2 1 .7c.3-.5.6-.7 1.2-.7s.7.1.9.4c.2.2.2.4.2 1v2.4h-.6v-2.2c0-.4 0-.6-.1-.7-.1-.2-.4-.3-.6-.3-.5 0-.8.4-.8 1v2.2h-.6v-2.2c0-.4 0-.5-.1-.7-.1-.2-.3-.3-.6-.3-.5 0-.9.4-.9 1v2.2h-.6v-3.7h.6zM433 260.3v.4h-2l1.2-1.6c.3-.5.4-.6.4-.8 0-.3-.2-.4-.5-.4s-.5.2-.5.6h-.4c0-.6.4-1 1-1s1 .3 1 .8-.1.5-.4.9l-.8 1.1h1.1z"/></g><g><path d="M171.2 352.3v.6h-2.5v-5.3h.7v4.7h1.9zM172.9 348.2c0 .2-.2.4-.4.4s-.4-.2-.4-.4.2-.4.4-.4.4.2.4.4zm0 4.7h-.6v-3.7h.6v3.7zM174.8 352.9h-.6v-3.2h-.5v-.5h.5v-.5c0-.7.4-1.2 1-1.2h.2v.5c-.4 0-.6.2-.6.6v.5h.6v.5h-.6v3.2zM177.2 352.1c0 .2 0 .2.3.2h.3v.5h-.6c-.4 0-.6-.2-.6-.6v-2.6h-.5v-.5h.5v-1.2h.6v1.2h.6v.5h-.6v2.4z"/></g><g><path d="M79.5 338.6h2.1v.6h-2.1v1.8h2.1v.6h-2.8v-5.3h2.8v.6h-2.1v1.8zM83.4 336.9c0 .2-.2.4-.4.4s-.4-.2-.4-.4.2-.4.4-.4.4.2.4.4zm0 4.7h-.6v-3.7h.6v3.7zM85.3 337.9v.5c.3-.4.6-.6 1.1-.6s.6.1.9.3c.2.2.3.5.3 1v2.5H87v-2.4c0-.3 0-.5-.1-.6-.1-.2-.3-.2-.6-.2s-.5.1-.7.3c-.2.2-.2.4-.2.7v2.2h-.6v-3.7h.6zM91.7 337.9h.6v3.7c0 .6-.2 1-.5 1.4-.3.3-.8.5-1.4.5s-1.2-.2-1.6-.7l.4-.4c.2.2.2.2.4.3.2.1.6.2.9.2s.8-.1 1-.4c.2-.2.3-.5.3-.9v-.8c-.4.5-.8.8-1.4.8-1 0-1.7-.8-1.7-1.9s.2-1.2.6-1.5c.3-.3.7-.4 1.2-.4s.9.2 1.3.7v-.6zm-2.4 1.8c0 .8.5 1.4 1.2 1.4s.7-.2.9-.4c.2-.2.3-.5.3-.9s0-.7-.3-1c-.2-.2-.6-.4-.9-.4-.7 0-1.2.6-1.2 1.4zM96.5 337.9h.6v3.7h-.6v-.7c-.4.6-.8.8-1.3.8-1 0-1.7-.8-1.7-1.9s.7-1.9 1.8-1.9 1 .2 1.3.7v-.6zm-2.1.9c-.2.3-.3.6-.3 1 0 .8.5 1.4 1.2 1.4s1.3-.6 1.3-1.4-.5-1.4-1.2-1.4-.7.1-.9.4zM99.1 337.9v.5c.3-.4.6-.6 1.1-.6s.6.1.9.3c.2.2.3.5.3 1v2.5h-.6v-2.4c0-.3 0-.5-.1-.6-.1-.2-.3-.2-.6-.2s-.5.1-.7.3c-.2.2-.2.4-.2.7v2.2h-.6v-3.7h.6zM105.5 337.9h.6v3.7c0 .6-.2 1-.5 1.4-.3.3-.8.5-1.4.5s-1.2-.2-1.6-.7l.4-.4c.2.2.2.2.4.3.2.1.6.2.9.2s.8-.1 1-.4c.2-.2.3-.5.3-.9v-.8c-.4.5-.8.8-1.4.8-1 0-1.7-.8-1.7-1.9s.2-1.2.6-1.5c.3-.3.7-.4 1.2-.4s.9.2 1.3.7v-.6zm-2.4 1.8c0 .8.5 1.4 1.2 1.4s.7-.2.9-.4c.2-.2.3-.5.3-.9s0-.7-.3-1c-.2-.2-.6-.4-.9-.4-.7 0-1.2.6-1.2 1.4z"/></g></g></svg>