<svg xmlns="http://www.w3.org/2000/svg" viewBox="0 0 429.8 389.5"><defs><style>.cls-1,.cls-10,.cls-11,.cls-12,.cls-13,.cls-14,.cls-15,.cls-16,.cls-17,.cls-18,.cls-19,.cls-2,.cls-20,.cls-3,.cls-4,.cls-5,.cls-6,.cls-7,.cls-8,.cls-9{fill:none;stroke-linecap:round;stroke-linejoin:round}.cls-1,.cls-10,.cls-11,.cls-12,.cls-13,.cls-14,.cls-15,.cls-16,.cls-17,.cls-19,.cls-2,.cls-20,.cls-3,.cls-4,.cls-5,.cls-6,.cls-7,.cls-8,.cls-9{stroke-width:.1px}.cls-1,.cls-14,.cls-17,.cls-18,.cls-19,.cls-3,.cls-4,.cls-7{stroke:#194164}.cls-1,.cls-7{stroke-dasharray:0 0 0 0 2.9 1.4 .2 1.4}.cls-2{stroke:#646464}.cls-10,.cls-11,.cls-12,.cls-13,.cls-14,.cls-15,.cls-19,.cls-20,.cls-3,.cls-4,.cls-5,.cls-6,.cls-8,.cls-9{stroke-dasharray:0 0 1.4 1.4}.cls-4{stroke-dashoffset:1px}.cls-21,.cls-22{fill:#fff}.cls-10,.cls-11,.cls-12,.cls-13,.cls-15,.cls-16,.cls-20,.cls-5,.cls-6,.cls-8,.cls-9{stroke:#969696}.cls-6{stroke-dashoffset:2.8px}.cls-7{stroke-dashoffset:1.9px}.cls-8{stroke-dashoffset:1.1px}.cls-9{stroke-dashoffset:2.4px}.cls-10{stroke-dashoffset:2.7px}.cls-11{stroke-dashoffset:2.6px}.cls-12{stroke-dashoffset:1.4px}.cls-13,.cls-19{stroke-dashoffset:.7px}.cls-22,.cls-23{fill-rule:evenodd}.cls-14{stroke-dashoffset:.2px}.cls-15{stroke-dashoffset:2.7px}.cls-18{stroke-width:.3px}.cls-20{stroke-dashoffset:1.2px}</style></defs><g id="Plan"><path class="cls-23" d="M244.2 379.3l3.4 3.3h26.6V373H238v5.8h5.7v.5h.5"/><path class="cls-22" d="M244.2 379.3l3.4 3.3h26.6v-3.3h-30"/><path class="cls-16" d="M247.8 379.3l3.4 3.3M251.9 379.3l3.4 3.3M256 379.3l3.3 3.3M260.1 379.3l3.3 3.3M263.9 379.3l3.4 3.3M268 379.3l3.3 3.3M272.1 379.3l2.4 2.4"/><path class="cls-22" d="M243.7 378.8v.5h30.5v-.5h-30.5M238 373v5.8h36.2V373H238"/><path class="cls-16" d="M238.2 373v5.8M239.7 373v5.8M241.1 373v5.8M242.5 373v5.8M244 373v5.8M245.4 373v5.8M246.6 373v5.8M248.1 373v5.8M249.5 373v5.8M250.9 373v5.8M252.4 373v5.8M253.8 373v5.8M255.3 373v5.8M256.7 373v5.8M258.1 373v5.8M259.6 373v5.8M261 373v5.8M262.2 373v5.8M263.7 373v5.8M265.1 373v5.8M266.5 373v5.8M268 373v5.8M269.4 373v5.8M270.9 373v5.8M272.3 373v5.8M273.7 373v5.8"/><path class="cls-18" d="M274.2 379.3h-30M274.2 382.6h-26.6"/><path class="cls-16" d="M274.2 373H238M274.2 378.8h-30.5"/><path class="cls-17" d="M274.2 382.6h-26.6M274.2 373H238"/><path class="cls-16" d="M243.7 378.8H238M238 378.8V373"/><path class="cls-17" d="M238 373h-5.1"/><path class="cls-23" d="M243.7 378.8H238V373h-5.1v16.4h14.7v-6.8l-3.4-3.3h-.5v-.5"/><path class="cls-22" d="M247.6 389.4v-6.8l-3.4-3.3v10.1h3.4"/><path class="cls-16" d="M244.5 387.7l1.4 1.7M244.5 383.6l3.3 3.4M244.5 379.8l3.3 3.3"/><path class="cls-22" d="M244.2 389.4v-10.1h-.5v10.1h.5M243.7 389.4v-10.6H238v10.6h5.7"/><path class="cls-16" d="M238.2 388.4h5.8M238.2 387h5.8M238.2 385.5h5.8M238.2 384.1h5.8M238.2 382.6h5.8M238.2 381.2h5.8M238.2 380h5.8"/><path class="cls-22" d="M238 373h-5.1v16.4h5.1V373"/><path class="cls-16" d="M233.2 388.4l.7 1M233.2 384.6l4.8 4.8M233.2 380.5l5 5M233.2 376.4l5 5M233.7 373l4.5 4.4M237.7 373l.5.5"/><path class="cls-18" d="M244.2 379.3v10.1M247.6 382.6v6.8"/><path class="cls-16" d="M238 378.8v10.6M243.7 379.3v10.1"/><path class="cls-18" d="M232.9 373v16.4M238 378.8v10.6"/><path class="cls-17" d="M247.6 382.6v6.8M232.9 373v16.4"/><path class="cls-16" d="M243.7 378.8v.5M238 378.8h5.7"/><path class="cls-18" d="M238 373v5.8M238 373h-5.1M15 335.4h39.6v29.8H15z"/><path class="cls-17" d="M63.7 333.7V369M60.6 351.9V338M57.7 364.6v-13.9"/><path class="cls-16" d="M252.6 46.4h59.3V50h-59.3z"/><path class="cls-22" d="M62.3 375.2l5.8-7h-5.8v7"/><path class="cls-16" d="M66.6 370.2l-2.1-2M64.7 372.3l-2.2-2.1M62.8 374.7l-.3-.5M62.5 373.8l5.6-5.6M62.5 369.7l1.5-1.5"/><path class="cls-22" d="M62.3 375.2l5.8-7h-5.8v7"/><path class="cls-16" d="M66.6 370.2l-2.1-2M64.7 372.3l-2.2-2.1M62.8 374.7l-.3-.5M62.5 373.8l5.6-5.6M62.5 369.7l1.5-1.5"/><path class="cls-18" d="M62.3 368.2v7M62.3 368.2v7"/><path class="cls-17" d="M63.7 335.6v29.5"/><path class="cls-1" d="M68.3 335.6v29.5"/><path class="cls-17" d="M68.3 364.6v.5"/><path class="cls-22" d="M68.3 332.5v3.1h-4.6v-3.1"/><path class="cls-16" d="M68.1 335.6l-3.2-3.1M64.5 335.6l3.1-3.1"/><path class="cls-22" d="M68.3 368.2v-3.1h-4.6v3.1"/><path class="cls-16" d="M68.5 368.2l-3.1-3.1M64.5 368.2l-.5-.7M68.1 368.2l.4-.4M64 368.2l3.1-3.1"/><path class="cls-18" d="M68.3 335.6h-4.6M68.3 365.1h-4.6M68.3 335.6h-4.6M68.3 332.5v3.1M68.3 365.1h-4.6M68.3 368.2v-3.1M62.3 332.5h1.4M62.3 368.2h1.4M68.3 332.5v3.1M68.3 368.2v-3.1M63.7 335.6v-3.1M63.7 365.1v3.1"/><path class="cls-22" d="M61.1 325.5l7.2 7v-41.1l-7.2-6.9v41"/><path class="cls-16" d="M68.5 291.9l-7.2-7.2M68.5 296l-7.2-7.2M68.5 300.1l-7.2-7.2M68.5 303.9l-7.2-7.2M68.5 308l-7.2-7.2M68.5 312.1l-7.2-7.2M68.5 315.9l-7.2-7.2M68.5 320l-7.2-7.2M68.5 324.1l-7.2-7.2M68.5 328.2l-7.2-7.2M68.5 332l-7.2-7.2M68.1 332l.4-.2M65.9 330.1l2.6-2.4M64 328.2l4.5-4.6M61.8 326.2l6.7-6.4M61.3 322.9l7.2-7.2M61.3 318.8l7.2-7.2M61.3 315l7.2-7.2M61.3 310.9l7.2-7.2M61.3 306.8l7.2-7.2M61.3 302.7l7.2-7.2M61.3 298.9l7.2-7.2M61.3 294.8l5.1-5.3M61.3 290.7l3.2-3.1M61.3 286.9l1-1.2"/><path class="cls-22" d="M61.1 325.5l7.2 7v-41.1l-7.2-6.9v41"/><path class="cls-16" d="M68.5 291.9l-7.2-7.2M68.5 296l-7.2-7.2M68.5 300.1l-7.2-7.2M68.5 303.9l-7.2-7.2M68.5 308l-7.2-7.2M68.5 312.1l-7.2-7.2M68.5 315.9l-7.2-7.2M68.5 320l-7.2-7.2M68.5 324.1l-7.2-7.2M68.5 328.2l-7.2-7.2M68.5 332l-7.2-7.2M68.1 332l.4-.2M65.9 330.1l2.6-2.4M64 328.2l4.5-4.6M61.8 326.2l6.7-6.4M61.3 322.9l7.2-7.2M61.3 318.8l7.2-7.2M61.3 315l7.2-7.2M61.3 310.9l7.2-7.2M61.3 306.8l7.2-7.2M61.3 302.7l7.2-7.2M61.3 298.9l7.2-7.2M61.3 294.8l5.1-5.3M61.3 290.7l3.2-3.1M61.3 286.9l1-1.2"/><path class="cls-18" d="M61.1 284.5v41M68.3 291.4v41.1M68.3 291.4v41.1M61.1 284.5v41"/><path class="cls-22" d="M298.3 318.5c.9-1.3.9-3 0-4.3-1.5-1.9-3.8-2.9-6.2-2.9l-9 .3v9.6l9 .3c2.4 0 4.7-1 6.2-2.9"/><path class="cls-17" d="M298.3 318.5c.9-1.3.9-3 0-4.3-1.5-1.9-3.8-2.9-6.2-2.9l-9 .3v9.6l9 .3c2.4 0 4.7-1 6.2-2.9"/><path class="cls-22" d="M288.2 316.4c0 1 .3 2 1.1 2.8.7.7 1.7 1.2 2.7 1.2 2.1 0 4.1-.9 5.4-2.5.6-.9.6-2 0-2.9-1.3-1.6-3.3-2.5-5.4-2.5-1 0-2 .4-2.7 1.2-.7.7-1.1 1.7-1.1 2.8"/><path class="cls-17" d="M288.2 316.4c0 1 .3 2 1.1 2.8.7.7 1.7 1.2 2.7 1.2 2.1 0 4.1-.9 5.4-2.5.6-.9.6-2 0-2.9-1.3-1.6-3.3-2.5-5.4-2.5-1 0-2 .4-2.7 1.2-.7.7-1.1 1.7-1.1 2.8"/><path class="cls-22" d="M283.5 367.7h48l.1-.1h.1v-.1l.1-.1V346.7l-.1-.1-.1-.1h-.1v-.1h-48.1l-.1.1h-.1v.1h-.1v.1l-.1.1v20.6h.1v.1l.1.1.1.1h.2"/><path class="cls-17" d="M283.5 367.7h48l.1-.1h.1v-.1l.1-.1V346.7l-.1-.1-.1-.1h-.1v-.1h-48.1l-.1.1h-.1v.1h-.1v.1l-.1.1v20.6h.1v.1l.1.1.1.1h.2"/><path class="cls-22" d="M288.7 365.6h37.4c.4 0 .9 0 1.3-.3.4-.2.8-.4 1.1-.7.3-.3.6-.7.7-1.1.2-.4.3-.9.3-1.3V352c0-.4 0-.9-.3-1.3-.2-.4-.4-.8-.7-1.1-.3-.3-.7-.6-1.1-.7-.4-.2-.9-.3-1.3-.3h-37.4c-.4 0-.9 0-1.3.3-.4.2-.8.4-1.1.7-.3.3-.6.7-.7 1.1-.2.4-.3.9-.3 1.3v10.2c0 .4 0 .9.3 1.3.2.4.4.8.7 1.1.3.3.7.6 1.1.7.4.2.9.3 1.3.3"/><path class="cls-17" d="M288.7 365.6h37.4c.4 0 .9 0 1.3-.3.4-.2.8-.4 1.1-.7.3-.3.6-.7.7-1.1.2-.4.3-.9.3-1.3V352c0-.4 0-.9-.3-1.3-.2-.4-.4-.8-.7-1.1-.3-.3-.7-.6-1.1-.7-.4-.2-.9-.3-1.3-.3h-37.4c-.4 0-.9 0-1.3.3-.4.2-.8.4-1.1.7-.3.3-.6.7-.7 1.1-.2.4-.3.9-.3 1.3v10.2c0 .4 0 .9.3 1.3.2.4.4.8.7 1.1.3.3.7.6 1.1.7.4.2.9.3 1.3.3M282.4 288.6v36.2M280.9 288.6v34.8M282.4 288.6v36.2M283.1 288.6v36.9M280.9 288.6v34.8M278.5 324.8v18.5M277.1 323.4v21.3M278.5 324.8v18.5M279.3 325.5v17.1M277.1 323.4v21.3M282.4 343.3V368M280.9 344.7V368M282.4 343.3V368M283.1 342.6V368M280.9 344.7V368"/><path class="cls-22" d="M283 341.9h12.4c.1 0 .3-.1.4-.2.1-.1.2-.2.2-.4V327.6v-.4c0-.1-.1-.3-.2-.4-.1-.1-.2-.2-.4-.2H283v15.6"/><path class="cls-17" d="M283 341.9h12.4c.1 0 .3-.1.4-.2.1-.1.2-.2.2-.4V327.6v-.4c0-.1-.1-.3-.2-.4-.1-.1-.2-.2-.4-.2H283v15.6"/><path class="cls-14" d="M283.1 325.5h-3.8"/><path class="cls-4" d="M279.3 325.5v17.1"/><path class="cls-14" d="M279.3 342.6h3.8"/><path class="cls-17" d="M278.5 343.3h3.9M277.1 344.7h3.8M278.5 343.3h3.9M279.3 342.6h3.8M277.1 344.7h3.8M282.4 324.8h-3.9M280.9 323.4h-3.8M282.4 324.8h-3.9M283.1 325.5h-3.8M280.9 323.4h-3.8M233.4 57.2h17.3v79h-17.3zM248.5 58.4h2.2M248.5 67h2.2M248.5 84.1h2.2M248.5 100.9h2.2M248.5 117.9h2.2"/><path class="cls-22" d="M238.4 117h9.3c.1 0 .3 0 .4-.1.1 0 .2-.1.3-.2.1 0 .2-.2.3-.2 0 0 .2-.2.2-.3 0-.1.1-.2.2-.3 0-.1 0-.2.1-.4v-11.6-.4c0-.1 0-.3-.1-.4 0-.1-.1-.2-.2-.3 0-.1-.2-.2-.2-.3 0 0-.2-.2-.3-.2-.1 0-.2-.1-.3-.2-.1 0-.2 0-.4-.1H238c-.1 0-.3 0-.4.1-.1 0-.2.1-.3.2-.1 0-.2.2-.3.2 0 0-.2.2-.2.3 0 .1-.1.2-.2.3 0 .1 0 .2-.1.4v12c0 .1 0 .3.1.4 0 .1.1.2.2.3 0 .1.2.2.2.3 0 0 .2.2.3.2.1 0 .2.1.3.2.1 0 .2 0 .4.1h.4"/><path class="cls-17" d="M238.4 117h9.3c.1 0 .3 0 .4-.1.1 0 .2-.1.3-.2.1 0 .2-.2.3-.2 0 0 .2-.2.2-.3 0-.1.1-.2.2-.3 0-.1 0-.2.1-.4v-11.6-.4c0-.1 0-.3-.1-.4 0-.1-.1-.2-.2-.3 0-.1-.2-.2-.2-.3 0 0-.2-.2-.3-.2-.1 0-.2-.1-.3-.2-.1 0-.2 0-.4-.1H238c-.1 0-.3 0-.4.1-.1 0-.2.1-.3.2-.1 0-.2.2-.3.2 0 0-.2.2-.2.3 0 .1-.1.2-.2.3 0 .1 0 .2-.1.4v12c0 .1 0 .3.1.4 0 .1.1.2.2.3 0 .1.2.2.2.3 0 0 .2.2.3.2.1 0 .2.1.3.2.1 0 .2 0 .4.1h.4"/><path class="cls-22" d="M240.9 109.5c0-.7-.5-1.2-1.2-1.2s-1.2.5-1.2 1.2.5 1.2 1.2 1.2 1.2-.5 1.2-1.2"/><path class="cls-17" d="M240.9 109.5c0-.7-.5-1.2-1.2-1.2s-1.2.5-1.2 1.2.5 1.2 1.2 1.2 1.2-.5 1.2-1.2"/><path class="cls-21" d="M234.6 67.5h14.6v15.8h-14.6z"/><path class="cls-17" d="M234.6 67.5h14.6v15.8h-14.6z"/><path class="cls-22" d="M247.3 71.4c0-1.6-1.2-2.9-2.8-2.9s-2.8 1.3-2.8 2.9 1.2 2.9 2.8 2.9 2.8-1.3 2.8-2.9"/><path class="cls-17" d="M247.3 71.4c0-1.6-1.2-2.9-2.8-2.9s-2.8 1.3-2.8 2.9 1.2 2.9 2.8 2.9 2.8-1.3 2.8-2.9"/><path class="cls-22" d="M240.1 70.4c0-1.2-1-2.2-2.3-2.2s-2.3 1-2.3 2.2 1 2.2 2.3 2.2 2.3-1 2.3-2.2"/><path class="cls-17" d="M240.1 70.4c0-1.2-1-2.2-2.3-2.2s-2.3 1-2.3 2.2 1 2.2 2.3 2.2 2.3-1 2.3-2.2"/><path class="cls-22" d="M246.9 79c0-1.2-1-2.2-2.2-2.2s-2.2 1-2.2 2.2 1 2.2 2.2 2.2 2.2-1 2.2-2.2"/><path class="cls-17" d="M246.9 79c0-1.2-1-2.2-2.2-2.2s-2.2 1-2.2 2.2 1 2.2 2.2 2.2 2.2-1 2.2-2.2"/><path class="cls-22" d="M241.1 78.8c0-1.6-1.3-2.9-2.9-2.9s-2.9 1.3-2.9 2.9 1.3 2.9 2.9 2.9 2.9-1.3 2.9-2.9"/><path class="cls-17" d="M241.1 78.8c0-1.6-1.3-2.9-2.9-2.9s-2.9 1.3-2.9 2.9 1.3 2.9 2.9 2.9 2.9-1.3 2.9-2.9"/><path class="cls-1" d="M243.3 136.2v-79"/><path class="cls-17" d="M248.5 135h2.2"/><path class="cls-23" d="M405.7 57.2V42.6h23.8v14.6h-23.8"/><path class="cls-22" d="M405.7 42.6v3.3h23.8v-3.3h-23.8"/><path class="cls-16" d="M406 44.2l1.7 1.7M408.4 42.6l3.3 3.3M412.2 42.6l3.4 3.3M416.3 42.6l3.4 3.3M420.4 42.6l3.3 3.3M424.2 42.6l3.4 3.3M428.3 42.6l1.4 1.2"/><path class="cls-22" d="M405.7 45.9v.7h23.8v-.7h-23.8M405.7 46.6v5.6h23.8v-5.6h-23.8"/><path class="cls-16" d="M429.5 52.2v-5.6M428.1 52.2v-5.6M426.6 52.2v-5.6M425.4 52.2v-5.6M424 52.2v-5.6M422.5 52.2v-5.6M421.1 52.2v-5.6M419.7 52.2v-5.6M418.2 52.2v-5.6M416.8 52.2v-5.6M415.3 52.2v-5.6M413.9 52.2v-5.6M412.5 52.2v-5.6M411.3 52.2v-5.6M409.8 52.2v-5.6M408.4 52.2v-5.6M406.9 52.2v-5.6"/><path class="cls-22" d="M405.7 52.2v5h23.8v-5h-23.8"/><path class="cls-16" d="M406 56.2l.9 1M406 52.2l5 5M409.8 52.2l5.1 5M413.9 52.2l5 5M418 52.2l5 5M421.8 52.2l5.1 5M425.9 52.2l3.8 3.6"/><path class="cls-18" d="M405.7 45.9h23.8M405.7 42.6h23.8"/><path class="cls-16" d="M405.7 52.2h23.8M405.7 46.6h23.8"/><path class="cls-18" d="M405.7 57.2h23.8M405.7 52.2h23.8"/><path class="cls-17" d="M405.7 42.6h23.8M405.7 57.2h23.8"/><path class="cls-23" d="M313.6 57.2V42.6h51.3v14.6h-51.3"/><path class="cls-22" d="M313.6 42.6v3.3h51.3v-3.3h-51.3"/><path class="cls-16" d="M313.8 44.2l1.7 1.7M316.2 42.6l3.4 3.3M320.1 42.6l3.3 3.3M324.1 42.6l3.4 3.3M328.2 42.6l3.4 3.3M332.1 42.6l3.3 3.3M336.1 42.6l3.4 3.3M340.2 42.6l3.4 3.3M344.1 42.6l3.3 3.3M348.1 42.6l3.4 3.3M352.2 42.6l3.4 3.3M356.3 42.6l3.4 3.3M360.1 42.6l3.4 3.3M364.2 42.6l1 .9"/><path class="cls-22" d="M313.6 45.9v.7h51.3v-.7h-51.3M313.6 46.6v5.6h51.3v-5.6h-51.3"/><path class="cls-16" d="M364.5 52.2v-5.6M363 52.2v-5.6M361.6 52.2v-5.6M360.1 52.2v-5.6M358.7 52.2v-5.6M357.3 52.2v-5.6M355.8 52.2v-5.6M354.4 52.2v-5.6M352.9 52.2v-5.6M351.5 52.2v-5.6M350.3 52.2v-5.6M348.9 52.2v-5.6M347.4 52.2v-5.6M346 52.2v-5.6M344.5 52.2v-5.6M343.1 52.2v-5.6M341.7 52.2v-5.6M340.2 52.2v-5.6M338.8 52.2v-5.6M337.3 52.2v-5.6M336.1 52.2v-5.6M334.7 52.2v-5.6M333.3 52.2v-5.6M331.8 52.2v-5.6M330.4 52.2v-5.6M328.9 52.2v-5.6M327.5 52.2v-5.6M326.1 52.2v-5.6M324.6 52.2v-5.6M323.2 52.2v-5.6M321.7 52.2v-5.6M320.5 52.2v-5.6M319.1 52.2v-5.6M317.7 52.2v-5.6M316.2 52.2v-5.6M314.8 52.2v-5.6"/><path class="cls-22" d="M313.6 52.2v5h51.3v-5h-51.3"/><path class="cls-16" d="M313.8 56.2l1 1M313.8 52.2l4.8 5M317.7 52.2l5 5M321.7 52.2l5.1 5M325.8 52.2l5.1 5M329.7 52.2l5 5M333.7 52.2l5.1 5M337.8 52.2l5.1 5M341.7 52.2l5 5M345.7 52.2l5.1 5M349.8 52.2l5.1 5M353.7 52.2l5 5M357.7 52.2l5.1 5M361.8 52.2l3.4 3.3"/><path class="cls-18" d="M313.6 45.9h51.3M313.6 42.6h51.3"/><path class="cls-16" d="M313.6 52.2h51.3M313.6 46.6h51.3"/><path class="cls-18" d="M313.6 57.2h51.3M313.6 52.2h51.3"/><path class="cls-17" d="M313.6 42.6h51.3M313.6 57.2h51.3"/><path class="cls-23" d="M223.6 57.2V42.6h27.1v14.6h-27.1"/><path class="cls-22" d="M223.6 42.6v3.3h27.1v-3.3h-27.1"/><path class="cls-16" d="M223.8 42.6l3.4 3.3M227.9 42.6l3.4 3.3M232 42.6l3.3 3.3M235.8 42.6l3.4 3.3M239.9 42.6l3.4 3.3M244 42.6l3.3 3.3M248.1 42.6l2.8 2.8"/><path class="cls-22" d="M223.6 45.9v.7h27.1v-.7h-27.1M223.6 46.6v5.6h27.1v-5.6h-27.1"/><path class="cls-16" d="M249.5 52.2v-5.6M248.1 52.2v-5.6M246.6 52.2v-5.6M245.4 52.2v-5.6M244 52.2v-5.6M242.5 52.2v-5.6M241.1 52.2v-5.6M239.7 52.2v-5.6M238.2 52.2v-5.6M236.8 52.2v-5.6M235.3 52.2v-5.6M233.9 52.2v-5.6M232.5 52.2v-5.6M231.3 52.2v-5.6M229.8 52.2v-5.6M228.4 52.2v-5.6M226.9 52.2v-5.6M225.5 52.2v-5.6M224.1 52.2v-5.6"/><path class="cls-22" d="M223.6 52.2v5h27.1v-5h-27.1"/><path class="cls-16" d="M223.8 54.3l2.7 2.9M225.5 52.2l5 5M229.6 52.2l5 5M233.4 52.2l5.1 5M237.5 52.2l5 5M241.6 52.2l5 5M245.4 52.2l5.1 5M249.5 52.2l1.4 1.2"/><path class="cls-18" d="M223.6 45.9h27.1M223.6 42.6h27.1"/><path class="cls-16" d="M223.6 52.2h27.1M223.6 46.6h27.1"/><path class="cls-18" d="M223.6 57.2h27.1M223.6 52.2h27.1"/><path class="cls-17" d="M223.6 42.6h27.1M223.6 57.2h27.1M366.9 50v-7.4h-3.4v-2h43.9v2h-3.3V50"/><path class="cls-1" d="M364.9 57.2h40.8"/><path class="cls-17" d="M405.3 57.2h.4"/><path class="cls-18" d="M366.9 42.6h-3.4M404.1 42.6h3.3"/><path class="cls-17" d="M364.9 50h40.8v2.2h-40.8zM368.5 50v2.2M402.1 50v2.2M364.9 52.2V50M383.4 52.2V50M368.5 52.2V50M387.5 52.2V50M383.4 52.2V50M402.1 52.2V50M387.5 52.2V50M405.7 52.2V50"/><path class="cls-22" d="M365 46.5h1.8v3.4H365"/><path class="cls-16" d="M365.9 50v-3.4M365 46.5h1.8v3.4H365"/><path class="cls-18" d="M364.9 52.2v5"/><path class="cls-22" d="M364.9 42.6h2v3.3h-2"/><path class="cls-16" d="M365.2 43.5l1.9 1.9"/><path class="cls-18" d="M364.9 42.6h2v3.3h-2M366.9 45.9V50"/><path class="cls-22" d="M405.8 46.5h-1.9v3.4h1.9"/><path class="cls-16" d="M405.5 50v-3.4M405.8 46.5h-1.9v3.4h1.9"/><path class="cls-18" d="M405.7 52.2v5"/><path class="cls-22" d="M405.7 42.6h-1.6v3.3h1.6"/><path class="cls-16" d="M404.3 42.6l1.7 1.6"/><path class="cls-18" d="M405.7 42.6h-1.6v3.3h1.6M404.1 45.9V50"/><path class="cls-1" d="M250.7 57.2h62.9"/><path class="cls-17" d="M250.7 50h62.9v2.2h-62.9zM254.3 50v2.2M310 50v2.2M250.7 52.2V50M269.7 52.2V50M254.3 52.2V50M273.7 52.2V50M269.7 52.2V50M290.5 52.2V50M273.7 52.2V50M294.9 52.2V50M290.5 52.2V50M310 52.2V50M294.9 52.2V50M313.6 52.2V50"/><path class="cls-18" d="M250.7 52.2v5"/><path class="cls-17" d="M315.3 42.6v-2"/><path class="cls-7" d="M315.3 40.6h-66"/><path class="cls-17" d="M249.3 40.6v1"/><path class="cls-22" d="M250.7 46.5h1.9v3.4h-1.9"/><path class="cls-16" d="M252.4 50v-3.4M250.9 50v-3.4M250.7 46.5h1.9v3.4h-1.9"/><path class="cls-22" d="M250.7 42.6h1.9v3.3h-1.9"/><path class="cls-16" d="M250.9 45.4l.5.5M251.9 42.6l1 .7"/><path class="cls-18" d="M250.7 42.6h1.9v3.3h-1.9M252.6 45.9V50"/><path class="cls-22" d="M313.7 46.5h-1.9v3.4h1.9"/><path class="cls-16" d="M313.3 50v-3.4M313.7 46.5h-1.9v3.4h1.9"/><path class="cls-18" d="M313.6 52.2v5"/><path class="cls-22" d="M313.6 42.6h-1.7v3.3h1.7"/><path class="cls-16" d="M312.1 42.6l1.7 1.6"/><path class="cls-18" d="M313.6 42.6h-1.7v3.3h1.7M311.9 45.9V50"/><path class="cls-23" d="M302.3 368v14.6h-28.1V368h28.1"/><path class="cls-22" d="M302.3 382.6v-3.3h-28.1v3.3h28.1"/><path class="cls-16" d="M274.5 381.7l.9.9M275.9 379.3l3.4 3.3M280 379.3l3.3 3.3M284.1 379.3l3.3 3.3M288.1 379.3l3.4 3.3M292 379.3l3.3 3.3M296.1 379.3l3.3 3.3M300.1 379.3l2.4 2.4"/><path class="cls-22" d="M302.3 379.3v-.5h-28.1v.5h28.1M302.3 378.8V373h-28.1v5.8h28.1"/><path class="cls-16" d="M275.2 373v5.8M276.4 373v5.8M277.8 373v5.8M279.3 373v5.8M280.7 373v5.8M282.1 373v5.8M283.6 373v5.8M285 373v5.8M286.5 373v5.8M287.9 373v5.8M289.3 373v5.8M290.8 373v5.8M292 373v5.8M293.4 373v5.8M294.9 373v5.8M296.3 373v5.8M297.7 373v5.8M299.2 373v5.8M300.6 373v5.8M302.1 373v5.8"/><path class="cls-22" d="M302.3 373v-5h-28.1v5h28.1"/><path class="cls-16" d="M274.5 369.7l3.3 3.3M276.9 368l5 5M280.7 368l5 5M284.8 368l5 5M288.9 368l5 5M292.7 368l5 5M296.8 368l5 5M300.9 368l1.6 1.7"/><path class="cls-18" d="M302.3 379.3h-28.1M302.3 382.6h-28.1"/><path class="cls-16" d="M302.3 373h-28.1M302.3 378.8h-28.1"/><path class="cls-18" d="M302.3 368h-28.1M302.3 373h-28.1"/><path class="cls-17" d="M302.3 382.6h-28.1M302.3 368h-28.1"/><path class="cls-23" d="M361.3 368v14.6H321V368h40.3"/><path class="cls-22" d="M361.3 382.6v-3.3H321v3.3h40.3"/><path class="cls-16" d="M321.3 380.2l2.1 2.4M324.1 379.3l3.4 3.3M328.2 379.3l3.4 3.3M332.1 379.3l3.3 3.3M336.1 379.3l3.4 3.3M340.2 379.3l3.4 3.3M344.1 379.3l3.3 3.3M348.1 379.3l3.4 3.3M352.2 379.3l3.4 3.3M356.1 379.3l3.3 3.3M360.1 379.3l1.5 1.2"/><path class="cls-22" d="M361.3 379.3v-.5H321v.5h40.3M361.3 378.8V373H321v5.8h40.3"/><path class="cls-16" d="M321.7 373v5.8M323.2 373v5.8M324.6 373v5.8M326.1 373v5.8M327.5 373v5.8M328.9 373v5.8M330.4 373v5.8M331.8 373v5.8M333.3 373v5.8M334.7 373v5.8M336.1 373v5.8M337.3 373v5.8M338.8 373v5.8M340.2 373v5.8M341.7 373v5.8M343.1 373v5.8M344.5 373v5.8M346 373v5.8M347.4 373v5.8M348.9 373v5.8M350.3 373v5.8M351.5 373v5.8M352.9 373v5.8M354.4 373v5.8M355.8 373v5.8M357.3 373v5.8M358.7 373v5.8M360.1 373v5.8"/><path class="cls-22" d="M361.3 373v-5H321v5h40.3"/><path class="cls-16" d="M321.3 372.3l.7.7M321.3 368.2l4.5 4.8M324.9 368l5 5M328.9 368l5.1 5M332.8 368l5 5M336.9 368l5 5M340.9 368l5.1 5M344.8 368l5 5M348.9 368l5 5M352.9 368l5.1 5M357 368l4.6 4.6M360.9 368l.7.5"/><path class="cls-18" d="M361.3 379.3H321M361.3 382.6H321"/><path class="cls-16" d="M361.3 373H321M361.3 378.8H321"/><path class="cls-18" d="M361.3 368H321M361.3 373H321"/><path class="cls-17" d="M361.3 382.6H321M361.3 368H321"/><path class="cls-23" d="M429.5 368v14.6h-27.4V368h27.4"/><path class="cls-22" d="M429.5 382.6v-3.3h-27.4v3.3h27.4"/><path class="cls-16" d="M402.4 381.2l1.2 1.4M404.3 379.3l3.4 3.3M408.4 379.3l3.3 3.3M412.2 379.3l3.4 3.3M416.3 379.3l3.4 3.3M420.4 379.3l3.3 3.3M424.2 379.3l3.4 3.3M428.3 379.3l1.4 1.2"/><path class="cls-22" d="M429.5 379.3v-.5h-27.4v.5h27.4M429.5 378.8V373h-27.4v5.8h27.4"/><path class="cls-16" d="M402.6 373v5.8M404.1 373v5.8M405.5 373v5.8M406.9 373v5.8M408.4 373v5.8M409.8 373v5.8M411.3 373v5.8M412.5 373v5.8M413.9 373v5.8M415.3 373v5.8M416.8 373v5.8M418.2 373v5.8M419.7 373v5.8M421.1 373v5.8M422.5 373v5.8M424 373v5.8M425.4 373v5.8M426.6 373v5.8M428.1 373v5.8M429.5 373v5.8"/><path class="cls-22" d="M429.5 373v-5h-27.4v5h27.4"/><path class="cls-16" d="M402.4 369.2l3.6 3.8M405 368l5.1 5M409.1 368l5 5M412.9 368l5.1 5M417 368l5.1 5M421.1 368l5 5M425.2 368l4.5 4.6M429 368l.7.5"/><path class="cls-18" d="M429.5 379.3h-27.4M429.5 382.6h-27.4"/><path class="cls-16" d="M429.5 373h-27.4M429.5 378.8h-27.4"/><path class="cls-18" d="M429.5 368h-27.4M429.5 373h-27.4"/><path class="cls-17" d="M429.5 382.6h-27.4M429.5 368h-27.4M400.2 375.4v7.2h3.4v2h-43.9v-2h3.3v-7.2"/><path class="cls-1" d="M402.1 368h-40.8"/><path class="cls-17" d="M361.8 368h-.5"/><path class="cls-18" d="M400.2 382.6h3.4M363 382.6h-3.3"/><path class="cls-17" d="M361.3 373h40.8v2.4h-40.8zM398.3 375.4V373M364.9 375.4V373M402.1 373v2.4M383.7 373v2.4M398.3 373v2.4M379.6 373v2.4M383.7 373v2.4M364.9 373v2.4M379.6 373v2.4M361.3 373v2.4"/><path class="cls-22" d="M402.1 378.8h-1.8v-3.4h1.8"/><path class="cls-16" d="M401.2 375.4v3.4M402.1 378.8h-1.8v-3.4h1.8"/><path class="cls-18" d="M402.1 373v-5"/><path class="cls-22" d="M402.1 382.6h-1.9v-3.3h1.9"/><path class="cls-16" d="M400.5 379.3l1.9 1.9"/><path class="cls-18" d="M402.1 382.6h-1.9v-3.3h1.9M400.2 379.3v-3.9"/><path class="cls-22" d="M361.3 378.8h1.8v-3.4h-1.8"/><path class="cls-16" d="M361.6 375.4v3.4M363 375.4v3.4M361.3 378.8h1.8v-3.4h-1.8"/><path class="cls-18" d="M361.3 373v-5"/><path class="cls-22" d="M361.3 382.6h1.7v-3.3h-1.7"/><path class="cls-16" d="M361.6 380.5l1.7 1.7"/><path class="cls-18" d="M361.3 382.6h1.7v-3.3h-1.7M363 379.3v-3.9"/><path class="cls-17" d="M321 373v-5h-18.7v5M319.1 375.4v7.2h3.6v2h-21.8v-2h3.3v-7.2M319.1 382.6h-14.9"/><path class="cls-18" d="M319.1 382.6h3.6M304.2 382.6h-3.3"/><path class="cls-17" d="M302.3 373H321v2.4h-18.7zM317.4 375.4V373M305.9 375.4V373M321 373v2.4M305.9 373v2.4M317.4 373v2.4M302.3 373v2.4"/><path class="cls-18" d="M321 373v-5"/><path class="cls-17" d="M319.1 379.3h-7.4"/><path class="cls-22" d="M321 378.8h-1.8v-3.4h1.8"/><path class="cls-16" d="M320.5 375.4v3.4M321 378.8h-1.8v-3.4h1.8"/><path class="cls-22" d="M321 382.6h-1.9v-3.3h1.9"/><path class="cls-16" d="M319.3 382.4v.2M320.1 379.3l1.2.9"/><path class="cls-18" d="M321 382.6h-1.9v-3.3h1.9M319.1 379.3v-3.9M302.3 373v-5"/><path class="cls-17" d="M304.2 379.3h7.5"/><path class="cls-22" d="M302.3 378.8h1.9v-3.4h-1.9"/><path class="cls-16" d="M303.5 375.4v3.4M302.3 378.8h1.9v-3.4h-1.9"/><path class="cls-22" d="M302.3 382.6h1.9v-3.3h-1.9"/><path class="cls-16" d="M302.5 381.7l1 .9M304 379.3l.5.2"/><path class="cls-18" d="M302.3 382.6h1.9v-3.3h-1.9M304.2 379.3v-3.9"/><path class="cls-22" d="M429.5 373h-7.2V52.2h7.2V373"/><path class="cls-16" d="M429.7 55.8l-3.8-3.6M429.7 59.8l-7.2-7.2M429.7 63.9l-7.2-7.2M429.7 68l-7.2-7.2M429.7 71.8l-7.2-7.2M429.7 75.9l-7.2-7.2M429.7 80l-7.2-7.2M429.7 83.8l-7.2-7.2M429.7 87.9l-7.2-7.2M429.7 92l-7.2-7.2M429.7 95.8l-7.2-7.2M429.7 99.9l-7.2-7.2M429.7 104l-7.2-7.2M429.7 108.1l-7.2-7.2M429.7 111.9l-7.2-7.2M429.7 116l-7.2-7.2M429.7 120.1l-7.2-7.2M429.7 123.9l-7.2-7.2M429.7 128l-7.2-7.2M429.7 132.1l-7.2-7.2M429.7 135.9l-7.2-7.2M429.7 140l-7.2-7.2M429.7 144.1l-7.2-7.2M429.7 148.2l-7.2-7.2M429.7 152l-7.2-7.2M429.7 156.1l-7.2-7.2M429.7 160.2l-7.2-7.2M429.7 164l-7.2-7.2M429.7 168.1l-7.2-7.2M429.7 172.2l-7.2-7.2M429.7 176.2l-7.2-7.2M429.7 180.1l-7.2-7.2M429.7 184.2l-7.2-7.2M429.7 188.2l-7.2-7.2M429.7 192.1l-7.2-7.2M429.7 196.2l-7.2-7.2M429.7 200.2l-7.2-7.2M429.7 204.1l-7.2-7.2M429.7 208.2l-7.2-7.2M429.7 212.2l-7.2-7.2M429.7 216.3l-7.2-7.2M429.7 220.2l-7.2-7.2M429.7 224.2l-7.2-7.2M429.7 228.3l-7.2-7.2M429.7 232.2l-7.2-7.2M429.7 236.2l-7.2-7.2M429.7 240.3l-7.2-7.2M429.7 244.2l-7.2-7.2M429.7 248.2l-7.2-7.2M429.7 252.3l-7.2-7.2M429.7 256.4l-7.2-7.2M429.7 260.2l-7.2-7.2M429.7 264.3l-7.2-7.2M429.7 268.4l-7.2-7.2M429.7 272.2l-7.2-7.2M429.7 276.3l-7.2-7.2M429.7 280.4l-7.2-7.2M429.7 284.2l-7.2-7.2M429.7 288.3l-7.2-7.2M429.7 292.4l-7.2-7.2M429.7 296.5l-7.2-7.2M429.7 300.3l-7.2-7.2M429.7 304.4l-7.2-7.2M429.7 308.5l-7.2-7.2M429.7 312.3l-7.2-7.2M429.7 316.4l-7.2-7.2M429.7 320.5l-7.2-7.2M429.7 324.6l-7.2-7.2M429.7 328.4l-7.2-7.2M429.7 332.5l-7.2-7.2M429.7 336.6l-7.2-7.2M429.7 340.4l-7.2-7.2M429.7 344.5l-7.2-7.2M429.7 348.6l-7.2-7.2M429.7 352.4l-7.2-7.2M429.7 356.5l-7.2-7.2M429.7 360.6l-7.2-7.2M429.7 364.6l-7.2-7.2M429.7 368.5l-7.2-7.2M429.7 372.6l-7.2-7.2M426.1 373l-3.6-3.6M428.1 373l1.6-1.6M424 373l5.7-5.7M422.5 370.6l7.2-7.2M422.5 366.6l7.2-7.2M422.5 362.5l7.2-7.2M422.5 358.6l7.2-7.2M422.5 354.6l7.2-7.2M422.5 350.5l7.2-7.2M422.5 346.4l7.2-7.2M422.5 342.6l7.2-7.2M422.5 338.5l7.2-7.2M422.5 334.4l7.2-7.2M422.5 330.6l7.2-7.2M422.5 326.5l7.2-7.2M422.5 322.4l7.2-7.2M422.5 318.6l7.2-7.2M422.5 314.5l7.2-7.2M422.5 310.4l7.2-7.2M422.5 306.3l7.2-7.2M422.5 302.5l7.2-7.2M422.5 298.4l7.2-7.2M422.5 294.3l7.2-7.2M422.5 290.5l7.2-7.2M422.5 286.4l7.2-7.2M422.5 282.3l7.2-7.2M422.5 278.2l7.2-7.2M422.5 274.4l7.2-7.2M422.5 270.3l7.2-7.2M422.5 266.2l7.2-7.2M422.5 262.4l7.2-7.2M422.5 258.3l7.2-7.2M422.5 254.2l7.2-7.2M422.5 250.4l7.2-7.2M422.5 246.3l7.2-7.2M422.5 242.2l7.2-7.2M422.5 238.2l7.2-7.2M422.5 234.3l7.2-7.2M422.5 230.2l7.2-7.2M422.5 226.2l7.2-7.2M422.5 222.3l7.2-7.2M422.5 218.2l7.2-7.2M422.5 214.2l7.2-7.2M422.5 210.3l7.2-7.2M422.5 206.2l7.2-7.2M422.5 202.2l7.2-7.2M422.5 198.1l7.2-7.2M422.5 194.2l7.2-7.2M422.5 190.2l7.2-7.2M422.5 186.1l7.2-7.2M422.5 182.2l7.2-7.2M422.5 178.2l7.2-7.2M422.5 174.1l7.2-7.2M422.5 170.2l7.2-7.2M422.5 166.2l7.2-7.2M422.5 162.1l7.2-7.2M422.5 158l7.2-7.2M422.5 154.2l7.2-7.2M422.5 150.1l7.2-7.2M422.5 146l7.2-7.2M422.5 142.2l7.2-7.2M422.5 138.1l7.2-7.2M422.5 134l7.2-7.2M422.5 129.9l7.2-7.2M422.5 126.1l7.2-7.2M422.5 122l7.2-7.2M422.5 117.9l7.2-7.2M422.5 114.1l7.2-7.2M422.5 110l7.2-7.2M422.5 105.9l7.2-7.2M422.5 102.1l7.2-7.2M422.5 98l7.2-7.2M422.5 93.9l7.2-7.2M422.5 89.8l7.2-7.2M422.5 86l7.2-7.2M422.5 81.9l7.2-7.2M422.5 77.8l7.2-7.2M422.5 74l7.2-7.2M422.5 69.9l7.2-7.2M422.5 65.8l7.2-7.2M422.5 62l7.2-7.2M422.5 57.9l5.6-5.7M422.5 53.8l1.7-1.6"/><path class="cls-22" d="M422.3 373h7.2V52.2h-7.2V373"/><path class="cls-16" d="M429.7 55.8l-3.8-3.6M429.7 59.8l-7.2-7.2M429.7 63.9l-7.2-7.2M429.7 68l-7.2-7.2M429.7 71.8l-7.2-7.2M429.7 75.9l-7.2-7.2M429.7 80l-7.2-7.2M429.7 83.8l-7.2-7.2M429.7 87.9l-7.2-7.2M429.7 92l-7.2-7.2M429.7 95.8l-7.2-7.2M429.7 99.9l-7.2-7.2M429.7 104l-7.2-7.2M429.7 108.1l-7.2-7.2M429.7 111.9l-7.2-7.2M429.7 116l-7.2-7.2M429.7 120.1l-7.2-7.2M429.7 123.9l-7.2-7.2M429.7 128l-7.2-7.2M429.7 132.1l-7.2-7.2M429.7 135.9l-7.2-7.2M429.7 140l-7.2-7.2M429.7 144.1l-7.2-7.2M429.7 148.2l-7.2-7.2M429.7 152l-7.2-7.2M429.7 156.1l-7.2-7.2M429.7 160.2l-7.2-7.2M429.7 164l-7.2-7.2M429.7 168.1l-7.2-7.2M429.7 172.2l-7.2-7.2M429.7 176.2l-7.2-7.2M429.7 180.1l-7.2-7.2M429.7 184.2l-7.2-7.2M429.7 188.2l-7.2-7.2M429.7 192.1l-7.2-7.2M429.7 196.2l-7.2-7.2M429.7 200.2l-7.2-7.2M429.7 204.1l-7.2-7.2M429.7 208.2l-7.2-7.2M429.7 212.2l-7.2-7.2M429.7 216.3l-7.2-7.2M429.7 220.2l-7.2-7.2M429.7 224.2l-7.2-7.2M429.7 228.3l-7.2-7.2M429.7 232.2l-7.2-7.2M429.7 236.2l-7.2-7.2M429.7 240.3l-7.2-7.2M429.7 244.2l-7.2-7.2M429.7 248.2l-7.2-7.2M429.7 252.3l-7.2-7.2M429.7 256.4l-7.2-7.2M429.7 260.2l-7.2-7.2M429.7 264.3l-7.2-7.2M429.7 268.4l-7.2-7.2M429.7 272.2l-7.2-7.2M429.7 276.3l-7.2-7.2M429.7 280.4l-7.2-7.2M429.7 284.2l-7.2-7.2M429.7 288.3l-7.2-7.2M429.7 292.4l-7.2-7.2M429.7 296.5l-7.2-7.2M429.7 300.3l-7.2-7.2M429.7 304.4l-7.2-7.2M429.7 308.5l-7.2-7.2M429.7 312.3l-7.2-7.2M429.7 316.4l-7.2-7.2M429.7 320.5l-7.2-7.2M429.7 324.6l-7.2-7.2M429.7 328.4l-7.2-7.2M429.7 332.5l-7.2-7.2M429.7 336.6l-7.2-7.2M429.7 340.4l-7.2-7.2M429.7 344.5l-7.2-7.2M429.7 348.6l-7.2-7.2M429.7 352.4l-7.2-7.2M429.7 356.5l-7.2-7.2M429.7 360.6l-7.2-7.2M429.7 364.6l-7.2-7.2M429.7 368.5l-7.2-7.2M429.7 372.6l-7.2-7.2M426.1 373l-3.6-3.6M428.1 373l1.6-1.6M424 373l5.7-5.7M422.5 370.6l7.2-7.2M422.5 366.6l7.2-7.2M422.5 362.5l7.2-7.2M422.5 358.6l7.2-7.2M422.5 354.6l7.2-7.2M422.5 350.5l7.2-7.2M422.5 346.4l7.2-7.2M422.5 342.6l7.2-7.2M422.5 338.5l7.2-7.2M422.5 334.4l7.2-7.2M422.5 330.6l7.2-7.2M422.5 326.5l7.2-7.2M422.5 322.4l7.2-7.2M422.5 318.6l7.2-7.2M422.5 314.5l7.2-7.2M422.5 310.4l7.2-7.2M422.5 306.3l7.2-7.2M422.5 302.5l7.2-7.2M422.5 298.4l7.2-7.2M422.5 294.3l7.2-7.2M422.5 290.5l7.2-7.2M422.5 286.4l7.2-7.2M422.5 282.3l7.2-7.2M422.5 278.2l7.2-7.2M422.5 274.4l7.2-7.2M422.5 270.3l7.2-7.2M422.5 266.2l7.2-7.2M422.5 262.4l7.2-7.2M422.5 258.3l7.2-7.2M422.5 254.2l7.2-7.2M422.5 250.4l7.2-7.2M422.5 246.3l7.2-7.2M422.5 242.2l7.2-7.2M422.5 238.2l7.2-7.2M422.5 234.3l7.2-7.2M422.5 230.2l7.2-7.2M422.5 226.2l7.2-7.2M422.5 222.3l7.2-7.2M422.5 218.2l7.2-7.2M422.5 214.2l7.2-7.2M422.5 210.3l7.2-7.2M422.5 206.2l7.2-7.2M422.5 202.2l7.2-7.2M422.5 198.1l7.2-7.2M422.5 194.2l7.2-7.2M422.5 190.2l7.2-7.2M422.5 186.1l7.2-7.2M422.5 182.2l7.2-7.2M422.5 178.2l7.2-7.2M422.5 174.1l7.2-7.2M422.5 170.2l7.2-7.2M422.5 166.2l7.2-7.2M422.5 162.1l7.2-7.2M422.5 158l7.2-7.2M422.5 154.2l7.2-7.2M422.5 150.1l7.2-7.2M422.5 146l7.2-7.2M422.5 142.2l7.2-7.2M422.5 138.1l7.2-7.2M422.5 134l7.2-7.2M422.5 129.9l7.2-7.2M422.5 126.1l7.2-7.2M422.5 122l7.2-7.2M422.5 117.9l7.2-7.2M422.5 114.1l7.2-7.2M422.5 110l7.2-7.2M422.5 105.9l7.2-7.2M422.5 102.1l7.2-7.2M422.5 98l7.2-7.2M422.5 93.9l7.2-7.2M422.5 89.8l7.2-7.2M422.5 86l7.2-7.2M422.5 81.9l7.2-7.2M422.5 77.8l7.2-7.2M422.5 74l7.2-7.2M422.5 69.9l7.2-7.2M422.5 65.8l7.2-7.2M422.5 62l7.2-7.2M422.5 57.9l5.6-5.7M422.5 53.8l1.7-1.6"/><path class="cls-18" d="M429.5 373V52.2M422.3 373V52.2M429.5 52.2h-7.2M422.3 373V52.2M429.5 373V52.2M429.5 373h-7.2"/><path class="cls-22" d="M267.3 368l6.9 5v-88.5l-6.9 6.9V368"/><path class="cls-16" d="M274.5 285.4l-.5-.4M274.5 289.5l-2.7-2.6M274.5 293.4l-4.6-4.4M274.5 297.4l-6.8-6.4M274.5 301.5l-7-6.9M274.5 305.4l-7-7M274.5 309.4l-7-6.9M274.5 313.5l-7-6.9M274.5 317.6l-7-7M274.5 321.4l-7-6.9M274.5 325.5l-7-6.9M274.5 329.6l-7-7M274.5 333.4l-7-6.9M274.5 337.5l-7-6.9M274.5 341.6l-7-7M274.5 345.4l-7-6.9M274.5 349.5l-7-6.9M274.5 353.6l-7-7M274.5 357.7l-7-7M274.5 361.5l-7-6.9M274.5 365.6l-7-7M274.5 369.7l-7-7M272.3 371.6l-4.8-5M272.8 371.8l1.7-1.4M270.4 370.2l4.1-3.9M268.2 368.5l6.3-6.3M267.5 365.4l7-7M267.5 361.3l7-7M267.5 357.2l7-7M267.5 353.1l7-6.9M267.5 349.3l7-7M267.5 345.2l7-7M267.5 341.1l7-6.9M267.5 337.3l7-7M267.5 333.2l7-7M267.5 329.1l7-6.9M267.5 325.3l7-7M267.5 321.2l7-7M267.5 317.1l7-6.9M267.5 313l7-6.9M267.5 309.2l7-7M267.5 305.1l7-6.9M267.5 301l7-6.9M267.5 297.2l7-7M267.5 293.1l7-6.9"/><path class="cls-22" d="M267.3 368l6.9 5v-88.5l-6.9 6.9V368"/><path class="cls-16" d="M274.5 285.4l-.5-.4M274.5 289.5l-2.7-2.6M274.5 293.4l-4.6-4.4M274.5 297.4l-6.8-6.4M274.5 301.5l-7-6.9M274.5 305.4l-7-7M274.5 309.4l-7-6.9M274.5 313.5l-7-6.9M274.5 317.6l-7-7M274.5 321.4l-7-6.9M274.5 325.5l-7-6.9M274.5 329.6l-7-7M274.5 333.4l-7-6.9M274.5 337.5l-7-6.9M274.5 341.6l-7-7M274.5 345.4l-7-6.9M274.5 349.5l-7-6.9M274.5 353.6l-7-7M274.5 357.7l-7-7M274.5 361.5l-7-6.9M274.5 365.6l-7-7M274.5 369.7l-7-7M272.3 371.6l-4.8-5M272.8 371.8l1.7-1.4M270.4 370.2l4.1-3.9M268.2 368.5l6.3-6.3M267.5 365.4l7-7M267.5 361.3l7-7M267.5 357.2l7-7M267.5 353.1l7-6.9M267.5 349.3l7-7M267.5 345.2l7-7M267.5 341.1l7-6.9M267.5 337.3l7-7M267.5 333.2l7-7M267.5 329.1l7-6.9M267.5 325.3l7-7M267.5 321.2l7-7M267.5 317.1l7-6.9M267.5 313l7-6.9M267.5 309.2l7-7M267.5 305.1l7-6.9M267.5 301l7-6.9M267.5 297.2l7-7M267.5 293.1l7-6.9"/><path class="cls-18" d="M267.3 291.4V368M274.2 284.5V373M274.2 284.5V373M267.3 291.4V368"/><path class="cls-22" d="M68.3 332.5l-7.2-7H.1l7.5 7h60.7"/><path class="cls-16" d="M64.9 332.5l-6.9-7M60.9 332.5l-7-7M56.8 332.5l-7-7M52.7 332.5l-7-7M48.9 332.5l-7-7M44.8 332.5l-7-7M40.7 332.5l-7-7M36.9 332.5l-7-7M32.8 332.5l-7-7M28.7 332.5l-7-7M24.9 332.5l-7-7M20.8 332.5l-7-7M16.7 332.5l-7-7M12.6 332.5l-6.9-7M8.8 332.5l-7-7M67.6 332.5l.5-.5M63.7 332.5l2.2-2.4M59.7 332.5l4.3-4.3M55.6 332.5l6.2-6.3M51.5 332.5l7-7M47.7 332.5l6.9-7M43.6 332.5l6.9-7M39.5 332.5l7-7M35.7 332.5l6.9-7M31.6 332.5l6.9-7M27.5 332.5l7-7M23.7 332.5l6.9-7M19.6 332.5l6.9-7M15.5 332.5l7-7M11.4 332.5l7-7M7.6 332.5l6.9-7M5.4 330.6l5.1-5.1M3.5 328.4l2.9-2.9M1.3 326.5l1.2-1"/><path class="cls-22" d="M68.3 332.5l-7.2-7H.1l7.5 7h60.7"/><path class="cls-16" d="M64.9 332.5l-6.9-7M60.9 332.5l-7-7M56.8 332.5l-7-7M52.7 332.5l-7-7M48.9 332.5l-7-7M44.8 332.5l-7-7M40.7 332.5l-7-7M36.9 332.5l-7-7M32.8 332.5l-7-7M28.7 332.5l-7-7M24.9 332.5l-7-7M20.8 332.5l-7-7M16.7 332.5l-7-7M12.6 332.5l-6.9-7M8.8 332.5l-7-7M67.6 332.5l.5-.5M63.7 332.5l2.2-2.4M59.7 332.5l4.3-4.3M55.6 332.5l6.2-6.3M51.5 332.5l7-7M47.7 332.5l6.9-7M43.6 332.5l6.9-7M39.5 332.5l7-7M35.7 332.5l6.9-7M31.6 332.5l6.9-7M27.5 332.5l7-7M23.7 332.5l6.9-7M19.6 332.5l6.9-7M15.5 332.5l7-7M11.4 332.5l7-7M7.6 332.5l6.9-7M5.4 330.6l5.1-5.1M3.5 328.4l2.9-2.9M1.3 326.5l1.2-1"/><path class="cls-18" d="M7.6 332.5h54.7M.1 325.5h61M.1 325.5h61M7.6 332.5h54.7"/><path class="cls-22" d="M61.1 284.5l4.8 4.8v-4.8h-4.8"/><path class="cls-16" d="M66.1 285.4l-1.2-.9M64.5 287.6l1.6-1.7M62.3 285.7l1.2-1.2"/><path class="cls-22" d="M61.1 284.5l4.8 4.8v-4.8h-4.8"/><path class="cls-16" d="M66.1 285.4l-1.2-.9M64.5 287.6l1.6-1.7M62.3 285.7l1.2-1.2"/><path class="cls-18" d="M65.9 284.5h-4.8M65.9 284.5h-4.8"/><path class="cls-22" d="M232.9 284.5v6.9H98.3v-6.9h134.6"/><path class="cls-16" d="M233.2 288.3l-3.9-3.8M232.2 291.4l-6.9-6.9M228.1 291.4l-6.9-6.9M224.3 291.4l-7-6.9M220.2 291.4l-6.9-6.9M216.1 291.4l-6.9-6.9M212.3 291.4l-7-6.9M208.2 291.4l-6.9-6.9M204.1 291.4l-6.9-6.9M200.3 291.4l-7-6.9M196.2 291.4l-6.9-6.9M192.1 291.4l-6.9-6.9M188.1 291.4l-7-6.9M184.2 291.4l-6.9-6.9M180.1 291.4l-6.9-6.9M176.1 291.4l-7-6.9M172.2 291.4l-6.9-6.9M168.1 291.4l-6.9-6.9M164.1 291.4l-7-6.9M160 291.4l-7-6.9M156.1 291.4l-6.9-6.9M152.1 291.4l-7-6.9M148 291.4l-7-6.9M144.1 291.4l-6.9-6.9M140.1 291.4l-7-6.9M136 291.4l-7-6.9M132.1 291.4l-6.9-6.9M128.1 291.4l-7-6.9M124 291.4l-7-6.9M119.9 291.4l-7-6.9M116.1 291.4l-7-6.9M112 291.4l-7-6.9M107.9 291.4l-7-6.9M104.1 291.4l-5.6-5.5M100 291.4l-1.5-1.4M232.9 291.4h.3M228.9 291.4l4.3-4M225 291.4l7-6.9M220.9 291.4l7-6.9M216.9 291.4l6.9-6.9M213 291.4l7-6.9M208.9 291.4l7-6.9M204.9 291.4l6.9-6.9M200.8 291.4l6.9-6.9M196.9 291.4l7-6.9M192.9 291.4l6.9-6.9M188.8 291.4l6.9-6.9M184.9 291.4l7-6.9M180.9 291.4l6.9-6.9M176.8 291.4l6.9-6.9M172.9 291.4l7-6.9M168.9 291.4l6.9-6.9M164.8 291.4l6.9-6.9M160.7 291.4l7-6.9M156.9 291.4l6.9-6.9M152.8 291.4l6.9-6.9M148.7 291.4l7-6.9M144.9 291.4l6.9-6.9M140.8 291.4l6.9-6.9M136.7 291.4l7-6.9M132.6 291.4l7-6.9M128.8 291.4l6.9-6.9M124.7 291.4l7-6.9M120.6 291.4l7-6.9M116.8 291.4l6.9-6.9M112.7 291.4l7-6.9M108.6 291.4l7-6.9M104.8 291.4l6.9-6.9M100.7 291.4l7-6.9M98.5 289.8l5.1-5.3M98.5 285.7l1-1.2"/><path class="cls-22" d="M232.9 291.4v-6.9H98.3v6.9h134.6"/><path class="cls-16" d="M233.2 288.3l-3.9-3.8M232.2 291.4l-6.9-6.9M228.1 291.4l-6.9-6.9M224.3 291.4l-7-6.9M220.2 291.4l-6.9-6.9M216.1 291.4l-6.9-6.9M212.3 291.4l-7-6.9M208.2 291.4l-6.9-6.9M204.1 291.4l-6.9-6.9M200.3 291.4l-7-6.9M196.2 291.4l-6.9-6.9M192.1 291.4l-6.9-6.9M188.1 291.4l-7-6.9M184.2 291.4l-6.9-6.9M180.1 291.4l-6.9-6.9M176.1 291.4l-7-6.9M172.2 291.4l-6.9-6.9M168.1 291.4l-6.9-6.9M164.1 291.4l-7-6.9M160 291.4l-7-6.9M156.1 291.4l-6.9-6.9M152.1 291.4l-7-6.9M148 291.4l-7-6.9M144.1 291.4l-6.9-6.9M140.1 291.4l-7-6.9M136 291.4l-7-6.9M132.1 291.4l-6.9-6.9M128.1 291.4l-7-6.9M124 291.4l-7-6.9M119.9 291.4l-7-6.9M116.1 291.4l-7-6.9M112 291.4l-7-6.9M107.9 291.4l-7-6.9M104.1 291.4l-5.6-5.5M100 291.4l-1.5-1.4M232.9 291.4h.3M228.9 291.4l4.3-4M225 291.4l7-6.9M220.9 291.4l7-6.9M216.9 291.4l6.9-6.9M213 291.4l7-6.9M208.9 291.4l7-6.9M204.9 291.4l6.9-6.9M200.8 291.4l6.9-6.9M196.9 291.4l7-6.9M192.9 291.4l6.9-6.9M188.8 291.4l6.9-6.9M184.9 291.4l7-6.9M180.9 291.4l6.9-6.9M176.8 291.4l6.9-6.9M172.9 291.4l7-6.9M168.9 291.4l6.9-6.9M164.8 291.4l6.9-6.9M160.7 291.4l7-6.9M156.9 291.4l6.9-6.9M152.8 291.4l6.9-6.9M148.7 291.4l7-6.9M144.9 291.4l6.9-6.9M140.8 291.4l6.9-6.9M136.7 291.4l7-6.9M132.6 291.4l7-6.9M128.8 291.4l6.9-6.9M124.7 291.4l7-6.9M120.6 291.4l7-6.9M116.8 291.4l6.9-6.9M112.7 291.4l7-6.9M108.6 291.4l7-6.9M104.8 291.4l6.9-6.9M100.7 291.4l7-6.9M98.5 289.8l5.1-5.3M98.5 285.7l1-1.2"/><path class="cls-18" d="M232.9 284.5H98.3M232.9 291.4H98.3M232.9 291.4H98.3M225.7 284.5H98.3"/><path class="cls-22" d="M265.1 291.4h2.2l6.9-6.9h-9.1v6.9"/><path class="cls-16" d="M274 285l-.5-.5M271.8 286.9l-2.4-2.4M269.9 289l-4.6-4.5M267.7 291l-2.4-2.7M265.3 291.2l6.8-6.7M265.3 287.1l2.7-2.6"/><path class="cls-22" d="M265.1 291.4h2.2l6.9-6.9h-9.1v6.9"/><path class="cls-16" d="M274 285l-.5-.5M271.8 286.9l-2.4-2.4M269.9 289l-4.6-4.5M267.7 291l-2.4-2.7M265.3 291.2l6.8-6.7M265.3 287.1l2.7-2.6"/><path class="cls-18" d="M274.2 284.5h-9.1M267.3 291.4h-2.2M267.3 291.4h-2.2M274.2 284.5h-9.1"/><path class="cls-17" d="M262.7 283.8h2.4v1.7h-2.4zM232.9 283.8h2.4v1.7h-2.4z"/><path class="cls-17" d="M235.3 283.8h27.4v1.7h-27.4zM262.7 285.4h-27.4"/><path class="cls-1" d="M262.9 291.4h-27.8"/><path class="cls-17" d="M235.6 291.4h-.5"/><path class="cls-22" d="M265.1 291.4h-2.2v-6h2.2"/><path class="cls-16" d="M265.3 288.3l-2.1-2.1M264.4 291.4l-1.2-1.2M265.1 291.4l.2-.2M263.2 289.3l2.1-2.2"/><path class="cls-22" d="M232.9 291.4h2.2v-6h-2.2"/><path class="cls-16" d="M235.3 286.4l-.9-1M235.3 290.5l-2.1-2.2M233.2 291.4l2.1-2.1M233.2 287.4l1.7-2"/><path class="cls-18" d="M262.9 291.4v-6M235.1 291.4v-6M262.9 291.4v-6M265.1 291.4h-2.2M235.1 291.4v-6M232.9 291.4h2.2M265.1 284.5v.9M232.9 284.5v.9M265.1 291.4h-2.2M232.9 291.4h2.2M262.9 285.4h2.2M235.1 285.4h-2.2"/><path class="cls-16" d="M262.6 283.8c0-14.9-12.3-27.2-27.2-27.2M235.3 283.8v-27.2"/><path class="cls-17" d="M95.7 283.8h2.6v1.7h-2.6zM65.9 283.8h2.6v1.7h-2.6zM68.5 283.8h27.1v1.7H68.5zM95.7 285.4H68.5"/><path class="cls-1" d="M95.9 291.4H68.3"/><path class="cls-17" d="M68.8 291.4h-.5"/><path class="cls-22" d="M98.3 291.4h-2.4v-6h2.4v-.9"/><path class="cls-16" d="M98.5 285.9l-.4-.5M98.5 290l-2.4-2.4M96.6 291.4l1.9-1.6M96.1 288.1l2.4-2.4"/><path class="cls-18" d="M98.3 291.4h-2.4v-6h2.4v-.9"/><path class="cls-22" d="M65.9 291.5h2.3v-6h-2.3v-1.1"/><path class="cls-16" d="M68.5 287.8l-2.4-2.4M67.8 291.4l-1.7-1.9M66.1 290l2.4-2.4M66.1 285.9l.5-.5"/><path class="cls-18" d="M68.2 291.5v-6h-2.3v-1.1"/><path class="cls-22" d="M121.1 375.2V368H238v7.2H121.1"/><path class="cls-16" d="M238.2 369.4l-1.7-1.4M238.2 373.5l-5.5-5.5M235.8 375.2l-7.2-7.2M231.7 375.2l-7.2-7.2M227.9 375.2l-7.2-7.2M223.8 375.2l-7.2-7.2M219.7 375.2l-7.2-7.2M215.9 375.2l-7.2-7.2M211.8 375.2l-7.2-7.2M207.7 375.2l-7.2-7.2M203.7 375.2l-7.2-7.2M199.8 375.2l-7.2-7.2M195.7 375.2l-7.2-7.2M191.7 375.2l-7.2-7.2M187.8 375.2l-7.2-7.2M183.7 375.2l-7.2-7.2M179.7 375.2l-7.2-7.2M175.8 375.2l-7.2-7.2M171.7 375.2l-7.2-7.2M167.7 375.2l-7.2-7.2M163.6 375.2l-7.2-7.2M159.7 375.2l-7.2-7.2M155.7 375.2l-7.2-7.2M151.6 375.2l-7.2-7.2M147.7 375.2l-7.2-7.2M143.7 375.2l-7.2-7.2M139.6 375.2l-7.2-7.2M135.5 375.2l-7.2-7.2M131.7 375.2l-7.2-7.2M127.6 375.2l-6.3-6.5M123.5 375.2l-2.2-2.4M237.5 375.2l.7-.7M233.4 375.2l4.8-4.8M229.3 375.2l7.2-7.2M225.3 375.2l7.2-7.2M221.4 375.2l7.2-7.2M217.3 375.2l7.2-7.2M213.3 375.2l7.2-7.2M209.4 375.2l7.2-7.2M205.3 375.2l7.2-7.2M201.3 375.2l7.2-7.2M197.2 375.2l7.2-7.2M193.3 375.2l7.2-7.2M189.3 375.2l7.2-7.2M185.2 375.2l7.2-7.2M181.3 375.2l7.2-7.2M177.3 375.2l7.2-7.2M173.2 375.2l7.2-7.2M169.3 375.2l7.2-7.2M165.3 375.2l7.2-7.2M161.2 375.2l7.2-7.2M157.1 375.2l7.2-7.2M153.3 375.2l7.2-7.2M149.2 375.2l7.2-7.2M145.1 375.2l7.2-7.2M141.3 375.2l7.2-7.2M137.2 375.2l7.2-7.2M133.1 375.2l7.2-7.2M129.3 375.2l7.2-7.2M125.2 375.2l7.2-7.2M121.3 375.2l7-7.2M121.3 371.1l2.9-3.1"/><path class="cls-22" d="M121.1 368v7.2H238V368H121.1"/><path class="cls-16" d="M238.2 369.4l-1.7-1.4M238.2 373.5l-5.5-5.5M235.8 375.2l-7.2-7.2M231.7 375.2l-7.2-7.2M227.9 375.2l-7.2-7.2M223.8 375.2l-7.2-7.2M219.7 375.2l-7.2-7.2M215.9 375.2l-7.2-7.2M211.8 375.2l-7.2-7.2M207.7 375.2l-7.2-7.2M203.7 375.2l-7.2-7.2M199.8 375.2l-7.2-7.2M195.7 375.2l-7.2-7.2M191.7 375.2l-7.2-7.2M187.8 375.2l-7.2-7.2M183.7 375.2l-7.2-7.2M179.7 375.2l-7.2-7.2M175.8 375.2l-7.2-7.2M171.7 375.2l-7.2-7.2M167.7 375.2l-7.2-7.2M163.6 375.2l-7.2-7.2M159.7 375.2l-7.2-7.2M155.7 375.2l-7.2-7.2M151.6 375.2l-7.2-7.2M147.7 375.2l-7.2-7.2M143.7 375.2l-7.2-7.2M139.6 375.2l-7.2-7.2M135.5 375.2l-7.2-7.2M131.7 375.2l-7.2-7.2M127.6 375.2l-6.3-6.5M123.5 375.2l-2.2-2.4M237.5 375.2l.7-.7M233.4 375.2l4.8-4.8M229.3 375.2l7.2-7.2M225.3 375.2l7.2-7.2M221.4 375.2l7.2-7.2M217.3 375.2l7.2-7.2M213.3 375.2l7.2-7.2M209.4 375.2l7.2-7.2M205.3 375.2l7.2-7.2M201.3 375.2l7.2-7.2M197.2 375.2l7.2-7.2M193.3 375.2l7.2-7.2M189.3 375.2l7.2-7.2M185.2 375.2l7.2-7.2M181.3 375.2l7.2-7.2M177.3 375.2l7.2-7.2M173.2 375.2l7.2-7.2M169.3 375.2l7.2-7.2M165.3 375.2l7.2-7.2M161.2 375.2l7.2-7.2M157.1 375.2l7.2-7.2M153.3 375.2l7.2-7.2M149.2 375.2l7.2-7.2M145.1 375.2l7.2-7.2M141.3 375.2l7.2-7.2M137.2 375.2l7.2-7.2M133.1 375.2l7.2-7.2M129.3 375.2l7.2-7.2M125.2 375.2l7.2-7.2M121.3 375.2l7-7.2M121.3 371.1l2.9-3.1"/><path class="cls-18" d="M121.1 375.2H238M121.1 368H238M121.1 368H238M121.1 375.2H238"/><path class="cls-22" d="M85.6 368H68.3l-6 7.2h23.3V368"/><path class="cls-16" d="M85.8 369.4l-1.4-1.4M85.8 373.3l-5.5-5.3M83.4 375.2l-7.2-7.2M79.6 375.2l-7.2-7.2M75.5 375.2l-7.2-7.2M71.4 375.2l-4.8-5M67.6 375.2l-2.9-2.6M63.5 375.2l-.7-.5M85.1 375.2l.7-.7M81 375.2l4.8-4.6M76.9 375.2l7.2-7.2M73.1 375.2l7.2-7.2M69 375.2l7.2-7.2M64.9 375.2l7.2-7.2"/><path class="cls-22" d="M85.6 368H68.3l-6 7.2h23.3V368"/><path class="cls-16" d="M85.8 369.4l-1.4-1.4M85.8 373.3l-5.5-5.3M83.4 375.2l-7.2-7.2M79.6 375.2l-7.2-7.2M75.5 375.2l-7.2-7.2M71.4 375.2l-4.8-5M67.6 375.2l-2.9-2.6M63.5 375.2l-.7-.5M85.1 375.2l.7-.7M81 375.2l4.8-4.6M76.9 375.2l7.2-7.2M73.1 375.2l7.2-7.2M69 375.2l7.2-7.2M64.9 375.2l7.2-7.2"/><path class="cls-18" d="M69.3 375.2h16.3M68.3 368h17.3M68.3 368h17.3M69.3 375.2h16.3M238 373v2.2"/><path class="cls-17" d="M85.6 374H88v1.7h-2.4zM115.3 374h5.8v1.7h-5.8z"/><path class="cls-17" d="M88 374h27.4v1.7H88zM88 374h27.3"/><path class="cls-1" d="M87.7 368h27.9"/><path class="cls-17" d="M115.1 368h.5"/><path class="cls-22" d="M85.6 368h2.1v6h-2.1"/><path class="cls-16" d="M88 371.6l-2.2-2.2M86.3 374l-.5-.7M86.3 374l1.7-1.7M85.8 370.6l2.2-2.1"/><path class="cls-22" d="M121.1 368h-5.5v6h5.5"/><path class="cls-16" d="M121.3 368.7l-.9-.7M121.3 372.8l-5-4.8M118.5 374l-2.7-2.6M118.2 374l3.1-2.9M115.8 372.6l4.6-4.6M115.8 368.7l.5-.7"/><path class="cls-18" d="M87.7 368v6M115.6 368v6M87.7 368v6M85.6 368h2.1M115.6 368v6M121.1 368h-5.5M85.6 375.2V374M121.1 375.2V374M85.6 368h2.1M121.1 368h-5.5M87.7 374h-2.1M115.6 374h5.5"/><path class="cls-22" d="M232.9 284.5h-7.2V52.2h7.2v232.3"/><path class="cls-16" d="M233.2 55.8l-3.6-3.6M233.2 59.8l-7.2-7.2M233.2 63.7l-7.2-7.2M233.2 67.8l-7.2-7.2M233.2 71.8l-7.2-7.2M233.2 75.7l-7.2-7.2M233.2 79.8l-7.2-7.2M233.2 83.8l-7.2-7.2M233.2 87.7l-7.2-7.2M233.2 91.8l-7.2-7.2M233.2 95.8l-7.2-7.2M233.2 99.9l-7.2-7.2M233.2 103.8l-7.2-7.2M233.2 107.8l-7.2-7.2M233.2 111.9l-7.2-7.2M233.2 115.8l-7.2-7.2M233.2 119.8l-7.2-7.2M233.2 123.9l-7.2-7.2M233.2 128l-7.2-7.2M233.2 131.8l-7.2-7.2M233.2 135.9l-7.2-7.2M233.2 140l-7.2-7.2M233.2 143.8l-7.2-7.2M233.2 147.9l-7.2-7.2M233.2 152l-7.2-7.2M233.2 155.8l-7.2-7.2M233.2 159.9l-7.2-7.2M233.2 164l-7.2-7.2M233.2 168.1l-7.2-7.2M233.2 171.9l-7.2-7.2M233.2 176l-7.2-7.2M233.2 180.1l-7.2-7.2M233.2 183.9l-7.2-7.2M233.2 188l-7.2-7.2M233.2 192.1l-7.2-7.2M233.2 195.9l-7.2-7.2M233.2 200l-7.2-7.2M233.2 204.1l-7.2-7.2M233.2 208.2L226 201M233.2 212l-7.2-7.2M233.2 216.1l-7.2-7.2M233.2 220.2L226 213M233.2 224l-7.2-7.2M233.2 228.1l-7.2-7.2M233.2 232.2L226 225M233.2 236.2L226 229M233.2 240.1l-7.2-7.2M233.2 244.2L226 237M233.2 248.2L226 241M233.2 252.1l-7.2-7.2M233.2 256.2L226 249M233.2 260.2L226 253M233.2 264.1l-7.2-7.2M233.2 268.2L226 261M233.2 272.2L226 265M233.2 276.3l-7.2-7.2M233.2 280.2L226 273M233.2 284.2L226 277M229.3 284.5l-3.3-3.4M232 284.5l1.2-1.2M227.9 284.5l5.3-5.3M226 282.6l7.2-7.2M226 278.5l7.2-7.2M226 274.4l7.2-7.2M226 270.6l7.2-7.2M226 266.5l7.2-7.2M226 262.4l7.2-7.2M226 258.6l7.2-7.2M226 254.5l7.2-7.2M226 250.4l7.2-7.2M226 246.3l7.2-7.2M226 242.5l7.2-7.2M226 238.4l7.2-7.2M226 234.3l7.2-7.2M226 230.5l7.2-7.2M226 226.4l7.2-7.2M226 222.3l7.2-7.2M226 218.2l7.2-7.2M226 214.4l7.2-7.2M226 210.3l7.2-7.2M226 206.2l7.2-7.2M226 202.4l7.2-7.2M226 198.3l7.2-7.2M226 194.2l7.2-7.2M226 190.4l7.2-7.2M226 186.3l7.2-7.2M226 182.2l7.2-7.2M226 178.2l7.2-7.2M226 174.3l7.2-7.2M226 170.2l7.2-7.2M226 166.2l7.2-7.2M226 162.3l7.2-7.2M226 158.2l7.2-7.2M226 154.2l7.2-7.2M226 150.3l7.2-7.2M226 146.2l7.2-7.2M226 142.2l7.2-7.2M226 138.1l7.2-7.2M226 134.2l7.2-7.2M226 130.2l7.2-7.2M226 126.1l7.2-7.2M226 122.2l7.2-7.2M226 118.2l7.2-7.2M226 114.1l7.2-7.2M226 110l7.2-7.2M226 106.2l7.2-7.2M226 102.1l7.2-7.2M226 98l7.2-7.2M226 94.2l7.2-7.2M226 90.1l7.2-7.2M226 86l7.2-7.2M226 82.2l7.2-7.2M226 78.1l7.2-7.2M226 74l7.2-7.2M226 69.9l7.2-7.2M226 66.1l7.2-7.2M226 62l7.2-7.2M226 57.9l5.7-5.7M226 54.1l1.7-1.9"/><path class="cls-22" d="M225.7 284.5h7.2V52.2h-7.2v232.3"/><path class="cls-16" d="M233.2 55.8l-3.6-3.6M233.2 59.8l-7.2-7.2M233.2 63.7l-7.2-7.2M233.2 67.8l-7.2-7.2M233.2 71.8l-7.2-7.2M233.2 75.7l-7.2-7.2M233.2 79.8l-7.2-7.2M233.2 83.8l-7.2-7.2M233.2 87.7l-7.2-7.2M233.2 91.8l-7.2-7.2M233.2 95.8l-7.2-7.2M233.2 99.9l-7.2-7.2M233.2 103.8l-7.2-7.2M233.2 107.8l-7.2-7.2M233.2 111.9l-7.2-7.2M233.2 115.8l-7.2-7.2M233.2 119.8l-7.2-7.2M233.2 123.9l-7.2-7.2M233.2 128l-7.2-7.2M233.2 131.8l-7.2-7.2M233.2 135.9l-7.2-7.2M233.2 140l-7.2-7.2M233.2 143.8l-7.2-7.2M233.2 147.9l-7.2-7.2M233.2 152l-7.2-7.2M233.2 155.8l-7.2-7.2M233.2 159.9l-7.2-7.2M233.2 164l-7.2-7.2M233.2 168.1l-7.2-7.2M233.2 171.9l-7.2-7.2M233.2 176l-7.2-7.2M233.2 180.1l-7.2-7.2M233.2 183.9l-7.2-7.2M233.2 188l-7.2-7.2M233.2 192.1l-7.2-7.2M233.2 195.9l-7.2-7.2M233.2 200l-7.2-7.2M233.2 204.1l-7.2-7.2M233.2 208.2L226 201M233.2 212l-7.2-7.2M233.2 216.1l-7.2-7.2M233.2 220.2L226 213M233.2 224l-7.2-7.2M233.2 228.1l-7.2-7.2M233.2 232.2L226 225M233.2 236.2L226 229M233.2 240.1l-7.2-7.2M233.2 244.2L226 237M233.2 248.2L226 241M233.2 252.1l-7.2-7.2M233.2 256.2L226 249M233.2 260.2L226 253M233.2 264.1l-7.2-7.2M233.2 268.2L226 261M233.2 272.2L226 265M233.2 276.3l-7.2-7.2M233.2 280.2L226 273M233.2 284.2L226 277M229.3 284.5l-3.3-3.4M232 284.5l1.2-1.2M227.9 284.5l5.3-5.3M226 282.6l7.2-7.2M226 278.5l7.2-7.2M226 274.4l7.2-7.2M226 270.6l7.2-7.2M226 266.5l7.2-7.2M226 262.4l7.2-7.2M226 258.6l7.2-7.2M226 254.5l7.2-7.2M226 250.4l7.2-7.2M226 246.3l7.2-7.2M226 242.5l7.2-7.2M226 238.4l7.2-7.2M226 234.3l7.2-7.2M226 230.5l7.2-7.2M226 226.4l7.2-7.2M226 222.3l7.2-7.2M226 218.2l7.2-7.2M226 214.4l7.2-7.2M226 210.3l7.2-7.2M226 206.2l7.2-7.2M226 202.4l7.2-7.2M226 198.3l7.2-7.2M226 194.2l7.2-7.2M226 190.4l7.2-7.2M226 186.3l7.2-7.2M226 182.2l7.2-7.2M226 178.2l7.2-7.2M226 174.3l7.2-7.2M226 170.2l7.2-7.2M226 166.2l7.2-7.2M226 162.3l7.2-7.2M226 158.2l7.2-7.2M226 154.2l7.2-7.2M226 150.3l7.2-7.2M226 146.2l7.2-7.2M226 142.2l7.2-7.2M226 138.1l7.2-7.2M226 134.2l7.2-7.2M226 130.2l7.2-7.2M226 126.1l7.2-7.2M226 122.2l7.2-7.2M226 118.2l7.2-7.2M226 114.1l7.2-7.2M226 110l7.2-7.2M226 106.2l7.2-7.2M226 102.1l7.2-7.2M226 98l7.2-7.2M226 94.2l7.2-7.2M226 90.1l7.2-7.2M226 86l7.2-7.2M226 82.2l7.2-7.2M226 78.1l7.2-7.2M226 74l7.2-7.2M226 69.9l7.2-7.2M226 66.1l7.2-7.2M226 62l7.2-7.2M226 57.9l5.7-5.7M226 54.1l1.7-1.9"/><path class="cls-18" d="M232.9 284.5V52.2M225.7 284.5V52.2M232.9 52.2h-7.2M225.7 284.5V52.2M232.9 284.5V52.2"/><path class="cls-17" d="M227.9 325.5v-34.1M220.2 325.5v-34.1M212.5 325.5v-34.1M204.9 325.5v-34.1M197.2 325.5v-34.1M189.7 325.5v-34.1M182.1 325.5v-34.1M174.4 325.5v-34.1M109.3 327h122.4v5.5H109.3zM185.4 327l8.2-35.6M166.7 325.5v-34.1M159 325.5v-34.1M151.3 325.5v-34.1M143.7 325.5v-34.1M136 325.5v-34.1M128.3 325.5v-34.1M120.9 325.5v-34.1M113.2 325.5v-34.1"/><path class="cls-17" d="M107.9 325.5h125.3v8.4H107.9zM189.6 308.5l3.9-3.9M193.5 312.3l-3.9-3.8M193.6 304.6v7.7M113.1 308.5l3.8-3.9M116.9 312.3l-3.8-3.8M117 304.6v7.7"/><path class="cls-22" d="M.1 387l7.5-9.2v-45.3l-7.5-7V387"/><path class="cls-16" d="M7.8 335.4l-7.4-7.5M7.8 339.4L.4 332M7.8 343.5l-7.4-7.4M7.8 347.6l-7.4-7.4M7.8 351.4L.4 344M7.8 355.5l-7.4-7.4M7.8 359.6l-7.4-7.4M7.8 363.4L.4 356M7.8 367.5l-7.4-7.4M7.8 371.6l-7.4-7.4M7.8 375.7l-7.4-7.5M6.9 378.8l-6.5-6.7M5.2 381l-4.8-4.8M3.3 383.1l-2.9-2.9M1.6 385.5l-1.2-1.4M.4 383.8l7.4-7.4M.4 379.8l7.4-7.5M.4 375.9l7.4-7.4M.4 371.8l7.4-7.4M.4 367.8l7.4-7.5M.4 363.7l7.4-7.5M.4 359.8l7.4-7.4M.4 355.8l7.4-7.5M.4 351.7l7.4-7.5M.4 347.8l7.4-7.4M.4 343.8l7.4-7.5M.4 339.7l7.2-7.2M.4 335.6l5-5M.4 331.8l3.1-3.4M.4 327.7l.9-1.2"/><path class="cls-22" d="M.1 387l7.5-9.2v-45.3l-7.5-7V387"/><path class="cls-16" d="M7.8 335.4l-7.4-7.5M7.8 339.4L.4 332M7.8 343.5l-7.4-7.4M7.8 347.6l-7.4-7.4M7.8 351.4L.4 344M7.8 355.5l-7.4-7.4M7.8 359.6l-7.4-7.4M7.8 363.4L.4 356M7.8 367.5l-7.4-7.4M7.8 371.6l-7.4-7.4M7.8 375.7l-7.4-7.5M6.9 378.8l-6.5-6.7M5.2 381l-4.8-4.8M3.3 383.1l-2.9-2.9M1.6 385.5l-1.2-1.4M.4 383.8l7.4-7.4M.4 379.8l7.4-7.5M.4 375.9l7.4-7.4M.4 371.8l7.4-7.4M.4 367.8l7.4-7.5M.4 363.7l7.4-7.5M.4 359.8l7.4-7.4M.4 355.8l7.4-7.5M.4 351.7l7.4-7.5M.4 347.8l7.4-7.4M.4 343.8l7.4-7.5M.4 339.7l7.2-7.2M.4 335.6l5-5M.4 331.8l3.1-3.4M.4 327.7l.9-1.2"/><path class="cls-18" d="M.1 325.5V387M7.6 332.5v45.3M7.6 332.5v45.3M.1 325.5V387"/><path class="cls-22" d="M69.3 387l-7-9.2H7.6L.1 387h69.2"/><path class="cls-16" d="M63.5 379.3l-1.4-1.5M67.1 387l-9.1-9.2M63.3 387l-9.2-9.2M59.2 387l-9.1-9.2M55.1 387l-9.1-9.2M51.3 387l-9.2-9.2M47.2 387l-9.1-9.2M43.1 387l-9.1-9.2M39 387l-9.1-9.2M35.2 387l-9.1-9.2M31.1 387l-9.1-9.2M27 387l-9.1-9.2M23.2 387l-9.1-9.2M19.1 387l-9.1-9.2M15 387l-8.1-8.2M11.2 387l-6-6M7.1 387l-3.8-3.9M3 387l-1.4-1.5M65.2 387l2.4-2.4M61.3 387l4.6-4.6M57.3 387l6.9-7M53.2 387l9.1-9.2M49.3 387l9.2-9.2M45.3 387l9.1-9.2M41.2 387l9.1-9.2M37.1 387l9.1-9.2M33.3 387l9.1-9.2M29.2 387l9.1-9.2M25.1 387l9.1-9.2M21.3 387l9.1-9.2M17.2 387l9.1-9.2M13.1 387l9.1-9.2M9.3 387l9.1-9.2M5.2 387l9.1-9.2M1.1 387l9.1-9.2"/><path class="cls-22" d="M69.3 387l-7-9.2H7.6L.1 387h69.2"/><path class="cls-16" d="M63.5 379.3l-1.4-1.5M67.1 387l-9.1-9.2M63.3 387l-9.2-9.2M59.2 387l-9.1-9.2M55.1 387l-9.1-9.2M51.3 387l-9.2-9.2M47.2 387l-9.1-9.2M43.1 387l-9.1-9.2M39 387l-9.1-9.2M35.2 387l-9.1-9.2M31.1 387l-9.1-9.2M27 387l-9.1-9.2M23.2 387l-9.1-9.2M19.1 387l-9.1-9.2M15 387l-8.1-8.2M11.2 387l-6-6M7.1 387l-3.8-3.9M3 387l-1.4-1.5M65.2 387l2.4-2.4M61.3 387l4.6-4.6M57.3 387l6.9-7M53.2 387l9.1-9.2M49.3 387l9.2-9.2M45.3 387l9.1-9.2M41.2 387l9.1-9.2M37.1 387l9.1-9.2M33.3 387l9.1-9.2M29.2 387l9.1-9.2M25.1 387l9.1-9.2M21.3 387l9.1-9.2M17.2 387l9.1-9.2M13.1 387l9.1-9.2M9.3 387l9.1-9.2M5.2 387l9.1-9.2M1.1 387l9.1-9.2"/><path class="cls-18" d="M.1 387h69.2M7.6 377.8h54.7M7.6 377.8h54.7M.1 387h69.2"/><path class="cls-22" d="M69.3 375.2h-7v2.6l7 9.2v-11.8"/><path class="cls-16" d="M69.5 377.1l-1.9-1.9M69.5 381.2l-6-6M69.5 385l-6-5.7M69.3 387h.2M67.6 384.6l1.9-1.7M65.9 382.4l3.6-3.6M64.2 380l4.8-4.8M62.5 377.8l2.4-2.6"/><path class="cls-22" d="M69.3 375.2h-7v2.6l7 9.2v-11.8"/><path class="cls-16" d="M69.5 377.1l-1.9-1.9M69.5 381.2l-6-6M69.5 385l-6-5.7M69.3 387h.2M67.6 384.6l1.9-1.7M65.9 382.4l3.6-3.6M64.2 380l4.8-4.8M62.5 377.8l2.4-2.6"/><path class="cls-18" d="M69.3 387v-11.8M62.3 377.8v-2.6M62.3 377.8v-2.6M69.3 387v-11.8"/><path class="cls-22" d="M336.9 284.5l-5.1 4.1V368h5.1v-83.5"/><path class="cls-16" d="M332.1 288.8l1.2-1.4M332.1 293.1l5-5M332.1 297.4l5-5M332.1 301.5l5-5M332.1 305.8l5-5M332.1 310.2l5-5.1M332.1 314.2l5-5M332.1 318.6l5-5.1M332.1 322.9l5-5.1M332.1 327l5-5.1M332.1 331.3l5-5.1M332.1 335.6l5-5M332.1 339.9l5-5M332.1 344l5-5M332.1 348.3l5-5M332.1 352.6l5-5M332.1 356.7l5-5M332.1 361l5-5M332.1 365.4l5-5.1M333.5 368l3.6-3.4"/><path class="cls-22" d="M336.9 284.5l-5.1 4.1V368h5.1v-83.5"/><path class="cls-16" d="M332.1 288.8l1.2-1.4M332.1 293.1l5-5M332.1 297.4l5-5M332.1 301.5l5-5M332.1 305.8l5-5M332.1 310.2l5-5.1M332.1 314.2l5-5M332.1 318.6l5-5.1M332.1 322.9l5-5.1M332.1 327l5-5.1M332.1 331.3l5-5.1M332.1 335.6l5-5M332.1 339.9l5-5M332.1 344l5-5M332.1 348.3l5-5M332.1 352.6l5-5M332.1 356.7l5-5M332.1 361l5-5M332.1 365.4l5-5.1M333.5 368l3.6-3.4"/><path class="cls-18" d="M336.9 368v-83.5M331.8 368v-79.4M331.8 368v-79.4M336.9 368v-83.5M336.9 368h-5.1"/><path class="cls-22" d="M336.9 164h-4.4V57.2h4.4V164"/><path class="cls-16" d="M332.8 58.6l1.2-1.4M332.8 63l4.3-4.4M332.8 67l4.3-4.3M332.8 71.4l4.3-4.4M332.8 75.7l4.3-4.3M332.8 79.8l4.3-4.4M332.8 84.1l4.3-4.3M332.8 88.4l4.3-4.3M332.8 92.7l4.3-4.3M332.8 96.8l4.3-4.3M332.8 101.1l4.3-4.3M332.8 105.4l4.3-4.3M332.8 109.5l4.3-4.3M332.8 113.8l4.3-4.3M332.8 118.2l4.3-4.4M332.8 122.2l4.3-4.3M332.8 126.6l4.3-4.4M332.8 130.9l4.3-4.3M332.8 135.2l4.3-4.3M332.8 139.3l4.3-4.3M332.8 143.6l4.3-4.3M332.8 147.9l4.3-4.3M332.8 152l4.3-4.3M332.8 156.3l4.3-4.3M332.8 160.6l4.3-4.3M333.5 164l3.6-3.4"/><path class="cls-22" d="M332.5 164h4.4V57.2h-4.4V164"/><path class="cls-16" d="M332.8 58.6l1.2-1.4M332.8 63l4.3-4.4M332.8 67l4.3-4.3M332.8 71.4l4.3-4.4M332.8 75.7l4.3-4.3M332.8 79.8l4.3-4.4M332.8 84.1l4.3-4.3M332.8 88.4l4.3-4.3M332.8 92.7l4.3-4.3M332.8 96.8l4.3-4.3M332.8 101.1l4.3-4.3M332.8 105.4l4.3-4.3M332.8 109.5l4.3-4.3M332.8 113.8l4.3-4.3M332.8 118.2l4.3-4.4M332.8 122.2l4.3-4.3M332.8 126.6l4.3-4.4M332.8 130.9l4.3-4.3M332.8 135.2l4.3-4.3M332.8 139.3l4.3-4.3M332.8 143.6l4.3-4.3M332.8 147.9l4.3-4.3M332.8 152l4.3-4.3M332.8 156.3l4.3-4.3M332.8 160.6l4.3-4.3M333.5 164l3.6-3.4"/><path class="cls-18" d="M336.9 164V57.2M332.5 136.6V57.2M332.5 164v-23.3M336.9 57.2h-4.4M332.5 136.6V57.2M336.9 164V57.2M332.5 164v-23.3"/><path class="cls-22" d="M336.9 236h-4.4v-46.8h4.4V236"/><path class="cls-16" d="M332.8 190.4l.9-1.2M332.8 194.7l4.3-4.3M332.8 198.8l4.3-4.3M332.8 203.1l4.3-4.3M332.8 207.4l4.3-4.3M332.8 211.5l4.3-4.3M332.8 215.8l4.3-4.3M332.8 220.2l4.3-4.4M332.8 224.2l4.3-4.3M332.8 228.6l4.3-4.4M332.8 232.9l4.3-4.3M333.7 236l3.4-3.1"/><path class="cls-22" d="M332.5 236h4.4v-46.8h-4.4V236"/><path class="cls-16" d="M332.8 190.4l.9-1.2M332.8 194.7l4.3-4.3M332.8 198.8l4.3-4.3M332.8 203.1l4.3-4.3M332.8 207.4l4.3-4.3M332.8 211.5l4.3-4.3M332.8 215.8l4.3-4.3M332.8 220.2l4.3-4.4M332.8 224.2l4.3-4.3M332.8 228.6l4.3-4.4M332.8 232.9l4.3-4.3M333.7 236l3.4-3.1"/><path class="cls-18" d="M336.9 210.6v-21.4M336.9 236v-21.1M332.5 236v-46.8M332.5 236v-46.8M336.9 210.6v-21.4M336.9 236v-21.1"/><path class="cls-22" d="M332.5 261.2v23.3h4.4v-23.3h-4.4"/><path class="cls-16" d="M332.8 262.6l1.2-1.4M332.8 267l4.3-4.4M332.8 271l4.3-4.3M332.8 275.4l4.3-4.4M332.8 279.7l4.3-4.3M332.8 283.8l4.3-4.4M336.4 284.5l.7-.7"/><path class="cls-22" d="M332.5 261.2v23.3h4.4v-23.3h-4.4"/><path class="cls-16" d="M332.8 262.6l1.2-1.4M332.8 267l4.3-4.4M332.8 271l4.3-4.3M332.8 275.4l4.3-4.4M332.8 279.7l4.3-4.3M332.8 283.8l4.3-4.4M336.4 284.5l.7-.7"/><path class="cls-18" d="M336.9 284.5v-23.3M332.5 284.5v-23.3M332.5 284.5v-23.3M336.9 284.5v-23.3"/><path class="cls-1" d="M336.9 261.2V236M332.5 261.2V236"/><path class="cls-17" d="M336.9 260h-4.4M336.9 237.2h-4.4"/><path class="cls-18" d="M336.9 261.2h-4.4M336.9 236h-4.4"/><path class="cls-16" d="M336.8 260c6 0 11.8-2.4 16-6.6 4.3-4.3 6.6-10 6.6-16M336.9 237.2h22.5"/><path class="cls-1" d="M336.9 189.2V164M332.5 189.2V164"/><path class="cls-17" d="M336.9 188h-4.4M336.9 165.2h-4.4"/><path class="cls-18" d="M336.9 189.2h-4.4M336.9 164h-4.4"/><path class="cls-16" d="M359.4 188c0-12.4-10.2-22.7-22.7-22.7M336.9 188h22.5"/><path class="cls-22" d="M331.8 288.6l5.1-4.1h-9.4v4.1h4.3"/><path class="cls-16" d="M327.7 284.7v-.2M328 288.6l4.1-4.1M333.3 287.4l3.1-2.9"/><path class="cls-22" d="M331.8 288.6l5.1-4.1h-9.4v4.1h4.3"/><path class="cls-16" d="M327.7 284.7v-.2M328 288.6l4.1-4.1M333.3 287.4l3.1-2.9"/><path class="cls-18" d="M327.5 288.6h4.3M327.5 284.5h5M327.5 284.5h5M327.5 288.6h4.3"/><path class="cls-22" d="M274.2 288.6v-4.1h28.1v4.1h-28.1"/><path class="cls-16" d="M274.5 286.9l2.4-2.4M276.9 288.6l4-4.1M281.2 288.6l4.1-4.1M285.5 288.6l4.1-4.1M289.8 288.6l4.1-4.1M293.9 288.6l4.1-4.1M298.2 288.6l4.1-4.1"/><path class="cls-22" d="M274.2 284.5v4.1h28.1v-4.1h-28.1"/><path class="cls-16" d="M274.5 286.9l2.4-2.4M276.9 288.6l4-4.1M281.2 288.6l4.1-4.1M285.5 288.6l4.1-4.1M289.8 288.6l4.1-4.1M293.9 288.6l4.1-4.1M298.2 288.6l4.1-4.1"/><path class="cls-18" d="M274.2 288.6h28.1M274.2 284.5h28.1M274.2 284.5h28.1M274.2 288.6h28.1M274.2 288.6v-4.1"/><path class="cls-1" d="M302.3 288.6h25.2M302.3 284.5h25.2"/><path class="cls-17" d="M303.5 288.6v-4.1M326.3 288.6v-4.1"/><path class="cls-18" d="M302.3 288.6v-4.1M327.5 288.6v-4.1"/><path class="cls-16" d="M303.6 288.6c0 12.4 10.2 22.7 22.7 22.7M326.3 288.6v22.8"/><path class="cls-22" d="M336.9 210.6v4.3h85.4v-4.3h-85.4"/><path class="cls-16" d="M337.1 211.5l1-.9M337.8 214.9l4.3-4.3M342.1 214.9l4.4-4.3M346.5 214.9l4.3-4.3M350.5 214.9l4.4-4.3M354.9 214.9l4.3-4.3M359.2 214.9l4.3-4.3M363.5 214.9l4.3-4.3M367.6 214.9l4.3-4.3M371.9 214.9l4.3-4.3M376.2 214.9l4.3-4.3M380.3 214.9l4.3-4.3M384.6 214.9l4.3-4.3M388.9 214.9l4.4-4.3M393 214.9l4.3-4.3M397.3 214.9l4.4-4.3M401.7 214.9l4.3-4.3M406 214.9l4.3-4.3M410.1 214.9l4.3-4.3M414.4 214.9l4.3-4.3M418.7 214.9l3.8-3.9"/><path class="cls-22" d="M336.9 210.6v4.3h85.4v-4.3h-85.4"/><path class="cls-16" d="M337.1 211.5l1-.9M337.8 214.9l4.3-4.3M342.1 214.9l4.4-4.3M346.5 214.9l4.3-4.3M350.5 214.9l4.4-4.3M354.9 214.9l4.3-4.3M359.2 214.9l4.3-4.3M363.5 214.9l4.3-4.3M367.6 214.9l4.3-4.3M371.9 214.9l4.3-4.3M376.2 214.9l4.3-4.3M380.3 214.9l4.3-4.3M384.6 214.9l4.3-4.3M388.9 214.9l4.4-4.3M393 214.9l4.3-4.3M397.3 214.9l4.4-4.3M401.7 214.9l4.3-4.3M406 214.9l4.3-4.3M410.1 214.9l4.3-4.3M414.4 214.9l4.3-4.3M418.7 214.9l3.8-3.9"/><path class="cls-18" d="M422.3 210.6h-85.4M422.3 214.9h-85.4M422.3 214.9h-85.4M422.3 210.6h-85.4M422.3 214.9v-4.3"/><path class="cls-22" d="M332.5 140.7v-4.1h-27.3v4.1h27.3"/><path class="cls-16" d="M305.4 136.9l.3-.3M305.9 140.7l4.1-4.1M310 140.7l4.1-4.1M314.3 140.7l4.1-4.1M318.6 140.7l4.1-4.1M322.7 140.7l4.1-4.1M327 140.7l4.1-4.1M331.3 140.7l1.5-1.4"/><path class="cls-22" d="M332.5 140.7v-4.1h-27.3v4.1h27.3"/><path class="cls-16" d="M305.4 136.9l.3-.3M305.9 140.7l4.1-4.1M310 140.7l4.1-4.1M314.3 140.7l4.1-4.1M318.6 140.7l4.1-4.1M322.7 140.7l4.1-4.1M327 140.7l4.1-4.1M331.3 140.7l1.5-1.4"/><path class="cls-18" d="M305.2 140.7h27.3M305.2 136.6h27.3M305.2 136.6h27.3M305.2 140.7h27.3"/><path class="cls-22" d="M260.1 136.6h-27.2v4.1h27.2v-4.1"/><path class="cls-16" d="M233.2 136.9l.2-.3M233.7 140.7l4-4.1M237.7 140.7l4.1-4.1M242.1 140.7l4-4.1M246.4 140.7l4.1-4.1M250.5 140.7l4-4.1M254.8 140.7l4.1-4.1M259.1 140.7l1.2-1.2"/><path class="cls-22" d="M260.1 136.6h-27.2v4.1h27.2v-4.1"/><path class="cls-16" d="M233.2 136.9l.2-.3M233.7 140.7l4-4.1M237.7 140.7l4.1-4.1M242.1 140.7l4-4.1M246.4 140.7l4.1-4.1M250.5 140.7l4-4.1M254.8 140.7l4.1-4.1M259.1 140.7l1.2-1.2"/><path class="cls-18" d="M232.9 140.7h27.2M232.9 136.6h27.2M232.9 136.6h27.2M232.9 140.7h27.2M232.9 136.6v4.1"/><path class="cls-17" d="M261.3 140.7v-4.1M304 140.7v-4.1"/><path class="cls-18" d="M260.1 140.7v-4.1M305.2 140.7v-4.1"/><path class="cls-16" d="M261.4 162c11.7 0 21.3-9.6 21.3-21.3M282.6 140.8c0 11.7 9.6 21.3 21.3 21.3M261.3 140.7v21.4M304 140.7v21.4"/><path class="cls-17" d="M313.6 67h.7v17h-.7zM314.3 67h15.4v.5h-15.4zM314.3 83.4h15.4v.7h-15.4zM313.6 57.2h.7v1.2h-.7zM329.7 67h.5v17h-.5zM313.6 84.1h.7v16.8h-.7z"/><path class="cls-17" d="M314.3 84.1h15.4v.5h-15.4zM314.3 100.4h15.4v.5h-15.4zM329.7 84.1h.5v16.8h-.5zM313.6 100.9h.7v17h-.7zM314.3 100.9h15.4v.7h-15.4zM314.3 117.4h15.4v.5h-15.4zM329.7 100.9h.5v17h-.5zM313.6 117.9h.7v17h-.7zM314.3 117.9h15.4v.7h-15.4zM314.3 134.5h15.4v.5h-15.4zM329.7 117.9h.5v17h-.5zM313.6 135h.7v1.2h-.7zM313.6 58.4h.7V67h-.7zM314.3 58.4h15.4v.7h-15.4zM314.3 66.3h15.4v.7h-15.4zM329.7 58.4h.5V67h-.5z"/><path class="cls-21" d="M329.7 123.2h2.4v9.8h-2.4z"/><path class="cls-17" d="M329.7 123.2h2.4v9.8h-2.4z"/><path class="cls-21" d="M329.4 122.7h.2v10.6h-.2z"/><path class="cls-17" d="M329.4 122.7h.2v10.6h-.2z"/><path class="cls-19" d="M329.4 132.3h-8.6"/><path class="cls-3" d="M320.8 132.3l.2-1.7.5-1.6.7-1.5 1.2-1.2 1.2-1.2 1.5-.7 1.6-.5 1.7-.2"/><path class="cls-17" d="M339.3 42.6l-8.7-40.8h-96.9l-8.4 40.8"/><path class="cls-17" d="M340.9 42.6L332.1 0h-99.9l-8.6 42.6"/><path class="cls-22" d="M225.7 284.5l2.2 2.4 2.4-3.4-4.6 1"/><path class="cls-16" d="M229.6 284.7l-1-.7M226.7 285.4l1.7-1.4M385.4 52.2v1.9c0 .6.2 1.2.3 1.8.1.6.3 1.2.5 1.8l.6 1.8c.2.6.5 1.1.8 1.7.3.5.6 1.1 1 1.6s.7 1 1.1 1.5c.4.5.8.9 1.3 1.4.4.4.9.9 1.4 1.3.5.4 1 .8 1.5 1.1.5.3 1.1.7 1.6 1 .5.3 1.1.6 1.7.8l1.8.6c.6.2 1.2.3 1.8.5l1.8.3h1.9M404.3 71.1V52.2M385.3 52.2v1.4M385.3 55l-.2 1M385.1 56l-.2.5"/><path class="cls-10" d="M384.6 57.7l-.7 1.9"/><path class="cls-16" d="M383.7 60.3l-.5 1M383.2 61.3l-.3.2"/><path class="cls-6" d="M382.2 62.7l-1.2 1.5"/><path class="cls-16" d="M380.3 65.1l-.5.5M379.8 65.6l-.5.5"/><path class="cls-11" d="M378.4 66.8l-1.5 1.2"/><path class="cls-16" d="M376 68.5l-.7.5M375.3 69l-.5.2"/><path class="cls-15" d="M373.6 69.7l-1.7.7"/><path class="cls-16" d="M370.7 70.6l-.5.3M370.2 70.9h-.9"/><path class="cls-9" d="M368.3 71.1h-1.9"/><path class="cls-5" d="M366.4 71.1V52.2"/><path class="cls-16" d="M366.4 52.6v-.4M381.7 373v-1.9c0-.6.2-1.2.3-1.8.1-.6.3-1.2.5-1.8l.6-1.8c.2-.6.5-1.1.8-1.7.3-.5.6-1.1 1-1.6.3-.5.7-1 1.1-1.5.4-.5.8-.9 1.3-1.4.4-.4.9-.9 1.4-1.3.5-.4 1-.8 1.5-1.1.5-.3 1-.7 1.6-1 .5-.3 1.1-.6 1.7-.8l1.8-.6c.6-.2 1.2-.3 1.8-.5l1.8-.3h1.9M400.7 354.1V373M381.7 373l-.2-1.4M381.5 370.2l-.2-1M381.3 369.2l-.3-.5"/><path class="cls-10" d="M380.8 367.5l-.5-1.7"/><path class="cls-16" d="M379.6 364.6l-.3-.7M379.3 363.9l-.4-.5M378.1 362.2l-.7-1.2"/><path class="cls-12" d="M377.4 361l-1.2-1.4"/><path class="cls-16" d="M376.2 359.6l-.9-.7M374.3 357.9l-1-.7"/><path class="cls-20" d="M373.3 357.2l-1.6-1"/><path class="cls-16" d="M371.7 356.2l-1-.4M369.3 355.3l-1-.5"/><path class="cls-8" d="M368.3 354.8l-1.9-.5"/><path class="cls-16" d="M366.4 354.3l-1.2-.2M363.7 354.1h-.9"/><path class="cls-5" d="M362.8 354.1V373"/><path class="cls-16" d="M362.8 372.6v.4M292.1 52.2c0 11 9.1 20.1 20.1 20.1M312.1 72.3V52.2"/><path class="cls-5" d="M292.2 52.2l-.5 4-1.2 3.6-1.9 3.6-2.4 3.2-3.1 2.4-3.4 1.9-3.8.9-3.8.5"/><path class="cls-13" d="M272.1 72.3V52.2"/><path class="cls-22" d="M274.2 373l-6.9-5H238v5h36.2"/><path class="cls-16" d="M273.7 373l-1.4-1.4M269.7 373l-5.1-5M265.8 373l-5-5M261.7 373l-5-5M257.7 373l-5.1-5M253.8 373l-5-5M249.7 373l-5-5M245.7 373l-5.1-5M241.6 373l-3.4-3.6M271.6 373l1.2-1.2M267.5 373l2.9-2.8M263.7 373l4.5-4.5M259.6 373l5-5M255.5 373l5-5M251.7 373l5-5M247.6 373l5-5M243.5 373l5-5M239.7 373l5-5M238.2 370.4l2.4-2.4"/><path class="cls-22" d="M274.2 373l-6.9-5H238v5h36.2"/><path class="cls-16" d="M273.7 373l-1.4-1.4M269.7 373l-5.1-5M265.8 373l-5-5M261.7 373l-5-5M257.7 373l-5.1-5M253.8 373l-5-5M249.7 373l-5-5M245.7 373l-5.1-5M241.6 373l-3.4-3.6M271.6 373l1.2-1.2M267.5 373l2.9-2.8M263.7 373l4.5-4.5M259.6 373l5-5M255.5 373l5-5M251.7 373l5-5M247.6 373l5-5M243.5 373l5-5M239.7 373l5-5M238.2 370.4l2.4-2.4"/><path class="cls-18" d="M238 373h36.2M238 368h29.3M238 368h29.3M238 373h36.2M238 368"/><path class="cls-17" d="M297 214.2v1.2M297 215.4l-.2 1.4M296.5 218.2l-.2.3M295.8 219.9l-.5.7M295.3 220.6l-.7 1.2M294.6 221.8l-.2.5M293.7 223.5h-.3M292.5 224.7l-.5.3M292 225l-1.2.9M290.8 225.9l-.7.5M288.9 226.9l-.3.2M287.2 227.6h-.3M286.9 227.6l-1.2.5M285.7 228.1h-1.2M283.1 228.3h-.2M281.4 228.1h-1.2M280.2 228.1l-1.4-.5M278.8 227.6h-.3M277.3 227.1l-.2-.2M275.7 226.4l-.8-.5M274.9 225.9l-.9-.9M274 225l-.5-.3M272.5 223.5h-.2M271.3 222.3l-.2-.5M271.1 221.8l-.7-1.2M270.4 220.6l-.5-.7M269.4 218.5v-.3M268.9 216.8l-.2-1.4M268.7 215.4v-1.2M268.7 212.7l.2-.2M269.2 211l.2-.9M269.4 210.1l.5-1.5M269.9 208.6v-.2M270.6 207l.3-.3M271.6 205.5l.5-.5M272.1 205l.7-.9M272.8 204.1l.7-.5M274.5 202.6l.2-.2M275.9 201.7h.2M276.1 201.7l1.5-.7M277.6 201l.9-.5M280 200.2h.2M281.7 200h1.2M282.9 200h1.4M284.3 200h.2M285.7 200.2h.5M287.4 200.7l1 .3M288.4 201l1.2.7M289.6 201.7l.5.2M291.3 202.6l.2.3M292.5 203.6l.4.5M292.9 204.1l1 .9M293.9 205l.5.8M295.1 207l.2.2M296.1 208.6l.4 1.5M296.5 210.1l.3 1.2M297 212.7v.3"/><path class="cls-16" d="M261.6 238.1h8.6"/></g><g id="Mbel"><path class="cls-2" d="M271.6 188.5h22.6v51.1h-22.6zM261.6 189.9v12.7M270.2 189.9h-8.6M261.6 202.6h8.6M261.6 207.6v12.7M270.2 207.6h-8.6M261.6 220.3h8.6M261.6 225.3v12.8M270.2 225.3h-8.6M304.2 189.9v12.7M295.7 189.9h8.5M304.2 202.6h-8.5M304.2 207.6v12.7M295.7 207.6h8.5M304.2 220.3h-8.5M304.2 225.3v12.8M295.7 225.3h8.5M304.2 238.1h-8.5M364.2 287.8h56.6v45.4h-56.6zM338.3 216.1h56.6v15.6h-56.6zM400.6 260.1c3.8-1.3 7.4-2.9 11-4.8.8-.4 1.3-1.4 1.3-2.3-.3-3.2-1.4-6.3-3.4-8.9-.6-.8-1.5-1.1-2.5-.9-3.9.9-7.7 2.2-11.4 3.7 0 .8.2 1.5.5 2.1 1 3.1 2.2 6.2 3.5 9.2.3.6.6 1.2 1 1.8h.1"/><path class="cls-2" d="M401.8 260.2c.3.2.6.3 1 .3 1.5.2 3.1 0 4.5-.6 1.9-.8 3.7-1.7 5.4-2.9 1.2-.8 2.4-1.8 3.3-2.8.6-.6.8-1.5.7-2.3-.4-3.4-1.7-6.6-3.6-9.4-.5-.7-1.2-1.2-2.1-1.3-1.5-.2-2.9-.1-4.4 0-2 .3-4 .8-6 1.5-1.4.5-2.7 1.4-3.8 2.5-.2.3-.4.6-.5.9M392.5 152.2h28.3v56.6h-28.3zM358.7 98h7.4v11.3h-7.4zM338.8 81h19.9v45.4h-19.9zM405.3 60.1h15.6v56.6h-15.6z"/></g><g id="Text"><path d="M363.2 267.6v.6h-3.8l3-4.8h-2.7v-.6h3.8l-3 4.8h2.7zM365.1 263.5c0 .2-.2.4-.4.4s-.4-.2-.4-.4.2-.4.4-.4.4.2.4.4zm0 4.7h-.6v-3.7h.6v3.7zM366.9 264.5v.5c.3-.4.6-.6 1-.6s.8.2 1 .7c.3-.5.6-.7 1.2-.7s.7.1.9.4c.2.2.2.4.2 1v2.4h-.6V266c0-.4 0-.6-.1-.7-.1-.2-.4-.3-.6-.3-.5 0-.8.4-.8 1v2.2h-.6V266c0-.4 0-.5-.1-.7-.1-.2-.3-.3-.6-.3-.5 0-.9.4-.9 1v2.2h-.6v-3.7h.6zM373.3 264.5v.5c.3-.4.6-.6 1-.6s.8.2 1 .7c.3-.5.6-.7 1.2-.7s.7.1.9.4c.2.2.2.4.2 1v2.4h-.6V266c0-.4 0-.6-.1-.7-.1-.2-.4-.3-.6-.3-.5 0-.8.4-.8 1v2.2h-.6V266c0-.4 0-.5-.1-.7-.1-.2-.3-.3-.6-.3-.5 0-.9.4-.9 1v2.2h-.6v-3.7h.6zM379.4 266.6c0 .3 0 .5.2.7.2.3.6.5 1 .5s.9-.2 1.1-.6l.5.2c-.3.6-.9 1-1.6 1-1.1 0-1.9-.8-1.9-1.9s.8-1.9 1.9-1.9 1.9.8 1.9 1.9v.2h-3.1zm2.4-.4c0-.3 0-.4-.2-.6-.2-.3-.6-.5-1-.5s-.8.2-1 .5c-.1.2-.2.3-.2.6h2.4zM384.1 264.5v.6c.1-.3.2-.4.3-.5.2-.1.4-.2.7-.2h.1v.6h-.2c-.3 0-.6.2-.8.4-.2.2-.2.4-.2.9v1.9h-.6v-3.7h.6zM360.2 273.6v-.6l1.8-1.2v5.4h-.6v-4.4l-1.2.8zM364.8 274.1c.2 0 .3-.1.5-.1.9 0 1.6.7 1.6 1.6s-.8 1.7-1.7 1.7-1.7-.8-1.7-1.7.1-.7.4-1.2l1.5-2.5h.7l-1.4 2.1zm-.7 1.5c0 .6.5 1.1 1.1 1.1s1.1-.5 1.1-1.1-.5-1.1-1.1-1.1-1.1.5-1.1 1.1zM368.7 276.9c0 .2-.2.4-.4.4s-.4-.2-.4-.4.2-.4.4-.4.4.2.4.4zM369.6 276v-.5l2.8-3.7v3.6h.6v.6h-.6v1.2h-.6V276h-2.1zm2.1-2.6l-1.5 2h1.5v-2zM376.2 273.5v.5c.3-.4.6-.6 1-.6s.8.2 1 .7c.3-.5.6-.7 1.2-.7s.7.1.9.4c.2.2.2.4.2 1v2.4h-.6V275c0-.4 0-.6-.1-.7-.1-.2-.4-.3-.6-.3-.5 0-.8.4-.8 1v2.2h-.6V275c0-.4 0-.5-.1-.7-.1-.2-.3-.3-.6-.3-.5 0-.9.4-.9 1v2.2h-.6v-3.7h.6zM383.8 274.7v.4h-2l1.2-1.6c.3-.5.4-.6.4-.8 0-.3-.2-.4-.5-.4s-.5.2-.5.6h-.4c0-.6.4-1 1-1s1 .3 1 .8-.1.5-.4.9l-.8 1.1h1.1z"/><g><path d="M363.2 148v.6h-3.8l3-4.8h-2.7v-.6h3.8l-3 4.8h2.7zM365.1 143.9c0 .2-.2.4-.4.4s-.4-.2-.4-.4.2-.4.4-.4.4.2.4.4zm0 4.7h-.6v-3.7h.6v3.7zM366.9 144.9v.5c.3-.4.6-.6 1-.6s.8.2 1 .7c.3-.5.6-.7 1.2-.7s.7.1.9.4c.2.2.2.4.2 1v2.4h-.6v-2.2c0-.4 0-.6-.1-.7-.1-.2-.4-.3-.6-.3-.5 0-.8.4-.8 1v2.2h-.6v-2.2c0-.4 0-.5-.1-.7-.1-.2-.3-.3-.6-.3-.5 0-.9.4-.9 1v2.2h-.6v-3.7h.6zM373.3 144.9v.5c.3-.4.6-.6 1-.6s.8.2 1 .7c.3-.5.6-.7 1.2-.7s.7.1.9.4c.2.2.2.4.2 1v2.4h-.6v-2.2c0-.4 0-.6-.1-.7-.1-.2-.4-.3-.6-.3-.5 0-.8.4-.8 1v2.2h-.6v-2.2c0-.4 0-.5-.1-.7-.1-.2-.3-.3-.6-.3-.5 0-.9.4-.9 1v2.2h-.6v-3.7h.6zM379.4 147c0 .3 0 .5.2.7.2.3.6.5 1 .5s.9-.2 1.1-.6l.5.2c-.3.6-.9 1-1.6 1-1.1 0-1.9-.8-1.9-1.9s.8-1.9 1.9-1.9 1.9.8 1.9 1.9v.2h-3.1zm2.4-.4c0-.3 0-.4-.2-.6-.2-.3-.6-.5-1-.5s-.8.2-1 .5c-.1.2-.2.3-.2.6h2.4zM384.1 144.9v.6c.1-.3.2-.4.3-.5.2-.1.4-.2.7-.2h.1v.6h-.2c-.3 0-.6.2-.8.4-.2.2-.2.4-.2.9v1.9h-.6v-3.7h.6zM360.2 154v-.6l1.8-1.2v5.4h-.6v-4.4l-1.2.8zM364.8 154.5c.2 0 .3-.1.5-.1.9 0 1.6.7 1.6 1.6s-.8 1.7-1.7 1.7-1.7-.8-1.7-1.7.1-.7.4-1.2l1.5-2.5h.7l-1.4 2.1zm-.7 1.5c0 .6.5 1.1 1.1 1.1s1.1-.5 1.1-1.1-.5-1.1-1.1-1.1-1.1.5-1.1 1.1zM368.7 157.3c0 .2-.2.4-.4.4s-.4-.2-.4-.4.2-.4.4-.4.4.2.4.4zM369.6 156.4v-.5l2.8-3.7v3.6h.6v.6h-.6v1.2h-.6v-1.2h-2.1zm2.1-2.6l-1.5 2h1.5v-2zM376.2 153.9v.5c.3-.4.6-.6 1-.6s.8.2 1 .7c.3-.5.6-.7 1.2-.7s.7.1.9.4c.2.2.2.4.2 1v2.4h-.6v-2.2c0-.4 0-.6-.1-.7-.1-.2-.4-.3-.6-.3-.5 0-.8.4-.8 1v2.2h-.6v-2.2c0-.4 0-.5-.1-.7-.1-.2-.3-.3-.6-.3-.5 0-.9.4-.9 1v2.2h-.6v-3.7h.6zM383.8 155.1v.4h-2l1.2-1.6c.3-.5.4-.6.4-.8 0-.3-.2-.4-.5-.4s-.5.2-.5.6h-.4c0-.6.4-1 1-1s1 .3 1 .8-.1.5-.4.9l-.8 1.1h1.1z"/></g><g><path d="M271.4 92.9h-.7v-5.3h.7v2.5l2.1-2.5h.8l-2.2 2.6 2.2 2.7h-.9l-2-2.5v2.5zM278.5 91.1c0 1.1-.8 1.9-1.9 1.9s-1.9-.8-1.9-1.9.8-1.9 1.9-1.9 1.9.8 1.9 1.9zm-3.1 0c0 .8.5 1.4 1.3 1.4s1.2-.6 1.2-1.4-.5-1.4-1.2-1.4-1.3.6-1.3 1.4zM282.5 92.5c-.4.4-.8.5-1.4.5-1.1 0-1.8-.8-1.8-1.9s.8-1.9 1.8-1.9 1 .2 1.3.6l-.4.4c-.3-.3-.6-.4-.9-.4-.7 0-1.2.6-1.2 1.4s.5 1.4 1.2 1.4.6-.1.9-.4l.4.4zM284 89.7c.3-.4.7-.6 1.1-.6s.7.1.9.3c.2.2.3.5.3 1v2.5h-.6v-2.4c0-.5-.2-.8-.7-.8s-.5.1-.7.3c-.2.2-.2.4-.2.7v2.2h-.6v-5.3h.6v2.2zM288 91.3c0 .3 0 .5.2.7.2.3.6.5 1 .5s.9-.2 1.1-.6l.5.2c-.3.6-.9 1-1.6 1-1.1 0-1.9-.8-1.9-1.9s.8-1.9 1.9-1.9 1.9.8 1.9 1.9v.2H288zm2.4-.4c0-.3 0-.4-.2-.6-.2-.3-.6-.5-1-.5s-.8.2-1 .5c-.1.2-.2.3-.2.6h2.4zM292.8 89.2v.5c.3-.4.6-.6 1.1-.6s.6.1.9.3c.2.2.3.5.3 1v2.5h-.6v-2.4c0-.3 0-.5-.1-.6-.1-.2-.3-.2-.6-.2s-.5.1-.7.3c-.2.2-.2.4-.2.7v2.2h-.6v-3.7h.6zM271 98.3v-.6l1.8-1.2v5.4h-.6v-4.4l-1.2.8zM277.7 100.3c0 .6-.1 1-.4 1.2-.3.3-.7.4-1.2.4s-1-.2-1.2-.5c-.3-.3-.4-.6-.4-1.4v-1.8c0-.7 0-1 .3-1.3.3-.3.7-.5 1.2-.5s.9.1 1.2.4c.3.3.4.6.4 1.2v2.1zm-2.5-.1c0 .6 0 .7.2.9.2.2.5.3.8.3s.6-.1.8-.4c.1-.2.2-.4.2-.8v-2c0-.4 0-.6-.3-.8-.2-.2-.4-.2-.7-.2s-.6.1-.8.4c-.1.2-.2.4-.2.8v1.8zM279.6 101.6c0 .2-.2.4-.4.4s-.4-.2-.4-.4.2-.4.4-.4.4.2.4.4zM283.9 100.3c0 .6-.1 1-.4 1.2-.3.3-.7.4-1.2.4s-1-.2-1.2-.5c-.3-.3-.4-.6-.4-1.4v-1.8c0-.7 0-1 .3-1.3.3-.3.7-.5 1.2-.5s.9.1 1.2.4c.3.3.4.6.4 1.2v2.1zm-2.5-.1c0 .6 0 .7.2.9.2.2.5.3.8.3s.6-.1.8-.4c.1-.2.2-.4.2-.8v-2c0-.4 0-.6-.3-.8-.2-.2-.4-.2-.7-.2s-.6.1-.8.4c-.1.2-.2.4-.2.8v1.8zM288.1 98.2v.5c.3-.4.6-.6 1-.6s.8.2 1 .7c.3-.5.6-.7 1.2-.7s.7.1.9.4c.2.2.2.4.2 1v2.4h-.6v-2.2c0-.4 0-.6-.1-.7-.1-.2-.4-.3-.6-.3-.5 0-.8.4-.8 1v2.2h-.6v-2.2c0-.4 0-.5-.1-.7-.1-.2-.3-.3-.6-.3-.5 0-.9.4-.9 1v2.2h-.6v-3.7h.6zM295.7 99.4v.4h-2l1.2-1.6c.3-.5.4-.6.4-.8 0-.3-.2-.4-.5-.4s-.5.2-.5.6h-.4c0-.6.4-1 1-1s1 .3 1 .8-.1.5-.4.9l-.8 1.1h1.1z"/></g><g><path d="M238.3 14c1.1 0 1.7.5 1.7 1.4s-.1.6-.3.9c-.1.2-.3.2-.5.3.3 0 .4.1.6.2.3.2.4.6.4 1s-.2.9-.6 1.2c-.3.2-.7.3-1.3.3h-1.5V14h1.5zm-.8 2.4h.7c.4 0 .7 0 .9-.2.2-.2.3-.4.3-.7s-.2-.6-.4-.8c-.2 0-.4-.1-.9-.1h-.6v1.8zm0 2.4h.7c.6 0 .8 0 1-.2.3-.1.4-.4.4-.8 0-.6-.4-.9-1.2-.9h-.8v1.8zM244.2 15.6h.6v3.7h-.6v-.7c-.4.6-.8.8-1.3.8-1 0-1.7-.8-1.7-1.9s.7-1.9 1.8-1.9 1 .2 1.3.7v-.6zm-2.1.9c-.2.3-.3.6-.3 1 0 .8.5 1.4 1.2 1.4s1.3-.6 1.3-1.4-.5-1.4-1.2-1.4-.7.1-.9.4zM246.1 19.3V14h.6v5.3h-.6zM248.7 19.3h-.6V14h.6v3.3l1.5-1.6h.8l-1.6 1.8 1.6 1.9h-.8l-1.5-1.6v1.6zM255.1 17.5c0 1.1-.8 1.9-1.9 1.9s-1.9-.8-1.9-1.9.8-1.9 1.9-1.9 1.9.8 1.9 1.9zm-3.1 0c0 .8.5 1.4 1.3 1.4s1.2-.6 1.2-1.4-.5-1.4-1.2-1.4-1.3.6-1.3 1.4zM256.8 15.6v.5c.3-.4.6-.6 1.1-.6s.6.1.9.3c.2.2.3.5.3 1v2.5h-.6v-2.4c0-.3 0-.5-.1-.6-.1-.2-.3-.2-.6-.2s-.5.1-.7.3c-.2.2-.2.4-.2.7v2.2h-.6v-3.7h.6zM239.1 23.6h-1.7V25c.3-.1.5-.2.8-.2.9 0 1.6.7 1.6 1.7s-.8 1.8-1.8 1.8-1.3-.4-1.6-1.1l.6-.2c.1.2.2.3.3.4.2.2.5.3.8.3.6 0 1.1-.5 1.1-1.2s-.5-1.1-1.2-1.1-.8.2-1.2.5v-3h2.3v.6zM241.6 28c0 .2-.2.4-.4.4s-.4-.2-.4-.4.2-.4.4-.4.4.2.4.4zM245.9 26.7c0 .6-.1 1-.4 1.2-.3.3-.7.4-1.2.4s-1-.2-1.2-.5c-.3-.3-.4-.6-.4-1.4v-1.8c0-.7 0-1 .3-1.3.3-.3.7-.5 1.2-.5s.9.1 1.2.4c.3.3.4.6.4 1.2v2.1zm-2.5-.1c0 .6 0 .7.2.9.2.2.5.3.8.3s.6-.1.8-.4c.1-.2.2-.4.2-.8v-2c0-.4 0-.6-.3-.8-.2-.2-.4-.2-.7-.2s-.6.1-.8.4c-.1.2-.2.4-.2.8v1.8zM250.1 24.6v.5c.3-.4.6-.6 1-.6s.8.2 1 .7c.3-.5.6-.7 1.2-.7s.7.1.9.4c.2.2.2.4.2 1v2.4h-.6v-2.2c0-.4 0-.6-.1-.7-.1-.2-.4-.3-.6-.3-.5 0-.8.4-.8 1v2.2h-.6v-2.2c0-.4 0-.5-.1-.7-.1-.2-.3-.3-.6-.3-.5 0-.9.4-.9 1v2.2h-.6v-3.7h.6zM257.7 25.8v.4h-2l1.2-1.6c.3-.5.4-.6.4-.8 0-.3-.2-.4-.5-.4s-.5.2-.5.6h-.4c0-.6.4-1 1-1s1 .3 1 .8-.1.5-.4.9l-.8 1.1h1.1z"/></g><g><path d="M305.7 319.5c1.1 0 1.7.5 1.7 1.4s-.1.6-.3.9c-.1.2-.3.2-.5.3.3 0 .4.1.6.2.3.2.4.6.4 1s-.2.9-.6 1.2c-.3.2-.7.3-1.3.3h-1.5v-5.3h1.5zm-.8 2.4h.7c.4 0 .7 0 .9-.2.2-.2.3-.4.3-.7s-.2-.6-.4-.8c-.2 0-.4-.1-.9-.1h-.6v1.8zm0 2.4h.7c.6 0 .8 0 1-.2.3-.1.4-.4.4-.8 0-.6-.4-.9-1.2-.9h-.8v1.8zM311.6 321.2h.6v3.7h-.6v-.7c-.4.6-.8.8-1.3.8-1 0-1.7-.8-1.7-1.9s.7-1.9 1.8-1.9 1 .2 1.3.7v-.6zm-2.1.9c-.2.3-.3.6-.3 1 0 .8.5 1.4 1.2 1.4s1.3-.6 1.3-1.4-.5-1.4-1.2-1.4-.7.1-.9.4zM316.3 319.5h.6v5.3h-.6v-.6c-.4.5-.8.7-1.3.7-1 0-1.7-.8-1.7-1.9s.7-2 1.7-2 1 .2 1.3.6v-2.2zm-2.4 3.5c0 .8.5 1.4 1.2 1.4s1.2-.6 1.2-1.4-.5-1.4-1.2-1.4-1.2.6-1.2 1.4zM303.8 332.7v-.5l2.8-3.7v3.6h.6v.6h-.6v1.2h-.6v-1.2h-2.1zm2.1-2.6l-1.5 2h1.5v-2zM309 333.5c0 .2-.2.4-.4.4s-.4-.2-.4-.4.2-.4.4-.4.4.2.4.4zM310.2 329.2v-.6h3l-2.1 5.3h-.7l1.9-4.7h-2zM317.3 330.2v.5c.3-.4.6-.6 1-.6s.8.2 1 .7c.3-.5.6-.7 1.2-.7s.7.1.9.4c.2.2.2.4.2 1v2.4h-.6v-2.2c0-.4 0-.6-.1-.7-.1-.2-.4-.3-.6-.3-.5 0-.8.4-.8 1v2.2h-.6v-2.2c0-.4 0-.5-.1-.7-.1-.2-.3-.3-.6-.3-.5 0-.9.4-.9 1v2.2h-.6v-3.7h.6zM324.9 331.3v.4h-2l1.2-1.6c.3-.5.4-.6.4-.8 0-.3-.2-.4-.5-.4s-.5.2-.5.6h-.4c0-.6.4-1 1-1s1 .3 1 .8-.1.5-.4.9l-.8 1.1h1.1z"/></g><g><path d="M271.4 252.5h2.1v.6h-2.1v1.8h2.1v.6h-2.8v-5.3h2.8v.6h-2.1v1.8zM276.5 252.8c0-.4-.3-.6-.7-.6s-.7.2-.7.5.2.4.8.6c.5.1.7.2.9.4.2.2.3.4.3.7 0 .6-.5 1.1-1.3 1.1s-1.3-.4-1.4-1.1h.6c0 .4.3.6.8.6s.7-.2.7-.5-.2-.5-.8-.6c-.8-.2-1.2-.6-1.2-1.1s.5-1.1 1.3-1.1 1.3.4 1.3 1.1h-.6zM280 252.8c0-.4-.3-.6-.7-.6s-.7.2-.7.5.2.4.8.6c.5.1.7.2.9.4.2.2.3.4.3.7 0 .6-.5 1.1-1.3 1.1s-1.3-.4-1.4-1.1h.6c0 .4.3.6.8.6s.7-.2.7-.5-.2-.5-.8-.6c-.8-.2-1.2-.6-1.2-1.1s.5-1.1 1.3-1.1 1.3.4 1.3 1.1h-.6zM282.2 253.8c0 .3 0 .5.2.7.2.3.6.5 1 .5s.9-.2 1.1-.6l.5.2c-.3.6-.9 1-1.6 1-1.1 0-1.9-.8-1.9-1.9s.8-1.9 1.9-1.9 1.9.8 1.9 1.9v.2h-3.1zm2.4-.4c0-.3 0-.4-.2-.6-.2-.3-.6-.5-1-.5s-.8.2-1 .5c-.1.2-.2.3-.2.6h2.4zM286.9 251.8v.5c.3-.4.6-.6 1.1-.6s.6.1.9.3c.2.2.3.5.3 1v2.5h-.6v-2.4c0-.3 0-.5-.1-.6-.1-.2-.3-.2-.6-.2s-.5.1-.7.3c-.2.2-.2.4-.2.7v2.2h-.6v-3.7h.6zM271.1 260.9v-.6l1.8-1.2v5.4h-.6v-4.4l-1.2.8zM274.5 259.8v-.6h3l-2.1 5.3h-.7l1.9-4.7h-2zM278.6 264.1c0 .2-.2.4-.4.4s-.4-.2-.4-.4.2-.4.4-.4.4.2.4.4zM282.3 259.8h-1.7v1.4c.3-.1.5-.2.8-.2.9 0 1.6.7 1.6 1.7s-.8 1.8-1.8 1.8-1.3-.4-1.6-1.1l.6-.2c.1.2.2.3.3.4.2.2.5.3.8.3.6 0 1.1-.5 1.1-1.2s-.5-1.1-1.2-1.1-.8.2-1.2.5v-3h2.3v.6zM287.1 260.8v.5c.3-.4.6-.6 1-.6s.8.2 1 .7c.3-.5.6-.7 1.2-.7s.7.1.9.4c.2.2.2.4.2 1v2.4h-.6v-2.2c0-.4 0-.6-.1-.7-.1-.2-.4-.3-.6-.3-.5 0-.8.4-.8 1v2.2h-.6v-2.2c0-.4 0-.5-.1-.7-.1-.2-.3-.3-.6-.3-.5 0-.9.4-.9 1v2.2h-.6v-3.7h.6zM294.7 262v.4h-2l1.2-1.6c.3-.5.4-.6.4-.8 0-.3-.2-.4-.5-.4s-.5.2-.5.6h-.4c0-.6.4-1 1-1s1 .3 1 .8-.1.5-.4.9l-.8 1.1h1.1z"/></g><g><path d="M32.9 352.9v.6h-2.5v-5.3h.7v4.7H33zM34.6 348.8c0 .2-.2.4-.4.4s-.4-.2-.4-.4.2-.4.4-.4.4.2.4.4zm0 4.7H34v-3.7h.6v3.7zM36.6 353.5H36v-3.2h-.5v-.5h.5v-.5c0-.7.4-1.2 1-1.2h.2v.5c-.4 0-.6.2-.6.6v.5h.6v.5h-.6v3.2zM38.9 352.8c0 .2 0 .2.3.2h.3v.5h-.6c-.4 0-.6-.2-.6-.6v-2.6h-.5v-.5h.5v-1.2h.6v1.2h.6v.5h-.6v2.4z"/></g></g></svg>