<svg xmlns="http://www.w3.org/2000/svg" viewBox="0 0 440.1 361.2"><defs><style>.cls-1,.cls-10,.cls-11,.cls-12,.cls-13,.cls-14,.cls-15,.cls-16,.cls-17,.cls-18,.cls-19,.cls-2,.cls-20,.cls-21,.cls-3,.cls-4,.cls-5,.cls-6,.cls-7,.cls-8,.cls-9{fill:none;stroke-linecap:round;stroke-linejoin:round}.cls-1,.cls-10,.cls-11,.cls-12,.cls-13,.cls-14,.cls-15,.cls-16,.cls-17,.cls-18,.cls-19,.cls-2,.cls-21,.cls-3,.cls-4,.cls-5,.cls-7,.cls-8,.cls-9{stroke-width:.1px}.cls-1,.cls-17,.cls-19,.cls-20,.cls-3,.cls-8{stroke:#194164}.cls-1,.cls-8{stroke-dasharray:0 0 0 0 2.9 1.4 .2 1.4}.cls-2{stroke:#646464}.cls-3{stroke-dashoffset:1px}.cls-10,.cls-11,.cls-12,.cls-13,.cls-14,.cls-15,.cls-16,.cls-17,.cls-21,.cls-3,.cls-4,.cls-5,.cls-7,.cls-9{stroke-dasharray:0 0 1.4 1.4}.cls-4{stroke-dashoffset:2.5px}.cls-10,.cls-11,.cls-12,.cls-13,.cls-14,.cls-15,.cls-16,.cls-18,.cls-21,.cls-4,.cls-5,.cls-7,.cls-9{stroke:#969696}.cls-22,.cls-23{fill:#fff}.cls-6{stroke:#000;stroke-width:.3px}.cls-7{stroke-dashoffset:2.8px}.cls-8{stroke-dashoffset:1.7px}.cls-9{stroke-dashoffset:2.8px}.cls-10{stroke-dashoffset:1.1px}.cls-11{stroke-dashoffset:2.4px}.cls-12{stroke-dashoffset:2.7px}.cls-13{stroke-dashoffset:2.5px}.cls-14{stroke-dashoffset:2.6px}.cls-15{stroke-dashoffset:1.4px}.cls-16{stroke-dashoffset:.7px}.cls-23,.cls-24{fill-rule:evenodd}.cls-17{stroke-dashoffset:.2px}.cls-20{stroke-width:.3px}.cls-21{stroke-dashoffset:1.2px}</style></defs><g id="Plan"><path class="cls-24" d="M45.4 23.4L43 10.5l11.1-2 2.4 13-11.1 1.9"/><path class="cls-23" d="M43.3 10.9l.9 5.3 11.1-1.9-1-5.3-11 1.9M44.2 16.2l.5 2.2 10.8-1.9-.2-2.2-11.1 1.9"/><path class="cls-18" d="M55 16.7l-.4-2.2M53.6 16.9l-.5-2.1M52.2 17.2l-.5-2.2M50.7 17.4l-.2-2.1M49.3 17.7l-.3-2.2M48.1 17.9l-.5-2.2M46.6 18.1l-.4-2.1M45.2 18.4l-.5-2.2"/><path class="cls-23" d="M44.7 18.4l.7 5 11.1-1.9-1-5-10.8 1.9"/><path class="cls-18" d="M45.4 22.5l.8.9M45.2 18.4l4.6 4.3M48.6 17.7l4.5 4.5M52.2 17.2l4.3 4.3M55.5 16.5l.3.2"/><path class="cls-20" d="M43.3 10.9l11-1.9M43 10.5l11.1-2"/><path class="cls-18" d="M44.7 18.4l10.8-1.9M44.2 16.2l11.1-1.9"/><path class="cls-20" d="M45.4 23.4l11.1-1.9M44.7 18.4l10.8-1.9"/><path class="cls-19" d="M43 10.5l11.1-2M45.4 23.4l11.1-1.9M14.7 29.8l30.6-5.5-1-5.7M0 17.6l43.1-7.7 1.1 6.4"/><path class="cls-19" d="M6.6 22.9l37.6-6.7.5 2.2L9 24.9M10.4 22.2l.5 2.4M40.4 16.9l.2 2.2M23.8 22.2l-.4-2.1M10.9 24.6l-.5-2.4M27.9 21.5l-.5-2.2M23.8 22.2l-.4-2.1M40.6 19.1l-.2-2.2M27.9 21.5l-.5-2.2M44.7 18.4l-.5-2.2"/><path class="cls-23" d="M45.4 23.4l-.2.3-1-5.1.5-.2"/><path class="cls-18" d="M45 22l.4.5"/><path class="cls-20" d="M45.2 23.7l-1-5.1.5-.2M45.4 23.4l-.2.3"/><path class="cls-18" d="M44.7 18.4l-.5-2.2"/><path class="cls-20" d="M43.3 10.9l-.3-.4M45.2 23.7l-1-5.1.5-.2M45.4 23.4l-.2.3"/><path class="cls-24" d="M47.1 15.7l5.8 1.2 5 4.4V.1H43v16.4l3.6-.8v-5.2l.5 5.2"/><path class="cls-23" d="M43 .1v16.4l3.6-.8V.1H43"/><path class="cls-18" d="M43.3 16.2v.3M43.3 12.1l3.3 3.6M43.3 8.3l3.6 3.6M43.3 4.2l3.6 3.6M43.3.1l3.6 3.6"/><path class="cls-23" d="M46.6.1v10.4l.5 5.2V.1h-.5M47.1.1v15.6l5.8 1.2V.1h-5.8"/><path class="cls-18" d="M53.1 1.1h-5.7M53.1 2.5h-5.7M53.1 4h-5.7M53.1 5.4h-5.7M53.1 6.9h-5.7M53.1 8.3h-5.7M53.1 9.7h-5.7M53.1 11.2h-5.7M53.1 12.6h-5.7M53.1 14.1h-5.7M53.1 15.3h-5.7M53.1 16.7h-.9"/><path class="cls-23" d="M52.9.1v16.8l5 4.4V.1h-5"/><path class="cls-18" d="M53.1 14.1l5.1 5M53.1 10l5.1 5M53.1 5.9l5.1 5M53.1 2.1l5.1 5M55 .1L58.2 3"/><path class="cls-20" d="M46.6 10.5V.1M43 10.5V.1"/><path class="cls-18" d="M52.9 16.9V.1M47.1 15.7V.1"/><path class="cls-20" d="M57.9 21.3V.1M52.9 16.9V.1"/><path class="cls-19" d="M43 10.5V.1M57.9 21.3V.1"/><path class="cls-20" d="M43 16.5v-6M43 16.5l3.6-.8M46.6 15.7v-5.2M154.2 67.3H194v29.8h-39.8z"/><path class="cls-19" d="M202.9 65.4v35.5M200 83.7V70M196.9 96.6V82.7"/><path class="cls-24" d="M380 111.3l3.4 3.3h30.2V105h-39.8v5.5h5.5v.8h.7"/><path class="cls-23" d="M380 111.3l3.4 3.3h30.2v-3.3H380"/><path class="cls-18" d="M382.6 111.3l3.4 3.3M386.7 111.3l3.4 3.3M390.8 111.3l3.4 3.3M394.9 111.3l3.3 3.3M398.7 111.3l3.4 3.3M402.8 111.3l3.4 3.3M406.9 111.3l3.3 3.3M410.7 111.3l3.1 2.8"/><path class="cls-23" d="M379.3 110.5v.8h34.3v-.8h-34.3M373.8 105v5.5h39.8V105h-39.8"/><path class="cls-18" d="M374.7 105v5.5M376.2 105v5.5M377.6 105v5.5M379 105v5.5M380.5 105v5.5M381.9 105v5.5M383.4 105v5.5M384.8 105v5.5M386 105v5.5M387.4 105v5.5M388.9 105v5.5M390.3 105v5.5M391.8 105v5.5M393.2 105v5.5M394.6 105v5.5M396.1 105v5.5M397.5 105v5.5M399 105v5.5M400.4 105v5.5M401.6 105v5.5M403 105v5.5M404.5 105v5.5M405.9 105v5.5M407.4 105v5.5M408.8 105v5.5M410.2 105v5.5M411.7 105v5.5M413.1 105v5.5"/><path class="cls-20" d="M413.6 111.3H380M413.6 114.6h-30.2"/><path class="cls-18" d="M413.6 105h-39.8M413.6 110.5h-34.3"/><path class="cls-19" d="M413.6 114.6h-30.2M413.6 105h-39.8"/><path class="cls-18" d="M379.3 110.5h-5.5M373.8 110.5V105"/><path class="cls-19" d="M373.8 105h-5.3"/><path class="cls-18" d="M375.9 196.7h3.6V256h-3.6z"/><path class="cls-23" d="M201.4 106.9l5.8-6.7h-5.8v6.7"/><path class="cls-18" d="M205.5 102.4l-2.1-2.2M203.6 104.5l-1.9-2.1M201.7 106.7v-.2M201.7 105.3l4.8-5.1M201.7 101.2l.7-1"/><path class="cls-23" d="M201.4 106.9l5.8-6.7h-5.8v6.7"/><path class="cls-18" d="M205.5 102.4l-2.1-2.2M203.6 104.5l-1.9-2.1M201.7 106.7v-.2M201.7 105.3l4.8-5.1M201.7 101.2l.7-1"/><path class="cls-20" d="M201.4 100.2v6.7M201.4 100.2v6.7"/><path class="cls-19" d="M202.9 67.6v29.5"/><path class="cls-1" d="M207.4 67.6v29.5"/><path class="cls-19" d="M207.4 96.6v.5"/><path class="cls-23" d="M207.4 64.5v3.1h-4.5v-3.1"/><path class="cls-18" d="M206.7 67.6l-3.1-3.1M207.2 67.6l.5-.5M203.1 67.6l3.1-3.1"/><path class="cls-23" d="M207.4 100.2v-3.1h-4.5v3.1"/><path class="cls-18" d="M207.4 100.2l-3.1-3.1M203.4 100.2l-.3-.2M206.5 100.2l1.2-.9M203.1 99.7l2.4-2.6"/><path class="cls-20" d="M207.4 67.6h-4.5M207.4 97.1h-4.5M207.4 67.6h-4.5M207.4 64.5v3.1M207.4 97.1h-4.5M207.4 100.2v-3.1M201.4 64.5h1.5M201.4 100.2h1.5M207.4 64.5v3.1M207.4 100.2v-3.1M202.9 67.6v-3.1M202.9 97.1v3.1"/><path class="cls-23" d="M200.2 57.3l7.2 7.2V23.4l-7.2-7.2v41.1"/><path class="cls-18" d="M207.7 24.4l-7.2-7.2M207.7 28.2l-7.2-7.2M207.7 32.3l-7.2-7.2M207.7 36.4l-7.2-7.2M207.7 40.2l-7.2-7.2M207.7 44.3l-7.2-7.2M207.7 48.4l-7.2-7.2M207.7 52.2l-7.2-7.2M207.7 56.3l-7.2-7.2M207.7 60.4l-7.2-7.2M207.7 64.5l-7.2-7.2M207 63.7l.7-.7M204.8 61.8l2.9-2.6M202.9 59.7l4.8-4.6M201 57.7l6.7-6.7M200.5 54.4l7.2-7.2M200.5 50.3l7.2-7.2M200.5 46.2l7.2-7.2M200.5 42.1l7.2-7.2M200.5 38.3l7.2-7.2M200.5 34.2l7.2-7.2M200.5 30.1l6.9-6.9M200.5 26.3l4.8-5M200.5 22.2l2.9-3.1M200.5 18.1l.9-.9"/><path class="cls-23" d="M200.2 57.3l7.2 7.2V23.4l-7.2-7.2v41.1"/><path class="cls-18" d="M207.7 24.4l-7.2-7.2M207.7 28.2l-7.2-7.2M207.7 32.3l-7.2-7.2M207.7 36.4l-7.2-7.2M207.7 40.2l-7.2-7.2M207.7 44.3l-7.2-7.2M207.7 48.4l-7.2-7.2M207.7 52.2l-7.2-7.2M207.7 56.3l-7.2-7.2M207.7 60.4l-7.2-7.2M207.7 64.5l-7.2-7.2M207 63.7l.7-.7M204.8 61.8l2.9-2.6M202.9 59.7l4.8-4.6M201 57.7l6.7-6.7M200.5 54.4l7.2-7.2M200.5 50.3l7.2-7.2M200.5 46.2l7.2-7.2M200.5 42.1l7.2-7.2M200.5 38.3l7.2-7.2M200.5 34.2l7.2-7.2M200.5 30.1l6.9-6.9M200.5 26.3l4.8-5M200.5 22.2l2.9-3.1M200.5 18.1l.9-.9"/><path class="cls-20" d="M200.2 16.2v41.1M207.4 23.4v41.1M207.4 23.4v41.1M200.2 16.2v41.1"/><path class="cls-24" d="M368.5 257.9h14.9v29.3h-14.9v-29.3"/><path class="cls-23" d="M383.4 257.9H380v29.3h3.4v-29.3"/><path class="cls-18" d="M380.2 285l2.2 2.2M380.2 280.9l3.4 3.4M380.2 277.1l3.4 3.4M380.2 273l3.4 3.4M380.2 268.9l3.4 3.4M380.2 264.9l3.4 3.3M380.2 261l3.4 3.4M381 257.9l2.6 2.4"/><path class="cls-23" d="M380 257.9h-.7v29.3h.7v-29.3M379.3 257.9h-5.5v29.3h5.5v-29.3"/><path class="cls-18" d="M374 286h5.5M374 284.5h5.5M374 283.3h5.5M374 281.9h5.5M374 280.5h5.5M374 279h5.5M374 277.6h5.5M374 276.1h5.5M374 274.7h5.5M374 273.3h5.5M374 271.8h5.5M374 270.4h5.5M374 269.2h5.5M374 267.7h5.5M374 266.3h5.5M374 264.9h5.5M374 263.4h5.5M374 262h5.5M374 260.5h5.5M374 259.1h5.5"/><path class="cls-23" d="M373.8 257.9h-5.3v29.3h5.3v-29.3"/><path class="cls-18" d="M374 258.6l-1-.7M374 262.7l-5-4.8M374 266.8l-5.3-5.3M374 270.9l-5.3-5.3M374 274.7l-5.3-5.3M374 278.8l-5.3-5.3M374 282.9l-5.3-5.3M374 286.7l-5.3-5.3M370.2 287.2l-1.5-1.7M372.3 287.2l1.7-1.5M368.7 286.9l5.3-5.2M368.7 282.9l5.3-5.3M368.7 278.8l5.3-5.3M368.7 274.9l5.3-5.2M368.7 270.9l5.3-5.3M368.7 266.8l5.3-5.3M368.7 262.9l4.8-5M368.7 258.9l.7-1"/><path class="cls-20" d="M380 257.9v29.3M383.4 257.9v29.3"/><path class="cls-18" d="M373.8 257.9v29.3M379.3 257.9v29.3"/><path class="cls-20" d="M368.5 257.9v29.3M373.8 257.9v29.3"/><path class="cls-19" d="M383.4 257.9v29.3M368.5 257.9v29.3"/><path class="cls-24" d="M368.5 165.7h14.9V195h-14.9v-29.3"/><path class="cls-23" d="M383.4 165.7H380V195h3.4v-29.3"/><path class="cls-18" d="M380.2 192.9l2.2 2.1M380.2 188.8l3.4 3.3M380.2 184.7l3.4 3.4M380.2 180.9l3.4 3.3M380.2 176.8l3.4 3.3M380.2 172.7l3.4 3.4M380.2 168.9l3.4 3.3M381.2 165.7l2.4 2.4"/><path class="cls-23" d="M380 165.7h-.7V195h.7v-29.3M379.3 165.7h-5.5V195h5.5v-29.3"/><path class="cls-18" d="M374 194.1h5.5M374 192.6h5.5M374 191.2h5.5M374 189.7h5.5M374 188.3h5.5M374 186.9h5.5M374 185.4h5.5M374 184h5.5M374 182.5h5.5M374 181.1h5.5M374 179.7h5.5M374 178.5h5.5M374 177h5.5M374 175.6h5.5M374 174.1h5.5M374 172.7h5.5M374 171.3h5.5M374 169.8h5.5M374 168.4h5.5M374 166.9h5.5"/><path class="cls-23" d="M373.8 165.7h-5.3V195h5.3v-29.3"/><path class="cls-18" d="M374 166.5l-1-.8M374 170.5l-5-4.8M374 174.6l-5.3-5.3M374 178.5l-5.3-5.3M374 182.5l-5.3-5.2M374 186.6l-5.3-5.3M374 190.7l-5.3-5.3M374 194.5l-5.3-5.2M370.4 195l-1.7-1.7M372.3 195l1.7-1.7M368.7 194.8l5.3-5.3M368.7 190.7l5.3-5.3M368.7 186.6l5.3-5.3M368.7 182.8l5.3-5.3M368.7 178.7l5.3-5.3M368.7 174.6l5.3-5.3M368.7 170.5l4.8-4.8M368.7 166.7l.7-1"/><path class="cls-20" d="M380 165.7V195M383.4 165.7V195"/><path class="cls-18" d="M373.8 165.7V195M379.3 165.7V195"/><path class="cls-20" d="M368.5 165.7V195M373.8 165.7V195"/><path class="cls-19" d="M383.4 165.7V195M368.5 165.7V195"/><path class="cls-20" d="M373.8 165.7h-5.3"/><path class="cls-1" d="M368.5 195v62.9"/><path class="cls-19" d="M373.8 195h2.2v62.9h-2.2zM375.9 198.6h-2.1M375.9 254.3h-2.1M373.8 195h2.1M373.8 214h2.1M373.8 198.6h2.1M373.8 218.1h2.1M373.8 214h2.1M373.8 234.9h2.1M373.8 218.1h2.1M373.8 238.9h2.1M373.8 234.9h2.1M373.8 254.3h2.1M373.8 238.9h2.1M373.8 257.9h2.1"/><path class="cls-20" d="M373.8 195h-5.3"/><path class="cls-19" d="M383.4 259.3h1.6"/><path class="cls-8" d="M385 259.3v-66"/><path class="cls-19" d="M385 193.3h-1.2"/><path class="cls-23" d="M379.3 194.9v1.9h-3.4v-1.9"/><path class="cls-18" d="M376.2 195.3h3.3M379.3 194.9v1.9h-3.4v-1.9"/><path class="cls-23" d="M383.4 195v1.7H380V195"/><path class="cls-18" d="M382.4 195l1.2 1.2"/><path class="cls-20" d="M383.4 195v1.7H380V195M380 196.7h-4.1"/><path class="cls-23" d="M379.3 257.9V256h-3.4v1.9"/><path class="cls-18" d="M376.2 257.7h3.3M376.2 256.2h3.3M379.3 257.9V256h-3.4v1.9"/><path class="cls-20" d="M373.8 257.9h-5.3"/><path class="cls-23" d="M383.4 257.9V256H380v1.9"/><path class="cls-18" d="M380.2 256.9l.8 1M383.1 256l.5.2"/><path class="cls-20" d="M383.4 257.9V256H380v1.9M380 256h-4.1"/><path class="cls-24" d="M379.3 110.5h-5.5V105h-5.3v19.9h14.9v-10.3l-3.4-3.3h-.7v-.8"/><path class="cls-23" d="M383.4 124.9v-10.3l-3.4-3.3v13.6h3.4"/><path class="cls-18" d="M380.2 124.7l.3.2M380.2 120.6l3.4 3.4M380.2 116.5l3.4 3.4M380.2 112.7l3.4 3.4"/><path class="cls-23" d="M380 124.9v-13.6h-.7v13.6h.7M379.3 124.9v-14.4h-5.5v14.4h5.5"/><path class="cls-18" d="M374 124.5h5.5M374 123h5.5M374 121.6h5.5M374 120.1h5.5M374 118.9h5.5M374 117.5h5.5M374 116.1h5.5M374 114.6h5.5M374 113.2h5.5M374 111.7h5.5"/><path class="cls-23" d="M373.8 105h-5.3v19.9h5.3V105"/><path class="cls-18" d="M368.7 121.1l3.6 3.8M368.7 117.3l5.3 5.2M368.7 113.2l5.3 5.3M368.7 109.1l5.3 5.3M368.7 105l5.3 5.3M372.6 105l1.4 1.5"/><path class="cls-20" d="M380 111.3v13.6M383.4 114.6v10.3"/><path class="cls-18" d="M373.8 110.5v14.4M379.3 111.3v13.6"/><path class="cls-20" d="M368.5 105v19.9M373.8 110.5v14.4"/><path class="cls-19" d="M383.4 114.6v10.3M368.5 105v19.9"/><path class="cls-18" d="M379.3 110.5v.8M379.3 110.5h-5.5"/><path class="cls-20" d="M373.8 105v5.5M373.8 105h-5.3M373.8 165.7h-5.3"/><path class="cls-19" d="M375.9 126.9h7.5v-3.6h1.6v44.1h-1.6v-3.6h-7.5"/><path class="cls-1" d="M368.5 124.9v40.8"/><path class="cls-19" d="M368.5 165.3v.4"/><path class="cls-20" d="M383.4 126.9v-3.6M383.4 163.8v3.6"/><path class="cls-19" d="M373.8 124.9h2.2v40.8h-2.2zM375.9 128.5h-2.1M375.9 162.1h-2.1M373.8 124.9h2.1M373.8 143.2h2.1M373.8 128.5h2.1M373.8 147.5h2.1M373.8 143.2h2.1M373.8 162.1h2.1M373.8 147.5h2.1M373.8 165.7h2.1"/><path class="cls-23" d="M379.3 124.9v1.9h-3.4v-1.9"/><path class="cls-18" d="M376.2 125.9h3.3M379.3 124.9v1.9h-3.4v-1.9"/><path class="cls-20" d="M373.8 124.9h-5.3"/><path class="cls-23" d="M383.4 124.9v2H380v-2"/><path class="cls-18" d="M380.5 124.9l1.9 2"/><path class="cls-20" d="M383.4 124.9v2H380v-2M380 126.9h-4.1"/><path class="cls-23" d="M379.3 165.7v-1.8h-3.4v1.8"/><path class="cls-18" d="M376.2 165.5h3.3M376.2 164.3h3.3M379.3 165.7v-1.8h-3.4v1.8"/><path class="cls-20" d="M373.8 165.7h-5.3"/><path class="cls-23" d="M383.4 165.7v-1.9H380v1.9"/><path class="cls-18" d="M380.2 164.8l1 .9M383.1 163.8l.5.3"/><path class="cls-20" d="M383.4 165.7v-1.9H380v1.9M380 163.8h-4.1"/><path class="cls-24" d="M368.5 328h14.9v33.1h-14.9V328"/><path class="cls-23" d="M383.4 328H380v33.1h3.4V328"/><path class="cls-18" d="M380.2 357.3l3.4 3.3M380.2 353.2l3.4 3.3M380.2 349.1l3.4 3.4M380.2 345.3l3.4 3.3M380.2 341.2l3.4 3.3M380.2 337.1l3.4 3.4M380.2 333l3.4 3.4M380.2 329.2l3.4 3.3M382.9 328l.7.5"/><path class="cls-23" d="M380 328h-.7v33.1h.7V328M379.3 328h-5.5v33.1h5.5V328"/><path class="cls-18" d="M374 359.7h5.5M374 358.5h5.5M374 357h5.5M374 355.6h5.5M374 354.1h5.5M374 352.7h5.5M374 351.3h5.5M374 349.8h5.5M374 348.4h5.5M374 346.9h5.5M374 345.5h5.5M374 344.3h5.5M374 342.9h5.5M374 341.4h5.5M374 340h5.5M374 338.5h5.5M374 337.1h5.5M374 335.7h5.5M374 334.2h5.5M374 332.8h5.5M374 331.3h5.5M374 329.9h5.5M374 328.7h5.5"/><path class="cls-23" d="M373.8 328h-5.3v33.1h5.3V328"/><path class="cls-18" d="M368.7 357.7l3.4 3.4M368.7 353.7l5.3 5.2M368.7 349.6l5.3 5.3M368.7 345.7l5.3 5.3M368.7 341.7l5.3 5.2M368.7 337.6l5.3 5.3M368.7 333.7l5.3 5.3M368.7 329.7l5.3 5.2M370.9 328l3.1 2.9"/><path class="cls-20" d="M380 328v33.1M383.4 328v33.1"/><path class="cls-18" d="M373.8 328v33.1M379.3 328v33.1"/><path class="cls-20" d="M368.5 328v33.1M373.8 328v33.1"/><path class="cls-19" d="M383.4 328v33.1M368.5 328v33.1M375.9 288.9h7.5v-3.4h1.6v43.9h-1.6v-3.3h-7.5"/><path class="cls-1" d="M368.5 287.2V328"/><path class="cls-19" d="M368.5 327.5v.5"/><path class="cls-20" d="M383.4 288.9v-3.4M383.4 326.1v3.3"/><path class="cls-19" d="M373.8 287.2h2.2V328h-2.2zM375.9 290.8h-2.1M375.9 324.1h-2.1M373.8 287.2h2.1M373.8 305.4h2.1M373.8 290.8h2.1M373.8 309.5h2.1M373.8 305.4h2.1M373.8 324.1h2.1M373.8 309.5h2.1M373.8 328h2.1"/><path class="cls-23" d="M379.3 287.1v1.8h-3.4v-1.8"/><path class="cls-18" d="M376.2 287.4h3.3M379.3 287.1v1.8h-3.4v-1.8"/><path class="cls-20" d="M373.8 287.2h-5.3"/><path class="cls-23" d="M383.4 287.2v1.7H380v-1.7"/><path class="cls-18" d="M382.4 287.2l1.2 1.2"/><path class="cls-20" d="M383.4 287.2v1.7H380v-1.7M380 288.9h-4.1"/><path class="cls-23" d="M379.3 327.9V326h-3.4v1.9"/><path class="cls-18" d="M376.2 327.3h3.3M379.3 327.9V326h-3.4v1.9"/><path class="cls-20" d="M373.8 328h-5.3"/><path class="cls-23" d="M383.4 328v-1.9H380v1.9"/><path class="cls-18" d="M381 326.1l1.9 1.9"/><path class="cls-20" d="M383.4 328v-1.9H380v1.9M380 326.1h-4.1"/><path class="cls-23" d="M84.1 118.9v-4.3h55.2v4.3H84.1"/><path class="cls-18" d="M84.3 115.6l.7-1M85 118.9l4.4-4.3M89.4 118.9l4.3-4.3M93.4 118.9l4.4-4.3M97.8 118.9l4.3-4.3M102.1 118.9l4.3-4.3M106.4 118.9l4.3-4.3M110.5 118.9l4.3-4.3M114.8 118.9l4.3-4.3M119.1 118.9l4.3-4.3M123.2 118.9l4.3-4.3M127.5 118.9l4.3-4.3M131.8 118.9l4.4-4.3M135.9 118.9l3.6-3.3"/><path class="cls-23" d="M84.1 114.6v4.3h55.2v-4.3H84.1"/><path class="cls-18" d="M84.3 115.6l.7-1M85 118.9l4.4-4.3M89.4 118.9l4.3-4.3M93.4 118.9l4.4-4.3M97.8 118.9l4.3-4.3M102.1 118.9l4.3-4.3M106.4 118.9l4.3-4.3M110.5 118.9l4.3-4.3M114.8 118.9l4.3-4.3M119.1 118.9l4.3-4.3M123.2 118.9l4.3-4.3M127.5 118.9l4.3-4.3M131.8 118.9l4.4-4.3M135.9 118.9l3.6-3.3"/><path class="cls-20" d="M84.1 118.9h55.2M84.1 114.6h55.2M84.1 114.6h55.2M84.1 118.9h55.2"/><path class="cls-19" d="M59.6 118.9v-4.3M82.2 118.9v-4.3"/><path class="cls-20" d="M57.9 118.9v-4.3M84.1 118.9v-4.3"/><path class="cls-18" d="M82.3 91.9c-12.4 0-22.7 10.2-22.7 22.7M82.2 114.6V91.8"/><path class="cls-19" d="M14.7 106.1V29.8M0 118.3V17.6M8.9 24.9V111m-2.3 1.9V23M6.6 108.9H9M6.6 27.3H9M9 91.3H6.6M9 108.9H6.6M9 87.3H6.6M9 91.3H6.6M9 70H6.6M9 87.3H6.6M9 65.9H6.6M9 70H6.6M9 48.6H6.6M9 65.9H6.6M9 44.5H6.6M9 48.6H6.6M9 27.3H6.6M9 44.5H6.6"/><path class="cls-24" d="M57.9 114.6L43 125.4l2.4-12.9 12.5 2.1"/><path class="cls-23" d="M43.8 124.9l6-4.3-5.6-.9-.9 5.2h.5M49.8 120.6l2.4-1.9-7.5-1.2-.5 2.2 5.6.9"/><path class="cls-18" d="M45 117.5l-.5 2.2M46.2 117.7l-.3 2.2M47.6 118l-.2 2.1M49 118.2l-.4 2.2M50.5 118.5l-.5 1.9M51.9 118.7l-.2.5"/><path class="cls-23" d="M52.2 118.7l5.7-4.1-12.5-2.1-.7 5 7.5 1.2"/><path class="cls-18" d="M45.2 114.6l3.6 3.6M47.6 112.7l5.3 5.5M52.4 113.7l2.9 2.8M57.2 114.4l.5.5M52.2 118.7l-7.5-1.2M49.8 120.6l-5.6-.9"/><path class="cls-20" d="M57.9 114.6l-12.5-2.1M52.2 118.7l-7.5-1.2"/><path class="cls-19" d="M57.9 114.6l-12.5-2.1M44.3 117.4l1-5.8-30.6-5.5M44.2 119.6l-1.1 6.5L0 118.3"/><path class="cls-19" d="M9 111l35.7 6.5-.5 2.2-37.6-6.8M40.4 118.9l.2-2.1M10.4 113.7l.5-2.4M44.7 117.5l-.5 2.2M27.9 114.4l-.5 2.1M40.6 116.8l-.2 2.1M23.8 113.7l-.4 2.1M27.9 114.4l-.5 2.1M10.9 111.3l-.5 2.4M23.8 113.7l-.4 2.1"/><path class="cls-23" d="M45.4 112.5l-.2-.3-1 5.1.5.2"/><path class="cls-18" d="M45 114.1l.2.5"/><path class="cls-20" d="M45.2 112.2l-1 5.1.5.2M45.4 112.5l-.2-.3"/><path class="cls-18" d="M44.7 117.5l-.5 2.2"/><path class="cls-20" d="M43.3 124.9l-.3.5M45.2 112.2l-1 5.1.5.2M45.4 112.5l-.2-.3"/><path class="cls-24" d="M57.9 161.7H43v-36.3l14.9-10.8v47.1"/><path class="cls-23" d="M43 161.7h3.6V123l-3.6 2.4v36.3"/><path class="cls-18" d="M43.3 160.5l.9 1.2M43.3 156.6l3.6 3.6M43.3 152.5l3.6 3.6M43.3 148.5l3.6 3.6M43.3 144.4l3.6 3.6M43.3 140.5l3.6 3.6M43.3 136.5l3.6 3.6M43.3 132.4l3.6 3.6M43.3 128.5l3.6 3.6M43.8 124.9l3.1 3.2M46.2 123.5l.7.5"/><path class="cls-23" d="M46.6 161.7h.5v-39.2l-.5.5v38.7M47.1 161.7h5.8v-43.2l-5.8 4v39.2"/><path class="cls-18" d="M53.1 118.9h-.7M53.1 120.1h-2.6M53.1 121.6h-4.5M53.1 123h-5.7M53.1 124.5h-5.7M53.1 125.9h-5.7M53.1 127.3h-5.7M53.1 128.8h-5.7M53.1 130.2h-5.7M53.1 131.7h-5.7M53.1 133.1h-5.7M53.1 134.3h-5.7M53.1 135.7h-5.7M53.1 137.2h-5.7M53.1 138.6h-5.7M53.1 140.1h-5.7M53.1 141.5h-5.7M53.1 142.9h-5.7M53.1 144.4h-5.7M53.1 145.8h-5.7M53.1 147.3h-5.7M53.1 148.7h-5.7M53.1 149.9h-5.7M53.1 151.3h-5.7M53.1 152.8h-5.7M53.1 154.2h-5.7M53.1 155.7h-5.7M53.1 157.1h-5.7M53.1 158.5h-5.7M53.1 160h-5.7M53.1 161.4h-5.7"/><path class="cls-23" d="M52.9 161.7h5v-47.1l-5 3.9v43.2"/><path class="cls-18" d="M53.1 158.3l3.1 3.4M53.1 154.2l5.1 5.1M53.1 150.4l5.1 5M53.1 146.3l5.1 5M53.1 142.2l5.1 5.1M53.1 138.4l5.1 5M53.1 134.3l5.1 5M53.1 130.2l5.1 5.1M53.1 126.4l5.1 5M53.1 122.3l5.1 5M53.1 118.5l5.1 4.8M55.3 116.5l2.9 2.7M57.7 114.9l.5.4"/><path class="cls-20" d="M46.6 161.7V123M43 161.7v-36.3"/><path class="cls-18" d="M52.9 161.7v-43.2M47.1 161.7v-39.2"/><path class="cls-20" d="M57.9 161.7v-47.1M52.9 161.7v-43.2"/><path class="cls-19" d="M43 161.7v-36.3M57.9 161.7v-47.1"/><path class="cls-24" d="M57.9 287.2H43v-62.4h14.9v62.4"/><path class="cls-23" d="M43 287.2h3.6v-62.4H43v62.4"/><path class="cls-18" d="M43.3 284.8l2.1 2.4M43.3 280.7l3.6 3.6M43.3 276.9l3.6 3.6M43.3 272.8l3.6 3.6M43.3 268.7l3.6 3.6M43.3 264.9l3.6 3.6M43.3 260.8l3.6 3.6M43.3 256.7l3.6 3.6M43.3 252.6l3.6 3.6M43.3 248.8l3.6 3.6M43.3 244.7l3.6 3.6M43.3 240.6l3.6 3.6M43.3 236.8l3.6 3.6M43.3 232.7l3.6 3.6M43.3 228.6l3.6 3.6M43.3 224.8l3.6 3.6"/><path class="cls-23" d="M46.6 287.2h.5v-62.4h-.5v62.4M47.1 287.2h5.8v-62.4h-5.8v62.4"/><path class="cls-18" d="M53.1 225h-5.7M53.1 226.5h-5.7M53.1 227.9h-5.7M53.1 229.3h-5.7M53.1 230.8h-5.7M53.1 232.2h-5.7M53.1 233.7h-5.7M53.1 235.1h-5.7M53.1 236.5h-5.7M53.1 238h-5.7M53.1 239.4h-5.7M53.1 240.6h-5.7M53.1 242.1h-5.7M53.1 243.5h-5.7M53.1 244.9h-5.7M53.1 246.4h-5.7M53.1 247.8h-5.7M53.1 249.3h-5.7M53.1 250.7h-5.7M53.1 252.1h-5.7M53.1 253.6h-5.7M53.1 254.8h-5.7M53.1 256.2h-5.7M53.1 257.7h-5.7M53.1 259.1h-5.7M53.1 260.5h-5.7M53.1 262h-5.7M53.1 263.4h-5.7M53.1 264.9h-5.7M53.1 266.3h-5.7M53.1 267.7h-5.7M53.1 269.2h-5.7M53.1 270.4h-5.7M53.1 271.8h-5.7M53.1 273.3h-5.7M53.1 274.7h-5.7M53.1 276.1h-5.7M53.1 277.6h-5.7M53.1 279h-5.7M53.1 280.5h-5.7M53.1 281.9h-5.7M53.1 283.3h-5.7M53.1 284.5h-5.7M53.1 286h-5.7"/><path class="cls-23" d="M52.9 287.2h5v-62.4h-5v62.4"/><path class="cls-18" d="M53.1 286.7l.5.5M53.1 282.6l4.6 4.6M53.1 278.5l5.1 5.1M53.1 274.7l5.1 5M53.1 270.6l5.1 5.1M53.1 266.5l5.1 5.1M53.1 262.5l5.1 5M53.1 258.6l5.1 5.1M53.1 254.5l5.1 5.1M53.1 250.5l5.1 5M53.1 246.6l5.1 5.1M53.1 242.5l5.1 5.1M53.1 238.5l5.1 5M53.1 234.6l5.1 5.1M53.1 230.5l5.1 5.1M53.1 226.5l5.1 5M55.3 224.8l2.9 2.6"/><path class="cls-20" d="M46.6 287.2v-62.4M43 287.2v-62.4"/><path class="cls-18" d="M52.9 287.2v-62.4M47.1 287.2v-62.4"/><path class="cls-20" d="M57.9 287.2v-62.4M52.9 287.2v-62.4"/><path class="cls-19" d="M43 287.2v-62.4M57.9 287.2v-62.4"/><path class="cls-24" d="M57.9 361.1H43V328h14.9v33.1"/><path class="cls-23" d="M43 361.1h3.6V328H43v33.1"/><path class="cls-18" d="M43.3 360.9v.2M43.3 357l3.6 3.6M43.3 352.9l3.6 3.6M43.3 348.9l3.6 3.6M43.3 345l3.6 3.6M43.3 340.9l3.6 3.6M43.3 336.9l3.6 3.6M43.3 333l3.6 3.6M43.3 328.9l3.6 3.6M46.2 328l.7.5"/><path class="cls-23" d="M46.6 361.1h.5V328h-.5v33.1M47.1 361.1h5.8V328h-5.8v33.1"/><path class="cls-18" d="M53.1 328.7h-5.7M53.1 329.9h-5.7M53.1 331.3h-5.7M53.1 332.8h-5.7M53.1 334.2h-5.7M53.1 335.7h-5.7M53.1 337.1h-5.7M53.1 338.5h-5.7M53.1 340h-5.7M53.1 341.4h-5.7M53.1 342.9h-5.7M53.1 344.3h-5.7M53.1 345.5h-5.7M53.1 346.9h-5.7M53.1 348.4h-5.7M53.1 349.8h-5.7M53.1 351.3h-5.7M53.1 352.7h-5.7M53.1 354.1h-5.7M53.1 355.6h-5.7M53.1 357h-5.7M53.1 358.5h-5.7M53.1 359.7h-5.7"/><path class="cls-23" d="M52.9 361.1h5V328h-5v33.1"/><path class="cls-18" d="M53.1 358.7l2.2 2.4M53.1 354.9l5.1 5M53.1 350.8l5.1 5M53.1 346.7l5.1 5M53.1 342.9l5.1 5M53.1 338.8l5.1 5M53.1 334.7l5.1 5M53.1 330.6l5.1 5.1M54.3 328l3.9 3.8"/><path class="cls-20" d="M46.6 361.1V328M43 361.1V328"/><path class="cls-18" d="M52.9 361.1V328M47.1 361.1V328"/><path class="cls-20" d="M57.9 361.1V328M52.9 361.1V328"/><path class="cls-19" d="M43 361.1V328M57.9 361.1V328M50.5 326.1H43v3.3h-1.6v-43.9H43v3.4h7.5"/><path class="cls-1" d="M57.9 328v-40.8"/><path class="cls-19" d="M57.9 287.7v-.5"/><path class="cls-20" d="M43 326.1v3.3M43 288.9v-3.4"/><path class="cls-19" d="M50.5 287.2h2.4V328h-2.4zM50.5 324.1h2.4M50.5 290.8h2.4M52.9 328h-2.4M52.9 309.5h-2.4M52.9 324.1h-2.4M52.9 305.4h-2.4M52.9 309.5h-2.4M52.9 290.8h-2.4M52.9 305.4h-2.4M52.9 287.2h-2.4"/><path class="cls-23" d="M47.1 327.9v-1.8h3.4v1.8"/><path class="cls-18" d="M50.7 327.3h-3.3M47.1 327.9v-1.8h3.4v1.8"/><path class="cls-20" d="M52.9 328h5"/><path class="cls-23" d="M43 328v-1.9h3.6v1.9"/><path class="cls-18" d="M44.2 326.1l2 1.9"/><path class="cls-20" d="M43 328v-1.9h3.6v1.9M46.6 326.1h3.9"/><path class="cls-23" d="M47.1 287.1v1.8h3.4v-1.8"/><path class="cls-18" d="M50.7 287.4h-3.3M47.1 287.1v1.8h3.4v-1.8"/><path class="cls-20" d="M52.9 287.2h5"/><path class="cls-23" d="M43 287.2v1.7h3.6v-1.7"/><path class="cls-18" d="M45.4 287.2l1.5 1.2"/><path class="cls-20" d="M43 287.2v1.7h3.6v-1.7M46.6 288.9h3.9"/><path class="cls-19" d="M50.5 222.9H43v3.3h-1.6v-66H43v3.4h7.5"/><path class="cls-1" d="M57.9 224.8v-63.1"/><path class="cls-19" d="M57.9 162.1v-.4"/><path class="cls-20" d="M43 222.9v3.3M43 163.6v-3.4"/><path class="cls-19" d="M50.5 161.7h2.4v63.1h-2.4zM50.5 220.9h2.4M50.5 165.5h2.4M52.9 224.8h-2.4M52.9 205.8h-2.4M52.9 220.9h-2.4M52.9 201.7h-2.4M52.9 205.8h-2.4M52.9 184.7h-2.4M52.9 201.7h-2.4M52.9 180.6h-2.4M52.9 184.7h-2.4M52.9 165.5h-2.4M52.9 180.6h-2.4M52.9 161.7h-2.4"/><path class="cls-23" d="M47.1 224.7v-1.8h3.4v1.8"/><path class="cls-18" d="M50.7 223.8h-3.3M47.1 224.7v-1.8h3.4v1.8"/><path class="cls-20" d="M52.9 224.8h5"/><path class="cls-23" d="M43 224.8v-1.9h3.6v1.9"/><path class="cls-18" d="M45.4 222.9l1.5 1.4"/><path class="cls-20" d="M43 224.8v-1.9h3.6v1.9M46.6 222.9h3.9"/><path class="cls-23" d="M47.1 161.8v1.8h3.4v-1.8"/><path class="cls-18" d="M50.7 162.9h-3.3M47.1 161.8v1.8h3.4v-1.8"/><path class="cls-20" d="M52.9 161.7h5"/><path class="cls-23" d="M43 161.7v1.9h3.6v-1.9"/><path class="cls-18" d="M44.2 161.7l2 1.9"/><path class="cls-20" d="M43 161.7v1.9h3.6v-1.9M46.6 163.6h3.9"/><path class="cls-23" d="M52.9 361.1v-7h320.9v7H52.9"/><path class="cls-18" d="M374 354.9l-1-.8M374 358.9l-5-4.8M372.1 361.1l-7-7M368 361.1l-7-7M363.9 361.1l-6.9-7M360.1 361.1l-7-7M356 361.1l-7-7M351.9 361.1l-6.9-7M348.1 361.1l-7-7M344 361.1l-7-7M339.9 361.1l-6.9-7M335.8 361.1l-6.9-7M332 361.1l-7-7M327.9 361.1l-6.9-7M323.8 361.1l-6.9-7M320 361.1l-7-7M315.9 361.1l-6.9-7M311.8 361.1l-6.9-7M307.8 361.1l-7-7M303.9 361.1l-6.9-7M299.8 361.1l-6.9-7M295.8 361.1l-7-7M291.9 361.1l-6.9-7M287.8 361.1l-6.9-7M283.8 361.1l-7-7M279.9 361.1l-6.9-7M275.8 361.1l-6.9-7M271.8 361.1l-7-7M267.7 361.1l-7-7M263.8 361.1l-6.9-7M259.8 361.1l-7-7M255.7 361.1l-7-7M251.8 361.1l-6.9-7M247.8 361.1l-7-7M243.7 361.1l-7-7M239.8 361.1l-6.9-7M235.8 361.1l-7-7M231.7 361.1l-7-7M227.6 361.1l-7-7M223.8 361.1l-7-7M219.7 361.1l-7-7M215.6 361.1l-7-7M211.8 361.1l-7-7M207.7 361.1l-7-7M203.6 361.1l-7-7M199.5 361.1l-6.9-7M195.7 361.1l-7-7M191.6 361.1l-7-7M187.5 361.1l-6.9-7M183.7 361.1l-7-7M179.6 361.1l-7-7M175.5 361.1l-6.9-7M171.7 361.1l-7-7M167.6 361.1l-7-7M163.5 361.1l-6.9-7M159.4 361.1l-6.9-7M155.6 361.1l-7-7M151.5 361.1l-6.9-7M147.4 361.1l-6.9-7M143.6 361.1l-7-7M139.5 361.1l-6.9-7M135.4 361.1l-6.9-7M131.6 361.1l-7-7M127.5 361.1l-6.9-7M123.4 361.1l-6.9-7M119.4 361.1l-7-7M115.5 361.1l-6.9-7M111.4 361.1l-6.9-7M107.4 361.1l-7-7M103.5 361.1l-6.9-7M99.4 361.1l-6.9-7M95.4 361.1l-7-7M91.5 361.1l-6.9-7M87.4 361.1l-6.9-7M83.4 361.1l-7-7M79.3 361.1l-7-7M75.4 361.1l-6.9-7M71.4 361.1l-7-7M67.3 361.1l-7-7M63.4 361.1l-6.9-7M59.4 361.1l-6.3-6.2M55.3 361.1l-2.2-2.4M370.6 361.1l3.4-3.4M366.6 361.1l6.9-7M362.5 361.1l6.9-7M358.6 361.1l7-7M354.6 361.1l6.9-7M350.5 361.1l6.9-7M346.4 361.1l7-7M342.6 361.1l6.9-7M338.5 361.1l6.9-7M334.4 361.1l7-7M330.6 361.1l6.9-7M326.5 361.1l6.9-7M322.4 361.1l7-7M318.6 361.1l6.9-7M314.5 361.1l6.9-7M310.4 361.1l7-7M306.3 361.1l7-7M302.5 361.1l6.9-7M298.4 361.1l7-7M294.3 361.1l7-7M290.5 361.1l6.9-7M286.4 361.1l7-7M282.3 361.1l7-7M278.5 361.1l6.9-7M274.4 361.1l7-7M270.3 361.1l7-7M266.2 361.1l7-7M262.4 361.1l7-7M258.3 361.1l7-7M254.2 361.1l7-7M250.4 361.1l7-7M246.3 361.1l7-7M242.2 361.1l7-7M238.2 361.1l6.9-7M234.3 361.1l7-7M230.2 361.1l7-7M226.2 361.1l6.9-7M222.3 361.1l7-7M218.2 361.1l7-7M214.2 361.1l6.9-7M210.3 361.1l7-7M206.2 361.1l7-7M202.2 361.1l6.9-7M198.1 361.1l6.9-7M194.2 361.1l7-7M190.2 361.1l6.9-7M186.1 361.1l6.9-7M182.2 361.1l7-7M178.2 361.1l6.9-7M174.1 361.1l6.9-7M170.2 361.1l7-7M166.2 361.1l6.9-7M162.1 361.1l6.9-7M158 361.1l7-7M154.2 361.1l6.9-7M150.1 361.1l6.9-7M146 361.1l7-7M142.2 361.1l6.9-7M138.1 361.1l6.9-7M134 361.1l7-7M129.9 361.1l7-7M126.1 361.1l6.9-7M122 361.1l7-7M117.9 361.1l7-7M114.1 361.1l6.9-7M110 361.1l7-7M105.9 361.1l7-7M102.1 361.1l6.9-7M98 361.1l7-7M93.9 361.1l7-7M89.8 361.1l7-7M86 361.1l7-7M81.9 361.1l7-7M77.8 361.1l7-7M74 361.1l7-7M69.9 361.1l7-7M65.8 361.1l7-7M62 361.1l7-7M57.9 361.1l7-7M53.8 361.1l7-7M53.1 358l3.6-3.9"/><path class="cls-23" d="M52.9 354.1v7h320.9v-7H52.9"/><path class="cls-18" d="M374 354.9l-1-.8M374 358.9l-5-4.8M372.1 361.1l-7-7M368 361.1l-7-7M363.9 361.1l-6.9-7M360.1 361.1l-7-7M356 361.1l-7-7M351.9 361.1l-6.9-7M348.1 361.1l-7-7M344 361.1l-7-7M339.9 361.1l-6.9-7M335.8 361.1l-6.9-7M332 361.1l-7-7M327.9 361.1l-6.9-7M323.8 361.1l-6.9-7M320 361.1l-7-7M315.9 361.1l-6.9-7M311.8 361.1l-6.9-7M307.8 361.1l-7-7M303.9 361.1l-6.9-7M299.8 361.1l-6.9-7M295.8 361.1l-7-7M291.9 361.1l-6.9-7M287.8 361.1l-6.9-7M283.8 361.1l-7-7M279.9 361.1l-6.9-7M275.8 361.1l-6.9-7M271.8 361.1l-7-7M267.7 361.1l-7-7M263.8 361.1l-6.9-7M259.8 361.1l-7-7M255.7 361.1l-7-7M251.8 361.1l-6.9-7M247.8 361.1l-7-7M243.7 361.1l-7-7M239.8 361.1l-6.9-7M235.8 361.1l-7-7M231.7 361.1l-7-7M227.6 361.1l-7-7M223.8 361.1l-7-7M219.7 361.1l-7-7M215.6 361.1l-7-7M211.8 361.1l-7-7M207.7 361.1l-7-7M203.6 361.1l-7-7M199.5 361.1l-6.9-7M195.7 361.1l-7-7M191.6 361.1l-7-7M187.5 361.1l-6.9-7M183.7 361.1l-7-7M179.6 361.1l-7-7M175.5 361.1l-6.9-7M171.7 361.1l-7-7M167.6 361.1l-7-7M163.5 361.1l-6.9-7M159.4 361.1l-6.9-7M155.6 361.1l-7-7M151.5 361.1l-6.9-7M147.4 361.1l-6.9-7M143.6 361.1l-7-7M139.5 361.1l-6.9-7M135.4 361.1l-6.9-7M131.6 361.1l-7-7M127.5 361.1l-6.9-7M123.4 361.1l-6.9-7M119.4 361.1l-7-7M115.5 361.1l-6.9-7M111.4 361.1l-6.9-7M107.4 361.1l-7-7M103.5 361.1l-6.9-7M99.4 361.1l-6.9-7M95.4 361.1l-7-7M91.5 361.1l-6.9-7M87.4 361.1l-6.9-7M83.4 361.1l-7-7M79.3 361.1l-7-7M75.4 361.1l-6.9-7M71.4 361.1l-7-7M67.3 361.1l-7-7M63.4 361.1l-6.9-7M59.4 361.1l-6.3-6.2M55.3 361.1l-2.2-2.4M370.6 361.1l3.4-3.4M366.6 361.1l6.9-7M362.5 361.1l6.9-7M358.6 361.1l7-7M354.6 361.1l6.9-7M350.5 361.1l6.9-7M346.4 361.1l7-7M342.6 361.1l6.9-7M338.5 361.1l6.9-7M334.4 361.1l7-7M330.6 361.1l6.9-7M326.5 361.1l6.9-7M322.4 361.1l7-7M318.6 361.1l6.9-7M314.5 361.1l6.9-7M310.4 361.1l7-7M306.3 361.1l7-7M302.5 361.1l6.9-7M298.4 361.1l7-7M294.3 361.1l7-7M290.5 361.1l6.9-7M286.4 361.1l7-7M282.3 361.1l7-7M278.5 361.1l6.9-7M274.4 361.1l7-7M270.3 361.1l7-7M266.2 361.1l7-7M262.4 361.1l7-7M258.3 361.1l7-7M254.2 361.1l7-7M250.4 361.1l7-7M246.3 361.1l7-7M242.2 361.1l7-7M238.2 361.1l6.9-7M234.3 361.1l7-7M230.2 361.1l7-7M226.2 361.1l6.9-7M222.3 361.1l7-7M218.2 361.1l7-7M214.2 361.1l6.9-7M210.3 361.1l7-7M206.2 361.1l7-7M202.2 361.1l6.9-7M198.1 361.1l6.9-7M194.2 361.1l7-7M190.2 361.1l6.9-7M186.1 361.1l6.9-7M182.2 361.1l7-7M178.2 361.1l6.9-7M174.1 361.1l6.9-7M170.2 361.1l7-7M166.2 361.1l6.9-7M162.1 361.1l6.9-7M158 361.1l7-7M154.2 361.1l6.9-7M150.1 361.1l6.9-7M146 361.1l7-7M142.2 361.1l6.9-7M138.1 361.1l6.9-7M134 361.1l7-7M129.9 361.1l7-7M126.1 361.1l6.9-7M122 361.1l7-7M117.9 361.1l7-7M114.1 361.1l6.9-7M110 361.1l7-7M105.9 361.1l7-7M102.1 361.1l6.9-7M98 361.1l7-7M93.9 361.1l7-7M89.8 361.1l7-7M86 361.1l7-7M81.9 361.1l7-7M77.8 361.1l7-7M74 361.1l7-7M69.9 361.1l7-7M65.8 361.1l7-7M62 361.1l7-7M57.9 361.1l7-7M53.8 361.1l7-7M53.1 358l3.6-3.9"/><path class="cls-20" d="M52.9 361.1h320.9M52.9 354.1h320.9M373.8 361.1v-7M52.9 354.1h320.9M52.9 361.1h320.9M52.9 361.1v-7"/><path class="cls-23" d="M406.4 99.7l7.2 5.3V16.2l-7.2 7.2v76.3"/><path class="cls-18" d="M413.8 17.9l-.9-.7M413.8 22l-2.8-2.9M413.8 26.1l-5-5.1M413.8 29.9l-6.9-6.7M413.8 34l-7.2-7.2M413.8 38.1l-7.2-7.2M413.8 41.9l-7.2-7.2M413.8 46l-7.2-7.2M413.8 50.1l-7.2-7.2M413.8 54.1l-7.2-7.2M413.8 58l-7.2-7.2M413.8 62.1l-7.2-7.2M413.8 66.1l-7.2-7.2M413.8 70l-7.2-7.2M413.8 74.1l-7.2-7.2M413.8 78.1l-7.2-7.2M413.8 82l-7.2-7.2M413.8 86.1l-7.2-7.2M413.8 90.1l-7.2-7.2M413.8 94.2l-7.2-7.2M413.8 98.1l-7.2-7.2M413.8 102.1l-7.2-7.2M409.5 101.9l-2.9-2.9M411.7 103.6l2.1-2.2M409.3 101.9l4.5-4.3M407.1 100.2l6.7-6.7M406.6 96.6l7.2-7.2M406.6 92.5l7.2-7.2M406.6 88.7l7.2-7.2M406.6 84.6l7.2-7.2M406.6 80.5l7.2-7.2M406.6 76.7l7.2-7.2M406.6 72.6l7.2-7.2M406.6 68.5l7.2-7.2M406.6 64.5l7.2-7.2M406.6 60.6l7.2-7.2M406.6 56.5l7.2-7.2M406.6 52.5l7.2-7.2M406.6 48.6l7.2-7.2M406.6 44.5l7.2-7.2M406.6 40.5l7.2-7.2M406.6 36.6l7.2-7.2M406.6 32.5l7.2-7.2M406.6 28.5l7.2-7.2M406.6 24.4l7.2-7.2"/><path class="cls-23" d="M406.4 99.7l7.2 5.3V16.2l-7.2 7.2v76.3"/><path class="cls-18" d="M413.8 17.9l-.9-.7M413.8 22l-2.8-2.9M413.8 26.1l-5-5.1M413.8 29.9l-6.9-6.7M413.8 34l-7.2-7.2M413.8 38.1l-7.2-7.2M413.8 41.9l-7.2-7.2M413.8 46l-7.2-7.2M413.8 50.1l-7.2-7.2M413.8 54.1l-7.2-7.2M413.8 58l-7.2-7.2M413.8 62.1l-7.2-7.2M413.8 66.1l-7.2-7.2M413.8 70l-7.2-7.2M413.8 74.1l-7.2-7.2M413.8 78.1l-7.2-7.2M413.8 82l-7.2-7.2M413.8 86.1l-7.2-7.2M413.8 90.1l-7.2-7.2M413.8 94.2l-7.2-7.2M413.8 98.1l-7.2-7.2M413.8 102.1l-7.2-7.2M409.5 101.9l-2.9-2.9M411.7 103.6l2.1-2.2M409.3 101.9l4.5-4.3M407.1 100.2l6.7-6.7M406.6 96.6l7.2-7.2M406.6 92.5l7.2-7.2M406.6 88.7l7.2-7.2M406.6 84.6l7.2-7.2M406.6 80.5l7.2-7.2M406.6 76.7l7.2-7.2M406.6 72.6l7.2-7.2M406.6 68.5l7.2-7.2M406.6 64.5l7.2-7.2M406.6 60.6l7.2-7.2M406.6 56.5l7.2-7.2M406.6 52.5l7.2-7.2M406.6 48.6l7.2-7.2M406.6 44.5l7.2-7.2M406.6 40.5l7.2-7.2M406.6 36.6l7.2-7.2M406.6 32.5l7.2-7.2M406.6 28.5l7.2-7.2M406.6 24.4l7.2-7.2"/><path class="cls-20" d="M406.4 23.4v76.3M413.6 16.2V105M413.6 16.2V105M406.4 23.4v76.3"/><path class="cls-23" d="M207.4 64.5l-7.2-7.2h-53.5v7.2h60.7"/><path class="cls-18" d="M203.6 64.5l-7.2-7.2M199.8 64.5l-7.2-7.2M195.7 64.5l-7.2-7.2M191.6 64.5l-7.2-7.2M187.5 64.5l-7.2-7.2M183.7 64.5l-7.2-7.2M179.6 64.5l-7.2-7.2M175.5 64.5l-7.2-7.2M171.7 64.5l-7.2-7.2M167.6 64.5l-7.2-7.2M163.5 64.5l-7.2-7.2M159.7 64.5l-7.2-7.2M155.6 64.5l-7.2-7.2M151.5 64.5l-4.5-4.8M147.4 64.5l-.4-.8M206.2 64.5l.8-.8M202.2 64.5l2.6-2.7M198.1 64.5l4.8-4.8M194.2 64.5l6.8-6.8M190.2 64.5l7.2-7.2M186.1 64.5l7.2-7.2M182.2 64.5l7.2-7.2M178.2 64.5l7.2-7.2M174.1 64.5l7.2-7.2M170 64.5l7.2-7.2M166.2 64.5l7.2-7.2M162.1 64.5l7.2-7.2M158 64.5l7.2-7.2M154.2 64.5l7.2-7.2M150.1 64.5l7.2-7.2M147 63.7l6.2-6.4M147 59.7l2.4-2.4"/><path class="cls-23" d="M207.4 64.5l-7.2-7.2h-53.5v7.2h60.7"/><path class="cls-18" d="M203.6 64.5l-7.2-7.2M199.8 64.5l-7.2-7.2M195.7 64.5l-7.2-7.2M191.6 64.5l-7.2-7.2M187.5 64.5l-7.2-7.2M183.7 64.5l-7.2-7.2M179.6 64.5l-7.2-7.2M175.5 64.5l-7.2-7.2M171.7 64.5l-7.2-7.2M167.6 64.5l-7.2-7.2M163.5 64.5l-7.2-7.2M159.7 64.5l-7.2-7.2M155.6 64.5l-7.2-7.2M151.5 64.5l-4.5-4.8M147.4 64.5l-.4-.8M206.2 64.5l.8-.8M202.2 64.5l2.6-2.7M198.1 64.5l4.8-4.8M194.2 64.5l6.8-6.8M190.2 64.5l7.2-7.2M186.1 64.5l7.2-7.2M182.2 64.5l7.2-7.2M178.2 64.5l7.2-7.2M174.1 64.5l7.2-7.2M170 64.5l7.2-7.2M166.2 64.5l7.2-7.2M162.1 64.5l7.2-7.2M158 64.5l7.2-7.2M154.2 64.5l7.2-7.2M150.1 64.5l7.2-7.2M147 63.7l6.2-6.4M147 59.7l2.4-2.4"/><path class="cls-20" d="M146.7 64.5h54.7M146.7 57.3h53.5M146.7 57.3h53.5M146.7 64.5h54.7"/><path class="cls-23" d="M200.2 16.2L205 21v-4.8h-4.8"/><path class="cls-18" d="M205.3 17.9l-1.7-1.7M203.4 19.1l1.9-1.7M201.4 17.2l1-1"/><path class="cls-23" d="M200.2 16.2L205 21v-4.8h-4.8"/><path class="cls-18" d="M205.3 17.9l-1.7-1.7M203.4 19.1l1.9-1.7M201.4 17.2l1-1"/><path class="cls-20" d="M205 16.2h-4.8M205 16.2h-4.8"/><path class="cls-23" d="M372.1 16.2v7.2H237.4v-7.2h134.7"/><path class="cls-18" d="M372.3 16.5l-.5-.3M372.3 20.5l-4.3-4.3M371.1 23.4l-7.2-7.2M367 23.4l-7.2-7.2M363 23.4l-7.2-7.2M359.1 23.4l-7.2-7.2M355 23.4l-7.2-7.2M351 23.4l-7.2-7.2M347.1 23.4l-7.2-7.2M343 23.4l-7.2-7.2M339 23.4l-7.2-7.2M334.9 23.4l-7.2-7.2M331 23.4l-7.2-7.2M327 23.4l-7.2-7.2M322.9 23.4l-7.2-7.2M319 23.4l-7.2-7.2M315 23.4l-7.2-7.2M310.9 23.4l-7.2-7.2M307 23.4l-7.2-7.2M303 23.4l-7.2-7.2M298.9 23.4l-7.2-7.2M294.8 23.4l-7.2-7.2M291 23.4l-7.2-7.2M286.9 23.4l-7.2-7.2M282.8 23.4l-7.2-7.2M279 23.4l-7.2-7.2M274.9 23.4l-7.2-7.2M270.8 23.4l-7.2-7.2M267 23.4l-7.2-7.2M262.9 23.4l-7.2-7.2M258.8 23.4l-7.2-7.2M254.7 23.4l-7.2-7.2M250.9 23.4l-7.2-7.2M246.8 23.4l-7.2-7.2M242.7 23.4l-5-5.3M238.9 23.4l-1.2-1.2M371.6 23.4l.7-.7M367.5 23.4l4.8-4.8M363.4 23.4l7.2-7.2M359.6 23.4l7.2-7.2M355.5 23.4l7.2-7.2M351.4 23.4l7.2-7.2M347.4 23.4l7.2-7.2M343.5 23.4l7.2-7.2M339.4 23.4l7.2-7.2M335.4 23.4l7.2-7.2M331.5 23.4l7.2-7.2M327.4 23.4l7.2-7.2M323.4 23.4l7.2-7.2M319.3 23.4l7.2-7.2M315.4 23.4l7.2-7.2M311.4 23.4l7.2-7.2M307.3 23.4l7.2-7.2M303.4 23.4l7.2-7.2M299.4 23.4l7.2-7.2M295.3 23.4l7.2-7.2M291.4 23.4l7.2-7.2M287.4 23.4l7.2-7.2M283.3 23.4l7.2-7.2M279.2 23.4l7.2-7.2M275.4 23.4l7.2-7.2M271.3 23.4l7.2-7.2M267.2 23.4l7.2-7.2M263.4 23.4l7.2-7.2M259.3 23.4l7.2-7.2M255.2 23.4l7.2-7.2M251.4 23.4l7.2-7.2M247.3 23.4l7.2-7.2M243.2 23.4l7.2-7.2M239.1 23.4l7.2-7.2M237.7 21l4.8-4.8M237.7 17.2l.7-1"/><path class="cls-23" d="M372.1 23.4v-7.2H237.4v7.2h134.7"/><path class="cls-18" d="M372.3 16.5l-.5-.3M372.3 20.5l-4.3-4.3M371.1 23.4l-7.2-7.2M367 23.4l-7.2-7.2M363 23.4l-7.2-7.2M359.1 23.4l-7.2-7.2M355 23.4l-7.2-7.2M351 23.4l-7.2-7.2M347.1 23.4l-7.2-7.2M343 23.4l-7.2-7.2M339 23.4l-7.2-7.2M334.9 23.4l-7.2-7.2M331 23.4l-7.2-7.2M327 23.4l-7.2-7.2M322.9 23.4l-7.2-7.2M319 23.4l-7.2-7.2M315 23.4l-7.2-7.2M310.9 23.4l-7.2-7.2M307 23.4l-7.2-7.2M303 23.4l-7.2-7.2M298.9 23.4l-7.2-7.2M294.8 23.4l-7.2-7.2M291 23.4l-7.2-7.2M286.9 23.4l-7.2-7.2M282.8 23.4l-7.2-7.2M279 23.4l-7.2-7.2M274.9 23.4l-7.2-7.2M270.8 23.4l-7.2-7.2M267 23.4l-7.2-7.2M262.9 23.4l-7.2-7.2M258.8 23.4l-7.2-7.2M254.7 23.4l-7.2-7.2M250.9 23.4l-7.2-7.2M246.8 23.4l-7.2-7.2M242.7 23.4l-5-5.3M238.9 23.4l-1.2-1.2M371.6 23.4l.7-.7M367.5 23.4l4.8-4.8M363.4 23.4l7.2-7.2M359.6 23.4l7.2-7.2M355.5 23.4l7.2-7.2M351.4 23.4l7.2-7.2M347.4 23.4l7.2-7.2M343.5 23.4l7.2-7.2M339.4 23.4l7.2-7.2M335.4 23.4l7.2-7.2M331.5 23.4l7.2-7.2M327.4 23.4l7.2-7.2M323.4 23.4l7.2-7.2M319.3 23.4l7.2-7.2M315.4 23.4l7.2-7.2M311.4 23.4l7.2-7.2M307.3 23.4l7.2-7.2M303.4 23.4l7.2-7.2M299.4 23.4l7.2-7.2M295.3 23.4l7.2-7.2M291.4 23.4l7.2-7.2M287.4 23.4l7.2-7.2M283.3 23.4l7.2-7.2M279.2 23.4l7.2-7.2M275.4 23.4l7.2-7.2M271.3 23.4l7.2-7.2M267.2 23.4l7.2-7.2M263.4 23.4l7.2-7.2M259.3 23.4l7.2-7.2M255.2 23.4l7.2-7.2M251.4 23.4l7.2-7.2M247.3 23.4l7.2-7.2M243.2 23.4l7.2-7.2M239.1 23.4l7.2-7.2M237.7 21l4.8-4.8M237.7 17.2l.7-1"/><path class="cls-20" d="M372.1 16.2H237.4M372.1 23.4H237.4M372.1 23.4H237.4M372.1 16.2H237.4"/><path class="cls-23" d="M404.5 23.4h1.9l7.2-7.2h-9.1v7.2"/><path class="cls-18" d="M412.9 17.2l-1-1M411 19.1l-2.9-2.9M408.8 21l-4.1-4.1M406.9 23.2l-2.2-2.4M404.7 22.5l6-6.3M404.7 18.4l2.2-2.2"/><path class="cls-23" d="M404.5 23.4h1.9l7.2-7.2h-9.1v7.2"/><path class="cls-18" d="M412.9 17.2l-1-1M411 19.1l-2.9-2.9M408.8 21l-4.1-4.1M406.9 23.2l-2.2-2.4M404.7 22.5l6-6.3M404.7 18.4l2.2-2.2"/><path class="cls-20" d="M413.6 16.2h-9.1M406.4 23.4h-1.9M406.4 23.4h-1.9M413.6 16.2h-9.1"/><path class="cls-19" d="M401.8 15.7h2.6v1.7h-2.6zM372.1 15.7h2.6v1.7h-2.6z"/><path class="cls-19" d="M374.7 15.7h27.1v1.7h-27.1zM401.8 17.4h-27.1"/><path class="cls-1" d="M402.1 23.4h-27.6"/><path class="cls-19" d="M375 23.4h-.5"/><path class="cls-23" d="M404.5 23.4h-2.4v-6h2.4"/><path class="cls-18" d="M404.7 20.8l-2.4-2.4M403 23.4l-.7-.9M403.5 23.4l1.2-.9M402.3 20.8l2.4-2.4"/><path class="cls-23" d="M372.1 23.4h2.4v-6h-2.4"/><path class="cls-18" d="M374.7 18.9l-1.7-1.5M374.7 22.9l-2.4-2.4M372.3 22.7l2.4-2.4M372.3 18.6l1.2-1.2"/><path class="cls-20" d="M402.1 23.4v-6M374.5 23.4v-6M402.1 23.4v-6M404.5 23.4h-2.4M374.5 23.4v-6M372.1 23.4h2.4M404.5 16.2v1.2M372.1 16.2v1.2M404.5 23.4h-2.4M372.1 23.4h2.4M402.1 17.4h2.4M374.5 17.4h-2.4"/><path class="cls-19" d="M235 15.7h2.4v1.7H235zM205 15.7h2.6v1.7H205z"/><path class="cls-19" d="M207.7 15.7h27.4v1.7h-27.4zM235 17.4h-27.3"/><path class="cls-1" d="M235.3 23.4h-27.9"/><path class="cls-19" d="M207.9 23.4h-.5"/><path class="cls-23" d="M237.4 23.4h-2.1v-6h2.1v-1.2"/><path class="cls-18" d="M237.7 18.1l-1-.7M237.7 22.2l-2.2-2.1M235.5 23.2l2.2-2.2M235.5 19.3l1.7-1.9M237.7 17.2"/><path class="cls-20" d="M237.4 23.4h-2.1v-6h2.1v-1.2"/><path class="cls-23" d="M205.2 23.3h2.2v-5.9h-2.2v-1.2"/><path class="cls-18" d="M207.7 20.3l-2.4-2.4M206.7 23.4l-1.4-1.4M207.2 23.4l.5-.5M205.3 21.5l2.4-2.4M205.3 17.4"/><path class="cls-20" d="M207.4 23.3v-5.9h-2.2v-1.2"/><path class="cls-23" d="M260.5 106.9v-7.2h113.3v7.2H260.5"/><path class="cls-18" d="M374 102.4l-2.9-2.7M374 106.5l-6.7-6.8M370.4 106.9l-7.2-7.2M366.3 106.9l-7.2-7.2M362.5 106.9l-7.2-7.2M358.4 106.9l-7.2-7.2M354.3 106.9l-7.2-7.2M350.5 106.9l-7.2-7.2M346.4 106.9l-7.2-7.2M342.3 106.9l-7.2-7.2M338.2 106.9l-7.2-7.2M334.4 106.9l-7.2-7.2M330.3 106.9l-7.2-7.2M326.2 106.9l-7.2-7.2M322.4 106.9l-7.2-7.2M318.3 106.9l-7.2-7.2M314.2 106.9l-7.2-7.2M310.2 106.9l-7.2-7.2M306.3 106.9l-7.2-7.2M302.2 106.9l-7.2-7.2M298.2 106.9l-7.2-7.2M294.3 106.9l-7.2-7.2M290.2 106.9l-7.2-7.2M286.2 106.9l-7.2-7.2M282.3 106.9l-7.2-7.2M278.2 106.9l-7.2-7.2M274.2 106.9l-7.2-7.2M270.1 106.9l-7.2-7.2M266.2 106.9l-5.5-5.5M262.2 106.9l-1.5-1.6M372.1 106.9l1.9-1.6M368.2 106.9l5.8-5.7M364.2 106.9l7.2-7.2M360.1 106.9l7.2-7.2M356.2 106.9l7.2-7.2M352.2 106.9l7.2-7.2M348.1 106.9l7.2-7.2M344 106.9l7.2-7.2M340.2 106.9l7.2-7.2M336.1 106.9l7.2-7.2M332 106.9l7.2-7.2M328.2 106.9l7.2-7.2M324.1 106.9l7.2-7.2M320 106.9l7.2-7.2M316.2 106.9l7.2-7.2M312.1 106.9l7.2-7.2M308 106.9l7.2-7.2M303.9 106.9l7.2-7.2M300.1 106.9l7.2-7.2M296 106.9l7.2-7.2M291.9 106.9l7.2-7.2M288.1 106.9l7.2-7.2M284 106.9l7.2-7.2M279.9 106.9l7.2-7.2M276.1 106.9l7.2-7.2M272 106.9l7.2-7.2M267.9 106.9l7.2-7.2M263.8 106.9l7.2-7.2M260.7 106.2l6.5-6.5M260.7 102.1l2.4-2.4"/><path class="cls-23" d="M260.5 99.7v7.2h113.3v-7.2H260.5"/><path class="cls-18" d="M374 102.4l-2.9-2.7M374 106.5l-6.7-6.8M370.4 106.9l-7.2-7.2M366.3 106.9l-7.2-7.2M362.5 106.9l-7.2-7.2M358.4 106.9l-7.2-7.2M354.3 106.9l-7.2-7.2M350.5 106.9l-7.2-7.2M346.4 106.9l-7.2-7.2M342.3 106.9l-7.2-7.2M338.2 106.9l-7.2-7.2M334.4 106.9l-7.2-7.2M330.3 106.9l-7.2-7.2M326.2 106.9l-7.2-7.2M322.4 106.9l-7.2-7.2M318.3 106.9l-7.2-7.2M314.2 106.9l-7.2-7.2M310.2 106.9l-7.2-7.2M306.3 106.9l-7.2-7.2M302.2 106.9l-7.2-7.2M298.2 106.9l-7.2-7.2M294.3 106.9l-7.2-7.2M290.2 106.9l-7.2-7.2M286.2 106.9l-7.2-7.2M282.3 106.9l-7.2-7.2M278.2 106.9l-7.2-7.2M274.2 106.9l-7.2-7.2M270.1 106.9l-7.2-7.2M266.2 106.9l-5.5-5.5M262.2 106.9l-1.5-1.6M372.1 106.9l1.9-1.6M368.2 106.9l5.8-5.7M364.2 106.9l7.2-7.2M360.1 106.9l7.2-7.2M356.2 106.9l7.2-7.2M352.2 106.9l7.2-7.2M348.1 106.9l7.2-7.2M344 106.9l7.2-7.2M340.2 106.9l7.2-7.2M336.1 106.9l7.2-7.2M332 106.9l7.2-7.2M328.2 106.9l7.2-7.2M324.1 106.9l7.2-7.2M320 106.9l7.2-7.2M316.2 106.9l7.2-7.2M312.1 106.9l7.2-7.2M308 106.9l7.2-7.2M303.9 106.9l7.2-7.2M300.1 106.9l7.2-7.2M296 106.9l7.2-7.2M291.9 106.9l7.2-7.2M288.1 106.9l7.2-7.2M284 106.9l7.2-7.2M279.9 106.9l7.2-7.2M276.1 106.9l7.2-7.2M272 106.9l7.2-7.2M267.9 106.9l7.2-7.2M263.8 106.9l7.2-7.2M260.7 106.2l6.5-6.5M260.7 102.1l2.4-2.4"/><path class="cls-20" d="M260.5 106.9h113.3M260.5 99.7h113.3M260.5 99.7h113.3M260.5 106.9h113.3"/><path class="cls-23" d="M224.7 99.7h-17.3l-6 7.2h23.3v-7.2"/><path class="cls-18" d="M225 101.7l-2.2-2M225 105.7l-6-6M222.1 106.9l-7.2-7.2M218 106.9l-7.2-7.2M214.2 106.9l-7-6.7M210.1 106.9l-4.6-4.5M206 106.9l-2.4-2.4M202.2 106.9l-.5-.2M223.8 106.9l1.2-.9M219.9 106.9l5.1-5M215.8 106.9l7.2-7.2M211.8 106.9l7.2-7.2M207.9 106.9l7.2-7.2M203.8 106.9l7.2-7.2"/><path class="cls-23" d="M224.7 99.7h-17.3l-6 7.2h23.3v-7.2"/><path class="cls-18" d="M225 101.7l-2.2-2M225 105.7l-6-6M222.1 106.9l-7.2-7.2M218 106.9l-7.2-7.2M214.2 106.9l-7-6.7M210.1 106.9l-4.6-4.5M206 106.9l-2.4-2.4M202.2 106.9l-.5-.2M223.8 106.9l1.2-.9M219.9 106.9l5.1-5M215.8 106.9l7.2-7.2M211.8 106.9l7.2-7.2M207.9 106.9l7.2-7.2M203.8 106.9l7.2-7.2"/><path class="cls-20" d="M208.6 106.9h16.1M207.4 99.7h17.3M207.4 99.7h17.3M208.6 106.9h16.1M373.8 105v1.9"/><path class="cls-19" d="M224.7 105.7h2.6v1.7h-2.6zM254.5 105.7h6v1.7h-6zM227.4 105.7h27.1v1.7h-27.1zM227.4 105.7h27.1"/><path class="cls-1" d="M226.9 99.7h27.8"/><path class="cls-19" d="M254.2 99.7h.5"/><path class="cls-23" d="M224.7 99.7h2.2v6h-2.2"/><path class="cls-18" d="M227.1 99.7h-.2M227.1 103.8l-2.1-2.1M225 105.7l2.1-1.9M225 101.9l2.1-2.2"/><path class="cls-23" d="M260.5 99.7h-5.8v6h5.8"/><path class="cls-18" d="M260.7 101.4l-1.7-1.7M260.7 105.3l-5.7-5.6M256.9 105.7l-1.9-2.1M257.1 105.7l3.6-3.6M255 104.1l4-4.4M255 100l.2-.3"/><path class="cls-20" d="M226.9 99.7v6M254.7 99.7v6M226.9 99.7v6M224.7 99.7h2.2M254.7 99.7v6M260.5 99.7h-5.8M224.7 106.9v-1.2M260.5 106.9v-1.2M224.7 99.7h2.2M260.5 99.7h-5.8M226.9 105.7h-2.2M254.7 105.7h5.8"/><path class="cls-18" d="M227.3 134.7c14.9 0 27.2-12.3 27.2-27.2M227.4 107.4v27.4"/><path class="cls-23" d="M139.3 21.3l7.4-7H57.9v7h-.2 81.6"/><path class="cls-18" d="M146.2 15l-.7-.7M144.1 16.9l-2.7-2.6M141.9 18.9l-4.5-4.6M140 20.8l-6.5-6.5M136.4 21.3l-7-7M132.3 21.3l-6.9-7M128.5 21.3l-7-7M124.4 21.3l-7-7M120.3 21.3l-6.9-7M116.5 21.3l-7-7M112.4 21.3l-7-7M108.3 21.3l-6.9-7M104.2 21.3l-6.9-7M100.4 21.3l-7-7M96.3 21.3l-6.9-7M92.2 21.3l-6.9-7M88.4 21.3l-7-7M84.3 21.3l-6.9-7M80.2 21.3l-6.9-7M76.2 21.3l-7-7M72.3 21.3l-6.9-7M68.2 21.3l-6.9-7M64.2 21.3l-6-6.3M60.3 21.3l-2.1-2.2M137.1 21.3l7-7M133 21.3l7-7M129.2 21.3l7-7M125.1 21.3l7-7M121 21.3l7-7M117.2 21.3l7-7M113.1 21.3l7-7M109 21.3l7-7M105 21.3l6.9-7M101.1 21.3l7-7M97 21.3l7-7M93 21.3l6.9-7M89.1 21.3l7-7M85 21.3l7-7M81 21.3l6.9-7M77.1 21.3l7-7M73 21.3l7-7M69 21.3l6.9-7M64.9 21.3l6.9-7M61 21.3l7-7M58.2 20.3l5.7-6M58.2 16.2l1.6-1.9"/><path class="cls-23" d="M139.3 21.3l7.4-7H57.9v7h-.2 81.6"/><path class="cls-18" d="M146.2 15l-.7-.7M144.1 16.9l-2.7-2.6M141.9 18.9l-4.5-4.6M140 20.8l-6.5-6.5M136.4 21.3l-7-7M132.3 21.3l-6.9-7M128.5 21.3l-7-7M124.4 21.3l-7-7M120.3 21.3l-6.9-7M116.5 21.3l-7-7M112.4 21.3l-7-7M108.3 21.3l-6.9-7M104.2 21.3l-6.9-7M100.4 21.3l-7-7M96.3 21.3l-6.9-7M92.2 21.3l-6.9-7M88.4 21.3l-7-7M84.3 21.3l-6.9-7M80.2 21.3l-6.9-7M76.2 21.3l-7-7M72.3 21.3l-6.9-7M68.2 21.3l-6.9-7M64.2 21.3l-6-6.3M60.3 21.3l-2.1-2.2M137.1 21.3l7-7M133 21.3l7-7M129.2 21.3l7-7M125.1 21.3l7-7M121 21.3l7-7M117.2 21.3l7-7M113.1 21.3l7-7M109 21.3l7-7M105 21.3l6.9-7M101.1 21.3l7-7M97 21.3l7-7M93 21.3l6.9-7M89.1 21.3l7-7M85 21.3l7-7M81 21.3l6.9-7M77.1 21.3l7-7M73 21.3l7-7M69 21.3l6.9-7M64.9 21.3l6.9-7M61 21.3l7-7M58.2 20.3l5.7-6M58.2 16.2l1.6-1.9"/><path class="cls-20" d="M57.7 21.3h81.6M57.9 14.3h88.8M57.9 14.3h88.8M57.7 21.3h81.6"/><path class="cls-23" d="M57.9 21.3l-5-4.4-8.7 1.7 1 5.1 12.7-2.4"/><path class="cls-18" d="M56.5 21.5l-4.3-4.3M53.1 22.2l-4.3-4.5M49.8 22.7l-4.4-4.3M46.4 23.4L45 22M56.7 21.5l.7-.7M51.7 22.5l3.6-3.6M46.9 23.4l6.2-6.2M45 21.3l3.3-3.4"/><path class="cls-23" d="M57.9 21.3l-5-4.4-8.7 1.7 1 5.1 12.7-2.4"/><path class="cls-18" d="M56.5 21.5l-4.3-4.3M53.1 22.2l-4.3-4.5M49.8 22.7l-4.4-4.3M46.4 23.4L45 22M56.7 21.5l.7-.7M51.7 22.5l3.6-3.6M46.9 23.4l6.2-6.2M45 21.3l3.3-3.4"/><path class="cls-20" d="M45.2 23.7l12.5-2.4M44.2 18.6l8.7-1.7M44.2 18.6l8.7-1.7M45.2 23.7l12.5-2.4M45.2 23.7l-1-5.1"/><path class="cls-23" d="M52.9 16.9l5 4.4v-7h-5v2.6"/><path class="cls-18" d="M58.2 15l-1-.7M58.2 19.1l-4.8-4.8M57.4 20.8l.8-.5M55.3 18.9l2.9-2.7M53.1 17.2l2.9-2.9"/><path class="cls-23" d="M52.9 16.9l5 4.4v-7h-5v2.6"/><path class="cls-18" d="M58.2 15l-1-.7M58.2 19.1l-4.8-4.8M57.4 20.8l.8-.5M55.3 18.9l2.9-2.7M53.1 17.2l2.9-2.9"/><path class="cls-20" d="M52.9 14.3v2.6M52.9 14.3v2.6M52.9 14.3h5"/><path class="cls-19" d="M367 57.3V23.4M359.6 57.3V23.4M351.9 57.3V23.4M344.2 57.3V23.4M336.6 57.3V23.4M328.9 57.3V23.4M321.2 57.3V23.4M313.5 57.3V23.4M248.5 58.7h122.4v5.8H248.5zM324.8 58.7l7.9-35.3M305.8 57.3V23.4M298.2 57.3V23.4M290.7 57.3V23.4M283 57.3V23.4M275.4 57.3V23.4M267.7 57.3V23.4M260 57.3V23.4M252.3 57.3V23.4"/><path class="cls-19" d="M247 57.3h125.3v8.6H247zM328.9 40.3l3.8-3.8M332.7 44.1l-3.8-3.8M332.7 36.4v7.7M252.4 40.3l3.8-3.8M256.2 44.1l-3.8-3.8M256.2 36.4v7.7M191.6 325.6v-57.4"/><path class="cls-6" d="M192.3 326.3v-58.1"/><path class="cls-19" d="M190.2 324.1v-55.9M191.6 325.6v-57.4"/><path class="cls-6" d="M191.6 268.2h.7"/><path class="cls-19" d="M190.2 268.2h1.4M192.3 326.3v-58.1M190.2 324.1v-55.9"/><path class="cls-23" d="M207.5 296.1c.9 1.3.9 3 0 4.3-1.5 1.9-3.8 2.9-6.2 2.9l-9-.3v-9.6l9-.3c2.4 0 4.7 1 6.2 2.9"/><path class="cls-19" d="M207.5 296.1c.9 1.3.9 3 0 4.3-1.5 1.9-3.8 2.9-6.2 2.9l-9-.3v-9.6l9-.3c2.4 0 4.7 1 6.2 2.9"/><path class="cls-23" d="M197.4 298.3c0-1 .3-2 1.1-2.8s1.7-1.2 2.7-1.2c2.1 0 4.1.9 5.4 2.5.6.9.6 2 0 2.9-1.3 1.6-3.3 2.5-5.4 2.5-1 0-2-.4-2.7-1.2s-1.1-1.8-1.1-2.8"/><path class="cls-19" d="M197.4 298.3c0-1 .3-2 1.1-2.8s1.7-1.2 2.7-1.2c2.1 0 4.1.9 5.4 2.5.6.9.6 2 0 2.9-1.3 1.6-3.3 2.5-5.4 2.5-1 0-2-.4-2.7-1.2s-1.1-1.8-1.1-2.8"/><path class="cls-23" d="M192.3 291.3h41.3v-22.8h-41.3v22.8"/><path class="cls-19" d="M192.3 268.5h41.3v22.8h-41.3zM194.2 268.5v22.8M183 325.6h8.6"/><path class="cls-6" d="M183 326.3h9.3"/><path class="cls-19" d="M183 324.1h7.2M183 325.6h8.6M183 326.3h9.3M183 324.1h7.2"/><path class="cls-23" d="M192.3 323.1h12.4c.1 0 .3-.1.4-.2.1-.1.2-.2.2-.4V308.8v-.4c0-.1-.1-.3-.2-.4-.1-.1-.2-.2-.4-.2h-12.4v15.6"/><path class="cls-19" d="M192.3 323.1h12.4c.1 0 .3-.1.4-.2.1-.1.2-.2.2-.4V308.8v-.4c0-.1-.1-.3-.2-.4-.1-.1-.2-.2-.4-.2h-12.4v15.6"/><path class="cls-23" d="M204.4 142c1.3.9 3 .9 4.3 0 1.9-1.5 2.9-3.8 2.9-6.2l-.3-9h-9.6l-.3 9c0 2.4 1 4.7 2.9 6.2"/><path class="cls-19" d="M204.4 142c1.3.9 3 .9 4.3 0 1.9-1.5 2.9-3.8 2.9-6.2l-.3-9h-9.6l-.3 9c0 2.4 1 4.7 2.9 6.2"/><path class="cls-23" d="M206.6 131.9c-1 0-2 .3-2.8 1.1-.7.7-1.2 1.7-1.2 2.7 0 2.1.9 4.1 2.5 5.4.9.6 2 .6 2.9 0 1.6-1.3 2.5-3.3 2.5-5.4 0-1-.4-2-1.2-2.7-.7-.7-1.8-1.1-2.8-1.1"/><path class="cls-19" d="M206.6 131.9c-1 0-2 .3-2.8 1.1-.7.7-1.2 1.7-1.2 2.7 0 2.1.9 4.1 2.5 5.4.9.6 2 .6 2.9 0 1.6-1.3 2.5-3.3 2.5-5.4 0-1-.4-2-1.2-2.7-.7-.7-1.8-1.1-2.8-1.1"/><path class="cls-23" d="M149.6 127.2v48.1h.1v.1l.1.1H170.7v-.1l.1-.1.1-.1v-48.1l-.1-.1-.1-.1v-.1H149.8l-.1.1v.1h-.1v.2"/><path class="cls-19" d="M149.6 127.2v48.1h.1v.1l.1.1H170.7v-.1l.1-.1.1-.1v-48.1l-.1-.1-.1-.1v-.1H149.8l-.1.1v.1h-.1v.2"/><path class="cls-23" d="M151.7 132.4v38.1c0 .2.1.4.2.6 0 .2.2.4.3.6.1.2.3.4.4.5.2.2.3.3.5.4l.6.3c.2 0 .4.1.6.2H165.9c.2 0 .4-.1.6-.2.2 0 .4-.2.6-.3.2-.1.4-.3.5-.4.2-.2.3-.3.4-.5l.3-.6c0-.2.2-.4.2-.6v-38.1-.7c0-.2-.1-.4-.2-.6 0-.2-.2-.4-.3-.6-.1-.2-.3-.4-.4-.5-.2-.2-.3-.3-.5-.4l-.6-.3c-.2 0-.4-.1-.6-.2H154.3c-.2 0-.4.1-.6.2-.2 0-.4.2-.6.3-.2.1-.4.3-.5.4-.2.2-.3.3-.4.5l-.3.6c0 .2-.2.4-.2.6v.7"/><path class="cls-19" d="M151.7 132.4v38.1c0 .2.1.4.2.6 0 .2.2.4.3.6.1.2.3.4.4.5.2.2.3.3.5.4l.6.3c.2 0 .4.1.6.2H165.9c.2 0 .4-.1.6-.2.2 0 .4-.2.6-.3.2-.1.4-.3.5-.4.2-.2.3-.3.4-.5l.3-.6c0-.2.2-.4.2-.6v-38.1-.7c0-.2-.1-.4-.2-.6 0-.2-.2-.4-.3-.6-.1-.2-.3-.4-.4-.5-.2-.2-.3-.3-.5-.4l-.6-.3c-.2 0-.4-.1-.6-.2H154.3c-.2 0-.4.1-.6.2-.2 0-.4.2-.6.3-.2.1-.4.3-.5.4-.2.2-.3.3-.4.5l-.3.6c0 .2-.2.4-.2.6v.7M220.4 126.1h-24.5"/><path class="cls-6" d="M220.4 126.9h-25.2"/><path class="cls-19" d="M220.4 124.7h-23M220.4 126.1h-24.5M220.4 126.9h-25.2M220.4 124.7h-23"/><path class="cls-6" d="M220.4 126.1v.8"/><path class="cls-19" d="M220.4 124.7v1.4M195.9 122.3h-18.5"/><path class="cls-6" d="M195.2 123h-17"/><path class="cls-19" d="M197.4 120.9H176M195.9 122.3h-18.5M195.2 123h-17M197.4 120.9H176M177.4 126.1h-28"/><path class="cls-6" d="M178.2 126.9h-28.8"/><path class="cls-19" d="M176 124.7h-26.6M177.4 126.1h-28"/><path class="cls-6" d="M149.4 126.1v.8"/><path class="cls-19" d="M149.4 124.7v1.4M178.2 126.9h-28.8M176 124.7h-26.6"/><path class="cls-23" d="M178.9 126.8v12.4c0 .1.1.3.2.4.1.1.2.2.4.2H193.6c.1 0 .3-.1.4-.2.1-.1.2-.2.2-.4v-12.4h-15.6"/><path class="cls-19" d="M178.9 126.8v12.4c0 .1.1.3.2.4.1.1.2.2.4.2H193.6c.1 0 .3-.1.4-.2.1-.1.2-.2.2-.4v-12.4h-15.6"/><path class="cls-17" d="M195.2 126.9V123"/><path class="cls-3" d="M195.2 123h-17"/><path class="cls-17" d="M178.2 123v3.9"/><path class="cls-19" d="M177.4 122.3v3.8"/><path class="cls-6" d="M178.2 123v3.9"/><path class="cls-19" d="M176 120.9v3.8M177.4 122.3v3.8M178.2 123v3.9M176 120.9v3.8M195.9 126.1v-3.8"/><path class="cls-6" d="M195.2 126.9V123"/><path class="cls-19" d="M197.4 124.7v-3.8M195.9 126.1v-3.8M195.2 126.9V123M197.4 124.7v-3.8"/><path class="cls-6" d="M195.2 126.9h-17"/><path class="cls-19" d="M201.9 197.4h17v.5h-17z"/><path class="cls-19" d="M218.2 182.1h.7v15.4h-.7zM201.9 182.1h.5v15.4h-.5zM219.4 190h.7v.5h-.7zM201.9 181.6h17v.5h-17zM184.9 197.4h17v.5h-17z"/><path class="cls-19" d="M201.4 182.1h.5v15.4h-.5zM184.9 182.1h.5v15.4h-.5zM184.9 181.6h17v.5h-17zM167.8 197.4h17v.5h-17z"/><path class="cls-19" d="M184.4 182.1h.5v15.4h-.5zM167.8 182.1h.7v15.4h-.7zM167.8 181.6h17v.5h-17zM150.8 197.4h17v.5h-17z"/><path class="cls-19" d="M167.4 182.1h.5v15.4h-.5zM150.8 182.1h.7v15.4h-.7zM150.8 181.6h17v.5h-17zM149.8 190h.5v.5h-.5zM219 181.6h.5v16.3h-.5zM150.3 181.6h.5v16.3h-.5z"/><path class="cls-20" d="M57.9 263.9v4.3"/><path class="cls-23" d="M342.6 263.9v4.3H84.1v-4.3h258.5"/><path class="cls-18" d="M84.3 264.4l.3-.5M84.6 268.2l4.3-4.3M88.6 268.2l4.4-4.3M93 268.2l4.3-4.3M97.3 268.2l4.3-4.3M101.6 268.2l4.3-4.3M105.7 268.2l4.3-4.3M110 268.2l4.3-4.3M114.3 268.2l4.3-4.3M118.4 268.2l4.3-4.3M122.7 268.2l4.3-4.3M127 268.2l4.4-4.3M131.4 268.2l4.3-4.3M135.4 268.2l4.4-4.3M139.8 268.2l4.3-4.3M144.1 268.2l4.3-4.3M148.2 268.2l4.3-4.3M152.5 268.2l4.3-4.3M156.8 268.2l4.3-4.3M161.1 268.2l4.3-4.3M165.2 268.2l4.3-4.3M169.5 268.2l4.3-4.3M173.8 268.2l4.4-4.3M177.9 268.2l4.3-4.3M182.2 268.2l4.4-4.3M186.6 268.2l4.3-4.3M190.6 268.2l4.4-4.3M195 268.2l4.3-4.3M199.3 268.2l4.3-4.3M203.6 268.2l4.3-4.3M207.7 268.2l4.3-4.3M212 268.2l4.3-4.3M216.3 268.2l4.3-4.3M220.4 268.2l4.3-4.3M224.7 268.2l4.3-4.3M229 268.2l4.4-4.3M233.4 268.2l4.3-4.3M237.4 268.2l4.4-4.3M241.8 268.2l4.3-4.3M246.1 268.2l4.3-4.3M250.2 268.2l4.3-4.3M254.5 268.2l4.3-4.3M258.8 268.2l4.3-4.3M263.1 268.2l4.3-4.3M267.2 268.2l4.3-4.3M271.5 268.2l4.3-4.3M275.8 268.2l4.4-4.3M279.9 268.2l4.3-4.3M284.2 268.2l4.4-4.3M288.6 268.2l4.3-4.3M292.6 268.2l4.4-4.3M297 268.2l4.3-4.3M301.3 268.2l4.3-4.3M305.6 268.2l4.3-4.3M309.7 268.2l4.3-4.3M314 268.2l4.3-4.3M318.3 268.2l4.3-4.3M322.4 268.2l4.3-4.3M326.7 268.2l4.3-4.3M331 268.2l4.4-4.3M335.4 268.2l4.3-4.3M339.4 268.2l3.4-3.1"/><path class="cls-23" d="M342.6 268.2v-4.3H84.1v4.3h258.5"/><path class="cls-18" d="M84.3 264.4l.3-.5M84.6 268.2l4.3-4.3M88.6 268.2l4.4-4.3M93 268.2l4.3-4.3M97.3 268.2l4.3-4.3M101.6 268.2l4.3-4.3M105.7 268.2l4.3-4.3M110 268.2l4.3-4.3M114.3 268.2l4.3-4.3M118.4 268.2l4.3-4.3M122.7 268.2l4.3-4.3M127 268.2l4.4-4.3M131.4 268.2l4.3-4.3M135.4 268.2l4.4-4.3M139.8 268.2l4.3-4.3M144.1 268.2l4.3-4.3M148.2 268.2l4.3-4.3M152.5 268.2l4.3-4.3M156.8 268.2l4.3-4.3M161.1 268.2l4.3-4.3M165.2 268.2l4.3-4.3M169.5 268.2l4.3-4.3M173.8 268.2l4.4-4.3M177.9 268.2l4.3-4.3M182.2 268.2l4.4-4.3M186.6 268.2l4.3-4.3M190.6 268.2l4.4-4.3M195 268.2l4.3-4.3M199.3 268.2l4.3-4.3M203.6 268.2l4.3-4.3M207.7 268.2l4.3-4.3M212 268.2l4.3-4.3M216.3 268.2l4.3-4.3M220.4 268.2l4.3-4.3M224.7 268.2l4.3-4.3M229 268.2l4.4-4.3M233.4 268.2l4.3-4.3M237.4 268.2l4.4-4.3M241.8 268.2l4.3-4.3M246.1 268.2l4.3-4.3M250.2 268.2l4.3-4.3M254.5 268.2l4.3-4.3M258.8 268.2l4.3-4.3M263.1 268.2l4.3-4.3M267.2 268.2l4.3-4.3M271.5 268.2l4.3-4.3M275.8 268.2l4.4-4.3M279.9 268.2l4.3-4.3M284.2 268.2l4.4-4.3M288.6 268.2l4.3-4.3M292.6 268.2l4.4-4.3M297 268.2l4.3-4.3M301.3 268.2l4.3-4.3M305.6 268.2l4.3-4.3M309.7 268.2l4.3-4.3M314 268.2l4.3-4.3M318.3 268.2l4.3-4.3M322.4 268.2l4.3-4.3M326.7 268.2l4.3-4.3M331 268.2l4.4-4.3M335.4 268.2l4.3-4.3M339.4 268.2l3.4-3.1"/><path class="cls-20" d="M145 263.9H84.1M220.4 263.9h-71M342.6 263.9H224.7M178.6 268.2H84.1M233.8 268.2H183M342.6 268.2H238.2M178.6 268.2H84.1M145 263.9H84.1M220.4 263.9h-71M233.8 268.2H183M342.6 263.9H224.7M342.6 268.2H238.2M368.5 263.9v4.3"/><path class="cls-19" d="M366.8 263.9v4.3M344.2 263.9v4.3"/><path class="cls-20" d="M368.5 263.9v4.3M342.6 263.9v4.3"/><path class="cls-18" d="M344.2 290.9c6 0 11.8-2.4 16-6.6 4.3-4.3 6.6-10 6.6-16M344.2 268.2v22.6"/><path class="cls-19" d="M82.2 263.9v4.3M59.6 263.9v4.3"/><path class="cls-20" d="M84.1 263.9v4.3M57.9 263.9v4.3"/><path class="cls-18" d="M59.6 268.2c0 12.4 10.2 22.7 22.7 22.7M82.2 268.2v22.6"/><path class="cls-19" d="M150.3 237.3h69.1v17.3h-69.1zM219 239.7v-2.4M201.9 239.7v-2.4M184.9 239.7v-2.4M167.8 239.7v-2.4M150.8 239.7v-2.4"/><path class="cls-23" d="M151.8 249.7v-8.9-.4c0-.1 0-.3.1-.4 0-.1.1-.2.2-.3 0-.1.2-.2.2-.3s.2-.2.3-.2c.1 0 .2-.1.3-.2.1 0 .2 0 .4-.1h12c.1 0 .3 0 .4.1.1 0 .2.1.3.2.1 0 .2.2.3.2 0 0 .2.2.2.3 0 .1.1.2.2.3 0 .1 0 .2.1.4V250.1c0 .1 0 .3-.1.4 0 .1-.1.2-.2.3 0 .1-.2.2-.2.3 0 0-.2.2-.3.2-.1 0-.2.1-.3.2-.1 0-.2 0-.4.1h-12c-.1 0-.3 0-.4-.1-.1 0-.2-.1-.3-.2-.1 0-.2-.2-.3-.2 0 0-.2-.2-.2-.3 0-.1-.1-.2-.2-.3 0-.1 0-.2-.1-.4v-.4"/><path class="cls-19" d="M151.8 249.7v-8.9-.4c0-.1 0-.3.1-.4 0-.1.1-.2.2-.3 0-.1.2-.2.2-.3s.2-.2.3-.2c.1 0 .2-.1.3-.2.1 0 .2 0 .4-.1h12c.1 0 .3 0 .4.1.1 0 .2.1.3.2.1 0 .2.2.3.2 0 0 .2.2.2.3 0 .1.1.2.2.3 0 .1 0 .2.1.4V250.1c0 .1 0 .3-.1.4 0 .1-.1.2-.2.3 0 .1-.2.2-.2.3 0 0-.2.2-.3.2-.1 0-.2.1-.3.2-.1 0-.2 0-.4.1h-12c-.1 0-.3 0-.4-.1-.1 0-.2-.1-.3-.2-.1 0-.2-.2-.3-.2 0 0-.2-.2-.2-.3 0-.1-.1-.2-.2-.3 0-.1 0-.2-.1-.4v-.4"/><path class="cls-23" d="M160.4 248.4c0-.6-.5-1.1-1.1-1.1s-1.1.5-1.1 1.1.5 1.1 1.1 1.1 1.1-.5 1.1-1.1"/><path class="cls-19" d="M160.4 248.4c0-.6-.5-1.1-1.1-1.1s-1.1.5-1.1 1.1.5 1.1 1.1 1.1 1.1-.5 1.1-1.1"/><path class="cls-22" d="M185.4 238.7h16.1v14.6h-16.1z"/><path class="cls-19" d="M185.4 238.7h16.1v14.6h-16.1z"/><path class="cls-23" d="M200.2 243.5c0-1.6-1.3-2.9-2.9-2.9s-2.9 1.3-2.9 2.9 1.3 2.9 2.9 2.9 2.9-1.3 2.9-2.9"/><path class="cls-19" d="M200.2 243.5c0-1.6-1.3-2.9-2.9-2.9s-2.9 1.3-2.9 2.9 1.3 2.9 2.9 2.9 2.9-1.3 2.9-2.9"/><path class="cls-23" d="M200.7 250.2c0-1.2-1-2.2-2.3-2.2s-2.3 1-2.3 2.2 1 2.2 2.3 2.2 2.3-1 2.3-2.2"/><path class="cls-19" d="M200.7 250.2c0-1.2-1-2.2-2.3-2.2s-2.3 1-2.3 2.2 1 2.2 2.3 2.2 2.3-1 2.3-2.2"/><path class="cls-23" d="M192.1 243.5c0-1.2-1-2.2-2.2-2.2s-2.2 1-2.2 2.2 1 2.2 2.2 2.2 2.2-1 2.2-2.2"/><path class="cls-19" d="M192.1 243.5c0-1.2-1-2.2-2.2-2.2s-2.2 1-2.2 2.2 1 2.2 2.2 2.2 2.2-1 2.2-2.2"/><path class="cls-23" d="M193 249.9c0-1.5-1.3-2.8-2.9-2.8s-2.9 1.2-2.9 2.8 1.3 2.8 2.9 2.8 2.9-1.2 2.9-2.8"/><path class="cls-19" d="M193 249.9c0-1.5-1.3-2.8-2.9-2.8s-2.9 1.2-2.9 2.8 1.3 2.8 2.9 2.8 2.9-1.2 2.9-2.8"/><path class="cls-1" d="M150.3 244.7h69.1"/><path class="cls-19" d="M219 244.7h.4M149.4 255.3h71"/><path class="cls-6" d="M149.4 254.5h71"/><path class="cls-19" d="M149.4 256.7h71M149.4 255.3h71"/><path class="cls-6" d="M220.4 255.3v-.8"/><path class="cls-19" d="M220.4 256.7v-1.4M149.4 254.5h71M149.4 256.7h71"/><path class="cls-6" d="M149.4 255.3v-.8"/><path class="cls-19" d="M149.4 256.7v-1.4"/><path class="cls-23" d="M145 245.2v18.7h4.4v-18.7H145"/><path class="cls-18" d="M145.3 245.9l.5-.7M145.3 250l4.3-4.3M145.3 254.3l4.3-4.3M145.3 258.6l4.3-4.3M145.3 262.7l4.3-4.3M148.4 263.9l1.2-1.2"/><path class="cls-23" d="M145 245.2v18.7h4.4v-18.7H145"/><path class="cls-18" d="M145.3 245.9l.5-.7M145.3 250l4.3-4.3M145.3 254.3l4.3-4.3M145.3 258.6l4.3-4.3M145.3 262.7l4.3-4.3M148.4 263.9l1.2-1.2"/><path class="cls-20" d="M149.4 263.9v-18.7M145 263.9v-18.7M149.4 245.2H145M145 263.9v-18.7M149.4 263.9v-18.7"/><path class="cls-23" d="M220.4 245.2v18.7h4.3v-18.7h-4.3"/><path class="cls-18" d="M220.6 246.9l1.7-1.7M220.6 251.2l4.4-4.3M220.6 255.5l4.4-4.3M220.6 259.8l4.4-4.3M220.6 263.9l4.4-4.3M224.7 263.9h.3"/><path class="cls-23" d="M220.4 245.2v18.7h4.3v-18.7h-4.3"/><path class="cls-18" d="M220.6 246.9l1.7-1.7M220.6 251.2l4.4-4.3M220.6 255.5l4.4-4.3M220.6 259.8l4.4-4.3M220.6 263.9l4.4-4.3M224.7 263.9h.3"/><path class="cls-20" d="M224.7 263.9v-18.7M220.4 263.9v-18.7M224.7 245.2h-4.3M220.4 263.9v-18.7M224.7 263.9v-18.7"/><path class="cls-23" d="M149.4 190.2H145v-71.3h4.4v71.3"/><path class="cls-18" d="M145.3 122.5l3.6-3.6M145.3 126.9l4.3-4.4M145.3 131.2l4.3-4.3M145.3 135.3l4.3-4.4M145.3 139.6l4.3-4.3M145.3 143.9l4.3-4.3M145.3 148l4.3-4.3M145.3 152.3l4.3-4.3M145.3 156.6l4.3-4.3M145.3 160.7l4.3-4.3M145.3 165l4.3-4.3M145.3 169.3l4.3-4.3M145.3 173.7l4.3-4.4M145.3 177.7l4.3-4.3M145.3 182.1l4.3-4.4M145.3 186.4l4.3-4.3M145.5 190.2l4.1-4.1"/><path class="cls-23" d="M145 190.2h4.4v-71.3H145v71.3"/><path class="cls-18" d="M145.3 122.5l3.6-3.6M145.3 126.9l4.3-4.4M145.3 131.2l4.3-4.3M145.3 135.3l4.3-4.4M145.3 139.6l4.3-4.3M145.3 143.9l4.3-4.3M145.3 148l4.3-4.3M145.3 152.3l4.3-4.3M145.3 156.6l4.3-4.3M145.3 160.7l4.3-4.3M145.3 165l4.3-4.3M145.3 169.3l4.3-4.3M145.3 173.7l4.3-4.4M145.3 177.7l4.3-4.3M145.3 182.1l4.3-4.4M145.3 186.4l4.3-4.3M145.5 190.2l4.1-4.1"/><path class="cls-20" d="M149.4 175.6v-56.7M149.4 190.2v-11M145 190.2v-71.3M149.4 118.9H145M145 190.2v-71.3M149.4 175.6v-56.7M149.4 190.2v-11M149.4 190.2H145"/><path class="cls-23" d="M224.7 146.1h-4.3v-39.2h4.3v39.2"/><path class="cls-18" d="M220.6 111l3.9-4.1M220.6 115.1l4.4-4.3M220.6 119.4l4.4-4.3M220.6 123.7l4.4-4.3M220.6 128.1l4.4-4.4M220.6 132.1l4.4-4.3M220.6 136.5l4.4-4.4M220.6 140.8l4.4-4.3M220.6 144.9l4.4-4.4M223.8 146.1l1.2-1.2"/><path class="cls-23" d="M220.4 146.1h4.3v-39.2h-4.3v39.2"/><path class="cls-18" d="M220.6 111l3.9-4.1M220.6 115.1l4.4-4.3M220.6 119.4l4.4-4.3M220.6 123.7l4.4-4.3M220.6 128.1l4.4-4.4M220.6 132.1l4.4-4.3M220.6 136.5l4.4-4.4M220.6 140.8l4.4-4.3M220.6 144.9l4.4-4.4M223.8 146.1l1.2-1.2"/><path class="cls-20" d="M224.7 146.1v-39.2M220.4 146.1v-39.2M224.7 106.9h-4.3M220.4 146.1v-39.2M224.7 146.1v-39.2"/><path class="cls-23" d="M224.7 190.2h-4.3v-18.9h4.3v18.9"/><path class="cls-18" d="M220.6 174.6l3.4-3.3M220.6 178.9l4.4-4.3M220.6 183.3l4.4-4.4M220.6 187.3l4.4-4.3M222.1 190.2l2.9-2.9"/><path class="cls-23" d="M220.4 190.2h4.3v-18.9h-4.3v18.9"/><path class="cls-18" d="M220.6 174.6l3.4-3.3M220.6 178.9l4.4-4.3M220.6 183.3l4.4-4.4M220.6 187.3l4.4-4.3M222.1 190.2l2.9-2.9"/><path class="cls-20" d="M224.7 190.2v-18.9M220.4 175.6v-4.3M220.4 190.2v-9.8M220.4 175.6v-4.3M224.7 190.2v-18.9M220.4 190.2v-9.8M224.7 190.2h-4.3"/><path class="cls-1" d="M224.7 171.3v-25.2M220.4 171.3v-25.2"/><path class="cls-19" d="M224.7 170.1h-4.3M224.7 147.3h-4.3"/><path class="cls-20" d="M224.7 171.3h-4.3M224.7 146.1h-4.3"/><path class="cls-18" d="M220.5 147.3c-12.4 0-22.7 10.2-22.7 22.7M220.4 170.1h-22.6"/><path class="cls-23" d="M220.4 180.4v-4.8h-54v4.8h54"/><path class="cls-18" d="M166.6 177.7l2-2.1M168.1 180.4l4.8-4.8M172.4 180.4l4.8-4.8M176.5 180.4l4.8-4.8M180.8 180.4l4.8-4.8M185.1 180.4l4.8-4.8M189.4 180.4l4.8-4.8M193.5 180.4l4.8-4.8M197.8 180.4l4.8-4.8M202.2 180.4l4.8-4.8M206.2 180.4l4.8-4.8M210.6 180.4l4.8-4.8M214.9 180.4l4.8-4.8M219.2 180.4l1.4-1.5"/><path class="cls-23" d="M220.4 180.4v-4.8h-54v4.8h54"/><path class="cls-18" d="M166.6 177.7l2-2.1M168.1 180.4l4.8-4.8M172.4 180.4l4.8-4.8M176.5 180.4l4.8-4.8M180.8 180.4l4.8-4.8M185.1 180.4l4.8-4.8M189.4 180.4l4.8-4.8M193.5 180.4l4.8-4.8M197.8 180.4l4.8-4.8M202.2 180.4l4.8-4.8M206.2 180.4l4.8-4.8M210.6 180.4l4.8-4.8M214.9 180.4l4.8-4.8M219.2 180.4l1.4-1.5"/><path class="cls-20" d="M166.4 180.4h54M166.4 175.6h54M166.4 175.6h54M166.4 180.4h54M166.4 179.2v1.2"/><path class="cls-23" d="M260.5 106.9v83.3l4.3-4.3v-79h-4.3"/><path class="cls-18" d="M260.7 109.1l2.2-2.2M260.7 113.4l4.3-4.3M260.7 117.7l4.3-4.3M260.7 121.8l4.3-4.3M260.7 126.1l4.3-4.3M260.7 130.5l4.3-4.4M260.7 134.5l4.3-4.3M260.7 138.9l4.3-4.4M260.7 143.2l4.3-4.3M260.7 147.3l4.3-4.4M260.7 151.6l4.3-4.3M260.7 155.9l4.3-4.3M260.7 160.2l4.3-4.3M260.7 164.3l4.3-4.3M260.7 168.6l4.3-4.3M260.7 172.9l4.3-4.3M260.7 177l4.3-4.3M260.7 181.3l4.3-4.3M260.7 185.7l4.3-4.4M260.7 190l4.3-4.3"/><path class="cls-23" d="M260.5 106.9v83.3l4.3-4.3v-79h-4.3"/><path class="cls-18" d="M260.7 109.1l2.2-2.2M260.7 113.4l4.3-4.3M260.7 117.7l4.3-4.3M260.7 121.8l4.3-4.3M260.7 126.1l4.3-4.3M260.7 130.5l4.3-4.4M260.7 134.5l4.3-4.3M260.7 138.9l4.3-4.4M260.7 143.2l4.3-4.3M260.7 147.3l4.3-4.4M260.7 151.6l4.3-4.3M260.7 155.9l4.3-4.3M260.7 160.2l4.3-4.3M260.7 164.3l4.3-4.3M260.7 168.6l4.3-4.3M260.7 172.9l4.3-4.3M260.7 177l4.3-4.3M260.7 181.3l4.3-4.3M260.7 185.7l4.3-4.4M260.7 190l4.3-4.3"/><path class="cls-20" d="M264.8 185.9v-79M260.5 190.2v-83.3M264.8 106.9h-4.3M260.5 190.2v-83.3M264.8 185.9v-79"/><path class="cls-23" d="M264.8 185.9l-4.3 4.3h82.1v-4.3h-77.8"/><path class="cls-18" d="M264.6 190.2l4.3-4.3M268.6 190.2l4.4-4.3M273 190.2l4.3-4.3M277.3 190.2l4.3-4.3M281.6 190.2l4.3-4.3M285.7 190.2l4.3-4.3M290 190.2l4.3-4.3M294.3 190.2l4.3-4.3M298.4 190.2l4.3-4.3M302.7 190.2l4.3-4.3M307 190.2l4.4-4.3M311.4 190.2l4.3-4.3M315.4 190.2l4.4-4.3M319.8 190.2l4.3-4.3M324.1 190.2l4.3-4.3M328.2 190.2l4.3-4.3M332.5 190.2l4.3-4.3M336.8 190.2l4.3-4.3M341.1 190.2l1.7-1.7"/><path class="cls-23" d="M264.8 185.9l-4.3 4.3h82.1v-4.3h-77.8"/><path class="cls-18" d="M264.6 190.2l4.3-4.3M268.6 190.2l4.4-4.3M273 190.2l4.3-4.3M277.3 190.2l4.3-4.3M281.6 190.2l4.3-4.3M285.7 190.2l4.3-4.3M290 190.2l4.3-4.3M294.3 190.2l4.3-4.3M298.4 190.2l4.3-4.3M302.7 190.2l4.3-4.3M307 190.2l4.4-4.3M311.4 190.2l4.3-4.3M315.4 190.2l4.4-4.3M319.8 190.2l4.3-4.3M324.1 190.2l4.3-4.3M328.2 190.2l4.3-4.3M332.5 190.2l4.3-4.3M336.8 190.2l4.3-4.3M341.1 190.2l1.7-1.7"/><path class="cls-20" d="M342.6 185.9h-77.8M342.6 190.2h-82.1M342.6 190.2h-82.1M342.6 185.9h-77.8M368.5 185.9v4.3"/><path class="cls-19" d="M366.8 185.9v4.3M344.2 185.9v4.3"/><path class="cls-20" d="M368.5 185.9v4.3M342.6 185.9v4.3"/><path class="cls-18" d="M366.9 185.9c0-12.4-10.2-22.7-22.7-22.7M344.2 185.9v-22.8"/><path class="cls-23" d="M183 268.2h-4.4v59.3h4.4v-59.3"/><path class="cls-18" d="M178.9 271.8l3.3-3.6M178.9 275.9l4.3-4.3M178.9 280.2l4.3-4.3M178.9 284.5l4.3-4.3M178.9 288.6l4.3-4.3M178.9 292.9l4.3-4.3M178.9 297.3l4.3-4.4M178.9 301.6l4.3-4.3M178.9 305.7l4.3-4.4M178.9 310l4.3-4.3M178.9 314.3l4.3-4.3M178.9 318.4l4.3-4.3M178.9 322.7l4.3-4.3M178.9 327l4.3-4.3M182.5 327.5l.7-.7"/><path class="cls-23" d="M183 268.2h-4.4v59.3h4.4v-59.3"/><path class="cls-18" d="M178.9 271.8l3.3-3.6M178.9 275.9l4.3-4.3M178.9 280.2l4.3-4.3M178.9 284.5l4.3-4.3M178.9 288.6l4.3-4.3M178.9 292.9l4.3-4.3M178.9 297.3l4.3-4.4M178.9 301.6l4.3-4.3M178.9 305.7l4.3-4.4M178.9 310l4.3-4.3M178.9 314.3l4.3-4.3M178.9 318.4l4.3-4.3M178.9 322.7l4.3-4.3M178.9 327l4.3-4.3M182.5 327.5l.7-.7"/><path class="cls-20" d="M183 327.5v-59.3M178.6 327.5v-59.3M178.6 327.5v-59.3M183 327.5v-59.3M183 354.1h-4.4"/><path class="cls-19" d="M183 352.2h-4.4M183 329.4h-4.4"/><path class="cls-20" d="M183 354.1h-4.4M183 327.5h-4.4"/><path class="cls-18" d="M205.6 352.1c0-12.4-10.2-22.7-22.7-22.7M183 352.2h22.5"/><path class="cls-23" d="M238.2 268.2h-4.4v59.3h4.4v-59.3"/><path class="cls-18" d="M234.1 271.8l3.3-3.6M234.1 275.9l4.3-4.3M234.1 280.2l4.3-4.3M234.1 284.5l4.3-4.3M234.1 288.9l4.3-4.4M234.1 292.9l4.3-4.3M234.1 297.3l4.3-4.4M234.1 301.6l4.3-4.3M234.1 305.7l4.3-4.4M234.1 310l4.3-4.3M234.1 314.3l4.3-4.3M234.1 318.6l4.3-4.3M234.1 322.7l4.3-4.3M234.1 327l4.3-4.3M237.7 327.5l.7-.5"/><path class="cls-23" d="M238.2 268.2h-4.4v59.3h4.4v-59.3"/><path class="cls-18" d="M234.1 271.8l3.3-3.6M234.1 275.9l4.3-4.3M234.1 280.2l4.3-4.3M234.1 284.5l4.3-4.3M234.1 288.9l4.3-4.4M234.1 292.9l4.3-4.3M234.1 297.3l4.3-4.4M234.1 301.6l4.3-4.3M234.1 305.7l4.3-4.4M234.1 310l4.3-4.3M234.1 314.3l4.3-4.3M234.1 318.6l4.3-4.3M234.1 322.7l4.3-4.3M234.1 327l4.3-4.3M237.7 327.5l.7-.5"/><path class="cls-20" d="M238.2 327.5v-59.3M233.8 327.5v-59.3M233.8 327.5v-59.3M238.2 327.5v-59.3M238.2 354.1h-4.4"/><path class="cls-19" d="M238.2 352.2h-4.4M238.2 329.4h-4.4"/><path class="cls-20" d="M238.2 354.1h-4.4M238.2 327.5h-4.4"/><path class="cls-18" d="M233.9 329.5c-12.4 0-22.7 10.2-22.7 22.7M233.8 352.2h-22.5"/><path class="cls-22" d="M153 179.4h9.8v2.6H153z"/><path class="cls-19" d="M153 179.4h9.8v2.6H153z"/><path class="cls-22" d="M152.7 182.1H163v.2h-10.3z"/><path class="cls-19" d="M152.7 182.1H163v.2h-10.3z"/><path class="cls-16" d="M153.7 182.3v8.4"/><path class="cls-5" d="M162.1 182.3l-.3 1.4-.4 1.7-.8 1.5-.9 1.4-1.5 1-1.4.7-1.7.5-1.4.2"/><path class="cls-23" d="M149.4 175.6v3.6h17v-3.6h-17"/><path class="cls-18" d="M149.6 177.7l2.2-2.1M152.2 179.2l3.6-3.6M156.6 179.2l3.6-3.6M160.9 179.2l3.6-3.6M165 179.2l1.6-1.5"/><path class="cls-23" d="M149.4 175.6v3.6h17v-3.6h-17"/><path class="cls-18" d="M149.6 177.7l2.2-2.1M152.2 179.2l3.6-3.6M156.6 179.2l3.6-3.6M160.9 179.2l3.6-3.6M165 179.2l1.6-1.5"/><path class="cls-20" d="M166.4 175.6h-17M166.4 179.2h-17M166.4 179.2h-17M166.4 175.6h-17"/><path class="cls-23" d="M139.3 118.9l7.4-9.1V14.3l-7.4 7v97.6"/><path class="cls-18" d="M147 15.7l-.8-.7M147 19.6l-2.9-2.7M147 23.7l-5.1-4.8M147 27.7l-7-6.9M147 31.6l-7.5-7.5M147 35.7l-7.5-7.5M147 39.7l-7.5-7.4M147 43.8l-7.5-7.4M147 47.7l-7.5-7.5M147 51.7l-7.5-7.4M147 55.8l-7.5-7.4M147 59.7l-7.5-7.5M147 63.7l-7.5-7.4M147 67.8l-7.5-7.4M147 71.9l-7.5-7.4M147 75.7l-7.5-7.4M147 79.8l-7.5-7.4M147 83.9l-7.5-7.4M147 87.7l-7.5-7.4M147 91.8l-7.5-7.4M147 95.9l-7.5-7.4M147 99.7l-7.5-7.4M147 103.8l-7.5-7.4M147 107.9l-7.5-7.4M146 111l-6.5-6.5M144.1 113.2l-4.6-4.8M142.4 115.3l-2.9-2.8M140.5 117.5l-1-1M139.5 115.3l7.5-7.4M139.5 111.3l7.5-7.5M139.5 107.2l7.5-7.5M139.5 103.1l7.5-7.4M139.5 99.3l7.5-7.5M139.5 95.2l7.5-7.5M139.5 91.1l7.5-7.4M139.5 87.3l7.5-7.5M139.5 83.2l7.5-7.5M139.5 79.1l7.5-7.4M139.5 75l7.5-7.4M139.5 71.2l7.5-7.5M139.5 67.1l7.5-7.4M139.5 63l7.5-7.4M139.5 59.2l7.5-7.5M139.5 55.1l7.5-7.4M139.5 51l7.5-7.4M139.5 47.2l7.5-7.5M139.5 43.1l7.5-7.4M139.5 39l7.5-7.4M139.5 34.9l7.5-7.4M139.5 31.1l7.5-7.4M139.5 27l7.5-7.4M139.5 22.9l7.5-7.4"/><path class="cls-23" d="M139.3 118.9l7.4-9.1V14.3l-7.4 7v97.6"/><path class="cls-18" d="M147 15.7l-.8-.7M147 19.6l-2.9-2.7M147 23.7l-5.1-4.8M147 27.7l-7-6.9M147 31.6l-7.5-7.5M147 35.7l-7.5-7.5M147 39.7l-7.5-7.4M147 43.8l-7.5-7.4M147 47.7l-7.5-7.5M147 51.7l-7.5-7.4M147 55.8l-7.5-7.4M147 59.7l-7.5-7.5M147 63.7l-7.5-7.4M147 67.8l-7.5-7.4M147 71.9l-7.5-7.4M147 75.7l-7.5-7.4M147 79.8l-7.5-7.4M147 83.9l-7.5-7.4M147 87.7l-7.5-7.4M147 91.8l-7.5-7.4M147 95.9l-7.5-7.4M147 99.7l-7.5-7.4M147 103.8l-7.5-7.4M147 107.9l-7.5-7.4M146 111l-6.5-6.5M144.1 113.2l-4.6-4.8M142.4 115.3l-2.9-2.8M140.5 117.5l-1-1M139.5 115.3l7.5-7.4M139.5 111.3l7.5-7.5M139.5 107.2l7.5-7.5M139.5 103.1l7.5-7.4M139.5 99.3l7.5-7.5M139.5 95.2l7.5-7.5M139.5 91.1l7.5-7.4M139.5 87.3l7.5-7.5M139.5 83.2l7.5-7.5M139.5 79.1l7.5-7.4M139.5 75l7.5-7.4M139.5 71.2l7.5-7.5M139.5 67.1l7.5-7.4M139.5 63l7.5-7.4M139.5 59.2l7.5-7.5M139.5 55.1l7.5-7.4M139.5 51l7.5-7.4M139.5 47.2l7.5-7.5M139.5 43.1l7.5-7.4M139.5 39l7.5-7.4M139.5 34.9l7.5-7.4M139.5 31.1l7.5-7.4M139.5 27l7.5-7.4M139.5 22.9l7.5-7.4"/><path class="cls-20" d="M139.3 21.3v97.6M146.7 64.5v45.3M146.7 14.3v43M146.7 64.5v45.3M139.3 21.3v97.6M146.7 14.3v43"/><path class="cls-23" d="M208.6 118.9l-7.2-9.1h-54.7l-7.4 9.1h69.3"/><path class="cls-18" d="M204.1 112.9l-3.1-3.1M206 118.9l-9.1-9.1M201.9 118.9l-9.1-9.1M198.1 118.9l-9.1-9.1M194 118.9l-9.1-9.1M189.9 118.9l-9.1-9.1M186.1 118.9l-9.1-9.1M182 118.9l-9.1-9.1M177.9 118.9l-9.1-9.1M173.8 118.9l-9.1-9.1M170 118.9l-9.1-9.1M165.9 118.9l-9.1-9.1M161.8 118.9l-9.1-9.1M158 118.9l-9.1-9.1M153.9 118.9L146 111M149.8 118.9l-5.7-5.7M146 118.9l-3.6-3.6M141.9 118.9l-1.4-1.4M207.9 118.9l.5-.4M203.8 118.9l2.7-2.6M199.8 118.9l5-5M195.9 118.9l7.2-7.2M191.8 118.9l9.2-9.1M187.8 118.9l9.1-9.1M183.7 118.9l9.1-9.1M179.8 118.9l9.2-9.1M175.8 118.9l9.1-9.1M171.7 118.9l9.1-9.1M167.8 118.9l9.2-9.1M163.8 118.9l9.1-9.1M159.7 118.9l9.1-9.1M155.8 118.9l9.2-9.1M151.8 118.9l9.1-9.1M147.7 118.9l9.1-9.1M143.6 118.9l9.1-9.1M139.8 118.9l9.1-9.1"/><path class="cls-23" d="M208.6 118.9l-7.2-9.1h-54.7l-7.4 9.1h69.3"/><path class="cls-18" d="M204.1 112.9l-3.1-3.1M206 118.9l-9.1-9.1M201.9 118.9l-9.1-9.1M198.1 118.9l-9.1-9.1M194 118.9l-9.1-9.1M189.9 118.9l-9.1-9.1M186.1 118.9l-9.1-9.1M182 118.9l-9.1-9.1M177.9 118.9l-9.1-9.1M173.8 118.9l-9.1-9.1M170 118.9l-9.1-9.1M165.9 118.9l-9.1-9.1M161.8 118.9l-9.1-9.1M158 118.9l-9.1-9.1M153.9 118.9L146 111M149.8 118.9l-5.7-5.7M146 118.9l-3.6-3.6M141.9 118.9l-1.4-1.4M207.9 118.9l.5-.4M203.8 118.9l2.7-2.6M199.8 118.9l5-5M195.9 118.9l7.2-7.2M191.8 118.9l9.2-9.1M187.8 118.9l9.1-9.1M183.7 118.9l9.1-9.1M179.8 118.9l9.2-9.1M175.8 118.9l9.1-9.1M171.7 118.9l9.1-9.1M167.8 118.9l9.2-9.1M163.8 118.9l9.1-9.1M159.7 118.9l9.1-9.1M155.8 118.9l9.2-9.1M151.8 118.9l9.1-9.1M147.7 118.9l9.1-9.1M143.6 118.9l9.1-9.1M139.8 118.9l9.1-9.1"/><path class="cls-20" d="M139.3 118.9h69.3M146.7 109.8h54.7M146.7 109.8h54.7M139.3 118.9h69.3"/><path class="cls-23" d="M208.6 106.9h-7.2v2.9l7.2 9.1v-12"/><path class="cls-18" d="M208.9 109.6l-2.9-2.7M208.9 113.7l-6.7-6.8M208.9 117.7l-4.8-4.8M208.4 118.5l.5-.5M206.5 116.3l2.4-2.4M204.8 113.9l4.1-3.8M203.1 111.7l4.8-4.8M201.7 109.1l2.1-2.2"/><path class="cls-23" d="M208.6 106.9h-7.2v2.9l7.2 9.1v-12"/><path class="cls-18" d="M208.9 109.6l-2.9-2.7M208.9 113.7l-6.7-6.8M208.9 117.7l-4.8-4.8M208.4 118.5l.5-.5M206.5 116.3l2.4-2.4M204.8 113.9l4.1-3.8M203.1 111.7l4.8-4.8M201.7 109.1l2.1-2.2"/><path class="cls-20" d="M208.6 118.9v-12M201.4 109.8v-2.9M201.4 109.8v-2.9M208.6 118.9v-12"/><path class="cls-23" d="M57.9 118.9v-4.3l-12.7-2.4-1 5.1 8.7 1.6h5"/><path class="cls-18" d="M58.2 115.3l-1-.9M57.7 118.9l-5.3-5.5M53.6 118.9l-6.2-6.2M48.8 118.2l-3.8-4.1M55.5 118.9l2.7-2.6M51.7 118.7l4.5-4.3M48.3 118l4.6-4.3M45 117.5l4.5-4.6M45.2 113.2l1-.7"/><path class="cls-20" d="M57.9 118.9v-4.3l-12.7-2.4-1 5.1 8.7 1.6h5z"/><path class="cls-18" d="M373.7 307.5h-1.9c-.6 0-1.2.2-1.8.3-.6.1-1.2.3-1.8.5l-1.8.6c-.6.2-1.1.5-1.7.8-.5.3-1.1.6-1.6 1-.5.3-1 .7-1.5 1.1-.5.4-.9.8-1.4 1.3-.4.4-.9.9-1.3 1.4-.4.5-.8 1-1.1 1.5-.3.5-.7 1.1-1 1.6-.3.5-.6 1.1-.8 1.7l-.6 1.8c-.2.6-.3 1.2-.5 1.8s-.2 1.2-.3 1.8v1.9M354.6 326.5h19.2M373.8 307.6l-1.5-.3M370.9 307.3l-1-.2M369.9 307.1l-.5-.2"/><path class="cls-12" d="M368.2 306.6l-1.9-.5"/><path class="cls-18" d="M365.4 305.7l-.8-.5M364.6 305.2l-.4-.3"/><path class="cls-14" d="M363.2 304.2l-1.7-.9"/><path class="cls-18" d="M360.8 302.5l-.5-.4M360.3 302.1l-.5-.5"/><path class="cls-7" d="M358.9 300.6l-1-1.4"/><path class="cls-18" d="M357.4 298.2l-.4-.7M357 297.5l-.3-.5"/><path class="cls-9" d="M356 295.8l-.5-1.7"/><path class="cls-18" d="M355.3 292.9l-.3-.7M355 292.2v-.7"/><path class="cls-12" d="M354.8 290.3l-.2-1.7"/><path class="cls-5" d="M354.6 288.6h19.2"/><path class="cls-18" d="M373.3 288.6h.5M373.6 145.3h-1.9c-.6 0-1.2-.2-1.8-.3-.6-.1-1.2-.3-1.8-.5l-1.8-.6c-.6-.2-1.1-.5-1.7-.8-.5-.3-1.1-.6-1.6-1-.5-.3-1-.7-1.5-1.1-.5-.4-.9-.8-1.4-1.3-.4-.4-.9-.9-1.3-1.4-.4-.5-.8-1-1.1-1.5-.3-.5-.7-1-1-1.6-.3-.5-.6-1.1-.8-1.7l-.6-1.8c-.2-.6-.3-1.2-.5-1.8l-.3-1.8v-1.9M354.6 126.4h18.9M373.5 145.3h-1.4M370.6 145.6l-.7.2M369.9 145.8h-.7"/><path class="cls-12" d="M368 146.1l-1.7.7"/><path class="cls-18" d="M365.1 147.3l-.5.2M364.6 147.5l-.7.5"/><path class="cls-13" d="M363 148.5l-1.5 1.2"/><path class="cls-18" d="M360.3 150.6l-.2.3M360.1 150.9l-.7.9M358.4 152.8l-.7.9"/><path class="cls-21" d="M357.7 153.7l-1 1.7"/><path class="cls-18" d="M356.7 155.4l-.5 1M355.8 157.8l-.5 1"/><path class="cls-10" d="M355.3 158.8l-.3 1.9"/><path class="cls-18" d="M355 160.7l-.2 1.2M354.6 163.3v1"/><path class="cls-5" d="M354.6 164.3h18.9"/><path class="cls-18" d="M373 164.3h.5M52.9 307.5h1.9c.6 0 1.2.2 1.8.3.6.1 1.2.3 1.8.5l1.8.6c.6.2 1.1.5 1.7.8.5.3 1.1.6 1.6 1 .5.3 1 .7 1.5 1.1.5.4.9.8 1.4 1.3.4.4.9.9 1.3 1.4.4.5.8 1 1.1 1.5.3.5.7 1.1 1 1.6.3.5.6 1.1.8 1.7l.6 1.8c.2.6.3 1.2.5 1.8l.3 1.8v1.9M71.8 326.5H52.9M52.9 307.6l1.4-.3M55.8 307.3l.9-.2M56.7 307.1l.5-.2"/><path class="cls-12" d="M58.4 306.6l1.7-.5"/><path class="cls-18" d="M61.3 305.4l.5-.2M61.8 305.2l.7-.5M63.7 304l1.2-.7"/><path class="cls-15" d="M64.9 303.3l1.4-1.5"/><path class="cls-18" d="M66.3 301.8l.5-.5"/><path class="cls-4" d="M67.5 300.6l1.2-1.7"/><path class="cls-18" d="M69.4 298l.3-.5M69.7 297.5l.2-.7"/><path class="cls-13" d="M70.4 295.8l.7-1.9"/><path class="cls-18" d="M71.4 292.7l.2-.5M71.6 292.2v-.9"/><path class="cls-11" d="M71.8 290.3v-1.9"/><path class="cls-5" d="M71.8 288.4H52.9"/><path class="cls-18" d="M53.4 288.4h-.5M72.9 223.3c0-11-9.1-20.1-20.1-20.1M73 223.3H52.9"/><path class="cls-5" d="M73 183l-.4 3.9-1.2 3.8-2 3.6-2.4 2.9-3.1 2.6-3.3 1.9-3.9 1-3.8.5"/><path class="cls-16" d="M73 183H52.9"/><path class="cls-18" d="M353.6 196.4c0 11 9.1 20.1 20.1 20.1M353.6 196.5h20.2"/><path class="cls-5" d="M353.6 236.5l.2-3.8 1.2-3.8 2-3.4 2.4-3.1 3.1-2.4 3.6-1.9 3.6-1.2 4.1-.5"/><path class="cls-16" d="M353.6 236.5h20.2"/><path class="cls-23" d="M413.6 105l-7.2-5.3h-32.6v5.3h39.8"/><path class="cls-18" d="M412.6 105l-3.1-3.1M408.6 105l-5.3-5.3M404.5 105l-5.3-5.3M400.6 105l-5.2-5.3M396.6 105l-5.3-5.3M392.5 105l-5.3-5.3M388.6 105l-5.2-5.3M384.6 105l-5.3-5.3M380.5 105l-5.3-5.3M376.4 105l-2.4-2.6M410.2 105l1.5-1.4M406.2 105l3.1-3.1M402.1 105l5-4.8M398.2 105l5.3-5.3M394.2 105l5.2-5.3M390.1 105l5.3-5.3M386 105l5.3-5.3M382.2 105l5.2-5.3M378.1 105l5.3-5.3M374 105l5.3-5.3M374 101.2l1.4-1.5"/><path class="cls-23" d="M413.6 105l-7.2-5.3h-32.6v5.3h39.8"/><path class="cls-18" d="M412.6 105l-3.1-3.1M408.6 105l-5.3-5.3M404.5 105l-5.3-5.3M400.6 105l-5.2-5.3M396.6 105l-5.3-5.3M392.5 105l-5.3-5.3M388.6 105l-5.2-5.3M384.6 105l-5.3-5.3M380.5 105l-5.3-5.3M376.4 105l-2.4-2.6M410.2 105l1.5-1.4M406.2 105l3.1-3.1M402.1 105l5-4.8M398.2 105l5.3-5.3M394.2 105l5.2-5.3M390.1 105l5.3-5.3M386 105l5.3-5.3M382.2 105l5.2-5.3M378.1 105l5.3-5.3M374 105l5.3-5.3M374 101.2l1.4-1.5"/><path class="cls-20" d="M373.8 105h39.8M373.8 99.7h32.6M373.8 99.7h32.6M373.8 105h39.8M373.8 99.7"/><path class="cls-19" d="M383.4 266.8l54.9-3.4v-73.9l-54.9-3.6"/><path class="cls-19" d="M383.4 268.5l56.6-3.4v-77.3l-56.6-3.6"/><path class="cls-18" d="M9.2 68c12.1 0 22-9.9 22-22M31.3 46H9.2"/><path class="cls-5" d="M9.2 68.1l4.3.4 4.1 1.2 3.8 2 3.4 2.8 2.6 3.4 2.2 3.6 1.2 4.3.5 4.1M31.3 89.9H9.2"/><path class="cls-18" d="M9.7 89.9h-.5M45.9 35.7l-3.1-16.8M26.2 22c1.7 9.2 10.6 15.4 19.8 13.7M45.9 100.5L42.8 117M45.9 100.4c-9.2-1.7-18.1 4.5-19.8 13.7"/><path class="cls-19" d="M251.1 148.9v.8M251.1 149.7l-.2.9M250.9 150.6l-.3.7M250.6 151.3v.3M249.9 153v.3M249 154.5l-.5.4M248.5 154.9l-.5.5M248 155.4l-.7.5M247.3 155.9l-.3.2M245.6 156.9h-.2M243.9 157.3h-.5M243.4 157.3h-.9M242.5 157.3h-.7M241.8 157.3h-.5M239.8 156.9h-.2M238.4 156.1l-.5-.2M237.9 155.9l-.7-.5M237.2 155.4l-.7-.5M236.5 154.9l-.5-.4M235.3 153.3l-.3-.3M234.6 151.8l-.3-.5M234.3 151.3v-.7M234.3 150.6l-.2-.9M234.1 149.7v-.8M234.1 147.5l.2-.2M234.6 145.8l.2-.2M234.8 145.6l.2-.7M235 144.9l.5-.8M235.5 144.1l.5-.7M237 142.5l.2-.3M238.4 141.5h.2M238.6 141.5l.8-.5M239.4 141l.7-.2M240.1 140.8l.7-.3M240.8 140.5h.2M242.5 140.3h.2M244.2 140.5l.9.3M245.1 140.8l.7.2M245.8 141l.8.5M246.6 141.5h.2M248 142.2l.2.3M249.2 143.7l.5.4M249.7 144.1l.5.8M250.2 144.9l.2.7M250.4 145.6l.2.5M250.9 147.3v.4"/><path class="cls-18" d="M86.7 252.9h56.9v10.8H86.7z"/></g><g id="Mbel"><path class="cls-2" d="M275.6 220h50.9v22.6h-50.9zM325.1 209.9h-12.7M325.1 218.4v-8.5M312.4 209.9v8.5M307.4 209.9h-12.7M307.4 218.4v-8.5M294.7 209.9v8.5M289.7 209.9h-12.8M289.7 218.4v-8.5M276.9 209.9v8.5M325.1 252.5h-12.7M325.1 244v8.5M312.4 252.5V244M307.4 252.5h-12.7M307.4 244v8.5M294.7 252.5V244M289.7 252.5h-12.8M289.7 244v8.5M276.9 252.5V244M239.8 271.1h15.6v56.6h-15.6zM280.9 271.1h45.4v56.6h-45.4zM86.7 252.9h56.9v10.8H86.7zM148.6 271.1h28.6v56.6h-28.6zM92.5 326.3h11.3v7.7H92.5zM75.4 334h45.4v19.9H75.4zM84.1 271.1h56.6v15.6H84.1zM266 109.6h28.6v56.6H266zM80.7 26.1h56.6v28.3H80.7zM310.4 109.6H367v15.6h-56.6zM35.8 76.5h7.7v11.3h-7.7z"/><path class="cls-2" d="M16.2 59.4h19.7v45.4H16.2zM122.2 56.3h15.6v56.6h-15.6zM94.2 141.5h14.2v28.3H94.2zM139.1 129h-19c-.1 0-.2.1-.3.2 0 0-.1.2-.2.3V155c0 .1.1.2.2.3 0 0 .2.1.3.2h19v-26.6M142.8 124.5h-22.7c-.1 0-.2.1-.3.2 0 0-.1.2-.2.3V128.4c0 .1.1.2.2.3 0 0 .2.1.3.2h23c.1 0 .2-.1.3-.2 0 0 .1-.2.2-.3V125.3v-.3c0-.1-.1-.2-.2-.3 0 0-.2-.1-.3-.2h-.3M139.1 155.7h4.2l.1.1.1.1v25.7c0 .1-.1.2-.2.3 0 0-.2.1-.3.2h-4M136.9 182.3V129"/><path class="cls-2" d="M139.1 182.3h-19c-.1 0-.2-.1-.3-.2 0 0-.1-.2-.2-.3v-25.2-.3c0-.1.1-.2.2-.3 0 0 .2-.1.3-.2h19v26.6M142.8 186.9h-22.7c-.1 0-.2-.1-.3-.2s-.1-.2-.2-.3V183.3v-.3c0-.1.1-.2.2-.3 0 0 .2-.1.3-.2h23c.1 0 .2.1.3.2 0 0 .1.2.2.3V186.4c0 .1-.1.2-.2.3s-.2.1-.3.2h-.3M139.1 155.7h4.2l.1-.1.1-.1v-.1-.2V130.1v-.3c0-.1-.1-.2-.2-.3 0 0-.2-.1-.3-.2h-4M97.4 182.3c-1.3 3.8-2.9 7.4-4.8 11-.4.8-1.4 1.3-2.3 1.3-3.2-.3-6.3-1.4-8.9-3.4-.8-.6-1.1-1.5-.9-2.5.9-3.9 2.2-7.7 3.7-11.4h.1c.7 0 1.4.2 2 .4 3.1 1 6.2 2.2 9.2 3.5.6.3 1.2.6 1.8 1"/><path class="cls-2" d="M97.4 183.5c.2.3.3.6.3 1 .2 1.5 0 3.1-.6 4.5-.8 1.9-1.7 3.7-2.9 5.4-.8 1.2-1.8 2.4-2.8 3.3-.6.6-1.5.8-2.3.7-3.4-.4-6.6-1.7-9.4-3.6-.7-.5-1.2-1.2-1.3-2.1-.2-1.5-.1-2.9 0-4.4.3-2 .8-4 1.5-6 .5-1.4 1.4-2.7 2.5-3.8.3-.2.6-.4.9-.5"/></g><g id="Text"><path d="M110.3 307.9v.6h-3.8l3-4.8h-2.7v-.6h3.8l-3 4.8h2.7zM112.1 303.8c0 .2-.2.4-.4.4s-.4-.2-.4-.4.2-.4.4-.4.4.2.4.4zm0 4.7h-.6v-3.7h.6v3.7zM114 304.8v.5c.3-.4.6-.6 1-.6s.8.2 1 .7c.3-.5.6-.7 1.2-.7s.7.1.9.4c.2.2.2.4.2 1v2.4h-.6v-2.2c0-.4 0-.6-.1-.7-.1-.2-.4-.3-.6-.3-.5 0-.8.4-.8 1v2.2h-.6v-2.2c0-.4 0-.5-.1-.7-.1-.2-.3-.3-.6-.3-.5 0-.9.4-.9 1v2.2h-.6v-3.7h.6zM120.3 304.8v.5c.3-.4.6-.6 1-.6s.8.2 1 .7c.3-.5.6-.7 1.2-.7s.7.1.9.4c.2.2.2.4.2 1v2.4h-.6v-2.2c0-.4 0-.6-.1-.7-.1-.2-.4-.3-.6-.3-.5 0-.8.4-.8 1v2.2h-.6v-2.2c0-.4 0-.5-.1-.7-.1-.2-.3-.3-.6-.3-.5 0-.9.4-.9 1v2.2h-.6v-3.7h.6zM126.4 306.8c0 .3 0 .5.2.7.2.3.6.5 1 .5s.9-.2 1.1-.6l.5.2c-.3.6-.9 1-1.6 1-1.1 0-1.9-.8-1.9-1.9s.8-1.9 1.9-1.9 1.9.8 1.9 1.9v.2h-3.1zm2.4-.4c0-.3 0-.4-.2-.6-.2-.3-.6-.5-1-.5s-.8.2-1 .5c-.1.2-.2.3-.2.6h2.4zM131.1 304.8v.6c.1-.3.2-.4.3-.5.2-.1.4-.2.7-.2h.1v.6h-.2c-.3 0-.6.2-.8.4-.2.2-.2.4-.2.9v1.9h-.6v-3.7h.6zM107.2 313.9v-.6l1.8-1.2v5.4h-.6v-4.4l-1.2.8zM110.7 312.8v-.6h3l-1.6 2c.9 0 1.6.7 1.6 1.6s-.8 1.7-1.8 1.7-1.4-.5-1.6-1.3h.6c.1.4.5.7 1 .7s1.2-.5 1.2-1.1-.5-1.1-1.2-1.1-.4 0-.6.2l-.3-.2 1.5-1.9h-1.9zM115.7 317.1c0 .2-.2.4-.4.4s-.4-.2-.4-.4.2-.4.4-.4.4.2.4.4zM120 315.9c0 .6-.1 1-.4 1.2-.3.3-.7.4-1.2.4s-1-.2-1.2-.5c-.3-.3-.4-.6-.4-1.4v-1.8c0-.7 0-1 .3-1.3.3-.3.7-.5 1.2-.5s.9.1 1.2.4c.3.3.4.6.4 1.2v2.1zm-2.5-.1c0 .6 0 .7.2.9.2.2.5.3.8.3s.6-.1.8-.4c.1-.2.2-.4.2-.8v-2c0-.4 0-.6-.3-.8-.2-.2-.4-.2-.7-.2s-.6.1-.8.4c-.1.2-.2.4-.2.8v1.8zM123.3 313.8v.5c.3-.4.6-.6 1-.6s.8.2 1 .7c.3-.5.6-.7 1.2-.7s.7.1.9.4c.2.2.2.4.2 1v2.4h-.6v-2.2c0-.4 0-.6-.1-.7-.1-.2-.4-.3-.6-.3-.5 0-.8.4-.8 1v2.2h-.6v-2.2c0-.4 0-.5-.1-.7-.1-.2-.3-.3-.6-.3-.5 0-.9.4-.9 1v2.2h-.6v-3.7h.6zM130.9 315v.4h-2l1.2-1.6c.3-.5.4-.6.4-.8 0-.3-.2-.4-.5-.4s-.5.2-.5.6h-.4c0-.6.4-1 1-1s1 .3 1 .8-.1.5-.4.9l-.8 1.1h1.1z"/><g><path d="M68.8 67.2v.6H65l3-4.8h-2.7v-.6h3.8l-3 4.8h2.7zM70.6 63.1c0 .2-.2.4-.4.4s-.4-.2-.4-.4.2-.4.4-.4.4.2.4.4zm0 4.7H70v-3.7h.6v3.7zM72.5 64.1v.5c.3-.4.6-.6 1-.6s.8.2 1 .7c.3-.5.6-.7 1.2-.7s.7.1.9.4c.2.2.2.4.2 1v2.4h-.6v-2.2c0-.4 0-.6-.1-.7-.1-.2-.4-.3-.6-.3-.5 0-.8.4-.8 1v2.2h-.6v-2.2c0-.4 0-.5-.1-.7-.1-.2-.3-.3-.6-.3-.5 0-.9.4-.9 1v2.2h-.6v-3.7h.6zM78.8 64.1v.5c.3-.4.6-.6 1-.6s.8.2 1 .7c.3-.5.6-.7 1.2-.7s.7.1.9.4c.2.2.2.4.2 1v2.4h-.6v-2.2c0-.4 0-.6-.1-.7-.1-.2-.4-.3-.6-.3-.5 0-.8.4-.8 1v2.2h-.6v-2.2c0-.4 0-.5-.1-.7-.1-.2-.3-.3-.6-.3-.5 0-.9.4-.9 1v2.2h-.6v-3.7h.6zM84.9 66.2c0 .3 0 .5.2.7.2.3.6.5 1 .5s.9-.2 1.1-.6l.5.2c-.3.6-.9 1-1.6 1-1.1 0-1.9-.8-1.9-1.9s.8-1.9 1.9-1.9 1.9.8 1.9 1.9v.2h-3.1zm2.4-.4c0-.3 0-.4-.2-.6-.2-.3-.6-.5-1-.5s-.8.2-1 .5c-.1.2-.2.3-.2.6h2.4zM89.7 64.1v.6c.1-.3.2-.4.3-.5.2-.1.4-.2.7-.2h.1v.6h-.2c-.3 0-.6.2-.8.4-.2.2-.2.4-.2.9v1.9H89v-3.7h.6zM65.8 73.2v-.6l1.8-1.2v5.4H67v-4.4l-1.2.8zM69.3 72.1v-.6h3l-1.6 2c.9 0 1.6.7 1.6 1.6s-.8 1.7-1.8 1.7-1.4-.5-1.6-1.3h.6c.1.4.5.7 1 .7s1.2-.5 1.2-1.1-.5-1.1-1.2-1.1-.4 0-.6.2l-.3-.2 1.5-1.9h-1.9zM74.2 76.5c0 .2-.2.4-.4.4s-.4-.2-.4-.4.2-.4.4-.4.4.2.4.4zM77 74.7c-.2 0-.3.1-.5.1-.9 0-1.6-.7-1.6-1.6s.8-1.7 1.7-1.7 1.7.7 1.7 1.7-.1.7-.4 1.2l-1.5 2.5h-.7l1.3-2.1zm-1.5-1.5c0 .6.5 1.1 1.1 1.1s1.1-.5 1.1-1.1-.5-1.1-1-1.1-1.1.5-1.1 1.1zM81.5 73.1v.5c.3-.4.6-.6 1-.6s.8.2 1 .7c.3-.5.6-.7 1.2-.7s.7.1.9.4c.2.2.2.4.2 1v2.4h-.6v-2.2c0-.4 0-.6-.1-.7-.1-.2-.4-.3-.6-.3-.5 0-.8.4-.8 1v2.2h-.6v-2.2c0-.4 0-.5-.1-.7-.1-.2-.3-.3-.6-.3-.5 0-.9.4-.9 1v2.2h-.6v-3.7h.6zM89.1 74.3v.4h-2l1.2-1.6c.3-.5.4-.6.4-.8 0-.3-.2-.4-.5-.4s-.5.2-.5.6h-.4c0-.6.4-1 1-1s1 .3 1 .8-.1.5-.4.9l-.8 1.1h1.1z"/></g><g><path d="M293.8 307.7v.6H290l3-4.8h-2.7v-.6h3.8l-3 4.8h2.7zM295.7 303.6c0 .2-.2.4-.4.4s-.4-.2-.4-.4.2-.4.4-.4.4.2.4.4zm0 4.7h-.6v-3.7h.6v3.7zM297.5 304.6v.5c.3-.4.6-.6 1-.6s.8.2 1 .7c.3-.5.6-.7 1.2-.7s.7.1.9.4c.2.2.2.4.2 1v2.4h-.6v-2.2c0-.4 0-.6-.1-.7-.1-.2-.4-.3-.6-.3-.5 0-.8.4-.8 1v2.2h-.6v-2.2c0-.4 0-.5-.1-.7-.1-.2-.3-.3-.6-.3-.5 0-.9.4-.9 1v2.2h-.6v-3.7h.6zM303.8 304.6v.5c.3-.4.6-.6 1-.6s.8.2 1 .7c.3-.5.6-.7 1.2-.7s.7.1.9.4c.2.2.2.4.2 1v2.4h-.6v-2.2c0-.4 0-.6-.1-.7-.1-.2-.4-.3-.6-.3-.5 0-.8.4-.8 1v2.2h-.6v-2.2c0-.4 0-.5-.1-.7-.1-.2-.3-.3-.6-.3-.5 0-.9.4-.9 1v2.2h-.6v-3.7h.6zM309.9 306.6c0 .3 0 .5.2.7.2.3.6.5 1 .5s.9-.2 1.1-.6l.5.2c-.3.6-.9 1-1.6 1-1.1 0-1.9-.8-1.9-1.9s.8-1.9 1.9-1.9 1.9.8 1.9 1.9v.2h-3.1zm2.4-.4c0-.3 0-.4-.2-.6-.2-.3-.6-.5-1-.5s-.8.2-1 .5c-.1.2-.2.3-.2.6h2.4zM314.7 304.6v.6c.1-.3.2-.4.3-.5.2-.1.4-.2.7-.2h.1v.6h-.2c-.3 0-.6.2-.8.4-.2.2-.2.4-.2.9v1.9h-.6v-3.7h.6zM290.8 313.7v-.6l1.8-1.2v5.4h-.6v-4.4l-1.2.8zM294 316.1v-.5l2.8-3.7v3.6h.6v.6h-.6v1.2h-.6v-1.2h-2.1zm2.1-2.6l-1.5 2h1.5v-2zM299.2 316.9c0 .2-.2.4-.4.4s-.4-.2-.4-.4.2-.4.4-.4.4.2.4.4zM300.1 313.7v-.6l1.8-1.2v5.4h-.6v-4.4l-1.2.8zM306.2 313.6v.5c.3-.4.6-.6 1-.6s.8.2 1 .7c.3-.5.6-.7 1.2-.7s.7.1.9.4c.2.2.2.4.2 1v2.4h-.6v-2.2c0-.4 0-.6-.1-.7-.1-.2-.4-.3-.6-.3-.5 0-.8.4-.8 1v2.2h-.6v-2.2c0-.4 0-.5-.1-.7-.1-.2-.3-.3-.6-.3-.5 0-.9.4-.9 1v2.2h-.6v-3.7h.6zM313.7 314.8v.4h-2l1.2-1.6c.3-.5.4-.6.4-.8 0-.3-.2-.4-.5-.4s-.5.2-.5.6h-.4c0-.6.4-1 1-1s1 .3 1 .8-.1.5-.4.9l-.8 1.1h1.1z"/></g><g><path d="M312.8 150.3v.6H309l3-4.8h-2.7v-.6h3.8l-3 4.8h2.7zM314.6 146.2c0 .2-.2.4-.4.4s-.4-.2-.4-.4.2-.4.4-.4.4.2.4.4zm0 4.7h-.6v-3.7h.6v3.7zM316.5 147.2v.5c.3-.4.6-.6 1-.6s.8.2 1 .7c.3-.5.6-.7 1.2-.7s.7.1.9.4c.2.2.2.4.2 1v2.4h-.6v-2.2c0-.4 0-.6-.1-.7-.1-.2-.4-.3-.6-.3-.5 0-.8.4-.8 1v2.2h-.6v-2.2c0-.4 0-.5-.1-.7-.1-.2-.3-.3-.6-.3-.5 0-.9.4-.9 1v2.2h-.6v-3.7h.6zM322.8 147.2v.5c.3-.4.6-.6 1-.6s.8.2 1 .7c.3-.5.6-.7 1.2-.7s.7.1.9.4c.2.2.2.4.2 1v2.4h-.6v-2.2c0-.4 0-.6-.1-.7-.1-.2-.4-.3-.6-.3-.5 0-.8.4-.8 1v2.2h-.6v-2.2c0-.4 0-.5-.1-.7-.1-.2-.3-.3-.6-.3-.5 0-.9.4-.9 1v2.2h-.6v-3.7h.6zM328.9 149.2c0 .3 0 .5.2.7.2.3.6.5 1 .5s.9-.2 1.1-.6l.5.2c-.3.6-.9 1-1.6 1-1.1 0-1.9-.8-1.9-1.9s.8-1.9 1.9-1.9 1.9.8 1.9 1.9v.2h-3.1zm2.4-.4c0-.3 0-.4-.2-.6-.2-.3-.6-.5-1-.5s-.8.2-1 .5c-.1.2-.2.3-.2.6h2.4zM333.7 147.2v.6c.1-.3.2-.4.3-.5.2-.1.4-.2.7-.2h.1v.6h-.2c-.3 0-.6.2-.8.4-.2.2-.2.4-.2.9v1.9h-.6v-3.7h.6zM309.7 156.3v-.6l1.8-1.2v5.4h-.6v-4.4l-1.2.8zM316.4 158.3c0 .6-.1 1-.4 1.2-.3.3-.7.4-1.2.4s-1-.2-1.2-.5c-.3-.3-.4-.6-.4-1.4v-1.8c0-.7 0-1 .3-1.3.3-.3.7-.5 1.2-.5s.9.1 1.2.4c.3.3.4.6.4 1.2v2.1zm-2.5-.1c0 .6 0 .7.2.9.2.2.5.3.8.3s.6-.1.8-.4c.1-.2.2-.4.2-.8v-2c0-.4 0-.6-.3-.8-.2-.2-.4-.2-.7-.2s-.6.1-.8.4c-.1.2-.2.4-.2.8v1.8zM318.4 159.5c0 .2-.2.4-.4.4s-.4-.2-.4-.4.2-.4.4-.4.4.2.4.4zM319.8 155.2v-.6h3l-1.6 2c.9 0 1.6.7 1.6 1.6s-.8 1.7-1.8 1.7-1.4-.5-1.6-1.3h.6c.1.4.5.7 1 .7s1.2-.5 1.2-1.1-.5-1.1-1.2-1.1-.4 0-.6.2l-.3-.2 1.5-1.9h-1.9zM327 156.2v.5c.3-.4.6-.6 1-.6s.8.2 1 .7c.3-.5.6-.7 1.2-.7s.7.1.9.4c.2.2.2.4.2 1v2.4h-.6v-2.2c0-.4 0-.6-.1-.7-.1-.2-.4-.3-.6-.3-.5 0-.8.4-.8 1v2.2h-.6v-2.2c0-.4 0-.5-.1-.7-.1-.2-.3-.3-.6-.3-.5 0-.9.4-.9 1v2.2h-.6v-3.7h.6zM334.5 157.4v.4h-2l1.2-1.6c.3-.5.4-.6.4-.8 0-.3-.2-.4-.5-.4s-.5.2-.5.6h-.4c0-.6.4-1 1-1s1 .3 1 .8-.1.5-.4.9l-.8 1.1h1.1z"/></g><g><path d="M107.1 217.8h-.7v-5.3h.7v2.5l2.1-2.5h.8l-2.2 2.6 2.2 2.7h-.9l-2-2.5v2.5zM114.1 216c0 1.1-.8 1.9-1.9 1.9s-1.9-.8-1.9-1.9.8-1.9 1.9-1.9 1.9.8 1.9 1.9zm-3.1 0c0 .8.5 1.4 1.3 1.4s1.2-.6 1.2-1.4-.5-1.4-1.2-1.4-1.3.6-1.3 1.4zM118.1 217.4c-.4.4-.8.5-1.4.5-1.1 0-1.8-.8-1.8-1.9s.8-1.9 1.8-1.9 1 .2 1.3.6l-.4.4c-.3-.3-.6-.4-.9-.4-.7 0-1.2.6-1.2 1.4s.5 1.4 1.2 1.4.6-.1.9-.4l.4.4zM119.7 214.7c.3-.4.7-.6 1.1-.6s.7.1.9.3c.2.2.3.5.3 1v2.5h-.6v-2.4c0-.5-.2-.8-.7-.8s-.5.1-.7.3c-.2.2-.2.4-.2.7v2.2h-.6v-5.3h.6v2.2zM123.7 216.2c0 .3 0 .5.2.7.2.3.6.5 1 .5s.9-.2 1.1-.6l.5.2c-.3.6-.9 1-1.6 1-1.1 0-1.9-.8-1.9-1.9s.8-1.9 1.9-1.9 1.9.8 1.9 1.9v.2h-3.1zm2.4-.4c0-.3 0-.4-.2-.6-.2-.3-.6-.5-1-.5s-.8.2-1 .5c-.1.2-.2.3-.2.6h2.4zM128.4 214.1v.5c.3-.4.6-.6 1.1-.6s.6.1.9.3c.2.2.3.5.3 1v2.5h-.6v-2.4c0-.3 0-.5-.1-.6-.1-.2-.3-.2-.6-.2s-.5.1-.7.3c-.2.2-.2.4-.2.7v2.2h-.6v-3.7h.6zM132.8 217.5c0 .2-.2.4-.4.4s-.4-.2-.4-.4.2-.4.4-.4.4.2.4.4zM137.1 214.9h2.1v.6h-2.1v1.8h2.1v.6h-2.8v-5.3h2.8v.6h-2.1v1.8zM142.2 215.2c0-.4-.3-.6-.7-.6s-.7.2-.7.5.2.4.8.6c.5.1.7.2.9.4.2.2.3.4.3.7 0 .6-.5 1.1-1.3 1.1s-1.3-.4-1.4-1.1h.6c0 .4.3.6.8.6s.7-.2.7-.5-.2-.5-.8-.6c-.8-.2-1.2-.6-1.2-1.1s.5-1.1 1.3-1.1 1.3.4 1.3 1.1h-.6zM145.7 215.2c0-.4-.3-.6-.7-.6s-.7.2-.7.5.2.4.8.6c.5.1.7.2.9.4.2.2.3.4.3.7 0 .6-.5 1.1-1.3 1.1s-1.3-.4-1.4-1.1h.6c0 .4.3.6.8.6s.7-.2.7-.5-.2-.5-.8-.6c-.8-.2-1.2-.6-1.2-1.1s.5-1.1 1.3-1.1 1.3.4 1.3 1.1h-.6zM147.8 216.2c0 .3 0 .5.2.7.2.3.6.5 1 .5s.9-.2 1.1-.6l.5.2c-.3.6-.9 1-1.6 1-1.1 0-1.9-.8-1.9-1.9s.8-1.9 1.9-1.9 1.9.8 1.9 1.9v.2h-3.1zm2.4-.4c0-.3 0-.4-.2-.6-.2-.3-.6-.5-1-.5s-.8.2-1 .5c-.1.2-.2.3-.2.6h2.4zM152.6 214.1v.5c.3-.4.6-.6 1.1-.6s.6.1.9.3c.2.2.3.5.3 1v2.5h-.6v-2.4c0-.3 0-.5-.1-.6-.1-.2-.3-.2-.6-.2s-.5.1-.7.3c-.2.2-.2.4-.2.7v2.2h-.6v-3.7h.6zM111.9 221.5h.7l-1.6 5.3h-.6l-1.2-4.2-1.2 4.2h-.6l-1.6-5.3h.7l1.2 4.1 1.2-4.1h.6l1.1 4.1 1.2-4.1zM116.7 225c0 1.1-.8 1.9-1.9 1.9s-1.9-.8-1.9-1.9.8-1.9 1.9-1.9 1.9.8 1.9 1.9zm-3.1 0c0 .8.5 1.4 1.3 1.4s1.2-.6 1.2-1.4-.5-1.4-1.2-1.4-1.3.6-1.3 1.4zM118.4 223.7c.3-.4.7-.6 1.1-.6s.7.1.9.3c.2.2.3.5.3 1v2.5h-.6v-2.4c0-.5-.2-.8-.7-.8s-.5.1-.7.3c-.2.2-.2.4-.2.7v2.2h-.6v-5.3h.6v2.2zM122.7 223.1v.5c.3-.4.6-.6 1.1-.6s.6.1.9.3c.2.2.3.5.3 1v2.5h-.6v-2.4c0-.3 0-.5-.1-.6-.1-.2-.3-.2-.6-.2s-.5.1-.7.3c-.2.2-.2.4-.2.7v2.2h-.6v-3.7h.6zM126.6 225.2c0 .3 0 .5.2.7.2.3.6.5 1 .5s.9-.2 1.1-.6l.5.2c-.3.6-.9 1-1.6 1-1.1 0-1.9-.8-1.9-1.9s.8-1.9 1.9-1.9 1.9.8 1.9 1.9v.2h-3.1zm2.4-.4c0-.3 0-.4-.2-.6-.2-.3-.6-.5-1-.5s-.8.2-1 .5c-.1.2-.2.3-.2.6h2.4zM131.4 223.1v.5c.3-.4.6-.6 1.1-.6s.6.1.9.3c.2.2.3.5.3 1v2.5h-.6v-2.4c0-.3 0-.5-.1-.6-.1-.2-.3-.2-.6-.2s-.5.1-.7.3c-.2.2-.2.4-.2.7v2.2h-.6v-3.7h.6zM106.4 231.2v-.6h3l-1.6 2c.9 0 1.6.7 1.6 1.6s-.8 1.7-1.8 1.7-1.4-.5-1.6-1.3h.6c.1.4.5.7 1 .7s1.2-.5 1.2-1.1-.5-1.1-1.2-1.1-.4 0-.6.2l-.3-.2 1.5-1.9h-1.9zM111.6 232.7c.2 0 .3-.1.5-.1.9 0 1.6.7 1.6 1.6s-.8 1.7-1.7 1.7-1.7-.8-1.7-1.7.1-.7.4-1.2l1.5-2.5h.7l-1.4 2.1zm-.7 1.5c0 .6.5 1.1 1.1 1.1s1.1-.5 1.1-1.1-.5-1.1-1.1-1.1-1.1.5-1.1 1.1zM115.5 235.5c0 .2-.2.4-.4.4s-.4-.2-.4-.4.2-.4.4-.4.4.2.4.4zM119.3 231.1h-1.7v1.4c.3-.1.5-.2.8-.2.9 0 1.6.7 1.6 1.7s-.8 1.8-1.8 1.8-1.3-.4-1.6-1.1l.6-.2c.1.2.2.3.3.4.2.2.5.3.8.3.6 0 1.1-.5 1.1-1.2s-.5-1.1-1.2-1.1-.8.2-1.2.5v-3h2.3v.6zM123.2 232.1v.5c.3-.4.6-.6 1-.6s.8.2 1 .7c.3-.5.6-.7 1.2-.7s.7.1.9.4c.2.2.2.4.2 1v2.4h-.6v-2.2c0-.4 0-.6-.1-.7-.1-.2-.4-.3-.6-.3-.5 0-.8.4-.8 1v2.2h-.6v-2.2c0-.4 0-.5-.1-.7-.1-.2-.3-.3-.6-.3-.5 0-.9.4-.9 1v2.2h-.6v-3.7h.6zM130.8 233.3v.4h-2l1.2-1.6c.3-.5.4-.6.4-.8 0-.3-.2-.4-.5-.4s-.5.2-.5.6h-.4c0-.6.4-1 1-1s1 .3 1 .8-.1.5-.4.9l-.8 1.1h1.1z"/></g><g><path d="M402 206.1c1.1 0 1.7.5 1.7 1.4s-.1.6-.3.9c-.1.2-.3.2-.5.3.3 0 .4.1.6.2.3.2.4.6.4 1s-.2.9-.6 1.2c-.3.2-.7.3-1.3.3h-1.5v-5.3h1.5zm-.8 2.4h.7c.4 0 .7 0 .9-.2.2-.2.3-.4.3-.7s-.2-.6-.4-.8c-.2 0-.4-.1-.9-.1h-.6v1.8zm0 2.4h.7c.6 0 .8 0 1-.2.3-.1.4-.4.4-.8 0-.6-.4-.9-1.2-.9h-.8v1.8zM407.9 207.7h.6v3.7h-.6v-.7c-.4.6-.8.8-1.3.8-1 0-1.7-.8-1.7-1.9s.7-1.9 1.8-1.9 1 .2 1.3.7v-.6zm-2.1.9c-.2.3-.3.6-.3 1 0 .8.5 1.4 1.2 1.4s1.3-.6 1.3-1.4-.5-1.4-1.2-1.4-.7.1-.9.4zM409.9 211.4v-5.3h.6v5.3h-.6zM412.4 211.4h-.6v-5.3h.6v3.3l1.5-1.6h.8l-1.6 1.8 1.6 1.9h-.8l-1.5-1.6v1.6zM418.9 209.6c0 1.1-.8 1.9-1.9 1.9s-1.9-.8-1.9-1.9.8-1.9 1.9-1.9 1.9.8 1.9 1.9zm-3.1 0c0 .8.5 1.4 1.3 1.4s1.2-.6 1.2-1.4-.5-1.4-1.2-1.4-1.3.6-1.3 1.4zM420.6 207.7v.5c.3-.4.6-.6 1.1-.6s.6.1.9.3c.2.2.3.5.3 1v2.5h-.6V209c0-.3 0-.5-.1-.6-.1-.2-.3-.2-.6-.2s-.5.1-.7.3c-.2.2-.2.4-.2.7v2.2h-.6v-3.7h.6zM401.5 217.3c.2 0 .3-.1.5-.1.9 0 1.6.7 1.6 1.6s-.8 1.7-1.7 1.7-1.7-.8-1.7-1.7.1-.7.4-1.2l1.5-2.5h.7l-1.4 2.1zm-.7 1.5c0 .6.5 1.1 1.1 1.1s1.1-.5 1.1-1.1-.5-1.1-1.1-1.1-1.1.5-1.1 1.1zM405.4 220.1c0 .2-.2.4-.4.4s-.4-.2-.4-.4.2-.4.4-.4.4.2.4.4zM409.7 218.8c0 .6-.1 1-.4 1.2-.3.3-.7.4-1.2.4s-1-.2-1.2-.5c-.3-.3-.4-.6-.4-1.4v-1.8c0-.7 0-1 .3-1.3.3-.3.7-.5 1.2-.5s.9.1 1.2.4c.3.3.4.6.4 1.2v2.1zm-2.5-.1c0 .6 0 .7.2.9.2.2.5.3.8.3s.6-.1.8-.4c.1-.2.2-.4.2-.8v-2c0-.4 0-.6-.3-.8-.2-.2-.4-.2-.7-.2s-.6.1-.8.4c-.1.2-.2.4-.2.8v1.8zM413.9 216.7v.5c.3-.4.6-.6 1-.6s.8.2 1 .7c.3-.5.6-.7 1.2-.7s.7.1.9.4c.2.2.2.4.2 1v2.4h-.6v-2.2c0-.4 0-.6-.1-.7-.1-.2-.4-.3-.6-.3-.5 0-.8.4-.8 1v2.2h-.6v-2.2c0-.4 0-.5-.1-.7-.1-.2-.3-.3-.6-.3-.5 0-.9.4-.9 1v2.2h-.6v-3.7h.6zM421.5 217.9v.4h-2l1.2-1.6c.3-.5.4-.6.4-.8 0-.3-.2-.4-.5-.4s-.5.2-.5.6h-.4c0-.6.4-1 1-1s1 .3 1 .8-.1.5-.4.9l-.8 1.1h1.1z"/></g><g><path d="M232.2 176.1h2.1v.6h-2.1v1.8h2.1v.6h-2.8v-5.3h2.8v.6h-2.1v1.8zM236.1 175.3v.5c.3-.4.6-.6 1.1-.6s.6.1.9.3c.2.2.3.5.3 1v2.5h-.6v-2.4c0-.3 0-.5-.1-.6-.1-.2-.3-.2-.6-.2s-.5.1-.7.3c-.2.2-.2.4-.2.7v2.2h-.6v-3.7h.6zM240.4 178.3c0 .2 0 .2.3.2h.3v.5h-.6c-.4 0-.6-.2-.6-.6v-2.6h-.5v-.5h.5v-1.2h.6v1.2h.6v.5h-.6v2.4zM242.6 175.3v.6c.1-.3.2-.4.3-.5.2-.1.4-.2.7-.2h.1v.6h-.2c-.3 0-.6.2-.8.4-.2.2-.2.4-.2.9v1.9h-.6v-3.7h.6zM245 177.4c0 .3 0 .5.2.7.2.3.6.5 1 .5s.9-.2 1.1-.6l.5.2c-.3.6-.9 1-1.6 1-1.1 0-1.9-.8-1.9-1.9s.8-1.9 1.9-1.9 1.9.8 1.9 1.9v.2H245zm2.4-.4c0-.3 0-.4-.2-.6-.2-.3-.6-.5-1-.5s-.8.2-1 .5c-.1.2-.2.3-.2.6h2.4zm-.2-3.2l-.9 1.1h-.4l.7-1.1h.7zM249.5 177.4c0 .3 0 .5.2.7.2.3.6.5 1 .5s.9-.2 1.1-.6l.5.2c-.3.6-.9 1-1.6 1-1.1 0-1.9-.8-1.9-1.9s.8-1.9 1.9-1.9 1.9.8 1.9 1.9v.2h-3.1zm2.4-.4c0-.3 0-.4-.2-.6-.2-.3-.6-.5-1-.5s-.8.2-1 .5c-.1.2-.2.3-.2.6h2.4zM231.5 183.4v-.6h3l-1.6 2c.9 0 1.6.7 1.6 1.6s-.8 1.7-1.8 1.7-1.4-.5-1.6-1.3h.6c.1.4.5.7 1 .7s1.2-.5 1.2-1.1-.5-1.1-1.2-1.1-.4 0-.6.2l-.3-.2 1.5-1.9h-1.9zM236.4 187.7c0 .2-.2.4-.4.4s-.4-.2-.4-.4.2-.4.4-.4.4.2.4.4zM238.8 184.9c.2 0 .3-.1.5-.1.9 0 1.6.7 1.6 1.6s-.8 1.7-1.7 1.7-1.7-.8-1.7-1.7.1-.7.4-1.2l1.5-2.5h.7l-1.4 2.1zm-.7 1.5c0 .6.5 1.1 1.1 1.1s1.1-.5 1.1-1.1-.5-1.1-1.1-1.1-1.1.5-1.1 1.1zM244.9 184.3v.5c.3-.4.6-.6 1-.6s.8.2 1 .7c.3-.5.6-.7 1.2-.7s.7.1.9.4c.2.2.2.4.2 1v2.4h-.6v-2.2c0-.4 0-.6-.1-.7-.1-.2-.4-.3-.6-.3-.5 0-.8.4-.8 1v2.2h-.6v-2.2c0-.4 0-.5-.1-.7-.1-.2-.3-.3-.6-.3-.5 0-.9.4-.9 1v2.2h-.6v-3.7h.6zM252.5 185.5v.4h-2l1.2-1.6c.3-.5.4-.6.4-.8 0-.3-.2-.4-.5-.4s-.5.2-.5.6h-.4c0-.6.4-1 1-1s1 .3 1 .8-.1.5-.4.9l-.8 1.1h1.1z"/></g><g><path d="M177.2 152.2c1.1 0 1.7.5 1.7 1.4s-.1.6-.3.9c-.1.2-.3.2-.5.3.3 0 .4.1.6.2.3.2.4.6.4 1s-.2.9-.6 1.2c-.3.2-.7.3-1.3.3h-1.5v-5.3h1.5zm-.8 2.4h.7c.4 0 .7 0 .9-.2.2-.2.3-.4.3-.7s-.2-.6-.4-.8c-.2 0-.4-.1-.9-.1h-.6v1.8zm0 2.4h.7c.6 0 .8 0 1-.2.3-.1.4-.4.4-.8 0-.6-.4-.9-1.2-.9h-.8v1.8zM183.1 153.8h.6v3.7h-.6v-.7c-.4.6-.8.8-1.3.8-1 0-1.7-.8-1.7-1.9s.7-1.9 1.8-1.9 1 .2 1.3.7v-.6zm-2.1.9c-.2.3-.3.6-.3 1 0 .8.5 1.4 1.2 1.4s1.3-.6 1.3-1.4-.5-1.4-1.2-1.4-.7.1-.9.4zM187.9 152.2h.6v5.3h-.6v-.6c-.4.5-.8.7-1.3.7-1 0-1.7-.8-1.7-1.9s.7-2 1.7-2 1 .2 1.3.6v-2.2zm-2.4 3.5c0 .8.5 1.4 1.2 1.4s1.2-.6 1.2-1.4-.5-1.4-1.2-1.4-1.2.6-1.2 1.4zM175.4 165.3v-.5l2.8-3.7v3.6h.6v.6h-.6v1.2h-.6v-1.2h-2.1zm2.1-2.6l-1.5 2h1.5v-2zM180.6 166.2c0 .2-.2.4-.4.4s-.4-.2-.4-.4.2-.4.4-.4.4.2.4.4zM184.6 165.9v.6h-3l1.9-2.7c.5-.8.7-1 .7-1.3 0-.5-.4-.8-.9-.8s-.7.2-.8.4v.6h-.6c0-1 .6-1.6 1.5-1.6s1.5.5 1.5 1.3-.2.8-.6 1.5l-1.4 2h1.9zM189 162.8v.5c.3-.4.6-.6 1-.6s.8.2 1 .7c.3-.5.6-.7 1.2-.7s.7.1.9.4c.2.2.2.4.2 1v2.4h-.6v-2.2c0-.4 0-.6-.1-.7-.1-.2-.4-.3-.6-.3-.5 0-.8.4-.8 1v2.2h-.6v-2.2c0-.4 0-.5-.1-.7-.1-.2-.3-.3-.6-.3-.5 0-.9.4-.9 1v2.2h-.6v-3.7h.6zM196.6 164v.4h-2l1.2-1.6c.3-.5.4-.6.4-.8 0-.3-.2-.4-.5-.4s-.5.2-.5.6h-.4c0-.6.4-1 1-1s1 .3 1 .8-.1.5-.4.9l-.8 1.1h1.1z"/></g><g><path d="M200.3 329.6h1.4c1.6 0 2.6 1 2.6 2.6s-.3 1.6-.8 2.1c-.5.4-1.1.6-1.9.6h-1.3v-5.3zm.7 4.8h.2c.9 0 1.3 0 1.7-.4.5-.4.7-1 .7-1.8 0-1.3-.7-2-1.9-2h-.7v4.2zM208.3 331.2v2.4c0 .5 0 .8-.4 1-.3.2-.6.4-1.1.4s-.8-.1-1.1-.4c-.2-.2-.4-.6-.4-1v-2.4h.6v2.3c0 .5.3.9.8.9s.5-.1.7-.3c.1-.1.2-.3.2-.6v-2.4h.6zM211.3 332.2c0-.4-.3-.6-.7-.6s-.7.2-.7.5.2.4.8.6c.5.1.7.2.9.4.2.2.3.4.3.7 0 .6-.5 1.1-1.3 1.1s-1.3-.4-1.4-1.1h.6c0 .4.3.6.8.6s.7-.2.7-.5-.2-.5-.8-.6c-.8-.2-1.2-.6-1.2-1.1s.5-1.1 1.3-1.1 1.3.4 1.3 1.1h-.6zM216 334.4c-.4.4-.8.5-1.4.5-1.1 0-1.8-.8-1.8-1.9s.8-1.9 1.8-1.9 1 .2 1.3.6l-.4.4c-.3-.3-.6-.4-.9-.4-.7 0-1.2.6-1.2 1.4s.5 1.4 1.2 1.4.6-.1.9-.4l.4.4zM217.5 331.7c.3-.4.7-.6 1.1-.6s.7.1.9.3c.2.2.3.5.3 1v2.5h-.6v-2.4c0-.5-.2-.8-.7-.8s-.5.1-.7.3c-.2.2-.2.4-.2.7v2.2h-.6v-5.3h.6v2.2zM221.5 333.2c0 .3 0 .5.2.7.2.3.6.5 1 .5s.9-.2 1.1-.6l.5.2c-.3.6-.9 1-1.6 1-1.1 0-1.9-.8-1.9-1.9s.8-1.9 1.9-1.9 1.9.8 1.9 1.9v.2h-3.1zm2.4-.4c0-.3 0-.4-.2-.6-.2-.3-.6-.5-1-.5s-.8.2-1 .5c-.1.2-.2.3-.2.6h2.4zM200 342.7v-.5l2.8-3.7v3.6h.6v.6h-.6v1.2h-.6v-1.2h-2.1zm2.1-2.6l-1.5 2h1.5v-2zM205.2 343.5c0 .2-.2.4-.4.4s-.4-.2-.4-.4.2-.4.4-.4.4.2.4.4zM207.5 340.8c.2 0 .3-.1.5-.1.9 0 1.6.7 1.6 1.6s-.8 1.7-1.7 1.7-1.7-.8-1.7-1.7.1-.7.4-1.2l1.5-2.5h.7l-1.4 2.1zm-.7 1.5c0 .6.5 1.1 1.1 1.1s1.1-.5 1.1-1.1-.5-1.1-1.1-1.1-1.1.5-1.1 1.1zM213.7 340.2v.5c.3-.4.6-.6 1-.6s.8.2 1 .7c.3-.5.6-.7 1.2-.7s.7.1.9.4c.2.2.2.4.2 1v2.4h-.6v-2.2c0-.4 0-.6-.1-.7-.1-.2-.4-.3-.6-.3-.5 0-.8.4-.8 1v2.2h-.6v-2.2c0-.4 0-.5-.1-.7-.1-.2-.3-.3-.6-.3-.5 0-.9.4-.9 1v2.2h-.6v-3.7h.6zM221.3 341.4v.4h-2l1.2-1.6c.3-.5.4-.6.4-.8 0-.3-.2-.4-.5-.4s-.5.2-.5.6h-.4c0-.6.4-1 1-1s1 .3 1 .8-.1.5-.4.9l-.8 1.1h1.1z"/></g><g><path d="M170.5 88.6v.6H168v-5.3h.7v4.7h1.9zM172.2 84.5c0 .2-.2.4-.4.4s-.4-.2-.4-.4.2-.4.4-.4.4.2.4.4zm0 4.7h-.6v-3.7h.6v3.7zM174.1 89.2h-.6V86h-.5v-.5h.5V85c0-.7.4-1.2 1-1.2h.2v.5c-.4 0-.6.2-.6.6v.5h.6v.5h-.6v3.2zM176.5 88.5c0 .2 0 .2.3.2h.3v.5h-.6c-.4 0-.6-.2-.6-.6V86h-.5v-.5h.5v-1.2h.6v1.2h.6v.5h-.6v2.4z"/></g></g></svg>