<svg xmlns="http://www.w3.org/2000/svg" viewBox="0 0 409.1 440.2"><defs><style>.cls-1,.cls-10,.cls-11,.cls-12,.cls-13,.cls-14,.cls-15,.cls-16,.cls-17,.cls-18,.cls-19,.cls-2,.cls-20,.cls-3,.cls-4,.cls-5,.cls-6,.cls-7,.cls-8,.cls-9{fill:none;stroke-linecap:round;stroke-linejoin:round}.cls-1,.cls-10,.cls-11,.cls-12,.cls-13,.cls-14,.cls-15,.cls-16,.cls-17,.cls-19,.cls-2,.cls-20,.cls-3,.cls-4,.cls-5,.cls-6,.cls-8,.cls-9{stroke-width:.1px}.cls-1,.cls-15,.cls-17,.cls-18,.cls-19,.cls-3,.cls-4,.cls-8{stroke:#194164}.cls-1,.cls-8{stroke-dasharray:0 0 0 0 2.9 1.4 .2 1.4}.cls-2{stroke:#646464}.cls-10,.cls-11,.cls-12,.cls-13,.cls-14,.cls-15,.cls-19,.cls-20,.cls-3,.cls-4,.cls-5,.cls-6,.cls-9{stroke-dasharray:0 0 1.4 1.4}.cls-4,.cls-9{stroke-dashoffset:1px}.cls-5{stroke-dashoffset:2.5px}.cls-10,.cls-11,.cls-12,.cls-13,.cls-14,.cls-16,.cls-20,.cls-5,.cls-6,.cls-9{stroke:#969696}.cls-21,.cls-22{fill:#fff}.cls-7{stroke:#000;stroke-width:.3px}.cls-8{stroke-dashoffset:1.9px}.cls-10{stroke-dashoffset:2.4px}.cls-11{stroke-dashoffset:2.7px}.cls-12{stroke-dashoffset:2.5px}.cls-13{stroke-dashoffset:1.4px}.cls-14,.cls-19{stroke-dashoffset:.7px}.cls-22,.cls-23{fill-rule:evenodd}.cls-15{stroke-dashoffset:.2px}.cls-18{stroke-width:.3px}.cls-20{stroke-dashoffset:1.2px}</style></defs><g id="Plan"><path class="cls-18" d="M10.6 152.8h29.8v39.8H10.6z"/><path class="cls-17" d="M9 201.5h35.2M27.2 198.4H13.3M39.9 195.5H26"/><path class="cls-16" d="M224.5 376h59.3v3.4h-59.3z"/><path class="cls-22" d="M43.5 210.2h15.4l-5.8-10.1h-9.6v10.1"/><path class="cls-16" d="M56.7 206.3l-6.2-6.2M56.7 210.2l-10.1-10.1M52.6 210.2l-8.8-8.9M48.6 210.2l-4.8-5.1M44.7 210.2l-.9-1M56.7 210.2l1.5-1.5M52.6 210.2l4.1-4.1M48.6 210.2l6.7-6.5M44.7 210.2l9.1-9.1M43.8 207.1l6.9-7M43.8 203.2l2.8-3.1"/><path class="cls-22" d="M43.5 210.2h15.4l-5.8-10.1h-9.6v10.1"/><path class="cls-16" d="M56.7 206.3l-6.2-6.2M56.7 210.2l-10.1-10.1M52.6 210.2l-8.8-8.9M48.6 210.2l-4.8-5.1M44.7 210.2l-.9-1M56.7 210.2l1.5-1.5M52.6 210.2l4.1-4.1M48.6 210.2l6.7-6.5M44.7 210.2l9.1-9.1M43.8 207.1l6.9-7M43.8 203.2l2.8-3.1"/><path class="cls-18" d="M53.1 200.1h-9.6M58.9 210.2H43.5M58.9 210.2H43.5M53.1 200.1h-9.6"/><path class="cls-17" d="M40.4 201.5H10.9"/><path class="cls-1" d="M40.4 210.2H10.9"/><path class="cls-17" d="M11.4 210.2h-.5"/><path class="cls-22" d="M43.5 210.2h-3.1v-8.7h3.1"/><path class="cls-16" d="M43.8 205.1l-3.2-3.1M43.8 209.2l-3.2-3.1M40.6 210.2l3.2-3.1M40.6 206.3l3.2-3.1M40.6 202.3l.8-.8"/><path class="cls-22" d="M7.8 210.2h3.1v-8.7H7.8"/><path class="cls-16" d="M11.1 204.7L8 201.5M11.1 208.7L8 205.6M8.5 210.2l-.5-.7M8.5 210.2l2.6-2.4M8 206.8l3.1-3.1M8 202.7l1.2-1.2"/><path class="cls-18" d="M40.4 210.2v-8.7M10.9 210.2v-8.7M40.4 210.2v-8.7M43.5 210.2h-3.1M10.9 210.2v-8.7M7.8 210.2h3.1M43.5 200.1v1.4M7.8 200.1v1.4M43.5 210.2h-3.1M7.8 210.2h3.1M40.4 201.5h3.1M10.9 201.5H7.8"/><path class="cls-17" d="M294.3 170.3h17.3"/><path class="cls-7" d="M293.6 169.6h18"/><path class="cls-17" d="M295.8 171.8h15.8M294.3 170.3h17.3"/><path class="cls-7" d="M311.6 170.3v-.7"/><path class="cls-17" d="M311.6 171.8v-1.5M293.6 169.6h18M295.8 171.8h15.8M294.3 186.4v-16.1"/><path class="cls-7" d="M293.6 186.4v-16.8"/><path class="cls-17" d="M295.8 186.4v-14.6M294.3 186.4v-16.1M293.6 186.4v-16.8M295.8 186.4v-14.6"/><path class="cls-7" d="M294.3 186.4h-.7"/><path class="cls-17" d="M295.8 186.4h-1.5"/><path class="cls-23" d="M336.8 368.6v14.6h-51.1v-14.6h51.1"/><path class="cls-22" d="M336.8 383.2v-3.3h-51.1v3.3h51.1"/><path class="cls-16" d="M286.4 379.9l3.4 3.3M290.5 379.9l3.3 3.3M294.6 379.9l3.3 3.3M298.4 379.9l3.4 3.3M302.5 379.9l3.3 3.3M306.6 379.9l3.3 3.3M310.4 379.9l3.4 3.3M314.5 379.9l3.3 3.3M318.6 379.9l3.3 3.3M322.6 379.9l3.4 3.3M326.5 379.9l3.3 3.3M330.6 379.9l3.3 3.3M334.6 379.9l2.4 2.4"/><path class="cls-22" d="M336.8 379.9v-.5h-51.1v.5h51.1M336.8 379.4v-5.8h-51.1v5.8h51.1"/><path class="cls-16" d="M286.9 373.6v5.8M288.3 373.6v5.8M289.8 373.6v5.8M291.2 373.6v5.8M292.6 373.6v5.8M294.1 373.6v5.8M295.5 373.6v5.8M297 373.6v5.8M298.4 373.6v5.8M299.8 373.6v5.8M301 373.6v5.8M302.5 373.6v5.8M303.9 373.6v5.8M305.4 373.6v5.8M306.8 373.6v5.8M308.2 373.6v5.8M309.7 373.6v5.8M311.1 373.6v5.8M312.6 373.6v5.8M314 373.6v5.8M315.2 373.6v5.8M316.6 373.6v5.8M318.1 373.6v5.8M319.5 373.6v5.8M321 373.6v5.8M322.4 373.6v5.8M323.8 373.6v5.8M325.3 373.6v5.8M326.7 373.6v5.8M328.2 373.6v5.8M329.6 373.6v5.8M330.8 373.6v5.8M332.2 373.6v5.8M333.7 373.6v5.8M335.1 373.6v5.8M336.6 373.6v5.8"/><path class="cls-22" d="M336.8 373.6v-5h-51.1v5h51.1"/><path class="cls-16" d="M337 370.3l-1.6-1.7M336.3 373.6l-5-5M332.2 373.6l-5-5M328.4 373.6l-5-5M324.3 373.6l-5-5M320.2 373.6l-5-5M316.4 373.6l-5-5M312.3 373.6l-5-5M308.2 373.6l-5-5M304.2 373.6l-5.1-5M300.3 373.6l-5-5M296.2 373.6l-5-5M292.2 373.6l-5.1-5M288.3 373.6l-2.4-2.4M334.2 373.6l2.8-2.6M330.1 373.6l5-5M326.2 373.6l5.1-5M322.2 373.6l5-5M318.1 373.6l5-5M314.2 373.6l5.1-5M310.2 373.6l5-5M306.1 373.6l5-5M302.2 373.6l5.1-5M298.2 373.6l5-5M294.1 373.6l5-5M290 373.6l5-5M286.2 373.6l5-5M285.9 369.8l1.2-1.2"/><path class="cls-18" d="M336.8 379.9h-51.1M336.8 383.2h-51.1"/><path class="cls-16" d="M336.8 373.6h-51.1M336.8 379.4h-51.1"/><path class="cls-18" d="M336.8 368.6h-51.1M336.8 373.6h-51.1"/><path class="cls-17" d="M336.8 383.2h-51.1M336.8 368.6h-51.1"/><path class="cls-23" d="M408.8 373.6l-7.2-5h-24v14.6h31.2v-9.6"/><path class="cls-22" d="M408.8 383.2v-3.3h-31.2v3.3h31.2"/><path class="cls-16" d="M377.8 383l.3.2M378.6 379.9l3.3 3.3M382.6 379.9l3.4 3.3M386.7 379.9l3.4 3.3M390.8 379.9l3.4 3.3M394.6 379.9l3.4 3.3M398.7 379.9l3.4 3.3M402.8 379.9l3.4 3.3M406.6 379.9l2.4 2.1"/><path class="cls-22" d="M408.8 379.9v-.5h-31.2v.5h31.2M408.8 379.4v-5.8h-31.2v5.8h31.2"/><path class="cls-16" d="M379 373.6v5.8M380.5 373.6v5.8M381.9 373.6v5.8M383.4 373.6v5.8M384.8 373.6v5.8M386.2 373.6v5.8M387.7 373.6v5.8M389.1 373.6v5.8M390.3 373.6v5.8M391.8 373.6v5.8M393.2 373.6v5.8M394.6 373.6v5.8M396.1 373.6v5.8M397.5 373.6v5.8M399 373.6v5.8M400.4 373.6v5.8M401.8 373.6v5.8M403.3 373.6v5.8M404.7 373.6v5.8M405.9 373.6v5.8M407.4 373.6v5.8M408.8 373.6v5.8"/><path class="cls-22" d="M408.8 373.6l-7.2-5h-24v5h31.2"/><path class="cls-16" d="M408.6 373.6l-1-.9M404.5 373.6l-5.1-5M400.4 373.6l-5-5M396.6 373.6l-5.1-5M392.5 373.6l-5.1-5M388.4 373.6l-5-5M384.6 373.6l-5.1-5M380.5 373.6l-2.7-2.6M406.4 373.6l1-.9M402.3 373.6l2.7-2.6M398.2 373.6l4.6-4.3M394.4 373.6l5-5M390.3 373.6l5.1-5M386.2 373.6l5.1-5M382.4 373.6l5-5M378.3 373.6l5.1-5M377.8 370.3l1.5-1.7"/><path class="cls-18" d="M408.8 379.9h-31.2M408.8 383.2h-31.2"/><path class="cls-16" d="M408.8 373.6h-31.2M408.8 379.4h-31.2"/><path class="cls-18" d="M401.6 368.6h-24M408.8 373.6h-31.2"/><path class="cls-17" d="M408.8 383.2h-31.2M401.6 368.6h-24M375.9 376v7.2h3.4v1.9h-43.9v-1.9h3.3V376"/><path class="cls-1" d="M377.6 368.6h-40.8"/><path class="cls-17" d="M337.3 368.6h-.5"/><path class="cls-18" d="M375.9 383.2h3.4M338.7 383.2h-3.3"/><path class="cls-17" d="M336.8 373.6h40.8v2.4h-40.8zM374 376v-2.4M340.6 376v-2.4M377.6 373.6v2.4M359.4 373.6v2.4M374 373.6v2.4M355.3 373.6v2.4M359.4 373.6v2.4M340.6 373.6v2.4M355.3 373.6v2.4M336.8 373.6v2.4"/><path class="cls-22" d="M377.7 379.3h-1.8v-3.4h1.8"/><path class="cls-16" d="M376.2 376v3.4M377.6 376v3.4M377.7 379.3h-1.8v-3.4h1.8"/><path class="cls-18" d="M377.6 373.6v-5"/><path class="cls-22" d="M377.6 383.2h-1.7v-3.3h1.7"/><path class="cls-16" d="M376.2 381.3l1.6 1.7"/><path class="cls-18" d="M377.6 383.2h-1.7v-3.3h1.7M375.9 379.9V376"/><path class="cls-22" d="M336.9 379.3h1.8v-3.4h-1.8"/><path class="cls-16" d="M338 376v3.4M336.9 379.3h1.8v-3.4h-1.8"/><path class="cls-18" d="M336.8 373.6v-5"/><path class="cls-22" d="M336.8 383.2h1.9v-3.3h-1.9"/><path class="cls-16" d="M337 382.3l1 .9M338.5 379.9l.5.2"/><path class="cls-18" d="M336.8 383.2h1.9v-3.3h-1.9M338.7 379.9V376"/><path class="cls-23" d="M377.6 57.8h24l7.2-5.1v-9.6h-31.2v14.7"/><path class="cls-22" d="M377.6 43.1v3.4h31.2v-3.4h-31.2"/><path class="cls-16" d="M377.8 46.3l.3.2M378.6 43.1l3.3 3.4M382.6 43.1l3.4 3.4M386.7 43.1l3.4 3.4M390.8 43.1l3.4 3.4M394.6 43.1l3.4 3.4M398.7 43.1l3.4 3.4M402.8 43.1l3.4 3.4M406.6 43.1l2.4 2.2"/><path class="cls-22" d="M377.6 46.5v.7h31.2v-.7h-31.2M377.6 47.2v5.5h31.2v-5.5h-31.2"/><path class="cls-16" d="M408.8 52.7v-5.5M407.4 52.7v-5.5M405.9 52.7v-5.5M404.7 52.7v-5.5M403.3 52.7v-5.5M401.8 52.7v-5.5M400.4 52.7v-5.5M399 52.7v-5.5M397.5 52.7v-5.5M396.1 52.7v-5.5M394.6 52.7v-5.5M393.2 52.7v-5.5M391.8 52.7v-5.5M390.3 52.7v-5.5M389.1 52.7v-5.5M387.7 52.7v-5.5M386.2 52.7v-5.5M384.8 52.7v-5.5M383.4 52.7v-5.5M381.9 52.7v-5.5M380.5 52.7v-5.5M379 52.7v-5.5"/><path class="cls-22" d="M377.6 57.8h24l7.2-5.1h-31.2v5.1"/><path class="cls-16" d="M408.6 53l-.3-.3M406.2 54.7l-2-2M403.8 56.3l-3.4-3.6M401.4 57.8l-5.1-5.1M397.3 57.8l-5.1-5.1M393.2 57.8l-5-5.1M389.4 57.8l-5.1-5.1M385.3 57.8l-5.1-5.1M381.2 57.8l-3.4-3.6M401.6 57.8l5-5.1M397.5 57.8l5.1-5.1M393.4 57.8l5.1-5.1M389.4 57.8l5-5.1M385.5 57.8l5.1-5.1M381.4 57.8l5.1-5.1M377.8 57.5l4.6-4.8M377.8 53.5l.8-.8"/><path class="cls-18" d="M377.6 46.5h31.2M377.6 43.1h31.2"/><path class="cls-16" d="M377.6 52.7h31.2M377.6 47.2h31.2"/><path class="cls-18" d="M377.6 57.8h24M377.6 52.7h31.2"/><path class="cls-17" d="M377.6 43.1h31.2M377.6 57.8h24"/><path class="cls-23" d="M285.7 57.8V43.1h51.1v14.7h-51.1"/><path class="cls-22" d="M285.7 43.1v3.4h51.1v-3.4h-51.1"/><path class="cls-16" d="M286.4 43.1l3.4 3.4M290.5 43.1l3.3 3.4M294.6 43.1l3.3 3.4M298.4 43.1l3.4 3.4M302.5 43.1l3.3 3.4M306.6 43.1l3.3 3.4M310.6 43.1l3.4 3.4M314.5 43.1l3.3 3.4M318.6 43.1l3.3 3.4M322.6 43.1l3.4 3.4M326.5 43.1l3.3 3.4M330.6 43.1l3.3 3.4M334.6 43.1l2.4 2.4"/><path class="cls-22" d="M285.7 46.5v.7h51.1v-.7h-51.1M285.7 47.2v5.5h51.1v-5.5h-51.1"/><path class="cls-16" d="M336.6 52.7v-5.5M335.1 52.7v-5.5M333.7 52.7v-5.5M332.2 52.7v-5.5M330.8 52.7v-5.5M329.6 52.7v-5.5M328.2 52.7v-5.5M326.7 52.7v-5.5M325.3 52.7v-5.5M323.8 52.7v-5.5M322.4 52.7v-5.5M321 52.7v-5.5M319.5 52.7v-5.5M318.1 52.7v-5.5M316.6 52.7v-5.5M315.2 52.7v-5.5M314 52.7v-5.5M312.6 52.7v-5.5M311.1 52.7v-5.5M309.7 52.7v-5.5M308.2 52.7v-5.5M306.8 52.7v-5.5M305.4 52.7v-5.5M303.9 52.7v-5.5M302.5 52.7v-5.5M301 52.7v-5.5M299.8 52.7v-5.5M298.4 52.7v-5.5M297 52.7v-5.5M295.5 52.7v-5.5M294.1 52.7v-5.5M292.6 52.7v-5.5M291.2 52.7v-5.5M289.8 52.7v-5.5M288.3 52.7v-5.5M286.9 52.7v-5.5"/><path class="cls-22" d="M285.7 52.7v5.1h51.1v-5.1h-51.1"/><path class="cls-16" d="M337 53.5l-.9-.8M337 57.5l-4.8-4.8M333.2 57.8l-5-5.1M329.1 57.8l-5-5.1M325.3 57.8l-5.1-5.1M321.2 57.8l-5-5.1M317.1 57.8l-5-5.1M313 57.8l-5-5.1M309.2 57.8l-5-5.1M305.1 57.8l-5-5.1M301 57.8l-5-5.1M297.2 57.8l-5-5.1M293.1 57.8l-5-5.1M289 57.8l-3.1-3.4M333.4 57.8l3.6-3.6M329.4 57.8l5-5.1M325.3 57.8l5-5.1M321.2 57.8l5-5.1M317.4 57.8l5-5.1M313.3 57.8l5-5.1M309.2 57.8l5-5.1M305.4 57.8l5-5.1M301.3 57.8l5-5.1M297.2 57.8l5-5.1M293.4 57.8l5-5.1M289.3 57.8l5-5.1M285.9 57.3l4.3-4.6M285.9 53.2l.3-.5"/><path class="cls-18" d="M285.7 46.5h51.1M285.7 43.1h51.1"/><path class="cls-16" d="M285.7 52.7h51.1M285.7 47.2h51.1"/><path class="cls-18" d="M285.7 57.8h51.1M285.7 52.7h51.1"/><path class="cls-17" d="M285.7 43.1h51.1M285.7 57.8h51.1M338.7 50.6v-7.5h-3.3v-1.9h43.9v1.9h-3.4v7.5"/><path class="cls-1" d="M336.8 57.8h40.8"/><path class="cls-17" d="M377.1 57.8h.5"/><path class="cls-18" d="M338.7 43.1h-3.3M375.9 43.1h3.4"/><path class="cls-17" d="M336.8 50.6h40.8v2.2h-40.8zM340.6 50.6v2.1M374 50.6v2.1M336.8 52.7v-2.1M355.3 52.7v-2.1M340.6 52.7v-2.1M359.4 52.7v-2.1M355.3 52.7v-2.1M374 52.7v-2.1M359.4 52.7v-2.1M377.6 52.7v-2.1"/><path class="cls-22" d="M336.9 47.1h1.8v3.4h-1.8"/><path class="cls-16" d="M338 50.6v-3.4M336.9 47.1h1.8v3.4h-1.8"/><path class="cls-18" d="M336.8 52.7v5.1"/><path class="cls-22" d="M336.8 43.1h1.9v3.4h-1.9"/><path class="cls-16" d="M337 45.5l1 1M338.5 43.1l.5.3"/><path class="cls-18" d="M336.8 43.1h1.9v3.4h-1.9M338.7 46.5v4.1"/><path class="cls-22" d="M377.7 47.1h-1.8v3.4h1.8"/><path class="cls-16" d="M377.6 50.6v-3.4M376.2 50.6v-3.4M377.7 47.1h-1.8v3.4h1.8"/><path class="cls-18" d="M377.6 52.7v5.1"/><path class="cls-22" d="M377.6 43.1h-1.7v3.4h1.7"/><path class="cls-16" d="M376.2 44.6l1.6 1.7"/><path class="cls-18" d="M377.6 43.1h-1.7v3.4h1.7M375.9 46.5v4.1"/><path class="cls-17" d="M373.3 233h-57.6"/><path class="cls-7" d="M374 232.3h-58.3"/><path class="cls-17" d="M371.8 234.4h-56.1M373.3 233h-57.6"/><path class="cls-7" d="M315.7 233v-.7"/><path class="cls-17" d="M315.7 234.4V233M374 232.3h-58.3M371.8 234.4h-56.1"/><path class="cls-22" d="M343.7 217c1.3-.9 3-.9 4.3 0 1.9 1.5 2.9 3.8 2.9 6.2l-.3 9H341l-.3-9c0-2.4 1-4.7 2.9-6.2"/><path class="cls-17" d="M343.7 217c1.3-.9 3-.9 4.3 0 1.9 1.5 2.9 3.8 2.9 6.2l-.3 9H341l-.3-9c0-2.4 1-4.7 2.9-6.2"/><path class="cls-22" d="M345.8 227.1c-1 0-2-.3-2.8-1.1-.7-.7-1.2-1.7-1.2-2.7 0-2.1.9-4.1 2.5-5.4.9-.6 2-.6 2.9 0 1.6 1.3 2.5 3.3 2.5 5.4 0 1-.4 2-1.2 2.7-.7.7-1.7 1.1-2.8 1.1"/><path class="cls-17" d="M345.8 227.1c-1 0-2-.3-2.8-1.1-.7-.7-1.2-1.7-1.2-2.7 0-2.1.9-4.1 2.5-5.4.9-.6 2-.6 2.9 0 1.6 1.3 2.5 3.3 2.5 5.4 0 1-.4 2-1.2 2.7-.7.7-1.7 1.1-2.8 1.1"/><path class="cls-22" d="M338.7 232.3v-41.6h-22.5v41.6h22.5"/><path class="cls-17" d="M316.2 190.7h22.6v41.5h-22.6zM316.2 230.3h22.5M373.3 241.6V233"/><path class="cls-7" d="M374 241.6v-9.3"/><path class="cls-17" d="M371.8 241.6v-7.2M373.3 241.6V233M374 241.6v-9.3M371.8 241.6v-7.2"/><path class="cls-22" d="M370.6 232.2v-12-.4c0-.1-.1-.3-.2-.4-.1-.1-.2-.2-.4-.2H355.9c-.1 0-.3.1-.4.2-.1.1-.2.2-.2.4v12.4h15.6"/><path class="cls-17" d="M370.6 232.2v-12-.4c0-.1-.1-.3-.2-.4-.1-.1-.2-.2-.4-.2H355.9c-.1 0-.3.1-.4.2-.1.1-.2.2-.2.4v12.4h15.6"/><path class="cls-22" d="M193.8 83.9v51.6h4.3V83.9h-4.3"/><path class="cls-16" d="M194 86.3l2.4-2.4M194 90.7l4.3-4.4M194 95l4.3-4.3M194 99.3l4.3-4.3M194 103.4l4.3-4.3M194 107.7l4.3-4.3M194 112l4.3-4.3M194 116.1l4.3-4.3M194 120.4l4.3-4.3M194 124.7l4.3-4.3M194 129.1l4.3-4.4M194 133.1l4.3-4.3M195.7 135.5l2.6-2.4"/><path class="cls-22" d="M193.8 83.9v51.6h4.3V83.9h-4.3"/><path class="cls-16" d="M194 86.3l2.4-2.4M194 90.7l4.3-4.4M194 95l4.3-4.3M194 99.3l4.3-4.3M194 103.4l4.3-4.3M194 107.7l4.3-4.3M194 112l4.3-4.3M194 116.1l4.3-4.3M194 120.4l4.3-4.3M194 124.7l4.3-4.3M194 129.1l4.3-4.4M194 133.1l4.3-4.3M195.7 135.5l2.6-2.4"/><path class="cls-18" d="M198.1 135.5V83.9M193.8 135.5V83.9M193.8 135.5V83.9M198.1 135.5V83.9M193.8 135.5h4.3"/><path class="cls-17" d="M198.1 82.3h-4.3M198.1 59.7h-4.3"/><path class="cls-18" d="M198.1 83.9h-4.3M198.1 57.8h-4.3"/><path class="cls-16" d="M193.7 59.6c-12.4 0-22.7 10.2-22.7 22.7M193.8 82.3H171"/><path class="cls-17" d="M99.4 13.9h-3.6M95.8 13.9h3.6M95.8 14.7h90M95.8 0h102.4M190.7 8.9H95.8m0-2.3h96.9M101.1 6.7v2.1M187.5 6.7v2.1M120.6 8.8V6.7M101.1 8.8V6.7M124.6 8.8V6.7M120.6 8.8V6.7M142.2 8.8V6.7M124.6 8.8V6.7M146.2 8.8V6.7M142.2 8.8V6.7M163.8 8.8V6.7M146.2 8.8V6.7M168.1 8.8V6.7M163.8 8.8V6.7M187.5 8.8V6.7M168.1 8.8V6.7"/><path class="cls-23" d="M204.8 46.5h.5l-.5-3.4-13.2 2.4 2.2 12.3 4.3-5.1 1.4-5.5 5.3-.7"/><path class="cls-22" d="M199.5 47.2l5.3-.7-.5-3.1-5.3.9.5 2.9M198.1 52.7l1.4-5.5-.5-2.9-2.4.3 1.5 8.1"/><path class="cls-16" d="M198.1 52.5h.2M197.8 51.1l.8-.3M197.6 49.6l1.4-.2M197.4 48.2l2.1-.3M197.1 47l2.4-.5M196.9 45.5l2.4-.4"/><path class="cls-22" d="M193.8 57.8l4.3-5.1-1.5-8.1-5 .9 2.2 12.3"/><path class="cls-16" d="M193.3 54.2l1.9 1.9M192.3 49.4l4.8 4.5M192.6 45.3l5.2 5.5M195.9 44.8l1 1"/><path class="cls-18" d="M204.3 43.4l.5 3.1"/><path class="cls-16" d="M196.6 44.6l1.5 8.1M199 44.3l.5 2.9"/><path class="cls-18" d="M191.6 45.5l2.2 12.3M196.6 44.6l1.5 8.1"/><path class="cls-17" d="M191.6 45.5l2.2 12.3"/><path class="cls-18" d="M204.8 43.1l.5 3.4"/><path class="cls-17" d="M185.8 14.7l5.1 30.6 5.7-1M198.2 0l7.2 43.2-6.5 1"/><path class="cls-17" d="M192.6 6.7l6.4 37.6-2.4.3-6-35.8M193.3 10.5l-2.2.5M198.3 40.3l-2.1.4M193.3 23.7l2.1-.2M191.1 11l2.2-.5M194 27.8l2.2-.3M193.3 23.7l2.1-.2M196.2 40.7l2.1-.4M194 27.8l2.2-.3M196.6 44.6l2.4-.3"/><path class="cls-22" d="M191.6 45.5v-.4l5-.8v.3"/><path class="cls-16" d="M192.1 45.1l.5.2M195.7 44.6l.2.2"/><path class="cls-18" d="M191.6 45.1l5-.8v.3M191.6 45.5v-.4"/><path class="cls-16" d="M196.6 44.6l2.4-.3"/><path class="cls-18" d="M204.3 43.4l.5-.3M191.6 45.1l5-.8v.3M191.6 45.5v-.4"/><path class="cls-23" d="M199.5 47.2l-1.4 5.5-4.3 5.1h28.8V43.1h-23.8l.5 3.4h5.5l-5.3.7"/><path class="cls-22" d="M222.6 43.1h-23.8l.5 3.4h23.3v-3.4"/><path class="cls-16" d="M199 43.9l2.7 2.6M202.4 43.1l3.4 3.4M206.2 43.1l3.4 3.4M210.3 43.1l3.4 3.4M214.4 43.1l3.4 3.4M218.2 43.1l3.4 3.4M222.3 43.1l.5.3"/><path class="cls-22" d="M222.6 46.5h-17.8l-5.3.7h23.1v-.7M222.6 47.2h-23.1l-1.4 5.5h24.5v-5.5"/><path class="cls-16" d="M221.8 52.7v-5.5M220.4 52.7v-5.5M219 52.7v-5.5M217.5 52.7v-5.5M216.1 52.7v-5.5M214.6 52.7v-5.5M213.2 52.7v-5.5M211.8 52.7v-5.5M210.3 52.7v-5.5M209.1 52.7v-5.5M207.7 52.7v-5.5M206.2 52.7v-5.5M204.8 52.7v-5.5M203.4 52.7v-5.5M201.9 52.7v-5.5M200.5 52.7v-5.5M199 52.7v-3.3"/><path class="cls-22" d="M222.6 52.7h-24.5l-4.3 5.1h28.8v-5.1"/><path class="cls-16" d="M195.2 56.1l1.7 1.7M197.1 53.9l3.9 3.9M199.8 52.7l5 5.1M203.8 52.7l5.1 5.1M207.9 52.7l5.1 5.1M212 52.7l5 5.1M215.8 52.7l5.1 5.1M219.9 52.7l2.9 2.9"/><path class="cls-18" d="M204.8 46.5h17.8M204.8 43.1h17.8"/><path class="cls-16" d="M198.1 52.7h24.5M199.5 47.2h23.1"/><path class="cls-18" d="M193.8 57.8h28.8M198.1 52.7h24.5"/><path class="cls-17" d="M204.8 43.1h17.8M193.8 57.8h28.8"/><path class="cls-18" d="M198.8 43.1h6M198.8 43.1l.5 3.4M199.3 46.5h5.5"/><path class="cls-17" d="M224.5 50.6v-7.5h-3.4v-1.9h66v1.9h-3.3v7.5"/><path class="cls-1" d="M222.6 57.8h63.1"/><path class="cls-17" d="M285.2 57.8h.5"/><path class="cls-18" d="M224.5 43.1h-3.4M283.8 43.1h3.3"/><path class="cls-17" d="M222.6 50.6h63.1v2.2h-63.1zM226.4 50.6v2.1M281.8 50.6v2.1M222.6 52.7v-2.1M241.5 52.7v-2.1M226.4 52.7v-2.1M245.6 52.7v-2.1M241.5 52.7v-2.1M262.6 52.7v-2.1M245.6 52.7v-2.1M266.7 52.7v-2.1M262.6 52.7v-2.1M281.8 52.7v-2.1M266.7 52.7v-2.1M285.7 52.7v-2.1"/><path class="cls-22" d="M222.7 47.1h1.8v3.4h-1.8"/><path class="cls-16" d="M223.3 50.6v-3.4M222.7 47.1h1.8v3.4h-1.8"/><path class="cls-18" d="M222.6 52.7v5.1"/><path class="cls-22" d="M222.6 43.1h1.9v3.4h-1.9"/><path class="cls-16" d="M222.8 43.4l1.9 1.9"/><path class="cls-18" d="M222.6 43.1h1.9v3.4h-1.9M224.5 46.5v4.1"/><path class="cls-22" d="M285.6 47.1h-1.9v3.4h1.9"/><path class="cls-16" d="M285.4 50.6v-3.4M284.2 50.6v-3.4M285.6 47.1h-1.9v3.4h1.9"/><path class="cls-18" d="M285.7 52.7v5.1"/><path class="cls-22" d="M285.7 43.1h-1.9v3.4h1.9"/><path class="cls-16" d="M284 44.6l1.9 1.9"/><path class="cls-18" d="M285.7 43.1h-1.9v3.4h1.9M283.8 46.5v4.1"/><path class="cls-23" d="M130.6 368.6v14.6H95.8v-14.6h34.8"/><path class="cls-22" d="M130.6 383.2v-3.3H95.8v3.3h34.8"/><path class="cls-16" d="M96.1 381.8l1.2 1.4M98 379.9l3.4 3.3M102.1 379.9l3.3 3.3M106.2 379.9l3.3 3.3M110 379.9l3.4 3.3M114.1 379.9l3.3 3.3M118.2 379.9l3.3 3.3M122 379.9l3.4 3.3M126.1 379.9l3.3 3.3M130.2 379.9l.7.7"/><path class="cls-22" d="M130.6 379.9v-.5H95.8v.5h34.8M130.6 379.4v-5.8H95.8v5.8h34.8"/><path class="cls-16" d="M97 373.6v5.8M98.5 373.6v5.8M99.9 373.6v5.8M101.4 373.6v5.8M102.8 373.6v5.8M104.2 373.6v5.8M105.4 373.6v5.8M106.9 373.6v5.8M108.3 373.6v5.8M109.8 373.6v5.8M111.2 373.6v5.8M112.6 373.6v5.8M114.1 373.6v5.8M115.5 373.6v5.8M117 373.6v5.8M118.4 373.6v5.8M119.8 373.6v5.8M121 373.6v5.8M122.5 373.6v5.8M123.9 373.6v5.8M125.4 373.6v5.8M126.8 373.6v5.8M128.2 373.6v5.8M129.7 373.6v5.8"/><path class="cls-22" d="M130.6 373.6v-5H95.8v5h34.8"/><path class="cls-16" d="M96.1 369.8l3.8 3.8M98.7 368.6l5.1 5M102.8 368.6l5 5M106.9 368.6l5 5M110.7 368.6l5.1 5M114.8 368.6l5 5M118.9 368.6l5 5M123 368.6l5 5M126.8 368.6l4.1 3.8"/><path class="cls-18" d="M130.6 379.9H95.8M130.6 383.2H95.8"/><path class="cls-16" d="M130.6 373.6H95.8M130.6 379.4H95.8"/><path class="cls-18" d="M130.6 368.6H95.8M130.6 373.6H95.8"/><path class="cls-17" d="M130.6 383.2H95.8M130.6 368.6H95.8"/><path class="cls-23" d="M222.6 368.6v14.6h-51.2v-14.6h51.2"/><path class="cls-22" d="M222.6 383.2v-3.3h-51.2v3.3h51.2"/><path class="cls-16" d="M171.7 381.3l1.9 1.9M174.3 379.9l3.4 3.3M178.2 379.9l3.3 3.3M182.2 379.9l3.4 3.3M186.3 379.9l3.4 3.3M190.2 379.9l3.3 3.3M194.2 379.9l3.4 3.3M198.3 379.9l3.4 3.3M202.2 379.9l3.3 3.3M206.2 379.9l3.4 3.3M210.3 379.9l3.4 3.3M214.4 379.9l3.4 3.3M218.2 379.9l3.4 3.3M222.3 379.9l.5.4"/><path class="cls-22" d="M222.6 379.9v-.5h-51.2v.5h51.2M222.6 379.4v-5.8h-51.2v5.8h51.2"/><path class="cls-16" d="M172.2 373.6v5.8M173.6 373.6v5.8M175 373.6v5.8M176.5 373.6v5.8M177.9 373.6v5.8M179.4 373.6v5.8M180.6 373.6v5.8M182 373.6v5.8M183.4 373.6v5.8M184.9 373.6v5.8M186.3 373.6v5.8M187.8 373.6v5.8M189.2 373.6v5.8M190.6 373.6v5.8M192.1 373.6v5.8M193.5 373.6v5.8M195 373.6v5.8M196.2 373.6v5.8M197.6 373.6v5.8M199 373.6v5.8M200.5 373.6v5.8M201.9 373.6v5.8M203.4 373.6v5.8M204.8 373.6v5.8M206.2 373.6v5.8M207.7 373.6v5.8M209.1 373.6v5.8M210.3 373.6v5.8M211.8 373.6v5.8M213.2 373.6v5.8M214.6 373.6v5.8M216.1 373.6v5.8M217.5 373.6v5.8M219 373.6v5.8M220.4 373.6v5.8M221.8 373.6v5.8"/><path class="cls-22" d="M222.6 373.6v-5h-51.2v5h51.2"/><path class="cls-16" d="M171.7 373.1l.2.5M171.7 369.3l4.3 4.3M175 368.6l5.1 5M178.9 368.6l5 5M183 368.6l5 5M187 368.6l5.1 5M190.9 368.6l5 5M195 368.6l5 5M199 368.6l5.1 5M203.1 368.6l5.1 5M207 368.6l5 5M211 368.6l5.1 5M215.1 368.6l5.1 5M219 368.6l3.8 3.6"/><path class="cls-18" d="M222.6 379.9h-51.2M222.6 383.2h-51.2"/><path class="cls-16" d="M222.6 373.6h-51.2M222.6 379.4h-51.2"/><path class="cls-18" d="M222.6 368.6h-51.2M222.6 373.6h-51.2"/><path class="cls-17" d="M222.6 383.2h-51.2M222.6 368.6h-51.2M169.5 376v7.2h3.4v1.9H129v-1.9h3.3V376"/><path class="cls-1" d="M171.4 368.6h-40.8"/><path class="cls-17" d="M131.1 368.6h-.5"/><path class="cls-18" d="M169.5 383.2h3.4M132.3 383.2H129"/><path class="cls-17" d="M130.6 373.6h40.8v2.4h-40.8zM167.6 376v-2.4M134.2 376v-2.4M171.4 373.6v2.4M153 373.6v2.4M167.6 373.6v2.4M148.9 373.6v2.4M153 373.6v2.4M134.2 373.6v2.4M148.9 373.6v2.4M130.6 373.6v2.4"/><path class="cls-22" d="M171.3 379.3h-1.8v-3.4h1.8"/><path class="cls-16" d="M170.7 376v3.4M171.3 379.3h-1.8v-3.4h1.8"/><path class="cls-18" d="M171.4 373.6v-5"/><path class="cls-22" d="M171.4 383.2h-1.9v-3.3h1.9"/><path class="cls-16" d="M170.2 379.9l1.5 1.4"/><path class="cls-18" d="M171.4 383.2h-1.9v-3.3h1.9M169.5 379.9V376"/><path class="cls-22" d="M130.5 379.3h1.9v-3.4h-1.9"/><path class="cls-16" d="M131.1 376v3.4M130.5 379.3h1.9v-3.4h-1.9"/><path class="cls-18" d="M130.6 373.6v-5"/><path class="cls-22" d="M130.6 383.2h1.7v-3.3h-1.7"/><path class="cls-16" d="M130.9 380.6l1.7 1.7"/><path class="cls-18" d="M130.6 383.2h1.7v-3.3h-1.7M132.3 379.9V376"/><path class="cls-1" d="M285.7 368.6h-63.1"/><path class="cls-17" d="M223 368.6h-.4M222.6 373.6h63.1v2.4h-63.1zM281.8 376v-2.4M226.4 376v-2.4M285.7 373.6v2.4M266.7 373.6v2.4M281.8 373.6v2.4M262.6 373.6v2.4M266.7 373.6v2.4M245.6 373.6v2.4M262.6 373.6v2.4M241.5 373.6v2.4M245.6 373.6v2.4M226.4 373.6v2.4M241.5 373.6v2.4M222.6 373.6v2.4"/><path class="cls-18" d="M285.7 373.6v-5"/><path class="cls-17" d="M221.1 383.2v1.9"/><path class="cls-8" d="M221.1 385.1h66"/><path class="cls-17" d="M287.1 385.1v-.9"/><path class="cls-22" d="M285.6 379.3h-1.9v-3.4h1.9"/><path class="cls-16" d="M284.2 376v3.4M285.4 376v3.4M285.6 379.3h-1.9v-3.4h1.9"/><path class="cls-22" d="M285.7 383.2h-1.9v-3.3h1.9"/><path class="cls-16" d="M284 381.3l1.9 1.9"/><path class="cls-18" d="M285.7 383.2h-1.9v-3.3h1.9M283.8 379.9V376"/><path class="cls-22" d="M222.7 379.3h1.8v-3.4h-1.8"/><path class="cls-16" d="M223.3 376v3.4M222.7 379.3h1.8v-3.4h-1.8"/><path class="cls-18" d="M222.6 373.6v-5"/><path class="cls-22" d="M222.6 383.2h1.9v-3.3h-1.9"/><path class="cls-16" d="M222.8 380.3l1.9 2"/><path class="cls-18" d="M222.6 383.2h1.9v-3.3h-1.9M224.5 379.9V376"/><path class="cls-22" d="M408.8 52.7l-7.2 5.1v310.8l7.2 5V52.7"/><path class="cls-16" d="M409 53.2l-.4-.2M409 57.3l-2.8-2.6M409 61.4l-5.2-5.1M409 65.5l-7.2-7.2M409 69.3l-7.2-7.2M409 73.4l-7.2-7.2M409 77.5l-7.2-7.2M409 81.3l-7.2-7.2M409 85.4l-7.2-7.2M409 89.5l-7.2-7.2M409 93.5l-7.2-7.2M409 97.4l-7.2-7.2M409 101.5l-7.2-7.2M409 105.5l-7.2-7.2M409 109.4l-7.2-7.2M409 113.5l-7.2-7.2M409 117.5l-7.2-7.2M409 121.4l-7.2-7.2M409 125.5l-7.2-7.2M409 129.5l-7.2-7.2M409 133.6l-7.2-7.2M409 137.5l-7.2-7.2M409 141.5l-7.2-7.2M409 145.6l-7.2-7.2M409 149.5l-7.2-7.2M409 153.5l-7.2-7.2M409 157.6l-7.2-7.2M409 161.5l-7.2-7.2M409 165.5l-7.2-7.2M409 169.6l-7.2-7.2M409 173.7l-7.2-7.2M409 177.5l-7.2-7.2M409 181.6l-7.2-7.2M409 185.7l-7.2-7.2M409 189.5l-7.2-7.2M409 193.6l-7.2-7.2M409 197.7l-7.2-7.2M409 201.8l-7.2-7.2M409 205.6l-7.2-7.2M409 209.7l-7.2-7.2M409 213.8l-7.2-7.2M409 217.6l-7.2-7.2M409 221.7l-7.2-7.2M409 225.8l-7.2-7.2M409 229.6l-7.2-7.2M409 233.7l-7.2-7.2M409 237.8l-7.2-7.2M409 241.9l-7.2-7.2M409 245.7l-7.2-7.2M409 249.8l-7.2-7.2M409 253.9l-7.2-7.2M409 257.7l-7.2-7.2M409 261.8l-7.2-7.2M409 265.9l-7.2-7.2M409 269.7l-7.2-7.2M409 273.8l-7.2-7.2M409 277.9l-7.2-7.2M409 281.9l-7.2-7.2M409 285.8l-7.2-7.2M409 289.9l-7.2-7.2M409 293.9l-7.2-7.2M409 297.8l-7.2-7.2M409 301.9l-7.2-7.2M409 305.9l-7.2-7.2M409 310l-7.2-7.2M409 313.9l-7.2-7.2M409 317.9l-7.2-7.2M409 322l-7.2-7.2M409 325.9l-7.2-7.2M409 329.9l-7.2-7.2M409 334l-7.2-7.2M409 337.9l-7.2-7.2M409 341.9l-7.2-7.2M409 346l-7.2-7.2M409 350.1l-7.2-7.2M409 353.9l-7.2-7.2M409 358l-7.2-7.2M409 362.1l-7.2-7.2M409 365.9l-7.2-7.2M409 370l-7.2-7.2M407.6 372.7l-5.8-5.8M407.4 372.7l1.6-1.7M405 371l4-3.9M402.8 369.3l6.2-6.2M401.8 366.2l7.2-7.2M401.8 362.1l7.2-7.2M401.8 358.3l7.2-7.2M401.8 354.2l7.2-7.2M401.8 350.1l7.2-7.2M401.8 346.3l7.2-7.2M401.8 342.2l7.2-7.2M401.8 338.1l7.2-7.2M401.8 334.3l7.2-7.2M401.8 330.2l7.2-7.2M401.8 326.1l7.2-7.2M401.8 322l7.2-7.2M401.8 318.2l7.2-7.2M401.8 314.1l7.2-7.2M401.8 310l7.2-7.2M401.8 306.2l7.2-7.2M401.8 302.1l7.2-7.2M401.8 298l7.2-7.2M401.8 294.2l7.2-7.2M401.8 290.1l7.2-7.2M401.8 286l7.2-7.2M401.8 281.9l7.2-7.2M401.8 278.1l7.2-7.2M401.8 274l7.2-7.2M401.8 269.9l7.2-7.2M401.8 266.1l7.2-7.2M401.8 262l7.2-7.2M401.8 257.9l7.2-7.2M401.8 253.9l7.2-7.2M401.8 250l7.2-7.2M401.8 245.9l7.2-7.2M401.8 241.9l7.2-7.2M401.8 238l7.2-7.2M401.8 233.9l7.2-7.2M401.8 229.9l7.2-7.2M401.8 226l7.2-7.2M401.8 221.9l7.2-7.2M401.8 217.9l7.2-7.2M401.8 213.8l7.2-7.2M401.8 209.9l7.2-7.2M401.8 205.9l7.2-7.2M401.8 201.8l7.2-7.2M401.8 197.9l7.2-7.2M401.8 193.9l7.2-7.2M401.8 189.8l7.2-7.2M401.8 185.9l7.2-7.2M401.8 181.9l7.2-7.2M401.8 177.8l7.2-7.2M401.8 173.7l7.2-7.2M401.8 169.9l7.2-7.2M401.8 165.8l7.2-7.2M401.8 161.7l7.2-7.2M401.8 157.9l7.2-7.2M401.8 153.8l7.2-7.2M401.8 149.7l7.2-7.2M401.8 145.9l7.2-7.2M401.8 141.8l7.2-7.2M401.8 137.7l7.2-7.2M401.8 133.6l7.2-7.2M401.8 129.8l7.2-7.2M401.8 125.7l7.2-7.2M401.8 121.6l7.2-7.2M401.8 117.8l7.2-7.2M401.8 113.7l7.2-7.2M401.8 109.6l7.2-7.2M401.8 105.5l7.2-7.2M401.8 101.7l7.2-7.2M401.8 97.6l7.2-7.2M401.8 93.5l7.2-7.2M401.8 89.7l7.2-7.2M401.8 85.6l7.2-7.2M401.8 81.5l7.2-7.2M401.8 77.7l7.2-7.2M401.8 73.6l7.2-7.2M401.8 69.5l7.2-7.2M401.8 65.5l7.2-7.2M401.8 61.6l7.2-7.2"/><path class="cls-22" d="M408.8 52.7l-7.2 5.1v310.8l7.2 5V52.7"/><path class="cls-16" d="M409 53.2l-.4-.2M409 57.3l-2.8-2.6M409 61.4l-5.2-5.1M409 65.5l-7.2-7.2M409 69.3l-7.2-7.2M409 73.4l-7.2-7.2M409 77.5l-7.2-7.2M409 81.3l-7.2-7.2M409 85.4l-7.2-7.2M409 89.5l-7.2-7.2M409 93.5l-7.2-7.2M409 97.4l-7.2-7.2M409 101.5l-7.2-7.2M409 105.5l-7.2-7.2M409 109.4l-7.2-7.2M409 113.5l-7.2-7.2M409 117.5l-7.2-7.2M409 121.4l-7.2-7.2M409 125.5l-7.2-7.2M409 129.5l-7.2-7.2M409 133.6l-7.2-7.2M409 137.5l-7.2-7.2M409 141.5l-7.2-7.2M409 145.6l-7.2-7.2M409 149.5l-7.2-7.2M409 153.5l-7.2-7.2M409 157.6l-7.2-7.2M409 161.5l-7.2-7.2M409 165.5l-7.2-7.2M409 169.6l-7.2-7.2M409 173.7l-7.2-7.2M409 177.5l-7.2-7.2M409 181.6l-7.2-7.2M409 185.7l-7.2-7.2M409 189.5l-7.2-7.2M409 193.6l-7.2-7.2M409 197.7l-7.2-7.2M409 201.8l-7.2-7.2M409 205.6l-7.2-7.2M409 209.7l-7.2-7.2M409 213.8l-7.2-7.2M409 217.6l-7.2-7.2M409 221.7l-7.2-7.2M409 225.8l-7.2-7.2M409 229.6l-7.2-7.2M409 233.7l-7.2-7.2M409 237.8l-7.2-7.2M409 241.9l-7.2-7.2M409 245.7l-7.2-7.2M409 249.8l-7.2-7.2M409 253.9l-7.2-7.2M409 257.7l-7.2-7.2M409 261.8l-7.2-7.2M409 265.9l-7.2-7.2M409 269.7l-7.2-7.2M409 273.8l-7.2-7.2M409 277.9l-7.2-7.2M409 281.9l-7.2-7.2M409 285.8l-7.2-7.2M409 289.9l-7.2-7.2M409 293.9l-7.2-7.2M409 297.8l-7.2-7.2M409 301.9l-7.2-7.2M409 305.9l-7.2-7.2M409 310l-7.2-7.2M409 313.9l-7.2-7.2M409 317.9l-7.2-7.2M409 322l-7.2-7.2M409 325.9l-7.2-7.2M409 329.9l-7.2-7.2M409 334l-7.2-7.2M409 337.9l-7.2-7.2M409 341.9l-7.2-7.2M409 346l-7.2-7.2M409 350.1l-7.2-7.2M409 353.9l-7.2-7.2M409 358l-7.2-7.2M409 362.1l-7.2-7.2M409 365.9l-7.2-7.2M409 370l-7.2-7.2M407.6 372.7l-5.8-5.8M407.4 372.7l1.6-1.7M405 371l4-3.9M402.8 369.3l6.2-6.2M401.8 366.2l7.2-7.2M401.8 362.1l7.2-7.2M401.8 358.3l7.2-7.2M401.8 354.2l7.2-7.2M401.8 350.1l7.2-7.2M401.8 346.3l7.2-7.2M401.8 342.2l7.2-7.2M401.8 338.1l7.2-7.2M401.8 334.3l7.2-7.2M401.8 330.2l7.2-7.2M401.8 326.1l7.2-7.2M401.8 322l7.2-7.2M401.8 318.2l7.2-7.2M401.8 314.1l7.2-7.2M401.8 310l7.2-7.2M401.8 306.2l7.2-7.2M401.8 302.1l7.2-7.2M401.8 298l7.2-7.2M401.8 294.2l7.2-7.2M401.8 290.1l7.2-7.2M401.8 286l7.2-7.2M401.8 281.9l7.2-7.2M401.8 278.1l7.2-7.2M401.8 274l7.2-7.2M401.8 269.9l7.2-7.2M401.8 266.1l7.2-7.2M401.8 262l7.2-7.2M401.8 257.9l7.2-7.2M401.8 253.9l7.2-7.2M401.8 250l7.2-7.2M401.8 245.9l7.2-7.2M401.8 241.9l7.2-7.2M401.8 238l7.2-7.2M401.8 233.9l7.2-7.2M401.8 229.9l7.2-7.2M401.8 226l7.2-7.2M401.8 221.9l7.2-7.2M401.8 217.9l7.2-7.2M401.8 213.8l7.2-7.2M401.8 209.9l7.2-7.2M401.8 205.9l7.2-7.2M401.8 201.8l7.2-7.2M401.8 197.9l7.2-7.2M401.8 193.9l7.2-7.2M401.8 189.8l7.2-7.2M401.8 185.9l7.2-7.2M401.8 181.9l7.2-7.2M401.8 177.8l7.2-7.2M401.8 173.7l7.2-7.2M401.8 169.9l7.2-7.2M401.8 165.8l7.2-7.2M401.8 161.7l7.2-7.2M401.8 157.9l7.2-7.2M401.8 153.8l7.2-7.2M401.8 149.7l7.2-7.2M401.8 145.9l7.2-7.2M401.8 141.8l7.2-7.2M401.8 137.7l7.2-7.2M401.8 133.6l7.2-7.2M401.8 129.8l7.2-7.2M401.8 125.7l7.2-7.2M401.8 121.6l7.2-7.2M401.8 117.8l7.2-7.2M401.8 113.7l7.2-7.2M401.8 109.6l7.2-7.2M401.8 105.5l7.2-7.2M401.8 101.7l7.2-7.2M401.8 97.6l7.2-7.2M401.8 93.5l7.2-7.2M401.8 89.7l7.2-7.2M401.8 85.6l7.2-7.2M401.8 81.5l7.2-7.2M401.8 77.7l7.2-7.2M401.8 73.6l7.2-7.2M401.8 69.5l7.2-7.2M401.8 65.5l7.2-7.2M401.8 61.6l7.2-7.2"/><path class="cls-18" d="M408.8 368.6V57.8M401.6 368.6V57.8M401.6 368.6V57.8M408.8 368.6V57.8M408.8 373.6v-5M408.8 57.8v-5.1"/><path class="cls-22" d="M190.9 142.5l7.2-7H58.9v7h132"/><path class="cls-16" d="M196.4 137.5l-1.9-2M194.2 139.4l-3.8-3.9M192.3 141.3l-5.7-5.8M189.4 142.5l-6.9-7M185.4 142.5l-7-7M181.3 142.5l-7-7M177.4 142.5l-6.9-7M173.4 142.5l-7-7M169.3 142.5l-7-7M165.4 142.5l-6.9-7M161.4 142.5l-7-7M157.3 142.5l-7-7M153.4 142.5l-6.9-7M149.4 142.5l-7-7M145.3 142.5l-7-7M141.2 142.5l-7-7M137.4 142.5l-7-7M133.3 142.5l-7-7M129.2 142.5l-7-7M125.4 142.5l-7-7M121.3 142.5l-7-7M117.2 142.5l-7-7M113.1 142.5l-6.9-7M109.3 142.5l-7-7M105.2 142.5l-7-7M101.1 142.5l-6.9-7M97.3 142.5l-7-7M93.2 142.5l-7-7M89.1 142.5l-6.9-7M85.3 142.5l-7-7M81.2 142.5l-7-7M77.1 142.5l-6.9-7M73 142.5l-6.9-7M69.2 142.5l-7-7M65.1 142.5l-6-6.2M61 142.5l-1.9-2.2M188.5 142.5l6.9-7M184.4 142.5l7-7M180.6 142.5l6.9-7M176.5 142.5l6.9-7M172.4 142.5l7-7M168.6 142.5l6.9-7M164.5 142.5l6.9-7M160.4 142.5l7-7M156.3 142.5l7-7M152.5 142.5l6.9-7M148.4 142.5l7-7M144.3 142.5l7-7M140.5 142.5l6.9-7M136.4 142.5l7-7M132.3 142.5l7-7M128.2 142.5l7-7M124.4 142.5l7-7M120.3 142.5l7-7M116.2 142.5l7-7M112.4 142.5l7-7M108.3 142.5l7-7M104.2 142.5l7-7M100.4 142.5l7-7M96.3 142.5l7-7M92.2 142.5l7-7M88.2 142.5l6.9-7M84.3 142.5l7-7M80.2 142.5l7-7M76.2 142.5l6.9-7M72.3 142.5l7-7M68.2 142.5l7-7M64.2 142.5l6.9-7M60.3 142.5l7-7M59.1 139.6l4.1-4.1M59.1 135.8v-.3"/><path class="cls-22" d="M190.9 142.5l7.2-7H58.9v7h132"/><path class="cls-16" d="M196.4 137.5l-1.9-2M194.2 139.4l-3.8-3.9M192.3 141.3l-5.7-5.8M189.4 142.5l-6.9-7M185.4 142.5l-7-7M181.3 142.5l-7-7M177.4 142.5l-6.9-7M173.4 142.5l-7-7M169.3 142.5l-7-7M165.4 142.5l-6.9-7M161.4 142.5l-7-7M157.3 142.5l-7-7M153.4 142.5l-6.9-7M149.4 142.5l-7-7M145.3 142.5l-7-7M141.2 142.5l-7-7M137.4 142.5l-7-7M133.3 142.5l-7-7M129.2 142.5l-7-7M125.4 142.5l-7-7M121.3 142.5l-7-7M117.2 142.5l-7-7M113.1 142.5l-6.9-7M109.3 142.5l-7-7M105.2 142.5l-7-7M101.1 142.5l-6.9-7M97.3 142.5l-7-7M93.2 142.5l-7-7M89.1 142.5l-6.9-7M85.3 142.5l-7-7M81.2 142.5l-7-7M77.1 142.5l-6.9-7M73 142.5l-6.9-7M69.2 142.5l-7-7M65.1 142.5l-6-6.2M61 142.5l-1.9-2.2M188.5 142.5l6.9-7M184.4 142.5l7-7M180.6 142.5l6.9-7M176.5 142.5l6.9-7M172.4 142.5l7-7M168.6 142.5l6.9-7M164.5 142.5l6.9-7M160.4 142.5l7-7M156.3 142.5l7-7M152.5 142.5l6.9-7M148.4 142.5l7-7M144.3 142.5l7-7M140.5 142.5l6.9-7M136.4 142.5l7-7M132.3 142.5l7-7M128.2 142.5l7-7M124.4 142.5l7-7M120.3 142.5l7-7M116.2 142.5l7-7M112.4 142.5l7-7M108.3 142.5l7-7M104.2 142.5l7-7M100.4 142.5l7-7M96.3 142.5l7-7M92.2 142.5l7-7M88.2 142.5l6.9-7M84.3 142.5l7-7M80.2 142.5l7-7M76.2 142.5l6.9-7M72.3 142.5l7-7M68.2 142.5l7-7M64.2 142.5l6.9-7M60.3 142.5l7-7M59.1 139.6l4.1-4.1M59.1 135.8v-.3"/><path class="cls-18" d="M58.9 142.5h132M102.8 135.5h91M58.9 135.5h36.9M102.8 135.5h91M58.9 142.5h132M58.9 135.5h36.9M193.8 135.5h4.3"/><path class="cls-22" d="M53.1 200.1l5.8 10.1v-74.7l-5.8 9.9v54.7"/><path class="cls-16" d="M59.1 136.3l-.5-.3M59.1 140.3l-1.9-1.6M59.1 144.4l-3.3-3.3M59.1 148.5l-4.8-4.8M59.1 152.3l-5.7-5.7M59.1 156.4l-5.7-5.7M59.1 160.5l-5.7-5.8M59.1 164.3l-5.7-5.7M59.1 168.4l-5.7-5.7M59.1 172.5l-5.7-5.8M59.1 176.3l-5.7-5.7M59.1 180.4l-5.7-5.7M59.1 184.5l-5.7-5.8M59.1 188.6l-5.7-5.8M59.1 192.4l-5.7-5.7M59.1 196.5l-5.7-5.8M59.1 200.6l-5.7-5.8M59.1 204.4l-5.7-5.7M59.1 208.5l-2.4-2.2M58.2 208.7l.9-.9M56.7 206.1l2.4-2.2M55.3 203.7l3.8-3.8M53.8 201.1l5.3-5.3M53.4 197.5l5.7-5.8M53.4 193.6l5.7-5.7M53.4 189.5l5.7-5.7M53.4 185.5l5.7-5.8M53.4 181.6l5.7-5.7M53.4 177.5l5.7-5.7M53.4 173.5l5.7-5.8M53.4 169.6l5.7-5.7M53.4 165.5l5.7-5.7M53.4 161.5l5.7-5.8M53.4 157.4l5.7-5.8M53.4 153.5l5.7-5.7M53.4 149.5l5.7-5.8M53.4 145.4l5.7-5.8M58.9 135.8h.2"/><path class="cls-22" d="M53.1 200.1l5.8 10.1v-74.7l-5.8 9.9v54.7"/><path class="cls-16" d="M59.1 136.3l-.5-.3M59.1 140.3l-1.9-1.6M59.1 144.4l-3.3-3.3M59.1 148.5l-4.8-4.8M59.1 152.3l-5.7-5.7M59.1 156.4l-5.7-5.7M59.1 160.5l-5.7-5.8M59.1 164.3l-5.7-5.7M59.1 168.4l-5.7-5.7M59.1 172.5l-5.7-5.8M59.1 176.3l-5.7-5.7M59.1 180.4l-5.7-5.7M59.1 184.5l-5.7-5.8M59.1 188.6l-5.7-5.8M59.1 192.4l-5.7-5.7M59.1 196.5l-5.7-5.8M59.1 200.6l-5.7-5.8M59.1 204.4l-5.7-5.7M59.1 208.5l-2.4-2.2M58.2 208.7l.9-.9M56.7 206.1l2.4-2.2M55.3 203.7l3.8-3.8M53.8 201.1l5.3-5.3M53.4 197.5l5.7-5.8M53.4 193.6l5.7-5.7M53.4 189.5l5.7-5.7M53.4 185.5l5.7-5.8M53.4 181.6l5.7-5.7M53.4 177.5l5.7-5.7M53.4 173.5l5.7-5.8M53.4 169.6l5.7-5.7M53.4 165.5l5.7-5.7M53.4 161.5l5.7-5.8M53.4 157.4l5.7-5.8M53.4 153.5l5.7-5.7M53.4 149.5l5.7-5.8M53.4 145.4l5.7-5.8M58.9 135.8h.2"/><path class="cls-18" d="M53.1 145.4v54.7M58.9 142.5v67.7M58.9 142.5v67.7M53.1 145.4v54.7"/><path class="cls-17" d="M190.9 181.9h-34.1M190.9 189.5h-34.1M190.9 197h-34.1M190.9 204.7h-34.1M58.9 204.7h33.8M58.9 197h33.8M58.9 189.5h33.8M58.9 181.9h33.8M132.6 142.5l7.9 35.5M92.7 176.6h64.1V210H92.7zM75.9 204.7l-3.8-3.9h7.7l-3.9 3.9zM151.8 176.6v-34.1M144.1 176.6v-34.1M136.4 176.6v-34.1M128.7 176.6v-34.1M121 176.6v-34.1M113.4 176.6v-34.1M105.7 176.6v-34.1M98 176.6v-34.1"/><path class="cls-17" d="M94.2 178h61.4v30.5H94.2zM98 159.5l3.8-3.8v7.7l-3.8-3.9zM136.4 159.5l3.8-3.8v7.7l-3.8-3.9zM173.8 181.9l3.9 3.8H170l3.8-3.8z"/><path class="cls-22" d="M198.1 342.4h-4.3v-95.3h4.3v95.3"/><path class="cls-16" d="M194 247.9l.7-.8M194 252.2l4.3-4.3M194 256.5l4.3-4.3M194 260.6l4.3-4.3M194 264.9l4.3-4.3M194 269.2l4.3-4.3M194 273.5l4.3-4.3M194 277.6l4.3-4.3M194 281.9l4.3-4.3M194 286.3l4.3-4.4M194 290.3l4.3-4.3M194 294.7l4.3-4.4M194 299l4.3-4.3M194 303.3l4.3-4.3M194 307.4l4.3-4.3M194 311.7l4.3-4.3M194 316l4.3-4.3M194 320.1l4.3-4.3M194 324.4l4.3-4.3M194 328.7l4.3-4.3M194 333.1l4.3-4.4M194 337.1l4.3-4.3M194 341.5l4.3-4.4M197.1 342.4l1.2-.9"/><path class="cls-22" d="M193.8 342.4h4.3v-95.3h-4.3v95.3"/><path class="cls-16" d="M194 247.9l.7-.8M194 252.2l4.3-4.3M194 256.5l4.3-4.3M194 260.6l4.3-4.3M194 264.9l4.3-4.3M194 269.2l4.3-4.3M194 273.5l4.3-4.3M194 277.6l4.3-4.3M194 281.9l4.3-4.3M194 286.3l4.3-4.4M194 290.3l4.3-4.3M194 294.7l4.3-4.4M194 299l4.3-4.3M194 303.3l4.3-4.3M194 307.4l4.3-4.3M194 311.7l4.3-4.3M194 316l4.3-4.3M194 320.1l4.3-4.3M194 324.4l4.3-4.3M194 328.7l4.3-4.3M194 333.1l4.3-4.4M194 337.1l4.3-4.3M194 341.5l4.3-4.4M197.1 342.4l1.2-.9"/><path class="cls-18" d="M198.1 342.4v-95.3M193.8 342.4v-95.3M193.8 342.4v-95.3M198.1 342.4v-95.3M198.1 368.6h-4.3"/><path class="cls-17" d="M198.1 366.9h-4.3M198.1 344.1h-4.3"/><path class="cls-18" d="M198.1 368.6h-4.3M198.1 342.4h-4.3"/><path class="cls-16" d="M171.1 344.2c0 12.4 10.2 22.7 22.7 22.7M193.8 344.1H171"/><path class="cls-22" d="M102.8 251h-7v122.6h7V251"/><path class="cls-16" d="M103 252.4l-1.6-1.4M103 256.5l-5.5-5.5M103 260.6l-6.9-7M103 264.4l-6.9-6.9M103 268.5l-6.9-7M103 272.6l-6.9-7M103 276.4l-6.9-6.9M103 280.5l-6.9-7M103 284.6l-6.9-7M103 288.4l-6.9-6.9M103 292.5l-6.9-7M103 296.6l-6.9-7M103 300.7l-6.9-7M103 304.5l-6.9-7M103 308.6l-6.9-7M103 312.7l-6.9-7M103 316.5l-6.9-7M103 320.6l-6.9-7M103 324.7l-6.9-7M103 328.5l-6.9-7M103 332.6l-6.9-7M103 336.7l-6.9-7M103 340.7l-6.9-6.9M103 344.6l-6.9-7M103 348.7l-6.9-7M103 352.7l-6.9-6.9M103 356.6l-6.9-7M103 360.7l-6.9-7M103 364.7l-6.9-6.9M103 368.8l-6.9-6.9M103 372.7l-6.9-7M99.9 373.6l-3.8-3.8M101.6 373.6l1.4-1.2M97.8 373.6l5.2-5.3M96.1 371.2l6.9-6.9M96.1 367.4l6.9-7M96.1 363.3l6.9-7M96.1 359.2l6.9-6.9M96.1 355.4l6.9-7M96.1 351.3l6.9-7M96.1 347.2l6.9-6.9M96.1 343.4l6.9-7M96.1 339.3l6.9-7M96.1 335.2l6.9-6.9M96.1 331.1l6.9-6.9M96.1 327.3l6.9-7M96.1 323.2l6.9-6.9M96.1 319.1l6.9-6.9M96.1 315.3l6.9-7M96.1 311.2l6.9-6.9M96.1 307.1l6.9-6.9M96.1 303.1l6.9-7M96.1 299.2l6.9-6.9M96.1 295.1l6.9-6.9M96.1 291.1l6.9-7M96.1 287.2l6.9-6.9M96.1 283.1l6.9-6.9M96.1 279.1l6.9-7M96.1 275.2l6.9-6.9M96.1 271.1l6.9-6.9M96.1 267.1l6.9-7M96.1 263l6.9-7M96.1 259.1l6.9-6.9M96.1 255.1l4.1-4.1M96.1 251"/><path class="cls-22" d="M102.8 251h-7v122.6h7V251"/><path class="cls-16" d="M103 252.4l-1.6-1.4M103 256.5l-5.5-5.5M103 260.6l-6.9-7M103 264.4l-6.9-6.9M103 268.5l-6.9-7M103 272.6l-6.9-7M103 276.4l-6.9-6.9M103 280.5l-6.9-7M103 284.6l-6.9-7M103 288.4l-6.9-6.9M103 292.5l-6.9-7M103 296.6l-6.9-7M103 300.7l-6.9-7M103 304.5l-6.9-7M103 308.6l-6.9-7M103 312.7l-6.9-7M103 316.5l-6.9-7M103 320.6l-6.9-7M103 324.7l-6.9-7M103 328.5l-6.9-7M103 332.6l-6.9-7M103 336.7l-6.9-7M103 340.7l-6.9-6.9M103 344.6l-6.9-7M103 348.7l-6.9-7M103 352.7l-6.9-6.9M103 356.6l-6.9-7M103 360.7l-6.9-7M103 364.7l-6.9-6.9M103 368.8l-6.9-6.9M103 372.7l-6.9-7M99.9 373.6l-3.8-3.8M101.6 373.6l1.4-1.2M97.8 373.6l5.2-5.3M96.1 371.2l6.9-6.9M96.1 367.4l6.9-7M96.1 363.3l6.9-7M96.1 359.2l6.9-6.9M96.1 355.4l6.9-7M96.1 351.3l6.9-7M96.1 347.2l6.9-6.9M96.1 343.4l6.9-7M96.1 339.3l6.9-7M96.1 335.2l6.9-6.9M96.1 331.1l6.9-6.9M96.1 327.3l6.9-7M96.1 323.2l6.9-6.9M96.1 319.1l6.9-6.9M96.1 315.3l6.9-7M96.1 311.2l6.9-6.9M96.1 307.1l6.9-6.9M96.1 303.1l6.9-7M96.1 299.2l6.9-6.9M96.1 295.1l6.9-6.9M96.1 291.1l6.9-7M96.1 287.2l6.9-6.9M96.1 283.1l6.9-6.9M96.1 279.1l6.9-7M96.1 275.2l6.9-6.9M96.1 271.1l6.9-6.9M96.1 267.1l6.9-7M96.1 263l6.9-7M96.1 259.1l6.9-6.9M96.1 255.1l4.1-4.1M96.1 251"/><path class="cls-18" d="M102.8 373.6V251M95.8 373.6V251M95.8 373.6V251M102.8 373.6V251M102.8 373.6h-7"/><path class="cls-22" d="M53.1 145.4l5.8-9.9H.8l7 9.9h45.3"/><path class="cls-16" d="M58.6 136l-.4-.5M57.2 138.7l-3.1-3.2M55.8 141.1l-5.6-5.6M54.3 143.7l-8.1-8.2M51.9 145.4l-9.8-9.9M48.1 145.4l-9.9-9.9M44 145.4l-9.8-9.9M39.9 145.4l-9.8-9.9M35.8 145.4l-9.8-9.9M32 145.4l-9.8-9.9M27.9 145.4l-9.8-9.9M23.8 145.4l-9.8-9.9M20 145.4l-9.8-9.9M15.9 145.4l-9.8-9.9M11.8 145.4L2 135.5M8 145.4h-.2M49.3 145.4l9.6-9.6M45.2 145.4l9.8-9.9M41.4 145.4l9.8-9.9M37.3 145.4l9.8-9.9M33.2 145.4l9.8-9.9M29.4 145.4l9.8-9.9M25.3 145.4l9.8-9.9M21.2 145.4l9.8-9.9M17.1 145.4l9.9-9.9M13.3 145.4l9.8-9.9M9.2 145.4l9.8-9.9M6.8 143.7l8.2-8.2M5.1 141.5l6-6M3.4 139.1l3.6-3.6M1.8 136.7l1.2-1.2"/><path class="cls-22" d="M53.1 145.4l5.8-9.9H.8l7 9.9h45.3"/><path class="cls-16" d="M58.6 136l-.4-.5M57.2 138.7l-3.1-3.2M55.8 141.1l-5.6-5.6M54.3 143.7l-8.1-8.2M51.9 145.4l-9.8-9.9M48.1 145.4l-9.9-9.9M44 145.4l-9.8-9.9M39.9 145.4l-9.8-9.9M35.8 145.4l-9.8-9.9M32 145.4l-9.8-9.9M27.9 145.4l-9.8-9.9M23.8 145.4l-9.8-9.9M20 145.4l-9.8-9.9M15.9 145.4l-9.8-9.9M11.8 145.4L2 135.5M8 145.4h-.2M49.3 145.4l9.6-9.6M45.2 145.4l9.8-9.9M41.4 145.4l9.8-9.9M37.3 145.4l9.8-9.9M33.2 145.4l9.8-9.9M29.4 145.4l9.8-9.9M25.3 145.4l9.8-9.9M21.2 145.4l9.8-9.9M17.1 145.4l9.9-9.9M13.3 145.4l9.8-9.9M9.2 145.4l9.8-9.9M6.8 143.7l8.2-8.2M5.1 141.5l6-6M3.4 139.1l3.6-3.6M1.8 136.7l1.2-1.2"/><path class="cls-18" d="M7.8 145.4h45.3M.8 135.5h58.1M.8 135.5h58.1M7.8 145.4h45.3"/><path class="cls-22" d="M198.1 135.5l-7.2 7V214h7.2v-78.5"/><path class="cls-16" d="M198.3 139.4l-1.9-1.9M198.3 143.2l-4.1-3.8M198.3 147.3l-6-6M198.3 151.4l-7.2-7.2M198.3 155.2l-7.2-7.2M198.3 159.3l-7.2-7.2M198.3 163.4l-7.2-7.2M198.3 167.2l-7.2-7.2M198.3 171.3l-7.2-7.2M198.3 175.4l-7.2-7.2M198.3 179.5l-7.2-7.2M198.3 183.3l-7.2-7.2M198.3 187.4l-7.2-7.2M198.3 191.5l-7.2-7.2M198.3 195.3l-7.2-7.2M198.3 199.4l-7.2-7.2M198.3 203.5l-7.2-7.2M198.3 207.3l-7.2-7.2M198.3 211.4l-7.2-7.2M196.9 214l-5.8-5.7M192.8 214l-1.7-1.7M197.1 214l1.2-.9M193 214l5.3-5M191.1 212.1l7.2-7.2M191.1 208l7.2-7.2M191.1 204.2l7.2-7.2M191.1 200.1l7.2-7.2M191.1 196l7.2-7.2M191.1 192.2l7.2-7.2M191.1 188.1l7.2-7.2M191.1 184l7.2-7.2M191.1 180.2l7.2-7.2M191.1 176.1l7.2-7.2M191.1 172l7.2-7.2M191.1 167.9l7.2-7.2M191.1 164.1l7.2-7.2M191.1 160l7.2-7.2M191.1 155.9l7.2-7.2M191.1 152.1l7.2-7.2M191.1 148l7.2-7.2M191.1 143.9l7.2-7.2"/><path class="cls-22" d="M198.1 135.5l-7.2 7V214h7.2v-78.5"/><path class="cls-16" d="M198.3 139.4l-1.9-1.9M198.3 143.2l-4.1-3.8M198.3 147.3l-6-6M198.3 151.4l-7.2-7.2M198.3 155.2l-7.2-7.2M198.3 159.3l-7.2-7.2M198.3 163.4l-7.2-7.2M198.3 167.2l-7.2-7.2M198.3 171.3l-7.2-7.2M198.3 175.4l-7.2-7.2M198.3 179.5l-7.2-7.2M198.3 183.3l-7.2-7.2M198.3 187.4l-7.2-7.2M198.3 191.5l-7.2-7.2M198.3 195.3l-7.2-7.2M198.3 199.4l-7.2-7.2M198.3 203.5l-7.2-7.2M198.3 207.3l-7.2-7.2M198.3 211.4l-7.2-7.2M196.9 214l-5.8-5.7M192.8 214l-1.7-1.7M197.1 214l1.2-.9M193 214l5.3-5M191.1 212.1l7.2-7.2M191.1 208l7.2-7.2M191.1 204.2l7.2-7.2M191.1 200.1l7.2-7.2M191.1 196l7.2-7.2M191.1 192.2l7.2-7.2M191.1 188.1l7.2-7.2M191.1 184l7.2-7.2M191.1 180.2l7.2-7.2M191.1 176.1l7.2-7.2M191.1 172l7.2-7.2M191.1 167.9l7.2-7.2M191.1 164.1l7.2-7.2M191.1 160l7.2-7.2M191.1 155.9l7.2-7.2M191.1 152.1l7.2-7.2M191.1 148l7.2-7.2M191.1 143.9l7.2-7.2"/><path class="cls-18" d="M198.1 214v-78.5M190.9 214v-71.5M190.9 214v-71.5M198.1 214v-78.5"/><path class="cls-22" d="M198.1 251l-7.2-7v2.2h7.2v4.8"/><path class="cls-16" d="M198.3 247.6l-1.4-1.4M192.8 246.2l-1.7-1.9M197.1 250l1.2-.9M195.2 248.1l1.9-1.9M191.1 244.3v-.3"/><path class="cls-22" d="M190.9 244l7.2 7v-4.8h-7.2V244"/><path class="cls-16" d="M198.3 247.6l-1.4-1.4M192.8 246.2l-1.7-1.9M197.1 250l1.2-.9M195.2 248.1l1.9-1.9M191.1 244.3v-.3"/><path class="cls-18" d="M198.1 251v-4.8M190.9 244v2.2M190.9 244v2.2M198.1 251v-4.8"/><path class="cls-17" d="M196.9 243.8h1.7v2.4h-1.7zM196.9 214h1.7v2.4h-1.7zM196.9 216.4h1.7v27.4h-1.7zM196.9 243.8v-27.4"/><path class="cls-1" d="M190.9 244v-27.8"/><path class="cls-17" d="M190.9 216.7v-.5"/><path class="cls-22" d="M190.9 246.3V244h6v2.3h1.1"/><path class="cls-16" d="M196.9 246.2l-2.2-2.2M192.8 246.2l-1.7-1.9M193 246.2l2.2-2.2M191.1 244.3v-.3"/><path class="cls-18" d="M190.9 244h6v2.3h1.1"/><path class="cls-22" d="M190.9 214v2.2h6V214h1.2"/><path class="cls-16" d="M197.1 214.3l-.2-.3M195 216.2l-2.2-2.2M195 216.2l2.1-1.9M191.1 216.2l1.9-2.2"/><path class="cls-18" d="M190.9 214v2.2h6V214h1.2"/><path class="cls-16" d="M225.8 243.7c0-14.9-12.3-27.2-27.2-27.2M198.6 243.8h27.1"/><path class="cls-22" d="M.8 246.2h7V244l-7 7v-4.8"/><path class="cls-16" d="M8 245.7l-1-1M5.1 246.9l-.7-.7M3.2 248.8L1 246.7M1 249.8l3.6-3.6"/><path class="cls-22" d="M7.8 246.2h-7v4.8l7-7v2.2"/><path class="cls-16" d="M8 245.7l-1-1M5.1 246.9l-.7-.7M3.2 248.8L1 246.7M1 249.8l3.6-3.6"/><path class="cls-18" d="M.8 246.2v4.8M7.8 246.2V244M7.8 246.2V244M.8 246.2v4.8"/><path class="cls-22" d="M7.8 214v-68.6l-7-9.9V214h7"/><path class="cls-16" d="M7.8 145.4l-6.8-7M8 149.5l-7-7M8 153.3l-7-7M8 157.4l-7-7M8 161.5l-7-7M8 165.5l-7-6.9M8 169.4l-7-7M8 173.5l-7-7M8 177.5l-7-6.9M8 181.4l-7-7M8 185.5l-7-7M8 189.5l-7-6.9M8 193.4l-7-7M8 197.5l-7-7M8 201.5l-7-6.9M8 205.6l-7-6.9M8 209.5l-7-7M8 213.5l-7-6.9M4.4 214L1 210.7M4.6 214l3.4-3.1M1 213.8l7-7M1 209.7l7-7M1 205.9l7-7M1 201.8l7-7M1 197.7l7-7M1 193.9l7-7M1 189.8l7-7M1 185.7l7-7M1 181.9l7-7M1 177.8l7-7M1 173.7l7-7M1 169.6l7-6.9M1 165.8l7-7M1 161.7l7-7M1 157.6l7-6.9M1 153.8l7-7M1 149.7l5.8-6M1 145.6l4.1-4.1M1 141.5l2.4-2.4M1 137.7l.8-1"/><path class="cls-22" d="M7.8 214v-68.6l-7-9.9V214h7"/><path class="cls-16" d="M7.8 145.4l-6.8-7M8 149.5l-7-7M8 153.3l-7-7M8 157.4l-7-7M8 161.5l-7-7M8 165.5l-7-6.9M8 169.4l-7-7M8 173.5l-7-7M8 177.5l-7-6.9M8 181.4l-7-7M8 185.5l-7-7M8 189.5l-7-6.9M8 193.4l-7-7M8 197.5l-7-7M8 201.5l-7-6.9M8 205.6l-7-6.9M8 209.5l-7-7M8 213.5l-7-6.9M4.4 214L1 210.7M4.6 214l3.4-3.1M1 213.8l7-7M1 209.7l7-7M1 205.9l7-7M1 201.8l7-7M1 197.7l7-7M1 193.9l7-7M1 189.8l7-7M1 185.7l7-7M1 181.9l7-7M1 177.8l7-7M1 173.7l7-7M1 169.6l7-6.9M1 165.8l7-7M1 161.7l7-7M1 157.6l7-6.9M1 153.8l7-7M1 149.7l5.8-6M1 145.6l4.1-4.1M1 141.5l2.4-2.4M1 137.7l.8-1"/><path class="cls-18" d="M.8 135.5V214M7.8 210.2v3.8M7.8 145.4v54.7M7.8 210.2v3.8M.8 135.5V214M7.8 145.4v54.7"/><path class="cls-17" d="M0 214h1.7v2.4H0zM0 243.8h1.7v2.4H0zM0 216.4h1.7v27.4H0zM1.8 216.4v27.4"/><path class="cls-1" d="M7.8 216.2V244"/><path class="cls-17" d="M7.8 243.5v.5"/><path class="cls-22" d="M7.8 214v2.2h-6V214h-1"/><path class="cls-16" d="M6.6 216.2L4.4 214M2.5 216.2l-.5-.7M6.6 216.2L8 215M2.5 216.2l2.1-2.2"/><path class="cls-18" d="M7.8 214v2.2h-6V214h-1"/><path class="cls-22" d="M7.8 246.3V244h-6v2.3H.7"/><path class="cls-16" d="M8 245.7L6.3 244M4.4 246.2L2.2 244M4.6 246.2l2.2-2.2M2 245l.7-1"/><path class="cls-18" d="M7.8 244h-6v2.3H.7"/><path class="cls-22" d="M.8 251l7-7h183.1l7.2 7H.8"/><path class="cls-16" d="M197.6 251l-7-7M193.8 251l-7-7M189.7 251l-7-7M185.6 251l-7-7M181.5 251l-6.9-7M177.7 251l-7-7M173.6 251l-7-7M169.5 251l-6.9-7M165.7 251l-7-7M161.6 251l-7-7M157.5 251l-6.9-7M153.7 251l-7-7M149.6 251l-7-7M145.5 251l-6.9-7M141.4 251l-6.9-7M137.6 251l-7-7M133.5 251l-6.9-7M129.4 251l-6.9-7M125.6 251l-7-7M121.5 251l-6.9-7M117.4 251l-6.9-7M113.6 251l-7-7M109.5 251l-6.9-7M105.4 251l-6.9-7M101.4 251l-7-7M97.5 251l-6.9-7M93.4 251l-6.9-7M89.4 251l-7-7M85.5 251l-6.9-7M81.4 251l-6.9-7M77.4 251l-7-7M73.3 251l-7-7M69.4 251l-6.9-7M65.4 251l-7-7M61.3 251l-7-7M57.4 251l-6.9-7M53.4 251l-7-7M49.3 251l-7-7M45.4 251l-6.9-7M41.4 251l-7-7M37.3 251l-7-7M33.2 251l-7-7M29.4 251l-7-7M25.3 251l-7-7M21.2 251l-7-7M17.4 251l-7-7M13.3 251L7 244.7M9.2 251l-4.1-4.1M5.4 251l-2.2-2.2M1.3 251l-.3-.3M196.2 251l.9-1M192.3 251l2.9-2.9M188.2 251l4.8-4.8M184.2 251l6.9-7M180.3 251l7-7M176.2 251l7-7M172.2 251l6.9-7M168.3 251l7-7M164.2 251l7-7M160.2 251l6.9-7M156.1 251l6.9-7M152.2 251l7-7M148.2 251l6.9-7M144.1 251l6.9-7M140.2 251l7-7M136.2 251l6.9-7M132.1 251l6.9-7M128 251l7-7M124.2 251l6.9-7M120.1 251l6.9-7M116 251l7-7M112.2 251l6.9-7M108.1 251l6.9-7M104 251l7-7M100.2 251l6.9-7M96.1 251l6.9-7M92 251l7-7M87.9 251l7-7M84.1 251l6.9-7M80 251l7-7M75.9 251l7-7M72.1 251l6.9-7M68 251l7-7M63.9 251l7-7M60.1 251l6.9-7M56 251l7-7M51.9 251l7-7M47.8 251l7-7M44 251l7-7M39.9 251l7-7M35.8 251l7-7M32 251l7-7M27.9 251l7-7M23.8 251l7-7M19.8 251l6.9-7M15.9 251l7-7M11.8 251l7-7M7.8 251l6.9-7M3.9 251l7-7"/><path class="cls-22" d="M7.8 244l-7 7h197.3l-7.2-7H7.8"/><path class="cls-16" d="M197.6 251l-7-7M193.8 251l-7-7M189.7 251l-7-7M185.6 251l-7-7M181.5 251l-6.9-7M177.7 251l-7-7M173.6 251l-7-7M169.5 251l-6.9-7M165.7 251l-7-7M161.6 251l-7-7M157.5 251l-6.9-7M153.7 251l-7-7M149.6 251l-7-7M145.5 251l-6.9-7M141.4 251l-6.9-7M137.6 251l-7-7M133.5 251l-6.9-7M129.4 251l-6.9-7M125.6 251l-7-7M121.5 251l-6.9-7M117.4 251l-6.9-7M113.6 251l-7-7M109.5 251l-6.9-7M105.4 251l-6.9-7M101.4 251l-7-7M97.5 251l-6.9-7M93.4 251l-6.9-7M89.4 251l-7-7M85.5 251l-6.9-7M81.4 251l-6.9-7M77.4 251l-7-7M73.3 251l-7-7M69.4 251l-6.9-7M65.4 251l-7-7M61.3 251l-7-7M57.4 251l-6.9-7M53.4 251l-7-7M49.3 251l-7-7M45.4 251l-6.9-7M41.4 251l-7-7M37.3 251l-7-7M33.2 251l-7-7M29.4 251l-7-7M25.3 251l-7-7M21.2 251l-7-7M17.4 251l-7-7M13.3 251L7 244.7M9.2 251l-4.1-4.1M5.4 251l-2.2-2.2M1.3 251l-.3-.3M196.2 251l.9-1M192.3 251l2.9-2.9M188.2 251l4.8-4.8M184.2 251l6.9-7M180.3 251l7-7M176.2 251l7-7M172.2 251l6.9-7M168.3 251l7-7M164.2 251l7-7M160.2 251l6.9-7M156.1 251l6.9-7M152.2 251l7-7M148.2 251l6.9-7M144.1 251l6.9-7M140.2 251l7-7M136.2 251l6.9-7M132.1 251l6.9-7M128 251l7-7M124.2 251l6.9-7M120.1 251l6.9-7M116 251l7-7M112.2 251l6.9-7M108.1 251l6.9-7M104 251l7-7M100.2 251l6.9-7M96.1 251l6.9-7M92 251l7-7M87.9 251l7-7M84.1 251l6.9-7M80 251l7-7M75.9 251l7-7M72.1 251l6.9-7M68 251l7-7M63.9 251l7-7M60.1 251l6.9-7M56 251l7-7M51.9 251l7-7M47.8 251l7-7M44 251l7-7M39.9 251l7-7M35.8 251l7-7M32 251l7-7M27.9 251l7-7M23.8 251l7-7M19.8 251l6.9-7M15.9 251l7-7M11.8 251l7-7M7.8 251l6.9-7M3.9 251l7-7"/><path class="cls-18" d="M102.8 251h95.3M.8 251h95M7.8 244h183.1M7.8 244h183.1M102.8 251h95.3M.8 251h95"/><path class="cls-22" d="M288.4 206.4c-.9-1.3-.9-3 0-4.3 1.5-1.9 3.8-2.9 6.2-2.9l9 .3v9.6l-9 .3c-2.4 0-4.7-1-6.2-2.9"/><path class="cls-17" d="M288.4 206.4c-.9-1.3-.9-3 0-4.3 1.5-1.9 3.8-2.9 6.2-2.9l9 .3v9.6l-9 .3c-2.4 0-4.7-1-6.2-2.9"/><path class="cls-22" d="M298.5 204.3c0 1-.3 2-1.1 2.8-.7.7-1.7 1.2-2.7 1.2-2.1 0-4.1-.9-5.4-2.5-.6-.9-.6-2 0-2.9 1.3-1.6 3.3-2.5 5.4-2.5 1 0 2 .4 2.7 1.2.7.7 1.1 1.7 1.1 2.8"/><path class="cls-17" d="M298.5 204.3c0 1-.3 2-1.1 2.8-.7.7-1.7 1.2-2.7 1.2-2.1 0-4.1-.9-5.4-2.5-.6-.9-.6-2 0-2.9 1.3-1.6 3.3-2.5 5.4-2.5 1 0 2 .4 2.7 1.2.7.7 1.1 1.7 1.1 2.8"/><path class="cls-22" d="M303.2 255.6h-48.1l-.1-.1-.1-.1-.1-.1v-20.6l.1-.1v-.1h.1v-.1h48.4l.1.1.1.1v20.8h-.1v.1h-.1l-.1.1h-.1"/><path class="cls-17" d="M303.2 255.6h-48.1l-.1-.1-.1-.1-.1-.1v-20.6l.1-.1v-.1h.1v-.1h48.4l.1.1.1.1v20.8h-.1v.1h-.1l-.1.1h-.1"/><path class="cls-22" d="M297.9 253.5h-37.4c-.4 0-.9 0-1.3-.3-.4-.2-.8-.4-1.1-.7-.3-.3-.6-.7-.7-1.1-.2-.4-.3-.9-.3-1.3v-10.2c0-.4 0-.9.3-1.3.2-.4.4-.8.7-1.1s.7-.6 1.1-.7c.4-.2.9-.3 1.3-.3h37.4c.4 0 .9 0 1.3.3.4.2.8.4 1.1.7.3.3.6.7.7 1.1.2.4.3.9.3 1.3v10.2c0 .4 0 .9-.3 1.3-.2.4-.4.8-.7 1.1-.3.3-.7.6-1.1.7-.4.2-.9.3-1.3.3"/><path class="cls-17" d="M297.9 253.5h-37.4c-.4 0-.9 0-1.3-.3-.4-.2-.8-.4-1.1-.7-.3-.3-.6-.7-.7-1.1-.2-.4-.3-.9-.3-1.3v-10.2c0-.4 0-.9.3-1.3.2-.4.4-.8.7-1.1s.7-.6 1.1-.7c.4-.2.9-.3 1.3-.3h37.4c.4 0 .9 0 1.3.3.4.2.8.4 1.1.7.3.3.6.7.7 1.1.2.4.3.9.3 1.3v10.2c0 .4 0 .9-.3 1.3-.2.4-.4.8-.7 1.1-.3.3-.7.6-1.1.7-.4.2-.9.3-1.3.3M304.4 191.2v20.9"/><path class="cls-7" d="M303.7 191.2v21.6"/><path class="cls-17" d="M305.6 191.2v19.5M304.4 191.2v20.9M303.7 191.2v21.6M305.6 191.2v19.5M308.2 212.1v18.5"/><path class="cls-7" d="M307.5 212.8v17.1"/><path class="cls-17" d="M309.4 210.7V232M308.2 212.1v18.5M307.5 212.8v17.1M309.4 210.7V232M304.4 230.6v25.2"/><path class="cls-7" d="M303.7 229.9v25.9"/><path class="cls-17" d="M305.6 232v23.8M304.4 230.6v25.2M303.7 229.9v25.9M305.6 232v23.8"/><path class="cls-22" d="M303.6 229.1h-12.4c-.1 0-.3-.1-.4-.2-.1-.1-.2-.2-.2-.4V214.8v-.4c0-.1.1-.3.2-.4.1-.1.2-.2.4-.2h12.4v15.6"/><path class="cls-17" d="M303.6 229.1h-12.4c-.1 0-.3-.1-.4-.2-.1-.1-.2-.2-.2-.4V214.8v-.4c0-.1.1-.3.2-.4.1-.1.2-.2.4-.2h12.4v15.6"/><path class="cls-15" d="M303.7 212.8h3.8"/><path class="cls-4" d="M307.5 212.8v17.1"/><path class="cls-15" d="M307.5 229.9h-3.8"/><path class="cls-17" d="M308.2 230.6h-3.8"/><path class="cls-7" d="M307.5 229.9h-3.8"/><path class="cls-17" d="M309.4 232h-3.8M308.2 230.6h-3.8M307.5 229.9h-3.8M309.4 232h-3.8M304.4 212.1h3.8"/><path class="cls-7" d="M303.7 212.8h3.8"/><path class="cls-17" d="M305.6 210.7h3.8M304.4 212.1h3.8M303.7 212.8h3.8M305.6 210.7h3.8"/><path class="cls-7" d="M303.7 212.8v17.1"/><path class="cls-17" d="M293.6 90.7h17.5v78.2h-17.5zM296 91.1h-2.4M296 99.8h-2.4M296 116.8h-2.4M296 133.6h-2.4M296 150.7h-2.4"/><path class="cls-22" d="M306 149.8h-9.3c-.1 0-.3 0-.4-.1-.1 0-.2-.1-.3-.2-.1 0-.2-.2-.3-.2 0 0-.2-.2-.2-.3 0-.1-.1-.2-.2-.3 0-.1 0-.2-.1-.4v-11.6-.4c0-.1 0-.3.1-.4 0-.1.1-.2.2-.3 0-.1.2-.2.2-.3 0 0 .2-.2.3-.2.1 0 .2-.1.3-.2.1 0 .2 0 .4-.1H306.4c.1 0 .3 0 .4.1.1 0 .2.1.3.2.1 0 .2.2.3.2 0 0 .2.2.2.3 0 .1.1.2.2.3 0 .1 0 .2.1.4v12c0 .1 0 .3-.1.4 0 .1-.1.2-.2.3 0 .1-.2.2-.2.3 0 0-.2.2-.3.2-.1 0-.2.1-.3.2-.1 0-.2 0-.4.1h-.4"/><path class="cls-17" d="M306 149.8h-9.3c-.1 0-.3 0-.4-.1-.1 0-.2-.1-.3-.2-.1 0-.2-.2-.3-.2 0 0-.2-.2-.2-.3 0-.1-.1-.2-.2-.3 0-.1 0-.2-.1-.4v-11.6-.4c0-.1 0-.3.1-.4 0-.1.1-.2.2-.3 0-.1.2-.2.2-.3 0 0 .2-.2.3-.2.1 0 .2-.1.3-.2.1 0 .2 0 .4-.1H306.4c.1 0 .3 0 .4.1.1 0 .2.1.3.2.1 0 .2.2.3.2 0 0 .2.2.2.3 0 .1.1.2.2.3 0 .1 0 .2.1.4v12c0 .1 0 .3-.1.4 0 .1-.1.2-.2.3 0 .1-.2.2-.2.3 0 0-.2.2-.3.2-.1 0-.2.1-.3.2-.1 0-.2 0-.4.1h-.4"/><path class="cls-22" d="M305.8 142.3c0-.7-.5-1.2-1.1-1.2s-1.1.5-1.1 1.2.5 1.2 1.1 1.2 1.1-.5 1.1-1.2"/><path class="cls-17" d="M305.8 142.3c0-.7-.5-1.2-1.1-1.2s-1.1.5-1.1 1.2.5 1.2 1.1 1.2 1.1-.5 1.1-1.2"/><path class="cls-21" d="M295 100.3h14.6v15.8H295z"/><path class="cls-17" d="M295 100.3h14.6v15.8H295z"/><path class="cls-22" d="M302.7 104.2c0-1.5-1.3-2.8-2.9-2.8s-2.9 1.2-2.9 2.8 1.3 2.8 2.9 2.8 2.9-1.2 2.9-2.8"/><path class="cls-17" d="M302.7 104.2c0-1.5-1.3-2.8-2.9-2.8s-2.9 1.2-2.9 2.8 1.3 2.8 2.9 2.8 2.9-1.2 2.9-2.8"/><path class="cls-22" d="M308.7 103.1c0-1.2-1-2.2-2.2-2.2s-2.2 1-2.2 2.2 1 2.2 2.2 2.2 2.2-1 2.2-2.2"/><path class="cls-17" d="M308.7 103.1c0-1.2-1-2.2-2.2-2.2s-2.2 1-2.2 2.2 1 2.2 2.2 2.2 2.2-1 2.2-2.2"/><path class="cls-22" d="M302 111.8c0-1.2-1-2.2-2.2-2.2s-2.2 1-2.2 2.2 1 2.2 2.2 2.2 2.2-1 2.2-2.2"/><path class="cls-17" d="M302 111.8c0-1.2-1-2.2-2.2-2.2s-2.2 1-2.2 2.2 1 2.2 2.2 2.2 2.2-1 2.2-2.2"/><path class="cls-22" d="M309 111.5c0-1.6-1.2-2.9-2.8-2.9s-2.8 1.3-2.8 2.9 1.2 2.9 2.8 2.9 2.8-1.3 2.8-2.9"/><path class="cls-17" d="M309 111.5c0-1.6-1.2-2.9-2.8-2.9s-2.8 1.3-2.8 2.9 1.2 2.9 2.8 2.9 2.8-1.3 2.8-2.9"/><path class="cls-1" d="M301 168.9V90.7"/><path class="cls-17" d="M301 91.1v-.4M274.2 168.9h17v.5h-17zM290.5 169.4h.7v15.4h-.7zM274.2 169.4h.5v15.4h-.5z"/><path class="cls-17" d="M274.2 184.7h17v.5h-17zM240.1 168.9h17v.5h-17zM256.6 169.4h.5v15.4h-.5zM240.1 169.4h.5v15.4h-.5z"/><path class="cls-17" d="M240.1 184.7h17v.5h-17zM237.4 168.9h2.6v.5h-2.6zM291.2 168.9h19.9v.5h-19.9zM257.1 168.9h17v.5h-17zM273.4 169.4h.7v15.4h-.7zM257.1 169.4h.5v15.4h-.5z"/><path class="cls-17" d="M257.1 184.7h17v.5h-17zM296 167.7h-2.4"/><path class="cls-22" d="M315.7 85.4l-4.1 4.3v252.7h4.1v-257"/><path class="cls-16" d="M311.8 91.9l4.1-4.1M311.8 96.2l4.1-4.1M311.8 100.3l4.1-4.1M311.8 104.6l4.1-4.1M311.8 108.9l4.1-4.1M311.8 113.2l4.1-4.1M311.8 117.3l4.1-4.1M311.8 121.6l4.1-4.1M311.8 125.9l4.1-4M311.8 130l4.1-4.1M311.8 134.3l4.1-4M311.8 138.7l4.1-4.1M311.8 142.7l4.1-4M311.8 147.1l4.1-4.1M311.8 151.4l4.1-4.1M311.8 155.7l4.1-4.1M311.8 159.8l4.1-4.1M311.8 164.1l4.1-4.1M311.8 168.4l4.1-4.1M311.8 172.5l4.1-4.1M311.8 176.8l4.1-4.1M311.8 181.1l4.1-4M311.8 185.5l4.1-4.1M311.8 189.5l4.1-4M311.8 193.9l4.1-4.1M311.8 198.2l4.1-4.1M311.8 202.3l4.1-4.1M311.8 206.6l4.1-4.1M311.8 210.9l4.1-4.1M311.8 215.2l4.1-4.1M311.8 219.3l4.1-4.1M311.8 223.6l4.1-4.1M311.8 227.9l4.1-4M311.8 232l4.1-4.1M311.8 236.3l4.1-4M311.8 240.7l4.1-4.1M311.8 244.7l4.1-4M311.8 249.1l4.1-4.1M311.8 253.4l4.1-4.1M311.8 257.7l4.1-4.1M311.8 261.8l4.1-4.1M311.8 266.1l4.1-4.1M311.8 270.4l4.1-4.1M311.8 274.5l4.1-4.1M311.8 278.8l4.1-4.1M311.8 283.1l4.1-4M311.8 287.5l4.1-4.1M311.8 291.5l4.1-4M311.8 295.9l4.1-4.1M311.8 300.2l4.1-4.1M311.8 304.3l4.1-4.1M311.8 308.6l4.1-4.1M311.8 312.9l4.1-4.1M311.8 317.2l4.1-4.1M311.8 321.3l4.1-4.1M311.8 325.6l4.1-4.1M311.8 329.9l4.1-4M311.8 334l4.1-4.1M311.8 338.3l4.1-4M311.8 342.4l4.1-3.8"/><path class="cls-22" d="M315.7 85.4l-4.1 4.3v252.7h4.1v-257"/><path class="cls-16" d="M311.8 91.9l4.1-4.1M311.8 96.2l4.1-4.1M311.8 100.3l4.1-4.1M311.8 104.6l4.1-4.1M311.8 108.9l4.1-4.1M311.8 113.2l4.1-4.1M311.8 117.3l4.1-4.1M311.8 121.6l4.1-4.1M311.8 125.9l4.1-4M311.8 130l4.1-4.1M311.8 134.3l4.1-4M311.8 138.7l4.1-4.1M311.8 142.7l4.1-4M311.8 147.1l4.1-4.1M311.8 151.4l4.1-4.1M311.8 155.7l4.1-4.1M311.8 159.8l4.1-4.1M311.8 164.1l4.1-4.1M311.8 168.4l4.1-4.1M311.8 172.5l4.1-4.1M311.8 176.8l4.1-4.1M311.8 181.1l4.1-4M311.8 185.5l4.1-4.1M311.8 189.5l4.1-4M311.8 193.9l4.1-4.1M311.8 198.2l4.1-4.1M311.8 202.3l4.1-4.1M311.8 206.6l4.1-4.1M311.8 210.9l4.1-4.1M311.8 215.2l4.1-4.1M311.8 219.3l4.1-4.1M311.8 223.6l4.1-4.1M311.8 227.9l4.1-4M311.8 232l4.1-4.1M311.8 236.3l4.1-4M311.8 240.7l4.1-4.1M311.8 244.7l4.1-4M311.8 249.1l4.1-4.1M311.8 253.4l4.1-4.1M311.8 257.7l4.1-4.1M311.8 261.8l4.1-4.1M311.8 266.1l4.1-4.1M311.8 270.4l4.1-4.1M311.8 274.5l4.1-4.1M311.8 278.8l4.1-4.1M311.8 283.1l4.1-4M311.8 287.5l4.1-4.1M311.8 291.5l4.1-4M311.8 295.9l4.1-4.1M311.8 300.2l4.1-4.1M311.8 304.3l4.1-4.1M311.8 308.6l4.1-4.1M311.8 312.9l4.1-4.1M311.8 317.2l4.1-4.1M311.8 321.3l4.1-4.1M311.8 325.6l4.1-4.1M311.8 329.9l4.1-4M311.8 334l4.1-4.1M311.8 338.3l4.1-4M311.8 342.4l4.1-3.8"/><path class="cls-18" d="M315.7 186.4v-101M315.7 241.6v-51.1M315.7 342.4v-96.5M311.6 186.4V89.7M311.6 255.8v-64.6M311.6 342.4v-82.3M311.6 186.4V89.7M315.7 186.4v-101M315.7 241.6v-51.1M311.6 255.8v-64.6M315.7 342.4v-96.5M311.6 342.4v-82.3M315.7 368.6h-4.1"/><path class="cls-17" d="M315.7 366.9h-4.1M315.7 344.1h-4.1"/><path class="cls-18" d="M315.7 368.6h-4.1M315.7 342.4h-4.1"/><path class="cls-16" d="M315.8 366.9c12.4 0 22.7-10.2 22.7-22.7M315.7 344.1h22.8"/><path class="cls-22" d="M311.6 89.7l4.1-4.3h-10.1l-4.1 4.3h10.1"/><path class="cls-16" d="M305.4 89.7l4.3-4.3M309.7 89.7l4.3-4.3"/><path class="cls-22" d="M311.6 89.7l4.1-4.3h-10.1l-4.1 4.3h10.1"/><path class="cls-16" d="M305.4 89.7l4.3-4.3M309.7 89.7l4.3-4.3"/><path class="cls-18" d="M301.5 89.7h10.1M305.6 85.4h10.1M305.6 85.4h10.1M301.5 89.7h10.1"/><path class="cls-22" d="M311.6 191.2v-4.8h-74.4l-4.3 4.8h78.7"/><path class="cls-16" d="M233.6 191.2l4.8-4.8M237.9 191.2l4.8-4.8M242 191.2l4.8-4.8M246.3 191.2l4.8-4.8M250.6 191.2l4.8-4.8M255 191.2l4.8-4.8M259 191.2l4.8-4.8M263.4 191.2l4.8-4.8M267.7 191.2l4.8-4.8M271.8 191.2l4.8-4.8M276.1 191.2l4.8-4.8M280.4 191.2l4.8-4.8M284.7 191.2l4.8-4.8M288.8 191.2l4.8-4.8M293.1 191.2l4.8-4.8M297.4 191.2l4.8-4.8M301.5 191.2l4.8-4.8M305.8 191.2l4.8-4.8M310.2 191.2l1.6-1.7"/><path class="cls-22" d="M311.6 191.2v-4.8h-74.4l-4.3 4.8h78.7"/><path class="cls-16" d="M233.6 191.2l4.8-4.8M237.9 191.2l4.8-4.8M242 191.2l4.8-4.8M246.3 191.2l4.8-4.8M250.6 191.2l4.8-4.8M255 191.2l4.8-4.8M259 191.2l4.8-4.8M263.4 191.2l4.8-4.8M267.7 191.2l4.8-4.8M271.8 191.2l4.8-4.8M276.1 191.2l4.8-4.8M280.4 191.2l4.8-4.8M284.7 191.2l4.8-4.8M288.8 191.2l4.8-4.8M293.1 191.2l4.8-4.8M297.4 191.2l4.8-4.8M301.5 191.2l4.8-4.8M305.8 191.2l4.8-4.8M310.2 191.2l1.6-1.7"/><path class="cls-18" d="M254.7 191.2h56.9M232.9 191.2h17.7M237.2 186.4h74.4M237.2 186.4h74.4M254.7 191.2h56.9M232.9 191.2h17.7"/><path class="cls-22" d="M250.6 260.1l4.1-4.3v-37.9h-4.1v42.2"/><path class="cls-16" d="M250.9 220.7l2.9-2.8M250.9 225.1l4.1-4.1M250.9 229.4l4.1-4.1M250.9 233.5l4.1-4.1M250.9 237.8l4.1-4.1M250.9 242.1l4.1-4.1M250.9 246.4l4.1-4.1M250.9 250.5l4.1-4.1M250.9 254.8l4.1-4.1M250.9 259.1l4.1-4"/><path class="cls-22" d="M250.6 260.1l4.1-4.3v-37.9h-4.1v42.2"/><path class="cls-16" d="M250.9 220.7l2.9-2.8M250.9 225.1l4.1-4.1M250.9 229.4l4.1-4.1M250.9 233.5l4.1-4.1M250.9 237.8l4.1-4.1M250.9 242.1l4.1-4.1M250.9 246.4l4.1-4.1M250.9 250.5l4.1-4.1M250.9 254.8l4.1-4.1M250.9 259.1l4.1-4"/><path class="cls-18" d="M250.6 217.9v38.6M254.7 217.9v37.9M254.7 217.9v37.9M250.6 217.9v38.6"/><path class="cls-1" d="M250.6 191.2v26.7M254.7 191.2v26.7"/><path class="cls-17" d="M250.6 193.1h4.1M250.6 215.9h4.1"/><path class="cls-18" d="M250.6 191.2h4.1M250.6 217.9h4.1"/><path class="cls-16" d="M227.9 193.3c0 12.4 10.2 22.7 22.7 22.7M250.6 193.1h-22.8"/><path class="cls-22" d="M311.6 260.1v-4.3h-56.9l-4.1 4.3h61"/><path class="cls-16" d="M254 260.1l4.3-4.3M258.3 260.1l4.3-4.3M262.4 260.1l4.3-4.3M266.7 260.1l4.3-4.3M271 260.1l4.4-4.3M275.1 260.1l4.3-4.3M279.4 260.1l4.4-4.3M283.8 260.1l4.3-4.3M288.1 260.1l4.3-4.3M292.2 260.1l4.3-4.3M296.5 260.1l4.3-4.3M300.8 260.1l4.3-4.3M304.9 260.1l4.3-4.3M309.2 260.1l2.6-2.4"/><path class="cls-22" d="M311.6 260.1v-4.3h-56.9l-4.1 4.3h61"/><path class="cls-16" d="M254 260.1l4.3-4.3M258.3 260.1l4.3-4.3M262.4 260.1l4.3-4.3M266.7 260.1l4.3-4.3M271 260.1l4.4-4.3M275.1 260.1l4.3-4.3M279.4 260.1l4.4-4.3M283.8 260.1l4.3-4.3M288.1 260.1l4.3-4.3M292.2 260.1l4.3-4.3M296.5 260.1l4.3-4.3M300.8 260.1l4.3-4.3M304.9 260.1l4.3-4.3M309.2 260.1l2.6-2.4"/><path class="cls-18" d="M250.6 260.1h61M254.7 255.8h56.9M254.7 255.8h56.9M250.6 260.1h61"/><path class="cls-17" d="M232.4 235.1h.7v15.6h-.7zM233.1 250h16.1v.7h-16.1zM249.2 219.5h.7v31.2h-.7zM232.4 250.7h.7v1h-.7zM232.4 219.5h.7v15.6h-.7zM233.1 219.5h16.1v.5h-16.1zM232.4 218.8h17.8v.7h-17.8z"/><path class="cls-22" d="M232.9 191.2l4.3-4.8v-17h-4.3v21.8"/><path class="cls-16" d="M233.1 170.6l1-1.2M233.1 174.9l4.3-4.3M233.1 179l4.3-4.3M233.1 183.3l4.3-4.3M233.1 187.6l4.3-4.3"/><path class="cls-22" d="M232.9 191.2l4.3-4.8v-17h-4.3v21.8"/><path class="cls-16" d="M233.1 170.6l1-1.2M233.1 174.9l4.3-4.3M233.1 179l4.3-4.3M233.1 183.3l4.3-4.3M233.1 187.6l4.3-4.3"/><path class="cls-18" d="M232.9 169.4v21.8M237.2 169.4v17M237.2 169.4v17M232.9 169.4v21.8M232.9 169.4h4.3"/><path class="cls-17" d="M236.5 253.9h14.1M236.5 253.1h14.1M250.6 253.9v-.8M236.5 253.1h14.1M236.5 253.9h14.1M236.5 253.9v-.8"/><path class="cls-21" d="M237.9 250H248v2.6h-10.1z"/><path class="cls-17" d="M237.9 250H248v2.6h-10.1zM237.7 250z"/><path class="cls-19" d="M247.3 250v-8.6"/><path class="cls-3" d="M238.6 250l.3-1.7.5-1.6.7-1.5 1.2-1.2 1.2-1.2 1.4-.7 1.7-.5 1.7-.2"/><path class="cls-22" d="M232.9 252.2v7.9l3.6-3.6v-4.3h-3.6"/><path class="cls-16" d="M233.1 255.5l3.4-3.3M233.1 259.9l3.6-3.6"/><path class="cls-22" d="M232.9 252.2v7.9l3.6-3.6v-4.3h-3.6"/><path class="cls-16" d="M233.1 255.5l3.4-3.3M233.1 259.9l3.6-3.6"/><path class="cls-18" d="M236.5 256.5v-4.3M232.9 260.1v-7.9M236.5 252.2h-3.6M232.9 260.1v-7.9M236.5 256.5v-4.3"/><path class="cls-22" d="M250.6 260.1v-3.6h-14.1l-3.6 3.6h17.7"/><path class="cls-16" d="M237 260.1l3.6-3.6M241.3 260.1l3.6-3.6M245.4 260.1l3.6-3.6M249.7 260.1l1.2-1"/><path class="cls-22" d="M250.6 260.1v-3.6h-14.1l-3.6 3.6h17.7"/><path class="cls-16" d="M237 260.1l3.6-3.6M241.3 260.1l3.6-3.6M245.4 260.1l3.6-3.6M249.7 260.1l1.2-1"/><path class="cls-18" d="M232.9 260.1h17.7M236.5 256.5h14.1M236.5 256.5h14.1M232.9 260.1h17.7"/><path class="cls-1" d="M232.9 190.7v27.6"/><path class="cls-17" d="M232.9 217.9v.4"/><path class="cls-22" d="M375 186.4h-59.3v4.1H375v-4.1"/><path class="cls-16" d="M315.9 189.8l3.1-3.4M319.3 190.5l4.1-4.1M323.6 190.5l4.1-4.1M327.9 190.5l4.1-4.1M332 190.5l4.1-4.1M336.3 190.5l4.1-4.1M340.6 190.5l4.1-4.1M344.7 190.5l4.1-4.1M349 190.5l4.1-4.1M353.4 190.5l4-4.1M357.7 190.5l4.1-4.1M361.8 190.5l4-4.1M366.1 190.5l4.1-4.1M370.4 190.5l4.1-4.1M374.5 190.5l.7-.5"/><path class="cls-22" d="M375 186.4h-59.3v4.1H375v-4.1"/><path class="cls-16" d="M315.9 189.8l3.1-3.4M319.3 190.5l4.1-4.1M323.6 190.5l4.1-4.1M327.9 190.5l4.1-4.1M332 190.5l4.1-4.1M336.3 190.5l4.1-4.1M340.6 190.5l4.1-4.1M344.7 190.5l4.1-4.1M349 190.5l4.1-4.1M353.4 190.5l4-4.1M357.7 190.5l4.1-4.1M361.8 190.5l4-4.1M366.1 190.5l4.1-4.1M370.4 190.5l4.1-4.1M374.5 190.5l.7-.5"/><path class="cls-18" d="M315.7 190.5H375M315.7 186.4H375M315.7 186.4H375M315.7 190.5H375M401.6 186.4v4.1"/><path class="cls-17" d="M377.1 190.5v-4.1M399.7 190.5v-4.1"/><path class="cls-18" d="M375 190.5v-4.1M401.6 190.5v-4.1"/><path class="cls-16" d="M377 190.6c0 12.4 10.2 22.7 22.7 22.7M399.7 190.5v22.8"/><path class="cls-22" d="M375 241.6h-59.3v4.3H375v-4.3"/><path class="cls-16" d="M315.9 245l3.4-3.4M319 245.9l4.4-4.3M323.4 245.9l4.3-4.3M327.7 245.9l4.3-4.3M332 245.9l4.3-4.3M336.1 245.9l4.3-4.3M340.4 245.9l4.3-4.3M344.7 245.9l4.3-4.3M348.8 245.9l4.3-4.3M353.1 245.9l4.3-4.3M357.4 245.9l4.4-4.3M361.5 245.9l4.3-4.3M365.8 245.9l4.4-4.3M370.2 245.9l4.3-4.3M374.5 245.9l.7-.7"/><path class="cls-22" d="M375 241.6h-59.3v4.3H375v-4.3"/><path class="cls-16" d="M315.9 245l3.4-3.4M319 245.9l4.4-4.3M323.4 245.9l4.3-4.3M327.7 245.9l4.3-4.3M332 245.9l4.3-4.3M336.1 245.9l4.3-4.3M340.4 245.9l4.3-4.3M344.7 245.9l4.3-4.3M348.8 245.9l4.3-4.3M353.1 245.9l4.3-4.3M357.4 245.9l4.4-4.3M361.5 245.9l4.3-4.3M365.8 245.9l4.4-4.3M370.2 245.9l4.3-4.3M374.5 245.9l.7-.7"/><path class="cls-18" d="M315.7 245.9H375M315.7 241.6H375M315.7 241.6H375M315.7 245.9H375M401.6 241.6v4.3"/><path class="cls-17" d="M377.1 245.9v-4.3M399.7 245.9v-4.3"/><path class="cls-18" d="M375 245.9v-4.3M401.6 245.9v-4.3"/><path class="cls-16" d="M399.7 218.9c-12.4 0-22.7 10.2-22.7 22.7M399.7 241.6v-22.8"/><path class="cls-22" d="M301.5 89.7l4.1-4.3h-4.1v4.3"/><path class="cls-16" d="M301.8 89.2l3.6-3.8"/><path class="cls-22" d="M301.5 89.7l4.1-4.3h-4.1v4.3"/><path class="cls-16" d="M301.8 89.2l3.6-3.8"/><path class="cls-18" d="M301.5 85.4v4.3M301.5 85.4v4.3M301.5 57.8h4.1"/><path class="cls-17" d="M301.5 60.4h4.1M301.5 83h4.1"/><path class="cls-18" d="M301.5 57.8h4.1M301.5 85.4h4.1"/><path class="cls-16" d="M328.4 83c0-12.4-10.2-22.7-22.7-22.7M305.6 83h22.8"/><path class="cls-17" d="M305.6 191.2h3.1M213.7 383.2l3.3 55.2h74.2l3.4-55.2"/><path class="cls-17" d="M212 383.2l3.6 56.9h77l3.6-56.9"/><path class="cls-22" d="M198.1 52.7l-1.5-8.4-5 .8 2.2 12.7h4.3v-5.1"/><path class="cls-16" d="M197.1 45.8l-1.4-1.2M197.8 50.8l-5.7-5.7M198.3 55.1l-5.7-5.7M196.9 57.8l-3.6-3.6M197.1 57.8l1.2-1.2M193.8 57.1l4.3-4.4M193.3 53.7l4.3-4.6M192.6 50.1l4.5-4.3M192.1 46.7l1.9-1.9"/><path class="cls-18" d="M198.1 52.7l-1.5-8.4-5 .8 2.2 12.7h4.3v-5.1z"/><path class="cls-17" d="M190.9 172v-21.3"/><path class="cls-22" d="M95.8 8.8v126.7h7V8.8h-7"/><path class="cls-16" d="M103 11.9l-3.1-3.1M103 16l-6.9-6.9M103 19.9l-6.9-7M103 23.9L96.1 17M103 28l-6.9-6.9M103 31.9l-6.9-7M103 35.9L96.1 29M103 40l-6.9-6.9M103 44.1l-6.9-7M103 47.9L96.1 41M103 52l-6.9-6.9M103 56.1l-6.9-7M103 59.9L96.1 53M103 64l-6.9-6.9M103 68.1l-6.9-7M103 71.9L96.1 65M103 76l-6.9-6.9M103 80.1l-6.9-7M103 84.2l-6.9-7M103 88l-6.9-6.9M103 92.1l-6.9-7M103 96.2l-6.9-7M103 100l-6.9-6.9M103 104.1l-6.9-7M103 108.2l-6.9-7M103 112l-6.9-6.9M103 116.1l-6.9-7M103 120.2l-6.9-7M103 124.3l-6.9-7M103 128.1l-6.9-7M103 132.2l-6.9-7M102.3 135.5l-6.2-6.2M98.2 135.5l-2.1-2.4M99.2 135.5l3.8-3.6M96.1 134.8l6.9-6.9M96.1 130.7l6.9-6.9M96.1 126.9l6.9-7M96.1 122.8l6.9-6.9M96.1 118.7l6.9-6.9M96.1 114.7l6.9-7M96.1 110.8l6.9-6.9M96.1 106.7l6.9-6.9M96.1 102.7l6.9-7M96.1 98.8l6.9-6.9M96.1 94.7l6.9-6.9M96.1 90.7l6.9-7M96.1 86.8l6.9-6.9M96.1 82.7l6.9-6.9M96.1 78.7l6.9-7M96.1 74.6l6.9-7M96.1 70.7l6.9-6.9M96.1 66.7l6.9-7M96.1 62.6l6.9-7M96.1 58.7l6.9-6.9M96.1 54.7l6.9-7M96.1 50.6l6.9-7M96.1 46.5l6.9-7M96.1 42.7l6.9-7M96.1 38.6l6.9-7M96.1 34.5l6.9-7M96.1 30.7l6.9-7M96.1 26.6l6.9-7M96.1 22.5l6.9-7M96.1 18.7l6.9-7M96.1 14.6l5.5-5.8M96.1 10.5l1.7-1.7"/><path class="cls-22" d="M95.8 8.8v126.7h7V8.8h-7"/><path class="cls-16" d="M103 11.9l-3.1-3.1M103 16l-6.9-6.9M103 19.9l-6.9-7M103 23.9L96.1 17M103 28l-6.9-6.9M103 31.9l-6.9-7M103 35.9L96.1 29M103 40l-6.9-6.9M103 44.1l-6.9-7M103 47.9L96.1 41M103 52l-6.9-6.9M103 56.1l-6.9-7M103 59.9L96.1 53M103 64l-6.9-6.9M103 68.1l-6.9-7M103 71.9L96.1 65M103 76l-6.9-6.9M103 80.1l-6.9-7M103 84.2l-6.9-7M103 88l-6.9-6.9M103 92.1l-6.9-7M103 96.2l-6.9-7M103 100l-6.9-6.9M103 104.1l-6.9-7M103 108.2l-6.9-7M103 112l-6.9-6.9M103 116.1l-6.9-7M103 120.2l-6.9-7M103 124.3l-6.9-7M103 128.1l-6.9-7M103 132.2l-6.9-7M102.3 135.5l-6.2-6.2M98.2 135.5l-2.1-2.4M99.2 135.5l3.8-3.6M96.1 134.8l6.9-6.9M96.1 130.7l6.9-6.9M96.1 126.9l6.9-7M96.1 122.8l6.9-6.9M96.1 118.7l6.9-6.9M96.1 114.7l6.9-7M96.1 110.8l6.9-6.9M96.1 106.7l6.9-6.9M96.1 102.7l6.9-7M96.1 98.8l6.9-6.9M96.1 94.7l6.9-6.9M96.1 90.7l6.9-7M96.1 86.8l6.9-6.9M96.1 82.7l6.9-6.9M96.1 78.7l6.9-7M96.1 74.6l6.9-7M96.1 70.7l6.9-6.9M96.1 66.7l6.9-7M96.1 62.6l6.9-7M96.1 58.7l6.9-6.9M96.1 54.7l6.9-7M96.1 50.6l6.9-7M96.1 46.5l6.9-7M96.1 42.7l6.9-7M96.1 38.6l6.9-7M96.1 34.5l6.9-7M96.1 30.7l6.9-7M96.1 26.6l6.9-7M96.1 22.5l6.9-7M96.1 18.7l6.9-7M96.1 14.6l5.5-5.8M96.1 10.5l1.7-1.7"/><path class="cls-18" d="M102.8 135.5V8.8M95.8 135.5V8.8M102.8 8.8h-7M95.8 135.5V8.8M102.8 135.5V8.8"/><path class="cls-22" d="M102.8 135.5l-5-1.2 1.6 4.1 3.4-2.9"/><path class="cls-16" d="M102.6 135.8l-.5-.5M100.4 137.7l-1.9-1.9M98.7 136.3l1.2-1.5M264 52.8c0 11 9.1 20.1 20.1 20.1M284.2 72.9V52.7"/><path class="cls-6" d="M264.1 52.7l-.5 4.1-1.2 3.6-1.7 3.6-2.6 3.1-2.9 2.4-3.6 2-3.8.9-3.9.5"/><path class="cls-14" d="M243.9 72.9V52.7"/><path class="cls-16" d="M357.3 52.8v1.9c0 .6.2 1.2.3 1.8.1.6.3 1.2.5 1.8l.6 1.8c.2.6.5 1.1.8 1.7.3.5.6 1.1 1 1.6.3.5.7 1 1.1 1.5.4.5.8.9 1.3 1.4.4.4.9.9 1.4 1.3.5.4 1 .8 1.5 1.1.5.3 1.1.7 1.6 1 .5.3 1.1.6 1.7.8l1.8.6c.6.2 1.2.3 1.8.5l1.8.3h1.9M376.4 71.7v-19M357.2 52.7v1.5M357.2 55.6l-.2 1M357 56.6l-.3.5"/><path class="cls-11" d="M356.5 58.3l-.7 1.6"/><path class="cls-16" d="M355.3 61.1l-.3.8M355 61.9l-.4.4"/><path class="cls-12" d="M354.1 63.3l-1.2 1.4"/><path class="cls-16" d="M351.9 65.9l-.2.3M351.7 66.2l-1 .7M349.8 67.9l-1 .7"/><path class="cls-20" d="M348.8 68.6l-1.4.9"/><path class="cls-16" d="M347.4 69.5l-1.5.5M344.7 70.7l-.9.3M343.8 71l-.5.2"/><path class="cls-11" d="M342.1 71.5l-1.9.2"/><path class="cls-16" d="M339 71.7h-.8"/><path class="cls-6" d="M338.2 71.7v-19"/><path class="cls-16" d="M338.2 53.2v-.5M150.9 373.7v-1.9c0-.6-.2-1.2-.3-1.8-.1-.6-.3-1.2-.5-1.8l-.6-1.8c-.2-.6-.5-1.1-.8-1.7-.3-.5-.6-1.1-1-1.6-.3-.5-.7-1-1.1-1.5-.4-.5-.8-.9-1.3-1.4-.4-.4-.9-.9-1.4-1.3-.5-.4-1-.8-1.5-1.1-.5-.3-1.1-.7-1.6-1-.5-.3-1.1-.6-1.7-.8l-1.8-.6c-.6-.2-1.2-.3-1.8-.5l-1.8-.3h-1.9M131.8 354.7v18.9M150.8 373.6l.2-1.4M151.3 370.7v-.7M151.3 370l.2-.7"/><path class="cls-11" d="M151.8 368.1l.4-1.7"/><path class="cls-16" d="M153 365.2l.2-.5M153.2 364.7l.5-.7M154.4 362.8l.7-1.2"/><path class="cls-13" d="M155.1 361.6l1.5-1.4"/><path class="cls-16" d="M156.6 360.2l.4-.5"/><path class="cls-5" d="M157.8 359l1.6-1.2"/><path class="cls-16" d="M160.4 357.1l.5-.3M160.9 356.8l.7-.2"/><path class="cls-12" d="M162.6 356.1l1.9-.7"/><path class="cls-16" d="M165.7 355.1h.5M166.2 355.1l.9-.2"/><path class="cls-10" d="M168.1 354.7h1.9"/><path class="cls-6" d="M170 354.7v18.9"/><path class="cls-16" d="M170 373.1v.5M357.3 373.7v-1.9c0-.6.2-1.2.3-1.8.1-.6.3-1.2.5-1.8l.6-1.8c.2-.6.5-1.1.8-1.7.3-.5.6-1.1 1-1.6.3-.5.7-1 1.1-1.5.4-.5.8-.9 1.3-1.4.4-.4.9-.9 1.4-1.3.5-.4 1-.8 1.5-1.1.5-.3 1.1-.7 1.6-1 .5-.3 1.1-.6 1.7-.8l1.8-.6c.6-.2 1.2-.3 1.8-.5l1.8-.3h1.9M376.4 354.7v18.9M357.2 373.6v-1.4M357 370.7v-.7M357 370l-.3-.7"/><path class="cls-11" d="M356.5 368.1l-.7-1.7"/><path class="cls-16" d="M355.3 365.2l-.3-.5M355 364.7l-.4-.7"/><path class="cls-12" d="M354.1 363.1l-1.2-1.5"/><path class="cls-16" d="M351.9 360.4l-.2-.2M351.7 360.2l-1-.7M349.8 358.5l-1-.7"/><path class="cls-20" d="M348.8 357.8l-1.4-1"/><path class="cls-16" d="M347.4 356.8l-1.5-.5M344.7 355.9l-.9-.3M343.8 355.6l-.5-.2"/><path class="cls-11" d="M342.1 355.1l-1.9-.4"/><path class="cls-16" d="M339 354.7h-.8"/><path class="cls-6" d="M338.2 354.7v18.9"/><path class="cls-16" d="M338.2 373.1v.5M244.2 373.7c0-11-9.1-20.1-20.1-20.1M224 353.5v20.1"/><path class="cls-6" d="M244.2 373.6l.4-3.8 1.2-3.9 1.7-3.3 2.7-3.1 2.8-2.4 3.6-2 3.9-1.2 3.8-.4"/><path class="cls-14" d="M264.3 353.5v20.1"/><path class="cls-9" d="M168.3 31.1h-2.1"/><path class="cls-16" d="M166.6 31.1h-.4"/><path class="cls-9" d="M166.2 31.1l-2.2-.2"/><path class="cls-16" d="M164.5 30.9h-.5"/><path class="cls-9" d="M164 30.9l-2.2-.7"/><path class="cls-16" d="M162.3 30.2h-.5M161.8 30.2l-1.2-.5"/><path class="cls-9" d="M159.9 29.5l-2.1-1"/><path class="cls-16" d="M157.8 28.5l-.8-.5"/><path class="cls-9" d="M156.1 27.5l-1.9-1.4M154.2 26.1l-1.7-1.4"/><path class="cls-16" d="M153 25.1l-.5-.4"/><path class="cls-9" d="M152.5 24.7L151 23"/><path class="cls-16" d="M151.5 23.5l-.5-.5M151 23l-.7-1"/><path class="cls-9" d="M149.8 21.3l-1.2-1.9"/><path class="cls-16" d="M149.1 19.9l-.5-.5M148.6 19.4l-.4-1"/><path class="cls-9" d="M147.7 17.5l-.7-2.2"/><path class="cls-16" d="M147 15.8v-.5"/><path class="cls-9" d="M147 15.3l-.5-2.2"/><path class="cls-16" d="M146.5 13.6v-.5"/><path class="cls-9" d="M146.5 13.1l-.3-2.1"/><path class="cls-16" d="M146.2 11.5V11"/><path class="cls-9" d="M146.2 11l-.2-2.2"/><path class="cls-16" d="M146 9.3v-.5"/><path class="cls-6" d="M168.3 31.1V8.8"/><path class="cls-16" d="M168.3 9.3v-.5M146 8.9c0 .7 0 1.5-.1 2.2 0 .7-.2 1.5-.3 2.2-.1.7-.3 1.4-.5 2.1-.2.7-.5 1.4-.7 2.1-.3.7-.6 1.3-.9 2-.3.6-.7 1.3-1.1 1.9-.4.6-.8 1.2-1.3 1.8-.5.6-1 1.1-1.5 1.6s-1.1 1-1.6 1.5c-.6.5-1.2.9-1.8 1.3-.6.4-1.2.8-1.9 1.1-.6.3-1.3.7-2 .9-.7.3-1.4.5-2.1.7-.7.2-1.4.4-2.1.5-.7.1-1.4.3-2.2.3-.7 0-1.5.1-2.2.1M123.7 31.1V8.8M179.6 45.3l16.8-2.6M193.6 25.8c-.5 0-1.1.2-1.6.4-.5.1-1.1.3-1.6.5s-1 .4-1.5.7-1 .5-1.5.8c-.5.3-.9.6-1.4 1-.4.3-.9.7-1.3 1.1l-1.2 1.2c-.4.4-.7.9-1 1.3-.3.5-.6.9-.9 1.4-.3.5-.5 1-.8 1.5-.2.5-.4 1-.6 1.6-.2.5-.3 1.1-.5 1.6-.1.5-.2 1.1-.3 1.6 0 .6-.1 1.1-.1 1.7v1.7c0 .6.1 1.1.2 1.7"/><path class="cls-17" d="M227.4 216.4v1M227.4 217.4l-.3.7M227.1 218.1l-.2 1M226.9 219.1v.2M226.4 220.5l-.2.2M225.4 221.9l-.4.5M225 222.4l-.8.7M224.2 223.1l-.7.5M223.5 223.6l-.2.3M221.8 224.3l-.2.3M220.2 224.8l-.5.3M219.7 225.1h-1M218.7 225.1h-.7M218 225.1l-.5-.3M216.1 224.6l-.3-.3M214.6 223.9l-.4-.3M214.2 223.6l-.8-.5M213.4 223.1l-.7-.7M212.7 222.4l-.2-.5M211.5 221v-.3M210.8 219.3v-.2M210.8 219.1l-.2-1M210.6 218.1l-.3-.7M210.3 217.4v-.7M210.6 215.2v-.2M210.8 213.5l.2-.2M211 213.3l.3-.7M211.3 212.6l.5-.7M211.8 211.9l.4-.8M213.2 210.2l.2-.3M214.6 209h.3M214.9 209l.7-.3M215.6 208.7l.7-.4M216.3 208.3h1M218.7 208h.3M220.4 208.3h1M221.4 208.3l.7.4M222.1 208.7l.7.3M222.8 209l.2.2M224.2 209.9l.3.3M225.4 211.1l.5.8M225.9 211.9l.5.7M226.4 212.6l.2.7M226.6 213.3l.3.2M227.1 215v.2"/></g><g id="Mbel"><path class="cls-2" d="M220.6 88h22.8v50.9h-22.8zM210.7 89.3v12.8M219.3 89.3h-8.6M210.7 102.1h8.6M210.7 107.1v12.7M219.3 107.1h-8.6M210.7 119.8h8.6M210.7 124.8v12.8M219.3 124.8h-8.6M210.7 137.6h8.6M253.3 89.3v12.8M244.8 89.3h8.5M253.3 102.1h-8.5M253.3 107.1v12.7M244.8 107.1h8.5M253.3 119.8h-8.5M253.3 124.8v12.8M244.8 124.8h8.5M253.3 137.6h-8.5M260.5 290.1h14.2v28.6h-14.2zM305.6 331h-19c-.1 0-.2-.1-.3-.2s-.1-.2-.2-.3v-25.2-.3c0-.1.1-.2.2-.3 0 0 .2-.1.3-.2h19v26.6M309.3 335.6h-22.7c-.1 0-.2-.1-.3-.2 0 0-.1-.2-.2-.3V332v-.3c0-.1.1-.2.2-.3s.2-.1.3-.2h23c.1 0 .2.1.3.2 0 0 .1.2.2.3V335.1c0 .1-.1.2-.2.3 0 0-.2.1-.3.2h-.3M305.6 304.4h4.2l.1-.1.1-.1v-.1-.2V278.8v-.3c0-.1-.1-.2-.2-.3 0 0-.2-.1-.3-.2h-4M303.2 277.6v53.3"/><path class="cls-2" d="M305.6 277.7h-19c-.1 0-.2.1-.3.2 0 0-.1.2-.2.3v25.5c0 .1.1.2.2.3 0 0 .2.1.3.2h19v-26.6"/><path class="cls-2" d="M309.3 273.2h-22.7c-.1 0-.2.1-.3.2 0 0-.1.2-.2.3V277.1c0 .1.1.2.2.3 0 0 .2.1.3.2h23c.1 0 .2-.1.3-.2 0 0 .1-.2.2-.3V274v-.3c0-.1-.1-.2-.2-.3 0 0-.2-.1-.3-.2h-.3M305.6 304.4h4.2l.1.1.1.1v25.7c0 .1-.1.2-.2.3 0 0-.2.1-.3.2h-4M317.4 247.4H374V263h-56.6zM317.4 288.4H374v45.4h-56.6zM104.5 310.7h15.6v56.6h-15.6zM104.5 252.7h56.6V281h-56.6zM164.7 308.6h7.7v11.3h-7.7zM172.4 291.5h19.9v45.4h-19.9zM317.4 156.4H374v28.3h-56.6zM372.6 99.5h7.7V111h-7.7z"/><path class="cls-2" d="M380.2 82.5h19.9v45.4h-19.9zM317.4 85.4H333V142h-15.6zM123.9 59c-3.1-2.5-6-5.3-8.6-8.3-.6-.7-.8-1.7-.4-2.6 1.4-2.9 3.5-5.4 6.2-7.1.8-.5 1.8-.5 2.6 0 3.3 2.2 6.5 4.7 9.4 7.4-.3.7-.7 1.3-1.1 1.9-2.1 2.6-4.2 5-6.5 7.4-.5.5-1 1-1.6 1.4h-.1"/><path class="cls-2" d="M122.8 58.7h-1c-1.5-.4-2.9-1.1-4-2.1-1.5-1.4-2.9-2.9-4.1-4.6-.9-1.2-1.6-2.5-2.1-3.8-.3-.8-.3-1.7.1-2.4 1.6-3 3.8-5.6 6.6-7.6.7-.5 1.6-.7 2.4-.5 1.4.3 2.8.9 4.1 1.6 1.8 1 3.5 2.1 5.1 3.4 1.2 1 2.1 2.2 2.7 3.6.1.3.2.7.2 1M141.2 118.3h50.9v15.6h-50.9zM156.1 35.9h11.3v7.7h-11.3zM139 16h45.4v19.9H139zM104.2 77.2h28.3v56.9h-28.3zM199.5 280h10.8v56.9h-10.8z"/></g><g id="Text"><path d="M345.7 308.8v.6h-3.8l3-4.8h-2.7v-.6h3.8l-3 4.8h2.7zM347.5 304.7c0 .2-.2.4-.4.4s-.4-.2-.4-.4.2-.4.4-.4.4.2.4.4zm0 4.7h-.6v-3.7h.6v3.7zM349.4 305.7v.5c.3-.4.6-.6 1-.6s.8.2 1 .7c.3-.5.6-.7 1.2-.7s.7.1.9.4c.2.2.2.4.2 1v2.4h-.6v-2.2c0-.4 0-.6-.1-.7-.1-.2-.4-.3-.6-.3-.5 0-.8.4-.8 1v2.2h-.6v-2.2c0-.4 0-.5-.1-.7-.1-.2-.3-.3-.6-.3-.5 0-.9.4-.9 1v2.2h-.6v-3.7h.6zM355.7 305.7v.5c.3-.4.6-.6 1-.6s.8.2 1 .7c.3-.5.6-.7 1.2-.7s.7.1.9.4c.2.2.2.4.2 1v2.4h-.6v-2.2c0-.4 0-.6-.1-.7-.1-.2-.4-.3-.6-.3-.5 0-.8.4-.8 1v2.2h-.6v-2.2c0-.4 0-.5-.1-.7-.1-.2-.3-.3-.6-.3-.5 0-.9.4-.9 1v2.2h-.6v-3.7h.6zM361.8 307.7c0 .3 0 .5.2.7.2.3.6.5 1 .5s.9-.2 1.1-.6l.5.2c-.3.6-.9 1-1.6 1-1.1 0-1.9-.8-1.9-1.9s.8-1.9 1.9-1.9 1.9.8 1.9 1.9v.2h-3.1zm2.4-.4c0-.3 0-.4-.2-.6-.2-.3-.6-.5-1-.5s-.8.2-1 .5c-.1.2-.2.3-.2.6h2.4zM366.5 305.7v.6c.1-.3.2-.4.3-.5.2-.1.4-.2.7-.2h.1v.6h-.2c-.3 0-.6.2-.8.4-.2.2-.2.4-.2.9v1.9h-.6v-3.7h.6zM342.6 314.8v-.6l1.8-1.2v5.4h-.6V314l-1.2.8zM346.1 313.7v-.6h3l-1.6 2c.9 0 1.6.7 1.6 1.6s-.8 1.7-1.8 1.7-1.4-.5-1.6-1.3h.6c.1.4.5.7 1 .7s1.2-.5 1.2-1.1-.5-1.1-1.2-1.1-.4 0-.6.2l-.3-.2 1.5-1.9H346zM351.1 318c0 .2-.2.4-.4.4s-.4-.2-.4-.4.2-.4.4-.4.4.2.4.4zM355.1 317.8v.6h-3l1.9-2.7c.5-.8.7-1 .7-1.3 0-.5-.4-.8-.9-.8s-.7.2-.8.4v.6h-.6c0-1 .6-1.6 1.5-1.6s1.5.5 1.5 1.3-.2.8-.6 1.5l-1.4 2h1.9zM358.7 314.7v.5c.3-.4.6-.6 1-.6s.8.2 1 .7c.3-.5.6-.7 1.2-.7s.7.1.9.4c.2.2.2.4.2 1v2.4h-.6v-2.2c0-.4 0-.6-.1-.7-.1-.2-.4-.3-.6-.3-.5 0-.8.4-.8 1v2.2h-.6v-2.2c0-.4 0-.5-.1-.7-.1-.2-.3-.3-.6-.3-.5 0-.9.4-.9 1v2.2h-.6v-3.7h.6zM366.3 315.9v.4h-2l1.2-1.6c.3-.5.4-.6.4-.8 0-.3-.2-.4-.5-.4s-.5.2-.5.6h-.4c0-.6.4-1 1-1s1 .3 1 .8-.1.5-.4.9l-.8 1.1h1.1z"/><g><path d="M346.5 141.4v.6h-3.8l3-4.8H343v-.6h3.8l-3 4.8h2.7zM348.4 137.3c0 .2-.2.4-.4.4s-.4-.2-.4-.4.2-.4.4-.4.4.2.4.4zm0 4.7h-.6v-3.7h.6v3.7zM350.3 138.3v.5c.3-.4.6-.6 1-.6s.8.2 1 .7c.3-.5.6-.7 1.2-.7s.7.1.9.4c.2.2.2.4.2 1v2.4h-.6v-2.2c0-.4 0-.6-.1-.7-.1-.2-.4-.3-.6-.3-.5 0-.8.4-.8 1v2.2h-.6v-2.2c0-.4 0-.5-.1-.7-.1-.2-.3-.3-.6-.3-.5 0-.9.4-.9 1v2.2h-.6v-3.7h.6zM356.6 138.3v.5c.3-.4.6-.6 1-.6s.8.2 1 .7c.3-.5.6-.7 1.2-.7s.7.1.9.4c.2.2.2.4.2 1v2.4h-.6v-2.2c0-.4 0-.6-.1-.7-.1-.2-.4-.3-.6-.3-.5 0-.8.4-.8 1v2.2h-.6v-2.2c0-.4 0-.5-.1-.7-.1-.2-.3-.3-.6-.3-.5 0-.9.4-.9 1v2.2h-.6v-3.7h.6zM362.7 140.4c0 .3 0 .5.2.7.2.3.6.5 1 .5s.9-.2 1.1-.6l.5.2c-.3.6-.9 1-1.6 1-1.1 0-1.9-.8-1.9-1.9s.8-1.9 1.9-1.9 1.9.8 1.9 1.9v.2h-3.1zm2.4-.4c0-.3 0-.4-.2-.6-.2-.3-.6-.5-1-.5s-.8.2-1 .5c-.1.2-.2.3-.2.6h2.4zM367.4 138.3v.6c.1-.3.2-.4.3-.5.2-.1.4-.2.7-.2h.1v.6h-.2c-.3 0-.6.2-.8.4-.2.2-.2.4-.2.9v1.9h-.6v-3.7h.6zM343.5 147.4v-.6l1.8-1.2v5.4h-.6v-4.4l-1.2.8zM346.7 149.8v-.5l2.8-3.7v3.6h.6v.6h-.6v1.2h-.6v-1.2h-2.1zm2.1-2.6l-1.5 2h1.5v-2zM351.9 150.7c0 .2-.2.4-.4.4s-.4-.2-.4-.4.2-.4.4-.4.4.2.4.4zM352.9 147.4v-.6l1.8-1.2v5.4h-.6v-4.4l-1.2.8zM358.9 147.3v.5c.3-.4.6-.6 1-.6s.8.2 1 .7c.3-.5.6-.7 1.2-.7s.7.1.9.4c.2.2.2.4.2 1v2.4h-.6v-2.2c0-.4 0-.6-.1-.7-.1-.2-.4-.3-.6-.3-.5 0-.8.4-.8 1v2.2h-.6v-2.2c0-.4 0-.5-.1-.7-.1-.2-.3-.3-.6-.3-.5 0-.9.4-.9 1v2.2h-.6v-3.7h.6zM366.5 148.5v.4h-2l1.2-1.6c.3-.5.4-.6.4-.8 0-.3-.2-.4-.5-.4s-.5.2-.5.6h-.4c0-.6.4-1 1-1s1 .3 1 .8-.1.5-.4.9l-.8 1.1h1.1z"/></g><g><path d="M138.8 292.5v.6H135l3-4.8h-2.7v-.6h3.8l-3 4.8h2.7zM140.6 288.4c0 .2-.2.4-.4.4s-.4-.2-.4-.4.2-.4.4-.4.4.2.4.4zm0 4.7h-.6v-3.7h.6v3.7zM142.5 289.4v.5c.3-.4.6-.6 1-.6s.8.2 1 .7c.3-.5.6-.7 1.2-.7s.7.1.9.4c.2.2.2.4.2 1v2.4h-.6v-2.2c0-.4 0-.6-.1-.7-.1-.2-.4-.3-.6-.3-.5 0-.8.4-.8 1v2.2h-.6v-2.2c0-.4 0-.5-.1-.7-.1-.2-.3-.3-.6-.3-.5 0-.9.4-.9 1v2.2h-.6v-3.7h.6zM148.8 289.4v.5c.3-.4.6-.6 1-.6s.8.2 1 .7c.3-.5.6-.7 1.2-.7s.7.1.9.4c.2.2.2.4.2 1v2.4h-.6v-2.2c0-.4 0-.6-.1-.7-.1-.2-.4-.3-.6-.3-.5 0-.8.4-.8 1v2.2h-.6v-2.2c0-.4 0-.5-.1-.7-.1-.2-.3-.3-.6-.3-.5 0-.9.4-.9 1v2.2h-.6v-3.7h.6zM154.9 291.5c0 .3 0 .5.2.7.2.3.6.5 1 .5s.9-.2 1.1-.6l.5.2c-.3.6-.9 1-1.6 1-1.1 0-1.9-.8-1.9-1.9s.8-1.9 1.9-1.9 1.9.8 1.9 1.9v.2h-3.1zm2.4-.4c0-.3 0-.4-.2-.6-.2-.3-.6-.5-1-.5s-.8.2-1 .5c-.1.2-.2.3-.2.6h2.4zM159.7 289.4v.6c.1-.3.2-.4.3-.5.2-.1.4-.2.7-.2h.1v.6h-.2c-.3 0-.6.2-.8.4-.2.2-.2.4-.2.9v1.9h-.6v-3.7h.6zM135.7 298.5v-.6l1.8-1.2v5.4h-.6v-4.4l-1.2.8zM139.3 297.4v-.6h3l-1.6 2c.9 0 1.6.7 1.6 1.6s-.8 1.7-1.8 1.7-1.4-.5-1.6-1.3h.6c.1.4.5.7 1 .7s1.2-.5 1.2-1.1-.5-1.1-1.2-1.1-.4 0-.6.2l-.3-.2 1.5-1.9h-1.9zM144.2 301.8c0 .2-.2.4-.4.4s-.4-.2-.4-.4.2-.4.4-.4.4.2.4.4zM145.1 300.9v-.5l2.8-3.7v3.6h.6v.6h-.6v1.2h-.6v-1.2h-2.1zm2.1-2.6l-1.5 2h1.5v-2zM151.7 298.4v.5c.3-.4.6-.6 1-.6s.8.2 1 .7c.3-.5.6-.7 1.2-.7s.7.1.9.4c.2.2.2.4.2 1v2.4h-.6v-2.2c0-.4 0-.6-.1-.7-.1-.2-.4-.3-.6-.3-.5 0-.8.4-.8 1v2.2h-.6v-2.2c0-.4 0-.5-.1-.7-.1-.2-.3-.3-.6-.3-.5 0-.9.4-.9 1v2.2h-.6v-3.7h.6zM159.3 299.6v.4h-2l1.2-1.6c.3-.5.4-.6.4-.8 0-.3-.2-.4-.5-.4s-.5.2-.5.6h-.4c0-.6.4-1 1-1s1 .3 1 .8-.1.5-.4.9l-.8 1.1h1.1z"/></g><g><path d="M148.6 101.2v.6h-3.8l3-4.8h-2.7v-.6h3.8l-3 4.8h2.7zM150.5 97.1c0 .2-.2.4-.4.4s-.4-.2-.4-.4.2-.4.4-.4.4.2.4.4zm0 4.7h-.6v-3.7h.6v3.7zM152.3 98.1v.5c.3-.4.6-.6 1-.6s.8.2 1 .7c.3-.5.6-.7 1.2-.7s.7.1.9.4c.2.2.2.4.2 1v2.4h-.6v-2.2c0-.4 0-.6-.1-.7-.1-.2-.4-.3-.6-.3-.5 0-.8.4-.8 1v2.2h-.6v-2.2c0-.4 0-.5-.1-.7-.1-.2-.3-.3-.6-.3-.5 0-.9.4-.9 1v2.2h-.6v-3.7h.6zM158.7 98.1v.5c.3-.4.6-.6 1-.6s.8.2 1 .7c.3-.5.6-.7 1.2-.7s.7.1.9.4c.2.2.2.4.2 1v2.4h-.6v-2.2c0-.4 0-.6-.1-.7-.1-.2-.4-.3-.6-.3-.5 0-.8.4-.8 1v2.2h-.6v-2.2c0-.4 0-.5-.1-.7-.1-.2-.3-.3-.6-.3-.5 0-.9.4-.9 1v2.2h-.6v-3.7h.6zM164.8 100.1c0 .3 0 .5.2.7.2.3.6.5 1 .5s.9-.2 1.1-.6l.5.2c-.3.6-.9 1-1.6 1-1.1 0-1.9-.8-1.9-1.9s.8-1.9 1.9-1.9 1.9.8 1.9 1.9v.2h-3.1zm2.4-.4c0-.3 0-.4-.2-.6-.2-.3-.6-.5-1-.5s-.8.2-1 .5c-.1.2-.2.3-.2.6h2.4zM169.5 98.1v.6c.1-.3.2-.4.3-.5.2-.1.4-.2.7-.2h.1v.6h-.2c-.3 0-.6.2-.8.4-.2.2-.2.4-.2.9v1.9h-.6v-3.7h.6zM145.6 107.2v-.6l1.8-1.2v5.4h-.6v-4.4l-1.2.8zM149.1 106.1v-.6h3l-1.6 2c.9 0 1.6.7 1.6 1.6s-.8 1.7-1.8 1.7-1.4-.5-1.6-1.3h.6c.1.4.5.7 1 .7s1.2-.5 1.2-1.1-.5-1.1-1.2-1.1-.4 0-.6.2l-.3-.2 1.5-1.9H149zM154 110.4c0 .2-.2.4-.4.4s-.4-.2-.4-.4.2-.4.4-.4.4.2.4.4zM155.4 106.1v-.6h3l-1.6 2c.9 0 1.6.7 1.6 1.6s-.8 1.7-1.8 1.7-1.4-.5-1.6-1.3h.6c.1.4.5.7 1 .7s1.2-.5 1.2-1.1-.5-1.1-1.2-1.1-.4 0-.6.2l-.3-.2 1.5-1.9h-1.9zM161.7 107.1v.5c.3-.4.6-.6 1-.6s.8.2 1 .7c.3-.5.6-.7 1.2-.7s.7.1.9.4c.2.2.2.4.2 1v2.4h-.6v-2.2c0-.4 0-.6-.1-.7-.1-.2-.4-.3-.6-.3-.5 0-.8.4-.8 1v2.2h-.6v-2.2c0-.4 0-.5-.1-.7-.1-.2-.3-.3-.6-.3-.5 0-.9.4-.9 1v2.2h-.6v-3.7h.6zM169.3 108.3v.4h-2l1.2-1.6c.3-.5.4-.6.4-.8 0-.3-.2-.4-.5-.4s-.5.2-.5.6h-.4c0-.6.4-1 1-1s1 .3 1 .8-.1.5-.4.9l-.8 1.1h1.1z"/></g><g><path d="M227 413.3c1.1 0 1.7.5 1.7 1.4s-.1.6-.3.9c-.1.2-.3.2-.5.3.3 0 .4.1.6.2.3.2.4.6.4 1s-.2.9-.6 1.2c-.3.2-.7.3-1.3.3h-1.5v-5.3h1.5zm-.8 2.4h.7c.4 0 .7 0 .9-.2.2-.2.3-.4.3-.7s-.2-.6-.4-.8c-.2 0-.4-.1-.9-.1h-.6v1.8zm0 2.4h.7c.6 0 .8 0 1-.2.3-.1.4-.4.4-.8 0-.6-.4-.9-1.2-.9h-.8v1.8zM232.8 414.9h.6v3.7h-.6v-.7c-.4.6-.8.8-1.3.8-1 0-1.7-.8-1.7-1.9s.7-1.9 1.8-1.9 1 .2 1.3.7v-.6zm-2.1.9c-.2.3-.3.6-.3 1 0 .8.5 1.4 1.2 1.4s1.3-.6 1.3-1.4-.5-1.4-1.2-1.4-.7.1-.9.4zM234.8 418.6v-5.3h.6v5.3h-.6zM237.4 418.6h-.6v-5.3h.6v3.3l1.5-1.6h.8l-1.6 1.8 1.6 1.9h-.8l-1.5-1.6v1.6zM243.8 416.8c0 1.1-.8 1.9-1.9 1.9s-1.9-.8-1.9-1.9.8-1.9 1.9-1.9 1.9.8 1.9 1.9zm-3.1 0c0 .8.5 1.4 1.3 1.4s1.2-.6 1.2-1.4-.5-1.4-1.2-1.4-1.3.6-1.3 1.4zM245.5 414.9v.5c.3-.4.6-.6 1.1-.6s.6.1.9.3c.2.2.3.5.3 1v2.5h-.6v-2.4c0-.3 0-.5-.1-.6-.1-.2-.3-.2-.6-.2s-.5.1-.7.3c-.2.2-.2.4-.2.7v2.2h-.6v-3.7h.6zM226.4 424.5c.2 0 .3-.1.5-.1.9 0 1.6.7 1.6 1.6s-.8 1.7-1.7 1.7-1.7-.8-1.7-1.7.1-.7.4-1.2l1.5-2.5h.7l-1.4 2.1zm-.7 1.5c0 .6.5 1.1 1.1 1.1s1.1-.5 1.1-1.1-.5-1.1-1.1-1.1-1.1.5-1.1 1.1zM230.3 427.3c0 .2-.2.4-.4.4s-.4-.2-.4-.4.2-.4.4-.4.4.2.4.4zM234.6 426c0 .6-.1 1-.4 1.2-.3.3-.7.4-1.2.4s-1-.2-1.2-.5c-.3-.3-.4-.6-.4-1.4v-1.8c0-.7 0-1 .3-1.3.3-.3.7-.5 1.2-.5s.9.1 1.2.4c.3.3.4.6.4 1.2v2.1zm-2.5-.1c0 .6 0 .7.2.9.2.2.5.3.8.3s.6-.1.8-.4c.1-.2.2-.4.2-.8v-2c0-.4 0-.6-.3-.8-.2-.2-.4-.2-.7-.2s-.6.1-.8.4c-.1.2-.2.4-.2.8v1.8zM238 423.9v.5c.3-.4.6-.6 1-.6s.8.2 1 .7c.3-.5.6-.7 1.2-.7s.7.1.9.4c.2.2.2.4.2 1v2.4h-.6v-2.2c0-.4 0-.6-.1-.7-.1-.2-.4-.3-.6-.3-.5 0-.8.4-.8 1v2.2h-.6v-2.2c0-.4 0-.5-.1-.7-.1-.2-.3-.3-.6-.3-.5 0-.9.4-.9 1v2.2h-.6v-3.7h.6zM245.6 425.1v.4h-2l1.2-1.6c.3-.5.4-.6.4-.8 0-.3-.2-.4-.5-.4s-.5.2-.5.6h-.4c0-.6.4-1 1-1s1 .3 1 .8-.1.5-.4.9l-.8 1.1h1.1z"/></g><g><path d="M262.6 212.3c1.1 0 1.7.5 1.7 1.4s-.1.6-.3.9c-.1.2-.3.2-.5.3.3 0 .4.1.6.2.3.2.4.6.4 1s-.2.9-.6 1.2c-.3.2-.7.3-1.3.3h-1.5v-5.3h1.5zm-.8 2.4h.7c.4 0 .7 0 .9-.2.2-.2.3-.4.3-.7s-.2-.6-.4-.8c-.2 0-.4-.1-.9-.1h-.6v1.8zm0 2.4h.7c.6 0 .8 0 1-.2.3-.1.4-.4.4-.8 0-.6-.4-.9-1.2-.9h-.8v1.8zM268.5 213.9h.6v3.7h-.6v-.7c-.4.6-.8.8-1.3.8-1 0-1.7-.8-1.7-1.9s.7-1.9 1.8-1.9 1 .2 1.3.7v-.6zm-2.1.9c-.2.3-.3.6-.3 1 0 .8.5 1.4 1.2 1.4s1.3-.6 1.3-1.4-.5-1.4-1.2-1.4-.7.1-.9.4zM273.3 212.3h.6v5.3h-.6v-.6c-.4.5-.8.7-1.3.7-1 0-1.7-.8-1.7-1.9s.7-2 1.7-2 1 .2 1.3.6v-2.2zm-2.4 3.5c0 .8.5 1.4 1.2 1.4s1.2-.6 1.2-1.4-.5-1.4-1.2-1.4-1.2.6-1.2 1.4zM261 221.9v-.6h3l-1.6 2c.9 0 1.6.7 1.6 1.6s-.8 1.7-1.8 1.7-1.4-.5-1.6-1.3h.6c.1.4.5.7 1 .7s1.2-.5 1.2-1.1-.5-1.1-1.2-1.1-.4 0-.6.2l-.3-.2 1.5-1.9h-1.9zM266 226.3c0 .2-.2.4-.4.4s-.4-.2-.4-.4.2-.4.4-.4.4.2.4.4zM270 224.1c.3.3.4.6.4 1 0 .9-.7 1.6-1.7 1.6s-1.6-.6-1.6-1.6.1-.8.4-1.1c.2-.2.3-.3.6-.4-.3 0-.4-.2-.5-.4-.2-.2-.3-.5-.3-.8 0-.8.6-1.3 1.5-1.3s1.4.6 1.4 1.3-.1.6-.3.8c-.1.2-.3.2-.5.3.3 0 .4.2.6.3zm-2.3 1c0 .6.5 1 1 1s1-.5 1-1-.5-1-1-1-1 .5-1 1zm.2-2.5c0 .5.4.8.8.8s.9-.4.9-.8-.4-.8-.8-.8-.9.3-.9.8zM274.5 222.9v.5c.3-.4.6-.6 1-.6s.8.2 1 .7c.3-.5.6-.7 1.2-.7s.7.1.9.4c.2.2.2.4.2 1v2.4h-.6v-2.2c0-.4 0-.6-.1-.7-.1-.2-.4-.3-.6-.3-.5 0-.8.4-.8 1v2.2h-.6v-2.2c0-.4 0-.5-.1-.7-.1-.2-.3-.3-.6-.3-.5 0-.9.4-.9 1v2.2h-.6v-3.7h.6zM282.1 224.1v.4h-2l1.2-1.6c.3-.5.4-.6.4-.8 0-.3-.2-.4-.5-.4s-.5.2-.5.6h-.4c0-.6.4-1 1-1s1 .3 1 .8-.1.5-.4.9l-.8 1.1h1.1z"/></g><g><path d="M342.3 198.8h1.4c1.6 0 2.6 1 2.6 2.6s-.3 1.6-.8 2.1c-.5.4-1.1.6-1.9.6h-1.3v-5.3zm.7 4.8h.2c.9 0 1.3 0 1.7-.4.5-.4.7-1 .7-1.8 0-1.3-.7-2-1.9-2h-.7v4.2zM350.3 200.5v2.4c0 .5 0 .8-.4 1-.3.2-.6.4-1.1.4s-.8-.1-1.1-.4c-.2-.2-.4-.6-.4-1v-2.4h.6v2.3c0 .5.3.9.8.9s.5-.1.7-.3c.1-.1.2-.3.2-.6v-2.4h.6zM353.3 201.5c0-.4-.3-.6-.7-.6s-.7.2-.7.5.2.4.8.6c.5.1.7.2.9.4.2.2.3.4.3.7 0 .6-.5 1.1-1.3 1.1s-1.3-.4-1.4-1.1h.6c0 .4.3.6.8.6s.7-.2.7-.5-.2-.5-.8-.6c-.8-.2-1.2-.6-1.2-1.1s.5-1.1 1.3-1.1 1.3.4 1.3 1.1h-.6zM358 203.7c-.4.4-.8.5-1.4.5-1.1 0-1.8-.8-1.8-1.9s.8-1.9 1.8-1.9 1 .2 1.3.6l-.4.4c-.3-.3-.6-.4-.9-.4-.7 0-1.2.6-1.2 1.4s.5 1.4 1.2 1.4.6-.1.9-.4l.4.4zM359.5 201c.3-.4.7-.6 1.1-.6s.7.1.9.3c.2.2.3.5.3 1v2.5h-.6v-2.4c0-.5-.2-.8-.7-.8s-.5.1-.7.3c-.2.2-.2.4-.2.7v2.2h-.6v-5.3h.6v2.2zM363.5 202.5c0 .3 0 .5.2.7.2.3.6.5 1 .5s.9-.2 1.1-.6l.5.2c-.3.6-.9 1-1.6 1-1.1 0-1.9-.8-1.9-1.9s.8-1.9 1.9-1.9 1.9.8 1.9 1.9v.2h-3.1zm2.4-.4c0-.3 0-.4-.2-.6-.2-.3-.6-.5-1-.5s-.8.2-1 .5c-.1.2-.2.3-.2.6h2.4zM341.9 212v-.5l2.8-3.7v3.6h.6v.6h-.6v1.2h-.6V212H342zm2.1-2.6l-1.5 2h1.5v-2zM347.1 212.8c0 .2-.2.4-.4.4s-.4-.2-.4-.4.2-.4.4-.4.4.2.4.4zM349.4 210.1c.2 0 .3-.1.5-.1.9 0 1.6.7 1.6 1.6s-.8 1.7-1.7 1.7-1.7-.8-1.7-1.7.1-.7.4-1.2l1.5-2.5h.7l-1.4 2.1zm-.7 1.5c0 .6.5 1.1 1.1 1.1s1.1-.5 1.1-1.1-.5-1.1-1.1-1.1-1.1.5-1.1 1.1zM355.6 209.5v.5c.3-.4.6-.6 1-.6s.8.2 1 .7c.3-.5.6-.7 1.2-.7s.7.1.9.4c.2.2.2.4.2 1v2.4h-.6V211c0-.4 0-.6-.1-.7-.1-.2-.4-.3-.6-.3-.5 0-.8.4-.8 1v2.2h-.6V211c0-.4 0-.5-.1-.7-.1-.2-.3-.3-.6-.3-.5 0-.9.4-.9 1v2.2h-.6v-3.7h.6zM363.2 210.7v.4h-2l1.2-1.6c.3-.5.4-.6.4-.8 0-.3-.2-.4-.5-.4s-.5.2-.5.6h-.4c0-.6.4-1 1-1s1 .3 1 .8-.1.5-.4.9l-.8 1.1h1.1z"/></g><g><path d="M202.8 187.9h2.1v.6h-2.1v1.8h2.1v.6h-2.8v-5.3h2.8v.6h-2.1v1.8zM206.7 187.1v.5c.3-.4.6-.6 1.1-.6s.6.1.9.3c.2.2.3.5.3 1v2.5h-.6v-2.4c0-.3 0-.5-.1-.6-.1-.2-.3-.2-.6-.2s-.5.1-.7.3c-.2.2-.2.4-.2.7v2.2h-.6v-3.7h.6zM211 190.1c0 .2 0 .2.3.2h.3v.5h-.6c-.4 0-.6-.2-.6-.6v-2.6h-.5v-.5h.5v-1.2h.6v1.2h.6v.5h-.6v2.4zM213.2 187.1v.6c.1-.3.2-.4.3-.5.2-.1.4-.2.7-.2h.1v.6h-.2c-.3 0-.6.2-.8.4-.2.2-.2.4-.2.9v1.9h-.6v-3.7h.6zM215.6 189.2c0 .3 0 .5.2.7.2.3.6.5 1 .5s.9-.2 1.1-.6l.5.2c-.3.6-.9 1-1.6 1-1.1 0-1.9-.8-1.9-1.9s.8-1.9 1.9-1.9 1.9.8 1.9 1.9v.2h-3.1zm2.4-.4c0-.3 0-.4-.2-.6-.2-.3-.6-.5-1-.5s-.8.2-1 .5c-.1.2-.2.3-.2.6h2.4zm-.2-3.2l-.9 1.1h-.4l.7-1.1h.7zM220.2 189.2c0 .3 0 .5.2.7.2.3.6.5 1 .5s.9-.2 1.1-.6l.5.2c-.3.6-.9 1-1.6 1-1.1 0-1.9-.8-1.9-1.9s.8-1.9 1.9-1.9 1.9.8 1.9 1.9v.2h-3.1zm2.4-.4c0-.3 0-.4-.2-.6-.2-.3-.6-.5-1-.5s-.8.2-1 .5c-.1.2-.2.3-.2.6h2.4zM204.5 195.1h-1.7v1.4c.3-.1.5-.2.8-.2.9 0 1.6.7 1.6 1.7s-.8 1.8-1.8 1.8-1.3-.4-1.6-1.1l.6-.2c.1.2.2.3.3.4.2.2.5.3.8.3.6 0 1.1-.5 1.1-1.2s-.5-1.1-1.2-1.1-.8.2-1.2.5v-3h2.3v.6zM207.1 199.5c0 .2-.2.4-.4.4s-.4-.2-.4-.4.2-.4.4-.4.4.2.4.4zM211.1 199.2v.6h-3l1.9-2.7c.5-.8.7-1 .7-1.3 0-.5-.4-.8-.9-.8s-.7.2-.8.4v.6h-.6c0-1 .6-1.6 1.5-1.6s1.5.5 1.5 1.3-.2.8-.6 1.5l-1.4 2h1.9zM215.6 196.1v.5c.3-.4.6-.6 1-.6s.8.2 1 .7c.3-.5.6-.7 1.2-.7s.7.1.9.4c.2.2.2.4.2 1v2.4h-.6v-2.2c0-.4 0-.6-.1-.7-.1-.2-.4-.3-.6-.3-.5 0-.8.4-.8 1v2.2h-.6v-2.2c0-.4 0-.5-.1-.7-.1-.2-.3-.3-.6-.3-.5 0-.9.4-.9 1v2.2h-.6v-3.7h.6zM223.2 197.3v.4h-2l1.2-1.6c.3-.5.4-.6.4-.8 0-.3-.2-.4-.5-.4s-.5.2-.5.6h-.4c0-.6.4-1 1-1s1 .3 1 .8-.1.5-.4.9l-.8 1.1h1.1z"/></g><g><path d="M228.5 289.2h.7l-1.6 5.3h-.6l-1.2-4.2-1.2 4.2h-.6l-1.6-5.3h.7l1.2 4.1 1.2-4.1h.6l1.1 4.1 1.2-4.1zM233.3 292.7c0 1.1-.8 1.9-1.9 1.9s-1.9-.8-1.9-1.9.8-1.9 1.9-1.9 1.9.8 1.9 1.9zm-3.1 0c0 .8.5 1.4 1.3 1.4s1.2-.6 1.2-1.4-.5-1.4-1.2-1.4-1.3.6-1.3 1.4zM235 291.3c.3-.4.7-.6 1.1-.6s.7.1.9.3c.2.2.3.5.3 1v2.5h-.6v-2.4c0-.5-.2-.8-.7-.8s-.5.1-.7.3c-.2.2-.2.4-.2.7v2.2h-.6v-5.3h.6v2.2zM239.2 290.8v.5c.3-.4.6-.6 1.1-.6s.6.1.9.3c.2.2.3.5.3 1v2.5h-.6v-2.4c0-.3 0-.5-.1-.6-.1-.2-.3-.2-.6-.2s-.5.1-.7.3c-.2.2-.2.4-.2.7v2.2h-.6v-3.7h.6zM243.2 292.9c0 .3 0 .5.2.7.2.3.6.5 1 .5s.9-.2 1.1-.6l.5.2c-.3.6-.9 1-1.6 1-1.1 0-1.9-.8-1.9-1.9s.8-1.9 1.9-1.9 1.9.8 1.9 1.9v.2h-3.1zm2.4-.4c0-.3 0-.4-.2-.6-.2-.3-.6-.5-1-.5s-.8.2-1 .5c-.1.2-.2.3-.2.6h2.4zM247.9 290.8v.5c.3-.4.6-.6 1.1-.6s.6.1.9.3c.2.2.3.5.3 1v2.5h-.6v-2.4c0-.3 0-.5-.1-.6-.1-.2-.3-.2-.6-.2s-.5.1-.7.3c-.2.2-.2.4-.2.7v2.2h-.6v-3.7h.6zM223.2 299.9v-.6l1.8-1.2v5.4h-.6v-4.4l-1.2.8zM229.2 298.8h-1.7v1.4c.3-.1.5-.2.8-.2.9 0 1.6.7 1.6 1.7s-.8 1.8-1.8 1.8-1.3-.4-1.6-1.1l.6-.2c.1.2.2.3.3.4.2.2.5.3.8.3.6 0 1.1-.5 1.1-1.2s-.5-1.1-1.2-1.1-.8.2-1.2.5v-3h2.3v.6zM231.8 303.2c0 .2-.2.4-.4.4s-.4-.2-.4-.4.2-.4.4-.4.4.2.4.4zM234.1 300.4c.2 0 .3-.1.5-.1.9 0 1.6.7 1.6 1.6s-.8 1.7-1.7 1.7-1.7-.8-1.7-1.7.1-.7.4-1.2l1.5-2.5h.7l-1.4 2.1zm-.7 1.5c0 .6.5 1.1 1.1 1.1s1.1-.5 1.1-1.1-.5-1.1-1.1-1.1-1.1.5-1.1 1.1zM240.3 299.8v.5c.3-.4.6-.6 1-.6s.8.2 1 .7c.3-.5.6-.7 1.2-.7s.7.1.9.4c.2.2.2.4.2 1v2.4h-.6v-2.2c0-.4 0-.6-.1-.7-.1-.2-.4-.3-.6-.3-.5 0-.8.4-.8 1v2.2h-.6v-2.2c0-.4 0-.5-.1-.7-.1-.2-.3-.3-.6-.3-.5 0-.9.4-.9 1v2.2h-.6v-3.7h.6zM247.8 301v.4h-2l1.2-1.6c.3-.5.4-.6.4-.8 0-.3-.2-.4-.5-.4s-.5.2-.5.6h-.4c0-.6.4-1 1-1s1 .3 1 .8-.1.5-.4.9l-.8 1.1h1.1z"/></g><g><path d="M218 151.6h-.7v-5.3h.7v2.5l2.1-2.5h.8l-2.2 2.6 2.2 2.7h-.9l-2-2.5v2.5zM225 149.8c0 1.1-.8 1.9-1.9 1.9s-1.9-.8-1.9-1.9.8-1.9 1.9-1.9 1.9.8 1.9 1.9zm-3.1 0c0 .8.5 1.4 1.3 1.4s1.2-.6 1.2-1.4-.5-1.4-1.2-1.4-1.3.6-1.3 1.4zM229.1 151.2c-.4.4-.8.5-1.4.5-1.1 0-1.8-.8-1.8-1.9s.8-1.9 1.8-1.9 1 .2 1.3.6l-.4.4c-.3-.3-.6-.4-.9-.4-.7 0-1.2.6-1.2 1.4s.5 1.4 1.2 1.4.6-.1.9-.4l.4.4zM230.6 148.4c.3-.4.7-.6 1.1-.6s.7.1.9.3c.2.2.3.5.3 1v2.5h-.6v-2.4c0-.5-.2-.8-.7-.8s-.5.1-.7.3c-.2.2-.2.4-.2.7v2.2h-.6v-5.3h.6v2.2zM234.6 150c0 .3 0 .5.2.7.2.3.6.5 1 .5s.9-.2 1.1-.6l.5.2c-.3.6-.9 1-1.6 1-1.1 0-1.9-.8-1.9-1.9s.8-1.9 1.9-1.9 1.9.8 1.9 1.9v.2h-3.1zm2.4-.4c0-.3 0-.4-.2-.6-.2-.3-.6-.5-1-.5s-.8.2-1 .5c-.1.2-.2.3-.2.6h2.4zM239.3 147.9v.5c.3-.4.6-.6 1.1-.6s.6.1.9.3c.2.2.3.5.3 1v2.5h-.6v-2.4c0-.3 0-.5-.1-.6-.1-.2-.3-.2-.6-.2s-.5.1-.7.3c-.2.2-.2.4-.2.7v2.2h-.6v-3.7h.6zM242.9 152.9h-.4l.7-2.1.6.2-.8 1.9zM248 148.6h2.1v.6H248v1.8h2.1v.6h-2.8v-5.3h2.8v.6H248v1.8zM253 148.9c0-.4-.3-.6-.7-.6s-.7.2-.7.5.2.4.8.6c.5.1.7.2.9.4.2.2.3.4.3.7 0 .6-.5 1.1-1.3 1.1s-1.3-.4-1.4-1.1h.6c0 .4.3.6.8.6s.7-.2.7-.5-.2-.5-.8-.6c-.8-.2-1.2-.6-1.2-1.1s.5-1.1 1.3-1.1 1.3.4 1.3 1.1h-.6zM256.6 148.9c0-.4-.3-.6-.7-.6s-.7.2-.7.5.2.4.8.6c.5.1.7.2.9.4.2.2.3.4.3.7 0 .6-.5 1.1-1.3 1.1s-1.3-.4-1.4-1.1h.6c0 .4.3.6.8.6s.7-.2.7-.5-.2-.5-.8-.6c-.8-.2-1.2-.6-1.2-1.1s.5-1.1 1.3-1.1 1.3.4 1.3 1.1h-.6zM258.7 150c0 .3 0 .5.2.7.2.3.6.5 1 .5s.9-.2 1.1-.6l.5.2c-.3.6-.9 1-1.6 1-1.1 0-1.9-.8-1.9-1.9s.8-1.9 1.9-1.9 1.9.8 1.9 1.9v.2h-3.1zm2.4-.4c0-.3 0-.4-.2-.6-.2-.3-.6-.5-1-.5s-.8.2-1 .5c-.1.2-.2.3-.2.6h2.4zM263.5 147.9v.5c.3-.4.6-.6 1.1-.6s.6.1.9.3c.2.2.3.5.3 1v2.5h-.6v-2.4c0-.3 0-.5-.1-.6-.1-.2-.3-.2-.6-.2s-.5.1-.7.3c-.2.2-.2.4-.2.7v2.2h-.6v-3.7h.6zM217.6 157v-.6l1.8-1.2v5.4h-.6v-4.4l-1.2.8zM222.1 157.5c.2 0 .3-.1.5-.1.9 0 1.6.7 1.6 1.6s-.8 1.7-1.7 1.7-1.7-.8-1.7-1.7.1-.7.4-1.2l1.5-2.5h.7l-1.4 2.1zm-.7 1.5c0 .6.5 1.1 1.1 1.1s1.1-.5 1.1-1.1-.5-1.1-1.1-1.1-1.1.5-1.1 1.1zM226.1 160.3c0 .2-.2.4-.4.4s-.4-.2-.4-.4.2-.4.4-.4.4.2.4.4zM227.3 156v-.6h3l-2.1 5.3h-.7l1.9-4.7h-2zM234.4 156.9v.5c.3-.4.6-.6 1-.6s.8.2 1 .7c.3-.5.6-.7 1.2-.7s.7.1.9.4c.2.2.2.4.2 1v2.4h-.6v-2.2c0-.4 0-.6-.1-.7-.1-.2-.4-.3-.6-.3-.5 0-.8.4-.8 1v2.2h-.6v-2.2c0-.4 0-.5-.1-.7-.1-.2-.3-.3-.6-.3-.5 0-.9.4-.9 1v2.2h-.6v-3.7h.6zM242 158.1v.4h-2l1.2-1.6c.3-.5.4-.6.4-.8 0-.3-.2-.4-.5-.4s-.5.2-.5.6h-.4c0-.6.4-1 1-1s1 .3 1 .8-.1.5-.4.9l-.8 1.1h1.1z"/></g><g><path d="M23.2 175.1v.6h-2.5v-5.3h.7v4.7h1.9zM24.9 170.9c0 .2-.2.4-.4.4s-.4-.2-.4-.4.2-.4.4-.4.4.2.4.4zm0 4.7h-.6v-3.7h.6v3.7zM26.9 175.7h-.6v-3.2h-.5v-.5h.5v-.5c0-.7.4-1.2 1-1.2h.2v.5c-.4 0-.6.2-.6.6v.5h.6v.5h-.6v3.2zM29.2 174.9c0 .2 0 .2.3.2h.3v.5h-.6c-.4 0-.6-.2-.6-.6v-2.6h-.5v-.5h.5v-1.2h.6v1.2h.6v.5h-.6v2.4z"/></g></g></svg>