<svg xmlns="http://www.w3.org/2000/svg" viewBox="0 0 408.7 439.6"><defs><style>.cls-1,.cls-10,.cls-11,.cls-12,.cls-13,.cls-14,.cls-15,.cls-16,.cls-17,.cls-18,.cls-19,.cls-2,.cls-20,.cls-3,.cls-4,.cls-5,.cls-6,.cls-7,.cls-8,.cls-9{fill:none;stroke-linecap:round;stroke-linejoin:round}.cls-1,.cls-10,.cls-11,.cls-12,.cls-13,.cls-14,.cls-15,.cls-16,.cls-17,.cls-19,.cls-2,.cls-20,.cls-3,.cls-4,.cls-5,.cls-8,.cls-9{stroke-width:.1px}.cls-1,.cls-14,.cls-17,.cls-18,.cls-19,.cls-3,.cls-4,.cls-8{stroke:#194164}.cls-1,.cls-8{stroke-dasharray:0 0 0 0 2.9 1.4 .2 1.4}.cls-2{stroke:#646464}.cls-10,.cls-11,.cls-12,.cls-13,.cls-14,.cls-15,.cls-19,.cls-20,.cls-3,.cls-4,.cls-5,.cls-9{stroke-dasharray:0 0 1.4 1.4}.cls-4{stroke-dashoffset:1px}.cls-21,.cls-22{fill:#fff}.cls-10,.cls-11,.cls-12,.cls-13,.cls-15,.cls-16,.cls-20,.cls-5,.cls-9{stroke:#969696}.cls-6{stroke:#000;stroke-width:.3px}.cls-7{stroke:#9f9f9f;stroke-width:0}.cls-8{stroke-dashoffset:1.9px}.cls-9{stroke-dashoffset:1.1px}.cls-10{stroke-dashoffset:2.7px}.cls-11{stroke-dashoffset:2.5px}.cls-12{stroke-dashoffset:1.4px}.cls-13,.cls-19{stroke-dashoffset:.7px}.cls-22,.cls-23{fill-rule:evenodd}.cls-14{stroke-dashoffset:.2px}.cls-15{stroke-dashoffset:1px}.cls-18{stroke-width:.3px}.cls-20{stroke-dashoffset:1.2px}</style></defs><g id="Plan"><path class="cls-18" d="M220.7 152.2h29.8V192h-29.8z"/><path class="cls-17" d="M219 201h35.5M237.3 197.8h-14M250 195h-13.9"/><path class="cls-22" d="M313.1 46.8h-25.6v-.4h-59.2v.4h-22.5v-4.2l6.3-37.7h101"/><path class="cls-16" d="M209.4 44.7H220M230.8 44.7h10.5M252.4 44.7h10.5M273.7 44.7h10.6M295.3 44.7h10.6M209.4 37.5H220M230.8 37.5h10.5M252.4 37.5h10.5M273.7 37.5h10.6M295.3 37.5h10.6M209.4 30.3H220M230.8 30.3h10.5M252.4 30.3h10.5M273.7 30.3h10.6M295.3 30.3h10.6M209.4 23.1H220M230.8 23.1h10.5M252.4 23.1h10.5M273.7 23.1h10.6M295.3 23.1h10.6M210.4 15.7h9.6M230.8 15.7h10.5M252.4 15.7h10.5M273.7 15.7h10.6M295.3 15.7h10.6M211.6 8.5h8.4M230.8 8.5h10.5M252.4 8.5h10.5M273.7 8.5h10.6M295.3 8.5h10.6M209.4 46.4v-1.7M209.4 39.2v-1.7M209.4 32v-1.7M209.4 24.8v-1.7M230.8 46.4v-1.7M230.8 39.2v-1.7M230.8 32v-1.7M230.8 24.8v-1.7M230.8 17.4v-1.7M230.8 10.2V8.5M252.4 46.4v-1.7M252.4 39.2v-1.7M252.4 32v-1.7M252.4 24.8v-1.7M252.4 17.4v-1.7M252.4 10.2V8.5M273.7 46.4v-1.7M273.7 39.2v-1.7M273.7 32v-1.7M273.7 24.8v-1.7M273.7 17.4v-1.7M273.7 10.2V8.5M295.3 46.4v-1.7M295.3 39.2v-1.7M295.3 32v-1.7M295.3 24.8v-1.7M295.3 17.4v-1.7M295.3 10.2V8.5M206.1 44.7h3.1M220 44.7h10.5M241.3 44.7h10.8M262.9 44.7h10.6M284.3 44.7h10.8M305.9 44.7h7.4M206.8 37.5h2.4M220 37.5h10.5M241.3 37.5h10.8M262.9 37.5h10.6M284.3 37.5h10.8M305.9 37.5h7.4M208 30.3h1.2M220 30.3h10.5M241.3 30.3h10.8M262.9 30.3h10.6M284.3 30.3h10.8M305.9 30.3h7.4M220 23.1h10.5M241.3 23.1h10.8M262.9 23.1h10.6M284.3 23.1h10.8M305.9 23.1h7.4M220 15.7h10.5M241.3 15.7h10.8M262.9 15.7h10.6M284.3 15.7h10.8M305.9 15.7h7.4M220 8.5h10.5M241.3 8.5h10.8M262.9 8.5h10.6M284.3 8.5h10.8M305.9 8.5h7.4M209.2 46.4v-1.7M209.2 39.2v-1.7M209.2 32v-1.7M209.2 24.8v-1.2M230.5 46.4v-1.7M230.5 39.2v-1.7M230.5 32v-1.7M230.5 24.8v-1.7M230.5 17.4v-1.7M230.5 10.2V8.5M252.1 46.4v-1.7M252.1 39.2v-1.7M252.1 32v-1.7M252.1 24.8v-1.7M252.1 17.4v-1.7M252.1 10.2V8.5M273.5 46.4v-1.7M273.5 39.2v-1.7M273.5 32v-1.7M273.5 24.8v-1.7M273.5 17.4v-1.7M273.5 10.2V8.5M295.1 46.4v-1.7M295.1 39.2v-1.7M295.1 32v-1.7M295.1 24.8v-1.7M295.1 17.4v-1.7M295.1 10.2V8.5M209.4 40.9H220M230.8 40.9h10.5M252.4 40.9h10.5M273.7 40.9h10.6M295.3 40.9h10.6M209.4 33.7H220M230.8 33.7h10.5M252.4 33.7h10.5M273.7 33.7h10.6M295.3 33.7h10.6M209.4 26.5H220M230.8 26.5h10.5M252.4 26.5h10.5M273.7 26.5h10.6M295.3 26.5h10.6M209.9 19.3H220M230.8 19.3h10.5M252.4 19.3h10.5M273.7 19.3h10.6M295.3 19.3h10.6M211.1 11.8h8.9M230.8 11.8h10.5M252.4 11.8h10.5M273.7 11.8h10.6M295.3 11.8h10.6M209.4 46.9v-.5M209.4 40.9v-1.7M209.4 33.7V32M209.4 26.5v-1.7M230.8 40.9v-1.7M230.8 33.7V32M230.8 26.5v-1.7M230.8 19.3v-1.9M230.8 11.8v-1.6M252.4 40.9v-1.7M252.4 33.7V32M252.4 26.5v-1.7M252.4 19.3v-1.9M252.4 11.8v-1.6M273.7 40.9v-1.7M273.7 33.7V32M273.7 26.5v-1.7M273.7 19.3v-1.9M273.7 11.8v-1.6M295.3 46.9v-.5M295.3 40.9v-1.7M295.3 33.7V32M295.3 26.5v-1.7M295.3 19.3v-1.9M295.3 11.8v-1.6M209.2 46.9v-.5M209.2 40.9v-1.7M209.2 33.7V32M209.2 26.5v-1.7M230.5 40.9v-1.7M230.5 33.7V32M230.5 26.5v-1.7M230.5 19.3v-1.9M230.5 11.8v-1.6M252.1 40.9v-1.7M252.1 33.7V32M252.1 26.5v-1.7M252.1 19.3v-1.9M252.1 11.8v-1.6M273.5 40.9v-1.7M273.5 33.7V32M273.5 26.5v-1.7M273.5 19.3v-1.9M273.5 11.8v-1.6M295.1 46.9v-.5M295.1 40.9v-1.7M295.1 33.7V32M295.1 26.5v-1.7M295.1 19.3v-1.9M295.1 11.8v-1.6M206.3 40.9h2.9M220 40.9h10.5M241.3 40.9h10.8M262.9 40.9h10.6M284.3 40.9h10.8M305.9 40.9h7.4M207.5 33.7h1.7M220 33.7h10.5M241.3 33.7h10.8M262.9 33.7h10.6M284.3 33.7h10.8M305.9 33.7h7.4M208.7 26.5h.5M220 26.5h10.5M241.3 26.5h10.8M262.9 26.5h10.6M284.3 26.5h10.8M305.9 26.5h7.4M220 19.3h10.5M241.3 19.3h10.8M262.9 19.3h10.6M284.3 19.3h10.8M305.9 19.3h7.4M220 11.8h10.5M241.3 11.8h10.8M262.9 11.8h10.6M284.3 11.8h10.8M305.9 11.8h7.4M206.1 41.1h13.6M220 41.1h21.3M241.6 41.1h21.1M262.9 41.1h21.4M284.5 41.1h21.2M305.9 41.1h7.4M207.3 33.9h12.4M220 33.9h21.3M241.6 33.9h21.1M262.9 33.9h21.4M284.5 33.9h21.2M305.9 33.9h7.4M208.5 26.7h11.2M220 26.7h21.3M241.6 26.7h21.1M262.9 26.7h21.4M284.5 26.7h21.2M305.9 26.7h7.4M209.7 19.3h10M220 19.3h21.3M241.6 19.3h21.1M262.9 19.3h21.4M284.5 19.3h21.2M305.9 19.3h7.4M210.9 12.1h8.8M220 12.1h21.3M241.6 12.1h21.1M262.9 12.1h21.4M284.5 12.1h21.2M305.9 12.1h7.4M219.7 44.5v-3.4M219.7 37.3v-3.4M219.7 30.1v-3.4M219.7 22.9v-3.6M219.7 15.4v-3.3M219.7 8.2V4.9M241.3 44.5v-3.4M241.3 37.3v-3.4M241.3 30.1v-3.4M241.3 22.9v-3.6M241.3 15.4v-3.3M241.3 8.2V4.9M262.7 44.5v-3.4M262.7 37.3v-3.4M262.7 30.1v-3.4M262.7 22.9v-3.6M262.7 15.4v-3.3M262.7 8.2V4.9M284.3 44.5v-3.4M284.3 37.3v-3.4M284.3 30.1v-3.4M284.3 22.9v-3.6M284.3 15.4v-3.3M284.3 8.2V4.9M305.7 44.5v-3.4M305.7 37.3v-3.4M305.7 30.1v-3.4M305.7 22.9v-3.6M305.7 15.4v-3.3M305.7 8.2V4.9M206.1 44.5h13.6M220 44.5h21.3M241.6 44.5h21.1M262.9 44.5h21.4M284.5 44.5h21.2M305.9 44.5h7.4M206.8 37.3h12.9M220 37.3h21.3M241.6 37.3h21.1M262.9 37.3h21.4M284.5 37.3h21.2M305.9 37.3h7.4M208 30.1h11.7M220 30.1h21.3M241.6 30.1h21.1M262.9 30.1h21.4M284.5 30.1h21.2M305.9 30.1h7.4M209.2 22.9h10.5M220 22.9h21.3M241.6 22.9h21.1M262.9 22.9h21.4M284.5 22.9h21.2M305.9 22.9h7.4M210.4 15.4h9.3M220 15.4h21.3M241.6 15.4h21.1M262.9 15.4h21.4M284.5 15.4h21.2M305.9 15.4h7.4M211.6 8.2h8.1M220 8.2h21.3M241.6 8.2h21.1M262.9 8.2h21.4M284.5 8.2h21.2M305.9 8.2h7.4"/><path class="cls-7" d="M220 44.5v-3.4M220 37.3v-3.4M220 30.1v-3.4M220 22.9v-3.6M220 15.4v-3.3M220 8.2V4.9M241.6 44.5v-3.4M241.6 37.3v-3.4M241.6 30.1v-3.4M241.6 22.9v-3.6M241.6 15.4v-3.3M241.6 8.2V4.9M262.9 44.5v-3.4M262.9 37.3v-3.4M262.9 30.1v-3.4M262.9 22.9v-3.6M262.9 15.4v-3.3M262.9 8.2V4.9M284.5 44.5v-3.4M284.5 37.3v-3.4M284.5 30.1v-3.4M284.5 22.9v-3.6M284.5 15.4v-3.3M284.5 8.2V4.9M305.9 44.5v-3.4M305.9 37.3v-3.4M305.9 30.1v-3.4M305.9 22.9v-3.6M305.9 15.4v-3.3M305.9 8.2V4.9"/><path class="cls-16" d="M313.1 46.8h-25.6v-.4h-59.2v.4h-22.5v-4.2l6.3-37.7h101M125.2 375.4h59.3v3.4h-59.3z"/><path class="cls-17" d="M158.3 253.3h14.2M158.3 252.6h14.2M172.5 253.3v-.7M158.3 252.6h14.2M158.3 253.3h14.2M158.3 253.3v-.7"/><path class="cls-22" d="M120.5 205.9c.9-1.3.9-3 0-4.3-1.5-1.9-3.8-2.9-6.2-2.9l-9 .3v9.6l9 .3c2.4 0 4.7-1 6.2-2.9"/><path class="cls-17" d="M120.5 205.9c.9-1.3.9-3 0-4.3-1.5-1.9-3.8-2.9-6.2-2.9l-9 .3v9.6l9 .3c2.4 0 4.7-1 6.2-2.9"/><path class="cls-22" d="M110.4 203.7c0 1 .3 2 1.1 2.8.7.7 1.7 1.2 2.7 1.2 2.1 0 4.1-.9 5.4-2.5.6-.9.6-2 0-2.9-1.3-1.6-3.3-2.5-5.4-2.5-1 0-2 .4-2.7 1.2-.7.7-1.1 1.7-1.1 2.8"/><path class="cls-17" d="M110.4 203.7c0 1 .3 2 1.1 2.8.7.7 1.7 1.2 2.7 1.2 2.1 0 4.1-.9 5.4-2.5.6-.9.6-2 0-2.9-1.3-1.6-3.3-2.5-5.4-2.5-1 0-2 .4-2.7 1.2-.7.7-1.1 1.7-1.1 2.8"/><path class="cls-22" d="M105.7 255h48.2v-.1l.1-.1V234l-.1-.1v-.1h-48.4l-.1.1-.1.1v20.8l.1.1.1.1h.2"/><path class="cls-17" d="M105.7 255h48.2v-.1l.1-.1V234l-.1-.1v-.1h-48.4l-.1.1-.1.1v20.8l.1.1.1.1h.2"/><path class="cls-22" d="M110.9 252.9h37.4c.4 0 .9 0 1.3-.3.4-.2.8-.4 1.1-.7.3-.3.6-.7.7-1.1.2-.4.3-.9.3-1.3v-10.2c0-.4 0-.9-.3-1.3-.2-.4-.4-.8-.7-1.1-.3-.3-.7-.6-1.1-.7-.4-.2-.9-.3-1.3-.3h-37.4c-.4 0-.9 0-1.3.3-.4.2-.8.4-1.1.7-.3.3-.6.7-.7 1.1-.2.4-.3.9-.3 1.3v10.2c0 .4 0 .9.3 1.3.2.4.4.8.7 1.1.3.3.7.6 1.1.7.4.2.9.3 1.3.3"/><path class="cls-17" d="M110.9 252.9h37.4c.4 0 .9 0 1.3-.3.4-.2.8-.4 1.1-.7.3-.3.6-.7.7-1.1.2-.4.3-.9.3-1.3v-10.2c0-.4 0-.9-.3-1.3-.2-.4-.4-.8-.7-1.1-.3-.3-.7-.6-1.1-.7-.4-.2-.9-.3-1.3-.3h-37.4c-.4 0-.9 0-1.3.3-.4.2-.8.4-1.1.7-.3.3-.6.7-.7 1.1-.2.4-.3.9-.3 1.3v10.2c0 .4 0 .9.3 1.3.2.4.4.8.7 1.1.3.3.7.6 1.1.7.4.2.9.3 1.3.3M104.5 190.6v20.9"/><path class="cls-6" d="M105.3 190.6v21.6"/><path class="cls-17" d="M103.1 190.6v19.5M104.5 190.6v20.9M105.3 190.6v21.6M103.1 190.6v19.5M100.7 211.5V230"/><path class="cls-6" d="M101.4 212.2v17.1"/><path class="cls-17" d="M99.3 210.1v21.3M100.7 211.5V230M101.4 212.2v17.1M99.3 210.1v21.3M104.5 230v25.2"/><path class="cls-6" d="M105.3 229.3v25.9"/><path class="cls-17" d="M103.1 231.4v23.8M104.5 230v25.2M105.3 229.3v25.9M103.1 231.4v23.8"/><path class="cls-22" d="M105.3 228.5h12.4c.1 0 .3-.1.4-.2.1-.1.2-.2.2-.4V214.2v-.4c0-.1-.1-.3-.2-.4-.1-.1-.2-.2-.4-.2h-12.4v15.6"/><path class="cls-17" d="M105.3 228.5h12.4c.1 0 .3-.1.4-.2.1-.1.2-.2.2-.4V214.2v-.4c0-.1-.1-.3-.2-.4-.1-.1-.2-.2-.4-.2h-12.4v15.6"/><path class="cls-14" d="M105.3 212.2h-3.9"/><path class="cls-4" d="M101.4 212.2v17.1"/><path class="cls-14" d="M101.4 229.3h3.9"/><path class="cls-17" d="M100.7 230h3.8"/><path class="cls-6" d="M101.4 229.3h3.9"/><path class="cls-17" d="M99.3 231.4h3.8M100.7 230h3.8M101.4 229.3h3.9M99.3 231.4h3.8M104.5 211.5h-3.8"/><path class="cls-6" d="M105.3 212.2h-3.9"/><path class="cls-17" d="M103.1 210.1h-3.8M104.5 211.5h-3.8M105.3 212.2h-3.9M103.1 210.1h-3.8"/><path class="cls-6" d="M105.3 212.2v17.1"/><path class="cls-17" d="M97.8 151.8V90.1h17.3v44.1h35.3v17.6H97.8zM112.9 90.6h2.2M112.9 99.2h2.2M112.9 116.2h2.2M112.9 133h2.2"/><path class="cls-22" d="M132.4 146.6v-8.9c0-.3 0-.5-.2-.8 0-.2-.2-.5-.4-.6-.2-.2-.4-.3-.6-.4-.2 0-.5-.2-.8-.2h-11.2c-.3 0-.5 0-.8.2-.2 0-.5.2-.6.4-.2.2-.3.4-.4.6 0 .2-.1.5-.1.8v9.3c0 .1 0 .3.1.4 0 .1.1.2.2.3 0 .1.2.2.2.3 0 0 .2.2.3.2.1 0 .2.1.3.2.1 0 .2 0 .4.1h12c.1 0 .3 0 .4-.1.1 0 .2-.1.3-.2.1 0 .2-.2.3-.2 0 0 .2-.2.2-.3 0-.1.1-.2.2-.3 0-.1 0-.2.1-.4v-.4"/><path class="cls-17" d="M132.4 146.6v-8.9c0-.3 0-.5-.2-.8 0-.2-.2-.5-.4-.6-.2-.2-.4-.3-.6-.4-.2 0-.5-.2-.8-.2h-11.2c-.3 0-.5 0-.8.2-.2 0-.5.2-.6.4-.2.2-.3.4-.4.6 0 .2-.1.5-.1.8v9.3c0 .1 0 .3.1.4 0 .1.1.2.2.3 0 .1.2.2.2.3 0 0 .2.2.3.2.1 0 .2.1.3.2.1 0 .2 0 .4.1h12c.1 0 .3 0 .4-.1.1 0 .2-.1.3-.2.1 0 .2-.2.3-.2 0 0 .2-.2.2-.3 0-.1.1-.2.2-.3 0-.1 0-.2.1-.4v-.4"/><path class="cls-22" d="M125.9 145.3c0-.7-.5-1.2-1.1-1.2s-1.1.5-1.1 1.2.5 1.2 1.1 1.2 1.1-.5 1.1-1.2"/><path class="cls-17" d="M125.9 145.3c0-.7-.5-1.2-1.1-1.2s-1.1.5-1.1 1.2.5 1.2 1.1 1.2 1.1-.5 1.1-1.2"/><path class="cls-21" d="M99.3 99.7h14.6v15.8H99.3z"/><path class="cls-17" d="M99.3 99.7h14.6v15.8H99.3z"/><path class="cls-22" d="M112 103.6c0-1.5-1.3-2.8-2.9-2.8s-2.9 1.2-2.9 2.8 1.3 2.8 2.9 2.8 2.9-1.2 2.9-2.8"/><path class="cls-17" d="M112 103.6c0-1.5-1.3-2.8-2.9-2.8s-2.9 1.2-2.9 2.8 1.3 2.8 2.9 2.8 2.9-1.2 2.9-2.8"/><path class="cls-22" d="M104.5 102.6c0-1.2-1-2.2-2.3-2.2s-2.3 1-2.3 2.2 1 2.2 2.3 2.2 2.3-1 2.3-2.2"/><path class="cls-17" d="M104.5 102.6c0-1.2-1-2.2-2.3-2.2s-2.3 1-2.3 2.2 1 2.2 2.3 2.2 2.3-1 2.3-2.2"/><path class="cls-22" d="M111.3 111.2c0-1.2-1-2.2-2.2-2.2s-2.2 1-2.2 2.2 1 2.2 2.2 2.2 2.2-1 2.2-2.2"/><path class="cls-17" d="M111.3 111.2c0-1.2-1-2.2-2.2-2.2s-2.2 1-2.2 2.2 1 2.2 2.2 2.2 2.2-1 2.2-2.2"/><path class="cls-22" d="M105.5 111c0-1.6-1.3-2.9-2.9-2.9s-2.9 1.3-2.9 2.9 1.3 2.9 2.9 2.9 2.9-1.3 2.9-2.9"/><path class="cls-17" d="M105.5 111c0-1.6-1.3-2.9-2.9-2.9s-2.9 1.3-2.9 2.9 1.3 2.9 2.9 2.9 2.9-1.3 2.9-2.9"/><path class="cls-1" d="M107.9 151.8V90.1"/><path class="cls-17" d="M150.9 134.2h17v.7h-17zM150.9 135h.7v15.1h-.7zM167.4 135h.5v15.1h-.5zM150.9 150.1h17v.7h-17zM167.9 134.2h3.4v.7h-3.4zM150.4 134.2h.5v17.5h-.5zM116.3 136.6v-2.4M133.3 136.6v-2.4M150.4 136.6v-2.4M35.7 198.6H93"/><path class="cls-6" d="M34.9 199.3H93"/><path class="cls-17" d="M37.1 197.1H93M35.7 198.6H93"/><path class="cls-6" d="M93 198.6v.7"/><path class="cls-17" d="M93 197.1v1.5M34.9 199.3H93M37.1 197.1H93"/><path class="cls-22" d="M65.2 214.6c-1.3.9-3 .9-4.3 0-1.9-1.5-2.9-3.8-2.9-6.2l.3-9h9.6l.3 9c0 2.4-1 4.7-2.9 6.2"/><path class="cls-17" d="M65.2 214.6c-1.3.9-3 .9-4.3 0-1.9-1.5-2.9-3.8-2.9-6.2l.3-9h9.6l.3 9c0 2.4-1 4.7-2.9 6.2"/><path class="cls-22" d="M63 204.4c1 0 2 .3 2.8 1.1.7.7 1.2 1.7 1.2 2.7 0 2.1-.9 4.1-2.5 5.4-.9.6-2 .6-2.9 0-1.6-1.3-2.5-3.3-2.5-5.4 0-1 .4-2 1.2-2.7.7-.7 1.7-1.1 2.8-1.1"/><path class="cls-17" d="M63 204.4c1 0 2 .3 2.8 1.1.7.7 1.2 1.7 1.2 2.7 0 2.1-.9 4.1-2.5 5.4-.9.6-2 .6-2.9 0-1.6-1.3-2.5-3.3-2.5-5.4 0-1 .4-2 1.2-2.7.7-.7 1.7-1.1 2.8-1.1"/><path class="cls-22" d="M70.2 199.3v41.5h22.6v-41.5H70.2"/><path class="cls-17" d="M70.2 199.3h22.6v41.5H70.2zM92.8 201.2H70.2M35.7 189.9v8.7"/><path class="cls-6" d="M34.9 189.9v9.4"/><path class="cls-17" d="M37.1 189.9v7.2M35.7 189.9v8.7M34.9 189.9v9.4M37.1 189.9v7.2"/><path class="cls-22" d="M38.3 199.3v12.4c0 .1.1.3.2.4.1.1.2.2.4.2H53c.1 0 .3-.1.4-.2.1-.1.2-.2.2-.4v-12.4H38"/><path class="cls-17" d="M38.3 199.3v12.4c0 .1.1.3.2.4.1.1.2.2.4.2H53c.1 0 .3-.1.4-.2.1-.1.2-.2.2-.4v-12.4H38M114.4 156.3v29.5"/><path class="cls-6" d="M115.1 156.3v29.5"/><path class="cls-17" d="M113.2 156.3v29.5M114.4 156.3v29.5M115.1 156.3v29.5M113.2 156.3v29.5"/><path class="cls-6" d="M115.1 156.3h-.7"/><path class="cls-17" d="M114.4 156.3h-1.2"/><path class="cls-6" d="M115.1 185.8h-.7"/><path class="cls-17" d="M114.4 185.8h-1.2"/><path class="cls-22" d="M210.9 250.4l4.8-4.8h-4.8v4.8"/><path class="cls-16" d="M214.9 246.6l-.9-1M212.8 248.5l-1.7-1.7M211.1 246.6l1-1"/><path class="cls-22" d="M210.9 250.4l4.8-4.8h-4.8v4.8"/><path class="cls-16" d="M214.9 246.6l-.9-1M212.8 248.5l-1.7-1.7M211.1 246.6l1-1"/><path class="cls-18" d="M210.9 245.6v4.8M210.9 245.6v4.8"/><path class="cls-22" d="M218.1 213.4v-68.6l-7.2-9.8v78.4h7.2"/><path class="cls-16" d="M218.3 145.8l-7.2-7.2M218.3 149.6l-7.2-7.2M218.3 153.7l-7.2-7.2M218.3 157.8l-7.2-7.2M218.3 161.6l-7.2-7.2M218.3 165.7l-7.2-7.2M218.3 169.8l-7.2-7.2M218.3 173.6l-7.2-7.2M218.3 177.7l-7.2-7.2M218.3 181.8l-7.2-7.2M218.3 185.8l-7.2-7.2M218.3 189.7l-7.2-7.2M218.3 193.8l-7.2-7.2M218.3 197.8l-7.2-7.2M218.3 201.7l-7.2-7.2M218.3 205.8l-7.2-7.2M218.3 209.8l-7.2-7.2M217.8 213.4l-6.7-6.9M213.7 213.4l-2.6-2.8M216.1 213.4l2.2-2.1M212.1 213.4l6.2-6.2M211.1 210.6l7.2-7.2M211.1 206.5l7.2-7.2M211.1 202.4l7.2-7.2M211.1 198.6l7.2-7.2M211.1 194.5l7.2-7.2M211.1 190.4l7.2-7.2M211.1 186.6l7.2-7.2M211.1 182.5l7.2-7.2M211.1 178.4l7.2-7.2M211.1 174.3l7.2-7.2M211.1 170.5l7.2-7.2M211.1 166.4l7.2-7.2M211.1 162.3l7.2-7.2M211.1 158.5l7.2-7.2M211.1 154.4l7.2-7.2M211.1 150.3l6.5-6.5M211.1 146.2l4.8-4.8M211.1 142.4l3.1-3.1M211.1 138.3l1.2-1.4"/><path class="cls-22" d="M218.1 213.4v-68.6l-7.2-9.8v78.4h7.2"/><path class="cls-16" d="M218.3 145.8l-7.2-7.2M218.3 149.6l-7.2-7.2M218.3 153.7l-7.2-7.2M218.3 157.8l-7.2-7.2M218.3 161.6l-7.2-7.2M218.3 165.7l-7.2-7.2M218.3 169.8l-7.2-7.2M218.3 173.6l-7.2-7.2M218.3 177.7l-7.2-7.2M218.3 181.8l-7.2-7.2M218.3 185.8l-7.2-7.2M218.3 189.7l-7.2-7.2M218.3 193.8l-7.2-7.2M218.3 197.8l-7.2-7.2M218.3 201.7l-7.2-7.2M218.3 205.8l-7.2-7.2M218.3 209.8l-7.2-7.2M217.8 213.4l-6.7-6.9M213.7 213.4l-2.6-2.8M216.1 213.4l2.2-2.1M212.1 213.4l6.2-6.2M211.1 210.6l7.2-7.2M211.1 206.5l7.2-7.2M211.1 202.4l7.2-7.2M211.1 198.6l7.2-7.2M211.1 194.5l7.2-7.2M211.1 190.4l7.2-7.2M211.1 186.6l7.2-7.2M211.1 182.5l7.2-7.2M211.1 178.4l7.2-7.2M211.1 174.3l7.2-7.2M211.1 170.5l7.2-7.2M211.1 166.4l7.2-7.2M211.1 162.3l7.2-7.2M211.1 158.5l7.2-7.2M211.1 154.4l7.2-7.2M211.1 150.3l6.5-6.5M211.1 146.2l4.8-4.8M211.1 142.4l3.1-3.1M211.1 138.3l1.2-1.4"/><path class="cls-18" d="M210.9 135v78.4M218.1 209.6v3.8M218.1 144.8v54.7M218.1 209.6v3.8M210.9 135v78.4M218.1 144.8v54.7"/><path class="cls-17" d="M210.4 213.4h1.7v2.4h-1.7zM210.4 243.2h1.7v2.4h-1.7z"/><path class="cls-17" d="M210.4 215.8h1.7v27.4h-1.7zM212.1 215.8v27.4"/><path class="cls-1" d="M218.1 215.6v27.8"/><path class="cls-17" d="M218.1 243v.4"/><path class="cls-22" d="M218.1 213.4v2.2h-6v-2.2"/><path class="cls-16" d="M218.3 213.7l-.5-.3M215.9 215.6l-2.2-2.2M217.8 215.6l.5-.2M214 215.6l2.1-2.2"/><path class="cls-22" d="M218.1 245.6v-2.2h-6v2.2"/><path class="cls-16" d="M217.8 245.6l-2.1-2.2M214 245.6l-1.7-1.7M215.9 245.6l2.2-2.2M212.3 245.4l1.9-2"/><path class="cls-18" d="M218.1 215.6h-6M218.1 243.4h-6M218.1 215.6h-6M218.1 213.4v2.2M218.1 243.4h-6M218.1 245.6v-2.2M210.9 213.4h1.2M210.9 245.6h1.2M218.1 213.4v2.2M218.1 245.6v-2.2M212.1 215.6v-2.2M212.1 243.4v2.2"/><path class="cls-16" d="M210.3 215.9c-14.9 0-27.2 12.3-27.2 27.2M210.4 243.2H183"/><path class="cls-22" d="M408.1 213.4h-6.9v-71.5l6.9-6.9v78.4"/><path class="cls-16" d="M408.4 135.2h-.3M408.4 139.3l-2.4-2.2M408.4 143.4l-4.3-4.4M408.4 147.2l-6.3-6M408.4 151.3l-7-7M408.4 155.4l-7-7M408.4 159.4l-7-6.9M408.4 163.3l-7-7M408.4 167.4l-7-7M408.4 171.4l-7-6.9M408.4 175.3l-7-7M408.4 179.4l-7-7M408.4 183.4l-7-6.9M408.4 187.5l-7-6.9M408.4 191.4l-7-7M408.4 195.4l-7-6.9M408.4 199.5l-7-6.9M408.4 203.4l-7-7M408.4 207.4l-7-6.9M408.4 211.5l-7-6.9M406.2 213.4l-4.8-5M402.1 213.4l-.7-.9M404.5 213.4l3.9-3.8M401.4 212.7l7-6.9M401.4 208.6l7-6.9M401.4 204.6l7-7M401.4 200.5l7-7M401.4 196.6l7-6.9M401.4 192.6l7-7M401.4 188.5l7-7M401.4 184.6l7-6.9M401.4 180.6l7-7M401.4 176.5l7-7M401.4 172.4l7-7M401.4 168.6l7-7M401.4 164.5l7-7M401.4 160.4l7-7M401.4 156.6l7-7M401.4 152.5l7-7M401.4 148.4l7-7M401.4 144.6l7-7"/><path class="cls-22" d="M401.2 213.4h6.9V135l-6.9 6.9v71.5"/><path class="cls-16" d="M408.4 135.2h-.3M408.4 139.3l-2.4-2.2M408.4 143.4l-4.3-4.4M408.4 147.2l-6.3-6M408.4 151.3l-7-7M408.4 155.4l-7-7M408.4 159.4l-7-6.9M408.4 163.3l-7-7M408.4 167.4l-7-7M408.4 171.4l-7-6.9M408.4 175.3l-7-7M408.4 179.4l-7-7M408.4 183.4l-7-6.9M408.4 187.5l-7-6.9M408.4 191.4l-7-7M408.4 195.4l-7-6.9M408.4 199.5l-7-6.9M408.4 203.4l-7-7M408.4 207.4l-7-6.9M408.4 211.5l-7-6.9M406.2 213.4l-4.8-5M402.1 213.4l-.7-.9M404.5 213.4l3.9-3.8M401.4 212.7l7-6.9M401.4 208.6l7-6.9M401.4 204.6l7-7M401.4 200.5l7-7M401.4 196.6l7-6.9M401.4 192.6l7-7M401.4 188.5l7-7M401.4 184.6l7-6.9M401.4 180.6l7-7M401.4 176.5l7-7M401.4 172.4l7-7M401.4 168.6l7-7M401.4 164.5l7-7M401.4 160.4l7-7M401.4 156.6l7-7M401.4 152.5l7-7M401.4 148.4l7-7M401.4 144.6l7-7"/><path class="cls-18" d="M408.1 213.4V135M401.2 213.4v-71.5M401.2 213.4v-71.5M408.1 213.4V135"/><path class="cls-22" d="M408.1 245.6h-4.8l4.8 4.8v-4.8"/><path class="cls-16" d="M408.4 247.5l-2.2-1.9M407.9 250.2l.5-.5M406 248l2.4-2.2M403.8 246.1l.5-.5"/><path class="cls-22" d="M408.1 245.6h-4.8l4.8 4.8v-4.8"/><path class="cls-16" d="M408.4 247.5l-2.2-1.9M407.9 250.2l.5-.5M406 248l2.4-2.2M403.8 246.1l.5-.5"/><path class="cls-18" d="M408.1 250.4v-4.8M408.1 250.4v-4.8"/><path class="cls-17" d="M406.9 243.2h1.7v2.4h-1.7zM406.9 213.4h1.7v2.4h-1.7z"/><path class="cls-17" d="M406.9 215.8h1.7v27.4h-1.7zM406.9 243.2v-27.4"/><path class="cls-1" d="M401.2 243.4v-27.8"/><path class="cls-17" d="M401.2 216.1v-.5"/><path class="cls-22" d="M401.2 245.6v-2.2h5.7v2.2"/><path class="cls-16" d="M406.2 245.6l-2.1-2.2M402.4 245.6l-1-1M404.3 245.6l2.2-2.2M401.4 244.6l1.2-1.2"/><path class="cls-22" d="M401.2 213.4v2.2h5.7v-2.2"/><path class="cls-16" d="M407.2 214.2l-1-.8M404.3 215.6l-2.2-2.2M406.2 215.6l1-.7M402.4 215.6l2.1-2.2"/><path class="cls-18" d="M401.2 243.4h5.7M401.2 215.6h5.7M401.2 243.4h5.7M401.2 245.6v-2.2M401.2 215.6h5.7M401.2 213.4v2.2M408.1 245.6h-1.2M408.1 213.4h-1.2M401.2 245.6v-2.2M401.2 213.4v2.2M406.9 243.4v2.2M406.9 215.6v-2.2"/><path class="cls-23" d="M289.3 57.2V42.6h23.8v14.6h-23.8"/><path class="cls-22" d="M289.3 42.6v3.3h23.8v-3.3h-23.8"/><path class="cls-16" d="M289.6 44.5l1.2 1.4M291.5 42.6l3.4 3.3M295.6 42.6l3.3 3.3M299.4 42.6l3.4 3.3M303.5 42.6l3.4 3.3M307.6 42.6l3.3 3.3M311.4 42.6l1.9 1.6"/><path class="cls-22" d="M289.3 45.9v.7h23.8v-.7h-23.8M289.3 46.6v5.6h23.8v-5.6h-23.8"/><path class="cls-16" d="M311.9 52.2v-5.6M310.5 52.2v-5.6M309 52.2v-5.6M307.6 52.2v-5.6M306.1 52.2v-5.6M304.7 52.2v-5.6M303.5 52.2v-5.6M302.1 52.2v-5.6M300.6 52.2v-5.6M299.2 52.2v-5.6M297.7 52.2v-5.6M296.3 52.2v-5.6M294.9 52.2v-5.6M293.4 52.2v-5.6M292 52.2v-5.6M290.5 52.2v-5.6"/><path class="cls-22" d="M289.3 52.2v5h23.8v-5h-23.8"/><path class="cls-16" d="M289.6 56.5l.5.7M289.6 52.6l4.5 4.6M293.2 52.2l5 5M297 52.2l5.1 5M301.1 52.2l5 5M305.2 52.2l5 5M309 52.2l4.3 4M313.1 52.2h.2"/><path class="cls-18" d="M289.3 45.9h23.8M289.3 42.6h23.8"/><path class="cls-16" d="M289.3 52.2h23.8M289.3 46.6h23.8"/><path class="cls-18" d="M289.3 57.2h23.8M289.3 52.2h23.8"/><path class="cls-17" d="M289.3 42.6h23.8M289.3 57.2h23.8"/><path class="cls-23" d="M186.1 57.2V42.6h40.4v14.6h-40.4"/><path class="cls-22" d="M186.1 42.6v3.3h40.4v-3.3h-40.4"/><path class="cls-16" d="M186.4 45.7l.2.2M187.3 42.6l3.4 3.3M191.2 42.6l3.3 3.3M195.3 42.6l3.3 3.3M199.3 42.6l3.4 3.3M203.2 42.6l3.3 3.3M207.3 42.6l3.3 3.3M211.3 42.6l3.4 3.3M215.4 42.6l3.4 3.3M219.3 42.6l3.3 3.3M223.3 42.6l3.4 3.3"/><path class="cls-22" d="M186.1 45.9v.7h40.4v-.7h-40.4M186.1 46.6v5.6h40.4v-5.6h-40.4"/><path class="cls-16" d="M225.5 52.2v-5.6M224.1 52.2v-5.6M222.6 52.2v-5.6M221.2 52.2v-5.6M219.7 52.2v-5.6M218.3 52.2v-5.6M216.9 52.2v-5.6M215.4 52.2v-5.6M214 52.2v-5.6M212.8 52.2v-5.6M211.3 52.2v-5.6M209.9 52.2v-5.6M208.5 52.2v-5.6M207 52.2v-5.6M205.6 52.2v-5.6M204.1 52.2v-5.6M202.7 52.2v-5.6M201.3 52.2v-5.6M199.8 52.2v-5.6M198.4 52.2v-5.6M197.2 52.2v-5.6M195.7 52.2v-5.6M194.3 52.2v-5.6M192.9 52.2v-5.6M191.4 52.2v-5.6M190 52.2v-5.6M188.5 52.2v-5.6M187.1 52.2v-5.6"/><path class="cls-22" d="M186.1 52.2v5h40.4v-5h-40.4"/><path class="cls-16" d="M186.4 53.6l3.6 3.6M188.8 52.2l5 5M192.9 52.2l5 5M196.9 52.2l5.1 5M200.8 52.2l5 5M204.9 52.2l5 5M208.9 52.2l5.1 5M212.8 52.2l5 5M216.9 52.2l5 5M220.9 52.2l5.1 5M225 52.2l1.7 1.6"/><path class="cls-18" d="M186.1 45.9h40.4M186.1 42.6h40.4"/><path class="cls-16" d="M186.1 52.2h40.4M186.1 46.6h40.4"/><path class="cls-18" d="M186.1 57.2h40.4M186.1 52.2h40.4"/><path class="cls-17" d="M186.1 42.6h40.4M186.1 57.2h40.4"/><path class="cls-23" d="M71.9 57.2V42.6h51.4v14.6H71.9"/><path class="cls-22" d="M71.9 42.6v3.3h51.4v-3.3H71.9"/><path class="cls-16" d="M72.1 43.5l2.2 2.4M75 42.6l3.4 3.3M79.1 42.6l3.4 3.3M82.9 42.6l3.4 3.3M87 42.6l3.4 3.3M91.1 42.6l3.4 3.3M94.9 42.6l3.4 3.3M99 42.6l3.4 3.3M103.1 42.6l3.4 3.3M107.2 42.6l3.3 3.3M111 42.6l3.4 3.3M115.1 42.6l3.4 3.3M119.2 42.6l3.3 3.3M123 42.6l.5.2"/><path class="cls-22" d="M71.9 45.9v.7h51.4v-.7H71.9M71.9 46.6v5.6h51.4v-5.6H71.9"/><path class="cls-16" d="M122.1 52.2v-5.6M120.6 52.2v-5.6M119.2 52.2v-5.6M117.7 52.2v-5.6M116.3 52.2v-5.6M114.9 52.2v-5.6M113.4 52.2v-5.6M112 52.2v-5.6M110.5 52.2v-5.6M109.1 52.2v-5.6M107.9 52.2v-5.6M106.5 52.2v-5.6M105 52.2v-5.6M103.6 52.2v-5.6M102.1 52.2v-5.6M100.7 52.2v-5.6M99.3 52.2v-5.6M97.8 52.2v-5.6M96.4 52.2v-5.6M94.9 52.2v-5.6M93.5 52.2v-5.6M92.3 52.2v-5.6M90.9 52.2v-5.6M89.4 52.2v-5.6M88 52.2v-5.6M86.5 52.2v-5.6M85.1 52.2v-5.6M83.7 52.2v-5.6M82.2 52.2v-5.6M80.8 52.2v-5.6M79.3 52.2v-5.6M78.1 52.2v-5.6M76.7 52.2v-5.6M75.3 52.2v-5.6M73.8 52.2v-5.6M72.4 52.2v-5.6"/><path class="cls-22" d="M71.9 52.2v5h51.4v-5H71.9"/><path class="cls-16" d="M72.1 55.5l1.5 1.7M72.6 52.2l5.1 5M76.7 52.2l5 5M80.5 52.2l5.1 5M84.6 52.2l5.1 5M88.7 52.2l5 5M92.5 52.2l5.1 5M96.6 52.2l5.1 5M100.7 52.2l5 5M104.5 52.2l5.1 5M108.6 52.2l5.1 5M112.7 52.2l5 5M116.8 52.2l5 5M120.6 52.2l2.9 2.6"/><path class="cls-18" d="M71.9 45.9h51.4M71.9 42.6h51.4"/><path class="cls-16" d="M71.9 52.2h51.4M71.9 46.6h51.4"/><path class="cls-18" d="M71.9 57.2h51.4M71.9 52.2h51.4"/><path class="cls-17" d="M71.9 42.6h51.4M71.9 57.2h51.4"/><path class="cls-23" d="M.1 57.2V42.6h31v14.6H.1"/><path class="cls-22" d="M.1 42.6v3.3h31v-3.3H.1"/><path class="cls-16" d="M.4 44l1.9 1.9M2.8 42.6l3.3 3.3M6.9 42.6l3.3 3.3M10.9 42.6l3.4 3.3M14.8 42.6l3.3 3.3M18.9 42.6l3.3 3.3M22.9 42.6l3.4 3.3M27 42.6l3.4 3.3M30.9 42.6l.4.2"/><path class="cls-22" d="M.1 45.9v.7h31v-.7H.1M.1 46.6v5.6h31v-5.6H.1"/><path class="cls-16" d="M29.9 52.2v-5.6M28.5 52.2v-5.6M27 52.2v-5.6M25.6 52.2v-5.6M24.1 52.2v-5.6M22.7 52.2v-5.6M21.3 52.2v-5.6M19.8 52.2v-5.6M18.4 52.2v-5.6M17.2 52.2v-5.6M15.7 52.2v-5.6M14.3 52.2v-5.6M12.9 52.2v-5.6M11.4 52.2v-5.6M10 52.2v-5.6M8.5 52.2v-5.6M7.1 52.2v-5.6M5.7 52.2v-5.6M4.2 52.2v-5.6M3 52.2v-5.6M1.6 52.2v-5.6"/><path class="cls-22" d="M.1 52.2v5h31v-5H.1"/><path class="cls-16" d="M.4 56l.9 1.2M.4 52.2l5 5M4.5 52.2l5 5M8.5 52.2l5.1 5M12.4 52.2l5 5M16.5 52.2l5 5M20.5 52.2l5.1 5M24.4 52.2l5 5M28.5 52.2l2.8 2.6"/><path class="cls-18" d="M.1 45.9h31M.1 42.6h31"/><path class="cls-16" d="M.1 52.2h31M.1 46.6h31"/><path class="cls-18" d="M.1 57.2h31M.1 52.2h31"/><path class="cls-17" d="M.1 42.6h31M7.3 57.2h23.8M33 50v-7.4h-3.3v-2h43.9v2h-3.4V50"/><path class="cls-1" d="M31.1 57.2h40.8"/><path class="cls-17" d="M71.4 57.2h.5"/><path class="cls-18" d="M33 42.6h-3.3M70.2 42.6h3.4"/><path class="cls-17" d="M31.1 50h40.8v2.2H31.1zM34.9 50v2.2M68.3 50v2.2M31.1 52.2V50M49.6 52.2V50M34.9 52.2V50M53.7 52.2V50M49.6 52.2V50M68.3 52.2V50M53.7 52.2V50M71.9 52.2V50"/><path class="cls-22" d="M31.2 46.5H33v3.4h-1.8"/><path class="cls-16" d="M32.8 50v-3.4M31.3 50v-3.4M31.2 46.5H33v3.4h-1.8"/><path class="cls-18" d="M31.1 52.2v5"/><path class="cls-22" d="M31.1 42.6H33v3.3h-1.9"/><path class="cls-16" d="M31.3 42.8l2 1.9"/><path class="cls-18" d="M31.1 42.6H33v3.3h-1.9M33 45.9V50"/><path class="cls-22" d="M72 46.5h-1.9v3.4H72"/><path class="cls-16" d="M70.9 50v-3.4M72 46.5h-1.9v3.4H72"/><path class="cls-18" d="M71.9 52.2v5"/><path class="cls-22" d="M71.9 42.6h-1.7v3.3h1.7"/><path class="cls-16" d="M70.9 42.6l1.2.9"/><path class="cls-18" d="M71.9 42.6h-1.7v3.3h1.7M70.2 45.9V50"/><path class="cls-17" d="M125.2 50v-7.4h-3.4v-2h66v2h-3.3V50"/><path class="cls-1" d="M123.3 57.2h62.8"/><path class="cls-18" d="M125.2 42.6h-3.4M184.5 42.6h3.3"/><path class="cls-17" d="M123.3 50h62.9v2.2h-62.9zM126.9 50v2.2M182.5 50v2.2M123.3 52.2V50M142.2 52.2V50M126.9 52.2V50M146.3 52.2V50M142.2 52.2V50M163.1 52.2V50M146.3 52.2V50M167.2 52.2V50M163.1 52.2V50M182.5 52.2V50M167.2 52.2V50M186.1 52.2V50"/><path class="cls-22" d="M123.3 46.5h1.8v3.4h-1.8"/><path class="cls-16" d="M124.7 50v-3.4M123.5 50v-3.4M123.3 46.5h1.8v3.4h-1.8"/><path class="cls-18" d="M123.3 52.2v5"/><path class="cls-22" d="M123.3 42.6h1.9v3.3h-1.9"/><path class="cls-16" d="M123.5 42.8l1.9 1.9"/><path class="cls-18" d="M123.3 42.6h1.9v3.3h-1.9M125.2 45.9V50"/><path class="cls-22" d="M186.2 46.5h-1.8v3.4h1.8"/><path class="cls-16" d="M185.7 50v-3.4M186.2 46.5h-1.8v3.4h1.8"/><path class="cls-18" d="M186.1 52.2v5"/><path class="cls-22" d="M186.1 42.6h-1.6v3.3h1.6"/><path class="cls-16" d="M184.7 44l1.7 1.7"/><path class="cls-18" d="M186.1 42.6h-1.6v3.3h1.6M184.5 45.9V50"/><path class="cls-1" d="M226.5 57.2h62.8"/><path class="cls-17" d="M226.5 50h62.9v2.2h-62.9zM230.1 50v2.2M285.7 50v2.2M226.5 52.2V50M245.4 52.2V50M230.1 52.2V50M249.5 52.2V50M245.4 52.2V50M266.3 52.2V50M249.5 52.2V50M270.4 52.2V50M266.3 52.2V50M285.7 52.2V50M270.4 52.2V50M289.3 52.2V50"/><path class="cls-18" d="M226.5 52.2v5"/><path class="cls-17" d="M291 42.6v-2"/><path class="cls-8" d="M291 40.6h-66.2"/><path class="cls-17" d="M224.8 40.6v.8"/><path class="cls-22" d="M226.5 46.5h1.8v3.4h-1.8"/><path class="cls-16" d="M228.4 50v-3.4M226.9 50v-3.4M226.5 46.5h1.8v3.4h-1.8"/><path class="cls-22" d="M226.5 42.6h1.9v3.3h-1.9"/><path class="cls-16" d="M227.4 42.6l1.2 1.2"/><path class="cls-18" d="M226.5 42.6h1.9v3.3h-1.9M228.4 45.9V50"/><path class="cls-22" d="M289.4 46.5h-1.9v3.4h1.9"/><path class="cls-16" d="M289.1 50v-3.4M287.9 50v-3.4M289.4 46.5h-1.9v3.4h1.9"/><path class="cls-18" d="M289.3 52.2v5"/><path class="cls-22" d="M289.3 42.6h-1.6v3.3h1.6"/><path class="cls-16" d="M287.9 42.8l1.7 1.7"/><path class="cls-18" d="M289.3 42.6h-1.6v3.3h1.6M287.7 45.9V50"/><path class="cls-23" d="M31.1 368v14.6H.1V368h31"/><path class="cls-22" d="M31.1 382.6v-3.3H.1v3.3h31"/><path class="cls-16" d="M.4 380.7l1.9 1.9M2.8 379.3l3.3 3.3M6.9 379.3l3.3 3.3M10.9 379.3l3.4 3.3M14.8 379.3l3.3 3.3M18.9 379.3l3.3 3.3M22.9 379.3l3.4 3.3M26.8 379.3l3.3 3.3M30.9 379.3l.4.2"/><path class="cls-22" d="M31.1 379.3v-.5H.1v.5h31M31.1 378.8V373H.1v5.8h31"/><path class="cls-16" d="M1.6 373v5.8M3 373v5.8M4.2 373v5.8M5.7 373v5.8M7.1 373v5.8M8.5 373v5.8M10 373v5.8M11.4 373v5.8M12.9 373v5.8M14.3 373v5.8M15.7 373v5.8M17.2 373v5.8M18.4 373v5.8M19.8 373v5.8M21.3 373v5.8M22.7 373v5.8M24.1 373v5.8M25.6 373v5.8M27 373v5.8M28.5 373v5.8M29.9 373v5.8"/><path class="cls-22" d="M31.1 373v-5H.1v5h31"/><path class="cls-16" d="M.4 372.8l.2.2M.4 368.7l4.3 4.3M3.5 368l5 5M7.6 368l5 5M11.7 368l5 5M15.5 368l5 5M19.6 368l5 5M23.7 368l5 5M27.7 368l3.6 3.6"/><path class="cls-18" d="M31.1 379.3H.1M31.1 382.6H.1"/><path class="cls-16" d="M31.1 373H.1M31.1 378.8H.1"/><path class="cls-18" d="M31.1 368H.1M31.1 373H.1"/><path class="cls-17" d="M31.1 382.6H.1M31.1 368H.1"/><path class="cls-23" d="M123.3 368v14.6H71.9V368h51.4"/><path class="cls-22" d="M123.3 382.6v-3.3H71.9v3.3h51.4"/><path class="cls-16" d="M72.1 380.2l2.2 2.4M75 379.3l3.4 3.3M79.1 379.3l3.4 3.3M82.9 379.3l3.4 3.3M87 379.3l3.4 3.3M91.1 379.3l3.4 3.3M94.9 379.3l3.4 3.3M99 379.3l3.4 3.3M103.1 379.3l3.4 3.3M106.9 379.3l3.4 3.3M111 379.3l3.4 3.3M115.1 379.3l3.4 3.3M119.2 379.3l3.3 3.3M123 379.3l.5.2"/><path class="cls-22" d="M123.3 379.3v-.5H71.9v.5h51.4M123.3 378.8V373H71.9v5.8h51.4"/><path class="cls-16" d="M72.4 373v5.8M73.8 373v5.8M75.3 373v5.8M76.7 373v5.8M78.1 373v5.8M79.3 373v5.8M80.8 373v5.8M82.2 373v5.8M83.7 373v5.8M85.1 373v5.8M86.5 373v5.8M88 373v5.8M89.4 373v5.8M90.9 373v5.8M92.3 373v5.8M93.5 373v5.8M94.9 373v5.8M96.4 373v5.8M97.8 373v5.8M99.3 373v5.8M100.7 373v5.8M102.1 373v5.8M103.6 373v5.8M105 373v5.8M106.5 373v5.8M107.9 373v5.8M109.1 373v5.8M110.5 373v5.8M112 373v5.8M113.4 373v5.8M114.9 373v5.8M116.3 373v5.8M117.7 373v5.8M119.2 373v5.8M120.6 373v5.8M122.1 373v5.8"/><path class="cls-22" d="M123.3 373v-5H71.9v5h51.4"/><path class="cls-16" d="M72.1 372.3l.8.7M72.1 368.2l4.6 4.8M75.7 368l5.1 5M79.8 368l5.1 5M83.7 368l5 5M87.7 368l5.1 5M91.8 368l5.1 5M95.7 368l5 5M99.7 368l5.1 5M103.8 368l5.1 5M107.9 368l5 5M111.7 368l5.1 5M115.8 368l5.1 5M119.9 368l3.6 3.6"/><path class="cls-18" d="M123.3 379.3H71.9M123.3 382.6H71.9"/><path class="cls-16" d="M123.3 373H71.9M123.3 378.8H71.9"/><path class="cls-18" d="M123.3 368H71.9M123.3 373H71.9"/><path class="cls-17" d="M123.3 382.6H71.9M123.3 368H71.9"/><path class="cls-23" d="M237.5 368v14.6h-51.4V368h51.4"/><path class="cls-22" d="M237.5 382.6v-3.3h-51.4v3.3h51.4"/><path class="cls-16" d="M186.4 382.4l.2.2M187.3 379.3l3.4 3.3M191.2 379.3l3.3 3.3M195.3 379.3l3.3 3.3M199.3 379.3l3.4 3.3M203.2 379.3l3.3 3.3M207.3 379.3l3.3 3.3M211.3 379.3l3.4 3.3M215.2 379.3l3.3 3.3M219.3 379.3l3.3 3.3M223.3 379.3l3.4 3.3M227.4 379.3l3.4 3.3M231.3 379.3l3.3 3.3M235.3 379.3l2.4 2.4"/><path class="cls-22" d="M237.5 379.3v-.5h-51.4v.5h51.4M237.5 378.8V373h-51.4v5.8h51.4"/><path class="cls-16" d="M187.1 373v5.8M188.5 373v5.8M190 373v5.8M191.4 373v5.8M192.9 373v5.8M194.3 373v5.8M195.7 373v5.8M197.2 373v5.8M198.4 373v5.8M199.8 373v5.8M201.3 373v5.8M202.7 373v5.8M204.1 373v5.8M205.6 373v5.8M207 373v5.8M208.5 373v5.8M209.9 373v5.8M211.3 373v5.8M212.8 373v5.8M214 373v5.8M215.4 373v5.8M216.9 373v5.8M218.3 373v5.8M219.7 373v5.8M221.2 373v5.8M222.6 373v5.8M224.1 373v5.8M225.5 373v5.8M226.9 373v5.8M228.4 373v5.8M229.6 373v5.8M231 373v5.8M232.5 373v5.8M233.9 373v5.8M235.3 373v5.8M236.8 373v5.8"/><path class="cls-22" d="M237.5 373v-5h-51.4v5h51.4"/><path class="cls-16" d="M186.4 370.4l2.6 2.6M188.1 368l5 5M191.9 368l5 5M196 368l5 5M200.1 368l5 5M203.9 368l5 5M208 368l5 5M212.1 368l5 5M216.1 368l5.1 5M220 368l5 5M224.1 368l5 5M228.1 368l5.1 5M232 368l5 5M236.1 368l1.6 1.4"/><path class="cls-18" d="M237.5 379.3h-51.4M237.5 382.6h-51.4"/><path class="cls-16" d="M237.5 373h-51.4M237.5 378.8h-51.4"/><path class="cls-18" d="M237.5 368h-51.4M237.5 373h-51.4"/><path class="cls-17" d="M237.5 382.6h-51.4M237.5 368h-51.4"/><path class="cls-23" d="M313.1 368v14.6h-34.8V368h34.8"/><path class="cls-22" d="M313.1 382.6v-3.3h-34.8v3.3h34.8"/><path class="cls-16" d="M278.5 382.2l.3.4M279.5 379.3l3.4 3.3M283.3 379.3l3.4 3.3M287.4 379.3l3.4 3.3M291.5 379.3l3.4 3.3M295.6 379.3l3.3 3.3M299.4 379.3l3.4 3.3M303.5 379.3l3.4 3.3M307.6 379.3l3.3 3.3M311.4 379.3l1.9 1.7"/><path class="cls-22" d="M313.1 379.3v-.5h-34.8v.5h34.8M313.1 378.8V373h-34.8v5.8h34.8"/><path class="cls-16" d="M279.3 373v5.8M280.7 373v5.8M282.1 373v5.8M283.6 373v5.8M285 373v5.8M286.5 373v5.8M287.9 373v5.8M289.1 373v5.8M290.5 373v5.8M292 373v5.8M293.4 373v5.8M294.9 373v5.8M296.3 373v5.8M297.7 373v5.8M299.2 373v5.8M300.6 373v5.8M302.1 373v5.8M303.5 373v5.8M304.7 373v5.8M306.1 373v5.8M307.6 373v5.8M309 373v5.8M310.5 373v5.8M311.9 373v5.8"/><path class="cls-22" d="M313.1 373v-5h-34.8v5h34.8"/><path class="cls-16" d="M278.5 370.2l2.7 2.8M280.2 368l5.1 5M284.3 368l5 5M288.1 368l5.1 5M292.2 368l5.1 5M296.3 368l5 5M300.1 368l5.1 5M304.2 368l5.1 5M308.3 368l5 5M312.1 368l1.2 1"/><path class="cls-18" d="M313.1 379.3h-34.8M313.1 382.6h-34.8"/><path class="cls-16" d="M313.1 373h-34.8M313.1 378.8h-34.8"/><path class="cls-18" d="M313.1 368h-34.8M313.1 373h-34.8"/><path class="cls-17" d="M313.1 382.6h-34.8M313.1 368h-34.8M70.2 375.4v7.2h3.4v2H29.7v-2H33v-7.2"/><path class="cls-1" d="M71.9 368H31.1"/><path class="cls-17" d="M31.6 368h-.5"/><path class="cls-18" d="M70.2 382.6h3.4M33 382.6h-3.3"/><path class="cls-17" d="M31.1 373h40.8v2.4H31.1zM68.3 375.4V373M34.9 375.4V373M71.9 373v2.4M53.7 373v2.4M68.3 373v2.4M49.6 373v2.4M53.7 373v2.4M34.9 373v2.4M49.6 373v2.4M31.1 373v2.4"/><path class="cls-22" d="M72 378.8h-1.9v-3.4H72"/><path class="cls-16" d="M70.9 375.4v3.4M72 378.8h-1.9v-3.4H72"/><path class="cls-18" d="M71.9 373v-5"/><path class="cls-22" d="M71.9 382.6h-1.7v-3.3h1.7"/><path class="cls-16" d="M70.9 379.3l1.2.9"/><path class="cls-18" d="M71.9 382.6h-1.7v-3.3h1.7M70.2 379.3v-3.9"/><path class="cls-22" d="M31.2 378.8H33v-3.4h-1.8"/><path class="cls-16" d="M31.3 375.4v3.4M32.8 375.4v3.4M31.2 378.8H33v-3.4h-1.8"/><path class="cls-18" d="M31.1 373v-5"/><path class="cls-22" d="M31.1 382.6H33v-3.3h-1.9"/><path class="cls-16" d="M31.3 379.5l2 1.9"/><path class="cls-18" d="M31.1 382.6H33v-3.3h-1.9M33 379.3v-3.9"/><path class="cls-1" d="M186.1 368h-62.8"/><path class="cls-17" d="M123.3 373h62.9v2.4h-62.9zM182.5 375.4V373M126.9 375.4V373M186.1 373v2.4M167.2 373v2.4M182.5 373v2.4M163.1 373v2.4M167.2 373v2.4M146.3 373v2.4M163.1 373v2.4M142.2 373v2.4M146.3 373v2.4M126.9 373v2.4M142.2 373v2.4M123.3 373v2.4"/><path class="cls-18" d="M186.1 373v-5"/><path class="cls-17" d="M121.8 382.6v2"/><path class="cls-8" d="M121.8 384.6h66"/><path class="cls-17" d="M187.8 384.6v-1"/><path class="cls-22" d="M186.2 378.8h-1.8v-3.4h1.8"/><path class="cls-16" d="M185.7 375.4v3.4M186.2 378.8h-1.8v-3.4h1.8"/><path class="cls-22" d="M186.1 382.6h-1.6v-3.3h1.6"/><path class="cls-16" d="M184.7 380.7l1.7 1.7"/><path class="cls-18" d="M186.1 382.6h-1.6v-3.3h1.6M184.5 379.3v-3.9"/><path class="cls-22" d="M123.3 378.8h1.8v-3.4h-1.8"/><path class="cls-16" d="M123.5 375.4v3.4M124.7 375.4v3.4M123.3 378.8h1.8v-3.4h-1.8"/><path class="cls-18" d="M123.3 373v-5"/><path class="cls-22" d="M123.3 382.6h1.9v-3.3h-1.9"/><path class="cls-16" d="M123.5 379.5l1.9 1.9"/><path class="cls-18" d="M123.3 382.6h1.9v-3.3h-1.9M125.2 379.3v-3.9"/><path class="cls-17" d="M276.4 375.4v7.2h3.6v2h-43.9v-2h3.3v-7.2"/><path class="cls-1" d="M278.3 368h-40.8"/><path class="cls-17" d="M238 368h-.5"/><path class="cls-18" d="M276.4 382.6h3.6M239.4 382.6h-3.3"/><path class="cls-17" d="M237.5 373h40.8v2.4h-40.8zM274.7 375.4V373M241.1 375.4V373M278.3 373v2.4M260.1 373v2.4M274.7 373v2.4M256 373v2.4M260.1 373v2.4M241.1 373v2.4M256 373v2.4M237.5 373v2.4"/><path class="cls-22" d="M278.3 378.8h-1.8v-3.4h1.8"/><path class="cls-16" d="M277.8 375.4v3.4M278.3 378.8h-1.8v-3.4h1.8"/><path class="cls-18" d="M278.3 373v-5"/><path class="cls-22" d="M278.3 382.6h-1.9v-3.3h1.9"/><path class="cls-16" d="M276.6 380.2l1.9 2"/><path class="cls-18" d="M278.3 382.6h-1.9v-3.3h1.9M276.4 379.3v-3.9"/><path class="cls-22" d="M237.5 378.8h1.9v-3.4h-1.9"/><path class="cls-16" d="M238.2 375.4v3.4M237.5 378.8h1.9v-3.4h-1.9"/><path class="cls-18" d="M237.5 373v-5"/><path class="cls-22" d="M237.5 382.6h1.9v-3.3h-1.9"/><path class="cls-16" d="M237.7 381.7l1 .9M239.4 379.3l.3.2"/><path class="cls-18" d="M237.5 382.6h1.9v-3.3h-1.9M239.4 379.3v-3.9"/><path class="cls-22" d="M408.1 250.4l-6.9-7H218.1l-7.2 7h197.2"/><path class="cls-16" d="M407.2 250.4l-7-7M403.1 250.4l-7-7M399 250.4l-6.9-7M395.2 250.4l-7-7M391.1 250.4l-7-7M387 250.4l-6.9-7M383.2 250.4l-7-7M379.1 250.4l-7-7M375 250.4l-6.9-7M370.9 250.4l-6.9-7M367.1 250.4l-7-7M363 250.4l-6.9-7M358.9 250.4l-6.9-7M355.1 250.4l-7-7M351 250.4l-6.9-7M346.9 250.4l-6.9-7M342.9 250.4l-7-7M339 250.4l-6.9-7M334.9 250.4l-6.9-7M330.9 250.4l-7-7M327 250.4l-6.9-7M322.9 250.4l-6.9-7M318.9 250.4l-7-7M315 250.4l-6.9-7M310.9 250.4l-6.9-7M306.9 250.4l-7-7M302.8 250.4l-7-7M298.9 250.4l-6.9-7M294.9 250.4l-7-7M290.8 250.4l-7-7M286.9 250.4l-6.9-7M282.9 250.4l-7-7M278.8 250.4l-7-7M274.9 250.4l-6.9-7M270.9 250.4l-7-7M266.8 250.4l-7-7M262.7 250.4l-7-7M258.9 250.4l-7-7M254.8 250.4l-7-7M250.7 250.4l-7-7M246.9 250.4l-7-7M242.8 250.4l-7-7M238.7 250.4l-7-7M234.9 250.4l-7-7M230.8 250.4l-7-7M226.7 250.4l-7-7M222.6 250.4l-5.7-5.8M218.8 250.4l-3.9-3.8M214.7 250.4l-1.9-1.9M407.7 250.4l.2-.2M403.6 250.4l2.4-2.4M399.5 250.4l4.3-4.3M395.7 250.4l6.2-6.2M391.6 250.4l6.9-7M387.5 250.4l7-7M383.7 250.4l6.9-7M379.6 250.4l6.9-7M375.5 250.4l7-7M371.4 250.4l7-7M367.6 250.4l6.9-7M363.5 250.4l7-7M359.4 250.4l7-7M355.6 250.4l6.9-7M351.5 250.4l7-7M347.4 250.4l7-7M343.3 250.4l7-7M339.5 250.4l7-7M335.4 250.4l7-7M331.3 250.4l7-7M327.5 250.4l7-7M323.4 250.4l7-7M319.3 250.4l7-7M315.5 250.4l7-7M311.4 250.4l7-7M307.3 250.4l7-7M303.3 250.4l6.9-7M299.4 250.4l7-7M295.3 250.4l7-7M291.3 250.4l6.9-7M287.4 250.4l7-7M283.3 250.4l7-7M279.3 250.4l6.9-7M275.4 250.4l7-7M271.3 250.4l7-7M267.3 250.4l6.9-7M263.2 250.4l6.9-7M259.3 250.4l7-7M255.3 250.4l6.9-7M251.2 250.4l6.9-7M247.3 250.4l7-7M243.3 250.4l6.9-7M239.2 250.4l6.9-7M235.3 250.4l7-7M231.3 250.4l6.9-7M227.2 250.4l6.9-7M223.1 250.4l7-7M219.3 250.4l6.9-7M215.2 250.4l6.9-7M211.1 250.4l5.5-5.5"/><path class="cls-22" d="M408.1 250.4l-6.9-7H218.1l-7.2 7h197.2"/><path class="cls-16" d="M407.2 250.4l-7-7M403.1 250.4l-7-7M399 250.4l-6.9-7M395.2 250.4l-7-7M391.1 250.4l-7-7M387 250.4l-6.9-7M383.2 250.4l-7-7M379.1 250.4l-7-7M375 250.4l-6.9-7M370.9 250.4l-6.9-7M367.1 250.4l-7-7M363 250.4l-6.9-7M358.9 250.4l-6.9-7M355.1 250.4l-7-7M351 250.4l-6.9-7M346.9 250.4l-6.9-7M342.9 250.4l-7-7M339 250.4l-6.9-7M334.9 250.4l-6.9-7M330.9 250.4l-7-7M327 250.4l-6.9-7M322.9 250.4l-6.9-7M318.9 250.4l-7-7M315 250.4l-6.9-7M310.9 250.4l-6.9-7M306.9 250.4l-7-7M302.8 250.4l-7-7M298.9 250.4l-6.9-7M294.9 250.4l-7-7M290.8 250.4l-7-7M286.9 250.4l-6.9-7M282.9 250.4l-7-7M278.8 250.4l-7-7M274.9 250.4l-6.9-7M270.9 250.4l-7-7M266.8 250.4l-7-7M262.7 250.4l-7-7M258.9 250.4l-7-7M254.8 250.4l-7-7M250.7 250.4l-7-7M246.9 250.4l-7-7M242.8 250.4l-7-7M238.7 250.4l-7-7M234.9 250.4l-7-7M230.8 250.4l-7-7M226.7 250.4l-7-7M222.6 250.4l-5.7-5.8M218.8 250.4l-3.9-3.8M214.7 250.4l-1.9-1.9M407.7 250.4l.2-.2M403.6 250.4l2.4-2.4M399.5 250.4l4.3-4.3M395.7 250.4l6.2-6.2M391.6 250.4l6.9-7M387.5 250.4l7-7M383.7 250.4l6.9-7M379.6 250.4l6.9-7M375.5 250.4l7-7M371.4 250.4l7-7M367.6 250.4l6.9-7M363.5 250.4l7-7M359.4 250.4l7-7M355.6 250.4l6.9-7M351.5 250.4l7-7M347.4 250.4l7-7M343.3 250.4l7-7M339.5 250.4l7-7M335.4 250.4l7-7M331.3 250.4l7-7M327.5 250.4l7-7M323.4 250.4l7-7M319.3 250.4l7-7M315.5 250.4l7-7M311.4 250.4l7-7M307.3 250.4l7-7M303.3 250.4l6.9-7M299.4 250.4l7-7M295.3 250.4l7-7M291.3 250.4l6.9-7M287.4 250.4l7-7M283.3 250.4l7-7M279.3 250.4l6.9-7M275.4 250.4l7-7M271.3 250.4l7-7M267.3 250.4l6.9-7M263.2 250.4l6.9-7M259.3 250.4l7-7M255.3 250.4l6.9-7M251.2 250.4l6.9-7M247.3 250.4l7-7M243.3 250.4l6.9-7M239.2 250.4l6.9-7M235.3 250.4l7-7M231.3 250.4l6.9-7M227.2 250.4l6.9-7M223.1 250.4l7-7M219.3 250.4l6.9-7M215.2 250.4l6.9-7M211.1 250.4l5.5-5.5"/><path class="cls-18" d="M313.1 250.4h95M215.2 250.4h90.7M218.1 243.4h183.1M218.1 243.4h183.1M313.1 250.4h95M215.2 250.4h90.7"/><path class="cls-22" d="M408.1 135H268.9v6.9h132.3l6.9-6.9"/><path class="cls-16" d="M408.1 135.2l-.2-.2M406 137.1l-2.2-2.1M404.1 139l-4.1-4M402.1 141.2l-6.2-6.2M398.8 141.9l-7-6.9M394.9 141.9L388 135M390.9 141.9l-7-6.9M386.8 141.9l-7-6.9M382.9 141.9L376 135M378.9 141.9l-7-6.9M374.8 141.9l-7-6.9M370.7 141.9l-7-6.9M366.9 141.9l-7-6.9M362.8 141.9l-7-6.9M358.7 141.9l-7-6.9M354.9 141.9l-7-6.9M350.8 141.9l-7-6.9M346.7 141.9l-7-6.9M342.6 141.9l-6.9-6.9M338.8 141.9l-7-6.9M334.7 141.9l-7-6.9M330.6 141.9l-6.9-6.9M326.8 141.9l-7-6.9M322.7 141.9l-7-6.9M318.6 141.9l-6.9-6.9M314.8 141.9l-7-6.9M310.7 141.9l-7-6.9M306.6 141.9l-6.9-6.9M302.5 141.9l-6.9-6.9M298.7 141.9l-7-6.9M294.6 141.9l-6.9-6.9M290.5 141.9l-6.9-6.9M286.7 141.9l-7-6.9M282.6 141.9l-6.9-6.9M278.5 141.9l-6.9-6.9M274.7 141.9l-5.5-5.5M270.6 141.9l-1.4-1.4M399.7 141.9l7-6.9M395.9 141.9l7-6.9M391.8 141.9l7-6.9M387.7 141.9l7-6.9M383.9 141.9l7-6.9M379.8 141.9l7-6.9M375.7 141.9l7-6.9M371.7 141.9l6.9-6.9M367.8 141.9l7-6.9M363.7 141.9l7-6.9M359.7 141.9l6.9-6.9M355.8 141.9l7-6.9M351.7 141.9l7-6.9M347.7 141.9l6.9-6.9M343.8 141.9l7-6.9M339.7 141.9l7-6.9M335.7 141.9l6.9-6.9M331.6 141.9l6.9-6.9M327.7 141.9l7-6.9M323.7 141.9l6.9-6.9M319.6 141.9l6.9-6.9M315.7 141.9l7-6.9M311.7 141.9l6.9-6.9M307.6 141.9l6.9-6.9M303.5 141.9l7-6.9M299.7 141.9l6.9-6.9M295.6 141.9l6.9-6.9M291.5 141.9l7-6.9M287.7 141.9l6.9-6.9M283.6 141.9l6.9-6.9M279.5 141.9l7-6.9M275.7 141.9l6.9-6.9M271.6 141.9l6.9-6.9M269.2 140.5l5.3-5.5M269.2 136.4l1.2-1.4"/><path class="cls-22" d="M408.1 135H268.9v6.9h132.3l6.9-6.9"/><path class="cls-16" d="M408.1 135.2l-.2-.2M406 137.1l-2.2-2.1M404.1 139l-4.1-4M402.1 141.2l-6.2-6.2M398.8 141.9l-7-6.9M394.9 141.9L388 135M390.9 141.9l-7-6.9M386.8 141.9l-7-6.9M382.9 141.9L376 135M378.9 141.9l-7-6.9M374.8 141.9l-7-6.9M370.7 141.9l-7-6.9M366.9 141.9l-7-6.9M362.8 141.9l-7-6.9M358.7 141.9l-7-6.9M354.9 141.9l-7-6.9M350.8 141.9l-7-6.9M346.7 141.9l-7-6.9M342.6 141.9l-6.9-6.9M338.8 141.9l-7-6.9M334.7 141.9l-7-6.9M330.6 141.9l-6.9-6.9M326.8 141.9l-7-6.9M322.7 141.9l-7-6.9M318.6 141.9l-6.9-6.9M314.8 141.9l-7-6.9M310.7 141.9l-7-6.9M306.6 141.9l-6.9-6.9M302.5 141.9l-6.9-6.9M298.7 141.9l-7-6.9M294.6 141.9l-6.9-6.9M290.5 141.9l-6.9-6.9M286.7 141.9l-7-6.9M282.6 141.9l-6.9-6.9M278.5 141.9l-6.9-6.9M274.7 141.9l-5.5-5.5M270.6 141.9l-1.4-1.4M399.7 141.9l7-6.9M395.9 141.9l7-6.9M391.8 141.9l7-6.9M387.7 141.9l7-6.9M383.9 141.9l7-6.9M379.8 141.9l7-6.9M375.7 141.9l7-6.9M371.7 141.9l6.9-6.9M367.8 141.9l7-6.9M363.7 141.9l7-6.9M359.7 141.9l6.9-6.9M355.8 141.9l7-6.9M351.7 141.9l7-6.9M347.7 141.9l6.9-6.9M343.8 141.9l7-6.9M339.7 141.9l7-6.9M335.7 141.9l6.9-6.9M331.6 141.9l6.9-6.9M327.7 141.9l7-6.9M323.7 141.9l6.9-6.9M319.6 141.9l6.9-6.9M315.7 141.9l7-6.9M311.7 141.9l6.9-6.9M307.6 141.9l6.9-6.9M303.5 141.9l7-6.9M299.7 141.9l6.9-6.9M295.6 141.9l6.9-6.9M291.5 141.9l7-6.9M287.7 141.9l6.9-6.9M283.6 141.9l6.9-6.9M279.5 141.9l7-6.9M275.7 141.9l6.9-6.9M271.6 141.9l6.9-6.9M269.2 140.5l5.3-5.5M269.2 136.4l1.2-1.4"/><path class="cls-18" d="M268.9 141.9h132.3M313.1 135h95M268.9 135h37M313.1 135h95M268.9 141.9h132.3M268.9 135h37"/><path class="cls-22" d="M263.4 199.5l5.5 10.1V135l-5.5 9.8v54.7"/><path class="cls-16" d="M269.2 136.4l-.7-.5M269.2 140.5l-2.2-1.9M269.2 144.3l-3.6-3.3M269.2 148.4l-5.1-4.8M269.2 152.5l-5.5-5.5M269.2 156.3l-5.5-5.5M269.2 160.4l-5.5-5.5M269.2 164.5l-5.5-5.5M269.2 168.6l-5.5-5.6M269.2 172.4l-5.5-5.5M269.2 176.5l-5.5-5.5M269.2 180.6l-5.5-5.6M269.2 184.4l-5.5-5.5M269.2 188.5l-5.5-5.5M269.2 192.6l-5.5-5.6M269.2 196.6l-5.5-5.5M269.2 200.5l-5.5-5.5M269.2 204.6l-5.5-5.6M269.2 208.6l-1.5-1.4M268.7 208.9l.5-.3M267.3 206.2l1.9-1.6M265.8 203.8l3.4-3.3M264.4 201.2l4.8-4.8M263.7 198.1l5.5-5.5M263.7 194l5.5-5.5M263.7 189.9l5.5-5.5M263.7 186.1l5.5-5.5M263.7 182l5.5-5.5M263.7 177.9l5.5-5.5M263.7 174.1l5.5-5.5M263.7 170l5.5-5.5M263.7 165.9l5.5-5.5M263.7 161.8l5.5-5.5M263.7 158l5.5-5.5M263.7 153.9l5.5-5.5M263.7 149.8l5.5-5.5M263.7 146l5.5-5.5M267.3 138.3l1.9-1.9"/><path class="cls-22" d="M263.4 199.5l5.5 10.1V135l-5.5 9.8v54.7"/><path class="cls-16" d="M269.2 136.4l-.7-.5M269.2 140.5l-2.2-1.9M269.2 144.3l-3.6-3.3M269.2 148.4l-5.1-4.8M269.2 152.5l-5.5-5.5M269.2 156.3l-5.5-5.5M269.2 160.4l-5.5-5.5M269.2 164.5l-5.5-5.5M269.2 168.6l-5.5-5.6M269.2 172.4l-5.5-5.5M269.2 176.5l-5.5-5.5M269.2 180.6l-5.5-5.6M269.2 184.4l-5.5-5.5M269.2 188.5l-5.5-5.5M269.2 192.6l-5.5-5.6M269.2 196.6l-5.5-5.5M269.2 200.5l-5.5-5.5M269.2 204.6l-5.5-5.6M269.2 208.6l-1.5-1.4M268.7 208.9l.5-.3M267.3 206.2l1.9-1.6M265.8 203.8l3.4-3.3M264.4 201.2l4.8-4.8M263.7 198.1l5.5-5.5M263.7 194l5.5-5.5M263.7 189.9l5.5-5.5M263.7 186.1l5.5-5.5M263.7 182l5.5-5.5M263.7 177.9l5.5-5.5M263.7 174.1l5.5-5.5M263.7 170l5.5-5.5M263.7 165.9l5.5-5.5M263.7 161.8l5.5-5.5M263.7 158l5.5-5.5M263.7 153.9l5.5-5.5M263.7 149.8l5.5-5.5M263.7 146l5.5-5.5M267.3 138.3l1.9-1.9"/><path class="cls-18" d="M263.4 144.8v54.7M268.9 141.9v67.7M268.9 141.9v67.7M263.4 144.8v54.7"/><path class="cls-22" d="M305.9 52.2V135h7.2V52.2h-7.2"/><path class="cls-16" d="M313.3 52.2h-.2M313.3 56.2l-4.3-4M313.3 60.3l-7.2-7.2M313.3 64.4l-7.2-7.2M313.3 68.2l-7.2-7.2M313.3 72.3l-7.2-7.2M313.3 76.4l-7.2-7.2M313.3 80.2l-7.2-7.2M313.3 84.3l-7.2-7.2M313.3 88.4l-7.2-7.2M313.3 92.5l-7.2-7.2M313.3 96.3l-7.2-7.2M313.3 100.4l-7.2-7.2M313.3 104.5l-7.2-7.2M313.3 108.3l-7.2-7.2M313.3 112.4l-7.2-7.2M313.3 116.5l-7.2-7.2M313.3 120.3l-7.2-7.2M313.3 124.4l-7.2-7.2M313.3 128.5l-7.2-7.2M313.3 132.6l-7.2-7.2M311.7 135l-5.6-5.8M307.8 135l-1.7-1.7M310.5 135l2.8-2.7M306.6 135l6.7-6.8M306.1 131.6l7.2-7.2M306.1 127.5l7.2-7.2M306.1 123.4l7.2-7.2M306.1 119.4l7.2-7.2M306.1 115.5l7.2-7.2M306.1 111.4l7.2-7.2M306.1 107.4l7.2-7.2M306.1 103.5l7.2-7.2M306.1 99.4l7.2-7.2M306.1 95.4l7.2-7.2M306.1 91.5l7.2-7.2M306.1 87.4l7.2-7.2M306.1 83.4l7.2-7.2M306.1 79.3l7.2-7.2M306.1 75.4l7.2-7.2M306.1 71.4l7.2-7.2M306.1 67.3l7.2-7.2M306.1 63.4l7.2-7.2M306.1 59.4l7-7.2M306.1 55.3l3.2-3.1"/><path class="cls-22" d="M305.9 52.2V135h7.2V52.2h-7.2"/><path class="cls-16" d="M313.3 52.2h-.2M313.3 56.2l-4.3-4M313.3 60.3l-7.2-7.2M313.3 64.4l-7.2-7.2M313.3 68.2l-7.2-7.2M313.3 72.3l-7.2-7.2M313.3 76.4l-7.2-7.2M313.3 80.2l-7.2-7.2M313.3 84.3l-7.2-7.2M313.3 88.4l-7.2-7.2M313.3 92.5l-7.2-7.2M313.3 96.3l-7.2-7.2M313.3 100.4l-7.2-7.2M313.3 104.5l-7.2-7.2M313.3 108.3l-7.2-7.2M313.3 112.4l-7.2-7.2M313.3 116.5l-7.2-7.2M313.3 120.3l-7.2-7.2M313.3 124.4l-7.2-7.2M313.3 128.5l-7.2-7.2M313.3 132.6l-7.2-7.2M311.7 135l-5.6-5.8M307.8 135l-1.7-1.7M310.5 135l2.8-2.7M306.6 135l6.7-6.8M306.1 131.6l7.2-7.2M306.1 127.5l7.2-7.2M306.1 123.4l7.2-7.2M306.1 119.4l7.2-7.2M306.1 115.5l7.2-7.2M306.1 111.4l7.2-7.2M306.1 107.4l7.2-7.2M306.1 103.5l7.2-7.2M306.1 99.4l7.2-7.2M306.1 95.4l7.2-7.2M306.1 91.5l7.2-7.2M306.1 87.4l7.2-7.2M306.1 83.4l7.2-7.2M306.1 79.3l7.2-7.2M306.1 75.4l7.2-7.2M306.1 71.4l7.2-7.2M306.1 67.3l7.2-7.2M306.1 63.4l7.2-7.2M306.1 59.4l7-7.2M306.1 55.3l3.2-3.1"/><path class="cls-18" d="M313.1 135V52.2M305.9 135V52.2M313.1 52.2h-7.2M305.9 135V52.2M313.1 135V52.2"/><path class="cls-17" d="M401.2 181.3h-34.1M401.2 189h-34.1M401.2 196.4h-34.1M401.2 204.1h-34.1M268.9 204.1H303M268.9 196.4H303M268.9 189H303M268.9 181.3H303M342.6 141.9l7.9 35.5M303 176h64.1v33.4H303zM286 204.1l-3.9-3.9h7.7l-3.8 3.9zM361.8 176v-34.1M354.1 176v-34.1M346.5 176v-34.1M338.8 176v-34.1M331.1 176v-34.1M323.7 176v-34.1M316 176v-34.1M308.3 176v-34.1"/><path class="cls-17" d="M304.5 177.4h61.2v30.5h-61.2zM308.3 159l3.8-3.9v7.7l-3.8-3.8zM346.5 159l3.8-3.9v7.7l-3.8-3.8zM384.1 181.3l3.9 3.8h-7.7l3.8-3.8z"/><path class="cls-22" d="M313.1 250.4h-7.2V373h7.2V250.4"/><path class="cls-16" d="M313.3 252.8l-2.4-2.4M313.3 256.6l-6.4-6.2M313.3 260.7l-7.2-7.2M313.3 264.8l-7.2-7.2M313.3 268.6l-7.2-7.2M313.3 272.7l-7.2-7.2M313.3 276.8l-7.2-7.2M313.3 280.9l-7.2-7.2M313.3 284.7l-7.2-7.2M313.3 288.8l-7.2-7.2M313.3 292.9l-7.2-7.2M313.3 296.7l-7.2-7.2M313.3 300.8l-7.2-7.2M313.3 304.9l-7.2-7.2M313.3 308.7l-7.2-7.2M313.3 312.8l-7.2-7.2M313.3 316.9l-7.2-7.2M313.3 321l-7.2-7.2M313.3 324.8l-7.2-7.2M313.3 328.9l-7.2-7.2M313.3 333l-7.2-7.2M313.3 336.8l-7.2-7.2M313.3 340.9l-7.2-7.2M313.3 345l-7.2-7.2M313.3 349l-7.2-7.2M313.3 352.9l-7.2-7.2M313.3 357l-7.2-7.2M313.3 361l-7.2-7.2M313.3 364.9l-7.2-7.2M313.3 369l-7.2-7.2M313.3 373l-7.2-7.2M309.3 373l-3.2-3.3M313.1 373l.2-.2M309 373l4.3-4.3M306.1 372.1l7.2-7.2M306.1 368l7.2-7.2M306.1 363.9l7.2-7.2M306.1 360.1l7.2-7.2M306.1 356l7.2-7.2M306.1 351.9l7.2-7.2M306.1 348.1l7.2-7.2M306.1 344l7.2-7.2M306.1 339.9l7.2-7.2M306.1 335.8l7.2-7.2M306.1 332l7.2-7.2M306.1 327.9l7.2-7.2M306.1 323.8l7.2-7.2M306.1 320l7.2-7.2M306.1 315.9l7.2-7.2M306.1 311.8l7.2-7.2M306.1 308l7.2-7.2M306.1 303.9l7.2-7.2M306.1 299.8l7.2-7.2M306.1 295.8l7.2-7.2M306.1 291.9l7.2-7.2M306.1 287.8l7.2-7.2M306.1 283.8l7.2-7.2M306.1 279.9l7.2-7.2M306.1 275.8l7.2-7.2M306.1 271.8l7.2-7.2M306.1 267.7l7.2-7.2M306.1 263.8l7.2-7.2M306.1 259.8l7.2-7.2M306.1 255.7l5.3-5.3M306.1 251.8l1.2-1.4"/><path class="cls-22" d="M313.1 250.4h-7.2V373h7.2V250.4"/><path class="cls-16" d="M313.3 252.8l-2.4-2.4M313.3 256.6l-6.4-6.2M313.3 260.7l-7.2-7.2M313.3 264.8l-7.2-7.2M313.3 268.6l-7.2-7.2M313.3 272.7l-7.2-7.2M313.3 276.8l-7.2-7.2M313.3 280.9l-7.2-7.2M313.3 284.7l-7.2-7.2M313.3 288.8l-7.2-7.2M313.3 292.9l-7.2-7.2M313.3 296.7l-7.2-7.2M313.3 300.8l-7.2-7.2M313.3 304.9l-7.2-7.2M313.3 308.7l-7.2-7.2M313.3 312.8l-7.2-7.2M313.3 316.9l-7.2-7.2M313.3 321l-7.2-7.2M313.3 324.8l-7.2-7.2M313.3 328.9l-7.2-7.2M313.3 333l-7.2-7.2M313.3 336.8l-7.2-7.2M313.3 340.9l-7.2-7.2M313.3 345l-7.2-7.2M313.3 349l-7.2-7.2M313.3 352.9l-7.2-7.2M313.3 357l-7.2-7.2M313.3 361l-7.2-7.2M313.3 364.9l-7.2-7.2M313.3 369l-7.2-7.2M313.3 373l-7.2-7.2M309.3 373l-3.2-3.3M313.1 373l.2-.2M309 373l4.3-4.3M306.1 372.1l7.2-7.2M306.1 368l7.2-7.2M306.1 363.9l7.2-7.2M306.1 360.1l7.2-7.2M306.1 356l7.2-7.2M306.1 351.9l7.2-7.2M306.1 348.1l7.2-7.2M306.1 344l7.2-7.2M306.1 339.9l7.2-7.2M306.1 335.8l7.2-7.2M306.1 332l7.2-7.2M306.1 327.9l7.2-7.2M306.1 323.8l7.2-7.2M306.1 320l7.2-7.2M306.1 315.9l7.2-7.2M306.1 311.8l7.2-7.2M306.1 308l7.2-7.2M306.1 303.9l7.2-7.2M306.1 299.8l7.2-7.2M306.1 295.8l7.2-7.2M306.1 291.9l7.2-7.2M306.1 287.8l7.2-7.2M306.1 283.8l7.2-7.2M306.1 279.9l7.2-7.2M306.1 275.8l7.2-7.2M306.1 271.8l7.2-7.2M306.1 267.7l7.2-7.2M306.1 263.8l7.2-7.2M306.1 259.8l7.2-7.2M306.1 255.7l5.3-5.3M306.1 251.8l1.2-1.4"/><path class="cls-18" d="M313.1 373V250.4M305.9 373V250.4M305.9 373V250.4M313.1 373V250.4M313.1 373h-7.2"/><path class="cls-22" d="M253.6 209.6h15.3l-5.5-10.1h-9.8v10.1"/><path class="cls-16" d="M267.7 207.2l-7.6-7.7M266.1 209.6L256 199.5M262 209.6l-8.2-8.4M258.1 209.6l-4.3-4.3M254.1 209.6l-.3-.5M268 209.6l.7-.7M263.9 209.6l3.4-3.4M260.1 209.6l5.7-5.8M256 209.6l8.4-8.4M253.8 207.9l8.2-8.4M253.8 203.8l4.3-4.3M253.8 199.8l.3-.3"/><path class="cls-22" d="M253.6 209.6h15.3l-5.5-10.1h-9.8v10.1"/><path class="cls-16" d="M267.7 207.2l-7.6-7.7M266.1 209.6L256 199.5M262 209.6l-8.2-8.4M258.1 209.6l-4.3-4.3M254.1 209.6l-.3-.5M268 209.6l.7-.7M263.9 209.6l3.4-3.4M260.1 209.6l5.7-5.8M256 209.6l8.4-8.4M253.8 207.9l8.2-8.4M253.8 203.8l4.3-4.3M253.8 199.8l.3-.3"/><path class="cls-18" d="M263.4 199.5h-9.8M268.9 209.6h-15.3M268.9 209.6h-15.3M263.4 199.5h-9.8"/><path class="cls-17" d="M250.5 201h-29.3"/><path class="cls-1" d="M250.5 209.6h-29.3"/><path class="cls-17" d="M221.7 209.6h-.5"/><path class="cls-22" d="M253.6 209.6h-3.1V201h3.1"/><path class="cls-16" d="M253.8 201.2l-.5-.2M253.8 205.3l-3.1-3.1M253.8 209.1l-3.1-3.1M251.9 209.6l1.9-1.7M250.7 207l3.1-3.2M250.7 202.9l1.9-1.9"/><path class="cls-22" d="M218.1 209.6h3.1V201h-3.1"/><path class="cls-16" d="M221.4 204.8l-3.1-3.1M221.4 208.9l-3.1-3.1M220 209.6l1.4-1.4M218.3 207.2l3.1-3.1M218.3 203.4l2.2-2.4"/><path class="cls-18" d="M250.5 209.6V201M221.2 209.6V201M250.5 209.6V201M253.6 209.6h-3.1M221.2 209.6V201M218.1 209.6h3.1M253.6 199.5v1.5M218.1 199.5v1.5M253.6 209.6h-3.1M218.1 209.6h3.1M250.5 201h3.1M221.2 201h-3.1"/><path class="cls-22" d="M263.4 144.8l5.5-9.8h-58l7.2 9.8h45.3"/><path class="cls-16" d="M268.5 135.9l-.8-.9M267 138.6l-3.3-3.6M265.6 141l-6-6M264.1 143.6l-8.6-8.6M261.5 144.8l-9.8-9.8M257.4 144.8l-9.8-9.8M253.3 144.8l-9.8-9.8M249.5 144.8l-9.8-9.8M245.4 144.8l-9.8-9.8M241.3 144.8l-9.8-9.8M237.3 144.8l-9.9-9.8M233.4 144.8l-9.8-9.8M229.3 144.8l-9.8-9.8M225.3 144.8l-9.9-9.8M221.4 144.8l-9.8-9.8M260.5 144.8l6.8-6.5M256.7 144.8l9.8-9.8M252.6 144.8l9.9-9.8M248.5 144.8l9.9-9.8M244.7 144.8l9.8-9.8M240.6 144.8l9.9-9.8M236.5 144.8l9.9-9.8M232.7 144.8l9.8-9.8M228.6 144.8l9.9-9.8M224.5 144.8l9.9-9.8M220.5 144.8l9.8-9.8M217.6 143.8l8.9-8.8M215.9 141.4l6.5-6.4M214.2 139.3l4.1-4.3M212.3 136.9l2.2-1.9"/><path class="cls-22" d="M263.4 144.8l5.5-9.8h-58l7.2 9.8h45.3"/><path class="cls-16" d="M268.5 135.9l-.8-.9M267 138.6l-3.3-3.6M265.6 141l-6-6M264.1 143.6l-8.6-8.6M261.5 144.8l-9.8-9.8M257.4 144.8l-9.8-9.8M253.3 144.8l-9.8-9.8M249.5 144.8l-9.8-9.8M245.4 144.8l-9.8-9.8M241.3 144.8l-9.8-9.8M237.3 144.8l-9.9-9.8M233.4 144.8l-9.8-9.8M229.3 144.8l-9.8-9.8M225.3 144.8l-9.9-9.8M221.4 144.8l-9.8-9.8M260.5 144.8l6.8-6.5M256.7 144.8l9.8-9.8M252.6 144.8l9.9-9.8M248.5 144.8l9.9-9.8M244.7 144.8l9.8-9.8M240.6 144.8l9.9-9.8M236.5 144.8l9.9-9.8M232.7 144.8l9.8-9.8M228.6 144.8l9.9-9.8M224.5 144.8l9.9-9.8M220.5 144.8l9.8-9.8M217.6 143.8l8.9-8.8M215.9 141.4l6.5-6.4M214.2 139.3l4.1-4.3M212.3 136.9l2.2-1.9"/><path class="cls-18" d="M218.1 144.8h45.3M210.9 135h58M210.9 135h58M218.1 144.8h45.3M210.9 368h4.3"/><path class="cls-22" d="M215.2 341.8v-91.4h-4.3v91.4h4.3"/><path class="cls-16" d="M211.1 250.6v-.2M211.1 254.7l4.3-4.3M211.1 259l4.3-4.3M211.1 263.4l4.3-4.4M211.1 267.4l4.3-4.3M211.1 271.8l4.3-4.4M211.1 276.1l4.3-4.3M211.1 280.2l4.3-4.4M211.1 284.5l4.3-4.3M211.1 288.8l4.3-4.3M211.1 293.1l4.3-4.3M211.1 297.2l4.3-4.3M211.1 301.5l4.3-4.3M211.1 305.8l4.3-4.3M211.1 309.9l4.3-4.3M211.1 314.2l4.3-4.3M211.1 318.6l4.3-4.4M211.1 322.9l4.3-4.3M211.1 327l4.3-4.4M211.1 331.3l4.3-4.3M211.1 335.6l4.3-4.3M211.1 339.7l4.3-4.3M213.3 341.8l2.1-2.1"/><path class="cls-22" d="M215.2 341.8v-91.4h-4.3v91.4h4.3"/><path class="cls-16" d="M211.1 250.6v-.2M211.1 254.7l4.3-4.3M211.1 259l4.3-4.3M211.1 263.4l4.3-4.4M211.1 267.4l4.3-4.3M211.1 271.8l4.3-4.4M211.1 276.1l4.3-4.3M211.1 280.2l4.3-4.4M211.1 284.5l4.3-4.3M211.1 288.8l4.3-4.3M211.1 293.1l4.3-4.3M211.1 297.2l4.3-4.3M211.1 301.5l4.3-4.3M211.1 305.8l4.3-4.3M211.1 309.9l4.3-4.3M211.1 314.2l4.3-4.3M211.1 318.6l4.3-4.4M211.1 322.9l4.3-4.3M211.1 327l4.3-4.4M211.1 331.3l4.3-4.3M211.1 335.6l4.3-4.3M211.1 339.7l4.3-4.3M213.3 341.8l2.1-2.1"/><path class="cls-18" d="M210.9 250.4v91.4M215.2 250.4v91.4M215.2 250.4v91.4M210.9 250.4v91.4M215.2 250.4h-4.3"/><path class="cls-17" d="M210.9 343.5h4.3M210.9 366.3h4.3"/><path class="cls-18" d="M210.9 341.8h4.3M210.9 368h4.3"/><path class="cls-16" d="M215.1 366.3c12.4 0 22.7-10.2 22.7-22.7M215.2 343.5h22.5"/><path class="cls-22" d="M7.1 373h-7V215.8h7V373"/><path class="cls-16" d="M7.3 219.2l-3.6-3.4M7.3 223.3l-6.9-7M7.3 227.4l-6.9-7M7.3 231.4l-6.9-6.9M7.3 235.3l-6.9-7M7.3 239.4l-6.9-7M7.3 243.4l-6.9-6.9M7.3 247.3l-6.9-7M7.3 251.4l-6.9-7M7.3 255.4l-6.9-6.9M7.3 259.3l-6.9-7M7.3 263.4l-6.9-7M7.3 267.4l-6.9-6.9M7.3 271.5l-6.9-6.9M7.3 275.4l-6.9-7M7.3 279.4l-6.9-6.9M7.3 283.5l-6.9-6.9M7.3 287.4l-6.9-7M7.3 291.4l-6.9-6.9M7.3 295.5l-6.9-6.9M7.3 299.6l-6.9-7M7.3 303.4l-6.9-6.9M7.3 307.5l-6.9-6.9M7.3 311.6l-6.9-7M7.3 315.4l-6.9-6.9M7.3 319.5l-6.9-6.9M7.3 323.6l-6.9-7M7.3 327.4l-6.9-6.9M7.3 331.5l-6.9-6.9M7.3 335.6l-6.9-7M7.3 339.7l-6.9-7M7.3 343.5l-6.9-6.9M7.3 347.6l-6.9-7M7.3 351.7l-6.9-7M7.3 355.5l-6.9-6.9M7.3 359.6l-6.9-7M7.3 363.7l-6.9-7M7.3 367.5l-6.9-6.9M7.3 371.6l-6.9-7M4.7 373l-4.3-4.3M.6 373l-.2-.2M4.5 373l2.8-2.8M.4 373l6.9-6.9M.4 369.2l6.9-7M.4 365.1l6.9-6.9M.4 361l6.9-6.9M.4 357l6.9-7M.4 353.1l6.9-6.9M.4 349l6.9-6.9M.4 345l6.9-7M.4 341.1l6.9-6.9M.4 337l6.9-6.9M.4 333l6.9-7M.4 329.1l6.9-6.9M.4 325l6.9-6.9M.4 321l6.9-7M.4 316.9l6.9-7M.4 313l6.9-6.9M.4 309l6.9-7M.4 304.9l6.9-7M.4 301l6.9-6.9M.4 297l6.9-7M.4 292.9l6.9-7M.4 289l6.9-6.9M.4 285l6.9-7M.4 280.9l6.9-7M.4 276.8l6.9-7M.4 273l6.9-7M.4 268.9l6.9-7M.4 264.8l6.9-7M.4 261l6.9-7M.4 256.9l6.9-7M.4 252.8l6.9-7M.4 249l6.9-7M.4 244.9l6.9-7M.4 240.8l6.9-7M.4 236.7l6.9-6.9M.4 232.9l6.9-7M.4 228.8l6.9-7M.4 224.7l6.9-6.9M.4 220.9l4.8-5.1M.4 216.8l.7-1"/><path class="cls-22" d="M.1 373h7V215.8h-7V373"/><path class="cls-16" d="M7.3 219.2l-3.6-3.4M7.3 223.3l-6.9-7M7.3 227.4l-6.9-7M7.3 231.4l-6.9-6.9M7.3 235.3l-6.9-7M7.3 239.4l-6.9-7M7.3 243.4l-6.9-6.9M7.3 247.3l-6.9-7M7.3 251.4l-6.9-7M7.3 255.4l-6.9-6.9M7.3 259.3l-6.9-7M7.3 263.4l-6.9-7M7.3 267.4l-6.9-6.9M7.3 271.5l-6.9-6.9M7.3 275.4l-6.9-7M7.3 279.4l-6.9-6.9M7.3 283.5l-6.9-6.9M7.3 287.4l-6.9-7M7.3 291.4l-6.9-6.9M7.3 295.5l-6.9-6.9M7.3 299.6l-6.9-7M7.3 303.4l-6.9-6.9M7.3 307.5l-6.9-6.9M7.3 311.6l-6.9-7M7.3 315.4l-6.9-6.9M7.3 319.5l-6.9-6.9M7.3 323.6l-6.9-7M7.3 327.4l-6.9-6.9M7.3 331.5l-6.9-6.9M7.3 335.6l-6.9-7M7.3 339.7l-6.9-7M7.3 343.5l-6.9-6.9M7.3 347.6l-6.9-7M7.3 351.7l-6.9-7M7.3 355.5l-6.9-6.9M7.3 359.6l-6.9-7M7.3 363.7l-6.9-7M7.3 367.5l-6.9-6.9M7.3 371.6l-6.9-7M4.7 373l-4.3-4.3M.6 373l-.2-.2M4.5 373l2.8-2.8M.4 373l6.9-6.9M.4 369.2l6.9-7M.4 365.1l6.9-6.9M.4 361l6.9-6.9M.4 357l6.9-7M.4 353.1l6.9-6.9M.4 349l6.9-6.9M.4 345l6.9-7M.4 341.1l6.9-6.9M.4 337l6.9-6.9M.4 333l6.9-7M.4 329.1l6.9-6.9M.4 325l6.9-6.9M.4 321l6.9-7M.4 316.9l6.9-7M.4 313l6.9-6.9M.4 309l6.9-7M.4 304.9l6.9-7M.4 301l6.9-6.9M.4 297l6.9-7M.4 292.9l6.9-7M.4 289l6.9-6.9M.4 285l6.9-7M.4 280.9l6.9-7M.4 276.8l6.9-7M.4 273l6.9-7M.4 268.9l6.9-7M.4 264.8l6.9-7M.4 261l6.9-7M.4 256.9l6.9-7M.4 252.8l6.9-7M.4 249l6.9-7M.4 244.9l6.9-7M.4 240.8l6.9-7M.4 236.7l6.9-6.9M.4 232.9l6.9-7M.4 228.8l6.9-7M.4 224.7l6.9-6.9M.4 220.9l4.8-5.1M.4 216.8l.7-1"/><path class="cls-18" d="M7.1 373V215.8M.1 373V215.8M.1 373V215.8M7.1 373V215.8M7.1 373h-7"/><path class="cls-22" d="M7.1 215.8h-7V52.2h7v163.6"/><path class="cls-16" d="M7.3 55l-2.8-2.8M7.3 58.9L.4 52.2M7.3 63L.4 56M7.3 67L.4 60.1M7.3 70.9l-6.9-7M7.3 75L.4 68M7.3 79L.4 72.1M7.3 83.1L.4 76.2M7.3 87L.4 80M7.3 91L.4 84.1M7.3 95.1L.4 88.2M7.3 99L.4 92M7.3 103L.4 96.1M7.3 107.1l-6.9-6.9M7.3 111l-6.9-7M7.3 115l-6.9-6.9M7.3 119.1l-6.9-6.9M7.3 123.2l-6.9-7M7.3 127l-6.9-6.9M7.3 131.1l-6.9-6.9M7.3 135.2l-6.9-7M7.3 139l-6.9-6.9M7.3 143.1l-6.9-6.9M7.3 147.2l-6.9-7M7.3 151.3l-6.9-7M7.3 155.1l-6.9-6.9M7.3 159.2l-6.9-7M7.3 163.3l-6.9-7M7.3 167.1l-6.9-6.9M7.3 171.2l-6.9-7M7.3 175.3l-6.9-7M7.3 179.1l-6.9-6.9M7.3 183.2l-6.9-7M7.3 187.3l-6.9-7M7.3 191.4l-6.9-7M7.3 195.2l-6.9-7M7.3 199.3l-6.9-7M7.3 203.4l-6.9-7M7.3 207.2l-6.9-7M7.3 211.3l-6.9-7M7.3 215.4l-6.9-7M3.7 215.8l-3.3-3.6M5.2 215.8l2.1-1.9M1.1 215.8l6.2-6M.4 212.7l6.9-6.9M.4 208.6l6.9-6.9M.4 204.8l6.9-7M.4 200.7l6.9-6.9M.4 196.6l6.9-6.9M.4 192.8l6.9-7M.4 188.7l6.9-6.9M.4 184.6l6.9-6.9M.4 180.8l6.9-7M.4 176.7l6.9-6.9M.4 172.6l6.9-6.9M.4 168.6l6.9-7M.4 164.7l6.9-6.9M.4 160.6l6.9-6.9M.4 156.6l6.9-7M.4 152.7l6.9-6.9M.4 148.6l6.9-6.9M.4 144.6l6.9-7M.4 140.7l6.9-6.9M.4 136.6l6.9-6.9M.4 132.6l6.9-7M.4 128.5l6.9-7M.4 124.6l6.9-6.9M.4 120.6l6.9-7M.4 116.5l6.9-7M.4 112.6l6.9-6.9M.4 108.6l6.9-7M.4 104.5l6.9-7M.4 100.4l6.9-7M.4 96.6l6.9-7M.4 92.5l6.9-7M.4 88.4l6.9-7M.4 84.6l6.9-7M.4 80.5l6.9-7M.4 76.4l6.9-7M.4 72.6l6.9-7M.4 68.5l6.9-7M.4 64.4l6.9-7M.4 60.3l6.9-6.9M.4 56.5l4.1-4.3M.4 52.4l.2-.2"/><path class="cls-22" d="M.1 215.8h7V52.2h-7v163.6"/><path class="cls-16" d="M7.3 55l-2.8-2.8M7.3 58.9L.4 52.2M7.3 63L.4 56M7.3 67L.4 60.1M7.3 70.9l-6.9-7M7.3 75L.4 68M7.3 79L.4 72.1M7.3 83.1L.4 76.2M7.3 87L.4 80M7.3 91L.4 84.1M7.3 95.1L.4 88.2M7.3 99L.4 92M7.3 103L.4 96.1M7.3 107.1l-6.9-6.9M7.3 111l-6.9-7M7.3 115l-6.9-6.9M7.3 119.1l-6.9-6.9M7.3 123.2l-6.9-7M7.3 127l-6.9-6.9M7.3 131.1l-6.9-6.9M7.3 135.2l-6.9-7M7.3 139l-6.9-6.9M7.3 143.1l-6.9-6.9M7.3 147.2l-6.9-7M7.3 151.3l-6.9-7M7.3 155.1l-6.9-6.9M7.3 159.2l-6.9-7M7.3 163.3l-6.9-7M7.3 167.1l-6.9-6.9M7.3 171.2l-6.9-7M7.3 175.3l-6.9-7M7.3 179.1l-6.9-6.9M7.3 183.2l-6.9-7M7.3 187.3l-6.9-7M7.3 191.4l-6.9-7M7.3 195.2l-6.9-7M7.3 199.3l-6.9-7M7.3 203.4l-6.9-7M7.3 207.2l-6.9-7M7.3 211.3l-6.9-7M7.3 215.4l-6.9-7M3.7 215.8l-3.3-3.6M5.2 215.8l2.1-1.9M1.1 215.8l6.2-6M.4 212.7l6.9-6.9M.4 208.6l6.9-6.9M.4 204.8l6.9-7M.4 200.7l6.9-6.9M.4 196.6l6.9-6.9M.4 192.8l6.9-7M.4 188.7l6.9-6.9M.4 184.6l6.9-6.9M.4 180.8l6.9-7M.4 176.7l6.9-6.9M.4 172.6l6.9-6.9M.4 168.6l6.9-7M.4 164.7l6.9-6.9M.4 160.6l6.9-6.9M.4 156.6l6.9-7M.4 152.7l6.9-6.9M.4 148.6l6.9-6.9M.4 144.6l6.9-7M.4 140.7l6.9-6.9M.4 136.6l6.9-6.9M.4 132.6l6.9-7M.4 128.5l6.9-7M.4 124.6l6.9-6.9M.4 120.6l6.9-7M.4 116.5l6.9-7M.4 112.6l6.9-6.9M.4 108.6l6.9-7M.4 104.5l6.9-7M.4 100.4l6.9-7M.4 96.6l6.9-7M.4 92.5l6.9-7M.4 88.4l6.9-7M.4 84.6l6.9-7M.4 80.5l6.9-7M.4 76.4l6.9-7M.4 72.6l6.9-7M.4 68.5l6.9-7M.4 64.4l6.9-7M.4 60.3l6.9-6.9M.4 56.5l4.1-4.3M.4 52.4l.2-.2"/><path class="cls-18" d="M7.1 215.8V52.2M.1 215.8V52.2M7.1 52.2h-7M.1 215.8V52.2M7.1 215.8V52.2"/><path class="cls-22" d="M176.1 156.3l-4.4-4.1H97.3v4.1h78.8"/><path class="cls-16" d="M97.6 155.8l3.3-3.6M101.2 156.3l4.1-4.1M105.5 156.3l4.1-4.1M109.6 156.3l4.1-4.1M113.9 156.3l4.1-4.1M118.2 156.3l4.1-4.1M122.5 156.3l4.1-4.1M126.6 156.3l4.1-4.1M130.9 156.3l4.1-4.1M135.3 156.3l4-4.1M139.3 156.3l4.1-4.1M143.7 156.3l4-4.1M148 156.3l4.1-4.1M152.3 156.3l4.1-4.1M156.4 156.3l4.1-4.1M160.7 156.3l4.1-4.1M165 156.3l4.1-4.1M169.1 156.3l3.6-3.3M173.4 156.3l1.5-1.4"/><path class="cls-22" d="M176.1 156.3l-4.4-4.1H97.3v4.1h78.8"/><path class="cls-16" d="M97.6 155.8l3.3-3.6M101.2 156.3l4.1-4.1M105.5 156.3l4.1-4.1M109.6 156.3l4.1-4.1M113.9 156.3l4.1-4.1M118.2 156.3l4.1-4.1M122.5 156.3l4.1-4.1M126.6 156.3l4.1-4.1M130.9 156.3l4.1-4.1M135.3 156.3l4-4.1M139.3 156.3l4.1-4.1M143.7 156.3l4-4.1M148 156.3l4.1-4.1M152.3 156.3l4.1-4.1M156.4 156.3l4.1-4.1M160.7 156.3l4.1-4.1M165 156.3l4.1-4.1M169.1 156.3l3.6-3.3M173.4 156.3l1.5-1.4"/><path class="cls-18" d="M158.3 156.3h17.8M115.1 156.3H154M97.3 156.3h15.9M97.3 152.2h74.4M97.3 152.2h74.4M158.3 156.3h17.8M115.1 156.3H154M97.3 156.3h15.9M114.4 156.3h.7M113.2 156.3h1.2"/><path class="cls-22" d="M158.3 156.3H154v2.9h4.3v-2.9"/><path class="cls-16" d="M154.2 158.7l2.2-2.4M157.8 159.2l.7-.7"/><path class="cls-22" d="M158.3 156.3H154v2.9h4.3v-2.9"/><path class="cls-16" d="M154.2 158.7l2.2-2.4M157.8 159.2l.7-.7"/><path class="cls-18" d="M158.3 159.2v-2.9M154 159.2v-2.9M154 159.2v-2.9M158.3 159.2v-2.9"/><path class="cls-22" d="M158.3 190.6H154v-4.8h4.3v4.8"/><path class="cls-16" d="M154.2 188.5l2.4-2.7M156.1 190.6l2.4-2.4"/><path class="cls-22" d="M154 190.6h4.3v-4.8H154v4.8"/><path class="cls-16" d="M154.2 188.5l2.4-2.7M156.1 190.6l2.4-2.4"/><path class="cls-18" d="M158.3 190.6v-4.8M158.3 190.6v-4.8"/><path class="cls-22" d="M154 217.3v37.9l4.3 4.3v-42.2H154"/><path class="cls-16" d="M154.2 218.2l.7-.9M154.2 222.3l4.3-4.3M154.2 226.6l4.3-4.3M154.2 231l4.3-4.4M154.2 235l4.3-4.3M154.2 239.4l4.3-4.4M154.2 243.7l4.3-4.3M154.2 248l4.3-4.3M154.2 252.1l4.3-4.3M154.7 255.9l3.8-3.8M156.9 257.8l1.6-1.4"/><path class="cls-22" d="M154 217.3v37.9l4.3 4.3v-42.2H154"/><path class="cls-16" d="M154.2 218.2l.7-.9M154.2 222.3l4.3-4.3M154.2 226.6l4.3-4.3M154.2 231l4.3-4.4M154.2 235l4.3-4.3M154.2 239.4l4.3-4.4M154.2 243.7l4.3-4.3M154.2 248l4.3-4.3M154.2 252.1l4.3-4.3M154.7 255.9l3.8-3.8M156.9 257.8l1.6-1.4"/><path class="cls-18" d="M158.3 255.9v-38.6M154 255.2v-37.9M154 255.2v-37.9M158.3 255.9v-38.6"/><path class="cls-1" d="M158.3 217.3v-26.7M154 217.3v-26.7"/><path class="cls-17" d="M158.3 215.4H154M158.3 192.6H154"/><path class="cls-18" d="M158.3 217.3H154M158.3 190.6H154"/><path class="cls-16" d="M181 215.3c0-12.4-10.2-22.7-22.7-22.7M158.3 215.4h22.6"/><path class="cls-1" d="M158.3 185.8v-26.6M154 185.8v-26.6"/><path class="cls-17" d="M158.3 183.7H154M158.3 161.1H154"/><path class="cls-18" d="M158.3 185.8H154M158.3 159.2H154"/><path class="cls-16" d="M158.3 183.7c12.4 0 22.7-10.2 22.7-22.7M158.3 161.1h22.6"/><path class="cls-22" d="M93 189.9v-4.1H33.7v4.1H93"/><path class="cls-16" d="M34 189.7l3.6-3.9M37.8 189.9l4.1-4.1M42.1 189.9l4.1-4.1M46.2 189.9l4.1-4.1M50.5 189.9l4.1-4.1M54.9 189.9l4-4.1M59.2 189.9l4.1-4.1M63.3 189.9l4-4.1M67.6 189.9l4.1-4.1M71.9 189.9l4.1-4.1M76 189.9l4.1-4.1M80.3 189.9l4.1-4.1M84.6 189.9l4.1-4.1M88.9 189.9l4.1-4.1M93 189.9h.3"/><path class="cls-22" d="M93 189.9v-4.1H33.7v4.1H93"/><path class="cls-16" d="M34 189.7l3.6-3.9M37.8 189.9l4.1-4.1M42.1 189.9l4.1-4.1M46.2 189.9l4.1-4.1M50.5 189.9l4.1-4.1M54.9 189.9l4-4.1M59.2 189.9l4.1-4.1M63.3 189.9l4-4.1M67.6 189.9l4.1-4.1M71.9 189.9l4.1-4.1M76 189.9l4.1-4.1M80.3 189.9l4.1-4.1M84.6 189.9l4.1-4.1M88.9 189.9l4.1-4.1M93 189.9h.3"/><path class="cls-18" d="M33.7 189.9H93M33.7 185.8H93M33.7 185.8H93M33.7 189.9H93M7.1 185.8v4.1"/><path class="cls-17" d="M9.3 189.9v-4.1M31.8 189.9v-4.1"/><path class="cls-18" d="M7.1 189.9v-4.1M33.7 189.9v-4.1"/><path class="cls-16" d="M9.2 212.6c12.4 0 22.7-10.2 22.7-22.7M9.3 189.9v22.8"/><path class="cls-22" d="M93 245.4V241H33.7v4.4H93"/><path class="cls-16" d="M34 244.9l3.8-3.9M37.6 245.4l4.3-4.4M41.9 245.4l4.3-4.4M46.2 245.4l4.3-4.4M50.3 245.4l4.3-4.4M54.6 245.4l4.3-4.4M58.9 245.4l4.4-4.4M63.3 245.4l4.3-4.4M67.3 245.4l4.4-4.4M71.7 245.4L76 241M76 245.4l4.3-4.4M80.1 245.4l4.3-4.4M84.4 245.4l4.3-4.4M88.7 245.4L93 241M92.8 245.4l.5-.3"/><path class="cls-22" d="M93 245.4V241H33.7v4.4H93"/><path class="cls-16" d="M34 244.9l3.8-3.9M37.6 245.4l4.3-4.4M41.9 245.4l4.3-4.4M46.2 245.4l4.3-4.4M50.3 245.4l4.3-4.4M54.6 245.4l4.3-4.4M58.9 245.4l4.4-4.4M63.3 245.4l4.3-4.4M67.3 245.4l4.4-4.4M71.7 245.4L76 241M76 245.4l4.3-4.4M80.1 245.4l4.3-4.4M84.4 245.4l4.3-4.4M88.7 245.4L93 241M92.8 245.4l.5-.3"/><path class="cls-18" d="M33.7 245.4H93M33.7 241H93M33.7 241H93M33.7 245.4H93M7.1 241v4.4"/><path class="cls-17" d="M9.3 245.4V241M31.8 245.4V241"/><path class="cls-18" d="M7.1 245.4V241M33.7 245.4V241"/><path class="cls-16" d="M31.9 241c0-12.4-10.2-22.7-22.7-22.7M9.3 241v-22.8"/><path class="cls-22" d="M154 190.6v-4.8H97.3v4.8H154"/><path class="cls-16" d="M97.6 189.7l3.8-3.9M100.9 190.6l4.8-4.8M105 190.6l4.8-4.8M109.3 190.6l4.8-4.8M113.7 190.6l4.8-4.8M118 190.6l4.8-4.8M122.1 190.6l4.8-4.8M126.4 190.6l4.8-4.8M130.7 190.6l4.8-4.8M134.8 190.6l4.8-4.8M139.1 190.6l4.8-4.8M143.4 190.6l4.8-4.8M147.5 190.6l4.8-4.8M151.8 190.6l2.4-2.1"/><path class="cls-22" d="M154 190.6v-4.8H97.3v4.8H154"/><path class="cls-16" d="M97.6 189.7l3.8-3.9M100.9 190.6l4.8-4.8M105 190.6l4.8-4.8M109.3 190.6l4.8-4.8M113.7 190.6l4.8-4.8M118 190.6l4.8-4.8M122.1 190.6l4.8-4.8M126.4 190.6l4.8-4.8M130.7 190.6l4.8-4.8M134.8 190.6l4.8-4.8M139.1 190.6l4.8-4.8M143.4 190.6l4.8-4.8M147.5 190.6l4.8-4.8M151.8 190.6l2.4-2.1"/><path class="cls-18" d="M97.3 190.6H154M115.1 185.8H154M97.3 185.8h15.9M115.1 185.8H154M97.3 190.6H154M97.3 185.8h15.9M114.4 185.8h.7M113.2 185.8h1.2"/><path class="cls-22" d="M158.3 259.5l-4.3-4.3H97.3v4.3h61"/><path class="cls-16" d="M97.6 257.8l2.4-2.6M100 259.5l4.3-4.3M104.3 259.5l4.3-4.3M108.4 259.5l4.3-4.3M112.7 259.5l4.3-4.3M117 259.5l4.3-4.3M121.3 259.5l4.4-4.3M125.4 259.5l4.3-4.3M129.7 259.5l4.4-4.3M134.1 259.5l4.3-4.3M138.1 259.5l4.4-4.3M142.5 259.5l4.3-4.3M146.8 259.5l4.3-4.3M151.1 259.5l3.6-3.6M155.2 259.5l1.7-1.7"/><path class="cls-22" d="M158.3 259.5l-4.3-4.3H97.3v4.3h61"/><path class="cls-16" d="M97.6 257.8l2.4-2.6M100 259.5l4.3-4.3M104.3 259.5l4.3-4.3M108.4 259.5l4.3-4.3M112.7 259.5l4.3-4.3M117 259.5l4.3-4.3M121.3 259.5l4.4-4.3M125.4 259.5l4.3-4.3M129.7 259.5l4.4-4.3M134.1 259.5l4.3-4.3M138.1 259.5l4.4-4.3M142.5 259.5l4.3-4.3M146.8 259.5l4.3-4.3M151.1 259.5l3.6-3.6M155.2 259.5l1.7-1.7"/><path class="cls-18" d="M97.3 259.5h61M97.3 255.2H154M97.3 255.2H154M97.3 259.5h61"/><path class="cls-17" d="M175.8 234.6h.7v15.6h-.7zM159.5 249.4h16.3v.7h-16.3zM159 219h.5v31.2h-.5zM175.8 250.2h.7v1h-.7zM175.8 219h.7v15.6h-.7zM159.5 219h16.3v.5h-16.3zM158.8 218.2h17.8v.7h-17.8z"/><path class="cls-21" d="M160.9 249.4h9.8v2.6h-9.8z"/><path class="cls-17" d="M160.9 249.4h9.8v2.6h-9.8zM160.7 249.4z"/><path class="cls-19" d="M161.7 249.4v-8.6"/><path class="cls-3" d="M161.7 240.8l1.6.2 1.7.5 1.5.7 1.2 1.2 1.2 1.2.7 1.5.5 1.7.2 1.6"/><path class="cls-22" d="M172.5 255.9l3.6 3.6v-7.9h-3.6v4.3"/><path class="cls-16" d="M172.7 255l3.1-3.4M174.1 257.6l2.2-1.9"/><path class="cls-22" d="M172.5 255.9l3.6 3.6v-7.9h-3.6v4.3"/><path class="cls-16" d="M172.7 255l3.1-3.4M174.1 257.6l2.2-1.9"/><path class="cls-18" d="M172.5 251.6v4.3M176.1 251.6v7.9M176.1 251.6v7.9M172.5 251.6v4.3M172.5 251.6h3.6"/><path class="cls-22" d="M176.1 259.5l-3.6-3.6h-14.2v3.6h17.8"/><path class="cls-16" d="M158.5 256.4l.3-.5M159.5 259.5l3.6-3.6M163.8 259.5l3.6-3.6M167.9 259.5l3.6-3.6M172.2 259.5l1.9-1.9"/><path class="cls-22" d="M176.1 259.5l-3.6-3.6h-14.2v3.6h17.8"/><path class="cls-16" d="M158.5 256.4l.3-.5M159.5 259.5l3.6-3.6M163.8 259.5l3.6-3.6M167.9 259.5l3.6-3.6M172.2 259.5l1.9-1.9"/><path class="cls-18" d="M158.3 259.5h17.8M158.3 255.9h14.2M158.3 255.9h14.2M158.3 259.5h17.8"/><path class="cls-1" d="M176.1 156.3v61.5"/><path class="cls-18" d="M93 368h4.3"/><path class="cls-22" d="M97.3 341.8V89.1L93 84.8v257h4.3"/><path class="cls-16" d="M93.3 87.9l1.4-1.7M93.3 92l3.6-3.6M93.3 96.3l4.3-4.3M93.3 100.6l4.3-4.3M93.3 105l4.3-4.4M93.3 109l4.3-4.3M93.3 113.4l4.3-4.4M93.3 117.7l4.3-4.3M93.3 121.8l4.3-4.4M93.3 126.1l4.3-4.3M93.3 130.4l4.3-4.3M93.3 134.7l4.3-4.3M93.3 138.8l4.3-4.3M93.3 143.1l4.3-4.3M93.3 147.4l4.3-4.3M93.3 151.5l4.3-4.3M93.3 155.8l4.3-4.3M93.3 160.2l4.3-4.4M93.3 164.5l4.3-4.3M93.3 168.6l4.3-4.4M93.3 172.9l4.3-4.3M93.3 177.2l4.3-4.3M93.3 181.3l4.3-4.3M93.3 185.6l4.3-4.3M93.3 189.9l4.3-4.3M93.3 194l4.3-4.3M93.3 198.3l4.3-4.3M93.3 202.6l4.3-4.3M93.3 207l4.3-4.4M93.3 211l4.3-4.3M93.3 215.4l4.3-4.4M93.3 219.7l4.3-4.3M93.3 223.8l4.3-4.4M93.3 228.1l4.3-4.3M93.3 232.4l4.3-4.3M93.3 236.7l4.3-4.3M93.3 240.8l4.3-4.3M93.3 245.1l4.3-4.3M93.3 249.4l4.3-4.3M93.3 253.5l4.3-4.3M93.3 257.8l4.3-4.3M93.3 262.2l4.3-4.4M93.3 266.5l4.3-4.3M93.3 270.6l4.3-4.4M93.3 274.9l4.3-4.3M93.3 279.2l4.3-4.3M93.3 283.3l4.3-4.3M93.3 287.6l4.3-4.3M93.3 291.9l4.3-4.3M93.3 296l4.3-4.3M93.3 300.3l4.3-4.3M93.3 304.6l4.3-4.3M93.3 309l4.3-4.4M93.3 313l4.3-4.3M93.3 317.4l4.3-4.4M93.3 321.7l4.3-4.3M93.3 325.8l4.3-4.4M93.3 330.1l4.3-4.3M93.3 334.4l4.3-4.3M93.3 338.7l4.3-4.3M94.2 341.8l3.4-3.3"/><path class="cls-22" d="M97.3 341.8V89.1L93 84.8v257h4.3"/><path class="cls-16" d="M93.3 87.9l1.4-1.7M93.3 92l3.6-3.6M93.3 96.3l4.3-4.3M93.3 100.6l4.3-4.3M93.3 105l4.3-4.4M93.3 109l4.3-4.3M93.3 113.4l4.3-4.4M93.3 117.7l4.3-4.3M93.3 121.8l4.3-4.4M93.3 126.1l4.3-4.3M93.3 130.4l4.3-4.3M93.3 134.7l4.3-4.3M93.3 138.8l4.3-4.3M93.3 143.1l4.3-4.3M93.3 147.4l4.3-4.3M93.3 151.5l4.3-4.3M93.3 155.8l4.3-4.3M93.3 160.2l4.3-4.4M93.3 164.5l4.3-4.3M93.3 168.6l4.3-4.4M93.3 172.9l4.3-4.3M93.3 177.2l4.3-4.3M93.3 181.3l4.3-4.3M93.3 185.6l4.3-4.3M93.3 189.9l4.3-4.3M93.3 194l4.3-4.3M93.3 198.3l4.3-4.3M93.3 202.6l4.3-4.3M93.3 207l4.3-4.4M93.3 211l4.3-4.3M93.3 215.4l4.3-4.4M93.3 219.7l4.3-4.3M93.3 223.8l4.3-4.4M93.3 228.1l4.3-4.3M93.3 232.4l4.3-4.3M93.3 236.7l4.3-4.3M93.3 240.8l4.3-4.3M93.3 245.1l4.3-4.3M93.3 249.4l4.3-4.3M93.3 253.5l4.3-4.3M93.3 257.8l4.3-4.3M93.3 262.2l4.3-4.4M93.3 266.5l4.3-4.3M93.3 270.6l4.3-4.4M93.3 274.9l4.3-4.3M93.3 279.2l4.3-4.3M93.3 283.3l4.3-4.3M93.3 287.6l4.3-4.3M93.3 291.9l4.3-4.3M93.3 296l4.3-4.3M93.3 300.3l4.3-4.3M93.3 304.6l4.3-4.3M93.3 309l4.3-4.4M93.3 313l4.3-4.3M93.3 317.4l4.3-4.4M93.3 321.7l4.3-4.3M93.3 325.8l4.3-4.4M93.3 330.1l4.3-4.3M93.3 334.4l4.3-4.3M93.3 338.7l4.3-4.3M94.2 341.8l3.4-3.3"/><path class="cls-18" d="M93 245.4v96.4M93 189.9V241M93 84.8v101M97.3 259.5v82.3M97.3 190.6v64.6M97.3 156.3v29.5M97.3 89.1v63.1M97.3 259.5v82.3M93 245.4v96.4M97.3 190.6v64.6M93 189.9V241M97.3 156.3v29.5M93 84.8v101M97.3 89.1v63.1"/><path class="cls-17" d="M93 343.5h4.3M93 366.3h4.3"/><path class="cls-18" d="M93 341.8h4.3M93 368h4.3"/><path class="cls-16" d="M70.4 343.6c0 12.4 10.2 22.7 22.7 22.7M93 343.5H70.5"/><path class="cls-22" d="M107.4 89.1l-4.3-4.3H93l4.3 4.3h10.1"/><path class="cls-16" d="M94.7 86.2l1.4-1.4M96.9 88.4l3.6-3.6M100.5 89.1l3.6-3.6M104.5 89.1l1.5-1.4"/><path class="cls-22" d="M107.4 89.1l-4.3-4.3H93l4.3 4.3h10.1"/><path class="cls-16" d="M94.7 86.2l1.4-1.4M96.9 88.4l3.6-3.6M100.5 89.1l3.6-3.6M104.5 89.1l1.5-1.4"/><path class="cls-18" d="M97.3 89.1h10.1M93 84.8h10.1M93 84.8h10.1M97.3 89.1h10.1M107.4 57.2h-4.3"/><path class="cls-22" d="M107.4 84.8h-4.3l4.3 4.3v-4.3"/><path class="cls-16" d="M104.1 85.5l.7-.7M106 87.7l1.7-1.5"/><path class="cls-22" d="M107.4 84.8h-4.3l4.3 4.3v-4.3"/><path class="cls-16" d="M104.1 85.5l.7-.7M106 87.7l1.7-1.5"/><path class="cls-18" d="M107.4 89.1v-4.3M107.4 89.1v-4.3"/><path class="cls-17" d="M107.4 82.4h-4.3M107.4 59.8h-4.3"/><path class="cls-18" d="M107.4 84.8h-4.3M107.4 57.2h-4.3"/><path class="cls-16" d="M103.2 59.7c-12.4 0-22.7 10.2-22.7 22.7M103.1 82.4H80.5"/><path class="cls-22" d="M171.7 135v17.2l4.4 4.1V135h-4.4"/><path class="cls-16" d="M172 136.6l1.7-1.6M172 141l4.3-4.4M172 145l4.3-4.3M172 149.4l4.3-4.4M172.7 153l3.6-3.6M174.9 154.9l1.4-1.2"/><path class="cls-22" d="M171.7 135v17.2l4.4 4.1V135h-4.4"/><path class="cls-16" d="M172 136.6l1.7-1.6M172 141l4.3-4.4M172 145l4.3-4.3M172 149.4l4.3-4.4M172.7 153l3.6-3.6M174.9 154.9l1.4-1.2"/><path class="cls-18" d="M176.1 156.3V135M171.7 152.2V135M176.1 135h-4.4M171.7 152.2V135M176.1 156.3V135"/><path class="cls-21" d="M309 3.9h1v35.8h-1z"/><path class="cls-17" d="M309 3.9h1v35.8h-1zM204.1 42.6l7-42.6h102"/><path class="cls-17" d="M205.8 42.6l6.7-40.8h100.6"/><path class="cls-14" d="M205.8 42.6v9.6"/><path class="cls-17" d="M114.4 382.6l3.3 55.2h74l3.6-55.2"/><path class="cls-17" d="M112.7 382.6l3.4 56.9h77.2l3.6-56.9"/><path class="cls-22" d="M313.1 135l-5.3-1.2 1.7 4 3.6-2.8"/><path class="cls-16" d="M312.4 135.7l-1.2-1.2M310.2 137.4l-1.2-1.2M309 136.4l2.2-1.9M228.4 46.4h59.3V50h-59.3zM51.6 52.2v1.9c0 .6-.2 1.2-.3 1.8-.1.6-.3 1.2-.5 1.8l-.6 1.8c-.2.6-.5 1.1-.8 1.7-.3.5-.6 1.1-1 1.6-.3.5-.7 1-1.1 1.5-.4.5-.8.9-1.3 1.4-.4.4-.9.9-1.4 1.3-.5.4-1 .8-1.5 1.1-.5.3-1 .7-1.6 1-.5.3-1.1.6-1.7.8l-1.8.6c-.6.2-1.2.3-1.8.5l-1.8.3h-1.9M32.5 71.1V52.2M51.5 52.2l.2 1.4M51.7 55l.3 1M52 56l.2.5"/><path class="cls-10" d="M52.5 57.7l.4 1.7"/><path class="cls-16" d="M53.7 60.6l.2.7M53.9 61.3l.5.5M55.1 63l.7 1.2"/><path class="cls-12" d="M55.8 64.2l1.2 1.4"/><path class="cls-16" d="M57 65.6l1 .7M58.9 67.3l1 .7"/><path class="cls-20" d="M59.9 68l1.7 1"/><path class="cls-16" d="M61.6 69l.9.4M64 69.9l.9.5"/><path class="cls-9" d="M64.9 70.4l2 .5"/><path class="cls-16" d="M66.9 70.9l1.2.2M69.5 71.1h1"/><path class="cls-5" d="M70.5 71.1V52.2"/><path class="cls-16" d="M70.5 52.6v-.4M124.7 72.2c11 0 20.1-9.1 20.1-20.1M124.7 72.3V52.2"/><path class="cls-5" d="M165 72.3l-4.1-.5-3.6-1.2-3.6-1.9-3.1-2.4-2.4-3.1-1.9-3.4-1.2-3.8-.2-3.8"/><path class="cls-13" d="M165 72.3V52.2"/><path class="cls-16" d="M51.6 373.1v-1.9c0-.6-.2-1.2-.3-1.8-.1-.6-.3-1.2-.5-1.8l-.6-1.8c-.2-.6-.5-1.1-.8-1.7-.3-.5-.6-1.1-1-1.6-.3-.5-.7-1-1.1-1.5-.4-.5-.8-.9-1.3-1.4-.4-.4-.9-.9-1.4-1.3-.5-.4-1-.8-1.5-1.1-.5-.3-1-.7-1.6-1-.5-.3-1.1-.6-1.7-.8l-1.8-.6c-.6-.2-1.2-.3-1.8-.5l-1.8-.3h-1.9M32.5 354.1V373M51.5 373l.2-1.4M52 370.2v-.8M52 369.4l.2-.7"/><path class="cls-10" d="M52.5 367.5l.4-1.7"/><path class="cls-16" d="M53.7 364.6l.2-.4M53.9 364.2l.5-.8M55.1 362.2l.7-1.2"/><path class="cls-12" d="M55.8 361l1.2-1.4"/><path class="cls-16" d="M57 359.6l1-.7M58.9 357.9l1-.7"/><path class="cls-20" d="M59.9 357.2l1.7-1"/><path class="cls-16" d="M61.6 356.2l.9-.4M64 355.3l.9-.3"/><path class="cls-15" d="M64.9 355l2-.4"/><path class="cls-16" d="M66.9 354.6l1.4-.3M69.7 354.1h.8"/><path class="cls-5" d="M70.5 354.1V373"/><path class="cls-16" d="M70.5 372.6v.4M258 373v-1.9c0-.6.2-1.2.3-1.8.1-.6.3-1.2.5-1.8l.6-1.8c.2-.6.5-1.1.8-1.7.3-.5.6-1.1 1-1.6.3-.5.7-1 1.1-1.5.4-.5.8-.9 1.3-1.4.4-.4.9-.9 1.4-1.3.5-.4 1-.8 1.5-1.1.5-.3 1-.7 1.6-1 .5-.3 1.1-.6 1.7-.8l1.8-.6c.6-.2 1.2-.3 1.8-.5l1.8-.3h1.9M276.9 354.1V373M257.9 373v-1.4M257.9 370.2l-.2-1M257.7 369.2l-.3-.5"/><path class="cls-10" d="M257.2 367.5l-.7-1.7"/><path class="cls-16" d="M256 364.6l-.3-.4M255.7 364.2l-.4-.8"/><path class="cls-11" d="M254.8 362.5l-1.2-1.5"/><path class="cls-16" d="M252.6 359.8l-.2-.2M252.4 359.6l-1-.7M250.5 357.9l-1-.7"/><path class="cls-20" d="M249.5 357.2l-1.7-1"/><path class="cls-16" d="M247.8 356.2l-.9-.4M245.4 355.3l-.9-.5M244.5 354.8h-.3M242.8 354.3l-1.5-.2M239.9 354.1h-1"/><path class="cls-5" d="M238.9 354.1V373"/><path class="cls-16" d="M238.9 372.6v.4M184.8 353c-11 0-20.1 9.1-20.1 20.1M184.9 352.9V373"/><path class="cls-5" d="M144.6 352.9l3.9.5 3.8 1.2 3.4 1.9 3.1 2.4 2.6 3.1 1.7 3.4 1.2 3.8.5 3.8"/><path class="cls-13" d="M144.6 352.9V373"/><path class="cls-16" d="M267.8 52.1c0 11 9.1 20.1 20.1 20.1M287.9 72.3V52.2"/><path class="cls-5" d="M267.7 52.2l-.2 3.8-1.2 3.8-1.9 3.4-2.4 3.1-3.1 2.4-3.4 1.9-3.8 1.2-3.9.5"/><path class="cls-13" d="M247.8 72.3V52.2"/><path class="cls-22" d="M228.9 14h24.4v9.1h-1.4v9.1h-23V14"/><path class="cls-17" d="M198.6 218.2l-.2.8M198.4 219v.9M198.4 219.9l-.3.7M198.1 220.6v.3M197.4 222.3v.3M196.5 223.8l-.5.4M196 224.2l-.5.5M195.5 224.7l-.7.5M194.8 225.2l-.5.2M193.1 226.2h-.2M191.4 226.6h-.5M190.9 226.6h-.9M190 226.6h-.7M189.3 226.6h-.8M187.3 226.2h-.2M185.7 225.4l-.3-.2M185.4 225.2l-.7-.5M184.7 224.7l-.7-.5M184 224.2l-.5-.4M182.8 222.6l-.3-.3M182.1 221.1l-.3-.5M181.8 220.6l-.2-.7M181.6 219.9v-.9M181.6 219v-.8M181.6 216.8v-.2M182.1 215.1v-.2M182.1 214.9l.4-.7M182.5 214.2l.5-.8M183 213.4l.5-.7M184.5 211.8l.2-.3M185.9 210.8h.2M186.1 210.8l.8-.5M186.9 210.3l.7-.2M187.6 210.1l.7-.3M188.3 209.8h.2M190 209.6h.2M191.7 209.8l.9.3M192.6 210.1l.7.2M193.3 210.3l.8.5M194.1 210.8h.2M195.5 211.5l.2.3M196.7 212.7l.5.7M197.2 213.4l.2.8M197.4 214.2l.5.7M197.9 214.9v.5M198.4 216.6v.4"/><path class="cls-16" d="M198.6 279.4h10.8v56.9h-10.8z"/></g><g id="Mbel"><path class="cls-2" d="M232.2 89.6h51.1v22.6h-51.1zM233.7 122.1h12.7M233.7 113.6v8.5M246.4 122.1v-8.5M251.4 122.1h12.8M251.4 113.6v8.5M264.2 122.1v-8.5M269.1 122.1h12.8M269.1 113.6v8.5M281.9 122.1v-8.5M233.7 79.6h12.7M233.7 88.1v-8.5M246.4 79.6v8.5M251.4 79.6h12.8M251.4 88.1v-8.5M264.2 79.6v8.5M269.1 79.6h12.8M269.1 88.1v-8.5M281.9 79.6v8.5M34.9 246.8h56.6v15.6H34.9zM34.9 287.8h56.6v45.4H34.9z"/><path class="cls-2" d="M34.9 246.8h56.6v15.6H34.9zM34.9 287.8h56.6v45.4H34.9zM134.3 282.3h14.2v28.3h-14.2zM103.3 323.1h19c.1 0 .2-.1.3-.2 0 0 .1-.2.2-.3v-25.2-.3c0-.1-.1-.2-.2-.3 0 0-.2-.1-.3-.2h-19v26.6"/><path class="cls-2" d="M99.6 327.6h22.7c.1 0 .2-.1.3-.2 0 0 .1-.2.2-.3V324v-.3c0-.1-.1-.2-.2-.3s-.2-.1-.3-.2h-23c-.1 0-.2.1-.3.2 0 0-.1.2-.2.3V327.1c0 .1.1.2.2.3 0 0 .2.1.3.2h.3M103.3 296.4h-3.7-.2-.2-.1l-.1-.1-.1-.1v-.1-.2V270.8v-.3c0-.1.1-.2.2-.3s.2-.1.3-.2h4M105.5 269.8v53.3"/><path class="cls-2" d="M103.3 269.8h19c.1 0 .2.1.3.2 0 0 .1.2.2.3v25.5c0 .1-.1.2-.2.3 0 0-.2.1-.3.2h-19v-26.6M99.6 265.2h22.7c.1 0 .2.1.3.2 0 0 .1.2.2.3V269.1c0 .1-.1.2-.2.3 0 0-.2.1-.3.2h-23c-.1 0-.2-.1-.3-.2s-.1-.2-.2-.3V266v-.3c0-.1.1-.2.2-.3 0 0 .2-.1.3-.2h.3M103.3 296.4h-3.7-.2-.2-.1l-.1.1-.1.1v25.7c0 .1.1.2.2.3 0 0 .2.1.3.2h4M145 323.1c1.3 3.8 2.9 7.4 4.8 11 .4.8 1.4 1.3 2.3 1.3 3.2-.3 6.3-1.4 8.9-3.4.8-.6 1.1-1.5.9-2.5-.9-3.9-2.2-7.7-3.7-11.4h-.1c-.7 0-1.4.2-2 .4-3.1 1-6.2 2.2-9.2 3.5-.6.3-1.2.6-1.8 1"/><path class="cls-2" d="M145 324.2c-.2.3-.3.6-.3 1-.2 1.5 0 3.1.6 4.5.8 1.9 1.7 3.7 2.9 5.4.8 1.2 1.8 2.4 2.8 3.3.6.6 1.5.8 2.3.7 3.4-.4 6.6-1.7 9.4-3.6.7-.5 1.2-1.2 1.3-2.1.2-1.5.1-2.9 0-4.4-.3-2-.8-4-1.5-6-.5-1.4-1.4-2.7-2.5-3.8-.3-.2-.5-.4-.9-.5M288.9 310.2h15.6v56.6h-15.6zM247.8 252.1h56.6v28.3h-56.6zM236.3 308h7.7v11.3h-7.7zM216.6 291h19.7v45.4h-19.7zM34.9 155.8h56.6v28.3H34.9zM28.7 99h7.4v11.5h-7.4zM8.8 81.9h19.9v45.4H8.8zM76 84.8h15.6v56.6H76z"/></g><g id="Text"><path d="M43.6 308.1v.6h-3.8l3-4.8h-2.7v-.6h3.8l-3 4.8h2.7zM45.4 304c0 .2-.2.4-.4.4s-.4-.2-.4-.4.2-.4.4-.4.4.2.4.4zm0 4.7h-.6V305h.6v3.7zM47.3 305v.5c.3-.4.6-.6 1-.6s.8.2 1 .7c.3-.5.6-.7 1.2-.7s.7.1.9.4c.2.2.2.4.2 1v2.4H51v-2.2c0-.4 0-.6-.1-.7-.1-.2-.4-.3-.6-.3-.5 0-.8.4-.8 1v2.2h-.6v-2.2c0-.4 0-.5-.1-.7-.1-.2-.3-.3-.6-.3-.5 0-.9.4-.9 1v2.2h-.6V305h.6zM53.6 305v.5c.3-.4.6-.6 1-.6s.8.2 1 .7c.3-.5.6-.7 1.2-.7s.7.1.9.4c.2.2.2.4.2 1v2.4h-.6v-2.2c0-.4 0-.6-.1-.7-.1-.2-.4-.3-.6-.3-.5 0-.8.4-.8 1v2.2h-.6v-2.2c0-.4 0-.5-.1-.7-.1-.2-.3-.3-.6-.3-.5 0-.9.4-.9 1v2.2H53V305h.6zM59.7 307.1c0 .3 0 .5.2.7.2.3.6.5 1 .5s.9-.2 1.1-.6l.5.2c-.3.6-.9 1-1.6 1-1.1 0-1.9-.8-1.9-1.9s.8-1.9 1.9-1.9 1.9.8 1.9 1.9v.2h-3.1zm2.4-.4c0-.3 0-.4-.2-.6-.2-.3-.6-.5-1-.5s-.8.2-1 .5c-.1.2-.2.3-.2.6h2.4zM64.4 305v.6c.1-.3.2-.4.3-.5.2-.1.4-.2.7-.2h.1v.6h-.2c-.3 0-.6.2-.8.4-.2.2-.2.4-.2.9v1.9h-.6V305h.6zM40.5 314.1v-.6l1.8-1.2v5.4h-.6v-4.4l-1.2.8zM44 313v-.6h3l-1.6 2c.9 0 1.6.7 1.6 1.6s-.8 1.7-1.8 1.7-1.4-.5-1.6-1.3h.6c.1.4.5.7 1 .7s1.2-.5 1.2-1.1-.5-1.1-1.2-1.1-.4 0-.6.2l-.3-.2 1.5-1.9h-1.9zM49 317.4c0 .2-.2.4-.4.4s-.4-.2-.4-.4.2-.4.4-.4.4.2.4.4zM53 317.1v.6h-3l1.9-2.7c.5-.8.7-1 .7-1.3 0-.5-.4-.8-.9-.8s-.7.2-.8.4v.6h-.6c0-1 .6-1.6 1.5-1.6s1.5.5 1.5 1.3-.2.8-.6 1.5l-1.4 2h1.9zM56.6 314v.5c.3-.4.6-.6 1-.6s.8.2 1 .7c.3-.5.6-.7 1.2-.7s.7.1.9.4c.2.2.2.4.2 1v2.4h-.6v-2.2c0-.4 0-.6-.1-.7-.1-.2-.4-.3-.6-.3-.5 0-.8.4-.8 1v2.2h-.6v-2.2c0-.4 0-.5-.1-.7-.1-.2-.3-.3-.6-.3-.5 0-.9.4-.9 1v2.2H56V314h.6zM64.2 315.2v.4h-2l1.2-1.6c.3-.5.4-.6.4-.8 0-.3-.2-.4-.5-.4s-.5.2-.5.6h-.4c0-.6.4-1 1-1s1 .3 1 .8-.1.5-.4.9l-.8 1.1h1.1z"/><g><path d="M43.6 140.4v.6h-3.8l3-4.8h-2.7v-.6h3.8l-3 4.8h2.7zM45.4 136.2c0 .2-.2.4-.4.4s-.4-.2-.4-.4.2-.4.4-.4.4.2.4.4zm0 4.7h-.6v-3.7h.6v3.7zM47.3 137.3v.5c.3-.4.6-.6 1-.6s.8.2 1 .7c.3-.5.6-.7 1.2-.7s.7.1.9.4c.2.2.2.4.2 1v2.4H51v-2.2c0-.4 0-.6-.1-.7-.1-.2-.4-.3-.6-.3-.5 0-.8.4-.8 1v2.2h-.6v-2.2c0-.4 0-.5-.1-.7-.1-.2-.3-.3-.6-.3-.5 0-.9.4-.9 1v2.2h-.6v-3.7h.6zM53.6 137.3v.5c.3-.4.6-.6 1-.6s.8.2 1 .7c.3-.5.6-.7 1.2-.7s.7.1.9.4c.2.2.2.4.2 1v2.4h-.6v-2.2c0-.4 0-.6-.1-.7-.1-.2-.4-.3-.6-.3-.5 0-.8.4-.8 1v2.2h-.6v-2.2c0-.4 0-.5-.1-.7-.1-.2-.3-.3-.6-.3-.5 0-.9.4-.9 1v2.2H53v-3.7h.6zM59.7 139.3c0 .3 0 .5.2.7.2.3.6.5 1 .5s.9-.2 1.1-.6l.5.2c-.3.6-.9 1-1.6 1-1.1 0-1.9-.8-1.9-1.9s.8-1.9 1.9-1.9 1.9.8 1.9 1.9v.2h-3.1zm2.4-.4c0-.3 0-.4-.2-.6-.2-.3-.6-.5-1-.5s-.8.2-1 .5c-.1.2-.2.3-.2.6h2.4zM64.4 137.3v.6c.1-.3.2-.4.3-.5.2-.1.4-.2.7-.2h.1v.6h-.2c-.3 0-.6.2-.8.4-.2.2-.2.4-.2.9v1.9h-.6v-3.7h.6zM40.5 146.4v-.6l1.8-1.2v5.4h-.6v-4.4l-1.2.8zM43.7 148.8v-.5l2.8-3.7v3.6h.6v.6h-.6v1.2h-.6v-1.2h-2.1zm2.1-2.6l-1.5 2h1.5v-2zM48.9 149.6c0 .2-.2.4-.4.4s-.4-.2-.4-.4.2-.4.4-.4.4.2.4.4zM49.9 146.4v-.6l1.8-1.2v5.4h-.6v-4.4l-1.2.8zM55.9 146.3v.5c.3-.4.6-.6 1-.6s.8.2 1 .7c.3-.5.6-.7 1.2-.7s.7.1.9.4c.2.2.2.4.2 1v2.4h-.6v-2.2c0-.4 0-.6-.1-.7-.1-.2-.4-.3-.6-.3-.5 0-.8.4-.8 1v2.2h-.6v-2.2c0-.4 0-.5-.1-.7-.1-.2-.3-.3-.6-.3-.5 0-.9.4-.9 1v2.2h-.6v-3.7h.6zM63.5 147.4v.4h-2l1.2-1.6c.3-.5.4-.6.4-.8 0-.3-.2-.4-.5-.4s-.5.2-.5.6h-.4c0-.6.4-1 1-1s1 .3 1 .8-.1.5-.4.9l-.8 1.1h1.1z"/></g><g><path d="M252.2 292.4v.6h-3.8l3-4.8h-2.7v-.6h3.8l-3 4.8h2.7zM254 288.2c0 .2-.2.4-.4.4s-.4-.2-.4-.4.2-.4.4-.4.4.2.4.4zm0 4.7h-.6v-3.7h.6v3.7zM255.9 289.3v.5c.3-.4.6-.6 1-.6s.8.2 1 .7c.3-.5.6-.7 1.2-.7s.7.1.9.4c.2.2.2.4.2 1v2.4h-.6v-2.2c0-.4 0-.6-.1-.7-.1-.2-.4-.3-.6-.3-.5 0-.8.4-.8 1v2.2h-.6v-2.2c0-.4 0-.5-.1-.7-.1-.2-.3-.3-.6-.3-.5 0-.9.4-.9 1v2.2h-.6v-3.7h.6zM262.2 289.3v.5c.3-.4.6-.6 1-.6s.8.2 1 .7c.3-.5.6-.7 1.2-.7s.7.1.9.4c.2.2.2.4.2 1v2.4h-.6v-2.2c0-.4 0-.6-.1-.7-.1-.2-.4-.3-.6-.3-.5 0-.8.4-.8 1v2.2h-.6v-2.2c0-.4 0-.5-.1-.7-.1-.2-.3-.3-.6-.3-.5 0-.9.4-.9 1v2.2h-.6v-3.7h.6zM268.3 291.3c0 .3 0 .5.2.7.2.3.6.5 1 .5s.9-.2 1.1-.6l.5.2c-.3.6-.9 1-1.6 1-1.1 0-1.9-.8-1.9-1.9s.8-1.9 1.9-1.9 1.9.8 1.9 1.9v.2h-3.1zm2.4-.4c0-.3 0-.4-.2-.6-.2-.3-.6-.5-1-.5s-.8.2-1 .5c-.1.2-.2.3-.2.6h2.4zM273.1 289.3v.6c.1-.3.2-.4.3-.5.2-.1.4-.2.7-.2h.1v.6h-.2c-.3 0-.6.2-.8.4-.2.2-.2.4-.2.9v1.9h-.6v-3.7h.6zM249.2 298.4v-.6l1.8-1.2v5.4h-.6v-4.4l-1.2.8zM252.7 297.3v-.6h3l-1.6 2c.9 0 1.6.7 1.6 1.6s-.8 1.7-1.8 1.7-1.4-.5-1.6-1.3h.6c.1.4.5.7 1 .7s1.2-.5 1.2-1.1-.5-1.1-1.2-1.1-.4 0-.6.2l-.3-.2 1.5-1.9h-1.9zM257.6 301.6c0 .2-.2.4-.4.4s-.4-.2-.4-.4.2-.4.4-.4.4.2.4.4zM258.5 300.8v-.5l2.8-3.7v3.6h.6v.6h-.6v1.2h-.6v-1.2h-2.1zm2.1-2.6l-1.5 2h1.5v-2zM265.1 298.3v.5c.3-.4.6-.6 1-.6s.8.2 1 .7c.3-.5.6-.7 1.2-.7s.7.1.9.4c.2.2.2.4.2 1v2.4h-.6v-2.2c0-.4 0-.6-.1-.7-.1-.2-.4-.3-.6-.3-.5 0-.8.4-.8 1v2.2h-.6v-2.2c0-.4 0-.5-.1-.7-.1-.2-.3-.3-.6-.3-.5 0-.9.4-.9 1v2.2h-.6v-3.7h.6zM272.7 299.5v.4h-2l1.2-1.6c.3-.5.4-.6.4-.8 0-.3-.2-.4-.5-.4s-.5.2-.5.6h-.4c0-.6.4-1 1-1s1 .3 1 .8-.1.5-.4.9l-.8 1.1h1.1z"/></g><g><path d="M231.7 15.9c1.1 0 1.7.5 1.7 1.4s-.1.6-.3.9c-.1.2-.3.2-.5.3.3 0 .4.1.6.2.3.2.4.6.4 1s-.2.9-.6 1.2c-.3.2-.7.3-1.3.3h-1.5v-5.3h1.5zm-.8 2.4h.7c.4 0 .7 0 .9-.2.2-.2.3-.4.3-.7s-.2-.6-.4-.8c-.2 0-.4-.1-.9-.1h-.6v1.8zm0 2.4h.7c.6 0 .8 0 1-.2.3-.1.4-.4.4-.8 0-.6-.4-.9-1.2-.9h-.8v1.8zM237.6 17.5h.6v3.7h-.6v-.7c-.4.6-.8.8-1.3.8-1 0-1.7-.8-1.7-1.9s.7-1.9 1.8-1.9 1 .2 1.3.7v-.6zm-2.1.9c-.2.3-.3.6-.3 1 0 .8.5 1.4 1.2 1.4s1.3-.6 1.3-1.4-.5-1.4-1.2-1.4-.7.1-.9.4zM239.6 21.2v-5.3h.6v5.3h-.6zM242.2 21.2h-.6v-5.3h.6v3.3l1.5-1.6h.8l-1.6 1.8 1.6 1.9h-.8l-1.5-1.6v1.6zM248.6 19.4c0 1.1-.8 1.9-1.9 1.9s-1.9-.8-1.9-1.9.8-1.9 1.9-1.9 1.9.8 1.9 1.9zm-3.1 0c0 .8.5 1.4 1.3 1.4s1.2-.6 1.2-1.4-.5-1.4-1.2-1.4-1.3.6-1.3 1.4zM250.3 17.5v.5c.3-.4.6-.6 1.1-.6s.6.1.9.3c.2.2.3.5.3 1v2.5h-.6v-2.4c0-.3 0-.5-.1-.6-.1-.2-.3-.2-.6-.2s-.5.1-.7.3c-.2.2-.2.4-.2.7v2.2h-.6v-3.7h.6zM232.5 25.5h-1.7v1.4c.3-.1.5-.2.8-.2.9 0 1.6.7 1.6 1.7s-.8 1.8-1.8 1.8-1.3-.4-1.6-1.1l.6-.2c.1.2.2.3.3.4.2.2.5.3.8.3.6 0 1.1-.5 1.1-1.2s-.5-1.1-1.2-1.1-.8.2-1.2.5v-3h2.3v.6zM235.1 29.8c0 .2-.2.4-.4.4s-.4-.2-.4-.4.2-.4.4-.4.4.2.4.4zM239.4 28.6c0 .6-.1 1-.4 1.2-.3.3-.7.4-1.2.4s-1-.2-1.2-.5c-.3-.3-.4-.6-.4-1.4v-1.8c0-.7 0-1 .3-1.3.3-.3.7-.5 1.2-.5s.9.1 1.2.4c.3.3.4.6.4 1.2v2.1zm-2.5-.1c0 .6 0 .7.2.9.2.2.5.3.8.3s.6-.1.8-.4c.1-.2.2-.4.2-.8v-2c0-.4 0-.6-.3-.8-.2-.2-.4-.2-.7-.2s-.6.1-.8.4c-.1.2-.2.4-.2.8v1.8zM242.7 26.5v.5c.3-.4.6-.6 1-.6s.8.2 1 .7c.3-.5.6-.7 1.2-.7s.7.1.9.4c.2.2.2.4.2 1v2.4h-.6V28c0-.4 0-.6-.1-.7-.1-.2-.4-.3-.6-.3-.5 0-.8.4-.8 1v2.2h-.6V28c0-.4 0-.5-.1-.7-.1-.2-.3-.3-.6-.3-.5 0-.9.4-.9 1v2.2h-.6v-3.7h.6zM250.3 27.7v.4h-2l1.2-1.6c.3-.5.4-.6.4-.8 0-.3-.2-.4-.5-.4s-.5.2-.5.6h-.4c0-.6.4-1 1-1s1 .3 1 .8-.1.5-.4.9l-.8 1.1h1.1z"/></g><g><path d="M128.1 416.4c1.1 0 1.7.5 1.7 1.4s-.1.6-.3.9c-.1.2-.3.2-.5.3.3 0 .4.1.6.2.3.2.4.6.4 1s-.2.9-.6 1.2c-.3.2-.7.3-1.3.3h-1.5v-5.3h1.5zm-.8 2.4h.7c.4 0 .7 0 .9-.2.2-.2.3-.4.3-.7s-.2-.6-.4-.8c-.2 0-.4-.1-.9-.1h-.6v1.8zm0 2.4h.7c.6 0 .8 0 1-.2.3-.1.4-.4.4-.8 0-.6-.4-.9-1.2-.9h-.8v1.8zM134 418.1h.6v3.7h-.6v-.7c-.4.6-.8.8-1.3.8-1 0-1.7-.8-1.7-1.9s.7-1.9 1.8-1.9 1 .2 1.3.7v-.6zm-2.1.9c-.2.3-.3.6-.3 1 0 .8.5 1.4 1.2 1.4s1.3-.6 1.3-1.4-.5-1.4-1.2-1.4-.7.1-.9.4zM135.9 421.8v-5.3h.6v5.3h-.6zM138.5 421.8h-.6v-5.3h.6v3.3l1.5-1.6h.8l-1.6 1.8 1.6 1.9h-.8l-1.5-1.6v1.6zM144.9 419.9c0 1.1-.8 1.9-1.9 1.9s-1.9-.8-1.9-1.9.8-1.9 1.9-1.9 1.9.8 1.9 1.9zm-3.1 0c0 .8.5 1.4 1.3 1.4s1.2-.6 1.2-1.4-.5-1.4-1.2-1.4-1.3.6-1.3 1.4zM146.6 418.1v.5c.3-.4.6-.6 1.1-.6s.6.1.9.3c.2.2.3.5.3 1v2.5h-.6v-2.4c0-.3 0-.5-.1-.6-.1-.2-.3-.2-.6-.2s-.5.1-.7.3c-.2.2-.2.4-.2.7v2.2h-.6v-3.7h.6zM127.5 427.6c.2 0 .3-.1.5-.1.9 0 1.6.7 1.6 1.6s-.8 1.7-1.7 1.7-1.7-.8-1.7-1.7.1-.7.4-1.2l1.5-2.5h.7l-1.4 2.1zm-.7 1.5c0 .6.5 1.1 1.1 1.1s1.1-.5 1.1-1.1-.5-1.1-1.1-1.1-1.1.5-1.1 1.1zM131.4 430.4c0 .2-.2.4-.4.4s-.4-.2-.4-.4.2-.4.4-.4.4.2.4.4zM135.7 429.1c0 .6-.1 1-.4 1.2-.3.3-.7.4-1.2.4s-1-.2-1.2-.5c-.3-.3-.4-.6-.4-1.4V427c0-.7 0-1 .3-1.3.3-.3.7-.5 1.2-.5s.9.1 1.2.4c.3.3.4.6.4 1.2v2.1zm-2.5-.1c0 .6 0 .7.2.9.2.2.5.3.8.3s.6-.1.8-.4c.1-.2.2-.4.2-.8v-2c0-.4 0-.6-.3-.8-.2-.2-.4-.2-.7-.2s-.6.1-.8.4c-.1.2-.2.4-.2.8v1.8zM139.1 427.1v.5c.3-.4.6-.6 1-.6s.8.2 1 .7c.3-.5.6-.7 1.2-.7s.7.1.9.4c.2.2.2.4.2 1v2.4h-.6v-2.2c0-.4 0-.6-.1-.7-.1-.2-.4-.3-.6-.3-.5 0-.8.4-.8 1v2.2h-.6v-2.2c0-.4 0-.5-.1-.7-.1-.2-.3-.3-.6-.3-.5 0-.9.4-.9 1v2.2h-.6v-3.7h.6zM146.7 428.2v.4h-2l1.2-1.6c.3-.5.4-.6.4-.8 0-.3-.2-.4-.5-.4s-.5.2-.5.6h-.4c0-.6.4-1 1-1s1 .3 1 .8-.1.5-.4.9l-.8 1.1h1.1z"/></g><g><path d="M124.5 207.1c1.1 0 1.7.5 1.7 1.4s-.1.6-.3.9c-.1.2-.3.2-.5.3.3 0 .4.1.6.2.3.2.4.6.4 1s-.2.9-.6 1.2c-.3.2-.7.3-1.3.3H123v-5.3h1.5zm-.8 2.4h.7c.4 0 .7 0 .9-.2.2-.2.3-.4.3-.7s-.2-.6-.4-.8c-.2 0-.4-.1-.9-.1h-.6v1.8zm0 2.4h.7c.6 0 .8 0 1-.2.3-.1.4-.4.4-.8 0-.6-.4-.9-1.2-.9h-.8v1.8zM130.4 208.7h.6v3.7h-.6v-.7c-.4.6-.8.8-1.3.8-1 0-1.7-.8-1.7-1.9s.7-1.9 1.8-1.9 1 .2 1.3.7v-.6zm-2.1.9c-.2.3-.3.6-.3 1 0 .8.5 1.4 1.2 1.4s1.3-.6 1.3-1.4-.5-1.4-1.2-1.4-.7.1-.9.4zM135.2 207.1h.6v5.3h-.6v-.6c-.4.5-.8.7-1.3.7-1 0-1.7-.8-1.7-1.9s.7-2 1.7-2 1 .2 1.3.6V207zm-2.4 3.5c0 .8.5 1.4 1.2 1.4s1.2-.6 1.2-1.4-.5-1.4-1.2-1.4-1.2.6-1.2 1.4zM122.9 216.8v-.6h3l-1.6 2c.9 0 1.6.7 1.6 1.6s-.8 1.7-1.8 1.7-1.4-.5-1.6-1.3h.6c.1.4.5.7 1 .7s1.2-.5 1.2-1.1-.5-1.1-1.2-1.1-.4 0-.6.2l-.3-.2 1.5-1.9h-1.9zM127.9 221.1c0 .2-.2.4-.4.4s-.4-.2-.4-.4.2-.4.4-.4.4.2.4.4zM131.8 218.9c.3.3.4.6.4 1 0 .9-.7 1.6-1.7 1.6s-1.6-.6-1.6-1.6.1-.8.4-1.1c.2-.2.3-.3.6-.4-.3 0-.4-.2-.5-.4-.2-.2-.3-.5-.3-.8 0-.8.6-1.3 1.5-1.3s1.4.6 1.4 1.3-.1.6-.3.8c-.1.2-.3.2-.5.3.3 0 .4.2.6.3zm-2.3 1c0 .6.5 1 1 1s1-.5 1-1-.5-1-1-1-1 .5-1 1zm.2-2.5c0 .5.4.8.8.8s.9-.4.9-.8-.4-.8-.8-.8-.9.3-.9.8zM136.4 217.7v.5c.3-.4.6-.6 1-.6s.8.2 1 .7c.3-.5.6-.7 1.2-.7s.7.1.9.4c.2.2.2.4.2 1v2.4h-.6v-2.2c0-.4 0-.6-.1-.7-.1-.2-.4-.3-.6-.3-.5 0-.8.4-.8 1v2.2h-.6v-2.2c0-.4 0-.5-.1-.7-.1-.2-.3-.3-.6-.3-.5 0-.9.4-.9 1v2.2h-.6v-3.7h.6zM144 218.9v.4h-2l1.2-1.6c.3-.5.4-.6.4-.8 0-.3-.2-.4-.5-.4s-.5.2-.5.6h-.4c0-.6.4-1 1-1s1 .3 1 .8-.1.5-.4.9l-.8 1.1h1.1z"/></g><g><path d="M40.5 217.6h1.4c1.6 0 2.6 1 2.6 2.6s-.3 1.6-.8 2.1c-.5.4-1.1.6-1.9.6h-1.3v-5.3zm.7 4.8h.2c.9 0 1.3 0 1.7-.4.5-.4.7-1 .7-1.8 0-1.3-.7-2-1.9-2h-.7v4.2zM48.5 219.2v2.4c0 .5 0 .8-.4 1-.3.2-.6.4-1.1.4s-.8-.1-1.1-.4c-.2-.2-.4-.6-.4-1v-2.4h.6v2.3c0 .5.3.9.8.9s.5-.1.7-.3c.1-.1.2-.3.2-.6v-2.4h.6zM51.5 220.2c0-.4-.3-.6-.7-.6s-.7.2-.7.5.2.4.8.6c.5.1.7.2.9.4.2.2.3.4.3.7 0 .6-.5 1.1-1.3 1.1s-1.3-.4-1.4-1.1h.6c0 .4.3.6.8.6s.7-.2.7-.5-.2-.5-.8-.6c-.8-.2-1.2-.6-1.2-1.1s.5-1.1 1.3-1.1 1.3.4 1.3 1.1h-.6zM56.2 222.5c-.4.4-.8.5-1.4.5-1.1 0-1.8-.8-1.8-1.9s.8-1.9 1.8-1.9 1 .2 1.3.6l-.4.4c-.3-.3-.6-.4-.9-.4-.7 0-1.2.6-1.2 1.4s.5 1.4 1.2 1.4.6-.1.9-.4l.4.4zM57.7 219.7c.3-.4.7-.6 1.1-.6s.7.1.9.3c.2.2.3.5.3 1v2.5h-.6v-2.4c0-.5-.2-.8-.7-.8s-.5.1-.7.3c-.2.2-.2.4-.2.7v2.2h-.6v-5.3h.6v2.2zM61.7 221.3c0 .3 0 .5.2.7.2.3.6.5 1 .5s.9-.2 1.1-.6l.5.2c-.3.6-.9 1-1.6 1-1.1 0-1.9-.8-1.9-1.9s.8-1.9 1.9-1.9 1.9.8 1.9 1.9v.2h-3.1zm2.4-.4c0-.3 0-.4-.2-.6-.2-.3-.6-.5-1-.5s-.8.2-1 .5c-.1.2-.2.3-.2.6h2.4zM40.2 230.7v-.5l2.8-3.7v3.6h.6v.6H43v1.2h-.6v-1.2h-2.1zm2.1-2.6l-1.5 2h1.5v-2zM45.4 231.6c0 .2-.2.4-.4.4s-.4-.2-.4-.4.2-.4.4-.4.4.2.4.4zM47.7 228.8c.2 0 .3-.1.5-.1.9 0 1.6.7 1.6 1.6s-.8 1.7-1.7 1.7-1.7-.8-1.7-1.7.1-.7.4-1.2l1.5-2.5h.7l-1.4 2.1zm-.7 1.5c0 .6.5 1.1 1.1 1.1s1.1-.5 1.1-1.1-.5-1.1-1.1-1.1-1.1.5-1.1 1.1zM53.9 228.2v.5c.3-.4.6-.6 1-.6s.8.2 1 .7c.3-.5.6-.7 1.2-.7s.7.1.9.4c.2.2.2.4.2 1v2.4h-.6v-2.2c0-.4 0-.6-.1-.7-.1-.2-.4-.3-.6-.3-.5 0-.8.4-.8 1v2.2h-.6v-2.2c0-.4 0-.5-.1-.7-.1-.2-.3-.3-.6-.3-.5 0-.9.4-.9 1v2.2h-.6v-3.7h.6zM61.4 229.4v.4h-2l1.2-1.6c.3-.5.4-.6.4-.8 0-.3-.2-.4-.5-.4s-.5.2-.5.6h-.4c0-.6.4-1 1-1s1 .3 1 .8-.1.5-.4.9l-.8 1.1h1.1z"/></g><g><path d="M182 177.8h2.1v.6H182v1.8h2.1v.6h-2.8v-5.3h2.8v.6H182v1.8zM185.9 177.1v.5c.3-.4.6-.6 1.1-.6s.6.1.9.3c.2.2.3.5.3 1v2.5h-.6v-2.4c0-.3 0-.5-.1-.6-.1-.2-.3-.2-.6-.2s-.5.1-.7.3c-.2.2-.2.4-.2.7v2.2h-.6v-3.7h.6zM190.2 180c0 .2 0 .2.3.2h.3v.5h-.6c-.4 0-.6-.2-.6-.6v-2.6h-.5v-.5h.5v-1.2h.6v1.2h.6v.5h-.6v2.4zM192.4 177.1v.6c.1-.3.2-.4.3-.5.2-.1.4-.2.7-.2h.1v.6h-.2c-.3 0-.6.2-.8.4-.2.2-.2.4-.2.9v1.9h-.6v-3.7h.6zM194.8 179.1c0 .3 0 .5.2.7.2.3.6.5 1 .5s.9-.2 1.1-.6l.5.2c-.3.6-.9 1-1.6 1-1.1 0-1.9-.8-1.9-1.9s.8-1.9 1.9-1.9 1.9.8 1.9 1.9v.2h-3.1zm2.4-.4c0-.3 0-.4-.2-.6-.2-.3-.6-.5-1-.5s-.8.2-1 .5c-.1.2-.2.3-.2.6h2.4zm-.2-3.2l-.9 1.1h-.4l.7-1.1h.7zM199.4 179.1c0 .3 0 .5.2.7.2.3.6.5 1 .5s.9-.2 1.1-.6l.5.2c-.3.6-.9 1-1.6 1-1.1 0-1.9-.8-1.9-1.9s.8-1.9 1.9-1.9 1.9.8 1.9 1.9v.2h-3.1zm2.4-.4c0-.3 0-.4-.2-.6-.2-.3-.6-.5-1-.5s-.8.2-1 .5c-.1.2-.2.3-.2.6h2.4zM181.4 185.1v-.6h3l-2.1 5.3h-.7l1.9-4.7h-2zM185.6 189.4c0 .2-.2.4-.4.4s-.4-.2-.4-.4.2-.4.4-.4.4.2.4.4zM186.5 188.6v-.5l2.8-3.7v3.6h.6v.6h-.6v1.2h-.6v-1.2h-2.1zm2.1-2.6l-1.5 2h1.5v-2zM194 186.1v.5c.3-.4.6-.6 1-.6s.8.2 1 .7c.3-.5.6-.7 1.2-.7s.7.1.9.4c.2.2.2.4.2 1v2.4h-.6v-2.2c0-.4 0-.6-.1-.7-.1-.2-.4-.3-.6-.3-.5 0-.8.4-.8 1v2.2h-.6v-2.2c0-.4 0-.5-.1-.7-.1-.2-.3-.3-.6-.3-.5 0-.9.4-.9 1v2.2h-.6v-3.7h.6zM201.6 187.3v.4h-2l1.2-1.6c.3-.5.4-.6.4-.8 0-.3-.2-.4-.5-.4s-.5.2-.5.6h-.4c0-.6.4-1 1-1s1 .3 1 .8-.1.5-.4.9l-.8 1.1h1.1z"/></g><g><path d="M122.7 169.2h-.7v-5.3h1.5c1.1 0 1.8.6 1.8 1.6s-.3 1.1-.8 1.3c-.3.1-.5.2-1 .2l2.1 2.2h-.9l-2.1-2.2v2.2zm.7-2.7c.8 0 1.2-.4 1.2-1s-.4-1-1.1-1h-.8v2.1h.7zM126.8 167.5c0 .3 0 .5.2.7.2.3.6.5 1 .5s.9-.2 1.1-.6l.5.2c-.3.6-.9 1-1.6 1-1.1 0-1.9-.8-1.9-1.9s.8-1.9 1.9-1.9 1.9.8 1.9 1.9v.2h-3.1zm2.4-.4c0-.3 0-.4-.2-.6-.2-.3-.6-.5-1-.5s-.8.2-1 .5c-.1.2-.2.3-.2.6h2.4zM133.8 163.8h.6v5.3h-.6v-.6c-.4.5-.8.7-1.3.7-1 0-1.7-.8-1.7-1.9s.7-2 1.7-2 1 .2 1.3.6v-2.2zm-2.4 3.5c0 .8.5 1.4 1.2 1.4s1.2-.6 1.2-1.4-.5-1.4-1.2-1.4-1.2.6-1.2 1.4zM138.5 165.5v2.4c0 .5 0 .8-.4 1-.3.2-.6.4-1.1.4s-.8-.1-1.1-.4c-.2-.2-.4-.6-.4-1v-2.4h.6v2.3c0 .5.3.9.8.9s.5-.1.7-.3c.1-.1.2-.3.2-.6v-2.4h.6zM140.5 164.4c0 .2-.2.4-.4.4s-.4-.2-.4-.4.2-.4.4-.4.4.2.4.4zm0 4.7h-.6v-3.7h.6v3.7zM142.5 168.4c0 .2 0 .2.3.2h.3v.5h-.6c-.4 0-.6-.2-.6-.6v-2.6h-.5v-.5h.5v-1.2h.6v1.2h.6v.5h-.6v2.4zM122.2 174.6v-.6l1.8-1.2v5.4h-.6v-4.4l-1.2.8zM126.6 177.8c0 .2-.2.4-.4.4s-.4-.2-.4-.4.2-.4.4-.4.4.2.4.4zM128 173.5v-.6h3l-1.6 2c.9 0 1.6.7 1.6 1.6s-.8 1.7-1.8 1.7-1.4-.5-1.6-1.3h.6c.1.4.5.7 1 .7s1.2-.5 1.2-1.1-.5-1.1-1.2-1.1-.4 0-.6.2l-.3-.2 1.5-1.9h-1.9zM135.2 174.5v.5c.3-.4.6-.6 1-.6s.8.2 1 .7c.3-.5.6-.7 1.2-.7s.7.1.9.4c.2.2.2.4.2 1v2.4h-.6V176c0-.4 0-.6-.1-.7-.1-.2-.4-.3-.6-.3-.5 0-.8.4-.8 1v2.2h-.6V176c0-.4 0-.5-.1-.7-.1-.2-.3-.3-.6-.3-.5 0-.9.4-.9 1v2.2h-.6v-3.7h.6zM142.8 175.6v.4h-2l1.2-1.6c.3-.5.4-.6.4-.8 0-.3-.2-.4-.5-.4s-.5.2-.5.6h-.4c0-.6.4-1 1-1s1 .3 1 .8-.1.5-.4.9l-.8 1.1h1.1z"/></g><g><path d="M163.5 288.3h.7l-1.6 5.3h-.6l-1.2-4.2-1.2 4.2h-.6l-1.6-5.3h.7l1.2 4.1 1.2-4.1h.6l1.1 4.1 1.2-4.1zM168.3 291.8c0 1.1-.8 1.9-1.9 1.9s-1.9-.8-1.9-1.9.8-1.9 1.9-1.9 1.9.8 1.9 1.9zm-3.1 0c0 .8.5 1.4 1.3 1.4s1.2-.6 1.2-1.4-.5-1.4-1.2-1.4-1.3.6-1.3 1.4zM170 290.4c.3-.4.7-.6 1.1-.6s.7.1.9.3c.2.2.3.5.3 1v2.5h-.6v-2.4c0-.5-.2-.8-.7-.8s-.5.1-.7.3c-.2.2-.2.4-.2.7v2.2h-.6v-5.3h.6v2.2zM174.2 289.9v.5c.3-.4.6-.6 1.1-.6s.6.1.9.3c.2.2.3.5.3 1v2.5h-.6v-2.4c0-.3 0-.5-.1-.6-.1-.2-.3-.2-.6-.2s-.5.1-.7.3c-.2.2-.2.4-.2.7v2.2h-.6v-3.7h.6zM178.2 291.9c0 .3 0 .5.2.7.2.3.6.5 1 .5s.9-.2 1.1-.6l.5.2c-.3.6-.9 1-1.6 1-1.1 0-1.9-.8-1.9-1.9s.8-1.9 1.9-1.9 1.9.8 1.9 1.9v.2h-3.1zm2.4-.4c0-.3 0-.4-.2-.6-.2-.3-.6-.5-1-.5s-.8.2-1 .5c-.1.2-.2.3-.2.6h2.4zM183 289.9v.5c.3-.4.6-.6 1.1-.6s.6.1.9.3c.2.2.3.5.3 1v2.5h-.6v-2.4c0-.3 0-.5-.1-.6-.1-.2-.3-.2-.6-.2s-.5.1-.7.3c-.2.2-.2.4-.2.7v2.2h-.6v-3.7h.6zM158.2 299v-.6l1.8-1.2v5.4h-.6v-4.4l-1.2.8zM164.2 297.9h-1.7v1.4c.3-.1.5-.2.8-.2.9 0 1.6.7 1.6 1.7s-.8 1.8-1.8 1.8-1.3-.4-1.6-1.1l.6-.2c.1.2.2.3.3.4.2.2.5.3.8.3.6 0 1.1-.5 1.1-1.2s-.5-1.1-1.2-1.1-.8.2-1.2.5v-3h2.3v.6zM166.8 302.2c0 .2-.2.4-.4.4s-.4-.2-.4-.4.2-.4.4-.4.4.2.4.4zM169.1 299.5c.2 0 .3-.1.5-.1.9 0 1.6.7 1.6 1.6s-.8 1.7-1.7 1.7-1.7-.8-1.7-1.7.1-.7.4-1.2l1.5-2.5h.7l-1.4 2.1zm-.7 1.5c0 .6.5 1.1 1.1 1.1s1.1-.5 1.1-1.1-.5-1.1-1.1-1.1-1.1.5-1.1 1.1zM175.3 298.9v.5c.3-.4.6-.6 1-.6s.8.2 1 .7c.3-.5.6-.7 1.2-.7s.7.1.9.4c.2.2.2.4.2 1v2.4h-.6v-2.2c0-.4 0-.6-.1-.7-.1-.2-.4-.3-.6-.3-.5 0-.8.4-.8 1v2.2h-.6v-2.2c0-.4 0-.5-.1-.7-.1-.2-.3-.3-.6-.3-.5 0-.9.4-.9 1v2.2h-.6v-3.7h.6zM182.9 300.1v.4h-2l1.2-1.6c.3-.5.4-.6.4-.8 0-.3-.2-.4-.5-.4s-.5.2-.5.6h-.4c0-.6.4-1 1-1s1 .3 1 .8-.1.5-.4.9l-.8 1.1h1.1z"/></g><g><path d="M146.2 84.9h-.7v-5.3h.7v2.5l2.1-2.5h.8l-2.2 2.6 2.2 2.7h-.9l-2-2.5v2.5zM153.2 83.1c0 1.1-.8 1.9-1.9 1.9s-1.9-.8-1.9-1.9.8-1.9 1.9-1.9 1.9.8 1.9 1.9zm-3.1 0c0 .8.5 1.4 1.3 1.4s1.2-.6 1.2-1.4-.5-1.4-1.2-1.4-1.3.6-1.3 1.4zM157.2 84.5c-.4.4-.8.5-1.4.5-1.1 0-1.8-.8-1.8-1.9s.8-1.9 1.8-1.9 1 .2 1.3.6l-.4.4c-.3-.3-.6-.4-.9-.4-.7 0-1.2.6-1.2 1.4s.5 1.4 1.2 1.4.6-.1.9-.4l.4.4zM158.8 81.7c.3-.4.7-.6 1.1-.6s.7.1.9.3c.2.2.3.5.3 1v2.5h-.6v-2.4c0-.5-.2-.8-.7-.8s-.5.1-.7.3c-.2.2-.2.4-.2.7v2.2h-.6v-5.3h.6v2.2zM162.8 83.3c0 .3 0 .5.2.7.2.3.6.5 1 .5s.9-.2 1.1-.6l.5.2c-.3.6-.9 1-1.6 1-1.1 0-1.9-.8-1.9-1.9s.8-1.9 1.9-1.9 1.9.8 1.9 1.9v.2h-3.1zm2.4-.4c0-.3 0-.4-.2-.6-.2-.3-.6-.5-1-.5s-.8.2-1 .5c-.1.2-.2.3-.2.6h2.4zM167.5 81.2v.5c.3-.4.6-.6 1.1-.6s.6.1.9.3c.2.2.3.5.3 1v2.5h-.6v-2.4c0-.3 0-.5-.1-.6-.1-.2-.3-.2-.6-.2s-.5.1-.7.3c-.2.2-.2.4-.2.7v2.2h-.6v-3.7h.6zM171 86.2h-.4l.7-2.1.6.2-.8 1.9zM176.2 81.9h2.1v.6h-2.1v1.8h2.1v.6h-2.8v-5.3h2.8v.6h-2.1V82zM181.2 82.2c0-.4-.3-.6-.7-.6s-.7.2-.7.5.2.4.8.6c.5.1.7.2.9.4.2.2.3.4.3.7 0 .6-.5 1.1-1.3 1.1s-1.3-.4-1.4-1.1h.6c0 .4.3.6.8.6s.7-.2.7-.5-.2-.5-.8-.6c-.8-.2-1.2-.6-1.2-1.1s.5-1.1 1.3-1.1 1.3.4 1.3 1.1h-.6zM184.8 82.2c0-.4-.3-.6-.7-.6s-.7.2-.7.5.2.4.8.6c.5.1.7.2.9.4.2.2.3.4.3.7 0 .6-.5 1.1-1.3 1.1s-1.3-.4-1.4-1.1h.6c0 .4.3.6.8.6s.7-.2.7-.5-.2-.5-.8-.6c-.8-.2-1.2-.6-1.2-1.1s.5-1.1 1.3-1.1 1.3.4 1.3 1.1h-.6zM186.9 83.3c0 .3 0 .5.2.7.2.3.6.5 1 .5s.9-.2 1.1-.6l.5.2c-.3.6-.9 1-1.6 1-1.1 0-1.9-.8-1.9-1.9s.8-1.9 1.9-1.9 1.9.8 1.9 1.9v.2h-3.1zm2.4-.4c0-.3 0-.4-.2-.6-.2-.3-.6-.5-1-.5s-.8.2-1 .5c-.1.2-.2.3-.2.6h2.4zM191.6 81.2v.5c.3-.4.6-.6 1.1-.6s.6.1.9.3c.2.2.3.5.3 1v2.5h-.6v-2.4c0-.3 0-.5-.1-.6-.1-.2-.3-.2-.6-.2s-.5.1-.7.3c-.2.2-.2.4-.2.7v2.2h-.6v-3.7h.6zM195.2 86.2h-.4l.7-2.1.6.2-.8 1.9zM148.2 93.3v.6h-3l1.9-2.7c.5-.8.7-1 .7-1.3 0-.5-.4-.8-.9-.8s-.7.2-.8.4v.6h-.6c0-1 .6-1.6 1.5-1.6s1.5.5 1.5 1.3-.2.8-.6 1.5l-1.4 2h1.9zM149.6 90.3v-.6l1.8-1.2v5.4h-.6v-4.4l-1.2.8zM154 93.6c0 .2-.2.4-.4.4s-.4-.2-.4-.4.2-.4.4-.4.4.2.4.4zM156.8 91.8c-.2 0-.3.1-.5.1-.9 0-1.6-.7-1.6-1.6s.8-1.7 1.7-1.7 1.7.7 1.7 1.7-.1.7-.4 1.2l-1.5 2.5h-.7l1.3-2.1zm-1.5-1.5c0 .6.5 1.1 1.1 1.1s1.1-.5 1.1-1.1-.5-1.1-1-1.1-1.1.5-1.1 1.1zM162.2 90.2v.5c.3-.4.6-.6 1-.6s.8.2 1 .7c.3-.5.6-.7 1.2-.7s.7.1.9.4c.2.2.2.4.2 1v2.4h-.6v-2.2c0-.4 0-.6-.1-.7-.1-.2-.4-.3-.6-.3-.5 0-.8.4-.8 1v2.2h-.6v-2.2c0-.4 0-.5-.1-.7-.1-.2-.3-.3-.6-.3-.5 0-.9.4-.9 1v2.2h-.6v-3.7h.6zM169.8 91.4v.4h-2l1.2-1.6c.3-.5.4-.6.4-.8 0-.3-.2-.4-.5-.4s-.5.2-.5.6h-.4c0-.6.4-1 1-1s1 .3 1 .8-.1.5-.4.9l-.8 1.1h1.1z"/></g><g><path d="M233.3 172.7v.6h-2.5V168h.7v4.7h1.9zM234.9 168.6c0 .2-.2.4-.4.4s-.4-.2-.4-.4.2-.4.4-.4.4.2.4.4zm0 4.7h-.6v-3.7h.6v3.7zM236.9 173.4h-.6v-3.2h-.5v-.5h.5v-.5c0-.7.4-1.2 1-1.2h.2v.5c-.4 0-.6.2-.6.6v.5h.6v.5h-.6v3.2zM239.3 172.6c0 .2 0 .2.3.2h.3v.5h-.6c-.4 0-.6-.2-.6-.6v-2.6h-.5v-.5h.5v-1.2h.6v1.2h.6v.5h-.6v2.4z"/></g></g></svg>