<svg xmlns="http://www.w3.org/2000/svg" viewBox="0 0 409.1 439.6"><defs><style>.cls-1,.cls-10,.cls-11,.cls-12,.cls-13,.cls-14,.cls-15,.cls-16,.cls-17,.cls-18,.cls-19,.cls-2,.cls-3,.cls-4,.cls-5,.cls-6,.cls-7,.cls-8,.cls-9{fill:none;stroke-linecap:round;stroke-linejoin:round}.cls-1,.cls-10,.cls-11,.cls-12,.cls-13,.cls-14,.cls-15,.cls-16,.cls-18,.cls-19,.cls-2,.cls-3,.cls-4,.cls-5,.cls-6,.cls-9{stroke-width:.1px}.cls-1,.cls-14,.cls-16,.cls-17,.cls-18,.cls-3,.cls-4,.cls-9{stroke:#194164}.cls-1,.cls-9{stroke-dasharray:0 0 0 0 2.9 1.4 .2 1.4}.cls-2{stroke:#646464}.cls-10,.cls-11,.cls-12,.cls-13,.cls-14,.cls-18,.cls-19,.cls-3,.cls-4,.cls-5,.cls-6{stroke-dasharray:0 0 1.4 1.4}.cls-4{stroke-dashoffset:1px}.cls-5{stroke-dashoffset:2.5px}.cls-10,.cls-11,.cls-12,.cls-13,.cls-15,.cls-19,.cls-5,.cls-6{stroke:#969696}.cls-20,.cls-21{fill:#fff}.cls-7,.cls-8{stroke:#b8b8b8;stroke-width:0}.cls-8{stroke:#9f9f9f}.cls-9{stroke-dashoffset:1.9px}.cls-10{stroke-dashoffset:2.7px}.cls-11{stroke-dashoffset:2.5px}.cls-12{stroke-dashoffset:1.4px}.cls-13,.cls-18{stroke-dashoffset:.7px}.cls-21,.cls-22{fill-rule:evenodd}.cls-14{stroke-dashoffset:.2px}.cls-17{stroke-width:.3px}.cls-19{stroke-dashoffset:1.2px}</style></defs><g id="Plan"><path class="cls-17" d="M10.6 152.2h29.8V192H10.6z"/><path class="cls-16" d="M9 201h35.2M27.2 197.8H13.3M39.9 195H26M236.5 253.3h14.1M236.5 252.6h14.1M250.6 253.3v-.7M236.5 252.6h14.1M236.5 253.3h14.1M236.5 253.3v-.7"/><path class="cls-21" d="M95.8 4.9h101l6.3 37.7v4.2h-22.5v-.4h-59.3v.4H95.8"/><path class="cls-15" d="M106.6 44.7h10.6M128 44.7h10.6M149.6 44.7h10.6M171 44.7h10.5M192.6 44.7h10.5M106.6 37.5h10.6M128 37.5h10.6M149.6 37.5h10.6M171 37.5h10.5M192.6 37.5h9.8M106.6 30.3h10.6M128 30.3h10.6M149.6 30.3h10.6M171 30.3h10.5M192.6 30.3h8.6M106.6 23.1h10.6M128 23.1h10.6M149.6 23.1h10.6M171 23.1h10.5M192.6 23.1h7.4M106.6 15.7h10.6M128 15.7h10.6M149.6 15.7h10.6M171 15.7h10.5M192.6 15.7h6.2M106.6 8.5h10.6M128 8.5h10.6M149.6 8.5h10.6M171 8.5h10.5M192.6 8.5h5M106.6 46.4v-1.7M106.6 39.2v-1.7M106.6 32v-1.7M106.6 24.8v-1.7M106.6 17.4v-1.7M106.6 10.2V8.5M128 46.4v-1.7M128 39.2v-1.7M128 32v-1.7M128 24.8v-1.7M128 17.4v-1.7M128 10.2V8.5M149.6 46.4v-1.7M149.6 39.2v-1.7M149.6 32v-1.7M149.6 24.8v-1.7M149.6 17.4v-1.7M149.6 10.2V8.5M171 46.4v-1.7M171 39.2v-1.7M171 32v-1.7M171 24.8v-1.7M171 17.4v-1.7M171 10.2V8.5M192.6 46.4v-1.7M192.6 39.2v-1.7M192.6 32v-1.7M192.6 24.8v-1.7M192.6 17.4v-1.7M192.6 10.2V8.5M96.1 44.7h10.3M117.2 44.7h10.6M138.6 44.7h10.8M160.2 44.7h10.5M181.5 44.7h10.8M203.1 44.7h.3M96.1 37.5h10.3M117.2 37.5h10.6M138.6 37.5h10.8M160.2 37.5h10.5M181.5 37.5h10.8M96.1 30.3h10.3M117.2 30.3h10.6M138.6 30.3h10.8M160.2 30.3h10.5M181.5 30.3h10.8M96.1 23.1h10.3M117.2 23.1h10.6M138.6 23.1h10.8M160.2 23.1h10.5M181.5 23.1h10.8M96.1 15.7h10.3M117.2 15.7h10.6M138.6 15.7h10.8M160.2 15.7h10.5M181.5 15.7h10.8M96.1 8.5h10.3M117.2 8.5h10.6M138.6 8.5h10.8M160.2 8.5h10.5M181.5 8.5h10.8M106.4 46.4v-1.7M106.4 39.2v-1.7M106.4 32v-1.7M106.4 24.8v-1.7M106.4 17.4v-1.7M106.4 10.2V8.5M127.8 46.4v-1.7M127.8 39.2v-1.7M127.8 32v-1.7M127.8 24.8v-1.7M127.8 17.4v-1.7M127.8 10.2V8.5M149.4 46.4v-1.7M149.4 39.2v-1.7M149.4 32v-1.7M149.4 24.8v-1.7M149.4 17.4v-1.7M149.4 10.2V8.5M170.7 46.4v-1.7M170.7 39.2v-1.7M170.7 32v-1.7M170.7 24.8v-1.7M170.7 17.4v-1.7M170.7 10.2V8.5M192.3 46.4v-1.7M192.3 39.2v-1.7M192.3 32v-1.7M192.3 24.8v-1.7M192.3 17.4v-1.7M192.3 10.2V8.5M106.6 40.9h10.6M128 40.9h10.6M149.6 40.9h10.6M171 40.9h10.5M192.6 40.9h10.3M106.6 33.7h10.6M128 33.7h10.6M149.6 33.7h10.6M171 33.7h10.5M192.6 33.7h9.1M106.6 26.5h10.6M128 26.5h10.6M149.6 26.5h10.6M171 26.5h10.5M192.6 26.5h7.9M106.6 19.3h10.6M128 19.3h10.6M149.6 19.3h10.6M171 19.3h10.5M192.6 19.3h6.7M106.6 11.8h10.6M128 11.8h10.6M149.6 11.8h10.6M171 11.8h10.5M192.6 11.8h5.5M106.6 46.9v-.5M106.6 40.9v-1.7M106.6 33.7V32M106.6 26.5v-1.7M106.6 19.3v-1.9M106.6 11.8v-1.6M128 40.9v-1.7M128 33.7V32M128 26.5v-1.7M128 19.3v-1.9M128 11.8v-1.6M149.6 40.9v-1.7M149.6 33.7V32M149.6 26.5v-1.7M149.6 19.3v-1.9M149.6 11.8v-1.6M171 40.9v-1.7M171 33.7V32M171 26.5v-1.7M171 19.3v-1.9M171 11.8v-1.6M192.6 46.9v-.5M192.6 40.9v-1.7M192.6 33.7V32M192.6 26.5v-1.7M192.6 19.3v-1.9M192.6 11.8v-1.6M106.4 46.9v-.5M106.4 40.9v-1.7M106.4 33.7V32M106.4 26.5v-1.7M106.4 19.3v-1.9M106.4 11.8v-1.6M127.8 40.9v-1.7M127.8 33.7V32M127.8 26.5v-1.7M127.8 19.3v-1.9M127.8 11.8v-1.6M149.4 40.9v-1.7M149.4 33.7V32M149.4 26.5v-1.7M149.4 19.3v-1.9M149.4 11.8v-1.6M170.7 40.9v-1.7M170.7 33.7V32M170.7 26.5v-1.7M170.7 19.3v-1.9M170.7 11.8v-1.6M192.3 46.9v-.5M192.3 40.9v-1.7M192.3 33.7V32M192.3 26.5v-1.7M192.3 19.3v-1.9M192.3 11.8v-1.6M96.1 40.9h10.3M117.2 40.9h10.6M138.6 40.9h10.8M160.2 40.9h10.5M181.5 40.9h10.8M96.1 33.7h10.3M117.2 33.7h10.6M138.6 33.7h10.8M160.2 33.7h10.5M181.5 33.7h10.8M96.1 26.5h10.3M117.2 26.5h10.6M138.6 26.5h10.8M160.2 26.5h10.5M181.5 26.5h10.8M96.1 19.3h10.3M117.2 19.3h10.6M138.6 19.3h10.8M160.2 19.3h10.5M181.5 19.3h10.8M96.1 11.8h10.3M117.2 11.8h10.6M138.6 11.8h10.8M160.2 11.8h10.5M181.5 11.8h10.8M96.1 41.1H117M117.2 41.1h21.4M138.8 41.1h21.1M160.2 41.1h21.3M181.8 41.1h21.3M96.1 33.9H117M117.2 33.9h21.4M138.8 33.9h21.1M160.2 33.9h21.3M181.8 33.9h20.1M96.1 26.7H117M117.2 26.7h21.4M138.8 26.7h21.1M160.2 26.7h21.3M181.8 26.7h18.9M96.1 19.3H117M117.2 19.3h21.4M138.8 19.3h21.1M160.2 19.3h21.3M181.8 19.3h17.7M96.1 12.1H117M117.2 12.1h21.4M138.8 12.1h21.1M160.2 12.1h21.3M181.8 12.1h16.5M117 44.5v-3.4M117 37.3v-3.4M117 30.1v-3.4M117 22.9v-3.6M117 15.4v-3.3M117 8.2V4.9M138.6 44.5v-3.4M138.6 37.3v-3.4M138.6 30.1v-3.4M138.6 22.9v-3.6M138.6 15.4v-3.3M138.6 8.2V4.9M159.9 44.5v-3.4M159.9 37.3v-3.4M159.9 30.1v-3.4M159.9 22.9v-3.6M159.9 15.4v-3.3M159.9 8.2V4.9M181.5 44.5v-3.4M181.5 37.3v-3.4M181.5 30.1v-3.4M181.5 22.9v-3.6M181.5 15.4v-3.3M181.5 8.2V4.9M203.1 44.5v-3.4M96.1 44.5H117M117.2 44.5h21.4M138.8 44.5h21.1M160.2 44.5h21.3M181.8 44.5h21.3M203.1 44.5h.3M96.1 37.3H117M117.2 37.3h21.4M138.8 37.3h21.1M160.2 37.3h21.3M181.8 37.3h20.6M96.1 30.1H117M117.2 30.1h21.4M138.8 30.1h21.1M160.2 30.1h21.3M181.8 30.1h19.4M96.1 22.9H117M117.2 22.9h21.4M138.8 22.9h21.1M160.2 22.9h21.3M181.8 22.9H200M96.1 15.4H117M117.2 15.4h21.4M138.8 15.4h21.1M160.2 15.4h21.3M181.8 15.4h17M96.1 8.2H117M117.2 8.2h21.4M138.8 8.2h21.1M160.2 8.2h21.3M181.8 8.2h15.8"/><path class="cls-8" d="M117.2 44.5v-3.4M117.2 37.3v-3.4M117.2 30.1v-3.4M117.2 22.9v-3.6M117.2 15.4v-3.3M117.2 8.2V4.9M138.8 44.5v-3.4M138.8 37.3v-3.4M138.8 30.1v-3.4M138.8 22.9v-3.6M138.8 15.4v-3.3M138.8 8.2V4.9M160.2 44.5v-3.4M160.2 37.3v-3.4M160.2 30.1v-3.4M160.2 22.9v-3.6M160.2 15.4v-3.3M160.2 8.2V4.9M181.8 44.5v-3.4M181.8 37.3v-3.4M181.8 30.1v-3.4M181.8 22.9v-3.6M181.8 15.4v-3.3M181.8 8.2V4.9M203.1 44.5v-1.9"/><path class="cls-7" d="M95.8 4.9h101l6.3 37.7v4.2h-22.5v-.4h-59.3v.4H95.8"/><path class="cls-15" d="M121.3 46.4h59.3V50h-59.3zM224.5 375.4h59.3v3.4h-59.3z"/><path class="cls-16" d="M373.3 232.4h-57.6M371.8 233.8h-56.1M373.3 232.4h-57.6M315.7 233.8v-1.4M374 231.7h-58.3M371.8 233.8h-56.1"/><path class="cls-21" d="M343.7 216.4c1.3-.9 3-.9 4.3 0 1.9 1.5 2.9 3.8 2.9 6.2l-.3 9H341l-.3-9c0-2.4 1-4.7 2.9-6.2"/><path class="cls-16" d="M343.7 216.4c1.3-.9 3-.9 4.3 0 1.9 1.5 2.9 3.8 2.9 6.2l-.3 9H341l-.3-9c0-2.4 1-4.7 2.9-6.2"/><path class="cls-21" d="M345.8 226.5c-1 0-2-.3-2.8-1.1-.7-.7-1.2-1.7-1.2-2.7 0-2.1.9-4.1 2.5-5.4.9-.6 2-.6 2.9 0 1.6 1.3 2.5 3.3 2.5 5.4 0 1-.4 2-1.2 2.7-.7.7-1.7 1.1-2.8 1.1"/><path class="cls-16" d="M345.8 226.5c-1 0-2-.3-2.8-1.1-.7-.7-1.2-1.7-1.2-2.7 0-2.1.9-4.1 2.5-5.4.9-.6 2-.6 2.9 0 1.6 1.3 2.5 3.3 2.5 5.4 0 1-.4 2-1.2 2.7-.7.7-1.7 1.1-2.8 1.1"/><path class="cls-21" d="M338.7 231.7v-41.5h-22.5v41.5h22.5"/><path class="cls-16" d="M316.2 190.2h22.6v41.5h-22.6zM316.2 229.8h22.5M373.3 241v-8.6M371.8 241v-7.2M373.3 241v-8.6M374 241v-9.3M371.8 241v-7.2"/><path class="cls-21" d="M370.6 231.6v-12-.4c0-.1-.1-.3-.2-.4-.1-.1-.2-.2-.4-.2H355.9c-.1 0-.3.1-.4.2-.1.1-.2.2-.2.4v12.4h15.6"/><path class="cls-16" d="M370.6 231.6v-12-.4c0-.1-.1-.3-.2-.4-.1-.1-.2-.2-.4-.2H355.9c-.1 0-.3.1-.4.2-.1.1-.2.2-.2.4v12.4h15.6M232.4 234.6h.7v15.6h-.7zM233.1 249.4h16.1v.7h-16.1zM249.2 219h.7v31.2h-.7zM232.4 250.2h.7v1h-.7zM232.4 219h.7v15.6h-.7zM233.1 219h16.1v.5h-16.1zM232.4 218.2h17.8v.7h-17.8z"/><path class="cls-20" d="M237.9 249.4H248v2.6h-10.1z"/><path class="cls-16" d="M237.9 249.4H248v2.6h-10.1zM237.7 249.4z"/><path class="cls-18" d="M247.3 249.4v-8.6"/><path class="cls-3" d="M238.6 249.4l.3-1.6.5-1.7.7-1.5 1.2-1.2 1.2-1.2 1.4-.7 1.7-.5 1.7-.2"/><path class="cls-16" d="M311.1 151.8V90.1h-17.5v44.1h-35v17.6h52.5zM296 90.6h-2.4M296 99.2h-2.4M296 116.2h-2.4M296 133h-2.4"/><path class="cls-21" d="M276.4 146.6v-8.9c0-.3 0-.5.2-.8.1-.2.2-.5.4-.6.2-.2.4-.3.6-.4.2 0 .5-.2.8-.2h11.2c.3 0 .5 0 .8.2.2 0 .5.2.6.4.2.2.3.4.4.6.1.2.2.5.2.8v9.3c0 .1 0 .3-.1.4 0 .1-.1.2-.2.3 0 .1-.2.2-.2.3 0 0-.2.2-.3.2-.1 0-.2.1-.3.2-.1 0-.2 0-.4.1h-12c-.1 0-.3 0-.4-.1-.1 0-.2-.1-.3-.2-.1 0-.2-.2-.3-.2 0 0-.2-.2-.2-.3 0-.1-.1-.2-.2-.3 0-.1 0-.2-.1-.4v-.4"/><path class="cls-16" d="M276.4 146.6v-8.9c0-.3 0-.5.2-.8.1-.2.2-.5.4-.6.2-.2.4-.3.6-.4.2 0 .5-.2.8-.2h11.2c.3 0 .5 0 .8.2.2 0 .5.2.6.4.2.2.3.4.4.6.1.2.2.5.2.8v9.3c0 .1 0 .3-.1.4 0 .1-.1.2-.2.3 0 .1-.2.2-.2.3 0 0-.2.2-.3.2-.1 0-.2.1-.3.2-.1 0-.2 0-.4.1h-12c-.1 0-.3 0-.4-.1-.1 0-.2-.1-.3-.2-.1 0-.2-.2-.3-.2 0 0-.2-.2-.2-.3 0-.1-.1-.2-.2-.3 0-.1 0-.2-.1-.4v-.4"/><path class="cls-21" d="M285.2 145.3c0-.7-.5-1.2-1.2-1.2s-1.2.5-1.2 1.2.5 1.2 1.2 1.2 1.2-.5 1.2-1.2"/><path class="cls-16" d="M285.2 145.3c0-.7-.5-1.2-1.2-1.2s-1.2.5-1.2 1.2.5 1.2 1.2 1.2 1.2-.5 1.2-1.2"/><path class="cls-20" d="M295 99.7h14.6v15.8H295z"/><path class="cls-16" d="M295 99.7h14.6v15.8H295z"/><path class="cls-21" d="M302.7 103.6c0-1.5-1.3-2.8-2.9-2.8s-2.9 1.2-2.9 2.8 1.3 2.8 2.9 2.8 2.9-1.2 2.9-2.8"/><path class="cls-16" d="M302.7 103.6c0-1.5-1.3-2.8-2.9-2.8s-2.9 1.2-2.9 2.8 1.3 2.8 2.9 2.8 2.9-1.2 2.9-2.8"/><path class="cls-21" d="M308.7 102.6c0-1.2-1-2.2-2.2-2.2s-2.2 1-2.2 2.2 1 2.2 2.2 2.2 2.2-1 2.2-2.2"/><path class="cls-16" d="M308.7 102.6c0-1.2-1-2.2-2.2-2.2s-2.2 1-2.2 2.2 1 2.2 2.2 2.2 2.2-1 2.2-2.2"/><path class="cls-21" d="M302 111.2c0-1.2-1-2.2-2.2-2.2s-2.2 1-2.2 2.2 1 2.2 2.2 2.2 2.2-1 2.2-2.2"/><path class="cls-16" d="M302 111.2c0-1.2-1-2.2-2.2-2.2s-2.2 1-2.2 2.2 1 2.2 2.2 2.2 2.2-1 2.2-2.2"/><path class="cls-21" d="M309 111c0-1.6-1.2-2.9-2.8-2.9s-2.8 1.3-2.8 2.9 1.2 2.9 2.8 2.9 2.8-1.3 2.8-2.9"/><path class="cls-16" d="M309 111c0-1.6-1.2-2.9-2.8-2.9s-2.8 1.3-2.8 2.9 1.2 2.9 2.8 2.9 2.8-1.3 2.8-2.9"/><path class="cls-1" d="M301 151.8V90.1"/><path class="cls-16" d="M241 134.2h16.8v.7H241zM257.4 135h.5v15.1h-.5zM241 135h.5v15.1h-.5zM241 150.1h16.8v.7H241zM237.4 134.2h3.6v.7h-3.6z"/><path class="cls-16" d="M257.8 134.2h.7v17.5h-.7zM292.6 136.6v-2.4M275.6 136.6v-2.4M258.6 136.6v-2.4"/><path class="cls-21" d="M288.4 205.9c-.9-1.3-.9-3 0-4.3 1.5-1.9 3.8-2.9 6.2-2.9l9 .3v9.6l-9 .3c-2.4 0-4.7-1-6.2-2.9"/><path class="cls-16" d="M288.4 205.9c-.9-1.3-.9-3 0-4.3 1.5-1.9 3.8-2.9 6.2-2.9l9 .3v9.6l-9 .3c-2.4 0-4.7-1-6.2-2.9"/><path class="cls-21" d="M298.5 203.7c0 1-.3 2-1.1 2.8-.7.7-1.7 1.2-2.7 1.2-2.1 0-4.1-.9-5.4-2.5-.6-.9-.6-2 0-2.9 1.3-1.6 3.3-2.5 5.4-2.5 1 0 2 .4 2.7 1.2.7.7 1.1 1.7 1.1 2.8"/><path class="cls-16" d="M298.5 203.7c0 1-.3 2-1.1 2.8-.7.7-1.7 1.2-2.7 1.2-2.1 0-4.1-.9-5.4-2.5-.6-.9-.6-2 0-2.9 1.3-1.6 3.3-2.5 5.4-2.5 1 0 2 .4 2.7 1.2.7.7 1.1 1.7 1.1 2.8"/><path class="cls-21" d="M303.2 255H255v-.1l-.1-.1-.1-.1v-20.6l.1-.1.1-.1v-.1h48.4l.1.1v.1h.1v20.8h-.1v.1l-.1.1h-.2"/><path class="cls-16" d="M303.2 255H255v-.1l-.1-.1-.1-.1v-20.6l.1-.1.1-.1v-.1h48.4l.1.1v.1h.1v20.8h-.1v.1l-.1.1h-.2"/><path class="cls-21" d="M297.9 252.9h-37.4c-.4 0-.9 0-1.3-.3-.4-.2-.8-.4-1.1-.7-.3-.3-.6-.7-.7-1.1-.2-.4-.3-.9-.3-1.3v-10.2c0-.4 0-.9.3-1.3.2-.4.4-.8.7-1.1s.7-.6 1.1-.7c.4-.2.9-.3 1.3-.3h37.4c.4 0 .9 0 1.3.3.4.2.8.4 1.1.7.3.3.6.7.7 1.1.2.4.3.9.3 1.3v10.2c0 .4 0 .9-.3 1.3-.2.4-.4.8-.7 1.1-.3.3-.7.6-1.1.7-.4.2-.9.3-1.3.3"/><path class="cls-16" d="M297.9 252.9h-37.4c-.4 0-.9 0-1.3-.3-.4-.2-.8-.4-1.1-.7-.3-.3-.6-.7-.7-1.1-.2-.4-.3-.9-.3-1.3v-10.2c0-.4 0-.9.3-1.3.2-.4.4-.8.7-1.1s.7-.6 1.1-.7c.4-.2.9-.3 1.3-.3h37.4c.4 0 .9 0 1.3.3.4.2.8.4 1.1.7.3.3.6.7.7 1.1.2.4.3.9.3 1.3v10.2c0 .4 0 .9-.3 1.3-.2.4-.4.8-.7 1.1-.3.3-.7.6-1.1.7-.4.2-.9.3-1.3.3M304.4 190.6v20.9M305.6 190.6v19.5M304.4 190.6v20.9M305.6 190.6v19.5M308.2 211.5V230M309.4 210.1v21.3M308.2 211.5V230M307.5 212.2v17.1M309.4 210.1v21.3M304.4 230v25.2M305.6 231.4v23.8M304.4 230v25.2M303.7 229.3v25.9M305.6 231.4v23.8"/><path class="cls-21" d="M303.6 228.5h-12.4c-.1 0-.3-.1-.4-.2-.1-.1-.2-.2-.2-.4V214.2v-.4c0-.1.1-.3.2-.4.1-.1.2-.2.4-.2h12.4v15.6"/><path class="cls-16" d="M303.6 228.5h-12.4c-.1 0-.3-.1-.4-.2-.1-.1-.2-.2-.2-.4V214.2v-.4c0-.1.1-.3.2-.4.1-.1.2-.2.4-.2h12.4v15.6"/><path class="cls-14" d="M303.7 212.2h3.8"/><path class="cls-4" d="M307.5 212.2v17.1"/><path class="cls-14" d="M307.5 229.3h-3.8"/><path class="cls-16" d="M308.2 230h-3.8M309.4 231.4h-3.8M308.2 230h-3.8M307.5 229.3h-3.8M309.4 231.4h-3.8M304.4 211.5h3.8M305.6 210.1h3.8M304.4 211.5h3.8M303.7 212.2h3.8M305.6 210.1h3.8M294.3 185.8v-29.5M295.8 185.8v-29.5M294.3 185.8v-29.5M295.8 156.3h-1.5M293.6 185.8v-29.5M295.8 185.8v-29.5M295.8 185.8h-1.5"/><path class="cls-21" d="M.8 250.4l4.8-4.8H.8v4.8"/><path class="cls-15" d="M3.7 247.8l-2.2-2.2M1.5 249.7L1 249M1 248.2l2.7-2.6"/><path class="cls-21" d="M.8 250.4l4.8-4.8H.8v4.8"/><path class="cls-15" d="M3.7 247.8l-2.2-2.2M1.5 249.7L1 249M1 248.2l2.7-2.6"/><path class="cls-17" d="M.8 245.6v4.8M.8 245.6v4.8"/><path class="cls-21" d="M7.8 213.4v-68.6l-7-9.8v78.4h7"/><path class="cls-15" d="M5.4 141.2L1 136.9M8 147.7l-7-7M8 151.8l-7-7M8 155.8l-7-6.9M8 159.7l-7-7M8 163.8l-7-7M8 167.8l-7-6.9M8 171.7l-7-7M8 175.8l-7-7M8 179.8l-7-6.9M8 183.9L1 177M8 187.8l-7-7M8 191.8l-7-6.9M8 195.9L1 189M8 199.8l-7-7M8 203.8l-7-6.9M8 207.9L1 201M8 212l-7-7M5.4 213.4L1 208.9M1.5 213.4L1 213M7.8 213.4l.2-.2M3.7 213.4l4.3-4.3M1 212.2l7-6.9M1 208.2l7-7M1 204.1l7-7M1 200.2l7-6.9M1 196.2l7-7M1 192.1l7-7M1 188l7-7M1 184.2l7-7M1 180.1l7-7M1 176l7-7M1 172.2l7-7M1 168.1l7-7M1 164l7-7M1 160.2l7-7M1 156.1l7-7M1 152l7-7M1 147.9l5.3-5.3M1 144.1l3.6-3.9M1 140l2-2.2M1 135.9l.3-.2"/><path class="cls-21" d="M7.8 213.4v-68.6l-7-9.8v78.4h7"/><path class="cls-15" d="M5.4 141.2L1 136.9M8 147.7l-7-7M8 151.8l-7-7M8 155.8l-7-6.9M8 159.7l-7-7M8 163.8l-7-7M8 167.8l-7-6.9M8 171.7l-7-7M8 175.8l-7-7M8 179.8l-7-6.9M8 183.9L1 177M8 187.8l-7-7M8 191.8l-7-6.9M8 195.9L1 189M8 199.8l-7-7M8 203.8l-7-6.9M8 207.9L1 201M8 212l-7-7M5.4 213.4L1 208.9M1.5 213.4L1 213M7.8 213.4l.2-.2M3.7 213.4l4.3-4.3M1 212.2l7-6.9M1 208.2l7-7M1 204.1l7-7M1 200.2l7-6.9M1 196.2l7-7M1 192.1l7-7M1 188l7-7M1 184.2l7-7M1 180.1l7-7M1 176l7-7M1 172.2l7-7M1 168.1l7-7M1 164l7-7M1 160.2l7-7M1 156.1l7-7M1 152l7-7M1 147.9l5.3-5.3M1 144.1l3.6-3.9M1 140l2-2.2M1 135.9l.3-.2"/><path class="cls-17" d="M.8 135v78.4M7.8 209.6v3.8M7.8 144.8v54.7M7.8 209.6v3.8M.8 135v78.4M7.8 144.8v54.7"/><path class="cls-16" d="M0 213.4h1.7v2.4H0zM0 243.2h1.7v2.4H0z"/><path class="cls-16" d="M0 215.8h1.7v27.4H0zM1.8 215.8v27.4"/><path class="cls-1" d="M7.8 215.6v27.8"/><path class="cls-16" d="M7.8 243v.4"/><path class="cls-21" d="M7.8 213.4v2.2h-6v-2.2"/><path class="cls-15" d="M7.5 215.6l-2.1-2.2M3.7 215.6L2 213.9M5.6 215.6l2.2-2.2M2 215.1l1.7-1.7"/><path class="cls-21" d="M7.8 245.6v-2.2h-6v2.2"/><path class="cls-15" d="M8 243.9l-.7-.5M5.6 245.6l-2.2-2.2M7.5 245.6l.5-.2M3.7 245.6l2.1-2.2"/><path class="cls-17" d="M7.8 215.6h-6M7.8 243.4h-6M7.8 215.6h-6M7.8 213.4v2.2M7.8 243.4h-6M7.8 245.6v-2.2M.8 213.4h1M.8 245.6h1M7.8 213.4v2.2M7.8 245.6v-2.2M1.8 215.6v-2.2M1.8 243.4v2.2"/><path class="cls-21" d="M198.1 213.4h-7.2v-71.5l7.2-6.9v78.4"/><path class="cls-15" d="M198.3 137.6l-1.4-1.4M198.3 141.7l-3.6-3.4M198.3 145.8l-5.5-5.6M198.3 149.6l-7.2-7.2M198.3 153.7l-7.2-7.2M198.3 157.8l-7.2-7.2M198.3 161.6l-7.2-7.2M198.3 165.7l-7.2-7.2M198.3 169.8l-7.2-7.2M198.3 173.6l-7.2-7.2M198.3 177.7l-7.2-7.2M198.3 181.8l-7.2-7.2M198.3 185.8l-7.2-7.2M198.3 189.7l-7.2-7.2M198.3 193.8l-7.2-7.2M198.3 197.8l-7.2-7.2M198.3 201.7l-7.2-7.2M198.3 205.8l-7.2-7.2M198.3 209.8l-7.2-7.2M197.8 213.4l-6.7-6.9M193.8 213.4l-2.7-2.8M196.2 213.4l2.1-2.1M192.1 213.4l6.2-6.2M191.1 210.6l7.2-7.2M191.1 206.5l7.2-7.2M191.1 202.4l7.2-7.2M191.1 198.6l7.2-7.2M191.1 194.5l7.2-7.2M191.1 190.4l7.2-7.2M191.1 186.6l7.2-7.2M191.1 182.5l7.2-7.2M191.1 178.4l7.2-7.2M191.1 174.3l7.2-7.2M191.1 170.5l7.2-7.2M191.1 166.4l7.2-7.2M191.1 162.3l7.2-7.2M191.1 158.5l7.2-7.2M191.1 154.4l7.2-7.2M191.1 150.3l7.2-7.2M191.1 146.5l7.2-7.2M191.1 142.4l7.2-7.2"/><path class="cls-21" d="M190.9 213.4h7.2V135l-7.2 6.9v71.5"/><path class="cls-15" d="M198.3 137.6l-1.4-1.4M198.3 141.7l-3.6-3.4M198.3 145.8l-5.5-5.6M198.3 149.6l-7.2-7.2M198.3 153.7l-7.2-7.2M198.3 157.8l-7.2-7.2M198.3 161.6l-7.2-7.2M198.3 165.7l-7.2-7.2M198.3 169.8l-7.2-7.2M198.3 173.6l-7.2-7.2M198.3 177.7l-7.2-7.2M198.3 181.8l-7.2-7.2M198.3 185.8l-7.2-7.2M198.3 189.7l-7.2-7.2M198.3 193.8l-7.2-7.2M198.3 197.8l-7.2-7.2M198.3 201.7l-7.2-7.2M198.3 205.8l-7.2-7.2M198.3 209.8l-7.2-7.2M197.8 213.4l-6.7-6.9M193.8 213.4l-2.7-2.8M196.2 213.4l2.1-2.1M192.1 213.4l6.2-6.2M191.1 210.6l7.2-7.2M191.1 206.5l7.2-7.2M191.1 202.4l7.2-7.2M191.1 198.6l7.2-7.2M191.1 194.5l7.2-7.2M191.1 190.4l7.2-7.2M191.1 186.6l7.2-7.2M191.1 182.5l7.2-7.2M191.1 178.4l7.2-7.2M191.1 174.3l7.2-7.2M191.1 170.5l7.2-7.2M191.1 166.4l7.2-7.2M191.1 162.3l7.2-7.2M191.1 158.5l7.2-7.2M191.1 154.4l7.2-7.2M191.1 150.3l7.2-7.2M191.1 146.5l7.2-7.2M191.1 142.4l7.2-7.2"/><path class="cls-17" d="M198.1 213.4V135M190.9 213.4v-71.5M190.9 213.4v-71.5M198.1 213.4V135"/><path class="cls-21" d="M198.1 245.6h-4.8l4.8 4.8v-4.8"/><path class="cls-15" d="M198.3 245.8l-.5-.2M198.3 249.9l-4.3-4.3M196.6 249l1.7-1.7M194.7 246.8l1.2-1.2"/><path class="cls-21" d="M198.1 245.6h-4.8l4.8 4.8v-4.8"/><path class="cls-15" d="M198.3 245.8l-.5-.2M198.3 249.9l-4.3-4.3M196.6 249l1.7-1.7M194.7 246.8l1.2-1.2"/><path class="cls-17" d="M198.1 250.4v-4.8M198.1 250.4v-4.8"/><path class="cls-16" d="M196.9 243.2h1.7v2.4h-1.7zM196.9 213.4h1.7v2.4h-1.7z"/><path class="cls-16" d="M196.9 215.8h1.7v27.4h-1.7zM196.9 243.2v-27.4"/><path class="cls-1" d="M190.9 243.4v-27.8"/><path class="cls-16" d="M190.9 216.1v-.5"/><path class="cls-21" d="M190.9 245.6v-2.2h6v2.2"/><path class="cls-15" d="M197.1 244.6l-1.4-1.2M194 245.6l-2.2-2.2M195.9 245.6l1.2-1M192.1 245.6l2.1-2.2"/><path class="cls-21" d="M190.9 213.4v2.2h6v-2.2"/><path class="cls-15" d="M195.9 215.6l-2.1-2.2M192.1 215.6l-1-1M194 215.6l2.2-2.2M191.1 214.4l1-1"/><path class="cls-17" d="M190.9 243.4h6M190.9 215.6h6M190.9 243.4h6M190.9 245.6v-2.2M190.9 215.6h6M190.9 213.4v2.2M198.1 245.6h-1.2M198.1 213.4h-1.2M190.9 245.6v-2.2M190.9 213.4v2.2M196.9 243.4v2.2M196.9 215.6v-2.2"/><path class="cls-15" d="M225.8 243.1c0-14.9-12.3-27.2-27.2-27.2M198.6 243.2h27.1"/><path class="cls-22" d="M377.6 57.2V42.6h31.2v14.6h-31.2"/><path class="cls-21" d="M377.6 42.6v3.3h31.2v-3.3h-31.2"/><path class="cls-15" d="M377.8 44.5l1.2 1.4M379.8 42.6l3.3 3.3M383.8 42.6l3.4 3.3M387.7 42.6l3.3 3.3M391.8 42.6l3.3 3.3M395.8 42.6l3.4 3.3M399.7 42.6l3.3 3.3M403.8 42.6l3.3 3.3M407.8 42.6l1.2 1.2"/><path class="cls-21" d="M377.6 45.9v.7h31.2v-.7h-31.2M377.6 46.6v5.6h31.2v-5.6h-31.2"/><path class="cls-15" d="M408.8 52.2v-5.6M407.4 52.2v-5.6M405.9 52.2v-5.6M404.7 52.2v-5.6M403.3 52.2v-5.6M401.8 52.2v-5.6M400.4 52.2v-5.6M399 52.2v-5.6M397.5 52.2v-5.6M396.1 52.2v-5.6M394.6 52.2v-5.6M393.2 52.2v-5.6M391.8 52.2v-5.6M390.3 52.2v-5.6M389.1 52.2v-5.6M387.7 52.2v-5.6M386.2 52.2v-5.6M384.8 52.2v-5.6M383.4 52.2v-5.6M381.9 52.2v-5.6M380.5 52.2v-5.6M379 52.2v-5.6"/><path class="cls-21" d="M377.6 52.2v5h31.2v-5h-31.2"/><path class="cls-15" d="M377.8 56.5l.5.7M377.8 52.6l4.6 4.6M381.4 52.2l5.1 5M385.3 52.2l5 5M389.4 52.2l5 5M393.4 52.2l5.1 5M397.3 52.2l5 5M401.4 52.2l5 5M405.4 52.2l3.6 3.6"/><path class="cls-17" d="M377.6 45.9h31.2M377.6 42.6h31.2"/><path class="cls-15" d="M377.6 52.2h31.2M377.6 46.6h31.2"/><path class="cls-17" d="M377.6 57.2h31.2M377.6 52.2h31.2"/><path class="cls-16" d="M377.6 42.6h31.2M377.6 57.2h31.2"/><path class="cls-22" d="M285.7 57.2V42.6h51.1v14.6h-51.1"/><path class="cls-21" d="M285.7 42.6v3.3h51.1v-3.3h-51.1"/><path class="cls-15" d="M285.9 44.7l1 1.2M287.6 42.6l3.4 3.3M291.4 42.6l3.4 3.3M295.5 42.6l3.4 3.3M299.6 42.6l3.4 3.3M303.7 42.6l3.3 3.3M307.5 42.6l3.4 3.3M311.6 42.6l3.4 3.3M315.7 42.6l3.3 3.3M319.5 42.6l3.4 3.3M323.6 42.6l3.4 3.3M327.7 42.6l3.3 3.3M331.5 42.6l3.4 3.3M335.6 42.6l1.4 1.2"/><path class="cls-21" d="M285.7 45.9v.7h51.1v-.7h-51.1M285.7 46.6v5.6h51.1v-5.6h-51.1"/><path class="cls-15" d="M336.6 52.2v-5.6M335.1 52.2v-5.6M333.7 52.2v-5.6M332.2 52.2v-5.6M330.8 52.2v-5.6M329.6 52.2v-5.6M328.2 52.2v-5.6M326.7 52.2v-5.6M325.3 52.2v-5.6M323.8 52.2v-5.6M322.4 52.2v-5.6M321 52.2v-5.6M319.5 52.2v-5.6M318.1 52.2v-5.6M316.6 52.2v-5.6M315.2 52.2v-5.6M314 52.2v-5.6M312.6 52.2v-5.6M311.1 52.2v-5.6M309.7 52.2v-5.6M308.2 52.2v-5.6M306.8 52.2v-5.6M305.4 52.2v-5.6M303.9 52.2v-5.6M302.5 52.2v-5.6M301 52.2v-5.6M299.8 52.2v-5.6M298.4 52.2v-5.6M297 52.2v-5.6M295.5 52.2v-5.6M294.1 52.2v-5.6M292.6 52.2v-5.6M291.2 52.2v-5.6M289.8 52.2v-5.6M288.3 52.2v-5.6M286.9 52.2v-5.6"/><path class="cls-21" d="M285.7 52.2v5h51.1v-5h-51.1"/><path class="cls-15" d="M285.9 57l.3.2M285.9 52.9l4.3 4.3M289 52.2l5.1 5M293.1 52.2l5.1 5M297.2 52.2l5 5M301 52.2l5.1 5M305.1 52.2l5.1 5M309.2 52.2l5 5M313.3 52.2l5 5M317.1 52.2l5.1 5M321.2 52.2l5 5M325.3 52.2l5 5M329.1 52.2l5.1 5M333.2 52.2l3.8 3.6"/><path class="cls-17" d="M285.7 45.9h51.1M285.7 42.6h51.1"/><path class="cls-15" d="M285.7 52.2h51.1M285.7 46.6h51.1"/><path class="cls-17" d="M285.7 57.2h51.1M285.7 52.2h51.1"/><path class="cls-16" d="M285.7 42.6h51.1M285.7 57.2h51.1"/><path class="cls-22" d="M182.5 57.2V42.6h40.1v14.6h-40.1"/><path class="cls-21" d="M182.5 42.6v3.3h40.1v-3.3h-40.1"/><path class="cls-15" d="M183.2 42.6l3.4 3.3M187.3 42.6l3.3 3.3M191.4 42.6l3.3 3.3M195.4 42.6l3.4 3.3M199.3 42.6l3.3 3.3M203.4 42.6l3.3 3.3M207.4 42.6l3.4 3.3M211.3 42.6l3.3 3.3M215.4 42.6l3.3 3.3M219.4 42.6l3.4 3.3"/><path class="cls-21" d="M182.5 45.9v.7h40.1v-.7h-40.1M182.5 46.6v5.6h40.1v-5.6h-40.1"/><path class="cls-15" d="M221.8 52.2v-5.6M220.4 52.2v-5.6M219 52.2v-5.6M217.5 52.2v-5.6M216.1 52.2v-5.6M214.6 52.2v-5.6M213.2 52.2v-5.6M211.8 52.2v-5.6M210.3 52.2v-5.6M209.1 52.2v-5.6M207.7 52.2v-5.6M206.2 52.2v-5.6M204.8 52.2v-5.6M203.4 52.2v-5.6M201.9 52.2v-5.6M200.5 52.2v-5.6M199 52.2v-5.6M197.6 52.2v-5.6M196.2 52.2v-5.6M195 52.2v-5.6M193.5 52.2v-5.6M192.1 52.2v-5.6M190.6 52.2v-5.6M189.2 52.2v-5.6M187.8 52.2v-5.6M186.3 52.2v-5.6M184.9 52.2v-5.6M183.4 52.2v-5.6"/><path class="cls-21" d="M182.5 52.2v5h40.1v-5h-40.1"/><path class="cls-15" d="M182.7 53.8l3.1 3.4M184.9 52.2l5 5M189 52.2l5 5M192.8 52.2l5 5M196.9 52.2l5 5M201 52.2l5 5M205 52.2l5.1 5M208.9 52.2l5 5M213 52.2l5 5M217 52.2l5.1 5M220.9 52.2l1.9 1.6"/><path class="cls-17" d="M182.5 45.9h40.1M182.5 42.6h40.1"/><path class="cls-15" d="M182.5 52.2h40.1M182.5 46.6h40.1"/><path class="cls-17" d="M182.5 57.2h40.1M182.5 52.2h40.1"/><path class="cls-16" d="M182.5 42.6h40.1M182.5 57.2h40.1"/><path class="cls-22" d="M95.8 57.2V42.6h23.8v14.6H95.8"/><path class="cls-21" d="M95.8 42.6v3.3h23.8v-3.3H95.8"/><path class="cls-15" d="M96.1 43.5l2.4 2.4M99.2 42.6l3.4 3.3M103 42.6l3.4 3.3M107.1 42.6l3.4 3.3M111.2 42.6l3.4 3.3M115.3 42.6l3.3 3.3M119.1 42.6l.7.4"/><path class="cls-21" d="M95.8 45.9v.7h23.8v-.7H95.8M95.8 46.6v5.6h23.8v-5.6H95.8"/><path class="cls-15" d="M118.4 52.2v-5.6M117 52.2v-5.6M115.5 52.2v-5.6M114.1 52.2v-5.6M112.6 52.2v-5.6M111.2 52.2v-5.6M109.8 52.2v-5.6M108.3 52.2v-5.6M106.9 52.2v-5.6M105.4 52.2v-5.6M104.2 52.2v-5.6M102.8 52.2v-5.6M101.4 52.2v-5.6M99.9 52.2v-5.6M98.5 52.2v-5.6M97 52.2v-5.6"/><path class="cls-21" d="M95.8 52.2v5h23.8v-5H95.8"/><path class="cls-15" d="M96.1 55.5l1.7 1.7M96.8 52.2l5 5M100.6 52.2l5.1 5M104.7 52.2l5.1 5M108.8 52.2l5 5M112.6 52.2l5.1 5M116.7 52.2l3.1 2.8"/><path class="cls-17" d="M95.8 45.9h23.8M95.8 42.6h23.8"/><path class="cls-15" d="M95.8 52.2h23.8M95.8 46.6h23.8"/><path class="cls-17" d="M95.8 57.2h23.8M95.8 52.2h23.8"/><path class="cls-16" d="M95.8 42.6h23.8M95.8 57.2h23.8M224.5 50v-7.4h-3.4v-2h66v2h-3.3V50"/><path class="cls-1" d="M222.6 57.2h63.1"/><path class="cls-16" d="M285.2 57.2h.5"/><path class="cls-17" d="M224.5 42.6h-3.4M283.8 42.6h3.3"/><path class="cls-16" d="M222.6 50h63.1v2.2h-63.1zM226.4 50v2.2M281.8 50v2.2M222.6 52.2V50M241.5 52.2V50M226.4 52.2V50M245.6 52.2V50M241.5 52.2V50M262.6 52.2V50M245.6 52.2V50M266.7 52.2V50M262.6 52.2V50M281.8 52.2V50M266.7 52.2V50M285.7 52.2V50"/><path class="cls-21" d="M222.7 46.5h1.8v3.4h-1.8"/><path class="cls-15" d="M223.3 50v-3.4M222.7 46.5h1.8v3.4h-1.8"/><path class="cls-17" d="M222.6 52.2v5"/><path class="cls-21" d="M222.6 42.6h1.9v3.3h-1.9"/><path class="cls-15" d="M223.3 42.6l1.4 1.2"/><path class="cls-17" d="M222.6 42.6h1.9v3.3h-1.9M224.5 45.9V50"/><path class="cls-21" d="M285.6 46.5h-1.9v3.4h1.9"/><path class="cls-15" d="M285.4 50v-3.4M284.2 50v-3.4M285.6 46.5h-1.9v3.4h1.9"/><path class="cls-17" d="M285.7 52.2v5"/><path class="cls-21" d="M285.7 42.6h-1.9v3.3h1.9"/><path class="cls-15" d="M284 42.8l1.9 1.9"/><path class="cls-17" d="M285.7 42.6h-1.9v3.3h1.9M283.8 45.9V50"/><path class="cls-16" d="M338.7 50v-7.4h-3.3v-2h43.9v2h-3.4V50"/><path class="cls-1" d="M336.8 57.2h40.8"/><path class="cls-16" d="M377.1 57.2h.5"/><path class="cls-17" d="M338.7 42.6h-3.3M375.9 42.6h3.4"/><path class="cls-16" d="M336.8 50h40.8v2.2h-40.8zM340.6 50v2.2M374 50v2.2M336.8 52.2V50M355.3 52.2V50M340.6 52.2V50M359.4 52.2V50M355.3 52.2V50M374 52.2V50M359.4 52.2V50M377.6 52.2V50"/><path class="cls-21" d="M336.9 46.5h1.8v3.4h-1.8"/><path class="cls-15" d="M338 50v-3.4M336.9 46.5h1.8v3.4h-1.8"/><path class="cls-17" d="M336.8 52.2v5"/><path class="cls-21" d="M336.8 42.6h1.9v3.3h-1.9"/><path class="cls-15" d="M337 43.8l2 1.9"/><path class="cls-17" d="M336.8 42.6h1.9v3.3h-1.9M338.7 45.9V50"/><path class="cls-21" d="M377.7 46.5h-1.8v3.4h1.8"/><path class="cls-15" d="M377.6 50v-3.4M376.2 50v-3.4M377.7 46.5h-1.8v3.4h1.8"/><path class="cls-17" d="M377.6 52.2v5"/><path class="cls-21" d="M377.6 42.6h-1.7v3.3h1.7"/><path class="cls-15" d="M376.2 42.8l1.6 1.7"/><path class="cls-17" d="M377.6 42.6h-1.7v3.3h1.7M375.9 45.9V50"/><path class="cls-1" d="M119.6 57.2h62.9"/><path class="cls-16" d="M119.6 50h62.9v2.2h-62.9zM123.2 50v2.2M178.6 50v2.2M119.6 52.2V50M138.3 52.2V50M123.2 52.2V50M142.4 52.2V50M138.3 52.2V50M159.4 52.2V50M142.4 52.2V50M163.5 52.2V50M159.4 52.2V50M178.6 52.2V50M163.5 52.2V50M182.5 52.2V50"/><path class="cls-17" d="M119.6 52.2v5"/><path class="cls-16" d="M183.9 42.6v-2"/><path class="cls-9" d="M183.9 40.6h-66"/><path class="cls-16" d="M117.9 40.6v1"/><path class="cls-21" d="M119.5 46.5h1.8v3.4h-1.8"/><path class="cls-15" d="M121 50v-3.4M119.8 50v-3.4M119.5 46.5h1.8v3.4h-1.8"/><path class="cls-21" d="M119.6 42.6h1.7v3.3h-1.7"/><path class="cls-15" d="M119.8 43l1.7 1.7"/><path class="cls-17" d="M119.6 42.6h1.7v3.3h-1.7M121.3 45.9V50"/><path class="cls-21" d="M182.4 46.5h-1.8v3.4h1.8"/><path class="cls-15" d="M182 50v-3.4M182.4 46.5h-1.8v3.4h1.8"/><path class="cls-17" d="M182.5 52.2v5"/><path class="cls-21" d="M182.5 42.6h-1.9v3.3h1.9"/><path class="cls-15" d="M180.8 44l1.9 1.9"/><path class="cls-17" d="M182.5 42.6h-1.9v3.3h1.9M180.6 45.9V50"/><path class="cls-22" d="M130.6 368v14.6H95.8V368h34.8"/><path class="cls-21" d="M130.6 382.6v-3.3H95.8v3.3h34.8"/><path class="cls-15" d="M96.1 380.2l2.4 2.4M99.2 379.3l3.4 3.3M103 379.3l3.4 3.3M107.1 379.3l3.4 3.3M111.2 379.3l3.4 3.3M115 379.3l3.4 3.3M119.1 379.3l3.4 3.3M123.2 379.3l3.4 3.3M127.3 379.3l3.3 3.3"/><path class="cls-21" d="M130.6 379.3v-.5H95.8v.5h34.8M130.6 378.8V373H95.8v5.8h34.8"/><path class="cls-15" d="M97 373v5.8M98.5 373v5.8M99.9 373v5.8M101.4 373v5.8M102.8 373v5.8M104.2 373v5.8M105.4 373v5.8M106.9 373v5.8M108.3 373v5.8M109.8 373v5.8M111.2 373v5.8M112.6 373v5.8M114.1 373v5.8M115.5 373v5.8M117 373v5.8M118.4 373v5.8M119.8 373v5.8M121 373v5.8M122.5 373v5.8M123.9 373v5.8M125.4 373v5.8M126.8 373v5.8M128.2 373v5.8M129.7 373v5.8"/><path class="cls-21" d="M130.6 373v-5H95.8v5h34.8"/><path class="cls-15" d="M96.1 372.1l.7.9M96.1 368l4.8 5M99.9 368l5.1 5M103.8 368l5 5M107.8 368l5.1 5M111.9 368l5.1 5M116 368l5 5M119.8 368l5.1 5M123.9 368l5.1 5M128 368l2.9 2.9"/><path class="cls-17" d="M130.6 379.3H95.8M130.6 382.6H95.8"/><path class="cls-15" d="M130.6 373H95.8M130.6 378.8H95.8"/><path class="cls-17" d="M130.6 368H95.8M130.6 373H95.8"/><path class="cls-16" d="M130.6 382.6H95.8M130.6 368H95.8"/><path class="cls-22" d="M222.6 368v14.6h-51.2V368h51.2"/><path class="cls-21" d="M222.6 382.6v-3.3h-51.2v3.3h51.2"/><path class="cls-15" d="M171.7 379.5l2.9 3.1M175.3 379.3l3.3 3.3M179.4 379.3l3.3 3.3M183.2 379.3l3.4 3.3M187.3 379.3l3.3 3.3M191.4 379.3l3.3 3.3M195.2 379.3l3.4 3.3M199.3 379.3l3.3 3.3M203.4 379.3l3.3 3.3M207.4 379.3l3.4 3.3M211.3 379.3l3.3 3.3M215.4 379.3l3.3 3.3M219.4 379.3l3.4 3.3"/><path class="cls-21" d="M222.6 379.3v-.5h-51.2v.5h51.2M222.6 378.8V373h-51.2v5.8h51.2"/><path class="cls-15" d="M172.2 373v5.8M173.6 373v5.8M175 373v5.8M176.5 373v5.8M177.9 373v5.8M179.4 373v5.8M180.6 373v5.8M182 373v5.8M183.4 373v5.8M184.9 373v5.8M186.3 373v5.8M187.8 373v5.8M189.2 373v5.8M190.6 373v5.8M192.1 373v5.8M193.5 373v5.8M195 373v5.8M196.2 373v5.8M197.6 373v5.8M199 373v5.8M200.5 373v5.8M201.9 373v5.8M203.4 373v5.8M204.8 373v5.8M206.2 373v5.8M207.7 373v5.8M209.1 373v5.8M210.3 373v5.8M211.8 373v5.8M213.2 373v5.8M214.6 373v5.8M216.1 373v5.8M217.5 373v5.8M219 373v5.8M220.4 373v5.8M221.8 373v5.8"/><path class="cls-21" d="M222.6 373v-5h-51.2v5h51.2"/><path class="cls-15" d="M171.7 371.6l1.4 1.4M171.9 368l5.1 5M176 368l5 5M180.1 368l5 5M183.9 368l5.1 5M188 368l5 5M192.1 368l5 5M196.2 368l5 5M200 368l5 5M204.1 368l5 5M208.2 368l5 5M212 368l5 5M216.1 368l5 5M220.2 368l2.6 2.6"/><path class="cls-17" d="M222.6 379.3h-51.2M222.6 382.6h-51.2"/><path class="cls-15" d="M222.6 373h-51.2M222.6 378.8h-51.2"/><path class="cls-17" d="M222.6 368h-51.2M222.6 373h-51.2"/><path class="cls-16" d="M222.6 382.6h-51.2M222.6 368h-51.2"/><path class="cls-22" d="M336.8 368v14.6h-51.1V368h51.1"/><path class="cls-21" d="M336.8 382.6v-3.3h-51.1v3.3h51.1"/><path class="cls-15" d="M285.9 381.7l1 .9M287.6 379.3l3.4 3.3M291.4 379.3l3.4 3.3M295.5 379.3l3.4 3.3M299.6 379.3l3.4 3.3M303.4 379.3l3.4 3.3M307.5 379.3l3.4 3.3M311.6 379.3l3.4 3.3M315.7 379.3l3.3 3.3M319.5 379.3l3.4 3.3M323.6 379.3l3.4 3.3M327.7 379.3l3.3 3.3M331.5 379.3l3.4 3.3M335.6 379.3l1.4 1.2"/><path class="cls-21" d="M336.8 379.3v-.5h-51.1v.5h51.1M336.8 378.8V373h-51.1v5.8h51.1"/><path class="cls-15" d="M286.9 373v5.8M288.3 373v5.8M289.8 373v5.8M291.2 373v5.8M292.6 373v5.8M294.1 373v5.8M295.5 373v5.8M297 373v5.8M298.4 373v5.8M299.8 373v5.8M301 373v5.8M302.5 373v5.8M303.9 373v5.8M305.4 373v5.8M306.8 373v5.8M308.2 373v5.8M309.7 373v5.8M311.1 373v5.8M312.6 373v5.8M314 373v5.8M315.2 373v5.8M316.6 373v5.8M318.1 373v5.8M319.5 373v5.8M321 373v5.8M322.4 373v5.8M323.8 373v5.8M325.3 373v5.8M326.7 373v5.8M328.2 373v5.8M329.6 373v5.8M330.8 373v5.8M332.2 373v5.8M333.7 373v5.8M335.1 373v5.8M336.6 373v5.8"/><path class="cls-21" d="M336.8 373v-5h-51.1v5h51.1"/><path class="cls-15" d="M285.9 369.4l3.4 3.6M288.3 368l5.1 5M292.2 368l5 5M296.2 368l5.1 5M300.3 368l5.1 5M304.4 368l5 5M308.2 368l5.1 5M312.3 368l5.1 5M316.4 368l5 5M320.2 368l5.1 5M324.3 368l5.1 5M328.4 368l5 5M332.5 368l4.5 4.6M336.3 368l.7.5"/><path class="cls-17" d="M336.8 379.3h-51.1M336.8 382.6h-51.1"/><path class="cls-15" d="M336.8 373h-51.1M336.8 378.8h-51.1"/><path class="cls-17" d="M336.8 368h-51.1M336.8 373h-51.1"/><path class="cls-16" d="M336.8 382.6h-51.1M336.8 368h-51.1"/><path class="cls-22" d="M408.8 368v14.6h-31.2V368h31.2"/><path class="cls-21" d="M408.8 382.6v-3.3h-31.2v3.3h31.2"/><path class="cls-15" d="M377.8 381.2l1.2 1.4M379.8 379.3l3.3 3.3M383.8 379.3l3.4 3.3M387.7 379.3l3.3 3.3M391.8 379.3l3.3 3.3M395.8 379.3l3.4 3.3M399.7 379.3l3.3 3.3M403.8 379.3l3.3 3.3M407.8 379.3l1.2 1.2"/><path class="cls-21" d="M408.8 379.3v-.5h-31.2v.5h31.2M408.8 378.8V373h-31.2v5.8h31.2"/><path class="cls-15" d="M379 373v5.8M380.5 373v5.8M381.9 373v5.8M383.4 373v5.8M384.8 373v5.8M386.2 373v5.8M387.7 373v5.8M389.1 373v5.8M390.3 373v5.8M391.8 373v5.8M393.2 373v5.8M394.6 373v5.8M396.1 373v5.8M397.5 373v5.8M399 373v5.8M400.4 373v5.8M401.8 373v5.8M403.3 373v5.8M404.7 373v5.8M405.9 373v5.8M407.4 373v5.8M408.8 373v5.8"/><path class="cls-21" d="M408.8 373v-5h-31.2v5h31.2"/><path class="cls-15" d="M377.8 369.2l3.6 3.8M380.5 368l5 5M384.6 368l5 5M388.4 368l5 5M392.5 368l5 5M396.6 368l5 5M400.4 368l5 5M404.5 368l4.5 4.3M408.6 368l.4.5"/><path class="cls-17" d="M408.8 379.3h-31.2M408.8 382.6h-31.2"/><path class="cls-15" d="M408.8 373h-31.2M408.8 378.8h-31.2"/><path class="cls-17" d="M408.8 368h-31.2M408.8 373h-31.2"/><path class="cls-16" d="M408.8 382.6h-31.2M408.8 368h-31.2M169.5 375.4v7.2h3.4v2H129v-2h3.3v-7.2"/><path class="cls-1" d="M171.4 368h-40.8"/><path class="cls-16" d="M131.1 368h-.5"/><path class="cls-17" d="M169.5 382.6h3.4M132.3 382.6H129"/><path class="cls-16" d="M130.6 373h40.8v2.4h-40.8zM167.6 375.4V373M134.2 375.4V373M171.4 373v2.4M153 373v2.4M167.6 373v2.4M148.9 373v2.4M153 373v2.4M134.2 373v2.4M148.9 373v2.4M130.6 373v2.4"/><path class="cls-21" d="M171.3 378.8h-1.8v-3.4h1.8"/><path class="cls-15" d="M170.7 375.4v3.4M171.3 378.8h-1.8v-3.4h1.8"/><path class="cls-17" d="M171.4 373v-5"/><path class="cls-21" d="M171.4 382.6h-1.9v-3.3h1.9"/><path class="cls-15" d="M169.8 381.7l.9.9M171.2 379.3l.5.2"/><path class="cls-17" d="M171.4 382.6h-1.9v-3.3h1.9M169.5 379.3v-3.9"/><path class="cls-21" d="M130.5 378.8h1.9v-3.4h-1.9"/><path class="cls-15" d="M131.1 375.4v3.4M130.5 378.8h1.9v-3.4h-1.9"/><path class="cls-17" d="M130.6 373v-5"/><path class="cls-21" d="M130.6 382.6h1.7v-3.3h-1.7"/><path class="cls-15" d="M131.1 379.3l1.5 1.2"/><path class="cls-17" d="M130.6 382.6h1.7v-3.3h-1.7M132.3 379.3v-3.9"/><path class="cls-1" d="M285.7 368h-63.1"/><path class="cls-16" d="M223 368h-.4M222.6 373h63.1v2.4h-63.1zM281.8 375.4V373M226.4 375.4V373M285.7 373v2.4M266.7 373v2.4M281.8 373v2.4M262.6 373v2.4M266.7 373v2.4M245.6 373v2.4M262.6 373v2.4M241.5 373v2.4M245.6 373v2.4M226.4 373v2.4M241.5 373v2.4M222.6 373v2.4"/><path class="cls-17" d="M285.7 373v-5"/><path class="cls-16" d="M221.1 382.6v2"/><path class="cls-9" d="M221.1 384.6h66"/><path class="cls-16" d="M287.1 384.6v-1"/><path class="cls-21" d="M285.6 378.8h-1.9v-3.4h1.9"/><path class="cls-15" d="M284.2 375.4v3.4M285.4 375.4v3.4M285.6 378.8h-1.9v-3.4h1.9"/><path class="cls-21" d="M285.7 382.6h-1.9v-3.3h1.9"/><path class="cls-15" d="M284 379.8l1.9 1.9"/><path class="cls-17" d="M285.7 382.6h-1.9v-3.3h1.9M283.8 379.3v-3.9"/><path class="cls-21" d="M222.7 378.8h1.8v-3.4h-1.8"/><path class="cls-15" d="M223.3 375.4v3.4M222.7 378.8h1.8v-3.4h-1.8"/><path class="cls-17" d="M222.6 373v-5"/><path class="cls-21" d="M222.6 382.6h1.9v-3.3h-1.9"/><path class="cls-15" d="M223.3 379.3l1.4 1.2"/><path class="cls-17" d="M222.6 382.6h1.9v-3.3h-1.9M224.5 379.3v-3.9"/><path class="cls-16" d="M375.9 375.4v7.2h3.4v2h-43.9v-2h3.3v-7.2"/><path class="cls-1" d="M377.6 368h-40.8"/><path class="cls-16" d="M337.3 368h-.5"/><path class="cls-17" d="M375.9 382.6h3.4M338.7 382.6h-3.3"/><path class="cls-16" d="M336.8 373h40.8v2.4h-40.8zM374 375.4V373M340.6 375.4V373M377.6 373v2.4M359.4 373v2.4M374 373v2.4M355.3 373v2.4M359.4 373v2.4M340.6 373v2.4M355.3 373v2.4M336.8 373v2.4"/><path class="cls-21" d="M377.7 378.8h-1.8v-3.4h1.8"/><path class="cls-15" d="M376.2 375.4v3.4M377.6 375.4v3.4M377.7 378.8h-1.8v-3.4h1.8"/><path class="cls-17" d="M377.6 373v-5"/><path class="cls-21" d="M377.6 382.6h-1.7v-3.3h1.7"/><path class="cls-15" d="M376.2 379.5l1.6 1.7"/><path class="cls-17" d="M377.6 382.6h-1.7v-3.3h1.7M375.9 379.3v-3.9"/><path class="cls-21" d="M336.9 378.8h1.8v-3.4h-1.8"/><path class="cls-15" d="M338 375.4v3.4M336.9 378.8h1.8v-3.4h-1.8"/><path class="cls-17" d="M336.8 373v-5"/><path class="cls-21" d="M336.8 382.6h1.9v-3.3h-1.9"/><path class="cls-15" d="M337 380.5l2 1.9"/><path class="cls-17" d="M336.8 382.6h1.9v-3.3h-1.9M338.7 379.3v-3.9"/><path class="cls-21" d="M198.1 250.4l-7.2-7H7.8l-7 7h197.3"/><path class="cls-15" d="M194.7 250.4l-6.9-7M190.6 250.4l-6.9-7M186.8 250.4l-7-7M182.7 250.4l-6.9-7M178.6 250.4l-6.9-7M174.6 250.4l-7-7M170.7 250.4l-6.9-7M166.6 250.4l-6.9-7M162.6 250.4l-7-7M158.7 250.4l-6.9-7M154.6 250.4l-6.9-7M150.6 250.4l-7-7M146.7 250.4l-6.9-7M142.6 250.4l-6.9-7M138.6 250.4l-7-7M134.5 250.4l-7-7M130.6 250.4l-6.9-7M126.6 250.4l-7-7M122.5 250.4l-7-7M118.6 250.4l-6.9-7M114.6 250.4l-7-7M110.5 250.4l-7-7M106.6 250.4l-6.9-7M102.6 250.4l-7-7M98.5 250.4l-7-7M94.4 250.4l-7-7M90.6 250.4l-7-7M86.5 250.4l-7-7M82.4 250.4l-7-7M78.6 250.4l-7-7M74.5 250.4l-7-7M70.4 250.4l-7-7M66.3 250.4l-6.9-7M62.5 250.4l-7-7M58.4 250.4l-7-7M54.3 250.4l-6.9-7M50.5 250.4l-7-7M46.4 250.4l-7-7M42.3 250.4l-6.9-7M38.5 250.4l-7-7M34.4 250.4l-7-7M30.3 250.4l-6.9-7M26.2 250.4l-6.9-7M22.4 250.4l-7-7M18.3 250.4l-6.9-7M14.2 250.4l-6.7-6.7M10.4 250.4l-4.8-4.8M6.3 250.4l-2.6-2.6M2.2 250.4l-.7-.7M195.2 250.4l1.4-1.4M191.1 250.4l3.6-3.4M187.3 250.4l5.3-5.5M183.2 250.4l7-7M179.1 250.4l7-7M175 250.4l7-7M171.2 250.4l7-7M167.1 250.4l7-7M163 250.4l7-7M159.2 250.4l7-7M155.1 250.4l7-7M151 250.4l7-7M147.2 250.4l7-7M143.1 250.4l7-7M139 250.4l7-7M135 250.4l6.9-7M131.1 250.4l7-7M127 250.4l7-7M123 250.4l6.9-7M119.1 250.4l7-7M115 250.4l7-7M111 250.4l6.9-7M107.1 250.4l7-7M103 250.4l7-7M99 250.4l6.9-7M94.9 250.4l6.9-7M91 250.4l7-7M87 250.4l6.9-7M82.9 250.4l6.9-7M79 250.4l7-7M75 250.4l6.9-7M70.9 250.4l6.9-7M66.8 250.4l7-7M63 250.4l6.9-7M58.9 250.4l6.9-7M54.8 250.4l7-7M51 250.4l6.9-7M46.9 250.4l6.9-7M42.8 250.4l7-7M39 250.4l6.9-7M34.9 250.4l6.9-7M30.8 250.4l7-7M26.7 250.4l7-7M22.9 250.4l6.9-7M18.8 250.4l7-7M14.7 250.4l7-7M10.9 250.4l6.9-7M6.8 250.4l7-7M2.7 250.4l7-7"/><path class="cls-21" d="M198.1 250.4l-7.2-7H7.8l-7 7h197.3"/><path class="cls-15" d="M194.7 250.4l-6.9-7M190.6 250.4l-6.9-7M186.8 250.4l-7-7M182.7 250.4l-6.9-7M178.6 250.4l-6.9-7M174.6 250.4l-7-7M170.7 250.4l-6.9-7M166.6 250.4l-6.9-7M162.6 250.4l-7-7M158.7 250.4l-6.9-7M154.6 250.4l-6.9-7M150.6 250.4l-7-7M146.7 250.4l-6.9-7M142.6 250.4l-6.9-7M138.6 250.4l-7-7M134.5 250.4l-7-7M130.6 250.4l-6.9-7M126.6 250.4l-7-7M122.5 250.4l-7-7M118.6 250.4l-6.9-7M114.6 250.4l-7-7M110.5 250.4l-7-7M106.6 250.4l-6.9-7M102.6 250.4l-7-7M98.5 250.4l-7-7M94.4 250.4l-7-7M90.6 250.4l-7-7M86.5 250.4l-7-7M82.4 250.4l-7-7M78.6 250.4l-7-7M74.5 250.4l-7-7M70.4 250.4l-7-7M66.3 250.4l-6.9-7M62.5 250.4l-7-7M58.4 250.4l-7-7M54.3 250.4l-6.9-7M50.5 250.4l-7-7M46.4 250.4l-7-7M42.3 250.4l-6.9-7M38.5 250.4l-7-7M34.4 250.4l-7-7M30.3 250.4l-6.9-7M26.2 250.4l-6.9-7M22.4 250.4l-7-7M18.3 250.4l-6.9-7M14.2 250.4l-6.7-6.7M10.4 250.4l-4.8-4.8M6.3 250.4l-2.6-2.6M2.2 250.4l-.7-.7M195.2 250.4l1.4-1.4M191.1 250.4l3.6-3.4M187.3 250.4l5.3-5.5M183.2 250.4l7-7M179.1 250.4l7-7M175 250.4l7-7M171.2 250.4l7-7M167.1 250.4l7-7M163 250.4l7-7M159.2 250.4l7-7M155.1 250.4l7-7M151 250.4l7-7M147.2 250.4l7-7M143.1 250.4l7-7M139 250.4l7-7M135 250.4l6.9-7M131.1 250.4l7-7M127 250.4l7-7M123 250.4l6.9-7M119.1 250.4l7-7M115 250.4l7-7M111 250.4l6.9-7M107.1 250.4l7-7M103 250.4l7-7M99 250.4l6.9-7M94.9 250.4l6.9-7M91 250.4l7-7M87 250.4l6.9-7M82.9 250.4l6.9-7M79 250.4l7-7M75 250.4l6.9-7M70.9 250.4l6.9-7M66.8 250.4l7-7M63 250.4l6.9-7M58.9 250.4l6.9-7M54.8 250.4l7-7M51 250.4l6.9-7M46.9 250.4l6.9-7M42.8 250.4l7-7M39 250.4l6.9-7M34.9 250.4l6.9-7M30.8 250.4l7-7M26.7 250.4l7-7M22.9 250.4l6.9-7M18.8 250.4l7-7M14.7 250.4l7-7M10.9 250.4l6.9-7M6.8 250.4l7-7M2.7 250.4l7-7"/><path class="cls-17" d="M102.8 250.4h91M.8 250.4h95M7.8 243.4h183.1M7.8 243.4h183.1M102.8 250.4h91M.8 250.4h95"/><path class="cls-21" d="M198.1 135H58.9v6.9h132l7.2-6.9"/><path class="cls-15" d="M196.9 136.2l-1.5-1.2M194.7 138.3l-3.1-3.3M192.8 140.2l-5.3-5.2M190.4 141.9l-7-6.9M186.6 141.9l-7-6.9M182.5 141.9l-7-6.9M178.4 141.9l-7-6.9M174.3 141.9l-6.9-6.9M170.5 141.9l-7-6.9M166.4 141.9l-7-6.9M162.3 141.9l-6.9-6.9M158.5 141.9l-7-6.9M154.4 141.9l-7-6.9M150.3 141.9l-6.9-6.9M146.5 141.9l-7-6.9M142.4 141.9l-7-6.9M138.3 141.9l-6.9-6.9M134.2 141.9l-6.9-6.9M130.4 141.9l-7-6.9M126.3 141.9l-6.9-6.9M122.2 141.9l-6.9-6.9M118.4 141.9l-7-6.9M114.3 141.9l-6.9-6.9M110.2 141.9l-6.9-6.9M106.4 141.9l-7-6.9M102.3 141.9l-6.9-6.9M98.2 141.9l-6.9-6.9M94.2 141.9l-7-6.9M90.3 141.9l-6.9-6.9M86.2 141.9l-6.9-6.9M82.2 141.9l-7-6.9M78.3 141.9l-6.9-6.9M74.2 141.9l-6.9-6.9M70.2 141.9l-7-6.9M66.1 141.9l-7-6.9M62.2 141.9l-3.1-3.1M187.5 141.9l7-6.9M183.4 141.9l7-6.9M179.4 141.9l6.9-6.9M175.3 141.9l6.9-6.9M171.4 141.9l7-6.9M167.4 141.9l6.9-6.9M163.3 141.9l6.9-6.9M159.4 141.9l7-6.9M155.4 141.9l6.9-6.9M151.3 141.9l6.9-6.9M147.4 141.9l7-6.9M143.4 141.9l6.9-6.9M139.3 141.9l6.9-6.9M135.2 141.9l7-6.9M131.4 141.9l6.9-6.9M127.3 141.9l6.9-6.9M123.2 141.9l7-6.9M119.4 141.9l6.9-6.9M115.3 141.9l6.9-6.9M111.2 141.9l7-6.9M107.4 141.9l6.9-6.9M103.3 141.9l6.9-6.9M99.2 141.9l7-6.9M95.1 141.9l7-6.9M91.3 141.9l6.9-6.9M87.2 141.9l7-6.9M83.1 141.9l7-6.9M79.3 141.9l6.9-6.9M75.2 141.9l7-6.9M71.1 141.9l7-6.9M67.3 141.9l6.9-6.9M63.2 141.9l7-6.9M59.1 141.9l7-6.9M59.1 138.1L62 135"/><path class="cls-21" d="M198.1 135H58.9v6.9h132l7.2-6.9"/><path class="cls-15" d="M196.9 136.2l-1.5-1.2M194.7 138.3l-3.1-3.3M192.8 140.2l-5.3-5.2M190.4 141.9l-7-6.9M186.6 141.9l-7-6.9M182.5 141.9l-7-6.9M178.4 141.9l-7-6.9M174.3 141.9l-6.9-6.9M170.5 141.9l-7-6.9M166.4 141.9l-7-6.9M162.3 141.9l-6.9-6.9M158.5 141.9l-7-6.9M154.4 141.9l-7-6.9M150.3 141.9l-6.9-6.9M146.5 141.9l-7-6.9M142.4 141.9l-7-6.9M138.3 141.9l-6.9-6.9M134.2 141.9l-6.9-6.9M130.4 141.9l-7-6.9M126.3 141.9l-6.9-6.9M122.2 141.9l-6.9-6.9M118.4 141.9l-7-6.9M114.3 141.9l-6.9-6.9M110.2 141.9l-6.9-6.9M106.4 141.9l-7-6.9M102.3 141.9l-6.9-6.9M98.2 141.9l-6.9-6.9M94.2 141.9l-7-6.9M90.3 141.9l-6.9-6.9M86.2 141.9l-6.9-6.9M82.2 141.9l-7-6.9M78.3 141.9l-6.9-6.9M74.2 141.9l-6.9-6.9M70.2 141.9l-7-6.9M66.1 141.9l-7-6.9M62.2 141.9l-3.1-3.1M187.5 141.9l7-6.9M183.4 141.9l7-6.9M179.4 141.9l6.9-6.9M175.3 141.9l6.9-6.9M171.4 141.9l7-6.9M167.4 141.9l6.9-6.9M163.3 141.9l6.9-6.9M159.4 141.9l7-6.9M155.4 141.9l6.9-6.9M151.3 141.9l6.9-6.9M147.4 141.9l7-6.9M143.4 141.9l6.9-6.9M139.3 141.9l6.9-6.9M135.2 141.9l7-6.9M131.4 141.9l6.9-6.9M127.3 141.9l6.9-6.9M123.2 141.9l7-6.9M119.4 141.9l6.9-6.9M115.3 141.9l6.9-6.9M111.2 141.9l7-6.9M107.4 141.9l6.9-6.9M103.3 141.9l6.9-6.9M99.2 141.9l7-6.9M95.1 141.9l7-6.9M91.3 141.9l6.9-6.9M87.2 141.9l7-6.9M83.1 141.9l7-6.9M79.3 141.9l6.9-6.9M75.2 141.9l7-6.9M71.1 141.9l7-6.9M67.3 141.9l6.9-6.9M63.2 141.9l7-6.9M59.1 141.9l7-6.9M59.1 138.1L62 135"/><path class="cls-17" d="M58.9 141.9h132M102.8 135h95.3M58.9 135h36.9M102.8 135h95.3M58.9 141.9h132M58.9 135h36.9"/><path class="cls-21" d="M53.1 199.5l5.8 10.1V135l-5.8 9.8v54.7"/><path class="cls-15" d="M59.1 138.8l-1.4-1.4M59.1 142.6l-2.9-2.8M59.1 146.7l-4.5-4.3M59.1 150.8l-5.7-5.8M59.1 154.9l-5.7-5.8M59.1 158.7l-5.7-5.7M59.1 162.8l-5.7-5.8M59.1 166.9l-5.7-5.8M59.1 170.7l-5.7-5.7M59.1 174.8l-5.7-5.8M59.1 178.9l-5.7-5.8M59.1 182.7l-5.7-5.7M59.1 186.8l-5.7-5.8M59.1 190.9l-5.7-5.8M59.1 195l-5.7-5.8M59.1 198.8l-5.7-5.8M59.1 202.9l-5.7-5.8M59.1 207l-3.8-3.6M57.7 207.4l1.4-1.2M56.2 204.8l2.9-2.6M54.8 202.4l4.3-4.3M53.4 199.8l5.7-5.6M53.4 195.9l5.7-5.7M53.4 191.8l5.7-5.7M53.4 188l5.7-5.8M53.4 183.9l5.7-5.7M53.4 179.8l5.7-5.7M53.4 176l5.7-5.8M53.4 171.9l5.7-5.7M53.4 167.8l5.7-5.7M53.4 163.8l5.7-5.8M53.4 159.9l5.7-5.7M53.4 155.8l5.7-5.7M53.4 151.8l5.7-5.8M53.4 147.9l5.7-5.7M54.6 142.4l4.5-4.3"/><path class="cls-21" d="M53.1 199.5l5.8 10.1V135l-5.8 9.8v54.7"/><path class="cls-15" d="M59.1 138.8l-1.4-1.4M59.1 142.6l-2.9-2.8M59.1 146.7l-4.5-4.3M59.1 150.8l-5.7-5.8M59.1 154.9l-5.7-5.8M59.1 158.7l-5.7-5.7M59.1 162.8l-5.7-5.8M59.1 166.9l-5.7-5.8M59.1 170.7l-5.7-5.7M59.1 174.8l-5.7-5.8M59.1 178.9l-5.7-5.8M59.1 182.7l-5.7-5.7M59.1 186.8l-5.7-5.8M59.1 190.9l-5.7-5.8M59.1 195l-5.7-5.8M59.1 198.8l-5.7-5.8M59.1 202.9l-5.7-5.8M59.1 207l-3.8-3.6M57.7 207.4l1.4-1.2M56.2 204.8l2.9-2.6M54.8 202.4l4.3-4.3M53.4 199.8l5.7-5.6M53.4 195.9l5.7-5.7M53.4 191.8l5.7-5.7M53.4 188l5.7-5.8M53.4 183.9l5.7-5.7M53.4 179.8l5.7-5.7M53.4 176l5.7-5.8M53.4 171.9l5.7-5.7M53.4 167.8l5.7-5.7M53.4 163.8l5.7-5.8M53.4 159.9l5.7-5.7M53.4 155.8l5.7-5.7M53.4 151.8l5.7-5.8M53.4 147.9l5.7-5.7M54.6 142.4l4.5-4.3"/><path class="cls-17" d="M53.1 144.8v54.7M58.9 141.9v67.7M58.9 141.9v67.7M53.1 144.8v54.7"/><path class="cls-21" d="M95.8 52.2V135h7V52.2h-7"/><path class="cls-15" d="M103 54.3l-2.4-2.1M103 58.4l-6.2-6.2M103 62.5l-6.9-7M103 66.3l-6.9-6.9M103 70.4l-6.9-7M103 74.5l-6.9-7M103 78.3l-6.9-6.9M103 82.4l-6.9-7M103 86.5l-6.9-7M103 90.6l-6.9-7M103 94.4l-6.9-7M103 98.5l-6.9-7M103 102.6l-6.9-7M103 106.4l-6.9-7M103 110.5l-6.9-7M103 114.6l-6.9-7M103 118.4l-6.9-7M103 122.5l-6.9-7M103 126.6l-6.9-7M103 130.6l-6.9-6.9M103 134.5l-6.9-7M99.4 135l-3.3-3.4M102.1 135l.9-.8M98.2 135l4.8-4.8M96.1 133.3l6.9-7M96.1 129.2l6.9-7M96.1 125.1l6.9-6.9M96.1 121l6.9-6.9M96.1 117.2l6.9-7M96.1 113.1l6.9-6.9M96.1 109l6.9-6.9M96.1 105.2l6.9-7M96.1 101.1l6.9-6.9M96.1 97l6.9-6.9M96.1 93l6.9-7M96.1 89.1l6.9-6.9M96.1 85l6.9-6.9M96.1 81l6.9-7M96.1 77.1l6.9-6.9M96.1 73l6.9-6.9M96.1 69l6.9-7M96.1 65.1l6.9-6.9M96.1 61l6.9-6.9M96.1 57l4.8-4.8M96.1 52.9l.7-.7"/><path class="cls-21" d="M95.8 52.2V135h7V52.2h-7"/><path class="cls-15" d="M103 54.3l-2.4-2.1M103 58.4l-6.2-6.2M103 62.5l-6.9-7M103 66.3l-6.9-6.9M103 70.4l-6.9-7M103 74.5l-6.9-7M103 78.3l-6.9-6.9M103 82.4l-6.9-7M103 86.5l-6.9-7M103 90.6l-6.9-7M103 94.4l-6.9-7M103 98.5l-6.9-7M103 102.6l-6.9-7M103 106.4l-6.9-7M103 110.5l-6.9-7M103 114.6l-6.9-7M103 118.4l-6.9-7M103 122.5l-6.9-7M103 126.6l-6.9-7M103 130.6l-6.9-6.9M103 134.5l-6.9-7M99.4 135l-3.3-3.4M102.1 135l.9-.8M98.2 135l4.8-4.8M96.1 133.3l6.9-7M96.1 129.2l6.9-7M96.1 125.1l6.9-6.9M96.1 121l6.9-6.9M96.1 117.2l6.9-7M96.1 113.1l6.9-6.9M96.1 109l6.9-6.9M96.1 105.2l6.9-7M96.1 101.1l6.9-6.9M96.1 97l6.9-6.9M96.1 93l6.9-7M96.1 89.1l6.9-6.9M96.1 85l6.9-6.9M96.1 81l6.9-7M96.1 77.1l6.9-6.9M96.1 73l6.9-6.9M96.1 69l6.9-7M96.1 65.1l6.9-6.9M96.1 61l6.9-6.9M96.1 57l4.8-4.8M96.1 52.9l.7-.7"/><path class="cls-17" d="M102.8 135V52.2M95.8 135V52.2M102.8 52.2h-7M95.8 135V52.2M102.8 135V52.2"/><path class="cls-16" d="M190.9 181.3h-34.1M190.9 189h-34.1M190.9 196.4h-34.1M190.9 204.1h-34.1M58.9 204.1h33.8M58.9 196.4h33.8M58.9 189h33.8M58.9 181.3h33.8M132.6 141.9l7.9 35.5M92.7 176h64.1v33.4H92.7zM75.9 204.1l-3.8-3.9h7.7l-3.9 3.9zM151.8 176v-34.1M144.1 176v-34.1M136.4 176v-34.1M128.7 176v-34.1M121 176v-34.1M113.4 176v-34.1M105.7 176v-34.1M98 176v-34.1"/><path class="cls-16" d="M94.2 177.4h61.4v30.5H94.2zM98 159l3.8-3.9v7.7L98 159zM136.4 159l3.8-3.9v7.7l-3.8-3.8zM173.8 181.3l3.9 3.8H170l3.8-3.8z"/><path class="cls-21" d="M102.8 250.4h-7V373h7V250.4"/><path class="cls-15" d="M103 250.9l-.4-.5M103 254.7l-4.5-4.3M103 258.8l-6.9-7M103 262.9l-6.9-7M103 266.7l-6.9-6.9M103 270.8l-6.9-7M103 274.9l-6.9-7M103 279l-6.9-7M103 282.8l-6.9-7M103 286.9l-6.9-7M103 291l-6.9-7M103 294.8l-6.9-7M103 298.9l-6.9-7M103 303l-6.9-7M103 307l-6.9-6.9M103 310.9l-6.9-7M103 315l-6.9-7M103 319l-6.9-6.9M103 322.9l-6.9-7M103 327l-6.9-7M103 331l-6.9-6.9M103 334.9l-6.9-7M103 339l-6.9-7M103 343l-6.9-6.9M103 347.1l-6.9-6.9M103 351l-6.9-7M103 355l-6.9-6.9M103 359.1l-6.9-6.9M103 363l-6.9-7M103 367l-6.9-6.9M103 371.1l-6.9-6.9M100.9 373l-4.8-5M96.8 373l-.7-.9M100.6 373l2.4-2.4M96.6 373l6.4-6.2M96.1 369.7l6.9-7M96.1 365.6l6.9-7M96.1 361.8l6.9-7M96.1 357.7l6.9-7M96.1 353.6l6.9-7M96.1 349.5l6.9-6.9M96.1 345.7l6.9-7M96.1 341.6l6.9-7M96.1 337.5l6.9-6.9M96.1 333.7l6.9-7M96.1 329.6l6.9-7M96.1 325.5l6.9-6.9M96.1 321.7l6.9-7M96.1 317.6l6.9-7M96.1 313.5l6.9-6.9M96.1 309.4l6.9-6.9M96.1 305.6l6.9-7M96.1 301.5l6.9-6.9M96.1 297.4l6.9-6.9M96.1 293.6l6.9-7M96.1 289.5l6.9-6.9M96.1 285.4l6.9-6.9M96.1 281.6l6.9-7M96.1 277.5l6.9-6.9M96.1 273.4l6.9-6.9M96.1 269.4l6.9-7M96.1 265.5l6.9-6.9M96.1 261.4l6.9-6.9M96.1 257.4l6.9-7M96.1 253.5l2.9-3.1"/><path class="cls-21" d="M102.8 250.4h-7V373h7V250.4"/><path class="cls-15" d="M103 250.9l-.4-.5M103 254.7l-4.5-4.3M103 258.8l-6.9-7M103 262.9l-6.9-7M103 266.7l-6.9-6.9M103 270.8l-6.9-7M103 274.9l-6.9-7M103 279l-6.9-7M103 282.8l-6.9-7M103 286.9l-6.9-7M103 291l-6.9-7M103 294.8l-6.9-7M103 298.9l-6.9-7M103 303l-6.9-7M103 307l-6.9-6.9M103 310.9l-6.9-7M103 315l-6.9-7M103 319l-6.9-6.9M103 322.9l-6.9-7M103 327l-6.9-7M103 331l-6.9-6.9M103 334.9l-6.9-7M103 339l-6.9-7M103 343l-6.9-6.9M103 347.1l-6.9-6.9M103 351l-6.9-7M103 355l-6.9-6.9M103 359.1l-6.9-6.9M103 363l-6.9-7M103 367l-6.9-6.9M103 371.1l-6.9-6.9M100.9 373l-4.8-5M96.8 373l-.7-.9M100.6 373l2.4-2.4M96.6 373l6.4-6.2M96.1 369.7l6.9-7M96.1 365.6l6.9-7M96.1 361.8l6.9-7M96.1 357.7l6.9-7M96.1 353.6l6.9-7M96.1 349.5l6.9-6.9M96.1 345.7l6.9-7M96.1 341.6l6.9-7M96.1 337.5l6.9-6.9M96.1 333.7l6.9-7M96.1 329.6l6.9-7M96.1 325.5l6.9-6.9M96.1 321.7l6.9-7M96.1 317.6l6.9-7M96.1 313.5l6.9-6.9M96.1 309.4l6.9-6.9M96.1 305.6l6.9-7M96.1 301.5l6.9-6.9M96.1 297.4l6.9-6.9M96.1 293.6l6.9-7M96.1 289.5l6.9-6.9M96.1 285.4l6.9-6.9M96.1 281.6l6.9-7M96.1 277.5l6.9-6.9M96.1 273.4l6.9-6.9M96.1 269.4l6.9-7M96.1 265.5l6.9-6.9M96.1 261.4l6.9-6.9M96.1 257.4l6.9-7M96.1 253.5l2.9-3.1"/><path class="cls-17" d="M102.8 373V250.4M95.8 373V250.4M95.8 373V250.4M102.8 373V250.4M102.8 373h-7"/><path class="cls-21" d="M43.5 209.6h15.4l-5.8-10.1h-9.6v10.1"/><path class="cls-15" d="M55.3 203.4l-3.6-3.9M57.7 209.6l-10.1-10.1M53.6 209.6l-9.8-10.1M49.8 209.6l-6-6M45.7 209.6l-1.9-2.2M55.5 209.6l2.2-2.2M51.7 209.6l4.5-4.8M47.6 209.6l7.2-7.2M43.8 209.6l9.6-9.8M43.8 205.5l6-6M43.8 201.4l1.9-1.9"/><path class="cls-21" d="M43.5 209.6h15.4l-5.8-10.1h-9.6v10.1"/><path class="cls-15" d="M55.3 203.4l-3.6-3.9M57.7 209.6l-10.1-10.1M53.6 209.6l-9.8-10.1M49.8 209.6l-6-6M45.7 209.6l-1.9-2.2M55.5 209.6l2.2-2.2M51.7 209.6l4.5-4.8M47.6 209.6l7.2-7.2M43.8 209.6l9.6-9.8M43.8 205.5l6-6M43.8 201.4l1.9-1.9"/><path class="cls-17" d="M53.1 199.5h-9.6M58.9 209.6H43.5M58.9 209.6H43.5M53.1 199.5h-9.6"/><path class="cls-16" d="M40.4 201H10.9"/><path class="cls-1" d="M40.4 209.6H10.9"/><path class="cls-16" d="M11.4 209.6h-.5"/><path class="cls-21" d="M43.5 209.6h-3.1V201h3.1"/><path class="cls-15" d="M43.8 203.6l-2.7-2.6M43.8 207.4l-3.2-3.1M41.6 209.6l-1-1.2M43.5 209.6h.3M40.6 208.6l3.2-3.1M40.6 204.6l3.2-3.2"/><path class="cls-21" d="M7.8 209.6h3.1V201H7.8"/><path class="cls-15" d="M11.1 202.9L9 201M11.1 207L8 203.8M9.7 209.6L8 207.9M8 209.1l3.1-3.1M8 205.3l3.1-3.1M8 201.2l.2-.2"/><path class="cls-17" d="M40.4 209.6V201M10.9 209.6V201M40.4 209.6V201M43.5 209.6h-3.1M10.9 209.6V201M7.8 209.6h3.1M43.5 199.5v1.5M7.8 199.5v1.5M43.5 209.6h-3.1M7.8 209.6h3.1M40.4 201h3.1M10.9 201H7.8"/><path class="cls-21" d="M53.1 144.8l5.8-9.8H.8l7 9.8h45.3"/><path class="cls-15" d="M57.7 137.4l-2.4-2.4M56.2 139.8l-5-4.8M54.6 142.4l-7.5-7.4M53.1 144.8l-9.8-9.8M49 144.8l-9.8-9.8M45 144.8l-9.9-9.8M41.1 144.8l-9.8-9.8M37 144.8l-9.8-9.8M33 144.8l-9.9-9.8M28.9 144.8L19 135M25 144.8l-9.8-9.8M21 144.8l-9.9-9.8M16.9 144.8L7 135M13 144.8L3.2 135M9 144.8l-3.6-3.6M52.2 144.8l2.4-2.4M48.3 144.8l9.9-9.8M44.2 144.8l9.9-9.8M40.2 144.8L50 135M36.3 144.8l9.9-9.8M32.2 144.8l9.9-9.8M28.2 144.8L38 135M24.1 144.8l9.8-9.8M20.2 144.8l9.9-9.8M16.2 144.8L26 135M12.1 144.8l9.8-9.8M8.2 144.8l9.9-9.8M6.3 142.6L14 135M4.6 140.2l5.3-5.2M3 137.8l3.1-2.8M1.3 135.7l.7-.7"/><path class="cls-21" d="M53.1 144.8l5.8-9.8H.8l7 9.8h45.3"/><path class="cls-15" d="M57.7 137.4l-2.4-2.4M56.2 139.8l-5-4.8M54.6 142.4l-7.5-7.4M53.1 144.8l-9.8-9.8M49 144.8l-9.8-9.8M45 144.8l-9.9-9.8M41.1 144.8l-9.8-9.8M37 144.8l-9.8-9.8M33 144.8l-9.9-9.8M28.9 144.8L19 135M25 144.8l-9.8-9.8M21 144.8l-9.9-9.8M16.9 144.8L7 135M13 144.8L3.2 135M9 144.8l-3.6-3.6M52.2 144.8l2.4-2.4M48.3 144.8l9.9-9.8M44.2 144.8l9.9-9.8M40.2 144.8L50 135M36.3 144.8l9.9-9.8M32.2 144.8l9.9-9.8M28.2 144.8L38 135M24.1 144.8l9.8-9.8M20.2 144.8l9.9-9.8M16.2 144.8L26 135M12.1 144.8l9.8-9.8M8.2 144.8l9.9-9.8M6.3 142.6L14 135M4.6 140.2l5.3-5.2M3 137.8l3.1-2.8M1.3 135.7l.7-.7"/><path class="cls-17" d="M7.8 144.8h45.3M.8 135h58.1M.8 135h58.1M7.8 144.8h45.3"/><path class="cls-21" d="M408.8 373h-7.2V52.2h7.2V373"/><path class="cls-15" d="M409 55.8l-3.6-3.6M409 59.6l-7.2-7.2M409 63.7l-7.2-7.2M409 67.8l-7.2-7.2M409 71.8l-7.2-7.2M409 75.7l-7.2-7.2M409 79.8l-7.2-7.2M409 83.8l-7.2-7.2M409 87.7l-7.2-7.2M409 91.8l-7.2-7.2M409 95.8l-7.2-7.2M409 99.9l-7.2-7.2M409 103.8l-7.2-7.2M409 107.8l-7.2-7.2M409 111.9l-7.2-7.2M409 115.8l-7.2-7.2M409 119.8l-7.2-7.2M409 123.9l-7.2-7.2M409 127.8l-7.2-7.2M409 131.8l-7.2-7.2M409 135.9l-7.2-7.2M409 140l-7.2-7.2M409 143.8l-7.2-7.2M409 147.9l-7.2-7.2M409 152l-7.2-7.2M409 155.8l-7.2-7.2M409 159.9l-7.2-7.2M409 164l-7.2-7.2M409 167.8l-7.2-7.2M409 171.9l-7.2-7.2M409 176l-7.2-7.2M409 180.1l-7.2-7.2M409 183.9l-7.2-7.2M409 188l-7.2-7.2M409 192.1l-7.2-7.2M409 195.9l-7.2-7.2M409 200l-7.2-7.2M409 204.1l-7.2-7.2M409 207.9l-7.2-7.2M409 212l-7.2-7.2M409 216.1l-7.2-7.2M409 220.2l-7.2-7.2M409 224l-7.2-7.2M409 228.1l-7.2-7.2M409 232.2l-7.2-7.2M409 236l-7.2-7.2M409 240.1l-7.2-7.2M409 244.2l-7.2-7.2M409 248.2l-7.2-7.2M409 252.1l-7.2-7.2M409 256.2l-7.2-7.2M409 260.2l-7.2-7.2M409 264.1l-7.2-7.2M409 268.2l-7.2-7.2M409 272.2l-7.2-7.2M409 276.1l-7.2-7.2M409 280.2l-7.2-7.2M409 284.2l-7.2-7.2M409 288.3l-7.2-7.2M409 292.2l-7.2-7.2M409 296.2l-7.2-7.2M409 300.3l-7.2-7.2M409 304.2l-7.2-7.2M409 308.2l-7.2-7.2M409 312.3l-7.2-7.2M409 316.2l-7.2-7.2M409 320.2l-7.2-7.2M409 324.3l-7.2-7.2M409 328.4l-7.2-7.2M409 332.2l-7.2-7.2M409 336.3l-7.2-7.2M409 340.4l-7.2-7.2M409 344.2l-7.2-7.2M409 348.3l-7.2-7.2M409 352.4l-7.2-7.2M409 356.5l-7.2-7.2M409 360.3l-7.2-7.2M409 364.4l-7.2-7.2M409 368.5l-7.2-7.2M409 372.3l-7.2-7.2M405.4 373l-3.6-3.8M405.2 373l3.8-3.6M401.8 372.6l7.2-7.2M401.8 368.5l7.2-7.2M401.8 364.6l7.2-7.2M401.8 360.6l7.2-7.2M401.8 356.5l7.2-7.2M401.8 352.6l7.2-7.2M401.8 348.6l7.2-7.2M401.8 344.5l7.2-7.2M401.8 340.6l7.2-7.2M401.8 336.6l7.2-7.2M401.8 332.5l7.2-7.2M401.8 328.4l7.2-7.2M401.8 324.6l7.2-7.2M401.8 320.5l7.2-7.2M401.8 316.4l7.2-7.2M401.8 312.6l7.2-7.2M401.8 308.5l7.2-7.2M401.8 304.4l7.2-7.2M401.8 300.6l7.2-7.2M401.8 296.5l7.2-7.2M401.8 292.4l7.2-7.2M401.8 288.3l7.2-7.2M401.8 284.5l7.2-7.2M401.8 280.4l7.2-7.2M401.8 276.3l7.2-7.2M401.8 272.5l7.2-7.2M401.8 268.4l7.2-7.2M401.8 264.3l7.2-7.2M401.8 260.2l7.2-7.2M401.8 256.4l7.2-7.2M401.8 252.3l7.2-7.2M401.8 248.2l7.2-7.2M401.8 244.4l7.2-7.2M401.8 240.3l7.2-7.2M401.8 236.2l7.2-7.2M401.8 232.4l7.2-7.2M401.8 228.3l7.2-7.2M401.8 224.2l7.2-7.2M401.8 220.2l7.2-7.2M401.8 216.3l7.2-7.2M401.8 212.2l7.2-7.2M401.8 208.2l7.2-7.2M401.8 204.3l7.2-7.2M401.8 200.2l7.2-7.2M401.8 196.2l7.2-7.2M401.8 192.3l7.2-7.2M401.8 188.2l7.2-7.2M401.8 184.2l7.2-7.2M401.8 180.1l7.2-7.2M401.8 176.2l7.2-7.2M401.8 172.2l7.2-7.2M401.8 168.1l7.2-7.2M401.8 164.2l7.2-7.2M401.8 160.2l7.2-7.2M401.8 156.1l7.2-7.2M401.8 152l7.2-7.2M401.8 148.2l7.2-7.2M401.8 144.1l7.2-7.2M401.8 140l7.2-7.2M401.8 136.2l7.2-7.2M401.8 132.1l7.2-7.2M401.8 128l7.2-7.2M401.8 124.2l7.2-7.2M401.8 120.1l7.2-7.2M401.8 116l7.2-7.2M401.8 111.9l7.2-7.2M401.8 108.1l7.2-7.2M401.8 104l7.2-7.2M401.8 99.9l7.2-7.2M401.8 96.1l7.2-7.2M401.8 92l7.2-7.2M401.8 87.9l7.2-7.2M401.8 84.1l7.2-7.2M401.8 80l7.2-7.2M401.8 75.9l7.2-7.2M401.8 71.8l7.2-7.2M401.8 68l7.2-7.2M401.8 63.9l7.2-7.2M401.8 59.8l7.2-7.2M401.8 56l3.6-3.8"/><path class="cls-21" d="M401.6 373h7.2V52.2h-7.2V373"/><path class="cls-15" d="M409 55.8l-3.6-3.6M409 59.6l-7.2-7.2M409 63.7l-7.2-7.2M409 67.8l-7.2-7.2M409 71.8l-7.2-7.2M409 75.7l-7.2-7.2M409 79.8l-7.2-7.2M409 83.8l-7.2-7.2M409 87.7l-7.2-7.2M409 91.8l-7.2-7.2M409 95.8l-7.2-7.2M409 99.9l-7.2-7.2M409 103.8l-7.2-7.2M409 107.8l-7.2-7.2M409 111.9l-7.2-7.2M409 115.8l-7.2-7.2M409 119.8l-7.2-7.2M409 123.9l-7.2-7.2M409 127.8l-7.2-7.2M409 131.8l-7.2-7.2M409 135.9l-7.2-7.2M409 140l-7.2-7.2M409 143.8l-7.2-7.2M409 147.9l-7.2-7.2M409 152l-7.2-7.2M409 155.8l-7.2-7.2M409 159.9l-7.2-7.2M409 164l-7.2-7.2M409 167.8l-7.2-7.2M409 171.9l-7.2-7.2M409 176l-7.2-7.2M409 180.1l-7.2-7.2M409 183.9l-7.2-7.2M409 188l-7.2-7.2M409 192.1l-7.2-7.2M409 195.9l-7.2-7.2M409 200l-7.2-7.2M409 204.1l-7.2-7.2M409 207.9l-7.2-7.2M409 212l-7.2-7.2M409 216.1l-7.2-7.2M409 220.2l-7.2-7.2M409 224l-7.2-7.2M409 228.1l-7.2-7.2M409 232.2l-7.2-7.2M409 236l-7.2-7.2M409 240.1l-7.2-7.2M409 244.2l-7.2-7.2M409 248.2l-7.2-7.2M409 252.1l-7.2-7.2M409 256.2l-7.2-7.2M409 260.2l-7.2-7.2M409 264.1l-7.2-7.2M409 268.2l-7.2-7.2M409 272.2l-7.2-7.2M409 276.1l-7.2-7.2M409 280.2l-7.2-7.2M409 284.2l-7.2-7.2M409 288.3l-7.2-7.2M409 292.2l-7.2-7.2M409 296.2l-7.2-7.2M409 300.3l-7.2-7.2M409 304.2l-7.2-7.2M409 308.2l-7.2-7.2M409 312.3l-7.2-7.2M409 316.2l-7.2-7.2M409 320.2l-7.2-7.2M409 324.3l-7.2-7.2M409 328.4l-7.2-7.2M409 332.2l-7.2-7.2M409 336.3l-7.2-7.2M409 340.4l-7.2-7.2M409 344.2l-7.2-7.2M409 348.3l-7.2-7.2M409 352.4l-7.2-7.2M409 356.5l-7.2-7.2M409 360.3l-7.2-7.2M409 364.4l-7.2-7.2M409 368.5l-7.2-7.2M409 372.3l-7.2-7.2M405.4 373l-3.6-3.8M405.2 373l3.8-3.6M401.8 372.6l7.2-7.2M401.8 368.5l7.2-7.2M401.8 364.6l7.2-7.2M401.8 360.6l7.2-7.2M401.8 356.5l7.2-7.2M401.8 352.6l7.2-7.2M401.8 348.6l7.2-7.2M401.8 344.5l7.2-7.2M401.8 340.6l7.2-7.2M401.8 336.6l7.2-7.2M401.8 332.5l7.2-7.2M401.8 328.4l7.2-7.2M401.8 324.6l7.2-7.2M401.8 320.5l7.2-7.2M401.8 316.4l7.2-7.2M401.8 312.6l7.2-7.2M401.8 308.5l7.2-7.2M401.8 304.4l7.2-7.2M401.8 300.6l7.2-7.2M401.8 296.5l7.2-7.2M401.8 292.4l7.2-7.2M401.8 288.3l7.2-7.2M401.8 284.5l7.2-7.2M401.8 280.4l7.2-7.2M401.8 276.3l7.2-7.2M401.8 272.5l7.2-7.2M401.8 268.4l7.2-7.2M401.8 264.3l7.2-7.2M401.8 260.2l7.2-7.2M401.8 256.4l7.2-7.2M401.8 252.3l7.2-7.2M401.8 248.2l7.2-7.2M401.8 244.4l7.2-7.2M401.8 240.3l7.2-7.2M401.8 236.2l7.2-7.2M401.8 232.4l7.2-7.2M401.8 228.3l7.2-7.2M401.8 224.2l7.2-7.2M401.8 220.2l7.2-7.2M401.8 216.3l7.2-7.2M401.8 212.2l7.2-7.2M401.8 208.2l7.2-7.2M401.8 204.3l7.2-7.2M401.8 200.2l7.2-7.2M401.8 196.2l7.2-7.2M401.8 192.3l7.2-7.2M401.8 188.2l7.2-7.2M401.8 184.2l7.2-7.2M401.8 180.1l7.2-7.2M401.8 176.2l7.2-7.2M401.8 172.2l7.2-7.2M401.8 168.1l7.2-7.2M401.8 164.2l7.2-7.2M401.8 160.2l7.2-7.2M401.8 156.1l7.2-7.2M401.8 152l7.2-7.2M401.8 148.2l7.2-7.2M401.8 144.1l7.2-7.2M401.8 140l7.2-7.2M401.8 136.2l7.2-7.2M401.8 132.1l7.2-7.2M401.8 128l7.2-7.2M401.8 124.2l7.2-7.2M401.8 120.1l7.2-7.2M401.8 116l7.2-7.2M401.8 111.9l7.2-7.2M401.8 108.1l7.2-7.2M401.8 104l7.2-7.2M401.8 99.9l7.2-7.2M401.8 96.1l7.2-7.2M401.8 92l7.2-7.2M401.8 87.9l7.2-7.2M401.8 84.1l7.2-7.2M401.8 80l7.2-7.2M401.8 75.9l7.2-7.2M401.8 71.8l7.2-7.2M401.8 68l7.2-7.2M401.8 63.9l7.2-7.2M401.8 59.8l7.2-7.2M401.8 56l3.6-3.8"/><path class="cls-17" d="M408.8 373V52.2M401.6 373V52.2M408.8 52.2h-7.2M401.6 373V52.2M408.8 373V52.2M408.8 373h-7.2"/><path class="cls-21" d="M198.1 250.4h-4.3v91.4h4.3v-91.4"/><path class="cls-15" d="M194 250.9l.2-.5M194 255.2l4.3-4.3M194 259.3l4.3-4.3M194 263.6l4.3-4.3M194 267.9l4.3-4.3M194 272l4.3-4.3M194 276.3l4.3-4.3M194 280.6l4.3-4.3M194 284.7l4.3-4.3M194 289l4.3-4.3M194 293.4l4.3-4.4M194 297.7l4.3-4.3M194 301.8l4.3-4.4M194 306.1l4.3-4.3M194 310.4l4.3-4.3M194 314.5l4.3-4.3M194 318.8l4.3-4.3M194 323.1l4.3-4.3M194 327.4l4.3-4.3M194 331.5l4.3-4.3M194 335.8l4.3-4.3M194 340.2l4.3-4.4M196.4 341.8l1.9-1.9"/><path class="cls-21" d="M198.1 250.4h-4.3v91.4h4.3v-91.4"/><path class="cls-15" d="M194 250.9l.2-.5M194 255.2l4.3-4.3M194 259.3l4.3-4.3M194 263.6l4.3-4.3M194 267.9l4.3-4.3M194 272l4.3-4.3M194 276.3l4.3-4.3M194 280.6l4.3-4.3M194 284.7l4.3-4.3M194 289l4.3-4.3M194 293.4l4.3-4.4M194 297.7l4.3-4.3M194 301.8l4.3-4.4M194 306.1l4.3-4.3M194 310.4l4.3-4.3M194 314.5l4.3-4.3M194 318.8l4.3-4.3M194 323.1l4.3-4.3M194 327.4l4.3-4.3M194 331.5l4.3-4.3M194 335.8l4.3-4.3M194 340.2l4.3-4.4M196.4 341.8l1.9-1.9"/><path class="cls-17" d="M198.1 341.8v-91.4M193.8 341.8v-91.4M193.8 341.8v-91.4M198.1 341.8v-91.4M198.1 368h-4.3M193.8 250.4h4.3"/><path class="cls-16" d="M198.1 366.3h-4.3M198.1 343.5h-4.3"/><path class="cls-17" d="M198.1 368h-4.3M198.1 341.8h-4.3"/><path class="cls-15" d="M171.1 343.6c0 12.4 10.2 22.7 22.7 22.7M193.8 343.5H171"/><path class="cls-21" d="M311.6 156.3v-4.1h-74.4l-4.3 4.1h78.7"/><path class="cls-15" d="M233.1 156.3l2.4-2.4M237.4 156.3l4.1-4.1M241.8 156.3l4-4.1M245.8 156.3l4.1-4.1M250.2 156.3l4-4.1M254.5 156.3l4.1-4.1M258.6 156.3l4-4.1M262.9 156.3l4.1-4.1M267.2 156.3l4.1-4.1M271.3 156.3l4.1-4.1M275.6 156.3l4.1-4.1M279.9 156.3l4.1-4.1M284.2 156.3l4.1-4.1M288.3 156.3l4.1-4.1M292.6 156.3l4.1-4.1M297 156.3l4-4.1M301 156.3l4.1-4.1M305.4 156.3l4-4.1M309.7 156.3l2.1-2.1"/><path class="cls-21" d="M311.6 156.3v-4.1h-74.4l-4.3 4.1h78.7"/><path class="cls-15" d="M233.1 156.3l2.4-2.4M237.4 156.3l4.1-4.1M241.8 156.3l4-4.1M245.8 156.3l4.1-4.1M250.2 156.3l4-4.1M254.5 156.3l4.1-4.1M258.6 156.3l4-4.1M262.9 156.3l4.1-4.1M267.2 156.3l4.1-4.1M271.3 156.3l4.1-4.1M275.6 156.3l4.1-4.1M279.9 156.3l4.1-4.1M284.2 156.3l4.1-4.1M288.3 156.3l4.1-4.1M292.6 156.3l4.1-4.1M297 156.3l4-4.1M301 156.3l4.1-4.1M305.4 156.3l4-4.1M309.7 156.3l2.1-2.1"/><path class="cls-17" d="M254.7 156.3h56.9M232.9 156.3h17.7M237.2 152.2h74.4M237.2 152.2h74.4M254.7 156.3h56.9M232.9 156.3h17.7"/><path class="cls-21" d="M250.6 259.5l4.1-4.3v-37.9h-4.1v42.2"/><path class="cls-15" d="M250.9 219.4l2.1-2.1M250.9 223.8l4.1-4.1M250.9 227.8l4.1-4M250.9 232.2l4.1-4.1M250.9 236.5l4.1-4.1M250.9 240.8l4.1-4.1M250.9 244.9l4.1-4.1M250.9 249.2l4.1-4.1M250.9 253.5l4.1-4.1M250.9 257.6l4.1-4.1"/><path class="cls-21" d="M250.6 259.5l4.1-4.3v-37.9h-4.1v42.2"/><path class="cls-15" d="M250.9 219.4l2.1-2.1M250.9 223.8l4.1-4.1M250.9 227.8l4.1-4M250.9 232.2l4.1-4.1M250.9 236.5l4.1-4.1M250.9 240.8l4.1-4.1M250.9 244.9l4.1-4.1M250.9 249.2l4.1-4.1M250.9 253.5l4.1-4.1M250.9 257.6l4.1-4.1"/><path class="cls-17" d="M250.6 217.3v38.6M254.7 217.3v37.9M254.7 217.3v37.9M250.6 217.3v38.6"/><path class="cls-21" d="M250.6 185.8h4.1v4.8h-4.1v-4.8"/><path class="cls-15" d="M250.9 189.7l3.8-3.9M254 190.6l1-.7"/><path class="cls-21" d="M254.7 185.8h-4.1v4.8h4.1v-4.8"/><path class="cls-15" d="M250.9 189.7l3.8-3.9M254 190.6l1-.7"/><path class="cls-17" d="M250.6 185.8v4.8M250.6 185.8v4.8"/><path class="cls-21" d="M254.7 159.2v-2.9h-4.1v2.9h4.1"/><path class="cls-15" d="M251.6 159.2l2.9-2.9"/><path class="cls-21" d="M254.7 159.2v-2.9h-4.1v2.9h4.1"/><path class="cls-15" d="M251.6 159.2l2.9-2.9"/><path class="cls-17" d="M250.6 156.3v2.9M254.7 156.3v2.9M254.7 156.3v2.9M250.6 156.3v2.9"/><path class="cls-1" d="M250.6 190.6v26.7M254.7 190.6v26.7"/><path class="cls-16" d="M250.6 192.6h4.1M250.6 215.4h4.1"/><path class="cls-17" d="M250.6 190.6h4.1M250.6 217.3h4.1"/><path class="cls-15" d="M250.6 192.7c-12.4 0-22.7 10.2-22.7 22.7M250.6 215.4h-22.8"/><path class="cls-1" d="M250.6 159.2v26.6M254.7 159.2v26.6"/><path class="cls-16" d="M250.6 161.1h4.1M250.6 183.7h4.1"/><path class="cls-17" d="M250.6 159.2h4.1M250.6 185.8h4.1"/><path class="cls-15" d="M227.9 161.1c0 12.4 10.2 22.7 22.7 22.7M250.6 161.1h-22.8"/><path class="cls-21" d="M375 185.8h-59.3v4.1H375v-4.1"/><path class="cls-15" d="M315.9 188.5l2.4-2.7M318.6 189.9l4-4.1M322.9 189.9l4.1-4.1M327 189.9l4-4.1M331.3 189.9l4.1-4.1M335.6 189.9l4.1-4.1M339.7 189.9l4.1-4.1M344 189.9l4.1-4.1M348.3 189.9l4.1-4.1M352.6 189.9l4.1-4.1M356.7 189.9l4.1-4.1M361 189.9l4.1-4.1M365.4 189.9l4-4.1M369.4 189.9l4.1-4.1M373.8 189.9l1.4-1.2"/><path class="cls-21" d="M375 185.8h-59.3v4.1H375v-4.1"/><path class="cls-15" d="M315.9 188.5l2.4-2.7M318.6 189.9l4-4.1M322.9 189.9l4.1-4.1M327 189.9l4-4.1M331.3 189.9l4.1-4.1M335.6 189.9l4.1-4.1M339.7 189.9l4.1-4.1M344 189.9l4.1-4.1M348.3 189.9l4.1-4.1M352.6 189.9l4.1-4.1M356.7 189.9l4.1-4.1M361 189.9l4.1-4.1M365.4 189.9l4-4.1M369.4 189.9l4.1-4.1M373.8 189.9l1.4-1.2"/><path class="cls-17" d="M315.7 189.9H375M315.7 185.8H375M315.7 185.8H375M315.7 189.9H375M401.6 185.8v4.1"/><path class="cls-16" d="M377.1 189.9v-4.1M399.7 189.9v-4.1"/><path class="cls-17" d="M375 189.9v-4.1M401.6 189.9v-4.1"/><path class="cls-15" d="M377 190c0 12.4 10.2 22.7 22.7 22.7M399.7 189.9v22.8"/><path class="cls-21" d="M375 241h-59.3v4.4H375V241"/><path class="cls-15" d="M315.9 243.7l2.4-2.7M318.3 245.4l4.3-4.4M322.6 245.4l4.4-4.4M327 245.4l4.3-4.4M331 245.4l4.4-4.4M335.4 245.4l4.3-4.4M339.7 245.4l4.3-4.4M343.8 245.4l4.3-4.4M348.1 245.4l4.3-4.4M352.4 245.4l4.3-4.4M356.7 245.4l4.3-4.4M360.8 245.4l4.3-4.4M365.1 245.4l4.3-4.4M369.4 245.4l4.4-4.4M373.5 245.4l1.7-1.5"/><path class="cls-21" d="M375 241h-59.3v4.4H375V241"/><path class="cls-15" d="M315.9 243.7l2.4-2.7M318.3 245.4l4.3-4.4M322.6 245.4l4.4-4.4M327 245.4l4.3-4.4M331 245.4l4.4-4.4M335.4 245.4l4.3-4.4M339.7 245.4l4.3-4.4M343.8 245.4l4.3-4.4M348.1 245.4l4.3-4.4M352.4 245.4l4.3-4.4M356.7 245.4l4.3-4.4M360.8 245.4l4.3-4.4M365.1 245.4l4.3-4.4M369.4 245.4l4.4-4.4M373.5 245.4l1.7-1.5"/><path class="cls-17" d="M315.7 245.4H375M315.7 241H375M315.7 241H375M315.7 245.4H375M401.6 241v4.4"/><path class="cls-16" d="M377.1 245.4V241M399.7 245.4V241"/><path class="cls-17" d="M375 245.4V241M401.6 245.4V241"/><path class="cls-15" d="M399.7 218.3c-12.4 0-22.7 10.2-22.7 22.7M399.7 241v-22.8"/><path class="cls-21" d="M311.6 190.6v-4.8h-56.9v4.8h56.9"/><path class="cls-15" d="M255 189.9l3.8-4.1M258.3 190.6l4.8-4.8M262.6 190.6l4.8-4.8M266.7 190.6l4.8-4.8M271 190.6l4.8-4.8M275.4 190.6l4.8-4.8M279.7 190.6l4.8-4.8M283.8 190.6l4.8-4.8M288.1 190.6l4.8-4.8M292.4 190.6l4.8-4.8M296.5 190.6l4.8-4.8M300.8 190.6l4.8-4.8M305.1 190.6l4.8-4.8M309.4 190.6l2.4-2.4"/><path class="cls-21" d="M311.6 190.6v-4.8h-56.9v4.8h56.9"/><path class="cls-15" d="M255 189.9l3.8-4.1M258.3 190.6l4.8-4.8M262.6 190.6l4.8-4.8M266.7 190.6l4.8-4.8M271 190.6l4.8-4.8M275.4 190.6l4.8-4.8M279.7 190.6l4.8-4.8M283.8 190.6l4.8-4.8M288.1 190.6l4.8-4.8M292.4 190.6l4.8-4.8M296.5 190.6l4.8-4.8M300.8 190.6l4.8-4.8M305.1 190.6l4.8-4.8M309.4 190.6l2.4-2.4"/><path class="cls-17" d="M254.7 190.6h56.9M254.7 185.8h56.9M254.7 185.8h56.9M254.7 190.6h56.9"/><path class="cls-21" d="M311.6 259.5v-4.3h-56.9l-4.1 4.3h61"/><path class="cls-15" d="M253.3 259.5l4.3-4.3M257.4 259.5l4.3-4.3M261.7 259.5l4.3-4.3M266 259.5l4.3-4.3M270.1 259.5l4.3-4.3M274.4 259.5l4.3-4.3M278.7 259.5l4.3-4.3M283 259.5l4.4-4.3M287.1 259.5l4.3-4.3M291.4 259.5l4.4-4.3M295.8 259.5l4.3-4.3M299.8 259.5l4.4-4.3M304.2 259.5l4.3-4.3M308.5 259.5l3.3-3.3"/><path class="cls-21" d="M311.6 259.5v-4.3h-56.9l-4.1 4.3h61"/><path class="cls-15" d="M253.3 259.5l4.3-4.3M257.4 259.5l4.3-4.3M261.7 259.5l4.3-4.3M266 259.5l4.3-4.3M270.1 259.5l4.3-4.3M274.4 259.5l4.3-4.3M278.7 259.5l4.3-4.3M283 259.5l4.4-4.3M287.1 259.5l4.3-4.3M291.4 259.5l4.4-4.3M295.8 259.5l4.3-4.3M299.8 259.5l4.4-4.3M304.2 259.5l4.3-4.3M308.5 259.5l3.3-3.3"/><path class="cls-17" d="M250.6 259.5h61M254.7 255.2h56.9M254.7 255.2h56.9M250.6 259.5h61"/><path class="cls-21" d="M232.9 251.6v7.9l3.6-3.6v-4.3h-3.6"/><path class="cls-15" d="M233.1 254.2l2.4-2.6M233.1 258.6l3.6-3.6"/><path class="cls-21" d="M232.9 251.6v7.9l3.6-3.6v-4.3h-3.6"/><path class="cls-15" d="M233.1 254.2l2.4-2.6M233.1 258.6l3.6-3.6"/><path class="cls-17" d="M236.5 255.9v-4.3M232.9 259.5v-7.9M236.5 251.6h-3.6M232.9 259.5v-7.9M236.5 255.9v-4.3"/><path class="cls-21" d="M250.6 259.5v-3.6h-14.1l-3.6 3.6h17.7"/><path class="cls-15" d="M236.2 259.5l3.6-3.6M240.6 259.5l3.6-3.6M244.6 259.5l3.6-3.6M249 259.5l1.9-1.9"/><path class="cls-21" d="M250.6 259.5v-3.6h-14.1l-3.6 3.6h17.7"/><path class="cls-15" d="M236.2 259.5l3.6-3.6M240.6 259.5l3.6-3.6M244.6 259.5l3.6-3.6M249 259.5l1.9-1.9"/><path class="cls-17" d="M232.9 259.5h17.7M236.5 255.9h14.1M236.5 255.9h14.1M232.9 259.5h17.7"/><path class="cls-1" d="M232.9 156.3v61.5"/><path class="cls-21" d="M315.7 84.8l-4.1 4.3v252.7h4.1v-257"/><path class="cls-15" d="M311.8 90.6l4.1-4.1M311.8 94.6l4.1-4M311.8 99l4.1-4.1M311.8 103.3l4.1-4.1M311.8 107.6l4.1-4.1M311.8 111.7l4.1-4.1M311.8 116l4.1-4.1M311.8 120.3l4.1-4.1M311.8 124.4l4.1-4.1M311.8 128.7l4.1-4.1M311.8 133l4.1-4M311.8 137.4l4.1-4.1M311.8 141.4l4.1-4M311.8 145.8l4.1-4.1M311.8 150.1l4.1-4.1M311.8 154.2l4.1-4.1M311.8 158.5l4.1-4.1M311.8 162.8l4.1-4.1M311.8 166.9l4.1-4.1M311.8 171.2l4.1-4.1M311.8 175.5l4.1-4.1M311.8 179.8l4.1-4M311.8 183.9l4.1-4.1M311.8 188.2l4.1-4M311.8 192.6l4.1-4.1M311.8 196.6l4.1-4M311.8 201l4.1-4.1M311.8 205.3l4.1-4.1M311.8 209.6l4.1-4.1M311.8 213.7l4.1-4.1M311.8 218l4.1-4.1M311.8 222.3l4.1-4.1M311.8 226.4l4.1-4.1M311.8 230.7l4.1-4.1M311.8 235l4.1-4M311.8 239.4l4.1-4.1M311.8 243.4l4.1-4M311.8 247.8l4.1-4.1M311.8 252.1l4.1-4.1M311.8 256.2l4.1-4.1M311.8 260.5l4.1-4.1M311.8 264.8l4.1-4.1M311.8 268.9l4.1-4.1M311.8 273.2l4.1-4.1M311.8 277.5l4.1-4.1M311.8 281.8l4.1-4M311.8 285.9l4.1-4.1M311.8 290.2l4.1-4M311.8 294.6l4.1-4.1M311.8 298.6l4.1-4M311.8 303l4.1-4.1M311.8 307.3l4.1-4.1M311.8 311.6l4.1-4.1M311.8 315.7l4.1-4.1M311.8 320l4.1-4.1M311.8 324.3l4.1-4.1M311.8 328.4l4.1-4.1M311.8 332.7l4.1-4.1M311.8 337l4.1-4M311.8 341.4l4.1-4.1M315.4 341.8l.5-.4"/><path class="cls-21" d="M315.7 84.8l-4.1 4.3v252.7h4.1v-257"/><path class="cls-15" d="M311.8 90.6l4.1-4.1M311.8 94.6l4.1-4M311.8 99l4.1-4.1M311.8 103.3l4.1-4.1M311.8 107.6l4.1-4.1M311.8 111.7l4.1-4.1M311.8 116l4.1-4.1M311.8 120.3l4.1-4.1M311.8 124.4l4.1-4.1M311.8 128.7l4.1-4.1M311.8 133l4.1-4M311.8 137.4l4.1-4.1M311.8 141.4l4.1-4M311.8 145.8l4.1-4.1M311.8 150.1l4.1-4.1M311.8 154.2l4.1-4.1M311.8 158.5l4.1-4.1M311.8 162.8l4.1-4.1M311.8 166.9l4.1-4.1M311.8 171.2l4.1-4.1M311.8 175.5l4.1-4.1M311.8 179.8l4.1-4M311.8 183.9l4.1-4.1M311.8 188.2l4.1-4M311.8 192.6l4.1-4.1M311.8 196.6l4.1-4M311.8 201l4.1-4.1M311.8 205.3l4.1-4.1M311.8 209.6l4.1-4.1M311.8 213.7l4.1-4.1M311.8 218l4.1-4.1M311.8 222.3l4.1-4.1M311.8 226.4l4.1-4.1M311.8 230.7l4.1-4.1M311.8 235l4.1-4M311.8 239.4l4.1-4.1M311.8 243.4l4.1-4M311.8 247.8l4.1-4.1M311.8 252.1l4.1-4.1M311.8 256.2l4.1-4.1M311.8 260.5l4.1-4.1M311.8 264.8l4.1-4.1M311.8 268.9l4.1-4.1M311.8 273.2l4.1-4.1M311.8 277.5l4.1-4.1M311.8 281.8l4.1-4M311.8 285.9l4.1-4.1M311.8 290.2l4.1-4M311.8 294.6l4.1-4.1M311.8 298.6l4.1-4M311.8 303l4.1-4.1M311.8 307.3l4.1-4.1M311.8 311.6l4.1-4.1M311.8 315.7l4.1-4.1M311.8 320l4.1-4.1M311.8 324.3l4.1-4.1M311.8 328.4l4.1-4.1M311.8 332.7l4.1-4.1M311.8 337l4.1-4M311.8 341.4l4.1-4.1M315.4 341.8l.5-.4"/><path class="cls-17" d="M315.7 185.8v-101M315.7 241v-51.1M315.7 341.8v-96.4M311.6 152.2V89.1M311.6 185.8v-29.5M311.6 255.2v-64.6M311.6 341.8v-82.3M311.6 152.2V89.1M315.7 185.8v-101M311.6 185.8v-29.5M315.7 241v-51.1M311.6 255.2v-64.6M315.7 341.8v-96.4M311.6 341.8v-82.3M315.7 368h-4.1"/><path class="cls-16" d="M315.7 366.3h-4.1M315.7 343.5h-4.1"/><path class="cls-17" d="M315.7 368h-4.1M315.7 341.8h-4.1"/><path class="cls-15" d="M315.8 366.3c12.4 0 22.7-10.2 22.7-22.7M315.7 343.5h22.8"/><path class="cls-21" d="M311.6 89.1l4.1-4.3h-10.1l-4.1 4.3h10.1"/><path class="cls-15" d="M304.6 89.1l4.4-4.3M309 89.1l4.3-4.3"/><path class="cls-21" d="M311.6 89.1l4.1-4.3h-10.1l-4.1 4.3h10.1"/><path class="cls-15" d="M304.6 89.1l4.4-4.3M309 89.1l4.3-4.3"/><path class="cls-17" d="M301.5 89.1h10.1M305.6 84.8h10.1M305.6 84.8h10.1M301.5 89.1h10.1"/><path class="cls-21" d="M301.5 89.1l4.1-4.3h-4.1v4.3"/><path class="cls-15" d="M301.8 87.9l2.8-3.1"/><path class="cls-21" d="M301.5 89.1l4.1-4.3h-4.1v4.3"/><path class="cls-15" d="M301.8 87.9l2.8-3.1"/><path class="cls-17" d="M301.5 84.8v4.3M301.5 84.8v4.3M301.5 57.2h4.1"/><path class="cls-16" d="M301.5 59.8h4.1M301.5 82.4h4.1"/><path class="cls-17" d="M301.5 57.2h4.1M301.5 84.8h4.1"/><path class="cls-15" d="M328.4 82.4c0-12.4-10.2-22.7-22.7-22.7M305.6 82.4h22.8"/><path class="cls-21" d="M232.9 156.3l4.3-4.1V135h-4.3v21.3"/><path class="cls-15" d="M233.1 135.2l.3-.2M233.1 139.5l4.3-4.3M233.1 143.6l4.3-4.3M233.1 147.9l4.3-4.3M233.1 152.2l4.3-4.3M235.5 153.9l1.9-1.7"/><path class="cls-21" d="M232.9 156.3l4.3-4.1V135h-4.3v21.3"/><path class="cls-15" d="M233.1 135.2l.3-.2M233.1 139.5l4.3-4.3M233.1 143.6l4.3-4.3M233.1 147.9l4.3-4.3M233.1 152.2l4.3-4.3M235.5 153.9l1.9-1.7"/><path class="cls-17" d="M232.9 135v21.3M237.2 135v17.2M237.2 135v17.2M232.9 135v21.3M232.9 135h4.3"/><path class="cls-20" d="M98.7 3.9h1.2v35.8h-1.2z"/><path class="cls-16" d="M98.7 3.9h1.2v35.8h-1.2zM95.8 0h101.8l7.2 42.6"/><path class="cls-16" d="M95.8 1.8h100.4l6.9 40.8M213.7 382.6l3.3 55.2h74.2l3.4-55.2"/><path class="cls-16" d="M212 382.6l3.6 56.9h77l3.6-56.9"/><path class="cls-21" d="M102.8 135l-5-1.2 1.6 4 3.4-2.8"/><path class="cls-15" d="M100.9 136.6l-2.7-2.8M99.4 137.6l2.9-2.9M98.2 134.7l1-.7M264 52.2c0 11 9.1 20.1 20.1 20.1M284.2 72.3V52.2"/><path class="cls-6" d="M264.1 52.2l-.5 4-1.2 3.6-1.7 3.6-2.6 3.2-2.9 2.4-3.6 1.9-3.8.9-3.9.5"/><path class="cls-13" d="M243.9 72.3V52.2"/><path class="cls-15" d="M357.3 52.2v1.9c0 .6.2 1.2.3 1.8.1.6.3 1.2.5 1.8l.6 1.8c.2.6.5 1.1.8 1.7.3.5.6 1.1 1 1.6.3.5.7 1 1.1 1.5.4.5.8.9 1.3 1.4.4.4.9.9 1.4 1.3.5.4 1 .8 1.5 1.1.5.3 1.1.7 1.6 1 .5.3 1.1.6 1.7.8l1.8.6c.6.2 1.2.3 1.8.5l1.8.3h1.9M376.4 71.1V52.2M357.2 52.2v1.4M357.2 55l-.2 1M357 56l-.3.5"/><path class="cls-10" d="M356.5 57.7l-.7 1.7"/><path class="cls-15" d="M355.3 60.6l-.3.7M355 61.3l-.4.5"/><path class="cls-11" d="M354.1 62.7l-1.2 1.5"/><path class="cls-15" d="M351.9 65.4l-.2.2M351.7 65.6l-1 .7M349.8 67.3l-1 .7"/><path class="cls-19" d="M348.8 68l-1.4 1"/><path class="cls-15" d="M347.4 69l-1.5.4M344.7 70.2l-.9.2M343.8 70.4l-.5.2"/><path class="cls-10" d="M342.1 70.9l-1.9.2"/><path class="cls-15" d="M339 71.1h-.8"/><path class="cls-6" d="M338.2 71.1V52.2"/><path class="cls-15" d="M338.2 52.6v-.4M150.9 373.1v-1.9c0-.6-.2-1.2-.3-1.8-.1-.6-.3-1.2-.5-1.8l-.6-1.8c-.2-.6-.5-1.1-.8-1.7-.3-.5-.6-1.1-1-1.6-.3-.5-.7-1-1.1-1.5-.4-.5-.8-.9-1.3-1.4-.4-.4-.9-.9-1.4-1.3-.5-.4-1-.8-1.5-1.1-.5-.3-1.1-.7-1.6-1-.5-.3-1.1-.6-1.7-.8l-1.8-.6c-.6-.2-1.2-.3-1.8-.5l-1.8-.3h-1.9M131.8 354.1V373M151 373v-1.4M151.3 370.2v-.8M151.3 369.4l.2-.7"/><path class="cls-10" d="M151.8 367.5l.7-1.7"/><path class="cls-15" d="M153 364.6l.2-.4M153.2 364.2l.5-.8"/><path class="cls-11" d="M154.2 362.5l1.2-1.5"/><path class="cls-15" d="M156.3 359.8l.3-.2M156.6 359.6l.9-.7M158.5 357.9l.9-.7"/><path class="cls-19" d="M159.4 357.2l1.5-1"/><path class="cls-15" d="M160.9 356.2l1.4-.4M163.5 355.3l1-.3M164.5 355l.5-.2"/><path class="cls-10" d="M166.2 354.6l1.9-.5"/><path class="cls-15" d="M169.3 354.1h.7"/><path class="cls-6" d="M170 354.1V373"/><path class="cls-15" d="M170 372.6v.4M357.3 373.1v-1.9c0-.6.2-1.2.3-1.8.1-.6.3-1.2.5-1.8l.6-1.8c.2-.6.5-1.1.8-1.7.3-.5.6-1.1 1-1.6.3-.5.7-1 1.1-1.5.4-.5.8-.9 1.3-1.4.4-.4.9-.9 1.4-1.3.5-.4 1-.8 1.5-1.1.5-.3 1.1-.7 1.6-1 .5-.3 1.1-.6 1.7-.8l1.8-.6c.6-.2 1.2-.3 1.8-.5l1.8-.3h1.9M376.4 354.1V373M357.4 373l-.2-1.4M357 370.2v-.8M357 369.4l-.3-.7"/><path class="cls-10" d="M356.5 367.5l-.5-1.7"/><path class="cls-15" d="M355.3 364.6l-.3-.4M355 364.2l-.4-.8M353.8 362.2l-.7-1.2"/><path class="cls-12" d="M353.1 361l-1.4-1.4"/><path class="cls-15" d="M351.7 359.6l-.5-.5"/><path class="cls-5" d="M350.5 358.4l-1.7-1"/><path class="cls-15" d="M347.6 356.7l-.2-.2M347.4 356.5l-1-.5M345.2 355.3l-1.4-.3M342.3 354.6h-.2M342.1 354.6l-1.2-.3M339.4 354.3l-1.2-.2"/><path class="cls-6" d="M338.2 354.1V373"/><path class="cls-15" d="M338.2 372.6v.4M244.2 373.1c0-11-9.1-20.1-20.1-20.1M224.2 352.9V373"/><path class="cls-6" d="M244.2 373l.4-3.8 1.2-3.8 2-3.4 2.4-3.1 3.1-2.4 3.3-1.9 3.9-1.2 3.8-.5"/><path class="cls-13" d="M264.3 352.9V373"/><path class="cls-15" d="M120.9 72.3c11 0 20.1-9.1 20.1-20.1M120.8 72.3V52.2"/><path class="cls-6" d="M161.1 72.3l-3.8-.5-3.9-.9-3.3-1.9-3.1-2.4-2.7-3.2-1.7-3.6-1.2-3.6-.4-4"/><path class="cls-13" d="M161.1 72.3V52.2"/><path class="cls-21" d="M111.2 14h24.2v9.1H134v9.1h-22.8V14"/><path class="cls-16" d="M227.4 215.8v1M227.4 216.8l-.3.7M227.1 217.5l-.2 1M226.9 218.5v.2M226.4 219.9l-.2.3M225.4 221.4l-.4.4M225 221.8l-.8.8M224.2 222.6l-.7.4M223.5 223l-.2.3M221.8 223.8l-.2.2M220.2 224.2l-.5.3M219.7 224.5h-1M218.7 224.5h-.7M218 224.5l-.5-.3M216.1 224l-.3-.2M214.6 223.3l-.4-.3M214.2 223l-.8-.4M213.4 222.6l-.7-.8M212.7 221.8l-.2-.4M211.5 220.4v-.2M210.8 218.7v-.2M210.8 218.5l-.2-1M210.6 217.5l-.3-.7M210.3 216.8v-.7M210.6 214.6v-.2M210.8 213l.2-.3M211 212.7l.3-.7M211.3 212l.5-.7M211.8 211.3l.4-.7M213.2 209.6l.2-.2M214.6 208.4h.3M214.9 208.4l.7-.2M215.6 208.2l.7-.5M216.3 207.7h1M218.7 207.4h.3M220.4 207.7h1M221.4 207.7l.7.5M222.1 208.2l.7.2M222.8 208.4l.2.2M224.2 209.4l.3.2M225.4 210.6l.5.7M225.9 211.3l.5.7M226.4 212l.2.7M226.6 212.7l.3.3M227.1 214.4v.2"/><path class="cls-21" d="M95.8 243.4h7V373h-7V243.4"/><path class="cls-15" d="M103 246.8l-3.3-3.4M103 250.9l-6.9-7M103 254.7l-6.9-6.9M103 258.8l-6.9-7M103 262.9l-6.9-7M103 266.7l-6.9-6.9M103 270.8l-6.9-7M103 274.9l-6.9-7M103 279l-6.9-7M103 282.8l-6.9-7M103 286.9l-6.9-7M103 291l-6.9-7M103 294.8l-6.9-7M103 298.9l-6.9-7M103 303l-6.9-7M103 307l-6.9-6.9M103 310.9l-6.9-7M103 315l-6.9-7M103 319l-6.9-6.9M103 322.9l-6.9-7M103 327l-6.9-7M103 331l-6.9-6.9M103 334.9l-6.9-7M103 339l-6.9-7M103 343l-6.9-6.9M103 347.1l-6.9-6.9M103 351l-6.9-7M103 355l-6.9-6.9M103 359.1l-6.9-6.9M103 363l-6.9-7M103 367l-6.9-6.9M103 371.1l-6.9-6.9M100.9 373l-4.8-5M96.8 373l-.7-.9M100.6 373l2.4-2.4M96.6 373l6.4-6.2M96.1 369.7l6.9-7M96.1 365.6l6.9-7M96.1 361.8l6.9-7M96.1 357.7l6.9-7M96.1 353.6l6.9-7M96.1 349.5l6.9-6.9M96.1 345.7l6.9-7M96.1 341.6l6.9-7M96.1 337.5l6.9-6.9M96.1 333.7l6.9-7M96.1 329.6l6.9-7M96.1 325.5l6.9-6.9M96.1 321.7l6.9-7M96.1 317.6l6.9-7M96.1 313.5l6.9-6.9M96.1 309.4l6.9-6.9M96.1 305.6l6.9-7M96.1 301.5l6.9-6.9M96.1 297.4l6.9-6.9M96.1 293.6l6.9-7M96.1 289.5l6.9-6.9M96.1 285.4l6.9-6.9M96.1 281.6l6.9-7M96.1 277.5l6.9-6.9M96.1 273.4l6.9-6.9M96.1 269.4l6.9-7M96.1 265.5l6.9-6.9M96.1 261.4l6.9-6.9M96.1 257.4l6.9-7M96.1 253.5l6.9-6.9M96.1 249.4l5.7-6M96.1 245.4l1.9-2"/><path class="cls-21" d="M102.8 243.4h-7V373h7V243.4"/><path class="cls-15" d="M103 246.8l-3.3-3.4M103 250.9l-6.9-7M103 254.7l-6.9-6.9M103 258.8l-6.9-7M103 262.9l-6.9-7M103 266.7l-6.9-6.9M103 270.8l-6.9-7M103 274.9l-6.9-7M103 279l-6.9-7M103 282.8l-6.9-7M103 286.9l-6.9-7M103 291l-6.9-7M103 294.8l-6.9-7M103 298.9l-6.9-7M103 303l-6.9-7M103 307l-6.9-6.9M103 310.9l-6.9-7M103 315l-6.9-7M103 319l-6.9-6.9M103 322.9l-6.9-7M103 327l-6.9-7M103 331l-6.9-6.9M103 334.9l-6.9-7M103 339l-6.9-7M103 343l-6.9-6.9M103 347.1l-6.9-6.9M103 351l-6.9-7M103 355l-6.9-6.9M103 359.1l-6.9-6.9M103 363l-6.9-7M103 367l-6.9-6.9M103 371.1l-6.9-6.9M100.9 373l-4.8-5M96.8 373l-.7-.9M100.6 373l2.4-2.4M96.6 373l6.4-6.2M96.1 369.7l6.9-7M96.1 365.6l6.9-7M96.1 361.8l6.9-7M96.1 357.7l6.9-7M96.1 353.6l6.9-7M96.1 349.5l6.9-6.9M96.1 345.7l6.9-7M96.1 341.6l6.9-7M96.1 337.5l6.9-6.9M96.1 333.7l6.9-7M96.1 329.6l6.9-7M96.1 325.5l6.9-6.9M96.1 321.7l6.9-7M96.1 317.6l6.9-7M96.1 313.5l6.9-6.9M96.1 309.4l6.9-6.9M96.1 305.6l6.9-7M96.1 301.5l6.9-6.9M96.1 297.4l6.9-6.9M96.1 293.6l6.9-7M96.1 289.5l6.9-6.9M96.1 285.4l6.9-6.9M96.1 281.6l6.9-7M96.1 277.5l6.9-6.9M96.1 273.4l6.9-6.9M96.1 269.4l6.9-7M96.1 265.5l6.9-6.9M96.1 261.4l6.9-6.9M96.1 257.4l6.9-7M96.1 253.5l6.9-6.9M96.1 249.4l5.7-6M96.1 245.4l1.9-2"/><path class="cls-17" d="M95.8 243.4V373M102.8 243.4V373M95.8 373h7M102.8 243.4V373M95.8 243.4V373"/><path class="cls-16" d="M303.7 190.6v21.6"/></g><g id="Mbel"><path class="cls-2" d="M317.4 246.8H374v15.6h-56.6zM199.5 279.4h10.8v56.9h-10.8zM125.6 89.6h50.9v22.6h-50.9zM127 122.1h12.7M127 113.6v8.5M139.7 122.1v-8.5M144.7 122.1h12.8M144.7 113.6v8.5M157.5 122.1v-8.5M162.4 122.1h12.8M162.4 113.6v8.5M175.2 122.1v-8.5M127 79.6h12.7M127 88.1v-8.5M139.7 79.6v8.5M144.7 79.6h12.8M144.7 88.1v-8.5M157.5 79.6v8.5M162.4 79.6h12.8M162.4 88.1v-8.5M175.2 79.6v8.5M317.4 287.8H374v45.4h-56.6zM260.5 289.5h14.2v28.6h-14.2zM305.6 330.4h-19c-.1 0-.2-.1-.3-.2s-.1-.2-.2-.3v-25.2-.3c0-.1.1-.2.2-.3 0 0 .2-.1.3-.2h19v26.6M309.3 335h-22.7c-.1 0-.2-.1-.3-.2 0 0-.1-.2-.2-.3V331.4v-.3c0-.1.1-.2.2-.3s.2-.1.3-.2h23c.1 0 .2.1.3.2 0 0 .1.2.2.3V334.5c0 .1-.1.2-.2.3 0 0-.2.1-.3.2h-.3M305.6 303.8h4.2l.1-.1.1-.1v-.1-.2V278.2v-.3c0-.1-.1-.2-.2-.3 0 0-.2-.1-.3-.2h-4M303.2 277v53.3"/><path class="cls-2" d="M305.6 277.1h-19c-.1 0-.2.1-.3.2 0 0-.1.2-.2.3v25.5c0 .1.1.2.2.3 0 0 .2.1.3.2h19V277M309.3 272.6h-22.7c-.1 0-.2.1-.3.2 0 0-.1.2-.2.3V276.5c0 .1.1.2.2.3 0 0 .2.1.3.2h23c.1 0 .2-.1.3-.2 0 0 .1-.2.2-.3V273.4v-.3c0-.1-.1-.2-.2-.3 0 0-.2-.1-.3-.2h-.3M305.6 303.8h4.2l.1.1.1.1v25.7c0 .1-.1.2-.2.3 0 0-.2.1-.3.2h-4M104.5 310.2h15.6v56.6h-15.6zM104.5 252.1h56.6v28.3h-56.6zM164.7 308h7.7v11.3h-7.7zM172.4 291h19.9v45.4h-19.9zM317.4 155.8H374v28.3h-56.6zM372.6 99h7.7v11.5h-7.7z"/><path class="cls-2" d="M380.2 81.9h19.9v45.4h-19.9zM317.4 84.8H333v56.6h-15.6z"/></g><g id="Text"><path d="M346.6 307.9v.6h-3.8l3-4.8h-2.7v-.6h3.8l-3 4.8h2.7zM348.4 303.8c0 .2-.2.4-.4.4s-.4-.2-.4-.4.2-.4.4-.4.4.2.4.4zm0 4.7h-.6v-3.7h.6v3.7zM350.3 304.8v.5c.3-.4.6-.6 1-.6s.8.2 1 .7c.3-.5.6-.7 1.2-.7s.7.1.9.4c.2.2.2.4.2 1v2.4h-.6v-2.2c0-.4 0-.6-.1-.7-.1-.2-.4-.3-.6-.3-.5 0-.8.4-.8 1v2.2h-.6v-2.2c0-.4 0-.5-.1-.7-.1-.2-.3-.3-.6-.3-.5 0-.9.4-.9 1v2.2h-.6v-3.7h.6zM356.6 304.8v.5c.3-.4.6-.6 1-.6s.8.2 1 .7c.3-.5.6-.7 1.2-.7s.7.1.9.4c.2.2.2.4.2 1v2.4h-.6v-2.2c0-.4 0-.6-.1-.7-.1-.2-.4-.3-.6-.3-.5 0-.8.4-.8 1v2.2h-.6v-2.2c0-.4 0-.5-.1-.7-.1-.2-.3-.3-.6-.3-.5 0-.9.4-.9 1v2.2h-.6v-3.7h.6zM362.7 306.8c0 .3 0 .5.2.7.2.3.6.5 1 .5s.9-.2 1.1-.6l.5.2c-.3.6-.9 1-1.6 1-1.1 0-1.9-.8-1.9-1.9s.8-1.9 1.9-1.9 1.9.8 1.9 1.9v.2h-3.1zm2.4-.4c0-.3 0-.4-.2-.6-.2-.3-.6-.5-1-.5s-.8.2-1 .5c-.1.2-.2.3-.2.6h2.4zM367.5 304.8v.6c.1-.3.2-.4.3-.5.2-.1.4-.2.7-.2h.1v.6h-.2c-.3 0-.6.2-.8.4-.2.2-.2.4-.2.9v1.9h-.6v-3.7h.6zM343.5 313.9v-.6l1.8-1.2v5.4h-.6v-4.4l-1.2.8zM347 312.8v-.6h3l-1.6 2c.9 0 1.6.7 1.6 1.6s-.8 1.7-1.8 1.7-1.4-.5-1.6-1.3h.6c.1.4.5.7 1 .7s1.2-.5 1.2-1.1-.5-1.1-1.2-1.1-.4 0-.6.2l-.3-.2 1.5-1.9h-1.9zM352 317.1c0 .2-.2.4-.4.4s-.4-.2-.4-.4.2-.4.4-.4.4.2.4.4zM356 316.9v.6h-3l1.9-2.7c.5-.8.7-1 .7-1.3 0-.5-.4-.8-.9-.8s-.7.2-.8.4v.6h-.6c0-1 .6-1.6 1.5-1.6s1.5.5 1.5 1.3-.2.8-.6 1.5l-1.4 2h1.9zM359.6 313.8v.5c.3-.4.6-.6 1-.6s.8.2 1 .7c.3-.5.6-.7 1.2-.7s.7.1.9.4c.2.2.2.4.2 1v2.4h-.6v-2.2c0-.4 0-.6-.1-.7-.1-.2-.4-.3-.6-.3-.5 0-.8.4-.8 1v2.2h-.6v-2.2c0-.4 0-.5-.1-.7-.1-.2-.3-.3-.6-.3-.5 0-.9.4-.9 1v2.2h-.6v-3.7h.6zM367.2 315v.4h-2l1.2-1.6c.3-.5.4-.6.4-.8 0-.3-.2-.4-.5-.4s-.5.2-.5.6h-.4c0-.6.4-1 1-1s1 .3 1 .8-.1.5-.4.9l-.8 1.1h1.1z"/><g><path d="M346.6 140.9v.6h-3.8l3-4.8h-2.7v-.6h3.8l-3 4.8h2.7zM348.4 136.7c0 .2-.2.4-.4.4s-.4-.2-.4-.4.2-.4.4-.4.4.2.4.4zm0 4.7h-.6v-3.7h.6v3.7zM350.3 137.7v.5c.3-.4.6-.6 1-.6s.8.2 1 .7c.3-.5.6-.7 1.2-.7s.7.1.9.4c.2.2.2.4.2 1v2.4h-.6v-2.2c0-.4 0-.6-.1-.7-.1-.2-.4-.3-.6-.3-.5 0-.8.4-.8 1v2.2h-.6v-2.2c0-.4 0-.5-.1-.7-.1-.2-.3-.3-.6-.3-.5 0-.9.4-.9 1v2.2h-.6v-3.7h.6zM356.6 137.7v.5c.3-.4.6-.6 1-.6s.8.2 1 .7c.3-.5.6-.7 1.2-.7s.7.1.9.4c.2.2.2.4.2 1v2.4h-.6v-2.2c0-.4 0-.6-.1-.7-.1-.2-.4-.3-.6-.3-.5 0-.8.4-.8 1v2.2h-.6v-2.2c0-.4 0-.5-.1-.7-.1-.2-.3-.3-.6-.3-.5 0-.9.4-.9 1v2.2h-.6v-3.7h.6zM362.7 139.8c0 .3 0 .5.2.7.2.3.6.5 1 .5s.9-.2 1.1-.6l.5.2c-.3.6-.9 1-1.6 1-1.1 0-1.9-.8-1.9-1.9s.8-1.9 1.9-1.9 1.9.8 1.9 1.9v.2h-3.1zm2.4-.4c0-.3 0-.4-.2-.6-.2-.3-.6-.5-1-.5s-.8.2-1 .5c-.1.2-.2.3-.2.6h2.4zM367.5 137.7v.6c.1-.3.2-.4.3-.5.2-.1.4-.2.7-.2h.1v.6h-.2c-.3 0-.6.2-.8.4-.2.2-.2.4-.2.9v1.9h-.6v-3.7h.6zM343.5 146.8v-.6l1.8-1.2v5.4h-.6V146l-1.2.8zM346.7 149.2v-.5l2.8-3.7v3.6h.6v.6h-.6v1.2h-.6v-1.2h-2.1zm2.1-2.6l-1.5 2h1.5v-2zM351.9 150.1c0 .2-.2.4-.4.4s-.4-.2-.4-.4.2-.4.4-.4.4.2.4.4zM352.9 146.8v-.6l1.8-1.2v5.4h-.6V146l-1.2.8zM358.9 146.7v.5c.3-.4.6-.6 1-.6s.8.2 1 .7c.3-.5.6-.7 1.2-.7s.7.1.9.4c.2.2.2.4.2 1v2.4h-.6v-2.2c0-.4 0-.6-.1-.7-.1-.2-.4-.3-.6-.3-.5 0-.8.4-.8 1v2.2h-.6v-2.2c0-.4 0-.5-.1-.7-.1-.2-.3-.3-.6-.3-.5 0-.9.4-.9 1v2.2h-.6v-3.7h.6zM366.5 147.9v.4h-2l1.2-1.6c.3-.5.4-.6.4-.8 0-.3-.2-.4-.5-.4s-.5.2-.5.6h-.4c0-.6.4-1 1-1s1 .3 1 .8-.1.5-.4.9l-.8 1.1h1.1z"/></g><g><path d="M139.1 292.4v.6h-3.8l3-4.8h-2.7v-.6h3.8l-3 4.8h2.7zM140.9 288.2c0 .2-.2.4-.4.4s-.4-.2-.4-.4.2-.4.4-.4.4.2.4.4zm0 4.7h-.6v-3.7h.6v3.7zM142.8 289.3v.5c.3-.4.6-.6 1-.6s.8.2 1 .7c.3-.5.6-.7 1.2-.7s.7.1.9.4c.2.2.2.4.2 1v2.4h-.6v-2.2c0-.4 0-.6-.1-.7-.1-.2-.4-.3-.6-.3-.5 0-.8.4-.8 1v2.2h-.6v-2.2c0-.4 0-.5-.1-.7-.1-.2-.3-.3-.6-.3-.5 0-.9.4-.9 1v2.2h-.6v-3.7h.6zM149.1 289.3v.5c.3-.4.6-.6 1-.6s.8.2 1 .7c.3-.5.6-.7 1.2-.7s.7.1.9.4c.2.2.2.4.2 1v2.4h-.6v-2.2c0-.4 0-.6-.1-.7-.1-.2-.4-.3-.6-.3-.5 0-.8.4-.8 1v2.2h-.6v-2.2c0-.4 0-.5-.1-.7-.1-.2-.3-.3-.6-.3-.5 0-.9.4-.9 1v2.2h-.6v-3.7h.6zM155.2 291.3c0 .3 0 .5.2.7.2.3.6.5 1 .5s.9-.2 1.1-.6l.5.2c-.3.6-.9 1-1.6 1-1.1 0-1.9-.8-1.9-1.9s.8-1.9 1.9-1.9 1.9.8 1.9 1.9v.2h-3.1zm2.4-.4c0-.3 0-.4-.2-.6-.2-.3-.6-.5-1-.5s-.8.2-1 .5c-.1.2-.2.3-.2.6h2.4zM160 289.3v.6c.1-.3.2-.4.3-.5.2-.1.4-.2.7-.2h.1v.6h-.2c-.3 0-.6.2-.8.4-.2.2-.2.4-.2.9v1.9h-.6v-3.7h.6zM136.1 298.4v-.6l1.8-1.2v5.4h-.6v-4.4l-1.2.8zM139.6 297.3v-.6h3l-1.6 2c.9 0 1.6.7 1.6 1.6s-.8 1.7-1.8 1.7-1.4-.5-1.6-1.3h.6c.1.4.5.7 1 .7s1.2-.5 1.2-1.1-.5-1.1-1.2-1.1-.4 0-.6.2l-.3-.2 1.5-1.9h-1.9zM144.5 301.6c0 .2-.2.4-.4.4s-.4-.2-.4-.4.2-.4.4-.4.4.2.4.4zM145.4 300.8v-.5l2.8-3.7v3.6h.6v.6h-.6v1.2h-.6v-1.2h-2.1zm2.1-2.6l-1.5 2h1.5v-2zM152 298.3v.5c.3-.4.6-.6 1-.6s.8.2 1 .7c.3-.5.6-.7 1.2-.7s.7.1.9.4c.2.2.2.4.2 1v2.4h-.6v-2.2c0-.4 0-.6-.1-.7-.1-.2-.4-.3-.6-.3-.5 0-.8.4-.8 1v2.2h-.6v-2.2c0-.4 0-.5-.1-.7-.1-.2-.3-.3-.6-.3-.5 0-.9.4-.9 1v2.2h-.6v-3.7h.6zM159.6 299.5v.4h-2l1.2-1.6c.3-.5.4-.6.4-.8 0-.3-.2-.4-.5-.4s-.5.2-.5.6h-.4c0-.6.4-1 1-1s1 .3 1 .8-.1.5-.4.9l-.8 1.1h1.1z"/></g><g><path d="M113.8 15.9c1.1 0 1.7.5 1.7 1.4s-.1.6-.3.9c-.1.2-.3.2-.5.3.3 0 .4.1.6.2.3.2.4.6.4 1s-.2.9-.6 1.2c-.3.2-.7.3-1.3.3h-1.5v-5.3h1.5zm-.8 2.4h.7c.4 0 .7 0 .9-.2.2-.2.3-.4.3-.7s-.2-.6-.4-.8c-.2 0-.4-.1-.9-.1h-.6v1.8zm0 2.4h.7c.6 0 .8 0 1-.2.3-.1.4-.4.4-.8 0-.6-.4-.9-1.2-.9h-.8v1.8zM119.7 17.5h.6v3.7h-.6v-.7c-.4.6-.8.8-1.3.8-1 0-1.7-.8-1.7-1.9s.7-1.9 1.8-1.9 1 .2 1.3.7v-.6zm-2.1.9c-.2.3-.3.6-.3 1 0 .8.5 1.4 1.2 1.4s1.3-.6 1.3-1.4-.5-1.4-1.2-1.4-.7.1-.9.4zM121.7 21.2v-5.3h.6v5.3h-.6zM124.3 21.2h-.6v-5.3h.6v3.3l1.5-1.6h.8l-1.6 1.8 1.6 1.9h-.8l-1.5-1.6v1.6zM130.7 19.4c0 1.1-.8 1.9-1.9 1.9s-1.9-.8-1.9-1.9.8-1.9 1.9-1.9 1.9.8 1.9 1.9zm-3.1 0c0 .8.5 1.4 1.3 1.4s1.2-.6 1.2-1.4-.5-1.4-1.2-1.4-1.3.6-1.3 1.4zM132.4 17.5v.5c.3-.4.6-.6 1.1-.6s.6.1.9.3c.2.2.3.5.3 1v2.5h-.6v-2.4c0-.3 0-.5-.1-.6-.1-.2-.3-.2-.6-.2s-.5.1-.7.3c-.2.2-.2.4-.2.7v2.2h-.6v-3.7h.6zM114.6 25.5h-1.7v1.4c.3-.1.5-.2.8-.2.9 0 1.6.7 1.6 1.7s-.8 1.8-1.8 1.8-1.3-.4-1.6-1.1l.6-.2c.1.2.2.3.3.4.2.2.5.3.8.3.6 0 1.1-.5 1.1-1.2s-.5-1.1-1.2-1.1-.8.2-1.2.5v-3h2.3v.6zM117.2 29.8c0 .2-.2.4-.4.4s-.4-.2-.4-.4.2-.4.4-.4.4.2.4.4zM121.5 28.6c0 .6-.1 1-.4 1.2-.3.3-.7.4-1.2.4s-1-.2-1.2-.5c-.3-.3-.4-.6-.4-1.4v-1.8c0-.7 0-1 .3-1.3.3-.3.7-.5 1.2-.5s.9.1 1.2.4c.3.3.4.6.4 1.2v2.1zm-2.5-.1c0 .6 0 .7.2.9.2.2.5.3.8.3s.6-.1.8-.4c.1-.2.2-.4.2-.8v-2c0-.4 0-.6-.3-.8-.2-.2-.4-.2-.7-.2s-.6.1-.8.4c-.1.2-.2.4-.2.8v1.8zM124.8 26.5v.5c.3-.4.6-.6 1-.6s.8.2 1 .7c.3-.5.6-.7 1.2-.7s.7.1.9.4c.2.2.2.4.2 1v2.4h-.6V28c0-.4 0-.6-.1-.7-.1-.2-.4-.3-.6-.3-.5 0-.8.4-.8 1v2.2h-.6V28c0-.4 0-.5-.1-.7-.1-.2-.3-.3-.6-.3-.5 0-.9.4-.9 1v2.2h-.6v-3.7h.6zM132.4 27.7v.4h-2l1.2-1.6c.3-.5.4-.6.4-.8 0-.3-.2-.4-.5-.4s-.5.2-.5.6h-.4c0-.6.4-1 1-1s1 .3 1 .8-.1.5-.4.9l-.8 1.1h1.1z"/></g><g><path d="M230.9 416.4c1.1 0 1.7.5 1.7 1.4s-.1.6-.3.9c-.1.2-.3.2-.5.3.3 0 .4.1.6.2.3.2.4.6.4 1s-.2.9-.6 1.2c-.3.2-.7.3-1.3.3h-1.5v-5.3h1.5zm-.8 2.4h.7c.4 0 .7 0 .9-.2.2-.2.3-.4.3-.7s-.2-.6-.4-.8c-.2 0-.4-.1-.9-.1h-.6v1.8zm0 2.4h.7c.6 0 .8 0 1-.2.3-.1.4-.4.4-.8 0-.6-.4-.9-1.2-.9h-.8v1.8zM236.8 418.1h.6v3.7h-.6v-.7c-.4.6-.8.8-1.3.8-1 0-1.7-.8-1.7-1.9s.7-1.9 1.8-1.9 1 .2 1.3.7v-.6zm-2.1.9c-.2.3-.3.6-.3 1 0 .8.5 1.4 1.2 1.4s1.3-.6 1.3-1.4-.5-1.4-1.2-1.4-.7.1-.9.4zM238.8 421.8v-5.3h.6v5.3h-.6zM241.3 421.8h-.6v-5.3h.6v3.3l1.5-1.6h.8L242 420l1.6 1.9h-.8l-1.5-1.6v1.6zM247.8 419.9c0 1.1-.8 1.9-1.9 1.9s-1.9-.8-1.9-1.9.8-1.9 1.9-1.9 1.9.8 1.9 1.9zm-3.1 0c0 .8.5 1.4 1.3 1.4s1.2-.6 1.2-1.4-.5-1.4-1.2-1.4-1.3.6-1.3 1.4zM249.5 418.1v.5c.3-.4.6-.6 1.1-.6s.6.1.9.3c.2.2.3.5.3 1v2.5h-.6v-2.4c0-.3 0-.5-.1-.6-.1-.2-.3-.2-.6-.2s-.5.1-.7.3c-.2.2-.2.4-.2.7v2.2h-.6v-3.7h.6zM230.4 427.6c.2 0 .3-.1.5-.1.9 0 1.6.7 1.6 1.6s-.8 1.7-1.7 1.7-1.7-.8-1.7-1.7.1-.7.4-1.2l1.5-2.5h.7l-1.4 2.1zm-.7 1.5c0 .6.5 1.1 1.1 1.1s1.1-.5 1.1-1.1-.5-1.1-1.1-1.1-1.1.5-1.1 1.1zM234.3 430.4c0 .2-.2.4-.4.4s-.4-.2-.4-.4.2-.4.4-.4.4.2.4.4zM238.6 429.1c0 .6-.1 1-.4 1.2-.3.3-.7.4-1.2.4s-1-.2-1.2-.5c-.3-.3-.4-.6-.4-1.4V427c0-.7 0-1 .3-1.3.3-.3.7-.5 1.2-.5s.9.1 1.2.4c.3.3.4.6.4 1.2v2.1zm-2.5-.1c0 .6 0 .7.2.9.2.2.5.3.8.3s.6-.1.8-.4c.1-.2.2-.4.2-.8v-2c0-.4 0-.6-.3-.8-.2-.2-.4-.2-.7-.2s-.6.1-.8.4c-.1.2-.2.4-.2.8v1.8zM241.9 427.1v.5c.3-.4.6-.6 1-.6s.8.2 1 .7c.3-.5.6-.7 1.2-.7s.7.1.9.4c.2.2.2.4.2 1v2.4h-.6v-2.2c0-.4 0-.6-.1-.7-.1-.2-.4-.3-.6-.3-.5 0-.8.4-.8 1v2.2h-.6v-2.2c0-.4 0-.5-.1-.7-.1-.2-.3-.3-.6-.3-.5 0-.9.4-.9 1v2.2h-.6v-3.7h.6zM249.5 428.2v.4h-2l1.2-1.6c.3-.5.4-.6.4-.8 0-.3-.2-.4-.5-.4s-.5.2-.5.6h-.4c0-.6.4-1 1-1s1 .3 1 .8-.1.5-.4.9l-.8 1.1h1.1z"/></g><g><path d="M261.1 207.3c1.1 0 1.7.5 1.7 1.4s-.1.6-.3.9c-.1.2-.3.2-.5.3.3 0 .4.1.6.2.3.2.4.6.4 1s-.2.9-.6 1.2c-.3.2-.7.3-1.3.3h-1.5v-5.3h1.5zm-.8 2.4h.7c.4 0 .7 0 .9-.2.2-.2.3-.4.3-.7s-.2-.6-.4-.8c-.2 0-.4-.1-.9-.1h-.6v1.8zm0 2.4h.7c.6 0 .8 0 1-.2.3-.1.4-.4.4-.8 0-.6-.4-.9-1.2-.9h-.8v1.8zM266.9 208.9h.6v3.7h-.6v-.7c-.4.6-.8.8-1.3.8-1 0-1.7-.8-1.7-1.9s.7-1.9 1.8-1.9 1 .2 1.3.7v-.6zm-2.1.9c-.2.3-.3.6-.3 1 0 .8.5 1.4 1.2 1.4s1.3-.6 1.3-1.4-.5-1.4-1.2-1.4-.7.1-.9.4zM271.7 207.3h.6v5.3h-.6v-.6c-.4.5-.8.7-1.3.7-1 0-1.7-.8-1.7-1.9s.7-2 1.7-2 1 .2 1.3.6v-2.2zm-2.4 3.5c0 .8.5 1.4 1.2 1.4s1.2-.6 1.2-1.4-.5-1.4-1.2-1.4-1.2.6-1.2 1.4zM259.5 216.9v-.6h3l-1.6 2c.9 0 1.6.7 1.6 1.6s-.8 1.7-1.8 1.7-1.4-.5-1.6-1.3h.6c.1.4.5.7 1 .7s1.2-.5 1.2-1.1-.5-1.1-1.2-1.1-.4 0-.6.2l-.3-.2 1.5-1.9h-1.9zM264.4 221.2c0 .2-.2.4-.4.4s-.4-.2-.4-.4.2-.4.4-.4.4.2.4.4zM268.4 219c.3.3.4.6.4 1 0 .9-.7 1.6-1.7 1.6s-1.6-.6-1.6-1.6.1-.8.4-1.1c.2-.2.3-.3.6-.4-.3 0-.4-.2-.5-.4-.2-.2-.3-.5-.3-.8 0-.8.6-1.3 1.5-1.3s1.4.6 1.4 1.3-.1.6-.3.8c-.1.2-.3.2-.5.3.3 0 .4.2.6.3zm-2.3 1c0 .6.5 1 1 1s1-.5 1-1-.5-1-1-1-1 .5-1 1zm.2-2.5c0 .5.4.8.8.8s.9-.4.9-.8-.4-.8-.8-.8-.9.3-.9.8zM272.9 217.9v.5c.3-.4.6-.6 1-.6s.8.2 1 .7c.3-.5.6-.7 1.2-.7s.7.1.9.4c.2.2.2.4.2 1v2.4h-.6v-2.2c0-.4 0-.6-.1-.7-.1-.2-.4-.3-.6-.3-.5 0-.8.4-.8 1v2.2h-.6v-2.2c0-.4 0-.5-.1-.7-.1-.2-.3-.3-.6-.3-.5 0-.9.4-.9 1v2.2h-.6v-3.7h.6zM280.5 219.1v.4h-2l1.2-1.6c.3-.5.4-.6.4-.8 0-.3-.2-.4-.5-.4s-.5.2-.5.6h-.4c0-.6.4-1 1-1s1 .3 1 .8-.1.5-.4.9l-.8 1.1h1.1z"/></g><g><path d="M343.8 195.7h1.4c1.6 0 2.6 1 2.6 2.6s-.3 1.6-.8 2.1c-.5.4-1.1.6-1.9.6h-1.3v-5.3zm.7 4.8h.2c.9 0 1.3 0 1.7-.4.5-.4.7-1 .7-1.8 0-1.3-.7-2-1.9-2h-.7v4.2zM351.8 197.4v2.4c0 .5 0 .8-.4 1-.3.2-.6.4-1.1.4s-.8-.1-1.1-.4c-.2-.2-.4-.6-.4-1v-2.4h.6v2.3c0 .5.3.9.8.9s.5-.1.7-.3c.1-.1.2-.3.2-.6v-2.4h.6zM354.8 198.4c0-.4-.3-.6-.7-.6s-.7.2-.7.5.2.4.8.6c.5.1.7.2.9.4.2.2.3.4.3.7 0 .6-.5 1.1-1.3 1.1s-1.3-.4-1.4-1.1h.6c0 .4.3.6.8.6s.7-.2.7-.5-.2-.5-.8-.6c-.8-.2-1.2-.6-1.2-1.1s.5-1.1 1.3-1.1 1.3.4 1.3 1.1h-.6zM359.5 200.6c-.4.4-.8.5-1.4.5-1.1 0-1.8-.8-1.8-1.9s.8-1.9 1.8-1.9 1 .2 1.3.6l-.4.4c-.3-.3-.6-.4-.9-.4-.7 0-1.2.6-1.2 1.4s.5 1.4 1.2 1.4.6-.1.9-.4l.4.4zM361.1 197.9c.3-.4.7-.6 1.1-.6s.7.1.9.3c.2.2.3.5.3 1v2.5h-.6v-2.4c0-.5-.2-.8-.7-.8s-.5.1-.7.3c-.2.2-.2.4-.2.7v2.2h-.6v-5.3h.6v2.2zM365 199.4c0 .3 0 .5.2.7.2.3.6.5 1 .5s.9-.2 1.1-.6l.5.2c-.3.6-.9 1-1.6 1-1.1 0-1.9-.8-1.9-1.9s.8-1.9 1.9-1.9 1.9.8 1.9 1.9v.2H365zm2.4-.4c0-.3 0-.4-.2-.6-.2-.3-.6-.5-1-.5s-.8.2-1 .5c-.1.2-.2.3-.2.6h2.4zM343.5 208.9v-.5l2.8-3.7v3.6h.6v.6h-.6v1.2h-.6v-1.2h-2.1zm2.1-2.6l-1.5 2h1.5v-2zM348.7 209.7c0 .2-.2.4-.4.4s-.4-.2-.4-.4.2-.4.4-.4.4.2.4.4zM351 207c.2 0 .3-.1.5-.1.9 0 1.6.7 1.6 1.6s-.8 1.7-1.7 1.7-1.7-.8-1.7-1.7.1-.7.4-1.2l1.5-2.5h.7l-1.4 2.1zm-.7 1.5c0 .6.5 1.1 1.1 1.1s1.1-.5 1.1-1.1-.5-1.1-1.1-1.1-1.1.5-1.1 1.1zM357.2 206.4v.5c.3-.4.6-.6 1-.6s.8.2 1 .7c.3-.5.6-.7 1.2-.7s.7.1.9.4c.2.2.2.4.2 1v2.4h-.6v-2.2c0-.4 0-.6-.1-.7-.1-.2-.4-.3-.6-.3-.5 0-.8.4-.8 1v2.2h-.6v-2.2c0-.4 0-.5-.1-.7-.1-.2-.3-.3-.6-.3-.5 0-.9.4-.9 1v2.2h-.6v-3.7h.6zM364.8 207.6v.4h-2l1.2-1.6c.3-.5.4-.6.4-.8 0-.3-.2-.4-.5-.4s-.5.2-.5.6h-.4c0-.6.4-1 1-1s1 .3 1 .8-.1.5-.4.9l-.8 1.1h1.1z"/></g><g><path d="M206.9 178.1h2.1v.6h-2.1v1.8h2.1v.6h-2.8v-5.3h2.8v.6h-2.1v1.8zM210.8 177.3v.5c.3-.4.6-.6 1.1-.6s.6.1.9.3c.2.2.3.5.3 1v2.5h-.6v-2.4c0-.3 0-.5-.1-.6-.1-.2-.3-.2-.6-.2s-.5.1-.7.3c-.2.2-.2.4-.2.7v2.2h-.6v-3.7h.6zM215.1 180.3c0 .2 0 .2.3.2h.3v.5h-.6c-.4 0-.6-.2-.6-.6v-2.6h-.5v-.5h.5v-1.2h.6v1.2h.6v.5h-.6v2.4zM217.3 177.3v.6c.1-.3.2-.4.3-.5.2-.1.4-.2.7-.2h.1v.6h-.2c-.3 0-.6.2-.8.4-.2.2-.2.4-.2.9v1.9h-.6v-3.7h.6zM219.7 179.4c0 .3 0 .5.2.7.2.3.6.5 1 .5s.9-.2 1.1-.6l.5.2c-.3.6-.9 1-1.6 1-1.1 0-1.9-.8-1.9-1.9s.8-1.9 1.9-1.9 1.9.8 1.9 1.9v.2h-3.1zm2.4-.4c0-.3 0-.4-.2-.6-.2-.3-.6-.5-1-.5s-.8.2-1 .5c-.1.2-.2.3-.2.6h2.4zm-.2-3.2l-.9 1.1h-.4l.7-1.1h.7zM224.3 179.4c0 .3 0 .5.2.7.2.3.6.5 1 .5s.9-.2 1.1-.6l.5.2c-.3.6-.9 1-1.6 1-1.1 0-1.9-.8-1.9-1.9s.8-1.9 1.9-1.9 1.9.8 1.9 1.9v.2h-3.1zm2.4-.4c0-.3 0-.4-.2-.6-.2-.3-.6-.5-1-.5s-.8.2-1 .5c-.1.2-.2.3-.2.6h2.4zM206.3 185.4v-.6h3l-2.1 5.3h-.7l1.9-4.7h-2zM210.5 189.7c0 .2-.2.4-.4.4s-.4-.2-.4-.4.2-.4.4-.4.4.2.4.4zM211.4 188.8v-.5l2.8-3.7v3.6h.6v.6h-.6v1.2h-.6v-1.2h-2.1zm2.1-2.6l-1.5 2h1.5v-2zM218.9 186.3v.5c.3-.4.6-.6 1-.6s.8.2 1 .7c.3-.5.6-.7 1.2-.7s.7.1.9.4c.2.2.2.4.2 1v2.4h-.6v-2.2c0-.4 0-.6-.1-.7-.1-.2-.4-.3-.6-.3-.5 0-.8.4-.8 1v2.2h-.6v-2.2c0-.4 0-.5-.1-.7-.1-.2-.3-.3-.6-.3-.5 0-.9.4-.9 1v2.2h-.6v-3.7h.6zM226.5 187.5v.4h-2l1.2-1.6c.3-.5.4-.6.4-.8 0-.3-.2-.4-.5-.4s-.5.2-.5.6h-.4c0-.6.4-1 1-1s1 .3 1 .8-.1.5-.4.9l-.8 1.1h1.1z"/></g><g><path d="M260.2 166.7h-.7v-5.3h1.5c1.1 0 1.8.6 1.8 1.6s-.3 1.1-.8 1.3c-.3.1-.5.2-1 .2l2.1 2.2h-.9l-2.1-2.2v2.2zm.7-2.7c.8 0 1.2-.4 1.2-1s-.4-1-1.1-1h-.8v2.1h.7zM264.4 165.1c0 .3 0 .5.2.7.2.3.6.5 1 .5s.9-.2 1.1-.6l.5.2c-.3.6-.9 1-1.6 1-1.1 0-1.9-.8-1.9-1.9s.8-1.9 1.9-1.9 1.9.8 1.9 1.9v.2h-3.1zm2.4-.4c0-.3 0-.4-.2-.6-.2-.3-.6-.5-1-.5s-.8.2-1 .5c-.1.2-.2.3-.2.6h2.4zM271.3 161.4h.6v5.3h-.6v-.6c-.4.5-.8.7-1.3.7-1 0-1.7-.8-1.7-1.9s.7-2 1.7-2 1 .2 1.3.6v-2.2zm-2.4 3.5c0 .8.5 1.4 1.2 1.4s1.2-.6 1.2-1.4-.5-1.4-1.2-1.4-1.2.6-1.2 1.4zM276.1 163v2.4c0 .5 0 .8-.4 1-.3.2-.6.4-1.1.4s-.8-.1-1.1-.4c-.2-.2-.4-.6-.4-1V163h.6v2.3c0 .5.3.9.8.9s.5-.1.7-.3c.1-.1.2-.3.2-.6v-2.4h.6zM278.1 162c0 .2-.2.4-.4.4s-.4-.2-.4-.4.2-.4.4-.4.4.2.4.4zm0 4.7h-.6V163h.6v3.7zM280 166c0 .2 0 .2.3.2h.3v.5h-.6c-.4 0-.6-.2-.6-.6v-2.6h-.5v-.5h.5v-1.2h.6v1.2h.6v.5h-.6v2.4zM259.8 172.1v-.6l1.8-1.2v5.4h-.6v-4.4l-1.2.8zM264.2 175.4c0 .2-.2.4-.4.4s-.4-.2-.4-.4.2-.4.4-.4.4.2.4.4zM265.5 171v-.6h3l-1.6 2c.9 0 1.6.7 1.6 1.6s-.8 1.7-1.8 1.7-1.4-.5-1.6-1.3h.6c.1.4.5.7 1 .7s1.2-.5 1.2-1.1-.5-1.1-1.2-1.1-.4 0-.6.2l-.3-.2 1.5-1.9h-1.9zM272.7 172v.5c.3-.4.6-.6 1-.6s.8.2 1 .7c.3-.5.6-.7 1.2-.7s.7.1.9.4c.2.2.2.4.2 1v2.4h-.6v-2.2c0-.4 0-.6-.1-.7-.1-.2-.4-.3-.6-.3-.5 0-.8.4-.8 1v2.2h-.6v-2.2c0-.4 0-.5-.1-.7-.1-.2-.3-.3-.6-.3-.5 0-.9.4-.9 1v2.2h-.6V172h.6zM280.3 173.2v.4h-2l1.2-1.6c.3-.5.4-.6.4-.8 0-.3-.2-.4-.5-.4s-.5.2-.5.6h-.4c0-.6.4-1 1-1s1 .3 1 .8-.1.5-.4.9l-.8 1.1h1.1z"/></g><g><path d="M228.2 288.6h.7l-1.6 5.3h-.6l-1.2-4.2-1.2 4.2h-.6l-1.6-5.3h.7l1.2 4.1 1.2-4.1h.6l1.1 4.1 1.2-4.1zM233 292.1c0 1.1-.8 1.9-1.9 1.9s-1.9-.8-1.9-1.9.8-1.9 1.9-1.9 1.9.8 1.9 1.9zm-3.1 0c0 .8.5 1.4 1.3 1.4s1.2-.6 1.2-1.4-.5-1.4-1.2-1.4-1.3.6-1.3 1.4zM234.7 290.7c.3-.4.7-.6 1.1-.6s.7.1.9.3c.2.2.3.5.3 1v2.5h-.6v-2.4c0-.5-.2-.8-.7-.8s-.5.1-.7.3c-.2.2-.2.4-.2.7v2.2h-.6v-5.3h.6v2.2zM238.9 290.2v.5c.3-.4.6-.6 1.1-.6s.6.1.9.3c.2.2.3.5.3 1v2.5h-.6v-2.4c0-.3 0-.5-.1-.6-.1-.2-.3-.2-.6-.2s-.5.1-.7.3c-.2.2-.2.4-.2.7v2.2h-.6v-3.7h.6zM242.9 292.3c0 .3 0 .5.2.7.2.3.6.5 1 .5s.9-.2 1.1-.6l.5.2c-.3.6-.9 1-1.6 1-1.1 0-1.9-.8-1.9-1.9s.8-1.9 1.9-1.9 1.9.8 1.9 1.9v.2h-3.1zm2.4-.4c0-.3 0-.4-.2-.6-.2-.3-.6-.5-1-.5s-.8.2-1 .5c-.1.2-.2.3-.2.6h2.4zM247.7 290.2v.5c.3-.4.6-.6 1.1-.6s.6.1.9.3c.2.2.3.5.3 1v2.5h-.6v-2.4c0-.3 0-.5-.1-.6-.1-.2-.3-.2-.6-.2s-.5.1-.7.3c-.2.2-.2.4-.2.7v2.2h-.6v-3.7h.6zM223 299.3v-.6l1.8-1.2v5.4h-.6v-4.4l-1.2.8zM229 298.2h-1.7v1.4c.3-.1.5-.2.8-.2.9 0 1.6.7 1.6 1.7s-.8 1.8-1.8 1.8-1.3-.4-1.6-1.1l.6-.2c.1.2.2.3.3.4.2.2.5.3.8.3.6 0 1.1-.5 1.1-1.2s-.5-1.1-1.2-1.1-.8.2-1.2.5v-3h2.3v.6zM231.5 302.6c0 .2-.2.4-.4.4s-.4-.2-.4-.4.2-.4.4-.4.4.2.4.4zM233.9 299.8c.2 0 .3-.1.5-.1.9 0 1.6.7 1.6 1.6s-.8 1.7-1.7 1.7-1.7-.8-1.7-1.7.1-.7.4-1.2l1.5-2.5h.7l-1.4 2.1zm-.7 1.5c0 .6.5 1.1 1.1 1.1s1.1-.5 1.1-1.1-.5-1.1-1.1-1.1-1.1.5-1.1 1.1zM240 299.2v.5c.3-.4.6-.6 1-.6s.8.2 1 .7c.3-.5.6-.7 1.2-.7s.7.1.9.4c.2.2.2.4.2 1v2.4h-.6v-2.2c0-.4 0-.6-.1-.7-.1-.2-.4-.3-.6-.3-.5 0-.8.4-.8 1v2.2h-.6v-2.2c0-.4 0-.5-.1-.7-.1-.2-.3-.3-.6-.3-.5 0-.9.4-.9 1v2.2h-.6v-3.7h.6zM247.6 300.4v.4h-2l1.2-1.6c.3-.5.4-.6.4-.8 0-.3-.2-.4-.5-.4s-.5.2-.5.6h-.4c0-.6.4-1 1-1s1 .3 1 .8-.1.5-.4.9l-.8 1.1h1.1z"/></g><g><path d="M206.7 85h-.7v-5.3h.7v2.5l2.1-2.5h.8l-2.2 2.6 2.2 2.7h-.9l-2-2.5V85zM213.7 83.2c0 1.1-.8 1.9-1.9 1.9s-1.9-.8-1.9-1.9.8-1.9 1.9-1.9 1.9.8 1.9 1.9zm-3.1 0c0 .8.5 1.4 1.3 1.4s1.2-.6 1.2-1.4-.5-1.4-1.2-1.4-1.3.6-1.3 1.4zM217.7 84.6c-.4.4-.8.5-1.4.5-1.1 0-1.8-.8-1.8-1.9s.8-1.9 1.8-1.9 1 .2 1.3.6l-.4.4c-.3-.3-.6-.4-.9-.4-.7 0-1.2.6-1.2 1.4s.5 1.4 1.2 1.4.6-.1.9-.4l.4.4zM219.3 81.9c.3-.4.7-.6 1.1-.6s.7.1.9.3c.2.2.3.5.3 1v2.5h-.6v-2.4c0-.5-.2-.8-.7-.8s-.5.1-.7.3c-.2.2-.2.4-.2.7v2.2h-.6v-5.3h.6V82zM223.3 83.4c0 .3 0 .5.2.7.2.3.6.5 1 .5s.9-.2 1.1-.6l.5.2c-.3.6-.9 1-1.6 1-1.1 0-1.9-.8-1.9-1.9s.8-1.9 1.9-1.9 1.9.8 1.9 1.9v.2h-3.1zm2.4-.4c0-.3 0-.4-.2-.6-.2-.3-.6-.5-1-.5s-.8.2-1 .5c-.1.2-.2.3-.2.6h2.4zM228 81.3v.5c.3-.4.6-.6 1.1-.6s.6.1.9.3c.2.2.3.5.3 1V85h-.6v-2.4c0-.3 0-.5-.1-.6-.1-.2-.3-.2-.6-.2s-.5.1-.7.3c-.2.2-.2.4-.2.7V85h-.6v-3.7h.6zM231.6 86.3h-.4l.7-2.1.6.2-.8 1.9zM236.7 82.1h2.1v.6h-2.1v1.8h2.1v.6H236v-5.3h2.8v.6h-2.1v1.8zM241.7 82.4c0-.4-.3-.6-.7-.6s-.7.2-.7.5.2.4.8.6c.5.1.7.2.9.4.2.2.3.4.3.7 0 .6-.5 1.1-1.3 1.1s-1.3-.4-1.4-1.1h.6c0 .4.3.6.8.6s.7-.2.7-.5-.2-.5-.8-.6c-.8-.2-1.2-.6-1.2-1.1s.5-1.1 1.3-1.1 1.3.4 1.3 1.1h-.6zM245.3 82.4c0-.4-.3-.6-.7-.6s-.7.2-.7.5.2.4.8.6c.5.1.7.2.9.4.2.2.3.4.3.7 0 .6-.5 1.1-1.3 1.1s-1.3-.4-1.4-1.1h.6c0 .4.3.6.8.6s.7-.2.7-.5-.2-.5-.8-.6c-.8-.2-1.2-.6-1.2-1.1s.5-1.1 1.3-1.1 1.3.4 1.3 1.1h-.6zM247.4 83.4c0 .3 0 .5.2.7.2.3.6.5 1 .5s.9-.2 1.1-.6l.5.2c-.3.6-.9 1-1.6 1-1.1 0-1.9-.8-1.9-1.9s.8-1.9 1.9-1.9 1.9.8 1.9 1.9v.2h-3.1zm2.4-.4c0-.3 0-.4-.2-.6-.2-.3-.6-.5-1-.5s-.8.2-1 .5c-.1.2-.2.3-.2.6h2.4zM252.2 81.3v.5c.3-.4.6-.6 1.1-.6s.6.1.9.3c.2.2.3.5.3 1V85h-.6v-2.4c0-.3 0-.5-.1-.6-.1-.2-.3-.2-.6-.2s-.5.1-.7.3c-.2.2-.2.4-.2.7V85h-.6v-3.7h.6zM208.7 93.4v.6h-3l1.9-2.7c.5-.8.7-1 .7-1.3 0-.5-.4-.8-.9-.8s-.7.2-.8.4v.6h-.6c0-1 .6-1.6 1.5-1.6s1.5.5 1.5 1.3-.2.8-.6 1.5l-1.4 2h1.9zM210.2 90.4v-.6l1.8-1.2V94h-.6v-4.4l-1.2.8zM214.5 93.7c0 .2-.2.4-.4.4s-.4-.2-.4-.4.2-.4.4-.4.4.2.4.4zM217.3 91.9c-.2 0-.3.1-.5.1-.9 0-1.6-.7-1.6-1.6s.8-1.7 1.7-1.7 1.7.7 1.7 1.7-.1.7-.4 1.2l-1.5 2.5h-.7l1.3-2.1zm-1.5-1.5c0 .6.5 1.1 1.1 1.1s1.1-.5 1.1-1.1-.5-1.1-1-1.1-1.1.5-1.1 1.1zM222.7 90.3v.5c.3-.4.6-.6 1-.6s.8.2 1 .7c.3-.5.6-.7 1.2-.7s.7.1.9.4c.2.2.2.4.2 1V94h-.6v-2.2c0-.4 0-.6-.1-.7-.1-.2-.4-.3-.6-.3-.5 0-.8.4-.8 1V94h-.6v-2.2c0-.4 0-.5-.1-.7-.1-.2-.3-.3-.6-.3-.5 0-.9.4-.9 1V94h-.6v-3.7h.6zM230.3 91.5v.4h-2l1.2-1.6c.3-.5.4-.6.4-.8 0-.3-.2-.4-.5-.4s-.5.2-.5.6h-.4c0-.6.4-1 1-1s1 .3 1 .8-.1.5-.4.9l-.8 1.1h1.1z"/></g><g><path d="M22.5 175.9v.6H20v-5.3h.7v4.7h1.9zM24.1 171.8c0 .2-.2.4-.4.4s-.4-.2-.4-.4.2-.4.4-.4.4.2.4.4zm0 4.7h-.6v-3.7h.6v3.7zM26.1 176.5h-.6v-3.2H25v-.5h.5v-.5c0-.7.4-1.2 1-1.2h.2v.5c-.4 0-.6.2-.6.6v.5h.6v.5h-.6v3.2zM28.5 175.7c0 .2 0 .2.3.2h.3v.5h-.6c-.4 0-.6-.2-.6-.6v-2.6h-.5v-.5h.5v-1.2h.6v1.2h.6v.5h-.6v2.4z"/></g></g></svg>