<svg xmlns="http://www.w3.org/2000/svg" viewBox="0 0 671.4 262.5"><defs><style>.cls-1,.cls-10,.cls-11,.cls-12,.cls-13,.cls-14,.cls-15,.cls-16,.cls-17,.cls-18,.cls-19,.cls-2,.cls-20,.cls-21,.cls-22,.cls-23,.cls-24,.cls-25,.cls-26,.cls-27,.cls-28,.cls-3,.cls-4,.cls-5,.cls-6,.cls-7,.cls-8,.cls-9{fill:none;stroke-linecap:round;stroke-linejoin:round}.cls-1,.cls-10,.cls-11,.cls-12,.cls-13,.cls-14,.cls-15,.cls-16,.cls-17,.cls-18,.cls-19,.cls-2,.cls-20,.cls-21,.cls-22,.cls-23,.cls-24,.cls-25,.cls-26,.cls-28,.cls-3,.cls-4,.cls-5,.cls-6,.cls-7,.cls-8{stroke-width:.1px}.cls-1,.cls-11,.cls-13,.cls-20,.cls-21,.cls-23,.cls-24,.cls-26,.cls-27,.cls-28,.cls-4,.cls-5,.cls-7{stroke:#194164}.cls-1,.cls-11,.cls-13,.cls-21,.cls-23,.cls-24,.cls-7{stroke-dasharray:0 0 0 0 2.9 1.4 .2 1.4}.cls-2{stroke:#646464}.cls-10,.cls-12,.cls-14,.cls-15,.cls-16,.cls-17,.cls-18,.cls-19,.cls-22,.cls-25,.cls-3,.cls-6,.cls-8{stroke:#c8c8c8}.cls-10,.cls-12,.cls-14,.cls-15,.cls-16,.cls-17,.cls-18,.cls-19,.cls-20,.cls-22,.cls-25,.cls-28,.cls-4,.cls-5,.cls-6,.cls-8{stroke-dasharray:0 0 1.4 1.4}.cls-5{stroke-dashoffset:1px}.cls-29,.cls-30{fill:#fff}.cls-6{stroke-dashoffset:1.3px}.cls-7{stroke-dashoffset:1.4px}.cls-9{stroke:#bbb;stroke-width:.1px}.cls-10{stroke-dashoffset:2.4px}.cls-11{stroke-dashoffset:4.3px}.cls-12{stroke-dashoffset:1.4px}.cls-13,.cls-18{stroke-dashoffset:2.6px}.cls-14{stroke-dashoffset:2.5px}.cls-15,.cls-24{stroke-dashoffset:1.2px}.cls-16,.cls-23,.cls-28{stroke-dashoffset:.7px}.cls-17{stroke-dashoffset:2.8px}.cls-30,.cls-31{fill-rule:evenodd}.cls-19{stroke-dashoffset:2.7px}.cls-20{stroke-dashoffset:.2px}.cls-21{stroke-dashoffset:1.5px}.cls-22{stroke-dashoffset:1.1px}.cls-25{stroke-dashoffset:2.5px}.cls-27{stroke-width:.3px}</style></defs><g id="Plan"><path class="cls-27" d="M158.2 164.2H188v39.6h-29.8z"/><path class="cls-26" d="M189.7 155.1h-35.3M171.4 158.2h14M158.7 161.1h13.9M189.7 212.7h-35.3M171.4 209.8h14M158.7 206.7h13.9"/><path class="cls-30" d="M240.8 205.3l-7.2-7.2v23.7h7.2v-16.5"/><path class="cls-3" d="M241 207l-7.2-7.2M241 211l-7.2-7.2M241 214.9l-7.2-7.2M241 219l-7.2-7.2M239.8 221.8l-6-6M235.8 221.8l-2-1.9M240.1 221.8l.9-.7M236.2 221.8l4.8-4.8M233.8 220.4l7.2-7.2M233.8 216.3l7.2-7.2M233.8 212.2l7-6.9M233.8 208.2l5.1-5.1M233.8 204.3l2.9-3.1M233.8 200.2l1-.9"/><path class="cls-30" d="M240.8 205.3l-7.2-7.2v23.7h7.2v-16.5"/><path class="cls-3" d="M241 207l-7.2-7.2M241 211l-7.2-7.2M241 214.9l-7.2-7.2M241 219l-7.2-7.2M239.8 221.8l-6-6M235.8 221.8l-2-1.9M240.1 221.8l.9-.7M236.2 221.8l4.8-4.8M233.8 220.4l7.2-7.2M233.8 216.3l7.2-7.2M233.8 212.2l7-6.9M233.8 208.2l5.1-5.1M233.8 204.3l2.9-3.1M233.8 200.2l1-.9"/><path class="cls-27" d="M240.8 221.8v-16.5M233.6 214.4v-16.3M233.6 221.8v-.2M233.6 214.4v-16.3M240.8 221.8v-16.5M233.6 221.8v-.2"/><path class="cls-30" d="M240.8 257.6H236l4.8 4.8v-4.8"/><path class="cls-3" d="M241 259l-1.6-1.4M240.3 261.7l.7-.5M238.4 259.8l2.2-2.2M236.2 257.8l.3-.2"/><path class="cls-30" d="M240.8 257.6H236l4.8 4.8v-4.8"/><path class="cls-3" d="M241 259l-1.6-1.4M240.3 261.7l.7-.5M238.4 259.8l2.2-2.2M236.2 257.8l.3-.2"/><path class="cls-27" d="M240.8 262.4v-4.8M240.8 262.4v-4.8"/><path class="cls-26" d="M239.6 255h1.7v2.6h-1.7zM239.6 221.8h1.7v6h-1.7zM239.6 227.8h1.7v27.1h-1.7zM239.6 255v-27.2"/><path class="cls-1" d="M233.6 255.2v-27.6"/><path class="cls-26" d="M233.6 228.1v-.5"/><path class="cls-30" d="M233.6 257.6v-2.4h6v2.4"/><path class="cls-3" d="M239.4 257.6l-2.4-2.4M235.5 257.6l-1.7-1.7M236.5 257.6l2.4-2.4M233.8 256.4l1-1.2"/><path class="cls-30" d="M233.6 221.8v5.8h6v-5.8"/><path class="cls-3" d="M239.8 225.9l-4-4.1M237.4 227.6l-3.6-3.8M238.4 227.6l1.4-1.2M234.3 227.6l5.5-5.3M233.8 224.2l2.4-2.4"/><path class="cls-27" d="M233.6 255.2h6M233.6 227.6h6M233.6 255.2h6M233.6 257.6v-2.4M233.6 227.6h6M233.6 221.8v5.8M240.8 257.6h-1.2M240.8 221.8h-1.2M233.6 257.6v-2.4M233.6 221.8v5.8M239.6 255.2v2.4M239.6 227.6v-5.8"/><path class="cls-26" d="M345 195.2h21.6M345 196.6h21.6M345 195.2h21.6M366.6 196.6v-1.4M345 194.5h21.6M345 196.6h21.6M345 196.6v-1.4M234.1 198.1v-7.5M235.5 198.1v-6.3M234.1 198.1v-7.5M233.4 198.1v-8.2M235.5 198.1v-6.3M302.2 190.6v7.5M300.8 191.8v6.3M302.2 190.6v7.5M303 189.9v8.2M300.8 191.8v6.3M234.1 190.6h68.1M235.5 191.8h65.3M234.1 190.6h68.1M233.4 189.9H303M235.5 191.8h65.3"/><path class="cls-31" d="M273 37.3V22.4h62.4v14.9H273"/><path class="cls-30" d="M273 22.4v3.4h62.4v-3.4H273"/><path class="cls-3" d="M273.2 22.6l2.9 3.2M276.8 22.4l3.4 3.4M280.9 22.4l3.3 3.4M285 22.4l3.3 3.4M288.8 22.4l3.4 3.4M292.9 22.4l3.3 3.4M297 22.4l3.3 3.4M300.8 22.4l3.4 3.4M304.9 22.4l3.3 3.4M309 22.4l3.3 3.4M312.8 22.4l3.4 3.4M316.9 22.4l3.3 3.4M321 22.4l3.3 3.4M325 22.4l3.4 3.4M328.9 22.4l3.3 3.4M333 22.4l2.6 2.6"/><path class="cls-30" d="M273 25.8v.7h62.4v-.7H273M273 26.5V32h62.4v-5.5H273"/><path class="cls-3" d="M335.1 32v-5.5M333.7 32v-5.5M332.2 32v-5.5M330.8 32v-5.5M329.4 32v-5.5M327.9 32v-5.5M326.5 32v-5.5M325.3 32v-5.5M323.8 32v-5.5M322.4 32v-5.5M321 32v-5.5M319.5 32v-5.5M318.1 32v-5.5M316.6 32v-5.5M315.2 32v-5.5M313.8 32v-5.5M312.3 32v-5.5M310.9 32v-5.5M309.7 32v-5.5M308.2 32v-5.5M306.8 32v-5.5M305.4 32v-5.5M303.9 32v-5.5M302.5 32v-5.5M301 32v-5.5M299.6 32v-5.5M298.2 32v-5.5M296.7 32v-5.5M295.3 32v-5.5M294.1 32v-5.5M292.6 32v-5.5M291.2 32v-5.5M289.8 32v-5.5M288.3 32v-5.5M286.9 32v-5.5M285.4 32v-5.5M284 32v-5.5M282.6 32v-5.5M281.1 32v-5.5M279.9 32v-5.5M278.5 32v-5.5M277 32v-5.5M275.6 32v-5.5M274.2 32v-5.5"/><path class="cls-30" d="M273 32v5.3h62.4V32H273"/><path class="cls-3" d="M335.6 33l-1-1M335.6 37l-5-5M331.8 37.3l-5.3-5.3M327.7 37.3l-5.3-5.3M323.8 37.3l-5.2-5.3M319.8 37.3l-5.3-5.3M315.7 37.3l-5.3-5.3M311.8 37.3l-5.2-5.3M307.8 37.3l-5.3-5.3M303.7 37.3l-5.3-5.3M299.8 37.3l-5.2-5.3M295.8 37.3l-5.3-5.3M291.7 37.3l-5.3-5.3M287.6 37.3l-5.3-5.3M283.8 37.3l-5.3-5.3M279.7 37.3l-5.3-5.3M275.6 37.3l-2.4-2.7M332.5 37.3l3.1-2.9M328.6 37.3l5.3-5.3M324.6 37.3l5.2-5.3M320.5 37.3l5.3-5.3M316.4 37.3l5.3-5.3M312.6 37.3l5.2-5.3M308.5 37.3l5.3-5.3M304.4 37.3l5.3-5.3M300.6 37.3l5.2-5.3M296.5 37.3l5.3-5.3M292.4 37.3l5.3-5.3M288.6 37.3l5.2-5.3M284.5 37.3l5.3-5.3M280.4 37.3l5.3-5.3M276.3 37.3l5.3-5.3M273.2 36.6l4.6-4.6M273.2 32.7l.5-.7"/><path class="cls-27" d="M273 25.8h62.4M273 22.4h62.4"/><path class="cls-3" d="M273 32h62.4M273 26.5h62.4"/><path class="cls-27" d="M273 37.3h62.4M273 32h62.4"/><path class="cls-26" d="M273 22.4h62.4M273 37.3h62.4"/><path class="cls-31" d="M190.9 32l6.9 5.3h34.4V22.4h-53.3v14.9h12V32"/><path class="cls-30" d="M178.9 22.4v3.4h53.3v-3.4h-53.3"/><path class="cls-3" d="M179.1 24.8l1 1M180.6 22.4l3.3 3.4M184.6 22.4l3.4 3.4M188.7 22.4l3.4 3.4M192.6 22.4l3.3 3.4M196.6 22.4l3.4 3.4M200.7 22.4l3.4 3.4M204.6 22.4l3.3 3.4M208.6 22.4l3.4 3.4M212.7 22.4l3.4 3.4M216.8 22.4l3.4 3.4M220.6 22.4l3.4 3.4M224.7 22.4l3.4 3.4M228.8 22.4l3.4 3.4"/><path class="cls-30" d="M178.9 25.8v.7h53.3v-.7h-53.3M178.9 26.5V32h53.3v-5.5h-53.3"/><path class="cls-3" d="M231.7 32v-5.5M230.2 32v-5.5M228.8 32v-5.5M227.4 32v-5.5M225.9 32v-5.5M224.5 32v-5.5M223 32v-5.5M221.6 32v-5.5M220.4 32v-5.5M219 32v-5.5M217.5 32v-5.5M216.1 32v-5.5M214.6 32v-5.5M213.2 32v-5.5M211.8 32v-5.5M210.3 32v-5.5M208.9 32v-5.5M207.4 32v-5.5M206 32v-5.5M204.8 32v-5.5M203.4 32v-5.5M201.9 32v-5.5M200.5 32v-5.5M199 32v-5.5M197.6 32v-5.5M196.2 32v-5.5M194.7 32v-5.5M193.3 32v-5.5M191.8 32v-5.5M190.4 32v-5.5M189.2 32v-5.5M187.8 32v-5.5M186.3 32v-5.5M184.9 32v-5.5M183.4 32v-5.5M182 32v-5.5M180.6 32v-5.5M179.1 32v-5.5"/><path class="cls-30" d="M190.9 32l6.9 5.3h34.4V32h-41.3"/><path class="cls-3" d="M232.4 33.9l-2.2-1.9M231.7 37.3l-5.3-5.3M227.6 37.3l-5.3-5.3M223.5 37.3l-5.3-5.3M219.4 37.3l-5.2-5.3M215.6 37.3l-5.3-5.3M211.5 37.3l-5.3-5.3M207.4 37.3l-5.2-5.3M203.6 37.3l-5.3-5.3M199.5 37.3l-5.3-5.3M228.3 37.3l4.1-4.1M224.2 37.3l5.3-5.3M220.4 37.3l5.3-5.3M216.3 37.3l5.3-5.3M212.2 37.3l5.3-5.3M208.2 37.3l5.2-5.3M204.3 37.3l5.3-5.3M200.2 37.3l5.3-5.3M196.9 36.6l4.5-4.6M194.7 34.9l2.9-2.9M192.3 33.2l1.2-1.2"/><path class="cls-30" d="M190.9 37.3V32h-12v5.3h12"/><path class="cls-3" d="M191.1 32.7l-.9-.7M191.1 36.8l-4.8-4.8M187.5 37.3l-5.3-5.3M183.4 37.3l-4.3-4.6M179.4 37.3l-.3-.5M188.2 37.3l2.9-2.9M184.2 37.3l5.2-5.3M180.3 37.3l5.3-5.3M179.1 34.4l2.4-2.4"/><path class="cls-27" d="M178.9 25.8h53.3M178.9 22.4h53.3"/><path class="cls-3" d="M190.9 32h41.3M178.9 32h12M178.9 26.5h53.3"/><path class="cls-27" d="M197.8 37.3h34.4M178.9 37.3h12M190.9 32h41.3M178.9 32h12"/><path class="cls-26" d="M178.9 22.4h53.3M197.8 37.3h34.4M178.9 37.3h12"/><path class="cls-31" d="M95.4 37.3h3.3V32l7.2 5.3h13.7V22.4H95.4v14.9"/><path class="cls-30" d="M95.4 22.4v3.4h24.2v-3.4H95.4"/><path class="cls-3" d="M95.6 25.5l.2.3M96.3 22.4l3.4 3.4M100.4 22.4l3.4 3.4M104.5 22.4l3.3 3.4M108.6 22.4l3.3 3.4M112.4 22.4l3.4 3.4M116.5 22.4l3.3 3.4"/><path class="cls-30" d="M95.4 25.8v.7h24.2v-.7H95.4M95.4 26.5V32h24.2v-5.5H95.4"/><path class="cls-3" d="M119.6 32v-5.5M118.2 32v-5.5M116.7 32v-5.5M115.3 32v-5.5M114.1 32v-5.5M112.6 32v-5.5M111.2 32v-5.5M109.8 32v-5.5M108.3 32v-5.5M106.9 32v-5.5M105.4 32v-5.5M104 32v-5.5M102.6 32v-5.5M101.1 32v-5.5M99.9 32v-5.5M98.5 32v-5.5M97 32v-5.5M95.6 32v-5.5"/><path class="cls-30" d="M95.4 37.3h3.3V32h-3.3v5.3"/><path class="cls-3" d="M99 32.7l-1-.7M99 36.8l-3.4-3.4M96.1 37.3l2.9-2.9M95.6 33.9l1.7-1.9"/><path class="cls-30" d="M119.6 32H98.7l7.2 5.3h13.7V32"/><path class="cls-3" d="M119.8 33.7l-1.6-1.7M119.4 37.3l-5.3-5.3M115.3 37.3L110 32M111.2 37.3l-5.3-5.3M107.4 37.3l-5.3-5.3M116 37.3l3.8-3.6M112.2 37.3l5.2-5.3M108.1 37.3l5.3-5.3M105 36.3l4.3-4.3M102.6 34.6l2.6-2.6M100.2 33l1.2-1"/><path class="cls-27" d="M95.4 25.8h24.2M95.4 22.4h24.2"/><path class="cls-3" d="M98.7 32h20.9M95.4 32h3.3M95.4 26.5h24.2"/><path class="cls-27" d="M105.9 37.3h13.7M95.4 37.3h3.3M98.7 32h20.9M95.4 32h3.3"/><path class="cls-26" d="M95.4 22.4h24.2M105.9 37.3h13.7M95.4 37.3h3.3M233.8 29.8v-7.4h-3.3v-1.9h43.9v1.9H271v7.4"/><path class="cls-1" d="M232.2 37.3H273"/><path class="cls-26" d="M272.5 37.3h.5"/><path class="cls-27" d="M233.8 22.4h-3.3M271 22.4h3.4"/><path class="cls-26" d="M232.2 29.8H273V32h-40.8zM235.8 29.8V32M269.1 29.8V32M232.2 32v-2.2M250.4 32v-2.2M235.8 32v-2.2M254.5 32v-2.2M250.4 32v-2.2M269.1 32v-2.2M254.5 32v-2.2M273 32v-2.2"/><path class="cls-30" d="M232.1 26.4h1.8v3.4h-1.8"/><path class="cls-3" d="M233.1 29.8v-3.3M232.1 26.4h1.8v3.4h-1.8"/><path class="cls-27" d="M232.2 32v5.3"/><path class="cls-30" d="M232.2 22.4h1.6v3.4h-1.6"/><path class="cls-3" d="M232.6 22.4l1.5 1.2"/><path class="cls-27" d="M232.2 22.4h1.6v3.4h-1.6M233.8 25.8v4"/><path class="cls-30" d="M272.9 26.4h-1.8v3.4h1.8"/><path class="cls-3" d="M272.7 29.8v-3.3M271.3 29.8v-3.3M272.9 26.4h-1.8v3.4h1.8"/><path class="cls-27" d="M273 32v5.3"/><path class="cls-30" d="M273 22.4h-2v3.4h2"/><path class="cls-3" d="M271.3 24.8l.9 1M272.7 22.4l.5.2"/><path class="cls-27" d="M273 22.4h-2v3.4h2M271 25.8v4"/><path class="cls-1" d="M120.3 32v5.3"/><path class="cls-26" d="M120.3 36.8v.5"/><path class="cls-1" d="M120.3 37.3h57.9"/><path class="cls-26" d="M177.7 37.3h.5"/><path class="cls-11" d="M178.2 37.3V32"/><path class="cls-26" d="M178.2 32.5V32"/><path class="cls-1" d="M119.6 29.8v-7.4"/><path class="cls-7" d="M119.6 22.4h-3.4"/><path class="cls-26" d="M116.2 21.2v-.7"/><path class="cls-23" d="M116.2 20.5h66"/><path class="cls-26" d="M182.2 20.5v1.9"/><path class="cls-13" d="M182.2 22.4h-3.3"/><path class="cls-1" d="M178.9 22.4v7.4"/><path class="cls-27" d="M119.6 22.4h-3.4M178.9 22.4h3.3"/><path class="cls-26" d="M119.6 29.8h59.3V32h-59.3zM123.4 29.8V32M175.3 29.8V32M119.6 32v-2.2M147.2 32v-2.2M123.4 32v-2.2M151.3 32v-2.2M147.2 32v-2.2M175.3 32v-2.2M151.3 32v-2.2M178.9 32v-2.2"/><path class="cls-27" d="M119.6 22.4v3.4M119.6 25.8v4"/><path class="cls-30" d="M119.6 37.3h.7V32h-.7"/><path class="cls-3" d="M120.6 34.4l-.8-.7M120.1 37.3l.5-.3M119.8 33.7l.8-.7"/><path class="cls-27" d="M119.6 37.3h.7V32h-.7M178.9 22.4v3.4M178.9 25.8v4"/><path class="cls-30" d="M178.9 37.3h-.7V32h.7"/><path class="cls-3" d="M179.1 32.7l-.7-.7M179.1 36.8l-.7-.7M178.4 35.1l.7-.7"/><path class="cls-27" d="M178.9 37.3h-.7V32h.7"/><path class="cls-31" d="M567.7 37.3V22.4h58.5l-14.8 14.9h-43.7"/><path class="cls-30" d="M567.7 22.4v3.4h55.2l3.3-3.4h-58.5"/><path class="cls-3" d="M567.9 24.8l1 1M569.4 22.4l3.3 3.4M573.4 22.4l3.4 3.4M577.5 22.4l3.4 3.4M581.6 22.4l3.4 3.4M585.4 22.4l3.4 3.4M589.5 22.4l3.4 3.4M593.6 22.4l3.4 3.4M597.4 22.4l3.4 3.4M601.5 22.4l3.4 3.4M605.6 22.4l3.4 3.4M609.4 22.4l3.4 3.4M613.5 22.4l3.4 3.4M617.6 22.4l3.4 3.4M621.7 22.4l2.4 2.4M625.5 22.4l.5.5"/><path class="cls-30" d="M567.7 25.8v.7h54.5l.7-.7h-55.2M567.7 26.5V32h48.7l5.8-5.5h-54.5"/><path class="cls-3" d="M621.4 27.4v-.9M620 28.6v-2.1M618.6 30.1v-3.6M617.1 31.5v-5M615.7 32v-5.5M614.2 32v-5.5M612.8 32v-5.5M611.4 32v-5.5M610.2 32v-5.5M608.7 32v-5.5M607.3 32v-5.5M605.8 32v-5.5M604.4 32v-5.5M603 32v-5.5M601.5 32v-5.5M600.1 32v-5.5M598.6 32v-5.5M597.2 32v-5.5M595.8 32v-5.5M594.6 32v-5.5M593.1 32v-5.5M591.7 32v-5.5M590.2 32v-5.5M588.8 32v-5.5M587.4 32v-5.5M585.9 32v-5.5M584.5 32v-5.5M583 32v-5.5M581.6 32v-5.5M580.4 32v-5.5M579 32v-5.5M577.5 32v-5.5M576.1 32v-5.5M574.6 32v-5.5M573.2 32v-5.5M571.8 32v-5.5M570.3 32v-5.5M568.9 32v-5.5"/><path class="cls-30" d="M567.7 32v5.3h43.7l5-5.3h-48.7"/><path class="cls-3" d="M567.9 36.8l.5.5M567.9 32.7l4.3 4.6M571 32l5.3 5.3M575.1 32l5.3 5.3M579 32l5.2 5.3M583 32l5.3 5.3M587.1 32l5.3 5.3M591.2 32l5.3 5.3M595 32l5.3 5.3M599.1 32l5.3 5.3M603.2 32l5.3 5.3M607 32l4.8 4.8M611.1 32l2.9 2.6M615.2 32l.7.7"/><path class="cls-27" d="M567.7 25.8h55.2M567.7 22.4h58.5"/><path class="cls-3" d="M567.7 32h48.7M567.7 26.5h54.5"/><path class="cls-27" d="M567.7 37.3h43.7M567.7 32h48.7"/><path class="cls-26" d="M567.7 22.4h58.5M567.7 37.3h43.7"/><path class="cls-31" d="M471.9 37.3V22.4h55v14.9h-55"/><path class="cls-30" d="M471.9 22.4v3.4h55v-3.4h-55"/><path class="cls-3" d="M472.2 25.3l.4.5M473.4 22.4l3.3 3.4M477.2 22.4l3.4 3.4M481.3 22.4l3.3 3.4M485.4 22.4l3.3 3.4M489.2 22.4l3.4 3.4M493.3 22.4l3.3 3.4M497.4 22.4l3.3 3.4M501.2 22.4l3.4 3.4M505.3 22.4l3.3 3.4M509.4 22.4l3.3 3.4M513.4 22.4l3.4 3.4M517.3 22.4l3.3 3.4M521.4 22.4l3.3 3.4M525.4 22.4l1.7 1.7"/><path class="cls-30" d="M471.9 25.8v.7h55v-.7h-55M471.9 26.5V32h55v-5.5h-55"/><path class="cls-3" d="M526.4 32v-5.5M525 32v-5.5M523.5 32v-5.5M522.1 32v-5.5M520.6 32v-5.5M519.4 32v-5.5M518 32v-5.5M516.6 32v-5.5M515.1 32v-5.5M513.7 32v-5.5M512.2 32v-5.5M510.8 32v-5.5M509.4 32v-5.5M507.9 32v-5.5M506.5 32v-5.5M505.3 32v-5.5M503.8 32v-5.5M502.4 32v-5.5M501 32v-5.5M499.5 32v-5.5M498.1 32v-5.5M496.6 32v-5.5M495.2 32v-5.5M493.8 32v-5.5M492.3 32v-5.5M490.9 32v-5.5M489.7 32v-5.5M488.2 32v-5.5M486.8 32v-5.5M485.4 32v-5.5M483.9 32v-5.5M482.5 32v-5.5M481 32v-5.5M479.6 32v-5.5M478.2 32v-5.5M476.7 32v-5.5M475.3 32v-5.5M474.1 32v-5.5M472.6 32v-5.5"/><path class="cls-30" d="M471.9 32v5.3h55V32h-55"/><path class="cls-3" d="M472.2 33.2l3.8 4.1M474.8 32l5.3 5.3M478.9 32l5.3 5.3M483 32l5.2 5.3M486.8 32l5.3 5.3M490.9 32l5.3 5.3M495 32l5.2 5.3M498.8 32l5.3 5.3M502.9 32l5.3 5.3M507 32l5.2 5.3M510.8 32l5.3 5.3M514.9 32l5.3 5.3M519 32l5.2 5.3M523 32l4.1 4.1M526.9 32h.2"/><path class="cls-27" d="M471.9 25.8h55M471.9 22.4h55"/><path class="cls-3" d="M471.9 32h55M471.9 26.5h55"/><path class="cls-27" d="M471.9 37.3h55M471.9 32h55"/><path class="cls-26" d="M471.9 22.4h55M471.9 37.3h55"/><path class="cls-31" d="M376.2 37.3V22.4h54.9v14.9h-54.9"/><path class="cls-30" d="M376.2 22.4v3.4h54.9v-3.4h-54.9"/><path class="cls-3" d="M377.1 22.4l3.4 3.4M381 22.4l3.3 3.4M385 22.4l3.4 3.4M389.1 22.4l3.4 3.4M393.2 22.4l3.4 3.4M397 22.4l3.4 3.4M401.1 22.4l3.4 3.4M405.2 22.4l3.4 3.4M409 22.4l3.4 3.4M413.1 22.4l3.4 3.4M417.2 22.4l3.4 3.4M421 22.4l3.4 3.4M425.1 22.4l3.4 3.4M429.2 22.4l2.2 2.2"/><path class="cls-30" d="M376.2 25.8v.7h54.9v-.7h-54.9M376.2 26.5V32h54.9v-5.5h-54.9"/><path class="cls-3" d="M430.2 32v-5.5M428.7 32v-5.5M427.3 32v-5.5M425.8 32v-5.5M424.4 32v-5.5M423 32v-5.5M421.5 32v-5.5M420.1 32v-5.5M418.6 32v-5.5M417.2 32v-5.5M415.8 32v-5.5M414.6 32v-5.5M413.1 32v-5.5M411.7 32v-5.5M410.2 32v-5.5M408.8 32v-5.5M407.4 32v-5.5M405.9 32v-5.5M404.5 32v-5.5M403 32v-5.5M401.6 32v-5.5M400.4 32v-5.5M399 32v-5.5M397.5 32v-5.5M396.1 32v-5.5M394.6 32v-5.5M393.2 32v-5.5M391.8 32v-5.5M390.3 32v-5.5M388.9 32v-5.5M387.4 32v-5.5M386 32v-5.5M384.8 32v-5.5M383.4 32v-5.5M381.9 32v-5.5M380.5 32v-5.5M379 32v-5.5M377.6 32v-5.5"/><path class="cls-30" d="M376.2 32v5.3h54.9V32h-54.9"/><path class="cls-3" d="M376.4 33.7l3.6 3.6M378.6 32l5.2 5.3M382.6 32l5.3 5.3M386.7 32l5.3 5.3M390.6 32l5.2 5.3M394.6 32l5.3 5.3M398.7 32l5.3 5.3M402.8 32l5.3 5.3M406.6 32l5.3 5.3M410.7 32l5.3 5.3M414.8 32l5.3 5.3M418.6 32l5.3 5.3M422.7 32l5.3 5.3M426.8 32l4.6 4.6M430.6 32l.8.5"/><path class="cls-27" d="M376.2 25.8h54.9M376.2 22.4h54.9"/><path class="cls-3" d="M376.2 32h54.9M376.2 26.5h54.9"/><path class="cls-27" d="M376.2 37.3h54.9M376.2 32h54.9"/><path class="cls-26" d="M376.2 22.4h54.9M376.2 37.3h54.9M528.8 29.8v-7.4h-3.4v-1.9h44v1.9h-3.6v7.4"/><path class="cls-1" d="M526.9 37.3h40.8"/><path class="cls-26" d="M567.2 37.3h.5"/><path class="cls-27" d="M528.8 22.4h-3.4M565.8 22.4h3.6"/><path class="cls-26" d="M526.9 29.8h40.8V32h-40.8zM530.5 29.8V32M564.1 29.8V32M526.9 32v-2.2M545.4 32v-2.2M530.5 32v-2.2M549.4 32v-2.2M545.4 32v-2.2M564.1 32v-2.2M549.4 32v-2.2M567.7 32v-2.2"/><path class="cls-30" d="M526.9 26.4h1.8v3.4h-1.8"/><path class="cls-3" d="M527.8 29.8v-3.3M526.9 26.4h1.8v3.4h-1.8"/><path class="cls-27" d="M526.9 32v5.3"/><path class="cls-30" d="M526.9 22.4h1.9v3.4h-1.9"/><path class="cls-3" d="M527.1 24.1l1.7 1.7"/><path class="cls-27" d="M526.9 22.4h1.9v3.4h-1.9M528.8 25.8v4"/><path class="cls-30" d="M567.7 26.4h-1.8v3.4h1.8"/><path class="cls-3" d="M567.4 29.8v-3.3M566 29.8v-3.3M567.7 26.4h-1.8v3.4h1.8"/><path class="cls-27" d="M567.7 32v5.3"/><path class="cls-30" d="M567.7 22.4h-1.9v3.4h1.9"/><path class="cls-3" d="M566 22.9l1.9 1.9"/><path class="cls-27" d="M567.7 22.4h-1.9v3.4h1.9M565.8 25.8v4"/><path class="cls-26" d="M433 29.8v-7.4h-3.6v-1.9h44v1.9H470v7.4"/><path class="cls-1" d="M431.1 37.3h40.8"/><path class="cls-26" d="M471.4 37.3h.5"/><path class="cls-27" d="M433 22.4h-3.6M470 22.4h3.4"/><path class="cls-26" d="M431.1 29.8h40.8V32h-40.8zM434.7 29.8V32M468.3 29.8V32M431.1 32v-2.2M449.4 32v-2.2M434.7 32v-2.2M453.4 32v-2.2M449.4 32v-2.2M468.3 32v-2.2M453.4 32v-2.2M471.9 32v-2.2"/><path class="cls-30" d="M431.1 26.4h1.8v3.4h-1.8"/><path class="cls-3" d="M432.8 29.8v-3.3M431.4 29.8v-3.3M431.1 26.4h1.8v3.4h-1.8"/><path class="cls-27" d="M431.1 32v5.3"/><path class="cls-30" d="M431.1 22.4h1.9v3.4h-1.9"/><path class="cls-3" d="M431.4 24.6l1.2 1.2"/><path class="cls-27" d="M431.1 22.4h1.9v3.4h-1.9M433 25.8v4"/><path class="cls-30" d="M471.9 26.4h-1.8v3.4h1.8"/><path class="cls-3" d="M471.2 29.8v-3.3M471.9 26.4h-1.8v3.4h1.8"/><path class="cls-27" d="M471.9 32v5.3"/><path class="cls-30" d="M471.9 22.4H470v3.4h1.9"/><path class="cls-3" d="M470.2 23.4l2 1.9"/><path class="cls-27" d="M471.9 22.4H470v3.4h1.9M470 25.8v4"/><path class="cls-26" d="M337 29.8v-7.4h-3.3v-1.9h43.9v1.9h-3.4v7.4"/><path class="cls-1" d="M335.4 37.3h40.8"/><path class="cls-26" d="M375.7 37.3h.5"/><path class="cls-27" d="M337 22.4h-3.3M374.2 22.4h3.4"/><path class="cls-26" d="M335.4 29.8h40.8V32h-40.8zM339 29.8V32M372.3 29.8V32M335.4 32v-2.2M353.6 32v-2.2M339 32v-2.2M357.7 32v-2.2M353.6 32v-2.2M372.3 32v-2.2M357.7 32v-2.2M376.2 32v-2.2"/><path class="cls-30" d="M335.3 26.4h1.8v3.4h-1.8"/><path class="cls-3" d="M336.6 29.8v-3.3M335.3 26.4h1.8v3.4h-1.8"/><path class="cls-27" d="M335.4 32v5.3"/><path class="cls-30" d="M335.4 22.4h1.6v3.4h-1.6"/><path class="cls-3" d="M335.6 25l.7.8M337 22.4l.3.2"/><path class="cls-27" d="M335.4 22.4h1.6v3.4h-1.6M337 25.8v4"/><path class="cls-30" d="M376.1 26.4h-1.9v3.4h1.9"/><path class="cls-3" d="M376.2 29.8v-3.3M374.7 29.8v-3.3M376.1 26.4h-1.9v3.4h1.9"/><path class="cls-27" d="M376.2 32v5.3"/><path class="cls-30" d="M376.2 22.4h-2v3.4h2"/><path class="cls-3" d="M374.5 23.8l1.9 2"/><path class="cls-27" d="M376.2 22.4h-2v3.4h2M374.2 25.8v4"/><path class="cls-31" d="M611.4 37.3l14.8-14.9.5 14.9h-15.3"/><path class="cls-30" d="M626.2 22.4l-3.3 3.4.2 11.5h3.6l-.5-14.9"/><path class="cls-3" d="M623.1 36.1l1.2 1.2M623.1 32l3.6 3.6M623.1 27.9l3.6 3.6M624.1 24.8l2.4 2.6M626 22.9l.5.2"/><path class="cls-30" d="M622.9 25.8l-.5.4.2 11.1h.5l-.2-11.5"/><path class="cls-30" d="M622.4 26.2l-5.5 5.6v5.5h5.7l-.2-11.1"/><path class="cls-3" d="M617.1 36.3l5.5-.2M617.1 34.9l5.5-.3M617.1 33.4h5.5M617.1 32h5.5M618.1 30.6h4.5M619.5 29.1h3.1M621 27.7h1.6M622.4 26.2h.2"/><path class="cls-30" d="M616.9 31.8l-5.5 5.5h5.5v-5.5"/><path class="cls-3" d="M617.1 33.9l-1.2-1.2M616.4 37.3l-2.4-2.4M612.3 37.3l-.5-.5M613.3 37.3l3.8-3.9"/><path class="cls-27" d="M622.9 25.8l.2 11.5M626.2 22.4l.5 14.9"/><path class="cls-3" d="M616.9 31.8v5.5M622.4 26.2l.2 11.1"/><path class="cls-27" d="M616.9 31.8v5.5"/><path class="cls-26" d="M626.2 22.4l.5 14.9"/><path class="cls-31" d="M615.7 205.5l5.7 7.2h9.6l-.4-22.5-15.4.2.5 15.1"/><path class="cls-30" d="M630.6 190.2h-3.4l.5 22.5h3.3l-.4-22.5"/><path class="cls-3" d="M627.7 208.9l3.3 3.6M627.7 204.8l3.3 3.4M627.4 200.7l3.6 3.4M627.4 196.6l3.4 3.4M627.4 192.6l3.4 3.3M628.9 190.2l1.9 1.6"/><path class="cls-30" d="M627.2 190.2h-.7l.7 22.5h.5l-.5-22.5M626.5 190.2l-5.5.2.4 22.3h5.8l-.7-22.5"/><path class="cls-3" d="M621.4 212l5.8-.2M621.4 210.6h5.8M621.4 209.1h5.8M621.4 207.7h5.8M621.4 206.2h5.8M621.4 205l5.6-.2M621.4 203.6l5.6-.2M621.4 202.2l5.6-.3M621.2 200.7l5.8-.2M621.2 199.3l5.8-.3M621.2 197.8l5.8-.2M621.2 196.4l5.5-.2M621.2 195h5.5M621.2 193.5h5.5M621.2 192.1h5.5M621.2 190.6h5.5"/><path class="cls-30" d="M615.7 205.5l5.7 7.2-.4-22.3h-5.8l.5 15.1"/><path class="cls-3" d="M621.2 194.5l-4.1-4.1M621.2 198.6l-5.8-6M621.4 202.6l-6-6M621.4 206.7l-5.7-5.7M621.4 210.8l-5.7-5.8M620 210.8l1.4-1.4M618.3 208.6l3.1-3.1M616.4 206.2l4.8-4.8M615.7 203.1l5.5-5.5M615.7 199.3l5.5-5.5M615.4 195.2l5.1-4.8M615.4 191.4l1-1"/><path class="cls-27" d="M627.2 190.2l.5 22.5M630.6 190.2l.4 22.5"/><path class="cls-3" d="M621 190.4l.4 22.3M626.5 190.2l.7 22.5"/><path class="cls-27" d="M615.2 190.4l.5 15.1M621 190.4l.4 22.3"/><path class="cls-26" d="M630.6 190.2l.4 22.5M615.2 190.4l.5 15.1"/><path class="cls-31" d="M613.3 113.1l15.3-.5.8 36.5-15.2.5-.9-36.5"/><path class="cls-30" d="M628.6 112.6l-3.6.3 1 36.5 3.4-.3-.8-36.5"/><path class="cls-3" d="M626 147.2l2.2 1.9M626 143.1l3.4 3.4M625.8 138.8l3.6 3.6M625.8 134.7l3.6 3.6M625.5 130.6l3.6 3.6M625.5 126.6l3.6 3.6M625.5 122.5l3.6 3.6M625.3 118.4l3.6 3.6M625.3 114.3l3.6 3.6M627.7 112.6l1.2 1.2"/><path class="cls-30" d="M625 112.9h-.4l.9 36.5h.5l-1-36.5"/><path class="cls-30" d="M624.6 112.9h-5.8l1 36.7 5.7-.2-.9-36.5"/><path class="cls-3" d="M619.8 148.2h5.7M619.8 146.7h5.7M619.8 145.5l5.7-.2M619.8 144.1l5.7-.3M619.8 142.6l5.7-.2M619.8 141.2l5.7-.2M619.5 139.8l5.8-.3M619.5 138.3l5.8-.2M619.5 136.9h5.8M619.5 135.4h5.8M619.5 134h5.8M619.5 132.6h5.8M619.5 131.4l5.5-.3M619.3 129.9l5.7-.2M619.3 128.5l5.7-.3M619.3 127l5.7-.2M619.3 125.6l5.7-.2M619.3 124.2l5.7-.3M619.3 122.7h5.7M619 121.3h5.8M619 119.8h5.8M619 118.4h5.8M619 117h5.8M619 115.8l5.8-.3M619 114.3l5.8-.2"/><path class="cls-30" d="M618.8 112.9l-5.5.2.9 36.5h5.6l-1-36.7"/><path class="cls-3" d="M619 116l-3.1-2.9M619 120.1l-5.5-5.5M619.3 124.2l-5.8-5.6M619.3 128.5l-5.5-5.8M619.5 132.6l-5.7-5.8M619.5 136.6l-5.7-5.7M619.8 140.7L614 135M619.8 144.8l-5.8-5.5M619.8 148.9l-5.6-5.5M616.4 149.6l-2.2-2.2M617.1 149.6l2.7-2.6M614.2 148.4l5.6-5.5M614.2 144.6l5.3-5.6M614.2 140.5l5.3-5.3M614 136.6l5.5-5.2M614 132.8l5.3-5.5M613.8 128.7l5.5-5.3M613.8 124.9l5.2-5.3M613.5 121l5.5-5.5M613.5 117.2l4.1-4.3M613.5 113.1"/><path class="cls-27" d="M625 112.9l1 36.5M628.6 112.6l.8 36.5"/><path class="cls-3" d="M618.8 112.9l1 36.7M624.6 112.9l.9 36.5"/><path class="cls-27" d="M613.3 113.1l.9 36.5M618.8 112.9l1 36.7"/><path class="cls-26" d="M628.6 112.6l.8 36.5M613.5 128l.7 21.6M613.3 113.1l.2 9.1"/><path class="cls-31" d="M611.4 37.3h15.3l.3 12.5-15.4.4-.2-12.9"/><path class="cls-30" d="M626.7 37.3h-3.6l.5 12.5h3.4l-.3-12.5"/><path class="cls-3" d="M623.6 48.6l1.2 1.2M623.6 44.5l3.4 3.3M623.4 40.2l3.6 3.6M624.3 37.3l2.7 2.4"/><path class="cls-30" d="M623.1 37.3h-.5l.3 12.5h.7l-.5-12.5"/><path class="cls-30" d="M622.6 37.3h-5.7l.5 12.7 5.5-.2-.3-12.5"/><path class="cls-3" d="M617.4 49h5.5M617.4 47.6h5.5M617.4 46.2h5.5M617.4 44.7h5.5M617.1 43.5l5.8-.2M617.1 42.1l5.8-.3M617.1 40.6l5.8-.2M617.1 39.2l5.8-.2M617.1 37.8l5.8-.3"/><path class="cls-30" d="M616.9 37.3h-5.5l.2 12.9 5.8-.2-.5-12.7"/><path class="cls-3" d="M617.1 38l-.7-.7M617.1 42.1l-4.8-4.8M617.4 46.2l-5.8-5.8M617.1 50l-5.5-5.5M613.3 50.2l-1.7-1.6M616.4 50l1-1M612.3 50.2l5.1-5M611.6 46.9l5.5-5.5M611.6 42.8l5.5-5.3M611.6 39l1.7-1.7"/><path class="cls-27" d="M623.1 37.3l.5 12.5M626.7 37.3l.3 12.5"/><path class="cls-3" d="M616.9 37.3l.5 12.7M622.6 37.3l.3 12.5"/><path class="cls-27" d="M611.4 37.3l.2 12.9M616.9 37.3l.5 12.7"/><path class="cls-26" d="M626.7 37.3l.3 12.5M611.4 37.3l.2 12.9M622.2 151.3l7.4-.3-.2-3.3h1.9l1.2 43.9h-1.9v-3.4l-7.5.3"/><path class="cls-1" d="M614.2 149.6l1 40.8"/><path class="cls-26" d="M615.2 189.9v.5"/><path class="cls-27" d="M629.6 151l-.2-3.3M630.6 188.2v3.4"/><path class="cls-26" d="M622.2 149.4l.9 40.8-2.1.2-1.2-40.8 2.4-.2zM622.2 153.2H620M623.1 186.6h-2.4M619.8 149.6l2.4-.2M620.2 167.8h2.4M620 153.2h2.2M620.5 171.9h2.1M620.2 167.8h2.4M620.7 186.6h2.4M620.5 171.9h2.1M621 190.4l2.1-.2"/><path class="cls-27" d="M619.8 149.6h-5.6"/><path class="cls-30" d="M625.5 149.3v1.9l-3.4.1v-1.9"/><path class="cls-3" d="M622.4 151h3.4M622.4 149.6h3.4M625.5 149.3v1.9l-3.4.1v-1.9"/><path class="cls-30" d="M629.4 149.1l.2 1.9-3.6.3v-1.9"/><path class="cls-3" d="M628.2 149.1l1.4 1.7"/><path class="cls-27" d="M629.4 149.1l.2 1.9-3.6.3v-1.9M626 151.3h-3.8M621 190.4h-5.8"/><path class="cls-30" d="M626.5 190.1v-1.8l-3.4.1v1.8"/><path class="cls-3" d="M623.4 189.2h3.3M626.5 190.1v-1.8l-3.4.1v1.8"/><path class="cls-30" d="M630.6 190.2v-2H627l.2 2"/><path class="cls-3" d="M627.2 188.2l1.7 2"/><path class="cls-27" d="M630.6 190.2v-2H627l.2 2M627 188.2l-3.9.3"/><path class="cls-26" d="M619.5 51.9l7.5-.2v-3.4l1.6-.2 1.7 66-1.7.2-.2-3.3h-7.2"/><path class="cls-1" d="M611.6 50.2l1.7 62.9"/><path class="cls-27" d="M627 51.7v-3.4M628.4 111l.2 3.3"/><path class="cls-26" d="M619.5 50l1.7 62.9h-2.4L617.4 50h2.1zM619.8 53.6h-2.4M621 109.3h-2.2M617.4 50h2.1M617.8 69h2.2M617.4 53.6h2.4M617.8 73h2.4M617.8 69h2.2M618.3 89.8h2.2M617.8 73h2.4M618.3 93.9h2.4M618.3 89.8h2.2M618.8 109.3h2.2M618.3 93.9h2.4M618.8 112.9h2.4"/><path class="cls-27" d="M617.4 50l-5.8.2"/><path class="cls-30" d="M623 49.9v1.8l-3.4.1V50"/><path class="cls-3" d="M619.8 51.9h1.6M619.8 50.5l3.3-.3M623 49.9v1.8l-3.4.1V50"/><path class="cls-30" d="M627 49.8v1.9h-3.4v-1.9"/><path class="cls-3" d="M624.8 49.8l1.9 1.9"/><path class="cls-27" d="M627 49.8v1.9h-3.4v-1.9M623.6 51.7l-4.1.2M618.8 112.9l-5.5.2"/><path class="cls-30" d="M624.6 112.8l-.1-1.9-3.4.1.1 1.9"/><path class="cls-3" d="M621.4 112.9l3.4-.3M621.4 111.4l3.4-.2M624.6 112.8l-.1-1.9-3.4.1.1 1.9"/><path class="cls-30" d="M628.6 112.6l-.2-1.6H625v1.9"/><path class="cls-3" d="M626 111l1.7 1.6"/><path class="cls-27" d="M628.6 112.6l-.2-1.6H625v1.9M625 111h-3.8"/><path class="cls-26" d="M7.8 193h34M7.8 200.7h34M7.8 208.4h34M7.8 216.1h34M139.8 216.1h-33.9M139.8 208.4h-33.9M139.8 200.7h-33.9M66.1 153.9l-7.9 35.3M41.8 187.8h64.1v33.6H41.8zM46.9 187.8v-33.9M54.6 187.8v-33.9M62.2 187.8v-33.9M69.9 187.8v-33.9M77.6 187.8v-33.9M85.3 187.8v-33.9M93 187.8v-33.9M100.6 187.8v-33.9"/><path class="cls-26" d="M43.3 189.2h61.2v30.7H43.3z"/><path class="cls-1" d="M105.9 153.9h33.9"/><path class="cls-26" d="M139.3 153.9h.5"/><path class="cls-1" d="M105.9 146.7h33.9"/><path class="cls-26" d="M139.3 146.7h.5M24.7 193.1l3.9 3.8M20.9 196.9l3.8-3.8M28.6 196.9H21M122.9 216l3.8-3.8M119 212.2l3.9 3.8M126.8 212.2h-7.7M100.6 170.8l-3.9 3.8M96.7 167l3.9 3.8M96.8 174.6v-7.7M62.3 170.8l-3.8 3.8M58.5 167l3.8 3.8M58.4 174.6v-7.7"/><path class="cls-30" d="M240.8 262.4l-7.2-7.2H7.8l-7.2 7.2h240.2"/><path class="cls-3" d="M240.3 262.4l-7.2-7.2M236.2 262.4l-7.2-7.2M232.2 262.4l-7.2-7.2M228.1 262.4l-7.2-7.2M224.2 262.4l-7.2-7.2M220.2 262.4l-7.2-7.2M216.1 262.4l-7.2-7.2M212.2 262.4l-7.2-7.2M208.2 262.4l-7.2-7.2M204.1 262.4l-7.2-7.2M200.2 262.4l-7.2-7.2M196.2 262.4l-7.2-7.2M192.1 262.4l-7.2-7.2M188 262.4l-7.2-7.2M184.2 262.4l-7.2-7.2M180.1 262.4l-7.2-7.2M176 262.4l-7.2-7.2M172.2 262.4l-7.2-7.2M168.1 262.4l-7.2-7.2M164 262.4l-7.2-7.2M160.2 262.4l-7.2-7.2M156.1 262.4l-7.2-7.2M152 262.4l-7.2-7.2M147.9 262.4l-7.2-7.2M144.1 262.4l-7.2-7.2M140 262.4l-7.2-7.2M135.9 262.4l-7.2-7.2M132.1 262.4l-7.2-7.2M128 262.4l-7.2-7.2M123.9 262.4l-7.2-7.2M119.8 262.4l-7.2-7.2M116 262.4l-7.2-7.2M111.9 262.4l-7.2-7.2M107.8 262.4l-7.2-7.2M104 262.4l-7.2-7.2M99.9 262.4l-7.2-7.2M95.8 262.4l-7.2-7.2M92 262.4l-7.2-7.2M87.9 262.4l-7.2-7.2M83.8 262.4l-7.2-7.2M79.8 262.4l-7.2-7.2M75.9 262.4l-7.2-7.2M71.8 262.4l-7.2-7.2M67.8 262.4l-7.2-7.2M63.9 262.4l-7.2-7.2M59.8 262.4l-7.2-7.2M55.8 262.4l-7.2-7.2M51.9 262.4l-7.2-7.2M47.8 262.4l-7.2-7.2M43.8 262.4l-7.2-7.2M39.7 262.4l-7.2-7.2M35.8 262.4l-7.2-7.2M31.8 262.4l-7.2-7.2M27.7 262.4l-7.2-7.2M23.8 262.4l-7.2-7.2M19.8 262.4l-7.2-7.2M15.7 262.4l-7.2-7.2M11.6 262.4l-5.5-5.5M7.8 262.4l-3.6-3.6M3.7 262.4L2.2 261M239.6 262.4l.7-.7M235.8 262.4l2.6-2.6M231.7 262.4l4.5-4.6M227.6 262.4l6.7-6.7M223.8 262.4l7.2-7.2M219.7 262.4l7.2-7.2M215.6 262.4l7.2-7.2M211.8 262.4l7.2-7.2M207.7 262.4l7.2-7.2M203.6 262.4l7.2-7.2M199.5 262.4l7.2-7.2M195.7 262.4l7.2-7.2M191.6 262.4l7.2-7.2M187.5 262.4l7.2-7.2M183.7 262.4l7.2-7.2M179.6 262.4l7.2-7.2M175.5 262.4l7.2-7.2M171.7 262.4l7.2-7.2M167.6 262.4l7.2-7.2M163.5 262.4l7.2-7.2M159.4 262.4l7.2-7.2M155.6 262.4l7.2-7.2M151.5 262.4l7.2-7.2M147.4 262.4l7.2-7.2M143.6 262.4l7.2-7.2M139.5 262.4l7.2-7.2M135.4 262.4l7.2-7.2M131.6 262.4l7.2-7.2M127.5 262.4l7.2-7.2M123.4 262.4l7.2-7.2M119.4 262.4l7.2-7.2M115.5 262.4l7.2-7.2M111.4 262.4l7.2-7.2M107.4 262.4l7.2-7.2M103.5 262.4l7.2-7.2M99.4 262.4l7.2-7.2M95.4 262.4l7.2-7.2M91.3 262.4l7.2-7.2M87.4 262.4l7.2-7.2M83.4 262.4l7.2-7.2M79.3 262.4l7.2-7.2M75.4 262.4l7.2-7.2M71.4 262.4l7.2-7.2M67.3 262.4l7.2-7.2M63.4 262.4l7.2-7.2M59.4 262.4l7.2-7.2M55.3 262.4l7.2-7.2M51.2 262.4l7.2-7.2M47.4 262.4l7.2-7.2M43.3 262.4l7.2-7.2M39.2 262.4l7.2-7.2M35.4 262.4l7.2-7.2M31.3 262.4l7.2-7.2M27.2 262.4l7.2-7.2M23.4 262.4l7.2-7.2M19.3 262.4l7.2-7.2M15.2 262.4l7.2-7.2M11.1 262.4l7.2-7.2M7.3 262.4l7.2-7.2M3.2 262.4l7.2-7.2"/><path class="cls-30" d="M240.8 262.4l-7.2-7.2H7.8l-7.2 7.2h240.2"/><path class="cls-3" d="M240.3 262.4l-7.2-7.2M236.2 262.4l-7.2-7.2M232.2 262.4l-7.2-7.2M228.1 262.4l-7.2-7.2M224.2 262.4l-7.2-7.2M220.2 262.4l-7.2-7.2M216.1 262.4l-7.2-7.2M212.2 262.4l-7.2-7.2M208.2 262.4l-7.2-7.2M204.1 262.4l-7.2-7.2M200.2 262.4l-7.2-7.2M196.2 262.4l-7.2-7.2M192.1 262.4l-7.2-7.2M188 262.4l-7.2-7.2M184.2 262.4l-7.2-7.2M180.1 262.4l-7.2-7.2M176 262.4l-7.2-7.2M172.2 262.4l-7.2-7.2M168.1 262.4l-7.2-7.2M164 262.4l-7.2-7.2M160.2 262.4l-7.2-7.2M156.1 262.4l-7.2-7.2M152 262.4l-7.2-7.2M147.9 262.4l-7.2-7.2M144.1 262.4l-7.2-7.2M140 262.4l-7.2-7.2M135.9 262.4l-7.2-7.2M132.1 262.4l-7.2-7.2M128 262.4l-7.2-7.2M123.9 262.4l-7.2-7.2M119.8 262.4l-7.2-7.2M116 262.4l-7.2-7.2M111.9 262.4l-7.2-7.2M107.8 262.4l-7.2-7.2M104 262.4l-7.2-7.2M99.9 262.4l-7.2-7.2M95.8 262.4l-7.2-7.2M92 262.4l-7.2-7.2M87.9 262.4l-7.2-7.2M83.8 262.4l-7.2-7.2M79.8 262.4l-7.2-7.2M75.9 262.4l-7.2-7.2M71.8 262.4l-7.2-7.2M67.8 262.4l-7.2-7.2M63.9 262.4l-7.2-7.2M59.8 262.4l-7.2-7.2M55.8 262.4l-7.2-7.2M51.9 262.4l-7.2-7.2M47.8 262.4l-7.2-7.2M43.8 262.4l-7.2-7.2M39.7 262.4l-7.2-7.2M35.8 262.4l-7.2-7.2M31.8 262.4l-7.2-7.2M27.7 262.4l-7.2-7.2M23.8 262.4l-7.2-7.2M19.8 262.4l-7.2-7.2M15.7 262.4l-7.2-7.2M11.6 262.4l-5.5-5.5M7.8 262.4l-3.6-3.6M3.7 262.4L2.2 261M239.6 262.4l.7-.7M235.8 262.4l2.6-2.6M231.7 262.4l4.5-4.6M227.6 262.4l6.7-6.7M223.8 262.4l7.2-7.2M219.7 262.4l7.2-7.2M215.6 262.4l7.2-7.2M211.8 262.4l7.2-7.2M207.7 262.4l7.2-7.2M203.6 262.4l7.2-7.2M199.5 262.4l7.2-7.2M195.7 262.4l7.2-7.2M191.6 262.4l7.2-7.2M187.5 262.4l7.2-7.2M183.7 262.4l7.2-7.2M179.6 262.4l7.2-7.2M175.5 262.4l7.2-7.2M171.7 262.4l7.2-7.2M167.6 262.4l7.2-7.2M163.5 262.4l7.2-7.2M159.4 262.4l7.2-7.2M155.6 262.4l7.2-7.2M151.5 262.4l7.2-7.2M147.4 262.4l7.2-7.2M143.6 262.4l7.2-7.2M139.5 262.4l7.2-7.2M135.4 262.4l7.2-7.2M131.6 262.4l7.2-7.2M127.5 262.4l7.2-7.2M123.4 262.4l7.2-7.2M119.4 262.4l7.2-7.2M115.5 262.4l7.2-7.2M111.4 262.4l7.2-7.2M107.4 262.4l7.2-7.2M103.5 262.4l7.2-7.2M99.4 262.4l7.2-7.2M95.4 262.4l7.2-7.2M91.3 262.4l7.2-7.2M87.4 262.4l7.2-7.2M83.4 262.4l7.2-7.2M79.3 262.4l7.2-7.2M75.4 262.4l7.2-7.2M71.4 262.4l7.2-7.2M67.3 262.4l7.2-7.2M63.4 262.4l7.2-7.2M59.4 262.4l7.2-7.2M55.3 262.4l7.2-7.2M51.2 262.4l7.2-7.2M47.4 262.4l7.2-7.2M43.3 262.4l7.2-7.2M39.2 262.4l7.2-7.2M35.4 262.4l7.2-7.2M31.3 262.4l7.2-7.2M27.2 262.4l7.2-7.2M23.4 262.4l7.2-7.2M19.3 262.4l7.2-7.2M15.2 262.4l7.2-7.2M11.1 262.4l7.2-7.2M7.3 262.4l7.2-7.2M3.2 262.4l7.2-7.2"/><path class="cls-27" d="M.6 262.4h240.2M7.8 255.2h225.8M7.8 255.2h225.8M.6 262.4h240.2"/><path class="cls-30" d="M105.9 153.9l-7.2-7.2H.6l7.2 7.2h98.1"/><path class="cls-3" d="M103.8 153.9l-7.2-7.2M99.7 153.9l-7.2-7.2M95.6 153.9l-7.2-7.2M91.8 153.9l-7.2-7.2M87.7 153.9l-7.2-7.2M83.6 153.9l-7.2-7.2M79.5 153.9l-7.2-7.2M75.7 153.9l-7.2-7.2M71.6 153.9l-7.2-7.2M67.5 153.9l-7.2-7.2M63.7 153.9l-7.2-7.2M59.6 153.9l-7.2-7.2M55.5 153.9l-7.2-7.2M51.7 153.9l-7.2-7.2M47.6 153.9l-7.2-7.2M43.5 153.9l-7.2-7.2M39.4 153.9l-7.2-7.2M35.6 153.9l-7.2-7.2M31.5 153.9l-7.2-7.2M27.4 153.9l-7.2-7.2M23.6 153.9l-7.2-7.2M19.5 153.9l-7.2-7.2M15.4 153.9l-7.2-7.2M11.4 153.9l-7.2-7.2M103.8 153.9l1.2-1.2M99.7 153.9l3.1-3.1M95.6 153.9l5.3-5.3M91.5 153.9l7.2-7.2M87.7 153.9l7.2-7.2M83.6 153.9l7.2-7.2M79.5 153.9l7.2-7.2M75.7 153.9l7.2-7.2M71.6 153.9l7.2-7.2M67.5 153.9l7.2-7.2M63.7 153.9l7.2-7.2M59.6 153.9l7.2-7.2M55.5 153.9l7.2-7.2M51.4 153.9l7.2-7.2M47.6 153.9l7.2-7.2M43.5 153.9l7.2-7.2M39.4 153.9l7.2-7.2M35.6 153.9l7.2-7.2M31.5 153.9l7.2-7.2M27.4 153.9l7.2-7.2M23.6 153.9l7.2-7.2M19.5 153.9l7.2-7.2M15.4 153.9l7.2-7.2M11.4 153.9l7.2-7.2M7.8 153.7l6.9-7M5.6 151.8l5-5.1M3.7 149.6l2.9-2.9M1.8 147.7l.9-1"/><path class="cls-30" d="M105.9 153.9l-7.2-7.2H.6l7.2 7.2h98.1"/><path class="cls-3" d="M103.8 153.9l-7.2-7.2M99.7 153.9l-7.2-7.2M95.6 153.9l-7.2-7.2M91.8 153.9l-7.2-7.2M87.7 153.9l-7.2-7.2M83.6 153.9l-7.2-7.2M79.5 153.9l-7.2-7.2M75.7 153.9l-7.2-7.2M71.6 153.9l-7.2-7.2M67.5 153.9l-7.2-7.2M63.7 153.9l-7.2-7.2M59.6 153.9l-7.2-7.2M55.5 153.9l-7.2-7.2M51.7 153.9l-7.2-7.2M47.6 153.9l-7.2-7.2M43.5 153.9l-7.2-7.2M39.4 153.9l-7.2-7.2M35.6 153.9l-7.2-7.2M31.5 153.9l-7.2-7.2M27.4 153.9l-7.2-7.2M23.6 153.9l-7.2-7.2M19.5 153.9l-7.2-7.2M15.4 153.9l-7.2-7.2M11.4 153.9l-7.2-7.2M103.8 153.9l1.2-1.2M99.7 153.9l3.1-3.1M95.6 153.9l5.3-5.3M91.5 153.9l7.2-7.2M87.7 153.9l7.2-7.2M83.6 153.9l7.2-7.2M79.5 153.9l7.2-7.2M75.7 153.9l7.2-7.2M71.6 153.9l7.2-7.2M67.5 153.9l7.2-7.2M63.7 153.9l7.2-7.2M59.6 153.9l7.2-7.2M55.5 153.9l7.2-7.2M51.4 153.9l7.2-7.2M47.6 153.9l7.2-7.2M43.5 153.9l7.2-7.2M39.4 153.9l7.2-7.2M35.6 153.9l7.2-7.2M31.5 153.9l7.2-7.2M27.4 153.9l7.2-7.2M23.6 153.9l7.2-7.2M19.5 153.9l7.2-7.2M15.4 153.9l7.2-7.2M11.4 153.9l7.2-7.2M7.8 153.7l6.9-7M5.6 151.8l5-5.1M3.7 149.6l2.9-2.9M1.8 147.7l.9-1"/><path class="cls-27" d="M7.8 153.9h98.1M.6 146.7h98.1M.6 146.7h98.1M7.8 153.9h98.1"/><path class="cls-30" d="M.6 262.4l4.8-4.8H.6v4.8"/><path class="cls-3" d="M4.2 258.8L3 257.6M2.2 261l-1.4-1.7M.8 261l3.1-3.4"/><path class="cls-30" d="M.6 262.4l4.8-4.8H.6v4.8"/><path class="cls-3" d="M4.2 258.8L3 257.6M2.2 261l-1.4-1.7M.8 261l3.1-3.4"/><path class="cls-27" d="M.6 257.6v4.8M.6 257.6v4.8"/><path class="cls-30" d="M7.8 225.2v-71.3l-7.2-7.2v78.5h7.2"/><path class="cls-3" d="M8 154.4l-7.2-7.2M8 158.2L.8 151M8 162.3l-7.2-7.2M8 166.4l-7.2-7.2M8 170.5l-7.2-7.2M8 174.3l-7.2-7.2M8 178.4l-7.2-7.2M8 182.5l-7.2-7.2M8 186.3l-7.2-7.2M8 190.4l-7.2-7.2M8 194.5l-7.2-7.2M8 198.3l-7.2-7.2M8 202.4l-7.2-7.2M8 206.5l-7.2-7.2M8 210.6l-7.2-7.2M8 214.4l-7.2-7.2M8 218.5l-7.2-7.2M8 222.6l-7.2-7.2M6.6 225.2l-5.8-6M2.5 225.2l-1.7-1.9M4.4 225.2l3.6-3.6M.8 224.7l7.2-7.2M.8 220.9l7.2-7.2M.8 216.8l7.2-7.2M.8 212.7l7.2-7.2M.8 208.9l7.2-7.2M.8 204.8l7.2-7.2M.8 200.7l7.2-7.2M.8 196.9l7.2-7.2M.8 192.8l7.2-7.2M.8 188.7l7.2-7.2M.8 184.6l7.2-7.2M.8 180.8l7.2-7.2M.8 176.7l7.2-7.2M.8 172.6l7.2-7.2M.8 168.8l7.2-7.2M.8 164.7l7.2-7.2M.8 160.6l7-6.9M.8 156.8l4.8-5M.8 152.7l2.9-3.1M.8 148.6l1-.9"/><path class="cls-30" d="M7.8 225.2v-71.3l-7.2-7.2v78.5h7.2"/><path class="cls-3" d="M8 154.4l-7.2-7.2M8 158.2L.8 151M8 162.3l-7.2-7.2M8 166.4l-7.2-7.2M8 170.5l-7.2-7.2M8 174.3l-7.2-7.2M8 178.4l-7.2-7.2M8 182.5l-7.2-7.2M8 186.3l-7.2-7.2M8 190.4l-7.2-7.2M8 194.5l-7.2-7.2M8 198.3l-7.2-7.2M8 202.4l-7.2-7.2M8 206.5l-7.2-7.2M8 210.6l-7.2-7.2M8 214.4l-7.2-7.2M8 218.5l-7.2-7.2M8 222.6l-7.2-7.2M6.6 225.2l-5.8-6M2.5 225.2l-1.7-1.9M4.4 225.2l3.6-3.6M.8 224.7l7.2-7.2M.8 220.9l7.2-7.2M.8 216.8l7.2-7.2M.8 212.7l7.2-7.2M.8 208.9l7.2-7.2M.8 204.8l7.2-7.2M.8 200.7l7.2-7.2M.8 196.9l7.2-7.2M.8 192.8l7.2-7.2M.8 188.7l7.2-7.2M.8 184.6l7.2-7.2M.8 180.8l7.2-7.2M.8 176.7l7.2-7.2M.8 172.6l7.2-7.2M.8 168.8l7.2-7.2M.8 164.7l7.2-7.2M.8 160.6l7-6.9M.8 156.8l4.8-5M.8 152.7l2.9-3.1M.8 148.6l1-.9"/><path class="cls-27" d="M.6 146.7v78.5M7.8 153.9v71.3M7.8 153.9v71.3M.6 146.7v78.5"/><path class="cls-26" d="M0 225.2h1.7v2.6H0zM0 255h1.7v2.6H0zM0 227.8h1.7v27.1H0zM1.8 227.8V255"/><path class="cls-1" d="M7.8 227.6v27.6"/><path class="cls-26" d="M7.8 254.7v.5"/><path class="cls-30" d="M7.8 225.2v2.4h-6v-2.4H.6"/><path class="cls-3" d="M8 226.4l-1.4-1.2M4.9 227.6l-2.4-2.4M5.8 227.6l2.2-1.9M2 227.6l2.4-2.4"/><path class="cls-27" d="M7.8 225.2v2.4h-6v-2.4H.6"/><path class="cls-30" d="M7.7 257.6v-2.3H1.8v2.3H.6"/><path class="cls-3" d="M6.8 257.6l-2.4-2.4M3 257.6l-1-1M3.9 257.6l2.4-2.4M2 255.7l.5-.5"/><path class="cls-27" d="M7.7 255.3H1.8v2.3H.6"/><path class="cls-30" d="M190.9 221.6l6.9-7.2V37.3l-6.9-5.3v189.6"/><path class="cls-3" d="M198.1 39.7l-7-7M198.1 43.8l-7-7M198.1 47.8l-7-6.9M198.1 51.7l-7-7M198.1 55.8l-7-7M198.1 59.8l-7-6.9M198.1 63.7l-7-7M198.1 67.8l-7-7M198.1 71.8l-7-6.9M198.1 75.9l-7-6.9M198.1 79.8l-7-7M198.1 83.8l-7-6.9M198.1 87.9l-7-6.9M198.1 91.8l-7-7M198.1 95.8l-7-6.9M198.1 99.9l-7-6.9M198.1 104l-7-7M198.1 107.8l-7-6.9M198.1 111.9l-7-6.9M198.1 116l-7-7M198.1 119.8l-7-6.9M198.1 123.9l-7-6.9M198.1 128l-7-7M198.1 131.8l-7-6.9M198.1 135.9l-7-6.9M198.1 140l-7-7M198.1 144.1l-7-7M198.1 147.9l-7-6.9M198.1 152l-7-7M198.1 156.1l-7-7M198.1 159.9l-7-6.9M198.1 164l-7-7M198.1 168.1l-7-7M198.1 171.9l-7-6.9M198.1 176l-7-7M198.1 180.1l-7-7M198.1 184.2l-7-7M198.1 188l-7-7M198.1 192.1l-7-7M198.1 196.2l-7-7M198.1 200l-7-7M198.1 204.1l-7-7M198.1 208.2l-7-7M198.1 212.2l-7-6.9M197.1 215.4l-6-6.3M195.2 217.3l-4.1-4.1M193.3 219.4l-2.2-2.1M191.1 221.4v-.3M191.1 219l7-7M191.1 214.9l7-7M191.1 210.8l7-7M191.1 207l7-7M191.1 202.9l7-7M191.1 198.8l7-7M191.1 195l7-7M191.1 190.9l7-7M191.1 186.8l7-7M191.1 182.7l7-6.9M191.1 178.9l7-7M191.1 174.8l7-7M191.1 170.7l7-6.9M191.1 166.9l7-7M191.1 162.8l7-7M191.1 158.7l7-6.9M191.1 154.9l7-7M191.1 150.8l7-7M191.1 146.7l7-6.9M191.1 142.6l7-6.9M191.1 138.8l7-7M191.1 134.7l7-6.9M191.1 130.6l7-6.9M191.1 126.8l7-7M191.1 122.7l7-6.9M191.1 118.6l7-6.9M191.1 114.8l7-7M191.1 110.7l7-6.9M191.1 106.6l7-6.9M191.1 102.6l7-7M191.1 98.7l7-6.9M191.1 94.6l7-6.9M191.1 90.6l7-7M191.1 86.7l7-6.9M191.1 82.6l7-6.9M191.1 78.6l7-7M191.1 74.5l7-7M191.1 70.6l7-6.9M191.1 66.6l7-7M191.1 62.5l7-7M191.1 58.6l7-6.9M191.1 54.6l7-7M191.1 50.5l7-7M191.1 46.6l7-6.9M191.1 42.6l5.8-6M191.1 38.5l3.6-3.6M191.1 34.4l1.2-1.2"/><path class="cls-30" d="M190.9 221.6l6.9-7.2V37.3l-6.9-5.3v189.6"/><path class="cls-3" d="M198.1 39.7l-7-7M198.1 43.8l-7-7M198.1 47.8l-7-6.9M198.1 51.7l-7-7M198.1 55.8l-7-7M198.1 59.8l-7-6.9M198.1 63.7l-7-7M198.1 67.8l-7-7M198.1 71.8l-7-6.9M198.1 75.9l-7-6.9M198.1 79.8l-7-7M198.1 83.8l-7-6.9M198.1 87.9l-7-6.9M198.1 91.8l-7-7M198.1 95.8l-7-6.9M198.1 99.9l-7-6.9M198.1 104l-7-7M198.1 107.8l-7-6.9M198.1 111.9l-7-6.9M198.1 116l-7-7M198.1 119.8l-7-6.9M198.1 123.9l-7-6.9M198.1 128l-7-7M198.1 131.8l-7-6.9M198.1 135.9l-7-6.9M198.1 140l-7-7M198.1 144.1l-7-7M198.1 147.9l-7-6.9M198.1 152l-7-7M198.1 156.1l-7-7M198.1 159.9l-7-6.9M198.1 164l-7-7M198.1 168.1l-7-7M198.1 171.9l-7-6.9M198.1 176l-7-7M198.1 180.1l-7-7M198.1 184.2l-7-7M198.1 188l-7-7M198.1 192.1l-7-7M198.1 196.2l-7-7M198.1 200l-7-7M198.1 204.1l-7-7M198.1 208.2l-7-7M198.1 212.2l-7-6.9M197.1 215.4l-6-6.3M195.2 217.3l-4.1-4.1M193.3 219.4l-2.2-2.1M191.1 221.4v-.3M191.1 219l7-7M191.1 214.9l7-7M191.1 210.8l7-7M191.1 207l7-7M191.1 202.9l7-7M191.1 198.8l7-7M191.1 195l7-7M191.1 190.9l7-7M191.1 186.8l7-7M191.1 182.7l7-6.9M191.1 178.9l7-7M191.1 174.8l7-7M191.1 170.7l7-6.9M191.1 166.9l7-7M191.1 162.8l7-7M191.1 158.7l7-6.9M191.1 154.9l7-7M191.1 150.8l7-7M191.1 146.7l7-6.9M191.1 142.6l7-6.9M191.1 138.8l7-7M191.1 134.7l7-6.9M191.1 130.6l7-6.9M191.1 126.8l7-7M191.1 122.7l7-6.9M191.1 118.6l7-6.9M191.1 114.8l7-7M191.1 110.7l7-6.9M191.1 106.6l7-6.9M191.1 102.6l7-7M191.1 98.7l7-6.9M191.1 94.6l7-6.9M191.1 90.6l7-7M191.1 86.7l7-6.9M191.1 82.6l7-6.9M191.1 78.6l7-7M191.1 74.5l7-7M191.1 70.6l7-6.9M191.1 66.6l7-7M191.1 62.5l7-7M191.1 58.6l7-6.9M191.1 54.6l7-7M191.1 50.5l7-7M191.1 46.6l7-6.9M191.1 42.6l5.8-6M191.1 38.5l3.6-3.6M191.1 34.4l1.2-1.2"/><path class="cls-27" d="M190.9 156.6v54.7M190.9 37.3v109.4M197.8 37.3v177.1M197.8 37.3v177.1M190.9 156.6v54.7M190.9 37.3v109.4M190.9 32v5.3"/><path class="cls-30" d="M145.5 156.6l-5.7-9.9v74.9l5.7-10.3v-54.7"/><path class="cls-3" d="M144.6 154.6l-4.6-4.5M145.8 159.9l-5.8-5.7M145.8 163.8L140 158M145.8 167.8l-5.8-5.7M145.8 171.9l-5.8-5.7M145.8 175.8L140 170M145.8 179.8l-5.8-5.7M145.8 183.9l-5.8-5.7M145.8 187.8L140 182M145.8 191.8l-5.8-5.7M145.8 195.9l-5.8-5.7M145.8 200l-5.8-5.8M145.8 203.8l-5.8-5.7M145.8 207.9l-5.8-5.7M145.5 211.8l-5.5-5.6M144.1 214.2l-4.1-4.1M142.6 216.8l-2.6-2.6M141.2 219.4l-1.2-1.2M140 218l4.6-4.8M140 213.9l5.8-5.7M140 209.8l5.8-5.7M140 206l5.8-5.8M140 201.9l5.8-5.7M140 197.8l5.8-5.7M140 193.8l5.8-5.8M140 189.9l5.8-5.7M140 185.8l5.8-5.7M140 181.8l5.8-5.8M140 177.9l5.8-5.7M140 173.8l5.8-5.7M140 169.8l5.8-5.8M140 165.9l5.8-5.7M140 161.8l5.5-5.5M140 157.8l4.1-4.1M140 153.7l2.4-2.4M140 149.8l1-1.2"/><path class="cls-30" d="M145.5 156.6l-5.7-9.9v74.9l5.7-10.3v-54.7"/><path class="cls-3" d="M144.6 154.6l-4.6-4.5M145.8 159.9l-5.8-5.7M145.8 163.8L140 158M145.8 167.8l-5.8-5.7M145.8 171.9l-5.8-5.7M145.8 175.8L140 170M145.8 179.8l-5.8-5.7M145.8 183.9l-5.8-5.7M145.8 187.8L140 182M145.8 191.8l-5.8-5.7M145.8 195.9l-5.8-5.7M145.8 200l-5.8-5.8M145.8 203.8l-5.8-5.7M145.8 207.9l-5.8-5.7M145.5 211.8l-5.5-5.6M144.1 214.2l-4.1-4.1M142.6 216.8l-2.6-2.6M141.2 219.4l-1.2-1.2M140 218l4.6-4.8M140 213.9l5.8-5.7M140 209.8l5.8-5.7M140 206l5.8-5.8M140 201.9l5.8-5.7M140 197.8l5.8-5.7M140 193.8l5.8-5.8M140 189.9l5.8-5.7M140 185.8l5.8-5.7M140 181.8l5.8-5.8M140 177.9l5.8-5.7M140 173.8l5.8-5.7M140 169.8l5.8-5.8M140 165.9l5.8-5.7M140 161.8l5.5-5.5M140 157.8l4.1-4.1M140 153.7l2.4-2.4M140 149.8l1-1.2"/><path class="cls-27" d="M145.5 211.3v-54.7M139.8 221.6v-74.9M139.8 221.6v-74.9M145.5 211.3v-54.7"/><path class="cls-30" d="M145.5 211.3l-5.7 10.3h15.3v-10.3h-9.6"/><path class="cls-3" d="M155.4 213.4l-2.4-2.1M155.4 217.5l-6.3-6.2M155.4 221.6l-9.9-9.8M151.3 221.6l-7.2-7.4M147.2 221.6l-4.6-4.8M143.4 221.6l-2.2-2.2M152.2 221.6l3.2-3.1M148.2 221.6l7.2-7M144.3 221.6l10.3-10.3M140.2 221.6l10.4-10.3M144.6 213.2l1.9-1.9"/><path class="cls-30" d="M145.5 211.3l-5.7 10.3h15.3v-10.3h-9.6"/><path class="cls-3" d="M155.4 213.4l-2.4-2.1M155.4 217.5l-6.3-6.2M155.4 221.6l-9.9-9.8M151.3 221.6l-7.2-7.4M147.2 221.6l-4.6-4.8M143.4 221.6l-2.2-2.2M152.2 221.6l3.2-3.1M148.2 221.6l7.2-7M144.3 221.6l10.3-10.3M140.2 221.6l10.4-10.3M144.6 213.2l1.9-1.9"/><path class="cls-27" d="M155.1 211.3h-9.6M155.1 221.6h-15.3M155.1 221.6h-15.3M155.1 211.3h-9.6"/><path class="cls-26" d="M187.8 212.7h-29.6"/><path class="cls-1" d="M187.8 221.6h-29.6"/><path class="cls-26" d="M158.7 221.6h-.5"/><path class="cls-30" d="M190.9 221.6h-3.1v-8.9h3.1"/><path class="cls-3" d="M191.1 213.2l-.5-.5M191.1 217.3l-3.1-3.1M191.1 221.1L188 218M188.2 221.6l2.9-2.6M188 218l3.1-3.1M188 213.9l1.2-1.2"/><path class="cls-30" d="M155.1 221.6h3.1v-8.9h-3.1"/><path class="cls-3" d="M158.5 216.6l-3.1-3.2M158.5 220.6l-3.1-3.1M156.3 221.6l2.2-2.2M155.4 218.5l3.1-3.1M155.4 214.6l1.6-1.9"/><path class="cls-27" d="M187.8 221.6v-8.9M158.2 221.6v-8.9M187.8 221.6v-8.9M190.9 221.6h-3.1M158.2 221.6v-8.9M155.1 221.6h3.1M190.9 211.3v1.4M155.1 211.3v1.4M190.9 221.6h-3.1M155.1 221.6h3.1M187.8 212.7h3.1M158.2 212.7h-3.1"/><path class="cls-30" d="M155.1 146.7h-15.3l5.7 9.9h9.6v-9.9"/><path class="cls-3" d="M155.4 149.4l-2.7-2.7M155.4 153.4l-6.8-6.7M154.4 156.6l-9.8-9.9M150.3 156.6l-9.8-9.9M146.5 156.6l-1.9-2M153.2 156.6l2.2-2.2M149.1 156.6l6.3-6M145.5 156.3l9.4-9.6M144.1 153.7l6.9-7M142.4 151.3l4.6-4.6M141 148.6l1.9-1.9"/><path class="cls-30" d="M155.1 146.7h-15.3l5.7 9.9h9.6v-9.9"/><path class="cls-3" d="M155.4 149.4l-2.7-2.7M155.4 153.4l-6.8-6.7M154.4 156.6l-9.8-9.9M150.3 156.6l-9.8-9.9M146.5 156.6l-1.9-2M153.2 156.6l2.2-2.2M149.1 156.6l6.3-6M145.5 156.3l9.4-9.6M144.1 153.7l6.9-7M142.4 151.3l4.6-4.6M141 148.6l1.9-1.9"/><path class="cls-27" d="M145.5 156.6h9.6M139.8 146.7h15.3M139.8 146.7h15.3M145.5 156.6h9.6"/><path class="cls-26" d="M158.2 155.1h29.6"/><path class="cls-1" d="M158.2 146.7h29.6"/><path class="cls-26" d="M187.3 146.7h.5"/><path class="cls-30" d="M155.1 146.7h3.1v8.4h-3.1"/><path class="cls-3" d="M158.5 148.4l-1.9-1.7M158.5 152.5l-3.1-3.1M157 155.1l-1.6-1.7M155.4 154.4l3.1-3.1M155.4 150.6l3.1-3.2"/><path class="cls-30" d="M190.9 146.7h-3.1v8.4h3.1"/><path class="cls-3" d="M191.1 149.1l-2.4-2.4M191.1 153l-3.1-3.2M189 155.1l-1-1.2M190.6 155.1l.5-.2M188 153.9l3.1-3.1M188 149.8l3.1-3.1"/><path class="cls-27" d="M158.2 146.7v8.4M187.8 146.7v8.4M158.2 146.7v8.4M155.1 146.7h3.1M187.8 146.7v8.4M190.9 146.7h-3.1M155.1 156.6v-1.5M190.9 156.6v-1.5M155.1 146.7h3.1M190.9 146.7h-3.1M158.2 155.1h-3.1M187.8 155.1h3.1"/><path class="cls-30" d="M105.9 37.3L98.7 32v114.7l7.2 7.2V37.3"/><path class="cls-3" d="M106.2 39.9L99 32.7M106.2 44L99 36.8M106.2 48.1L99 40.9M106.2 52.2L99 45M106.2 56L99 48.8M106.2 60.1L99 52.9M106.2 64.2L99 57M106.2 68L99 60.8M106.2 72.1L99 64.9M106.2 76.2L99 69M106.2 80L99 72.8M106.2 84.1L99 76.9M106.2 88.2L99 81M106.2 92.2L99 85M106.2 96.1L99 88.9M106.2 100.2L99 93M106.2 104.2L99 97M106.2 108.1l-7.2-7.2M106.2 112.2L99 105M106.2 116.2L99 109M106.2 120.3l-7.2-7.2M106.2 124.2L99 117M106.2 128.2L99 121M106.2 132.3l-7.2-7.2M106.2 136.2L99 129M106.2 140.2L99 133M106.2 144.3l-7.2-7.2M106.2 148.2L99 141M106.2 152.2L99 145M105 152.7l1.2-1.2M102.8 150.8l3.4-3.4M100.9 148.6l5.3-5M99 146.7l7.2-7.2M99 142.6l7.2-7.2M99 138.8l7.2-7.2M99 134.7l7.2-7.2M99 130.6l7.2-7.2M99 126.6l7.2-7.2M99 122.7l7.2-7.2M99 118.6l7.2-7.2M99 114.6l7.2-7.2M99 110.7l7.2-7.2M99 106.6l7.2-7.2M99 102.6l7.2-7.2M99 98.7l7.2-7.2M99 94.6l7.2-7.2M99 90.6l7.2-7.2M99 86.5l7.2-7.2M99 82.6l7.2-7.2M99 78.6l7.2-7.2M99 74.5l7.2-7.2M99 70.6l7.2-7.2M99 66.6l7.2-7.2M99 62.5l7.2-7.2M99 58.6l7.2-7.2M99 54.6l7.2-7.2M99 50.5l7.2-7.2M99 46.4l7.2-7.2M99 42.6l6-6.3M99 38.5l3.6-3.9M99 34.4l1.2-1.4"/><path class="cls-30" d="M105.9 37.3L98.7 32v114.7l7.2 7.2V37.3"/><path class="cls-3" d="M106.2 39.9L99 32.7M106.2 44L99 36.8M106.2 48.1L99 40.9M106.2 52.2L99 45M106.2 56L99 48.8M106.2 60.1L99 52.9M106.2 64.2L99 57M106.2 68L99 60.8M106.2 72.1L99 64.9M106.2 76.2L99 69M106.2 80L99 72.8M106.2 84.1L99 76.9M106.2 88.2L99 81M106.2 92.2L99 85M106.2 96.1L99 88.9M106.2 100.2L99 93M106.2 104.2L99 97M106.2 108.1l-7.2-7.2M106.2 112.2L99 105M106.2 116.2L99 109M106.2 120.3l-7.2-7.2M106.2 124.2L99 117M106.2 128.2L99 121M106.2 132.3l-7.2-7.2M106.2 136.2L99 129M106.2 140.2L99 133M106.2 144.3l-7.2-7.2M106.2 148.2L99 141M106.2 152.2L99 145M105 152.7l1.2-1.2M102.8 150.8l3.4-3.4M100.9 148.6l5.3-5M99 146.7l7.2-7.2M99 142.6l7.2-7.2M99 138.8l7.2-7.2M99 134.7l7.2-7.2M99 130.6l7.2-7.2M99 126.6l7.2-7.2M99 122.7l7.2-7.2M99 118.6l7.2-7.2M99 114.6l7.2-7.2M99 110.7l7.2-7.2M99 106.6l7.2-7.2M99 102.6l7.2-7.2M99 98.7l7.2-7.2M99 94.6l7.2-7.2M99 90.6l7.2-7.2M99 86.5l7.2-7.2M99 82.6l7.2-7.2M99 78.6l7.2-7.2M99 74.5l7.2-7.2M99 70.6l7.2-7.2M99 66.6l7.2-7.2M99 62.5l7.2-7.2M99 58.6l7.2-7.2M99 54.6l7.2-7.2M99 50.5l7.2-7.2M99 46.4l7.2-7.2M99 42.6l6-6.3M99 38.5l3.6-3.9M99 34.4l1.2-1.4"/><path class="cls-27" d="M105.9 153.9V37.3M98.7 146.7V37.3M98.7 146.7V37.3M105.9 153.9V37.3M98.7 37.3V32"/><path class="cls-1" d="M628.9 130.6l42.5-8.6"/><path class="cls-21" d="M671.4 122l-2.2-83.8"/><path class="cls-24" d="M669.2 38.2l-42.7-6.4"/><path class="cls-30" d="M400 163.3c-.9-1.3-.9-3 0-4.3 1.5-1.9 3.8-2.9 6.2-2.9l9 .3v9.6l-9 .3c-2.4 0-4.7-1-6.2-2.9"/><path class="cls-26" d="M400 163.3c-.9-1.3-.9-3 0-4.3 1.5-1.9 3.8-2.9 6.2-2.9l9 .3v9.6l-9 .3c-2.4 0-4.7-1-6.2-2.9"/><path class="cls-30" d="M410.1 161.2c0 1-.3 2-1.1 2.8s-1.7 1.2-2.7 1.2c-2.1 0-4.1-.9-5.4-2.5-.6-.9-.6-2 0-2.9 1.3-1.6 3.3-2.5 5.4-2.5 1 0 2 .4 2.7 1.2.7.7 1.1 1.8 1.1 2.8"/><path class="cls-26" d="M410.1 161.2c0 1-.3 2-1.1 2.8s-1.7 1.2-2.7 1.2c-2.1 0-4.1-.9-5.4-2.5-.6-.9-.6-2 0-2.9 1.3-1.6 3.3-2.5 5.4-2.5 1 0 2 .4 2.7 1.2.7.7 1.1 1.8 1.1 2.8"/><path class="cls-30" d="M414.8 215.3h-48.2v-.1l-.1-.1-.1-.1v-20.6l.1-.1v-.1h.1v-.1H415l.1.1.1.1v20.8h-.1v.1l-.1.1h-.2"/><path class="cls-26" d="M414.8 215.3h-48.2v-.1l-.1-.1-.1-.1v-20.6l.1-.1v-.1h.1v-.1H415l.1.1.1.1v20.8h-.1v.1l-.1.1h-.2"/><path class="cls-30" d="M409.5 213.2h-37.4c-.4 0-.9 0-1.3-.3-.4-.2-.8-.4-1.1-.7-.3-.3-.6-.7-.7-1.1-.2-.4-.3-.9-.3-1.3v-10.2c0-.4 0-.9.3-1.3.2-.4.4-.8.7-1.1.3-.3.7-.6 1.1-.7.4-.2.9-.3 1.3-.3h37.4c.4 0 .9 0 1.3.3.4.2.8.4 1.1.7.3.3.6.7.7 1.1.2.4.3.9.3 1.3v10.2c0 .4 0 .9-.3 1.3-.2.4-.4.8-.7 1.1-.3.3-.7.6-1.1.7-.4.2-.9.3-1.3.3"/><path class="cls-26" d="M409.5 213.2h-37.4c-.4 0-.9 0-1.3-.3-.4-.2-.8-.4-1.1-.7-.3-.3-.6-.7-.7-1.1-.2-.4-.3-.9-.3-1.3v-10.2c0-.4 0-.9.3-1.3.2-.4.4-.8.7-1.1.3-.3.7-.6 1.1-.7.4-.2.9-.3 1.3-.3h37.4c.4 0 .9 0 1.3.3.4.2.8.4 1.1.7.3.3.6.7.7 1.1.2.4.3.9.3 1.3v10.2c0 .4 0 .9-.3 1.3-.2.4-.4.8-.7 1.1-.3.3-.7.6-1.1.7-.4.2-.9.3-1.3.3M416 147.9v24M417.4 147.9v22.6M416 147.9v24M415.3 147.9v24.7M417.4 147.9v22.6M419.8 171.9v18.3M421.3 170.5v21.1M419.8 171.9v18.3M419.1 172.6v16.8M421.3 170.5v21.1M416 190.2v25.4M417.4 191.6v24M416 190.2v25.4M417.4 191.6v24"/><path class="cls-30" d="M415.2 188.8h-12.4c-.1 0-.3-.1-.4-.2-.1-.1-.2-.2-.2-.4V174.5v-.4c0-.1.1-.3.2-.4.1-.1.2-.2.4-.2h12.4v15.6"/><path class="cls-26" d="M415.2 188.8h-12.4c-.1 0-.3-.1-.4-.2-.1-.1-.2-.2-.2-.4V174.5v-.4c0-.1.1-.3.2-.4.1-.1.2-.2.4-.2h12.4v15.6"/><path class="cls-20" d="M415.3 172.4h3.8"/><path class="cls-5" d="M419.1 172.4v17"/><path class="cls-20" d="M419.1 189.4h-3.8"/><path class="cls-26" d="M419.8 190.2H416M421.3 191.6h-3.9M419.8 190.2H416M419.1 189.4h-3.8M421.3 191.6h-3.9M416 171.9h3.8M417.4 170.5h3.9M416 171.9h3.8M415.3 172.6h3.8M417.4 170.5h3.9M398 114.6h77.8v17H398zM466.6 116.7v-2.1M449.6 116.7v-2.1M432.6 116.7v-2.1M398.7 116.7v-2.1M397.5 122h.5v16.3h-.5zM380.5 122h17v.5h-17zM380.5 122.5h.5v15.4h-.5zM397 122.5h.5v15.4h-.5z"/><path class="cls-26" d="M380.5 137.8h17v.5h-17z"/><path class="cls-30" d="M416.5 126.9V118v-.4c0-.1 0-.3.1-.4s.1-.2.2-.3c0-.1.2-.2.2-.3 0 0 .2-.2.3-.2.1 0 .2-.1.3-.2.1 0 .2 0 .4-.1h12c.1 0 .3 0 .4.1s.2.1.3.2c.1 0 .2.2.3.2 0 0 .2.2.2.3 0 .1.1.2.2.3 0 .1 0 .2.1.4V127.3c0 .1 0 .3-.1.4 0 .1-.1.2-.2.3 0 .1-.2.2-.2.3 0 0-.2.2-.3.2-.1 0-.2.1-.3.2-.1 0-.2 0-.4.1h-12c-.1 0-.3 0-.4-.1-.1 0-.2-.1-.3-.2-.1 0-.2-.2-.3-.2 0 0-.2-.2-.2-.3 0-.1-.1-.2-.2-.3s0-.2-.1-.4v-.4"/><path class="cls-26" d="M416.5 126.9V118v-.4c0-.1 0-.3.1-.4s.1-.2.2-.3c0-.1.2-.2.2-.3 0 0 .2-.2.3-.2.1 0 .2-.1.3-.2.1 0 .2 0 .4-.1h12c.1 0 .3 0 .4.1s.2.1.3.2c.1 0 .2.2.3.2 0 0 .2.2.2.3 0 .1.1.2.2.3 0 .1 0 .2.1.4V127.3c0 .1 0 .3-.1.4 0 .1-.1.2-.2.3 0 .1-.2.2-.2.3 0 0-.2.2-.3.2-.1 0-.2.1-.3.2-.1 0-.2 0-.4.1h-12c-.1 0-.3 0-.4-.1-.1 0-.2-.1-.3-.2-.1 0-.2-.2-.3-.2 0 0-.2-.2-.2-.3 0-.1-.1-.2-.2-.3s0-.2-.1-.4v-.4"/><path class="cls-30" d="M425.4 125.6c0-.7-.5-1.2-1.2-1.2s-1.2.5-1.2 1.2.5 1.2 1.2 1.2 1.2-.5 1.2-1.2"/><path class="cls-26" d="M425.4 125.6c0-.7-.5-1.2-1.2-1.2s-1.2.5-1.2 1.2.5 1.2 1.2 1.2 1.2-.5 1.2-1.2"/><path class="cls-29" d="M450.3 116h15.8v14.6h-15.8z"/><path class="cls-26" d="M450.3 116h15.8v14.6h-15.8z"/><path class="cls-30" d="M465 120.7c0-1.5-1.2-2.8-2.8-2.8s-2.8 1.2-2.8 2.8 1.2 2.8 2.8 2.8 2.8-1.2 2.8-2.8"/><path class="cls-26" d="M465 120.7c0-1.5-1.2-2.8-2.8-2.8s-2.8 1.2-2.8 2.8 1.2 2.8 2.8 2.8 2.8-1.2 2.8-2.8"/><path class="cls-30" d="M465.4 127.5c0-1.2-1-2.2-2.3-2.2s-2.3 1-2.3 2.2 1 2.2 2.3 2.2 2.3-1 2.3-2.2"/><path class="cls-26" d="M465.4 127.5c0-1.2-1-2.2-2.3-2.2s-2.3 1-2.3 2.2 1 2.2 2.3 2.2 2.3-1 2.3-2.2"/><path class="cls-30" d="M456.8 120.7c0-1.3-1-2.3-2.2-2.3s-2.2 1-2.2 2.3 1 2.3 2.2 2.3 2.2-1 2.2-2.3"/><path class="cls-26" d="M456.8 120.7c0-1.3-1-2.3-2.2-2.3s-2.2 1-2.2 2.3 1 2.3 2.2 2.3 2.2-1 2.2-2.3"/><path class="cls-30" d="M457.8 127.2c0-1.5-1.3-2.8-2.9-2.8s-2.9 1.2-2.9 2.8 1.3 2.8 2.9 2.8 2.9-1.2 2.9-2.8"/><path class="cls-26" d="M457.8 127.2c0-1.5-1.3-2.8-2.9-2.8s-2.9 1.2-2.9 2.8 1.3 2.8 2.9 2.8 2.9-1.2 2.9-2.8M475.3 116.7v-2.1M399 140.7v-8.4M400.4 140.7v-6.9M399 140.7v-8.4M398.2 140.7v-9.1M400.4 140.7v-6.9M400.4 140.7H399M399 132.3h77.7M400.4 133.8h76.3M399 132.3h77.7M398.2 131.6h78.5M400.4 133.8h76.3M363.4 122h17v.5h-17zM363.4 122.5h.7v15.4h-.7zM380 122.5h.5v15.4h-.5z"/><path class="cls-26" d="M363.4 137.8h17v.5h-17zM346.4 122h17v.5h-17zM346.4 122.5h.7v15.4h-.7z"/><path class="cls-26" d="M363 122.5h.5v15.4h-.5z"/><path class="cls-26" d="M346.4 137.8h17v.5h-17zM345.7 122h.7v.5h-.7zM415.5 116.7v-2.1"/><path class="cls-1" d="M398 122h77.8"/><path class="cls-26" d="M475.3 122h.5"/><path class="cls-30" d="M427 215.6H302.7l-7.2 7.2H427v-7.2"/><path class="cls-3" d="M427.3 216.8l-1.5-1.2M427.3 220.9l-5.3-5.3M425.1 222.8l-7.2-7.2M421 222.8l-7.2-7.2M417.2 222.8l-7.2-7.2M413.1 222.8l-7.2-7.2M409 222.8l-7.2-7.2M405 222.8l-7.2-7.2M401.1 222.8l-7.2-7.2M397 222.8l-7.2-7.2M393 222.8l-7.2-7.2M389.1 222.8l-7.2-7.2M385 222.8l-7.2-7.2M381 222.8l-7.2-7.2M377.1 222.8l-7.2-7.2M373 222.8l-7.2-7.2M369 222.8l-7.2-7.2M364.9 222.8l-7.2-7.2M361 222.8l-7.2-7.2M357 222.8l-7.2-7.2M352.9 222.8l-7.2-7.2M349 222.8l-7.2-7.2M345 222.8l-7.2-7.2M340.9 222.8l-7.2-7.2M336.8 222.8l-7.2-7.2M333 222.8l-7.2-7.2M328.9 222.8l-7.2-7.2M324.8 222.8l-7.2-7.2M321 222.8l-7.2-7.2M316.9 222.8l-7.2-7.2M312.8 222.8l-7.2-7.2M309 222.8l-6.8-6.7M304.9 222.8l-4.6-4.6M300.8 222.8l-2.6-2.6M296.7 222.8l-.5-.5M423.7 222.8l3.6-3.6M419.6 222.8l7.2-7.2M415.5 222.8l7.2-7.2M411.7 222.8l7.2-7.2M407.6 222.8l7.2-7.2M403.5 222.8l7.2-7.2M399.7 222.8l7.2-7.2M395.6 222.8l7.2-7.2M391.5 222.8l7.2-7.2M387.4 222.8l7.2-7.2M383.6 222.8l7.2-7.2M379.5 222.8l7.2-7.2M375.4 222.8l7.2-7.2M371.6 222.8l7.2-7.2M367.5 222.8l7.2-7.2M363.4 222.8l7.2-7.2M359.6 222.8l7.2-7.2M355.5 222.8l7.2-7.2M351.4 222.8l7.2-7.2M347.4 222.8l7.2-7.2M343.5 222.8l7.2-7.2M339.4 222.8l7.2-7.2M335.4 222.8l7.2-7.2M331.5 222.8l7.2-7.2M327.4 222.8l7.2-7.2M323.4 222.8l7.2-7.2M319.5 222.8l7.2-7.2M315.4 222.8l7.2-7.2M311.4 222.8l7.2-7.2M307.3 222.8l7.2-7.2M303.4 222.8l7.2-7.2M299.4 222.8l7.2-7.2"/><path class="cls-30" d="M427 215.6H302.7l-7.2 7.2H427v-7.2"/><path class="cls-3" d="M427.3 216.8l-1.5-1.2M427.3 220.9l-5.3-5.3M425.1 222.8l-7.2-7.2M421 222.8l-7.2-7.2M417.2 222.8l-7.2-7.2M413.1 222.8l-7.2-7.2M409 222.8l-7.2-7.2M405 222.8l-7.2-7.2M401.1 222.8l-7.2-7.2M397 222.8l-7.2-7.2M393 222.8l-7.2-7.2M389.1 222.8l-7.2-7.2M385 222.8l-7.2-7.2M381 222.8l-7.2-7.2M377.1 222.8l-7.2-7.2M373 222.8l-7.2-7.2M369 222.8l-7.2-7.2M364.9 222.8l-7.2-7.2M361 222.8l-7.2-7.2M357 222.8l-7.2-7.2M352.9 222.8l-7.2-7.2M349 222.8l-7.2-7.2M345 222.8l-7.2-7.2M340.9 222.8l-7.2-7.2M336.8 222.8l-7.2-7.2M333 222.8l-7.2-7.2M328.9 222.8l-7.2-7.2M324.8 222.8l-7.2-7.2M321 222.8l-7.2-7.2M316.9 222.8l-7.2-7.2M312.8 222.8l-7.2-7.2M309 222.8l-6.8-6.7M304.9 222.8l-4.6-4.6M300.8 222.8l-2.6-2.6M296.7 222.8l-.5-.5M423.7 222.8l3.6-3.6M419.6 222.8l7.2-7.2M415.5 222.8l7.2-7.2M411.7 222.8l7.2-7.2M407.6 222.8l7.2-7.2M403.5 222.8l7.2-7.2M399.7 222.8l7.2-7.2M395.6 222.8l7.2-7.2M391.5 222.8l7.2-7.2M387.4 222.8l7.2-7.2M383.6 222.8l7.2-7.2M379.5 222.8l7.2-7.2M375.4 222.8l7.2-7.2M371.6 222.8l7.2-7.2M367.5 222.8l7.2-7.2M363.4 222.8l7.2-7.2M359.6 222.8l7.2-7.2M355.5 222.8l7.2-7.2M351.4 222.8l7.2-7.2M347.4 222.8l7.2-7.2M343.5 222.8l7.2-7.2M339.4 222.8l7.2-7.2M335.4 222.8l7.2-7.2M331.5 222.8l7.2-7.2M327.4 222.8l7.2-7.2M323.4 222.8l7.2-7.2M319.5 222.8l7.2-7.2M315.4 222.8l7.2-7.2M311.4 222.8l7.2-7.2M307.3 222.8l7.2-7.2M303.4 222.8l7.2-7.2M299.4 222.8l7.2-7.2"/><path class="cls-27" d="M295.5 222.8H427M366.6 215.6H427M345 215.6h14.4M302.7 215.6h37.9M427 222.8v-7.2M366.6 215.6H427M295.5 222.8H427M345 215.6h14.4M302.7 215.6h37.9M340.6 215.6h4.4"/><path class="cls-30" d="M476.7 147.9v-7.2H345v7.2h131.7"/><path class="cls-3" d="M477 142.2l-1.7-1.5M477 146.2l-5.8-5.5M474.6 147.9l-7.2-7.2M470.5 147.9l-7.2-7.2M466.4 147.9l-7.2-7.2M462.6 147.9l-7.2-7.2M458.5 147.9l-7.2-7.2M454.4 147.9l-7.2-7.2M450.6 147.9l-7.2-7.2M446.5 147.9l-7.2-7.2M442.4 147.9l-7.2-7.2M438.3 147.9l-7.2-7.2M434.5 147.9l-7.2-7.2M430.4 147.9l-7.2-7.2M426.3 147.9l-7.2-7.2M422.5 147.9l-7.2-7.2M418.4 147.9l-7.2-7.2M414.3 147.9l-7.2-7.2M410.5 147.9l-7.2-7.2M406.4 147.9l-7.2-7.2M402.3 147.9l-7.2-7.2M398.2 147.9l-7.2-7.2M394.4 147.9l-7.2-7.2M390.3 147.9l-7.2-7.2M386.2 147.9l-7.2-7.2M382.4 147.9l-7.2-7.2M378.3 147.9l-7.2-7.2M374.2 147.9l-7.2-7.2M370.2 147.9l-7.2-7.2M366.3 147.9l-7.2-7.2M362.2 147.9l-7.2-7.2M358.2 147.9l-7.2-7.2M354.3 147.9l-7.2-7.2M350.2 147.9l-5-5M346.2 147.9l-1-1.2M474.6 147.9l2.4-2.4M470.5 147.9l6.5-6.5M466.4 147.9l7.2-7.2M462.3 147.9l7.2-7.2M458.5 147.9l7.2-7.2M454.4 147.9l7.2-7.2M450.3 147.9l7.2-7.2M446.5 147.9l7.2-7.2M442.4 147.9l7.2-7.2M438.3 147.9l7.2-7.2M434.5 147.9l7.2-7.2M430.4 147.9l7.2-7.2M426.3 147.9l7.2-7.2M422.2 147.9l7.2-7.2M418.4 147.9l7.2-7.2M414.3 147.9l7.2-7.2M410.2 147.9l7.2-7.2M406.4 147.9l7.2-7.2M402.3 147.9l7.2-7.2M398.2 147.9l7.2-7.2M394.4 147.9l7.2-7.2M390.3 147.9l7.2-7.2M386.2 147.9l7.2-7.2M382.2 147.9l7.2-7.2M378.3 147.9l7.2-7.2M374.2 147.9l7.2-7.2M370.2 147.9l7.2-7.2M366.3 147.9l7.2-7.2M362.2 147.9l7.2-7.2M358.2 147.9l7.2-7.2M354.1 147.9l7.2-7.2M350.2 147.9l7.2-7.2M346.2 147.9l7.2-7.2M345.2 145l4.1-4.3M345.2 141l.2-.3"/><path class="cls-30" d="M476.7 147.9v-7.2H345v7.2h131.7"/><path class="cls-3" d="M477 142.2l-1.7-1.5M477 146.2l-5.8-5.5M474.6 147.9l-7.2-7.2M470.5 147.9l-7.2-7.2M466.4 147.9l-7.2-7.2M462.6 147.9l-7.2-7.2M458.5 147.9l-7.2-7.2M454.4 147.9l-7.2-7.2M450.6 147.9l-7.2-7.2M446.5 147.9l-7.2-7.2M442.4 147.9l-7.2-7.2M438.3 147.9l-7.2-7.2M434.5 147.9l-7.2-7.2M430.4 147.9l-7.2-7.2M426.3 147.9l-7.2-7.2M422.5 147.9l-7.2-7.2M418.4 147.9l-7.2-7.2M414.3 147.9l-7.2-7.2M410.5 147.9l-7.2-7.2M406.4 147.9l-7.2-7.2M402.3 147.9l-7.2-7.2M398.2 147.9l-7.2-7.2M394.4 147.9l-7.2-7.2M390.3 147.9l-7.2-7.2M386.2 147.9l-7.2-7.2M382.4 147.9l-7.2-7.2M378.3 147.9l-7.2-7.2M374.2 147.9l-7.2-7.2M370.2 147.9l-7.2-7.2M366.3 147.9l-7.2-7.2M362.2 147.9l-7.2-7.2M358.2 147.9l-7.2-7.2M354.3 147.9l-7.2-7.2M350.2 147.9l-5-5M346.2 147.9l-1-1.2M474.6 147.9l2.4-2.4M470.5 147.9l6.5-6.5M466.4 147.9l7.2-7.2M462.3 147.9l7.2-7.2M458.5 147.9l7.2-7.2M454.4 147.9l7.2-7.2M450.3 147.9l7.2-7.2M446.5 147.9l7.2-7.2M442.4 147.9l7.2-7.2M438.3 147.9l7.2-7.2M434.5 147.9l7.2-7.2M430.4 147.9l7.2-7.2M426.3 147.9l7.2-7.2M422.2 147.9l7.2-7.2M418.4 147.9l7.2-7.2M414.3 147.9l7.2-7.2M410.2 147.9l7.2-7.2M406.4 147.9l7.2-7.2M402.3 147.9l7.2-7.2M398.2 147.9l7.2-7.2M394.4 147.9l7.2-7.2M390.3 147.9l7.2-7.2M386.2 147.9l7.2-7.2M382.2 147.9l7.2-7.2M378.3 147.9l7.2-7.2M374.2 147.9l7.2-7.2M370.2 147.9l7.2-7.2M366.3 147.9l7.2-7.2M362.2 147.9l7.2-7.2M358.2 147.9l7.2-7.2M354.1 147.9l7.2-7.2M350.2 147.9l7.2-7.2M346.2 147.9l7.2-7.2M345.2 145l4.1-4.3M345.2 141l.2-.3"/><path class="cls-27" d="M345 147.9h131.7M345 140.7h131.7M345 140.7h131.7M345 147.9h131.7M345 147.9v-7.2"/><path class="cls-30" d="M476.7 212.7l7.2-7.2V128l-7.2-5.8v90.5"/><path class="cls-3" d="M484.2 129.4l-7.2-6.9M484.2 133.5l-7.2-7.2M484.2 137.4l-7.2-7.2M484.2 141.4l-7.2-7.2M484.2 145.5l-7.2-7.2M484.2 149.4l-7.2-7.2M484.2 153.4l-7.2-7.2M484.2 157.5l-7.2-7.2M484.2 161.4l-7.2-7.2M484.2 165.4l-7.2-7.2M484.2 169.5l-7.2-7.2M484.2 173.6l-7.2-7.2M484.2 177.4l-7.2-7.2M484.2 181.5l-7.2-7.2M484.2 185.6l-7.2-7.2M484.2 189.4l-7.2-7.2M484.2 193.5l-7.2-7.2M484.2 197.6l-7.2-7.2M484.2 201.4l-7.2-7.2M483.9 205.5l-6.9-7.2M482 207.4l-5-5M480.1 209.6l-3.1-3.1M477.9 211.5l-.9-1.2M477 209.6l7.2-7.2M477 205.8l7.2-7.2M477 201.7l7.2-7.2M477 197.6l7.2-7.2M477 193.8l7.2-7.2M477 189.7l7.2-7.2M477 185.6l7.2-7.2M477 181.5l7.2-7.2M477 177.7l7.2-7.2M477 173.6l7.2-7.2M477 169.5l7.2-7.2M477 165.7l7.2-7.2M477 161.6l7.2-7.2M477 157.5l7.2-7.2M477 153.4l7.2-7.2M477 149.6l7.2-7.2M477 145.5l7.2-7.2M477 141.4l7.2-7.2M477 137.6l7.2-7.2M477 133.5l6.2-6.2M477 129.4l3.8-4M477 125.6l1.6-1.9"/><path class="cls-30" d="M476.7 212.7l7.2-7.2V128l-7.2-5.8v90.5"/><path class="cls-3" d="M484.2 129.4l-7.2-6.9M484.2 133.5l-7.2-7.2M484.2 137.4l-7.2-7.2M484.2 141.4l-7.2-7.2M484.2 145.5l-7.2-7.2M484.2 149.4l-7.2-7.2M484.2 153.4l-7.2-7.2M484.2 157.5l-7.2-7.2M484.2 161.4l-7.2-7.2M484.2 165.4l-7.2-7.2M484.2 169.5l-7.2-7.2M484.2 173.6l-7.2-7.2M484.2 177.4l-7.2-7.2M484.2 181.5l-7.2-7.2M484.2 185.6l-7.2-7.2M484.2 189.4l-7.2-7.2M484.2 193.5l-7.2-7.2M484.2 197.6l-7.2-7.2M484.2 201.4l-7.2-7.2M483.9 205.5l-6.9-7.2M482 207.4l-5-5M480.1 209.6l-3.1-3.1M477.9 211.5l-.9-1.2M477 209.6l7.2-7.2M477 205.8l7.2-7.2M477 201.7l7.2-7.2M477 197.6l7.2-7.2M477 193.8l7.2-7.2M477 189.7l7.2-7.2M477 185.6l7.2-7.2M477 181.5l7.2-7.2M477 177.7l7.2-7.2M477 173.6l7.2-7.2M477 169.5l7.2-7.2M477 165.7l7.2-7.2M477 161.6l7.2-7.2M477 157.5l7.2-7.2M477 153.4l7.2-7.2M477 149.6l7.2-7.2M477 145.5l7.2-7.2M477 141.4l7.2-7.2M477 137.6l7.2-7.2M477 133.5l6.2-6.2M477 129.4l3.8-4M477 125.6l1.6-1.9"/><path class="cls-27" d="M476.7 147.9v64.8M476.7 122.2v18.5M483.9 128v77.5M483.9 128v77.5M476.7 147.9v64.8M476.7 122.2v18.5"/><path class="cls-30" d="M483.9 205.5l-7.2 7.2h144.7l-5.7-7.2H483.9"/><path class="cls-3" d="M619.5 212.7l-7.2-7.2M615.4 212.7l-7.2-7.2M611.4 212.7l-7.2-7.2M607.5 212.7l-7.2-7.2M603.4 212.7l-7.2-7.2M599.4 212.7l-7.2-7.2M595.5 212.7l-7.2-7.2M591.4 212.7l-7.2-7.2M587.4 212.7l-7.2-7.2M583.5 212.7l-7.2-7.2M579.4 212.7l-7.2-7.2M575.4 212.7l-7.2-7.2M571.3 212.7l-7.2-7.2M567.4 212.7l-7.2-7.2M563.4 212.7l-7.2-7.2M559.3 212.7l-7.2-7.2M555.4 212.7l-7.2-7.2M551.4 212.7l-7.2-7.2M547.3 212.7l-7.2-7.2M543.2 212.7l-7.2-7.2M539.4 212.7l-7.2-7.2M535.3 212.7l-7.2-7.2M531.2 212.7l-7.2-7.2M527.4 212.7l-7.2-7.2M523.3 212.7l-7.2-7.2M519.2 212.7l-7.2-7.2M515.4 212.7l-7.2-7.2M511.3 212.7l-7.2-7.2M507.2 212.7l-7.2-7.2M503.1 212.7l-7.2-7.2M499.3 212.7l-7.2-7.2M495.2 212.7l-7.2-7.2M491.1 212.7l-7.2-7.2M487.3 212.7l-5.3-5.3M483.2 212.7l-3.1-3.1M479.1 212.7l-1.2-1.2M618.1 212.7l1.9-1.9M614 212.7l4.3-4.1M610.2 212.7l6.2-6.5M606.1 212.7l7.2-7.2M602 212.7l7.2-7.2M598.2 212.7l7.2-7.2M594.1 212.7l7.2-7.2M590 212.7l7.2-7.2M586.2 212.7l7.2-7.2M582.1 212.7l7.2-7.2M578 212.7l7.2-7.2M573.9 212.7l7.2-7.2M570.1 212.7l7.2-7.2M566 212.7l7.2-7.2M561.9 212.7l7.2-7.2M558.1 212.7l7.2-7.2M554 212.7l7.2-7.2M549.9 212.7l7.2-7.2M546.1 212.7l7.2-7.2M542 212.7l7.2-7.2M537.9 212.7l7.2-7.2M533.8 212.7l7.2-7.2M530 212.7l7.2-7.2M525.9 212.7l7.2-7.2M521.8 212.7l7.2-7.2M518 212.7l7.2-7.2M513.9 212.7l7.2-7.2M509.8 212.7l7.2-7.2M505.8 212.7l7.2-7.2M501.9 212.7l7.2-7.2M497.8 212.7l7.2-7.2M493.8 212.7l7.2-7.2M489.9 212.7l7.2-7.2M485.8 212.7l7.2-7.2M481.8 212.7l7.2-7.2M477.9 212.7l7.2-7.2"/><path class="cls-30" d="M483.9 205.5l-7.2 7.2h144.7l-5.7-7.2H483.9"/><path class="cls-3" d="M619.5 212.7l-7.2-7.2M615.4 212.7l-7.2-7.2M611.4 212.7l-7.2-7.2M607.5 212.7l-7.2-7.2M603.4 212.7l-7.2-7.2M599.4 212.7l-7.2-7.2M595.5 212.7l-7.2-7.2M591.4 212.7l-7.2-7.2M587.4 212.7l-7.2-7.2M583.5 212.7l-7.2-7.2M579.4 212.7l-7.2-7.2M575.4 212.7l-7.2-7.2M571.3 212.7l-7.2-7.2M567.4 212.7l-7.2-7.2M563.4 212.7l-7.2-7.2M559.3 212.7l-7.2-7.2M555.4 212.7l-7.2-7.2M551.4 212.7l-7.2-7.2M547.3 212.7l-7.2-7.2M543.2 212.7l-7.2-7.2M539.4 212.7l-7.2-7.2M535.3 212.7l-7.2-7.2M531.2 212.7l-7.2-7.2M527.4 212.7l-7.2-7.2M523.3 212.7l-7.2-7.2M519.2 212.7l-7.2-7.2M515.4 212.7l-7.2-7.2M511.3 212.7l-7.2-7.2M507.2 212.7l-7.2-7.2M503.1 212.7l-7.2-7.2M499.3 212.7l-7.2-7.2M495.2 212.7l-7.2-7.2M491.1 212.7l-7.2-7.2M487.3 212.7l-5.3-5.3M483.2 212.7l-3.1-3.1M479.1 212.7l-1.2-1.2M618.1 212.7l1.9-1.9M614 212.7l4.3-4.1M610.2 212.7l6.2-6.5M606.1 212.7l7.2-7.2M602 212.7l7.2-7.2M598.2 212.7l7.2-7.2M594.1 212.7l7.2-7.2M590 212.7l7.2-7.2M586.2 212.7l7.2-7.2M582.1 212.7l7.2-7.2M578 212.7l7.2-7.2M573.9 212.7l7.2-7.2M570.1 212.7l7.2-7.2M566 212.7l7.2-7.2M561.9 212.7l7.2-7.2M558.1 212.7l7.2-7.2M554 212.7l7.2-7.2M549.9 212.7l7.2-7.2M546.1 212.7l7.2-7.2M542 212.7l7.2-7.2M537.9 212.7l7.2-7.2M533.8 212.7l7.2-7.2M530 212.7l7.2-7.2M525.9 212.7l7.2-7.2M521.8 212.7l7.2-7.2M518 212.7l7.2-7.2M513.9 212.7l7.2-7.2M509.8 212.7l7.2-7.2M505.8 212.7l7.2-7.2M501.9 212.7l7.2-7.2M497.8 212.7l7.2-7.2M493.8 212.7l7.2-7.2M489.9 212.7l7.2-7.2M485.8 212.7l7.2-7.2M481.8 212.7l7.2-7.2M477.9 212.7l7.2-7.2"/><path class="cls-27" d="M615.7 205.5H483.9M615.7 212.7h-139M615.7 212.7h-139M615.7 205.5H483.9M621.4 212.7h-5.7"/><path class="cls-30" d="M359.4 195.2v20.4h7.2v-20.4h-7.2"/><path class="cls-3" d="M366.8 196.4l-1.4-1.2M366.8 200.5l-5.3-5.3M366.8 204.6l-7.2-7.2M366.8 208.4l-7.2-7.2M366.8 212.5l-7.2-7.2M365.8 215.6l-6.2-6.2M361.8 215.6l-2.2-2.4M362.7 215.6l4.1-4.1M359.6 214.9l7.2-7.2M359.6 210.8l7.2-7.2M359.6 206.7l7.2-7.2M359.6 202.9l7.2-7.2M359.6 198.8l3.4-3.6"/><path class="cls-30" d="M359.4 195.2v20.4h7.2v-20.4h-7.2"/><path class="cls-3" d="M366.8 196.4l-1.4-1.2M366.8 200.5l-5.3-5.3M366.8 204.6l-7.2-7.2M366.8 208.4l-7.2-7.2M366.8 212.5l-7.2-7.2M365.8 215.6l-6.2-6.2M361.8 215.6l-2.2-2.4M362.7 215.6l4.1-4.1M359.6 214.9l7.2-7.2M359.6 210.8l7.2-7.2M359.6 206.7l7.2-7.2M359.6 202.9l7.2-7.2M359.6 198.8l3.4-3.6"/><path class="cls-27" d="M366.6 215.6v-20.4M359.4 215.6v-20.4M366.6 195.2h-7.2M359.4 215.6v-20.4M366.6 215.6v-20.4"/><path class="cls-30" d="M345 152h-4.4v-29.8h4.4V152"/><path class="cls-3" d="M340.9 123.4l.9-1.2M340.9 127.8l4.3-4.4M340.9 131.8l4.3-4.3M340.9 136.2l4.3-4.4M340.9 140.5l4.3-4.3M340.9 144.6l4.3-4.4M340.9 148.9l4.3-4.3M341.8 152l3.4-3.1"/><path class="cls-30" d="M340.6 152h4.4v-29.8h-4.4V152"/><path class="cls-3" d="M340.9 123.4l.9-1.2M340.9 127.8l4.3-4.4M340.9 131.8l4.3-4.3M340.9 136.2l4.3-4.4M340.9 140.5l4.3-4.3M340.9 144.6l4.3-4.4M340.9 148.9l4.3-4.3M341.8 152l3.4-3.1"/><path class="cls-27" d="M345 152v-29.8M340.6 152v-29.8M345 122.2h-4.4M340.6 152v-29.8M345 152v-29.8"/><path class="cls-30" d="M340.6 177.4v38.2h4.4v-38.2h-4.4"/><path class="cls-3" d="M340.9 178.6l1.2-1.2M340.9 183l4.3-4.4M340.9 187.3l4.3-4.3M340.9 191.4l4.3-4.4M340.9 195.7l4.3-4.3M340.9 200l4.3-4.3M340.9 204.1l4.3-4.3M340.9 208.4l4.3-4.3M340.9 212.7l4.3-4.3M342.1 215.6l3.1-2.9"/><path class="cls-30" d="M340.6 177.4v38.2h4.4v-38.2h-4.4"/><path class="cls-3" d="M340.9 178.6l1.2-1.2M340.9 183l4.3-4.4M340.9 187.3l4.3-4.3M340.9 191.4l4.3-4.4M340.9 195.7l4.3-4.3M340.9 200l4.3-4.3M340.9 204.1l4.3-4.3M340.9 208.4l4.3-4.3M340.9 212.7l4.3-4.3M342.1 215.6l3.1-2.9"/><path class="cls-27" d="M345 215.6v-38.2M340.6 215.6v-38.2M340.6 215.6v-38.2M345 215.6v-38.2M340.6 215.6h4.4"/><path class="cls-1" d="M345 177.4V152M340.6 177.4V152"/><path class="cls-26" d="M345 176h-4.4M345 153.4h-4.4"/><path class="cls-27" d="M345 177.4h-4.4M345 152h-4.4"/><path class="cls-3" d="M344.9 176.1c12.4 0 22.7-10.2 22.7-22.7M345 153.4h22.5"/><path class="cls-27" d="M613.5 128"/><path class="cls-30" d="M483.9 128l-7.2-5.8h110.7v5.8H483.9"/><path class="cls-3" d="M587.6 124.6l-2.4-2.4M586.9 128l-5.8-5.8M582.8 128l-5.8-5.8M579 128l-5.8-5.8M574.9 128l-5.8-5.8M570.8 128l-5.8-5.8M566.7 128l-5.7-5.8M562.9 128l-5.8-5.8M558.8 128l-5.8-5.8M554.7 128l-5.7-5.8M550.9 128l-5.8-5.8M546.8 128l-5.8-5.8M542.7 128l-5.7-5.8M538.9 128l-5.8-5.8M534.8 128l-5.8-5.8M530.7 128l-5.7-5.8M526.6 128l-5.7-5.8M522.8 128l-5.8-5.8M518.7 128l-5.7-5.8M514.6 128l-5.7-5.8M510.8 128l-5.8-5.8M506.7 128l-5.7-5.8M502.6 128l-5.7-5.8M498.8 128l-5.8-5.8M494.7 128l-5.7-5.8M490.6 128l-5.7-5.8M486.6 128l-5.8-5.8M477 122.5v-.3M586.6 128l1-1M582.6 128l5-4.8M578.5 128l5.7-5.8M574.6 128l5.8-5.8M570.6 128l5.7-5.8M566.5 128l5.7-5.8M562.6 128l5.8-5.8M558.6 128l5.7-5.8M554.5 128l5.7-5.8M550.4 128l5.8-5.8M546.6 128l5.7-5.8M542.5 128l5.7-5.8M538.4 128l5.8-5.8M534.6 128l5.7-5.8M530.5 128l5.7-5.8M526.4 128l5.8-5.8M522.6 128l5.7-5.8M518.5 128l5.7-5.8M514.4 128l5.8-5.8M510.3 128l5.8-5.8M506.5 128l5.7-5.8M502.4 128l5.8-5.8M498.3 128l5.8-5.8M494.5 128l5.7-5.8M490.4 128l5.8-5.8M486.3 128l5.8-5.8M483.2 127.3l4.8-5.1M480.8 125.4l3.4-3.2M478.6 123.7l1.5-1.5"/><path class="cls-30" d="M476.7 122.2l7.2 5.8h103.5v-5.8H476.7"/><path class="cls-3" d="M587.6 124.6l-2.4-2.4M586.9 128l-5.8-5.8M582.8 128l-5.8-5.8M579 128l-5.8-5.8M574.9 128l-5.8-5.8M570.8 128l-5.8-5.8M566.7 128l-5.7-5.8M562.9 128l-5.8-5.8M558.8 128l-5.8-5.8M554.7 128l-5.7-5.8M550.9 128l-5.8-5.8M546.8 128l-5.8-5.8M542.7 128l-5.7-5.8M538.9 128l-5.8-5.8M534.8 128l-5.8-5.8M530.7 128l-5.7-5.8M526.6 128l-5.7-5.8M522.8 128l-5.8-5.8M518.7 128l-5.7-5.8M514.6 128l-5.7-5.8M510.8 128l-5.8-5.8M506.7 128l-5.7-5.8M502.6 128l-5.7-5.8M498.8 128l-5.8-5.8M494.7 128l-5.7-5.8M490.6 128l-5.7-5.8M486.6 128l-5.8-5.8M477 122.5v-.3M586.6 128l1-1M582.6 128l5-4.8M578.5 128l5.7-5.8M574.6 128l5.8-5.8M570.6 128l5.7-5.8M566.5 128l5.7-5.8M562.6 128l5.8-5.8M558.6 128l5.7-5.8M554.5 128l5.7-5.8M550.4 128l5.8-5.8M546.6 128l5.7-5.8M542.5 128l5.7-5.8M538.4 128l5.8-5.8M534.6 128l5.7-5.8M530.5 128l5.7-5.8M526.4 128l5.8-5.8M522.6 128l5.7-5.8M518.5 128l5.7-5.8M514.4 128l5.8-5.8M510.3 128l5.8-5.8M506.5 128l5.7-5.8M502.4 128l5.8-5.8M498.3 128l5.8-5.8M494.5 128l5.7-5.8M490.4 128l5.8-5.8M486.3 128l5.8-5.8M483.2 127.3l4.8-5.1M480.8 125.4l3.4-3.2M478.6 123.7l1.5-1.5"/><path class="cls-27" d="M483.9 128h103.5M476.7 122.2h110.7M476.7 122.2h110.7M483.9 128h103.5"/><path class="cls-26" d="M589.3 128v-5.8M611.8 128v-5.8"/><path class="cls-27" d="M587.4 128v-5.8M613.5 128v-5.8"/><path class="cls-3" d="M589.2 150.7c12.4 0 22.7-10.2 22.7-22.7M589.3 128v22.8"/><path class="cls-30" d="M301.8 153.7l-4.1-4.3h-21.4v4.3h25.5"/><path class="cls-3" d="M276.6 149.6v-.2M276.6 153.7l4.3-4.3M280.6 153.7l4.4-4.3M285 153.7l4.3-4.3M289.3 153.7l4.3-4.3M293.6 153.7l4.3-4.3M297.7 153.7l2.1-2.2"/><path class="cls-30" d="M301.8 153.7l-4.1-4.3h-21.4v4.3h25.5"/><path class="cls-3" d="M276.6 149.6v-.2M276.6 153.7l4.3-4.3M280.6 153.7l4.4-4.3M285 153.7l4.3-4.3M289.3 153.7l4.3-4.3M293.6 153.7l4.3-4.3M297.7 153.7l2.1-2.2"/><path class="cls-27" d="M276.3 153.7h25.5M276.3 149.4h21.4M276.3 149.4h21.4M276.3 153.7h25.5"/><path class="cls-30" d="M197.8 153.7v-4.3h53.3v4.3h-53.3"/><path class="cls-3" d="M198.1 151.5l1.9-2.1M200 153.7l4.3-4.3M204.3 153.7l4.3-4.3M208.4 153.7l4.3-4.3M212.7 153.7l4.3-4.3M217 153.7l4.4-4.3M221.4 153.7l4.3-4.3M225.4 153.7l4.4-4.3M229.8 153.7l4.3-4.3M234.1 153.7l4.3-4.3M238.2 153.7l4.3-4.3M242.5 153.7l4.3-4.3M246.8 153.7l4.3-4.3M251.1 153.7l.3-.3"/><path class="cls-30" d="M197.8 149.4v4.3h53.3v-4.3h-53.3"/><path class="cls-3" d="M198.1 151.5l1.9-2.1M200 153.7l4.3-4.3M204.3 153.7l4.3-4.3M208.4 153.7l4.3-4.3M212.7 153.7l4.3-4.3M217 153.7l4.4-4.3M221.4 153.7l4.3-4.3M225.4 153.7l4.4-4.3M229.8 153.7l4.3-4.3M234.1 153.7l4.3-4.3M238.2 153.7l4.3-4.3M242.5 153.7l4.3-4.3M246.8 153.7l4.3-4.3M251.1 153.7l.3-.3"/><path class="cls-27" d="M197.8 153.7h53.3M197.8 149.4h53.3M197.8 149.4h53.3M197.8 153.7h53.3M197.8 153.7v-4.3"/><path class="cls-1" d="M251.1 153.7h25.2M251.1 149.4h25.2"/><path class="cls-26" d="M252.3 153.7v-4.3M275.1 153.7v-4.3"/><path class="cls-27" d="M251.1 153.7v-4.3M276.3 153.7v-4.3"/><path class="cls-3" d="M275 126.7c-12.4 0-22.7 10.2-22.7 22.7M275.1 149.4v-22.6"/><path class="cls-30" d="M197.8 214.4l-6.9 7.2h6.9v-7.2"/><path class="cls-3" d="M198.1 216.1l-1-.7M198.1 220.2l-2.9-2.9M195.4 221.6l-2.1-2.2M191.4 221.6l-.3-.2M196.4 221.6l1.7-1.7M192.3 221.6l5.8-5.5"/><path class="cls-30" d="M197.8 214.4l-6.9 7.2h6.9v-7.2"/><path class="cls-3" d="M198.1 216.1l-1-.7M198.1 220.2l-2.9-2.9M195.4 221.6l-2.1-2.2M191.4 221.6l-.3-.2M196.4 221.6l1.7-1.7M192.3 221.6l5.8-5.5"/><path class="cls-27" d="M197.8 221.6h-6.9M197.8 221.6h-6.9"/><path class="cls-26" d="M227.6 213.9h6v1.7h-6zM197.8 213.9h2.6v1.7h-2.6zM200.5 213.9h27.1v1.7h-27.1zM227.6 215.6h-27.1"/><path class="cls-1" d="M228.1 221.6h-27.9"/><path class="cls-26" d="M200.7 221.6h-.5"/><path class="cls-30" d="M233.6 221.6h-5.5v-6h5.5"/><path class="cls-3" d="M233.8 215.8l-.2-.2M233.8 219.9l-4.3-4.3M231.4 221.6l-3.1-3.4M232.4 221.6l1.4-1.2M228.3 221.6l5.5-5.3M228.3 217.8l2.2-2.2"/><path class="cls-30" d="M197.8 221.6h2.4v-6h-2.4"/><path class="cls-3" d="M200.5 218.5l-2.4-2.4M199.5 221.6l-1.4-1.4M200.2 221.6h.3M198.1 219.9l2.4-2.4M198.1 216.1l.2-.5"/><path class="cls-27" d="M228.1 221.6v-6M200.2 221.6v-6M228.1 221.6v-6M233.6 221.6h-5.5M200.2 221.6v-6M197.8 221.6h2.4M233.6 214.4v1.2M197.8 214.4v1.2M233.6 221.6h-5.5M197.8 221.6h2.4M228.1 215.6h5.5M200.2 215.6h-2.4"/><path class="cls-3" d="M227.7 213.9c0-14.9-12.3-27.2-27.2-27.2M200.5 213.9v-27.1"/><path class="cls-30" d="M302.7 198.1l-7.2 7.2v17.5l7.2-7.2v-17.5"/><path class="cls-3" d="M303 200.7l-1.5-1.2M303 204.8l-3.4-3.4M303 208.9l-5.6-5.5M303 212.7l-7.2-7.2M302.2 216.1l-6.4-6.5M300.3 218.2l-4.5-4.5M298.2 220.2l-2.4-2.7M296.2 222.3l-.4-.7M295.8 222.6l7.2-7.2M295.8 218.5l7.2-7.2M295.8 214.4l7.2-7.2M295.8 210.6l7.2-7.2M295.8 206.5l7.2-7.2"/><path class="cls-30" d="M302.7 198.1l-7.2 7.2v17.5l7.2-7.2v-17.5"/><path class="cls-3" d="M303 200.7l-1.5-1.2M303 204.8l-3.4-3.4M303 208.9l-5.6-5.5M303 212.7l-7.2-7.2M302.2 216.1l-6.4-6.5M300.3 218.2l-4.5-4.5M298.2 220.2l-2.4-2.7M296.2 222.3l-.4-.7M295.8 222.6l7.2-7.2M295.8 218.5l7.2-7.2M295.8 214.4l7.2-7.2M295.8 210.6l7.2-7.2M295.8 206.5l7.2-7.2"/><path class="cls-27" d="M302.7 215.6v-17.5M295.5 222.8v-17.5M295.5 222.8v-17.5M302.7 215.6v-17.5"/><path class="cls-30" d="M295.5 205.3l7.2-7.2h-69.1l7.2 7.2h54.7"/><path class="cls-3" d="M301.5 199.5l-1.4-1.4M299.6 201.4l-3.4-3.3M297.4 203.4l-5.2-5.3M295.3 205.3l-7.2-7.2M291.4 205.3l-7.2-7.2M287.4 205.3l-7.2-7.2M283.3 205.3l-7.2-7.2M279.2 205.3l-7.2-7.2M275.4 205.3l-7.2-7.2M271.3 205.3l-7.2-7.2M267.2 205.3l-7.2-7.2M263.4 205.3l-7.2-7.2M259.3 205.3l-7.2-7.2M255.2 205.3l-7.2-7.2M251.4 205.3l-7.2-7.2M247.3 205.3l-7.2-7.2M243.2 205.3l-7.2-7.2M292.9 205.3l7.2-7.2M288.8 205.3l7.2-7.2M284.7 205.3l7.2-7.2M280.9 205.3l7.2-7.2M276.8 205.3l7.2-7.2M272.7 205.3l7.2-7.2M268.9 205.3l7.2-7.2M264.8 205.3l7.2-7.2M260.7 205.3l7.2-7.2M256.6 205.3l7.2-7.2M252.8 205.3l7.2-7.2M248.7 205.3l7.2-7.2M244.6 205.3l7.2-7.2M240.8 205.3l7.2-7.2M238.9 203.1l5-5M236.7 201.2l3.1-3.1M234.8 199.3l1.2-1.2"/><path class="cls-30" d="M295.5 205.3l7.2-7.2h-69.1l7.2 7.2h54.7"/><path class="cls-3" d="M301.5 199.5l-1.4-1.4M299.6 201.4l-3.4-3.3M297.4 203.4l-5.2-5.3M295.3 205.3l-7.2-7.2M291.4 205.3l-7.2-7.2M287.4 205.3l-7.2-7.2M283.3 205.3l-7.2-7.2M279.2 205.3l-7.2-7.2M275.4 205.3l-7.2-7.2M271.3 205.3l-7.2-7.2M267.2 205.3l-7.2-7.2M263.4 205.3l-7.2-7.2M259.3 205.3l-7.2-7.2M255.2 205.3l-7.2-7.2M251.4 205.3l-7.2-7.2M247.3 205.3l-7.2-7.2M243.2 205.3l-7.2-7.2M292.9 205.3l7.2-7.2M288.8 205.3l7.2-7.2M284.7 205.3l7.2-7.2M280.9 205.3l7.2-7.2M276.8 205.3l7.2-7.2M272.7 205.3l7.2-7.2M268.9 205.3l7.2-7.2M264.8 205.3l7.2-7.2M260.7 205.3l7.2-7.2M256.6 205.3l7.2-7.2M252.8 205.3l7.2-7.2M248.7 205.3l7.2-7.2M244.6 205.3l7.2-7.2M240.8 205.3l7.2-7.2M238.9 203.1l5-5M236.7 201.2l3.1-3.1M234.8 199.3l1.2-1.2"/><path class="cls-27" d="M240.8 205.3h54.7M233.6 198.1h69.1M233.6 198.1h69.1M240.8 205.3h54.7"/><path class="cls-30" d="M297.7 37.3v112.1l4.1 4.3V37.3h-4.1"/><path class="cls-3" d="M297.9 39l1.5-1.7M297.9 43l4.1-4M297.9 47.4l4.1-4.1M297.9 51.7l4.1-4.1M297.9 56l4.1-4.1M297.9 60.1L302 56M297.9 64.4l4.1-4.1M297.9 68.7l4.1-4.1M297.9 72.8l4.1-4.1M297.9 77.1L302 73M297.9 81.4l4.1-4M297.9 85.5l4.1-4.1M297.9 89.8l4.1-4M297.9 94.2l4.1-4.1M297.9 98.5l4.1-4.1M297.9 102.6l4.1-4.1M297.9 106.9l4.1-4.1M297.9 111.2l4.1-4.1M297.9 115.3l4.1-4.1M297.9 119.6l4.1-4.1M297.9 123.9l4.1-4.1M297.9 128.2l4.1-4M297.9 132.3l4.1-4.1M297.9 136.6l4.1-4M297.9 141l4.1-4.1M297.9 145l4.1-4M297.9 149.4l4.1-4.1M299.8 151.5l2.2-1.9"/><path class="cls-30" d="M297.7 37.3v112.1l4.1 4.3V37.3h-4.1"/><path class="cls-3" d="M297.9 39l1.5-1.7M297.9 43l4.1-4M297.9 47.4l4.1-4.1M297.9 51.7l4.1-4.1M297.9 56l4.1-4.1M297.9 60.1L302 56M297.9 64.4l4.1-4.1M297.9 68.7l4.1-4.1M297.9 72.8l4.1-4.1M297.9 77.1L302 73M297.9 81.4l4.1-4M297.9 85.5l4.1-4.1M297.9 89.8l4.1-4M297.9 94.2l4.1-4.1M297.9 98.5l4.1-4.1M297.9 102.6l4.1-4.1M297.9 106.9l4.1-4.1M297.9 111.2l4.1-4.1M297.9 115.3l4.1-4.1M297.9 119.6l4.1-4.1M297.9 123.9l4.1-4.1M297.9 128.2l4.1-4M297.9 132.3l4.1-4.1M297.9 136.6l4.1-4M297.9 141l4.1-4.1M297.9 145l4.1-4M297.9 149.4l4.1-4.1M299.8 151.5l2.2-1.9"/><path class="cls-27" d="M301.8 153.7V37.3M297.7 149.4V37.3M301.8 37.3h-4.1M297.7 149.4V37.3M301.8 153.7V37.3"/><path class="cls-26" d="M304.6 189.9h17v.5h-17zM304.6 190.4h.5v15.4h-.5zM303.2 189.9h1.4v.5h-1.4zM304.6 205.8h34.1v.5h-34.1zM321.7 189.9h17v.5h-17zM338 190.4h.7v15.4h-.7zM338.7 189.9h1.4v.5h-1.4z"/><path class="cls-29" d="M350 137.8h9.8v2.4H350z"/><path class="cls-26" d="M350 137.8h9.8v2.4H350z"/><path class="cls-29" d="M349.8 137.6h10.3v.2h-10.3z"/><path class="cls-26" d="M349.8 137.6h10.3v.2h-10.3z"/><path class="cls-28" d="M350.7 137.6v-8.4"/><path class="cls-4" d="M350.7 129.2h1.7l1.7.7 1.4.7 1.2 1 1 1.4.9 1.5.5 1.4v1.7"/><path class="cls-3" d="M149.3 29.8c0-15.2-12.5-27.8-27.8-27.8M121.5 2v27.8"/><path class="cls-8" d="M149.4 29.8V27l.4-2.7.8-2.6.9-2.4 1-2.7 1.4-2.1 1.7-2.4 1.9-1.9 1.9-2 2.2-1.4 2.4-1.4 2.4-1.2 2.6-1 2.7-.7 2.6-.3 2.9-.2M177.2 2v27.8"/><path class="cls-3" d="M177.2 29.4v.4"/><path class="cls-26" d="M427 215.6v-67.7"/><path class="cls-3" d="M355.6 32.1V34c0 .6-.2 1.2-.3 1.8-.1.6-.3 1.2-.5 1.8l-.6 1.8c-.2.6-.5 1.1-.8 1.7-.3.5-.6 1.1-1 1.6-.3.5-.7 1-1.1 1.5-.4.5-.8.9-1.3 1.4-.4.4-.9.9-1.4 1.3-.5.4-1 .8-1.5 1.1-.5.3-1.1.7-1.6 1-.5.3-1.1.6-1.7.8l-1.8.6c-.6.2-1.2.3-1.8.5l-1.8.3h-1.9M336.6 51.2v-19M355.5 32.2l.3 1.5M356 35.1v.7M356 35.8l.2.8"/><path class="cls-19" d="M356.5 37.8l.7 1.6"/><path class="cls-3" d="M357.7 40.6l.2.5M357.9 41.1l.5.7M359.1 43l.7 1.2"/><path class="cls-12" d="M359.8 44.2l1.5 1.5"/><path class="cls-3" d="M361.3 45.7l.5.5"/><path class="cls-14" d="M362.5 46.9l1.7.9"/><path class="cls-3" d="M365.4 48.6l.2.2M365.6 48.8l1 .5M367.8 50l1.4.2M370.6 50.7h.3M370.9 50.7l1.2.3M373.5 51l1.2.2"/><path class="cls-8" d="M374.7 51.2v-19"/><path class="cls-3" d="M374.7 32.7v-.5M451.4 32.1V34c0 .6-.2 1.2-.3 1.8-.1.6-.3 1.2-.5 1.8l-.6 1.8c-.2.6-.5 1.1-.8 1.7-.3.5-.6 1.1-1 1.6-.3.5-.7 1-1.1 1.5-.4.5-.8.9-1.3 1.4-.4.4-.9.9-1.4 1.3-.5.4-1 .8-1.5 1.1-.5.3-1 .7-1.6 1-.5.3-1.1.6-1.7.8l-1.8.6c-.6.2-1.2.3-1.8.5l-1.8.3h-1.9M432.6 51.2v-19M451.5 32.2v1.5M451.8 35.1v.7M451.8 35.8l.2.8"/><path class="cls-19" d="M452.2 37.8l.8 1.6"/><path class="cls-3" d="M453.4 40.6l.3.5M453.7 41.1l.5.7"/><path class="cls-25" d="M454.6 42.8l1.2 1.4"/><path class="cls-3" d="M456.8 45.4l.2.3M457 45.7l1 .7M459.2 47.4l.7.4M459.9 47.8l.5.3"/><path class="cls-17" d="M461.6 48.8l1.7 1"/><path class="cls-3" d="M464.2 50l.8.2M465 50.2l.7.3"/><path class="cls-10" d="M466.6 50.7l2 .3"/><path class="cls-3" d="M470 51.2h.5"/><path class="cls-8" d="M470.5 51.2v-19"/><path class="cls-3" d="M470.5 32.7v-.5M547.3 32.1V34c0 .6-.2 1.2-.3 1.8-.1.6-.3 1.2-.5 1.8l-.6 1.8c-.2.6-.5 1.1-.8 1.7-.3.5-.6 1.1-1 1.6-.3.5-.7 1-1.1 1.5-.4.5-.8.9-1.3 1.4-.4.4-.9.9-1.4 1.3s-1 .8-1.5 1.1c-.5.3-1 .7-1.6 1-.5.3-1.1.6-1.7.8l-1.8.6c-.6.2-1.2.3-1.8.5l-1.8.3h-1.9M528.3 51.2v-19M547.3 32.2v1.5M547.5 35.1v.7M547.5 35.8l.3.8"/><path class="cls-19" d="M548 37.8l.7 1.6"/><path class="cls-3" d="M549.2 40.6l.2.5M549.4 41.1l.5.7"/><path class="cls-25" d="M550.4 42.8l1.2 1.4"/><path class="cls-3" d="M552.6 45.4l.2.3M552.8 45.7l1 .7M555 47.4l.7.4M555.7 47.8l.5.3"/><path class="cls-17" d="M557.4 48.8l1.6 1"/><path class="cls-3" d="M560 50l.7.2M560.7 50.2l.7.3"/><path class="cls-19" d="M562.6 50.7l1.7.3"/><path class="cls-3" d="M565.8 51.2h.4"/><path class="cls-8" d="M566.2 51.2v-19"/><path class="cls-3" d="M566.2 32.7v-.5M252.5 32.1V34c0 .6.2 1.2.3 1.8.1.6.3 1.2.5 1.8l.6 1.8c.2.6.5 1.1.8 1.7.3.5.6 1.1 1 1.6.3.5.7 1 1.1 1.5.4.5.8.9 1.3 1.4.4.4.9.9 1.4 1.3.5.4 1 .8 1.5 1.1.5.3 1.1.7 1.6 1 .5.3 1.1.6 1.7.8l1.8.6c.6.2 1.2.3 1.8.5l1.8.3h1.9M271.5 51V32M252.6 32l-.3 1.4M252.3 34.9l-.2.9M252.1 35.8l-.3.5"/><path class="cls-19" d="M251.6 37.5l-.5 1.9"/><path class="cls-3" d="M250.6 40.4l-.4.7M250.2 41.1l-.3.5"/><path class="cls-18" d="M249.2 42.6l-1 1.4"/><path class="cls-3" d="M247.3 45.2l-.3.2M247 45.4l-.9.8M245.1 47.1l-.9.7"/><path class="cls-15" d="M244.2 47.8l-1.7 1"/><path class="cls-3" d="M242.5 48.8l-1 .5M240.1 49.8l-1 .4"/><path class="cls-22" d="M239.1 50.2l-1.9.5"/><path class="cls-3" d="M237.2 50.7l-1.2.3M234.6 51h-1"/><path class="cls-8" d="M233.6 51V32"/><path class="cls-3" d="M233.6 32.5V32M597.2 51.9c.1 5.3 2.4 10.4 6.3 14.1 3.9 3.7 9 5.7 14.4 5.5M597.2 51.9l20.2-.5"/><path class="cls-8" d="M598.2 92.2l.2-4 1.2-3.9 1.7-3.3 2.4-3.2 3.1-2.6 3.4-1.9 3.8-1.2 3.8-.5"/><path class="cls-16" d="M598.2 92.2l20.1-.4"/><path class="cls-3" d="M620.3 169.9c-.6 0-1.2 0-1.9.1-.6 0-1.2.2-1.8.3-.6.1-1.2.3-1.8.5-.6.2-1.2.4-1.7.7-.6.3-1.1.5-1.7.8-.5.3-1.1.6-1.6 1s-1 .7-1.5 1.1c-.5.4-.9.8-1.3 1.3s-.8.9-1.2 1.4c-.4.5-.7 1-1.1 1.5-.3.5-.6 1.1-.9 1.6-.3.6-.5 1.1-.8 1.7l-.6 1.8c-.2.6-.3 1.2-.4 1.8-.1.6-.2 1.2-.2 1.8v1.9M601.8 189.4l18.9-.4M620.2 170l-1.4-.2M617.4 169.5h-.8M616.6 169.5h-.7"/><path class="cls-19" d="M614.7 169.3l-1.7-.7"/><path class="cls-3" d="M611.8 168.1l-.4-.3M611.4 167.8l-.8-.4M609.4 166.6l-1.2-.7"/><path class="cls-12" d="M608.2 165.9l-1.4-1.2"/><path class="cls-3" d="M606.8 164.7l-.7-.7M605.1 163l-.7-1.2"/><path class="cls-12" d="M604.4 161.8l-1.2-1.4"/><path class="cls-3" d="M603.2 160.4l-.5-1M602.2 158l-.4-1.2"/><path class="cls-6" d="M601.8 156.8l-.5-1.7"/><path class="cls-3" d="M601.3 155.1l-.3-1.2M601 152.5l-.2-1"/><path class="cls-8" d="M600.8 151.5l19-.5"/><path class="cls-3" d="M619.3 151h.5"/><path class="cls-26" d="M284 171.9v.7M284 172.6v1M284 173.6l-.2.7M283.8 174.3l-.3.5M283 176l-.2.2M282.1 177.4l-.5.5M281.6 177.9l-.7.5M280.9 178.4l-.5.5M280.4 178.9l-.5.2M278.7 179.8h-.2M277 180.3h-.7M276.3 180.3h-.7M275.6 180.3h-.7M274.9 180.3h-.7M273 179.8h-.5M271.3 179.4l-.5-.5M270.8 178.9l-.5-.5M270.3 178.4l-.7-.5M269.6 177.9l-.5-.5M268.4 176.2l-.2-.2M267.7 174.8l-.3-.5M267.4 174.3l-.2-.7M267.2 173.6v-1M267.2 172.6v-.7M267.2 170.5v-.3M267.7 169v-.4M267.7 168.6l.5-.8M268.2 167.8l.4-.7M268.6 167.1l.5-.7M270.1 165.4h.2M270.3 165.4v-.2M271.5 164.5l.7-.5M272.2 164l1-.2M273.2 163.8l.7-.3M273.9 163.5h.3M275.6 163.5h.2M277.3 163.5l.7.3M278 163.8l1 .2M279 164l.7.5M279.7 164.5h.2M282.3 166.6l.3.5M282.6 167.1l.4.7M283 167.8l.5.8M283.5 168.6v.4M284 170.5v.2"/><path class="cls-9" d="M120.1 0h58.6v29.5h-58.6z"/><path class="cls-9" d="M95.4 22.4h24.2v7.4h59.3v-7.4h447.3l3.6 141.8"/><path class="cls-26" d="M337 19.8V.8h37.2v19"/><path class="cls-26" d="M358.4 16.9l-2.6 2.9-2.9-2.9h5.5zM337 19.8h37.2M415.3 189.4v26.2"/></g><g id="Mbel"><path class="cls-2" d="M303.4 39.9h10.8v56.9h-10.8zM485.1 147.4h15.6V204h-15.6zM523.5 147.4h45.4V204h-45.4zM199.3 38.5h28.3v56.9h-28.3zM280.6 97h15.6v50.9h-15.6zM268.6 55.5h7.7V67h-7.7zM276.3 38.5h19.9v45.4h-19.9zM378.1 59.8h51.1v22.8h-51.1zM379.5 92.4h12.7M379.5 83.9v8.5M392.2 92.4v-8.5M397.2 92.4h12.7M397.2 83.9v8.5M409.9 92.4v-8.5M414.9 92.4h12.8M414.9 83.9v8.5M427.7 92.4v-8.5M379.5 49.9h12.7M379.5 58.4v-8.5M392.2 49.9v8.5M397.2 49.9h12.7M397.2 58.4v-8.5M409.9 49.9v8.5M414.9 49.9h12.8M414.9 58.4v-8.5M427.7 49.9v8.5M572 38.5h28.3v10.8H572zM525.4 71.4h28.3v14.2h-28.3zM566.1 116.4V97.7v-.2-.2-.1l-.1-.1-.1-.1h-.1-.2H540.5h-.2-.2-.1l-.1.1-.1.1v19.2h26.6M570.7 120.1V97.7v-.2-.2-.1l-.1-.1-.1-.1h-.1-.2-3-.2-.2-.1l-.1.1-.1.1c-.1.1 0 0 0 .1V120.4c0 .1.1.2.2.3 0 0 .2.1.3.2H570.4c.1 0 .2-.1.3-.2s.1-.2.2-.3v-.3M539.5 116.4v4c0 .1-.1.2-.2.3 0 0-.2.1-.3.2h-25.2-.2-.2-.1l-.1-.1-.1-.1v-.1-.2V116.5M513 114.1h53.2M512.9 116.4V97.7v-.2-.2-.1l.1-.1.1-.1H539l.1.1.1.1v19.2h-26.6M508.3 120.1V97.7v-.2-.2-.1l.1-.1.1-.1H512.3l.1.1.1.1v23.2c0 .1-.1.2-.2.3 0 0-.2.1-.3.2H508.6c-.1 0-.2-.1-.3-.2s-.1-.2-.2-.3v-.3M539.5 116.4v4c0 .1.1.2.2.3 0 0 .2.1.3.2h25.7l.1-.1.1-.1v-.1-.2V116.5M501.5 62.5c-1.1-3.8-1.9-7.8-2.4-11.7-.1-1 .3-1.9 1.2-2.4 2.8-1.6 6-2.4 9.2-2.4 1 0 1.8.6 2.2 1.5 1.5 3.7 2.7 7.5 3.6 11.4-.6.4-1.3.7-1.9.9-3.1.9-6.3 1.8-9.5 2.5-.7.1-1.4.2-2.1.2h-.1"/><path class="cls-2" d="M500.8 61.6c-.3-.1-.6-.3-.8-.6-1-1.1-1.7-2.5-2.1-4-.4-2-.7-4-.8-6.1 0-1.5 0-2.9.4-4.4.2-.8.7-1.5 1.5-1.9 3-1.6 6.3-2.4 9.7-2.5.8 0 1.7.3 2.2 1 1 1.1 1.8 2.3 2.5 3.6.9 1.8 1.7 3.7 2.2 5.7.4 1.5.5 3 .1 4.5 0 .3-.2.6-.4.9"/></g><g id="Text"><path d="M537.5 172.9v.6h-3.8l3-4.8H534v-.6h3.8l-3 4.8h2.7zM539.3 168.8c0 .2-.2.4-.4.4s-.4-.2-.4-.4.2-.4.4-.4.4.2.4.4zm0 4.7h-.6v-3.7h.6v3.7zM541.2 169.8v.5c.3-.4.6-.6 1-.6s.8.2 1 .7c.3-.5.6-.7 1.2-.7s.7.1.9.4c.2.2.2.4.2 1v2.4h-.6v-2.2c0-.4 0-.6-.1-.7-.1-.2-.4-.3-.6-.3-.5 0-.8.4-.8 1v2.2h-.6v-2.2c0-.4 0-.5-.1-.7-.1-.2-.3-.3-.6-.3-.5 0-.9.4-.9 1v2.2h-.6v-3.7h.6zM547.5 169.8v.5c.3-.4.6-.6 1-.6s.8.2 1 .7c.3-.5.6-.7 1.2-.7s.7.1.9.4c.2.2.2.4.2 1v2.4h-.6v-2.2c0-.4 0-.6-.1-.7-.1-.2-.4-.3-.6-.3-.5 0-.8.4-.8 1v2.2h-.6v-2.2c0-.4 0-.5-.1-.7-.1-.2-.3-.3-.6-.3-.5 0-.9.4-.9 1v2.2h-.6v-3.7h.6zM553.6 171.8c0 .3 0 .5.2.7.2.3.6.5 1 .5s.9-.2 1.1-.6l.5.2c-.3.6-.9 1-1.6 1-1.1 0-1.9-.8-1.9-1.9s.8-1.9 1.9-1.9 1.9.8 1.9 1.9v.2h-3.1zm2.4-.4c0-.3 0-.4-.2-.6-.2-.3-.6-.5-1-.5s-.8.2-1 .5c-.1.2-.2.3-.2.6h2.4zM558.4 169.8v.6c.1-.3.2-.4.3-.5.2-.1.4-.2.7-.2h.1v.6h-.2c-.3 0-.6.2-.8.4-.2.2-.2.4-.2.9v1.9h-.6v-3.7h.6zM534.5 178.9v-.6l1.8-1.2v5.4h-.6v-4.4l-1.2.8zM540.7 181.9v.6h-3l1.9-2.7c.5-.8.7-1 .7-1.3 0-.5-.4-.8-.9-.8s-.7.2-.8.4v.6h-.6c0-1 .6-1.6 1.5-1.6s1.5.5 1.5 1.3-.2.8-.6 1.5l-1.4 2h1.9zM542.8 182.1c0 .2-.2.4-.4.4s-.4-.2-.4-.4.2-.4.4-.4.4.2.4.4zM544 177.8v-.6h3l-2.1 5.3h-.7l1.9-4.7h-2zM550.2 178.8v.5c.3-.4.6-.6 1-.6s.8.2 1 .7c.3-.5.6-.7 1.2-.7s.7.1.9.4c.2.2.2.4.2 1v2.4h-.6v-2.2c0-.4 0-.6-.1-.7-.1-.2-.4-.3-.6-.3-.5 0-.8.4-.8 1v2.2h-.6v-2.2c0-.4 0-.5-.1-.7-.1-.2-.3-.3-.6-.3-.5 0-.9.4-.9 1v2.2h-.6v-3.7h.6zM557.8 180v.4h-2l1.2-1.6c.3-.5.4-.6.4-.8 0-.3-.2-.4-.5-.4s-.5.2-.5.6h-.4c0-.6.4-1 1-1s1 .3 1 .8-.1.5-.4.9l-.8 1.1h1.1z"/><g><path d="M217.9 121.9v.6h-3.8l3-4.8h-2.7v-.6h3.8l-3 4.8h2.7zM219.8 117.8c0 .2-.2.4-.4.4s-.4-.2-.4-.4.2-.4.4-.4.4.2.4.4zm0 4.7h-.6v-3.7h.6v3.7zM221.7 118.8v.5c.3-.4.6-.6 1-.6s.8.2 1 .7c.3-.5.6-.7 1.2-.7s.7.1.9.4c.2.2.2.4.2 1v2.4h-.6v-2.2c0-.4 0-.6-.1-.7-.1-.2-.4-.3-.6-.3-.5 0-.8.4-.8 1v2.2h-.6v-2.2c0-.4 0-.5-.1-.7-.1-.2-.3-.3-.6-.3-.5 0-.9.4-.9 1v2.2h-.6v-3.7h.6zM228 118.8v.5c.3-.4.6-.6 1-.6s.8.2 1 .7c.3-.5.6-.7 1.2-.7s.7.1.9.4c.2.2.2.4.2 1v2.4h-.6v-2.2c0-.4 0-.6-.1-.7-.1-.2-.4-.3-.6-.3-.5 0-.8.4-.8 1v2.2h-.6v-2.2c0-.4 0-.5-.1-.7-.1-.2-.3-.3-.6-.3-.5 0-.9.4-.9 1v2.2h-.6v-3.7h.6zM234.1 120.8c0 .3 0 .5.2.7.2.3.6.5 1 .5s.9-.2 1.1-.6l.5.2c-.3.6-.9 1-1.6 1-1.1 0-1.9-.8-1.9-1.9s.8-1.9 1.9-1.9 1.9.8 1.9 1.9v.2h-3.1zm2.4-.4c0-.3 0-.4-.2-.6-.2-.3-.6-.5-1-.5s-.8.2-1 .5c-.1.2-.2.3-.2.6h2.4zM238.8 118.8v.6c.1-.3.2-.4.3-.5.2-.1.4-.2.7-.2h.1v.6h-.2c-.3 0-.6.2-.8.4-.2.2-.2.4-.2.9v1.9h-.6v-3.7h.6zM214.9 127.9v-.6l1.8-1.2v5.4h-.6v-4.4l-1.2.8zM218.1 130.3v-.5l2.8-3.7v3.6h.6v.6h-.6v1.2h-.6v-1.2h-2.1zm2.1-2.6l-1.5 2h1.5v-2zM223.3 131.1c0 .2-.2.4-.4.4s-.4-.2-.4-.4.2-.4.4-.4.4.2.4.4zM227.6 129.9c0 .6-.1 1-.4 1.2-.3.3-.7.4-1.2.4s-1-.2-1.2-.5c-.3-.3-.4-.6-.4-1.4v-1.8c0-.7 0-1 .3-1.3.3-.3.7-.5 1.2-.5s.9.1 1.2.4c.3.3.4.6.4 1.2v2.1zm-2.5-.1c0 .6 0 .7.2.9.2.2.5.3.8.3s.6-.1.8-.4c.1-.2.2-.4.2-.8v-2c0-.4 0-.6-.3-.8-.2-.2-.4-.2-.7-.2s-.6.1-.8.4c-.1.2-.2.4-.2.8v1.8zM230.9 127.8v.5c.3-.4.6-.6 1-.6s.8.2 1 .7c.3-.5.6-.7 1.2-.7s.7.1.9.4c.2.2.2.4.2 1v2.4h-.6v-2.2c0-.4 0-.6-.1-.7-.1-.2-.4-.3-.6-.3-.5 0-.8.4-.8 1v2.2h-.6v-2.2c0-.4 0-.5-.1-.7-.1-.2-.3-.3-.6-.3-.5 0-.9.4-.9 1v2.2h-.6v-3.7h.6zM238.5 129v.4h-2l1.2-1.6c.3-.5.4-.6.4-.8 0-.3-.2-.4-.5-.4s-.5.2-.5.6h-.4c0-.6.4-1 1-1s1 .3 1 .8-.1.5-.4.9l-.8 1.1h1.1z"/></g><g><path d="M375.5 161.7c1.1 0 1.7.5 1.7 1.4s-.1.6-.3.9c-.1.2-.3.2-.5.3.3 0 .4.1.6.2.3.2.4.6.4 1s-.2.9-.6 1.2c-.3.2-.7.3-1.3.3H374v-5.3h1.5zm-.8 2.4h.7c.4 0 .7 0 .9-.2.2-.2.3-.4.3-.7s-.2-.6-.4-.8c-.2 0-.4-.1-.9-.1h-.6v1.8zm0 2.4h.7c.6 0 .8 0 1-.2.3-.1.4-.4.4-.8 0-.6-.4-.9-1.2-.9h-.8v1.8zM381.4 163.3h.6v3.7h-.6v-.7c-.4.6-.8.8-1.3.8-1 0-1.7-.8-1.7-1.9s.7-1.9 1.8-1.9 1 .2 1.3.7v-.6zm-2.1.9c-.2.3-.3.6-.3 1 0 .8.5 1.4 1.2 1.4s1.3-.6 1.3-1.4-.5-1.4-1.2-1.4-.7.1-.9.4zM386.2 161.7h.6v5.3h-.6v-.6c-.4.5-.8.7-1.3.7-1 0-1.7-.8-1.7-1.9s.7-2 1.7-2 1 .2 1.3.6v-2.2zm-2.4 3.5c0 .8.5 1.4 1.2 1.4s1.2-.6 1.2-1.4-.5-1.4-1.2-1.4-1.2.6-1.2 1.4zM376.3 171.3h-1.7v1.4c.3-.1.5-.2.8-.2.9 0 1.6.7 1.6 1.7s-.8 1.8-1.8 1.8-1.3-.4-1.6-1.1l.6-.2c.1.2.2.3.3.4.2.2.5.3.8.3.6 0 1.1-.5 1.1-1.2s-.5-1.1-1.2-1.1-.8.2-1.2.5v-3h2.3v.6zM378.9 175.6c0 .2-.2.4-.4.4s-.4-.2-.4-.4.2-.4.4-.4.4.2.4.4zM382.9 175.4v.6h-3l1.9-2.7c.5-.8.7-1 .7-1.3 0-.5-.4-.8-.9-.8s-.7.2-.8.4v.6h-.6c0-1 .6-1.6 1.5-1.6s1.5.5 1.5 1.3-.2.8-.6 1.5l-1.4 2h1.9zM386.5 172.3v.5c.3-.4.6-.6 1-.6s.8.2 1 .7c.3-.5.6-.7 1.2-.7s.7.1.9.4c.2.2.2.4.2 1v2.4h-.6v-2.2c0-.4 0-.6-.1-.7-.1-.2-.4-.3-.6-.3-.5 0-.8.4-.8 1v2.2h-.6v-2.2c0-.4 0-.5-.1-.7-.1-.2-.3-.3-.6-.3-.5 0-.9.4-.9 1v2.2h-.6v-3.7h.6zM394.1 173.5v.4h-2l1.2-1.6c.3-.5.4-.6.4-.8 0-.3-.2-.4-.5-.4s-.5.2-.5.6h-.4c0-.6.4-1 1-1s1 .3 1 .8-.1.5-.4.9l-.8 1.1h1.1z"/></g><g><path d="M218.8 165.7h2.1v.6h-2.1v1.8h2.1v.6h-2.8v-5.3h2.8v.6h-2.1v1.8zM222.7 165v.5c.3-.4.6-.6 1.1-.6s.6.1.9.3c.2.2.3.5.3 1v2.5h-.6v-2.4c0-.3 0-.5-.1-.6-.1-.2-.3-.2-.6-.2s-.5.1-.7.3c-.2.2-.2.4-.2.7v2.2h-.6V165h.6zM226.9 167.9c0 .2 0 .2.3.2h.3v.5h-.6c-.4 0-.6-.2-.6-.6v-2.6h-.5v-.5h.5v-1.2h.6v1.2h.6v.5h-.6v2.4zM229.2 165v.6c.1-.3.2-.4.3-.5.2-.1.4-.2.7-.2h.1v.6h-.2c-.3 0-.6.2-.8.4-.2.2-.2.4-.2.9v1.9h-.6V165h.6zM231.6 167c0 .3 0 .5.2.7.2.3.6.5 1 .5s.9-.2 1.1-.6l.5.2c-.3.6-.9 1-1.6 1-1.1 0-1.9-.8-1.9-1.9s.8-1.9 1.9-1.9 1.9.8 1.9 1.9v.2h-3.1zm2.4-.4c0-.3 0-.4-.2-.6-.2-.3-.6-.5-1-.5s-.8.2-1 .5c-.1.2-.2.3-.2.6h2.4zm-.2-3.2l-.9 1.1h-.4l.7-1.1h.7zM236.1 167c0 .3 0 .5.2.7.2.3.6.5 1 .5s.9-.2 1.1-.6l.5.2c-.3.6-.9 1-1.6 1-1.1 0-1.9-.8-1.9-1.9s.8-1.9 1.9-1.9 1.9.8 1.9 1.9v.2h-3.1zm2.4-.4c0-.3 0-.4-.2-.6-.2-.3-.6-.5-1-.5s-.8.2-1 .5c-.1.2-.2.3-.2.6h2.4zM219.9 175.5c-.2 0-.3.1-.5.1-.9 0-1.6-.7-1.6-1.6s.8-1.7 1.7-1.7 1.7.7 1.7 1.7-.1.7-.4 1.2l-1.5 2.5h-.7l1.3-2.1zm-1.5-1.5c0 .6.5 1.1 1.1 1.1s1.1-.5 1.1-1.1-.5-1.1-1-1.1-1.1.5-1.1 1.1zM222.5 177.3c0 .2-.2.4-.4.4s-.4-.2-.4-.4.2-.4.4-.4.4.2.4.4zM223.8 173v-.6h3l-2.1 5.3h-.7l1.9-4.7h-2zM230.9 174v.5c.3-.4.6-.6 1-.6s.8.2 1 .7c.3-.5.6-.7 1.2-.7s.7.1.9.4c.2.2.2.4.2 1v2.4h-.6v-2.2c0-.4 0-.6-.1-.7-.1-.2-.4-.3-.6-.3-.5 0-.8.4-.8 1v2.2h-.6v-2.2c0-.4 0-.5-.1-.7-.1-.2-.3-.3-.6-.3-.5 0-.9.4-.9 1v2.2h-.6V174h.6zM238.4 175.1v.4h-2l1.2-1.6c.3-.5.4-.6.4-.8 0-.3-.2-.4-.5-.4s-.5.2-.5.6h-.4c0-.6.4-1 1-1s1 .3 1 .8-.1.5-.4.9l-.8 1.1h1.1z"/></g><g><path d="M443.7 67.3h-.7V62h.7v2.5l2.1-2.5h.8l-2.2 2.6 2.2 2.7h-.9l-2-2.5v2.5zM450.7 65.4c0 1.1-.8 1.9-1.9 1.9s-1.9-.8-1.9-1.9.8-1.9 1.9-1.9 1.9.8 1.9 1.9zm-3.1 0c0 .8.5 1.4 1.3 1.4s1.2-.6 1.2-1.4-.5-1.4-1.2-1.4-1.3.6-1.3 1.4zM454.8 66.8c-.4.4-.8.5-1.4.5-1.1 0-1.8-.8-1.8-1.9s.8-1.9 1.8-1.9 1 .2 1.3.6l-.4.4c-.3-.3-.6-.4-.9-.4-.7 0-1.2.6-1.2 1.4s.5 1.4 1.2 1.4.6-.1.9-.4l.4.4zM456.3 64.1c.3-.4.7-.6 1.1-.6s.7.1.9.3c.2.2.3.5.3 1v2.5h-.6v-2.4c0-.5-.2-.8-.7-.8s-.5.1-.7.3c-.2.2-.2.4-.2.7v2.2h-.6V62h.6v2.2zM460.3 65.6c0 .3 0 .5.2.7.2.3.6.5 1 .5s.9-.2 1.1-.6l.5.2c-.3.6-.9 1-1.6 1-1.1 0-1.9-.8-1.9-1.9s.8-1.9 1.9-1.9 1.9.8 1.9 1.9v.2h-3.1zm2.4-.4c0-.3 0-.4-.2-.6-.2-.3-.6-.5-1-.5s-.8.2-1 .5c-.1.2-.2.3-.2.6h2.4zM465 63.6v.5c.3-.4.6-.6 1.1-.6s.6.1.9.3c.2.2.3.5.3 1v2.5h-.6v-2.4c0-.3 0-.5-.1-.6-.1-.2-.3-.2-.6-.2s-.5.1-.7.3c-.2.2-.2.4-.2.7v2.2h-.6v-3.7h.6zM468.6 68.5h-.4l.7-2.1.6.2-.8 1.9zM473.7 64.3h2.1v.6h-2.1v1.8h2.1v.6H473V62h2.8v.6h-2.1v1.8zM478.7 64.6c0-.4-.3-.6-.7-.6s-.7.2-.7.5.2.4.8.6c.5.1.7.2.9.4.2.2.3.4.3.7 0 .6-.5 1.1-1.3 1.1s-1.3-.4-1.4-1.1h.6c0 .4.3.6.8.6s.7-.2.7-.5-.2-.5-.8-.6c-.8-.2-1.2-.6-1.2-1.1s.5-1.1 1.3-1.1 1.3.4 1.3 1.1h-.6zM482.3 64.6c0-.4-.3-.6-.7-.6s-.7.2-.7.5.2.4.8.6c.5.1.7.2.9.4.2.2.3.4.3.7 0 .6-.5 1.1-1.3 1.1s-1.3-.4-1.4-1.1h.6c0 .4.3.6.8.6s.7-.2.7-.5-.2-.5-.8-.6c-.8-.2-1.2-.6-1.2-1.1s.5-1.1 1.3-1.1 1.3.4 1.3 1.1h-.6zM484.4 65.6c0 .3 0 .5.2.7.2.3.6.5 1 .5s.9-.2 1.1-.6l.5.2c-.3.6-.9 1-1.6 1-1.1 0-1.9-.8-1.9-1.9s.8-1.9 1.9-1.9 1.9.8 1.9 1.9v.2h-3.1zm2.4-.4c0-.3 0-.4-.2-.6-.2-.3-.6-.5-1-.5s-.8.2-1 .5c-.1.2-.2.3-.2.6h2.4zM489.2 63.6v.5c.3-.4.6-.6 1.1-.6s.6.1.9.3c.2.2.3.5.3 1v2.5h-.6v-2.4c0-.3 0-.5-.1-.6-.1-.2-.3-.2-.6-.2s-.5.1-.7.3c-.2.2-.2.4-.2.7v2.2h-.6v-3.7h.6zM492.7 68.5h-.4l.7-2.1.6.2-.8 1.9zM448.5 70.9h.7l-1.6 5.3h-.6l-1.2-4.2-1.2 4.2h-.6l-1.6-5.3h.7l1.2 4.1 1.2-4.1h.6l1.1 4.1 1.2-4.1zM453.3 74.4c0 1.1-.8 1.9-1.9 1.9s-1.9-.8-1.9-1.9.8-1.9 1.9-1.9 1.9.8 1.9 1.9zm-3.1 0c0 .8.5 1.4 1.3 1.4s1.2-.6 1.2-1.4-.5-1.4-1.2-1.4-1.3.6-1.3 1.4zM455.1 73.1c.3-.4.7-.6 1.1-.6s.7.1.9.3c.2.2.3.5.3 1v2.5h-.6v-2.4c0-.5-.2-.8-.7-.8s-.5.1-.7.3c-.2.2-.2.4-.2.7v2.2h-.6V71h.6v2.2zM459.3 72.6v.5c.3-.4.6-.6 1.1-.6s.6.1.9.3c.2.2.3.5.3 1v2.5h-.6v-2.4c0-.3 0-.5-.1-.6-.1-.2-.3-.2-.6-.2s-.5.1-.7.3c-.2.2-.2.4-.2.7v2.2h-.6v-3.7h.6zM463.3 74.6c0 .3 0 .5.2.7.2.3.6.5 1 .5s.9-.2 1.1-.6l.5.2c-.3.6-.9 1-1.6 1-1.1 0-1.9-.8-1.9-1.9s.8-1.9 1.9-1.9 1.9.8 1.9 1.9v.2h-3.1zm2.4-.4c0-.3 0-.4-.2-.6-.2-.3-.6-.5-1-.5s-.8.2-1 .5c-.1.2-.2.3-.2.6h2.4zM468 72.6v.5c.3-.4.6-.6 1.1-.6s.6.1.9.3c.2.2.3.5.3 1v2.5h-.6v-2.4c0-.3 0-.5-.1-.6-.1-.2-.3-.2-.6-.2s-.5.1-.7.3c-.2.2-.2.4-.2.7v2.2h-.6v-3.7h.6zM443 80.6V80h3l-1.6 2c.9 0 1.6.7 1.6 1.6s-.8 1.7-1.8 1.7-1.4-.5-1.6-1.3h.6c.1.4.5.7 1 .7s1.2-.5 1.2-1.1-.5-1.1-1.2-1.1-.4 0-.6.2l-.3-.2 1.5-1.9h-1.9zM448.2 82.2c.2 0 .3-.1.5-.1.9 0 1.6.7 1.6 1.6s-.8 1.7-1.7 1.7-1.7-.8-1.7-1.7.1-.7.4-1.2l1.5-2.5h.7l-1.4 2.1zm-.7 1.5c0 .6.5 1.1 1.1 1.1s1.1-.5 1.1-1.1-.5-1.1-1.1-1.1-1.1.5-1.1 1.1zM452.2 84.9c0 .2-.2.4-.4.4s-.4-.2-.4-.4.2-.4.4-.4.4.2.4.4zM453.1 81.7v-.6l1.8-1.2v5.4h-.6v-4.4l-1.2.8zM460 81.6v.5c.3-.4.6-.6 1-.6s.8.2 1 .7c.3-.5.6-.7 1.2-.7s.7.1.9.4c.2.2.2.4.2 1v2.4h-.6v-2.2c0-.4 0-.6-.1-.7-.1-.2-.4-.3-.6-.3-.5 0-.8.4-.8 1v2.2h-.6v-2.2c0-.4 0-.5-.1-.7-.1-.2-.3-.3-.6-.3-.5 0-.9.4-.9 1v2.2h-.6v-3.7h.6zM467.6 82.8v.4h-2l1.2-1.6c.3-.5.4-.6.4-.8 0-.3-.2-.4-.5-.4s-.5.2-.5.6h-.4c0-.6.4-1 1-1s1 .3 1 .8-.1.5-.4.9l-.8 1.1h1.1z"/></g><g><path d="M170.6 186.7v.6h-2.5V182h.7v4.7h1.9zM172.2 182.6c0 .2-.2.4-.4.4s-.4-.2-.4-.4.2-.4.4-.4.4.2.4.4zm0 4.7h-.6v-3.7h.6v3.7zM174.2 187.3h-.6v-3.2h-.5v-.5h.5v-.5c0-.7.4-1.2 1-1.2h.2v.5c-.4 0-.6.2-.6.6v.5h.6v.5h-.6v3.2zM176.6 186.5c0 .2 0 .2.3.2h.3v.5h-.6c-.4 0-.6-.2-.6-.6V184h-.5v-.5h.5v-1.2h.6v1.2h.6v.5h-.6v2.4z"/></g><g><path d="M134.9 96.5h2.1v.6h-2.1v1.8h2.1v.6h-2.8v-5.3h2.8v.6h-2.1v1.8zM138.9 94.7c0 .2-.2.4-.4.4s-.4-.2-.4-.4.2-.4.4-.4.4.2.4.4zm0 4.7h-.6v-3.7h.6v3.7zM140.7 95.7v.5c.3-.4.6-.6 1.1-.6s.6.1.9.3c.2.2.3.5.3 1v2.5h-.6V97c0-.3 0-.5-.1-.6-.1-.2-.3-.2-.6-.2s-.5.1-.7.3c-.2.2-.2.4-.2.7v2.2h-.6v-3.7h.6zM147.1 95.7h.6v3.7c0 .6-.2 1-.5 1.4-.3.3-.8.5-1.4.5s-1.2-.2-1.6-.7l.4-.4c.2.2.2.2.4.3.2.1.6.2.9.2s.8-.1 1-.4c.2-.2.3-.5.3-.9v-.8c-.4.5-.8.8-1.4.8-1 0-1.7-.8-1.7-1.9s.2-1.2.6-1.5c.3-.3.7-.4 1.2-.4s.9.2 1.3.7v-.6zm-2.4 1.8c0 .8.5 1.4 1.2 1.4s.7-.2.9-.4c.2-.2.3-.5.3-.9s0-.7-.3-1c-.2-.2-.6-.4-.9-.4-.7 0-1.2.6-1.2 1.4zM151.9 95.7h.6v3.7h-.6v-.7c-.4.6-.8.8-1.3.8-1 0-1.7-.8-1.7-1.9s.7-1.9 1.8-1.9 1 .2 1.3.7v-.6zm-2.1.9c-.2.3-.3.6-.3 1 0 .8.5 1.4 1.2 1.4s1.3-.6 1.3-1.4-.5-1.4-1.2-1.4-.7.1-.9.4zM154.5 95.7v.5c.3-.4.6-.6 1.1-.6s.6.1.9.3c.2.2.3.5.3 1v2.5h-.6V97c0-.3 0-.5-.1-.6-.1-.2-.3-.2-.6-.2s-.5.1-.7.3c-.2.2-.2.4-.2.7v2.2h-.6v-3.7h.6zM160.9 95.7h.6v3.7c0 .6-.2 1-.5 1.4-.3.3-.8.5-1.4.5s-1.2-.2-1.6-.7l.4-.4c.2.2.2.2.4.3.2.1.6.2.9.2s.8-.1 1-.4c.2-.2.3-.5.3-.9v-.8c-.4.5-.8.8-1.4.8-1 0-1.7-.8-1.7-1.9s.2-1.2.6-1.5c.3-.3.7-.4 1.2-.4s.9.2 1.3.7v-.6zm-2.4 1.8c0 .8.5 1.4 1.2 1.4s.7-.2.9-.4c.2-.2.3-.5.3-.9s0-.7-.3-1c-.2-.2-.6-.4-.9-.4-.7 0-1.2.6-1.2 1.4z"/></g></g></svg>