<svg xmlns="http://www.w3.org/2000/svg" viewBox="0 0 614.7 425.2"><defs><style>.cls-1,.cls-10,.cls-11,.cls-12,.cls-13,.cls-14,.cls-15,.cls-16,.cls-17,.cls-18,.cls-19,.cls-2,.cls-20,.cls-21,.cls-22,.cls-23,.cls-24,.cls-25,.cls-3,.cls-4,.cls-5,.cls-6,.cls-7,.cls-8,.cls-9{fill:none}.cls-10,.cls-11,.cls-12,.cls-13,.cls-14,.cls-15,.cls-16,.cls-17,.cls-18,.cls-19,.cls-2,.cls-20,.cls-21,.cls-22,.cls-23,.cls-24,.cls-25,.cls-3,.cls-4,.cls-5,.cls-6,.cls-7,.cls-9{stroke-linecap:round;stroke-linejoin:round}.cls-10,.cls-11,.cls-12,.cls-13,.cls-14,.cls-15,.cls-16,.cls-17,.cls-19,.cls-2,.cls-20,.cls-21,.cls-22,.cls-24,.cls-25,.cls-3,.cls-4,.cls-5,.cls-6,.cls-9{stroke-width:.1px}.cls-12,.cls-16,.cls-18,.cls-19,.cls-2,.cls-21,.cls-22,.cls-23,.cls-24,.cls-4,.cls-5,.cls-9{stroke:#194164}.cls-12,.cls-16,.cls-2,.cls-21,.cls-9{stroke-dasharray:0 0 0 0 2.9 1.4 .2 1.4}.cls-3{stroke:#646464}.cls-10,.cls-11,.cls-13,.cls-14,.cls-15,.cls-17,.cls-19,.cls-24,.cls-25,.cls-4,.cls-5,.cls-6{stroke-dasharray:0 0 1.4 1.4}.cls-26{clip-path:url(#clippath)}.cls-5{stroke-dashoffset:1px}.cls-27,.cls-28{fill:#fff}.cls-10,.cls-11,.cls-13,.cls-14,.cls-15,.cls-17,.cls-20,.cls-25,.cls-6{stroke:#969696}.cls-7{stroke:#000;stroke-width:.3px}.cls-8{clip-rule:evenodd}.cls-29{clip-path:url(#clippath-1)}.cls-30{clip-path:url(#clippath-4)}.cls-31{clip-path:url(#clippath-3)}.cls-32{clip-path:url(#clippath-2)}.cls-9{stroke-dashoffset:4.3px}.cls-10{stroke-dashoffset:2.8px}.cls-11{stroke-dashoffset:1.1px}.cls-12{stroke-dashoffset:.5px}.cls-13{stroke-dashoffset:2.7px}.cls-14{stroke-dashoffset:2.5px}.cls-15{stroke-dashoffset:1.4px}.cls-16{stroke-dashoffset:2.4px}.cls-17,.cls-24{stroke-dashoffset:.7px}.cls-28{fill-rule:evenodd}.cls-18{stroke-width:.4px}.cls-19{stroke-dashoffset:.2px}.cls-21,.cls-25{stroke-dashoffset:1.2px}.cls-23{stroke-width:.3px}</style><clipPath id="clippath"><path class="cls-1" d="M40.7 0h574v425.2h-574z"/></clipPath><clipPath id="clippath-1"><path class="cls-8" d="M199.3 260.5l-7.2-7.2H.1v7.2h199.2"/></clipPath><clipPath id="clippath-2"><path class="cls-8" d="M199.3 260.5l-7.2-7.2H.1v7.2h199.2"/></clipPath><clipPath id="clippath-3"><path class="cls-8" d="M57.3 144.9H.1v6.9h64.1l-6.9-6.9"/></clipPath><clipPath id="clippath-4"><path class="cls-8" d="M57.3 144.9H.1v6.9h64.1l-6.9-6.9"/></clipPath></defs><g class="cls-26" id="Plan"><path class="cls-18" d="M116.8 162.1h29.8v39.8h-29.8z"/><path class="cls-22" d="M148.2 153.3h-35.3M130 156.4h13.9M117.3 159.3h13.9M148.2 210.9h-35.3M130 207.7h13.9M117.3 204.9h13.9M216.9 206.1h-17.6"/><path class="cls-7" d="M217.6 206.8h-18.3"/><path class="cls-22" d="M215.4 204.6h-16.1M216.9 206.1h-17.6M217.6 206.8h-18.3M215.4 204.6h-16.1M216.9 203.4v2.7"/><path class="cls-7" d="M217.6 203.4v3.4"/><path class="cls-22" d="M215.4 203.4v1.2M216.9 203.4v2.7M217.6 203.4v3.4M215.4 203.4v1.2"/><path class="cls-7" d="M216.9 203.4h.7"/><path class="cls-22" d="M215.4 203.4h1.5M471.7 360.9h7.7v33.6h-7.7zM479.4 360.9h7.4v33.6h-7.4zM486.9 360.9h7.7v33.6h-7.7z"/><path class="cls-28" d="M562.7 362.9v-.2s0-.1-.1-.2l-.2-.1h-.4s-.1 0-.2.1l-.1.2V392.6c0 .2 0 .4-.2.5 0 .2-.2.3-.3.5-.1.2-.2.3-.4.4l-.4.4c-.2.1-.3.2-.5.3-.2 0-.4.1-.5.2H463.5h-.2s-.1 0-.2.1l-.1.2v.4s0 .1.1.2l.2.1h95.5c.5 0 1-.1 1.5-.3.5-.2.9-.5 1.3-.8.4-.4.6-.8.8-1.3.2-.5.3-1 .3-1.5v-29.1"/><path class="cls-22" d="M562.7 362.9v-.2s0-.1-.1-.2l-.2-.1h-.4s-.1 0-.2.1l-.1.2V392.6c0 .2 0 .4-.2.5 0 .2-.2.3-.3.5-.1.2-.2.3-.4.4l-.4.4c-.2.1-.3.2-.5.3-.2 0-.4.1-.5.2H463.5h-.2s-.1 0-.2.1l-.1.2v.4s0 .1.1.2l.2.1h95.5c.5 0 1-.1 1.5-.3.5-.2.9-.5 1.3-.8.4-.4.6-.8.8-1.3.2-.5.3-1 .3-1.5v-29.1M491.9 374.8l2.6 2.9-2.6 2.8v-5.7z"/><path class="cls-22" d="M557.7 360.9h3.6v33.6h-66.8v-33.6h3.9"/><path class="cls-28" d="M199.3 203.4l-7.2-7.2V220h7.2v-16.6"/><path class="cls-20" d="M199.6 205.6l-7.2-7.2M199.6 209.7l-7.2-7.2M199.6 213.5l-7.2-7.2M199.6 217.6l-7.2-7.2M197.9 220l-5.5-5.5M193.8 220l-1.4-1.5M198.1 220l1.5-1.5M194.1 220l5.5-5.3M192.4 217.8l7.2-7.2M192.4 213.7l7.2-7.2M192.4 209.7l6.7-6.8M192.4 205.8l4.5-4.8M192.4 201.7l2.6-2.6M192.4 197.7l.7-.8"/><path class="cls-28" d="M199.3 203.4l-7.2-7.2V220h7.2v-16.6"/><path class="cls-20" d="M199.6 205.6l-7.2-7.2M199.6 209.7l-7.2-7.2M199.6 213.5l-7.2-7.2M199.6 217.6l-7.2-7.2M197.9 220l-5.5-5.5M193.8 220l-1.4-1.5M198.1 220l1.5-1.5M194.1 220l5.5-5.3M192.4 217.8l7.2-7.2M192.4 213.7l7.2-7.2M192.4 209.7l6.7-6.8M192.4 205.8l4.5-4.8M192.4 201.7l2.6-2.6M192.4 197.7l.7-.8"/><path class="cls-23" d="M199.3 220v-16.6M192.1 212.5v-16.3M192.1 220v-.5M192.1 212.5v-16.3M199.3 220v-16.6M192.1 220v-.5"/><path class="cls-28" d="M199.3 255.5h-4.8l4.8 5v-5"/><path class="cls-20" d="M199.6 257.7l-2.4-2.2M198.6 259.6l1-1M196.7 257.7l1.9-2.2"/><path class="cls-28" d="M199.3 255.5h-4.8l4.8 5v-5"/><path class="cls-20" d="M199.6 257.7l-2.4-2.2M198.6 259.6l1-1M196.7 257.7l1.9-2.2"/><path class="cls-23" d="M199.3 260.5"/><path class="cls-22" d="M198.1 253.1h1.7v2.4h-1.7zM198.1 220h1.7v5.8h-1.7z"/><path class="cls-22" d="M198.1 225.7h1.7v27.4h-1.7zM198.1 253.1v-27.4"/><path class="cls-2" d="M192.1 253.3v-27.8"/><path class="cls-22" d="M192.1 226v-.5"/><path class="cls-28" d="M192.1 255.5v-2.2h6v2.2"/><path class="cls-20" d="M197.2 255.5l-2.2-2.2M193.3 255.5l-.9-1M194.5 255.5l2.2-2.2M192.4 253.8l.5-.5"/><path class="cls-28" d="M192.1 220v5.5h6V220"/><path class="cls-20" d="M198.4 220.5l-.5-.5M198.4 224.5l-4.6-4.5M195.3 225.5l-2.9-3.1M196.5 225.5l1.9-1.7M192.6 225.5l5.5-5.5M192.4 221.9l1.7-1.9"/><path class="cls-23" d="M192.1 253.3h6M192.1 225.5h6M192.1 253.3h6M192.1 255.5v-2.2M192.1 225.5h6M192.1 220v5.5M199.3 255.5h-1.2M199.3 220h-1.2M192.1 255.5v-2.2M192.1 220v5.5M198.1 253.3v2.2M198.1 225.5V220"/><path class="cls-20" d="M227 253.1c0-14.9-12.3-27.2-27.2-27.2M199.8 253.1h27.1"/><path class="cls-28" d="M401.7 201c.9 1.3.9 3 0 4.3-1.5 1.9-3.8 2.9-6.2 2.9l-9-.3v-9.6l9-.3c2.4 0 4.7 1 6.2 2.9"/><path class="cls-22" d="M401.7 201c.9 1.3.9 3 0 4.3-1.5 1.9-3.8 2.9-6.2 2.9l-9-.3v-9.6l9-.3c2.4 0 4.7 1 6.2 2.9"/><path class="cls-28" d="M391.6 203.2c0-1 .3-2 1.1-2.8.7-.7 1.7-1.2 2.7-1.2 2.1 0 4.1.9 5.4 2.5.6.9.6 2 0 2.9-1.3 1.6-3.3 2.5-5.4 2.5-1 0-2-.4-2.7-1.2-.7-.7-1.1-1.8-1.1-2.8"/><path class="cls-22" d="M391.6 203.2c0-1 .3-2 1.1-2.8.7-.7 1.7-1.2 2.7-1.2 2.1 0 4.1.9 5.4 2.5.6.9.6 2 0 2.9-1.3 1.6-3.3 2.5-5.4 2.5-1 0-2-.4-2.7-1.2-.7-.7-1.1-1.8-1.1-2.8"/><path class="cls-28" d="M386.9 146.2H435l.1.1.1.1V167.3h-.1v.1h-.1l-.1.1h-48.1l-.1-.1-.1-.1h-.1V146.4l.1-.1h.1v-.1h.2"/><path class="cls-22" d="M386.9 146.2H435l.1.1.1.1V167.3h-.1v.1h-.1l-.1.1h-48.1l-.1-.1-.1-.1h-.1V146.4l.1-.1h.1v-.1h.2"/><path class="cls-28" d="M392.1 148.3h37.4c.4 0 .9 0 1.3.3.4.2.8.4 1.1.7.3.3.6.7.7 1.1.2.4.3.9.3 1.3v10.2c0 .4 0 .9-.3 1.3-.2.4-.4.8-.7 1.1-.3.3-.7.6-1.1.7-.4.2-.9.3-1.3.3h-37.4c-.4 0-.9 0-1.3-.3-.4-.2-.8-.4-1.1-.7-.3-.3-.6-.7-.7-1.1s-.3-.9-.3-1.3v-10.2c0-.4 0-.9.3-1.3.2-.4.4-.8.7-1.1.3-.3.7-.6 1.1-.7s.9-.3 1.3-.3"/><path class="cls-22" d="M392.1 148.3h37.4c.4 0 .9 0 1.3.3.4.2.8.4 1.1.7.3.3.6.7.7 1.1.2.4.3.9.3 1.3v10.2c0 .4 0 .9-.3 1.3-.2.4-.4.8-.7 1.1-.3.3-.7.6-1.1.7-.4.2-.9.3-1.3.3h-37.4c-.4 0-.9 0-1.3-.3-.4-.2-.8-.4-1.1-.7-.3-.3-.6-.7-.7-1.1s-.3-.9-.3-1.3v-10.2c0-.4 0-.9.3-1.3.2-.4.4-.8.7-1.1.3-.3.7-.6 1.1-.7s.9-.3 1.3-.3M385.8 217.1v-24.5"/><path class="cls-7" d="M386.5 217.1v-25.2"/><path class="cls-22" d="M384.4 217.1v-23M385.8 217.1v-24.5M386.5 217.1v-25.2M384.4 217.1v-23"/><path class="cls-7" d="M385.8 217.1h.7"/><path class="cls-22" d="M384.4 217.1h1.4M382 192.6v-18.5"/><path class="cls-7" d="M382.7 191.9v-17"/><path class="cls-22" d="M380.5 194.1v-21.4M382 192.6v-18.5M382.7 191.9v-17M380.5 194.1v-21.4M385.8 174.1v-28.3"/><path class="cls-7" d="M386.5 174.9v-29.1"/><path class="cls-22" d="M384.4 172.7v-26.9M385.8 174.1v-28.3"/><path class="cls-7" d="M385.8 145.8h.7"/><path class="cls-22" d="M384.4 145.8h1.4M386.5 174.9v-29.1M384.4 172.7v-26.9"/><path class="cls-28" d="M386.5 175.5h12.4c.1 0 .3.1.4.2.1.1.2.2.2.4V190.2c0 .1-.1.3-.2.4s-.2.2-.4.2h-12.4v-15.6"/><path class="cls-22" d="M386.5 175.5h12.4c.1 0 .3.1.4.2.1.1.2.2.2.4V190.2c0 .1-.1.3-.2.4s-.2.2-.4.2h-12.4v-15.6"/><path class="cls-19" d="M386.5 191.9h-3.8"/><path class="cls-5" d="M382.7 191.9v-17"/><path class="cls-19" d="M382.7 174.9h3.8"/><path class="cls-22" d="M382 174.1h3.8"/><path class="cls-7" d="M382.7 174.9h3.8"/><path class="cls-22" d="M380.5 172.7h3.9M382 174.1h3.8M382.7 174.9h3.8M380.5 172.7h3.9M385.8 192.6H382"/><path class="cls-7" d="M386.5 191.9h-3.8"/><path class="cls-22" d="M384.4 194.1h-3.9M385.8 192.6H382M386.5 191.9h-3.8M384.4 194.1h-3.9"/><path class="cls-7" d="M386.5 191.9v-17"/><path class="cls-28" d="M137.4 20.5v3.4h19v-3.4h-19"/><path class="cls-20" d="M137.7 23.4l.4.5M138.6 20.5l3.4 3.4M142.7 20.5l3.4 3.4M146.8 20.5l3.3 3.4M150.6 20.5l3.4 3.4M154.7 20.5l1.9 1.7"/><path class="cls-28" d="M137.4 23.9v.5h19v-.5h-19M137.4 24.4v5.7h19v-5.7h-19"/><path class="cls-20" d="M156.1 30.1v-5.7M154.7 30.1v-5.7M153.3 30.1v-5.7M151.8 30.1v-5.7M150.4 30.1v-5.7M148.9 30.1v-5.7M147.5 30.1v-5.7M146.3 30.1v-5.7M144.9 30.1v-5.7M143.4 30.1v-5.7M142 30.1v-5.7M140.5 30.1v-5.7M139.1 30.1v-5.7M137.7 30.1v-5.7"/><path class="cls-28" d="M149.4 35.2l7-5.1h-19v5.1h12"/><path class="cls-20" d="M154 31.8l-1.7-1.7M151.8 33.5l-3.6-3.4M149.4 35.2l-5-5.1M145.3 35.2l-5-5.1M141.3 35.2l-3.6-3.9M152.5 33l2.9-2.9M146.3 35.2l5-5.1M142.5 35.2l5-5.1M138.4 35.2l5-5.1M137.7 32.1l1.6-2"/><path class="cls-23" d="M137.4 23.9h19M137.4 20.5h19"/><path class="cls-20" d="M137.4 30.1h19M137.4 24.4h19"/><path class="cls-23" d="M137.4 35.2h12M137.4 30.1h19"/><path class="cls-22" d="M137.4 20.5h19M137.4 35.2h12"/><path class="cls-28" d="M57.3 20.5v3.4h20.8v-3.4H57.3"/><path class="cls-20" d="M57.5 23.4l.2.5M58.5 20.5l3.3 3.4M62.5 20.5l3.4 3.4M66.6 20.5l3.4 3.4M70.5 20.5l3.3 3.4M74.5 20.5l3.4 3.4"/><path class="cls-28" d="M57.3 23.9v.5h20.8v-.5H57.3M57.3 24.4v5.7h20.8v-5.7H57.3"/><path class="cls-20" d="M78.1 30.1v-5.7M76.7 30.1v-5.7M75.3 30.1v-5.7M73.8 30.1v-5.7M72.4 30.1v-5.7M71.2 30.1v-5.7M69.7 30.1v-5.7M68.3 30.1v-5.7M66.9 30.1v-5.7M65.4 30.1v-5.7M64 30.1v-5.7M62.5 30.1v-5.7M61.1 30.1v-5.7M59.7 30.1v-5.7M58.2 30.1v-5.7"/><path class="cls-28" d="M78.1 30.1H57.3l6.9 5.1h13.9v-5.1"/><path class="cls-20" d="M78.4 32.3l-2.2-2.2M77.2 35.2l-5.1-5.1M73.1 35.2l-5-5.1M69 35.2l-5-5.1M65.2 35.2l-5.1-5.1M78.1 35.2h.3M74.3 35.2l4.1-4.1M70.2 35.2l5.1-5.1M66.1 35.2l5.1-5.1M63 34.2l4.3-4.1M60.9 32.5l2.4-2.4M58.5 30.9l.7-.8"/><path class="cls-23" d="M57.3 23.9h20.8M57.3 20.5h20.8"/><path class="cls-20" d="M57.3 30.1h20.8M57.3 24.4h20.8"/><path class="cls-23" d="M64.2 35.2h13.9M57.3 30.1h20.8"/><path class="cls-22" d="M57.3 20.5h20.8M64.2 35.2h13.9"/><path class="cls-2" d="M78.9 30.1v5.1"/><path class="cls-22" d="M78.9 34.7v.5"/><path class="cls-2" d="M78.9 35.2h57.8"/><path class="cls-22" d="M136.2 35.2h.5"/><path class="cls-9" d="M136.7 35.2v-5.1"/><path class="cls-22" d="M136.7 30.6v-.5"/><path class="cls-2" d="M78.1 27.7v-7.2"/><path class="cls-21" d="M78.1 20.5h-3.3"/><path class="cls-22" d="M74.8 19.1v-.5"/><path class="cls-12" d="M74.8 18.6h66"/><path class="cls-22" d="M140.8 18.6v1.9"/><path class="cls-16" d="M140.8 20.5h-3.4"/><path class="cls-2" d="M137.4 20.5v7.2"/><path class="cls-23" d="M78.1 20.5h-3.3M137.4 20.5h3.4"/><path class="cls-22" d="M78.1 27.7h59.3v2.4H78.1zM82 27.7v2.4M133.8 27.7v2.4M78.1 30.1v-2.4M105.7 30.1v-2.4M82 30.1v-2.4M109.8 30.1v-2.4M105.7 30.1v-2.4M133.8 30.1v-2.4M109.8 30.1v-2.4M137.4 30.1v-2.4"/><path class="cls-23" d="M78.1 20.5v3.4"/><path class="cls-18" d="M78.1 23.9v3.8"/><path class="cls-28" d="M78.1 35.2h.8v-5.1h-.8"/><path class="cls-20" d="M79.1 33l-.7-.7M78.4 35.2l.7-.7M78.4 31.1l.7-.7"/><path class="cls-23" d="M78.1 35.2h.8v-5.1h-.8M137.4 20.5v3.4"/><path class="cls-18" d="M137.4 23.9v3.8"/><path class="cls-28" d="M137.4 35.2h-.7v-5.1h.7"/><path class="cls-20" d="M137.7 31.3l-.8-.7M137.2 35.2l-.3-.5M136.9 32.8l.8-.7"/><path class="cls-23" d="M137.4 35.2h-.7v-5.1h.7"/><path class="cls-28" d="M496.5 360.6v-3.3h-80.9v3.3h80.9"/><path class="cls-20" d="M415.8 357.7l2.9 2.9M419.2 357.3l3.3 3.3M423.3 357.3l3.3 3.3M427.3 357.3l3.4 3.3M431.4 357.3l3.4 3.3M435.3 357.3l3.3 3.3M439.3 357.3l3.4 3.3M443.4 357.3l3.4 3.3M447.3 357.3l3.3 3.3M451.3 357.3l3.4 3.3M455.4 357.3l3.4 3.3M459.3 357.3l3.3 3.3M463.3 357.3l3.4 3.3M467.4 357.3l3.4 3.3M471.5 357.3l3.4 3.3M475.3 357.3l3.4 3.3M479.4 357.3l3.4 3.3M483.5 357.3l3.4 3.3M487.3 357.3l3.4 3.3M491.4 357.3l3.4 3.3M495.5 357.3l1.2 1.2"/><path class="cls-28" d="M496.5 357.3v-.5h-80.9v.5h80.9M496.5 356.8V351h-80.9v5.8h80.9"/><path class="cls-20" d="M417 351v5.8M418.2 351v5.8M419.7 351v5.8M421.1 351v5.8M422.5 351v5.8M424 351v5.8M425.4 351v5.8M426.9 351v5.8M428.3 351v5.8M429.7 351v5.8M431.2 351v5.8M432.4 351v5.8M433.8 351v5.8M435.3 351v5.8M436.7 351v5.8M438.1 351v5.8M439.6 351v5.8M441 351v5.8M442.5 351v5.8M443.9 351v5.8M445.3 351v5.8M446.8 351v5.8M448 351v5.8M449.4 351v5.8M450.9 351v5.8M452.3 351v5.8M453.7 351v5.8M455.2 351v5.8M456.6 351v5.8M458.1 351v5.8M459.5 351v5.8M460.9 351v5.8M462.1 351v5.8M463.6 351v5.8M465 351v5.8M466.5 351v5.8M467.9 351v5.8M469.3 351v5.8M470.8 351v5.8M472.2 351v5.8M473.7 351v5.8M475.1 351v5.8M476.5 351v5.8M477.7 351v5.8M479.2 351v5.8M480.6 351v5.8M482.1 351v5.8M483.5 351v5.8M484.9 351v5.8M486.4 351v5.8M487.8 351v5.8M489.3 351v5.8M490.7 351v5.8M492.1 351v5.8M493.3 351v5.8M494.8 351v5.8M496.2 351v5.8"/><path class="cls-28" d="M496.5 351v-5h-80.9v5h80.9"/><path class="cls-20" d="M496.7 346.5l-.5-.5M496.7 350.3l-4.6-4.3M493.1 351l-5-5M489.3 351l-5.1-5M485.2 351l-5.1-5M481.1 351l-5-5M477.3 351l-5.1-5M473.2 351l-5.1-5M469.1 351l-5-5M465.3 351l-5.1-5M461.2 351l-5.1-5M457.1 351l-5-5M453 351l-5-5M449.2 351l-5.1-5M445.1 351l-5-5M441 351l-5-5M437.2 351l-5.1-5M433.1 351l-5-5M429 351l-5-5M425.2 351l-5.1-5M421.1 351l-5-5M417 351l-1.2-1.4M496 351l.7-.5M491.9 351l4.8-4.5M488.1 351l5-5M484 351l5-5M479.9 351l5-5M476.1 351l5-5M472 351l5-5M467.9 351l5-5M463.8 351l5.1-5M460 351l5-5M455.9 351l5-5M451.8 351l5.1-5M448 351l5-5M443.9 351l5-5M439.8 351l5.1-5M435.7 351l5.1-5M431.9 351l5-5M427.8 351l5.1-5M423.7 351l5.1-5M419.9 351l5-5M415.8 351l5.1-5M415.8 347.2l1-1.2"/><path class="cls-23" d="M496.5 357.3h-80.9M496.5 360.6h-80.9"/><path class="cls-20" d="M496.5 351h-80.9M496.5 356.8h-80.9"/><path class="cls-23" d="M496.5 346h-80.9M496.5 351h-80.9"/><path class="cls-22" d="M496.5 360.6h-80.9M496.5 346h-80.9"/><path class="cls-28" d="M593.4 360.6l-3.6-3.3h-30.5v3.3h34.1"/><path class="cls-20" d="M559.6 357.3l3.3 3.3M563.7 357.3l3.3 3.3M567.5 357.3l3.4 3.3M571.6 357.3l3.3 3.3M575.7 357.3l3.3 3.3M579.7 357.3l3.4 3.3M583.6 357.3l3.3 3.3M587.7 357.3l3.3 3.3"/><path class="cls-28" d="M589.8 357.3l-.7-.5h-29.8v.5h30.5M589.1 356.8l-6-5.8h-23.8v5.8h29.8"/><path class="cls-20" d="M560.1 351v5.8M561.5 351v5.8M562.9 351v5.8M564.4 351v5.8M565.8 351v5.8M567 351v5.8M568.5 351v5.8M569.9 351v5.8M571.3 351v5.8M572.8 351v5.8M574.2 351v5.8M575.7 351v5.8M577.1 351v5.8M578.5 351v5.8M580 351v5.8M581.4 351v5.8M582.6 351v5.8M584.1 352v4.8M585.5 353.2v3.6M586.9 354.6v2.2M588.4 356.1v.7"/><path class="cls-28" d="M583.1 351l-5.3-5h-18.5v5h23.8"/><path class="cls-20" d="M581.4 351l-5-5M577.3 351l-5-5M573.5 351l-5-5M569.4 351l-5-5M565.3 351l-5-5M561.3 351l-1.7-1.9M580.2 351l1.5-1.4M576.1 351l3.4-3.3M572.1 351l5-5M568.2 351l5.1-5M564.1 351l5.1-5M560.1 351l5-5M559.6 347.7l1.7-1.7"/><path class="cls-23" d="M589.8 357.3h-30.5M593.4 360.6h-34.1"/><path class="cls-20" d="M583.1 351h-23.8M589.1 356.8h-29.8"/><path class="cls-23" d="M577.8 346h-18.5M583.1 351h-23.8"/><path class="cls-22" d="M593.4 360.6h-34.1M577.8 346h-18.5M557.7 353.2v9.3h-59.3v-9.3"/><path class="cls-2" d="M559.3 346h-62.8"/><path class="cls-22" d="M496.5 351h62.9v2.2h-62.9zM555.7 353.2V351M500.1 353.2V351M559.3 351v2.2M540.4 351v2.2M555.7 351v2.2M536.3 351v2.2M540.4 351v2.2M519.5 351v2.2M536.3 351v2.2M515.4 351v2.2M519.5 351v2.2M500.1 351v2.2M515.4 351v2.2M496.5 351v2.2"/><path class="cls-28" d="M559.4 356.7h-1.8v-3.4h1.8"/><path class="cls-20" d="M558.6 353.2v3.6M559.4 356.7h-1.8v-3.4h1.8"/><path class="cls-23" d="M559.3 351v-5"/><path class="cls-28" d="M559.3 360.6h-1.6v-3.3h1.6"/><path class="cls-20" d="M557.9 359.4l1 1.2"/><path class="cls-23" d="M559.3 360.6h-1.6v-3.3h1.6"/><path class="cls-18" d="M557.7 357.3v-4.1"/><path class="cls-28" d="M496.5 356.7h1.8v-3.4h-1.8"/><path class="cls-20" d="M497.7 353.2v3.6M496.5 356.7h1.8v-3.4h-1.8"/><path class="cls-23" d="M496.5 351v-5"/><path class="cls-28" d="M496.5 360.6h1.9v-3.3h-1.9"/><path class="cls-20" d="M496.7 358.5l1.9 1.9"/><path class="cls-23" d="M496.5 360.6h1.9v-3.3h-1.9"/><path class="cls-18" d="M498.4 357.3v-4.1"/><path class="cls-28" d="M120.6 360.6v-3.3H95.2v3.3h25.4"/><path class="cls-20" d="M95.4 358l2.4 2.6M98.5 357.3l3.4 3.3M102.6 357.3l3.4 3.3M106.7 357.3l3.4 3.3M110.5 357.3l3.4 3.3M114.6 357.3l3.4 3.3M118.7 357.3l2.2 2.1"/><path class="cls-28" d="M120.6 357.3v-.5H95.2v.5h25.4M120.6 356.8V351H95.2v5.8h25.4"/><path class="cls-20" d="M96.6 351v5.8M98.1 351v5.8M99.5 351v5.8M100.9 351v5.8M102.1 351v5.8M103.6 351v5.8M105 351v5.8M106.5 351v5.8M107.9 351v5.8M109.3 351v5.8M110.8 351v5.8M112.2 351v5.8M113.7 351v5.8M115.1 351v5.8M116.5 351v5.8M117.7 351v5.8M119.2 351v5.8M120.6 351v5.8"/><path class="cls-28" d="M120.6 351v-5H95.2v5h25.4"/><path class="cls-20" d="M95.4 350.1l1 .9M95.4 346l5.1 5M99.3 346l5 5M103.3 346l5.1 5M107.4 346l5.1 5M111.3 346l5 5M115.3 346l5.1 5M119.4 346l1.5 1.4"/><path class="cls-23" d="M120.6 357.3H95.2M120.6 360.6H95.2"/><path class="cls-20" d="M120.6 351H95.2M120.6 356.8H95.2"/><path class="cls-23" d="M120.6 346H95.2M120.6 351H95.2"/><path class="cls-22" d="M120.6 360.6H95.2M120.6 346H95.2"/><path class="cls-28" d="M290.1 360.6v-3.3H183.5v3.3h106.6"/><path class="cls-20" d="M183.7 358.2l2.4 2.4M186.9 357.3l3.3 3.3M190.7 357.3l3.4 3.3M194.8 357.3l3.3 3.3M198.9 357.3l3.3 3.3M202.7 357.3l3.4 3.3M206.8 357.3l3.3 3.3M210.9 357.3l3.3 3.3M214.9 357.3l3.4 3.3M218.8 357.3l3.3 3.3M222.9 357.3l3.3 3.3M226.9 357.3l3.4 3.3M230.8 357.3l3.3 3.3M234.9 357.3l3.3 3.3M238.9 357.3l3.4 3.3M242.8 357.3l3.3 3.3M246.9 357.3l3.3 3.3M250.9 357.3l3.4 3.3M255 357.3l3.4 3.3M258.9 357.3l3.3 3.3M262.9 357.3l3.4 3.3M267 357.3l3.4 3.3M270.9 357.3l3.3 3.3M274.9 357.3l3.4 3.3M279 357.3l3.4 3.3M283.1 357.3l3.4 3.3M286.9 357.3l3.4 3.1"/><path class="cls-28" d="M290.1 357.3v-.5H183.5v.5h106.6M290.1 356.8V351H183.5v5.8h106.6"/><path class="cls-20" d="M184.5 351v5.8M185.9 351v5.8M187.3 351v5.8M188.8 351v5.8M190.2 351v5.8M191.7 351v5.8M192.9 351v5.8M194.3 351v5.8M195.7 351v5.8M197.2 351v5.8M198.6 351v5.8M200.1 351v5.8M201.5 351v5.8M202.9 351v5.8M204.4 351v5.8M205.8 351v5.8M207 351v5.8M208.5 351v5.8M209.9 351v5.8M211.3 351v5.8M212.8 351v5.8M214.2 351v5.8M215.7 351v5.8M217.1 351v5.8M218.5 351v5.8M220 351v5.8M221.4 351v5.8M222.6 351v5.8M224.1 351v5.8M225.5 351v5.8M226.9 351v5.8M228.4 351v5.8M229.8 351v5.8M231.3 351v5.8M232.7 351v5.8M234.1 351v5.8M235.6 351v5.8M237 351v5.8M238.2 351v5.8M239.7 351v5.8M241.1 351v5.8M242.5 351v5.8M244 351v5.8M245.4 351v5.8M246.9 351v5.8M248.3 351v5.8M249.7 351v5.8M251.2 351v5.8M252.4 351v5.8M253.8 351v5.8M255.3 351v5.8M256.7 351v5.8M258.1 351v5.8M259.6 351v5.8M261 351v5.8M262.5 351v5.8M263.9 351v5.8M265.3 351v5.8M266.8 351v5.8M268 351v5.8M269.4 351v5.8M270.9 351v5.8M272.3 351v5.8M273.7 351v5.8M275.2 351v5.8M276.6 351v5.8M278.1 351v5.8M279.5 351v5.8M280.9 351v5.8M282.1 351v5.8M283.6 351v5.8M285 351v5.8M286.5 351v5.8M287.9 351v5.8M289.3 351v5.8"/><path class="cls-28" d="M290.1 351v-5H183.5v5h106.6"/><path class="cls-20" d="M183.7 350.1l.8.9M183.7 346l4.8 5M187.6 346l5 5M191.4 346l5.1 5M195.5 346l5 5M199.6 346l5 5M203.7 346l5 5M207.5 346l5 5M211.6 346l5 5M215.7 346l5 5M219.5 346l5 5M223.6 346l5 5M227.7 346l5 5M231.5 346l5 5M235.6 346l5 5M239.7 346l5 5M243.7 346l5.1 5M247.6 346l5 5M251.7 346l5 5M255.7 346l5.1 5M259.6 346l5 5M263.7 346l5 5M267.7 346l5.1 5M271.8 346l5.1 5M275.7 346l5 5M279.7 346l5.1 5M283.8 346l5.1 5M287.7 346l2.6 2.4"/><path class="cls-23" d="M290.1 357.3H183.5M290.1 360.6H183.5"/><path class="cls-20" d="M290.1 351H183.5M290.1 356.8H183.5"/><path class="cls-23" d="M290.1 346H183.5M290.1 351H183.5"/><path class="cls-22" d="M290.1 360.6H183.5M231.7 346h-48.2M290.1 346h-54"/><path class="cls-28" d="M374.8 360.6v-3.3h-43.9v3.3h43.9"/><path class="cls-20" d="M331.1 357.3l3.4 3.3M335.2 357.3l3.3 3.3M339 357.3l3.4 3.3M343.1 357.3l3.4 3.3M347.2 357.3l3.3 3.3M351 357.3l3.4 3.3M355.1 357.3l3.4 3.3M359.2 357.3l3.3 3.3M363.3 357.3l3.3 3.3M367.1 357.3l3.4 3.3M371.2 357.3l3.3 3.3"/><path class="cls-28" d="M374.8 357.3v-.5h-43.9v.5h43.9M374.8 356.8V351h-43.9v5.8h43.9"/><path class="cls-20" d="M331.8 351v5.8M333.3 351v5.8M334.7 351v5.8M336.1 351v5.8M337.6 351v5.8M339 351v5.8M340.5 351v5.8M341.9 351v5.8M343.1 351v5.8M344.5 351v5.8M346 351v5.8M347.4 351v5.8M348.9 351v5.8M350.3 351v5.8M351.7 351v5.8M353.2 351v5.8M354.6 351v5.8M356.1 351v5.8M357.3 351v5.8M358.7 351v5.8M360.1 351v5.8M361.6 351v5.8M363 351v5.8M364.5 351v5.8M365.9 351v5.8M367.3 351v5.8M368.8 351v5.8M370.2 351v5.8M371.7 351v5.8M372.9 351v5.8M374.3 351v5.8"/><path class="cls-28" d="M374.8 351v-5h-43.9v5h43.9"/><path class="cls-20" d="M331.1 349.1l1.7 1.9M331.8 346l5.1 5M335.9 346l5 5M339.7 346l5.1 5M343.8 346l5.1 5M347.9 346l5 5M352 346l5 5M355.8 346l5.1 5M359.9 346l5 5M364 346l5 5M367.8 346l5.1 5M371.9 346l3.1 2.9"/><path class="cls-23" d="M374.8 357.3h-43.9M374.8 360.6h-43.9"/><path class="cls-20" d="M374.8 351h-43.9M374.8 356.8h-43.9"/><path class="cls-23" d="M374.8 346h-43.9M374.8 351h-43.9"/><path class="cls-22" d="M374.8 360.6h-43.9M374.8 346h-43.9M181.6 353.2v7.4h3.6v1.9h-66.3v-1.9h3.6v-7.4"/><path class="cls-2" d="M183.5 346h-62.9"/><path class="cls-23" d="M181.6 360.6h3.6M122.5 360.6h-3.6"/><path class="cls-22" d="M120.6 351h62.9v2.2h-62.9zM179.9 353.2V351M124.2 353.2V351M183.5 351v2.2M164.5 351v2.2M179.9 351v2.2M160.5 351v2.2M164.5 351v2.2M143.7 351v2.2M160.5 351v2.2M139.6 351v2.2M143.7 351v2.2M124.2 351v2.2M139.6 351v2.2M120.6 351v2.2"/><path class="cls-28" d="M183.5 356.7h-1.8v-3.4h1.8"/><path class="cls-20" d="M183 353.2v3.6M183.5 356.7h-1.8v-3.4h1.8"/><path class="cls-23" d="M183.5 351v-5"/><path class="cls-28" d="M183.5 360.6h-1.9v-3.3h1.9"/><path class="cls-20" d="M181.8 360.1l.3.5M182.8 357.3l.9.9"/><path class="cls-23" d="M183.5 360.6h-1.9v-3.3h1.9"/><path class="cls-18" d="M181.6 357.3v-4.1"/><path class="cls-28" d="M120.6 356.7h1.8v-3.4h-1.8"/><path class="cls-20" d="M122.1 353.2v3.6M120.6 356.7h1.8v-3.4h-1.8"/><path class="cls-23" d="M120.6 351v-5"/><path class="cls-28" d="M120.6 360.6h1.9v-3.3h-1.9"/><path class="cls-20" d="M120.9 359.4l1.2 1.2M122.5 357.3h.3"/><path class="cls-23" d="M120.6 360.6h1.9v-3.3h-1.9"/><path class="cls-18" d="M122.5 357.3v-4.1"/><path class="cls-22" d="M329.2 353.2v7.4h3.3v1.9h-43.9v-1.9h3.4v-7.4"/><path class="cls-2" d="M330.9 346h-40.8"/><path class="cls-22" d="M290.5 346h-.4"/><path class="cls-23" d="M329.2 360.6h3.3M292 360.6h-3.4"/><path class="cls-22" d="M290.1 351h40.8v2.2h-40.8zM327.3 353.2V351M293.9 353.2V351M330.9 351v2.2M312.6 351v2.2M327.3 351v2.2M308.5 351v2.2M312.6 351v2.2M293.9 351v2.2M308.5 351v2.2M290.1 351v2.2"/><path class="cls-28" d="M330.9 356.7h-1.8v-3.4h1.8"/><path class="cls-20" d="M330.4 353.2v3.6M330.9 356.7h-1.8v-3.4h1.8"/><path class="cls-23" d="M330.9 351v-5"/><path class="cls-28" d="M330.9 360.6h-1.7v-3.3h1.7"/><path class="cls-20" d="M329.4 359.4l1 1.2"/><path class="cls-23" d="M330.9 360.6h-1.7v-3.3h1.7"/><path class="cls-18" d="M329.2 357.3v-4.1"/><path class="cls-28" d="M290.1 356.7h1.8v-3.4h-1.8"/><path class="cls-20" d="M290.8 353.2v3.6M290.1 356.7h1.8v-3.4h-1.8"/><path class="cls-23" d="M290.1 351v-5"/><path class="cls-28" d="M290.1 360.6h1.9v-3.3h-1.9"/><path class="cls-20" d="M290.3 360.4v.2M291 357.3l1.2 1.2"/><path class="cls-23" d="M290.1 360.6h1.9v-3.3h-1.9"/><path class="cls-18" d="M292 357.3v-4.1"/><path class="cls-22" d="M413.9 353.2v7.4h3.4v1.9h-44v-1.9h3.4v-7.4"/><path class="cls-2" d="M415.6 346h-40.8"/><path class="cls-22" d="M375.3 346h-.5"/><path class="cls-23" d="M413.9 360.6h3.4M376.7 360.6h-3.4"/><path class="cls-22" d="M374.8 351h40.8v2.2h-40.8zM412 353.2V351M378.6 353.2V351M415.6 351v2.2M397.3 351v2.2M412 351v2.2M393.3 351v2.2M397.3 351v2.2M378.6 351v2.2M393.3 351v2.2M374.8 351v2.2"/><path class="cls-28" d="M415.7 356.7h-1.9v-3.4h1.9"/><path class="cls-20" d="M414.1 353.2v3.6M415.6 353.2v3.6M415.7 356.7h-1.9v-3.4h1.9"/><path class="cls-23" d="M415.6 351v-5"/><path class="cls-28" d="M415.6 360.6h-1.7v-3.3h1.7"/><path class="cls-20" d="M414.1 359.9l.5.7M415.3 357.3l.5.4"/><path class="cls-23" d="M415.6 360.6h-1.7v-3.3h1.7"/><path class="cls-18" d="M413.9 357.3v-4.1"/><path class="cls-28" d="M374.9 356.7h1.8v-3.4h-1.8"/><path class="cls-20" d="M375.7 353.2v3.6M374.9 356.7h1.8v-3.4h-1.8"/><path class="cls-23" d="M374.8 351v-5"/><path class="cls-28" d="M374.8 360.6h1.9v-3.3h-1.9"/><path class="cls-20" d="M375.3 357.3l1.6 1.6"/><path class="cls-23" d="M374.8 360.6h1.9v-3.3h-1.9"/><path class="cls-18" d="M376.7 357.3v-4.1"/><path class="cls-28" d="M589.3 203.7H586l3.8 153.6 3.6 3.3-4.1-156.9"/><path class="cls-20" d="M589.8 355.6l3.6 3.6M589.8 351.5l3.6 3.6M589.6 347.2l3.6 3.6M589.6 343.1l3.6 3.6M589.6 339l3.6 3.6M589.3 334.9l3.6 3.6M589.3 330.9l3.6 3.6M589.1 326.8l3.6 3.6M589.1 322.7l3.6 3.4M588.9 318.4l3.6 3.6M588.9 314.3l3.6 3.6M588.9 310.2l3.3 3.6M588.6 306.1l3.6 3.6M588.6 302.1l3.6 3.6M588.4 298l3.6 3.6M588.4 293.9l3.6 3.4M588.1 289.8l3.6 3.4M588.1 285.5l3.6 3.6M588.1 281.4l3.4 3.6M587.9 277.3l3.6 3.6M587.9 273.3l3.4 3.6M587.7 269.2l3.6 3.6M587.7 265.1l3.6 3.4M587.4 261l3.6 3.4M587.4 256.9l3.6 3.4M587.4 252.6l3.4 3.6M587.2 248.5l3.6 3.6M587.2 244.5l3.3 3.6M586.9 240.4l3.6 3.6M586.9 236.3l3.4 3.4M586.7 232.2l3.6 3.4M586.7 228.1l3.6 3.4M586.7 223.8l3.4 3.6M586.5 219.7l3.6 3.6M586.5 215.7l3.3 3.6M586.2 211.6l3.6 3.3M586.2 207.5l3.4 3.4M586.5 203.7l3.1 3.1"/><path class="cls-28" d="M586 203.7h-.5l3.8 153.1.5.5-3.8-153.6"/><path class="cls-28" d="M585.5 203.7h-5.8l3.9 147.6 5.7 5.5-3.8-153.1"/><path class="cls-20" d="M588.1 355.6h1.2M586.7 354.1h2.6M585.3 352.7h4M583.8 351.5l5.5-.2M583.6 350.1l5.7-.3M583.6 348.6l5.7-.2M583.6 347.2l5.5-.3M583.6 345.7l5.5-.2M583.6 344.3h5.5M583.6 342.9h5.5M583.3 341.4h5.8M583.3 340h5.8M583.3 338.8l5.8-.3M583.3 337.3l5.6-.2M583.3 335.9l5.6-.2M583.3 334.5l5.6-.3M583.3 333l5.6-.2M583.1 331.6l5.8-.3M583.1 330.1h5.8M583.1 328.7h5.8M583.1 327.3h5.5M583.1 325.8h5.5M583.1 324.6l5.5-.2M582.9 323.2l5.7-.3M582.9 321.7l5.7-.2M582.9 320.3l5.7-.2M582.9 318.9l5.7-.3M582.9 317.4l5.5-.2M582.9 316h5.5M582.9 314.5h5.5M582.6 313.1h5.8M582.6 311.7h5.8M582.6 310.2h5.8M582.6 309l5.5-.2M582.6 307.6l5.5-.3M582.6 306.1l5.5-.2M582.4 304.7l5.7-.2M582.4 303.3l5.7-.3M582.4 301.8l5.7-.2M582.4 300.4h5.7M582.4 298.9h5.5M582.4 297.5h5.5M582.4 296.1h5.5M582.1 294.9l5.8-.3M582.1 293.4l5.8-.2M582.1 292l5.8-.3M582.1 290.5l5.8-.2M582.1 289.1l5.6-.2M582.1 287.7l5.6-.3M581.9 286.2h5.8M581.9 284.8h5.8M581.9 283.3h5.8M581.9 281.9h5.8M581.9 280.7l5.8-.2M581.9 279.3l5.5-.3M581.9 277.8l5.5-.2M581.7 276.4l5.7-.3M581.7 274.9l5.7-.2M581.7 273.5l5.7-.2M581.7 272.1l5.7-.3M581.7 270.6h5.5M581.7 269.2h5.5M581.4 267.7h5.8M581.4 266.3h5.8M581.4 265.1l5.8-.2M581.4 263.7l5.8-.3M581.4 262.2l5.8-.2M581.4 260.8l5.5-.3M581.4 259.3l5.5-.2M581.2 257.9l5.7-.2M581.2 256.5h5.7M581.2 255h5.7M581.2 253.6h5.7M581.2 252.1h5.7M581.2 250.9l5.5-.2M580.9 249.5l5.8-.2M580.9 248.1l5.8-.3M580.9 246.6l5.8-.2M580.9 245.2l5.8-.3M580.9 243.7l5.8-.2M580.9 242.3h5.8M580.9 240.9h5.6M580.7 239.4h5.8M580.7 238h5.8M580.7 236.8l5.8-.3M580.7 235.3l5.8-.2M580.7 233.9l5.8-.2M580.7 232.5l5.5-.3M580.5 231l5.7-.2M580.5 229.6l5.7-.3M580.5 228.1l5.7-.2M580.5 226.7h5.7M580.5 225.3h5.7M580.5 223.8h5.7M580.5 222.4h5.5M580.2 221.2l5.8-.3M580.2 219.7l5.8-.2M580.2 218.3l5.8-.2M580.2 216.9l5.8-.3M580.2 215.4l5.8-.2M580.2 214l5.8-.3M580 212.5h5.7M580 211.1h5.7M580 209.7h5.7M580 208.2h5.7M580 207l5.7-.2M580 205.6l5.7-.3M580 204.1l5.7-.2"/><path class="cls-28" d="M579.7 203.9l-5.5 7 3.6 135.1 5.8 5.3-3.9-147.4"/><path class="cls-20" d="M580 205.1l-.7-.5M580 209.4l-2.4-2.6M580.2 213.5l-4.5-4.3M580.2 217.6l-5.7-6M580.2 221.7l-5.7-5.8M580.5 225.7l-5.8-5.7M580.5 229.8l-5.8-5.7M580.7 233.9l-6-5.8M580.7 238.2l-5.8-6M580.9 242.3l-6-6M580.9 246.4l-5.7-5.8M581.2 250.5l-6-5.8M581.2 254.5l-5.8-5.7M581.2 258.6l-5.8-5.7M581.4 262.7l-5.7-5.8M581.4 267l-5.7-6M581.7 271.1l-5.8-5.8M581.7 275.2l-5.8-5.8M581.9 279.3l-6-5.8M581.9 283.3l-5.8-5.7M582.1 287.4l-6-5.7M582.1 291.7l-5.7-6M582.1 295.8l-5.7-6M582.4 299.9l-5.8-5.8M582.4 304l-5.8-5.8M582.6 308.1l-5.7-5.8M582.6 312.1l-5.7-5.7M582.9 316.2l-5.8-5.7M582.9 320.5l-5.8-6M583.1 324.6l-6-5.7M583.1 328.7l-5.8-5.8M583.1 332.8l-5.8-5.8M583.3 336.9l-5.7-5.8M583.3 340.9l-5.7-5.7M583.6 345l-5.8-5.7M583.6 349.3l-5.8-5.7M581.7 349.3l1.9-1.6M579.7 347.7l3.9-4.1M577.8 345.3l5.5-5.6M577.8 341.4l5.5-5.5M577.8 337.3l5.3-5.2M577.6 333.5l5.5-5.5M577.6 329.7l5.5-5.6M577.3 325.8l5.6-5.5M577.3 321.7l5.6-5.5M577.1 317.9l5.5-5.5M577.1 314.1l5.5-5.6M577.1 310.2l5.3-5.5M576.9 306.1l5.5-5.5M576.9 302.3l5.5-5.5M576.6 298.5l5.5-5.6M576.6 294.4l5.5-5.3M576.4 290.5l5.5-5.5M576.4 286.7l5.5-5.5M576.1 282.9l5.6-5.6M576.1 278.8l5.6-5.5M576.1 274.9l5.6-5.5M575.9 271.1l5.5-5.5M575.9 267.3l5.5-5.6M575.7 263.2l5.5-5.5M575.7 259.3l5.5-5.5M575.4 255.5l5.5-5.5M575.4 251.4l5.5-5.5M575.4 247.6l5.5-5.5M575.2 243.7l5.5-5.5M575.2 239.9l5.5-5.5M574.9 235.8l5.6-5.5M574.9 232l5.6-5.5M574.7 228.1l5.8-5.5M574.7 224.3l5.5-5.8M574.7 220.2l5.5-5.5M574.5 216.4l5.5-5.5M574.5 212.5l5.5-5.5"/><path class="cls-28" d="M574.2 203.9h5.5v-.2H574l.2.2"/><path class="cls-20" d="M578.5 203.9l-.2-.2M574.7 203.9l-.2-.2M579 203.9l.3-.2M574.9 203.9l.3-.2"/><path class="cls-23" d="M586 203.7l3.8 153.6M589.3 203.7l4.1 156.9"/><path class="cls-20" d="M579.7 203.9l3.9 147.4M579.7 203.7v.2M585.5 203.7l3.8 153.1"/><path class="cls-23" d="M574.2 210.9l3.6 135.1M574 203.7l.2.2M579.7 203.9l3.9 147.4M579.7 203.7v.2"/><path class="cls-22" d="M589.3 203.7l4.1 156.9M574.2 210.9l3.6 135.1M574 203.7l.2.2M98.3 214H64.2M98.3 206.5H64.2M98.3 198.9H64.2M24.6 151.8l-7.9 35.5M.1 185.9h64.1v33.4H.1zM5.4 185.9v-34.1M13.1 185.9v-34.1M20.8 185.9v-34.1M28.5 185.9v-34.1M36.1 185.9v-34.1M43.8 185.9v-34.1M51.5 185.9v-34.1M59.2 185.9v-34.1"/><path class="cls-22" d="M1.6 187.3H63v30.5H1.6z"/><path class="cls-2" d="M64.2 151.8h34.1"/><path class="cls-22" d="M97.8 151.8h.5"/><path class="cls-2" d="M64.2 144.9h34.1"/><path class="cls-22" d="M97.8 144.9h.5M81.4 214.1l3.8-3.8M77.6 210.3l3.8 3.8M85.3 210.1h-7.6M59.1 168.9l-3.8 3.8M55.3 165l3.8 3.9M55.3 172.7V165M20.8 168.9l-3.8 3.8M17 165l3.8 3.9M16.9 172.7V165"/><path class="cls-28" d="M199.3 260.5l-7.2-7.2H.1v7.2h199.2"/><g class="cls-29"><path class="cls-20" d="M199.3 253.6l-.2-.3M199.3 257.7l-4.3-4.4M198.4 260.5l-7.2-7.2M194.3 260.5l-7.2-7.2M190.2 260.5l-7.2-7.2M186.4 260.5l-7.2-7.2M182.3 260.5l-7.2-7.2M178.2 260.5l-7.2-7.2M174.1 260.5l-7.2-7.2M170.3 260.5l-7.2-7.2M166.2 260.5l-7.2-7.2M162.1 260.5l-7.2-7.2M158.3 260.5l-7.2-7.2M154.2 260.5l-7.2-7.2M150.1 260.5l-7.2-7.2M146.1 260.5l-7.2-7.2M142.2 260.5l-7.2-7.2M138.1 260.5l-7.2-7.2M134.1 260.5l-7.2-7.2M130.2 260.5l-7.2-7.2M126.1 260.5l-7.2-7.2M122.1 260.5l-7.2-7.2M118.2 260.5l-7.2-7.2M114.1 260.5l-7.2-7.2M110.1 260.5l-7.2-7.2M106 260.5l-7.2-7.2M102.1 260.5l-7.2-7.2M98.1 260.5l-7.2-7.2M94 260.5l-7.2-7.2M90.1 260.5l-7.2-7.2M86.1 260.5l-7.2-7.2M82 260.5l-7.2-7.2M78.1 260.5l-7.2-7.2M74.1 260.5l-7.2-7.2M70 260.5l-7.2-7.2M65.9 260.5l-7.2-7.2M62.1 260.5l-7.2-7.2M58 260.5l-7.2-7.2M53.9 260.5l-7.2-7.2M50.1 260.5l-7.2-7.2M46 260.5l-7.2-7.2M41.9 260.5l-7.2-7.2M37.8 260.5l-7.2-7.2M34 260.5l-7.2-7.2M29.9 260.5l-6.5-6.4M25.8 260.5l-2.4-2.4M197.7 260.5l1.6-1.6M193.6 260.5l5.7-5.7M189.5 260.5l7.2-7.2M185.7 260.5l7.2-7.2M181.6 260.5l7.2-7.2M177.5 260.5l7.2-7.2M173.7 260.5l7.2-7.2M169.6 260.5l7.2-7.2M165.5 260.5l7.2-7.2M161.4 260.5l7.2-7.2M157.6 260.5l7.2-7.2M153.5 260.5l7.2-7.2M149.4 260.5l7.2-7.2M145.6 260.5l7.2-7.2M141.5 260.5l7.2-7.2M137.4 260.5l7.2-7.2M133.6 260.5l7.2-7.2M129.5 260.5l7.2-7.2M125.4 260.5l7.2-7.2M121.3 260.5l7.2-7.2M117.5 260.5l7.2-7.2M113.4 260.5l7.2-7.2M109.3 260.5l7.2-7.2M105.5 260.5l7.2-7.2M101.4 260.5l7.2-7.2M97.3 260.5l7.2-7.2M93.5 260.5l7.2-7.2M89.4 260.5l7.2-7.2M85.3 260.5l7.2-7.2M81.3 260.5l7.2-7.2M77.4 260.5l7.2-7.2M73.3 260.5l7.2-7.2M69.3 260.5l7.2-7.2M65.4 260.5l7.2-7.2M61.3 260.5l7.2-7.2M57.3 260.5l7.2-7.2M53.2 260.5l7.2-7.2M49.3 260.5l7.2-7.2M45.3 260.5l7.2-7.2M41.2 260.5l7.2-7.2M37.3 260.5l7.2-7.2M33.3 260.5l7.2-7.2M29.2 260.5l7.2-7.2M25.3 260.5l7.2-7.2M23.4 258.4l5.1-5.1M23.4 254.3l1-1"/></g><path class="cls-28" d="M199.3 260.5l-7.2-7.2H.1v7.2h199.2"/><g class="cls-32"><path class="cls-20" d="M199.3 253.6l-.2-.3M199.3 257.7l-4.3-4.4M198.4 260.5l-7.2-7.2M194.3 260.5l-7.2-7.2M190.2 260.5l-7.2-7.2M186.4 260.5l-7.2-7.2M182.3 260.5l-7.2-7.2M178.2 260.5l-7.2-7.2M174.1 260.5l-7.2-7.2M170.3 260.5l-7.2-7.2M166.2 260.5l-7.2-7.2M162.1 260.5l-7.2-7.2M158.3 260.5l-7.2-7.2M154.2 260.5l-7.2-7.2M150.1 260.5l-7.2-7.2M146.1 260.5l-7.2-7.2M142.2 260.5l-7.2-7.2M138.1 260.5l-7.2-7.2M134.1 260.5l-7.2-7.2M130.2 260.5l-7.2-7.2M126.1 260.5l-7.2-7.2M122.1 260.5l-7.2-7.2M118.2 260.5l-7.2-7.2M114.1 260.5l-7.2-7.2M110.1 260.5l-7.2-7.2M106 260.5l-7.2-7.2M102.1 260.5l-7.2-7.2M98.1 260.5l-7.2-7.2M94 260.5l-7.2-7.2M90.1 260.5l-7.2-7.2M86.1 260.5l-7.2-7.2M82 260.5l-7.2-7.2M78.1 260.5l-7.2-7.2M74.1 260.5l-7.2-7.2M70 260.5l-7.2-7.2M65.9 260.5l-7.2-7.2M62.1 260.5l-7.2-7.2M58 260.5l-7.2-7.2M53.9 260.5l-7.2-7.2M50.1 260.5l-7.2-7.2M46 260.5l-7.2-7.2M41.9 260.5l-7.2-7.2M37.8 260.5l-7.2-7.2M34 260.5l-7.2-7.2M29.9 260.5l-6.5-6.4M25.8 260.5l-2.4-2.4M197.7 260.5l1.6-1.6M193.6 260.5l5.7-5.7M189.5 260.5l7.2-7.2M185.7 260.5l7.2-7.2M181.6 260.5l7.2-7.2M177.5 260.5l7.2-7.2M173.7 260.5l7.2-7.2M169.6 260.5l7.2-7.2M165.5 260.5l7.2-7.2M161.4 260.5l7.2-7.2M157.6 260.5l7.2-7.2M153.5 260.5l7.2-7.2M149.4 260.5l7.2-7.2M145.6 260.5l7.2-7.2M141.5 260.5l7.2-7.2M137.4 260.5l7.2-7.2M133.6 260.5l7.2-7.2M129.5 260.5l7.2-7.2M125.4 260.5l7.2-7.2M121.3 260.5l7.2-7.2M117.5 260.5l7.2-7.2M113.4 260.5l7.2-7.2M109.3 260.5l7.2-7.2M105.5 260.5l7.2-7.2M101.4 260.5l7.2-7.2M97.3 260.5l7.2-7.2M93.5 260.5l7.2-7.2M89.4 260.5l7.2-7.2M85.3 260.5l7.2-7.2M81.3 260.5l7.2-7.2M77.4 260.5l7.2-7.2M73.3 260.5l7.2-7.2M69.3 260.5l7.2-7.2M65.4 260.5l7.2-7.2M61.3 260.5l7.2-7.2M57.3 260.5l7.2-7.2M53.2 260.5l7.2-7.2M49.3 260.5l7.2-7.2M45.3 260.5l7.2-7.2M41.2 260.5l7.2-7.2M37.3 260.5l7.2-7.2M33.3 260.5l7.2-7.2M29.2 260.5l7.2-7.2M25.3 260.5l7.2-7.2M23.4 258.4l5.1-5.1M23.4 254.3l1-1"/></g><path class="cls-23" d="M.1 260.5h199.2M.1 253.3h192M.1 253.3h192M102.1 260.5h97.2M.1 260.5h95.1"/><path class="cls-28" d="M57.3 144.9H.1v6.9h64.1l-6.9-6.9"/><g class="cls-31"><path class="cls-20" d="M64.2 146.5l-1.7-1.6M64.2 150.6l-5.7-5.7M61.6 151.8l-7-6.9M57.5 151.8l-7-6.9M53.4 151.8l-6.9-6.9M49.6 151.8l-7-6.9M45.5 151.8l-7-6.9M41.4 151.8l-6.9-6.9M37.3 151.8l-6.9-6.9M33.5 151.8l-7-6.9M29.4 151.8l-6-6M25.3 151.8l-1.9-1.9M61.8 151.8l2.4-2.4M57.7 151.8l6.5-6.5M53.9 151.8l7-6.9M49.8 151.8l7-6.9M45.7 151.8l7-6.9M41.7 151.8l6.9-6.9M37.8 151.8l7-6.9M33.7 151.8l7-6.9M29.7 151.8l6.9-6.9M25.8 151.8l7-6.9M23.4 150.1l5.3-5.2M23.4 146.1l1.2-1.2"/></g><path class="cls-28" d="M57.3 144.9H.1v6.9h64.1l-6.9-6.9"/><g class="cls-30"><path class="cls-20" d="M64.2 146.5l-1.7-1.6M64.2 150.6l-5.7-5.7M61.6 151.8l-7-6.9M57.5 151.8l-7-6.9M53.4 151.8l-6.9-6.9M49.6 151.8l-7-6.9M45.5 151.8l-7-6.9M41.4 151.8l-6.9-6.9M37.3 151.8l-6.9-6.9M33.5 151.8l-7-6.9M29.4 151.8l-6-6M25.3 151.8l-1.9-1.9M61.8 151.8l2.4-2.4M57.7 151.8l6.5-6.5M53.9 151.8l7-6.9M49.8 151.8l7-6.9M45.7 151.8l7-6.9M41.7 151.8l6.9-6.9M37.8 151.8l7-6.9M33.7 151.8l7-6.9M29.7 151.8l6.9-6.9M25.8 151.8l7-6.9M23.4 150.1l5.3-5.2M23.4 146.1l1.2-1.2"/></g><path class="cls-23" d="M.1 151.8h64.1M.1 144.9h57.2M.1 144.9h57.2M.1 151.8h64.1"/><path class="cls-28" d="M149.4 219.5l7-7V30.1l-7 5.1v184.3"/><path class="cls-20" d="M156.6 30.4l-.2-.3M156.6 34.5l-2.6-2.7M156.6 38.3l-4.8-4.8M156.6 42.4l-6.9-7M156.6 46.5l-6.9-7M156.6 50.3l-6.9-7M156.6 54.4l-6.9-7M156.6 58.5l-6.9-7M156.6 62.3l-6.9-7M156.6 66.4l-6.9-7M156.6 70.5l-6.9-7M156.6 74.5l-6.9-6.9M156.6 78.4l-6.9-7M156.6 82.5l-6.9-7M156.6 86.5l-6.9-6.9M156.6 90.4l-6.9-7M156.6 94.5l-6.9-7M156.6 98.5l-6.9-6.9M156.6 102.4l-6.9-7M156.6 106.5l-6.9-7M156.6 110.5l-6.9-6.9M156.6 114.6l-6.9-6.9M156.6 118.5l-6.9-7M156.6 122.5l-6.9-6.9M156.6 126.6l-6.9-6.9M156.6 130.5l-6.9-7M156.6 134.5l-6.9-6.9M156.6 138.6l-6.9-6.9M156.6 142.7l-6.9-7M156.6 146.5l-6.9-6.9M156.6 150.6l-6.9-6.9M156.6 154.7l-6.9-7M156.6 158.5l-6.9-6.9M156.6 162.6l-6.9-6.9M156.6 166.7l-6.9-7M156.6 170.5l-6.9-6.9M156.6 174.6l-6.9-6.9M156.6 178.7l-6.9-7M156.6 182.8l-6.9-7M156.6 186.6l-6.9-6.9M156.6 190.7l-6.9-7M156.6 194.8l-6.9-7M156.6 198.6l-6.9-6.9M156.6 202.7l-6.9-7M156.6 206.8l-6.9-7M156.6 210.6l-6.9-6.9M155.4 213.7l-5.7-6M153.5 215.7l-3.8-3.9M151.3 217.6l-1.6-1.7M149.7 216.4l6.9-7M149.7 212.3l6.9-7M149.7 208.5l6.9-7M149.7 204.4l6.9-7M149.7 200.3l6.9-7M149.7 196.5l6.9-7M149.7 192.4l6.9-7M149.7 188.3l6.9-7M149.7 184.5l6.9-7M149.7 180.4l6.9-7M149.7 176.3l6.9-7M149.7 172.2l6.9-6.9M149.7 168.4l6.9-7M149.7 164.3l6.9-7M149.7 160.2l6.9-6.9M149.7 156.4l6.9-7M149.7 152.3l6.9-7M149.7 148.2l6.9-6.9M149.7 144.1l6.9-6.9M149.7 140.3l6.9-7M149.7 136.2l6.9-6.9M149.7 132.1l6.9-6.9M149.7 128.3l6.9-7M149.7 124.2l6.9-6.9M149.7 120.1l6.9-6.9M149.7 116.3l6.9-7M149.7 112.2l6.9-6.9M149.7 108.1l6.9-6.9M149.7 104.1l6.9-7M149.7 100.2l6.9-6.9M149.7 96.1l6.9-6.9M149.7 92.1l6.9-7M149.7 88.2l6.9-6.9M149.7 84.1l6.9-6.9M149.7 80.1l6.9-7M149.7 76.2l6.9-6.9M149.7 72.1l6.9-6.9M149.7 68.1l6.9-7M149.7 64l6.9-7M149.7 60.1l6.9-6.9M149.7 56.1l6.9-7M149.7 52l6.9-7M149.7 48.1l6.9-6.9M149.7 44.1l6.9-7M149.7 40l6.9-7M149.7 35.9l2.8-2.9"/><path class="cls-28" d="M149.4 219.5l7-7V30.1l-7 5.1v184.3"/><path class="cls-20" d="M156.6 30.4l-.2-.3M156.6 34.5l-2.6-2.7M156.6 38.3l-4.8-4.8M156.6 42.4l-6.9-7M156.6 46.5l-6.9-7M156.6 50.3l-6.9-7M156.6 54.4l-6.9-7M156.6 58.5l-6.9-7M156.6 62.3l-6.9-7M156.6 66.4l-6.9-7M156.6 70.5l-6.9-7M156.6 74.5l-6.9-6.9M156.6 78.4l-6.9-7M156.6 82.5l-6.9-7M156.6 86.5l-6.9-6.9M156.6 90.4l-6.9-7M156.6 94.5l-6.9-7M156.6 98.5l-6.9-6.9M156.6 102.4l-6.9-7M156.6 106.5l-6.9-7M156.6 110.5l-6.9-6.9M156.6 114.6l-6.9-6.9M156.6 118.5l-6.9-7M156.6 122.5l-6.9-6.9M156.6 126.6l-6.9-6.9M156.6 130.5l-6.9-7M156.6 134.5l-6.9-6.9M156.6 138.6l-6.9-6.9M156.6 142.7l-6.9-7M156.6 146.5l-6.9-6.9M156.6 150.6l-6.9-6.9M156.6 154.7l-6.9-7M156.6 158.5l-6.9-6.9M156.6 162.6l-6.9-6.9M156.6 166.7l-6.9-7M156.6 170.5l-6.9-6.9M156.6 174.6l-6.9-6.9M156.6 178.7l-6.9-7M156.6 182.8l-6.9-7M156.6 186.6l-6.9-6.9M156.6 190.7l-6.9-7M156.6 194.8l-6.9-7M156.6 198.6l-6.9-6.9M156.6 202.7l-6.9-7M156.6 206.8l-6.9-7M156.6 210.6l-6.9-6.9M155.4 213.7l-5.7-6M153.5 215.7l-3.8-3.9M151.3 217.6l-1.6-1.7M149.7 216.4l6.9-7M149.7 212.3l6.9-7M149.7 208.5l6.9-7M149.7 204.4l6.9-7M149.7 200.3l6.9-7M149.7 196.5l6.9-7M149.7 192.4l6.9-7M149.7 188.3l6.9-7M149.7 184.5l6.9-7M149.7 180.4l6.9-7M149.7 176.3l6.9-7M149.7 172.2l6.9-6.9M149.7 168.4l6.9-7M149.7 164.3l6.9-7M149.7 160.2l6.9-6.9M149.7 156.4l6.9-7M149.7 152.3l6.9-7M149.7 148.2l6.9-6.9M149.7 144.1l6.9-6.9M149.7 140.3l6.9-7M149.7 136.2l6.9-6.9M149.7 132.1l6.9-6.9M149.7 128.3l6.9-7M149.7 124.2l6.9-6.9M149.7 120.1l6.9-6.9M149.7 116.3l6.9-7M149.7 112.2l6.9-6.9M149.7 108.1l6.9-6.9M149.7 104.1l6.9-7M149.7 100.2l6.9-6.9M149.7 96.1l6.9-6.9M149.7 92.1l6.9-7M149.7 88.2l6.9-6.9M149.7 84.1l6.9-6.9M149.7 80.1l6.9-7M149.7 76.2l6.9-6.9M149.7 72.1l6.9-6.9M149.7 68.1l6.9-7M149.7 64l6.9-7M149.7 60.1l6.9-6.9M149.7 56.1l6.9-7M149.7 52l6.9-7M149.7 48.1l6.9-6.9M149.7 44.1l6.9-7M149.7 40l6.9-7M149.7 35.9l2.8-2.9"/><path class="cls-23" d="M149.4 154.7v54.7M149.4 35.2v109.7M156.4 35.2v177.3M156.4 35.2v177.3M149.4 154.7v54.7M149.4 35.2v109.7M156.4 30.1v5.1"/><path class="cls-28" d="M104.1 154.7l-5.8-9.8v74.6l5.8-10.1v-54.7"/><path class="cls-20" d="M103.8 154l-5.3-5.3M104.3 158.3l-5.8-5.8M104.3 162.4l-5.8-5.8M104.3 166.5l-5.8-5.8M104.3 170.5l-5.8-5.7M104.3 174.4l-5.8-5.8M104.3 178.5l-5.8-5.8M104.3 182.5l-5.8-5.7M104.3 186.4l-5.8-5.8M104.3 190.5l-5.8-5.8M104.3 194.5l-5.8-5.7M104.3 198.6l-5.8-5.7M104.3 202.5l-5.8-5.8M104.3 206.5l-5.8-5.7M103.8 210.1l-5.3-5.2M102.4 212.8l-3.9-4.1M100.9 215.2l-2.4-2.4M99.5 217.8l-1-.9M98.5 219.5v-.2M98.5 215.4l5.3-5.5M98.5 211.3l5.8-5.7M98.5 207.5l5.8-5.8M98.5 203.4l5.8-5.7M98.5 199.3l5.8-5.7M98.5 195.3l5.8-5.8M98.5 191.4l5.8-5.7M98.5 187.3l5.8-5.7M98.5 183.3l5.8-5.8M98.5 179.4l5.8-5.7M98.5 175.3l5.8-5.7M98.5 171.3l5.8-5.8M98.5 167.4l5.8-5.7M98.5 163.3l5.8-5.7M98.5 159.3l5.3-5.3M98.5 155.2l3.9-3.9M98.5 151.3l2.2-2.4M98.5 147.3l.8-1"/><path class="cls-28" d="M104.1 154.7l-5.8-9.8v74.6l5.8-10.1v-54.7"/><path class="cls-20" d="M103.8 154l-5.3-5.3M104.3 158.3l-5.8-5.8M104.3 162.4l-5.8-5.8M104.3 166.5l-5.8-5.8M104.3 170.5l-5.8-5.7M104.3 174.4l-5.8-5.8M104.3 178.5l-5.8-5.8M104.3 182.5l-5.8-5.7M104.3 186.4l-5.8-5.8M104.3 190.5l-5.8-5.8M104.3 194.5l-5.8-5.7M104.3 198.6l-5.8-5.7M104.3 202.5l-5.8-5.8M104.3 206.5l-5.8-5.7M103.8 210.1l-5.3-5.2M102.4 212.8l-3.9-4.1M100.9 215.2l-2.4-2.4M99.5 217.8l-1-.9M98.5 219.5v-.2M98.5 215.4l5.3-5.5M98.5 211.3l5.8-5.7M98.5 207.5l5.8-5.8M98.5 203.4l5.8-5.7M98.5 199.3l5.8-5.7M98.5 195.3l5.8-5.8M98.5 191.4l5.8-5.7M98.5 187.3l5.8-5.7M98.5 183.3l5.8-5.8M98.5 179.4l5.8-5.7M98.5 175.3l5.8-5.7M98.5 171.3l5.8-5.8M98.5 167.4l5.8-5.7M98.5 163.3l5.8-5.7M98.5 159.3l5.3-5.3M98.5 155.2l3.9-3.9M98.5 151.3l2.2-2.4M98.5 147.3l.8-1"/><path class="cls-23" d="M104.1 209.4v-54.7M98.3 219.5v-74.6M98.3 219.5v-74.6M104.1 209.4v-54.7"/><path class="cls-28" d="M104.1 209.4l-5.8 10.1h15.4v-10.1h-9.6"/><path class="cls-20" d="M113.9 212.1l-2.9-2.7M113.9 216.1l-6.7-6.7M113.2 219.5l-9.4-9.4M109.1 219.5l-6.7-6.7M105 219.5l-4.1-4.3M101.2 219.5l-1.7-1.7M110.3 219.5l3.6-3.4M106.5 219.5l7.4-7.4M102.4 219.5l10.1-10.1M98.5 219.3l9.9-9.9M103.8 209.9l.5-.5"/><path class="cls-28" d="M104.1 209.4l-5.8 10.1h15.4v-10.1h-9.6"/><path class="cls-20" d="M113.9 212.1l-2.9-2.7M113.9 216.1l-6.7-6.7M113.2 219.5l-9.4-9.4M109.1 219.5l-6.7-6.7M105 219.5l-4.1-4.3M101.2 219.5l-1.7-1.7M110.3 219.5l3.6-3.4M106.5 219.5l7.4-7.4M102.4 219.5l10.1-10.1M98.5 219.3l9.9-9.9M103.8 209.9l.5-.5"/><path class="cls-23" d="M113.7 209.4h-9.6M113.7 219.5H98.3M113.7 219.5H98.3M113.7 209.4h-9.6"/><path class="cls-22" d="M146.3 210.9h-29.5"/><path class="cls-2" d="M146.3 219.5h-29.5"/><path class="cls-22" d="M117.3 219.5h-.5"/><path class="cls-28" d="M149.4 219.5h-3.1v-8.6h3.1"/><path class="cls-20" d="M149.7 211.8l-1-.9M149.7 215.9l-3.2-3.1M149.2 219.5l-2.7-2.9M146.5 219.5l3.2-3.1M146.5 215.4l3.2-3.1M146.5 211.6l.5-.7"/><path class="cls-28" d="M113.7 219.5h3.1v-8.6h-3.1"/><path class="cls-20" d="M117 211.3l-.5-.4M117 215.2l-3.1-3.1M117 219.3l-3.1-3.2M114.4 219.5l2.6-2.4M113.9 216.1l3.1-3.1M113.9 212.1l1.2-1.2"/><path class="cls-23" d="M146.3 219.5v-8.6M116.8 219.5v-8.6M146.3 219.5v-8.6M149.4 219.5h-3.1M116.8 219.5v-8.6M113.7 219.5h3.1M149.4 209.4v1.5M113.7 209.4v1.5M149.4 219.5h-3.1M113.7 219.5h3.1M146.3 210.9h3.1M116.8 210.9h-3.1"/><path class="cls-28" d="M113.7 144.9H98.3l5.8 9.8h9.6v-9.8"/><path class="cls-20" d="M113.9 148l-3.1-3.1M113.9 152.1l-7.2-7.2M112.5 154.7l-9.9-9.8M108.4 154.7l-9.9-9.8M104.5 154.7l-.7-.7M111 154.7l2.9-2.6M106.9 154.7l7-6.7M103.8 154l9.1-9.1M102.4 151.3l6.5-6.4M100.7 148.9l4.1-4M99.3 146.3l1.6-1.4"/><path class="cls-28" d="M113.7 144.9H98.3l5.8 9.8h9.6v-9.8"/><path class="cls-20" d="M113.9 148l-3.1-3.1M113.9 152.1l-7.2-7.2M112.5 154.7l-9.9-9.8M108.4 154.7l-9.9-9.8M104.5 154.7l-.7-.7M111 154.7l2.9-2.6M106.9 154.7l7-6.7M103.8 154l9.1-9.1M102.4 151.3l6.5-6.4M100.7 148.9l4.1-4M99.3 146.3l1.6-1.4"/><path class="cls-23" d="M104.1 154.7h9.6M98.3 144.9h15.4M98.3 144.9h15.4M104.1 154.7h9.6"/><path class="cls-22" d="M116.8 153.3h29.5"/><path class="cls-2" d="M116.8 144.9h29.5"/><path class="cls-22" d="M145.8 144.9h.5"/><path class="cls-28" d="M113.7 144.9h3.1v8.4h-3.1"/><path class="cls-20" d="M117 147l-2.4-2.1M117 151.1l-3.1-3.1M115.1 153.3l-1.2-1.2M116.5 153.3l.5-.5M113.9 152.1l3.1-3.2M113.9 148l2.9-3.1"/><path class="cls-28" d="M149.4 144.9h-3.1v8.4h3.1"/><path class="cls-20" d="M149.7 147.7l-2.9-2.8M149.7 151.6l-3.2-3.1M147 153.3l-.5-.8M148.5 153.3l1.2-1M146.5 151.3l3.2-3.1M146.5 147.3l2.4-2.4"/><path class="cls-23" d="M116.8 144.9v8.4M146.3 144.9v8.4M116.8 144.9v8.4M113.7 144.9h3.1M146.3 144.9v8.4M149.4 144.9h-3.1M113.7 154.7v-1.4M149.4 154.7v-1.4M113.7 144.9h3.1M149.4 144.9h-3.1M116.8 153.3h-3.1M146.3 153.3h3.1"/><path class="cls-28" d="M64.2 35.2l-6.9-5.1v114.8l6.9 6.9V35.2"/><path class="cls-20" d="M64.5 38.3l-7-7M64.5 42.4l-7-7M64.5 46.5l-7-7M64.5 50.5l-7-6.9M64.5 54.4l-7-7M64.5 58.5l-7-7M64.5 62.5l-7-6.9M64.5 66.4l-7-7M64.5 70.5l-7-7M64.5 74.5l-7-6.9M64.5 78.4l-7-7M64.5 82.5l-7-7M64.5 86.5l-7-6.9M64.5 90.6l-7-6.9M64.5 94.5l-7-7M64.5 98.5l-7-6.9M64.5 102.6l-7-6.9M64.5 106.5l-7-7M64.5 110.5l-7-6.9M64.5 114.6l-7-6.9M64.5 118.5l-7-7M64.5 122.5l-7-6.9M64.5 126.6l-7-6.9M64.5 130.7l-7-7M64.5 134.5l-7-6.9M64.5 138.6l-7-6.9M64.5 142.7l-7-7M64.5 146.5l-7-6.9M64.5 150.6l-7-6.9M63 150.6l1.5-1.4M61.1 148.5l3.4-3.2M59.2 146.5l5.3-5.2M57.5 144.1l7-6.9M57.5 140.3l7-7M57.5 136.2l7-6.9M57.5 132.1l7-6.9M57.5 128.1l7-7M57.5 124.2l7-6.9M57.5 120.1l7-6.9M57.5 116.1l7-7M57.5 112.2l7-6.9M57.5 108.1l7-6.9M57.5 104.1l7-7M57.5 100.2l7-6.9M57.5 96.1l7-6.9M57.5 92.1l7-7M57.5 88l7-7M57.5 84.1l7-6.9M57.5 80.1l7-7M57.5 76l7-7M57.5 72.1l7-6.9M57.5 68.1l7-7M57.5 64l7-7M57.5 60.1l7-6.9M57.5 56.1l7-7M57.5 52l7-7M57.5 47.9l7-7M57.5 44.1l7-7M57.5 40l5.5-5.8M57.5 35.9l3.4-3.4M57.5 32.1l1-1.2"/><path class="cls-28" d="M64.2 35.2l-6.9-5.1v114.8l6.9 6.9V35.2"/><path class="cls-20" d="M64.5 38.3l-7-7M64.5 42.4l-7-7M64.5 46.5l-7-7M64.5 50.5l-7-6.9M64.5 54.4l-7-7M64.5 58.5l-7-7M64.5 62.5l-7-6.9M64.5 66.4l-7-7M64.5 70.5l-7-7M64.5 74.5l-7-6.9M64.5 78.4l-7-7M64.5 82.5l-7-7M64.5 86.5l-7-6.9M64.5 90.6l-7-6.9M64.5 94.5l-7-7M64.5 98.5l-7-6.9M64.5 102.6l-7-6.9M64.5 106.5l-7-7M64.5 110.5l-7-6.9M64.5 114.6l-7-6.9M64.5 118.5l-7-7M64.5 122.5l-7-6.9M64.5 126.6l-7-6.9M64.5 130.7l-7-7M64.5 134.5l-7-6.9M64.5 138.6l-7-6.9M64.5 142.7l-7-7M64.5 146.5l-7-6.9M64.5 150.6l-7-6.9M63 150.6l1.5-1.4M61.1 148.5l3.4-3.2M59.2 146.5l5.3-5.2M57.5 144.1l7-6.9M57.5 140.3l7-7M57.5 136.2l7-6.9M57.5 132.1l7-6.9M57.5 128.1l7-7M57.5 124.2l7-6.9M57.5 120.1l7-6.9M57.5 116.1l7-7M57.5 112.2l7-6.9M57.5 108.1l7-6.9M57.5 104.1l7-7M57.5 100.2l7-6.9M57.5 96.1l7-6.9M57.5 92.1l7-7M57.5 88l7-7M57.5 84.1l7-6.9M57.5 80.1l7-7M57.5 76l7-7M57.5 72.1l7-6.9M57.5 68.1l7-7M57.5 64l7-7M57.5 60.1l7-6.9M57.5 56.1l7-7M57.5 52l7-7M57.5 47.9l7-7M57.5 44.1l7-7M57.5 40l5.5-5.8M57.5 35.9l3.4-3.4M57.5 32.1l1-1.2"/><path class="cls-23" d="M64.2 151.8V35.2M57.3 144.9V35.2M57.3 144.9V35.2M64.2 151.8V35.2M57.3 35.2v-5.1"/><path class="cls-28" d="M102.1 351h-6.9v-90.5h6.9V351"/><path class="cls-20" d="M102.4 260.8l-.3-.3M102.4 264.6l-4.3-4.1M102.4 268.7l-7-7M102.4 272.8l-7-7M102.4 276.9l-7-7M102.4 280.7l-7-7M102.4 284.8l-7-7M102.4 288.9l-7-7M102.4 292.7l-7-7M102.4 296.8l-7-7M102.4 300.9l-7-7M102.4 304.7l-7-7M102.4 308.8l-7-7M102.4 312.9l-7-7M102.4 316.9l-7-6.9M102.4 320.8l-7-7M102.4 324.9l-7-7M102.4 328.9l-7-6.9M102.4 332.8l-7-7M102.4 336.9l-7-7M102.4 340.9l-7-6.9M102.4 345l-7-6.9M102.4 348.9l-7-7M100.5 351l-5.1-5M96.4 351l-1-.9M99 351l3.4-3.1M95.4 350.8l7-7M95.4 346.7l7-7M95.4 342.9l7-7M95.4 338.8l7-7M95.4 334.7l7-7M95.4 330.9l7-7M95.4 326.8l7-7M95.4 322.7l7-7M95.4 318.9l7-7M95.4 314.8l7-7M95.4 310.7l7-7M95.4 306.6l7-6.9M95.4 302.8l7-7M95.4 298.7l7-7M95.4 294.6l7-6.9M95.4 290.8l7-7M95.4 286.7l7-7M95.4 282.6l7-6.9M95.4 278.8l7-7M95.4 274.7l7-7M95.4 270.6l7-6.9M95.4 266.5l6-6M95.4 262.7l1.9-2.2"/><path class="cls-28" d="M95.2 351h6.9v-90.5h-6.9V351"/><path class="cls-20" d="M102.4 260.8l-.3-.3M102.4 264.6l-4.3-4.1M102.4 268.7l-7-7M102.4 272.8l-7-7M102.4 276.9l-7-7M102.4 280.7l-7-7M102.4 284.8l-7-7M102.4 288.9l-7-7M102.4 292.7l-7-7M102.4 296.8l-7-7M102.4 300.9l-7-7M102.4 304.7l-7-7M102.4 308.8l-7-7M102.4 312.9l-7-7M102.4 316.9l-7-6.9M102.4 320.8l-7-7M102.4 324.9l-7-7M102.4 328.9l-7-6.9M102.4 332.8l-7-7M102.4 336.9l-7-7M102.4 340.9l-7-6.9M102.4 345l-7-6.9M102.4 348.9l-7-7M100.5 351l-5.1-5M96.4 351l-1-.9M99 351l3.4-3.1M95.4 350.8l7-7M95.4 346.7l7-7M95.4 342.9l7-7M95.4 338.8l7-7M95.4 334.7l7-7M95.4 330.9l7-7M95.4 326.8l7-7M95.4 322.7l7-7M95.4 318.9l7-7M95.4 314.8l7-7M95.4 310.7l7-7M95.4 306.6l7-6.9M95.4 302.8l7-7M95.4 298.7l7-7M95.4 294.6l7-6.9M95.4 290.8l7-7M95.4 286.7l7-7M95.4 282.6l7-6.9M95.4 278.8l7-7M95.4 274.7l7-7M95.4 270.6l7-6.9M95.4 266.5l6-6M95.4 262.7l1.9-2.2"/><path class="cls-23" d="M102.1 351v-90.5M95.2 351v-90.5M95.2 351v-90.5M102.1 351v-90.5M102.1 351h-6.9"/><path class="cls-28" d="M435.3 220.7v-4.3h-4.4v4.3h4.4"/><path class="cls-20" d="M431.2 218.8l2.4-2.4M433.3 220.7l2.2-1.9"/><path class="cls-28" d="M435.3 220.7v-4.3h-4.4v4.3h4.4"/><path class="cls-20" d="M431.2 218.8l2.4-2.4M433.3 220.7l2.2-1.9"/><path class="cls-23" d="M430.9 220.7h4.4M430.9 216.4h4.4M430.9 216.4h4.4M430.9 220.7h4.4"/><path class="cls-28" d="M385.6 220.7v-4.3h20.1v4.3h-20.1"/><path class="cls-20" d="M385.8 217.3l1-.9M386.8 220.7l4.3-4.3M390.9 220.7l4.3-4.3M395.2 220.7l4.3-4.3M399.5 220.7l4.3-4.3M403.6 220.7l2.4-2.2"/><path class="cls-28" d="M385.6 216.4v4.3h20.1v-4.3h-20.1"/><path class="cls-20" d="M385.8 217.3l1-.9M386.8 220.7l4.3-4.3M390.9 220.7l4.3-4.3M395.2 220.7l4.3-4.3M399.5 220.7l4.3-4.3M403.6 220.7l2.4-2.2"/><path class="cls-23" d="M385.6 220.7h20.1M385.6 216.4h20.1M385.6 216.4h20.1M385.6 220.7h20.1M385.6 216.4v4.3M435.3 216.4v4.3M435.3 220.7h5.7"/><path class="cls-2" d="M405.7 220.7h25.2M405.7 216.4h25.2"/><path class="cls-22" d="M406.9 220.7v-4.3M429.7 220.7v-4.3"/><path class="cls-23" d="M405.7 220.7v-4.3M430.9 220.7v-4.3"/><path class="cls-20" d="M429.7 193.8c-12.4 0-22.7 10.2-22.7 22.7M429.7 216.4v-22.6"/><path class="cls-28" d="M385.6 213.7H261.3l-7.2 7h131.5v-7"/><path class="cls-20" d="M385.8 215.4l-1.9-1.7M385.8 219.5l-5.7-5.8M382.9 220.7l-6.9-7M378.9 220.7l-7-7M375 220.7l-6.9-7M370.9 220.7l-6.9-7M366.9 220.7l-7-7M362.8 220.7l-7-7M358.9 220.7l-6.9-7M354.9 220.7l-7-7M350.8 220.7l-7-7M346.9 220.7l-6.9-7M342.9 220.7l-7-7M338.8 220.7l-7-7M334.9 220.7l-6.9-7M330.9 220.7l-7-7M326.8 220.7l-7-7M322.7 220.7l-7-7M318.9 220.7l-7-7M314.8 220.7l-7-7M310.7 220.7l-7-7M306.9 220.7l-7-7M302.8 220.7l-7-7M298.7 220.7l-7-7M294.9 220.7l-7-7M290.8 220.7l-7-7M286.7 220.7l-7-7M282.6 220.7l-6.9-7M278.8 220.7l-7-7M274.7 220.7l-7-7M270.6 220.7l-6.9-7M266.8 220.7l-6.3-6.2M262.7 220.7l-4.1-4.1M258.6 220.7l-2.1-2.2M254.5 220.7v-.2M381.7 220.7l4.1-3.8M377.7 220.7l6.9-7M373.8 220.7l7-7M369.7 220.7l7-7M365.7 220.7l6.9-7M361.8 220.7l7-7M357.7 220.7l7-7M353.7 220.7l6.9-7M349.8 220.7l7-7M345.7 220.7l7-7M341.7 220.7l6.9-7M337.6 220.7l6.9-7M333.7 220.7l7-7M329.7 220.7l6.9-7M325.6 220.7l6.9-7M321.7 220.7l7-7M317.7 220.7l6.9-7M313.6 220.7l6.9-7M309.5 220.7l7-7M305.7 220.7l6.9-7M301.6 220.7l6.9-7M297.5 220.7l7-7M293.7 220.7l6.9-7M289.6 220.7l6.9-7M285.5 220.7l7-7M281.7 220.7l6.9-7M277.6 220.7l6.9-7M273.5 220.7l7-7M269.4 220.7l7-7M265.6 220.7l6.9-7M261.5 220.7l7-7M257.4 220.7l7-7"/><path class="cls-28" d="M385.6 213.7H261.3l-7.2 7h131.5v-7"/><path class="cls-20" d="M385.8 215.4l-1.9-1.7M385.8 219.5l-5.7-5.8M382.9 220.7l-6.9-7M378.9 220.7l-7-7M375 220.7l-6.9-7M370.9 220.7l-6.9-7M366.9 220.7l-7-7M362.8 220.7l-7-7M358.9 220.7l-6.9-7M354.9 220.7l-7-7M350.8 220.7l-7-7M346.9 220.7l-6.9-7M342.9 220.7l-7-7M338.8 220.7l-7-7M334.9 220.7l-6.9-7M330.9 220.7l-7-7M326.8 220.7l-7-7M322.7 220.7l-7-7M318.9 220.7l-7-7M314.8 220.7l-7-7M310.7 220.7l-7-7M306.9 220.7l-7-7M302.8 220.7l-7-7M298.7 220.7l-7-7M294.9 220.7l-7-7M290.8 220.7l-7-7M286.7 220.7l-7-7M282.6 220.7l-6.9-7M278.8 220.7l-7-7M274.7 220.7l-7-7M270.6 220.7l-6.9-7M266.8 220.7l-6.3-6.2M262.7 220.7l-4.1-4.1M258.6 220.7l-2.1-2.2M254.5 220.7v-.2M381.7 220.7l4.1-3.8M377.7 220.7l6.9-7M373.8 220.7l7-7M369.7 220.7l7-7M365.7 220.7l6.9-7M361.8 220.7l7-7M357.7 220.7l7-7M353.7 220.7l6.9-7M349.8 220.7l7-7M345.7 220.7l7-7M341.7 220.7l6.9-7M337.6 220.7l6.9-7M333.7 220.7l7-7M329.7 220.7l6.9-7M325.6 220.7l6.9-7M321.7 220.7l7-7M317.7 220.7l6.9-7M313.6 220.7l6.9-7M309.5 220.7l7-7M305.7 220.7l6.9-7M301.6 220.7l6.9-7M297.5 220.7l7-7M293.7 220.7l6.9-7M289.6 220.7l6.9-7M285.5 220.7l7-7M281.7 220.7l6.9-7M277.6 220.7l6.9-7M273.5 220.7l7-7M269.4 220.7l7-7M265.6 220.7l6.9-7M261.5 220.7l7-7M257.4 220.7l7-7"/><path class="cls-23" d="M254.1 220.7h131.5M261.3 213.7h124.3M261.3 213.7h124.3M254.1 220.7h131.5M385.6 213.7v2.7M385.6 216.4v4.3"/><path class="cls-28" d="M435.3 145.8l6.9-6.9h-66.5v6.9h59.6"/><path class="cls-20" d="M442 139.3l-.5-.4M439.8 141.3l-2.4-2.4M437.9 143.4l-4.6-4.5M436 145.3l-6.5-6.4M432.4 145.8l-7-6.9M428.3 145.8l-7-6.9M424.2 145.8l-6.9-6.9M420.4 145.8l-7-6.9M416.3 145.8l-7-6.9M412.2 145.8l-6.9-6.9M408.4 145.8l-7-6.9M404.3 145.8l-7-6.9M400.2 145.8l-6.9-6.9M396.1 145.8l-6.9-6.9M392.3 145.8l-7-6.9M388.2 145.8l-6.9-6.9M384.1 145.8l-6.9-6.9M380.3 145.8l-4.3-4.3M376.2 145.8l-.2-.2M432.6 145.8l7-6.9M428.5 145.8l7-6.9M424.7 145.8l7-6.9M420.6 145.8l7-6.9M416.5 145.8l7-6.9M412.5 145.8l6.9-6.9M408.6 145.8l7-6.9M404.5 145.8l7-6.9M400.5 145.8l6.9-6.9M396.6 145.8l7-6.9M392.5 145.8l7-6.9M388.5 145.8l6.9-6.9M384.4 145.8l6.9-6.9M380.5 145.8l7-6.9M376.5 145.8l6.9-6.9M376 142.5l3.3-3.6"/><path class="cls-28" d="M435.3 145.8l6.9-6.9h-66.5v6.9h59.6"/><path class="cls-20" d="M442 139.3l-.5-.4M439.8 141.3l-2.4-2.4M437.9 143.4l-4.6-4.5M436 145.3l-6.5-6.4M432.4 145.8l-7-6.9M428.3 145.8l-7-6.9M424.2 145.8l-6.9-6.9M420.4 145.8l-7-6.9M416.3 145.8l-7-6.9M412.2 145.8l-6.9-6.9M408.4 145.8l-7-6.9M404.3 145.8l-7-6.9M400.2 145.8l-6.9-6.9M396.1 145.8l-6.9-6.9M392.3 145.8l-7-6.9M388.2 145.8l-6.9-6.9M384.1 145.8l-6.9-6.9M380.3 145.8l-4.3-4.3M376.2 145.8l-.2-.2M432.6 145.8l7-6.9M428.5 145.8l7-6.9M424.7 145.8l7-6.9M420.6 145.8l7-6.9M416.5 145.8l7-6.9M412.5 145.8l6.9-6.9M408.6 145.8l7-6.9M404.5 145.8l7-6.9M400.5 145.8l6.9-6.9M396.6 145.8l7-6.9M392.5 145.8l7-6.9M388.5 145.8l6.9-6.9M384.4 145.8l6.9-6.9M380.5 145.8l7-6.9M376.5 145.8l6.9-6.9M376 142.5l3.3-3.6"/><path class="cls-23" d="M375.7 145.8h59.6M375.7 138.9h66.5M375.7 138.9h66.5M375.7 145.8h59.6M375.7 145.8v-6.9"/><path class="cls-28" d="M435.3 210.6l6.9-6.9v-64.8l-6.9 6.9v64.8"/><path class="cls-20" d="M442.5 139.8l-.5-.5M442.5 143.9l-2.7-2.6M442.5 147.7l-4.6-4.3M442.5 151.8l-6.5-6.5M442.5 155.9l-7-7M442.5 159.7l-7-6.9M442.5 163.8l-7-6.9M442.5 167.9l-7-7M442.5 172l-7-7M442.5 175.8l-7-6.9M442.5 179.9l-7-7M442.5 184l-7-7M442.5 187.8l-7-6.9M442.5 191.9l-7-7M442.5 196l-7-7M442.5 199.8l-7-6.9M442.2 203.9l-6.7-7M440.3 205.8l-4.8-4.8M438.1 207.7l-2.6-2.6M436.2 209.9l-.7-1M435.5 207.3l7-7M435.5 203.2l7-7M435.5 199.1l7-7M435.5 195.3l7-7M435.5 191.2l7-7M435.5 187.1l7-7M435.5 183l7-6.9M435.5 179.2l7-7M435.5 175.1l7-7M435.5 171l7-6.9M435.5 167.2l7-7M435.5 163.1l7-7M435.5 159l7-6.9M435.5 155.2l7-7M435.5 151.1l7-7M435.5 147l7-6.9"/><path class="cls-28" d="M435.3 210.6l6.9-6.9v-64.8l-6.9 6.9v64.8"/><path class="cls-20" d="M442.5 139.8l-.5-.5M442.5 143.9l-2.7-2.6M442.5 147.7l-4.6-4.3M442.5 151.8l-6.5-6.5M442.5 155.9l-7-7M442.5 159.7l-7-6.9M442.5 163.8l-7-6.9M442.5 167.9l-7-7M442.5 172l-7-7M442.5 175.8l-7-6.9M442.5 179.9l-7-7M442.5 184l-7-7M442.5 187.8l-7-6.9M442.5 191.9l-7-7M442.5 196l-7-7M442.5 199.8l-7-6.9M442.2 203.9l-6.7-7M440.3 205.8l-4.8-4.8M438.1 207.7l-2.6-2.6M436.2 209.9l-.7-1M435.5 207.3l7-7M435.5 203.2l7-7M435.5 199.1l7-7M435.5 195.3l7-7M435.5 191.2l7-7M435.5 187.1l7-7M435.5 183l7-6.9M435.5 179.2l7-7M435.5 175.1l7-7M435.5 171l7-6.9M435.5 167.2l7-7M435.5 163.1l7-7M435.5 159l7-6.9M435.5 155.2l7-7M435.5 151.1l7-7M435.5 147l7-6.9"/><path class="cls-23" d="M435.3 145.8v64.8M442.2 138.9v64.8M442.2 138.9v64.8M435.3 145.8v64.8"/><path class="cls-28" d="M441 220.7v-10.1h-5.7v10.1h5.7"/><path class="cls-20" d="M441.3 210.9l-.3-.3M441.3 214.7l-4.4-4.1M441.3 218.8l-5.8-5.8M439.1 220.7l-3.6-3.6M437.9 220.7l3.4-3.4M435.5 219.3l5.8-5.8M435.5 215.2l4.6-4.6M435.5 211.1l.5-.5"/><path class="cls-28" d="M441 220.7v-10.1h-5.7v10.1h5.7"/><path class="cls-20" d="M441.3 210.9l-.3-.3M441.3 214.7l-4.4-4.1M441.3 218.8l-5.8-5.8M439.1 220.7l-3.6-3.6M437.9 220.7l3.4-3.4M435.5 219.3l5.8-5.8M435.5 215.2l4.6-4.6M435.5 211.1l.5-.5"/><path class="cls-23" d="M435.3 210.6v5.8M441 210.6v10.1M441 210.6v10.1M435.3 210.6v5.8M441 220.7h-5.7M435.3 216.4v4.3"/><path class="cls-22" d="M442 211.1h79.9v17.5H442zM442.5 226.2v2.4M453.7 226.2v2.4M470.8 226.2v2.4M521.9 211.1h.5v17.5h-.5zM522.4 227.9h17v.7h-17zM538.9 212.8h.5v15.1h-.5zM522.4 212.8h.5v15.1h-.5zM522.4 212.1h17v.7h-17z"/><path class="cls-28" d="M503.9 216.2v9.3c0 .1 0 .3-.1.4 0 .1-.1.2-.2.3 0 .1-.2.2-.2.3 0 0-.2.2-.3.2-.1 0-.2.1-.3.2-.1 0-.2 0-.4.1h-12c-.1 0-.3 0-.4-.1-.1 0-.2-.1-.3-.2-.1 0-.2-.2-.3-.2 0 0-.2-.2-.2-.3 0-.1-.1-.2-.2-.3 0-.1 0-.2-.1-.4v-9.3-.4c0-.1 0-.3.1-.4 0-.1.1-.2.2-.3 0-.1.2-.2.2-.3 0 0 .2-.2.3-.2.1 0 .2-.1.3-.2.1 0 .2 0 .4-.1h12c.1 0 .3 0 .4.1.1 0 .2.1.3.2.1 0 .2.2.3.2 0 0 .2.2.2.3 0 .1.1.2.2.3 0 .1 0 .2.1.4v.4"/><path class="cls-22" d="M503.9 216.2v9.3c0 .1 0 .3-.1.4 0 .1-.1.2-.2.3 0 .1-.2.2-.2.3 0 0-.2.2-.3.2-.1 0-.2.1-.3.2-.1 0-.2 0-.4.1h-12c-.1 0-.3 0-.4-.1-.1 0-.2-.1-.3-.2-.1 0-.2-.2-.3-.2 0 0-.2-.2-.2-.3 0-.1-.1-.2-.2-.3 0-.1 0-.2-.1-.4v-9.3-.4c0-.1 0-.3.1-.4 0-.1.1-.2.2-.3 0-.1.2-.2.2-.3 0 0 .2-.2.3-.2.1 0 .2-.1.3-.2.1 0 .2 0 .4-.1h12c.1 0 .3 0 .4.1.1 0 .2.1.3.2.1 0 .2.2.3.2 0 0 .2.2.2.3 0 .1.1.2.2.3 0 .1 0 .2.1.4v.4"/><path class="cls-28" d="M497.4 217.5c0-.6-.5-1.1-1.1-1.1s-1.1.5-1.1 1.1.5 1.1 1.1 1.1 1.1-.5 1.1-1.1"/><path class="cls-22" d="M497.4 217.5c0-.6-.5-1.1-1.1-1.1s-1.1.5-1.1 1.1.5 1.1 1.1 1.1 1.1-.5 1.1-1.1"/><path class="cls-27" d="M454.5 212.5h15.8v14.6h-15.8z"/><path class="cls-22" d="M454.5 212.5h15.8v14.6h-15.8z"/><path class="cls-28" d="M461.2 222.4c0-1.6-1.3-2.9-2.9-2.9s-2.9 1.3-2.9 2.9 1.3 2.9 2.9 2.9 2.9-1.3 2.9-2.9"/><path class="cls-22" d="M461.2 222.4c0-1.6-1.3-2.9-2.9-2.9s-2.9 1.3-2.9 2.9 1.3 2.9 2.9 2.9 2.9-1.3 2.9-2.9"/><path class="cls-28" d="M459.5 215.7c0-1.2-1-2.2-2.2-2.2s-2.2 1-2.2 2.2 1 2.2 2.2 2.2 2.2-1 2.2-2.2"/><path class="cls-22" d="M459.5 215.7c0-1.2-1-2.2-2.2-2.2s-2.2 1-2.2 2.2 1 2.2 2.2 2.2 2.2-1 2.2-2.2"/><path class="cls-28" d="M468.1 222.4c0-1.2-1-2.2-2.3-2.2s-2.3 1-2.3 2.2 1 2.2 2.3 2.2 2.3-1 2.3-2.2"/><path class="cls-22" d="M468.1 222.4c0-1.2-1-2.2-2.3-2.2s-2.3 1-2.3 2.2 1 2.2 2.3 2.2 2.3-1 2.3-2.2"/><path class="cls-28" d="M468.4 216c0-1.5-1.2-2.8-2.8-2.8s-2.8 1.2-2.8 2.8 1.2 2.8 2.8 2.8 2.8-1.2 2.8-2.8"/><path class="cls-22" d="M468.4 216c0-1.5-1.2-2.8-2.8-2.8s-2.8 1.2-2.8 2.8 1.2 2.8 2.8 2.8 2.8-1.2 2.8-2.8M556.5 227.9h17v.7h-17zM572.8 212.8h.7v15.1h-.7zM556.5 212.8h.5v15.1h-.5zM556.5 212.1h17v.7h-17zM573.5 227.9h1v.7h-1zM487.8 226.2v2.4"/><path class="cls-2" d="M574.5 221.2H442"/><path class="cls-22" d="M504.9 226.2v2.4M539.4 227.9h17v.7h-17zM555.7 212.8h.7v15.1h-.7zM539.4 212.8h.5v15.1h-.5zM539.4 212.1h17v.7h-17z"/><path class="cls-28" d="M442.2 203.7l-6.9 6.9h138.9l5.5-6.9H442.2"/><path class="cls-20" d="M579.3 204.4l-1-.7M577.3 206.8l-2.8-3.1M575.7 208.9l-5.3-5.2M573.3 210.6l-7-6.9M569.2 210.6l-7-6.9M565.3 210.6l-6.9-6.9M561.3 210.6l-7-6.9M557.2 210.6l-7-6.9M553.3 210.6l-6.9-6.9M549.3 210.6l-7-6.9M545.2 210.6l-7-6.9M541.3 210.6l-6.9-6.9M537.3 210.6l-7-6.9M533.2 210.6l-7-6.9M529.1 210.6l-7-6.9M525.3 210.6l-7-6.9M521.2 210.6l-7-6.9M517.1 210.6l-7-6.9M513.3 210.6l-7-6.9M509.2 210.6l-7-6.9M505.1 210.6l-7-6.9M501.3 210.6l-7-6.9M497.2 210.6l-7-6.9M493.1 210.6l-7-6.9M489 210.6l-6.9-6.9M485.2 210.6l-7-6.9M481.1 210.6l-7-6.9M477 210.6l-6.9-6.9M473.2 210.6l-7-6.9M469.1 210.6l-7-6.9M465 210.6l-6.9-6.9M460.9 210.6l-6.9-6.9M457.1 210.6l-7-6.9M453 210.6l-6.9-6.9M448.9 210.6l-6.7-6.7M445.1 210.6l-4.8-4.8M441 210.6l-2.9-2.9M436.9 210.6l-.7-.7M572.3 210.6l7-6.9M568.2 210.6l7-6.9M564.1 210.6l7-6.9M560.3 210.6l7-6.9M556.2 210.6l7-6.9M552.1 210.6l7-6.9M548.3 210.6l7-6.9M544.2 210.6l7-6.9M540.1 210.6l7-6.9M536.1 210.6l6.9-6.9M532.2 210.6l7-6.9M528.1 210.6l7-6.9M524.1 210.6l6.9-6.9M520.2 210.6l7-6.9M516.1 210.6l7-6.9M512.1 210.6l6.9-6.9M508.2 210.6l7-6.9M504.1 210.6l7-6.9M500.1 210.6l6.9-6.9M496 210.6l6.9-6.9M492.1 210.6l7-6.9M488.1 210.6l6.9-6.9M484 210.6l6.9-6.9M480.1 210.6l7-6.9M476.1 210.6l6.9-6.9M472 210.6l6.9-6.9M467.9 210.6l7-6.9M464.1 210.6l6.9-6.9M460 210.6l6.9-6.9M455.9 210.6l7-6.9M452.1 210.6l6.9-6.9M448 210.6l6.9-6.9M443.9 210.6l7-6.9M440.1 210.6l6.9-6.9M436 210.6l6.9-6.9"/><path class="cls-28" d="M442.2 203.7l-6.9 6.9h138.9l5.5-6.9H442.2"/><path class="cls-20" d="M579.3 204.4l-1-.7M577.3 206.8l-2.8-3.1M575.7 208.9l-5.3-5.2M573.3 210.6l-7-6.9M569.2 210.6l-7-6.9M565.3 210.6l-6.9-6.9M561.3 210.6l-7-6.9M557.2 210.6l-7-6.9M553.3 210.6l-6.9-6.9M549.3 210.6l-7-6.9M545.2 210.6l-7-6.9M541.3 210.6l-6.9-6.9M537.3 210.6l-7-6.9M533.2 210.6l-7-6.9M529.1 210.6l-7-6.9M525.3 210.6l-7-6.9M521.2 210.6l-7-6.9M517.1 210.6l-7-6.9M513.3 210.6l-7-6.9M509.2 210.6l-7-6.9M505.1 210.6l-7-6.9M501.3 210.6l-7-6.9M497.2 210.6l-7-6.9M493.1 210.6l-7-6.9M489 210.6l-6.9-6.9M485.2 210.6l-7-6.9M481.1 210.6l-7-6.9M477 210.6l-6.9-6.9M473.2 210.6l-7-6.9M469.1 210.6l-7-6.9M465 210.6l-6.9-6.9M460.9 210.6l-6.9-6.9M457.1 210.6l-7-6.9M453 210.6l-6.9-6.9M448.9 210.6l-6.7-6.7M445.1 210.6l-4.8-4.8M441 210.6l-2.9-2.9M436.9 210.6l-.7-.7M572.3 210.6l7-6.9M568.2 210.6l7-6.9M564.1 210.6l7-6.9M560.3 210.6l7-6.9M556.2 210.6l7-6.9M552.1 210.6l7-6.9M548.3 210.6l7-6.9M544.2 210.6l7-6.9M540.1 210.6l7-6.9M536.1 210.6l6.9-6.9M532.2 210.6l7-6.9M528.1 210.6l7-6.9M524.1 210.6l6.9-6.9M520.2 210.6l7-6.9M516.1 210.6l7-6.9M512.1 210.6l6.9-6.9M508.2 210.6l7-6.9M504.1 210.6l7-6.9M500.1 210.6l6.9-6.9M496 210.6l6.9-6.9M492.1 210.6l7-6.9M488.1 210.6l6.9-6.9M484 210.6l6.9-6.9M480.1 210.6l7-6.9M476.1 210.6l6.9-6.9M472 210.6l6.9-6.9M467.9 210.6l7-6.9M464.1 210.6l6.9-6.9M460 210.6l6.9-6.9M455.9 210.6l7-6.9M452.1 210.6l6.9-6.9M448 210.6l6.9-6.9M443.9 210.6l7-6.9M440.1 210.6l6.9-6.9M436 210.6l6.9-6.9"/><path class="cls-23" d="M574 203.7H442.2M574.2 210.6H441M574.2 210.6H441M574 203.7H442.2M579.7 203.7H574"/><path class="cls-28" d="M199.3 255.5v5h5.8v-5h-5.8"/><path class="cls-20" d="M205.3 259.3l-4-3.8M202.2 260.5l-2.6-2.8M201.7 260.5l3.6-3.6M199.6 258.6l3.1-3.1"/><path class="cls-28" d="M199.3 255.5v5h5.8v-5h-5.8"/><path class="cls-20" d="M205.3 259.3l-4-3.8M202.2 260.5l-2.6-2.8M201.7 260.5l3.6-3.6M199.6 258.6l3.1-3.1"/><path class="cls-23" d="M205.1 255.5h-5.8M205.1 260.5h-5.8M205.1 260.5h-5.8M205.1 255.5h-5.8"/><path class="cls-28" d="M304.9 255.5v5h-73.2v-5h73.2"/><path class="cls-20" d="M305.2 259.1l-3.6-3.6M302.5 260.5l-5-5M298.5 260.5l-5.1-5M294.4 260.5l-5.1-5M290.5 260.5l-5-5M286.5 260.5l-5.1-5M282.4 260.5l-5.1-5M278.5 260.5l-5-5M274.5 260.5l-5.1-5M270.4 260.5l-5.1-5M266.5 260.5l-5-5M262.5 260.5l-5.1-5M258.4 260.5l-5.1-5M254.3 260.5l-5-5M250.5 260.5l-5.1-5M246.4 260.5l-5.1-5M242.3 260.5l-5-5M238.5 260.5l-5.1-5M234.4 260.5l-2.4-2.4M301.8 260.5l3.4-3.1M297.7 260.5l5.1-5M293.9 260.5l5-5M289.8 260.5l5.1-5M285.7 260.5l5.1-5M281.9 260.5l5-5M277.8 260.5l5.1-5M273.7 260.5l5.1-5M269.7 260.5l5-5M265.8 260.5l5.1-5M261.7 260.5l5.1-5M257.7 260.5l5-5M253.8 260.5l5.1-5M249.7 260.5l5.1-5M245.7 260.5l5-5M241.8 260.5l5.1-5M237.7 260.5l5.1-5M233.7 260.5l5-5M232 258.4l2.6-2.9"/><path class="cls-28" d="M304.9 260.5v-5h-73.2v5h73.2"/><path class="cls-20" d="M305.2 259.1l-3.6-3.6M302.5 260.5l-5-5M298.5 260.5l-5.1-5M294.4 260.5l-5.1-5M290.5 260.5l-5-5M286.5 260.5l-5.1-5M282.4 260.5l-5.1-5M278.5 260.5l-5-5M274.5 260.5l-5.1-5M270.4 260.5l-5.1-5M266.5 260.5l-5-5M262.5 260.5l-5.1-5M258.4 260.5l-5.1-5M254.3 260.5l-5-5M250.5 260.5l-5.1-5M246.4 260.5l-5.1-5M242.3 260.5l-5-5M238.5 260.5l-5.1-5M234.4 260.5l-2.4-2.4M301.8 260.5l3.4-3.1M297.7 260.5l5.1-5M293.9 260.5l5-5M289.8 260.5l5.1-5M285.7 260.5l5.1-5M281.9 260.5l5-5M277.8 260.5l5.1-5M273.7 260.5l5.1-5M269.7 260.5l5-5M265.8 260.5l5.1-5M261.7 260.5l5.1-5M257.7 260.5l5-5M253.8 260.5l5.1-5M249.7 260.5l5.1-5M245.7 260.5l5-5M241.8 260.5l5.1-5M237.7 260.5l5.1-5M233.7 260.5l5-5M232 258.4l2.6-2.9"/><path class="cls-23" d="M304.9 255.5h-73.2M304.9 260.5h-68.8M304.9 255.5h-73.2M304.9 260.5h-68.8"/><path class="cls-28" d="M330.1 260.5h20.7v-5h-20.7v5"/><path class="cls-20" d="M351 256.7l-1.4-1.2M350.5 260.5l-5-5M346.7 260.5l-5-5M342.6 260.5l-5-5M338.5 260.5l-5-5M334.7 260.5l-4.3-4.3M330.6 260.5l-.2-.2M350.1 260.5l.9-.9M346 260.5l5-5M341.9 260.5l5-5M337.8 260.5l5.1-5M334 260.5l5-5M330.4 260.3l4.5-4.8M330.4 256.2l.5-.7"/><path class="cls-28" d="M330.1 260.5h20.7v-5h-20.7v5"/><path class="cls-20" d="M351 256.7l-1.4-1.2M350.5 260.5l-5-5M346.7 260.5l-5-5M342.6 260.5l-5-5M338.5 260.5l-5-5M334.7 260.5l-4.3-4.3M330.6 260.5l-.2-.2M350.1 260.5l.9-.9M346 260.5l5-5M341.9 260.5l5-5M337.8 260.5l5.1-5M334 260.5l5-5M330.4 260.3l4.5-4.8M330.4 256.2l.5-.7"/><path class="cls-23" d="M350.8 255.5h-20.7M350.8 260.5h-20.7M350.8 260.5h-20.7M350.8 255.5h-20.7M350.8 260.5v-5M355.1 255.5h-4.3"/><path class="cls-2" d="M330.1 255.5h-25.2M330.1 260.5h-25.2"/><path class="cls-22" d="M328.7 255.5v5M306.1 255.5v5"/><path class="cls-23" d="M330.1 255.5v5M304.9 255.5v5"/><path class="cls-20" d="M306.1 260.4c0 12.4 10.2 22.7 22.7 22.7M328.7 260.5v22.6"/><path class="cls-2" d="M231.7 255.5h-26.6M231.7 260.5h-26.6"/><path class="cls-22" d="M229.8 255.5v5M207 255.5v5"/><path class="cls-23" d="M231.7 255.5v5M205.1 255.5v5"/><path class="cls-20" d="M207 260.4c0 12.4 10.2 22.7 22.7 22.7M229.8 260.5v22.6"/><path class="cls-28" d="M236.1 260.5h-4.4V346h4.4v-85.5"/><path class="cls-20" d="M236.3 262.5l-1.9-2M236.3 266.3L232 262M236.3 270.4l-4.3-4.3M236.3 274.5l-4.3-4.4M236.3 278.3L232 274M236.3 282.4l-4.3-4.3M236.3 286.5l-4.3-4.4M236.3 290.3L232 286M236.3 294.4l-4.3-4.3M236.3 298.5l-4.3-4.4M236.3 302.5l-4.3-4.3M236.3 306.4l-4.3-4.3M236.3 310.5l-4.3-4.4M236.3 314.5l-4.3-4.3M236.3 318.4l-4.3-4.3M236.3 322.5l-4.3-4.4M236.3 326.5l-4.3-4.3M236.3 330.6l-4.3-4.3M236.3 334.5l-4.3-4.4M236.3 338.5l-4.3-4.3M236.3 342.6l-4.3-4.3M235.6 346l-3.6-3.9M232.5 346l3.8-3.9M232 342.6l4.3-4.3M232 338.5l4.3-4.3M232 334.5l4.3-4.4M232 330.6l4.3-4.3M232 326.5l4.3-4.3M232 322.5l4.3-4.4M232 318.4l4.3-4.3M232 314.5l4.3-4.3M232 310.5l4.3-4.4M232 306.4l4.3-4.3M232 302.5l4.3-4.3M232 298.5l4.3-4.4M232 294.4l4.3-4.3M232 290.5l4.3-4.3M232 286.5l4.3-4.4M232 282.4l4.3-4.3M232 278.3l4.3-4.3M232 274.5l4.3-4.4M232 270.4l4.3-4.3M232 266.3l4.3-4.3M232 262.5l1.7-2"/><path class="cls-28" d="M236.1 260.5h-4.4V346h4.4v-85.5"/><path class="cls-20" d="M236.3 262.5l-1.9-2M236.3 266.3L232 262M236.3 270.4l-4.3-4.3M236.3 274.5l-4.3-4.4M236.3 278.3L232 274M236.3 282.4l-4.3-4.3M236.3 286.5l-4.3-4.4M236.3 290.3L232 286M236.3 294.4l-4.3-4.3M236.3 298.5l-4.3-4.4M236.3 302.5l-4.3-4.3M236.3 306.4l-4.3-4.3M236.3 310.5l-4.3-4.4M236.3 314.5l-4.3-4.3M236.3 318.4l-4.3-4.3M236.3 322.5l-4.3-4.4M236.3 326.5l-4.3-4.3M236.3 330.6l-4.3-4.3M236.3 334.5l-4.3-4.4M236.3 338.5l-4.3-4.3M236.3 342.6l-4.3-4.3M235.6 346l-3.6-3.9M232.5 346l3.8-3.9M232 342.6l4.3-4.3M232 338.5l4.3-4.3M232 334.5l4.3-4.4M232 330.6l4.3-4.3M232 326.5l4.3-4.3M232 322.5l4.3-4.4M232 318.4l4.3-4.3M232 314.5l4.3-4.3M232 310.5l4.3-4.4M232 306.4l4.3-4.3M232 302.5l4.3-4.3M232 298.5l4.3-4.4M232 294.4l4.3-4.3M232 290.5l4.3-4.3M232 286.5l4.3-4.4M232 282.4l4.3-4.3M232 278.3l4.3-4.3M232 274.5l4.3-4.4M232 270.4l4.3-4.3M232 266.3l4.3-4.3M232 262.5l1.7-2"/><path class="cls-23" d="M236.1 346v-85.5M231.7 346v-85.5M231.7 346v-85.5M236.1 346v-85.5M236.1 346h-4.4"/><path class="cls-28" d="M355.1 346h-4.3v-90.5h4.3V346"/><path class="cls-20" d="M351 256.5l1-1M351 260.8l4.3-4.3M351 264.9l4.3-4.4M351 269.2l4.3-4.3M351 273.5l4.3-4.3M351 277.8l4.3-4.3M351 281.9l4.3-4.3M351 286.2l4.3-4.3M351 290.5l4.3-4.3M351 294.6l4.3-4.3M351 298.9l4.3-4.3M351 303.3l4.3-4.4M351 307.6l4.3-4.3M351 311.7l4.3-4.4M351 316l4.3-4.3M351 320.3l4.3-4.3M351 324.4l4.3-4.3M351 328.7l4.3-4.3M351 333l4.3-4.3M351 337.1l4.3-4.3M351 341.4l4.3-4.3M351 345.7l4.3-4.3M354.9 346l.4-.3"/><path class="cls-28" d="M350.8 346h4.3v-90.5h-4.3V346"/><path class="cls-20" d="M351 256.5l1-1M351 260.8l4.3-4.3M351 264.9l4.3-4.4M351 269.2l4.3-4.3M351 273.5l4.3-4.3M351 277.8l4.3-4.3M351 281.9l4.3-4.3M351 286.2l4.3-4.3M351 290.5l4.3-4.3M351 294.6l4.3-4.3M351 298.9l4.3-4.3M351 303.3l4.3-4.4M351 307.6l4.3-4.3M351 311.7l4.3-4.4M351 316l4.3-4.3M351 320.3l4.3-4.3M351 324.4l4.3-4.3M351 328.7l4.3-4.3M351 333l4.3-4.3M351 337.1l4.3-4.3M351 341.4l4.3-4.3M351 345.7l4.3-4.3M354.9 346l.4-.3"/><path class="cls-23" d="M355.1 346v-90.5M350.8 346v-85.5M350.8 346v-85.5M355.1 346v-90.5M355.1 346h-4.3M350.8 260.5v-5M350.8 255.5h4.3"/><path class="cls-28" d="M156.4 212.5l-7 7h7v-7"/><path class="cls-20" d="M156.6 214.7l-1.2-1M156.6 218.8l-3.1-3.1M153.3 219.5l-2-1.9M154.5 219.5l2.1-1.9M150.4 219.5l6.2-6"/><path class="cls-28" d="M156.4 212.5l-7 7h7v-7"/><path class="cls-20" d="M156.6 214.7l-1.2-1M156.6 218.8l-3.1-3.1M153.3 219.5l-2-1.9M154.5 219.5l2.1-1.9M150.4 219.5l6.2-6"/><path class="cls-23" d="M156.4 219.5h-7M156.4 219.5h-7"/><path class="cls-22" d="M186.1 212.1h6v1.7h-6zM156.4 212.1h2.6v1.7h-2.6zM159 212.1h27.1v1.7H159zM186.1 213.7H159"/><path class="cls-2" d="M186.4 219.5h-27.6"/><path class="cls-22" d="M159.3 219.5h-.5"/><path class="cls-28" d="M192.1 219.5h-5.7v-5.8h5.7"/><path class="cls-20" d="M192.4 214.5l-.7-.8M192.4 218.5l-4.8-4.8M189.3 219.5l-2.7-2.9M190.5 219.5l1.9-1.7M186.6 219.5l5.8-5.8M186.6 215.4l1.7-1.7"/><path class="cls-28" d="M156.4 219.5h2.4v-5.8h-2.4"/><path class="cls-20" d="M159 217.1l-2.4-2.4M157.3 219.5l-.7-.7M158.5 219.5l.5-.5M156.6 217.6l2.4-2.4"/><path class="cls-23" d="M186.4 219.5v-5.8M158.8 219.5v-5.8M186.4 219.5v-5.8M192.1 219.5h-5.7M158.8 219.5v-5.8M156.4 219.5h2.4M192.1 212.5v1.2M156.4 212.5v1.2M192.1 219.5h-5.7M156.4 219.5h2.4M186.4 213.7h5.7M158.8 213.7h-2.4"/><path class="cls-22" d="M235.6 220.7h17v.5h-17z"/><path class="cls-22" d="M251.9 204.4h.7v16.3h-.7zM218.5 203.7h34.1v.7h-34.1zM218.5 220.7h17v.5h-17z"/><path class="cls-22" d="M218.5 204.4h.5v16.3h-.5zM201.5 220.7h17v.5h-17z"/><path class="cls-22" d="M218.1 209.7h.5v11h-.5zM201.5 209.7h.5v11h-.5zM201.5 208.9h17v.7h-17zM252.6 220.7h1v.5h-1zM200.3 220.7h1.2v.5h-1.2z"/><path class="cls-27" d="M205.1 207h9.8v2.6h-9.8z"/><path class="cls-22" d="M205.1 207h9.8v2.6h-9.8zM204.9 209.7z"/><path class="cls-24" d="M205.8 209.7v8.6"/><path class="cls-4" d="M214.2 209.7v1.6l-.5 1.7-.9 1.5-1 1.2-1.4 1.2-1.5.7-1.4.5-1.7.2"/><path class="cls-28" d="M261.3 196.2l-7.2 7.2v17.3l7.2-7v-17.5"/><path class="cls-20" d="M261.5 199.3l-1.7-1.4M261.5 203.4l-3.6-3.6M261.5 207.3l-5.8-5.6M261.5 211.3l-7.2-7.2M260.5 214.5l-6.2-6.3M258.6 216.6l-4.3-4.3M256.5 218.5l-2.2-2.4M254.5 220.5l-.2-.3M254.3 220l7.2-7.2M254.3 215.9l7.2-7.2M254.3 212.1l7.2-7.2M254.3 208l7.2-7.2M254.3 203.9l7.2-7.2"/><path class="cls-28" d="M261.3 196.2l-7.2 7.2v17.3l7.2-7v-17.5"/><path class="cls-20" d="M261.5 199.3l-1.7-1.4M261.5 203.4l-3.6-3.6M261.5 207.3l-5.8-5.6M261.5 211.3l-7.2-7.2M260.5 214.5l-6.2-6.3M258.6 216.6l-4.3-4.3M256.5 218.5l-2.2-2.4M254.5 220.5l-.2-.3M254.3 220l7.2-7.2M254.3 215.9l7.2-7.2M254.3 212.1l7.2-7.2M254.3 208l7.2-7.2M254.3 203.9l7.2-7.2"/><path class="cls-23" d="M261.3 213.7v-17.5M254.1 220.7v-17.3M254.1 220.7v-17.3M261.3 213.7v-17.5"/><path class="cls-28" d="M254.1 203.4l7.2-7.2h-69.2l7.2 7.2h54.8"/><path class="cls-20" d="M259.8 197.9l-1.7-1.7M257.9 199.8l-3.6-3.6M255.7 201.7l-5.5-5.5M253.3 203.4l-7.2-7.2M249.5 203.4l-7.2-7.2M245.4 203.4l-7.2-7.2M241.3 203.4l-7.2-7.2M237.3 203.4l-7.2-7.2M233.4 203.4l-7.2-7.2M229.3 203.4l-7.2-7.2M225.3 203.4l-7.2-7.2M221.4 203.4l-7.2-7.2M217.3 203.4l-7.2-7.2M213.3 203.4l-7.2-7.2M209.4 203.4l-7.2-7.2M205.3 203.4l-7.2-7.2M201.3 203.4l-7.2-7.2M250.7 203.4l7.2-7.2M246.6 203.4l7.2-7.2M242.8 203.4l7.2-7.2M238.7 203.4l7.2-7.2M234.6 203.4l7.2-7.2M230.8 203.4l7.2-7.2M226.7 203.4l7.2-7.2M222.6 203.4l7.2-7.2M218.5 203.4l7.2-7.2M214.7 203.4l7.2-7.2M210.6 203.4l7.2-7.2M206.5 203.4l7.2-7.2M202.7 203.4l7.2-7.2M199.1 202.9l6.7-6.7M196.9 201l4.8-4.8M195 199.1l2.9-2.9M193.1 196.9l.7-.7"/><path class="cls-28" d="M254.1 203.4l7.2-7.2h-69.2l7.2 7.2h54.8"/><path class="cls-20" d="M259.8 197.9l-1.7-1.7M257.9 199.8l-3.6-3.6M255.7 201.7l-5.5-5.5M253.3 203.4l-7.2-7.2M249.5 203.4l-7.2-7.2M245.4 203.4l-7.2-7.2M241.3 203.4l-7.2-7.2M237.3 203.4l-7.2-7.2M233.4 203.4l-7.2-7.2M229.3 203.4l-7.2-7.2M225.3 203.4l-7.2-7.2M221.4 203.4l-7.2-7.2M217.3 203.4l-7.2-7.2M213.3 203.4l-7.2-7.2M209.4 203.4l-7.2-7.2M205.3 203.4l-7.2-7.2M201.3 203.4l-7.2-7.2M250.7 203.4l7.2-7.2M246.6 203.4l7.2-7.2M242.8 203.4l7.2-7.2M238.7 203.4l7.2-7.2M234.6 203.4l7.2-7.2M230.8 203.4l7.2-7.2M226.7 203.4l7.2-7.2M222.6 203.4l7.2-7.2M218.5 203.4l7.2-7.2M214.7 203.4l7.2-7.2M210.6 203.4l7.2-7.2M206.5 203.4l7.2-7.2M202.7 203.4l7.2-7.2M199.1 202.9l6.7-6.7M196.9 201l4.8-4.8M195 199.1l2.9-2.9M193.1 196.9l.7-.7"/><path class="cls-23" d="M199.3 203.4h54.8M192.1 196.2h69.2M192.1 196.2h69.2M199.3 203.4h54.8"/><path class="cls-20" d="M107.8 27.9C107.8 12.6 95.3 0 80.1 0M80.1.1v27.6"/><path class="cls-6" d="M107.9 27.7v-2.6l.5-2.6.7-2.7 1-2.6.9-2.4 1.5-2.4 1.6-2.2 2-1.9 1.9-1.9 2.1-1.7 2.4-1.4 2.4-1 2.7-1 2.6-.7 2.7-.5h2.6M135.5.1v27.6"/><path class="cls-20" d="M135.5 27.3v.4"/><path class="cls-28" d="M99.3 261.3h-1l-3.1-.8 1.4-2.8 5.5 2.8-2.8.8"/><path class="cls-20" d="M102.1 260.5l-.2-.2M98.8 261.3l-2.7-2.7M101.2 260.8l.5-.5M97.1 261l1.9-2.1"/><path class="cls-22" d="M375.7 145.8v67.7"/><path class="cls-20" d="M142.1 351.1c0-11-9.1-20.1-20.1-20.1M122.1 331.1V351"/><path class="cls-6" d="M142.2 351l.3-3.8 1.2-3.9 1.9-3.3 2.4-3.1 3.1-2.4 3.4-2 3.8-1.2 3.8-.2"/><path class="cls-17" d="M162.1 331.1V351"/><path class="cls-20" d="M310.5 351v-1.9c0-.6.2-1.2.3-1.8s.3-1.2.5-1.8l.6-1.8c.2-.6.5-1.1.8-1.7.3-.5.6-1.1 1-1.6.3-.5.7-1 1.1-1.5.4-.5.8-.9 1.3-1.4.4-.4.9-.9 1.4-1.3.5-.4 1-.8 1.5-1.1.5-.3 1-.7 1.6-1 .5-.3 1.1-.6 1.7-.8l1.8-.6c.6-.2 1.2-.3 1.8-.5l1.8-.3h1.9M329.4 332.1V351M310.5 351v-1.4M310.2 348.1v-.7M310.2 347.4l-.2-.7"/><path class="cls-13" d="M309.7 345.5l-.7-1.7"/><path class="cls-20" d="M308.5 342.6l-.2-.5M308.3 342.1l-.5-.7"/><path class="cls-14" d="M307.3 340.5l-1.2-1.5"/><path class="cls-20" d="M305.2 337.8l-.3-.2M304.9 337.6l-.9-.7M303 335.9l-.9-.7"/><path class="cls-25" d="M302.1 335.2l-1.7-1"/><path class="cls-20" d="M300.4 334.2l-1-.5M298 333.3l-1-.5"/><path class="cls-11" d="M297 332.8l-1.9-.5"/><path class="cls-20" d="M295.1 332.3l-1.2-.2M292.5 332.1h-1"/><path class="cls-6" d="M291.5 332.1V351"/><path class="cls-20" d="M291.5 350.5v.5M395.2 351.1v-1.9c0-.6-.2-1.2-.3-1.8-.1-.6-.3-1.2-.5-1.8l-.6-1.8c-.2-.6-.5-1.1-.8-1.7-.3-.5-.6-1.1-1-1.6-.3-.5-.7-1-1.1-1.5-.4-.5-.8-.9-1.3-1.4-.4-.4-.9-.9-1.4-1.3-.5-.4-1-.8-1.5-1.1-.5-.3-1-.7-1.6-1-.5-.3-1.1-.6-1.7-.8l-1.8-.6c-.6-.2-1.2-.3-1.8-.5l-1.8-.3h-1.9M376.2 332.1V351M395.2 351l.2-1.4M395.7 348.1v-.7M395.7 347.4l.2-.7"/><path class="cls-13" d="M396.1 345.5l.5-1.7"/><path class="cls-20" d="M397.3 342.6l.3-.5M397.6 342.1l.5-.7M398.8 340.2l.7-1.2"/><path class="cls-15" d="M399.5 339l1.2-1.4"/><path class="cls-20" d="M400.7 337.6l1-.7M402.9 335.9l.7-.5M403.6 335.4l.5-.2"/><path class="cls-10" d="M405.3 334.5l1.6-1"/><path class="cls-20" d="M407.9 333.3l.7-.3M408.6 333l.7-.2"/><path class="cls-13" d="M410.5 332.5l2-.2"/><path class="cls-20" d="M413.7 332.1h.4"/><path class="cls-6" d="M414.1 332.1V351"/><path class="cls-20" d="M414.1 350.5v.5M558 331c-11 0-20.1 9.1-20.1 20.1M557.9 331.1V351"/><path class="cls-6" d="M517.8 331.1l3.9.2 3.8 1.2 3.4 2 3.1 2.4 2.4 3.1 1.9 3.3 1.2 3.9.2 3.8"/><path class="cls-17" d="M517.8 331.1V351"/><path class="cls-22" d="M278.5 234.6v.7M278.5 235.3l-.2 1M278.3 236.3l-.2.7M278.1 237v.3M277.3 238.7v.2M276.4 239.9l-.5.7M275.9 240.6l-.5.5M275.4 241.1l-.7.5M274.7 241.6l-.5.2M273 242.5h-.2M271.3 242.8l-.4.2M270.9 243h-1M269.9 243h-.7M269.2 243h-.5M267.3 242.5h-.3M265.6 241.8l-.3-.2M265.3 241.6l-.7-.5M264.6 241.1l-.7-.5M263.9 240.6l-.5-.5M262.7 238.9l-.2-.2M262 237.3l-.3-.3M261.7 237v-.7M261.7 236.3l-.2-1M261.5 235.3v-.7M261.5 233.2l.2-.3M262 231.5l.2-.2M262.2 231.3l.3-.8M262.5 230.5l.4-.7M262.9 229.8l.5-.7M264.4 228.1l.2-.2M265.8 227.2l.3-.3M266.1 226.9l.7-.2M266.8 226.7l.7-.2M267.5 226.5l.7-.3M268.2 226.2h.3M269.9 226h.2M271.6 226.2l.9.3M272.5 226.5l.8.2M273.3 226.7l.7.2M274 226.9l.2.3M275.4 227.9l.3.2M276.6 229.1l.5.7M277.1 229.8l.5.7M277.6 230.5l.2.8M277.8 231.3l.3.4M278.3 232.9v.3"/></g><g id="Mbel"><path class="cls-3" d="M516.6 261.7h22.6v50.9h-22.6zM549.2 311.3v-12.8M540.7 311.3h8.5M549.2 298.5h-8.5M549.2 293.5v-12.7M540.7 293.5h8.5M549.2 280.8h-8.5M549.2 275.8v-12.7M540.7 275.8h8.5M549.2 263.1h-8.5M506.7 311.3v-12.8M515.2 311.3h-8.5M506.7 298.5h8.5M506.7 293.5v-12.7M515.2 293.5h-8.5M506.7 280.8h8.5M506.7 275.8v-12.7M515.2 275.8h-8.5M506.7 263.1h8.5M141.7 261.7h45.4v56.9h-45.4zM332.8 261.9h15.6v56.6h-15.6zM237.5 261.9h56.6v28.3h-56.6zM257.4 314.7h7.7V326h-7.7zM237.5 297.7h19.9v45.4h-19.9zM356.5 272.2h10.6v56.9h-10.6zM404.3 294.8h14.2v28.3h-14.2zM449.3 282.3h-19c-.1 0-.2.1-.3.2 0 0-.1.2-.2.3v25.5c0 .1.1.2.2.3 0 0 .2.1.3.2h19v-26.6M453 277.8h-22.7c-.1 0-.2.1-.3.2 0 0-.1.2-.2.3V281.7c0 .1.1.2.2.3 0 0 .2.1.3.2h23.2l.1-.1.1-.1v-.1-.2-3-.3c0-.1-.1-.2-.2-.3s-.2-.1-.3-.2h-.3M449.3 309h4.2l.1.1.1.1v25.9l-.1.1-.1.1h-.1-.2H449.3M447 335.6v-53.3M449.3 335.6h-19c-.1 0-.2-.1-.3-.2 0 0-.1-.2-.2-.3v-25.2-.3c0-.1.1-.2.2-.3 0 0 .2-.1.3-.2h19v26.6M453 340.2h-22.7c-.1 0-.2-.1-.3-.2 0 0-.1-.2-.2-.3V336.6v-.3c0-.1.1-.2.2-.3 0 0 .2-.1.3-.2h23.2l.1.1.1.1V339.6c0 .1-.1.2-.2.3s-.2.1-.3.2h-.3M449.3 309h4.2l.1-.1.1-.1v-.1-.2V283.4v-.2-.2-.1l-.1-.1-.1-.1h-.1-.2H449.3M402.4 266.2c3.2-2.3 6.7-4.4 10.2-6.2.9-.4 1.9-.3 2.6.3 2.5 2.1 4.3 4.8 5.3 7.8.3.9 0 1.9-.7 2.5-3 2.6-6.2 5.1-9.6 7.2h-.1c-.5-.5-1-1-1.4-1.5-2-2.6-3.8-5.4-5.5-8.1-.4-.6-.7-1.2-.9-1.9"/><path class="cls-3" d="M403.1 265.2c0-.3.1-.7.3-1 .7-1.3 1.8-2.5 3.1-3.3 1.7-1.1 3.6-2 5.5-2.8 1.4-.6 2.8-.9 4.2-1.1.8-.1 1.7.2 2.3.7 2.5 2.3 4.4 5.1 5.7 8.3.3.8.2 1.7-.2 2.4-.7 1.3-1.6 2.5-2.6 3.5-1.4 1.5-3 2.8-4.6 4.1-1.2.9-2.7 1.5-4.2 1.6h-1M103.6 261.7h15.6v56.9h-15.6z"/></g><g id="Text"><path d="M286 314.4v.6h-3.8l3-4.8h-2.7v-.6h3.8l-3 4.8h2.7zM287.8 310.2c0 .2-.2.4-.4.4s-.4-.2-.4-.4.2-.4.4-.4.4.2.4.4zm0 4.7h-.6v-3.7h.6v3.7zM289.7 311.3v.5c.3-.4.6-.6 1-.6s.8.2 1 .7c.3-.5.6-.7 1.2-.7s.7.1.9.4c.2.2.2.4.2 1v2.4h-.6v-2.2c0-.4 0-.6-.1-.7-.1-.2-.4-.3-.6-.3-.5 0-.8.4-.8 1v2.2h-.6v-2.2c0-.4 0-.5-.1-.7-.1-.2-.3-.3-.6-.3-.5 0-.9.4-.9 1v2.2h-.6v-3.7h.6zM296 311.3v.5c.3-.4.6-.6 1-.6s.8.2 1 .7c.3-.5.6-.7 1.2-.7s.7.1.9.4c.2.2.2.4.2 1v2.4h-.6v-2.2c0-.4 0-.6-.1-.7-.1-.2-.4-.3-.6-.3-.5 0-.8.4-.8 1v2.2h-.6v-2.2c0-.4 0-.5-.1-.7-.1-.2-.3-.3-.6-.3-.5 0-.9.4-.9 1v2.2h-.6v-3.7h.6zM302.1 313.3c0 .3 0 .5.2.7.2.3.6.5 1 .5s.9-.2 1.1-.6l.5.2c-.3.6-.9 1-1.6 1-1.1 0-1.9-.8-1.9-1.9s.8-1.9 1.9-1.9 1.9.8 1.9 1.9v.2h-3.1zm2.4-.4c0-.3 0-.4-.2-.6-.2-.3-.6-.5-1-.5s-.8.2-1 .5c-.1.2-.2.3-.2.6h2.4zM306.8 311.3v.6c.1-.3.2-.4.3-.5.2-.1.4-.2.7-.2h.1v.6h-.2c-.3 0-.6.2-.8.4-.2.2-.2.4-.2.9v1.9h-.6v-3.7h.6zM282.9 320.4v-.6l1.8-1.2v5.4h-.6v-4.4l-1.2.8zM289.2 323.4v.6h-3l1.9-2.7c.5-.8.7-1 .7-1.3 0-.5-.4-.8-.9-.8s-.7.2-.8.4v.6h-.6c0-1 .6-1.6 1.5-1.6s1.5.5 1.5 1.3-.2.8-.6 1.5l-1.4 2h1.9zM291.2 323.6c0 .2-.2.4-.4.4s-.4-.2-.4-.4.2-.4.4-.4.4.2.4.4zM292.6 319.3v-.6h3l-1.6 2c.9 0 1.6.7 1.6 1.6s-.8 1.7-1.8 1.7-1.4-.5-1.6-1.3h.6c.1.4.5.7 1 .7s1.2-.5 1.2-1.1-.5-1.1-1.2-1.1-.4 0-.6.2l-.3-.2 1.5-1.9h-1.9zM298.9 320.3v.5c.3-.4.6-.6 1-.6s.8.2 1 .7c.3-.5.6-.7 1.2-.7s.7.1.9.4c.2.2.2.4.2 1v2.4h-.6v-2.2c0-.4 0-.6-.1-.7-.1-.2-.4-.3-.6-.3-.5 0-.8.4-.8 1v2.2h-.6v-2.2c0-.4 0-.5-.1-.7-.1-.2-.3-.3-.6-.3-.5 0-.9.4-.9 1v2.2h-.6v-3.7h.6zM306.5 321.4v.4h-2l1.2-1.6c.3-.5.4-.6.4-.8 0-.3-.2-.4-.5-.4s-.5.2-.5.6h-.4c0-.6.4-1 1-1s1 .3 1 .8-.1.5-.4.9l-.8 1.1h1.1z"/><g><path d="M198.1 314.4v.6h-3.8l3-4.8h-2.7v-.6h3.8l-3 4.8h2.7zM200 310.2c0 .2-.2.4-.4.4s-.4-.2-.4-.4.2-.4.4-.4.4.2.4.4zm0 4.7h-.6v-3.7h.6v3.7zM201.8 311.3v.5c.3-.4.6-.6 1-.6s.8.2 1 .7c.3-.5.6-.7 1.2-.7s.7.1.9.4c.2.2.2.4.2 1v2.4h-.6v-2.2c0-.4 0-.6-.1-.7-.1-.2-.4-.3-.6-.3-.5 0-.8.4-.8 1v2.2h-.6v-2.2c0-.4 0-.5-.1-.7-.1-.2-.3-.3-.6-.3-.5 0-.9.4-.9 1v2.2h-.6v-3.7h.6zM208.2 311.3v.5c.3-.4.6-.6 1-.6s.8.2 1 .7c.3-.5.6-.7 1.2-.7s.7.1.9.4c.2.2.2.4.2 1v2.4h-.6v-2.2c0-.4 0-.6-.1-.7-.1-.2-.4-.3-.6-.3-.5 0-.8.4-.8 1v2.2h-.6v-2.2c0-.4 0-.5-.1-.7-.1-.2-.3-.3-.6-.3-.5 0-.9.4-.9 1v2.2h-.6v-3.7h.6zM214.3 313.3c0 .3 0 .5.2.7.2.3.6.5 1 .5s.9-.2 1.1-.6l.5.2c-.3.6-.9 1-1.6 1-1.1 0-1.9-.8-1.9-1.9s.8-1.9 1.9-1.9 1.9.8 1.9 1.9v.2h-3.1zm2.4-.4c0-.3 0-.4-.2-.6-.2-.3-.6-.5-1-.5s-.8.2-1 .5c-.1.2-.2.3-.2.6h2.4zM219 311.3v.6c.1-.3.2-.4.3-.5.2-.1.4-.2.7-.2h.1v.6h-.2c-.3 0-.6.2-.8.4-.2.2-.2.4-.2.9v1.9h-.6v-3.7h.6zM195.1 320.4v-.6l1.8-1.2v5.4h-.6v-4.4l-1.2.8zM198.3 322.7v-.5l2.8-3.7v3.6h.6v.6h-.6v1.2h-.6v-1.2h-2.1zm2.1-2.6l-1.5 2h1.5v-2zM203.5 323.6c0 .2-.2.4-.4.4s-.4-.2-.4-.4.2-.4.4-.4.4.2.4.4zM207.8 322.3c0 .6-.1 1-.4 1.2-.3.3-.7.4-1.2.4s-1-.2-1.2-.5c-.3-.3-.4-.6-.4-1.4v-1.8c0-.7 0-1 .3-1.3.3-.3.7-.5 1.2-.5s.9.1 1.2.4c.3.3.4.6.4 1.2v2.1zm-2.5-.1c0 .6 0 .7.2.9.2.2.5.3.8.3s.6-.1.8-.4c.1-.2.2-.4.2-.8v-2c0-.4 0-.6-.3-.8-.2-.2-.4-.2-.7-.2s-.6.1-.8.4c-.1.2-.2.4-.2.8v1.8zM211.1 320.3v.5c.3-.4.6-.6 1-.6s.8.2 1 .7c.3-.5.6-.7 1.2-.7s.7.1.9.4c.2.2.2.4.2 1v2.4h-.6v-2.2c0-.4 0-.6-.1-.7-.1-.2-.4-.3-.6-.3-.5 0-.8.4-.8 1v2.2h-.6v-2.2c0-.4 0-.5-.1-.7-.1-.2-.3-.3-.6-.3-.5 0-.9.4-.9 1v2.2h-.6v-3.7h.6zM218.7 321.4v.4h-2l1.2-1.6c.3-.5.4-.6.4-.8 0-.3-.2-.4-.5-.4s-.5.2-.5.6h-.4c0-.6.4-1 1-1s1 .3 1 .8-.1.5-.4.9l-.8 1.1h1.1z"/></g><g><path d="M404.9 172.7c1.1 0 1.7.5 1.7 1.4s-.1.6-.3.9c-.1.2-.3.2-.5.3.3 0 .4.1.6.2.3.2.4.6.4 1s-.2.9-.6 1.2c-.3.2-.7.3-1.3.3h-1.5v-5.3h1.5zm-.8 2.4h.7c.4 0 .7 0 .9-.2.2-.2.3-.4.3-.7s-.2-.6-.4-.8c-.2 0-.4-.1-.9-.1h-.6v1.8zm0 2.4h.7c.6 0 .8 0 1-.2.3-.1.4-.4.4-.8 0-.6-.4-.9-1.2-.9h-.8v1.8zM410.8 174.3h.6v3.7h-.6v-.7c-.4.6-.8.8-1.3.8-1 0-1.7-.8-1.7-1.9s.7-1.9 1.8-1.9 1 .2 1.3.7v-.6zm-2.1.9c-.2.3-.3.6-.3 1 0 .8.5 1.4 1.2 1.4s1.3-.6 1.3-1.4-.5-1.4-1.2-1.4-.7.1-.9.4zM415.6 172.7h.6v5.3h-.6v-.6c-.4.5-.8.7-1.3.7-1 0-1.7-.8-1.7-1.9s.7-2 1.7-2 1 .2 1.3.6v-2.2zm-2.4 3.5c0 .8.5 1.4 1.2 1.4s1.2-.6 1.2-1.4-.5-1.4-1.2-1.4-1.2.6-1.2 1.4zM403 185.8v-.5l2.8-3.7v3.6h.6v.6h-.6v1.2h-.6v-1.2h-2.1zm2.1-2.6l-1.5 2h1.5v-2zM408.2 186.6c0 .2-.2.4-.4.4s-.4-.2-.4-.4.2-.4.4-.4.4.2.4.4zM409.2 183.4v-.6l1.8-1.2v5.4h-.6v-4.4l-1.2.8zM415.2 183.3v.5c.3-.4.6-.6 1-.6s.8.2 1 .7c.3-.5.6-.7 1.2-.7s.7.1.9.4c.2.2.2.4.2 1v2.4h-.6v-2.2c0-.4 0-.6-.1-.7-.1-.2-.4-.3-.6-.3-.5 0-.8.4-.8 1v2.2h-.6v-2.2c0-.4 0-.5-.1-.7-.1-.2-.3-.3-.6-.3-.5 0-.9.4-.9 1v2.2h-.6v-3.7h.6zM422.8 184.5v.4h-2l1.2-1.6c.3-.5.4-.6.4-.8 0-.3-.2-.4-.5-.4s-.5.2-.5.6h-.4c0-.6.4-1 1-1s1 .3 1 .8-.1.5-.4.9l-.8 1.1h1.1z"/></g><g><path d="M289.3 231.6h2.1v.6h-2.1v1.8h2.1v.6h-2.8v-5.3h2.8v.6h-2.1v1.8zM293.2 230.9v.5c.3-.4.6-.6 1.1-.6s.6.1.9.3c.2.2.3.5.3 1v2.5h-.6v-2.4c0-.3 0-.5-.1-.6-.1-.2-.3-.2-.6-.2s-.5.1-.7.3c-.2.2-.2.4-.2.7v2.2h-.6v-3.7h.6zM297.5 233.8c0 .2 0 .2.3.2h.3v.5h-.6c-.4 0-.6-.2-.6-.6v-2.6h-.5v-.5h.5v-1.2h.6v1.2h.6v.5h-.6v2.4zM299.7 230.9v.6c.1-.3.2-.4.3-.5.2-.1.4-.2.7-.2h.1v.6h-.2c-.3 0-.6.2-.8.4-.2.2-.2.4-.2.9v1.9h-.6v-3.7h.6zM302.1 232.9c0 .3 0 .5.2.7.2.3.6.5 1 .5s.9-.2 1.1-.6l.5.2c-.3.6-.9 1-1.6 1-1.1 0-1.9-.8-1.9-1.9s.8-1.9 1.9-1.9 1.9.8 1.9 1.9v.2h-3.1zm2.4-.4c0-.3 0-.4-.2-.6-.2-.3-.6-.5-1-.5s-.8.2-1 .5c-.1.2-.2.3-.2.6h2.4zm-.2-3.2l-.9 1.1h-.4l.7-1.1h.7zM306.7 232.9c0 .3 0 .5.2.7.2.3.6.5 1 .5s.9-.2 1.1-.6l.5.2c-.3.6-.9 1-1.6 1-1.1 0-1.9-.8-1.9-1.9s.8-1.9 1.9-1.9 1.9.8 1.9 1.9v.2h-3.1zm2.4-.4c0-.3 0-.4-.2-.6-.2-.3-.6-.5-1-.5s-.8.2-1 .5c-.1.2-.2.3-.2.6h2.4zM288.7 238.9v-.6h3l-2.1 5.3h-.7l1.9-4.7h-2zM292.9 243.2c0 .2-.2.4-.4.4s-.4-.2-.4-.4.2-.4.4-.4.4.2.4.4zM294.1 238.9v-.6h3l-2.1 5.3h-.7l1.9-4.7h-2zM301.2 239.9v.5c.3-.4.6-.6 1-.6s.8.2 1 .7c.3-.5.6-.7 1.2-.7s.7.1.9.4c.2.2.2.4.2 1v2.4h-.6v-2.2c0-.4 0-.6-.1-.7-.1-.2-.4-.3-.6-.3-.5 0-.8.4-.8 1v2.2h-.6v-2.2c0-.4 0-.5-.1-.7-.1-.2-.3-.3-.6-.3-.5 0-.9.4-.9 1v2.2h-.6v-3.7h.6zM308.8 241v.4h-2l1.2-1.6c.3-.5.4-.6.4-.8 0-.3-.2-.4-.5-.4s-.5.2-.5.6h-.4c0-.6.4-1 1-1s1 .3 1 .8-.1.5-.4.9l-.8 1.1h1.1z"/></g><g><path d="M452.5 245.9h-.7v-5.3h.7v2.5l2.1-2.5h.8l-2.2 2.6 2.2 2.7h-.9l-2-2.5v2.5zM459.6 244.1c0 1.1-.8 1.9-1.9 1.9s-1.9-.8-1.9-1.9.8-1.9 1.9-1.9 1.9.8 1.9 1.9zm-3.1 0c0 .8.5 1.4 1.3 1.4s1.2-.6 1.2-1.4-.5-1.4-1.2-1.4-1.3.6-1.3 1.4zM463.6 245.5c-.4.4-.8.5-1.4.5-1.1 0-1.8-.8-1.8-1.9s.8-1.9 1.8-1.9 1 .2 1.3.6l-.4.4c-.3-.3-.6-.4-.9-.4-.7 0-1.2.6-1.2 1.4s.5 1.4 1.2 1.4.6-.1.9-.4l.4.4zM465.1 242.7c.3-.4.7-.6 1.1-.6s.7.1.9.3c.2.2.3.5.3 1v2.5h-.6v-2.4c0-.5-.2-.8-.7-.8s-.5.1-.7.3c-.2.2-.2.4-.2.7v2.2h-.6v-5.3h.6v2.2zM469.1 244.3c0 .3 0 .5.2.7.2.3.6.5 1 .5s.9-.2 1.1-.6l.5.2c-.3.6-.9 1-1.6 1-1.1 0-1.9-.8-1.9-1.9s.8-1.9 1.9-1.9 1.9.8 1.9 1.9v.2h-3.1zm2.4-.4c0-.3 0-.4-.2-.6-.2-.3-.6-.5-1-.5s-.8.2-1 .5c-.1.2-.2.3-.2.6h2.4zM473.8 242.2v.5c.3-.4.6-.6 1.1-.6s.6.1.9.3c.2.2.3.5.3 1v2.5h-.6v-2.4c0-.3 0-.5-.1-.6-.1-.2-.3-.2-.6-.2s-.5.1-.7.3c-.2.2-.2.4-.2.7v2.2h-.6v-3.7h.6zM477.4 247.2h-.4l.7-2.1.6.2-.8 1.9zM482.5 242.9h2.1v.6h-2.1v1.8h2.1v.6h-2.8v-5.3h2.8v.6h-2.1v1.8zM487.6 243.2c0-.4-.3-.6-.7-.6s-.7.2-.7.5.2.4.8.6c.5.1.7.2.9.4.2.2.3.4.3.7 0 .6-.5 1.1-1.3 1.1s-1.3-.4-1.4-1.1h.6c0 .4.3.6.8.6s.7-.2.7-.5-.2-.5-.8-.6c-.8-.2-1.2-.6-1.2-1.1s.5-1.1 1.3-1.1 1.3.4 1.3 1.1h-.6zM491.1 243.2c0-.4-.3-.6-.7-.6s-.7.2-.7.5.2.4.8.6c.5.1.7.2.9.4.2.2.3.4.3.7 0 .6-.5 1.1-1.3 1.1s-1.3-.4-1.4-1.1h.6c0 .4.3.6.8.6s.7-.2.7-.5-.2-.5-.8-.6c-.8-.2-1.2-.6-1.2-1.1s.5-1.1 1.3-1.1 1.3.4 1.3 1.1h-.6zM493.2 244.3c0 .3 0 .5.2.7.2.3.6.5 1 .5s.9-.2 1.1-.6l.5.2c-.3.6-.9 1-1.6 1-1.1 0-1.9-.8-1.9-1.9s.8-1.9 1.9-1.9 1.9.8 1.9 1.9v.2h-3.1zm2.4-.4c0-.3 0-.4-.2-.6-.2-.3-.6-.5-1-.5s-.8.2-1 .5c-.1.2-.2.3-.2.6h2.4zM498 242.2v.5c.3-.4.6-.6 1.1-.6s.6.1.9.3c.2.2.3.5.3 1v2.5h-.6v-2.4c0-.3 0-.5-.1-.6-.1-.2-.3-.2-.6-.2s-.5.1-.7.3c-.2.2-.2.4-.2.7v2.2h-.6v-3.7h.6zM501.5 247.2h-.4l.7-2.1.6.2-.8 1.9zM457.4 249.6h.7l-1.6 5.3h-.6l-1.2-4.2-1.2 4.2h-.6l-1.6-5.3h.7l1.2 4.1 1.2-4.1h.6l1.1 4.1 1.2-4.1zM462.2 253.1c0 1.1-.8 1.9-1.9 1.9s-1.9-.8-1.9-1.9.8-1.9 1.9-1.9 1.9.8 1.9 1.9zm-3.1 0c0 .8.5 1.4 1.3 1.4s1.2-.6 1.2-1.4-.5-1.4-1.2-1.4-1.3.6-1.3 1.4zM463.9 251.7c.3-.4.7-.6 1.1-.6s.7.1.9.3c.2.2.3.5.3 1v2.5h-.6v-2.4c0-.5-.2-.8-.7-.8s-.5.1-.7.3c-.2.2-.2.4-.2.7v2.2h-.6v-5.3h.6v2.2zM468.1 251.2v.5c.3-.4.6-.6 1.1-.6s.6.1.9.3c.2.2.3.5.3 1v2.5h-.6v-2.4c0-.3 0-.5-.1-.6-.1-.2-.3-.2-.6-.2s-.5.1-.7.3c-.2.2-.2.4-.2.7v2.2h-.6v-3.7h.6zM472.1 253.3c0 .3 0 .5.2.7.2.3.6.5 1 .5s.9-.2 1.1-.6l.5.2c-.3.6-.9 1-1.6 1-1.1 0-1.9-.8-1.9-1.9s.8-1.9 1.9-1.9 1.9.8 1.9 1.9v.2h-3.1zm2.4-.4c0-.3 0-.4-.2-.6-.2-.3-.6-.5-1-.5s-.8.2-1 .5c-.1.2-.2.3-.2.6h2.4zM476.8 251.2v.5c.3-.4.6-.6 1.1-.6s.6.1.9.3c.2.2.3.5.3 1v2.5h-.6v-2.4c0-.3 0-.5-.1-.6-.1-.2-.3-.2-.6-.2s-.5.1-.7.3c-.2.2-.2.4-.2.7v2.2h-.6v-3.7h.6zM451.8 259.2v-.6h3l-1.6 2c.9 0 1.6.7 1.6 1.6s-.8 1.7-1.8 1.7-1.4-.5-1.6-1.3h.6c.1.4.5.7 1 .7s1.2-.5 1.2-1.1-.5-1.1-1.2-1.1-.4 0-.6.2l-.3-.2 1.5-1.9h-1.9zM457 260.8c.2 0 .3-.1.5-.1.9 0 1.6.7 1.6 1.6s-.8 1.7-1.7 1.7-1.7-.8-1.7-1.7.1-.7.4-1.2l1.5-2.5h.7l-1.4 2.1zm-.7 1.5c0 .6.5 1.1 1.1 1.1s1.1-.5 1.1-1.1-.5-1.1-1.1-1.1-1.1.5-1.1 1.1zM461 263.6c0 .2-.2.4-.4.4s-.4-.2-.4-.4.2-.4.4-.4.4.2.4.4zM462.2 259.3v-.6h3l-2.1 5.3h-.7l1.9-4.7h-2zM469.3 260.2v.5c.3-.4.6-.6 1-.6s.8.2 1 .7c.3-.5.6-.7 1.2-.7s.7.1.9.4c.2.2.2.4.2 1v2.4h-.6v-2.2c0-.4 0-.6-.1-.7-.1-.2-.4-.3-.6-.3-.5 0-.8.4-.8 1v2.2h-.6v-2.2c0-.4 0-.5-.1-.7-.1-.2-.3-.3-.6-.3-.5 0-.9.4-.9 1v2.2h-.6v-3.7h.6zM476.9 261.4v.4h-2l1.2-1.6c.3-.5.4-.6.4-.8 0-.3-.2-.4-.5-.4s-.5.2-.5.6h-.4c0-.6.4-1 1-1s1 .3 1 .8-.1.5-.4.9l-.8 1.1h1.1z"/></g><g><path d="M129.5 184v.6H127v-5.3h.7v4.7h1.9zM131.2 179.9c0 .2-.2.4-.4.4s-.4-.2-.4-.4.2-.4.4-.4.4.2.4.4zm0 4.7h-.6v-3.7h.6v3.7zM133.1 184.6h-.6v-3.2h-.5v-.5h.5v-.5c0-.7.4-1.2 1-1.2h.2v.5c-.4 0-.6.2-.6.6v.5h.6v.5h-.6v3.2zM135.5 183.9c0 .2 0 .2.3.2h.3v.5h-.6c-.4 0-.6-.2-.6-.6v-2.6h-.5v-.5h.5v-1.2h.6v1.2h.6v.5h-.6v2.4z"/></g><g><path d="M87.6 117.8h2.1v.6h-2.1v1.8h2.1v.6h-2.8v-5.3h2.8v.6h-2.1v1.8zM91.6 116.1c0 .2-.2.4-.4.4s-.4-.2-.4-.4.2-.4.4-.4.4.2.4.4zm0 4.7H91v-3.7h.6v3.7zM93.4 117.1v.5c.3-.4.6-.6 1.1-.6s.6.1.9.3c.2.2.3.5.3 1v2.5h-.6v-2.4c0-.3 0-.5-.1-.6-.1-.2-.3-.2-.6-.2s-.5.1-.7.3c-.2.2-.2.4-.2.7v2.2h-.6v-3.7h.6zM99.8 117.1h.6v3.7c0 .6-.2 1-.5 1.4-.3.3-.8.5-1.4.5s-1.2-.2-1.6-.7l.4-.4c.2.2.2.2.4.3.2.1.6.2.9.2s.8-.1 1-.4c.2-.2.3-.5.3-.9v-.8c-.4.5-.8.8-1.4.8-1 0-1.7-.8-1.7-1.9s.2-1.2.6-1.5c.3-.3.7-.4 1.2-.4s.9.2 1.3.7v-.6zm-2.4 1.8c0 .8.5 1.4 1.2 1.4s.7-.2.9-.4c.2-.2.3-.5.3-.9s0-.7-.3-1c-.2-.2-.6-.4-.9-.4-.7 0-1.2.6-1.2 1.4zM104.6 117.1h.6v3.7h-.6v-.7c-.4.6-.8.8-1.3.8-1 0-1.7-.8-1.7-1.9s.7-1.9 1.8-1.9 1 .2 1.3.7v-.6zm-2.1.9c-.2.3-.3.6-.3 1 0 .8.5 1.4 1.2 1.4s1.3-.6 1.3-1.4-.5-1.4-1.2-1.4-.7.1-.9.4zM107.2 117.1v.5c.3-.4.6-.6 1.1-.6s.6.1.9.3c.2.2.3.5.3 1v2.5h-.6v-2.4c0-.3 0-.5-.1-.6-.1-.2-.3-.2-.6-.2s-.5.1-.7.3c-.2.2-.2.4-.2.7v2.2h-.6v-3.7h.6zM113.6 117.1h.6v3.7c0 .6-.2 1-.5 1.4-.3.3-.8.5-1.4.5s-1.2-.2-1.6-.7l.4-.4c.2.2.2.2.4.3.2.1.6.2.9.2s.8-.1 1-.4c.2-.2.3-.5.3-.9v-.8c-.4.5-.8.8-1.4.8-1 0-1.7-.8-1.7-1.9s.2-1.2.6-1.5c.3-.3.7-.4 1.2-.4s.9.2 1.3.7v-.6zm-2.4 1.8c0 .8.5 1.4 1.2 1.4s.7-.2.9-.4c.2-.2.3-.5.3-.9s0-.7-.3-1c-.2-.2-.6-.4-.9-.4-.7 0-1.2.6-1.2 1.4z"/></g></g></svg>