<svg xmlns="http://www.w3.org/2000/svg" viewBox="0 0 655.7 425.2"><defs><style>.cls-1,.cls-10,.cls-11,.cls-12,.cls-13,.cls-14,.cls-15,.cls-16,.cls-17,.cls-18,.cls-19,.cls-2,.cls-20,.cls-21,.cls-22,.cls-3,.cls-4,.cls-5,.cls-6,.cls-7,.cls-8,.cls-9{fill:none}.cls-10,.cls-11,.cls-12,.cls-13,.cls-14,.cls-15,.cls-16,.cls-17,.cls-18,.cls-19,.cls-2,.cls-20,.cls-21,.cls-22,.cls-3,.cls-4,.cls-5,.cls-6,.cls-7,.cls-9{stroke-linecap:round;stroke-linejoin:round}.cls-10,.cls-11,.cls-12,.cls-13,.cls-14,.cls-15,.cls-16,.cls-17,.cls-18,.cls-19,.cls-2,.cls-21,.cls-22,.cls-3,.cls-4,.cls-5,.cls-6,.cls-9{stroke-width:.1px}.cls-17,.cls-19,.cls-2,.cls-20,.cls-21,.cls-4,.cls-5,.cls-9{stroke:#194164}.cls-2,.cls-9{stroke-dasharray:0 0 0 0 2.9 1.4 .2 1.4}.cls-3{stroke:#646464}.cls-10,.cls-11,.cls-12,.cls-13,.cls-14,.cls-15,.cls-16,.cls-17,.cls-21,.cls-22,.cls-4,.cls-5,.cls-6{stroke-dasharray:0 0 1.4 1.4}.cls-23{clip-path:url(#clippath)}.cls-5{stroke-dashoffset:1px}.cls-24,.cls-25{fill:#fff}.cls-10,.cls-11,.cls-12,.cls-13,.cls-14,.cls-15,.cls-16,.cls-18,.cls-22,.cls-6{stroke:#969696}.cls-7{stroke:#000;stroke-width:.3px}.cls-8{clip-rule:evenodd}.cls-26{clip-path:url(#clippath-1)}.cls-27{clip-path:url(#clippath-4)}.cls-28{clip-path:url(#clippath-3)}.cls-29{clip-path:url(#clippath-2)}.cls-9{stroke-dashoffset:1.7px}.cls-10{stroke-dashoffset:2.8px}.cls-11{stroke-dashoffset:2.4px}.cls-12{stroke-dashoffset:2.7px}.cls-13{stroke-dashoffset:2.5px}.cls-14{stroke-dashoffset:1.4px}.cls-15,.cls-21{stroke-dashoffset:.7px}.cls-25{fill-rule:evenodd}.cls-16{stroke-dashoffset:2.3px}.cls-17{stroke-dashoffset:.2px}.cls-20{stroke-width:.3px}.cls-22{stroke-dashoffset:1.2px}</style><clipPath id="clippath"><path class="cls-1" d="M81.7 0h574v425.2h-574z"/></clipPath><clipPath id="clippath-1"><path class="cls-8" d="M240.1 140.1l-6.9-7H7.3l-7.2 7h240"/></clipPath><clipPath id="clippath-2"><path class="cls-8" d="M240.1 140.1l-6.9-7H7.3l-7.2 7h240"/></clipPath><clipPath id="clippath-3"><path class="cls-8" d="M139.3 31.6v-7.2H.1l7.2 7.2h132"/></clipPath><clipPath id="clippath-4"><path class="cls-8" d="M139.3 31.6v-7.2H.1l7.2 7.2h132"/></clipPath></defs><g class="cls-23" id="Plan"><path class="cls-20" d="M157.8 41.9h29.8v39.6h-29.8z"/><path class="cls-19" d="M189.3 90.4H154M171 87.5h13.9M158.3 84.6h13.9"/><path class="cls-18" d="M539.4 232.9h59v3.6h-59z"/><path class="cls-19" d="M257.9 82.9v2.7"/><path class="cls-7" d="M258.6 82.9v3.4"/><path class="cls-19" d="M256.5 82.9v1.2M257.9 82.9v2.7M258.6 82.9v3.4M256.5 82.9v1.2"/><path class="cls-7" d="M257.9 82.9h.7"/><path class="cls-19" d="M256.5 82.9h1.4M257.9 85.6h-17.8"/><path class="cls-7" d="M258.6 86.3h-18.5"/><path class="cls-19" d="M256.5 84.1h-16.4M257.9 85.6h-17.8"/><path class="cls-7" d="M240.1 85.6v.7"/><path class="cls-19" d="M240.1 84.1v1.5M258.6 86.3h-18.5M256.5 84.1h-16.4"/><path class="cls-25" d="M240.1 82.9l-6.9-6.9v23.5h6.9V82.9"/><path class="cls-18" d="M240.4 84.6l-7-6.9M240.4 88.5l-7-7M240.4 92.5l-7-6.9M240.4 96.6l-7-6.9M239.2 99.5l-5.8-6M235.1 99.5l-1.7-1.9M238.7 99.5l1.7-1.7M234.6 99.5l5.8-5.5M233.4 96.9l7-7M233.4 92.8l7-7M233.4 88.9l6.3-6.4M233.4 84.9l4.3-4.6M233.4 80.8l2.4-2.4M233.4 76.9l.3-.4"/><path class="cls-25" d="M240.1 82.9l-6.9-6.9v23.5h6.9V82.9"/><path class="cls-18" d="M240.4 84.6l-7-6.9M240.4 88.5l-7-7M240.4 92.5l-7-6.9M240.4 96.6l-7-6.9M239.2 99.5l-5.8-6M235.1 99.5l-1.7-1.9M238.7 99.5l1.7-1.7M234.6 99.5l5.8-5.5M233.4 96.9l7-7M233.4 92.8l7-7M233.4 88.9l6.3-6.4M233.4 84.9l4.3-4.6M233.4 80.8l2.4-2.4M233.4 76.9l.3-.4"/><path class="cls-20" d="M240.1 99.5V82.9M233.2 92.1V76M233.2 99.5v-.2M233.2 92.1V76M240.1 99.5V82.9M233.2 99.5v-.2"/><path class="cls-25" d="M240.1 135.3h-4.8l4.8 4.8v-4.8"/><path class="cls-18" d="M240.4 136.7l-1.5-1.4M239.2 139.1l1.2-1.2M237.3 136.9l1.6-1.6"/><path class="cls-25" d="M240.1 135.3h-4.8l4.8 4.8v-4.8"/><path class="cls-18" d="M240.4 136.7l-1.5-1.4M239.2 139.1l1.2-1.2M237.3 136.9l1.6-1.6"/><path class="cls-20" d="M240.1 140.1v-4.8M240.1 140.1v-4.8"/><path class="cls-19" d="M239.2 132.6h1.7v2.6h-1.7zM239.2 99.5h1.7v6h-1.7zM239.2 105.5h1.7v27.1h-1.7zM239.2 132.6v-27.1"/><path class="cls-2" d="M233.2 133.1v-27.8"/><path class="cls-19" d="M233.2 105.7v-.4"/><path class="cls-25" d="M233.2 135.3v-2.2h6v2.2"/><path class="cls-18" d="M238.9 135.3l-2.1-2.2M234.9 135.3l-1.5-1.7M238.9 135.3l.5-.3M235.1 135.3l2.2-2.2"/><path class="cls-25" d="M233.2 99.5v5.8h6v-5.8"/><path class="cls-18" d="M239.4 99.5h-.2M239.4 103.6l-4.3-4.1M237 105.3l-3.6-3.6M237 105.3l2.4-2.4M233.4 104.8l5.3-5.3M233.4 100.9l1.2-1.4"/><path class="cls-20" d="M233.2 133.1h6M233.2 105.3h6M233.2 133.1h6M233.2 135.3v-2.2M233.2 105.3h6M233.2 99.5v5.8M240.1 135.3h-.9M240.1 99.5h-.9M233.2 135.3v-2.2M233.2 99.5v5.8M239.2 133.1v2.2M239.2 105.3v-5.8"/><path class="cls-18" d="M268 132.7c0-14.9-12.3-27.2-27.2-27.2M240.9 132.6H268"/><path class="cls-25" d="M240.1 140.1l-6.9-7H7.3l-7.2 7h240"/><g class="cls-26"><path class="cls-18" d="M240.1 136.5l-3.3-3.4M239.7 140.1l-7-7M235.6 140.1l-7-7M231.7 140.1l-6.9-7M227.7 140.1l-7-7M223.6 140.1l-7-7M219.7 140.1l-6.9-7M215.7 140.1l-7-7M211.6 140.1l-7-7M207.7 140.1l-6.9-7M203.7 140.1l-7-7M199.6 140.1l-7-7M195.5 140.1l-7-7M191.7 140.1l-7-7M187.6 140.1l-7-7M183.5 140.1l-7-7M179.7 140.1l-7-7M175.6 140.1l-7-7M171.5 140.1l-7-7M167.4 140.1l-6.9-7M163.6 140.1l-7-7M159.5 140.1l-7-7M155.4 140.1l-6.9-7M151.6 140.1l-7-7M147.5 140.1l-7-7M143.4 140.1l-6.9-7M139.6 140.1l-7-7M135.5 140.1l-7-7M131.4 140.1l-6.9-7M127.3 140.1l-6.9-7M123.5 140.1l-7-7M119.4 140.1l-6.9-7M115.3 140.1l-6.9-7M111.5 140.1l-7-7M107.4 140.1l-6.9-7M103.3 140.1l-6.9-7M99.5 140.1l-7-7M95.4 140.1l-6.9-7M91.3 140.1l-6.9-7M87.3 140.1l-7-7M83.4 140.1l-6.9-7M79.3 140.1l-5.2-5.3M75.3 140.1l-1.2-1.2M238.2 140.1l1.9-2M234.1 140.1l6-6M230.3 140.1l7-7M226.2 140.1l7-7M222.1 140.1l7-7M218.1 140.1l6.9-7M214.2 140.1l7-7M210.1 140.1l7-7M206.1 140.1l6.9-7M202.2 140.1l7-7M198.1 140.1l7-7M194.1 140.1l6.9-7M190.2 140.1l7-7M186.1 140.1l7-7M182.1 140.1l6.9-7M178 140.1l6.9-7M174.1 140.1l7-7M170.1 140.1l6.9-7M166 140.1l6.9-7M162.1 140.1l7-7M158.1 140.1l6.9-7M154 140.1l6.9-7M150.1 140.1l7-7M146.1 140.1l6.9-7M142 140.1l6.9-7M137.9 140.1l7-7M134.1 140.1l6.9-7M130 140.1l6.9-7M125.9 140.1l7-7M122.1 140.1l6.9-7M118 140.1l6.9-7M113.9 140.1l7-7M109.8 140.1l7-7M106 140.1l6.9-7M101.9 140.1l7-7M97.8 140.1l7-7M94 140.1l6.9-7M89.9 140.1l7-7M85.8 140.1l7-7M82 140.1l6.9-7M77.9 140.1l7-7M74.1 139.8l6.7-6.7M74.1 135.7l2.6-2.6"/></g><path class="cls-25" d="M240.1 140.1l-6.9-7H7.3l-7.2 7h240"/><g class="cls-29"><path class="cls-18" d="M240.1 136.5l-3.3-3.4M239.7 140.1l-7-7M235.6 140.1l-7-7M231.7 140.1l-6.9-7M227.7 140.1l-7-7M223.6 140.1l-7-7M219.7 140.1l-6.9-7M215.7 140.1l-7-7M211.6 140.1l-7-7M207.7 140.1l-6.9-7M203.7 140.1l-7-7M199.6 140.1l-7-7M195.5 140.1l-7-7M191.7 140.1l-7-7M187.6 140.1l-7-7M183.5 140.1l-7-7M179.7 140.1l-7-7M175.6 140.1l-7-7M171.5 140.1l-7-7M167.4 140.1l-6.9-7M163.6 140.1l-7-7M159.5 140.1l-7-7M155.4 140.1l-6.9-7M151.6 140.1l-7-7M147.5 140.1l-7-7M143.4 140.1l-6.9-7M139.6 140.1l-7-7M135.5 140.1l-7-7M131.4 140.1l-6.9-7M127.3 140.1l-6.9-7M123.5 140.1l-7-7M119.4 140.1l-6.9-7M115.3 140.1l-6.9-7M111.5 140.1l-7-7M107.4 140.1l-6.9-7M103.3 140.1l-6.9-7M99.5 140.1l-7-7M95.4 140.1l-6.9-7M91.3 140.1l-6.9-7M87.3 140.1l-7-7M83.4 140.1l-6.9-7M79.3 140.1l-5.2-5.3M75.3 140.1l-1.2-1.2M238.2 140.1l1.9-2M234.1 140.1l6-6M230.3 140.1l7-7M226.2 140.1l7-7M222.1 140.1l7-7M218.1 140.1l6.9-7M214.2 140.1l7-7M210.1 140.1l7-7M206.1 140.1l6.9-7M202.2 140.1l7-7M198.1 140.1l7-7M194.1 140.1l6.9-7M190.2 140.1l7-7M186.1 140.1l7-7M182.1 140.1l6.9-7M178 140.1l6.9-7M174.1 140.1l7-7M170.1 140.1l6.9-7M166 140.1l6.9-7M162.1 140.1l7-7M158.1 140.1l6.9-7M154 140.1l6.9-7M150.1 140.1l7-7M146.1 140.1l6.9-7M142 140.1l6.9-7M137.9 140.1l7-7M134.1 140.1l6.9-7M130 140.1l6.9-7M125.9 140.1l7-7M122.1 140.1l6.9-7M118 140.1l6.9-7M113.9 140.1l7-7M109.8 140.1l7-7M106 140.1l6.9-7M101.9 140.1l7-7M97.8 140.1l7-7M94 140.1l6.9-7M89.9 140.1l7-7M85.8 140.1l7-7M82 140.1l6.9-7M77.9 140.1l7-7M74.1 139.8l6.7-6.7M74.1 135.7l2.6-2.6"/></g><path class="cls-20" d="M.1 140.1h240M7.3 133.1h225.9M7.3 133.1h225.9M143.2 140.1h96.9M.1 140.1H136"/><path class="cls-25" d="M399.5 80.7c-.9 1.3-.9 3 0 4.3 1.5 1.9 3.8 2.9 6.2 2.9l9-.3V78l-9-.3c-2.4 0-4.7 1-6.2 2.9"/><path class="cls-19" d="M399.5 80.7c-.9 1.3-.9 3 0 4.3 1.5 1.9 3.8 2.9 6.2 2.9l9-.3V78l-9-.3c-2.4 0-4.7 1-6.2 2.9"/><path class="cls-25" d="M409.6 82.8c0-1-.3-2-1.1-2.8-.7-.7-1.7-1.2-2.7-1.2-2.1 0-4.1.9-5.4 2.5-.6.9-.6 2 0 2.9 1.3 1.6 3.3 2.5 5.4 2.5 1 0 2-.4 2.7-1.2.7-.7 1.1-1.8 1.1-2.8"/><path class="cls-19" d="M409.6 82.8c0-1-.3-2-1.1-2.8-.7-.7-1.7-1.2-2.7-1.2-2.1 0-4.1.9-5.4 2.5-.6.9-.6 2 0 2.9 1.3 1.6 3.3 2.5 5.4 2.5 1 0 2-.4 2.7-1.2.7-.7 1.1-1.8 1.1-2.8"/><path class="cls-25" d="M414.3 25.9h-48.1l-.1.1h-.1V46.9l.1.1h.1v.1H414.5V47h.1l.1-.1V26h-.1l-.1-.1h-.2"/><path class="cls-19" d="M414.3 25.9h-48.1l-.1.1h-.1V46.9l.1.1h.1v.1H414.5V47h.1l.1-.1V26h-.1l-.1-.1h-.2"/><path class="cls-25" d="M409.1 28h-37.4c-.4 0-.9 0-1.3.3-.4.2-.8.4-1.1.7-.3.3-.6.7-.7 1.1-.2.4-.3.9-.3 1.3v10.2c0 .4 0 .9.3 1.3.2.4.4.8.7 1.1.3.3.7.6 1.1.7.4.2.9.3 1.3.3h37.4c.4 0 .9 0 1.3-.3.4-.2.8-.4 1.1-.7.3-.3.6-.7.7-1.1.2-.4.3-.9.3-1.3V31.4c0-.4 0-.9-.3-1.3-.2-.4-.4-.8-.7-1.1-.3-.3-.7-.6-1.1-.7-.4-.2-.9-.3-1.3-.3"/><path class="cls-19" d="M409.1 28h-37.4c-.4 0-.9 0-1.3.3-.4.2-.8.4-1.1.7-.3.3-.6.7-.7 1.1-.2.4-.3.9-.3 1.3v10.2c0 .4 0 .9.3 1.3.2.4.4.8.7 1.1.3.3.7.6 1.1.7.4.2.9.3 1.3.3h37.4c.4 0 .9 0 1.3-.3.4-.2.8-.4 1.1-.7.3-.3.6-.7.7-1.1.2-.4.3-.9.3-1.3V31.4c0-.4 0-.9-.3-1.3-.2-.4-.4-.8-.7-1.1-.3-.3-.7-.6-1.1-.7-.4-.2-.9-.3-1.3-.3M415.3 96.6V72.1"/><path class="cls-7" d="M414.6 96.6V71.4"/><path class="cls-19" d="M416.8 96.6v-23M415.3 96.6V72.1M414.6 96.6V71.4M416.8 96.6v-23"/><path class="cls-7" d="M415.3 96.6h-.7"/><path class="cls-19" d="M416.8 96.6h-1.5M419.2 72.1V53.9"/><path class="cls-7" d="M418.5 71.4v-17"/><path class="cls-19" d="M420.6 73.6V52.5M419.2 72.1V53.9M418.5 71.4v-17M420.6 73.6V52.5M415.3 53.9V25.6"/><path class="cls-7" d="M414.6 54.4V25.6"/><path class="cls-19" d="M416.8 52.5V25.6M415.3 53.9V25.6"/><path class="cls-7" d="M415.3 25.6h-.7"/><path class="cls-19" d="M416.8 25.6h-1.5M414.6 54.4V25.6M416.8 52.5V25.6"/><path class="cls-25" d="M414.7 55.2h-12.4c-.1 0-.3.1-.4.2-.1.1-.2.2-.2.4V69.9c0 .1.1.3.2.4.1.1.2.2.4.2h12.4V54.9"/><path class="cls-19" d="M414.7 55.2h-12.4c-.1 0-.3.1-.4.2-.1.1-.2.2-.2.4V69.9c0 .1.1.3.2.4.1.1.2.2.4.2h12.4V54.9"/><path class="cls-17" d="M414.6 71.4h3.9"/><path class="cls-5" d="M418.5 71.4v-17"/><path class="cls-17" d="M418.5 54.4h-3.9"/><path class="cls-19" d="M419.2 53.9h-3.9"/><path class="cls-7" d="M418.5 54.4h-3.9"/><path class="cls-19" d="M420.6 52.5h-3.8M419.2 53.9h-3.9M418.5 54.4h-3.9M420.6 52.5h-3.8M415.3 72.1h3.9"/><path class="cls-7" d="M414.6 71.4h3.9"/><path class="cls-19" d="M416.8 73.6h3.8M415.3 72.1h3.9M414.6 71.4h3.9M416.8 73.6h3.8"/><path class="cls-7" d="M414.6 71.4v-17"/><path class="cls-25" d="M442.7 70.8c.9 1.3.9 3 0 4.3-1.5 1.9-3.8 2.9-6.2 2.9l-9-.3v-9.6l9-.3c2.4 0 4.7 1 6.2 2.9"/><path class="cls-19" d="M442.7 70.8c.9 1.3.9 3 0 4.3-1.5 1.9-3.8 2.9-6.2 2.9l-9-.3v-9.6l9-.3c2.4 0 4.7 1 6.2 2.9"/><path class="cls-25" d="M432.6 72.9c0-1 .3-2 1.1-2.8.7-.7 1.7-1.2 2.7-1.2 2.1 0 4.1.9 5.4 2.5.6.9.6 2 0 2.9-1.3 1.6-3.3 2.5-5.4 2.5-1 0-2-.4-2.7-1.2-.7-.7-1.1-1.8-1.1-2.8"/><path class="cls-19" d="M432.6 72.9c0-1 .3-2 1.1-2.8.7-.7 1.7-1.2 2.7-1.2 2.1 0 4.1.9 5.4 2.5.6.9.6 2 0 2.9-1.3 1.6-3.3 2.5-5.4 2.5-1 0-2-.4-2.7-1.2-.7-.7-1.1-1.8-1.1-2.8"/><path class="cls-25" d="M478.5 25.8h-50.9v22.8h50.9V25.8"/><path class="cls-19" d="M427.6 25.8h50.9v22.8h-50.9zM429.5 25.8v22.8M426.9 85.3V65.2"/><path class="cls-7" d="M427.6 85.3V64.5"/><path class="cls-19" d="M425.4 85.3V66.6M426.9 85.3V65.2M427.6 85.3V64.5M425.4 85.3V66.6M423 65.2V46.7"/><path class="cls-7" d="M423.7 64.5V47.4"/><path class="cls-19" d="M421.6 66.6V45.3M423 65.2V46.7M423.7 64.5V47.4M421.6 66.6V45.3M426.9 46.7V25.6"/><path class="cls-7" d="M427.6 47.4V25.6"/><path class="cls-19" d="M425.4 45.3V25.6M426.9 46.7V25.6M427.6 47.4V25.6M425.4 45.3V25.6"/><path class="cls-25" d="M427.5 48.1h12.4c.1 0 .3.1.4.2.1.1.2.2.2.4V62.8c0 .1-.1.3-.2.4-.1.1-.2.2-.4.2h-12.4V47.8"/><path class="cls-19" d="M427.5 48.1h12.4c.1 0 .3.1.4.2.1.1.2.2.2.4V62.8c0 .1-.1.3-.2.4-.1.1-.2.2-.4.2h-12.4V47.8"/><path class="cls-17" d="M427.6 64.5h-3.9"/><path class="cls-5" d="M423.7 64.5V47.4"/><path class="cls-17" d="M423.7 47.4h3.9"/><path class="cls-19" d="M423 46.7h3.9"/><path class="cls-7" d="M423.7 47.4h3.9"/><path class="cls-19" d="M421.6 45.3h3.8M423 46.7h3.9M423.7 47.4h3.9M421.6 45.3h3.8M426.9 65.2H423"/><path class="cls-7" d="M427.6 64.5h-3.9"/><path class="cls-19" d="M425.4 66.6h-3.8M426.9 65.2H423M427.6 64.5h-3.9M425.4 66.6h-3.8"/><path class="cls-7" d="M427.6 64.5V47.4"/><path class="cls-25" d="M399.5 80.7c-.9 1.3-.9 3 0 4.3 1.5 1.9 3.8 2.9 6.2 2.9l9-.3V78l-9-.3c-2.4 0-4.7 1-6.2 2.9"/><path class="cls-19" d="M399.5 80.7c-.9 1.3-.9 3 0 4.3 1.5 1.9 3.8 2.9 6.2 2.9l9-.3V78l-9-.3c-2.4 0-4.7 1-6.2 2.9"/><path class="cls-25" d="M409.6 82.8c0-1-.3-2-1.1-2.8-.7-.7-1.7-1.2-2.7-1.2-2.1 0-4.1.9-5.4 2.5-.6.9-.6 2 0 2.9 1.3 1.6 3.3 2.5 5.4 2.5 1 0 2-.4 2.7-1.2.7-.7 1.1-1.8 1.1-2.8"/><path class="cls-19" d="M409.6 82.8c0-1-.3-2-1.1-2.8-.7-.7-1.7-1.2-2.7-1.2-2.1 0-4.1.9-5.4 2.5-.6.9-.6 2 0 2.9 1.3 1.6 3.3 2.5 5.4 2.5 1 0 2-.4 2.7-1.2.7-.7 1.1-1.8 1.1-2.8"/><path class="cls-25" d="M414.3 25.9h-48.1l-.1.1h-.1V46.9l.1.1h.1v.1H414.5V47h.1l.1-.1V26h-.1l-.1-.1h-.2"/><path class="cls-19" d="M414.3 25.9h-48.1l-.1.1h-.1V46.9l.1.1h.1v.1H414.5V47h.1l.1-.1V26h-.1l-.1-.1h-.2"/><path class="cls-25" d="M409.1 28h-37.4c-.4 0-.9 0-1.3.3-.4.2-.8.4-1.1.7-.3.3-.6.7-.7 1.1-.2.4-.3.9-.3 1.3v10.2c0 .4 0 .9.3 1.3.2.4.4.8.7 1.1.3.3.7.6 1.1.7.4.2.9.3 1.3.3h37.4c.4 0 .9 0 1.3-.3.4-.2.8-.4 1.1-.7.3-.3.6-.7.7-1.1.2-.4.3-.9.3-1.3V31.4c0-.4 0-.9-.3-1.3-.2-.4-.4-.8-.7-1.1-.3-.3-.7-.6-1.1-.7-.4-.2-.9-.3-1.3-.3"/><path class="cls-19" d="M409.1 28h-37.4c-.4 0-.9 0-1.3.3-.4.2-.8.4-1.1.7-.3.3-.6.7-.7 1.1-.2.4-.3.9-.3 1.3v10.2c0 .4 0 .9.3 1.3.2.4.4.8.7 1.1.3.3.7.6 1.1.7.4.2.9.3 1.3.3h37.4c.4 0 .9 0 1.3-.3.4-.2.8-.4 1.1-.7.3-.3.6-.7.7-1.1.2-.4.3-.9.3-1.3V31.4c0-.4 0-.9-.3-1.3-.2-.4-.4-.8-.7-1.1-.3-.3-.7-.6-1.1-.7-.4-.2-.9-.3-1.3-.3M415.3 96.6V72.1"/><path class="cls-7" d="M414.6 96.6V71.4"/><path class="cls-19" d="M416.8 96.6v-23M415.3 96.6V72.1M414.6 96.6V71.4M416.8 96.6v-23"/><path class="cls-7" d="M415.3 96.6h-.7"/><path class="cls-19" d="M416.8 96.6h-1.5M419.2 72.1V53.9"/><path class="cls-7" d="M418.5 71.4v-17"/><path class="cls-19" d="M420.6 73.6V52.5M419.2 72.1V53.9M418.5 71.4v-17M420.6 73.6V52.5M415.3 53.9V25.6"/><path class="cls-7" d="M414.6 54.4V25.6"/><path class="cls-19" d="M416.8 52.5V25.6M415.3 53.9V25.6"/><path class="cls-7" d="M415.3 25.6h-.7"/><path class="cls-19" d="M416.8 25.6h-1.5M414.6 54.4V25.6M416.8 52.5V25.6"/><path class="cls-25" d="M414.7 55.2h-12.4c-.1 0-.3.1-.4.2-.1.1-.2.2-.2.4V69.9c0 .1.1.3.2.4.1.1.2.2.4.2h12.4V54.9"/><path class="cls-19" d="M414.7 55.2h-12.4c-.1 0-.3.1-.4.2-.1.1-.2.2-.2.4V69.9c0 .1.1.3.2.4.1.1.2.2.4.2h12.4V54.9"/><path class="cls-17" d="M414.6 71.4h3.9"/><path class="cls-5" d="M418.5 71.4v-17"/><path class="cls-17" d="M418.5 54.4h-3.9"/><path class="cls-19" d="M419.2 53.9h-3.9"/><path class="cls-7" d="M418.5 54.4h-3.9"/><path class="cls-19" d="M420.6 52.5h-3.8M419.2 53.9h-3.9M418.5 54.4h-3.9M420.6 52.5h-3.8M415.3 72.1h3.9"/><path class="cls-7" d="M414.6 71.4h3.9"/><path class="cls-19" d="M416.8 73.6h3.8M415.3 72.1h3.9M414.6 71.4h3.9M416.8 73.6h3.8"/><path class="cls-7" d="M414.6 71.4v-17"/><path class="cls-25" d="M634.5 240.4l-3.6-3.6h-30.5v3.6h34.1"/><path class="cls-18" d="M601.1 236.8l3.6 3.6M604.9 236.8l3.6 3.6M609 236.8l3.6 3.6M613.1 236.8l3.6 3.6M616.9 236.8l3.6 3.6M621 236.8l3.6 3.6M625.1 236.8l3.6 3.6M628.9 236.8l3.6 3.6"/><path class="cls-25" d="M630.9 236.8l-.8-.5h-29.7v.5h30.5M630.1 236.3l-6-5.8h-23.7v5.8h29.7"/><path class="cls-18" d="M601.1 230.5v5.8M602.5 230.5v5.8M604 230.5v5.8M605.4 230.5v5.8M606.6 230.5v5.8M608.1 230.5v5.8M609.5 230.5v5.8M610.9 230.5v5.8M612.4 230.5v5.8M613.8 230.5v5.8M615.3 230.5v5.8M616.7 230.5v5.8M618.1 230.5v5.8M619.6 230.5v5.8M620.8 230.5v5.8M622.2 230.5v5.8M623.7 230.5v5.8M625.1 231.5v4.8M626.5 232.7v3.6M628 234.1v2.2M629.4 235.6v.7"/><path class="cls-25" d="M624.1 230.5l-5.5-5h-18.2v5h23.7"/><path class="cls-18" d="M622.7 230.5l-5-5M618.9 230.5l-5.1-5M614.8 230.5l-5.1-5M610.7 230.5l-5-5M606.9 230.5l-5.1-5M602.8 230.5l-2.2-2.1M620.8 230.5l1.7-1.6M616.7 230.5l3.6-3.6M612.9 230.5l5-5M608.8 230.5l5-5M604.7 230.5l5-5M600.6 230.5l5.1-5M600.6 226.7l1.2-1.2"/><path class="cls-20" d="M630.9 236.8h-30.5M634.5 240.4h-34.1"/><path class="cls-18" d="M624.1 230.5h-23.7M630.1 236.3h-29.7"/><path class="cls-20" d="M618.6 225.5h-18.2M624.1 230.5h-23.7"/><path class="cls-19" d="M634.5 240.4h-34.1M618.6 225.5h-18.2"/><path class="cls-25" d="M161.7 240.4v-3.6H136v3.6h25.7"/><path class="cls-18" d="M136.2 237l3.4 3.4M140.1 236.8l3.6 3.6M143.9 236.8l3.6 3.6M148 236.8l3.6 3.6M152.1 236.8l3.6 3.6M155.9 236.8l3.6 3.6M160 236.8l1.9 1.7"/><path class="cls-25" d="M161.7 236.8v-.5H136v.5h25.7M161.7 236.3v-5.8H136v5.8h25.7"/><path class="cls-18" d="M136.2 230.5v5.8M137.7 230.5v5.8M139.1 230.5v5.8M140.5 230.5v5.8M141.7 230.5v5.8M143.2 230.5v5.8M144.6 230.5v5.8M146.1 230.5v5.8M147.5 230.5v5.8M148.9 230.5v5.8M150.4 230.5v5.8M151.8 230.5v5.8M153.3 230.5v5.8M154.7 230.5v5.8M155.9 230.5v5.8M157.3 230.5v5.8M158.8 230.5v5.8M160.2 230.5v5.8M161.7 230.5v5.8"/><path class="cls-25" d="M161.7 230.5v-5H136v5h25.7"/><path class="cls-18" d="M136.2 228.9l1.5 1.6M136.7 225.5l5 5M140.8 225.5l5 5M144.6 225.5l5.1 5M148.7 225.5l5 5M152.8 225.5l5 5M156.9 225.5l5 5M160.7 225.5l1.2 1"/><path class="cls-20" d="M161.7 236.8H136M161.7 240.4H136"/><path class="cls-18" d="M161.7 230.5H136M161.7 236.3H136"/><path class="cls-20" d="M161.7 225.5H136M161.7 230.5H136"/><path class="cls-19" d="M161.7 240.4H136M161.7 225.5H136"/><path class="cls-25" d="M331.1 240.4v-3.6H224.5v3.6h106.6"/><path class="cls-18" d="M224.8 237.3l2.9 3.1M228.1 236.8l3.6 3.6M232.2 236.8l3.6 3.6M236.3 236.8l3.6 3.6M240.1 236.8l3.6 3.6M244.2 236.8l3.6 3.6M248.3 236.8l3.6 3.6M252.1 236.8l3.6 3.6M256.2 236.8l3.6 3.6M260.3 236.8l3.6 3.6M264.1 236.8l3.6 3.6M268.2 236.8l3.6 3.6M272.3 236.8l3.6 3.6M276.4 236.8l3.6 3.6M280.2 236.8l3.6 3.6M284.3 236.8l3.6 3.6M288.4 236.8l3.6 3.6M292.2 236.8l3.6 3.6M296.3 236.8l3.6 3.6M300.4 236.8l3.6 3.6M304.5 236.8l3.6 3.6M308.3 236.8l3.6 3.6M312.4 236.8l3.6 3.6M316.5 236.8l3.6 3.6M320.3 236.8l3.6 3.6M324.4 236.8l3.6 3.6M328.5 236.8l2.8 2.9"/><path class="cls-25" d="M331.1 236.8v-.5H224.5v.5h106.6M331.1 236.3v-5.8H224.5v5.8h106.6"/><path class="cls-18" d="M225.5 230.5v5.8M226.9 230.5v5.8M228.4 230.5v5.8M229.8 230.5v5.8M231 230.5v5.8M232.5 230.5v5.8M233.9 230.5v5.8M235.3 230.5v5.8M236.8 230.5v5.8M238.2 230.5v5.8M239.7 230.5v5.8M241.1 230.5v5.8M242.5 230.5v5.8M244 230.5v5.8M245.4 230.5v5.8M246.6 230.5v5.8M248.1 230.5v5.8M249.5 230.5v5.8M250.9 230.5v5.8M252.4 230.5v5.8M253.8 230.5v5.8M255.3 230.5v5.8M256.7 230.5v5.8M258.1 230.5v5.8M259.6 230.5v5.8M260.8 230.5v5.8M262.2 230.5v5.8M263.7 230.5v5.8M265.1 230.5v5.8M266.5 230.5v5.8M268 230.5v5.8M269.4 230.5v5.8M270.9 230.5v5.8M272.3 230.5v5.8M273.7 230.5v5.8M275.2 230.5v5.8M276.4 230.5v5.8M277.8 230.5v5.8M279.3 230.5v5.8M280.7 230.5v5.8M282.1 230.5v5.8M283.6 230.5v5.8M285 230.5v5.8M286.5 230.5v5.8M287.9 230.5v5.8M289.3 230.5v5.8M290.8 230.5v5.8M292 230.5v5.8M293.4 230.5v5.8M294.9 230.5v5.8M296.3 230.5v5.8M297.7 230.5v5.8M299.2 230.5v5.8M300.6 230.5v5.8M302.1 230.5v5.8M303.5 230.5v5.8M304.9 230.5v5.8M306.1 230.5v5.8M307.6 230.5v5.8M309 230.5v5.8M310.5 230.5v5.8M311.9 230.5v5.8M313.3 230.5v5.8M314.8 230.5v5.8M316.2 230.5v5.8M317.7 230.5v5.8M319.1 230.5v5.8M320.5 230.5v5.8M321.7 230.5v5.8M323.2 230.5v5.8M324.6 230.5v5.8M326.1 230.5v5.8M327.5 230.5v5.8M328.9 230.5v5.8M330.4 230.5v5.8"/><path class="cls-25" d="M331.1 230.5v-5H224.5v5h106.6"/><path class="cls-18" d="M224.8 229.3l1.2 1.2M225 225.5l5.1 5M228.9 225.5l5 5M232.9 225.5l5.1 5M237 225.5l5.1 5M240.9 225.5l5 5M244.9 225.5l5.1 5M249 225.5l5.1 5M252.9 225.5l5 5M256.9 225.5l5.1 5M261 225.5l5.1 5M265.1 225.5l5 5M268.9 225.5l5.1 5M273 225.5l5.1 5M277.1 225.5l5 5M280.9 225.5l5.1 5M285 225.5l5.1 5M289.1 225.5l5 5M293.2 225.5l5 5M297 225.5l5.1 5M301.1 225.5l5 5M305.2 225.5l5 5M309 225.5l5.1 5M313.1 225.5l5 5M317.2 225.5l5 5M321 225.5l5.1 5M325.1 225.5l5 5M329.2 225.5l2.1 2.2"/><path class="cls-20" d="M331.1 236.8H224.5M331.1 240.4H224.5"/><path class="cls-18" d="M331.1 230.5H224.5M331.1 236.3H224.5"/><path class="cls-20" d="M331.1 225.5H224.5M331.1 230.5H224.5"/><path class="cls-19" d="M331.1 240.4H224.5M331.1 225.5H224.5"/><path class="cls-25" d="M415.8 240.4v-3.6h-43.9v3.6h43.9"/><path class="cls-18" d="M372.4 236.8l3.6 3.6M376.5 236.8l3.6 3.6M380.5 236.8l3.6 3.6M384.6 236.8l3.6 3.6M388.5 236.8l3.6 3.6M392.5 236.8l3.6 3.6M396.6 236.8l3.6 3.6M400.5 236.8l3.6 3.6M404.5 236.8l3.6 3.6M408.6 236.8l3.6 3.6M412.5 236.8l3.6 3.3"/><path class="cls-25" d="M415.8 236.8v-.5h-43.9v.5h43.9M415.8 236.3v-5.8h-43.9v5.8h43.9"/><path class="cls-18" d="M372.9 230.5v5.8M374.3 230.5v5.8M375.7 230.5v5.8M377.2 230.5v5.8M378.6 230.5v5.8M380.1 230.5v5.8M381.3 230.5v5.8M382.7 230.5v5.8M384.1 230.5v5.8M385.6 230.5v5.8M387 230.5v5.8M388.5 230.5v5.8M389.9 230.5v5.8M391.3 230.5v5.8M392.8 230.5v5.8M394.2 230.5v5.8M395.7 230.5v5.8M396.9 230.5v5.8M398.3 230.5v5.8M399.7 230.5v5.8M401.2 230.5v5.8M402.6 230.5v5.8M404.1 230.5v5.8M405.5 230.5v5.8M406.9 230.5v5.8M408.4 230.5v5.8M409.8 230.5v5.8M411 230.5v5.8M412.5 230.5v5.8M413.9 230.5v5.8M415.3 230.5v5.8"/><path class="cls-25" d="M415.8 230.5v-5h-43.9v5h43.9"/><path class="cls-18" d="M372.1 228.4l2.2 2.1M373.3 225.5l5.1 5M377.2 225.5l5 5M381.3 225.5l5 5M385.3 225.5l5.1 5M389.2 225.5l5 5M393.3 225.5l5 5M397.3 225.5l5.1 5M401.2 225.5l5 5M405.3 225.5l5 5M409.3 225.5l5.1 5M413.4 225.5l2.7 2.6"/><path class="cls-20" d="M415.8 236.8h-43.9M415.8 240.4h-43.9"/><path class="cls-18" d="M415.8 230.5h-43.9M415.8 236.3h-43.9"/><path class="cls-20" d="M415.8 225.5h-43.9M415.8 230.5h-43.9"/><path class="cls-19" d="M415.8 240.4h-43.9M415.8 225.5h-43.9"/><path class="cls-25" d="M537.5 240.4v-3.6h-80.9v3.6h80.9"/><path class="cls-18" d="M456.9 236.8l3.3 3.6M460.7 236.8l3.6 3.6M464.8 236.8l3.6 3.6M468.6 236.8l3.6 3.6M472.7 236.8l3.6 3.6M476.8 236.8l3.6 3.6M480.6 236.8l3.6 3.6M484.7 236.8l3.6 3.6M488.8 236.8l3.6 3.6M492.9 236.8l3.6 3.6M496.7 236.8l3.6 3.6M500.8 236.8l3.6 3.6M504.9 236.8l3.6 3.6M508.7 236.8l3.6 3.6M512.8 236.8l3.6 3.6M516.9 236.8l3.6 3.6M520.7 236.8l3.6 3.6M524.8 236.8l3.6 3.6M528.9 236.8l3.6 3.6M532.9 236.8l3.6 3.6M536.8 236.8l.9.7"/><path class="cls-25" d="M537.5 236.8v-.5h-80.9v.5h80.9M537.5 236.3v-5.8h-80.9v5.8h80.9"/><path class="cls-18" d="M457.8 230.5v5.8M459.3 230.5v5.8M460.7 230.5v5.8M462.1 230.5v5.8M463.6 230.5v5.8M465 230.5v5.8M466.5 230.5v5.8M467.9 230.5v5.8M469.3 230.5v5.8M470.8 230.5v5.8M472 230.5v5.8M473.4 230.5v5.8M474.9 230.5v5.8M476.3 230.5v5.8M477.7 230.5v5.8M479.2 230.5v5.8M480.6 230.5v5.8M482.1 230.5v5.8M483.5 230.5v5.8M484.9 230.5v5.8M486.1 230.5v5.8M487.6 230.5v5.8M489 230.5v5.8M490.5 230.5v5.8M491.9 230.5v5.8M493.3 230.5v5.8M494.8 230.5v5.8M496.2 230.5v5.8M497.7 230.5v5.8M499.1 230.5v5.8M500.5 230.5v5.8M501.7 230.5v5.8M503.2 230.5v5.8M504.6 230.5v5.8M506.1 230.5v5.8M507.5 230.5v5.8M508.9 230.5v5.8M510.4 230.5v5.8M511.8 230.5v5.8M513.3 230.5v5.8M514.7 230.5v5.8M515.9 230.5v5.8M517.3 230.5v5.8M518.8 230.5v5.8M520.2 230.5v5.8M521.7 230.5v5.8M523.1 230.5v5.8M524.5 230.5v5.8M526 230.5v5.8M527.4 230.5v5.8M528.9 230.5v5.8M530.3 230.5v5.8M531.5 230.5v5.8M532.9 230.5v5.8M534.4 230.5v5.8M535.8 230.5v5.8M537.3 230.5v5.8"/><path class="cls-25" d="M537.5 230.5v-5h-80.9v5h80.9"/><path class="cls-18" d="M456.9 228.9l1.6 1.6M457.3 225.5l5.1 5M461.4 225.5l5.1 5M465.5 225.5l5 5M469.3 225.5l5.1 5M473.4 225.5l5.1 5M477.5 225.5l5 5M481.6 225.5l5 5M485.4 225.5l5.1 5M489.5 225.5l5 5M493.6 225.5l5 5M497.4 225.5l5.1 5M501.5 225.5l5 5M505.6 225.5l5 5M509.4 225.5l5.1 5M513.5 225.5l5 5M517.6 225.5l5 5M521.7 225.5l5 5M525.5 225.5l5 5M529.6 225.5l5 5M533.7 225.5l4 4.1M537.5 225.5h.2"/><path class="cls-20" d="M537.5 236.8h-80.9M537.5 240.4h-80.9"/><path class="cls-18" d="M537.5 230.5h-80.9M537.5 236.3h-80.9"/><path class="cls-20" d="M537.5 225.5h-80.9M537.5 230.5h-80.9"/><path class="cls-19" d="M537.5 240.4h-80.9M537.5 225.5h-80.9M222.6 232.9v7.5h3.4v1.7h-66v-1.7h3.3v-7.5"/><path class="cls-2" d="M224.5 225.5h-62.8"/><path class="cls-20" d="M222.6 240.4h3.4M163.3 240.4H160"/><path class="cls-19" d="M161.7 230.5h62.9v2.4h-62.9zM220.9 232.9v-2.4M165.3 232.9v-2.4M224.5 230.5v2.4M205.6 230.5v2.4M220.9 230.5v2.4M201.5 230.5v2.4M205.6 230.5v2.4M184.7 230.5v2.4M201.5 230.5v2.4M180.6 230.5v2.4M184.7 230.5v2.4M165.3 230.5v2.4M180.6 230.5v2.4M161.7 230.5v2.4"/><path class="cls-25" d="M224.5 236.3h-1.8v-3.4h1.8"/><path class="cls-18" d="M224.1 232.9v3.4M224.5 236.3h-1.8v-3.4h1.8"/><path class="cls-20" d="M224.5 230.5v-5"/><path class="cls-25" d="M224.5 240.4h-1.9v-3.6h1.9"/><path class="cls-18" d="M222.9 239.4l.9 1M224.1 236.8l.7.5"/><path class="cls-20" d="M224.5 240.4h-1.9v-3.6h1.9M222.6 236.8v-3.9"/><path class="cls-25" d="M161.6 236.3h1.8v-3.4h-1.8"/><path class="cls-18" d="M163.1 232.9v3.4M161.6 236.3h1.8v-3.4h-1.8"/><path class="cls-20" d="M161.7 230.5v-5"/><path class="cls-25" d="M161.7 240.4h1.6v-3.6h-1.6"/><path class="cls-18" d="M161.9 238.5l1.7 1.6"/><path class="cls-20" d="M161.7 240.4h1.6v-3.6h-1.6M163.3 236.8v-3.9"/><path class="cls-19" d="M370 232.9v7.5h3.6v1.7h-43.9v-1.7h3.3v-7.5"/><path class="cls-2" d="M371.9 225.5h-40.8"/><path class="cls-19" d="M331.6 225.5h-.5"/><path class="cls-20" d="M370 240.4h3.6M333 240.4h-3.3"/><path class="cls-19" d="M331.1 230.5h40.8v2.4h-40.8zM368.3 232.9v-2.4M334.7 232.9v-2.4M371.9 230.5v2.4M353.7 230.5v2.4M368.3 230.5v2.4M349.3 230.5v2.4M353.7 230.5v2.4M334.7 230.5v2.4M349.3 230.5v2.4M331.1 230.5v2.4"/><path class="cls-25" d="M371.9 236.3h-1.8v-3.4h1.8"/><path class="cls-18" d="M371.4 232.9v3.4M371.9 236.3h-1.8v-3.4h1.8"/><path class="cls-20" d="M371.9 230.5v-5"/><path class="cls-25" d="M371.9 240.4H370v-3.6h1.9"/><path class="cls-18" d="M370.2 238.5l1.9 1.9"/><path class="cls-20" d="M371.9 240.4H370v-3.6h1.9M370 236.8v-3.9"/><path class="cls-25" d="M331.1 236.3h1.8v-3.4h-1.8"/><path class="cls-18" d="M331.8 232.9v3.4M331.1 236.3h1.8v-3.4h-1.8"/><path class="cls-20" d="M331.1 230.5v-5"/><path class="cls-25" d="M331.1 240.4h1.9v-3.6h-1.9"/><path class="cls-18" d="M331.3 239.7l.8.7M332.3 236.8l1 .7"/><path class="cls-20" d="M331.1 240.4h1.9v-3.6h-1.9M333 236.8v-3.9"/><path class="cls-19" d="M454.9 232.9v7.5h3.4v1.7h-43.9v-1.7h3.3v-7.5"/><path class="cls-2" d="M456.6 225.5h-40.8"/><path class="cls-19" d="M416.3 225.5h-.5"/><path class="cls-20" d="M454.9 240.4h3.4M417.7 240.4h-3.3"/><path class="cls-19" d="M415.8 230.5h40.8v2.4h-40.8zM453 232.9v-2.4M419.7 232.9v-2.4M456.6 230.5v2.4M438.4 230.5v2.4M453 230.5v2.4M434.3 230.5v2.4M438.4 230.5v2.4M419.7 230.5v2.4M434.3 230.5v2.4M415.8 230.5v2.4"/><path class="cls-25" d="M456.7 236.3h-1.9v-3.4h1.9"/><path class="cls-18" d="M455.2 232.9v3.4M456.4 232.9v3.4M456.7 236.3h-1.9v-3.4h1.9"/><path class="cls-20" d="M456.6 230.5v-5"/><path class="cls-25" d="M456.6 240.4h-1.7v-3.6h1.7"/><path class="cls-18" d="M455.2 239.2l1.2 1.2M456.6 236.8h.3"/><path class="cls-20" d="M456.6 240.4h-1.7v-3.6h1.7M454.9 236.8v-3.9"/><path class="cls-25" d="M415.9 236.3h1.8v-3.4h-1.8"/><path class="cls-18" d="M416.8 232.9v3.4M415.9 236.3h1.8v-3.4h-1.8"/><path class="cls-20" d="M415.8 230.5v-5"/><path class="cls-25" d="M415.8 240.4h1.9v-3.6h-1.9"/><path class="cls-18" d="M416.1 240.1v.3M416.5 236.8l1.5 1.2"/><path class="cls-20" d="M415.8 240.4h1.9v-3.6h-1.9M417.7 236.8v-3.9"/><path class="cls-2" d="M600.4 225.5h-62.9"/><path class="cls-19" d="M537.5 230.5h62.9v2.4h-62.9zM596.8 232.9v-2.4M541.1 232.9v-2.4M600.4 230.5v2.4M581.4 230.5v2.4M596.8 230.5v2.4M577.3 230.5v2.4M581.4 230.5v2.4M560.5 230.5v2.4M577.3 230.5v2.4M556.5 230.5v2.4M560.5 230.5v2.4M541.1 230.5v2.4M556.5 230.5v2.4M537.5 230.5v2.4"/><path class="cls-20" d="M600.4 230.5v-5"/><path class="cls-19" d="M535.8 240.4v1.7"/><path class="cls-9" d="M535.8 242.1h66.3"/><path class="cls-19" d="M602.1 242.1v-1"/><path class="cls-25" d="M600.4 236.3h-1.8v-3.4h1.8"/><path class="cls-18" d="M599.7 232.9v3.4M600.4 236.3h-1.8v-3.4h1.8"/><path class="cls-25" d="M600.4 240.4h-1.9v-3.6h1.9"/><path class="cls-18" d="M598.7 238.5l1.9 1.9"/><path class="cls-20" d="M600.4 240.4h-1.9v-3.6h1.9M598.5 236.8v-3.9"/><path class="cls-25" d="M537.5 236.3h1.8v-3.4h-1.8"/><path class="cls-18" d="M538.7 232.9v3.4M537.5 236.3h1.8v-3.4h-1.8"/><path class="cls-20" d="M537.5 230.5v-5"/><path class="cls-25" d="M537.5 240.4h1.9v-3.6h-1.9"/><path class="cls-18" d="M537.7 237.5l2 1.9"/><path class="cls-20" d="M537.5 240.4h1.9v-3.6h-1.9M539.4 236.8v-3.9"/><path class="cls-25" d="M139.3 31.6v-7.2H.1l7.2 7.2h132"/><g class="cls-28"><path class="cls-18" d="M139.3 27.7l-3.3-3.3M139.3 31.6l-7.2-7.2M135.3 31.6l-7.2-7.2M131.2 31.6l-7.2-7.2M127.1 31.6l-7.2-7.2M123.3 31.6l-7.2-7.2M119.2 31.6l-7.2-7.2M115.1 31.6l-7.2-7.2M111.3 31.6l-7.2-7.2M107.2 31.6l-7.2-7.2M103.1 31.6l-7.2-7.2M99.3 31.6l-7.2-7.2M95.2 31.6L88 24.4M91.1 31.6l-7.2-7.2M87 31.6l-7.2-7.2M83.2 31.6L76 24.4M79.1 31.6l-5-5.1M75 31.6l-.9-1M138.1 31.6l1.2-1.2M134.3 31.6l5-5.1M130.2 31.6l7.2-7.2M126.1 31.6l7.2-7.2M122.3 31.6l7.2-7.2M118.2 31.6l7.2-7.2M114.1 31.6l7.2-7.2M110.1 31.6l7.2-7.2M106.2 31.6l7.2-7.2M102.1 31.6l7.2-7.2M98.1 31.6l7.2-7.2M94.2 31.6l7.2-7.2M90.1 31.6l7.2-7.2M86.1 31.6l7.2-7.2M82.2 31.6l7.2-7.2M78.1 31.6l7.2-7.2M74.1 31.6l7.2-7.2M74.1 27.5l3.1-3.1"/></g><path class="cls-25" d="M139.3 31.6v-7.2H.1l7.2 7.2h132"/><g class="cls-27"><path class="cls-18" d="M139.3 27.7l-3.3-3.3M139.3 31.6l-7.2-7.2M135.3 31.6l-7.2-7.2M131.2 31.6l-7.2-7.2M127.1 31.6l-7.2-7.2M123.3 31.6l-7.2-7.2M119.2 31.6l-7.2-7.2M115.1 31.6l-7.2-7.2M111.3 31.6l-7.2-7.2M107.2 31.6l-7.2-7.2M103.1 31.6l-7.2-7.2M99.3 31.6l-7.2-7.2M95.2 31.6L88 24.4M91.1 31.6l-7.2-7.2M87 31.6l-7.2-7.2M83.2 31.6L76 24.4M79.1 31.6l-5-5.1M75 31.6l-.9-1M138.1 31.6l1.2-1.2M134.3 31.6l5-5.1M130.2 31.6l7.2-7.2M126.1 31.6l7.2-7.2M122.3 31.6l7.2-7.2M118.2 31.6l7.2-7.2M114.1 31.6l7.2-7.2M110.1 31.6l7.2-7.2M106.2 31.6l7.2-7.2M102.1 31.6l7.2-7.2M98.1 31.6l7.2-7.2M94.2 31.6l7.2-7.2M90.1 31.6l7.2-7.2M86.1 31.6l7.2-7.2M82.2 31.6l7.2-7.2M78.1 31.6l7.2-7.2M74.1 31.6l7.2-7.2M74.1 27.5l3.1-3.1"/></g><path class="cls-20" d="M7.3 31.6h132M.1 24.4h139.2M.1 24.4h139.2M7.3 31.6h132"/><path class="cls-25" d="M190.5 99.3l6.9-7.2V24.4l-6.9 10.1v64.8"/><path class="cls-18" d="M197.7 25.8l-.8-.7M197.7 29.7l-2.4-2.2M197.7 33.7l-3.9-3.8M197.7 37.8l-5.6-5.5M197.7 41.9l-7-7M197.7 45.7l-7-6.9M197.7 49.8l-7-6.9M197.7 53.9l-7-7M197.7 57.7l-7-6.9M197.7 61.8l-7-6.9M197.7 65.9l-7-7M197.7 69.7l-7-6.9M197.7 73.8l-7-6.9M197.7 77.9l-7-7M197.7 82l-7-7M197.7 85.8l-7-6.9M197.7 89.9l-7-7M196.7 93l-6-6M194.8 94.9l-4.1-4M192.6 97.1l-1.9-2.2M190.7 95.4l7-6.9M190.7 91.6l7-7M190.7 87.5l7-7M190.7 83.4l7-6.9M190.7 79.3l7-6.9M190.7 75.5l7-7M190.7 71.4l7-6.9M190.7 67.3l7-6.9M190.7 63.5l7-7M190.7 59.4l7-6.9M190.7 55.3l7-6.9M190.7 51.5l7-7M190.7 47.4l7-6.9M190.7 43.3l7-6.9M190.7 39.3l7-7M190.7 35.4l7-6.9M197.4 24.4h.3"/><path class="cls-25" d="M190.5 99.3l6.9-7.2V24.4l-6.9 10.1v64.8"/><path class="cls-18" d="M197.7 25.8l-.8-.7M197.7 29.7l-2.4-2.2M197.7 33.7l-3.9-3.8M197.7 37.8l-5.6-5.5M197.7 41.9l-7-7M197.7 45.7l-7-6.9M197.7 49.8l-7-6.9M197.7 53.9l-7-7M197.7 57.7l-7-6.9M197.7 61.8l-7-6.9M197.7 65.9l-7-7M197.7 69.7l-7-6.9M197.7 73.8l-7-6.9M197.7 77.9l-7-7M197.7 82l-7-7M197.7 85.8l-7-6.9M197.7 89.9l-7-7M196.7 93l-6-6M194.8 94.9l-4.1-4M192.6 97.1l-1.9-2.2M190.7 95.4l7-6.9M190.7 91.6l7-7M190.7 87.5l7-7M190.7 83.4l7-6.9M190.7 79.3l7-6.9M190.7 75.5l7-7M190.7 71.4l7-6.9M190.7 67.3l7-6.9M190.7 63.5l7-7M190.7 59.4l7-6.9M190.7 55.3l7-6.9M190.7 51.5l7-7M190.7 47.4l7-6.9M190.7 43.3l7-6.9M190.7 39.3l7-7M190.7 35.4l7-6.9M197.4 24.4h.3"/><path class="cls-20" d="M190.5 34.5v54.7M197.4 24.4v67.7M197.4 24.4v67.7M190.5 34.5v54.7"/><path class="cls-25" d="M145.1 34.5l-5.8-10.1v74.9l5.8-10.1V34.5"/><path class="cls-18" d="M144.1 32.3l-4.5-4.6M145.3 37.6l-5.7-5.8M145.3 41.7l-5.7-5.8M145.3 45.5l-5.7-5.8M145.3 49.6l-5.7-5.8M145.3 53.7l-5.7-5.8M145.3 57.5l-5.7-5.8M145.3 61.6l-5.7-5.8M145.3 65.7l-5.7-5.8M145.3 69.7l-5.7-5.7M145.3 73.6l-5.7-5.8M145.3 77.7l-5.7-5.8M145.3 81.7l-5.7-5.7M145.3 85.6l-5.7-5.8M145.1 89.4l-5.5-5.5M143.7 92.1l-4.1-4.1M142.2 94.7l-2.6-2.6M140.8 97.1l-1.2-1.2M139.6 98.5l.9-.9M139.6 94.5l5.7-5.8M139.6 90.4l5.7-5.8M139.6 86.5l5.7-5.7M139.6 82.5l5.7-5.8M139.6 78.4l5.7-5.8M139.6 74.5l5.7-5.7M139.6 70.5l5.7-5.8M139.6 66.4l5.7-5.8M139.6 62.5l5.7-5.7M139.6 58.5l5.7-5.8M139.6 54.4l5.7-5.8M139.6 50.3l5.7-5.8M139.6 46.5l5.7-5.8M139.6 42.4l5.7-5.8M139.6 38.3l5-5M139.6 34.5l3.6-3.9M139.6 30.4l2.1-2.2M139.6 26.3l.5-.7"/><path class="cls-25" d="M145.1 34.5l-5.8-10.1v74.9l5.8-10.1V34.5"/><path class="cls-18" d="M144.1 32.3l-4.5-4.6M145.3 37.6l-5.7-5.8M145.3 41.7l-5.7-5.8M145.3 45.5l-5.7-5.8M145.3 49.6l-5.7-5.8M145.3 53.7l-5.7-5.8M145.3 57.5l-5.7-5.8M145.3 61.6l-5.7-5.8M145.3 65.7l-5.7-5.8M145.3 69.7l-5.7-5.7M145.3 73.6l-5.7-5.8M145.3 77.7l-5.7-5.8M145.3 81.7l-5.7-5.7M145.3 85.6l-5.7-5.8M145.1 89.4l-5.5-5.5M143.7 92.1l-4.1-4.1M142.2 94.7l-2.6-2.6M140.8 97.1l-1.2-1.2M139.6 98.5l.9-.9M139.6 94.5l5.7-5.8M139.6 90.4l5.7-5.8M139.6 86.5l5.7-5.7M139.6 82.5l5.7-5.8M139.6 78.4l5.7-5.8M139.6 74.5l5.7-5.7M139.6 70.5l5.7-5.8M139.6 66.4l5.7-5.8M139.6 62.5l5.7-5.7M139.6 58.5l5.7-5.8M139.6 54.4l5.7-5.8M139.6 50.3l5.7-5.8M139.6 46.5l5.7-5.8M139.6 42.4l5.7-5.8M139.6 38.3l5-5M139.6 34.5l3.6-3.9M139.6 30.4l2.1-2.2M139.6 26.3l.5-.7"/><path class="cls-20" d="M145.1 89.2V34.5M139.3 99.3V31.6M139.3 99.3V31.6M145.1 89.2V34.5"/><path class="cls-19" d="M139.3 93.7h-34M139.3 86.1h-34M139.3 78.4h-34M139.3 70.7h-34M65.7 31.6l-8 35.3M41.2 65.4h64.1V99H41.2zM122.3 93.7l3.8-3.8h-7.6l3.8 3.8zM61.8 65.4V31.6M69.5 65.4V31.6M77.2 65.4V31.6M84.9 65.4V31.6M92.5 65.4V31.6M100 65.4V31.6"/><path class="cls-19" d="M42.6 66.9h61.2v30.7H42.6zM100 48.6l-3.9-3.8v7.7l3.9-3.9zM61.8 48.6L58 44.8v7.7l3.8-3.9z"/><path class="cls-25" d="M143.2 230.5H136v-90.4h7.2v90.4"/><path class="cls-18" d="M143.4 143.9l-3.8-3.8M143.4 148l-7.2-7.2M143.4 151.8l-7.2-7.2M143.4 155.9l-7.2-7.2M143.4 160l-7.2-7.2M143.4 163.8l-7.2-7.2M143.4 167.9l-7.2-7.2M143.4 172l-7.2-7.2M143.4 176.1l-7.2-7.2M143.4 179.9l-7.2-7.2M143.4 184l-7.2-7.2M143.4 188.1l-7.2-7.2M143.4 191.9l-7.2-7.2M143.4 196l-7.2-7.2M143.4 200.1l-7.2-7.2M143.4 204.1l-7.2-7.2M143.4 208l-7.2-7.2M143.4 212.1l-7.2-7.2M143.4 216.1l-7.2-7.2M143.4 220l-7.2-7.2M143.4 224.1l-7.2-7.2M143.4 228.1l-7.2-7.2M141.7 230.5l-5.5-5.7M137.7 230.5l-1.5-1.6M139.8 230.5l3.6-3.6M136.2 230.1l7.2-7.2M136.2 226.2l7.2-7.2M136.2 222.1l7.2-7.2M136.2 218.1l7.2-7.2M136.2 214.2l7.2-7.2M136.2 210.1l7.2-7.2M136.2 206.1l7.2-7.2M136.2 202l7.2-7.2M136.2 198.1l7.2-7.2M136.2 194.1l7.2-7.2M136.2 190l7.2-7.2M136.2 186.1l7.2-7.2M136.2 182.1l7.2-7.2M136.2 178l7.2-7.2M136.2 174.1l7.2-7.2M136.2 170.1l7.2-7.2M136.2 166l7.2-7.2M136.2 161.9l7.2-7.2M136.2 158.1l7.2-7.2M136.2 154l7.2-7.2M136.2 149.9l7.2-7.2M136.2 146.1l5.8-6M136.2 142l1.7-1.9"/><path class="cls-25" d="M136 230.5h7.2v-90.4H136v90.4"/><path class="cls-18" d="M143.4 143.9l-3.8-3.8M143.4 148l-7.2-7.2M143.4 151.8l-7.2-7.2M143.4 155.9l-7.2-7.2M143.4 160l-7.2-7.2M143.4 163.8l-7.2-7.2M143.4 167.9l-7.2-7.2M143.4 172l-7.2-7.2M143.4 176.1l-7.2-7.2M143.4 179.9l-7.2-7.2M143.4 184l-7.2-7.2M143.4 188.1l-7.2-7.2M143.4 191.9l-7.2-7.2M143.4 196l-7.2-7.2M143.4 200.1l-7.2-7.2M143.4 204.1l-7.2-7.2M143.4 208l-7.2-7.2M143.4 212.1l-7.2-7.2M143.4 216.1l-7.2-7.2M143.4 220l-7.2-7.2M143.4 224.1l-7.2-7.2M143.4 228.1l-7.2-7.2M141.7 230.5l-5.5-5.7M137.7 230.5l-1.5-1.6M139.8 230.5l3.6-3.6M136.2 230.1l7.2-7.2M136.2 226.2l7.2-7.2M136.2 222.1l7.2-7.2M136.2 218.1l7.2-7.2M136.2 214.2l7.2-7.2M136.2 210.1l7.2-7.2M136.2 206.1l7.2-7.2M136.2 202l7.2-7.2M136.2 198.1l7.2-7.2M136.2 194.1l7.2-7.2M136.2 190l7.2-7.2M136.2 186.1l7.2-7.2M136.2 182.1l7.2-7.2M136.2 178l7.2-7.2M136.2 174.1l7.2-7.2M136.2 170.1l7.2-7.2M136.2 166l7.2-7.2M136.2 161.9l7.2-7.2M136.2 158.1l7.2-7.2M136.2 154l7.2-7.2M136.2 149.9l7.2-7.2M136.2 146.1l5.8-6M136.2 142l1.7-1.9"/><path class="cls-20" d="M143.2 230.5v-90.4M136 230.5v-90.4M136 230.5v-90.4M143.2 230.5v-90.4M143.2 230.5H136"/><path class="cls-25" d="M145.1 89.2l-5.8 10.1h15.4V89.2h-9.6"/><path class="cls-18" d="M154.9 91.3l-2.1-2.1M154.9 95.2l-6.2-6M154.7 99.3l-9.6-9.9M150.9 99.3l-7.2-7.2M146.8 99.3l-4.6-4.6M142.7 99.3l-1.9-2.2M154.7 99.3h.2M150.6 99.3l4.3-4.1M146.8 99.3l8.1-8.2M142.7 99.3l10.1-10.1M140.5 97.6l8.2-8.4"/><path class="cls-25" d="M145.1 89.2l-5.8 10.1h15.4V89.2h-9.6"/><path class="cls-18" d="M154.9 91.3l-2.1-2.1M154.9 95.2l-6.2-6M154.7 99.3l-9.6-9.9M150.9 99.3l-7.2-7.2M146.8 99.3l-4.6-4.6M142.7 99.3l-1.9-2.2M154.7 99.3h.2M150.6 99.3l4.3-4.1M146.8 99.3l8.1-8.2M142.7 99.3l10.1-10.1M140.5 97.6l8.2-8.4"/><path class="cls-20" d="M154.7 89.2h-9.6M154.7 99.3h-15.4M154.7 99.3h-15.4M154.7 89.2h-9.6"/><path class="cls-19" d="M187.3 90.4h-29.5"/><path class="cls-2" d="M187.3 99.3h-29.5"/><path class="cls-19" d="M158.3 99.3h-.5"/><path class="cls-25" d="M190.5 99.3h-3.2v-8.9h3.2"/><path class="cls-18" d="M190.7 90.9l-.7-.5M190.7 94.9l-3.1-3.1M190.7 99l-3.1-3.1M187.6 98.5l3.1-3.1M187.6 94.7l3.1-3.1M187.6 90.6v-.2"/><path class="cls-25" d="M154.7 99.3h3.1v-8.9h-3.1"/><path class="cls-18" d="M158.1 94.5l-3.2-3.2M158.1 98.3l-3.2-3.1M154.9 99.3l3.2-3.2M154.9 95.2l3.2-3.1M154.9 91.1l.8-.7"/><path class="cls-20" d="M187.3 99.3v-8.9M157.8 99.3v-8.9M187.3 99.3v-8.9M190.5 99.3h-3.2M157.8 99.3v-8.9M154.7 99.3h3.1M190.5 89.2v1.2M154.7 89.2v1.2M190.5 99.3h-3.2M154.7 99.3h3.1M187.3 90.4h3.2M157.8 90.4h-3.1"/><path class="cls-25" d="M197.4 24.4h-58.1l5.8 10.1h45.4l6.9-10.1"/><path class="cls-18" d="M196.9 25.1l-.7-.7M195.3 27.5l-3.2-3.1M193.8 29.9l-5.7-5.5M192.1 32.3l-7.9-7.9M190.2 34.5l-10.1-10.1M186.1 34.5l-10-10.1M182.3 34.5l-10.1-10.1M178.2 34.5l-10.1-10.1M174.1 34.5l-10-10.1M170.1 34.5L160 24.4M166.2 34.5l-10.1-10.1M162.1 34.5l-10-10.1M158.1 34.5L148 24.4M154.2 34.5l-10.1-10.1M150.1 34.5l-10-10.1M146.1 34.5l-2-2.2M187.6 34.5l9.8-10.1M183.5 34.5l10.1-10.1M179.4 34.5l10.1-10.1M175.3 34.5l10.1-10.1M171.5 34.5l10.1-10.1M167.4 34.5l10.1-10.1M163.3 34.5l10.1-10.1M159.5 34.5l10.1-10.1M155.4 34.5l10.1-10.1M151.3 34.5l10.1-10.1M147.5 34.5l10.1-10.1M144.6 33.3l8.9-8.9M143.2 30.6l6.2-6.2M141.7 28.2l3.6-3.8M140.1 25.6l1.4-1.2"/><path class="cls-25" d="M197.4 24.4h-58.1l5.8 10.1h45.4l6.9-10.1"/><path class="cls-18" d="M196.9 25.1l-.7-.7M195.3 27.5l-3.2-3.1M193.8 29.9l-5.7-5.5M192.1 32.3l-7.9-7.9M190.2 34.5l-10.1-10.1M186.1 34.5l-10-10.1M182.3 34.5l-10.1-10.1M178.2 34.5l-10.1-10.1M174.1 34.5l-10-10.1M170.1 34.5L160 24.4M166.2 34.5l-10.1-10.1M162.1 34.5l-10-10.1M158.1 34.5L148 24.4M154.2 34.5l-10.1-10.1M150.1 34.5l-10-10.1M146.1 34.5l-2-2.2M187.6 34.5l9.8-10.1M183.5 34.5l10.1-10.1M179.4 34.5l10.1-10.1M175.3 34.5l10.1-10.1M171.5 34.5l10.1-10.1M167.4 34.5l10.1-10.1M163.3 34.5l10.1-10.1M159.5 34.5l10.1-10.1M155.4 34.5l10.1-10.1M151.3 34.5l10.1-10.1M147.5 34.5l10.1-10.1M144.6 33.3l8.9-8.9M143.2 30.6l6.2-6.2M141.7 28.2l3.6-3.8M140.1 25.6l1.4-1.2"/><path class="cls-20" d="M145.1 34.5h45.4M139.3 24.4h58.1M139.3 24.4h58.1M145.1 34.5h45.4"/><path class="cls-25" d="M629.9 67.8h-3.4l4.4 169.2 3.6 3.4-4.6-172.6"/><path class="cls-18" d="M630.9 234.6l3.6 3.6M630.9 230.5l3.6 3.6M630.6 226.5l3.6 3.6M630.6 222.4l3.6 3.6M630.4 218.3l3.6 3.4M630.4 214l3.6 3.6M630.4 209.9l3.6 3.6M630.1 205.8l3.6 3.6M630.1 201.7l3.6 3.6M629.9 197.7l3.6 3.6M629.9 193.6l3.6 3.6M629.7 189.5l3.6 3.4M629.7 185.2l3.6 3.6M629.7 181.1l3.3 3.6M629.4 177l3.6 3.6M629.4 172.9l3.4 3.6M629.2 168.9l3.6 3.6M629.2 164.8l3.6 3.3M628.9 160.7l3.6 3.4M628.9 156.4l3.6 3.6M628.7 152.3l3.6 3.6M628.7 148.2l3.6 3.6M628.7 144.1l3.4 3.6M628.5 140.1l3.6 3.3M628.5 136l3.3 3.3M628.2 131.9l3.6 3.4M628.2 127.6l3.4 3.6M628 123.5l3.6 3.6M628 119.4l3.6 3.6M628 115.3l3.3 3.6M627.7 111.3l3.6 3.3M627.7 107.2l3.4 3.3M627.5 103.1l3.6 3.4M627.5 98.8l3.4 3.6M627.3 94.7l3.6 3.6M627.3 90.6l3.3 3.6M627 86.5l3.6 3.4M627 82.5l3.4 3.3M627 78.4l3.4 3.3M626.8 74.3l3.6 3.4M626.8 70l3.3 3.6M628.5 67.8l1.6 1.7"/><path class="cls-25" d="M626.5 67.8h-.4l4.3 168.7.5.5-4.4-169.2"/><path class="cls-25" d="M626.1 67.8l-5.8.3 4.3 162.9 5.8 5.5-4.3-168.7"/><path class="cls-18" d="M629.4 235.6l1-.3M628 234.1h2.4M626.5 232.7h3.9M625.1 231.3h5.3M624.6 229.8h5.8M624.6 228.6l5.8-.2M624.6 227.2l5.5-.3M624.6 225.7l5.5-.2M624.6 224.3l5.5-.2M624.6 222.9l5.5-.3M624.4 221.4l5.7-.2M624.4 220h5.7M624.4 218.5h5.7M624.4 217.1h5.5M624.4 215.7h5.5M624.4 214.5l5.5-.3M624.4 213l5.5-.2M624.1 211.6l5.8-.3M624.1 210.1l5.8-.2M624.1 208.7l5.8-.2M624.1 207.3l5.6-.3M624.1 205.8h5.6M624.1 204.4h5.6M623.9 202.9h5.8M623.9 201.5h5.8M623.9 200.1h5.8M623.9 198.9l5.5-.3M623.9 197.4l5.5-.2M623.9 196l5.5-.3M623.7 194.5l5.7-.2M623.7 193.1l5.7-.2M623.7 191.7l5.7-.3M623.7 190.2h5.7M623.7 188.8h5.5M623.7 187.3h5.5M623.7 185.9h5.5M623.4 184.7l5.8-.2M623.4 183.3l5.8-.3M623.4 181.8l5.8-.2M623.4 180.4l5.5-.3M623.4 178.9l5.5-.2M623.4 177.5l5.5-.2M623.2 176.1h5.7M623.2 174.6h5.7M623.2 173.2h5.7M623.2 171.7h5.7M623.2 170.5l5.5-.2M623.2 169.1l5.5-.2M622.9 167.7l5.8-.3M622.9 166.2l5.8-.2M622.9 164.8l5.8-.3M622.9 163.3l5.8-.2M622.9 161.9l5.8-.2M622.9 160.5h5.6M622.9 159h5.6M622.7 157.6h5.8M622.7 156.1h5.8M622.7 154.9l5.8-.2M622.7 153.5l5.8-.2M622.7 152.1l5.5-.3M622.7 150.6l5.5-.2M622.5 149.2l5.7-.3M622.5 147.7l5.7-.2M622.5 146.3h5.7M622.5 144.9h5.7M622.5 143.4h5.7M622.5 142h5.5M622.5 140.8l5.5-.3M622.2 139.3l5.8-.2M622.2 137.9l5.8-.2M622.2 136.5l5.8-.3M622.2 135l5.8-.2M622.2 133.6l5.8-.3M622.2 132.1h5.5M622 130.7h5.7M622 129.3h5.7M622 127.8h5.7M622 126.6l5.7-.2M622 125.2l5.7-.3M622 123.7l5.5-.2M621.7 122.3l5.8-.2M621.7 120.9l5.8-.3M621.7 119.4l5.8-.2M621.7 118l5.8-.3M621.7 116.5h5.8M621.7 115.1h5.8M621.7 113.7h5.6M621.5 112.2h5.8M621.5 111l5.8-.2M621.5 109.6l5.8-.3M621.5 108.1l5.8-.2M621.5 106.7l5.8-.2M621.5 105.3l5.5-.3M621.3 103.8l5.7-.2M621.3 102.4h5.7M621.3 100.9h5.7M621.3 99.5h5.7M621.3 98.1h5.7M621.3 96.9l5.7-.3M621.3 95.4l5.5-.2M621 94l5.8-.3M621 92.5l5.8-.2M621 91.1l5.8-.2M621 89.7l5.8-.3M621 88.2h5.8M621 86.8h5.8M620.8 85.3h5.7M620.8 83.9h5.7M620.8 82.7l5.7-.2M620.8 81.3l5.7-.3M620.8 79.8l5.7-.2M620.8 78.4l5.7-.3M620.5 76.9l5.8-.2M620.5 75.5l5.8-.2M620.5 74.1l5.8-.3M620.5 72.6h5.8M620.5 71.2h5.8M620.5 69.7h5.8M620.5 68.3h5.8"/><path class="cls-25" d="M620.3 68.1h-5.5l3.8 157.4 6 5.5-4.3-162.9"/><path class="cls-18" d="M620.5 71.9l-3.8-3.8M620.5 76l-5.5-5.5M620.8 80.1l-5.8-5.6M620.8 84.4l-5.5-5.8M621 88.5l-5.7-5.8M621 92.5l-5.7-5.7M621.3 96.6l-5.8-5.7M621.3 100.7l-5.8-5.8M621.5 104.8l-5.8-5.8M621.5 108.9l-5.8-5.6M621.5 113.2l-5.8-5.8M621.7 117.3l-5.7-5.8M621.7 121.3l-5.7-5.7M622 125.4l-5.8-5.7M622 129.5l-5.8-5.8M622.2 133.6l-5.7-5.8M622.2 137.9l-5.7-6M622.5 142l-6-6M622.5 146.1l-5.8-5.8M622.7 150.1l-6-5.7M622.7 154.2l-5.8-5.7M622.7 158.3l-5.8-5.8M622.9 162.6l-5.7-6M622.9 166.7l-5.7-6M623.2 170.8l-6-6M623.2 174.9l-5.8-6M623.4 178.9l-6-5.7M623.4 183l-5.7-5.7M623.7 187.1l-6-5.8M623.7 191.4l-6-6M623.9 195.5l-6-6M623.9 199.6l-6-6M623.9 203.7l-5.8-6M624.1 207.7l-6-6M624.1 211.8l-5.7-5.7M624.4 216.1l-6-6M624.4 220.2l-6-6M624.6 224.3l-6-6M624.6 228.4l-6-6M624.6 230.8v-.3M622.5 228.9l2.1-2.2M620.3 226.9l4.3-4M618.6 224.5l5.8-5.7M618.6 220.7l5.8-5.8M618.6 216.9l5.5-5.8M618.4 212.8l5.7-5.5M618.4 208.9l5.5-5.7M618.1 205.1l5.8-5.8M618.1 201l5.8-5.5M618.1 197.2l5.6-5.5M617.9 193.3l5.8-5.7M617.9 189.3l5.5-5.6M617.7 185.4l5.7-5.5M617.7 181.6l5.5-5.8M617.7 177.5l5.5-5.5M617.4 173.7l5.8-5.6M617.4 169.8l5.5-5.5M617.2 166l5.7-5.8M617.2 161.9l5.5-5.5M617.2 158.1l5.5-5.6M616.9 154.2l5.6-5.5M616.9 150.1l5.6-5.5M616.7 146.3l5.8-5.5M616.7 142.5l5.5-5.6M616.7 138.4l5.5-5.5M616.5 134.5l5.5-5.5M616.5 130.7l5.5-5.5M616.2 126.9l5.5-5.6M616.2 122.8l5.5-5.5M616.2 118.9l5.5-5.5M616 115.1l5.5-5.5M616 111l5.5-5.3M615.7 107.2l5.6-5.5M615.7 103.3l5.6-5.5M615.7 99.3L621 94M615.5 95.4l5.5-5.5M615.5 91.6l5.3-5.5M615.3 87.5l5.5-5.3M615.3 83.7l5.5-5.3M615.3 79.8l5.2-5.5M615 76l5.5-5.5M615 71.9l3.9-3.8"/><path class="cls-20" d="M626.5 67.8l4.4 169.2M629.9 67.8l4.6 172.6"/><path class="cls-18" d="M620.3 68.1l4.3 162.9M626.1 67.8l4.3 168.7"/><path class="cls-20" d="M614.8 68.1l3.8 157.4M620.3 68.1l4.3 162.9"/><path class="cls-19" d="M629.9 67.8l4.6 172.6M614.8 68.1l3.8 157.4"/><path class="cls-25" d="M628.2.1h-3.3l.7 26.9h3.3L628.2.1"/><path class="cls-18" d="M625.6 24.9l2.1 2.1M625.6 20.8l3.3 3.3M625.3 16.7l3.6 3.4M625.3 12.6l3.4 3.4M625.1 8.5l3.6 3.4M625.1 4.2l3.4 3.6M625.1.1l3.4 3.6"/><path class="cls-25" d="M624.9.1h-.5l.7 26.9h.5L624.9.1"/><path class="cls-25" d="M624.4.1h-5.8l.7 27.2 5.8-.3-.7-26.9"/><path class="cls-18" d="M619.3 25.8h5.8M619.3 24.4h5.8M619.3 23.2l5.8-.3M619.3 21.7l5.8-.2M619.3 20.3l5.8-.2M619.3 18.9l5.8-.3M619.1 17.4l5.8-.2M619.1 16l5.8-.3M619.1 14.5h5.8M619.1 13.1h5.8M619.1 11.7h5.8M619.1 10.2h5.8M618.9 9l5.7-.2M618.9 7.6l5.7-.3M618.9 6.1l5.7-.2M618.9 4.7l5.7-.2M618.9 3.3l5.7-.3M618.9 1.8l5.7-.2M618.9.4l5.7-.3"/><path class="cls-25" d="M619.3 27.3L618.6.1l-5.5 7.2.5 20h5.7"/><path class="cls-18" d="M618.9 2.1l-1-1M618.9 6.1l-2.7-2.6M619.1 10.2l-4.6-4.5M619.1 14.3l-5.8-5.8M619.3 18.4l-6-5.8M619.3 22.7l-6-6M619.3 26.8l-5.7-6M616 27.3l-2.4-2.4M615.5 27.3l3.8-3.9M613.6 25.1l5.7-5.5M613.6 21.3l5.5-5.6M613.6 17.4l5.5-5.5M613.3 13.3l5.6-5.5M613.3 9.5l5.6-5.5"/><path class="cls-20" d="M624.9.1l.7 26.9M628.2.1l.7 26.9"/><path class="cls-18" d="M618.6.1l.7 27.2M624.4.1l.7 26.9"/><path class="cls-20" d="M613.1 7.3l.5 20M618.6.1l.7 27.2M618.6.1"/><path class="cls-19" d="M628.2.1l.7 26.9M613.1 7.3l.5 20M621.7 28.9l7.2-.2v-3.4h2l.9 44h-1.7l-.2-3.4-7.2.2"/><path class="cls-2" d="M613.6 27.3l1.2 40.8"/><path class="cls-19" d="M614.8 67.6v.5"/><path class="cls-20" d="M628.9 28.7v-3.4M629.9 65.9l.2 3.4"/><path class="cls-19" d="M621.5 27l1.2 40.8-2.4.3-1-40.8 2.2-.3zM621.7 30.9h-2.4M622.5 64.2h-2.2M619.3 27.3l2.2-.3M619.8 45.5h2.2M619.3 30.9h2.4M619.8 49.6h2.4M619.8 45.5h2.2M620.3 64.2h2.2M619.8 49.6h2.4M620.3 68.1l2.4-.3"/><path class="cls-20" d="M619.3 27.3h-5.7"/><path class="cls-25" d="M625 27l.1 1.9-3.4.1-.1-1.9"/><path class="cls-18" d="M621.7 28.7h3.6M621.7 27.3h3.6M625 27l.1 1.9-3.4.1-.1-1.9"/><path class="cls-25" d="M628.9 27v1.7l-3.3.2V27"/><path class="cls-18" d="M627.7 27l1.5 1.2"/><path class="cls-20" d="M628.9 27v1.7l-3.3.2V27M625.6 28.9h-3.9M620.3 68.1h-5.5"/><path class="cls-25" d="M626.1 67.9L626 66l-3.4.1.1 1.8"/><path class="cls-18" d="M622.9 66.9h3.4M626.1 67.9L626 66l-3.4.1.1 1.8"/><path class="cls-25" d="M629.9 67.8v-1.9h-3.4v1.9"/><path class="cls-18" d="M626.8 65.9l1.7 1.9"/><path class="cls-20" d="M629.9 67.8v-1.9h-3.4v1.9M626.5 65.9l-3.8.2"/><path class="cls-25" d="M246.1 135v5.1h-6V135h6"/><path class="cls-18" d="M240.4 138.6l3.3-3.6M243 140.1l3.4-3.2"/><path class="cls-25" d="M246.1 140.1V135h-6v5.1h6"/><path class="cls-18" d="M240.4 138.6l3.3-3.6M243 140.1l3.4-3.2"/><path class="cls-20" d="M246.1 135h-6M246.1 140.1h-6M246.1 140.1h-6M246.1 135h-6"/><path class="cls-25" d="M345.7 135v5.1h-72.9V135h72.9"/><path class="cls-18" d="M273 135.7l.5-.7M273 140.1l4.8-5.1M277.1 140.1l5-5.1M281.4 140.1l5.1-5.1M285.5 140.1l5-5.1M289.8 140.1l5.1-5.1M294.1 140.1l5.1-5.1M298.2 140.1l5.1-5.1M302.5 140.1l5.1-5.1M306.9 140.1l5-5.1M310.9 140.1l5.1-5.1M315.3 140.1l5-5.1M319.6 140.1l5-5.1M323.9 140.1l5-5.1M328 140.1l5-5.1M332.3 140.1l5-5.1M336.6 140.1l5.1-5.1M340.7 140.1l5-5.1M345 140.1l1-.8"/><path class="cls-25" d="M345.7 140.1V135h-72.9v5.1h72.9"/><path class="cls-18" d="M273 135.7l.5-.7M273 140.1l4.8-5.1M277.1 140.1l5-5.1M281.4 140.1l5.1-5.1M285.5 140.1l5-5.1M289.8 140.1l5.1-5.1M294.1 140.1l5.1-5.1M298.2 140.1l5.1-5.1M302.5 140.1l5.1-5.1M306.9 140.1l5-5.1M310.9 140.1l5.1-5.1M315.3 140.1l5-5.1M319.6 140.1l5-5.1M323.9 140.1l5-5.1M328 140.1l5-5.1M332.3 140.1l5-5.1M336.6 140.1l5.1-5.1M340.7 140.1l5-5.1M345 140.1l1-.8"/><path class="cls-20" d="M345.7 135h-72.9M345.7 140.1h-68.8M345.7 135h-72.9M345.7 140.1h-68.8"/><path class="cls-25" d="M371.2 140.1h20.6l4.1-5.1h-24.7v5.1"/><path class="cls-18" d="M371.4 139.3l4.1-4.3M374.8 140.1l5-5.1M379.1 140.1l5-5.1M383.4 140.1l5.1-5.1M387.5 140.1l5-5.1M391.8 140.1l.7-.8"/><path class="cls-25" d="M371.2 140.1h20.6l4.1-5.1h-24.7v5.1"/><path class="cls-18" d="M371.4 139.3l4.1-4.3M374.8 140.1l5-5.1M379.1 140.1l5-5.1M383.4 140.1l5.1-5.1M387.5 140.1l5-5.1M391.8 140.1l.7-.8"/><path class="cls-20" d="M395.9 135h-24.7M391.8 140.1h-20.6M391.8 140.1h-20.6M395.9 135h-24.7"/><path class="cls-2" d="M371.2 135h-25.5M371.2 140.1h-25.5"/><path class="cls-19" d="M369.7 135v5.1M347.2 135v5.1"/><path class="cls-20" d="M371.2 135v5.1M345.7 135v5.1"/><path class="cls-18" d="M347.1 140.1c0 12.4 10.2 22.7 22.7 22.7M369.7 140.1v22.8"/><path class="cls-2" d="M272.8 135h-26.7M272.8 140.1h-26.7"/><path class="cls-19" d="M270.6 135v5.1M248.1 135v5.1"/><path class="cls-20" d="M272.8 135v5.1M246.1 135v5.1"/><path class="cls-18" d="M248 140.1c0 12.4 10.2 22.7 22.7 22.7M270.6 140.1v22.8"/><path class="cls-25" d="M276.9 140.1h-4.1v85.4h4.1v-85.4"/><path class="cls-18" d="M273 144.1l4.1-4M273 148.5l4.1-4.1M273 152.8l4.1-4.1M273 156.9l4.1-4.1M273 161.2l4.1-4.1M273 165.5l4.1-4.1M273 169.8l4.1-4.1M273 173.9l4.1-4.1M273 178.2l4.1-4.1M273 182.5l4.1-4M273 186.6l4.1-4.1M273 190.9l4.1-4M273 195.3l4.1-4.1M273 199.6l4.1-4.1M273 203.7l4.1-4.1M273 208l4.1-4.1M273 212.3l4.1-4.1M273 216.4l4.1-4.1M273 220.7l4.1-4.1M273 225l4.1-4.1M276.6 225.5l.5-.5"/><path class="cls-25" d="M276.9 140.1h-4.1v85.4h4.1v-85.4"/><path class="cls-18" d="M273 144.1l4.1-4M273 148.5l4.1-4.1M273 152.8l4.1-4.1M273 156.9l4.1-4.1M273 161.2l4.1-4.1M273 165.5l4.1-4.1M273 169.8l4.1-4.1M273 173.9l4.1-4.1M273 178.2l4.1-4.1M273 182.5l4.1-4M273 186.6l4.1-4.1M273 190.9l4.1-4M273 195.3l4.1-4.1M273 199.6l4.1-4.1M273 203.7l4.1-4.1M273 208l4.1-4.1M273 212.3l4.1-4.1M273 216.4l4.1-4.1M273 220.7l4.1-4.1M273 225l4.1-4.1M276.6 225.5l.5-.5"/><path class="cls-20" d="M276.9 225.5v-85.4M272.8 225.5v-85.4M272.8 225.5v-85.4M276.9 225.5v-85.4M276.9 225.5h-4.1"/><path class="cls-25" d="M395.9 135l-4.1 5.1v85.4h4.1V135"/><path class="cls-18" d="M392.5 139.3l3.6-3.6M392.1 144.1l4-4M392.1 148.5l4-4.1M392.1 152.8l4-4.1M392.1 156.9l4-4.1M392.1 161.2l4-4.1M392.1 165.5l4-4.1M392.1 169.6l4-4.1M392.1 173.9l4-4.1M392.1 178.2l4-4.1M392.1 182.5l4-4M392.1 186.6l4-4.1M392.1 190.9l4-4M392.1 195.3l4-4.1M392.1 199.3l4-4M392.1 203.7l4-4.1M392.1 208l4-4.1M392.1 212.1l4-4.1M392.1 216.4l4-4.1M392.1 220.7l4-4.1M392.1 225l4-4.1M395.7 225.5l.4-.5"/><path class="cls-25" d="M395.9 135l-4.1 5.1v85.4h4.1V135"/><path class="cls-18" d="M392.5 139.3l3.6-3.6M392.1 144.1l4-4M392.1 148.5l4-4.1M392.1 152.8l4-4.1M392.1 156.9l4-4.1M392.1 161.2l4-4.1M392.1 165.5l4-4.1M392.1 169.6l4-4.1M392.1 173.9l4-4.1M392.1 178.2l4-4.1M392.1 182.5l4-4M392.1 186.6l4-4.1M392.1 190.9l4-4M392.1 195.3l4-4.1M392.1 199.3l4-4M392.1 203.7l4-4.1M392.1 208l4-4.1M392.1 212.1l4-4.1M392.1 216.4l4-4.1M392.1 220.7l4-4.1M392.1 225l4-4.1M395.7 225.5l.4-.5"/><path class="cls-20" d="M395.9 225.5V135M391.8 225.5v-85.4M391.8 225.5v-85.4M395.9 225.5V135M395.9 225.5h-4.1"/><path class="cls-25" d="M425.4 85.3l4.1 5.1h114.2l4.4-5.1H425.4"/><path class="cls-18" d="M427.3 87.5l2.2-2.2M429.3 89.9l4.5-4.6M433.1 90.4l5-5.1M437.2 90.4l5-5.1M441.5 90.4l5-5.1M445.8 90.4l5.1-5.1M449.9 90.4l5-5.1M454.2 90.4l5.1-5.1M458.5 90.4l5.1-5.1M462.6 90.4l5.1-5.1M466.9 90.4l5.1-5.1M471.3 90.4l5-5.1M475.6 90.4l5-5.1M479.7 90.4l5-5.1M484 90.4l5-5.1M488.3 90.4l5-5.1M492.4 90.4l5-5.1M496.7 90.4l5-5.1M501 90.4l5.1-5.1M505.3 90.4l5.1-5.1M509.4 90.4l5.1-5.1M513.7 90.4l5.1-5.1M518.1 90.4l5-5.1M522.1 90.4l5.1-5.1M526.5 90.4l5-5.1M530.8 90.4l5-5.1M535.1 90.4l5-5.1M539.2 90.4l5-5.1M543.5 90.4l2.6-2.7"/><path class="cls-25" d="M425.4 85.3l4.1 5.1h114.2l4.4-5.1H425.4"/><path class="cls-18" d="M427.3 87.5l2.2-2.2M429.3 89.9l4.5-4.6M433.1 90.4l5-5.1M437.2 90.4l5-5.1M441.5 90.4l5-5.1M445.8 90.4l5.1-5.1M449.9 90.4l5-5.1M454.2 90.4l5.1-5.1M458.5 90.4l5.1-5.1M462.6 90.4l5.1-5.1M466.9 90.4l5.1-5.1M471.3 90.4l5-5.1M475.6 90.4l5-5.1M479.7 90.4l5-5.1M484 90.4l5-5.1M488.3 90.4l5-5.1M492.4 90.4l5-5.1M496.7 90.4l5-5.1M501 90.4l5.1-5.1M505.3 90.4l5.1-5.1M509.4 90.4l5.1-5.1M513.7 90.4l5.1-5.1M518.1 90.4l5-5.1M522.1 90.4l5.1-5.1M526.5 90.4l5-5.1M530.8 90.4l5-5.1M535.1 90.4l5-5.1M539.2 90.4l5-5.1M543.5 90.4l2.6-2.7"/><path class="cls-20" d="M479.2 85.3h-53.8M548.1 85.3h-64.8M543.7 90.4H429.5M543.7 90.4H429.5M479.2 85.3h-53.8M548.1 85.3h-64.8"/><path class="cls-25" d="M483.3 55.3h-4.1V22.9h4.1v32.4"/><path class="cls-18" d="M479.4 27l4.1-4.1M479.4 31.3l4.1-4M479.4 35.7l4.1-4.1M479.4 39.7l4.1-4M479.4 44.1l4.1-4.1M479.4 48.4l4.1-4.1M479.4 52.5l4.1-4.1M480.9 55.3l2.6-2.6"/><path class="cls-25" d="M479.2 55.3h4.1V22.9h-4.1v32.4"/><path class="cls-18" d="M479.4 27l4.1-4.1M479.4 31.3l4.1-4M479.4 35.7l4.1-4.1M479.4 39.7l4.1-4M479.4 44.1l4.1-4.1M479.4 48.4l4.1-4.1M479.4 52.5l4.1-4.1M480.9 55.3l2.6-2.6"/><path class="cls-20" d="M483.3 55.3V22.9M479.2 55.3V22.9M479.2 55.3V22.9M483.3 55.3V22.9"/><path class="cls-25" d="M479.2 80.5v4.8h4.1v-4.8h-4.1"/><path class="cls-18" d="M479.4 82.2l1.7-1.7M480.6 85.3l2.9-2.8"/><path class="cls-25" d="M479.2 80.5v4.8h4.1v-4.8h-4.1"/><path class="cls-18" d="M479.4 82.2l1.7-1.7M480.6 85.3l2.9-2.8"/><path class="cls-20" d="M483.3 85.3v-4.8M479.2 85.3v-4.8M479.2 85.3v-4.8M483.3 85.3v-4.8"/><path class="cls-2" d="M483.3 80.5V55.3M479.2 80.5V55.3"/><path class="cls-19" d="M483.3 79.3h-4.1M483.3 56.5h-4.1"/><path class="cls-20" d="M483.3 80.5h-4.1M483.3 55.3h-4.1"/><path class="cls-18" d="M479.1 56.6c-12.4 0-22.7 10.2-22.7 22.7M479.2 79.3h-22.8"/><path class="cls-25" d="M197.4 92.1l-6.9 7.2h6.9v-7.2"/><path class="cls-18" d="M197.7 94l-1-1M197.7 97.8l-2.9-2.9M194.8 99.3l-2.2-2.2M190.9 99.3l-.2-.3M194.8 99.3l2.9-2.7M190.9 99.3l6.8-6.8"/><path class="cls-25" d="M197.4 92.1l-6.9 7.2h6.9v-7.2"/><path class="cls-18" d="M197.7 94l-1-1M197.7 97.8l-2.9-2.9M194.8 99.3l-2.2-2.2M190.9 99.3l-.2-.3M194.8 99.3l2.9-2.7M190.9 99.3l6.8-6.8"/><path class="cls-20" d="M197.4 99.3h-6.9M197.4 99.3h-6.9"/><path class="cls-19" d="M227.2 91.6h6v1.7h-6zM197.4 91.6h2.6v1.7h-2.6zM200.1 91.6h27.1v1.7h-27.1zM227.2 93.3h-27.1"/><path class="cls-2" d="M227.4 99.3h-27.6"/><path class="cls-19" d="M200.3 99.3h-.5"/><path class="cls-25" d="M233.2 99.3h-5.8v-6h5.8"/><path class="cls-18" d="M233.4 93.5l-.5-.2M233.4 97.6l-4.5-4.3M231 99.3l-3.3-3.4M231 99.3l2.4-2.4M227.7 98.5l5.2-5.2M227.7 94.7l1.2-1.4"/><path class="cls-25" d="M197.4 99.3h2.4v-6h-2.4"/><path class="cls-18" d="M200.1 96.4l-2.4-2.4M198.9 99.3l-1.2-1.5M198.9 99.3l1.2-1.2M197.7 96.6l2.4-2.4"/><path class="cls-20" d="M227.4 99.3v-6M199.8 99.3v-6M227.4 99.3v-6M233.2 99.3h-5.8M199.8 99.3v-6M197.4 99.3h2.4M233.2 92.1v1.2M197.4 92.1v1.2M233.2 99.3h-5.8M197.4 99.3h2.4M227.4 93.3h5.8M199.8 93.3h-2.4"/><path class="cls-25" d="M302.3 76l-7.2 6.9v17.6l7.2-7.2V76"/><path class="cls-18" d="M302.5 78.6l-1.4-1.4M302.5 82.5l-3.3-3.4M302.5 86.5l-5.5-5.2M302.5 90.6l-7.2-7.2M301.8 94l-6.5-6.7M299.7 95.9l-4.4-4.6M297.7 97.8l-2.4-2.4M295.8 100l-.5-.7M295.3 99l7.2-7.2M295.3 95.2l7.2-7.2M295.3 91.1l7.2-7.2M295.3 87l7.2-7.2M295.3 82.9l3.4-3.3"/><path class="cls-25" d="M302.3 76l-7.2 6.9v17.6l7.2-7.2V76"/><path class="cls-18" d="M302.5 78.6l-1.4-1.4M302.5 82.5l-3.3-3.4M302.5 86.5l-5.5-5.2M302.5 90.6l-7.2-7.2M301.8 94l-6.5-6.7M299.7 95.9l-4.4-4.6M297.7 97.8l-2.4-2.4M295.8 100l-.5-.7M295.3 99l7.2-7.2M295.3 95.2l7.2-7.2M295.3 91.1l7.2-7.2M295.3 87l7.2-7.2M295.3 82.9l3.4-3.3"/><path class="cls-20" d="M302.3 93.3V76M295.1 100.5V82.9M295.1 100.5V82.9M302.3 93.3V76"/><path class="cls-25" d="M365.9 25.6l-7-7.2v74.9l7 7.2V25.6"/><path class="cls-18" d="M366.1 25.8l-6.9-6.9M366.1 29.9l-6.9-7M366.1 34l-6.9-7M366.1 37.8l-6.9-6.9M366.1 41.9l-6.9-7M366.1 46l-6.9-7M366.1 49.8l-6.9-6.9M366.1 53.9l-6.9-7M366.1 58l-6.9-7M366.1 62.1l-6.9-7M366.1 65.9l-6.9-7M366.1 70l-6.9-7M366.1 74.1l-6.9-7M366.1 77.9l-6.9-7M366.1 82l-6.9-7M366.1 86.1l-6.9-7M366.1 89.9l-6.9-7M366.1 94l-6.9-7M366.1 98.1l-6.9-7M365.9 100.5h.2M364 98.3l2.1-1.9M362.1 96.4l4-3.9M360.1 94.2l6-5.7M359.2 91.3l6.9-6.9M359.2 87.3l6.9-7M359.2 83.4l6.9-6.9M359.2 79.3l6.9-6.9M359.2 75.3l6.9-7M359.2 71.4l6.9-6.9M359.2 67.3l6.9-6.9M359.2 63.3l6.9-7M359.2 59.4l6.9-6.9M359.2 55.3l6.9-6.9M359.2 51.3l6.9-7M359.2 47.2l6.9-7M359.2 43.3l6.9-6.9M359.2 39.3l6.9-7M359.2 35.2l6.9-7M359.2 31.3l6.2-6.4M359.2 27.3l4.3-4.4M359.2 23.2l2.1-2.4M359.2 19.1l.2-.2"/><path class="cls-25" d="M365.9 25.6l-7-7.2v74.9l7 7.2V25.6"/><path class="cls-18" d="M366.1 25.8l-6.9-6.9M366.1 29.9l-6.9-7M366.1 34l-6.9-7M366.1 37.8l-6.9-6.9M366.1 41.9l-6.9-7M366.1 46l-6.9-7M366.1 49.8l-6.9-6.9M366.1 53.9l-6.9-7M366.1 58l-6.9-7M366.1 62.1l-6.9-7M366.1 65.9l-6.9-7M366.1 70l-6.9-7M366.1 74.1l-6.9-7M366.1 77.9l-6.9-7M366.1 82l-6.9-7M366.1 86.1l-6.9-7M366.1 89.9l-6.9-7M366.1 94l-6.9-7M366.1 98.1l-6.9-7M365.9 100.5h.2M364 98.3l2.1-1.9M362.1 96.4l4-3.9M360.1 94.2l6-5.7M359.2 91.3l6.9-6.9M359.2 87.3l6.9-7M359.2 83.4l6.9-6.9M359.2 79.3l6.9-6.9M359.2 75.3l6.9-7M359.2 71.4l6.9-6.9M359.2 67.3l6.9-6.9M359.2 63.3l6.9-7M359.2 59.4l6.9-6.9M359.2 55.3l6.9-6.9M359.2 51.3l6.9-7M359.2 47.2l6.9-7M359.2 43.3l6.9-6.9M359.2 39.3l6.9-7M359.2 35.2l6.9-7M359.2 31.3l6.2-6.4M359.2 27.3l4.3-4.4M359.2 23.2l2.1-2.4M359.2 19.1l.2-.2"/><path class="cls-20" d="M365.9 96.1V25.6M358.9 93.3V18.4M358.9 93.3V18.4M365.9 96.1V25.6"/><path class="cls-25" d="M365.9 100.5l-7-7.2h-56.6l-7.2 7.2h70.8"/><path class="cls-18" d="M364.5 100.5l-7.2-7.2M360.4 100.5l-7.2-7.2M356.5 100.5l-7.2-7.2M352.5 100.5l-7.2-7.2M348.4 100.5l-7.2-7.2M344.3 100.5l-7.2-7.2M340.5 100.5l-7.2-7.2M336.4 100.5l-7.2-7.2M332.3 100.5l-7.2-7.2M328.5 100.5l-7.2-7.2M324.4 100.5l-7.2-7.2M320.3 100.5l-7.2-7.2M316.5 100.5l-7.2-7.2M312.4 100.5l-7.2-7.2M308.3 100.5l-6.5-6.5M304.2 100.5l-4.5-4.6M300.4 100.5l-2.7-2.7M296.3 100.5l-.5-.5M362.1 100.5l1.9-2.2M358 100.5l4.1-4.1M353.9 100.5l6.2-6.3M350.1 100.5l7.2-7.2M346 100.5l7.2-7.2M341.9 100.5l7.2-7.2M338.1 100.5l7.2-7.2M334 100.5l7.2-7.2M329.9 100.5l7.2-7.2M325.8 100.5l7.2-7.2M322 100.5l7.2-7.2M317.9 100.5l7.2-7.2M313.8 100.5l7.2-7.2M310 100.5l7.2-7.2M305.9 100.5l7.2-7.2M301.8 100.5l7.2-7.2M298 100.5l7.2-7.2"/><path class="cls-25" d="M365.9 100.5l-7-7.2h-56.6l-7.2 7.2h70.8"/><path class="cls-18" d="M364.5 100.5l-7.2-7.2M360.4 100.5l-7.2-7.2M356.5 100.5l-7.2-7.2M352.5 100.5l-7.2-7.2M348.4 100.5l-7.2-7.2M344.3 100.5l-7.2-7.2M340.5 100.5l-7.2-7.2M336.4 100.5l-7.2-7.2M332.3 100.5l-7.2-7.2M328.5 100.5l-7.2-7.2M324.4 100.5l-7.2-7.2M320.3 100.5l-7.2-7.2M316.5 100.5l-7.2-7.2M312.4 100.5l-7.2-7.2M308.3 100.5l-6.5-6.5M304.2 100.5l-4.5-4.6M300.4 100.5l-2.7-2.7M296.3 100.5l-.5-.5M362.1 100.5l1.9-2.2M358 100.5l4.1-4.1M353.9 100.5l6.2-6.3M350.1 100.5l7.2-7.2M346 100.5l7.2-7.2M341.9 100.5l7.2-7.2M338.1 100.5l7.2-7.2M334 100.5l7.2-7.2M329.9 100.5l7.2-7.2M325.8 100.5l7.2-7.2M322 100.5l7.2-7.2M317.9 100.5l7.2-7.2M313.8 100.5l7.2-7.2M310 100.5l7.2-7.2M305.9 100.5l7.2-7.2M301.8 100.5l7.2-7.2M298 100.5l7.2-7.2"/><path class="cls-20" d="M295.1 100.5h70.8M302.3 93.3h56.6M302.3 93.3h56.6M295.1 100.5h70.8"/><path class="cls-25" d="M295.1 82.9l7.2-6.9h-69.1l6.9 6.9h55"/><path class="cls-18" d="M301.1 77.2l-1.2-1.2M299.2 79.1l-3.4-3.1M297 81.3l-5-5.3M294.9 82.9l-7-6.9M290.8 82.9l-7-6.9M286.7 82.9l-7-6.9M282.9 82.9l-7-6.9M278.8 82.9l-7-6.9M274.7 82.9l-7-6.9M270.9 82.9l-7-6.9M266.8 82.9l-7-6.9M262.7 82.9l-7-6.9M258.6 82.9l-6.9-6.9M254.8 82.9l-7-6.9M250.7 82.9l-7-6.9M246.6 82.9l-6.9-6.9M242.8 82.9l-7-6.9M298.7 79.6l3.6-3.6M291.3 82.9l6.9-6.9M287.4 82.9l7-6.9M283.3 82.9l7-6.9M279.3 82.9l6.9-6.9M275.2 82.9l6.9-6.9M271.3 82.9l7-6.9M267.3 82.9l6.9-6.9M263.2 82.9l6.9-6.9M259.3 82.9l7-6.9M255.3 82.9l6.9-6.9M251.2 82.9l6.9-6.9M247.3 82.9l7-6.9M243.3 82.9l6.9-6.9M239.7 82.5l6.4-6.5M237.7 80.3l4.4-4.3M235.8 78.4l2.4-2.4M233.7 76.5l.4-.5"/><path class="cls-25" d="M295.1 82.9l7.2-6.9h-69.1l6.9 6.9h55"/><path class="cls-18" d="M301.1 77.2l-1.2-1.2M299.2 79.1l-3.4-3.1M297 81.3l-5-5.3M294.9 82.9l-7-6.9M290.8 82.9l-7-6.9M286.7 82.9l-7-6.9M282.9 82.9l-7-6.9M278.8 82.9l-7-6.9M274.7 82.9l-7-6.9M270.9 82.9l-7-6.9M266.8 82.9l-7-6.9M262.7 82.9l-7-6.9M258.6 82.9l-6.9-6.9M254.8 82.9l-7-6.9M250.7 82.9l-7-6.9M246.6 82.9l-6.9-6.9M242.8 82.9l-7-6.9M298.7 79.6l3.6-3.6M291.3 82.9l6.9-6.9M287.4 82.9l7-6.9M283.3 82.9l7-6.9M279.3 82.9l6.9-6.9M275.2 82.9l6.9-6.9M271.3 82.9l7-6.9M267.3 82.9l6.9-6.9M263.2 82.9l6.9-6.9M259.3 82.9l7-6.9M255.3 82.9l6.9-6.9M251.2 82.9l6.9-6.9M247.3 82.9l7-6.9M243.3 82.9l6.9-6.9M239.7 82.5l6.4-6.5M237.7 80.3l4.4-4.3M235.8 78.4l2.4-2.4M233.7 76.5l.4-.5"/><path class="cls-20" d="M240.1 82.9h55M233.2 76h69.1M233.2 76h69.1M240.1 82.9h55"/><path class="cls-25" d="M483.3 25.6l-7-7.2H358.9l7 7.2h117.4"/><path class="cls-18" d="M482.1 25.6l-7.2-7.2M478 25.6l-7.2-7.2M473.9 25.6l-7.2-7.2M470.1 25.6l-7.2-7.2M466 25.6l-7.2-7.2M461.9 25.6l-7.2-7.2M458.1 25.6l-7.2-7.2M454 25.6l-7.2-7.2M449.9 25.6l-7.2-7.2M445.8 25.6l-7.2-7.2M442 25.6l-7.2-7.2M437.9 25.6l-7.2-7.2M433.8 25.6l-7.2-7.2M430 25.6l-7.2-7.2M425.9 25.6l-7.2-7.2M421.8 25.6l-7.2-7.2M417.7 25.6l-7.2-7.2M413.9 25.6l-7.2-7.2M409.8 25.6l-7.2-7.2M405.7 25.6l-7.2-7.2M401.9 25.6l-7.2-7.2M397.8 25.6l-7.2-7.2M393.7 25.6l-7.2-7.2M389.9 25.6l-7.2-7.2M385.8 25.6l-7.2-7.2M381.7 25.6l-7.2-7.2M377.7 25.6l-7.2-7.2M373.8 25.6l-7.2-7.2M369.7 25.6l-7.2-7.2M480.9 25.6l1.4-1.2M477 25.6l3.1-3.4M472.9 25.6l5.3-5.3M468.9 25.6l7.2-7.2M465 25.6l7.2-7.2M460.9 25.6l7.2-7.2M456.9 25.6l7.2-7.2M453 25.6l7.2-7.2M448.9 25.6l7.2-7.2M444.9 25.6l7.2-7.2M440.8 25.6l7.2-7.2M436.9 25.6l7.2-7.2M432.9 25.6l7.2-7.2M428.8 25.6l7.2-7.2M424.9 25.6l7.2-7.2M420.9 25.6l7.2-7.2M416.8 25.6l7.2-7.2M412.9 25.6l7.2-7.2M408.9 25.6l7.2-7.2M404.8 25.6l7.2-7.2M400.7 25.6l7.2-7.2M396.9 25.6l7.2-7.2M392.8 25.6l7.2-7.2M388.7 25.6l7.2-7.2M384.9 25.6l7.2-7.2M380.8 25.6l7.2-7.2M376.7 25.6l7.2-7.2M372.9 25.6l7.2-7.2M368.8 25.6l7.2-7.2M365.4 24.9l6.5-6.5M363.5 22.9l4.3-4.5M361.3 20.8l2.7-2.4M359.4 18.9l.5-.5"/><path class="cls-25" d="M483.3 25.6l-7-7.2H358.9l7 7.2h117.4"/><path class="cls-18" d="M482.1 25.6l-7.2-7.2M478 25.6l-7.2-7.2M473.9 25.6l-7.2-7.2M470.1 25.6l-7.2-7.2M466 25.6l-7.2-7.2M461.9 25.6l-7.2-7.2M458.1 25.6l-7.2-7.2M454 25.6l-7.2-7.2M449.9 25.6l-7.2-7.2M445.8 25.6l-7.2-7.2M442 25.6l-7.2-7.2M437.9 25.6l-7.2-7.2M433.8 25.6l-7.2-7.2M430 25.6l-7.2-7.2M425.9 25.6l-7.2-7.2M421.8 25.6l-7.2-7.2M417.7 25.6l-7.2-7.2M413.9 25.6l-7.2-7.2M409.8 25.6l-7.2-7.2M405.7 25.6l-7.2-7.2M401.9 25.6l-7.2-7.2M397.8 25.6l-7.2-7.2M393.7 25.6l-7.2-7.2M389.9 25.6l-7.2-7.2M385.8 25.6l-7.2-7.2M381.7 25.6l-7.2-7.2M377.7 25.6l-7.2-7.2M373.8 25.6l-7.2-7.2M369.7 25.6l-7.2-7.2M480.9 25.6l1.4-1.2M477 25.6l3.1-3.4M472.9 25.6l5.3-5.3M468.9 25.6l7.2-7.2M465 25.6l7.2-7.2M460.9 25.6l7.2-7.2M456.9 25.6l7.2-7.2M453 25.6l7.2-7.2M448.9 25.6l7.2-7.2M444.9 25.6l7.2-7.2M440.8 25.6l7.2-7.2M436.9 25.6l7.2-7.2M432.9 25.6l7.2-7.2M428.8 25.6l7.2-7.2M424.9 25.6l7.2-7.2M420.9 25.6l7.2-7.2M416.8 25.6l7.2-7.2M412.9 25.6l7.2-7.2M408.9 25.6l7.2-7.2M404.8 25.6l7.2-7.2M400.7 25.6l7.2-7.2M396.9 25.6l7.2-7.2M392.8 25.6l7.2-7.2M388.7 25.6l7.2-7.2M384.9 25.6l7.2-7.2M380.8 25.6l7.2-7.2M376.7 25.6l7.2-7.2M372.9 25.6l7.2-7.2M368.8 25.6l7.2-7.2M365.4 24.9l6.5-6.5M363.5 22.9l4.3-4.5M361.3 20.8l2.7-2.4M359.4 18.9l.5-.5"/><path class="cls-20" d="M365.9 25.6h117.4M358.9 18.4h117.4M358.9 18.4h117.4M365.9 25.6h117.4"/><path class="cls-25" d="M365.9 96.1v4.4h4.3v-4.4h-4.3"/><path class="cls-18" d="M366.1 97.8l1.7-1.7M367.6 100.5l2.9-2.7"/><path class="cls-25" d="M365.9 96.1v4.4h4.3v-4.4h-4.3"/><path class="cls-18" d="M366.1 97.8l1.7-1.7M367.6 100.5l2.9-2.7"/><path class="cls-20" d="M370.2 96.1h-4.3M370.2 100.5h-4.3M370.2 100.5h-4.3M370.2 96.1h-4.3"/><path class="cls-25" d="M395.4 100.5h34.1l-4.1-4.4h-30v4.4"/><path class="cls-18" d="M395.7 98.1l1.9-2M397.3 100.5l4.4-4.4M401.7 100.5l4.3-4.4M406 100.5l4.3-4.4M410.1 100.5l4.3-4.4M414.4 100.5l4.3-4.4M418.7 100.5l4.3-4.4M423 100.5l3.4-3.4M427.1 100.5l1.4-1.2"/><path class="cls-25" d="M395.4 100.5h34.1l-4.1-4.4h-30v4.4"/><path class="cls-18" d="M395.7 98.1l1.9-2M397.3 100.5l4.4-4.4M401.7 100.5l4.3-4.4M406 100.5l4.3-4.4M410.1 100.5l4.3-4.4M414.4 100.5l4.3-4.4M418.7 100.5l4.3-4.4M423 100.5l3.4-3.4M427.1 100.5l1.4-1.2"/><path class="cls-20" d="M425.4 96.1h-30M429.5 100.5h-34.1M429.5 100.5h-34.1M425.4 96.1h-30M365.9 100.5v-4.4"/><path class="cls-2" d="M395.4 96.1h-25.2M395.4 100.5h-25.2"/><path class="cls-19" d="M394.2 96.1v4.4M371.4 96.1v4.4"/><path class="cls-20" d="M395.4 96.1v4.4M370.2 96.1v4.4"/><path class="cls-18" d="M394.2 96.2c0-12.4-10.2-22.7-22.7-22.7M371.4 96.1V73.6"/><path class="cls-25" d="M613.1 7.1l5.5-7H476.3l7 7h129.8"/><path class="cls-18" d="M617.9 1.1l-1-1M616.2 3.5L612.9.1M614.3 5.7L608.8.1M611.9 7.1l-7-7M607.8 7.1l-6.9-7M603.7 7.1l-6.9-7M599.9 7.1l-7-7M595.8 7.1l-6.9-7M591.7 7.1l-6.9-7M587.9 7.1l-7-7M583.8 7.1l-6.9-7M579.7 7.1l-6.9-7M575.7 7.1l-7-7M571.8 7.1l-6.9-7M567.7 7.1l-6.9-7M563.7 7.1l-7-7M559.8 7.1l-6.9-7M555.7 7.1l-6.9-7M551.7 7.1l-7-7M547.6 7.1l-7-7M543.7 7.1l-6.9-7M539.7 7.1l-7-7M535.6 7.1l-7-7M531.7 7.1l-6.9-7M527.7 7.1l-7-7M523.6 7.1l-7-7M519.7 7.1l-6.9-7M515.7 7.1l-7-7M511.6 7.1l-7-7M507.5 7.1l-7-7M503.7 7.1l-7-7M499.6 7.1l-7-7M495.5 7.1l-7-7M491.7 7.1l-7-7M487.6 7.1l-7-7M483.5 7.1l-7-7M611.7 7.1l6.9-7M607.6 7.1l6.9-7M603.7 7.1l7-7M599.7 7.1l6.9-7M595.6 7.1l6.9-7M591.7 7.1l7-7M587.7 7.1l6.9-7M583.6 7.1l6.9-7M579.7 7.1l7-7M575.7 7.1l6.9-7M571.6 7.1l6.9-7M567.5 7.1l7-7M563.7 7.1l6.9-7M559.6 7.1l6.9-7M555.5 7.1l7-7M551.7 7.1l6.9-7M547.6 7.1l6.9-7M543.5 7.1l7-7M539.7 7.1l6.9-7M535.6 7.1l6.9-7M531.5 7.1l7-7M527.4 7.1l7-7M523.6 7.1l6.9-7M519.5 7.1l7-7M515.4 7.1l7-7M511.6 7.1l6.9-7M507.5 7.1l7-7M503.4 7.1l7-7M499.3 7.1l7-7M495.5 7.1l7-7M491.4 7.1l7-7M487.3 7.1l7-7M483.5 7.1l7-7M481.3 5.2l5.1-5.1M479.4 3l2.9-2.9M477.5 1.1l1-1"/><path class="cls-25" d="M613.1 7.1l5.5-7H476.3l7 7h129.8"/><path class="cls-18" d="M617.9 1.1l-1-1M616.2 3.5L612.9.1M614.3 5.7L608.8.1M611.9 7.1l-7-7M607.8 7.1l-6.9-7M603.7 7.1l-6.9-7M599.9 7.1l-7-7M595.8 7.1l-6.9-7M591.7 7.1l-6.9-7M587.9 7.1l-7-7M583.8 7.1l-6.9-7M579.7 7.1l-6.9-7M575.7 7.1l-7-7M571.8 7.1l-6.9-7M567.7 7.1l-6.9-7M563.7 7.1l-7-7M559.8 7.1l-6.9-7M555.7 7.1l-6.9-7M551.7 7.1l-7-7M547.6 7.1l-7-7M543.7 7.1l-6.9-7M539.7 7.1l-7-7M535.6 7.1l-7-7M531.7 7.1l-6.9-7M527.7 7.1l-7-7M523.6 7.1l-7-7M519.7 7.1l-6.9-7M515.7 7.1l-7-7M511.6 7.1l-7-7M507.5 7.1l-7-7M503.7 7.1l-7-7M499.6 7.1l-7-7M495.5 7.1l-7-7M491.7 7.1l-7-7M487.6 7.1l-7-7M483.5 7.1l-7-7M611.7 7.1l6.9-7M607.6 7.1l6.9-7M603.7 7.1l7-7M599.7 7.1l6.9-7M595.6 7.1l6.9-7M591.7 7.1l7-7M587.7 7.1l6.9-7M583.6 7.1l6.9-7M579.7 7.1l7-7M575.7 7.1l6.9-7M571.6 7.1l6.9-7M567.5 7.1l7-7M563.7 7.1l6.9-7M559.6 7.1l6.9-7M555.5 7.1l7-7M551.7 7.1l6.9-7M547.6 7.1l6.9-7M543.5 7.1l7-7M539.7 7.1l6.9-7M535.6 7.1l6.9-7M531.5 7.1l7-7M527.4 7.1l7-7M523.6 7.1l6.9-7M519.5 7.1l7-7M515.4 7.1l7-7M511.6 7.1l6.9-7M507.5 7.1l7-7M503.4 7.1l7-7M499.3 7.1l7-7M495.5 7.1l7-7M491.4 7.1l7-7M487.3 7.1l7-7M483.5 7.1l7-7M481.3 5.2l5.1-5.1M479.4 3l2.9-2.9M477.5 1.1l1-1"/><path class="cls-20" d="M483.3 7.1h129.8M476.3.1h136.8M476.3.1h136.8M483.3 7.1h129.8M613.1.1h5.5"/><path class="cls-25" d="M476.3 18.4l7 7.2V7.1l-7-7v18.3"/><path class="cls-18" d="M483.5 10.9l-7-6.9M483.5 15l-7-6.9M483.5 18.9l-7-7M483.5 22.9l-7-6.9M482.3 24.4l1.2-1.2M480.1 22.2l3.4-3.1M478.2 20.3l5.3-5M476.5 18.1l7-6.9M476.5 14.1l7-7M476.5 10l4.8-4.8M476.5 6.1l2.9-3.1M476.5 2.1l1-1"/><path class="cls-25" d="M476.3 18.4l7 7.2V7.1l-7-7v18.3"/><path class="cls-18" d="M483.5 10.9l-7-6.9M483.5 15l-7-6.9M483.5 18.9l-7-7M483.5 22.9l-7-6.9M482.3 24.4l1.2-1.2M480.1 22.2l3.4-3.1M478.2 20.3l5.3-5M476.5 18.1l7-6.9M476.5 14.1l7-7M476.5 10l4.8-4.8M476.5 6.1l2.9-3.1M476.5 2.1l1-1"/><path class="cls-20" d="M476.3.1v18.3M483.3 7.1v18.5M483.3 7.1v18.5M476.3.1v18.3"/><path class="cls-19" d="M430.7 90.9h77v17.3h-77zM431.2 106v2.1M439.6 106v2.1M456.6 106v2.1M473.7 106v2.1M490.7 106v2.1"/><path class="cls-25" d="M489.8 95.9v9.3c0 .1 0 .3-.1.4s-.1.2-.2.3c0 .1-.2.2-.2.3 0 0-.2.2-.3.2-.1 0-.2.1-.3.2-.1 0-.2 0-.4.1h-12c-.1 0-.3 0-.4-.1-.1 0-.2-.1-.3-.2-.1 0-.2-.2-.3-.2 0 0-.2-.2-.2-.3 0-.1-.1-.2-.2-.3 0-.1 0-.2-.1-.4v-9.3-.4c0-.1 0-.3.1-.4 0-.1.1-.2.2-.3 0-.1.2-.2.2-.3 0 0 .2-.2.3-.2.1 0 .2-.1.3-.2.1 0 .2 0 .4-.1h12c.1 0 .3 0 .4.1.1 0 .2.1.3.2.1 0 .2.2.3.2 0 0 .2.2.2.3 0 .1.1.2.2.3 0 .1 0 .2.1.4v.4"/><path class="cls-19" d="M489.8 95.9v9.3c0 .1 0 .3-.1.4s-.1.2-.2.3c0 .1-.2.2-.2.3 0 0-.2.2-.3.2-.1 0-.2.1-.3.2-.1 0-.2 0-.4.1h-12c-.1 0-.3 0-.4-.1-.1 0-.2-.1-.3-.2-.1 0-.2-.2-.3-.2 0 0-.2-.2-.2-.3 0-.1-.1-.2-.2-.3 0-.1 0-.2-.1-.4v-9.3-.4c0-.1 0-.3.1-.4 0-.1.1-.2.2-.3 0-.1.2-.2.2-.3 0 0 .2-.2.3-.2.1 0 .2-.1.3-.2.1 0 .2 0 .4-.1h12c.1 0 .3 0 .4.1.1 0 .2.1.3.2.1 0 .2.2.3.2 0 0 .2.2.2.3 0 .1.1.2.2.3 0 .1 0 .2.1.4v.4"/><path class="cls-25" d="M483.3 97.1c0-.7-.5-1.2-1.1-1.2s-1.1.5-1.1 1.2.5 1.2 1.1 1.2 1.1-.5 1.1-1.2"/><path class="cls-19" d="M483.3 97.1c0-.7-.5-1.2-1.1-1.2s-1.1.5-1.1 1.2.5 1.2 1.1 1.2 1.1-.5 1.1-1.2"/><path class="cls-24" d="M440.3 92.1h15.8v14.6h-15.8z"/><path class="cls-19" d="M440.3 92.1h15.8v14.6h-15.8z"/><path class="cls-25" d="M447 102c0-1.5-1.3-2.8-2.9-2.8s-2.9 1.2-2.9 2.8 1.3 2.8 2.9 2.8 2.9-1.2 2.9-2.8"/><path class="cls-19" d="M447 102c0-1.5-1.3-2.8-2.9-2.8s-2.9 1.2-2.9 2.8 1.3 2.8 2.9 2.8 2.9-1.2 2.9-2.8"/><path class="cls-25" d="M445.3 95.3c0-1.3-1-2.3-2.2-2.3s-2.2 1-2.2 2.3 1 2.3 2.2 2.3 2.2-1 2.2-2.3"/><path class="cls-19" d="M445.3 95.3c0-1.3-1-2.3-2.2-2.3s-2.2 1-2.2 2.3 1 2.3 2.2 2.3 2.2-1 2.2-2.3"/><path class="cls-25" d="M454 102.1c0-1.2-1-2.2-2.3-2.2s-2.3 1-2.3 2.2 1 2.2 2.3 2.2 2.3-1 2.3-2.2"/><path class="cls-19" d="M454 102.1c0-1.2-1-2.2-2.3-2.2s-2.3 1-2.3 2.2 1 2.2 2.3 2.2 2.3-1 2.3-2.2"/><path class="cls-25" d="M454.2 95.7c0-1.6-1.2-2.9-2.8-2.9s-2.8 1.3-2.8 2.9 1.2 2.9 2.8 2.9 2.8-1.3 2.8-2.9"/><path class="cls-19" d="M454.2 95.7c0-1.6-1.2-2.9-2.8-2.9s-2.8 1.3-2.8 2.9 1.2 2.9 2.8 2.9 2.8-1.3 2.8-2.9"/><path class="cls-2" d="M543.7 100.9h-113"/><path class="cls-19" d="M431.2 100.9h-.5M508.2 107.7h17v.5h-17zM508.2 92.3h.7v15.4h-.7zM524.8 92.3h.5v15.4h-.5zM507.7 90.9h.5v17.3h-.5zM508.2 91.8h17v.5h-17zM525.3 107.7h17v.5h-17zM525.3 92.3h.5v15.4h-.5zM541.8 92.3h.5v15.4h-.5zM525.3 91.8h17v.5h-17zM542.3 91.8h.5v16.3h-.5zM542.8 100.2h1v.7h-1z"/><path class="cls-25" d="M425.4 96.1l4.1 4.4V90.4l-4.1-5.1v10.8"/><path class="cls-18" d="M425.7 89.4l1.6-1.9M425.7 93.5l3.6-3.6M426.4 97.1l3.3-3.4M428.5 99.3l1.2-1.2"/><path class="cls-25" d="M425.4 96.1l4.1 4.4V90.4l-4.1-5.1v10.8"/><path class="cls-18" d="M425.7 89.4l1.6-1.9M425.7 93.5l3.6-3.6M426.4 97.1l3.3-3.4M428.5 99.3l1.2-1.2"/><path class="cls-20" d="M425.4 85.3v10.8M429.5 90.4v10.1M429.5 90.4v10.1M425.4 85.3v10.8"/><path class="cls-25" d="M543.7 100.5l4.4-4.4V85.3l-4.4 5.1v10.1"/><path class="cls-18" d="M546.1 87.7l2.2-2.1M544 94.2l4.3-4.3M544 98.5l4.3-4.3"/><path class="cls-25" d="M543.7 100.5l4.4-4.4V85.3l-4.4 5.1v10.1"/><path class="cls-18" d="M546.1 87.7l2.2-2.1M544 94.2l4.3-4.3M544 98.5l4.3-4.3"/><path class="cls-20" d="M543.7 90.4v10.1M548.1 85.3v10.8M548.1 85.3v10.8M543.7 90.4v10.1"/><path class="cls-25" d="M548.1 96.1l-4.4 4.4h45.6v-4.4h-41.2"/><path class="cls-18" d="M546.1 100.5l4.4-4.4M550.5 100.5l4.3-4.4M554.5 100.5l4.4-4.4M558.9 100.5l4.3-4.4M563.2 100.5l4.3-4.4M567.5 100.5l4.3-4.4M571.6 100.5l4.3-4.4M575.9 100.5l4.3-4.4M580.2 100.5l4.3-4.4M584.3 100.5l4.3-4.4M588.6 100.5l1-.8"/><path class="cls-25" d="M548.1 96.1l-4.4 4.4h45.6v-4.4h-41.2"/><path class="cls-18" d="M546.1 100.5l4.4-4.4M550.5 100.5l4.3-4.4M554.5 100.5l4.4-4.4M558.9 100.5l4.3-4.4M563.2 100.5l4.3-4.4M567.5 100.5l4.3-4.4M571.6 100.5l4.3-4.4M575.9 100.5l4.3-4.4M580.2 100.5l4.3-4.4M584.3 100.5l4.3-4.4M588.6 100.5l1-.8"/><path class="cls-20" d="M589.3 96.1h-41.2M589.3 100.5h-45.6M589.3 100.5h-45.6M589.3 96.1h-41.2M615.5 96.1v4.4"/><path class="cls-19" d="M613.8 96.1v4.4M591 96.1v4.4"/><path class="cls-20" d="M615.5 96.1v4.4M589.3 96.1v4.4"/><path class="cls-18" d="M613.7 96.2c0-12.4-10.2-22.7-22.7-22.7M591 96.1V73.6"/><path class="cls-19" d="M276.6 100.2h17v.7h-17z"/><path class="cls-19" d="M292.9 84.9h.7v15.4h-.7zM276.6 84.9h.5v15.4h-.5zM276.6 84.4h17v.5h-17zM259.6 100.2h17v.7h-17z"/><path class="cls-19" d="M275.9 84.9h.7v15.4h-.7zM259.6 84.9h.5v15.4h-.5zM259.6 84.4h17v.5h-17zM242.5 100.2h17v.7h-17zM258.9 89.2h.7v11h-.7zM242.5 89.2h.5v11h-.5zM242.5 88.7h17v.5h-17zM293.7 100.2h1v.7h-1zM241.3 100.2h1.2v.7h-1.2z"/><path class="cls-24" d="M246.1 86.5h9.8v2.6h-9.8z"/><path class="cls-19" d="M246.1 86.5h9.8v2.6h-9.8z"/><path class="cls-24" d="M245.9 89.2h10.3v.2h-10.3z"/><path class="cls-19" d="M245.9 89.2h10.3v.2h-10.3z"/><path class="cls-21" d="M246.9 89.4v8.4"/><path class="cls-4" d="M255.3 89.4l-.3 1.7-.5 1.4-.7 1.5-.9 1.4-1.5 1-1.4.7-1.5.5-1.6.2"/><path class="cls-19" d="M528.6 240.4l3.4 54.9h73.9l3.4-54.9"/><path class="cls-19" d="M526.9 240.4l3.4 56.6h77.3l3.3-56.6"/><path class="cls-25" d="M140.3 141h-1l-3.3-.9 1.7-2.9 5.5 2.9-2.9.9"/><path class="cls-18" d="M140.5 141l-3.1-3.1M141.3 140.8l1.2-1.2M137.7 140.5l2.1-2.4M183.1 230.7c0-11-9.1-20.1-20.1-20.1M163.1 210.6v19.9"/><path class="cls-6" d="M183 230.5l.5-3.8 1.2-3.8 1.9-3.4 2.4-3.1 3.1-2.4 3.4-1.9 3.8-1.2 3.9-.3"/><path class="cls-15" d="M203.2 210.6v19.9"/><path class="cls-18" d="M351.5 230.7v-1.9c0-.6.2-1.2.3-1.8.1-.6.3-1.2.5-1.8l.6-1.8c.2-.6.5-1.1.8-1.7.3-.5.6-1.1 1-1.6.3-.5.7-1 1.1-1.5.4-.5.8-.9 1.3-1.4.4-.4.9-.9 1.4-1.3.5-.4 1-.8 1.5-1.1.5-.3 1.1-.7 1.6-1 .5-.3 1.1-.6 1.7-.8l1.8-.6c.6-.2 1.2-.3 1.8-.5l1.8-.3h1.9M370.5 211.6v18.9M351.5 230.5v-1.4M351.3 227.7v-.8M351.3 226.9l-.3-.7"/><path class="cls-11" d="M350.8 225.3l-.7-2"/><path class="cls-18" d="M349.6 222.1l-.3-.4M349.3 221.7l-.4-.8"/><path class="cls-16" d="M348.4 220.2l-1.2-1.7"/><path class="cls-18" d="M346.2 217.6l-.2-.3M346 217.3l-.7-.7M344.3 215.7l-1.2-.8"/><path class="cls-14" d="M343.1 214.9l-1.7-.9"/><path class="cls-18" d="M341.4 214l-.7-.5M339.5 213l-1.4-.5M336.6 212.3l-.5-.2M336.1 212.1l-.9-.3M333.7 211.8l-1.2-.2"/><path class="cls-6" d="M332.5 211.6v18.9"/><path class="cls-18" d="M332.5 230.1v.4M436.2 230.6v-1.9c0-.6-.2-1.2-.3-1.8-.1-.6-.3-1.2-.5-1.8l-.6-1.8c-.2-.6-.5-1.1-.8-1.7-.3-.5-.6-1.1-1-1.6-.3-.5-.7-1-1.1-1.5-.4-.5-.8-.9-1.3-1.4-.4-.4-.9-.9-1.4-1.3-.5-.4-1-.8-1.5-1.1-.5-.3-1.1-.7-1.6-1-.5-.3-1.1-.6-1.7-.8l-1.8-.6c-.6-.2-1.2-.3-1.8-.5l-1.8-.3h-1.9M417.3 211.6v18.9M436.2 230.5v-1.4M436.5 227.7l.2-.8M436.7 226.9v-.7"/><path class="cls-12" d="M436.9 225l.8-1.7"/><path class="cls-18" d="M438.1 222.1l.3-.4M438.4 221.7l.5-.8"/><path class="cls-13" d="M439.3 220l1.2-1.5"/><path class="cls-18" d="M441.5 217.3l.2-.2M441.7 217.1l1-.7M443.9 215.4l.7-.5M444.6 214.9l.5-.2"/><path class="cls-10" d="M446.3 214l1.7-1"/><path class="cls-18" d="M448.9 212.8l.8-.3M449.7 212.5l.7-.2"/><path class="cls-12" d="M451.6 212.1l1.7-.3"/><path class="cls-18" d="M454.7 211.6h.5"/><path class="cls-6" d="M455.2 211.6v18.9"/><path class="cls-18" d="M455.2 230.1v.4M599 210.5c-11 0-20.1 9.1-20.1 20.1M598.9 210.6v19.9"/><path class="cls-6" d="M558.6 210.6l4.1.3 3.8 1.2 3.4 1.9 3.1 2.4 2.4 3.1 1.9 3.4 1.2 3.8.3 3.8"/><path class="cls-15" d="M558.6 210.6v19.9"/><path class="cls-18" d="M619.8 47.6h-1.9c-.6 0-1.2-.1-1.9-.2-.6-.1-1.2-.2-1.8-.4l-1.8-.6c-.6-.2-1.1-.5-1.7-.8-.6-.3-1.1-.6-1.6-.9-.5-.3-1-.7-1.5-1.1-.5-.4-1-.8-1.4-1.2-.5-.4-.9-.9-1.3-1.3-.4-.5-.8-1-1.1-1.5-.4-.5-.7-1-1-1.6-.3-.5-.6-1.1-.8-1.7-.3-.6-.5-1.1-.7-1.7-.2-.6-.4-1.2-.5-1.8l-.3-1.8c0-.6-.1-1.2-.1-1.9M600.4 29.2l18.9-.5M619.8 47.7h-1.4M616.9 47.9l-.7.2M616.2 48.1l-.7.3"/><path class="cls-12" d="M614.3 48.6l-1.7.7"/><path class="cls-18" d="M611.4 49.8l-.5.3M610.9 50.1l-.7.4"/><path class="cls-13" d="M609.3 51l-1.5 1.2"/><path class="cls-18" d="M606.9 53.2l-.3.2M606.6 53.4l-.7 1M604.9 55.6l-.7.9"/><path class="cls-22" d="M604.2 56.5l-.9 1.5"/><path class="cls-18" d="M603.3 58l-.5 1.4M602.3 60.6l-.2 1M602.1 61.6l-.3.5"/><path class="cls-12" d="M601.6 63.3l-.3 1.9"/><path class="cls-18" d="M601.3 66.4v.7"/><path class="cls-6" d="M601.3 67.1l19-.5"/><path class="cls-18" d="M619.8 66.6h.5"/><path class="cls-19" d="M319.6 114.1v.8M319.6 114.9v.9M319.6 115.8l-.3.7M319.3 116.5l-.2.5M318.6 118.2l-.2.3M317.7 119.7l-.5.4M317.2 120.1l-.7.5M316.5 120.6l-.5.5M316 121.1l-.5.2M314.3 122.1h-.2M312.6 122.5h-.7M311.9 122.5h-.7M311.2 122.5h-.7M310.5 122.5h-.8M308.5 122.1h-.4M306.9 121.3l-.5-.2M306.4 121.1l-.5-.5M305.9 120.6l-.7-.5M305.2 120.1l-.5-.4M304 118.5l-.3-.3M303.3 117l-.3-.5M303 116.5l-.2-.7M302.8 115.8v-.9M302.8 114.9v-.8M302.8 112.7v-.2M303.3 111v-.2M303.3 110.8l.4-.7M303.7 110.1l.5-.8M304.2 109.3l.5-.7M305.7 107.7h.2M305.9 107.7v-.3M307.1 106.7l.7-.5M307.8 106.2l1-.2M308.8 106l.7-.3M309.5 105.7h.2M311.2 105.7v-.2M311.2 105.5l.2.2M312.9 105.7l.7.3M313.6 106l.9.2M314.5 106.2l.8.5M315.3 106.7h.2M317.9 108.9l.2.4M318.1 109.3l.5.8M318.6 110.1l.5.7M319.1 110.8v.5M319.6 112.7v.2M484.2 8.8h15.6v42.5h-15.6z"/><path class="cls-18" d="M534.6 8.8H580v56.6h-45.4z"/></g><g id="Mbel"><path class="cls-3" d="M424.9 154.9h22.6v50.9h-22.6zM457.5 204.4v-12.7M449 204.4h8.5M457.5 191.7H449M457.5 186.7V174M449 186.7h8.5M457.5 174H449M457.5 169v-12.8M449 169h8.5M457.5 156.2H449M415 204.4v-12.7M423.5 204.4H415M415 191.7h8.5M415 186.7V174M423.5 186.7H415M415 174h8.5M415 169v-12.8M423.5 169H415M415 156.2h8.5M373.8 141.7h15.6v56.6h-15.6zM605.9 202.9l-1.4-56.6 10.8-.2 1.4 56.6-10.8.2zM543 166.2h14.4v28.3H543zM512.2 153.7h19c.1 0 .2.1.3.2s.1.2.2.3v25.5c0 .1-.1.2-.2.3 0 0-.2.1-.3.2h-19v-26.6M508.6 149.2h22.7c.1 0 .2.1.3.2s.1.2.2.3V153.1c0 .1-.1.2-.2.3 0 0-.2.1-.3.2h-23c-.1 0-.2-.1-.3-.2s-.1-.2-.2-.3V150v-.3c0-.1.1-.2.2-.3 0 0 .2-.1.3-.2h.3M512.2 180.3h-4c-.1 0-.2.1-.3.2s-.1.2-.2.3v25.5c0 .1.1.2.2.3 0 0 .2.1.3.2h4M514.5 207v-53.3M512.2 207h19c.1 0 .2-.1.3-.2s.1-.2.2-.3v-25.2-.3c0-.1-.1-.2-.2-.3 0 0-.2-.1-.3-.2h-19v26.6M508.6 211.5h22.7c.1 0 .2-.1.3-.2 0 0 .1-.2.2-.3V207.9v-.3c0-.1-.1-.2-.2-.3 0 0-.2-.1-.3-.2h-23c-.1 0-.2.1-.3.2 0 0-.1.2-.2.3V211c0 .1.1.2.2.3 0 0 .2.1.3.2h.3M512.2 180.3h-4c-.1 0-.2-.1-.3-.2 0 0-.1-.2-.2-.3v-25.2-.3c0-.1.1-.2.2-.3 0 0 .2-.1.3-.2h4M574 121.4c-1.9-3.5-4.1-6.9-6.5-10.1-.6-.8-1.6-1.1-2.5-.9-3.1.8-6 2.4-8.2 4.7-.7.7-.9 1.7-.5 2.6 1.5 3.7 3.4 7.3 5.4 10.7h.1c.7-.1 1.3-.4 1.9-.7 2.9-1.5 5.8-3.2 8.5-4.9.6-.4 1.1-.8 1.6-1.3"/><path class="cls-3" d="M573.8 120.3c.1-.3.2-.7.2-1 0-1.5-.5-3-1.3-4.3-1.1-1.7-2.3-3.4-3.7-4.9-1-1.1-2.1-2-3.3-2.8-.7-.5-1.6-.6-2.4-.3-3.2 1-6.2 2.7-8.7 5-.6.6-1 1.4-.9 2.2 0 1.5.3 2.9.8 4.3.6 2 1.4 3.8 2.4 5.7.7 1.4 1.8 2.5 3.1 3.3.3.2.6.3.9.4M144.6 173.4h15.6v50.9h-15.6zM278.5 141.7h56.6V170h-56.6zM298.5 194.3h7.4v11.5h-7.4zM278.5 177.3h19.9v45.4h-19.9zM144.6 141.7h56.9V170h-56.9zM243.7 194.3h7.7v11.5h-7.7zM251.4 177.3h19.7v45.4h-19.7z"/></g><g id="Text"><path d="M546.9 43.3v.6h-3.8l3-4.8h-2.7v-.6h3.8l-3 4.8h2.7zM548.8 39.2c0 .2-.2.4-.4.4s-.4-.2-.4-.4.2-.4.4-.4.4.2.4.4zm0 4.7h-.6v-3.7h.6v3.7zM550.7 40.2v.5c.3-.4.6-.6 1-.6s.8.2 1 .7c.3-.5.6-.7 1.2-.7s.7.1.9.4c.2.2.2.4.2 1v2.4h-.6v-2.2c0-.4 0-.6-.1-.7-.1-.2-.4-.3-.6-.3-.5 0-.8.4-.8 1v2.2h-.6v-2.2c0-.4 0-.5-.1-.7-.1-.2-.3-.3-.6-.3-.5 0-.9.4-.9 1v2.2h-.6v-3.7h.6zM557 40.2v.5c.3-.4.6-.6 1-.6s.8.2 1 .7c.3-.5.6-.7 1.2-.7s.7.1.9.4c.2.2.2.4.2 1v2.4h-.6v-2.2c0-.4 0-.6-.1-.7-.1-.2-.4-.3-.6-.3-.5 0-.8.4-.8 1v2.2h-.6v-2.2c0-.4 0-.5-.1-.7-.1-.2-.3-.3-.6-.3-.5 0-.9.4-.9 1v2.2h-.6v-3.7h.6zM563.1 42.3c0 .3 0 .5.2.7.2.3.6.5 1 .5s.9-.2 1.1-.6l.5.2c-.3.6-.9 1-1.6 1-1.1 0-1.9-.8-1.9-1.9s.8-1.9 1.9-1.9 1.9.8 1.9 1.9v.2h-3.1zm2.4-.4c0-.3 0-.4-.2-.6-.2-.3-.6-.5-1-.5s-.8.2-1 .5c-.1.2-.2.3-.2.6h2.4zM567.8 40.2v.6c.1-.3.2-.4.3-.5.2-.1.4-.2.7-.2h.1v.6h-.2c-.3 0-.6.2-.8.4-.2.2-.2.4-.2.9v1.9h-.6v-3.7h.6zM543.9 49.3v-.6l1.8-1.2v5.4h-.6v-4.4l-1.2.8zM547.4 48.2v-.6h3l-1.6 2c.9 0 1.6.7 1.6 1.6s-.8 1.7-1.8 1.7-1.4-.5-1.6-1.3h.6c.1.4.5.7 1 .7s1.2-.5 1.2-1.1-.5-1.1-1.2-1.1-.4 0-.6.2l-.3-.2 1.5-1.9h-1.9zM552.3 52.6c0 .2-.2.4-.4.4s-.4-.2-.4-.4.2-.4.4-.4.4.2.4.4zM553.6 48.3v-.6h3l-2.1 5.3h-.7l1.9-4.7h-2zM559.8 49.2v.5c.3-.4.6-.6 1-.6s.8.2 1 .7c.3-.5.6-.7 1.2-.7s.7.1.9.4c.2.2.2.4.2 1v2.4h-.6v-2.2c0-.4 0-.6-.1-.7-.1-.2-.4-.3-.6-.3-.5 0-.8.4-.8 1v2.2h-.6v-2.2c0-.4 0-.5-.1-.7-.1-.2-.3-.3-.6-.3-.5 0-.9.4-.9 1v2.2h-.6v-3.7h.6zM567.4 50.4v.4h-2l1.2-1.6c.3-.5.4-.6.4-.8 0-.3-.2-.4-.5-.4s-.5.2-.5.6h-.4c0-.6.4-1 1-1s1 .3 1 .8-.1.5-.4.9l-.8 1.1h1.1z"/><g><path d="M559.6 261.7c1.1 0 1.7.5 1.7 1.4s-.1.6-.3.9c-.1.2-.3.2-.5.3.3 0 .4.1.6.2.3.2.4.6.4 1s-.2.9-.6 1.2c-.3.2-.7.3-1.3.3h-1.5v-5.3h1.5zm-.8 2.4h.7c.4 0 .7 0 .9-.2.2-.2.3-.4.3-.7s-.2-.6-.4-.8c-.2 0-.4-.1-.9-.1h-.6v1.8zm0 2.4h.7c.6 0 .8 0 1-.2.3-.1.4-.4.4-.8 0-.6-.4-.9-1.2-.9h-.8v1.8zM565.5 263.4h.6v3.7h-.6v-.7c-.4.6-.8.8-1.3.8-1 0-1.7-.8-1.7-1.9s.7-1.9 1.8-1.9 1 .2 1.3.7v-.6zm-2.1.9c-.2.3-.3.6-.3 1 0 .8.5 1.4 1.2 1.4s1.3-.6 1.3-1.4-.5-1.4-1.2-1.4-.7.1-.9.4zM567.4 267.1v-5.3h.6v5.3h-.6zM570 267.1h-.6v-5.3h.6v3.3l1.5-1.6h.8l-1.6 1.8 1.6 1.9h-.8l-1.5-1.6v1.6zM576.4 265.2c0 1.1-.8 1.9-1.9 1.9s-1.9-.8-1.9-1.9.8-1.9 1.9-1.9 1.9.8 1.9 1.9zm-3.1 0c0 .8.5 1.4 1.3 1.4s1.2-.6 1.2-1.4-.5-1.4-1.2-1.4-1.3.6-1.3 1.4zM578.2 263.4v.5c.3-.4.6-.6 1.1-.6s.6.1.9.3c.2.2.3.5.3 1v2.5h-.6v-2.4c0-.3 0-.5-.1-.6-.1-.2-.3-.2-.6-.2s-.5.1-.7.3c-.2.2-.2.4-.2.7v2.2h-.6v-3.7h.6zM559 272.9c.2 0 .3-.1.5-.1.9 0 1.6.7 1.6 1.6s-.8 1.7-1.7 1.7-1.7-.8-1.7-1.7.1-.7.4-1.2l1.5-2.5h.7l-1.4 2.1zm-.7 1.5c0 .6.5 1.1 1.1 1.1s1.1-.5 1.1-1.1-.5-1.1-1.1-1.1-1.1.5-1.1 1.1zM563 275.7c0 .2-.2.4-.4.4s-.4-.2-.4-.4.2-.4.4-.4.4.2.4.4zM567.3 274.5c0 .6-.1 1-.4 1.2-.3.3-.7.4-1.2.4s-1-.2-1.2-.5c-.3-.3-.4-.6-.4-1.4v-1.8c0-.7 0-1 .3-1.3.3-.3.7-.5 1.2-.5s.9.1 1.2.4c.3.3.4.6.4 1.2v2.1zm-2.5-.1c0 .6 0 .7.2.9.2.2.5.3.8.3s.6-.1.8-.4c.1-.2.2-.4.2-.8v-2c0-.4 0-.6-.3-.8-.2-.2-.4-.2-.7-.2s-.6.1-.8.4c-.1.2-.2.4-.2.8v1.8zM571.5 272.4v.5c.3-.4.6-.6 1-.6s.8.2 1 .7c.3-.5.6-.7 1.2-.7s.7.1.9.4c.2.2.2.4.2 1v2.4h-.6v-2.2c0-.4 0-.6-.1-.7-.1-.2-.4-.3-.6-.3-.5 0-.8.4-.8 1v2.2h-.6v-2.2c0-.4 0-.5-.1-.7-.1-.2-.3-.3-.6-.3-.5 0-.9.4-.9 1v2.2h-.6v-3.7h.6zM579 273.6v.4h-2l1.2-1.6c.3-.5.4-.6.4-.8 0-.3-.2-.4-.5-.4s-.5.2-.5.6h-.4c0-.6.4-1 1-1s1 .3 1 .8-.1.5-.4.9l-.8 1.1h1.1z"/></g><g><path d="M193.6 184v.6h-3.8l3-4.8h-2.7v-.6h3.8l-3 4.8h2.7zM195.4 179.9c0 .2-.2.4-.4.4s-.4-.2-.4-.4.2-.4.4-.4.4.2.4.4zm0 4.7h-.6v-3.7h.6v3.7zM197.3 180.9v.5c.3-.4.6-.6 1-.6s.8.2 1 .7c.3-.5.6-.7 1.2-.7s.7.1.9.4c.2.2.2.4.2 1v2.4h-.6v-2.2c0-.4 0-.6-.1-.7-.1-.2-.4-.3-.6-.3-.5 0-.8.4-.8 1v2.2h-.6v-2.2c0-.4 0-.5-.1-.7-.1-.2-.3-.3-.6-.3-.5 0-.9.4-.9 1v2.2h-.6v-3.7h.6zM203.6 180.9v.5c.3-.4.6-.6 1-.6s.8.2 1 .7c.3-.5.6-.7 1.2-.7s.7.1.9.4c.2.2.2.4.2 1v2.4h-.6v-2.2c0-.4 0-.6-.1-.7-.1-.2-.4-.3-.6-.3-.5 0-.8.4-.8 1v2.2h-.6v-2.2c0-.4 0-.5-.1-.7-.1-.2-.3-.3-.6-.3-.5 0-.9.4-.9 1v2.2h-.6v-3.7h.6zM209.7 182.9c0 .3 0 .5.2.7.2.3.6.5 1 .5s.9-.2 1.1-.6l.5.2c-.3.6-.9 1-1.6 1-1.1 0-1.9-.8-1.9-1.9s.8-1.9 1.9-1.9 1.9.8 1.9 1.9v.2h-3.1zm2.4-.4c0-.3 0-.4-.2-.6-.2-.3-.6-.5-1-.5s-.8.2-1 .5c-.1.2-.2.3-.2.6h2.4zM214.5 180.9v.6c.1-.3.2-.4.3-.5.2-.1.4-.2.7-.2h.1v.6h-.2c-.3 0-.6.2-.8.4-.2.2-.2.4-.2.9v1.9h-.6v-3.7h.6zM190.6 190v-.6l1.8-1.2v5.4h-.6v-4.4l-1.2.8zM193.8 192.4v-.5l2.8-3.7v3.6h.6v.6h-.6v1.2h-.6v-1.2h-2.1zm2.1-2.6l-1.5 2h1.5v-2zM199 193.2c0 .2-.2.4-.4.4s-.4-.2-.4-.4.2-.4.4-.4.4.2.4.4zM203.3 192c0 .6-.1 1-.4 1.2-.3.3-.7.4-1.2.4s-1-.2-1.2-.5c-.3-.3-.4-.6-.4-1.4v-1.8c0-.7 0-1 .3-1.3.3-.3.7-.5 1.2-.5s.9.1 1.2.4c.3.3.4.6.4 1.2v2.1zm-2.5-.1c0 .6 0 .7.2.9.2.2.5.3.8.3s.6-.1.8-.4c.1-.2.2-.4.2-.8v-2c0-.4 0-.6-.3-.8-.2-.2-.4-.2-.7-.2s-.6.1-.8.4c-.1.2-.2.4-.2.8v1.8zM206.6 189.9v.5c.3-.4.6-.6 1-.6s.8.2 1 .7c.3-.5.6-.7 1.2-.7s.7.1.9.4c.2.2.2.4.2 1v2.4h-.6v-2.2c0-.4 0-.6-.1-.7-.1-.2-.4-.3-.6-.3-.5 0-.8.4-.8 1v2.2h-.6v-2.2c0-.4 0-.5-.1-.7-.1-.2-.3-.3-.6-.3-.5 0-.9.4-.9 1v2.2h-.6v-3.7h.6zM214.2 191.1v.4h-2l1.2-1.6c.3-.5.4-.6.4-.8 0-.3-.2-.4-.5-.4s-.5.2-.5.6h-.4c0-.6.4-1 1-1s1 .3 1 .8-.1.5-.4.9l-.8 1.1h1.1z"/></g><g><path d="M327 184v.6h-3.8l3-4.8h-2.7v-.6h3.8l-3 4.8h2.7zM328.8 179.9c0 .2-.2.4-.4.4s-.4-.2-.4-.4.2-.4.4-.4.4.2.4.4zm0 4.7h-.6v-3.7h.6v3.7zM330.7 180.9v.5c.3-.4.6-.6 1-.6s.8.2 1 .7c.3-.5.6-.7 1.2-.7s.7.1.9.4c.2.2.2.4.2 1v2.4h-.6v-2.2c0-.4 0-.6-.1-.7-.1-.2-.4-.3-.6-.3-.5 0-.8.4-.8 1v2.2h-.6v-2.2c0-.4 0-.5-.1-.7-.1-.2-.3-.3-.6-.3-.5 0-.9.4-.9 1v2.2h-.6v-3.7h.6zM337 180.9v.5c.3-.4.6-.6 1-.6s.8.2 1 .7c.3-.5.6-.7 1.2-.7s.7.1.9.4c.2.2.2.4.2 1v2.4h-.6v-2.2c0-.4 0-.6-.1-.7-.1-.2-.4-.3-.6-.3-.5 0-.8.4-.8 1v2.2h-.6v-2.2c0-.4 0-.5-.1-.7-.1-.2-.3-.3-.6-.3-.5 0-.9.4-.9 1v2.2h-.6v-3.7h.6zM343.1 182.9c0 .3 0 .5.2.7.2.3.6.5 1 .5s.9-.2 1.1-.6l.5.2c-.3.6-.9 1-1.6 1-1.1 0-1.9-.8-1.9-1.9s.8-1.9 1.9-1.9 1.9.8 1.9 1.9v.2h-3.1zm2.4-.4c0-.3 0-.4-.2-.6-.2-.3-.6-.5-1-.5s-.8.2-1 .5c-.1.2-.2.3-.2.6h2.4zM347.8 180.9v.6c.1-.3.2-.4.3-.5.2-.1.4-.2.7-.2h.1v.6h-.2c-.3 0-.6.2-.8.4-.2.2-.2.4-.2.9v1.9h-.6v-3.7h.6zM323.9 190v-.6l1.8-1.2v5.4h-.6v-4.4l-1.2.8zM330.2 193v.6h-3l1.9-2.7c.5-.8.7-1 .7-1.3 0-.5-.4-.8-.9-.8s-.7.2-.8.4v.6h-.6c0-1 .6-1.6 1.5-1.6s1.5.5 1.5 1.3-.2.8-.6 1.5l-1.4 2h1.9zM332.2 193.2c0 .2-.2.4-.4.4s-.4-.2-.4-.4.2-.4.4-.4.4.2.4.4zM333.6 188.9v-.6h3l-1.6 2c.9 0 1.6.7 1.6 1.6s-.8 1.7-1.8 1.7-1.4-.5-1.6-1.3h.6c.1.4.5.7 1 .7s1.2-.5 1.2-1.1-.5-1.1-1.2-1.1-.4 0-.6.2l-.3-.2 1.5-1.9h-1.9zM339.9 189.9v.5c.3-.4.6-.6 1-.6s.8.2 1 .7c.3-.5.6-.7 1.2-.7s.7.1.9.4c.2.2.2.4.2 1v2.4h-.6v-2.2c0-.4 0-.6-.1-.7-.1-.2-.4-.3-.6-.3-.5 0-.8.4-.8 1v2.2h-.6v-2.2c0-.4 0-.5-.1-.7-.1-.2-.3-.3-.6-.3-.5 0-.9.4-.9 1v2.2h-.6v-3.7h.6zM347.5 191.1v.4h-2l1.2-1.6c.3-.5.4-.6.4-.8 0-.3-.2-.4-.5-.4s-.5.2-.5.6h-.4c0-.6.4-1 1-1s1 .3 1 .8-.1.5-.4.9l-.8 1.1h1.1z"/></g><g><path d="M378.8 61.6c1.1 0 1.7.5 1.7 1.4s-.1.6-.3.9c-.1.2-.3.2-.5.3.3 0 .4.1.6.2.3.2.4.6.4 1s-.2.9-.6 1.2c-.3.2-.7.3-1.3.3h-1.5v-5.3h1.5zM378 64h.7c.4 0 .7 0 .9-.2.2-.2.3-.4.3-.7s-.2-.6-.4-.8c-.2 0-.4-.1-.9-.1h-.6V64zm0 2.4h.7c.6 0 .8 0 1-.2.3-.1.4-.4.4-.8 0-.6-.4-.9-1.2-.9h-.8v1.8zM384.6 63.2h.6v3.7h-.6v-.7c-.4.6-.8.8-1.3.8-1 0-1.7-.8-1.7-1.9s.7-1.9 1.8-1.9 1 .2 1.3.7v-.6zm-2.1.9c-.2.3-.3.6-.3 1 0 .8.5 1.4 1.2 1.4s1.3-.6 1.3-1.4-.5-1.4-1.2-1.4-.7.1-.9.4zM389.4 61.6h.6v5.3h-.6v-.6c-.4.5-.8.7-1.3.7-1 0-1.7-.8-1.7-1.9s.7-2 1.7-2 1 .2 1.3.6v-2.2zm-2.4 3.5c0 .8.5 1.4 1.2 1.4s1.2-.6 1.2-1.4-.5-1.4-1.2-1.4-1.2.6-1.2 1.4zM376.9 74.7v-.5l2.8-3.7v3.6h.6v.6h-.6v1.2h-.6v-1.2H377zm2.1-2.6l-1.5 2h1.5v-2zM382.1 75.6c0 .2-.2.4-.4.4s-.4-.2-.4-.4.2-.4.4-.4.4.2.4.4zM383 72.3v-.6l1.8-1.2v5.4h-.6v-4.4l-1.2.8zM389.1 72.2v.5c.3-.4.6-.6 1-.6s.8.2 1 .7c.3-.5.6-.7 1.2-.7s.7.1.9.4c.2.2.2.4.2 1v2.4h-.6v-2.2c0-.4 0-.6-.1-.7-.1-.2-.4-.3-.6-.3-.5 0-.8.4-.8 1v2.2h-.6v-2.2c0-.4 0-.5-.1-.7-.1-.2-.3-.3-.6-.3-.5 0-.9.4-.9 1v2.2h-.6v-3.7h.6zM396.7 73.4v.4h-2l1.2-1.6c.3-.5.4-.6.4-.8 0-.3-.2-.4-.5-.4s-.5.2-.5.6h-.4c0-.6.4-1 1-1s1 .3 1 .8-.1.5-.4.9l-.8 1.1h1.1z"/></g><g><path d="M448.2 61.6h1.4c1.6 0 2.6 1 2.6 2.6s-.3 1.6-.8 2.1c-.5.4-1.1.6-1.9.6h-1.3v-5.3zm.7 4.8h.2c.9 0 1.3 0 1.7-.4.5-.4.7-1 .7-1.8 0-1.3-.7-2-1.9-2h-.7v4.2zM456.1 63.2v2.4c0 .5 0 .8-.4 1-.3.2-.6.4-1.1.4s-.8-.1-1.1-.4c-.2-.2-.4-.6-.4-1v-2.4h.6v2.3c0 .5.3.9.8.9s.5-.1.7-.3c.1-.1.2-.3.2-.6v-2.4h.6zM459.2 64.2c0-.4-.3-.6-.7-.6s-.7.2-.7.5.2.4.8.6c.5.1.7.2.9.4.2.2.3.4.3.7 0 .6-.5 1.1-1.3 1.1s-1.3-.4-1.4-1.1h.6c0 .4.3.6.8.6s.7-.2.7-.5-.2-.5-.8-.6c-.8-.2-1.2-.6-1.2-1.1s.5-1.1 1.3-1.1 1.3.4 1.3 1.1h-.6zM463.8 66.5c-.4.4-.8.5-1.4.5-1.1 0-1.8-.8-1.8-1.9s.8-1.9 1.8-1.9 1 .2 1.3.6l-.4.4c-.3-.3-.6-.4-.9-.4-.7 0-1.2.6-1.2 1.4s.5 1.4 1.2 1.4.6-.1.9-.4l.4.4zM465.4 63.8c.3-.4.7-.6 1.1-.6s.7.1.9.3c.2.2.3.5.3 1V67h-.6v-2.4c0-.5-.2-.8-.7-.8s-.5.1-.7.3c-.2.2-.2.4-.2.7V67h-.6v-5.3h.6v2.2zM469.4 65.3c0 .3 0 .5.2.7.2.3.6.5 1 .5s.9-.2 1.1-.6l.5.2c-.3.6-.9 1-1.6 1-1.1 0-1.9-.8-1.9-1.9s.8-1.9 1.9-1.9 1.9.8 1.9 1.9v.2h-3.1zm2.4-.4c0-.3 0-.4-.2-.6-.2-.3-.6-.5-1-.5s-.8.2-1 .5c-.1.2-.2.3-.2.6h2.4zM448.1 71.2v-.6h3l-1.6 2c.9 0 1.6.7 1.6 1.6s-.8 1.7-1.8 1.7-1.4-.5-1.6-1.3h.6c.1.4.5.7 1 .7s1.2-.5 1.2-1.1-.5-1.1-1.2-1.1-.4 0-.6.2l-.3-.2 1.5-1.9H448zM453 75.6c0 .2-.2.4-.4.4s-.4-.2-.4-.4.2-.4.4-.4.4.2.4.4zM454.2 71.3v-.6h3l-2.1 5.3h-.7l1.9-4.7h-2zM460.5 72.2v.5c.3-.4.6-.6 1-.6s.8.2 1 .7c.3-.5.6-.7 1.2-.7s.7.1.9.4c.2.2.2.4.2 1v2.4h-.6v-2.2c0-.4 0-.6-.1-.7-.1-.2-.4-.3-.6-.3-.5 0-.8.4-.8 1v2.2h-.6v-2.2c0-.4 0-.5-.1-.7-.1-.2-.3-.3-.6-.3-.5 0-.9.4-.9 1v2.2h-.6v-3.7h.6zM468.1 73.4v.4h-2l1.2-1.6c.3-.5.4-.6.4-.8 0-.3-.2-.4-.5-.4s-.5.2-.5.6h-.4c0-.6.4-1 1-1s1 .3 1 .8-.1.5-.4.9l-.8 1.1h1.1z"/></g><g><path d="M476.6 151.4h-.7v-5.3h.7v2.5l2.1-2.5h.8l-2.2 2.6 2.2 2.7h-.9l-2-2.5v2.5zM483.6 149.6c0 1.1-.8 1.9-1.9 1.9s-1.9-.8-1.9-1.9.8-1.9 1.9-1.9 1.9.8 1.9 1.9zm-3.1 0c0 .8.5 1.4 1.3 1.4s1.2-.6 1.2-1.4-.5-1.4-1.2-1.4-1.3.6-1.3 1.4zM487.7 151c-.4.4-.8.5-1.4.5-1.1 0-1.8-.8-1.8-1.9s.8-1.9 1.8-1.9 1 .2 1.3.6l-.4.4c-.3-.3-.6-.4-.9-.4-.7 0-1.2.6-1.2 1.4s.5 1.4 1.2 1.4.6-.1.9-.4l.4.4zM489.2 148.3c.3-.4.7-.6 1.1-.6s.7.1.9.3c.2.2.3.5.3 1v2.5h-.6v-2.4c0-.5-.2-.8-.7-.8s-.5.1-.7.3c-.2.2-.2.4-.2.7v2.2h-.6v-5.3h.6v2.2zM493.2 149.8c0 .3 0 .5.2.7.2.3.6.5 1 .5s.9-.2 1.1-.6l.5.2c-.3.6-.9 1-1.6 1-1.1 0-1.9-.8-1.9-1.9s.8-1.9 1.9-1.9 1.9.8 1.9 1.9v.2h-3.1zm2.4-.4c0-.3 0-.4-.2-.6-.2-.3-.6-.5-1-.5s-.8.2-1 .5c-.1.2-.2.3-.2.6h2.4zM497.9 147.7v.5c.3-.4.6-.6 1.1-.6s.6.1.9.3c.2.2.3.5.3 1v2.5h-.6V149c0-.3 0-.5-.1-.6-.1-.2-.3-.2-.6-.2s-.5.1-.7.3c-.2.2-.2.4-.2.7v2.2h-.6v-3.7h.6zM501.5 152.7h-.4l.7-2.1.6.2-.8 1.9zM506.6 148.5h2.1v.6h-2.1v1.8h2.1v.6h-2.8v-5.3h2.8v.6h-2.1v1.8zM511.6 148.7c0-.4-.3-.6-.7-.6s-.7.2-.7.5.2.4.8.6c.5.1.7.2.9.4.2.2.3.4.3.7 0 .6-.5 1.1-1.3 1.1s-1.3-.4-1.4-1.1h.6c0 .4.3.6.8.6s.7-.2.7-.5-.2-.5-.8-.6c-.8-.2-1.2-.6-1.2-1.1s.5-1.1 1.3-1.1 1.3.4 1.3 1.1h-.6zM515.2 148.7c0-.4-.3-.6-.7-.6s-.7.2-.7.5.2.4.8.6c.5.1.7.2.9.4.2.2.3.4.3.7 0 .6-.5 1.1-1.3 1.1s-1.3-.4-1.4-1.1h.6c0 .4.3.6.8.6s.7-.2.7-.5-.2-.5-.8-.6c-.8-.2-1.2-.6-1.2-1.1s.5-1.1 1.3-1.1 1.3.4 1.3 1.1h-.6zM517.3 149.8c0 .3 0 .5.2.7.2.3.6.5 1 .5s.9-.2 1.1-.6l.5.2c-.3.6-.9 1-1.6 1-1.1 0-1.9-.8-1.9-1.9s.8-1.9 1.9-1.9 1.9.8 1.9 1.9v.2h-3.1zm2.4-.4c0-.3 0-.4-.2-.6-.2-.3-.6-.5-1-.5s-.8.2-1 .5c-.1.2-.2.3-.2.6h2.4zM522.1 147.7v.5c.3-.4.6-.6 1.1-.6s.6.1.9.3c.2.2.3.5.3 1v2.5h-.6V149c0-.3 0-.5-.1-.6-.1-.2-.3-.2-.6-.2s-.5.1-.7.3c-.2.2-.2.4-.2.7v2.2h-.6v-3.7h.6zM525.6 152.7h-.4l.7-2.1.6.2-.8 1.9zM481.4 155.1h.7l-1.6 5.3h-.6l-1.2-4.2-1.2 4.2h-.6l-1.6-5.3h.7l1.2 4.1 1.2-4.1h.6l1.1 4.1 1.2-4.1zM486.2 158.6c0 1.1-.8 1.9-1.9 1.9s-1.9-.8-1.9-1.9.8-1.9 1.9-1.9 1.9.8 1.9 1.9zm-3.1 0c0 .8.5 1.4 1.3 1.4s1.2-.6 1.2-1.4-.5-1.4-1.2-1.4-1.3.6-1.3 1.4zM488 157.3c.3-.4.7-.6 1.1-.6s.7.1.9.3c.2.2.3.5.3 1v2.5h-.6v-2.4c0-.5-.2-.8-.7-.8s-.5.1-.7.3c-.2.2-.2.4-.2.7v2.2h-.6v-5.3h.6v2.2zM492.2 156.7v.5c.3-.4.6-.6 1.1-.6s.6.1.9.3c.2.2.3.5.3 1v2.5h-.6V158c0-.3 0-.5-.1-.6-.1-.2-.3-.2-.6-.2s-.5.1-.7.3c-.2.2-.2.4-.2.7v2.2h-.6v-3.7h.6zM496.2 158.8c0 .3 0 .5.2.7.2.3.6.5 1 .5s.9-.2 1.1-.6l.5.2c-.3.6-.9 1-1.6 1-1.1 0-1.9-.8-1.9-1.9s.8-1.9 1.9-1.9 1.9.8 1.9 1.9v.2h-3.1zm2.4-.4c0-.3 0-.4-.2-.6-.2-.3-.6-.5-1-.5s-.8.2-1 .5c-.1.2-.2.3-.2.6h2.4zM500.9 156.7v.5c.3-.4.6-.6 1.1-.6s.6.1.9.3c.2.2.3.5.3 1v2.5h-.6V158c0-.3 0-.5-.1-.6-.1-.2-.3-.2-.6-.2s-.5.1-.7.3c-.2.2-.2.4-.2.7v2.2h-.6v-3.7h.6zM475.9 164.7v-.6h3l-1.6 2c.9 0 1.6.7 1.6 1.6s-.8 1.7-1.8 1.7-1.4-.5-1.6-1.3h.6c.1.4.5.7 1 .7s1.2-.5 1.2-1.1-.5-1.1-1.2-1.1-.4 0-.6.2l-.3-.2 1.5-1.9h-1.9zM481.1 166.3c.2 0 .3-.1.5-.1.9 0 1.6.7 1.6 1.6s-.8 1.7-1.7 1.7-1.7-.8-1.7-1.7.1-.7.4-1.2l1.5-2.5h.7l-1.4 2.1zm-.7 1.5c0 .6.5 1.1 1.1 1.1s1.1-.5 1.1-1.1-.5-1.1-1.1-1.1-1.1.5-1.1 1.1zM485.1 169.1c0 .2-.2.4-.4.4s-.4-.2-.4-.4.2-.4.4-.4.4.2.4.4zM486 168.2v-.5l2.8-3.7v3.6h.6v.6h-.6v1.2h-.6v-1.2h-2.1zm2.1-2.6l-1.5 2h1.5v-2zM493.4 165.7v.5c.3-.4.6-.6 1-.6s.8.2 1 .7c.3-.5.6-.7 1.2-.7s.7.1.9.4c.2.2.2.4.2 1v2.4h-.6v-2.2c0-.4 0-.6-.1-.7-.1-.2-.4-.3-.6-.3-.5 0-.8.4-.8 1v2.2h-.6v-2.2c0-.4 0-.5-.1-.7-.1-.2-.3-.3-.6-.3-.5 0-.9.4-.9 1v2.2h-.6v-3.7h.6zM501 166.9v.4h-2l1.2-1.6c.3-.5.4-.6.4-.8 0-.3-.2-.4-.5-.4s-.5.2-.5.6h-.4c0-.6.4-1 1-1s1 .3 1 .8-.1.5-.4.9l-.8 1.1h1.1z"/></g><g><path d="M170.6 64.5v.6h-2.5v-5.3h.7v4.7h1.9zM172.2 60.4c0 .2-.2.4-.4.4s-.4-.2-.4-.4.2-.4.4-.4.4.2.4.4zm0 4.7h-.6v-3.7h.6v3.7zM174.2 65.1h-.6v-3.2h-.5v-.5h.5v-.5c0-.7.4-1.2 1-1.2h.2v.5c-.4 0-.6.2-.6.6v.5h.6v.5h-.6V65zM176.6 64.4c0 .2 0 .2.3.2h.3v.5h-.6c-.4 0-.6-.2-.6-.6v-2.6h-.5v-.5h.5v-1.2h.6v1.2h.6v.5h-.6v2.4z"/></g><g><path d="M296.1 113.6h2.1v.6h-2.1v1.8h2.1v.6h-2.8v-5.3h2.8v.6h-2.1v1.8zM300 112.8v.5c.3-.4.6-.6 1.1-.6s.6.1.9.3c.2.2.3.5.3 1v2.5h-.6v-2.4c0-.3 0-.5-.1-.6-.1-.2-.3-.2-.6-.2s-.5.1-.7.3c-.2.2-.2.4-.2.7v2.2h-.6v-3.7h.6zM304.2 115.8c0 .2 0 .2.3.2h.3v.5h-.6c-.4 0-.6-.2-.6-.6v-2.6h-.5v-.5h.5v-1.2h.6v1.2h.6v.5h-.6v2.4zM306.4 112.8v.6c.1-.3.2-.4.3-.5.2-.1.4-.2.7-.2h.1v.6h-.2c-.3 0-.6.2-.8.4-.2.2-.2.4-.2.9v1.9h-.6v-3.7h.6zM308.9 114.9c0 .3 0 .5.2.7.2.3.6.5 1 .5s.9-.2 1.1-.6l.5.2c-.3.6-.9 1-1.6 1-1.1 0-1.9-.8-1.9-1.9s.8-1.9 1.9-1.9 1.9.8 1.9 1.9v.2h-3.1zm2.4-.4c0-.3 0-.4-.2-.6-.2-.3-.6-.5-1-.5s-.8.2-1 .5c-.1.2-.2.3-.2.6h2.4zm-.2-3.2l-.9 1.1h-.4l.7-1.1h.7zM313.4 114.9c0 .3 0 .5.2.7.2.3.6.5 1 .5s.9-.2 1.1-.6l.5.2c-.3.6-.9 1-1.6 1-1.1 0-1.9-.8-1.9-1.9s.8-1.9 1.9-1.9 1.9.8 1.9 1.9v.2h-3.1zm2.4-.4c0-.3 0-.4-.2-.6-.2-.3-.6-.5-1-.5s-.8.2-1 .5c-.1.2-.2.3-.2.6h2.4zM295.5 120.9v-.6h3l-2.1 5.3h-.7l1.9-4.7h-2zM299.6 125.2c0 .2-.2.4-.4.4s-.4-.2-.4-.4.2-.4.4-.4.4.2.4.4zM300.8 120.9v-.6h3l-2.1 5.3h-.7l1.9-4.7h-2zM307.9 121.8v.5c.3-.4.6-.6 1-.6s.8.2 1 .7c.3-.5.6-.7 1.2-.7s.7.1.9.4c.2.2.2.4.2 1v2.4h-.6v-2.2c0-.4 0-.6-.1-.7-.1-.2-.4-.3-.6-.3-.5 0-.8.4-.8 1v2.2h-.6v-2.2c0-.4 0-.5-.1-.7-.1-.2-.3-.3-.6-.3-.5 0-.9.4-.9 1v2.2h-.6v-3.7h.6zM315.5 123v.4h-2l1.2-1.6c.3-.5.4-.6.4-.8 0-.3-.2-.4-.5-.4s-.5.2-.5.6h-.4c0-.6.4-1 1-1s1 .3 1 .8-.1.5-.4.9l-.8 1.1h1.1z"/></g></g></svg>