<svg xmlns="http://www.w3.org/2000/svg" viewBox="0 0 677.1 282.7"><defs><style>.cls-1,.cls-10,.cls-11,.cls-12,.cls-13,.cls-14,.cls-15,.cls-16,.cls-17,.cls-18,.cls-19,.cls-2,.cls-20,.cls-21,.cls-22,.cls-23,.cls-3,.cls-4,.cls-5,.cls-6,.cls-7,.cls-8,.cls-9{fill:none}.cls-1,.cls-10,.cls-11,.cls-12,.cls-13,.cls-14,.cls-15,.cls-16,.cls-17,.cls-18,.cls-19,.cls-2,.cls-20,.cls-21,.cls-22,.cls-23,.cls-3,.cls-4,.cls-5,.cls-6,.cls-8,.cls-9{stroke-linecap:round;stroke-linejoin:round}.cls-1,.cls-10,.cls-11,.cls-12,.cls-13,.cls-14,.cls-15,.cls-16,.cls-17,.cls-18,.cls-19,.cls-2,.cls-20,.cls-22,.cls-23,.cls-3,.cls-4,.cls-5,.cls-9{stroke-width:.1px}.cls-1,.cls-10,.cls-11,.cls-17,.cls-20,.cls-21,.cls-22,.cls-3,.cls-4,.cls-9{stroke:#194164}.cls-1,.cls-10,.cls-11,.cls-9{stroke-dasharray:0 0 0 0 2.9 1.4 .2 1.4}.cls-2{stroke:#646464}.cls-12,.cls-13,.cls-14,.cls-15,.cls-16,.cls-17,.cls-18,.cls-22,.cls-23,.cls-3,.cls-4,.cls-5{stroke-dasharray:0 0 1.4 1.4}.cls-24{clip-path:url(#clippath)}.cls-4{stroke-dashoffset:1px}.cls-25,.cls-26{fill:#fff}.cls-12,.cls-13,.cls-14,.cls-15,.cls-16,.cls-18,.cls-19,.cls-23,.cls-5{stroke:#969696}.cls-6{stroke:#000;stroke-width:.3px}.cls-7{clip-rule:evenodd}.cls-8{stroke:#b8b8b8;stroke-width:0}.cls-27{clip-path:url(#clippath-1)}.cls-9{stroke-dashoffset:4.3px}.cls-10{stroke-dashoffset:1.7px}.cls-11{stroke-dashoffset:1.9px}.cls-12{stroke-dashoffset:2.7px}.cls-13{stroke-dashoffset:2.5px}.cls-14{stroke-dashoffset:1.4px}.cls-15,.cls-22{stroke-dashoffset:.7px}.cls-26{fill-rule:evenodd}.cls-16{stroke-dashoffset:2.3px}.cls-17{stroke-dashoffset:.2px}.cls-18{stroke-dashoffset:1px}.cls-21{stroke-width:.3px}.cls-23{stroke-dashoffset:1.2px}</style><clipPath id="clippath"><path class="cls-7" d="M145.4 174.1v-7H9v7h136.4"/></clipPath><clipPath id="clippath-1"><path class="cls-7" d="M145.4 174.1v-7H9v7h136.4"/></clipPath></defs><g id="Plan"><path class="cls-21" d="M163.9 184.4h29.8v39.8h-29.8z"/><path class="cls-20" d="M195.3 233.1H160M177.1 230H191M164.3 227.1h14M392.1 158.7h16.3"/><path class="cls-6" d="M391.4 158h17"/><path class="cls-20" d="M393.5 160.2h14.9M392.1 158.7h16.3"/><path class="cls-6" d="M408.4 158.7v-.7"/><path class="cls-20" d="M408.4 160.2v-1.5M391.4 158h17M393.5 160.2h14.9M392.1 164.5v-5.8"/><path class="cls-6" d="M391.4 164.5V158"/><path class="cls-20" d="M393.5 164.5v-4.3M392.1 164.5v-5.8M391.4 164.5V158M393.5 164.5v-4.3"/><path class="cls-26" d="M276.7 46.9h33.6v-4.1L304 5.1H109.1l-6.4 37.7v4.1h33.6v-.3h37.2v.3h66v-.3h37.2v.3"/><path class="cls-19" d="M106.3 45h10.5M127.9 45h10.5M149.2 45h10.6M170.8 45h10.6M192.2 45h10.5M213.8 45h10.5M235.1 45h10.6M256.7 45h10.6M278.1 45h10.6M299.7 45h10.6M106.3 37.8h10.5M127.9 37.8h10.5M149.2 37.8h10.6M170.8 37.8h10.6M192.2 37.8h10.5M213.8 37.8h10.5M235.1 37.8h10.6M256.7 37.8h10.6M278.1 37.8h10.6M299.7 37.8h9.8M106.3 30.3h10.5M127.9 30.3h10.5M149.2 30.3h10.6M170.8 30.3h10.6M192.2 30.3h10.5M213.8 30.3h10.5M235.1 30.3h10.6M256.7 30.3h10.6M278.1 30.3h10.6M299.7 30.3h8.6M106.3 23.1h10.5M127.9 23.1h10.5M149.2 23.1h10.6M170.8 23.1h10.6M192.2 23.1h10.5M213.8 23.1h10.5M235.1 23.1h10.6M256.7 23.1h10.6M278.1 23.1h10.6M299.7 23.1h7.4M107.5 15.9h9.3M127.9 15.9h10.5M149.2 15.9h10.6M170.8 15.9h10.6M192.2 15.9h10.5M213.8 15.9h10.5M235.1 15.9h10.6M256.7 15.9h10.6M278.1 15.9h10.6M299.7 15.9h6.2M108.7 8.7h8.1M127.9 8.7h10.5M149.2 8.7h10.6M170.8 8.7h10.6M192.2 8.7h10.5M213.8 8.7h10.5M235.1 8.7h10.6M256.7 8.7h10.6M278.1 8.7h10.6M299.7 8.7h5M106.3 46.6V45M106.3 39.4v-1.6M106.3 32v-1.7M106.3 24.8v-1.7M127.9 46.6V45M127.9 39.4v-1.6M127.9 32v-1.7M127.9 24.8v-1.7M127.9 17.6v-1.7M127.9 10.4V8.7M149.2 46.6V45M149.2 39.4v-1.6M149.2 32v-1.7M149.2 24.8v-1.7M149.2 17.6v-1.7M149.2 10.4V8.7M170.8 46.6V45M170.8 39.4v-1.6M170.8 32v-1.7M170.8 24.8v-1.7M170.8 17.6v-1.7M170.8 10.4V8.7M192.2 46.6V45M192.2 39.4v-1.6M192.2 32v-1.7M192.2 24.8v-1.7M192.2 17.6v-1.7M192.2 10.4V8.7M213.8 46.6V45M213.8 39.4v-1.6M213.8 32v-1.7M213.8 24.8v-1.7M213.8 17.6v-1.7M213.8 10.4V8.7M235.1 46.6V45M235.1 39.4v-1.6M235.1 32v-1.7M235.1 24.8v-1.7M235.1 17.6v-1.7M235.1 10.4V8.7M256.7 46.6V45M256.7 39.4v-1.6M256.7 32v-1.7M256.7 24.8v-1.7M256.7 17.6v-1.7M256.7 10.4V8.7M278.1 46.6V45M278.1 39.4v-1.6M278.1 32v-1.7M278.1 24.8v-1.7M278.1 17.6v-1.7M278.1 10.4V8.7M299.7 46.6V45M299.7 39.4v-1.6M299.7 32v-1.7M299.7 24.8v-1.7M299.7 17.6v-1.7M299.7 10.4V8.7M102.9 45h3.1M116.8 45h10.8M138.4 45H149M159.8 45h10.8M181.4 45h10.5M202.7 45h10.8M224.3 45h10.6M245.7 45h10.8M267.3 45h10.6M288.7 45h10.8M310.3 45h.2M103.6 37.8h2.4M116.8 37.8h10.8M138.4 37.8H149M159.8 37.8h10.8M181.4 37.8h10.5M202.7 37.8h10.8M224.3 37.8h10.6M245.7 37.8h10.8M267.3 37.8h10.6M288.7 37.8h10.8M104.8 30.3h1.2M116.8 30.3h10.8M138.4 30.3H149M159.8 30.3h10.8M181.4 30.3h10.5M202.7 30.3h10.8M224.3 30.3h10.6M245.7 30.3h10.8M267.3 30.3h10.6M288.7 30.3h10.8M116.8 23.1h10.8M138.4 23.1H149M159.8 23.1h10.8M181.4 23.1h10.5M202.7 23.1h10.8M224.3 23.1h10.6M245.7 23.1h10.8M267.3 23.1h10.6M288.7 23.1h10.8M116.8 15.9h10.8M138.4 15.9H149M159.8 15.9h10.8M181.4 15.9h10.5M202.7 15.9h10.8M224.3 15.9h10.6M245.7 15.9h10.8M267.3 15.9h10.6M288.7 15.9h10.8M116.8 8.7h10.8M138.4 8.7H149M159.8 8.7h10.8M181.4 8.7h10.5M202.7 8.7h10.8M224.3 8.7h10.6M245.7 8.7h10.8M267.3 8.7h10.6M288.7 8.7h10.8M106 46.6V45M106 39.4v-1.6M106 32v-1.7M106 24.8v-1M127.6 46.6V45M127.6 39.4v-1.6M127.6 32v-1.7M127.6 24.8v-1.7M127.6 17.6v-1.7M127.6 10.4V8.7M149 46.6V45M149 39.4v-1.6M149 32v-1.7M149 24.8v-1.7M149 17.6v-1.7M149 10.4V8.7M170.6 46.6V45M170.6 39.4v-1.6M170.6 32v-1.7M170.6 24.8v-1.7M170.6 17.6v-1.7M170.6 10.4V8.7M191.9 46.6V45M191.9 39.4v-1.6M191.9 32v-1.7M191.9 24.8v-1.7M191.9 17.6v-1.7M191.9 10.4V8.7M213.5 46.6V45M213.5 39.4v-1.6M213.5 32v-1.7M213.5 24.8v-1.7M213.5 17.6v-1.7M213.5 10.4V8.7M234.9 46.6V45M234.9 39.4v-1.6M234.9 32v-1.7M234.9 24.8v-1.7M234.9 17.6v-1.7M234.9 10.4V8.7M256.5 46.6V45M256.5 39.4v-1.6M256.5 32v-1.7M256.5 24.8v-1.7M256.5 17.6v-1.7M256.5 10.4V8.7M277.9 46.6V45M277.9 39.4v-1.6M277.9 32v-1.7M277.9 24.8v-1.7M277.9 17.6v-1.7M277.9 10.4V8.7M299.5 46.6V45M299.5 39.4v-1.6M299.5 32v-1.7M299.5 24.8v-1.7M299.5 17.6v-1.7M299.5 10.4V8.7M106.3 41.1h10.5M127.9 41.1h10.5M149.2 41.1h10.6M170.8 41.1h10.6M192.2 41.1h10.5M213.8 41.1h10.5M235.1 41.1h10.6M256.7 41.1h10.6M278.1 41.1h10.6M299.7 41.1H310M106.3 33.9h10.5M127.9 33.9h10.5M149.2 33.9h10.6M170.8 33.9h10.6M192.2 33.9h10.5M213.8 33.9h10.5M235.1 33.9h10.6M256.7 33.9h10.6M278.1 33.9h10.6M299.7 33.9h9.1M106.3 26.5h10.5M127.9 26.5h10.5M149.2 26.5h10.6M170.8 26.5h10.6M192.2 26.5h10.5M213.8 26.5h10.5M235.1 26.5h10.6M256.7 26.5h10.6M278.1 26.5h10.6M299.7 26.5h7.9M106.7 19.3h10.1M127.9 19.3h10.5M149.2 19.3h10.6M170.8 19.3h10.6M192.2 19.3h10.5M213.8 19.3h10.5M235.1 19.3h10.6M256.7 19.3h10.6M278.1 19.3h10.6M299.7 19.3h6.7M108.2 12.1h8.6M127.9 12.1h10.5M149.2 12.1h10.6M170.8 12.1h10.6M192.2 12.1h10.5M213.8 12.1h10.5M235.1 12.1h10.6M256.7 12.1h10.6M278.1 12.1h10.6M299.7 12.1h5.5M106.3 46.9v-.3M106.3 41.1v-1.7M106.3 33.9V32M106.3 26.5v-1.7M127.9 46.9v-.3M127.9 41.1v-1.7M127.9 33.9V32M127.9 26.5v-1.7M127.9 19.3v-1.7M127.9 12.1v-1.7M149.2 41.1v-1.7M149.2 33.9V32M149.2 26.5v-1.7M149.2 19.3v-1.7M149.2 12.1v-1.7M170.8 41.1v-1.7M170.8 33.9V32M170.8 26.5v-1.7M170.8 19.3v-1.7M170.8 12.1v-1.7M192.2 46.9v-.3M192.2 41.1v-1.7M192.2 33.9V32M192.2 26.5v-1.7M192.2 19.3v-1.7M192.2 12.1v-1.7M213.8 46.9v-.3M213.8 41.1v-1.7M213.8 33.9V32M213.8 26.5v-1.7M213.8 19.3v-1.7M213.8 12.1v-1.7M235.1 46.9v-.3M235.1 41.1v-1.7M235.1 33.9V32M235.1 26.5v-1.7M235.1 19.3v-1.7M235.1 12.1v-1.7M256.7 41.1v-1.7M256.7 33.9V32M256.7 26.5v-1.7M256.7 19.3v-1.7M256.7 12.1v-1.7M278.1 46.9v-.3M278.1 41.1v-1.7M278.1 33.9V32M278.1 26.5v-1.7M278.1 19.3v-1.7M278.1 12.1v-1.7M299.7 46.9v-.3M299.7 41.1v-1.7M299.7 33.9V32M299.7 26.5v-1.7M299.7 19.3v-1.7M299.7 12.1v-1.7M106 46.9v-.3M106 41.1v-1.7M106 33.9V32M106 26.5v-1.7M127.6 46.9v-.3M127.6 41.1v-1.7M127.6 33.9V32M127.6 26.5v-1.7M127.6 19.3v-1.7M127.6 12.1v-1.7M149 41.1v-1.7M149 33.9V32M149 26.5v-1.7M149 19.3v-1.7M149 12.1v-1.7M170.6 41.1v-1.7M170.6 33.9V32M170.6 26.5v-1.7M170.6 19.3v-1.7M170.6 12.1v-1.7M191.9 46.9v-.3M191.9 41.1v-1.7M191.9 33.9V32M191.9 26.5v-1.7M191.9 19.3v-1.7M191.9 12.1v-1.7M213.5 46.9v-.3M213.5 41.1v-1.7M213.5 33.9V32M213.5 26.5v-1.7M213.5 19.3v-1.7M213.5 12.1v-1.7M234.9 46.9v-.3M234.9 41.1v-1.7M234.9 33.9V32M234.9 26.5v-1.7M234.9 19.3v-1.7M234.9 12.1v-1.7M256.5 41.1v-1.7M256.5 33.9V32M256.5 26.5v-1.7M256.5 19.3v-1.7M256.5 12.1v-1.7M277.9 46.9v-.3M277.9 41.1v-1.7M277.9 33.9V32M277.9 26.5v-1.7M277.9 19.3v-1.7M277.9 12.1v-1.7M299.5 46.9v-.3M299.5 41.1v-1.7M299.5 33.9V32M299.5 26.5v-1.7M299.5 19.3v-1.7M299.5 12.1v-1.7M103.1 41.1h2.9M116.8 41.1h10.8M138.4 41.1H149M159.8 41.1h10.8M181.4 41.1h10.5M202.7 41.1h10.8M224.3 41.1h10.6M245.7 41.1h10.8M267.3 41.1h10.6M288.7 41.1h10.8M104.3 33.9h1.7M116.8 33.9h10.8M138.4 33.9H149M159.8 33.9h10.8M181.4 33.9h10.5M202.7 33.9h10.8M224.3 33.9h10.6M245.7 33.9h10.8M267.3 33.9h10.6M288.7 33.9h10.8M105.5 26.5h.5M116.8 26.5h10.8M138.4 26.5H149M159.8 26.5h10.8M181.4 26.5h10.5M202.7 26.5h10.8M224.3 26.5h10.6M245.7 26.5h10.8M267.3 26.5h10.6M288.7 26.5h10.8M116.8 19.3h10.8M138.4 19.3H149M159.8 19.3h10.8M181.4 19.3h10.5M202.7 19.3h10.8M224.3 19.3h10.6M245.7 19.3h10.8M267.3 19.3h10.6M288.7 19.3h10.8M116.8 12.1h10.8M138.4 12.1H149M159.8 12.1h10.8M181.4 12.1h10.5M202.7 12.1h10.8M224.3 12.1h10.6M245.7 12.1h10.8M267.3 12.1h10.6M288.7 12.1h10.8M103.1 41.4h13.7M117.1 41.4h21.1M138.4 41.4h21.4M160 41.4h21.1M181.4 41.4h21.3M203 41.4h21.1M224.3 41.4h21.4M245.9 41.4h21.2M267.3 41.4h21.4M288.9 41.4H310M104.3 33.9h12.5M117.1 33.9h21.1M138.4 33.9h21.4M160 33.9h21.1M181.4 33.9h21.3M203 33.9h21.1M224.3 33.9h21.4M245.9 33.9h21.2M267.3 33.9h21.4M288.9 33.9h19.9M105.5 26.7h11.3M117.1 26.7h21.1M138.4 26.7h21.4M160 26.7h21.1M181.4 26.7h21.3M203 26.7h21.1M224.3 26.7h21.4M245.9 26.7h21.2M267.3 26.7h21.4M288.9 26.7h18.7M106.7 19.5h10.1M117.1 19.5h21.1M138.4 19.5h21.4M160 19.5h21.1M181.4 19.5h21.3M203 19.5h21.1M224.3 19.5h21.4M245.9 19.5h21.2M267.3 19.5h21.4M288.9 19.5h17.5M107.9 12.3h8.9M117.1 12.3h21.1M138.4 12.3h21.4M160 12.3h21.1M181.4 12.3h21.3M203 12.3h21.1M224.3 12.3h21.4M245.9 12.3h21.2M267.3 12.3h21.4M288.9 12.3h16.3M116.8 44.7v-3.3M116.8 37.5v-3.6M116.8 30.1v-3.4M116.8 22.9v-3.4M116.8 15.7v-3.4M116.8 8.5V5.1M138.2 44.7v-3.3M138.2 37.5v-3.6M138.2 30.1v-3.4M138.2 22.9v-3.4M138.2 15.7v-3.4M138.2 8.5V5.1M159.8 44.7v-3.3M159.8 37.5v-3.6M159.8 30.1v-3.4M159.8 22.9v-3.4M159.8 15.7v-3.4M159.8 8.5V5.1M181.1 44.7v-3.3M181.1 37.5v-3.6M181.1 30.1v-3.4M181.1 22.9v-3.4M181.1 15.7v-3.4M181.1 8.5V5.1M202.7 44.7v-3.3M202.7 37.5v-3.6M202.7 30.1v-3.4M202.7 22.9v-3.4M202.7 15.7v-3.4M202.7 8.5V5.1M224.1 44.7v-3.3M224.1 37.5v-3.6M224.1 30.1v-3.4M224.1 22.9v-3.4M224.1 15.7v-3.4M224.1 8.5V5.1M245.7 44.7v-3.3M245.7 37.5v-3.6M245.7 30.1v-3.4M245.7 22.9v-3.4M245.7 15.7v-3.4M245.7 8.5V5.1M267.1 44.7v-3.3M267.1 37.5v-3.6M267.1 30.1v-3.4M267.1 22.9v-3.4M267.1 15.7v-3.4M267.1 8.5V5.1M288.7 44.7v-3.3M288.7 37.5v-3.6M288.7 30.1v-3.4M288.7 22.9v-3.4M288.7 15.7v-3.4M288.7 8.5V5.1M310.3 44.7v-3.3M102.9 44.7h13.9M117.1 44.7h21.1M138.4 44.7h21.4M160 44.7h21.1M181.4 44.7h21.3M203 44.7h21.1M224.3 44.7h21.4M245.9 44.7h21.2M267.3 44.7h21.4M288.9 44.7h21.4M310.3 44.7h.2M103.6 37.5h13.2M117.1 37.5h21.1M138.4 37.5h21.4M160 37.5h21.1M181.4 37.5h21.3M203 37.5h21.1M224.3 37.5h21.4M245.9 37.5h21.2M267.3 37.5h21.4M288.9 37.5h20.6M105.1 30.1h11.7M117.1 30.1h21.1M138.4 30.1h21.4M160 30.1h21.1M181.4 30.1h21.3M203 30.1h21.1M224.3 30.1h21.4M245.9 30.1h21.2M267.3 30.1h21.4M288.9 30.1h19.4M106.3 22.9h10.5M117.1 22.9h21.1M138.4 22.9h21.4M160 22.9h21.1M181.4 22.9h21.3M203 22.9h21.1M224.3 22.9h21.4M245.9 22.9h21.2M267.3 22.9h21.4M288.9 22.9h18.2M107.5 15.7h9.3M117.1 15.7h21.1M138.4 15.7h21.4M160 15.7h21.1M181.4 15.7h21.3M203 15.7h21.1M224.3 15.7h21.4M245.9 15.7h21.2M267.3 15.7h21.4M288.9 15.7h17M108.7 8.5h8.1M117.1 8.5h21.1M138.4 8.5h21.4M160 8.5h21.1M181.4 8.5h21.3M203 8.5h21.1M224.3 8.5h21.4M245.9 8.5h21.2M267.3 8.5h21.4M288.9 8.5h15.8M117.1 44.7v-3.3M117.1 37.5v-3.6M117.1 30.1v-3.4M117.1 22.9v-3.4M117.1 15.7v-3.4M117.1 8.5V5.1M138.4 44.7v-3.3M138.4 37.5v-3.6M138.4 30.1v-3.4M138.4 22.9v-3.4M138.4 15.7v-3.4M138.4 8.5V5.1M160 44.7v-3.3M160 37.5v-3.6M160 30.1v-3.4M160 22.9v-3.4M160 15.7v-3.4M160 8.5V5.1M181.4 44.7v-3.3M181.4 37.5v-3.6M181.4 30.1v-3.4M181.4 22.9v-3.4M181.4 15.7v-3.4M181.4 8.5V5.1M203 44.7v-3.3M203 37.5v-3.6M203 30.1v-3.4M203 22.9v-3.4M203 15.7v-3.4M203 8.5V5.1M224.3 44.7v-3.3M224.3 37.5v-3.6M224.3 30.1v-3.4M224.3 22.9v-3.4M224.3 15.7v-3.4M224.3 8.5V5.1M245.9 44.7v-3.3M245.9 37.5v-3.6M245.9 30.1v-3.4M245.9 22.9v-3.4M245.9 15.7v-3.4M245.9 8.5V5.1M267.3 44.7v-3.3M267.3 37.5v-3.6M267.3 30.1v-3.4M267.3 22.9v-3.4M267.3 15.7v-3.4M267.3 8.5V5.1M288.9 44.7v-3.3M288.9 37.5v-3.6M288.9 30.1v-3.4M288.9 22.9v-3.4M288.9 15.7v-3.4M288.9 8.5V5.1M310.3 44.7v-1.9"/><path class="cls-8" d="M276.7 46.9h33.6v-4.1L304 5.1H109.1l-6.4 37.7v4.1h33.6v-.3h37.2v.3h66v-.3h37.2v.3z"/><path class="cls-20" d="M239.5 46.6h37.2V50h-37.2zM136.3 46.6h37.2V50h-37.2z"/><path class="cls-19" d="M628.7 72.1l1.5 59-3.4.3-1.7-59.3h3.6z"/><path class="cls-20" d="M409.1 151.3h73.2"/><path class="cls-6" d="M408.4 150.6h73.9"/><path class="cls-20" d="M410.6 152.7h71.7M409.1 151.3h73.2"/><path class="cls-6" d="M482.3 151.3v-.7"/><path class="cls-20" d="M482.3 152.7v-1.4M408.4 150.6h73.9M410.6 152.7h71.7M409.1 164.5v-13.2"/><path class="cls-6" d="M408.4 164.5v-13.9"/><path class="cls-20" d="M410.6 164.5v-11.8M409.1 164.5v-13.2M408.4 164.5v-13.9M410.6 164.5v-11.8M278.6 143.1h77v17.5h-77zM287.7 145.5v-2.4M304.7 145.5v-2.4M321.8 145.5v-2.4M355.6 143.1h.7v17.5h-.7zM356.3 143.1h17v.7h-17zM372.7 143.8h.7v15.1h-.7zM356.3 143.8h.5v15.1h-.5zM356.3 159h17v.7h-17z"/><path class="cls-26" d="M337.8 155.5v-8.9c0-.3 0-.5-.1-.8-.1-.2-.2-.5-.4-.6-.2-.2-.4-.3-.6-.4-.2 0-.5-.2-.8-.2h-11.2c-.3 0-.5 0-.8.2-.2.1-.5.2-.6.4-.2.2-.3.4-.4.6-.1.2-.2.5-.2.8v9.3c0 .1 0 .3.1.4 0 .1.1.2.2.3s.2.2.2.3c0 0 .2.2.3.2.1 0 .2.1.3.2.1 0 .2 0 .4.1h12c.1 0 .3 0 .4-.1.1 0 .2-.1.3-.2.1 0 .2-.2.3-.2 0 0 .2-.2.2-.3 0-.1.1-.2.2-.3 0-.1 0-.2.1-.4v-.4"/><path class="cls-20" d="M337.8 155.5v-8.9c0-.3 0-.5-.1-.8-.1-.2-.2-.5-.4-.6-.2-.2-.4-.3-.6-.4-.2 0-.5-.2-.8-.2h-11.2c-.3 0-.5 0-.8.2-.2.1-.5.2-.6.4-.2.2-.3.4-.4.6-.1.2-.2.5-.2.8v9.3c0 .1 0 .3.1.4 0 .1.1.2.2.3s.2.2.2.3c0 0 .2.2.3.2.1 0 .2.1.3.2.1 0 .2 0 .4.1h12c.1 0 .3 0 .4-.1.1 0 .2-.1.3-.2.1 0 .2-.2.3-.2 0 0 .2-.2.2-.3 0-.1.1-.2.2-.3 0-.1 0-.2.1-.4v-.4"/><path class="cls-26" d="M331.4 154.3c0-.6-.5-1.1-1.2-1.1s-1.2.5-1.2 1.1.5 1.1 1.2 1.1 1.2-.5 1.2-1.1"/><path class="cls-20" d="M331.4 154.3c0-.6-.5-1.1-1.2-1.1s-1.2.5-1.2 1.1.5 1.1 1.2 1.1 1.2-.5 1.2-1.1"/><path class="cls-25" d="M288.2 144.6h16.1v14.6h-16.1z"/><path class="cls-20" d="M288.2 144.6h16.1v14.6h-16.1z"/><path class="cls-26" d="M294.9 149.4c0-1.6-1.2-2.9-2.8-2.9s-2.8 1.3-2.8 2.9 1.2 2.9 2.8 2.9 2.8-1.3 2.8-2.9"/><path class="cls-20" d="M294.9 149.4c0-1.6-1.2-2.9-2.8-2.9s-2.8 1.3-2.8 2.9 1.2 2.9 2.8 2.9 2.8-1.3 2.8-2.9"/><path class="cls-26" d="M293.5 156.1c0-1.2-1-2.2-2.3-2.2s-2.3 1-2.3 2.2 1 2.2 2.3 2.2 2.3-1 2.3-2.2"/><path class="cls-20" d="M293.5 156.1c0-1.2-1-2.2-2.3-2.2s-2.3 1-2.3 2.2 1 2.2 2.3 2.2 2.3-1 2.3-2.2"/><path class="cls-26" d="M301.9 149.4c0-1.2-1-2.2-2.2-2.2s-2.2 1-2.2 2.2 1 2.2 2.2 2.2 2.2-1 2.2-2.2"/><path class="cls-20" d="M301.9 149.4c0-1.2-1-2.2-2.2-2.2s-2.2 1-2.2 2.2 1 2.2 2.2 2.2 2.2-1 2.2-2.2"/><path class="cls-26" d="M302.3 155.7c0-1.5-1.3-2.8-2.9-2.8s-2.9 1.2-2.9 2.8 1.3 2.8 2.9 2.8 2.9-1.2 2.9-2.8"/><path class="cls-20" d="M302.3 155.7c0-1.5-1.3-2.8-2.9-2.8s-2.9 1.2-2.9 2.8 1.3 2.8 2.9 2.8 2.9-1.2 2.9-2.8M279.3 145.5v-2.4M373.4 143.1h17v.7h-17zM389.7 143.8h.7v15.1h-.7zM373.4 143.8h.5v15.1h-.5zM373.4 159h17v.7h-17zM390.4 143.1h16.8v.7h-16.8zM406.7 143.8h.5v11h-.5zM390.4 143.8h.5v11h-.5zM390.4 154.9h16.8v.5h-16.8zM407.9 150.6h.5v.5h-.5zM338.8 145.5v-2.4"/><path class="cls-1" d="M408.4 150.6H278.6"/><path class="cls-20" d="M279.1 150.6h-.5M407.2 143.1h.7v12.2h-.7z"/><path class="cls-25" d="M393.8 154.9h10.1v2.4h-10.1z"/><path class="cls-20" d="M393.8 154.9h10.1v2.4h-10.1z"/><path class="cls-25" d="M393.5 154.6h10.6v.2h-10.6z"/><path class="cls-20" d="M393.5 154.6h10.6v.2h-10.6z"/><path class="cls-22" d="M403.1 154.6v-8.4"/><path class="cls-3" d="M394.5 154.6l.2-1.6.5-1.5.7-1.7 1.2-1.2 1.2-.9 1.5-1 1.7-.5h1.6"/><path class="cls-26" d="M341.8 181.5c-.9-1.3-.9-3 0-4.3 1.5-1.9 3.8-2.9 6.2-2.9l9 .3v9.6l-9 .3c-2.4 0-4.7-1-6.2-2.9"/><path class="cls-20" d="M341.8 181.5c-.9-1.3-.9-3 0-4.3 1.5-1.9 3.8-2.9 6.2-2.9l9 .3v9.6l-9 .3c-2.4 0-4.7-1-6.2-2.9"/><path class="cls-26" d="M351.9 179.3c0 1-.3 2-1.1 2.8-.7.7-1.7 1.2-2.7 1.2-2.1 0-4.1-.9-5.4-2.5-.6-.9-.6-2 0-2.9 1.3-1.6 3.3-2.5 5.4-2.5 1 0 2 .4 2.7 1.2.7.7 1.1 1.8 1.1 2.8"/><path class="cls-20" d="M351.9 179.3c0 1-.3 2-1.1 2.8-.7.7-1.7 1.2-2.7 1.2-2.1 0-4.1-.9-5.4-2.5-.6-.9-.6-2 0-2.9 1.3-1.6 3.3-2.5 5.4-2.5 1 0 2 .4 2.7 1.2.7.7 1.1 1.8 1.1 2.8"/><path class="cls-26" d="M356.6 235.6h-48.1v-.1h-.1l-.1-.1V214.5h.1l.1-.1.1-.1h48.1l.1.1.1.1h.1V235.4l-.1.1h-.1v.1h-.2"/><path class="cls-20" d="M356.6 235.6h-48.1v-.1h-.1l-.1-.1V214.5h.1l.1-.1.1-.1h48.1l.1.1.1.1h.1V235.4l-.1.1h-.1v.1h-.2"/><path class="cls-26" d="M351.4 233.5H314c-.4 0-.9 0-1.3-.3-.4-.2-.8-.4-1.1-.7-.3-.3-.6-.7-.7-1.1-.2-.4-.3-.9-.3-1.3v-10.2c0-.4 0-.9.3-1.3.2-.4.4-.8.7-1.1.3-.3.7-.6 1.1-.7s.9-.3 1.3-.3h37.4c.4 0 .9 0 1.3.3s.8.4 1.1.7c.3.3.6.7.7 1.1.2.4.3.9.3 1.3v10.2c0 .4 0 .9-.3 1.3-.2.4-.4.8-.7 1.1-.3.3-.7.6-1.1.7-.4.2-.9.3-1.3.3"/><path class="cls-20" d="M351.4 233.5H314c-.4 0-.9 0-1.3-.3-.4-.2-.8-.4-1.1-.7-.3-.3-.6-.7-.7-1.1-.2-.4-.3-.9-.3-1.3v-10.2c0-.4 0-.9.3-1.3.2-.4.4-.8.7-1.1.3-.3.7-.6 1.1-.7s.9-.3 1.3-.3h37.4c.4 0 .9 0 1.3.3s.8.4 1.1.7c.3.3.6.7.7 1.1.2.4.3.9.3 1.3v10.2c0 .4 0 .9-.3 1.3-.2.4-.4.8-.7 1.1-.3.3-.7.6-1.1.7-.4.2-.9.3-1.3.3M357.8 165.9v24"/><path class="cls-6" d="M357.1 165.9v24.7"/><path class="cls-20" d="M359.2 165.9v22.6M357.8 165.9v24M357.1 165.9v24.7M359.2 165.9v22.6M361.6 189.9v18.5"/><path class="cls-6" d="M360.9 190.6v17.1"/><path class="cls-20" d="M363.1 188.5v21.3M361.6 189.9v18.5M360.9 190.6v17.1M363.1 188.5v21.3M357.8 208.4V236"/><path class="cls-6" d="M357.1 207.7V236"/><path class="cls-20" d="M359.2 209.8V236M357.8 208.4V236M357.1 207.7V236M359.2 209.8V236"/><path class="cls-26" d="M357 206.9h-12.4c-.1 0-.3-.1-.4-.2-.1-.1-.2-.2-.2-.4V192.6v-.4c0-.1.1-.3.2-.4.1-.1.2-.2.4-.2H357v15.6"/><path class="cls-20" d="M357 206.9h-12.4c-.1 0-.3-.1-.4-.2-.1-.1-.2-.2-.2-.4V192.6v-.4c0-.1.1-.3.2-.4.1-.1.2-.2.4-.2H357v15.6"/><path class="cls-17" d="M357.1 190.6h3.8"/><path class="cls-4" d="M360.9 190.6v17.1"/><path class="cls-17" d="M360.9 207.7h-3.8"/><path class="cls-20" d="M361.6 208.4h-3.8"/><path class="cls-6" d="M360.9 207.7h-3.8"/><path class="cls-20" d="M363.1 209.8h-3.9M361.6 208.4h-3.8M360.9 207.7h-3.8M363.1 209.8h-3.9M357.8 189.9h3.8"/><path class="cls-6" d="M357.1 190.6h3.8"/><path class="cls-20" d="M359.2 188.5h3.9M357.8 189.9h3.8M357.1 190.6h3.8M359.2 188.5h3.9"/><path class="cls-6" d="M357.1 190.6v17.1"/><path class="cls-26" d="M246.4 225.4l-7.2-6.9v23.7h7.2v-16.8"/><path class="cls-19" d="M246.7 225.7l-7.2-7.2M246.7 229.8l-7.2-7.2M246.7 233.6l-7.2-7.2M246.7 237.7l-7.2-7.2M246.7 241.8l-7.2-7.2M243.1 242.2l-3.6-3.6M244 242.2l2.7-2.4M239.9 242.2l6.8-6.4M239.5 238.9l7.2-7.2M239.5 235l7.2-7.2M239.5 231l6.2-6.5M239.5 226.9l4-4.3M239.5 222.8l2.1-2.2M239.5 219v-.3"/><path class="cls-26" d="M246.4 225.4l-7.2-6.9v23.7h7.2v-16.8"/><path class="cls-19" d="M246.7 225.7l-7.2-7.2M246.7 229.8l-7.2-7.2M246.7 233.6l-7.2-7.2M246.7 237.7l-7.2-7.2M246.7 241.8l-7.2-7.2M243.1 242.2l-3.6-3.6M244 242.2l2.7-2.4M239.9 242.2l6.8-6.4M239.5 238.9l7.2-7.2M239.5 235l7.2-7.2M239.5 231l6.2-6.5M239.5 226.9l4-4.3M239.5 222.8l2.1-2.2M239.5 219v-.3"/><path class="cls-21" d="M246.4 242.2v-16.8M239.2 234.8v-16.3M239.2 242.2v-.4M239.2 234.8v-16.3M246.4 242.2v-16.8M239.2 242.2v-.4"/><path class="cls-26" d="M246.4 277.8h-4.8l4.8 4.8v-4.8"/><path class="cls-19" d="M246.7 277.8h-.3M246.7 281.8l-4.1-4M245.2 281.1l1.5-1.2M243.1 279.2l1.4-1.4"/><path class="cls-26" d="M246.4 277.8h-4.8l4.8 4.8v-4.8"/><path class="cls-19" d="M246.7 277.8h-.3M246.7 281.8l-4.1-4M245.2 281.1l1.5-1.2M243.1 279.2l1.4-1.4"/><path class="cls-21" d="M246.4 282.6v-4.8M246.4 282.6v-4.8"/><path class="cls-20" d="M245.2 275.4h1.7v2.4h-1.7zM245.2 242.2h1.7v5.8h-1.7zM245.2 248h1.7v27.4h-1.7zM245.2 275.4V248"/><path class="cls-1" d="M239.2 275.6v-27.8"/><path class="cls-20" d="M239.2 248.2v-.4"/><path class="cls-26" d="M239.2 277.8v-2.2h6v2.2"/><path class="cls-19" d="M245.5 276.6l-1.2-1M242.6 277.8l-2.2-2.2M244.5 277.8l1-.8M240.7 277.8l2.1-2.2"/><path class="cls-26" d="M239.2 242.2v5.6h6v-5.6"/><path class="cls-19" d="M245.5 244.6l-2.4-2.4M244.5 247.8l-5-5.3M240.7 247.8l-1.2-1.2M242.6 247.8l2.9-2.9M239.5 247l4.5-4.8M239.5 243l.4-.8"/><path class="cls-21" d="M239.2 275.6h6M239.2 247.8h6M239.2 275.6h6M239.2 277.8v-2.2M239.2 247.8h6M239.2 242.2v5.6M246.4 277.8h-1.2M246.4 242.2h-1.2M239.2 277.8v-2.2M239.2 242.2v5.6M245.2 275.6v2.2M245.2 247.8v-5.6"/><path class="cls-26" d="M246.4 282.6l-7.2-7H9v7h237.4"/><path class="cls-19" d="M243.3 282.6l-7-7M239.2 282.6l-6.9-7M235.1 282.6l-6.9-7M231.3 282.6l-7-7M227.2 282.6l-6.9-7M223.1 282.6l-6.9-7M219.3 282.6l-7-7M215.2 282.6l-6.9-7M211.1 282.6l-6.9-7M207.3 282.6l-7-7M203.2 282.6l-6.9-7M199.1 282.6l-6.9-7M195.1 282.6l-7-7M191.2 282.6l-6.9-7M187.1 282.6l-6.9-7M183.1 282.6l-7-7M179.2 282.6l-6.9-7M175.1 282.6l-6.9-7M171.1 282.6l-7-7M167.2 282.6l-6.9-7M163.1 282.6l-6.9-7M159.1 282.6l-7-7M155 282.6l-7-7M151.1 282.6l-6.9-7M147.1 282.6l-7-7M143 282.6l-7-7M139.1 282.6l-6.9-7M135.1 282.6l-7-7M131 282.6l-7-7M126.9 282.6l-7-7M123.1 282.6l-7-7M119 282.6l-7-7M114.9 282.6l-7-7M111.1 282.6l-7-7M107 282.6l-7-7M102.9 282.6l-7-7M99.1 282.6l-7-7M95 282.6l-7-7M90.9 282.6l-7-7M86.8 282.6l-6.9-7M83 282.6l-7-7M78.9 282.6l-7-7M74.8 282.6l-6.9-7M71 282.6l-7-7M66.9 282.6l-7-7M62.8 282.6l-6.9-7M59 282.6l-7-7M54.9 282.6l-7-7M50.8 282.6l-6.9-7M46.7 282.6l-6.9-7M42.9 282.6l-7-7M38.8 282.6l-6.9-7M243.8 282.6l1.4-1.5M239.7 282.6l3.4-3.4M235.9 282.6l5.2-5.3M231.8 282.6l6.9-7M227.7 282.6l7-7M223.9 282.6l6.9-7M219.8 282.6l6.9-7M215.7 282.6l7-7M211.9 282.6l6.9-7M207.8 282.6l6.9-7M203.7 282.6l7-7M199.6 282.6l7-7M195.8 282.6l6.9-7M191.7 282.6l7-7M187.6 282.6l7-7M183.8 282.6l6.9-7M179.7 282.6l7-7M175.6 282.6l7-7M171.8 282.6l6.9-7M167.7 282.6l7-7M163.6 282.6l7-7M159.5 282.6l7-7M155.7 282.6l7-7M151.6 282.6l7-7M147.5 282.6l7-7M143.7 282.6l7-7M139.6 282.6l7-7M135.5 282.6l7-7M131.5 282.6l6.9-7M127.6 282.6l7-7M123.5 282.6l7-7M119.5 282.6l6.9-7M115.6 282.6l7-7M111.5 282.6l7-7M107.5 282.6l6.9-7M103.6 282.6l7-7M99.5 282.6l7-7M95.5 282.6l6.9-7M91.4 282.6l6.9-7M87.5 282.6l7-7M83.5 282.6l6.9-7M79.4 282.6l6.9-7M75.5 282.6l7-7M71.5 282.6l6.9-7M67.4 282.6l6.9-7M63.5 282.6l7-7M59.5 282.6l6.9-7M55.4 282.6l6.9-7M51.3 282.6l7-7M47.5 282.6l6.9-7M43.4 282.6l6.9-7M39.3 282.6l7-7M35.5 282.6l6.9-7M31.4 282.6l6.9-7"/><path class="cls-26" d="M246.4 282.6l-7.2-7H9v7h237.4"/><path class="cls-19" d="M243.3 282.6l-7-7M239.2 282.6l-6.9-7M235.1 282.6l-6.9-7M231.3 282.6l-7-7M227.2 282.6l-6.9-7M223.1 282.6l-6.9-7M219.3 282.6l-7-7M215.2 282.6l-6.9-7M211.1 282.6l-6.9-7M207.3 282.6l-7-7M203.2 282.6l-6.9-7M199.1 282.6l-6.9-7M195.1 282.6l-7-7M191.2 282.6l-6.9-7M187.1 282.6l-6.9-7M183.1 282.6l-7-7M179.2 282.6l-6.9-7M175.1 282.6l-6.9-7M171.1 282.6l-7-7M167.2 282.6l-6.9-7M163.1 282.6l-6.9-7M159.1 282.6l-7-7M155 282.6l-7-7M151.1 282.6l-6.9-7M147.1 282.6l-7-7M143 282.6l-7-7M139.1 282.6l-6.9-7M135.1 282.6l-7-7M131 282.6l-7-7M126.9 282.6l-7-7M123.1 282.6l-7-7M119 282.6l-7-7M114.9 282.6l-7-7M111.1 282.6l-7-7M107 282.6l-7-7M102.9 282.6l-7-7M99.1 282.6l-7-7M95 282.6l-7-7M90.9 282.6l-7-7M86.8 282.6l-6.9-7M83 282.6l-7-7M78.9 282.6l-7-7M74.8 282.6l-6.9-7M71 282.6l-7-7M66.9 282.6l-7-7M62.8 282.6l-6.9-7M59 282.6l-7-7M54.9 282.6l-7-7M50.8 282.6l-6.9-7M46.7 282.6l-6.9-7M42.9 282.6l-7-7M38.8 282.6l-6.9-7M243.8 282.6l1.4-1.5M239.7 282.6l3.4-3.4M235.9 282.6l5.2-5.3M231.8 282.6l6.9-7M227.7 282.6l7-7M223.9 282.6l6.9-7M219.8 282.6l6.9-7M215.7 282.6l7-7M211.9 282.6l6.9-7M207.8 282.6l6.9-7M203.7 282.6l7-7M199.6 282.6l7-7M195.8 282.6l6.9-7M191.7 282.6l7-7M187.6 282.6l7-7M183.8 282.6l6.9-7M179.7 282.6l7-7M175.6 282.6l7-7M171.8 282.6l6.9-7M167.7 282.6l7-7M163.6 282.6l7-7M159.5 282.6l7-7M155.7 282.6l7-7M151.6 282.6l7-7M147.5 282.6l7-7M143.7 282.6l7-7M139.6 282.6l7-7M135.5 282.6l7-7M131.5 282.6l6.9-7M127.6 282.6l7-7M123.5 282.6l7-7M119.5 282.6l6.9-7M115.6 282.6l7-7M111.5 282.6l7-7M107.5 282.6l6.9-7M103.6 282.6l7-7M99.5 282.6l7-7M95.5 282.6l6.9-7M91.4 282.6l6.9-7M87.5 282.6l7-7M83.5 282.6l6.9-7M79.4 282.6l6.9-7M75.5 282.6l7-7M71.5 282.6l6.9-7M67.4 282.6l6.9-7M63.5 282.6l7-7M59.5 282.6l6.9-7M55.4 282.6l6.9-7M51.3 282.6l7-7M47.5 282.6l6.9-7M43.4 282.6l6.9-7M39.3 282.6l7-7M35.5 282.6l6.9-7M31.4 282.6l6.9-7M34.9 282.6l-7-7M27.4 282.6l7-7M30.9 282.6l-7-7M23.5 282.6l6.9-7M26.9 282.6l-6.9-7M19.5 282.6l6.9-7M23 282.6l-7-7M15.5 282.6l7-7M19 282.6l-7-7M11.5 282.6l7-7M15 282.6l-6-6M9 281.1l5.5-5.5M11.1 282.6L9 280.5M9 277.2l1.6-1.6"/><path class="cls-21" d="M9 282.6h237.4M9 275.6h230.2M9 275.6h230.2M9 282.6h237.4"/><path class="cls-26" d="M371 161.1h-93.4v4.8H371v-4.8"/><path class="cls-19" d="M277.9 164.5l3.1-3.4M280.5 165.9l4.8-4.8M284.6 165.9l4.8-4.8M288.9 165.9l4.8-4.8M293.2 165.9l4.8-4.8M297.5 165.9l4.8-4.8M301.6 165.9l4.8-4.8M305.9 165.9l4.8-4.8M310.3 165.9l4.8-4.8M314.3 165.9l4.8-4.8M318.7 165.9l4.8-4.8M323 165.9l4.8-4.8M327.3 165.9l4.8-4.8M331.4 165.9l4.8-4.8M335.7 165.9l4.8-4.8M340 165.9l4.8-4.8M344.1 165.9l4.8-4.8M348.4 165.9l4.8-4.8M352.7 165.9l4.8-4.8M357.1 165.9l4.8-4.8M361.1 165.9l4.8-4.8M365.5 165.9l4.8-4.8M369.8 165.9l1.4-1.4"/><path class="cls-26" d="M371 161.1h-93.4v4.8H371v-4.8"/><path class="cls-19" d="M277.9 164.5l3.1-3.4M280.5 165.9l4.8-4.8M284.6 165.9l4.8-4.8M288.9 165.9l4.8-4.8M293.2 165.9l4.8-4.8M297.5 165.9l4.8-4.8M301.6 165.9l4.8-4.8M305.9 165.9l4.8-4.8M310.3 165.9l4.8-4.8M314.3 165.9l4.8-4.8M318.7 165.9l4.8-4.8M323 165.9l4.8-4.8M327.3 165.9l4.8-4.8M331.4 165.9l4.8-4.8M335.7 165.9l4.8-4.8M340 165.9l4.8-4.8M344.1 165.9l4.8-4.8M348.4 165.9l4.8-4.8M352.7 165.9l4.8-4.8M357.1 165.9l4.8-4.8M361.1 165.9l4.8-4.8M365.5 165.9l4.8-4.8M369.8 165.9l1.4-1.4"/><path class="cls-21" d="M277.6 165.9H371M277.6 161.1H371M277.6 161.1H371M277.6 165.9H371"/><path class="cls-20" d="M239.7 208.6h33.6"/><path class="cls-6" d="M239 207.9h34.3"/><path class="cls-20" d="M241.1 209.8h32.2M239.7 208.6h33.6"/><path class="cls-6" d="M273.3 208.6v-.7"/><path class="cls-20" d="M273.3 209.8v-1.2M239 207.9h34.3M241.1 209.8h32.2M277.6 208.6h30.3"/><path class="cls-6" d="M277.6 207.9h31"/><path class="cls-20" d="M277.6 209.8h28.8M277.6 208.6h30.3M277.6 207.9h31M277.6 209.8h28.8"/><path class="cls-6" d="M277.6 208.6v-.7"/><path class="cls-20" d="M277.6 209.8v-1.2M239.7 218.5v-9.9"/><path class="cls-6" d="M239 218.5v-10.6"/><path class="cls-20" d="M241.1 218.5v-8.7M239.7 218.5v-9.9M239 218.5v-10.6M241.1 218.5v-8.7M307.9 208.6v9.9"/><path class="cls-6" d="M308.6 207.9v10.6"/><path class="cls-20" d="M306.4 209.8v8.7M307.9 208.6v9.9M308.6 207.9v10.6M306.4 209.8v8.7"/><path class="cls-26" d="M573.3 42.8v3.4h55.2l3.4-3.4h-58.6"/><path class="cls-19" d="M573.5 43.5l2.7 2.7M576.7 42.8l3.3 3.4M580.7 42.8l3.4 3.4M584.8 42.8l3.4 3.4M588.9 42.8l3.4 3.4M592.7 42.8l3.4 3.4M596.8 42.8l3.4 3.4M600.9 42.8l3.4 3.4M604.7 42.8l3.4 3.4M608.8 42.8l3.4 3.4M612.9 42.8l3.4 3.4M616.7 42.8l3.4 3.4M620.8 42.8l3.4 3.4M624.9 42.8l3.4 3.4M629 42.8l1.4 1.4"/><path class="cls-26" d="M573.3 46.2v.4H628l.5-.4h-55.2M573.3 46.6v5.8h49.2l5.5-5.8h-54.7"/><path class="cls-19" d="M627.1 47.8v-1.2M625.6 49.3v-2.7M624.2 50.7v-4.1M622.7 52.4v-5.8M621.3 52.4v-5.8M619.9 52.4v-5.8M618.4 52.4v-5.8M617 52.4v-5.8M615.5 52.4v-5.8M614.1 52.4v-5.8M612.9 52.4v-5.8M611.5 52.4v-5.8M610 52.4v-5.8M608.6 52.4v-5.8M607.1 52.4v-5.8M605.7 52.4v-5.8M604.3 52.4v-5.8M602.8 52.4v-5.8M601.4 52.4v-5.8M599.9 52.4v-5.8M598.7 52.4v-5.8M597.3 52.4v-5.8M595.9 52.4v-5.8M594.4 52.4v-5.8M593 52.4v-5.8M591.5 52.4v-5.8M590.1 52.4v-5.8M588.7 52.4v-5.8M587.2 52.4v-5.8M585.8 52.4v-5.8M584.3 52.4v-5.8M583.1 52.4v-5.8M581.7 52.4v-5.8M580.3 52.4v-5.8M578.8 52.4v-5.8M577.4 52.4v-5.8M575.9 52.4v-5.8M574.5 52.4v-5.8"/><path class="cls-26" d="M573.3 52.4v5h44.2l5-5h-49.2"/><path class="cls-19" d="M573.5 55.5l2 1.9M574.3 52.4l5 5M578.3 52.4l5.1 5M582.4 52.4l5.1 5M586.3 52.4l5 5M590.3 52.4l5.1 5M594.4 52.4l5.1 5M598.5 52.4l5 5M602.3 52.4l5.1 5M606.4 52.4l5.1 5M610.5 52.4l5 5M614.3 52.4l4.1 4.1M618.4 52.4l2.2 2.2M622.5 52.4"/><path class="cls-21" d="M573.3 46.2h55.2M573.3 42.8h58.6"/><path class="cls-19" d="M573.3 52.4h49.2M573.3 46.6H628"/><path class="cls-21" d="M573.3 57.4h44.2M573.3 52.4h49.2"/><path class="cls-20" d="M573.3 42.8h58.6M573.3 57.4h44.2"/><path class="cls-26" d="M477.5 42.8v3.4h55v-3.4h-55"/><path class="cls-19" d="M477.8 44l2.1 2.2M480.7 42.8l3.3 3.4M484.5 42.8l3.4 3.4M488.6 42.8l3.3 3.4M492.7 42.8l3.3 3.4M496.5 42.8l3.4 3.4M500.6 42.8l3.3 3.4M504.7 42.8l3.3 3.4M508.7 42.8l3.4 3.4M512.6 42.8l3.3 3.4M516.7 42.8l3.3 3.4M520.7 42.8l3.4 3.4M524.6 42.8l3.3 3.4M528.7 42.8l3.3 3.4"/><path class="cls-26" d="M477.5 46.2v.4h55v-.4h-55M477.5 46.6v5.8h55v-5.8h-55"/><path class="cls-19" d="M532 52.4v-5.8M530.6 52.4v-5.8M529.1 52.4v-5.8M527.7 52.4v-5.8M526.3 52.4v-5.8M524.8 52.4v-5.8M523.6 52.4v-5.8M522.2 52.4v-5.8M520.7 52.4v-5.8M519.3 52.4v-5.8M517.9 52.4v-5.8M516.4 52.4v-5.8M515 52.4v-5.8M513.5 52.4v-5.8M512.1 52.4v-5.8M510.7 52.4v-5.8M509.2 52.4v-5.8M508 52.4v-5.8M506.6 52.4v-5.8M505.1 52.4v-5.8M503.7 52.4v-5.8M502.3 52.4v-5.8M500.8 52.4v-5.8M499.4 52.4v-5.8M497.9 52.4v-5.8M496.5 52.4v-5.8M495.1 52.4v-5.8M493.6 52.4v-5.8M492.4 52.4v-5.8M491 52.4v-5.8M489.5 52.4v-5.8M488.1 52.4v-5.8M486.7 52.4v-5.8M485.2 52.4v-5.8M483.8 52.4v-5.8M482.3 52.4v-5.8M480.9 52.4v-5.8M479.5 52.4v-5.8M478.3 52.4v-5.8"/><path class="cls-26" d="M477.5 52.4v5h55v-5h-55"/><path class="cls-19" d="M477.8 56l1.4 1.4M478 52.4l5.1 5M482.1 52.4l5 5M486.2 52.4l5 5M490.3 52.4l5 5M494.1 52.4l5 5M498.2 52.4l5 5M502.3 52.4l5 5M506.1 52.4l5 5M510.2 52.4l5 5M514.3 52.4l5 5M518.3 52.4l5.1 5M522.2 52.4l5 5M526.3 52.4l5 5M530.3 52.4l2.4 2.4"/><path class="cls-21" d="M477.5 46.2h55M477.5 42.8h55"/><path class="cls-19" d="M477.5 52.4h55M477.5 46.6h55"/><path class="cls-21" d="M477.5 57.4h55M477.5 52.4h55"/><path class="cls-20" d="M477.5 42.8h55M477.5 57.4h55"/><path class="cls-26" d="M381.8 42.8v3.4h54.9v-3.4h-54.9"/><path class="cls-19" d="M382 44.5l1.7 1.7M384.4 42.8l3.4 3.4M388.3 42.8l3.3 3.4M392.3 42.8l3.4 3.4M396.4 42.8l3.4 3.4M400.5 42.8l3.4 3.4M404.3 42.8l3.4 3.4M408.4 42.8l3.4 3.4M412.5 42.8l3.4 3.4M416.3 42.8l3.4 3.4M420.4 42.8l3.4 3.4M424.5 42.8l3.4 3.4M428.3 42.8l3.4 3.4M432.4 42.8l3.4 3.4M436.5 42.8l.5.5"/><path class="cls-26" d="M381.8 46.2v.4h54.9v-.4h-54.9M381.8 46.6v5.8h54.9v-5.8h-54.9"/><path class="cls-19" d="M435.5 52.4v-5.8M434.1 52.4v-5.8M432.9 52.4v-5.8M431.5 52.4v-5.8M430 52.4v-5.8M428.6 52.4v-5.8M427.1 52.4v-5.8M425.7 52.4v-5.8M424.3 52.4v-5.8M422.8 52.4v-5.8M421.4 52.4v-5.8M419.9 52.4v-5.8M418.7 52.4v-5.8M417.3 52.4v-5.8M415.9 52.4v-5.8M414.4 52.4v-5.8M413 52.4v-5.8M411.5 52.4v-5.8M410.1 52.4v-5.8M408.7 52.4v-5.8M407.2 52.4v-5.8M405.8 52.4v-5.8M404.3 52.4v-5.8M403.1 52.4v-5.8M401.7 52.4v-5.8M400.3 52.4v-5.8M398.8 52.4v-5.8M397.4 52.4v-5.8M395.9 52.4v-5.8M394.5 52.4v-5.8M393.1 52.4v-5.8M391.6 52.4v-5.8M390.2 52.4v-5.8M388.7 52.4v-5.8M387.5 52.4v-5.8M386.1 52.4v-5.8M384.7 52.4v-5.8M383.2 52.4v-5.8"/><path class="cls-26" d="M381.8 52.4v5h54.9v-5h-54.9"/><path class="cls-19" d="M382 56.5l1 .9M382 52.4l5.1 5M385.9 52.4l5 5M389.9 52.4l5.1 5M394 52.4l5.1 5M397.9 52.4l5 5M401.9 52.4l5.1 5M406 52.4l5.1 5M410.1 52.4l5 5M413.9 52.4l5.1 5M418 52.4l5.1 5M422.1 52.4l5 5M425.9 52.4l5.1 5M430 52.4l5.1 5M434.1 52.4l2.9 2.9"/><path class="cls-21" d="M381.8 46.2h54.9M381.8 42.8h54.9"/><path class="cls-19" d="M381.8 52.4h54.9M381.8 46.6h54.9"/><path class="cls-21" d="M381.8 57.4h54.9M381.8 52.4h54.9"/><path class="cls-20" d="M381.8 42.8h54.9M381.8 57.4h54.9"/><path class="cls-26" d="M278.6 42.8v3.4h62.1v-3.4h-62.1"/><path class="cls-19" d="M278.8 45.4l.7.8M280 42.8l3.4 3.4M284.1 42.8l3.4 3.4M288.2 42.8l3.3 3.4M292.3 42.8l3.3 3.4M296.1 42.8l3.4 3.4M300.2 42.8l3.3 3.4M304.3 42.8l3.3 3.4M308.1 42.8l3.4 3.4M312.2 42.8l3.3 3.4M316.3 42.8l3.3 3.4M320.1 42.8l3.4 3.4M324.2 42.8l3.3 3.4M328.3 42.8l3.3 3.4M332.3 42.8l3.4 3.4M336.2 42.8l3.3 3.4M340.3 42.8l.7.7"/><path class="cls-26" d="M278.6 46.2v.4h62.1v-.4h-62.1M278.6 46.6v5.8h62.1v-5.8h-62.1"/><path class="cls-19" d="M340.7 52.4v-5.8M339.3 52.4v-5.8M337.9 52.4v-5.8M336.4 52.4v-5.8M335 52.4v-5.8M333.5 52.4v-5.8M332.1 52.4v-5.8M330.7 52.4v-5.8M329.2 52.4v-5.8M328 52.4v-5.8M326.6 52.4v-5.8M325.1 52.4v-5.8M323.7 52.4v-5.8M322.3 52.4v-5.8M320.8 52.4v-5.8M319.4 52.4v-5.8M317.9 52.4v-5.8M316.5 52.4v-5.8M315.1 52.4v-5.8M313.6 52.4v-5.8M312.4 52.4v-5.8M311 52.4v-5.8M309.5 52.4v-5.8M308.1 52.4v-5.8M306.7 52.4v-5.8M305.2 52.4v-5.8M303.8 52.4v-5.8M302.3 52.4v-5.8M300.9 52.4v-5.8M299.5 52.4v-5.8M298.3 52.4v-5.8M296.8 52.4v-5.8M295.4 52.4v-5.8M293.9 52.4v-5.8M292.5 52.4v-5.8M291.1 52.4v-5.8M289.6 52.4v-5.8M288.2 52.4v-5.8M286.7 52.4v-5.8M285.3 52.4v-5.8M283.9 52.4v-5.8M282.7 52.4v-5.8M281.2 52.4v-5.8M279.8 52.4v-5.8"/><path class="cls-26" d="M278.6 52.4v5h62.1v-5h-62.1"/><path class="cls-19" d="M278.8 53.4l3.9 4M281.7 52.4l5 5M285.8 52.4l5 5M289.6 52.4l5.1 5M293.7 52.4l5 5M297.8 52.4l5 5M301.9 52.4l5 5M305.7 52.4l5 5M309.8 52.4l5 5M313.9 52.4l5 5M317.7 52.4l5 5M321.8 52.4l5 5M325.9 52.4l5 5M329.7 52.4l5 5M333.8 52.4l5 5M337.9 52.4l3.1 3.1"/><path class="cls-21" d="M278.6 46.2h62.1M278.6 42.8h62.1"/><path class="cls-19" d="M278.6 52.4h62.1M278.6 46.6h62.1"/><path class="cls-21" d="M278.6 57.4h62.1M278.6 52.4h62.1"/><path class="cls-20" d="M278.6 42.8h62.1M278.6 57.4h62.1"/><path class="cls-26" d="M175.4 42.8v3.4h62.4v-3.4h-62.4"/><path class="cls-19" d="M175.9 42.8l3.3 3.4M179.9 42.8l3.4 3.4M184 42.8l3.4 3.4M187.9 42.8l3.3 3.4M191.9 42.8l3.4 3.4M196 42.8l3.4 3.4M199.9 42.8l3.3 3.4M203.9 42.8l3.4 3.4M208 42.8l3.4 3.4M211.9 42.8l3.3 3.4M215.9 42.8l3.4 3.4M220 42.8l3.4 3.4M224.1 42.8l3.4 3.4M227.9 42.8l3.4 3.4M232 42.8l3.4 3.4M236.1 42.8l1.9 1.9"/><path class="cls-26" d="M175.4 46.2v.4h62.4v-.4h-62.4M175.4 46.6v5.8h62.4v-5.8h-62.4"/><path class="cls-19" d="M237.3 52.4v-5.8M235.9 52.4v-5.8M234.4 52.4v-5.8M233 52.4v-5.8M231.5 52.4v-5.8M230.1 52.4v-5.8M228.7 52.4v-5.8M227.2 52.4v-5.8M225.8 52.4v-5.8M224.3 52.4v-5.8M223.1 52.4v-5.8M221.7 52.4v-5.8M220.3 52.4v-5.8M218.8 52.4v-5.8M217.4 52.4v-5.8M215.9 52.4v-5.8M214.5 52.4v-5.8M213.1 52.4v-5.8M211.6 52.4v-5.8M210.2 52.4v-5.8M208.7 52.4v-5.8M207.5 52.4v-5.8M206.1 52.4v-5.8M204.7 52.4v-5.8M203.2 52.4v-5.8M201.8 52.4v-5.8M200.3 52.4v-5.8M198.9 52.4v-5.8M197.5 52.4v-5.8M196 52.4v-5.8M194.6 52.4v-5.8M193.4 52.4v-5.8M191.9 52.4v-5.8M190.5 52.4v-5.8M189.1 52.4v-5.8M187.6 52.4v-5.8M186.2 52.4v-5.8M184.7 52.4v-5.8M183.3 52.4v-5.8M181.9 52.4v-5.8M180.4 52.4v-5.8M179 52.4v-5.8M177.8 52.4v-5.8M176.3 52.4v-5.8"/><path class="cls-26" d="M175.4 52.4v5h62.4v-5h-62.4"/><path class="cls-19" d="M175.6 54.3l2.9 3.1M177.5 52.4l5.1 5M181.4 52.4l5 5M185.5 52.4l5 5M189.5 52.4l5.1 5M193.6 52.4l5.1 5M197.5 52.4l5 5M201.5 52.4l5.1 5M205.6 52.4l5.1 5M209.5 52.4l5 5M213.5 52.4l5.1 5M217.6 52.4l5.1 5M221.5 52.4l5 5M225.5 52.4l5.1 5M229.6 52.4l5.1 5M233.7 52.4l4.3 4.3M237.5 52.4l.5.2"/><path class="cls-21" d="M175.4 46.2h62.4M175.4 42.8h62.4"/><path class="cls-19" d="M175.4 52.4h62.4M175.4 46.6h62.4"/><path class="cls-21" d="M175.4 57.4h62.4M175.4 52.4h62.4"/><path class="cls-20" d="M175.4 42.8h62.4M175.4 57.4h62.4"/><path class="cls-26" d="M101 42.8v3.4h33.6v-3.4H101"/><path class="cls-19" d="M101.2 44.2l1.9 2M103.6 42.8l3.4 3.4M107.7 42.8l3.4 3.4M111.8 42.8l3.3 3.4M115.9 42.8l3.3 3.4M119.7 42.8l3.4 3.4M123.8 42.8l3.3 3.4M127.9 42.8l3.3 3.4M131.7 42.8l3.1 2.9"/><path class="cls-26" d="M101 46.2v.4h33.6v-.4H101M101 46.6v5.8h33.6v-5.8H101"/><path class="cls-19" d="M133.6 52.4v-5.8M132.4 52.4v-5.8M131 52.4v-5.8M129.5 52.4v-5.8M128.1 52.4v-5.8M126.7 52.4v-5.8M125.2 52.4v-5.8M123.8 52.4v-5.8M122.3 52.4v-5.8M120.9 52.4v-5.8M119.5 52.4v-5.8M118.3 52.4v-5.8M116.8 52.4v-5.8M115.4 52.4v-5.8M113.9 52.4v-5.8M112.5 52.4v-5.8M111.1 52.4v-5.8M109.6 52.4v-5.8M108.2 52.4v-5.8M106.7 52.4v-5.8M105.3 52.4v-5.8M103.9 52.4v-5.8M102.7 52.4v-5.8M101.2 52.4v-5.8"/><path class="cls-26" d="M101 52.4v5h33.6v-5H101"/><path class="cls-19" d="M101.2 56.2l1.2 1.2M101.2 52.4l5.1 5M105.3 52.4l5 5M109.4 52.4l5 5M113.2 52.4l5.1 5M117.3 52.4l5 5M121.4 52.4l5 5M125.5 52.4l5 5M129.3 52.4l5 5M133.4 52.4l1.4 1.4"/><path class="cls-21" d="M101 46.2h33.6M101 42.8h33.6"/><path class="cls-19" d="M101 52.4h33.6M101 46.6h33.6"/><path class="cls-21" d="M101 57.4h33.6M101 52.4h33.6"/><path class="cls-20" d="M101 42.8h33.6M101 57.4h33.6M342.7 50v-7.2h-3.4v-1.9h43.9v1.9h-3.3V50"/><path class="cls-1" d="M340.7 57.4h41.1"/><path class="cls-20" d="M381.3 57.4h.5"/><path class="cls-21" d="M342.7 42.8h-3.4M379.9 42.8h3.3"/><path class="cls-20" d="M340.7 50h41v2.4h-41zM344.6 50v2.4M377.9 50v2.4M340.7 52.4V50M359.2 52.4V50M344.6 52.4V50M363.3 52.4V50M359.2 52.4V50M377.9 52.4V50M363.3 52.4V50M381.8 52.4V50"/><path class="cls-26" d="M340.9 46.7h1.8v3.4h-1.8"/><path class="cls-19" d="M342.2 50v-3.4M340.9 46.7h1.8v3.4h-1.8"/><path class="cls-21" d="M340.7 52.4v5"/><path class="cls-26" d="M340.7 42.8h2v3.4h-2"/><path class="cls-19" d="M341 43.5l1.9 1.9"/><path class="cls-21" d="M340.7 42.8h2v3.4h-2M342.7 46.2V50"/><path class="cls-26" d="M381.7 46.7h-1.9v3.4h1.9"/><path class="cls-19" d="M381.8 50v-3.4M380.3 50v-3.4M381.7 46.7h-1.9v3.4h1.9"/><path class="cls-21" d="M381.8 52.4v5"/><path class="cls-26" d="M381.8 42.8h-1.9v3.4h1.9"/><path class="cls-19" d="M380.3 42.8l1.7 1.7"/><path class="cls-21" d="M381.8 42.8h-1.9v3.4h1.9M379.9 46.2V50"/><path class="cls-20" d="M438.4 50v-7.2h-3.3v-1.9H479v1.9h-3.4V50"/><path class="cls-1" d="M436.7 57.4h40.8"/><path class="cls-20" d="M477.1 57.4h.4"/><path class="cls-21" d="M438.4 42.8h-3.3M475.6 42.8h3.4"/><path class="cls-20" d="M436.7 50h40.8v2.4h-40.8zM440.3 50v2.4M473.7 50v2.4M436.7 52.4V50M455 52.4V50M440.3 52.4V50M459.1 52.4V50M455 52.4V50M473.7 52.4V50M459.1 52.4V50M477.5 52.4V50"/><path class="cls-26" d="M436.7 46.7h1.8v3.4h-1.8"/><path class="cls-19" d="M438.4 50v-3.4M437 50v-3.4M436.7 46.7h1.8v3.4h-1.8"/><path class="cls-21" d="M436.7 52.4v5"/><path class="cls-26" d="M436.7 42.8h1.7v3.4h-1.7"/><path class="cls-19" d="M437 43.3l1.7 1.7"/><path class="cls-21" d="M436.7 42.8h1.7v3.4h-1.7M438.4 46.2V50"/><path class="cls-26" d="M477.5 46.7h-1.8v3.4h1.8"/><path class="cls-19" d="M476.8 50v-3.4M477.5 46.7h-1.8v3.4h1.8"/><path class="cls-21" d="M477.5 52.4v5"/><path class="cls-26" d="M477.5 42.8h-1.9v3.4h1.9"/><path class="cls-19" d="M475.9 45.9v.3M476.6 42.8l1.2 1.2"/><path class="cls-21" d="M477.5 42.8h-1.9v3.4h1.9M475.6 46.2V50"/><path class="cls-20" d="M534.4 50v-7.2h-3.6v-1.9h43.9v1.9h-3.3V50"/><path class="cls-1" d="M532.5 57.4h40.8"/><path class="cls-20" d="M572.8 57.4h.5"/><path class="cls-21" d="M534.4 42.8h-3.6M571.4 42.8h3.3"/><path class="cls-20" d="M532.5 50h40.8v2.4h-40.8zM536.1 50v2.4M569.7 50v2.4M532.5 52.4V50M550.7 52.4V50M536.1 52.4V50M555.1 52.4V50M550.7 52.4V50M569.7 52.4V50M555.1 52.4V50M573.3 52.4V50"/><path class="cls-26" d="M532.5 46.7h1.8v3.4h-1.8"/><path class="cls-19" d="M533.5 50v-3.4M532.5 46.7h1.8v3.4h-1.8"/><path class="cls-21" d="M532.5 52.4v5"/><path class="cls-26" d="M532.5 42.8h1.9v3.4h-1.9"/><path class="cls-19" d="M532.7 42.8l2 1.9"/><path class="cls-21" d="M532.5 42.8h1.9v3.4h-1.9M534.4 46.2V50"/><path class="cls-26" d="M573.3 46.7h-1.8v3.4h1.8"/><path class="cls-19" d="M573.1 50v-3.4M571.6 50v-3.4M573.3 46.7h-1.8v3.4h1.8"/><path class="cls-21" d="M573.3 52.4v5"/><path class="cls-26" d="M573.3 42.8h-1.9v3.4h1.9"/><path class="cls-19" d="M571.6 45.4l.5.8M572.8 42.8l.7.7"/><path class="cls-21" d="M573.3 42.8h-1.9v3.4h1.9M571.4 46.2V50"/><path class="cls-1" d="M134.6 57.4h40.8"/><path class="cls-20" d="M174.9 57.4h.5M134.6 50h40.8v2.4h-40.8zM138.2 50v2.4M171.5 50v2.4M134.6 52.4V50M152.8 52.4V50M138.2 52.4V50M156.9 52.4V50M152.8 52.4V50M171.5 52.4V50M156.9 52.4V50M175.4 52.4V50"/><path class="cls-21" d="M134.6 52.4v5"/><path class="cls-20" d="M176.8 42.8v-1.9"/><path class="cls-11" d="M176.8 40.9h-43.9"/><path class="cls-20" d="M133.4 40.9h-.5"/><path class="cls-9" d="M132.9 40.9v1.9"/><path class="cls-20" d="M132.9 42.3v.5"/><path class="cls-26" d="M134.5 46.7h1.8v3.4h-1.8"/><path class="cls-19" d="M135.1 50v-3.4M134.5 46.7h1.8v3.4h-1.8"/><path class="cls-26" d="M134.6 42.8h1.7v3.4h-1.7"/><path class="cls-19" d="M134.8 45.7l.3.5M135.8 42.8l.7.5"/><path class="cls-21" d="M134.6 42.8h1.7v3.4h-1.7M136.3 46.2V50"/><path class="cls-26" d="M175.3 46.7h-1.8v3.4h1.8"/><path class="cls-19" d="M174.9 50v-3.4M175.3 46.7h-1.8v3.4h1.8"/><path class="cls-21" d="M175.4 52.4v5"/><path class="cls-26" d="M175.4 42.8h-1.9v3.4h1.9"/><path class="cls-19" d="M173.7 44.5l1.4 1.7"/><path class="cls-21" d="M175.4 42.8h-1.9v3.4h1.9M173.5 46.2V50"/><path class="cls-1" d="M237.8 57.4h40.8"/><path class="cls-20" d="M278.1 57.4h.5M237.8 50h40.8v2.4h-40.8zM241.4 50v2.4M274.7 50v2.4M237.8 52.4V50M256 52.4V50M241.4 52.4V50M260.1 52.4V50M256 52.4V50M274.7 52.4V50M260.1 52.4V50M278.6 52.4V50"/><path class="cls-21" d="M237.8 52.4v5"/><path class="cls-20" d="M280 42.8v-1.9"/><path class="cls-11" d="M280 40.9h-43.9"/><path class="cls-20" d="M236.6 40.9h-.5"/><path class="cls-9" d="M236.1 40.9v1.9"/><path class="cls-20" d="M236.1 42.3v.5"/><path class="cls-26" d="M237.7 46.7h1.8v3.4h-1.8"/><path class="cls-19" d="M238.7 50v-3.4M237.7 46.7h1.8v3.4h-1.8"/><path class="cls-26" d="M237.8 42.8h1.7v3.4h-1.7"/><path class="cls-19" d="M238 44.7l1.5 1.5"/><path class="cls-21" d="M237.8 42.8h1.7v3.4h-1.7M239.5 46.2V50"/><path class="cls-26" d="M278.5 46.7h-1.8v3.4h1.8"/><path class="cls-19" d="M278.3 50v-3.4M276.9 50v-3.4M278.5 46.7h-1.8v3.4h1.8"/><path class="cls-21" d="M278.6 52.4v5"/><path class="cls-26" d="M278.6 42.8h-1.9v3.4h1.9"/><path class="cls-19" d="M276.9 43.5l1.9 1.9"/><path class="cls-21" d="M278.6 42.8h-1.9v3.4h1.9M276.7 46.2V50"/><path class="cls-26" d="M634 133h-3.3l.4 18.3h3.4L634 133"/><path class="cls-19" d="M631.1 149.4l2 1.9M631.1 145.3l3.4 3.3M630.9 141.2l3.6 3.4M630.9 137.1l3.4 3.4M630.9 133l3.4 3.4"/><path class="cls-26" d="M630.7 133h-.5l.5 18.3h.4l-.4-18.3"/><path class="cls-26" d="M630.2 133l-5.8.3.5 18h5.8l-.5-18.3"/><path class="cls-19" d="M624.9 151l5.8-.2M624.9 149.6l5.8-.2M624.9 148.2l5.8-.3M624.9 146.7l5.8-.2M624.9 145.3l5.8-.3M624.9 143.8l5.8-.2M624.9 142.4l5.8-.2M624.7 141h5.7M624.7 139.5h5.7M624.7 138.1h5.7M624.7 136.6h5.7M624.7 135.4l5.7-.2M624.7 134l5.7-.2"/><path class="cls-26" d="M624.4 133.3h-5l.5 18h5l-.5-18"/><path class="cls-19" d="M619.9 150.1l1.2 1.2M619.9 146l5 5.3M619.6 141.9l5.3 5.1M619.6 137.8l5.3 5.1M619.6 133.8l5.1 5M623.2 133.3l1.5 1.4"/><path class="cls-21" d="M630.7 133l.4 18.3M634 133l.5 18.3"/><path class="cls-19" d="M624.4 133.3l.5 18M630.2 133l.5 18.3"/><path class="cls-21" d="M619.4 133.3l.5 18M624.4 133.3l.5 18"/><path class="cls-20" d="M634 133l.5 18.3M619.4 133.3l.5 18"/><path class="cls-26" d="M631.9 42.8l-3.4 3.4.7 24h3.4l-.7-27.4"/><path class="cls-19" d="M629.2 67.3l2.9 2.9M629.2 63.2l3.4 3.4M629 58.9l3.6 3.6M629 54.8l3.3 3.6M628.7 50.7l3.6 3.6M628.7 46.6l3.4 3.4M630.4 44.2l1.7 1.7"/><path class="cls-26" d="M628.5 46.2l-.5.4.5 23.6h.7l-.7-24"/><path class="cls-26" d="M628 46.6l-5.5 5.8.5 18 5.5-.2-.5-23.6"/><path class="cls-19" d="M623 70.2l5.5-.3M623 68.7l5.5-.2M623 67.3h5.5M623 65.8h5.5M623 64.4h5.5M623 63h5.5M623 61.8l5.5-.3M622.7 60.3l5.8-.2M622.7 58.9l5.8-.3M622.7 57.4l5.6-.2M622.7 56l5.6-.2M622.7 54.6l5.6-.3M622.7 53.1h5.6M623.2 51.7h5.1M624.7 50.2h3.6M626.1 48.8h2.2M627.5 47.4h.8"/><path class="cls-26" d="M622.5 52.4l-5 5 .2 13h5.3l-.5-18"/><path class="cls-19" d="M617.7 67.8l2.6 2.6M617.7 63.7L623 69M617.7 59.6l5.3 5.3M618.4 56.5l4.3 4.3M620.6 54.6l2.1 2.1M622.5 52.4l.2.2"/><path class="cls-21" d="M628.5 46.2l.7 24M631.9 42.8l.7 27.4"/><path class="cls-19" d="M622.5 52.4l.5 18M628 46.6l.5 23.6"/><path class="cls-21" d="M617.5 57.4l.2 13M622.5 52.4l.5 18"/><path class="cls-20" d="M631.9 42.8l.7 27.4M617.5 57.4l.2 13"/><path class="cls-1" d="M617.7 70.4l1.7 62.9"/><path class="cls-20" d="M625.1 70.2l1.7 62.8-2.4.3-1.4-62.9 2.1-.2zM625.1 74H623M626.6 129.4h-2.2M623 70.4l2.1-.2M623.5 89.1h2.1M623 74h2.1M623.5 93.2h2.4M623.5 89.1h2.1M623.9 110.2h2.2M623.5 93.2h2.4M623.9 114.3h2.4M623.9 110.2h2.2M624.4 129.4h2.2M623.9 114.3h2.4M624.4 133.3l2.4-.3"/><path class="cls-21" d="M623 70.4h-5.3"/><path class="cls-20" d="M634.3 134.5h1.6"/><path class="cls-10" d="M635.9 134.5l-1.6-66"/><path class="cls-20" d="M634.3 68.5h-1.2"/><path class="cls-26" d="M628.6 70.1V72l-3.4.1v-1.9"/><path class="cls-19" d="M625.4 71.6l3.3-.2M628.6 70.1V72l-3.4.1v-1.9"/><path class="cls-26" d="M632.6 70.2v1.6l-3.4.3v-1.9"/><path class="cls-19" d="M629.5 71.4l.4.7M632.1 70.2l.7.4"/><path class="cls-21" d="M632.6 70.2v1.6l-3.4.3v-1.9M629.2 72.1h-4.1"/><path class="cls-26" d="M630.2 133.1l-.1-1.9-3.4.1.1 1.8"/><path class="cls-19" d="M627.1 132.6l3.3-.3M630.2 133.1l-.1-1.9-3.4.1.1 1.8"/><path class="cls-21" d="M624.4 133.3h-5"/><path class="cls-26" d="M634 133v-1.9h-3.3v1.9"/><path class="cls-19" d="M630.9 132.8v.2M633.1 131.1l1.2 1.2"/><path class="cls-21" d="M634 133v-1.9h-3.3v1.9M630.7 131.1l-3.9.3"/><path class="cls-26" d="M145.4 174.1v-7H9v7h136.4"/><g class="cls-24"><path class="cls-19" d="M145.4 168.6l-1.5-1.5M145.4 172.6l-5.5-5.5M142.7 174.1l-6.9-7M138.9 174.1l-7-7M134.8 174.1l-6.9-7M130.7 174.1l-6.9-7M126.7 174.1l-7-7M122.8 174.1l-6.9-7M118.7 174.1l-6.9-7M114.7 174.1l-7-7M110.8 174.1l-6.9-7M106.7 174.1l-6.9-7M102.7 174.1l-7-7M98.8 174.1l-6.9-7M94.7 174.1l-6.9-7M90.7 174.1l-7-7M86.6 174.1l-7-7M82.7 174.1l-6.9-7M78.7 174.1l-7-7M74.6 174.1l-7-7M70.7 174.1l-6.9-7M66.7 174.1l-7-7M62.6 174.1l-7-7M143.9 174.1l1.5-1.5M139.9 174.1l5.5-5.5M135.8 174.1l6.9-7M131.9 174.1l7-7M127.9 174.1l6.9-7M123.8 174.1l6.9-7M119.7 174.1l7-7M115.9 174.1l6.9-7M111.8 174.1l6.9-7M107.7 174.1l7-7M103.9 174.1l6.9-7M99.8 174.1l6.9-7M95.7 174.1l7-7M91.6 174.1l7-7M87.8 174.1l6.9-7M83.7 174.1l7-7M79.6 174.1l7-7M75.8 174.1l6.9-7M71.7 174.1l7-7M67.6 174.1l7-7M63.8 174.1l6.9-7M59.7 174.1l7-7M55.6 174.1l7-7"/></g><path class="cls-26" d="M145.4 174.1v-7H9v7h136.4"/><g class="cls-27"><path class="cls-19" d="M145.4 168.6l-1.5-1.5M145.4 172.6l-5.5-5.5M142.7 174.1l-6.9-7M138.9 174.1l-7-7M134.8 174.1l-6.9-7M130.7 174.1l-6.9-7M126.7 174.1l-7-7M122.8 174.1l-6.9-7M118.7 174.1l-6.9-7M114.7 174.1l-7-7M110.8 174.1l-6.9-7M106.7 174.1l-6.9-7M102.7 174.1l-7-7M98.8 174.1l-6.9-7M94.7 174.1l-6.9-7M90.7 174.1l-7-7M86.6 174.1l-7-7M82.7 174.1l-6.9-7M78.7 174.1l-7-7M74.6 174.1l-7-7M70.7 174.1l-6.9-7M66.7 174.1l-7-7M62.6 174.1l-7-7M143.9 174.1l1.5-1.5M139.9 174.1l5.5-5.5M135.8 174.1l6.9-7M131.9 174.1l7-7M127.9 174.1l6.9-7M123.8 174.1l6.9-7M119.7 174.1l7-7M115.9 174.1l6.9-7M111.8 174.1l6.9-7M107.7 174.1l7-7M103.9 174.1l6.9-7M99.8 174.1l6.9-7M95.7 174.1l7-7M91.6 174.1l7-7M87.8 174.1l6.9-7M83.7 174.1l7-7M79.6 174.1l7-7M75.8 174.1l6.9-7M71.7 174.1l7-7M67.6 174.1l7-7M63.8 174.1l6.9-7M59.7 174.1l7-7M55.6 174.1l7-7M58.6 174.1l-6.9-7M51.7 174.1l6.9-7M51.7 174.1l6.9-7M54.7 174.1l-7-7M47.7 174.1l7-7M50.7 174.1l-7-7M43.7 174.1l7-7M46.7 174.1l-6.9-7M39.8 174.1l6.9-7M42.7 174.1l-6.9-7M35.8 174.1l6.9-7M38.8 174.1l-7-7M31.8 174.1l7-7M34.8 174.1l-6.9-7M27.9 174.1l6.9-7M30.8 174.1l-6.9-7M23.9 174.1l6.9-7M26.9 174.1l-7-7M19.9 174.1l7-7M22.9 174.1l-7-7M15.9 174.1l7-7M18.9 174.1l-6.9-7M12 174.1l6.9-7M15 174.1l-7-7M8 174.1l7-7M11 174.1l-7-7M4 174.1l7-7M7 174.1l-7-7M0 174.1l7-7M7 174.1l-7-7M0 174.1l7-7"/></g><path class="cls-21" d="M9 174.1h136.4M112 167.1h33.4M9 167.1h96.1M112 167.1h33.4M9 174.1h136.4M9 167.1h96.1"/><path class="cls-26" d="M196.5 231.7l7 10.1v-74.7l-7 9.9v54.7"/><path class="cls-19" d="M203.7 170.7l-1.7-1.4M203.7 174.8l-3.4-3.1M203.7 178.6l-5-4.8M203.7 182.7l-6.5-6.5M203.7 186.8l-7-7M203.7 190.6l-7-6.9M203.7 194.7l-7-6.9M203.7 198.8l-7-7M203.7 202.9l-7-7M203.7 206.7l-7-6.9M203.7 210.8l-7-7M203.7 214.9l-7-7M203.7 218.7l-7-6.9M203.7 222.8l-7-7M203.7 226.9l-7-7M203.7 231l-7-7M203.7 234.8l-7-7M203.7 238.9l-6.5-6.5M202.3 239.8l1.4-1.2M200.6 237.4l3.1-2.8M199.1 235l4.6-4.3M197.5 232.9l6.2-6.3M196.7 229.5l7-6.9M196.7 225.4l7-6.9M196.7 221.6l7-7M196.7 217.5l7-6.9M196.7 213.4l7-6.9M196.7 209.6l7-7M196.7 205.5l7-6.9M196.7 201.4l7-6.9M196.7 197.4l7-7M196.7 193.5l7-6.9M196.7 189.4l7-6.9M196.7 185.4l7-7M196.7 181.5l7-6.9M196.7 177.4l7-6.9"/><path class="cls-26" d="M196.5 231.7l7 10.1v-74.7l-7 9.9v54.7"/><path class="cls-19" d="M203.7 170.7l-1.7-1.4M203.7 174.8l-3.4-3.1M203.7 178.6l-5-4.8M203.7 182.7l-6.5-6.5M203.7 186.8l-7-7M203.7 190.6l-7-6.9M203.7 194.7l-7-6.9M203.7 198.8l-7-7M203.7 202.9l-7-7M203.7 206.7l-7-6.9M203.7 210.8l-7-7M203.7 214.9l-7-7M203.7 218.7l-7-6.9M203.7 222.8l-7-7M203.7 226.9l-7-7M203.7 231l-7-7M203.7 234.8l-7-7M203.7 238.9l-6.5-6.5M202.3 239.8l1.4-1.2M200.6 237.4l3.1-2.8M199.1 235l4.6-4.3M197.5 232.9l6.2-6.3M196.7 229.5l7-6.9M196.7 225.4l7-6.9M196.7 221.6l7-7M196.7 217.5l7-6.9M196.7 213.4l7-6.9M196.7 209.6l7-7M196.7 205.5l7-6.9M196.7 201.4l7-6.9M196.7 197.4l7-7M196.7 193.5l7-6.9M196.7 189.4l7-6.9M196.7 185.4l7-7M196.7 181.5l7-6.9M196.7 177.4l7-6.9"/><path class="cls-21" d="M196.5 177v54.7M203.5 167.1v67.7M203.5 167.1v67.7M196.5 177v54.7"/><path class="cls-26" d="M151.1 177l-5.7-9.9v74.7l5.7-10.1V177"/><path class="cls-19" d="M147.8 171l-2.2-2.2M151.4 178.6l-5.8-5.7M151.4 182.5l-5.8-5.8M151.4 186.6l-5.8-5.8M151.4 190.6l-5.8-5.7M151.4 194.5l-5.8-5.8M151.4 198.6l-5.8-5.8M151.4 202.6l-5.8-5.7M151.4 206.5l-5.8-5.8M151.4 210.6l-5.8-5.8M151.4 214.6l-5.8-5.7M151.4 218.7l-5.8-5.7M151.4 222.6l-5.8-5.8M151.4 226.6l-5.8-5.7M151.4 230.7l-5.8-5.7M150.2 233.6l-4.6-4.8M148.7 236l-3.1-3.1M147.3 238.6l-1.7-1.6M145.9 241.3l-.3-.5M145.6 240.6l1.5-1.7M145.6 236.5l5.8-5.8M145.6 232.6l5.8-5.7M145.6 228.6l5.8-5.8M145.6 224.5l5.8-5.8M145.6 220.6l5.8-5.7M145.6 216.6l5.8-5.8M145.6 212.5l5.8-5.8M145.6 208.4l5.8-5.8M145.6 204.6l5.8-5.8M145.6 200.5l5.8-5.8M145.6 196.4l5.8-5.8M145.6 192.6l5.8-5.8M145.6 188.5l5.8-5.8M145.6 184.4l5.8-5.8M145.6 180.6l4.8-5.1M145.6 176.5l3.4-3.6M145.6 172.4l1.9-1.9M145.6 168.3l.3-.5"/><path class="cls-26" d="M151.1 177l-5.7-9.9v74.7l5.7-10.1V177"/><path class="cls-19" d="M147.8 171l-2.2-2.2M151.4 178.6l-5.8-5.7M151.4 182.5l-5.8-5.8M151.4 186.6l-5.8-5.8M151.4 190.6l-5.8-5.7M151.4 194.5l-5.8-5.8M151.4 198.6l-5.8-5.8M151.4 202.6l-5.8-5.7M151.4 206.5l-5.8-5.8M151.4 210.6l-5.8-5.8M151.4 214.6l-5.8-5.7M151.4 218.7l-5.8-5.7M151.4 222.6l-5.8-5.8M151.4 226.6l-5.8-5.7M151.4 230.7l-5.8-5.7M150.2 233.6l-4.6-4.8M148.7 236l-3.1-3.1M147.3 238.6l-1.7-1.6M145.9 241.3l-.3-.5M145.6 240.6l1.5-1.7M145.6 236.5l5.8-5.8M145.6 232.6l5.8-5.7M145.6 228.6l5.8-5.8M145.6 224.5l5.8-5.8M145.6 220.6l5.8-5.7M145.6 216.6l5.8-5.8M145.6 212.5l5.8-5.8M145.6 208.4l5.8-5.8M145.6 204.6l5.8-5.8M145.6 200.5l5.8-5.8M145.6 196.4l5.8-5.8M145.6 192.6l5.8-5.8M145.6 188.5l5.8-5.8M145.6 184.4l5.8-5.8M145.6 180.6l4.8-5.1M145.6 176.5l3.4-3.6M145.6 172.4l1.9-1.9M145.6 168.3l.3-.5"/><path class="cls-21" d="M151.1 231.7V177M145.4 241.8v-67.7M145.4 241.8v-67.7M151.1 231.7V177"/><path class="cls-20" d="M9 213.4h38.2M9 220.9h38.2M9 228.6h38.2M9 236.2h38.2M145.4 236.2h-34.1M145.4 228.6h-34.1M145.4 220.9h-34.1M145.4 213.4h-34.1M71.7 174.1l-7.9 35.5M47.2 208.2h64.1v33.4H47.2zM128.3 236.2l3.9-3.8h-7.7l3.8 3.8zM52.5 208.2v-34.1M60.2 208.2v-34.1M67.9 208.2v-34.1M75.5 208.2v-34.1M83.2 208.2v-34.1M90.9 208.2v-34.1M98.6 208.2v-34.1M106.3 208.2v-34.1"/><path class="cls-20" d="M48.7 209.6h61.2v30.5H48.7zM106.3 191.1l-3.9-3.8v7.7l3.9-3.9zM67.9 191.1l-3.9-3.8v7.7l3.9-3.9z"/><path class="cls-26" d="M151.1 231.7l-5.7 10.1h15.3v-10.1h-9.6"/><path class="cls-19" d="M161 232.2l-.7-.5M161 236.2l-4.6-4.5M161 240.3l-8.7-8.6M158.3 241.8l-8.1-8.2M154.3 241.8l-5.6-5.8M150.4 241.8l-3.1-3.2M146.3 241.8l-.4-.5M160.3 241.8l.7-.5M156.4 241.8l4.6-4.6M152.3 241.8l8.7-8.7M148.3 241.8l10-10.1M147.1 238.9l7.4-7.2"/><path class="cls-26" d="M151.1 231.7l-5.7 10.1h15.3v-10.1h-9.6"/><path class="cls-19" d="M161 232.2l-.7-.5M161 236.2l-4.6-4.5M161 240.3l-8.7-8.6M158.3 241.8l-8.1-8.2M154.3 241.8l-5.6-5.8M150.4 241.8l-3.1-3.2M146.3 241.8l-.4-.5M160.3 241.8l.7-.5M156.4 241.8l4.6-4.6M152.3 241.8l8.7-8.7M148.3 241.8l10-10.1M147.1 238.9l7.4-7.2"/><path class="cls-21" d="M160.7 231.7h-9.6M160.7 241.8h-15.3M160.7 241.8h-15.3M160.7 231.7h-9.6"/><path class="cls-26" d="M196.5 241.8h7l-7-10.1v10.1"/><path class="cls-19" d="M197.2 232.4l-.5-.5M202.5 241.8l-5.8-5.8M198.4 241.8l-1.7-2M200.3 241.8l2-2M196.7 241.5l3.9-4.1M196.7 237.7l2.4-2.7M196.7 233.6l.8-.7"/><path class="cls-26" d="M196.5 241.8h7l-7-10.1v10.1"/><path class="cls-19" d="M197.2 232.4l-.5-.5M202.5 241.8l-5.8-5.8M198.4 241.8l-1.7-2M200.3 241.8l2-2M196.7 241.5l3.9-4.1M196.7 237.7l2.4-2.7M196.7 233.6l.8-.7"/><path class="cls-21" d="M203.5 241.8h-7M203.5 241.8h-7"/><path class="cls-20" d="M193.4 233.1h-29.5"/><path class="cls-1" d="M193.4 241.8h-29.5"/><path class="cls-20" d="M164.3 241.8h-.4"/><path class="cls-26" d="M196.5 241.8h-3.1v-8.7h3.1"/><path class="cls-19" d="M196.7 236l-2.8-2.9M196.7 239.8l-3.1-3.1M194.3 241.8l-.7-1M196.5 241.8l.2-.3M193.6 240.8l3.1-3.1M193.6 236.7l3.1-3.1"/><path class="cls-26" d="M160.7 241.8h3.2v-8.7h-3.2"/><path class="cls-19" d="M164.1 235.3l-2.4-2.2M164.1 239.4l-3.1-3.2M162.4 241.8l-1.4-1.5M161 241.3l3.1-3.1M161 237.2l3.1-3.1M161 233.1"/><path class="cls-21" d="M193.4 241.8v-8.7M163.9 241.8v-8.7M193.4 241.8v-8.7M196.5 241.8h-3.1M163.9 241.8v-8.7M160.7 241.8h3.2M196.5 231.7v1.4M160.7 231.7v1.4M196.5 241.8h-3.1M160.7 241.8h3.2M193.4 233.1h3.1M163.9 233.1h-3.2"/><path class="cls-26" d="M196.5 177l7-9.9h-58.1l5.7 9.9h45.4"/><path class="cls-19" d="M202 169.3l-1.9-2.2M200.3 171.7l-4.3-4.6M198.7 173.8l-6.8-6.7M197.2 176.2l-9.3-9.1M193.9 177l-9.9-9.9M189.8 177l-9.9-9.9M185.7 177l-9.8-9.9M181.9 177l-9.9-9.9M177.8 177l-9.9-9.9M173.7 177l-9.8-9.9M169.9 177l-9.9-9.9M165.8 177l-9.9-9.9M161.7 177l-9.8-9.9M157.6 177l-9.8-9.9M153.8 177l-6-6M193.1 177l9.9-9.9M189.1 177l9.8-9.9M185 177l9.8-9.9M181.1 177l9.9-9.9M177.1 177l9.8-9.9M173 177l9.8-9.9M169.1 177l9.9-9.9M165.1 177l9.8-9.9M161 177l9.8-9.9M156.9 177l9.8-9.9M153.1 177l9.8-9.9M150.4 175.5l8.4-8.4M149 172.9l5.7-5.8M147.5 170.5l3.4-3.4M145.9 167.8l.9-.7"/><path class="cls-26" d="M196.5 177l7-9.9h-58.1l5.7 9.9h45.4"/><path class="cls-19" d="M202 169.3l-1.9-2.2M200.3 171.7l-4.3-4.6M198.7 173.8l-6.8-6.7M197.2 176.2l-9.3-9.1M193.9 177l-9.9-9.9M189.8 177l-9.9-9.9M185.7 177l-9.8-9.9M181.9 177l-9.9-9.9M177.8 177l-9.9-9.9M173.7 177l-9.8-9.9M169.9 177l-9.9-9.9M165.8 177l-9.9-9.9M161.7 177l-9.8-9.9M157.6 177l-9.8-9.9M153.8 177l-6-6M193.1 177l9.9-9.9M189.1 177l9.8-9.9M185 177l9.8-9.9M181.1 177l9.9-9.9M177.1 177l9.8-9.9M173 177l9.8-9.9M169.1 177l9.9-9.9M165.1 177l9.8-9.9M161 177l9.8-9.9M156.9 177l9.8-9.9M153.1 177l9.8-9.9M150.4 175.5l8.4-8.4M149 172.9l5.7-5.8M147.5 170.5l3.4-3.4M145.9 167.8l.9-.7"/><path class="cls-21" d="M151.1 177h45.4M145.4 167.1h58.1M145.4 167.1h58.1M151.1 177h45.4"/><path class="cls-26" d="M105.1 52.4v114.7h6.9V52.4h-6.9"/><path class="cls-19" d="M112.3 55.3l-2.9-2.9M112.3 59.1l-7-6.7M112.3 63.2l-7-7M112.3 67.3l-7-7M112.3 71.4l-7-7M112.3 75.2l-7-7M112.3 79.3l-7-7M112.3 83.4l-7-7M112.3 87.2l-7-7M112.3 91.3l-7-7M112.3 95.4l-7-7M112.3 99.2l-7-7M112.3 103.3l-7-7M112.3 107.4l-7-7M112.3 111.4l-7-6.9M112.3 115.3l-7-7M112.3 119.4l-7-7M112.3 123.4l-7-6.9M112.3 127.3l-7-7M112.3 131.4l-7-7M112.3 135.4l-7-6.9M112.3 139.5l-7-6.9M112.3 143.4l-7-7M112.3 147.4l-7-6.9M112.3 151.5l-7-6.9M112.3 155.4l-7-7M112.3 159.4l-7-6.9M112.3 163.5l-7-6.9M111.8 167.1l-6.5-6.7M107.7 167.1l-2.4-2.6M110.8 167.1l1.5-1.4M106.7 167.1l5.6-5.5M105.3 164.7l7-6.9M105.3 160.6l7-6.9M105.3 156.6l7-7M105.3 152.7l7-6.9M105.3 148.6l7-6.9M105.3 144.6l7-7M105.3 140.5l7-7M105.3 136.6l7-6.9M105.3 132.6l7-7M105.3 128.5l7-7M105.3 124.6l7-6.9M105.3 120.6l7-7M105.3 116.5l7-7M105.3 112.6l7-6.9M105.3 108.6l7-7M105.3 104.5l7-7M105.3 100.4l7-7M105.3 96.6l7-7M105.3 92.5l7-7M105.3 88.4l7-7M105.3 84.6l7-7M105.3 80.5l7-7M105.3 76.4l7-7M105.3 72.3l7-6.9M105.3 68.5l7-7M105.3 64.4l7-7M105.3 60.3l7-6.9M105.3 56.5l3.8-4.1"/><path class="cls-26" d="M105.1 52.4v114.7h6.9V52.4h-6.9"/><path class="cls-19" d="M112.3 55.3l-2.9-2.9M112.3 59.1l-7-6.7M112.3 63.2l-7-7M112.3 67.3l-7-7M112.3 71.4l-7-7M112.3 75.2l-7-7M112.3 79.3l-7-7M112.3 83.4l-7-7M112.3 87.2l-7-7M112.3 91.3l-7-7M112.3 95.4l-7-7M112.3 99.2l-7-7M112.3 103.3l-7-7M112.3 107.4l-7-7M112.3 111.4l-7-6.9M112.3 115.3l-7-7M112.3 119.4l-7-7M112.3 123.4l-7-6.9M112.3 127.3l-7-7M112.3 131.4l-7-7M112.3 135.4l-7-6.9M112.3 139.5l-7-6.9M112.3 143.4l-7-7M112.3 147.4l-7-6.9M112.3 151.5l-7-6.9M112.3 155.4l-7-7M112.3 159.4l-7-6.9M112.3 163.5l-7-6.9M111.8 167.1l-6.5-6.7M107.7 167.1l-2.4-2.6M110.8 167.1l1.5-1.4M106.7 167.1l5.6-5.5M105.3 164.7l7-6.9M105.3 160.6l7-6.9M105.3 156.6l7-7M105.3 152.7l7-6.9M105.3 148.6l7-6.9M105.3 144.6l7-7M105.3 140.5l7-7M105.3 136.6l7-6.9M105.3 132.6l7-7M105.3 128.5l7-7M105.3 124.6l7-6.9M105.3 120.6l7-7M105.3 116.5l7-7M105.3 112.6l7-6.9M105.3 108.6l7-7M105.3 104.5l7-7M105.3 100.4l7-7M105.3 96.6l7-7M105.3 92.5l7-7M105.3 88.4l7-7M105.3 84.6l7-7M105.3 80.5l7-7M105.3 76.4l7-7M105.3 72.3l7-6.9M105.3 68.5l7-7M105.3 64.4l7-7M105.3 60.3l7-6.9M105.3 56.5l3.8-4.1"/><path class="cls-21" d="M112 167.1V52.4M105.1 167.1V52.4M112 52.4h-6.9M105.1 167.1V52.4M112 167.1V52.4"/><path class="cls-26" d="M233.5 57.4v109.7l4.3 4.1V57.4h-4.3"/><path class="cls-19" d="M233.7 59.8l2.2-2.4M233.7 63.9l4.3-4.3M233.7 68.2l4.3-4.3M233.7 72.6l4.3-4.4M233.7 76.9l4.3-4.3M233.7 81l4.3-4.4M233.7 85.3L238 81M233.7 89.6l4.3-4.3M233.7 93.7l4.3-4.3M233.7 98l4.3-4.3M233.7 102.3L238 98M233.7 106.6l4.3-4.3M233.7 110.7l4.3-4.3M233.7 115l4.3-4.3M233.7 119.4l4.3-4.4M233.7 123.4l4.3-4.3M233.7 127.8l4.3-4.4M233.7 132.1l4.3-4.3M233.7 136.4l4.3-4.3M233.7 140.5l4.3-4.3M233.7 144.8l4.3-4.3M233.7 149.1l4.3-4.3M233.7 153.2l4.3-4.3M233.7 157.5l4.3-4.3M233.7 161.8l4.3-4.3M233.7 165.9l4.3-4.3M235.1 168.6l2.9-2.7M237.3 170.7l.7-.5"/><path class="cls-26" d="M233.5 57.4v109.7l4.3 4.1V57.4h-4.3"/><path class="cls-19" d="M233.7 59.8l2.2-2.4M233.7 63.9l4.3-4.3M233.7 68.2l4.3-4.3M233.7 72.6l4.3-4.4M233.7 76.9l4.3-4.3M233.7 81l4.3-4.4M233.7 85.3L238 81M233.7 89.6l4.3-4.3M233.7 93.7l4.3-4.3M233.7 98l4.3-4.3M233.7 102.3L238 98M233.7 106.6l4.3-4.3M233.7 110.7l4.3-4.3M233.7 115l4.3-4.3M233.7 119.4l4.3-4.4M233.7 123.4l4.3-4.3M233.7 127.8l4.3-4.4M233.7 132.1l4.3-4.3M233.7 136.4l4.3-4.3M233.7 140.5l4.3-4.3M233.7 144.8l4.3-4.3M233.7 149.1l4.3-4.3M233.7 153.2l4.3-4.3M233.7 157.5l4.3-4.3M233.7 161.8l4.3-4.3M233.7 165.9l4.3-4.3M235.1 168.6l2.9-2.7M237.3 170.7l.7-.5"/><path class="cls-21" d="M237.8 171.2V57.4M233.5 167.1V57.4M237.8 57.4h-4.3M233.5 167.1V57.4M237.8 171.2V57.4"/><path class="cls-26" d="M237.8 171.2l-4.3-4.1h-3.4v4.1h7.7"/><path class="cls-19" d="M230.3 169.3l2.2-2.2M232.7 171.2l2.4-2.6M236.8 171.2l.5-.5"/><path class="cls-26" d="M237.8 171.2l-4.3-4.1h-3.4v4.1h7.7"/><path class="cls-19" d="M230.3 169.3l2.2-2.2M232.7 171.2l2.4-2.6M236.8 171.2l.5-.5"/><path class="cls-21" d="M230.1 171.2h7.7M230.1 167.1h3.4M230.1 167.1h3.4M230.1 171.2h7.7M203.5 167.1v4.1"/><path class="cls-1" d="M203.5 171.2h26.6M203.5 167.1h26.6"/><path class="cls-20" d="M205.6 171.2v-4.1M228.2 171.2v-4.1"/><path class="cls-21" d="M203.5 171.2v-4.1M230.1 171.2v-4.1"/><path class="cls-19" d="M228.2 144.3c-12.4 0-22.7 10.2-22.7 22.7M228.2 167.1v-22.8"/><path class="cls-26" d="M277.6 173.1h-4.3V151h4.3v22.1"/><path class="cls-19" d="M273.5 151.8l.5-.8M273.5 155.8l4.4-4.3M273.5 160.2l4.4-4.4M273.5 164.5l4.4-4.3M273.5 168.8l4.4-4.3M273.5 172.9l4.4-4.3M277.4 173.1l.5-.2"/><path class="cls-26" d="M273.3 173.1h4.3V151h-4.3v22.1"/><path class="cls-19" d="M273.5 151.8l.5-.8M273.5 155.8l4.4-4.3M273.5 160.2l4.4-4.4M273.5 164.5l4.4-4.3M273.5 168.8l4.4-4.3M273.5 172.9l4.4-4.3M277.4 173.1l.5-.2"/><path class="cls-21" d="M277.6 161.1V151M277.6 173.1v-7.2M273.3 173.1V151M277.6 151h-4.3M273.3 173.1V151M277.6 161.1V151M277.6 173.1v-7.2"/><path class="cls-26" d="M277.6 218.5h-4.3v-20.2h4.3v20.2"/><path class="cls-19" d="M273.5 198.6v-.3M273.5 202.6l4.4-4.3M273.5 207l4.4-4.4M273.5 211.3l4.4-4.3M273.5 215.4l4.4-4.4M274.7 218.5l3.2-3.1"/><path class="cls-26" d="M273.3 218.5h4.3v-20.2h-4.3v20.2"/><path class="cls-19" d="M273.5 198.6v-.3M273.5 202.6l4.4-4.3M273.5 207l4.4-4.4M273.5 211.3l4.4-4.3M273.5 215.4l4.4-4.4M274.7 218.5l3.2-3.1"/><path class="cls-21" d="M277.6 218.5v-20.2M273.3 218.5v-20.2M273.3 218.5v-20.2M277.6 218.5v-20.2M277.6 218.5h-4.3"/><path class="cls-1" d="M277.6 198.3v-25.2M273.3 198.3v-25.2"/><path class="cls-20" d="M277.6 197.1h-4.3M277.6 174.3h-4.3"/><path class="cls-21" d="M277.6 198.3h-4.3M277.6 173.1h-4.3"/><path class="cls-19" d="M277.7 197c12.4 0 22.7-10.2 22.7-22.7M277.6 174.3h22.8"/><path class="cls-20" d="M233.2 234.1h6v1.9h-6zM203.5 234.1h2.6v1.9h-2.6zM206.1 234.1h27.1v1.9h-27.1zM233.2 236h-27.1"/><path class="cls-1" d="M233.5 241.8h-27.6"/><path class="cls-20" d="M206.3 241.8h-.4"/><path class="cls-26" d="M239.2 241.8h-5.7V236h5.7"/><path class="cls-19" d="M239.5 238.6l-2.7-2.6M238.5 241.8l-4.8-5.1M234.7 241.8l-1-1M236.6 241.8l2.9-2.9M233.7 240.8l4.6-4.8M233.7 236.7l.5-.7"/><path class="cls-26" d="M203.5 241.8h2.4V236h-2.4"/><path class="cls-19" d="M206.1 237.2l-1.4-1.2M206.1 241.3l-2.4-2.4M204.4 241.8l1.7-1.5M203.7 238.6l2.4-2.4"/><path class="cls-21" d="M233.5 241.8V236M205.9 241.8V236M233.5 241.8V236M239.2 241.8h-5.7M205.9 241.8V236M203.5 241.8h2.4M239.2 234.8v1.2M203.5 234.8v1.2M239.2 241.8h-5.7M203.5 241.8h2.4M233.5 236h5.7M205.9 236h-2.4"/><path class="cls-19" d="M233.3 234.2c0-14.9-12.3-27.2-27.2-27.2M206.1 234.1V207"/><path class="cls-26" d="M301.1 225.4l7.2-6.9h-69.1l7.2 6.9h54.7"/><path class="cls-19" d="M307.9 219l-.5-.5M305.9 220.9l-2.4-2.4M303.8 222.8l-4.3-4.3M301.9 225l-6.5-6.5M298.5 225.4l-7-6.9M294.4 225.4l-6.9-6.9M290.3 225.4l-6.9-6.9M286.3 225.4l-7-6.9M282.4 225.4l-6.9-6.9M278.3 225.4l-6.9-6.9M274.3 225.4l-7-6.9M270.4 225.4l-6.9-6.9M266.3 225.4l-6.9-6.9M262.3 225.4l-7-6.9M258.4 225.4l-6.9-6.9M254.3 225.4l-6.9-6.9M250.3 225.4l-7-6.9M300.9 225.4l7-6.9M296.8 225.4l7-6.9M293 225.4l6.9-6.9M288.9 225.4l7-6.9M284.8 225.4l7-6.9M281 225.4l6.9-6.9M276.9 225.4l7-6.9M272.8 225.4l7-6.9M269 225.4l6.9-6.9M264.9 225.4l7-6.9M260.8 225.4l7-6.9M256.7 225.4l7-6.9M252.9 225.4l7-6.9M248.8 225.4l7-6.9M245.7 224.5l6-6M243.5 222.6l4.4-4.1M241.6 220.6l2.2-2.1M239.5 218.7l.2-.2"/><path class="cls-26" d="M301.1 225.4l7.2-6.9h-69.1l7.2 6.9h54.7"/><path class="cls-19" d="M307.9 219l-.5-.5M305.9 220.9l-2.4-2.4M303.8 222.8l-4.3-4.3M301.9 225l-6.5-6.5M298.5 225.4l-7-6.9M294.4 225.4l-6.9-6.9M290.3 225.4l-6.9-6.9M286.3 225.4l-7-6.9M282.4 225.4l-6.9-6.9M278.3 225.4l-6.9-6.9M274.3 225.4l-7-6.9M270.4 225.4l-6.9-6.9M266.3 225.4l-6.9-6.9M262.3 225.4l-7-6.9M258.4 225.4l-6.9-6.9M254.3 225.4l-6.9-6.9M250.3 225.4l-7-6.9M300.9 225.4l7-6.9M296.8 225.4l7-6.9M293 225.4l6.9-6.9M288.9 225.4l7-6.9M284.8 225.4l7-6.9M281 225.4l6.9-6.9M276.9 225.4l7-6.9M272.8 225.4l7-6.9M269 225.4l6.9-6.9M264.9 225.4l7-6.9M260.8 225.4l7-6.9M256.7 225.4l7-6.9M252.9 225.4l7-6.9M248.8 225.4l7-6.9M245.7 224.5l6-6M243.5 222.6l4.4-4.1M241.6 220.6l2.2-2.1M239.5 218.7l.2-.2"/><path class="cls-21" d="M246.4 225.4h54.7M239.2 218.5h69.1M239.2 218.5h69.1M246.4 225.4h54.7"/><path class="cls-26" d="M308.3 218.5l-7.2 6.9V243l7.2-7v-17.5"/><path class="cls-19" d="M308.6 219.4l-.7-.4M308.6 223.5l-2.7-2.6M308.6 227.6l-4.8-4.8M308.6 231.4l-6.7-6.4M308.6 235.5l-7.2-7.2M306.7 237.7l-5.3-5.3M304.7 239.6l-3.3-3.4M302.6 241.8l-1.2-1.5M301.4 241l7.2-7.2M301.4 237.2l7.2-7.2M301.4 233.1l7.2-7.2M301.4 229l7.2-7.2"/><path class="cls-26" d="M308.3 218.5l-7.2 6.9V243l7.2-7v-17.5"/><path class="cls-19" d="M308.6 219.4l-.7-.4M308.6 223.5l-2.7-2.6M308.6 227.6l-4.8-4.8M308.6 231.4l-6.7-6.4M308.6 235.5l-7.2-7.2M306.7 237.7l-5.3-5.3M304.7 239.6l-3.3-3.4M302.6 241.8l-1.2-1.5M301.4 241l7.2-7.2M301.4 237.2l7.2-7.2M301.4 233.1l7.2-7.2M301.4 229l7.2-7.2"/><path class="cls-21" d="M308.3 236v-17.5M301.1 243v-17.6M301.1 243v-17.6M308.3 236v-17.5"/><path class="cls-26" d="M371.9 168.1l-6.9-7V236l6.9 7v-74.9"/><path class="cls-19" d="M372.2 170.7l-7-6.9M372.2 174.8l-7-7M372.2 178.9l-7-7M372.2 183l-7-7M372.2 186.8l-7-7M372.2 190.9l-7-7M372.2 195l-7-7M372.2 198.8l-7-7M372.2 202.9l-7-7M372.2 207l-7-7M372.2 210.8l-7-7M372.2 214.9l-7-7M372.2 219l-7-7M372.2 223l-7-6.9M372.2 226.9l-7-7M372.2 231l-7-7M372.2 235l-7-6.9M372.2 238.9l-7-7M371.9 242.7l.3-.2M369.8 240.8l2.4-2.4M367.9 238.6l4.3-4M365.9 236.7l6.3-6.2M365.2 233.4l7-7M365.2 229.5l7-6.9M365.2 225.4l7-6.9M365.2 221.4l7-7M365.2 217.5l7-6.9M365.2 213.4l7-6.9M365.2 209.4l7-7M365.2 205.3l7-7M365.2 201.4l7-6.9M365.2 197.4l7-7M365.2 193.3l7-7M365.2 189.4l7-6.9M365.2 185.4l7-7M365.2 181.3l7-7M365.2 177.2l7-7M365.2 173.4l6-6.3M365.2 169.3l4.1-4.1M365.2 165.2l1.9-1.9M365.2 161.4v-.3"/><path class="cls-26" d="M371.9 168.1l-6.9-7V236l6.9 7v-74.9"/><path class="cls-19" d="M372.2 170.7l-7-6.9M372.2 174.8l-7-7M372.2 178.9l-7-7M372.2 183l-7-7M372.2 186.8l-7-7M372.2 190.9l-7-7M372.2 195l-7-7M372.2 198.8l-7-7M372.2 202.9l-7-7M372.2 207l-7-7M372.2 210.8l-7-7M372.2 214.9l-7-7M372.2 219l-7-7M372.2 223l-7-6.9M372.2 226.9l-7-7M372.2 231l-7-7M372.2 235l-7-6.9M372.2 238.9l-7-7M371.9 242.7l.3-.2M369.8 240.8l2.4-2.4M367.9 238.6l4.3-4M365.9 236.7l6.3-6.2M365.2 233.4l7-7M365.2 229.5l7-6.9M365.2 225.4l7-6.9M365.2 221.4l7-7M365.2 217.5l7-6.9M365.2 213.4l7-6.9M365.2 209.4l7-7M365.2 205.3l7-7M365.2 201.4l7-6.9M365.2 197.4l7-7M365.2 193.3l7-7M365.2 189.4l7-6.9M365.2 185.4l7-7M365.2 181.3l7-7M365.2 177.2l7-7M365.2 173.4l6-6.3M365.2 169.3l4.1-4.1M365.2 165.2l1.9-1.9M365.2 161.4v-.3"/><path class="cls-21" d="M371.9 243v-74.9M365 236v-74.9M365 236v-74.9M371.9 243v-74.9"/><path class="cls-26" d="M371.9 243l-6.9-7h-56.7l-7.2 7h70.8"/><path class="cls-19" d="M371.9 243l-6.9-7M368.1 243l-7-7M364 243l-6.9-7M359.9 243l-6.9-7M356.1 243l-7-7M352 243l-6.9-7M347.9 243l-6.9-7M344.1 243l-7-7M340 243l-6.9-7M335.9 243l-6.9-7M331.9 243l-7-7M328 243l-6.9-7M323.9 243l-6.9-7M319.9 243l-7-7M316 243l-6.9-7M311.9 243l-5.2-5.3M307.9 243l-3.2-3.4M303.8 243l-1.2-1.2M371.7 243l.2-.3M367.6 243l2.2-2.2M363.5 243l4.4-4.4M359.7 243l6.2-6.3M355.6 243l7-7M351.5 243l7-7M347.5 243l6.9-7M343.6 243l7-7M339.5 243l7-7M335.5 243l6.9-7M331.6 243l7-7M327.5 243l7-7M323.5 243l6.9-7M319.6 243l7-7M315.5 243l7-7M311.5 243l6.9-7M307.4 243l6.9-7M303.5 243l7-7"/><path class="cls-26" d="M371.9 243l-6.9-7h-56.7l-7.2 7h70.8"/><path class="cls-19" d="M371.9 243l-6.9-7M368.1 243l-7-7M364 243l-6.9-7M359.9 243l-6.9-7M356.1 243l-7-7M352 243l-6.9-7M347.9 243l-6.9-7M344.1 243l-7-7M340 243l-6.9-7M335.9 243l-6.9-7M331.9 243l-7-7M328 243l-6.9-7M323.9 243l-6.9-7M319.9 243l-7-7M316 243l-6.9-7M311.9 243l-5.2-5.3M307.9 243l-3.2-3.4M303.8 243l-1.2-1.2M371.7 243l.2-.3M367.6 243l2.2-2.2M363.5 243l4.4-4.4M359.7 243l6.2-6.3M355.6 243l7-7M351.5 243l7-7M347.5 243l6.9-7M343.6 243l7-7M339.5 243l7-7M335.5 243l6.9-7M331.6 243l7-7M327.5 243l7-7M323.5 243l6.9-7M319.6 243l7-7M315.5 243l7-7M311.5 243l6.9-7M307.4 243l6.9-7M303.5 243l7-7"/><path class="cls-21" d="M301.1 243h70.8M308.3 236H365M308.3 236H365M301.1 243h70.8"/><path class="cls-26" d="M489.3 168.1l-7-7H365l6.9 7h117.4"/><path class="cls-19" d="M485.5 168.1l-7-7M481.6 168.1l-6.9-7M477.5 168.1l-6.9-7M473.5 168.1l-7-7M469.6 168.1l-6.9-7M465.5 168.1l-6.9-7M461.5 168.1l-7-7M457.6 168.1l-6.9-7M453.5 168.1l-6.9-7M449.5 168.1l-7-7M445.4 168.1l-7-7M441.5 168.1l-6.9-7M437.5 168.1l-7-7M433.4 168.1l-7-7M429.5 168.1l-6.9-7M425.5 168.1l-7-7M421.4 168.1l-7-7M417.5 168.1l-6.9-7M413.5 168.1l-7-7M409.4 168.1l-7-7M405.3 168.1l-7-7M401.5 168.1l-7-7M397.4 168.1l-7-7M393.3 168.1l-7-7M389.5 168.1l-7-7M385.4 168.1l-7-7M381.3 168.1l-7-7M377.2 168.1l-6.9-7M373.4 168.1l-7-7M486.7 168.1l1.4-1.5M482.6 168.1l3.3-3.4M478.5 168.1l5.5-5.5M474.7 168.1l6.9-7M470.6 168.1l6.9-7M466.5 168.1l7-7M462.4 168.1l7-7M458.6 168.1l6.9-7M454.5 168.1l7-7M450.4 168.1l7-7M446.6 168.1l6.9-7M442.5 168.1l7-7M438.4 168.1l7-7M434.6 168.1l6.9-7M430.5 168.1l7-7M426.4 168.1l7-7M422.3 168.1l7-7M418.5 168.1l7-7M414.4 168.1l7-7M410.3 168.1l7-7M406.5 168.1l7-7M402.4 168.1l7-7M398.3 168.1l7-7M394.5 168.1l7-7M390.4 168.1l7-7M386.3 168.1l7-7M382.3 168.1l6.9-7M378.4 168.1l7-7M374.3 168.1l7-7M371.2 167.1l6-6M369.3 165.2l4.1-4.1M367.1 163.3l2.2-2.2M365.2 161.1"/><path class="cls-26" d="M489.3 168.1l-7-7H365l6.9 7h117.4"/><path class="cls-19" d="M485.5 168.1l-7-7M481.6 168.1l-6.9-7M477.5 168.1l-6.9-7M473.5 168.1l-7-7M469.6 168.1l-6.9-7M465.5 168.1l-6.9-7M461.5 168.1l-7-7M457.6 168.1l-6.9-7M453.5 168.1l-6.9-7M449.5 168.1l-7-7M445.4 168.1l-7-7M441.5 168.1l-6.9-7M437.5 168.1l-7-7M433.4 168.1l-7-7M429.5 168.1l-6.9-7M425.5 168.1l-7-7M421.4 168.1l-7-7M417.5 168.1l-6.9-7M413.5 168.1l-7-7M409.4 168.1l-7-7M405.3 168.1l-7-7M401.5 168.1l-7-7M397.4 168.1l-7-7M393.3 168.1l-7-7M389.5 168.1l-7-7M385.4 168.1l-7-7M381.3 168.1l-7-7M377.2 168.1l-6.9-7M373.4 168.1l-7-7M486.7 168.1l1.4-1.5M482.6 168.1l3.3-3.4M478.5 168.1l5.5-5.5M474.7 168.1l6.9-7M470.6 168.1l6.9-7M466.5 168.1l7-7M462.4 168.1l7-7M458.6 168.1l6.9-7M454.5 168.1l7-7M450.4 168.1l7-7M446.6 168.1l6.9-7M442.5 168.1l7-7M438.4 168.1l7-7M434.6 168.1l6.9-7M430.5 168.1l7-7M426.4 168.1l7-7M422.3 168.1l7-7M418.5 168.1l7-7M414.4 168.1l7-7M410.3 168.1l7-7M406.5 168.1l7-7M402.4 168.1l7-7M398.3 168.1l7-7M394.5 168.1l7-7M390.4 168.1l7-7M386.3 168.1l7-7M382.3 168.1l6.9-7M378.4 168.1l7-7M374.3 168.1l7-7M371.2 167.1l6-6M369.3 165.2l4.1-4.1M367.1 163.3l2.2-2.2M365.2 161.1"/><path class="cls-21" d="M371.9 168.1h117.4M365 161.1h117.3M365 161.1h117.3M371.9 168.1h117.4"/><path class="cls-26" d="M624.7 142.6H482.3l7 7h135.4v-7"/><path class="cls-19" d="M624.9 142.9l-.5-.3M624.9 147l-4.3-4.4M623.5 149.6l-7-7M619.4 149.6l-7-7M615.5 149.6l-6.9-7M611.5 149.6l-7-7M607.4 149.6l-7-7M603.3 149.6l-7-7M599.5 149.6l-7-7M595.4 149.6l-7-7M591.3 149.6l-7-7M587.5 149.6l-7-7M583.4 149.6l-7-7M579.3 149.6l-7-7M575.2 149.6l-6.9-7M571.4 149.6l-7-7M567.3 149.6l-7-7M563.2 149.6l-6.9-7M559.4 149.6l-7-7M555.3 149.6l-7-7M551.2 149.6l-6.9-7M547.4 149.6l-7-7M543.3 149.6l-7-7M539.2 149.6l-6.9-7M535.1 149.6l-6.9-7M531.3 149.6l-7-7M527.2 149.6l-6.9-7M523.1 149.6l-6.9-7M519.3 149.6l-7-7M515.2 149.6l-6.9-7M511.1 149.6l-6.9-7M507.3 149.6l-7-7M503.2 149.6l-6.9-7M499.1 149.6l-6.9-7M495.1 149.6l-7-7M491.2 149.6l-6.9-7M621.3 149.6l3.6-3.4M617.2 149.6l7-7M613.4 149.6l6.9-7M609.3 149.6l7-7M605.2 149.6l7-7M601.4 149.6l6.9-7M597.3 149.6l7-7M593.2 149.6l7-7M589.1 149.6l7-7M585.3 149.6l7-7M581.2 149.6l7-7M577.1 149.6l7-7M573.3 149.6l7-7M569.2 149.6l7-7M565.1 149.6l7-7M561.3 149.6l7-7M557.2 149.6l7-7M553.1 149.6l7-7M549.1 149.6l6.9-7M545.2 149.6l7-7M541.1 149.6l7-7M537.1 149.6l6.9-7M533.2 149.6l7-7M529.1 149.6l7-7M525.1 149.6l6.9-7M521.2 149.6l7-7M517.1 149.6l7-7M513.1 149.6l6.9-7M509 149.6l6.9-7M505.1 149.6l7-7M501.1 149.6l6.9-7M497 149.6l6.9-7M493.1 149.6l7-7M489.3 149.4l6.7-6.8M487.1 147.4l4.8-4.8M485.2 145.3l2.7-2.7M483.3 143.4l.7-.8"/><path class="cls-26" d="M624.7 142.6H482.3l7 7h135.4v-7"/><path class="cls-19" d="M624.9 142.9l-.5-.3M624.9 147l-4.3-4.4M623.5 149.6l-7-7M619.4 149.6l-7-7M615.5 149.6l-6.9-7M611.5 149.6l-7-7M607.4 149.6l-7-7M603.3 149.6l-7-7M599.5 149.6l-7-7M595.4 149.6l-7-7M591.3 149.6l-7-7M587.5 149.6l-7-7M583.4 149.6l-7-7M579.3 149.6l-7-7M575.2 149.6l-6.9-7M571.4 149.6l-7-7M567.3 149.6l-7-7M563.2 149.6l-6.9-7M559.4 149.6l-7-7M555.3 149.6l-7-7M551.2 149.6l-6.9-7M547.4 149.6l-7-7M543.3 149.6l-7-7M539.2 149.6l-6.9-7M535.1 149.6l-6.9-7M531.3 149.6l-7-7M527.2 149.6l-6.9-7M523.1 149.6l-6.9-7M519.3 149.6l-7-7M515.2 149.6l-6.9-7M511.1 149.6l-6.9-7M507.3 149.6l-7-7M503.2 149.6l-6.9-7M499.1 149.6l-6.9-7M495.1 149.6l-7-7M491.2 149.6l-6.9-7M621.3 149.6l3.6-3.4M617.2 149.6l7-7M613.4 149.6l6.9-7M609.3 149.6l7-7M605.2 149.6l7-7M601.4 149.6l6.9-7M597.3 149.6l7-7M593.2 149.6l7-7M589.1 149.6l7-7M585.3 149.6l7-7M581.2 149.6l7-7M577.1 149.6l7-7M573.3 149.6l7-7M569.2 149.6l7-7M565.1 149.6l7-7M561.3 149.6l7-7M557.2 149.6l7-7M553.1 149.6l7-7M549.1 149.6l6.9-7M545.2 149.6l7-7M541.1 149.6l7-7M537.1 149.6l6.9-7M533.2 149.6l7-7M529.1 149.6l7-7M525.1 149.6l6.9-7M521.2 149.6l7-7M517.1 149.6l7-7M513.1 149.6l6.9-7M509 149.6l6.9-7M505.1 149.6l7-7M501.1 149.6l6.9-7M497 149.6l6.9-7M493.1 149.6l7-7M489.3 149.4l6.7-6.8M487.1 147.4l4.8-4.8M485.2 145.3l2.7-2.7M483.3 143.4l.7-.8"/><path class="cls-21" d="M489.3 149.6h135.4M486.7 142.6h138M624.7 149.6v-7M486.7 142.6h138M489.3 149.6h135.4M482.3 142.6h4.4"/><path class="cls-26" d="M482.3 161.1l7 7v-18.5l-7-7v18.5"/><path class="cls-19" d="M489.5 152l-6.9-7M489.5 155.8l-6.9-6.9M489.5 159.9l-6.9-6.9M489.5 164l-6.9-7M489.5 167.8l-6.9-6.9M488.1 166.6l1.4-1.4M485.9 164.7l3.6-3.6M484 162.6l5.5-5.3M482.6 160.2l6.9-7M482.6 156.1l6.7-6.7M482.6 152.2l4.5-4.8M482.6 148.2l2.6-2.9M482.6 144.1l.7-.7"/><path class="cls-26" d="M482.3 161.1l7 7v-18.5l-7-7v18.5"/><path class="cls-19" d="M489.5 152l-6.9-7M489.5 155.8l-6.9-6.9M489.5 159.9l-6.9-6.9M489.5 164l-6.9-7M489.5 167.8l-6.9-6.9M488.1 166.6l1.4-1.4M485.9 164.7l3.6-3.6M484 162.6l5.5-5.3M482.6 160.2l6.9-7M482.6 156.1l6.7-6.7M482.6 152.2l4.5-4.8M482.6 148.2l2.6-2.9M482.6 144.1l.7-.7"/><path class="cls-21" d="M482.3 142.6v18.5M489.3 149.6v18.5M489.3 149.6v18.5M482.3 142.6v18.5"/><path class="cls-26" d="M486.7 78.8h-4.4V57.4h4.4v21.4"/><path class="cls-19" d="M482.6 61.8l4.1-4.4M482.6 65.8l4.3-4.3M482.6 70.2l4.3-4.4M482.6 74.5l4.3-4.3M482.6 78.6l4.3-4.4M486.7 78.8l.2-.2"/><path class="cls-26" d="M482.3 78.8h4.4V57.4h-4.4v21.4"/><path class="cls-19" d="M482.6 61.8l4.1-4.4M482.6 65.8l4.3-4.3M482.6 70.2l4.3-4.4M482.6 74.5l4.3-4.3M482.6 78.6l4.3-4.4M486.7 78.8l.2-.2"/><path class="cls-21" d="M486.7 78.8V57.4M482.3 78.8V57.4M486.7 57.4h-4.4M482.3 78.8V57.4M486.7 78.8V57.4"/><path class="cls-26" d="M482.3 121v21.6h4.4V121h-4.4"/><path class="cls-19" d="M482.6 125.4l4.3-4.4M482.6 129.7l4.3-4.3M482.6 134l4.3-4.3M482.6 138.1l4.3-4.3M482.6 142.4l4.3-4.3M486.4 142.6l.5-.2"/><path class="cls-26" d="M482.3 121v21.6h4.4V121h-4.4"/><path class="cls-19" d="M482.6 125.4l4.3-4.4M482.6 129.7l4.3-4.3M482.6 134l4.3-4.3M482.6 138.1l4.3-4.3M482.6 142.4l4.3-4.3M486.4 142.6l.5-.2"/><path class="cls-21" d="M486.7 142.6V121M482.3 142.6V121M482.3 142.6V121M486.7 142.6V121M482.3 142.6h4.4"/><path class="cls-1" d="M486.7 121V78.8"/><path class="cls-20" d="M486.7 79.3v-.5"/><path class="cls-1" d="M482.3 121V78.8"/><path class="cls-20" d="M482.3 79.3v-.5M486.7 119.6h-4.4M486.7 80h-4.4"/><path class="cls-21" d="M486.7 121h-4.4M486.7 78.8h-4.4"/><path class="cls-19" d="M506.4 119.7c0-10.9-9-19.8-19.8-19.8M486.6 99.8c10.9 0 19.8-9 19.8-19.8M486.7 119.6h19.6M486.7 80h19.6"/><path class="cls-20" d="M634.5 149.4l40.6-8.4-2-80.9-41-6.3"/><path class="cls-20" d="M634.5 151l42.5-8.6-2.2-83.8-42.7-6.7M101 42.8L108.2 0h196.5l7.2 42.8"/><path class="cls-20" d="M102.7 42.8L109.6 2h193.7l7 40.8"/><path class="cls-26" d="M160 12.8h24.5v9.1h-3.8V31H160V12.8"/><path class="cls-19" d="M361.3 52.3v1.9c0 .6-.2 1.2-.3 1.8-.1.6-.3 1.2-.5 1.8l-.6 1.8c-.2.6-.5 1.1-.8 1.7-.3.5-.6 1.1-1 1.6-.3.5-.7 1-1.1 1.5-.4.5-.8.9-1.3 1.4-.4.4-.9.9-1.4 1.3-.5.4-1 .8-1.5 1.1-.5.3-1.1.7-1.6 1-.5.3-1.1.6-1.7.8l-1.8.6c-.6.2-1.2.3-1.8.5l-1.8.3h-1.9M342.2 71.4v-19M361.4 52.4v1.4M361.6 55.3v.7M361.6 56l.3.7"/><path class="cls-12" d="M362.1 57.9l.7 1.7"/><path class="cls-19" d="M363.3 60.8l.2.5M363.5 61.3l.5.7"/><path class="cls-13" d="M364.5 63l1.2 1.4"/><path class="cls-19" d="M366.7 65.6l.2.2M366.9 65.8l.7.8M368.8 67.5l1 .7"/><path class="cls-23" d="M369.8 68.2l1.4 1"/><path class="cls-19" d="M371.2 69.2l1.5.5M373.9 70.2l.9.2M374.8 70.4l.5.2"/><path class="cls-12" d="M376.5 70.9l1.9.2"/><path class="cls-19" d="M379.6 71.4h.7"/><path class="cls-5" d="M380.3 71.4v-19"/><path class="cls-19" d="M380.3 52.9v-.5M457.1 52.2v1.9c0 .6.2 1.2.3 1.8.1.6.3 1.2.5 1.8l.6 1.8c.2.6.5 1.1.8 1.7.3.5.6 1.1 1 1.6.3.5.7 1 1.1 1.5.4.5.8.9 1.3 1.4.4.4.9.9 1.4 1.3.5.4 1 .8 1.5 1.1.5.3 1 .7 1.6 1 .5.3 1.1.6 1.7.8l1.8.6c.6.2 1.2.3 1.8.5l1.8.3h1.9M476.1 71.4V52.2M457.1 52.2v1.4M456.9 55l-.2 1M456.7 56l-.3.5"/><path class="cls-12" d="M456.2 57.7l-.5 1.9"/><path class="cls-19" d="M455.2 60.8l-.2.5M455 61.3l-.5.7"/><path class="cls-16" d="M454 62.7l-1.2 1.7"/><path class="cls-19" d="M451.9 65.4l-.3.2M451.6 65.6l-.7.7M449.9 67.3l-1.2.7"/><path class="cls-14" d="M448.7 68l-1.6 1"/><path class="cls-19" d="M447.1 69l-.8.2"/><path class="cls-13" d="M445.4 69.7l-1.7.7"/><path class="cls-19" d="M442.3 70.6l-.5.3M441.8 70.9l-1 .2M439.4 71.1l-1.2.3"/><path class="cls-5" d="M438.2 71.4V52.2"/><path class="cls-19" d="M438.2 52.6v-.4M552.9 52.3v1.9c0 .6-.2 1.2-.3 1.8-.1.6-.3 1.2-.5 1.8l-.6 1.8c-.2.6-.5 1.1-.8 1.7-.3.5-.6 1.1-1 1.6-.3.5-.7 1-1.1 1.5-.4.5-.8.9-1.3 1.4-.4.4-.9.9-1.4 1.3-.5.4-1 .8-1.5 1.1-.5.3-1 .7-1.6 1-.5.3-1.1.6-1.7.8l-1.8.6c-.6.2-1.2.3-1.8.5l-1.8.3h-1.9M533.9 71.4v-19M552.9 52.4v1.4M553.1 55.3v.7M553.1 56l.3.7"/><path class="cls-12" d="M553.6 57.9l.7 1.7"/><path class="cls-19" d="M554.8 60.8l.3.5M555.1 61.3l.4.7"/><path class="cls-13" d="M556 63l1.2 1.4"/><path class="cls-19" d="M558.2 65.6l.2.2M558.4 65.8l1 .8M560.3 67.5l1 .7"/><path class="cls-23" d="M561.3 68.2l1.7 1"/><path class="cls-19" d="M563 69.2l.9.5M565.4 70.2l.9.2"/><path class="cls-18" d="M566.3 70.4l2 .5"/><path class="cls-19" d="M568.3 70.9l1.4.2M571.1 71.4h.8"/><path class="cls-5" d="M571.9 71.4v-19"/><path class="cls-19" d="M571.9 52.9v-.5M602.8 72.2c.1 5.3 2.4 10.4 6.3 14.1 3.9 3.7 9 5.7 14.4 5.5M602.8 72.3l20.2-.7"/><path class="cls-5" d="M603.8 112.4v-1.9l.2-1.9.5-2 .7-1.9.7-1.9 1-1.7 1.2-1.4 1.2-1.7 1.4-1.2 1.7-1.2 1.7-1.2 1.7-1 1.9-.4 1.9-.8 1.9-.2 2-.2"/><path class="cls-15" d="M603.8 112.4l20.1-.5"/><path class="cls-19" d="M258.1 52.3v1.9c0 .6-.2 1.2-.3 1.8-.1.6-.3 1.2-.5 1.8l-.6 1.8c-.2.6-.5 1.1-.8 1.7-.3.5-.6 1.1-1 1.6-.3.5-.7 1-1.1 1.5-.4.5-.8.9-1.3 1.4-.4.4-.9.9-1.4 1.3-.5.4-1 .8-1.5 1.1-.5.3-1 .7-1.6 1-.5.3-1.1.6-1.7.8l-1.8.6c-.6.2-1.2.3-1.8.5l-1.8.3H239M239 71.4v-19M258.2 52.4v1.4M258.4 55.3v.7M258.4 56l.3.7"/><path class="cls-12" d="M258.9 57.9l.7 1.7"/><path class="cls-19" d="M260.1 60.8l.2.5M260.3 61.3l.5.7"/><path class="cls-13" d="M261.3 63l1.2 1.4"/><path class="cls-19" d="M263.5 65.6l.2.2M263.7 65.8l1 .8M265.6 67.5l1 .7"/><path class="cls-23" d="M266.6 68.2l1.4 1"/><path class="cls-19" d="M268 69.2l1.5.5M270.7 70.2l.9.2M271.6 70.4l.5.2"/><path class="cls-12" d="M273.3 70.9l1.9.2"/><path class="cls-19" d="M276.4 71.4h.7"/><path class="cls-5" d="M277.1 71.4v-19"/><path class="cls-19" d="M277.1 52.9v-.5M154.9 52.3v1.9c0 .6-.2 1.2-.3 1.8-.1.6-.3 1.2-.5 1.8l-.6 1.8c-.2.6-.5 1.1-.8 1.7-.3.5-.6 1.1-1 1.6-.3.5-.7 1-1.1 1.5-.4.5-.8.9-1.3 1.4-.4.4-.9.9-1.4 1.3-.5.4-1 .8-1.5 1.1-.5.3-1 .7-1.6 1-.5.3-1.1.6-1.7.8l-1.8.6c-.6.2-1.2.3-1.8.5l-1.8.3h-1.9M136 71.4v-19M155 52.4v1.4M155.2 55.3v.7M155.2 56l.3.7"/><path class="cls-12" d="M155.7 57.9l.7 1.7"/><path class="cls-19" d="M156.9 60.8l.2.5M157.1 61.3l.5.7"/><path class="cls-13" d="M158.1 63l1.2 1.4"/><path class="cls-19" d="M160.3 65.6l.2.2M160.5 65.8l1 .8M162.4 67.5l1 .7"/><path class="cls-23" d="M163.4 68.2l1.7 1"/><path class="cls-19" d="M165.1 69.2l.9.5M167.5 70.2l.9.2M168.4 70.4l.5.2"/><path class="cls-12" d="M170.1 70.9l1.9.2"/><path class="cls-19" d="M173.2 71.4h.7"/><path class="cls-5" d="M173.9 71.4v-19"/><path class="cls-19" d="M173.9 52.9v-.5"/><path class="cls-20" d="M246.2 191.6v.7M246.2 192.3v1M246.2 193.3l-.3.7M245.9 194l-.2.2M245.2 195.7l-.2.2M244.3 197.1l-.5.5M243.8 197.6l-.7.5M243.1 198.1l-.8.5M242.3 198.6l-.2.2M240.9 199.5h-.5M239.2 200h-.7M238.5 200h-.7M237.8 200h-1M236.8 200h-.5M234.9 199.5h-.2M233.5 198.8l-.5-.2M233 198.6l-.7-.5M232.3 198.1l-.5-.5M231.8 197.6l-.5-.5M230.3 195.9v-.2M229.6 194.5v-.5M229.6 194l-.2-.7M229.4 193.3l-.3-1M229.1 192.3v-.7M229.4 190.2v-.3M229.9 188.5v-.3M229.9 188.2l.4-.7M230.3 187.5l.3-.7M230.6 186.8l.5-.7M231.1 186.1h.2M232.3 185.1v-.2M232.3 184.9h.2M233.5 184.2h.2M233.7 184.2l.7-.5M234.4 183.7l.7-.3M235.1 183.4l1-.2M236.1 183.2h.2M237.5 183h.3M237.8 183h.2M239.2 183.2h.3M239.5 183.2l.7.2M240.2 183.4l.7.3M240.9 183.7l.7.5M241.6 184.2h.3M243.1 184.9l.2.2M244.3 186.1l.4.7M244.7 186.8l.5.7M245.2 187.5l.3.7M245.5 188.2l.2.5M246.2 189.9v.5"/></g><g id="Mbel"><path class="cls-2" d="M113.7 149.8h56.6v15.6h-56.6zM113.7 87.4h56.6v45.4h-56.6zM204.4 85.8h7.7v11.3h-7.7zM212.1 68.7h19.7v45.4h-19.7zM284.1 80.2h51.1v22.6h-51.1zM285.6 112.7h12.7M285.6 104.2v8.5M298.3 112.7v-8.5M303.3 112.7H316M303.3 104.2v8.5M316 112.7v-8.5M321 112.7h12.8M321 104.2v8.5M333.8 112.7v-8.5M285.6 70.2h12.7M285.6 78.7v-8.5M298.3 70.2v8.5M303.3 70.2H316M303.3 78.7v-8.5M316 70.2v8.5M321 70.2h12.8M321 78.7v-8.5M333.8 70.2v8.5M488.1 125.4h51.1V141h-51.1zM404.2 104.5c-2.3-3.2-4.4-6.7-6.2-10.2-.4-.9-.3-1.9.3-2.6 2.1-2.5 4.8-4.3 7.8-5.3.9-.3 1.9 0 2.5.7 2.6 3 5.1 6.2 7.2 9.6-.5.6-1 1.1-1.5 1.5-2.6 2-5.4 3.8-8.1 5.5-.6.4-1.2.7-1.9.9h-.1"/><path class="cls-2" d="M403.2 103.9c-.3 0-.7-.1-1-.3-1.3-.7-2.5-1.8-3.3-3.1-1.1-1.7-2-3.6-2.8-5.5-.6-1.4-.9-2.8-1.1-4.2-.1-.8.2-1.7.7-2.3 2.3-2.5 5.1-4.4 8.3-5.7.8-.3 1.7-.2 2.4.2 1.3.7 2.5 1.6 3.5 2.6 1.5 1.4 2.8 3 4.1 4.6.9 1.2 1.5 2.7 1.6 4.2v1M571.6 113.6h11.5v7.7h-11.5zM554.8 121.3h45.4V141h-45.4zM516.6 82.6c-2.3-3.2-4.4-6.7-6.3-10.2-.4-.9-.3-1.9.3-2.6 2.1-2.5 4.8-4.3 7.8-5.3.9-.3 1.9 0 2.5.7 2.6 3 5.1 6.2 7.2 9.6-.5.6-1 1.1-1.5 1.5-2.6 2-5.4 3.8-8.1 5.5-.6.4-1.2.7-1.9.9h-.1"/><path class="cls-2" d="M515.6 82c-.3 0-.7-.1-1-.3-1.3-.7-2.5-1.8-3.3-3.1-1.1-1.7-2-3.6-2.8-5.5-.6-1.4-.9-2.8-1.1-4.2-.1-.8.2-1.7.7-2.3 2.3-2.5 5.1-4.4 8.3-5.7.8-.3 1.7-.3 2.4.1 1.3.7 2.5 1.6 3.5 2.6 1.5 1.4 2.8 3 4.1 4.6.9 1.2 1.5 2.7 1.6 4.2v1M386.6 58.6H432v10.8h-45.4zM431.5 99.4h28.3v14.2h-28.3zM472.3 144.5v-18.7-.2-.2-.1l-.1-.1-.1-.1h-.1-.2H446.7h-.2-.2-.1l-.1.1-.1.1v19.2h26.6"/><path class="cls-2" d="M476.8 148.1v-22.4-.2-.2-.1l-.1-.1-.1-.1h-.1-.2-3-.2-.2-.1l-.1.1-.1.1v23.2c0 .1.1.2.2.3s.2.1.3.2H476.5c.1 0 .2-.1.3-.2 0 0 .1-.2.2-.3v-.3M445.6 144.5v4c0 .1-.1.2-.2.3 0 0-.2.1-.3.2h-25.5c-.1 0-.2-.1-.3-.2 0 0-.1-.2-.2-.3v-4M419 142.2h53.3"/><path class="cls-2" d="M419 144.5v-18.7-.2-.2-.1l.1-.1.1-.1h25.9l.1.1.1.1v19.2h-26.6M414.4 148.1v-22.4-.2-.2-.1l.1-.1.1-.1H418.4l.1.1.1.1v23.2c0 .1-.1.2-.2.3 0 0-.2.1-.3.2H414.7c-.1 0-.2-.1-.3-.2 0 0-.1-.2-.2-.3v-.3M445.6 144.5v4c0 .1.1.2.2.3s.2.1.3.2h25.5c.1 0 .2-.1.3-.2 0 0 .1-.2.2-.3v-4"/></g><g id="Text"><path d="M156.4 98.1v.6h-3.8l3-4.8h-2.7v-.6h3.8l-3 4.8h2.7zM158.2 93.9c0 .2-.2.4-.4.4s-.4-.2-.4-.4.2-.4.4-.4.4.2.4.4zm0 4.7h-.6v-3.7h.6v3.7zM160.1 95v.5c.3-.4.6-.6 1-.6s.8.2 1 .7c.3-.5.6-.7 1.2-.7s.7.1.9.4c.2.2.2.4.2 1v2.4h-.6v-2.2c0-.4 0-.6-.1-.7-.1-.2-.4-.3-.6-.3-.5 0-.8.4-.8 1v2.2h-.6v-2.2c0-.4 0-.5-.1-.7-.1-.2-.3-.3-.6-.3-.5 0-.9.4-.9 1v2.2h-.6V95h.6zM166.4 95v.5c.3-.4.6-.6 1-.6s.8.2 1 .7c.3-.5.6-.7 1.2-.7s.7.1.9.4c.2.2.2.4.2 1v2.4h-.6v-2.2c0-.4 0-.6-.1-.7-.1-.2-.4-.3-.6-.3-.5 0-.8.4-.8 1v2.2h-.6v-2.2c0-.4 0-.5-.1-.7-.1-.2-.3-.3-.6-.3-.5 0-.9.4-.9 1v2.2h-.6V95h.6zM172.5 97c0 .3 0 .5.2.7.2.3.6.5 1 .5s.9-.2 1.1-.6l.5.2c-.3.6-.9 1-1.6 1-1.1 0-1.9-.8-1.9-1.9s.8-1.9 1.9-1.9 1.9.8 1.9 1.9v.2h-3.1zm2.4-.4c0-.3 0-.4-.2-.6-.2-.3-.6-.5-1-.5s-.8.2-1 .5c-.1.2-.2.3-.2.6h2.4zM177.2 95v.6c.1-.3.2-.4.3-.5.2-.1.4-.2.7-.2h.1v.6h-.2c-.3 0-.6.2-.8.4-.2.2-.2.4-.2.9v1.9h-.6V95h.6zM153.3 104.1v-.6l1.8-1.2v5.4h-.6v-4.4l-1.2.8zM157.9 104.5c.2 0 .3-.1.5-.1.9 0 1.6.7 1.6 1.6s-.8 1.7-1.7 1.7-1.7-.8-1.7-1.7.1-.7.4-1.2l1.5-2.5h.7l-1.4 2.1zm-.7 1.5c0 .6.5 1.1 1.1 1.1s1.1-.5 1.1-1.1-.5-1.1-1.1-1.1-1.1.5-1.1 1.1zM161.8 107.3c0 .2-.2.4-.4.4s-.4-.2-.4-.4.2-.4.4-.4.4.2.4.4zM164.2 104.5c.2 0 .3-.1.5-.1.9 0 1.6.7 1.6 1.6s-.8 1.7-1.7 1.7-1.7-.8-1.7-1.7.1-.7.4-1.2l1.5-2.5h.7l-1.4 2.1zm-.7 1.5c0 .6.5 1.1 1.1 1.1s1.1-.5 1.1-1.1-.5-1.1-1.1-1.1-1.1.5-1.1 1.1zM169.5 104v.5c.3-.4.6-.6 1-.6s.8.2 1 .7c.3-.5.6-.7 1.2-.7s.7.1.9.4c.2.2.2.4.2 1v2.4h-.6v-2.2c0-.4 0-.6-.1-.7-.1-.2-.4-.3-.6-.3-.5 0-.8.4-.8 1v2.2h-.6v-2.2c0-.4 0-.5-.1-.7-.1-.2-.3-.3-.6-.3-.5 0-.9.4-.9 1v2.2h-.6V104h.6zM177.1 105.1v.4h-2l1.2-1.6c.3-.5.4-.6.4-.8 0-.3-.2-.4-.5-.4s-.5.2-.5.6h-.4c0-.6.4-1 1-1s1 .3 1 .8-.1.5-.4.9l-.8 1.1h1.1z"/><g><path d="M543.1 98.1v.6h-3.8l3-4.8h-2.7v-.6h3.8l-3 4.8h2.7zM545 93.9c0 .2-.2.4-.4.4s-.4-.2-.4-.4.2-.4.4-.4.4.2.4.4zm0 4.7h-.6v-3.7h.6v3.7zM546.9 95v.5c.3-.4.6-.6 1-.6s.8.2 1 .7c.3-.5.6-.7 1.2-.7s.7.1.9.4c.2.2.2.4.2 1v2.4h-.6v-2.2c0-.4 0-.6-.1-.7-.1-.2-.4-.3-.6-.3-.5 0-.8.4-.8 1v2.2h-.6v-2.2c0-.4 0-.5-.1-.7-.1-.2-.3-.3-.6-.3-.5 0-.9.4-.9 1v2.2h-.6V95h.6zM553.2 95v.5c.3-.4.6-.6 1-.6s.8.2 1 .7c.3-.5.6-.7 1.2-.7s.7.1.9.4c.2.2.2.4.2 1v2.4h-.6v-2.2c0-.4 0-.6-.1-.7-.1-.2-.4-.3-.6-.3-.5 0-.8.4-.8 1v2.2h-.6v-2.2c0-.4 0-.5-.1-.7-.1-.2-.3-.3-.6-.3-.5 0-.9.4-.9 1v2.2h-.6V95h.6zM559.3 97c0 .3 0 .5.2.7.2.3.6.5 1 .5s.9-.2 1.1-.6l.5.2c-.3.6-.9 1-1.6 1-1.1 0-1.9-.8-1.9-1.9s.8-1.9 1.9-1.9 1.9.8 1.9 1.9v.2h-3.1zm2.4-.4c0-.3 0-.4-.2-.6-.2-.3-.6-.5-1-.5s-.8.2-1 .5c-.1.2-.2.3-.2.6h2.4zM564 95v.6c.1-.3.2-.4.3-.5.2-.1.4-.2.7-.2h.1v.6h-.2c-.3 0-.6.2-.8.4-.2.2-.2.4-.2.9v1.9h-.6V95h.6zM540.1 104.1v-.6l1.8-1.2v5.4h-.6v-4.4l-1.2.8zM543.3 106.4v-.5l2.8-3.7v3.6h.6v.6h-.6v1.2h-.6v-1.2h-2.1zm2.1-2.6l-1.5 2h1.5v-2zM548.5 107.3c0 .2-.2.4-.4.4s-.4-.2-.4-.4.2-.4.4-.4.4.2.4.4zM552.2 102.9h-1.7v1.4c.3-.1.5-.2.8-.2.9 0 1.6.7 1.6 1.7s-.8 1.8-1.8 1.8-1.3-.4-1.6-1.1l.6-.2c.1.2.2.3.3.4.2.2.5.3.8.3.6 0 1.1-.5 1.1-1.2s-.5-1.1-1.2-1.1-.8.2-1.2.5v-3h2.3v.6zM556.2 104v.5c.3-.4.6-.6 1-.6s.8.2 1 .7c.3-.5.6-.7 1.2-.7s.7.1.9.4c.2.2.2.4.2 1v2.4h-.6v-2.2c0-.4 0-.6-.1-.7-.1-.2-.4-.3-.6-.3-.5 0-.8.4-.8 1v2.2h-.6v-2.2c0-.4 0-.5-.1-.7-.1-.2-.3-.3-.6-.3-.5 0-.9.4-.9 1v2.2h-.6V104h.6zM563.8 105.1v.4h-2l1.2-1.6c.3-.5.4-.6.4-.8 0-.3-.2-.4-.5-.4s-.5.2-.5.6h-.4c0-.6.4-1 1-1s1 .3 1 .8-.1.5-.4.9l-.8 1.1h1.1z"/></g><g><path d="M304.5 182.5h1.4c1.6 0 2.6 1 2.6 2.6s-.3 1.6-.8 2.1c-.5.4-1.1.6-1.9.6h-1.3v-5.3zm.7 4.8h.2c.9 0 1.3 0 1.7-.4.5-.4.7-1 .7-1.8 0-1.3-.7-2-1.9-2h-.7v4.2zM312.4 184.2v2.4c0 .5 0 .8-.4 1-.3.2-.6.4-1.1.4s-.8-.1-1.1-.4c-.2-.2-.4-.6-.4-1v-2.4h.6v2.3c0 .5.3.9.8.9s.5-.1.7-.3c.1-.1.2-.3.2-.6v-2.4h.6zM315.5 185.2c0-.4-.3-.6-.7-.6s-.7.2-.7.5.2.4.8.6c.5.1.7.2.9.4.2.2.3.4.3.7 0 .6-.5 1.1-1.3 1.1s-1.3-.4-1.4-1.1h.6c0 .4.3.6.8.6s.7-.2.7-.5-.2-.5-.8-.6c-.8-.2-1.2-.6-1.2-1.1s.5-1.1 1.3-1.1 1.3.4 1.3 1.1h-.6zM320.1 187.4c-.4.4-.8.5-1.4.5-1.1 0-1.8-.8-1.8-1.9s.8-1.9 1.8-1.9 1 .2 1.3.6l-.4.4c-.3-.3-.6-.4-.9-.4-.7 0-1.2.6-1.2 1.4s.5 1.4 1.2 1.4.6-.1.9-.4l.4.4zM321.7 184.7c.3-.4.7-.6 1.1-.6s.7.1.9.3c.2.2.3.5.3 1v2.5h-.6v-2.4c0-.5-.2-.8-.7-.8s-.5.1-.7.3c-.2.2-.2.4-.2.7v2.2h-.6v-5.3h.6v2.2zM325.7 186.2c0 .3 0 .5.2.7.2.3.6.5 1 .5s.9-.2 1.1-.6l.5.2c-.3.6-.9 1-1.6 1-1.1 0-1.9-.8-1.9-1.9s.8-1.9 1.9-1.9 1.9.8 1.9 1.9v.2h-3.1zm2.4-.4c0-.3 0-.4-.2-.6-.2-.3-.6-.5-1-.5s-.8.2-1 .5c-.1.2-.2.3-.2.6h2.4zM306.7 192.1H305v1.4c.3-.1.5-.2.8-.2.9 0 1.6.7 1.6 1.7s-.8 1.8-1.8 1.8-1.3-.4-1.6-1.1l.6-.2c.1.2.2.3.3.4.2.2.5.3.8.3.6 0 1.1-.5 1.1-1.2s-.5-1.1-1.2-1.1-.8.2-1.2.5v-3h2.3v.6zM309.3 196.5c0 .2-.2.4-.4.4s-.4-.2-.4-.4.2-.4.4-.4.4.2.4.4zM310.5 192.2v-.6h3l-2.1 5.3h-.7l1.9-4.7h-2zM316.8 193.2v.5c.3-.4.6-.6 1-.6s.8.2 1 .7c.3-.5.6-.7 1.2-.7s.7.1.9.4c.2.2.2.4.2 1v2.4h-.6v-2.2c0-.4 0-.6-.1-.7-.1-.2-.4-.3-.6-.3-.5 0-.8.4-.8 1v2.2h-.6v-2.2c0-.4 0-.5-.1-.7-.1-.2-.3-.3-.6-.3-.5 0-.9.4-.9 1v2.2h-.6v-3.7h.6zM324.4 194.4v.4h-2l1.2-1.6c.3-.5.4-.6.4-.8 0-.3-.2-.4-.5-.4s-.5.2-.5.6h-.4c0-.6.4-1 1-1s1 .3 1 .8-.1.5-.4.9l-.8 1.1h1.1z"/></g><g><path d="M344.4 98.6h-.7v-5.3h.7v2.5l2.1-2.5h.8l-2.2 2.6 2.2 2.7h-.9l-2-2.5v2.5zM351.4 96.8c0 1.1-.8 1.9-1.9 1.9s-1.9-.8-1.9-1.9.8-1.9 1.9-1.9 1.9.8 1.9 1.9zm-3.1 0c0 .8.5 1.4 1.3 1.4s1.2-.6 1.2-1.4-.5-1.4-1.2-1.4-1.3.6-1.3 1.4zM355.4 98.2c-.4.4-.8.5-1.4.5-1.1 0-1.8-.8-1.8-1.9s.8-1.9 1.8-1.9 1 .2 1.3.6l-.4.4c-.3-.3-.6-.4-.9-.4-.7 0-1.2.6-1.2 1.4s.5 1.4 1.2 1.4.6-.1.9-.4l.4.4zM356.9 95.5c.3-.4.7-.6 1.1-.6s.7.1.9.3c.2.2.3.5.3 1v2.5h-.6v-2.4c0-.5-.2-.8-.7-.8s-.5.1-.7.3c-.2.2-.2.4-.2.7v2.2h-.6v-5.3h.6v2.2zM360.9 97c0 .3 0 .5.2.7.2.3.6.5 1 .5s.9-.2 1.1-.6l.5.2c-.3.6-.9 1-1.6 1-1.1 0-1.9-.8-1.9-1.9s.8-1.9 1.9-1.9 1.9.8 1.9 1.9v.2h-3.1zm2.4-.4c0-.3 0-.4-.2-.6-.2-.3-.6-.5-1-.5s-.8.2-1 .5c-.1.2-.2.3-.2.6h2.4zM365.7 95v.5c.3-.4.6-.6 1.1-.6s.6.1.9.3c.2.2.3.5.3 1v2.5h-.6v-2.4c0-.3 0-.5-.1-.6-.1-.2-.3-.2-.6-.2s-.5.1-.7.3c-.2.2-.2.4-.2.7v2.2h-.6V95h.6zM369.2 99.9h-.4l.7-2.1.6.2-.8 1.9zM374.4 95.7h2.1v.6h-2.1v1.8h2.1v.6h-2.8v-5.3h2.8v.6h-2.1v1.8zM379.4 96c0-.4-.3-.6-.7-.6s-.7.2-.7.5.2.4.8.6c.5.1.7.2.9.4.2.2.3.4.3.7 0 .6-.5 1.1-1.3 1.1s-1.3-.4-1.4-1.1h.6c0 .4.3.6.8.6s.7-.2.7-.5-.2-.5-.8-.6c-.8-.2-1.2-.6-1.2-1.1s.5-1.1 1.3-1.1 1.3.4 1.3 1.1h-.6zM382.9 96c0-.4-.3-.6-.7-.6s-.7.2-.7.5.2.4.8.6c.5.1.7.2.9.4.2.2.3.4.3.7 0 .6-.5 1.1-1.3 1.1s-1.3-.4-1.4-1.1h.6c0 .4.3.6.8.6s.7-.2.7-.5-.2-.5-.8-.6c-.8-.2-1.2-.6-1.2-1.1s.5-1.1 1.3-1.1 1.3.4 1.3 1.1h-.6zM385.1 97c0 .3 0 .5.2.7.2.3.6.5 1 .5s.9-.2 1.1-.6l.5.2c-.3.6-.9 1-1.6 1-1.1 0-1.9-.8-1.9-1.9s.8-1.9 1.9-1.9 1.9.8 1.9 1.9v.2h-3.1zm2.4-.4c0-.3 0-.4-.2-.6-.2-.3-.6-.5-1-.5s-.8.2-1 .5c-.1.2-.2.3-.2.6h2.4zM389.8 95v.5c.3-.4.6-.6 1.1-.6s.6.1.9.3c.2.2.3.5.3 1v2.5h-.6v-2.4c0-.3 0-.5-.1-.6-.1-.2-.3-.2-.6-.2s-.5.1-.7.3c-.2.2-.2.4-.2.7v2.2h-.6V95h.6zM393.4 99.9h-.4l.7-2.1.6.2-.8 1.9zM349.2 102.3h.7l-1.6 5.3h-.6l-1.2-4.2-1.2 4.2h-.6l-1.6-5.3h.7l1.2 4.1 1.2-4.1h.6l1.1 4.1 1.2-4.1zM354 105.8c0 1.1-.8 1.9-1.9 1.9s-1.9-.8-1.9-1.9.8-1.9 1.9-1.9 1.9.8 1.9 1.9zm-3.1 0c0 .8.5 1.4 1.3 1.4s1.2-.6 1.2-1.4-.5-1.4-1.2-1.4-1.3.6-1.3 1.4zM355.7 104.5c.3-.4.7-.6 1.1-.6s.7.1.9.3c.2.2.3.5.3 1v2.5h-.6v-2.4c0-.5-.2-.8-.7-.8s-.5.1-.7.3c-.2.2-.2.4-.2.7v2.2h-.6v-5.3h.6v2.2zM359.9 104v.5c.3-.4.6-.6 1.1-.6s.6.1.9.3c.2.2.3.5.3 1v2.5h-.6v-2.4c0-.3 0-.5-.1-.6-.1-.2-.3-.2-.6-.2s-.5.1-.7.3c-.2.2-.2.4-.2.7v2.2h-.6V104h.6zM363.9 106c0 .3 0 .5.2.7.2.3.6.5 1 .5s.9-.2 1.1-.6l.5.2c-.3.6-.9 1-1.6 1-1.1 0-1.9-.8-1.9-1.9s.8-1.9 1.9-1.9 1.9.8 1.9 1.9v.2h-3.1zm2.4-.4c0-.3 0-.4-.2-.6-.2-.3-.6-.5-1-.5s-.8.2-1 .5c-.1.2-.2.3-.2.6h2.4zM368.6 104v.5c.3-.4.6-.6 1.1-.6s.6.1.9.3c.2.2.3.5.3 1v2.5h-.6v-2.4c0-.3 0-.5-.1-.6-.1-.2-.3-.2-.6-.2s-.5.1-.7.3c-.2.2-.2.4-.2.7v2.2h-.6V104h.6zM343.6 112v-.6h3l-1.6 2c.9 0 1.6.7 1.6 1.6s-.8 1.7-1.8 1.7-1.4-.5-1.6-1.3h.6c.1.4.5.7 1 .7s1.2-.5 1.2-1.1-.5-1.1-1.2-1.1-.4 0-.6.2l-.3-.2 1.5-1.9h-1.9zM350.9 115c0 .6-.1 1-.4 1.2-.3.3-.7.4-1.2.4s-1-.2-1.2-.5c-.3-.3-.4-.6-.4-1.4v-1.8c0-.7 0-1 .3-1.3.3-.3.7-.5 1.2-.5s.9.1 1.2.4c.3.3.4.6.4 1.2v2.1zm-2.5-.1c0 .6 0 .7.2.9.2.2.5.3.8.3s.6-.1.8-.4c.1-.2.2-.4.2-.8v-2c0-.4 0-.6-.3-.8-.2-.2-.4-.2-.7-.2s-.6.1-.8.4c-.1.2-.2.4-.2.8v1.8zM352.8 116.3c0 .2-.2.4-.4.4s-.4-.2-.4-.4.2-.4.4-.4.4.2.4.4zM355.2 113.5c.2 0 .3-.1.5-.1.9 0 1.6.7 1.6 1.6s-.8 1.7-1.7 1.7-1.7-.8-1.7-1.7.1-.7.4-1.2l1.5-2.5h.7l-1.4 2.1zm-.7 1.5c0 .6.5 1.1 1.1 1.1s1.1-.5 1.1-1.1-.5-1.1-1.1-1.1-1.1.5-1.1 1.1zM361.3 113v.5c.3-.4.6-.6 1-.6s.8.2 1 .7c.3-.5.6-.7 1.2-.7s.7.1.9.4c.2.2.2.4.2 1v2.4h-.6v-2.2c0-.4 0-.6-.1-.7-.1-.2-.4-.3-.6-.3-.5 0-.8.4-.8 1v2.2h-.6v-2.2c0-.4 0-.5-.1-.7-.1-.2-.3-.3-.6-.3-.5 0-.9.4-.9 1v2.2h-.6V113h.6zM368.9 114.1v.4h-2l1.2-1.6c.3-.5.4-.6.4-.8 0-.3-.2-.4-.5-.4s-.5.2-.5.6h-.4c0-.6.4-1 1-1s1 .3 1 .8-.1.5-.4.9l-.8 1.1h1.1z"/></g><g><path d="M644.5 93.3c1.1 0 1.7.5 1.7 1.4s-.1.6-.3.9c-.1.2-.3.2-.5.3.3 0 .4.1.6.2.3.2.4.6.4 1s-.2.9-.6 1.2c-.3.2-.7.3-1.3.3H643v-5.3h1.5zm-.8 2.4h.7c.4 0 .7 0 .9-.2.2-.2.3-.4.3-.7s-.2-.6-.4-.8c-.2 0-.4-.1-.9-.1h-.6v1.8zm0 2.4h.7c.6 0 .8 0 1-.2.3-.1.4-.4.4-.8 0-.6-.4-.9-1.2-.9h-.8V98zM650.4 95h.6v3.7h-.6V98c-.4.6-.8.8-1.3.8-1 0-1.7-.8-1.7-1.9s.7-1.9 1.8-1.9 1 .2 1.3.7v-.6zm-2.1.9c-.2.3-.3.6-.3 1 0 .8.5 1.4 1.2 1.4s1.3-.6 1.3-1.4-.5-1.4-1.2-1.4-.7.1-.9.4zM652.4 98.6v-5.3h.6v5.3h-.6zM655 98.6h-.6v-5.3h.6v3.3l1.5-1.6h.8l-1.6 1.8 1.6 1.9h-.8l-1.5-1.6v1.6zM661.4 96.8c0 1.1-.8 1.9-1.9 1.9s-1.9-.8-1.9-1.9.8-1.9 1.9-1.9 1.9.8 1.9 1.9zm-3.1 0c0 .8.5 1.4 1.3 1.4s1.2-.6 1.2-1.4-.5-1.4-1.2-1.4-1.3.6-1.3 1.4zM663.1 95v.5c.3-.4.6-.6 1.1-.6s.6.1.9.3c.2.2.3.5.3 1v2.5h-.6v-2.4c0-.3 0-.5-.1-.6-.1-.2-.3-.2-.6-.2s-.5.1-.7.3c-.2.2-.2.4-.2.7v2.2h-.6V95h.6zM645.3 102.9h-1.7v1.4c.3-.1.5-.2.8-.2.9 0 1.6.7 1.6 1.7s-.8 1.8-1.8 1.8-1.3-.4-1.6-1.1l.6-.2c.1.2.2.3.3.4.2.2.5.3.8.3.6 0 1.1-.5 1.1-1.2s-.5-1.1-1.2-1.1-.8.2-1.2.5v-3h2.3v.6zM647.9 107.3c0 .2-.2.4-.4.4s-.4-.2-.4-.4.2-.4.4-.4.4.2.4.4zM652.2 106c0 .6-.1 1-.4 1.2-.3.3-.7.4-1.2.4s-1-.2-1.2-.5c-.3-.3-.4-.6-.4-1.4v-1.8c0-.7 0-1 .3-1.3.3-.3.7-.5 1.2-.5s.9.1 1.2.4c.3.3.4.6.4 1.2v2.1zm-2.5-.1c0 .6 0 .7.2.9.2.2.5.3.8.3s.6-.1.8-.4c.1-.2.2-.4.2-.8v-2c0-.4 0-.6-.3-.8-.2-.2-.4-.2-.7-.2s-.6.1-.8.4c-.1.2-.2.4-.2.8v1.8zM656.4 104v.5c.3-.4.6-.6 1-.6s.8.2 1 .7c.3-.5.6-.7 1.2-.7s.7.1.9.4c.2.2.2.4.2 1v2.4h-.6v-2.2c0-.4 0-.6-.1-.7-.1-.2-.4-.3-.6-.3-.5 0-.8.4-.8 1v2.2h-.6v-2.2c0-.4 0-.5-.1-.7-.1-.2-.3-.3-.6-.3-.5 0-.9.4-.9 1v2.2h-.6V104h.6zM664 105.1v.4h-2l1.2-1.6c.3-.5.4-.6.4-.8 0-.3-.2-.4-.5-.4s-.5.2-.5.6h-.4c0-.6.4-1 1-1s1 .3 1 .8-.1.5-.4.9l-.8 1.1h1.1z"/></g><g><path d="M175.6 16.1c1.1 0 1.7.5 1.7 1.4s-.1.6-.3.9c-.1.2-.3.2-.5.3.3 0 .4.1.6.2.3.2.4.6.4 1s-.2.9-.6 1.2c-.3.2-.7.3-1.3.3h-1.5v-5.3h1.5zm-.8 2.4h.7c.4 0 .7 0 .9-.2.2-.2.3-.4.3-.7s-.2-.6-.4-.8c-.2 0-.4-.1-.9-.1h-.6v1.8zm0 2.4h.7c.6 0 .8 0 1-.2.3-.1.4-.4.4-.8 0-.6-.4-.9-1.2-.9h-.8v1.8zM181.5 17.7h.6v3.7h-.6v-.7c-.4.6-.8.8-1.3.8-1 0-1.7-.8-1.7-1.9s.7-1.9 1.8-1.9 1 .2 1.3.7v-.6zm-2.1.9c-.2.3-.3.6-.3 1 0 .8.5 1.4 1.2 1.4s1.3-.6 1.3-1.4-.5-1.4-1.2-1.4-.7.1-.9.4zM183.5 21.4v-5.3h.6v5.3h-.6zM186.1 21.4h-.6v-5.3h.6v3.3l1.5-1.6h.8l-1.6 1.8 1.6 1.9h-.8l-1.5-1.6v1.6zM192.5 19.6c0 1.1-.8 1.9-1.9 1.9s-1.9-.8-1.9-1.9.8-1.9 1.9-1.9 1.9.8 1.9 1.9zm-3.1 0c0 .8.5 1.4 1.3 1.4s1.2-.6 1.2-1.4-.5-1.4-1.2-1.4-1.3.6-1.3 1.4zM194.2 17.7v.5c.3-.4.6-.6 1.1-.6s.6.1.9.3c.2.2.3.5.3 1v2.5h-.6V19c0-.3 0-.5-.1-.6-.1-.2-.3-.2-.6-.2s-.5.1-.7.3c-.2.2-.2.4-.2.7v2.2h-.6v-3.7h.6zM174.4 26.9v-.6l1.8-1.2v5.4h-.6v-4.4l-1.2.8zM181 28.8c0 .6-.1 1-.4 1.2-.3.3-.7.4-1.2.4s-1-.2-1.2-.5c-.3-.3-.4-.6-.4-1.4v-1.8c0-.7 0-1 .3-1.3.3-.3.7-.5 1.2-.5s.9.1 1.2.4c.3.3.4.6.4 1.2v2.1zm-2.5-.1c0 .6 0 .7.2.9.2.2.5.3.8.3s.6-.1.8-.4c.1-.2.2-.4.2-.8v-2c0-.4 0-.6-.3-.8-.2-.2-.4-.2-.7-.2s-.6.1-.8.4c-.1.2-.2.4-.2.8v1.8zM183 30.1c0 .2-.2.4-.4.4s-.4-.2-.4-.4.2-.4.4-.4.4.2.4.4zM187.3 28.8c0 .6-.1 1-.4 1.2-.3.3-.7.4-1.2.4s-1-.2-1.2-.5c-.3-.3-.4-.6-.4-1.4v-1.8c0-.7 0-1 .3-1.3.3-.3.7-.5 1.2-.5s.9.1 1.2.4c.3.3.4.6.4 1.2v2.1zm-2.5-.1c0 .6 0 .7.2.9.2.2.5.3.8.3s.6-.1.8-.4c.1-.2.2-.4.2-.8v-2c0-.4 0-.6-.3-.8-.2-.2-.4-.2-.7-.2s-.6.1-.8.4c-.1.2-.2.4-.2.8v1.8zM191.5 26.7v.5c.3-.4.6-.6 1-.6s.8.2 1 .7c.3-.5.6-.7 1.2-.7s.7.1.9.4c.2.2.2.4.2 1v2.4h-.6v-2.2c0-.4 0-.6-.1-.7-.1-.2-.4-.3-.6-.3-.5 0-.8.4-.8 1v2.2h-.6v-2.2c0-.4 0-.5-.1-.7-.1-.2-.3-.3-.6-.3-.5 0-.9.4-.9 1v2.2h-.6v-3.7h.6zM199.1 27.9v.4h-2l1.2-1.6c.3-.5.4-.6.4-.8 0-.3-.2-.4-.5-.4s-.5.2-.5.6h-.4c0-.6.4-1 1-1s1 .3 1 .8-.1.5-.4.9l-.8 1.1h1.1z"/></g><g><path d="M176.7 206.6v.6h-2.5v-5.3h.7v4.7h1.9zM178.3 202.5c0 .2-.2.4-.4.4s-.4-.2-.4-.4.2-.4.4-.4.4.2.4.4zm0 4.7h-.6v-3.7h.6v3.7zM180.3 207.2h-.6V204h-.5v-.5h.5v-.5c0-.7.4-1.2 1-1.2h.2v.5c-.4 0-.6.2-.6.6v.5h.6v.5h-.6v3.2zM182.7 206.5c0 .2 0 .2.3.2h.3v.5h-.6c-.4 0-.6-.2-.6-.6V204h-.5v-.5h.5v-1.2h.6v1.2h.6v.5h-.6v2.4z"/></g><g><path d="M246.3 148.1h2.1v.6h-2.1v1.8h2.1v.6h-2.8v-5.3h2.8v.6h-2.1v1.8zM250.2 147.4v.5c.3-.4.6-.6 1.1-.6s.6.1.9.3c.2.2.3.5.3 1v2.5h-.6v-2.4c0-.3 0-.5-.1-.6-.1-.2-.3-.2-.6-.2s-.5.1-.7.3c-.2.2-.2.4-.2.7v2.2h-.6v-3.7h.6zM254.4 150.3c0 .2 0 .2.3.2h.3v.5h-.6c-.4 0-.6-.2-.6-.6v-2.6h-.5v-.5h.5v-1.2h.6v1.2h.6v.5h-.6v2.4zM256.6 147.4v.6c.1-.3.2-.4.3-.5.2-.1.4-.2.7-.2h.1v.6h-.2c-.3 0-.6.2-.8.4-.2.2-.2.4-.2.9v1.9h-.6v-3.7h.6zM259 149.4c0 .3 0 .5.2.7.2.3.6.5 1 .5s.9-.2 1.1-.6l.5.2c-.3.6-.9 1-1.6 1-1.1 0-1.9-.8-1.9-1.9s.8-1.9 1.9-1.9 1.9.8 1.9 1.9v.2H259zm2.4-.4c0-.3 0-.4-.2-.6-.2-.3-.6-.5-1-.5s-.8.2-1 .5c-.1.2-.2.3-.2.6h2.4zm-.2-3.2l-.9 1.1h-.4l.7-1.1h.7zM263.6 149.4c0 .3 0 .5.2.7.2.3.6.5 1 .5s.9-.2 1.1-.6l.5.2c-.3.6-.9 1-1.6 1-1.1 0-1.9-.8-1.9-1.9s.8-1.9 1.9-1.9 1.9.8 1.9 1.9v.2h-3.1zm2.4-.4c0-.3 0-.4-.2-.6-.2-.3-.6-.5-1-.5s-.8.2-1 .5c-.1.2-.2.3-.2.6h2.4zM247.9 155.4h-1.7v1.4c.3-.1.5-.2.8-.2.9 0 1.6.7 1.6 1.7s-.8 1.8-1.8 1.8-1.3-.4-1.6-1.1l.6-.2c.1.2.2.3.3.4.2.2.5.3.8.3.6 0 1.1-.5 1.1-1.2s-.5-1.1-1.2-1.1-.8.2-1.2.5v-3h2.3v.6zM250.5 159.7c0 .2-.2.4-.4.4s-.4-.2-.4-.4.2-.4.4-.4.4.2.4.4zM254.6 159.5v.6h-3l1.9-2.7c.5-.8.7-1 .7-1.3 0-.5-.4-.8-.9-.8s-.7.2-.8.4v.6h-.6c0-1 .6-1.6 1.5-1.6s1.5.5 1.5 1.3-.2.8-.6 1.5l-1.4 2h1.9zM259 156.4v.5c.3-.4.6-.6 1-.6s.8.2 1 .7c.3-.5.6-.7 1.2-.7s.7.1.9.4c.2.2.2.4.2 1v2.4h-.6v-2.2c0-.4 0-.6-.1-.7-.1-.2-.4-.3-.6-.3-.5 0-.8.4-.8 1v2.2h-.6v-2.2c0-.4 0-.5-.1-.7-.1-.2-.3-.3-.6-.3-.5 0-.9.4-.9 1v2.2h-.6v-3.7h.6zM266.6 157.6v.4h-2l1.2-1.6c.3-.5.4-.6.4-.8 0-.3-.2-.4-.5-.4s-.5.2-.5.6h-.4c0-.6.4-1 1-1s1 .3 1 .8-.1.5-.4.9l-.8 1.1h1.1z"/></g></g></svg>