<svg xmlns="http://www.w3.org/2000/svg" viewBox="0 0 383.3 419.7"><defs><style>.cls-1,.cls-10,.cls-11,.cls-12,.cls-13,.cls-14,.cls-15,.cls-16,.cls-2,.cls-3,.cls-4,.cls-5,.cls-6,.cls-7,.cls-8,.cls-9{fill:none}.cls-1,.cls-10,.cls-11,.cls-12,.cls-13,.cls-14,.cls-16,.cls-2,.cls-3,.cls-4,.cls-5,.cls-6,.cls-9{stroke-width:.1px}.cls-1,.cls-10,.cls-11,.cls-12,.cls-13,.cls-14,.cls-15,.cls-16,.cls-2,.cls-3,.cls-5,.cls-6,.cls-7,.cls-8,.cls-9{stroke-linecap:round;stroke-linejoin:round}.cls-1,.cls-10,.cls-11,.cls-12,.cls-13,.cls-14,.cls-15,.cls-16,.cls-3,.cls-5,.cls-6,.cls-9{stroke:#194164}.cls-1,.cls-10,.cls-11,.cls-13,.cls-6,.cls-9{stroke-dasharray:0 0 0 0 2.9 1.4 .2 1.4}.cls-2{stroke:#646464}.cls-12,.cls-16,.cls-3,.cls-5{stroke-dasharray:0 0 1.4 1.4}.cls-4{stroke:#969696;stroke-miterlimit:10}.cls-5{stroke-dashoffset:1px}.cls-17,.cls-18{fill:#fff}.cls-6{stroke-dashoffset:1.4px}.cls-7{stroke:#000;stroke-width:.3px}.cls-8{stroke:#bbb;stroke-width:.1px}.cls-9{stroke-dashoffset:4.3px}.cls-10{stroke-dashoffset:.5px}.cls-11{stroke-dashoffset:2.4px}.cls-18{fill-rule:evenodd}.cls-12{stroke-dashoffset:.2px}.cls-13{stroke-dashoffset:1.2px}.cls-15{stroke-width:.3px}.cls-16{stroke-dashoffset:.7px}</style></defs><g id="Plan"><path class="cls-15" d="M299.9 215.4h29.8v39.8h-29.8z"/><path class="cls-14" d="M331.6 264.1h-35.5M313.3 261.2h14M300.6 258.1h13.7M331.6 206.5h-35.5M313.3 209.6h14M300.6 212.5h13.7"/><path class="cls-18" d="M382.5 157l-4.8 4.8h4.8V157"/><path class="cls-4" d="M382.7 158.7l-1-.7M381.7 161.8l-1.9-1.9M382.2 161.8l.5-.2M378.4 161.8l4.3-4.3"/><path class="cls-18" d="M382.5 157l-4.8 4.8h4.8V157"/><path class="cls-4" d="M382.7 158.7l-1-.7M381.7 161.8l-1.9-1.9M382.2 161.8l.5-.2M378.4 161.8l4.3-4.3"/><path class="cls-15" d="M382.5 161.8V157M382.5 161.8V157"/><path class="cls-18" d="M375.5 197.4v.4l7 7v-7.4h-7"/><path class="cls-4" d="M382.7 198.8l-1.7-1.4M382.7 202.9l-5.5-5.5M381 203.1l1.7-1.4M379.1 201.2l3.6-3.6M376.9 199.3l2-1.9"/><path class="cls-18" d="M375.5 197.4v.4l7 7v-7.4h-7"/><path class="cls-4" d="M382.7 198.8l-1.7-1.4M382.7 202.9l-5.5-5.5M381 203.1l1.7-1.4M379.1 201.2l3.6-3.6M376.9 199.3l2-1.9"/><path class="cls-15" d="M382.5 204.8v-7.4M375.5 197.8v-.4M375.5 197.8v-.4M382.5 204.8v-7.4"/><path class="cls-14" d="M381.3 191.6h1.9v5.8h-1.9zM381.3 161.8h1.9v2.4h-1.9z"/><path class="cls-14" d="M381.3 164.2h1.9v27.4h-1.9zM381.3 191.6v-27.4"/><path class="cls-1" d="M375.5 191.8V164"/><path class="cls-14" d="M375.5 164.5v-.5"/><path class="cls-18" d="M375.5 197.4v-5.6h5.8v5.6"/><path class="cls-4" d="M381.5 193.5l-1.9-1.7M381 197.4l-5.3-5.6M377.2 197.4l-1.5-1.5M378.9 197.4l2.6-2.4M375.7 196.6l4.6-4.8M375.7 192.6l.8-.8"/><path class="cls-18" d="M375.5 161.8v2.2h5.8v-2.2"/><path class="cls-4" d="M379.8 164l-2.1-2.2M375.7 164v-.2M380.1 164l1.4-1.2M376.2 164l2.2-2.2"/><path class="cls-15" d="M375.5 191.8h5.8M375.5 164h5.8M375.5 191.8h5.8M375.5 197.4v-5.6M375.5 164h5.8M375.5 161.8v2.2M382.5 197.4h-1.2M382.5 161.8h-1.2M375.5 197.4v-5.6M375.5 161.8v2.2M381.3 191.8v5.6M381.3 164v-2.2"/><path class="cls-18" d="M.1 396.8h11.1v-14.4H.1v14.4"/><path class="cls-18" d="M.1 396.8h11.1v-3.4H3.5v-7.6h7.7v-3.4H.1v14.4"/><path class="cls-4" d="M.4 393.7l2.9 3.1M.4 389.8l3.3 3.4M4 393.4l3.3 3.4M.4 385.8l3.3 3.3M8.1 393.4l3.3 3.4M.9 382.4l3.3 3.4M4.9 382.4l3.4 3.4M9 382.4l2.4 2.4"/><path class="cls-18" d="M3.5 393.4h7.7v-7.6H3.5v7.6"/><path class="cls-15" d="M11.2 393.4H3.5M11.2 396.8H3.5M11.2 382.4H3.5M11.2 385.8H3.5"/><path class="cls-7" d="M11.2 396.8H3.5M11.2 382.4H3.5"/><path class="cls-15" d="M3.5 393.4v-7.6M3.5 382.4H.1M.1 382.4v14.4M.1 396.8h3.4M11.2 385.8v-3.4"/><path class="cls-18" d="M.1 71.1h11.1V56.7H.1v14.4"/><path class="cls-18" d="M.1 71.1h11.1v-3.3H3.5v-7.7h7.7v-3.4H.1v14.4"/><path class="cls-4" d="M.4 69l1.9 2.1M.4 65.1l6 6M.4 61l3.3 3.4M6.9 67.8l3.3 3.3M.4 57l3.3 3.3M10.9 67.8l.5.2M4 56.7l3.3 3.4M8.1 56.7l3.3 3.4"/><path class="cls-18" d="M3.5 67.8h7.7v-7.7H3.5v7.7"/><path class="cls-15" d="M11.2 67.8H3.5M11.2 71.1H3.5M11.2 56.7H3.5M11.2 60.1H3.5"/><path class="cls-7" d="M11.2 71.1H3.5M11.2 56.7H3.5"/><path class="cls-15" d="M3.5 67.8v-7.7M3.5 56.7H.1M.1 56.7v14.4M.1 71.1h3.4"/><path class="cls-14" d="M103.8 186.1H89.7M103.8 186.8H89.7M89.7 186.1v.7M103.8 186.8H89.7M103.8 186.1H89.7M103.8 186.1v.7M46 269.8H28.7"/><path class="cls-7" d="M46.7 270.6h-18"/><path class="cls-14" d="M44.5 268.4H28.7M46 269.8H28.7"/><path class="cls-7" d="M28.7 269.8v.8"/><path class="cls-14" d="M28.7 268.4v1.4M46.7 270.6h-18M44.5 268.4H28.7M46 253.8v16"/><path class="cls-7" d="M46.7 253.8v16.8"/><path class="cls-14" d="M44.5 253.8v14.6M46 253.8v16M46.7 253.8v16.8M44.5 253.8v14.6"/><path class="cls-7" d="M46 253.8h.7"/><path class="cls-14" d="M44.5 253.8H46M29.2 271.3h17.5v110.9H29.2zM44.3 360.6h2.4M44.3 343.5h2.4M44.3 326.5h2.4"/><path class="cls-18" d="M34.3 293.4h9.3c.1 0 .3 0 .4.1.1 0 .2.1.3.2.1 0 .2.2.3.2 0 0 .2.2.2.3 0 .1.1.2.2.3 0 .1 0 .2.1.4v12c0 .1 0 .3-.1.4 0 .1-.1.2-.2.3 0 .1-.2.2-.2.3 0 0-.2.2-.3.2-.1 0-.2.1-.3.2-.1 0-.2 0-.4.1H33.9c-.1 0-.3 0-.4-.1-.1 0-.2-.1-.3-.2-.1 0-.2-.2-.3-.2 0 0-.2-.2-.2-.3 0-.1-.1-.2-.2-.3 0-.1 0-.2-.1-.4v-11.6-.4c0-.1 0-.3.1-.4 0-.1.1-.2.2-.3 0-.1.2-.2.2-.3 0 0 .2-.2.3-.2.1 0 .2-.1.3-.2.1 0 .2 0 .4-.1s.3 0 .4 0"/><path class="cls-14" d="M34.3 293.4h9.3c.1 0 .3 0 .4.1.1 0 .2.1.3.2.1 0 .2.2.3.2 0 0 .2.2.2.3 0 .1.1.2.2.3 0 .1 0 .2.1.4v12c0 .1 0 .3-.1.4 0 .1-.1.2-.2.3 0 .1-.2.2-.2.3 0 0-.2.2-.3.2-.1 0-.2.1-.3.2-.1 0-.2 0-.4.1H33.9c-.1 0-.3 0-.4-.1-.1 0-.2-.1-.3-.2-.1 0-.2-.2-.3-.2 0 0-.2-.2-.2-.3 0-.1-.1-.2-.2-.3 0-.1 0-.2-.1-.4v-11.6-.4c0-.1 0-.3.1-.4 0-.1.1-.2.2-.3 0-.1.2-.2.2-.3 0 0 .2-.2.3-.2.1 0 .2-.1.3-.2.1 0 .2 0 .4-.1s.3 0 .4 0"/><path class="cls-18" d="M36.6 300.9c0-.6-.5-1.1-1.1-1.1s-1.1.5-1.1 1.1.5 1.1 1.1 1.1 1.1-.5 1.1-1.1"/><path class="cls-14" d="M36.6 300.9c0-.6-.5-1.1-1.1-1.1s-1.1.5-1.1 1.1.5 1.1 1.1 1.1 1.1-.5 1.1-1.1"/><path class="cls-17" d="M30.6 344h14.6v15.8H30.6z"/><path class="cls-14" d="M30.6 344h14.6v15.8H30.6z"/><path class="cls-18" d="M43.3 356c0-1.6-1.3-2.9-2.9-2.9s-2.9 1.3-2.9 2.9 1.3 2.9 2.9 2.9 2.9-1.3 2.9-2.9"/><path class="cls-14" d="M43.3 356c0-1.6-1.3-2.9-2.9-2.9s-2.9 1.3-2.9 2.9 1.3 2.9 2.9 2.9 2.9-1.3 2.9-2.9"/><path class="cls-18" d="M35.9 357c0-1.2-1-2.2-2.2-2.2s-2.2 1-2.2 2.2 1 2.2 2.2 2.2 2.2-1 2.2-2.2"/><path class="cls-14" d="M35.9 357c0-1.2-1-2.2-2.2-2.2s-2.2 1-2.2 2.2 1 2.2 2.2 2.2 2.2-1 2.2-2.2"/><path class="cls-18" d="M42.6 348.4c0-1.3-1-2.3-2.2-2.3s-2.2 1-2.2 2.3 1 2.3 2.2 2.3 2.2-1 2.2-2.3"/><path class="cls-14" d="M42.6 348.4c0-1.3-1-2.3-2.2-2.3s-2.2 1-2.2 2.3 1 2.3 2.2 2.3 2.2-1 2.2-2.3"/><path class="cls-18" d="M36.9 348.7c0-1.5-1.3-2.8-2.9-2.8s-2.9 1.2-2.9 2.8 1.3 2.8 2.9 2.8 2.9-1.2 2.9-2.8"/><path class="cls-14" d="M36.9 348.7c0-1.5-1.3-2.8-2.9-2.8s-2.9 1.2-2.9 2.8 1.3 2.8 2.9 2.8 2.9-1.2 2.9-2.8"/><path class="cls-1" d="M39.3 270.8v111.6"/><path class="cls-14" d="M39.3 381.9v.5M49.1 270.6h17v.7h-17zM49.1 255.2h.7v15.4h-.7zM65.7 255.2h.5v15.4h-.5zM49.1 254.7h17v.5h-17zM83.2 270.6h17v.7h-17zM83.2 255.2h.5v15.4h-.5zM99.5 255.2h.7v15.4h-.7zM83.2 254.7h17v.5h-17zM100.2 270.6h2.4v.7h-2.4zM29.2 270.6h19.9v.7H29.2zM66.1 270.6h17v.7h-17z"/><path class="cls-14" d="M66.1 255.2h.5v15.4h-.5zM82.7 255.2h.5v15.4h-.5zM66.1 254.7h17v.5h-17zM44.3 377.4h2.4M44.3 309.4h2.4M44.3 292.4h2.4M44.3 275.4h2.4"/><path class="cls-18" d="M261.5 396.8v-3.4h-20.6v3.4h20.6"/><path class="cls-4" d="M241.1 393.9l2.6 2.9M244.5 393.4l3.3 3.4M248.5 393.4l3.4 3.4M252.4 393.4l3.3 3.4M256.5 393.4l3.3 3.4M260.5 393.4l1.2 1.2"/><path class="cls-18" d="M261.5 393.4v-.4h-20.6v.4h20.6M261.5 393v-5.8h-20.6v5.8h20.6"/><path class="cls-4" d="M241.1 387.2v5.8M242.3 387.2v5.8M243.7 387.2v5.8M245.2 387.2v5.8M246.6 387.2v5.8M248.1 387.2v5.8M249.5 387.2v5.8M250.9 387.2v5.8M252.4 387.2v5.8M253.8 387.2v5.8M255.3 387.2v5.8M256.7 387.2v5.8M257.9 387.2v5.8M259.3 387.2v5.8M260.8 387.2v5.8"/><path class="cls-18" d="M261.5 387.2v-5h-20.6v5h20.6"/><path class="cls-4" d="M261.7 382.6l-.4-.4M261.7 386.5l-4.5-4.3M258.4 387.2l-5.1-5M254.3 387.2l-5-5M250.2 387.2l-5-5M246.1 387.2l-5-5M242.3 387.2l-1.2-1.2M261.3 387.2l.4-.5M257.2 387.2l4.5-4.3M253.1 387.2l5-5M249.3 387.2l5-5M245.2 387.2l5-5M241.1 387.2l5-5M241.1 383.4l1-1.2"/><path class="cls-15" d="M261.5 393.4h-20.6M261.5 396.8h-20.6"/><path class="cls-4" d="M261.5 387.2h-20.6M261.5 393h-20.6"/><path class="cls-15" d="M261.5 382.2h-20.6M261.5 387.2h-20.6"/><path class="cls-14" d="M261.5 396.8h-20.6M261.5 382.2h-20.6"/><path class="cls-18" d="M346.7 396.8v-3.4h-25.9v3.4h25.9"/><path class="cls-4" d="M321 393.7l2.9 3.1M324.6 393.4l3.4 3.4M328.7 393.4l3.4 3.4M332.5 393.4l3.4 3.4M336.6 393.4l3.4 3.4M340.7 393.4l3.4 3.4M344.8 393.4l2.1 2.2"/><path class="cls-18" d="M346.7 393.4v-.4h-25.9v.4h25.9M346.7 393v-5.8h-25.9v5.8h25.9"/><path class="cls-4" d="M321.7 387.2v5.8M323.2 387.2v5.8M324.6 387.2v5.8M326.1 387.2v5.8M327.5 387.2v5.8M328.9 387.2v5.8M330.4 387.2v5.8M331.8 387.2v5.8M333 387.2v5.8M334.5 387.2v5.8M335.9 387.2v5.8M337.3 387.2v5.8M338.8 387.2v5.8M340.2 387.2v5.8M341.7 387.2v5.8M343.1 387.2v5.8M344.5 387.2v5.8M346 387.2v5.8"/><path class="cls-18" d="M346.7 387.2v-5h-25.9v5h25.9"/><path class="cls-4" d="M346.9 383.6l-1.4-1.4M346.5 387.2l-5.1-5M342.4 387.2l-5.1-5M338.5 387.2l-5-5M334.5 387.2l-5.1-5M330.4 387.2l-5.1-5M326.3 387.2l-5-5M322.5 387.2l-1.5-1.4M345.3 387.2l1.6-1.4M341.4 387.2l5.1-5M337.3 387.2l5.1-5M333.3 387.2l5-5M329.4 387.2l5.1-5M325.3 387.2l5.1-5M321.3 387.2l5-5M321 383.6l1.5-1.4"/><path class="cls-15" d="M346.7 393.4h-25.9M346.7 396.8h-25.9"/><path class="cls-4" d="M346.7 387.2h-25.9M346.7 393h-25.9"/><path class="cls-15" d="M332.5 382.2h-11.7M346.7 382.2h-7M346.7 387.2h-25.9"/><path class="cls-14" d="M346.7 396.8h-25.9M332.5 382.2h-11.7M346.7 382.2h-7"/><path class="cls-15" d="M240.9 387.2v-5"/><path class="cls-1" d="M320.1 387.2v-5"/><path class="cls-14" d="M320.1 382.6v-.4"/><path class="cls-1" d="M320.1 382.2h-57.9"/><path class="cls-14" d="M262.7 382.2h-.5"/><path class="cls-9" d="M262.2 382.2v5"/><path class="cls-14" d="M262.2 386.7v.5"/><path class="cls-1" d="M320.8 389.6v7.2"/><path class="cls-13" d="M320.8 396.8h3.3"/><path class="cls-14" d="M324.1 398.2v.5"/><path class="cls-10" d="M324.1 398.7h-66"/><path class="cls-14" d="M258.1 398.7v-1.9"/><path class="cls-11" d="M258.1 396.8h3.4"/><path class="cls-1" d="M261.5 396.8v-7.2"/><path class="cls-15" d="M320.8 396.8h3.3M261.5 396.8h-3.4"/><path class="cls-14" d="M261.5 387.2h59.3v2.4h-59.3zM316.9 389.6v-2.4M265.1 389.6v-2.4M320.8 387.2v2.4M293.2 387.2v2.4M316.9 387.2v2.4M289.1 387.2v2.4M293.2 387.2v2.4M265.1 387.2v2.4M289.1 387.2v2.4M261.5 387.2v2.4"/><path class="cls-15" d="M320.8 396.8v-3.4M320.8 393.4v-3.8"/><path class="cls-18" d="M320.8 382.2h-.7v5h.7"/><path class="cls-4" d="M321 385.8l-.7-.8M320.3 384.3l.7-.7"/><path class="cls-15" d="M320.8 382.2h-.7v5h.7M261.5 396.8v-3.4M261.5 393.4v-3.8"/><path class="cls-18" d="M261.5 382.2h.7v5h-.7"/><path class="cls-4" d="M262.5 383.4l-.8-.8M262.2 387.2l-.5-.7M261.7 386.7l.8-.7M261.7 382.9l.5-.7"/><path class="cls-15" d="M261.5 382.2h.7v5h-.7"/><path class="cls-18" d="M14.5 393.4l-3.3 3.4h42v-3.4H14.5"/><path class="cls-4" d="M13.3 394.9l2 1.9M16 393.4l3.3 3.4M20.1 393.4l3.3 3.4M23.9 393.4l3.4 3.4M28 393.4l3.3 3.4M32.1 393.4l3.3 3.4M35.9 393.4l3.4 3.4M40 393.4l3.3 3.4M44.1 393.4l3.3 3.4M48.1 393.4l3.4 3.4M52 393.4l1.4 1.2"/><path class="cls-18" d="M15 393l-.5.4h38.7v-.4H15M22.5 387.2L15 393h38.2v-5.8H22.5"/><path class="cls-4" d="M15.7 392.5v.5M16.9 391.5v1.5M18.4 390.3v2.7M19.8 389.4v3.6M21.3 388.2v4.8M22.7 387.2v5.8M24.1 387.2v5.8M25.6 387.2v5.8M27 387.2v5.8M28.5 387.2v5.8M29.9 387.2v5.8M31.3 387.2v5.8M32.5 387.2v5.8M34 387.2v5.8M35.4 387.2v5.8M36.9 387.2v5.8M38.3 387.2v5.8M39.7 387.2v5.8M41.2 387.2v5.8M42.6 387.2v5.8M44.1 387.2v5.8M45.5 387.2v5.8M46.9 387.2v5.8M48.1 387.2v5.8M49.6 387.2v5.8M51 387.2v5.8M52.5 387.2v5.8"/><path class="cls-18" d="M28.7 382.2l-6.2 5h30.7v-5H28.7"/><path class="cls-4" d="M24.4 385.8l1.4 1.4M26.5 384.1l3.2 3.1M28.7 382.2l5 5M32.8 382.2l5 5M36.9 382.2l5 5M40.7 382.2l5 5M44.8 382.2l5 5M48.9 382.2l4.5 4.5M52.7 382.2l.7.4"/><path class="cls-15" d="M53.2 393.4H14.5M53.2 396.8h-42"/><path class="cls-4" d="M53.2 387.2H22.5M53.2 393H15"/><path class="cls-15" d="M53.2 382.2H28.7M53.2 387.2H22.5"/><path class="cls-14" d="M53.2 396.8h-42M53.2 382.2H28.7"/><path class="cls-18" d="M167.4 396.8v-3.4h-51.1v3.4h51.1"/><path class="cls-4" d="M116.5 393.7l3.2 3.1M120.1 393.4l3.4 3.4M124.2 393.4l3.4 3.4M128.3 393.4l3.4 3.4M132.1 393.4l3.4 3.4M136.2 393.4l3.4 3.4M140.3 393.4l3.4 3.4M144.1 393.4l3.4 3.4M148.2 393.4l3.4 3.4M152.3 393.4l3.4 3.4M156.4 393.4l3.3 3.4M160.2 393.4l3.4 3.4M164.3 393.4l3.4 3.4"/><path class="cls-18" d="M167.4 393.4v-.4h-51.1v.4h51.1M167.4 393v-5.8h-51.1v5.8h51.1"/><path class="cls-4" d="M117.7 387.2v5.8M119.2 387.2v5.8M120.6 387.2v5.8M122.1 387.2v5.8M123.3 387.2v5.8M124.7 387.2v5.8M126.1 387.2v5.8M127.6 387.2v5.8M129 387.2v5.8M130.5 387.2v5.8M131.9 387.2v5.8M133.3 387.2v5.8M134.8 387.2v5.8M136.2 387.2v5.8M137.4 387.2v5.8M138.9 387.2v5.8M140.3 387.2v5.8M141.7 387.2v5.8M143.2 387.2v5.8M144.6 387.2v5.8M146.1 387.2v5.8M147.5 387.2v5.8M148.9 387.2v5.8M150.4 387.2v5.8M151.8 387.2v5.8M153 387.2v5.8M154.5 387.2v5.8M155.9 387.2v5.8M157.3 387.2v5.8M158.8 387.2v5.8M160.2 387.2v5.8M161.7 387.2v5.8M163.1 387.2v5.8M164.5 387.2v5.8M166 387.2v5.8M167.2 387.2v5.8"/><path class="cls-18" d="M167.4 387.2v-5h-51.1v5h51.1"/><path class="cls-4" d="M116.5 385.8l1.5 1.4M117 382.2l5.1 5M120.9 382.2l5 5M124.9 382.2l5.1 5M129 382.2l5.1 5M132.9 382.2l5 5M136.9 382.2l5.1 5M141 382.2l5.1 5M145.1 382.2l5 5M148.9 382.2l5.1 5M153 382.2l5.1 5M157.1 382.2l5 5M160.9 382.2l5.1 5M165 382.2l2.7 2.4"/><path class="cls-15" d="M167.4 393.4h-51.1M167.4 396.8h-51.1"/><path class="cls-4" d="M167.4 387.2h-51.1M167.4 393h-51.1"/><path class="cls-15" d="M167.4 382.2h-51.1M167.4 387.2h-51.1"/><path class="cls-14" d="M167.4 396.8h-51.1M167.4 382.2h-51.1"/><path class="cls-18" d="M240.9 396.8v-3.4h-32.7v3.4h32.7"/><path class="cls-4" d="M208.5 393.4l3.3 3.4M212.3 393.4l3.4 3.4M216.4 393.4l3.3 3.4M220.5 393.4l3.3 3.4M224.5 393.4l3.4 3.4M228.4 393.4l3.3 3.4M232.5 393.4l3.3 3.4M236.5 393.4l3.4 3.4M240.4 393.4l.7.5"/><path class="cls-18" d="M240.9 393.4v-.4h-32.7v.4h32.7M240.9 393v-5.8h-32.7v5.8h32.7"/><path class="cls-4" d="M208.5 387.2v5.8M209.9 387.2v5.8M211.3 387.2v5.8M212.5 387.2v5.8M214 387.2v5.8M215.4 387.2v5.8M216.9 387.2v5.8M218.3 387.2v5.8M219.7 387.2v5.8M221.2 387.2v5.8M222.6 387.2v5.8M224.1 387.2v5.8M225.5 387.2v5.8M226.9 387.2v5.8M228.1 387.2v5.8M229.6 387.2v5.8M231 387.2v5.8M232.5 387.2v5.8M233.9 387.2v5.8M235.3 387.2v5.8M236.8 387.2v5.8M238.2 387.2v5.8M239.7 387.2v5.8"/><path class="cls-18" d="M240.9 387.2v-5h-32.7v5h32.7"/><path class="cls-4" d="M208.5 385.3l1.6 1.9M209.2 382.2l5 5M213.3 382.2l5 5M217.1 382.2l5 5M221.2 382.2l5 5M225.3 382.2l5 5M229.1 382.2l5 5M233.2 382.2l5 5M237.3 382.2l3.8 3.8"/><path class="cls-15" d="M240.9 393.4h-32.7M240.9 396.8h-32.7"/><path class="cls-4" d="M240.9 387.2h-32.7M240.9 393h-32.7"/><path class="cls-15" d="M240.9 382.2h-32.7M240.9 387.2h-32.7"/><path class="cls-14" d="M240.9 396.8h-32.7M240.9 382.2h-32.7"/><path class="cls-15" d="M240.9 387.2v-5"/><path class="cls-14" d="M114.4 389.6v7.2h3.3v1.9h-66v-1.9h3.4v-7.2"/><path class="cls-1" d="M116.3 382.2H53.2"/><path class="cls-14" d="M53.7 382.2h-.5"/><path class="cls-15" d="M114.4 396.8h3.3M55.1 396.8h-3.4"/><path class="cls-14" d="M53.2 387.2h63.1v2.4H53.2zM112.5 389.6v-2.4M57 389.6v-2.4M116.3 387.2v2.4M97.3 387.2v2.4M112.5 387.2v2.4M93.3 387.2v2.4M97.3 387.2v2.4M76.2 387.2v2.4M93.3 387.2v2.4M72.1 387.2v2.4M76.2 387.2v2.4M57 387.2v2.4M72.1 387.2v2.4M53.2 387.2v2.4"/><path class="cls-18" d="M116.2 392.9h-1.9v-3.4h1.9"/><path class="cls-4" d="M114.9 389.6v3.4M116.3 389.6v3.4M116.2 392.9h-1.9v-3.4h1.9"/><path class="cls-15" d="M116.3 387.2v-5"/><path class="cls-18" d="M116.3 396.8h-1.9v-3.4h1.9"/><path class="cls-4" d="M114.6 395.8l1 1M116.3 393.4l.2.3"/><path class="cls-15" d="M116.3 396.8h-1.9v-3.4h1.9M114.4 393.4v-3.8"/><path class="cls-18" d="M53.3 392.9h1.8v-3.4h-1.8"/><path class="cls-4" d="M53.9 389.6v3.4M53.3 392.9h1.8v-3.4h-1.8"/><path class="cls-15" d="M53.2 387.2v-5"/><path class="cls-18" d="M53.2 396.8h1.9v-3.4h-1.9"/><path class="cls-4" d="M53.4 394.6l1.9 2"/><path class="cls-15" d="M53.2 396.8h1.9v-3.4h-1.9M55.1 393.4v-3.8"/><path class="cls-14" d="M206.5 389.6v7.2h3.4v1.9H166v-1.9h3.3v-7.2"/><path class="cls-1" d="M208.2 382.2h-40.8"/><path class="cls-14" d="M167.9 382.2h-.5"/><path class="cls-15" d="M206.5 396.8h3.4M169.3 396.8H166"/><path class="cls-14" d="M167.4 387.2h40.8v2.4h-40.8zM204.6 389.6v-2.4M171.3 389.6v-2.4M208.2 387.2v2.4M190 387.2v2.4M204.6 387.2v2.4M185.9 387.2v2.4M190 387.2v2.4M171.3 387.2v2.4M185.9 387.2v2.4M167.4 387.2v2.4"/><path class="cls-18" d="M208.3 392.9h-1.8v-3.4h1.8"/><path class="cls-4" d="M207 389.6v3.4M208.3 392.9h-1.8v-3.4h1.8"/><path class="cls-15" d="M208.2 387.2v-5"/><path class="cls-18" d="M208.2 396.8h-1.7v-3.4h1.7"/><path class="cls-4" d="M206.8 395.8l.9 1"/><path class="cls-15" d="M208.2 396.8h-1.7v-3.4h1.7M206.5 393.4v-3.8"/><path class="cls-18" d="M167.5 392.9h1.8v-3.4h-1.8"/><path class="cls-4" d="M168.6 389.6v3.4M167.5 392.9h1.8v-3.4h-1.8"/><path class="cls-15" d="M167.4 387.2v-5"/><path class="cls-18" d="M167.4 396.8h1.9v-3.4h-1.9"/><path class="cls-4" d="M168.4 393.4l1.2 1.2"/><path class="cls-15" d="M167.4 396.8h1.9v-3.4h-1.9M169.3 393.4v-3.8"/><path class="cls-18" d="M259.8 56.7v3.4h25.7v-3.4h-25.7"/><path class="cls-4" d="M260.5 56.7l3.4 3.4M264.6 56.7l3.4 3.4M268.5 56.7l3.3 3.4M272.5 56.7l3.4 3.4M276.6 56.7l3.4 3.4M280.5 56.7l3.3 3.4M284.5 56.7l1.2 1"/><path class="cls-18" d="M259.8 60.1v.7h25.7v-.7h-25.7"/><path class="cls-18" d="M259.8 60.8v5.5h25.7v-5.5h-25.7"/><path class="cls-4" d="M285 66.3v-5.5M283.6 66.3v-5.5M282.1 66.3v-5.5M280.7 66.3v-5.5M279.3 66.3v-5.5M277.8 66.3v-5.5M276.4 66.3v-5.5M274.9 66.3v-5.5M273.5 66.3v-5.5M272.1 66.3v-5.5M270.9 66.3v-5.5M269.4 66.3v-5.5M268 66.3v-5.5M266.5 66.3v-5.5M265.1 66.3v-5.5M263.7 66.3v-5.5M262.2 66.3v-5.5M260.8 66.3v-5.5"/><path class="cls-18" d="M259.8 66.3v5.1h25.7v-5.1h-25.7"/><path class="cls-4" d="M260.1 68.2l3.1 3.2M262.2 66.3l5.1 5.1M266.1 66.3l5 5.1M270.1 66.3l5.1 5.1M274.2 66.3l5.1 5.1M278.1 66.3l5 5.1M282.1 66.3l3.6 3.4"/><path class="cls-15" d="M259.8 60.1h25.7M259.8 56.7h25.7"/><path class="cls-4" d="M259.8 66.3h25.7M259.8 60.8h25.7"/><path class="cls-15" d="M259.8 71.4h25.7M259.8 66.3h25.7"/><path class="cls-14" d="M259.8 56.7h25.7M259.8 71.4h25.7"/><path class="cls-18" d="M116.3 56.7v3.4h80.6v-3.4h-80.6"/><path class="cls-4" d="M116.5 57l3.2 3.1M120.1 56.7l3.4 3.4M124.2 56.7l3.4 3.4M128.3 56.7l3.4 3.4M132.1 56.7l3.4 3.4M136.2 56.7l3.4 3.4M140.3 56.7l3.4 3.4M144.4 56.7l3.3 3.4M148.2 56.7l3.4 3.4M152.3 56.7l3.4 3.4M156.4 56.7l3.3 3.4M160.2 56.7l3.4 3.4M164.3 56.7l3.4 3.4M168.4 56.7l3.3 3.4M172.2 56.7l3.4 3.4M176.3 56.7l3.4 3.4M180.4 56.7l3.3 3.4M184.5 56.7l3.3 3.4M188.3 56.7l3.4 3.4M192.4 56.7l3.3 3.4M196.5 56.7l.7.7"/><path class="cls-18" d="M116.3 60.1v.7h80.6v-.7h-80.6"/><path class="cls-18" d="M116.3 60.8v5.5h80.6v-5.5h-80.6"/><path class="cls-4" d="M196.9 66.3v-5.5M195.7 66.3v-5.5M194.3 66.3v-5.5M192.9 66.3v-5.5M191.4 66.3v-5.5M190 66.3v-5.5M188.5 66.3v-5.5M187.1 66.3v-5.5M185.7 66.3v-5.5M184.2 66.3v-5.5M182.8 66.3v-5.5M181.6 66.3v-5.5M180.1 66.3v-5.5M178.7 66.3v-5.5M177.3 66.3v-5.5M175.8 66.3v-5.5M174.4 66.3v-5.5M172.9 66.3v-5.5M171.5 66.3v-5.5M170.1 66.3v-5.5M168.6 66.3v-5.5M167.2 66.3v-5.5M166 66.3v-5.5M164.5 66.3v-5.5M163.1 66.3v-5.5M161.7 66.3v-5.5M160.2 66.3v-5.5M158.8 66.3v-5.5M157.3 66.3v-5.5M155.9 66.3v-5.5M154.5 66.3v-5.5M153 66.3v-5.5M151.8 66.3v-5.5M150.4 66.3v-5.5M148.9 66.3v-5.5M147.5 66.3v-5.5M146.1 66.3v-5.5M144.6 66.3v-5.5M143.2 66.3v-5.5M141.7 66.3v-5.5M140.3 66.3v-5.5M138.9 66.3v-5.5M137.4 66.3v-5.5M136.2 66.3v-5.5M134.8 66.3v-5.5M133.3 66.3v-5.5M131.9 66.3v-5.5M130.5 66.3v-5.5M129 66.3v-5.5M127.6 66.3v-5.5M126.1 66.3v-5.5M124.7 66.3v-5.5M123.3 66.3v-5.5M122.1 66.3v-5.5M120.6 66.3v-5.5M119.2 66.3v-5.5M117.7 66.3v-5.5"/><path class="cls-18" d="M116.3 66.3v5.1h80.6v-5.1h-80.6"/><path class="cls-4" d="M116.5 69l2.2 2.4M117.7 66.3l5.1 5.1M121.8 66.3l5.1 5.1M125.9 66.3l5 5.1M129.7 66.3l5.1 5.1M133.8 66.3l5.1 5.1M137.9 66.3l5 5.1M141.7 66.3l5.1 5.1M145.8 66.3l5.1 5.1M149.9 66.3l5 5.1M154 66.3l5 5.1M157.8 66.3l5.1 5.1M161.9 66.3l5 5.1M166 66.3l5 5.1M169.8 66.3l5.1 5.1M173.9 66.3l5 5.1M178 66.3l5 5.1M181.8 66.3l5.1 5.1M185.9 66.3l5 5.1M190 66.3l5 5.1M194.1 66.3l3.1 3.1"/><path class="cls-15" d="M116.3 60.1h80.6M116.3 56.7h80.6"/><path class="cls-4" d="M116.3 66.3h80.6M116.3 60.8h80.6"/><path class="cls-15" d="M116.3 71.4h80.6M116.3 66.3h80.6"/><path class="cls-14" d="M116.3 56.7h80.6M116.3 71.4h80.6"/><path class="cls-18" d="M53.2 56.7h-42l3.3 3.4h38.7v-3.4"/><path class="cls-4" d="M11.9 56.7l3.4 3.4M16 56.7l3.3 3.4M20.1 56.7l3.3 3.4M23.9 56.7l3.4 3.4M28 56.7l3.3 3.4M32.1 56.7l3.3 3.4M36.1 56.7l3.4 3.4M40 56.7l3.3 3.4M44.1 56.7l3.3 3.4M48.1 56.7l3.4 3.4M52 56.7l1.4 1.2"/><path class="cls-18" d="M53.2 60.1H14.5l.5.7h38.2v-.7"/><path class="cls-18" d="M53.2 60.8H15l7.5 5.5h30.7v-5.5"/><path class="cls-4" d="M52.5 66.3v-5.5M51 66.3v-5.5M49.6 66.3v-5.5M48.1 66.3v-5.5M46.9 66.3v-5.5M45.5 66.3v-5.5M44.1 66.3v-5.5M42.6 66.3v-5.5M41.2 66.3v-5.5M39.7 66.3v-5.5M38.3 66.3v-5.5M36.9 66.3v-5.5M35.4 66.3v-5.5M34 66.3v-5.5M32.5 66.3v-5.5M31.3 66.3v-5.5M29.9 66.3v-5.5M28.5 66.3v-5.5M27 66.3v-5.5M25.6 66.3v-5.5M24.1 66.3v-5.5M22.7 66.3v-5.5M21.3 65.4v-4.6M19.8 64.4v-3.6M18.4 63.2v-2.4M16.9 62.2v-1.4M15.7 61.3v-.5"/><path class="cls-18" d="M53.2 66.3H28.7v5.1h24.5v-5.1"/><path class="cls-4" d="M28.9 69.4l1.7 2M29.7 66.3l5 5.1M33.5 66.3l5 5.1M37.6 66.3l5 5.1M41.7 66.3l5 5.1M45.7 66.3l5.1 5.1M49.6 66.3l3.8 3.6"/><path class="cls-15" d="M14.5 60.1h38.7M11.2 56.7h42"/><path class="cls-4" d="M28.7 66.3h24.5M15 60.8h38.2"/><path class="cls-15" d="M28.7 71.4h24.5M28.7 66.3h24.5"/><path class="cls-14" d="M11.2 56.7h42M28.7 71.4h24.5"/><path class="cls-4" d="M22.5 66.3h6.2"/><path class="cls-15" d="M28.7 66.3v5.1"/><path class="cls-14" d="M55.1 64.2v-7.5h-3.4v-1.9h66v1.9h-3.3v7.5"/><path class="cls-1" d="M53.2 71.4h63.1"/><path class="cls-14" d="M115.8 71.4h.5"/><path class="cls-15" d="M55.1 56.7h-3.4M114.4 56.7h3.3"/><path class="cls-14" d="M53.2 64.2h63.1v2.2H53.2zM57 64.2v2.1M112.5 64.2v2.1M53.2 66.3v-2.1M72.1 66.3v-2.1M57 66.3v-2.1M76.2 66.3v-2.1M72.1 66.3v-2.1M93.3 66.3v-2.1M76.2 66.3v-2.1M97.3 66.3v-2.1M93.3 66.3v-2.1M112.5 66.3v-2.1M97.3 66.3v-2.1M116.3 66.3v-2.1"/><path class="cls-18" d="M53.3 60.7h1.8v3.4h-1.8"/><path class="cls-4" d="M53.9 64.2v-3.4M53.3 60.7h1.8v3.4h-1.8"/><path class="cls-15" d="M53.2 66.3v5.1"/><path class="cls-18" d="M53.2 56.7h1.9v3.4h-1.9"/><path class="cls-4" d="M53.4 57.9l1.9 1.9"/><path class="cls-15" d="M53.2 56.7h1.9v3.4h-1.9M55.1 60.1v4.1"/><path class="cls-18" d="M116.2 60.7h-1.9v3.4h1.9"/><path class="cls-4" d="M116.3 64.2v-3.4M114.9 64.2v-3.4M116.2 60.7h-1.9v3.4h1.9"/><path class="cls-15" d="M116.3 66.3v5.1"/><path class="cls-18" d="M116.3 56.7h-1.9v3.4h1.9"/><path class="cls-4" d="M114.6 59.1l1 1M116.3 56.7l.2.3"/><path class="cls-15" d="M116.3 56.7h-1.9v3.4h1.9M114.4 60.1v4.1"/><path class="cls-14" d="M198.9 64.2v-7.5h-3.4v-1.9h66v1.9h-3.4v7.5"/><path class="cls-1" d="M196.9 71.4h62.9"/><path class="cls-15" d="M198.9 56.7h-3.4M258.1 56.7h3.4"/><path class="cls-14" d="M196.9 64.2h62.9v2.2h-62.9zM200.5 64.2v2.1M256.2 64.2v2.1M196.9 66.3v-2.1M215.9 66.3v-2.1M200.5 66.3v-2.1M220 66.3v-2.1M215.9 66.3v-2.1M236.8 66.3v-2.1M220 66.3v-2.1M241.1 66.3v-2.1M236.8 66.3v-2.1M256.2 66.3v-2.1M241.1 66.3v-2.1M259.8 66.3v-2.1"/><path class="cls-18" d="M197 60.7h1.8v3.4H197"/><path class="cls-4" d="M198.4 64.2v-3.4M197 60.7h1.8v3.4H197"/><path class="cls-15" d="M196.9 66.3v5.1"/><path class="cls-18" d="M196.9 56.7h2v3.4h-2"/><path class="cls-4" d="M197.2 57.4l1.9 2"/><path class="cls-15" d="M196.9 56.7h2v3.4h-2M198.9 60.1v4.1"/><path class="cls-18" d="M259.9 60.7h-1.8v3.4h1.8"/><path class="cls-4" d="M259.3 64.2v-3.4M259.9 60.7h-1.8v3.4h1.8"/><path class="cls-15" d="M259.8 66.3v5.1"/><path class="cls-18" d="M259.8 56.7h-1.7v3.4h1.7"/><path class="cls-4" d="M258.4 58.4l1.4 1.7"/><path class="cls-15" d="M259.8 56.7h-1.7v3.4h1.7M258.1 60.1v4.1"/><path class="cls-18" d="M14.5 60.1l-3.3-3.4v192.7h3.3V60.1"/><path class="cls-4" d="M11.4 248.5l1 .9M11.4 244.4l3.4 3.4M11.4 240.6l3.4 3.3M11.4 236.5l3.4 3.3M11.4 232.4l3.4 3.4M11.4 228.3l3.4 3.4M11.4 224.5l3.4 3.3M11.4 220.4l3.4 3.4M11.4 216.3l3.4 3.4M11.4 212.5l3.4 3.3M11.4 208.4l3.4 3.4M11.4 204.3l3.4 3.4M11.4 200.5l3.4 3.3M11.4 196.4l3.4 3.4M11.4 192.3l3.4 3.4M11.4 188.2l3.4 3.4M11.4 184.4l3.4 3.4M11.4 180.3l3.4 3.4M11.4 176.2l3.4 3.4M11.4 172.4l3.4 3.4M11.4 168.3l3.4 3.4M11.4 164.2l3.4 3.4M11.4 160.2l3.4 3.3M11.4 156.3l3.4 3.4M11.4 152.2l3.4 3.4M11.4 148.2l3.4 3.3M11.4 144.3l3.4 3.4M11.4 140.2l3.4 3.4M11.4 136.2l3.4 3.3M11.4 132.3l3.4 3.4M11.4 128.2l3.4 3.4M11.4 124.2l3.4 3.3M11.4 120.1l3.4 3.3M11.4 116.2l3.4 3.4M11.4 112.2l3.4 3.3M11.4 108.1l3.4 3.3M11.4 104.2l3.4 3.4M11.4 100.2l3.4 3.3M11.4 96.1l3.4 3.3M11.4 92.2l3.4 3.4M11.4 88.2l3.4 3.3M11.4 84.1l3.4 3.3M11.4 80l3.4 3.4M11.4 76.2l3.4 3.3M11.4 72.1l3.4 3.3M11.4 68l3.4 3.4M11.4 64.2l3.4 3.3M11.4 60.1l3.4 3.3"/><path class="cls-18" d="M15 60.8l-.5-.7v189.3h.5V60.8M22.5 66.3L15 60.8v188.6h7.5V66.3"/><path class="cls-4" d="M15.5 61h-.2M17.4 62.5h-2.1M19.1 63.9h-3.8M21 65.4h-5.7M22.7 66.6h-7.4M22.7 68h-7.4M22.7 69.4h-7.4M22.7 70.9h-7.4M22.7 72.3h-7.4M22.7 73.8h-7.4M22.7 75.2h-7.4M22.7 76.6h-7.4M22.7 78.1h-7.4M22.7 79.5h-7.4M22.7 80.7h-7.4M22.7 82.2h-7.4M22.7 83.6h-7.4M22.7 85h-7.4M22.7 86.5h-7.4M22.7 87.9h-7.4M22.7 89.4h-7.4M22.7 90.8h-7.4M22.7 92.2h-7.4M22.7 93.7h-7.4M22.7 95.1h-7.4M22.7 96.3h-7.4M22.7 97.8h-7.4M22.7 99.2h-7.4M22.7 100.6h-7.4M22.7 102.1h-7.4M22.7 103.5h-7.4M22.7 105h-7.4M22.7 106.4h-7.4M22.7 107.8h-7.4M22.7 109.3h-7.4M22.7 110.5h-7.4M22.7 111.9h-7.4M22.7 113.4h-7.4M22.7 114.8h-7.4M22.7 116.2h-7.4M22.7 117.7h-7.4M22.7 119.1h-7.4M22.7 120.6h-7.4M22.7 122h-7.4M22.7 123.4h-7.4M22.7 124.9h-7.4M22.7 126.1h-7.4M22.7 127.5h-7.4M22.7 129h-7.4M22.7 130.4h-7.4M22.7 131.8h-7.4M22.7 133.3h-7.4M22.7 134.7h-7.4M22.7 136.2h-7.4M22.7 137.6h-7.4M22.7 139h-7.4M22.7 140.2h-7.4M22.7 141.7h-7.4M22.7 143.1h-7.4M22.7 144.6h-7.4M22.7 146h-7.4M22.7 147.4h-7.4M22.7 148.9h-7.4M22.7 150.3h-7.4M22.7 151.8h-7.4M22.7 153.2h-7.4M22.7 154.6h-7.4M22.7 155.8h-7.4M22.7 157.3h-7.4M22.7 158.7h-7.4M22.7 160.2h-7.4M22.7 161.6h-7.4M22.7 163h-7.4M22.7 164.5h-7.4M22.7 165.9h-7.4M22.7 167.4h-7.4M22.7 168.8h-7.4M22.7 170.2h-7.4M22.7 171.4h-7.4M22.7 172.9h-7.4M22.7 174.3h-7.4M22.7 175.8h-7.4M22.7 177.2h-7.4M22.7 178.6h-7.4M22.7 180.1h-7.4M22.7 181.5h-7.4M22.7 183h-7.4M22.7 184.4h-7.4M22.7 185.6h-7.4M22.7 187h-7.4M22.7 188.5h-7.4M22.7 189.9h-7.4M22.7 191.4h-7.4M22.7 192.8h-7.4M22.7 194.2h-7.4M22.7 195.7h-7.4M22.7 197.1h-7.4M22.7 198.6h-7.4M22.7 200h-7.4M22.7 201.2h-7.4M22.7 202.6h-7.4M22.7 204.1h-7.4M22.7 205.5h-7.4M22.7 207h-7.4M22.7 208.4h-7.4M22.7 209.8h-7.4M22.7 211.3h-7.4M22.7 212.7h-7.4M22.7 214.2h-7.4M22.7 215.4h-7.4M22.7 216.8h-7.4M22.7 218.2h-7.4M22.7 219.7h-7.4M22.7 221.1h-7.4M22.7 222.6h-7.4M22.7 224h-7.4M22.7 225.4h-7.4M22.7 226.9h-7.4M22.7 228.3h-7.4M22.7 229.8h-7.4M22.7 231h-7.4M22.7 232.4h-7.4M22.7 233.8h-7.4M22.7 235.3h-7.4M22.7 236.7h-7.4M22.7 238.2h-7.4M22.7 239.6h-7.4M22.7 241h-7.4M22.7 242.5h-7.4M22.7 243.9h-7.4M22.7 245.1h-7.4M22.7 246.6h-7.4M22.7 248h-7.4"/><path class="cls-18" d="M28.7 66.3h-6.2v183.1h6.2V66.3"/><path class="cls-4" d="M28.9 69.4l-3.3-3.1M28.9 73.5l-6.2-6.2M28.9 77.6l-6.2-6.2M28.9 81.7l-6.2-6.3M28.9 85.5l-6.2-6.2M28.9 89.6l-6.2-6.2M28.9 93.7l-6.2-6.3M28.9 97.5l-6.2-6.2M28.9 101.6l-6.2-6.2M28.9 105.7l-6.2-6.3M28.9 109.8l-6.2-6.3M28.9 113.6l-6.2-6.2M28.9 117.7l-6.2-6.3M28.9 121.8l-6.2-6.3M28.9 125.6l-6.2-6.2M28.9 129.7l-6.2-6.3M28.9 133.8l-6.2-6.3M28.9 137.6l-6.2-6.2M28.9 141.7l-6.2-6.3M28.9 145.8l-6.2-6.3M28.9 149.8l-6.2-6.2M28.9 153.7l-6.2-6.3M28.9 157.8l-6.2-6.3M28.9 161.8l-6.2-6.2M28.9 165.7l-6.2-6.3M28.9 169.8l-6.2-6.3M28.9 173.8l-6.2-6.2M28.9 177.7l-6.2-6.3M28.9 181.8l-6.2-6.3M28.9 185.8l-6.2-6.2M28.9 189.9l-6.2-6.2M28.9 193.8l-6.2-6.3M28.9 197.8l-6.2-6.2M28.9 201.9l-6.2-6.2M28.9 205.8l-6.2-6.3M28.9 209.8l-6.2-6.2M28.9 213.9l-6.2-6.2M28.9 218l-6.2-6.2M28.9 221.8l-6.2-6.2M28.9 225.9l-6.2-6.2M28.9 230l-6.2-6.2M28.9 233.8l-6.2-6.2M28.9 237.9l-6.2-6.2M28.9 242l-6.2-6.2M28.9 245.8l-6.2-6.2M28.2 249.4l-5.5-5.7M24.4 249.4l-1.7-1.6M26.1 249.4l2.8-2.6M22.7 249l6.2-6.3M22.7 244.9l6.2-6.3M22.7 241l6.2-6.2M22.7 237l6.2-6.3M22.7 232.9l6.2-6.3M22.7 229l6.2-6.2M22.7 225l6.2-6.3M22.7 220.9l6.2-6.3M22.7 216.8l6.2-6.2M22.7 213l6.2-6.3M22.7 208.9l6.2-6.3M22.7 204.8l6.2-6.2M22.7 201l6.2-6.3M22.7 196.9l6.2-6.3M22.7 192.8l6.2-6.2M22.7 189l6.2-6.3M22.7 184.9l6.2-6.3M22.7 180.8l6.2-6.2M22.7 176.7l6.2-6.2M22.7 172.9l6.2-6.3M22.7 168.8l6.2-6.2M22.7 164.7l6.2-6.2M22.7 160.9l6.2-6.3M22.7 156.8l6.2-6.2M22.7 152.7l6.2-6.2M22.7 148.9l6.2-6.3M22.7 144.8l6.2-6.2M22.7 140.7l6.2-6.2M22.7 136.6l6.2-6.2M22.7 132.8l6.2-6.2M22.7 128.7l6.2-6.2M22.7 124.6l6.2-6.2M22.7 120.8l6.2-6.2M22.7 116.7l6.2-6.2M22.7 112.6l6.2-6.2M22.7 108.6l6.2-6.3M22.7 104.7l6.2-6.2M22.7 100.6l6.2-6.2M22.7 96.6l6.2-6.3M22.7 92.7l6.2-6.2M22.7 88.6l6.2-6.2M22.7 84.6l6.2-6.3M22.7 80.7l6.2-6.2M22.7 76.6l6.2-6.2M22.7 72.6l6.2-6.3M22.7 68.5l2.2-2.2"/><path class="cls-15" d="M14.5 249.4V60.1M11.2 249.4V56.7"/><path class="cls-4" d="M22.5 249.4V66.3M15 249.4V60.8"/><path class="cls-15" d="M28.7 249.4v-178M22.5 249.4V66.3"/><path class="cls-14" d="M11.2 249.4V56.7M28.7 249.4v-178"/><path class="cls-18" d="M11.2 360.3v36.5l3.3-3.4v-33.1h-3.3"/><path class="cls-4" d="M11.4 392.7l1.9 2.2M11.4 388.9l3.4 3.3M11.4 384.8l3.4 3.4M11.4 380.7l3.4 3.4M11.4 376.6l3.4 3.4M11.4 372.8l3.4 3.4M11.4 368.7l3.4 3.4M11.4 364.6l3.4 3.4M11.4 360.8l3.4 3.4"/><path class="cls-18" d="M14.5 360.3v33.1l.5-.4v-32.7h-.5M15 360.3V393l7.5-5.8v-26.9H15"/><path class="cls-4" d="M22.7 361.5h-7.4M22.7 363h-7.4M22.7 364.4h-7.4M22.7 365.6h-7.4M22.7 367h-7.4M22.7 368.5h-7.4M22.7 369.9h-7.4M22.7 371.4h-7.4M22.7 372.8h-7.4M22.7 374.2h-7.4M22.7 375.7h-7.4M22.7 377.1h-7.4M22.7 378.6h-7.4M22.7 380h-7.4M22.7 381.2h-7.4M22.7 382.6h-7.4M22.7 384.1h-7.4M22.7 385.5h-7.4M22.7 387h-7.4M21 388.4h-5.7M19.1 389.8h-3.8M17.4 391.3h-2.1M15.5 392.7h-.2"/><path class="cls-18" d="M22.5 360.3v26.9l6.2-5v-21.9h-6.2"/><path class="cls-4" d="M28.9 362.2l-1.9-1.9M28.9 366.3l-6-6M28.9 370.2l-6.2-6.3M28.9 374.2l-6.2-6.2M28.9 378.3l-6.2-6.2M28.7 382.2l-6-6.3M26.5 384.1l-3.8-4.1M24.4 385.8l-1.7-1.7M22.7 385.3l6.2-6.3M22.7 381.2l6.2-6.2M22.7 377.4l6.2-6.3M22.7 373.3l6.2-6.3M22.7 369.2l6.2-6.2M22.7 365.4l4.8-5.1M22.7 361.3l.7-1"/><path class="cls-15" d="M14.5 393.4v-33.1M11.2 382.4v-22.1"/><path class="cls-4" d="M22.5 387.2v-26.9M15 393v-32.7"/><path class="cls-15" d="M28.7 382.2v-21.9M22.5 387.2v-26.9"/><path class="cls-14" d="M11.2 382.4v-22.1M28.7 382.2v-21.9"/><path class="cls-15" d="M11.2 393.4v-11M22.5 66.3h6.2M28.7 71.4v-5.1"/><path class="cls-18" d="M15 360.3h7.5V249.4H15h3.9v110.9H15"/><path class="cls-4" d="M22.7 249.4h-3.6M22.7 250.9h-3.6M22.7 252.3h-3.6M22.7 253.8h-3.6M22.7 255.2h-3.6M22.7 256.6h-3.6M22.7 258.1h-3.6M22.7 259.5h-3.6M22.7 260.7h-3.6M22.7 262.2h-3.6M22.7 263.6h-3.6M22.7 265h-3.6M22.7 266.5h-3.6M22.7 267.9h-3.6M22.7 269.4h-3.6M22.7 270.8h-3.6M22.7 272.2h-3.6M22.7 273.7h-3.6M22.7 275.1h-3.6M22.7 276.3h-3.6M22.7 277.8h-3.6M22.7 279.2h-3.6M22.7 280.6h-3.6M22.7 282.1h-3.6M22.7 283.5h-3.6M22.7 285h-3.6M22.7 286.4h-3.6M22.7 287.8h-3.6M22.7 289.3h-3.6M22.7 290.5h-3.6M22.7 291.9h-3.6M22.7 293.4h-3.6M22.7 294.8h-3.6M22.7 296.2h-3.6M22.7 297.7h-3.6M22.7 299.1h-3.6M22.7 300.6h-3.6M22.7 302h-3.6M22.7 303.4h-3.6M22.7 304.9h-3.6M22.7 306.1h-3.6M22.7 307.5h-3.6M22.7 309h-3.6M22.7 310.4h-3.6M22.7 311.8h-3.6M22.7 313.3h-3.6M22.7 314.7h-3.6M22.7 316.2h-3.6M22.7 317.6h-3.6M22.7 319h-3.6M22.7 320.2h-3.6M22.7 321.7h-3.6M22.7 323.1h-3.6M22.7 324.6h-3.6M22.7 326h-3.6M22.7 327.4h-3.6M22.7 328.9h-3.6M22.7 330.3h-3.6M22.7 331.8h-3.6M22.7 333.2h-3.6M22.7 334.6h-3.6M22.7 335.8h-3.6M22.7 337.3h-3.6M22.7 338.7h-3.6M22.7 340.2h-3.6M22.7 341.6h-3.6M22.7 343h-3.6M22.7 344.5h-3.6M22.7 345.9h-3.6M22.7 347.4h-3.6M22.7 348.8h-3.6M22.7 350.2h-3.6M22.7 351.4h-3.6M22.7 352.9h-3.6M22.7 354.3h-3.6M22.7 355.8h-3.6M22.7 357.2h-3.6M22.7 358.6h-3.6M22.7 360.1h-3.6"/><path class="cls-18" d="M22.5 360.3h6.2V249.4h-6.2v110.9"/><path class="cls-4" d="M28.9 249.9l-.7-.5M28.9 254l-4.5-4.6M28.9 258.1l-6.2-6.3M28.9 261.9l-6.2-6.2M28.9 266l-6.2-6.2M28.9 270.1l-6.2-6.3M28.9 273.9l-6.2-6.2M28.9 278l-6.2-6.2M28.9 282.1l-6.2-6.3M28.9 285.9l-6.2-6.2M28.9 290l-6.2-6.2M28.9 294.1l-6.2-6.3M28.9 298.2l-6.2-6.3M28.9 302l-6.2-6.2M28.9 306.1l-6.2-6.3M28.9 310.2l-6.2-6.3M28.9 314l-6.2-6.2M28.9 318.1l-6.2-6.3M28.9 322.2l-6.2-6.3M28.9 326l-6.2-6.2M28.9 330.1l-6.2-6.3M28.9 334.2l-6.2-6.3M28.9 338.2l-6.2-6.2M28.9 342.1l-6.2-6.3M28.9 346.2l-6.2-6.3M28.9 350.2l-6.2-6.2M28.9 354.1l-6.2-6.3M28.9 358.2l-6.2-6.3M27 360.3l-4.3-4.3M22.9 360.3l-.2-.2M27.5 360.3l1.4-1.2M23.4 360.3l5.5-5.3M22.7 357.2l6.2-6.2M22.7 353.1l6.2-6.2M22.7 349.3l6.2-6.3M22.7 345.2l6.2-6.2M22.7 341.1l6.2-6.2M22.7 337.3l6.2-6.3M22.7 333.2l6.2-6.2M22.7 329.1l6.2-6.2M22.7 325l6.2-6.2M22.7 321.2l6.2-6.2M22.7 317.1l6.2-6.2M22.7 313l6.2-6.2M22.7 309.2l6.2-6.2M22.7 305.1l6.2-6.2M22.7 301l6.2-6.2M22.7 297.2l6.2-6.2M22.7 293.1l6.2-6.2M22.7 289l6.2-6.2M22.7 285l6.2-6.3M22.7 281.1l6.2-6.2M22.7 277l6.2-6.2M22.7 273l6.2-6.3M22.7 269.1l6.2-6.2M22.7 265l6.2-6.2M22.7 261l6.2-6.3M22.7 257.1l6.2-6.2M22.7 253l3.4-3.6"/><path class="cls-15" d="M28.7 360.3V249.4"/><path class="cls-14" d="M18.9 360.3H15M18.9 249.4v110.9M15 249.4h3.9"/><path class="cls-4" d="M22.5 360.3V249.4"/><path class="cls-15" d="M22.5 360.3V249.4"/><path class="cls-14" d="M14.5 249.4h.5M15 360.3h-.5M14.5 249.4"/><path class="cls-15" d="M11.2 249.4h3.3M14.5 360.3h-3.3"/><path class="cls-14" d="M28.7 360.3V249.4M11.2 249.4h7.7M18.9 249.4v110.9M18.9 360.3h-7.7M149.4 226.2h34.1M149.4 218.7h34.1M149.4 211h34.1M149.4 203.4h34.1M281.7 203.4h-34.1M281.7 211h-34.1M281.7 218.7h-34.1M208 265.5l-8.2-35.5M183.5 198.1h64.1v33.4h-64.1zM188.8 231.4v34.1M196.5 231.4v34.1M204.1 231.4v34.1M211.8 231.4v34.1M219.3 231.4v34.1M226.9 231.4v34.1M234.6 231.4v34.1M242.3 231.4v34.1"/><path class="cls-14" d="M184.9 199.5h61.2V230h-61.2z"/><path class="cls-1" d="M247.6 265.5h34.1"/><path class="cls-14" d="M281.2 265.5h.5"/><path class="cls-1" d="M247.6 272.5h34.1"/><path class="cls-14" d="M281.2 272.5h.5M166.5 226.2l3.8-3.8M162.7 222.4l3.8 3.8M170.3 222.3h-7.7M264.7 203.3l3.8 3.8M260.8 207.1l3.9-3.8M268.5 207.2h-7.7M242.3 248.5l-3.8-3.8M238.5 252.3l3.8-3.8M238.5 244.6v7.7M204.1 248.5l-3.9-3.8M200.2 252.3l3.9-3.8M200.3 244.6v7.7"/><path class="cls-18" d="M149.4 157v7h226.1l7-7H149.4"/><path class="cls-4" d="M381.7 158l-.9-1M379.8 159.9l-2.9-2.9M377.7 161.8l-4.8-4.8M375.7 164l-6.9-7M371.9 164l-7-7M367.8 164l-6.9-7M363.7 164l-6.9-7M359.9 164l-7-7M355.8 164l-6.9-7M351.7 164l-6.9-7M347.7 164l-7-7M343.8 164l-6.9-7M339.7 164l-6.9-7M335.7 164l-7-7M331.8 164l-6.9-7M327.7 164l-6.9-7M323.7 164l-7-7M319.6 164l-7-7M315.7 164l-6.9-7M311.7 164l-7-7M307.6 164l-7-7M303.7 164l-6.9-7M299.7 164l-7-7M295.6 164l-7-7M291.7 164l-6.9-7M287.7 164l-7-7M283.6 164l-7-7M279.5 164l-7-7M275.7 164l-7-7M271.6 164l-7-7M267.5 164l-7-7M263.7 164l-7-7M259.6 164l-7-7M255.5 164l-7-7M251.7 164l-7-7M247.6 164l-7-7M243.5 164l-7-7M239.4 164l-6.9-7M235.6 164l-7-7M231.5 164l-7-7M227.4 164l-6.9-7M223.6 164l-7-7M219.5 164l-7-7M215.4 164l-6.9-7M211.3 164l-6.9-7M207.5 164l-7-7M203.4 164l-6.9-7M199.3 164l-6.9-7M195.5 164l-7-7M191.4 164l-6.9-7M187.3 164l-6.9-7M183.5 164l-7-7M179.4 164l-6.9-7M175.3 164l-6.9-7M171.3 164l-7-7M167.4 164l-6.9-7M163.3 164l-6.9-7M159.3 164l-7-7M155.4 164l-5.7-5.8M151.3 164l-1.6-1.7M372.1 164l7-7M368.1 164l6.9-7M364.2 164l7-7M360.1 164l7-7M356.1 164l6.9-7M352.2 164l7-7M348.1 164l7-7M344.1 164l6.9-7M340 164l6.9-7M336.1 164l7-7M332.1 164l6.9-7M328 164l6.9-7M324.1 164l7-7M320.1 164l6.9-7M316 164l6.9-7M311.9 164l7-7M308.1 164l6.9-7M304 164l6.9-7M299.9 164l7-7M296.1 164l6.9-7M292 164l6.9-7M287.9 164l7-7M284.1 164l6.9-7M280 164l6.9-7M275.9 164l7-7M271.8 164l7-7M268 164l6.9-7M263.9 164l7-7M259.8 164l7-7M256 164l6.9-7M251.9 164l7-7M247.8 164l7-7M244 164l6.9-7M239.9 164l7-7M235.8 164l7-7M231.7 164l7-7M227.9 164l7-7M223.8 164l7-7M219.7 164l7-7M215.9 164l7-7M211.8 164l7-7M207.7 164l7-7M203.7 164l6.9-7M199.8 164l7-7M195.7 164l7-7M191.7 164l6.9-7M187.8 164l7-7M183.7 164l7-7M179.7 164l6.9-7M175.8 164l7-7M171.7 164l7-7M167.7 164l6.9-7M163.6 164l6.9-7M159.7 164l7-7M155.7 164l6.9-7M151.6 164l6.9-7M149.7 162.1l5-5.1M149.7 158l.9-1"/><path class="cls-18" d="M149.4 157v7h226.1l7-7H149.4"/><path class="cls-4" d="M381.7 158l-.9-1M379.8 159.9l-2.9-2.9M377.7 161.8l-4.8-4.8M375.7 164l-6.9-7M371.9 164l-7-7M367.8 164l-6.9-7M363.7 164l-6.9-7M359.9 164l-7-7M355.8 164l-6.9-7M351.7 164l-6.9-7M347.7 164l-7-7M343.8 164l-6.9-7M339.7 164l-6.9-7M335.7 164l-7-7M331.8 164l-6.9-7M327.7 164l-6.9-7M323.7 164l-7-7M319.6 164l-7-7M315.7 164l-6.9-7M311.7 164l-7-7M307.6 164l-7-7M303.7 164l-6.9-7M299.7 164l-7-7M295.6 164l-7-7M291.7 164l-6.9-7M287.7 164l-7-7M283.6 164l-7-7M279.5 164l-7-7M275.7 164l-7-7M271.6 164l-7-7M267.5 164l-7-7M263.7 164l-7-7M259.6 164l-7-7M255.5 164l-7-7M251.7 164l-7-7M247.6 164l-7-7M243.5 164l-7-7M239.4 164l-6.9-7M235.6 164l-7-7M231.5 164l-7-7M227.4 164l-6.9-7M223.6 164l-7-7M219.5 164l-7-7M215.4 164l-6.9-7M211.3 164l-6.9-7M207.5 164l-7-7M203.4 164l-6.9-7M199.3 164l-6.9-7M195.5 164l-7-7M191.4 164l-6.9-7M187.3 164l-6.9-7M183.5 164l-7-7M179.4 164l-6.9-7M175.3 164l-6.9-7M171.3 164l-7-7M167.4 164l-6.9-7M163.3 164l-6.9-7M159.3 164l-7-7M155.4 164l-5.7-5.8M151.3 164l-1.6-1.7M372.1 164l7-7M368.1 164l6.9-7M364.2 164l7-7M360.1 164l7-7M356.1 164l6.9-7M352.2 164l7-7M348.1 164l7-7M344.1 164l6.9-7M340 164l6.9-7M336.1 164l7-7M332.1 164l6.9-7M328 164l6.9-7M324.1 164l7-7M320.1 164l6.9-7M316 164l6.9-7M311.9 164l7-7M308.1 164l6.9-7M304 164l6.9-7M299.9 164l7-7M296.1 164l6.9-7M292 164l6.9-7M287.9 164l7-7M284.1 164l6.9-7M280 164l6.9-7M275.9 164l7-7M271.8 164l7-7M268 164l6.9-7M263.9 164l7-7M259.8 164l7-7M256 164l6.9-7M251.9 164l7-7M247.8 164l7-7M244 164l6.9-7M239.9 164l7-7M235.8 164l7-7M231.7 164l7-7M227.9 164l7-7M223.8 164l7-7M219.7 164l7-7M215.9 164l7-7M211.8 164l7-7M207.7 164l7-7M203.7 164l6.9-7M199.8 164l7-7M195.7 164l7-7M191.7 164l6.9-7M187.8 164l7-7M183.7 164l7-7M179.7 164l6.9-7M175.8 164l7-7M171.7 164l7-7M167.7 164l6.9-7M163.6 164l6.9-7M159.7 164l7-7M155.7 164l6.9-7M151.6 164l6.9-7M149.7 162.1l5-5.1M149.7 158l.9-1"/><path class="cls-15" d="M382.5 157H149.4M375.5 164H149.4M375.5 164H149.4M278.3 157H149.4M382.5 157h-97"/><path class="cls-18" d="M149.4 265.5v7h91l7.2-7h-98.2"/><path class="cls-4" d="M246.1 267l-1.2-1.5M244.2 268.9l-3.3-3.4M242.1 270.8l-5.3-5.3M239.7 272.5l-7-7M235.8 272.5l-6.9-7M231.7 272.5l-6.9-7M227.7 272.5l-7-7M223.8 272.5l-6.9-7M219.7 272.5l-6.9-7M215.7 272.5l-7-7M211.6 272.5l-7-7M207.7 272.5l-6.9-7M203.7 272.5l-7-7M199.6 272.5l-7-7M195.7 272.5l-6.9-7M191.7 272.5l-7-7M187.6 272.5l-7-7M183.7 272.5l-6.9-7M179.7 272.5l-7-7M175.6 272.5l-7-7M171.5 272.5l-7-7M167.7 272.5l-7-7M163.6 272.5l-7-7M159.5 272.5l-7-7M155.7 272.5l-6-6M151.6 272.5l-1.9-1.9M239.7 272.5l6.9-7M235.6 272.5l6.9-7M231.5 272.5l7-7M227.7 272.5l6.9-7M223.6 272.5l6.9-7M219.5 272.5l7-7M215.7 272.5l6.9-7M211.6 272.5l6.9-7M207.5 272.5l7-7M203.4 272.5l7-7M199.6 272.5l6.9-7M195.5 272.5l7-7M191.4 272.5l7-7M187.6 272.5l6.9-7M183.5 272.5l7-7M179.4 272.5l7-7M175.6 272.5l6.9-7M171.5 272.5l7-7M167.4 272.5l7-7M163.3 272.5l7-7M159.5 272.5l7-7M155.4 272.5l7-7M151.3 272.5l7-7M149.7 270.3l4.8-4.8M149.7 266.2l.7-.7"/><path class="cls-18" d="M149.4 265.5v7h91l7.2-7h-98.2"/><path class="cls-4" d="M246.1 267l-1.2-1.5M244.2 268.9l-3.3-3.4M242.1 270.8l-5.3-5.3M239.7 272.5l-7-7M235.8 272.5l-6.9-7M231.7 272.5l-6.9-7M227.7 272.5l-7-7M223.8 272.5l-6.9-7M219.7 272.5l-6.9-7M215.7 272.5l-7-7M211.6 272.5l-7-7M207.7 272.5l-6.9-7M203.7 272.5l-7-7M199.6 272.5l-7-7M195.7 272.5l-6.9-7M191.7 272.5l-7-7M187.6 272.5l-7-7M183.7 272.5l-6.9-7M179.7 272.5l-7-7M175.6 272.5l-7-7M171.5 272.5l-7-7M167.7 272.5l-7-7M163.6 272.5l-7-7M159.5 272.5l-7-7M155.7 272.5l-6-6M151.6 272.5l-1.9-1.9M239.7 272.5l6.9-7M235.6 272.5l6.9-7M231.5 272.5l7-7M227.7 272.5l6.9-7M223.6 272.5l6.9-7M219.5 272.5l7-7M215.7 272.5l6.9-7M211.6 272.5l6.9-7M207.5 272.5l7-7M203.4 272.5l7-7M199.6 272.5l6.9-7M195.5 272.5l7-7M191.4 272.5l7-7M187.6 272.5l6.9-7M183.5 272.5l7-7M179.4 272.5l7-7M175.6 272.5l6.9-7M171.5 272.5l7-7M167.4 272.5l7-7M163.3 272.5l7-7M159.5 272.5l7-7M155.4 272.5l7-7M151.3 272.5l7-7M149.7 270.3l4.8-4.8M149.7 266.2l.7-.7"/><path class="cls-15" d="M247.6 265.5h-98.2M240.4 272.5h-91M240.4 272.5h-91M247.6 265.5h-98.2M142.5 382.2h6.9"/><path class="cls-18" d="M142.5 194h6.9v162h-6.9V194"/><path class="cls-4" d="M149.7 194.2l-.5-.2M149.7 198.3l-4.4-4.3M149.7 202.4l-7-7M149.7 206.2l-7-6.9M149.7 210.3l-7-6.9M149.7 214.4l-7-7M149.7 218.2l-7-6.9M149.7 222.3l-7-6.9M149.7 226.4l-7-7M149.7 230.5l-7-7M149.7 234.3l-7-6.9M149.7 238.4l-7-7M149.7 242.5l-7-7M149.7 246.3l-7-6.9M149.7 250.4l-7-7M149.7 254.5l-7-7M149.7 258.3l-7-6.9M149.7 262.4l-7-7M149.7 266.5l-7-7M149.7 270.6l-7-7M149.7 274.4l-7-7M149.7 278.5l-7-7M149.7 282.6l-7-7M149.7 286.4l-7-7M149.7 290.5l-7-7M149.7 294.6l-7-7M149.7 298.4l-7-7M149.7 302.5l-7-7M149.7 306.6l-7-7M149.7 310.6l-7-6.9M149.7 314.5l-7-7M149.7 318.6l-7-7M149.7 322.6l-7-6.9M149.7 326.5l-7-7M149.7 330.6l-7-7M149.7 334.6l-7-6.9M149.7 338.7l-7-6.9M149.7 342.6l-7-7M149.7 346.6l-7-6.9M149.7 350.7l-7-6.9M149.7 354.6l-7-7M146.8 356l-4.1-4.3M142.9 356l-.2-.2M148 356l1.7-1.4M144.1 356l5.6-5.5M142.7 353.4l7-7M142.7 349.5l7-6.9M142.7 345.4l7-6.9M142.7 341.4l7-7M142.7 337.5l7-6.9M142.7 333.4l7-6.9M142.7 329.4l7-7M142.7 325.5l7-6.9M142.7 321.4l7-6.9M142.7 317.4l7-7M142.7 313.3l7-7M142.7 309.4l7-6.9M142.7 305.4l7-7M142.7 301.3l7-7M142.7 297.4l7-6.9M142.7 293.4l7-7M142.7 289.3l7-7M142.7 285.4l7-6.9M142.7 281.4l7-7M142.7 277.3l7-7M142.7 273.2l7-7M142.7 269.4l7-7M142.7 265.3l7-7M142.7 261.2l7-7M142.7 257.4l7-7M142.7 253.3l7-7M142.7 249.2l7-7M142.7 245.4l7-7M142.7 241.3l7-7M142.7 237.2l7-7M142.7 233.1l7-6.9M142.7 229.3l7-7M142.7 225.2l7-7M142.7 221.1l7-6.9M142.7 217.3l7-7M142.7 213.2l7-7M142.7 209.1l7-6.9M142.7 205l7-6.9M142.7 201.2l7-7M142.7 197.1l3.1-3.1"/><path class="cls-18" d="M149.4 194h-6.9v162h6.9V194"/><path class="cls-4" d="M149.7 194.2l-.5-.2M149.7 198.3l-4.4-4.3M149.7 202.4l-7-7M149.7 206.2l-7-6.9M149.7 210.3l-7-6.9M149.7 214.4l-7-7M149.7 218.2l-7-6.9M149.7 222.3l-7-6.9M149.7 226.4l-7-7M149.7 230.5l-7-7M149.7 234.3l-7-6.9M149.7 238.4l-7-7M149.7 242.5l-7-7M149.7 246.3l-7-6.9M149.7 250.4l-7-7M149.7 254.5l-7-7M149.7 258.3l-7-6.9M149.7 262.4l-7-7M149.7 266.5l-7-7M149.7 270.6l-7-7M149.7 274.4l-7-7M149.7 278.5l-7-7M149.7 282.6l-7-7M149.7 286.4l-7-7M149.7 290.5l-7-7M149.7 294.6l-7-7M149.7 298.4l-7-7M149.7 302.5l-7-7M149.7 306.6l-7-7M149.7 310.6l-7-6.9M149.7 314.5l-7-7M149.7 318.6l-7-7M149.7 322.6l-7-6.9M149.7 326.5l-7-7M149.7 330.6l-7-7M149.7 334.6l-7-6.9M149.7 338.7l-7-6.9M149.7 342.6l-7-7M149.7 346.6l-7-6.9M149.7 350.7l-7-6.9M149.7 354.6l-7-7M146.8 356l-4.1-4.3M142.9 356l-.2-.2M148 356l1.7-1.4M144.1 356l5.6-5.5M142.7 353.4l7-7M142.7 349.5l7-6.9M142.7 345.4l7-6.9M142.7 341.4l7-7M142.7 337.5l7-6.9M142.7 333.4l7-6.9M142.7 329.4l7-7M142.7 325.5l7-6.9M142.7 321.4l7-6.9M142.7 317.4l7-7M142.7 313.3l7-7M142.7 309.4l7-6.9M142.7 305.4l7-7M142.7 301.3l7-7M142.7 297.4l7-6.9M142.7 293.4l7-7M142.7 289.3l7-7M142.7 285.4l7-6.9M142.7 281.4l7-7M142.7 277.3l7-7M142.7 273.2l7-7M142.7 269.4l7-7M142.7 265.3l7-7M142.7 261.2l7-7M142.7 257.4l7-7M142.7 253.3l7-7M142.7 249.2l7-7M142.7 245.4l7-7M142.7 241.3l7-7M142.7 237.2l7-7M142.7 233.1l7-6.9M142.7 229.3l7-7M142.7 225.2l7-7M142.7 221.1l7-6.9M142.7 217.3l7-7M142.7 213.2l7-7M142.7 209.1l7-6.9M142.7 205l7-6.9M142.7 201.2l7-7M142.7 197.1l3.1-3.1"/><path class="cls-15" d="M142.5 194v162M149.4 272.5V356M149.4 194v71.5M149.4 272.5V356M142.5 194v162M149.4 194v71.5"/><path class="cls-18" d="M142.5 97.5h6.9v64.3h-6.9V97.5"/><path class="cls-4" d="M149.7 98l-.8-.5M149.7 102.1l-4.8-4.6M149.7 106.2l-7-7M149.7 110l-7-7M149.7 114.1l-7-7M149.7 118.2l-7-7M149.7 122.2l-7-6.9M149.7 126.1l-7-7M149.7 130.2l-7-7M149.7 134.2l-7-6.9M149.7 138.1l-7-7M149.7 142.2l-7-7M149.7 146.2l-7-6.9M149.7 150.1l-7-7M149.7 154.2l-7-7M149.7 158.2l-7-6.9M149.2 161.8l-6.5-6.4M145.1 161.8l-2.4-2.6M145.8 161.8l3.9-3.8M142.7 161.1l7-6.9M142.7 157l7-6.9M142.7 153l7-7M142.7 149.1l7-6.9M142.7 145l7-6.9M142.7 141l7-7M142.7 137.1l7-6.9M142.7 133l7-6.9M142.7 129l7-7M142.7 124.9l7-7M142.7 121l7-6.9M142.7 117l7-7M142.7 112.9l7-7M142.7 109l7-6.9M142.7 105l7-7M142.7 100.9l3.4-3.4"/><path class="cls-18" d="M149.4 97.5h-6.9v64.3h6.9V97.5"/><path class="cls-4" d="M149.7 98l-.8-.5M149.7 102.1l-4.8-4.6M149.7 106.2l-7-7M149.7 110l-7-7M149.7 114.1l-7-7M149.7 118.2l-7-7M149.7 122.2l-7-6.9M149.7 126.1l-7-7M149.7 130.2l-7-7M149.7 134.2l-7-6.9M149.7 138.1l-7-7M149.7 142.2l-7-7M149.7 146.2l-7-6.9M149.7 150.1l-7-7M149.7 154.2l-7-7M149.7 158.2l-7-6.9M149.2 161.8l-6.5-6.4M145.1 161.8l-2.4-2.6M145.8 161.8l3.9-3.8M142.7 161.1l7-6.9M142.7 157l7-6.9M142.7 153l7-7M142.7 149.1l7-6.9M142.7 145l7-6.9M142.7 141l7-7M142.7 137.1l7-6.9M142.7 133l7-6.9M142.7 129l7-7M142.7 124.9l7-7M142.7 121l7-6.9M142.7 117l7-7M142.7 112.9l7-7M142.7 109l7-6.9M142.7 105l7-7M142.7 100.9l3.4-3.4"/><path class="cls-15" d="M142.5 97.5v64.3M149.4 97.5V157M142.5 97.5v64.3M149.4 97.5V157M142.5 71.4h6.9"/><path class="cls-14" d="M141.7 161.8h1.7v2.4h-1.7zM141.7 191.6h1.7v2.4h-1.7z"/><path class="cls-14" d="M141.7 164.2h1.7v27.4h-1.7zM143.4 164.2v27.4"/><path class="cls-1" d="M149.4 164v27.8"/><path class="cls-14" d="M149.4 191.4v.4"/><path class="cls-18" d="M149.5 161.8v2.2h-6v-2.2h-1.1"/><path class="cls-4" d="M149.7 162.3l-.5-.5M147.3 164l-2.2-2.2M147.7 164l2-1.9M143.7 164l2.1-2.2"/><path class="cls-15" d="M149.5 164h-6v-2.2h-1.1"/><path class="cls-18" d="M149.4 194v-2.2h-6v2.2h-.9"/><path class="cls-4" d="M149.2 194l-2.2-2.2M145.3 194l-1.6-1.7M145.8 194l2.2-2.2M143.7 192.1l.2-.3"/><path class="cls-15" d="M149.4 194v-2.2h-6v2.2h-.9"/><path class="cls-4" d="M114.6 164.3c0 14.9 12.3 27.2 27.2 27.2M141.7 164.2h-27.1"/><path class="cls-14" d="M142.5 73.3h6.9M142.5 95.8h6.9"/><path class="cls-15" d="M142.5 71.4h6.9M142.5 97.5h6.9"/><path class="cls-4" d="M172.2 95.8c0-12.4-10.2-22.7-22.7-22.7M149.4 95.8h22.8"/><path class="cls-14" d="M142.5 357.7h6.9M142.5 380.5h6.9"/><path class="cls-15" d="M142.5 356h6.9M142.5 382.2h6.9"/><path class="cls-4" d="M149.5 380.4c12.4 0 22.7-10.2 22.7-22.7M149.4 357.7h22.8"/><path class="cls-18" d="M332.5 382.2h7.2V204.8l-7.2-7v184.4"/><path class="cls-4" d="M340 208.2l-7.2-7.2M340 212.2l-7.2-7.2M340 216.3l-7.2-7.2M340 220.2l-7.2-7.2M340 224.2l-7.2-7.2M340 228.3l-7.2-7.2M340 232.2l-7.2-7.2M340 236.2l-7.2-7.2M340 240.3l-7.2-7.2M340 244.4l-7.2-7.2M340 248.2l-7.2-7.2M340 252.3l-7.2-7.2M340 256.4l-7.2-7.2M340 260.2l-7.2-7.2M340 264.3l-7.2-7.2M340 268.4l-7.2-7.2M340 272.5l-7.2-7.2M340 276.3l-7.2-7.2M340 280.4l-7.2-7.2M340 284.5l-7.2-7.2M340 288.3l-7.2-7.2M340 292.4l-7.2-7.2M340 296.5l-7.2-7.2M340 300.3l-7.2-7.2M340 304.4l-7.2-7.2M340 308.5l-7.2-7.2M340 312.6l-7.2-7.2M340 316.4l-7.2-7.2M340 320.5l-7.2-7.2M340 324.6l-7.2-7.2M340 328.4l-7.2-7.2M340 332.5l-7.2-7.2M340 336.6l-7.2-7.2M340 340.4l-7.2-7.2M340 344.5l-7.2-7.2M340 348.6l-7.2-7.2M340 352.6l-7.2-7.2M340 356.5l-7.2-7.2M340 360.6l-7.2-7.2M340 364.6l-7.2-7.2M340 368.5l-7.2-7.2M340 372.6l-7.2-7.2M340 376.6l-7.2-7.2M340 380.5l-7.2-7.2M337.3 382.2l-4.5-4.8M333.5 382.2l-.7-.8M338.3 382.2l1.7-1.5M334.5 382.2l5.5-5.6M332.8 379.8l7.2-7.2M332.8 375.9l7.2-7.2M332.8 371.8l7.2-7.2M332.8 367.8l7.2-7.2M332.8 363.9l7.2-7.2M332.8 359.8l7.2-7.2M332.8 355.8l7.2-7.2M332.8 351.9l7.2-7.2M332.8 347.8l7.2-7.2M332.8 343.8l7.2-7.2M332.8 339.7l7.2-7.2M332.8 335.8l7.2-7.2M332.8 331.8l7.2-7.2M332.8 327.7l7.2-7.2M332.8 323.8l7.2-7.2M332.8 319.8l7.2-7.2M332.8 315.7l7.2-7.2M332.8 311.8l7.2-7.2M332.8 307.8l7.2-7.2M332.8 303.7l7.2-7.2M332.8 299.6l7.2-7.2M332.8 295.8l7.2-7.2M332.8 291.7l7.2-7.2M332.8 287.6l7.2-7.2M332.8 283.8l7.2-7.2M332.8 279.7l7.2-7.2M332.8 275.6l7.2-7.2M332.8 271.5l7.2-7.2M332.8 267.7l7.2-7.2M332.8 263.6l7.2-7.2M332.8 259.5l7.2-7.2M332.8 255.7l7.2-7.2M332.8 251.6l7.2-7.2M332.8 247.5l7.2-7.2M332.8 243.7l7.2-7.2M332.8 239.6l7.2-7.2M332.8 235.5l7.2-7.2M332.8 231.4l7.2-7.2M332.8 227.6l7.2-7.2M332.8 223.5l7.2-7.2M332.8 219.4l7.2-7.2M332.8 215.6l7.2-7.2M332.8 211.5l6.7-6.9M332.8 207.4l4.8-4.8M332.8 203.6l2.6-2.9M332.8 199.5l.7-.9"/><path class="cls-18" d="M332.5 382.2h7.2V204.8l-7.2-7v184.4"/><path class="cls-4" d="M340 208.2l-7.2-7.2M340 212.2l-7.2-7.2M340 216.3l-7.2-7.2M340 220.2l-7.2-7.2M340 224.2l-7.2-7.2M340 228.3l-7.2-7.2M340 232.2l-7.2-7.2M340 236.2l-7.2-7.2M340 240.3l-7.2-7.2M340 244.4l-7.2-7.2M340 248.2l-7.2-7.2M340 252.3l-7.2-7.2M340 256.4l-7.2-7.2M340 260.2l-7.2-7.2M340 264.3l-7.2-7.2M340 268.4l-7.2-7.2M340 272.5l-7.2-7.2M340 276.3l-7.2-7.2M340 280.4l-7.2-7.2M340 284.5l-7.2-7.2M340 288.3l-7.2-7.2M340 292.4l-7.2-7.2M340 296.5l-7.2-7.2M340 300.3l-7.2-7.2M340 304.4l-7.2-7.2M340 308.5l-7.2-7.2M340 312.6l-7.2-7.2M340 316.4l-7.2-7.2M340 320.5l-7.2-7.2M340 324.6l-7.2-7.2M340 328.4l-7.2-7.2M340 332.5l-7.2-7.2M340 336.6l-7.2-7.2M340 340.4l-7.2-7.2M340 344.5l-7.2-7.2M340 348.6l-7.2-7.2M340 352.6l-7.2-7.2M340 356.5l-7.2-7.2M340 360.6l-7.2-7.2M340 364.6l-7.2-7.2M340 368.5l-7.2-7.2M340 372.6l-7.2-7.2M340 376.6l-7.2-7.2M340 380.5l-7.2-7.2M337.3 382.2l-4.5-4.8M333.5 382.2l-.7-.8M338.3 382.2l1.7-1.5M334.5 382.2l5.5-5.6M332.8 379.8l7.2-7.2M332.8 375.9l7.2-7.2M332.8 371.8l7.2-7.2M332.8 367.8l7.2-7.2M332.8 363.9l7.2-7.2M332.8 359.8l7.2-7.2M332.8 355.8l7.2-7.2M332.8 351.9l7.2-7.2M332.8 347.8l7.2-7.2M332.8 343.8l7.2-7.2M332.8 339.7l7.2-7.2M332.8 335.8l7.2-7.2M332.8 331.8l7.2-7.2M332.8 327.7l7.2-7.2M332.8 323.8l7.2-7.2M332.8 319.8l7.2-7.2M332.8 315.7l7.2-7.2M332.8 311.8l7.2-7.2M332.8 307.8l7.2-7.2M332.8 303.7l7.2-7.2M332.8 299.6l7.2-7.2M332.8 295.8l7.2-7.2M332.8 291.7l7.2-7.2M332.8 287.6l7.2-7.2M332.8 283.8l7.2-7.2M332.8 279.7l7.2-7.2M332.8 275.6l7.2-7.2M332.8 271.5l7.2-7.2M332.8 267.7l7.2-7.2M332.8 263.6l7.2-7.2M332.8 259.5l7.2-7.2M332.8 255.7l7.2-7.2M332.8 251.6l7.2-7.2M332.8 247.5l7.2-7.2M332.8 243.7l7.2-7.2M332.8 239.6l7.2-7.2M332.8 235.5l7.2-7.2M332.8 231.4l7.2-7.2M332.8 227.6l7.2-7.2M332.8 223.5l7.2-7.2M332.8 219.4l7.2-7.2M332.8 215.6l7.2-7.2M332.8 211.5l6.7-6.9M332.8 207.4l4.8-4.8M332.8 203.6l2.6-2.9M332.8 199.5l.7-.9"/><path class="cls-15" d="M332.5 272.5v109.7M332.5 207.9v54.7M339.7 204.8v177.4M339.7 204.8v177.4M332.5 272.5v109.7M332.5 207.9v54.7"/><path class="cls-18" d="M287.2 207.9l-5.5-10.1v74.7l5.5-9.9v-54.7"/><path class="cls-4" d="M282.4 198.8l-.5-.5M287.2 207.7l-5.3-5.5M287.4 211.8l-5.5-5.6M287.4 215.8l-5.5-5.5M287.4 219.9l-5.5-5.5M287.4 223.8l-5.5-5.6M287.4 227.8l-5.5-5.5M287.4 231.9l-5.5-5.5M287.4 235.8l-5.5-5.6M287.4 239.8l-5.5-5.5M287.4 243.9l-5.5-5.5M287.4 247.8l-5.5-5.6M287.4 251.8l-5.5-5.5M287.4 255.9l-5.5-5.5M287.4 260l-5.5-5.5M286.9 263.4l-5-5.1M285.5 266l-3.6-3.6M284.1 268.6l-2.2-2.1M282.6 271l-.7-.7M281.9 270.3l2.6-2.6M281.9 266.5l5.5-5.5M281.9 262.4l5.5-5.5M281.9 258.3l5.5-5.5M281.9 254.5l5.5-5.5M281.9 250.4l5.5-5.5M281.9 246.3l5.5-5.5M281.9 242.2l5.5-5.5M281.9 238.4l5.5-5.5M281.9 234.3l5.5-5.5M281.9 230.2l5.5-5.5M281.9 226.4l5.5-5.5M281.9 222.3l5.5-5.5M281.9 218.2l5.5-5.5M281.9 214.2l5.5-5.6M281.9 210.3l4.3-4.5M281.9 206.2l2.9-2.8M281.9 202.2l1.4-1.5M281.9 198.3v-.2"/><path class="cls-18" d="M287.2 207.9l-5.5-10.1v74.7l5.5-9.9v-54.7"/><path class="cls-4" d="M282.4 198.8l-.5-.5M287.2 207.7l-5.3-5.5M287.4 211.8l-5.5-5.6M287.4 215.8l-5.5-5.5M287.4 219.9l-5.5-5.5M287.4 223.8l-5.5-5.6M287.4 227.8l-5.5-5.5M287.4 231.9l-5.5-5.5M287.4 235.8l-5.5-5.6M287.4 239.8l-5.5-5.5M287.4 243.9l-5.5-5.5M287.4 247.8l-5.5-5.6M287.4 251.8l-5.5-5.5M287.4 255.9l-5.5-5.5M287.4 260l-5.5-5.5M286.9 263.4l-5-5.1M285.5 266l-3.6-3.6M284.1 268.6l-2.2-2.1M282.6 271l-.7-.7M281.9 270.3l2.6-2.6M281.9 266.5l5.5-5.5M281.9 262.4l5.5-5.5M281.9 258.3l5.5-5.5M281.9 254.5l5.5-5.5M281.9 250.4l5.5-5.5M281.9 246.3l5.5-5.5M281.9 242.2l5.5-5.5M281.9 238.4l5.5-5.5M281.9 234.3l5.5-5.5M281.9 230.2l5.5-5.5M281.9 226.4l5.5-5.5M281.9 222.3l5.5-5.5M281.9 218.2l5.5-5.5M281.9 214.2l5.5-5.6M281.9 210.3l4.3-4.5M281.9 206.2l2.9-2.8M281.9 202.2l1.4-1.5M281.9 198.3v-.2"/><path class="cls-15" d="M287.2 262.6v-54.7M281.7 272.5v-74.7M281.7 272.5v-74.7M287.2 262.6v-54.7"/><path class="cls-18" d="M296.8 197.8h-15.1l5.5 10.1h9.6v-10.1"/><path class="cls-4" d="M297 201.4l-3.6-3.6M297 205.3l-7.7-7.5M295.6 207.9l-10.1-10.1M291.5 207.9l-9.1-9.1M287.4 207.9l-.2-.2M296.1 207.9l.9-.7M292.2 207.9l4.8-4.8M288.1 207.9l8.9-8.9M286.2 205.8l7.9-8M284.8 203.4l5.5-5.6M283.3 200.7l2.9-2.9M281.9 198.1l.2-.3"/><path class="cls-18" d="M296.8 197.8h-15.1l5.5 10.1h9.6v-10.1"/><path class="cls-4" d="M297 201.4l-3.6-3.6M297 205.3l-7.7-7.5M295.6 207.9l-10.1-10.1M291.5 207.9l-9.1-9.1M287.4 207.9l-.2-.2M296.1 207.9l.9-.7M292.2 207.9l4.8-4.8M288.1 207.9l8.9-8.9M286.2 205.8l7.9-8M284.8 203.4l5.5-5.6M283.3 200.7l2.9-2.9M281.9 198.1l.2-.3"/><path class="cls-15" d="M287.2 207.9h9.6M281.7 197.8h15.1M281.7 197.8h15.1M287.2 207.9h9.6"/><path class="cls-14" d="M299.9 206.5h29.5"/><path class="cls-1" d="M299.9 197.8h29.5"/><path class="cls-14" d="M328.9 197.8h.5"/><path class="cls-18" d="M296.8 197.8h3.1v8.7h-3.1"/><path class="cls-4" d="M300.1 200.5l-2.6-2.7M300.1 204.6l-3.1-3.2M298 206.5l-1-1.2M297.5 206.5l2.6-2.4M297 203.1l3.1-3.1M297 199l1.2-1.2"/><path class="cls-18" d="M332.5 197.8h-3.1v8.7h3.1"/><path class="cls-4" d="M332.8 201l-3.1-3.2M332.8 205l-3.1-3.1M330.1 206.5l-.4-.5M329.7 206.5l3.1-2.9M329.7 202.6l3.1-3.1M329.7 198.6l.7-.8"/><path class="cls-15" d="M299.9 197.8v8.7M329.4 197.8v8.7M299.9 197.8v8.7M296.8 197.8h3.1M329.4 197.8v8.7M332.5 197.8h-3.1M296.8 207.9v-1.4M332.5 207.9v-1.4M296.8 197.8h3.1M332.5 197.8h-3.1M299.9 206.5h-3.1M329.4 206.5h3.1"/><path class="cls-18" d="M287.2 262.6l-5.5 9.9h15.1v-9.9h-9.6"/><path class="cls-4" d="M297 265.5l-2.9-2.9M297 269.6l-6.9-7M295.8 272.5l-8.9-9.1M292 272.5l-6.5-6.5M287.9 272.5l-3.8-3.9M283.8 272.5l-1.2-1.5M295.8 272.5l1.2-1.2M291.7 272.5l5.3-5.3M287.7 272.5l9.3-9.1M283.8 272.5l9.9-9.9M284.5 267.7l5.1-5.1"/><path class="cls-18" d="M287.2 262.6l-5.5 9.9h15.1v-9.9h-9.6"/><path class="cls-4" d="M297 265.5l-2.9-2.9M297 269.6l-6.9-7M295.8 272.5l-8.9-9.1M292 272.5l-6.5-6.5M287.9 272.5l-3.8-3.9M283.8 272.5l-1.2-1.5M295.8 272.5l1.2-1.2M291.7 272.5l5.3-5.3M287.7 272.5l9.3-9.1M283.8 272.5l9.9-9.9M284.5 267.7l5.1-5.1"/><path class="cls-15" d="M296.8 262.6h-9.6M296.8 272.5h-15.1M296.8 272.5h-15.1M296.8 262.6h-9.6"/><path class="cls-14" d="M329.4 264.1h-29.5"/><path class="cls-1" d="M329.4 272.5h-29.5"/><path class="cls-14" d="M300.4 272.5h-.5"/><path class="cls-18" d="M332.5 272.5h-3.1v-8.4h3.1"/><path class="cls-4" d="M332.8 265.3l-1.2-1.2M332.8 269.1l-3.1-3.1M332.1 272.5l-2.4-2.4M331.8 272.5l1-1M329.7 270.8l3.1-3.1M329.7 266.7l2.6-2.6"/><path class="cls-18" d="M296.8 272.5h3.1v-8.4h-3.1"/><path class="cls-4" d="M300.1 264.6l-.7-.5M300.1 268.6l-3.1-3.1M299.9 272.5l-2.9-2.9M299.7 272.5l.4-.3M297 271.3l3.1-3.1M297 267.2l3.1-3.1"/><path class="cls-15" d="M329.4 272.5v-8.4M299.9 272.5v-8.4M329.4 272.5v-8.4M332.5 272.5h-3.1M299.9 272.5v-8.4M296.8 272.5h3.1M332.5 262.6v1.5M296.8 262.6v1.5M332.5 272.5h-3.1M296.8 272.5h3.1M329.4 264.1h3.1M299.9 264.1h-3.1"/><path class="cls-18" d="M247.6 265.5l-7.2 7v114.7l7.2-5V265.5"/><path class="cls-4" d="M247.8 268.4l-1.7-1.4M247.8 272.5l-3.6-3.6M247.8 276.3l-5.7-5.5M247.8 280.4l-7.2-7.2M247.8 284.5l-7.2-7.2M247.8 288.3l-7.2-7.2M247.8 292.4l-7.2-7.2M247.8 296.5l-7.2-7.2M247.8 300.6l-7.2-7.2M247.8 304.4l-7.2-7.2M247.8 308.5l-7.2-7.2M247.8 312.6l-7.2-7.2M247.8 316.4l-7.2-7.2M247.8 320.5l-7.2-7.2M247.8 324.6l-7.2-7.2M247.8 328.6l-7.2-7.2M247.8 332.5l-7.2-7.2M247.8 336.6l-7.2-7.2M247.8 340.6l-7.2-7.2M247.8 344.5l-7.2-7.2M247.8 348.6l-7.2-7.2M247.8 352.6l-7.2-7.2M247.8 356.5l-7.2-7.2M247.8 360.6l-7.2-7.2M247.8 364.6l-7.2-7.2M247.8 368.7l-7.2-7.2M247.8 372.6l-7.2-7.2M247.8 376.6l-7.2-7.2M247.8 380.7l-7.2-7.2M246.1 383.1l-5.5-5.7M244 384.8l-3.4-3.4M241.6 386.5l-1-1M242.8 385.8l5-5.1M240.6 383.8l7.2-7.2M240.6 379.8l7.2-7.2M240.6 375.9l7.2-7.2M240.6 371.8l7.2-7.2M240.6 367.8l7.2-7.2M240.6 363.7l7.2-7.2M240.6 359.8l7.2-7.2M240.6 355.8l7.2-7.2M240.6 351.7l7.2-7.2M240.6 347.8l7.2-7.2M240.6 343.8l7.2-7.2M240.6 339.7l7.2-7.2M240.6 335.8l7.2-7.2M240.6 331.8l7.2-7.2M240.6 327.7l7.2-7.2M240.6 323.6l7.2-7.2M240.6 319.8l7.2-7.2M240.6 315.7l7.2-7.2M240.6 311.6l7.2-7.2M240.6 307.8l7.2-7.2M240.6 303.7l7.2-7.2M240.6 299.6l7.2-7.2M240.6 295.8l7.2-7.2M240.6 291.7l7.2-7.2M240.6 287.6l7.2-7.2M240.6 283.5l7.2-7.2M240.6 279.7l7.2-7.2M240.6 275.6l7.2-7.2"/><path class="cls-18" d="M247.6 265.5l-7.2 7v114.7l7.2-5V265.5"/><path class="cls-4" d="M247.8 268.4l-1.7-1.4M247.8 272.5l-3.6-3.6M247.8 276.3l-5.7-5.5M247.8 280.4l-7.2-7.2M247.8 284.5l-7.2-7.2M247.8 288.3l-7.2-7.2M247.8 292.4l-7.2-7.2M247.8 296.5l-7.2-7.2M247.8 300.6l-7.2-7.2M247.8 304.4l-7.2-7.2M247.8 308.5l-7.2-7.2M247.8 312.6l-7.2-7.2M247.8 316.4l-7.2-7.2M247.8 320.5l-7.2-7.2M247.8 324.6l-7.2-7.2M247.8 328.6l-7.2-7.2M247.8 332.5l-7.2-7.2M247.8 336.6l-7.2-7.2M247.8 340.6l-7.2-7.2M247.8 344.5l-7.2-7.2M247.8 348.6l-7.2-7.2M247.8 352.6l-7.2-7.2M247.8 356.5l-7.2-7.2M247.8 360.6l-7.2-7.2M247.8 364.6l-7.2-7.2M247.8 368.7l-7.2-7.2M247.8 372.6l-7.2-7.2M247.8 376.6l-7.2-7.2M247.8 380.7l-7.2-7.2M246.1 383.1l-5.5-5.7M244 384.8l-3.4-3.4M241.6 386.5l-1-1M242.8 385.8l5-5.1M240.6 383.8l7.2-7.2M240.6 379.8l7.2-7.2M240.6 375.9l7.2-7.2M240.6 371.8l7.2-7.2M240.6 367.8l7.2-7.2M240.6 363.7l7.2-7.2M240.6 359.8l7.2-7.2M240.6 355.8l7.2-7.2M240.6 351.7l7.2-7.2M240.6 347.8l7.2-7.2M240.6 343.8l7.2-7.2M240.6 339.7l7.2-7.2M240.6 335.8l7.2-7.2M240.6 331.8l7.2-7.2M240.6 327.7l7.2-7.2M240.6 323.6l7.2-7.2M240.6 319.8l7.2-7.2M240.6 315.7l7.2-7.2M240.6 311.6l7.2-7.2M240.6 307.8l7.2-7.2M240.6 303.7l7.2-7.2M240.6 299.6l7.2-7.2M240.6 295.8l7.2-7.2M240.6 291.7l7.2-7.2M240.6 287.6l7.2-7.2M240.6 283.5l7.2-7.2M240.6 279.7l7.2-7.2M240.6 275.6l7.2-7.2"/><path class="cls-15" d="M247.6 382.2V265.5M240.4 382.2V272.5M240.4 382.2V272.5M247.6 382.2V265.5M240.4 387.2v-5"/><path class="cls-18" d="M285.5 157h-7.2V66.3h7.2V157"/><path class="cls-4" d="M285.7 69.7l-3.6-3.4M285.7 73.8l-7.2-7.2M285.7 77.8l-7.2-7.2M285.7 81.9l-7.2-7.2M285.7 85.8l-7.2-7.2M285.7 89.8l-7.2-7.2M285.7 93.9l-7.2-7.2M285.7 97.8l-7.2-7.2M285.7 101.8l-7.2-7.2M285.7 105.9l-7.2-7.2M285.7 110l-7.2-7.2M285.7 113.8l-7.2-7.2M285.7 117.9l-7.2-7.2M285.7 122l-7.2-7.2M285.7 125.8l-7.2-7.2M285.7 129.9l-7.2-7.2M285.7 134l-7.2-7.2M285.7 137.8l-7.2-7.2M285.7 141.9l-7.2-7.2M285.7 146l-7.2-7.2M285.7 150.1l-7.2-7.2M285.7 153.9l-7.2-7.2M284.8 157l-6.3-6.2M280.7 157l-2.2-2.1M282.9 157l2.8-2.6M278.8 157l6.9-6.7M278.5 153.4l7.2-7.2M278.5 149.6l7.2-7.2M278.5 145.5l7.2-7.2M278.5 141.4l7.2-7.2M278.5 137.4l7.2-7.2M278.5 133.5l7.2-7.2M278.5 129.4l7.2-7.2M278.5 125.4l7.2-7.2M278.5 121.5l7.2-7.2M278.5 117.4l7.2-7.2M278.5 113.4l7.2-7.2M278.5 109.5l7.2-7.2M278.5 105.4l7.2-7.2M278.5 101.4l7.2-7.2M278.5 97.3l7.2-7.2M278.5 93.4l7.2-7.2M278.5 89.4l7.2-7.2M278.5 85.3l7.2-7.2M278.5 81.4l7.2-7.2M278.5 77.4l7.2-7.2M278.5 73.3l7-7M278.5 69.2l2.9-2.9"/><path class="cls-18" d="M278.3 157h7.2V66.3h-7.2V157"/><path class="cls-4" d="M285.7 69.7l-3.6-3.4M285.7 73.8l-7.2-7.2M285.7 77.8l-7.2-7.2M285.7 81.9l-7.2-7.2M285.7 85.8l-7.2-7.2M285.7 89.8l-7.2-7.2M285.7 93.9l-7.2-7.2M285.7 97.8l-7.2-7.2M285.7 101.8l-7.2-7.2M285.7 105.9l-7.2-7.2M285.7 110l-7.2-7.2M285.7 113.8l-7.2-7.2M285.7 117.9l-7.2-7.2M285.7 122l-7.2-7.2M285.7 125.8l-7.2-7.2M285.7 129.9l-7.2-7.2M285.7 134l-7.2-7.2M285.7 137.8l-7.2-7.2M285.7 141.9l-7.2-7.2M285.7 146l-7.2-7.2M285.7 150.1l-7.2-7.2M285.7 153.9l-7.2-7.2M284.8 157l-6.3-6.2M280.7 157l-2.2-2.1M282.9 157l2.8-2.6M278.8 157l6.9-6.7M278.5 153.4l7.2-7.2M278.5 149.6l7.2-7.2M278.5 145.5l7.2-7.2M278.5 141.4l7.2-7.2M278.5 137.4l7.2-7.2M278.5 133.5l7.2-7.2M278.5 129.4l7.2-7.2M278.5 125.4l7.2-7.2M278.5 121.5l7.2-7.2M278.5 117.4l7.2-7.2M278.5 113.4l7.2-7.2M278.5 109.5l7.2-7.2M278.5 105.4l7.2-7.2M278.5 101.4l7.2-7.2M278.5 97.3l7.2-7.2M278.5 93.4l7.2-7.2M278.5 89.4l7.2-7.2M278.5 85.3l7.2-7.2M278.5 81.4l7.2-7.2M278.5 77.4l7.2-7.2M278.5 73.3l7-7M278.5 69.2l2.9-2.9"/><path class="cls-15" d="M285.5 157V66.3M278.3 157V66.3M285.5 66.3h-7.2M278.3 157V66.3M285.5 157V66.3"/><path class="cls-1" d="M42.6 56.7L46.2 0"/><path class="cls-11" d="M46.2 0h77.1"/><path class="cls-6" d="M123.3 0l3.6 56.7"/><path class="cls-14" d="M126.9 56.2v.5"/><path class="cls-18" d="M51.9 233.6c.9 1.3.9 3 0 4.3-1.5 1.9-3.8 2.9-6.2 2.9l-9-.3v-9.6l9-.3c2.4 0 4.7 1 6.2 2.9"/><path class="cls-14" d="M51.9 233.6c.9 1.3.9 3 0 4.3-1.5 1.9-3.8 2.9-6.2 2.9l-9-.3v-9.6l9-.3c2.4 0 4.7 1 6.2 2.9"/><path class="cls-18" d="M41.8 235.7c0-1 .3-2 1.1-2.8.7-.7 1.7-1.2 2.7-1.2 2.1 0 4.1.9 5.4 2.5.6.9.6 2 0 2.9-1.3 1.6-3.3 2.5-5.4 2.5-1 0-2-.4-2.7-1.2-.7-.7-1.1-1.8-1.1-2.8"/><path class="cls-14" d="M41.8 235.7c0-1 .3-2 1.1-2.8.7-.7 1.7-1.2 2.7-1.2 2.1 0 4.1.9 5.4 2.5.6.9.6 2 0 2.9-1.3 1.6-3.3 2.5-5.4 2.5-1 0-2-.4-2.7-1.2-.7-.7-1.1-1.8-1.1-2.8"/><path class="cls-18" d="M37.1 184.4h48l.1.1.1.1h.1V205.5l-.1.1h-.1v.1H36.9v-.1h-.1l-.1-.1V184.6h.1l.1-.1.1-.1h.1"/><path class="cls-14" d="M37.1 184.4h48l.1.1.1.1h.1V205.5l-.1.1h-.1v.1H36.9v-.1h-.1l-.1-.1V184.6h.1l.1-.1.1-.1h.1"/><path class="cls-18" d="M42.3 186.6h37.4c.4 0 .9 0 1.3.3.4.2.8.4 1.1.7.3.3.6.7.7 1.1.2.4.3.9.3 1.3v10.2c0 .4 0 .9-.3 1.3-.2.4-.4.8-.7 1.1-.3.3-.7.6-1.1.7-.4.2-.9.3-1.3.3H42.3c-.4 0-.9 0-1.3-.3-.4-.2-.8-.4-1.1-.7-.3-.3-.6-.7-.7-1.1-.2-.4-.3-.9-.3-1.3V190c0-.4 0-.9.3-1.3.2-.4.4-.8.7-1.1.3-.3.7-.6 1.1-.7.4-.2.9-.3 1.3-.3"/><path class="cls-14" d="M42.3 186.6h37.4c.4 0 .9 0 1.3.3.4.2.8.4 1.1.7.3.3.6.7.7 1.1.2.4.3.9.3 1.3v10.2c0 .4 0 .9-.3 1.3-.2.4-.4.8-.7 1.1-.3.3-.7.6-1.1.7-.4.2-.9.3-1.3.3H42.3c-.4 0-.9 0-1.3-.3-.4-.2-.8-.4-1.1-.7-.3-.3-.6-.7-.7-1.1-.2-.4-.3-.9-.3-1.3V190c0-.4 0-.9.3-1.3.2-.4.4-.8.7-1.1.3-.3.7-.6 1.1-.7.4-.2.9-.3 1.3-.3M35.9 248.7v-20.9"/><path class="cls-7" d="M36.6 248.7v-21.6"/><path class="cls-14" d="M34.5 248.7v-19.4M35.9 248.7v-20.9M36.6 248.7v-21.6M34.5 248.7v-19.4M32.1 227.8v-18.2"/><path class="cls-7" d="M32.8 227.1v-16.8"/><path class="cls-14" d="M30.6 229.3v-21.1M32.1 227.8v-18.2M32.8 227.1v-16.8M30.6 229.3v-21.1M35.9 209.6v-25.4"/><path class="cls-7" d="M36.6 210.3v-26.1"/><path class="cls-14" d="M34.5 208.2v-24M35.9 209.6v-25.4M36.6 210.3v-26.1M34.5 208.2v-24"/><path class="cls-18" d="M36.7 210.9h12.4c.1 0 .3.1.4.2.1.1.2.2.2.4V225.6c0 .1-.1.3-.2.4-.1.1-.2.2-.4.2H36.7v-15.6"/><path class="cls-14" d="M36.7 210.9h12.4c.1 0 .3.1.4.2.1.1.2.2.2.4V225.6c0 .1-.1.3-.2.4-.1.1-.2.2-.4.2H36.7v-15.6"/><path class="cls-12" d="M36.6 227.4h-3.8"/><path class="cls-5" d="M32.8 227.4v-17.1"/><path class="cls-12" d="M32.8 210.3h3.8"/><path class="cls-14" d="M32.1 209.6h3.8"/><path class="cls-7" d="M32.8 210.3h3.8"/><path class="cls-14" d="M30.6 208.2h3.9M32.1 209.6h3.8M32.8 210.3h3.8M30.6 208.2h3.9M35.9 227.8h-3.8"/><path class="cls-7" d="M36.6 227.1h-3.8"/><path class="cls-14" d="M34.5 229.3h-3.9M35.9 227.8h-3.8M36.6 227.1h-3.8M34.5 229.3h-3.9"/><path class="cls-7" d="M36.6 227.1v-16.8"/><path class="cls-18" d="M28.7 253.8h74.4l4.3-5.1H28.7v5.1"/><path class="cls-4" d="M28.9 252.8l4.1-4.1M32.1 253.8l5-5.1M36.4 253.8l5-5.1M40.7 253.8l5-5.1M44.8 253.8l5-5.1M49.1 253.8l5-5.1M53.4 253.8l5.1-5.1M57.7 253.8l5.1-5.1M61.8 253.8l5.1-5.1M66.1 253.8l5.1-5.1M70.5 253.8l5-5.1M74.5 253.8l5.1-5.1M78.9 253.8l5-5.1M83.2 253.8l5-5.1M87.5 253.8l5-5.1M91.6 253.8l5-5.1M95.9 253.8l5-5.1M100.2 253.8l5.1-5.1"/><path class="cls-18" d="M28.7 253.8h74.4l4.3-5.1H28.7v5.1"/><path class="cls-4" d="M28.9 252.8l4.1-4.1M32.1 253.8l5-5.1M36.4 253.8l5-5.1M40.7 253.8l5-5.1M44.8 253.8l5-5.1M49.1 253.8l5-5.1M53.4 253.8l5.1-5.1M57.7 253.8l5.1-5.1M61.8 253.8l5.1-5.1M66.1 253.8l5.1-5.1M70.5 253.8l5-5.1M74.5 253.8l5.1-5.1M78.9 253.8l5-5.1M83.2 253.8l5-5.1M87.5 253.8l5-5.1M91.6 253.8l5-5.1M95.9 253.8l5-5.1M100.2 253.8l5.1-5.1"/><path class="cls-15" d="M85.3 248.7H28.7M107.4 248.7H89.7M103.1 253.8H28.7M28.7 248.7v5.1M103.1 253.8H28.7M85.3 248.7H28.7M107.4 248.7H89.7"/><path class="cls-18" d="M89.7 179.8l-4.4 4.4v37.9h4.4v-42.3"/><path class="cls-4" d="M85.6 187.8l4.3-4.4M85.6 191.8l4.3-4.3M85.6 196.2l4.3-4.4M85.6 200.5l4.3-4.3M85.6 204.8l4.3-4.3M85.6 208.9l4.3-4.3M85.6 213.2l4.3-4.3M85.6 217.5l4.3-4.3M85.6 221.6l4.3-4.3M89.4 222.1l.5-.5"/><path class="cls-18" d="M89.7 179.8l-4.4 4.4v37.9h4.4v-42.3"/><path class="cls-4" d="M85.6 187.8l4.3-4.4M85.6 191.8l4.3-4.3M85.6 196.2l4.3-4.4M85.6 200.5l4.3-4.3M85.6 204.8l4.3-4.3M85.6 208.9l4.3-4.3M85.6 213.2l4.3-4.3M85.6 217.5l4.3-4.3M85.6 221.6l4.3-4.3M89.4 222.1l.5-.5"/><path class="cls-15" d="M89.7 222.1v-38.7M85.3 222.1v-37.9M85.3 222.1v-37.9M89.7 222.1v-38.7"/><path class="cls-1" d="M89.7 248.7v-26.6M85.3 248.7v-26.6"/><path class="cls-14" d="M89.7 246.8h-4.4M89.7 224.2h-4.4"/><path class="cls-15" d="M89.7 248.7h-4.4M89.7 222.1h-4.4"/><path class="cls-4" d="M112.4 246.8c0-12.4-10.2-22.7-22.7-22.7M89.7 246.8h22.8"/><path class="cls-18" d="M28.7 184.2h56.6l4.4-4.4h-61v4.4"/><path class="cls-4" d="M28.9 180.6l.8-.8M29.4 184.2l4.3-4.4M33.7 184.2l4.4-4.4M38.1 184.2l4.3-4.4M42.1 184.2l4.4-4.4M46.5 184.2l4.3-4.4M50.8 184.2l4.3-4.4M55.1 184.2l4.3-4.4M59.2 184.2l4.3-4.4M63.5 184.2l4.3-4.4M67.8 184.2l4.3-4.4M71.9 184.2l4.3-4.4M76.2 184.2l4.3-4.4M80.5 184.2l4.4-4.4M84.9 184.2l4.3-4.4"/><path class="cls-18" d="M28.7 184.2h56.6l4.4-4.4h-61v4.4"/><path class="cls-4" d="M28.9 180.6l.8-.8M29.4 184.2l4.3-4.4M33.7 184.2l4.4-4.4M38.1 184.2l4.3-4.4M42.1 184.2l4.4-4.4M46.5 184.2l4.3-4.4M50.8 184.2l4.3-4.4M55.1 184.2l4.3-4.4M59.2 184.2l4.3-4.4M63.5 184.2l4.3-4.4M67.8 184.2l4.3-4.4M71.9 184.2l4.3-4.4M76.2 184.2l4.3-4.4M80.5 184.2l4.4-4.4M84.9 184.2l4.3-4.4"/><path class="cls-15" d="M89.7 179.8h-61M85.3 184.2H28.7M28.7 179.8v4.4M85.3 184.2H28.7M89.7 179.8h-61"/><path class="cls-14" d="M107.2 189.4h.7V205h-.7zM90.9 189.4h16.3v.5H90.9zM90.4 189.4h.5v31.2h-.5zM107.2 188.2h.7v1.2h-.7zM107.2 205h.7v15.6h-.7zM90.9 219.9h16.3v.7H90.9zM90.1 220.6h17.8v.5H90.1z"/><path class="cls-18" d="M107.4 248.7l-4.3 5.1v17h4.3v-22.1"/><path class="cls-4" d="M103.3 255l4.4-4.4M103.3 259.3l4.4-4.3M103.3 263.4l4.4-4.4M103.3 267.7l4.4-4.3M104.3 270.8l3.4-3.1"/><path class="cls-18" d="M107.4 248.7l-4.3 5.1v17h4.3v-22.1"/><path class="cls-4" d="M103.3 255l4.4-4.4M103.3 259.3l4.4-4.3M103.3 263.4l4.4-4.4M103.3 267.7l4.4-4.3M104.3 270.8l3.4-3.1"/><path class="cls-15" d="M107.4 270.8v-22.1M103.1 270.8v-17M103.1 270.8v-17M107.4 270.8v-22.1M107.4 270.8h-4.3"/><path class="cls-17" d="M92.3 187.5h10.1v2.4H92.3z"/><path class="cls-14" d="M92.3 187.5h10.1v2.4H92.3z"/><path class="cls-17" d="M92.1 189.9h10.6v.2H92.1z"/><path class="cls-14" d="M92.1 189.9h10.6v.2H92.1z"/><path class="cls-16" d="M93 190.2v8.4"/><path class="cls-3" d="M101.7 190.2l-.3 1.6-.5 1.5-.7 1.4-1.2 1.5-1.2.9-1.4 1-1.7.5H93"/><path class="cls-18" d="M107.4 187.8v-8l-3.6 3.6v4.4h3.6"/><path class="cls-4" d="M104.1 186.3l3.6-3.6M106.7 187.8l1-1"/><path class="cls-18" d="M107.4 187.8v-8l-3.6 3.6v4.4h3.6"/><path class="cls-4" d="M104.1 186.3l3.6-3.6M106.7 187.8l1-1"/><path class="cls-15" d="M103.8 183.4v4.4M107.4 179.8v8M103.8 187.8h3.6M107.4 179.8v8M103.8 183.4v4.4"/><path class="cls-18" d="M89.7 179.8v3.6h14.1l3.6-3.6H89.7"/><path class="cls-4" d="M89.9 183.4l3.4-3.6M94 183.4l3.6-3.6M98.3 183.4l3.6-3.6M102.4 183.4l3.6-3.6"/><path class="cls-18" d="M89.7 179.8v3.6h14.1l3.6-3.6H89.7"/><path class="cls-4" d="M89.9 183.4l3.4-3.6M94 183.4l3.6-3.6M98.3 183.4l3.6-3.6M102.4 183.4l3.6-3.6"/><path class="cls-15" d="M107.4 179.8H89.7M103.8 183.4H89.7M103.8 183.4H89.7M107.4 179.8H89.7"/><path class="cls-1" d="M107.4 249.4v-27.8"/><path class="cls-14" d="M107.4 222.1v-.5M34.5 248.7h-2.9"/><path class="cls-18" d="M382.5 204.8l-7-7v7h7"/><path class="cls-4" d="M380.5 204.8l-4.8-4.8M376.5 204.8l-.8-1M379.3 204.8l1.7-1.7M375.7 204.6l3.4-3.4M375.7 200.7l1.2-1.4"/><path class="cls-18" d="M382.5 204.8l-7-7v7h7"/><path class="cls-4" d="M380.5 204.8l-4.8-4.8M376.5 204.8l-.8-1M379.3 204.8l1.7-1.7M375.7 204.6l3.4-3.4M375.7 200.7l1.2-1.4"/><path class="cls-15" d="M375.5 204.8h7M375.5 204.8h7"/><path class="cls-18" d="M339.7 197.8h-7.2l7.2 7v-7"/><path class="cls-4" d="M340 200.2l-2.4-2.4M340 204.3l-6.5-6.5M339.5 204.6l.5-.3M337.6 202.6l2.4-2.4M335.4 200.7l2.9-2.9M333.5 198.6l.7-.8"/><path class="cls-18" d="M339.7 197.8h-7.2l7.2 7v-7"/><path class="cls-4" d="M340 200.2l-2.4-2.4M340 204.3l-6.5-6.5M339.5 204.6l.5-.3M337.6 202.6l2.4-2.4M335.4 200.7l2.9-2.9M333.5 198.6l.7-.8"/><path class="cls-15" d="M332.5 197.8h7.2M332.5 197.8h7.2"/><path class="cls-14" d="M339.7 203.6h2.4v1.9h-2.4zM369.5 203.6h6v1.9h-6zM342.1 203.6h27.4v1.9h-27.4zM342.1 203.6h27.4"/><path class="cls-1" d="M341.9 197.8h27.8"/><path class="cls-14" d="M369.3 197.8h.4"/><path class="cls-18" d="M339.7 197.8h2.2v5.8h-2.2"/><path class="cls-4" d="M342.1 198.3l-.7-.5M342.1 202.4l-2.1-2.2M340.5 203.6l1.6-1.4M340 200.2l2.1-2.1"/><path class="cls-18" d="M375.5 197.8h-5.8v5.8h5.8"/><path class="cls-4" d="M375.7 200l-2.1-2.2M375.3 203.6l-5.3-5.5M371.4 203.6l-1.4-1.4M372.6 203.6l3.1-2.9M370 202.4l4.3-4.6M370 198.3l.5-.5"/><path class="cls-15" d="M341.9 197.8v5.8M369.7 197.8v5.8M341.9 197.8v5.8M339.7 197.8h2.2M369.7 197.8v5.8M375.5 197.8h-5.8M339.7 204.8v-1.2M375.5 204.8v-1.2M339.7 197.8h2.2M375.5 197.8h-5.8M341.9 203.6h-2.2M369.7 203.6h5.8"/><path class="cls-4" d="M291.1 389.5c0 15.2 12.5 27.8 27.8 27.8M318.9 417.2v-27.6M291 389.6v2.6l-.5 2.7-.7 2.6-.9 2.7-1 2.4-1.4 2.4-1.7 2.1-1.9 2.2-2 1.7-2.1 1.6-2.4 1.5-2.4 1.2-2.7.7-2.6.7-2.6.5h-2.7M263.4 417.2v-27.6M263.4 390.1v-.5"/><path class="cls-15" d="M5.9 390.5h2.3v-2.3H5.9v2.3m2.6-2.6v2.8H5.7v-2.8h2.8M5.9 63.1h2.3v2.3H5.9v-2.3m2.6 2.6v-2.8H5.7v2.8h2.8"/><path class="cls-18" d="M285.5 157l-3.6-1.2-3.6 1.2 2.6 1.7 4.6-1.7"/><path class="cls-4" d="M285 157.3l-.7-.7M281.9 158.5l-1.7-1.9M281.4 158.7l2.2-2.4M278.8 157.3l.2-.5"/><path class="cls-18" d="M15 358.4v1.9h3.9v-1.9H15"/><path class="cls-4" d="M18.4 360.3v-1.9M16.9 360.3v-1.9M15.7 360.3v-1.9M15 358.4h3.8v1.9H15z"/><path class="cls-18" d="M15 249.4v2h3.9v-2H15"/><path class="cls-4" d="M18.4 251.4v-2M16.9 251.4v-2M15.7 251.4v-2M15 249.4h3.8v1.9H15z"/><path class="cls-15" d="M11.2 251.4h7.7v107h-7.7zM11.2 358.4v1.9M11.2 251.4v-2M11.2 263.4h7.7M11.2 275.4h7.7M11.2 287.1h7.7M11.2 298.9h7.7M11.2 310.9h7.7M11.2 322.6h7.7M11.2 334.6h7.7M11.2 346.4h7.7"/><path class="cls-4" d="M187.9 387.2v-1.9c0-.6.2-1.2.3-1.8.1-.6.3-1.2.5-1.8l.6-1.8c.2-.6.5-1.1.8-1.7.3-.5.6-1.1 1-1.6.3-.5.7-1 1.1-1.5.4-.5.8-.9 1.3-1.4.4-.4.9-.9 1.4-1.3.5-.4 1-.8 1.5-1.1.5-.3 1.1-.7 1.6-1 .5-.3 1.1-.6 1.7-.8l1.8-.6c.6-.2 1.2-.3 1.8-.5l1.8-.3h1.9M206.8 368.2v19M187.8 387.2v-1.4M187.6 384.3v-.7M187.6 383.6l-.3-.7M187.1 381.7l-.7-1.7M185.9 378.8l-.2-.5M185.7 378.3l-.5-.7M184.7 376.6l-1.2-1.4M182.5 374l-.2-.2M182.3 373.8l-1-.8M180.4 372.1l-1-.7M179.4 371.4l-1.7-1M177.7 370.4l-.9-.5M175.3 369.4l-.9-.2M174.4 369.2l-.5-.2M172.7 368.7l-1.9-.5M169.6 368.2h-.7M168.9 368.2v19M168.9 386.7v.5M238.4 66.4c0 11 9.1 20.1 20.1 20.1M258.4 86.5V66.3"/><path class="cls-4" d="M238.5 66.3l-.5 4.1-1.2 3.6-1.9 3.6-2.4 3.1-3.2 2.4L226 85l-3.9 1-3.8.5M218.3 86.5V66.3M94.6 66.4c0 11 9.1 20.1 20.1 20.1M114.9 86.5V66.3"/><path class="cls-4" d="M94.7 66.3l-.5 4.1L93 74l-1.7 3.6-2.6 3.1-3.1 2.4-3.4 1.9-3.8 1-3.9.5M74.5 86.5V66.3M74.8 387.2c0-11-9.1-20.1-20.1-20.1M54.6 367v20.2M74.8 387.2l.5-3.8.9-3.9 1.9-3.3 2.7-3.2 2.9-2.4 3.6-1.9 3.8-1.2 3.8-.5M94.9 367v20.2"/><path class="cls-8" d="M261.7 390.1h58.8v29.5h-58.8z"/><path class="cls-14" d="M93.3 399.7v18.7h-37v-18.7"/><path class="cls-14" d="M71.9 402.3l2.9-2.6 2.9 2.6h-5.8zM93.3 399.7h-37M133.6 225.2v1M133.6 226.2l-.3.7M133.3 226.9v.9M133.3 227.8l-.2.3M132.6 229.3l-.2.2M131.7 230.7l-.5.5M131.2 231.2l-.7.7M130.5 231.9l-.8.5M129.7 232.4l-.2.2M128.3 233.1l-.5.3M126.6 233.6l-.7.2M125.9 233.8h-.7M125.2 233.8h-1M124.2 233.8l-.5-.2M122.3 233.4l-.2-.3M120.9 232.6l-.5-.2M120.4 232.4l-.7-.5M119.7 231.9l-.5-.7M119.2 231.2l-.5-.5M117.7 229.5v-.2M117 228.1v-.3M117 227.8l-.2-.9M116.8 226.9l-.3-.7M116.5 226.2v-1M116.8 224v-.5M117.3 222.3v-.2M117.3 222.1l.2-.7M117.5 221.4l.5-.8M118 220.6l.5-.7M119.7 218.7h.2M120.9 217.8h.2M121.1 217.8l.7-.3M121.8 217.5l.7-.5M122.5 217l1-.2M124.9 216.8h.3M125.2 216.8h.2M126.6 216.8h.3M126.9 216.8l.7.2M127.6 217l.7.5M128.3 217.5l.7.3M129 217.8l.3.2M130.5 218.7l.2.3M131.7 219.9l.4.7M132.1 220.6l.5.8M132.6 221.4l.3.7M132.9 222.1l.2.2M133.6 223.8v.2"/></g><g id="Mbel"><path class="cls-2" d="M97.1 301h22.6v50.9H97.1zM87.1 350.6v-12.8M95.6 350.6h-8.5M87.1 337.8h8.5M87.1 332.9v-12.8M95.6 332.9h-8.5M87.1 320.1h8.5M87.1 315.1v-12.7M95.6 315.1h-8.5M87.1 302.4h8.5M129.7 350.6v-12.8M121.1 350.6h8.6M129.7 337.8h-8.6M129.7 332.9v-12.8M121.1 332.9h8.6M129.7 320.1h-8.6M129.7 315.1v-12.7M121.1 315.1h8.6M129.7 302.4h-8.6M130 98.7h10.8v56.6H130zM182.3 314.2h56.6v45.4h-56.6zM182.3 274.2h56.6v15.6h-56.6zM65.7 110.5h14.2v28.3H65.7zM34.7 98h19c.1 0 .2.1.3.2 0 0 .1.2.2.3V124c0 .1-.1.2-.2.3 0 0-.2.1-.3.2h-19V97.9M31 93.5h22.7c.1 0 .2.1.3.2 0 0 .1.2.2.3V97.4c0 .1-.1.2-.2.3 0 0-.2.1-.3.2H31h-.2-.2-.1l-.1-.1-.1-.1v-.1-.2-3-.3c0-.1.1-.2.2-.3 0 0 .2-.1.3-.2h.3M34.7 124.7H31h-.2-.2-.1l-.1.1-.1.1v25.9l.1.1.1.1h4.2M36.9 151.3V98M34.7 151.3h19c.1 0 .2-.1.3-.2 0 0 .1-.2.2-.3v-25.2-.3c0-.1-.1-.2-.2-.3 0 0-.2-.1-.3-.2h-19v26.6"/><path class="cls-2" d="M31 155.8h22.7c.1 0 .2-.1.3-.2 0 0 .1-.2.2-.3V152.2v-.3c0-.1-.1-.2-.2-.3 0 0-.2-.1-.3-.2H31h-.2-.2-.1l-.1.1-.1.1V155.2c0 .1.1.2.2.3 0 0 .2.1.3.2s.2 0 .3 0M34.7 124.7H31h-.2-.2-.1l-.1-.1-.1-.1v-.1-.2V99.1v-.2-.2-.1l.1-.1.1-.1h4.2M76.4 151.3c1.3 3.8 2.9 7.4 4.8 11 .4.8 1.4 1.3 2.3 1.3 3.2-.3 6.3-1.4 8.9-3.4.8-.6 1.1-1.5.9-2.5-.9-3.9-2.2-7.7-3.7-11.4h-.1c-.7 0-1.4.2-2 .4-3.1 1-6.2 2.2-9.2 3.5-.6.3-1.2.6-1.8 1"/><path class="cls-2" d="M76.4 152.4c-.2.3-.3.6-.3 1-.2 1.5 0 3.1.6 4.5.8 1.9 1.7 3.7 2.9 5.4.8 1.2 1.8 2.4 2.8 3.3.6.6 1.5.8 2.3.7 3.4-.4 6.6-1.7 9.4-3.6.7-.5 1.2-1.2 1.3-2.1.2-1.5.1-2.9 0-4.4-.3-2-.8-4-1.5-6-.5-1.4-1.4-2.7-2.5-3.8-.3-.2-.6-.4-.9-.5M151.1 98.7h15.6v56.6h-15.6zM248.5 99h28.3v56.6h-28.3zM200.5 128H212v7.7h-11.5zM183.7 135.7h45.4v19.9h-45.4z"/></g><g id="Text"><path d="M202.1 333.8v.6h-3.8l3-4.8h-2.7v-.6h3.8l-3 4.8h2.7zM203.9 329.7c0 .2-.2.4-.4.4s-.4-.2-.4-.4.2-.4.4-.4.4.2.4.4zm0 4.7h-.6v-3.7h.6v3.7zM205.8 330.7v.5c.3-.4.6-.6 1-.6s.8.2 1 .7c.3-.5.6-.7 1.2-.7s.7.1.9.4c.2.2.2.4.2 1v2.4h-.6v-2.2c0-.4 0-.6-.1-.7-.1-.2-.4-.3-.6-.3-.5 0-.8.4-.8 1v2.2h-.6v-2.2c0-.4 0-.5-.1-.7-.1-.2-.3-.3-.6-.3-.5 0-.9.4-.9 1v2.2h-.6v-3.7h.6zM212.1 330.7v.5c.3-.4.6-.6 1-.6s.8.2 1 .7c.3-.5.6-.7 1.2-.7s.7.1.9.4c.2.2.2.4.2 1v2.4h-.6v-2.2c0-.4 0-.6-.1-.7-.1-.2-.4-.3-.6-.3-.5 0-.8.4-.8 1v2.2h-.6v-2.2c0-.4 0-.5-.1-.7-.1-.2-.3-.3-.6-.3-.5 0-.9.4-.9 1v2.2h-.6v-3.7h.6zM218.2 332.7c0 .3 0 .5.2.7.2.3.6.5 1 .5s.9-.2 1.1-.6l.5.2c-.3.6-.9 1-1.6 1-1.1 0-1.9-.8-1.9-1.9s.8-1.9 1.9-1.9 1.9.8 1.9 1.9v.2h-3.1zm2.4-.4c0-.3 0-.4-.2-.6-.2-.3-.6-.5-1-.5s-.8.2-1 .5c-.1.2-.2.3-.2.6h2.4zM222.9 330.7v.6c.1-.3.2-.4.3-.5.2-.1.4-.2.7-.2h.1v.6h-.2c-.3 0-.6.2-.8.4-.2.2-.2.4-.2.9v1.9h-.6v-3.7h.6zM199 339.8v-.6l1.8-1.2v5.4h-.6V339l-1.2.8zM205.3 342.8v.6h-3l1.9-2.7c.5-.8.7-1 .7-1.3 0-.5-.4-.8-.9-.8s-.7.2-.8.4v.6h-.6c0-1 .6-1.6 1.5-1.6s1.5.5 1.5 1.3-.2.8-.6 1.5l-1.4 2h1.9zM207.3 343c0 .2-.2.4-.4.4s-.4-.2-.4-.4.2-.4.4-.4.4.2.4.4zM211.1 338.7h-1.7v1.4c.3-.1.5-.2.8-.2.9 0 1.6.7 1.6 1.7s-.8 1.8-1.8 1.8-1.3-.4-1.6-1.1l.6-.2c.1.2.2.3.3.4.2.2.5.3.8.3.6 0 1.1-.5 1.1-1.2s-.5-1.1-1.2-1.1-.8.2-1.2.5v-3h2.3v.6zM215 339.7v.5c.3-.4.6-.6 1-.6s.8.2 1 .7c.3-.5.6-.7 1.2-.7s.7.1.9.4c.2.2.2.4.2 1v2.4h-.6v-2.2c0-.4 0-.6-.1-.7-.1-.2-.4-.3-.6-.3-.5 0-.8.4-.8 1v2.2h-.6v-2.2c0-.4 0-.5-.1-.7-.1-.2-.3-.3-.6-.3-.5 0-.9.4-.9 1v2.2h-.6v-3.7h.6zM222.6 340.9v.4h-2l1.2-1.6c.3-.5.4-.6.4-.8 0-.3-.2-.4-.5-.4s-.5.2-.5.6h-.4c0-.6.4-1 1-1s1 .3 1 .8-.1.5-.4.9l-.8 1.1h1.1z"/><g><path d="M277.2 333.6h2.1v.6h-2.1v1.8h2.1v.6h-2.8v-5.3h2.8v.6h-2.1v1.8zM281.1 331.8c0 .2-.2.4-.4.4s-.4-.2-.4-.4.2-.4.4-.4.4.2.4.4zm0 4.7h-.6v-3.7h.6v3.7zM283 332.9v.5c.3-.4.6-.6 1.1-.6s.6.1.9.3c.2.2.3.5.3 1v2.5h-.6v-2.4c0-.3 0-.5-.1-.6-.1-.2-.3-.2-.6-.2s-.5.1-.7.3c-.2.2-.2.4-.2.7v2.2h-.6v-3.7h.6zM289.4 332.9h.6v3.7c0 .6-.2 1-.5 1.4-.3.3-.8.5-1.4.5s-1.2-.2-1.6-.7l.4-.4c.2.2.2.2.4.3.2.1.6.2.9.2s.8-.1 1-.4c.2-.2.3-.5.3-.9v-.8c-.4.5-.8.8-1.4.8-1 0-1.7-.8-1.7-1.9s.2-1.2.6-1.5c.3-.3.7-.4 1.2-.4s.9.2 1.3.7v-.6zm-2.4 1.8c0 .8.5 1.4 1.2 1.4s.7-.2.9-.4c.2-.2.3-.5.3-.9s0-.7-.3-1c-.2-.2-.6-.4-.9-.4-.7 0-1.2.6-1.2 1.4zM294.2 332.9h.6v3.7h-.6v-.7c-.4.6-.8.8-1.3.8-1 0-1.7-.8-1.7-1.9s.7-1.9 1.8-1.9 1 .2 1.3.7v-.6zm-2.1.9c-.2.3-.3.6-.3 1 0 .8.5 1.4 1.2 1.4s1.3-.6 1.3-1.4-.5-1.4-1.2-1.4-.7.1-.9.4zM296.8 332.9v.5c.3-.4.6-.6 1.1-.6s.6.1.9.3c.2.2.3.5.3 1v2.5h-.6v-2.4c0-.3 0-.5-.1-.6-.1-.2-.3-.2-.6-.2s-.5.1-.7.3c-.2.2-.2.4-.2.7v2.2h-.6v-3.7h.6zM303.2 332.9h.6v3.7c0 .6-.2 1-.5 1.4-.3.3-.8.5-1.4.5s-1.2-.2-1.6-.7l.4-.4c.2.2.2.2.4.3.2.1.6.2.9.2s.8-.1 1-.4c.2-.2.3-.5.3-.9v-.8c-.4.5-.8.8-1.4.8-1 0-1.7-.8-1.7-1.9s.2-1.2.6-1.5c.3-.3.7-.4 1.2-.4s.9.2 1.3.7v-.6zm-2.4 1.8c0 .8.5 1.4 1.2 1.4s.7-.2.9-.4c.2-.2.3-.5.3-.9s0-.7-.3-1c-.2-.2-.6-.4-.9-.4-.7 0-1.2.6-1.2 1.4z"/></g><g><path d="M115.1 197.1h2.1v.6h-2.1v1.8h2.1v.6h-2.8v-5.3h2.8v.6h-2.1v1.8zM119 196.4v.5c.3-.4.6-.6 1.1-.6s.6.1.9.3c.2.2.3.5.3 1v2.5h-.6v-2.4c0-.3 0-.5-.1-.6-.1-.2-.3-.2-.6-.2s-.5.1-.7.3c-.2.2-.2.4-.2.7v2.2h-.6v-3.7h.6zM123.2 199.4c0 .2 0 .2.3.2h.3v.5h-.6c-.4 0-.6-.2-.6-.6v-2.6h-.5v-.5h.5v-1.2h.6v1.2h.6v.5h-.6v2.4zM125.5 196.4v.6c.1-.3.2-.4.3-.5.2-.1.4-.2.7-.2h.1v.6h-.2c-.3 0-.6.2-.8.4-.2.2-.2.4-.2.9v1.9h-.6v-3.7h.6zM127.9 198.5c0 .3 0 .5.2.7.2.3.6.5 1 .5s.9-.2 1.1-.6l.5.2c-.3.6-.9 1-1.6 1-1.1 0-1.9-.8-1.9-1.9s.8-1.9 1.9-1.9 1.9.8 1.9 1.9v.2h-3.1zm2.4-.4c0-.3 0-.4-.2-.6-.2-.3-.6-.5-1-.5s-.8.2-1 .5c-.1.2-.2.3-.2.6h2.4zm-.2-3.2l-.9 1.1h-.4l.7-1.1h.7zM132.4 198.5c0 .3 0 .5.2.7.2.3.6.5 1 .5s.9-.2 1.1-.6l.5.2c-.3.6-.9 1-1.6 1-1.1 0-1.9-.8-1.9-1.9s.8-1.9 1.9-1.9 1.9.8 1.9 1.9v.2h-3.1zm2.4-.4c0-.3 0-.4-.2-.6-.2-.3-.6-.5-1-.5s-.8.2-1 .5c-.1.2-.2.3-.2.6h2.4zM116.8 204.4h-1.7v1.4c.3-.1.5-.2.8-.2.9 0 1.6.7 1.6 1.7s-.8 1.8-1.8 1.8-1.3-.4-1.6-1.1l.6-.2c.1.2.2.3.3.4.2.2.5.3.8.3.6 0 1.1-.5 1.1-1.2s-.5-1.1-1.2-1.1-.8.2-1.2.5v-3h2.3v.6zM119.3 208.8c0 .2-.2.4-.4.4s-.4-.2-.4-.4.2-.4.4-.4.4.2.4.4zM123.4 208.5v.6h-3l1.9-2.7c.5-.8.7-1 .7-1.3 0-.5-.4-.8-.9-.8s-.7.2-.8.4v.6h-.6c0-1 .6-1.6 1.5-1.6s1.5.5 1.5 1.3-.2.8-.6 1.5l-1.4 2h1.9zM129.4 205.4v.5c.3-.4.6-.6 1-.6s.8.2 1 .7c.3-.5.6-.7 1.2-.7s.7.1.9.4c.2.2.2.4.2 1v2.4h-.6v-2.2c0-.4 0-.6-.1-.7-.1-.2-.4-.3-.6-.3-.5 0-.8.4-.8 1v2.2h-.6v-2.2c0-.4 0-.5-.1-.7-.1-.2-.3-.3-.6-.3-.5 0-.9.4-.9 1v2.2h-.6v-3.7h.6zM137 206.6v.4h-2l1.2-1.6c.3-.5.4-.6.4-.8 0-.3-.2-.4-.5-.4s-.5.2-.5.6h-.4c0-.6.4-1 1-1s1 .3 1 .8-.1.5-.4.9l-.8 1.1h1.1z"/></g><g><path d="M96.3 97.7h.7l-1.6 5.3h-.6l-1.2-4.2-1.2 4.2h-.6l-1.6-5.3h.7l1.2 4.1 1.2-4.1h.6l1.1 4.1 1.2-4.1zM101.1 101.2c0 1.1-.8 1.9-1.9 1.9s-1.9-.8-1.9-1.9.8-1.9 1.9-1.9 1.9.8 1.9 1.9zm-3.1 0c0 .8.5 1.4 1.3 1.4s1.2-.6 1.2-1.4-.5-1.4-1.2-1.4-1.3.6-1.3 1.4zM102.8 99.9c.3-.4.7-.6 1.1-.6s.7.1.9.3c.2.2.3.5.3 1v2.5h-.6v-2.4c0-.5-.2-.8-.7-.8s-.5.1-.7.3c-.2.2-.2.4-.2.7v2.2h-.6v-5.3h.6v2.2zM107 99.3v.5c.3-.4.6-.6 1.1-.6s.6.1.9.3c.2.2.3.5.3 1v2.5h-.6v-2.4c0-.3 0-.5-.1-.6-.1-.2-.3-.2-.6-.2s-.5.1-.7.3c-.2.2-.2.4-.2.7v2.2h-.6v-3.7h.6zM111 101.4c0 .3 0 .5.2.7.2.3.6.5 1 .5s.9-.2 1.1-.6l.5.2c-.3.6-.9 1-1.6 1-1.1 0-1.9-.8-1.9-1.9s.8-1.9 1.9-1.9 1.9.8 1.9 1.9v.2H111zm2.4-.4c0-.3 0-.4-.2-.6-.2-.3-.6-.5-1-.5s-.8.2-1 .5c-.1.2-.2.3-.2.6h2.4zM115.8 99.3v.5c.3-.4.6-.6 1.1-.6s.6.1.9.3c.2.2.3.5.3 1v2.5h-.6v-2.4c0-.3 0-.5-.1-.6-.1-.2-.3-.2-.6-.2s-.5.1-.7.3c-.2.2-.2.4-.2.7v2.2h-.6v-3.7h.6zM91 108.4v-.6l1.8-1.2v5.4h-.6v-4.4l-1.2.8zM97 107.3h-1.7v1.4c.3-.1.5-.2.8-.2.9 0 1.6.7 1.6 1.7s-.8 1.8-1.8 1.8-1.3-.4-1.6-1.1l.6-.2c.1.2.2.3.3.4.2.2.5.3.8.3.6 0 1.1-.5 1.1-1.2s-.5-1.1-1.2-1.1-.8.2-1.2.5v-3H97v.6zM99.6 111.7c0 .2-.2.4-.4.4s-.4-.2-.4-.4.2-.4.4-.4.4.2.4.4zM101.9 108.9c.2 0 .3-.1.5-.1.9 0 1.6.7 1.6 1.6s-.8 1.7-1.7 1.7-1.7-.8-1.7-1.7.1-.7.4-1.2l1.5-2.5h.7l-1.4 2.1zm-.7 1.5c0 .6.5 1.1 1.1 1.1s1.1-.5 1.1-1.1-.5-1.1-1.1-1.1-1.1.5-1.1 1.1zM108.1 108.3v.5c.3-.4.6-.6 1-.6s.8.2 1 .7c.3-.5.6-.7 1.2-.7s.7.1.9.4c.2.2.2.4.2 1v2.4h-.6v-2.2c0-.4 0-.6-.1-.7-.1-.2-.4-.3-.6-.3-.5 0-.8.4-.8 1v2.2h-.6v-2.2c0-.4 0-.5-.1-.7-.1-.2-.3-.3-.6-.3-.5 0-.9.4-.9 1v2.2h-.6v-3.7h.6zM115.7 109.5v.4h-2l1.2-1.6c.3-.5.4-.6.4-.8 0-.3-.2-.4-.5-.4s-.5.2-.5.6h-.4c0-.6.4-1 1-1s1 .3 1 .8-.1.5-.4.9l-.8 1.1h1.1z"/></g><g><path d="M200 102.5v.6h-3.8l3-4.8h-2.7v-.6h3.8l-3 4.8h2.7zM201.9 98.3c0 .2-.2.4-.4.4s-.4-.2-.4-.4.2-.4.4-.4.4.2.4.4zm0 4.7h-.6v-3.7h.6v3.7zM203.7 99.3v.5c.3-.4.6-.6 1-.6s.8.2 1 .7c.3-.5.6-.7 1.2-.7s.7.1.9.4c.2.2.2.4.2 1v2.4h-.6v-2.2c0-.4 0-.6-.1-.7-.1-.2-.4-.3-.6-.3-.5 0-.8.4-.8 1v2.2h-.6v-2.2c0-.4 0-.5-.1-.7-.1-.2-.3-.3-.6-.3-.5 0-.9.4-.9 1v2.2h-.6v-3.7h.6zM210.1 99.3v.5c.3-.4.6-.6 1-.6s.8.2 1 .7c.3-.5.6-.7 1.2-.7s.7.1.9.4c.2.2.2.4.2 1v2.4h-.6v-2.2c0-.4 0-.6-.1-.7-.1-.2-.4-.3-.6-.3-.5 0-.8.4-.8 1v2.2h-.6v-2.2c0-.4 0-.5-.1-.7-.1-.2-.3-.3-.6-.3-.5 0-.9.4-.9 1v2.2h-.6v-3.7h.6zM216.2 101.4c0 .3 0 .5.2.7.2.3.6.5 1 .5s.9-.2 1.1-.6l.5.2c-.3.6-.9 1-1.6 1-1.1 0-1.9-.8-1.9-1.9s.8-1.9 1.9-1.9 1.9.8 1.9 1.9v.2h-3.1zm2.4-.4c0-.3 0-.4-.2-.6-.2-.3-.6-.5-1-.5s-.8.2-1 .5c-.1.2-.2.3-.2.6h2.4zM220.9 99.3v.6c.1-.3.2-.4.3-.5.2-.1.4-.2.7-.2h.1v.6h-.2c-.3 0-.6.2-.8.4-.2.2-.2.4-.2.9v1.9h-.6v-3.7h.6zM197 108.4v-.6l1.8-1.2v5.4h-.6v-4.4l-1.2.8zM200.5 107.4v-.6h3l-1.6 2c.9 0 1.6.7 1.6 1.6s-.8 1.7-1.8 1.7-1.4-.5-1.6-1.3h.6c.1.4.5.7 1 .7s1.2-.5 1.2-1.1-.5-1.1-1.2-1.1-.4 0-.6.2l-.3-.2 1.5-1.9h-1.9zM205.4 111.7c0 .2-.2.4-.4.4s-.4-.2-.4-.4.2-.4.4-.4.4.2.4.4zM208.2 109.9c-.2 0-.3.1-.5.1-.9 0-1.6-.7-1.6-1.6s.8-1.7 1.7-1.7 1.7.7 1.7 1.7-.1.7-.4 1.2l-1.5 2.5h-.7l1.3-2.1zm-1.5-1.5c0 .6.5 1.1 1.1 1.1s1.1-.5 1.1-1.1-.5-1.1-1-1.1-1.1.5-1.1 1.1zM212.7 108.3v.5c.3-.4.6-.6 1-.6s.8.2 1 .7c.3-.5.6-.7 1.2-.7s.7.1.9.4c.2.2.2.4.2 1v2.4h-.6v-2.2c0-.4 0-.6-.1-.7-.1-.2-.4-.3-.6-.3-.5 0-.8.4-.8 1v2.2h-.6v-2.2c0-.4 0-.5-.1-.7-.1-.2-.3-.3-.6-.3-.5 0-.9.4-.9 1v2.2h-.6v-3.7h.6zM220.3 109.5v.4h-2l1.2-1.6c.3-.5.4-.6.4-.8 0-.3-.2-.4-.5-.4s-.5.2-.5.6h-.4c0-.6.4-1 1-1s1 .3 1 .8-.1.5-.4.9l-.8 1.1h1.1z"/></g><g><path d="M61.8 287.8h-.7v-5.3h.7v2.5l2.1-2.5h.8l-2.2 2.6 2.2 2.7h-.9l-2-2.5v2.5zM68.8 286c0 1.1-.8 1.9-1.9 1.9s-1.9-.8-1.9-1.9.8-1.9 1.9-1.9 1.9.8 1.9 1.9zm-3.1 0c0 .8.5 1.4 1.3 1.4s1.2-.6 1.2-1.4-.5-1.4-1.2-1.4-1.3.6-1.3 1.4zM72.9 287.4c-.4.4-.8.5-1.4.5-1.1 0-1.8-.8-1.8-1.9s.8-1.9 1.8-1.9 1 .2 1.3.6l-.4.4c-.3-.3-.6-.4-.9-.4-.7 0-1.2.6-1.2 1.4s.5 1.4 1.2 1.4.6-.1.9-.4l.4.4zM74.4 284.7c.3-.4.7-.6 1.1-.6s.7.1.9.3c.2.2.3.5.3 1v2.5h-.6v-2.4c0-.5-.2-.8-.7-.8s-.5.1-.7.3c-.2.2-.2.4-.2.7v2.2h-.6v-5.3h.6v2.2zM78.4 286.2c0 .3 0 .5.2.7.2.3.6.5 1 .5s.9-.2 1.1-.6l.5.2c-.3.6-.9 1-1.6 1-1.1 0-1.9-.8-1.9-1.9s.8-1.9 1.9-1.9 1.9.8 1.9 1.9v.2h-3.1zm2.4-.4c0-.3 0-.4-.2-.6-.2-.3-.6-.5-1-.5s-.8.2-1 .5c-.1.2-.2.3-.2.6h2.4zM83.1 284.1v.5c.3-.4.6-.6 1.1-.6s.6.1.9.3c.2.2.3.5.3 1v2.5h-.6v-2.4c0-.3 0-.5-.1-.6-.1-.2-.3-.2-.6-.2s-.5.1-.7.3c-.2.2-.2.4-.2.7v2.2h-.6v-3.7h.6zM86.7 289.1h-.4l.7-2.1.6.2-.8 1.9zM91.8 284.9h2.1v.6h-2.1v1.8h2.1v.6h-2.8v-5.3h2.8v.6h-2.1v1.8zM96.8 285.2c0-.4-.3-.6-.7-.6s-.7.2-.7.5.2.4.8.6c.5.1.7.2.9.4.2.2.3.4.3.7 0 .6-.5 1.1-1.3 1.1s-1.3-.4-1.4-1.1h.6c0 .4.3.6.8.6s.7-.2.7-.5-.2-.5-.8-.6c-.8-.2-1.2-.6-1.2-1.1s.5-1.1 1.3-1.1 1.3.4 1.3 1.1h-.6zM100.4 285.2c0-.4-.3-.6-.7-.6s-.7.2-.7.5.2.4.8.6c.5.1.7.2.9.4.2.2.3.4.3.7 0 .6-.5 1.1-1.3 1.1s-1.3-.4-1.4-1.1h.6c0 .4.3.6.8.6s.7-.2.7-.5-.2-.5-.8-.6c-.8-.2-1.2-.6-1.2-1.1s.5-1.1 1.3-1.1 1.3.4 1.3 1.1h-.6zM102.5 286.2c0 .3 0 .5.2.7.2.3.6.5 1 .5s.9-.2 1.1-.6l.5.2c-.3.6-.9 1-1.6 1-1.1 0-1.9-.8-1.9-1.9s.8-1.9 1.9-1.9 1.9.8 1.9 1.9v.2h-3.1zm2.4-.4c0-.3 0-.4-.2-.6-.2-.3-.6-.5-1-.5s-.8.2-1 .5c-.1.2-.2.3-.2.6h2.4zM107.3 284.1v.5c.3-.4.6-.6 1.1-.6s.6.1.9.3c.2.2.3.5.3 1v2.5h-.6v-2.4c0-.3 0-.5-.1-.6-.1-.2-.3-.2-.6-.2s-.5.1-.7.3c-.2.2-.2.4-.2.7v2.2h-.6v-3.7h.6zM110.8 289.1h-.4l.7-2.1.6.2-.8 1.9zM61.4 293.2v-.6l1.8-1.2v5.4h-.6v-4.4l-1.2.8zM64.8 292.2v-.6h3l-2.1 5.3H65l1.9-4.7h-2zM68.9 296.5c0 .2-.2.4-.4.4s-.4-.2-.4-.4.2-.4.4-.4.4.2.4.4zM73 296.2v.6h-3l1.9-2.7c.5-.8.7-1 .7-1.3 0-.5-.4-.8-.9-.8s-.7.2-.8.4v.6h-.6c0-1 .6-1.6 1.5-1.6s1.5.5 1.5 1.3-.2.8-.6 1.5l-1.4 2h1.9zM76.5 293.1v.5c.3-.4.6-.6 1-.6s.8.2 1 .7c.3-.5.6-.7 1.2-.7s.7.1.9.4c.2.2.2.4.2 1v2.4h-.6v-2.2c0-.4 0-.6-.1-.7-.1-.2-.4-.3-.6-.3-.5 0-.8.4-.8 1v2.2h-.6v-2.2c0-.4 0-.5-.1-.7-.1-.2-.3-.3-.6-.3-.5 0-.9.4-.9 1v2.2h-.6v-3.7h.6zM84.1 294.3v.4h-2l1.2-1.6c.3-.5.4-.6.4-.8 0-.3-.2-.4-.5-.4s-.5.2-.5.6h-.4c0-.6.4-1 1-1s1 .3 1 .8-.1.5-.4.9l-.8 1.1h1.1z"/></g><g><path d="M62.7 217.5c1.1 0 1.7.5 1.7 1.4s-.1.6-.3.9c-.1.2-.3.2-.5.3.3 0 .4.1.6.2.3.2.4.6.4 1s-.2.9-.6 1.2c-.3.2-.7.3-1.3.3h-1.5v-5.3h1.5zm-.8 2.4h.7c.4 0 .7 0 .9-.2.2-.2.3-.4.3-.7s-.2-.6-.4-.8c-.2 0-.4-.1-.9-.1h-.6v1.8zm0 2.4h.7c.6 0 .8 0 1-.2.3-.1.4-.4.4-.8 0-.6-.4-.9-1.2-.9H62v1.8zM68.5 219.1h.6v3.7h-.6v-.7c-.4.6-.8.8-1.3.8-1 0-1.7-.8-1.7-1.9s.7-1.9 1.8-1.9 1 .2 1.3.7v-.6zm-2.1.9c-.2.3-.3.6-.3 1 0 .8.5 1.4 1.2 1.4s1.3-.6 1.3-1.4-.5-1.4-1.2-1.4-.7.1-.9.4zM73.3 217.5h.6v5.3h-.6v-.6c-.4.5-.8.7-1.3.7-1 0-1.7-.8-1.7-1.9s.7-2 1.7-2 1 .2 1.3.6v-2.2zm-2.4 3.5c0 .8.5 1.4 1.2 1.4s1.2-.6 1.2-1.4-.5-1.4-1.2-1.4-1.2.6-1.2 1.4zM61.1 227.1v-.6h3l-1.6 2c.9 0 1.6.7 1.6 1.6s-.8 1.7-1.8 1.7-1.4-.5-1.6-1.3h.6c.1.4.5.7 1 .7s1.2-.5 1.2-1.1-.5-1.1-1.2-1.1-.4 0-.6.2l-.3-.2 1.5-1.9H61zM66 231.4c0 .2-.2.4-.4.4s-.4-.2-.4-.4.2-.4.4-.4.4.2.4.4zM70 229.2c.3.3.4.6.4 1 0 .9-.7 1.6-1.7 1.6s-1.6-.6-1.6-1.6.1-.8.4-1.1c.2-.2.3-.3.6-.4-.3 0-.4-.2-.5-.4-.2-.2-.3-.5-.3-.8 0-.8.6-1.3 1.5-1.3s1.4.6 1.4 1.3-.1.6-.3.8c-.1.2-.3.2-.5.3.3 0 .4.2.6.3zm-2.3 1c0 .6.5 1 1 1s1-.5 1-1-.5-1-1-1-1 .5-1 1zm.2-2.5c0 .5.4.8.8.8s.9-.4.9-.8-.4-.8-.8-.8-.9.3-.9.8zM74.5 228.1v.5c.3-.4.6-.6 1-.6s.8.2 1 .7c.3-.5.6-.7 1.2-.7s.7.1.9.4c.2.2.2.4.2 1v2.4h-.6v-2.2c0-.4 0-.6-.1-.7-.1-.2-.4-.3-.6-.3-.5 0-.8.4-.8 1v2.2h-.6v-2.2c0-.4 0-.5-.1-.7-.1-.2-.3-.3-.6-.3-.5 0-.9.4-.9 1v2.2h-.6v-3.7h.6zM82.1 229.3v.4h-2l1.2-1.6c.3-.5.4-.6.4-.8 0-.3-.2-.4-.5-.4s-.5.2-.5.6h-.4c0-.6.4-1 1-1s1 .3 1 .8-.1.5-.4.9l-.8 1.1h1.1z"/></g><g><path d="M312.9 237.2v.6h-2.5v-5.3h.7v4.7h1.9zM314.5 233.1c0 .2-.2.4-.4.4s-.4-.2-.4-.4.2-.4.4-.4.4.2.4.4zm0 4.7h-.6v-3.7h.6v3.7zM316.5 237.8h-.6v-3.2h-.5v-.5h.5v-.5c0-.7.4-1.2 1-1.2h.2v.5c-.4 0-.6.2-.6.6v.5h.6v.5h-.6v3.2zM318.9 237c0 .2 0 .2.3.2h.3v.5h-.6c-.4 0-.6-.2-.6-.6v-2.6h-.5v-.5h.5v-1.2h.6v1.2h.6v.5h-.6v2.4z"/></g></g></svg>