<svg xmlns="http://www.w3.org/2000/svg" viewBox="0 0 679.7 311.8"><defs><style>.cls-1,.cls-10,.cls-11,.cls-12,.cls-13,.cls-14,.cls-15,.cls-16,.cls-17,.cls-18,.cls-19,.cls-2,.cls-20,.cls-21,.cls-22,.cls-23,.cls-24,.cls-25,.cls-26,.cls-27,.cls-28,.cls-29,.cls-3,.cls-4,.cls-5,.cls-6,.cls-7,.cls-8,.cls-9{fill:none}.cls-11,.cls-12,.cls-13,.cls-14,.cls-15,.cls-16,.cls-17,.cls-18,.cls-19,.cls-2,.cls-20,.cls-21,.cls-22,.cls-23,.cls-24,.cls-25,.cls-26,.cls-27,.cls-28,.cls-29,.cls-3,.cls-4,.cls-5,.cls-6,.cls-7,.cls-8,.cls-9{stroke-linecap:round;stroke-linejoin:round}.cls-12,.cls-13,.cls-14,.cls-15,.cls-16,.cls-17,.cls-18,.cls-19,.cls-2,.cls-20,.cls-21,.cls-22,.cls-23,.cls-24,.cls-25,.cls-26,.cls-28,.cls-29,.cls-3,.cls-4,.cls-5,.cls-6,.cls-7,.cls-8{stroke-width:.1px}.cls-12,.cls-13,.cls-14,.cls-2,.cls-22,.cls-23,.cls-24,.cls-26,.cls-27,.cls-28,.cls-4,.cls-5,.cls-8{stroke:#194164}.cls-12,.cls-13,.cls-14,.cls-2,.cls-22,.cls-24,.cls-8{stroke-dasharray:0 0 0 0 2.9 1.4 .2 1.4}.cls-3{stroke:#646464}.cls-15,.cls-16,.cls-17,.cls-18,.cls-19,.cls-20,.cls-21,.cls-23,.cls-28,.cls-29,.cls-4,.cls-5,.cls-6,.cls-7{stroke-dasharray:0 0 1.4 1.4}.cls-30{clip-path:url(#clippath)}.cls-22,.cls-5{stroke-dashoffset:1px}.cls-6{stroke-dashoffset:2.5px}.cls-15,.cls-16,.cls-17,.cls-18,.cls-19,.cls-20,.cls-21,.cls-25,.cls-29,.cls-6,.cls-7{stroke:#969696}.cls-31,.cls-32{fill:#fff}.cls-8{stroke-dashoffset:1.4px}.cls-9{stroke:#000;stroke-width:.3px}.cls-10{clip-rule:evenodd}.cls-11{stroke:#bbb;stroke-width:.1px}.cls-33{clip-path:url(#clippath-1)}.cls-34{clip-path:url(#clippath-4)}.cls-35{clip-path:url(#clippath-3)}.cls-36{clip-path:url(#clippath-2)}.cls-12{stroke-dashoffset:4.3px}.cls-13,.cls-19{stroke-dashoffset:2.6px}.cls-14{stroke-dashoffset:1.2px}.cls-15{stroke-dashoffset:1.1px}.cls-16{stroke-dashoffset:2.4px}.cls-17{stroke-dashoffset:2.7px}.cls-18{stroke-dashoffset:2.5px}.cls-20{stroke-dashoffset:1.4px}.cls-21,.cls-24,.cls-28{stroke-dashoffset:.7px}.cls-32,.cls-37{fill-rule:evenodd}.cls-23{stroke-dashoffset:.2px}.cls-27{stroke-width:.3px}.cls-29{stroke-dashoffset:1.2px}</style><clipPath id="clippath"><path class="cls-1" d="M105.7 0h574v311.8h-574z"/></clipPath><clipPath id="clippath-1"><path class="cls-10" d="M.1.7l7 7.2h226.1l6.9-7.2H.1"/></clipPath><clipPath id="clippath-2"><path class="cls-10" d="M.1.7l7 7.2h226.1l6.9-7.2H.1"/></clipPath><clipPath id="clippath-3"><path class="cls-10" d="M7.1 109.4l-7 7h98.2l7-7H7.1"/></clipPath><clipPath id="clippath-4"><path class="cls-10" d="M7.1 109.4l-7 7h98.2l7-7H7.1"/></clipPath></defs><g class="cls-30" id="Plan"><path class="cls-27" d="M157.8 59.3h29.8v39.6h-29.8z"/><path class="cls-26" d="M189.3 108h-35.6M171 104.9h13.9M158.3 102h13.9M189.3 50.4h-35.6M171 53.3h13.9M158.3 56.4h13.9"/><path class="cls-32" d="M358.5 115.2v3.8h-14.2v-3.8h14.2"/><path class="cls-25" d="M358.7 118.8l-3.6-3.6M354.9 119l-3.9-3.8M350.8 119l-3.9-3.8M346.7 119l-2.2-2.4M357.3 119l1.4-1.4M353.2 119l3.8-3.8M349.1 119l3.8-3.8M345.3 119l3.8-3.8M344.5 115.7l.5-.5"/><path class="cls-32" d="M358.5 119v-3.8h-14.2v3.8h14.2"/><path class="cls-25" d="M358.7 118.8l-3.6-3.6M354.9 119l-3.9-3.8M350.8 119l-3.9-3.8M346.7 119l-2.2-2.4M357.3 119l1.4-1.4M353.2 119l3.8-3.8M349.1 119l3.8-3.8M345.3 119l3.8-3.8M344.5 115.7l.5-.5"/><path class="cls-27" d="M358.5 115.2h-14.2M358.5 119h-14.2M344.3 115.2v3.8M358.5 119h-14.2M358.5 115.2h-14.2"/><path class="cls-26" d="M358.5 121.7h-14.2"/><path class="cls-9" d="M358.5 122.4h-14.2"/><path class="cls-26" d="M358.5 120.2h-14.2M358.5 121.7h-14.2M358.5 122.4h-14.2M358.5 120.2h-14.2"/><path class="cls-25" d="M571.3 213.8h28.3v10.8h-28.3z"/><path class="cls-32" d="M240.1.7l-4.8 4.8h4.8V.7"/><path class="cls-25" d="M240.4 4.5l-1.9-1.9M237.3 5.5l-1-1M238.2 5.5l2.2-1.9"/><path class="cls-32" d="M240.1.7l-4.8 4.8h4.8V.7"/><path class="cls-25" d="M240.4 4.5l-1.9-1.9M237.3 5.5l-1-1M238.2 5.5l2.2-1.9"/><path class="cls-27" d="M240.1 5.5V.7M240.1 5.5V.7"/><path class="cls-32" d="M233.2 41.3V65l6.9-7.2V41.3h-6.9"/><path class="cls-25" d="M240.4 44.6l-3.4-3.3M240.4 48.5l-7-7M240.4 52.5l-7-6.9M240.4 56.6l-7-6.9M238.9 59.3l-5.5-5.8M237 61.2l-3.6-3.6M234.9 63.3l-1.5-1.6M233.4 62.6l7-6.9M233.4 58.5l7-6.9M233.4 54.5l7-7M233.4 50.6l7-6.9M233.4 46.5l5.1-5.2M233.4 42.5l1.2-1.2"/><path class="cls-32" d="M233.2 41.3V65l6.9-7.2V41.3h-6.9"/><path class="cls-25" d="M240.4 44.6l-3.4-3.3M240.4 48.5l-7-7M240.4 52.5l-7-6.9M240.4 56.6l-7-6.9M238.9 59.3l-5.5-5.8M237 61.2l-3.6-3.6M234.9 63.3l-1.5-1.6M233.4 62.6l7-6.9M233.4 58.5l7-6.9M233.4 54.5l7-7M233.4 50.6l7-6.9M233.4 46.5l5.1-5.2M233.4 42.5l1.2-1.2"/><path class="cls-27" d="M240.1 57.8V41.3M233.2 41.5v-.2M233.2 65V48.7M233.2 41.5v-.2M240.1 57.8V41.3M233.2 65V48.7"/><path class="cls-26" d="M239.2 35.3h1.7v6h-1.7zM239.2 5.5h1.7v2.6h-1.7zM239.2 8.1h1.7v27.1h-1.7zM239.2 35.3V8.1"/><path class="cls-2" d="M233.2 35.5V7.9"/><path class="cls-26" d="M233.2 8.4v-.5"/><path class="cls-32" d="M233.2 41.3v-5.8h6v5.8"/><path class="cls-25" d="M239.4 35.5h-.2M239.4 39.6l-4.1-4.1M237 41.3l-3.6-3.6M238.5 41.3l.9-.8M234.6 41.3l4.8-4.8M233.4 38.4l2.9-2.9"/><path class="cls-32" d="M233.2 5.5v2.4h6V5.5"/><path class="cls-25" d="M239.4 7.4l-2.1-1.9M235.6 7.9l-2.2-2.4M235.8 7.9l2.4-2.4M233.4 6.5l.7-1"/><path class="cls-27" d="M233.2 35.5h6M233.2 7.9h6M233.2 35.5h6M233.2 41.3v-5.8M233.2 7.9h6M233.2 5.5v2.4M240.1 41.3h-.9M240.1 5.5h-.9M233.2 41.3v-5.8M233.2 5.5v2.4M239.2 35.5v5.8M239.2 7.9V5.5"/><path class="cls-26" d="M233.4 72.7V65"/><path class="cls-9" d="M232.7 73.4V65"/><path class="cls-26" d="M234.9 71.3V65M233.4 72.7V65M232.7 73.4V65M234.9 71.3V65M301.8 65v7.7"/><path class="cls-9" d="M302.5 65v8.4"/><path class="cls-26" d="M300.4 65v6.3M301.8 65v7.7M302.5 65v8.4M300.4 65v6.3M301.8 72.7h-68.4"/><path class="cls-9" d="M302.5 73.4h-69.8"/><path class="cls-26" d="M300.4 71.3h-65.5M301.8 72.7h-68.4M302.5 73.4h-69.8M300.4 71.3h-65.5M365.9 67.9h-21.6"/><path class="cls-9" d="M365.9 68.6h-21.6"/><path class="cls-26" d="M365.9 66.5h-21.6M365.9 67.9h-21.6"/><path class="cls-9" d="M344.3 67.9v.7"/><path class="cls-26" d="M344.3 66.5v1.4M365.9 68.6h-21.6M365.9 66.5h-21.6"/><path class="cls-9" d="M365.9 67.9v.7"/><path class="cls-26" d="M365.9 66.5v1.4"/><path class="cls-37" d="M119.2 226.1v14.6H94.9v-14.6h24.3"/><path class="cls-26" d="M95.2 240.7h24.2"/><path class="cls-32" d="M119.2 240.7v-3.4H94.9v3.4h24.3"/><path class="cls-25" d="M95.2 240l.5.7M96.4 237.3l3.3 3.4M100.2 237.3l3.4 3.4M104.3 237.3l3.4 3.4M108.4 237.3l3.3 3.4M112.5 237.3l3.3 3.4M116.3 237.3l3.1 2.9"/><path class="cls-32" d="M119.2 237.3v-.7H94.9v.7h24.3M119.2 236.6v-5.5H94.9v5.5h24.3"/><path class="cls-25" d="M96.4 231.1v5.5M97.8 231.1v5.5M99.3 231.1v5.5M100.7 231.1v5.5M102.1 231.1v5.5M103.6 231.1v5.5M105 231.1v5.5M106.5 231.1v5.5M107.7 231.1v5.5M109.1 231.1v5.5M110.5 231.1v5.5M112 231.1v5.5M113.4 231.1v5.5M114.9 231.1v5.5M116.3 231.1v5.5M117.7 231.1v5.5M119.2 231.1v5.5"/><path class="cls-32" d="M119.2 231.1v-5H94.9v5h24.3"/><path class="cls-25" d="M119.4 228.2l-2.4-2.1M118.2 231.1l-5-5M114.1 231.1l-5-5M110.1 231.1l-5.1-5M106.2 231.1l-5-5M102.1 231.1l-5-5M98.1 231.1l-2.9-3.1M116.8 231.1l2.6-2.4M112.9 231.1l5.1-5M108.9 231.1l5-5M104.8 231.1l5-5M100.7 231.1l5-5M96.9 231.1l5-5M95.2 228.9l2.6-2.8"/><path class="cls-27" d="M119.2 237.3H94.9M119.2 240.7H94.9"/><path class="cls-25" d="M119.2 231.1H94.9M119.2 236.6H94.9"/><path class="cls-27" d="M119.2 226.1H94.9M119.2 231.1H94.9"/><path class="cls-26" d="M119.2 240.7H94.9M98.3 226.1h-3.4M119.2 226.1h-13.9"/><path class="cls-37" d="M231.5 226.1v14.6h-53v-14.6h53"/><path class="cls-26" d="M178.7 240.7h53"/><path class="cls-32" d="M231.5 240.7v-3.4h-53v3.4h53"/><path class="cls-25" d="M178.7 239.5l1.2 1.2M180.6 237.3l3.4 3.4M184.5 237.3l3.3 3.4M188.5 237.3l3.4 3.4M192.6 237.3l3.4 3.4M196.5 237.3l3.3 3.4M200.5 237.3l3.4 3.4M204.6 237.3l3.4 3.4M208.5 237.3l3.3 3.4M212.5 237.3l3.4 3.4M216.6 237.3l3.4 3.4M220.7 237.3l3.4 3.4M224.5 237.3l3.4 3.4M228.6 237.3l3.1 3.2"/><path class="cls-32" d="M231.5 237.3v-.7h-53v.7h53M231.5 236.6v-5.5h-53v5.5h53"/><path class="cls-25" d="M178.7 231.1v5.5M180.1 231.1v5.5M181.6 231.1v5.5M182.8 231.1v5.5M184.2 231.1v5.5M185.7 231.1v5.5M187.1 231.1v5.5M188.5 231.1v5.5M190 231.1v5.5M191.4 231.1v5.5M192.9 231.1v5.5M194.3 231.1v5.5M195.7 231.1v5.5M196.9 231.1v5.5M198.4 231.1v5.5M199.8 231.1v5.5M201.3 231.1v5.5M202.7 231.1v5.5M204.1 231.1v5.5M205.6 231.1v5.5M207 231.1v5.5M208.5 231.1v5.5M209.9 231.1v5.5M211.3 231.1v5.5M212.5 231.1v5.5M214 231.1v5.5M215.4 231.1v5.5M216.9 231.1v5.5M218.3 231.1v5.5M219.7 231.1v5.5M221.2 231.1v5.5M222.6 231.1v5.5M224.1 231.1v5.5M225.5 231.1v5.5M226.9 231.1v5.5M228.1 231.1v5.5M229.6 231.1v5.5M231 231.1v5.5"/><path class="cls-32" d="M231.5 231.1v-5h-53v5h53"/><path class="cls-25" d="M231.7 228.2l-2.4-2.1M230.3 231.1l-5-5M226.5 231.1l-5.1-5M222.4 231.1l-5.1-5M218.3 231.1l-5-5M214.5 231.1l-5.1-5M210.4 231.1l-5.1-5M206.3 231.1l-5-5M202.2 231.1l-5-5M198.4 231.1l-5.1-5M194.3 231.1l-5-5M190.2 231.1l-5-5M186.4 231.1l-5.1-5M182.3 231.1l-3.6-3.6M229.1 231.1l2.6-2.6M225 231.1l5.1-5M221.2 231.1l5-5M217.1 231.1l5-5M213 231.1l5.1-5M208.9 231.1l5.1-5M205.1 231.1l5-5M201 231.1l5.1-5M196.9 231.1l5.1-5M193.1 231.1l5-5M189 231.1l5.1-5M184.9 231.1l5.1-5M181.1 231.1l5-5M178.7 229.4l3.4-3.3"/><path class="cls-27" d="M231.5 237.3h-53M231.5 240.7h-53"/><path class="cls-25" d="M231.5 231.1h-53M231.5 236.6h-53"/><path class="cls-27" d="M231.5 226.1h-53M231.5 231.1h-53"/><path class="cls-26" d="M231.5 240.7h-53M231.5 226.1h-53"/><path class="cls-37" d="M334.7 226.1v14.6h-62.4v-14.6h62.4"/><path class="cls-26" d="M272.5 240.7h62.4"/><path class="cls-32" d="M334.7 240.7v-3.4h-62.4v3.4h62.4"/><path class="cls-25" d="M272.8 237.3l3.3 3.4M276.6 237.3l3.4 3.4M280.7 237.3l3.4 3.4M284.8 237.3l3.3 3.4M288.9 237.3l3.3 3.4M292.7 237.3l3.4 3.4M296.8 237.3l3.3 3.4M300.9 237.3l3.3 3.4M304.7 237.3l3.4 3.4M308.8 237.3l3.3 3.4M312.9 237.3l3.3 3.4M316.7 237.3l3.4 3.4M320.8 237.3l3.3 3.4M324.9 237.3l3.3 3.4M328.9 237.3l3.4 3.4M332.8 237.3l2.1 2"/><path class="cls-32" d="M334.7 237.3v-.7h-62.4v.7h62.4M334.7 236.6v-5.5h-62.4v5.5h62.4"/><path class="cls-25" d="M273.5 231.1v5.5M274.9 231.1v5.5M276.4 231.1v5.5M277.8 231.1v5.5M279.3 231.1v5.5M280.7 231.1v5.5M282.1 231.1v5.5M283.6 231.1v5.5M285 231.1v5.5M286.5 231.1v5.5M287.7 231.1v5.5M289.1 231.1v5.5M290.5 231.1v5.5M292 231.1v5.5M293.4 231.1v5.5M294.9 231.1v5.5M296.3 231.1v5.5M297.7 231.1v5.5M299.2 231.1v5.5M300.6 231.1v5.5M301.8 231.1v5.5M303.3 231.1v5.5M304.7 231.1v5.5M306.1 231.1v5.5M307.6 231.1v5.5M309 231.1v5.5M310.5 231.1v5.5M311.9 231.1v5.5M313.3 231.1v5.5M314.8 231.1v5.5M316.2 231.1v5.5M317.4 231.1v5.5M318.9 231.1v5.5M320.3 231.1v5.5M321.7 231.1v5.5M323.2 231.1v5.5M324.6 231.1v5.5M326.1 231.1v5.5M327.5 231.1v5.5M328.9 231.1v5.5M330.4 231.1v5.5M331.8 231.1v5.5M333 231.1v5.5M334.5 231.1v5.5"/><path class="cls-32" d="M334.7 231.1v-5h-62.4v5h62.4"/><path class="cls-25" d="M334.9 227.3l-1.4-1.2M334.7 231.1l-5-5M330.6 231.1l-5-5M326.5 231.1l-5-5M322.7 231.1l-5-5M318.6 231.1l-5-5M314.5 231.1l-5-5M310.5 231.1l-5.1-5M306.6 231.1l-5-5M302.5 231.1l-5-5M298.5 231.1l-5.1-5M294.6 231.1l-5-5M290.5 231.1l-5-5M286.5 231.1l-5.1-5M282.6 231.1l-5-5M278.5 231.1l-5-5M274.5 231.1l-2-2.2M333.3 231.1l1.6-1.4M329.4 231.1l5.1-5M325.3 231.1l5.1-5M321.3 231.1l5-5M317.2 231.1l5-5M313.3 231.1l5.1-5M309.3 231.1l5-5M305.2 231.1l5-5M301.3 231.1l5.1-5M297.3 231.1l5-5M293.2 231.1l5-5M289.3 231.1l5.1-5M285.3 231.1l5-5M281.2 231.1l5-5M277.1 231.1l5-5M273.3 231.1l5-5M272.5 228l1.7-1.9"/><path class="cls-27" d="M334.7 237.3h-62.4M334.7 240.7h-62.4"/><path class="cls-25" d="M334.7 231.1h-62.4M334.7 236.6h-62.4"/><path class="cls-27" d="M334.7 226.1h-62.4M334.7 231.1h-62.4"/><path class="cls-26" d="M334.7 240.7h-62.4M334.7 226.1h-62.4M270.6 233.3v7.4h3.4v1.9h-43.9v-1.9h3.3v-7.4"/><path class="cls-2" d="M272.3 226.1h-40.8"/><path class="cls-26" d="M232 226.1h-.5"/><path class="cls-27" d="M270.6 240.7h3.4M233.4 240.7h-3.3"/><path class="cls-26" d="M231.5 231.1h40.8v2.2h-40.8zM268.7 233.3v-2.2M235.3 233.3v-2.2M272.3 231.1v2.2M254.1 231.1v2.2M268.7 231.1v2.2M250 231.1v2.2M254.1 231.1v2.2M235.3 231.1v2.2M250 231.1v2.2M231.5 231.1v2.2"/><path class="cls-32" d="M272.4 236.7h-1.9v-3.4h1.9"/><path class="cls-25" d="M270.9 233.3v3.3M272.1 233.3v3.3M272.4 236.7h-1.9v-3.4h1.9"/><path class="cls-27" d="M272.3 231.1v-5"/><path class="cls-32" d="M272.3 240.7h-1.7v-3.4h1.7"/><path class="cls-25" d="M270.9 239.5l1.2 1.2"/><path class="cls-27" d="M272.3 240.7h-1.7v-3.4h1.7M270.6 237.3v-4"/><path class="cls-32" d="M231.6 236.7h1.8v-3.4h-1.8"/><path class="cls-25" d="M232.5 233.3v3.3M231.6 236.7h1.8v-3.4h-1.8"/><path class="cls-27" d="M231.5 231.1v-5"/><path class="cls-32" d="M231.5 240.7h1.9v-3.4h-1.9"/><path class="cls-25" d="M231.7 240.5l.3.2M232.7 237.3l1 1"/><path class="cls-27" d="M231.5 240.7h1.9v-3.4h-1.9M233.4 237.3v-4"/><path class="cls-2" d="M177.7 231.1v-5"/><path class="cls-26" d="M177.7 226.5v-.4"/><path class="cls-2" d="M177.7 226.1h-57.8"/><path class="cls-26" d="M120.4 226.1h-.5"/><path class="cls-12" d="M119.9 226.1v5"/><path class="cls-26" d="M119.9 230.6v.5"/><path class="cls-2" d="M178.5 233.3v7.4"/><path class="cls-8" d="M178.5 240.7h3.3"/><path class="cls-26" d="M181.8 241.9v.7"/><path class="cls-24" d="M181.8 242.6h-66"/><path class="cls-26" d="M115.8 242.6v-1.9"/><path class="cls-13" d="M115.8 240.7h3.4"/><path class="cls-2" d="M119.2 240.7v-7.4"/><path class="cls-27" d="M178.5 240.7h3.3M119.2 240.7h-3.4"/><path class="cls-26" d="M119.2 231.1h59.3v2.2h-59.3zM174.6 233.3v-2.2M122.8 233.3v-2.2M178.5 231.1v2.2M150.9 231.1v2.2M174.6 231.1v2.2M146.8 231.1v2.2M150.9 231.1v2.2M122.8 231.1v2.2M146.8 231.1v2.2M119.2 231.1v2.2"/><path class="cls-27" d="M178.5 240.7v-3.4M178.5 237.3v-4"/><path class="cls-32" d="M178.5 226.1h-.8v5h.8"/><path class="cls-25" d="M178.7 227.5l-.7-.7M178.2 231.1l-.2-.5M178 230.1l.7-.7M178 226.3v-.2"/><path class="cls-27" d="M178.5 226.1h-.8v5h.8M119.2 240.7v-3.4M119.2 237.3v-4"/><path class="cls-32" d="M119.2 226.1h.7v5h-.7"/><path class="cls-25" d="M120.1 228.9l-.7-.7M119.4 228.7l.7-.7"/><path class="cls-27" d="M119.2 226.1h.7v5h-.7"/><path class="cls-37" d="M430.5 226.1v14.6h-55v-14.6h55"/><path class="cls-26" d="M375.7 240.7h55"/><path class="cls-32" d="M430.5 240.7v-3.4h-55v3.4h55"/><path class="cls-25" d="M375.7 240l.5.7M376.9 237.3l3.4 3.4M381 237.3l3.4 3.4M384.9 237.3l3.3 3.4M388.9 237.3l3.4 3.4M393 237.3l3.4 3.4M397.1 237.3l3.4 3.4M400.9 237.3l3.4 3.4M405 237.3l3.4 3.4M409.1 237.3l3.4 3.4M412.9 237.3l3.4 3.4M417 237.3l3.4 3.4M421.1 237.3l3.4 3.4M424.9 237.3l3.4 3.4M429 237.3l1.7 1.5"/><path class="cls-32" d="M430.5 237.3v-.7h-55v.7h55M430.5 236.6v-5.5h-55v5.5h55"/><path class="cls-25" d="M375.7 231.1v5.5M376.9 231.1v5.5M378.4 231.1v5.5M379.8 231.1v5.5M381.3 231.1v5.5M382.7 231.1v5.5M384.1 231.1v5.5M385.6 231.1v5.5M387 231.1v5.5M388.5 231.1v5.5M389.9 231.1v5.5M391.3 231.1v5.5M392.5 231.1v5.5M394 231.1v5.5M395.4 231.1v5.5M396.9 231.1v5.5M398.3 231.1v5.5M399.7 231.1v5.5M401.2 231.1v5.5M402.6 231.1v5.5M404.1 231.1v5.5M405.5 231.1v5.5M406.9 231.1v5.5M408.1 231.1v5.5M409.6 231.1v5.5M411 231.1v5.5M412.5 231.1v5.5M413.9 231.1v5.5M415.3 231.1v5.5M416.8 231.1v5.5M418.2 231.1v5.5M419.7 231.1v5.5M421.1 231.1v5.5M422.3 231.1v5.5M423.7 231.1v5.5M425.2 231.1v5.5M426.6 231.1v5.5M428.1 231.1v5.5M429.5 231.1v5.5"/><path class="cls-32" d="M430.5 231.1v-5h-55v5h55"/><path class="cls-25" d="M375.7 228l2.9 3.1M377.7 226.1l5 5M381.7 226.1l5.1 5M385.8 226.1l5.1 5M389.7 226.1l5 5M393.7 226.1l5.1 5M397.8 226.1l5.1 5M401.7 226.1l5 5M405.7 226.1l5.1 5M409.8 226.1l5.1 5M413.7 226.1l5 5M417.7 226.1l5.1 5M421.8 226.1l5.1 5M425.9 226.1l4.8 4.8M429.7 226.1l1 .7"/><path class="cls-27" d="M430.5 237.3h-55M430.5 240.7h-55"/><path class="cls-25" d="M430.5 231.1h-55M430.5 236.6h-55"/><path class="cls-27" d="M430.5 226.1h-55M430.5 231.1h-55"/><path class="cls-26" d="M430.5 240.7h-55M430.5 226.1h-55"/><path class="cls-37" d="M526.5 226.1v14.6h-55.2v-14.6h55.2"/><path class="cls-26" d="M471.5 240.7h55.2"/><path class="cls-32" d="M526.5 240.7v-3.4h-55.2v3.4h55.2"/><path class="cls-25" d="M471.5 239.5l1 1.2M473.2 237.3l3.3 3.4M477.3 237.3l3.3 3.4M481.1 237.3l3.4 3.4M485.2 237.3l3.3 3.4M489.3 237.3l3.3 3.4M493.1 237.3l3.4 3.4M497.2 237.3l3.3 3.4M501.3 237.3l3.3 3.4M505.1 237.3l3.4 3.4M509.2 237.3l3.3 3.4M513.3 237.3l3.3 3.4M517.3 237.3l3.4 3.4M521.2 237.3l3.3 3.4M525.3 237.3l1.4 1.2"/><path class="cls-32" d="M526.5 237.3v-.7h-55.2v.7h55.2M526.5 236.6v-5.5h-55.2v5.5h55.2"/><path class="cls-25" d="M472 231.1v5.5M473.4 231.1v5.5M474.9 231.1v5.5M476.3 231.1v5.5M477.7 231.1v5.5M479.2 231.1v5.5M480.6 231.1v5.5M481.8 231.1v5.5M483.3 231.1v5.5M484.7 231.1v5.5M486.1 231.1v5.5M487.6 231.1v5.5M489 231.1v5.5M490.5 231.1v5.5M491.9 231.1v5.5M493.3 231.1v5.5M494.8 231.1v5.5M496.2 231.1v5.5M497.4 231.1v5.5M498.9 231.1v5.5M500.3 231.1v5.5M501.7 231.1v5.5M503.2 231.1v5.5M504.6 231.1v5.5M506.1 231.1v5.5M507.5 231.1v5.5M508.9 231.1v5.5M510.4 231.1v5.5M511.8 231.1v5.5M513 231.1v5.5M514.5 231.1v5.5M515.9 231.1v5.5M517.3 231.1v5.5M518.8 231.1v5.5M520.2 231.1v5.5M521.7 231.1v5.5M523.1 231.1v5.5M524.5 231.1v5.5M526 231.1v5.5"/><path class="cls-32" d="M526.5 231.1v-5h-55.2v5h55.2"/><path class="cls-25" d="M471.5 227.5l3.4 3.6M473.9 226.1l5 5M478 226.1l5 5M481.8 226.1l5.1 5M485.9 226.1l5 5M490 226.1l5 5M493.8 226.1l5.1 5M497.9 226.1l5 5M502 226.1l5 5M506.1 226.1l5 5M509.9 226.1l5 5M514 226.1l5 5M518.1 226.1l5 5M521.9 226.1l4.8 4.5M526 226.1l.7.4"/><path class="cls-27" d="M526.5 237.3h-55.2M526.5 240.7h-55.2"/><path class="cls-25" d="M526.5 231.1h-55.2M526.5 236.6h-55.2"/><path class="cls-27" d="M526.5 226.1h-55.2M526.5 231.1h-55.2"/><path class="cls-26" d="M526.5 240.7h-55.2M526.5 226.1h-55.2"/><path class="cls-37" d="M567.3 240.7h49.2l-10.1-9.6h-5.5l-.3-5h-33.3v14.6"/><path class="cls-26" d="M567.5 240.7h49"/><path class="cls-32" d="M567.3 240.7h49.2l-3.6-3.4h-45.6v3.4"/><path class="cls-25" d="M567.5 239.3l1.2 1.4M569.4 237.3l3.4 3.4M573.3 237.3l3.3 3.4M577.3 237.3l3.4 3.4M581.4 237.3l3.4 3.4M585.5 237.3l3.4 3.4M589.3 237.3l3.4 3.4M593.4 237.3l3.4 3.4M597.5 237.3l3.4 3.4M601.3 237.3l3.4 3.4M605.4 237.3l3.4 3.4M609.5 237.3l3.4 3.4"/><path class="cls-32" d="M567.3 237.3h45.6l-.5-.7h-45.1v.7M567.3 236.6h45.1l-6-5.5h-39.1v5.5"/><path class="cls-25" d="M568.5 231.1v5.5M569.9 231.1v5.5M571.3 231.1v5.5M572.5 231.1v5.5M574 231.1v5.5M575.4 231.1v5.5M576.9 231.1v5.5M578.3 231.1v5.5M579.7 231.1v5.5M581.2 231.1v5.5M582.6 231.1v5.5M584.1 231.1v5.5M585.5 231.1v5.5M586.9 231.1v5.5M588.1 231.1v5.5M589.6 231.1v5.5M591 231.1v5.5M592.5 231.1v5.5M593.9 231.1v5.5M595.3 231.1v5.5M596.8 231.1v5.5M598.2 231.1v5.5M599.7 231.1v5.5M601.1 231.1v5.5M602.3 231.1v5.5M603.7 231.1v5.5M605.2 231.1v5.5M606.6 231.3v5.3M608.1 232.5v4.1M609.5 233.7v2.9M610.9 235.2v1.4M612.4 236.4v.2"/><path class="cls-32" d="M567.3 231.1h33.6l-.3-5h-33.3v5"/><path class="cls-25" d="M567.5 227.3l3.6 3.8M570.1 226.1l5.1 5M574.2 226.1l5.1 5M578.1 226.1l5 5M582.1 226.1l5.1 5M586.2 226.1l5.1 5M590.1 226.1l5 5M594.1 226.1l5.1 5M598.2 226.1l2.7 2.6"/><path class="cls-27" d="M612.9 237.3h-45.6M616.5 240.7h-49.2"/><path class="cls-25" d="M600.9 231.1h-33.6M612.4 236.6h-45.1"/><path class="cls-27" d="M600.6 226.1h-33.3M600.9 231.1h-33.6"/><path class="cls-26" d="M616.5 240.7h-49.2M600.6 226.1h-33.3"/><path class="cls-25" d="M606.4 231.1h-5.5"/><path class="cls-27" d="M600.9 231.1l-.3-5"/><path class="cls-26" d="M565.3 233.3v7.4h3.4v1.9h-43.9v-1.9h3.3v-7.4"/><path class="cls-2" d="M567.3 226.1h-40.8"/><path class="cls-26" d="M526.9 226.1h-.4"/><path class="cls-27" d="M565.3 240.7h3.4M528.1 240.7h-3.3"/><path class="cls-26" d="M526.5 231.1h40.8v2.2h-40.8zM563.4 233.3v-2.2M530.1 233.3v-2.2M567.3 231.1v2.2M548.8 231.1v2.2M563.4 231.1v2.2M544.7 231.1v2.2M548.8 231.1v2.2M530.1 231.1v2.2M544.7 231.1v2.2M526.5 231.1v2.2"/><path class="cls-32" d="M567.2 236.7h-1.9v-3.4h1.9"/><path class="cls-25" d="M565.6 233.3v3.3M567 233.3v3.3M567.2 236.7h-1.9v-3.4h1.9"/><path class="cls-27" d="M567.3 231.1v-5"/><path class="cls-32" d="M567.3 240.7h-2v-3.4h2"/><path class="cls-25" d="M565.6 237.3l1.9 2"/><path class="cls-27" d="M567.3 240.7h-2v-3.4h2M565.3 237.3v-4"/><path class="cls-32" d="M526.4 236.7h1.8v-3.4h-1.8"/><path class="cls-25" d="M527.2 233.3v3.3M526.4 236.7h1.8v-3.4h-1.8"/><path class="cls-27" d="M526.5 231.1v-5"/><path class="cls-32" d="M526.5 240.7h1.6v-3.4h-1.6"/><path class="cls-25" d="M526.7 238.5l1.7 1.7"/><path class="cls-27" d="M526.5 240.7h1.6v-3.4h-1.6M528.1 237.3v-4"/><path class="cls-26" d="M469.6 233.3v7.4h3.3v1.9H429v-1.9h3.4v-7.4"/><path class="cls-2" d="M471.3 226.1h-40.8"/><path class="cls-26" d="M430.9 226.1h-.4"/><path class="cls-27" d="M469.6 240.7h3.3M432.4 240.7H429"/><path class="cls-26" d="M430.5 231.1h40.8v2.2h-40.8zM467.7 233.3v-2.2M434.3 233.3v-2.2M471.3 231.1v2.2M453 231.1v2.2M467.7 231.1v2.2M448.9 231.1v2.2M453 231.1v2.2M434.3 231.1v2.2M448.9 231.1v2.2M430.5 231.1v2.2"/><path class="cls-32" d="M471.4 236.7h-1.9v-3.4h1.9"/><path class="cls-25" d="M470.5 233.3v3.3M471.4 236.7h-1.9v-3.4h1.9"/><path class="cls-27" d="M471.3 231.1v-5"/><path class="cls-32" d="M471.3 240.7h-1.7v-3.4h1.7"/><path class="cls-25" d="M469.8 237.8l1.7 1.7"/><path class="cls-27" d="M471.3 240.7h-1.7v-3.4h1.7M469.6 237.3v-4"/><path class="cls-32" d="M430.6 236.7h1.8v-3.4h-1.8"/><path class="cls-25" d="M430.9 233.3v3.3M432.4 233.3v3.3M430.6 236.7h1.8v-3.4h-1.8"/><path class="cls-27" d="M430.5 231.1v-5"/><path class="cls-32" d="M430.5 240.7h1.9v-3.4h-1.9"/><path class="cls-25" d="M430.7 238.8l1.7 1.9"/><path class="cls-27" d="M430.5 240.7h1.9v-3.4h-1.9M432.4 237.3v-4"/><path class="cls-26" d="M373.8 233.3v7.4h3.4v1.9h-43.9v-1.9h3.3v-7.4"/><path class="cls-2" d="M375.5 226.1h-40.8"/><path class="cls-26" d="M335.2 226.1h-.5"/><path class="cls-27" d="M373.8 240.7h3.4M336.6 240.7h-3.3"/><path class="cls-26" d="M334.7 231.1h40.8v2.2h-40.8zM371.9 233.3v-2.2M338.5 233.3v-2.2M375.5 231.1v2.2M357.3 231.1v2.2M371.9 231.1v2.2M353.2 231.1v2.2M357.3 231.1v2.2M338.5 231.1v2.2M353.2 231.1v2.2M334.7 231.1v2.2"/><path class="cls-32" d="M375.6 236.7h-1.9v-3.4h1.9"/><path class="cls-25" d="M374.3 233.3v3.3M375.6 236.7h-1.9v-3.4h1.9"/><path class="cls-27" d="M375.5 231.1v-5"/><path class="cls-32" d="M375.5 240.7h-1.7v-3.4h1.7"/><path class="cls-25" d="M374.1 238.3l1.6 1.7"/><path class="cls-27" d="M375.5 240.7h-1.7v-3.4h1.7M373.8 237.3v-4"/><path class="cls-32" d="M334.7 236.7h1.9v-3.4h-1.9"/><path class="cls-25" d="M335.9 233.3v3.3M334.7 236.7h1.9v-3.4h-1.9"/><path class="cls-27" d="M334.7 231.1v-5"/><path class="cls-32" d="M334.7 240.7h1.9v-3.4h-1.9"/><path class="cls-25" d="M334.9 239.3l1.2 1.4"/><path class="cls-27" d="M334.7 240.7h1.9v-3.4h-1.9M336.6 237.3v-4"/><path class="cls-37" d="M606.4 231.1l10.1 9.6-.8-27.4-15.3.5.5 17.3h5.5"/><path class="cls-26" d="M616.5 240.7"/><path class="cls-32" d="M612.9 237.3l3.6 3.4-.8-27.4h-3.3l.5 24"/><path class="cls-25" d="M612.9 236.9l3.6 3.6M612.9 232.8l3.6 3.6M612.9 228.7l3.6 3.6M612.6 224.6l3.6 3.6M612.6 220.5l3.6 3.4M612.6 216.5l3.4 3.3M613.6 213.3l2.4 2.4"/><path class="cls-32" d="M612.4 236.6l.5.7-.5-24h-.7l.7 23.3"/><path class="cls-32" d="M606.4 231.1l6 5.5-.7-23.3-5.6.3.3 17.5"/><path class="cls-25" d="M610.9 235.2h1.5M609.5 234l2.9-.3M608.1 232.5l4.3-.2M606.6 231.1h5.8M606.4 229.7h6M606.4 228.2h5.7M606.4 226.8h5.7M606.4 225.6l5.7-.3M606.4 224.1l5.7-.2M606.4 222.7l5.7-.2M606.4 221.3l5.5-.3M606.4 219.8l5.5-.2M606.4 218.4l5.5-.3M606.4 216.9h5.5M606.4 215.5h5.5M606.4 214.1h5.5"/><path class="cls-32" d="M600.9 231.1h5.5l-.3-17.5-5.7.2.5 17.3"/><path class="cls-25" d="M606.4 214.1l-.7-.5M606.4 218.1l-4.6-4.3M606.4 222.2l-5.8-5.7M606.4 226.3l-5.8-5.8M606.4 230.4l-5.5-5.8M603.3 231.1l-2.4-2.4M605.9 231.1l.5-.5M601.8 231.1l4.6-4.6M600.9 228.2l5.5-5.5M600.9 224.1l5.5-5.5M600.6 220.3l5.8-5.5M600.6 216.5l2.7-2.7"/><path class="cls-27" d="M612.4 213.3l.5 24M615.7 213.3l.8 27.4"/><path class="cls-25" d="M606.1 213.6l.3 17.5M611.7 213.3l.7 23.3"/><path class="cls-27" d="M600.4 213.8l.2 12.3M606.1 213.6l.3 17.5"/><path class="cls-26" d="M615.7 213.3l.8 27.4M600.4 213.8l.2 12.3"/><path class="cls-37" d="M597.7 114.2l15.4-.2 1 36.5-15.4.4-1-36.7"/><path class="cls-32" d="M613.1 114h-3.4l1 36.5h3.4l-1-36.5"/><path class="cls-25" d="M610.7 146.4l3.4 3.3M610.7 142.3l3.4 3.4M610.5 138.2l3.6 3.4M610.5 134.1l3.3 3.4M610.2 129.8l3.6 3.6M610.2 125.7l3.4 3.6M610 121.7l3.6 3.6M610 117.6l3.3 3.3M610.5 114l2.8 2.9"/><path class="cls-32" d="M609.7 114h-.4l.9 36.5h.5l-1-36.5"/><path class="cls-32" d="M609.3 114l-5.8.2 1 36.5 5.7-.2-.9-36.5"/><path class="cls-25" d="M604.5 150.5l5.7-.3M604.5 149l5.7-.2M604.5 147.6l5.7-.3M604.5 146.1l5.7-.2M604.5 144.7l5.7-.2M604.5 143.3h5.7M604.5 141.8h5.7M604.2 140.4h5.8M604.2 138.9h5.8M604.2 137.7l5.8-.2M604.2 136.3l5.8-.2M604.2 134.9l5.8-.3M604.2 133.4l5.8-.2M604 132l5.7-.3M604 130.5l5.7-.2M604 129.1l5.7-.2M604 127.7h5.7M604 126.2h5.7M604 124.8h5.7M604 123.3h5.7M603.7 122.1l5.8-.2M603.7 120.7l5.8-.2M603.7 119.3l5.8-.3M603.7 117.8l5.8-.2M603.7 116.4l5.8-.3M603.7 114.9l5.8-.2"/><path class="cls-32" d="M603.5 114.2h-5.8l1 36.7 5.8-.2-1-36.5"/><path class="cls-25" d="M603.7 115.2l-1.2-1M603.7 119.5l-5.2-5.3M604 123.6l-6-6M604 127.7l-6-6M604 131.7l-5.8-6M604.2 135.8l-6-5.7M604.2 139.9l-5.7-5.8M604.5 144.2l-6-6M604.5 148.3l-5.8-6M603 150.7l-4.3-4.3M599.2 150.9l-.5-.4M602.1 150.7l2.4-2.4M598.7 150l5.8-5.5M598.7 146.1l5.5-5.5M598.7 142.3l5.5-5.8M598.5 138.2l5.7-5.5M598.5 134.4l5.5-5.5M598.2 130.5l5.8-5.7M598.2 126.7l5.5-5.8M598 122.6l5.7-5.5M598 118.8l4.5-4.6M598 114.9l.5-.7"/><path class="cls-27" d="M609.7 114l1 36.5M613.1 114l1 36.5"/><path class="cls-25" d="M603.5 114.2l1 36.5M609.3 114l.9 36.5"/><path class="cls-27" d="M597.7 114.2l1 36.7M603.5 114.2l1 36.5"/><path class="cls-26" d="M613.1 114l1 36.5M597.7 114.2l1 36.7"/><path class="cls-37" d="M596.3 50.4h15.1l.7 22.8-15.3.2-.5-23"/><path class="cls-32" d="M611.4 50.4h-3.3l.7 22.8h3.3l-.7-22.8"/><path class="cls-25" d="M608.8 72.5l.9.7M608.8 68.4l3.3 3.3M608.5 64.1l3.6 3.6M608.5 60l3.4 3.6M608.3 55.9l3.6 3.4M608.3 51.8l3.4 3.4M610.9 50.4l.8.7"/><path class="cls-32" d="M608.1 50.4h-.5l.5 22.8h.7l-.7-22.8"/><path class="cls-32" d="M607.6 50.4h-5.8l.7 23 5.6-.2-.5-22.8"/><path class="cls-25" d="M602.5 72.5l5.6-.3M602.5 71l5.6-.2M602.5 69.6h5.6M602.5 68.1h5.6M602.5 66.7h5.6M602.3 65.3h5.8M602.3 64.1l5.8-.3M602.3 62.6l5.8-.2M602.3 61.2l5.5-.3M602.3 59.7l5.5-.2M602.3 58.3l5.5-.2M602.1 56.9l5.7-.3M602.1 55.4h5.7M602.1 54h5.7M602.1 52.5h5.7M602.1 51.1h5.7"/><path class="cls-32" d="M601.8 50.4h-5.5l.5 23h5.7l-.7-23"/><path class="cls-25" d="M602.1 53.5l-3.2-3.1M602.1 57.6l-5.6-5.5M602.3 61.9l-5.8-5.8M602.5 66l-6-5.8M602.5 70.1l-5.7-5.8M601.8 73.4l-5-5M598 73.4l-1.2-.9M599.2 73.4l3.3-3.3M596.8 71.7l5.7-5.5M596.8 67.9l5.5-5.5M596.8 63.8l5.5-5.3M596.5 60l5.6-5.5M596.5 56.1l5.6-5.5M596.5 52.1l1.7-1.7"/><path class="cls-27" d="M608.1 50.4l.7 22.8M611.4 50.4l.7 22.8"/><path class="cls-25" d="M601.8 50.4l.7 23M607.6 50.4l.5 22.8"/><path class="cls-27" d="M596.3 50.4l.5 23M601.8 50.4l.7 23"/><path class="cls-26" d="M611.4 50.4l.7 22.8M596.3 50.4l.5 23"/><path class="cls-27" d="M600.9 231.1h5.5M600.6 226.1l.3 5"/><path class="cls-26" d="M604.7 75.1l7.4-.2v-3.4h1.7l1.2 43.9h-1.9v-3.3l-7.4.2"/><path class="cls-2" d="M596.8 73.4l.9 40.8"/><path class="cls-26" d="M597.7 113.7v.5"/><path class="cls-27" d="M612.1 74.9v-3.4M613.1 112.1v3.3"/><path class="cls-26" d="M604.7 73.2l1 40.8-2.2.2-1-40.8 2.2-.2zM604.9 77h-2.4M605.7 110.4h-2.2M602.5 73.4l2.2-.2M603 91.7h2.2M602.5 77h2.4M603 95.7h2.4M603 91.7h2.2M603.5 110.4h2.2M603 95.7h2.4M603.5 114.2l2.2-.2"/><path class="cls-27" d="M602.5 73.4h-5.7"/><path class="cls-32" d="M608.1 73.2l.1 1.8-3.4.1-.1-1.8"/><path class="cls-25" d="M604.9 73.9l3.4-.2M608.1 73.2l.1 1.8-3.4.1-.1-1.8"/><path class="cls-32" d="M612.1 73.2v1.7l-3.3.2v-1.9"/><path class="cls-25" d="M609.7 73.2l1.7 1.7"/><path class="cls-27" d="M612.1 73.2v1.7l-3.3.2v-1.9M608.8 75.1h-4.1M603.5 114.2h-5.8"/><path class="cls-32" d="M609.2 114l-.1-1.8h-3.4l.1 1.9"/><path class="cls-25" d="M605.9 113.5h3.4M609.2 114l-.1-1.8h-3.4l.1 1.9"/><path class="cls-32" d="M613.1 114v-1.9h-3.4v1.9"/><path class="cls-25" d="M610 113.5l.5.5M612.4 112.1l.9.7"/><path class="cls-27" d="M613.1 114v-1.9h-3.4v1.9M609.7 112.1l-4 .2"/><path class="cls-26" d="M606.9 152.4h7.2v-3.6h1.9l1.7 66-2 .2-.2-3.6-7.2.3"/><path class="cls-2" d="M598.7 150.9l1.7 62.9"/><path class="cls-27" d="M614.1 152.4v-3.6M615.5 211.4l.2 3.6"/><path class="cls-26" d="M606.6 150.7l1.7 62.9h-2.2l-1.6-62.9h2.1zM606.9 154.3h-2.4M608.3 209.7l-2.4.3M604.5 150.7h2.1M604.9 169.7h2.2M604.5 154.3h2.4M604.9 173.7h2.4M604.9 169.7h2.2M605.4 190.5h2.4M604.9 173.7h2.4M605.7 194.6h2.1M605.4 190.5h2.4M605.9 210l2.4-.3M605.7 194.6h2.1M606.1 213.6h2.2"/><path class="cls-27" d="M604.5 150.7l-5.8.2"/><path class="cls-32" d="M610.1 150.5v1.9l-3.4.1v-1.9"/><path class="cls-25" d="M606.9 151.7h3.6M610.1 150.5v1.9l-3.4.1v-1.9"/><path class="cls-32" d="M614.1 150.5v1.9h-3.4v-1.9"/><path class="cls-25" d="M610.9 150.5l1.7 1.9"/><path class="cls-27" d="M614.1 150.5v1.9h-3.4v-1.9M610.7 152.4h-3.8M606.1 213.6l-5.7.2"/><path class="cls-32" d="M611.7 213.5v-1.9l-3.4.1v1.8"/><path class="cls-25" d="M608.5 212.6h3.4M611.7 213.5v-1.9l-3.4.1v1.8"/><path class="cls-32" d="M615.7 213.3l-.2-1.9-3.4.3.3 1.6"/><path class="cls-25" d="M612.4 212.1l1.2 1.2M615.5 211.4h.2"/><path class="cls-27" d="M615.7 213.3l-.2-1.9-3.4.3.3 1.6M612.1 211.7h-3.8"/><path class="cls-26" d="M139.3 47h-34M139.3 54.7h-34M139.3 62.4h-34M65.7 109.4l-8.2-35.5M41.2 41.7h64.1v33.6H41.2zM46.5 75.3v34.1M54.1 75.3v34.1M61.8 75.3v34.1M69.5 75.3v34.1M77.2 75.3v34.1M84.6 75.3v34.1M92.3 75.3v34.1M100 75.3v34.1"/><path class="cls-26" d="M42.6 43.2h61.2v30.7H42.6z"/><path class="cls-2" d="M105.3 109.4h34"/><path class="cls-26" d="M138.9 109.4h.4"/><path class="cls-2" d="M105.3 116.4h34"/><path class="cls-26" d="M138.9 116.4h.4M122.4 47.1l3.8 3.8M118.5 50.9l3.9-3.8M126.1 50.9h-7.6M100 92.3l-3.8-3.8M96.2 96.1l3.8-3.8M96.1 88.5v7.7M61.8 92.3l-3.9-3.8M57.9 96.1l3.9-3.8M58 88.5v7.7"/><path class="cls-32" d="M.1.7l7 7.2h226.1l6.9-7.2H.1"/><g class="cls-33"><path class="cls-25" d="M240.1 4.3L236.5.7M239.7 7.9L232.5.7M235.6 7.9L228.4.7M231.7 7.9L224.5.7M227.7 7.9L220.5.7M223.6 7.9L216.4.7M219.7 7.9L212.5.7M215.7 7.9L208.5.7M211.6 7.9L204.4.7M207.7 7.9L200.5.7M203.7 7.9L196.5.7M199.6 7.9L192.4.7M195.5 7.9L188.3.7M191.7 7.9L184.5.7M187.6 7.9L180.4.7M183.5 7.9L176.3.7M179.7 7.9L172.5.7M175.6 7.9L168.4.7M171.5 7.9L164.3.7M167.7 7.9L160.5.7M163.6 7.9L156.4.7M159.5 7.9L152.3.7M155.4 7.9L148.2.7M151.6 7.9L144.4.7M147.5 7.9L140.3.7M143.4 7.9L136.2.7M139.6 7.9L132.4.7M135.5 7.9L128.3.7M131.4 7.9L124.2.7M127.3 7.9L120.1.7M123.5 7.9L116.3.7M119.4 7.9L112.2.7M115.3 7.9L108.1.7M111.5 7.9L104.3.7M107.4 7.9L100.2.7M103.3 7.9L96.1.7M99.5 7.9L92.3.7M95.4 7.9L88.2.7M91.3 7.9L84.1.7M87.3 7.9L80.1.7M83.4 7.9L76.2.7M79.3 7.9L72.1.7M75.3 7.9L68.1.7M71.4 7.9l-6.5-6.5M67.3 7.9l-2.4-2.4M239.9 7.9l.2-.2M235.8 7.9l4.3-4.3M231.7 7.9l7.2-7.2M227.9 7.9l7.2-7.2M223.8 7.9L231 .7M219.7 7.9l7.2-7.2M215.9 7.9l7.2-7.2M211.8 7.9L219 .7M207.7 7.9l7.2-7.2M203.7 7.9l7.2-7.2M199.8 7.9L207 .7M195.7 7.9l7.2-7.2M191.7 7.9l7.2-7.2M187.8 7.9L195 .7M183.7 7.9l7.2-7.2M179.7 7.9l7.2-7.2M175.6 7.9l7.2-7.2M171.7 7.9l7.2-7.2M167.7 7.9l7.2-7.2M163.6 7.9l7.2-7.2M159.7 7.9l7.2-7.2M155.7 7.9l7.2-7.2M151.6 7.9l7.2-7.2M147.7 7.9l7.2-7.2M143.7 7.9l7.2-7.2M139.6 7.9l7.2-7.2M135.5 7.9l7.2-7.2M131.7 7.9l7.2-7.2M127.6 7.9l7.2-7.2M123.5 7.9l7.2-7.2M119.7 7.9l7.2-7.2M115.6 7.9l7.2-7.2M111.5 7.9l7.2-7.2M107.7 7.9l7.2-7.2M103.6 7.9l7.2-7.2M99.5 7.9l7.2-7.2M95.4 7.9l7.2-7.2M91.6 7.9L98.8.7M87.5 7.9L94.7.7M83.4 7.9L90.6.7M79.6 7.9L86.8.7M75.5 7.9L82.7.7M71.4 7.9L78.6.7M67.3 7.9L74.5.7M64.9 6.5L70.7.7M64.9 2.4L66.6.7"/></g><path class="cls-32" d="M.1.7l7 7.2h226.1l6.9-7.2H.1"/><g class="cls-36"><path class="cls-25" d="M240.1 4.3L236.5.7M239.7 7.9L232.5.7M235.6 7.9L228.4.7M231.7 7.9L224.5.7M227.7 7.9L220.5.7M223.6 7.9L216.4.7M219.7 7.9L212.5.7M215.7 7.9L208.5.7M211.6 7.9L204.4.7M207.7 7.9L200.5.7M203.7 7.9L196.5.7M199.6 7.9L192.4.7M195.5 7.9L188.3.7M191.7 7.9L184.5.7M187.6 7.9L180.4.7M183.5 7.9L176.3.7M179.7 7.9L172.5.7M175.6 7.9L168.4.7M171.5 7.9L164.3.7M167.7 7.9L160.5.7M163.6 7.9L156.4.7M159.5 7.9L152.3.7M155.4 7.9L148.2.7M151.6 7.9L144.4.7M147.5 7.9L140.3.7M143.4 7.9L136.2.7M139.6 7.9L132.4.7M135.5 7.9L128.3.7M131.4 7.9L124.2.7M127.3 7.9L120.1.7M123.5 7.9L116.3.7M119.4 7.9L112.2.7M115.3 7.9L108.1.7M111.5 7.9L104.3.7M107.4 7.9L100.2.7M103.3 7.9L96.1.7M99.5 7.9L92.3.7M95.4 7.9L88.2.7M91.3 7.9L84.1.7M87.3 7.9L80.1.7M83.4 7.9L76.2.7M79.3 7.9L72.1.7M75.3 7.9L68.1.7M71.4 7.9l-6.5-6.5M67.3 7.9l-2.4-2.4M239.9 7.9l.2-.2M235.8 7.9l4.3-4.3M231.7 7.9l7.2-7.2M227.9 7.9l7.2-7.2M223.8 7.9L231 .7M219.7 7.9l7.2-7.2M215.9 7.9l7.2-7.2M211.8 7.9L219 .7M207.7 7.9l7.2-7.2M203.7 7.9l7.2-7.2M199.8 7.9L207 .7M195.7 7.9l7.2-7.2M191.7 7.9l7.2-7.2M187.8 7.9L195 .7M183.7 7.9l7.2-7.2M179.7 7.9l7.2-7.2M175.6 7.9l7.2-7.2M171.7 7.9l7.2-7.2M167.7 7.9l7.2-7.2M163.6 7.9l7.2-7.2M159.7 7.9l7.2-7.2M155.7 7.9l7.2-7.2M151.6 7.9l7.2-7.2M147.7 7.9l7.2-7.2M143.7 7.9l7.2-7.2M139.6 7.9l7.2-7.2M135.5 7.9l7.2-7.2M131.7 7.9l7.2-7.2M127.6 7.9l7.2-7.2M123.5 7.9l7.2-7.2M119.7 7.9l7.2-7.2M115.6 7.9l7.2-7.2M111.5 7.9l7.2-7.2M107.7 7.9l7.2-7.2M103.6 7.9l7.2-7.2M99.5 7.9l7.2-7.2M95.4 7.9l7.2-7.2M91.6 7.9L98.8.7M87.5 7.9L94.7.7M83.4 7.9L90.6.7M79.6 7.9L86.8.7M75.5 7.9L82.7.7M71.4 7.9L78.6.7M67.3 7.9L74.5.7M64.9 6.5L70.7.7M64.9 2.4L66.6.7"/></g><path class="cls-27" d="M240.1.7H.1M233.2 7.9H7.1M233.2 7.9H7.1M240.1.7H.1"/><path class="cls-32" d="M7.1 109.4l-7 7h98.2l7-7H7.1"/><g class="cls-35"><path class="cls-25" d="M105.3 109.9l-.5-.5M105.3 114l-4.6-4.6M103.6 116.4l-7-7M99.7 116.4l-6.9-7M95.7 116.4l-7-7M91.6 116.4l-7-7M87.5 116.4l-7-7M83.7 116.4l-7-7M79.6 116.4l-7-7M75.5 116.4l-7-7M71.7 116.4l-6.8-6.7M67.6 116.4l-2.7-2.7M103.3 116.4l2-1.9M99.3 116.4l6-6M95.2 116.4l6.9-7M91.3 116.4l7-7M87.3 116.4l6.9-7M83.2 116.4l6.9-7M79.3 116.4l7-7M75.3 116.4l6.9-7M71.2 116.4l6.9-7M67.1 116.4l7-7M64.9 114.7l5.3-5.3M64.9 110.6l1.2-1.2"/></g><path class="cls-32" d="M7.1 109.4l-7 7h98.2l7-7H7.1"/><g class="cls-34"><path class="cls-25" d="M105.3 109.9l-.5-.5M105.3 114l-4.6-4.6M103.6 116.4l-7-7M99.7 116.4l-6.9-7M95.7 116.4l-7-7M91.6 116.4l-7-7M87.5 116.4l-7-7M83.7 116.4l-7-7M79.6 116.4l-7-7M75.5 116.4l-7-7M71.7 116.4l-6.8-6.7M67.6 116.4l-2.7-2.7M103.3 116.4l2-1.9M99.3 116.4l6-6M95.2 116.4l6.9-7M91.3 116.4l7-7M87.3 116.4l6.9-7M83.2 116.4l6.9-7M79.3 116.4l7-7M75.3 116.4l6.9-7M71.2 116.4l6.9-7M67.1 116.4l7-7M64.9 114.7l5.3-5.3M64.9 110.6l1.2-1.2"/></g><path class="cls-27" d="M105.3 109.4H7.1M98.3 116.4H.1M98.3 116.4H.1M105.3 109.4H7.1"/><path class="cls-32" d="M197.4 231.1V48.7l-7.2-7.2v189.6h7.2"/><path class="cls-25" d="M197.7 49.9l-7.2-7.2M197.7 54l-7.2-7.2M197.7 58.1l-7.2-7.2M197.7 61.9l-7.2-7.2M197.7 66l-7.2-7.2M197.7 70.1l-7.2-7.2M197.7 73.9l-7.2-7.2M197.7 78l-7.2-7.2M197.7 82.1l-7.2-7.2M197.7 85.9l-7.2-7.2M197.7 90l-7.2-7.2M197.7 94.1l-7.2-7.2M197.7 98.1l-7.2-7.2M197.7 102l-7.2-7.2M197.7 106.1l-7.2-7.2M197.7 110.1l-7.2-7.2M197.7 114l-7.2-7.2M197.7 118.1l-7.2-7.2M197.7 122.1l-7.2-7.2M197.7 126l-7.2-7.2M197.7 130.1l-7.2-7.2M197.7 134.1l-7.2-7.2M197.7 138.2l-7.2-7.2M197.7 142.1l-7.2-7.2M197.7 146.1l-7.2-7.2M197.7 150.2l-7.2-7.2M197.7 154.1l-7.2-7.2M197.7 158.1l-7.2-7.2M197.7 162.2l-7.2-7.2M197.7 166.3l-7.2-7.2M197.7 170.1l-7.2-7.2M197.7 174.2l-7.2-7.2M197.7 178.3l-7.2-7.2M197.7 182.1l-7.2-7.2M197.7 186.2l-7.2-7.2M197.7 190.3l-7.2-7.2M197.7 194.1l-7.2-7.2M197.7 198.2l-7.2-7.2M197.7 202.3l-7.2-7.2M197.7 206.4l-7.2-7.2M197.7 210.2l-7.2-7.2M197.7 214.3l-7.2-7.2M197.7 218.4l-7.2-7.2M197.7 222.2l-7.2-7.2M197.7 226.3l-7.2-7.2M197.7 230.4l-7.2-7.2M194.3 231.1l-3.8-4.1M196.9 231.1l.8-.5M193.1 231.1l4.6-4.6M190.5 229.7l7.2-7.2M190.5 225.8l7.2-7.2M190.5 221.7l7.2-7.2M190.5 217.7l7.2-7.2M190.5 213.8l7.2-7.2M190.5 209.7l7.2-7.2M190.5 205.7l7.2-7.2M190.5 201.8l7.2-7.2M190.5 197.7l7.2-7.2M190.5 193.7l7.2-7.2M190.5 189.6l7.2-7.2M190.5 185.7l7.2-7.2M190.5 181.7l7.2-7.2M190.5 177.6l7.2-7.2M190.5 173.7l7.2-7.2M190.5 169.7l7.2-7.2M190.5 165.6l7.2-7.2M190.5 161.7l7.2-7.2M190.5 157.7l7.2-7.2M190.5 153.6l7.2-7.2M190.5 149.5l7.2-7.2M190.5 145.7l7.2-7.2M190.5 141.6l7.2-7.2M190.5 137.5l7.2-7.2M190.5 133.7l7.2-7.2M190.5 129.6l7.2-7.2M190.5 125.5l7.2-7.2M190.5 121.4l7.2-7.2M190.5 117.6l7.2-7.2M190.5 113.5l7.2-7.2M190.5 109.4l7.2-7.2M190.5 105.6l7.2-7.2M190.5 101.5l7.2-7.2M190.5 97.4l7.2-7.2M190.5 93.6l7.2-7.2M190.5 89.5l7.2-7.2M190.5 85.4l7.2-7.2M190.5 81.3l7.2-7.2M190.5 77.5l7.2-7.2M190.5 73.4l7.2-7.2M190.5 69.3l7.2-7.2M190.5 65.5l7.2-7.2M190.5 61.4l7.2-7.2M190.5 57.3l7.2-7.2M190.5 53.5l5.7-6M190.5 49.4l3.8-4.1M190.5 45.3l1.9-1.9"/><path class="cls-32" d="M197.4 231.1V48.7l-7.2-7.2v189.6h7.2"/><path class="cls-25" d="M197.7 49.9l-7.2-7.2M197.7 54l-7.2-7.2M197.7 58.1l-7.2-7.2M197.7 61.9l-7.2-7.2M197.7 66l-7.2-7.2M197.7 70.1l-7.2-7.2M197.7 73.9l-7.2-7.2M197.7 78l-7.2-7.2M197.7 82.1l-7.2-7.2M197.7 85.9l-7.2-7.2M197.7 90l-7.2-7.2M197.7 94.1l-7.2-7.2M197.7 98.1l-7.2-7.2M197.7 102l-7.2-7.2M197.7 106.1l-7.2-7.2M197.7 110.1l-7.2-7.2M197.7 114l-7.2-7.2M197.7 118.1l-7.2-7.2M197.7 122.1l-7.2-7.2M197.7 126l-7.2-7.2M197.7 130.1l-7.2-7.2M197.7 134.1l-7.2-7.2M197.7 138.2l-7.2-7.2M197.7 142.1l-7.2-7.2M197.7 146.1l-7.2-7.2M197.7 150.2l-7.2-7.2M197.7 154.1l-7.2-7.2M197.7 158.1l-7.2-7.2M197.7 162.2l-7.2-7.2M197.7 166.3l-7.2-7.2M197.7 170.1l-7.2-7.2M197.7 174.2l-7.2-7.2M197.7 178.3l-7.2-7.2M197.7 182.1l-7.2-7.2M197.7 186.2l-7.2-7.2M197.7 190.3l-7.2-7.2M197.7 194.1l-7.2-7.2M197.7 198.2l-7.2-7.2M197.7 202.3l-7.2-7.2M197.7 206.4l-7.2-7.2M197.7 210.2l-7.2-7.2M197.7 214.3l-7.2-7.2M197.7 218.4l-7.2-7.2M197.7 222.2l-7.2-7.2M197.7 226.3l-7.2-7.2M197.7 230.4l-7.2-7.2M194.3 231.1l-3.8-4.1M196.9 231.1l.8-.5M193.1 231.1l4.6-4.6M190.5 229.7l7.2-7.2M190.5 225.8l7.2-7.2M190.5 221.7l7.2-7.2M190.5 217.7l7.2-7.2M190.5 213.8l7.2-7.2M190.5 209.7l7.2-7.2M190.5 205.7l7.2-7.2M190.5 201.8l7.2-7.2M190.5 197.7l7.2-7.2M190.5 193.7l7.2-7.2M190.5 189.6l7.2-7.2M190.5 185.7l7.2-7.2M190.5 181.7l7.2-7.2M190.5 177.6l7.2-7.2M190.5 173.7l7.2-7.2M190.5 169.7l7.2-7.2M190.5 165.6l7.2-7.2M190.5 161.7l7.2-7.2M190.5 157.7l7.2-7.2M190.5 153.6l7.2-7.2M190.5 149.5l7.2-7.2M190.5 145.7l7.2-7.2M190.5 141.6l7.2-7.2M190.5 137.5l7.2-7.2M190.5 133.7l7.2-7.2M190.5 129.6l7.2-7.2M190.5 125.5l7.2-7.2M190.5 121.4l7.2-7.2M190.5 117.6l7.2-7.2M190.5 113.5l7.2-7.2M190.5 109.4l7.2-7.2M190.5 105.6l7.2-7.2M190.5 101.5l7.2-7.2M190.5 97.4l7.2-7.2M190.5 93.6l7.2-7.2M190.5 89.5l7.2-7.2M190.5 85.4l7.2-7.2M190.5 81.3l7.2-7.2M190.5 77.5l7.2-7.2M190.5 73.4l7.2-7.2M190.5 69.3l7.2-7.2M190.5 65.5l7.2-7.2M190.5 61.4l7.2-7.2M190.5 57.3l7.2-7.2M190.5 53.5l5.7-6M190.5 49.4l3.8-4.1M190.5 45.3l1.9-1.9"/><path class="cls-27" d="M190.2 116.4v114.7M190.2 51.8v54.7M197.4 48.7v182.4M197.4 48.7v182.4M190.2 116.4v114.7M190.2 51.8v54.7"/><path class="cls-32" d="M144.9 51.8l-5.6-10.3v74.9l5.6-9.9V51.8"/><path class="cls-25" d="M142.2 46.8l-2.6-2.9M145.1 53.5l-5.5-5.5M145.1 57.6l-5.5-5.5M145.1 61.4l-5.5-5.5M145.1 65.5l-5.5-5.5M145.1 69.6l-5.5-5.5M145.1 73.4l-5.5-5.5M145.1 77.5l-5.5-5.5M145.1 81.6l-5.5-5.5M145.1 85.7l-5.5-5.6M145.1 89.5l-5.5-5.5M145.1 93.6l-5.5-5.5M145.1 97.7l-5.5-5.6M145.1 101.5l-5.5-5.5M145.1 105.6l-5.5-5.5M143.9 108.5l-4.3-4.4M142.5 111.1l-2.9-2.9M141 113.7l-1.4-1.6M139.6 116.4v-.3M139.6 112.3l5-5.3M139.6 108.2l5.5-5.5M139.6 104.4l5.5-5.5M139.6 100.3l5.5-5.5M139.6 96.2l5.5-5.5M139.6 92.1l5.5-5.5M139.6 88.3l5.5-5.5M139.6 84.2l5.5-5.5M139.6 80.1l5.5-5.5M139.6 76.3l5.5-5.5M139.6 72.2l5.5-5.5M139.6 68.1l5.5-5.5M139.6 64.1l5.5-5.6M139.6 60.2l5.5-5.5M139.6 56.1l5-5M139.6 52.1l3.6-3.6M139.6 48.2l2.1-2.4M139.6 44.1l.7-.9"/><path class="cls-32" d="M144.9 51.8l-5.6-10.3v74.9l5.6-9.9V51.8"/><path class="cls-25" d="M142.2 46.8l-2.6-2.9M145.1 53.5l-5.5-5.5M145.1 57.6l-5.5-5.5M145.1 61.4l-5.5-5.5M145.1 65.5l-5.5-5.5M145.1 69.6l-5.5-5.5M145.1 73.4l-5.5-5.5M145.1 77.5l-5.5-5.5M145.1 81.6l-5.5-5.5M145.1 85.7l-5.5-5.6M145.1 89.5l-5.5-5.5M145.1 93.6l-5.5-5.5M145.1 97.7l-5.5-5.6M145.1 101.5l-5.5-5.5M145.1 105.6l-5.5-5.5M143.9 108.5l-4.3-4.4M142.5 111.1l-2.9-2.9M141 113.7l-1.4-1.6M139.6 116.4v-.3M139.6 112.3l5-5.3M139.6 108.2l5.5-5.5M139.6 104.4l5.5-5.5M139.6 100.3l5.5-5.5M139.6 96.2l5.5-5.5M139.6 92.1l5.5-5.5M139.6 88.3l5.5-5.5M139.6 84.2l5.5-5.5M139.6 80.1l5.5-5.5M139.6 76.3l5.5-5.5M139.6 72.2l5.5-5.5M139.6 68.1l5.5-5.5M139.6 64.1l5.5-5.6M139.6 60.2l5.5-5.5M139.6 56.1l5-5M139.6 52.1l3.6-3.6M139.6 48.2l2.1-2.4M139.6 44.1l.7-.9"/><path class="cls-27" d="M144.9 106.5V51.8M139.3 116.4V41.5M139.3 116.4V41.5M144.9 106.5V51.8"/><path class="cls-32" d="M154.7 41.5h-15.4l5.6 10.3h9.8V41.5"/><path class="cls-25" d="M154.9 43.2l-1.9-1.7M154.9 47.3l-6-5.8M154.9 51.3l-9.8-9.8M151.3 51.8L141 41.5M147.3 51.8l-5.1-5M151.8 51.8l3.1-3.1M147.7 51.8l7.2-6.9M144.6 51.1l9.6-9.6M143.2 48.5l6.9-7M141.7 45.8l4.4-4.3M140.3 43.2l1.7-1.7"/><path class="cls-32" d="M154.7 41.5h-15.4l5.6 10.3h9.8V41.5"/><path class="cls-25" d="M154.9 43.2l-1.9-1.7M154.9 47.3l-6-5.8M154.9 51.3l-9.8-9.8M151.3 51.8L141 41.5M147.3 51.8l-5.1-5M151.8 51.8l3.1-3.1M147.7 51.8l7.2-6.9M144.6 51.1l9.6-9.6M143.2 48.5l6.9-7M141.7 45.8l4.4-4.3M140.3 43.2l1.7-1.7"/><path class="cls-27" d="M144.9 51.8h9.8M139.3 41.5h15.4M139.3 41.5h15.4M144.9 51.8h9.8"/><path class="cls-26" d="M157.8 50.4h29.3"/><path class="cls-2" d="M157.8 41.5h29.3"/><path class="cls-26" d="M186.6 41.5h.5"/><path class="cls-32" d="M154.7 41.5h3.1v8.9h-3.1"/><path class="cls-25" d="M158.1 42.5l-1-1M158.1 46.3l-3.2-3.1M157.8 50.4l-2.9-3.1M157.3 50.4l.8-.7M154.9 48.7l3.2-3.1M154.9 44.9l3.2-3.2"/><path class="cls-32" d="M190.2 41.5h-3.1v8.9h3.1"/><path class="cls-25" d="M190.5 42.7l-1.5-1.2M190.5 46.8l-3.2-3.1M190 50.4l-2.7-2.7M189.3 50.4l1.2-1M187.3 48.5l3.2-3.2M187.3 44.4l2.9-2.9"/><path class="cls-27" d="M157.8 41.5v8.9M187.1 41.5v8.9M157.8 41.5v8.9M154.7 41.5h3.1M187.1 41.5v8.9M190.2 41.5h-3.1M154.7 51.8v-1.4M190.2 51.8v-1.4M154.7 41.5h3.1M190.2 41.5h-3.1M157.8 50.4h-3.1M187.1 50.4h3.1"/><path class="cls-32" d="M144.9 106.5l-5.6 9.9h15.4v-9.9h-9.8"/><path class="cls-25" d="M154.9 107.5l-.9-1M154.9 111.3l-5-4.8M154.9 115.4l-9.1-8.9M151.8 116.4l-7.9-7.9M147.7 116.4l-5.2-5.3M143.7 116.4l-2.7-2.7M139.8 116.4l-.2-.3M151.3 116.4l3.6-3.4M147.5 116.4l7.4-7.5M143.4 116.4l9.9-9.9M139.6 116.1l9.6-9.6M144.6 107l.5-.5"/><path class="cls-32" d="M144.9 106.5l-5.6 9.9h15.4v-9.9h-9.8"/><path class="cls-25" d="M154.9 107.5l-.9-1M154.9 111.3l-5-4.8M154.9 115.4l-9.1-8.9M151.8 116.4l-7.9-7.9M147.7 116.4l-5.2-5.3M143.7 116.4l-2.7-2.7M139.8 116.4l-.2-.3M151.3 116.4l3.6-3.4M147.5 116.4l7.4-7.5M143.4 116.4l9.9-9.9M139.6 116.1l9.6-9.6M144.6 107l.5-.5"/><path class="cls-27" d="M154.7 106.5h-9.8M154.7 116.4h-15.4M154.7 116.4h-15.4M154.7 106.5h-9.8"/><path class="cls-26" d="M187.1 108h-29.3"/><path class="cls-2" d="M187.1 116.4h-29.3"/><path class="cls-26" d="M158.3 116.4h-.5"/><path class="cls-32" d="M190.2 116.4h-3.1V108h3.1"/><path class="cls-25" d="M190.5 110.9l-3.2-2.9M190.5 114.9l-3.2-3.1M187.8 116.4l-.5-.7M187.6 116.4l2.9-2.9M187.3 112.5l3.2-3.1M187.3 108.7l.5-.7"/><path class="cls-32" d="M154.7 116.4h3.1V108h-3.1"/><path class="cls-25" d="M158.1 110.6l-2.7-2.6M158.1 114.5l-3.2-3.2M155.7 116.4l-.8-1M155.4 116.4l2.7-2.7M154.9 113l3.2-3.1M154.9 108.9l1-.9"/><path class="cls-27" d="M187.1 116.4V108M157.8 116.4V108M187.1 116.4V108M190.2 116.4h-3.1M157.8 116.4V108M154.7 116.4h3.1M190.2 106.5v1.5M154.7 106.5v1.5M190.2 116.4h-3.1M154.7 116.4h3.1M187.1 108h3.1M157.8 108h-3.1"/><path class="cls-32" d="M105.3 226.1h-7V116.4l7-7v116.7"/><path class="cls-25" d="M105.5 110.1l-.5-.4M105.5 114.2l-2.4-2.4M105.5 118.1l-4.6-4.4M105.5 122.1l-6.5-6.4M105.5 126.2l-7-6.9M105.5 130.1l-7-7M105.5 134.1l-7-6.9M105.5 138.2l-7-6.9M105.5 142.1l-7-7M105.5 146.1l-7-6.9M105.5 150.2l-7-6.9M105.5 154.3l-7-7M105.5 158.1l-7-6.9M105.5 162.2l-7-6.9M105.5 166.3l-7-7M105.5 170.1l-7-6.9M105.5 174.2l-7-6.9M105.5 178.3l-7-7M105.5 182.1l-7-6.9M105.5 186.2l-7-6.9M105.5 190.3l-7-7M105.5 194.4l-7-7M105.5 198.2l-7-6.9M105.5 202.3l-7-7M105.5 206.4l-7-7M105.5 210.2l-7-6.9M105.5 214.3l-7-7M105.5 218.4l-7-7M105.5 222.5l-7-7M105 226.1l-6.5-6.8M101.2 226.1l-2.7-2.7M101.9 226.1l3.6-3.6M98.5 225.6l7-7M98.5 221.5l7-7M98.5 217.4l7-6.9M98.5 213.3l7-6.9M98.5 209.5l7-7M98.5 205.4l7-6.9M98.5 201.3l7-6.9M98.5 197.5l7-7M98.5 193.4l7-6.9M98.5 189.3l7-6.9M98.5 185.5l7-7M98.5 181.4l7-6.9M98.5 177.3l7-6.9M98.5 173.3l7-7M98.5 169.4l7-6.9M98.5 165.3l7-6.9M98.5 161.3l7-7M98.5 157.4l7-6.9M98.5 153.3l7-6.9M98.5 149.3l7-7M98.5 145.4l7-6.9M98.5 141.3l7-6.9M98.5 137.3l7-7M98.5 133.2l7-7M98.5 129.3l7-6.9M98.5 125.3l7-7M98.5 121.2l7-7M98.5 117.3l7-6.9"/><path class="cls-32" d="M98.3 226.1h7V109.4l-7 7v109.7"/><path class="cls-25" d="M105.5 110.1l-.5-.4M105.5 114.2l-2.4-2.4M105.5 118.1l-4.6-4.4M105.5 122.1l-6.5-6.4M105.5 126.2l-7-6.9M105.5 130.1l-7-7M105.5 134.1l-7-6.9M105.5 138.2l-7-6.9M105.5 142.1l-7-7M105.5 146.1l-7-6.9M105.5 150.2l-7-6.9M105.5 154.3l-7-7M105.5 158.1l-7-6.9M105.5 162.2l-7-6.9M105.5 166.3l-7-7M105.5 170.1l-7-6.9M105.5 174.2l-7-6.9M105.5 178.3l-7-7M105.5 182.1l-7-6.9M105.5 186.2l-7-6.9M105.5 190.3l-7-7M105.5 194.4l-7-7M105.5 198.2l-7-6.9M105.5 202.3l-7-7M105.5 206.4l-7-7M105.5 210.2l-7-6.9M105.5 214.3l-7-7M105.5 218.4l-7-7M105.5 222.5l-7-7M105 226.1l-6.5-6.8M101.2 226.1l-2.7-2.7M101.9 226.1l3.6-3.6M98.5 225.6l7-7M98.5 221.5l7-7M98.5 217.4l7-6.9M98.5 213.3l7-6.9M98.5 209.5l7-7M98.5 205.4l7-6.9M98.5 201.3l7-6.9M98.5 197.5l7-7M98.5 193.4l7-6.9M98.5 189.3l7-6.9M98.5 185.5l7-7M98.5 181.4l7-6.9M98.5 177.3l7-6.9M98.5 173.3l7-7M98.5 169.4l7-6.9M98.5 165.3l7-6.9M98.5 161.3l7-7M98.5 157.4l7-6.9M98.5 153.3l7-6.9M98.5 149.3l7-7M98.5 145.4l7-6.9M98.5 141.3l7-6.9M98.5 137.3l7-7M98.5 133.2l7-7M98.5 129.3l7-6.9M98.5 125.3l7-7M98.5 121.2l7-7M98.5 117.3l7-6.9"/><path class="cls-27" d="M105.3 226.1V109.4M98.3 226.1V116.4M98.3 226.1V116.4M105.3 226.1V109.4"/><path class="cls-2" d="M613.6 132.5l42.7 6.4"/><path class="cls-14" d="M656.3 138.9l2.2 83.8"/><path class="cls-22" d="M658.5 222.7l-42.3 8.6"/><path class="cls-32" d="M399.4 99.8c-.9 1.3-.9 3 0 4.3 1.5 1.9 3.8 2.9 6.2 2.9l9-.3v-9.6l-9-.3c-2.4 0-4.7 1-6.2 2.9"/><path class="cls-26" d="M399.4 99.8c-.9 1.3-.9 3 0 4.3 1.5 1.9 3.8 2.9 6.2 2.9l9-.3v-9.6l-9-.3c-2.4 0-4.7 1-6.2 2.9"/><path class="cls-32" d="M409.6 101.9c0-1-.3-2-1.1-2.8-.7-.7-1.7-1.2-2.7-1.2-2.1 0-4.1.9-5.4 2.5-.6.9-.6 2 0 2.9 1.3 1.6 3.3 2.5 5.4 2.5 1 0 2-.4 2.7-1.2.7-.7 1.1-1.8 1.1-2.8"/><path class="cls-26" d="M409.6 101.9c0-1-.3-2-1.1-2.8-.7-.7-1.7-1.2-2.7-1.2-2.1 0-4.1.9-5.4 2.5-.6.9-.6 2 0 2.9 1.3 1.6 3.3 2.5 5.4 2.5 1 0 2-.4 2.7-1.2.7-.7 1.1-1.8 1.1-2.8"/><path class="cls-32" d="M414.3 47.8h-48.1l-.1.1h-.1v.2h-.1v20.6l.1.1v.1l.1.1h.1l.1.1h48l.1-.1h.1l.1-.1v-.1l.1-.1V48.1h-.1v-.2h-.1l-.1-.1h-.1"/><path class="cls-26" d="M414.3 47.8h-48.1l-.1.1h-.1v.2h-.1v20.6l.1.1v.1l.1.1h.1l.1.1h48l.1-.1h.1l.1-.1v-.1l.1-.1V48.1h-.1v-.2h-.1l-.1-.1h-.1"/><path class="cls-32" d="M409 49.9h-37.4c-.4 0-.9 0-1.3.3-.4.2-.8.4-1.1.7-.3.3-.6.7-.7 1.1-.2.4-.3.9-.3 1.3v10.2c0 .4 0 .9.3 1.3.2.4.4.8.7 1.1.3.3.7.6 1.1.7.4.2.9.3 1.3.3H409c.4 0 .9 0 1.3-.3.4-.2.8-.4 1.1-.7.3-.3.6-.7.7-1.1.2-.4.3-.9.3-1.3V53.3c0-.4 0-.9-.3-1.3-.2-.4-.4-.8-.7-1.1-.3-.3-.7-.6-1.1-.7-.4-.2-.9-.3-1.3-.3"/><path class="cls-26" d="M409 49.9h-37.4c-.4 0-.9 0-1.3.3-.4.2-.8.4-1.1.7-.3.3-.6.7-.7 1.1-.2.4-.3.9-.3 1.3v10.2c0 .4 0 .9.3 1.3.2.4.4.8.7 1.1.3.3.7.6 1.1.7.4.2.9.3 1.3.3H409c.4 0 .9 0 1.3-.3.4-.2.8-.4 1.1-.7.3-.3.6-.7.7-1.1.2-.4.3-.9.3-1.3V53.3c0-.4 0-.9-.3-1.3-.2-.4-.4-.8-.7-1.1-.3-.3-.7-.6-1.1-.7-.4-.2-.9-.3-1.3-.3M415.3 115.2v-24"/><path class="cls-9" d="M414.6 115.2V90.7"/><path class="cls-26" d="M416.8 115.2V92.6M415.3 115.2v-24M414.6 115.2V90.7M416.8 115.2V92.6M419.2 91.2V72.9"/><path class="cls-9" d="M418.5 90.7v-17"/><path class="cls-26" d="M420.6 92.6V71.5M419.2 91.2V72.9M418.5 90.7v-17M420.6 92.6V71.5M415.3 72.9V47.5"/><path class="cls-9" d="M414.6 73.7V47.5"/><path class="cls-26" d="M416.8 71.5v-24M415.3 72.9V47.5M414.6 73.7V47.5M416.8 71.5v-24"/><path class="cls-32" d="M414.7 74.3h-12.4c-.1 0-.3.1-.4.2-.1.1-.2.2-.2.4V89c0 .1.1.3.2.4.1.1.2.2.4.2h12.4V74"/><path class="cls-26" d="M414.7 74.3h-12.4c-.1 0-.3.1-.4.2-.1.1-.2.2-.2.4V89c0 .1.1.3.2.4.1.1.2.2.4.2h12.4V74"/><path class="cls-23" d="M414.6 90.7h3.9"/><path class="cls-5" d="M418.5 90.7v-17"/><path class="cls-23" d="M418.5 73.7h-3.9"/><path class="cls-26" d="M419.2 72.9h-3.9"/><path class="cls-9" d="M418.5 73.7h-3.9"/><path class="cls-26" d="M420.6 71.5h-3.8M419.2 72.9h-3.9M418.5 73.7h-3.9M420.6 71.5h-3.8M415.3 91.2h3.9"/><path class="cls-9" d="M414.6 90.7h3.9"/><path class="cls-26" d="M416.8 92.6h3.8M415.3 91.2h3.9M414.6 90.7h3.9M416.8 92.6h3.8"/><path class="cls-9" d="M414.6 90.7v-17"/><path class="cls-26" d="M397.6 131.5h77.5v17h-77.5zM466.2 146.4v2.1M449.2 146.4v2.1M432.1 146.4v2.1M398.1 146.4v2.1M396.9 124.8h.7v16.3h-.7z"/><path class="cls-26" d="M380.1 140.6h16.8v.5h-16.8z"/><path class="cls-26" d="M380.1 125.3h.5v15.4h-.5zM396.4 125.3h.5v15.4h-.5zM380.1 124.8h16.8v.5h-16.8z"/><path class="cls-32" d="M416 136.2v9.3c0 .1 0 .3.1.4 0 .1.1.2.2.3 0 .1.2.2.2.3s.2.2.3.2c.1 0 .2.1.3.2.1 0 .2 0 .4.1h12c.1 0 .3 0 .4-.1.1 0 .2-.1.3-.2.1 0 .2-.2.3-.2 0 0 .2-.2.2-.3 0-.1.1-.2.2-.3 0-.1 0-.2.1-.4v-9.3-.4c0-.1 0-.3-.1-.4 0-.1-.1-.2-.2-.3 0-.1-.2-.2-.2-.3 0 0-.2-.2-.3-.2-.1 0-.2-.1-.3-.2-.1 0-.2 0-.4-.1h-12c-.1 0-.3 0-.4.1-.1 0-.2.1-.3.2-.1 0-.2.2-.3.2s-.2.2-.2.3c0 .1-.1.2-.2.3 0 .1 0 .2-.1.4v.4"/><path class="cls-26" d="M416 136.2v9.3c0 .1 0 .3.1.4 0 .1.1.2.2.3 0 .1.2.2.2.3s.2.2.3.2c.1 0 .2.1.3.2.1 0 .2 0 .4.1h12c.1 0 .3 0 .4-.1.1 0 .2-.1.3-.2.1 0 .2-.2.3-.2 0 0 .2-.2.2-.3 0-.1.1-.2.2-.3 0-.1 0-.2.1-.4v-9.3-.4c0-.1 0-.3-.1-.4 0-.1-.1-.2-.2-.3 0-.1-.2-.2-.2-.3 0 0-.2-.2-.3-.2-.1 0-.2-.1-.3-.2-.1 0-.2 0-.4-.1h-12c-.1 0-.3 0-.4.1-.1 0-.2.1-.3.2-.1 0-.2.2-.3.2s-.2.2-.2.3c0 .1-.1.2-.2.3 0 .1 0 .2-.1.4v.4"/><path class="cls-32" d="M424.7 137.5c0-.7-.5-1.2-1.1-1.2s-1.1.5-1.1 1.2.5 1.2 1.1 1.2 1.1-.5 1.1-1.2"/><path class="cls-26" d="M424.7 137.5c0-.7-.5-1.2-1.1-1.2s-1.1.5-1.1 1.2.5 1.2 1.1 1.2 1.1-.5 1.1-1.2"/><path class="cls-31" d="M449.7 132.5h15.8v14.6h-15.8z"/><path class="cls-26" d="M449.7 132.5h15.8v14.6h-15.8z"/><path class="cls-32" d="M464.5 142.4c0-1.5-1.3-2.8-2.9-2.8s-2.9 1.2-2.9 2.8 1.3 2.8 2.9 2.8 2.9-1.2 2.9-2.8"/><path class="cls-26" d="M464.5 142.4c0-1.5-1.3-2.8-2.9-2.8s-2.9 1.2-2.9 2.8 1.3 2.8 2.9 2.8 2.9-1.2 2.9-2.8"/><path class="cls-32" d="M464.8 135.7c0-1.3-1-2.3-2.2-2.3s-2.2 1-2.2 2.3 1 2.3 2.2 2.3 2.2-1 2.2-2.3"/><path class="cls-26" d="M464.8 135.7c0-1.3-1-2.3-2.2-2.3s-2.2 1-2.2 2.3 1 2.3 2.2 2.3 2.2-1 2.2-2.3"/><path class="cls-32" d="M456.4 142.4c0-1.3-1-2.3-2.3-2.3s-2.3 1-2.3 2.3 1 2.3 2.3 2.3 2.3-1 2.3-2.3"/><path class="cls-26" d="M456.4 142.4c0-1.3-1-2.3-2.3-2.3s-2.3 1-2.3 2.3 1 2.3 2.3 2.3 2.3-1 2.3-2.3"/><path class="cls-32" d="M457.1 136.1c0-1.6-1.2-2.9-2.8-2.9s-2.8 1.3-2.8 2.9 1.2 2.9 2.8 2.9 2.8-1.3 2.8-2.9"/><path class="cls-26" d="M457.1 136.1c0-1.6-1.2-2.9-2.8-2.9s-2.8 1.3-2.8 2.9 1.2 2.9 2.8 2.9 2.8-1.3 2.8-2.9M474.6 146.4v2.1M398.3 122.4v8.4"/><path class="cls-9" d="M397.6 122.4v9.1"/><path class="cls-26" d="M399.7 122.4v6.9M398.3 122.4v8.4M397.6 122.4v9.1M399.7 122.4v6.9"/><path class="cls-9" d="M398.3 122.4h-.7"/><path class="cls-26" d="M399.7 122.4h-1.4M398.3 130.8h78"/><path class="cls-9" d="M397.6 131.5h78.7"/><path class="cls-26" d="M399.7 129.3h76.6M398.3 130.8h78M397.6 131.5h78.7M399.7 129.3h76.6M363 140.6h17v.5h-17z"/><path class="cls-26" d="M363 125.3h.5v15.4h-.5zM379.3 125.3h.7v15.4h-.7zM363 124.8h17v.5h-17zM346 140.6h17v.5h-17z"/><path class="cls-26" d="M346 125.3h.5v15.4h-.5zM362.3 125.3h.7v15.4h-.7zM346 124.8h17v.5h-17zM345 140.6h1v.5h-1zM415.1 146.4v2.1"/><path class="cls-2" d="M397.6 141.1h77.5"/><path class="cls-26" d="M474.6 141.1h.5"/><path class="cls-32" d="M295.1 40.5l7 7h124.5v-7H295.1"/><path class="cls-25" d="M426.9 42.7l-2.2-2.2M426.9 46.5l-6.3-6M423.5 47.5l-7-7M419.7 47.5l-7-7M415.6 47.5l-7-7M411.5 47.5l-7-7M407.7 47.5l-7-7M403.6 47.5l-7-7M399.5 47.5l-7-7M395.7 47.5l-7-7M391.6 47.5l-7-7M387.5 47.5l-7-7M383.4 47.5l-6.9-7M379.6 47.5l-7-7M375.5 47.5l-7-7M371.4 47.5l-6.9-7M367.6 47.5l-7-7M363.5 47.5l-7-7M359.4 47.5l-6.9-7M355.6 47.5l-7-7M351.5 47.5l-7-7M347.4 47.5l-6.9-7M343.3 47.5l-6.9-7M339.5 47.5l-7-7M335.4 47.5l-6.9-7M331.3 47.5l-6.9-7M327.5 47.5l-7-7M323.4 47.5l-6.9-7M319.3 47.5l-6.9-7M315.3 47.5l-7-7M311.4 47.5l-6.9-7M307.3 47.5l-6.9-7M303.3 47.5l-7-7M424.7 47.5l2.2-1.9M420.6 47.5l6.3-6M416.8 47.5l6.9-7M412.7 47.5l7-7M408.6 47.5l7-7M404.8 47.5l6.9-7M400.7 47.5l7-7M396.6 47.5l7-7M392.5 47.5l7-7M388.7 47.5l7-7M384.6 47.5l7-7M380.5 47.5l7-7M376.7 47.5l7-7M372.6 47.5l7-7M368.5 47.5l7-7M364.7 47.5l7-7M360.6 47.5l7-7M356.5 47.5l7-7M352.5 47.5l6.9-7M348.6 47.5l7-7M344.5 47.5l7-7M340.5 47.5l6.9-7M336.6 47.5l7-7M332.5 47.5l7-7M328.5 47.5l6.9-7M324.6 47.5l7-7M320.5 47.5l7-7M316.5 47.5l6.9-7M312.4 47.5l6.9-7M308.5 47.5l7-7M304.5 47.5l6.9-7M301.3 46.5l6-6M299.4 44.6l4.1-4.1M297.3 42.7l2.1-2.2M295.3 40.5"/><path class="cls-32" d="M295.1 40.5l7 7h124.5v-7H295.1"/><path class="cls-25" d="M426.9 42.7l-2.2-2.2M426.9 46.5l-6.3-6M423.5 47.5l-7-7M419.7 47.5l-7-7M415.6 47.5l-7-7M411.5 47.5l-7-7M407.7 47.5l-7-7M403.6 47.5l-7-7M399.5 47.5l-7-7M395.7 47.5l-7-7M391.6 47.5l-7-7M387.5 47.5l-7-7M383.4 47.5l-6.9-7M379.6 47.5l-7-7M375.5 47.5l-7-7M371.4 47.5l-6.9-7M367.6 47.5l-7-7M363.5 47.5l-7-7M359.4 47.5l-6.9-7M355.6 47.5l-7-7M351.5 47.5l-7-7M347.4 47.5l-6.9-7M343.3 47.5l-6.9-7M339.5 47.5l-7-7M335.4 47.5l-6.9-7M331.3 47.5l-6.9-7M327.5 47.5l-7-7M323.4 47.5l-6.9-7M319.3 47.5l-6.9-7M315.3 47.5l-7-7M311.4 47.5l-6.9-7M307.3 47.5l-6.9-7M303.3 47.5l-7-7M424.7 47.5l2.2-1.9M420.6 47.5l6.3-6M416.8 47.5l6.9-7M412.7 47.5l7-7M408.6 47.5l7-7M404.8 47.5l6.9-7M400.7 47.5l7-7M396.6 47.5l7-7M392.5 47.5l7-7M388.7 47.5l7-7M384.6 47.5l7-7M380.5 47.5l7-7M376.7 47.5l7-7M372.6 47.5l7-7M368.5 47.5l7-7M364.7 47.5l7-7M360.6 47.5l7-7M356.5 47.5l7-7M352.5 47.5l6.9-7M348.6 47.5l7-7M344.5 47.5l7-7M340.5 47.5l6.9-7M336.6 47.5l7-7M332.5 47.5l7-7M328.5 47.5l6.9-7M324.6 47.5l7-7M320.5 47.5l7-7M316.5 47.5l6.9-7M312.4 47.5l6.9-7M308.5 47.5l7-7M304.5 47.5l6.9-7M301.3 46.5l6-6M299.4 44.6l4.1-4.1M297.3 42.7l2.1-2.2M295.3 40.5"/><path class="cls-27" d="M426.6 40.5H295.1M340.2 47.5h-38.1M358.9 47.5h-14.6M426.6 47.5h-60.7M340.2 47.5h-38.1M426.6 40.5H295.1M358.9 47.5h-14.6M426.6 47.5h-60.7M426.6 40.5v7M344.3 47.5h-4.1"/><path class="cls-32" d="M358.5 122.4h117.8v-7.2H358.5v7.2"/><path class="cls-25" d="M476.5 116.4l-1.2-1.2M476.5 120.5l-5.2-5.3M474.4 122.4l-7.2-7.2M470.5 122.4l-7.2-7.2M466.5 122.4l-7.2-7.2M462.4 122.4l-7.2-7.2M458.3 122.4l-7.2-7.2M454.5 122.4l-7.2-7.2M450.4 122.4l-7.2-7.2M446.3 122.4l-7.2-7.2M442.5 122.4l-7.2-7.2M438.4 122.4l-7.2-7.2M434.3 122.4l-7.2-7.2M430.5 122.4l-7.2-7.2M426.4 122.4l-7.2-7.2M422.3 122.4l-7.2-7.2M418.2 122.4l-7.2-7.2M414.4 122.4l-7.2-7.2M410.3 122.4l-7.2-7.2M406.2 122.4l-7.2-7.2M402.4 122.4l-7.2-7.2M398.3 122.4l-7.2-7.2M394.2 122.4l-7.2-7.2M390.1 122.4l-7.2-7.2M386.3 122.4l-7.2-7.2M382.2 122.4l-7.2-7.2M378.1 122.4l-7.2-7.2M374.3 122.4l-7.2-7.2M370.2 122.4l-7.2-7.2M366.1 122.4l-7.2-7.2M362.3 122.4l-3.6-3.6M474.1 122.4l2.4-2.4M470.1 122.4l6.4-6.3M466.2 122.4l7.2-7.2M462.1 122.4l7.2-7.2M458.1 122.4l7.2-7.2M454 122.4l7.2-7.2M450.1 122.4l7.2-7.2M446.1 122.4l7.2-7.2M442 122.4l7.2-7.2M438.1 122.4l7.2-7.2M434.1 122.4l7.2-7.2M430 122.4l7.2-7.2M425.9 122.4l7.2-7.2M422.1 122.4l7.2-7.2M418 122.4l7.2-7.2M413.9 122.4l7.2-7.2M410.1 122.4l7.2-7.2M406 122.4l7.2-7.2M401.9 122.4l7.2-7.2M398.1 122.4l7.2-7.2M394 122.4l7.2-7.2M389.9 122.4l7.2-7.2M385.8 122.4l7.2-7.2M382 122.4l7.2-7.2M377.9 122.4l7.2-7.2M373.8 122.4l7.2-7.2M370 122.4l7.2-7.2M365.9 122.4l7.2-7.2M361.8 122.4l7.2-7.2M358.7 121.7l6.5-6.5M358.7 117.6l2.4-2.4"/><path class="cls-32" d="M358.5 122.4h117.8v-7.2H358.5v7.2"/><path class="cls-25" d="M476.5 116.4l-1.2-1.2M476.5 120.5l-5.2-5.3M474.4 122.4l-7.2-7.2M470.5 122.4l-7.2-7.2M466.5 122.4l-7.2-7.2M462.4 122.4l-7.2-7.2M458.3 122.4l-7.2-7.2M454.5 122.4l-7.2-7.2M450.4 122.4l-7.2-7.2M446.3 122.4l-7.2-7.2M442.5 122.4l-7.2-7.2M438.4 122.4l-7.2-7.2M434.3 122.4l-7.2-7.2M430.5 122.4l-7.2-7.2M426.4 122.4l-7.2-7.2M422.3 122.4l-7.2-7.2M418.2 122.4l-7.2-7.2M414.4 122.4l-7.2-7.2M410.3 122.4l-7.2-7.2M406.2 122.4l-7.2-7.2M402.4 122.4l-7.2-7.2M398.3 122.4l-7.2-7.2M394.2 122.4l-7.2-7.2M390.1 122.4l-7.2-7.2M386.3 122.4l-7.2-7.2M382.2 122.4l-7.2-7.2M378.1 122.4l-7.2-7.2M374.3 122.4l-7.2-7.2M370.2 122.4l-7.2-7.2M366.1 122.4l-7.2-7.2M362.3 122.4l-3.6-3.6M474.1 122.4l2.4-2.4M470.1 122.4l6.4-6.3M466.2 122.4l7.2-7.2M462.1 122.4l7.2-7.2M458.1 122.4l7.2-7.2M454 122.4l7.2-7.2M450.1 122.4l7.2-7.2M446.1 122.4l7.2-7.2M442 122.4l7.2-7.2M438.1 122.4l7.2-7.2M434.1 122.4l7.2-7.2M430 122.4l7.2-7.2M425.9 122.4l7.2-7.2M422.1 122.4l7.2-7.2M418 122.4l7.2-7.2M413.9 122.4l7.2-7.2M410.1 122.4l7.2-7.2M406 122.4l7.2-7.2M401.9 122.4l7.2-7.2M398.1 122.4l7.2-7.2M394 122.4l7.2-7.2M389.9 122.4l7.2-7.2M385.8 122.4l7.2-7.2M382 122.4l7.2-7.2M377.9 122.4l7.2-7.2M373.8 122.4l7.2-7.2M370 122.4l7.2-7.2M365.9 122.4l7.2-7.2M361.8 122.4l7.2-7.2M358.7 121.7l6.5-6.5M358.7 117.6l2.4-2.4"/><path class="cls-27" d="M476.3 115.2H358.5M476.3 122.4H358.5M476.3 122.4H358.5M476.3 115.2H358.5M358.5 122.4V119"/><path class="cls-32" d="M476.3 140.9l7-5.8V57.6l-7-7.2v90.5"/><path class="cls-25" d="M483.5 59.3l-7-7M483.5 63.1l-7-7M483.5 67.2l-7-7M483.5 71.3l-7-7M483.5 75.1l-7-7M483.5 79.2l-7-7M483.5 83.3l-7-7M483.5 87.3l-7-6.9M483.5 91.2l-7-7M483.5 95.3l-7-7M483.5 99.3l-7-6.9M483.5 103.2l-7-7M483.5 107.3l-7-7M483.5 111.3l-7-6.9M483.5 115.2l-7-7M483.5 119.3l-7-7M483.5 123.3l-7-6.9M483.5 127.4l-7-6.9M483.5 131.3l-7-7M483.3 135.1l-6.8-6.7M481.1 137l-4.6-4.5M478.9 138.9l-2.4-2.6M476.8 140.6l-.3-.2M476.5 140.1l7-6.9M476.5 136.1l7-7M476.5 132.2l7-6.9M476.5 128.1l7-6.9M476.5 124.1l7-7M476.5 120l7-7M476.5 116.1l7-6.9M476.5 112.1l7-7M476.5 108l7-7M476.5 104.1l7-6.9M476.5 100.1l7-7M476.5 96l7-7M476.5 91.9l7-7M476.5 88.1l7-7M476.5 84l7-7M476.5 79.9l7-7M476.5 76.1l7-7M476.5 72l7-7M476.5 67.9l7-7M476.5 64.1l6.5-6.8M476.5 60l4.6-4.8M476.5 55.9l2.7-2.6M476.5 51.8l.8-.7"/><path class="cls-32" d="M476.3 140.9l7-5.8V57.6l-7-7.2v90.5"/><path class="cls-25" d="M483.5 59.3l-7-7M483.5 63.1l-7-7M483.5 67.2l-7-7M483.5 71.3l-7-7M483.5 75.1l-7-7M483.5 79.2l-7-7M483.5 83.3l-7-7M483.5 87.3l-7-6.9M483.5 91.2l-7-7M483.5 95.3l-7-7M483.5 99.3l-7-6.9M483.5 103.2l-7-7M483.5 107.3l-7-7M483.5 111.3l-7-6.9M483.5 115.2l-7-7M483.5 119.3l-7-7M483.5 123.3l-7-6.9M483.5 127.4l-7-6.9M483.5 131.3l-7-7M483.3 135.1l-6.8-6.7M481.1 137l-4.6-4.5M478.9 138.9l-2.4-2.6M476.8 140.6l-.3-.2M476.5 140.1l7-6.9M476.5 136.1l7-7M476.5 132.2l7-6.9M476.5 128.1l7-6.9M476.5 124.1l7-7M476.5 120l7-7M476.5 116.1l7-6.9M476.5 112.1l7-7M476.5 108l7-7M476.5 104.1l7-6.9M476.5 100.1l7-7M476.5 96l7-7M476.5 91.9l7-7M476.5 88.1l7-7M476.5 84l7-7M476.5 79.9l7-7M476.5 76.1l7-7M476.5 72l7-7M476.5 67.9l7-7M476.5 64.1l6.5-6.8M476.5 60l4.6-4.8M476.5 55.9l2.7-2.6M476.5 51.8l.8-.7"/><path class="cls-27" d="M476.3 122.4v18.5M476.3 50.4v64.8M483.3 57.6v77.5M483.3 57.6v77.5M476.3 122.4v18.5M476.3 50.4v64.8"/><path class="cls-32" d="M602.1 50.4H476.3l7 7.2h118.8v-7.2"/><path class="cls-25" d="M602.3 53.7l-3.4-3.3M602.1 57.6l-7.2-7.2M598 57.6l-7.2-7.2M594.1 57.6l-7.2-7.2M590.1 57.6l-7.2-7.2M586 57.6l-7.2-7.2M582.1 57.6l-7.2-7.2M578.1 57.6l-7.2-7.2M574 57.6l-7.2-7.2M569.9 57.6l-7.2-7.2M566.1 57.6l-7.2-7.2M562 57.6l-7.2-7.2M557.9 57.6l-7.2-7.2M554.1 57.6l-7.2-7.2M550 57.6l-7.2-7.2M545.9 57.6l-7.2-7.2M541.8 57.6l-7.2-7.2M538 57.6l-7.2-7.2M533.9 57.6l-7.2-7.2M529.8 57.6l-7.2-7.2M526 57.6l-7.2-7.2M521.9 57.6l-7.2-7.2M517.8 57.6l-7.2-7.2M514 57.6l-7.2-7.2M509.9 57.6l-7.2-7.2M505.8 57.6l-7.2-7.2M501.7 57.6l-7.2-7.2M497.9 57.6l-7.2-7.2M493.8 57.6l-7.2-7.2M489.7 57.6l-7.2-7.2M485.9 57.6l-7.2-7.2M598.9 57.6l3.4-3.1M595.1 57.6l7.2-7.2M591 57.6l7.2-7.2M586.9 57.6l7.2-7.2M583.1 57.6l7.2-7.2M579 57.6l7.2-7.2M574.9 57.6l7.2-7.2M571.1 57.6l7.2-7.2M567 57.6l7.2-7.2M562.9 57.6l7.2-7.2M558.9 57.6l7.2-7.2M555 57.6l7.2-7.2M550.9 57.6l7.2-7.2M546.9 57.6l7.2-7.2M543 57.6l7.2-7.2M538.9 57.6l7.2-7.2M534.9 57.6l7.2-7.2M531 57.6l7.2-7.2M526.9 57.6l7.2-7.2M522.9 57.6l7.2-7.2M518.8 57.6l7.2-7.2M514.9 57.6l7.2-7.2M510.9 57.6l7.2-7.2M506.8 57.6l7.2-7.2M502.9 57.6l7.2-7.2M498.9 57.6l7.2-7.2M494.8 57.6l7.2-7.2M490.7 57.6l7.2-7.2M486.9 57.6l7.2-7.2M483 57.3l7-6.9M481.1 55.2l4.8-4.8M479.2 53.3l2.9-2.9M477.3 51.1l.7-.7"/><path class="cls-32" d="M602.1 50.4H476.3l7 7.2h118.8v-7.2"/><path class="cls-25" d="M602.3 53.7l-3.4-3.3M602.1 57.6l-7.2-7.2M598 57.6l-7.2-7.2M594.1 57.6l-7.2-7.2M590.1 57.6l-7.2-7.2M586 57.6l-7.2-7.2M582.1 57.6l-7.2-7.2M578.1 57.6l-7.2-7.2M574 57.6l-7.2-7.2M569.9 57.6l-7.2-7.2M566.1 57.6l-7.2-7.2M562 57.6l-7.2-7.2M557.9 57.6l-7.2-7.2M554.1 57.6l-7.2-7.2M550 57.6l-7.2-7.2M545.9 57.6l-7.2-7.2M541.8 57.6l-7.2-7.2M538 57.6l-7.2-7.2M533.9 57.6l-7.2-7.2M529.8 57.6l-7.2-7.2M526 57.6l-7.2-7.2M521.9 57.6l-7.2-7.2M517.8 57.6l-7.2-7.2M514 57.6l-7.2-7.2M509.9 57.6l-7.2-7.2M505.8 57.6l-7.2-7.2M501.7 57.6l-7.2-7.2M497.9 57.6l-7.2-7.2M493.8 57.6l-7.2-7.2M489.7 57.6l-7.2-7.2M485.9 57.6l-7.2-7.2M598.9 57.6l3.4-3.1M595.1 57.6l7.2-7.2M591 57.6l7.2-7.2M586.9 57.6l7.2-7.2M583.1 57.6l7.2-7.2M579 57.6l7.2-7.2M574.9 57.6l7.2-7.2M571.1 57.6l7.2-7.2M567 57.6l7.2-7.2M562.9 57.6l7.2-7.2M558.9 57.6l7.2-7.2M555 57.6l7.2-7.2M550.9 57.6l7.2-7.2M546.9 57.6l7.2-7.2M543 57.6l7.2-7.2M538.9 57.6l7.2-7.2M534.9 57.6l7.2-7.2M531 57.6l7.2-7.2M526.9 57.6l7.2-7.2M522.9 57.6l7.2-7.2M518.8 57.6l7.2-7.2M514.9 57.6l7.2-7.2M510.9 57.6l7.2-7.2M506.8 57.6l7.2-7.2M502.9 57.6l7.2-7.2M498.9 57.6l7.2-7.2M494.8 57.6l7.2-7.2M490.7 57.6l7.2-7.2M486.9 57.6l7.2-7.2M483 57.3l7-6.9M481.1 55.2l4.8-4.8M479.2 53.3l2.9-2.9M477.3 51.1l.7-.7"/><path class="cls-27" d="M483.3 57.6h118.8M476.3 50.4h125.8M476.3 50.4h125.8M483.3 57.6h118.8"/><path class="cls-32" d="M344.3 47.5h-4.1v38.4h4.1V47.5"/><path class="cls-25" d="M340.5 50.6l3.1-3.1M340.5 54.9l4-4M340.5 59.3l4-4.1M340.5 63.6l4-4.1M340.5 67.7l4-4.1M340.5 72l4-4.1M340.5 76.3l4-4.1M340.5 80.4l4-4.1M340.5 84.7l4-4.1M343.3 85.9l1.2-1"/><path class="cls-32" d="M344.3 47.5h-4.1v38.4h4.1V47.5"/><path class="cls-25" d="M340.5 50.6l3.1-3.1M340.5 54.9l4-4M340.5 59.3l4-4.1M340.5 63.6l4-4.1M340.5 67.7l4-4.1M340.5 72l4-4.1M340.5 76.3l4-4.1M340.5 80.4l4-4.1M340.5 84.7l4-4.1M343.3 85.9l1.2-1"/><path class="cls-27" d="M344.3 85.9V47.5M340.2 85.9V47.5M340.2 85.9V47.5M344.3 85.9V47.5"/><path class="cls-32" d="M344.3 140.9h-4.1v-29.8h4.1v29.8"/><path class="cls-25" d="M340.5 114.5l3.3-3.4M340.5 118.8l4-4.1M340.5 122.9l4-4.1M340.5 127.2l4-4.1M340.5 131.5l4-4.1M340.5 135.8l4-4.1M340.5 139.9l4-4.1M343.6 140.9l.9-.8"/><path class="cls-32" d="M340.2 140.9h4.1v-29.8h-4.1v29.8"/><path class="cls-25" d="M340.5 114.5l3.3-3.4M340.5 118.8l4-4.1M340.5 122.9l4-4.1M340.5 127.2l4-4.1M340.5 131.5l4-4.1M340.5 135.8l4-4.1M340.5 139.9l4-4.1M343.6 140.9l.9-.8"/><path class="cls-27" d="M344.3 140.9v-29.8M340.2 140.9v-29.8M340.2 140.9v-29.8M344.3 140.9v-29.8M344.3 140.9h-4.1M340.2 47.5h4.1"/><path class="cls-2" d="M344.3 111.1V85.9M340.2 111.1V85.9"/><path class="cls-26" d="M344.3 109.7h-4.1M344.3 87.1h-4.1"/><path class="cls-27" d="M344.3 111.1h-4.1M344.3 85.9h-4.1"/><path class="cls-25" d="M367.1 109.7c0-12.4-10.2-22.7-22.7-22.7M344.3 109.7h22.8"/><path class="cls-32" d="M483.3 135.1l-7 5.8h96v-5.8h-89"/><path class="cls-25" d="M572.5 136.1l-1.2-1M572.5 140.1l-5.2-5M569.2 140.9l-5.8-5.8M565.1 140.9l-5.8-5.8M561 140.9l-5.7-5.8M557.2 140.9l-5.8-5.8M553.1 140.9l-5.8-5.8M549 140.9l-5.7-5.8M544.9 140.9l-5.7-5.8M541.1 140.9l-5.8-5.8M537 140.9l-5.7-5.8M532.9 140.9l-5.7-5.8M529.1 140.9l-5.8-5.8M525 140.9l-5.7-5.8M520.9 140.9l-5.7-5.8M516.9 140.9l-5.8-5.8M513 140.9l-5.7-5.8M508.9 140.9l-5.7-5.8M504.9 140.9l-5.8-5.8M501 140.9l-5.7-5.8M496.9 140.9l-5.7-5.8M492.9 140.9l-5.8-5.8M489 140.9l-5.7-5.8M484.9 140.9l-3.8-3.9M480.9 140.9l-2-2M476.8 140.9v-.3M571.8 140.9l.7-.5M568 140.9l4.5-4.6M563.9 140.9l5.8-5.8M559.8 140.9l5.8-5.8M555.7 140.9l5.8-5.8M551.9 140.9l5.8-5.8M547.8 140.9l5.8-5.8M543.7 140.9l5.8-5.8M539.9 140.9l5.8-5.8M535.8 140.9l5.8-5.8M531.7 140.9l5.8-5.8M527.9 140.9l5.8-5.8M523.8 140.9l5.8-5.8M519.7 140.9l5.8-5.8M515.7 140.9l5.7-5.8M511.8 140.9l5.8-5.8M507.7 140.9l5.8-5.8M503.7 140.9l5.7-5.8M499.8 140.9l5.8-5.8M495.7 140.9l5.8-5.8M491.7 140.9l5.7-5.8M487.8 140.9l5.8-5.8M483.7 140.9l5.8-5.8M479.7 140.9l5.7-5.8"/><path class="cls-32" d="M483.3 135.1l-7 5.8h96v-5.8h-89"/><path class="cls-25" d="M572.5 136.1l-1.2-1M572.5 140.1l-5.2-5M569.2 140.9l-5.8-5.8M565.1 140.9l-5.8-5.8M561 140.9l-5.7-5.8M557.2 140.9l-5.8-5.8M553.1 140.9l-5.8-5.8M549 140.9l-5.7-5.8M544.9 140.9l-5.7-5.8M541.1 140.9l-5.8-5.8M537 140.9l-5.7-5.8M532.9 140.9l-5.7-5.8M529.1 140.9l-5.8-5.8M525 140.9l-5.7-5.8M520.9 140.9l-5.7-5.8M516.9 140.9l-5.8-5.8M513 140.9l-5.7-5.8M508.9 140.9l-5.7-5.8M504.9 140.9l-5.8-5.8M501 140.9l-5.7-5.8M496.9 140.9l-5.7-5.8M492.9 140.9l-5.8-5.8M489 140.9l-5.7-5.8M484.9 140.9l-3.8-3.9M480.9 140.9l-2-2M476.8 140.9v-.3M571.8 140.9l.7-.5M568 140.9l4.5-4.6M563.9 140.9l5.8-5.8M559.8 140.9l5.8-5.8M555.7 140.9l5.8-5.8M551.9 140.9l5.8-5.8M547.8 140.9l5.8-5.8M543.7 140.9l5.8-5.8M539.9 140.9l5.8-5.8M535.8 140.9l5.8-5.8M531.7 140.9l5.8-5.8M527.9 140.9l5.8-5.8M523.8 140.9l5.8-5.8M519.7 140.9l5.8-5.8M515.7 140.9l5.7-5.8M511.8 140.9l5.8-5.8M507.7 140.9l5.8-5.8M503.7 140.9l5.7-5.8M499.8 140.9l5.8-5.8M495.7 140.9l5.8-5.8M491.7 140.9l5.7-5.8M487.8 140.9l5.8-5.8M483.7 140.9l5.8-5.8M479.7 140.9l5.7-5.8"/><path class="cls-27" d="M572.3 135.1h-89M572.3 140.9h-96M572.3 140.9h-96M572.3 135.1h-89M598.5 135.1v5.8"/><path class="cls-26" d="M596.8 135.1v5.8M574 135.1v5.8"/><path class="cls-27" d="M598.5 135.1v5.8M572.3 135.1v5.8"/><path class="cls-25" d="M596.7 135.1c0-12.4-10.2-22.7-22.7-22.7M574 135.1v-22.6"/><path class="cls-32" d="M250.5 109.4v4.3h-53.1v-4.3h53.1"/><path class="cls-25" d="M197.7 112.8l3.1-3.4M200.8 113.7l4.3-4.3M205.1 113.7l4.3-4.3M209.4 113.7l4.3-4.3M213.5 113.7l4.3-4.3M217.8 113.7l4.3-4.3M222.1 113.7l4.4-4.3M226.2 113.7l4.3-4.3M230.5 113.7l4.4-4.3M234.9 113.7l4.3-4.3M239.2 113.7l4.3-4.3M243.3 113.7l4.3-4.3M247.6 113.7l3.1-3.1"/><path class="cls-32" d="M250.5 113.7v-4.3h-53.1v4.3h53.1"/><path class="cls-25" d="M197.7 112.8l3.1-3.4M200.8 113.7l4.3-4.3M205.1 113.7l4.3-4.3M209.4 113.7l4.3-4.3M213.5 113.7l4.3-4.3M217.8 113.7l4.3-4.3M222.1 113.7l4.4-4.3M226.2 113.7l4.3-4.3M230.5 113.7l4.4-4.3M234.9 113.7l4.3-4.3M239.2 113.7l4.3-4.3M243.3 113.7l4.3-4.3M247.6 113.7l3.1-3.1"/><path class="cls-27" d="M250.5 109.4h-53.1M250.5 113.7h-53.1M197.4 109.4v4.3M250.5 113.7h-53.1M250.5 109.4h-53.1"/><path class="cls-32" d="M275.7 113.7H297l4.3-4.3h-25.6v4.3"/><path class="cls-25" d="M275.9 111.1l1.4-1.7M277.3 113.7l4.4-4.3M281.7 113.7l4.3-4.3M285.7 113.7l4.4-4.3M290.1 113.7l4.3-4.3M294.4 113.7l4.3-4.3"/><path class="cls-32" d="M275.7 113.7H297l4.3-4.3h-25.6v4.3"/><path class="cls-25" d="M275.9 111.1l1.4-1.7M277.3 113.7l4.4-4.3M281.7 113.7l4.3-4.3M285.7 113.7l4.4-4.3M290.1 113.7l4.3-4.3M294.4 113.7l4.3-4.3"/><path class="cls-27" d="M301.3 109.4h-25.6M297 113.7h-21.3M297 113.7h-21.3M301.3 109.4h-25.6"/><path class="cls-2" d="M275.7 109.4h-25.2M275.7 113.7h-25.2"/><path class="cls-26" d="M274.5 109.4v4.3M251.9 109.4v4.3"/><path class="cls-27" d="M275.7 109.4v4.3M250.5 109.4v4.3"/><path class="cls-25" d="M251.8 113.7c0 12.4 10.2 22.7 22.7 22.7M274.5 113.7v22.6"/><path class="cls-32" d="M197.4 41.5h-7.2l7.2 7.2v-7.2"/><path class="cls-25" d="M197.7 42l-.5-.5M197.7 45.8l-4.6-4.3M196.2 47.5l1.5-1.2M194.3 45.3l3.4-3.1M192.4 43.4l1.9-1.9"/><path class="cls-32" d="M197.4 41.5h-7.2l7.2 7.2v-7.2"/><path class="cls-25" d="M197.7 42l-.5-.5M197.7 45.8l-4.6-4.3M196.2 47.5l1.5-1.2M194.3 45.3l3.4-3.1M192.4 43.4l1.9-1.9"/><path class="cls-27" d="M190.2 41.5h7.2M190.2 41.5h7.2"/><path class="cls-26" d="M197.4 47.5h2.6v1.7h-2.6zM227.2 47.5h6v1.7h-6zM200.1 47.5h27.1v1.7h-27.1zM200.1 47.5h27.1"/><path class="cls-2" d="M199.6 41.5h27.8"/><path class="cls-26" d="M226.9 41.5h.5"/><path class="cls-32" d="M197.4 41.5h2.2v6h-2.2"/><path class="cls-25" d="M199.8 44.1l-2.1-2.1M199.1 47.5l-1.4-1.7M197.7 46.3l2.1-2.2M197.7 42.2l.4-.7"/><path class="cls-32" d="M233.2 41.5h-5.8v6h5.8"/><path class="cls-25" d="M233.4 41.5h-.2M233.4 45.6l-4.3-4.1M231.3 47.5l-3.6-3.6M232.2 47.5l1.2-1M228.4 47.5l5-5M227.7 44.1l2.6-2.6"/><path class="cls-27" d="M199.6 41.5v6M227.4 41.5v6M199.6 41.5v6M197.4 41.5h2.2M227.4 41.5v6M233.2 41.5h-5.8M197.4 48.7v-1.2M233.2 48.7v-1.2M197.4 41.5h2.2M233.2 41.5h-5.8M199.6 47.5h-2.2M227.4 47.5h5.8"/><path class="cls-25" d="M200 76.4c14.9 0 27.2-12.3 27.2-27.2M200.1 49.2v27.3"/><path class="cls-32" d="M302.1 47.5l-7-7v17.3l7 7.2V47.5"/><path class="cls-25" d="M302.3 50.4l-7-7M302.3 54.5l-7-7M302.3 58.3l-7-7M302.3 62.4l-7-7M300.6 63.3l1.7-1.4M298.7 61.4l3.6-3.6M296.8 59.3l5.5-5.6M295.3 56.9l7-7M295.3 52.8l6-6.3M295.3 48.7l4.1-4.1M295.3 44.6l2-1.9M295.3 40.8v-.3"/><path class="cls-32" d="M302.1 47.5l-7-7v17.3l7 7.2V47.5"/><path class="cls-25" d="M302.3 50.4l-7-7M302.3 54.5l-7-7M302.3 58.3l-7-7M302.3 62.4l-7-7M300.6 63.3l1.7-1.4M298.7 61.4l3.6-3.6M296.8 59.3l5.5-5.6M295.3 56.9l7-7M295.3 52.8l6-6.3M295.3 48.7l4.1-4.1M295.3 44.6l2-1.9M295.3 40.8v-.3"/><path class="cls-27" d="M302.1 65V47.5M295.1 57.8V40.5M295.1 57.8V40.5M302.1 65V47.5"/><path class="cls-32" d="M240.1 57.8l-6.9 7.2h68.9l-7-7.2h-55"/><path class="cls-25" d="M300.9 65l-7.2-7.2M296.8 65l-7.2-7.2M292.7 65l-7.2-7.2M288.9 65l-7.2-7.2M284.8 65l-7.2-7.2M280.7 65l-7.2-7.2M276.9 65l-7.2-7.2M272.8 65l-7.2-7.2M268.7 65l-7.2-7.2M264.9 65l-7.2-7.2M260.8 65l-7.2-7.2M256.7 65l-7.2-7.2M252.6 65l-7.2-7.2M248.8 65l-7.2-7.2M244.7 65l-5.8-5.7M240.6 65l-3.6-3.8M236.8 65l-1.9-1.7M298.9 65l1.7-1.7M294.9 65l3.8-3.6M291 65l5.8-5.7M286.9 65l7.2-7.2M282.9 65l7.2-7.2M279 65l7.2-7.2M274.9 65l7.2-7.2M270.9 65l7.2-7.2M266.8 65l7.2-7.2M262.9 65l7.2-7.2M258.9 65l7.2-7.2M254.8 65l7.2-7.2M250.9 65l7.2-7.2M246.9 65l7.2-7.2M242.8 65l7.2-7.2M238.9 65l7.2-7.2M234.9 65l7.2-7.2"/><path class="cls-32" d="M240.1 57.8l-6.9 7.2h68.9l-7-7.2h-55"/><path class="cls-25" d="M300.9 65l-7.2-7.2M296.8 65l-7.2-7.2M292.7 65l-7.2-7.2M288.9 65l-7.2-7.2M284.8 65l-7.2-7.2M280.7 65l-7.2-7.2M276.9 65l-7.2-7.2M272.8 65l-7.2-7.2M268.7 65l-7.2-7.2M264.9 65l-7.2-7.2M260.8 65l-7.2-7.2M256.7 65l-7.2-7.2M252.6 65l-7.2-7.2M248.8 65l-7.2-7.2M244.7 65l-5.8-5.7M240.6 65l-3.6-3.8M236.8 65l-1.9-1.7M298.9 65l1.7-1.7M294.9 65l3.8-3.6M291 65l5.8-5.7M286.9 65l7.2-7.2M282.9 65l7.2-7.2M279 65l7.2-7.2M274.9 65l7.2-7.2M270.9 65l7.2-7.2M266.8 65l7.2-7.2M262.9 65l7.2-7.2M258.9 65l7.2-7.2M254.8 65l7.2-7.2M250.9 65l7.2-7.2M246.9 65l7.2-7.2M242.8 65l7.2-7.2M238.9 65l7.2-7.2M234.9 65l7.2-7.2"/><path class="cls-27" d="M295.1 57.8h-55M302.1 65h-68.9M302.1 65h-68.9M295.1 57.8h-55"/><path class="cls-32" d="M301.3 109.4l-4.3 4.3v112.4h4.3V109.4"/><path class="cls-25" d="M297.3 115.2l4.3-4.3M297.3 119.5l4.3-4.3M297.3 123.6l4.3-4.3M297.3 127.9l4.3-4.3M297.3 132.2l4.3-4.3M297.3 136.3l4.3-4.3M297.3 140.6l4.3-4.3M297.3 144.9l4.3-4.3M297.3 149.3l4.3-4.4M297.3 153.3l4.3-4.3M297.3 157.7l4.3-4.4M297.3 162l4.3-4.3M297.3 166.1l4.3-4.4M297.3 170.4l4.3-4.3M297.3 174.7l4.3-4.3M297.3 179l4.3-4.3M297.3 183.1l4.3-4.3M297.3 187.4l4.3-4.3M297.3 191.7l4.3-4.3M297.3 195.8l4.3-4.3M297.3 200.1l4.3-4.3M297.3 204.5l4.3-4.4M297.3 208.8l4.3-4.3M297.3 212.9l4.3-4.4M297.3 217.2l4.3-4.3M297.3 221.5l4.3-4.3M297.3 225.6l4.3-4.3M301.1 226.1l.5-.5"/><path class="cls-32" d="M301.3 109.4l-4.3 4.3v112.4h4.3V109.4"/><path class="cls-25" d="M297.3 115.2l4.3-4.3M297.3 119.5l4.3-4.3M297.3 123.6l4.3-4.3M297.3 127.9l4.3-4.3M297.3 132.2l4.3-4.3M297.3 136.3l4.3-4.3M297.3 140.6l4.3-4.3M297.3 144.9l4.3-4.3M297.3 149.3l4.3-4.4M297.3 153.3l4.3-4.3M297.3 157.7l4.3-4.4M297.3 162l4.3-4.3M297.3 166.1l4.3-4.4M297.3 170.4l4.3-4.3M297.3 174.7l4.3-4.3M297.3 179l4.3-4.3M297.3 183.1l4.3-4.3M297.3 187.4l4.3-4.3M297.3 191.7l4.3-4.3M297.3 195.8l4.3-4.3M297.3 200.1l4.3-4.3M297.3 204.5l4.3-4.4M297.3 208.8l4.3-4.3M297.3 212.9l4.3-4.4M297.3 217.2l4.3-4.3M297.3 221.5l4.3-4.3M297.3 225.6l4.3-4.3M301.1 226.1l.5-.5"/><path class="cls-27" d="M301.3 226.1V109.4M297 226.1V113.7M297 226.1V113.7M301.3 226.1V109.4M301.3 226.1H297"/><path class="cls-26" d="M304.2 72.7H321v.7h-16.8zM304.2 57.3h.5v15.4h-.5zM302.5 72.7h1.7v.7h-1.7z"/><path class="cls-26" d="M304.2 56.9H338v.5h-33.8zM321 72.7h17v.7h-17z"/><path class="cls-26" d="M337.6 57.3h.5v15.4h-.5zM338.1 72.7h1.7v.7h-1.7z"/><path class="cls-31" d="M348.6 122.9h9.8v2.4h-9.8z"/><path class="cls-26" d="M348.6 122.9h9.8v2.4h-9.8z"/><path class="cls-31" d="M348.4 125.3h10.3v.2h-10.3z"/><path class="cls-26" d="M348.4 125.3h10.3v.2h-10.3z"/><path class="cls-28" d="M349.3 125.5v8.4"/><path class="cls-4" d="M357.7 125.5v1.7l-.4 1.4-1 1.7-1 1.2-1.2 1-1.4.9-1.7.5h-1.7"/><path class="cls-25" d="M148.8 233.3c0 15.2 12.5 27.8 27.8 27.8M176.5 261.1v-27.8"/><path class="cls-7" d="M148.7 233.3v2.8l-.5 2.7-.7 2.6-.7 2.7-1.2 2.4-1.5 2.4-1.6 2.1-2 1.9-1.9 2-2.1 1.6-2.4 1.2-2.4 1.2-2.7 1-2.6.7-2.7.3-2.6.2M121.1 261.1v-27.8"/><path class="cls-25" d="M121.1 233.7v-.4"/><path class="cls-32" d="M365.9 47.5h-7v20.4h7V47.5"/><path class="cls-25" d="M366.1 50.1l-2.6-2.6M366.1 54l-6.7-6.5M366.1 58.1l-6.9-7M366.1 62.1l-6.9-6.9M366.1 66l-6.9-7M363.7 67.9l-4.5-4.8M359.9 67.9l-.7-.7M364.2 67.9l1.9-1.7M360.1 67.9l6-5.8M359.2 65l6.9-6.9M359.2 60.9l6.9-6.9M359.2 57.1l6.9-7M359.2 53l5.5-5.5M359.2 48.9l1.4-1.4"/><path class="cls-32" d="M365.9 47.5h-7v20.4h7V47.5"/><path class="cls-25" d="M366.1 50.1l-2.6-2.6M366.1 54l-6.7-6.5M366.1 58.1l-6.9-7M366.1 62.1l-6.9-6.9M366.1 66l-6.9-7M363.7 67.9l-4.5-4.8M359.9 67.9l-.7-.7M364.2 67.9l1.9-1.7M360.1 67.9l6-5.8M359.2 65l6.9-6.9M359.2 60.9l6.9-6.9M359.2 57.1l6.9-7M359.2 53l5.5-5.5M359.2 48.9l1.4-1.4"/><path class="cls-27" d="M365.9 67.9V47.5M358.9 67.9V47.5M358.9 67.9V47.5M365.9 67.9V47.5M365.9 67.9h-7"/><path class="cls-26" d="M426.6 47.5v67.7"/><path class="cls-25" d="M252 231.1v-1.9c0-.6.2-1.2.3-1.8.1-.6.3-1.2.5-1.8l.6-1.8c.2-.6.5-1.1.8-1.7.3-.5.6-1.1 1-1.6.3-.5.7-1 1.1-1.5.4-.5.8-.9 1.3-1.4.4-.4.9-.9 1.4-1.3.5-.4 1-.8 1.5-1.1.5-.3 1-.7 1.6-1 .5-.3 1.1-.6 1.7-.8l1.8-.6c.6-.2 1.2-.3 1.8-.5l1.8-.3h1.9M270.9 212.1v19M251.9 231.1v-1.4M251.9 228.2l-.2-.9M251.7 227.3l-.3-.5"/><path class="cls-17" d="M251.2 225.6l-.7-1.7"/><path class="cls-25" d="M250 222.7l-.3-.5M249.7 222.2l-.4-.7"/><path class="cls-18" d="M248.8 220.5l-1.2-1.4"/><path class="cls-25" d="M246.6 217.9l-.2-.2M246.4 217.7l-1-.8M244.5 216l-1-.7"/><path class="cls-29" d="M243.5 215.3l-1.7-1"/><path class="cls-25" d="M241.8 214.3l-.9-.5M239.4 213.3l-.9-.4M238.5 212.9h-.3M236.8 212.4l-1.5-.3M233.9 212.1h-1"/><path class="cls-7" d="M232.9 212.1v19"/><path class="cls-25" d="M232.9 230.6v.5M546.7 231.2v-1.9c0-.6-.2-1.2-.3-1.8-.1-.6-.3-1.2-.5-1.8l-.6-1.8c-.2-.6-.5-1.1-.8-1.7-.3-.5-.6-1.1-1-1.6-.3-.5-.7-1-1.1-1.5-.4-.5-.8-.9-1.3-1.4-.4-.4-.9-.9-1.4-1.3-.5-.4-1-.8-1.5-1.1-.5-.3-1-.7-1.6-1-.5-.3-1.1-.6-1.7-.8l-1.8-.6c-.6-.2-1.2-.3-1.8-.5l-1.8-.3h-1.9M527.7 212.1v19M546.6 231.1l.3-1.4M547.1 228.2v-.7M547.1 227.5l.2-.7"/><path class="cls-17" d="M547.6 225.6l.5-1.7"/><path class="cls-25" d="M548.8 222.7l.2-.5M549 222.2l.5-.7M550.2 220.3l.7-1.2"/><path class="cls-20" d="M550.9 219.1l1.5-1.4"/><path class="cls-25" d="M552.4 217.7l.5-.5"/><path class="cls-6" d="M553.6 216.5l1.7-1.2"/><path class="cls-25" d="M556.2 214.5l.5-.2M556.7 214.3l.7-.2"/><path class="cls-18" d="M558.4 213.6l1.9-.7"/><path class="cls-25" d="M561.5 212.6h.5M562 212.6l.9-.2"/><path class="cls-16" d="M563.9 212.1h1.9"/><path class="cls-7" d="M565.8 212.1v19"/><path class="cls-25" d="M565.8 230.6v.5M450.9 231.2v-1.9c0-.6-.2-1.2-.3-1.8-.1-.6-.3-1.2-.5-1.8l-.6-1.8c-.2-.6-.5-1.1-.8-1.7-.3-.5-.6-1.1-1-1.6-.3-.5-.7-1-1.1-1.5-.4-.5-.8-.9-1.3-1.4-.4-.4-.9-.9-1.4-1.3-.5-.4-1-.8-1.5-1.1-.5-.3-1.1-.7-1.6-1-.5-.3-1.1-.6-1.7-.8l-1.8-.6c-.6-.2-1.2-.3-1.8-.5l-1.8-.3h-1.9M431.9 212.1v19M450.9 231.1l.2-1.4M451.3 228.2v-.7M451.3 227.5l.3-.7"/><path class="cls-17" d="M451.8 225.6l.5-1.7"/><path class="cls-25" d="M453 222.7l.3-.5M453.3 222.2l.4-.7M454.5 220.3l.7-1.2"/><path class="cls-20" d="M455.2 219.1l1.2-1.4"/><path class="cls-25" d="M456.4 217.7l.9-.8M458.3 216l1-.7"/><path class="cls-29" d="M459.3 215.3l1.6-1"/><path class="cls-25" d="M460.9 214.3l1-.5M463.3 213.3l1-.4"/><path class="cls-15" d="M464.3 212.9l1.9-.3"/><path class="cls-25" d="M466.2 212.6l1.2-.2M468.9 212.1h.9"/><path class="cls-7" d="M469.8 212.1v19"/><path class="cls-25" d="M469.8 230.6v.5M355.1 231.2v-1.9c0-.6-.2-1.2-.3-1.8s-.3-1.2-.5-1.8l-.6-1.8c-.2-.6-.5-1.1-.8-1.7-.3-.5-.6-1.1-1-1.6-.3-.5-.7-1-1.1-1.5-.4-.5-.8-.9-1.3-1.4s-.9-.9-1.4-1.3c-.5-.4-1-.8-1.5-1.1-.5-.3-1.1-.7-1.6-1-.5-.3-1.1-.6-1.7-.8l-1.8-.6c-.6-.2-1.2-.3-1.8-.5l-1.8-.3H336M336.1 212.1v19M355.1 231.1v-1.4M355.3 228.2l.3-.7M355.6 227.5v-.7"/><path class="cls-17" d="M355.8 225.6l.7-1.7"/><path class="cls-25" d="M357 222.7l.3-.5M357.3 222.2l.4-.7"/><path class="cls-18" d="M358.2 220.5l1.2-1.4"/><path class="cls-25" d="M360.4 217.9l.2-.2M360.6 217.7l1-.8M362.5 216l1-.7"/><path class="cls-29" d="M363.5 215.3l1.7-1"/><path class="cls-25" d="M365.2 214.3l.9-.5M367.6 213.3l.9-.4"/><path class="cls-15" d="M368.5 212.9l2-.3"/><path class="cls-25" d="M370.5 212.6l1.2-.2M373.1 212.1h1"/><path class="cls-7" d="M374.1 212.1v19"/><path class="cls-25" d="M374.1 230.6v.5M605.5 192.2c-11 .3-19.9 9.6-19.6 20.6M586 212.9l19.9-.5"/><path class="cls-7" d="M605.4 192.2l-3.8-.2-3.9-1.2-3.6-1.7-3.1-2.4-2.4-3.1-1.9-3.4-1.4-3.8-.5-3.9"/><path class="cls-21" d="M584.8 172.5l20.1-.4"/><path class="cls-25" d="M603 93.8h-1.9c-.6 0-1.2-.1-1.8-.2-.6-.1-1.2-.2-1.8-.4l-1.8-.6c-.6-.2-1.1-.5-1.7-.8-.6-.3-1.1-.6-1.6-.9-.5-.3-1-.7-1.5-1.1-.5-.4-1-.8-1.4-1.2-.5-.4-.9-.9-1.3-1.3-.4-.5-.8-1-1.1-1.5-.4-.5-.7-1-1-1.6-.3-.5-.6-1.1-.8-1.7-.3-.6-.5-1.1-.7-1.7-.2-.6-.4-1.2-.5-1.8l-.3-1.8c0-.6-.1-1.2-.1-1.9M583.6 75.3l18.9-.4M603 93.8l-1.4.3M600.1 94.1l-.9.2M599.2 94.3l-.5.2"/><path class="cls-17" d="M597.5 94.8l-1.7.7"/><path class="cls-25" d="M594.6 96l-.5.2M594.1 96.2l-.7.5"/><path class="cls-19" d="M592.5 97.4l-1.5 1"/><path class="cls-25" d="M590.1 99.6l-.3.2M589.8 99.8l-.7.7M588.1 101.5l-.7 1.2"/><path class="cls-20" d="M587.4 102.7l-.9 1.7"/><path class="cls-25" d="M586.5 104.4l-.3.7M585.7 106.3l-.4 1.4M585 109.2l-.2.5M584.8 109.7l-.3.9M584.5 112.1v1.2"/><path class="cls-7" d="M584.5 113.3l19-.5"/><path class="cls-25" d="M603 112.8h.5"/><path class="cls-11" d="M119.4 234h58.8v29.3h-58.8z"/><path class="cls-26" d="M373.8 243.3v19h-37.2v-19"/><path class="cls-26" d="M352.2 246.2l2.9-2.9 2.9 2.9h-5.8zM373.8 243.3h-37.2M271.6 91.2v.7M271.6 91.9v1M271.6 92.9l-.3.7M271.3 93.6l-.2.5M270.6 95.3l-.2.2M269.7 96.7l-.5.5M269.2 97.2l-.7.5M268.5 97.7l-.5.4M268 98.1l-.5.3M266.3 99.1h-.2M264.6 99.6h-.7M263.9 99.6h-.7M263.2 99.6h-1M262.2 99.6h-.5M260.3 99.1h-.2M258.9 98.4l-.5-.3M258.4 98.1l-.7-.4M257.7 97.7l-.5-.5M257.2 97.2l-.5-.5M256 95.5l-.3-.2M255.3 94.1l-.3-.5M255 93.6l-.2-.7M254.8 92.9v-1M254.8 91.9v-.7M254.8 89.7v-.2M255.3 88.1v-.3M255.3 87.8l.4-.7M255.7 87.1l.3-.7M256 86.4l.7-.7M257.7 84.7l.2-.2M259.1 83.7l.7-.4M259.8 83.3l1-.3M260.8 83l.7-.2M261.5 82.8h.2M263.2 82.8h.2M264.9 82.8l.7.2M265.6 83l.7.3M266.3 83.3l1 .4M267.3 83.7h.2M268.5 84.7h.2M269.7 85.9l.4.5M270.1 86.4l.5.7M270.6 87.1l.5.7M271.1 87.8v.5M271.6 89.7v.3"/></g><g id="Mbel"><path class="cls-3" d="M377.7 180.7h50.9v22.6h-50.9zM378.9 170.7h12.8M378.9 179.2v-8.5M391.7 170.7v8.5M396.7 170.7h12.7M396.7 179.2v-8.5M409.4 170.7v8.5M414.4 170.7h12.7M414.4 179.2v-8.5M427.1 170.7v8.5M378.9 213.2h12.8M378.9 204.7v8.5M391.7 213.2v-8.5M396.7 213.2h12.7M396.7 204.7v8.5M409.4 213.2v-8.5M414.4 213.2h12.7M414.4 204.7v8.5M427.1 213.2v-8.5M521.9 177.6h28.3v14.2h-28.3zM562.8 146.8V166l-.1.1-.1.1c-.1.1 0 0-.1 0h-.2H537.2h-.2-.2-.1l-.1-.1-.1-.1v-.1-.2-18.9h26.6"/><path class="cls-3" d="M567.3 143.1V166l-.1.1-.1.1h-.1-.2-3-.2-.2-.1l-.1-.1-.1-.1v-.1-.2V143.1v-.3c0-.1.1-.2.2-.3 0 0 .2-.1.3-.2H567c.1 0 .2.1.3.2 0 0 .1.2.2.3v.3M536.1 146.8v-3.7-.3c0-.1-.1-.2-.2-.3 0 0-.2-.1-.3-.2h-25.2-.2-.2-.1l-.1.1-.1.1v4.2M509.4 149h53.3M509.5 146.8V166l.1.1.1.1h25.9l.1-.1.1-.1v-.1-.2-18.9h-26.6M505 143.1V166l.1.1.1.1H509l.1-.1.1-.1v-.1-.2V143.1v-.3c0-.1-.1-.2-.2-.3 0 0-.2-.1-.3-.2H505.3c-.1 0-.2.1-.3.2 0 0-.1.2-.2.3v.3M536.1 146.8v-3.7-.3c0-.1.1-.2.2-.3 0 0 .2-.1.3-.2h25.7l.1.1.1.1v4.2M504.7 196.5c-3.1 2.6-6 5.3-8.6 8.3-.6.7-.8 1.7-.4 2.6 1.4 2.9 3.6 5.4 6.2 7.1.8.5 1.8.5 2.6 0 3.3-2.2 6.5-4.7 9.4-7.4-.3-.7-.7-1.3-1.1-1.9-2.1-2.6-4.2-5-6.5-7.4-.5-.5-1-1-1.6-1.3h-.1"/><path class="cls-3" d="M503.7 196.9h-1c-1.5.4-2.9 1.1-4 2.1-1.5 1.4-2.9 2.9-4.1 4.6-.9 1.2-1.6 2.5-2.1 3.8-.3.8-.3 1.7.1 2.4 1.6 3 3.9 5.6 6.6 7.5.7.5 1.6.7 2.4.5 1.4-.4 2.8-.9 4.1-1.6 1.8-1 3.5-2.2 5.1-3.5 1.2-1 2.1-2.2 2.6-3.7.1-.3.2-.7.2-1M484.7 115.9l.2-56.6h15.6l-.2 56.6h-15.6zM523.1 59.3h45.4v56.6h-45.4zM227.2 167.7v56.7h-28.6l.3-56.9 28.3.2zM295.8 114.9l-.2 51.2H280l.2-51.2h15.6zM268 196.1h7.7v11.3H268zM275.7 179h19.9v45.4h-19.9zM302.8 166.5h10.8v56.6h-10.8z"/></g><g id="Text"><path d="M536.3 91.3v.6h-3.8l3-4.8h-2.7v-.6h3.8l-3 4.8h2.7zM538.1 87.2c0 .2-.2.4-.4.4s-.4-.2-.4-.4.2-.4.4-.4.4.2.4.4zm0 4.7h-.6v-3.7h.6v3.7zM540 88.2v.5c.3-.4.6-.6 1-.6s.8.2 1 .7c.3-.5.6-.7 1.2-.7s.7.1.9.4c.2.2.2.4.2 1v2.4h-.6v-2.2c0-.4 0-.6-.1-.7-.1-.2-.4-.3-.6-.3-.5 0-.8.4-.8 1v2.2h-.6v-2.2c0-.4 0-.5-.1-.7-.1-.2-.3-.3-.6-.3-.5 0-.9.4-.9 1v2.2h-.6v-3.7h.6zM546.3 88.2v.5c.3-.4.6-.6 1-.6s.8.2 1 .7c.3-.5.6-.7 1.2-.7s.7.1.9.4c.2.2.2.4.2 1v2.4h-.6v-2.2c0-.4 0-.6-.1-.7-.1-.2-.4-.3-.6-.3-.5 0-.8.4-.8 1v2.2h-.6v-2.2c0-.4 0-.5-.1-.7-.1-.2-.3-.3-.6-.3-.5 0-.9.4-.9 1v2.2h-.6v-3.7h.6zM552.4 90.3c0 .3 0 .5.2.7.2.3.6.5 1 .5s.9-.2 1.1-.6l.5.2c-.3.6-.9 1-1.6 1-1.1 0-1.9-.8-1.9-1.9s.8-1.9 1.9-1.9 1.9.8 1.9 1.9v.2h-3.1zm2.4-.4c0-.3 0-.4-.2-.6-.2-.3-.6-.5-1-.5s-.8.2-1 .5c-.1.2-.2.3-.2.6h2.4zM557.2 88.2v.6c.1-.3.2-.4.3-.5.2-.1.4-.2.7-.2h.1v.6h-.2c-.3 0-.6.2-.8.4-.2.2-.2.4-.2.9v1.9h-.6v-3.7h.6zM533.3 97.3v-.6l1.8-1.2v5.4h-.6v-4.4l-1.2.8zM536.8 97.3v-.6l1.8-1.2v5.4h-.6v-4.4l-1.2.8zM541.2 100.6c0 .2-.2.4-.4.4s-.4-.2-.4-.4.2-.4.4-.4.4.2.4.4zM545.2 100.3v.6h-3l1.9-2.7c.5-.8.7-1 .7-1.3 0-.5-.4-.8-.9-.8s-.7.2-.8.4v.6h-.6c0-1 .6-1.6 1.5-1.6s1.5.5 1.5 1.3-.2.8-.6 1.5l-1.4 2h1.9zM548.8 97.2v.5c.3-.4.6-.6 1-.6s.8.2 1 .7c.3-.5.6-.7 1.2-.7s.7.1.9.4c.2.2.2.4.2 1v2.4h-.6v-2.2c0-.4 0-.6-.1-.7-.1-.2-.4-.3-.6-.3-.5 0-.8.4-.8 1v2.2h-.6v-2.2c0-.4 0-.5-.1-.7-.1-.2-.3-.3-.6-.3-.5 0-.9.4-.9 1v2.2h-.6v-3.7h.6zM556.4 98.4v.4h-2l1.2-1.6c.3-.5.4-.6.4-.8 0-.3-.2-.4-.5-.4s-.5.2-.5.6h-.4c0-.6.4-1 1-1s1 .3 1 .8-.1.5-.4.9l-.8 1.1h1.1z"/><g><path d="M135 178.5h2.1v.6H135v1.8h2.1v.6h-2.8v-5.3h2.8v.6H135v1.8zM139 176.7c0 .2-.2.4-.4.4s-.4-.2-.4-.4.2-.4.4-.4.4.2.4.4zm0 4.7h-.6v-3.7h.6v3.7zM140.8 177.7v.5c.3-.4.6-.6 1.1-.6s.6.1.9.3c.2.2.3.5.3 1v2.5h-.6V179c0-.3 0-.5-.1-.6-.1-.2-.3-.2-.6-.2s-.5.1-.7.3c-.2.2-.2.4-.2.7v2.2h-.6v-3.7h.6zM147.2 177.7h.6v3.7c0 .6-.2 1-.5 1.4-.3.3-.8.5-1.4.5s-1.2-.2-1.6-.7l.4-.4c.2.2.2.2.4.3.2.1.6.2.9.2s.8-.1 1-.4c.2-.2.3-.5.3-.9v-.8c-.4.5-.8.8-1.4.8-1 0-1.7-.8-1.7-1.9s.2-1.2.6-1.5c.3-.3.7-.4 1.2-.4s.9.2 1.3.7v-.6zm-2.4 1.8c0 .8.5 1.4 1.2 1.4s.7-.2.9-.4c.2-.2.3-.5.3-.9s0-.7-.3-1c-.2-.2-.6-.4-.9-.4-.7 0-1.2.6-1.2 1.4zM152 177.7h.6v3.7h-.6v-.7c-.4.6-.8.8-1.3.8-1 0-1.7-.8-1.7-1.9s.7-1.9 1.8-1.9 1 .2 1.3.7v-.6zm-2.1.9c-.2.3-.3.6-.3 1 0 .8.5 1.4 1.2 1.4s1.3-.6 1.3-1.4-.5-1.4-1.2-1.4-.7.1-.9.4zM154.6 177.7v.5c.3-.4.6-.6 1.1-.6s.6.1.9.3c.2.2.3.5.3 1v2.5h-.6V179c0-.3 0-.5-.1-.6-.1-.2-.3-.2-.6-.2s-.5.1-.7.3c-.2.2-.2.4-.2.7v2.2h-.6v-3.7h.6zM161 177.7h.6v3.7c0 .6-.2 1-.5 1.4-.3.3-.8.5-1.4.5s-1.2-.2-1.6-.7l.4-.4c.2.2.2.2.4.3.2.1.6.2.9.2s.8-.1 1-.4c.2-.2.3-.5.3-.9v-.8c-.4.5-.8.8-1.4.8-1 0-1.7-.8-1.7-1.9s.2-1.2.6-1.5c.3-.3.7-.4 1.2-.4s.9.2 1.3.7v-.6zm-2.4 1.8c0 .8.5 1.4 1.2 1.4s.7-.2.9-.4c.2-.2.3-.5.3-.9s0-.7-.3-1c-.2-.2-.6-.4-.9-.4-.7 0-1.2.6-1.2 1.4z"/></g><g><path d="M222.7 87.5h2.1v.6h-2.1v1.8h2.1v.6H222v-5.3h2.8v.6h-2.1v1.8zM226.6 86.8v.5c.3-.4.6-.6 1.1-.6s.6.1.9.3c.2.2.3.5.3 1v2.5h-.6v-2.4c0-.3 0-.5-.1-.6-.1-.2-.3-.2-.6-.2s-.5.1-.7.3c-.2.2-.2.4-.2.7v2.2h-.6v-3.7h.6zM230.8 89.7c0 .2 0 .2.3.2h.3v.5h-.6c-.4 0-.6-.2-.6-.6v-2.6h-.5v-.5h.5v-1.2h.6v1.2h.6v.5h-.6v2.4zM233.1 86.8v.6c.1-.3.2-.4.3-.5.2-.1.4-.2.7-.2h.1v.6h-.2c-.3 0-.6.2-.8.4-.2.2-.2.4-.2.9v1.9h-.6v-3.7h.6zM235.5 88.8c0 .3 0 .5.2.7.2.3.6.5 1 .5s.9-.2 1.1-.6l.5.2c-.3.6-.9 1-1.6 1-1.1 0-1.9-.8-1.9-1.9s.8-1.9 1.9-1.9 1.9.8 1.9 1.9v.2h-3.1zm2.4-.4c0-.3 0-.4-.2-.6-.2-.3-.6-.5-1-.5s-.8.2-1 .5c-.1.2-.2.3-.2.6h2.4zm-.2-3.2l-.9 1.1h-.4l.7-1.1h.7zM240 88.8c0 .3 0 .5.2.7.2.3.6.5 1 .5s.9-.2 1.1-.6l.5.2c-.3.6-.9 1-1.6 1-1.1 0-1.9-.8-1.9-1.9s.8-1.9 1.9-1.9 1.9.8 1.9 1.9v.2H240zm2.4-.4c0-.3 0-.4-.2-.6-.2-.3-.6-.5-1-.5s-.8.2-1 .5c-.1.2-.2.3-.2.6h2.4zM223.8 97.3c-.2 0-.3.1-.5.1-.9 0-1.6-.7-1.6-1.6s.8-1.7 1.7-1.7 1.7.7 1.7 1.7-.1.7-.4 1.2l-1.5 2.5h-.7l1.3-2.1zm-1.5-1.5c0 .6.5 1.1 1.1 1.1s1.1-.5 1.1-1.1-.5-1.1-1-1.1-1.1.5-1.1 1.1zM226.4 99.1c0 .2-.2.4-.4.4s-.4-.2-.4-.4.2-.4.4-.4.4.2.4.4zM228.8 96.4c.2 0 .3-.1.5-.1.9 0 1.6.7 1.6 1.6s-.8 1.7-1.7 1.7-1.7-.8-1.7-1.7.1-.7.4-1.2l1.5-2.5h.7l-1.4 2.1zm-.7 1.5c0 .6.5 1.1 1.1 1.1s1.1-.5 1.1-1.1-.5-1.1-1.1-1.1-1.1.5-1.1 1.1zM236.6 95.8v.5c.3-.4.6-.6 1-.6s.8.2 1 .7c.3-.5.6-.7 1.2-.7s.7.1.9.4c.2.2.2.4.2 1v2.4h-.6v-2.2c0-.4 0-.6-.1-.7-.1-.2-.4-.3-.6-.3-.5 0-.8.4-.8 1v2.2h-.6v-2.2c0-.4 0-.5-.1-.7-.1-.2-.3-.3-.6-.3-.5 0-.9.4-.9 1v2.2h-.6v-3.7h.6zM244.1 97v.4h-2l1.2-1.6c.3-.5.4-.6.4-.8 0-.3-.2-.4-.5-.4s-.5.2-.5.6h-.4c0-.6.4-1 1-1s1 .3 1 .8-.1.5-.4.9l-.8 1.1h1.1z"/></g><g><path d="M241.6 174.1v.6h-3.8l3-4.8h-2.7v-.6h3.8l-3 4.8h2.7zM243.4 170c0 .2-.2.4-.4.4s-.4-.2-.4-.4.2-.4.4-.4.4.2.4.4zm0 4.7h-.6V171h.6v3.7zM245.3 171v.5c.3-.4.6-.6 1-.6s.8.2 1 .7c.3-.5.6-.7 1.2-.7s.7.1.9.4c.2.2.2.4.2 1v2.4h-.6v-2.2c0-.4 0-.6-.1-.7-.1-.2-.4-.3-.6-.3-.5 0-.8.4-.8 1v2.2h-.6v-2.2c0-.4 0-.5-.1-.7-.1-.2-.3-.3-.6-.3-.5 0-.9.4-.9 1v2.2h-.6V171h.6zM251.6 171v.5c.3-.4.6-.6 1-.6s.8.2 1 .7c.3-.5.6-.7 1.2-.7s.7.1.9.4c.2.2.2.4.2 1v2.4h-.6v-2.2c0-.4 0-.6-.1-.7-.1-.2-.4-.3-.6-.3-.5 0-.8.4-.8 1v2.2h-.6v-2.2c0-.4 0-.5-.1-.7-.1-.2-.3-.3-.6-.3-.5 0-.9.4-.9 1v2.2h-.6V171h.6zM257.7 173.1c0 .3 0 .5.2.7.2.3.6.5 1 .5s.9-.2 1.1-.6l.5.2c-.3.6-.9 1-1.6 1-1.1 0-1.9-.8-1.9-1.9s.8-1.9 1.9-1.9 1.9.8 1.9 1.9v.2h-3.1zm2.4-.4c0-.3 0-.4-.2-.6-.2-.3-.6-.5-1-.5s-.8.2-1 .5c-.1.2-.2.3-.2.6h2.4zM262.5 171v.6c.1-.3.2-.4.3-.5.2-.1.4-.2.7-.2h.1v.6h-.2c-.3 0-.6.2-.8.4-.2.2-.2.4-.2.9v1.9h-.6V171h.6zM238.5 180.1v-.6l1.8-1.2v5.4h-.6v-4.4l-1.2.8zM241.8 182.5v-.5l2.8-3.7v3.6h.6v.6h-.6v1.2h-.6v-1.2h-2.1zm2.1-2.6l-1.5 2h1.5v-2zM246.9 183.4c0 .2-.2.4-.4.4s-.4-.2-.4-.4.2-.4.4-.4.4.2.4.4zM251.2 182.1c0 .6-.1 1-.4 1.2-.3.3-.7.4-1.2.4s-1-.2-1.2-.5c-.3-.3-.4-.6-.4-1.4V180c0-.7 0-1 .3-1.3.3-.3.7-.5 1.2-.5s.9.1 1.2.4c.3.3.4.6.4 1.2v2.1zm-2.5-.1c0 .6 0 .7.2.9.2.2.5.3.8.3s.6-.1.8-.4c.1-.2.2-.4.2-.8v-2c0-.4 0-.6-.3-.8-.2-.2-.4-.2-.7-.2s-.6.1-.8.4c-.1.2-.2.4-.2.8v1.8zM254.6 180v.5c.3-.4.6-.6 1-.6s.8.2 1 .7c.3-.5.6-.7 1.2-.7s.7.1.9.4c.2.2.2.4.2 1v2.4h-.6v-2.2c0-.4 0-.6-.1-.7-.1-.2-.4-.3-.6-.3-.5 0-.8.4-.8 1v2.2h-.6v-2.2c0-.4 0-.5-.1-.7-.1-.2-.3-.3-.6-.3-.5 0-.9.4-.9 1v2.2h-.6V180h.6zM262.2 181.2v.4h-2l1.2-1.6c.3-.5.4-.6.4-.8 0-.3-.2-.4-.5-.4s-.5.2-.5.6h-.4c0-.6.4-1 1-1s1 .3 1 .8-.1.5-.4.9l-.8 1.1h1.1z"/></g><g><path d="M446.8 169.4h-.7v-5.3h.7v2.5l2.1-2.5h.8l-2.2 2.6 2.2 2.7h-.9l-2-2.5v2.5zM453.8 167.5c0 1.1-.8 1.9-1.9 1.9s-1.9-.8-1.9-1.9.8-1.9 1.9-1.9 1.9.8 1.9 1.9zm-3.1 0c0 .8.5 1.4 1.3 1.4s1.2-.6 1.2-1.4-.5-1.4-1.2-1.4-1.3.6-1.3 1.4zM457.8 168.9c-.4.4-.8.5-1.4.5-1.1 0-1.8-.8-1.8-1.9s.8-1.9 1.8-1.9 1 .2 1.3.6l-.4.4c-.3-.3-.6-.4-.9-.4-.7 0-1.2.6-1.2 1.4s.5 1.4 1.2 1.4.6-.1.9-.4l.4.4zM459.3 166.2c.3-.4.7-.6 1.1-.6s.7.1.9.3c.2.2.3.5.3 1v2.5h-.6V167c0-.5-.2-.8-.7-.8s-.5.1-.7.3c-.2.2-.2.4-.2.7v2.2h-.6v-5.3h.6v2.2zM463.3 167.7c0 .3 0 .5.2.7.2.3.6.5 1 .5s.9-.2 1.1-.6l.5.2c-.3.6-.9 1-1.6 1-1.1 0-1.9-.8-1.9-1.9s.8-1.9 1.9-1.9 1.9.8 1.9 1.9v.2h-3.1zm2.4-.4c0-.3 0-.4-.2-.6-.2-.3-.6-.5-1-.5s-.8.2-1 .5c-.1.2-.2.3-.2.6h2.4zM468.1 165.7v.5c.3-.4.6-.6 1.1-.6s.6.1.9.3c.2.2.3.5.3 1v2.5h-.6V167c0-.3 0-.5-.1-.6-.1-.2-.3-.2-.6-.2s-.5.1-.7.3c-.2.2-.2.4-.2.7v2.2h-.6v-3.7h.6zM471.6 170.6h-.4l.7-2.1.6.2-.8 1.9zM476.8 166.4h2.1v.6h-2.1v1.8h2.1v.6h-2.8v-5.3h2.8v.6h-2.1v1.8zM481.8 166.7c0-.4-.3-.6-.7-.6s-.7.2-.7.5.2.4.8.6c.5.1.7.2.9.4.2.2.3.4.3.7 0 .6-.5 1.1-1.3 1.1s-1.3-.4-1.4-1.1h.6c0 .4.3.6.8.6s.7-.2.7-.5-.2-.5-.8-.6c-.8-.2-1.2-.6-1.2-1.1s.5-1.1 1.3-1.1 1.3.4 1.3 1.1h-.6zM485.3 166.7c0-.4-.3-.6-.7-.6s-.7.2-.7.5.2.4.8.6c.5.1.7.2.9.4.2.2.3.4.3.7 0 .6-.5 1.1-1.3 1.1s-1.3-.4-1.4-1.1h.6c0 .4.3.6.8.6s.7-.2.7-.5-.2-.5-.8-.6c-.8-.2-1.2-.6-1.2-1.1s.5-1.1 1.3-1.1 1.3.4 1.3 1.1h-.6zM487.5 167.7c0 .3 0 .5.2.7.2.3.6.5 1 .5s.9-.2 1.1-.6l.5.2c-.3.6-.9 1-1.6 1-1.1 0-1.9-.8-1.9-1.9s.8-1.9 1.9-1.9 1.9.8 1.9 1.9v.2h-3.1zm2.4-.4c0-.3 0-.4-.2-.6-.2-.3-.6-.5-1-.5s-.8.2-1 .5c-.1.2-.2.3-.2.6h2.4zM492.2 165.7v.5c.3-.4.6-.6 1.1-.6s.6.1.9.3c.2.2.3.5.3 1v2.5h-.6V167c0-.3 0-.5-.1-.6-.1-.2-.3-.2-.6-.2s-.5.1-.7.3c-.2.2-.2.4-.2.7v2.2h-.6v-3.7h.6zM495.8 170.6h-.4l.7-2.1.6.2-.8 1.9zM451.6 173h.7l-1.6 5.3h-.6l-1.2-4.2-1.2 4.2h-.6l-1.6-5.3h.7l1.2 4.1 1.2-4.1h.6l1.1 4.1 1.2-4.1zM456.4 176.5c0 1.1-.8 1.9-1.9 1.9s-1.9-.8-1.9-1.9.8-1.9 1.9-1.9 1.9.8 1.9 1.9zm-3.1 0c0 .8.5 1.4 1.3 1.4s1.2-.6 1.2-1.4-.5-1.4-1.2-1.4-1.3.6-1.3 1.4zM458.1 175.2c.3-.4.7-.6 1.1-.6s.7.1.9.3c.2.2.3.5.3 1v2.5h-.6V176c0-.5-.2-.8-.7-.8s-.5.1-.7.3c-.2.2-.2.4-.2.7v2.2h-.6v-5.3h.6v2.2zM462.3 174.7v.5c.3-.4.6-.6 1.1-.6s.6.1.9.3c.2.2.3.5.3 1v2.5h-.6V176c0-.3 0-.5-.1-.6-.1-.2-.3-.2-.6-.2s-.5.1-.7.3c-.2.2-.2.4-.2.7v2.2h-.6v-3.7h.6zM466.3 176.7c0 .3 0 .5.2.7.2.3.6.5 1 .5s.9-.2 1.1-.6l.5.2c-.3.6-.9 1-1.6 1-1.1 0-1.9-.8-1.9-1.9s.8-1.9 1.9-1.9 1.9.8 1.9 1.9v.2h-3.1zm2.4-.4c0-.3 0-.4-.2-.6-.2-.3-.6-.5-1-.5s-.8.2-1 .5c-.1.2-.2.3-.2.6h2.4zM471.1 174.7v.5c.3-.4.6-.6 1.1-.6s.6.1.9.3c.2.2.3.5.3 1v2.5h-.6V176c0-.3 0-.5-.1-.6-.1-.2-.3-.2-.6-.2s-.5.1-.7.3c-.2.2-.2.4-.2.7v2.2h-.6v-3.7h.6zM446 182.7v-.6h3l-1.6 2c.9 0 1.6.7 1.6 1.6s-.8 1.7-1.8 1.7-1.4-.5-1.6-1.3h.6c.1.4.5.7 1 .7s1.2-.5 1.2-1.1-.5-1.1-1.2-1.1-.4 0-.6.2l-.3-.2 1.5-1.9h-1.9zM450 186.2v-.5l2.8-3.7v3.6h.6v.6h-.6v1.2h-.6v-1.2h-2.1zm2.1-2.6l-1.5 2h1.5v-2zM455.1 187c0 .2-.2.4-.4.4s-.4-.2-.4-.4.2-.4.4-.4.4.2.4.4zM457.9 185.2c-.2 0-.3.1-.5.1-.9 0-1.6-.7-1.6-1.6s.8-1.7 1.7-1.7 1.7.7 1.7 1.7-.1.7-.4 1.2l-1.5 2.5h-.7l1.3-2.1zm-1.5-1.5c0 .6.5 1.1 1.1 1.1s1.1-.5 1.1-1.1-.5-1.1-1-1.1-1.1.5-1.1 1.1zM462.5 183.7v.5c.3-.4.6-.6 1-.6s.8.2 1 .7c.3-.5.6-.7 1.2-.7s.7.1.9.4c.2.2.2.4.2 1v2.4h-.6v-2.2c0-.4 0-.6-.1-.7-.1-.2-.4-.3-.6-.3-.5 0-.8.4-.8 1v2.2h-.6v-2.2c0-.4 0-.5-.1-.7-.1-.2-.3-.3-.6-.3-.5 0-.9.4-.9 1v2.2h-.6v-3.7h.6zM470.1 184.9v.4h-2l1.2-1.6c.3-.5.4-.6.4-.8 0-.3-.2-.4-.5-.4s-.5.2-.5.6h-.4c0-.6.4-1 1-1s1 .3 1 .8-.1.5-.4.9l-.8 1.1h1.1z"/></g><g><path d="M375.1 86.7c1.1 0 1.7.5 1.7 1.4s-.1.6-.3.9c-.1.2-.3.2-.5.3.3 0 .4.1.6.2.3.2.4.6.4 1s-.2.9-.6 1.2c-.3.2-.7.3-1.3.3h-1.5v-5.3h1.5zm-.8 2.4h.7c.4 0 .7 0 .9-.2.2-.2.3-.4.3-.7s-.2-.6-.4-.8c-.2 0-.4-.1-.9-.1h-.6v1.8zm0 2.4h.7c.6 0 .8 0 1-.2.3-.1.4-.4.4-.8 0-.6-.4-.9-1.2-.9h-.8v1.8zM381 88.3h.6V92h-.6v-.7c-.4.6-.8.8-1.3.8-1 0-1.7-.8-1.7-1.9s.7-1.9 1.8-1.9 1 .2 1.3.7v-.6zm-2.1.9c-.2.3-.3.6-.3 1 0 .8.5 1.4 1.2 1.4s1.3-.6 1.3-1.4-.5-1.4-1.2-1.4-.7.1-.9.4zM385.7 86.7h.6V92h-.6v-.6c-.4.5-.8.7-1.3.7-1 0-1.7-.8-1.7-1.9s.7-2 1.7-2 1 .2 1.3.6v-2.2zm-2.4 3.5c0 .8.5 1.4 1.2 1.4s1.2-.6 1.2-1.4-.5-1.4-1.2-1.4-1.2.6-1.2 1.4zM375.9 96.3h-1.7v1.4c.3-.1.5-.2.8-.2.9 0 1.6.7 1.6 1.7s-.8 1.8-1.8 1.8-1.3-.4-1.6-1.1l.6-.2c.1.2.2.3.3.4.2.2.5.3.8.3.6 0 1.1-.5 1.1-1.2s-.5-1.1-1.2-1.1-.8.2-1.2.5v-3h2.3v.6zM378.4 100.7c0 .2-.2.4-.4.4s-.4-.2-.4-.4.2-.4.4-.4.4.2.4.4zM379.4 97.4v-.6l1.8-1.2v5.4h-.6v-4.4l-1.2.8zM386.3 97.3v.5c.3-.4.6-.6 1-.6s.8.2 1 .7c.3-.5.6-.7 1.2-.7s.7.1.9.4c.2.2.2.4.2 1v2.4h-.6v-2.2c0-.4 0-.6-.1-.7-.1-.2-.4-.3-.6-.3-.5 0-.8.4-.8 1v2.2h-.6v-2.2c0-.4 0-.5-.1-.7-.1-.2-.3-.3-.6-.3-.5 0-.9.4-.9 1v2.2h-.6v-3.7h.6zM393.9 98.5v.4h-2l1.2-1.6c.3-.5.4-.6.4-.8 0-.3-.2-.4-.5-.4s-.5.2-.5.6h-.4c0-.6.4-1 1-1s1 .3 1 .8-.1.5-.4.9l-.8 1.1h1.1z"/></g><g><path d="M170.6 80.8v.6h-2.5v-5.3h.7v4.7h1.9zM172.2 76.7c0 .2-.2.4-.4.4s-.4-.2-.4-.4.2-.4.4-.4.4.2.4.4zm0 4.7h-.6v-3.7h.6v3.7zM174.2 81.4h-.6v-3.2h-.5v-.5h.5v-.5c0-.7.4-1.2 1-1.2h.2v.5c-.4 0-.6.2-.6.6v.5h.6v.5h-.6v3.2zM176.6 80.7c0 .2 0 .2.3.2h.3v.5h-.6c-.4 0-.6-.2-.6-.6v-2.6h-.5v-.5h.5v-1.2h.6v1.2h.6v.5h-.6v2.4z"/></g></g></svg>