<svg xmlns="http://www.w3.org/2000/svg" viewBox="0 0 658.9 283.3"><defs><style>.cls-1,.cls-10,.cls-11,.cls-12,.cls-13,.cls-14,.cls-15,.cls-16,.cls-17,.cls-18,.cls-19,.cls-2,.cls-20,.cls-21,.cls-22,.cls-3,.cls-4,.cls-5,.cls-6,.cls-7,.cls-8,.cls-9{fill:none;stroke-linecap:round;stroke-linejoin:round}.cls-1,.cls-10,.cls-11,.cls-12,.cls-13,.cls-14,.cls-15,.cls-16,.cls-17,.cls-18,.cls-19,.cls-2,.cls-20,.cls-22,.cls-3,.cls-4,.cls-5,.cls-6,.cls-8,.cls-9{stroke-width:.1px}.cls-1,.cls-17,.cls-20,.cls-21,.cls-22,.cls-3,.cls-4,.cls-6{stroke:#194164}.cls-1,.cls-6{stroke-dasharray:0 0 0 0 2.9 1.4 .2 1.4}.cls-2{stroke:#646464}.cls-10,.cls-11,.cls-12,.cls-13,.cls-14,.cls-15,.cls-16,.cls-17,.cls-18,.cls-22,.cls-3,.cls-4,.cls-5,.cls-8,.cls-9{stroke-dasharray:0 0 1.4 1.4}.cls-11,.cls-4{stroke-dashoffset:1px}.cls-23,.cls-24{fill:#fff}.cls-10,.cls-11,.cls-12,.cls-13,.cls-14,.cls-15,.cls-16,.cls-18,.cls-19,.cls-5,.cls-8,.cls-9{stroke:#969696}.cls-6{stroke-dashoffset:1.9px}.cls-7{stroke:#000;stroke-width:.3px}.cls-8{stroke-dashoffset:2.8px}.cls-9{stroke-dashoffset:2.2px}.cls-10{stroke-dashoffset:2.8px}.cls-12{stroke-dashoffset:2.4px}.cls-13{stroke-dashoffset:2.7px}.cls-14{stroke-dashoffset:2.5px}.cls-15{stroke-dashoffset:2.6px}.cls-16,.cls-22{stroke-dashoffset:.7px}.cls-24{fill-rule:evenodd}.cls-17{stroke-dashoffset:.2px}.cls-18{stroke-dashoffset:2.7px}.cls-21{stroke-width:.3px}</style></defs><g id="Plan"><path class="cls-21" d="M158.2 58.7H188v39.6h-29.8z"/><path class="cls-20" d="M189.7 49.8h-35.3M171.4 52.7h14M158.7 55.8h13.9M398 130.9h77.8v17H398zM466.6 145.8v2.2M449.6 145.8v2.2M432.6 145.8v2.2M398.7 145.8v2.2M397.5 124.2h.5v16.3h-.5zM380.5 140.1h17v.5h-17zM380.5 124.7h.5v15.4h-.5zM397 124.7h.5v15.4h-.5zM380.5 124.2h17v.5h-17z"/><path class="cls-24" d="M416.5 135.7v9.3c0 .1 0 .3.1.4s.1.2.2.3c0 .1.2.2.2.3 0 0 .2.2.3.2.1 0 .2.1.3.2.1 0 .2 0 .4.1h12c.1 0 .3 0 .4-.1.1 0 .2-.1.3-.2.1 0 .2-.2.3-.2 0 0 .2-.2.2-.3 0-.1.1-.2.2-.3 0-.1 0-.2.1-.4v-9.3-.4c0-.1 0-.3-.1-.4 0-.1-.1-.2-.2-.3 0-.1-.2-.2-.2-.3 0 0-.2-.2-.3-.2-.1 0-.2-.1-.3-.2-.1 0-.2 0-.4-.1h-12c-.1 0-.3 0-.4.1-.1 0-.2.1-.3.2-.1 0-.2.2-.3.2 0 0-.2.2-.2.3 0 .1-.1.2-.2.3 0 .1 0 .2-.1.4v.4"/><path class="cls-20" d="M416.5 135.7v9.3c0 .1 0 .3.1.4s.1.2.2.3c0 .1.2.2.2.3 0 0 .2.2.3.2.1 0 .2.1.3.2.1 0 .2 0 .4.1h12c.1 0 .3 0 .4-.1.1 0 .2-.1.3-.2.1 0 .2-.2.3-.2 0 0 .2-.2.2-.3 0-.1.1-.2.2-.3 0-.1 0-.2.1-.4v-9.3-.4c0-.1 0-.3-.1-.4 0-.1-.1-.2-.2-.3 0-.1-.2-.2-.2-.3 0 0-.2-.2-.3-.2-.1 0-.2-.1-.3-.2-.1 0-.2 0-.4-.1h-12c-.1 0-.3 0-.4.1-.1 0-.2.1-.3.2-.1 0-.2.2-.3.2 0 0-.2.2-.2.3 0 .1-.1.2-.2.3 0 .1 0 .2-.1.4v.4"/><path class="cls-24" d="M425.4 136.9c0-.7-.5-1.2-1.2-1.2s-1.2.5-1.2 1.2.5 1.2 1.2 1.2 1.2-.5 1.2-1.2"/><path class="cls-20" d="M425.4 136.9c0-.7-.5-1.2-1.2-1.2s-1.2.5-1.2 1.2.5 1.2 1.2 1.2 1.2-.5 1.2-1.2"/><path class="cls-23" d="M450.3 131.9h15.8v14.6h-15.8z"/><path class="cls-20" d="M450.3 131.9h15.8v14.6h-15.8z"/><path class="cls-24" d="M465 141.9c0-1.5-1.2-2.8-2.8-2.8s-2.8 1.2-2.8 2.8 1.2 2.8 2.8 2.8 2.8-1.2 2.8-2.8"/><path class="cls-20" d="M465 141.9c0-1.5-1.2-2.8-2.8-2.8s-2.8 1.2-2.8 2.8 1.2 2.8 2.8 2.8 2.8-1.2 2.8-2.8"/><path class="cls-24" d="M465.4 135.1c0-1.3-1-2.3-2.3-2.3s-2.3 1-2.3 2.3 1 2.3 2.3 2.3 2.3-1 2.3-2.3"/><path class="cls-20" d="M465.4 135.1c0-1.3-1-2.3-2.3-2.3s-2.3 1-2.3 2.3 1 2.3 2.3 2.3 2.3-1 2.3-2.3"/><path class="cls-24" d="M456.8 141.9c0-1.3-1-2.3-2.2-2.3s-2.2 1-2.2 2.3 1 2.3 2.2 2.3 2.2-1 2.2-2.3"/><path class="cls-20" d="M456.8 141.9c0-1.3-1-2.3-2.2-2.3s-2.2 1-2.2 2.3 1 2.3 2.2 2.3 2.2-1 2.2-2.3"/><path class="cls-24" d="M457.8 135.5c0-1.6-1.3-2.9-2.9-2.9s-2.9 1.3-2.9 2.9 1.3 2.9 2.9 2.9 2.9-1.3 2.9-2.9"/><path class="cls-20" d="M457.8 135.5c0-1.6-1.3-2.9-2.9-2.9s-2.9 1.3-2.9 2.9 1.3 2.9 2.9 2.9 2.9-1.3 2.9-2.9M475.3 145.8v2.2M399 121.8v8.4"/><path class="cls-7" d="M398.2 121.8v9.1"/><path class="cls-20" d="M400.4 121.8v7M399 121.8v8.4M398.2 121.8v9.1M400.4 121.8v7"/><path class="cls-7" d="M399 121.8h-.8"/><path class="cls-20" d="M400.4 121.8H399M399 130.2h77.7"/><path class="cls-7" d="M398.2 130.9h78.5"/><path class="cls-20" d="M400.4 128.8h76.3M399 130.2h77.7M398.2 130.9h78.5M400.4 128.8h76.3M363.4 140.1h17v.5h-17zM363.4 124.7h.7v15.4h-.7zM380 124.7h.5v15.4h-.5zM363.4 124.2h17v.5h-17zM346.4 140.1h17v.5h-17zM346.4 124.7h.7v15.4h-.7z"/><path class="cls-20" d="M363 124.7h.5v15.4h-.5zM346.4 124.2h17v.5h-17zM345.7 140.1h.7v.5h-.7zM415.5 145.8v2.2"/><path class="cls-1" d="M398 140.5h77.8"/><path class="cls-20" d="M475.3 140.5h.5"/><path class="cls-24" d="M240.8.1L236 4.9h4.8V.1"/><path class="cls-19" d="M241 3.5l-1.6-1.7M238.4 4.9l-1.2-1.2M238.2 4.9l2.8-2.6"/><path class="cls-24" d="M240.8.1L236 4.9h4.8V.1"/><path class="cls-19" d="M241 3.5l-1.6-1.7M238.4 4.9l-1.2-1.2M238.2 4.9l2.8-2.6"/><path class="cls-21" d="M240.8 4.9V.1M240.8 4.9V.1"/><path class="cls-24" d="M233.6 40.7v23.8l7.2-7.2V40.7h-7.2"/><path class="cls-19" d="M241 43.6l-3.1-2.9M241 47.7l-6.9-7M241 51.5l-7.2-7.2M241 55.6l-7.2-7.2M239.8 58.5l-6-6M237.7 60.4l-3.9-3.9M235.8 62.5l-2-2.1M233.8 61.6l7.2-7.2M233.8 57.5l7.2-7.2M233.8 53.7l7.2-7.2M233.8 49.6l7.2-7.2M233.8 45.5l4.8-4.8M233.8 41.4l.8-.7"/><path class="cls-24" d="M233.6 40.7v23.8l7.2-7.2V40.7h-7.2"/><path class="cls-19" d="M241 43.6l-3.1-2.9M241 47.7l-6.9-7M241 51.5l-7.2-7.2M241 55.6l-7.2-7.2M239.8 58.5l-6-6M237.7 60.4l-3.9-3.9M235.8 62.5l-2-2.1M233.8 61.6l7.2-7.2M233.8 57.5l7.2-7.2M233.8 53.7l7.2-7.2M233.8 49.6l7.2-7.2M233.8 45.5l4.8-4.8M233.8 41.4l.8-.7"/><path class="cls-21" d="M240.8 57.3V40.7M233.6 40.9v-.2M233.6 64.5V48.1M233.6 40.9v-.2M240.8 57.3V40.7M233.6 64.5V48.1"/><path class="cls-20" d="M239.6 34.7h1.7v6h-1.7zM239.6 4.9h1.7v2.6h-1.7zM239.6 7.6h1.7v27.1h-1.7zM239.6 34.7V7.6"/><path class="cls-1" d="M233.6 34.9V7.3"/><path class="cls-20" d="M233.6 7.8v-.5"/><path class="cls-24" d="M233.6 40.7v-5.8h6v5.8"/><path class="cls-19" d="M239.8 38.3l-3.6-3.4M237.9 40.7l-4.1-4.3M234.1 40.7l-.3-.2M238.6 40.7l1.2-1.2M234.6 40.7l5.2-5.3M233.8 37.6l2.4-2.7"/><path class="cls-24" d="M233.6 4.9v2.4h6V4.9"/><path class="cls-19" d="M239.8 6.4l-1.4-1.5M236.7 7.3l-2.4-2.4M235.8 7.3l2.4-2.4M233.8 5.4l.5-.5"/><path class="cls-21" d="M233.6 34.9h6M233.6 7.3h6M233.6 34.9h6M233.6 40.7v-5.8M233.6 7.3h6M233.6 4.9v2.4M240.8 40.7h-1.2M240.8 4.9h-1.2M233.6 40.7v-5.8M233.6 4.9v2.4M239.6 34.9v5.8M239.6 7.3V4.9"/><path class="cls-20" d="M359.4 121.1H345"/><path class="cls-7" d="M359.4 121.8H345"/><path class="cls-20" d="M359.4 119.7H345M359.4 121.1H345"/><path class="cls-7" d="M345 121.1v.7"/><path class="cls-20" d="M345 119.7v1.4M359.4 121.8H345M359.4 119.7H345"/><path class="cls-7" d="M359.4 121.1v.7"/><path class="cls-20" d="M359.4 119.7v1.4M237.9 71.7h59.8M237.9 72.4h59.8M237.9 70.2h59.8M237.9 71.7h59.8M297.7 71.7v.7M297.7 70.2v1.5M237.9 72.4h59.8M237.9 70.2h59.8M237.9 71.7v.7M237.9 70.2v1.5"/><path class="cls-24" d="M252.5 87.6c-1.3.9-3 .9-4.3 0-1.9-1.5-2.9-3.8-2.9-6.2l.3-9h9.6l.3 9c0 2.4-1 4.7-2.9 6.2"/><path class="cls-20" d="M252.5 87.6c-1.3.9-3 .9-4.3 0-1.9-1.5-2.9-3.8-2.9-6.2l.3-9h9.6l.3 9c0 2.4-1 4.7-2.9 6.2"/><path class="cls-24" d="M250.4 77.4c1 0 2 .3 2.8 1.1.7.7 1.2 1.7 1.2 2.7 0 2.1-.9 4.1-2.5 5.4-.9.6-2 .6-2.9 0-1.6-1.3-2.5-3.3-2.5-5.4 0-1 .4-2 1.2-2.7.7-.7 1.7-1.1 2.8-1.1"/><path class="cls-20" d="M250.4 77.4c1 0 2 .3 2.8 1.1.7.7 1.2 1.7 1.2 2.7 0 2.1-.9 4.1-2.5 5.4-.9.6-2 .6-2.9 0-1.6-1.3-2.5-3.3-2.5-5.4 0-1 .4-2 1.2-2.7.7-.7 1.7-1.1 2.8-1.1"/><path class="cls-24" d="M272.3 72.3v8.9c0 .1-.1.3-.2.4-.1.1-.2.2-.4.2h-11.3c-.1 0-.3-.1-.4-.2-.1-.1-.2-.2-.2-.4v-8.9h12.8"/><path class="cls-20" d="M272.3 72.3v8.9c0 .1-.1.3-.2.4-.1.1-.2.2-.4.2h-11.3c-.1 0-.3-.1-.4-.2-.1-.1-.2-.2-.2-.4v-8.9h12.8"/><path class="cls-24" d="M297.4 111V72.4h-22.8V111h22.8"/><path class="cls-20" d="M274.6 72.4h22.8V111h-22.8zM297.4 74.3h-22.8"/><path class="cls-24" d="M299.6 150.6l-4.3 4.3v70.6h4.3v-74.9"/><path class="cls-19" d="M295.5 159l4.3-4.3M295.5 163.3l4.3-4.3M295.5 167.4l4.3-4.3M295.5 171.7l4.3-4.3M295.5 176.1l4.3-4.4M295.5 180.1l4.3-4.3M295.5 184.5l4.3-4.4M295.5 188.8l4.3-4.3M295.5 193.1l4.3-4.3M295.5 197.2l4.3-4.3M295.5 201.5l4.3-4.3M295.5 205.8l4.3-4.3M295.5 209.9l4.3-4.3M295.5 214.2l4.3-4.3M295.5 218.5l4.3-4.3M295.5 222.6l4.3-4.3M297 225.5l2.8-2.9"/><path class="cls-24" d="M299.6 150.6l-4.3 4.3v70.6h4.3v-74.9"/><path class="cls-19" d="M295.5 159l4.3-4.3M295.5 163.3l4.3-4.3M295.5 167.4l4.3-4.3M295.5 171.7l4.3-4.3M295.5 176.1l4.3-4.4M295.5 180.1l4.3-4.3M295.5 184.5l4.3-4.4M295.5 188.8l4.3-4.3M295.5 193.1l4.3-4.3M295.5 197.2l4.3-4.3M295.5 201.5l4.3-4.3M295.5 205.8l4.3-4.3M295.5 209.9l4.3-4.3M295.5 214.2l4.3-4.3M295.5 218.5l4.3-4.3M295.5 222.6l4.3-4.3M297 225.5l2.8-2.9"/><path class="cls-21" d="M299.6 225.5v-74.9M295.3 225.5v-70.6M295.3 225.5v-70.6M299.6 225.5v-74.9"/><path class="cls-24" d="M100.9 236.1l-5.5.7.7 3.1 5.3-.7-.5-3.1"/><path class="cls-24" d="M102.1 230.5l-1.2 5.6.5 3.1 2.1-.5-1.4-8.2"/><path class="cls-19" d="M102.3 231h-.2M102.6 232.5l-.8.2M102.8 233.9l-1.4.2M103 235.3l-1.9.3M103.3 236.8l-2.2.2M103.5 238l-2.1.5"/><path class="cls-24" d="M106.4 225.5l-4.3 5 1.4 8.2 5.1-1-2.2-12.2"/><path class="cls-19" d="M102.8 234.1l3.8 4.1M102.6 230.1l5.7 5.5M104.5 227.9l2.9 2.9M106.4 225.7l.2.3"/><path class="cls-21" d="M96.1 239.9l-.7-3.1"/><path class="cls-19" d="M103.5 238.7l-1.4-8.2M101.4 239.2l-.5-3.1"/><path class="cls-21" d="M108.6 237.7l-2.2-12.2M103.5 238.7l-1.4-8.2"/><path class="cls-20" d="M108.6 237.7l-2.2-12.2"/><path class="cls-21" d="M95.4 240.1l-.5-3.3"/><path class="cls-20" d="M114.4 268.6l-5.1-30.6-5.7 1M102.1 283.2l-7.2-43.1 6.4-1M107.6 276.6l-6.2-37.4 2.1-.5 6 35.8M106.9 272.8l2.4-.5M102.1 243l2.1-.5M107.1 259.6l-2.4.2M109.3 272.3l-2.4.5M106.4 255.5l-2.4.2M107.1 259.6l-2.4.2M104.2 242.5l-2.1.5M106.4 255.5l-2.4.2M103.5 238.7l-2.1.5"/><path class="cls-24" d="M108.6 237.7v.5l-5.1.7v-.2"/><path class="cls-19" d="M106.6 238.2l.5.3"/><path class="cls-21" d="M108.6 238.2l-5.1.7v-.2M108.6 237.7v.5"/><path class="cls-19" d="M103.5 238.7l-2.1.5"/><path class="cls-21" d="M96.1 239.9l-.7.2M108.6 238.2l-5.1.7v-.2M108.6 237.7v.5"/><path class="cls-20" d="M200.9 268.6h-86.5M200.9 283.2h-98.8M109.5 274.4h91.4m0 2.3h-93.3M195.7 276.6v-2.1M112.9 276.6v-2.1M177.9 274.5v2.1M195.7 274.5v2.1M173.8 274.5v2.1M177.9 274.5v2.1M156.3 274.5v2.1M173.8 274.5v2.1M152.2 274.5v2.1M156.3 274.5v2.1M134.7 274.5v2.1M152.2 274.5v2.1M130.4 274.5v2.1M134.7 274.5v2.1M112.9 274.5v2.1M130.4 274.5v2.1M287.4 268.6h-86.5M299.7 283.2h-98.8M200.9 274.4h91.4m1.9 2.3h-93.3M289 276.6v-2.1M206.2 276.6v-2.1M271.3 274.5v2.1M289 274.5v2.1M267.2 274.5v2.1M271.3 274.5v2.1M249.7 274.5v2.1M267.2 274.5v2.1M245.6 274.5v2.1M249.7 274.5v2.1M227.8 274.5v2.1M245.6 274.5v2.1M223.8 274.5v2.1M227.8 274.5v2.1M206.2 274.5v2.1M223.8 274.5v2.1"/><path class="cls-24" d="M305.8 239.9l.5-3.1-5.3-.7-.4 3.1 5.2.7M300.6 239.2l.4-3.1-1.4-5.6-1.4 8.2 2.4.5"/><path class="cls-19" d="M298.4 238l2.4.5M298.6 236.5l2.4.5M298.9 235.1l2.1.5M299.1 233.9l1.5.2M299.4 232.5h.9M299.6 231h.2"/><path class="cls-24" d="M298.2 238.7l1.4-8.2-4.3-5-2.2 12.2 5.1 1"/><path class="cls-19" d="M293.4 236.5l1.6 1.7M294.1 232.9l4.3 4.6M294.6 229.6l4.5 4.5M295.3 226.2l4.3 4.3"/><path class="cls-21" d="M306.3 236.8l-.5 3.1"/><path class="cls-19" d="M299.6 230.5l-1.4 8.2M301 236.1l-.4 3.1"/><path class="cls-21" d="M295.3 225.5l-2.2 12.2M299.6 230.5l-1.4 8.2"/><path class="cls-20" d="M295.3 225.5l-2.2 12.2"/><path class="cls-21" d="M306.8 236.8l-.5 3.3"/><path class="cls-20" d="M298.2 239l-5.7-1-5.1 30.6M300.5 239.1l6.4 1-7.2 43.1"/><path class="cls-20" d="M292.4 274.5l5.8-35.8 2.4.5-6.3 37.4M299.8 243l-2.1-.5M294.8 272.8l-2.2-.5M298.2 238.7l2.4.5M295.5 255.5l2.2.2M297.7 242.5l2.1.5M294.8 259.6l2.2.2M295.5 255.5l2.2.2M292.6 272.3l2.2.5M294.8 259.6l2.2.2"/><path class="cls-24" d="M293.1 237.7v.5l5.1.7v-.2"/><path class="cls-19" d="M295 238.2l.5.3"/><path class="cls-21" d="M293.1 238.2l5.1.7v-.2M293.1 237.7v.5"/><path class="cls-19" d="M298.2 238.7l2.4.5"/><path class="cls-21" d="M305.8 239.9l.5.2M293.1 238.2l5.1.7v-.2M293.1 237.7v.5"/><path class="cls-24" d="M25.8 240.1v-3.3H.6v3.3h25.2"/><path class="cls-19" d="M1.3 236.8l3.3 3.3M5.1 236.8l3.4 3.3M9.2 236.8l3.4 3.3M13.3 236.8l3.3 3.3M17.1 236.8l3.4 3.3M21.2 236.8l3.4 3.3M25.3 236.8l.7.7"/><path class="cls-24" d="M25.8 236.8v-.7H.6v.7h25.2M25.8 236.1v-5.6H.6v5.6h25.2"/><path class="cls-19" d="M2 230.5v5.6M3.4 230.5v5.6M4.9 230.5v5.6M6.3 230.5v5.6M7.8 230.5v5.6M9.2 230.5v5.6M10.4 230.5v5.6M11.8 230.5v5.6M13.3 230.5v5.6M14.7 230.5v5.6M16.2 230.5v5.6M17.6 230.5v5.6M19 230.5v5.6M20.5 230.5v5.6M21.9 230.5v5.6M23.4 230.5v5.6M24.6 230.5v5.6"/><path class="cls-24" d="M25.8 225.5h-18l-7.2 5h25.2v-5"/><path class="cls-19" d="M2 229.6l1 .9M4.4 227.9l2.6 2.6M6.8 226.2l4.1 4.3M9.9 225.5l5.1 5M14 225.5l5 5M17.8 225.5l5.1 5M21.9 225.5l4.1 3.8"/><path class="cls-21" d="M25.8 236.8H.6M25.8 240.1H.6"/><path class="cls-19" d="M25.8 230.5H.6M25.8 236.1H.6"/><path class="cls-21" d="M25.8 225.5h-18M25.8 230.5H.6"/><path class="cls-20" d="M25.8 240.1H.6M25.8 225.5h-18"/><path class="cls-24" d="M66.6 240.1h35l-.7-3.3H66.6v3.3"/><path class="cls-19" d="M66.8 238.2l1.9 1.9M69.2 236.8l3.4 3.3M73.3 236.8l3.3 3.3M77.4 236.8l3.3 3.3M81.4 236.8l3.4 3.3M85.3 236.8l3.3 3.3M89.4 236.8l3.3 3.3M93.4 236.8l3.4 3.3M97.3 236.8l3.3 3.3"/><path class="cls-24" d="M66.6 236.8h28.8l5.5-.7H66.6v.7M66.6 236.1h34.3l1.2-5.6H66.6v5.6"/><path class="cls-19" d="M67.3 230.5v5.6M68.7 230.5v5.6M69.9 230.5v5.6M71.4 230.5v5.6M72.8 230.5v5.6M74.2 230.5v5.6M75.7 230.5v5.6M77.1 230.5v5.6M78.6 230.5v5.6M80 230.5v5.6M81.4 230.5v5.6M82.9 230.5v5.6M84.3 230.5v5.6M85.5 230.5v5.6M87 230.5v5.6M88.4 230.5v5.6M89.8 230.5v5.6M91.3 230.5v5.6M92.7 230.5v5.6M94.2 230.5v5.6M95.6 230.5v5.6M97 230.5v5.6M98.5 230.5v5.6M99.7 230.5v5.6M101.1 230.5v4.6"/><path class="cls-24" d="M66.6 230.5h35.5l4.3-5H66.6v5"/><path class="cls-19" d="M66.8 230.1l.2.4M66.8 226.2l4.3 4.3M70.2 225.5l5 5M74 225.5l5 5M78.1 225.5l5 5M82.2 225.5l5 5M86 225.5l5 5M90.1 225.5l5 5M94.2 225.5l5 5M98.2 225.5l4.4 4.6M102.1 225.5l2.4 2.4M106.2 225.5l.2.2"/><path class="cls-21" d="M95.4 236.8H66.6M95.4 240.1H66.6"/><path class="cls-19" d="M102.1 230.5H66.6M100.9 236.1H66.6"/><path class="cls-21" d="M106.4 225.5H66.6M102.1 230.5H66.6"/><path class="cls-20" d="M95.4 240.1H66.6M106.4 225.5H66.6"/><path class="cls-21" d="M101.6 240.1h-6.2M101.6 240.1l-.7-3.3M100.9 236.8h-5.5"/><path class="cls-20" d="M64.6 232.7v7.4H68v2H24.1v-2h3.6v-7.4"/><path class="cls-1" d="M66.6 225.5H25.8"/><path class="cls-20" d="M26.2 225.5h-.4"/><path class="cls-21" d="M64.6 240.1H68M27.7 240.1h-3.6"/><path class="cls-20" d="M25.8 230.5h40.8v2.2H25.8zM63 232.7v-2.2M29.4 232.7v-2.2M66.6 230.5v2.2M48.1 230.5v2.2M63 230.5v2.2M44 230.5v2.2M48.1 230.5v2.2M29.4 230.5v2.2M44 230.5v2.2M25.8 230.5v2.2"/><path class="cls-24" d="M66.5 236.2h-1.8v-3.4h1.8"/><path class="cls-19" d="M65.8 232.7v3.4M66.5 236.2h-1.8v-3.4h1.8"/><path class="cls-21" d="M66.6 230.5v-5"/><path class="cls-24" d="M66.6 240.1h-2v-3.3h2"/><path class="cls-19" d="M65.4 236.8l1.4 1.4"/><path class="cls-21" d="M66.6 240.1h-2v-3.3h2M64.6 236.8v-4.1"/><path class="cls-24" d="M25.7 236.2h1.9v-3.4h-1.9"/><path class="cls-19" d="M26 232.7v3.4M27.4 232.7v3.4M25.7 236.2h1.9v-3.4h-1.9"/><path class="cls-21" d="M25.8 230.5v-5"/><path class="cls-24" d="M25.8 240.1h1.9v-3.3h-1.9"/><path class="cls-19" d="M26 237.5l1.9 1.9"/><path class="cls-21" d="M25.8 240.1h1.9v-3.3h-1.9M27.7 236.8v-4.1"/><path class="cls-24" d="M300.8 236.8l-.5 3.3h35.1v-3.3h-34.6"/><path class="cls-19" d="M300.6 239.4l.7.7M301.8 236.8l3.3 3.3M305.8 236.8l3.4 3.3M309.9 236.8l3.4 3.3M313.8 236.8l3.3 3.3M317.8 236.8l3.4 3.3M321.9 236.8l3.4 3.3M326 236.8l3.4 3.3M329.8 236.8l3.4 3.3M333.9 236.8l1.7 1.7"/><path class="cls-24" d="M301 236.1l5.3.7h29.1v-.7H301M299.6 230.5l1.4 5.6h34.4v-5.6h-35.8"/><path class="cls-19" d="M301 230.5v5.1M302.5 230.5v5.6M303.9 230.5v5.6M305.4 230.5v5.6M306.8 230.5v5.6M308.2 230.5v5.6M309.4 230.5v5.6M310.9 230.5v5.6M312.3 230.5v5.6M313.8 230.5v5.6M315.2 230.5v5.6M316.6 230.5v5.6M318.1 230.5v5.6M319.5 230.5v5.6M321 230.5v5.6M322.4 230.5v5.6M323.8 230.5v5.6M325 230.5v5.6M326.5 230.5v5.6M327.9 230.5v5.6M329.4 230.5v5.6M330.8 230.5v5.6M332.2 230.5v5.6M333.7 230.5v5.6M335.1 230.5v5.6"/><path class="cls-24" d="M295.3 225.5l4.3 5h35.8v-5h-40.1"/><path class="cls-19" d="M298.6 225.5l5.1 5M302.5 225.5l5 5M306.6 225.5l5 5M310.6 225.5l5.1 5M314.7 225.5l5.1 5M318.6 225.5l5 5M322.6 225.5l5.1 5M326.7 225.5l5.1 5M330.6 225.5l5 4.8M334.6 225.5l1 .7"/><path class="cls-21" d="M335.4 236.8h-29.1M335.4 240.1h-29.1"/><path class="cls-19" d="M335.4 230.5h-35.8M335.4 236.1H301"/><path class="cls-21" d="M335.4 225.5h-40.1M335.4 230.5h-35.8"/><path class="cls-20" d="M335.4 240.1h-29.1M335.4 225.5h-40.1"/><path class="cls-24" d="M431.1 240.1v-3.3h-54.9v3.3h54.9"/><path class="cls-19" d="M376.4 239.2l1 .9M378.1 236.8l3.3 3.3M381.9 236.8l3.4 3.3M386 236.8l3.4 3.3M390.1 236.8l3.3 3.3M393.9 236.8l3.4 3.3M398 236.8l3.4 3.3M402.1 236.8l3.3 3.3M406.2 236.8l3.3 3.3M410 236.8l3.4 3.3M414.1 236.8l3.3 3.3M418.2 236.8l3.3 3.3M422 236.8l3.4 3.3M426.1 236.8l3.3 3.3M430.2 236.8l1.2 1.2"/><path class="cls-24" d="M431.1 236.8v-.7h-54.9v.7h54.9M431.1 236.1v-5.6h-54.9v5.6h54.9"/><path class="cls-19" d="M377.6 230.5v5.6M379 230.5v5.6M380.5 230.5v5.6M381.9 230.5v5.6M383.4 230.5v5.6M384.6 230.5v5.6M386 230.5v5.6M387.4 230.5v5.6M388.9 230.5v5.6M390.3 230.5v5.6M391.8 230.5v5.6M393.2 230.5v5.6M394.6 230.5v5.6M396.1 230.5v5.6M397.5 230.5v5.6M399 230.5v5.6M400.2 230.5v5.6M401.6 230.5v5.6M403 230.5v5.6M404.5 230.5v5.6M405.9 230.5v5.6M407.4 230.5v5.6M408.8 230.5v5.6M410.2 230.5v5.6M411.7 230.5v5.6M413.1 230.5v5.6M414.6 230.5v5.6M415.8 230.5v5.6M417.2 230.5v5.6M418.6 230.5v5.6M420.1 230.5v5.6M421.5 230.5v5.6M423 230.5v5.6M424.4 230.5v5.6M425.8 230.5v5.6M427.3 230.5v5.6M428.7 230.5v5.6M429.9 230.5v5.6"/><path class="cls-24" d="M431.1 230.5v-5h-54.9v5h54.9"/><path class="cls-19" d="M376.4 226.9l3.4 3.6M378.8 225.5l5 5M382.6 225.5l5.1 5M386.7 225.5l5.1 5M390.8 225.5l5 5M394.9 225.5l5 5M398.7 225.5l5.1 5M402.8 225.5l5 5M406.9 225.5l5 5M410.7 225.5l5.1 5M414.8 225.5l5 5M418.9 225.5l5 5M422.7 225.5l5.1 5M426.8 225.5l4.6 4.3M430.9 225.5l.5.5"/><path class="cls-21" d="M431.1 236.8h-54.9M431.1 240.1h-54.9"/><path class="cls-19" d="M431.1 230.5h-54.9M431.1 236.1h-54.9"/><path class="cls-21" d="M431.1 225.5h-54.9M431.1 230.5h-54.9"/><path class="cls-20" d="M431.1 240.1h-54.9M431.1 225.5h-54.9"/><path class="cls-24" d="M526.9 240.1v-3.3h-55v3.3h55"/><path class="cls-19" d="M472.2 238.7l1.4 1.4M474.3 236.8l3.4 3.3M478.2 236.8l3.3 3.3M482.2 236.8l3.4 3.3M486.3 236.8l3.4 3.3M490.2 236.8l3.3 3.3M494.2 236.8l3.4 3.3M498.3 236.8l3.4 3.3M502.2 236.8l3.3 3.3M506.2 236.8l3.4 3.3M510.3 236.8l3.4 3.3M514.4 236.8l3.4 3.3M518.2 236.8l3.4 3.3M522.3 236.8l3.4 3.3M526.4 236.8l.7.7"/><path class="cls-24" d="M526.9 236.8v-.7h-55v.7h55M526.9 236.1v-5.6h-55v5.6h55"/><path class="cls-19" d="M472.6 230.5v5.6M474.1 230.5v5.6M475.3 230.5v5.6M476.7 230.5v5.6M478.2 230.5v5.6M479.6 230.5v5.6M481 230.5v5.6M482.5 230.5v5.6M483.9 230.5v5.6M485.4 230.5v5.6M486.8 230.5v5.6M488.2 230.5v5.6M489.4 230.5v5.6M490.9 230.5v5.6M492.3 230.5v5.6M493.8 230.5v5.6M495.2 230.5v5.6M496.6 230.5v5.6M498.1 230.5v5.6M499.5 230.5v5.6M501 230.5v5.6M502.4 230.5v5.6M503.8 230.5v5.6M505 230.5v5.6M506.5 230.5v5.6M507.9 230.5v5.6M509.4 230.5v5.6M510.8 230.5v5.6M512.2 230.5v5.6M513.7 230.5v5.6M515.1 230.5v5.6M516.6 230.5v5.6M518 230.5v5.6M519.4 230.5v5.6M520.6 230.5v5.6M522.1 230.5v5.6M523.5 230.5v5.6M525 230.5v5.6M526.4 230.5v5.6"/><path class="cls-24" d="M526.9 230.5v-5h-55v5h55"/><path class="cls-19" d="M472.2 226.7l3.8 3.8M475 225.5l5.1 5M478.9 225.5l5 5M483 225.5l5 5M487 225.5l5.1 5M490.9 225.5l5 5M495 225.5l5 5M499 225.5l5.1 5M503.1 225.5l5.1 5M507 225.5l5 5M511 225.5l5.1 5M515.1 225.5l5.1 5M519 225.5l5 5M523 225.5l4.1 3.8"/><path class="cls-21" d="M526.9 236.8h-55M526.9 240.1h-55"/><path class="cls-19" d="M526.9 230.5h-55M526.9 236.1h-55"/><path class="cls-21" d="M526.9 225.5h-55M526.9 230.5h-55"/><path class="cls-20" d="M526.9 240.1h-55M526.9 225.5h-55"/><path class="cls-24" d="M567.7 240.1h49.2l-3.4-3.3h-45.8v3.3"/><path class="cls-19" d="M567.9 238.2l1.9 1.9M570.3 236.8l3.4 3.3M574.4 236.8l3.4 3.3M578.5 236.8l3.3 3.3M582.6 236.8l3.3 3.3M586.4 236.8l3.4 3.3M590.5 236.8l3.3 3.3M594.6 236.8l3.3 3.3M598.4 236.8l3.4 3.3M602.5 236.8l3.3 3.3M606.6 236.8l3.3 3.3M610.4 236.8l3.4 3.3"/><path class="cls-24" d="M567.7 236.8h45.8l-.7-.7h-45.1v.7M567.7 236.1h45.1l-5.8-5.6h-39.3v5.6"/><path class="cls-19" d="M568.9 230.5v5.6M570.3 230.5v5.6M571.8 230.5v5.6M573.2 230.5v5.6M574.6 230.5v5.6M576.1 230.5v5.6M577.5 230.5v5.6M579 230.5v5.6M580.2 230.5v5.6M581.6 230.5v5.6M583 230.5v5.6M584.5 230.5v5.6M585.9 230.5v5.6M587.4 230.5v5.6M588.8 230.5v5.6M590.2 230.5v5.6M591.7 230.5v5.6M593.1 230.5v5.6M594.6 230.5v5.6M595.8 230.5v5.6M597.2 230.5v5.6M598.6 230.5v5.6M600.1 230.5v5.6M601.5 230.5v5.6M603 230.5v5.6M604.4 230.5v5.6M605.8 230.5v5.6M607.3 230.5v5.6M608.7 232v4.1M609.9 233.2v2.9M611.4 234.6v1.5M612.8 236.1"/><path class="cls-24" d="M567.7 230.5h33.6v-5h-33.6v5"/><path class="cls-19" d="M567.9 230.1l.3.4M567.9 226.2l4.3 4.3M571.3 225.5l5 5M575.1 225.5l5.1 5M579.2 225.5l5 5M583.3 225.5l5 5M587.1 225.5l5.1 5M591.2 225.5l5 5M595.3 225.5l5 5M599.1 225.5l2.4 2.2"/><path class="cls-21" d="M613.5 236.8h-45.8M616.9 240.1h-49.2"/><path class="cls-19" d="M601.3 230.5h-33.6M612.8 236.1h-45.1"/><path class="cls-21" d="M601.3 225.5h-33.6M601.3 230.5h-33.6"/><path class="cls-20" d="M616.9 240.1h-49.2M601.3 225.5h-33.6"/><path class="cls-19" d="M607 230.5h-5.7"/><path class="cls-21" d="M601.3 230.5v-5M306.3 240.1h-6M300.8 236.8l-.5 3.3M306.3 236.8h-5.5"/><path class="cls-20" d="M374.2 232.7v7.4h3.4v2h-43.9v-2h3.3v-7.4"/><path class="cls-1" d="M376.2 225.5h-40.8"/><path class="cls-20" d="M335.8 225.5h-.4"/><path class="cls-21" d="M374.2 240.1h3.4M337 240.1h-3.3"/><path class="cls-20" d="M335.4 230.5h40.8v2.2h-40.8zM372.3 232.7v-2.2M339 232.7v-2.2M376.2 230.5v2.2M357.7 230.5v2.2M372.3 230.5v2.2M353.6 230.5v2.2M357.7 230.5v2.2M339 230.5v2.2M353.6 230.5v2.2M335.4 230.5v2.2"/><path class="cls-24" d="M376.1 236.2h-1.9v-3.4h1.9"/><path class="cls-19" d="M374.7 232.7v3.4M376.2 232.7v3.4M376.1 236.2h-1.9v-3.4h1.9"/><path class="cls-21" d="M376.2 230.5v-5"/><path class="cls-24" d="M376.2 240.1h-2v-3.3h2"/><path class="cls-19" d="M374.5 237.3l1.9 1.9"/><path class="cls-21" d="M376.2 240.1h-2v-3.3h2M374.2 236.8v-4.1"/><path class="cls-24" d="M335.3 236.2h1.8v-3.4h-1.8"/><path class="cls-19" d="M336.6 232.7v3.4M335.3 236.2h1.8v-3.4h-1.8"/><path class="cls-21" d="M335.4 230.5v-5"/><path class="cls-24" d="M335.4 240.1h1.6v-3.3h-1.6"/><path class="cls-19" d="M335.6 238.5l1.7 1.6"/><path class="cls-21" d="M335.4 240.1h1.6v-3.3h-1.6M337 236.8v-4.1"/><path class="cls-20" d="M470 232.7v7.4h3.4v2h-44v-2h3.6v-7.4"/><path class="cls-1" d="M471.9 225.5h-40.8"/><path class="cls-20" d="M431.6 225.5h-.5"/><path class="cls-21" d="M470 240.1h3.4M433 240.1h-3.6"/><path class="cls-20" d="M431.1 230.5h40.8v2.2h-40.8zM468.3 232.7v-2.2M434.7 232.7v-2.2M471.9 230.5v2.2M453.4 230.5v2.2M468.3 230.5v2.2M449.4 230.5v2.2M453.4 230.5v2.2M434.7 230.5v2.2M449.4 230.5v2.2M431.1 230.5v2.2"/><path class="cls-24" d="M471.9 236.2h-1.8v-3.4h1.8"/><path class="cls-19" d="M471.2 232.7v3.4M471.9 236.2h-1.8v-3.4h1.8"/><path class="cls-21" d="M471.9 230.5v-5"/><path class="cls-24" d="M471.9 240.1H470v-3.3h1.9"/><path class="cls-19" d="M470.2 236.8l2 1.9"/><path class="cls-21" d="M471.9 240.1H470v-3.3h1.9M470 236.8v-4.1"/><path class="cls-24" d="M431.1 236.2h1.8v-3.4h-1.8"/><path class="cls-19" d="M431.4 232.7v3.4M432.8 232.7v3.4M431.1 236.2h1.8v-3.4h-1.8"/><path class="cls-21" d="M431.1 230.5v-5"/><path class="cls-24" d="M431.1 240.1h1.9v-3.3h-1.9"/><path class="cls-19" d="M431.4 238l1.9 1.9"/><path class="cls-21" d="M431.1 240.1h1.9v-3.3h-1.9M433 236.8v-4.1"/><path class="cls-20" d="M565.8 232.7v7.4h3.6v2h-44v-2h3.4v-7.4"/><path class="cls-1" d="M567.7 225.5h-40.8"/><path class="cls-20" d="M527.4 225.5h-.5"/><path class="cls-21" d="M565.8 240.1h3.6M528.8 240.1h-3.4"/><path class="cls-20" d="M526.9 230.5h40.8v2.2h-40.8zM564.1 232.7v-2.2M530.5 232.7v-2.2M567.7 230.5v2.2M549.4 230.5v2.2M564.1 230.5v2.2M545.4 230.5v2.2M549.4 230.5v2.2M530.5 230.5v2.2M545.4 230.5v2.2M526.9 230.5v2.2"/><path class="cls-24" d="M567.7 236.2h-1.8v-3.4h1.8"/><path class="cls-19" d="M566 232.7v3.4M567.4 232.7v3.4M567.7 236.2h-1.8v-3.4h1.8"/><path class="cls-21" d="M567.7 230.5v-5"/><path class="cls-24" d="M567.7 240.1h-1.9v-3.3h1.9"/><path class="cls-19" d="M566.5 236.8l1.4 1.4"/><path class="cls-21" d="M567.7 240.1h-1.9v-3.3h1.9M565.8 236.8v-4.1"/><path class="cls-24" d="M526.9 236.2h1.8v-3.4h-1.8"/><path class="cls-19" d="M527.8 232.7v3.4M526.9 236.2h1.8v-3.4h-1.8"/><path class="cls-21" d="M526.9 230.5v-5"/><path class="cls-24" d="M526.9 240.1h1.9v-3.3h-1.9"/><path class="cls-19" d="M527.1 237.5l1.9 1.9"/><path class="cls-21" d="M526.9 240.1h1.9v-3.3h-1.9M528.8 236.8v-4.1"/><path class="cls-24" d="M.6.1l7.2 7.2h225.8l7.2-7.2H.6"/><path class="cls-19" d="M239.4 1.8L237.7.1M237.2 3.7L233.6.1M235.3 5.9L229.5.1M232.6 7.3L225.4.1M228.8 7.3L221.6.1M224.7 7.3L217.5.1M220.6 7.3L213.4.1M216.8 7.3L209.6.1M212.7 7.3L205.5.1M208.6 7.3L201.4.1M204.6 7.3L197.4.1M200.7 7.3L193.5.1M196.6 7.3L189.4.1M192.6 7.3L185.4.1M188.7 7.3L181.5.1M184.6 7.3L177.4.1M180.6 7.3L173.4.1M176.7 7.3L169.5.1M172.6 7.3L165.4.1M168.6 7.3L161.4.1M164.5 7.3L157.3.1M160.6 7.3L153.4.1M156.6 7.3L149.4.1M152.5 7.3L145.3.1M148.6 7.3L141.4.1M144.6 7.3L137.4.1M140.5 7.3L133.3.1M136.6 7.3L129.4.1M132.6 7.3L125.4.1M128.5 7.3L121.3.1M124.4 7.3L117.2.1M120.6 7.3L113.4.1M116.5 7.3L109.3.1M112.4 7.3L105.2.1M108.6 7.3L101.4.1M104.5 7.3L97.3.1M100.4 7.3L93.2.1M96.6 7.3L89.4.1M92.5 7.3L85.3.1M88.4 7.3L81.2.1M84.3 7.3L77.1.1M80.5 7.3L73.3.1M76.4 7.3L69.2.1M72.3 7.3L65.1.1M68.5 7.3L61.3.1M64.4 7.3L57.2.1M60.3 7.3L53.1.1M56.2 7.3L49 .1M52.4 7.3L45.2.1M48.3 7.3L41.1.1M44.2 7.3L37 .1M40.4 7.3L33.2.1M36.3 7.3L29.1.1M32.2 7.3L25 .1M28.4 7.3L21.2.1M24.3 7.3L17.1.1M20.2 7.3L13 .1M16.2 7.3L9 .1M12.3 7.3L5.1.1M8.2 7.3L1 .1M231.9 7.3l7.2-7.2M227.8 7.3L235 .1M223.8 7.3L231 .1M219.7 7.3l7.2-7.2M215.8 7.3L223 .1M211.8 7.3L219 .1M207.7 7.3l7.2-7.2M203.8 7.3L211 .1M199.8 7.3L207 .1M195.7 7.3l7.2-7.2M191.8 7.3L199 .1M187.8 7.3L195 .1M183.7 7.3l7.2-7.2M179.6 7.3l7.2-7.2M175.8 7.3L183 .1M171.7 7.3l7.2-7.2M167.6 7.3l7.2-7.2M163.8 7.3L171 .1M159.7 7.3l7.2-7.2M155.6 7.3l7.2-7.2M151.8 7.3L159 .1M147.7 7.3l7.2-7.2M143.6 7.3l7.2-7.2M139.5 7.3l7.2-7.2M135.7 7.3l7.2-7.2M131.6 7.3l7.2-7.2M127.5 7.3l7.2-7.2M123.7 7.3l7.2-7.2M119.6 7.3l7.2-7.2M115.5 7.3l7.2-7.2M111.7 7.3l7.2-7.2M107.6 7.3l7.2-7.2M103.5 7.3l7.2-7.2M99.4 7.3l7.2-7.2M95.6 7.3l7.2-7.2M91.5 7.3L98.7.1M87.4 7.3L94.6.1M83.6 7.3L90.8.1M79.5 7.3L86.7.1M75.4 7.3L82.6.1M71.4 7.3L78.6.1M67.5 7.3L74.7.1M63.4 7.3L70.6.1M59.4 7.3L66.6.1M55.5 7.3L62.7.1M51.4 7.3L58.6.1M47.4 7.3L54.6.1M43.5 7.3L50.7.1M39.4 7.3L46.6.1M35.4 7.3L42.6.1M31.3 7.3L38.5.1M27.4 7.3L34.6.1M23.4 7.3L30.6.1M19.3 7.3L26.5.1M15.4 7.3L22.6.1M11.4 7.3L18.6.1M7.5 7.1l7-7M5.6 5.2l5-5.1M3.7 3L6.6.1M1.5 1.1l1-1"/><path class="cls-24" d="M.6.1l7.2 7.2h225.8l7.2-7.2H.6"/><path class="cls-19" d="M239.4 1.8L237.7.1M237.2 3.7L233.6.1M235.3 5.9L229.5.1M232.6 7.3L225.4.1M228.8 7.3L221.6.1M224.7 7.3L217.5.1M220.6 7.3L213.4.1M216.8 7.3L209.6.1M212.7 7.3L205.5.1M208.6 7.3L201.4.1M204.6 7.3L197.4.1M200.7 7.3L193.5.1M196.6 7.3L189.4.1M192.6 7.3L185.4.1M188.7 7.3L181.5.1M184.6 7.3L177.4.1M180.6 7.3L173.4.1M176.7 7.3L169.5.1M172.6 7.3L165.4.1M168.6 7.3L161.4.1M164.5 7.3L157.3.1M160.6 7.3L153.4.1M156.6 7.3L149.4.1M152.5 7.3L145.3.1M148.6 7.3L141.4.1M144.6 7.3L137.4.1M140.5 7.3L133.3.1M136.6 7.3L129.4.1M132.6 7.3L125.4.1M128.5 7.3L121.3.1M124.4 7.3L117.2.1M120.6 7.3L113.4.1M116.5 7.3L109.3.1M112.4 7.3L105.2.1M108.6 7.3L101.4.1M104.5 7.3L97.3.1M100.4 7.3L93.2.1M96.6 7.3L89.4.1M92.5 7.3L85.3.1M88.4 7.3L81.2.1M84.3 7.3L77.1.1M80.5 7.3L73.3.1M76.4 7.3L69.2.1M72.3 7.3L65.1.1M68.5 7.3L61.3.1M64.4 7.3L57.2.1M60.3 7.3L53.1.1M56.2 7.3L49 .1M52.4 7.3L45.2.1M48.3 7.3L41.1.1M44.2 7.3L37 .1M40.4 7.3L33.2.1M36.3 7.3L29.1.1M32.2 7.3L25 .1M28.4 7.3L21.2.1M24.3 7.3L17.1.1M20.2 7.3L13 .1M16.2 7.3L9 .1M12.3 7.3L5.1.1M8.2 7.3L1 .1M231.9 7.3l7.2-7.2M227.8 7.3L235 .1M223.8 7.3L231 .1M219.7 7.3l7.2-7.2M215.8 7.3L223 .1M211.8 7.3L219 .1M207.7 7.3l7.2-7.2M203.8 7.3L211 .1M199.8 7.3L207 .1M195.7 7.3l7.2-7.2M191.8 7.3L199 .1M187.8 7.3L195 .1M183.7 7.3l7.2-7.2M179.6 7.3l7.2-7.2M175.8 7.3L183 .1M171.7 7.3l7.2-7.2M167.6 7.3l7.2-7.2M163.8 7.3L171 .1M159.7 7.3l7.2-7.2M155.6 7.3l7.2-7.2M151.8 7.3L159 .1M147.7 7.3l7.2-7.2M143.6 7.3l7.2-7.2M139.5 7.3l7.2-7.2M135.7 7.3l7.2-7.2M131.6 7.3l7.2-7.2M127.5 7.3l7.2-7.2M123.7 7.3l7.2-7.2M119.6 7.3l7.2-7.2M115.5 7.3l7.2-7.2M111.7 7.3l7.2-7.2M107.6 7.3l7.2-7.2M103.5 7.3l7.2-7.2M99.4 7.3l7.2-7.2M95.6 7.3l7.2-7.2M91.5 7.3L98.7.1M87.4 7.3L94.6.1M83.6 7.3L90.8.1M79.5 7.3L86.7.1M75.4 7.3L82.6.1M71.4 7.3L78.6.1M67.5 7.3L74.7.1M63.4 7.3L70.6.1M59.4 7.3L66.6.1M55.5 7.3L62.7.1M51.4 7.3L58.6.1M47.4 7.3L54.6.1M43.5 7.3L50.7.1M39.4 7.3L46.6.1M35.4 7.3L42.6.1M31.3 7.3L38.5.1M27.4 7.3L34.6.1M23.4 7.3L30.6.1M19.3 7.3L26.5.1M15.4 7.3L22.6.1M11.4 7.3L18.6.1M7.5 7.1l7-7M5.6 5.2l5-5.1M3.7 3L6.6.1M1.5 1.1l1-1"/><path class="cls-21" d="M240.8.1H.6M233.6 7.3H7.8M233.6 7.3H7.8M240.8.1H.6"/><path class="cls-24" d="M7.8 108.9v6.9h132v-6.9H7.8"/><path class="cls-19" d="M140 111l-2.2-2.1M140 114.9l-6.2-6M136.9 115.8l-7-6.9M132.8 115.8l-7-6.9M128.7 115.8l-6.9-6.9M124.6 115.8l-6.9-6.9M120.8 115.8l-7-6.9M116.7 115.8l-6.9-6.9M112.6 115.8l-6.9-6.9M108.8 115.8l-7-6.9M104.7 115.8l-6.9-6.9M100.6 115.8l-6.9-6.9M96.8 115.8l-7-6.9M92.7 115.8l-6.9-6.9M88.6 115.8l-6.9-6.9M84.6 115.8l-7-6.9M80.7 115.8l-6.9-6.9M76.6 115.8l-6.9-6.9M72.6 115.8l-7-6.9M68.7 115.8l-6.9-6.9M64.6 115.8l-6.9-6.9M60.6 115.8l-7-6.9M56.5 115.8l-7-6.9M52.6 115.8l-6.9-6.9M48.6 115.8l-7-6.9M44.5 115.8l-7-6.9M40.6 115.8l-6.9-6.9M36.6 115.8l-7-6.9M32.5 115.8l-7-6.9M28.6 115.8l-6.9-6.9M24.6 115.8l-7-6.9M20.5 115.8l-7-6.9M16.4 115.8l-7-6.9M12.6 115.8L8 111.3M8.5 115.8l-.5-.7M139.3 115.8l.7-.5M135.4 115.8l4.6-4.5M131.4 115.8l6.9-6.9M127.3 115.8l6.9-6.9M123.4 115.8l7-6.9M119.4 115.8l6.9-6.9M115.3 115.8l6.9-6.9M111.2 115.8l7-6.9M107.4 115.8l6.9-6.9M103.3 115.8l6.9-6.9M99.2 115.8l7-6.9M95.4 115.8l6.9-6.9M91.3 115.8l6.9-6.9M87.2 115.8l7-6.9M83.4 115.8l6.9-6.9M79.3 115.8l6.9-6.9M75.2 115.8l7-6.9M71.1 115.8l7-6.9M67.3 115.8l6.9-6.9M63.2 115.8l7-6.9M59.1 115.8l7-6.9M55.3 115.8l6.9-6.9M51.2 115.8l7-6.9M47.1 115.8l7-6.9M43.3 115.8l6.9-6.9M39.2 115.8l7-6.9M35.1 115.8l7-6.9M31 115.8l7-6.9M27.2 115.8l7-6.9M23.1 115.8l7-6.9M19 115.8l7-6.9M15.2 115.8l7-6.9M11.1 115.8l7-6.9M8 115.1l6-6.2M8 111l2.2-2.1"/><path class="cls-24" d="M7.8 108.9v6.9h132v-6.9H7.8"/><path class="cls-19" d="M140 111l-2.2-2.1M140 114.9l-6.2-6M136.9 115.8l-7-6.9M132.8 115.8l-7-6.9M128.7 115.8l-6.9-6.9M124.6 115.8l-6.9-6.9M120.8 115.8l-7-6.9M116.7 115.8l-6.9-6.9M112.6 115.8l-6.9-6.9M108.8 115.8l-7-6.9M104.7 115.8l-6.9-6.9M100.6 115.8l-6.9-6.9M96.8 115.8l-7-6.9M92.7 115.8l-6.9-6.9M88.6 115.8l-6.9-6.9M84.6 115.8l-7-6.9M80.7 115.8l-6.9-6.9M76.6 115.8l-6.9-6.9M72.6 115.8l-7-6.9M68.7 115.8l-6.9-6.9M64.6 115.8l-6.9-6.9M60.6 115.8l-7-6.9M56.5 115.8l-7-6.9M52.6 115.8l-6.9-6.9M48.6 115.8l-7-6.9M44.5 115.8l-7-6.9M40.6 115.8l-6.9-6.9M36.6 115.8l-7-6.9M32.5 115.8l-7-6.9M28.6 115.8l-6.9-6.9M24.6 115.8l-7-6.9M20.5 115.8l-7-6.9M16.4 115.8l-7-6.9M12.6 115.8L8 111.3M8.5 115.8l-.5-.7M139.3 115.8l.7-.5M135.4 115.8l4.6-4.5M131.4 115.8l6.9-6.9M127.3 115.8l6.9-6.9M123.4 115.8l7-6.9M119.4 115.8l6.9-6.9M115.3 115.8l6.9-6.9M111.2 115.8l7-6.9M107.4 115.8l6.9-6.9M103.3 115.8l6.9-6.9M99.2 115.8l7-6.9M95.4 115.8l6.9-6.9M91.3 115.8l6.9-6.9M87.2 115.8l7-6.9M83.4 115.8l6.9-6.9M79.3 115.8l6.9-6.9M75.2 115.8l7-6.9M71.1 115.8l7-6.9M67.3 115.8l6.9-6.9M63.2 115.8l7-6.9M59.1 115.8l7-6.9M55.3 115.8l6.9-6.9M51.2 115.8l7-6.9M47.1 115.8l7-6.9M43.3 115.8l6.9-6.9M39.2 115.8l7-6.9M35.1 115.8l7-6.9M31 115.8l7-6.9M27.2 115.8l7-6.9M23.1 115.8l7-6.9M19 115.8l7-6.9M15.2 115.8l7-6.9M11.1 115.8l7-6.9M8 115.1l6-6.2M8 111l2.2-2.1"/><path class="cls-21" d="M139.8 108.9H7.8M139.8 115.8H7.8M139.8 115.8H7.8M139.8 108.9H7.8"/><path class="cls-24" d="M.6 230.5l7.2-5V37.3H.6v193.2"/><path class="cls-19" d="M8 39l-1.9-1.7M8 43.1l-5.8-5.8M8 47.2L.8 40M8 51L.8 43.8M8 55.1L.8 47.9M8 59.2L.8 52M8 63L.8 55.8M8 67.1L.8 59.9M8 71.2L.8 64M8 75L.8 67.8M8 79.1L.8 71.9M8 83.2L.8 76M8 87.3L.8 80.1M8 91.1L.8 83.9M8 95.2L.8 88M8 99.3L.8 92.1M8 103.1L.8 95.9M8 107.2L.8 100M8 111.3l-7.2-7.2M8 115.1l-7.2-7.2M8 119.2L.8 112M8 123.3l-7.2-7.2M8 127.3l-7.2-7.2M8 131.2L.8 124M8 135.3l-7.2-7.2M8 139.3l-7.2-7.2M8 143.2L.8 136M8 147.3l-7.2-7.2M8 151.3l-7.2-7.2M8 155.2L.8 148M8 159.3l-7.2-7.2M8 163.3l-7.2-7.2M8 167.4l-7.2-7.2M8 171.3l-7.2-7.2M8 175.3l-7.2-7.2M8 179.4l-7.2-7.2M8 183.3l-7.2-7.2M8 187.3l-7.2-7.2M8 191.4l-7.2-7.2M8 195.5l-7.2-7.2M8 199.3l-7.2-7.2M8 203.4l-7.2-7.2M8 207.5l-7.2-7.2M8 211.3l-7.2-7.2M8 215.4l-7.2-7.2M8 219.5l-7.2-7.2M8 223.3l-7.2-7.2M6.8 226.2l-6-6M4.4 227.9l-3.6-3.6M2 229.6l-1.2-1.2M.8 230.5l7.2-7.2M.8 226.5l7.2-7.2M.8 222.4l7.2-7.2M.8 218.5l7.2-7.2M.8 214.5l7.2-7.2M.8 210.4l7.2-7.2M.8 206.3l7.2-7.2M.8 202.5l7.2-7.2M.8 198.4l7.2-7.2M.8 194.3l7.2-7.2M.8 190.5l7.2-7.2M.8 186.4l7.2-7.2M.8 182.3l7.2-7.2M.8 178.5l7.2-7.2M.8 174.4l7.2-7.2M.8 170.3l7.2-7.2M.8 166.2L8 159M.8 162.4l7.2-7.2M.8 158.3l7.2-7.2M.8 154.2L8 147M.8 150.4l7.2-7.2M.8 146.3l7.2-7.2M.8 142.2L8 135M.8 138.4l7.2-7.2M.8 134.3l7.2-7.2M.8 130.2L8 123M.8 126.1l7.2-7.2M.8 122.3l7.2-7.2M.8 118.2L8 111M.8 114.1l7.2-7.2M.8 110.3l7.2-7.2M.8 106.2L8 99M.8 102.1L8 94.9M.8 98.1L8 90.9M.8 94.2L8 87M.8 90.1L8 82.9M.8 86.1L8 78.9M.8 82.2L8 75M.8 78.1L8 70.9M.8 74.1L8 66.9M.8 70.2L8 63M.8 66.1L8 58.9M.8 62.1L8 54.9M.8 58L8 50.8M.8 54.1L8 46.9M.8 50.1L8 42.9M.8 46L8 38.8M.8 42.1l4.6-4.8M.8 38.1l.5-.8"/><path class="cls-24" d="M.6 230.5l7.2-5V37.3H.6v193.2"/><path class="cls-19" d="M8 39l-1.9-1.7M8 43.1l-5.8-5.8M8 47.2L.8 40M8 51L.8 43.8M8 55.1L.8 47.9M8 59.2L.8 52M8 63L.8 55.8M8 67.1L.8 59.9M8 71.2L.8 64M8 75L.8 67.8M8 79.1L.8 71.9M8 83.2L.8 76M8 87.3L.8 80.1M8 91.1L.8 83.9M8 95.2L.8 88M8 99.3L.8 92.1M8 103.1L.8 95.9M8 107.2L.8 100M8 111.3l-7.2-7.2M8 115.1l-7.2-7.2M8 119.2L.8 112M8 123.3l-7.2-7.2M8 127.3l-7.2-7.2M8 131.2L.8 124M8 135.3l-7.2-7.2M8 139.3l-7.2-7.2M8 143.2L.8 136M8 147.3l-7.2-7.2M8 151.3l-7.2-7.2M8 155.2L.8 148M8 159.3l-7.2-7.2M8 163.3l-7.2-7.2M8 167.4l-7.2-7.2M8 171.3l-7.2-7.2M8 175.3l-7.2-7.2M8 179.4l-7.2-7.2M8 183.3l-7.2-7.2M8 187.3l-7.2-7.2M8 191.4l-7.2-7.2M8 195.5l-7.2-7.2M8 199.3l-7.2-7.2M8 203.4l-7.2-7.2M8 207.5l-7.2-7.2M8 211.3l-7.2-7.2M8 215.4l-7.2-7.2M8 219.5l-7.2-7.2M8 223.3l-7.2-7.2M6.8 226.2l-6-6M4.4 227.9l-3.6-3.6M2 229.6l-1.2-1.2M.8 230.5l7.2-7.2M.8 226.5l7.2-7.2M.8 222.4l7.2-7.2M.8 218.5l7.2-7.2M.8 214.5l7.2-7.2M.8 210.4l7.2-7.2M.8 206.3l7.2-7.2M.8 202.5l7.2-7.2M.8 198.4l7.2-7.2M.8 194.3l7.2-7.2M.8 190.5l7.2-7.2M.8 186.4l7.2-7.2M.8 182.3l7.2-7.2M.8 178.5l7.2-7.2M.8 174.4l7.2-7.2M.8 170.3l7.2-7.2M.8 166.2L8 159M.8 162.4l7.2-7.2M.8 158.3l7.2-7.2M.8 154.2L8 147M.8 150.4l7.2-7.2M.8 146.3l7.2-7.2M.8 142.2L8 135M.8 138.4l7.2-7.2M.8 134.3l7.2-7.2M.8 130.2L8 123M.8 126.1l7.2-7.2M.8 122.3l7.2-7.2M.8 118.2L8 111M.8 114.1l7.2-7.2M.8 110.3l7.2-7.2M.8 106.2L8 99M.8 102.1L8 94.9M.8 98.1L8 90.9M.8 94.2L8 87M.8 90.1L8 82.9M.8 86.1L8 78.9M.8 82.2L8 75M.8 78.1L8 70.9M.8 74.1L8 66.9M.8 70.2L8 63M.8 66.1L8 58.9M.8 62.1L8 54.9M.8 58L8 50.8M.8 54.1L8 46.9M.8 50.1L8 42.9M.8 46L8 38.8M.8 42.1l4.6-4.8M.8 38.1l.5-.8"/><path class="cls-21" d="M.6 37.3v188.2M7.8 115.8v109.7M7.8 37.3v71.6M7.8 115.8v109.7M.6 37.3v188.2M7.8 37.3v71.6"/><path class="cls-24" d="M.6 4.9h4.8L.6.1v4.8"/><path class="cls-19" d="M1.8 4.9l-1-1.2M1.8 4.9L3.7 3M.8 2.1l.7-1"/><path class="cls-24" d="M.6 4.9h4.8L.6.1v4.8"/><path class="cls-19" d="M1.8 4.9l-1-1.2M1.8 4.9L3.7 3M.8 2.1l.7-1"/><path class="cls-21" d="M.6.1v4.8M.6.1v4.8M.6 225.5v5"/><path class="cls-20" d="M0 4.9h1.7v2.6H0zM0 34.7h1.7v2.6H0zM0 7.6h1.7v27.1H0zM1.8 7.6v27.1"/><path class="cls-1" d="M7.8 7.3v27.6"/><path class="cls-20" d="M7.8 34.5v.4"/><path class="cls-24" d="M7.7 5v2.3H1.8V5H.6"/><path class="cls-19" d="M8 6.9l-2.2-2M4.2 7.3L2 4.9M7.3 7.3l.7-.4M3.4 7.3l2.4-2.4M1.8 4.9"/><path class="cls-21" d="M7.7 7.3H1.8V5H.6"/><path class="cls-24" d="M7.8 37.3v-2.4h-6v2.4H.6"/><path class="cls-19" d="M8 34.9h-.2M6.1 37.3l-2.4-2.4M2.2 37.3l-.2-.2M5.4 37.3l2.4-2.4M2 36.9l1.7-2"/><path class="cls-21" d="M7.8 37.3v-2.4h-6v2.4H.6"/><path class="cls-24" d="M190.9 106l6.9 9.8V48.4l-6.9-7.2V106"/><path class="cls-19" d="M198.1 48.6l-7-6.9M198.1 52.7l-7-7M198.1 56.8l-7-7M198.1 60.9l-7-7M198.1 64.7l-7-7M198.1 68.8l-7-7M198.1 72.9l-7-7M198.1 76.7l-7-7M198.1 80.8l-7-7M198.1 84.9l-7-7M198.1 88.7l-7-7M198.1 92.8l-7-7M198.1 96.9l-7-7M198.1 100.9l-7-6.9M198.1 104.8l-7-7M198.1 108.9l-7-7M198.1 112.9l-7-6.9M196.9 114.4l1.2-1M195.2 112l2.9-2.7M193.5 109.6l4.6-4.3M191.8 107.4l6.3-6M191.1 104.3l7-7M191.1 100.2l7-6.9M191.1 96.4l7-7M191.1 92.3l7-7M191.1 88.2l7-6.9M191.1 84.1l7-6.9M191.1 80.3l7-7M191.1 76.2l7-6.9M191.1 72.1l7-6.9M191.1 68.3l7-7M191.1 64.2l7-6.9M191.1 60.1l7-6.9M191.1 56.3l7-7M191.1 52.2l5.3-5.5M191.1 48.1l3.4-3.3M191.1 44.1l1.5-1.5"/><path class="cls-24" d="M190.9 106l6.9 9.8V48.4l-6.9-7.2V106"/><path class="cls-19" d="M198.1 48.6l-7-6.9M198.1 52.7l-7-7M198.1 56.8l-7-7M198.1 60.9l-7-7M198.1 64.7l-7-7M198.1 68.8l-7-7M198.1 72.9l-7-7M198.1 76.7l-7-7M198.1 80.8l-7-7M198.1 84.9l-7-7M198.1 88.7l-7-7M198.1 92.8l-7-7M198.1 96.9l-7-7M198.1 100.9l-7-6.9M198.1 104.8l-7-7M198.1 108.9l-7-7M198.1 112.9l-7-6.9M196.9 114.4l1.2-1M195.2 112l2.9-2.7M193.5 109.6l4.6-4.3M191.8 107.4l6.3-6M191.1 104.3l7-7M191.1 100.2l7-6.9M191.1 96.4l7-7M191.1 92.3l7-7M191.1 88.2l7-6.9M191.1 84.1l7-6.9M191.1 80.3l7-7M191.1 76.2l7-6.9M191.1 72.1l7-6.9M191.1 68.3l7-7M191.1 64.2l7-6.9M191.1 60.1l7-6.9M191.1 56.3l7-7M191.1 52.2l5.3-5.5M191.1 48.1l3.4-3.3M191.1 44.1l1.5-1.5"/><path class="cls-21" d="M190.9 51v55M197.8 48.4v67.4M197.8 48.4v67.4M190.9 51v55"/><path class="cls-24" d="M145.5 51.3l-5.7-10.4v74.9l5.7-9.8V51.3"/><path class="cls-19" d="M142.2 45l-2.2-2.1M145.8 52.5l-5.8-5.8M145.8 56.5l-5.8-5.7M145.8 60.6l-5.8-5.7M145.8 64.5l-5.8-5.8M145.8 68.5l-5.8-5.7M145.8 72.6l-5.8-5.7M145.8 76.7l-5.8-5.8M145.8 80.5l-5.8-5.7M145.8 84.6l-5.8-5.7M145.8 88.7l-5.8-5.8M145.8 92.5l-5.8-5.7M145.8 96.6l-5.8-5.7M145.8 100.7l-5.8-5.8M145.8 104.5l-5.8-5.7M144.6 107.7l-4.6-4.8M143.1 110.3l-3.1-3.4M141.7 112.7L140 111M140.2 115.3l-.2-.4M140 115.3l.5-.7M140 111.3l5.8-5.8M140 107.4l5.8-5.7M140 103.3l5.8-5.7M140 99.3l5.8-5.8M140 95.2l5.8-5.8M140 91.3l5.8-5.7M140 87.3l5.8-5.8M140 83.2l5.8-5.8M140 79.3l5.8-5.7M140 75.3l5.8-5.8M140 71.2l5.8-5.8M140 67.1l5.8-5.8M140 63.3l5.8-5.8M140 59.2l5.8-5.8M140 55.1l5-5M140 51.3l3.6-3.9M140 47.2l2.2-2.2M140 43.1l.7-.7"/><path class="cls-24" d="M145.5 51.3l-5.7-10.4v74.9l5.7-9.8V51.3"/><path class="cls-19" d="M142.2 45l-2.2-2.1M145.8 52.5l-5.8-5.8M145.8 56.5l-5.8-5.7M145.8 60.6l-5.8-5.7M145.8 64.5l-5.8-5.8M145.8 68.5l-5.8-5.7M145.8 72.6l-5.8-5.7M145.8 76.7l-5.8-5.8M145.8 80.5l-5.8-5.7M145.8 84.6l-5.8-5.7M145.8 88.7l-5.8-5.8M145.8 92.5l-5.8-5.7M145.8 96.6l-5.8-5.7M145.8 100.7l-5.8-5.8M145.8 104.5l-5.8-5.7M144.6 107.7l-4.6-4.8M143.1 110.3l-3.1-3.4M141.7 112.7L140 111M140.2 115.3l-.2-.4M140 115.3l.5-.7M140 111.3l5.8-5.8M140 107.4l5.8-5.7M140 103.3l5.8-5.7M140 99.3l5.8-5.8M140 95.2l5.8-5.8M140 91.3l5.8-5.7M140 87.3l5.8-5.8M140 83.2l5.8-5.8M140 79.3l5.8-5.7M140 75.3l5.8-5.8M140 71.2l5.8-5.8M140 67.1l5.8-5.8M140 63.3l5.8-5.8M140 59.2l5.8-5.8M140 55.1l5-5M140 51.3l3.6-3.9M140 47.2l2.2-2.2M140 43.1l.7-.7"/><path class="cls-21" d="M145.5 106V51.3M139.8 108.9v-68M139.8 108.9v-68M145.5 106V51.3"/><path class="cls-20" d="M7.8 69.5h34M7.8 61.8h34M7.8 54.1h34M7.8 46.5h34M139.8 46.5h-33.9M139.8 54.1h-33.9M139.8 61.8h-33.9M139.8 69.5h-33.9M66.1 108.9l-7.9-35.6M41.8 41.2h64.1v33.6H41.8zM122.7 46.5l3.9 3.8h-7.7l3.8-3.8zM46.9 74.8v34.1M54.6 74.8v34.1M62.2 74.8v34.1M69.9 74.8v34.1M77.6 74.8v34.1M85.3 74.8v34.1M93 74.8v34.1M100.6 74.8v34.1"/><path class="cls-20" d="M43.3 42.6h61.2v30.7H43.3zM100.6 91.8l-3.8 3.9V88l3.8 3.8zM62.2 91.8l-3.8 3.9V88l3.8 3.8zM24.8 69.5L21 65.7h7.6l-3.8 3.8z"/><path class="cls-24" d="M155.1 40.9h-15.3l5.7 10.4h9.6V40.9"/><path class="cls-19" d="M155.4 42.1l-1.2-1.2M155.4 46l-5.3-5.1M155.4 50.1l-9.4-9.2M152.5 51.3l-10.3-10.4M148.4 51.3l-6.2-6.3M151.8 51.3l3.6-3.4M147.9 51.3l7.5-7.5M145 50.1l9.2-9.2M143.6 47.4l6.5-6.5M142.2 45l3.8-4.1M140.7 42.4l1.5-1.5"/><path class="cls-24" d="M155.1 40.9h-15.3l5.7 10.4h9.6V40.9"/><path class="cls-19" d="M155.4 42.1l-1.2-1.2M155.4 46l-5.3-5.1M155.4 50.1l-9.4-9.2M152.5 51.3l-10.3-10.4M148.4 51.3l-6.2-6.3M151.8 51.3l3.6-3.4M147.9 51.3l7.5-7.5M145 50.1l9.2-9.2M143.6 47.4l6.5-6.5M142.2 45l3.8-4.1M140.7 42.4l1.5-1.5"/><path class="cls-21" d="M145.5 51.3h9.6M139.8 40.9h15.3M139.8 40.9h15.3M145.5 51.3h9.6"/><path class="cls-20" d="M158.2 49.8h29.6"/><path class="cls-1" d="M158.2 40.9h29.6"/><path class="cls-20" d="M187.3 40.9h.5"/><path class="cls-24" d="M155.1 40.9h3.1v8.9h-3.1"/><path class="cls-19" d="M158.5 41.2l-.5-.3M158.5 45.3l-3.1-3.2M158.5 49.1l-3.1-3.1M157.3 49.8l1.2-1.2M155.4 47.9l3.1-3.1M155.4 43.8l2.8-2.9"/><path class="cls-24" d="M190.9 40.9h-3.1v8.9h3.1"/><path class="cls-19" d="M191.1 41.7l-.9-.8M191.1 45.7l-3.1-3.1M191.1 49.8l-3.1-3.1M189.4 49.8l1.7-1.7M188 47.2l3.1-3.1M188 43.3l2.2-2.4"/><path class="cls-21" d="M158.2 40.9v8.9M187.8 40.9v8.9M158.2 40.9v8.9M155.1 40.9h3.1M187.8 40.9v8.9M190.9 40.9h-3.1M155.1 51.3v-1.5M190.9 51.3v-1.5M155.1 40.9h3.1M190.9 40.9h-3.1M158.2 49.8h-3.1M187.8 49.8h3.1"/><path class="cls-24" d="M145.5 106l-5.7 9.8h58l-6.9-9.8h-45.4"/><path class="cls-19" d="M196.9 115.8L187 106M192.8 115.8L183 106M189 115.8l-9.9-9.8M184.9 115.8L175 106M180.8 115.8L171 106M177 115.8l-9.9-9.8M172.9 115.8L163 106M168.8 115.8L159 106M164.7 115.8l-9.8-9.8M160.9 115.8L151 106M156.8 115.8L147 106M152.7 115.8l-8.1-8.1M148.9 115.8l-5.8-5.5M144.8 115.8l-3.1-3.1M140.7 115.8l-.5-.5M195.4 115.8l1.5-1.4M191.6 115.8l3.6-3.8M187.5 115.8l6-6.2M183.4 115.8l8.4-8.4M179.4 115.8l9.8-9.8M175.5 115.8l9.9-9.8M171.4 115.8l9.9-9.8M167.4 115.8l9.8-9.8M163.5 115.8l9.9-9.8M159.4 115.8l9.9-9.8M155.4 115.8l9.8-9.8M151.5 115.8l9.9-9.8M147.4 115.8l9.9-9.8M143.4 115.8l9.8-9.8M140.5 114.6l8.6-8.6"/><path class="cls-24" d="M145.5 106l-5.7 9.8h58l-6.9-9.8h-45.4"/><path class="cls-19" d="M196.9 115.8L187 106M192.8 115.8L183 106M189 115.8l-9.9-9.8M184.9 115.8L175 106M180.8 115.8L171 106M177 115.8l-9.9-9.8M172.9 115.8L163 106M168.8 115.8L159 106M164.7 115.8l-9.8-9.8M160.9 115.8L151 106M156.8 115.8L147 106M152.7 115.8l-8.1-8.1M148.9 115.8l-5.8-5.5M144.8 115.8l-3.1-3.1M140.7 115.8l-.5-.5M195.4 115.8l1.5-1.4M191.6 115.8l3.6-3.8M187.5 115.8l6-6.2M183.4 115.8l8.4-8.4M179.4 115.8l9.8-9.8M175.5 115.8l9.9-9.8M171.4 115.8l9.9-9.8M167.4 115.8l9.8-9.8M163.5 115.8l9.9-9.8M159.4 115.8l9.9-9.8M155.4 115.8l9.8-9.8M151.5 115.8l9.9-9.8M147.4 115.8l9.9-9.8M143.4 115.8l9.8-9.8M140.5 114.6l8.6-8.6"/><path class="cls-21" d="M190.9 106h-45.4M197.8 115.8h-58M197.8 115.8h-58M190.9 106h-45.4"/><path class="cls-24" d="M106.4 154.9l-4.1-4.3v74.9h4.1v-70.6"/><path class="cls-19" d="M102.6 152.3l.7-1M102.6 156.4l2.6-2.9M102.6 160.7l4-4.1M102.6 165l4-4.1M102.6 169.1l4-4.1M102.6 173.4l4-4.1M102.6 177.7l4-4M102.6 182.1l4-4.1M102.6 186.1l4-4M102.6 190.5l4-4.1M102.6 194.8l4-4.1M102.6 198.9l4-4.1M102.6 203.2l4-4.1M102.6 207.5l4-4.1M102.6 211.6l4-4.1M102.6 215.9l4-4.1M102.6 220.2l4-4.1M102.6 224.5l4-4M105.7 225.5l.9-1"/><path class="cls-24" d="M106.4 154.9l-4.1-4.3v74.9h4.1v-70.6"/><path class="cls-19" d="M102.6 152.3l.7-1M102.6 156.4l2.6-2.9M102.6 160.7l4-4.1M102.6 165l4-4.1M102.6 169.1l4-4.1M102.6 173.4l4-4.1M102.6 177.7l4-4M102.6 182.1l4-4.1M102.6 186.1l4-4M102.6 190.5l4-4.1M102.6 194.8l4-4.1M102.6 198.9l4-4.1M102.6 203.2l4-4.1M102.6 207.5l4-4.1M102.6 211.6l4-4.1M102.6 215.9l4-4.1M102.6 220.2l4-4.1M102.6 224.5l4-4M105.7 225.5l.9-1"/><path class="cls-21" d="M106.4 225.5v-70.6M102.3 225.5v-74.9M102.3 225.5v-74.9M106.4 225.5v-70.6M106.4 225.5h-4.1"/><path class="cls-24" d="M197.8 40.9h-6.9l6.9 7.2v-7.2"/><path class="cls-19" d="M198.1 44.8l-3.9-3.9M196.6 46.7l1.5-1.4M194.5 44.5l3.6-3.3M192.6 42.6l1.6-1.7"/><path class="cls-24" d="M197.8 40.9h-6.9l6.9 7.2v-7.2"/><path class="cls-19" d="M198.1 44.8l-3.9-3.9M196.6 46.7l1.5-1.4M194.5 44.5l3.6-3.3M192.6 42.6l1.6-1.7"/><path class="cls-21" d="M190.9 40.9h6.9M190.9 40.9h6.9"/><path class="cls-20" d="M197.8 46.9h2.6v1.7h-2.6zM227.6 46.9h6v1.7h-6zM200.5 46.9h27.1v1.7h-27.1zM200.5 46.9h27.1"/><path class="cls-1" d="M200.2 40.9h27.9"/><path class="cls-20" d="M227.6 40.9h.5"/><path class="cls-24" d="M197.8 40.9h2.4v6h-2.4"/><path class="cls-19" d="M200.5 43.1l-2.4-2.2M200.2 46.9l-2.1-2.1M200.2 46.9h.3M198.1 45.3l2.4-2.4M198.1 41.2l.2-.3"/><path class="cls-24" d="M233.6 40.9h-5.5v6h5.5"/><path class="cls-19" d="M233.8 44.3l-3.6-3.4M232.2 46.9l-3.9-4M232.4 46.9l1.4-1.4M228.3 46.9l5.5-5.5M228.3 43.1l1.9-2.2"/><path class="cls-21" d="M200.2 40.9v6M228.1 40.9v6M200.2 40.9v6M197.8 40.9h2.4M228.1 40.9v6M233.6 40.9h-5.5M197.8 48.1v-1.2M233.6 48.1v-1.2M197.8 40.9h2.4M233.6 40.9h-5.5M200.2 46.9h-2.4M228.1 46.9h5.5"/><path class="cls-19" d="M200.5 75.9c14.9 0 27.2-12.3 27.2-27.2M200.5 48.6V76"/><path class="cls-24" d="M295.3 154.9l4.3-4.3h-51.4v4.3h47.1"/><path class="cls-19" d="M248.5 150.9v-.3M248.5 154.9l4.3-4.3M252.8 154.9l4.3-4.3M256.9 154.9l4.3-4.3M261.2 154.9l4.3-4.3M265.5 154.9l4.3-4.3M269.6 154.9l4.3-4.3M273.9 154.9l4.3-4.3M278.2 154.9l4.4-4.3M282.6 154.9l4.3-4.3M286.6 154.9l4.4-4.3M291 154.9l4.3-4.3M295.3 154.9l4.3-4.3"/><path class="cls-24" d="M295.3 154.9l4.3-4.3h-51.4v4.3h47.1"/><path class="cls-19" d="M248.5 150.9v-.3M248.5 154.9l4.3-4.3M252.8 154.9l4.3-4.3M256.9 154.9l4.3-4.3M261.2 154.9l4.3-4.3M265.5 154.9l4.3-4.3M269.6 154.9l4.3-4.3M273.9 154.9l4.3-4.3M278.2 154.9l4.4-4.3M282.6 154.9l4.3-4.3M286.6 154.9l4.4-4.3M291 154.9l4.3-4.3M295.3 154.9l4.3-4.3"/><path class="cls-21" d="M248.2 154.9h47.1M248.2 150.6h51.4M248.2 150.6h51.4M248.2 154.9h47.1"/><path class="cls-24" d="M178.9 154.9v-4.3h43.9v4.3h-43.9"/><path class="cls-19" d="M179.1 152.1l1.5-1.5M180.6 154.9l4.3-4.3M184.6 154.9l4.4-4.3M189 154.9l4.3-4.3M193.3 154.9l4.3-4.3M197.4 154.9l4.3-4.3M201.7 154.9l4.3-4.3M206 154.9l4.3-4.3M210.1 154.9l4.3-4.3M214.4 154.9l4.3-4.3M218.7 154.9l4.3-4.3"/><path class="cls-24" d="M178.9 150.6v4.3h43.9v-4.3h-43.9"/><path class="cls-19" d="M179.1 152.1l1.5-1.5M180.6 154.9l4.3-4.3M184.6 154.9l4.4-4.3M189 154.9l4.3-4.3M193.3 154.9l4.3-4.3M197.4 154.9l4.3-4.3M201.7 154.9l4.3-4.3M206 154.9l4.3-4.3M210.1 154.9l4.3-4.3M214.4 154.9l4.3-4.3M218.7 154.9l4.3-4.3"/><path class="cls-21" d="M178.9 154.9h43.9M178.9 150.6h43.9M178.9 150.6h43.9M178.9 154.9h43.9"/><path class="cls-24" d="M153.7 150.6h-51.4l4.1 4.3h47.3v-4.3"/><path class="cls-19" d="M103.3 151.3l.7-.7M105.2 153.5l3.1-2.9M108.1 154.9l4.3-4.3M112.4 154.9l4.3-4.3M116.7 154.9l4.3-4.3M121 154.9l4.4-4.3M125.1 154.9l4.3-4.3M129.4 154.9l4.4-4.3M133.8 154.9l4.3-4.3M137.8 154.9l4.4-4.3M142.2 154.9l4.3-4.3M146.5 154.9l4.3-4.3M150.8 154.9l3.1-3.1"/><path class="cls-24" d="M153.7 150.6h-51.4l4.1 4.3h47.3v-4.3"/><path class="cls-19" d="M103.3 151.3l.7-.7M105.2 153.5l3.1-2.9M108.1 154.9l4.3-4.3M112.4 154.9l4.3-4.3M116.7 154.9l4.3-4.3M121 154.9l4.4-4.3M125.1 154.9l4.3-4.3M129.4 154.9l4.4-4.3M133.8 154.9l4.3-4.3M137.8 154.9l4.4-4.3M142.2 154.9l4.3-4.3M146.5 154.9l4.3-4.3M150.8 154.9l3.1-3.1"/><path class="cls-21" d="M106.4 154.9h47.3M102.3 150.6h51.4M102.3 150.6h51.4M106.4 154.9h47.3"/><path class="cls-1" d="M153.7 154.9h25.2M153.7 150.6h25.2"/><path class="cls-20" d="M154.9 154.9v-4.3M177.7 154.9v-4.3"/><path class="cls-21" d="M153.7 154.9v-4.3M178.9 154.9v-4.3"/><path class="cls-19" d="M155 155c0 12.4 10.2 22.7 22.7 22.7M177.7 154.9v22.8"/><path class="cls-1" d="M222.8 154.9h25.4M222.8 150.6h25.4"/><path class="cls-20" d="M224.2 154.9v-4.3M246.8 154.9v-4.3"/><path class="cls-21" d="M222.8 154.9v-4.3M248.2 154.9v-4.3"/><path class="cls-19" d="M224.2 177.6c12.4 0 22.7-10.2 22.7-22.7M224.2 154.9v22.8"/><path class="cls-24" d="M302.7 46.9l-7.2-6.9v17.3l7.2 7.2V46.9"/><path class="cls-19" d="M303 49.3l-7.2-7.2M303 53.4l-7.2-7.2M303 57.5l-7.2-7.2M303 61.3l-7.2-7.2M300.8 62.5l2.2-1.9M298.9 60.6l4.1-4.1M297 58.5l6-6M295.8 55.8l7.2-7.2M295.8 51.7l5.7-6M295.8 47.7l3.8-3.9M295.8 43.8l1.6-1.9"/><path class="cls-24" d="M302.7 46.9l-7.2-6.9v17.3l7.2 7.2V46.9"/><path class="cls-19" d="M303 49.3l-7.2-7.2M303 53.4l-7.2-7.2M303 57.5l-7.2-7.2M303 61.3l-7.2-7.2M300.8 62.5l2.2-1.9M298.9 60.6l4.1-4.1M297 58.5l6-6M295.8 55.8l7.2-7.2M295.8 51.7l5.7-6M295.8 47.7l3.8-3.9M295.8 43.8l1.6-1.9"/><path class="cls-21" d="M302.7 64.5V46.9M295.5 57.3V40M295.5 57.3V40M302.7 64.5V46.9"/><path class="cls-24" d="M366.6 40l-7.2 6.9v74.9l7.2-7.2V40"/><path class="cls-19" d="M366.8 41.2l-.7-.7M366.8 45l-2.6-2.6M366.8 49.1l-4.8-4.6M366.8 53.2l-6.7-6.7M366.8 57l-7.2-7.2M366.8 61.1l-7.2-7.2M366.8 65.2l-7.2-7.2M366.8 69l-7.2-7.2M366.8 73.1l-7.2-7.2M366.8 77.2l-7.2-7.2M366.8 81.3l-7.2-7.2M366.8 85.1l-7.2-7.2M366.8 89.2l-7.2-7.2M366.8 93.3l-7.2-7.2M366.8 97.1l-7.2-7.2M366.8 101.2l-7.2-7.2M366.8 105.3l-7.2-7.2M366.8 109.1l-7.2-7.2M366.8 113.2l-7.2-7.2M365.4 115.8l-5.8-5.7M363.4 118l-3.8-3.9M361.3 119.9l-1.7-1.9M359.6 120.1l7.2-7.2M359.6 116.3l7.2-7.2M359.6 112.2l7.2-7.2M359.6 108.1l7.2-7.2M359.6 104.1l7.2-7.2M359.6 100.2l7.2-7.2M359.6 96.1l7.2-7.2M359.6 92.1l7.2-7.2M359.6 88.2l7.2-7.2M359.6 84.1l7.2-7.2M359.6 80.1l7.2-7.2M359.6 76.2l7.2-7.2M359.6 72.1l7.2-7.2M359.6 68.1l7.2-7.2M359.6 64l7.2-7.2M359.6 60.1l7.2-7.2M359.6 56.1l7.2-7.2M359.6 52l7.2-7.2M359.6 48.1l7.2-7.2"/><path class="cls-24" d="M366.6 40l-7.2 6.9v74.9l7.2-7.2V40"/><path class="cls-19" d="M366.8 41.2l-.7-.7M366.8 45l-2.6-2.6M366.8 49.1l-4.8-4.6M366.8 53.2l-6.7-6.7M366.8 57l-7.2-7.2M366.8 61.1l-7.2-7.2M366.8 65.2l-7.2-7.2M366.8 69l-7.2-7.2M366.8 73.1l-7.2-7.2M366.8 77.2l-7.2-7.2M366.8 81.3l-7.2-7.2M366.8 85.1l-7.2-7.2M366.8 89.2l-7.2-7.2M366.8 93.3l-7.2-7.2M366.8 97.1l-7.2-7.2M366.8 101.2l-7.2-7.2M366.8 105.3l-7.2-7.2M366.8 109.1l-7.2-7.2M366.8 113.2l-7.2-7.2M365.4 115.8l-5.8-5.7M363.4 118l-3.8-3.9M361.3 119.9l-1.7-1.9M359.6 120.1l7.2-7.2M359.6 116.3l7.2-7.2M359.6 112.2l7.2-7.2M359.6 108.1l7.2-7.2M359.6 104.1l7.2-7.2M359.6 100.2l7.2-7.2M359.6 96.1l7.2-7.2M359.6 92.1l7.2-7.2M359.6 88.2l7.2-7.2M359.6 84.1l7.2-7.2M359.6 80.1l7.2-7.2M359.6 76.2l7.2-7.2M359.6 72.1l7.2-7.2M359.6 68.1l7.2-7.2M359.6 64l7.2-7.2M359.6 60.1l7.2-7.2M359.6 56.1l7.2-7.2M359.6 52l7.2-7.2M359.6 48.1l7.2-7.2"/><path class="cls-21" d="M366.6 114.6V40M359.4 121.8V46.9M359.4 121.8V46.9M366.6 114.6V40"/><path class="cls-24" d="M336.2 96.4c-.9 1.3-.9 3 0 4.3 1.5 1.9 3.8 2.9 6.2 2.9l9-.3v-9.6l-9-.3c-2.4 0-4.7 1-6.2 2.9"/><path class="cls-20" d="M336.2 96.4c-.9 1.3-.9 3 0 4.3 1.5 1.9 3.8 2.9 6.2 2.9l9-.3v-9.6l-9-.3c-2.4 0-4.7 1-6.2 2.9"/><path class="cls-24" d="M346.3 98.6c0-1-.3-2-1.1-2.8-.7-.7-1.7-1.2-2.7-1.2-2.1 0-4.1.9-5.4 2.5-.6.9-.6 2 0 2.9 1.3 1.6 3.3 2.5 5.4 2.5 1 0 2-.4 2.7-1.2.7-.7 1.1-1.8 1.1-2.8"/><path class="cls-20" d="M346.3 98.6c0-1-.3-2-1.1-2.8-.7-.7-1.7-1.2-2.7-1.2-2.1 0-4.1.9-5.4 2.5-.6.9-.6 2 0 2.9 1.3 1.6 3.3 2.5 5.4 2.5 1 0 2-.4 2.7-1.2.7-.7 1.1-1.8 1.1-2.8"/><path class="cls-24" d="M351 47.2h-48l-.1.1h-.1v.1h-.1V68.3l.1.1.1.1H351.2v-.1h.1l.1-.1V47.4h-.1l-.1-.1-.1-.1h-.1"/><path class="cls-20" d="M351 47.2h-48l-.1.1h-.1v.1h-.1V68.3l.1.1.1.1H351.2v-.1h.1l.1-.1V47.4h-.1l-.1-.1-.1-.1h-.1"/><path class="cls-24" d="M345.8 49.4h-37.4c-.4 0-.9 0-1.3.3-.4.2-.8.4-1.1.7-.3.3-.6.7-.7 1.1-.2.4-.3.9-.3 1.3V63c0 .4 0 .9.3 1.3.2.4.4.8.7 1.1.3.3.7.6 1.1.7.4.2.9.3 1.3.3h37.4c.4 0 .9 0 1.3-.3.4-.2.8-.4 1.1-.7.3-.3.6-.7.7-1.1.2-.4.3-.9.3-1.3V52.8c0-.4 0-.9-.3-1.3-.2-.4-.4-.8-.7-1.1-.3-.3-.7-.6-1.1-.7-.4-.2-.9-.3-1.3-.3"/><path class="cls-20" d="M345.8 49.4h-37.4c-.4 0-.9 0-1.3.3-.4.2-.8.4-1.1.7-.3.3-.6.7-.7 1.1-.2.4-.3.9-.3 1.3V63c0 .4 0 .9.3 1.3.2.4.4.8.7 1.1.3.3.7.6 1.1.7.4.2.9.3 1.3.3h37.4c.4 0 .9 0 1.3-.3.4-.2.8-.4 1.1-.7.3-.3.6-.7.7-1.1.2-.4.3-.9.3-1.3V52.8c0-.4 0-.9-.3-1.3-.2-.4-.4-.8-.7-1.1-.3-.3-.7-.6-1.1-.7-.4-.2-.9-.3-1.3-.3M352.2 111.5V90.9"/><path class="cls-7" d="M351.4 111.5V90.1"/><path class="cls-20" d="M353.6 111.5V92.1M352.2 111.5V90.9M351.4 111.5V90.1M353.6 111.5V92.1M356 90.9V72.4"/><path class="cls-7" d="M355.3 90.1v-17"/><path class="cls-20" d="M357.4 92.1V70.9M356 90.9V72.4M355.3 90.1v-17M357.4 92.1V70.9M352.2 72.4V46.9"/><path class="cls-7" d="M351.4 73.1V46.9"/><path class="cls-20" d="M353.6 70.9v-24M352.2 72.4V46.9M351.4 73.1V46.9M353.6 70.9v-24"/><path class="cls-24" d="M351.4 73.8H339c-.1 0-.3.1-.4.2-.1.1-.2.2-.2.4V88.5c0 .1.1.3.2.4.1.1.2.2.4.2h12.4V73.5"/><path class="cls-20" d="M351.4 73.8H339c-.1 0-.3.1-.4.2-.1.1-.2.2-.2.4V88.5c0 .1.1.3.2.4.1.1.2.2.4.2h12.4V73.5"/><path class="cls-17" d="M351.4 90.1h3.9"/><path class="cls-4" d="M355.3 90.1v-17"/><path class="cls-17" d="M355.3 73.1h-3.9"/><path class="cls-20" d="M356 72.4h-3.8"/><path class="cls-7" d="M355.3 73.1h-3.9"/><path class="cls-20" d="M357.4 70.9h-3.8M356 72.4h-3.8M355.3 73.1h-3.9M357.4 70.9h-3.8M352.2 90.9h3.8"/><path class="cls-7" d="M351.4 90.1h3.9"/><path class="cls-20" d="M353.6 92.1h3.8M352.2 90.9h3.8M351.4 90.1h3.9M353.6 92.1h3.8"/><path class="cls-7" d="M351.4 90.1v-17"/><path class="cls-24" d="M295.5 40l7.2 6.9h56.7l7.2-6.9h-71.1"/><path class="cls-19" d="M366.1 40.5l-.5-.5M364.2 42.4l-2.7-2.4M362 44.5l-4.3-4.5M360.1 46.5l-6.5-6.5M356.5 46.9l-7-6.9M352.4 46.9l-7-6.9M348.6 46.9l-7-6.9M344.5 46.9l-7-6.9M340.4 46.9l-7-6.9M336.6 46.9l-7-6.9M332.5 46.9l-7-6.9M328.4 46.9l-7-6.9M324.6 46.9l-7-6.9M320.5 46.9l-7-6.9M316.4 46.9l-7-6.9M312.3 46.9l-6.9-6.9M308.5 46.9l-7-6.9M304.4 46.9l-7-6.9M356.5 46.9l6.9-6.9M352.6 46.9l7-6.9M348.6 46.9l6.9-6.9M344.5 46.9l6.9-6.9M340.6 46.9l7-6.9M336.6 46.9l6.9-6.9M332.5 46.9l6.9-6.9M328.6 46.9l7-6.9M324.6 46.9l6.9-6.9M320.5 46.9l6.9-6.9M316.4 46.9l7-6.9M312.6 46.9l6.9-6.9M308.5 46.9l6.9-6.9M304.4 46.9l7-6.9M301.5 45.7l6-5.7M299.6 43.8l3.8-3.8M297.4 41.9l2-1.9"/><path class="cls-24" d="M295.5 40l7.2 6.9h56.7l7.2-6.9h-71.1"/><path class="cls-19" d="M366.1 40.5l-.5-.5M364.2 42.4l-2.7-2.4M362 44.5l-4.3-4.5M360.1 46.5l-6.5-6.5M356.5 46.9l-7-6.9M352.4 46.9l-7-6.9M348.6 46.9l-7-6.9M344.5 46.9l-7-6.9M340.4 46.9l-7-6.9M336.6 46.9l-7-6.9M332.5 46.9l-7-6.9M328.4 46.9l-7-6.9M324.6 46.9l-7-6.9M320.5 46.9l-7-6.9M316.4 46.9l-7-6.9M312.3 46.9l-6.9-6.9M308.5 46.9l-7-6.9M304.4 46.9l-7-6.9M356.5 46.9l6.9-6.9M352.6 46.9l7-6.9M348.6 46.9l6.9-6.9M344.5 46.9l6.9-6.9M340.6 46.9l7-6.9M336.6 46.9l6.9-6.9M332.5 46.9l6.9-6.9M328.6 46.9l7-6.9M324.6 46.9l6.9-6.9M320.5 46.9l6.9-6.9M316.4 46.9l7-6.9M312.6 46.9l6.9-6.9M308.5 46.9l6.9-6.9M304.4 46.9l7-6.9M301.5 45.7l6-5.7M299.6 43.8l3.8-3.8M297.4 41.9l2-1.9"/><path class="cls-21" d="M366.6 40h-71.1M359.4 46.9h-56.7M359.4 46.9h-56.7M366.6 40h-71.1"/><path class="cls-24" d="M240.8 57.3l-7.2 7.2h69.1l-7.2-7.2h-54.7"/><path class="cls-19" d="M302 64.5l-7.2-7.2M297.9 64.5l-7.2-7.2M293.8 64.5l-7.2-7.2M289.8 64.5l-7.2-7.2M285.9 64.5l-7.2-7.2M281.8 64.5l-7.2-7.2M277.8 64.5l-7.2-7.2M273.9 64.5l-7.2-7.2M269.8 64.5l-7.2-7.2M265.8 64.5l-7.2-7.2M261.7 64.5l-7.2-7.2M257.8 64.5l-7.2-7.2M253.8 64.5l-7.2-7.2M249.7 64.5l-7.2-7.2M245.8 64.5l-6-6M241.8 64.5l-4.1-4.1M237.7 64.5l-1.9-2M298.9 64.5l1.9-2M295 64.5l3.9-3.9M291 64.5l6-6M286.9 64.5l7.2-7.2M283 64.5l7.2-7.2M279 64.5l7.2-7.2M274.9 64.5l7.2-7.2M270.8 64.5l7.2-7.2M267 64.5l7.2-7.2M262.9 64.5l7.2-7.2M258.8 64.5l7.2-7.2M255 64.5l7.2-7.2M250.9 64.5l7.2-7.2M246.8 64.5l7.2-7.2M243 64.5l7.2-7.2M238.9 64.5l7.2-7.2M234.8 64.5l7.2-7.2"/><path class="cls-24" d="M240.8 57.3l-7.2 7.2h69.1l-7.2-7.2h-54.7"/><path class="cls-19" d="M302 64.5l-7.2-7.2M297.9 64.5l-7.2-7.2M293.8 64.5l-7.2-7.2M289.8 64.5l-7.2-7.2M285.9 64.5l-7.2-7.2M281.8 64.5l-7.2-7.2M277.8 64.5l-7.2-7.2M273.9 64.5l-7.2-7.2M269.8 64.5l-7.2-7.2M265.8 64.5l-7.2-7.2M261.7 64.5l-7.2-7.2M257.8 64.5l-7.2-7.2M253.8 64.5l-7.2-7.2M249.7 64.5l-7.2-7.2M245.8 64.5l-6-6M241.8 64.5l-4.1-4.1M237.7 64.5l-1.9-2M298.9 64.5l1.9-2M295 64.5l3.9-3.9M291 64.5l6-6M286.9 64.5l7.2-7.2M283 64.5l7.2-7.2M279 64.5l7.2-7.2M274.9 64.5l7.2-7.2M270.8 64.5l7.2-7.2M267 64.5l7.2-7.2M262.9 64.5l7.2-7.2M258.8 64.5l7.2-7.2M255 64.5l7.2-7.2M250.9 64.5l7.2-7.2M246.8 64.5l7.2-7.2M243 64.5l7.2-7.2M238.9 64.5l7.2-7.2M234.8 64.5l7.2-7.2"/><path class="cls-21" d="M295.5 57.3h-54.7M297.7 64.5h-59.8M297.7 64.5h-59.8M295.5 57.3h-54.7"/><path class="cls-24" d="M237.9 64.5h-4.3v51.3l4.3-4.3v-47"/><path class="cls-19" d="M233.8 67.6l3.2-3.1M233.8 71.9l4.4-4.3M233.8 76.2l4.4-4.3M233.8 80.3l4.4-4.3M233.8 84.6l4.4-4.3M233.8 88.9l4.4-4.3M233.8 93.3l4.4-4.4M233.8 97.3l4.4-4.3M233.8 101.7l4.4-4.4M233.8 106l4.4-4.3M233.8 110.1l4.4-4.4M233.8 114.4l4.4-4.3"/><path class="cls-24" d="M237.9 64.5h-4.3v51.3l4.3-4.3v-47"/><path class="cls-19" d="M233.8 67.6l3.2-3.1M233.8 71.9l4.4-4.3M233.8 76.2l4.4-4.3M233.8 80.3l4.4-4.3M233.8 84.6l4.4-4.3M233.8 88.9l4.4-4.3M233.8 93.3l4.4-4.4M233.8 97.3l4.4-4.3M233.8 101.7l4.4-4.4M233.8 106l4.4-4.3M233.8 110.1l4.4-4.4M233.8 114.4l4.4-4.3"/><path class="cls-21" d="M237.9 111.5v-47M233.6 115.8V64.5M233.6 115.8V64.5M237.9 111.5v-47M233.6 64.5h4.3"/><path class="cls-24" d="M237.9 111.5l-4.3 4.3h12.7v-4.3h-8.4"/><path class="cls-19" d="M236.5 115.8l4.3-4.3M240.8 115.8l4.3-4.3M245.1 115.8l1.5-1.4"/><path class="cls-24" d="M237.9 111.5l-4.3 4.3h12.7v-4.3h-8.4"/><path class="cls-19" d="M236.5 115.8l4.3-4.3M240.8 115.8l4.3-4.3M245.1 115.8l1.5-1.4"/><path class="cls-21" d="M246.3 111.5h-8.4M246.3 115.8h-12.7M246.3 115.8h-12.7M246.3 111.5h-8.4"/><path class="cls-24" d="M307 111.5v4.3h-35.5v-4.3H307"/><path class="cls-19" d="M271.8 114.9l3.1-3.4M274.9 115.8l4.3-4.3M279 115.8l4.3-4.3M283.3 115.8l4.3-4.3M287.6 115.8l4.3-4.3M291.9 115.8l4.3-4.3M296 115.8l4.3-4.3M300.3 115.8l4.3-4.3M304.6 115.8l2.7-2.6"/><path class="cls-24" d="M307 115.8v-4.3h-35.5v4.3H307"/><path class="cls-19" d="M271.8 114.9l3.1-3.4M274.9 115.8l4.3-4.3M279 115.8l4.3-4.3M283.3 115.8l4.3-4.3M287.6 115.8l4.3-4.3M291.9 115.8l4.3-4.3M296 115.8l4.3-4.3M300.3 115.8l4.3-4.3M304.6 115.8l2.7-2.6"/><path class="cls-21" d="M297.7 111.5h-26.2M307 111.5h-4.3M307 115.8h-35.5M307 115.8h-35.5M297.7 111.5h-26.2M307 111.5h-4.3"/><path class="cls-24" d="M359.4 111.5v4.3h-27.2v-4.3h27.2"/><path class="cls-19" d="M332.5 113.4l1.9-1.9M334.4 115.8l4.3-4.3M338.5 115.8l4.3-4.3M342.8 115.8l4.3-4.3M347.1 115.8l4.3-4.3M351.2 115.8l4.3-4.3M355.5 115.8l4.1-3.8"/><path class="cls-24" d="M359.4 115.8v-4.3h-27.2v4.3h27.2"/><path class="cls-19" d="M332.5 113.4l1.9-1.9M334.4 115.8l4.3-4.3M338.5 115.8l4.3-4.3M342.8 115.8l4.3-4.3M347.1 115.8l4.3-4.3M351.2 115.8l4.3-4.3M355.5 115.8l4.1-3.8"/><path class="cls-21" d="M359.4 111.5h-27.2M340.6 115.8h-8.4M359.4 115.8H345M340.6 115.8h-8.4M359.4 111.5h-27.2M359.4 115.8H345M359.4 111.5v4.3"/><path class="cls-1" d="M271.5 111.5h-25.2M271.5 115.8h-25.2"/><path class="cls-20" d="M270.3 111.5v4.3M247.8 111.5v4.3"/><path class="cls-21" d="M271.5 111.5v4.3M246.3 111.5v4.3"/><path class="cls-19" d="M247.7 115.8c0 12.4 10.2 22.7 22.7 22.7M270.3 115.8v22.8"/><path class="cls-1" d="M332.2 111.5H307M332.2 115.8H307"/><path class="cls-20" d="M330.8 111.5v4.3M308.2 111.5v4.3"/><path class="cls-21" d="M332.2 111.5v4.3M307 111.5v4.3"/><path class="cls-19" d="M308.2 115.8c0 12.4 10.2 22.7 22.7 22.7M330.8 115.8v22.8"/><path class="cls-24" d="M366.6 114.6l-7.2 7.2h117.3l7.2-7.2H366.6"/><path class="cls-19" d="M482.2 116.5l-1.9-1.9M480.1 118.5l-3.9-3.9M478.2 120.4l-5.8-5.8M475.5 121.8l-7.2-7.2M471.4 121.8l-7.2-7.2M467.6 121.8l-7.2-7.2M463.5 121.8l-7.2-7.2M459.4 121.8l-7.2-7.2M455.4 121.8l-7.2-7.2M451.5 121.8l-7.2-7.2M447.4 121.8l-7.2-7.2M443.4 121.8l-7.2-7.2M439.5 121.8l-7.2-7.2M435.4 121.8l-7.2-7.2M431.4 121.8l-7.2-7.2M427.3 121.8l-7.2-7.2M423.4 121.8l-7.2-7.2M419.4 121.8l-7.2-7.2M415.3 121.8l-7.2-7.2M411.4 121.8l-7.2-7.2M407.4 121.8l-7.2-7.2M403.3 121.8l-7.2-7.2M399.4 121.8l-7.2-7.2M395.4 121.8l-7.2-7.2M391.3 121.8l-7.2-7.2M387.2 121.8l-7.2-7.2M383.4 121.8l-7.2-7.2M379.3 121.8l-7.2-7.2M375.2 121.8l-7.2-7.2M371.4 121.8l-6-6M367.3 121.8l-3.9-3.8M363.2 121.8l-1.9-1.9M474.1 121.8l7.2-7.2M470 121.8l7.2-7.2M466.2 121.8l7.2-7.2M462.1 121.8l7.2-7.2M458 121.8l7.2-7.2M454.2 121.8l7.2-7.2M450.1 121.8l7.2-7.2M446 121.8l7.2-7.2M442.2 121.8l7.2-7.2M438.1 121.8l7.2-7.2M434 121.8l7.2-7.2M429.9 121.8l7.2-7.2M426.1 121.8l7.2-7.2M422 121.8l7.2-7.2M417.9 121.8l7.2-7.2M414.1 121.8l7.2-7.2M410 121.8l7.2-7.2M405.9 121.8l7.2-7.2M402.1 121.8l7.2-7.2M398 121.8l7.2-7.2M393.9 121.8l7.2-7.2M389.8 121.8l7.2-7.2M386 121.8l7.2-7.2M381.9 121.8l7.2-7.2M377.8 121.8l7.2-7.2M374 121.8l7.2-7.2M369.9 121.8l7.2-7.2M365.8 121.8l7.2-7.2M362 121.8l7.2-7.2"/><path class="cls-24" d="M366.6 114.6l-7.2 7.2h117.3l7.2-7.2H366.6"/><path class="cls-19" d="M482.2 116.5l-1.9-1.9M480.1 118.5l-3.9-3.9M478.2 120.4l-5.8-5.8M475.5 121.8l-7.2-7.2M471.4 121.8l-7.2-7.2M467.6 121.8l-7.2-7.2M463.5 121.8l-7.2-7.2M459.4 121.8l-7.2-7.2M455.4 121.8l-7.2-7.2M451.5 121.8l-7.2-7.2M447.4 121.8l-7.2-7.2M443.4 121.8l-7.2-7.2M439.5 121.8l-7.2-7.2M435.4 121.8l-7.2-7.2M431.4 121.8l-7.2-7.2M427.3 121.8l-7.2-7.2M423.4 121.8l-7.2-7.2M419.4 121.8l-7.2-7.2M415.3 121.8l-7.2-7.2M411.4 121.8l-7.2-7.2M407.4 121.8l-7.2-7.2M403.3 121.8l-7.2-7.2M399.4 121.8l-7.2-7.2M395.4 121.8l-7.2-7.2M391.3 121.8l-7.2-7.2M387.2 121.8l-7.2-7.2M383.4 121.8l-7.2-7.2M379.3 121.8l-7.2-7.2M375.2 121.8l-7.2-7.2M371.4 121.8l-6-6M367.3 121.8l-3.9-3.8M363.2 121.8l-1.9-1.9M474.1 121.8l7.2-7.2M470 121.8l7.2-7.2M466.2 121.8l7.2-7.2M462.1 121.8l7.2-7.2M458 121.8l7.2-7.2M454.2 121.8l7.2-7.2M450.1 121.8l7.2-7.2M446 121.8l7.2-7.2M442.2 121.8l7.2-7.2M438.1 121.8l7.2-7.2M434 121.8l7.2-7.2M429.9 121.8l7.2-7.2M426.1 121.8l7.2-7.2M422 121.8l7.2-7.2M417.9 121.8l7.2-7.2M414.1 121.8l7.2-7.2M410 121.8l7.2-7.2M405.9 121.8l7.2-7.2M402.1 121.8l7.2-7.2M398 121.8l7.2-7.2M393.9 121.8l7.2-7.2M389.8 121.8l7.2-7.2M386 121.8l7.2-7.2M381.9 121.8l7.2-7.2M377.8 121.8l7.2-7.2M374 121.8l7.2-7.2M369.9 121.8l7.2-7.2M365.8 121.8l7.2-7.2M362 121.8l7.2-7.2"/><path class="cls-21" d="M483.9 114.6H366.6M476.7 121.8H359.4M476.7 121.8H359.4M483.9 114.6H366.6"/><path class="cls-24" d="M302.7 64.5h-5v47h5v-47"/><path class="cls-19" d="M297.9 67.3l2.7-2.8M297.9 71.7l5.1-5.1M297.9 75.7l5.1-5M297.9 80.1L303 75M297.9 84.4l5.1-5.1M297.9 88.7l5.1-5M297.9 92.8l5.1-5.1M297.9 97.1l5.1-5M297.9 101.4l5.1-5M297.9 105.5l5.1-5M297.9 109.8l5.1-5M300.3 111.5l2.7-2.4"/><path class="cls-24" d="M302.7 64.5h-5v47h5v-47"/><path class="cls-19" d="M297.9 67.3l2.7-2.8M297.9 71.7l5.1-5.1M297.9 75.7l5.1-5M297.9 80.1L303 75M297.9 84.4l5.1-5.1M297.9 88.7l5.1-5M297.9 92.8l5.1-5.1M297.9 97.1l5.1-5M297.9 101.4l5.1-5M297.9 105.5l5.1-5M297.9 109.8l5.1-5M300.3 111.5l2.7-2.4"/><path class="cls-21" d="M302.7 111.5v-47M297.7 111.5v-47M297.7 111.5v-47M302.7 111.5v-47M297.7 64.5h5"/><path class="cls-24" d="M345 115.8h-4.4v24.5h4.4v-24.5"/><path class="cls-19" d="M340.9 118l1.9-2.2M340.9 122.1l4.3-4.4M340.9 126.4l4.3-4.3M340.9 130.7l4.3-4.3M340.9 134.8l4.3-4.3M340.9 139.1l4.3-4.3M343.8 140.3l1.4-1.2"/><path class="cls-24" d="M345 115.8h-4.4v24.5h4.4v-24.5"/><path class="cls-19" d="M340.9 118l1.9-2.2M340.9 122.1l4.3-4.4M340.9 126.4l4.3-4.3M340.9 130.7l4.3-4.3M340.9 134.8l4.3-4.3M340.9 139.1l4.3-4.3M343.8 140.3l1.4-1.2"/><path class="cls-21" d="M345 140.3v-24.5M340.6 140.3v-24.5M340.6 140.3v-24.5M345 140.3v-24.5M345 140.3h-4.4"/><path class="cls-24" d="M483.9 133.1l-7.2 7.2h122.4l5.5-7.2H483.9"/><path class="cls-19" d="M603.9 134.1l-.9-1M602.2 136.5l-3.1-3.4M600.6 138.6l-5.6-5.5M598.2 140.3l-7.2-7.2M594.3 140.3l-7.2-7.2M590.2 140.3l-7.2-7.2M586.2 140.3l-7.2-7.2M582.1 140.3l-7.2-7.2M578.2 140.3l-7.2-7.2M574.2 140.3l-7.2-7.2M570.1 140.3l-7.2-7.2M566.2 140.3l-7.2-7.2M562.2 140.3l-7.2-7.2M558.1 140.3l-7.2-7.2M554 140.3l-7.2-7.2M550.2 140.3l-7.2-7.2M546.1 140.3l-7.2-7.2M542 140.3l-7.2-7.2M538.2 140.3l-7.2-7.2M534.1 140.3l-7.2-7.2M530 140.3l-7.2-7.2M526.2 140.3l-7.2-7.2M522.1 140.3l-7.2-7.2M518 140.3l-7.2-7.2M513.9 140.3l-7.2-7.2M510.1 140.3l-7.2-7.2M506 140.3l-7.2-7.2M501.9 140.3l-7.2-7.2M498.1 140.3l-7.2-7.2M494 140.3l-7.2-7.2M489.9 140.3l-6.5-6.5M486.1 140.3l-4.6-4.6M482 140.3l-2.6-2.6M477.9 140.3l-.5-.5M596 140.3l7.2-7.2M591.9 140.3l7.2-7.2M587.8 140.3l7.2-7.2M584 140.3l7.2-7.2M579.9 140.3l7.2-7.2M575.8 140.3l7.2-7.2M572 140.3l7.2-7.2M567.9 140.3l7.2-7.2M563.8 140.3l7.2-7.2M559.8 140.3l7.2-7.2M555.9 140.3l7.2-7.2M551.8 140.3l7.2-7.2M547.8 140.3l7.2-7.2M543.9 140.3l7.2-7.2M539.8 140.3l7.2-7.2M535.8 140.3l7.2-7.2M531.9 140.3l7.2-7.2M527.8 140.3l7.2-7.2M523.8 140.3l7.2-7.2M519.7 140.3l7.2-7.2M515.8 140.3l7.2-7.2M511.8 140.3l7.2-7.2M507.7 140.3l7.2-7.2M503.8 140.3l7.2-7.2M499.8 140.3l7.2-7.2M495.7 140.3l7.2-7.2M491.8 140.3l7.2-7.2M487.8 140.3l7.2-7.2M483.7 140.3l7.2-7.2M479.6 140.3l7.2-7.2"/><path class="cls-24" d="M483.9 133.1l-7.2 7.2h122.4l5.5-7.2H483.9"/><path class="cls-19" d="M603.9 134.1l-.9-1M602.2 136.5l-3.1-3.4M600.6 138.6l-5.6-5.5M598.2 140.3l-7.2-7.2M594.3 140.3l-7.2-7.2M590.2 140.3l-7.2-7.2M586.2 140.3l-7.2-7.2M582.1 140.3l-7.2-7.2M578.2 140.3l-7.2-7.2M574.2 140.3l-7.2-7.2M570.1 140.3l-7.2-7.2M566.2 140.3l-7.2-7.2M562.2 140.3l-7.2-7.2M558.1 140.3l-7.2-7.2M554 140.3l-7.2-7.2M550.2 140.3l-7.2-7.2M546.1 140.3l-7.2-7.2M542 140.3l-7.2-7.2M538.2 140.3l-7.2-7.2M534.1 140.3l-7.2-7.2M530 140.3l-7.2-7.2M526.2 140.3l-7.2-7.2M522.1 140.3l-7.2-7.2M518 140.3l-7.2-7.2M513.9 140.3l-7.2-7.2M510.1 140.3l-7.2-7.2M506 140.3l-7.2-7.2M501.9 140.3l-7.2-7.2M498.1 140.3l-7.2-7.2M494 140.3l-7.2-7.2M489.9 140.3l-6.5-6.5M486.1 140.3l-4.6-4.6M482 140.3l-2.6-2.6M477.9 140.3l-.5-.5M596 140.3l7.2-7.2M591.9 140.3l7.2-7.2M587.8 140.3l7.2-7.2M584 140.3l7.2-7.2M579.9 140.3l7.2-7.2M575.8 140.3l7.2-7.2M572 140.3l7.2-7.2M567.9 140.3l7.2-7.2M563.8 140.3l7.2-7.2M559.8 140.3l7.2-7.2M555.9 140.3l7.2-7.2M551.8 140.3l7.2-7.2M547.8 140.3l7.2-7.2M543.9 140.3l7.2-7.2M539.8 140.3l7.2-7.2M535.8 140.3l7.2-7.2M531.9 140.3l7.2-7.2M527.8 140.3l7.2-7.2M523.8 140.3l7.2-7.2M519.7 140.3l7.2-7.2M515.8 140.3l7.2-7.2M511.8 140.3l7.2-7.2M507.7 140.3l7.2-7.2M503.8 140.3l7.2-7.2M499.8 140.3l7.2-7.2M495.7 140.3l7.2-7.2M491.8 140.3l7.2-7.2M487.8 140.3l7.2-7.2M483.7 140.3l7.2-7.2M479.6 140.3l7.2-7.2"/><path class="cls-21" d="M598.9 133.1h-115M599.1 140.3H476.7M599.1 140.3H476.7M598.9 133.1h-115M604.6 133.1h-5.7"/><path class="cls-24" d="M476.7 140.3l7.2-7.2v-18.5l-7.2 7.2v18.5"/><path class="cls-19" d="M484.2 118.2l-2-1.7M484.2 122.3l-4.1-3.8M484.2 126.4l-6-6M484.2 130.5l-7.2-7.2M483.4 133.8l-6.4-6.7M481.5 135.7l-4.5-4.5M479.4 137.7l-2.4-2.4M477.4 139.8l-.4-.7M477 139.1l7.2-7.2M477 135.3l7.2-7.2M477 131.2l7.2-7.2M477 127.1l7.2-7.2M477 123l7.2-7.2"/><path class="cls-24" d="M476.7 140.3l7.2-7.2v-18.5l-7.2 7.2v18.5"/><path class="cls-19" d="M484.2 118.2l-2-1.7M484.2 122.3l-4.1-3.8M484.2 126.4l-6-6M484.2 130.5l-7.2-7.2M483.4 133.8l-6.4-6.7M481.5 135.7l-4.5-4.5M479.4 137.7l-2.4-2.4M477.4 139.8l-.4-.7M477 139.1l7.2-7.2M477 135.3l7.2-7.2M477 131.2l7.2-7.2M477 127.1l7.2-7.2M477 123l7.2-7.2"/><path class="cls-21" d="M476.7 121.8v18.5M483.9 114.6v18.5M483.9 114.6v18.5M476.7 121.8v18.5"/><path class="cls-23" d="M350 122.3h9.8v2.4H350z"/><path class="cls-20" d="M350 122.3h9.8v2.4H350z"/><path class="cls-23" d="M349.8 124.7h10.3v.2h-10.3z"/><path class="cls-20" d="M349.8 124.7h10.3v.2h-10.3z"/><path class="cls-22" d="M350.7 124.9v8.4"/><path class="cls-3" d="M359.1 124.9v1.7l-.5 1.5-.9 1.6-1 1.2-1.2 1-1.4 1-1.7.4h-1.7"/><path class="cls-24" d="M613.5 236.8l3.4 3.3-.7-27.3h-3.4l.7 24"/><path class="cls-19" d="M613.5 235.8l3.4 3.4M613.5 231.7l3.4 3.4M613.3 227.7l3.3 3.3M613.3 223.6l3.3 3.3M613 219.3l3.6 3.6M613 215.2l3.4 3.3M614.5 212.8l1.9 1.7"/><path class="cls-24" d="M612.8 236.1l.7.7-.7-24h-.5l.5 23.3"/><path class="cls-24" d="M607 230.5l5.8 5.6-.5-23.3-5.7.2.4 17.5"/><path class="cls-19" d="M611.8 235.1l1-.2M610.4 233.7h2.4M609 232.2h3.8M607.5 230.8h5.3M607 229.3h5.8M607 227.9h5.8M607 226.7l5.8-.2M607 225.3l5.8-.3M607 223.8l5.6-.2M607 222.4l5.6-.3M606.8 220.9l5.8-.2M606.8 219.5l5.8-.2M606.8 218.1h5.8M606.8 216.6h5.8M606.8 215.2h5.8M606.8 213.7h5.8"/><path class="cls-24" d="M601.3 230.5h5.7l-.4-17.5-5.8.3.5 17.2"/><path class="cls-19" d="M606.8 217.1l-3.8-3.8M606.8 221.2l-5.8-6M607 225.3l-6-6M607 229.3l-5.7-5.7M604.2 230.5l-2.9-2.8M605.8 230.5l1.2-1.2M602 230.5l5-5M601.3 227.2l5.5-5.5M601.3 223.3l5.5-5.7M601 219.3l5.8-5.6M601 215.4l2.2-2.1"/><path class="cls-21" d="M612.8 212.8l.7 24M616.2 212.8l.7 27.3"/><path class="cls-19" d="M606.6 213l.4 17.5M612.3 212.8l.5 23.3"/><path class="cls-21" d="M600.8 213.3l.5 12.2M606.6 213l.4 17.5"/><path class="cls-20" d="M616.2 212.8l.7 27.3M600.8 213.3l.5 12.2"/><path class="cls-24" d="M614.2 131.9h-3.6l.5 18h3.6l-.5-18"/><path class="cls-19" d="M611.1 149.4l.7.5M611.1 145.1l3.6 3.8M611.1 141l3.6 3.9M610.9 136.9l3.6 3.6M610.9 132.9l3.6 3.6M613.8 131.9l.7.5"/><path class="cls-24" d="M610.6 131.9h-.4l.4 18h.5l-.5-18"/><path class="cls-24" d="M610.2 131.9h-5.8l.5 18.2 5.7-.2-.4-18"/><path class="cls-19" d="M604.9 150.1h2.9M604.9 148.7l5.7-.2M604.9 147.3l5.7-.3M604.9 145.8l5.7-.2M604.9 144.4h5.7M604.9 142.9h5.7M604.9 141.5h5.7M604.6 140.1h5.8M604.6 138.9l5.8-.3M604.6 137.4l5.8-.2M604.6 136l5.8-.3M604.6 134.5l5.8-.2M604.6 133.1l5.8-.2"/><path class="cls-24" d="M604.6 133.1l-5.5 7.2.3 10.1 5.5-.3-.3-17"/><path class="cls-19" d="M604.9 134.8l-1-.7M604.9 138.9l-2.7-2.4M604.9 142.9l-4.3-4.3M604.9 147l-5.5-5.7M604.2 150.1l-4.8-4.5M600.3 150.4l-.9-.7M602 150.4l2.9-3.1M599.4 148.9l5.5-5.5M599.4 144.9l5.5-5.6M599.4 141l5.5-5.5"/><path class="cls-24" d="M598.9 133.1h5.7l-.2-1.2h-5.5v1.2"/><path class="cls-19" d="M603 133.1l-1.2-1.2M603.2 133.1l1.2-1.2M599.1 133.1l1.2-1.2"/><path class="cls-21" d="M610.6 131.9l.5 18M614.2 131.9l.5 18"/><path class="cls-19" d="M604.6 133.1l.3 17M604.4 131.9l.2 1.2M610.2 131.9l.4 18"/><path class="cls-21" d="M599.1 140.3l.3 10.1M598.9 131.9v1.2M604.6 133.1l.3 17M604.4 131.9l.2 1.2"/><path class="cls-20" d="M614.2 131.9l.5 18M599.1 140.3l.3 10.1M598.9 131.9v1.2"/><path class="cls-21" d="M601.3 230.5h5.7M601.3 225.5v5"/><path class="cls-1" d="M599.4 150.4l1.4 62.9"/><path class="cls-20" d="M607.3 150.1l1.4 62.9h-2.1l-1.7-62.9h2.4zM607.3 153.7h-2.2M608.7 209.2l-2.1.2M604.9 150.1h2.4M605.4 169.1h2.4M605.1 153.7h2.2M605.6 173.2h2.2M605.4 169.1h2.4M606.1 190h2.1M605.6 173.2h2.2M606.1 194.1h2.1M606.1 190h2.1M606.6 209.4l2.1-.2M606.1 194.1h2.1M606.6 213h2.1"/><path class="cls-21" d="M604.9 150.1h-5.1"/><path class="cls-20" d="M616.2 214.5l1.9-.3"/><path class="cls-6" d="M618.1 214.2l-1.7-66"/><path class="cls-20" d="M616.4 148.2h-1"/><path class="cls-24" d="M610.6 150l.1 1.8-3.4.1-.1-1.8"/><path class="cls-19" d="M607.5 151.3h3.4M609.7 149.9h1.2M610.6 150l.1 1.8-3.4.1-.1-1.8"/><path class="cls-24" d="M614.7 149.9v1.9h-3.3l-.3-1.9"/><path class="cls-19" d="M611.8 149.9l2 1.9"/><path class="cls-21" d="M614.7 149.9v1.9h-3.3l-.3-1.9M611.4 151.8h-4.1"/><path class="cls-24" d="M612.2 212.9v-1.8h-3.4v1.9"/><path class="cls-19" d="M609 212.3h3.3M612.2 212.9v-1.8h-3.4v1.9"/><path class="cls-21" d="M606.6 213l-5.1.3"/><path class="cls-24" d="M616.2 212.8v-1.9l-3.4.2v1.7"/><path class="cls-19" d="M613 211.1l1.5 1.7"/><path class="cls-21" d="M616.2 212.8v-1.9l-3.4.2v1.7M612.8 211.1h-4.1"/><path class="cls-20" d="M614.2 133.6l41.1 6.2 1.9 80.9-40.6 8.4"/><path class="cls-20" d="M614.2 131.9l42.8 6.5 1.9 83.7-42.3 8.7"/><path class="cls-24" d="M299.6 230.5l-1.4 8.4-5.1-.7 2.2-12.7h4.3v5"/><path class="cls-19" d="M299.8 226.7l-1.2-1.2M299.6 230.5l-4.3-4.3M299.1 234.1l-4.3-4.5M298.6 237.5l-4.5-4.3M295.5 238.5l-1.9-2M297 238.7l1.6-1.4M293.6 238.2l5.8-5.7M294.1 233.9l5.7-5.8M294.8 228.9l3.6-3.4"/><path class="cls-21" d="M299.6 230.5l-1.4 8.4-5.1-.7 2.2-12.7h4.3v5z"/><path class="cls-24" d="M102.1 230.5l1.4 8.4 5.1-.7-2.2-12.7h-4.3v5"/><path class="cls-19" d="M106.6 226l-.4-.5M107.4 230.8l-5.1-5.3M108.3 235.6l-6-6M107.1 238.5l-4.3-4.4M104.5 238.7l3.6-3.4M103.3 236.3l4.3-4.6M102.6 232.7l4.5-4.3M102.3 229.1l3.6-3.6"/><path class="cls-21" d="M102.1 230.5l1.4 8.4 5.1-.7-2.2-12.7h-4.3v5z"/><path class="cls-24" d="M197.4 154.9h7.2v119.6h-7.2V154.9"/><path class="cls-19" d="M204.8 155.7l-1-.8M204.8 159.7l-4.8-4.8M204.8 163.6l-7.2-7.2M204.8 167.7l-7.2-7.2M204.8 171.7l-7.2-7.2M204.8 175.8l-7.2-7.2M204.8 179.7l-7.2-7.2M204.8 183.7l-7.2-7.2M204.8 187.8l-7.2-7.2M204.8 191.7l-7.2-7.2M204.8 195.7l-7.2-7.2M204.8 199.8l-7.2-7.2M204.8 203.7l-7.2-7.2M204.8 207.7l-7.2-7.2M204.8 211.8l-7.2-7.2M204.8 215.9l-7.2-7.2M204.8 219.7l-7.2-7.2M204.8 223.8l-7.2-7.2M204.8 227.9l-7.2-7.2M204.8 231.7l-7.2-7.2M204.8 235.8l-7.2-7.2M204.8 239.9l-7.2-7.2M204.8 244l-7.2-7.2M204.8 247.8l-7.2-7.2M204.8 251.9l-7.2-7.2M204.8 256l-7.2-7.2M204.8 259.8l-7.2-7.2M204.8 263.9l-7.2-7.2M204.8 268l-7.2-7.2M204.8 271.8l-7.2-7.2M203.1 274.5l-5.5-5.8M199.3 274.5l-1.7-1.7M201.2 274.5l3.6-3.4M197.6 274.2l7.2-7.2M197.6 270.1l7.2-7.2M197.6 266.1l7.2-7.2M197.6 262.2l7.2-7.2M197.6 258.1l7.2-7.2M197.6 254.1l7.2-7.2M197.6 250.2l7.2-7.2M197.6 246.1l7.2-7.2M197.6 242.1l7.2-7.2M197.6 238.2l7.2-7.2M197.6 234.1l7.2-7.2M197.6 230.1l7.2-7.2M197.6 226l7.2-7.2M197.6 222.1l7.2-7.2M197.6 218.1l7.2-7.2M197.6 214l7.2-7.2M197.6 210.1l7.2-7.2M197.6 206.1l7.2-7.2M197.6 202l7.2-7.2M197.6 198.1l7.2-7.2M197.6 194.1l7.2-7.2M197.6 190l7.2-7.2M197.6 185.9l7.2-7.2M197.6 182.1l7.2-7.2M197.6 178l7.2-7.2M197.6 173.9l7.2-7.2M197.6 170.1l7.2-7.2M197.6 166l7.2-7.2M197.6 161.9l7-7M197.6 157.8l2.9-2.9"/><path class="cls-24" d="M204.6 154.9h-7.2v119.6h7.2V154.9"/><path class="cls-19" d="M204.8 155.7l-1-.8M204.8 159.7l-4.8-4.8M204.8 163.6l-7.2-7.2M204.8 167.7l-7.2-7.2M204.8 171.7l-7.2-7.2M204.8 175.8l-7.2-7.2M204.8 179.7l-7.2-7.2M204.8 183.7l-7.2-7.2M204.8 187.8l-7.2-7.2M204.8 191.7l-7.2-7.2M204.8 195.7l-7.2-7.2M204.8 199.8l-7.2-7.2M204.8 203.7l-7.2-7.2M204.8 207.7l-7.2-7.2M204.8 211.8l-7.2-7.2M204.8 215.9l-7.2-7.2M204.8 219.7l-7.2-7.2M204.8 223.8l-7.2-7.2M204.8 227.9l-7.2-7.2M204.8 231.7l-7.2-7.2M204.8 235.8l-7.2-7.2M204.8 239.9l-7.2-7.2M204.8 244l-7.2-7.2M204.8 247.8l-7.2-7.2M204.8 251.9l-7.2-7.2M204.8 256l-7.2-7.2M204.8 259.8l-7.2-7.2M204.8 263.9l-7.2-7.2M204.8 268l-7.2-7.2M204.8 271.8l-7.2-7.2M203.1 274.5l-5.5-5.8M199.3 274.5l-1.7-1.7M201.2 274.5l3.6-3.4M197.6 274.2l7.2-7.2M197.6 270.1l7.2-7.2M197.6 266.1l7.2-7.2M197.6 262.2l7.2-7.2M197.6 258.1l7.2-7.2M197.6 254.1l7.2-7.2M197.6 250.2l7.2-7.2M197.6 246.1l7.2-7.2M197.6 242.1l7.2-7.2M197.6 238.2l7.2-7.2M197.6 234.1l7.2-7.2M197.6 230.1l7.2-7.2M197.6 226l7.2-7.2M197.6 222.1l7.2-7.2M197.6 218.1l7.2-7.2M197.6 214l7.2-7.2M197.6 210.1l7.2-7.2M197.6 206.1l7.2-7.2M197.6 202l7.2-7.2M197.6 198.1l7.2-7.2M197.6 194.1l7.2-7.2M197.6 190l7.2-7.2M197.6 185.9l7.2-7.2M197.6 182.1l7.2-7.2M197.6 178l7.2-7.2M197.6 173.9l7.2-7.2M197.6 170.1l7.2-7.2M197.6 166l7.2-7.2M197.6 161.9l7-7M197.6 157.8l2.9-2.9"/><path class="cls-21" d="M197.4 154.9v119.6M204.6 154.9v119.6M197.4 274.5h7.2M204.6 154.9v119.6M197.4 154.9v119.6M197.4 154.9h7.2"/><path class="cls-19" d="M46.1 230.5v-1.9c0-.6-.2-1.2-.3-1.8-.1-.6-.3-1.2-.5-1.8l-.6-1.8c-.2-.6-.5-1.1-.8-1.7-.3-.5-.6-1.1-1-1.6-.3-.5-.7-1-1.1-1.5-.4-.5-.8-.9-1.3-1.4-.4-.4-.9-.9-1.4-1.3-.5-.4-1-.8-1.5-1.1-.5-.3-1-.7-1.6-1-.5-.3-1.1-.6-1.7-.8l-1.8-.6c-.6-.2-1.2-.3-1.8-.5s-1.2-.2-1.8-.3H27M27.2 211.6v18.9M46.2 230.5v-1.4M46.2 227.7l.2-1M46.4 226.7l.2-.5"/><path class="cls-13" d="M46.9 225l.7-1.9"/><path class="cls-19" d="M47.8 222.4l.5-1M48.3 221.4l.3-.2"/><path class="cls-10" d="M49.3 220l1.2-1.5"/><path class="cls-19" d="M51.2 217.6l.5-.5M51.7 217.1l.5-.5"/><path class="cls-15" d="M53.1 215.9l1.5-1.2"/><path class="cls-19" d="M55.5 214.2l.7-.5M56.2 213.7l.5-.2"/><path class="cls-18" d="M57.9 213l1.7-.7"/><path class="cls-19" d="M60.8 212.1l.5-.3M61.3 211.8h.9"/><path class="cls-12" d="M63.2 211.6h1.9"/><path class="cls-5" d="M65.1 211.6v18.9"/><path class="cls-19" d="M65.1 230.1v.4M547.3 230.5v-1.9c0-.6-.2-1.2-.3-1.8-.1-.6-.3-1.2-.5-1.8l-.6-1.8c-.2-.6-.5-1.1-.8-1.7-.3-.5-.6-1.1-1-1.6-.3-.5-.7-1-1.1-1.5-.4-.5-.8-.9-1.3-1.4-.4-.4-.9-.9-1.4-1.3-.5-.4-1-.8-1.5-1.1-.5-.3-1-.7-1.6-1-.5-.3-1.1-.6-1.7-.8l-1.8-.6c-.6-.2-1.2-.3-1.8-.5l-1.8-.3h-1.9M528.3 211.6v18.9M547.3 230.5v-1.4M547.3 227.7l.2-1M547.5 226.7l.3-.5"/><path class="cls-13" d="M548 225l.7-1.9"/><path class="cls-19" d="M549 222.4l.4-1M549.4 221.4l.3-.2"/><path class="cls-10" d="M550.4 220l1.2-1.5"/><path class="cls-19" d="M552.3 217.6l.5-.5M552.8 217.1l.5-.5"/><path class="cls-15" d="M554.2 215.9l1.5-1.2"/><path class="cls-19" d="M556.6 214.2l.8-.5M557.4 213.7l.4-.2"/><path class="cls-18" d="M559 213l1.7-.7"/><path class="cls-19" d="M561.9 212.1l.7-.3M562.6 211.8h.8"/><path class="cls-12" d="M564.3 211.6h1.9"/><path class="cls-5" d="M566.2 211.6v18.9"/><path class="cls-19" d="M566.2 230.1v.4M451.4 230.5v-1.9c0-.6-.2-1.2-.3-1.8-.1-.6-.3-1.2-.5-1.8l-.6-1.8c-.2-.6-.5-1.1-.8-1.7-.3-.5-.6-1.1-1-1.6-.3-.5-.7-1-1.1-1.5-.4-.5-.8-.9-1.3-1.4-.4-.4-.9-.9-1.4-1.3-.5-.4-1-.8-1.5-1.1-.5-.3-1-.7-1.6-1-.5-.3-1.1-.6-1.7-.8l-1.8-.6c-.6-.2-1.2-.3-1.8-.5s-1.2-.2-1.8-.3h-1.9M432.6 211.6v18.9M451.5 230.5v-1.4M451.5 227.7l.3-1M451.8 226.7l.2-.5"/><path class="cls-13" d="M452.2 225l.8-1.9"/><path class="cls-19" d="M453.2 222.4l.5-1M453.7 221.4l.2-.2"/><path class="cls-10" d="M454.6 220l1.2-1.5"/><path class="cls-19" d="M456.6 217.6l.4-.5M457 217.1l.5-.5"/><path class="cls-15" d="M458.5 215.9l1.4-1.2"/><path class="cls-19" d="M460.9 214.2l.7-.5M461.6 213.7l.5-.2"/><path class="cls-18" d="M463.3 213l1.7-.7"/><path class="cls-19" d="M466.2 212.1l.4-.3M466.6 211.8h1"/><path class="cls-12" d="M468.6 211.6h1.9"/><path class="cls-5" d="M470.5 211.6v18.9"/><path class="cls-19" d="M470.5 230.1v.4M355.6 230.5v-1.9c0-.6-.2-1.2-.3-1.8-.1-.6-.3-1.2-.5-1.8l-.6-1.8c-.2-.6-.5-1.1-.8-1.7-.3-.5-.6-1.1-1-1.6-.3-.5-.7-1-1.1-1.5-.4-.5-.8-.9-1.3-1.4-.4-.4-.9-.9-1.4-1.3-.5-.4-1-.8-1.5-1.1-.5-.3-1.1-.7-1.6-1-.5-.3-1.1-.6-1.7-.8l-1.8-.6c-.6-.2-1.2-.3-1.8-.5s-1.2-.2-1.8-.3h-1.9M336.6 211.6v18.9M355.5 230.5l.3-1.4M355.8 227.7l.2-1M356 226.7l.2-.5"/><path class="cls-13" d="M356.5 225l.7-1.9"/><path class="cls-19" d="M357.4 222.4l.5-1M357.9 221.4l.3-.2"/><path class="cls-10" d="M358.9 220l.9-1.5"/><path class="cls-19" d="M360.6 217.8l.7-.7M361.3 217.1l.2-.2"/><path class="cls-8" d="M362.5 215.9l1.7-1.2"/><path class="cls-19" d="M364.9 214.2l.7-.5M365.6 213.7l.5-.2"/><path class="cls-18" d="M367.3 213l1.9-.7"/><path class="cls-19" d="M370.2 212.1l.7-.3M370.9 211.8h.7"/><path class="cls-13" d="M372.8 211.6h1.9"/><path class="cls-5" d="M374.7 211.6v18.9"/><path class="cls-19" d="M374.7 230.1v.4M606 191.5c-11 .3-19.9 9.6-19.6 20.6M586.4 212.1l20.2-.5"/><path class="cls-5" d="M606.1 191.4l-4.1-.2-3.8-1-3.4-1.9-3.1-2.4-2.7-2.9-1.9-3.3-1.2-3.9-.5-3.8"/><path class="cls-16" d="M585.4 172l20.2-.5"/><path class="cls-11" d="M131.8 252.1h2.2"/><path class="cls-19" d="M133.5 252.1h.5"/><path class="cls-11" d="M134 252.1l2.2.3"/><path class="cls-19" d="M135.7 252.4h.5"/><path class="cls-11" d="M136.2 252.4l2.1.7"/><path class="cls-19" d="M137.8 253.1h.5"/><path class="cls-11" d="M138.3 253.1l2.2.7"/><path class="cls-19" d="M140 253.8h.5M140.5 253.8l.9.5"/><path class="cls-14" d="M142.4 254.8l1.9.9"/><path class="cls-11" d="M144.3 255.7l1.7 1.5"/><path class="cls-19" d="M145.5 256.7l.5.5"/><path class="cls-11" d="M146 257.2l1.7 1.4"/><path class="cls-19" d="M147.2 258.1l.5.5"/><path class="cls-11" d="M147.7 258.6l1.4 1.7"/><path class="cls-19" d="M148.6 259.8l.5.5"/><path class="cls-11" d="M149.1 260.3l1.5 1.7"/><path class="cls-19" d="M150.1 261.5l.5.5M150.6 262l.4.9"/><path class="cls-14" d="M151.5 263.9l1 1.9"/><path class="cls-11" d="M152.5 265.8l.7 2.2"/><path class="cls-19" d="M153.2 267.5v.5"/><path class="cls-11" d="M153.2 268l.7 2.1"/><path class="cls-19" d="M153.9 269.7v.4"/><path class="cls-11" d="M153.9 270.1l.3 2.2"/><path class="cls-19" d="M154.2 271.8v.5"/><path class="cls-11" d="M154.2 272.3v2.2"/><path class="cls-19" d="M154.2 274v.5"/><path class="cls-5" d="M131.8 252.1v22.4"/><path class="cls-19" d="M131.8 274v.5M154.2 274.4c0-.7 0-1.5.1-2.2 0-.7.2-1.5.3-2.2.1-.7.3-1.4.5-2.1.2-.7.5-1.4.7-2.1.3-.7.6-1.3.9-2 .3-.6.7-1.3 1.1-1.9.4-.6.8-1.2 1.3-1.8.5-.6 1-1.1 1.5-1.6s1.1-1 1.6-1.5c.6-.5 1.2-.9 1.8-1.3.6-.4 1.2-.8 1.9-1.1.6-.3 1.3-.7 2-.9.7-.3 1.4-.5 2.1-.7.7-.2 1.4-.4 2.1-.5.7-.1 1.4-.2 2.2-.3s1.5-.1 2.2-.1M176.7 252.1v22.4M120.6 238l-16.6 2.6M106.7 257.5c.5 0 1.1-.2 1.6-.4.5-.1 1.1-.3 1.6-.5s1-.4 1.5-.7c.5-.2 1-.5 1.5-.8.5-.3.9-.6 1.4-1 .4-.3.9-.7 1.3-1.1l1.2-1.2c.4-.4.7-.9 1-1.3.3-.5.6-.9.9-1.4s.5-1 .8-1.5c.2-.5.4-1 .6-1.6.2-.5.3-1.1.5-1.6.1-.5.2-1.1.3-1.6 0-.6.1-1.1.1-1.7v-1.7c0-.6-.1-1.1-.2-1.7M281.1 237.5l16.8 2.9M295.2 257.2c-.5 0-1.1-.2-1.6-.4-.5-.1-1.1-.3-1.6-.5s-1-.4-1.5-.7c-.5-.2-1-.5-1.5-.8-.5-.3-.9-.6-1.4-1-.4-.3-.9-.7-1.3-1.1l-1.2-1.2c-.4-.4-.7-.9-1-1.3-.3-.5-.6-.9-.9-1.4-.3-.5-.5-1-.8-1.5-.2-.5-.4-1-.6-1.6-.2-.5-.3-1.1-.5-1.6-.1-.5-.2-1.1-.3-1.6 0-.6-.1-1.1-.1-1.7v-1.7c0-.6.1-1.1.2-1.7"/><path class="cls-11" d="M270.1 252.1h-2.4M267.7 252.1l-2.2.3"/><path class="cls-19" d="M266 252.4h-.5"/><path class="cls-11" d="M265.5 252.4l-2.1.7"/><path class="cls-19" d="M263.8 253.1h-.4M263.4 253.1l-1.2.5"/><path class="cls-9" d="M261.4 253.8l-1.9 1"/><path class="cls-19" d="M258.3 255.5l-.7.2"/><path class="cls-11" d="M257.6 255.7l-1.9 1.5"/><path class="cls-19" d="M255.7 257.2l-.7.7"/><path class="cls-11" d="M254.2 258.6l-1.6 1.7"/><path class="cls-19" d="M253 259.8l-.4.5M252.6 260.3l-.8 1"/><path class="cls-11" d="M251.4 262l-1.2 1.9"/><path class="cls-19" d="M250.6 263.4l-.4.5M250.2 263.9l-.5 1"/><path class="cls-11" d="M249.2 265.8l-.7 2.2"/><path class="cls-19" d="M248.5 267.5v.5"/><path class="cls-11" d="M248.5 268l-.5 2.1"/><path class="cls-19" d="M248 269.7v.4"/><path class="cls-11" d="M248 270.1l-.2 2.2"/><path class="cls-19" d="M247.8 271.8v.5"/><path class="cls-11" d="M247.8 272.3l-.3 2.2"/><path class="cls-19" d="M247.5 274v.5"/><path class="cls-5" d="M270.1 252.1v22.4"/><path class="cls-19" d="M270.1 274v.5M247.6 274.4c0-.7 0-1.5-.1-2.2 0-.7-.2-1.5-.3-2.2-.1-.7-.3-1.4-.5-2.1-.2-.7-.5-1.4-.7-2.1-.3-.7-.6-1.3-.9-2-.3-.6-.7-1.3-1.1-1.9-.4-.6-.8-1.2-1.3-1.8-.5-.6-1-1.1-1.5-1.6s-1.1-1-1.6-1.5-1.2-.9-1.8-1.3c-.6-.4-1.2-.8-1.9-1.1-.6-.3-1.3-.7-2-.9-.7-.3-1.4-.5-2.1-.7-.7-.2-1.4-.4-2.1-.5-.7-.1-1.4-.2-2.2-.3-.7 0-1.5-.1-2.2-.1M225.2 252.1v22.4M612.3 211.1l-1.4-59.3h-3.6l1.4 59.3h3.6z"/><path class="cls-20" d="M139.8 148.2h-4.1M139.8 118.5h-4.1"/><path class="cls-19" d="M135.6 118.4c-16.3 0-29.8 13.4-29.8 29.8M135.7 148.2h-29.8M570.6 213h28.3v10.8h-28.3z"/><path class="cls-20" d="M224 82.7v.7M224 83.4l-.2 1M223.8 84.4v.7M223.8 85.1l-.3.2M223 86.8l-.2.2M222.1 88.2l-.5.5M221.6 88.7l-.7.5M220.9 89.2l-.7.5M220.2 89.7l-.3.2M218.5 90.6h-.3M217 91.1h-.7M216.3 91.1h-.7M215.6 91.1h-1M214.6 91.1h-.4M212.7 90.6h-.2M211.3 89.9l-.5-.2M210.8 89.7l-.7-.5M210.1 89.2l-.5-.5M209.6 88.7l-.5-.5M208.2 87v-.2M207.4 85.6v-.5M207.4 85.1l-.2-.7M207.2 84.4l-.2-1M207 83.4v-.7M207.2 81.3V81M207.4 79.6l.3-.3M207.7 79.3l.2-.7M207.9 78.6l.5-.7M208.4 77.9l.5-.7M210.1 76.2V76M211.3 75.3h.2M211.5 75.3l.7-.5M212.2 74.8l.8-.3M213 74.5l.9-.2M215.4 74.1h.2M215.6 74.1v.2M217 74.3h.3M217.3 74.3l.7.2M218 74.5l.7.3M218.7 74.8l.7.5M219.4 75.3h.3M220.9 76.2h.2M222.1 77.4l.5.5M222.6 77.9l.4.7M223 78.6l.3.7M223.3 79.3l.2.5M223.8 81.3l.2.2"/></g><g id="Mbel"><path class="cls-2" d="M378.1 179.9h51.1v22.8h-51.1zM379.5 170h12.7M379.5 178.5V170M392.2 170v8.5M397.2 170h12.7M397.2 178.5V170M409.9 170v8.5M414.9 170h12.8M414.9 178.5V170M427.7 170v8.5M379.5 212.5h12.7M379.5 204v8.5M392.2 212.5V204M397.2 212.5h12.7M397.2 204v8.5M409.9 212.5V204M414.9 212.5h12.8M414.9 204v8.5M427.7 212.5V204M525.4 177h28.3v14.2h-28.3zM566.1 146v19.2l-.1.1-.1.1h-.1-.2H540.5h-.2-.2-.1l-.1-.1-.1-.1v-.1-.2V146h26.6M570.7 142.3v22.9l-.1.1-.1.1h-.1-.2-3-.2-.2-.1l-.1-.1-.1-.1v-.1-.2V142.3v-.3c0-.1.1-.2.2-.3 0 0 .2-.1.3-.2H570.4c.1 0 .2.1.3.2 0 0 .1.2.2.3v.3M539.5 146v-3.7-.3c0-.1-.1-.2-.2-.3 0 0-.2-.1-.3-.2h-25.5c-.1 0-.2.1-.3.2 0 0-.1.2-.2.3v4M513 148.2h53.2"/><path class="cls-2" d="M512.9 146v19.2l.1.1.1.1H539l.1-.1.1-.1v-.1-.2V146h-26.6M508.3 142.3v22.9l.1.1.1.1H512.3l.1-.1.1-.1v-.1-.2V142.3v-.3c0-.1-.1-.2-.2-.3 0 0-.2-.1-.3-.2H508.6c-.1 0-.2.1-.3.2 0 0-.1.2-.2.3v.3M539.5 146v-3.7-.3c0-.1.1-.2.2-.3 0 0 .2-.1.3-.2h25.5c.1 0 .2.1.3.2 0 0 .1.2.2.3v4M501.5 200c-1.1 3.8-1.9 7.8-2.4 11.7-.1 1 .3 1.9 1.2 2.4 2.8 1.6 6 2.4 9.2 2.4 1 0 1.8-.6 2.2-1.5 1.5-3.7 2.7-7.5 3.6-11.4-.6-.4-1.3-.7-1.9-.9-3.1-.9-6.3-1.8-9.5-2.5-.7-.1-1.4-.2-2.1-.2h-.1"/><path class="cls-2" d="M500.8 200.9c-.3.1-.6.3-.8.6-1 1.1-1.7 2.5-2.1 4-.4 2-.7 4-.8 6.1 0 1.5 0 2.9.4 4.4.2.8.7 1.5 1.5 1.9 3 1.6 6.3 2.4 9.7 2.5.8 0 1.7-.3 2.2-1 1-1.1 1.8-2.3 2.5-3.6.9-1.8 1.7-3.8 2.2-5.7.4-1.5.5-3 .1-4.5 0-.3-.2-.6-.4-.9M301 165.7h10.8v56.6H301zM9.2 154.2h56.9v45.4H9.2zM9.2 117.3h56.9v15.6H9.2zM108.1 156.4h28.3V213h-28.3zM180.3 156.4h15.6V213h-15.6zM265.5 156.4h28.3V213h-28.3zM132.8 239.7h11.3v7.7h-11.3z"/><path class="cls-2" d="M115.8 247.3h45.4V267h-45.4zM257.6 239.7h11.3v7.7h-11.3z"/><path class="cls-2" d="M240.6 247.3H286V267h-45.4zM206 156.4h15.4V213H206z"/></g><g id="Text"><path d="M626.5 172.2c1.1 0 1.7.5 1.7 1.4s-.1.6-.3.9c-.1.2-.3.2-.5.3.3 0 .4.1.6.2.3.2.4.6.4 1s-.2.9-.6 1.2c-.3.2-.7.3-1.3.3H625v-5.3h1.5zm-.8 2.4h.7c.4 0 .7 0 .9-.2.2-.2.3-.4.3-.7s-.2-.6-.4-.8c-.2 0-.4-.1-.9-.1h-.6v1.8zm0 2.4h.7c.6 0 .8 0 1-.2.3-.1.4-.4.4-.8 0-.6-.4-.9-1.2-.9h-.8v1.8zM632.4 173.8h.6v3.7h-.6v-.7c-.4.6-.8.8-1.3.8-1 0-1.7-.8-1.7-1.9s.7-1.9 1.8-1.9 1 .2 1.3.7v-.6zm-2.1.9c-.2.3-.3.6-.3 1 0 .8.5 1.4 1.2 1.4s1.3-.6 1.3-1.4-.5-1.4-1.2-1.4-.7.1-.9.4zM634.3 177.5v-5.3h.6v5.3h-.6zM636.9 177.5h-.6v-5.3h.6v3.3l1.5-1.6h.8l-1.6 1.8 1.6 1.9h-.8l-1.5-1.6v1.6zM643.3 175.7c0 1.1-.8 1.9-1.9 1.9s-1.9-.8-1.9-1.9.8-1.9 1.9-1.9 1.9.8 1.9 1.9zm-3.1 0c0 .8.5 1.4 1.3 1.4s1.2-.6 1.2-1.4-.5-1.4-1.2-1.4-1.3.6-1.3 1.4zM645 173.8v.5c.3-.4.6-.6 1.1-.6s.6.1.9.3c.2.2.3.5.3 1v2.5h-.6v-2.4c0-.3 0-.5-.1-.6-.1-.2-.3-.2-.6-.2s-.5.1-.7.3c-.2.2-.2.4-.2.7v2.2h-.6v-3.7h.6zM627.3 181.8h-1.7v1.4c.3-.1.5-.2.8-.2.9 0 1.6.7 1.6 1.7s-.8 1.8-1.8 1.8-1.3-.4-1.6-1.1l.6-.2c.1.2.2.3.3.4.2.2.5.3.8.3.6 0 1.1-.5 1.1-1.2s-.5-1.1-1.2-1.1-.8.2-1.2.5v-3h2.3v.6zM629.8 186.2c0 .2-.2.4-.4.4s-.4-.2-.4-.4.2-.4.4-.4.4.2.4.4zM634.1 184.9c0 .6-.1 1-.4 1.2-.3.3-.7.4-1.2.4s-1-.2-1.2-.5c-.3-.3-.4-.6-.4-1.4v-1.8c0-.7 0-1 .3-1.3.3-.3.7-.5 1.2-.5s.9.1 1.2.4c.3.3.4.6.4 1.2v2.1zm-2.5-.1c0 .6 0 .7.2.9.2.2.5.3.8.3s.6-.1.8-.4c.1-.2.2-.4.2-.8v-2c0-.4 0-.6-.3-.8-.2-.2-.4-.2-.7-.2s-.6.1-.8.4c-.1.2-.2.4-.2.8v1.8zM637.5 182.8v.5c.3-.4.6-.6 1-.6s.8.2 1 .7c.3-.5.6-.7 1.2-.7s.7.1.9.4c.2.2.2.4.2 1v2.4h-.6v-2.2c0-.4 0-.6-.1-.7-.1-.2-.4-.3-.6-.3-.5 0-.8.4-.8 1v2.2h-.6v-2.2c0-.4 0-.5-.1-.7-.1-.2-.3-.3-.6-.3-.5 0-.9.4-.9 1v2.2h-.6v-3.7h.6zM645.1 184v.4h-2l1.2-1.6c.3-.5.4-.6.4-.8 0-.3-.2-.4-.5-.4s-.5.2-.5.6h-.4c0-.6.4-1 1-1s1 .3 1 .8-.1.5-.4.9l-.8 1.1h1.1z"/><g><path d="M205.6 128.9h2.1v.6h-2.1v1.8h2.1v.6h-2.8v-5.3h2.8v.6h-2.1v1.8zM209.5 128.2v.5c.3-.4.6-.6 1.1-.6s.6.1.9.3c.2.2.3.5.3 1v2.5h-.6v-2.4c0-.3 0-.5-.1-.6-.1-.2-.3-.2-.6-.2s-.5.1-.7.3c-.2.2-.2.4-.2.7v2.2h-.6v-3.7h.6zM213.7 131.2c0 .2 0 .2.3.2h.3v.5h-.6c-.4 0-.6-.2-.6-.6v-2.6h-.5v-.5h.5V127h.6v1.2h.6v.5h-.6v2.4zM216 128.2v.6c.1-.3.2-.4.3-.5.2-.1.4-.2.7-.2h.1v.6h-.2c-.3 0-.6.2-.8.4-.2.2-.2.4-.2.9v1.9h-.6v-3.7h.6zM218.4 130.3c0 .3 0 .5.2.7.2.3.6.5 1 .5s.9-.2 1.1-.6l.5.2c-.3.6-.9 1-1.6 1-1.1 0-1.9-.8-1.9-1.9s.8-1.9 1.9-1.9 1.9.8 1.9 1.9v.2h-3.1zm2.4-.4c0-.3 0-.4-.2-.6-.2-.3-.6-.5-1-.5s-.8.2-1 .5c-.1.2-.2.3-.2.6h2.4zm-.2-3.2l-.9 1.1h-.4l.7-1.1h.7zM222.9 130.3c0 .3 0 .5.2.7.2.3.6.5 1 .5s.9-.2 1.1-.6l.5.2c-.3.6-.9 1-1.6 1-1.1 0-1.9-.8-1.9-1.9s.8-1.9 1.9-1.9 1.9.8 1.9 1.9v.2h-3.1zm2.4-.4c0-.3 0-.4-.2-.6-.2-.3-.6-.5-1-.5s-.8.2-1 .5c-.1.2-.2.3-.2.6h2.4zM206.7 138.8c-.2 0-.3.1-.5.1-.9 0-1.6-.7-1.6-1.6s.8-1.7 1.7-1.7 1.7.7 1.7 1.7-.1.7-.4 1.2l-1.5 2.5h-.7l1.3-2.1zm-1.5-1.5c0 .6.5 1.1 1.1 1.1s1.1-.5 1.1-1.1-.5-1.1-1-1.1-1.1.5-1.1 1.1zM209.3 140.6c0 .2-.2.4-.4.4s-.4-.2-.4-.4.2-.4.4-.4.4.2.4.4zM213.3 138.4c.3.3.4.6.4 1 0 .9-.7 1.6-1.7 1.6s-1.6-.6-1.6-1.6.1-.8.4-1.1c.2-.2.3-.3.6-.4-.3 0-.4-.2-.5-.4-.2-.2-.3-.5-.3-.8 0-.8.6-1.3 1.5-1.3s1.4.6 1.4 1.3-.1.6-.3.8c-.1.2-.3.2-.5.3.3 0 .4.2.6.3zm-2.3 1c0 .6.5 1 1 1s1-.5 1-1-.5-1-1-1-1 .5-1 1zm.2-2.5c0 .5.4.8.8.8s.9-.4.9-.8-.4-.8-.8-.8-.9.3-.9.8zM219.5 137.2v.5c.3-.4.6-.6 1-.6s.8.2 1 .7c.3-.5.6-.7 1.2-.7s.7.1.9.4c.2.2.2.4.2 1v2.4h-.6v-2.2c0-.4 0-.6-.1-.7-.1-.2-.4-.3-.6-.3-.5 0-.8.4-.8 1v2.2h-.6v-2.2c0-.4 0-.5-.1-.7-.1-.2-.3-.3-.6-.3-.5 0-.9.4-.9 1v2.2h-.6v-3.7h.6zM227.1 138.4v.4h-2l1.2-1.6c.3-.5.4-.6.4-.8 0-.3-.2-.4-.5-.4s-.5.2-.5.6h-.4c0-.6.4-1 1-1s1 .3 1 .8-.1.5-.4.9l-.8 1.1h1.1z"/></g><g><path d="M31.6 176.9v.6h-3.8l3-4.8h-2.7v-.6h3.8l-3 4.8h2.7zM33.4 172.8c0 .2-.2.4-.4.4s-.4-.2-.4-.4.2-.4.4-.4.4.2.4.4zm0 4.7h-.6v-3.7h.6v3.7zM35.3 173.8v.5c.3-.4.6-.6 1-.6s.8.2 1 .7c.3-.5.6-.7 1.2-.7s.7.1.9.4c.2.2.2.4.2 1v2.4H39v-2.2c0-.4 0-.6-.1-.7-.1-.2-.4-.3-.6-.3-.5 0-.8.4-.8 1v2.2h-.6v-2.2c0-.4 0-.5-.1-.7-.1-.2-.3-.3-.6-.3-.5 0-.9.4-.9 1v2.2h-.6v-3.7h.6zM41.6 173.8v.5c.3-.4.6-.6 1-.6s.8.2 1 .7c.3-.5.6-.7 1.2-.7s.7.1.9.4c.2.2.2.4.2 1v2.4h-.6v-2.2c0-.4 0-.6-.1-.7-.1-.2-.4-.3-.6-.3-.5 0-.8.4-.8 1v2.2h-.6v-2.2c0-.4 0-.5-.1-.7-.1-.2-.3-.3-.6-.3-.5 0-.9.4-.9 1v2.2H41v-3.7h.6zM47.7 175.9c0 .3 0 .5.2.7.2.3.6.5 1 .5s.9-.2 1.1-.6l.5.2c-.3.6-.9 1-1.6 1-1.1 0-1.9-.8-1.9-1.9s.8-1.9 1.9-1.9 1.9.8 1.9 1.9v.2h-3.1zm2.4-.4c0-.3 0-.4-.2-.6-.2-.3-.6-.5-1-.5s-.8.2-1 .5c-.1.2-.2.3-.2.6h2.4zM52.5 173.8v.6c.1-.3.2-.4.3-.5.2-.1.4-.2.7-.2h.1v.6h-.2c-.3 0-.6.2-.8.4-.2.2-.2.4-.2.9v1.9h-.6v-3.7h.6zM28.6 182.9v-.6l1.8-1.2v5.4h-.6v-4.4l-1.2.8zM31.8 185.3v-.5l2.8-3.7v3.6h.6v.6h-.6v1.2H34v-1.2h-2.1zm2.1-2.6l-1.5 2h1.5v-2zM36.9 186.2c0 .2-.2.4-.4.4s-.4-.2-.4-.4.2-.4.4-.4.4.2.4.4zM38.3 181.8v-.6h3l-1.6 2c.9 0 1.6.7 1.6 1.6s-.8 1.7-1.8 1.7-1.4-.5-1.6-1.3h.6c.1.4.5.7 1 .7s1.2-.5 1.2-1.1-.5-1.1-1.2-1.1-.4 0-.6.2l-.3-.2 1.5-1.9h-1.9zM44.7 182.8v.5c.3-.4.6-.6 1-.6s.8.2 1 .7c.3-.5.6-.7 1.2-.7s.7.1.9.4c.2.2.2.4.2 1v2.4h-.6v-2.2c0-.4 0-.6-.1-.7-.1-.2-.4-.3-.6-.3-.5 0-.8.4-.8 1v2.2h-.6v-2.2c0-.4 0-.5-.1-.7-.1-.2-.3-.3-.6-.3-.5 0-.9.4-.9 1v2.2h-.6v-3.7h.6zM52.2 184v.4h-2l1.2-1.6c.3-.5.4-.6.4-.8 0-.3-.2-.4-.5-.4s-.5.2-.5.6h-.4c0-.6.4-1 1-1s1 .3 1 .8-.1.5-.4.9l-.8 1.1h1.1z"/></g><g><path d="M146.1 213.9v.6h-3.8l3-4.8h-2.7v-.6h3.8l-3 4.8h2.7zM147.9 209.7c0 .2-.2.4-.4.4s-.4-.2-.4-.4.2-.4.4-.4.4.2.4.4zm0 4.7h-.6v-3.7h.6v3.7zM149.8 210.8v.5c.3-.4.6-.6 1-.6s.8.2 1 .7c.3-.5.6-.7 1.2-.7s.7.1.9.4c.2.2.2.4.2 1v2.4h-.6v-2.2c0-.4 0-.6-.1-.7-.1-.2-.4-.3-.6-.3-.5 0-.8.4-.8 1v2.2h-.6v-2.2c0-.4 0-.5-.1-.7-.1-.2-.3-.3-.6-.3-.5 0-.9.4-.9 1v2.2h-.6v-3.7h.6zM156.1 210.8v.5c.3-.4.6-.6 1-.6s.8.2 1 .7c.3-.5.6-.7 1.2-.7s.7.1.9.4c.2.2.2.4.2 1v2.4h-.6v-2.2c0-.4 0-.6-.1-.7-.1-.2-.4-.3-.6-.3-.5 0-.8.4-.8 1v2.2h-.6v-2.2c0-.4 0-.5-.1-.7-.1-.2-.3-.3-.6-.3-.5 0-.9.4-.9 1v2.2h-.6v-3.7h.6zM162.2 212.8c0 .3 0 .5.2.7.2.3.6.5 1 .5s.9-.2 1.1-.6l.5.2c-.3.6-.9 1-1.6 1-1.1 0-1.9-.8-1.9-1.9s.8-1.9 1.9-1.9 1.9.8 1.9 1.9v.2h-3.1zm2.4-.4c0-.3 0-.4-.2-.6-.2-.3-.6-.5-1-.5s-.8.2-1 .5c-.1.2-.2.3-.2.6h2.4zM167 210.8v.6c.1-.3.2-.4.3-.5.2-.1.4-.2.7-.2h.1v.6h-.2c-.3 0-.6.2-.8.4-.2.2-.2.4-.2.9v1.9h-.6v-3.7h.6zM143 219.9v-.6l1.8-1.2v5.4h-.6v-4.4l-1.2.8zM149.3 222.9v.6h-3l1.9-2.7c.5-.8.7-1 .7-1.3 0-.5-.4-.8-.9-.8s-.7.2-.8.4v.6h-.6c0-1 .6-1.6 1.5-1.6s1.5.5 1.5 1.3-.2.8-.6 1.5l-1.4 2h1.9zM151.3 223.1c0 .2-.2.4-.4.4s-.4-.2-.4-.4.2-.4.4-.4.4.2.4.4zM155.1 218.7h-1.7v1.4c.3-.1.5-.2.8-.2.9 0 1.6.7 1.6 1.7s-.8 1.8-1.8 1.8-1.3-.4-1.6-1.1l.6-.2c.1.2.2.3.3.4.2.2.5.3.8.3.6 0 1.1-.5 1.1-1.2s-.5-1.1-1.2-1.1-.8.2-1.2.5v-3h2.3v.6zM159 219.8v.5c.3-.4.6-.6 1-.6s.8.2 1 .7c.3-.5.6-.7 1.2-.7s.7.1.9.4c.2.2.2.4.2 1v2.4h-.6v-2.2c0-.4 0-.6-.1-.7-.1-.2-.4-.3-.6-.3-.5 0-.8.4-.8 1v2.2h-.6v-2.2c0-.4 0-.5-.1-.7-.1-.2-.3-.3-.6-.3-.5 0-.9.4-.9 1v2.2h-.6v-3.7h.6zM166.6 221v.4h-2l1.2-1.6c.3-.5.4-.6.4-.8 0-.3-.2-.4-.5-.4s-.5.2-.5.6h-.4c0-.6.4-1 1-1s1 .3 1 .8-.1.5-.4.9l-.8 1.1h1.1z"/></g><g><path d="M235.3 213.9v.6h-3.8l3-4.8h-2.7v-.6h3.8l-3 4.8h2.7zM237.2 209.7c0 .2-.2.4-.4.4s-.4-.2-.4-.4.2-.4.4-.4.4.2.4.4zm0 4.7h-.6v-3.7h.6v3.7zM239.1 210.8v.5c.3-.4.6-.6 1-.6s.8.2 1 .7c.3-.5.6-.7 1.2-.7s.7.1.9.4c.2.2.2.4.2 1v2.4h-.6v-2.2c0-.4 0-.6-.1-.7-.1-.2-.4-.3-.6-.3-.5 0-.8.4-.8 1v2.2h-.6v-2.2c0-.4 0-.5-.1-.7-.1-.2-.3-.3-.6-.3-.5 0-.9.4-.9 1v2.2h-.6v-3.7h.6zM245.4 210.8v.5c.3-.4.6-.6 1-.6s.8.2 1 .7c.3-.5.6-.7 1.2-.7s.7.1.9.4c.2.2.2.4.2 1v2.4h-.6v-2.2c0-.4 0-.6-.1-.7-.1-.2-.4-.3-.6-.3-.5 0-.8.4-.8 1v2.2h-.6v-2.2c0-.4 0-.5-.1-.7-.1-.2-.3-.3-.6-.3-.5 0-.9.4-.9 1v2.2h-.6v-3.7h.6zM251.5 212.8c0 .3 0 .5.2.7.2.3.6.5 1 .5s.9-.2 1.1-.6l.5.2c-.3.6-.9 1-1.6 1-1.1 0-1.9-.8-1.9-1.9s.8-1.9 1.9-1.9 1.9.8 1.9 1.9v.2h-3.1zm2.4-.4c0-.3 0-.4-.2-.6-.2-.3-.6-.5-1-.5s-.8.2-1 .5c-.1.2-.2.3-.2.6h2.4zM256.2 210.8v.6c.1-.3.2-.4.3-.5.2-.1.4-.2.7-.2h.1v.6h-.2c-.3 0-.6.2-.8.4-.2.2-.2.4-.2.9v1.9h-.6v-3.7h.6zM232.3 219.9v-.6l1.8-1.2v5.4h-.6v-4.4l-1.2.8zM238.6 222.9v.6h-3l1.9-2.7c.5-.8.7-1 .7-1.3 0-.5-.4-.8-.9-.8s-.7.2-.8.4v.6h-.6c0-1 .6-1.6 1.5-1.6s1.5.5 1.5 1.3-.2.8-.6 1.5l-1.4 2h1.9zM240.6 223.1c0 .2-.2.4-.4.4s-.4-.2-.4-.4.2-.4.4-.4.4.2.4.4zM244.4 218.7h-1.7v1.4c.3-.1.5-.2.8-.2.9 0 1.6.7 1.6 1.7s-.8 1.8-1.8 1.8-1.3-.4-1.6-1.1l.6-.2c.1.2.2.3.3.4.2.2.5.3.8.3.6 0 1.1-.5 1.1-1.2s-.5-1.1-1.2-1.1-.8.2-1.2.5v-3h2.3v.6zM248.3 219.8v.5c.3-.4.6-.6 1-.6s.8.2 1 .7c.3-.5.6-.7 1.2-.7s.7.1.9.4c.2.2.2.4.2 1v2.4h-.6v-2.2c0-.4 0-.6-.1-.7-.1-.2-.4-.3-.6-.3-.5 0-.8.4-.8 1v2.2h-.6v-2.2c0-.4 0-.5-.1-.7-.1-.2-.3-.3-.6-.3-.5 0-.9.4-.9 1v2.2h-.6v-3.7h.6zM255.9 221v.4h-2l1.2-1.6c.3-.5.4-.6.4-.8 0-.3-.2-.4-.5-.4s-.5.2-.5.6h-.4c0-.6.4-1 1-1s1 .3 1 .8-.1.5-.4.9l-.8 1.1h1.1z"/></g><g><path d="M445.2 177.5h-.7v-5.3h.7v2.5l2.1-2.5h.8l-2.2 2.6 2.2 2.7h-.9l-2-2.5v2.5zM452.2 175.7c0 1.1-.8 1.9-1.9 1.9s-1.9-.8-1.9-1.9.8-1.9 1.9-1.9 1.9.8 1.9 1.9zm-3.1 0c0 .8.5 1.4 1.3 1.4s1.2-.6 1.2-1.4-.5-1.4-1.2-1.4-1.3.6-1.3 1.4zM456.2 177c-.4.4-.8.5-1.4.5-1.1 0-1.8-.8-1.8-1.9s.8-1.9 1.8-1.9 1 .2 1.3.6l-.4.4c-.3-.3-.6-.4-.9-.4-.7 0-1.2.6-1.2 1.4s.5 1.4 1.2 1.4.6-.1.9-.4l.4.4zM457.7 174.3c.3-.4.7-.6 1.1-.6s.7.1.9.3c.2.2.3.5.3 1v2.5h-.6v-2.4c0-.5-.2-.8-.7-.8s-.5.1-.7.3c-.2.2-.2.4-.2.7v2.2h-.6v-5.3h.6v2.2zM461.7 175.9c0 .3 0 .5.2.7.2.3.6.5 1 .5s.9-.2 1.1-.6l.5.2c-.3.6-.9 1-1.6 1-1.1 0-1.9-.8-1.9-1.9s.8-1.9 1.9-1.9 1.9.8 1.9 1.9v.2h-3.1zm2.4-.4c0-.3 0-.4-.2-.6-.2-.3-.6-.5-1-.5s-.8.2-1 .5c-.1.2-.2.3-.2.6h2.4zM466.5 173.8v.5c.3-.4.6-.6 1.1-.6s.6.1.9.3c.2.2.3.5.3 1v2.5h-.6v-2.4c0-.3 0-.5-.1-.6-.1-.2-.3-.2-.6-.2s-.5.1-.7.3c-.2.2-.2.4-.2.7v2.2h-.6v-3.7h.6zM470 178.8h-.4l.7-2.1.6.2-.8 1.9zM475.2 174.5h2.1v.6h-2.1v1.8h2.1v.6h-2.8v-5.3h2.8v.6h-2.1v1.8zM480.2 174.8c0-.4-.3-.6-.7-.6s-.7.2-.7.5.2.4.8.6c.5.1.7.2.9.4.2.2.3.4.3.7 0 .6-.5 1.1-1.3 1.1s-1.3-.4-1.4-1.1h.6c0 .4.3.6.8.6s.7-.2.7-.5-.2-.5-.8-.6c-.8-.2-1.2-.6-1.2-1.1s.5-1.1 1.3-1.1 1.3.4 1.3 1.1h-.6zM483.7 174.8c0-.4-.3-.6-.7-.6s-.7.2-.7.5.2.4.8.6c.5.1.7.2.9.4.2.2.3.4.3.7 0 .6-.5 1.1-1.3 1.1s-1.3-.4-1.4-1.1h.6c0 .4.3.6.8.6s.7-.2.7-.5-.2-.5-.8-.6c-.8-.2-1.2-.6-1.2-1.1s.5-1.1 1.3-1.1 1.3.4 1.3 1.1h-.6zM485.9 175.9c0 .3 0 .5.2.7.2.3.6.5 1 .5s.9-.2 1.1-.6l.5.2c-.3.6-.9 1-1.6 1-1.1 0-1.9-.8-1.9-1.9s.8-1.9 1.9-1.9 1.9.8 1.9 1.9v.2h-3.1zm2.4-.4c0-.3 0-.4-.2-.6-.2-.3-.6-.5-1-.5s-.8.2-1 .5c-.1.2-.2.3-.2.6h2.4zM490.6 173.8v.5c.3-.4.6-.6 1.1-.6s.6.1.9.3c.2.2.3.5.3 1v2.5h-.6v-2.4c0-.3 0-.5-.1-.6-.1-.2-.3-.2-.6-.2s-.5.1-.7.3c-.2.2-.2.4-.2.7v2.2h-.6v-3.7h.6zM494.2 178.8h-.4l.7-2.1.6.2-.8 1.9zM450 181.2h.7l-1.6 5.3h-.6l-1.2-4.2-1.2 4.2h-.6l-1.6-5.3h.7l1.2 4.1 1.2-4.1h.6l1.1 4.1 1.2-4.1zM454.8 184.7c0 1.1-.8 1.9-1.9 1.9s-1.9-.8-1.9-1.9.8-1.9 1.9-1.9 1.9.8 1.9 1.9zm-3.1 0c0 .8.5 1.4 1.3 1.4s1.2-.6 1.2-1.4-.5-1.4-1.2-1.4-1.3.6-1.3 1.4zM456.5 183.3c.3-.4.7-.6 1.1-.6s.7.1.9.3c.2.2.3.5.3 1v2.5h-.6v-2.4c0-.5-.2-.8-.7-.8s-.5.1-.7.3c-.2.2-.2.4-.2.7v2.2h-.6v-5.3h.6v2.2zM460.7 182.8v.5c.3-.4.6-.6 1.1-.6s.6.1.9.3c.2.2.3.5.3 1v2.5h-.6v-2.4c0-.3 0-.5-.1-.6-.1-.2-.3-.2-.6-.2s-.5.1-.7.3c-.2.2-.2.4-.2.7v2.2h-.6v-3.7h.6zM464.7 184.9c0 .3 0 .5.2.7.2.3.6.5 1 .5s.9-.2 1.1-.6l.5.2c-.3.6-.9 1-1.6 1-1.1 0-1.9-.8-1.9-1.9s.8-1.9 1.9-1.9 1.9.8 1.9 1.9v.2h-3.1zm2.4-.4c0-.3 0-.4-.2-.6-.2-.3-.6-.5-1-.5s-.8.2-1 .5c-.1.2-.2.3-.2.6h2.4zM469.5 182.8v.5c.3-.4.6-.6 1.1-.6s.6.1.9.3c.2.2.3.5.3 1v2.5h-.6v-2.4c0-.3 0-.5-.1-.6-.1-.2-.3-.2-.6-.2s-.5.1-.7.3c-.2.2-.2.4-.2.7v2.2h-.6v-3.7h.6zM444.4 190.8v-.6h3l-1.6 2c.9 0 1.6.7 1.6 1.6s-.8 1.7-1.8 1.7-1.4-.5-1.6-1.3h.6c.1.4.5.7 1 .7s1.2-.5 1.2-1.1-.5-1.1-1.2-1.1-.4 0-.6.2l-.3-.2 1.5-1.9h-1.9zM449.7 192.4c.2 0 .3-.1.5-.1.9 0 1.6.7 1.6 1.6s-.8 1.7-1.7 1.7-1.7-.8-1.7-1.7.1-.7.4-1.2l1.5-2.5h.7l-1.4 2.1zm-.7 1.5c0 .6.5 1.1 1.1 1.1s1.1-.5 1.1-1.1-.5-1.1-1.1-1.1-1.1.5-1.1 1.1zM453.6 195.2c0 .2-.2.4-.4.4s-.4-.2-.4-.4.2-.4.4-.4.4.2.4.4zM455 190.8v-.6h3l-1.6 2c.9 0 1.6.7 1.6 1.6s-.8 1.7-1.8 1.7-1.4-.5-1.6-1.3h.6c.1.4.5.7 1 .7s1.2-.5 1.2-1.1-.5-1.1-1.2-1.1-.4 0-.6.2l-.3-.2 1.5-1.9h-1.9zM461.3 191.8v.5c.3-.4.6-.6 1-.6s.8.2 1 .7c.3-.5.6-.7 1.2-.7s.7.1.9.4c.2.2.2.4.2 1v2.4h-.6v-2.2c0-.4 0-.6-.1-.7-.1-.2-.4-.3-.6-.3-.5 0-.8.4-.8 1v2.2h-.6v-2.2c0-.4 0-.5-.1-.7-.1-.2-.3-.3-.6-.3-.5 0-.9.4-.9 1v2.2h-.6v-3.7h.6zM468.9 193v.4h-2l1.2-1.6c.3-.5.4-.6.4-.8 0-.3-.2-.4-.5-.4s-.5.2-.5.6h-.4c0-.6.4-1 1-1s1 .3 1 .8-.1.5-.4.9l-.8 1.1h1.1z"/></g><g><path d="M313.8 87.2c1.1 0 1.7.5 1.7 1.4s-.1.6-.3.9c-.1.2-.3.2-.5.3.3 0 .4.1.6.2.3.2.4.6.4 1s-.2.9-.6 1.2c-.3.2-.7.3-1.3.3h-1.5v-5.3h1.5zm-.8 2.4h.7c.4 0 .7 0 .9-.2.2-.2.3-.4.3-.7s-.2-.6-.4-.8c-.2 0-.4-.1-.9-.1h-.6v1.8zm0 2.4h.7c.6 0 .8 0 1-.2.3-.1.4-.4.4-.8 0-.6-.4-.9-1.2-.9h-.8v1.8zM319.6 88.9h.6v3.7h-.6v-.7c-.4.6-.8.8-1.3.8-1 0-1.7-.8-1.7-1.9s.7-1.9 1.8-1.9 1 .2 1.3.7V89zm-2.1.9c-.2.3-.3.6-.3 1 0 .8.5 1.4 1.2 1.4s1.3-.6 1.3-1.4-.5-1.4-1.2-1.4-.7.1-.9.4zM324.4 87.2h.6v5.3h-.6v-.6c-.4.5-.8.7-1.3.7-1 0-1.7-.8-1.7-1.9s.7-2 1.7-2 1 .2 1.3.6v-2.2zm-2.4 3.5c0 .8.5 1.4 1.2 1.4s1.2-.6 1.2-1.4-.5-1.4-1.2-1.4-1.2.6-1.2 1.4zM312.2 96.9v-.6h3l-1.6 2c.9 0 1.6.7 1.6 1.6s-.8 1.7-1.8 1.7-1.4-.5-1.6-1.3h.6c.1.4.5.7 1 .7s1.2-.5 1.2-1.1-.5-1.1-1.2-1.1-.4 0-.6.2l-.3-.2 1.5-1.9h-1.9zM317.1 101.2c0 .2-.2.4-.4.4s-.4-.2-.4-.4.2-.4.4-.4.4.2.4.4zM321.1 99c.3.3.4.6.4 1 0 .9-.7 1.6-1.7 1.6s-1.6-.6-1.6-1.6.1-.8.4-1.1c.2-.2.3-.3.6-.4-.3 0-.4-.2-.5-.4-.2-.2-.3-.5-.3-.8 0-.8.6-1.3 1.5-1.3s1.4.6 1.4 1.3-.1.6-.3.8c-.1.2-.3.2-.5.3.3 0 .4.2.6.3zm-2.3 1c0 .6.5 1 1 1s1-.5 1-1-.5-1-1-1-1 .5-1 1zm.2-2.5c0 .5.4.8.8.8s.9-.4.9-.8-.4-.8-.8-.8-.9.3-.9.8zM325.6 97.9v.5c.3-.4.6-.6 1-.6s.8.2 1 .7c.3-.5.6-.7 1.2-.7s.7.1.9.4c.2.2.2.4.2 1v2.4h-.6v-2.2c0-.4 0-.6-.1-.7-.1-.2-.4-.3-.6-.3-.5 0-.8.4-.8 1v2.2h-.6v-2.2c0-.4 0-.5-.1-.7-.1-.2-.3-.3-.6-.3-.5 0-.9.4-.9 1v2.2h-.6v-3.7h.6zM333.2 99.1v.4h-2l1.2-1.6c.3-.5.4-.6.4-.8 0-.3-.2-.4-.5-.4s-.5.2-.5.6h-.4c0-.6.4-1 1-1s1 .3 1 .8-.1.5-.4.9l-.8 1.1h1.1z"/></g><g><path d="M251.8 87.2h1.4c1.6 0 2.6 1 2.6 2.6s-.3 1.6-.8 2.1c-.5.4-1.1.6-1.9.6h-1.3v-5.3zm.7 4.8h.2c.9 0 1.3 0 1.7-.4.5-.4.7-1 .7-1.8 0-1.3-.7-2-1.9-2h-.7V92zM259.7 88.9v2.4c0 .5 0 .8-.4 1-.3.2-.6.4-1.1.4s-.8-.1-1.1-.4c-.2-.2-.4-.6-.4-1v-2.4h.6v2.3c0 .5.3.9.8.9s.5-.1.7-.3c.1-.1.2-.3.2-.6v-2.4h.6zM262.8 89.9c0-.4-.3-.6-.7-.6s-.7.2-.7.5.2.4.8.6c.5.1.7.2.9.4.2.2.3.4.3.7 0 .6-.5 1.1-1.3 1.1s-1.3-.4-1.4-1.1h.6c0 .4.3.6.8.6s.7-.2.7-.5-.2-.5-.8-.6c-.8-.2-1.2-.6-1.2-1.1s.5-1.1 1.3-1.1 1.3.4 1.3 1.1h-.6zM267.5 92.1c-.4.4-.8.5-1.4.5-1.1 0-1.8-.8-1.8-1.9s.8-1.9 1.8-1.9 1 .2 1.3.6l-.4.4c-.3-.3-.6-.4-.9-.4-.7 0-1.2.6-1.2 1.4s.5 1.4 1.2 1.4.6-.1.9-.4l.4.4zM269 89.4c.3-.4.7-.6 1.1-.6s.7.1.9.3c.2.2.3.5.3 1v2.5h-.6v-2.4c0-.5-.2-.8-.7-.8s-.5.1-.7.3c-.2.2-.2.4-.2.7v2.2h-.6v-5.3h.6v2.2zM273 90.9c0 .3 0 .5.2.7.2.3.6.5 1 .5s.9-.2 1.1-.6l.5.2c-.3.6-.9 1-1.6 1-1.1 0-1.9-.8-1.9-1.9s.8-1.9 1.9-1.9 1.9.8 1.9 1.9v.2H273zm2.4-.4c0-.3 0-.4-.2-.6-.2-.3-.6-.5-1-.5s-.8.2-1 .5c-.1.2-.2.3-.2.6h2.4zM254.4 101v.6h-3l1.9-2.7c.5-.8.7-1 .7-1.3 0-.5-.4-.8-.9-.8s-.7.2-.8.4v.6h-.6c0-1 .6-1.6 1.5-1.6s1.5.5 1.5 1.3-.2.8-.6 1.5l-1.4 2h1.9zM256.5 101.2c0 .2-.2.4-.4.4s-.4-.2-.4-.4.2-.4.4-.4.4.2.4.4zM260.5 99c.3.3.4.6.4 1 0 .9-.7 1.6-1.7 1.6s-1.6-.6-1.6-1.6.1-.8.4-1.1c.2-.2.3-.3.6-.4-.3 0-.4-.2-.5-.4-.2-.2-.3-.5-.3-.8 0-.8.6-1.3 1.5-1.3s1.4.6 1.4 1.3-.1.6-.3.8c-.1.2-.3.2-.5.3.3 0 .4.2.6.3zm-2.3 1c0 .6.5 1 1 1s1-.5 1-1-.5-1-1-1-1 .5-1 1zm.2-2.5c0 .5.4.8.8.8s.9-.4.9-.8-.4-.8-.8-.8-.9.3-.9.8zM265 97.9v.5c.3-.4.6-.6 1-.6s.8.2 1 .7c.3-.5.6-.7 1.2-.7s.7.1.9.4c.2.2.2.4.2 1v2.4h-.6v-2.2c0-.4 0-.6-.1-.7-.1-.2-.4-.3-.6-.3-.5 0-.8.4-.8 1v2.2h-.6v-2.2c0-.4 0-.5-.1-.7-.1-.2-.3-.3-.6-.3-.5 0-.9.4-.9 1v2.2h-.6v-3.7h.6zM272.6 99.1v.4h-2l1.2-1.6c.3-.5.4-.6.4-.8 0-.3-.2-.4-.5-.4s-.5.2-.5.6h-.4c0-.6.4-1 1-1s1 .3 1 .8-.1.5-.4.9l-.8 1.1h1.1z"/></g><g><path d="M171.2 81.6v.6h-2.5v-5.3h.7v4.7h1.9zM172.8 77.5c0 .2-.2.4-.4.4s-.4-.2-.4-.4.2-.4.4-.4.4.2.4.4zm0 4.7h-.6v-3.7h.6v3.7zM174.8 82.2h-.6V79h-.5v-.5h.5V78c0-.7.4-1.2 1-1.2h.2v.5c-.4 0-.6.2-.6.6v.5h.6v.5h-.6v3.2zM177.2 81.4c0 .2 0 .2.3.2h.3v.5h-.6c-.4 0-.6-.2-.6-.6v-2.6h-.5v-.5h.5v-1.2h.6v1.2h.6v.5h-.6v2.4z"/></g></g></svg>