<svg xmlns="http://www.w3.org/2000/svg" viewBox="0 0 453.3 398.8"><defs><style>.cls-1,.cls-10,.cls-11,.cls-12,.cls-13,.cls-14,.cls-15,.cls-16,.cls-17,.cls-18,.cls-2,.cls-3,.cls-4,.cls-5,.cls-6,.cls-7,.cls-8,.cls-9{fill:none;stroke-linecap:round;stroke-linejoin:round}.cls-1,.cls-10,.cls-11,.cls-12,.cls-13,.cls-14,.cls-15,.cls-16,.cls-18,.cls-2,.cls-3,.cls-4,.cls-5,.cls-6,.cls-8,.cls-9{stroke-width:.1px}.cls-1,.cls-14,.cls-16,.cls-17,.cls-18,.cls-3,.cls-4,.cls-8{stroke:#194164}.cls-1,.cls-8{stroke-dasharray:0 0 0 0 2.9 1.4 .2 1.4}.cls-2{stroke:#646464}.cls-10,.cls-11,.cls-12,.cls-13,.cls-14,.cls-18,.cls-3,.cls-4,.cls-5,.cls-6,.cls-9{stroke-dasharray:0 0 1.4 1.4}.cls-4{stroke-dashoffset:1px}.cls-5{stroke-dashoffset:2.5px}.cls-10,.cls-11,.cls-12,.cls-13,.cls-15,.cls-5,.cls-6,.cls-9{stroke:#969696}.cls-19,.cls-20{fill:#fff}.cls-7{stroke:#000;stroke-width:.3px}.cls-8{stroke-dashoffset:1.9px}.cls-9{stroke-dashoffset:2.4px}.cls-10{stroke-dashoffset:2.7px}.cls-11{stroke-dashoffset:2.5px}.cls-12{stroke-dashoffset:1.4px}.cls-13,.cls-18{stroke-dashoffset:.7px}.cls-20,.cls-21{fill-rule:evenodd}.cls-14{stroke-dashoffset:.2px}.cls-17{stroke-width:.3px}</style></defs><g id="Plan"><path class="cls-17" d="M370 215.4h29.8v39.8H370z"/><path class="cls-16" d="M401.7 206.5h-35.6M383.4 209.6h13.9M370.7 212.5h13.7M173.9 186.1h-14.2M173.9 186.8h-14.2M159.7 186.1v.7M173.9 186.8h-14.2M173.9 186.1h-14.2M173.9 186.1v.7"/><path class="cls-20" d="M452.5 157l-4.8 4.8h4.8V157"/><path class="cls-15" d="M452.8 158.2l-.7-.7M452.3 161.8l-2.2-2.1M448.2 161.8l-.2-.2M451.8 161.8l1-.7M448 161.8l4.8-4.8"/><path class="cls-20" d="M452.5 157l-4.8 4.8h4.8V157"/><path class="cls-15" d="M452.8 158.2l-.7-.7M452.3 161.8l-2.2-2.1M448.2 161.8l-.2-.2M451.8 161.8l1-.7M448 161.8l4.8-4.8"/><path class="cls-17" d="M452.5 161.8V157M452.5 161.8V157"/><path class="cls-20" d="M445.6 197.4v.4l6.9 7v-7.4h-6.9"/><path class="cls-15" d="M452.8 198.3l-1-.9M452.8 202.4l-5.1-5M450.9 202.9l1.9-1.7M448.9 201l3.6-3.6M446.8 199l1.7-1.6"/><path class="cls-20" d="M445.6 197.4v.4l6.9 7v-7.4h-6.9"/><path class="cls-15" d="M452.8 198.3l-1-.9M452.8 202.4l-5.1-5M450.9 202.9l1.9-1.7M448.9 201l3.6-3.6M446.8 199l1.7-1.6"/><path class="cls-17" d="M452.5 204.8v-7.4M445.6 197.8v-.4M445.6 197.8v-.4M452.5 204.8v-7.4"/><path class="cls-16" d="M451.3 191.6h1.9v5.8h-1.9zM451.3 161.8h1.9v2.4h-1.9z"/><path class="cls-16" d="M451.3 164.2h1.9v27.4h-1.9zM451.3 191.6v-27.4"/><path class="cls-1" d="M445.6 191.8V164"/><path class="cls-16" d="M445.6 164.5v-.5"/><path class="cls-20" d="M445.6 197.4v-5.6h5.7v5.6"/><path class="cls-15" d="M451.6 193l-1.5-1.2M451.6 197.1l-5.3-5.3M447.7 197.4l-1.9-2M448.5 197.4l3.1-3.2M445.8 196.2l4.1-4.4M445.8 192.1v-.3"/><path class="cls-20" d="M445.6 161.8v2.2h5.7v-2.2"/><path class="cls-15" d="M450.4 164l-2.2-2.2M446.5 164l-.7-.7M449.7 164l1.9-1.7M445.8 164l2.2-2.2"/><path class="cls-17" d="M445.6 191.8h5.7M445.6 164h5.7M445.6 191.8h5.7M445.6 197.4v-5.6M445.6 164h5.7M445.6 161.8v2.2M452.5 197.4h-1.2M452.5 161.8h-1.2M445.6 197.4v-5.6M445.6 161.8v2.2M451.3 191.8v5.6M451.3 164v-2.2"/><path class="cls-16" d="M116.1 269.8H98.8"/><path class="cls-7" d="M116.8 270.6h-18"/><path class="cls-16" d="M114.6 268.4H98.8M116.1 269.8H98.8"/><path class="cls-7" d="M98.8 269.8v.8"/><path class="cls-16" d="M98.8 268.4v1.4M116.8 270.6h-18M114.6 268.4H98.8M116.1 253.8v16"/><path class="cls-7" d="M116.8 253.8v16.8"/><path class="cls-16" d="M114.6 253.8v14.6M116.1 253.8v16M116.8 253.8v16.8M114.6 253.8v14.6"/><path class="cls-7" d="M116.1 253.8h.7"/><path class="cls-16" d="M114.6 253.8h1.5"/><path class="cls-21" d="M7.3 382.2l-7.2 5v9.6h31v-14.6H7.3"/><path class="cls-20" d="M31.1 396.8v-3.4H.1v3.4h31"/><path class="cls-15" d="M.4 395.4l1.4 1.4M2.3 393.4l3.4 3.4M6.4 393.4l3.3 3.4M10.5 393.4l3.3 3.4M14.3 393.4l3.4 3.4M18.4 393.4l3.3 3.4M22.5 393.4l3.3 3.4M26.5 393.4l3.4 3.4M30.4 393.4l.9.8"/><path class="cls-20" d="M31.1 393.4v-.4H.1v.4h31M31.1 393v-5.8H.1v5.8h31"/><path class="cls-15" d="M.6 387.2v5.8M2.1 387.2v5.8M3.5 387.2v5.8M4.9 387.2v5.8M6.4 387.2v5.8M7.8 387.2v5.8M9.3 387.2v5.8M10.7 387.2v5.8M12.1 387.2v5.8M13.3 387.2v5.8M14.8 387.2v5.8M16.2 387.2v5.8M17.7 387.2v5.8M19.1 387.2v5.8M20.5 387.2v5.8M22 387.2v5.8M23.4 387.2v5.8M24.9 387.2v5.8M26.3 387.2v5.8M27.5 387.2v5.8M28.9 387.2v5.8M30.4 387.2v5.8"/><path class="cls-20" d="M7.3 382.2l-7.2 5h31v-5H7.3"/><path class="cls-15" d="M31.3 382.2h-.2M31.3 386.2l-4-4M28.2 387.2l-5-5M24.1 387.2l-5-5M20.3 387.2l-5-5M16.2 387.2l-5-5M12.1 387.2l-4.8-4.8M8.1 387.2l-3.2-3.4M4.2 387.2l-1.7-1.7M30.1 387.2l1.2-1.2M26.1 387.2l5-5M22 387.2l5-5M18.1 387.2l5.1-5M14.1 387.2l5-5M10 387.2l5-5M6.1 387.2l5.1-5M2.1 387.2l4-4.1"/><path class="cls-17" d="M31.1 393.4H.1M31.1 396.8H.1"/><path class="cls-15" d="M31.1 387.2H.1M31.1 393H.1"/><path class="cls-17" d="M31.1 382.2H7.3M31.1 387.2H.1"/><path class="cls-16" d="M31.1 396.8H.1M31.1 382.2H7.3"/><path class="cls-21" d="M123.3 382.2v14.6H72.1v-14.6h51.2"/><path class="cls-20" d="M123.3 396.8v-3.4H72.1v3.4h51.2"/><path class="cls-15" d="M72.4 395.1l1.4 1.7M74.5 393.4l3.4 3.4M78.6 393.4l3.4 3.4M82.5 393.4l3.3 3.4M86.5 393.4l3.4 3.4M90.6 393.4l3.4 3.4M94.7 393.4l3.4 3.4M98.5 393.4l3.4 3.4M102.6 393.4l3.4 3.4M106.7 393.4l3.4 3.4M110.5 393.4l3.4 3.4M114.6 393.4l3.4 3.4M118.7 393.4l3.4 3.4M122.5 393.4l1 .8"/><path class="cls-20" d="M123.3 393.4v-.4H72.1v.4h51.2M123.3 393v-5.8H72.1v5.8h51.2"/><path class="cls-15" d="M72.9 387.2v5.8M74.3 387.2v5.8M75.7 387.2v5.8M77.2 387.2v5.8M78.6 387.2v5.8M80.1 387.2v5.8M81.5 387.2v5.8M82.9 387.2v5.8M84.4 387.2v5.8M85.8 387.2v5.8M87 387.2v5.8M88.5 387.2v5.8M89.9 387.2v5.8M91.3 387.2v5.8M92.8 387.2v5.8M94.2 387.2v5.8M95.7 387.2v5.8M97.1 387.2v5.8M98.5 387.2v5.8M100 387.2v5.8M101.4 387.2v5.8M102.6 387.2v5.8M104.1 387.2v5.8M105.5 387.2v5.8M106.9 387.2v5.8M108.4 387.2v5.8M109.8 387.2v5.8M111.3 387.2v5.8M112.7 387.2v5.8M114.1 387.2v5.8M115.6 387.2v5.8M117 387.2v5.8M118.2 387.2v5.8M119.7 387.2v5.8M121.1 387.2v5.8M122.5 387.2v5.8"/><path class="cls-20" d="M123.3 387.2v-5H72.1v5h51.2"/><path class="cls-15" d="M123.5 386.2l-4.1-4M120.4 387.2l-5.1-5M116.3 387.2l-5-5M112.5 387.2l-5.1-5M108.4 387.2l-5.1-5M104.3 387.2l-5-5M100.5 387.2l-5.1-5M96.4 387.2l-5.1-5M92.3 387.2l-5-5M88.5 387.2l-5.1-5M84.4 387.2l-5.1-5M80.3 387.2l-5-5M76.2 387.2l-3.8-4.1M122.3 387.2l1.2-1.2M118.2 387.2l5.1-5M114.4 387.2l5-5M110.3 387.2l5-5M106.2 387.2l5.1-5M102.1 387.2l5.1-5M98.3 387.2l5-5M94.2 387.2l5.1-5M90.1 387.2l5.1-5M86.3 387.2l5-5M82.2 387.2l5.1-5M78.1 387.2l5.1-5M74.1 387.2l5-5M72.4 385l2.9-2.8"/><path class="cls-17" d="M123.3 393.4H72.1M123.3 396.8H72.1"/><path class="cls-15" d="M123.3 387.2H72.1M123.3 393H72.1"/><path class="cls-17" d="M123.3 382.2H72.1M123.3 387.2H72.1"/><path class="cls-16" d="M123.3 396.8H72.1M123.3 382.2H72.1M70.2 389.6v7.2h3.4v1.9H29.7v-1.9H33v-7.2"/><path class="cls-1" d="M72.1 382.2h-41"/><path class="cls-16" d="M31.6 382.2h-.5"/><path class="cls-17" d="M70.2 396.8h3.4M33 396.8h-3.3"/><path class="cls-16" d="M31.1 387.2h41v2.4h-41zM68.3 389.6v-2.4M34.9 389.6v-2.4M72.1 387.2v2.4M53.7 387.2v2.4M68.3 387.2v2.4M49.6 387.2v2.4M53.7 387.2v2.4M34.9 387.2v2.4M49.6 387.2v2.4M31.1 387.2v2.4"/><path class="cls-20" d="M72 392.9h-1.8v-3.4H72"/><path class="cls-15" d="M71.7 389.6v3.4M72 392.9h-1.8v-3.4H72"/><path class="cls-17" d="M72.1 387.2v-5"/><path class="cls-20" d="M72.1 396.8h-1.9v-3.4h1.9"/><path class="cls-15" d="M70.5 393.4l1.9 1.7"/><path class="cls-17" d="M72.1 396.8h-1.9v-3.4h1.9M70.2 393.4v-3.8"/><path class="cls-20" d="M31.2 392.9h1.9v-3.4h-1.9"/><path class="cls-15" d="M31.8 389.6v3.4M31.2 392.9h1.9v-3.4h-1.9"/><path class="cls-17" d="M31.1 387.2v-5"/><path class="cls-20" d="M31.1 396.8H33v-3.4h-1.9"/><path class="cls-15" d="M31.3 394.2l2 1.9"/><path class="cls-17" d="M31.1 396.8H33v-3.4h-1.9M33 393.4v-3.8"/><path class="cls-21" d="M72.1 71.4V56.7h51.2v14.7H72.1"/><path class="cls-20" d="M72.1 56.7v3.4h51.2v-3.4H72.1"/><path class="cls-15" d="M72.4 58.4l1.4 1.7M74.5 56.7l3.4 3.4M78.6 56.7l3.4 3.4M82.7 56.7l3.4 3.4M86.5 56.7l3.4 3.4M90.6 56.7l3.4 3.4M94.7 56.7l3.4 3.4M98.5 56.7l3.4 3.4M102.6 56.7l3.4 3.4M106.7 56.7l3.4 3.4M110.5 56.7l3.4 3.4M114.6 56.7l3.4 3.4M118.7 56.7l3.4 3.4M122.8 56.7l.7.7"/><path class="cls-20" d="M72.1 60.1v.7h51.2v-.7H72.1"/><path class="cls-20" d="M72.1 60.8v5.5h51.2v-5.5H72.1"/><path class="cls-15" d="M122.5 66.3v-5.5M121.1 66.3v-5.5M119.7 66.3v-5.5M118.2 66.3v-5.5M117 66.3v-5.5M115.6 66.3v-5.5M114.1 66.3v-5.5M112.7 66.3v-5.5M111.3 66.3v-5.5M109.8 66.3v-5.5M108.4 66.3v-5.5M106.9 66.3v-5.5M105.5 66.3v-5.5M104.1 66.3v-5.5M102.6 66.3v-5.5M101.4 66.3v-5.5M100 66.3v-5.5M98.5 66.3v-5.5M97.1 66.3v-5.5M95.7 66.3v-5.5M94.2 66.3v-5.5M92.8 66.3v-5.5M91.3 66.3v-5.5M89.9 66.3v-5.5M88.5 66.3v-5.5M87 66.3v-5.5M85.8 66.3v-5.5M84.4 66.3v-5.5M82.9 66.3v-5.5M81.5 66.3v-5.5M80.1 66.3v-5.5M78.6 66.3v-5.5M77.2 66.3v-5.5M75.7 66.3v-5.5M74.3 66.3v-5.5M72.9 66.3v-5.5"/><path class="cls-20" d="M72.1 66.3v5.1h51.2v-5.1H72.1"/><path class="cls-15" d="M123.5 69.4l-3.4-3.1M121.3 71.4l-5-5.1M117.3 71.4l-5.1-5.1M113.2 71.4l-5.1-5.1M109.3 71.4l-5-5.1M105.3 71.4l-5.1-5.1M101.2 71.4l-5.1-5.1M97.3 71.4l-5-5.1M93.3 71.4l-5.1-5.1M89.2 71.4l-5.1-5.1M85.1 71.4l-5-5.1M81.3 71.4l-5.1-5.1M77.2 71.4l-4.8-5.1M73.1 71.4l-.7-1M121.3 71.4l2.2-2M117.5 71.4l5-5.1M113.4 71.4l5.1-5.1M109.3 71.4l5.1-5.1M105.5 71.4l5-5.1M101.4 71.4l5.1-5.1M97.3 71.4l5.1-5.1M93.3 71.4l5-5.1M89.4 71.4l5.1-5.1M85.3 71.4l5.1-5.1M81.3 71.4l5-5.1M77.4 71.4l5.1-5.1M73.3 71.4l5.1-5.1M72.4 68.5l1.9-2.2"/><path class="cls-17" d="M72.1 60.1h51.2M72.1 56.7h51.2"/><path class="cls-15" d="M72.1 66.3h51.2M72.1 60.8h51.2"/><path class="cls-17" d="M72.1 71.4h51.2M72.1 66.3h51.2"/><path class="cls-16" d="M72.1 56.7h51.2M72.1 71.4h51.2"/><path class="cls-21" d="M.1 56.7v9.6l7.2 5.1h23.8V56.7H.1"/><path class="cls-20" d="M.1 56.7v3.4h31v-3.4H.1"/><path class="cls-15" d="M.4 58.6l1.4 1.5M2.3 56.7l3.4 3.4M6.4 56.7l3.3 3.4M10.5 56.7l3.3 3.4M14.5 56.7l3.4 3.4M18.4 56.7l3.3 3.4M22.5 56.7l3.3 3.4M26.5 56.7l3.4 3.4M30.4 56.7l.9.7"/><path class="cls-20" d="M.1 60.1v.7h31v-.7H.1"/><path class="cls-20" d="M.1 60.8v5.5h31v-5.5H.1"/><path class="cls-15" d="M30.4 66.3v-5.5M28.9 66.3v-5.5M27.5 66.3v-5.5M26.3 66.3v-5.5M24.9 66.3v-5.5M23.4 66.3v-5.5M22 66.3v-5.5M20.5 66.3v-5.5M19.1 66.3v-5.5M17.7 66.3v-5.5M16.2 66.3v-5.5M14.8 66.3v-5.5M13.3 66.3v-5.5M12.1 66.3v-5.5M10.7 66.3v-5.5M9.3 66.3v-5.5M7.8 66.3v-5.5M6.4 66.3v-5.5M4.9 66.3v-5.5M3.5 66.3v-5.5M2.1 66.3v-5.5M.6 66.3v-5.5"/><path class="cls-20" d="M31.1 66.3H.1l7.2 5.1h23.8v-5.1"/><path class="cls-15" d="M31.3 69.4L28 66.3M29.2 71.4l-5.1-5.1M25.1 71.4l-5-5.1M21 71.4l-5-5.1M16.9 71.4l-5-5.1M13.1 71.4l-5-5.1M9 71.4l-5-5.1M29.2 71.4l2.1-2M25.1 71.4l5-5.1M21.3 71.4l5-5.1M17.2 71.4l5-5.1M13.1 71.4l5-5.1M9.3 71.4l5-5.1M6.1 70.4l4.1-4.1M3.7 68.7l2.4-2.4M1.3 67l1-.7"/><path class="cls-17" d="M.1 60.1h31M.1 56.7h31"/><path class="cls-15" d="M.1 66.3h31M.1 60.8h31"/><path class="cls-17" d="M7.3 71.4h23.8M.1 66.3h31"/><path class="cls-16" d="M.1 56.7h31M7.3 71.4h23.8M33 64.2v-7.5h-3.3v-1.9h43.9v1.9h-3.4v7.5"/><path class="cls-1" d="M31.1 71.4h41"/><path class="cls-16" d="M71.7 71.4h.4"/><path class="cls-17" d="M33 56.7h-3.3M70.2 56.7h3.4"/><path class="cls-16" d="M31.1 64.2h41v2.2h-41zM34.9 64.2v2.1M68.3 64.2v2.1M31.1 66.3v-2.1M49.6 66.3v-2.1M34.9 66.3v-2.1M53.7 66.3v-2.1M49.6 66.3v-2.1M68.3 66.3v-2.1M53.7 66.3v-2.1M72.1 66.3v-2.1"/><path class="cls-20" d="M31.2 60.7h1.9v3.4h-1.9"/><path class="cls-15" d="M31.8 64.2v-3.4M31.2 60.7h1.9v3.4h-1.9"/><path class="cls-17" d="M31.1 66.3v5.1"/><path class="cls-20" d="M31.1 56.7H33v3.4h-1.9"/><path class="cls-15" d="M31.3 57.4l2 2"/><path class="cls-17" d="M31.1 56.7H33v3.4h-1.9M33 60.1v4.1"/><path class="cls-20" d="M72 60.7h-1.8v3.4H72"/><path class="cls-15" d="M71.7 64.2v-3.4M72 60.7h-1.8v3.4H72"/><path class="cls-17" d="M72.1 66.3v5.1"/><path class="cls-20" d="M72.1 56.7h-1.9v3.4h1.9"/><path class="cls-15" d="M70.5 56.7l1.9 1.7"/><path class="cls-17" d="M72.1 56.7h-1.9v3.4h1.9M70.2 60.1v4.1"/><path class="cls-16" d="M35.7 207.2h57.6"/><path class="cls-7" d="M34.9 207.9h58.4"/><path class="cls-16" d="M37.1 205.8h56.2M35.7 207.2h57.6"/><path class="cls-7" d="M93.3 207.2v.7"/><path class="cls-16" d="M93.3 205.8v1.4M34.9 207.9h58.4M37.1 205.8h56.2"/><path class="cls-20" d="M65.2 223c-1.3.9-3 .9-4.3 0-1.9-1.5-2.9-3.8-2.9-6.2l.3-9h9.6l.3 9c0 2.4-1 4.7-2.9 6.2"/><path class="cls-16" d="M65.2 223c-1.3.9-3 .9-4.3 0-1.9-1.5-2.9-3.8-2.9-6.2l.3-9h9.6l.3 9c0 2.4-1 4.7-2.9 6.2"/><path class="cls-20" d="M63.1 212.9c1 0 2 .3 2.8 1.1.7.7 1.2 1.7 1.2 2.7 0 2.1-.9 4.1-2.5 5.4-.9.6-2 .6-2.9 0-1.6-1.3-2.5-3.3-2.5-5.4 0-1 .4-2 1.2-2.7.7-.7 1.8-1.1 2.8-1.1"/><path class="cls-16" d="M63.1 212.9c1 0 2 .3 2.8 1.1.7.7 1.2 1.7 1.2 2.7 0 2.1-.9 4.1-2.5 5.4-.9.6-2 .6-2.9 0-1.6-1.3-2.5-3.3-2.5-5.4 0-1 .4-2 1.2-2.7.7-.7 1.8-1.1 2.8-1.1"/><path class="cls-20" d="M70.2 207.9v41.3h22.6v-41.3H70.2"/><path class="cls-16" d="M70.2 207.9h22.6v41.3H70.2zM92.8 209.8H70.2M35.7 198.6v8.6"/><path class="cls-7" d="M34.9 198.6v9.3"/><path class="cls-16" d="M37.1 198.6v7.2M35.7 198.6v8.6M34.9 198.6v9.3M37.1 198.6v7.2"/><path class="cls-20" d="M38.3 207.8v12.4c0 .1.1.3.2.4.1.1.2.2.4.2H53c.1 0 .3-.1.4-.2.1-.1.2-.2.2-.4v-12.4H38"/><path class="cls-16" d="M38.3 207.8v12.4c0 .1.1.3.2.4.1.1.2.2.4.2H53c.1 0 .3-.1.4-.2.1-.1.2-.2.2-.4v-12.4H38"/><path class="cls-21" d="M219.5 382.2v14.6h-33.1v-14.6h33.1"/><path class="cls-20" d="M219.5 396.8v-3.4h-33.1v3.4h33.1"/><path class="cls-15" d="M186.9 393.4l3.3 3.4M190.7 393.4l3.4 3.4M194.8 393.4l3.3 3.4M198.9 393.4l3.3 3.4M202.9 393.4l3.4 3.4M206.8 393.4l3.3 3.4M210.9 393.4l3.3 3.4M214.9 393.4l3.4 3.4M218.8 393.4l.9.8"/><path class="cls-20" d="M219.5 393.4v-.4h-33.1v.4h33.1M219.5 393v-5.8h-33.1v5.8h33.1"/><path class="cls-15" d="M187.8 387.2v5.8M189.3 387.2v5.8M190.7 387.2v5.8M192.1 387.2v5.8M193.3 387.2v5.8M194.8 387.2v5.8M196.2 387.2v5.8M197.7 387.2v5.8M199.1 387.2v5.8M200.5 387.2v5.8M202 387.2v5.8M203.4 387.2v5.8M204.9 387.2v5.8M206.3 387.2v5.8M207.5 387.2v5.8M208.9 387.2v5.8M210.4 387.2v5.8M211.8 387.2v5.8M213.3 387.2v5.8M214.7 387.2v5.8M216.1 387.2v5.8M217.6 387.2v5.8M219 387.2v5.8"/><path class="cls-20" d="M219.5 387.2v-5h-33.1v5h33.1"/><path class="cls-15" d="M186.6 385l1.9 2.2M187.6 382.2l5 5M191.7 382.2l5 5M195.5 382.2l5 5M199.6 382.2l5 5M203.7 382.2l5 5M207.5 382.2l5 5M211.6 382.2l5 5M215.7 382.2l4 4M219.5 382.2h.2"/><path class="cls-17" d="M219.5 393.4h-33.1M219.5 396.8h-33.1"/><path class="cls-15" d="M219.5 387.2h-33.1M219.5 393h-33.1"/><path class="cls-17" d="M219.5 382.2h-33.1M219.5 387.2h-33.1"/><path class="cls-16" d="M219.5 396.8h-33.1M219.5 382.2h-33.1M184.5 389.6v7.2h3.3v1.9h-66v-1.9h3.4v-7.2"/><path class="cls-1" d="M186.4 382.2h-63.1"/><path class="cls-16" d="M123.7 382.2h-.4"/><path class="cls-17" d="M184.5 396.8h3.3M125.2 396.8h-3.4"/><path class="cls-16" d="M123.3 387.2h63.1v2.4h-63.1zM182.5 389.6v-2.4M127.1 389.6v-2.4M186.4 387.2v2.4M167.4 387.2v2.4M182.5 387.2v2.4M163.3 387.2v2.4M167.4 387.2v2.4M146.3 387.2v2.4M163.3 387.2v2.4M142.2 387.2v2.4M146.3 387.2v2.4M127.1 387.2v2.4M142.2 387.2v2.4M123.3 387.2v2.4"/><path class="cls-20" d="M186.3 392.9h-1.9v-3.4h1.9"/><path class="cls-15" d="M184.9 389.6v3.4M186.4 389.6v3.4M186.3 392.9h-1.9v-3.4h1.9"/><path class="cls-17" d="M186.4 387.2v-5"/><path class="cls-20" d="M186.4 396.8h-1.9v-3.4h1.9"/><path class="cls-15" d="M184.7 395.1l1.4 1.7"/><path class="cls-17" d="M186.4 396.8h-1.9v-3.4h1.9M184.5 393.4v-3.8"/><path class="cls-20" d="M123.3 392.9h1.9v-3.4h-1.9"/><path class="cls-15" d="M124 389.6v3.4M123.3 392.9h1.9v-3.4h-1.9"/><path class="cls-17" d="M123.3 387.2v-5"/><path class="cls-20" d="M123.3 396.8h1.9v-3.4h-1.9"/><path class="cls-15" d="M123.5 394.2l1.9 1.9"/><path class="cls-17" d="M123.3 396.8h1.9v-3.4h-1.9M125.2 393.4v-3.8"/><path class="cls-21" d="M329.9 71.4V56.7h25.7v14.7h-25.7"/><path class="cls-20" d="M329.9 56.7v3.4h25.7v-3.4h-25.7"/><path class="cls-15" d="M330.1 59.6l.3.5M331.1 56.7l3.4 3.4M335.2 56.7l3.3 3.4M339.3 56.7l3.3 3.4M343.1 56.7l3.4 3.4M347.2 56.7l3.3 3.4M351.3 56.7l3.3 3.4M355.1 56.7l.7.5"/><path class="cls-20" d="M329.9 60.1v.7h25.7v-.7h-25.7"/><path class="cls-20" d="M329.9 60.8v5.5h25.7v-5.5h-25.7"/><path class="cls-15" d="M355.1 66.3v-5.5M353.7 66.3v-5.5M352.2 66.3v-5.5M350.8 66.3v-5.5M349.3 66.3v-5.5M347.9 66.3v-5.5M346.5 66.3v-5.5M345 66.3v-5.5M343.6 66.3v-5.5M342.1 66.3v-5.5M340.9 66.3v-5.5M339.5 66.3v-5.5M338.1 66.3v-5.5M336.6 66.3v-5.5M335.2 66.3v-5.5M333.7 66.3v-5.5M332.3 66.3v-5.5M330.9 66.3v-5.5"/><path class="cls-20" d="M329.9 66.3v5.1h25.7v-5.1h-25.7"/><path class="cls-15" d="M330.1 67.5l3.6 3.9M332.8 66.3l5 5.1M336.6 66.3l5.1 5.1M340.7 66.3l5 5.1M344.8 66.3l5 5.1M348.9 66.3l5 5.1M352.7 66.3l3.1 2.9"/><path class="cls-17" d="M329.9 60.1h25.7M329.9 56.7h25.7"/><path class="cls-15" d="M329.9 66.3h25.7M329.9 60.8h25.7"/><path class="cls-17" d="M329.9 71.4h25.7M329.9 66.3h25.7"/><path class="cls-16" d="M329.9 56.7h25.7M329.9 71.4h25.7"/><path class="cls-21" d="M186.4 71.4V56.7H267v14.7h-80.6"/><path class="cls-20" d="M186.4 56.7v3.4H267v-3.4h-80.6"/><path class="cls-15" d="M186.9 56.7l3.3 3.4M190.9 56.7l3.4 3.4M194.8 56.7l3.3 3.4M198.9 56.7l3.3 3.4M202.9 56.7l3.4 3.4M206.8 56.7l3.3 3.4M210.9 56.7l3.3 3.4M214.9 56.7l3.4 3.4M218.8 56.7l3.3 3.4M222.9 56.7l3.3 3.4M226.9 56.7l3.4 3.4M231 56.7l3.4 3.4M234.9 56.7l3.3 3.4M238.9 56.7l3.4 3.4M243 56.7l3.4 3.4M246.9 56.7l3.3 3.4M250.9 56.7l3.4 3.4M255 56.7l3.4 3.4M258.9 56.7l3.3 3.4M262.9 56.7l3.4 3.4M267 56.7l.3.3"/><path class="cls-20" d="M186.4 60.1v.7H267v-.7h-80.6"/><path class="cls-20" d="M186.4 60.8v5.5H267v-5.5h-80.6"/><path class="cls-15" d="M267 66.3v-5.5M265.8 66.3v-5.5M264.4 66.3v-5.5M262.9 66.3v-5.5M261.5 66.3v-5.5M260.1 66.3v-5.5M258.6 66.3v-5.5M257.2 66.3v-5.5M255.7 66.3v-5.5M254.3 66.3v-5.5M252.9 66.3v-5.5M251.7 66.3v-5.5M250.2 66.3v-5.5M248.8 66.3v-5.5M247.3 66.3v-5.5M245.9 66.3v-5.5M244.5 66.3v-5.5M243 66.3v-5.5M241.6 66.3v-5.5M240.1 66.3v-5.5M238.7 66.3v-5.5M237.3 66.3v-5.5M236.1 66.3v-5.5M234.6 66.3v-5.5M233.2 66.3v-5.5M231.7 66.3v-5.5M230.3 66.3v-5.5M228.9 66.3v-5.5M227.4 66.3v-5.5M226 66.3v-5.5M224.5 66.3v-5.5M223.1 66.3v-5.5M221.9 66.3v-5.5M220.5 66.3v-5.5M219 66.3v-5.5M217.6 66.3v-5.5M216.1 66.3v-5.5M214.7 66.3v-5.5M213.3 66.3v-5.5M211.8 66.3v-5.5M210.4 66.3v-5.5M208.9 66.3v-5.5M207.5 66.3v-5.5M206.3 66.3v-5.5M204.9 66.3v-5.5M203.4 66.3v-5.5M202 66.3v-5.5M200.5 66.3v-5.5M199.1 66.3v-5.5M197.7 66.3v-5.5M196.2 66.3v-5.5M194.8 66.3v-5.5M193.3 66.3v-5.5M192.1 66.3v-5.5M190.7 66.3v-5.5M189.3 66.3v-5.5M187.8 66.3v-5.5"/><path class="cls-20" d="M186.4 66.3v5.1H267v-5.1h-80.6"/><path class="cls-15" d="M186.6 68.5l2.9 2.9M188.3 66.3l5 5.1M192.4 66.3l5 5.1M196.5 66.3l5 5.1M200.5 66.3l5.1 5.1M204.4 66.3l5 5.1M208.5 66.3l5 5.1M212.5 66.3l5.1 5.1M216.4 66.3l5 5.1M220.5 66.3l5 5.1M224.5 66.3l5.1 5.1M228.4 66.3l5 5.1M232.5 66.3l5 5.1M236.5 66.3l5.1 5.1M240.6 66.3l5.1 5.1M244.5 66.3l5 5.1M248.5 66.3l5.1 5.1M252.6 66.3l5.1 5.1M256.5 66.3l5 5.1M260.5 66.3l5.1 5.1M264.6 66.3l2.7 2.7"/><path class="cls-17" d="M186.4 60.1H267M186.4 56.7H267"/><path class="cls-15" d="M186.4 66.3H267M186.4 60.8H267"/><path class="cls-17" d="M186.4 71.4H267M186.4 66.3H267"/><path class="cls-16" d="M186.4 56.7H267M186.4 71.4H267"/><path class="cls-1" d="M123.3 71.4h63.1"/><path class="cls-16" d="M185.9 71.4h.5M123.3 64.2h63.1v2.2h-63.1zM127.1 64.2v2.1M182.5 64.2v2.1M123.3 66.3v-2.1M142.2 66.3v-2.1M127.1 66.3v-2.1M146.3 66.3v-2.1M142.2 66.3v-2.1M163.3 66.3v-2.1M146.3 66.3v-2.1M167.4 66.3v-2.1M163.3 66.3v-2.1M182.5 66.3v-2.1M167.4 66.3v-2.1M186.4 66.3v-2.1"/><path class="cls-17" d="M123.3 66.3v5.1"/><path class="cls-16" d="M187.8 56.7v-1.9"/><path class="cls-8" d="M187.8 54.8h-66"/><path class="cls-16" d="M121.8 54.8v1"/><path class="cls-20" d="M123.3 60.7h1.9v3.4h-1.9"/><path class="cls-15" d="M124 64.2v-3.4M123.3 60.7h1.9v3.4h-1.9"/><path class="cls-20" d="M123.3 56.7h1.9v3.4h-1.9"/><path class="cls-15" d="M123.5 57.4l1.9 2"/><path class="cls-17" d="M123.3 56.7h1.9v3.4h-1.9M125.2 60.1v4.1"/><path class="cls-20" d="M186.3 60.7h-1.9v3.4h1.9"/><path class="cls-15" d="M186.4 64.2v-3.4M184.9 64.2v-3.4M186.3 60.7h-1.9v3.4h1.9"/><path class="cls-17" d="M186.4 66.3v5.1"/><path class="cls-20" d="M186.4 56.7h-1.9v3.4h1.9"/><path class="cls-15" d="M184.7 58.4l1.4 1.7"/><path class="cls-17" d="M186.4 56.7h-1.9v3.4h1.9M184.5 60.1v4.1"/><path class="cls-16" d="M268.9 64.2v-7.5h-3.3v-1.9h66v1.9h-3.4v7.5"/><path class="cls-1" d="M267 71.4h62.9"/><path class="cls-17" d="M268.9 56.7h-3.3M328.2 56.7h3.4"/><path class="cls-16" d="M267 64.2h62.9v2.2H267zM270.6 64.2v2.1M326.3 64.2v2.1M267 66.3v-2.1M286 66.3v-2.1M270.6 66.3v-2.1M290.1 66.3v-2.1M286 66.3v-2.1M306.9 66.3v-2.1M290.1 66.3v-2.1M311.2 66.3v-2.1M306.9 66.3v-2.1M326.3 66.3v-2.1M311.2 66.3v-2.1M329.9 66.3v-2.1"/><path class="cls-20" d="M267.1 60.7h1.8v3.4h-1.8"/><path class="cls-15" d="M268.5 64.2v-3.4M267.1 60.7h1.8v3.4h-1.8"/><path class="cls-17" d="M267 66.3v5.1"/><path class="cls-20" d="M267 56.7h1.9v3.4H267"/><path class="cls-15" d="M267.3 57l1.9 1.9"/><path class="cls-17" d="M267 56.7h1.9v3.4H267M268.9 60.1v4.1"/><path class="cls-20" d="M330 60.7h-1.9v3.4h1.9"/><path class="cls-15" d="M329.4 64.2v-3.4M330 60.7h-1.9v3.4h1.9"/><path class="cls-17" d="M329.9 66.3v5.1"/><path class="cls-20" d="M329.9 56.7h-1.7v3.4h1.7"/><path class="cls-15" d="M328.5 57.9l1.6 1.7"/><path class="cls-17" d="M329.9 56.7h-1.7v3.4h1.7M328.2 60.1v4.1"/><path class="cls-20" d="M7.3 71.4L.1 66.3v320.9l7.2-5V71.4"/><path class="cls-15" d="M7.6 73.8L.4 66.6M7.6 77.8L.4 70.6M7.6 81.9L.4 74.7M7.6 85.8L.4 78.6M7.6 89.8L.4 82.6M7.6 93.9L.4 86.7M7.6 97.8L.4 90.6M7.6 101.8L.4 94.6M7.6 105.9L.4 98.7M7.6 109.8l-7.2-7.2M7.6 113.8l-7.2-7.2M7.6 117.9l-7.2-7.2M7.6 122l-7.2-7.2M7.6 125.8l-7.2-7.2M7.6 129.9l-7.2-7.2M7.6 134l-7.2-7.2M7.6 137.8l-7.2-7.2M7.6 141.9l-7.2-7.2M7.6 146l-7.2-7.2M7.6 150.1l-7.2-7.2M7.6 153.9l-7.2-7.2M7.6 158l-7.2-7.2M7.6 162.1l-7.2-7.2M7.6 165.9l-7.2-7.2M7.6 170l-7.2-7.2M7.6 174.1l-7.2-7.2M7.6 177.9l-7.2-7.2M7.6 182l-7.2-7.2M7.6 186.1l-7.2-7.2M7.6 190.2L.4 183M7.6 194l-7.2-7.2M7.6 198.1l-7.2-7.2M7.6 202.2L.4 195M7.6 206l-7.2-7.2M7.6 210.1l-7.2-7.2M7.6 214.2L.4 207M7.6 218l-7.2-7.2M7.6 222.1l-7.2-7.2M7.6 226.2L.4 219M7.6 230.2L.4 223M7.6 234.1l-7.2-7.2M7.6 238.2L.4 231M7.6 242.2L.4 235M7.6 246.1l-7.2-7.2M7.6 250.2L.4 243M7.6 254.2L.4 247M7.6 258.3l-7.2-7.2M7.6 262.2L.4 255M7.6 266.2L.4 259M7.6 270.3l-7.2-7.2M7.6 274.2L.4 267M7.6 278.2L.4 271M7.6 282.3l-7.2-7.2M7.6 286.2L.4 279M7.6 290.2L.4 283M7.6 294.3l-7.2-7.2M7.6 298.4l-7.2-7.2M7.6 302.2L.4 295M7.6 306.3l-7.2-7.2M7.6 310.4l-7.2-7.2M7.6 314.2L.4 307M7.6 318.3l-7.2-7.2M7.6 322.4l-7.2-7.2M7.6 326.2L.4 319M7.6 330.3l-7.2-7.2M7.6 334.4l-7.2-7.2M7.6 338.5l-7.2-7.2M7.6 342.3l-7.2-7.2M7.6 346.4l-7.2-7.2M7.6 350.5l-7.2-7.2M7.6 354.3l-7.2-7.2M7.6 358.4l-7.2-7.2M7.6 362.5l-7.2-7.2M7.6 366.3l-7.2-7.2M7.6 370.4l-7.2-7.2M7.6 374.5l-7.2-7.2M7.6 378.6l-7.2-7.2M7.3 382.4l-6.9-7.2M4.9 383.8l-4.5-4.5M2.5 385.5l-2.1-2.1M6.1 383.1l1.5-1.4M.4 385l7.2-7.2M.4 381l7.2-7.2M.4 376.9l7.2-7.2M.4 373l7.2-7.2M.4 369l7.2-7.2M.4 364.9l7.2-7.2M.4 360.8l7.2-7.2M.4 357l7.2-7.2M.4 352.9l7.2-7.2M.4 348.8l7.2-7.2M.4 345l7.2-7.2M.4 340.9l7.2-7.2M.4 336.8l7.2-7.2M.4 332.7l7.2-7.2M.4 328.9l7.2-7.2M.4 324.8l7.2-7.2M.4 320.7l7.2-7.2M.4 316.9l7.2-7.2M.4 312.8l7.2-7.2M.4 308.7l7.2-7.2M.4 304.9l7.2-7.2M.4 300.8l7.2-7.2M.4 296.7l7.2-7.2M.4 292.6l7.2-7.2M.4 288.8l7.2-7.2M.4 284.7l7.2-7.2M.4 280.6l7.2-7.2M.4 276.8l7.2-7.2M.4 272.7l7.2-7.2M.4 268.6l7.2-7.2M.4 264.8l7.2-7.2M.4 260.7l7.2-7.2M.4 256.6l7.2-7.2M.4 252.6l7.2-7.2M.4 248.7l7.2-7.2M.4 244.6l7.2-7.2M.4 240.6l7.2-7.2M.4 236.7l7.2-7.2M.4 232.6l7.2-7.2M.4 228.6l7.2-7.2M.4 224.7l7.2-7.2M.4 220.6l7.2-7.2M.4 216.6l7.2-7.2M.4 212.5l7.2-7.2M.4 208.6l7.2-7.2M.4 204.6l7.2-7.2M.4 200.5l7.2-7.2M.4 196.6l7.2-7.2M.4 192.6l7.2-7.2M.4 188.5l7.2-7.2M.4 184.4l7.2-7.2M.4 180.6l7.2-7.2M.4 176.5l7.2-7.2M.4 172.4l7.2-7.2M.4 168.6l7.2-7.2M.4 164.5l7.2-7.2M.4 160.4l7.2-7.2M.4 156.6l7.2-7.2M.4 152.5l7.2-7.2M.4 148.4l7.2-7.2M.4 144.3l7.2-7.2M.4 140.5l7.2-7.2M.4 136.4l7.2-7.2M.4 132.3l7.2-7.2M.4 128.5l7.2-7.2M.4 124.4l7.2-7.2M.4 120.3l7.2-7.2M.4 116.5l7.2-7.2M.4 112.4l7.2-7.2M.4 108.3l7.2-7.2M.4 104.2L7.6 97M.4 100.4l7.2-7.2M.4 96.3l7.2-7.2M.4 92.2L7.6 85M.4 88.4l7.2-7.2M.4 84.3l7.2-7.2M.4 80.2L7.6 73M.4 76.2l5.7-5.8M.4 72.3l3.3-3.6M.4 68.2l.9-1.2"/><path class="cls-20" d="M7.3 71.4L.1 66.3v320.9l7.2-5V71.4"/><path class="cls-15" d="M7.6 73.8L.4 66.6M7.6 77.8L.4 70.6M7.6 81.9L.4 74.7M7.6 85.8L.4 78.6M7.6 89.8L.4 82.6M7.6 93.9L.4 86.7M7.6 97.8L.4 90.6M7.6 101.8L.4 94.6M7.6 105.9L.4 98.7M7.6 109.8l-7.2-7.2M7.6 113.8l-7.2-7.2M7.6 117.9l-7.2-7.2M7.6 122l-7.2-7.2M7.6 125.8l-7.2-7.2M7.6 129.9l-7.2-7.2M7.6 134l-7.2-7.2M7.6 137.8l-7.2-7.2M7.6 141.9l-7.2-7.2M7.6 146l-7.2-7.2M7.6 150.1l-7.2-7.2M7.6 153.9l-7.2-7.2M7.6 158l-7.2-7.2M7.6 162.1l-7.2-7.2M7.6 165.9l-7.2-7.2M7.6 170l-7.2-7.2M7.6 174.1l-7.2-7.2M7.6 177.9l-7.2-7.2M7.6 182l-7.2-7.2M7.6 186.1l-7.2-7.2M7.6 190.2L.4 183M7.6 194l-7.2-7.2M7.6 198.1l-7.2-7.2M7.6 202.2L.4 195M7.6 206l-7.2-7.2M7.6 210.1l-7.2-7.2M7.6 214.2L.4 207M7.6 218l-7.2-7.2M7.6 222.1l-7.2-7.2M7.6 226.2L.4 219M7.6 230.2L.4 223M7.6 234.1l-7.2-7.2M7.6 238.2L.4 231M7.6 242.2L.4 235M7.6 246.1l-7.2-7.2M7.6 250.2L.4 243M7.6 254.2L.4 247M7.6 258.3l-7.2-7.2M7.6 262.2L.4 255M7.6 266.2L.4 259M7.6 270.3l-7.2-7.2M7.6 274.2L.4 267M7.6 278.2L.4 271M7.6 282.3l-7.2-7.2M7.6 286.2L.4 279M7.6 290.2L.4 283M7.6 294.3l-7.2-7.2M7.6 298.4l-7.2-7.2M7.6 302.2L.4 295M7.6 306.3l-7.2-7.2M7.6 310.4l-7.2-7.2M7.6 314.2L.4 307M7.6 318.3l-7.2-7.2M7.6 322.4l-7.2-7.2M7.6 326.2L.4 319M7.6 330.3l-7.2-7.2M7.6 334.4l-7.2-7.2M7.6 338.5l-7.2-7.2M7.6 342.3l-7.2-7.2M7.6 346.4l-7.2-7.2M7.6 350.5l-7.2-7.2M7.6 354.3l-7.2-7.2M7.6 358.4l-7.2-7.2M7.6 362.5l-7.2-7.2M7.6 366.3l-7.2-7.2M7.6 370.4l-7.2-7.2M7.6 374.5l-7.2-7.2M7.6 378.6l-7.2-7.2M7.3 382.4l-6.9-7.2M4.9 383.8l-4.5-4.5M2.5 385.5l-2.1-2.1M6.1 383.1l1.5-1.4M.4 385l7.2-7.2M.4 381l7.2-7.2M.4 376.9l7.2-7.2M.4 373l7.2-7.2M.4 369l7.2-7.2M.4 364.9l7.2-7.2M.4 360.8l7.2-7.2M.4 357l7.2-7.2M.4 352.9l7.2-7.2M.4 348.8l7.2-7.2M.4 345l7.2-7.2M.4 340.9l7.2-7.2M.4 336.8l7.2-7.2M.4 332.7l7.2-7.2M.4 328.9l7.2-7.2M.4 324.8l7.2-7.2M.4 320.7l7.2-7.2M.4 316.9l7.2-7.2M.4 312.8l7.2-7.2M.4 308.7l7.2-7.2M.4 304.9l7.2-7.2M.4 300.8l7.2-7.2M.4 296.7l7.2-7.2M.4 292.6l7.2-7.2M.4 288.8l7.2-7.2M.4 284.7l7.2-7.2M.4 280.6l7.2-7.2M.4 276.8l7.2-7.2M.4 272.7l7.2-7.2M.4 268.6l7.2-7.2M.4 264.8l7.2-7.2M.4 260.7l7.2-7.2M.4 256.6l7.2-7.2M.4 252.6l7.2-7.2M.4 248.7l7.2-7.2M.4 244.6l7.2-7.2M.4 240.6l7.2-7.2M.4 236.7l7.2-7.2M.4 232.6l7.2-7.2M.4 228.6l7.2-7.2M.4 224.7l7.2-7.2M.4 220.6l7.2-7.2M.4 216.6l7.2-7.2M.4 212.5l7.2-7.2M.4 208.6l7.2-7.2M.4 204.6l7.2-7.2M.4 200.5l7.2-7.2M.4 196.6l7.2-7.2M.4 192.6l7.2-7.2M.4 188.5l7.2-7.2M.4 184.4l7.2-7.2M.4 180.6l7.2-7.2M.4 176.5l7.2-7.2M.4 172.4l7.2-7.2M.4 168.6l7.2-7.2M.4 164.5l7.2-7.2M.4 160.4l7.2-7.2M.4 156.6l7.2-7.2M.4 152.5l7.2-7.2M.4 148.4l7.2-7.2M.4 144.3l7.2-7.2M.4 140.5l7.2-7.2M.4 136.4l7.2-7.2M.4 132.3l7.2-7.2M.4 128.5l7.2-7.2M.4 124.4l7.2-7.2M.4 120.3l7.2-7.2M.4 116.5l7.2-7.2M.4 112.4l7.2-7.2M.4 108.3l7.2-7.2M.4 104.2L7.6 97M.4 100.4l7.2-7.2M.4 96.3l7.2-7.2M.4 92.2L7.6 85M.4 88.4l7.2-7.2M.4 84.3l7.2-7.2M.4 80.2L7.6 73M.4 76.2l5.7-5.8M.4 72.3l3.3-3.6M.4 68.2l.9-1.2"/><path class="cls-17" d="M7.3 382.2V71.4M.1 382.2V71.4M.1 382.2V71.4M7.3 382.2V71.4M.1 387.2v-5M.1 71.4v-5.1"/><path class="cls-20" d="M219.5 157v7h226.1l6.9-7h-233"/><path class="cls-15" d="M452.1 157.5l-.5-.5M450.1 159.7l-2.6-2.7M448 161.6l-4.6-4.6M446.1 163.5l-6.5-6.5M442.5 164l-7-7M438.4 164l-7-7M434.3 164l-7-7M430.5 164l-7-7M426.4 164l-7-7M422.3 164l-7-7M418.5 164l-7-7M414.4 164l-7-7M410.3 164l-7-7M406.2 164l-6.9-7M402.4 164l-7-7M398.3 164l-7-7M394.2 164l-6.9-7M390.4 164l-7-7M386.3 164l-7-7M382.2 164l-6.9-7M378.4 164l-7-7M374.3 164l-7-7M370.2 164l-6.9-7M366.1 164l-6.9-7M362.3 164l-7-7M358.2 164l-6.9-7M354.1 164l-6.9-7M350.3 164l-7-7M346.2 164l-6.9-7M342.1 164l-6.9-7M338.3 164l-7-7M334.2 164l-6.9-7M330.1 164l-6.9-7M326.1 164l-7-7M322.2 164l-6.9-7M318.1 164l-6.9-7M314.1 164l-7-7M310.2 164l-6.9-7M306.1 164l-6.9-7M302.1 164l-7-7M298.2 164l-6.9-7M294.1 164l-6.9-7M290.1 164l-7-7M286 164l-7-7M282.1 164l-6.9-7M278.1 164l-7-7M274 164l-7-7M270.1 164l-6.9-7M266.1 164l-7-7M262 164l-7-7M257.9 164l-7-7M254.1 164l-7-7M250 164l-7-7M245.9 164l-7-7M242.1 164l-7-7M238 164l-7-7M233.9 164l-7-7M230.1 164l-7-7M226 164l-6.3-6.2M221.9 164l-2.2-2.4M441.7 164l7-7M437.7 164l6.9-7M433.6 164l6.9-7M429.7 164l7-7M425.7 164l6.9-7M421.6 164l6.9-7M417.7 164l7-7M413.7 164l6.9-7M409.6 164l6.9-7M405.5 164l7-7M401.7 164l6.9-7M397.6 164l6.9-7M393.5 164l7-7M389.7 164l6.9-7M385.6 164l6.9-7M381.5 164l7-7M377.7 164l6.9-7M373.6 164l6.9-7M369.5 164l7-7M365.4 164l7-7M361.6 164l6.9-7M357.5 164l7-7M353.4 164l7-7M349.6 164l6.9-7M345.5 164l7-7M341.4 164l7-7M337.6 164l6.9-7M333.5 164l7-7M329.4 164l7-7M325.3 164l7-7M321.5 164l7-7M317.4 164l7-7M313.3 164l7-7M309.5 164l7-7M305.4 164l7-7M301.3 164l7-7M297.3 164l6.9-7M293.4 164l7-7M289.3 164l7-7M285.3 164l6.9-7M281.4 164l7-7M277.3 164l7-7M273.3 164l6.9-7M269.4 164l7-7M265.3 164l7-7M261.3 164l6.9-7M257.2 164l6.9-7M253.3 164l7-7M249.3 164l6.9-7M245.2 164l6.9-7M241.3 164l7-7M237.3 164l6.9-7M233.2 164l6.9-7M229.3 164l7-7M225.3 164l6.9-7M221.2 164l6.9-7M219.7 161.6l4.4-4.6M219.7 157.5l.5-.5"/><path class="cls-20" d="M219.5 157v7h226.1l6.9-7h-233"/><path class="cls-15" d="M452.1 157.5l-.5-.5M450.1 159.7l-2.6-2.7M448 161.6l-4.6-4.6M446.1 163.5l-6.5-6.5M442.5 164l-7-7M438.4 164l-7-7M434.3 164l-7-7M430.5 164l-7-7M426.4 164l-7-7M422.3 164l-7-7M418.5 164l-7-7M414.4 164l-7-7M410.3 164l-7-7M406.2 164l-6.9-7M402.4 164l-7-7M398.3 164l-7-7M394.2 164l-6.9-7M390.4 164l-7-7M386.3 164l-7-7M382.2 164l-6.9-7M378.4 164l-7-7M374.3 164l-7-7M370.2 164l-6.9-7M366.1 164l-6.9-7M362.3 164l-7-7M358.2 164l-6.9-7M354.1 164l-6.9-7M350.3 164l-7-7M346.2 164l-6.9-7M342.1 164l-6.9-7M338.3 164l-7-7M334.2 164l-6.9-7M330.1 164l-6.9-7M326.1 164l-7-7M322.2 164l-6.9-7M318.1 164l-6.9-7M314.1 164l-7-7M310.2 164l-6.9-7M306.1 164l-6.9-7M302.1 164l-7-7M298.2 164l-6.9-7M294.1 164l-6.9-7M290.1 164l-7-7M286 164l-7-7M282.1 164l-6.9-7M278.1 164l-7-7M274 164l-7-7M270.1 164l-6.9-7M266.1 164l-7-7M262 164l-7-7M257.9 164l-7-7M254.1 164l-7-7M250 164l-7-7M245.9 164l-7-7M242.1 164l-7-7M238 164l-7-7M233.9 164l-7-7M230.1 164l-7-7M226 164l-6.3-6.2M221.9 164l-2.2-2.4M441.7 164l7-7M437.7 164l6.9-7M433.6 164l6.9-7M429.7 164l7-7M425.7 164l6.9-7M421.6 164l6.9-7M417.7 164l7-7M413.7 164l6.9-7M409.6 164l6.9-7M405.5 164l7-7M401.7 164l6.9-7M397.6 164l6.9-7M393.5 164l7-7M389.7 164l6.9-7M385.6 164l6.9-7M381.5 164l7-7M377.7 164l6.9-7M373.6 164l6.9-7M369.5 164l7-7M365.4 164l7-7M361.6 164l6.9-7M357.5 164l7-7M353.4 164l7-7M349.6 164l6.9-7M345.5 164l7-7M341.4 164l7-7M337.6 164l6.9-7M333.5 164l7-7M329.4 164l7-7M325.3 164l7-7M321.5 164l7-7M317.4 164l7-7M313.3 164l7-7M309.5 164l7-7M305.4 164l7-7M301.3 164l7-7M297.3 164l6.9-7M293.4 164l7-7M289.3 164l7-7M285.3 164l6.9-7M281.4 164l7-7M277.3 164l7-7M273.3 164l6.9-7M269.4 164l7-7M265.3 164l7-7M261.3 164l6.9-7M257.2 164l6.9-7M253.3 164l7-7M249.3 164l6.9-7M245.2 164l6.9-7M241.3 164l7-7M237.3 164l6.9-7M233.2 164l6.9-7M229.3 164l7-7M225.3 164l6.9-7M221.2 164l6.9-7M219.7 161.6l4.4-4.6M219.7 157.5l.5-.5"/><path class="cls-17" d="M452.5 157h-233M445.6 164H219.5M445.6 164H219.5M348.4 157H219.5M452.5 157h-96.9"/><path class="cls-20" d="M219.5 265.5v7h132.2v-7H219.5"/><path class="cls-15" d="M352 265.8l-.5-.3M352 269.8l-4.6-4.3M350.5 272.5l-6.9-7M346.5 272.5l-7-7M342.4 272.5l-7-7M338.5 272.5l-6.9-7M334.5 272.5l-7-7M330.4 272.5l-7-7M326.3 272.5l-7-7M322.5 272.5l-7-7M318.4 272.5l-7-7M314.3 272.5l-7-7M310.5 272.5l-7-7M306.4 272.5l-7-7M302.3 272.5l-7-7M298.5 272.5l-7-7M294.4 272.5l-7-7M290.3 272.5l-7-7M286.2 272.5l-6.9-7M282.4 272.5l-7-7M278.3 272.5l-7-7M274.2 272.5l-6.9-7M270.4 272.5l-7-7M266.3 272.5l-7-7M262.2 272.5l-6.9-7M258.1 272.5l-6.9-7M254.3 272.5l-7-7M250.2 272.5l-6.9-7M246.1 272.5l-6.9-7M242.3 272.5l-7-7M238.2 272.5l-6.9-7M234.1 272.5l-6.9-7M230.3 272.5l-7-7M226.2 272.5l-6.5-6.5M222.1 272.5l-2.4-2.7M349.3 272.5l2.7-2.7M345.3 272.5l6.7-6.7M341.2 272.5l6.9-7M337.3 272.5l7-7M333.3 272.5l6.9-7M329.2 272.5l6.9-7M325.1 272.5l7-7M321.3 272.5l6.9-7M317.2 272.5l6.9-7M313.1 272.5l7-7M309.3 272.5l6.9-7M305.2 272.5l6.9-7M301.1 272.5l7-7M297 272.5l7-7M293.2 272.5l6.9-7M289.1 272.5l7-7M285 272.5l7-7M281.2 272.5l6.9-7M277.1 272.5l7-7M273 272.5l7-7M269.2 272.5l6.9-7M265.1 272.5l7-7M261 272.5l7-7M256.9 272.5l7-7M253.1 272.5l7-7M249 272.5l7-7M244.9 272.5l7-7M241.1 272.5l7-7M237 272.5l7-7M232.9 272.5l7-7M229.1 272.5l7-7M225 272.5l7-7M220.9 272.5l7-7M219.7 269.8l4.1-4.3M219.7 265.8l.3-.3"/><path class="cls-20" d="M219.5 265.5v7h132.2v-7H219.5"/><path class="cls-15" d="M352 265.8l-.5-.3M352 269.8l-4.6-4.3M350.5 272.5l-6.9-7M346.5 272.5l-7-7M342.4 272.5l-7-7M338.5 272.5l-6.9-7M334.5 272.5l-7-7M330.4 272.5l-7-7M326.3 272.5l-7-7M322.5 272.5l-7-7M318.4 272.5l-7-7M314.3 272.5l-7-7M310.5 272.5l-7-7M306.4 272.5l-7-7M302.3 272.5l-7-7M298.5 272.5l-7-7M294.4 272.5l-7-7M290.3 272.5l-7-7M286.2 272.5l-6.9-7M282.4 272.5l-7-7M278.3 272.5l-7-7M274.2 272.5l-6.9-7M270.4 272.5l-7-7M266.3 272.5l-7-7M262.2 272.5l-6.9-7M258.1 272.5l-6.9-7M254.3 272.5l-7-7M250.2 272.5l-6.9-7M246.1 272.5l-6.9-7M242.3 272.5l-7-7M238.2 272.5l-6.9-7M234.1 272.5l-6.9-7M230.3 272.5l-7-7M226.2 272.5l-6.5-6.5M222.1 272.5l-2.4-2.7M349.3 272.5l2.7-2.7M345.3 272.5l6.7-6.7M341.2 272.5l6.9-7M337.3 272.5l7-7M333.3 272.5l6.9-7M329.2 272.5l6.9-7M325.1 272.5l7-7M321.3 272.5l6.9-7M317.2 272.5l6.9-7M313.1 272.5l7-7M309.3 272.5l6.9-7M305.2 272.5l6.9-7M301.1 272.5l7-7M297 272.5l7-7M293.2 272.5l6.9-7M289.1 272.5l7-7M285 272.5l7-7M281.2 272.5l6.9-7M277.1 272.5l7-7M273 272.5l7-7M269.2 272.5l6.9-7M265.1 272.5l7-7M261 272.5l7-7M256.9 272.5l7-7M253.1 272.5l7-7M249 272.5l7-7M244.9 272.5l7-7M241.1 272.5l7-7M237 272.5l7-7M232.9 272.5l7-7M229.1 272.5l7-7M225 272.5l7-7M220.9 272.5l7-7M219.7 269.8l4.1-4.3M219.7 265.8l.3-.3"/><path class="cls-17" d="M351.7 265.5H219.5M351.7 272.5H219.5M351.7 272.5H219.5M351.7 265.5H219.5"/><path class="cls-20" d="M212.5 194h7v193.2h-7V194"/><path class="cls-15" d="M219.7 197.8l-3.8-3.8M219.7 201.7l-6.9-7M219.7 205.8l-6.9-7M219.7 209.8l-6.9-6.9M219.7 213.7l-6.9-7M219.7 217.8l-6.9-7M219.7 221.8l-6.9-6.9M219.7 225.9l-6.9-6.9M219.7 229.8l-6.9-7M219.7 233.8l-6.9-6.9M219.7 237.9l-6.9-6.9M219.7 241.8l-6.9-7M219.7 245.8l-6.9-6.9M219.7 249.9l-6.9-6.9M219.7 254l-6.9-7M219.7 257.8l-6.9-6.9M219.7 261.9l-6.9-6.9M219.7 266l-6.9-7M219.7 269.8l-6.9-6.9M219.7 273.9l-6.9-6.9M219.7 278l-6.9-7M219.7 281.8l-6.9-6.9M219.7 285.9l-6.9-6.9M219.7 290l-6.9-7M219.7 294.1l-6.9-7M219.7 297.9l-6.9-6.9M219.7 302l-6.9-7M219.7 306.1l-6.9-7M219.7 309.9l-6.9-6.9M219.7 314l-6.9-7M219.7 318.1l-6.9-7M219.7 321.9l-6.9-6.9M219.7 326l-6.9-7M219.7 330.1l-6.9-7M219.7 334.2l-6.9-7M219.7 338l-6.9-7M219.7 342.1l-6.9-7M219.7 346.2l-6.9-7M219.7 350l-6.9-7M219.7 354.1l-6.9-7M219.7 358.2l-6.9-7M219.7 362.2l-6.9-6.9M219.7 366.1l-6.9-7M219.7 370.2l-6.9-7M219.7 374.2l-6.9-6.9M219.7 378.1l-6.9-7M219.7 382.2l-6.9-7M219.7 386.2l-6.9-6.9M216.6 387.2l-3.8-4.1M218.5 387.2l1.2-1.2M214.5 387.2l5.2-5M212.8 385l6.9-6.9M212.8 381l6.9-7M212.8 376.9l6.9-7M212.8 373l6.9-6.9M212.8 369l6.9-7M212.8 364.9l6.9-7M212.8 361l6.9-6.9M212.8 357l6.9-7M212.8 352.9l6.9-7M212.8 349l6.9-6.9M212.8 345l6.9-7M212.8 340.9l6.9-7M212.8 336.8l6.9-7M212.8 333l6.9-7M212.8 328.9l6.9-7M212.8 324.8l6.9-7M212.8 321l6.9-7M212.8 316.9l6.9-7M212.8 312.8l6.9-7M212.8 309l6.9-7M212.8 304.9l6.9-7M212.8 300.8l6.9-7M212.8 296.7l6.9-6.9M212.8 292.9l6.9-7M212.8 288.8l6.9-7M212.8 284.7l6.9-6.9M212.8 280.9l6.9-7M212.8 276.8l6.9-7M212.8 272.7l6.9-6.9M212.8 268.9l6.9-7M212.8 264.8l6.9-7M212.8 260.7l6.9-6.9M212.8 256.6l6.9-6.9M212.8 252.8l6.9-7M212.8 248.7l6.9-6.9M212.8 244.6l6.9-6.9M212.8 240.8l6.9-7M212.8 236.7l6.9-6.9M212.8 232.6l6.9-6.9M212.8 228.6l6.9-7M212.8 224.7l6.9-6.9M212.8 220.6l6.9-6.9M212.8 216.6l6.9-7M212.8 212.7l6.9-6.9M212.8 208.6l6.9-6.9M212.8 204.6l6.9-7M212.8 200.7l6.5-6.7M212.8 196.6l2.4-2.6"/><path class="cls-20" d="M219.5 194h-7v193.2h7V194"/><path class="cls-15" d="M219.7 197.8l-3.8-3.8M219.7 201.7l-6.9-7M219.7 205.8l-6.9-7M219.7 209.8l-6.9-6.9M219.7 213.7l-6.9-7M219.7 217.8l-6.9-7M219.7 221.8l-6.9-6.9M219.7 225.9l-6.9-6.9M219.7 229.8l-6.9-7M219.7 233.8l-6.9-6.9M219.7 237.9l-6.9-6.9M219.7 241.8l-6.9-7M219.7 245.8l-6.9-6.9M219.7 249.9l-6.9-6.9M219.7 254l-6.9-7M219.7 257.8l-6.9-6.9M219.7 261.9l-6.9-6.9M219.7 266l-6.9-7M219.7 269.8l-6.9-6.9M219.7 273.9l-6.9-6.9M219.7 278l-6.9-7M219.7 281.8l-6.9-6.9M219.7 285.9l-6.9-6.9M219.7 290l-6.9-7M219.7 294.1l-6.9-7M219.7 297.9l-6.9-6.9M219.7 302l-6.9-7M219.7 306.1l-6.9-7M219.7 309.9l-6.9-6.9M219.7 314l-6.9-7M219.7 318.1l-6.9-7M219.7 321.9l-6.9-6.9M219.7 326l-6.9-7M219.7 330.1l-6.9-7M219.7 334.2l-6.9-7M219.7 338l-6.9-7M219.7 342.1l-6.9-7M219.7 346.2l-6.9-7M219.7 350l-6.9-7M219.7 354.1l-6.9-7M219.7 358.2l-6.9-7M219.7 362.2l-6.9-6.9M219.7 366.1l-6.9-7M219.7 370.2l-6.9-7M219.7 374.2l-6.9-6.9M219.7 378.1l-6.9-7M219.7 382.2l-6.9-7M219.7 386.2l-6.9-6.9M216.6 387.2l-3.8-4.1M218.5 387.2l1.2-1.2M214.5 387.2l5.2-5M212.8 385l6.9-6.9M212.8 381l6.9-7M212.8 376.9l6.9-7M212.8 373l6.9-6.9M212.8 369l6.9-7M212.8 364.9l6.9-7M212.8 361l6.9-6.9M212.8 357l6.9-7M212.8 352.9l6.9-7M212.8 349l6.9-6.9M212.8 345l6.9-7M212.8 340.9l6.9-7M212.8 336.8l6.9-7M212.8 333l6.9-7M212.8 328.9l6.9-7M212.8 324.8l6.9-7M212.8 321l6.9-7M212.8 316.9l6.9-7M212.8 312.8l6.9-7M212.8 309l6.9-7M212.8 304.9l6.9-7M212.8 300.8l6.9-7M212.8 296.7l6.9-6.9M212.8 292.9l6.9-7M212.8 288.8l6.9-7M212.8 284.7l6.9-6.9M212.8 280.9l6.9-7M212.8 276.8l6.9-7M212.8 272.7l6.9-6.9M212.8 268.9l6.9-7M212.8 264.8l6.9-7M212.8 260.7l6.9-6.9M212.8 256.6l6.9-6.9M212.8 252.8l6.9-7M212.8 248.7l6.9-6.9M212.8 244.6l6.9-6.9M212.8 240.8l6.9-7M212.8 236.7l6.9-6.9M212.8 232.6l6.9-6.9M212.8 228.6l6.9-7M212.8 224.7l6.9-6.9M212.8 220.6l6.9-6.9M212.8 216.6l6.9-7M212.8 212.7l6.9-6.9M212.8 208.6l6.9-6.9M212.8 204.6l6.9-7M212.8 200.7l6.5-6.7M212.8 196.6l2.4-2.6"/><path class="cls-17" d="M212.5 194v193.2M219.5 272.5v114.7M219.5 194v71.5M212.5 387.2h7M219.5 272.5v114.7M212.5 194v193.2M219.5 194v71.5"/><path class="cls-20" d="M212.5 97.5h7v64.3h-7V97.5"/><path class="cls-15" d="M219.7 97.5h-.2M219.7 101.6l-4-4.1M219.7 105.7l-6.9-7M219.7 109.5l-6.9-6.9M219.7 113.6l-6.9-7M219.7 117.7l-6.9-7M219.7 121.5l-6.9-6.9M219.7 125.6l-6.9-7M219.7 129.7l-6.9-7M219.7 133.5l-6.9-6.9M219.7 137.6l-6.9-7M219.7 141.7l-6.9-7M219.7 145.8l-6.9-7M219.7 149.6l-6.9-7M219.7 153.7l-6.9-7M219.7 157.8l-6.9-7M219.7 161.6l-6.9-7M215.7 161.8l-2.9-3.1M219.3 161.8l.4-.2M215.4 161.8l4.3-4.3M212.8 160.6l6.9-6.9M212.8 156.6l6.9-7M212.8 152.5l6.9-7M212.8 148.4l6.9-7M212.8 144.6l6.9-7M212.8 140.5l6.9-7M212.8 136.4l6.9-7M212.8 132.6l6.9-7M212.8 128.5l6.9-7M212.8 124.4l6.9-7M212.8 120.3l6.9-6.9M212.8 116.5l6.9-7M212.8 112.4l6.9-7M212.8 108.3l6.9-6.9M212.8 104.5l6.7-7M212.8 100.4l2.6-2.9"/><path class="cls-20" d="M219.5 97.5h-7v64.3h7V97.5"/><path class="cls-15" d="M219.7 97.5h-.2M219.7 101.6l-4-4.1M219.7 105.7l-6.9-7M219.7 109.5l-6.9-6.9M219.7 113.6l-6.9-7M219.7 117.7l-6.9-7M219.7 121.5l-6.9-6.9M219.7 125.6l-6.9-7M219.7 129.7l-6.9-7M219.7 133.5l-6.9-6.9M219.7 137.6l-6.9-7M219.7 141.7l-6.9-7M219.7 145.8l-6.9-7M219.7 149.6l-6.9-7M219.7 153.7l-6.9-7M219.7 157.8l-6.9-7M219.7 161.6l-6.9-7M215.7 161.8l-2.9-3.1M219.3 161.8l.4-.2M215.4 161.8l4.3-4.3M212.8 160.6l6.9-6.9M212.8 156.6l6.9-7M212.8 152.5l6.9-7M212.8 148.4l6.9-7M212.8 144.6l6.9-7M212.8 140.5l6.9-7M212.8 136.4l6.9-7M212.8 132.6l6.9-7M212.8 128.5l6.9-7M212.8 124.4l6.9-7M212.8 120.3l6.9-6.9M212.8 116.5l6.9-7M212.8 112.4l6.9-7M212.8 108.3l6.9-6.9M212.8 104.5l6.7-7M212.8 100.4l2.6-2.9"/><path class="cls-17" d="M212.5 97.5v64.3M219.5 97.5V157M212.5 97.5v64.3M219.5 97.5V157"/><path class="cls-16" d="M211.8 161.8h1.7v2.4h-1.7zM211.8 191.6h1.7v2.4h-1.7z"/><path class="cls-16" d="M211.8 164.2h1.7v27.4h-1.7zM213.5 164.2v27.4"/><path class="cls-1" d="M219.5 164v27.8"/><path class="cls-16" d="M219.5 191.4v.4"/><path class="cls-20" d="M219.6 161.8v2.2h-6v-2.2h-1.1"/><path class="cls-15" d="M217.8 164l-2.1-2.2M214 164l-.3-.2M217.1 164l2.2-2.2M213.7 163.5l1.7-1.7"/><path class="cls-17" d="M219.6 164h-6v-2.2h-1.1"/><path class="cls-20" d="M219.5 194v-2.2h-6v2.2h-1"/><path class="cls-15" d="M219.7 193.8l-1.9-2M215.9 194l-2.2-2.2M219.3 194l.4-.2M215.2 194l2.1-2.2"/><path class="cls-17" d="M219.5 194v-2.2h-6v2.2h-1"/><path class="cls-15" d="M184.7 164.3c0 14.9 12.3 27.2 27.2 27.2M211.8 164.2h-27.1"/><path class="cls-16" d="M212.5 73.3h7M212.5 95.8h7"/><path class="cls-17" d="M212.5 71.4h7M212.5 97.5h7"/><path class="cls-15" d="M242.3 95.8c0-12.4-10.2-22.7-22.7-22.7M219.5 95.8h22.8"/><path class="cls-20" d="M402.6 262.6l7.2 9.9V205l-7.2-6.9v64.5"/><path class="cls-15" d="M410.1 207.7l-7.2-7.2M410.1 211.8l-7.2-7.2M410.1 215.6l-7.2-7.2M410.1 219.7l-7.2-7.2M410.1 223.8l-7.2-7.2M410.1 227.8l-7.2-7.2M410.1 231.7l-7.2-7.2M410.1 235.8l-7.2-7.2M410.1 239.8l-7.2-7.2M410.1 243.7l-7.2-7.2M410.1 247.8l-7.2-7.2M410.1 251.8l-7.2-7.2M410.1 255.7l-7.2-7.2M410.1 259.8l-7.2-7.2M410.1 263.8l-7.2-7.2M410.1 267.9l-7.2-7.2M410.1 271.8l-2-1.7M409.8 272.2l.3-.2M407.9 269.8l2.2-1.9M406.2 267.4l3.9-3.6M404.5 265.3l5.6-5.3M402.9 262.9l7.2-7M402.9 259l7.2-7.2M402.9 255l7.2-7.2M402.9 251.1l7.2-7.2M402.9 247l7.2-7.2M402.9 243l7.2-7.2M402.9 239.1l7.2-7.2M402.9 235l7.2-7.2M402.9 231l7.2-7.2M402.9 227.1l7.2-7.2M402.9 223l7.2-7.2M402.9 219l7.2-7.2M402.9 214.9l7.2-7.2M402.9 211l6.4-6.7M402.9 207l4.3-4.6M402.9 202.9l2.4-2.4M402.9 199l.2-.4"/><path class="cls-20" d="M402.6 262.6l7.2 9.9V205l-7.2-6.9v64.5"/><path class="cls-15" d="M410.1 207.7l-7.2-7.2M410.1 211.8l-7.2-7.2M410.1 215.6l-7.2-7.2M410.1 219.7l-7.2-7.2M410.1 223.8l-7.2-7.2M410.1 227.8l-7.2-7.2M410.1 231.7l-7.2-7.2M410.1 235.8l-7.2-7.2M410.1 239.8l-7.2-7.2M410.1 243.7l-7.2-7.2M410.1 247.8l-7.2-7.2M410.1 251.8l-7.2-7.2M410.1 255.7l-7.2-7.2M410.1 259.8l-7.2-7.2M410.1 263.8l-7.2-7.2M410.1 267.9l-7.2-7.2M410.1 271.8l-2-1.7M409.8 272.2l.3-.2M407.9 269.8l2.2-1.9M406.2 267.4l3.9-3.6M404.5 265.3l5.6-5.3M402.9 262.9l7.2-7M402.9 259l7.2-7.2M402.9 255l7.2-7.2M402.9 251.1l7.2-7.2M402.9 247l7.2-7.2M402.9 243l7.2-7.2M402.9 239.1l7.2-7.2M402.9 235l7.2-7.2M402.9 231l7.2-7.2M402.9 227.1l7.2-7.2M402.9 223l7.2-7.2M402.9 219l7.2-7.2M402.9 214.9l7.2-7.2M402.9 211l6.4-6.7M402.9 207l4.3-4.6M402.9 202.9l2.4-2.4M402.9 199l.2-.4"/><path class="cls-17" d="M402.6 207.7v54.9M409.8 205v67.5M409.8 205v67.5M402.6 207.7v54.9"/><path class="cls-20" d="M357.3 207.9l-5.6-10.1v74.7l5.6-9.9v-54.7"/><path class="cls-15" d="M356.5 206.5l-4.5-4.8M357.5 211.3l-5.5-5.5M357.5 215.4l-5.5-5.6M357.5 219.2l-5.5-5.5M357.5 223.3l-5.5-5.5M357.5 227.4l-5.5-5.6M357.5 231.2l-5.5-5.5M357.5 235.3l-5.5-5.5M357.5 239.4l-5.5-5.6M357.5 243.4l-5.5-5.5M357.5 247.3l-5.5-5.5M357.5 251.4l-5.5-5.6M357.5 255.4l-5.5-5.5M357.5 259.3l-5.5-5.5M357 263.1l-5-5.3M355.6 265.8l-3.6-3.9M354.1 268.2l-2.1-2.4M352.7 270.8l-.7-1M352 269.8l3.1-3.3M352 265.8l5.5-5.6M352 261.9l5.5-5.5M352 257.8l5.5-5.5M352 253.8l5.5-5.6M352 249.9l5.5-5.5M352 245.8l5.5-5.5M352 241.8l5.5-5.6M352 237.7l5.5-5.5M352 233.8l5.5-5.5M352 229.8l5.5-5.6M352 225.7l5.5-5.5M352 221.8l5.5-5.5M352 217.8l5.5-5.6M352 213.7l5.5-5.5M352 209.8l4.1-4.3M352 205.8l2.6-2.9M352 201.7l1.2-1.5"/><path class="cls-20" d="M357.3 207.9l-5.6-10.1v74.7l5.6-9.9v-54.7"/><path class="cls-15" d="M356.5 206.5l-4.5-4.8M357.5 211.3l-5.5-5.5M357.5 215.4l-5.5-5.6M357.5 219.2l-5.5-5.5M357.5 223.3l-5.5-5.5M357.5 227.4l-5.5-5.6M357.5 231.2l-5.5-5.5M357.5 235.3l-5.5-5.5M357.5 239.4l-5.5-5.6M357.5 243.4l-5.5-5.5M357.5 247.3l-5.5-5.5M357.5 251.4l-5.5-5.6M357.5 255.4l-5.5-5.5M357.5 259.3l-5.5-5.5M357 263.1l-5-5.3M355.6 265.8l-3.6-3.9M354.1 268.2l-2.1-2.4M352.7 270.8l-.7-1M352 269.8l3.1-3.3M352 265.8l5.5-5.6M352 261.9l5.5-5.5M352 257.8l5.5-5.5M352 253.8l5.5-5.6M352 249.9l5.5-5.5M352 245.8l5.5-5.5M352 241.8l5.5-5.6M352 237.7l5.5-5.5M352 233.8l5.5-5.5M352 229.8l5.5-5.6M352 225.7l5.5-5.5M352 221.8l5.5-5.5M352 217.8l5.5-5.6M352 213.7l5.5-5.5M352 209.8l4.1-4.3M352 205.8l2.6-2.9M352 201.7l1.2-1.5"/><path class="cls-17" d="M357.3 262.6v-54.7M351.7 265.5v-67.7M351.7 265.5v-67.7M357.3 262.6v-54.7"/><path class="cls-16" d="M219.5 226.2h34.1M219.5 218.7h34.1M219.5 211h34.1M219.5 203.4h34.1M351.7 203.4h-34M351.7 211h-34M351.7 218.7h-34M351.7 226.2h-34M278.1 265.5l-8.2-35.5M253.6 198.1h64.1v33.4h-64.1zM334.7 203.4l3.8 3.8h-7.6l3.8-3.8zM258.9 231.4v34.1M266.5 231.4v34.1M274.2 231.4v34.1M281.9 231.4v34.1M289.3 231.4v34.1M297 231.4v34.1M304.7 231.4v34.1M312.4 231.4v34.1"/><path class="cls-16" d="M255 199.5h61.2V230H255zM312.4 248.5l-3.9 3.8v-7.7l3.9 3.9zM274.2 248.5l-3.8 3.8v-7.7l3.8 3.9zM236.5 226.2l-3.8-3.9h7.7l-3.9 3.9z"/><path class="cls-20" d="M355.6 157h-7.2V66.3h7.2V157"/><path class="cls-15" d="M355.8 69.2l-3.1-2.9M355.8 73.3l-6.9-7M355.8 77.4l-7.2-7.2M355.8 81.2l-7.2-7.2M355.8 85.3l-7.2-7.2M355.8 89.4l-7.2-7.2M355.8 93.2l-7.2-7.2M355.8 97.3l-7.2-7.2M355.8 101.4l-7.2-7.2M355.8 105.4l-7.2-7.2M355.8 109.3l-7.2-7.2M355.8 113.4l-7.2-7.2M355.8 117.4l-7.2-7.2M355.8 121.3l-7.2-7.2M355.8 125.4l-7.2-7.2M355.8 129.4l-7.2-7.2M355.8 133.5l-7.2-7.2M355.8 137.4l-7.2-7.2M355.8 141.4l-7.2-7.2M355.8 145.5l-7.2-7.2M355.8 149.4l-7.2-7.2M355.8 153.4l-7.2-7.2M355.3 157l-6.7-6.7M351.3 157l-2.7-2.8M352.5 157l3.3-3.3M348.6 157l7.2-7.2M348.6 153l7.2-7.2M348.6 148.9l7.2-7.2M348.6 145l7.2-7.2M348.6 141l7.2-7.2M348.6 136.9l7.2-7.2M348.6 133l7.2-7.2M348.6 129l7.2-7.2M348.6 124.9l7.2-7.2M348.6 120.8l7.2-7.2M348.6 117l7.2-7.2M348.6 112.9l7.2-7.2M348.6 108.8l7.2-7.2M348.6 105l7.2-7.2M348.6 100.9l7.2-7.2M348.6 96.8l7.2-7.2M348.6 92.7l7.2-7.2M348.6 88.9l7.2-7.2M348.6 84.8l7.2-7.2M348.6 80.7l7.2-7.2M348.6 76.9l7.2-7.2M348.6 72.8l6.3-6.5M348.6 68.7l2.4-2.4"/><path class="cls-20" d="M348.4 157h7.2V66.3h-7.2V157"/><path class="cls-15" d="M355.8 69.2l-3.1-2.9M355.8 73.3l-6.9-7M355.8 77.4l-7.2-7.2M355.8 81.2l-7.2-7.2M355.8 85.3l-7.2-7.2M355.8 89.4l-7.2-7.2M355.8 93.2l-7.2-7.2M355.8 97.3l-7.2-7.2M355.8 101.4l-7.2-7.2M355.8 105.4l-7.2-7.2M355.8 109.3l-7.2-7.2M355.8 113.4l-7.2-7.2M355.8 117.4l-7.2-7.2M355.8 121.3l-7.2-7.2M355.8 125.4l-7.2-7.2M355.8 129.4l-7.2-7.2M355.8 133.5l-7.2-7.2M355.8 137.4l-7.2-7.2M355.8 141.4l-7.2-7.2M355.8 145.5l-7.2-7.2M355.8 149.4l-7.2-7.2M355.8 153.4l-7.2-7.2M355.3 157l-6.7-6.7M351.3 157l-2.7-2.8M352.5 157l3.3-3.3M348.6 157l7.2-7.2M348.6 153l7.2-7.2M348.6 148.9l7.2-7.2M348.6 145l7.2-7.2M348.6 141l7.2-7.2M348.6 136.9l7.2-7.2M348.6 133l7.2-7.2M348.6 129l7.2-7.2M348.6 124.9l7.2-7.2M348.6 120.8l7.2-7.2M348.6 117l7.2-7.2M348.6 112.9l7.2-7.2M348.6 108.8l7.2-7.2M348.6 105l7.2-7.2M348.6 100.9l7.2-7.2M348.6 96.8l7.2-7.2M348.6 92.7l7.2-7.2M348.6 88.9l7.2-7.2M348.6 84.8l7.2-7.2M348.6 80.7l7.2-7.2M348.6 76.9l7.2-7.2M348.6 72.8l6.3-6.5M348.6 68.7l2.4-2.4"/><path class="cls-17" d="M355.6 157V66.3M348.4 157V66.3M355.6 66.3h-7.2M348.4 157V66.3M355.6 157V66.3"/><path class="cls-20" d="M93.3 97.5h5.5v257.1h-5.5V97.5"/><path class="cls-15" d="M99 101.1l-3.6-3.6M99 105.2l-5.5-5.5M99 109l-5.5-5.5M99 113.1l-5.5-5.5M99 117.2l-5.5-5.5M99 121l-5.5-5.5M99 125.1l-5.5-5.5M99 129.2l-5.5-5.5M99 133.3l-5.5-5.5M99 137.1l-5.5-5.5M99 141.2l-5.5-5.5M99 145.3l-5.5-5.5M99 149.1l-5.5-5.5M99 153.2l-5.5-5.5M99 157.3l-5.5-5.5M99 161.1l-5.5-5.5M99 165.2l-5.5-5.5M99 169.3l-5.5-5.5M99 173.4l-5.5-5.6M99 177.2l-5.5-5.5M99 181.3l-5.5-5.5M99 185.4l-5.5-5.6M99 189.2l-5.5-5.5M99 193.3l-5.5-5.5M99 197.4l-5.5-5.6M99 201.2l-5.5-5.5M99 205.3l-5.5-5.5M99 209.4l-5.5-5.6M99 213.4l-5.5-5.5M99 217.3l-5.5-5.5M99 221.4l-5.5-5.6M99 225.4l-5.5-5.5M99 229.3l-5.5-5.5M99 233.4l-5.5-5.6M99 237.4l-5.5-5.5M99 241.5l-5.5-5.5M99 245.4l-5.5-5.6M99 249.4l-5.5-5.5M99 253.5l-5.5-5.5M99 257.4l-5.5-5.6M99 261.4l-5.5-5.5M99 265.5l-5.5-5.5M99 269.4l-5.5-5.6M99 273.4l-5.5-5.5M99 277.5l-5.5-5.5M99 281.6l-5.5-5.5M99 285.4l-5.5-5.5M99 289.5l-5.5-5.5M99 293.6l-5.5-5.5M99 297.4l-5.5-5.5M99 301.5l-5.5-5.5M99 305.6l-5.5-5.5M99 309.4l-5.5-5.5M99 313.5l-5.5-5.5M99 317.6l-5.5-5.5M99 321.7l-5.5-5.5M99 325.5l-5.5-5.5M99 329.6l-5.5-5.5M99 333.7l-5.5-5.5M99 337.5l-5.5-5.5M99 341.6l-5.5-5.5M99 345.7l-5.5-5.5M99 349.8l-5.5-5.6M99 353.6l-5.5-5.5M95.9 354.6l-2.4-2.4M98.8 354.6h.2M94.7 354.6l4.3-4.1M93.5 351.9l5.5-5.5M93.5 347.8l5.5-5.5M93.5 344l5.5-5.5M93.5 339.9l5.5-5.5M93.5 335.8l5.5-5.5M93.5 332l5.5-5.5M93.5 327.9l5.5-5.5M93.5 323.8l5.5-5.5M93.5 320l5.5-5.5M93.5 315.9l5.5-5.5M93.5 311.8l5.5-5.5M93.5 307.8l5.5-5.6M93.5 303.9l5.5-5.5M93.5 299.8l5.5-5.5M93.5 295.8l5.5-5.6M93.5 291.9l5.5-5.5M93.5 287.8l5.5-5.5M93.5 283.8l5.5-5.6M93.5 279.9l5.5-5.5M93.5 275.8l5.5-5.5M93.5 271.8l5.5-5.6M93.5 267.7l5.5-5.5M93.5 263.8l5.5-5.5M93.5 259.8l5.5-5.6M93.5 255.7l5.5-5.5M93.5 251.8l5.5-5.5M93.5 247.8l5.5-5.6M93.5 243.7l5.5-5.5M93.5 239.6l5.5-5.5M93.5 235.8l5.5-5.6M93.5 231.7l5.5-5.5M93.5 227.6l5.5-5.5M93.5 223.8l5.5-5.6M93.5 219.7l5.5-5.5M93.5 215.6l5.5-5.5M93.5 211.8l5.5-5.6M93.5 207.7l5.5-5.5M93.5 203.6l5.5-5.5M93.5 199.5L99 194M93.5 195.7l5.5-5.5M93.5 191.6l5.5-5.5M93.5 187.5L99 182M93.5 183.7l5.5-5.5M93.5 179.6l5.5-5.5M93.5 175.5L99 170M93.5 171.7l5.5-5.5M93.5 167.6l5.5-5.5M93.5 163.5L99 158M93.5 159.4l5.5-5.5M93.5 155.6l5.5-5.5M93.5 151.5L99 146M93.5 147.4l5.5-5.5M93.5 143.6l5.5-5.5M93.5 139.5L99 134M93.5 135.4l5.5-5.5M93.5 131.6l5.5-5.5M93.5 127.5L99 122M93.5 123.4l5.5-5.5M93.5 119.4l5.5-5.6M93.5 115.5L99 110M93.5 111.4l5.5-5.5M93.5 107.4l5.5-5.6M93.5 103.5L99 98M93.5 99.4l1.7-1.9"/><path class="cls-20" d="M98.8 97.5h-5.5v257.1h5.5V97.5"/><path class="cls-15" d="M99 101.1l-3.6-3.6M99 105.2l-5.5-5.5M99 109l-5.5-5.5M99 113.1l-5.5-5.5M99 117.2l-5.5-5.5M99 121l-5.5-5.5M99 125.1l-5.5-5.5M99 129.2l-5.5-5.5M99 133.3l-5.5-5.5M99 137.1l-5.5-5.5M99 141.2l-5.5-5.5M99 145.3l-5.5-5.5M99 149.1l-5.5-5.5M99 153.2l-5.5-5.5M99 157.3l-5.5-5.5M99 161.1l-5.5-5.5M99 165.2l-5.5-5.5M99 169.3l-5.5-5.5M99 173.4l-5.5-5.6M99 177.2l-5.5-5.5M99 181.3l-5.5-5.5M99 185.4l-5.5-5.6M99 189.2l-5.5-5.5M99 193.3l-5.5-5.5M99 197.4l-5.5-5.6M99 201.2l-5.5-5.5M99 205.3l-5.5-5.5M99 209.4l-5.5-5.6M99 213.4l-5.5-5.5M99 217.3l-5.5-5.5M99 221.4l-5.5-5.6M99 225.4l-5.5-5.5M99 229.3l-5.5-5.5M99 233.4l-5.5-5.6M99 237.4l-5.5-5.5M99 241.5l-5.5-5.5M99 245.4l-5.5-5.6M99 249.4l-5.5-5.5M99 253.5l-5.5-5.5M99 257.4l-5.5-5.6M99 261.4l-5.5-5.5M99 265.5l-5.5-5.5M99 269.4l-5.5-5.6M99 273.4l-5.5-5.5M99 277.5l-5.5-5.5M99 281.6l-5.5-5.5M99 285.4l-5.5-5.5M99 289.5l-5.5-5.5M99 293.6l-5.5-5.5M99 297.4l-5.5-5.5M99 301.5l-5.5-5.5M99 305.6l-5.5-5.5M99 309.4l-5.5-5.5M99 313.5l-5.5-5.5M99 317.6l-5.5-5.5M99 321.7l-5.5-5.5M99 325.5l-5.5-5.5M99 329.6l-5.5-5.5M99 333.7l-5.5-5.5M99 337.5l-5.5-5.5M99 341.6l-5.5-5.5M99 345.7l-5.5-5.5M99 349.8l-5.5-5.6M99 353.6l-5.5-5.5M95.9 354.6l-2.4-2.4M98.8 354.6h.2M94.7 354.6l4.3-4.1M93.5 351.9l5.5-5.5M93.5 347.8l5.5-5.5M93.5 344l5.5-5.5M93.5 339.9l5.5-5.5M93.5 335.8l5.5-5.5M93.5 332l5.5-5.5M93.5 327.9l5.5-5.5M93.5 323.8l5.5-5.5M93.5 320l5.5-5.5M93.5 315.9l5.5-5.5M93.5 311.8l5.5-5.5M93.5 307.8l5.5-5.6M93.5 303.9l5.5-5.5M93.5 299.8l5.5-5.5M93.5 295.8l5.5-5.6M93.5 291.9l5.5-5.5M93.5 287.8l5.5-5.5M93.5 283.8l5.5-5.6M93.5 279.9l5.5-5.5M93.5 275.8l5.5-5.5M93.5 271.8l5.5-5.6M93.5 267.7l5.5-5.5M93.5 263.8l5.5-5.5M93.5 259.8l5.5-5.6M93.5 255.7l5.5-5.5M93.5 251.8l5.5-5.5M93.5 247.8l5.5-5.6M93.5 243.7l5.5-5.5M93.5 239.6l5.5-5.5M93.5 235.8l5.5-5.6M93.5 231.7l5.5-5.5M93.5 227.6l5.5-5.5M93.5 223.8l5.5-5.6M93.5 219.7l5.5-5.5M93.5 215.6l5.5-5.5M93.5 211.8l5.5-5.6M93.5 207.7l5.5-5.5M93.5 203.6l5.5-5.5M93.5 199.5L99 194M93.5 195.7l5.5-5.5M93.5 191.6l5.5-5.5M93.5 187.5L99 182M93.5 183.7l5.5-5.5M93.5 179.6l5.5-5.5M93.5 175.5L99 170M93.5 171.7l5.5-5.5M93.5 167.6l5.5-5.5M93.5 163.5L99 158M93.5 159.4l5.5-5.5M93.5 155.6l5.5-5.5M93.5 151.5L99 146M93.5 147.4l5.5-5.5M93.5 143.6l5.5-5.5M93.5 139.5L99 134M93.5 135.4l5.5-5.5M93.5 131.6l5.5-5.5M93.5 127.5L99 122M93.5 123.4l5.5-5.5M93.5 119.4l5.5-5.6M93.5 115.5L99 110M93.5 111.4l5.5-5.5M93.5 107.4l5.5-5.6M93.5 103.5L99 98M93.5 99.4l1.7-1.9"/><path class="cls-17" d="M93.3 97.5v257.1M98.8 97.5v253M98.8 97.5v253M93.3 97.5v257.1M93.3 71.4h5.5M98.8 350.5v4.1M98.8 354.6h-5.5"/><path class="cls-16" d="M93.3 73.3h5.5M93.3 95.8h5.5"/><path class="cls-17" d="M93.3 71.4h5.5M93.3 97.5h5.5"/><path class="cls-15" d="M93.1 73.2c-12.4 0-22.7 10.2-22.7 22.7M93.3 95.8H70.5"/><path class="cls-20" d="M98.8 350.5v4.1h5.7l4.4-4.1H98.8"/><path class="cls-15" d="M99 354.6l3.9-4.1M103.1 354.6l4.1-4.1"/><path class="cls-20" d="M98.8 350.5v4.1h5.7l4.4-4.1H98.8"/><path class="cls-15" d="M99 354.6l3.9-4.1M103.1 354.6l4.1-4.1"/><path class="cls-17" d="M108.9 350.5H98.8M104.5 354.6h-5.7M104.5 354.6h-5.7M108.9 350.5H98.8M98.8 354.6h-5.5M98.8 354.6v-4.1"/><path class="cls-20" d="M108.9 350.5l-4.4 4.1h4.4v-4.1"/><path class="cls-15" d="M107.2 354.6l1.9-1.7"/><path class="cls-20" d="M108.9 350.5l-4.4 4.1h4.4v-4.1"/><path class="cls-15" d="M107.2 354.6l1.9-1.7"/><path class="cls-17" d="M108.9 354.6v-4.1M108.9 354.6v-4.1M108.9 382.2h-4.4"/><path class="cls-16" d="M108.9 379.8h-4.4M108.9 357h-4.4"/><path class="cls-17" d="M108.9 382.2h-4.4M108.9 354.6h-4.4"/><path class="cls-15" d="M82 357.1c0 12.4 10.2 22.7 22.7 22.7M104.5 357H82"/><path class="cls-20" d="M366.9 197.8h-15.2l5.6 10.1h9.6v-10.1"/><path class="cls-15" d="M367.1 200.7l-3.1-2.9M367.1 204.8l-7.2-7M366.1 207.9l-10-10.1M362.1 207.9L352 197.8M358 207.9l-1.5-1.4M365.7 207.9l1.4-1.2M361.6 207.9l5.5-5.3M357.7 207.9l9.4-9.3M356.1 205.5l7.6-7.7M354.6 202.9l5.1-5.1M353.2 200.2l2.6-2.4"/><path class="cls-20" d="M366.9 197.8h-15.2l5.6 10.1h9.6v-10.1"/><path class="cls-15" d="M367.1 200.7l-3.1-2.9M367.1 204.8l-7.2-7M366.1 207.9l-10-10.1M362.1 207.9L352 197.8M358 207.9l-1.5-1.4M365.7 207.9l1.4-1.2M361.6 207.9l5.5-5.3M357.7 207.9l9.4-9.3M356.1 205.5l7.6-7.7M354.6 202.9l5.1-5.1M353.2 200.2l2.6-2.4"/><path class="cls-17" d="M357.3 207.9h9.6M351.7 197.8h15.2M351.7 197.8h15.2M357.3 207.9h9.6"/><path class="cls-16" d="M370 206.5h29.5"/><path class="cls-1" d="M370 197.8h29.5"/><path class="cls-16" d="M399 197.8h.5"/><path class="cls-20" d="M366.9 197.8h3.1v8.7h-3.1"/><path class="cls-15" d="M370.2 200l-2.1-2.2M370.2 203.8l-3.1-3.1M368.5 206.5l-1.4-1.7M367.1 206.5l3.1-2.9M367.1 202.6l3.1-3.1M367.1 198.6l.7-.8"/><path class="cls-20" d="M402.6 197.8h-3.1v8.7h3.1"/><path class="cls-15" d="M402.9 200.5l-2.9-2.7M402.9 204.6l-3.2-3.2M400.7 206.5l-1-1.2M399.7 206l3.2-3.1M399.7 202.2l3.2-3.2M399.7 198.1v-.3"/><path class="cls-17" d="M370 197.8v8.7M399.5 197.8v8.7M370 197.8v8.7M366.9 197.8h3.1M399.5 197.8v8.7M402.6 197.8h-3.1M366.9 207.9v-1.4M402.6 207.9v-1.4M366.9 197.8h3.1M402.6 197.8h-3.1M370 206.5h-3.1M399.5 206.5h3.1"/><path class="cls-20" d="M357.3 262.6l-5.6 9.9h58.1l-7.2-9.9h-45.3"/><path class="cls-15" d="M408.1 270.1l-7.4-7.5M406.7 272.5l-9.8-9.9M402.6 272.5l-9.8-9.9M398.5 272.5l-9.8-9.9M394.5 272.5l-9.9-9.9M390.6 272.5l-9.8-9.9M386.5 272.5l-9.8-9.9M382.5 272.5l-9.9-9.9M378.6 272.5l-9.8-9.9M374.5 272.5l-9.8-9.9M370.5 272.5l-9.9-9.9M366.4 272.5l-9.4-9.4M362.5 272.5l-6.9-6.7M358.5 272.5l-4.4-4.3M354.4 272.5l-1.7-1.7M409.3 272.5l.5-.3M405.3 272.5l2.6-2.7M401.4 272.5l4.8-5.1M397.3 272.5l7.2-7.2M393.3 272.5l9.6-9.6M389.4 272.5l9.9-9.9M385.3 272.5l9.9-9.9M381.3 272.5l9.8-9.9M377.4 272.5l9.9-9.9M373.3 272.5l9.9-9.9M369.3 272.5l9.8-9.9M365.2 272.5l9.8-9.9M361.3 272.5l9.9-9.9M357.3 272.5l9.8-9.9M353.2 272.5l9.8-9.9M355.1 266.5l4.1-3.9"/><path class="cls-20" d="M357.3 262.6l-5.6 9.9h58.1l-7.2-9.9h-45.3"/><path class="cls-15" d="M408.1 270.1l-7.4-7.5M406.7 272.5l-9.8-9.9M402.6 272.5l-9.8-9.9M398.5 272.5l-9.8-9.9M394.5 272.5l-9.9-9.9M390.6 272.5l-9.8-9.9M386.5 272.5l-9.8-9.9M382.5 272.5l-9.9-9.9M378.6 272.5l-9.8-9.9M374.5 272.5l-9.8-9.9M370.5 272.5l-9.9-9.9M366.4 272.5l-9.4-9.4M362.5 272.5l-6.9-6.7M358.5 272.5l-4.4-4.3M354.4 272.5l-1.7-1.7M409.3 272.5l.5-.3M405.3 272.5l2.6-2.7M401.4 272.5l4.8-5.1M397.3 272.5l7.2-7.2M393.3 272.5l9.6-9.6M389.4 272.5l9.9-9.9M385.3 272.5l9.9-9.9M381.3 272.5l9.8-9.9M377.4 272.5l9.9-9.9M373.3 272.5l9.9-9.9M369.3 272.5l9.8-9.9M365.2 272.5l9.8-9.9M361.3 272.5l9.9-9.9M357.3 272.5l9.8-9.9M353.2 272.5l9.8-9.9M355.1 266.5l4.1-3.9"/><path class="cls-17" d="M402.6 262.6h-45.3M409.8 272.5h-58.1M409.8 272.5h-58.1M402.6 262.6h-45.3"/><path class="cls-16" d="M99.3 271.3h17.5v78.2H99.3zM114.4 348.8h2.4M114.4 340.4h2.4M114.4 323.4h2.4M114.4 306.3h2.4M114.4 289.3h2.4"/><path class="cls-20" d="M104.3 290.2h9.3c.1 0 .3 0 .4.1.1 0 .2.1.3.2.1 0 .2.2.3.2 0 0 .2.2.2.3 0 .1.1.2.2.3 0 .1 0 .2.1.4v12c0 .1 0 .3-.1.4 0 .1-.1.2-.2.3 0 .1-.2.2-.2.3 0 0-.2.2-.3.2-.1 0-.2.1-.3.2-.1 0-.2 0-.4.1H103.9c-.1 0-.3 0-.4-.1-.1 0-.2-.1-.3-.2-.1 0-.2-.2-.3-.2 0 0-.2-.2-.2-.3 0-.1-.1-.2-.2-.3 0-.1 0-.2-.1-.4v-11.6-.4c0-.1 0-.3.1-.4 0-.1.1-.2.2-.3 0-.1.2-.2.2-.3 0 0 .2-.2.3-.2.1 0 .2-.1.3-.2s.2 0 .4-.1h.4"/><path class="cls-16" d="M104.3 290.2h9.3c.1 0 .3 0 .4.1.1 0 .2.1.3.2.1 0 .2.2.3.2 0 0 .2.2.2.3 0 .1.1.2.2.3 0 .1 0 .2.1.4v12c0 .1 0 .3-.1.4 0 .1-.1.2-.2.3 0 .1-.2.2-.2.3 0 0-.2.2-.3.2-.1 0-.2.1-.3.2-.1 0-.2 0-.4.1H103.9c-.1 0-.3 0-.4-.1-.1 0-.2-.1-.3-.2-.1 0-.2-.2-.3-.2 0 0-.2-.2-.2-.3 0-.1-.1-.2-.2-.3 0-.1 0-.2-.1-.4v-11.6-.4c0-.1 0-.3.1-.4 0-.1.1-.2.2-.3 0-.1.2-.2.2-.3 0 0 .2-.2.3-.2.1 0 .2-.1.3-.2s.2 0 .4-.1h.4"/><path class="cls-20" d="M106.7 297.8c0-.6-.5-1.1-1.1-1.1s-1.1.5-1.1 1.1.5 1.1 1.1 1.1 1.1-.5 1.1-1.1"/><path class="cls-16" d="M106.7 297.8c0-.6-.5-1.1-1.1-1.1s-1.1.5-1.1 1.1.5 1.1 1.1 1.1 1.1-.5 1.1-1.1"/><path class="cls-19" d="M100.7 323.8h14.6v15.8h-14.6z"/><path class="cls-16" d="M100.7 323.8h14.6v15.8h-14.6z"/><path class="cls-20" d="M113.4 335.8c0-1.6-1.3-2.9-2.9-2.9s-2.9 1.3-2.9 2.9 1.3 2.9 2.9 2.9 2.9-1.3 2.9-2.9"/><path class="cls-16" d="M113.4 335.8c0-1.6-1.3-2.9-2.9-2.9s-2.9 1.3-2.9 2.9 1.3 2.9 2.9 2.9 2.9-1.3 2.9-2.9"/><path class="cls-20" d="M106 336.8c0-1.2-1-2.2-2.2-2.2s-2.2 1-2.2 2.2 1 2.2 2.2 2.2 2.2-1 2.2-2.2"/><path class="cls-16" d="M106 336.8c0-1.2-1-2.2-2.2-2.2s-2.2 1-2.2 2.2 1 2.2 2.2 2.2 2.2-1 2.2-2.2"/><path class="cls-20" d="M112.7 328.3c0-1.3-1-2.3-2.2-2.3s-2.2 1-2.2 2.3 1 2.3 2.2 2.3 2.2-1 2.2-2.3"/><path class="cls-16" d="M112.7 328.3c0-1.3-1-2.3-2.2-2.3s-2.2 1-2.2 2.3 1 2.3 2.2 2.3 2.2-1 2.2-2.3"/><path class="cls-20" d="M106.9 328.5c0-1.5-1.3-2.8-2.9-2.8s-2.9 1.2-2.9 2.8 1.3 2.8 2.9 2.8 2.9-1.2 2.9-2.8"/><path class="cls-16" d="M106.9 328.5c0-1.5-1.3-2.8-2.9-2.8s-2.9 1.2-2.9 2.8 1.3 2.8 2.9 2.8 2.9-1.2 2.9-2.8"/><path class="cls-1" d="M109.3 271.3v78.2"/><path class="cls-16" d="M109.3 349v.5M119.2 270.6h17v.7h-17zM119.2 255.2h.7v15.4h-.7zM135.7 255.2h.5v15.4h-.5zM119.2 254.7h17v.5h-17zM153.3 270.6h17v.7h-17zM153.3 255.2h.5v15.4h-.5zM169.6 255.2h.7v15.4h-.7zM153.3 254.7h17v.5h-17zM170.3 270.6h2.4v.7h-2.4zM99.3 270.6h19.9v.7H99.3zM136.2 270.6h17v.7h-17zM136.2 255.2h.5v15.4h-.5zM152.8 255.2h.5v15.4h-.5zM136.2 254.7h17v.5h-17zM114.4 272.2h2.4"/><path class="cls-20" d="M93.3 249.4v4.4H34v-4.4h59.3"/><path class="cls-15" d="M34.2 253.5l3.9-4.1M38.1 253.8l4.3-4.4M42.4 253.8l4.3-4.4M46.7 253.8l4.3-4.4M50.8 253.8l4.3-4.4M55.1 253.8l4.3-4.4M59.4 253.8l4.3-4.4M63.5 253.8l4.3-4.4M67.8 253.8l4.3-4.4M72.1 253.8l4.4-4.4M76.2 253.8l4.3-4.4M80.5 253.8l4.4-4.4M84.9 253.8l4.3-4.4M89.2 253.8l4.3-4.4M93.3 253.8h.2"/><path class="cls-20" d="M93.3 253.8v-4.4H34v4.4h59.3"/><path class="cls-15" d="M34.2 253.5l3.9-4.1M38.1 253.8l4.3-4.4M42.4 253.8l4.3-4.4M46.7 253.8l4.3-4.4M50.8 253.8l4.3-4.4M55.1 253.8l4.3-4.4M59.4 253.8l4.3-4.4M63.5 253.8l4.3-4.4M67.8 253.8l4.3-4.4M72.1 253.8l4.4-4.4M76.2 253.8l4.3-4.4M80.5 253.8l4.4-4.4M84.9 253.8l4.3-4.4M89.2 253.8l4.3-4.4M93.3 253.8h.2"/><path class="cls-17" d="M93.3 249.4H34M93.3 253.8H34M93.3 253.8H34M93.3 249.4H34M93.3 249.4v4.4M7.3 253.8v-4.4"/><path class="cls-16" d="M31.8 249.4v4.4M9.3 249.4v4.4"/><path class="cls-17" d="M34 249.4v4.4M7.3 249.4v4.4"/><path class="cls-15" d="M31.9 249.5c0-12.4-10.2-22.7-22.7-22.7M9.3 249.4v-22.5"/><path class="cls-20" d="M93.3 194.2v4.4H34v-4.4h59.3"/><path class="cls-15" d="M34.2 198.3l3.9-4.1M38.1 198.6l4.3-4.4M42.4 198.6l4.3-4.4M46.5 198.6l4.3-4.4M50.8 198.6l4.3-4.4M55.1 198.6l4.3-4.4M59.2 198.6l4.3-4.4M63.5 198.6l4.3-4.4M67.8 198.6l4.3-4.4M72.1 198.6l4.4-4.4M76.2 198.6l4.3-4.4M80.5 198.6l4.4-4.4M84.9 198.6l4.3-4.4M88.9 198.6l4.4-4.4M93.3 198.6h.2"/><path class="cls-20" d="M93.3 198.6v-4.4H34v4.4h59.3"/><path class="cls-15" d="M34.2 198.3l3.9-4.1M38.1 198.6l4.3-4.4M42.4 198.6l4.3-4.4M46.5 198.6l4.3-4.4M50.8 198.6l4.3-4.4M55.1 198.6l4.3-4.4M59.2 198.6l4.3-4.4M63.5 198.6l4.3-4.4M67.8 198.6l4.3-4.4M72.1 198.6l4.4-4.4M76.2 198.6l4.3-4.4M80.5 198.6l4.4-4.4M84.9 198.6l4.3-4.4M88.9 198.6l4.4-4.4M93.3 198.6h.2"/><path class="cls-17" d="M93.3 194.2H34M93.3 198.6H34M93.3 198.6H34M93.3 194.2H34M93.3 194.2v4.4M7.3 198.6v-4.4"/><path class="cls-16" d="M31.8 194.2v4.4M9.3 194.2v4.4"/><path class="cls-17" d="M34 194.2v4.4M7.3 194.2v4.4"/><path class="cls-15" d="M9.2 221.1c12.4 0 22.7-10.2 22.7-22.7M9.3 198.6v22.5"/><path class="cls-20" d="M122 233.6c.9 1.3.9 3 0 4.3-1.5 1.9-3.8 2.9-6.2 2.9l-9-.3v-9.6l9-.3c2.4 0 4.7 1 6.2 2.9"/><path class="cls-16" d="M122 233.6c.9 1.3.9 3 0 4.3-1.5 1.9-3.8 2.9-6.2 2.9l-9-.3v-9.6l9-.3c2.4 0 4.7 1 6.2 2.9"/><path class="cls-20" d="M111.9 235.7c0-1 .3-2 1.1-2.8.7-.7 1.7-1.2 2.7-1.2 2.1 0 4.1.9 5.4 2.5.6.9.6 2 0 2.9-1.3 1.6-3.3 2.5-5.4 2.5-1 0-2-.4-2.7-1.2-.7-.7-1.1-1.8-1.1-2.8"/><path class="cls-16" d="M111.9 235.7c0-1 .3-2 1.1-2.8.7-.7 1.7-1.2 2.7-1.2 2.1 0 4.1.9 5.4 2.5.6.9.6 2 0 2.9-1.3 1.6-3.3 2.5-5.4 2.5-1 0-2-.4-2.7-1.2-.7-.7-1.1-1.8-1.1-2.8"/><path class="cls-20" d="M107.2 184.4h48v.1h.1l.1.1.1.1v20.7l-.1.1v.1h-.1l-.1.1H107l-.1-.1-.1-.1V184.6h.1v-.1h.1l.1-.1h.1"/><path class="cls-16" d="M107.2 184.4h48v.1h.1l.1.1.1.1v20.7l-.1.1v.1h-.1l-.1.1H107l-.1-.1-.1-.1V184.6h.1v-.1h.1l.1-.1h.1"/><path class="cls-20" d="M112.4 186.6h37.4c.4 0 .9 0 1.3.3.4.2.8.4 1.1.7.3.3.6.7.7 1.1.2.4.3.9.3 1.3v10.2c0 .4 0 .9-.3 1.3-.2.4-.4.8-.7 1.1-.3.3-.7.6-1.1.7-.4.2-.9.3-1.3.3h-37.4c-.4 0-.9 0-1.3-.3-.4-.2-.8-.4-1.1-.7-.3-.3-.6-.7-.7-1.1-.2-.4-.3-.9-.3-1.3V190c0-.4 0-.9.3-1.3.2-.4.4-.8.7-1.1.3-.3.7-.6 1.1-.7.4-.2.9-.3 1.3-.3"/><path class="cls-16" d="M112.4 186.6h37.4c.4 0 .9 0 1.3.3.4.2.8.4 1.1.7.3.3.6.7.7 1.1.2.4.3.9.3 1.3v10.2c0 .4 0 .9-.3 1.3-.2.4-.4.8-.7 1.1-.3.3-.7.6-1.1.7-.4.2-.9.3-1.3.3h-37.4c-.4 0-.9 0-1.3-.3-.4-.2-.8-.4-1.1-.7-.3-.3-.6-.7-.7-1.1-.2-.4-.3-.9-.3-1.3V190c0-.4 0-.9.3-1.3.2-.4.4-.8.7-1.1.3-.3.7-.6 1.1-.7.4-.2.9-.3 1.3-.3M106 248.7v-20.9"/><path class="cls-7" d="M106.7 248.7v-21.6"/><path class="cls-16" d="M104.5 248.7v-19.4M106 248.7v-20.9M106.7 248.7v-21.6M104.5 248.7v-19.4M102.1 227.8v-18.2"/><path class="cls-7" d="M102.9 227.1v-16.8"/><path class="cls-16" d="M100.7 229.3v-21.1M102.1 227.8v-18.2M102.9 227.1v-16.8M100.7 229.3v-21.1M106 209.6v-25.4"/><path class="cls-7" d="M106.7 210.3v-26.1"/><path class="cls-16" d="M104.5 208.2v-24M106 209.6v-25.4M106.7 210.3v-26.1M104.5 208.2v-24"/><path class="cls-20" d="M106.8 210.9h12.4c.1 0 .3.1.4.2.1.1.2.2.2.4V225.6c0 .1-.1.3-.2.4-.1.1-.2.2-.4.2h-12.4v-15.6"/><path class="cls-16" d="M106.8 210.9h12.4c.1 0 .3.1.4.2.1.1.2.2.2.4V225.6c0 .1-.1.3-.2.4-.1.1-.2.2-.4.2h-12.4v-15.6"/><path class="cls-14" d="M106.7 227.4h-3.8"/><path class="cls-4" d="M102.9 227.4v-17.1"/><path class="cls-14" d="M102.9 210.3h3.8"/><path class="cls-16" d="M102.1 209.6h3.9"/><path class="cls-7" d="M102.9 210.3h3.8"/><path class="cls-16" d="M100.7 208.2h3.8M102.1 209.6h3.9M102.9 210.3h3.8M100.7 208.2h3.8M106 227.8h-3.9"/><path class="cls-7" d="M106.7 227.1h-3.8"/><path class="cls-16" d="M104.5 229.3h-3.8M106 227.8h-3.9M106.7 227.1h-3.8M104.5 229.3h-3.8"/><path class="cls-7" d="M106.7 227.1v-16.8"/><path class="cls-20" d="M98.8 253.8h74.4l4.3-5.1H98.8v5.1"/><path class="cls-15" d="M99 252.6l3.6-3.9M101.9 253.8l5-5.1M106 253.8l5-5.1M110.3 253.8l5-5.1M114.6 253.8l5.1-5.1M118.9 253.8l5.1-5.1M123 253.8l5.1-5.1M127.3 253.8l5.1-5.1M131.7 253.8l5-5.1M135.7 253.8l5.1-5.1M140.1 253.8l5-5.1M144.4 253.8l5-5.1M148.7 253.8l5-5.1M152.8 253.8l5-5.1M157.1 253.8l5-5.1M161.4 253.8l5.1-5.1M165.5 253.8l5-5.1M169.8 253.8l5.1-5.1"/><path class="cls-20" d="M98.8 253.8h74.4l4.3-5.1H98.8v5.1"/><path class="cls-15" d="M99 252.6l3.6-3.9M101.9 253.8l5-5.1M106 253.8l5-5.1M110.3 253.8l5-5.1M114.6 253.8l5.1-5.1M118.9 253.8l5.1-5.1M123 253.8l5.1-5.1M127.3 253.8l5.1-5.1M131.7 253.8l5-5.1M135.7 253.8l5.1-5.1M140.1 253.8l5-5.1M144.4 253.8l5-5.1M148.7 253.8l5-5.1M152.8 253.8l5-5.1M157.1 253.8l5-5.1M161.4 253.8l5.1-5.1M165.5 253.8l5-5.1M169.8 253.8l5.1-5.1"/><path class="cls-17" d="M155.4 248.7H98.8M177.5 248.7h-17.8M173.2 253.8H98.8M98.8 248.7v5.1M173.2 253.8H98.8M155.4 248.7H98.8M177.5 248.7h-17.8"/><path class="cls-20" d="M159.7 179.8l-4.3 4.4v37.9h4.3v-42.3"/><path class="cls-15" d="M155.7 187.3l4.3-4.3M155.7 191.6l4.3-4.3M155.7 195.9l4.3-4.3M155.7 200l4.3-4.3M155.7 204.3l4.3-4.3M155.7 208.6l4.3-4.3M155.7 212.7l4.3-4.3M155.7 217l4.3-4.3M155.7 221.4l4.3-4.4M159 222.1l1-1"/><path class="cls-20" d="M159.7 179.8l-4.3 4.4v37.9h4.3v-42.3"/><path class="cls-15" d="M155.7 187.3l4.3-4.3M155.7 191.6l4.3-4.3M155.7 195.9l4.3-4.3M155.7 200l4.3-4.3M155.7 204.3l4.3-4.3M155.7 208.6l4.3-4.3M155.7 212.7l4.3-4.3M155.7 217l4.3-4.3M155.7 221.4l4.3-4.4M159 222.1l1-1"/><path class="cls-17" d="M159.7 222.1v-38.7M155.4 222.1v-37.9M155.4 222.1v-37.9M159.7 222.1v-38.7"/><path class="cls-1" d="M159.7 248.7v-26.6M155.4 248.7v-26.6"/><path class="cls-16" d="M159.7 246.8h-4.3M159.7 224.2h-4.3"/><path class="cls-17" d="M159.7 248.7h-4.3M159.7 222.1h-4.3"/><path class="cls-15" d="M182.4 246.8c0-12.4-10.2-22.7-22.7-22.7M159.7 246.8h22.8"/><path class="cls-20" d="M98.8 184.2h56.6l4.3-4.4H98.8v4.4"/><path class="cls-15" d="M99 180.1l.3-.3M99.3 184.2l4.3-4.4M103.3 184.2l4.4-4.4M107.7 184.2l4.3-4.4M112 184.2l4.3-4.4M116.3 184.2l4.3-4.4M120.4 184.2l4.3-4.4M124.7 184.2l4.3-4.4M129 184.2l4.3-4.4M133.1 184.2l4.3-4.4M137.4 184.2l4.3-4.4M141.7 184.2l4.4-4.4M145.8 184.2l4.3-4.4M150.1 184.2l4.4-4.4M154.5 184.2l4.3-4.4"/><path class="cls-20" d="M98.8 184.2h56.6l4.3-4.4H98.8v4.4"/><path class="cls-15" d="M99 180.1l.3-.3M99.3 184.2l4.3-4.4M103.3 184.2l4.4-4.4M107.7 184.2l4.3-4.4M112 184.2l4.3-4.4M116.3 184.2l4.3-4.4M120.4 184.2l4.3-4.4M124.7 184.2l4.3-4.4M129 184.2l4.3-4.4M133.1 184.2l4.3-4.4M137.4 184.2l4.3-4.4M141.7 184.2l4.4-4.4M145.8 184.2l4.3-4.4M150.1 184.2l4.4-4.4M154.5 184.2l4.3-4.4"/><path class="cls-17" d="M159.7 179.8H98.8M155.4 184.2H98.8M98.8 179.8v4.4M155.4 184.2H98.8M159.7 179.8H98.8"/><path class="cls-16" d="M177.3 189.4h.7V205h-.7zM160.9 189.4h16.3v.5h-16.3z"/><path class="cls-16" d="M160.5 189.4h.5v31.2h-.5zM177.3 188.2h.7v1.2h-.7zM177.3 205h.7v15.6h-.7z"/><path class="cls-16" d="M160.9 219.9h16.3v.7h-16.3zM160.2 220.6H178v.5h-17.8z"/><path class="cls-20" d="M177.5 248.7l-4.3 5.1v17h4.3v-22.1"/><path class="cls-15" d="M173.4 254.5l4.3-4.3M173.4 258.8l4.3-4.3M173.4 263.1l4.3-4.3M173.4 267.2l4.3-4.3M174.1 270.8l3.6-3.6"/><path class="cls-20" d="M177.5 248.7l-4.3 5.1v17h4.3v-22.1"/><path class="cls-15" d="M173.4 254.5l4.3-4.3M173.4 258.8l4.3-4.3M173.4 263.1l4.3-4.3M173.4 267.2l4.3-4.3M174.1 270.8l3.6-3.6"/><path class="cls-17" d="M177.5 270.8v-22.1M173.2 270.8v-17M173.2 270.8v-17M177.5 270.8v-22.1M177.5 270.8h-4.3"/><path class="cls-19" d="M162.4 187.5h10.1v2.4h-10.1z"/><path class="cls-16" d="M162.4 187.5h10.1v2.4h-10.1z"/><path class="cls-19" d="M162.1 189.9h10.6v.2h-10.6z"/><path class="cls-16" d="M162.1 189.9h10.6v.2h-10.6z"/><path class="cls-18" d="M163.1 190.2v8.4"/><path class="cls-3" d="M171.7 190.2l-.2 1.6-.5 1.5-.7 1.4-1.2 1.5-1.2.9-1.4 1-1.7.5h-1.7"/><path class="cls-20" d="M177.5 187.8v-8l-3.6 3.6v4.4h3.6"/><path class="cls-15" d="M174.1 185.8l3.6-3.6M176.3 187.8l1.4-1.2"/><path class="cls-20" d="M177.5 187.8v-8l-3.6 3.6v4.4h3.6"/><path class="cls-15" d="M174.1 185.8l3.6-3.6M176.3 187.8l1.4-1.2"/><path class="cls-17" d="M173.9 183.4v4.4M177.5 179.8v8M173.9 187.8h3.6M177.5 179.8v8M173.9 183.4v4.4"/><path class="cls-20" d="M159.7 179.8v3.6h14.2l3.6-3.6h-17.8"/><path class="cls-15" d="M160 183l3.1-3.2M163.6 183.4l3.6-3.6M167.9 183.4l3.6-3.6M172.2 183.4l3.6-3.6"/><path class="cls-20" d="M159.7 179.8v3.6h14.2l3.6-3.6h-17.8"/><path class="cls-15" d="M160 183l3.1-3.2M163.6 183.4l3.6-3.6M167.9 183.4l3.6-3.6M172.2 183.4l3.6-3.6"/><path class="cls-17" d="M177.5 179.8h-17.8M173.9 183.4h-14.2M173.9 183.4h-14.2M177.5 179.8h-17.8"/><path class="cls-1" d="M177.5 249.4v-27.8"/><path class="cls-16" d="M177.5 222.1v-.5M104.5 248.7h-2.8"/><path class="cls-20" d="M452.5 204.8l-6.9-7v7h6.9"/><path class="cls-15" d="M451.1 204.8l-5.3-5.5M447 204.8l-1.2-1.4M448.9 204.8l2-1.9M445.8 204.1l3.1-3.1M445.8 200l1-1"/><path class="cls-20" d="M452.5 204.8l-6.9-7v7h6.9"/><path class="cls-15" d="M451.1 204.8l-5.3-5.5M447 204.8l-1.2-1.4M448.9 204.8l2-1.9M445.8 204.1l3.1-3.1M445.8 200l1-1"/><path class="cls-17" d="M445.6 204.8h6.9M445.6 204.8h6.9"/><path class="cls-20" d="M409.8 197.8h-7.2l7.2 7v-7"/><path class="cls-15" d="M410.1 199.8l-2-2M410.1 203.6l-6-5.8M409.3 204.3l.8-.5M407.4 202.4l2.7-2.6M405.3 200.2l2.6-2.4M403.3 198.3l.5-.5"/><path class="cls-20" d="M409.8 197.8h-7.2l7.2 7v-7"/><path class="cls-15" d="M410.1 199.8l-2-2M410.1 203.6l-6-5.8M409.3 204.3l.8-.5M407.4 202.4l2.7-2.6M405.3 200.2l2.6-2.4M403.3 198.3l.5-.5"/><path class="cls-17" d="M402.6 197.8h7.2M402.6 197.8h7.2"/><path class="cls-16" d="M409.8 203.6h2.4v1.9h-2.4zM439.6 203.6h6v1.9h-6zM412.2 203.6h27.4v1.9h-27.4zM412.2 203.6h27.4"/><path class="cls-1" d="M412 197.8h27.8"/><path class="cls-16" d="M439.3 197.8h.5"/><path class="cls-20" d="M409.8 197.8h2.2v5.8h-2.2"/><path class="cls-15" d="M412.2 201.9l-2.1-2.1M410.1 203.6l2.1-1.9M410.1 199.8l1.9-2"/><path class="cls-20" d="M445.6 197.8h-5.8v5.8h5.8"/><path class="cls-15" d="M445.8 199.3l-1.7-1.5M445.8 203.4l-5.7-5.6M442 203.6l-1.9-1.9M442.2 203.6l3.6-3.6M440.1 201.9l3.8-4.1"/><path class="cls-17" d="M412 197.8v5.8M439.8 197.8v5.8M412 197.8v5.8M409.8 197.8h2.2M439.8 197.8v5.8M445.6 197.8h-5.8M409.8 204.8v-1.2M445.6 204.8v-1.2M409.8 197.8h2.2M445.6 197.8h-5.8M412 203.6h-2.2M439.8 203.6h5.8"/><path class="cls-16" d="M114.4 56.7l3.3-54.9h74.2l3.4 54.9"/><path class="cls-16" d="M112.7 56.7L116.3 0h77l3.6 56.7"/><path class="cls-20" d="M355.6 157l-3.6-1.2-3.6 1.2 2.6 1.7 4.6-1.7"/><path class="cls-15" d="M355.3 157l-.2-.2M352.5 158.2l-2-1.9M351 158.5l2.2-2.2M51.6 387.2v-1.9c0-.6-.2-1.2-.3-1.8-.1-.6-.3-1.2-.5-1.8l-.6-1.8c-.2-.6-.5-1.1-.8-1.7-.3-.5-.6-1.1-1-1.6-.3-.5-.7-1-1.1-1.5-.4-.5-.8-.9-1.3-1.4-.4-.4-.9-.9-1.4-1.3-.5-.4-1-.8-1.5-1.1-.5-.3-1-.7-1.6-1-.5-.3-1.1-.6-1.7-.8l-1.8-.6c-.6-.2-1.2-.3-1.8-.5s-1.2-.2-1.8-.3h-1.9M32.5 368.2v19M51.5 387.2l.2-1.4M52 384.3v-.7M52 383.6l.2-.7"/><path class="cls-10" d="M52.5 381.7l.4-1.7"/><path class="cls-15" d="M53.7 378.8l.2-.5M53.9 378.3l.5-.7M55.1 376.4l.7-1.2"/><path class="cls-12" d="M55.8 375.2l1.5-1.4"/><path class="cls-15" d="M57.3 373.8l.4-.5"/><path class="cls-5" d="M58.5 372.6l1.6-1.2"/><path class="cls-15" d="M61.1 370.6l.5-.2M61.6 370.4l.7-.2"/><path class="cls-11" d="M63.3 369.7l1.9-.7"/><path class="cls-15" d="M66.4 368.7h.5M66.9 368.7l.9-.2M69.3 368.2h1.2"/><path class="cls-6" d="M70.5 368.2v19"/><path class="cls-15" d="M70.5 386.7v.5M51.6 66.4v1.9c0 .6-.2 1.2-.3 1.8-.1.6-.3 1.2-.5 1.8l-.6 1.8c-.2.6-.5 1.1-.8 1.7-.3.5-.6 1.1-1 1.6-.3.5-.7 1-1.1 1.5-.4.5-.8.9-1.3 1.4-.4.4-.9.9-1.4 1.3-.5.4-1 .8-1.5 1.1-.5.3-1 .7-1.6 1-.5.3-1.1.6-1.7.8l-1.8.6c-.6.2-1.2.3-1.8.5l-1.8.3h-1.9M32.5 85.3v-19M51.5 66.3l.2 1.5M51.7 69.2l.3 1M52 70.2l.2.4"/><path class="cls-10" d="M52.5 71.8l.7 1.7"/><path class="cls-15" d="M53.7 74.7l.2.7M53.9 75.4l.5.5M55.1 77.1l.7 1.2"/><path class="cls-12" d="M55.8 78.3l1.5 1.5"/><path class="cls-15" d="M57.3 79.8l.4.4"/><path class="cls-5" d="M58.5 81l1.6 1.2"/><path class="cls-15" d="M61.1 82.9l.5.2M61.6 83.1l.7.3"/><path class="cls-11" d="M63.3 83.8l1.9.8"/><path class="cls-15" d="M66.4 84.8l.5.2M66.9 85h.9"/><path class="cls-9" d="M68.8 85.3h1.9"/><path class="cls-6" d="M70.7 85.3v-19"/><path class="cls-15" d="M70.7 66.8v-.5M308.4 66.4c0 11 9.1 20.1 20.1 20.1M328.5 86.5V66.3"/><path class="cls-6" d="M308.5 66.3l-.4 4.1-1.2 3.6-2 3.6-2.4 3.1-3.1 2.4-3.3 1.9-3.9 1-3.8.5"/><path class="cls-13" d="M288.4 86.5V66.3"/><path class="cls-15" d="M164.7 66.4c0 11 9.1 20.1 20.1 20.1M184.9 86.5V66.3"/><path class="cls-6" d="M164.8 66.3l-.5 4.1-1.2 3.6-1.7 3.6-2.6 3.1-3.1 2.4-3.4 1.9-3.8 1-3.9.5"/><path class="cls-13" d="M144.6 86.5V66.3"/><path class="cls-15" d="M144.9 387.2c0-11-9.1-20.1-20.1-20.1M124.7 367v20.2"/><path class="cls-6" d="M144.9 387.2l.4-3.8 1-3.9 1.9-3.3 2.7-3.2 2.8-2.4 3.6-1.9 3.9-1.2 3.8-.5"/><path class="cls-13" d="M165 367v20.2"/><path class="cls-15" d="M125.2 60.6h59.3v3.6h-59.3z"/><path class="cls-16" d="M203.7 225.2v1M203.7 226.2l-.3.7M203.4 226.9v.9M203.4 227.8l-.2.3M202.7 229.3l-.2.2M201.7 230.7l-.4.5M201.3 231.2l-.8.7M200.5 231.9l-.7.5M199.8 232.4l-.2.2M198.4 233.1l-.5.3M196.7 233.6l-.7.2M196 233.8h-.7M195.3 233.8h-1M194.3 233.8l-.5-.2M192.4 233.4l-.3-.3M190.9 232.6l-.4-.2M190.5 232.4l-.8-.5M189.7 231.9l-.4-.7M189.3 231.2l-.5-.5M187.8 229.5v-.2M187.1 228.1v-.3M187.1 227.8l-.2-.9M186.9 226.9l-.3-.7M186.6 226.2v-1M186.9 224v-.5M187.3 222.3v-.2M187.3 222.1l.3-.7M187.6 221.4l.5-.8M188.1 220.6l.4-.7M189.7 218.7h.3M190.9 217.8h.3M191.2 217.8l.7-.3M191.9 217.5l.7-.5M192.6 217l1-.2M195 216.8h.3M195.3 216.8h.2M196.7 216.8h.2M196.9 216.8l.8.2M197.7 217l.7.5M198.4 217.5l.7.3M199.1 217.8l.2.2M200.5 218.7l.3.3M201.7 219.9l.5.7M202.2 220.6l.5.8M202.7 221.4l.2.7M202.9 222.1l.3.2M203.7 223.8v.2"/></g><g id="Mbel"><path class="cls-2" d="M167.4 301H190v51.1h-22.6zM157.4 350.6v-12.7M165.9 350.6h-8.5M157.4 337.9h8.5M157.4 332.9v-12.8M165.9 332.9h-8.5M157.4 320.1h8.5M157.4 315.2v-12.8M165.9 315.2h-8.5M157.4 302.4h8.5M199.9 350.6v-12.7M191.4 350.6h8.5M199.9 337.9h-8.5M199.9 332.9v-12.8M191.4 332.9h8.5M199.9 320.1h-8.5M199.9 315.2v-12.8M191.4 315.2h8.5M199.9 302.4h-8.5M35.2 177.2h56.6v15.6H35.2zM35.2 106.4h56.6v45.4H35.2zM35.2 255.4h56.6v28.3H35.2zM28.9 333h7.7v11.3h-7.7zM9 315.9h19.9v45.4H9zM76.2 295.8h15.6v56.6H76.2zM136 117.7h14.2V146H136zM105 105.2h19c.1 0 .2.1.3.2 0 0 .1.2.2.3v25.5c0 .1-.1.2-.2.3 0 0-.2.1-.3.2h-19v-26.6M101.3 100.7H124c.1 0 .2.1.3.2 0 0 .1.2.2.3V104.6c0 .1-.1.2-.2.3 0 0-.2.1-.3.2h-23c-.1 0-.2-.1-.3-.2 0 0-.1-.2-.2-.3V101.5v-.3c0-.1.1-.2.2-.3s.2-.1.3-.2h.3M105 131.8h-3.7-.2H100.8l-.1.1-.1.1c-.1.1 0 0 0 .1V157.7c0 .1.1.2.2.3 0 0 .2.1.3.2s.2 0 .3 0h3.7M107.2 158.5v-53.3"/><path class="cls-2" d="M105 158.5h19c.1 0 .2-.1.3-.2 0 0 .1-.2.2-.3v-25.2-.3c0-.1-.1-.2-.2-.3 0 0-.2-.1-.3-.2h-19v26.6M101.3 163H124c.1 0 .2-.1.3-.2 0 0 .1-.2.2-.3V159.4v-.3c0-.1-.1-.2-.2-.3 0 0-.2-.1-.3-.2h-23c-.1 0-.2.1-.3.2 0 0-.1.2-.2.3V162.5c0 .1.1.2.2.3 0 0 .2.1.3.2s.2 0 .3 0M105 131.8h-3.7-.2-.2-.1l-.1-.1-.1-.1v-.1-.2V106.2v-.3c0-.1.1-.2.2-.3s.2-.1.3-.2h4M146.7 158.5c1.3 3.8 2.9 7.4 4.8 11 .4.8 1.4 1.3 2.3 1.3 3.2-.3 6.3-1.4 8.9-3.4.8-.6 1.1-1.5.9-2.5-.9-3.9-2.2-7.7-3.7-11.4h-.1c-.7 0-1.4.2-2 .4-3.1 1-6.2 2.2-9.2 3.5-.6.3-1.2.6-1.8 1"/><path class="cls-2" d="M146.7 159.6c-.2.3-.3.6-.3 1-.2 1.5 0 3.1.6 4.5.8 1.9 1.7 3.7 2.9 5.4.8 1.2 1.7 2.4 2.8 3.3.6.6 1.5.8 2.3.7 3.4-.4 6.6-1.7 9.4-3.6.7-.5 1.2-1.2 1.3-2.1.2-1.5.1-2.9 0-4.4-.3-2-.8-4-1.5-6-.5-1.4-1.4-2.7-2.5-3.8-.3-.2-.6-.4-.9-.5M220.9 98.7h15.6v56.9h-15.6zM318.9 99h28.3v56.6h-28.3zM270.9 128.2h11.5v7.7h-11.5zM254.1 135.9h45.1v19.7h-45.1z"/><path class="cls-15" d="M200.3 98.7h10.8v56.9h-10.8z"/></g><g id="Text"><path d="M123.7 13c1.1 0 1.7.5 1.7 1.4s-.1.6-.3.9c-.1.2-.3.2-.5.3.3 0 .4.1.6.2.3.2.4.6.4 1s-.2.9-.6 1.2c-.3.2-.7.3-1.3.3h-1.5V13h1.5zm-.8 2.4h.7c.4 0 .7 0 .9-.2.2-.2.3-.4.3-.7s-.2-.6-.4-.8c-.2 0-.4-.1-.9-.1h-.6v1.8zm0 2.4h.7c.6 0 .8 0 1-.2.3-.1.4-.4.4-.8 0-.6-.4-.9-1.2-.9h-.8v1.8zM129.6 14.6h.6v3.7h-.6v-.7c-.4.6-.8.8-1.3.8-1 0-1.7-.8-1.7-1.9s.7-1.9 1.8-1.9 1 .2 1.3.7v-.6zm-2.1.9c-.2.3-.3.6-.3 1 0 .8.5 1.4 1.2 1.4s1.3-.6 1.3-1.4-.5-1.4-1.2-1.4-.7.1-.9.4zM131.5 18.3V13h.6v5.3h-.6zM134.1 18.3h-.6V13h.6v3.3l1.5-1.6h.8l-1.6 1.8 1.6 1.9h-.8l-1.5-1.6v1.6zM140.5 16.5c0 1.1-.8 1.9-1.9 1.9s-1.9-.8-1.9-1.9.8-1.9 1.9-1.9 1.9.8 1.9 1.9zm-3.1 0c0 .8.5 1.4 1.3 1.4s1.2-.6 1.2-1.4-.5-1.4-1.2-1.4-1.3.6-1.3 1.4zM142.2 14.6v.5c.3-.4.6-.6 1.1-.6s.6.1.9.3c.2.2.3.5.3 1v2.5h-.6v-2.4c0-.3 0-.5-.1-.6-.1-.2-.3-.2-.6-.2s-.5.1-.7.3c-.2.2-.2.4-.2.7v2.2h-.6v-3.7h.6zM123.1 24.2c.2 0 .3-.1.5-.1.9 0 1.6.7 1.6 1.6s-.8 1.7-1.7 1.7-1.7-.8-1.7-1.7.1-.7.4-1.2l1.5-2.5h.7l-1.4 2.1zm-.7 1.5c0 .6.5 1.1 1.1 1.1s1.1-.5 1.1-1.1-.5-1.1-1.1-1.1-1.1.5-1.1 1.1zM127 27c0 .2-.2.4-.4.4s-.4-.2-.4-.4.2-.4.4-.4.4.2.4.4zM131.3 25.7c0 .6-.1 1-.4 1.2-.3.3-.7.4-1.2.4s-1-.2-1.2-.5c-.3-.3-.4-.6-.4-1.4v-1.8c0-.7 0-1 .3-1.3.3-.3.7-.5 1.2-.5s.9.1 1.2.4c.3.3.4.6.4 1.2v2.1zm-2.5-.1c0 .6 0 .7.2.9.2.2.5.3.8.3s.6-.1.8-.4c.1-.2.2-.4.2-.8v-2c0-.4 0-.6-.3-.8-.2-.2-.4-.2-.7-.2s-.6.1-.8.4c-.1.2-.2.4-.2.8v1.8zM134.7 23.6v.5c.3-.4.6-.6 1-.6s.8.2 1 .7c.3-.5.6-.7 1.2-.7s.7.1.9.4c.2.2.2.4.2 1v2.4h-.6v-2.2c0-.4 0-.6-.1-.7-.1-.2-.4-.3-.6-.3-.5 0-.8.4-.8 1v2.2h-.6v-2.2c0-.4 0-.5-.1-.7-.1-.2-.3-.3-.6-.3-.5 0-.9.4-.9 1v2.2h-.6v-3.7h.6zM142.3 24.8v.4h-2l1.2-1.6c.3-.5.4-.6.4-.8 0-.3-.2-.4-.5-.4s-.5.2-.5.6h-.4c0-.6.4-1 1-1s1 .3 1 .8-.1.5-.4.9l-.8 1.1h1.1z"/><g><path d="M185.2 197h2.1v.6h-2.1v1.8h2.1v.6h-2.8v-5.3h2.8v.6h-2.1v1.8zM189.1 196.3v.5c.3-.4.6-.6 1.1-.6s.6.1.9.3c.2.2.3.5.3 1v2.5h-.6v-2.4c0-.3 0-.5-.1-.6-.1-.2-.3-.2-.6-.2s-.5.1-.7.3c-.2.2-.2.4-.2.7v2.2h-.6v-3.7h.6zM193.3 199.2c0 .2 0 .2.3.2h.3v.5h-.6c-.4 0-.6-.2-.6-.6v-2.6h-.5v-.5h.5V195h.6v1.2h.6v.5h-.6v2.4zM195.5 196.3v.6c.1-.3.2-.4.3-.5.2-.1.4-.2.7-.2h.1v.6h-.2c-.3 0-.6.2-.8.4-.2.2-.2.4-.2.9v1.9h-.6v-3.7h.6zM198 198.3c0 .3 0 .5.2.7.2.3.6.5 1 .5s.9-.2 1.1-.6l.5.2c-.3.6-.9 1-1.6 1-1.1 0-1.9-.8-1.9-1.9s.8-1.9 1.9-1.9 1.9.8 1.9 1.9v.2H198zm2.4-.4c0-.3 0-.4-.2-.6-.2-.3-.6-.5-1-.5s-.8.2-1 .5c-.1.2-.2.3-.2.6h2.4zm-.2-3.2l-.9 1.1h-.4l.7-1.1h.7zM202.5 198.3c0 .3 0 .5.2.7.2.3.6.5 1 .5s.9-.2 1.1-.6l.5.2c-.3.6-.9 1-1.6 1-1.1 0-1.9-.8-1.9-1.9s.8-1.9 1.9-1.9 1.9.8 1.9 1.9v.2h-3.1zm2.4-.4c0-.3 0-.4-.2-.6-.2-.3-.6-.5-1-.5s-.8.2-1 .5c-.1.2-.2.3-.2.6h2.4zM186.9 204.3h-1.7v1.4c.3-.1.5-.2.8-.2.9 0 1.6.7 1.6 1.7s-.8 1.8-1.8 1.8-1.3-.4-1.6-1.1l.6-.2c.1.2.2.3.3.4.2.2.5.3.8.3.6 0 1.1-.5 1.1-1.2s-.5-1.1-1.2-1.1-.8.2-1.2.5v-3h2.3v.6zM189.4 208.6c0 .2-.2.4-.4.4s-.4-.2-.4-.4.2-.4.4-.4.4.2.4.4zM193.5 208.4v.6h-3l1.9-2.7c.5-.8.7-1 .7-1.3 0-.5-.4-.8-.9-.8s-.7.2-.8.4v.6h-.6c0-1 .6-1.6 1.5-1.6s1.5.5 1.5 1.3-.2.8-.6 1.5l-1.4 2h1.9zM199.5 205.3v.5c.3-.4.6-.6 1-.6s.8.2 1 .7c.3-.5.6-.7 1.2-.7s.7.1.9.4c.2.2.2.4.2 1v2.4h-.6v-2.2c0-.4 0-.6-.1-.7-.1-.2-.4-.3-.6-.3-.5 0-.8.4-.8 1v2.2h-.6v-2.2c0-.4 0-.5-.1-.7-.1-.2-.3-.3-.6-.3-.5 0-.9.4-.9 1v2.2h-.6v-3.7h.6zM207.1 206.5v.4h-2l1.2-1.6c.3-.5.4-.6.4-.8 0-.3-.2-.4-.5-.4s-.5.2-.5.6h-.4c0-.6.4-1 1-1s1 .3 1 .8-.1.5-.4.9l-.8 1.1h1.1z"/></g><g><path d="M166 97.6h.7l-1.6 5.3h-.6l-1.2-4.2-1.2 4.2h-.6l-1.6-5.3h.7l1.2 4.1 1.2-4.1h.6l1.1 4.1 1.2-4.1zM170.8 101.1c0 1.1-.8 1.9-1.9 1.9s-1.9-.8-1.9-1.9.8-1.9 1.9-1.9 1.9.8 1.9 1.9zm-3.1 0c0 .8.5 1.4 1.3 1.4s1.2-.6 1.2-1.4-.5-1.4-1.2-1.4-1.3.6-1.3 1.4zM172.5 99.8c.3-.4.7-.6 1.1-.6s.7.1.9.3c.2.2.3.5.3 1v2.5h-.6v-2.4c0-.5-.2-.8-.7-.8s-.5.1-.7.3c-.2.2-.2.4-.2.7v2.2h-.6v-5.3h.6v2.2zM176.7 99.2v.5c.3-.4.6-.6 1.1-.6s.6.1.9.3c.2.2.3.5.3 1v2.5h-.6v-2.4c0-.3 0-.5-.1-.6-.1-.2-.3-.2-.6-.2s-.5.1-.7.3c-.2.2-.2.4-.2.7v2.2h-.6v-3.7h.6zM180.7 101.3c0 .3 0 .5.2.7.2.3.6.5 1 .5s.9-.2 1.1-.6l.5.2c-.3.6-.9 1-1.6 1-1.1 0-1.9-.8-1.9-1.9s.8-1.9 1.9-1.9 1.9.8 1.9 1.9v.2h-3.1zm2.4-.4c0-.3 0-.4-.2-.6-.2-.3-.6-.5-1-.5s-.8.2-1 .5c-.1.2-.2.3-.2.6h2.4zM185.5 99.2v.5c.3-.4.6-.6 1.1-.6s.6.1.9.3c.2.2.3.5.3 1v2.5h-.6v-2.4c0-.3 0-.5-.1-.6-.1-.2-.3-.2-.6-.2s-.5.1-.7.3c-.2.2-.2.4-.2.7v2.2h-.6v-3.7h.6zM160.7 108.4v-.6l1.8-1.2v5.4h-.6v-4.4l-1.2.8zM166.7 107.2H165v1.4c.3-.1.5-.2.8-.2.9 0 1.6.7 1.6 1.7s-.8 1.8-1.8 1.8-1.3-.4-1.6-1.1l.6-.2c.1.2.2.3.3.4.2.2.5.3.8.3.6 0 1.1-.5 1.1-1.2s-.5-1.1-1.2-1.1-.8.2-1.2.5v-3h2.3v.6zM169.3 111.6c0 .2-.2.4-.4.4s-.4-.2-.4-.4.2-.4.4-.4.4.2.4.4zM171.6 108.8c.2 0 .3-.1.5-.1.9 0 1.6.7 1.6 1.6s-.8 1.7-1.7 1.7-1.7-.8-1.7-1.7.1-.7.4-1.2l1.5-2.5h.7l-1.4 2.1zm-.7 1.5c0 .6.5 1.1 1.1 1.1s1.1-.5 1.1-1.1-.5-1.1-1.1-1.1-1.1.5-1.1 1.1zM176.9 108.2v.5c.3-.4.6-.6 1-.6s.8.2 1 .7c.3-.5.6-.7 1.2-.7s.7.1.9.4c.2.2.2.4.2 1v2.4h-.6v-2.2c0-.4 0-.6-.1-.7-.1-.2-.4-.3-.6-.3-.5 0-.8.4-.8 1v2.2h-.6v-2.2c0-.4 0-.5-.1-.7-.1-.2-.3-.3-.6-.3-.5 0-.9.4-.9 1v2.2h-.6v-3.7h.6zM184.5 109.4v.4h-2l1.2-1.6c.3-.5.4-.6.4-.8 0-.3-.2-.4-.5-.4s-.5.2-.5.6h-.4c0-.6.4-1 1-1s1 .3 1 .8-.1.5-.4.9l-.8 1.1h1.1z"/></g><g><path d="M43.8 302.9v.6H40l3-4.8h-2.7v-.6h3.8l-3 4.8h2.7zM45.6 298.7c0 .2-.2.4-.4.4s-.4-.2-.4-.4.2-.4.4-.4.4.2.4.4zm0 4.7H45v-3.7h.6v3.7zM47.5 299.7v.5c.3-.4.6-.6 1-.6s.8.2 1 .7c.3-.5.6-.7 1.2-.7s.7.1.9.4c.2.2.2.4.2 1v2.4h-.6v-2.2c0-.4 0-.6-.1-.7-.1-.2-.4-.3-.6-.3-.5 0-.8.4-.8 1v2.2h-.6v-2.2c0-.4 0-.5-.1-.7-.1-.2-.3-.3-.6-.3-.5 0-.9.4-.9 1v2.2h-.6v-3.7h.6zM53.8 299.7v.5c.3-.4.6-.6 1-.6s.8.2 1 .7c.3-.5.6-.7 1.2-.7s.7.1.9.4c.2.2.2.4.2 1v2.4h-.6v-2.2c0-.4 0-.6-.1-.7-.1-.2-.4-.3-.6-.3-.5 0-.8.4-.8 1v2.2h-.6v-2.2c0-.4 0-.5-.1-.7-.1-.2-.3-.3-.6-.3-.5 0-.9.4-.9 1v2.2h-.6v-3.7h.6zM59.9 301.8c0 .3 0 .5.2.7.2.3.6.5 1 .5s.9-.2 1.1-.6l.5.2c-.3.6-.9 1-1.6 1-1.1 0-1.9-.8-1.9-1.9s.8-1.9 1.9-1.9 1.9.8 1.9 1.9v.2h-3.1zm2.4-.4c0-.3 0-.4-.2-.6-.2-.3-.6-.5-1-.5s-.8.2-1 .5c-.1.2-.2.3-.2.6h2.4zM64.7 299.7v.6c.1-.3.2-.4.3-.5.2-.1.4-.2.7-.2h.1v.6h-.2c-.3 0-.6.2-.8.4-.2.2-.2.4-.2.9v1.9H64v-3.7h.6zM40.8 308.8v-.6l1.8-1.2v5.4H42V308l-1.2.8zM44 311.2v-.5l2.8-3.7v3.6h.6v.6h-.6v1.2h-.6v-1.2h-2.1zm2.1-2.6l-1.5 2h1.5v-2zM49.2 312.1c0 .2-.2.4-.4.4s-.4-.2-.4-.4.2-.4.4-.4.4.2.4.4zM53.2 311.8v.6h-3l1.9-2.7c.5-.8.7-1 .7-1.3 0-.5-.4-.8-.9-.8s-.7.2-.8.4v.6h-.6c0-1 .6-1.6 1.5-1.6s1.5.5 1.5 1.3-.2.8-.6 1.5l-1.4 2h1.9zM56.8 308.7v.5c.3-.4.6-.6 1-.6s.8.2 1 .7c.3-.5.6-.7 1.2-.7s.7.1.9.4c.2.2.2.4.2 1v2.4h-.6v-2.2c0-.4 0-.6-.1-.7-.1-.2-.4-.3-.6-.3-.5 0-.8.4-.8 1v2.2h-.6v-2.2c0-.4 0-.5-.1-.7-.1-.2-.3-.3-.6-.3-.5 0-.9.4-.9 1v2.2h-.6v-3.7h.6zM64.4 309.9v.4h-2l1.2-1.6c.3-.5.4-.6.4-.8 0-.3-.2-.4-.5-.4s-.5.2-.5.6h-.4c0-.6.4-1 1-1s1 .3 1 .8-.1.5-.4.9l-.8 1.1h1.1z"/></g><g><path d="M44 126.7v.6h-3.8l3-4.8h-2.7v-.6h3.8l-3 4.8H44zM45.9 122.6c0 .2-.2.4-.4.4s-.4-.2-.4-.4.2-.4.4-.4.4.2.4.4zm0 4.7h-.6v-3.7h.6v3.7zM47.8 123.6v.5c.3-.4.6-.6 1-.6s.8.2 1 .7c.3-.5.6-.7 1.2-.7s.7.1.9.4c.2.2.2.4.2 1v2.4h-.6v-2.2c0-.4 0-.6-.1-.7-.1-.2-.4-.3-.6-.3-.5 0-.8.4-.8 1v2.2h-.6v-2.2c0-.4 0-.5-.1-.7-.1-.2-.3-.3-.6-.3-.5 0-.9.4-.9 1v2.2h-.6v-3.7h.6zM54.1 123.6v.5c.3-.4.6-.6 1-.6s.8.2 1 .7c.3-.5.6-.7 1.2-.7s.7.1.9.4c.2.2.2.4.2 1v2.4h-.6v-2.2c0-.4 0-.6-.1-.7-.1-.2-.4-.3-.6-.3-.5 0-.8.4-.8 1v2.2h-.6v-2.2c0-.4 0-.5-.1-.7-.1-.2-.3-.3-.6-.3-.5 0-.9.4-.9 1v2.2h-.6v-3.7h.6zM60.2 125.6c0 .3 0 .5.2.7.2.3.6.5 1 .5s.9-.2 1.1-.6l.5.2c-.3.6-.9 1-1.6 1-1.1 0-1.9-.8-1.9-1.9s.8-1.9 1.9-1.9 1.9.8 1.9 1.9v.2h-3.1zm2.4-.4c0-.3 0-.4-.2-.6-.2-.3-.6-.5-1-.5s-.8.2-1 .5c-.1.2-.2.3-.2.6h2.4zM64.9 123.6v.6c.1-.3.2-.4.3-.5.2-.1.4-.2.7-.2h.1v.6h-.2c-.3 0-.6.2-.8.4-.2.2-.2.4-.2.9v1.9h-.6v-3.7h.6zM41 132.7v-.6l1.8-1.2v5.4h-.6v-4.4l-1.2.8zM44.5 131.6v-.6h3l-1.6 2c.9 0 1.6.7 1.6 1.6s-.8 1.7-1.8 1.7-1.4-.5-1.6-1.3h.6c.1.4.5.7 1 .7s1.2-.5 1.2-1.1-.5-1.1-1.2-1.1-.4 0-.6.2l-.3-.2 1.5-1.9h-1.9zM49.4 135.9c0 .2-.2.4-.4.4s-.4-.2-.4-.4.2-.4.4-.4.4.2.4.4zM53.5 135.7v.6h-3l1.9-2.7c.5-.8.7-1 .7-1.3 0-.5-.4-.8-.9-.8s-.7.2-.8.4v.6h-.6c0-1 .6-1.6 1.5-1.6s1.5.5 1.5 1.3-.2.8-.6 1.5l-1.4 2h1.9zM57.1 132.6v.5c.3-.4.6-.6 1-.6s.8.2 1 .7c.3-.5.6-.7 1.2-.7s.7.1.9.4c.2.2.2.4.2 1v2.4h-.6v-2.2c0-.4 0-.6-.1-.7-.1-.2-.4-.3-.6-.3-.5 0-.8.4-.8 1v2.2h-.6v-2.2c0-.4 0-.5-.1-.7-.1-.2-.3-.3-.6-.3-.5 0-.9.4-.9 1v2.2h-.6v-3.7h.6zM64.7 133.8v.4h-2l1.2-1.6c.3-.5.4-.6.4-.8 0-.3-.2-.4-.5-.4s-.5.2-.5.6h-.4c0-.6.4-1 1-1s1 .3 1 .8-.1.5-.4.9l-.8 1.1h1.1z"/></g><g><path d="M270.2 102.8v.6h-3.8l3-4.8h-2.7V98h3.8l-3 4.8h2.7zM272.1 98.6c0 .2-.2.4-.4.4s-.4-.2-.4-.4.2-.4.4-.4.4.2.4.4zm0 4.7h-.6v-3.7h.6v3.7zM273.9 99.7v.5c.3-.4.6-.6 1-.6s.8.2 1 .7c.3-.5.6-.7 1.2-.7s.7.1.9.4c.2.2.2.4.2 1v2.4h-.6v-2.2c0-.4 0-.6-.1-.7-.1-.2-.4-.3-.6-.3-.5 0-.8.4-.8 1v2.2h-.6v-2.2c0-.4 0-.5-.1-.7-.1-.2-.3-.3-.6-.3-.5 0-.9.4-.9 1v2.2h-.6v-3.7h.6zM280.3 99.7v.5c.3-.4.6-.6 1-.6s.8.2 1 .7c.3-.5.6-.7 1.2-.7s.7.1.9.4c.2.2.2.4.2 1v2.4h-.6v-2.2c0-.4 0-.6-.1-.7-.1-.2-.4-.3-.6-.3-.5 0-.8.4-.8 1v2.2h-.6v-2.2c0-.4 0-.5-.1-.7-.1-.2-.3-.3-.6-.3-.5 0-.9.4-.9 1v2.2h-.6v-3.7h.6zM286.4 101.7c0 .3 0 .5.2.7.2.3.6.5 1 .5s.9-.2 1.1-.6l.5.2c-.3.6-.9 1-1.6 1-1.1 0-1.9-.8-1.9-1.9s.8-1.9 1.9-1.9 1.9.8 1.9 1.9v.2h-3.1zm2.4-.4c0-.3 0-.4-.2-.6-.2-.3-.6-.5-1-.5s-.8.2-1 .5c-.1.2-.2.3-.2.6h2.4zM291.1 99.7v.6c.1-.3.2-.4.3-.5.2-.1.4-.2.7-.2h.1v.6h-.2c-.3 0-.6.2-.8.4-.2.2-.2.4-.2.9v1.9h-.6v-3.7h.6zM267.2 108.8v-.6l1.8-1.2v5.4h-.6V108l-1.2.8zM270.7 107.7v-.6h3l-1.6 2c.9 0 1.6.7 1.6 1.6s-.8 1.7-1.8 1.7-1.4-.5-1.6-1.3h.6c.1.4.5.7 1 .7s1.2-.5 1.2-1.1-.5-1.1-1.2-1.1-.4 0-.6.2l-.3-.2 1.5-1.9h-1.9zM275.6 112c0 .2-.2.4-.4.4s-.4-.2-.4-.4.2-.4.4-.4.4.2.4.4zM278.4 110.2c-.2 0-.3.1-.5.1-.9 0-1.6-.7-1.6-1.6s.8-1.7 1.7-1.7 1.7.7 1.7 1.7-.1.7-.4 1.2l-1.5 2.5h-.7l1.3-2.1zm-1.5-1.5c0 .6.5 1.1 1.1 1.1s1.1-.5 1.1-1.1-.5-1.1-1-1.1-1.1.5-1.1 1.1zM282.9 108.7v.5c.3-.4.6-.6 1-.6s.8.2 1 .7c.3-.5.6-.7 1.2-.7s.7.1.9.4c.2.2.2.4.2 1v2.4h-.6v-2.2c0-.4 0-.6-.1-.7-.1-.2-.4-.3-.6-.3-.5 0-.8.4-.8 1v2.2h-.6v-2.2c0-.4 0-.5-.1-.7-.1-.2-.3-.3-.6-.3-.5 0-.9.4-.9 1v2.2h-.6v-3.7h.6zM290.5 109.9v.4h-2l1.2-1.6c.3-.5.4-.6.4-.8 0-.3-.2-.4-.5-.4s-.5.2-.5.6h-.4c0-.6.4-1 1-1s1 .3 1 .8-.1.5-.4.9l-.8 1.1h1.1z"/></g><g><path d="M132.7 288.4h-.7v-5.3h.7v2.5l2.1-2.5h.8l-2.2 2.6 2.2 2.7h-.9l-2-2.5v2.5zM139.7 286.6c0 1.1-.8 1.9-1.9 1.9s-1.9-.8-1.9-1.9.8-1.9 1.9-1.9 1.9.8 1.9 1.9zm-3.1 0c0 .8.5 1.4 1.3 1.4s1.2-.6 1.2-1.4-.5-1.4-1.2-1.4-1.3.6-1.3 1.4zM143.8 287.9c-.4.4-.8.5-1.4.5-1.1 0-1.8-.8-1.8-1.9s.8-1.9 1.8-1.9 1 .2 1.3.6l-.4.4c-.3-.3-.6-.4-.9-.4-.7 0-1.2.6-1.2 1.4s.5 1.4 1.2 1.4.6-.1.9-.4l.4.4zM145.3 285.2c.3-.4.7-.6 1.1-.6s.7.1.9.3c.2.2.3.5.3 1v2.5h-.6V286c0-.5-.2-.8-.7-.8s-.5.1-.7.3c-.2.2-.2.4-.2.7v2.2h-.6v-5.3h.6v2.2zM149.3 286.8c0 .3 0 .5.2.7.2.3.6.5 1 .5s.9-.2 1.1-.6l.5.2c-.3.6-.9 1-1.6 1-1.1 0-1.9-.8-1.9-1.9s.8-1.9 1.9-1.9 1.9.8 1.9 1.9v.2h-3.1zm2.4-.4c0-.3 0-.4-.2-.6-.2-.3-.6-.5-1-.5s-.8.2-1 .5c-.1.2-.2.3-.2.6h2.4zM154 284.7v.5c.3-.4.6-.6 1.1-.6s.6.1.9.3c.2.2.3.5.3 1v2.5h-.6V286c0-.3 0-.5-.1-.6-.1-.2-.3-.2-.6-.2s-.5.1-.7.3c-.2.2-.2.4-.2.7v2.2h-.6v-3.7h.6zM157.6 289.7h-.4l.7-2.1.6.2-.8 1.9zM162.7 285.4h2.1v.6h-2.1v1.8h2.1v.6H162v-5.3h2.8v.6h-2.1v1.8zM167.7 285.7c0-.4-.3-.6-.7-.6s-.7.2-.7.5.2.4.8.6c.5.1.7.2.9.4.2.2.3.4.3.7 0 .6-.5 1.1-1.3 1.1s-1.3-.4-1.4-1.1h.6c0 .4.3.6.8.6s.7-.2.7-.5-.2-.5-.8-.6c-.8-.2-1.2-.6-1.2-1.1s.5-1.1 1.3-1.1 1.3.4 1.3 1.1h-.6zM171.3 285.7c0-.4-.3-.6-.7-.6s-.7.2-.7.5.2.4.8.6c.5.1.7.2.9.4.2.2.3.4.3.7 0 .6-.5 1.1-1.3 1.1s-1.3-.4-1.4-1.1h.6c0 .4.3.6.8.6s.7-.2.7-.5-.2-.5-.8-.6c-.8-.2-1.2-.6-1.2-1.1s.5-1.1 1.3-1.1 1.3.4 1.3 1.1h-.6zM173.4 286.8c0 .3 0 .5.2.7.2.3.6.5 1 .5s.9-.2 1.1-.6l.5.2c-.3.6-.9 1-1.6 1-1.1 0-1.9-.8-1.9-1.9s.8-1.9 1.9-1.9 1.9.8 1.9 1.9v.2h-3.1zm2.4-.4c0-.3 0-.4-.2-.6-.2-.3-.6-.5-1-.5s-.8.2-1 .5c-.1.2-.2.3-.2.6h2.4zM178.2 284.7v.5c.3-.4.6-.6 1.1-.6s.6.1.9.3c.2.2.3.5.3 1v2.5h-.6V286c0-.3 0-.5-.1-.6-.1-.2-.3-.2-.6-.2s-.5.1-.7.3c-.2.2-.2.4-.2.7v2.2h-.6v-3.7h.6zM181.7 289.7h-.4l.7-2.1.6.2-.8 1.9zM132.3 293.8v-.6l1.8-1.2v5.4h-.6V293l-1.2.8zM136.8 294.3c.2 0 .3-.1.5-.1.9 0 1.6.7 1.6 1.6s-.8 1.7-1.7 1.7-1.7-.8-1.7-1.7.1-.7.4-1.2l1.5-2.5h.7l-1.4 2.1zm-.7 1.5c0 .6.5 1.1 1.1 1.1s1.1-.5 1.1-1.1-.5-1.1-1.1-1.1-1.1.5-1.1 1.1zM140.8 297.1c0 .2-.2.4-.4.4s-.4-.2-.4-.4.2-.4.4-.4.4.2.4.4zM144.8 294.8c.3.3.4.6.4 1 0 .9-.7 1.6-1.7 1.6s-1.6-.6-1.6-1.6.1-.8.4-1.1c.2-.2.3-.3.6-.4-.3 0-.4-.2-.5-.4-.2-.2-.3-.5-.3-.8 0-.8.6-1.3 1.5-1.3s1.4.6 1.4 1.3-.1.6-.3.8c-.1.2-.3.2-.5.3.3 0 .4.2.6.3zm-2.3 1c0 .6.5 1 1 1s1-.5 1-1-.5-1-1-1-1 .5-1 1zm.2-2.5c0 .5.4.8.8.8s.9-.4.9-.8-.4-.8-.8-.8-.9.3-.9.8zM148.4 293.7v.5c.3-.4.6-.6 1-.6s.8.2 1 .7c.3-.5.6-.7 1.2-.7s.7.1.9.4c.2.2.2.4.2 1v2.4h-.6v-2.2c0-.4 0-.6-.1-.7-.1-.2-.4-.3-.6-.3-.5 0-.8.4-.8 1v2.2h-.6v-2.2c0-.4 0-.5-.1-.7-.1-.2-.3-.3-.6-.3-.5 0-.9.4-.9 1v2.2h-.6v-3.7h.6zM156 294.9v.4h-2l1.2-1.6c.3-.5.4-.6.4-.8 0-.3-.2-.4-.5-.4s-.5.2-.5.6h-.4c0-.6.4-1 1-1s1 .3 1 .8-.1.5-.4.9l-.8 1.1h1.1z"/></g><g><path d="M132.5 218.2c1.1 0 1.7.5 1.7 1.4s-.1.6-.3.9c-.1.2-.3.2-.5.3.3 0 .4.1.6.2.3.2.4.6.4 1s-.2.9-.6 1.2c-.3.2-.7.3-1.3.3H131v-5.3h1.5zm-.8 2.4h.7c.4 0 .7 0 .9-.2.2-.2.3-.4.3-.7s-.2-.6-.4-.8c-.2 0-.4-.1-.9-.1h-.6v1.8zm0 2.4h.7c.6 0 .8 0 1-.2.3-.1.4-.4.4-.8 0-.6-.4-.9-1.2-.9h-.8v1.8zM138.4 219.8h.6v3.7h-.6v-.7c-.4.6-.8.8-1.3.8-1 0-1.7-.8-1.7-1.9s.7-1.9 1.8-1.9 1 .2 1.3.7v-.6zm-2.1.9c-.2.3-.3.6-.3 1 0 .8.5 1.4 1.2 1.4s1.3-.6 1.3-1.4-.5-1.4-1.2-1.4-.7.1-.9.4zM143.2 218.2h.6v5.3h-.6v-.6c-.4.5-.8.7-1.3.7-1 0-1.7-.8-1.7-1.9s.7-2 1.7-2 1 .2 1.3.6v-2.2zm-2.4 3.5c0 .8.5 1.4 1.2 1.4s1.2-.6 1.2-1.4-.5-1.4-1.2-1.4-1.2.6-1.2 1.4zM130.9 227.8v-.6h3l-1.6 2c.9 0 1.6.7 1.6 1.6s-.8 1.7-1.8 1.7-1.4-.5-1.6-1.3h.6c.1.4.5.7 1 .7s1.2-.5 1.2-1.1-.5-1.1-1.2-1.1-.4 0-.6.2l-.3-.2 1.5-1.9h-1.9zM135.8 232.2c0 .2-.2.4-.4.4s-.4-.2-.4-.4.2-.4.4-.4.4.2.4.4zM139.8 230c.3.3.4.6.4 1 0 .9-.7 1.6-1.7 1.6s-1.6-.6-1.6-1.6.1-.8.4-1.1c.2-.2.3-.3.6-.4-.3 0-.4-.2-.5-.4-.2-.2-.3-.5-.3-.8 0-.8.6-1.3 1.5-1.3s1.4.6 1.4 1.3-.1.6-.3.8c-.1.2-.3.2-.5.3.3 0 .4.2.6.3zm-2.3 1c0 .6.5 1 1 1s1-.5 1-1-.5-1-1-1-1 .5-1 1zm.2-2.5c0 .5.4.8.8.8s.9-.4.9-.8-.4-.8-.8-.8-.9.3-.9.8zM144.3 228.8v.5c.3-.4.6-.6 1-.6s.8.2 1 .7c.3-.5.6-.7 1.2-.7s.7.1.9.4c.2.2.2.4.2 1v2.4h-.6v-2.2c0-.4 0-.6-.1-.7-.1-.2-.4-.3-.6-.3-.5 0-.8.4-.8 1v2.2h-.6v-2.2c0-.4 0-.5-.1-.7-.1-.2-.3-.3-.6-.3-.5 0-.9.4-.9 1v2.2h-.6v-3.7h.6zM151.9 230v.4h-2l1.2-1.6c.3-.5.4-.6.4-.8 0-.3-.2-.4-.5-.4s-.5.2-.5.6h-.4c0-.6.4-1 1-1s1 .3 1 .8-.1.5-.4.9l-.8 1.1h1.1z"/></g><g><path d="M40.4 226.6h1.4c1.6 0 2.6 1 2.6 2.6s-.3 1.6-.8 2.1c-.5.4-1.1.6-1.9.6h-1.3v-5.3zm.7 4.8h.2c.9 0 1.3 0 1.7-.4.5-.4.7-1 .7-1.8 0-1.3-.7-2-1.9-2h-.7v4.2zM48.4 228.2v2.4c0 .5 0 .8-.4 1-.3.2-.6.4-1.1.4s-.8-.1-1.1-.4c-.2-.2-.4-.6-.4-1v-2.4h.6v2.3c0 .5.3.9.8.9s.5-.1.7-.3c.1-.1.2-.3.2-.6v-2.4h.6zM51.5 229.2c0-.4-.3-.6-.7-.6s-.7.2-.7.5.2.4.8.6c.5.1.7.2.9.4.2.2.3.4.3.7 0 .6-.5 1.1-1.3 1.1s-1.3-.4-1.4-1.1h.6c0 .4.3.6.8.6s.7-.2.7-.5-.2-.5-.8-.6c-.8-.2-1.2-.6-1.2-1.1s.5-1.1 1.3-1.1 1.3.4 1.3 1.1h-.6zM56.1 231.5c-.4.4-.8.5-1.4.5-1.1 0-1.8-.8-1.8-1.9s.8-1.9 1.8-1.9 1 .2 1.3.6l-.4.4c-.3-.3-.6-.4-.9-.4-.7 0-1.2.6-1.2 1.4s.5 1.4 1.2 1.4.6-.1.9-.4l.4.4zM57.7 228.7c.3-.4.7-.6 1.1-.6s.7.1.9.3c.2.2.3.5.3 1v2.5h-.6v-2.4c0-.5-.2-.8-.7-.8s-.5.1-.7.3c-.2.2-.2.4-.2.7v2.2h-.6v-5.3h.6v2.2zM61.7 230.3c0 .3 0 .5.2.7.2.3.6.5 1 .5s.9-.2 1.1-.6l.5.2c-.3.6-.9 1-1.6 1-1.1 0-1.9-.8-1.9-1.9s.8-1.9 1.9-1.9 1.9.8 1.9 1.9v.2h-3.1zm2.4-.4c0-.3 0-.4-.2-.6-.2-.3-.6-.5-1-.5s-.8.2-1 .5c-.1.2-.2.3-.2.6h2.4zM40.1 239.7v-.5l2.8-3.7v3.6h.6v.6h-.6v1.2h-.6v-1.2h-2.1zm2.1-2.6l-1.5 2h1.5v-2zM45.3 240.6c0 .2-.2.4-.4.4s-.4-.2-.4-.4.2-.4.4-.4.4.2.4.4zM47.6 237.8c.2 0 .3-.1.5-.1.9 0 1.6.7 1.6 1.6s-.8 1.7-1.7 1.7-1.7-.8-1.7-1.7.1-.7.4-1.2l1.5-2.5h.7l-1.4 2.1zm-.7 1.5c0 .6.5 1.1 1.1 1.1s1.1-.5 1.1-1.1-.5-1.1-1.1-1.1-1.1.5-1.1 1.1zM53.8 237.2v.5c.3-.4.6-.6 1-.6s.8.2 1 .7c.3-.5.6-.7 1.2-.7s.7.1.9.4c.2.2.2.4.2 1v2.4h-.6v-2.2c0-.4 0-.6-.1-.7-.1-.2-.4-.3-.6-.3-.5 0-.8.4-.8 1v2.2h-.6v-2.2c0-.4 0-.5-.1-.7-.1-.2-.3-.3-.6-.3-.5 0-.9.4-.9 1v2.2h-.6v-3.7h.6zM61.4 238.4v.4h-2l1.2-1.6c.3-.5.4-.6.4-.8 0-.3-.2-.4-.5-.4s-.5.2-.5.6h-.4c0-.6.4-1 1-1s1 .3 1 .8-.1.5-.4.9l-.8 1.1h1.1z"/></g><g><path d="M382 238.1v.6h-2.5v-5.3h.7v4.7h1.9zM383.6 234c0 .2-.2.4-.4.4s-.4-.2-.4-.4.2-.4.4-.4.4.2.4.4zm0 4.7h-.6V235h.6v3.7zM385.6 238.8h-.6v-3.2h-.5v-.5h.5v-.5c0-.7.4-1.2 1-1.2h.2v.5c-.4 0-.6.2-.6.6v.5h.6v.5h-.6v3.2zM388 238c0 .2 0 .2.3.2h.3v.5h-.6c-.4 0-.6-.2-.6-.6v-2.6h-.5v-.5h.5v-1.2h.6v1.2h.6v.5h-.6v2.4z"/></g></g></svg>