<svg xmlns="http://www.w3.org/2000/svg" viewBox="0 0 636.3 311.8"><defs><style>.cls-1,.cls-10,.cls-11,.cls-12,.cls-13,.cls-14,.cls-15,.cls-16,.cls-17,.cls-18,.cls-19,.cls-2,.cls-20,.cls-21,.cls-3,.cls-4,.cls-5,.cls-6,.cls-7,.cls-8,.cls-9{fill:none}.cls-10,.cls-11,.cls-12,.cls-13,.cls-14,.cls-15,.cls-16,.cls-17,.cls-18,.cls-19,.cls-2,.cls-20,.cls-21,.cls-3,.cls-4,.cls-5,.cls-6,.cls-8,.cls-9{stroke-linecap:round;stroke-linejoin:round}.cls-10,.cls-11,.cls-12,.cls-13,.cls-14,.cls-15,.cls-16,.cls-17,.cls-18,.cls-2,.cls-20,.cls-21,.cls-3,.cls-4,.cls-5,.cls-6,.cls-8,.cls-9{stroke-width:.1px}.cls-16,.cls-18,.cls-19,.cls-2,.cls-20,.cls-4,.cls-5,.cls-8{stroke:#194164}.cls-2,.cls-8{stroke-dasharray:0 0 0 0 2.9 1.4 .2 1.4}.cls-3{stroke:#646464}.cls-10,.cls-11,.cls-12,.cls-13,.cls-14,.cls-15,.cls-16,.cls-20,.cls-21,.cls-4,.cls-5,.cls-6,.cls-9{stroke-dasharray:0 0 1.4 1.4}.cls-22{clip-path:url(#clippath)}.cls-5{stroke-dashoffset:1px}.cls-23,.cls-24{fill:#fff}.cls-10,.cls-11,.cls-12,.cls-13,.cls-14,.cls-15,.cls-17,.cls-21,.cls-6,.cls-9{stroke:#969696}.cls-7{clip-rule:evenodd}.cls-25{clip-path:url(#clippath-1)}.cls-26{clip-path:url(#clippath-4)}.cls-27{clip-path:url(#clippath-3)}.cls-28{clip-path:url(#clippath-2)}.cls-8{stroke-dashoffset:1.7px}.cls-9{stroke-dashoffset:2.8px}.cls-10{stroke-dashoffset:1.1px}.cls-11{stroke-dashoffset:2.7px}.cls-12{stroke-dashoffset:2.5px}.cls-13{stroke-dashoffset:2.6px}.cls-14{stroke-dashoffset:1.4px}.cls-15,.cls-20{stroke-dashoffset:.7px}.cls-24,.cls-29{fill-rule:evenodd}.cls-16{stroke-dashoffset:.2px}.cls-19{stroke-width:.3px}.cls-21{stroke-dashoffset:1.2px}</style><clipPath id="clippath"><path class="cls-1" d="M62.3 0h574v311.8h-574z"/></clipPath><clipPath id="clippath-1"><path class="cls-7" d="M.1 157l7 7h226.1l6.9-7H.1"/></clipPath><clipPath id="clippath-2"><path class="cls-7" d="M.1 157l7 7h226.1l6.9-7H.1"/></clipPath><clipPath id="clippath-3"><path class="cls-7" d="M7.1 265.5l-7 7.2h139.2v-7.2H7.1"/></clipPath><clipPath id="clippath-4"><path class="cls-7" d="M7.1 265.5l-7 7.2h139.2v-7.2H7.1"/></clipPath></defs><g class="cls-22" id="Plan"><path class="cls-19" d="M157.6 215.6h29.8v39.6h-29.8z"/><path class="cls-18" d="M189.3 206.7h-35.6M171 209.6h13.7M158.1 212.5H172M257.7 211.5v2.7M256.2 213v1.2M257.7 211.5v2.7M256.2 214.2h1.5M258.4 210.8v3.4M256.2 213v1.2M240.1 211.5h17.6M240.1 213h16.1M240.1 211.5h17.6M240.1 210.8h18.3M240.1 213h16.1"/><path class="cls-24" d="M240.1 157l-4.8 4.8h4.8V157"/><path class="cls-17" d="M240.4 159.7l-1.5-1.2M238.5 161.8l-1.5-1.4M238.2 161.8l2.2-2.1"/><path class="cls-24" d="M240.1 157l-4.8 4.8h4.8V157"/><path class="cls-17" d="M240.4 159.7l-1.5-1.2M238.5 161.8l-1.5-1.4M238.2 161.8l2.2-2.1"/><path class="cls-24" d="M233.2 197.6v23.5l6.9-6.9v-16.6h-6.9"/><path class="cls-17" d="M240.4 199.8l-2.4-2.2M240.4 203.8l-6.3-6.2M240.4 207.9l-7-6.9M240.4 211.8l-7-7M239.4 215.1l-6-6.2M237.5 217l-4.1-4M235.3 219l-1.9-2.2M233.4 221.1v-.2M233.4 218.7l7-6.9M233.4 214.9l7-7M233.4 210.8l7-7M233.4 206.7l7-6.9M233.4 202.6l5.1-5M233.4 198.8l1-1.2"/><path class="cls-24" d="M233.2 197.6v23.5l6.9-6.9v-16.6h-6.9"/><path class="cls-17" d="M240.4 199.8l-2.4-2.2M240.4 203.8l-6.3-6.2M240.4 207.9l-7-6.9M240.4 211.8l-7-7M239.4 215.1l-6-6.2M237.5 217l-4.1-4M235.3 219l-1.9-2.2M233.4 221.1v-.2M233.4 218.7l7-6.9M233.4 214.9l7-7M233.4 210.8l7-7M233.4 206.7l7-6.9M233.4 202.6l5.1-5M233.4 198.8l1-1.2"/><path class="cls-19" d="M240.1 214.2v-16.6M233.2 197.8v-.2M233.2 221.1V205M233.2 197.8v-.2M240.1 214.2v-16.6M233.2 221.1V205M240.1 162.1V157"/><path class="cls-18" d="M238.9 191.6h1.7v6h-1.7zM238.9 161.8h1.7v2.6h-1.7zM238.9 164.5h1.7v27.1h-1.7zM238.9 191.6v-27.1"/><path class="cls-2" d="M233.2 191.8V164"/><path class="cls-18" d="M233.2 164.5v-.5"/><path class="cls-24" d="M233.2 197.6v-5.8h5.7v5.8"/><path class="cls-17" d="M239.2 194.7l-2.9-2.9M238 197.6l-4.6-4.8M234.1 197.6l-.7-.7M238.5 197.6l.7-.7M234.4 197.6l4.8-4.6M233.4 194.7l2.9-2.9"/><path class="cls-24" d="M233.2 161.8v2.2h5.7v-2.2"/><path class="cls-17" d="M239.2 162.6l-.7-.8M236.5 164l-2.1-2.2M236.1 164l2.1-2.2M233.4 162.6l.7-.8"/><path class="cls-19" d="M233.2 191.8h5.7M233.2 164h5.7M233.2 191.8h5.7M233.2 197.6v-5.8M233.2 164h5.7M233.2 161.8v2.2M240.1 197.6h-1.2M240.1 161.8h-1.2M233.2 197.6v-5.8M233.2 161.8v2.2M238.9 191.8v5.8M238.9 164v-2.2"/><path class="cls-17" d="M240.7 191.6c14.9 0 27.2-12.3 27.2-27.2M240.6 164.5H268"/><path class="cls-24" d="M442.6 226.3c.9-1.3.9-3 0-4.3-1.5-1.9-3.8-2.9-6.2-2.9l-9 .3v9.6l9 .3c2.4 0 4.7-1 6.2-2.9"/><path class="cls-18" d="M442.6 226.3c.9-1.3.9-3 0-4.3-1.5-1.9-3.8-2.9-6.2-2.9l-9 .3v9.6l9 .3c2.4 0 4.7-1 6.2-2.9"/><path class="cls-24" d="M432.5 224.2c0 1 .3 2 1.1 2.8.7.7 1.7 1.2 2.7 1.2 2.1 0 4.1-.9 5.4-2.5.6-.9.6-2 0-2.9-1.3-1.6-3.3-2.5-5.4-2.5-1 0-2 .4-2.7 1.2-.7.7-1.1 1.8-1.1 2.8"/><path class="cls-18" d="M432.5 224.2c0 1 .3 2 1.1 2.8.7.7 1.7 1.2 2.7 1.2 2.1 0 4.1-.9 5.4-2.5.6-.9.6-2 0-2.9-1.3-1.6-3.3-2.5-5.4-2.5-1 0-2 .4-2.7 1.2-.7.7-1.1 1.8-1.1 2.8"/><path class="cls-24" d="M478.5 271.3h-51.2v-22.8h51.2v22.8"/><path class="cls-18" d="M427.3 248.5h51.1v22.8h-51.1zM429.3 271.3v-22.8M426.6 211.8v20.1M425.2 211.8v18.7M426.6 211.8v20.1M427.3 211.8v20.8M425.2 211.8v18.7M422.8 231.9v18.5M421.3 230.5v21.3M422.8 231.9v18.5M423.5 232.6v17.1M421.3 230.5v21.3M426.6 250.4v21.1M425.2 251.8v19.7M426.6 250.4v21.1M427.3 249.7v21.8M425.2 251.8v19.7"/><path class="cls-24" d="M427.4 249h12.4c.1 0 .3-.1.4-.2.1-.1.2-.2.2-.4V234.7v-.4c0-.1-.1-.3-.2-.4-.1-.1-.2-.2-.4-.2h-12.4v15.6"/><path class="cls-18" d="M427.4 249h12.4c.1 0 .3-.1.4-.2.1-.1.2-.2.2-.4V234.7v-.4c0-.1-.1-.3-.2-.4-.1-.1-.2-.2-.4-.2h-12.4v15.6"/><path class="cls-16" d="M427.3 232.6h-3.8"/><path class="cls-5" d="M423.5 232.6v17.1"/><path class="cls-16" d="M423.5 249.7h3.8"/><path class="cls-18" d="M422.8 250.4h3.8M421.3 251.8h3.9M422.8 250.4h3.8M423.5 249.7h3.8M421.3 251.8h3.9M426.6 231.9h-3.8M425.2 230.5h-3.9M426.6 231.9h-3.8M427.3 232.6h-3.8M425.2 230.5h-3.9"/><path class="cls-24" d="M399.4 216.4c-.9-1.3-.9-3 0-4.3 1.5-1.9 3.8-2.9 6.2-2.9l9 .3v9.6l-9 .3c-2.4 0-4.7-1-6.2-2.9"/><path class="cls-18" d="M399.4 216.4c-.9-1.3-.9-3 0-4.3 1.5-1.9 3.8-2.9 6.2-2.9l9 .3v9.6l-9 .3c-2.4 0-4.7-1-6.2-2.9"/><path class="cls-24" d="M409.5 214.3c0 1-.3 2-1.1 2.8-.7.7-1.7 1.2-2.7 1.2-2.1 0-4.1-.9-5.4-2.5-.6-.9-.6-2 0-2.9 1.3-1.6 3.3-2.5 5.4-2.5 1 0 2 .4 2.7 1.2.7.7 1.1 1.8 1.1 2.8"/><path class="cls-18" d="M409.5 214.3c0 1-.3 2-1.1 2.8-.7.7-1.7 1.2-2.7 1.2-2.1 0-4.1-.9-5.4-2.5-.6-.9-.6-2 0-2.9 1.3-1.6 3.3-2.5 5.4-2.5 1 0 2 .4 2.7 1.2.7.7 1.1 1.8 1.1 2.8"/><path class="cls-24" d="M414.2 271.3h-48l-.1-.1-.1-.1h-.1V250.2l.1-.1h.1v-.1H414.4v.1h.1l.1.1V271.1h-.1l-.1.1-.1.1h-.1"/><path class="cls-18" d="M414.2 271.3h-48l-.1-.1-.1-.1h-.1V250.2l.1-.1h.1v-.1H414.4v.1h.1l.1.1V271.1h-.1l-.1.1-.1.1h-.1"/><path class="cls-24" d="M409 269.1h-37.4c-.4 0-.9 0-1.3-.3-.4-.2-.8-.4-1.1-.7-.3-.3-.6-.7-.7-1.1-.2-.4-.3-.9-.3-1.3v-10.2c0-.4 0-.9.3-1.3.2-.4.4-.8.7-1.1.3-.3.7-.6 1.1-.7.4-.2.9-.3 1.3-.3H409c.4 0 .9 0 1.3.3.4.2.8.4 1.1.7.3.3.6.7.7 1.1.2.4.3.9.3 1.3v10.2c0 .4 0 .9-.3 1.3-.2.4-.4.8-.7 1.1-.3.3-.7.6-1.1.7-.4.2-.9.3-1.3.3"/><path class="cls-18" d="M409 269.1h-37.4c-.4 0-.9 0-1.3-.3-.4-.2-.8-.4-1.1-.7-.3-.3-.6-.7-.7-1.1-.2-.4-.3-.9-.3-1.3v-10.2c0-.4 0-.9.3-1.3.2-.4.4-.8.7-1.1.3-.3.7-.6 1.1-.7.4-.2.9-.3 1.3-.3H409c.4 0 .9 0 1.3.3.4.2.8.4 1.1.7.3.3.6.7.7 1.1.2.4.3.9.3 1.3v10.2c0 .4 0 .9-.3 1.3-.2.4-.4.8-.7 1.1-.3.3-.7.6-1.1.7-.4.2-.9.3-1.3.3M415.3 200.5V225M416.8 200.5v23M415.3 200.5V225M414.6 200.5v25.2M416.8 200.5v23M416.8 200.5h-1.5M419.2 225v18.4M420.6 223.5v21.1M419.2 225v18.4M418.5 225.7v17M420.6 223.5v21.1M415.3 243.4v28.1M416.8 244.6v26.9M415.3 243.4v28.1M416.8 271.5h-1.5M414.6 242.7v28.8M416.8 244.6v26.9"/><path class="cls-24" d="M414.6 241.9h-12.4c-.1 0-.3-.1-.4-.2-.1-.1-.2-.2-.2-.4V227.6v-.4c0-.1.1-.3.2-.4.1-.1.2-.2.4-.2h12.4v15.6"/><path class="cls-18" d="M414.6 241.9h-12.4c-.1 0-.3-.1-.4-.2-.1-.1-.2-.2-.2-.4V227.6v-.4c0-.1.1-.3.2-.4.1-.1.2-.2.4-.2h12.4v15.6"/><path class="cls-16" d="M414.6 225.7h3.9"/><path class="cls-5" d="M418.5 225.7v17"/><path class="cls-16" d="M418.5 242.7h-3.9"/><path class="cls-18" d="M419.2 243.4h-3.9M420.6 244.6h-3.8M419.2 243.4h-3.9M418.5 242.7h-3.9M420.6 244.6h-3.8M415.3 225h3.9M416.8 223.5h3.8M415.3 225h3.9M414.6 225.7h3.9M416.8 223.5h3.8"/><path class="cls-29" d="M574.5 71.6V56.7h33.1l-14.9 14.9h-18.2"/><path class="cls-24" d="M574.5 56.7v3.6h29.7l3.4-3.6h-33.1"/><path class="cls-17" d="M574.7 57.2l3.1 3.1M578.3 56.7l3.6 3.6M582.1 56.7l3.6 3.6M586.2 56.7l3.6 3.6M590.3 56.7l3.6 3.6M594.1 56.7l3.6 3.6M598.2 56.7l3.6 3.6M602.3 56.7l2.9 2.9M606.4 56.7l.7.7"/><path class="cls-24" d="M574.5 60.3v.5h29.2l.5-.5h-29.7M574.5 60.8v5.8H598l5.7-5.8h-29.2"/><path class="cls-17" d="M602.3 62.2v-1.4M600.9 63.7v-2.9M599.4 65.1v-4.3M598.2 66.6v-5.8M596.8 66.6v-5.8M595.3 66.6v-5.8M593.9 66.6v-5.8M592.5 66.6v-5.8M591 66.6v-5.8M589.6 66.6v-5.8M588.1 66.6v-5.8M586.7 66.6v-5.8M585.3 66.6v-5.8M583.8 66.6v-5.8M582.6 66.6v-5.8M581.2 66.6v-5.8M579.7 66.6v-5.8M578.3 66.6v-5.8M576.9 66.6v-5.8M575.4 66.6v-5.8"/><path class="cls-24" d="M574.5 66.6v5h18.2l5.3-5h-23.5"/><path class="cls-17" d="M597 67.5l-.9-.9M595.1 69.4l-3.1-2.8M592.9 71.4l-4.8-4.8M589.1 71.6l-5-5M585 71.6l-5-5M581.2 71.6l-5.1-5M577.1 71.6l-2.4-2.4M595.3 69.2l2.7-2.6M588.9 71.6l5-5M585 71.6l5.1-5M580.9 71.6l5.1-5M576.9 71.6l5-5M574.7 69.9l3.1-3.3"/><path class="cls-19" d="M574.5 60.3h29.7M574.5 56.7h33.1"/><path class="cls-17" d="M574.5 66.6H598M574.5 60.8h29.2"/><path class="cls-19" d="M574.5 71.6h18.2M574.5 66.6H598"/><path class="cls-18" d="M574.5 56.7h33.1M574.5 71.6h18.2"/><path class="cls-29" d="M456.6 71.6V56.7h55v14.9h-55"/><path class="cls-24" d="M456.6 56.7v3.6h55v-3.6h-55"/><path class="cls-17" d="M456.9 59.6l.7.7M458.1 56.7l3.6 3.6M461.9 56.7l3.6 3.6M466 56.7l3.6 3.6M470.1 56.7l3.6 3.6M473.9 56.7l3.6 3.6M478 56.7l3.6 3.6M482.1 56.7l3.6 3.6M486.1 56.7l3.6 3.6M490 56.7l3.6 3.6M494.1 56.7l3.6 3.6M498.1 56.7l3.6 3.6M502 56.7l3.6 3.6M506.1 56.7l3.6 3.6M510.1 56.7l1.7 1.7"/><path class="cls-24" d="M456.6 60.3v.5h55v-.5h-55M456.6 60.8v5.8h55v-5.8h-55"/><path class="cls-17" d="M511.6 66.6v-5.8M510.1 66.6v-5.8M508.9 66.6v-5.8M507.5 66.6v-5.8M506.1 66.6v-5.8M504.6 66.6v-5.8M503.2 66.6v-5.8M501.7 66.6v-5.8M500.3 66.6v-5.8M498.9 66.6v-5.8M497.4 66.6v-5.8M496 66.6v-5.8M494.5 66.6v-5.8M493.3 66.6v-5.8M491.9 66.6v-5.8M490.5 66.6v-5.8M489 66.6v-5.8M487.6 66.6v-5.8M486.1 66.6v-5.8M484.7 66.6v-5.8M483.3 66.6v-5.8M481.8 66.6v-5.8M480.4 66.6v-5.8M478.9 66.6v-5.8M477.7 66.6v-5.8M476.3 66.6v-5.8M474.9 66.6v-5.8M473.4 66.6v-5.8M472 66.6v-5.8M470.5 66.6v-5.8M469.1 66.6v-5.8M467.7 66.6v-5.8M466.2 66.6v-5.8M464.8 66.6v-5.8M463.6 66.6v-5.8M462.1 66.6v-5.8M460.7 66.6v-5.8M459.3 66.6v-5.8M457.8 66.6v-5.8"/><path class="cls-24" d="M456.6 66.6v5h55v-5h-55"/><path class="cls-17" d="M456.9 67.5l3.8 4.1M459.7 66.6l5.1 5M463.8 66.6l5.1 5M467.9 66.6l5 5M471.7 66.6l5.1 5M475.8 66.6l5.1 5M479.9 66.6l5 5M483.7 66.6l5.1 5M487.8 66.6l5.1 5M491.9 66.6l5 5M496 66.6l5 5M499.8 66.6l5.1 5M503.9 66.6l5 5M508 66.6l3.8 3.8"/><path class="cls-19" d="M456.6 60.3h55M456.6 56.7h55"/><path class="cls-17" d="M456.6 66.6h55M456.6 60.8h55"/><path class="cls-19" d="M456.6 71.6h55M456.6 66.6h55"/><path class="cls-18" d="M456.6 56.7h55M456.6 71.6h55"/><path class="cls-29" d="M371.9 71.6V56.7h43.9v14.9h-43.9"/><path class="cls-24" d="M371.9 56.7v3.6h43.9v-3.6h-43.9"/><path class="cls-17" d="M372.1 58.9l1.2 1.4M373.8 56.7l3.6 3.6M377.9 56.7l3.6 3.6M381.7 56.7l3.6 3.6M385.8 56.7l3.6 3.6M389.9 56.7l3.6 3.6M393.7 56.7l3.6 3.6M397.8 56.7l3.6 3.6M401.9 56.7l3.6 3.6M405.7 56.7l3.6 3.6M409.8 56.7l3.6 3.6M413.9 56.7l2.2 2.2"/><path class="cls-24" d="M371.9 60.3v.5h43.9v-.5h-43.9M371.9 60.8v5.8h43.9v-5.8h-43.9"/><path class="cls-17" d="M415.3 66.6v-5.8M413.9 66.6v-5.8M412.5 66.6v-5.8M411 66.6v-5.8M409.6 66.6v-5.8M408.1 66.6v-5.8M406.7 66.6v-5.8M405.3 66.6v-5.8M403.8 66.6v-5.8M402.6 66.6v-5.8M401.2 66.6v-5.8M399.7 66.6v-5.8M398.3 66.6v-5.8M396.9 66.6v-5.8M395.4 66.6v-5.8M394 66.6v-5.8M392.5 66.6v-5.8M391.1 66.6v-5.8M389.7 66.6v-5.8M388.5 66.6v-5.8M387 66.6v-5.8M385.6 66.6v-5.8M384.1 66.6v-5.8M382.7 66.6v-5.8M381.3 66.6v-5.8M379.8 66.6v-5.8M378.4 66.6v-5.8M376.9 66.6v-5.8M375.5 66.6v-5.8M374.1 66.6v-5.8M372.9 66.6v-5.8"/><path class="cls-24" d="M371.9 66.6v5h43.9v-5h-43.9"/><path class="cls-17" d="M372.1 70.9l.5.7M372.1 67l4.6 4.6M375.5 66.6l5 5M379.6 66.6l5 5M383.7 66.6l5 5M387.7 66.6l5.1 5M391.6 66.6l5 5M395.7 66.6l5 5M399.7 66.6l5.1 5M403.6 66.6l5 5M407.7 66.6l5 5M411.7 66.6l4.4 4.3M415.6 66.6l.5.2"/><path class="cls-19" d="M371.9 60.3h43.9M371.9 56.7h43.9"/><path class="cls-17" d="M371.9 66.6h43.9M371.9 60.8h43.9"/><path class="cls-19" d="M371.9 71.6h43.9M371.9 66.6h43.9"/><path class="cls-18" d="M371.9 56.7h43.9M371.9 71.6h43.9"/><path class="cls-29" d="M224.5 71.6V56.7h106.6v14.9H224.5"/><path class="cls-24" d="M224.5 56.7v3.6h106.6v-3.6H224.5"/><path class="cls-17" d="M224.8 59.8l.2.5M225.5 56.7l3.6 3.6M229.3 56.7l3.6 3.6M233.4 56.7l3.6 3.6M237.5 56.7l3.6 3.6M241.6 56.7l3.6 3.6M245.4 56.7l3.6 3.6M249.5 56.7l3.6 3.6M253.6 56.7l3.6 3.6M257.4 56.7l3.6 3.6M261.5 56.7l3.6 3.6M265.6 56.7l3.6 3.6M269.7 56.7l3.6 3.6M273.5 56.7l3.6 3.6M277.6 56.7l3.6 3.6M281.7 56.7l3.6 3.6M285.5 56.7l3.6 3.6M289.6 56.7l3.6 3.6M293.7 56.7l3.6 3.6M297.5 56.7l3.6 3.6M301.6 56.7l3.6 3.6M305.7 56.7l3.6 3.6M309.7 56.7l3.6 3.6M313.6 56.7l3.6 3.6M317.7 56.7l3.6 3.6M321.7 56.7l3.6 3.6M325.6 56.7l3.6 3.6M329.7 56.7l1.6 1.5"/><path class="cls-24" d="M224.5 60.3v.5h106.6v-.5H224.5M224.5 60.8v5.8h106.6v-5.8H224.5"/><path class="cls-17" d="M330.1 66.6v-5.8M328.9 66.6v-5.8M327.5 66.6v-5.8M326.1 66.6v-5.8M324.6 66.6v-5.8M323.2 66.6v-5.8M321.7 66.6v-5.8M320.3 66.6v-5.8M318.9 66.6v-5.8M317.4 66.6v-5.8M316 66.6v-5.8M314.5 66.6v-5.8M313.3 66.6v-5.8M311.9 66.6v-5.8M310.5 66.6v-5.8M309 66.6v-5.8M307.6 66.6v-5.8M306.1 66.6v-5.8M304.7 66.6v-5.8M303.3 66.6v-5.8M301.8 66.6v-5.8M300.4 66.6v-5.8M298.9 66.6v-5.8M297.7 66.6v-5.8M296.3 66.6v-5.8M294.9 66.6v-5.8M293.4 66.6v-5.8M292 66.6v-5.8M290.5 66.6v-5.8M289.1 66.6v-5.8M287.7 66.6v-5.8M286.2 66.6v-5.8M284.8 66.6v-5.8M283.6 66.6v-5.8M282.1 66.6v-5.8M280.7 66.6v-5.8M279.3 66.6v-5.8M277.8 66.6v-5.8M276.4 66.6v-5.8M274.9 66.6v-5.8M273.5 66.6v-5.8M272.1 66.6v-5.8M270.6 66.6v-5.8M269.2 66.6v-5.8M268 66.6v-5.8M266.5 66.6v-5.8M265.1 66.6v-5.8M263.7 66.6v-5.8M262.2 66.6v-5.8M260.8 66.6v-5.8M259.3 66.6v-5.8M257.9 66.6v-5.8M256.5 66.6v-5.8M255 66.6v-5.8M253.8 66.6v-5.8M252.4 66.6v-5.8M250.9 66.6v-5.8M249.5 66.6v-5.8M248.1 66.6v-5.8M246.6 66.6v-5.8M245.2 66.6v-5.8M243.7 66.6v-5.8M242.3 66.6v-5.8M240.9 66.6v-5.8M239.4 66.6v-5.8M238.2 66.6v-5.8M236.8 66.6v-5.8M235.3 66.6v-5.8M233.9 66.6v-5.8M232.5 66.6v-5.8M231 66.6v-5.8M229.6 66.6v-5.8M228.1 66.6v-5.8M226.7 66.6v-5.8M225.3 66.6v-5.8"/><path class="cls-24" d="M224.5 66.6v5h106.6v-5H224.5"/><path class="cls-17" d="M224.8 68l3.6 3.6M227.2 66.6l5 5M231.3 66.6l5 5M235.3 66.6l5.1 5M239.2 66.6l5 5M243.3 66.6l5 5M247.3 66.6l5.1 5M251.4 66.6l5.1 5M255.3 66.6l5 5M259.3 66.6l5.1 5M263.4 66.6l5.1 5M267.3 66.6l5 5M271.3 66.6l5.1 5M275.4 66.6l5.1 5M279.5 66.6l5 5M283.3 66.6l5.1 5M287.4 66.6l5.1 5M291.5 66.6l5 5M295.3 66.6l5.1 5M299.4 66.6l5.1 5M303.5 66.6l5 5M307.3 66.6l5.1 5M311.4 66.6l5.1 5M315.5 66.6l5 5M319.6 66.6l5 5M323.4 66.6l5.1 5M327.5 66.6l3.8 3.8"/><path class="cls-19" d="M224.5 60.3h106.6M224.5 56.7h106.6"/><path class="cls-17" d="M224.5 66.6h106.6M224.5 60.8h106.6"/><path class="cls-19" d="M224.5 71.6h106.6M224.5 66.6h106.6"/><path class="cls-18" d="M224.5 56.7h106.6M224.5 71.6h106.6"/><path class="cls-29" d="M136 71.6V56.7h25.4v14.9H136"/><path class="cls-24" d="M136 56.7v3.6h25.4v-3.6H136"/><path class="cls-17" d="M136.2 59.6l.7.7M137.2 56.7l3.6 3.6M141.3 56.7l3.6 3.6M145.3 56.7l3.6 3.6M149.2 56.7l3.6 3.6M153.3 56.7l3.6 3.6M157.3 56.7l3.6 3.6M161.4 56.7l.3.3"/><path class="cls-24" d="M136 60.3v.5h25.4v-.5H136M136 60.8v5.8h25.4v-5.8H136"/><path class="cls-17" d="M160.2 66.6v-5.8M158.8 66.6v-5.8M157.3 66.6v-5.8M155.9 66.6v-5.8M154.5 66.6v-5.8M153 66.6v-5.8M151.6 66.6v-5.8M150.1 66.6v-5.8M148.9 66.6v-5.8M147.5 66.6v-5.8M146.1 66.6v-5.8M144.6 66.6v-5.8M143.2 66.6v-5.8M141.7 66.6v-5.8M140.3 66.6v-5.8M138.9 66.6v-5.8M137.4 66.6v-5.8"/><path class="cls-24" d="M136 66.6v5h25.4v-5H136"/><path class="cls-17" d="M136.2 67.5l3.9 4.1M139.1 66.6l5 5M143.2 66.6l5 5M147 66.6l5.1 5M151.1 66.6l5 5M155.2 66.6l5 5M159 66.6l2.7 2.4"/><path class="cls-19" d="M136 60.3h25.4M136 56.7h25.4"/><path class="cls-17" d="M136 66.6h25.4M136 60.8h25.4"/><path class="cls-19" d="M136 71.6h25.4M136 66.6h25.4"/><path class="cls-18" d="M136 56.7h25.4M136 71.6h25.4M163.3 64.2v-7.5H160V55h66v1.7h-3.4v7.5"/><path class="cls-2" d="M161.4 71.6h63.1"/><path class="cls-18" d="M224.1 71.6h.4"/><path class="cls-19" d="M163.3 56.7H160M222.6 56.7h3.4"/><path class="cls-18" d="M161.4 64.2h63.1v2.4h-63.1zM165.3 64.2v2.4M220.7 64.2v2.4M161.4 66.6v-2.4M180.4 66.6v-2.4M165.3 66.6v-2.4M184.5 66.6v-2.4M180.4 66.6v-2.4M201.5 66.6v-2.4M184.5 66.6v-2.4M205.6 66.6v-2.4M201.5 66.6v-2.4M220.7 66.6v-2.4M205.6 66.6v-2.4M224.5 66.6v-2.4"/><path class="cls-24" d="M161.5 60.8h1.8v3.4h-1.8"/><path class="cls-17" d="M163.1 64.2v-3.4M161.7 64.2v-3.4M161.5 60.8h1.8v3.4h-1.8"/><path class="cls-19" d="M161.4 66.6v5"/><path class="cls-24" d="M161.4 56.7h1.9v3.6h-1.9"/><path class="cls-17" d="M161.7 57l1.9 1.9"/><path class="cls-19" d="M161.4 56.7h1.9v3.6h-1.9M163.3 60.3v3.9"/><path class="cls-24" d="M224.4 60.8h-1.8v3.4h1.8"/><path class="cls-17" d="M223.8 64.2v-3.4M224.4 60.8h-1.8v3.4h1.8"/><path class="cls-19" d="M224.5 66.6v5"/><path class="cls-24" d="M224.5 56.7h-1.9v3.6h1.9"/><path class="cls-17" d="M222.9 57.9l1.9 1.9"/><path class="cls-19" d="M224.5 56.7h-1.9v3.6h1.9M222.6 60.3v3.9"/><path class="cls-18" d="M332.8 64.2v-7.5h-3.4V55h43.9v1.7H370v7.5"/><path class="cls-2" d="M331.1 71.6h40.8"/><path class="cls-18" d="M371.4 71.6h.5"/><path class="cls-19" d="M332.8 56.7h-3.4M370 56.7h3.3"/><path class="cls-18" d="M331.1 64.2h40.8v2.4h-40.8zM334.7 64.2v2.4M368.1 64.2v2.4M331.1 66.6v-2.4M349.3 66.6v-2.4M334.7 66.6v-2.4M353.4 66.6v-2.4M349.3 66.6v-2.4M368.1 66.6v-2.4M353.4 66.6v-2.4M371.9 66.6v-2.4"/><path class="cls-24" d="M331 60.8h1.8v3.4H331"/><path class="cls-17" d="M331.6 64.2v-3.4M331 60.8h1.8v3.4H331"/><path class="cls-19" d="M331.1 66.6v5"/><path class="cls-24" d="M331.1 56.7h1.7v3.6h-1.7"/><path class="cls-17" d="M331.3 58.2l1.7 1.6"/><path class="cls-19" d="M331.1 56.7h1.7v3.6h-1.7M332.8 60.3v3.9"/><path class="cls-24" d="M371.8 60.8H370v3.4h1.8"/><path class="cls-17" d="M371.4 64.2v-3.4M371.8 60.8H370v3.4h1.8"/><path class="cls-19" d="M371.9 66.6v5"/><path class="cls-24" d="M371.9 56.7H370v3.6h1.9"/><path class="cls-17" d="M370.2 57l1.9 1.9"/><path class="cls-19" d="M371.9 56.7H370v3.6h1.9M370 60.3v3.9"/><path class="cls-18" d="M417.5 64.2v-7.5h-3.4V55h44v1.7h-3.4v7.5"/><path class="cls-2" d="M415.8 71.6h40.8"/><path class="cls-18" d="M456.1 71.6h.5"/><path class="cls-19" d="M417.5 56.7h-3.4M454.7 56.7h3.4"/><path class="cls-18" d="M415.8 64.2h40.8v2.4h-40.8zM419.4 64.2v2.4M452.8 64.2v2.4M415.8 66.6v-2.4M434.1 66.6v-2.4M419.4 66.6v-2.4M438.1 66.6v-2.4M434.1 66.6v-2.4M452.8 66.6v-2.4M438.1 66.6v-2.4M456.6 66.6v-2.4"/><path class="cls-24" d="M415.8 60.8h1.8v3.4h-1.8"/><path class="cls-17" d="M416.8 64.2v-3.4M415.8 60.8h1.8v3.4h-1.8"/><path class="cls-19" d="M415.8 66.6v5"/><path class="cls-24" d="M415.8 56.7h1.7v3.6h-1.7"/><path class="cls-17" d="M416.1 58.9l1.4 1.4"/><path class="cls-19" d="M415.8 56.7h1.7v3.6h-1.7M417.5 60.3v3.9"/><path class="cls-24" d="M456.6 60.8h-1.9v3.4h1.9"/><path class="cls-17" d="M456.4 64.2v-3.4M454.9 64.2v-3.4M456.6 60.8h-1.9v3.4h1.9"/><path class="cls-19" d="M456.6 66.6v5"/><path class="cls-24" d="M456.6 56.7h-1.9v3.6h1.9"/><path class="cls-17" d="M454.9 57.7l2 1.9"/><path class="cls-19" d="M456.6 56.7h-1.9v3.6h1.9M454.7 60.3v3.9"/><path class="cls-2" d="M511.6 71.6h62.9"/><path class="cls-18" d="M511.6 64.2h62.9v2.4h-62.9zM515.2 64.2v2.4M570.9 64.2v2.4M511.6 66.6v-2.4M530.5 66.6v-2.4M515.2 66.6v-2.4M534.6 66.6v-2.4M530.5 66.6v-2.4M551.4 66.6v-2.4M534.6 66.6v-2.4M555.5 66.6v-2.4M551.4 66.6v-2.4M570.9 66.6v-2.4M555.5 66.6v-2.4M574.5 66.6v-2.4"/><path class="cls-19" d="M511.6 66.6v5"/><path class="cls-18" d="M576.1 56.7V55"/><path class="cls-8" d="M576.1 55h-66.2"/><path class="cls-18" d="M509.9 55v1"/><path class="cls-24" d="M511.6 60.8h1.8v3.4h-1.8"/><path class="cls-17" d="M513 64.2v-3.4M511.6 60.8h1.8v3.4h-1.8"/><path class="cls-24" d="M511.6 56.7h1.9v3.6h-1.9"/><path class="cls-17" d="M511.8 58.4l1.9 1.9"/><path class="cls-19" d="M511.6 56.7h1.9v3.6h-1.9M513.5 60.3v3.9"/><path class="cls-24" d="M574.5 60.8h-1.8v3.4h1.8"/><path class="cls-17" d="M574 64.2v-3.4M574.5 60.8h-1.8v3.4h1.8"/><path class="cls-19" d="M574.5 66.6v5"/><path class="cls-24" d="M574.5 56.7h-2v3.6h2"/><path class="cls-17" d="M572.8 59.1l.9 1.2M574.2 56.7l.5.5"/><path class="cls-19" d="M574.5 56.7h-2v3.6h2M572.5 60.3v3.9"/><path class="cls-24" d="M.1 157l7 7h226.1l6.9-7H.1"/><g class="cls-25"><path class="cls-17" d="M240.1 159.7l-2.6-2.7M240.1 163.5l-6.4-6.5M236.5 164l-6.9-7M232.5 164l-7-7M228.6 164l-6.9-7M224.5 164l-6.9-7M220.5 164l-7-7M216.4 164l-7-7M212.5 164l-6.9-7M208.5 164l-7-7M204.4 164l-7-7M200.5 164l-6.9-7M196.5 164l-7-7M192.4 164l-7-7M188.3 164l-7-7M184.5 164l-7-7M180.4 164l-7-7M176.3 164l-7-7M172.5 164l-7-7M168.4 164l-7-7M164.3 164l-7-7M160.5 164l-7-7M156.4 164l-7-7M152.3 164l-7-7M148.2 164l-6.9-7M144.4 164l-7-7M140.3 164l-7-7M136.2 164l-6.9-7M132.4 164l-7-7M128.3 164l-7-7M124.2 164l-6.9-7M120.4 164l-7-7M116.3 164l-7-7M112.2 164l-6.9-7M108.1 164l-6.9-7M104.3 164l-7-7M100.2 164l-6.9-7M96.1 164l-6.9-7M92.3 164l-7-7M239.9 164l.2-.2M236.1 164l4-4.1M232 164l6.9-7M227.9 164l7-7M223.8 164l7-7M220 164l6.9-7M215.9 164l7-7M211.8 164l7-7M208 164l6.9-7M203.9 164l7-7M199.8 164l7-7M196 164l6.9-7M191.9 164l7-7M187.8 164l7-7M183.7 164l7-7M179.9 164l7-7M175.8 164l7-7M171.7 164l7-7M167.9 164l7-7M163.8 164l7-7M159.7 164l7-7M155.9 164l7-7M151.8 164l7-7M147.7 164l7-7M143.7 164l6.9-7M139.8 164l7-7M135.7 164l7-7M131.7 164l6.9-7M127.8 164l7-7M123.7 164l7-7M119.7 164l6.9-7M115.6 164l6.9-7M111.7 164l7-7M107.7 164l6.9-7M103.6 164l6.9-7M99.7 164l7-7M95.7 164l6.9-7M91.6 164l6.9-7M87.7 164l7-7"/></g><path class="cls-24" d="M.1 157l7 7h226.1l6.9-7H.1"/><g class="cls-28"><path class="cls-17" d="M240.1 159.7l-2.6-2.7M240.1 163.5l-6.4-6.5M236.5 164l-6.9-7M232.5 164l-7-7M228.6 164l-6.9-7M224.5 164l-6.9-7M220.5 164l-7-7M216.4 164l-7-7M212.5 164l-6.9-7M208.5 164l-7-7M204.4 164l-7-7M200.5 164l-6.9-7M196.5 164l-7-7M192.4 164l-7-7M188.3 164l-7-7M184.5 164l-7-7M180.4 164l-7-7M176.3 164l-7-7M172.5 164l-7-7M168.4 164l-7-7M164.3 164l-7-7M160.5 164l-7-7M156.4 164l-7-7M152.3 164l-7-7M148.2 164l-6.9-7M144.4 164l-7-7M140.3 164l-7-7M136.2 164l-6.9-7M132.4 164l-7-7M128.3 164l-7-7M124.2 164l-6.9-7M120.4 164l-7-7M116.3 164l-7-7M112.2 164l-6.9-7M108.1 164l-6.9-7M104.3 164l-7-7M100.2 164l-6.9-7M96.1 164l-6.9-7M92.3 164l-7-7M88.3 164l-6.9-7M84.4 164l-7-7M80.4 164l-7-7M76.4 164l-6.9-7M72.5 164l-7-7M68.5 164l-7-7M64.5 164l-6.9-7M60.6 164l-7-7M56.6 164l-7-7M239.9 164l.2-.2M236.1 164l4-4.1M232 164l6.9-7M227.9 164l7-7M223.8 164l7-7M220 164l6.9-7M215.9 164l7-7M211.8 164l7-7M208 164l6.9-7M203.9 164l7-7M199.8 164l7-7M196 164l6.9-7M191.9 164l7-7M187.8 164l7-7M183.7 164l7-7M179.9 164l7-7M175.8 164l7-7M171.7 164l7-7M167.9 164l7-7M163.8 164l7-7M159.7 164l7-7M155.9 164l7-7M151.8 164l7-7M147.7 164l7-7M143.7 164l6.9-7M139.8 164l7-7M135.7 164l7-7M131.7 164l6.9-7M127.8 164l7-7M123.7 164l7-7M119.7 164l6.9-7M115.6 164l6.9-7M111.7 164l7-7M107.7 164l6.9-7M103.6 164l6.9-7M99.7 164l7-7M95.7 164l6.9-7M91.6 164l6.9-7M87.7 164l7-7M83.8 164l6.9-7M79.8 164l7-7M75.8 164l7-7M71.9 164l6.9-7M67.9 164l7-7M63.9 164l7-7M60 164l6.9-7M56 164l7-7M52 164l7-7"/></g><path class="cls-19" d="M240.1 157H.1M233.2 164H7.1M233.2 164H7.1M136 157H.1M240.1 157h-96.9"/><path class="cls-24" d="M7.1 265.5l-7 7.2h139.2v-7.2H7.1"/><g class="cls-27"><path class="cls-17" d="M139.3 267.2l-1.6-1.7M139.3 271.3l-5.7-5.8M136.7 272.7l-7.2-7.2M132.9 272.7l-7.2-7.2M128.8 272.7l-7.2-7.2M124.7 272.7l-7.2-7.2M120.9 272.7l-7.2-7.2M116.8 272.7l-7.2-7.2M112.7 272.7l-7.2-7.2M108.6 272.7l-7.2-7.2M104.8 272.7l-7.2-7.2M100.7 272.7l-7.2-7.2M96.6 272.7l-7.2-7.2M92.8 272.7l-7.2-7.2M135.3 272.7l4-4.1M131.2 272.7l7.2-7.2M127.3 272.7l7.2-7.2M123.3 272.7l7.2-7.2M119.2 272.7l7.2-7.2M115.1 272.7l7.2-7.2M111.3 272.7l7.2-7.2M107.2 272.7l7.2-7.2M103.1 272.7l7.2-7.2M99.3 272.7l7.2-7.2M95.2 272.7l7.2-7.2M91.1 272.7l7.2-7.2M87.3 272.7l7.2-7.2"/></g><path class="cls-24" d="M7.1 265.5l-7 7.2h139.2v-7.2H7.1"/><g class="cls-26"><path class="cls-17" d="M139.3 267.2l-1.6-1.7M139.3 271.3l-5.7-5.8M136.7 272.7l-7.2-7.2M132.9 272.7l-7.2-7.2M128.8 272.7l-7.2-7.2M124.7 272.7l-7.2-7.2M120.9 272.7l-7.2-7.2M116.8 272.7l-7.2-7.2M112.7 272.7l-7.2-7.2M108.6 272.7l-7.2-7.2M104.8 272.7l-7.2-7.2M100.7 272.7l-7.2-7.2M96.6 272.7l-7.2-7.2M92.8 272.7l-7.2-7.2M88.8 272.7l-7.2-7.2M84.8 272.7l-7.2-7.2M80.9 272.7l-7.2-7.2M76.9 272.7l-7.2-7.2M72.9 272.7l-7.2-7.2M69 272.7l-7.2-7.2M65 272.7l-7.2-7.2M61 272.7l-7.2-7.2M135.3 272.7l4-4.1M131.2 272.7l7.2-7.2M127.3 272.7l7.2-7.2M123.3 272.7l7.2-7.2M119.2 272.7l7.2-7.2M115.1 272.7l7.2-7.2M111.3 272.7l7.2-7.2M107.2 272.7l7.2-7.2M103.1 272.7l7.2-7.2M99.3 272.7l7.2-7.2M95.2 272.7l7.2-7.2M91.1 272.7l7.2-7.2M87.3 272.7l7.2-7.2M83.3 272.7l7.2-7.2M79.3 272.7l7.2-7.2M75.4 272.7l7.2-7.2M71.4 272.7l7.2-7.2M67.4 272.7l7.2-7.2M63.5 272.7l7.2-7.2M59.5 272.7l7.2-7.2M55.5 272.7l7.2-7.2M51.5 272.7l7.2-7.2"/></g><path class="cls-19" d="M139.3 265.5H7.1M139.3 272.7H.1M139.3 272.7H.1M139.3 265.5H7.1"/><path class="cls-24" d="M190.2 262.6l7.2 10.1v-67.4l-7.2-7.2v64.5"/><path class="cls-17" d="M197.7 209.1l-7.2-7.2M197.7 213.2l-7.2-7.2M197.7 217.3l-7.2-7.2M197.7 221.1l-7.2-7.2M197.7 225.2l-7.2-7.2M197.7 229.3l-7.2-7.2M197.7 233.4l-7.2-7.2M197.7 237.2l-7.2-7.2M197.7 241.3l-7.2-7.2M197.7 245.4l-7.2-7.2M197.7 249.2l-7.2-7.2M197.7 253.3l-7.2-7.2M197.7 257.4l-7.2-7.2M197.7 261.2l-7.2-7.2M197.7 265.3l-7.2-7.2M197.7 269.4l-7.2-7.2M196.7 271.5l1-.9M195 269.1l2.7-2.6M193.3 266.7l4.4-4.1M191.7 264.6l6-6M190.5 261.7l7.2-7.2M190.5 257.8l7.2-7.2M190.5 253.8l7.2-7.2M190.5 249.7l7.2-7.2M190.5 245.6l7.2-7.2M190.5 241.8l7.2-7.2M190.5 237.7l7.2-7.2M190.5 233.6l7.2-7.2M190.5 229.8l7.2-7.2M190.5 225.7l7.2-7.2M190.5 221.6l7.2-7.2M190.5 217.5l7.2-7.2M190.5 213.7l7.2-7.2M190.5 209.6l5.7-5.8M190.5 205.5l3.6-3.6M190.5 201.7l1.6-1.9"/><path class="cls-24" d="M190.2 262.6l7.2 10.1v-67.4l-7.2-7.2v64.5"/><path class="cls-17" d="M197.7 209.1l-7.2-7.2M197.7 213.2l-7.2-7.2M197.7 217.3l-7.2-7.2M197.7 221.1l-7.2-7.2M197.7 225.2l-7.2-7.2M197.7 229.3l-7.2-7.2M197.7 233.4l-7.2-7.2M197.7 237.2l-7.2-7.2M197.7 241.3l-7.2-7.2M197.7 245.4l-7.2-7.2M197.7 249.2l-7.2-7.2M197.7 253.3l-7.2-7.2M197.7 257.4l-7.2-7.2M197.7 261.2l-7.2-7.2M197.7 265.3l-7.2-7.2M197.7 269.4l-7.2-7.2M196.7 271.5l1-.9M195 269.1l2.7-2.6M193.3 266.7l4.4-4.1M191.7 264.6l6-6M190.5 261.7l7.2-7.2M190.5 257.8l7.2-7.2M190.5 253.8l7.2-7.2M190.5 249.7l7.2-7.2M190.5 245.6l7.2-7.2M190.5 241.8l7.2-7.2M190.5 237.7l7.2-7.2M190.5 233.6l7.2-7.2M190.5 229.8l7.2-7.2M190.5 225.7l7.2-7.2M190.5 221.6l7.2-7.2M190.5 217.5l7.2-7.2M190.5 213.7l7.2-7.2M190.5 209.6l5.7-5.8M190.5 205.5l3.6-3.6M190.5 201.7l1.6-1.9"/><path class="cls-19" d="M190.2 207.7v54.9M197.4 205.3v67.4M197.4 205.3v67.4M190.2 207.7v54.9"/><path class="cls-24" d="M144.9 208.2l-5.6-10.4v74.9l5.6-10.1v-54.4"/><path class="cls-17" d="M141 200.7l-1.4-1.4M145.1 208.6l-5.5-5.5M145.1 212.7l-5.5-5.5M145.1 216.8l-5.5-5.5M145.1 220.9l-5.5-5.5M145.1 224.7l-5.5-5.5M145.1 228.8l-5.5-5.5M145.1 232.9l-5.5-5.5M145.1 236.7l-5.5-5.5M145.1 240.8l-5.5-5.5M145.1 244.9l-5.5-5.5M145.1 249l-5.5-5.6M145.1 252.8l-5.5-5.5M145.1 256.9l-5.5-5.5M145.1 261l-5.5-5.6M144.1 264.1l-4.5-4.8M142.7 266.7l-3.1-3.3M141.3 269.4l-1.7-2M139.8 271.8l-.2-.5M139.6 272.5v-.3M139.6 268.4l5-5M139.6 264.6l5.5-5.6M139.6 260.5l5.5-5.5M139.6 256.4l5.5-5.5M139.6 252.6l5.5-5.6M139.6 248.5l5.5-5.5M139.6 244.4l5.5-5.5M139.6 240.6l5.5-5.6M139.6 236.5l5.5-5.5M139.6 232.4l5.5-5.5M139.6 228.3l5.5-5.5M139.6 224.5l5.5-5.5M139.6 220.4l5.5-5.5M139.6 216.3l5.5-5.5M139.6 212.5l5-5.1M139.6 208.4l3.6-3.6M139.6 204.3l2.1-2.1M139.6 200.5l.7-1"/><path class="cls-24" d="M144.9 208.2l-5.6-10.4v74.9l5.6-10.1v-54.4"/><path class="cls-17" d="M141 200.7l-1.4-1.4M145.1 208.6l-5.5-5.5M145.1 212.7l-5.5-5.5M145.1 216.8l-5.5-5.5M145.1 220.9l-5.5-5.5M145.1 224.7l-5.5-5.5M145.1 228.8l-5.5-5.5M145.1 232.9l-5.5-5.5M145.1 236.7l-5.5-5.5M145.1 240.8l-5.5-5.5M145.1 244.9l-5.5-5.5M145.1 249l-5.5-5.6M145.1 252.8l-5.5-5.5M145.1 256.9l-5.5-5.5M145.1 261l-5.5-5.6M144.1 264.1l-4.5-4.8M142.7 266.7l-3.1-3.3M141.3 269.4l-1.7-2M139.8 271.8l-.2-.5M139.6 272.5v-.3M139.6 268.4l5-5M139.6 264.6l5.5-5.6M139.6 260.5l5.5-5.5M139.6 256.4l5.5-5.5M139.6 252.6l5.5-5.6M139.6 248.5l5.5-5.5M139.6 244.4l5.5-5.5M139.6 240.6l5.5-5.6M139.6 236.5l5.5-5.5M139.6 232.4l5.5-5.5M139.6 228.3l5.5-5.5M139.6 224.5l5.5-5.5M139.6 220.4l5.5-5.5M139.6 216.3l5.5-5.5M139.6 212.5l5-5.1M139.6 208.4l3.6-3.6M139.6 204.3l2.1-2.1M139.6 200.5l.7-1"/><path class="cls-19" d="M144.9 262.6v-54.4M139.3 265.5v-67.7M139.3 265.5v-67.7M144.9 262.6v-54.4"/><path class="cls-18" d="M139.3 203.4h-34M139.3 211h-34M139.3 218.7h-34M139.3 226.4h-34M65.4 265.5l-7.9-35.3M41.2 198.1h64.1v33.6H41.2zM122.3 203.4l3.8 3.8h-7.6l3.8-3.8zM61.8 231.7v33.8M69.3 231.7v33.8M76.9 231.7v33.8M84.6 231.7v33.8M92.3 231.7v33.8M100 231.7v33.8"/><path class="cls-18" d="M42.6 199.5h61.2v30.7H42.6zM100 248.5l-3.9 3.8v-7.7l3.9 3.9zM61.8 248.5l-3.8 3.8v-7.7l3.8 3.9z"/><path class="cls-24" d="M154.5 197.8h-15.2l5.6 10.4h9.6v-10.4"/><path class="cls-17" d="M154.7 198.3l-.5-.5M154.7 202.4l-4.6-4.6M154.7 206.2l-8.6-8.4M152.3 208.2L142 197.8M148.5 208.2l-7.5-7.5M151.8 208.2l2.9-2.9M147.7 208.2l7-7M144.6 207.4l9.4-9.6M143.2 204.8l6.7-7M141.7 202.2l4.4-4.4M140.3 199.5l1.7-1.7"/><path class="cls-24" d="M154.5 197.8h-15.2l5.6 10.4h9.6v-10.4"/><path class="cls-17" d="M154.7 198.3l-.5-.5M154.7 202.4l-4.6-4.6M154.7 206.2l-8.6-8.4M152.3 208.2L142 197.8M148.5 208.2l-7.5-7.5M151.8 208.2l2.9-2.9M147.7 208.2l7-7M144.6 207.4l9.4-9.6M143.2 204.8l6.7-7M141.7 202.2l4.4-4.4M140.3 199.5l1.7-1.7"/><path class="cls-19" d="M144.9 208.2h9.6M139.3 197.8h15.2M139.3 197.8h15.2M144.9 208.2h9.6"/><path class="cls-18" d="M157.6 206.7h29.5"/><path class="cls-2" d="M157.6 197.8h29.5"/><path class="cls-18" d="M186.6 197.8h.5"/><path class="cls-24" d="M154.5 197.8h3.1v8.9h-3.1"/><path class="cls-17" d="M157.8 201.4l-3.1-3.1M157.8 205.5l-3.1-3.1M154.9 206.7l-.2-.5M157.1 206.7l.7-.5M154.7 205.3l3.1-3.1M154.7 201.2l3.1-3.1"/><path class="cls-24" d="M190.2 197.8h-3.1v8.9h3.1"/><path class="cls-17" d="M190.5 198.1l-.3-.3M190.5 201.9l-3.2-3.1M190.5 206l-3.2-3.1M189.3 206.7l1.2-1.2M187.3 204.8l3.2-3.1M187.3 200.7l2.7-2.9"/><path class="cls-19" d="M157.6 197.8v8.9M187.1 197.8v8.9M157.6 197.8v8.9M154.5 197.8h3.1M187.1 197.8v8.9M190.2 197.8h-3.1M154.5 208.2v-1.5M190.2 208.2v-1.5M154.5 197.8h3.1M190.2 197.8h-3.1M157.6 206.7h-3.1M187.1 206.7h3.1"/><path class="cls-24" d="M144.9 262.6l-5.6 10.1h58.1l-7.2-10.1h-45.3"/><path class="cls-17" d="M196.9 272.7l-10-10.1M192.9 272.7l-10.1-10.1M188.8 272.7l-10.1-10.1M184.9 272.7l-10-10.1M180.9 272.7l-10.1-10.1M176.8 272.7l-10.1-10.1M172.9 272.7l-10-10.1M168.9 272.7l-10.1-10.1M164.8 272.7l-10.1-10.1M160.9 272.7l-10-10.1M156.9 272.7l-10.1-10.1M152.8 272.7l-8.7-8.6M148.7 272.7l-6-6M144.9 272.7l-3.6-3.3M140.8 272.7l-1-.9M195.5 272.7l1.2-1.2M191.4 272.7l3.6-3.6M187.3 272.7l6-6M183.3 272.7l8.4-8.1M179.4 272.7l10.1-10.1M175.3 272.7l10.1-10.1M171.3 272.7l10-10.1M167.4 272.7l10.1-10.1M163.3 272.7l10.1-10.1M159.3 272.7l10-10.1M155.4 272.7l10.1-10.1M151.3 272.7l10.1-10.1M147.3 272.7l10-10.1M143.2 272.7l10.1-10.1M139.6 272.2l9.8-9.6M144.6 263.4l.7-.8"/><path class="cls-24" d="M144.9 262.6l-5.6 10.1h58.1l-7.2-10.1h-45.3"/><path class="cls-17" d="M196.9 272.7l-10-10.1M192.9 272.7l-10.1-10.1M188.8 272.7l-10.1-10.1M184.9 272.7l-10-10.1M180.9 272.7l-10.1-10.1M176.8 272.7l-10.1-10.1M172.9 272.7l-10-10.1M168.9 272.7l-10.1-10.1M164.8 272.7l-10.1-10.1M160.9 272.7l-10-10.1M156.9 272.7l-10.1-10.1M152.8 272.7l-8.7-8.6M148.7 272.7l-6-6M144.9 272.7l-3.6-3.3M140.8 272.7l-1-.9M195.5 272.7l1.2-1.2M191.4 272.7l3.6-3.6M187.3 272.7l6-6M183.3 272.7l8.4-8.1M179.4 272.7l10.1-10.1M175.3 272.7l10.1-10.1M171.3 272.7l10-10.1M167.4 272.7l10.1-10.1M163.3 272.7l10.1-10.1M159.3 272.7l10-10.1M155.4 272.7l10.1-10.1M151.3 272.7l10.1-10.1M147.3 272.7l10-10.1M143.2 272.7l10.1-10.1M139.6 272.2l9.8-9.6M144.6 263.4l.7-.8"/><path class="cls-19" d="M190.2 262.6h-45.3M197.4 272.7h-58.1M197.4 272.7h-58.1M190.2 262.6h-45.3"/><path class="cls-24" d="M395.9 162.1l-4.3-5.1h-20.7v5.1h25"/><path class="cls-17" d="M371.2 159.2l2.1-2.2M372.4 162.1l5-5.1M376.7 162.1l5-5.1M381 162.1l5.1-5.1M385.1 162.1l5-5.1M389.4 162.1l3.6-3.6M393.7 162.1l1.2-1.2"/><path class="cls-24" d="M395.9 162.1l-4.3-5.1h-20.7v5.1h25"/><path class="cls-17" d="M371.2 159.2l2.1-2.2M372.4 162.1l5-5.1M376.7 162.1l5-5.1M381 162.1l5.1-5.1M385.1 162.1l5-5.1M389.4 162.1l3.6-3.6M393.7 162.1l1.2-1.2"/><path class="cls-19" d="M370.9 162.1h25M370.9 157h20.7M370.9 157h20.7M370.9 162.1h25"/><path class="cls-24" d="M272.5 162.1V157h73.2v5.1h-73.2"/><path class="cls-17" d="M272.8 159.9l2.6-2.9M274.7 162.1l5-5.1M279 162.1l5.1-5.1M283.1 162.1l5-5.1M287.4 162.1l5.1-5.1M291.7 162.1l5.1-5.1M296.1 162.1l5-5.1M300.1 162.1l5.1-5.1M304.5 162.1l5-5.1M308.8 162.1l5-5.1M312.9 162.1l5-5.1M317.2 162.1l5-5.1M321.5 162.1l5-5.1M325.8 162.1l5.1-5.1M329.9 162.1l5-5.1M334.2 162.1l5.1-5.1M338.5 162.1l5.1-5.1M342.6 162.1l3.4-3.1"/><path class="cls-24" d="M272.5 157v5.1h73.2V157h-73.2"/><path class="cls-17" d="M272.8 159.9l2.6-2.9M274.7 162.1l5-5.1M279 162.1l5.1-5.1M283.1 162.1l5-5.1M287.4 162.1l5.1-5.1M291.7 162.1l5.1-5.1M296.1 162.1l5-5.1M300.1 162.1l5.1-5.1M304.5 162.1l5-5.1M308.8 162.1l5-5.1M312.9 162.1l5-5.1M317.2 162.1l5-5.1M321.5 162.1l5-5.1M325.8 162.1l5.1-5.1M329.9 162.1l5-5.1M334.2 162.1l5.1-5.1M338.5 162.1l5.1-5.1M342.6 162.1l3.4-3.1"/><path class="cls-19" d="M272.5 162.1h73.2M276.9 157h68.8M276.9 157h68.8M272.5 162.1h73.2"/><path class="cls-24" d="M245.9 157h-5.8v5.1h5.8V157"/><path class="cls-17" d="M240.4 158.2l1.2-1.2M240.6 162.1l5.1-5.1M244.9 162.1l1.2-1"/><path class="cls-24" d="M245.9 157h-5.8v5.1h5.8V157"/><path class="cls-17" d="M240.4 158.2l1.2-1.2M240.6 162.1l5.1-5.1M244.9 162.1l1.2-1"/><path class="cls-19" d="M240.1 162.1h5.8M240.1 157h5.8M240.1 157h5.8M240.1 162.1h5.8M240.1 157v5.1"/><path class="cls-2" d="M345.7 162.1h25.2M345.7 157h25.2"/><path class="cls-18" d="M346.9 162.1V157M369.7 162.1V157"/><path class="cls-19" d="M345.7 162.1V157M370.9 162.1V157"/><path class="cls-17" d="M369.7 134.3c-12.4 0-22.7 10.2-22.7 22.7M369.7 157v-22.8"/><path class="cls-2" d="M245.9 162.1h26.6M245.9 157h26.6"/><path class="cls-18" d="M248.1 162.1V157M270.6 162.1V157"/><path class="cls-19" d="M245.9 162.1V157M272.5 162.1V157"/><path class="cls-17" d="M270.6 134.3c-12.4 0-22.7 10.2-22.7 22.7M270.6 157v-22.8"/><path class="cls-24" d="M272.5 71.6V157h4.4V71.6h-4.4"/><path class="cls-17" d="M272.8 75l3.1-3.4M272.8 79l4.3-4.3M272.8 83.4l4.3-4.4M272.8 87.7l4.3-4.3M272.8 91.8l4.3-4.4M272.8 96.1l4.3-4.3M272.8 100.4l4.3-4.3M272.8 104.7l4.3-4.3M272.8 108.8l4.3-4.3M272.8 113.1l4.3-4.3M272.8 117.4l4.3-4.3M272.8 121.5l4.3-4.3M272.8 125.8l4.3-4.3M272.8 130.2l4.3-4.4M272.8 134.5l4.3-4.3M272.8 138.6l4.3-4.4M272.8 142.9l4.3-4.3M272.8 147.2l4.3-4.3M272.8 151.3l4.3-4.3M272.8 155.6l4.3-4.3M275.4 157l1.7-1.4"/><path class="cls-24" d="M272.5 71.6V157h4.4V71.6h-4.4"/><path class="cls-17" d="M272.8 75l3.1-3.4M272.8 79l4.3-4.3M272.8 83.4l4.3-4.4M272.8 87.7l4.3-4.3M272.8 91.8l4.3-4.4M272.8 96.1l4.3-4.3M272.8 100.4l4.3-4.3M272.8 104.7l4.3-4.3M272.8 108.8l4.3-4.3M272.8 113.1l4.3-4.3M272.8 117.4l4.3-4.3M272.8 121.5l4.3-4.3M272.8 125.8l4.3-4.3M272.8 130.2l4.3-4.4M272.8 134.5l4.3-4.3M272.8 138.6l4.3-4.4M272.8 142.9l4.3-4.3M272.8 147.2l4.3-4.3M272.8 151.3l4.3-4.3M272.8 155.6l4.3-4.3M275.4 157l1.7-1.4"/><path class="cls-19" d="M276.9 157V71.6M272.5 157V71.6M276.9 71.6h-4.4M272.5 157V71.6M276.9 157V71.6"/><path class="cls-24" d="M391.6 71.6V157l4.3 5.1V71.6h-4.3"/><path class="cls-17" d="M391.8 74.7l3.1-3.1M391.8 79l4.3-4.3M391.8 83.4l4.3-4.4M391.8 87.7l4.3-4.3M391.8 91.8l4.3-4.4M391.8 96.1l4.3-4.3M391.8 100.4l4.3-4.3M391.8 104.5l4.3-4.3M391.8 108.8l4.3-4.3M391.8 113.1l4.3-4.3M391.8 117.4l4.3-4.3M391.8 121.5l4.3-4.3M391.8 125.8l4.3-4.3M391.8 130.2l4.3-4.4M391.8 134.2l4.3-4.3M391.8 138.6l4.3-4.4M391.8 142.9l4.3-4.3M391.8 147.2l4.3-4.3M391.8 151.3l4.3-4.3M391.8 155.6l4.3-4.3M393 158.5l3.1-2.9M394.9 160.9l1.2-1.2"/><path class="cls-24" d="M391.6 71.6V157l4.3 5.1V71.6h-4.3"/><path class="cls-17" d="M391.8 74.7l3.1-3.1M391.8 79l4.3-4.3M391.8 83.4l4.3-4.4M391.8 87.7l4.3-4.3M391.8 91.8l4.3-4.4M391.8 96.1l4.3-4.3M391.8 100.4l4.3-4.3M391.8 104.5l4.3-4.3M391.8 108.8l4.3-4.3M391.8 113.1l4.3-4.3M391.8 117.4l4.3-4.3M391.8 121.5l4.3-4.3M391.8 125.8l4.3-4.3M391.8 130.2l4.3-4.4M391.8 134.2l4.3-4.3M391.8 138.6l4.3-4.4M391.8 142.9l4.3-4.3M391.8 147.2l4.3-4.3M391.8 151.3l4.3-4.3M391.8 155.6l4.3-4.3M393 158.5l3.1-2.9M394.9 160.9l1.2-1.2"/><path class="cls-19" d="M395.9 162.1V71.6M391.6 157V71.6M395.9 71.6h-4.3M391.6 157V71.6M395.9 162.1V71.6"/><path class="cls-24" d="M548.1 211.8l-4.4-5.1H429.5l-4.3 5.1h122.9"/><path class="cls-17" d="M428.5 208.2l1.2-1.5M429 211.8l5.1-5.1M433.3 211.8l5.1-5.1M437.4 211.8l5.1-5.1M441.7 211.8l5.1-5.1M446.1 211.8l5-5.1M450.4 211.8l5-5.1M454.5 211.8l5-5.1M458.8 211.8l5-5.1M463.1 211.8l5-5.1M467.2 211.8l5-5.1M471.5 211.8l5-5.1M475.8 211.8l5.1-5.1M480.1 211.8l5.1-5.1M484.2 211.8l5.1-5.1M488.5 211.8l5.1-5.1M492.9 211.8l5-5.1M496.9 211.8l5.1-5.1M501.3 211.8l5-5.1M505.6 211.8l5-5.1M509.7 211.8l5-5.1M514 211.8l5-5.1M518.3 211.8l5-5.1M522.6 211.8l5.1-5.1M526.7 211.8l5-5.1M531 211.8l5.1-5.1M535.3 211.8l5.1-5.1M539.4 211.8l4.8-4.6M543.7 211.8l2.4-2.4M548.1 211.8"/><path class="cls-24" d="M548.1 211.8l-4.4-5.1H429.5l-4.3 5.1h122.9"/><path class="cls-17" d="M428.5 208.2l1.2-1.5M429 211.8l5.1-5.1M433.3 211.8l5.1-5.1M437.4 211.8l5.1-5.1M441.7 211.8l5.1-5.1M446.1 211.8l5-5.1M450.4 211.8l5-5.1M454.5 211.8l5-5.1M458.8 211.8l5-5.1M463.1 211.8l5-5.1M467.2 211.8l5-5.1M471.5 211.8l5-5.1M475.8 211.8l5.1-5.1M480.1 211.8l5.1-5.1M484.2 211.8l5.1-5.1M488.5 211.8l5.1-5.1M492.9 211.8l5-5.1M496.9 211.8l5.1-5.1M501.3 211.8l5-5.1M505.6 211.8l5-5.1M509.7 211.8l5-5.1M514 211.8l5-5.1M518.3 211.8l5-5.1M522.6 211.8l5.1-5.1M526.7 211.8l5-5.1M531 211.8l5.1-5.1M535.3 211.8l5.1-5.1M539.4 211.8l4.8-4.6M543.7 211.8l2.4-2.4M548.1 211.8"/><path class="cls-19" d="M483.3 211.8h64.8M425.2 211.8h53.7M429.5 206.7h114.2M429.5 206.7h114.2M483.3 211.8h64.8M425.2 211.8h53.7"/><path class="cls-24" d="M483.3 211.8h-4.4v4.8h4.4v-4.8"/><path class="cls-17" d="M479.2 212.7l.9-.9M479.4 216.6l4.1-3.9"/><path class="cls-24" d="M483.3 211.8h-4.4v4.8h4.4v-4.8"/><path class="cls-17" d="M479.2 212.7l.9-.9M479.4 216.6l4.1-3.9"/><path class="cls-19" d="M483.3 216.6v-4.8M478.9 216.6v-4.8M478.9 216.6v-4.8M483.3 216.6v-4.8"/><path class="cls-24" d="M483.3 274.2h-4.4v-32.4h4.4v32.4"/><path class="cls-17" d="M479.2 242.5l.5-.7M479.2 246.8l4.3-4.3M479.2 250.9l4.3-4.3M479.2 255.2l4.3-4.3M479.2 259.5l4.3-4.3M479.2 263.8l4.3-4.3M479.2 267.9l4.3-4.3M479.2 272.2l4.3-4.3M481.3 274.2l2.2-2"/><path class="cls-24" d="M478.9 274.2h4.4v-32.4h-4.4v32.4"/><path class="cls-17" d="M479.2 242.5l.5-.7M479.2 246.8l4.3-4.3M479.2 250.9l4.3-4.3M479.2 255.2l4.3-4.3M479.2 259.5l4.3-4.3M479.2 263.8l4.3-4.3M479.2 267.9l4.3-4.3M479.2 272.2l4.3-4.3M481.3 274.2l2.2-2"/><path class="cls-19" d="M483.3 274.2v-32.4M478.9 274.2v-32.4M478.9 274.2v-32.4M483.3 274.2v-32.4"/><path class="cls-2" d="M483.3 241.8v-25.2M478.9 241.8v-25.2"/><path class="cls-18" d="M483.3 240.6h-4.4M483.3 217.8h-4.4"/><path class="cls-19" d="M483.3 241.8h-4.4M483.3 216.6h-4.4"/><path class="cls-17" d="M456.3 217.8c0 12.4 10.2 22.7 22.7 22.7M478.9 217.8h-22.5"/><path class="cls-24" d="M197.4 197.8h-7.2l7.2 7.2v-7.2"/><path class="cls-17" d="M197.7 201.2l-3.4-3.4M196.2 203.8l1.5-1.4M194.3 201.7l3.4-3.4M192.1 199.8l2-2"/><path class="cls-24" d="M197.4 197.8h-7.2l7.2 7.2v-7.2"/><path class="cls-17" d="M197.7 201.2l-3.4-3.4M196.2 203.8l1.5-1.4M194.3 201.7l3.4-3.4M192.1 199.8l2-2"/><path class="cls-19" d="M190.2 197.8h7.2M190.2 197.8h7.2"/><path class="cls-18" d="M197.4 203.8h2.4v1.7h-2.4zM227.2 203.8h6v1.7h-6z"/><path class="cls-18" d="M199.8 203.8h27.4v1.7h-27.4zM199.8 203.8h27.4"/><path class="cls-2" d="M199.6 197.8h27.8"/><path class="cls-18" d="M226.9 197.8h.5"/><path class="cls-24" d="M197.4 197.8h2.2v6h-2.2"/><path class="cls-17" d="M199.8 199.3l-1.7-1.5M199.8 203.4l-2.1-2.2M197.7 202.4l2.1-2.2M197.7 198.3l.4-.5"/><path class="cls-24" d="M233.2 197.8h-5.8v6h5.8"/><path class="cls-17" d="M233.4 201l-3.1-3.2M232.2 203.8l-4.5-4.8M228.1 203.8l-.4-.7M232.2 203.8l1.2-1.2M228.1 203.8l5.3-5M227.7 200.5l2.6-2.7"/><path class="cls-19" d="M199.6 197.8v6M227.4 197.8v6M199.6 197.8v6M197.4 197.8h2.2M227.4 197.8v6M233.2 197.8h-5.8M197.4 205v-1.2M233.2 205v-1.2M197.4 197.8h2.2M233.2 197.8h-5.8M199.6 203.8h-2.2M227.4 203.8h5.8"/><path class="cls-24" d="M302.1 203.8l-7-7.2v17.6l7 6.9v-17.3"/><path class="cls-17" d="M302.3 205.5l-7-6.9M302.3 209.6l-7-7M302.3 213.7l-7-7M302.3 217.5l-7-6.9M300.6 219.7l1.7-1.7M298.7 217.5l3.6-3.6M296.5 215.6l5.8-5.5M295.3 213l7-7M295.3 208.9l6-6M295.3 205l4.1-4M295.3 201l2-2.2M295.3 196.9"/><path class="cls-24" d="M302.1 203.8l-7-7.2v17.6l7 6.9v-17.3"/><path class="cls-17" d="M302.3 205.5l-7-6.9M302.3 209.6l-7-7M302.3 213.7l-7-7M302.3 217.5l-7-6.9M300.6 219.7l1.7-1.7M298.7 217.5l3.6-3.6M296.5 215.6l5.8-5.5M295.3 213l7-7M295.3 208.9l6-6M295.3 205l4.1-4M295.3 201l2-2.2M295.3 196.9"/><path class="cls-19" d="M302.1 221.1v-17.3M295.1 214.2v-17.6M295.1 214.2v-17.6M302.1 221.1v-17.3"/><path class="cls-24" d="M365.9 196.6l-7.2 7.2v74.9l7.2-7.2v-74.9"/><path class="cls-17" d="M366.1 197.4l-.4-.5M366.1 201.2l-2.4-2.2M366.1 205.3l-4.5-4.3M366.1 209.4l-6.4-6.5M366.1 213.4l-7.2-7.2M366.1 217.3l-7.2-7.2M366.1 221.4l-7.2-7.2M366.1 225.4l-7.2-7.2M366.1 229.3l-7.2-7.2M366.1 233.4l-7.2-7.2M366.1 237.4l-7.2-7.2M366.1 241.3l-7.2-7.2M366.1 245.4l-7.2-7.2M366.1 249.4l-7.2-7.2M366.1 253.5l-7.2-7.2M366.1 257.4l-7.2-7.2M366.1 261.4l-7.2-7.2M366.1 265.5l-7.2-7.2M366.1 269.4l-7.2-7.2M364.9 272.5l-6-6.3M363 274.4l-4.1-4.1M361.1 276.6l-2.2-2.4M358.9 278.5v-.3M358.9 277.8l7.2-7.2M358.9 273.7l7.2-7.2M358.9 269.6l7.2-7.2M358.9 265.5l7.2-7.2M358.9 261.7l7.2-7.2M358.9 257.6l7.2-7.2M358.9 253.5l7.2-7.2M358.9 249.7l7.2-7.2M358.9 245.6l7.2-7.2M358.9 241.5l7.2-7.2M358.9 237.7l7.2-7.2M358.9 233.6l7.2-7.2M358.9 229.5l7.2-7.2M358.9 225.4l7.2-7.2M358.9 221.6l7.2-7.2M358.9 217.5l7.2-7.2M358.9 213.4l7.2-7.2M358.9 209.6l7.2-7.2M358.9 205.5l7.2-7.2"/><path class="cls-24" d="M365.9 196.6l-7.2 7.2v74.9l7.2-7.2v-74.9"/><path class="cls-17" d="M366.1 197.4l-.4-.5M366.1 201.2l-2.4-2.2M366.1 205.3l-4.5-4.3M366.1 209.4l-6.4-6.5M366.1 213.4l-7.2-7.2M366.1 217.3l-7.2-7.2M366.1 221.4l-7.2-7.2M366.1 225.4l-7.2-7.2M366.1 229.3l-7.2-7.2M366.1 233.4l-7.2-7.2M366.1 237.4l-7.2-7.2M366.1 241.3l-7.2-7.2M366.1 245.4l-7.2-7.2M366.1 249.4l-7.2-7.2M366.1 253.5l-7.2-7.2M366.1 257.4l-7.2-7.2M366.1 261.4l-7.2-7.2M366.1 265.5l-7.2-7.2M366.1 269.4l-7.2-7.2M364.9 272.5l-6-6.3M363 274.4l-4.1-4.1M361.1 276.6l-2.2-2.4M358.9 278.5v-.3M358.9 277.8l7.2-7.2M358.9 273.7l7.2-7.2M358.9 269.6l7.2-7.2M358.9 265.5l7.2-7.2M358.9 261.7l7.2-7.2M358.9 257.6l7.2-7.2M358.9 253.5l7.2-7.2M358.9 249.7l7.2-7.2M358.9 245.6l7.2-7.2M358.9 241.5l7.2-7.2M358.9 237.7l7.2-7.2M358.9 233.6l7.2-7.2M358.9 229.5l7.2-7.2M358.9 225.4l7.2-7.2M358.9 221.6l7.2-7.2M358.9 217.5l7.2-7.2M358.9 213.4l7.2-7.2M358.9 209.6l7.2-7.2M358.9 205.5l7.2-7.2"/><path class="cls-19" d="M365.9 271.5V201M358.7 278.7v-74.9M358.7 278.7v-74.9M365.9 271.5V201"/><path class="cls-24" d="M295.1 196.6l7 7.2h56.6l7.2-7.2h-70.8"/><path class="cls-17" d="M365.7 196.9l-.3-.3M363.7 199l-2.4-2.4M361.6 201l-4.3-4.4M359.7 202.9l-6.3-6.3M356.5 203.8l-7.2-7.2M352.5 203.8l-7.2-7.2M348.6 203.8l-7.2-7.2M344.5 203.8l-7.2-7.2M340.5 203.8l-7.2-7.2M336.4 203.8l-7.2-7.2M332.5 203.8l-7.2-7.2M328.5 203.8l-7.2-7.2M324.4 203.8l-7.2-7.2M320.5 203.8l-7.2-7.2M316.5 203.8l-7.2-7.2M312.4 203.8l-7.2-7.2M308.5 203.8l-7.2-7.2M304.5 203.8l-7.2-7.2M356.5 203.8l7.2-7.2M352.5 203.8l7.2-7.2M348.4 203.8l7.2-7.2M344.5 203.8l7.2-7.2M340.5 203.8l7.2-7.2M336.4 203.8l7.2-7.2M332.3 203.8l7.2-7.2M328.5 203.8l7.2-7.2M324.4 203.8l7.2-7.2M320.3 203.8l7.2-7.2M316.5 203.8l7.2-7.2M312.4 203.8l7.2-7.2M308.3 203.8l7.2-7.2M304.5 203.8l7.2-7.2M301.3 202.9l6.3-6.3M299.4 201l4.1-4.4M297.3 198.8l2.1-2.2M295.3 196.9l.3-.3"/><path class="cls-24" d="M295.1 196.6l7 7.2h56.6l7.2-7.2h-70.8"/><path class="cls-17" d="M365.7 196.9l-.3-.3M363.7 199l-2.4-2.4M361.6 201l-4.3-4.4M359.7 202.9l-6.3-6.3M356.5 203.8l-7.2-7.2M352.5 203.8l-7.2-7.2M348.6 203.8l-7.2-7.2M344.5 203.8l-7.2-7.2M340.5 203.8l-7.2-7.2M336.4 203.8l-7.2-7.2M332.5 203.8l-7.2-7.2M328.5 203.8l-7.2-7.2M324.4 203.8l-7.2-7.2M320.5 203.8l-7.2-7.2M316.5 203.8l-7.2-7.2M312.4 203.8l-7.2-7.2M308.5 203.8l-7.2-7.2M304.5 203.8l-7.2-7.2M356.5 203.8l7.2-7.2M352.5 203.8l7.2-7.2M348.4 203.8l7.2-7.2M344.5 203.8l7.2-7.2M340.5 203.8l7.2-7.2M336.4 203.8l7.2-7.2M332.3 203.8l7.2-7.2M328.5 203.8l7.2-7.2M324.4 203.8l7.2-7.2M320.3 203.8l7.2-7.2M316.5 203.8l7.2-7.2M312.4 203.8l7.2-7.2M308.3 203.8l7.2-7.2M304.5 203.8l7.2-7.2M301.3 202.9l6.3-6.3M299.4 201l4.1-4.4M297.3 198.8l2.1-2.2M295.3 196.9l.3-.3"/><path class="cls-19" d="M365.9 196.6h-70.8M358.7 203.8h-56.6M358.7 203.8h-56.6M365.9 196.6h-70.8"/><path class="cls-24" d="M240.1 214.2l-6.9 6.9h68.9l-7-6.9h-55"/><path class="cls-17" d="M301.6 221.1l-7-6.9M297.7 221.1l-6.9-6.9M293.7 221.1l-7-6.9M289.6 221.1l-7-6.9M285.7 221.1l-6.9-6.9M281.7 221.1l-7-6.9M277.6 221.1l-7-6.9M273.5 221.1l-7-6.9M269.7 221.1l-7-6.9M265.6 221.1l-7-6.9M261.5 221.1l-7-6.9M257.7 221.1l-7-6.9M253.6 221.1l-7-6.9M249.5 221.1l-7-6.9M245.4 221.1l-6-6M241.6 221.1l-4.1-4.1M237.5 221.1l-2.2-2.1M299.2 221.1l1.4-1.4M295.1 221.1l3.6-3.6M291 221.1l5.5-5.5M287.2 221.1l6.9-6.9M283.1 221.1l7-6.9M279 221.1l7-6.9M274.9 221.1l7-6.9M271.1 221.1l7-6.9M267 221.1l7-6.9M262.9 221.1l7-6.9M259.1 221.1l7-6.9M255 221.1l7-6.9M250.9 221.1l7-6.9M247.1 221.1l7-6.9M243 221.1l7-6.9M238.9 221.1l7-6.9M234.9 221.1l6.9-6.9"/><path class="cls-24" d="M240.1 214.2l-6.9 6.9h68.9l-7-6.9h-55"/><path class="cls-17" d="M301.6 221.1l-7-6.9M297.7 221.1l-6.9-6.9M293.7 221.1l-7-6.9M289.6 221.1l-7-6.9M285.7 221.1l-6.9-6.9M281.7 221.1l-7-6.9M277.6 221.1l-7-6.9M273.5 221.1l-7-6.9M269.7 221.1l-7-6.9M265.6 221.1l-7-6.9M261.5 221.1l-7-6.9M257.7 221.1l-7-6.9M253.6 221.1l-7-6.9M249.5 221.1l-7-6.9M245.4 221.1l-6-6M241.6 221.1l-4.1-4.1M237.5 221.1l-2.2-2.1M299.2 221.1l1.4-1.4M295.1 221.1l3.6-3.6M291 221.1l5.5-5.5M287.2 221.1l6.9-6.9M283.1 221.1l7-6.9M279 221.1l7-6.9M274.9 221.1l7-6.9M271.1 221.1l7-6.9M267 221.1l7-6.9M262.9 221.1l7-6.9M259.1 221.1l7-6.9M255 221.1l7-6.9M250.9 221.1l7-6.9M247.1 221.1l7-6.9M243 221.1l7-6.9M238.9 221.1l7-6.9M234.9 221.1l6.9-6.9"/><path class="cls-19" d="M295.1 214.2h-55M302.1 221.1h-68.9M302.1 221.1h-68.9M295.1 214.2h-55"/><path class="cls-24" d="M365.9 271.5l-7.2 7.2h117.4l7.2-7.2H365.9"/><path class="cls-17" d="M481.8 273l-1.4-1.5M479.9 275.1l-3.6-3.6M477.7 277l-5.5-5.5M475.6 278.7l-7.2-7.2M471.5 278.7l-7.2-7.2M467.4 278.7l-7.2-7.2M463.6 278.7l-7.2-7.2M459.5 278.7l-7.2-7.2M455.4 278.7l-7.2-7.2M451.3 278.7l-7.2-7.2M447.5 278.7l-7.2-7.2M443.4 278.7l-7.2-7.2M439.3 278.7l-7.2-7.2M435.5 278.7l-7.2-7.2M431.4 278.7l-7.2-7.2M427.3 278.7l-7.2-7.2M423.5 278.7l-7.2-7.2M419.4 278.7l-7.2-7.2M415.3 278.7l-7.2-7.2M411.3 278.7l-7.2-7.2M407.4 278.7l-7.2-7.2M403.3 278.7l-7.2-7.2M399.3 278.7l-7.2-7.2M395.4 278.7l-7.2-7.2M391.3 278.7l-7.2-7.2M387.3 278.7l-7.2-7.2M383.4 278.7l-7.2-7.2M379.3 278.7l-7.2-7.2M375.3 278.7l-7.2-7.2M371.2 278.7l-6.3-6.2M367.3 278.7l-4.3-4.3M363.3 278.7l-2.2-2.1M359.2 278.7l-.3-.2M473.9 278.7l7.2-7.2M470.1 278.7l7.2-7.2M466 278.7l7.2-7.2M461.9 278.7l7.2-7.2M458.1 278.7l7.2-7.2M454 278.7l7.2-7.2M449.9 278.7l7.2-7.2M446.1 278.7l7.2-7.2M442 278.7l7.2-7.2M437.9 278.7l7.2-7.2M433.8 278.7l7.2-7.2M430 278.7l7.2-7.2M425.9 278.7l7.2-7.2M421.8 278.7l7.2-7.2M418 278.7l7.2-7.2M413.9 278.7l7.2-7.2M409.8 278.7l7.2-7.2M406 278.7l7.2-7.2M401.9 278.7l7.2-7.2M397.8 278.7l7.2-7.2M393.7 278.7l7.2-7.2M389.9 278.7l7.2-7.2M385.8 278.7l7.2-7.2M381.7 278.7l7.2-7.2M377.9 278.7l7.2-7.2M373.8 278.7l7.2-7.2M369.7 278.7l7.2-7.2M365.7 278.7l7.2-7.2M361.8 278.7l7.2-7.2"/><path class="cls-24" d="M365.9 271.5l-7.2 7.2h117.4l7.2-7.2H365.9"/><path class="cls-17" d="M481.8 273l-1.4-1.5M479.9 275.1l-3.6-3.6M477.7 277l-5.5-5.5M475.6 278.7l-7.2-7.2M471.5 278.7l-7.2-7.2M467.4 278.7l-7.2-7.2M463.6 278.7l-7.2-7.2M459.5 278.7l-7.2-7.2M455.4 278.7l-7.2-7.2M451.3 278.7l-7.2-7.2M447.5 278.7l-7.2-7.2M443.4 278.7l-7.2-7.2M439.3 278.7l-7.2-7.2M435.5 278.7l-7.2-7.2M431.4 278.7l-7.2-7.2M427.3 278.7l-7.2-7.2M423.5 278.7l-7.2-7.2M419.4 278.7l-7.2-7.2M415.3 278.7l-7.2-7.2M411.3 278.7l-7.2-7.2M407.4 278.7l-7.2-7.2M403.3 278.7l-7.2-7.2M399.3 278.7l-7.2-7.2M395.4 278.7l-7.2-7.2M391.3 278.7l-7.2-7.2M387.3 278.7l-7.2-7.2M383.4 278.7l-7.2-7.2M379.3 278.7l-7.2-7.2M375.3 278.7l-7.2-7.2M371.2 278.7l-6.3-6.2M367.3 278.7l-4.3-4.3M363.3 278.7l-2.2-2.1M359.2 278.7l-.3-.2M473.9 278.7l7.2-7.2M470.1 278.7l7.2-7.2M466 278.7l7.2-7.2M461.9 278.7l7.2-7.2M458.1 278.7l7.2-7.2M454 278.7l7.2-7.2M449.9 278.7l7.2-7.2M446.1 278.7l7.2-7.2M442 278.7l7.2-7.2M437.9 278.7l7.2-7.2M433.8 278.7l7.2-7.2M430 278.7l7.2-7.2M425.9 278.7l7.2-7.2M421.8 278.7l7.2-7.2M418 278.7l7.2-7.2M413.9 278.7l7.2-7.2M409.8 278.7l7.2-7.2M406 278.7l7.2-7.2M401.9 278.7l7.2-7.2M397.8 278.7l7.2-7.2M393.7 278.7l7.2-7.2M389.9 278.7l7.2-7.2M385.8 278.7l7.2-7.2M381.7 278.7l7.2-7.2M377.9 278.7l7.2-7.2M373.8 278.7l7.2-7.2M369.7 278.7l7.2-7.2M365.7 278.7l7.2-7.2M361.8 278.7l7.2-7.2"/><path class="cls-19" d="M483.3 271.5H365.9M476.1 278.7H358.7M476.1 278.7H358.7M483.3 271.5H365.9"/><path class="cls-24" d="M425.2 201l4.3-4.4h-34.1v4.4h29.8"/><path class="cls-17" d="M395.7 198.6l1.6-2M397.3 201l4.4-4.4M401.7 201l4.3-4.4M405.7 201l4.4-4.4M410.1 201l4.3-4.4M414.4 201l4.3-4.4M418.5 201l4.3-4.4M422.8 201l4.3-4.4"/><path class="cls-24" d="M425.2 201l4.3-4.4h-34.1v4.4h29.8"/><path class="cls-17" d="M395.7 198.6l1.6-2M397.3 201l4.4-4.4M401.7 201l4.3-4.4M405.7 201l4.4-4.4M410.1 201l4.3-4.4M414.4 201l4.3-4.4M418.5 201l4.3-4.4M422.8 201l4.3-4.4"/><path class="cls-19" d="M395.4 201h29.8M395.4 196.6h34.1M395.4 196.6h34.1M395.4 201h29.8"/><path class="cls-24" d="M370.2 196.6h-4.3v4.4h4.3v-4.4"/><path class="cls-17" d="M366.1 198.3l1.5-1.7M367.6 201l2.9-2.9"/><path class="cls-24" d="M370.2 196.6h-4.3v4.4h4.3v-4.4"/><path class="cls-17" d="M366.1 198.3l1.5-1.7M367.6 201l2.9-2.9"/><path class="cls-19" d="M365.9 201h4.3M365.9 196.6h4.3M365.9 196.6h4.3M365.9 201h4.3M365.9 196.6v4.4"/><path class="cls-2" d="M370.2 201h25.2M370.2 196.6h25.2"/><path class="cls-18" d="M371.4 201v-4.4M394 201v-4.4"/><path class="cls-19" d="M370.2 201v-4.4M395.4 201v-4.4"/><path class="cls-17" d="M371.4 223.6c12.4 0 22.7-10.2 22.7-22.7M371.4 201v22.5"/><path class="cls-24" d="M483.3 290l-7.2 7h128.1l-6-7H483.3"/><path class="cls-17" d="M602.1 297l-7-7M598 297l-7-7M593.9 297l-7-7M590.1 297l-7-7M586 297l-7-7M581.9 297l-7-7M577.8 297l-6.9-7M574 297l-7-7M569.9 297l-7-7M565.8 297l-6.9-7M562 297l-7-7M557.9 297l-7-7M553.8 297l-6.9-7M550 297l-7-7M545.9 297l-7-7M541.8 297l-6.9-7M537.7 297l-6.9-7M533.9 297l-7-7M529.8 297l-6.9-7M525.7 297l-6.9-7M521.9 297l-7-7M517.8 297l-6.9-7M513.7 297l-6.9-7M509.9 297l-7-7M505.8 297l-6.9-7M501.7 297l-6.9-7M497.7 297l-7-7M493.8 297l-6.9-7M489.7 297l-6.7-6.8M485.7 297l-4.6-4.8M481.8 297l-2.9-2.7M477.7 297l-.7-.8M604 297l.2-.3M600.1 297l2.2-2.4M596.1 297l4.5-4.4M592 297l6.7-6.5M588.1 297l7-7M584.1 297l6.9-7M580 297l6.9-7M576.1 297l7-7M572.1 297l6.9-7M568 297l6.9-7M563.9 297l7-7M560.1 297l6.9-7M556 297l6.9-7M551.9 297l7-7M548.1 297l6.9-7M544 297l6.9-7M539.9 297l7-7M536.1 297l6.9-7M532 297l6.9-7M527.9 297l7-7M523.8 297l7-7M520 297l6.9-7M515.9 297l7-7M511.8 297l7-7M508 297l6.9-7M503.9 297l7-7M499.8 297l7-7M496 297l6.9-7M491.9 297l7-7M487.8 297l7-7M483.7 297l7-7M479.9 297l7-7"/><path class="cls-24" d="M483.3 290l-7.2 7h128.1l-6-7H483.3"/><path class="cls-17" d="M602.1 297l-7-7M598 297l-7-7M593.9 297l-7-7M590.1 297l-7-7M586 297l-7-7M581.9 297l-7-7M577.8 297l-6.9-7M574 297l-7-7M569.9 297l-7-7M565.8 297l-6.9-7M562 297l-7-7M557.9 297l-7-7M553.8 297l-6.9-7M550 297l-7-7M545.9 297l-7-7M541.8 297l-6.9-7M537.7 297l-6.9-7M533.9 297l-7-7M529.8 297l-6.9-7M525.7 297l-6.9-7M521.9 297l-7-7M517.8 297l-6.9-7M513.7 297l-6.9-7M509.9 297l-7-7M505.8 297l-6.9-7M501.7 297l-6.9-7M497.7 297l-7-7M493.8 297l-6.9-7M489.7 297l-6.7-6.8M485.7 297l-4.6-4.8M481.8 297l-2.9-2.7M477.7 297l-.7-.8M604 297l.2-.3M600.1 297l2.2-2.4M596.1 297l4.5-4.4M592 297l6.7-6.5M588.1 297l7-7M584.1 297l6.9-7M580 297l6.9-7M576.1 297l7-7M572.1 297l6.9-7M568 297l6.9-7M563.9 297l7-7M560.1 297l6.9-7M556 297l6.9-7M551.9 297l7-7M548.1 297l6.9-7M544 297l6.9-7M539.9 297l7-7M536.1 297l6.9-7M532 297l6.9-7M527.9 297l7-7M523.8 297l7-7M520 297l6.9-7M515.9 297l7-7M511.8 297l7-7M508 297l6.9-7M503.9 297l7-7M499.8 297l7-7M496 297l6.9-7M491.9 297l7-7M487.8 297l7-7M483.7 297l7-7M479.9 297l7-7"/><path class="cls-19" d="M598.2 290H483.3M598.5 297H476.1M598.5 297H476.1M598.2 290H483.3M604.2 297h-5.7"/><path class="cls-24" d="M476.1 297l7.2-7v-18.5l-7.2 7.2V297"/><path class="cls-17" d="M483.5 274.6l-1.7-1.6M483.5 278.5l-3.6-3.4M483.5 282.6l-5.8-5.6M483.5 286.6l-7.2-7.2M483 290.2l-6.7-6.9M481.1 292.2l-4.8-4.8M478.9 294.3l-2.6-2.9M477 296.2l-.7-.7M476.3 296.5l7.2-7.2M476.3 292.6l7.2-7.2M476.3 288.6l7.2-7.2M476.3 284.5l7.2-7.2M476.3 280.6l7.2-7.2"/><path class="cls-24" d="M476.1 297l7.2-7v-18.5l-7.2 7.2V297"/><path class="cls-17" d="M483.5 274.6l-1.7-1.6M483.5 278.5l-3.6-3.4M483.5 282.6l-5.8-5.6M483.5 286.6l-7.2-7.2M483 290.2l-6.7-6.9M481.1 292.2l-4.8-4.8M478.9 294.3l-2.6-2.9M477 296.2l-.7-.7M476.3 296.5l7.2-7.2M476.3 292.6l7.2-7.2M476.3 288.6l7.2-7.2M476.3 284.5l7.2-7.2M476.3 280.6l7.2-7.2"/><path class="cls-19" d="M476.1 278.7V297M483.3 271.5V290M483.3 271.5V290M476.1 278.7V297"/><path class="cls-18" d="M430.5 189h77v17.3h-77zM431.2 191.1V189M439.6 191.1V189M456.6 191.1V189M473.7 191.1V189M490.7 191.1V189"/><path class="cls-24" d="M489.7 201.2v-8.9-.4c0-.1 0-.3-.1-.4 0-.1-.1-.2-.2-.3 0-.1-.2-.2-.2-.3 0 0-.2-.2-.3-.2-.1 0-.2-.1-.3-.2-.1 0-.2 0-.4-.1h-12c-.1 0-.3 0-.4.1-.1 0-.2.1-.3.2-.1 0-.2.2-.3.2 0 0-.2.2-.2.3 0 .1-.1.2-.2.3 0 .1 0 .2-.1.4V201.6c0 .1 0 .3.1.4 0 .1.1.2.2.3 0 .1.2.2.2.3 0 0 .2.2.3.2.1 0 .2.1.3.2.1 0 .2 0 .4.1h12c.1 0 .3 0 .4-.1.1 0 .2-.1.3-.2.1 0 .2-.2.3-.2 0 0 .2-.2.2-.3 0-.1.1-.2.2-.3 0-.1 0-.2.1-.4v-.4"/><path class="cls-18" d="M489.7 201.2v-8.9-.4c0-.1 0-.3-.1-.4 0-.1-.1-.2-.2-.3 0-.1-.2-.2-.2-.3 0 0-.2-.2-.3-.2-.1 0-.2-.1-.3-.2-.1 0-.2 0-.4-.1h-12c-.1 0-.3 0-.4.1-.1 0-.2.1-.3.2-.1 0-.2.2-.3.2 0 0-.2.2-.2.3 0 .1-.1.2-.2.3 0 .1 0 .2-.1.4V201.6c0 .1 0 .3.1.4 0 .1.1.2.2.3 0 .1.2.2.2.3 0 0 .2.2.3.2.1 0 .2.1.3.2.1 0 .2 0 .4.1h12c.1 0 .3 0 .4-.1.1 0 .2-.1.3-.2.1 0 .2-.2.3-.2 0 0 .2-.2.2-.3 0-.1.1-.2.2-.3 0-.1 0-.2.1-.4v-.4"/><path class="cls-24" d="M483.3 200c0-.7-.5-1.2-1.2-1.2s-1.2.5-1.2 1.2.5 1.2 1.2 1.2 1.2-.5 1.2-1.2"/><path class="cls-18" d="M483.3 200c0-.7-.5-1.2-1.2-1.2s-1.2.5-1.2 1.2.5 1.2 1.2 1.2 1.2-.5 1.2-1.2"/><path class="cls-23" d="M440.1 190.4h15.8V205h-15.8z"/><path class="cls-18" d="M440.1 190.4h15.8V205h-15.8z"/><path class="cls-24" d="M446.8 195.1c0-1.5-1.2-2.8-2.8-2.8s-2.8 1.2-2.8 2.8 1.2 2.8 2.8 2.8 2.8-1.2 2.8-2.8"/><path class="cls-18" d="M446.8 195.1c0-1.5-1.2-2.8-2.8-2.8s-2.8 1.2-2.8 2.8 1.2 2.8 2.8 2.8 2.8-1.2 2.8-2.8"/><path class="cls-24" d="M445.3 201.8c0-1.3-1-2.3-2.3-2.3s-2.3 1-2.3 2.3 1 2.3 2.3 2.3 2.3-1 2.3-2.3"/><path class="cls-18" d="M445.3 201.8c0-1.3-1-2.3-2.3-2.3s-2.3 1-2.3 2.3 1 2.3 2.3 2.3 2.3-1 2.3-2.3"/><path class="cls-24" d="M453.7 195c0-1.2-1-2.2-2.2-2.2s-2.2 1-2.2 2.2 1 2.2 2.2 2.2 2.2-1 2.2-2.2"/><path class="cls-18" d="M453.7 195c0-1.2-1-2.2-2.2-2.2s-2.2 1-2.2 2.2 1 2.2 2.2 2.2 2.2-1 2.2-2.2"/><path class="cls-24" d="M454.2 201.4c0-1.6-1.3-2.9-2.9-2.9s-2.9 1.3-2.9 2.9 1.3 2.9 2.9 2.9 2.9-1.3 2.9-2.9"/><path class="cls-18" d="M454.2 201.4c0-1.6-1.3-2.9-2.9-2.9s-2.9 1.3-2.9 2.9 1.3 2.9 2.9 2.9 2.9-1.3 2.9-2.9"/><path class="cls-2" d="M543.7 196.4H430.5"/><path class="cls-18" d="M430.9 196.4h-.4M508.2 189h17v.5h-17z"/><path class="cls-18" d="M508.2 189.4h.5v15.4h-.5zM524.5 189.4h.7v15.4h-.7zM507.5 189h.7v17.3h-.7zM508.2 204.8h17v.5h-17zM525.3 189h17v.5h-17z"/><path class="cls-18" d="M525.3 189.4h.5v15.4h-.5zM541.6 189.4h.7v15.4h-.7zM525.3 204.8h17v.5h-17z"/><path class="cls-18" d="M542.3 189h.5v16.3h-.5zM542.8 196.4h.7v.5h-.7z"/><path class="cls-24" d="M425.2 211.8l4.3-5.1v-10.1l-4.3 4.4v10.8"/><path class="cls-17" d="M425.4 202.6l4.3-4.3M425.4 207l4.3-4.4M425.4 211.3l3.1-3.1"/><path class="cls-24" d="M425.2 211.8l4.3-5.1v-10.1l-4.3 4.4v10.8"/><path class="cls-17" d="M425.4 202.6l4.3-4.3M425.4 207l4.3-4.4M425.4 211.3l3.1-3.1"/><path class="cls-19" d="M425.2 201v10.8M429.5 196.6v10.1M429.5 196.6v10.1M425.2 201v10.8"/><path class="cls-24" d="M543.7 206.7l4.4 5.1V201l-4.4-4.4v10.1"/><path class="cls-17" d="M544 199l.9-1.2M544 203.1l3.1-3.1M544.2 207.2l4.1-4.1M546.1 209.4l2.2-2M548.1 211.8l.2-.3"/><path class="cls-24" d="M543.7 206.7l4.4 5.1V201l-4.4-4.4v10.1"/><path class="cls-17" d="M544 199l.9-1.2M544 203.1l3.1-3.1M544.2 207.2l4.1-4.1M546.1 209.4l2.2-2M548.1 211.8l.2-.3"/><path class="cls-19" d="M543.7 196.6v10.1M548.1 201v10.8M548.1 201v10.8M543.7 196.6v10.1"/><path class="cls-24" d="M595.8 201v-4.4l.3 4.4h-.3"/><path class="cls-17" d="M596.1 197.8"/><path class="cls-24" d="M595.8 196.6v4.4h.3l-.3-4.4"/><path class="cls-17" d="M596.1 197.8"/><path class="cls-19" d="M595.8 201h.3M596.1 201l-.3-4.4M595.8 201h.3"/><path class="cls-24" d="M569.9 196.6h-26.2l4.4 4.4h21.8v-4.4"/><path class="cls-17" d="M544.9 197.8l1.2-1.2M547.1 200l3.4-3.4M550.2 201l4.3-4.4M554.5 201l4.4-4.4M558.9 201l4.3-4.4M563.2 201l4.3-4.4M567.3 201l2.8-2.7"/><path class="cls-24" d="M569.9 196.6h-26.2l4.4 4.4h21.8v-4.4"/><path class="cls-17" d="M544.9 197.8l1.2-1.2M547.1 200l3.4-3.4M550.2 201l4.3-4.4M554.5 201l4.4-4.4M558.9 201l4.3-4.4M563.2 201l4.3-4.4M567.3 201l2.8-2.7"/><path class="cls-19" d="M548.1 201h21.8M543.7 196.6h26.2M543.7 196.6h26.2M548.1 201h21.8"/><path class="cls-18" d="M571.6 201v-4.4M594.1 201v-4.4"/><path class="cls-19" d="M569.9 201v-4.4M595.8 201v-4.4"/><path class="cls-17" d="M571.5 223.6c12.4 0 22.7-10.2 22.7-22.7M571.6 201v22.5"/><path class="cls-18" d="M276.4 196.4h17v.5h-17zM292.9 196.9h.5v15.4h-.5zM276.4 196.9h.7v15.4h-.7z"/><path class="cls-18" d="M276.4 212.2h17v.5h-17zM259.3 196.4h17v.5h-17zM275.9 196.9h.5v15.4h-.5zM259.3 196.9h.7v15.4h-.7z"/><path class="cls-18" d="M259.3 212.2h17v.5h-17zM242.5 196.4h16.8v.5h-16.8zM258.9 196.9h.5v11h-.5zM242.5 196.9h.5v11h-.5zM242.5 207.9h16.8v.5h-16.8zM293.4 196.4h1.2v.5h-1.2zM241.3 196.4h1.2v.5h-1.2z"/><path class="cls-23" d="M245.9 207.9H256v2.6h-10.1z"/><path class="cls-18" d="M245.9 207.9H256v2.6h-10.1z"/><path class="cls-23" d="M245.7 207.7h10.6v.2h-10.6z"/><path class="cls-18" d="M245.7 207.7h10.6v.2h-10.6z"/><path class="cls-20" d="M246.6 207.7v-8.4"/><path class="cls-4" d="M246.6 199.3l1.7.2 1.7.5 1.4.7 1.2 1 1.2 1.4.7 1.5.5 1.4.3 1.7"/><path class="cls-29" d="M598.2 290l6 7h9.6l-.7-26.9-15.4.5.5 19.4"/><path class="cls-24" d="M613.1 270.1l-3.4.2.8 26.7h3.3l-.7-26.9"/><path class="cls-17" d="M610.5 293.4l3.3 3.6M610.5 289.3l3.3 3.6M610.2 285.2l3.6 3.4M610.2 281.1l3.4 3.4M610 277l3.6 3.4M610 272.7l3.3 3.6M611.4 270.3l1.9 1.9"/><path class="cls-24" d="M609.7 270.3h-.7l.7 26.7h.8l-.8-26.7"/><path class="cls-24" d="M609 270.3h-5.5l.7 26.7h5.5l-.7-26.7"/><path class="cls-17" d="M604.2 296l5.5-.2M604.2 294.6l5.5-.3M604.2 293.1l5.5-.2M604.2 291.7l5.5-.3M604.2 290.2l5.5-.2M604.2 288.8h5.5M604 287.4h5.5M604 285.9h5.5M604 284.5h5.5M604 283.3l5.5-.3M604 281.8l5.5-.2M604 280.4l5.5-.2M603.7 279l5.6-.3M603.7 277.5l5.6-.2M603.7 276.1l5.6-.3M603.7 274.6h5.6M603.7 273.2h5.6M603.7 271.8h5.6M603.7 270.3h3.4"/><path class="cls-24" d="M598.2 290l6 7-.7-26.7-5.8.3.5 19.4"/><path class="cls-17" d="M603.7 270.6l-.2-.3M603.7 274.6l-4-4M603.7 278.7L598 273M604 282.8l-6-5.8M604 287.1l-5.8-6M604.2 291.2l-6-6M604.2 295.3l-6-6M602.3 294.6l1.9-1.7M600.6 292.6l3.6-3.8M598.7 290.5l5.3-5.5M598.2 286.9l5.8-5.8M598.2 282.8l5.5-5.5M598 279l5.7-5.8M598 275.1l4.5-4.8M598 271l.5-.4"/><path class="cls-19" d="M609.7 270.3l.8 26.7M613.1 270.1l.7 26.9"/><path class="cls-17" d="M603.5 270.3l.7 26.7M609 270.3l.7 26.7"/><path class="cls-19" d="M597.7 270.6l.5 19.4M603.5 270.3l.7 26.7"/><path class="cls-18" d="M613.1 270.1l.7 26.9M597.7 270.6l.5 19.4"/><path class="cls-29" d="M594.4 137.8l15.3-.2 2.4 91.7-15.3.5-2.4-92"/><path class="cls-24" d="M609.7 137.6h-3.3l2.1 91.9 3.6-.2-2.4-91.7"/><path class="cls-17" d="M608.5 227.4l2.2 1.9M608.5 223.3l3.6 3.6M608.3 219.2l3.8 3.6M608.3 215.1l3.6 3.6M608.3 211l3.6 3.6M608.1 207l3.6 3.6M608.1 202.9l3.6 3.6M607.8 198.6l3.9 3.8M607.8 194.5l3.6 3.6M607.8 190.4l3.6 3.6M607.6 186.3l3.6 3.6M607.6 182.2l3.6 3.6M607.3 178.2l3.6 3.6M607.3 174.1l3.6 3.6M607.3 170l3.4 3.4M607.1 165.9l3.6 3.4M607.1 161.8l3.6 3.4M606.9 157.5l3.6 3.6M606.9 153.4l3.6 3.6M606.9 149.4l3.3 3.6M606.6 145.3l3.6 3.6M606.6 141.2l3.4 3.4M607.1 137.6l2.9 2.9"/><path class="cls-24" d="M606.4 137.6h-.7l2.4 91.9h.4l-2.1-91.9"/><path class="cls-24" d="M605.7 137.6l-5.6.2 2.4 91.7h5.6l-2.4-91.9"/><path class="cls-17" d="M602.5 229.3h5.6M602.5 227.8h5.6M602.5 226.4h5.6M602.5 225h5.6M602.5 223.8l5.6-.3M602.5 222.3l5.6-.2M602.5 220.9l5.6-.3M602.3 219.4l5.5-.2M602.3 218l5.5-.2M602.3 216.6l5.5-.3M602.3 215.1h5.5M602.3 213.7h5.5M602.3 212.2h5.5M602.1 210.8h5.5M602.1 209.6l5.5-.2M602.1 208.2l5.5-.3M602.1 206.7l5.5-.2M602.1 205.3l5.5-.3M602.1 203.8l5.5-.2M602.1 202.4l5.5-.2M601.8 201h5.5M601.8 199.5h5.5M601.8 198.1h5.5M601.8 196.6h5.5M601.8 195.2h5.5M601.8 194l5.5-.2M601.6 192.6l5.5-.3M601.6 191.1l5.5-.2M601.6 189.7l5.5-.3M601.6 188.2l5.5-.2M601.6 186.8l5.5-.2M601.6 185.4h5.5M601.6 183.9h5.5M601.3 182.5h5.6M601.3 181h5.6M601.3 179.8l5.6-.2M601.3 178.4l5.6-.2M601.3 177l5.6-.3M601.3 175.5l5.6-.2M601.1 174.1l5.5-.3M601.1 172.6l5.5-.2M601.1 171.2h5.5M601.1 169.8h5.5M601.1 168.3h5.5M601.1 166.9h5.5M601.1 165.7l5.5-.3M600.9 164.2l5.5-.2M600.9 162.8l5.5-.2M600.9 161.4l5.5-.3M600.9 159.9l5.5-.2M600.9 158.5l5.5-.3M600.9 157h5.5M600.6 155.6h5.5M600.6 154.2h5.5M600.6 152.7h5.5M600.6 151.3h5.5M600.6 150.1l5.5-.3M600.6 148.6l5.5-.2M600.6 147.2l5.5-.2M600.4 145.8l5.5-.3M600.4 144.3l5.5-.2M600.4 142.9l5.5-.3M600.4 141.4h5.5M600.4 140h5.5M600.4 138.6h5.5"/><path class="cls-24" d="M600.1 137.8h-5.7l2.4 92 5.7-.3-2.4-91.7"/><path class="cls-17" d="M600.4 138.8l-1.2-1M600.4 143.1l-5.3-5.3M600.6 147.2l-6-6M600.6 151.3l-6-6M600.6 155.4l-5.7-6M600.9 159.4l-6-5.7M600.9 163.5l-5.8-5.7M601.1 167.8l-6-6M601.1 171.9l-5.8-6M601.3 176l-6-6M601.3 180.1l-6-6M601.6 184.2l-6-5.8M601.6 188.2l-6-5.7M601.6 192.3l-5.8-5.7M601.8 196.6l-6-6M601.8 200.7l-5.7-6M602.1 204.8l-6-6M602.1 208.9l-5.8-6M602.3 213l-6-5.8M602.3 217l-6-5.7M602.5 221.4l-6-6M602.5 225.4l-6-6M602.5 229.5l-5.7-6M598.9 229.8l-2.1-2.2M599.2 229.8l3.3-3.4M596.8 228.1l5.7-5.8M596.8 224.2l5.5-5.7M596.5 220.2l5.8-5.6M596.5 216.3l5.6-5.5M596.5 212.5l5.6-5.8M596.3 208.4l5.8-5.5M596.3 204.6l5.5-5.6M596.1 200.7l5.7-5.7M596.1 196.9l5.5-5.8M595.8 192.8l5.8-5.5M595.8 189l5.5-5.6M595.8 185.1l5.5-5.7M595.6 181l5.7-5.5M595.6 177.2l5.5-5.5M595.3 173.4l5.8-5.6M595.3 169.5l5.6-5.7M595.3 165.4l5.6-5.5M595.1 161.6l5.5-5.5M595.1 157.8l5.5-5.8M594.9 153.9l5.7-5.7M594.9 149.8l5.5-5.5M594.6 146l5.8-5.5M594.6 142.2l4.3-4.4M594.6 138.1l.3-.3"/><path class="cls-19" d="M606.4 137.6l2.1 91.9M609.7 137.6l2.4 91.7"/><path class="cls-17" d="M600.1 137.8l2.4 91.7M605.7 137.6l2.4 91.9"/><path class="cls-19" d="M594.4 137.8l2.4 92M600.1 137.8l2.4 91.7"/><path class="cls-18" d="M609.7 137.6l2.4 91.7M594.4 137.8l2.4 92"/><path class="cls-29" d="M592.7 71.6l14.9-14.9 1.2 40.1-15.4.2-.7-25.4"/><path class="cls-24" d="M607.6 56.7l-3.1 3.4.7 36.7h3.6l-1.2-40.1"/><path class="cls-17" d="M605.2 95.8l1.2 1M605.2 91.8l3.6 3.6M605.2 87.7l3.6 3.6M604.9 83.6l3.6 3.6M604.9 79.5l3.6 3.4M604.9 75.4l3.4 3.4M604.7 71.4l3.6 3.3M604.7 67.3l3.4 3.3M604.7 63.2l3.4 3.4M605.2 59.6l2.6 2.6M607.1 57.4l.7.8"/><path class="cls-24" d="M604.5 60.1l-.8.5 1 36.2h.5l-.7-36.7"/><path class="cls-24" d="M603.7 60.6l-5.5 5.5.7 30.9 5.8-.2-1-36.2"/><path class="cls-17" d="M598.9 96.1h5.8M598.9 94.6h5.8M598.9 93.2h5.8M598.9 92l5.8-.2M598.9 90.6l5.8-.3M598.9 89.1l5.8-.2M598.9 87.7l5.6-.3M598.7 86.2l5.8-.2M598.7 84.8l5.8-.2M598.7 83.4h5.8M598.7 81.9h5.8M598.7 80.5h5.8M598.7 79h5.8M598.7 77.6h5.5M598.5 76.4l5.7-.2M598.5 75l5.7-.3M598.5 73.5l5.7-.2M598.5 72.1l5.7-.3M598.5 70.6l5.7-.2M598.5 69.2l5.5-.2M598.5 67.8h5.5M598.5 66.3h5.5M599.4 64.9h4.6M600.9 63.4h3.1M602.3 62h1.7M603.7 60.6h.3"/><path class="cls-24" d="M598.2 66.1l-5.5 5.5.7 25.4h5.5l-.7-30.9"/><path class="cls-17" d="M598.5 69l-1.5-1.5M598.5 73l-3.6-3.6M598.7 77.1l-5.8-5.7M598.7 81.2l-5.8-5.8M598.7 85.3l-5.8-5.8M598.9 89.4l-5.7-5.8M598.9 93.4l-5.7-5.5M598.5 97l-5.1-5M594.4 97l-1-.9M595.6 97l3.3-3.3M593.4 95.1l5.5-5.5M593.4 91.3l5.3-5.5M593.2 87.2l5.5-5.3M593.2 83.4l5.5-5.6M592.9 79.5l5.6-5.5M592.9 75.7l5.6-5.5M592.9 71.6l5.6-5.5"/><path class="cls-19" d="M604.5 60.1l.7 36.7M607.6 56.7l1.2 40.1"/><path class="cls-17" d="M598.2 66.1l.7 30.9M603.7 60.6l1 36.2"/><path class="cls-19" d="M592.7 71.6l.7 25.4M598.2 66.1l.7 30.9"/><path class="cls-18" d="M607.6 56.7l1.2 40.1M592.7 71.6l.7 25.4M604.7 231.4l7.4-.2-.2-3.4h1.9l1.2 44h-1.9v-3.4h-7.4"/><path class="cls-2" d="M596.8 229.8l.9 40.8"/><path class="cls-18" d="M597.7 270.1v.5"/><path class="cls-19" d="M612.1 231.2l-.2-3.4M613.1 268.4v3.4"/><path class="cls-18" d="M604.7 229.5l1 40.8h-2.2l-1-40.8h2.2zM604.7 233.1l-2.2.3M605.7 266.7h-2.4M602.5 229.5h2.2M602.8 248h2.4M602.5 233.4l2.2-.3M603 252.1h2.2M602.8 248h2.4M603.3 266.7h2.4M603 252.1h2.2M603.5 270.3h2.2"/><path class="cls-19" d="M602.5 229.5l-5.7.3"/><path class="cls-24" d="M608.1 229.5v1.8l-3.4.1v-1.9"/><path class="cls-17" d="M604.9 230.7l3.4-.2M608.1 229.5v1.8l-3.4.1v-1.9"/><path class="cls-24" d="M612.1 229.3v1.9h-3.3l-.3-1.7"/><path class="cls-17" d="M610.7 229.3l1.7 1.7"/><path class="cls-19" d="M612.1 229.3v1.9h-3.3l-.3-1.7M608.8 231.2l-4.1.2M603.5 270.3l-5.8.3"/><path class="cls-24" d="M609.1 270.3v-1.9l-3.4.1v1.8"/><path class="cls-17" d="M607.1 270.3h2.2M605.9 268.9h3.4M609.1 270.3v-1.9l-3.4.1v1.8"/><path class="cls-24" d="M613.1 270.1v-1.7h-3.4v1.9"/><path class="cls-17" d="M610 268.6l1.4 1.7"/><path class="cls-19" d="M613.1 270.1v-1.7h-3.4v1.9M609.7 268.4h-4"/><path class="cls-18" d="M601.3 98.7l7.5-.2-.3-3.4h2l1.2 43.9h-2v-3.3l-7.4.2"/><path class="cls-2" d="M593.4 97l1 40.8"/><path class="cls-18" d="M594.4 137.4v.4"/><path class="cls-19" d="M608.8 98.5l-.3-3.4M609.7 135.7v3.3"/><path class="cls-18" d="M601.3 97l1 40.8h-2.2L598.9 97h2.4zM601.3 100.6h-2.1M602.3 134h-2.4M598.9 97h2.4M599.4 115.3h2.4M599.2 100.6h2.1M599.7 119.4h2.1M599.4 115.3h2.4M599.9 134h2.4M599.7 119.4h2.1M600.1 137.8h2.2"/><path class="cls-19" d="M598.9 97h-5.5"/><path class="cls-24" d="M604.7 96.8l.1 1.9-3.4.1-.1-1.9"/><path class="cls-17" d="M601.6 97.5h3.3M604.7 96.8l.1 1.9-3.4.1-.1-1.9"/><path class="cls-24" d="M608.8 96.8v1.7l-3.4.2-.2-1.9"/><path class="cls-17" d="M606.4 96.8l1.7 1.7"/><path class="cls-19" d="M608.8 96.8v1.7l-3.4.2-.2-1.9M605.4 98.7h-4.1M600.1 137.8h-5.7"/><path class="cls-24" d="M605.8 137.6l-.1-1.8-3.4.1.1 1.8"/><path class="cls-17" d="M602.5 137.1h3.4M605.8 137.6l-.1-1.8-3.4.1.1 1.8"/><path class="cls-24" d="M609.7 137.6v-1.9h-3.3v1.9"/><path class="cls-17" d="M606.6 137.1l.5.5M609 135.7l1 .7"/><path class="cls-19" d="M609.7 137.6v-1.9h-3.3v1.9M606.4 135.7l-4.1.2"/><path class="cls-18" d="M502.7 56.7l3.4-54.9H580l3.3 54.9"/><path class="cls-18" d="M501 56.7L504.4 0h77.3l3.6 56.7"/><path class="cls-24" d="M143.2 157l-3.6-.9-3.6.9 2.6 2 4.6-2"/><path class="cls-17" d="M142 157.5l-1.2-1.2M139.1 158.7l-1.9-1.9M142.2 157.5l.7-.7M137.7 158.2l1.9-2.1M162.9 86.6c11 0 20.1-9.1 20.1-20.1M162.9 86.5V66.6"/><path class="cls-6" d="M203.2 86.5l-3.9-.3-3.8-1.2-3.6-1.9-2.9-2.4-2.6-3.1-1.9-3.4-1-3.8-.5-3.8"/><path class="cls-15" d="M203.2 86.5V66.6"/><path class="cls-17" d="M436.2 66.6v1.9c0 .6-.2 1.2-.3 1.8-.1.6-.3 1.2-.5 1.8l-.6 1.8c-.2.6-.5 1.1-.8 1.7-.3.5-.6 1.1-1 1.6-.3.5-.7 1-1.1 1.5-.4.5-.8.9-1.3 1.4-.4.4-.9.9-1.4 1.3-.5.4-1 .8-1.5 1.1-.5.3-1.1.7-1.6 1-.5.3-1.1.6-1.7.8l-1.8.6c-.6.2-1.2.3-1.8.5l-1.8.3h-1.9M417.3 85.5V66.6M436.2 66.6V68M436.5 69.4v.8M436.5 70.2l.2.7"/><path class="cls-11" d="M436.9 72.1l.8 1.7"/><path class="cls-17" d="M438.1 75l.3.4M438.4 75.4l.5.8"/><path class="cls-12" d="M439.3 77.1l1.2 1.5"/><path class="cls-17" d="M441.5 79.8l.2.2M441.7 80l1 .7M443.7 81.7l.9.7"/><path class="cls-21" d="M444.6 82.4l1.7 1"/><path class="cls-17" d="M446.3 83.4l1 .4M448.7 84.3l1 .5"/><path class="cls-10" d="M449.7 84.8l1.9.5"/><path class="cls-17" d="M451.6 85.3l1.2.2M454.2 85.5h1"/><path class="cls-6" d="M455.2 85.5V66.6"/><path class="cls-17" d="M455.2 67v-.4M602.9 250c-.6 0-1.2 0-1.9.1-.6 0-1.2.2-1.8.3-.6.1-1.2.3-1.8.5-.6.2-1.2.4-1.7.7-.6.3-1.1.5-1.7.8-.5.3-1.1.6-1.6 1s-1 .7-1.5 1.1c-.5.4-.9.8-1.3 1.3s-.8.9-1.2 1.4c-.4.5-.7 1-1.1 1.5-.3.5-.6 1.1-.9 1.6-.3.6-.5 1.1-.8 1.7l-.6 1.8c-.2.6-.3 1.2-.4 1.8-.1.6-.2 1.2-.2 1.8v1.9M584.3 269.6l19.2-.5M603 250.2l-1.4-.3M600.1 249.9l-.9-.2M599.2 249.7h-.5"/><path class="cls-11" d="M597.5 249.4l-1.9-.7"/><path class="cls-17" d="M594.9 248.5l-1-.5"/><path class="cls-10" d="M593.9 248l-1.7-1"/><path class="cls-17" d="M592.2 247l-1.2-.7M589.8 245.4l-.5-.5M589.3 244.9l-.4-.5"/><path class="cls-13" d="M588.1 243.4l-1.2-1.4"/><path class="cls-17" d="M586.5 241l-.5-.7M586 240.3l-.3-.5"/><path class="cls-13" d="M585 238.9l-.7-1.9"/><path class="cls-17" d="M584.1 236l-.3-.7M583.8 235.3v-.7"/><path class="cls-11" d="M583.6 233.4l-.3-2"/><path class="cls-6" d="M583.3 231.4l19.2-.4"/><path class="cls-17" d="M602.1 231h.4M599.6 117.4c-.6 0-1.2 0-1.9.1-.6 0-1.2.2-1.8.3-.6.1-1.2.3-1.8.5-.6.2-1.2.4-1.7.7-.6.3-1.1.5-1.7.8-.5.3-1.1.6-1.6 1s-1 .7-1.5 1.1c-.5.4-.9.8-1.3 1.3s-.8.9-1.2 1.4c-.4.5-.7 1-1.1 1.5-.3.5-.6 1.1-.9 1.6-.3.6-.5 1.1-.8 1.7l-.6 1.8c-.2.6-.3 1.2-.4 1.8-.1.6-.2 1.2-.2 1.8v1.9M580.9 136.9l19.2-.5M599.7 117.4h-1.5M596.8 117.4l-1-.2M595.8 117.2l-.5-.2"/><path class="cls-11" d="M594.1 116.7l-1.9-.5"/><path class="cls-17" d="M591 115.8l-.5-.3M590.5 115.5l-.7-.5"/><path class="cls-12" d="M588.9 114.6l-1.5-1.2"/><path class="cls-17" d="M586.2 112.4l-.2-.2M586 112.2l-.7-.8M584.3 110.2l-.7-.9"/><path class="cls-21" d="M583.6 109.3l-1-1.5"/><path class="cls-17" d="M582.6 107.8l-.7-1.2M581.4 105.4l-.5-.9"/><path class="cls-10" d="M580.9 104.5l-.4-1.9"/><path class="cls-17" d="M580.5 102.6l-.3-1.2M580.2 99.9l-.2-.9"/><path class="cls-6" d="M580 99l19.2-.5"/><path class="cls-17" d="M598.7 98.5h.5M553 66.4c0 11 9.1 20.1 20.1 20.1M573 86.5V66.6"/><path class="cls-6" d="M552.9 66.6l-.3 3.8-1.2 3.8-1.9 3.4-2.4 3.1-3.1 2.4-3.4 1.9-3.8 1.2-3.9.3"/><path class="cls-15" d="M532.9 86.5V66.6"/><path class="cls-17" d="M351.5 66.5v1.9c0 .6.2 1.2.3 1.8.1.6.3 1.2.5 1.8l.6 1.8c.2.6.5 1.1.8 1.7.3.5.6 1.1 1 1.6.3.5.7 1 1.1 1.5.4.5.8.9 1.3 1.4.4.4.9.9 1.4 1.3.5.4 1 .8 1.5 1.1.5.3 1.1.7 1.6 1 .5.3 1.1.6 1.7.8l1.8.6c.6.2 1.2.3 1.8.5l1.8.3h1.9M370.5 85.5V66.6M351.5 66.6l-.2 1.4M351 69.4v.8M351 70.2l-.2.7"/><path class="cls-11" d="M350.5 72.1l-.4 1.7"/><path class="cls-17" d="M349.3 75l-.2.4M349.1 75.4l-.5.8M347.9 77.4l-.7 1.2"/><path class="cls-14" d="M347.2 78.6L346 80"/><path class="cls-17" d="M346 80l-1 .7M343.8 81.7l-.7.5M343.1 82.2l-.5.2"/><path class="cls-9" d="M341.4 83.1l-1.7 1"/><path class="cls-17" d="M338.8 84.3l-.7.3M338.1 84.6l-.8.2"/><path class="cls-11" d="M336.1 85l-1.9.3"/><path class="cls-17" d="M333 85.5h-.5"/><path class="cls-6" d="M332.5 85.5V66.6"/><path class="cls-17" d="M332.5 67v-.4M513.5 60.6h59v3.6h-59z"/><path class="cls-24" d="M446.1 219h29.7v24.9h-29.7V219M143.2 157H136V66.6h7.2V157"/><path class="cls-17" d="M143.4 66.8l-.2-.2M143.4 70.9l-4.3-4.3M143.4 74.7l-7.2-7.2M143.4 78.8l-7.2-7.2M143.4 82.9l-7.2-7.2M143.4 86.7l-7.2-7.2M143.4 90.8l-7.2-7.2M143.4 94.9l-7.2-7.2M143.4 99l-7.2-7.2M143.4 102.8l-7.2-7.2M143.4 106.9l-7.2-7.2M143.4 111l-7.2-7.2M143.4 114.8l-7.2-7.2M143.4 118.9l-7.2-7.2M143.4 123l-7.2-7.2M143.4 126.8l-7.2-7.2M143.4 130.9l-7.2-7.2M143.4 135l-7.2-7.2M143.4 139l-7.2-7.2M143.4 142.9l-7.2-7.2M143.4 147l-7.2-7.2M143.4 151l-7.2-7.2M143.4 154.9l-7.2-7.2M141.3 157l-5.1-5.2M137.4 157l-1.2-1.2M142.7 157l.7-.7M138.6 157l4.8-4.5M136.2 155.6l7.2-7.2M136.2 151.5l7.2-7.2M136.2 147.7l7.2-7.2M136.2 143.6l7.2-7.2M136.2 139.5l7.2-7.2M136.2 135.7l7.2-7.2M136.2 131.6l7.2-7.2M136.2 127.5l7.2-7.2M136.2 123.4l7.2-7.2M136.2 119.6l7.2-7.2M136.2 115.5l7.2-7.2M136.2 111.4l7.2-7.2M136.2 107.6l7.2-7.2M136.2 103.5l7.2-7.2M136.2 99.4l7.2-7.2M136.2 95.6l7.2-7.2M136.2 91.5l7.2-7.2M136.2 87.4l7.2-7.2M136.2 83.4l7.2-7.2M136.2 79.5l7.2-7.2M136.2 75.4l7.2-7.2M136.2 71.4l4.8-4.8M136.2 67.5l.7-.9"/><path class="cls-24" d="M136 157h7.2V66.6H136V157"/><path class="cls-17" d="M143.4 66.8l-.2-.2M143.4 70.9l-4.3-4.3M143.4 74.7l-7.2-7.2M143.4 78.8l-7.2-7.2M143.4 82.9l-7.2-7.2M143.4 86.7l-7.2-7.2M143.4 90.8l-7.2-7.2M143.4 94.9l-7.2-7.2M143.4 99l-7.2-7.2M143.4 102.8l-7.2-7.2M143.4 106.9l-7.2-7.2M143.4 111l-7.2-7.2M143.4 114.8l-7.2-7.2M143.4 118.9l-7.2-7.2M143.4 123l-7.2-7.2M143.4 126.8l-7.2-7.2M143.4 130.9l-7.2-7.2M143.4 135l-7.2-7.2M143.4 139l-7.2-7.2M143.4 142.9l-7.2-7.2M143.4 147l-7.2-7.2M143.4 151l-7.2-7.2M143.4 154.9l-7.2-7.2M141.3 157l-5.1-5.2M137.4 157l-1.2-1.2M142.7 157l.7-.7M138.6 157l4.8-4.5M136.2 155.6l7.2-7.2M136.2 151.5l7.2-7.2M136.2 147.7l7.2-7.2M136.2 143.6l7.2-7.2M136.2 139.5l7.2-7.2M136.2 135.7l7.2-7.2M136.2 131.6l7.2-7.2M136.2 127.5l7.2-7.2M136.2 123.4l7.2-7.2M136.2 119.6l7.2-7.2M136.2 115.5l7.2-7.2M136.2 111.4l7.2-7.2M136.2 107.6l7.2-7.2M136.2 103.5l7.2-7.2M136.2 99.4l7.2-7.2M136.2 95.6l7.2-7.2M136.2 91.5l7.2-7.2M136.2 87.4l7.2-7.2M136.2 83.4l7.2-7.2M136.2 79.5l7.2-7.2M136.2 75.4l7.2-7.2M136.2 71.4l4.8-4.8M136.2 67.5l.7-.9"/><path class="cls-19" d="M143.2 157V66.6M136 157V66.6M143.2 66.6H136M136 157V66.6M143.2 157V66.6"/><path class="cls-17" d="M461.4 73h45.4v10.8h-45.4z"/><path class="cls-18" d="M317.2 178.9v.7M317.2 179.6v1M317.2 180.6l-.3.7M316.9 181.3l-.2.2M316.2 183l-.2.2M315.3 184.4l-.5.5M314.8 184.9l-.7.5M314.1 185.4l-.5.4M313.6 185.8l-.5.3M311.9 186.8h-.2M310.2 187.3h-.7M309.5 187.3h-.7M308.8 187.3h-1M307.8 187.3h-.5M305.9 186.8h-.2M304.5 186.1l-.5-.3M304 185.8l-.7-.4M303.3 185.4l-.5-.5M302.8 184.9l-.5-.5M301.6 183.2l-.3-.2M300.9 181.8l-.3-.5M300.6 181.3l-.2-.7M300.4 180.6v-1M300.4 179.6l-.3-.7M300.4 177.4v-.2M300.9 175.8v-.3M300.9 175.5l.4-.7M301.3 174.8l.3-.7M301.6 174.1l.5-.7M302.1 173.4h.2M303.3 172.4v-.2M303.3 172.2h.2M304.7 171.4l.7-.4M305.4 171l1-.3M306.4 170.7l.7-.2M307.1 170.5h.2M308.8 170.2h.2M310.5 170.5l.7.2M311.2 170.7l.7.3M311.9 171l1 .4M312.9 171.4h.2M314.1 172.4h.2M315.3 173.6l.4.5M315.7 174.1l.5.7M316.2 174.8l.5.7M316.7 175.5v.5M317.2 177.4v.3"/></g><g id="Mbel"><path class="cls-3" d="M531.7 104.7h22.6v51.1h-22.6zM521.8 106.1v12.8M530.3 106.1h-8.5M521.8 118.9h8.5M521.8 123.8v12.8M530.3 123.8h-8.5M521.8 136.6h8.5M521.8 141.6v12.7M530.3 141.6h-8.5M521.8 154.3h8.5M564.3 106.1v12.8M555.8 106.1h8.5M564.3 118.9h-8.5M564.3 123.8v12.8M555.8 123.8h8.5M564.3 136.6h-8.5M564.3 141.6v12.7M555.8 141.6h8.5M564.3 154.3h-8.5M374.5 99h15.6v56.6h-15.6zM432.9 104h14.2v28.3h-14.2zM401.9 91.5h19c.1 0 .2.1.3.2 0 0 .1.2.2.3v25.5c0 .1-.1.2-.2.3 0 0-.2.1-.3.2h-19V91.4M398.2 87h22.7c.1 0 .2.1.3.2 0 0 .1.2.2.3V90.9c0 .1-.1.2-.2.3 0 0-.2.1-.3.2h-23c-.1 0-.2-.1-.3-.2s-.1-.2-.2-.3 0-.2 0-.3v-2.8-.3c0-.1.1-.2.2-.3 0 0 .2-.1.3-.2s.2 0 .3 0M401.9 118.2h-3.7-.2-.2-.1l-.1.1-.1.1v25.7c0 .1.1.2.2.3 0 0 .2.1.3.2s.2 0 .3 0h3.7M404.1 144.8V91.5"/><path class="cls-3" d="M401.9 144.8h19c.1 0 .2-.1.3-.2 0 0 .1-.2.2-.3v-25.2-.3c0-.1-.1-.2-.2-.3 0 0-.2-.1-.3-.2h-19v26.6M398.2 149.4h22.7c.1 0 .2-.1.3-.2 0 0 .1-.2.2-.3V145.8v-.3c0-.1-.1-.2-.2-.3 0 0-.2-.1-.3-.2h-23c-.1 0-.2.1-.3.2 0 0-.1.2-.2.3s0 .2 0 .3V148.9c0 .1.1.2.2.3 0 0 .2.1.3.2h.3M401.9 118.2h-3.7-.2-.2-.1l-.1-.1-.1-.1v-.1-.2V92.6v-.3c0-.1.1-.2.2-.3 0 0 .2-.1.3-.2s.2 0 .3 0h3.7M455 141.8c3.2 2.3 6.7 4.4 10.2 6.2.9.4 1.9.3 2.6-.3 2.5-2.1 4.3-4.8 5.3-7.8.3-.9 0-1.9-.7-2.5-3-2.6-6.2-5.1-9.6-7.2h-.1c-.5.5-1 1-1.4 1.5-2 2.6-3.8 5.4-5.5 8.1-.4.6-.7 1.2-.9 1.9"/><path class="cls-3" d="M455.6 142.7c0 .3.1.7.3 1 .7 1.3 1.8 2.5 3.1 3.3 1.7 1.1 3.6 2 5.5 2.8 1.4.6 2.8.9 4.2 1.1.8 0 1.7-.2 2.3-.7 2.5-2.3 4.4-5.1 5.7-8.3.3-.8.2-1.7-.1-2.4-.7-1.3-1.6-2.5-2.6-3.5-1.4-1.5-3-2.8-4.6-4-1.2-.9-2.7-1.5-4.2-1.7h-1M374.5 99h15.6v56.6h-15.6zM278.3 127.3h56.6v28.3h-56.6zM484.7 246.1h15.6v42.5h-15.6zM528.6 231.9H574v56.6h-45.4zM144.4 72.8H160v51.1h-15.6zM298.2 91.5h7.4v11.3h-7.4zM278.3 74.5h19.9v45.4h-19.9zM144.4 127.3h56.9v28.3h-56.9zM243.5 91.5h7.7v11.3h-7.7zM251.2 74.5h19.7v45.4h-19.7z"/></g><g id="Text"><path d="M512.4 13.3c1.1 0 1.7.5 1.7 1.4s-.1.6-.3.9c-.1.2-.3.2-.5.3.3 0 .4.1.6.2.3.2.4.6.4 1s-.2.9-.6 1.2c-.3.2-.7.3-1.3.3h-1.5v-5.3h1.5zm-.8 2.4h.7c.4 0 .7 0 .9-.2.2-.2.3-.4.3-.7s-.2-.6-.4-.8c-.2 0-.4-.1-.9-.1h-.6v1.8zm0 2.4h.7c.6 0 .8 0 1-.2.3-.1.4-.4.4-.8 0-.6-.4-.9-1.2-.9h-.8V18zM518.3 15h.6v3.7h-.6V18c-.4.6-.8.8-1.3.8-1 0-1.7-.8-1.7-1.9s.7-1.9 1.8-1.9 1 .2 1.3.7v-.6zm-2.1.9c-.2.3-.3.6-.3 1 0 .8.5 1.4 1.2 1.4s1.3-.6 1.3-1.4-.5-1.4-1.2-1.4-.7.1-.9.4zM520.2 18.6v-5.3h.6v5.3h-.6zM522.8 18.6h-.6v-5.3h.6v3.3l1.5-1.6h.8l-1.6 1.8 1.6 1.9h-.8l-1.5-1.6v1.6zM529.2 16.8c0 1.1-.8 1.9-1.9 1.9s-1.9-.8-1.9-1.9.8-1.9 1.9-1.9 1.9.8 1.9 1.9zm-3.1 0c0 .8.5 1.4 1.3 1.4s1.2-.6 1.2-1.4-.5-1.4-1.2-1.4-1.3.6-1.3 1.4zM530.9 15v.5c.3-.4.6-.6 1.1-.6s.6.1.9.3c.2.2.3.5.3 1v2.5h-.6v-2.4c0-.3 0-.5-.1-.6-.1-.2-.3-.2-.6-.2s-.5.1-.7.3c-.2.2-.2.4-.2.7v2.2h-.6V15h.6zM511.8 24.5c.2 0 .3-.1.5-.1.9 0 1.6.7 1.6 1.6s-.8 1.7-1.7 1.7-1.7-.8-1.7-1.7.1-.7.4-1.2l1.5-2.5h.7l-1.4 2.1zm-.7 1.5c0 .6.5 1.1 1.1 1.1s1.1-.5 1.1-1.1-.5-1.1-1.1-1.1-1.1.5-1.1 1.1zM515.8 27.3c0 .2-.2.4-.4.4s-.4-.2-.4-.4.2-.4.4-.4.4.2.4.4zM520.1 26c0 .6-.1 1-.4 1.2-.3.3-.7.4-1.2.4s-1-.2-1.2-.5c-.3-.3-.4-.6-.4-1.4v-1.8c0-.7 0-1 .3-1.3.3-.3.7-.5 1.2-.5s.9.1 1.2.4c.3.3.4.6.4 1.2v2.1zm-2.5-.1c0 .6 0 .7.2.9.2.2.5.3.8.3s.6-.1.8-.4c.1-.2.2-.4.2-.8v-2c0-.4 0-.6-.3-.8-.2-.2-.4-.2-.7-.2s-.6.1-.8.4c-.1.2-.2.4-.2.8v1.8zM523.4 24v.5c.3-.4.6-.6 1-.6s.8.2 1 .7c.3-.5.6-.7 1.2-.7s.7.1.9.4c.2.2.2.4.2 1v2.4h-.6v-2.2c0-.4 0-.6-.1-.7-.1-.2-.4-.3-.6-.3-.5 0-.8.4-.8 1v2.2h-.6v-2.2c0-.4 0-.5-.1-.7-.1-.2-.3-.3-.6-.3-.5 0-.9.4-.9 1v2.2h-.6V24h.6zM531 25.1v.4h-2l1.2-1.6c.3-.5.4-.6.4-.8 0-.3-.2-.4-.5-.4s-.5.2-.5.6h-.4c0-.6.4-1 1-1s1 .3 1 .8-.1.5-.4.9l-.8 1.1h1.1z"/><g><path d="M341.2 175.4h2.1v.6h-2.1v1.8h2.1v.6h-2.8v-5.3h2.8v.6h-2.1v1.8zM345.1 174.7v.5c.3-.4.6-.6 1.1-.6s.6.1.9.3c.2.2.3.5.3 1v2.5h-.6V176c0-.3 0-.5-.1-.6-.1-.2-.3-.2-.6-.2s-.5.1-.7.3c-.2.2-.2.4-.2.7v2.2h-.6v-3.7h.6zM349.3 177.6c0 .2 0 .2.3.2h.3v.5h-.6c-.4 0-.6-.2-.6-.6v-2.6h-.5v-.5h.5v-1.2h.6v1.2h.6v.5h-.6v2.4zM351.5 174.7v.6c.1-.3.2-.4.3-.5.2-.1.4-.2.7-.2h.1v.6h-.2c-.3 0-.6.2-.8.4-.2.2-.2.4-.2.9v1.9h-.6v-3.7h.6zM354 176.7c0 .3 0 .5.2.7.2.3.6.5 1 .5s.9-.2 1.1-.6l.5.2c-.3.6-.9 1-1.6 1-1.1 0-1.9-.8-1.9-1.9s.8-1.9 1.9-1.9 1.9.8 1.9 1.9v.2H354zm2.4-.4c0-.3 0-.4-.2-.6-.2-.3-.6-.5-1-.5s-.8.2-1 .5c-.1.2-.2.3-.2.6h2.4zm-.2-3.2l-.9 1.1h-.4l.7-1.1h.7zM358.5 176.7c0 .3 0 .5.2.7.2.3.6.5 1 .5s.9-.2 1.1-.6l.5.2c-.3.6-.9 1-1.6 1-1.1 0-1.9-.8-1.9-1.9s.8-1.9 1.9-1.9 1.9.8 1.9 1.9v.2h-3.1zm2.4-.4c0-.3 0-.4-.2-.6-.2-.3-.6-.5-1-.5s-.8.2-1 .5c-.1.2-.2.3-.2.6h2.4zM340.6 182.7v-.6h3l-2.1 5.3h-.7l1.9-4.7h-2zM344.7 187c0 .2-.2.4-.4.4s-.4-.2-.4-.4.2-.4.4-.4.4.2.4.4zM345.9 182.7v-.6h3l-2.1 5.3h-.7l1.9-4.7h-2zM354.6 183.7v.5c.3-.4.6-.6 1-.6s.8.2 1 .7c.3-.5.6-.7 1.2-.7s.7.1.9.4c.2.2.2.4.2 1v2.4h-.6v-2.2c0-.4 0-.6-.1-.7-.1-.2-.4-.3-.6-.3-.5 0-.8.4-.8 1v2.2h-.6v-2.2c0-.4 0-.5-.1-.7-.1-.2-.3-.3-.6-.3-.5 0-.9.4-.9 1v2.2h-.6v-3.7h.6zM362.2 184.9v.4h-2l1.2-1.6c.3-.5.4-.6.4-.8 0-.3-.2-.4-.5-.4s-.5.2-.5.6h-.4c0-.6.4-1 1-1s1 .3 1 .8-.1.5-.4.9l-.8 1.1h1.1z"/></g><g><path d="M185.7 100.3v.6h-3.8l3-4.8h-2.7v-.6h3.8l-3 4.8h2.7zM187.5 96.2c0 .2-.2.4-.4.4s-.4-.2-.4-.4.2-.4.4-.4.4.2.4.4zm0 4.7h-.6v-3.7h.6v3.7zM189.4 97.2v.5c.3-.4.6-.6 1-.6s.8.2 1 .7c.3-.5.6-.7 1.2-.7s.7.1.9.4c.2.2.2.4.2 1v2.4h-.6v-2.2c0-.4 0-.6-.1-.7-.1-.2-.4-.3-.6-.3-.5 0-.8.4-.8 1v2.2h-.6v-2.2c0-.4 0-.5-.1-.7-.1-.2-.3-.3-.6-.3-.5 0-.9.4-.9 1v2.2h-.6v-3.7h.6zM195.7 97.2v.5c.3-.4.6-.6 1-.6s.8.2 1 .7c.3-.5.6-.7 1.2-.7s.7.1.9.4c.2.2.2.4.2 1v2.4h-.6v-2.2c0-.4 0-.6-.1-.7-.1-.2-.4-.3-.6-.3-.5 0-.8.4-.8 1v2.2h-.6v-2.2c0-.4 0-.5-.1-.7-.1-.2-.3-.3-.6-.3-.5 0-.9.4-.9 1v2.2h-.6v-3.7h.6zM201.8 99.2c0 .3 0 .5.2.7.2.3.6.5 1 .5s.9-.2 1.1-.6l.5.2c-.3.6-.9 1-1.6 1-1.1 0-1.9-.8-1.9-1.9s.8-1.9 1.9-1.9 1.9.8 1.9 1.9v.2h-3.1zm2.4-.4c0-.3 0-.4-.2-.6-.2-.3-.6-.5-1-.5s-.8.2-1 .5c-.1.2-.2.3-.2.6h2.4zM206.5 97.2v.6c.1-.3.2-.4.3-.5.2-.1.4-.2.7-.2h.1v.6h-.2c-.3 0-.6.2-.8.4-.2.2-.2.4-.2.9v1.9h-.6v-3.7h.6zM182.6 106.3v-.6l1.8-1.2v5.4h-.6v-4.4l-1.2.8zM185.8 108.7v-.5l2.8-3.7v3.6h.6v.6h-.6v1.2h-.6v-1.2h-2.1zm2.1-2.6l-1.5 2h1.5v-2zM191 109.5c0 .2-.2.4-.4.4s-.4-.2-.4-.4.2-.4.4-.4.4.2.4.4zM195.3 108.3c0 .6-.1 1-.4 1.2-.3.3-.7.4-1.2.4s-1-.2-1.2-.5c-.3-.3-.4-.6-.4-1.4v-1.8c0-.7 0-1 .3-1.3.3-.3.7-.5 1.2-.5s.9.1 1.2.4c.3.3.4.6.4 1.2v2.1zm-2.5-.1c0 .6 0 .7.2.9.2.2.5.3.8.3s.6-.1.8-.4c.1-.2.2-.4.2-.8v-2c0-.4 0-.6-.3-.8-.2-.2-.4-.2-.7-.2s-.6.1-.8.4c-.1.2-.2.4-.2.8v1.8zM198.6 106.2v.5c.3-.4.6-.6 1-.6s.8.2 1 .7c.3-.5.6-.7 1.2-.7s.7.1.9.4c.2.2.2.4.2 1v2.4h-.6v-2.2c0-.4 0-.6-.1-.7-.1-.2-.4-.3-.6-.3-.5 0-.8.4-.8 1v2.2h-.6v-2.2c0-.4 0-.5-.1-.7-.1-.2-.3-.3-.6-.3-.5 0-.9.4-.9 1v2.2h-.6v-3.7h.6zM206.2 107.4v.4h-2l1.2-1.6c.3-.5.4-.6.4-.8 0-.3-.2-.4-.5-.4s-.5.2-.5.6h-.4c0-.6.4-1 1-1s1 .3 1 .8-.1.5-.4.9l-.8 1.1h1.1z"/></g><g><path d="M331.8 100.3v.6H328l3-4.8h-2.7v-.6h3.8l-3 4.8h2.7zM333.7 96.2c0 .2-.2.4-.4.4s-.4-.2-.4-.4.2-.4.4-.4.4.2.4.4zm0 4.7h-.6v-3.7h.6v3.7zM335.5 97.2v.5c.3-.4.6-.6 1-.6s.8.2 1 .7c.3-.5.6-.7 1.2-.7s.7.1.9.4c.2.2.2.4.2 1v2.4h-.6v-2.2c0-.4 0-.6-.1-.7-.1-.2-.4-.3-.6-.3-.5 0-.8.4-.8 1v2.2h-.6v-2.2c0-.4 0-.5-.1-.7-.1-.2-.3-.3-.6-.3-.5 0-.9.4-.9 1v2.2h-.6v-3.7h.6zM341.9 97.2v.5c.3-.4.6-.6 1-.6s.8.2 1 .7c.3-.5.6-.7 1.2-.7s.7.1.9.4c.2.2.2.4.2 1v2.4h-.6v-2.2c0-.4 0-.6-.1-.7-.1-.2-.4-.3-.6-.3-.5 0-.8.4-.8 1v2.2h-.6v-2.2c0-.4 0-.5-.1-.7-.1-.2-.3-.3-.6-.3-.5 0-.9.4-.9 1v2.2h-.6v-3.7h.6zM348 99.2c0 .3 0 .5.2.7.2.3.6.5 1 .5s.9-.2 1.1-.6l.5.2c-.3.6-.9 1-1.6 1-1.1 0-1.9-.8-1.9-1.9s.8-1.9 1.9-1.9 1.9.8 1.9 1.9v.2H348zm2.4-.4c0-.3 0-.4-.2-.6-.2-.3-.6-.5-1-.5s-.8.2-1 .5c-.1.2-.2.3-.2.6h2.4zM352.7 97.2v.6c.1-.3.2-.4.3-.5.2-.1.4-.2.7-.2h.1v.6h-.2c-.3 0-.6.2-.8.4-.2.2-.2.4-.2.9v1.9h-.6v-3.7h.6zM328.8 106.3v-.6l1.8-1.2v5.4h-.6v-4.4l-1.2.8zM335 109.3v.6h-3l1.9-2.7c.5-.8.7-1 .7-1.3 0-.5-.4-.8-.9-.8s-.7.2-.8.4v.6h-.6c0-1 .6-1.6 1.5-1.6s1.5.5 1.5 1.3-.2.8-.6 1.5l-1.4 2h1.9zM337.1 109.5c0 .2-.2.4-.4.4s-.4-.2-.4-.4.2-.4.4-.4.4.2.4.4zM338.5 105.2v-.6h3l-1.6 2c.9 0 1.6.7 1.6 1.6s-.8 1.7-1.8 1.7-1.4-.5-1.6-1.3h.6c.1.4.5.7 1 .7s1.2-.5 1.2-1.1-.5-1.1-1.2-1.1-.4 0-.6.2l-.3-.2 1.5-1.9h-1.9zM344.8 106.2v.5c.3-.4.6-.6 1-.6s.8.2 1 .7c.3-.5.6-.7 1.2-.7s.7.1.9.4c.2.2.2.4.2 1v2.4h-.6v-2.2c0-.4 0-.6-.1-.7-.1-.2-.4-.3-.6-.3-.5 0-.8.4-.8 1v2.2h-.6v-2.2c0-.4 0-.5-.1-.7-.1-.2-.3-.3-.6-.3-.5 0-.9.4-.9 1v2.2h-.6v-3.7h.6zM352.4 107.4v.4h-2l1.2-1.6c.3-.5.4-.6.4-.8 0-.3-.2-.4-.5-.4s-.5.2-.5.6h-.4c0-.6.4-1 1-1s1 .3 1 .8-.1.5-.4.9l-.8 1.1h1.1z"/></g><g><path d="M541.8 257.7v.6H538l3-4.8h-2.7v-.6h3.8l-3 4.8h2.7zM543.7 253.6c0 .2-.2.4-.4.4s-.4-.2-.4-.4.2-.4.4-.4.4.2.4.4zm0 4.7h-.6v-3.7h.6v3.7zM545.5 254.6v.5c.3-.4.6-.6 1-.6s.8.2 1 .7c.3-.5.6-.7 1.2-.7s.7.1.9.4c.2.2.2.4.2 1v2.4h-.6v-2.2c0-.4 0-.6-.1-.7-.1-.2-.4-.3-.6-.3-.5 0-.8.4-.8 1v2.2h-.6v-2.2c0-.4 0-.5-.1-.7-.1-.2-.3-.3-.6-.3-.5 0-.9.4-.9 1v2.2h-.6v-3.7h.6zM551.9 254.6v.5c.3-.4.6-.6 1-.6s.8.2 1 .7c.3-.5.6-.7 1.2-.7s.7.1.9.4c.2.2.2.4.2 1v2.4h-.6v-2.2c0-.4 0-.6-.1-.7-.1-.2-.4-.3-.6-.3-.5 0-.8.4-.8 1v2.2h-.6v-2.2c0-.4 0-.5-.1-.7-.1-.2-.3-.3-.6-.3-.5 0-.9.4-.9 1v2.2h-.6v-3.7h.6zM558 256.7c0 .3 0 .5.2.7.2.3.6.5 1 .5s.9-.2 1.1-.6l.5.2c-.3.6-.9 1-1.6 1-1.1 0-1.9-.8-1.9-1.9s.8-1.9 1.9-1.9 1.9.8 1.9 1.9v.2H558zm2.4-.4c0-.3 0-.4-.2-.6-.2-.3-.6-.5-1-.5s-.8.2-1 .5c-.1.2-.2.3-.2.6h2.4zM562.7 254.6v.6c.1-.3.2-.4.3-.5.2-.1.4-.2.7-.2h.1v.6h-.2c-.3 0-.6.2-.8.4-.2.2-.2.4-.2.9v1.9h-.6v-3.7h.6zM538.8 263.7v-.6l1.8-1.2v5.4h-.6v-4.4l-1.2.8zM542.3 263.7v-.6l1.8-1.2v5.4h-.6v-4.4l-1.2.8zM546.7 267c0 .2-.2.4-.4.4s-.4-.2-.4-.4.2-.4.4-.4.4.2.4.4zM549.5 265.2c-.2 0-.3.1-.5.1-.9 0-1.6-.7-1.6-1.6s.8-1.7 1.7-1.7 1.7.7 1.7 1.7-.1.7-.4 1.2l-1.5 2.5h-.7l1.3-2.1zm-1.5-1.5c0 .6.5 1.1 1.1 1.1s1.1-.5 1.1-1.1-.5-1.1-1-1.1-1.1.5-1.1 1.1zM554 263.6v.5c.3-.4.6-.6 1-.6s.8.2 1 .7c.3-.5.6-.7 1.2-.7s.7.1.9.4c.2.2.2.4.2 1v2.4h-.6v-2.2c0-.4 0-.6-.1-.7-.1-.2-.4-.3-.6-.3-.5 0-.8.4-.8 1v2.2h-.6v-2.2c0-.4 0-.5-.1-.7-.1-.2-.3-.3-.6-.3-.5 0-.9.4-.9 1v2.2h-.6v-3.7h.6zM561.6 264.8v.4h-2l1.2-1.6c.3-.5.4-.6.4-.8 0-.3-.2-.4-.5-.4s-.5.2-.5.6h-.4c0-.6.4-1 1-1s1 .3 1 .8-.1.5-.4.9l-.8 1.1h1.1z"/></g><g><path d="M470.5 101h-.7v-5.3h.7v2.5l2.1-2.5h.8l-2.2 2.6 2.2 2.7h-.9l-2-2.5v2.5zM477.5 99.1c0 1.1-.8 1.9-1.9 1.9s-1.9-.8-1.9-1.9.8-1.9 1.9-1.9 1.9.8 1.9 1.9zm-3.1 0c0 .8.5 1.4 1.3 1.4s1.2-.6 1.2-1.4-.5-1.4-1.2-1.4-1.3.6-1.3 1.4zM481.6 100.5c-.4.4-.8.5-1.4.5-1.1 0-1.8-.8-1.8-1.9s.8-1.9 1.8-1.9 1 .2 1.3.6l-.4.4c-.3-.3-.6-.4-.9-.4-.7 0-1.2.6-1.2 1.4s.5 1.4 1.2 1.4.6-.1.9-.4l.4.4zM483.1 97.8c.3-.4.7-.6 1.1-.6s.7.1.9.3c.2.2.3.5.3 1v2.5h-.6v-2.4c0-.5-.2-.8-.7-.8s-.5.1-.7.3c-.2.2-.2.4-.2.7v2.2h-.6v-5.3h.6v2.2zM487.1 99.3c0 .3 0 .5.2.7.2.3.6.5 1 .5s.9-.2 1.1-.6l.5.2c-.3.6-.9 1-1.6 1-1.1 0-1.9-.8-1.9-1.9s.8-1.9 1.9-1.9 1.9.8 1.9 1.9v.2h-3.1zm2.4-.4c0-.3 0-.4-.2-.6-.2-.3-.6-.5-1-.5s-.8.2-1 .5c-.1.2-.2.3-.2.6h2.4zM491.8 97.3v.5c.3-.4.6-.6 1.1-.6s.6.1.9.3c.2.2.3.5.3 1v2.5h-.6v-2.4c0-.3 0-.5-.1-.6-.1-.2-.3-.2-.6-.2s-.5.1-.7.3c-.2.2-.2.4-.2.7v2.2h-.6v-3.7h.6zM495.4 102.2h-.4l.7-2.1.6.2-.8 1.9zM500.5 98h2.1v.6h-2.1v1.8h2.1v.6h-2.8v-5.3h2.8v.6h-2.1v1.8zM505.5 98.3c0-.4-.3-.6-.7-.6s-.7.2-.7.5.2.4.8.6c.5.1.7.2.9.4.2.2.3.4.3.7 0 .6-.5 1.1-1.3 1.1s-1.3-.4-1.4-1.1h.6c0 .4.3.6.8.6s.7-.2.7-.5-.2-.5-.8-.6c-.8-.2-1.2-.6-1.2-1.1s.5-1.1 1.3-1.1 1.3.4 1.3 1.1h-.6zM509.1 98.3c0-.4-.3-.6-.7-.6s-.7.2-.7.5.2.4.8.6c.5.1.7.2.9.4.2.2.3.4.3.7 0 .6-.5 1.1-1.3 1.1s-1.3-.4-1.4-1.1h.6c0 .4.3.6.8.6s.7-.2.7-.5-.2-.5-.8-.6c-.8-.2-1.2-.6-1.2-1.1s.5-1.1 1.3-1.1 1.3.4 1.3 1.1h-.6zM511.2 99.3c0 .3 0 .5.2.7.2.3.6.5 1 .5s.9-.2 1.1-.6l.5.2c-.3.6-.9 1-1.6 1-1.1 0-1.9-.8-1.9-1.9s.8-1.9 1.9-1.9 1.9.8 1.9 1.9v.2h-3.1zm2.4-.4c0-.3 0-.4-.2-.6-.2-.3-.6-.5-1-.5s-.8.2-1 .5c-.1.2-.2.3-.2.6h2.4zM516 97.3v.5c.3-.4.6-.6 1.1-.6s.6.1.9.3c.2.2.3.5.3 1v2.5h-.6v-2.4c0-.3 0-.5-.1-.6-.1-.2-.3-.2-.6-.2s-.5.1-.7.3c-.2.2-.2.4-.2.7v2.2h-.6v-3.7h.6zM519.5 102.2h-.4l.7-2.1.6.2-.8 1.9zM475.3 104.6h.7l-1.6 5.3h-.6l-1.2-4.2-1.2 4.2h-.6l-1.6-5.3h.7l1.2 4.1 1.2-4.1h.6l1.1 4.1 1.2-4.1zM480.2 108.1c0 1.1-.8 1.9-1.9 1.9s-1.9-.8-1.9-1.9.8-1.9 1.9-1.9 1.9.8 1.9 1.9zm-3.1 0c0 .8.5 1.4 1.3 1.4s1.2-.6 1.2-1.4-.5-1.4-1.2-1.4-1.3.6-1.3 1.4zM481.9 106.8c.3-.4.7-.6 1.1-.6s.7.1.9.3c.2.2.3.5.3 1v2.5h-.6v-2.4c0-.5-.2-.8-.7-.8s-.5.1-.7.3c-.2.2-.2.4-.2.7v2.2h-.6v-5.3h.6v2.2zM486.1 106.3v.5c.3-.4.6-.6 1.1-.6s.6.1.9.3c.2.2.3.5.3 1v2.5h-.6v-2.4c0-.3 0-.5-.1-.6-.1-.2-.3-.2-.6-.2s-.5.1-.7.3c-.2.2-.2.4-.2.7v2.2h-.6v-3.7h.6zM490.1 108.3c0 .3 0 .5.2.7.2.3.6.5 1 .5s.9-.2 1.1-.6l.5.2c-.3.6-.9 1-1.6 1-1.1 0-1.9-.8-1.9-1.9s.8-1.9 1.9-1.9 1.9.8 1.9 1.9v.2h-3.1zm2.4-.4c0-.3 0-.4-.2-.6-.2-.3-.6-.5-1-.5s-.8.2-1 .5c-.1.2-.2.3-.2.6h2.4zM494.8 106.3v.5c.3-.4.6-.6 1.1-.6s.6.1.9.3c.2.2.3.5.3 1v2.5h-.6v-2.4c0-.3 0-.5-.1-.6-.1-.2-.3-.2-.6-.2s-.5.1-.7.3c-.2.2-.2.4-.2.7v2.2h-.6v-3.7h.6zM469.8 114.3v-.6h3l-1.6 2c.9 0 1.6.7 1.6 1.6s-.8 1.7-1.8 1.7-1.4-.5-1.6-1.3h.6c.1.4.5.7 1 .7s1.2-.5 1.2-1.1-.5-1.1-1.2-1.1-.4 0-.6.2l-.3-.2 1.5-1.9h-1.9zM474 114.3v-.6h3l-1.6 2c.9 0 1.6.7 1.6 1.6s-.8 1.7-1.8 1.7-1.4-.5-1.6-1.3h.6c.1.4.5.7 1 .7s1.2-.5 1.2-1.1-.5-1.1-1.2-1.1-.4 0-.6.2l-.3-.2 1.5-1.9h-1.9zM478.9 118.6c0 .2-.2.4-.4.4s-.4-.2-.4-.4.2-.4.4-.4.4.2.4.4zM479.9 115.4v-.6l1.8-1.2v5.4h-.6v-4.4l-1.2.8zM485.9 115.3v.5c.3-.4.6-.6 1-.6s.8.2 1 .7c.3-.5.6-.7 1.2-.7s.7.1.9.4c.2.2.2.4.2 1v2.4h-.6v-2.2c0-.4 0-.6-.1-.7-.1-.2-.4-.3-.6-.3-.5 0-.8.4-.8 1v2.2h-.6v-2.2c0-.4 0-.5-.1-.7-.1-.2-.3-.3-.6-.3-.5 0-.9.4-.9 1v2.2h-.6v-3.7h.6zM493.5 116.5v.4h-2l1.2-1.6c.3-.5.4-.6.4-.8 0-.3-.2-.4-.5-.4s-.5.2-.5.6h-.4c0-.6.4-1 1-1s1 .3 1 .8-.1.5-.4.9l-.8 1.1h1.1z"/></g><g><path d="M376.3 225.7c1.1 0 1.7.5 1.7 1.4s-.1.6-.3.9c-.1.2-.3.2-.5.3.3 0 .4.1.6.2.3.2.4.6.4 1s-.2.9-.6 1.2c-.3.2-.7.3-1.3.3h-1.5v-5.3h1.5zm-.8 2.4h.7c.4 0 .7 0 .9-.2.2-.2.3-.4.3-.7s-.2-.6-.4-.8c-.2 0-.4-.1-.9-.1h-.6v1.8zm0 2.4h.7c.6 0 .8 0 1-.2.3-.1.4-.4.4-.8 0-.6-.4-.9-1.2-.9h-.8v1.8zM382.2 227.4h.6v3.7h-.6v-.7c-.4.6-.8.8-1.3.8-1 0-1.7-.8-1.7-1.9s.7-1.9 1.8-1.9 1 .2 1.3.7v-.6zm-2.1.9c-.2.3-.3.6-.3 1 0 .8.5 1.4 1.2 1.4s1.3-.6 1.3-1.4-.5-1.4-1.2-1.4-.7.1-.9.4zM387 225.7h.6v5.3h-.6v-.6c-.4.5-.8.7-1.3.7-1 0-1.7-.8-1.7-1.9s.7-2 1.7-2 1 .2 1.3.6v-2.2zm-2.4 3.5c0 .8.5 1.4 1.2 1.4s1.2-.6 1.2-1.4-.5-1.4-1.2-1.4-1.2.6-1.2 1.4zM374.5 238.9v-.5l2.8-3.7v3.6h.6v.6h-.6v1.2h-.6v-1.2h-2.1zm2.1-2.6l-1.5 2h1.5v-2zM379.7 239.7c0 .2-.2.4-.4.4s-.4-.2-.4-.4.2-.4.4-.4.4.2.4.4zM380.6 236.5v-.6l1.8-1.2v5.4h-.6v-4.4l-1.2.8zM387.5 236.4v.5c.3-.4.6-.6 1-.6s.8.2 1 .7c.3-.5.6-.7 1.2-.7s.7.1.9.4c.2.2.2.4.2 1v2.4h-.6v-2.2c0-.4 0-.6-.1-.7-.1-.2-.4-.3-.6-.3-.5 0-.8.4-.8 1v2.2h-.6v-2.2c0-.4 0-.5-.1-.7-.1-.2-.3-.3-.6-.3-.5 0-.9.4-.9 1v2.2h-.6v-3.7h.6zM395.1 237.6v.4h-2l1.2-1.6c.3-.5.4-.6.4-.8 0-.3-.2-.4-.5-.4s-.5.2-.5.6h-.4c0-.6.4-1 1-1s1 .3 1 .8-.1.5-.4.9l-.8 1.1h1.1z"/></g><g><path d="M447.1 220.8h1.4c1.6 0 2.6 1 2.6 2.6s-.3 1.6-.8 2.1c-.5.4-1.1.6-1.9.6h-1.3v-5.3zm.7 4.8h.2c.9 0 1.3 0 1.7-.4.5-.4.7-1 .7-1.8 0-1.3-.7-2-1.9-2h-.7v4.2zM455 222.5v2.4c0 .5 0 .8-.4 1-.3.2-.6.4-1.1.4s-.8-.1-1.1-.4c-.2-.2-.4-.6-.4-1v-2.4h.6v2.3c0 .5.3.9.8.9s.5-.1.7-.3c.1-.1.2-.3.2-.6v-2.4h.6zM458.1 223.5c0-.4-.3-.6-.7-.6s-.7.2-.7.5.2.4.8.6c.5.1.7.2.9.4.2.2.3.4.3.7 0 .6-.5 1.1-1.3 1.1s-1.3-.4-1.4-1.1h.6c0 .4.3.6.8.6s.7-.2.7-.5-.2-.5-.8-.6c-.8-.2-1.2-.6-1.2-1.1s.5-1.1 1.3-1.1 1.3.4 1.3 1.1h-.6zM462.7 225.7c-.4.4-.8.5-1.4.5-1.1 0-1.8-.8-1.8-1.9s.8-1.9 1.8-1.9 1 .2 1.3.6l-.4.4c-.3-.3-.6-.4-.9-.4-.7 0-1.2.6-1.2 1.4s.5 1.4 1.2 1.4.6-.1.9-.4l.4.4zM464.3 223c.3-.4.7-.6 1.1-.6s.7.1.9.3c.2.2.3.5.3 1v2.5h-.6v-2.4c0-.5-.2-.8-.7-.8s-.5.1-.7.3c-.2.2-.2.4-.2.7v2.2h-.6v-5.3h.6v2.2zM468.3 224.5c0 .3 0 .5.2.7.2.3.6.5 1 .5s.9-.2 1.1-.6l.5.2c-.3.6-.9 1-1.6 1-1.1 0-1.9-.8-1.9-1.9s.8-1.9 1.9-1.9 1.9.8 1.9 1.9v.2h-3.1zm2.4-.4c0-.3 0-.4-.2-.6-.2-.3-.6-.5-1-.5s-.8.2-1 .5c-.1.2-.2.3-.2.6h2.4zM447 230.5v-.6h3l-1.6 2c.9 0 1.6.7 1.6 1.6s-.8 1.7-1.8 1.7-1.4-.5-1.6-1.3h.6c.1.4.5.7 1 .7s1.2-.5 1.2-1.1-.5-1.1-1.2-1.1-.4 0-.6.2l-.3-.2 1.5-1.9h-1.9zM451.9 234.8c0 .2-.2.4-.4.4s-.4-.2-.4-.4.2-.4.4-.4.4.2.4.4zM453.1 230.5v-.6h3l-2.1 5.3h-.7l1.9-4.7h-2zM460.2 231.5v.5c.3-.4.6-.6 1-.6s.8.2 1 .7c.3-.5.6-.7 1.2-.7s.7.1.9.4c.2.2.2.4.2 1v2.4h-.6V233c0-.4 0-.6-.1-.7-.1-.2-.4-.3-.6-.3-.5 0-.8.4-.8 1v2.2h-.6V233c0-.4 0-.5-.1-.7-.1-.2-.3-.3-.6-.3-.5 0-.9.4-.9 1v2.2h-.6v-3.7h.6zM467.8 232.6v.4h-2l1.2-1.6c.3-.5.4-.6.4-.8 0-.3-.2-.4-.5-.4s-.5.2-.5.6h-.4c0-.6.4-1 1-1s1 .3 1 .8-.1.5-.4.9l-.8 1.1h1.1z"/></g><g><path d="M170.6 237.6v.6h-2.5v-5.3h.7v4.7h1.9zM172.2 233.5c0 .2-.2.4-.4.4s-.4-.2-.4-.4.2-.4.4-.4.4.2.4.4zm0 4.7h-.6v-3.7h.6v3.7zM174.2 238.2h-.6V235h-.5v-.5h.5v-.5c0-.7.4-1.2 1-1.2h.2v.5c-.4 0-.6.2-.6.6v.5h.6v.5h-.6v3.2zM176.6 237.4c0 .2 0 .2.3.2h.3v.5h-.6c-.4 0-.6-.2-.6-.6v-2.6h-.5v-.5h.5v-1.2h.6v1.2h.6v.5h-.6v2.4z"/></g></g></svg>