<svg xmlns="http://www.w3.org/2000/svg" viewBox="0 0 664.4 282.7"><defs><style>.cls-1,.cls-10,.cls-11,.cls-12,.cls-13,.cls-14,.cls-15,.cls-16,.cls-17,.cls-18,.cls-19,.cls-2,.cls-20,.cls-21,.cls-22,.cls-23,.cls-24,.cls-25,.cls-26,.cls-27,.cls-28,.cls-3,.cls-4,.cls-5,.cls-6,.cls-7,.cls-8,.cls-9{fill:none}.cls-1,.cls-10,.cls-11,.cls-12,.cls-13,.cls-14,.cls-15,.cls-16,.cls-17,.cls-18,.cls-19,.cls-2,.cls-20,.cls-21,.cls-22,.cls-23,.cls-24,.cls-25,.cls-26,.cls-27,.cls-28,.cls-3,.cls-4,.cls-5,.cls-6,.cls-7,.cls-9{stroke-linecap:round;stroke-linejoin:round}.cls-1,.cls-11,.cls-12,.cls-13,.cls-14,.cls-15,.cls-16,.cls-17,.cls-18,.cls-19,.cls-2,.cls-20,.cls-21,.cls-22,.cls-23,.cls-24,.cls-25,.cls-27,.cls-28,.cls-3,.cls-4,.cls-5,.cls-6,.cls-9{stroke-width:.1px}.cls-1,.cls-11,.cls-12,.cls-14,.cls-22,.cls-25,.cls-26,.cls-27,.cls-3,.cls-4{stroke:#194164}.cls-1,.cls-11,.cls-12,.cls-14{stroke-dasharray:0 0 0 0 2.9 1.4 .2 1.4}.cls-2{stroke:#646464}.cls-13,.cls-15,.cls-16,.cls-17,.cls-18,.cls-19,.cls-20,.cls-21,.cls-22,.cls-23,.cls-27,.cls-28,.cls-3,.cls-4,.cls-5,.cls-6,.cls-9{stroke-dasharray:0 0 1.4 1.4}.cls-29{clip-path:url(#clippath)}.cls-4{stroke-dashoffset:1px}.cls-5{stroke-dashoffset:2.5px}.cls-13,.cls-15,.cls-16,.cls-17,.cls-18,.cls-19,.cls-20,.cls-21,.cls-23,.cls-24,.cls-28,.cls-5,.cls-6,.cls-9{stroke:#969696}.cls-30,.cls-31{fill:#fff}.cls-7{stroke:#000;stroke-width:.3px}.cls-8{clip-rule:evenodd}.cls-9{stroke-dashoffset:2.8px}.cls-10{stroke:#b8b8b8;stroke-width:0}.cls-32{clip-path:url(#clippath-1)}.cls-33{clip-path:url(#clippath-3)}.cls-34{clip-path:url(#clippath-2)}.cls-11{stroke-dashoffset:4.3px}.cls-12{stroke-dashoffset:1.7px}.cls-13{stroke-dashoffset:2.8px}.cls-14{stroke-dashoffset:1.9px}.cls-15{stroke-dashoffset:1.1px}.cls-16{stroke-dashoffset:2.4px}.cls-17{stroke-dashoffset:2.7px}.cls-18{stroke-dashoffset:2.5px}.cls-19{stroke-dashoffset:2.6px}.cls-20{stroke-dashoffset:1.4px}.cls-21,.cls-27{stroke-dashoffset:.7px}.cls-31{fill-rule:evenodd}.cls-22{stroke-dashoffset:.2px}.cls-23{stroke-dashoffset:2.7px}.cls-26{stroke-width:.3px}.cls-28{stroke-dashoffset:1.2px}</style><clipPath id="clippath"><path class="cls-8" d="M5.5.1v7.2H239l7-7.2H5.5"/></clipPath><clipPath id="clippath-1"><path class="cls-8" d="M5.5.1v7.2H239l7-7.2H5.5"/></clipPath><clipPath id="clippath-2"><path class="cls-8" d="M5.5 108.6v7.2h139.7v-7.2H5.5"/></clipPath><clipPath id="clippath-3"><path class="cls-8" d="M5.5 108.6v7.2h139.7v-7.2H5.5"/></clipPath></defs><g id="Plan"><path class="cls-26" d="M163.4 58.7h29.8v39.6h-29.8z"/><path class="cls-25" d="M195.1 49.8h-35.5M176.9 52.7h13.9M163.9 55.8h13.9"/><path class="cls-31" d="M341.5 101.3c-.9 1.3-.9 3 0 4.3 1.5 1.9 3.8 2.9 6.2 2.9l9-.3v-9.6l-9-.3c-2.4 0-4.7 1-6.2 2.9"/><path class="cls-25" d="M341.5 101.3c-.9 1.3-.9 3 0 4.3 1.5 1.9 3.8 2.9 6.2 2.9l9-.3v-9.6l-9-.3c-2.4 0-4.7 1-6.2 2.9"/><path class="cls-31" d="M351.6 103.5c0-1-.3-2-1.1-2.8-.7-.7-1.7-1.2-2.7-1.2-2.1 0-4.1.9-5.4 2.5-.6.9-.6 2 0 2.9 1.3 1.6 3.3 2.5 5.4 2.5 1 0 2-.4 2.7-1.2.7-.7 1.1-1.8 1.1-2.8"/><path class="cls-25" d="M351.6 103.5c0-1-.3-2-1.1-2.8-.7-.7-1.7-1.2-2.7-1.2-2.1 0-4.1.9-5.4 2.5-.6.9-.6 2 0 2.9 1.3 1.6 3.3 2.5 5.4 2.5 1 0 2-.4 2.7-1.2.7-.7 1.1-1.8 1.1-2.8"/><path class="cls-31" d="M356.3 47.2h-48.1v.1h-.1l-.1.1V68.3h.1l.1.1.1.1h48.1l.1-.1.1-.1h.1V47.4l-.1-.1h-.1v-.1h-.2"/><path class="cls-25" d="M356.3 47.2h-48.1v.1h-.1l-.1.1V68.3h.1l.1.1.1.1h48.1l.1-.1.1-.1h.1V47.4l-.1-.1h-.1v-.1h-.2"/><path class="cls-31" d="M351.1 49.3h-37.4c-.4 0-.9 0-1.3.3-.4.2-.8.4-1.1.7-.3.3-.6.7-.7 1.1-.2.4-.3.9-.3 1.3v10.2c0 .4 0 .9.3 1.3.2.4.4.8.7 1.1.3.3.7.6 1.1.7.4.2.9.3 1.3.3h37.4c.4 0 .9 0 1.3-.3.4-.2.8-.4 1.1-.7.3-.3.6-.7.7-1.1.2-.4.3-.9.3-1.3V52.7c0-.4 0-.9-.3-1.3-.2-.4-.4-.8-.7-1.1-.3-.3-.7-.6-1.1-.7-.4-.2-.9-.3-1.3-.3"/><path class="cls-25" d="M351.1 49.3h-37.4c-.4 0-.9 0-1.3.3-.4.2-.8.4-1.1.7-.3.3-.6.7-.7 1.1-.2.4-.3.9-.3 1.3v10.2c0 .4 0 .9.3 1.3.2.4.4.8.7 1.1.3.3.7.6 1.1.7.4.2.9.3 1.3.3h37.4c.4 0 .9 0 1.3-.3.4-.2.8-.4 1.1-.7.3-.3.6-.7.7-1.1.2-.4.3-.9.3-1.3V52.7c0-.4 0-.9-.3-1.3-.2-.4-.4-.8-.7-1.1-.3-.3-.7-.6-1.1-.7-.4-.2-.9-.3-1.3-.3M357.4 116.8v-24"/><path class="cls-7" d="M356.6 116.8V92.1"/><path class="cls-25" d="M358.8 116.8V94.2M357.4 116.8v-24M356.6 116.8V92.1M358.8 116.8V94.2M361.2 92.8V74.5"/><path class="cls-7" d="M360.5 92.1V75.3"/><path class="cls-25" d="M362.6 94.2V73.1M361.2 92.8V74.5M360.5 92.1V75.3M362.6 94.2V73.1M357.4 74.5V46.9"/><path class="cls-7" d="M356.6 75.3V46.9"/><path class="cls-25" d="M358.8 73.1V46.9M357.4 74.5V46.9M356.6 75.3V46.9M358.8 73.1V46.9"/><path class="cls-31" d="M356.7 75.9h-12.4c-.1 0-.3.1-.4.2-.1.1-.2.2-.2.4V90.6c0 .1.1.3.2.4.1.1.2.2.4.2h12.4V75.6"/><path class="cls-25" d="M356.7 75.9h-12.4c-.1 0-.3.1-.4.2-.1.1-.2.2-.2.4V90.6c0 .1.1.3.2.4.1.1.2.2.4.2h12.4V75.6"/><path class="cls-22" d="M356.6 92.1h3.9"/><path class="cls-4" d="M360.5 92.1V75.3"/><path class="cls-22" d="M360.5 75.3h-3.9"/><path class="cls-25" d="M361.2 74.5h-3.8"/><path class="cls-7" d="M360.5 75.3h-3.9"/><path class="cls-25" d="M362.6 73.1h-3.8M361.2 74.5h-3.8M360.5 75.3h-3.9M362.6 73.1h-3.8M357.4 92.8h3.8"/><path class="cls-7" d="M356.6 92.1h3.9"/><path class="cls-25" d="M358.8 94.2h3.8M357.4 92.8h3.8M356.6 92.1h3.9M358.8 94.2h3.8"/><path class="cls-7" d="M356.6 92.1V75.3"/><path class="cls-31" d="M136.1 238.9v-2.6h37.2v2.6h66v-2.6h36.9v2.6h33.9l-7 42H109.2l-6.7-40.8v-1.2h33.6"/><path class="cls-24" d="M108.2 274h8M127 274h10.5M148.6 274h10.5M169.9 274h10.6M191.5 274h10.6M212.9 274h10.5M234.5 274H245M255.8 274h10.6M277.4 274H288M298.8 274h5.5M107 266.5h9.2M127 266.5h10.5M148.6 266.5h10.5M169.9 266.5h10.6M191.5 266.5h10.6M212.9 266.5h10.5M234.5 266.5H245M255.8 266.5h10.6M277.4 266.5H288M298.8 266.5h6.7M105.8 259.3h10.4M127 259.3h10.5M148.6 259.3h10.5M169.9 259.3h10.6M191.5 259.3h10.6M212.9 259.3h10.5M234.5 259.3H245M255.8 259.3h10.6M277.4 259.3H288M298.8 259.3h7.9M105.4 252.1h10.8M127 252.1h10.5M148.6 252.1h10.5M169.9 252.1h10.6M191.5 252.1h10.6M212.9 252.1h10.5M234.5 252.1H245M255.8 252.1h10.6M277.4 252.1H288M298.8 252.1h9.1M105.4 244.9h10.8M127 244.9h10.5M148.6 244.9h10.5M169.9 244.9h10.6M191.5 244.9h10.6M212.9 244.9h10.5M234.5 244.9H245M255.8 244.9h10.6M277.4 244.9H288M298.8 244.9h10.3M136.3 237.5h1.2M148.6 237.5h10.5M169.9 237.5h3.6M239.5 237.5h5.5M255.8 237.5h10.6M105.4 253.8v-1.7M105.4 246.6v-1.7M105.4 239.4v-.5M127 275.7V274M127 268.2v-1.7M127 261v-1.7M127 253.8v-1.7M127 246.6v-1.7M127 239.4v-.5M148.6 275.7V274M148.6 268.2v-1.7M148.6 261v-1.7M148.6 253.8v-1.7M148.6 246.6v-1.7M148.6 239.4v-1.9M169.9 275.7V274M169.9 268.2v-1.7M169.9 261v-1.7M169.9 253.8v-1.7M169.9 246.6v-1.7M169.9 239.4v-1.9M191.5 275.7V274M191.5 268.2v-1.7M191.5 261v-1.7M191.5 253.8v-1.7M191.5 246.6v-1.7M191.5 239.4v-.5M212.9 275.7V274M212.9 268.2v-1.7M212.9 261v-1.7M212.9 253.8v-1.7M212.9 246.6v-1.7M212.9 239.4v-.5M234.5 275.7V274M234.5 268.2v-1.7M234.5 261v-1.7M234.5 253.8v-1.7M234.5 246.6v-1.7M234.5 239.4v-.5M255.8 275.7V274M255.8 268.2v-1.7M255.8 261v-1.7M255.8 253.8v-1.7M255.8 246.6v-1.7M255.8 239.4v-1.9M277.4 275.7V274M277.4 268.2v-1.7M277.4 261v-1.7M277.4 253.8v-1.7M277.4 246.6v-1.7M277.4 239.4v-.5M298.8 275.7V274M298.8 268.2v-1.7M298.8 261v-1.7M298.8 253.8v-1.7M298.8 246.6v-1.7M298.8 239.4v-.5M116.2 274h10.5M137.5 274h10.8M159.1 274h10.6M180.5 274h10.8M202.1 274h10.5M223.4 274h10.8M245 274h10.6M266.4 274h10.8M288 274h10.6M116.2 266.5h10.5M137.5 266.5h10.8M159.1 266.5h10.6M180.5 266.5h10.8M202.1 266.5h10.5M223.4 266.5h10.8M245 266.5h10.6M266.4 266.5h10.8M288 266.5h10.6M116.2 259.3h10.5M137.5 259.3h10.8M159.1 259.3h10.6M180.5 259.3h10.8M202.1 259.3h10.5M223.4 259.3h10.8M245 259.3h10.6M266.4 259.3h10.8M288 259.3h10.6M104.6 252.1h.8M116.2 252.1h10.5M137.5 252.1h10.8M159.1 252.1h10.6M180.5 252.1h10.8M202.1 252.1h10.5M223.4 252.1h10.8M245 252.1h10.6M266.4 252.1h10.8M288 252.1h10.6M103.4 244.9h2M116.2 244.9h10.5M137.5 244.9h10.8M159.1 244.9h10.6M180.5 244.9h10.8M202.1 244.9h10.5M223.4 244.9h10.8M245 244.9h10.6M266.4 244.9h10.8M288 244.9h10.6M137.5 237.5h10.8M159.1 237.5h10.6M245 237.5h10.6M266.4 237.5h10.1M105.4 253.8v-1.7M105.4 246.6v-1.7M105.4 239.4v-.5M126.7 275.7V274M126.7 268.2v-1.7M126.7 261v-1.7M126.7 253.8v-1.7M126.7 246.6v-1.7M126.7 239.4v-.5M148.3 275.7V274M148.3 268.2v-1.7M148.3 261v-1.7M148.3 253.8v-1.7M148.3 246.6v-1.7M148.3 239.4v-1.9M169.7 275.7V274M169.7 268.2v-1.7M169.7 261v-1.7M169.7 253.8v-1.7M169.7 246.6v-1.7M169.7 239.4v-1.9M191.3 275.7V274M191.3 268.2v-1.7M191.3 261v-1.7M191.3 253.8v-1.7M191.3 246.6v-1.7M191.3 239.4v-.5M212.6 275.7V274M212.6 268.2v-1.7M212.6 261v-1.7M212.6 253.8v-1.7M212.6 246.6v-1.7M212.6 239.4v-.5M234.2 275.7V274M234.2 268.2v-1.7M234.2 261v-1.7M234.2 253.8v-1.7M234.2 246.6v-1.7M234.2 239.4v-.5M255.6 275.7V274M255.6 268.2v-1.7M255.6 261v-1.7M255.6 253.8v-1.7M255.6 246.6v-1.7M255.6 239.4v-1.9M277.2 275.7V274M277.2 268.2v-1.7M277.2 261v-1.7M277.2 253.8v-1.7M277.2 246.6v-1.7M277.2 239.4v-.5M298.6 275.7V274M298.6 268.2v-1.7M298.6 261v-1.7M298.6 253.8v-1.7M298.6 246.6v-1.7M298.6 239.4v-.5M108.7 277.3h7.5M127 277.3h10.5M148.6 277.3h10.5M169.9 277.3h10.6M191.5 277.3h10.6M212.9 277.3h10.5M234.5 277.3H245M255.8 277.3h10.6M277.4 277.3H288M298.8 277.3h5M107.5 270.1h8.7M127 270.1h10.5M148.6 270.1h10.5M169.9 270.1h10.6M191.5 270.1h10.6M212.9 270.1h10.5M234.5 270.1H245M255.8 270.1h10.6M277.4 270.1H288M298.8 270.1h6.2M106.3 262.7h9.9M127 262.7h10.5M148.6 262.7h10.5M169.9 262.7h10.6M191.5 262.7h10.6M212.9 262.7h10.5M234.5 262.7H245M255.8 262.7h10.6M277.4 262.7H288M298.8 262.7h7.4M105.4 255.5h10.8M127 255.5h10.5M148.6 255.5h10.5M169.9 255.5h10.6M191.5 255.5h10.6M212.9 255.5h10.5M234.5 255.5H245M255.8 255.5h10.6M277.4 255.5H288M298.8 255.5h8.6M105.4 248.3h10.8M127 248.3h10.5M148.6 248.3h10.5M169.9 248.3h10.6M191.5 248.3h10.6M212.9 248.3h10.5M234.5 248.3H245M255.8 248.3h10.6M277.4 248.3H288M298.8 248.3h9.8M105.4 241.1h10.8M127 241.1h10.5M148.6 241.1h10.5M169.9 241.1h10.6M191.5 241.1h10.6M212.9 241.1h10.5M234.5 241.1H245M255.8 241.1h10.6M277.4 241.1H288M298.8 241.1h10.6M105.4 255.5v-1.7M105.4 248.3v-1.7M105.4 241.1v-1.7M127 277.3v-1.6M127 270.1v-1.9M127 262.7V261M127 255.5v-1.7M127 248.3v-1.7M127 241.1v-1.7M148.6 277.3v-1.6M148.6 270.1v-1.9M148.6 262.7V261M148.6 255.5v-1.7M148.6 248.3v-1.7M148.6 241.1v-1.7M169.9 277.3v-1.6M169.9 270.1v-1.9M169.9 262.7V261M169.9 255.5v-1.7M169.9 248.3v-1.7M169.9 241.1v-1.7M191.5 277.3v-1.6M191.5 270.1v-1.9M191.5 262.7V261M191.5 255.5v-1.7M191.5 248.3v-1.7M191.5 241.1v-1.7M212.9 277.3v-1.6M212.9 270.1v-1.9M212.9 262.7V261M212.9 255.5v-1.7M212.9 248.3v-1.7M212.9 241.1v-1.7M234.5 277.3v-1.6M234.5 270.1v-1.9M234.5 262.7V261M234.5 255.5v-1.7M234.5 248.3v-1.7M234.5 241.1v-1.7M255.8 277.3v-1.6M255.8 270.1v-1.9M255.8 262.7V261M255.8 255.5v-1.7M255.8 248.3v-1.7M255.8 241.1v-1.7M277.4 277.3v-1.6M277.4 270.1v-1.9M277.4 262.7V261M277.4 255.5v-1.7M277.4 248.3v-1.7M277.4 241.1v-1.7M298.8 277.3v-1.6M298.8 270.1v-1.9M298.8 262.7V261M298.8 255.5v-1.7M298.8 248.3v-1.7M298.8 241.1v-1.7M105.4 255.5v-1.7M105.4 248.3v-1.7M105.4 241.1v-1.7M126.7 277.3v-1.6M126.7 270.1v-1.9M126.7 262.7V261M126.7 255.5v-1.7M126.7 248.3v-1.7M126.7 241.1v-1.7M148.3 277.3v-1.6M148.3 270.1v-1.9M148.3 262.7V261M148.3 255.5v-1.7M148.3 248.3v-1.7M148.3 241.1v-1.7M169.7 277.3v-1.6M169.7 270.1v-1.9M169.7 262.7V261M169.7 255.5v-1.7M169.7 248.3v-1.7M169.7 241.1v-1.7M191.3 277.3v-1.6M191.3 270.1v-1.9M191.3 262.7V261M191.3 255.5v-1.7M191.3 248.3v-1.7M191.3 241.1v-1.7M212.6 277.3v-1.6M212.6 270.1v-1.9M212.6 262.7V261M212.6 255.5v-1.7M212.6 248.3v-1.7M212.6 241.1v-1.7M234.2 277.3v-1.6M234.2 270.1v-1.9M234.2 262.7V261M234.2 255.5v-1.7M234.2 248.3v-1.7M234.2 241.1v-1.7M255.6 277.3v-1.6M255.6 270.1v-1.9M255.6 262.7V261M255.6 255.5v-1.7M255.6 248.3v-1.7M255.6 241.1v-1.7M277.2 277.3v-1.6M277.2 270.1v-1.9M277.2 262.7V261M277.2 255.5v-1.7M277.2 248.3v-1.7M277.2 241.1v-1.7M298.6 277.3v-1.6M298.6 270.1v-1.9M298.6 262.7V261M298.6 255.5v-1.7M298.6 248.3v-1.7M298.6 241.1v-1.7M116.2 277.3h10.5M137.5 277.3h10.8M159.1 277.3h10.6M180.5 277.3h10.8M202.1 277.3h10.5M223.4 277.3h10.8M245 277.3h10.6M266.4 277.3h10.8M288 277.3h10.6M116.2 270.1h10.5M137.5 270.1h10.8M159.1 270.1h10.6M180.5 270.1h10.8M202.1 270.1h10.5M223.4 270.1h10.8M245 270.1h10.6M266.4 270.1h10.8M288 270.1h10.6M116.2 262.7h10.5M137.5 262.7h10.8M159.1 262.7h10.6M180.5 262.7h10.8M202.1 262.7h10.5M223.4 262.7h10.8M245 262.7h10.6M266.4 262.7h10.8M288 262.7h10.6M105.1 255.5h.3M116.2 255.5h10.5M137.5 255.5h10.8M159.1 255.5h10.6M180.5 255.5h10.8M202.1 255.5h10.5M223.4 255.5h10.8M245 255.5h10.6M266.4 255.5h10.8M288 255.5h10.6M103.9 248.3h1.5M116.2 248.3h10.5M137.5 248.3h10.8M159.1 248.3h10.6M180.5 248.3h10.8M202.1 248.3h10.5M223.4 248.3h10.8M245 248.3h10.6M266.4 248.3h10.8M288 248.3h10.6M102.7 241.1h2.7M116.2 241.1h10.5M137.5 241.1h10.8M159.1 241.1h10.6M180.5 241.1h10.8M202.1 241.1h10.5M223.4 241.1h10.8M245 241.1h10.6M266.4 241.1h10.8M288 241.1h10.6M309.4 241.1h.4M108.7 277.6h7.2M116.2 277.6h21.3M137.8 277.6h21.1M159.1 277.6h21.4M180.7 277.6h21.1M202.1 277.6h21.3M223.7 277.6h21.1M245 277.6h21.4M266.6 277.6h21.2M288 277.6h15.8M107.5 270.4h8.4M116.2 270.4h21.3M137.8 270.4h21.1M159.1 270.4h21.4M180.7 270.4h21.1M202.1 270.4h21.3M223.7 270.4h21.1M245 270.4h21.4M266.6 270.4h21.2M288 270.4h17M106.3 262.9h9.6M116.2 262.9h21.3M137.8 262.9h21.1M159.1 262.9h21.4M180.7 262.9h21.1M202.1 262.9h21.3M223.7 262.9h21.1M245 262.9h21.4M266.6 262.9h21.2M288 262.9h18.2M105.1 255.7h10.8M116.2 255.7h21.3M137.8 255.7h21.1M159.1 255.7h21.4M180.7 255.7h21.1M202.1 255.7h21.3M223.7 255.7h21.1M245 255.7h21.4M266.6 255.7h21.2M288 255.7h19.4M103.9 248.5h12M116.2 248.5h21.3M137.8 248.5h21.1M159.1 248.5h21.4M180.7 248.5h21.1M202.1 248.5h21.3M223.7 248.5h21.1M245 248.5h21.4M266.6 248.5h21.2M288 248.5h20.6M102.7 241.3h13.2M116.2 241.3h21.3M137.8 241.3h21.1M159.1 241.3h21.4M180.7 241.3h21.1M202.1 241.3h21.3M223.7 241.3h21.1M245 241.3h21.4M266.6 241.3h21.2M288 241.3h21.4M309.6 241.3h.2M115.9 280.9v-3.3M115.9 273.7v-3.3M115.9 266.3v-3.4M115.9 259.1v-3.4M115.9 251.9v-3.4M115.9 244.7v-3.4M137.5 280.9v-3.3M137.5 273.7v-3.3M137.5 266.3v-3.4M137.5 259.1v-3.4M137.5 251.9v-3.4M137.5 244.7v-3.4M137.5 237.5v-1.2M158.9 280.9v-3.3M158.9 273.7v-3.3M158.9 266.3v-3.4M158.9 259.1v-3.4M158.9 251.9v-3.4M158.9 244.7v-3.4M158.9 237.5v-1.2M180.5 280.9v-3.3M180.5 273.7v-3.3M180.5 266.3v-3.4M180.5 259.1v-3.4M180.5 251.9v-3.4M180.5 244.7v-3.4M201.8 280.9v-3.3M201.8 273.7v-3.3M201.8 266.3v-3.4M201.8 259.1v-3.4M201.8 251.9v-3.4M201.8 244.7v-3.4M223.4 280.9v-3.3M223.4 273.7v-3.3M223.4 266.3v-3.4M223.4 259.1v-3.4M223.4 251.9v-3.4M223.4 244.7v-3.4M244.8 280.9v-3.3M244.8 273.7v-3.3M244.8 266.3v-3.4M244.8 259.1v-3.4M244.8 251.9v-3.4M244.8 244.7v-3.4M244.8 237.5v-1.2M266.4 280.9v-3.3M266.4 273.7v-3.3M266.4 266.3v-3.4M266.4 259.1v-3.4M266.4 251.9v-3.4M266.4 244.7v-3.4M266.4 237.5v-1.2M287.8 280.9v-3.3M287.8 273.7v-3.3M287.8 266.3v-3.4M287.8 259.1v-3.4M287.8 251.9v-3.4M287.8 244.7v-3.4M309.4 244.2v-2.9M109.2 280.9h6.7M116.2 280.9h21.3M137.8 280.9h21.1M159.1 280.9h21.4M180.7 280.9h21.1M202.1 280.9h21.3M223.7 280.9h21.1M245 280.9h21.4M266.6 280.9h21.2M288 280.9h15.4M108.2 273.7h7.7M116.2 273.7h21.3M137.8 273.7h21.1M159.1 273.7h21.4M180.7 273.7h21.1M202.1 273.7h21.3M223.7 273.7h21.1M245 273.7h21.4M266.6 273.7h21.2M288 273.7h16.6M107 266.3h8.9M116.2 266.3h21.3M137.8 266.3h21.1M159.1 266.3h21.4M180.7 266.3h21.1M202.1 266.3h21.3M223.7 266.3h21.1M245 266.3h21.4M266.6 266.3h21.2M288 266.3h17.8M105.8 259.1h10.1M116.2 259.1h21.3M137.8 259.1h21.1M159.1 259.1h21.4M180.7 259.1h21.1M202.1 259.1h21.3M223.7 259.1h21.1M245 259.1h21.4M266.6 259.1h21.2M288 259.1h19M104.6 251.9h11.3M116.2 251.9h21.3M137.8 251.9h21.1M159.1 251.9h21.4M180.7 251.9h21.1M202.1 251.9h21.3M223.7 251.9h21.1M245 251.9h21.4M266.6 251.9h21.2M288 251.9h20.2M103.4 244.7h12.5M116.2 244.7h21.3M137.8 244.7h21.1M159.1 244.7h21.4M180.7 244.7h21.1M202.1 244.7h21.3M223.7 244.7h21.1M245 244.7h21.4M266.6 244.7h21.2M288 244.7h21.4M136.3 237.5h1.2M137.8 237.5h21.1M159.1 237.5h14.4M239.5 237.5h5.3M245 237.5h21.4M266.6 237.5h9.9M116.2 280.9v-3.3M116.2 273.7v-3.3M116.2 266.3v-3.4M116.2 259.1v-3.4M116.2 251.9v-3.4M116.2 244.7v-3.4M137.8 280.9v-3.3M137.8 273.7v-3.3M137.8 266.3v-3.4M137.8 259.1v-3.4M137.8 251.9v-3.4M137.8 244.7v-3.4M137.8 237.5v-1.2M159.1 280.9v-3.3M159.1 273.7v-3.3M159.1 266.3v-3.4M159.1 259.1v-3.4M159.1 251.9v-3.4M159.1 244.7v-3.4M159.1 237.5v-1.2M180.7 280.9v-3.3M180.7 273.7v-3.3M180.7 266.3v-3.4M180.7 259.1v-3.4M180.7 251.9v-3.4M180.7 244.7v-3.4M202.1 280.9v-3.3M202.1 273.7v-3.3M202.1 266.3v-3.4M202.1 259.1v-3.4M202.1 251.9v-3.4M202.1 244.7v-3.4M223.7 280.9v-3.3M223.7 273.7v-3.3M223.7 266.3v-3.4M223.7 259.1v-3.4M223.7 251.9v-3.4M223.7 244.7v-3.4M245 280.9v-3.3M245 273.7v-3.3M245 266.3v-3.4M245 259.1v-3.4M245 251.9v-3.4M245 244.7v-3.4M245 237.5v-1.2M266.6 280.9v-3.3M266.6 273.7v-3.3M266.6 266.3v-3.4M266.6 259.1v-3.4M266.6 251.9v-3.4M266.6 244.7v-3.4M266.6 237.5v-1.2M288 280.9v-3.3M288 273.7v-3.3M288 266.3v-3.4M288 259.1v-3.4M288 251.9v-3.4M288 244.7v-3.4M309.6 242.8v-1.5"/><path class="cls-10" d="M136.1 238.9v-2.6h37.2v2.6h66v-2.6h36.9v2.6h33.9l-7 42H109.2l-6.7-40.8v-1.2h33.6z"/><path class="cls-31" d="M246 .1l-4.8 4.8h4.8V.1"/><path class="cls-24" d="M246.2 2.3l-1.2-1M244.8 4.9l-1.7-1.6M242.4 4.9l3.8-3.6"/><path class="cls-31" d="M246 .1l-4.8 4.8h4.8V.1"/><path class="cls-24" d="M246.2 2.3l-1.2-1M244.8 4.9l-1.7-1.6M242.4 4.9l3.8-3.6"/><path class="cls-26" d="M246 4.9V.1M246 4.9V.1"/><path class="cls-31" d="M239 40.7v23.8l7-7.2V40.7h-7"/><path class="cls-24" d="M246.2 42.4l-1.9-1.7M246.2 46.5l-5.7-5.8M246.2 50.3l-6.9-7M246.2 54.4l-6.9-7M245.5 57.7l-6.2-6.2M243.6 59.9l-4.3-4.3M241.7 61.8l-2.4-2.4M239.5 64l-.2-.5M239.3 64.2l3.6-3.6M239.3 60.4l6.9-7M239.3 56.3l6.9-7M239.3 52.2l6.9-6.9M239.3 48.4l6.9-7M239.3 44.3l3.3-3.6"/><path class="cls-31" d="M239 40.7v23.8l7-7.2V40.7h-7"/><path class="cls-24" d="M246.2 42.4l-1.9-1.7M246.2 46.5l-5.7-5.8M246.2 50.3l-6.9-7M246.2 54.4l-6.9-7M245.5 57.7l-6.2-6.2M243.6 59.9l-4.3-4.3M241.7 61.8l-2.4-2.4M239.5 64l-.2-.5M239.3 64.2l3.6-3.6M239.3 60.4l6.9-7M239.3 56.3l6.9-7M239.3 52.2l6.9-6.9M239.3 48.4l6.9-7M239.3 44.3l3.3-3.6"/><path class="cls-26" d="M246 57.3V40.7M239 40.9v-.2M239 64.5V48.1M239 40.9v-.2M246 57.3V40.7M239 64.5V48.1"/><path class="cls-25" d="M244.8 34.7h1.7v6h-1.7zM244.8 4.9h1.7v2.6h-1.7zM244.8 7.6h1.7v27.1h-1.7zM244.8 34.7V7.6"/><path class="cls-1" d="M239 34.9V7.3"/><path class="cls-25" d="M239 7.8v-.5"/><path class="cls-31" d="M239 40.7v-5.8h5.8v5.8"/><path class="cls-24" d="M245 37.1l-2.4-2.2M244.3 40.7l-5-5.3M240.5 40.7l-1.2-1.2M242.6 40.7l2.4-2.2M239.3 40.2l5.3-5.3M239.3 36.4l1.2-1.5"/><path class="cls-31" d="M239 4.9v2.4h5.8V4.9"/><path class="cls-24" d="M245 5.2l-.2-.3M243.1 7.3l-2.4-2.4M244.1 7.3l.9-.9M240 7.3l2.4-2.4"/><path class="cls-26" d="M239 34.9h5.8M239 7.3h5.8M239 34.9h5.8M239 40.7v-5.8M239 7.3h5.8M239 4.9v2.4M246 40.7h-1.2M246 4.9h-1.2M239 40.7v-5.8M239 4.9v2.4M244.8 34.9v5.8M244.8 7.3V4.9"/><path class="cls-31" d="M277.4 116.8v5h93.2v-5h-93.2"/><path class="cls-24" d="M277.7 117.5l.7-.7M277.7 121.8l4.8-5M281.8 121.8l5-5M286.1 121.8l5-5M290.4 121.8l5-5M294.5 121.8l5-5M298.8 121.8l5-5M303.1 121.8l5.1-5M307.2 121.8l5-5M311.5 121.8l5.1-5M315.8 121.8l5.1-5M320.2 121.8l5-5M324.2 121.8l5.1-5M328.6 121.8l5-5M332.9 121.8l5-5M337 121.8l5-5M341.3 121.8l5-5M345.6 121.8l5-5M349.7 121.8l5-5M354 121.8l5-5M358.3 121.8l5.1-5M362.6 121.8l5.1-5M366.7 121.8l4.1-3.8"/><path class="cls-31" d="M277.4 116.8v5h93.2v-5h-93.2"/><path class="cls-24" d="M277.7 117.5l.7-.7M277.7 121.8l4.8-5M281.8 121.8l5-5M286.1 121.8l5-5M290.4 121.8l5-5M294.5 121.8l5-5M298.8 121.8l5-5M303.1 121.8l5.1-5M307.2 121.8l5-5M311.5 121.8l5.1-5M315.8 121.8l5.1-5M320.2 121.8l5-5M324.2 121.8l5.1-5M328.6 121.8l5-5M332.9 121.8l5-5M337 121.8l5-5M341.3 121.8l5-5M345.6 121.8l5-5M349.7 121.8l5-5M354 121.8l5-5M358.3 121.8l5.1-5M362.6 121.8l5.1-5M366.7 121.8l4.1-3.8"/><path class="cls-26" d="M370.6 116.8h-93.2M370.6 121.8h-93.2M370.6 121.8h-93.2M370.6 116.8h-93.2"/><path class="cls-25" d="M239.3 74.3v-9.8"/><path class="cls-7" d="M238.6 75V64.5"/><path class="cls-25" d="M240.7 72.9v-8.4M239.3 74.3v-9.8M238.6 75V64.5M240.7 72.9v-8.4M307.7 64.5v9.8"/><path class="cls-7" d="M308.4 64.5V75"/><path class="cls-25" d="M306.2 64.5v8.4M307.7 64.5v9.8M308.4 64.5V75M306.2 64.5v8.4M307.7 74.3h-30.3"/><path class="cls-7" d="M308.4 75h-31"/><path class="cls-25" d="M306.2 72.9h-28.8M307.7 74.3h-30.3"/><path class="cls-7" d="M277.4 74.3v.7"/><path class="cls-25" d="M277.4 72.9v1.4M308.4 75h-31M306.2 72.9h-28.8M273.1 74.3h-33.8"/><path class="cls-7" d="M273.1 75h-34.5"/><path class="cls-25" d="M273.1 72.9h-32.4M273.1 74.3h-33.8M273.1 75h-34.5M273.1 72.9h-32.4"/><path class="cls-7" d="M273.1 74.3v.7"/><path class="cls-25" d="M273.1 72.9v1.4M100.8 240.1l7 42.5h196.8l7.2-42.5"/><path class="cls-25" d="M102.5 240.1l6.7 40.8h193.9l6.7-40.8"/><path class="cls-31" d="M621.6 212.8H618l.7 24 3.4 3.3-.5-27.3"/><path class="cls-24" d="M618.7 234.6l3.4 3.4M618.7 230.5l3.4 3.4M618.5 226.5l3.6 3.3M618.5 222.1l3.3 3.6M618.2 218.1l3.6 3.6M618.2 214l3.6 3.6M620.9 212.8l.9.7"/><path class="cls-31" d="M618 212.8h-.5l.5 23.3.7.7-.7-24M617.5 212.8l-5.7.2.4 17.5 5.8 5.6-.5-23.3"/><path class="cls-24" d="M617.5 235.6h.5M616.1 234.1h1.9M614.6 232.7h3.4M613.2 231.3h4.8M612.2 230.1l5.8-.3M612.2 228.6l5.8-.2M612.2 227.2l5.8-.3M612.2 225.7l5.8-.2M612.2 224.3l5.6-.2M612.2 222.9l5.6-.3M612 221.4h5.8M612 220h5.8M612 218.5h5.8M612 217.1h5.8M612 215.9l5.8-.2M612 214.5l5.8-.3M616.3 212.8h1.5"/><path class="cls-31" d="M611.8 213h-5.1l.3 12.3 5.2 5.2-.4-17.5"/><path class="cls-24" d="M607 222.9l5.2 5.2M607 218.8l5.2 5.3M607 214.7l5 5.3M609.1 213l2.9 2.9"/><path class="cls-26" d="M618 212.8l.7 24M621.6 212.8l.5 27.3"/><path class="cls-24" d="M611.8 213l.4 17.5M617.5 212.8l.5 23.3"/><path class="cls-26" d="M606.7 213l.3 12.3M611.8 213l.4 17.5"/><path class="cls-25" d="M621.6 212.8l.5 27.3M606.7 213l.3 12.3"/><path class="cls-31" d="M619.4 131.9h-3.3l.5 18h3.3l-.5-18"/><path class="cls-24" d="M616.6 148.2l1.6 1.7M616.6 144.1l3.3 3.6M616.3 140.1l3.6 3.6M616.3 136l3.4 3.3M616.3 131.9l3.4 3.4"/><path class="cls-31" d="M616.1 131.9h-.7l.4 18h.8l-.5-18"/><path class="cls-31" d="M615.4 131.9h-5.6l.5 18.2 5.5-.2-.4-18"/><path class="cls-24" d="M610.3 149.2l5.5-.3M610.3 147.7h5.5M610.3 146.3h5.5M610.3 144.9h5.5M610.3 143.4h5.5M610.3 142.2l5.5-.2M610.1 140.8l5.5-.3M610.1 139.3l5.5-.2M610.1 137.9l5.5-.2M610.1 136.5l5.5-.3M610.1 135l5.5-.2M610.1 133.6h5.5M610.1 132.1h5.5"/><path class="cls-31" d="M609.8 131.9h-5l.2 18.2h5.3l-.5-18.2"/><path class="cls-24" d="M605 148.9l1.5 1.2M605 144.9l5.3 5.2M605 140.8l5.3 5.3M605 136.7l5.3 5.3M605 132.6l5.1 5.3M608.2 131.9l1.9 1.7"/><path class="cls-26" d="M616.1 131.9l.5 18M619.4 131.9l.5 18"/><path class="cls-24" d="M609.8 131.9l.5 18.2M615.4 131.9l.4 18"/><path class="cls-26" d="M604.8 131.9l.2 18.2M609.8 131.9l.5 18.2"/><path class="cls-25" d="M619.4 131.9l.5 18M604.8 131.9l.2 18.2"/><path class="cls-1" d="M605 150.1l1.7 62.9"/><path class="cls-25" d="M612.5 150.1l1.7 62.9h-2.4l-1.5-62.9h2.2zM612.7 153.7h-2.4M613.9 209.2l-2.1.2M610.3 150.1h2.2M610.8 169.1l2.2-.2M610.3 153.7h2.4M610.8 173.2h2.4M610.8 169.1l2.2-.2M611.3 190h2.1M610.8 173.2h2.4M611.3 194.1h2.4M611.3 190h2.1M611.8 209.4l2.1-.2M611.3 194.1h2.4M611.8 213h2.4"/><path class="cls-26" d="M610.3 150.1H605"/><path class="cls-25" d="M621.6 214.2h1.7"/><path class="cls-12" d="M623.3 214.2l-1.7-66"/><path class="cls-25" d="M621.6 148.2h-1.2"/><path class="cls-31" d="M615.9 150l.1 1.8-3.4.1-.1-1.9"/><path class="cls-24" d="M612.7 150.6l3.4-.2M615.9 150l.1 1.8-3.4.1-.1-1.9"/><path class="cls-31" d="M619.9 149.9v1.7l-3.3.2v-1.9"/><path class="cls-24" d="M618.2 149.9l1.7 1.7"/><path class="cls-26" d="M619.9 149.9v1.7l-3.3.2v-1.9M616.6 151.8h-4.1"/><path class="cls-31" d="M617.5 212.9V211l-3.4.1v1.9"/><path class="cls-24" d="M614.4 212.8h2.6M614.4 211.6l3.4-.3M617.5 212.9V211l-3.4.1v1.9"/><path class="cls-26" d="M611.8 213h-5.1"/><path class="cls-31" d="M621.6 212.8l-.2-1.9-3.4.2v1.7"/><path class="cls-24" d="M619.2 211.1l1.7 1.7"/><path class="cls-26" d="M621.6 212.8l-.2-1.9-3.4.2v1.7M618 211.1h-3.8"/><path class="cls-31" d="M134.2 240.1v-3.3h-33.4v3.3h33.4"/><path class="cls-24" d="M101 238l2.2 2.1M103.7 236.8l3.3 3.3M107.8 236.8l3.3 3.3M111.8 236.8l3.4 3.3M115.7 236.8l3.3 3.3M119.8 236.8l3.3 3.3M123.8 236.8l3.4 3.3M127.9 236.8l3.4 3.3M131.8 236.8l2.6 2.4"/><path class="cls-31" d="M134.2 236.8v-.7h-33.4v.7h33.4M134.2 236.1v-5.6h-33.4v5.6h33.4"/><path class="cls-24" d="M102.2 230.5v5.6M103.7 230.5v5.6M105.1 230.5v5.6M106.6 230.5v5.6M108 230.5v5.6M109.4 230.5v5.6M110.6 230.5v5.6M112.1 230.5v5.6M113.5 230.5v5.6M115 230.5v5.6M116.4 230.5v5.6M117.8 230.5v5.6M119.3 230.5v5.6M120.7 230.5v5.6M122.2 230.5v5.6M123.6 230.5v5.6M125 230.5v5.6M126.2 230.5v5.6M127.7 230.5v5.6M129.1 230.5v5.6M130.6 230.5v5.6M132 230.5v5.6M133.4 230.5v5.6"/><path class="cls-31" d="M134.2 230.5v-5.2h-33.4v5.2h33.4"/><path class="cls-24" d="M101 229.8l.5.7M101 226l4.6 4.5M104.2 225.3l5.2 5.2M108.2 225.3l5.3 5.2M112.3 225.3l5.3 5.2M116.4 225.3l5.3 5.2M120.2 225.3l5.3 5.2M124.3 225.3l5.3 5.2M128.4 225.3l5.3 5.2M132.2 225.3l2.2 1.9"/><path class="cls-26" d="M134.2 236.8h-33.4M134.2 240.1h-33.4"/><path class="cls-24" d="M134.2 230.5h-33.4M134.2 236.1h-33.4"/><path class="cls-26" d="M134.2 225.3h-33.4M134.2 230.5h-33.4"/><path class="cls-25" d="M134.2 240.1h-33.4M134.2 225.3h-33.4"/><path class="cls-31" d="M237.4 240.1v-3.3H175v3.3h62.4"/><path class="cls-24" d="M175.2 239.9v.2M175.9 236.8l3.4 3.3M180 236.8l3.4 3.3M183.8 236.8l3.4 3.3M187.9 236.8l3.4 3.3M192 236.8l3.4 3.3M196.1 236.8l3.3 3.3M199.9 236.8l3.4 3.3M204 236.8l3.4 3.3M208.1 236.8l3.3 3.3M211.9 236.8l3.4 3.3M216 236.8l3.4 3.3M220.1 236.8l3.3 3.3M223.9 236.8l3.4 3.3M228 236.8l3.4 3.3M232.1 236.8l3.3 3.3M236.2 236.8l1.4 1.4"/><path class="cls-31" d="M237.4 236.8v-.7H175v.7h62.4M237.4 236.1v-5.6H175v5.6h62.4"/><path class="cls-24" d="M175.9 230.5v5.6M177.4 230.5v5.6M178.8 230.5v5.6M180.2 230.5v5.6M181.7 230.5v5.6M183.1 230.5v5.6M184.6 230.5v5.6M185.8 230.5v5.6M187.2 230.5v5.6M188.6 230.5v5.6M190.1 230.5v5.6M191.5 230.5v5.6M193 230.5v5.6M194.4 230.5v5.6M195.8 230.5v5.6M197.3 230.5v5.6M198.7 230.5v5.6M200.2 230.5v5.6M201.4 230.5v5.6M202.8 230.5v5.6M204.2 230.5v5.6M205.7 230.5v5.6M207.1 230.5v5.6M208.6 230.5v5.6M210 230.5v5.6M211.4 230.5v5.6M212.9 230.5v5.6M214.3 230.5v5.6M215.5 230.5v5.6M217 230.5v5.6M218.4 230.5v5.6M219.8 230.5v5.6M221.3 230.5v5.6M222.7 230.5v5.6M224.2 230.5v5.6M225.6 230.5v5.6M227 230.5v5.6M228.5 230.5v5.6M229.9 230.5v5.6M231.1 230.5v5.6M232.6 230.5v5.6M234 230.5v5.6M235.4 230.5v5.6M236.9 230.5v5.6"/><path class="cls-31" d="M237.4 230.5v-5.2H175v5.2h62.4"/><path class="cls-24" d="M175.2 227.9l2.4 2.6M176.4 225.3l5.3 5.2M180.5 225.3l5.3 5.2M184.6 225.3l5.2 5.2M188.4 225.3l5.3 5.2M192.5 225.3l5.3 5.2M196.6 225.3l5.2 5.2M200.4 225.3l5.3 5.2M204.5 225.3l5.3 5.2M208.6 225.3l5.2 5.2M212.4 225.3l5.3 5.2M216.5 225.3l5.3 5.2M220.6 225.3l5.2 5.2M224.6 225.3l5.3 5.2M228.5 225.3l5.3 5.2M232.6 225.3l5 5M236.6 225.3l1 .9"/><path class="cls-26" d="M237.4 236.8H175M237.4 240.1H175"/><path class="cls-24" d="M237.4 230.5H175M237.4 236.1H175"/><path class="cls-26" d="M237.4 225.3H175M237.4 230.5H175"/><path class="cls-25" d="M237.4 240.1H175M237.4 225.3H175"/><path class="cls-31" d="M340.6 240.1v-3.3h-62.4v3.3h62.4"/><path class="cls-24" d="M278.4 238.9l1.2 1.2M280.1 236.8l3.3 3.3M284.2 236.8l3.3 3.3M288.2 236.8l3.4 3.3M292.1 236.8l3.3 3.3M296.2 236.8l3.3 3.3M300.2 236.8l3.4 3.3M304.3 236.8l3.4 3.3M308.2 236.8l3.3 3.3M312.2 236.8l3.4 3.3M316.3 236.8l3.4 3.3M320.2 236.8l3.3 3.3M324.2 236.8l3.4 3.3M328.3 236.8l3.4 3.3M332.2 236.8l3.3 3.3M336.2 236.8l3.4 3.3M340.3 236.8l.5.5"/><path class="cls-31" d="M340.6 236.8v-.7h-62.4v.7h62.4M340.6 236.1v-5.6h-62.4v5.6h62.4"/><path class="cls-24" d="M279.4 230.5v5.6M280.8 230.5v5.6M282.2 230.5v5.6M283.7 230.5v5.6M285.1 230.5v5.6M286.6 230.5v5.6M288 230.5v5.6M289.4 230.5v5.6M290.6 230.5v5.6M292.1 230.5v5.6M293.5 230.5v5.6M295 230.5v5.6M296.4 230.5v5.6M297.8 230.5v5.6M299.3 230.5v5.6M300.7 230.5v5.6M302.2 230.5v5.6M303.6 230.5v5.6M305 230.5v5.6M306.2 230.5v5.6M307.7 230.5v5.6M309.1 230.5v5.6M310.6 230.5v5.6M312 230.5v5.6M313.4 230.5v5.6M314.9 230.5v5.6M316.3 230.5v5.6M317.8 230.5v5.6M319.2 230.5v5.6M320.6 230.5v5.6M321.8 230.5v5.6M323.3 230.5v5.6M324.7 230.5v5.6M326.2 230.5v5.6M327.6 230.5v5.6M329 230.5v5.6M330.5 230.5v5.6M331.9 230.5v5.6M333.4 230.5v5.6M334.8 230.5v5.6M336 230.5v5.6M337.4 230.5v5.6M338.9 230.5v5.6M340.3 230.5v5.6"/><path class="cls-31" d="M340.6 230.5v-5.2h-62.4v5.2h62.4"/><path class="cls-24" d="M278.4 226.9l3.6 3.6M280.6 225.3l5.2 5.2M284.6 225.3l5.3 5.2M288.7 225.3l5.3 5.2M292.8 225.3l5.3 5.2M296.6 225.3l5.3 5.2M300.7 225.3l5.3 5.2M304.8 225.3l5.3 5.2M308.6 225.3l5.3 5.2M312.7 225.3l5.3 5.2M316.8 225.3l5.3 5.2M320.6 225.3l5.3 5.2M324.7 225.3l5.3 5.2M328.8 225.3l5.3 5.2M332.9 225.3l5.3 5.2M336.7 225.3l4.1 3.8"/><path class="cls-26" d="M340.6 236.8h-62.4M340.6 240.1h-62.4"/><path class="cls-24" d="M340.6 230.5h-62.4M340.6 236.1h-62.4"/><path class="cls-26" d="M340.6 225.3h-62.4M340.6 230.5h-62.4"/><path class="cls-25" d="M340.6 240.1h-62.4M340.6 225.3h-62.4"/><path class="cls-31" d="M436.3 240.1v-3.3h-54.9v3.3h54.9"/><path class="cls-24" d="M381.6 238l2.2 2.1M384.5 236.8l3.3 3.3M388.3 236.8l3.4 3.3M392.4 236.8l3.4 3.3M396.5 236.8l3.3 3.3M400.3 236.8l3.4 3.3M404.4 236.8l3.4 3.3M408.5 236.8l3.3 3.3M412.6 236.8l3.3 3.3M416.4 236.8l3.4 3.3M420.5 236.8l3.3 3.3M424.6 236.8l3.3 3.3M428.4 236.8l3.4 3.3M432.5 236.8l3.3 3.3"/><path class="cls-31" d="M436.3 236.8v-.7h-54.9v.7h54.9M436.3 236.1v-5.6h-54.9v5.6h54.9"/><path class="cls-24" d="M382.8 230.5v5.6M384.2 230.5v5.6M385.7 230.5v5.6M387.1 230.5v5.6M388.6 230.5v5.6M390 230.5v5.6M391.4 230.5v5.6M392.9 230.5v5.6M394.3 230.5v5.6M395.5 230.5v5.6M397 230.5v5.6M398.4 230.5v5.6M399.8 230.5v5.6M401.3 230.5v5.6M402.7 230.5v5.6M404.2 230.5v5.6M405.6 230.5v5.6M407 230.5v5.6M408.5 230.5v5.6M409.9 230.5v5.6M411.1 230.5v5.6M412.6 230.5v5.6M414 230.5v5.6M415.4 230.5v5.6M416.9 230.5v5.6M418.3 230.5v5.6M419.8 230.5v5.6M421.2 230.5v5.6M422.6 230.5v5.6M424.1 230.5v5.6M425.5 230.5v5.6M426.7 230.5v5.6M428.2 230.5v5.6M429.6 230.5v5.6M431 230.5v5.6M432.5 230.5v5.6M433.9 230.5v5.6M435.4 230.5v5.6"/><path class="cls-31" d="M436.3 230.5v-5.2h-54.9v5.2h54.9"/><path class="cls-24" d="M381.6 229.8l.5.7M381.6 226l4.6 4.5M385 225.3l5.2 5.2M388.8 225.3l5.3 5.2M392.9 225.3l5.3 5.2M397 225.3l5.2 5.2M401 225.3l5.3 5.2M404.9 225.3l5.3 5.2M409 225.3l5.2 5.2M413 225.3l5.3 5.2M416.9 225.3l5.3 5.2M421 225.3l5.2 5.2M425 225.3l5.3 5.2M428.9 225.3l5.3 5.2M433 225.3l3.6 3.3"/><path class="cls-26" d="M436.3 236.8h-54.9M436.3 240.1h-54.9"/><path class="cls-24" d="M436.3 230.5h-54.9M436.3 236.1h-54.9"/><path class="cls-26" d="M436.3 225.3h-54.9M436.3 230.5h-54.9"/><path class="cls-25" d="M436.3 240.1h-54.9M436.3 225.3h-54.9"/><path class="cls-31" d="M532.1 240.1v-3.3h-55v3.3h55"/><path class="cls-24" d="M477.4 237.5l2.6 2.6M480.5 236.8l3.3 3.3M484.6 236.8l3.3 3.3M488.6 236.8l3.4 3.3M492.7 236.8l3.4 3.3M496.6 236.8l3.3 3.3M500.6 236.8l3.4 3.3M504.7 236.8l3.4 3.3M508.6 236.8l3.3 3.3M512.6 236.8l3.4 3.3M516.7 236.8l3.4 3.3M520.6 236.8l3.3 3.3M524.6 236.8l3.4 3.3M528.7 236.8l3.4 3.3"/><path class="cls-31" d="M532.1 236.8v-.7h-55v.7h55M532.1 236.1v-5.6h-55v5.6h55"/><path class="cls-24" d="M477.8 230.5v5.6M479.3 230.5v5.6M480.7 230.5v5.6M482.2 230.5v5.6M483.6 230.5v5.6M485 230.5v5.6M486.2 230.5v5.6M487.7 230.5v5.6M489.1 230.5v5.6M490.6 230.5v5.6M492 230.5v5.6M493.4 230.5v5.6M494.9 230.5v5.6M496.3 230.5v5.6M497.8 230.5v5.6M499.2 230.5v5.6M500.6 230.5v5.6M501.8 230.5v5.6M503.3 230.5v5.6M504.7 230.5v5.6M506.2 230.5v5.6M507.6 230.5v5.6M509 230.5v5.6M510.5 230.5v5.6M511.9 230.5v5.6M513.4 230.5v5.6M514.8 230.5v5.6M516 230.5v5.6M517.4 230.5v5.6M518.9 230.5v5.6M520.3 230.5v5.6M521.8 230.5v5.6M523.2 230.5v5.6M524.6 230.5v5.6M526.1 230.5v5.6M527.5 230.5v5.6M529 230.5v5.6M530.4 230.5v5.6M531.6 230.5v5.6"/><path class="cls-31" d="M532.1 230.5v-5.2h-55v5.2h55"/><path class="cls-24" d="M477.4 229.3l.9 1.2M477.4 225.5l5 5M481.2 225.3l5.3 5.2M485 225.3l5.3 5.2M489.1 225.3l5.3 5.2M493.2 225.3l5.3 5.2M497 225.3l5.3 5.2M501.1 225.3l5.3 5.2M505.2 225.3l5.3 5.2M509 225.3l5.3 5.2M513.1 225.3l5.3 5.2M517.2 225.3l5.3 5.2M521.3 225.3l5.3 5.2M525.1 225.3l5.3 5.2M529.2 225.3l3.1 2.8"/><path class="cls-26" d="M532.1 236.8h-55M532.1 240.1h-55"/><path class="cls-24" d="M532.1 230.5h-55M532.1 236.1h-55"/><path class="cls-26" d="M532.1 225.3h-55M532.1 230.5h-55"/><path class="cls-25" d="M532.1 240.1h-55M532.1 225.3h-55"/><path class="cls-31" d="M622.1 240.1l-3.4-3.3h-45.6v3.3h49"/><path class="cls-24" d="M573.4 237.3l2.8 2.8M576.7 236.8l3.4 3.3M580.8 236.8l3.4 3.3M584.9 236.8l3.3 3.3M588.7 236.8l3.4 3.3M592.8 236.8l3.4 3.3M596.9 236.8l3.3 3.3M601 236.8l3.3 3.3M604.8 236.8l3.4 3.3M608.9 236.8l3.3 3.3M613 236.8l3.3 3.3M616.8 236.8l3.4 3.3"/><path class="cls-31" d="M618.7 236.8l-.7-.7h-44.9v.7h45.6M618 236.1l-5.8-5.6h-39.1v5.6H618"/><path class="cls-24" d="M574.3 230.5v5.6M575.5 230.5v5.6M577 230.5v5.6M578.4 230.5v5.6M579.8 230.5v5.6M581.3 230.5v5.6M582.7 230.5v5.6M584.2 230.5v5.6M585.6 230.5v5.6M587 230.5v5.6M588.5 230.5v5.6M589.9 230.5v5.6M591.1 230.5v5.6M592.6 230.5v5.6M594 230.5v5.6M595.4 230.5v5.6M596.9 230.5v5.6M598.3 230.5v5.6M599.8 230.5v5.6M601.2 230.5v5.6M602.6 230.5v5.6M604.1 230.5v5.6M605.5 230.5v5.6M606.7 230.5v5.6M608.2 230.5v5.6M609.6 230.5v5.6M611 230.5v5.6M612.5 230.8v5.3M613.9 232v4.1M615.4 233.4v2.7M616.8 234.6v1.5"/><path class="cls-31" d="M612.2 230.5l-5.2-5.2h-33.9v5.2h39.1"/><path class="cls-24" d="M573.4 229.1l1.2 1.4M573.4 225.3l5.2 5.2M577.2 225.3l5.3 5.2M581.3 225.3l5.3 5.2M585.4 225.3l5.2 5.2M589.4 225.3l5.3 5.2M593.3 225.3l5.3 5.2M597.4 225.3l5.2 5.2M601.4 225.3l5.3 5.2M605.3 225.3l5.3 5.2"/><path class="cls-26" d="M618.7 236.8h-45.6M622.1 240.1h-49"/><path class="cls-24" d="M612.2 230.5h-39.1M618 236.1h-44.9"/><path class="cls-26" d="M607 225.3h-33.9M612.2 230.5h-39.1"/><path class="cls-25" d="M622.1 240.1h-49M607 225.3h-33.9M379.4 232.7v7.4h3.6v2h-43.9v-2h3.4v-7.4"/><path class="cls-1" d="M381.4 225.3h-40.8"/><path class="cls-25" d="M341 225.3h-.4"/><path class="cls-26" d="M379.4 240.1h3.6M342.5 240.1h-3.4"/><path class="cls-25" d="M340.6 230.5h40.8v2.2h-40.8zM377.8 232.7v-2.2M344.2 232.7v-2.2M381.4 230.5v2.2M363.1 230.5v2.2M377.8 230.5v2.2M358.8 230.5v2.2M363.1 230.5v2.2M344.2 230.5v2.2M358.8 230.5v2.2M340.6 230.5v2.2"/><path class="cls-31" d="M381.4 236.1h-1.9v-3.4h1.9"/><path class="cls-24" d="M380.2 232.7v3.4M381.4 232.7v3.4M381.4 236.1h-1.9v-3.4h1.9"/><path class="cls-26" d="M381.4 230.5v-5.2"/><path class="cls-31" d="M381.4 240.1h-2v-3.3h2"/><path class="cls-24" d="M379.7 239.9v.2M380.4 236.8l1.2 1.2"/><path class="cls-26" d="M381.4 240.1h-2v-3.3h2M379.4 236.8v-4.1"/><path class="cls-31" d="M340.6 236.1h1.8v-3.4h-1.8"/><path class="cls-24" d="M341.8 232.7v3.4M340.6 236.1h1.8v-3.4h-1.8"/><path class="cls-26" d="M340.6 230.5v-5.2"/><path class="cls-31" d="M340.6 240.1h1.9v-3.3h-1.9"/><path class="cls-24" d="M340.8 237.3l1.9 1.9"/><path class="cls-26" d="M340.6 240.1h1.9v-3.3h-1.9M342.5 236.8v-4.1"/><path class="cls-25" d="M475.4 232.7v7.4h3.4v2h-43.9v-2h3.3v-7.4"/><path class="cls-1" d="M477.1 225.3h-40.8"/><path class="cls-25" d="M436.8 225.3h-.5"/><path class="cls-26" d="M475.4 240.1h3.4M438.2 240.1h-3.3"/><path class="cls-25" d="M436.3 230.5h40.8v2.2h-40.8zM473.5 232.7v-2.2M440.2 232.7v-2.2M477.1 230.5v2.2M458.9 230.5v2.2M473.5 230.5v2.2M454.8 230.5v2.2M458.9 230.5v2.2M440.2 230.5v2.2M454.8 230.5v2.2M436.3 230.5v2.2"/><path class="cls-31" d="M477.2 236.1h-1.8v-3.4h1.8"/><path class="cls-24" d="M476.4 232.7v3.4M477.2 236.1h-1.8v-3.4h1.8"/><path class="cls-26" d="M477.1 230.5v-5.2"/><path class="cls-31" d="M477.1 240.1h-1.7v-3.3h1.7"/><path class="cls-24" d="M475.7 239.7l.2.4M476.6 236.8l.8.7"/><path class="cls-26" d="M477.1 240.1h-1.7v-3.3h1.7M475.4 236.8v-4.1"/><path class="cls-31" d="M436.4 236.1h1.8v-3.4h-1.8"/><path class="cls-24" d="M436.8 232.7v3.4M438.2 232.7v3.4M436.4 236.1h1.8v-3.4h-1.8"/><path class="cls-26" d="M436.3 230.5v-5.2"/><path class="cls-31" d="M436.3 240.1h1.9v-3.3h-1.9"/><path class="cls-24" d="M436.6 236.8l1.9 1.9"/><path class="cls-26" d="M436.3 240.1h1.9v-3.3h-1.9M438.2 236.8v-4.1"/><path class="cls-25" d="M571.2 232.7v7.4h3.4v2h-44v-2h3.4v-7.4"/><path class="cls-1" d="M573.1 225.3h-41"/><path class="cls-25" d="M532.6 225.3h-.5"/><path class="cls-26" d="M571.2 240.1h3.4M534 240.1h-3.4"/><path class="cls-25" d="M532.1 230.5h41v2.2h-41zM569.3 232.7v-2.2M535.9 232.7v-2.2M573.1 230.5v2.2M554.6 230.5v2.2M569.3 230.5v2.2M550.6 230.5v2.2M554.6 230.5v2.2M535.9 230.5v2.2M550.6 230.5v2.2M532.1 230.5v2.2"/><path class="cls-31" d="M573 236.1h-1.8v-3.4h1.8"/><path class="cls-24" d="M571.4 232.7v3.4M572.9 232.7v3.4M573 236.1h-1.8v-3.4h1.8"/><path class="cls-26" d="M573.1 230.5v-5.2"/><path class="cls-31" d="M573.1 240.1h-1.9v-3.3h1.9"/><path class="cls-24" d="M571.4 239.4l.8.7M572.9 236.8l.5.5"/><path class="cls-26" d="M573.1 240.1h-1.9v-3.3h1.9M571.2 236.8v-4.1"/><path class="cls-31" d="M532.2 236.1h1.8v-3.4h-1.8"/><path class="cls-24" d="M533 232.7v3.4M532.2 236.1h1.8v-3.4h-1.8"/><path class="cls-26" d="M532.1 230.5v-5.2"/><path class="cls-31" d="M532.1 240.1h1.9v-3.3h-1.9"/><path class="cls-24" d="M532.8 236.8l1.4 1.4"/><path class="cls-26" d="M532.1 240.1h1.9v-3.3h-1.9M534 236.8v-4.1"/><path class="cls-1" d="M175 225.3h-40.8"/><path class="cls-25" d="M134.6 225.3h-.4M134.2 230.5H175v2.2h-40.8zM171.4 232.7v-2.2M138 232.7v-2.2M175 230.5v2.2M156.7 230.5v2.2M171.4 230.5v2.2M152.6 230.5v2.2M156.7 230.5v2.2M138 230.5v2.2M152.6 230.5v2.2M134.2 230.5v2.2"/><path class="cls-26" d="M175 230.5v-5.2"/><path class="cls-25" d="M132.7 240.1v2"/><path class="cls-14" d="M132.7 242.1h43.9"/><path class="cls-25" d="M176.2 242.1h.4"/><path class="cls-11" d="M176.6 242.1v-2"/><path class="cls-25" d="M176.6 240.6v-.5"/><path class="cls-31" d="M175 236.1h-1.8v-3.4h1.8"/><path class="cls-24" d="M174.5 232.7v3.4M175 236.1h-1.8v-3.4h1.8"/><path class="cls-31" d="M175 240.1h-1.7v-3.3h1.7"/><path class="cls-24" d="M173.5 238.2l1.7 1.7"/><path class="cls-26" d="M175 240.1h-1.7v-3.3h1.7M173.3 236.8v-4.1"/><path class="cls-31" d="M134.2 236.1h1.8v-3.4h-1.8"/><path class="cls-24" d="M134.9 232.7v3.4M134.2 236.1h1.8v-3.4h-1.8"/><path class="cls-26" d="M134.2 230.5v-5.2"/><path class="cls-31" d="M134.2 240.1h1.9v-3.3h-1.9"/><path class="cls-24" d="M134.4 239.2l.7.9M135.8 236.8l.5.5"/><path class="cls-26" d="M134.2 240.1h1.9v-3.3h-1.9M136.1 236.8v-4.1"/><path class="cls-1" d="M278.2 225.3h-40.8"/><path class="cls-25" d="M237.8 225.3h-.4M237.4 230.5h40.8v2.2h-40.8zM274.6 232.7v-2.2M241 232.7v-2.2M278.2 230.5v2.2M259.9 230.5v2.2M274.6 230.5v2.2M255.8 230.5v2.2M259.9 230.5v2.2M241 230.5v2.2M255.8 230.5v2.2M237.4 230.5v2.2"/><path class="cls-26" d="M278.2 230.5v-5.2"/><path class="cls-25" d="M235.9 240.1v2"/><path class="cls-14" d="M235.9 242.1h43.9"/><path class="cls-25" d="M279.4 242.1h.4"/><path class="cls-11" d="M279.8 242.1v-2"/><path class="cls-25" d="M279.8 240.6v-.5"/><path class="cls-31" d="M278.2 236.1h-1.8v-3.4h1.8"/><path class="cls-24" d="M276.5 232.7v3.4M277.9 232.7v3.4M278.2 236.1h-1.8v-3.4h1.8"/><path class="cls-31" d="M278.2 240.1h-2v-3.3h2"/><path class="cls-24" d="M276.5 237l1.9 1.9"/><path class="cls-26" d="M278.2 240.1h-2v-3.3h2M276.2 236.8v-4.1"/><path class="cls-31" d="M237.4 236.1h1.8v-3.4h-1.8"/><path class="cls-24" d="M238.3 232.7v3.4M237.4 236.1h1.8v-3.4h-1.8"/><path class="cls-26" d="M237.4 230.5v-5.2"/><path class="cls-31" d="M237.4 240.1h1.9v-3.3h-1.9"/><path class="cls-24" d="M237.6 238.2l1.9 1.9"/><path class="cls-26" d="M237.4 240.1h1.9v-3.3h-1.9M239.3 236.8v-4.1"/><path class="cls-31" d="M5.5.1v7.2H239l7-7.2H5.5"/><g class="cls-29"><path class="cls-24" d="M246 2.3L243.8.1M246 6.1l-6-6M243.1 7.3L235.9.1M239 7.3L231.8.1M235.2 7.3L228 .1M231.1 7.3L223.9.1M227 7.3L219.8.1M223.2 7.3L216 .1M219.1 7.3L211.9.1M215 7.3L207.8.1M211 7.3L203.8.1M207.1 7.3L199.9.1M203 7.3L195.8.1M199 7.3L191.8.1M195.1 7.3L187.9.1M191 7.3L183.8.1M187 7.3L179.8.1M183.1 7.3L175.9.1M179 7.3L171.8.1M175 7.3L167.8.1M170.9 7.3L163.7.1M167 7.3L159.8.1M163 7.3L155.8.1M158.9 7.3L151.7.1M155 7.3L147.8.1M151 7.3L143.8.1M146.9 7.3L139.7.1M142.8 7.3L135.6.1M139 7.3L131.8.1M134.9 7.3L127.7.1M130.8 7.3L123.6.1M127 7.3L119.8.1M122.9 7.3L115.7.1M118.8 7.3L111.6.1M115 7.3L107.8.1M110.9 7.3L103.7.1M106.8 7.3L99.6.1M102.7 7.3L95.5.1M98.9 7.3L91.7.1M94.8 7.3L87.6.1M90.7 7.3L83.5.1M86.9 7.3L79.7.1M244.1 7.3l1.9-1.9M240 7.3l6-6M235.9 7.3l7.2-7.2M232.1 7.3l7.2-7.2M228 7.3l7.2-7.2M223.9 7.3l7.2-7.2M220.1 7.3l7.2-7.2M216 7.3l7.2-7.2M211.9 7.3l7.2-7.2M208.1 7.3l7.2-7.2M204 7.3l7.2-7.2M199.9 7.3l7.2-7.2M195.8 7.3L203 .1M192 7.3l7.2-7.2M187.9 7.3l7.2-7.2M183.8 7.3L191 .1M180 7.3l7.2-7.2M175.9 7.3l7.2-7.2M171.8 7.3L179 .1M167.8 7.3L175 .1M163.9 7.3l7.2-7.2M159.8 7.3L167 .1M155.8 7.3L163 .1M151.9 7.3l7.2-7.2M147.8 7.3L155 .1M143.8 7.3L151 .1M139.9 7.3l7.2-7.2M135.8 7.3L143 .1M131.8 7.3L139 .1M127.7 7.3l7.2-7.2M123.8 7.3L131 .1M119.8 7.3L127 .1M115.7 7.3l7.2-7.2M111.8 7.3L119 .1M107.8 7.3L115 .1M103.7 7.3l7.2-7.2M99.8 7.3L107 .1M95.8 7.3L103 .1M91.7 7.3L98.9.1M87.6 7.3L94.8.1M83.8 7.3L91 .1M79.7 7.3L86.9.1"/></g><path class="cls-31" d="M5.5.1v7.2H239l7-7.2H5.5"/><g class="cls-32"><path class="cls-24" d="M246 2.3L243.8.1M246 6.1l-6-6M243.1 7.3L235.9.1M239 7.3L231.8.1M235.2 7.3L228 .1M231.1 7.3L223.9.1M227 7.3L219.8.1M223.2 7.3L216 .1M219.1 7.3L211.9.1M215 7.3L207.8.1M211 7.3L203.8.1M207.1 7.3L199.9.1M203 7.3L195.8.1M199 7.3L191.8.1M195.1 7.3L187.9.1M191 7.3L183.8.1M187 7.3L179.8.1M183.1 7.3L175.9.1M179 7.3L171.8.1M175 7.3L167.8.1M170.9 7.3L163.7.1M167 7.3L159.8.1M163 7.3L155.8.1M158.9 7.3L151.7.1M155 7.3L147.8.1M151 7.3L143.8.1M146.9 7.3L139.7.1M142.8 7.3L135.6.1M139 7.3L131.8.1M134.9 7.3L127.7.1M130.8 7.3L123.6.1M127 7.3L119.8.1M122.9 7.3L115.7.1M118.8 7.3L111.6.1M115 7.3L107.8.1M110.9 7.3L103.7.1M106.8 7.3L99.6.1M102.7 7.3L95.5.1M98.9 7.3L91.7.1M94.8 7.3L87.6.1M90.7 7.3L83.5.1M86.9 7.3L79.7.1M82.9 7.3L75.7.1M78.9 7.3L71.7.1M75 7.3L67.8.1M71 7.3L63.8.1M67 7.3L59.8.1M63.1 7.3L55.9.1M59.1 7.3L51.9.1M55.1 7.3L47.9.1M51.2 7.3L44 .1M47.2 7.3L40 .1M43.2 7.3L36 .1M39.3 7.3L32.1.1M35.3 7.3L28.1.1M31.3 7.3L24.1.1M27.4 7.3L20.2.1M23.4 7.3L16.2.1M19.4 7.3L12.2.1M15.4 7.3L8.2.1M11.5 7.3L4.3.1M7.5 7.3L.3.1M244.1 7.3l1.9-1.9M240 7.3l6-6M235.9 7.3l7.2-7.2M232.1 7.3l7.2-7.2M228 7.3l7.2-7.2M223.9 7.3l7.2-7.2M220.1 7.3l7.2-7.2M216 7.3l7.2-7.2M211.9 7.3l7.2-7.2M208.1 7.3l7.2-7.2M204 7.3l7.2-7.2M199.9 7.3l7.2-7.2M195.8 7.3L203 .1M192 7.3l7.2-7.2M187.9 7.3l7.2-7.2M183.8 7.3L191 .1M180 7.3l7.2-7.2M175.9 7.3l7.2-7.2M171.8 7.3L179 .1M167.8 7.3L175 .1M163.9 7.3l7.2-7.2M159.8 7.3L167 .1M155.8 7.3L163 .1M151.9 7.3l7.2-7.2M147.8 7.3L155 .1M143.8 7.3L151 .1M139.9 7.3l7.2-7.2M135.8 7.3L143 .1M131.8 7.3L139 .1M127.7 7.3l7.2-7.2M123.8 7.3L131 .1M119.8 7.3L127 .1M115.7 7.3l7.2-7.2M111.8 7.3L119 .1M107.8 7.3L115 .1M103.7 7.3l7.2-7.2M99.8 7.3L107 .1M95.8 7.3L103 .1M91.7 7.3L98.9.1M87.6 7.3L94.8.1M83.8 7.3L91 .1M79.7 7.3L86.9.1M75.7 7.3L82.9.1M71.7 7.3L78.9.1M67.8 7.3L75 .1M63.8 7.3L71 .1M59.8 7.3L67 .1M55.9 7.3L63.1.1M51.9 7.3L59.1.1M47.9 7.3L55.1.1M44 7.3L51.2.1M40 7.3L47.2.1M36 7.3L43.2.1M32.1 7.3L39.3.1M28.1 7.3L35.3.1M24.1 7.3L31.3.1M20.2 7.3L27.4.1M16.2 7.3L23.4.1M12.2 7.3L19.4.1M8.2 7.3L15.4.1M4.3 7.3L11.5.1M.3 7.3L7.5.1"/></g><path class="cls-26" d="M246 .1H5.5M239 7.3H5.5M239 7.3H5.5M246 .1H5.5"/><path class="cls-31" d="M5.5 108.6v7.2h139.7v-7.2H5.5"/><g class="cls-34"><path class="cls-24" d="M145.2 109.8l-1.2-1.2M145.2 113.9l-5.3-5.3M143 115.8l-7.2-7.2M139.2 115.8l-7.2-7.2M135.1 115.8l-7.2-7.2M131 115.8l-7.2-7.2M127.2 115.8l-7.2-7.2M123.1 115.8l-7.2-7.2M119 115.8l-7.2-7.2M115.2 115.8l-7.2-7.2M111.1 115.8l-7.2-7.2M107 115.8l-7.2-7.2M103 115.8l-7.2-7.2M99.1 115.8l-7.2-7.2M95 115.8l-7.2-7.2M91 115.8l-7.2-7.2M87.1 115.8l-7.2-7.2M83 115.8l-7.2-7.2M143.5 115.8l1.7-1.7M139.7 115.8l5.5-5.5M135.6 115.8l7.2-7.2M131.5 115.8l7.2-7.2M127.4 115.8l7.2-7.2M123.6 115.8l7.2-7.2M119.5 115.8l7.2-7.2M115.4 115.8l7.2-7.2M111.6 115.8l7.2-7.2M107.5 115.8l7.2-7.2M103.4 115.8l7.2-7.2M99.6 115.8l7.2-7.2M95.5 115.8l7.2-7.2M91.4 115.8l7.2-7.2M87.4 115.8l7.2-7.2M83.5 115.8l7.2-7.2M79.4 115.8l7.2-7.2"/></g><path class="cls-31" d="M5.5 108.6v7.2h139.7v-7.2H5.5"/><g class="cls-33"><path class="cls-24" d="M145.2 109.8l-1.2-1.2M145.2 113.9l-5.3-5.3M143 115.8l-7.2-7.2M139.2 115.8l-7.2-7.2M135.1 115.8l-7.2-7.2M131 115.8l-7.2-7.2M127.2 115.8l-7.2-7.2M123.1 115.8l-7.2-7.2M119 115.8l-7.2-7.2M115.2 115.8l-7.2-7.2M111.1 115.8l-7.2-7.2M107 115.8l-7.2-7.2M103 115.8l-7.2-7.2M99.1 115.8l-7.2-7.2M95 115.8l-7.2-7.2M91 115.8l-7.2-7.2M87.1 115.8l-7.2-7.2M83 115.8l-7.2-7.2M79.1 115.8l-7.2-7.2M75.1 115.8l-7.2-7.2M71.1 115.8l-7.2-7.2M67.2 115.8l-7.2-7.2M63.2 115.8l-7.2-7.2M59.2 115.8l-7.2-7.2M55.3 115.8l-7.2-7.2M51.3 115.8l-7.2-7.2M47.3 115.8l-7.2-7.2M43.4 115.8l-7.2-7.2M39.4 115.8l-7.2-7.2M35.4 115.8l-7.2-7.2M31.5 115.8l-7.2-7.2M27.5 115.8l-7.2-7.2M23.5 115.8l-7.2-7.2M19.5 115.8l-7.2-7.2M15.6 115.8l-7.2-7.2M11.6 115.8l-7.2-7.2M7.6 115.8l-7.2-7.2M143.5 115.8l1.7-1.7M139.7 115.8l5.5-5.5M135.6 115.8l7.2-7.2M131.5 115.8l7.2-7.2M127.4 115.8l7.2-7.2M123.6 115.8l7.2-7.2M119.5 115.8l7.2-7.2M115.4 115.8l7.2-7.2M111.6 115.8l7.2-7.2M107.5 115.8l7.2-7.2M103.4 115.8l7.2-7.2M99.6 115.8l7.2-7.2M95.5 115.8l7.2-7.2M91.4 115.8l7.2-7.2M87.4 115.8l7.2-7.2M83.5 115.8l7.2-7.2M79.4 115.8l7.2-7.2M75.5 115.8l7.2-7.2M71.5 115.8l7.2-7.2M67.5 115.8l7.2-7.2M63.6 115.8l7.2-7.2M59.6 115.8l7.2-7.2M55.6 115.8l7.2-7.2M51.7 115.8l7.2-7.2M47.7 115.8l7.2-7.2M43.7 115.8l7.2-7.2M39.8 115.8l7.2-7.2M35.8 115.8l7.2-7.2M31.8 115.8l7.2-7.2M27.9 115.8l7.2-7.2M23.9 115.8l7.2-7.2M19.9 115.8l7.2-7.2M15.9 115.8l7.2-7.2M12 115.8l7.2-7.2M8 115.8l7.2-7.2M4 115.8l7.2-7.2M0 115.8l7.3-7.2"/></g><path class="cls-26" d="M145.2 108.6H5.5M104.6 115.8H5.5M145.2 115.8h-33.4M104.6 115.8H5.5M145.2 108.6H5.5M145.2 115.8h-33.4"/><path class="cls-31" d="M196.1 106l7.2 9.8V40.9l-7.2 10.4V106"/><path class="cls-24" d="M203.5 43.8l-1.2-1.2M203.5 47.9l-2.9-2.9M203.5 51.7l-4.5-4.3M203.5 55.8l-6.2-6.2M203.5 59.9l-7.2-7.2M203.5 63.7l-7.2-7.2M203.5 67.8l-7.2-7.2M203.5 71.9l-7.2-7.2M203.5 75.7l-7.2-7.2M203.5 79.8l-7.2-7.2M203.5 83.9l-7.2-7.2M203.5 88l-7.2-7.2M203.5 91.8l-7.2-7.2M203.5 95.9l-7.2-7.2M203.5 100l-7.2-7.2M203.5 103.8l-7.2-7.2M203.5 107.9l-7.2-7.2M203.5 112l-7.2-7.2M201.8 113.7l1.7-1.5M200.2 111.3l3.3-3.2M198.5 109.1l5-5M196.8 106.7l6.7-6.7M196.3 103.3l7.2-7.2M196.3 99.3l7.2-7.2M196.3 95.2l7.2-7.2M196.3 91.3l7.2-7.2M196.3 87.3l7.2-7.2M196.3 83.2l7.2-7.2M196.3 79.3l7.2-7.2M196.3 75.3l7.2-7.2M196.3 71.2l7.2-7.2M196.3 67.1l7.2-7.2M196.3 63.3l7.2-7.2M196.3 59.2l7.2-7.2M196.3 55.1l7.2-7.2M196.3 51l7.2-6.9"/><path class="cls-31" d="M196.1 106l7.2 9.8V40.9l-7.2 10.4V106"/><path class="cls-24" d="M203.5 43.8l-1.2-1.2M203.5 47.9l-2.9-2.9M203.5 51.7l-4.5-4.3M203.5 55.8l-6.2-6.2M203.5 59.9l-7.2-7.2M203.5 63.7l-7.2-7.2M203.5 67.8l-7.2-7.2M203.5 71.9l-7.2-7.2M203.5 75.7l-7.2-7.2M203.5 79.8l-7.2-7.2M203.5 83.9l-7.2-7.2M203.5 88l-7.2-7.2M203.5 91.8l-7.2-7.2M203.5 95.9l-7.2-7.2M203.5 100l-7.2-7.2M203.5 103.8l-7.2-7.2M203.5 107.9l-7.2-7.2M203.5 112l-7.2-7.2M201.8 113.7l1.7-1.5M200.2 111.3l3.3-3.2M198.5 109.1l5-5M196.8 106.7l6.7-6.7M196.3 103.3l7.2-7.2M196.3 99.3l7.2-7.2M196.3 95.2l7.2-7.2M196.3 91.3l7.2-7.2M196.3 87.3l7.2-7.2M196.3 83.2l7.2-7.2M196.3 79.3l7.2-7.2M196.3 75.3l7.2-7.2M196.3 71.2l7.2-7.2M196.3 67.1l7.2-7.2M196.3 63.3l7.2-7.2M196.3 59.2l7.2-7.2M196.3 55.1l7.2-7.2M196.3 51l7.2-6.9"/><path class="cls-26" d="M196.1 51.3V106M203.3 48.1v67.7M203.3 48.1v67.7M196.1 51.3V106"/><path class="cls-31" d="M150.7 51.3l-5.5-10.4v74.9l5.5-9.8V51.3"/><path class="cls-24" d="M146.4 42.9l-1-1M151 51.3l-5.6-5.6M151 55.3l-5.6-5.5M151 59.4l-5.6-5.5M151 63.3l-5.6-5.6M151 67.3l-5.6-5.5M151 71.4l-5.6-5.5M151 75.5l-5.6-5.5M151 79.3l-5.6-5.5M151 83.4l-5.6-5.5M151 87.5l-5.6-5.5M151 91.3l-5.6-5.5M151 95.4l-5.6-5.5M151 99.5l-5.6-5.5M151 103.3l-5.6-5.5M150.2 106.9l-4.8-5M148.8 109.6l-3.4-3.6M147.4 112l-2-1.9M145.9 114.6l-.5-.7M145.4 114.1l2.2-2.4M145.4 110.1l5.6-5.6M145.4 106l5.6-5.5M145.4 102.1l5.6-5.5M145.4 98.1l5.6-5.6M145.4 94l5.6-5.5M145.4 90.1l5.6-5.5M145.4 86.1l5.6-5.6M145.4 82l5.6-5.5M145.4 77.9l5.6-5.5M145.4 74.1l5.6-5.6M145.4 70l5.6-5.5M145.4 65.9l5.6-5.5M145.4 62.1l5.6-5.6M145.4 58l5.6-5.5M145.4 53.9l4.4-4.6M145.4 49.8l3.2-3.1M145.4 46l1.7-1.7M145.4 41.9l.3-.2"/><path class="cls-31" d="M150.7 51.3l-5.5-10.4v74.9l5.5-9.8V51.3"/><path class="cls-24" d="M146.4 42.9l-1-1M151 51.3l-5.6-5.6M151 55.3l-5.6-5.5M151 59.4l-5.6-5.5M151 63.3l-5.6-5.6M151 67.3l-5.6-5.5M151 71.4l-5.6-5.5M151 75.5l-5.6-5.5M151 79.3l-5.6-5.5M151 83.4l-5.6-5.5M151 87.5l-5.6-5.5M151 91.3l-5.6-5.5M151 95.4l-5.6-5.5M151 99.5l-5.6-5.5M151 103.3l-5.6-5.5M150.2 106.9l-4.8-5M148.8 109.6l-3.4-3.6M147.4 112l-2-1.9M145.9 114.6l-.5-.7M145.4 114.1l2.2-2.4M145.4 110.1l5.6-5.6M145.4 106l5.6-5.5M145.4 102.1l5.6-5.5M145.4 98.1l5.6-5.6M145.4 94l5.6-5.5M145.4 90.1l5.6-5.5M145.4 86.1l5.6-5.6M145.4 82l5.6-5.5M145.4 77.9l5.6-5.5M145.4 74.1l5.6-5.6M145.4 70l5.6-5.5M145.4 65.9l5.6-5.5M145.4 62.1l5.6-5.6M145.4 58l5.6-5.5M145.4 53.9l4.4-4.6M145.4 49.8l3.2-3.1M145.4 46l1.7-1.7M145.4 41.9l.3-.2"/><path class="cls-26" d="M150.7 106V51.3M145.2 108.6V40.9M145.2 108.6V40.9M150.7 106V51.3"/><path class="cls-25" d="M145.2 46.5h-34.1M145.2 54.1h-34.1M145.2 61.8h-34.1M145.2 69.5h-34.1M71.5 108.6l-8.1-35.3M47 41.2h64.1v33.6H47zM128.2 46.5l3.8 3.8h-7.7l3.9-3.8zM60 74.8v33.8M67.7 74.8v33.8M75.4 74.8v33.8M82.8 74.8v33.8M90.5 74.8v33.8M98.2 74.8v33.8M105.8 74.8v33.8"/><path class="cls-25" d="M48.5 42.6h61.2v30.7H48.5zM105.8 91.8l-3.8 3.9V88l3.8 3.8zM67.7 91.8l-3.9 3.9V88l3.9 3.8z"/><path class="cls-31" d="M196.1 51.3l7.2-10.4h-7.2v10.4"/><path class="cls-24" d="M202.3 42.6l-1.7-1.7M200.6 45l-4-4.1M199 47.4l-2.7-2.9M197.3 49.6l-1-1M196.3 51.3V51M196.3 47.2l6-6.3M196.3 43.1l2.2-2.2"/><path class="cls-31" d="M196.1 51.3l7.2-10.4h-7.2v10.4"/><path class="cls-24" d="M202.3 42.6l-1.7-1.7M200.6 45l-4-4.1M199 47.4l-2.7-2.9M197.3 49.6l-1-1M196.3 51.3V51M196.3 47.2l6-6.3M196.3 43.1l2.2-2.2"/><path class="cls-26" d="M196.1 40.9h7.2M196.1 40.9h7.2"/><path class="cls-31" d="M160.3 40.9h-15.1l5.5 10.4h9.6V40.9"/><path class="cls-24" d="M160.6 45l-4.1-4.1M160.6 48.9l-8.2-8M158.9 51.3l-10.3-10.4M154.8 51.3l-8.4-8.4M160.1 51.3l.5-.5M156 51.3l4.6-4.4M151.9 51.3l8.7-8.4M149.8 49.3l8.6-8.4M148.6 46.7l5.7-5.8M147.1 44.3l3.1-3.4M145.7 41.7l.7-.8"/><path class="cls-31" d="M160.3 40.9h-15.1l5.5 10.4h9.6V40.9"/><path class="cls-24" d="M160.6 45l-4.1-4.1M160.6 48.9l-8.2-8M158.9 51.3l-10.3-10.4M154.8 51.3l-8.4-8.4M160.1 51.3l.5-.5M156 51.3l4.6-4.4M151.9 51.3l8.7-8.4M149.8 49.3l8.6-8.4M148.6 46.7l5.7-5.8M147.1 44.3l3.1-3.4M145.7 41.7l.7-.8"/><path class="cls-26" d="M150.7 51.3h9.6M145.2 40.9h15.1M145.2 40.9h15.1M150.7 51.3h9.6"/><path class="cls-25" d="M163.4 49.8H193"/><path class="cls-1" d="M163.4 40.9H193"/><path class="cls-25" d="M192.5 40.9h.5"/><path class="cls-31" d="M160.3 40.9h3.1v8.9h-3.1"/><path class="cls-24" d="M163.7 44.1l-3.1-3.2M163.7 48.1l-3.1-3.1M161.3 49.8l-.7-.9M161.5 49.8l2.2-2.1M160.6 46.9l3.1-3.1M160.6 42.9l1.6-2"/><path class="cls-31" d="M196.1 40.9H193v8.9h3.1"/><path class="cls-24" d="M196.3 44.5l-3.1-3.1M196.3 48.6l-3.1-3.1M193.4 49.8l-.2-.2M193.4 49.8l2.9-2.6M193.2 46.2l3.1-3.1M193.2 42.4l1.2-1.5"/><path class="cls-26" d="M163.4 40.9v8.9M193 40.9v8.9M163.4 40.9v8.9M160.3 40.9h3.1M193 40.9v8.9M196.1 40.9H193M160.3 51.3v-1.5M196.1 51.3v-1.5M160.3 40.9h3.1M196.1 40.9H193M163.4 49.8h-3.1M193 49.8h3.1"/><path class="cls-31" d="M150.7 106l-5.5 9.8h58.1l-7.2-9.8h-45.4"/><path class="cls-24" d="M203.3 115.8l-9.9-9.8M199.2 115.8l-9.8-9.8M195.4 115.8l-9.9-9.8M191.3 115.8l-9.9-9.8M187.2 115.8l-9.8-9.8M183.4 115.8l-9.9-9.8M179.3 115.8l-9.9-9.8M175.2 115.8l-9.8-9.8M171.1 115.8l-9.8-9.8M167.3 115.8l-9.9-9.8M163.2 115.8l-9.8-9.8M159.1 115.8l-8.9-8.9M155.3 115.8l-6.5-6.2M151.2 115.8l-3.8-3.8M147.1 115.8l-1.2-1.2M199.7 115.8l2.1-2.1M195.6 115.8l4.6-4.5M191.8 115.8l6.7-6.7M187.7 115.8l9.1-9.1M183.6 115.8l9.8-9.8M179.8 115.8l9.8-9.8M175.7 115.8l9.8-9.8M171.6 115.8l9.8-9.8M167.5 115.8l9.9-9.8M163.7 115.8l9.8-9.8M159.6 115.8l9.8-9.8M155.5 115.8l9.9-9.8M151.7 115.8l9.8-9.8M147.6 115.8l9.8-9.8M147.6 111.7l5.8-5.7"/><path class="cls-31" d="M150.7 106l-5.5 9.8h58.1l-7.2-9.8h-45.4"/><path class="cls-24" d="M203.3 115.8l-9.9-9.8M199.2 115.8l-9.8-9.8M195.4 115.8l-9.9-9.8M191.3 115.8l-9.9-9.8M187.2 115.8l-9.8-9.8M183.4 115.8l-9.9-9.8M179.3 115.8l-9.9-9.8M175.2 115.8l-9.8-9.8M171.1 115.8l-9.8-9.8M167.3 115.8l-9.9-9.8M163.2 115.8l-9.8-9.8M159.1 115.8l-8.9-8.9M155.3 115.8l-6.5-6.2M151.2 115.8l-3.8-3.8M147.1 115.8l-1.2-1.2M199.7 115.8l2.1-2.1M195.6 115.8l4.6-4.5M191.8 115.8l6.7-6.7M187.7 115.8l9.1-9.1M183.6 115.8l9.8-9.8M179.8 115.8l9.8-9.8M175.7 115.8l9.8-9.8M171.6 115.8l9.8-9.8M167.5 115.8l9.9-9.8M163.7 115.8l9.8-9.8M159.6 115.8l9.8-9.8M155.5 115.8l9.9-9.8M151.7 115.8l9.8-9.8M147.6 115.8l9.8-9.8M147.6 111.7l5.8-5.7"/><path class="cls-26" d="M196.1 106h-45.4M203.3 115.8h-58.1M203.3 115.8h-58.1M196.1 106h-45.4"/><path class="cls-31" d="M111.8 115.8h-7.2v114.7h7.2V115.8"/><path class="cls-24" d="M112.1 116.8l-1-1M112.1 120.6l-5.1-4.8M112.1 124.7l-7.2-7.2M112.1 128.8l-7.2-7.2M112.1 132.6l-7.2-7.2M112.1 136.7l-7.2-7.2M112.1 140.8l-7.2-7.2M112.1 144.9l-7.2-7.2M112.1 148.7l-7.2-7.2M112.1 152.8l-7.2-7.2M112.1 156.9l-7.2-7.2M112.1 160.7l-7.2-7.2M112.1 164.8l-7.2-7.2M112.1 168.9l-7.2-7.2M112.1 172.7l-7.2-7.2M112.1 176.8l-7.2-7.2M112.1 180.9l-7.2-7.2M112.1 184.9l-7.2-7.2M112.1 188.8l-7.2-7.2M112.1 192.9l-7.2-7.2M112.1 196.9l-7.2-7.2M112.1 200.8l-7.2-7.2M112.1 204.9l-7.2-7.2M112.1 208.9l-7.2-7.2M112.1 213l-7.2-7.2M112.1 216.9l-7.2-7.2M112.1 220.9l-7.2-7.2M112.1 225l-7.2-7.2M112.1 228.9l-7.2-7.2M109.4 230.5l-4.5-4.8M105.6 230.5l-.7-.7M109 230.5l3.1-2.8M105.1 230.5l7-6.9M104.9 226.7l7.2-7.2M104.9 222.9l7.2-7.2M104.9 218.8l7.2-7.2M104.9 214.7l7.2-7.2M104.9 210.9l7.2-7.2M104.9 206.8l7.2-7.2M104.9 202.7l7.2-7.2M104.9 198.6l7.2-7.2M104.9 194.8l7.2-7.2M104.9 190.7l7.2-7.2M104.9 186.6l7.2-7.2M104.9 182.8l7.2-7.2M104.9 178.7l7.2-7.2M104.9 174.6l7.2-7.2M104.9 170.8l7.2-7.2M104.9 166.7l7.2-7.2M104.9 162.6l7.2-7.2M104.9 158.5l7.2-7.2M104.9 154.7l7.2-7.2M104.9 150.6l7.2-7.2M104.9 146.5l7.2-7.2M104.9 142.7l7.2-7.2M104.9 138.6l7.2-7.2M104.9 134.5l7.2-7.2M104.9 130.7l7.2-7.2M104.9 126.6l7.2-7.2M104.9 122.5l6.7-6.7M104.9 118.5l2.6-2.7"/><path class="cls-31" d="M111.8 115.8h-7.2v114.7h7.2V115.8"/><path class="cls-24" d="M112.1 116.8l-1-1M112.1 120.6l-5.1-4.8M112.1 124.7l-7.2-7.2M112.1 128.8l-7.2-7.2M112.1 132.6l-7.2-7.2M112.1 136.7l-7.2-7.2M112.1 140.8l-7.2-7.2M112.1 144.9l-7.2-7.2M112.1 148.7l-7.2-7.2M112.1 152.8l-7.2-7.2M112.1 156.9l-7.2-7.2M112.1 160.7l-7.2-7.2M112.1 164.8l-7.2-7.2M112.1 168.9l-7.2-7.2M112.1 172.7l-7.2-7.2M112.1 176.8l-7.2-7.2M112.1 180.9l-7.2-7.2M112.1 184.9l-7.2-7.2M112.1 188.8l-7.2-7.2M112.1 192.9l-7.2-7.2M112.1 196.9l-7.2-7.2M112.1 200.8l-7.2-7.2M112.1 204.9l-7.2-7.2M112.1 208.9l-7.2-7.2M112.1 213l-7.2-7.2M112.1 216.9l-7.2-7.2M112.1 220.9l-7.2-7.2M112.1 225l-7.2-7.2M112.1 228.9l-7.2-7.2M109.4 230.5l-4.5-4.8M105.6 230.5l-.7-.7M109 230.5l3.1-2.8M105.1 230.5l7-6.9M104.9 226.7l7.2-7.2M104.9 222.9l7.2-7.2M104.9 218.8l7.2-7.2M104.9 214.7l7.2-7.2M104.9 210.9l7.2-7.2M104.9 206.8l7.2-7.2M104.9 202.7l7.2-7.2M104.9 198.6l7.2-7.2M104.9 194.8l7.2-7.2M104.9 190.7l7.2-7.2M104.9 186.6l7.2-7.2M104.9 182.8l7.2-7.2M104.9 178.7l7.2-7.2M104.9 174.6l7.2-7.2M104.9 170.8l7.2-7.2M104.9 166.7l7.2-7.2M104.9 162.6l7.2-7.2M104.9 158.5l7.2-7.2M104.9 154.7l7.2-7.2M104.9 150.6l7.2-7.2M104.9 146.5l7.2-7.2M104.9 142.7l7.2-7.2M104.9 138.6l7.2-7.2M104.9 134.5l7.2-7.2M104.9 130.7l7.2-7.2M104.9 126.6l7.2-7.2M104.9 122.5l6.7-6.7M104.9 118.5l2.6-2.7"/><path class="cls-26" d="M111.8 230.5V115.8M104.6 230.5V115.8M104.6 230.5V115.8M111.8 230.5V115.8M111.8 230.5h-7.2"/><path class="cls-25" d="M409 131.7v-9.9"/><path class="cls-7" d="M408.2 132.1v-10.3"/><path class="cls-25" d="M410.4 130.2v-8.4M409 131.7v-9.9"/><path class="cls-7" d="M409 121.8h-.8"/><path class="cls-25" d="M410.4 121.8H409M408.2 132.1v-10.3M410.4 130.2v-8.4"/><path class="cls-31" d="M237.4 111.5l-4.4 4.3v109.5h4.4V111.5"/><path class="cls-24" d="M233.3 119.4l4.3-4.3M233.3 123.7l4.3-4.3M233.3 128.1l4.3-4.4M233.3 132.1l4.3-4.3M233.3 136.5l4.3-4.4M233.3 140.8l4.3-4.3M233.3 144.9l4.3-4.4M233.3 149.2l4.3-4.3M233.3 153.5l4.3-4.3M233.3 157.8l4.3-4.3M233.3 161.9l4.3-4.3M233.3 166.2l4.3-4.3M233.3 170.5l4.3-4.3M233.3 174.6l4.3-4.3M233.3 178.9l4.3-4.3M233.3 183.3l4.3-4.4M233.3 187.3l4.3-4.3M233.3 191.7l4.3-4.4M233.3 196l4.3-4.3M233.3 200.3l4.3-4.3M233.3 204.4l4.3-4.3M233.3 208.7l4.3-4.3M233.3 213l4.3-4.3M233.3 217.1l4.3-4.3M233.3 221.4l4.3-4.3M233.5 225.3l4.1-3.9"/><path class="cls-31" d="M237.4 111.5l-4.4 4.3v109.5h4.4V111.5"/><path class="cls-24" d="M233.3 119.4l4.3-4.3M233.3 123.7l4.3-4.3M233.3 128.1l4.3-4.4M233.3 132.1l4.3-4.3M233.3 136.5l4.3-4.4M233.3 140.8l4.3-4.3M233.3 144.9l4.3-4.4M233.3 149.2l4.3-4.3M233.3 153.5l4.3-4.3M233.3 157.8l4.3-4.3M233.3 161.9l4.3-4.3M233.3 166.2l4.3-4.3M233.3 170.5l4.3-4.3M233.3 174.6l4.3-4.3M233.3 178.9l4.3-4.3M233.3 183.3l4.3-4.4M233.3 187.3l4.3-4.3M233.3 191.7l4.3-4.4M233.3 196l4.3-4.3M233.3 200.3l4.3-4.3M233.3 204.4l4.3-4.3M233.3 208.7l4.3-4.3M233.3 213l4.3-4.3M233.3 217.1l4.3-4.3M233.3 221.4l4.3-4.3M233.5 225.3l4.1-3.9"/><path class="cls-26" d="M237.4 225.3V111.5M233 225.3V115.8M233 225.3V115.8M237.4 225.3V111.5M237.4 225.3H233"/><path class="cls-31" d="M229.9 115.8h3.1l4.4-4.3h-7.5v4.3"/><path class="cls-24" d="M230.2 114.1l2.4-2.6M232.6 115.8l4.3-4.3"/><path class="cls-31" d="M229.9 115.8h3.1l4.4-4.3h-7.5v4.3"/><path class="cls-24" d="M230.2 114.1l2.4-2.6M232.6 115.8l4.3-4.3"/><path class="cls-26" d="M237.4 111.5h-7.5M233 115.8h-3.1M233 115.8h-3.1M237.4 111.5h-7.5M203.3 115.8v-4.3"/><path class="cls-1" d="M229.9 111.5h-26.6M229.9 115.8h-26.6"/><path class="cls-25" d="M228 111.5v4.3M205.2 111.5v4.3"/><path class="cls-26" d="M229.9 111.5v4.3M203.3 111.5v4.3"/><path class="cls-24" d="M205.2 115.8c0 12.4 10.2 22.7 22.7 22.7M228 115.8v22.6"/><path class="cls-25" d="M278.4 122.3h77v17.3h-77zM287.5 137.4v2.2M304.3 137.4v2.2M321.4 137.4v2.2M355.4 122.3h.5v17.3h-.5zM355.9 139.1h17v.5h-17zM372.5 122.8h.5v16.3h-.5zM355.9 122.8h.7v16.3h-.7zM355.9 122.3h17v.5h-17z"/><path class="cls-31" d="M337.5 127.3v8.9c0 .3 0 .5-.2.8 0 .2-.2.5-.4.6-.2.2-.4.3-.6.4-.2.1-.5.2-.8.2h-11.2c-.3 0-.5 0-.8-.2-.2 0-.5-.2-.6-.4-.2-.2-.3-.4-.4-.6 0-.2-.2-.5-.2-.8v-8.9-.4c0-.1 0-.3.1-.4 0-.1.1-.2.2-.3 0-.1.2-.2.2-.3 0 0 .2-.2.3-.2.1 0 .2-.1.3-.2.1 0 .2 0 .4-.1h12c.1 0 .3 0 .4.1.1 0 .2.1.3.2.1 0 .2.2.3.2 0 0 .2.2.2.3s.1.2.2.3c0 .1 0 .2.1.4v.4"/><path class="cls-25" d="M337.5 127.3v8.9c0 .3 0 .5-.2.8 0 .2-.2.5-.4.6-.2.2-.4.3-.6.4-.2.1-.5.2-.8.2h-11.2c-.3 0-.5 0-.8-.2-.2 0-.5-.2-.6-.4-.2-.2-.3-.4-.4-.6 0-.2-.2-.5-.2-.8v-8.9-.4c0-.1 0-.3.1-.4 0-.1.1-.2.2-.3 0-.1.2-.2.2-.3 0 0 .2-.2.3-.2.1 0 .2-.1.3-.2.1 0 .2 0 .4-.1h12c.1 0 .3 0 .4.1.1 0 .2.1.3.2.1 0 .2.2.3.2 0 0 .2.2.2.3s.1.2.2.3c0 .1 0 .2.1.4v.4"/><path class="cls-31" d="M331 128.5c0-.7-.5-1.2-1.1-1.2s-1.1.5-1.1 1.2.5 1.2 1.1 1.2 1.1-.5 1.1-1.2"/><path class="cls-25" d="M331 128.5c0-.7-.5-1.2-1.1-1.2s-1.1.5-1.1 1.2.5 1.2 1.1 1.2 1.1-.5 1.1-1.2"/><path class="cls-30" d="M288 123.5h15.8v14.6H288z"/><path class="cls-25" d="M288 123.5h15.8v14.6H288z"/><path class="cls-31" d="M294.7 133.5c0-1.5-1.3-2.8-2.9-2.8s-2.9 1.2-2.9 2.8 1.3 2.8 2.9 2.8 2.9-1.2 2.9-2.8"/><path class="cls-25" d="M294.7 133.5c0-1.5-1.3-2.8-2.9-2.8s-2.9 1.2-2.9 2.8 1.3 2.8 2.9 2.8 2.9-1.2 2.9-2.8"/><path class="cls-31" d="M293 126.7c0-1.3-1-2.3-2.2-2.3s-2.2 1-2.2 2.3 1 2.3 2.2 2.3 2.2-1 2.2-2.3"/><path class="cls-25" d="M293 126.7c0-1.3-1-2.3-2.2-2.3s-2.2 1-2.2 2.3 1 2.3 2.2 2.3 2.2-1 2.2-2.3"/><path class="cls-31" d="M301.7 133.6c0-1.2-1-2.2-2.2-2.2s-2.2 1-2.2 2.2 1 2.2 2.2 2.2 2.2-1 2.2-2.2"/><path class="cls-25" d="M301.7 133.6c0-1.2-1-2.2-2.2-2.2s-2.2 1-2.2 2.2 1 2.2 2.2 2.2 2.2-1 2.2-2.2"/><path class="cls-31" d="M302.2 127.1c0-1.6-1.3-2.9-2.9-2.9s-2.9 1.3-2.9 2.9 1.3 2.9 2.9 2.9 2.9-1.3 2.9-2.9"/><path class="cls-25" d="M302.2 127.1c0-1.6-1.3-2.9-2.9-2.9s-2.9 1.3-2.9 2.9 1.3 2.9 2.9 2.9 2.9-1.3 2.9-2.9M278.9 137.4v2.2M373 139.1h17v.5h-17zM389.5 122.8h.5v16.3h-.5zM373 122.8h.7v16.3h-.7zM373 122.3h17v.5h-17zM390 139.1h17v.5h-17zM406.6 124.9h.5v14.2h-.5zM390 124.9h.5v14.2h-.5zM390 124.2h17v.7h-17zM407.5 131.7h.7v.5h-.7zM338.4 137.4v2.2"/><path class="cls-1" d="M408.2 132.1H278.4"/><path class="cls-25" d="M278.9 132.1h-.5M407 124.2h.5v15.4h-.5zM481.9 131.7H409"/><path class="cls-7" d="M481.9 132.1h-73.7"/><path class="cls-25" d="M481.9 130.2h-71.5M481.9 131.7H409M481.9 132.1h-73.7M481.9 130.2h-71.5"/><path class="cls-7" d="M481.9 131.7v.4"/><path class="cls-25" d="M481.9 130.2v1.5"/><path class="cls-31" d="M277.4 85.6h-4.3V64.5h4.3v21.1"/><path class="cls-24" d="M273.4 66.6l2.1-2.1M273.4 70.9l4.3-4.3M273.4 75l4.3-4.3M273.4 79.3l4.3-4.3M273.4 83.7l4.3-4.4M275.5 85.6l2.2-1.9"/><path class="cls-31" d="M273.1 85.6h4.3V64.5h-4.3v21.1"/><path class="cls-24" d="M273.4 66.6l2.1-2.1M273.4 70.9l4.3-4.3M273.4 75l4.3-4.3M273.4 79.3l4.3-4.3M273.4 83.7l4.3-4.4M275.5 85.6l2.2-1.9"/><path class="cls-26" d="M277.4 85.6V64.5M273.1 85.6V64.5M277.4 64.5h-4.3M273.1 85.6V64.5M277.4 85.6V64.5"/><path class="cls-31" d="M277.4 131.9h-4.3v-21.1h4.3v21.1"/><path class="cls-24" d="M273.4 113.4l2.4-2.6M273.4 117.7l4.3-4.3M273.4 121.8l4.3-4.3M273.4 126.1l4.3-4.3M273.4 130.5l4.3-4.4M276 131.9l1.7-1.7"/><path class="cls-31" d="M273.1 131.9h4.3v-21.1h-4.3v21.1"/><path class="cls-24" d="M273.4 113.4l2.4-2.6M273.4 117.7l4.3-4.3M273.4 121.8l4.3-4.3M273.4 126.1l4.3-4.3M273.4 130.5l4.3-4.4M276 131.9l1.7-1.7"/><path class="cls-26" d="M277.4 116.8v-6M277.4 131.9v-10.1M273.1 131.9v-21.1M273.1 131.9v-21.1M277.4 116.8v-6M277.4 131.9v-10.1M277.4 131.9h-4.3"/><path class="cls-1" d="M277.4 110.8V85.6M273.1 110.8V85.6"/><path class="cls-25" d="M277.4 109.3h-4.3M277.4 86.8h-4.3"/><path class="cls-26" d="M277.4 110.8h-4.3M277.4 85.6h-4.3"/><path class="cls-24" d="M300 109.4c0-12.4-10.2-22.7-22.7-22.7M277.4 109.3H300"/><path class="cls-25" d="M203.3 46.9h2.4v1.7h-2.4zM233 46.9h6v1.7h-6z"/><path class="cls-25" d="M205.7 46.9h27.4v1.7h-27.4zM205.7 46.9H233"/><path class="cls-1" d="M205.4 40.9h27.9"/><path class="cls-25" d="M232.8 40.9h.5"/><path class="cls-31" d="M203.3 40.9h2.1v6h-2.1"/><path class="cls-24" d="M205.7 41.9l-1.2-1M205.7 46l-2.2-2.2M204.5 46.9l1.2-1.2M203.5 44.1l2.2-2.2"/><path class="cls-31" d="M239 40.9h-5.7v6h5.7"/><path class="cls-24" d="M239.3 43.3l-2.7-2.4M238.6 46.9l-5.1-5.2M234.7 46.9l-1.2-1.2M236.4 46.9l2.9-2.6M233.5 46l5.1-5.1M233.5 42.1l1-1.2"/><path class="cls-26" d="M205.4 40.9v6M233.3 40.9v6M205.4 40.9v6M203.3 40.9h2.1M233.3 40.9v6M239 40.9h-5.7M203.3 48.1v-1.2M239 48.1v-1.2M203.3 40.9h2.1M239 40.9h-5.7M205.4 46.9h-2.1M233.3 46.9h5.7"/><path class="cls-24" d="M205.8 75.8c14.9 0 27.2-12.3 27.2-27.2M205.7 48.6v27.1"/><path class="cls-31" d="M246 57.3l-7 7.2h68.9l-6.9-7.2h-55"/><path class="cls-24" d="M301.2 57.5l-.2-.2M304.3 64.5l-7.2-7.2M300.2 64.5l-7.2-7.2M296.2 64.5l-7.2-7.2M292.3 64.5l-7.2-7.2M288.2 64.5l-7.2-7.2M284.2 64.5l-7.2-7.2M280.3 64.5l-7.2-7.2M276.2 64.5l-7.2-7.2M272.2 64.5l-7.2-7.2M268.1 64.5l-7.2-7.2M264.2 64.5l-7.2-7.2M260.2 64.5l-7.2-7.2M256.1 64.5l-7.2-7.2M252.2 64.5l-6.7-6.8M248.2 64.5l-4.6-4.6M244.1 64.5l-2.4-2.7M240.2 64.5l-.7-.5M307.2 64.5l.5-.5M303.1 64.5l2.7-2.4M299.3 64.5l4.3-4.6M295.2 64.5l6.5-6.5M291.1 64.5l7.2-7.2M287 64.5l7.2-7.2M283.2 64.5l7.2-7.2M279.1 64.5l7.2-7.2M275 64.5l7.2-7.2M271.2 64.5l7.2-7.2M267.1 64.5l7.2-7.2M263 64.5l7.2-7.2M259 64.5l7.2-7.2M255.1 64.5l7.2-7.2M251 64.5l7.2-7.2M247 64.5l7.2-7.2M243.1 64.5l7.2-7.2M242.9 60.6l3.3-3.3"/><path class="cls-31" d="M246 57.3l-7 7.2h68.9l-6.9-7.2h-55"/><path class="cls-24" d="M301.2 57.5l-.2-.2M304.3 64.5l-7.2-7.2M300.2 64.5l-7.2-7.2M296.2 64.5l-7.2-7.2M292.3 64.5l-7.2-7.2M288.2 64.5l-7.2-7.2M284.2 64.5l-7.2-7.2M280.3 64.5l-7.2-7.2M276.2 64.5l-7.2-7.2M272.2 64.5l-7.2-7.2M268.1 64.5l-7.2-7.2M264.2 64.5l-7.2-7.2M260.2 64.5l-7.2-7.2M256.1 64.5l-7.2-7.2M252.2 64.5l-6.7-6.8M248.2 64.5l-4.6-4.6M244.1 64.5l-2.4-2.7M240.2 64.5l-.7-.5M307.2 64.5l.5-.5M303.1 64.5l2.7-2.4M299.3 64.5l4.3-4.6M295.2 64.5l6.5-6.5M291.1 64.5l7.2-7.2M287 64.5l7.2-7.2M283.2 64.5l7.2-7.2M279.1 64.5l7.2-7.2M275 64.5l7.2-7.2M271.2 64.5l7.2-7.2M267.1 64.5l7.2-7.2M263 64.5l7.2-7.2M259 64.5l7.2-7.2M255.1 64.5l7.2-7.2M251 64.5l7.2-7.2M247 64.5l7.2-7.2M243.1 64.5l7.2-7.2M242.9 60.6l3.3-3.3"/><path class="cls-26" d="M301 57.3h-55M307.9 64.5H239M307.9 64.5H239M301 57.3h-55"/><path class="cls-31" d="M307.9 46.9l-6.9-7.2v17.6l6.9 7.2V46.9"/><path class="cls-24" d="M308.2 48.1l-7-6.9M308.2 52.2l-7-6.9M308.2 56.3l-7-7M308.2 60.1l-7-6.9M308.2 64.2l-7-6.7M307.7 64l.5-.5M305.8 62.1l2.4-2.4M303.6 59.9l4.6-4.3M301.7 58l6.5-6.5M301.2 54.6l7-6.9M301.2 50.5l5.3-5.2M301.2 46.5l3.1-3.4M301.2 42.6l1.2-1.4"/><path class="cls-31" d="M307.9 46.9l-6.9-7.2v17.6l6.9 7.2V46.9"/><path class="cls-24" d="M308.2 48.1l-7-6.9M308.2 52.2l-7-6.9M308.2 56.3l-7-7M308.2 60.1l-7-6.9M308.2 64.2l-7-6.7M307.7 64l.5-.5M305.8 62.1l2.4-2.4M303.6 59.9l4.6-4.3M301.7 58l6.5-6.5M301.2 54.6l7-6.9M301.2 50.5l5.3-5.2M301.2 46.5l3.1-3.4M301.2 42.6l1.2-1.4"/><path class="cls-26" d="M307.9 64.5V46.9M301 57.3V39.7M301 57.3V39.7M307.9 64.5V46.9"/><path class="cls-31" d="M371.8 39.7l-7.2 7.2v74.9l7.2-7.2V39.7"/><path class="cls-24" d="M372 40l-.2-.3M372 43.8l-2.2-1.9M372 47.9l-4.1-4.1M372 52l-6.2-6.3M372 55.8l-7.2-7.2M372 59.9l-7.2-7.2M372 64l-7.2-7.2M372 67.8l-7.2-7.2M372 71.9l-7.2-7.2M372 76l-7.2-7.2M372 80.1l-7.2-7.2M372 83.9l-7.2-7.2M372 88l-7.2-7.2M372 92.1l-7.2-7.2M372 95.9l-7.2-7.2M372 100l-7.2-7.2M372 104.1l-7.2-7.2M372 108.1l-7.2-7.2M372 112l-7.2-7.2M371.3 115.3l-6.5-6.4M369.1 117.3l-4.3-4.4M367.2 119.4l-2.4-2.6M365 121.3l-.2-.4M364.8 119.2l7.2-7.2M364.8 115.1l7.2-7.2M364.8 111.3l7.2-7.2M364.8 107.2l7.2-7.2M364.8 103.1l7.2-7.2M364.8 99.3l7.2-7.2M364.8 95.2L372 88M364.8 91.1l7.2-7.2M364.8 87.3l7.2-7.2M364.8 83.2L372 76M364.8 79.1l7.2-7.2M364.8 75l7.2-7.2M364.8 71.2L372 64M364.8 67.1l7.2-7.2M364.8 63l7.2-7.2M364.8 59.2L372 52M364.8 55.1l7.2-7.2M364.8 51l7.2-7.2M364.8 46.9l7.2-7.2"/><path class="cls-31" d="M371.8 39.7l-7.2 7.2v74.9l7.2-7.2V39.7"/><path class="cls-24" d="M372 40l-.2-.3M372 43.8l-2.2-1.9M372 47.9l-4.1-4.1M372 52l-6.2-6.3M372 55.8l-7.2-7.2M372 59.9l-7.2-7.2M372 64l-7.2-7.2M372 67.8l-7.2-7.2M372 71.9l-7.2-7.2M372 76l-7.2-7.2M372 80.1l-7.2-7.2M372 83.9l-7.2-7.2M372 88l-7.2-7.2M372 92.1l-7.2-7.2M372 95.9l-7.2-7.2M372 100l-7.2-7.2M372 104.1l-7.2-7.2M372 108.1l-7.2-7.2M372 112l-7.2-7.2M371.3 115.3l-6.5-6.4M369.1 117.3l-4.3-4.4M367.2 119.4l-2.4-2.6M365 121.3l-.2-.4M364.8 119.2l7.2-7.2M364.8 115.1l7.2-7.2M364.8 111.3l7.2-7.2M364.8 107.2l7.2-7.2M364.8 103.1l7.2-7.2M364.8 99.3l7.2-7.2M364.8 95.2L372 88M364.8 91.1l7.2-7.2M364.8 87.3l7.2-7.2M364.8 83.2L372 76M364.8 79.1l7.2-7.2M364.8 75l7.2-7.2M364.8 71.2L372 64M364.8 67.1l7.2-7.2M364.8 63l7.2-7.2M364.8 59.2L372 52M364.8 55.1l7.2-7.2M364.8 51l7.2-7.2M364.8 46.9l7.2-7.2"/><path class="cls-26" d="M371.8 114.6V39.7M364.6 121.8V46.9M364.6 121.8V46.9M371.8 114.6V39.7"/><path class="cls-31" d="M301 39.7l6.9 7.2h56.7l7.2-7.2H301"/><path class="cls-24" d="M369.8 41.9l-2.1-2.2M367.9 43.8l-4.1-4.1M365.8 45.7l-6-6M362.9 46.9l-7.2-7.2M358.8 46.9l-7.2-7.2M355 46.9l-7.2-7.2M350.9 46.9l-7.2-7.2M346.8 46.9l-7.2-7.2M343 46.9l-7.2-7.2M338.9 46.9l-7.2-7.2M334.8 46.9l-7.2-7.2M330.7 46.9l-7.2-7.2M326.9 46.9l-7.2-7.2M322.8 46.9l-7.2-7.2M318.7 46.9l-7.2-7.2M314.9 46.9l-7.2-7.2M310.8 46.9l-7.2-7.2M360.7 46.9l7.2-7.2M356.9 46.9l7.2-7.2M352.8 46.9l7.2-7.2M348.7 46.9l7.2-7.2M344.6 46.9l7.2-7.2M340.8 46.9l7.2-7.2M336.7 46.9l7.2-7.2M332.6 46.9l7.2-7.2M328.8 46.9l7.2-7.2M324.7 46.9l7.2-7.2M320.6 46.9l7.2-7.2M316.8 46.9l7.2-7.2M312.7 46.9l7.2-7.2M308.6 46.9l7.2-7.2M306.5 45.3l5.3-5.6M304.3 43.1l3.6-3.4M302.4 41.2l1.4-1.5"/><path class="cls-31" d="M301 39.7l6.9 7.2h56.7l7.2-7.2H301"/><path class="cls-24" d="M369.8 41.9l-2.1-2.2M367.9 43.8l-4.1-4.1M365.8 45.7l-6-6M362.9 46.9l-7.2-7.2M358.8 46.9l-7.2-7.2M355 46.9l-7.2-7.2M350.9 46.9l-7.2-7.2M346.8 46.9l-7.2-7.2M343 46.9l-7.2-7.2M338.9 46.9l-7.2-7.2M334.8 46.9l-7.2-7.2M330.7 46.9l-7.2-7.2M326.9 46.9l-7.2-7.2M322.8 46.9l-7.2-7.2M318.7 46.9l-7.2-7.2M314.9 46.9l-7.2-7.2M310.8 46.9l-7.2-7.2M360.7 46.9l7.2-7.2M356.9 46.9l7.2-7.2M352.8 46.9l7.2-7.2M348.7 46.9l7.2-7.2M344.6 46.9l7.2-7.2M340.8 46.9l7.2-7.2M336.7 46.9l7.2-7.2M332.6 46.9l7.2-7.2M328.8 46.9l7.2-7.2M324.7 46.9l7.2-7.2M320.6 46.9l7.2-7.2M316.8 46.9l7.2-7.2M312.7 46.9l7.2-7.2M308.6 46.9l7.2-7.2M306.5 45.3l5.3-5.6M304.3 43.1l3.6-3.4M302.4 41.2l1.4-1.5"/><path class="cls-26" d="M371.8 39.7H301M364.6 46.9h-56.7M364.6 46.9h-56.7M371.8 39.7H301"/><path class="cls-31" d="M371.8 114.6l-7.2 7.2h117.3l7.2-7.2H371.8"/><path class="cls-24" d="M487.9 115.8l-1.2-1.2M486 118l-3.4-3.4M484.1 119.9l-5.3-5.3M481.9 121.8l-7.2-7.2M477.8 121.8l-7.2-7.2M473.8 121.8l-7.2-7.2M469.9 121.8l-7.2-7.2M465.8 121.8l-7.2-7.2M461.8 121.8l-7.2-7.2M457.9 121.8l-7.2-7.2M453.8 121.8l-7.2-7.2M449.8 121.8l-7.2-7.2M445.9 121.8l-7.2-7.2M441.8 121.8l-7.2-7.2M437.8 121.8l-7.2-7.2M433.7 121.8l-7.2-7.2M429.8 121.8l-7.2-7.2M425.8 121.8l-7.2-7.2M421.7 121.8l-7.2-7.2M417.8 121.8l-7.2-7.2M413.8 121.8l-7.2-7.2M409.7 121.8l-7.2-7.2M405.6 121.8l-7.2-7.2M401.8 121.8l-7.2-7.2M397.7 121.8l-7.2-7.2M393.6 121.8l-7.2-7.2M389.8 121.8l-7.2-7.2M385.7 121.8l-7.2-7.2M381.6 121.8l-7.2-7.2M377.8 121.8l-6.5-6.5M373.7 121.8l-4.6-4.5M369.6 121.8l-2.4-2.4M365.5 121.8l-.5-.5M478.3 121.8l7.2-7.2M474.2 121.8l7.2-7.2M470.4 121.8l7.2-7.2M466.3 121.8l7.2-7.2M462.2 121.8l7.2-7.2M458.4 121.8l7.2-7.2M454.3 121.8l7.2-7.2M450.2 121.8l7.2-7.2M446.2 121.8l7.2-7.2M442.3 121.8l7.2-7.2M438.2 121.8l7.2-7.2M434.2 121.8l7.2-7.2M430.3 121.8l7.2-7.2M426.2 121.8l7.2-7.2M422.2 121.8l7.2-7.2M418.1 121.8l7.2-7.2M414.2 121.8l7.2-7.2M410.2 121.8l7.2-7.2M406.1 121.8l7.2-7.2M402.2 121.8l7.2-7.2M398.2 121.8l7.2-7.2M394.1 121.8l7.2-7.2M390.2 121.8l7.2-7.2M386.2 121.8l7.2-7.2M382.1 121.8l7.2-7.2M378 121.8l7.2-7.2M374.2 121.8l7.2-7.2M370.1 121.8l7.2-7.2M366 121.8l7.2-7.2"/><path class="cls-31" d="M371.8 114.6l-7.2 7.2h117.3l7.2-7.2H371.8"/><path class="cls-24" d="M487.9 115.8l-1.2-1.2M486 118l-3.4-3.4M484.1 119.9l-5.3-5.3M481.9 121.8l-7.2-7.2M477.8 121.8l-7.2-7.2M473.8 121.8l-7.2-7.2M469.9 121.8l-7.2-7.2M465.8 121.8l-7.2-7.2M461.8 121.8l-7.2-7.2M457.9 121.8l-7.2-7.2M453.8 121.8l-7.2-7.2M449.8 121.8l-7.2-7.2M445.9 121.8l-7.2-7.2M441.8 121.8l-7.2-7.2M437.8 121.8l-7.2-7.2M433.7 121.8l-7.2-7.2M429.8 121.8l-7.2-7.2M425.8 121.8l-7.2-7.2M421.7 121.8l-7.2-7.2M417.8 121.8l-7.2-7.2M413.8 121.8l-7.2-7.2M409.7 121.8l-7.2-7.2M405.6 121.8l-7.2-7.2M401.8 121.8l-7.2-7.2M397.7 121.8l-7.2-7.2M393.6 121.8l-7.2-7.2M389.8 121.8l-7.2-7.2M385.7 121.8l-7.2-7.2M381.6 121.8l-7.2-7.2M377.8 121.8l-6.5-6.5M373.7 121.8l-4.6-4.5M369.6 121.8l-2.4-2.4M365.5 121.8l-.5-.5M478.3 121.8l7.2-7.2M474.2 121.8l7.2-7.2M470.4 121.8l7.2-7.2M466.3 121.8l7.2-7.2M462.2 121.8l7.2-7.2M458.4 121.8l7.2-7.2M454.3 121.8l7.2-7.2M450.2 121.8l7.2-7.2M446.2 121.8l7.2-7.2M442.3 121.8l7.2-7.2M438.2 121.8l7.2-7.2M434.2 121.8l7.2-7.2M430.3 121.8l7.2-7.2M426.2 121.8l7.2-7.2M422.2 121.8l7.2-7.2M418.1 121.8l7.2-7.2M414.2 121.8l7.2-7.2M410.2 121.8l7.2-7.2M406.1 121.8l7.2-7.2M402.2 121.8l7.2-7.2M398.2 121.8l7.2-7.2M394.1 121.8l7.2-7.2M390.2 121.8l7.2-7.2M386.2 121.8l7.2-7.2M382.1 121.8l7.2-7.2M378 121.8l7.2-7.2M374.2 121.8l7.2-7.2M370.1 121.8l7.2-7.2M366 121.8l7.2-7.2"/><path class="cls-26" d="M489.1 114.6H371.8M481.9 121.8H364.6M481.9 121.8H364.6M489.1 114.6H371.8"/><path class="cls-31" d="M489.1 133.1l-7.2 7.2h128.2l-.3-7.2H489.1"/><path class="cls-24" d="M610.1 133.6l-.7-.5M610.1 137.9l-4.6-4.8M608.6 140.3l-7.2-7.2M604.6 140.3l-7.2-7.2M600.5 140.3l-7.2-7.2M596.6 140.3l-7.2-7.2M592.6 140.3l-7.2-7.2M588.5 140.3l-7.2-7.2M584.6 140.3l-7.2-7.2M580.6 140.3l-7.2-7.2M576.5 140.3l-7.2-7.2M572.6 140.3l-7.2-7.2M568.6 140.3l-7.2-7.2M564.5 140.3l-7.2-7.2M560.4 140.3l-7.2-7.2M556.6 140.3l-7.2-7.2M552.5 140.3l-7.2-7.2M548.4 140.3l-7.2-7.2M544.6 140.3l-7.2-7.2M540.5 140.3l-7.2-7.2M536.4 140.3l-7.2-7.2M532.3 140.3l-7.2-7.2M528.5 140.3l-7.2-7.2M524.4 140.3l-7.2-7.2M520.3 140.3l-7.2-7.2M516.5 140.3l-7.2-7.2M512.4 140.3l-7.2-7.2M508.3 140.3l-7.2-7.2M504.5 140.3l-7.2-7.2M500.4 140.3l-7.2-7.2M496.3 140.3l-7.2-7.2M492.2 140.3l-5-5M488.4 140.3l-3.1-3.1M484.3 140.3l-1.2-1.2M608.2 140.3l1.9-1.9M604.1 140.3l6-5.8M600.2 140.3l7.2-7.2M596.2 140.3l7.2-7.2M592.1 140.3l7.2-7.2M588.2 140.3l7.2-7.2M584.2 140.3l7.2-7.2M580.1 140.3l7.2-7.2M576 140.3l7.2-7.2M572.2 140.3l7.2-7.2M568.1 140.3l7.2-7.2M564 140.3l7.2-7.2M560.2 140.3l7.2-7.2M556.1 140.3l7.2-7.2M552 140.3l7.2-7.2M547.9 140.3l7.2-7.2M544.1 140.3l7.2-7.2M540 140.3l7.2-7.2M535.9 140.3l7.2-7.2M532.1 140.3l7.2-7.2M528 140.3l7.2-7.2M523.9 140.3l7.2-7.2M520.1 140.3l7.2-7.2M516 140.3l7.2-7.2M511.9 140.3l7.2-7.2M507.8 140.3l7.2-7.2M504 140.3l7.2-7.2M499.9 140.3l7.2-7.2M495.8 140.3l7.2-7.2M492 140.3l7.2-7.2M487.9 140.3l7.2-7.2M483.8 140.3l7.2-7.2"/><path class="cls-31" d="M489.1 133.1l-7.2 7.2h128.2l-.3-7.2H489.1"/><path class="cls-24" d="M610.1 133.6l-.7-.5M610.1 137.9l-4.6-4.8M608.6 140.3l-7.2-7.2M604.6 140.3l-7.2-7.2M600.5 140.3l-7.2-7.2M596.6 140.3l-7.2-7.2M592.6 140.3l-7.2-7.2M588.5 140.3l-7.2-7.2M584.6 140.3l-7.2-7.2M580.6 140.3l-7.2-7.2M576.5 140.3l-7.2-7.2M572.6 140.3l-7.2-7.2M568.6 140.3l-7.2-7.2M564.5 140.3l-7.2-7.2M560.4 140.3l-7.2-7.2M556.6 140.3l-7.2-7.2M552.5 140.3l-7.2-7.2M548.4 140.3l-7.2-7.2M544.6 140.3l-7.2-7.2M540.5 140.3l-7.2-7.2M536.4 140.3l-7.2-7.2M532.3 140.3l-7.2-7.2M528.5 140.3l-7.2-7.2M524.4 140.3l-7.2-7.2M520.3 140.3l-7.2-7.2M516.5 140.3l-7.2-7.2M512.4 140.3l-7.2-7.2M508.3 140.3l-7.2-7.2M504.5 140.3l-7.2-7.2M500.4 140.3l-7.2-7.2M496.3 140.3l-7.2-7.2M492.2 140.3l-5-5M488.4 140.3l-3.1-3.1M484.3 140.3l-1.2-1.2M608.2 140.3l1.9-1.9M604.1 140.3l6-5.8M600.2 140.3l7.2-7.2M596.2 140.3l7.2-7.2M592.1 140.3l7.2-7.2M588.2 140.3l7.2-7.2M584.2 140.3l7.2-7.2M580.1 140.3l7.2-7.2M576 140.3l7.2-7.2M572.2 140.3l7.2-7.2M568.1 140.3l7.2-7.2M564 140.3l7.2-7.2M560.2 140.3l7.2-7.2M556.1 140.3l7.2-7.2M552 140.3l7.2-7.2M547.9 140.3l7.2-7.2M544.1 140.3l7.2-7.2M540 140.3l7.2-7.2M535.9 140.3l7.2-7.2M532.1 140.3l7.2-7.2M528 140.3l7.2-7.2M523.9 140.3l7.2-7.2M520.1 140.3l7.2-7.2M516 140.3l7.2-7.2M511.9 140.3l7.2-7.2M507.8 140.3l7.2-7.2M504 140.3l7.2-7.2M499.9 140.3l7.2-7.2M495.8 140.3l7.2-7.2M492 140.3l7.2-7.2M487.9 140.3l7.2-7.2M483.8 140.3l7.2-7.2"/><path class="cls-26" d="M609.8 133.1H489.1M610.1 140.3H486.2M610.1 140.3H486.2M609.8 133.1H489.1M609.8 133.1l.3 7.2M486.2 140.3h-4.3"/><path class="cls-31" d="M481.9 140.3l7.2-7.2v-18.5l-7.2 7.2v18.5"/><path class="cls-24" d="M489.4 117.3l-1.5-1.5M489.4 121.1L486 118M489.4 125.2l-5.3-5.3M489.4 129.3l-7.2-7.2M489.1 133.1l-6.9-7.2M487.2 135.3l-5-5.3M485.3 137.2l-3.1-3.1M483.1 139.1l-.9-1.2M482.2 138.1l7.2-7.2M482.2 134.1l7.2-7.2M482.2 130.2l7.2-7.2M482.2 126.1l7.2-7.2M482.2 122.1l7.2-7.2"/><path class="cls-31" d="M481.9 140.3l7.2-7.2v-18.5l-7.2 7.2v18.5"/><path class="cls-24" d="M489.4 117.3l-1.5-1.5M489.4 121.1L486 118M489.4 125.2l-5.3-5.3M489.4 129.3l-7.2-7.2M489.1 133.1l-6.9-7.2M487.2 135.3l-5-5.3M485.3 137.2l-3.1-3.1M483.1 139.1l-.9-1.2M482.2 138.1l7.2-7.2M482.2 134.1l7.2-7.2M482.2 130.2l7.2-7.2M482.2 126.1l7.2-7.2M482.2 122.1l7.2-7.2"/><path class="cls-26" d="M481.9 121.8v18.5M489.1 114.6v18.5M489.1 114.6v18.5M481.9 121.8v18.5"/><path class="cls-30" d="M392.6 122.3h10.1v2.6h-10.1z"/><path class="cls-25" d="M392.6 122.3h10.1v2.6h-10.1zM392.4 124.9z"/><path class="cls-27" d="M402 124.9v8.7"/><path class="cls-3" d="M402 133.6l-1.7-.3-1.7-.4-1.4-.8-1.2-1.2-1.2-1.2-.7-1.4-.5-1.7-.2-1.7"/><path class="cls-31" d="M486.2 140.3h-4.3v21.6h4.3v-21.6"/><path class="cls-24" d="M482.2 142.5l2.1-2.2M482.2 146.8l4.3-4.3M482.2 151.1l4.3-4.3M482.2 155.4l4.3-4.3M482.2 159.5l4.3-4.3M484.1 161.9l2.4-2.4"/><path class="cls-31" d="M486.2 140.3h-4.3v21.6h4.3v-21.6"/><path class="cls-24" d="M482.2 142.5l2.1-2.2M482.2 146.8l4.3-4.3M482.2 151.1l4.3-4.3M482.2 155.4l4.3-4.3M482.2 159.5l4.3-4.3M484.1 161.9l2.4-2.4"/><path class="cls-26" d="M486.2 161.9v-21.6M481.9 161.9v-21.6M481.9 161.9v-21.6M486.2 161.9v-21.6"/><path class="cls-31" d="M486.2 225.3h-4.3v-21.2h4.3v21.2"/><path class="cls-24" d="M482.2 206.3l2.1-2.2M482.2 210.6l4.3-4.3M482.2 214.9l4.3-4.3M482.2 219l4.3-4.3M482.2 223.3l4.3-4.3M484.3 225.3l2.2-2"/><path class="cls-31" d="M481.9 225.3h4.3v-21.2h-4.3v21.2"/><path class="cls-24" d="M482.2 206.3l2.1-2.2M482.2 210.6l4.3-4.3M482.2 214.9l4.3-4.3M482.2 219l4.3-4.3M482.2 223.3l4.3-4.3M484.3 225.3l2.2-2"/><path class="cls-26" d="M486.2 225.3v-21.2M481.9 225.3v-21.2M481.9 225.3v-21.2M486.2 225.3v-21.2M486.2 225.3h-4.3M481.9 140.3h4.3"/><path class="cls-1" d="M486.2 204.1v-42.2"/><path class="cls-25" d="M486.2 162.4v-.5"/><path class="cls-1" d="M481.9 204.1v-42.2"/><path class="cls-25" d="M481.9 162.4v-.5M486.2 202.9h-4.3M486.2 163.1h-4.3"/><path class="cls-26" d="M486.2 204.1h-4.3M486.2 161.9h-4.3"/><path class="cls-24" d="M506.1 202.8c0-10.9-9-19.8-19.8-19.8M486.3 183c10.9 0 19.8-9 19.8-19.8M486.2 202.9h20M486.2 163.1h20"/><path class="cls-25" d="M619.7 133.6l40.8 6.2 2.1 80.9-40.8 8.4"/><path class="cls-25" d="M619.7 131.7l42.5 6.7 2.1 83.7-42.5 8.7"/><path class="cls-24" d="M617.5 211.1l-1.4-59.3h-3.6l1.7 59.3h3.3zM552.6 230.6v-1.9c0-.6-.2-1.2-.3-1.8-.1-.6-.3-1.2-.5-1.8l-.6-1.8c-.2-.6-.5-1.1-.8-1.7-.3-.5-.6-1.1-1-1.6-.3-.5-.7-1-1.1-1.5-.4-.5-.8-.9-1.3-1.4s-.9-.9-1.4-1.3c-.5-.4-1-.8-1.5-1.1-.5-.3-1.1-.7-1.6-1-.5-.3-1.1-.6-1.7-.8l-1.8-.6c-.6-.2-1.2-.3-1.8-.5l-1.8-.3h-1.9M533.5 211.6v18.9M552.5 230.5l.2-1.4M553 227.7v-.8M553 226.9l.2-.7"/><path class="cls-17" d="M553.4 225l.5-1.7"/><path class="cls-24" d="M554.6 222.1l.3-.4M554.9 221.7l.5-.8M556.1 219.7l.7-1.2"/><path class="cls-20" d="M556.8 218.5l1.4-1.4"/><path class="cls-24" d="M558.2 217.1l.5-.5"/><path class="cls-5" d="M559.4 215.9l1.7-1.2"/><path class="cls-24" d="M562.1 214l.5-.3M562.6 213.7l.7-.2"/><path class="cls-18" d="M564.2 213l1.7-.7"/><path class="cls-24" d="M567.4 212.1l.4-.3M567.8 211.8h1M570.2 211.6h1.2"/><path class="cls-6" d="M571.4 211.6v18.9"/><path class="cls-24" d="M571.4 230.1v.4M456.8 230.4v-1.9c0-.7.2-1.2.3-1.8.1-.6.3-1.2.5-1.8l.6-1.8c.2-.6.5-1.1.8-1.7.3-.5.6-1.1 1-1.6.3-.5.7-1 1.1-1.5.4-.5.8-.9 1.3-1.4.4-.4.9-.9 1.4-1.3.5-.4 1-.8 1.5-1.1.5-.3 1.1-.7 1.6-1 .5-.3 1.1-.6 1.7-.8l1.8-.6c.6-.2 1.2-.3 1.8-.5l1.8-.3h1.9M475.7 211.3v19M456.7 230.3v-1.4M456.5 227.4v-.7M456.5 226.7l-.3-.7"/><path class="cls-17" d="M456 224.8l-.7-1.7"/><path class="cls-24" d="M454.8 221.9l-.2-.5M454.6 221.4l-.5-.7"/><path class="cls-18" d="M453.6 219.7l-1.2-1.4"/><path class="cls-24" d="M451.4 217.1l-.2-.2M451.2 216.9l-1-.8M449.3 215.2l-1-.7"/><path class="cls-28" d="M448.3 214.5l-1.7-1"/><path class="cls-24" d="M446.6 213.5l-.9-.5M444.2 212.5l-.9-.2M443.3 212.3l-.5-.2"/><path class="cls-17" d="M441.6 211.8l-1.9-.5"/><path class="cls-24" d="M438.5 211.3h-.7"/><path class="cls-6" d="M437.8 211.3v19"/><path class="cls-24" d="M437.8 229.8v.5M360.9 230.5v-1.9c0-.6-.2-1.2-.3-1.8-.1-.6-.3-1.2-.5-1.8l-.6-1.8c-.2-.6-.5-1.1-.8-1.7-.3-.5-.6-1.1-1-1.6-.3-.5-.7-1-1.1-1.5-.4-.5-.8-.9-1.3-1.4-.4-.4-.9-.9-1.4-1.3-.5-.4-1-.8-1.5-1.1-.5-.3-1-.7-1.6-1-.5-.3-1.1-.6-1.7-.8l-1.8-.6c-.6-.2-1.2-.3-1.8-.5l-1.8-.3h-1.9M342 211.3v19.2M361 230.5v-1.4M361 227.7l.2-1M361.2 226.7l.2-.5"/><path class="cls-17" d="M361.7 225l.7-1.9"/><path class="cls-24" d="M362.6 222.4l.5-1M363.1 221.4l.3-.2"/><path class="cls-13" d="M364.1 220l1.2-1.7"/><path class="cls-24" d="M366 217.6l.5-.5M366.5 217.1l.5-.5"/><path class="cls-9" d="M367.9 215.7l1.5-1"/><path class="cls-24" d="M370.3 214.2l.7-.5M371 213.7l.5-.2"/><path class="cls-23" d="M372.7 213l1.7-.7"/><path class="cls-24" d="M375.6 212.1l.7-.3M376.3 211.8h.7"/><path class="cls-16" d="M378 211.6l1.9-.3"/><path class="cls-6" d="M379.9 211.3v19.2"/><path class="cls-24" d="M379.9 230.1v.4M611.3 191.5c-11 .3-19.9 9.6-19.6 20.6M591.6 212.1l20.2-.5"/><path class="cls-6" d="M611.3 191.4l-3.9-.2-3.8-1-3.6-1.9-3.1-2.4-2.7-2.9-1.9-3.6-1.2-3.6-.5-3.8"/><path class="cls-21" d="M590.6 172l20.2-.7"/><path class="cls-24" d="M257.8 230.5v-1.9c0-.6-.2-1.2-.3-1.8s-.3-1.2-.5-1.8l-.6-1.8c-.2-.6-.5-1.1-.8-1.7-.3-.5-.6-1.1-1-1.6-.3-.5-.7-1-1.1-1.5-.4-.5-.8-.9-1.3-1.4s-.9-.9-1.4-1.3c-.5-.4-1-.8-1.5-1.1-.5-.3-1-.7-1.6-1-.5-.3-1.1-.6-1.7-.8l-1.8-.6c-.6-.2-1.2-.3-1.8-.5l-1.8-.3h-1.9M238.8 211.6v18.9M257.8 230.5l.2-1.4M258 227.7l.2-1M258.2 226.7l.3-.5"/><path class="cls-17" d="M258.7 225l.5-1.9"/><path class="cls-24" d="M259.7 222.1l.5-.7M260.2 221.4l.2-.5"/><path class="cls-19" d="M261.1 220l1-1.5"/><path class="cls-24" d="M263 217.3l.3-.2M263.3 217.1l.9-.7M265.2 215.4l1-.7"/><path class="cls-28" d="M266.2 214.7l1.6-1"/><path class="cls-24" d="M267.8 213.7l1-.4M270.2 212.8l1-.5"/><path class="cls-15" d="M271.2 212.3l1.9-.5"/><path class="cls-24" d="M273.1 211.8l1.2-.2M275.8 211.6h.9"/><path class="cls-6" d="M276.7 211.6v18.9"/><path class="cls-24" d="M276.7 230.1v.4M154.6 230.5v-1.9c0-.6-.2-1.2-.3-1.8s-.3-1.2-.5-1.8l-.6-1.8c-.2-.6-.5-1.1-.8-1.7-.3-.5-.6-1.1-1-1.6-.3-.5-.7-1-1.1-1.5-.4-.5-.8-.9-1.3-1.4-.4-.4-.9-.9-1.4-1.3-.5-.4-1-.8-1.5-1.1-.5-.3-1-.7-1.6-1-.5-.3-1.1-.6-1.7-.8l-1.8-.6c-.6-.2-1.2-.3-1.8-.5l-1.8-.3h-1.9M135.6 211.6v18.9M154.6 230.5l.2-1.4M154.8 227.7l.2-1M155 226.7l.3-.5"/><path class="cls-17" d="M155.5 225l.5-1.9"/><path class="cls-24" d="M156.5 222.1l.5-.7M157 221.4l.2-.5"/><path class="cls-19" d="M157.9 220l1-1.5"/><path class="cls-24" d="M159.8 217.3l.3-.2M160.1 217.1l.9-.7M162 215.4l1-.7"/><path class="cls-28" d="M163 214.7l1.6-1"/><path class="cls-24" d="M164.6 213.7l1-.4M167 212.8l1-.5"/><path class="cls-15" d="M168 212.3l1.9-.5"/><path class="cls-24" d="M169.9 211.8l1.2-.2M172.6 211.6h.9"/><path class="cls-6" d="M173.5 211.6v18.9"/><path class="cls-24" d="M173.5 230.1v.4"/><path class="cls-25" d="M246.2 91.8v1M246.2 92.8l-.2.7M246 93.5l-.2.7M245.8 94.2v.5M245 95.9v.2M244.1 97.3l-.5.5M243.6 97.8l-.5.7M243.1 98.5l-.7.5M242.4 99l-.5.3M240.7 99.7l-.2.3M239 100.2h-.4M238.6 100.2l-1 .3M237.6 100.5l-.7-.3M236.9 100.2h-.5M235 100l-.3-.3M233.3 99.3l-.3-.3M233 99l-.7-.5M232.3 98.5l-.7-.7M231.6 97.8l-.5-.5M230.4 96.1l-.2-.2M229.7 94.7l-.3-.5M229.4 94.2v-.7M229.4 93.5l-.2-.7M229.2 92.8v-1M229.2 90.6l.2-.5M229.7 88.9l.2-.2M229.9 88.7l.3-1M230.2 87.7l.4-.7M230.6 87l.5-.5M232.1 85.3h.2M233.5 84.4h.3M233.8 84.4l.7-.5M234.5 83.9l.7-.2M235.2 83.7l.7-.3M235.9 83.4h.3M237.6 83.4h.2M239.3 83.4l.9.3M240.2 83.7l.8.2M241 83.9l.7.5M241.7 84.4h.2M243.1 85.3l.3.3M244.3 86.5l.5.5M244.8 87l.5.7M245.3 87.7l.2 1M245.5 88.7l.3.2M246 90.4v.2"/></g><g id="Mbel"><path class="cls-2" d="M113.3 117.3h56.6v15.6h-56.6zM113.3 149.9h56.6v45.4h-56.6zM204 185.7h7.7V197H204zM211.7 168.6h19.7V214h-19.7zM283.7 179.9h51.1v22.6h-51.1zM285.1 170h12.8M285.1 178.5V170M297.9 170v8.5M302.8 170h12.8M302.8 178.5V170M315.6 170v8.5M320.6 170h12.7M320.6 178.5V170M333.3 170v8.5M285.1 212.5h12.8M285.1 204v8.5M297.9 212.5V204M302.8 212.5h12.8M302.8 204v8.5M315.6 212.5V204M320.6 212.5h12.7M320.6 204v8.5M333.3 212.5V204M487.7 141.5h51.1v15.6h-51.1zM403.7 178.1c-2.3 3.2-4.4 6.7-6.2 10.2-.4.9-.3 1.9.3 2.6 2.1 2.5 4.8 4.3 7.8 5.3.9.3 1.9 0 2.5-.7 2.6-3 5.1-6.2 7.2-9.6-.5-.6-1-1.1-1.5-1.5-2.6-2-5.4-3.8-8.1-5.5-.6-.4-1.2-.7-1.9-.9h-.1"/><path class="cls-2" d="M402.7 178.7c-.3 0-.7.1-1 .3-1.3.7-2.5 1.8-3.3 3.1-1.1 1.7-2 3.6-2.8 5.5-.6 1.4-.9 2.8-1.1 4.2 0 .8.2 1.7.7 2.3 2.3 2.5 5.1 4.4 8.3 5.7.8.3 1.7.2 2.4-.2 1.3-.7 2.5-1.6 3.5-2.6 1.5-1.4 2.8-3 4-4.6.9-1.2 1.5-2.7 1.7-4.2v-1M571.2 161.4h11.5v7.7h-11.5zM554.4 141.5h45.4v19.9h-45.4zM516.1 200.1c-2.3 3.2-4.4 6.7-6.2 10.2-.4.9-.3 1.9.3 2.6 2.1 2.5 4.8 4.3 7.8 5.3.9.3 1.9 0 2.5-.7 2.6-3 5.1-6.2 7.2-9.6-.5-.6-1-1.1-1.5-1.5-2.6-2-5.4-3.8-8.1-5.5-.6-.4-1.2-.7-1.9-.9h-.1"/><path class="cls-2" d="M515.2 200.7c-.3 0-.7.1-1 .3-1.3.7-2.5 1.8-3.3 3.1-1.1 1.7-2 3.6-2.8 5.5-.6 1.4-.9 2.8-1.1 4.2-.1.8.2 1.7.7 2.3 2.3 2.5 5.1 4.4 8.3 5.7.8.3 1.7.2 2.4-.1 1.3-.7 2.5-1.6 3.5-2.6 1.5-1.4 2.8-3 4.1-4.6.9-1.2 1.5-2.7 1.6-4.2v-1M386.2 213.3h45.4v10.8h-45.4zM431 169.1h28.3v14.2H431zM471.8 138.2v19.2l-.1.1-.1.1h-.1-.2H446.2h-.2-.2-.1l-.1-.1-.1-.1v-.1-.2-18.9h26.6"/><path class="cls-2" d="M476.3 134.5v22.9l-.1.1-.1.1h-.1-.2-3-.2-.2-.1l-.1-.1-.1-.1v-.1-.2V134.5v-.3c0-.1.1-.2.2-.3 0 0 .2-.1.3-.2H476c.1 0 .2.1.3.2 0 0 .1.2.2.3v.3M445.2 138.2v-3.7-.3c0-.1-.1-.2-.2-.3 0 0-.2-.1-.3-.2h-25.5c-.1 0-.2.1-.3.2 0 0-.1.2-.2.3v4M418.6 140.5h53.2"/><path class="cls-2" d="M418.5 138.2v19.2l.1.1.1.1h25.9l.1-.1.1-.1v-.1-.2-18.9h-26.6M414 134.5v22.9l.1.1.1.1H418l.1-.1.1-.1v-.1-.2V134.5v-.3c0-.1-.1-.2-.2-.3 0 0-.2-.1-.3-.2H414.3c-.1 0-.2.1-.3.2 0 0-.1.2-.2.3v.3M445.2 138.2v-3.7-.3c0-.1.1-.2.2-.3 0 0 .2-.1.3-.2h25.5c.1 0 .2.1.3.2 0 0 .1.2.2.3v4"/></g><g id="Text"><path d="M631.9 175.6c1.1 0 1.7.5 1.7 1.4s-.1.6-.3.9c-.1.2-.3.2-.5.3.3 0 .4.1.6.2.3.2.4.6.4 1s-.2.9-.6 1.2c-.3.2-.7.3-1.3.3h-1.5v-5.3h1.5zm-.8 2.4h.7c.4 0 .7 0 .9-.2.2-.2.3-.4.3-.7s-.2-.6-.4-.8c-.2 0-.4-.1-.9-.1h-.6v1.8zm0 2.4h.7c.6 0 .8 0 1-.2.3-.1.4-.4.4-.8 0-.6-.4-.9-1.2-.9h-.8v1.8zM637.8 177.3h.6v3.7h-.6v-.7c-.4.6-.8.8-1.3.8-1 0-1.7-.8-1.7-1.9s.7-1.9 1.8-1.9 1 .2 1.3.7v-.6zm-2.1.9c-.2.3-.3.6-.3 1 0 .8.5 1.4 1.2 1.4s1.3-.6 1.3-1.4-.5-1.4-1.2-1.4-.7.1-.9.4zM639.8 181v-5.3h.6v5.3h-.6zM642.3 181h-.6v-5.3h.6v3.3l1.5-1.6h.8l-1.6 1.8 1.6 1.9h-.8l-1.5-1.6v1.6zM648.8 179.1c0 1.1-.8 1.9-1.9 1.9s-1.9-.8-1.9-1.9.8-1.9 1.9-1.9 1.9.8 1.9 1.9zm-3.1 0c0 .8.5 1.4 1.3 1.4s1.2-.6 1.2-1.4-.5-1.4-1.2-1.4-1.3.6-1.3 1.4zM650.5 177.3v.5c.3-.4.6-.6 1.1-.6s.6.1.9.3c.2.2.3.5.3 1v2.5h-.6v-2.4c0-.3 0-.5-.1-.6-.1-.2-.3-.2-.6-.2s-.5.1-.7.3c-.2.2-.2.4-.2.7v2.2h-.6v-3.7h.6zM632.7 185.2H631v1.4c.3-.1.5-.2.8-.2.9 0 1.6.7 1.6 1.7s-.8 1.8-1.8 1.8-1.3-.4-1.6-1.1l.6-.2c.1.2.2.3.3.4.2.2.5.3.8.3.6 0 1.1-.5 1.1-1.2s-.5-1.1-1.2-1.1-.8.2-1.2.5v-3h2.3v.6zM635.3 189.6c0 .2-.2.4-.4.4s-.4-.2-.4-.4.2-.4.4-.4.4.2.4.4zM639.6 188.4c0 .6-.1 1-.4 1.2-.3.3-.7.4-1.2.4s-1-.2-1.2-.5c-.3-.3-.4-.6-.4-1.4v-1.8c0-.7 0-1 .3-1.3.3-.3.7-.5 1.2-.5s.9.1 1.2.4c.3.3.4.6.4 1.2v2.1zm-2.5-.1c0 .6 0 .7.2.9.2.2.5.3.8.3s.6-.1.8-.4c.1-.2.2-.4.2-.8v-2c0-.4 0-.6-.3-.8-.2-.2-.4-.2-.7-.2s-.6.1-.8.4c-.1.2-.2.4-.2.8v1.8zM642.9 186.3v.5c.3-.4.6-.6 1-.6s.8.2 1 .7c.3-.5.6-.7 1.2-.7s.7.1.9.4c.2.2.2.4.2 1v2.4h-.6v-2.2c0-.4 0-.6-.1-.7-.1-.2-.4-.3-.6-.3-.5 0-.8.4-.8 1v2.2h-.6v-2.2c0-.4 0-.5-.1-.7-.1-.2-.3-.3-.6-.3-.5 0-.9.4-.9 1v2.2h-.6v-3.7h.6zM650.5 187.5v.4h-2l1.2-1.6c.3-.5.4-.6.4-.8 0-.3-.2-.4-.5-.4s-.5.2-.5.6h-.4c0-.6.4-1 1-1s1 .3 1 .8-.1.5-.4.9l-.8 1.1h1.1z"/><g><path d="M245.8 89.6h2.1v.6h-2.1V92h2.1v.6h-2.8v-5.3h2.8v.6h-2.1v1.8zM249.7 88.9v.5c.3-.4.6-.6 1.1-.6s.6.1.9.3c.2.2.3.5.3 1v2.5h-.6v-2.4c0-.3 0-.5-.1-.6-.1-.2-.3-.2-.6-.2s-.5.1-.7.3c-.2.2-.2.4-.2.7v2.2h-.6v-3.7h.6zM254 91.8c0 .2 0 .2.3.2h.3v.5h-.6c-.4 0-.6-.2-.6-.6v-2.6h-.5v-.5h.5v-1.2h.6v1.2h.6v.5h-.6v2.4zM256.2 88.9v.6c.1-.3.2-.4.3-.5.2-.1.4-.2.7-.2h.1v.6h-.2c-.3 0-.6.2-.8.4-.2.2-.2.4-.2.9v1.9h-.6v-3.7h.6zM258.6 90.9c0 .3 0 .5.2.7.2.3.6.5 1 .5s.9-.2 1.1-.6l.5.2c-.3.6-.9 1-1.6 1-1.1 0-1.9-.8-1.9-1.9s.8-1.9 1.9-1.9 1.9.8 1.9 1.9v.2h-3.1zm2.4-.4c0-.3 0-.4-.2-.6-.2-.3-.6-.5-1-.5s-.8.2-1 .5c-.1.2-.2.3-.2.6h2.4zm-.2-3.2l-.9 1.1h-.4l.7-1.1h.7zM263.2 90.9c0 .3 0 .5.2.7.2.3.6.5 1 .5s.9-.2 1.1-.6l.5.2c-.3.6-.9 1-1.6 1-1.1 0-1.9-.8-1.9-1.9s.8-1.9 1.9-1.9 1.9.8 1.9 1.9v.2h-3.1zm2.4-.4c0-.3 0-.4-.2-.6-.2-.3-.6-.5-1-.5s-.8.2-1 .5c-.1.2-.2.3-.2.6h2.4zM247.5 96.8h-1.7v1.4c.3-.1.5-.2.8-.2.9 0 1.6.7 1.6 1.7s-.8 1.8-1.8 1.8-1.3-.4-1.6-1.1l.6-.2c.1.2.2.3.3.4.2.2.5.3.8.3.6 0 1.1-.5 1.1-1.2s-.5-1.1-1.2-1.1-.8.2-1.2.5v-3h2.3v.6zM250.1 101.2c0 .2-.2.4-.4.4s-.4-.2-.4-.4.2-.4.4-.4.4.2.4.4zM254.1 101v.6h-3l1.9-2.7c.5-.8.7-1 .7-1.3 0-.5-.4-.8-.9-.8s-.7.2-.8.4v.6h-.6c0-1 .6-1.6 1.5-1.6s1.5.5 1.5 1.3-.2.8-.6 1.5l-1.4 2h1.9zM260.2 97.9v.5c.3-.4.6-.6 1-.6s.8.2 1 .7c.3-.5.6-.7 1.2-.7s.7.1.9.4c.2.2.2.4.2 1v2.4h-.6v-2.2c0-.4 0-.6-.1-.7-.1-.2-.4-.3-.6-.3-.5 0-.8.4-.8 1v2.2h-.6v-2.2c0-.4 0-.5-.1-.7-.1-.2-.3-.3-.6-.3-.5 0-.9.4-.9 1v2.2h-.6v-3.7h.6zM267.8 99.1v.4h-2l1.2-1.6c.3-.5.4-.6.4-.8 0-.3-.2-.4-.5-.4s-.5.2-.5.6h-.4c0-.6.4-1 1-1s1 .3 1 .8-.1.5-.4.9l-.8 1.1h1.1z"/></g><g><path d="M157.6 167.8v.6h-3.8l3-4.8h-2.7v-.6h3.8l-3 4.8h2.7zM159.5 163.7c0 .2-.2.4-.4.4s-.4-.2-.4-.4.2-.4.4-.4.4.2.4.4zm0 4.7h-.6v-3.7h.6v3.7zM161.4 164.7v.5c.3-.4.6-.6 1-.6s.8.2 1 .7c.3-.5.6-.7 1.2-.7s.7.1.9.4c.2.2.2.4.2 1v2.4h-.6v-2.2c0-.4 0-.6-.1-.7-.1-.2-.4-.3-.6-.3-.5 0-.8.4-.8 1v2.2h-.6v-2.2c0-.4 0-.5-.1-.7-.1-.2-.3-.3-.6-.3-.5 0-.9.4-.9 1v2.2h-.6v-3.7h.6zM167.7 164.7v.5c.3-.4.6-.6 1-.6s.8.2 1 .7c.3-.5.6-.7 1.2-.7s.7.1.9.4c.2.2.2.4.2 1v2.4h-.6v-2.2c0-.4 0-.6-.1-.7-.1-.2-.4-.3-.6-.3-.5 0-.8.4-.8 1v2.2h-.6v-2.2c0-.4 0-.5-.1-.7-.1-.2-.3-.3-.6-.3-.5 0-.9.4-.9 1v2.2h-.6v-3.7h.6zM173.8 166.8c0 .3 0 .5.2.7.2.3.6.5 1 .5s.9-.2 1.1-.6l.5.2c-.3.6-.9 1-1.6 1-1.1 0-1.9-.8-1.9-1.9s.8-1.9 1.9-1.9 1.9.8 1.9 1.9v.2h-3.1zm2.4-.4c0-.3 0-.4-.2-.6-.2-.3-.6-.5-1-.5s-.8.2-1 .5c-.1.2-.2.3-.2.6h2.4zM178.5 164.7v.6c.1-.3.2-.4.3-.5.2-.1.4-.2.7-.2h.1v.6h-.2c-.3 0-.6.2-.8.4-.2.2-.2.4-.2.9v1.9h-.6v-3.7h.6zM154.6 173.8v-.6l1.8-1.2v5.4h-.6V173l-1.2.8zM159.2 174.3c.2 0 .3-.1.5-.1.9 0 1.6.7 1.6 1.6s-.8 1.7-1.7 1.7-1.7-.8-1.7-1.7.1-.7.4-1.2l1.5-2.5h.7l-1.4 2.1zm-.7 1.5c0 .6.5 1.1 1.1 1.1s1.1-.5 1.1-1.1-.5-1.1-1.1-1.1-1.1.5-1.1 1.1zM163.1 177.1c0 .2-.2.4-.4.4s-.4-.2-.4-.4.2-.4.4-.4.4.2.4.4zM165.4 174.3c.2 0 .3-.1.5-.1.9 0 1.6.7 1.6 1.6s-.8 1.7-1.7 1.7-1.7-.8-1.7-1.7.1-.7.4-1.2l1.5-2.5h.7l-1.4 2.1zm-.7 1.5c0 .6.5 1.1 1.1 1.1s1.1-.5 1.1-1.1-.5-1.1-1.1-1.1-1.1.5-1.1 1.1zM170.7 173.7v.5c.3-.4.6-.6 1-.6s.8.2 1 .7c.3-.5.6-.7 1.2-.7s.7.1.9.4c.2.2.2.4.2 1v2.4h-.6v-2.2c0-.4 0-.6-.1-.7-.1-.2-.4-.3-.6-.3-.5 0-.8.4-.8 1v2.2h-.6v-2.2c0-.4 0-.5-.1-.7-.1-.2-.3-.3-.6-.3-.5 0-.9.4-.9 1v2.2h-.6v-3.7h.6zM178.3 174.9v.4h-2l1.2-1.6c.3-.5.4-.6.4-.8 0-.3-.2-.4-.5-.4s-.5.2-.5.6h-.4c0-.6.4-1 1-1s1 .3 1 .8-.1.5-.4.9l-.8 1.1h1.1z"/></g><g><path d="M155.9 252.1c1.1 0 1.7.5 1.7 1.4s-.1.6-.3.9c-.1.2-.3.2-.5.3.3 0 .4.1.6.2.3.2.4.6.4 1s-.2.9-.6 1.2c-.3.2-.7.3-1.3.3h-1.5v-5.3h1.5zm-.8 2.4h.7c.4 0 .7 0 .9-.2.2-.2.3-.4.3-.7s-.2-.6-.4-.8c-.2 0-.4-.1-.9-.1h-.6v1.8zm0 2.4h.7c.6 0 .8 0 1-.2.3-.1.4-.4.4-.8 0-.6-.4-.9-1.2-.9h-.8v1.8zM161.8 253.7h.6v3.7h-.6v-.7c-.4.6-.8.8-1.3.8-1 0-1.7-.8-1.7-1.9s.7-1.9 1.8-1.9 1 .2 1.3.7v-.6zm-2.1.9c-.2.3-.3.6-.3 1 0 .8.5 1.4 1.2 1.4s1.3-.6 1.3-1.4-.5-1.4-1.2-1.4-.7.1-.9.4zM163.7 257.4v-5.3h.6v5.3h-.6zM166.3 257.4h-.6v-5.3h.6v3.3l1.5-1.6h.8l-1.6 1.8 1.6 1.9h-.8l-1.5-1.6v1.6zM172.7 255.6c0 1.1-.8 1.9-1.9 1.9s-1.9-.8-1.9-1.9.8-1.9 1.9-1.9 1.9.8 1.9 1.9zm-3.1 0c0 .8.5 1.4 1.3 1.4s1.2-.6 1.2-1.4-.5-1.4-1.2-1.4-1.3.6-1.3 1.4zM174.5 253.7v.5c.3-.4.6-.6 1.1-.6s.6.1.9.3c.2.2.3.5.3 1v2.5h-.6V255c0-.3 0-.5-.1-.6-.1-.2-.3-.2-.6-.2s-.5.1-.7.3c-.2.2-.2.4-.2.7v2.2h-.6v-3.7h.6zM154.6 262.8v-.6l1.8-1.2v5.4h-.6V262l-1.2.8zM158.1 262.8v-.6l1.8-1.2v5.4h-.6V262l-1.2.8zM162.5 266.1c0 .2-.2.4-.4.4s-.4-.2-.4-.4.2-.4.4-.4.4.2.4.4zM166.8 264.8c0 .6-.1 1-.4 1.2-.3.3-.7.4-1.2.4s-1-.2-1.2-.5c-.3-.3-.4-.6-.4-1.4v-1.8c0-.7 0-1 .3-1.3.3-.3.7-.5 1.2-.5s.9.1 1.2.4c.3.3.4.6.4 1.2v2.1zm-2.5-.1c0 .6 0 .7.2.9.2.2.5.3.8.3s.6-.1.8-.4c.1-.2.2-.4.2-.8v-2c0-.4 0-.6-.3-.8-.2-.2-.4-.2-.7-.2s-.6.1-.8.4c-.1.2-.2.4-.2.8v1.8zM170.1 262.7v.5c.3-.4.6-.6 1-.6s.8.2 1 .7c.3-.5.6-.7 1.2-.7s.7.1.9.4c.2.2.2.4.2 1v2.4h-.6v-2.2c0-.4 0-.6-.1-.7-.1-.2-.4-.3-.6-.3-.5 0-.8.4-.8 1v2.2h-.6v-2.2c0-.4 0-.5-.1-.7-.1-.2-.3-.3-.6-.3-.5 0-.9.4-.9 1v2.2h-.6v-3.7h.6zM177.7 263.9v.4h-2l1.2-1.6c.3-.5.4-.6.4-.8 0-.3-.2-.4-.5-.4s-.5.2-.5.6h-.4c0-.6.4-1 1-1s1 .3 1 .8-.1.5-.4.9l-.8 1.1h1.1z"/></g><g><path d="M537.2 180.4v.6h-3.8l3-4.8h-2.7v-.6h3.8l-3 4.8h2.7zM539 176.3c0 .2-.2.4-.4.4s-.4-.2-.4-.4.2-.4.4-.4.4.2.4.4zm0 4.7h-.6v-3.7h.6v3.7zM540.9 177.3v.5c.3-.4.6-.6 1-.6s.8.2 1 .7c.3-.5.6-.7 1.2-.7s.7.1.9.4c.2.2.2.4.2 1v2.4h-.6v-2.2c0-.4 0-.6-.1-.7-.1-.2-.4-.3-.6-.3-.5 0-.8.4-.8 1v2.2h-.6v-2.2c0-.4 0-.5-.1-.7-.1-.2-.3-.3-.6-.3-.5 0-.9.4-.9 1v2.2h-.6v-3.7h.6zM547.2 177.3v.5c.3-.4.6-.6 1-.6s.8.2 1 .7c.3-.5.6-.7 1.2-.7s.7.1.9.4c.2.2.2.4.2 1v2.4h-.6v-2.2c0-.4 0-.6-.1-.7-.1-.2-.4-.3-.6-.3-.5 0-.8.4-.8 1v2.2h-.6v-2.2c0-.4 0-.5-.1-.7-.1-.2-.3-.3-.6-.3-.5 0-.9.4-.9 1v2.2h-.6v-3.7h.6zM553.3 179.3c0 .3 0 .5.2.7.2.3.6.5 1 .5s.9-.2 1.1-.6l.5.2c-.3.6-.9 1-1.6 1-1.1 0-1.9-.8-1.9-1.9s.8-1.9 1.9-1.9 1.9.8 1.9 1.9v.2h-3.1zm2.4-.4c0-.3 0-.4-.2-.6-.2-.3-.6-.5-1-.5s-.8.2-1 .5c-.1.2-.2.3-.2.6h2.4zM558.1 177.3v.6c.1-.3.2-.4.3-.5.2-.1.4-.2.7-.2h.1v.6h-.2c-.3 0-.6.2-.8.4-.2.2-.2.4-.2.9v1.9h-.6v-3.7h.6zM534.2 186.4v-.6l1.8-1.2v5.4h-.6v-4.4l-1.2.8zM537.7 185.3v-.6h3l-1.6 2c.9 0 1.6.7 1.6 1.6s-.8 1.7-1.8 1.7-1.4-.5-1.6-1.3h.6c.1.4.5.7 1 .7s1.2-.5 1.2-1.1-.5-1.1-1.2-1.1-.4 0-.6.2l-.3-.2 1.5-1.9h-1.9zM542.6 189.6c0 .2-.2.4-.4.4s-.4-.2-.4-.4.2-.4.4-.4.4.2.4.4zM544 185.3v-.6h3l-1.6 2c.9 0 1.6.7 1.6 1.6s-.8 1.7-1.8 1.7-1.4-.5-1.6-1.3h.6c.1.4.5.7 1 .7s1.2-.5 1.2-1.1-.5-1.1-1.2-1.1-.4 0-.6.2l-.3-.2 1.5-1.9h-1.9zM550.3 186.3v.5c.3-.4.6-.6 1-.6s.8.2 1 .7c.3-.5.6-.7 1.2-.7s.7.1.9.4c.2.2.2.4.2 1v2.4h-.6v-2.2c0-.4 0-.6-.1-.7-.1-.2-.4-.3-.6-.3-.5 0-.8.4-.8 1v2.2h-.6v-2.2c0-.4 0-.5-.1-.7-.1-.2-.3-.3-.6-.3-.5 0-.9.4-.9 1v2.2h-.6v-3.7h.6zM557.9 187.5v.4h-2l1.2-1.6c.3-.5.4-.6.4-.8 0-.3-.2-.4-.5-.4s-.5.2-.5.6h-.4c0-.6.4-1 1-1s1 .3 1 .8-.1.5-.4.9l-.8 1.1h1.1z"/></g><g><path d="M349.3 168.4h-.7v-5.3h.7v2.5l2.1-2.5h.8l-2.2 2.6 2.2 2.7h-.9l-2-2.5v2.5zM356.4 166.6c0 1.1-.8 1.9-1.9 1.9s-1.9-.8-1.9-1.9.8-1.9 1.9-1.9 1.9.8 1.9 1.9zm-3.1 0c0 .8.5 1.4 1.3 1.4s1.2-.6 1.2-1.4-.5-1.4-1.2-1.4-1.3.6-1.3 1.4zM360.4 168c-.4.4-.8.5-1.4.5-1.1 0-1.8-.8-1.8-1.9s.8-1.9 1.8-1.9 1 .2 1.3.6l-.4.4c-.3-.3-.6-.4-.9-.4-.7 0-1.2.6-1.2 1.4s.5 1.4 1.2 1.4.6-.1.9-.4l.4.4zM361.9 165.2c.3-.4.7-.6 1.1-.6s.7.1.9.3c.2.2.3.5.3 1v2.5h-.6V166c0-.5-.2-.8-.7-.8s-.5.1-.7.3c-.2.2-.2.4-.2.7v2.2h-.6v-5.3h.6v2.2zM365.9 166.8c0 .3 0 .5.2.7.2.3.6.5 1 .5s.9-.2 1.1-.6l.5.2c-.3.6-.9 1-1.6 1-1.1 0-1.9-.8-1.9-1.9s.8-1.9 1.9-1.9 1.9.8 1.9 1.9v.2h-3.1zm2.4-.4c0-.3 0-.4-.2-.6-.2-.3-.6-.5-1-.5s-.8.2-1 .5c-.1.2-.2.3-.2.6h2.4zM370.6 164.7v.5c.3-.4.6-.6 1.1-.6s.6.1.9.3c.2.2.3.5.3 1v2.5h-.6V166c0-.3 0-.5-.1-.6-.1-.2-.3-.2-.6-.2s-.5.1-.7.3c-.2.2-.2.4-.2.7v2.2h-.6v-3.7h.6zM374.2 169.7h-.4l.7-2.1.6.2-.8 1.9zM379.3 165.4h2.1v.6h-2.1v1.8h2.1v.6h-2.8v-5.3h2.8v.6h-2.1v1.8zM384.4 165.7c0-.4-.3-.6-.7-.6s-.7.2-.7.5.2.4.8.6c.5.1.7.2.9.4.2.2.3.4.3.7 0 .6-.5 1.1-1.3 1.1s-1.3-.4-1.4-1.1h.6c0 .4.3.6.8.6s.7-.2.7-.5-.2-.5-.8-.6c-.8-.2-1.2-.6-1.2-1.1s.5-1.1 1.3-1.1 1.3.4 1.3 1.1h-.6zM387.9 165.7c0-.4-.3-.6-.7-.6s-.7.2-.7.5.2.4.8.6c.5.1.7.2.9.4.2.2.3.4.3.7 0 .6-.5 1.1-1.3 1.1s-1.3-.4-1.4-1.1h.6c0 .4.3.6.8.6s.7-.2.7-.5-.2-.5-.8-.6c-.8-.2-1.2-.6-1.2-1.1s.5-1.1 1.3-1.1 1.3.4 1.3 1.1h-.6zM390 166.8c0 .3 0 .5.2.7.2.3.6.5 1 .5s.9-.2 1.1-.6l.5.2c-.3.6-.9 1-1.6 1-1.1 0-1.9-.8-1.9-1.9s.8-1.9 1.9-1.9 1.9.8 1.9 1.9v.2H390zm2.4-.4c0-.3 0-.4-.2-.6-.2-.3-.6-.5-1-.5s-.8.2-1 .5c-.1.2-.2.3-.2.6h2.4zM394.8 164.7v.5c.3-.4.6-.6 1.1-.6s.6.1.9.3c.2.2.3.5.3 1v2.5h-.6V166c0-.3 0-.5-.1-.6-.1-.2-.3-.2-.6-.2s-.5.1-.7.3c-.2.2-.2.4-.2.7v2.2h-.6v-3.7h.6zM398.3 169.7h-.4l.7-2.1.6.2-.8 1.9zM354.1 172.1h.7l-1.6 5.3h-.6l-1.2-4.2-1.2 4.2h-.6l-1.6-5.3h.7l1.2 4.1 1.2-4.1h.6l1.1 4.1 1.2-4.1zM359 175.6c0 1.1-.8 1.9-1.9 1.9s-1.9-.8-1.9-1.9.8-1.9 1.9-1.9 1.9.8 1.9 1.9zm-3.1 0c0 .8.5 1.4 1.3 1.4s1.2-.6 1.2-1.4-.5-1.4-1.2-1.4-1.3.6-1.3 1.4zM360.7 174.2c.3-.4.7-.6 1.1-.6s.7.1.9.3c.2.2.3.5.3 1v2.5h-.6V175c0-.5-.2-.8-.7-.8s-.5.1-.7.3c-.2.2-.2.4-.2.7v2.2h-.6v-5.3h.6v2.2zM364.9 173.7v.5c.3-.4.6-.6 1.1-.6s.6.1.9.3c.2.2.3.5.3 1v2.5h-.6V175c0-.3 0-.5-.1-.6-.1-.2-.3-.2-.6-.2s-.5.1-.7.3c-.2.2-.2.4-.2.7v2.2h-.6v-3.7h.6zM368.9 175.8c0 .3 0 .5.2.7.2.3.6.5 1 .5s.9-.2 1.1-.6l.5.2c-.3.6-.9 1-1.6 1-1.1 0-1.9-.8-1.9-1.9s.8-1.9 1.9-1.9 1.9.8 1.9 1.9v.2h-3.1zm2.4-.4c0-.3 0-.4-.2-.6-.2-.3-.6-.5-1-.5s-.8.2-1 .5c-.1.2-.2.3-.2.6h2.4zM373.6 173.7v.5c.3-.4.6-.6 1.1-.6s.6.1.9.3c.2.2.3.5.3 1v2.5h-.6V175c0-.3 0-.5-.1-.6-.1-.2-.3-.2-.6-.2s-.5.1-.7.3c-.2.2-.2.4-.2.7v2.2h-.6v-3.7h.6zM348.6 181.7v-.6h3l-1.6 2c.9 0 1.6.7 1.6 1.6s-.8 1.7-1.8 1.7-1.4-.5-1.6-1.3h.6c.1.4.5.7 1 .7s1.2-.5 1.2-1.1-.5-1.1-1.2-1.1-.4 0-.6.2l-.3-.2 1.5-1.9h-1.9zM355.8 184.8c0 .6-.1 1-.4 1.2-.3.3-.7.4-1.2.4s-1-.2-1.2-.5c-.3-.3-.4-.6-.4-1.4v-1.8c0-.7 0-1 .3-1.3.3-.3.7-.5 1.2-.5s.9.1 1.2.4c.3.3.4.6.4 1.2v2.1zm-2.5-.1c0 .6 0 .7.2.9.2.2.5.3.8.3s.6-.1.8-.4c.1-.2.2-.4.2-.8v-2c0-.4 0-.6-.3-.8-.2-.2-.4-.2-.7-.2s-.6.1-.8.4c-.1.2-.2.4-.2.8v1.8zM357.8 186.1c0 .2-.2.4-.4.4s-.4-.2-.4-.4.2-.4.4-.4.4.2.4.4zM359 181.8v-.6h3l-2.1 5.3h-.7l1.9-4.7h-2zM365.3 182.7v.5c.3-.4.6-.6 1-.6s.8.2 1 .7c.3-.5.6-.7 1.2-.7s.7.1.9.4c.2.2.2.4.2 1v2.4h-.6v-2.2c0-.4 0-.6-.1-.7-.1-.2-.4-.3-.6-.3-.5 0-.8.4-.8 1v2.2h-.6v-2.2c0-.4 0-.5-.1-.7-.1-.2-.3-.3-.6-.3-.5 0-.9.4-.9 1v2.2h-.6v-3.7h.6zM372.8 183.9v.4h-2l1.2-1.6c.3-.5.4-.6.4-.8 0-.3-.2-.4-.5-.4s-.5.2-.5.6h-.4c0-.6.4-1 1-1s1 .3 1 .8-.1.5-.4.9l-.8 1.1h1.1z"/></g><g><path d="M311.8 87.2c1.1 0 1.7.5 1.7 1.4s-.1.6-.3.9c-.1.2-.3.2-.5.3.3 0 .4.1.6.2.3.2.4.6.4 1s-.2.9-.6 1.2c-.3.2-.7.3-1.3.3h-1.5v-5.3h1.5zm-.8 2.4h.7c.4 0 .7 0 .9-.2.2-.2.3-.4.3-.7s-.2-.6-.4-.8c-.2 0-.4-.1-.9-.1h-.6v1.8zm0 2.4h.7c.6 0 .8 0 1-.2.3-.1.4-.4.4-.8 0-.6-.4-.9-1.2-.9h-.8v1.8zM317.7 88.9h.6v3.7h-.6v-.7c-.4.6-.8.8-1.3.8-1 0-1.7-.8-1.7-1.9s.7-1.9 1.8-1.9 1 .2 1.3.7V89zm-2.1.9c-.2.3-.3.6-.3 1 0 .8.5 1.4 1.2 1.4s1.3-.6 1.3-1.4-.5-1.4-1.2-1.4-.7.1-.9.4zM322.4 87.2h.6v5.3h-.6v-.6c-.4.5-.8.7-1.3.7-1 0-1.7-.8-1.7-1.9s.7-2 1.7-2 1 .2 1.3.6v-2.2zm-2.4 3.5c0 .8.5 1.4 1.2 1.4s1.2-.6 1.2-1.4-.5-1.4-1.2-1.4-1.2.6-1.2 1.4zM312.6 96.8h-1.7v1.4c.3-.1.5-.2.8-.2.9 0 1.6.7 1.6 1.7s-.8 1.8-1.8 1.8-1.3-.4-1.6-1.1l.6-.2c.1.2.2.3.3.4.2.2.5.3.8.3.6 0 1.1-.5 1.1-1.2s-.5-1.1-1.2-1.1-.8.2-1.2.5v-3h2.3v.6zM315.1 101.2c0 .2-.2.4-.4.4s-.4-.2-.4-.4.2-.4.4-.4.4.2.4.4zM317.5 98.5c.2 0 .3-.1.5-.1.9 0 1.6.7 1.6 1.6s-.8 1.7-1.7 1.7-1.7-.8-1.7-1.7.1-.7.4-1.2l1.5-2.5h.7l-1.4 2.1zm-.7 1.5c0 .6.5 1.1 1.1 1.1s1.1-.5 1.1-1.1-.5-1.1-1.1-1.1-1.1.5-1.1 1.1zM323.6 97.9v.5c.3-.4.6-.6 1-.6s.8.2 1 .7c.3-.5.6-.7 1.2-.7s.7.1.9.4c.2.2.2.4.2 1v2.4h-.6v-2.2c0-.4 0-.6-.1-.7-.1-.2-.4-.3-.6-.3-.5 0-.8.4-.8 1v2.2h-.6v-2.2c0-.4 0-.5-.1-.7-.1-.2-.3-.3-.6-.3-.5 0-.9.4-.9 1v2.2h-.6v-3.7h.6zM331.2 99.1v.4h-2l1.2-1.6c.3-.5.4-.6.4-.8 0-.3-.2-.4-.5-.4s-.5.2-.5.6h-.4c0-.6.4-1 1-1s1 .3 1 .8-.1.5-.4.9l-.8 1.1h1.1z"/></g><g><path d="M176.6 81.6v.6h-2.5v-5.3h.7v4.7h1.9zM178.3 77.5c0 .2-.2.4-.4.4s-.4-.2-.4-.4.2-.4.4-.4.4.2.4.4zm0 4.7h-.6v-3.7h.6v3.7zM180.3 82.2h-.6V79h-.5v-.5h.5V78c0-.7.4-1.2 1-1.2h.2v.5c-.4 0-.6.2-.6.6v.5h.6v.5h-.6v3.2zM182.6 81.4c0 .2 0 .2.3.2h.3v.5h-.6c-.4 0-.6-.2-.6-.6v-2.6h-.5v-.5h.5v-1.2h.6v1.2h.6v.5h-.6v2.4z"/></g></g></svg>