<svg xmlns="http://www.w3.org/2000/svg" viewBox="0 0 453.3 398.8"><defs><style>.cls-1,.cls-10,.cls-11,.cls-12,.cls-13,.cls-14,.cls-15,.cls-16,.cls-17,.cls-18,.cls-19,.cls-2,.cls-20,.cls-21,.cls-3,.cls-4,.cls-5,.cls-6,.cls-7,.cls-8,.cls-9{fill:none;stroke-linecap:round;stroke-linejoin:round}.cls-1,.cls-10,.cls-11,.cls-12,.cls-13,.cls-14,.cls-15,.cls-16,.cls-17,.cls-18,.cls-19,.cls-2,.cls-21,.cls-3,.cls-4,.cls-5,.cls-6,.cls-8,.cls-9{stroke-width:.1px}.cls-1,.cls-16,.cls-19,.cls-20,.cls-21,.cls-3,.cls-4,.cls-9{stroke:#194164}.cls-1,.cls-9{stroke-dasharray:0 0 0 0 2.9 1.4 .2 1.4}.cls-2{stroke:#646464}.cls-10,.cls-11,.cls-12,.cls-13,.cls-14,.cls-15,.cls-16,.cls-17,.cls-21,.cls-3,.cls-4,.cls-5,.cls-6,.cls-8{stroke-dasharray:0 0 1.4 1.4}.cls-4{stroke-dashoffset:1px}.cls-5{stroke-dashoffset:2.5px}.cls-10,.cls-11,.cls-12,.cls-13,.cls-14,.cls-15,.cls-17,.cls-18,.cls-5,.cls-6,.cls-8{stroke:#969696}.cls-22,.cls-23{fill:#fff}.cls-7{stroke:#000;stroke-width:.3px}.cls-8{stroke-dashoffset:2.8px}.cls-9{stroke-dashoffset:1.9px}.cls-10{stroke-dashoffset:2.4px}.cls-11{stroke-dashoffset:2.7px}.cls-12{stroke-dashoffset:2.5px}.cls-13{stroke-dashoffset:2.6px}.cls-14{stroke-dashoffset:1.4px}.cls-15,.cls-21{stroke-dashoffset:.7px}.cls-23,.cls-24{fill-rule:evenodd}.cls-16{stroke-dashoffset:.2px}.cls-17{stroke-dashoffset:2.7px}.cls-20{stroke-width:.3px}</style></defs><g id="Plan"><path class="cls-20" d="M370 215.4h29.8v39.8H370z"/><path class="cls-19" d="M401.7 206.5h-35.6M383.4 209.6h13.9M370.7 212.5h13.7"/><path class="cls-23" d="M452.5 157l-4.8 4.8h4.8V157"/><path class="cls-18" d="M452.8 157h-.3M452.8 161.1l-2.2-1.9M449.4 161.8l-.7-.7M450.9 161.8l1.9-1.9"/><path class="cls-23" d="M452.5 157l-4.8 4.8h4.8V157"/><path class="cls-18" d="M452.8 157h-.3M452.8 161.1l-2.2-1.9M449.4 161.8l-.7-.7M450.9 161.8l1.9-1.9"/><path class="cls-20" d="M452.5 161.8V157M452.5 161.8V157"/><path class="cls-23" d="M452.5 203.6h-6.9v-6.2h6.9v6.2"/><path class="cls-18" d="M452.8 201.2l-4.1-3.8M451.1 203.6l-5.3-5.3M447 203.6l-1.2-1.2M449.2 203.6l3.6-3.6M445.8 203.1l5.5-5.7M445.8 199l1.5-1.6"/><path class="cls-23" d="M445.6 203.6h6.9v-6.2h-6.9v6.2"/><path class="cls-18" d="M452.8 201.2l-4.1-3.8M451.1 203.6l-5.3-5.3M447 203.6l-1.2-1.2M449.2 203.6l3.6-3.6M445.8 203.1l5.5-5.7M445.8 199l1.5-1.6"/><path class="cls-20" d="M452.5 203.6v-6.2M452.5 203.6v-6.2"/><path class="cls-19" d="M451.3 191.6h1.9v5.8h-1.9zM451.3 161.8h1.9v2.4h-1.9z"/><path class="cls-19" d="M451.3 164.2h1.9v27.4h-1.9zM451.3 191.6v-27.4"/><path class="cls-1" d="M445.6 191.8V164"/><path class="cls-19" d="M445.6 164.5v-.5"/><path class="cls-23" d="M445.6 197.4v-5.6h5.7v5.6"/><path class="cls-18" d="M451.6 192.1l-.3-.3M451.6 195.9l-4.3-4.1M448.7 197.4l-2.9-3.2M451.3 197.4h.3M447.3 197.4l4.3-4.1M445.8 195l3.1-3.2"/><path class="cls-23" d="M445.6 161.8v2.2h5.7v-2.2"/><path class="cls-18" d="M451.6 164l-2.2-2.2M447.5 164l-1.7-1.7M448.7 164l2.2-2.2M445.8 163l1-1.2"/><path class="cls-20" d="M445.6 191.8h5.7M445.6 164h5.7M445.6 191.8h5.7M445.6 197.4v-5.6M445.6 164h5.7M445.6 161.8v2.2M452.5 197.4h-1.2M452.5 161.8h-1.2M445.6 197.4v-5.6M445.6 161.8v2.2M451.3 191.8v5.6M451.3 164v-2.2"/><path class="cls-19" d="M116.1 269.8H98.8"/><path class="cls-7" d="M116.8 270.6h-18"/><path class="cls-19" d="M114.6 268.4H98.8M116.1 269.8H98.8"/><path class="cls-7" d="M98.8 269.8v.8"/><path class="cls-19" d="M98.8 268.4v1.4M116.8 270.6h-18M114.6 268.4H98.8M116.1 253.8v16"/><path class="cls-7" d="M116.8 253.8v16.8"/><path class="cls-19" d="M114.6 253.8v14.6M116.1 253.8v16M116.8 253.8v16.8M114.6 253.8v14.6"/><path class="cls-7" d="M116.1 253.8h.7"/><path class="cls-19" d="M114.6 253.8h1.5"/><path class="cls-24" d="M31.1 382.2v14.6H.1v-14.6h31"/><path class="cls-23" d="M31.1 396.8v-3.4H.1v3.4h31"/><path class="cls-18" d="M.4 394.2l2.4 2.6M3.5 393.4l3.4 3.4M7.6 393.4l3.3 3.4M11.4 393.4l3.4 3.4M15.5 393.4l3.4 3.4M19.6 393.4l3.3 3.4M23.4 393.4l3.4 3.4M27.5 393.4l3.4 3.4"/><path class="cls-23" d="M31.1 393.4v-.4H.1v.4h31M31.1 393v-5.8H.1v5.8h31"/><path class="cls-18" d="M.6 387.2v5.8M2.1 387.2v5.8M3.5 387.2v5.8M4.9 387.2v5.8M6.4 387.2v5.8M7.8 387.2v5.8M9.3 387.2v5.8M10.7 387.2v5.8M12.1 387.2v5.8M13.3 387.2v5.8M14.8 387.2v5.8M16.2 387.2v5.8M17.7 387.2v5.8M19.1 387.2v5.8M20.5 387.2v5.8M22 387.2v5.8M23.4 387.2v5.8M24.9 387.2v5.8M26.3 387.2v5.8M27.5 387.2v5.8M28.9 387.2v5.8M30.4 387.2v5.8"/><path class="cls-23" d="M31.1 387.2v-5H.1v5h31"/><path class="cls-18" d="M.4 386.2l.9 1M.4 382.2l4.8 5M4.2 382.2l5.1 5M8.3 382.2l5 5M12.1 382.2l5.1 5M16.2 382.2l5.1 5M20.3 382.2l5 5M24.1 382.2l5.1 5M28.2 382.2l3.1 2.8"/><path class="cls-20" d="M31.1 393.4H.1M31.1 396.8H.1"/><path class="cls-18" d="M31.1 387.2H.1M31.1 393H.1"/><path class="cls-20" d="M31.1 382.2H.1M31.1 387.2H.1"/><path class="cls-19" d="M31.1 396.8H.1M31.1 382.2H.1"/><path class="cls-24" d="M123.3 382.2v14.6H72.1v-14.6h51.2"/><path class="cls-23" d="M123.3 396.8v-3.4H72.1v3.4h51.2"/><path class="cls-18" d="M72.4 394.2l2.6 2.6M75.5 393.4l3.4 3.4M79.6 393.4l3.3 3.4M83.7 393.4l3.3 3.4M87.7 393.4l3.4 3.4M91.6 393.4l3.3 3.4M95.7 393.4l3.3 3.4M99.7 393.4l3.4 3.4M103.6 393.4l3.3 3.4M107.7 393.4l3.3 3.4M111.7 393.4l3.4 3.4M115.6 393.4l3.3 3.4M119.7 393.4l3.3 3.4"/><path class="cls-23" d="M123.3 393.4v-.4H72.1v.4h51.2M123.3 393v-5.8H72.1v5.8h51.2"/><path class="cls-18" d="M72.9 387.2v5.8M74.3 387.2v5.8M75.7 387.2v5.8M77.2 387.2v5.8M78.6 387.2v5.8M80.1 387.2v5.8M81.5 387.2v5.8M82.9 387.2v5.8M84.4 387.2v5.8M85.8 387.2v5.8M87 387.2v5.8M88.5 387.2v5.8M89.9 387.2v5.8M91.3 387.2v5.8M92.8 387.2v5.8M94.2 387.2v5.8M95.7 387.2v5.8M97.1 387.2v5.8M98.5 387.2v5.8M100 387.2v5.8M101.4 387.2v5.8M102.6 387.2v5.8M104.1 387.2v5.8M105.5 387.2v5.8M106.9 387.2v5.8M108.4 387.2v5.8M109.8 387.2v5.8M111.3 387.2v5.8M112.7 387.2v5.8M114.1 387.2v5.8M115.6 387.2v5.8M117 387.2v5.8M118.2 387.2v5.8M119.7 387.2v5.8M121.1 387.2v5.8M122.5 387.2v5.8"/><path class="cls-23" d="M123.3 387.2v-5H72.1v5h51.2"/><path class="cls-18" d="M72.4 386l.9 1.2M72.4 382.2l5 5M76.5 382.2l5 5M80.3 382.2l5 5M84.4 382.2l5 5M88.5 382.2l5 5M92.3 382.2l5 5M96.4 382.2l5 5M100.5 382.2l5 5M104.3 382.2l5 5M108.4 382.2l5 5M112.5 382.2l5 5M116.5 382.2l5.1 5M120.4 382.2l3.1 2.8"/><path class="cls-20" d="M123.3 393.4H72.1M123.3 396.8H72.1"/><path class="cls-18" d="M123.3 387.2H72.1M123.3 393H72.1"/><path class="cls-20" d="M123.3 382.2H72.1M123.3 387.2H72.1"/><path class="cls-19" d="M123.3 396.8H72.1M123.3 382.2H72.1"/><path class="cls-24" d="M237.5 382.2v14.6h-51.1v-14.6h51.1"/><path class="cls-23" d="M237.5 396.8v-3.4h-51.1v3.4h51.1"/><path class="cls-18" d="M186.6 396.1l.5.7M187.8 393.4l3.4 3.4M191.9 393.4l3.4 3.4M196 393.4l3.3 3.4M199.8 393.4l3.4 3.4M203.9 393.4l3.4 3.4M208 393.4l3.3 3.4M211.8 393.4l3.4 3.4M215.9 393.4l3.4 3.4M220 393.4l3.3 3.4M223.8 393.4l3.4 3.4M227.9 393.4l3.4 3.4M232 393.4l3.3 3.4M236.1 393.4l1.6 1.7"/><path class="cls-23" d="M237.5 393.4v-.4h-51.1v.4h51.1M237.5 393v-5.8h-51.1v5.8h51.1"/><path class="cls-18" d="M187.8 387.2v5.8M189.3 387.2v5.8M190.7 387.2v5.8M192.1 387.2v5.8M193.3 387.2v5.8M194.8 387.2v5.8M196.2 387.2v5.8M197.7 387.2v5.8M199.1 387.2v5.8M200.5 387.2v5.8M202 387.2v5.8M203.4 387.2v5.8M204.9 387.2v5.8M206.3 387.2v5.8M207.5 387.2v5.8M208.9 387.2v5.8M210.4 387.2v5.8M211.8 387.2v5.8M213.3 387.2v5.8M214.7 387.2v5.8M216.1 387.2v5.8M217.6 387.2v5.8M219 387.2v5.8M220.5 387.2v5.8M221.9 387.2v5.8M223.1 387.2v5.8M224.5 387.2v5.8M226 387.2v5.8M227.4 387.2v5.8M228.9 387.2v5.8M230.3 387.2v5.8M231.7 387.2v5.8M233.2 387.2v5.8M234.6 387.2v5.8M236.1 387.2v5.8M237.3 387.2v5.8"/><path class="cls-23" d="M237.5 387.2v-5h-51.1v5h51.1"/><path class="cls-18" d="M186.6 384.1l3.1 3.1M188.5 382.2l5.1 5M192.6 382.2l5.1 5M196.7 382.2l5 5M200.5 382.2l5.1 5M204.6 382.2l5.1 5M208.7 382.2l5 5M212.5 382.2l5.1 5M216.6 382.2l5.1 5M220.7 382.2l5 5M224.8 382.2l5 5M228.6 382.2l5.1 5M232.7 382.2l5 4.8M236.8 382.2l.9.9"/><path class="cls-20" d="M237.5 393.4h-51.1M237.5 396.8h-51.1"/><path class="cls-18" d="M237.5 387.2h-51.1M237.5 393h-51.1"/><path class="cls-20" d="M237.5 382.2h-51.1M237.5 387.2h-51.1"/><path class="cls-19" d="M237.5 396.8h-51.1M237.5 382.2h-51.1"/><path class="cls-24" d="M318.4 382.2v14.6h-40.1v-14.6h40.1"/><path class="cls-23" d="M318.4 396.8v-3.4h-40.1v3.4h40.1"/><path class="cls-18" d="M278.5 395.8l1 1M280 393.4l3.3 3.4M284.1 393.4l3.3 3.4M288.1 393.4l3.4 3.4M292 393.4l3.3 3.4M296.1 393.4l3.3 3.4M300.1 393.4l3.4 3.4M304.2 393.4l3.4 3.4M308.1 393.4l3.3 3.4M312.1 393.4l3.4 3.4M316.2 393.4l2.4 2.4"/><path class="cls-23" d="M318.4 393.4v-.4h-40.1v.4h40.1M318.4 393v-5.8h-40.1v5.8h40.1"/><path class="cls-18" d="M278.5 387.2v5.8M280 387.2v5.8M281.4 387.2v5.8M282.6 387.2v5.8M284.1 387.2v5.8M285.5 387.2v5.8M286.9 387.2v5.8M288.4 387.2v5.8M289.8 387.2v5.8M291.3 387.2v5.8M292.7 387.2v5.8M294.1 387.2v5.8M295.6 387.2v5.8M297 387.2v5.8M298.2 387.2v5.8M299.7 387.2v5.8M301.1 387.2v5.8M302.5 387.2v5.8M304 387.2v5.8M305.4 387.2v5.8M306.9 387.2v5.8M308.3 387.2v5.8M309.7 387.2v5.8M311.2 387.2v5.8M312.4 387.2v5.8M313.8 387.2v5.8M315.3 387.2v5.8M316.7 387.2v5.8M318.1 387.2v5.8"/><path class="cls-23" d="M318.4 387.2v-5h-40.1v5h40.1"/><path class="cls-18" d="M278.5 383.8l3.4 3.4M280.7 382.2l5 5M284.8 382.2l5 5M288.9 382.2l5 5M292.9 382.2l5.1 5M296.8 382.2l5 5M300.9 382.2l5 5M304.9 382.2l5.1 5M308.8 382.2l5 5M312.9 382.2l5 5M316.9 382.2l1.7 1.6"/><path class="cls-20" d="M318.4 393.4h-40.1M318.4 396.8h-40.1"/><path class="cls-18" d="M318.4 387.2h-40.1M318.4 393h-40.1"/><path class="cls-20" d="M318.4 382.2h-40.1M318.4 387.2h-40.1"/><path class="cls-19" d="M318.4 396.8h-40.1M318.4 382.2h-40.1M70.2 389.6v7.2h3.4v1.9H29.7v-1.9H33v-7.2"/><path class="cls-1" d="M72.1 382.2h-41"/><path class="cls-19" d="M31.6 382.2h-.5"/><path class="cls-20" d="M70.2 396.8h3.4M33 396.8h-3.3"/><path class="cls-19" d="M31.1 387.2h41v2.4h-41zM68.3 389.6v-2.4M34.9 389.6v-2.4M72.1 387.2v2.4M53.7 387.2v2.4M68.3 387.2v2.4M49.6 387.2v2.4M53.7 387.2v2.4M34.9 387.2v2.4M49.6 387.2v2.4M31.1 387.2v2.4"/><path class="cls-23" d="M72 392.9h-1.8v-3.4H72"/><path class="cls-18" d="M71.7 389.6v3.4M72 392.9h-1.8v-3.4H72"/><path class="cls-20" d="M72.1 387.2v-5"/><path class="cls-23" d="M72.1 396.8h-1.9v-3.4h1.9"/><path class="cls-18" d="M70.5 396.1l.4.7M71.7 393.4l.7.8"/><path class="cls-20" d="M72.1 396.8h-1.9v-3.4h1.9M70.2 393.4v-3.8"/><path class="cls-23" d="M31.2 392.9h1.9v-3.4h-1.9"/><path class="cls-18" d="M31.8 389.6v3.4M31.2 392.9h1.9v-3.4h-1.9"/><path class="cls-20" d="M31.1 387.2v-5"/><path class="cls-23" d="M31.1 396.8H33v-3.4h-1.9"/><path class="cls-18" d="M31.6 393.4l1.7 1.7"/><path class="cls-20" d="M31.1 396.8H33v-3.4h-1.9M33 393.4v-3.8"/><path class="cls-19" d="M184.5 389.6v7.2h3.3v1.9h-66v-1.9h3.4v-7.2"/><path class="cls-1" d="M186.4 382.2h-63.1"/><path class="cls-19" d="M123.7 382.2h-.4"/><path class="cls-20" d="M184.5 396.8h3.3M125.2 396.8h-3.4"/><path class="cls-19" d="M123.3 387.2h63.1v2.4h-63.1zM182.5 389.6v-2.4M127.1 389.6v-2.4M186.4 387.2v2.4M167.4 387.2v2.4M182.5 387.2v2.4M163.3 387.2v2.4M167.4 387.2v2.4M146.3 387.2v2.4M163.3 387.2v2.4M142.2 387.2v2.4M146.3 387.2v2.4M127.1 387.2v2.4M142.2 387.2v2.4M123.3 387.2v2.4"/><path class="cls-23" d="M186.3 392.9h-1.9v-3.4h1.9"/><path class="cls-18" d="M184.9 389.6v3.4M186.4 389.6v3.4M186.3 392.9h-1.9v-3.4h1.9"/><path class="cls-20" d="M186.4 387.2v-5"/><path class="cls-23" d="M186.4 396.8h-1.9v-3.4h1.9"/><path class="cls-18" d="M184.7 394.2l1.9 1.9"/><path class="cls-20" d="M186.4 396.8h-1.9v-3.4h1.9M184.5 393.4v-3.8"/><path class="cls-23" d="M123.3 392.9h1.9v-3.4h-1.9"/><path class="cls-18" d="M124 389.6v3.4M123.3 392.9h1.9v-3.4h-1.9"/><path class="cls-20" d="M123.3 387.2v-5"/><path class="cls-23" d="M123.3 396.8h1.9v-3.4h-1.9"/><path class="cls-18" d="M123.7 393.4l1.7 1.7"/><path class="cls-20" d="M123.3 396.8h1.9v-3.4h-1.9M125.2 393.4v-3.8"/><path class="cls-19" d="M276.6 389.6v7.2h3.4v1.9h-43.9v-1.9h3.3v-7.2"/><path class="cls-1" d="M278.3 382.2h-40.8"/><path class="cls-19" d="M238 382.2h-.5"/><path class="cls-20" d="M276.6 396.8h3.4M239.4 396.8h-3.3"/><path class="cls-19" d="M237.5 387.2h40.8v2.4h-40.8zM274.7 389.6v-2.4M241.3 389.6v-2.4M278.3 387.2v2.4M260.1 387.2v2.4M274.7 387.2v2.4M256 387.2v2.4M260.1 387.2v2.4M241.3 387.2v2.4M256 387.2v2.4M237.5 387.2v2.4"/><path class="cls-23" d="M278.4 392.9h-1.9v-3.4h1.9"/><path class="cls-18" d="M277.1 389.6v3.4M278.4 392.9h-1.9v-3.4h1.9"/><path class="cls-20" d="M278.3 387.2v-5"/><path class="cls-23" d="M278.3 396.8h-1.7v-3.4h1.7"/><path class="cls-18" d="M276.9 394.2l1.6 1.6"/><path class="cls-20" d="M278.3 396.8h-1.7v-3.4h1.7M276.6 393.4v-3.8"/><path class="cls-23" d="M237.6 392.9h1.8v-3.4h-1.8"/><path class="cls-18" d="M238.7 389.6v3.4M237.6 392.9h1.8v-3.4h-1.8"/><path class="cls-20" d="M237.5 387.2v-5"/><path class="cls-23" d="M237.5 396.8h1.9v-3.4h-1.9"/><path class="cls-18" d="M237.7 395.1l1.7 1.7"/><path class="cls-20" d="M237.5 396.8h1.9v-3.4h-1.9M239.4 393.4v-3.8"/><path class="cls-24" d="M329.9 71.4V56.7h25.7v14.7h-25.7"/><path class="cls-23" d="M329.9 56.7v3.4h25.7v-3.4h-25.7"/><path class="cls-18" d="M330.1 58.6l1.5 1.5M332.3 56.7l3.4 3.4M336.1 56.7l3.4 3.4M340.2 56.7l3.4 3.4M344.3 56.7l3.4 3.4M348.1 56.7l3.4 3.4M352.2 56.7l3.4 3.4"/><path class="cls-23" d="M329.9 60.1v.7h25.7v-.7h-25.7"/><path class="cls-23" d="M329.9 60.8v5.5h25.7v-5.5h-25.7"/><path class="cls-18" d="M355.1 66.3v-5.5M353.7 66.3v-5.5M352.2 66.3v-5.5M350.8 66.3v-5.5M349.3 66.3v-5.5M347.9 66.3v-5.5M346.5 66.3v-5.5M345 66.3v-5.5M343.6 66.3v-5.5M342.1 66.3v-5.5M340.9 66.3v-5.5M339.5 66.3v-5.5M338.1 66.3v-5.5M336.6 66.3v-5.5M335.2 66.3v-5.5M333.7 66.3v-5.5M332.3 66.3v-5.5M330.9 66.3v-5.5"/><path class="cls-23" d="M329.9 66.3v5.1h25.7v-5.1h-25.7"/><path class="cls-18" d="M330.1 70.6l.8.8M330.1 66.6l4.6 4.8M333.7 66.3l5.1 5.1M337.8 66.3l5.1 5.1M341.9 66.3l5 5.1M345.7 66.3l5.1 5.1M349.8 66.3l5.1 5.1M353.9 66.3l1.9 1.9"/><path class="cls-20" d="M329.9 60.1h25.7M329.9 56.7h25.7"/><path class="cls-18" d="M329.9 66.3h25.7M329.9 60.8h25.7"/><path class="cls-20" d="M329.9 71.4h25.7M329.9 66.3h25.7"/><path class="cls-19" d="M329.9 56.7h25.7M329.9 71.4h25.7"/><path class="cls-24" d="M186.4 71.4V56.7H267v14.7h-80.6"/><path class="cls-23" d="M186.4 56.7v3.4H267v-3.4h-80.6"/><path class="cls-18" d="M186.6 59.4l.7.7M187.8 56.7l3.4 3.4M191.9 56.7l3.4 3.4M196 56.7l3.3 3.4M199.8 56.7l3.4 3.4M203.9 56.7l3.4 3.4M208 56.7l3.3 3.4M211.8 56.7l3.4 3.4M215.9 56.7l3.4 3.4M220 56.7l3.3 3.4M224.1 56.7l3.3 3.4M227.9 56.7l3.4 3.4M232 56.7l3.3 3.4M236.1 56.7l3.3 3.4M239.9 56.7l3.4 3.4M244 56.7l3.3 3.4M248.1 56.7l3.3 3.4M251.9 56.7l3.4 3.4M256 56.7l3.3 3.4M260.1 56.7l3.3 3.4M264.1 56.7l3.2 3.1"/><path class="cls-23" d="M186.4 60.1v.7H267v-.7h-80.6"/><path class="cls-23" d="M186.4 60.8v5.5H267v-5.5h-80.6"/><path class="cls-18" d="M267 66.3v-5.5M265.8 66.3v-5.5M264.4 66.3v-5.5M262.9 66.3v-5.5M261.5 66.3v-5.5M260.1 66.3v-5.5M258.6 66.3v-5.5M257.2 66.3v-5.5M255.7 66.3v-5.5M254.3 66.3v-5.5M252.9 66.3v-5.5M251.7 66.3v-5.5M250.2 66.3v-5.5M248.8 66.3v-5.5M247.3 66.3v-5.5M245.9 66.3v-5.5M244.5 66.3v-5.5M243 66.3v-5.5M241.6 66.3v-5.5M240.1 66.3v-5.5M238.7 66.3v-5.5M237.3 66.3v-5.5M236.1 66.3v-5.5M234.6 66.3v-5.5M233.2 66.3v-5.5M231.7 66.3v-5.5M230.3 66.3v-5.5M228.9 66.3v-5.5M227.4 66.3v-5.5M226 66.3v-5.5M224.5 66.3v-5.5M223.1 66.3v-5.5M221.9 66.3v-5.5M220.5 66.3v-5.5M219 66.3v-5.5M217.6 66.3v-5.5M216.1 66.3v-5.5M214.7 66.3v-5.5M213.3 66.3v-5.5M211.8 66.3v-5.5M210.4 66.3v-5.5M208.9 66.3v-5.5M207.5 66.3v-5.5M206.3 66.3v-5.5M204.9 66.3v-5.5M203.4 66.3v-5.5M202 66.3v-5.5M200.5 66.3v-5.5M199.1 66.3v-5.5M197.7 66.3v-5.5M196.2 66.3v-5.5M194.8 66.3v-5.5M193.3 66.3v-5.5M192.1 66.3v-5.5M190.7 66.3v-5.5M189.3 66.3v-5.5M187.8 66.3v-5.5"/><path class="cls-23" d="M186.4 66.3v5.1H267v-5.1h-80.6"/><path class="cls-18" d="M186.6 67.3l3.9 4.1M189.5 66.3l5 5.1M193.6 66.3l5 5.1M197.4 66.3l5.1 5.1M201.5 66.3l5 5.1M205.6 66.3l5 5.1M209.4 66.3l5.1 5.1M213.5 66.3l5 5.1M217.6 66.3l5 5.1M221.4 66.3l5.1 5.1M225.5 66.3l5 5.1M229.6 66.3l5 5.1M233.7 66.3l5 5.1M237.5 66.3l5 5.1M241.6 66.3l5 5.1M245.7 66.3l5 5.1M249.5 66.3l5 5.1M253.6 66.3l5 5.1M257.7 66.3l5 5.1M261.5 66.3l5 5.1M265.6 66.3l1.7 1.5"/><path class="cls-20" d="M186.4 60.1H267M186.4 56.7H267"/><path class="cls-18" d="M186.4 66.3H267M186.4 60.8H267"/><path class="cls-20" d="M186.4 71.4H267M186.4 66.3H267"/><path class="cls-19" d="M186.4 56.7H267M186.4 71.4H267"/><path class="cls-24" d="M72.1 71.4V56.7h51.2v14.7H72.1"/><path class="cls-23" d="M72.1 56.7v3.4h51.2v-3.4H72.1"/><path class="cls-18" d="M72.4 57.4l2.6 2.7M75.7 56.7l3.4 3.4M79.6 56.7l3.3 3.4M83.7 56.7l3.3 3.4M87.7 56.7l3.4 3.4M91.6 56.7l3.3 3.4M95.7 56.7l3.3 3.4M99.7 56.7l3.4 3.4M103.6 56.7l3.3 3.4M107.7 56.7l3.3 3.4M111.7 56.7l3.4 3.4M115.8 56.7l3.4 3.4M119.7 56.7l3.3 3.4"/><path class="cls-23" d="M72.1 60.1v.7h51.2v-.7H72.1"/><path class="cls-23" d="M72.1 60.8v5.5h51.2v-5.5H72.1"/><path class="cls-18" d="M122.5 66.3v-5.5M121.1 66.3v-5.5M119.7 66.3v-5.5M118.2 66.3v-5.5M117 66.3v-5.5M115.6 66.3v-5.5M114.1 66.3v-5.5M112.7 66.3v-5.5M111.3 66.3v-5.5M109.8 66.3v-5.5M108.4 66.3v-5.5M106.9 66.3v-5.5M105.5 66.3v-5.5M104.1 66.3v-5.5M102.6 66.3v-5.5M101.4 66.3v-5.5M100 66.3v-5.5M98.5 66.3v-5.5M97.1 66.3v-5.5M95.7 66.3v-5.5M94.2 66.3v-5.5M92.8 66.3v-5.5M91.3 66.3v-5.5M89.9 66.3v-5.5M88.5 66.3v-5.5M87 66.3v-5.5M85.8 66.3v-5.5M84.4 66.3v-5.5M82.9 66.3v-5.5M81.5 66.3v-5.5M80.1 66.3v-5.5M78.6 66.3v-5.5M77.2 66.3v-5.5M75.7 66.3v-5.5M74.3 66.3v-5.5M72.9 66.3v-5.5"/><path class="cls-23" d="M72.1 66.3v5.1h51.2v-5.1H72.1"/><path class="cls-18" d="M72.4 69.4l1.9 2M73.1 66.3l5 5.1M77.2 66.3l5 5.1M81.3 66.3l5 5.1M85.3 66.3l5.1 5.1M89.2 66.3l5 5.1M93.3 66.3l5 5.1M97.3 66.3l5.1 5.1M101.2 66.3l5 5.1M105.3 66.3l5 5.1M109.3 66.3l5.1 5.1M113.2 66.3l5 5.1M117.3 66.3l5 5.1M121.3 66.3l2.2 2.2"/><path class="cls-20" d="M72.1 60.1h51.2M72.1 56.7h51.2"/><path class="cls-18" d="M72.1 66.3h51.2M72.1 60.8h51.2"/><path class="cls-20" d="M72.1 71.4h51.2M72.1 66.3h51.2"/><path class="cls-19" d="M72.1 56.7h51.2M72.1 71.4h51.2"/><path class="cls-24" d="M.1 71.4V56.7h31v14.7H.1"/><path class="cls-23" d="M.1 56.7v3.4h31v-3.4H.1"/><path class="cls-18" d="M.4 57.4l2.4 2.7M3.5 56.7l3.4 3.4M7.6 56.7l3.3 3.4M11.4 56.7l3.4 3.4M15.5 56.7l3.4 3.4M19.6 56.7l3.3 3.4M23.4 56.7l3.4 3.4M27.5 56.7l3.4 3.4"/><path class="cls-23" d="M.1 60.1v.7h31v-.7H.1"/><path class="cls-23" d="M.1 60.8v5.5h31v-5.5H.1"/><path class="cls-18" d="M30.4 66.3v-5.5M28.9 66.3v-5.5M27.5 66.3v-5.5M26.3 66.3v-5.5M24.9 66.3v-5.5M23.4 66.3v-5.5M22 66.3v-5.5M20.5 66.3v-5.5M19.1 66.3v-5.5M17.7 66.3v-5.5M16.2 66.3v-5.5M14.8 66.3v-5.5M13.3 66.3v-5.5M12.1 66.3v-5.5M10.7 66.3v-5.5M9.3 66.3v-5.5M7.8 66.3v-5.5M6.4 66.3v-5.5M4.9 66.3v-5.5M3.5 66.3v-5.5M2.1 66.3v-5.5M.6 66.3v-5.5"/><path class="cls-23" d="M.1 66.3v5.1h31v-5.1H.1"/><path class="cls-18" d="M.4 69.4l1.7 2M1.1 66.3l5 5.1M4.9 66.3l5.1 5.1M9 66.3l5.1 5.1M13.1 66.3l5 5.1M17.2 66.3l5 5.1M21 66.3l5.1 5.1M25.1 66.3l5 5.1M29.2 66.3l2.1 2.2"/><path class="cls-20" d="M.1 60.1h31M.1 56.7h31"/><path class="cls-18" d="M.1 66.3h31M.1 60.8h31"/><path class="cls-20" d="M.1 71.4h31M.1 66.3h31"/><path class="cls-19" d="M.1 56.7h31M.1 71.4h31M33 64.2v-7.5h-3.3v-1.9h43.9v1.9h-3.4v7.5"/><path class="cls-1" d="M31.1 71.4h41"/><path class="cls-19" d="M71.7 71.4h.4"/><path class="cls-20" d="M33 56.7h-3.3M70.2 56.7h3.4"/><path class="cls-19" d="M31.1 64.2h41v2.2h-41zM34.9 64.2v2.1M68.3 64.2v2.1M31.1 66.3v-2.1M49.6 66.3v-2.1M34.9 66.3v-2.1M53.7 66.3v-2.1M49.6 66.3v-2.1M68.3 66.3v-2.1M53.7 66.3v-2.1M72.1 66.3v-2.1"/><path class="cls-23" d="M31.2 60.7h1.9v3.4h-1.9"/><path class="cls-18" d="M31.8 64.2v-3.4M31.2 60.7h1.9v3.4h-1.9"/><path class="cls-20" d="M31.1 66.3v5.1"/><path class="cls-23" d="M31.1 56.7H33v3.4h-1.9"/><path class="cls-18" d="M31.6 56.7l1.7 1.7"/><path class="cls-20" d="M31.1 56.7H33v3.4h-1.9M33 60.1v4.1"/><path class="cls-23" d="M72 60.7h-1.8v3.4H72"/><path class="cls-18" d="M71.7 64.2v-3.4M72 60.7h-1.8v3.4H72"/><path class="cls-20" d="M72.1 66.3v5.1"/><path class="cls-23" d="M72.1 56.7h-1.9v3.4h1.9"/><path class="cls-18" d="M70.5 59.4l.4.7M71.7 56.7l.7.7"/><path class="cls-20" d="M72.1 56.7h-1.9v3.4h1.9M70.2 60.1v4.1"/><path class="cls-1" d="M123.3 71.4h63.1"/><path class="cls-19" d="M185.9 71.4h.5M123.3 64.2h63.1v2.2h-63.1zM127.1 64.2v2.1M182.5 64.2v2.1M123.3 66.3v-2.1M142.2 66.3v-2.1M127.1 66.3v-2.1M146.3 66.3v-2.1M142.2 66.3v-2.1M163.3 66.3v-2.1M146.3 66.3v-2.1M167.4 66.3v-2.1M163.3 66.3v-2.1M182.5 66.3v-2.1M167.4 66.3v-2.1M186.4 66.3v-2.1"/><path class="cls-20" d="M123.3 66.3v5.1"/><path class="cls-19" d="M187.8 56.7v-1.9"/><path class="cls-9" d="M187.8 54.8h-66"/><path class="cls-19" d="M121.8 54.8v1"/><path class="cls-23" d="M123.3 60.7h1.9v3.4h-1.9"/><path class="cls-18" d="M124 64.2v-3.4M123.3 60.7h1.9v3.4h-1.9"/><path class="cls-23" d="M123.3 56.7h1.9v3.4h-1.9"/><path class="cls-18" d="M123.7 56.7l1.7 1.7"/><path class="cls-20" d="M123.3 56.7h1.9v3.4h-1.9M125.2 60.1v4.1"/><path class="cls-23" d="M186.3 60.7h-1.9v3.4h1.9"/><path class="cls-18" d="M186.4 64.2v-3.4M184.9 64.2v-3.4M186.3 60.7h-1.9v3.4h1.9"/><path class="cls-20" d="M186.4 66.3v5.1"/><path class="cls-23" d="M186.4 56.7h-1.9v3.4h1.9"/><path class="cls-18" d="M184.7 57.4l1.9 2"/><path class="cls-20" d="M186.4 56.7h-1.9v3.4h1.9M184.5 60.1v4.1"/><path class="cls-19" d="M268.9 64.2v-7.5h-3.3v-1.9h66v1.9h-3.4v7.5"/><path class="cls-1" d="M267 71.4h62.9"/><path class="cls-20" d="M268.9 56.7h-3.3M328.2 56.7h3.4"/><path class="cls-19" d="M267 64.2h62.9v2.2H267zM270.6 64.2v2.1M326.3 64.2v2.1M267 66.3v-2.1M286 66.3v-2.1M270.6 66.3v-2.1M290.1 66.3v-2.1M286 66.3v-2.1M306.9 66.3v-2.1M290.1 66.3v-2.1M311.2 66.3v-2.1M306.9 66.3v-2.1M326.3 66.3v-2.1M311.2 66.3v-2.1M329.9 66.3v-2.1"/><path class="cls-23" d="M267.1 60.7h1.8v3.4h-1.8"/><path class="cls-18" d="M268.5 64.2v-3.4M267.1 60.7h1.8v3.4h-1.8"/><path class="cls-20" d="M267 66.3v5.1"/><path class="cls-23" d="M267 56.7h1.9v3.4H267"/><path class="cls-18" d="M267.3 59.8l.2.3M268 56.7l1.2 1"/><path class="cls-20" d="M267 56.7h1.9v3.4H267M268.9 60.1v4.1"/><path class="cls-23" d="M330 60.7h-1.9v3.4h1.9"/><path class="cls-18" d="M329.4 64.2v-3.4M330 60.7h-1.9v3.4h1.9"/><path class="cls-20" d="M329.9 66.3v5.1"/><path class="cls-23" d="M329.9 56.7h-1.7v3.4h1.7"/><path class="cls-18" d="M328.5 57l1.6 1.6"/><path class="cls-20" d="M329.9 56.7h-1.7v3.4h1.7M328.2 60.1v4.1"/><path class="cls-23" d="M7.3 387.2H.1V66.3h7.2v320.9"/><path class="cls-18" d="M7.6 68.7l-2.7-2.4M7.6 72.8l-6.5-6.5M7.6 76.6L.4 69.4M7.6 80.7L.4 73.5M7.6 84.8L.4 77.6M7.6 88.9L.4 81.7M7.6 92.7L.4 85.5M7.6 96.8L.4 89.6M7.6 100.9L.4 93.7M7.6 104.7L.4 97.5M7.6 108.8l-7.2-7.2M7.6 112.9l-7.2-7.2M7.6 116.7l-7.2-7.2M7.6 120.8l-7.2-7.2M7.6 124.9l-7.2-7.2M7.6 129l-7.2-7.2M7.6 132.8l-7.2-7.2M7.6 136.9l-7.2-7.2M7.6 141l-7.2-7.2M7.6 144.8l-7.2-7.2M7.6 148.9l-7.2-7.2M7.6 153l-7.2-7.2M7.6 156.8l-7.2-7.2M7.6 160.9l-7.2-7.2M7.6 165l-7.2-7.2M7.6 169l-7.2-7.2M7.6 172.9l-7.2-7.2M7.6 177l-7.2-7.2M7.6 181l-7.2-7.2M7.6 184.9l-7.2-7.2M7.6 189l-7.2-7.2M7.6 193l-7.2-7.2M7.6 197.1l-7.2-7.2M7.6 201l-7.2-7.2M7.6 205l-7.2-7.2M7.6 209.1l-7.2-7.2M7.6 213l-7.2-7.2M7.6 217l-7.2-7.2M7.6 221.1l-7.2-7.2M7.6 225l-7.2-7.2M7.6 229l-7.2-7.2M7.6 233.1l-7.2-7.2M7.6 237.2L.4 230M7.6 241l-7.2-7.2M7.6 245.1l-7.2-7.2M7.6 249.2L.4 242M7.6 253l-7.2-7.2M7.6 257.1l-7.2-7.2M7.6 261.2L.4 254M7.6 265l-7.2-7.2M7.6 269.1l-7.2-7.2M7.6 273.2L.4 266M7.6 277.3l-7.2-7.2M7.6 281.1l-7.2-7.2M7.6 285.2L.4 278M7.6 289.3l-7.2-7.2M7.6 293.1l-7.2-7.2M7.6 297.2L.4 290M7.6 301.3l-7.2-7.2M7.6 305.4l-7.2-7.2M7.6 309.2L.4 302M7.6 313.3l-7.2-7.2M7.6 317.4l-7.2-7.2M7.6 321.2L.4 314M7.6 325.3l-7.2-7.2M7.6 329.4l-7.2-7.2M7.6 333.2L.4 326M7.6 337.3l-7.2-7.2M7.6 341.4l-7.2-7.2M7.6 345.4l-7.2-7.2M7.6 349.3l-7.2-7.2M7.6 353.4l-7.2-7.2M7.6 357.4l-7.2-7.2M7.6 361.3l-7.2-7.2M7.6 365.4l-7.2-7.2M7.6 369.4l-7.2-7.2M7.6 373.3l-7.2-7.2M7.6 377.4l-7.2-7.2M7.6 381.4l-7.2-7.2M7.6 385.5l-7.2-7.2M5.2 387.2l-4.8-5M1.3 387.2l-.9-1M4.9 387.2l2.7-2.4M.9 387.2l6.7-6.5M.4 383.8l7.2-7.2M.4 380l7.2-7.2M.4 375.9l7.2-7.2M.4 371.8l7.2-7.2M.4 367.8l7.2-7.2M.4 363.9l7.2-7.2M.4 359.8l7.2-7.2M.4 355.8l7.2-7.2M.4 351.9l7.2-7.2M.4 347.8l7.2-7.2M.4 343.8l7.2-7.2M.4 339.7l7.2-7.2M.4 335.8l7.2-7.2M.4 331.8l7.2-7.2M.4 327.7l7.2-7.2M.4 323.8l7.2-7.2M.4 319.8l7.2-7.2M.4 315.7l7.2-7.2M.4 311.8l7.2-7.2M.4 307.8l7.2-7.2M.4 303.7l7.2-7.2M.4 299.6l7.2-7.2M.4 295.8l7.2-7.2M.4 291.7l7.2-7.2M.4 287.6l7.2-7.2M.4 283.8l7.2-7.2M.4 279.7l7.2-7.2M.4 275.6l7.2-7.2M.4 271.8l7.2-7.2M.4 267.7l7.2-7.2M.4 263.6l7.2-7.2M.4 259.5l7.2-7.2M.4 255.7l7.2-7.2M.4 251.6l7.2-7.2M.4 247.5l7.2-7.2M.4 243.7l7.2-7.2M.4 239.6l7.2-7.2M.4 235.5l7.2-7.2M.4 231.4l7.2-7.2M.4 227.6l7.2-7.2M.4 223.5l7.2-7.2M.4 219.4l7.2-7.2M.4 215.6l7.2-7.2M.4 211.5l7.2-7.2M.4 207.4l7.2-7.2M.4 203.6l7.2-7.2M.4 199.5l7.2-7.2M.4 195.4l7.2-7.2M.4 191.4l7.2-7.2M.4 187.5l7.2-7.2M.4 183.4l7.2-7.2M.4 179.4l7.2-7.2M.4 175.5l7.2-7.2M.4 171.4l7.2-7.2M.4 167.4l7.2-7.2M.4 163.5l7.2-7.2M.4 159.4l7.2-7.2M.4 155.4l7.2-7.2M.4 151.3l7.2-7.2M.4 147.4l7.2-7.2M.4 143.4l7.2-7.2M.4 139.3l7.2-7.2M.4 135.4l7.2-7.2M.4 131.4l7.2-7.2M.4 127.3l7.2-7.2M.4 123.2l7.2-7.2M.4 119.4l7.2-7.2M.4 115.3l7.2-7.2M.4 111.2l7.2-7.2M.4 107.4l7.2-7.2M.4 103.3l7.2-7.2M.4 99.2L7.6 92M.4 95.4l7.2-7.2M.4 91.3l7.2-7.2M.4 87.2L7.6 80M.4 83.1l7.2-7.2M.4 79.3l7.2-7.2M.4 75.2L7.6 68M.4 71.1l4.8-4.8M.4 67.3l.7-1"/><path class="cls-23" d="M.1 387.2h7.2V66.3H.1v320.9"/><path class="cls-18" d="M7.6 68.7l-2.7-2.4M7.6 72.8l-6.5-6.5M7.6 76.6L.4 69.4M7.6 80.7L.4 73.5M7.6 84.8L.4 77.6M7.6 88.9L.4 81.7M7.6 92.7L.4 85.5M7.6 96.8L.4 89.6M7.6 100.9L.4 93.7M7.6 104.7L.4 97.5M7.6 108.8l-7.2-7.2M7.6 112.9l-7.2-7.2M7.6 116.7l-7.2-7.2M7.6 120.8l-7.2-7.2M7.6 124.9l-7.2-7.2M7.6 129l-7.2-7.2M7.6 132.8l-7.2-7.2M7.6 136.9l-7.2-7.2M7.6 141l-7.2-7.2M7.6 144.8l-7.2-7.2M7.6 148.9l-7.2-7.2M7.6 153l-7.2-7.2M7.6 156.8l-7.2-7.2M7.6 160.9l-7.2-7.2M7.6 165l-7.2-7.2M7.6 169l-7.2-7.2M7.6 172.9l-7.2-7.2M7.6 177l-7.2-7.2M7.6 181l-7.2-7.2M7.6 184.9l-7.2-7.2M7.6 189l-7.2-7.2M7.6 193l-7.2-7.2M7.6 197.1l-7.2-7.2M7.6 201l-7.2-7.2M7.6 205l-7.2-7.2M7.6 209.1l-7.2-7.2M7.6 213l-7.2-7.2M7.6 217l-7.2-7.2M7.6 221.1l-7.2-7.2M7.6 225l-7.2-7.2M7.6 229l-7.2-7.2M7.6 233.1l-7.2-7.2M7.6 237.2L.4 230M7.6 241l-7.2-7.2M7.6 245.1l-7.2-7.2M7.6 249.2L.4 242M7.6 253l-7.2-7.2M7.6 257.1l-7.2-7.2M7.6 261.2L.4 254M7.6 265l-7.2-7.2M7.6 269.1l-7.2-7.2M7.6 273.2L.4 266M7.6 277.3l-7.2-7.2M7.6 281.1l-7.2-7.2M7.6 285.2L.4 278M7.6 289.3l-7.2-7.2M7.6 293.1l-7.2-7.2M7.6 297.2L.4 290M7.6 301.3l-7.2-7.2M7.6 305.4l-7.2-7.2M7.6 309.2L.4 302M7.6 313.3l-7.2-7.2M7.6 317.4l-7.2-7.2M7.6 321.2L.4 314M7.6 325.3l-7.2-7.2M7.6 329.4l-7.2-7.2M7.6 333.2L.4 326M7.6 337.3l-7.2-7.2M7.6 341.4l-7.2-7.2M7.6 345.4l-7.2-7.2M7.6 349.3l-7.2-7.2M7.6 353.4l-7.2-7.2M7.6 357.4l-7.2-7.2M7.6 361.3l-7.2-7.2M7.6 365.4l-7.2-7.2M7.6 369.4l-7.2-7.2M7.6 373.3l-7.2-7.2M7.6 377.4l-7.2-7.2M7.6 381.4l-7.2-7.2M7.6 385.5l-7.2-7.2M5.2 387.2l-4.8-5M1.3 387.2l-.9-1M4.9 387.2l2.7-2.4M.9 387.2l6.7-6.5M.4 383.8l7.2-7.2M.4 380l7.2-7.2M.4 375.9l7.2-7.2M.4 371.8l7.2-7.2M.4 367.8l7.2-7.2M.4 363.9l7.2-7.2M.4 359.8l7.2-7.2M.4 355.8l7.2-7.2M.4 351.9l7.2-7.2M.4 347.8l7.2-7.2M.4 343.8l7.2-7.2M.4 339.7l7.2-7.2M.4 335.8l7.2-7.2M.4 331.8l7.2-7.2M.4 327.7l7.2-7.2M.4 323.8l7.2-7.2M.4 319.8l7.2-7.2M.4 315.7l7.2-7.2M.4 311.8l7.2-7.2M.4 307.8l7.2-7.2M.4 303.7l7.2-7.2M.4 299.6l7.2-7.2M.4 295.8l7.2-7.2M.4 291.7l7.2-7.2M.4 287.6l7.2-7.2M.4 283.8l7.2-7.2M.4 279.7l7.2-7.2M.4 275.6l7.2-7.2M.4 271.8l7.2-7.2M.4 267.7l7.2-7.2M.4 263.6l7.2-7.2M.4 259.5l7.2-7.2M.4 255.7l7.2-7.2M.4 251.6l7.2-7.2M.4 247.5l7.2-7.2M.4 243.7l7.2-7.2M.4 239.6l7.2-7.2M.4 235.5l7.2-7.2M.4 231.4l7.2-7.2M.4 227.6l7.2-7.2M.4 223.5l7.2-7.2M.4 219.4l7.2-7.2M.4 215.6l7.2-7.2M.4 211.5l7.2-7.2M.4 207.4l7.2-7.2M.4 203.6l7.2-7.2M.4 199.5l7.2-7.2M.4 195.4l7.2-7.2M.4 191.4l7.2-7.2M.4 187.5l7.2-7.2M.4 183.4l7.2-7.2M.4 179.4l7.2-7.2M.4 175.5l7.2-7.2M.4 171.4l7.2-7.2M.4 167.4l7.2-7.2M.4 163.5l7.2-7.2M.4 159.4l7.2-7.2M.4 155.4l7.2-7.2M.4 151.3l7.2-7.2M.4 147.4l7.2-7.2M.4 143.4l7.2-7.2M.4 139.3l7.2-7.2M.4 135.4l7.2-7.2M.4 131.4l7.2-7.2M.4 127.3l7.2-7.2M.4 123.2l7.2-7.2M.4 119.4l7.2-7.2M.4 115.3l7.2-7.2M.4 111.2l7.2-7.2M.4 107.4l7.2-7.2M.4 103.3l7.2-7.2M.4 99.2L7.6 92M.4 95.4l7.2-7.2M.4 91.3l7.2-7.2M.4 87.2L7.6 80M.4 83.1l7.2-7.2M.4 79.3l7.2-7.2M.4 75.2L7.6 68M.4 71.1l4.8-4.8M.4 67.3l.7-1"/><path class="cls-20" d="M7.3 387.2V66.3M.1 387.2V66.3M7.3 66.3H.1M.1 387.2V66.3M7.3 387.2V66.3M7.3 387.2H.1"/><path class="cls-23" d="M93.3 97.5h5.5v257.1h-5.5V97.5"/><path class="cls-18" d="M99 99.9l-2.6-2.4M99 104l-5.5-5.5M99 108.1l-5.5-5.5M99 112.2l-5.5-5.6M99 116l-5.5-5.5M99 120.1l-5.5-5.5M99 124.2l-5.5-5.6M99 128l-5.5-5.5M99 132.1l-5.5-5.5M99 136.2l-5.5-5.6M99 140.2l-5.5-5.5M99 144.1l-5.5-5.5M99 148.2l-5.5-5.6M99 152.2l-5.5-5.5M99 156.1l-5.5-5.5M99 160.2l-5.5-5.6M99 164.2l-5.5-5.5M99 168.1l-5.5-5.5M99 172.2l-5.5-5.6M99 176.2l-5.5-5.5M99 180.3l-5.5-5.5M99 184.2l-5.5-5.6M99 188.2l-5.5-5.5M99 192.3l-5.5-5.5M99 196.2l-5.5-5.6M99 200.2l-5.5-5.5M99 204.3l-5.5-5.5M99 208.2l-5.5-5.6M99 212.2l-5.5-5.5M99 216.3l-5.5-5.5M99 220.4l-5.5-5.5M99 224.2l-5.5-5.5M99 228.3l-5.5-5.5M99 232.4l-5.5-5.5M99 236.2l-5.5-5.5M99 240.3l-5.5-5.5M99 244.4l-5.5-5.5M99 248.2l-5.5-5.5M99 252.3l-5.5-5.5M99 256.4l-5.5-5.5M99 260.5l-5.5-5.5M99 264.3l-5.5-5.5M99 268.4l-5.5-5.5M99 272.5l-5.5-5.5M99 276.3l-5.5-5.5M99 280.4l-5.5-5.5M99 284.5l-5.5-5.5M99 288.6l-5.5-5.6M99 292.4l-5.5-5.5M99 296.5l-5.5-5.5M99 300.6l-5.5-5.6M99 304.4l-5.5-5.5M99 308.5l-5.5-5.5M99 312.6l-5.5-5.6M99 316.4l-5.5-5.5M99 320.5l-5.5-5.5M99 324.6l-5.5-5.6M99 328.6l-5.5-5.5M99 332.5l-5.5-5.5M99 336.6l-5.5-5.6M99 340.6l-5.5-5.5M99 344.5l-5.5-5.5M99 348.6l-5.5-5.6M99 352.6l-5.5-5.5M96.9 354.6l-3.4-3.6M97.8 354.6l1.2-1.2M93.7 354.6l5.3-5.3M93.5 351l5.5-5.6M93.5 346.9l5.5-5.5M93.5 342.8l5.5-5.5M93.5 339l5.5-5.6M93.5 334.9l5.5-5.5M93.5 330.8l5.5-5.5M93.5 327l5.5-5.6M93.5 322.9l5.5-5.5M93.5 318.8l5.5-5.5M93.5 314.7l5.5-5.5M93.5 310.9l5.5-5.5M93.5 306.8l5.5-5.5M93.5 302.7l5.5-5.5M93.5 298.9l5.5-5.5M93.5 294.8l5.5-5.5M93.5 290.7l5.5-5.5M93.5 286.9l5.5-5.5M93.5 282.8l5.5-5.5M93.5 278.7l5.5-5.5M93.5 274.6l5.5-5.5M93.5 270.8l5.5-5.5M93.5 266.7l5.5-5.5M93.5 262.6l5.5-5.5M93.5 258.8l5.5-5.5M93.5 254.7l5.5-5.5M93.5 250.6l5.5-5.5M93.5 246.6L99 241M93.5 242.7l5.5-5.5M93.5 238.6l5.5-5.5M93.5 234.6L99 229M93.5 230.7l5.5-5.5M93.5 226.6l5.5-5.5M93.5 222.6L99 217M93.5 218.7l5.5-5.5M93.5 214.6l5.5-5.5M93.5 210.6L99 205M93.5 206.5L99 201M93.5 202.6l5.5-5.5M93.5 198.6L99 193M93.5 194.5L99 189M93.5 190.6l5.5-5.5M93.5 186.6L99 181M93.5 182.5L99 177M93.5 178.6l5.5-5.5M93.5 174.6L99 169M93.5 170.5L99 165M93.5 166.4l5.5-5.5M93.5 162.6L99 157M93.5 158.5L99 153M93.5 154.4l5.5-5.5M93.5 150.6L99 145M93.5 146.5L99 141M93.5 142.4l5.5-5.5M93.5 138.3l5.5-5.5M93.5 134.5L99 129M93.5 130.4l5.5-5.5M93.5 126.3l5.5-5.5M93.5 122.5L99 117M93.5 118.4l5.5-5.5M93.5 114.3l5.5-5.5M93.5 110.5L99 105M93.5 106.4l5.5-5.5M93.5 102.3l4.8-4.8M93.5 98.2l.7-.7"/><path class="cls-23" d="M98.8 97.5h-5.5v257.1h5.5V97.5"/><path class="cls-18" d="M99 99.9l-2.6-2.4M99 104l-5.5-5.5M99 108.1l-5.5-5.5M99 112.2l-5.5-5.6M99 116l-5.5-5.5M99 120.1l-5.5-5.5M99 124.2l-5.5-5.6M99 128l-5.5-5.5M99 132.1l-5.5-5.5M99 136.2l-5.5-5.6M99 140.2l-5.5-5.5M99 144.1l-5.5-5.5M99 148.2l-5.5-5.6M99 152.2l-5.5-5.5M99 156.1l-5.5-5.5M99 160.2l-5.5-5.6M99 164.2l-5.5-5.5M99 168.1l-5.5-5.5M99 172.2l-5.5-5.6M99 176.2l-5.5-5.5M99 180.3l-5.5-5.5M99 184.2l-5.5-5.6M99 188.2l-5.5-5.5M99 192.3l-5.5-5.5M99 196.2l-5.5-5.6M99 200.2l-5.5-5.5M99 204.3l-5.5-5.5M99 208.2l-5.5-5.6M99 212.2l-5.5-5.5M99 216.3l-5.5-5.5M99 220.4l-5.5-5.5M99 224.2l-5.5-5.5M99 228.3l-5.5-5.5M99 232.4l-5.5-5.5M99 236.2l-5.5-5.5M99 240.3l-5.5-5.5M99 244.4l-5.5-5.5M99 248.2l-5.5-5.5M99 252.3l-5.5-5.5M99 256.4l-5.5-5.5M99 260.5l-5.5-5.5M99 264.3l-5.5-5.5M99 268.4l-5.5-5.5M99 272.5l-5.5-5.5M99 276.3l-5.5-5.5M99 280.4l-5.5-5.5M99 284.5l-5.5-5.5M99 288.6l-5.5-5.6M99 292.4l-5.5-5.5M99 296.5l-5.5-5.5M99 300.6l-5.5-5.6M99 304.4l-5.5-5.5M99 308.5l-5.5-5.5M99 312.6l-5.5-5.6M99 316.4l-5.5-5.5M99 320.5l-5.5-5.5M99 324.6l-5.5-5.6M99 328.6l-5.5-5.5M99 332.5l-5.5-5.5M99 336.6l-5.5-5.6M99 340.6l-5.5-5.5M99 344.5l-5.5-5.5M99 348.6l-5.5-5.6M99 352.6l-5.5-5.5M96.9 354.6l-3.4-3.6M97.8 354.6l1.2-1.2M93.7 354.6l5.3-5.3M93.5 351l5.5-5.6M93.5 346.9l5.5-5.5M93.5 342.8l5.5-5.5M93.5 339l5.5-5.6M93.5 334.9l5.5-5.5M93.5 330.8l5.5-5.5M93.5 327l5.5-5.6M93.5 322.9l5.5-5.5M93.5 318.8l5.5-5.5M93.5 314.7l5.5-5.5M93.5 310.9l5.5-5.5M93.5 306.8l5.5-5.5M93.5 302.7l5.5-5.5M93.5 298.9l5.5-5.5M93.5 294.8l5.5-5.5M93.5 290.7l5.5-5.5M93.5 286.9l5.5-5.5M93.5 282.8l5.5-5.5M93.5 278.7l5.5-5.5M93.5 274.6l5.5-5.5M93.5 270.8l5.5-5.5M93.5 266.7l5.5-5.5M93.5 262.6l5.5-5.5M93.5 258.8l5.5-5.5M93.5 254.7l5.5-5.5M93.5 250.6l5.5-5.5M93.5 246.6L99 241M93.5 242.7l5.5-5.5M93.5 238.6l5.5-5.5M93.5 234.6L99 229M93.5 230.7l5.5-5.5M93.5 226.6l5.5-5.5M93.5 222.6L99 217M93.5 218.7l5.5-5.5M93.5 214.6l5.5-5.5M93.5 210.6L99 205M93.5 206.5L99 201M93.5 202.6l5.5-5.5M93.5 198.6L99 193M93.5 194.5L99 189M93.5 190.6l5.5-5.5M93.5 186.6L99 181M93.5 182.5L99 177M93.5 178.6l5.5-5.5M93.5 174.6L99 169M93.5 170.5L99 165M93.5 166.4l5.5-5.5M93.5 162.6L99 157M93.5 158.5L99 153M93.5 154.4l5.5-5.5M93.5 150.6L99 145M93.5 146.5L99 141M93.5 142.4l5.5-5.5M93.5 138.3l5.5-5.5M93.5 134.5L99 129M93.5 130.4l5.5-5.5M93.5 126.3l5.5-5.5M93.5 122.5L99 117M93.5 118.4l5.5-5.5M93.5 114.3l5.5-5.5M93.5 110.5L99 105M93.5 106.4l5.5-5.5M93.5 102.3l4.8-4.8M93.5 98.2l.7-.7"/><path class="cls-20" d="M93.3 97.5v257.1M98.8 97.5v253M98.8 97.5v253M93.3 97.5v257.1M93.3 71.4h5.5M98.8 350.5v4.1M98.8 354.6h-5.5"/><path class="cls-19" d="M93.3 73.3h5.5M93.3 95.8h5.5"/><path class="cls-20" d="M93.3 71.4h5.5M93.3 97.5h5.5"/><path class="cls-18" d="M93.1 73.2c-12.4 0-22.7 10.2-22.7 22.7M93.3 95.8H70.5"/><path class="cls-23" d="M212.5 157l7 7h226.1l6.9-7h-240"/><path class="cls-18" d="M450.6 159.2l-2.1-2.2M448.7 161.1l-4.1-4.1M446.5 163l-6-6M443.4 164l-6.9-7M439.6 164l-7-7M435.5 164l-7-7M431.4 164l-6.9-7M427.3 164l-6.9-7M423.5 164l-7-7M419.4 164l-6.9-7M415.3 164l-6.9-7M411.5 164l-7-7M407.4 164l-6.9-7M403.3 164l-6.9-7M399.5 164l-7-7M395.4 164l-6.9-7M391.3 164l-6.9-7M387.3 164l-7-7M383.4 164l-6.9-7M379.3 164l-6.9-7M375.3 164l-7-7M371.4 164l-6.9-7M367.3 164l-6.9-7M363.3 164l-7-7M359.2 164l-7-7M355.3 164l-6.9-7M351.3 164l-7-7M347.2 164l-7-7M343.3 164l-6.9-7M339.3 164l-7-7M335.2 164l-7-7M331.3 164l-6.9-7M327.3 164l-7-7M323.2 164l-7-7M319.1 164l-7-7M315.3 164l-7-7M311.2 164l-7-7M307.1 164l-7-7M303.3 164l-7-7M299.2 164l-7-7M295.1 164l-7-7M291.3 164l-7-7M287.2 164l-7-7M283.1 164l-7-7M279 164l-6.9-7M275.2 164l-7-7M271.1 164l-7-7M267 164l-6.9-7M263.2 164l-7-7M259.1 164l-7-7M255 164l-6.9-7M250.9 164l-6.9-7M247.1 164l-7-7M243 164l-6.9-7M238.9 164l-6.9-7M235.1 164l-7-7M231 164l-6.9-7M226.9 164l-6.9-7M223.1 164l-7-7M444.6 164l7-7M440.5 164l7-7M436.7 164l7-7M432.6 164l7-7M428.5 164l7-7M424.7 164l7-7M420.6 164l7-7M416.5 164l7-7M412.5 164l6.9-7M408.6 164l7-7M404.5 164l7-7M400.5 164l6.9-7M396.6 164l7-7M392.5 164l7-7M388.5 164l6.9-7M384.6 164l7-7M380.5 164l7-7M376.5 164l6.9-7M372.4 164l6.9-7M368.5 164l7-7M364.5 164l6.9-7M360.4 164l6.9-7M356.5 164l7-7M352.5 164l6.9-7M348.4 164l6.9-7M344.5 164l7-7M340.5 164l6.9-7M336.4 164l6.9-7M332.3 164l7-7M328.5 164l6.9-7M324.4 164l6.9-7M320.3 164l7-7M316.5 164l6.9-7M312.4 164l6.9-7M308.3 164l7-7M304.2 164l7-7M300.4 164l6.9-7M296.3 164l7-7M292.2 164l7-7M288.4 164l6.9-7M284.3 164l7-7M280.2 164l7-7M276.4 164l6.9-7M272.3 164l7-7M268.2 164l7-7M264.1 164l7-7M260.3 164l7-7M256.2 164l7-7M252.1 164l7-7M248.3 164l7-7M244.2 164l7-7M240.1 164l7-7M236.3 164l7-7M232.2 164l7-7M228.1 164l7-7M224.1 164l6.9-7M220.2 164l7-7M217.8 162.3l5.3-5.3M215.9 160.2l3.1-3.2M214 158.2l1.2-1.2"/><path class="cls-23" d="M212.5 157l7 7h226.1l6.9-7h-240"/><path class="cls-18" d="M450.6 159.2l-2.1-2.2M448.7 161.1l-4.1-4.1M446.5 163l-6-6M443.4 164l-6.9-7M439.6 164l-7-7M435.5 164l-7-7M431.4 164l-6.9-7M427.3 164l-6.9-7M423.5 164l-7-7M419.4 164l-6.9-7M415.3 164l-6.9-7M411.5 164l-7-7M407.4 164l-6.9-7M403.3 164l-6.9-7M399.5 164l-7-7M395.4 164l-6.9-7M391.3 164l-6.9-7M387.3 164l-7-7M383.4 164l-6.9-7M379.3 164l-6.9-7M375.3 164l-7-7M371.4 164l-6.9-7M367.3 164l-6.9-7M363.3 164l-7-7M359.2 164l-7-7M355.3 164l-6.9-7M351.3 164l-7-7M347.2 164l-7-7M343.3 164l-6.9-7M339.3 164l-7-7M335.2 164l-7-7M331.3 164l-6.9-7M327.3 164l-7-7M323.2 164l-7-7M319.1 164l-7-7M315.3 164l-7-7M311.2 164l-7-7M307.1 164l-7-7M303.3 164l-7-7M299.2 164l-7-7M295.1 164l-7-7M291.3 164l-7-7M287.2 164l-7-7M283.1 164l-7-7M279 164l-6.9-7M275.2 164l-7-7M271.1 164l-7-7M267 164l-6.9-7M263.2 164l-7-7M259.1 164l-7-7M255 164l-6.9-7M250.9 164l-6.9-7M247.1 164l-7-7M243 164l-6.9-7M238.9 164l-6.9-7M235.1 164l-7-7M231 164l-6.9-7M226.9 164l-6.9-7M223.1 164l-7-7M444.6 164l7-7M440.5 164l7-7M436.7 164l7-7M432.6 164l7-7M428.5 164l7-7M424.7 164l7-7M420.6 164l7-7M416.5 164l7-7M412.5 164l6.9-7M408.6 164l7-7M404.5 164l7-7M400.5 164l6.9-7M396.6 164l7-7M392.5 164l7-7M388.5 164l6.9-7M384.6 164l7-7M380.5 164l7-7M376.5 164l6.9-7M372.4 164l6.9-7M368.5 164l7-7M364.5 164l6.9-7M360.4 164l6.9-7M356.5 164l7-7M352.5 164l6.9-7M348.4 164l6.9-7M344.5 164l7-7M340.5 164l6.9-7M336.4 164l6.9-7M332.3 164l7-7M328.5 164l6.9-7M324.4 164l6.9-7M320.3 164l7-7M316.5 164l6.9-7M312.4 164l6.9-7M308.3 164l7-7M304.2 164l7-7M300.4 164l6.9-7M296.3 164l7-7M292.2 164l7-7M288.4 164l6.9-7M284.3 164l7-7M280.2 164l7-7M276.4 164l6.9-7M272.3 164l7-7M268.2 164l7-7M264.1 164l7-7M260.3 164l7-7M256.2 164l7-7M252.1 164l7-7M248.3 164l7-7M244.2 164l7-7M240.1 164l7-7M236.3 164l7-7M232.2 164l7-7M228.1 164l7-7M224.1 164l6.9-7M220.2 164l7-7M217.8 162.3l5.3-5.3M215.9 160.2l3.1-3.2M214 158.2l1.2-1.2"/><path class="cls-20" d="M452.5 157H216.6M445.6 164H219.5M445.6 164H219.5M348.4 157H216.6M452.5 157h-96.9"/><path class="cls-23" d="M219.5 265.5l-7 7h139.2v-7H219.5"/><path class="cls-18" d="M352 268.9l-3.4-3.4M351.5 272.5l-7-7M347.4 272.5l-6.9-7M343.6 272.5l-7-7M339.5 272.5l-7-7M335.4 272.5l-6.9-7M331.6 272.5l-7-7M327.5 272.5l-7-7M323.4 272.5l-6.9-7M319.3 272.5l-6.9-7M315.5 272.5l-7-7M311.4 272.5l-6.9-7M307.3 272.5l-6.9-7M303.5 272.5l-7-7M299.4 272.5l-6.9-7M295.3 272.5l-6.9-7M291.5 272.5l-7-7M287.4 272.5l-6.9-7M283.3 272.5l-6.9-7M279.3 272.5l-7-7M275.4 272.5l-6.9-7M271.3 272.5l-6.9-7M267.3 272.5l-7-7M263.4 272.5l-6.9-7M259.3 272.5l-6.9-7M255.3 272.5l-7-7M251.4 272.5l-6.9-7M247.3 272.5l-6.9-7M243.3 272.5l-7-7M239.2 272.5l-7-7M235.3 272.5l-6.9-7M231.3 272.5l-7-7M227.2 272.5l-7-7M223.3 272.5l-5.2-5.3M219.3 272.5l-3.4-3.4M215.2 272.5l-1.2-1.2M348.1 272.5l3.9-3.6M344.1 272.5l6.9-7M340.2 272.5l7-7M336.1 272.5l7-7M332.1 272.5l6.9-7M328.2 272.5l7-7M324.1 272.5l7-7M320.1 272.5l6.9-7M316.2 272.5l7-7M312.1 272.5l7-7M308.1 272.5l6.9-7M304 272.5l6.9-7M300.1 272.5l7-7M296.1 272.5l6.9-7M292 272.5l6.9-7M288.1 272.5l7-7M284.1 272.5l6.9-7M280 272.5l6.9-7M276.1 272.5l7-7M272.1 272.5l6.9-7M268 272.5l6.9-7M263.9 272.5l7-7M260.1 272.5l6.9-7M256 272.5l6.9-7M251.9 272.5l7-7M248.1 272.5l6.9-7M244 272.5l6.9-7M239.9 272.5l7-7M236.1 272.5l6.9-7M232 272.5l6.9-7M227.9 272.5l7-7M223.8 272.5l7-7M220 272.5l6.9-7M215.9 272.5l7-7"/><path class="cls-23" d="M219.5 265.5l-7 7h139.2v-7H219.5"/><path class="cls-18" d="M352 268.9l-3.4-3.4M351.5 272.5l-7-7M347.4 272.5l-6.9-7M343.6 272.5l-7-7M339.5 272.5l-7-7M335.4 272.5l-6.9-7M331.6 272.5l-7-7M327.5 272.5l-7-7M323.4 272.5l-6.9-7M319.3 272.5l-6.9-7M315.5 272.5l-7-7M311.4 272.5l-6.9-7M307.3 272.5l-6.9-7M303.5 272.5l-7-7M299.4 272.5l-6.9-7M295.3 272.5l-6.9-7M291.5 272.5l-7-7M287.4 272.5l-6.9-7M283.3 272.5l-6.9-7M279.3 272.5l-7-7M275.4 272.5l-6.9-7M271.3 272.5l-6.9-7M267.3 272.5l-7-7M263.4 272.5l-6.9-7M259.3 272.5l-6.9-7M255.3 272.5l-7-7M251.4 272.5l-6.9-7M247.3 272.5l-6.9-7M243.3 272.5l-7-7M239.2 272.5l-7-7M235.3 272.5l-6.9-7M231.3 272.5l-7-7M227.2 272.5l-7-7M223.3 272.5l-5.2-5.3M219.3 272.5l-3.4-3.4M215.2 272.5l-1.2-1.2M348.1 272.5l3.9-3.6M344.1 272.5l6.9-7M340.2 272.5l7-7M336.1 272.5l7-7M332.1 272.5l6.9-7M328.2 272.5l7-7M324.1 272.5l7-7M320.1 272.5l6.9-7M316.2 272.5l7-7M312.1 272.5l7-7M308.1 272.5l6.9-7M304 272.5l6.9-7M300.1 272.5l7-7M296.1 272.5l6.9-7M292 272.5l6.9-7M288.1 272.5l7-7M284.1 272.5l6.9-7M280 272.5l6.9-7M276.1 272.5l7-7M272.1 272.5l6.9-7M268 272.5l6.9-7M263.9 272.5l7-7M260.1 272.5l6.9-7M256 272.5l6.9-7M251.9 272.5l7-7M248.1 272.5l6.9-7M244 272.5l6.9-7M239.9 272.5l7-7M236.1 272.5l6.9-7M232 272.5l6.9-7M227.9 272.5l7-7M223.8 272.5l7-7M220 272.5l6.9-7M215.9 272.5l7-7"/><path class="cls-20" d="M351.7 265.5H219.5M311.2 272.5h-94.6M351.7 272.5h-33.3M311.2 272.5h-94.6M351.7 265.5H219.5M351.7 272.5h-33.3"/><path class="cls-23" d="M212.5 272.5l7-7V194h-7v78.5"/><path class="cls-18" d="M219.7 196.6l-2.8-2.6M219.7 200.7L213 194M219.7 204.8l-6.9-7M219.7 208.6l-6.9-6.9M219.7 212.7l-6.9-6.9M219.7 216.8l-6.9-7M219.7 220.6l-6.9-6.9M219.7 224.7l-6.9-6.9M219.7 228.8l-6.9-7M219.7 232.9l-6.9-7M219.7 236.7l-6.9-6.9M219.7 240.8l-6.9-7M219.7 244.9l-6.9-7M219.7 248.7l-6.9-6.9M219.7 252.8l-6.9-7M219.7 256.9l-6.9-7M219.7 261l-6.9-7M219.7 264.8l-6.9-7M218.1 267.2l-5.3-5.3M215.9 269.1l-3.1-3.1M214 271.3l-1.2-1.5M212.8 271.8l6.9-7M212.8 267.7l6.9-7M212.8 263.6l6.9-7M212.8 259.8l6.9-7M212.8 255.7l6.9-7M212.8 251.6l6.9-7M212.8 247.8l6.9-7M212.8 243.7l6.9-7M212.8 239.6l6.9-7M212.8 235.5l6.9-6.9M212.8 231.7l6.9-7M212.8 227.6l6.9-7M212.8 223.5l6.9-6.9M212.8 219.7l6.9-7M212.8 215.6l6.9-7M212.8 211.5l6.9-6.9M212.8 207.7l6.9-7M212.8 203.6l6.9-7M212.8 199.5l5.5-5.5M212.8 195.4l1.4-1.4"/><path class="cls-23" d="M212.5 272.5l7-7V194h-7v78.5"/><path class="cls-18" d="M219.7 196.6l-2.8-2.6M219.7 200.7L213 194M219.7 204.8l-6.9-7M219.7 208.6l-6.9-6.9M219.7 212.7l-6.9-6.9M219.7 216.8l-6.9-7M219.7 220.6l-6.9-6.9M219.7 224.7l-6.9-6.9M219.7 228.8l-6.9-7M219.7 232.9l-6.9-7M219.7 236.7l-6.9-6.9M219.7 240.8l-6.9-7M219.7 244.9l-6.9-7M219.7 248.7l-6.9-6.9M219.7 252.8l-6.9-7M219.7 256.9l-6.9-7M219.7 261l-6.9-7M219.7 264.8l-6.9-7M218.1 267.2l-5.3-5.3M215.9 269.1l-3.1-3.1M214 271.3l-1.2-1.5M212.8 271.8l6.9-7M212.8 267.7l6.9-7M212.8 263.6l6.9-7M212.8 259.8l6.9-7M212.8 255.7l6.9-7M212.8 251.6l6.9-7M212.8 247.8l6.9-7M212.8 243.7l6.9-7M212.8 239.6l6.9-7M212.8 235.5l6.9-6.9M212.8 231.7l6.9-7M212.8 227.6l6.9-7M212.8 223.5l6.9-6.9M212.8 219.7l6.9-7M212.8 215.6l6.9-7M212.8 211.5l6.9-6.9M212.8 207.7l6.9-7M212.8 203.6l6.9-7M212.8 199.5l5.5-5.5M212.8 195.4l1.4-1.4"/><path class="cls-20" d="M212.5 194v78.5M219.5 194v71.5M219.5 194v71.5M212.5 194v78.5"/><path class="cls-23" d="M212.5 161.8h4.8l-4.8-4.8v4.8"/><path class="cls-18" d="M216.9 161.8l-4.1-4M212.8 161.8v-.2M214.2 161.8l1.7-1.6M212.8 159.4l1.2-1.2"/><path class="cls-23" d="M212.5 161.8h4.8l-4.8-4.8v4.8"/><path class="cls-18" d="M216.9 161.8l-4.1-4M212.8 161.8v-.2M214.2 161.8l1.7-1.6M212.8 159.4l1.2-1.2"/><path class="cls-20" d="M212.5 157v4.8M212.5 157v4.8"/><path class="cls-19" d="M211.8 161.8h1.7v2.4h-1.7zM211.8 191.6h1.7v2.4h-1.7z"/><path class="cls-19" d="M211.8 164.2h1.7v27.4h-1.7zM213.5 164.2v27.4"/><path class="cls-1" d="M219.5 164v27.8"/><path class="cls-19" d="M219.5 191.4v.4"/><path class="cls-23" d="M219.6 161.8v2.2h-6v-2.2h-1.1"/><path class="cls-18" d="M219 164l-2.1-2.2M214.9 164l-1.2-1.4M216.1 164l2.2-2.2M213.7 162.6l.5-.8"/><path class="cls-20" d="M219.6 164h-6v-2.2h-1.1"/><path class="cls-23" d="M219.5 194v-2.2h-6v2.2h-1"/><path class="cls-18" d="M219.7 192.8l-.9-1M216.9 194l-2.2-2.2M218.3 194l1.4-1.4M214.2 194l2.2-2.2"/><path class="cls-20" d="M219.5 194v-2.2h-6v2.2h-1"/><path class="cls-18" d="M184.7 164.3c0 14.9 12.3 27.2 27.2 27.2M211.8 164.2h-27.1"/><path class="cls-23" d="M402.6 262.6l7.2 9.9v-74.7l-7.2 10.1v54.7"/><path class="cls-18" d="M410.1 198.6l-.5-.3M410.1 202.6l-2.2-1.9M410.1 206.7l-3.9-3.8M410.1 210.6l-5.6-5.3M410.1 214.6l-7.2-6.9M410.1 218.7l-7.2-7.2M410.1 222.6l-7.2-7.2M410.1 226.6l-7.2-7.2M410.1 230.7l-7.2-7.2M410.1 234.8l-7.2-7.2M410.1 238.6l-7.2-7.2M410.1 242.7l-7.2-7.2M410.1 246.8l-7.2-7.2M410.1 250.6l-7.2-7.2M410.1 254.7l-7.2-7.2M410.1 258.8l-7.2-7.2M410.1 262.6l-7.2-7.2M410.1 266.7l-7.2-7.2M410.1 270.8l-4.8-4.8M409.3 271.5l.8-.7M407.7 269.1l2.4-2.1M406 267l4.1-4.1M404.1 264.6l6-5.8M402.9 261.9l7.2-7.2M402.9 258.1l7.2-7.2M402.9 254l7.2-7.2M402.9 249.9l7.2-7.2M402.9 246.1l7.2-7.2M402.9 242l7.2-7.2M402.9 237.9l7.2-7.2M402.9 234.1l7.2-7.2M402.9 230l7.2-7.2M402.9 225.9l7.2-7.2M402.9 221.8l7.2-7.2M402.9 218l7.2-7.2M402.9 213.9l7.2-7.2M402.9 209.8l7.2-7.2M407.9 201l2.2-2.2"/><path class="cls-23" d="M402.6 262.6l7.2 9.9v-74.7l-7.2 10.1v54.7"/><path class="cls-18" d="M410.1 198.6l-.5-.3M410.1 202.6l-2.2-1.9M410.1 206.7l-3.9-3.8M410.1 210.6l-5.6-5.3M410.1 214.6l-7.2-6.9M410.1 218.7l-7.2-7.2M410.1 222.6l-7.2-7.2M410.1 226.6l-7.2-7.2M410.1 230.7l-7.2-7.2M410.1 234.8l-7.2-7.2M410.1 238.6l-7.2-7.2M410.1 242.7l-7.2-7.2M410.1 246.8l-7.2-7.2M410.1 250.6l-7.2-7.2M410.1 254.7l-7.2-7.2M410.1 258.8l-7.2-7.2M410.1 262.6l-7.2-7.2M410.1 266.7l-7.2-7.2M410.1 270.8l-4.8-4.8M409.3 271.5l.8-.7M407.7 269.1l2.4-2.1M406 267l4.1-4.1M404.1 264.6l6-5.8M402.9 261.9l7.2-7.2M402.9 258.1l7.2-7.2M402.9 254l7.2-7.2M402.9 249.9l7.2-7.2M402.9 246.1l7.2-7.2M402.9 242l7.2-7.2M402.9 237.9l7.2-7.2M402.9 234.1l7.2-7.2M402.9 230l7.2-7.2M402.9 225.9l7.2-7.2M402.9 221.8l7.2-7.2M402.9 218l7.2-7.2M402.9 213.9l7.2-7.2M402.9 209.8l7.2-7.2M407.9 201l2.2-2.2"/><path class="cls-20" d="M402.6 207.9v54.7M409.8 204.8v67.7M409.8 204.8v67.7M402.6 207.9v54.7"/><path class="cls-23" d="M357.3 207.9l-5.6-10.1v74.7l5.6-9.9v-54.7"/><path class="cls-18" d="M355.3 204.1l-3.3-3.4M357.5 210.1l-5.5-5.5M357.5 214.2l-5.5-5.6M357.5 218.2l-5.5-5.5M357.5 222.3l-5.5-5.5M357.5 226.2l-5.5-5.6M357.5 230.2l-5.5-5.5M357.5 234.3l-5.5-5.5M357.5 238.2l-5.5-5.6M357.5 242.2l-5.5-5.5M357.5 246.3l-5.5-5.5M357.5 250.2l-5.5-5.6M357.5 254.2l-5.5-5.5M357.5 258.3l-5.5-5.5M357.5 262.4l-5.5-5.5M356.1 265l-4.1-4.3M354.6 267.7l-2.6-2.9M353.2 270.1l-1.2-1.2M352 268.9l4.5-4.8M352 264.8l5.5-5.5M352 260.7l5.5-5.5M352 256.9l5.5-5.5M352 252.8l5.5-5.5M352 248.7l5.5-5.5M352 244.6l5.5-5.5M352 240.8l5.5-5.5M352 236.7l5.5-5.5M352 232.6l5.5-5.5M352 228.8l5.5-5.5M352 224.7l5.5-5.5M352 220.6l5.5-5.5M352 216.8l5.5-5.5M352 212.7l5-5.3M352 208.6l3.6-3.8M352 204.6l2.4-2.4M352 200.7l.9-.9"/><path class="cls-23" d="M357.3 207.9l-5.6-10.1v74.7l5.6-9.9v-54.7"/><path class="cls-18" d="M355.3 204.1l-3.3-3.4M357.5 210.1l-5.5-5.5M357.5 214.2l-5.5-5.6M357.5 218.2l-5.5-5.5M357.5 222.3l-5.5-5.5M357.5 226.2l-5.5-5.6M357.5 230.2l-5.5-5.5M357.5 234.3l-5.5-5.5M357.5 238.2l-5.5-5.6M357.5 242.2l-5.5-5.5M357.5 246.3l-5.5-5.5M357.5 250.2l-5.5-5.6M357.5 254.2l-5.5-5.5M357.5 258.3l-5.5-5.5M357.5 262.4l-5.5-5.5M356.1 265l-4.1-4.3M354.6 267.7l-2.6-2.9M353.2 270.1l-1.2-1.2M352 268.9l4.5-4.8M352 264.8l5.5-5.5M352 260.7l5.5-5.5M352 256.9l5.5-5.5M352 252.8l5.5-5.5M352 248.7l5.5-5.5M352 244.6l5.5-5.5M352 240.8l5.5-5.5M352 236.7l5.5-5.5M352 232.6l5.5-5.5M352 228.8l5.5-5.5M352 224.7l5.5-5.5M352 220.6l5.5-5.5M352 216.8l5.5-5.5M352 212.7l5-5.3M352 208.6l3.6-3.8M352 204.6l2.4-2.4M352 200.7l.9-.9"/><path class="cls-20" d="M357.3 262.6v-54.7M351.7 265.5v-67.7M351.7 265.5v-67.7M357.3 262.6v-54.7"/><path class="cls-19" d="M219.5 226.2h34.1M219.5 218.7h34.1M219.5 211h34.1M219.5 203.4h34.1M351.7 203.4h-34M351.7 211h-34M351.7 218.7h-34M351.7 226.2h-34M278.1 265.5l-8.2-35.5M253.6 198.1h64.1v33.4h-64.1zM334.7 203.4l3.8 3.8h-7.6l3.8-3.8zM258.9 231.4v34.1M266.5 231.4v34.1M274.2 231.4v34.1M281.9 231.4v34.1M289.3 231.4v34.1M297 231.4v34.1M304.7 231.4v34.1M312.4 231.4v34.1"/><path class="cls-19" d="M255 199.5h61.2V230H255zM312.4 248.5l-3.9 3.8v-7.7l3.9 3.9zM274.2 248.5l-3.8 3.8v-7.7l3.8 3.9zM236.5 226.2l-3.8-3.9h7.7l-3.9 3.9z"/><path class="cls-23" d="M355.6 157h-7.2V66.3h7.2V157"/><path class="cls-18" d="M355.8 68.2l-1.9-1.9M355.8 72.3l-6-6M355.8 76.2l-7.2-7.2M355.8 80.2l-7.2-7.2M355.8 84.3l-7.2-7.2M355.8 88.2l-7.2-7.2M355.8 92.2l-7.2-7.2M355.8 96.3l-7.2-7.2M355.8 100.2l-7.2-7.2M355.8 104.2l-7.2-7.2M355.8 108.3l-7.2-7.2M355.8 112.4l-7.2-7.2M355.8 116.2l-7.2-7.2M355.8 120.3l-7.2-7.2M355.8 124.4l-7.2-7.2M355.8 128.2l-7.2-7.2M355.8 132.3l-7.2-7.2M355.8 136.4l-7.2-7.2M355.8 140.5l-7.2-7.2M355.8 144.3l-7.2-7.2M355.8 148.4l-7.2-7.2M355.8 152.5l-7.2-7.2M355.8 156.3l-7.2-7.2M352.2 157l-3.6-3.8M355.3 157l.5-.2M351.5 157l4.3-4.3M348.6 155.8l7.2-7.2M348.6 152l7.2-7.2M348.6 147.9l7.2-7.2M348.6 143.8l7.2-7.2M348.6 139.8l7.2-7.2M348.6 135.9l7.2-7.2M348.6 131.8l7.2-7.2M348.6 127.8l7.2-7.2M348.6 123.9l7.2-7.2M348.6 119.8l7.2-7.2M348.6 115.8l7.2-7.2M348.6 111.9l7.2-7.2M348.6 107.8l7.2-7.2M348.6 103.8l7.2-7.2M348.6 99.7l7.2-7.2M348.6 95.8l7.2-7.2M348.6 91.8l7.2-7.2M348.6 87.7l7.2-7.2M348.6 83.8l7.2-7.2M348.6 79.8l7.2-7.2M348.6 75.7l7.2-7.2M348.6 71.8l5.3-5.5M348.6 67.8l1.2-1.5"/><path class="cls-23" d="M348.4 157h7.2V66.3h-7.2V157"/><path class="cls-18" d="M355.8 68.2l-1.9-1.9M355.8 72.3l-6-6M355.8 76.2l-7.2-7.2M355.8 80.2l-7.2-7.2M355.8 84.3l-7.2-7.2M355.8 88.2l-7.2-7.2M355.8 92.2l-7.2-7.2M355.8 96.3l-7.2-7.2M355.8 100.2l-7.2-7.2M355.8 104.2l-7.2-7.2M355.8 108.3l-7.2-7.2M355.8 112.4l-7.2-7.2M355.8 116.2l-7.2-7.2M355.8 120.3l-7.2-7.2M355.8 124.4l-7.2-7.2M355.8 128.2l-7.2-7.2M355.8 132.3l-7.2-7.2M355.8 136.4l-7.2-7.2M355.8 140.5l-7.2-7.2M355.8 144.3l-7.2-7.2M355.8 148.4l-7.2-7.2M355.8 152.5l-7.2-7.2M355.8 156.3l-7.2-7.2M352.2 157l-3.6-3.8M355.3 157l.5-.2M351.5 157l4.3-4.3M348.6 155.8l7.2-7.2M348.6 152l7.2-7.2M348.6 147.9l7.2-7.2M348.6 143.8l7.2-7.2M348.6 139.8l7.2-7.2M348.6 135.9l7.2-7.2M348.6 131.8l7.2-7.2M348.6 127.8l7.2-7.2M348.6 123.9l7.2-7.2M348.6 119.8l7.2-7.2M348.6 115.8l7.2-7.2M348.6 111.9l7.2-7.2M348.6 107.8l7.2-7.2M348.6 103.8l7.2-7.2M348.6 99.7l7.2-7.2M348.6 95.8l7.2-7.2M348.6 91.8l7.2-7.2M348.6 87.7l7.2-7.2M348.6 83.8l7.2-7.2M348.6 79.8l7.2-7.2M348.6 75.7l7.2-7.2M348.6 71.8l5.3-5.5M348.6 67.8l1.2-1.5"/><path class="cls-20" d="M355.6 157V66.3M348.4 157V66.3M355.6 66.3h-7.2M348.4 157V66.3M355.6 157V66.3"/><path class="cls-23" d="M402.6 207.9l7.2-10.1h-7.2v10.1"/><path class="cls-18" d="M409.6 198.3l-.5-.5M407.9 200.7l-2.6-2.9M406.2 202.9l-3.3-3.4M404.5 205.3l-1.6-1.9M402.9 207.7v-.3M402.9 206l5-5M402.9 201.9l3.8-4.1M402.9 197.8"/><path class="cls-23" d="M402.6 207.9l7.2-10.1h-7.2v10.1"/><path class="cls-18" d="M409.6 198.3l-.5-.5M407.9 200.7l-2.6-2.9M406.2 202.9l-3.3-3.4M404.5 205.3l-1.6-1.9M402.9 207.7v-.3M402.9 206l5-5M402.9 201.9l3.8-4.1M402.9 197.8"/><path class="cls-20" d="M402.6 197.8h7.2M402.6 197.8h7.2"/><path class="cls-23" d="M366.9 197.8h-15.2l5.6 10.1h9.6v-10.1"/><path class="cls-18" d="M367.1 199.8l-1.9-2M367.1 203.8l-6-6M367.1 207.7l-10.1-9.9M363 207.9l-10.1-10.1M359.2 207.9l-3.9-3.8M364.7 207.9l2.4-2.4M360.6 207.9l6.5-6.2M357 207.4l9.6-9.6M355.6 204.8l7.2-7M354.4 202.2l4.3-4.4M352.9 199.8l1.7-2"/><path class="cls-23" d="M366.9 197.8h-15.2l5.6 10.1h9.6v-10.1"/><path class="cls-18" d="M367.1 199.8l-1.9-2M367.1 203.8l-6-6M367.1 207.7l-10.1-9.9M363 207.9l-10.1-10.1M359.2 207.9l-3.9-3.8M364.7 207.9l2.4-2.4M360.6 207.9l6.5-6.2M357 207.4l9.6-9.6M355.6 204.8l7.2-7M354.4 202.2l4.3-4.4M352.9 199.8l1.7-2"/><path class="cls-20" d="M357.3 207.9h9.6M351.7 197.8h15.2M351.7 197.8h15.2M357.3 207.9h9.6"/><path class="cls-19" d="M370 206.5h29.5"/><path class="cls-1" d="M370 197.8h29.5"/><path class="cls-19" d="M399 197.8h.5"/><path class="cls-23" d="M366.9 197.8h3.1v8.7h-3.1"/><path class="cls-18" d="M370.2 198.8l-1.2-1M370.2 202.9l-3.1-3.1M369.7 206.5l-2.6-2.7M370 206.5h.2M367.1 205.5l3.1-3.1M367.1 201.7l3.1-3.1"/><path class="cls-23" d="M402.6 197.8h-3.1v8.7h3.1"/><path class="cls-18" d="M402.9 199.5l-1.7-1.7M402.9 203.4l-3.2-3.2M401.7 206.5l-2-2.2M402.1 206.5l.8-.5M399.7 205l3.2-3.1M399.7 201l3.2-3.2"/><path class="cls-20" d="M370 197.8v8.7M399.5 197.8v8.7M370 197.8v8.7M366.9 197.8h3.1M399.5 197.8v8.7M402.6 197.8h-3.1M366.9 207.9v-1.4M402.6 207.9v-1.4M366.9 197.8h3.1M402.6 197.8h-3.1M370 206.5h-3.1M399.5 206.5h3.1"/><path class="cls-23" d="M357.3 262.6l-5.6 9.9h58.1l-7.2-9.9h-45.3"/><path class="cls-18" d="M405.3 266l-3.4-3.4M407.7 272.5l-9.9-9.9M403.6 272.5l-9.9-9.9M399.7 272.5l-9.8-9.9M395.7 272.5l-9.9-9.9M391.6 272.5l-9.9-9.9M387.5 272.5l-9.8-9.9M383.7 272.5l-9.9-9.9M379.6 272.5l-9.9-9.9M375.5 272.5l-9.8-9.9M371.7 272.5l-9.9-9.9M367.6 272.5l-9.9-9.9M363.5 272.5l-7.4-7.5M359.4 272.5l-4.8-4.8M355.6 272.5l-2.4-2.4M408.4 272.5l.9-1M404.3 272.5l3.4-3.4M400.2 272.5l5.8-5.5M396.4 272.5l7.7-7.9M392.3 272.5l9.8-9.9M388.2 272.5l9.9-9.9M384.4 272.5l9.8-9.9M380.3 272.5l9.8-9.9M376.2 272.5l9.9-9.9M372.1 272.5l9.9-9.9M368.3 272.5l9.8-9.9M364.2 272.5l9.9-9.9M360.1 272.5l9.9-9.9M356.3 272.5l9.8-9.9M352.2 272.5l9.9-9.9M356.5 264.1l1.5-1.5"/><path class="cls-23" d="M357.3 262.6l-5.6 9.9h58.1l-7.2-9.9h-45.3"/><path class="cls-18" d="M405.3 266l-3.4-3.4M407.7 272.5l-9.9-9.9M403.6 272.5l-9.9-9.9M399.7 272.5l-9.8-9.9M395.7 272.5l-9.9-9.9M391.6 272.5l-9.9-9.9M387.5 272.5l-9.8-9.9M383.7 272.5l-9.9-9.9M379.6 272.5l-9.9-9.9M375.5 272.5l-9.8-9.9M371.7 272.5l-9.9-9.9M367.6 272.5l-9.9-9.9M363.5 272.5l-7.4-7.5M359.4 272.5l-4.8-4.8M355.6 272.5l-2.4-2.4M408.4 272.5l.9-1M404.3 272.5l3.4-3.4M400.2 272.5l5.8-5.5M396.4 272.5l7.7-7.9M392.3 272.5l9.8-9.9M388.2 272.5l9.9-9.9M384.4 272.5l9.8-9.9M380.3 272.5l9.8-9.9M376.2 272.5l9.9-9.9M372.1 272.5l9.9-9.9M368.3 272.5l9.8-9.9M364.2 272.5l9.9-9.9M360.1 272.5l9.9-9.9M356.3 272.5l9.8-9.9M352.2 272.5l9.9-9.9M356.5 264.1l1.5-1.5"/><path class="cls-20" d="M402.6 262.6h-45.3M409.8 272.5h-58.1M409.8 272.5h-58.1M402.6 262.6h-45.3"/><path class="cls-23" d="M216.6 272.5h-4.1V356h4.1v-83.5"/><path class="cls-18" d="M212.8 273.9l1.2-1.4M212.8 278.2l4.1-4M212.8 282.3l4.1-4.1M212.8 286.6l4.1-4M212.8 291l4.1-4.1M212.8 295l4.1-4M212.8 299.4l4.1-4.1M212.8 303.7l4.1-4.1M212.8 308l4.1-4.1M212.8 312.1l4.1-4.1M212.8 316.4l4.1-4.1M212.8 320.7l4.1-4.1M212.8 324.8l4.1-4.1M212.8 329.1l4.1-4.1M212.8 333.4l4.1-4M212.8 337.8l4.1-4.1M212.8 341.8l4.1-4M212.8 346.2l4.1-4.1M212.8 350.5l4.1-4.1M212.8 354.6l4.1-4.1M215.7 356l1.2-1.2"/><path class="cls-23" d="M216.6 272.5h-4.1V356h4.1v-83.5"/><path class="cls-18" d="M212.8 273.9l1.2-1.4M212.8 278.2l4.1-4M212.8 282.3l4.1-4.1M212.8 286.6l4.1-4M212.8 291l4.1-4.1M212.8 295l4.1-4M212.8 299.4l4.1-4.1M212.8 303.7l4.1-4.1M212.8 308l4.1-4.1M212.8 312.1l4.1-4.1M212.8 316.4l4.1-4.1M212.8 320.7l4.1-4.1M212.8 324.8l4.1-4.1M212.8 329.1l4.1-4.1M212.8 333.4l4.1-4M212.8 337.8l4.1-4.1M212.8 341.8l4.1-4M212.8 346.2l4.1-4.1M212.8 350.5l4.1-4.1M212.8 354.6l4.1-4.1M215.7 356l1.2-1.2"/><path class="cls-20" d="M216.6 356v-83.5M212.5 356v-83.5M212.5 356v-83.5M216.6 356v-83.5M216.6 382.2h-4.1M212.5 272.5h4.1"/><path class="cls-19" d="M216.6 380.5h-4.1M216.6 357.7h-4.1"/><path class="cls-20" d="M216.6 382.2h-4.1M216.6 356h-4.1"/><path class="cls-18" d="M216.7 380.4c12.4 0 22.7-10.2 22.7-22.7M216.6 357.7h22.8"/><path class="cls-23" d="M212.5 157h4.1V97.5h-4.1V157"/><path class="cls-18" d="M212.8 99.7l1.9-2.2M212.8 104l4.1-4.1M212.8 108.1l4.1-4.1M212.8 112.4l4.1-4.1M212.8 116.7l4.1-4.1M212.8 120.8l4.1-4.1M212.8 125.1l4.1-4.1M212.8 129.4l4.1-4M212.8 133.8l4.1-4.1M212.8 137.8l4.1-4M212.8 142.2l4.1-4.1M212.8 146.5l4.1-4.1M212.8 150.6l4.1-4.1M212.8 154.9l4.1-4.1M214.7 157l2.2-1.9"/><path class="cls-23" d="M212.5 157h4.1V97.5h-4.1V157"/><path class="cls-18" d="M212.8 99.7l1.9-2.2M212.8 104l4.1-4.1M212.8 108.1l4.1-4.1M212.8 112.4l4.1-4.1M212.8 116.7l4.1-4.1M212.8 120.8l4.1-4.1M212.8 125.1l4.1-4.1M212.8 129.4l4.1-4M212.8 133.8l4.1-4.1M212.8 137.8l4.1-4M212.8 142.2l4.1-4.1M212.8 146.5l4.1-4.1M212.8 150.6l4.1-4.1M212.8 154.9l4.1-4.1M214.7 157l2.2-1.9"/><path class="cls-20" d="M212.5 97.5V157M216.6 97.5V157M216.6 97.5V157M212.5 97.5V157M212.5 71.4h4.1M216.6 157h-4.1"/><path class="cls-19" d="M212.5 73.3h4.1M212.5 95.8h4.1"/><path class="cls-20" d="M212.5 71.4h4.1M212.5 97.5h4.1"/><path class="cls-18" d="M239.4 95.8c0-12.4-10.2-22.7-22.7-22.7M216.6 95.8h22.8"/><path class="cls-23" d="M318.4 272.5h-7.2v114.7h7.2V272.5"/><path class="cls-18" d="M318.6 275.6l-3.1-3.1M318.6 279.4l-7.2-6.9M318.6 283.5l-7.2-7.2M318.6 287.6l-7.2-7.2M318.6 291.7l-7.2-7.2M318.6 295.5l-7.2-7.2M318.6 299.6l-7.2-7.2M318.6 303.7l-7.2-7.2M318.6 307.5l-7.2-7.2M318.6 311.6l-7.2-7.2M318.6 315.7l-7.2-7.2M318.6 319.5l-7.2-7.2M318.6 323.6l-7.2-7.2M318.6 327.7l-7.2-7.2M318.6 331.8l-7.2-7.2M318.6 335.6l-7.2-7.2M318.6 339.7l-7.2-7.2M318.6 343.8l-7.2-7.2M318.6 347.6l-7.2-7.2M318.6 351.7l-7.2-7.2M318.6 355.8l-7.2-7.2M318.6 359.8l-7.2-7.2M318.6 363.7l-7.2-7.2M318.6 367.8l-7.2-7.2M318.6 371.8l-7.2-7.2M318.6 375.7l-7.2-7.2M318.6 379.8l-7.2-7.2M318.6 383.8l-7.2-7.2M317.9 387.2l-6.5-6.7M313.8 387.2l-2.4-2.6M317.7 387.2l.9-1M313.6 387.2l5-4.8M311.4 385.5l7.2-7.2M311.4 381.4l7.2-7.2M311.4 377.6l7.2-7.2M311.4 373.5l7.2-7.2M311.4 369.4l7.2-7.2M311.4 365.6l7.2-7.2M311.4 361.5l7.2-7.2M311.4 357.4l7.2-7.2M311.4 353.4l7.2-7.2M311.4 349.5l7.2-7.2M311.4 345.4l7.2-7.2M311.4 341.4l7.2-7.2M311.4 337.5l7.2-7.2M311.4 333.4l7.2-7.2M311.4 329.4l7.2-7.2M311.4 325.5l7.2-7.2M311.4 321.4l7.2-7.2M311.4 317.4l7.2-7.2M311.4 313.3l7.2-7.2M311.4 309.4l7.2-7.2M311.4 305.4l7.2-7.2M311.4 301.3l7.2-7.2M311.4 297.4l7.2-7.2M311.4 293.4l7.2-7.2M311.4 289.3l7.2-7.2M311.4 285.2l7.2-7.2M311.4 281.4l7.2-7.2M311.4 277.3l4.8-4.8M311.4 273.2l.7-.7"/><path class="cls-23" d="M318.4 272.5h-7.2v114.7h7.2V272.5"/><path class="cls-18" d="M318.6 275.6l-3.1-3.1M318.6 279.4l-7.2-6.9M318.6 283.5l-7.2-7.2M318.6 287.6l-7.2-7.2M318.6 291.7l-7.2-7.2M318.6 295.5l-7.2-7.2M318.6 299.6l-7.2-7.2M318.6 303.7l-7.2-7.2M318.6 307.5l-7.2-7.2M318.6 311.6l-7.2-7.2M318.6 315.7l-7.2-7.2M318.6 319.5l-7.2-7.2M318.6 323.6l-7.2-7.2M318.6 327.7l-7.2-7.2M318.6 331.8l-7.2-7.2M318.6 335.6l-7.2-7.2M318.6 339.7l-7.2-7.2M318.6 343.8l-7.2-7.2M318.6 347.6l-7.2-7.2M318.6 351.7l-7.2-7.2M318.6 355.8l-7.2-7.2M318.6 359.8l-7.2-7.2M318.6 363.7l-7.2-7.2M318.6 367.8l-7.2-7.2M318.6 371.8l-7.2-7.2M318.6 375.7l-7.2-7.2M318.6 379.8l-7.2-7.2M318.6 383.8l-7.2-7.2M317.9 387.2l-6.5-6.7M313.8 387.2l-2.4-2.6M317.7 387.2l.9-1M313.6 387.2l5-4.8M311.4 385.5l7.2-7.2M311.4 381.4l7.2-7.2M311.4 377.6l7.2-7.2M311.4 373.5l7.2-7.2M311.4 369.4l7.2-7.2M311.4 365.6l7.2-7.2M311.4 361.5l7.2-7.2M311.4 357.4l7.2-7.2M311.4 353.4l7.2-7.2M311.4 349.5l7.2-7.2M311.4 345.4l7.2-7.2M311.4 341.4l7.2-7.2M311.4 337.5l7.2-7.2M311.4 333.4l7.2-7.2M311.4 329.4l7.2-7.2M311.4 325.5l7.2-7.2M311.4 321.4l7.2-7.2M311.4 317.4l7.2-7.2M311.4 313.3l7.2-7.2M311.4 309.4l7.2-7.2M311.4 305.4l7.2-7.2M311.4 301.3l7.2-7.2M311.4 297.4l7.2-7.2M311.4 293.4l7.2-7.2M311.4 289.3l7.2-7.2M311.4 285.2l7.2-7.2M311.4 281.4l7.2-7.2M311.4 277.3l4.8-4.8M311.4 273.2l.7-.7"/><path class="cls-20" d="M318.4 387.2V272.5M311.2 387.2V272.5M311.2 387.2V272.5M318.4 387.2V272.5M318.4 387.2h-7.2"/><path class="cls-19" d="M35.7 207.2h57.6"/><path class="cls-7" d="M34.9 207.9h58.4"/><path class="cls-19" d="M37.1 205.8h56.2M35.7 207.2h57.6"/><path class="cls-7" d="M93.3 207.2v.7"/><path class="cls-19" d="M93.3 205.8v1.4M34.9 207.9h58.4M37.1 205.8h56.2"/><path class="cls-23" d="M65.2 223c-1.3.9-3 .9-4.3 0-1.9-1.5-2.9-3.8-2.9-6.2l.3-9h9.6l.3 9c0 2.4-1 4.7-2.9 6.2"/><path class="cls-19" d="M65.2 223c-1.3.9-3 .9-4.3 0-1.9-1.5-2.9-3.8-2.9-6.2l.3-9h9.6l.3 9c0 2.4-1 4.7-2.9 6.2"/><path class="cls-23" d="M63.1 212.9c1 0 2 .3 2.8 1.1.7.7 1.2 1.7 1.2 2.7 0 2.1-.9 4.1-2.5 5.4-.9.6-2 .6-2.9 0-1.6-1.3-2.5-3.3-2.5-5.4 0-1 .4-2 1.2-2.7.7-.7 1.8-1.1 2.8-1.1"/><path class="cls-19" d="M63.1 212.9c1 0 2 .3 2.8 1.1.7.7 1.2 1.7 1.2 2.7 0 2.1-.9 4.1-2.5 5.4-.9.6-2 .6-2.9 0-1.6-1.3-2.5-3.3-2.5-5.4 0-1 .4-2 1.2-2.7.7-.7 1.8-1.1 2.8-1.1"/><path class="cls-23" d="M70.2 207.9v41.3h22.6v-41.3H70.2"/><path class="cls-19" d="M70.2 207.9h22.6v41.3H70.2zM92.8 209.8H70.2M35.7 198.6v8.6"/><path class="cls-7" d="M34.9 198.6v9.3"/><path class="cls-19" d="M37.1 198.6v7.2M35.7 198.6v8.6M34.9 198.6v9.3M37.1 198.6v7.2"/><path class="cls-23" d="M38.3 207.8v12.4c0 .1.1.3.2.4.1.1.2.2.4.2H53c.1 0 .3-.1.4-.2.1-.1.2-.2.2-.4v-12.4H38"/><path class="cls-19" d="M38.3 207.8v12.4c0 .1.1.3.2.4.1.1.2.2.4.2H53c.1 0 .3-.1.4-.2.1-.1.2-.2.2-.4v-12.4H38"/><path class="cls-23" d="M93.3 249.4v4.4H34v-4.4h59.3"/><path class="cls-18" d="M34.2 252.8l3.1-3.4M37.3 253.8l4.4-4.4M41.7 253.8l4.3-4.4M45.7 253.8l4.4-4.4M50.1 253.8l4.3-4.4M54.4 253.8l4.3-4.4M58.5 253.8l4.3-4.4M62.8 253.8l4.3-4.4M67.1 253.8l4.3-4.4M71.2 253.8l4.3-4.4M75.5 253.8l4.3-4.4M79.8 253.8l4.3-4.4M84.1 253.8l4.4-4.4M88.2 253.8l4.3-4.4M92.5 253.8l1-.8"/><path class="cls-23" d="M93.3 253.8v-4.4H34v4.4h59.3"/><path class="cls-18" d="M34.2 252.8l3.1-3.4M37.3 253.8l4.4-4.4M41.7 253.8l4.3-4.4M45.7 253.8l4.4-4.4M50.1 253.8l4.3-4.4M54.4 253.8l4.3-4.4M58.5 253.8l4.3-4.4M62.8 253.8l4.3-4.4M67.1 253.8l4.3-4.4M71.2 253.8l4.3-4.4M75.5 253.8l4.3-4.4M79.8 253.8l4.3-4.4M84.1 253.8l4.4-4.4M88.2 253.8l4.3-4.4M92.5 253.8l1-.8"/><path class="cls-20" d="M93.3 249.4H34M93.3 253.8H34M93.3 253.8H34M93.3 249.4H34M93.3 249.4v4.4M7.3 253.8v-4.4"/><path class="cls-19" d="M31.8 249.4v4.4M9.3 249.4v4.4"/><path class="cls-20" d="M34 249.4v4.4M7.3 249.4v4.4"/><path class="cls-18" d="M31.9 249.5c0-12.4-10.2-22.7-22.7-22.7M9.3 249.4v-22.5"/><path class="cls-23" d="M93.3 194.2v4.4H34v-4.4h59.3"/><path class="cls-18" d="M34.2 197.4l3.1-3.2M37.3 198.6l4.4-4.4M41.4 198.6l4.3-4.4M45.7 198.6l4.4-4.4M50.1 198.6l4.3-4.4M54.1 198.6l4.4-4.4M58.5 198.6l4.3-4.4M62.8 198.6l4.3-4.4M67.1 198.6l4.3-4.4M71.2 198.6l4.3-4.4M75.5 198.6l4.3-4.4M79.8 198.6l4.3-4.4M83.9 198.6l4.3-4.4M88.2 198.6l4.3-4.4M92.5 198.6l1-1"/><path class="cls-23" d="M93.3 198.6v-4.4H34v4.4h59.3"/><path class="cls-18" d="M34.2 197.4l3.1-3.2M37.3 198.6l4.4-4.4M41.4 198.6l4.3-4.4M45.7 198.6l4.4-4.4M50.1 198.6l4.3-4.4M54.1 198.6l4.4-4.4M58.5 198.6l4.3-4.4M62.8 198.6l4.3-4.4M67.1 198.6l4.3-4.4M71.2 198.6l4.3-4.4M75.5 198.6l4.3-4.4M79.8 198.6l4.3-4.4M83.9 198.6l4.3-4.4M88.2 198.6l4.3-4.4M92.5 198.6l1-1"/><path class="cls-20" d="M93.3 194.2H34M93.3 198.6H34M93.3 198.6H34M93.3 194.2H34M93.3 194.2v4.4M7.3 198.6v-4.4"/><path class="cls-19" d="M31.8 194.2v4.4M9.3 194.2v4.4"/><path class="cls-20" d="M34 194.2v4.4M7.3 194.2v4.4"/><path class="cls-18" d="M9.2 221.1c12.4 0 22.7-10.2 22.7-22.7M9.3 198.6v22.5"/><path class="cls-23" d="M122 233.6c.9 1.3.9 3 0 4.3-1.5 1.9-3.8 2.9-6.2 2.9l-9-.3v-9.6l9-.3c2.4 0 4.7 1 6.2 2.9"/><path class="cls-19" d="M122 233.6c.9 1.3.9 3 0 4.3-1.5 1.9-3.8 2.9-6.2 2.9l-9-.3v-9.6l9-.3c2.4 0 4.7 1 6.2 2.9"/><path class="cls-23" d="M111.9 235.7c0-1 .3-2 1.1-2.8.7-.7 1.7-1.2 2.7-1.2 2.1 0 4.1.9 5.4 2.5.6.9.6 2 0 2.9-1.3 1.6-3.3 2.5-5.4 2.5-1 0-2-.4-2.7-1.2-.7-.7-1.1-1.8-1.1-2.8"/><path class="cls-19" d="M111.9 235.7c0-1 .3-2 1.1-2.8.7-.7 1.7-1.2 2.7-1.2 2.1 0 4.1.9 5.4 2.5.6.9.6 2 0 2.9-1.3 1.6-3.3 2.5-5.4 2.5-1 0-2-.4-2.7-1.2-.7-.7-1.1-1.8-1.1-2.8"/><path class="cls-23" d="M107.2 184.4h48v.1h.1l.1.1.1.1v20.7l-.1.1v.1h-.1l-.1.1H107l-.1-.1-.1-.1V184.6h.1v-.1h.1l.1-.1h.1"/><path class="cls-19" d="M107.2 184.4h48v.1h.1l.1.1.1.1v20.7l-.1.1v.1h-.1l-.1.1H107l-.1-.1-.1-.1V184.6h.1v-.1h.1l.1-.1h.1"/><path class="cls-23" d="M112.4 186.6h37.4c.4 0 .9 0 1.3.3.4.2.8.4 1.1.7.3.3.6.7.7 1.1.2.4.3.9.3 1.3v10.2c0 .4 0 .9-.3 1.3-.2.4-.4.8-.7 1.1-.3.3-.7.6-1.1.7-.4.2-.9.3-1.3.3h-37.4c-.4 0-.9 0-1.3-.3-.4-.2-.8-.4-1.1-.7-.3-.3-.6-.7-.7-1.1-.2-.4-.3-.9-.3-1.3V190c0-.4 0-.9.3-1.3.2-.4.4-.8.7-1.1.3-.3.7-.6 1.1-.7.4-.2.9-.3 1.3-.3"/><path class="cls-19" d="M112.4 186.6h37.4c.4 0 .9 0 1.3.3.4.2.8.4 1.1.7.3.3.6.7.7 1.1.2.4.3.9.3 1.3v10.2c0 .4 0 .9-.3 1.3-.2.4-.4.8-.7 1.1-.3.3-.7.6-1.1.7-.4.2-.9.3-1.3.3h-37.4c-.4 0-.9 0-1.3-.3-.4-.2-.8-.4-1.1-.7-.3-.3-.6-.7-.7-1.1-.2-.4-.3-.9-.3-1.3V190c0-.4 0-.9.3-1.3.2-.4.4-.8.7-1.1.3-.3.7-.6 1.1-.7.4-.2.9-.3 1.3-.3M106 248.7v-20.9"/><path class="cls-7" d="M106.7 248.7v-21.6"/><path class="cls-19" d="M104.5 248.7v-19.4M106 248.7v-20.9M106.7 248.7v-21.6M104.5 248.7v-19.4M102.1 227.8v-18.2"/><path class="cls-7" d="M102.9 227.1v-16.8"/><path class="cls-19" d="M100.7 229.3v-21.1M102.1 227.8v-18.2M102.9 227.1v-16.8M100.7 229.3v-21.1M106 209.6v-25.4"/><path class="cls-7" d="M106.7 210.3v-26.1"/><path class="cls-19" d="M104.5 208.2v-24M106 209.6v-25.4M106.7 210.3v-26.1M104.5 208.2v-24"/><path class="cls-23" d="M106.8 210.9h12.4c.1 0 .3.1.4.2.1.1.2.2.2.4V225.6c0 .1-.1.3-.2.4-.1.1-.2.2-.4.2h-12.4v-15.6"/><path class="cls-19" d="M106.8 210.9h12.4c.1 0 .3.1.4.2.1.1.2.2.2.4V225.6c0 .1-.1.3-.2.4-.1.1-.2.2-.4.2h-12.4v-15.6"/><path class="cls-16" d="M106.7 227.4h-3.8"/><path class="cls-4" d="M102.9 227.4v-17.1"/><path class="cls-16" d="M102.9 210.3h3.8"/><path class="cls-19" d="M102.1 209.6h3.9"/><path class="cls-7" d="M102.9 210.3h3.8"/><path class="cls-19" d="M100.7 208.2h3.8M102.1 209.6h3.9M102.9 210.3h3.8M100.7 208.2h3.8M106 227.8h-3.9"/><path class="cls-7" d="M106.7 227.1h-3.8"/><path class="cls-19" d="M104.5 229.3h-3.8M106 227.8h-3.9M106.7 227.1h-3.8M104.5 229.3h-3.8"/><path class="cls-7" d="M106.7 227.1v-16.8"/><path class="cls-23" d="M98.8 184.2h56.6l4.3-4.4H98.8v4.4"/><path class="cls-18" d="M99 183.7l3.6-3.9M102.6 184.2l4.3-4.4M106.9 184.2l4.4-4.4M111.3 184.2l4.3-4.4M115.3 184.2l4.4-4.4M119.7 184.2l4.3-4.4M124 184.2l4.3-4.4M128.1 184.2l4.3-4.4M132.4 184.2l4.3-4.4M136.7 184.2l4.3-4.4M140.8 184.2l4.3-4.4M145.1 184.2l4.3-4.4M149.4 184.2l4.3-4.4M153.7 184.2l4.4-4.4"/><path class="cls-23" d="M98.8 184.2h56.6l4.3-4.4H98.8v4.4"/><path class="cls-18" d="M99 183.7l3.6-3.9M102.6 184.2l4.3-4.4M106.9 184.2l4.4-4.4M111.3 184.2l4.3-4.4M115.3 184.2l4.4-4.4M119.7 184.2l4.3-4.4M124 184.2l4.3-4.4M128.1 184.2l4.3-4.4M132.4 184.2l4.3-4.4M136.7 184.2l4.3-4.4M140.8 184.2l4.3-4.4M145.1 184.2l4.3-4.4M149.4 184.2l4.3-4.4M153.7 184.2l4.4-4.4"/><path class="cls-20" d="M159.7 179.8H98.8M155.4 184.2H98.8M98.8 179.8v4.4M155.4 184.2H98.8M159.7 179.8H98.8"/><path class="cls-19" d="M177.3 189.4h.7V205h-.7zM160.9 189.4h16.3v.5h-16.3z"/><path class="cls-19" d="M160.5 189.4h.5v31.2h-.5zM177.3 188.2h.7v1.2h-.7zM177.3 205h.7v15.6h-.7z"/><path class="cls-19" d="M160.9 219.9h16.3v.7h-16.3zM160.2 220.6H178v.5h-17.8zM173.9 186.1h-14.2M173.9 186.8h-14.2M173.9 186.8h-14.2M173.9 186.1h-14.2"/><path class="cls-22" d="M162.4 187.5h10.1v2.4h-10.1z"/><path class="cls-19" d="M162.4 187.5h10.1v2.4h-10.1z"/><path class="cls-22" d="M162.1 189.9h10.6v.2h-10.6z"/><path class="cls-19" d="M162.1 189.9h10.6v.2h-10.6z"/><path class="cls-21" d="M163.1 190.2v8.4"/><path class="cls-3" d="M171.7 190.2l-.2 1.6-.5 1.5-.7 1.4-1.2 1.5-1.2.9-1.4 1-1.7.5h-1.7"/><path class="cls-23" d="M177.5 187.8v-8l-3.6 3.6v4.4h3.6"/><path class="cls-18" d="M174.1 185.1l3.6-3.6M175.6 187.8l2.1-2.2"/><path class="cls-23" d="M177.5 187.8v-8l-3.6 3.6v4.4h3.6"/><path class="cls-18" d="M174.1 185.1l3.6-3.6M175.6 187.8l2.1-2.2"/><path class="cls-20" d="M173.9 183.4v4.4M177.5 179.8v8M173.9 187.8h3.6M177.5 179.8v8M173.9 183.4v4.4"/><path class="cls-23" d="M159.7 179.8v3.6h14.2l3.6-3.6h-17.8"/><path class="cls-18" d="M160 182.2l2.1-2.4M162.9 183.4l3.6-3.6M167.2 183.4l3.6-3.6M171.3 183.4l3.6-3.6"/><path class="cls-23" d="M159.7 179.8v3.6h14.2l3.6-3.6h-17.8"/><path class="cls-18" d="M160 182.2l2.1-2.4M162.9 183.4l3.6-3.6M167.2 183.4l3.6-3.6M171.3 183.4l3.6-3.6"/><path class="cls-20" d="M177.5 179.8h-17.8M173.9 183.4h-14.2M173.9 183.4h-14.2M177.5 179.8h-17.8"/><path class="cls-1" d="M177.5 248.7v-27.1"/><path class="cls-19" d="M177.5 222.1v-.5"/><path class="cls-23" d="M98.8 350.5v4.1h5.7l4.4-4.1H98.8"/><path class="cls-18" d="M99 353.6l3.1-3.1M102.1 354.6l4.1-4.1"/><path class="cls-23" d="M98.8 350.5v4.1h5.7l4.4-4.1H98.8"/><path class="cls-18" d="M99 353.6l3.1-3.1M102.1 354.6l4.1-4.1"/><path class="cls-20" d="M108.9 350.5H98.8M104.5 354.6h-5.7M104.5 354.6h-5.7M108.9 350.5H98.8M98.8 354.6h-5.5M98.8 354.6v-4.1"/><path class="cls-23" d="M108.9 350.5l-4.4 4.1h4.4v-4.1"/><path class="cls-18" d="M106.5 354.6l2.6-2.4"/><path class="cls-23" d="M108.9 350.5l-4.4 4.1h4.4v-4.1"/><path class="cls-18" d="M106.5 354.6l2.6-2.4"/><path class="cls-20" d="M108.9 354.6v-4.1M108.9 354.6v-4.1M108.9 382.2h-4.4"/><path class="cls-19" d="M108.9 379.8h-4.4M108.9 357h-4.4"/><path class="cls-20" d="M108.9 382.2h-4.4M108.9 354.6h-4.4"/><path class="cls-18" d="M82 357.1c0 12.4 10.2 22.7 22.7 22.7M104.5 357H82"/><path class="cls-19" d="M409.8 203.6h2.4v1.9h-2.4zM439.6 203.6h6v1.9h-6zM412.2 203.6h27.4v1.9h-27.4zM412.2 203.6h27.4"/><path class="cls-1" d="M412 197.8h27.8"/><path class="cls-19" d="M439.3 197.8h.5"/><path class="cls-23" d="M409.8 197.8h2.2v5.8h-2.2"/><path class="cls-18" d="M412.2 200.7l-2.1-2.1M411 203.6l-.9-1M410.1 202.6l2.1-2.1M410.1 198.8l.7-1"/><path class="cls-23" d="M445.6 197.8h-5.8v5.8h5.8"/><path class="cls-18" d="M445.8 198.3l-.5-.5M445.8 202.4l-4.5-4.6M442.9 203.6l-2.8-3.1M445.1 203.6l.7-.5M441 203.6l4.8-4.6M440.1 200.7l2.8-2.9"/><path class="cls-20" d="M412 197.8v5.8M439.8 197.8v5.8M412 197.8v5.8M409.8 197.8h2.2M439.8 197.8v5.8M445.6 197.8h-5.8M409.8 204.8v-1.2M445.6 204.8v-1.2M409.8 197.8h2.2M445.6 197.8h-5.8M412 203.6h-2.2M439.8 203.6h5.8"/><path class="cls-23" d="M98.8 253.8h74.4l4.3-5.1H98.8v5.1"/><path class="cls-18" d="M99 251.6l2.9-2.9M100.9 253.8l5.1-5.1M105.3 253.8l5-5.1M109.6 253.8l5-5.1M113.9 253.8l5-5.1M118 253.8l5-5.1M122.3 253.8l5-5.1M126.6 253.8l5.1-5.1M130.7 253.8l5-5.1M135 253.8l5.1-5.1M139.3 253.8l5.1-5.1M143.7 253.8l5-5.1M147.7 253.8l5.1-5.1M152.1 253.8l5-5.1M156.4 253.8l5-5.1M160.5 253.8l5-5.1M164.8 253.8l5-5.1M169.1 253.8l5-5.1M173.2 253.8h.2"/><path class="cls-23" d="M98.8 253.8h74.4l4.3-5.1H98.8v5.1"/><path class="cls-18" d="M99 251.6l2.9-2.9M100.9 253.8l5.1-5.1M105.3 253.8l5-5.1M109.6 253.8l5-5.1M113.9 253.8l5-5.1M118 253.8l5-5.1M122.3 253.8l5-5.1M126.6 253.8l5.1-5.1M130.7 253.8l5-5.1M135 253.8l5.1-5.1M139.3 253.8l5.1-5.1M143.7 253.8l5-5.1M147.7 253.8l5.1-5.1M152.1 253.8l5-5.1M156.4 253.8l5-5.1M160.5 253.8l5-5.1M164.8 253.8l5-5.1M169.1 253.8l5-5.1M173.2 253.8h.2"/><path class="cls-20" d="M155.4 248.7H98.8M177.5 248.7h-17.8M173.2 253.8H98.8M98.8 248.7v5.1M173.2 253.8H98.8M155.4 248.7H98.8M177.5 248.7h-17.8"/><path class="cls-23" d="M177.5 248.7l-4.3 5.1v17h4.3v-22.1"/><path class="cls-18" d="M173.4 253.8l4.3-4.4M173.4 258.1l4.3-4.3M173.4 262.2l4.3-4.4M173.4 266.5l4.3-4.3M173.4 270.8l4.3-4.3M177.5 270.8h.2"/><path class="cls-23" d="M177.5 248.7l-4.3 5.1v17h4.3v-22.1"/><path class="cls-18" d="M173.4 253.8l4.3-4.4M173.4 258.1l4.3-4.3M173.4 262.2l4.3-4.4M173.4 266.5l4.3-4.3M173.4 270.8l4.3-4.3M177.5 270.8h.2"/><path class="cls-20" d="M177.5 270.8v-22.1M173.2 270.8v-17M173.2 270.8v-17M177.5 270.8v-22.1M177.5 270.8h-4.3"/><path class="cls-23" d="M159.7 179.8l-4.3 4.4v37.9h4.3v-42.3"/><path class="cls-18" d="M155.7 186.6l4.3-4.4M155.7 190.9l4.3-4.3M155.7 195l4.3-4.4M155.7 199.3l4.3-4.3M155.7 203.6l4.3-4.3M155.7 207.7l4.3-4.3M155.7 212l4.3-4.3M155.7 216.3l4.3-4.3M155.7 220.4l4.3-4.3M158.3 222.1l1.7-1.7"/><path class="cls-23" d="M159.7 179.8l-4.3 4.4v37.9h4.3v-42.3"/><path class="cls-18" d="M155.7 186.6l4.3-4.4M155.7 190.9l4.3-4.3M155.7 195l4.3-4.4M155.7 199.3l4.3-4.3M155.7 203.6l4.3-4.3M155.7 207.7l4.3-4.3M155.7 212l4.3-4.3M155.7 216.3l4.3-4.3M155.7 220.4l4.3-4.3M158.3 222.1l1.7-1.7"/><path class="cls-20" d="M159.7 222.1v-38.7M155.4 222.1v-37.9M155.4 222.1v-37.9M159.7 222.1v-38.7"/><path class="cls-1" d="M159.7 248.7v-26.6M155.4 248.7v-26.6"/><path class="cls-19" d="M159.7 246.8h-4.3M159.7 224.2h-4.3"/><path class="cls-20" d="M159.7 248.7h-4.3M159.7 222.1h-4.3"/><path class="cls-18" d="M182.4 246.8c0-12.4-10.2-22.7-22.7-22.7M159.7 246.8h22.8"/><path class="cls-19" d="M99.3 271.3h17.5v78.2H99.3zM114.4 348.8h2.4M114.4 340.4h2.4M114.4 323.4h2.4M114.4 306.3h2.4M114.4 289.3h2.4"/><path class="cls-23" d="M104.3 290.2h9.3c.1 0 .3 0 .4.1.1 0 .2.1.3.2.1 0 .2.2.3.2 0 0 .2.2.2.3 0 .1.1.2.2.3 0 .1 0 .2.1.4v12c0 .1 0 .3-.1.4 0 .1-.1.2-.2.3 0 .1-.2.2-.2.3 0 0-.2.2-.3.2-.1 0-.2.1-.3.2-.1 0-.2 0-.4.1H103.9c-.1 0-.3 0-.4-.1-.1 0-.2-.1-.3-.2-.1 0-.2-.2-.3-.2 0 0-.2-.2-.2-.3 0-.1-.1-.2-.2-.3 0-.1 0-.2-.1-.4v-11.6-.4c0-.1 0-.3.1-.4 0-.1.1-.2.2-.3 0-.1.2-.2.2-.3 0 0 .2-.2.3-.2.1 0 .2-.1.3-.2s.2 0 .4-.1h.4"/><path class="cls-19" d="M104.3 290.2h9.3c.1 0 .3 0 .4.1.1 0 .2.1.3.2.1 0 .2.2.3.2 0 0 .2.2.2.3 0 .1.1.2.2.3 0 .1 0 .2.1.4v12c0 .1 0 .3-.1.4 0 .1-.1.2-.2.3 0 .1-.2.2-.2.3 0 0-.2.2-.3.2-.1 0-.2.1-.3.2-.1 0-.2 0-.4.1H103.9c-.1 0-.3 0-.4-.1-.1 0-.2-.1-.3-.2-.1 0-.2-.2-.3-.2 0 0-.2-.2-.2-.3 0-.1-.1-.2-.2-.3 0-.1 0-.2-.1-.4v-11.6-.4c0-.1 0-.3.1-.4 0-.1.1-.2.2-.3 0-.1.2-.2.2-.3 0 0 .2-.2.3-.2.1 0 .2-.1.3-.2s.2 0 .4-.1h.4"/><path class="cls-23" d="M106.7 297.8c0-.6-.5-1.1-1.1-1.1s-1.1.5-1.1 1.1.5 1.1 1.1 1.1 1.1-.5 1.1-1.1"/><path class="cls-19" d="M106.7 297.8c0-.6-.5-1.1-1.1-1.1s-1.1.5-1.1 1.1.5 1.1 1.1 1.1 1.1-.5 1.1-1.1"/><path class="cls-22" d="M100.7 323.8h14.6v15.8h-14.6z"/><path class="cls-19" d="M100.7 323.8h14.6v15.8h-14.6z"/><path class="cls-23" d="M113.4 335.8c0-1.6-1.3-2.9-2.9-2.9s-2.9 1.3-2.9 2.9 1.3 2.9 2.9 2.9 2.9-1.3 2.9-2.9"/><path class="cls-19" d="M113.4 335.8c0-1.6-1.3-2.9-2.9-2.9s-2.9 1.3-2.9 2.9 1.3 2.9 2.9 2.9 2.9-1.3 2.9-2.9"/><path class="cls-23" d="M106 336.8c0-1.2-1-2.2-2.2-2.2s-2.2 1-2.2 2.2 1 2.2 2.2 2.2 2.2-1 2.2-2.2"/><path class="cls-19" d="M106 336.8c0-1.2-1-2.2-2.2-2.2s-2.2 1-2.2 2.2 1 2.2 2.2 2.2 2.2-1 2.2-2.2"/><path class="cls-23" d="M112.7 328.3c0-1.3-1-2.3-2.2-2.3s-2.2 1-2.2 2.3 1 2.3 2.2 2.3 2.2-1 2.2-2.3"/><path class="cls-19" d="M112.7 328.3c0-1.3-1-2.3-2.2-2.3s-2.2 1-2.2 2.3 1 2.3 2.2 2.3 2.2-1 2.2-2.3"/><path class="cls-23" d="M106.9 328.5c0-1.5-1.3-2.8-2.9-2.8s-2.9 1.2-2.9 2.8 1.3 2.8 2.9 2.8 2.9-1.2 2.9-2.8"/><path class="cls-19" d="M106.9 328.5c0-1.5-1.3-2.8-2.9-2.8s-2.9 1.2-2.9 2.8 1.3 2.8 2.9 2.8 2.9-1.2 2.9-2.8"/><path class="cls-1" d="M109.3 271.3v78.2"/><path class="cls-19" d="M109.3 349v.5M119.2 270.6h17v.7h-17zM119.2 255.2h.7v15.4h-.7zM135.7 255.2h.5v15.4h-.5zM119.2 254.7h17v.5h-17zM153.3 270.6h17v.7h-17zM153.3 255.2h.5v15.4h-.5zM169.6 255.2h.7v15.4h-.7zM153.3 254.7h17v.5h-17zM170.3 270.6h2.4v.7h-2.4zM99.3 270.6h19.9v.7H99.3zM136.2 270.6h17v.7h-17zM136.2 255.2h.5v15.4h-.5zM152.8 255.2h.5v15.4h-.5zM136.2 254.7h17v.5h-17zM114.4 272.2h2.4M114.4 56.7l3.3-54.9h74.2l3.4 54.9"/><path class="cls-19" d="M112.7 56.7L116.3 0h77l3.6 56.7"/><path class="cls-23" d="M355.6 157l-3.6-1.2-3.6 1.2 2.6 1.7 4.6-1.7"/><path class="cls-18" d="M353.2 158l-1.9-1.9M355.1 157.3l.5-.3M350.3 158.2l2.2-2.1M125.2 60.6h59.3v3.6h-59.3zM51.6 387.2v-1.9c0-.6-.2-1.2-.3-1.8-.1-.6-.3-1.2-.5-1.8l-.6-1.8c-.2-.6-.5-1.1-.8-1.7s-.6-1.1-1-1.6c-.3-.5-.7-1-1.1-1.5-.4-.5-.8-.9-1.3-1.4-.4-.4-.9-.9-1.4-1.3-.5-.4-1-.8-1.5-1.1-.5-.3-1-.7-1.6-1-.5-.3-1.1-.6-1.7-.8l-1.8-.6c-.6-.2-1.2-.3-1.8-.5l-1.8-.3h-1.9M32.5 368.2v19M51.5 387.2l.2-1.4M52 384.3v-.7M52 383.6l.2-.7"/><path class="cls-11" d="M52.5 381.7l.7-1.7"/><path class="cls-18" d="M53.7 378.8l.2-.5M53.9 378.3l.5-.7M55.1 376.4l.7-1.2"/><path class="cls-14" d="M55.8 375.2l1.5-1.4"/><path class="cls-18" d="M57.3 373.8l.4-.5"/><path class="cls-5" d="M58.5 372.6l1.6-1.2"/><path class="cls-18" d="M61.1 370.6l.5-.2M61.6 370.4l.7-.2"/><path class="cls-12" d="M63.3 369.7l1.9-.5"/><path class="cls-18" d="M66.4 369l.5-.3M66.9 368.7l.9-.2"/><path class="cls-10" d="M68.8 368.2h1.9"/><path class="cls-6" d="M70.7 368.2v19"/><path class="cls-18" d="M70.7 386.7v.5M51.7 66.4v1.9c0 .6-.2 1.2-.3 1.8-.1.6-.3 1.2-.5 1.8l-.6 1.8c-.2.6-.5 1.1-.8 1.7-.3.5-.6 1.1-1 1.6-.3.5-.7 1-1.1 1.5-.4.5-.8.9-1.3 1.4-.4.4-.9.9-1.4 1.3-.5.4-1 .8-1.5 1.1-.5.3-1 .7-1.6 1-.5.3-1.1.6-1.7.8l-1.8.6c-.6.2-1.2.3-1.8.5l-1.8.3h-1.9M32.8 85.3v-19M51.7 66.3v1.5M51.7 69.2l.3 1M52 70.2l.2.4"/><path class="cls-11" d="M52.5 71.8l.7 2"/><path class="cls-18" d="M53.4 74.5l.5.9M53.9 75.4l.2.3"/><path class="cls-8" d="M54.9 76.9l1.2 1.4"/><path class="cls-18" d="M56.8 79.3l.5.5M57.3 79.8l.4.4"/><path class="cls-13" d="M58.7 81l1.4 1.2"/><path class="cls-18" d="M61.1 82.6l.7.5M61.8 83.1l.5.3"/><path class="cls-17" d="M63.5 83.8l1.7.8"/><path class="cls-18" d="M66.4 84.8l.5.2M66.9 85h.9"/><path class="cls-10" d="M68.8 85.3h1.9"/><path class="cls-6" d="M70.7 85.3v-19"/><path class="cls-18" d="M70.7 66.8v-.5M258 387.2v-1.9c0-.6.2-1.2.3-1.8.1-.6.3-1.2.5-1.8l.6-1.8c.2-.6.5-1.1.8-1.7.3-.5.6-1.1 1-1.6.3-.5.7-1 1.1-1.5.4-.5.8-.9 1.3-1.4.4-.4.9-.9 1.4-1.3.5-.4 1-.8 1.5-1.1.5-.3 1.1-.7 1.6-1 .5-.3 1.1-.6 1.7-.8l1.8-.6c.6-.2 1.2-.3 1.8-.5l1.8-.3h1.9M277.1 368.2v19M258.1 387.2l-.2-1.4M257.9 384.3l-.2-.9M257.7 383.4l-.3-.5"/><path class="cls-11" d="M257.2 381.7l-.7-1.7"/><path class="cls-18" d="M256 378.8l-.3-.5M255.7 378.3l-.4-.7M254.5 376.4l-.7-1.2"/><path class="cls-14" d="M253.8 375.2l-1.4-1.4"/><path class="cls-18" d="M252.4 373.8l-.5-.5"/><path class="cls-5" d="M251.2 372.6l-1.7-1.2"/><path class="cls-18" d="M248.5 370.6l-.4-.2M248.1 370.4l-.8-.2"/><path class="cls-12" d="M246.4 369.7l-1.9-.7"/><path class="cls-18" d="M243.3 368.7l-.5-.2M242.8 368.5h-1"/><path class="cls-10" d="M240.9 368.2h-2"/><path class="cls-6" d="M238.9 368.2v19"/><path class="cls-18" d="M238.9 386.7v.5M308.5 66.4c0 11 9.1 20.1 20.1 20.1M328.7 86.5V66.3"/><path class="cls-6" d="M308.5 66.3l-.4 4.1-1.2 3.6-1.7 3.6-2.7 3.1-3.1 2.4-3.3 1.9-3.9 1.2-3.8.3"/><path class="cls-15" d="M288.4 86.5V66.3"/><path class="cls-18" d="M164.8 66.4c0 11 9.1 20.1 20.1 20.1M184.9 86.5V66.3"/><path class="cls-6" d="M164.8 66.3l-.5 4.1-1 3.6-1.9 3.6-2.6 3.1-2.9 2.4-3.6 1.9-3.8 1.2-3.9.3"/><path class="cls-15" d="M144.6 86.5V66.3"/><path class="cls-18" d="M144.9 387.3c0-11-9.1-20.1-20.1-20.1M124.7 367v20.2"/><path class="cls-6" d="M144.9 387.2l.4-3.8 1.2-3.9 1.7-3.3 2.7-3.2 3.1-2.4 3.3-1.9 3.9-1.2 3.8-.5"/><path class="cls-15" d="M165 367v20.2"/><path class="cls-19" d="M35.2 177.2h56.6v15.6H35.2zM203.7 225.2v1M203.7 226.2l-.3.7M203.4 226.9v.9M203.4 227.8l-.2.3M202.7 229.3l-.2.2M201.7 230.7l-.4.5M201.3 231.2l-.8.7M200.5 231.9l-.7.5M199.8 232.4l-.2.2M198.4 233.1l-.5.3M196.7 233.6l-.7.2M196 233.8h-.7M195.3 233.8h-1M194.3 233.8l-.5-.2M192.4 233.4l-.3-.3M190.9 232.6l-.4-.2M190.5 232.4l-.8-.5M189.7 231.9l-.4-.7M189.3 231.2l-.5-.5M187.8 229.5v-.2M187.1 228.1v-.3M187.1 227.8l-.2-.9M186.9 226.9l-.3-.7M186.6 226.2v-1M186.9 224v-.5M187.3 222.3v-.2M187.3 222.1l.3-.7M187.6 221.4l.5-.8M188.1 220.6l.4-.7M189.7 218.7h.3M190.9 217.8h.3M191.2 217.8l.7-.3M191.9 217.5l.7-.5M192.6 217l1-.2M195 216.8h.3M195.3 216.8h.2M196.7 216.8h.2M196.9 216.8l.8.2M197.7 217l.7.5M198.4 217.5l.7.3M199.1 217.8l.2.2M200.5 218.7l.3.3M201.7 219.9l.5.7M202.2 220.6l.5.8M202.7 221.4l.2.7M202.9 222.1l.3.2M203.7 223.8v.2"/></g><g id="Mbel"><path class="cls-2" d="M167.4 301H190v51.1h-22.6zM157.4 350.6v-12.7M165.9 350.6h-8.5M157.4 337.9h8.5M157.4 332.9v-12.8M165.9 332.9h-8.5M157.4 320.1h8.5M157.4 315.2v-12.8M165.9 315.2h-8.5M157.4 302.4h8.5M199.9 350.6v-12.7M191.4 350.6h8.5M199.9 337.9h-8.5M199.9 332.9v-12.8M191.4 332.9h8.5M199.9 320.1h-8.5M199.9 315.2v-12.8M191.4 315.2h8.5M199.9 302.4h-8.5M35.2 106.4h56.6v45.4H35.2zM200.3 98.7h10.8v56.9h-10.8zM35.2 255.4h56.6v28.3H35.2zM28.9 333h7.7v11.3h-7.7zM9 315.9h19.9v45.4H9zM76.2 295.8h15.6v56.6H76.2zM136 117.7h14.2V146H136zM105 105.2h19c.1 0 .2.1.3.2 0 0 .1.2.2.3v25.5c0 .1-.1.2-.2.3 0 0-.2.1-.3.2h-19v-26.6M101.3 100.7H124c.1 0 .2.1.3.2 0 0 .1.2.2.3V104.6c0 .1-.1.2-.2.3 0 0-.2.1-.3.2h-23c-.1 0-.2-.1-.3-.2 0 0-.1-.2-.2-.3V101.5v-.3c0-.1.1-.2.2-.3s.2-.1.3-.2h.3M105 131.8h-3.7-.2H100.8l-.1.1-.1.1c-.1.1 0 0 0 .1V157.7c0 .1.1.2.2.3 0 0 .2.1.3.2s.2 0 .3 0h3.7M107.2 158.5v-53.3"/><path class="cls-2" d="M105 158.5h19c.1 0 .2-.1.3-.2 0 0 .1-.2.2-.3v-25.2-.3c0-.1-.1-.2-.2-.3 0 0-.2-.1-.3-.2h-19v26.6M101.3 163H124c.1 0 .2-.1.3-.2 0 0 .1-.2.2-.3V159.4v-.3c0-.1-.1-.2-.2-.3 0 0-.2-.1-.3-.2h-23c-.1 0-.2.1-.3.2 0 0-.1.2-.2.3V162.5c0 .1.1.2.2.3 0 0 .2.1.3.2s.2 0 .3 0M105 131.8h-3.7-.2-.2-.1l-.1-.1-.1-.1v-.1-.2V106.2v-.3c0-.1.1-.2.2-.3s.2-.1.3-.2h4M146.7 158.5c1.3 3.8 2.9 7.4 4.8 11 .4.8 1.4 1.3 2.3 1.3 3.2-.3 6.3-1.4 8.9-3.4.8-.6 1.1-1.5.9-2.5-.9-3.9-2.2-7.7-3.7-11.4h-.1c-.7 0-1.4.2-2 .4-3.1 1-6.2 2.2-9.2 3.5-.6.3-1.2.6-1.8 1"/><path class="cls-2" d="M146.7 159.6c-.2.3-.3.6-.3 1-.2 1.5 0 3.1.6 4.5.8 1.9 1.7 3.7 2.9 5.4.8 1.2 1.7 2.4 2.8 3.3.6.6 1.5.8 2.3.7 3.4-.4 6.6-1.7 9.4-3.6.7-.5 1.2-1.2 1.3-2.1.2-1.5.1-2.9 0-4.4-.3-2-.8-4-1.5-6-.5-1.4-1.4-2.7-2.5-3.8-.3-.2-.6-.4-.9-.5M253.3 274.4h56.6V290h-56.6zM218.3 274.4h28.3V331h-28.3zM282.6 338h7.7v11.5h-7.7zM290.3 321H310v45.4h-19.7zM218.5 98.7h15.6v56.9h-15.6zM318.9 99h28.3v56.6h-28.3zM270.9 128.2h11.5v7.7h-11.5zM254.1 135.9h45.1v19.7h-45.1z"/></g><g id="Text"><path d="M123.7 12.7c1.1 0 1.7.5 1.7 1.4s-.1.6-.3.9c-.1.2-.3.2-.5.3.3 0 .4.1.6.2.3.2.4.6.4 1s-.2.9-.6 1.2c-.3.2-.7.3-1.3.3h-1.5v-5.3h1.5zm-.8 2.4h.7c.4 0 .7 0 .9-.2.2-.2.3-.4.3-.7s-.2-.6-.4-.8c-.2 0-.4-.1-.9-.1h-.6v1.8zm0 2.4h.7c.6 0 .8 0 1-.2.3-.1.4-.4.4-.8 0-.6-.4-.9-1.2-.9h-.8v1.8zM129.6 14.4h.6v3.7h-.6v-.7c-.4.6-.8.8-1.3.8-1 0-1.7-.8-1.7-1.9s.7-1.9 1.8-1.9 1 .2 1.3.7v-.6zm-2.1.9c-.2.3-.3.6-.3 1 0 .8.5 1.4 1.2 1.4s1.3-.6 1.3-1.4-.5-1.4-1.2-1.4-.7.1-.9.4zM131.6 18.1v-5.3h.6v5.3h-.6zM134.2 18.1h-.6v-5.3h.6v3.3l1.5-1.6h.8l-1.6 1.8 1.6 1.9h-.8l-1.5-1.6v1.6zM140.6 16.2c0 1.1-.8 1.9-1.9 1.9s-1.9-.8-1.9-1.9.8-1.9 1.9-1.9 1.9.8 1.9 1.9zm-3.1 0c0 .8.5 1.4 1.3 1.4s1.2-.6 1.2-1.4-.5-1.4-1.2-1.4-1.3.6-1.3 1.4zM142.3 14.4v.5c.3-.4.6-.6 1.1-.6s.6.1.9.3c.2.2.3.5.3 1v2.5h-.6v-2.4c0-.3 0-.5-.1-.6-.1-.2-.3-.2-.6-.2s-.5.1-.7.3c-.2.2-.2.4-.2.7v2.2h-.6v-3.7h.6zM123.2 24c.2 0 .3-.1.5-.1.9 0 1.6.7 1.6 1.6s-.8 1.7-1.7 1.7-1.7-.8-1.7-1.7.1-.7.4-1.2l1.5-2.5h.7l-1.4 2.1zm-.7 1.5c0 .6.5 1.1 1.1 1.1s1.1-.5 1.1-1.1-.5-1.1-1.1-1.1-1.1.5-1.1 1.1zM127.1 26.7c0 .2-.2.4-.4.4s-.4-.2-.4-.4.2-.4.4-.4.4.2.4.4zM131.4 25.5c0 .6-.1 1-.4 1.2-.3.3-.7.4-1.2.4s-1-.2-1.2-.5c-.3-.3-.4-.6-.4-1.4v-1.8c0-.7 0-1 .3-1.3.3-.3.7-.5 1.2-.5s.9.1 1.2.4c.3.3.4.6.4 1.2v2.1zm-2.5-.1c0 .6 0 .7.2.9.2.2.5.3.8.3s.6-.1.8-.4c.1-.2.2-.4.2-.8v-2c0-.4 0-.6-.3-.8-.2-.2-.4-.2-.7-.2s-.6.1-.8.4c-.1.2-.2.4-.2.8v1.8zM134.8 23.4v.5c.3-.4.6-.6 1-.6s.8.2 1 .7c.3-.5.6-.7 1.2-.7s.7.1.9.4c.2.2.2.4.2 1v2.4h-.6v-2.2c0-.4 0-.6-.1-.7-.1-.2-.4-.3-.6-.3-.5 0-.8.4-.8 1v2.2h-.6v-2.2c0-.4 0-.5-.1-.7-.1-.2-.3-.3-.6-.3-.5 0-.9.4-.9 1v2.2h-.6v-3.7h.6zM142.3 24.6v.4h-2l1.2-1.6c.3-.5.4-.6.4-.8 0-.3-.2-.4-.5-.4s-.5.2-.5.6h-.4c0-.6.4-1 1-1s1 .3 1 .8-.1.5-.4.9l-.8 1.1h1.1z"/><g><path d="M184.9 197.3h2.1v.6h-2.1v1.8h2.1v.6h-2.8V195h2.8v.6h-2.1v1.8zM188.8 196.5v.5c.3-.4.6-.6 1.1-.6s.6.1.9.3c.2.2.3.5.3 1v2.5h-.6v-2.4c0-.3 0-.5-.1-.6-.1-.2-.3-.2-.6-.2s-.5.1-.7.3c-.2.2-.2.4-.2.7v2.2h-.6v-3.7h.6zM193 199.5c0 .2 0 .2.3.2h.3v.5h-.6c-.4 0-.6-.2-.6-.6V197h-.5v-.5h.5v-1.2h.6v1.2h.6v.5h-.6v2.4zM195.3 196.5v.6c.1-.3.2-.4.3-.5.2-.1.4-.2.7-.2h.1v.6h-.2c-.3 0-.6.2-.8.4-.2.2-.2.4-.2.9v1.9h-.6v-3.7h.6zM197.7 198.6c0 .3 0 .5.2.7.2.3.6.5 1 .5s.9-.2 1.1-.6l.5.2c-.3.6-.9 1-1.6 1-1.1 0-1.9-.8-1.9-1.9s.8-1.9 1.9-1.9 1.9.8 1.9 1.9v.2h-3.1zm2.4-.4c0-.3 0-.4-.2-.6-.2-.3-.6-.5-1-.5s-.8.2-1 .5c-.1.2-.2.3-.2.6h2.4zm-.2-3.2l-.9 1.1h-.4l.7-1.1h.7zM202.2 198.6c0 .3 0 .5.2.7.2.3.6.5 1 .5s.9-.2 1.1-.6l.5.2c-.3.6-.9 1-1.6 1-1.1 0-1.9-.8-1.9-1.9s.8-1.9 1.9-1.9 1.9.8 1.9 1.9v.2h-3.1zm2.4-.4c0-.3 0-.4-.2-.6-.2-.3-.6-.5-1-.5s-.8.2-1 .5c-.1.2-.2.3-.2.6h2.4zM186.6 204.5h-1.7v1.4c.3-.1.5-.2.8-.2.9 0 1.6.7 1.6 1.7s-.8 1.8-1.8 1.8-1.3-.4-1.6-1.1l.6-.2c.1.2.2.3.3.4.2.2.5.3.8.3.6 0 1.1-.5 1.1-1.2s-.5-1.1-1.2-1.1-.8.2-1.2.5v-3h2.3v.6zM189.1 208.9c0 .2-.2.4-.4.4s-.4-.2-.4-.4.2-.4.4-.4.4.2.4.4zM193.2 208.6v.6h-3l1.9-2.7c.5-.8.7-1 .7-1.3 0-.5-.4-.8-.9-.8s-.7.2-.8.4v.6h-.6c0-1 .6-1.6 1.5-1.6s1.5.5 1.5 1.3-.2.8-.6 1.5l-1.4 2h1.9zM199.2 205.5v.5c.3-.4.6-.6 1-.6s.8.2 1 .7c.3-.5.6-.7 1.2-.7s.7.1.9.4c.2.2.2.4.2 1v2.4h-.6V207c0-.4 0-.6-.1-.7-.1-.2-.4-.3-.6-.3-.5 0-.8.4-.8 1v2.2h-.6V207c0-.4 0-.5-.1-.7-.1-.2-.3-.3-.6-.3-.5 0-.9.4-.9 1v2.2h-.6v-3.7h.6zM206.8 206.7v.4h-2l1.2-1.6c.3-.5.4-.6.4-.8 0-.3-.2-.4-.5-.4s-.5.2-.5.6h-.4c0-.6.4-1 1-1s1 .3 1 .8-.1.5-.4.9l-.8 1.1h1.1z"/></g><g><path d="M166.4 97.9h.7l-1.6 5.3h-.6l-1.2-4.2-1.2 4.2h-.6l-1.6-5.3h.7l1.2 4.1 1.2-4.1h.6l1.1 4.1 1.2-4.1zM171.2 101.4c0 1.1-.8 1.9-1.9 1.9s-1.9-.8-1.9-1.9.8-1.9 1.9-1.9 1.9.8 1.9 1.9zm-3.1 0c0 .8.5 1.4 1.3 1.4s1.2-.6 1.2-1.4-.5-1.4-1.2-1.4-1.3.6-1.3 1.4zM172.9 100.1c.3-.4.7-.6 1.1-.6s.7.1.9.3c.2.2.3.5.3 1v2.5h-.6v-2.4c0-.5-.2-.8-.7-.8s-.5.1-.7.3c-.2.2-.2.4-.2.7v2.2h-.6V98h.6v2.2zM177.1 99.6v.5c.3-.4.6-.6 1.1-.6s.6.1.9.3c.2.2.3.5.3 1v2.5h-.6v-2.4c0-.3 0-.5-.1-.6-.1-.2-.3-.2-.6-.2s-.5.1-.7.3c-.2.2-.2.4-.2.7v2.2h-.6v-3.7h.6zM181.1 101.6c0 .3 0 .5.2.7.2.3.6.5 1 .5s.9-.2 1.1-.6l.5.2c-.3.6-.9 1-1.6 1-1.1 0-1.9-.8-1.9-1.9s.8-1.9 1.9-1.9 1.9.8 1.9 1.9v.2h-3.1zm2.4-.4c0-.3 0-.4-.2-.6-.2-.3-.6-.5-1-.5s-.8.2-1 .5c-.1.2-.2.3-.2.6h2.4zM185.8 99.6v.5c.3-.4.6-.6 1.1-.6s.6.1.9.3c.2.2.3.5.3 1v2.5h-.6v-2.4c0-.3 0-.5-.1-.6-.1-.2-.3-.2-.6-.2s-.5.1-.7.3c-.2.2-.2.4-.2.7v2.2h-.6v-3.7h.6zM161.1 108.7v-.6l1.8-1.2v5.4h-.6v-4.4l-1.2.8zM167.1 107.5h-1.7v1.4c.3-.1.5-.2.8-.2.9 0 1.6.7 1.6 1.7s-.8 1.8-1.8 1.8-1.3-.4-1.6-1.1l.6-.2c.1.2.2.3.3.4.2.2.5.3.8.3.6 0 1.1-.5 1.1-1.2s-.5-1.1-1.2-1.1-.8.2-1.2.5v-3h2.3v.6zM169.7 111.9c0 .2-.2.4-.4.4s-.4-.2-.4-.4.2-.4.4-.4.4.2.4.4zM172 109.2c.2 0 .3-.1.5-.1.9 0 1.6.7 1.6 1.6s-.8 1.7-1.7 1.7-1.7-.8-1.7-1.7.1-.7.4-1.2l1.5-2.5h.7l-1.4 2.1zm-.7 1.5c0 .6.5 1.1 1.1 1.1s1.1-.5 1.1-1.1-.5-1.1-1.1-1.1-1.1.5-1.1 1.1zM177.3 108.6v.5c.3-.4.6-.6 1-.6s.8.2 1 .7c.3-.5.6-.7 1.2-.7s.7.1.9.4c.2.2.2.4.2 1v2.4h-.6v-2.2c0-.4 0-.6-.1-.7-.1-.2-.4-.3-.6-.3-.5 0-.8.4-.8 1v2.2h-.6v-2.2c0-.4 0-.5-.1-.7-.1-.2-.3-.3-.6-.3-.5 0-.9.4-.9 1v2.2h-.6v-3.7h.6zM184.9 109.8v.4h-2l1.2-1.6c.3-.5.4-.6.4-.8 0-.3-.2-.4-.5-.4s-.5.2-.5.6h-.4c0-.6.4-1 1-1s1 .3 1 .8-.1.5-.4.9l-.8 1.1h1.1z"/></g><g><path d="M44 302.4v.6h-3.8l3-4.8h-2.7v-.6h3.8l-3 4.8H44zM45.9 298.2c0 .2-.2.4-.4.4s-.4-.2-.4-.4.2-.4.4-.4.4.2.4.4zm0 4.7h-.6v-3.7h.6v3.7zM47.8 299.3v.5c.3-.4.6-.6 1-.6s.8.2 1 .7c.3-.5.6-.7 1.2-.7s.7.1.9.4c.2.2.2.4.2 1v2.4h-.6v-2.2c0-.4 0-.6-.1-.7-.1-.2-.4-.3-.6-.3-.5 0-.8.4-.8 1v2.2h-.6v-2.2c0-.4 0-.5-.1-.7-.1-.2-.3-.3-.6-.3-.5 0-.9.4-.9 1v2.2h-.6v-3.7h.6zM54.1 299.3v.5c.3-.4.6-.6 1-.6s.8.2 1 .7c.3-.5.6-.7 1.2-.7s.7.1.9.4c.2.2.2.4.2 1v2.4h-.6v-2.2c0-.4 0-.6-.1-.7-.1-.2-.4-.3-.6-.3-.5 0-.8.4-.8 1v2.2h-.6v-2.2c0-.4 0-.5-.1-.7-.1-.2-.3-.3-.6-.3-.5 0-.9.4-.9 1v2.2h-.6v-3.7h.6zM60.2 301.3c0 .3 0 .5.2.7.2.3.6.5 1 .5s.9-.2 1.1-.6l.5.2c-.3.6-.9 1-1.6 1-1.1 0-1.9-.8-1.9-1.9s.8-1.9 1.9-1.9 1.9.8 1.9 1.9v.2h-3.1zm2.4-.4c0-.3 0-.4-.2-.6-.2-.3-.6-.5-1-.5s-.8.2-1 .5c-.1.2-.2.3-.2.6h2.4zM64.9 299.3v.6c.1-.3.2-.4.3-.5.2-.1.4-.2.7-.2h.1v.6h-.2c-.3 0-.6.2-.8.4-.2.2-.2.4-.2.9v1.9h-.6v-3.7h.6zM41 308.4v-.6l1.8-1.2v5.4h-.6v-4.4l-1.2.8zM44.2 310.8v-.5l2.8-3.7v3.6h.6v.6H47v1.2h-.6v-1.2h-2.1zm2.1-2.6l-1.5 2h1.5v-2zM49.4 311.6c0 .2-.2.4-.4.4s-.4-.2-.4-.4.2-.4.4-.4.4.2.4.4zM53.5 311.4v.6h-3l1.9-2.7c.5-.8.7-1 .7-1.3 0-.5-.4-.8-.9-.8s-.7.2-.8.4v.6h-.6c0-1 .6-1.6 1.5-1.6s1.5.5 1.5 1.3-.2.8-.6 1.5l-1.4 2h1.9zM57 308.3v.5c.3-.4.6-.6 1-.6s.8.2 1 .7c.3-.5.6-.7 1.2-.7s.7.1.9.4c.2.2.2.4.2 1v2.4h-.6v-2.2c0-.4 0-.6-.1-.7-.1-.2-.4-.3-.6-.3-.5 0-.8.4-.8 1v2.2h-.6v-2.2c0-.4 0-.5-.1-.7-.1-.2-.3-.3-.6-.3-.5 0-.9.4-.9 1v2.2h-.6v-3.7h.6zM64.6 309.4v.4h-2l1.2-1.6c.3-.5.4-.6.4-.8 0-.3-.2-.4-.5-.4s-.5.2-.5.6h-.4c0-.6.4-1 1-1s1 .3 1 .8-.1.5-.4.9l-.8 1.1h1.1z"/></g><g><path d="M270.3 102.4v.6h-3.8l3-4.8h-2.7v-.6h3.8l-3 4.8h2.7zM272.2 98.2c0 .2-.2.4-.4.4s-.4-.2-.4-.4.2-.4.4-.4.4.2.4.4zm0 4.7h-.6v-3.7h.6v3.7zM274.1 99.2v.5c.3-.4.6-.6 1-.6s.8.2 1 .7c.3-.5.6-.7 1.2-.7s.7.1.9.4c.2.2.2.4.2 1v2.4h-.6v-2.2c0-.4 0-.6-.1-.7-.1-.2-.4-.3-.6-.3-.5 0-.8.4-.8 1v2.2h-.6v-2.2c0-.4 0-.5-.1-.7-.1-.2-.3-.3-.6-.3-.5 0-.9.4-.9 1v2.2h-.6v-3.7h.6zM280.4 99.2v.5c.3-.4.6-.6 1-.6s.8.2 1 .7c.3-.5.6-.7 1.2-.7s.7.1.9.4c.2.2.2.4.2 1v2.4h-.6v-2.2c0-.4 0-.6-.1-.7-.1-.2-.4-.3-.6-.3-.5 0-.8.4-.8 1v2.2h-.6v-2.2c0-.4 0-.5-.1-.7-.1-.2-.3-.3-.6-.3-.5 0-.9.4-.9 1v2.2h-.6v-3.7h.6zM286.5 101.3c0 .3 0 .5.2.7.2.3.6.5 1 .5s.9-.2 1.1-.6l.5.2c-.3.6-.9 1-1.6 1-1.1 0-1.9-.8-1.9-1.9s.8-1.9 1.9-1.9 1.9.8 1.9 1.9v.2h-3.1zm2.4-.4c0-.3 0-.4-.2-.6-.2-.3-.6-.5-1-.5s-.8.2-1 .5c-.1.2-.2.3-.2.6h2.4zM291.2 99.2v.6c.1-.3.2-.4.3-.5.2-.1.4-.2.7-.2h.1v.6h-.2c-.3 0-.6.2-.8.4-.2.2-.2.4-.2.9v1.9h-.6v-3.7h.6zM267.3 108.4v-.6l1.8-1.2v5.4h-.6v-4.4l-1.2.8zM270.5 110.7v-.5l2.8-3.7v3.6h.6v.6h-.6v1.2h-.6v-1.2h-2.1zm2.1-2.6l-1.5 2h1.5v-2zM275.7 111.6c0 .2-.2.4-.4.4s-.4-.2-.4-.4.2-.4.4-.4.4.2.4.4zM279.8 111.3v.6h-3l1.9-2.7c.5-.8.7-1 .7-1.3 0-.5-.4-.8-.9-.8s-.7.2-.8.4v.6h-.6c0-1 .6-1.6 1.5-1.6s1.5.5 1.5 1.3-.2.8-.6 1.5l-1.4 2h1.9zM283.3 108.2v.5c.3-.4.6-.6 1-.6s.8.2 1 .7c.3-.5.6-.7 1.2-.7s.7.1.9.4c.2.2.2.4.2 1v2.4h-.6v-2.2c0-.4 0-.6-.1-.7-.1-.2-.4-.3-.6-.3-.5 0-.8.4-.8 1v2.2h-.6v-2.2c0-.4 0-.5-.1-.7-.1-.2-.3-.3-.6-.3-.5 0-.9.4-.9 1v2.2h-.6v-3.7h.6zM290.9 109.4v.4h-2l1.2-1.6c.3-.5.4-.6.4-.8 0-.3-.2-.4-.5-.4s-.5.2-.5.6h-.4c0-.6.4-1 1-1s1 .3 1 .8-.1.5-.4.9l-.8 1.1h1.1z"/></g><g><path d="M44 126.5v.6h-3.8l3-4.8h-2.7v-.6h3.8l-3 4.8H44zM45.9 122.4c0 .2-.2.4-.4.4s-.4-.2-.4-.4.2-.4.4-.4.4.2.4.4zm0 4.7h-.6v-3.7h.6v3.7zM47.8 123.4v.5c.3-.4.6-.6 1-.6s.8.2 1 .7c.3-.5.6-.7 1.2-.7s.7.1.9.4c.2.2.2.4.2 1v2.4h-.6v-2.2c0-.4 0-.6-.1-.7-.1-.2-.4-.3-.6-.3-.5 0-.8.4-.8 1v2.2h-.6v-2.2c0-.4 0-.5-.1-.7-.1-.2-.3-.3-.6-.3-.5 0-.9.4-.9 1v2.2h-.6v-3.7h.6zM54.1 123.4v.5c.3-.4.6-.6 1-.6s.8.2 1 .7c.3-.5.6-.7 1.2-.7s.7.1.9.4c.2.2.2.4.2 1v2.4h-.6v-2.2c0-.4 0-.6-.1-.7-.1-.2-.4-.3-.6-.3-.5 0-.8.4-.8 1v2.2h-.6v-2.2c0-.4 0-.5-.1-.7-.1-.2-.3-.3-.6-.3-.5 0-.9.4-.9 1v2.2h-.6v-3.7h.6zM60.2 125.5c0 .3 0 .5.2.7.2.3.6.5 1 .5s.9-.2 1.1-.6l.5.2c-.3.6-.9 1-1.6 1-1.1 0-1.9-.8-1.9-1.9s.8-1.9 1.9-1.9 1.9.8 1.9 1.9v.2h-3.1zm2.4-.4c0-.3 0-.4-.2-.6-.2-.3-.6-.5-1-.5s-.8.2-1 .5c-.1.2-.2.3-.2.6h2.4zM64.9 123.4v.6c.1-.3.2-.4.3-.5.2-.1.4-.2.7-.2h.1v.6h-.2c-.3 0-.6.2-.8.4-.2.2-.2.4-.2.9v1.9h-.6v-3.7h.6zM41 132.5v-.6l1.8-1.2v5.4h-.6v-4.4l-1.2.8zM44.5 131.4v-.6h3l-1.6 2c.9 0 1.6.7 1.6 1.6s-.8 1.7-1.8 1.7-1.4-.5-1.6-1.3h.6c.1.4.5.7 1 .7s1.2-.5 1.2-1.1-.5-1.1-1.2-1.1-.4 0-.6.2l-.3-.2 1.5-1.9h-1.9zM49.4 135.8c0 .2-.2.4-.4.4s-.4-.2-.4-.4.2-.4.4-.4.4.2.4.4zM53.5 135.5v.6h-3l1.9-2.7c.5-.8.7-1 .7-1.3 0-.5-.4-.8-.9-.8s-.7.2-.8.4v.6h-.6c0-1 .6-1.6 1.5-1.6s1.5.5 1.5 1.3-.2.8-.6 1.5l-1.4 2h1.9zM57.1 132.4v.5c.3-.4.6-.6 1-.6s.8.2 1 .7c.3-.5.6-.7 1.2-.7s.7.1.9.4c.2.2.2.4.2 1v2.4h-.6v-2.2c0-.4 0-.6-.1-.7-.1-.2-.4-.3-.6-.3-.5 0-.8.4-.8 1v2.2h-.6v-2.2c0-.4 0-.5-.1-.7-.1-.2-.3-.3-.6-.3-.5 0-.9.4-.9 1v2.2h-.6v-3.7h.6zM64.7 133.6v.4h-2l1.2-1.6c.3-.5.4-.6.4-.8 0-.3-.2-.4-.5-.4s-.5.2-.5.6h-.4c0-.6.4-1 1-1s1 .3 1 .8-.1.5-.4.9l-.8 1.1h1.1z"/></g><g><path d="M264.2 305.7v.6h-3.8l3-4.8h-2.7v-.6h3.8l-3 4.8h2.7zM266.1 301.6c0 .2-.2.4-.4.4s-.4-.2-.4-.4.2-.4.4-.4.4.2.4.4zm0 4.7h-.6v-3.7h.6v3.7zM267.9 302.6v.5c.3-.4.6-.6 1-.6s.8.2 1 .7c.3-.5.6-.7 1.2-.7s.7.1.9.4c.2.2.2.4.2 1v2.4h-.6v-2.2c0-.4 0-.6-.1-.7-.1-.2-.4-.3-.6-.3-.5 0-.8.4-.8 1v2.2h-.6v-2.2c0-.4 0-.5-.1-.7-.1-.2-.3-.3-.6-.3-.5 0-.9.4-.9 1v2.2h-.6v-3.7h.6zM274.3 302.6v.5c.3-.4.6-.6 1-.6s.8.2 1 .7c.3-.5.6-.7 1.2-.7s.7.1.9.4c.2.2.2.4.2 1v2.4h-.6v-2.2c0-.4 0-.6-.1-.7-.1-.2-.4-.3-.6-.3-.5 0-.8.4-.8 1v2.2h-.6v-2.2c0-.4 0-.5-.1-.7-.1-.2-.3-.3-.6-.3-.5 0-.9.4-.9 1v2.2h-.6v-3.7h.6zM280.4 304.7c0 .3 0 .5.2.7.2.3.6.5 1 .5s.9-.2 1.1-.6l.5.2c-.3.6-.9 1-1.6 1-1.1 0-1.9-.8-1.9-1.9s.8-1.9 1.9-1.9 1.9.8 1.9 1.9v.2h-3.1zm2.4-.4c0-.3 0-.4-.2-.6-.2-.3-.6-.5-1-.5s-.8.2-1 .5c-.1.2-.2.3-.2.6h2.4zM285.1 302.6v.6c.1-.3.2-.4.3-.5.2-.1.4-.2.7-.2h.1v.6h-.2c-.3 0-.6.2-.8.4-.2.2-.2.4-.2.9v1.9h-.6v-3.7h.6zM261.2 311.7v-.6l1.8-1.2v5.4h-.6v-4.4l-1.2.8zM264.7 310.6v-.6h3l-1.6 2c.9 0 1.6.7 1.6 1.6s-.8 1.7-1.8 1.7-1.4-.5-1.6-1.3h.6c.1.4.5.7 1 .7s1.2-.5 1.2-1.1-.5-1.1-1.2-1.1-.4 0-.6.2l-.3-.2 1.5-1.9h-1.9zM269.6 315c0 .2-.2.4-.4.4s-.4-.2-.4-.4.2-.4.4-.4.4.2.4.4zM273.9 313.7c0 .6-.1 1-.4 1.2-.3.3-.7.4-1.2.4s-1-.2-1.2-.5c-.3-.3-.4-.6-.4-1.4v-1.8c0-.7 0-1 .3-1.3.3-.3.7-.5 1.2-.5s.9.1 1.2.4c.3.3.4.6.4 1.2v2.1zm-2.5-.1c0 .6 0 .7.2.9.2.2.5.3.8.3s.6-.1.8-.4c.1-.2.2-.4.2-.8v-2c0-.4 0-.6-.3-.8-.2-.2-.4-.2-.7-.2s-.6.1-.8.4c-.1.2-.2.4-.2.8v1.8zM277.3 311.6v.5c.3-.4.6-.6 1-.6s.8.2 1 .7c.3-.5.6-.7 1.2-.7s.7.1.9.4c.2.2.2.4.2 1v2.4h-.6v-2.2c0-.4 0-.6-.1-.7-.1-.2-.4-.3-.6-.3-.5 0-.8.4-.8 1v2.2h-.6v-2.2c0-.4 0-.5-.1-.7-.1-.2-.3-.3-.6-.3-.5 0-.9.4-.9 1v2.2h-.6v-3.7h.6zM284.8 312.8v.4h-2l1.2-1.6c.3-.5.4-.6.4-.8 0-.3-.2-.4-.5-.4s-.5.2-.5.6h-.4c0-.6.4-1 1-1s1 .3 1 .8-.1.5-.4.9l-.8 1.1h1.1z"/></g><g><path d="M131.9 288.1h-.7v-5.3h.7v2.5l2.1-2.5h.8l-2.2 2.6 2.2 2.7h-.9l-2-2.5v2.5zM138.9 286.2c0 1.1-.8 1.9-1.9 1.9s-1.9-.8-1.9-1.9.8-1.9 1.9-1.9 1.9.8 1.9 1.9zm-3.1 0c0 .8.5 1.4 1.3 1.4s1.2-.6 1.2-1.4-.5-1.4-1.2-1.4-1.3.6-1.3 1.4zM142.9 287.6c-.4.4-.8.5-1.4.5-1.1 0-1.8-.8-1.8-1.9s.8-1.9 1.8-1.9 1 .2 1.3.6l-.4.4c-.3-.3-.6-.4-.9-.4-.7 0-1.2.6-1.2 1.4s.5 1.4 1.2 1.4.6-.1.9-.4l.4.4zM144.5 284.9c.3-.4.7-.6 1.1-.6s.7.1.9.3c.2.2.3.5.3 1v2.5h-.6v-2.4c0-.5-.2-.8-.7-.8s-.5.1-.7.3c-.2.2-.2.4-.2.7v2.2h-.6v-5.3h.6v2.2zM148.5 286.4c0 .3 0 .5.2.7.2.3.6.5 1 .5s.9-.2 1.1-.6l.5.2c-.3.6-.9 1-1.6 1-1.1 0-1.9-.8-1.9-1.9s.8-1.9 1.9-1.9 1.9.8 1.9 1.9v.2h-3.1zm2.4-.4c0-.3 0-.4-.2-.6-.2-.3-.6-.5-1-.5s-.8.2-1 .5c-.1.2-.2.3-.2.6h2.4zM153.2 284.4v.5c.3-.4.6-.6 1.1-.6s.6.1.9.3c.2.2.3.5.3 1v2.5h-.6v-2.4c0-.3 0-.5-.1-.6-.1-.2-.3-.2-.6-.2s-.5.1-.7.3c-.2.2-.2.4-.2.7v2.2h-.6v-3.7h.6zM156.7 289.3h-.4l.7-2.1.6.2-.8 1.9zM161.9 285.1h2.1v.6h-2.1v1.8h2.1v.6h-2.8v-5.3h2.8v.6h-2.1v1.8zM166.9 285.4c0-.4-.3-.6-.7-.6s-.7.2-.7.5.2.4.8.6c.5.1.7.2.9.4.2.2.3.4.3.7 0 .6-.5 1.1-1.3 1.1s-1.3-.4-1.4-1.1h.6c0 .4.3.6.8.6s.7-.2.7-.5-.2-.5-.8-.6c-.8-.2-1.2-.6-1.2-1.1s.5-1.1 1.3-1.1 1.3.4 1.3 1.1h-.6zM170.5 285.4c0-.4-.3-.6-.7-.6s-.7.2-.7.5.2.4.8.6c.5.1.7.2.9.4.2.2.3.4.3.7 0 .6-.5 1.1-1.3 1.1s-1.3-.4-1.4-1.1h.6c0 .4.3.6.8.6s.7-.2.7-.5-.2-.5-.8-.6c-.8-.2-1.2-.6-1.2-1.1s.5-1.1 1.3-1.1 1.3.4 1.3 1.1h-.6zM172.6 286.4c0 .3 0 .5.2.7.2.3.6.5 1 .5s.9-.2 1.1-.6l.5.2c-.3.6-.9 1-1.6 1-1.1 0-1.9-.8-1.9-1.9s.8-1.9 1.9-1.9 1.9.8 1.9 1.9v.2h-3.1zm2.4-.4c0-.3 0-.4-.2-.6-.2-.3-.6-.5-1-.5s-.8.2-1 .5c-.1.2-.2.3-.2.6h2.4zM177.4 284.4v.5c.3-.4.6-.6 1.1-.6s.6.1.9.3c.2.2.3.5.3 1v2.5h-.6v-2.4c0-.3 0-.5-.1-.6-.1-.2-.3-.2-.6-.2s-.5.1-.7.3c-.2.2-.2.4-.2.7v2.2h-.6v-3.7h.6zM180.9 289.3h-.4l.7-2.1.6.2-.8 1.9zM131.4 293.5v-.6l1.8-1.2v5.4h-.6v-4.4l-1.2.8zM136 294c.2 0 .3-.1.5-.1.9 0 1.6.7 1.6 1.6s-.8 1.7-1.7 1.7-1.7-.8-1.7-1.7.1-.7.4-1.2l1.5-2.5h.7l-1.4 2.1zm-.7 1.5c0 .6.5 1.1 1.1 1.1s1.1-.5 1.1-1.1-.5-1.1-1.1-1.1-1.1.5-1.1 1.1zM139.9 296.7c0 .2-.2.4-.4.4s-.4-.2-.4-.4.2-.4.4-.4.4.2.4.4zM143.9 294.5c.3.3.4.6.4 1 0 .9-.7 1.6-1.7 1.6s-1.6-.6-1.6-1.6.1-.8.4-1.1c.2-.2.3-.3.6-.4-.3 0-.4-.2-.5-.4-.2-.2-.3-.5-.3-.8 0-.8.6-1.3 1.5-1.3s1.4.6 1.4 1.3-.1.6-.3.8c-.1.2-.3.2-.5.3.3 0 .4.2.6.3zm-2.3 1c0 .6.5 1 1 1s1-.5 1-1-.5-1-1-1-1 .5-1 1zm.2-2.5c0 .5.4.8.8.8s.9-.4.9-.8-.4-.8-.8-.8-.9.3-.9.8zM147.6 293.4v.5c.3-.4.6-.6 1-.6s.8.2 1 .7c.3-.5.6-.7 1.2-.7s.7.1.9.4c.2.2.2.4.2 1v2.4h-.6v-2.2c0-.4 0-.6-.1-.7-.1-.2-.4-.3-.6-.3-.5 0-.8.4-.8 1v2.2h-.6v-2.2c0-.4 0-.5-.1-.7-.1-.2-.3-.3-.6-.3-.5 0-.9.4-.9 1v2.2h-.6v-3.7h.6zM155.2 294.6v.4h-2l1.2-1.6c.3-.5.4-.6.4-.8 0-.3-.2-.4-.5-.4s-.5.2-.5.6h-.4c0-.6.4-1 1-1s1 .3 1 .8-.1.5-.4.9l-.8 1.1h1.1z"/></g><g><path d="M132.7 218.9c1.1 0 1.7.5 1.7 1.4s-.1.6-.3.9c-.1.2-.3.2-.5.3.3 0 .4.1.6.2.3.2.4.6.4 1s-.2.9-.6 1.2c-.3.2-.7.3-1.3.3h-1.5v-5.3h1.5zm-.8 2.4h.7c.4 0 .7 0 .9-.2.2-.2.3-.4.3-.7s-.2-.6-.4-.8c-.2 0-.4-.1-.9-.1h-.6v1.8zm0 2.4h.7c.6 0 .8 0 1-.2.3-.1.4-.4.4-.8 0-.6-.4-.9-1.2-.9h-.8v1.8zM138.6 220.5h.6v3.7h-.6v-.7c-.4.6-.8.8-1.3.8-1 0-1.7-.8-1.7-1.9s.7-1.9 1.8-1.9 1 .2 1.3.7v-.6zm-2.1.9c-.2.3-.3.6-.3 1 0 .8.5 1.4 1.2 1.4s1.3-.6 1.3-1.4-.5-1.4-1.2-1.4-.7.1-.9.4zM143.4 218.9h.6v5.3h-.6v-.6c-.4.5-.8.7-1.3.7-1 0-1.7-.8-1.7-1.9s.7-2 1.7-2 1 .2 1.3.6v-2.2zm-2.4 3.5c0 .8.5 1.4 1.2 1.4s1.2-.6 1.2-1.4-.5-1.4-1.2-1.4-1.2.6-1.2 1.4zM131.1 228.6v-.6h3l-1.6 2c.9 0 1.6.7 1.6 1.6s-.8 1.7-1.8 1.7-1.4-.5-1.6-1.3h.6c.1.4.5.7 1 .7s1.2-.5 1.2-1.1-.5-1.1-1.2-1.1-.4 0-.6.2l-.3-.2 1.5-1.9H131zM136.1 232.9c0 .2-.2.4-.4.4s-.4-.2-.4-.4.2-.4.4-.4.4.2.4.4zM140.1 230.7c.3.3.4.6.4 1 0 .9-.7 1.6-1.7 1.6s-1.6-.6-1.6-1.6.1-.8.4-1.1c.2-.2.3-.3.6-.4-.3 0-.4-.2-.5-.4-.2-.2-.3-.5-.3-.8 0-.8.6-1.3 1.5-1.3s1.4.6 1.4 1.3-.1.6-.3.8c-.1.2-.3.2-.5.3.3 0 .4.2.6.3zm-2.3 1c0 .6.5 1 1 1s1-.5 1-1-.5-1-1-1-1 .5-1 1zm.2-2.5c0 .5.4.8.8.8s.9-.4.9-.8-.4-.8-.8-.8-.9.3-.9.8zM144.6 229.5v.5c.3-.4.6-.6 1-.6s.8.2 1 .7c.3-.5.6-.7 1.2-.7s.7.1.9.4c.2.2.2.4.2 1v2.4h-.6V231c0-.4 0-.6-.1-.7-.1-.2-.4-.3-.6-.3-.5 0-.8.4-.8 1v2.2h-.6V231c0-.4 0-.5-.1-.7-.1-.2-.3-.3-.6-.3-.5 0-.9.4-.9 1v2.2h-.6v-3.7h.6zM152.2 230.7v.4h-2l1.2-1.6c.3-.5.4-.6.4-.8 0-.3-.2-.4-.5-.4s-.5.2-.5.6h-.4c0-.6.4-1 1-1s1 .3 1 .8-.1.5-.4.9l-.8 1.1h1.1z"/></g><g><path d="M40.5 226.8h1.4c1.6 0 2.6 1 2.6 2.6s-.3 1.6-.8 2.1c-.5.4-1.1.6-1.9.6h-1.3v-5.3zm.7 4.8h.2c.9 0 1.3 0 1.7-.4.5-.4.7-1 .7-1.8 0-1.3-.7-2-1.9-2h-.7v4.2zM48.5 228.5v2.4c0 .5 0 .8-.4 1-.3.2-.6.4-1.1.4s-.8-.1-1.1-.4c-.2-.2-.4-.6-.4-1v-2.4h.6v2.3c0 .5.3.9.8.9s.5-.1.7-.3c.1-.1.2-.3.2-.6v-2.4h.6zM51.6 229.5c0-.4-.3-.6-.7-.6s-.7.2-.7.5.2.4.8.6c.5.1.7.2.9.4.2.2.3.4.3.7 0 .6-.5 1.1-1.3 1.1s-1.3-.4-1.4-1.1h.6c0 .4.3.6.8.6s.7-.2.7-.5-.2-.5-.8-.6c-.8-.2-1.2-.6-1.2-1.1s.5-1.1 1.3-1.1 1.3.4 1.3 1.1h-.6zM56.2 231.7c-.4.4-.8.5-1.4.5-1.1 0-1.8-.8-1.8-1.9s.8-1.9 1.8-1.9 1 .2 1.3.6l-.4.4c-.3-.3-.6-.4-.9-.4-.7 0-1.2.6-1.2 1.4s.5 1.4 1.2 1.4.6-.1.9-.4l.4.4zM57.8 229c.3-.4.7-.6 1.1-.6s.7.1.9.3c.2.2.3.5.3 1v2.5h-.6v-2.4c0-.5-.2-.8-.7-.8s-.5.1-.7.3c-.2.2-.2.4-.2.7v2.2h-.6v-5.3h.6v2.2zM61.7 230.5c0 .3 0 .5.2.7.2.3.6.5 1 .5s.9-.2 1.1-.6l.5.2c-.3.6-.9 1-1.6 1-1.1 0-1.9-.8-1.9-1.9s.8-1.9 1.9-1.9 1.9.8 1.9 1.9v.2h-3.1zm2.4-.4c0-.3 0-.4-.2-.6-.2-.3-.6-.5-1-.5s-.8.2-1 .5c-.1.2-.2.3-.2.6h2.4zM40.2 240v-.5l2.8-3.7v3.6h.6v.6H43v1.2h-.6V240h-2.1zm2.1-2.6l-1.5 2h1.5v-2zM45.4 240.8c0 .2-.2.4-.4.4s-.4-.2-.4-.4.2-.4.4-.4.4.2.4.4zM47.7 238c.2 0 .3-.1.5-.1.9 0 1.6.7 1.6 1.6s-.8 1.7-1.7 1.7-1.7-.8-1.7-1.7.1-.7.4-1.2l1.5-2.5h.7l-1.4 2.1zm-.7 1.5c0 .6.5 1.1 1.1 1.1s1.1-.5 1.1-1.1-.5-1.1-1.1-1.1-1.1.5-1.1 1.1zM53.9 237.5v.5c.3-.4.6-.6 1-.6s.8.2 1 .7c.3-.5.6-.7 1.2-.7s.7.1.9.4c.2.2.2.4.2 1v2.4h-.6V239c0-.4 0-.6-.1-.7-.1-.2-.4-.3-.6-.3-.5 0-.8.4-.8 1v2.2h-.6V239c0-.4 0-.5-.1-.7-.1-.2-.3-.3-.6-.3-.5 0-.9.4-.9 1v2.2h-.6v-3.7h.6zM61.5 238.6v.4h-2l1.2-1.6c.3-.5.4-.6.4-.8 0-.3-.2-.4-.5-.4s-.5.2-.5.6h-.4c0-.6.4-1 1-1s1 .3 1 .8-.1.5-.4.9l-.8 1.1h1.1z"/></g><g><path d="M382.6 235.6v.6h-2.5v-5.3h.7v4.7h1.9zM384.2 231.5c0 .2-.2.4-.4.4s-.4-.2-.4-.4.2-.4.4-.4.4.2.4.4zm0 4.7h-.6v-3.7h.6v3.7zM386.2 236.2h-.6V233h-.5v-.5h.5v-.5c0-.7.4-1.2 1-1.2h.2v.5c-.4 0-.6.2-.6.6v.5h.6v.5h-.6v3.2zM388.6 235.5c0 .2 0 .2.3.2h.3v.5h-.6c-.4 0-.6-.2-.6-.6V233h-.5v-.5h.5v-1.2h.6v1.2h.6v.5h-.6v2.4z"/></g></g></svg>