<svg xmlns="http://www.w3.org/2000/svg" viewBox="0 0 409.1 440"><defs><style>.cls-1,.cls-10,.cls-11,.cls-12,.cls-13,.cls-14,.cls-15,.cls-16,.cls-17,.cls-18,.cls-19,.cls-2,.cls-3,.cls-4,.cls-5,.cls-6,.cls-7,.cls-8,.cls-9{fill:none;stroke-linecap:round;stroke-linejoin:round}.cls-1,.cls-10,.cls-11,.cls-12,.cls-13,.cls-14,.cls-15,.cls-16,.cls-18,.cls-19,.cls-2,.cls-3,.cls-4,.cls-5,.cls-6,.cls-7,.cls-8,.cls-9{stroke-width:.1px}.cls-1,.cls-14,.cls-16,.cls-17,.cls-18,.cls-3,.cls-4,.cls-7{stroke:#194164}.cls-1,.cls-7{stroke-dasharray:0 0 0 0 2.9 1.4 .2 1.4}.cls-2{stroke:#646464}.cls-10,.cls-11,.cls-12,.cls-13,.cls-14,.cls-18,.cls-19,.cls-3,.cls-4,.cls-5,.cls-6,.cls-8,.cls-9{stroke-dasharray:0 0 1.4 1.4}.cls-4,.cls-8{stroke-dashoffset:1px}.cls-5{stroke-dashoffset:2.5px}.cls-10,.cls-11,.cls-12,.cls-13,.cls-15,.cls-19,.cls-5,.cls-6,.cls-8,.cls-9{stroke:#969696}.cls-20,.cls-21{fill:#fff}.cls-7{stroke-dashoffset:1.9px}.cls-9{stroke-dashoffset:2.4px}.cls-10{stroke-dashoffset:2.7px}.cls-11{stroke-dashoffset:2.5px}.cls-12{stroke-dashoffset:2.6px}.cls-13,.cls-18{stroke-dashoffset:.7px}.cls-21,.cls-22{fill-rule:evenodd}.cls-14{stroke-dashoffset:.2px}.cls-17{stroke-width:.3px}.cls-19{stroke-dashoffset:1.2px}</style></defs><g id="Plan"><path class="cls-17" d="M10.6 247.5h29.8v39.6H10.6z"/><path class="cls-16" d="M9 238.6h35.2M27.2 241.5H13.3M39.9 244.6H26M311.6 269.8h-17.3M311.6 268.4h-15.8M311.6 269.8h-17.3M311.6 270.6h-18M311.6 268.4h-15.8M311.6 268.4v1.4M294.3 269.8v-16M295.8 268.4v-14.6M294.3 269.8v-16M295.8 253.8h-1.5M293.6 270.6v-16.8M295.8 268.4v-14.6M373.3 207.2h-57.6M371.8 205.8h-56.1M373.3 207.2h-57.6M315.7 205.8v1.4M374 207.9h-58.3M371.8 205.8h-56.1"/><path class="cls-21" d="M343.7 223c1.3.9 3 .9 4.3 0 1.9-1.5 2.9-3.8 2.9-6.2l-.3-9H341l-.3 9c0 2.4 1 4.7 2.9 6.2"/><path class="cls-16" d="M343.7 223c1.3.9 3 .9 4.3 0 1.9-1.5 2.9-3.8 2.9-6.2l-.3-9H341l-.3 9c0 2.4 1 4.7 2.9 6.2"/><path class="cls-21" d="M345.8 212.9c-1 0-2 .3-2.8 1.1-.7.7-1.2 1.7-1.2 2.7 0 2.1.9 4.1 2.5 5.4.9.6 2 .6 2.9 0 1.6-1.3 2.5-3.3 2.5-5.4 0-1-.4-2-1.2-2.7-.7-.7-1.7-1.1-2.8-1.1"/><path class="cls-16" d="M345.8 212.9c-1 0-2 .3-2.8 1.1-.7.7-1.2 1.7-1.2 2.7 0 2.1.9 4.1 2.5 5.4.9.6 2 .6 2.9 0 1.6-1.3 2.5-3.3 2.5-5.4 0-1-.4-2-1.2-2.7-.7-.7-1.7-1.1-2.8-1.1"/><path class="cls-21" d="M338.7 207.9v41.3h-22.5v-41.3h22.5"/><path class="cls-16" d="M316.2 207.9h22.6v41.3h-22.6zM316.2 209.8h22.5M373.3 198.6v8.6M371.8 198.6v7.2M373.3 198.6v8.6M374 198.6v9.3M371.8 198.6v7.2"/><path class="cls-21" d="M370.6 207.8v12.4c0 .1-.1.3-.2.4-.1.1-.2.2-.4.2H355.9c-.1 0-.3-.1-.4-.2-.1-.1-.2-.2-.2-.4v-12.4h15.6"/><path class="cls-16" d="M370.6 207.8v12.4c0 .1-.1.3-.2.4-.1.1-.2.2-.4.2H355.9c-.1 0-.3-.1-.4-.2-.1-.1-.2-.2-.2-.4v-12.4h15.6"/><path class="cls-21" d="M198.1 304.6h-4.3V356h4.3v-51.4"/><path class="cls-15" d="M194 308.5l3.6-3.9M194 312.8l4.3-4.3M194 316.9l4.3-4.3M194 321.2l4.3-4.3M194 325.5l4.3-4.3M194 329.6l4.3-4.3M194 333.9l4.3-4.3M194 338.2l4.3-4.3M194 342.6l4.3-4.4M194 346.6l4.3-4.3M194 351l4.3-4.4M194 355.3l4.3-4.3M197.4 356l.9-1"/><path class="cls-21" d="M198.1 304.6h-4.3V356h4.3v-51.4"/><path class="cls-15" d="M194 308.5l3.6-3.9M194 312.8l4.3-4.3M194 316.9l4.3-4.3M194 321.2l4.3-4.3M194 325.5l4.3-4.3M194 329.6l4.3-4.3M194 333.9l4.3-4.3M194 338.2l4.3-4.3M194 342.6l4.3-4.4M194 346.6l4.3-4.3M194 351l4.3-4.4M194 355.3l4.3-4.3M197.4 356l.9-1"/><path class="cls-17" d="M198.1 356v-51.4M193.8 356v-51.4M193.8 356v-51.4M198.1 356v-51.4M193.8 304.6h4.3"/><path class="cls-16" d="M198.1 380.5h-4.3M198.1 357.7h-4.3"/><path class="cls-17" d="M198.1 382.2h-4.3M198.1 356h-4.3"/><path class="cls-15" d="M171.1 357.8c0 12.4 10.2 22.7 22.7 22.7M193.8 357.7H171"/><path class="cls-16" d="M101.6 426.1h-5.8M95.8 426.1h5.8M188.1 425.4H95.8M200.4 440H95.8M95.8 431.2H193m1.9 2.3H95.8M189.7 433.5v-2.4M101.1 433.5v-2.4M169 431.1v2.4M189.7 431.1v2.4M165 431.1v2.4M169 431.1v2.4M147.4 431.1v2.4M165 431.1v2.4M143.4 431.1v2.4M147.4 431.1v2.4M125.8 431.1v2.4M143.4 431.1v2.4M121.5 431.1v2.4M125.8 431.1v2.4M101.1 431.1v2.4M121.5 431.1v2.4"/><path class="cls-22" d="M201.7 393l-1.5-5.8-4.3-5-1.9 12.4 13 2.2.7-3.4h-.7l-5.3-.4"/><path class="cls-21" d="M206.5 396.8l.5-3.4-5.3-.4-.5 2.8 5.3 1M201.2 395.8l.5-2.8-1.5-5.8-1.2 8.2 2.2.4"/><path class="cls-15" d="M199.3 394.4l2.1.5M199.5 393l2.2.4M199.8 391.8l1.6.2M200 390.3l1.2.3M200 388.9h.7M200.2 387.4h.3"/><path class="cls-21" d="M199 395.4l1.2-8.2-4.3-5-1.9 12.4 5 .8"/><path class="cls-15" d="M194.5 392.5l2.6 2.6M195 389.1l4.5 4.3M195.4 385.5l4.6 4.6"/><path class="cls-17" d="M207 393.4l-.5 3.4"/><path class="cls-15" d="M200.2 387.2l-1.2 8.2M201.7 393l-.5 2.8"/><path class="cls-17" d="M195.9 382.2l-1.9 12.4M200.2 387.2l-1.2 8.2"/><path class="cls-16" d="M195.9 382.2l-1.9 12.4"/><path class="cls-17" d="M207.7 393.4l-.7 3.4"/><path class="cls-16" d="M198.9 395.7l-5.7-.9-5.1 30.6M201.2 395.8l6.4 1.1-7.2 43.1M193 431.1l6-35.7 2.2.4-6.2 37.7M200.5 399.7l-2.2-.3M195.7 429.4l-2.4-.2M199 395.4l2.2.4M196.2 412.2l2.1.4M198.3 399.4l2.2.3M195.4 416.2l2.4.5M196.2 412.2l2.1.4M193.3 429.2l2.4.2M195.4 416.2l2.4.5"/><path class="cls-21" d="M194 394.6l-.2.3 5 .9.2-.4"/><path class="cls-15" d="M197.1 395.1l.5.5"/><path class="cls-17" d="M193.8 394.9l5 .9.2-.4M194 394.6l-.2.3"/><path class="cls-15" d="M199 395.4l2.2.4"/><path class="cls-17" d="M206.5 396.8h.5M193.8 394.9l5 .9.2-.4M194 394.6l-.2.3"/><path class="cls-22" d="M201.7 393.4l-.7 3.4h21.6v-14.6h-26.7l4.3 5 1.5 5.8 5.3.4h-5.3"/><path class="cls-21" d="M201.7 393.4l-.7 3.4h21.6v-3.4h-20.9"/><path class="cls-15" d="M201.4 395.4l1.5 1.4M203.4 393.4l3.3 3.4M207.4 393.4l3.4 3.4M211.5 393.4l3.4 3.4M215.4 393.4l3.3 3.4M219.4 393.4l3.4 3.2"/><path class="cls-21" d="M201.7 393l5.3.4h15.6v-.4h-20.9M200.2 387.2l1.5 5.8h20.9v-5.8h-22.4"/><path class="cls-15" d="M200.5 387.2v.5M201.9 387.2v5.8M203.4 387.2v5.8M204.8 387.2v5.8M206.2 387.2v5.8M207.7 387.2v5.8M208.9 387.2v5.8M210.3 387.2v5.8M211.8 387.2v5.8M213.2 387.2v5.8M214.6 387.2v5.8M216.1 387.2v5.8M217.5 387.2v5.8M219 387.2v5.8M220.4 387.2v5.8M221.8 387.2v5.8"/><path class="cls-21" d="M195.9 382.2l4.3 5h22.4v-5h-26.7"/><path class="cls-15" d="M196.2 382.2l5 5M200.2 382.2l5.1 5M204.1 382.2l5 5M208.2 382.2l5 5M212.2 382.2l5.1 5M216.1 382.2l5 5M220.2 382.2l2.6 2.4"/><path class="cls-17" d="M222.6 393.4H207M222.6 396.8H207"/><path class="cls-15" d="M222.6 387.2h-22.4M222.6 393h-20.9"/><path class="cls-17" d="M222.6 382.2h-26.7M222.6 387.2h-22.4"/><path class="cls-16" d="M222.6 396.8H207M222.6 382.2h-26.7"/><path class="cls-17" d="M207 396.8h-6M201.7 393.4l-.7 3.4M207 393.4h-5.3"/><path class="cls-16" d="M283.8 389.6v7.2h3.3v1.9h-66v-1.9h3.4v-7.2"/><path class="cls-1" d="M285.7 382.2h-63.1"/><path class="cls-16" d="M223 382.2h-.4"/><path class="cls-17" d="M283.8 396.8h3.3M224.5 396.8h-3.4"/><path class="cls-16" d="M222.6 387.2h63.1v2.4h-63.1zM281.8 389.6v-2.4M226.4 389.6v-2.4M285.7 387.2v2.4M266.7 387.2v2.4M281.8 387.2v2.4M262.6 387.2v2.4M266.7 387.2v2.4M245.6 387.2v2.4M262.6 387.2v2.4M241.5 387.2v2.4M245.6 387.2v2.4M226.4 387.2v2.4M241.5 387.2v2.4M222.6 387.2v2.4"/><path class="cls-21" d="M285.6 392.9h-1.9v-3.4h1.9"/><path class="cls-15" d="M284 389.6v3.4M285.4 389.6v3.4M285.6 392.9h-1.9v-3.4h1.9"/><path class="cls-17" d="M285.7 387.2v-5"/><path class="cls-21" d="M285.7 396.8h-1.9v-3.4h1.9"/><path class="cls-15" d="M284 393.7l1.9 1.9"/><path class="cls-17" d="M285.7 396.8h-1.9v-3.4h1.9M283.8 393.4v-3.8"/><path class="cls-21" d="M222.7 392.9h1.8v-3.4h-1.8"/><path class="cls-15" d="M223.3 389.6v3.4M224.5 389.6v3.4M222.7 392.9h1.8v-3.4h-1.8"/><path class="cls-17" d="M222.6 387.2v-5"/><path class="cls-21" d="M222.6 396.8h1.9v-3.4h-1.9"/><path class="cls-15" d="M222.8 396.6v.2M223.5 393.4l1.2 1.2"/><path class="cls-17" d="M222.6 396.8h1.9v-3.4h-1.9M224.5 393.4v-3.8"/><path class="cls-22" d="M171.4 71.4V56.7h51.2v14.7h-51.2"/><path class="cls-21" d="M171.4 56.7v3.4h51.2v-3.4h-51.2"/><path class="cls-15" d="M171.7 57l3.1 3.1M175.3 56.7l3.3 3.4M179.4 56.7l3.3 3.4M183.4 56.7l3.4 3.4M187.5 56.7l3.4 3.4M191.4 56.7l3.3 3.4M195.4 56.7l3.4 3.4M199.5 56.7l3.4 3.4M203.4 56.7l3.3 3.4M207.4 56.7l3.4 3.4M211.5 56.7l3.4 3.4M215.4 56.7l3.3 3.4M219.4 56.7l3.4 3.1"/><path class="cls-21" d="M171.4 60.1v.7h51.2v-.7h-51.2"/><path class="cls-21" d="M171.4 60.8v5.5h51.2v-5.5h-51.2"/><path class="cls-15" d="M221.8 66.3v-5.5M220.4 66.3v-5.5M219 66.3v-5.5M217.5 66.3v-5.5M216.1 66.3v-5.5M214.6 66.3v-5.5M213.2 66.3v-5.5M211.8 66.3v-5.5M210.3 66.3v-5.5M208.9 66.3v-5.5M207.7 66.3v-5.5M206.2 66.3v-5.5M204.8 66.3v-5.5M203.4 66.3v-5.5M201.9 66.3v-5.5M200.5 66.3v-5.5M199 66.3v-5.5M197.6 66.3v-5.5M196.2 66.3v-5.5M194.7 66.3v-5.5M193.5 66.3v-5.5M192.1 66.3v-5.5M190.6 66.3v-5.5M189.2 66.3v-5.5M187.8 66.3v-5.5M186.3 66.3v-5.5M184.9 66.3v-5.5M183.4 66.3v-5.5M182 66.3v-5.5M180.6 66.3v-5.5M179.1 66.3v-5.5M177.9 66.3v-5.5M176.5 66.3v-5.5M175 66.3v-5.5M173.6 66.3v-5.5M172.2 66.3v-5.5"/><path class="cls-21" d="M171.4 66.3v5.1h51.2v-5.1h-51.2"/><path class="cls-15" d="M171.7 69l2.4 2.4M172.9 66.3l5 5.1M177 66.3l5 5.1M181 66.3l5.1 5.1M184.9 66.3l5 5.1M189 66.3l5 5.1M193 66.3l5.1 5.1M197.1 66.3l5.1 5.1M201 66.3l5 5.1M205 66.3l5.1 5.1M209.1 66.3l5.1 5.1M213 66.3l5 5.1M217 66.3l5.1 5.1M221.1 66.3l1.7 1.7"/><path class="cls-17" d="M171.4 60.1h51.2M171.4 56.7h51.2"/><path class="cls-15" d="M171.4 66.3h51.2M171.4 60.8h51.2"/><path class="cls-17" d="M171.4 71.4h51.2M171.4 66.3h51.2"/><path class="cls-16" d="M171.4 56.7h51.2M171.4 71.4h51.2"/><path class="cls-22" d="M95.8 71.4V56.7h34.8v14.7H95.8"/><path class="cls-21" d="M95.8 56.7v3.4h34.8v-3.4H95.8"/><path class="cls-15" d="M96.1 57.4l2.4 2.7M99.2 56.7l3.4 3.4M103.3 56.7l3.3 3.4M107.1 56.7l3.4 3.4M111.2 56.7l3.4 3.4M115.3 56.7l3.3 3.4M119.4 56.7l3.3 3.4M123.2 56.7l3.4 3.4M127.3 56.7l3.3 3.4"/><path class="cls-21" d="M95.8 60.1v.7h34.8v-.7H95.8"/><path class="cls-21" d="M95.8 60.8v5.5h34.8v-5.5H95.8"/><path class="cls-15" d="M129.7 66.3v-5.5M128.2 66.3v-5.5M126.8 66.3v-5.5M125.4 66.3v-5.5M123.9 66.3v-5.5M122.5 66.3v-5.5M121 66.3v-5.5M119.6 66.3v-5.5M118.4 66.3v-5.5M117 66.3v-5.5M115.5 66.3v-5.5M114.1 66.3v-5.5M112.6 66.3v-5.5M111.2 66.3v-5.5M109.8 66.3v-5.5M108.3 66.3v-5.5M106.9 66.3v-5.5M105.4 66.3v-5.5M104 66.3v-5.5M102.8 66.3v-5.5M101.4 66.3v-5.5M99.9 66.3v-5.5M98.5 66.3v-5.5M97 66.3v-5.5"/><path class="cls-21" d="M95.8 66.3v5.1h34.8v-5.1H95.8"/><path class="cls-15" d="M96.1 69.4l1.7 2M96.8 66.3l5 5.1M100.9 66.3l5 5.1M104.7 66.3l5.1 5.1M108.8 66.3l5 5.1M112.9 66.3l5 5.1M116.7 66.3l5.1 5.1M120.8 66.3l5 5.1M124.9 66.3l5 5.1M129 66.3l1.9 1.9"/><path class="cls-17" d="M95.8 60.1h34.8M95.8 56.7h34.8"/><path class="cls-15" d="M95.8 66.3h34.8M95.8 60.8h34.8"/><path class="cls-17" d="M95.8 71.4h34.8M95.8 66.3h34.8"/><path class="cls-16" d="M95.8 56.7h34.8M95.8 71.4h34.8M132.3 64.2v-7.5H129v-1.9h43.9v1.9h-3.4v7.5"/><path class="cls-1" d="M130.6 71.4h40.8"/><path class="cls-16" d="M171 71.4h.4"/><path class="cls-17" d="M132.3 56.7H129M169.5 56.7h3.4"/><path class="cls-16" d="M130.6 64.2h40.8v2.2h-40.8zM134.2 64.2v2.1M167.6 64.2v2.1M130.6 66.3v-2.1M148.9 66.3v-2.1M134.2 66.3v-2.1M153 66.3v-2.1M148.9 66.3v-2.1M167.6 66.3v-2.1M153 66.3v-2.1M171.4 66.3v-2.1"/><path class="cls-21" d="M130.5 60.7h1.9v3.4h-1.9"/><path class="cls-15" d="M131.1 64.2v-3.4M130.5 60.7h1.9v3.4h-1.9"/><path class="cls-17" d="M130.6 66.3v5.1"/><path class="cls-21" d="M130.6 56.7h1.7v3.4h-1.7"/><path class="cls-15" d="M131.4 56.7l1.2 1.2"/><path class="cls-17" d="M130.6 56.7h1.7v3.4h-1.7M132.3 60.1v4.1"/><path class="cls-21" d="M171.3 60.7h-1.8v3.4h1.8"/><path class="cls-15" d="M170.7 64.2v-3.4M171.3 60.7h-1.8v3.4h1.8"/><path class="cls-17" d="M171.4 66.3v5.1"/><path class="cls-21" d="M171.4 56.7h-1.9v3.4h1.9"/><path class="cls-15" d="M169.8 58.9l.9 1.2M171.4 56.7l.3.3"/><path class="cls-17" d="M171.4 56.7h-1.9v3.4h1.9M169.5 60.1v4.1"/><path class="cls-1" d="M222.6 71.4h63.1"/><path class="cls-16" d="M285.2 71.4h.5M222.6 64.2h63.1v2.2h-63.1zM226.4 64.2v2.1M281.8 64.2v2.1M222.6 66.3v-2.1M241.5 66.3v-2.1M226.4 66.3v-2.1M245.6 66.3v-2.1M241.5 66.3v-2.1M262.6 66.3v-2.1M245.6 66.3v-2.1M266.7 66.3v-2.1M262.6 66.3v-2.1M281.8 66.3v-2.1M266.7 66.3v-2.1M285.7 66.3v-2.1"/><path class="cls-17" d="M222.6 66.3v5.1"/><path class="cls-16" d="M287.1 56.7v-1.9"/><path class="cls-7" d="M287.1 54.8h-66"/><path class="cls-16" d="M221.1 54.8v1"/><path class="cls-21" d="M222.7 60.7h1.8v3.4h-1.8"/><path class="cls-15" d="M224.5 64.2v-3.4M223.3 64.2v-3.4M222.7 60.7h1.8v3.4h-1.8"/><path class="cls-21" d="M222.6 56.7h1.9v3.4h-1.9"/><path class="cls-15" d="M222.8 59.8v.3M223.5 56.7l1.2 1.2"/><path class="cls-17" d="M222.6 56.7h1.9v3.4h-1.9M224.5 60.1v4.1"/><path class="cls-21" d="M285.6 60.7h-1.9v3.4h1.9"/><path class="cls-15" d="M285.4 64.2v-3.4M284 64.2v-3.4M285.6 60.7h-1.9v3.4h1.9"/><path class="cls-17" d="M285.7 66.3v5.1"/><path class="cls-21" d="M285.7 56.7h-1.9v3.4h1.9"/><path class="cls-15" d="M284 57l1.9 1.9"/><path class="cls-17" d="M285.7 56.7h-1.9v3.4h1.9M283.8 60.1v4.1"/><path class="cls-21" d="M408.8 66.3l-7.2 5.1v310.8l7.2 5V66.3"/><path class="cls-15" d="M409 69.7l-2.1-1.9M409 73.8l-4.5-4.4M409 77.8l-6.9-6.7M409 81.7l-7.2-7.2M409 85.8l-7.2-7.2M409 89.8l-7.2-7.2M409 93.9l-7.2-7.2M409 97.8l-7.2-7.2M409 101.8l-7.2-7.2M409 105.9l-7.2-7.2M409 109.8l-7.2-7.2M409 113.8l-7.2-7.2M409 117.9l-7.2-7.2M409 122l-7.2-7.2M409 125.8l-7.2-7.2M409 129.9l-7.2-7.2M409 134l-7.2-7.2M409 137.8l-7.2-7.2M409 141.9l-7.2-7.2M409 146l-7.2-7.2M409 149.8l-7.2-7.2M409 153.9l-7.2-7.2M409 158l-7.2-7.2M409 162.1l-7.2-7.2M409 165.9l-7.2-7.2M409 170l-7.2-7.2M409 174.1l-7.2-7.2M409 177.9l-7.2-7.2M409 182l-7.2-7.2M409 186.1l-7.2-7.2M409 189.9l-7.2-7.2M409 194l-7.2-7.2M409 198.1l-7.2-7.2M409 202.2l-7.2-7.2M409 206l-7.2-7.2M409 210.1l-7.2-7.2M409 214.2l-7.2-7.2M409 218l-7.2-7.2M409 222.1l-7.2-7.2M409 226.2l-7.2-7.2M409 230.2l-7.2-7.2M409 234.1l-7.2-7.2M409 238.2l-7.2-7.2M409 242.2l-7.2-7.2M409 246.1l-7.2-7.2M409 250.2l-7.2-7.2M409 254.2l-7.2-7.2M409 258.1l-7.2-7.2M409 262.2l-7.2-7.2M409 266.2l-7.2-7.2M409 270.3l-7.2-7.2M409 274.2l-7.2-7.2M409 278.2l-7.2-7.2M409 282.3l-7.2-7.2M409 286.2l-7.2-7.2M409 290.2l-7.2-7.2M409 294.3l-7.2-7.2M409 298.2l-7.2-7.2M409 302.2l-7.2-7.2M409 306.3l-7.2-7.2M409 310.4l-7.2-7.2M409 314.2l-7.2-7.2M409 318.3l-7.2-7.2M409 322.4l-7.2-7.2M409 326.2l-7.2-7.2M409 330.3l-7.2-7.2M409 334.4l-7.2-7.2M409 338.5l-7.2-7.2M409 342.3l-7.2-7.2M409 346.4l-7.2-7.2M409 350.5l-7.2-7.2M409 354.3l-7.2-7.2M409 358.4l-7.2-7.2M409 362.5l-7.2-7.2M409 366.3l-7.2-7.2M409 370.4l-7.2-7.2M409 374.5l-7.2-7.2M409 378.6l-7.2-7.2M409 382.4l-7.2-7.2M409 386.5l-7.2-7.2M408.1 386.7l.9-.9M405.7 385l3.3-3.3M403.3 383.4l5.7-5.6M401.8 381l7.2-7.2M401.8 376.9l7.2-7.2M401.8 373l7.2-7.2M401.8 369l7.2-7.2M401.8 364.9l7.2-7.2M401.8 360.8l7.2-7.2M401.8 357l7.2-7.2M401.8 352.9l7.2-7.2M401.8 348.8l7.2-7.2M401.8 345l7.2-7.2M401.8 340.9l7.2-7.2M401.8 336.8l7.2-7.2M401.8 333l7.2-7.2M401.8 328.9l7.2-7.2M401.8 324.8l7.2-7.2M401.8 320.7l7.2-7.2M401.8 316.9l7.2-7.2M401.8 312.8l7.2-7.2M401.8 308.7l7.2-7.2M401.8 304.9l7.2-7.2M401.8 300.8l7.2-7.2M401.8 296.7l7.2-7.2M401.8 292.9l7.2-7.2M401.8 288.8l7.2-7.2M401.8 284.7l7.2-7.2M401.8 280.6l7.2-7.2M401.8 276.8l7.2-7.2M401.8 272.7l7.2-7.2M401.8 268.6l7.2-7.2M401.8 264.8l7.2-7.2M401.8 260.7l7.2-7.2M401.8 256.6l7.2-7.2M401.8 252.6l7.2-7.2M401.8 248.7l7.2-7.2M401.8 244.6l7.2-7.2M401.8 240.6l7.2-7.2M401.8 236.7l7.2-7.2M401.8 232.6l7.2-7.2M401.8 228.6l7.2-7.2M401.8 224.7l7.2-7.2M401.8 220.6l7.2-7.2M401.8 216.6l7.2-7.2M401.8 212.5l7.2-7.2M401.8 208.6l7.2-7.2M401.8 204.6l7.2-7.2M401.8 200.5l7.2-7.2M401.8 196.6l7.2-7.2M401.8 192.6l7.2-7.2M401.8 188.5l7.2-7.2M401.8 184.6l7.2-7.2M401.8 180.6l7.2-7.2M401.8 176.5l7.2-7.2M401.8 172.4l7.2-7.2M401.8 168.6l7.2-7.2M401.8 164.5l7.2-7.2M401.8 160.4l7.2-7.2M401.8 156.6l7.2-7.2M401.8 152.5l7.2-7.2M401.8 148.4l7.2-7.2M401.8 144.3l7.2-7.2M401.8 140.5l7.2-7.2M401.8 136.4l7.2-7.2M401.8 132.3l7.2-7.2M401.8 128.5l7.2-7.2M401.8 124.4l7.2-7.2M401.8 120.3l7.2-7.2M401.8 116.5l7.2-7.2M401.8 112.4l7.2-7.2M401.8 108.3l7.2-7.2M401.8 104.2L409 97M401.8 100.4l7.2-7.2M401.8 96.3l7.2-7.2M401.8 92.2L409 85M401.8 88.4l7.2-7.2M401.8 84.3l7.2-7.2M401.8 80.2L409 73M401.8 76.4l7.2-7.2M401.8 72.3l2.9-3.1"/><path class="cls-21" d="M408.8 66.3l-7.2 5.1v310.8l7.2 5V66.3"/><path class="cls-15" d="M409 69.7l-2.1-1.9M409 73.8l-4.5-4.4M409 77.8l-6.9-6.7M409 81.7l-7.2-7.2M409 85.8l-7.2-7.2M409 89.8l-7.2-7.2M409 93.9l-7.2-7.2M409 97.8l-7.2-7.2M409 101.8l-7.2-7.2M409 105.9l-7.2-7.2M409 109.8l-7.2-7.2M409 113.8l-7.2-7.2M409 117.9l-7.2-7.2M409 122l-7.2-7.2M409 125.8l-7.2-7.2M409 129.9l-7.2-7.2M409 134l-7.2-7.2M409 137.8l-7.2-7.2M409 141.9l-7.2-7.2M409 146l-7.2-7.2M409 149.8l-7.2-7.2M409 153.9l-7.2-7.2M409 158l-7.2-7.2M409 162.1l-7.2-7.2M409 165.9l-7.2-7.2M409 170l-7.2-7.2M409 174.1l-7.2-7.2M409 177.9l-7.2-7.2M409 182l-7.2-7.2M409 186.1l-7.2-7.2M409 189.9l-7.2-7.2M409 194l-7.2-7.2M409 198.1l-7.2-7.2M409 202.2l-7.2-7.2M409 206l-7.2-7.2M409 210.1l-7.2-7.2M409 214.2l-7.2-7.2M409 218l-7.2-7.2M409 222.1l-7.2-7.2M409 226.2l-7.2-7.2M409 230.2l-7.2-7.2M409 234.1l-7.2-7.2M409 238.2l-7.2-7.2M409 242.2l-7.2-7.2M409 246.1l-7.2-7.2M409 250.2l-7.2-7.2M409 254.2l-7.2-7.2M409 258.1l-7.2-7.2M409 262.2l-7.2-7.2M409 266.2l-7.2-7.2M409 270.3l-7.2-7.2M409 274.2l-7.2-7.2M409 278.2l-7.2-7.2M409 282.3l-7.2-7.2M409 286.2l-7.2-7.2M409 290.2l-7.2-7.2M409 294.3l-7.2-7.2M409 298.2l-7.2-7.2M409 302.2l-7.2-7.2M409 306.3l-7.2-7.2M409 310.4l-7.2-7.2M409 314.2l-7.2-7.2M409 318.3l-7.2-7.2M409 322.4l-7.2-7.2M409 326.2l-7.2-7.2M409 330.3l-7.2-7.2M409 334.4l-7.2-7.2M409 338.5l-7.2-7.2M409 342.3l-7.2-7.2M409 346.4l-7.2-7.2M409 350.5l-7.2-7.2M409 354.3l-7.2-7.2M409 358.4l-7.2-7.2M409 362.5l-7.2-7.2M409 366.3l-7.2-7.2M409 370.4l-7.2-7.2M409 374.5l-7.2-7.2M409 378.6l-7.2-7.2M409 382.4l-7.2-7.2M409 386.5l-7.2-7.2M408.1 386.7l.9-.9M405.7 385l3.3-3.3M403.3 383.4l5.7-5.6M401.8 381l7.2-7.2M401.8 376.9l7.2-7.2M401.8 373l7.2-7.2M401.8 369l7.2-7.2M401.8 364.9l7.2-7.2M401.8 360.8l7.2-7.2M401.8 357l7.2-7.2M401.8 352.9l7.2-7.2M401.8 348.8l7.2-7.2M401.8 345l7.2-7.2M401.8 340.9l7.2-7.2M401.8 336.8l7.2-7.2M401.8 333l7.2-7.2M401.8 328.9l7.2-7.2M401.8 324.8l7.2-7.2M401.8 320.7l7.2-7.2M401.8 316.9l7.2-7.2M401.8 312.8l7.2-7.2M401.8 308.7l7.2-7.2M401.8 304.9l7.2-7.2M401.8 300.8l7.2-7.2M401.8 296.7l7.2-7.2M401.8 292.9l7.2-7.2M401.8 288.8l7.2-7.2M401.8 284.7l7.2-7.2M401.8 280.6l7.2-7.2M401.8 276.8l7.2-7.2M401.8 272.7l7.2-7.2M401.8 268.6l7.2-7.2M401.8 264.8l7.2-7.2M401.8 260.7l7.2-7.2M401.8 256.6l7.2-7.2M401.8 252.6l7.2-7.2M401.8 248.7l7.2-7.2M401.8 244.6l7.2-7.2M401.8 240.6l7.2-7.2M401.8 236.7l7.2-7.2M401.8 232.6l7.2-7.2M401.8 228.6l7.2-7.2M401.8 224.7l7.2-7.2M401.8 220.6l7.2-7.2M401.8 216.6l7.2-7.2M401.8 212.5l7.2-7.2M401.8 208.6l7.2-7.2M401.8 204.6l7.2-7.2M401.8 200.5l7.2-7.2M401.8 196.6l7.2-7.2M401.8 192.6l7.2-7.2M401.8 188.5l7.2-7.2M401.8 184.6l7.2-7.2M401.8 180.6l7.2-7.2M401.8 176.5l7.2-7.2M401.8 172.4l7.2-7.2M401.8 168.6l7.2-7.2M401.8 164.5l7.2-7.2M401.8 160.4l7.2-7.2M401.8 156.6l7.2-7.2M401.8 152.5l7.2-7.2M401.8 148.4l7.2-7.2M401.8 144.3l7.2-7.2M401.8 140.5l7.2-7.2M401.8 136.4l7.2-7.2M401.8 132.3l7.2-7.2M401.8 128.5l7.2-7.2M401.8 124.4l7.2-7.2M401.8 120.3l7.2-7.2M401.8 116.5l7.2-7.2M401.8 112.4l7.2-7.2M401.8 108.3l7.2-7.2M401.8 104.2L409 97M401.8 100.4l7.2-7.2M401.8 96.3l7.2-7.2M401.8 92.2L409 85M401.8 88.4l7.2-7.2M401.8 84.3l7.2-7.2M401.8 80.2L409 73M401.8 76.4l7.2-7.2M401.8 72.3l2.9-3.1"/><path class="cls-17" d="M408.8 382.2V71.4M401.6 382.2V71.4M401.6 382.2V71.4M408.8 382.2V71.4M408.8 387.2v-5M408.8 71.4v-5.1"/><path class="cls-21" d="M58.9 297.4v7.2h139.2l-7.2-7.2h-132"/><path class="cls-15" d="M194.7 304.6l-7.2-7.2M190.9 304.6l-7.2-7.2M186.8 304.6l-7.2-7.2M182.7 304.6l-7.2-7.2M178.9 304.6l-7.2-7.2M174.8 304.6l-7.2-7.2M170.7 304.6l-7.2-7.2M166.6 304.6l-7.2-7.2M162.8 304.6l-7.2-7.2M158.7 304.6l-7.2-7.2M154.6 304.6l-7.2-7.2M150.8 304.6l-7.2-7.2M146.7 304.6l-7.2-7.2M142.6 304.6l-7.2-7.2M138.6 304.6l-7.2-7.2M134.7 304.6l-7.2-7.2M130.6 304.6l-7.2-7.2M126.6 304.6l-7.2-7.2M122.7 304.6l-7.2-7.2M118.6 304.6l-7.2-7.2M114.6 304.6l-7.2-7.2M110.7 304.6l-7.2-7.2M106.6 304.6l-7.2-7.2M102.6 304.6l-7.2-7.2M98.5 304.6l-7.2-7.2M94.6 304.6l-7.2-7.2M90.6 304.6l-7.2-7.2M86.5 304.6l-7.2-7.2M82.6 304.6l-7.2-7.2M78.6 304.6l-7.2-7.2M74.5 304.6l-7.2-7.2M70.6 304.6l-7.2-7.2M66.6 304.6l-7.2-7.2M62.5 304.6l-3.4-3.6M197.4 304.6l.4-.4M193.5 304.6l2.4-2.4M189.4 304.6l4.4-4.3M185.4 304.6l6.4-6.4M181.3 304.6l7.2-7.2M177.4 304.6l7.2-7.2M173.4 304.6l7.2-7.2M169.3 304.6l7.2-7.2M165.4 304.6l7.2-7.2M161.4 304.6l7.2-7.2M157.3 304.6l7.2-7.2M153.4 304.6l7.2-7.2M149.4 304.6l7.2-7.2M145.3 304.6l7.2-7.2M141.2 304.6l7.2-7.2M137.4 304.6l7.2-7.2M133.3 304.6l7.2-7.2M129.2 304.6l7.2-7.2M125.4 304.6l7.2-7.2M121.3 304.6l7.2-7.2M117.2 304.6l7.2-7.2M113.1 304.6l7.2-7.2M109.3 304.6l7.2-7.2M105.2 304.6l7.2-7.2M101.1 304.6l7.2-7.2M97.3 304.6l7.2-7.2M93.2 304.6l7.2-7.2M89.1 304.6l7.2-7.2M85.3 304.6l7.2-7.2M81.2 304.6l7.2-7.2M77.1 304.6l7.2-7.2M73 304.6l7.2-7.2M69.2 304.6l7.2-7.2M65.1 304.6l7.2-7.2M61 304.6l7.2-7.2M59.1 302.7l5.3-5.3M59.1 298.6l1.2-1.2"/><path class="cls-21" d="M58.9 297.4v7.2h139.2l-7.2-7.2h-132"/><path class="cls-15" d="M194.7 304.6l-7.2-7.2M190.9 304.6l-7.2-7.2M186.8 304.6l-7.2-7.2M182.7 304.6l-7.2-7.2M178.9 304.6l-7.2-7.2M174.8 304.6l-7.2-7.2M170.7 304.6l-7.2-7.2M166.6 304.6l-7.2-7.2M162.8 304.6l-7.2-7.2M158.7 304.6l-7.2-7.2M154.6 304.6l-7.2-7.2M150.8 304.6l-7.2-7.2M146.7 304.6l-7.2-7.2M142.6 304.6l-7.2-7.2M138.6 304.6l-7.2-7.2M134.7 304.6l-7.2-7.2M130.6 304.6l-7.2-7.2M126.6 304.6l-7.2-7.2M122.7 304.6l-7.2-7.2M118.6 304.6l-7.2-7.2M114.6 304.6l-7.2-7.2M110.7 304.6l-7.2-7.2M106.6 304.6l-7.2-7.2M102.6 304.6l-7.2-7.2M98.5 304.6l-7.2-7.2M94.6 304.6l-7.2-7.2M90.6 304.6l-7.2-7.2M86.5 304.6l-7.2-7.2M82.6 304.6l-7.2-7.2M78.6 304.6l-7.2-7.2M74.5 304.6l-7.2-7.2M70.6 304.6l-7.2-7.2M66.6 304.6l-7.2-7.2M62.5 304.6l-3.4-3.6M197.4 304.6l.4-.4M193.5 304.6l2.4-2.4M189.4 304.6l4.4-4.3M185.4 304.6l6.4-6.4M181.3 304.6l7.2-7.2M177.4 304.6l7.2-7.2M173.4 304.6l7.2-7.2M169.3 304.6l7.2-7.2M165.4 304.6l7.2-7.2M161.4 304.6l7.2-7.2M157.3 304.6l7.2-7.2M153.4 304.6l7.2-7.2M149.4 304.6l7.2-7.2M145.3 304.6l7.2-7.2M141.2 304.6l7.2-7.2M137.4 304.6l7.2-7.2M133.3 304.6l7.2-7.2M129.2 304.6l7.2-7.2M125.4 304.6l7.2-7.2M121.3 304.6l7.2-7.2M117.2 304.6l7.2-7.2M113.1 304.6l7.2-7.2M109.3 304.6l7.2-7.2M105.2 304.6l7.2-7.2M101.1 304.6l7.2-7.2M97.3 304.6l7.2-7.2M93.2 304.6l7.2-7.2M89.1 304.6l7.2-7.2M85.3 304.6l7.2-7.2M81.2 304.6l7.2-7.2M77.1 304.6l7.2-7.2M73 304.6l7.2-7.2M69.2 304.6l7.2-7.2M65.1 304.6l7.2-7.2M61 304.6l7.2-7.2M59.1 302.7l5.3-5.3M59.1 298.6l1.2-1.2"/><path class="cls-17" d="M190.9 297.4h-132M95.8 304.6H58.9M193.8 304.6h-91M95.8 304.6H58.9M190.9 297.4h-132M193.8 304.6h-91M198.1 304.6h-4.3"/><path class="cls-21" d="M53.1 294.8l5.8 9.8v-74.8l-5.8 10.3v54.7"/><path class="cls-15" d="M59.1 232.9l-1.2-1M59.1 237l-2.6-2.7M59.1 241l-4.1-4M59.1 245.1l-5.5-5.5M59.1 249l-5.7-5.8M59.1 253l-5.7-5.7M59.1 257.1l-5.7-5.7M59.1 261l-5.7-5.8M59.1 265l-5.7-5.7M59.1 269.1l-5.7-5.7M59.1 273l-5.7-5.8M59.1 277l-5.7-5.7M59.1 281.1l-5.7-5.7M59.1 285.2l-5.7-5.8M59.1 289l-5.7-5.7M59.1 293.1l-5.7-5.7M59.1 297.2l-5.7-5.8M59.1 301l-5-4.8M58.4 303.4l.7-.7M56.7 301l2.4-2.4M55.3 298.4l3.8-3.6M53.8 295.8l5.3-5.1M53.4 292.4l5.7-5.8M53.4 288.6l5.7-5.8M53.4 284.5l5.7-5.8M53.4 280.4l5.7-5.8M53.4 276.6l5.7-5.8M53.4 272.5l5.7-5.8M53.4 268.4l5.7-5.8M53.4 264.3l5.7-5.7M53.4 260.5l5.7-5.8M53.4 256.4l5.7-5.8M53.4 252.3l5.7-5.7M53.4 248.5l5.7-5.8M53.4 244.4l5.7-5.8M53.4 240.3l5.7-5.7M57.9 231.7l1.2-1.2"/><path class="cls-21" d="M53.1 294.8l5.8 9.8v-74.8l-5.8 10.3v54.7"/><path class="cls-15" d="M59.1 232.9l-1.2-1M59.1 237l-2.6-2.7M59.1 241l-4.1-4M59.1 245.1l-5.5-5.5M59.1 249l-5.7-5.8M59.1 253l-5.7-5.7M59.1 257.1l-5.7-5.7M59.1 261l-5.7-5.8M59.1 265l-5.7-5.7M59.1 269.1l-5.7-5.7M59.1 273l-5.7-5.8M59.1 277l-5.7-5.7M59.1 281.1l-5.7-5.7M59.1 285.2l-5.7-5.8M59.1 289l-5.7-5.7M59.1 293.1l-5.7-5.7M59.1 297.2l-5.7-5.8M59.1 301l-5-4.8M58.4 303.4l.7-.7M56.7 301l2.4-2.4M55.3 298.4l3.8-3.6M53.8 295.8l5.3-5.1M53.4 292.4l5.7-5.8M53.4 288.6l5.7-5.8M53.4 284.5l5.7-5.8M53.4 280.4l5.7-5.8M53.4 276.6l5.7-5.8M53.4 272.5l5.7-5.8M53.4 268.4l5.7-5.8M53.4 264.3l5.7-5.7M53.4 260.5l5.7-5.8M53.4 256.4l5.7-5.8M53.4 252.3l5.7-5.7M53.4 248.5l5.7-5.8M53.4 244.4l5.7-5.8M53.4 240.3l5.7-5.7M57.9 231.7l1.2-1.2"/><path class="cls-17" d="M53.1 240.1v54.7M58.9 229.8v67.6M58.9 229.8v67.6M53.1 240.1v54.7"/><path class="cls-21" d="M102.8 304.6h-7v126.5h7V304.6"/><path class="cls-15" d="M103 304.9l-.4-.3M103 309l-4.5-4.4M103 313l-6.9-6.9M103 316.9l-6.9-7M103 321l-6.9-7M103 325l-6.9-6.9M103 329.1l-6.9-6.9M103 333l-6.9-7M103 337l-6.9-6.9M103 341.1l-6.9-6.9M103 345l-6.9-7M103 349l-6.9-6.9M103 353.1l-6.9-6.9M103 357l-6.9-7M103 361l-6.9-6.9M103 365.1l-6.9-6.9M103 369.2l-6.9-7M103 373l-6.9-6.9M103 377.1l-6.9-6.9M103 381.2l-6.9-7M103 385l-6.9-6.9M103 389.1l-6.9-6.9M103 393.2l-6.9-7M103 397.3l-6.9-7M103 401.1l-6.9-6.9M103 405.2l-6.9-7M103 409.3l-6.9-7M103 413.1l-6.9-6.9M103 417.2l-6.9-7M103 421.3l-6.9-7M103 425.1l-6.9-6.9M103 429.2l-6.9-7M100.9 431.1l-4.8-4.8M96.8 431.1l-.7-.7M99 431.1l4-3.8M96.1 430.2l6.9-7M96.1 426.1l6.9-7M96.1 422.2l6.9-6.9M96.1 418.2l6.9-7M96.1 414.1l6.9-7M96.1 410l6.9-7M96.1 406.2l6.9-7M96.1 402.1l6.9-7M96.1 398l6.9-7M96.1 394.2l6.9-7M96.1 390.1l6.9-7M96.1 386l6.9-7M96.1 382.2l6.9-7M96.1 378.1l6.9-7M96.1 374l6.9-7M96.1 369.9l6.9-6.9M96.1 366.1l6.9-7M96.1 362l6.9-7M96.1 357.9l6.9-6.9M96.1 354.1l6.9-7M96.1 350l6.9-7M96.1 345.9l6.9-6.9M96.1 342.1l6.9-7M96.1 338l6.9-7M96.1 333.9l6.9-6.9M96.1 329.8l6.9-6.9M96.1 326l6.9-7M96.1 321.9l6.9-6.9M96.1 317.8l6.9-6.9M96.1 314l6.9-7M96.1 309.9l5-5.3M96.1 305.8l1.2-1.2"/><path class="cls-21" d="M102.8 304.6h-7v126.5h7V304.6"/><path class="cls-15" d="M103 304.9l-.4-.3M103 309l-4.5-4.4M103 313l-6.9-6.9M103 316.9l-6.9-7M103 321l-6.9-7M103 325l-6.9-6.9M103 329.1l-6.9-6.9M103 333l-6.9-7M103 337l-6.9-6.9M103 341.1l-6.9-6.9M103 345l-6.9-7M103 349l-6.9-6.9M103 353.1l-6.9-6.9M103 357l-6.9-7M103 361l-6.9-6.9M103 365.1l-6.9-6.9M103 369.2l-6.9-7M103 373l-6.9-6.9M103 377.1l-6.9-6.9M103 381.2l-6.9-7M103 385l-6.9-6.9M103 389.1l-6.9-6.9M103 393.2l-6.9-7M103 397.3l-6.9-7M103 401.1l-6.9-6.9M103 405.2l-6.9-7M103 409.3l-6.9-7M103 413.1l-6.9-6.9M103 417.2l-6.9-7M103 421.3l-6.9-7M103 425.1l-6.9-6.9M103 429.2l-6.9-7M100.9 431.1l-4.8-4.8M96.8 431.1l-.7-.7M99 431.1l4-3.8M96.1 430.2l6.9-7M96.1 426.1l6.9-7M96.1 422.2l6.9-6.9M96.1 418.2l6.9-7M96.1 414.1l6.9-7M96.1 410l6.9-7M96.1 406.2l6.9-7M96.1 402.1l6.9-7M96.1 398l6.9-7M96.1 394.2l6.9-7M96.1 390.1l6.9-7M96.1 386l6.9-7M96.1 382.2l6.9-7M96.1 378.1l6.9-7M96.1 374l6.9-7M96.1 369.9l6.9-6.9M96.1 366.1l6.9-7M96.1 362l6.9-7M96.1 357.9l6.9-6.9M96.1 354.1l6.9-7M96.1 350l6.9-7M96.1 345.9l6.9-6.9M96.1 342.1l6.9-7M96.1 338l6.9-7M96.1 333.9l6.9-6.9M96.1 329.8l6.9-6.9M96.1 326l6.9-7M96.1 321.9l6.9-6.9M96.1 317.8l6.9-6.9M96.1 314l6.9-7M96.1 309.9l5-5.3M96.1 305.8l1.2-1.2"/><path class="cls-17" d="M102.8 431.1V304.6M95.8 431.1V304.6M95.8 431.1V304.6M102.8 431.1V304.6M102.8 431.1h-7"/><path class="cls-16" d="M190.9 258.3h-34.1M190.9 250.6h-34.1M190.9 243h-34.1M190.9 235.3h-34.1M58.9 235.3h33.8M58.9 243h33.8M58.9 250.6h33.8M58.9 258.3h33.8M132.6 297.4l7.9-35.2M92.7 230h64.1v33.6H92.7zM75.9 235.3l-3.8 3.8h7.7l-3.9-3.8zM151.8 263.6v33.8M144.1 263.6v33.8M136.4 263.6v33.8M128.7 263.6v33.8M121 263.6v33.8M113.4 263.6v33.8M105.7 263.6v33.8M98 263.6v33.8"/><path class="cls-16" d="M94.2 231.4h61.4v30.7H94.2zM98 280.6l3.8 3.9v-7.7l-3.8 3.8zM136.4 280.6l3.8 3.9v-7.7l-3.8 3.8zM173.8 258.3l3.9-3.8H170l3.8 3.8z"/><path class="cls-17" d="M198.1 71.4h-4.3M198.1 71.4"/><path class="cls-21" d="M198.1 193h-4.3V97.5h4.3V193"/><path class="cls-15" d="M194 100.2l2.6-2.7M194 104.5l4.3-4.3M194 108.8l4.3-4.3M194 112.9l4.3-4.3M194 117.2l4.3-4.3M194 121.5l4.3-4.3M194 125.6l4.3-4.3M194 129.9l4.3-4.3M194 134.2l4.3-4.3M194 138.6l4.3-4.4M194 142.6l4.3-4.3M194 147l4.3-4.4M194 151.3l4.3-4.3M194 155.4l4.3-4.4M194 159.7l4.3-4.3M194 164l4.3-4.3M194 168.3l4.3-4.3M194 172.4l4.3-4.3M194 176.7l4.3-4.3M194 181l4.3-4.3M194 185.1l4.3-4.3M194 189.4l4.3-4.3M194.5 193l3.8-3.6"/><path class="cls-21" d="M193.8 193h4.3V97.5h-4.3V193"/><path class="cls-15" d="M194 100.2l2.6-2.7M194 104.5l4.3-4.3M194 108.8l4.3-4.3M194 112.9l4.3-4.3M194 117.2l4.3-4.3M194 121.5l4.3-4.3M194 125.6l4.3-4.3M194 129.9l4.3-4.3M194 134.2l4.3-4.3M194 138.6l4.3-4.4M194 142.6l4.3-4.3M194 147l4.3-4.4M194 151.3l4.3-4.3M194 155.4l4.3-4.4M194 159.7l4.3-4.3M194 164l4.3-4.3M194 168.3l4.3-4.3M194 172.4l4.3-4.3M194 176.7l4.3-4.3M194 181l4.3-4.3M194 185.1l4.3-4.3M194 189.4l4.3-4.3M194.5 193l3.8-3.6"/><path class="cls-17" d="M198.1 193V97.5M193.8 193V97.5M193.8 193V97.5M198.1 193V97.5"/><path class="cls-16" d="M198.1 95.8h-4.3M198.1 73.3h-4.3"/><path class="cls-17" d="M198.1 97.5h-4.3M198.1 71.4h-4.3"/><path class="cls-15" d="M193.7 73.2c-12.4 0-22.7 10.2-22.7 22.7M193.8 95.8H171"/><path class="cls-21" d="M95.8 66.3V189h7V66.3h-7"/><path class="cls-15" d="M103 68.5l-2.1-2.2M103 72.6l-6.2-6.3M103 76.4l-6.9-7M103 80.5l-6.9-7M103 84.6l-6.9-7M103 88.4l-6.9-7M103 92.5l-6.9-7M103 96.6l-6.9-7M103 100.4l-6.9-7M103 104.5l-6.9-7M103 108.6l-6.9-7M103 112.6l-6.9-6.9M103 116.5l-6.9-7M103 120.6l-6.9-7M103 124.6l-6.9-6.9M103 128.5l-6.9-7M103 132.6l-6.9-7M103 136.6l-6.9-6.9M103 140.5l-6.9-7M103 144.6l-6.9-7M103 148.6l-6.9-6.9M103 152.7l-6.9-6.9M103 156.6l-6.9-7M103 160.6l-6.9-6.9M103 164.7l-6.9-6.9M103 168.6l-6.9-7M103 172.6l-6.9-6.9M103 176.7l-6.9-6.9M103 180.8l-6.9-7M103 184.6l-6.9-6.9M103 188.7l-6.9-6.9M99.2 189l-3.1-3.2M100.6 189l2.4-2.4M96.6 189l6.4-6.3M96.1 185.6l6.9-7M96.1 181.5l6.9-6.9M96.1 177.7l6.9-7M96.1 173.6l6.9-7M96.1 169.5l6.9-6.9M96.1 165.7l6.9-7M96.1 161.6l6.9-7M96.1 157.5l6.9-6.9M96.1 153.4l6.9-6.9M96.1 149.6l6.9-7M96.1 145.5l6.9-6.9M96.1 141.4l6.9-6.9M96.1 137.6l6.9-7M96.1 133.5l6.9-6.9M96.1 129.4l6.9-6.9M96.1 125.6l6.9-7M96.1 121.5l6.9-6.9M96.1 117.4l6.9-6.9M96.1 113.4l6.9-7M96.1 109.5l6.9-6.9M96.1 105.4l6.9-6.9M96.1 101.4l6.9-7M96.1 97.5l6.9-6.9M96.1 93.4l6.9-6.9M96.1 89.4l6.9-7M96.1 85.5l6.9-6.9M96.1 81.4l6.9-6.9M96.1 77.4l6.9-7M96.1 73.3l6.9-7M96.1 69.4l2.9-3.1"/><path class="cls-21" d="M95.8 66.3V189h7V66.3h-7"/><path class="cls-15" d="M103 68.5l-2.1-2.2M103 72.6l-6.2-6.3M103 76.4l-6.9-7M103 80.5l-6.9-7M103 84.6l-6.9-7M103 88.4l-6.9-7M103 92.5l-6.9-7M103 96.6l-6.9-7M103 100.4l-6.9-7M103 104.5l-6.9-7M103 108.6l-6.9-7M103 112.6l-6.9-6.9M103 116.5l-6.9-7M103 120.6l-6.9-7M103 124.6l-6.9-6.9M103 128.5l-6.9-7M103 132.6l-6.9-7M103 136.6l-6.9-6.9M103 140.5l-6.9-7M103 144.6l-6.9-7M103 148.6l-6.9-6.9M103 152.7l-6.9-6.9M103 156.6l-6.9-7M103 160.6l-6.9-6.9M103 164.7l-6.9-6.9M103 168.6l-6.9-7M103 172.6l-6.9-6.9M103 176.7l-6.9-6.9M103 180.8l-6.9-7M103 184.6l-6.9-6.9M103 188.7l-6.9-6.9M99.2 189l-3.1-3.2M100.6 189l2.4-2.4M96.6 189l6.4-6.3M96.1 185.6l6.9-7M96.1 181.5l6.9-6.9M96.1 177.7l6.9-7M96.1 173.6l6.9-7M96.1 169.5l6.9-6.9M96.1 165.7l6.9-7M96.1 161.6l6.9-7M96.1 157.5l6.9-6.9M96.1 153.4l6.9-6.9M96.1 149.6l6.9-7M96.1 145.5l6.9-6.9M96.1 141.4l6.9-6.9M96.1 137.6l6.9-7M96.1 133.5l6.9-6.9M96.1 129.4l6.9-6.9M96.1 125.6l6.9-7M96.1 121.5l6.9-6.9M96.1 117.4l6.9-6.9M96.1 113.4l6.9-7M96.1 109.5l6.9-6.9M96.1 105.4l6.9-6.9M96.1 101.4l6.9-7M96.1 97.5l6.9-6.9M96.1 93.4l6.9-6.9M96.1 89.4l6.9-7M96.1 85.5l6.9-6.9M96.1 81.4l6.9-6.9M96.1 77.4l6.9-7M96.1 73.3l6.9-7M96.1 69.4l2.9-3.1"/><path class="cls-17" d="M102.8 189V66.3M95.8 189V66.3M102.8 66.3h-7M95.8 189V66.3M102.8 189V66.3"/><path class="cls-21" d="M7.8 294.8l-7 9.8h58.1l-5.8-9.8H7.8"/><path class="cls-15" d="M54.1 296.2l-1.5-1.4M58.4 304.6l-9.8-9.8M54.6 304.6l-9.9-9.8M50.5 304.6l-9.9-9.8M46.4 304.6l-9.8-9.8M42.6 304.6l-9.9-9.8M38.5 304.6l-9.9-9.8M34.4 304.6l-9.8-9.8M30.6 304.6l-9.9-9.8M26.5 304.6l-9.9-9.8M22.4 304.6l-9.8-9.8M18.3 304.6l-9.8-9.8M14.5 304.6l-7.9-7.9M10.4 304.6l-5.5-5.5M6.3 304.6l-3.1-3.1M2.5 304.6l-1-.9M57.2 304.6l1.2-1.2M53.1 304.6l3.6-3.6M49 304.6l6.3-6.2M45.2 304.6l8.6-8.8M41.1 304.6l9.9-9.8M37 304.6l9.9-9.8M33 304.6l9.8-9.8M29.1 304.6l9.9-9.8M25 304.6l9.9-9.8M21 304.6l9.8-9.8M17.1 304.6l9.9-9.8M13 304.6l9.9-9.8M9 304.6l9.8-9.8M5.1 304.6l9.9-9.8M1 304.6l9.9-9.8"/><path class="cls-21" d="M7.8 294.8l-7 9.8h58.1l-5.8-9.8H7.8"/><path class="cls-15" d="M54.1 296.2l-1.5-1.4M58.4 304.6l-9.8-9.8M54.6 304.6l-9.9-9.8M50.5 304.6l-9.9-9.8M46.4 304.6l-9.8-9.8M42.6 304.6l-9.9-9.8M38.5 304.6l-9.9-9.8M34.4 304.6l-9.8-9.8M30.6 304.6l-9.9-9.8M26.5 304.6l-9.9-9.8M22.4 304.6l-9.8-9.8M18.3 304.6l-9.8-9.8M14.5 304.6l-7.9-7.9M10.4 304.6l-5.5-5.5M6.3 304.6l-3.1-3.1M2.5 304.6l-1-.9M57.2 304.6l1.2-1.2M53.1 304.6l3.6-3.6M49 304.6l6.3-6.2M45.2 304.6l8.6-8.8M41.1 304.6l9.9-9.8M37 304.6l9.9-9.8M33 304.6l9.8-9.8M29.1 304.6l9.9-9.8M25 304.6l9.9-9.8M21 304.6l9.8-9.8M17.1 304.6l9.9-9.8M13 304.6l9.9-9.8M9 304.6l9.8-9.8M5.1 304.6l9.9-9.8M1 304.6l9.9-9.8"/><path class="cls-17" d="M53.1 294.8H7.8M58.9 304.6H.8M58.9 304.6H.8M53.1 294.8H7.8"/><path class="cls-21" d="M198.1 193.8h-7.2v2.4l7.2-7.2v4.8"/><path class="cls-15" d="M198.3 191.8l-1.4-1.4M196.2 193.8l-1.5-1.5M192.8 194.5l-.7-.7M196.2 193.8l2.1-2.2M191.1 194.7l1-.9"/><path class="cls-21" d="M190.9 193.8h7.2V189l-7.2 7.2v-2.4"/><path class="cls-15" d="M198.3 191.8l-1.4-1.4M196.2 193.8l-1.5-1.5M192.8 194.5l-.7-.7M196.2 193.8l2.1-2.2M191.1 194.7l1-.9"/><path class="cls-17" d="M198.1 193.8V189M190.9 193.8v2.4M190.9 193.8v2.4M198.1 193.8V189"/><path class="cls-21" d="M190.9 226.2v71.2l7.2 7.2v-78.4h-7.2"/><path class="cls-15" d="M198.3 227.8l-1.9-1.6M198.3 231.9l-5.7-5.7M198.3 235.8l-7.2-7.2M198.3 239.8l-7.2-7.2M198.3 243.9l-7.2-7.2M198.3 248l-7.2-7.2M198.3 251.8l-7.2-7.2M198.3 255.9l-7.2-7.2M198.3 260l-7.2-7.2M198.3 263.8l-7.2-7.2M198.3 267.9l-7.2-7.2M198.3 272l-7.2-7.2M198.3 276.1l-7.2-7.2M198.3 279.9l-7.2-7.2M198.3 284l-7.2-7.2M198.3 288.1l-7.2-7.2M198.3 291.9l-7.2-7.2M198.3 296l-7.2-7.2M198.3 300.1l-7.2-7.2M198.3 303.9l-7.2-7.2M197.8 304.2l.5-.3M195.9 302.2l2.4-2.4M193.8 300.3l4.5-4.5M191.8 298.2l6.5-6.3M191.1 295l7.2-7.2M191.1 291l7.2-7.2M191.1 287.1l7.2-7.2M191.1 283l7.2-7.2M191.1 279l7.2-7.2M191.1 274.9l7.2-7.2M191.1 271l7.2-7.2M191.1 267l7.2-7.2M191.1 262.9l7.2-7.2M191.1 259l7.2-7.2M191.1 255l7.2-7.2M191.1 250.9l7.2-7.2M191.1 247l7.2-7.2M191.1 243l7.2-7.2M191.1 238.9l7.2-7.2M191.1 234.8l7.2-7.2M191.1 231l4.6-4.8M191.1 226.9l.5-.7"/><path class="cls-21" d="M190.9 226.2v71.2l7.2 7.2v-78.4h-7.2"/><path class="cls-15" d="M198.3 227.8l-1.9-1.6M198.3 231.9l-5.7-5.7M198.3 235.8l-7.2-7.2M198.3 239.8l-7.2-7.2M198.3 243.9l-7.2-7.2M198.3 248l-7.2-7.2M198.3 251.8l-7.2-7.2M198.3 255.9l-7.2-7.2M198.3 260l-7.2-7.2M198.3 263.8l-7.2-7.2M198.3 267.9l-7.2-7.2M198.3 272l-7.2-7.2M198.3 276.1l-7.2-7.2M198.3 279.9l-7.2-7.2M198.3 284l-7.2-7.2M198.3 288.1l-7.2-7.2M198.3 291.9l-7.2-7.2M198.3 296l-7.2-7.2M198.3 300.1l-7.2-7.2M198.3 303.9l-7.2-7.2M197.8 304.2l.5-.3M195.9 302.2l2.4-2.4M193.8 300.3l4.5-4.5M191.8 298.2l6.5-6.3M191.1 295l7.2-7.2M191.1 291l7.2-7.2M191.1 287.1l7.2-7.2M191.1 283l7.2-7.2M191.1 279l7.2-7.2M191.1 274.9l7.2-7.2M191.1 271l7.2-7.2M191.1 267l7.2-7.2M191.1 262.9l7.2-7.2M191.1 259l7.2-7.2M191.1 255l7.2-7.2M191.1 250.9l7.2-7.2M191.1 247l7.2-7.2M191.1 243l7.2-7.2M191.1 238.9l7.2-7.2M191.1 234.8l7.2-7.2M191.1 231l4.6-4.8M191.1 226.9l.5-.7"/><path class="cls-17" d="M198.1 304.6v-78.4M190.9 297.4v-71.2M190.9 297.4v-71.2M198.1 304.6v-78.4"/><path class="cls-16" d="M196.9 223.5h1.7v2.6h-1.7zM196.9 193.8h1.7v2.6h-1.7zM196.9 196.4h1.7v27.1h-1.7zM196.9 223.5v-27.1"/><path class="cls-1" d="M190.9 223.8v-27.6"/><path class="cls-16" d="M190.9 196.6v-.4"/><path class="cls-21" d="M190.9 226.2v-2.4h6v2.4h1.2"/><path class="cls-15" d="M196.4 226.2l-2.4-2.4M192.6 226.2l-1.5-1.5M195.7 226.2l1.4-1.2M191.6 226.2l2.4-2.4"/><path class="cls-17" d="M190.9 226.2v-2.4h6v2.4h1.2"/><path class="cls-21" d="M190.9 193.8v2.3h6v-2.3h1.1"/><path class="cls-15" d="M197.1 194.5l-.9-.7M194.5 196.2l-2.4-2.4M193.8 196.2l2.4-2.4M191.1 194.7l1-.9"/><path class="cls-17" d="M190.9 196.1h6v-2.3h1.1"/><path class="cls-15" d="M198.6 223.5c14.9 0 27.2-12.3 27.2-27.2M198.6 196.4h27.1"/><path class="cls-21" d="M.8 304.6l7-9.8v-68.6h-7v78.4"/><path class="cls-15" d="M8 230l-3.8-3.8M8 234.1l-7-7M8 237.9L1 231M8 242l-7-7M8 246.1l-7-7M8 249.9L1 243M8 254l-7-7M8 258.1l-7-7M8 261.9L1 255M8 266l-7-7M8 270.1l-7-7M8 274.2l-7-7M8 278l-7-7M8 282.1l-7-7M8 286.2l-7-7M8 290l-7-7M8 294.1l-7-7M6.6 296.7L1 291.2M4.9 299.1L1 295.3M3.2 301.5L1 299.1M1.5 303.7l-.5-.5M1 300.8l7-7M1 296.7l7-6.9M1 292.6l7-6.9M1 288.6l7-7M1 284.7l7-6.9M1 280.6l7-6.9M1 276.6l7-7M1 272.7l7-6.9M1 268.6l7-6.9M1 264.6l7-7M1 260.7l7-6.9M1 256.6l7-6.9M1 252.6l7-7M1 248.5l7-7M1 244.6l7-6.9M1 240.6l7-7M1 236.5l7-7M1 232.6l6.3-6.4M1 228.6l2.2-2.4"/><path class="cls-21" d="M.8 304.6l7-9.8v-68.6h-7v78.4"/><path class="cls-15" d="M8 230l-3.8-3.8M8 234.1l-7-7M8 237.9L1 231M8 242l-7-7M8 246.1l-7-7M8 249.9L1 243M8 254l-7-7M8 258.1l-7-7M8 261.9L1 255M8 266l-7-7M8 270.1l-7-7M8 274.2l-7-7M8 278l-7-7M8 282.1l-7-7M8 286.2l-7-7M8 290l-7-7M8 294.1l-7-7M6.6 296.7L1 291.2M4.9 299.1L1 295.3M3.2 301.5L1 299.1M1.5 303.7l-.5-.5M1 300.8l7-7M1 296.7l7-6.9M1 292.6l7-6.9M1 288.6l7-7M1 284.7l7-6.9M1 280.6l7-6.9M1 276.6l7-7M1 272.7l7-6.9M1 268.6l7-6.9M1 264.6l7-7M1 260.7l7-6.9M1 256.6l7-6.9M1 252.6l7-7M1 248.5l7-7M1 244.6l7-6.9M1 240.6l7-7M1 236.5l7-7M1 232.6l6.3-6.4M1 228.6l2.2-2.4"/><path class="cls-17" d="M.8 226.2v78.4M7.8 240.1v54.7M7.8 226.2v3.6M7.8 240.1v54.7M.8 226.2v78.4M7.8 226.2v3.6"/><path class="cls-21" d="M.8 189l7 7.2v-2.4h-7V189"/><path class="cls-15" d="M8 194l-.2-.2M3.7 193.8L1 190.9M6.6 194.7l1.2-.9M3.7 193.8l.9-1M1 192.6l1.7-2"/><path class="cls-21" d="M7.8 196.2l-7-7.2v4.8h7v2.4"/><path class="cls-15" d="M8 194l-.2-.2M3.7 193.8L1 190.9M6.6 194.7l1.2-.9M3.7 193.8l.9-1M1 192.6l1.7-2"/><path class="cls-17" d="M.8 189v4.8M7.8 196.2v-2.4M7.8 196.2v-2.4M.8 189v4.8"/><path class="cls-16" d="M0 193.8h1.7v2.6H0zM0 223.5h1.7v2.6H0zM0 196.4h1.7v27.1H0zM1.8 196.4v27.1"/><path class="cls-1" d="M7.8 196.2v27.6"/><path class="cls-16" d="M7.8 223.3v.5"/><path class="cls-21" d="M7.8 193.8v2.3h-6v-2.3H.7"/><path class="cls-15" d="M8 194l-.2-.2M6.1 196.2l-2.4-2.4M2.2 196.2l-.2-.3M5.4 196.2l2.4-2.4M2 195.4l1.7-1.6"/><path class="cls-17" d="M7.8 196.1h-6v-2.3H.7"/><path class="cls-21" d="M7.8 226.2v-2.4h-6v2.4h-1"/><path class="cls-15" d="M8 225.9l-2.4-2.1M4.2 226.2L2 224M7.3 226.2l.7-.5M3.2 226.2l2.4-2.4"/><path class="cls-17" d="M7.8 226.2v-2.4h-6v2.4h-1"/><path class="cls-21" d="M198.1 189l-7.2 7.2H7.8l-7-7.2h197.3"/><path class="cls-15" d="M196.9 190.4l-1.5-1.4M194.7 192.3l-3.3-3.3M192.8 194.5l-5.5-5.5M190.6 196.2l-7.2-7.2M186.6 196.2l-7.2-7.2M182.5 196.2l-7.2-7.2M178.6 196.2l-7.2-7.2M174.6 196.2l-7.2-7.2M170.5 196.2l-7.2-7.2M166.4 196.2l-7.2-7.2M162.6 196.2l-7.2-7.2M158.5 196.2l-7.2-7.2M154.4 196.2l-7.2-7.2M150.6 196.2l-7.2-7.2M146.5 196.2l-7.2-7.2M142.4 196.2l-7.2-7.2M138.3 196.2l-7.2-7.2M134.5 196.2l-7.2-7.2M130.4 196.2l-7.2-7.2M126.3 196.2l-7.2-7.2M122.5 196.2l-7.2-7.2M118.4 196.2l-7.2-7.2M114.3 196.2l-7.2-7.2M110.5 196.2l-7.2-7.2M106.4 196.2l-7.2-7.2M102.3 196.2l-7.2-7.2M98.2 196.2L91 189M94.4 196.2l-7.2-7.2M90.3 196.2l-7.2-7.2M86.2 196.2L79 189M82.4 196.2l-7.2-7.2M78.3 196.2l-7.2-7.2M74.2 196.2L67 189M70.4 196.2l-7.2-7.2M66.3 196.2l-7.2-7.2M62.2 196.2L55 189M58.2 196.2L51 189M54.3 196.2l-7.2-7.2M50.2 196.2L43 189M46.2 196.2L39 189M42.3 196.2l-7.2-7.2M38.2 196.2L31 189M34.2 196.2L27 189M30.1 196.2l-7.2-7.2M26.2 196.2L19 189M22.2 196.2L15 189M18.1 196.2l-7.2-7.2M14.2 196.2L7 189M10.2 196.2L3 189M189.7 196.2l7.2-7.2M185.6 196.2l7.2-7.2M181.5 196.2l7.2-7.2M177.7 196.2l7.2-7.2M173.6 196.2l7.2-7.2M169.5 196.2l7.2-7.2M165.7 196.2l7.2-7.2M161.6 196.2l7.2-7.2M157.5 196.2l7.2-7.2M153.7 196.2l7.2-7.2M149.6 196.2l7.2-7.2M145.5 196.2l7.2-7.2M141.4 196.2l7.2-7.2M137.6 196.2l7.2-7.2M133.5 196.2l7.2-7.2M129.4 196.2l7.2-7.2M125.6 196.2l7.2-7.2M121.5 196.2l7.2-7.2M117.4 196.2l7.2-7.2M113.6 196.2l7.2-7.2M109.5 196.2l7.2-7.2M105.4 196.2l7.2-7.2M101.4 196.2l7.2-7.2M97.5 196.2l7.2-7.2M93.4 196.2l7.2-7.2M89.4 196.2l7.2-7.2M85.5 196.2l7.2-7.2M81.4 196.2l7.2-7.2M77.4 196.2l7.2-7.2M73.3 196.2l7.2-7.2M69.4 196.2l7.2-7.2M65.4 196.2l7.2-7.2M61.3 196.2l7.2-7.2M57.4 196.2l7.2-7.2M53.4 196.2l7.2-7.2M49.3 196.2l7.2-7.2M45.4 196.2l7.2-7.2M41.4 196.2l7.2-7.2M37.3 196.2l7.2-7.2M33.2 196.2l7.2-7.2M29.4 196.2l7.2-7.2M25.3 196.2l7.2-7.2M21.2 196.2l7.2-7.2M17.4 196.2l7.2-7.2M13.3 196.2l7.2-7.2M9.2 196.2l7.2-7.2M6.6 194.7l6-5.7M4.6 192.8l3.9-3.8M2.7 190.6l1.7-1.6"/><path class="cls-21" d="M190.9 196.2l7.2-7.2H.8l7 7.2h183.1"/><path class="cls-15" d="M196.9 190.4l-1.5-1.4M194.7 192.3l-3.3-3.3M192.8 194.5l-5.5-5.5M190.6 196.2l-7.2-7.2M186.6 196.2l-7.2-7.2M182.5 196.2l-7.2-7.2M178.6 196.2l-7.2-7.2M174.6 196.2l-7.2-7.2M170.5 196.2l-7.2-7.2M166.4 196.2l-7.2-7.2M162.6 196.2l-7.2-7.2M158.5 196.2l-7.2-7.2M154.4 196.2l-7.2-7.2M150.6 196.2l-7.2-7.2M146.5 196.2l-7.2-7.2M142.4 196.2l-7.2-7.2M138.3 196.2l-7.2-7.2M134.5 196.2l-7.2-7.2M130.4 196.2l-7.2-7.2M126.3 196.2l-7.2-7.2M122.5 196.2l-7.2-7.2M118.4 196.2l-7.2-7.2M114.3 196.2l-7.2-7.2M110.5 196.2l-7.2-7.2M106.4 196.2l-7.2-7.2M102.3 196.2l-7.2-7.2M98.2 196.2L91 189M94.4 196.2l-7.2-7.2M90.3 196.2l-7.2-7.2M86.2 196.2L79 189M82.4 196.2l-7.2-7.2M78.3 196.2l-7.2-7.2M74.2 196.2L67 189M70.4 196.2l-7.2-7.2M66.3 196.2l-7.2-7.2M62.2 196.2L55 189M58.2 196.2L51 189M54.3 196.2l-7.2-7.2M50.2 196.2L43 189M46.2 196.2L39 189M42.3 196.2l-7.2-7.2M38.2 196.2L31 189M34.2 196.2L27 189M30.1 196.2l-7.2-7.2M26.2 196.2L19 189M22.2 196.2L15 189M18.1 196.2l-7.2-7.2M14.2 196.2L7 189M10.2 196.2L3 189M189.7 196.2l7.2-7.2M185.6 196.2l7.2-7.2M181.5 196.2l7.2-7.2M177.7 196.2l7.2-7.2M173.6 196.2l7.2-7.2M169.5 196.2l7.2-7.2M165.7 196.2l7.2-7.2M161.6 196.2l7.2-7.2M157.5 196.2l7.2-7.2M153.7 196.2l7.2-7.2M149.6 196.2l7.2-7.2M145.5 196.2l7.2-7.2M141.4 196.2l7.2-7.2M137.6 196.2l7.2-7.2M133.5 196.2l7.2-7.2M129.4 196.2l7.2-7.2M125.6 196.2l7.2-7.2M121.5 196.2l7.2-7.2M117.4 196.2l7.2-7.2M113.6 196.2l7.2-7.2M109.5 196.2l7.2-7.2M105.4 196.2l7.2-7.2M101.4 196.2l7.2-7.2M97.5 196.2l7.2-7.2M93.4 196.2l7.2-7.2M89.4 196.2l7.2-7.2M85.5 196.2l7.2-7.2M81.4 196.2l7.2-7.2M77.4 196.2l7.2-7.2M73.3 196.2l7.2-7.2M69.4 196.2l7.2-7.2M65.4 196.2l7.2-7.2M61.3 196.2l7.2-7.2M57.4 196.2l7.2-7.2M53.4 196.2l7.2-7.2M49.3 196.2l7.2-7.2M45.4 196.2l7.2-7.2M41.4 196.2l7.2-7.2M37.3 196.2l7.2-7.2M33.2 196.2l7.2-7.2M29.4 196.2l7.2-7.2M25.3 196.2l7.2-7.2M21.2 196.2l7.2-7.2M17.4 196.2l7.2-7.2M13.3 196.2l7.2-7.2M9.2 196.2l7.2-7.2M6.6 194.7l6-5.7M4.6 192.8l3.9-3.8M2.7 190.6l1.7-1.6"/><path class="cls-17" d="M95.8 189H.8M198.1 189h-95.3M190.9 196.2H7.8M190.9 196.2H7.8M95.8 189H.8M198.1 189h-95.3"/><path class="cls-21" d="M288.4 233.6c-.9 1.3-.9 3 0 4.3 1.5 1.9 3.8 2.9 6.2 2.9l9-.3v-9.6l-9-.3c-2.4 0-4.7 1-6.2 2.9"/><path class="cls-16" d="M288.4 233.6c-.9 1.3-.9 3 0 4.3 1.5 1.9 3.8 2.9 6.2 2.9l9-.3v-9.6l-9-.3c-2.4 0-4.7 1-6.2 2.9"/><path class="cls-21" d="M298.5 235.7c0-1-.3-2-1.1-2.8s-1.7-1.2-2.7-1.2c-2.1 0-4.1.9-5.4 2.5-.6.9-.6 2 0 2.9 1.3 1.6 3.3 2.5 5.4 2.5 1 0 2-.4 2.7-1.2.7-.7 1.1-1.8 1.1-2.8"/><path class="cls-16" d="M298.5 235.7c0-1-.3-2-1.1-2.8s-1.7-1.2-2.7-1.2c-2.1 0-4.1.9-5.4 2.5-.6.9-.6 2 0 2.9 1.3 1.6 3.3 2.5 5.4 2.5 1 0 2-.4 2.7-1.2.7-.7 1.1-1.8 1.1-2.8"/><path class="cls-21" d="M303.2 184.4h-48.1v.1h-.1v.1h-.1v.1h-.1v20.7h.1v.1l.1.1h.1v.1h48.2l.1-.1h.1v-.1l.1-.1V184.7h-.1v-.1l-.1-.1h-.1v-.1h-.1"/><path class="cls-16" d="M303.2 184.4h-48.1v.1h-.1v.1h-.1v.1h-.1v20.7h.1v.1l.1.1h.1v.1h48.2l.1-.1h.1v-.1l.1-.1V184.7h-.1v-.1l-.1-.1h-.1v-.1h-.1"/><path class="cls-21" d="M297.9 186.6h-37.4c-.4 0-.9 0-1.3.3-.4.2-.8.4-1.1.7-.3.3-.6.7-.7 1.1-.2.4-.3.9-.3 1.3v10.2c0 .4 0 .9.3 1.3.2.4.4.8.7 1.1.3.3.7.6 1.1.7.4.2.9.3 1.3.3h37.4c.4 0 .9 0 1.3-.3.4-.2.8-.4 1.1-.7.3-.3.6-.7.7-1.1.2-.4.3-.9.3-1.3V190c0-.4 0-.9-.3-1.3-.2-.4-.4-.8-.7-1.1-.3-.3-.7-.6-1.1-.7-.4-.2-.9-.3-1.3-.3"/><path class="cls-16" d="M297.9 186.6h-37.4c-.4 0-.9 0-1.3.3-.4.2-.8.4-1.1.7-.3.3-.6.7-.7 1.1-.2.4-.3.9-.3 1.3v10.2c0 .4 0 .9.3 1.3.2.4.4.8.7 1.1.3.3.7.6 1.1.7.4.2.9.3 1.3.3h37.4c.4 0 .9 0 1.3-.3.4-.2.8-.4 1.1-.7.3-.3.6-.7.7-1.1.2-.4.3-.9.3-1.3V190c0-.4 0-.9-.3-1.3-.2-.4-.4-.8-.7-1.1-.3-.3-.7-.6-1.1-.7-.4-.2-.9-.3-1.3-.3M304.4 248.7v-20.9M305.6 248.7v-19.4M304.4 248.7v-20.9M303.7 248.7v-21.6M305.6 248.7v-19.4M308.2 227.8v-18.2M309.4 229.3v-21.1M308.2 227.8v-18.2M307.5 227.1v-16.8M309.4 229.3v-21.1M304.4 209.6v-25.4M305.6 208.2v-24M304.4 209.6v-25.4M303.7 210.3v-26.1M305.6 208.2v-24"/><path class="cls-21" d="M303.6 210.9h-12.4c-.1 0-.3.1-.4.2-.1.1-.2.2-.2.4V225.6c0 .1.1.3.2.4.1.1.2.2.4.2h12.4v-15.6"/><path class="cls-16" d="M303.6 210.9h-12.4c-.1 0-.3.1-.4.2-.1.1-.2.2-.2.4V225.6c0 .1.1.3.2.4.1.1.2.2.4.2h12.4v-15.6"/><path class="cls-14" d="M303.7 227.4h3.8"/><path class="cls-4" d="M307.5 227.4v-17.1"/><path class="cls-14" d="M307.5 210.3h-3.8"/><path class="cls-16" d="M308.2 209.6h-3.8M309.4 208.2h-3.8M308.2 209.6h-3.8M307.5 210.3h-3.8M309.4 208.2h-3.8M304.4 227.8h3.8M305.6 229.3h3.8M304.4 227.8h3.8M303.7 227.1h3.8M305.6 229.3h3.8M293.6 271.3h17.5v78.2h-17.5zM296 348.8h-2.4M296 340.4h-2.4M296 323.4h-2.4M296 306.3h-2.4M296 289.3h-2.4"/><path class="cls-21" d="M306 290.2h-8.9c-.3 0-.5 0-.8.2-.2 0-.5.2-.6.4-.2.2-.3.4-.4.6-.1.2-.2.5-.2.8v11.2c0 .3 0 .5.2.8 0 .2.2.5.4.6.2.2.4.3.6.4.2 0 .5.2.8.2h8.9c.3 0 .5 0 .8-.2.2-.1.5-.2.6-.4.2-.2.3-.4.4-.6.1-.2.2-.5.2-.8v-11.2c0-.3 0-.5-.2-.8-.1-.2-.2-.5-.4-.6-.2-.2-.4-.3-.6-.4-.2-.1-.5-.2-.8-.2"/><path class="cls-16" d="M306 290.2h-8.9c-.3 0-.5 0-.8.2-.2 0-.5.2-.6.4-.2.2-.3.4-.4.6-.1.2-.2.5-.2.8v11.2c0 .3 0 .5.2.8 0 .2.2.5.4.6.2.2.4.3.6.4.2 0 .5.2.8.2h8.9c.3 0 .5 0 .8-.2.2-.1.5-.2.6-.4.2-.2.3-.4.4-.6.1-.2.2-.5.2-.8v-11.2c0-.3 0-.5-.2-.8-.1-.2-.2-.5-.4-.6-.2-.2-.4-.3-.6-.4-.2-.1-.5-.2-.8-.2"/><path class="cls-21" d="M305.8 297.8c0-.6-.5-1.1-1.1-1.1s-1.1.5-1.1 1.1.5 1.1 1.1 1.1 1.1-.5 1.1-1.1"/><path class="cls-16" d="M305.8 297.8c0-.6-.5-1.1-1.1-1.1s-1.1.5-1.1 1.1.5 1.1 1.1 1.1 1.1-.5 1.1-1.1"/><path class="cls-20" d="M295 323.8h14.6v15.8H295z"/><path class="cls-16" d="M295 323.8h14.6v15.8H295z"/><path class="cls-21" d="M302.7 335.8c0-1.6-1.3-2.9-2.9-2.9s-2.9 1.3-2.9 2.9 1.3 2.9 2.9 2.9 2.9-1.3 2.9-2.9"/><path class="cls-16" d="M302.7 335.8c0-1.6-1.3-2.9-2.9-2.9s-2.9 1.3-2.9 2.9 1.3 2.9 2.9 2.9 2.9-1.3 2.9-2.9"/><path class="cls-21" d="M308.7 336.8c0-1.2-1-2.2-2.2-2.2s-2.2 1-2.2 2.2 1 2.2 2.2 2.2 2.2-1 2.2-2.2"/><path class="cls-16" d="M308.7 336.8c0-1.2-1-2.2-2.2-2.2s-2.2 1-2.2 2.2 1 2.2 2.2 2.2 2.2-1 2.2-2.2"/><path class="cls-21" d="M302 328.3c0-1.3-1-2.3-2.2-2.3s-2.2 1-2.2 2.3 1 2.3 2.2 2.3 2.2-1 2.2-2.3"/><path class="cls-16" d="M302 328.3c0-1.3-1-2.3-2.2-2.3s-2.2 1-2.2 2.3 1 2.3 2.2 2.3 2.2-1 2.2-2.3"/><path class="cls-21" d="M309 328.5c0-1.5-1.2-2.8-2.8-2.8s-2.8 1.2-2.8 2.8 1.2 2.8 2.8 2.8 2.8-1.2 2.8-2.8"/><path class="cls-16" d="M309 328.5c0-1.5-1.2-2.8-2.8-2.8s-2.8 1.2-2.8 2.8 1.2 2.8 2.8 2.8 2.8-1.2 2.8-2.8"/><path class="cls-1" d="M301 271.3v78.2"/><path class="cls-16" d="M301 349v.5M274.2 270.6h17v.7h-17zM290.5 255.2h.7v15.4h-.7zM274.2 255.2h.5v15.4h-.5zM274.2 254.7h17v.5h-17zM240.1 270.6h17v.7h-17zM256.6 255.2h.5v15.4h-.5zM240.1 255.2h.5v15.4h-.5zM240.1 254.7h17v.5h-17zM237.4 270.6h2.6v.7h-2.6zM291.2 270.6h19.9v.7h-19.9zM257.1 270.6h17v.7h-17zM273.4 255.2h.7v15.4h-.7zM257.1 255.2h.5v15.4h-.5zM257.1 254.7h17v.5h-17zM296 272.2h-2.4"/><path class="cls-17" d="M315.7 71.4h-4.1"/><path class="cls-21" d="M311.6 97.5v253l4.1 4.1V97.5h-4.1"/><path class="cls-15" d="M311.8 101.4l3.9-3.9M311.8 105.7l4.1-4.1M311.8 109.8l4.1-4.1M311.8 114.1l4.1-4.1M311.8 118.4l4.1-4.1M311.8 122.7l4.1-4.1M311.8 126.8l4.1-4.1M311.8 131.1l4.1-4.1M311.8 135.4l4.1-4M311.8 139.5l4.1-4.1M311.8 143.8l4.1-4M311.8 148.2l4.1-4.1M311.8 152.5l4.1-4.1M311.8 156.6l4.1-4.1M311.8 160.9l4.1-4.1M311.8 165.2l4.1-4.1M311.8 169.3l4.1-4.1M311.8 173.6l4.1-4.1M311.8 177.9l4.1-4.1M311.8 182l4.1-4.1M311.8 186.3l4.1-4.1M311.8 190.6l4.1-4M311.8 195l4.1-4.1M311.8 199l4.1-4M311.8 203.4l4.1-4.1M311.8 207.7l4.1-4.1M311.8 211.8l4.1-4.1M311.8 216.1l4.1-4.1M311.8 220.4l4.1-4.1M311.8 224.7l4.1-4.1M311.8 228.8l4.1-4.1M311.8 233.1l4.1-4.1M311.8 237.4l4.1-4M311.8 241.5l4.1-4.1M311.8 245.8l4.1-4M311.8 250.2l4.1-4.1M311.8 254.5l4.1-4.1M311.8 258.6l4.1-4.1M311.8 262.9l4.1-4.1M311.8 267.2l4.1-4.1M311.8 271.3l4.1-4.1M311.8 275.6l4.1-4.1M311.8 279.9l4.1-4.1M311.8 284l4.1-4.1M311.8 288.3l4.1-4.1M311.8 292.6l4.1-4M311.8 297l4.1-4.1M311.8 301l4.1-4M311.8 305.4l4.1-4.1M311.8 309.7l4.1-4.1M311.8 313.8l4.1-4.1M311.8 318.1l4.1-4.1M311.8 322.4l4.1-4.1M311.8 326.7l4.1-4.1M311.8 330.8l4.1-4.1M311.8 335.1l4.1-4.1M311.8 339.4l4.1-4M311.8 343.5l4.1-4.1M311.8 347.8l4.1-4M312.6 351.2l3.3-3.1M314.7 353.4l1.2-1"/><path class="cls-21" d="M311.6 97.5v253l4.1 4.1V97.5h-4.1"/><path class="cls-15" d="M311.8 101.4l3.9-3.9M311.8 105.7l4.1-4.1M311.8 109.8l4.1-4.1M311.8 114.1l4.1-4.1M311.8 118.4l4.1-4.1M311.8 122.7l4.1-4.1M311.8 126.8l4.1-4.1M311.8 131.1l4.1-4.1M311.8 135.4l4.1-4M311.8 139.5l4.1-4.1M311.8 143.8l4.1-4M311.8 148.2l4.1-4.1M311.8 152.5l4.1-4.1M311.8 156.6l4.1-4.1M311.8 160.9l4.1-4.1M311.8 165.2l4.1-4.1M311.8 169.3l4.1-4.1M311.8 173.6l4.1-4.1M311.8 177.9l4.1-4.1M311.8 182l4.1-4.1M311.8 186.3l4.1-4.1M311.8 190.6l4.1-4M311.8 195l4.1-4.1M311.8 199l4.1-4M311.8 203.4l4.1-4.1M311.8 207.7l4.1-4.1M311.8 211.8l4.1-4.1M311.8 216.1l4.1-4.1M311.8 220.4l4.1-4.1M311.8 224.7l4.1-4.1M311.8 228.8l4.1-4.1M311.8 233.1l4.1-4.1M311.8 237.4l4.1-4M311.8 241.5l4.1-4.1M311.8 245.8l4.1-4M311.8 250.2l4.1-4.1M311.8 254.5l4.1-4.1M311.8 258.6l4.1-4.1M311.8 262.9l4.1-4.1M311.8 267.2l4.1-4.1M311.8 271.3l4.1-4.1M311.8 275.6l4.1-4.1M311.8 279.9l4.1-4.1M311.8 284l4.1-4.1M311.8 288.3l4.1-4.1M311.8 292.6l4.1-4M311.8 297l4.1-4.1M311.8 301l4.1-4M311.8 305.4l4.1-4.1M311.8 309.7l4.1-4.1M311.8 313.8l4.1-4.1M311.8 318.1l4.1-4.1M311.8 322.4l4.1-4.1M311.8 326.7l4.1-4.1M311.8 330.8l4.1-4.1M311.8 335.1l4.1-4.1M311.8 339.4l4.1-4M311.8 343.5l4.1-4.1M311.8 347.8l4.1-4M312.6 351.2l3.3-3.1M314.7 353.4l1.2-1"/><path class="cls-17" d="M315.7 194.2V97.5M315.7 249.4v-50.8M315.7 354.6V253.8M311.6 179.8V97.5M311.6 248.7v-64.5M311.6 350.5v-96.7M311.6 179.8V97.5M315.7 194.2V97.5M311.6 248.7v-64.5M315.7 249.4v-50.8M311.6 350.5v-96.7M315.7 354.6V253.8"/><path class="cls-16" d="M315.7 95.8h-4.1M315.7 73.3h-4.1"/><path class="cls-17" d="M315.7 97.5h-4.1M315.7 71.4h-4.1"/><path class="cls-15" d="M338.4 95.8c0-12.4-10.2-22.7-22.7-22.7M315.7 95.8h22.8"/><path class="cls-21" d="M301.5 350.5l4.1 4.1h10.1l-4.1-4.1h-10.1"/><path class="cls-15" d="M303.2 352.2l1.7-1.7M305.4 354.3l3.8-3.8M309.2 354.6l3.4-3.4M313.5 354.6l1.2-1.2"/><path class="cls-21" d="M301.5 350.5l4.1 4.1h10.1l-4.1-4.1h-10.1"/><path class="cls-15" d="M303.2 352.2l1.7-1.7M305.4 354.3l3.8-3.8M309.2 354.6l3.4-3.4M313.5 354.6l1.2-1.2"/><path class="cls-17" d="M311.6 350.5h-10.1M315.7 354.6h-10.1M315.7 354.6h-10.1M311.6 350.5h-10.1"/><path class="cls-21" d="M232.9 248.7l4.3 5.1h74.4v-5.1h-78.7"/><path class="cls-15" d="M234.6 250.6l2.1-1.9M236.7 253l4.1-4.3M240.1 253.8l5-5.1M244.4 253.8l5-5.1M248.5 253.8l5-5.1M252.8 253.8l5-5.1M257.1 253.8l5.1-5.1M261.4 253.8l5.1-5.1M265.5 253.8l5.1-5.1M269.8 253.8l5.1-5.1M274.2 253.8l5-5.1M278.2 253.8l5.1-5.1M282.6 253.8l5-5.1M286.9 253.8l5-5.1M291 253.8l5-5.1M295.3 253.8l5-5.1M299.6 253.8l5-5.1M303.9 253.8l5.1-5.1M308 253.8l3.8-3.6"/><path class="cls-21" d="M232.9 248.7l4.3 5.1h74.4v-5.1h-78.7"/><path class="cls-15" d="M234.6 250.6l2.1-1.9M236.7 253l4.1-4.3M240.1 253.8l5-5.1M244.4 253.8l5-5.1M248.5 253.8l5-5.1M252.8 253.8l5-5.1M257.1 253.8l5.1-5.1M261.4 253.8l5.1-5.1M265.5 253.8l5.1-5.1M269.8 253.8l5.1-5.1M274.2 253.8l5-5.1M278.2 253.8l5.1-5.1M282.6 253.8l5-5.1M286.9 253.8l5-5.1M291 253.8l5-5.1M295.3 253.8l5-5.1M299.6 253.8l5-5.1M303.9 253.8l5.1-5.1M308 253.8l3.8-3.6"/><path class="cls-17" d="M250.6 248.7h-17.7M311.6 248.7h-56.9M311.6 253.8h-74.4M311.6 253.8h-74.4M250.6 248.7h-17.7M311.6 248.7h-56.9"/><path class="cls-21" d="M254.7 222.1v-37.9l-4.1-4.4v42.3h4.1"/><path class="cls-15" d="M250.9 183.7l1.7-1.9M250.9 187.8l3.8-3.9M250.9 192.1l4.1-4.1M250.9 196.4l4.1-4.1M250.9 200.5l4.1-4.1M250.9 204.8l4.1-4.1M250.9 209.1l4.1-4.1M250.9 213.4l4.1-4M250.9 217.5l4.1-4.1M250.9 221.8l4.1-4M254.7 222.1h.3"/><path class="cls-21" d="M254.7 222.1v-37.9l-4.1-4.4v42.3h4.1"/><path class="cls-15" d="M250.9 183.7l1.7-1.9M250.9 187.8l3.8-3.9M250.9 192.1l4.1-4.1M250.9 196.4l4.1-4.1M250.9 200.5l4.1-4.1M250.9 204.8l4.1-4.1M250.9 209.1l4.1-4.1M250.9 213.4l4.1-4M250.9 217.5l4.1-4.1M250.9 221.8l4.1-4M254.7 222.1h.3"/><path class="cls-17" d="M250.6 183.4v38.7M254.7 184.2v37.9M254.7 184.2v37.9M250.6 183.4v38.7"/><path class="cls-1" d="M250.6 222.1v26.6M254.7 222.1v26.6"/><path class="cls-16" d="M250.6 224.2h4.1M250.6 246.8h4.1"/><path class="cls-17" d="M250.6 222.1h4.1M250.6 248.7h4.1"/><path class="cls-15" d="M250.6 224.1c-12.4 0-22.7 10.2-22.7 22.7M250.6 246.8h-22.8"/><path class="cls-21" d="M250.6 179.8l4.1 4.4h56.9v-4.4h-61"/><path class="cls-15" d="M252.6 181.8l1.9-2M254.7 183.9l4.1-4.1M258.6 184.2l4.3-4.4M262.9 184.2l4.3-4.4M267.2 184.2l4.3-4.4M271.5 184.2l4.3-4.4M275.6 184.2l4.3-4.4M279.9 184.2l4.3-4.4M284.2 184.2l4.4-4.4M288.3 184.2l4.3-4.4M292.6 184.2l4.4-4.4M297 184.2l4.3-4.4M301.3 184.2l4.3-4.4M305.4 184.2l4.3-4.4M309.7 184.2l2.1-2.2"/><path class="cls-21" d="M250.6 179.8l4.1 4.4h56.9v-4.4h-61"/><path class="cls-15" d="M252.6 181.8l1.9-2M254.7 183.9l4.1-4.1M258.6 184.2l4.3-4.4M262.9 184.2l4.3-4.4M267.2 184.2l4.3-4.4M271.5 184.2l4.3-4.4M275.6 184.2l4.3-4.4M279.9 184.2l4.3-4.4M284.2 184.2l4.4-4.4M288.3 184.2l4.3-4.4M292.6 184.2l4.4-4.4M297 184.2l4.3-4.4M301.3 184.2l4.3-4.4M305.4 184.2l4.3-4.4M309.7 184.2l2.1-2.2"/><path class="cls-17" d="M311.6 179.8h-61M311.6 184.2h-56.9M311.6 184.2h-56.9M311.6 179.8h-61"/><path class="cls-16" d="M232.4 189.4h.7V205h-.7zM233.1 189.4h16.1v.5h-16.1zM249.2 189.4h.7v31.2h-.7zM232.4 188.2h.7v1.2h-.7zM232.4 205h.7v15.6h-.7zM233.1 219.9h16.1v.7h-16.1zM232.4 220.6h17.8v.5h-17.8z"/><path class="cls-21" d="M237.2 270.8v-17l-4.3-5.1v22.1h4.3"/><path class="cls-15" d="M233.1 252.3l1.5-1.7M233.1 256.6l3.6-3.6M233.1 260.7l4.3-4.3M233.1 265l4.3-4.3M233.1 269.4l4.3-4.4M235.8 270.8l1.6-1.4"/><path class="cls-21" d="M237.2 270.8v-17l-4.3-5.1v22.1h4.3"/><path class="cls-15" d="M233.1 252.3l1.5-1.7M233.1 256.6l3.6-3.6M233.1 260.7l4.3-4.3M233.1 265l4.3-4.3M233.1 269.4l4.3-4.4M235.8 270.8l1.6-1.4"/><path class="cls-17" d="M232.9 248.7v22.1M237.2 253.8v17M232.9 270.8h4.3M237.2 253.8v17M232.9 248.7v22.1"/><path class="cls-16" d="M250.6 186.1h-14.1M250.6 186.8h-14.1M236.5 186.1v.7M250.6 186.8h-14.1M250.6 186.1h-14.1M250.6 186.1v.7"/><path class="cls-20" d="M237.9 187.5H248v2.4h-10.1z"/><path class="cls-16" d="M237.9 187.5H248v2.4h-10.1z"/><path class="cls-20" d="M237.7 189.9h10.6v.2h-10.6z"/><path class="cls-16" d="M237.7 189.9h10.6v.2h-10.6z"/><path class="cls-18" d="M247.3 190.2v8.4"/><path class="cls-3" d="M247.3 198.6h-1.7l-1.7-.5-1.4-1-1.2-.9-1.2-1.5-.7-1.4-.5-1.5-.3-1.6"/><path class="cls-21" d="M236.5 183.4l-3.6-3.6v8h3.6v-4.4"/><path class="cls-15" d="M233.1 184.4l2.2-2.4M233.8 187.8l2.9-2.9"/><path class="cls-21" d="M236.5 183.4l-3.6-3.6v8h3.6v-4.4"/><path class="cls-15" d="M233.1 184.4l2.2-2.4M233.8 187.8l2.9-2.9"/><path class="cls-17" d="M236.5 187.8v-4.4M232.9 187.8v-8M232.9 187.8v-8M236.5 187.8v-4.4M236.5 187.8h-3.6"/><path class="cls-21" d="M232.9 179.8l3.6 3.6h14.1v-3.6h-17.7"/><path class="cls-15" d="M233.1 180.1l.3-.3M235.3 182l2.1-2.2M238.2 183.4l3.6-3.6M242.5 183.4l3.6-3.6M246.6 183.4l3.6-3.6"/><path class="cls-21" d="M232.9 179.8l3.6 3.6h14.1v-3.6h-17.7"/><path class="cls-15" d="M233.1 180.1l.3-.3M235.3 182l2.1-2.2M238.2 183.4l3.6-3.6M242.5 183.4l3.6-3.6M246.6 183.4l3.6-3.6"/><path class="cls-17" d="M250.6 179.8h-17.7M250.6 183.4h-14.1M250.6 183.4h-14.1M250.6 179.8h-17.7"/><path class="cls-21" d="M315.7 249.4v4.4H375v-4.4h-59.3"/><path class="cls-15" d="M315.9 250.4l.7-1M316.6 253.8l4.4-4.4M320.7 253.8l4.3-4.4M325 253.8l4.4-4.4M329.4 253.8l4.3-4.4M333.7 253.8l4.3-4.4M337.8 253.8l4.3-4.4M342.1 253.8l4.3-4.4M346.4 253.8l4.3-4.4M350.5 253.8l4.3-4.4M354.8 253.8l4.3-4.4M359.1 253.8l4.3-4.4M363.4 253.8l4.4-4.4M367.5 253.8l4.3-4.4M371.8 253.8l3.4-3.4"/><path class="cls-21" d="M315.7 249.4v4.4H375v-4.4h-59.3"/><path class="cls-15" d="M315.9 250.4l.7-1M316.6 253.8l4.4-4.4M320.7 253.8l4.3-4.4M325 253.8l4.4-4.4M329.4 253.8l4.3-4.4M333.7 253.8l4.3-4.4M337.8 253.8l4.3-4.4M342.1 253.8l4.3-4.4M346.4 253.8l4.3-4.4M350.5 253.8l4.3-4.4M354.8 253.8l4.3-4.4M359.1 253.8l4.3-4.4M363.4 253.8l4.4-4.4M367.5 253.8l4.3-4.4M371.8 253.8l3.4-3.4"/><path class="cls-17" d="M375 249.4h-59.3M375 253.8h-59.3M375 253.8h-59.3M375 249.4h-59.3M401.6 253.8v-4.4"/><path class="cls-16" d="M399.7 249.4v4.4M377.1 249.4v4.4"/><path class="cls-17" d="M401.6 249.4v4.4M375 249.4v4.4"/><path class="cls-15" d="M399.7 226.8c-12.4 0-22.7 10.2-22.7 22.7M399.7 249.4v-22.5"/><path class="cls-21" d="M315.7 194.2v4.4H375v-4.4h-59.3"/><path class="cls-15" d="M315.9 195l.7-.8M316.6 198.6l4.4-4.4M320.7 198.6l4.3-4.4M325 198.6l4.4-4.4M329.4 198.6l4.3-4.4M333.4 198.6l4.4-4.4M337.8 198.6l4.3-4.4M342.1 198.6l4.3-4.4M346.2 198.6l4.3-4.4M350.5 198.6l4.3-4.4M354.8 198.6l4.3-4.4M359.1 198.6l4.3-4.4M363.2 198.6l4.3-4.4M367.5 198.6l4.3-4.4M371.8 198.6l3.4-3.4"/><path class="cls-21" d="M315.7 194.2v4.4H375v-4.4h-59.3"/><path class="cls-15" d="M315.9 195l.7-.8M316.6 198.6l4.4-4.4M320.7 198.6l4.3-4.4M325 198.6l4.4-4.4M329.4 198.6l4.3-4.4M333.4 198.6l4.4-4.4M337.8 198.6l4.3-4.4M342.1 198.6l4.3-4.4M346.2 198.6l4.3-4.4M350.5 198.6l4.3-4.4M354.8 198.6l4.3-4.4M359.1 198.6l4.3-4.4M363.2 198.6l4.3-4.4M367.5 198.6l4.3-4.4M371.8 198.6l3.4-3.4"/><path class="cls-17" d="M375 194.2h-59.3M375 198.6h-59.3M375 198.6h-59.3M375 194.2h-59.3M401.6 198.6v-4.4"/><path class="cls-16" d="M399.7 194.2v4.4M377.1 194.2v4.4"/><path class="cls-17" d="M401.6 194.2v4.4M375 194.2v4.4"/><path class="cls-15" d="M377 198.5c0 12.4 10.2 22.7 22.7 22.7M399.7 198.6v22.5"/><path class="cls-17" d="M301.5 382.2h4.1"/><path class="cls-21" d="M301.5 354.6h4.1l-4.1-4.1v4.1"/><path class="cls-15" d="M301.8 353.6l1.4-1.4M305.1 354.6l.3-.3"/><path class="cls-21" d="M301.5 354.6h4.1l-4.1-4.1v4.1"/><path class="cls-15" d="M301.8 353.6l1.4-1.4M305.1 354.6l.3-.3"/><path class="cls-17" d="M301.5 350.5v4.1M301.5 350.5v4.1"/><path class="cls-16" d="M301.5 357h4.1M301.5 379.8h4.1"/><path class="cls-17" d="M301.5 354.6h4.1M301.5 382.2h4.1"/><path class="cls-15" d="M305.7 379.7c12.4 0 22.7-10.2 22.7-22.7M305.6 357h22.8"/><path class="cls-16" d="M305.6 248.7h3.1"/><path class="cls-21" d="M200.2 387.2l-1.4 8.6-5-.9 2.1-12.7h4.3v5"/><path class="cls-15" d="M200.5 382.4l-.3-.2M200.5 386.5l-4.3-4.3M200 389.8l-4.6-4.3M199.3 393.4l-4.3-4.5M197.6 395.6l-3.4-3.4M198.6 395.8l.4-.4M195.2 395.1l4.6-4.8M194.5 391.8l6-5.8M195.2 387l4.8-4.8M195.9 382.2h.3"/><path class="cls-17" d="M200.2 387.2l-1.4 8.6-5-.9 2.1-12.7h4.3v5z"/><path class="cls-21" d="M102.8 304.6l-3.4-.9-.9 2.9 4.3-2"/><path class="cls-15" d="M102.8 304.6l-.2-.2M99.9 306.1l-.9-1M99.9 306.1l1.7-1.9"/><path class="cls-21" d="M53.1 240.1l5.8-10.3H43.5v10.3h9.6"/><path class="cls-15" d="M57.9 231.9l-2.1-2.1M56.5 234.3l-4.8-4.5M55 237l-7.2-7.2M53.6 239.6l-9.8-9.8M50 240.1l-6.2-6.5M46.2 240.1l-2.4-2.4M49.5 240.1l8.4-8.4M45.4 240.1l10.4-10.3M43.8 237.9l8.1-8.1M43.8 233.8l4-4M43.8 230v-.2"/><path class="cls-21" d="M53.1 240.1l5.8-10.3H43.5v10.3h9.6"/><path class="cls-15" d="M57.9 231.9l-2.1-2.1M56.5 234.3l-4.8-4.5M55 237l-7.2-7.2M53.6 239.6l-9.8-9.8M50 240.1l-6.2-6.5M46.2 240.1l-2.4-2.4M49.5 240.1l8.4-8.4M45.4 240.1l10.4-10.3M43.8 237.9l8.1-8.1M43.8 233.8l4-4M43.8 230v-.2"/><path class="cls-17" d="M43.5 240.1h9.6M43.5 229.8h15.4M43.5 229.8h15.4M43.5 240.1h9.6"/><path class="cls-16" d="M10.9 238.6h29.5"/><path class="cls-1" d="M10.9 229.8h29.5"/><path class="cls-16" d="M39.9 229.8h.5"/><path class="cls-21" d="M7.8 229.8h3.1v8.8H7.8"/><path class="cls-15" d="M11.1 233.1L8 230M11.1 237.2L8 234.1M8.5 238.6l-.5-.7M10.9 238.6l.2-.2M8 237.7l3.1-3.1M8 233.6l3.1-3.1"/><path class="cls-21" d="M43.5 229.8h-3.1v8.8h3.1"/><path class="cls-15" d="M43.8 233.6l-3.2-3.1M43.8 237.7l-3.2-3.1M43 238.6l.8-.7M40.6 237l3.2-3.2M40.6 233.1l3.2-3.1"/><path class="cls-17" d="M10.9 229.8v8.8M40.4 229.8v8.8M10.9 229.8v8.8M7.8 229.8h3.1M40.4 229.8v8.8M43.5 229.8h-3.1M7.8 240.1v-1.5M43.5 240.1v-1.5M7.8 229.8h3.1M43.5 229.8h-3.1M10.9 238.6H7.8M40.4 238.6h3.1"/><path class="cls-15" d="M357.3 387.1v-1.9c0-.6.2-1.2.3-1.8.1-.6.3-1.2.5-1.8l.6-1.8c.2-.6.5-1.1.8-1.7.3-.5.6-1.1 1-1.6.3-.5.7-1 1.1-1.5.4-.5.8-.9 1.3-1.4.4-.4.9-.9 1.4-1.3.5-.4 1-.8 1.5-1.1.5-.3 1.1-.7 1.6-1 .5-.3 1.1-.6 1.7-.8l1.8-.6c.6-.2 1.2-.3 1.8-.5l1.8-.3h1.9M376.4 368.2v19M357.2 387.2v-1.4M357.2 384.3l-.2-.9M357 383.4l-.3-.5"/><path class="cls-10" d="M356.5 381.7l-.7-1.7"/><path class="cls-15" d="M355.3 378.8l-.3-.7M355 378.1l-.4-.5"/><path class="cls-11" d="M354.1 376.6l-1.2-1.4"/><path class="cls-15" d="M351.9 374l-.2-.2M351.7 373.8l-1-.8M349.8 372.1l-1-.7"/><path class="cls-19" d="M348.8 371.4l-1.4-1"/><path class="cls-15" d="M347.4 370.4l-1.5-.5M344.7 369.2l-.9-.2M343.8 369l-.5-.3"/><path class="cls-10" d="M342.1 368.5l-1.9-.3"/><path class="cls-15" d="M339 368.2h-.8"/><path class="cls-6" d="M338.2 368.2v19"/><path class="cls-15" d="M338.2 386.7v.5M357.3 66.4v1.9c0 .6.2 1.2.3 1.8.1.6.3 1.2.5 1.8l.6 1.8c.2.6.5 1.1.8 1.7.3.5.6 1.1 1 1.6s.7 1 1.1 1.5c.4.5.8.9 1.3 1.4.4.4.9.9 1.4 1.3.5.4 1 .8 1.5 1.1.5.3 1.1.7 1.6 1 .5.3 1.1.6 1.7.8l1.8.6c.6.2 1.2.3 1.8.5l1.8.3h1.9M376.4 85.3v-19M357.4 66.3l-.2 1.5M357.2 69.2l-.2 1M357 70.2l-.3.4"/><path class="cls-10" d="M356.5 71.8l-.5 2"/><path class="cls-15" d="M355.5 74.7l-.5.7M355 75.4l-.2.5"/><path class="cls-12" d="M354.1 76.9l-1 1.4"/><path class="cls-15" d="M352.2 79.3l-.5.5M351.7 79.8l-.5.4"/><path class="cls-5" d="M350.5 81l-1.7 1.2"/><path class="cls-15" d="M347.8 82.9l-.4.2M347.4 83.1l-.8.3"/><path class="cls-11" d="M345.7 83.8l-1.9.8"/><path class="cls-15" d="M342.6 84.8l-.5.2M342.1 85h-1"/><path class="cls-9" d="M340.2 85.3h-2"/><path class="cls-6" d="M338.2 85.3v-19"/><path class="cls-15" d="M338.2 66.8v-.5M150.9 66.4v1.9c0 .6-.2 1.2-.3 1.8-.1.6-.3 1.2-.5 1.8l-.6 1.8c-.2.6-.5 1.1-.8 1.7-.3.5-.6 1.1-1 1.6-.3.5-.7 1-1.1 1.5-.4.5-.8.9-1.3 1.4-.4.4-.9.9-1.4 1.3-.5.4-1 .8-1.5 1.1-.5.3-1.1.7-1.6 1-.5.3-1.1.6-1.7.8l-1.8.6c-.6.2-1.2.3-1.8.5l-1.8.3h-1.9M131.8 85.3v-19M151 66.3v1.5M151 69.2l.3 1M151.3 70.2l.2.4"/><path class="cls-10" d="M151.8 71.8l.7 1.7"/><path class="cls-15" d="M153 74.7l.2.7M153.2 75.4l.5.5"/><path class="cls-11" d="M154.2 76.9l1.2 1.4"/><path class="cls-15" d="M156.3 79.5l.3.3M156.6 79.8l.9.7M158.5 81.4l.9.8"/><path class="cls-19" d="M159.4 82.2l1.5.9"/><path class="cls-15" d="M160.9 83.1l1.4.5M163.5 84.3l1 .3M164.5 84.6l.5.2"/><path class="cls-10" d="M166.2 85l1.9.3"/><path class="cls-15" d="M169.3 85.3h.7"/><path class="cls-6" d="M170 85.3v-19"/><path class="cls-15" d="M170 66.8v-.5M284.2 367.1c-11 0-20.1 9.1-20.1 20.1M284.2 367v20.2"/><path class="cls-6" d="M243.9 367l3.9.5 3.8 1.2 3.6 1.9 2.9 2.4 2.6 3.2 1.7 3.3 1.2 3.9.5 3.8"/><path class="cls-13" d="M243.9 367v20.2"/><path class="cls-15" d="M224.1 86.5c11 0 20.1-9.1 20.1-20.1M224 86.5V66.3"/><path class="cls-6" d="M264.3 86.5l-3.8-.5-3.9-1-3.6-1.9-2.8-2.4-2.7-3.1-1.7-3.6-1.2-3.6-.4-4.1"/><path class="cls-13" d="M264.3 86.5V66.3"/><path class="cls-15" d="M179.6 394.4l16.8 2.6M193.6 413.9c-.5 0-1.1-.2-1.6-.4-.5-.1-1.1-.3-1.6-.5s-1-.4-1.5-.7c-.5-.2-1-.5-1.5-.8-.5-.3-.9-.6-1.4-1-.4-.3-.9-.7-1.3-1.1l-1.2-1.2c-.4-.4-.7-.9-1-1.3-.3-.5-.6-.9-.9-1.4-.3-.5-.5-1-.8-1.5-.2-.5-.4-1-.6-1.6s-.3-1.1-.5-1.6c-.1-.5-.2-1.1-.3-1.6 0-.6-.1-1.1-.1-1.7v-1.7c0-.6.1-1.1.2-1.7"/><path class="cls-8" d="M168.3 408.8h-2.1"/><path class="cls-15" d="M166.6 408.8h-.4"/><path class="cls-8" d="M166.2 408.8l-2.2.5"/><path class="cls-15" d="M164.5 409.3h-.5"/><path class="cls-8" d="M164 409.3l-2.2.5"/><path class="cls-15" d="M162.3 409.8h-.5M161.8 409.8l-1.2.4"/><path class="cls-8" d="M159.9 410.5l-2.1.9"/><path class="cls-15" d="M157.8 411.4l-.8.5"/><path class="cls-8" d="M156.1 412.6l-1.9 1.2"/><path class="cls-15" d="M154.6 413.4l-.4.4"/><path class="cls-8" d="M154.2 413.8l-1.7 1.5"/><path class="cls-15" d="M153 414.8l-.5.5"/><path class="cls-8" d="M152.5 415.3L151 417"/><path class="cls-15" d="M151.5 416.5l-.5.5M151 417l-.7.9"/><path class="cls-8" d="M149.8 418.6l-1.2 2"/><path class="cls-15" d="M149.1 420.1l-.5.5"/><path class="cls-8" d="M148.6 420.6l-.9 2.1"/><path class="cls-15" d="M147.7 422.7l-.3 1"/><path class="cls-8" d="M147 424.6l-.5 2.2"/><path class="cls-15" d="M146.5 426.3v.5"/><path class="cls-8" d="M146.5 426.8l-.3 2.2"/><path class="cls-15" d="M146.2 428.5v.5"/><path class="cls-8" d="M146.2 429l-.2 2.1"/><path class="cls-15" d="M146 430.6v.5"/><path class="cls-6" d="M168.3 408.8v22.3"/><path class="cls-15" d="M168.3 430.6v.5M146 431.2c0-.7 0-1.5-.1-2.2 0-.7-.2-1.5-.3-2.2-.1-.7-.3-1.4-.5-2.1-.2-.7-.5-1.4-.7-2.1-.3-.7-.6-1.3-.9-2-.3-.6-.7-1.3-1.1-1.9-.4-.6-.8-1.2-1.3-1.8-.5-.6-1-1.1-1.5-1.6s-1.1-1-1.6-1.5c-.6-.5-1.2-.9-1.8-1.3-.6-.4-1.2-.8-1.9-1.1-.6-.3-1.3-.7-2-.9-.7-.3-1.4-.5-2.1-.7-.7-.2-1.4-.4-2.1-.5-.7-.1-1.4-.3-2.2-.3-.7 0-1.5-.1-2.2-.1M123.7 408.8v22.3"/><path class="cls-22" d="M336.8 382.2v14.6h-51.1v-14.6h51.1"/><path class="cls-21" d="M336.8 396.8v-3.4h-51.1v3.4h51.1"/><path class="cls-15" d="M285.9 395.6l1 1.2M287.6 393.4l3.4 3.4M291.7 393.4l3.3 3.4M295.5 393.4l3.4 3.4M299.6 393.4l3.4 3.4M303.7 393.4l3.3 3.4M307.8 393.4l3.3 3.4M311.6 393.4l3.4 3.4M315.7 393.4l3.3 3.4M319.8 393.4l3.3 3.4M323.6 393.4l3.4 3.4M327.7 393.4l3.3 3.4M331.8 393.4l3.3 3.4M335.6 393.4l1.4 1.2"/><path class="cls-21" d="M336.8 393.4v-.4h-51.1v.4h51.1M336.8 393v-5.8h-51.1v5.8h51.1"/><path class="cls-15" d="M286.9 387.2v5.8M288.3 387.2v5.8M289.8 387.2v5.8M291.2 387.2v5.8M292.6 387.2v5.8M294.1 387.2v5.8M295.5 387.2v5.8M297 387.2v5.8M298.4 387.2v5.8M299.6 387.2v5.8M301 387.2v5.8M302.5 387.2v5.8M303.9 387.2v5.8M305.4 387.2v5.8M306.8 387.2v5.8M308.2 387.2v5.8M309.7 387.2v5.8M311.1 387.2v5.8M312.6 387.2v5.8M313.8 387.2v5.8M315.2 387.2v5.8M316.6 387.2v5.8M318.1 387.2v5.8M319.5 387.2v5.8M321 387.2v5.8M322.4 387.2v5.8M323.8 387.2v5.8M325.3 387.2v5.8M326.7 387.2v5.8M328.2 387.2v5.8M329.4 387.2v5.8M330.8 387.2v5.8M332.2 387.2v5.8M333.7 387.2v5.8M335.1 387.2v5.8M336.6 387.2v5.8"/><path class="cls-21" d="M336.8 387.2v-5h-51.1v5h51.1"/><path class="cls-15" d="M337 382.6l-.4-.4M337 386.7l-4.5-4.5M333.4 387.2l-5-5M329.4 387.2l-5.1-5M325.5 387.2l-5-5M321.4 387.2l-5-5M317.4 387.2l-5.1-5M313.5 387.2l-5-5M309.4 387.2l-5-5M305.4 387.2l-5.1-5M301.5 387.2l-5-5M297.4 387.2l-5-5M293.4 387.2l-5.1-5M289.3 387.2l-3.4-3.6M335.4 387.2l1.6-1.7M331.3 387.2l5-5M327.4 387.2l5.1-5M323.4 387.2l5-5M319.3 387.2l5-5M315.2 387.2l5-5M311.4 387.2l5-5M307.3 387.2l5-5M303.2 387.2l5-5M299.4 387.2l5-5M295.3 387.2l5-5M291.2 387.2l5-5M287.4 387.2l5-5M285.9 384.6l2.4-2.4"/><path class="cls-17" d="M336.8 393.4h-51.1M336.8 396.8h-51.1"/><path class="cls-15" d="M336.8 387.2h-51.1M336.8 393h-51.1"/><path class="cls-17" d="M336.8 382.2h-51.1M336.8 387.2h-51.1"/><path class="cls-16" d="M336.8 396.8h-51.1M336.8 382.2h-51.1"/><path class="cls-22" d="M408.8 387.2l-7.2-5h-24v14.6h31.2v-9.6"/><path class="cls-21" d="M408.8 396.8v-3.4h-31.2v3.4h31.2"/><path class="cls-15" d="M377.8 395.4l1.5 1.4M379.8 393.4l3.3 3.4M383.8 393.4l3.4 3.4M387.9 393.4l3.4 3.4M391.8 393.4l3.3 3.4M395.8 393.4l3.4 3.4M399.9 393.4l3.4 3.4M403.8 393.4l3.3 3.4M407.8 393.4l1.2 1"/><path class="cls-21" d="M408.8 393.4v-.4h-31.2v.4h31.2M408.8 393v-5.8h-31.2v5.8h31.2"/><path class="cls-15" d="M379 387.2v5.8M380.5 387.2v5.8M381.9 387.2v5.8M383.4 387.2v5.8M384.8 387.2v5.8M386.2 387.2v5.8M387.7 387.2v5.8M388.9 387.2v5.8M390.3 387.2v5.8M391.8 387.2v5.8M393.2 387.2v5.8M394.6 387.2v5.8M396.1 387.2v5.8M397.5 387.2v5.8M399 387.2v5.8M400.4 387.2v5.8M401.8 387.2v5.8M403.3 387.2v5.8M404.5 387.2v5.8M405.9 387.2v5.8M407.4 387.2v5.8M408.8 387.2v5.8"/><path class="cls-21" d="M408.8 387.2l-7.2-5h-24v5h31.2"/><path class="cls-15" d="M405.7 387.2l-5.1-5M401.6 387.2l-5-5M397.5 387.2l-5-5M393.7 387.2l-5.1-5M389.6 387.2l-5-5M385.5 387.2l-5-5M381.7 387.2l-3.9-3.8M407.6 387.2l.5-.5M403.5 387.2l2.2-2.2M399.4 387.2l3.9-3.8M395.4 387.2l5-5M391.5 387.2l5.1-5M387.4 387.2l5.1-5M383.4 387.2l5-5M379.5 387.2l5.1-5M377.8 384.8l2.7-2.6"/><path class="cls-17" d="M408.8 393.4h-31.2M408.8 396.8h-31.2"/><path class="cls-15" d="M408.8 387.2h-31.2M408.8 393h-31.2"/><path class="cls-17" d="M401.6 382.2h-24M408.8 387.2h-31.2"/><path class="cls-16" d="M408.8 396.8h-31.2M401.6 382.2h-24"/><path class="cls-17" d="M285.7 387.2v-5"/><path class="cls-16" d="M375.9 389.6v7.2h3.4v1.9h-43.9v-1.9h3.3v-7.2"/><path class="cls-1" d="M377.6 382.2h-40.8"/><path class="cls-16" d="M337.3 382.2h-.5"/><path class="cls-17" d="M375.9 396.8h3.4M338.7 396.8h-3.3"/><path class="cls-16" d="M336.8 387.2h40.8v2.4h-40.8zM374 389.6v-2.4M340.6 389.6v-2.4M377.6 387.2v2.4M359.4 387.2v2.4M374 387.2v2.4M355.3 387.2v2.4M359.4 387.2v2.4M340.6 387.2v2.4M355.3 387.2v2.4M336.8 387.2v2.4"/><path class="cls-21" d="M377.7 392.9h-1.8v-3.4h1.8"/><path class="cls-15" d="M376.2 389.6v3.4M377.6 389.6v3.4M377.7 392.9h-1.8v-3.4h1.8"/><path class="cls-17" d="M377.6 387.2v-5"/><path class="cls-21" d="M377.6 396.8h-1.7v-3.4h1.7"/><path class="cls-15" d="M376.2 393.7l1.6 1.7"/><path class="cls-17" d="M377.6 396.8h-1.7v-3.4h1.7M375.9 393.4v-3.8"/><path class="cls-21" d="M336.9 392.9h1.8v-3.4h-1.8"/><path class="cls-15" d="M338 389.6v3.4M336.9 392.9h1.8v-3.4h-1.8"/><path class="cls-17" d="M336.8 387.2v-5"/><path class="cls-21" d="M336.8 396.8h1.9v-3.4h-1.9"/><path class="cls-15" d="M337 394.6l2 2"/><path class="cls-17" d="M336.8 396.8h1.9v-3.4h-1.9M338.7 393.4v-3.8"/><path class="cls-22" d="M377.6 71.4h24l7.2-5.1v-9.6h-31.2v14.7"/><path class="cls-21" d="M377.6 56.7v3.4h31.2v-3.4h-31.2"/><path class="cls-15" d="M377.8 58.6l1.5 1.5M379.8 56.7l3.3 3.4M383.8 56.7l3.4 3.4M387.9 56.7l3.4 3.4M391.8 56.7l3.3 3.4M395.8 56.7l3.4 3.4M399.9 56.7l3.4 3.4M404 56.7l3.4 3.4M407.8 56.7l1.2 1"/><path class="cls-21" d="M377.6 60.1v.7h31.2v-.7h-31.2"/><path class="cls-21" d="M377.6 60.8v5.5h31.2v-5.5h-31.2"/><path class="cls-15" d="M408.8 66.3v-5.5M407.4 66.3v-5.5M405.9 66.3v-5.5M404.5 66.3v-5.5M403.3 66.3v-5.5M401.8 66.3v-5.5M400.4 66.3v-5.5M399 66.3v-5.5M397.5 66.3v-5.5M396.1 66.3v-5.5M394.6 66.3v-5.5M393.2 66.3v-5.5M391.8 66.3v-5.5M390.3 66.3v-5.5M388.9 66.3v-5.5M387.7 66.3v-5.5M386.2 66.3v-5.5M384.8 66.3v-5.5M383.4 66.3v-5.5M381.9 66.3v-5.5M380.5 66.3v-5.5M379 66.3v-5.5"/><path class="cls-21" d="M377.6 71.4h24l7.2-5.1h-31.2v5.1"/><path class="cls-15" d="M406.9 67.8l-1.5-1.5M404.5 69.4l-3.1-3.1M402.1 71.1l-4.6-4.8M398.5 71.4l-5.1-5.1M394.4 71.4l-5-5.1M390.6 71.4l-5.1-5.1M386.5 71.4l-5.1-5.1M382.4 71.4l-4.6-4.8M378.3 71.4l-.5-.8M404.7 69.2l2.9-2.9M398.7 71.4l5.1-5.1M394.6 71.4l5.1-5.1M390.6 71.4l5-5.1M386.7 71.4l5.1-5.1M382.6 71.4l5.1-5.1M378.6 71.4l5-5.1M377.8 68.2l1.7-1.9"/><path class="cls-17" d="M377.6 60.1h31.2M377.6 56.7h31.2"/><path class="cls-15" d="M377.6 66.3h31.2M377.6 60.8h31.2"/><path class="cls-17" d="M377.6 71.4h24M377.6 66.3h31.2"/><path class="cls-16" d="M377.6 56.7h31.2M377.6 71.4h24"/><path class="cls-22" d="M285.7 71.4V56.7h51.1v14.7h-51.1"/><path class="cls-21" d="M285.7 56.7v3.4h51.1v-3.4h-51.1"/><path class="cls-15" d="M285.9 58.9l1 1.2M287.6 56.7l3.4 3.4M291.7 56.7l3.3 3.4M295.8 56.7l3.3 3.4M299.6 56.7l3.4 3.4M303.7 56.7l3.3 3.4M307.8 56.7l3.3 3.4M311.6 56.7l3.4 3.4M315.7 56.7l3.3 3.4M319.8 56.7l3.3 3.4M323.6 56.7l3.4 3.4M327.7 56.7l3.3 3.4M331.8 56.7l3.3 3.4M335.8 56.7l1.2 1.2"/><path class="cls-21" d="M285.7 60.1v.7h51.1v-.7h-51.1"/><path class="cls-21" d="M285.7 60.8v5.5h51.1v-5.5h-51.1"/><path class="cls-15" d="M336.6 66.3v-5.5M335.1 66.3v-5.5M333.7 66.3v-5.5M332.2 66.3v-5.5M330.8 66.3v-5.5M329.4 66.3v-5.5M328.2 66.3v-5.5M326.7 66.3v-5.5M325.3 66.3v-5.5M323.8 66.3v-5.5M322.4 66.3v-5.5M321 66.3v-5.5M319.5 66.3v-5.5M318.1 66.3v-5.5M316.6 66.3v-5.5M315.2 66.3v-5.5M313.8 66.3v-5.5M312.6 66.3v-5.5M311.1 66.3v-5.5M309.7 66.3v-5.5M308.2 66.3v-5.5M306.8 66.3v-5.5M305.4 66.3v-5.5M303.9 66.3v-5.5M302.5 66.3v-5.5M301 66.3v-5.5M299.6 66.3v-5.5M298.4 66.3v-5.5M297 66.3v-5.5M295.5 66.3v-5.5M294.1 66.3v-5.5M292.6 66.3v-5.5M291.2 66.3v-5.5M289.8 66.3v-5.5M288.3 66.3v-5.5M286.9 66.3v-5.5"/><path class="cls-21" d="M285.7 66.3v5.1h51.1v-5.1h-51.1"/><path class="cls-15" d="M337 69.9l-3.8-3.6M334.4 71.4l-5-5.1M330.3 71.4l-5-5.1M326.2 71.4l-5-5.1M322.4 71.4l-5-5.1M318.3 71.4l-5-5.1M314.2 71.4l-5-5.1M310.4 71.4l-5-5.1M306.3 71.4l-5-5.1M302.2 71.4l-5-5.1M298.2 71.4l-5.1-5.1M294.3 71.4l-5-5.1M290.2 71.4l-4.3-4.6M286.2 71.4l-.3-.5M334.4 71.4L337 69M330.6 71.4l5-5.1M326.5 71.4l5-5.1M322.4 71.4l5-5.1M318.6 71.4l5-5.1M314.5 71.4l5-5.1M310.4 71.4l5-5.1M306.3 71.4l5.1-5.1M302.5 71.4l5-5.1M298.4 71.4l5-5.1M294.3 71.4l5.1-5.1M290.5 71.4l5-5.1M286.4 71.4l5-5.1M285.9 68l1.5-1.7"/><path class="cls-17" d="M285.7 60.1h51.1M285.7 56.7h51.1"/><path class="cls-15" d="M285.7 66.3h51.1M285.7 60.8h51.1"/><path class="cls-17" d="M285.7 71.4h51.1M285.7 66.3h51.1"/><path class="cls-16" d="M285.7 56.7h51.1M285.7 71.4h51.1"/><path class="cls-17" d="M285.7 71.4v-5.1"/><path class="cls-16" d="M338.7 64.2v-7.5h-3.3v-1.9h43.9v1.9h-3.4v7.5"/><path class="cls-1" d="M336.8 71.4h40.8"/><path class="cls-16" d="M377.1 71.4h.5"/><path class="cls-17" d="M338.7 56.7h-3.3M375.9 56.7h3.4"/><path class="cls-16" d="M336.8 64.2h40.8v2.2h-40.8zM340.6 64.2v2.1M374 64.2v2.1M336.8 66.3v-2.1M355.3 66.3v-2.1M340.6 66.3v-2.1M359.4 66.3v-2.1M355.3 66.3v-2.1M374 66.3v-2.1M359.4 66.3v-2.1M377.6 66.3v-2.1"/><path class="cls-21" d="M336.9 60.7h1.8v3.4h-1.8"/><path class="cls-15" d="M338 64.2v-3.4M336.9 60.7h1.8v3.4h-1.8"/><path class="cls-17" d="M336.8 66.3v5.1"/><path class="cls-21" d="M336.8 56.7h1.9v3.4h-1.9"/><path class="cls-15" d="M337 57.9l2 1.9"/><path class="cls-17" d="M336.8 56.7h1.9v3.4h-1.9M338.7 60.1v4.1"/><path class="cls-21" d="M377.7 60.7h-1.8v3.4h1.8"/><path class="cls-15" d="M377.6 64.2v-3.4M376.2 64.2v-3.4M377.7 60.7h-1.8v3.4h1.8"/><path class="cls-17" d="M377.6 66.3v5.1"/><path class="cls-21" d="M377.6 56.7h-1.7v3.4h1.7"/><path class="cls-15" d="M376.2 57l1.6 1.6"/><path class="cls-17" d="M377.6 56.7h-1.7v3.4h1.7M375.9 60.1v4.1"/><path class="cls-15" d="M224.5 60.6h59.3v3.6h-59.3z"/><path class="cls-16" d="M213.7 56.7L217 1.8h74.2l3.4 54.9"/><path class="cls-16" d="M212 56.7L215.6 0h77l3.6 56.7M223.8 225.2v1M223.8 226.2l-.3.7M223.5 226.9v.9M223.5 227.8l-.2.3M222.8 229.3l-.2.2M221.8 230.7l-.4.5M221.4 231.2l-.8.7M220.6 231.9l-.7.5M219.9 232.4l-.2.2M218.5 233.1l-.5.3M216.8 233.6l-.7.2M216.1 233.8h-.7M215.4 233.8h-1M214.4 233.8l-.5-.2M212.5 233.4l-.3-.3M211 232.6l-.4-.2M210.6 232.4l-.8-.5M209.8 231.9l-.4-.7M209.4 231.2l-.5-.5M207.9 229.5v-.2M207.2 228.1v-.3M207.2 227.8l-.2-.9M207 226.9l-.3-.7M206.7 226.2v-1M207 224v-.5M207.4 222.3v-.2M207.4 222.1l.3-.7M207.7 221.4l.5-.8M208.2 220.6l.4-.7M209.8 218.7h.3M211 217.8h.3M211.3 217.8l.7-.3M212 217.5l.7-.5M212.7 217l1-.2M215.1 216.8h.3M215.4 216.8h.2M216.8 216.8h.2M217 216.8l.8.2M217.8 217l.7.5M218.5 217.5l.7.3M219.2 217.8l.2.2M220.6 218.7l.3.3M221.8 219.9l.5.7M222.3 220.6l.5.8M222.8 221.4l.2.7M223 222.1l.3.2M223.8 223.8v.2"/></g><g id="Mbel"><path class="cls-2" d="M220.6 301.3h22.8v50.9h-22.8zM253.3 350.8v-12.7M244.8 350.8h8.5M253.3 338.1h-8.5M253.3 333.1v-12.7M244.8 333.1h8.5M253.3 320.4h-8.5M253.3 315.4v-12.8M244.8 315.4h8.5M253.3 302.6h-8.5M210.8 350.8v-12.7M219.3 350.8h-8.5M210.8 338.1h8.5M210.8 333.1v-12.7M219.3 333.1h-8.5M210.8 320.4h8.5M210.8 315.4v-12.8M219.3 315.4h-8.5M210.8 302.6h8.5M317.4 177.2H374v15.6h-56.6zM317.4 106.4H374v45.4h-56.6zM123.9 381.2c-3.1 2.5-6 5.3-8.6 8.3-.6.7-.8 1.7-.4 2.6 1.4 2.9 3.5 5.4 6.2 7.1.8.5 1.8.5 2.6 0 3.3-2.2 6.5-4.7 9.4-7.4-.3-.7-.7-1.3-1.1-1.9-2.1-2.6-4.2-5-6.5-7.4-.5-.5-1-1-1.6-1.4h-.1"/><path class="cls-2" d="M122.8 381.5h-1c-1.5.4-2.9 1.1-4 2.1-1.5 1.4-2.9 2.9-4.1 4.6-.9 1.2-1.6 2.5-2.1 3.8-.3.8-.3 1.7.1 2.4 1.6 3 3.8 5.6 6.6 7.6.7.5 1.6.7 2.4.5 1.4-.3 2.8-.9 4.1-1.6 1.8-1 3.5-2.2 5.1-3.4 1.2-1 2.1-2.2 2.7-3.6.1-.3.2-.7.2-1M317.4 177.2H374v15.6h-56.6zM317.4 106.4H374v45.4h-56.6zM104.5 72.8h15.6v56.6h-15.6zM104.5 159.2h56.6v28.3h-56.6zM141.2 306.3h51.1v15.6h-51.1zM260.5 129h14.2v28.3h-14.2zM305.6 116.5h-19c-.1 0-.2.1-.3.2 0 0-.1.2-.2.3v25.5c0 .1.1.2.2.3 0 0 .2.1.3.2h19v-26.6M309.3 112h-22.7c-.1 0-.2.1-.3.2 0 0-.1.2-.2.3V115.9c0 .1.1.2.2.3 0 0 .2.1.3.2h23c.1 0 .2-.1.3-.2 0 0 .1-.2.2-.3V112.8v-.3c0-.1-.1-.2-.2-.3 0 0-.2-.1-.3-.2h-.3M305.6 143.2h4c.1 0 .2.1.3.2 0 0 .1.2.2.3v25.5c0 .1-.1.2-.2.3 0 0-.2.1-.3.2h-4M303.4 169.8v-53.3"/><path class="cls-2" d="M305.6 169.8h-19c-.1 0-.2-.1-.3-.2 0 0-.1-.2-.2-.3s0-.2 0-.3v-24.9-.3c0-.1.1-.2.2-.3 0 0 .2-.1.3-.2h19v26.6M309.3 174.4h-22.7c-.1 0-.2-.1-.3-.2 0 0-.1-.2-.2-.3V170.8v-.3c0-.1.1-.2.2-.3 0 0 .2-.1.3-.2h23c.1 0 .2.1.3.2 0 0 .1.2.2.3V173.9c0 .1-.1.2-.2.3 0 0-.2.1-.3.2h-.3M305.6 143.2h4c.1 0 .2-.1.3-.2 0 0 .1-.2.2-.3v-25.2-.3c0-.1-.1-.2-.2-.3 0 0-.2-.1-.3-.2h-4M263.8 116.5c-1.3-3.8-2.9-7.4-4.8-11-.4-.8-1.4-1.3-2.3-1.3-3.2.3-6.3 1.4-8.9 3.4-.8.6-1.1 1.5-.9 2.5.9 3.9 2.2 7.7 3.7 11.4h.1c.7 0 1.4-.2 2-.4 3.1-1 6.2-2.2 9.2-3.5.6-.3 1.2-.6 1.8-1"/><path class="cls-2" d="M263.9 115.4c.2-.3.3-.6.3-1 .2-1.5 0-3.1-.6-4.5-.8-1.9-1.7-3.7-2.9-5.4-.8-1.2-1.8-2.4-2.8-3.3-.6-.6-1.5-.8-2.3-.7-3.4.4-6.6 1.7-9.4 3.6-.7.5-1.2 1.2-1.3 2.1-.2 1.5-.1 2.9 0 4.4.3 2 .8 4 1.5 6 .5 1.4 1.4 2.7 2.5 3.8.3.2.6.4.9.5M165 120.3h7.4v11.3H165zM172.4 103.3h19.9v45.4h-19.9zM156.1 396.6h11.3v7.7h-11.3z"/><path class="cls-2" d="M139 404.2h45.4v19.9H139zM104.2 306.1h28.6V363h-28.6zM317.4 255.4H374v28.3h-56.6zM372.6 329.4h7.7v11.3h-7.7z"/><path class="cls-2" d="M380.2 312.3h19.9v45.4h-19.9zM317.4 298.2H333v56.6h-15.6zM199.5 103.3h10.8v56.9h-10.8z"/></g><g id="Text"><path d="M343.3 229.5h1.4c1.6 0 2.6 1 2.6 2.6s-.3 1.6-.8 2.1c-.5.4-1.1.6-1.9.6h-1.3v-5.3zm.7 4.8h.2c.9 0 1.3 0 1.7-.4.5-.4.7-1 .7-1.8 0-1.3-.7-2-1.9-2h-.7v4.2zM351.3 231.1v2.4c0 .5 0 .8-.4 1-.3.2-.6.4-1.1.4s-.8-.1-1.1-.4c-.2-.2-.4-.6-.4-1v-2.4h.6v2.3c0 .5.3.9.8.9s.5-.1.7-.3c.1-.1.2-.3.2-.6V231h.6zM354.3 232.1c0-.4-.3-.6-.7-.6s-.7.2-.7.5.2.4.8.6c.5.1.7.2.9.4.2.2.3.4.3.7 0 .6-.5 1.1-1.3 1.1s-1.3-.4-1.4-1.1h.6c0 .4.3.6.8.6s.7-.2.7-.5-.2-.5-.8-.6c-.8-.2-1.2-.6-1.2-1.1s.5-1.1 1.3-1.1 1.3.4 1.3 1.1h-.6zM359 234.3c-.4.4-.8.5-1.4.5-1.1 0-1.8-.8-1.8-1.9s.8-1.9 1.8-1.9 1 .2 1.3.6l-.4.4c-.3-.3-.6-.4-.9-.4-.7 0-1.2.6-1.2 1.4s.5 1.4 1.2 1.4.6-.1.9-.4l.4.4zM360.5 231.6c.3-.4.7-.6 1.1-.6s.7.1.9.3c.2.2.3.5.3 1v2.5h-.6v-2.4c0-.5-.2-.8-.7-.8s-.5.1-.7.3c-.2.2-.2.4-.2.7v2.2h-.6v-5.3h.6v2.2zM364.5 233.1c0 .3 0 .5.2.7.2.3.6.5 1 .5s.9-.2 1.1-.6l.5.2c-.3.6-.9 1-1.6 1-1.1 0-1.9-.8-1.9-1.9s.8-1.9 1.9-1.9 1.9.8 1.9 1.9v.2h-3.1zm2.4-.4c0-.3 0-.4-.2-.6-.2-.3-.6-.5-1-.5s-.8.2-1 .5c-.1.2-.2.3-.2.6h2.4zM343 242.6v-.5l2.8-3.7v3.6h.6v.6h-.6v1.2h-.6v-1.2h-2.1zm2.1-2.6l-1.5 2h1.5v-2zM348.1 243.4c0 .2-.2.4-.4.4s-.4-.2-.4-.4.2-.4.4-.4.4.2.4.4zM350.5 240.7c.2 0 .3-.1.5-.1.9 0 1.6.7 1.6 1.6s-.8 1.7-1.7 1.7-1.7-.8-1.7-1.7.1-.7.4-1.2l1.5-2.5h.7l-1.4 2.1zm-.7 1.5c0 .6.5 1.1 1.1 1.1s1.1-.5 1.1-1.1-.5-1.1-1.1-1.1-1.1.5-1.1 1.1zM355.8 240.1v.5c.3-.4.6-.6 1-.6s.8.2 1 .7c.3-.5.6-.7 1.2-.7s.7.1.9.4c.2.2.2.4.2 1v2.4h-.6v-2.2c0-.4 0-.6-.1-.7-.1-.2-.4-.3-.6-.3-.5 0-.8.4-.8 1v2.2h-.6v-2.2c0-.4 0-.5-.1-.7-.1-.2-.3-.3-.6-.3-.5 0-.9.4-.9 1v2.2h-.6v-3.7h.6zM363.4 241.3v.4h-2l1.2-1.6c.3-.5.4-.6.4-.8 0-.3-.2-.4-.5-.4s-.5.2-.5.6h-.4c0-.6.4-1 1-1s1 .3 1 .8-.1.5-.4.9l-.8 1.1h1.1z"/><g><path d="M225.9 11.5c1.1 0 1.7.5 1.7 1.4s-.1.6-.3.9c-.1.2-.3.2-.5.3.3 0 .4.1.6.2.3.2.4.6.4 1s-.2.9-.6 1.2c-.3.2-.7.3-1.3.3h-1.5v-5.3h1.5zm-.8 2.4h.7c.4 0 .7 0 .9-.2.2-.2.3-.4.3-.7s-.2-.6-.4-.8c-.2 0-.4-.1-.9-.1h-.6v1.8zm0 2.4h.7c.6 0 .8 0 1-.2.3-.1.4-.4.4-.8 0-.6-.4-.9-1.2-.9h-.8v1.8zM231.8 13.2h.6v3.7h-.6v-.7c-.4.6-.8.8-1.3.8-1 0-1.7-.8-1.7-1.9s.7-1.9 1.8-1.9 1 .2 1.3.7v-.6zm-2.1.9c-.2.3-.3.6-.3 1 0 .8.5 1.4 1.2 1.4s1.3-.6 1.3-1.4-.5-1.4-1.2-1.4-.7.1-.9.4zM233.8 16.9v-5.3h.6v5.3h-.6zM236.3 16.9h-.6v-5.3h.6v3.3l1.5-1.6h.8l-1.6 1.8 1.6 1.9h-.8l-1.5-1.6V17zM242.8 15c0 1.1-.8 1.9-1.9 1.9s-1.9-.8-1.9-1.9.8-1.9 1.9-1.9 1.9.8 1.9 1.9zm-3.1 0c0 .8.5 1.4 1.3 1.4s1.2-.6 1.2-1.4-.5-1.4-1.2-1.4-1.3.6-1.3 1.4zM244.5 13.2v.5c.3-.4.6-.6 1.1-.6s.6.1.9.3c.2.2.3.5.3 1v2.5h-.6v-2.4c0-.3 0-.5-.1-.6-.1-.2-.3-.2-.6-.2s-.5.1-.7.3c-.2.2-.2.4-.2.7v2.2h-.6v-3.7h.6zM225.4 22.8c.2 0 .3-.1.5-.1.9 0 1.6.7 1.6 1.6s-.8 1.7-1.7 1.7-1.7-.8-1.7-1.7.1-.7.4-1.2l1.5-2.5h.7l-1.4 2.1zm-.7 1.5c0 .6.5 1.1 1.1 1.1s1.1-.5 1.1-1.1-.5-1.1-1.1-1.1-1.1.5-1.1 1.1zM229.3 25.5c0 .2-.2.4-.4.4s-.4-.2-.4-.4.2-.4.4-.4.4.2.4.4zM233.6 24.3c0 .6-.1 1-.4 1.2-.3.3-.7.4-1.2.4s-1-.2-1.2-.5c-.3-.3-.4-.6-.4-1.4v-1.8c0-.7 0-1 .3-1.3.3-.3.7-.5 1.2-.5s.9.1 1.2.4c.3.3.4.6.4 1.2v2.1zm-2.5-.1c0 .6 0 .7.2.9.2.2.5.3.8.3s.6-.1.8-.4c.1-.2.2-.4.2-.8v-2c0-.4 0-.6-.3-.8-.2-.2-.4-.2-.7-.2s-.6.1-.8.4c-.1.2-.2.4-.2.8v1.8zM236.9 22.2v.5c.3-.4.6-.6 1-.6s.8.2 1 .7c.3-.5.6-.7 1.2-.7s.7.1.9.4c.2.2.2.4.2 1v2.4h-.6v-2.2c0-.4 0-.6-.1-.7-.1-.2-.4-.3-.6-.3-.5 0-.8.4-.8 1v2.2h-.6v-2.2c0-.4 0-.5-.1-.7-.1-.2-.3-.3-.6-.3-.5 0-.9.4-.9 1v2.2h-.6v-3.7h.6zM244.5 23.4v.4h-2l1.2-1.6c.3-.5.4-.6.4-.8 0-.3-.2-.4-.5-.4s-.5.2-.5.6h-.4c0-.6.4-1 1-1s1 .3 1 .8-.1.5-.4.9l-.8 1.1h1.1z"/></g><g><path d="M23.4 269.5v.6h-2.5v-5.3h.7v4.7h1.9zM25 265.4c0 .2-.2.4-.4.4s-.4-.2-.4-.4.2-.4.4-.4.4.2.4.4zm0 4.7h-.6v-3.7h.6v3.7zM27 270.1h-.6v-3.2h-.5v-.5h.5v-.5c0-.7.4-1.2 1-1.2h.2v.5c-.4 0-.6.2-.6.6v.5h.6v.5H27v3.2zM29.4 269.3c0 .2 0 .2.3.2h.3v.5h-.6c-.4 0-.6-.2-.6-.6v-2.6h-.5v-.5h.5v-1.2h.6v1.2h.6v.5h-.6v2.4z"/></g><g><path d="M203.2 242.5h2.1v.6h-2.1v1.8h2.1v.6h-2.8v-5.3h2.8v.6h-2.1v1.8zM207.1 241.8v.5c.3-.4.6-.6 1.1-.6s.6.1.9.3c.2.2.3.5.3 1v2.5h-.6v-2.4c0-.3 0-.5-.1-.6-.1-.2-.3-.2-.6-.2s-.5.1-.7.3c-.2.2-.2.4-.2.7v2.2h-.6v-3.7h.6zM211.3 244.7c0 .2 0 .2.3.2h.3v.5h-.6c-.4 0-.6-.2-.6-.6v-2.6h-.5v-.5h.5v-1.2h.6v1.2h.6v.5h-.6v2.4zM213.6 241.8v.6c.1-.3.2-.4.3-.5.2-.1.4-.2.7-.2h.1v.6h-.2c-.3 0-.6.2-.8.4-.2.2-.2.4-.2.9v1.9h-.6v-3.7h.6zM216 243.8c0 .3 0 .5.2.7.2.3.6.5 1 .5s.9-.2 1.1-.6l.5.2c-.3.6-.9 1-1.6 1-1.1 0-1.9-.8-1.9-1.9s.8-1.9 1.9-1.9 1.9.8 1.9 1.9v.2H216zm2.4-.4c0-.3 0-.4-.2-.6-.2-.3-.6-.5-1-.5s-.8.2-1 .5c-.1.2-.2.3-.2.6h2.4zm-.2-3.2l-.9 1.1h-.4l.7-1.1h.7zM220.5 243.8c0 .3 0 .5.2.7.2.3.6.5 1 .5s.9-.2 1.1-.6l.5.2c-.3.6-.9 1-1.6 1-1.1 0-1.9-.8-1.9-1.9s.8-1.9 1.9-1.9 1.9.8 1.9 1.9v.2h-3.1zm2.4-.4c0-.3 0-.4-.2-.6-.2-.3-.6-.5-1-.5s-.8.2-1 .5c-.1.2-.2.3-.2.6h2.4zM204.9 249.7h-1.7v1.4c.3-.1.5-.2.8-.2.9 0 1.6.7 1.6 1.7s-.8 1.8-1.8 1.8-1.3-.4-1.6-1.1l.6-.2c.1.2.2.3.3.4.2.2.5.3.8.3.6 0 1.1-.5 1.1-1.2s-.5-1.1-1.2-1.1-.8.2-1.2.5v-3h2.3v.6zM207.4 254.1c0 .2-.2.4-.4.4s-.4-.2-.4-.4.2-.4.4-.4.4.2.4.4zM211.5 253.9v.6h-3l1.9-2.7c.5-.8.7-1 .7-1.3 0-.5-.4-.8-.9-.8s-.7.2-.8.4v.6h-.6c0-1 .6-1.6 1.5-1.6s1.5.5 1.5 1.3-.2.8-.6 1.5l-1.4 2h1.9zM217.5 250.8v.5c.3-.4.6-.6 1-.6s.8.2 1 .7c.3-.5.6-.7 1.2-.7s.7.1.9.4c.2.2.2.4.2 1v2.4h-.6v-2.2c0-.4 0-.6-.1-.7-.1-.2-.4-.3-.6-.3-.5 0-.8.4-.8 1v2.2h-.6v-2.2c0-.4 0-.5-.1-.7-.1-.2-.3-.3-.6-.3-.5 0-.9.4-.9 1v2.2h-.6v-3.7h.6zM225.1 251.9v.4h-2l1.2-1.6c.3-.5.4-.6.4-.8 0-.3-.2-.4-.5-.4s-.5.2-.5.6h-.4c0-.6.4-1 1-1s1 .3 1 .8-.1.5-.4.9l-.8 1.1h1.1z"/></g><g><path d="M229.2 136.7h.7l-1.6 5.3h-.6l-1.2-4.2-1.2 4.2h-.6l-1.6-5.3h.7l1.2 4.1 1.2-4.1h.6l1.1 4.1 1.2-4.1zM234 140.2c0 1.1-.8 1.9-1.9 1.9s-1.9-.8-1.9-1.9.8-1.9 1.9-1.9 1.9.8 1.9 1.9zm-3.1 0c0 .8.5 1.4 1.3 1.4s1.2-.6 1.2-1.4-.5-1.4-1.2-1.4-1.3.6-1.3 1.4zM235.7 138.9c.3-.4.7-.6 1.1-.6s.7.1.9.3c.2.2.3.5.3 1v2.5h-.6v-2.4c0-.5-.2-.8-.7-.8s-.5.1-.7.3c-.2.2-.2.4-.2.7v2.2h-.6v-5.3h.6v2.2zM239.9 138.3v.5c.3-.4.6-.6 1.1-.6s.6.1.9.3c.2.2.3.5.3 1v2.5h-.6v-2.4c0-.3 0-.5-.1-.6-.1-.2-.3-.2-.6-.2s-.5.1-.7.3c-.2.2-.2.4-.2.7v2.2h-.6v-3.7h.6zM243.9 140.4c0 .3 0 .5.2.7.2.3.6.5 1 .5s.9-.2 1.1-.6l.5.2c-.3.6-.9 1-1.6 1-1.1 0-1.9-.8-1.9-1.9s.8-1.9 1.9-1.9 1.9.8 1.9 1.9v.2h-3.1zm2.4-.4c0-.3 0-.4-.2-.6-.2-.3-.6-.5-1-.5s-.8.2-1 .5c-.1.2-.2.3-.2.6h2.4zM248.7 138.3v.5c.3-.4.6-.6 1.1-.6s.6.1.9.3c.2.2.3.5.3 1v2.5h-.6v-2.4c0-.3 0-.5-.1-.6-.1-.2-.3-.2-.6-.2s-.5.1-.7.3c-.2.2-.2.4-.2.7v2.2h-.6v-3.7h.6zM223.9 147.4v-.6l1.8-1.2v5.4h-.6v-4.4l-1.2.8zM229.9 146.3h-1.7v1.4c.3-.1.5-.2.8-.2.9 0 1.6.7 1.6 1.7s-.8 1.8-1.8 1.8-1.3-.4-1.6-1.1l.6-.2c.1.2.2.3.3.4.2.2.5.3.8.3.6 0 1.1-.5 1.1-1.2s-.5-1.1-1.2-1.1-.8.2-1.2.5v-3h2.3v.6zM232.5 150.7c0 .2-.2.4-.4.4s-.4-.2-.4-.4.2-.4.4-.4.4.2.4.4zM234.8 147.9c.2 0 .3-.1.5-.1.9 0 1.6.7 1.6 1.6s-.8 1.7-1.7 1.7-1.7-.8-1.7-1.7.1-.7.4-1.2l1.5-2.5h.7l-1.4 2.1zm-.7 1.5c0 .6.5 1.1 1.1 1.1s1.1-.5 1.1-1.1-.5-1.1-1.1-1.1-1.1.5-1.1 1.1zM241 147.3v.5c.3-.4.6-.6 1-.6s.8.2 1 .7c.3-.5.6-.7 1.2-.7s.7.1.9.4c.2.2.2.4.2 1v2.4h-.6v-2.2c0-.4 0-.6-.1-.7-.1-.2-.4-.3-.6-.3-.5 0-.8.4-.8 1v2.2h-.6v-2.2c0-.4 0-.5-.1-.7-.1-.2-.3-.3-.6-.3-.5 0-.9.4-.9 1v2.2h-.6v-3.7h.6zM248.6 148.5v.4h-2l1.2-1.6c.3-.5.4-.6.4-.8 0-.3-.2-.4-.5-.4s-.5.2-.5.6h-.4c0-.6.4-1 1-1s1 .3 1 .8-.1.5-.4.9l-.8 1.1h1.1z"/></g><g><path d="M138.9 142.1v.6h-3.8l3-4.8h-2.7v-.6h3.8l-3 4.8h2.7zM140.7 137.9c0 .2-.2.4-.4.4s-.4-.2-.4-.4.2-.4.4-.4.4.2.4.4zm0 4.7h-.6v-3.7h.6v3.7zM142.6 138.9v.5c.3-.4.6-.6 1-.6s.8.2 1 .7c.3-.5.6-.7 1.2-.7s.7.1.9.4c.2.2.2.4.2 1v2.4h-.6v-2.2c0-.4 0-.6-.1-.7-.1-.2-.4-.3-.6-.3-.5 0-.8.4-.8 1v2.2h-.6v-2.2c0-.4 0-.5-.1-.7-.1-.2-.3-.3-.6-.3-.5 0-.9.4-.9 1v2.2h-.6v-3.7h.6zM148.9 138.9v.5c.3-.4.6-.6 1-.6s.8.2 1 .7c.3-.5.6-.7 1.2-.7s.7.1.9.4c.2.2.2.4.2 1v2.4h-.6v-2.2c0-.4 0-.6-.1-.7-.1-.2-.4-.3-.6-.3-.5 0-.8.4-.8 1v2.2h-.6v-2.2c0-.4 0-.5-.1-.7-.1-.2-.3-.3-.6-.3-.5 0-.9.4-.9 1v2.2h-.6v-3.7h.6zM155 141c0 .3 0 .5.2.7.2.3.6.5 1 .5s.9-.2 1.1-.6l.5.2c-.3.6-.9 1-1.6 1-1.1 0-1.9-.8-1.9-1.9s.8-1.9 1.9-1.9 1.9.8 1.9 1.9v.2H155zm2.4-.4c0-.3 0-.4-.2-.6-.2-.3-.6-.5-1-.5s-.8.2-1 .5c-.1.2-.2.3-.2.6h2.4zM159.8 138.9v.6c.1-.3.2-.4.3-.5.2-.1.4-.2.7-.2h.1v.6h-.2c-.3 0-.6.2-.8.4-.2.2-.2.4-.2.9v1.9h-.6v-3.7h.6zM135.8 148v-.6l1.8-1.2v5.4h-.6v-4.4l-1.2.8zM139.3 147v-.6h3l-1.6 2c.9 0 1.6.7 1.6 1.6s-.8 1.7-1.8 1.7-1.4-.5-1.6-1.3h.6c.1.4.5.7 1 .7s1.2-.5 1.2-1.1-.5-1.1-1.2-1.1-.4 0-.6.2l-.3-.2 1.5-1.9h-1.9zM144.3 151.3c0 .2-.2.4-.4.4s-.4-.2-.4-.4.2-.4.4-.4.4.2.4.4zM145.2 150.4v-.5l2.8-3.7v3.6h.6v.6h-.6v1.2h-.6v-1.2h-2.1zm2.1-2.6l-1.5 2h1.5v-2zM152.7 147.9v.5c.3-.4.6-.6 1-.6s.8.2 1 .7c.3-.5.6-.7 1.2-.7s.7.1.9.4c.2.2.2.4.2 1v2.4h-.6v-2.2c0-.4 0-.6-.1-.7-.1-.2-.4-.3-.6-.3-.5 0-.8.4-.8 1v2.2h-.6v-2.2c0-.4 0-.5-.1-.7-.1-.2-.3-.3-.6-.3-.5 0-.9.4-.9 1v2.2h-.6v-3.7h.6zM160.3 149.1v.4h-2l1.2-1.6c.3-.5.4-.6.4-.8 0-.3-.2-.4-.5-.4s-.5.2-.5.6h-.4c0-.6.4-1 1-1s1 .3 1 .8-.1.5-.4.9l-.8 1.1h1.1z"/></g><g><path d="M346.1 293.5v.6h-3.8l3-4.8h-2.7v-.6h3.8l-3 4.8h2.7zM347.9 289.4c0 .2-.2.4-.4.4s-.4-.2-.4-.4.2-.4.4-.4.4.2.4.4zm0 4.7h-.6v-3.7h.6v3.7zM349.8 290.4v.5c.3-.4.6-.6 1-.6s.8.2 1 .7c.3-.5.6-.7 1.2-.7s.7.1.9.4c.2.2.2.4.2 1v2.4h-.6v-2.2c0-.4 0-.6-.1-.7-.1-.2-.4-.3-.6-.3-.5 0-.8.4-.8 1v2.2h-.6v-2.2c0-.4 0-.5-.1-.7-.1-.2-.3-.3-.6-.3-.5 0-.9.4-.9 1v2.2h-.6v-3.7h.6zM356.1 290.4v.5c.3-.4.6-.6 1-.6s.8.2 1 .7c.3-.5.6-.7 1.2-.7s.7.1.9.4c.2.2.2.4.2 1v2.4h-.6v-2.2c0-.4 0-.6-.1-.7-.1-.2-.4-.3-.6-.3-.5 0-.8.4-.8 1v2.2h-.6v-2.2c0-.4 0-.5-.1-.7-.1-.2-.3-.3-.6-.3-.5 0-.9.4-.9 1v2.2h-.6v-3.7h.6zM362.2 292.4c0 .3 0 .5.2.7.2.3.6.5 1 .5s.9-.2 1.1-.6l.5.2c-.3.6-.9 1-1.6 1-1.1 0-1.9-.8-1.9-1.9s.8-1.9 1.9-1.9 1.9.8 1.9 1.9v.2h-3.1zm2.4-.4c0-.3 0-.4-.2-.6-.2-.3-.6-.5-1-.5s-.8.2-1 .5c-.1.2-.2.3-.2.6h2.4zM366.9 290.4v.6c.1-.3.2-.4.3-.5.2-.1.4-.2.7-.2h.1v.6h-.2c-.3 0-.6.2-.8.4-.2.2-.2.4-.2.9v1.9h-.6v-3.7h.6zM343 299.5v-.6l1.8-1.2v5.4h-.6v-4.4l-1.2.8zM346.2 301.9v-.5l2.8-3.7v3.6h.6v.6h-.6v1.2h-.6v-1.2h-2.1zm2.1-2.6l-1.5 2h1.5v-2zM351.4 302.7c0 .2-.2.4-.4.4s-.4-.2-.4-.4.2-.4.4-.4.4.2.4.4zM352.4 299.5v-.6l1.8-1.2v5.4h-.6v-4.4l-1.2.8zM359.3 299.4v.5c.3-.4.6-.6 1-.6s.8.2 1 .7c.3-.5.6-.7 1.2-.7s.7.1.9.4c.2.2.2.4.2 1v2.4h-.6v-2.2c0-.4 0-.6-.1-.7-.1-.2-.4-.3-.6-.3-.5 0-.8.4-.8 1v2.2h-.6v-2.2c0-.4 0-.5-.1-.7-.1-.2-.3-.3-.6-.3-.5 0-.9.4-.9 1v2.2h-.6v-3.7h.6zM366.9 300.6v.4h-2l1.2-1.6c.3-.5.4-.6.4-.8 0-.3-.2-.4-.5-.4s-.5.2-.5.6h-.4c0-.6.4-1 1-1s1 .3 1 .8-.1.5-.4.9l-.8 1.1h1.1z"/></g><g><path d="M346.5 127.1v.6h-3.8l3-4.8H343v-.6h3.8l-3 4.8h2.7zM348.3 122.9c0 .2-.2.4-.4.4s-.4-.2-.4-.4.2-.4.4-.4.4.2.4.4zm0 4.7h-.6v-3.7h.6v3.7zM350.2 123.9v.5c.3-.4.6-.6 1-.6s.8.2 1 .7c.3-.5.6-.7 1.2-.7s.7.1.9.4c.2.2.2.4.2 1v2.4h-.6v-2.2c0-.4 0-.6-.1-.7-.1-.2-.4-.3-.6-.3-.5 0-.8.4-.8 1v2.2h-.6v-2.2c0-.4 0-.5-.1-.7-.1-.2-.3-.3-.6-.3-.5 0-.9.4-.9 1v2.2h-.6v-3.7h.6zM356.5 123.9v.5c.3-.4.6-.6 1-.6s.8.2 1 .7c.3-.5.6-.7 1.2-.7s.7.1.9.4c.2.2.2.4.2 1v2.4h-.6v-2.2c0-.4 0-.6-.1-.7-.1-.2-.4-.3-.6-.3-.5 0-.8.4-.8 1v2.2h-.6v-2.2c0-.4 0-.5-.1-.7-.1-.2-.3-.3-.6-.3-.5 0-.9.4-.9 1v2.2h-.6v-3.7h.6zM362.6 126c0 .3 0 .5.2.7.2.3.6.5 1 .5s.9-.2 1.1-.6l.5.2c-.3.6-.9 1-1.6 1-1.1 0-1.9-.8-1.9-1.9s.8-1.9 1.9-1.9 1.9.8 1.9 1.9v.2h-3.1zm2.4-.4c0-.3 0-.4-.2-.6-.2-.3-.6-.5-1-.5s-.8.2-1 .5c-.1.2-.2.3-.2.6h2.4zM367.4 123.9v.6c.1-.3.2-.4.3-.5.2-.1.4-.2.7-.2h.1v.6h-.2c-.3 0-.6.2-.8.4-.2.2-.2.4-.2.9v1.9h-.6v-3.7h.6zM343.4 133v-.6l1.8-1.2v5.4h-.6v-4.4l-1.2.8zM346.9 132v-.6h3l-1.6 2c.9 0 1.6.7 1.6 1.6s-.8 1.7-1.8 1.7-1.4-.5-1.6-1.3h.6c.1.4.5.7 1 .7s1.2-.5 1.2-1.1-.5-1.1-1.2-1.1-.4 0-.6.2l-.3-.2 1.5-1.9h-1.9zM351.9 136.3c0 .2-.2.4-.4.4s-.4-.2-.4-.4.2-.4.4-.4.4.2.4.4zM355.9 136v.6h-3l1.9-2.7c.5-.8.7-1 .7-1.3 0-.5-.4-.8-.9-.8s-.7.2-.8.4v.6h-.6c0-1 .6-1.6 1.5-1.6s1.5.5 1.5 1.3-.2.8-.6 1.5l-1.4 2h1.9zM359.5 132.9v.5c.3-.4.6-.6 1-.6s.8.2 1 .7c.3-.5.6-.7 1.2-.7s.7.1.9.4c.2.2.2.4.2 1v2.4h-.6v-2.2c0-.4 0-.6-.1-.7-.1-.2-.4-.3-.6-.3-.5 0-.8.4-.8 1v2.2h-.6v-2.2c0-.4 0-.5-.1-.7-.1-.2-.3-.3-.6-.3-.5 0-.9.4-.9 1v2.2h-.6v-3.7h.6zM367.1 134.1v.4h-2l1.2-1.6c.3-.5.4-.6.4-.8 0-.3-.2-.4-.5-.4s-.5.2-.5.6h-.4c0-.6.4-1 1-1s1 .3 1 .8-.1.5-.4.9l-.8 1.1h1.1z"/></g><g><path d="M149.2 334.1v.6h-3.8l3-4.8h-2.7v-.6h3.8l-3 4.8h2.7zM151 329.9c0 .2-.2.4-.4.4s-.4-.2-.4-.4.2-.4.4-.4.4.2.4.4zm0 4.7h-.6v-3.7h.6v3.7zM152.9 330.9v.5c.3-.4.6-.6 1-.6s.8.2 1 .7c.3-.5.6-.7 1.2-.7s.7.1.9.4c.2.2.2.4.2 1v2.4h-.6v-2.2c0-.4 0-.6-.1-.7-.1-.2-.4-.3-.6-.3-.5 0-.8.4-.8 1v2.2h-.6v-2.2c0-.4 0-.5-.1-.7-.1-.2-.3-.3-.6-.3-.5 0-.9.4-.9 1v2.2h-.6v-3.7h.6zM159.2 330.9v.5c.3-.4.6-.6 1-.6s.8.2 1 .7c.3-.5.6-.7 1.2-.7s.7.1.9.4c.2.2.2.4.2 1v2.4h-.6v-2.2c0-.4 0-.6-.1-.7-.1-.2-.4-.3-.6-.3-.5 0-.8.4-.8 1v2.2h-.6v-2.2c0-.4 0-.5-.1-.7-.1-.2-.3-.3-.6-.3-.5 0-.9.4-.9 1v2.2h-.6v-3.7h.6zM165.3 333c0 .3 0 .5.2.7.2.3.6.5 1 .5s.9-.2 1.1-.6l.5.2c-.3.6-.9 1-1.6 1-1.1 0-1.9-.8-1.9-1.9s.8-1.9 1.9-1.9 1.9.8 1.9 1.9v.2h-3.1zm2.4-.4c0-.3 0-.4-.2-.6-.2-.3-.6-.5-1-.5s-.8.2-1 .5c-.1.2-.2.3-.2.6h2.4zM170.1 330.9v.6c.1-.3.2-.4.3-.5.2-.1.4-.2.7-.2h.1v.6h-.2c-.3 0-.6.2-.8.4-.2.2-.2.4-.2.9v1.9h-.6v-3.7h.6zM146.2 340v-.6l1.8-1.2v5.4h-.6v-4.4l-1.2.8zM149.7 339v-.6h3l-1.6 2c.9 0 1.6.7 1.6 1.6s-.8 1.7-1.8 1.7-1.4-.5-1.6-1.3h.6c.1.4.5.7 1 .7s1.2-.5 1.2-1.1-.5-1.1-1.2-1.1-.4 0-.6.2l-.3-.2 1.5-1.9h-1.9zM154.6 343.3c0 .2-.2.4-.4.4s-.4-.2-.4-.4.2-.4.4-.4.4.2.4.4zM156 339v-.6h3l-1.6 2c.9 0 1.6.7 1.6 1.6s-.8 1.7-1.8 1.7-1.4-.5-1.6-1.3h.6c.1.4.5.7 1 .7s1.2-.5 1.2-1.1-.5-1.1-1.2-1.1-.4 0-.6.2l-.3-.2 1.5-1.9h-1.9zM162.3 339.9v.5c.3-.4.6-.6 1-.6s.8.2 1 .7c.3-.5.6-.7 1.2-.7s.7.1.9.4c.2.2.2.4.2 1v2.4h-.6v-2.2c0-.4 0-.6-.1-.7-.1-.2-.4-.3-.6-.3-.5 0-.8.4-.8 1v2.2h-.6v-2.2c0-.4 0-.5-.1-.7-.1-.2-.3-.3-.6-.3-.5 0-.9.4-.9 1v2.2h-.6v-3.7h.6zM169.9 341.1v.4h-2l1.2-1.6c.3-.5.4-.6.4-.8 0-.3-.2-.4-.5-.4s-.5.2-.5.6h-.4c0-.6.4-1 1-1s1 .3 1 .8-.1.5-.4.9l-.8 1.1h1.1z"/></g><g><path d="M218.1 284.5h-.7v-5.3h.7v2.5l2.1-2.5h.8l-2.2 2.6 2.2 2.7h-.9l-2-2.5v2.5zM225.1 282.6c0 1.1-.8 1.9-1.9 1.9s-1.9-.8-1.9-1.9.8-1.9 1.9-1.9 1.9.8 1.9 1.9zm-3.1 0c0 .8.5 1.4 1.3 1.4s1.2-.6 1.2-1.4-.5-1.4-1.2-1.4-1.3.6-1.3 1.4zM229.2 284c-.4.4-.8.5-1.4.5-1.1 0-1.8-.8-1.8-1.9s.8-1.9 1.8-1.9 1 .2 1.3.6l-.4.4c-.3-.3-.6-.4-.9-.4-.7 0-1.2.6-1.2 1.4s.5 1.4 1.2 1.4.6-.1.9-.4l.4.4zM230.7 281.3c.3-.4.7-.6 1.1-.6s.7.1.9.3c.2.2.3.5.3 1v2.5h-.6v-2.4c0-.5-.2-.8-.7-.8s-.5.1-.7.3c-.2.2-.2.4-.2.7v2.2h-.6v-5.3h.6v2.2zM234.7 282.8c0 .3 0 .5.2.7.2.3.6.5 1 .5s.9-.2 1.1-.6l.5.2c-.3.6-.9 1-1.6 1-1.1 0-1.9-.8-1.9-1.9s.8-1.9 1.9-1.9 1.9.8 1.9 1.9v.2h-3.1zm2.4-.4c0-.3 0-.4-.2-.6-.2-.3-.6-.5-1-.5s-.8.2-1 .5c-.1.2-.2.3-.2.6h2.4zM239.4 280.8v.5c.3-.4.6-.6 1.1-.6s.6.1.9.3c.2.2.3.5.3 1v2.5h-.6v-2.4c0-.3 0-.5-.1-.6-.1-.2-.3-.2-.6-.2s-.5.1-.7.3c-.2.2-.2.4-.2.7v2.2h-.6v-3.7h.6zM243 285.7h-.4l.7-2.1.6.2-.8 1.9zM248.1 281.5h2.1v.6h-2.1v1.8h2.1v.6h-2.8v-5.3h2.8v.6h-2.1v1.8zM253.1 281.8c0-.4-.3-.6-.7-.6s-.7.2-.7.5.2.4.8.6c.5.1.7.2.9.4.2.2.3.4.3.7 0 .6-.5 1.1-1.3 1.1s-1.3-.4-1.4-1.1h.6c0 .4.3.6.8.6s.7-.2.7-.5-.2-.5-.8-.6c-.8-.2-1.2-.6-1.2-1.1s.5-1.1 1.3-1.1 1.3.4 1.3 1.1h-.6zM256.7 281.8c0-.4-.3-.6-.7-.6s-.7.2-.7.5.2.4.8.6c.5.1.7.2.9.4.2.2.3.4.3.7 0 .6-.5 1.1-1.3 1.1s-1.3-.4-1.4-1.1h.6c0 .4.3.6.8.6s.7-.2.7-.5-.2-.5-.8-.6c-.8-.2-1.2-.6-1.2-1.1s.5-1.1 1.3-1.1 1.3.4 1.3 1.1h-.6zM258.8 282.8c0 .3 0 .5.2.7.2.3.6.5 1 .5s.9-.2 1.1-.6l.5.2c-.3.6-.9 1-1.6 1-1.1 0-1.9-.8-1.9-1.9s.8-1.9 1.9-1.9 1.9.8 1.9 1.9v.2h-3.1zm2.4-.4c0-.3 0-.4-.2-.6-.2-.3-.6-.5-1-.5s-.8.2-1 .5c-.1.2-.2.3-.2.6h2.4zM263.6 280.8v.5c.3-.4.6-.6 1.1-.6s.6.1.9.3c.2.2.3.5.3 1v2.5h-.6v-2.4c0-.3 0-.5-.1-.6-.1-.2-.3-.2-.6-.2s-.5.1-.7.3c-.2.2-.2.4-.2.7v2.2h-.6v-3.7h.6zM267.1 285.7h-.4l.7-2.1.6.2-.8 1.9zM217.7 289.9v-.6l1.8-1.2v5.4h-.6v-4.4l-1.2.8zM222.2 290.4c.2 0 .3-.1.5-.1.9 0 1.6.7 1.6 1.6s-.8 1.7-1.7 1.7-1.7-.8-1.7-1.7.1-.7.4-1.2l1.5-2.5h.7l-1.4 2.1zm-.7 1.5c0 .6.5 1.1 1.1 1.1s1.1-.5 1.1-1.1-.5-1.1-1.1-1.1-1.1.5-1.1 1.1zM226.2 293.1c0 .2-.2.4-.4.4s-.4-.2-.4-.4.2-.4.4-.4.4.2.4.4zM227.4 288.8v-.6h3l-2.1 5.3h-.7l1.9-4.7h-2zM233.6 289.8v.5c.3-.4.6-.6 1-.6s.8.2 1 .7c.3-.5.6-.7 1.2-.7s.7.1.9.4c.2.2.2.4.2 1v2.4h-.6v-2.2c0-.4 0-.6-.1-.7-.1-.2-.4-.3-.6-.3-.5 0-.8.4-.8 1v2.2h-.6v-2.2c0-.4 0-.5-.1-.7-.1-.2-.3-.3-.6-.3-.5 0-.9.4-.9 1v2.2h-.6v-3.7h.6zM241.2 291v.4h-2l1.2-1.6c.3-.5.4-.6.4-.8 0-.3-.2-.4-.5-.4s-.5.2-.5.6h-.4c0-.6.4-1 1-1s1 .3 1 .8-.1.5-.4.9l-.8 1.1h1.1z"/></g><g><path d="M262.6 213.5c1.1 0 1.7.5 1.7 1.4s-.1.6-.3.9c-.1.2-.3.2-.5.3.3 0 .4.1.6.2.3.2.4.6.4 1s-.2.9-.6 1.2c-.3.2-.7.3-1.3.3h-1.5v-5.3h1.5zm-.8 2.4h.7c.4 0 .7 0 .9-.2.2-.2.3-.4.3-.7s-.2-.6-.4-.8c-.2 0-.4-.1-.9-.1h-.6v1.8zm0 2.4h.7c.6 0 .8 0 1-.2.3-.1.4-.4.4-.8 0-.6-.4-.9-1.2-.9h-.8v1.8zM268.5 215.1h.6v3.7h-.6v-.7c-.4.6-.8.8-1.3.8-1 0-1.7-.8-1.7-1.9s.7-1.9 1.8-1.9 1 .2 1.3.7v-.6zm-2.1.9c-.2.3-.3.6-.3 1 0 .8.5 1.4 1.2 1.4s1.3-.6 1.3-1.4-.5-1.4-1.2-1.4-.7.1-.9.4zM273.3 213.5h.6v5.3h-.6v-.6c-.4.5-.8.7-1.3.7-1 0-1.7-.8-1.7-1.9s.7-2 1.7-2 1 .2 1.3.6v-2.2zm-2.4 3.5c0 .8.5 1.4 1.2 1.4s1.2-.6 1.2-1.4-.5-1.4-1.2-1.4-1.2.6-1.2 1.4zM261 223.2v-.6h3l-1.6 2c.9 0 1.6.7 1.6 1.6s-.8 1.7-1.8 1.7-1.4-.5-1.6-1.3h.6c.1.4.5.7 1 .7s1.2-.5 1.2-1.1-.5-1.1-1.2-1.1-.4 0-.6.2l-.3-.2 1.5-1.9h-1.9zM266 227.5c0 .2-.2.4-.4.4s-.4-.2-.4-.4.2-.4.4-.4.4.2.4.4zM270 225.3c.3.3.4.6.4 1 0 .9-.7 1.6-1.7 1.6s-1.6-.6-1.6-1.6.1-.8.4-1.1c.2-.2.3-.3.6-.4-.3 0-.4-.2-.5-.4-.2-.2-.3-.5-.3-.8 0-.8.6-1.3 1.5-1.3s1.4.6 1.4 1.3-.1.6-.3.8c-.1.2-.3.2-.5.3.3 0 .4.2.6.3zm-2.3 1c0 .6.5 1 1 1s1-.5 1-1-.5-1-1-1-1 .5-1 1zm.2-2.5c0 .5.4.8.8.8s.9-.4.9-.8-.4-.8-.8-.8-.9.3-.9.8zM274.5 224.1v.5c.3-.4.6-.6 1-.6s.8.2 1 .7c.3-.5.6-.7 1.2-.7s.7.1.9.4c.2.2.2.4.2 1v2.4h-.6v-2.2c0-.4 0-.6-.1-.7-.1-.2-.4-.3-.6-.3-.5 0-.8.4-.8 1v2.2h-.6v-2.2c0-.4 0-.5-.1-.7-.1-.2-.3-.3-.6-.3-.5 0-.9.4-.9 1v2.2h-.6v-3.7h.6zM282.1 225.3v.4h-2l1.2-1.6c.3-.5.4-.6.4-.8 0-.3-.2-.4-.5-.4s-.5.2-.5.6h-.4c0-.6.4-1 1-1s1 .3 1 .8-.1.5-.4.9l-.8 1.1h1.1z"/></g></g></svg>