<svg xmlns="http://www.w3.org/2000/svg" viewBox="0 0 408.7 440"><defs><style>.cls-1,.cls-10,.cls-11,.cls-12,.cls-13,.cls-14,.cls-15,.cls-16,.cls-17,.cls-18,.cls-19,.cls-2,.cls-3,.cls-4,.cls-5,.cls-6,.cls-7,.cls-8,.cls-9{fill:none;stroke-linecap:round;stroke-linejoin:round}.cls-1,.cls-10,.cls-11,.cls-12,.cls-13,.cls-14,.cls-15,.cls-16,.cls-18,.cls-19,.cls-2,.cls-3,.cls-4,.cls-5,.cls-7,.cls-8,.cls-9{stroke-width:.1px}.cls-1,.cls-14,.cls-16,.cls-17,.cls-18,.cls-3,.cls-4,.cls-7{stroke:#194164}.cls-1,.cls-7{stroke-dasharray:0 0 0 0 2.9 1.4 .2 1.4}.cls-2{stroke:#646464}.cls-10,.cls-11,.cls-12,.cls-13,.cls-14,.cls-18,.cls-19,.cls-3,.cls-4,.cls-5,.cls-8,.cls-9{stroke-dasharray:0 0 1.4 1.4}.cls-4,.cls-9{stroke-dashoffset:1px}.cls-20,.cls-21{fill:#fff}.cls-10,.cls-11,.cls-12,.cls-13,.cls-15,.cls-19,.cls-5,.cls-8,.cls-9{stroke:#969696}.cls-6{stroke:#000;stroke-width:.3px}.cls-7{stroke-dashoffset:1.9px}.cls-8{stroke-dashoffset:1.1px}.cls-10{stroke-dashoffset:2.7px}.cls-11{stroke-dashoffset:2.5px}.cls-12{stroke-dashoffset:1.4px}.cls-13,.cls-18{stroke-dashoffset:.7px}.cls-21,.cls-22{fill-rule:evenodd}.cls-14{stroke-dashoffset:.2px}.cls-17{stroke-width:.3px}.cls-19{stroke-dashoffset:1.2px}</style></defs><g id="Plan"><path class="cls-17" d="M220.7 247.5h29.8v39.6h-29.8z"/><path class="cls-16" d="M219 238.6h35.3M237.3 241.5h-14M250 244.6h-13.9M172.5 186.1h-14.2M172.5 186.8h-14.2M158.3 186.1v.7M172.5 186.8h-14.2M172.5 186.1h-14.2M172.5 186.1v.7M114.4 269.8H97.3"/><path class="cls-6" d="M115.1 270.6H97.3"/><path class="cls-16" d="M112.9 268.4H97.3M114.4 269.8H97.3"/><path class="cls-6" d="M97.3 269.8v.8"/><path class="cls-16" d="M97.3 268.4v1.4M115.1 270.6H97.3M112.9 268.4H97.3M114.4 253.8v16"/><path class="cls-6" d="M115.1 253.8v16.8"/><path class="cls-16" d="M112.9 253.8v14.6M114.4 253.8v16M115.1 253.8v16.8M112.9 253.8v14.6"/><path class="cls-6" d="M114.4 253.8h.7"/><path class="cls-16" d="M112.9 253.8h1.5"/><path class="cls-21" d="M120.4 233.6c.9 1.3.9 3 0 4.3-1.5 1.9-3.8 2.9-6.2 2.9l-9-.3v-9.6l9-.3c2.4 0 4.7 1 6.2 2.9"/><path class="cls-16" d="M120.4 233.6c.9 1.3.9 3 0 4.3-1.5 1.9-3.8 2.9-6.2 2.9l-9-.3v-9.6l9-.3c2.4 0 4.7 1 6.2 2.9"/><path class="cls-21" d="M110.3 235.7c0-1 .3-2 1.1-2.8.7-.7 1.7-1.2 2.7-1.2 2.1 0 4.1.9 5.4 2.5.6.9.6 2 0 2.9-1.3 1.6-3.3 2.5-5.4 2.5-1 0-2-.4-2.7-1.2-.7-.7-1.1-1.8-1.1-2.8"/><path class="cls-16" d="M110.3 235.7c0-1 .3-2 1.1-2.8.7-.7 1.7-1.2 2.7-1.2 2.1 0 4.1.9 5.4 2.5.6.9.6 2 0 2.9-1.3 1.6-3.3 2.5-5.4 2.5-1 0-2-.4-2.7-1.2-.7-.7-1.1-1.8-1.1-2.8"/><path class="cls-21" d="M105.6 184.4h48.1v.1h.1v.1h.1v.1l.1.1v20.5l-.1.1v.1l-.1.1h-.1v.1h-48.2l-.1-.1h-.1v-.1l-.1-.1V184.7h.1v-.1l.1-.1h.1v-.1h.1"/><path class="cls-16" d="M105.6 184.4h48.1v.1h.1v.1h.1v.1l.1.1v20.5l-.1.1v.1l-.1.1h-.1v.1h-48.2l-.1-.1h-.1v-.1l-.1-.1V184.7h.1v-.1l.1-.1h.1v-.1h.1"/><path class="cls-21" d="M110.9 186.6h37.4c.4 0 .9 0 1.3.3.4.2.8.4 1.1.7.3.3.6.7.7 1.1.2.4.3.9.3 1.3v10.2c0 .4 0 .9-.3 1.3-.2.4-.4.8-.7 1.1-.3.3-.7.6-1.1.7-.4.2-.9.3-1.3.3h-37.4c-.4 0-.9 0-1.3-.3-.4-.2-.8-.4-1.1-.7-.3-.3-.6-.7-.7-1.1-.2-.4-.3-.9-.3-1.3V190c0-.4 0-.9.3-1.3.2-.4.4-.8.7-1.1.3-.3.7-.6 1.1-.7.4-.2.9-.3 1.3-.3"/><path class="cls-16" d="M110.9 186.6h37.4c.4 0 .9 0 1.3.3.4.2.8.4 1.1.7.3.3.6.7.7 1.1.2.4.3.9.3 1.3v10.2c0 .4 0 .9-.3 1.3-.2.4-.4.8-.7 1.1-.3.3-.7.6-1.1.7-.4.2-.9.3-1.3.3h-37.4c-.4 0-.9 0-1.3-.3-.4-.2-.8-.4-1.1-.7-.3-.3-.6-.7-.7-1.1-.2-.4-.3-.9-.3-1.3V190c0-.4 0-.9.3-1.3.2-.4.4-.8.7-1.1.3-.3.7-.6 1.1-.7.4-.2.9-.3 1.3-.3M104.5 248.7v-20.9"/><path class="cls-6" d="M105.3 248.7v-21.6"/><path class="cls-16" d="M103.1 248.7v-19.4M104.5 248.7v-20.9M105.3 248.7v-21.6M103.1 248.7v-19.4M100.7 227.8v-18.2"/><path class="cls-6" d="M101.4 227.1v-16.8"/><path class="cls-16" d="M99.3 229.3v-21.1M100.7 227.8v-18.2M101.4 227.1v-16.8M99.3 229.3v-21.1M104.5 209.6v-25.4"/><path class="cls-6" d="M105.3 210.3v-26.1"/><path class="cls-16" d="M103.1 208.2v-24M104.5 209.6v-25.4M105.3 210.3v-26.1M103.1 208.2v-24"/><path class="cls-21" d="M105.2 210.9h12.4c.1 0 .3.1.4.2.1.1.2.2.2.4V225.6c0 .1-.1.3-.2.4s-.2.2-.4.2h-12.4v-15.6"/><path class="cls-16" d="M105.2 210.9h12.4c.1 0 .3.1.4.2.1.1.2.2.2.4V225.6c0 .1-.1.3-.2.4s-.2.2-.4.2h-12.4v-15.6"/><path class="cls-14" d="M105.3 227.4h-3.9"/><path class="cls-4" d="M101.4 227.4v-17.1"/><path class="cls-14" d="M101.4 210.3h3.9"/><path class="cls-16" d="M100.7 209.6h3.8"/><path class="cls-6" d="M101.4 210.3h3.9"/><path class="cls-16" d="M99.3 208.2h3.8M100.7 209.6h3.8M101.4 210.3h3.9M99.3 208.2h3.8M104.5 227.8h-3.8"/><path class="cls-6" d="M105.3 227.1h-3.9"/><path class="cls-16" d="M103.1 229.3h-3.8M104.5 227.8h-3.8M105.3 227.1h-3.9M103.1 229.3h-3.8"/><path class="cls-6" d="M105.3 227.1v-16.8"/><path class="cls-16" d="M35.7 240.8H93"/><path class="cls-6" d="M34.9 240.1H93"/><path class="cls-16" d="M37.1 242.2H93M35.7 240.8H93"/><path class="cls-6" d="M93 240.8v-.7"/><path class="cls-16" d="M93 242.2v-1.4M34.9 240.1H93M37.1 242.2H93"/><path class="cls-21" d="M65.1 224.9c-1.3-.9-3-.9-4.3 0-1.9 1.5-2.9 3.8-2.9 6.2l.3 9h9.6l.3-9c0-2.4-1-4.7-2.9-6.2"/><path class="cls-16" d="M65.1 224.9c-1.3-.9-3-.9-4.3 0-1.9 1.5-2.9 3.8-2.9 6.2l.3 9h9.6l.3-9c0-2.4-1-4.7-2.9-6.2"/><path class="cls-21" d="M63 235c1 0 2-.3 2.8-1.1.7-.7 1.2-1.7 1.2-2.7 0-2.1-.9-4.1-2.5-5.4-.9-.6-2-.6-2.9 0-1.6 1.3-2.5 3.3-2.5 5.4 0 1 .4 2 1.2 2.7.7.7 1.8 1.1 2.8 1.1"/><path class="cls-16" d="M63 235c1 0 2-.3 2.8-1.1.7-.7 1.2-1.7 1.2-2.7 0-2.1-.9-4.1-2.5-5.4-.9-.6-2-.6-2.9 0-1.6 1.3-2.5 3.3-2.5 5.4 0 1 .4 2 1.2 2.7.7.7 1.8 1.1 2.8 1.1"/><path class="cls-21" d="M70 240.1v-41.3h22.8v41.3H70"/><path class="cls-16" d="M70 198.8h22.8v41.3H70zM92.8 238.2H70M35.7 249.4v-8.6"/><path class="cls-6" d="M34.9 249.4v-9.3"/><path class="cls-16" d="M37.1 249.4v-7.2M35.7 249.4v-8.6M34.9 249.4v-9.3M37.1 249.4v-7.2"/><path class="cls-21" d="M38.2 240.1v-12-.4c0-.1.1-.3.2-.4.1-.1.2-.2.4-.2H52.9c.1 0 .3.1.4.2.1.1.2.2.2.4v12.4H37.9"/><path class="cls-16" d="M38.2 240.1v-12-.4c0-.1.1-.3.2-.4.1-.1.2-.2.4-.2H52.9c.1 0 .3.1.4.2.1.1.2.2.2.4v12.4H37.9"/><path class="cls-21" d="M214.9 304.6h-4V356h4v-51.4"/><path class="cls-15" d="M211.1 306.6l1.9-2M211.1 310.9l4.1-4.1M211.1 315.2l4.1-4.1M211.1 319.3l4.1-4.1M211.1 323.6l4.1-4.1M211.1 327.9l4.1-4.1M211.1 332.2l4.1-4M211.1 336.3l4.1-4.1M211.1 340.6l4.1-4M211.1 345l4.1-4.1M211.1 349l4.1-4M211.1 353.4l4.1-4.1M212.5 356l2.7-2.4"/><path class="cls-21" d="M214.9 304.6h-4V356h4v-51.4"/><path class="cls-15" d="M211.1 306.6l1.9-2M211.1 310.9l4.1-4.1M211.1 315.2l4.1-4.1M211.1 319.3l4.1-4.1M211.1 323.6l4.1-4.1M211.1 327.9l4.1-4.1M211.1 332.2l4.1-4M211.1 336.3l4.1-4.1M211.1 340.6l4.1-4M211.1 345l4.1-4.1M211.1 349l4.1-4M211.1 353.4l4.1-4.1M212.5 356l2.7-2.4"/><path class="cls-17" d="M214.9 356v-51.4M210.9 356v-51.4M210.9 356v-51.4M214.9 356v-51.4M210.9 304.6h4"/><path class="cls-16" d="M214.9 380.5h-4M214.9 357.7h-4"/><path class="cls-17" d="M214.9 382.2h-4M214.9 356h-4"/><path class="cls-15" d="M215 380.4c12.4 0 22.7-10.2 22.7-22.7M214.9 357.7h22.8"/><path class="cls-22" d="M203.9 393.4h-.5l.5 3.4 13.2-2.2-2.2-12.4-4.3 5-1.2 5.8-5.5.4"/><path class="cls-21" d="M209.4 393l-5.5.4.7 3.4 5.3-1-.5-2.8"/><path class="cls-21" d="M210.6 387.2l-1.2 5.8.5 2.8 2.2-.4-1.5-8.2"/><path class="cls-15" d="M210.9 387.9h-.3M211.1 389.4h-.7M211.3 390.8l-1.4.2M211.6 392l-1.9.5M211.8 393.4l-2.1.5M212.1 394.9l-2.2.5"/><path class="cls-21" d="M214.9 382.2l-4.3 5 1.5 8.2 5-.8-2.2-12.4"/><path class="cls-15" d="M212.1 394.9l.4.5M211.1 389.8l5 5.1M211.6 386.2l5 5.1M213.5 384.1l2.4 2.4"/><path class="cls-17" d="M204.6 396.8l-.7-3.4"/><path class="cls-15" d="M212.1 395.4l-1.5-8.2M209.9 395.8l-.5-2.8"/><path class="cls-17" d="M217.1 394.6l-2.2-12.4M212.1 395.4l-1.5-8.2"/><path class="cls-16" d="M217.1 394.6l-2.2-12.4"/><path class="cls-17" d="M203.9 396.8l-.5-3.4"/><path class="cls-16" d="M223 425.4l-5.1-30.6-5.8.9M210.6 440l-7.2-43.1 6.5-1.1"/><path class="cls-16" d="M216.1 433.5l-6.2-37.7 2.2-.4 6 35.7M215.4 429.4l2.4-.2M210.6 399.7l2.2-.3M215.7 416.2l-2.4.5M217.8 429.2l-2.4.2M214.9 412.2l-2.4.4M215.7 416.2l-2.4.5M212.8 399.4l-2.2.3M214.9 412.2l-2.4.4M212.1 395.4l-2.2.4"/><path class="cls-21" d="M217.1 394.6v.3l-5 .9v-.4"/><path class="cls-15" d="M212.5 395.4l.5.2M216.1 394.9l.3.2"/><path class="cls-17" d="M217.1 394.9l-5 .9v-.4M217.1 394.6v.3"/><path class="cls-15" d="M212.1 395.4l-2.2.4"/><path class="cls-17" d="M204.6 396.8h-.7M217.1 394.9l-5 .9v-.4M217.1 394.6v.3"/><path class="cls-16" d="M313 425.4h-90M313 440H210.6M218 431.2h94.9m0 2.3H216M307.8 433.5v-2.4M221.4 433.5v-2.4M288.4 431.1v2.4M307.8 431.1v2.4M284.3 431.1v2.4M288.4 431.1v2.4M266.5 431.1v2.4M284.3 431.1v2.4M262.5 431.1v2.4M266.5 431.1v2.4M244.9 431.1v2.4M262.5 431.1v2.4M240.9 431.1v2.4M244.9 431.1v2.4M221.4 431.1v2.4M240.9 431.1v2.4"/><path class="cls-22" d="M31.1 382.2v14.6H.1v-14.6h31"/><path class="cls-21" d="M31.1 396.8v-3.4H.1v3.4h31"/><path class="cls-15" d="M.4 395.4l1.2 1.4M2.3 393.4l3.4 3.4M6.4 393.4l3.3 3.4M10.2 393.4l3.4 3.4M14.3 393.4l3.4 3.4M18.4 393.4l3.3 3.4M22.2 393.4l3.4 3.4M26.3 393.4l3.4 3.4M30.4 393.4l.9 1"/><path class="cls-21" d="M31.1 393.4v-.4H.1v.4h31M31.1 393v-5.8H.1v5.8h31"/><path class="cls-15" d="M1.3 387.2v5.8M2.8 387.2v5.8M4.2 387.2v5.8M5.7 387.2v5.8M7.1 387.2v5.8M8.5 387.2v5.8M10 387.2v5.8M11.4 387.2v5.8M12.6 387.2v5.8M14.1 387.2v5.8M15.5 387.2v5.8M16.9 387.2v5.8M18.4 387.2v5.8M19.8 387.2v5.8M21.3 387.2v5.8M22.7 387.2v5.8M24.1 387.2v5.8M25.6 387.2v5.8M27 387.2v5.8M28.2 387.2v5.8M29.7 387.2v5.8M31.1 387.2v5.8"/><path class="cls-21" d="M31.1 387.2v-5H.1v5h31"/><path class="cls-15" d="M.4 383.4l3.6 3.8M3 382.2l5.1 5M7.1 382.2l5 5M10.9 382.2l5.1 5M15 382.2l5.1 5M19.1 382.2l5 5M23.2 382.2l5 5M27 382.2l4.3 4M31.1 382.2l.2.2"/><path class="cls-17" d="M31.1 393.4H.1M31.1 396.8H.1"/><path class="cls-15" d="M31.1 387.2H.1M31.1 393H.1"/><path class="cls-17" d="M31.1 382.2H.1M31.1 387.2H.1"/><path class="cls-16" d="M31.1 396.8H.1M31.1 382.2H.1"/><path class="cls-22" d="M123.3 382.2v14.6H71.9v-14.6h51.4"/><path class="cls-21" d="M123.3 396.8v-3.4H71.9v3.4h51.4"/><path class="cls-15" d="M72.1 395.1l1.7 1.7M74.5 393.4l3.4 3.4M78.4 393.4l3.3 3.4M82.5 393.4l3.3 3.4M86.5 393.4l3.4 3.4M90.4 393.4l3.3 3.4M94.5 393.4l3.3 3.4M98.5 393.4l3.4 3.4M102.4 393.4l3.3 3.4M106.5 393.4l3.3 3.4M110.5 393.4l3.4 3.4M114.6 393.4l3.4 3.4M118.5 393.4l3.3 3.4M122.5 393.4l1 .8"/><path class="cls-21" d="M123.3 393.4v-.4H71.9v.4h51.4M123.3 393v-5.8H71.9v5.8h51.4"/><path class="cls-15" d="M72.4 387.2v5.8M73.6 387.2v5.8M75 387.2v5.8M76.5 387.2v5.8M77.9 387.2v5.8M79.3 387.2v5.8M80.8 387.2v5.8M82.2 387.2v5.8M83.7 387.2v5.8M85.1 387.2v5.8M86.5 387.2v5.8M87.7 387.2v5.8M89.2 387.2v5.8M90.6 387.2v5.8M92.1 387.2v5.8M93.5 387.2v5.8M94.9 387.2v5.8M96.4 387.2v5.8M97.8 387.2v5.8M99.3 387.2v5.8M100.7 387.2v5.8M102.1 387.2v5.8M103.3 387.2v5.8M104.8 387.2v5.8M106.2 387.2v5.8M107.7 387.2v5.8M109.1 387.2v5.8M110.5 387.2v5.8M112 387.2v5.8M113.4 387.2v5.8M114.9 387.2v5.8M116.3 387.2v5.8M117.5 387.2v5.8M118.9 387.2v5.8M120.4 387.2v5.8M121.8 387.2v5.8M123.3 387.2v5.8"/><path class="cls-21" d="M123.3 387.2v-5H71.9v5h51.4"/><path class="cls-15" d="M72.1 387v.2M72.1 383.1l4.1 4.1M75.3 382.2l5 5M79.1 382.2l5 5M83.2 382.2l5 5M87.3 382.2l5 5M91.1 382.2l5 5M95.2 382.2l5 5M99.3 382.2l5 5M103.3 382.2l5.1 5M107.2 382.2l5 5M111.3 382.2l5 5M115.3 382.2l5.1 5M119.2 382.2l4.3 4M123.3 382.2h.2"/><path class="cls-17" d="M123.3 393.4H71.9M123.3 396.8H71.9"/><path class="cls-15" d="M123.3 387.2H71.9M123.3 393H71.9"/><path class="cls-17" d="M123.3 382.2H71.9M123.3 387.2H71.9"/><path class="cls-16" d="M123.3 396.8H71.9M123.3 382.2H71.9"/><path class="cls-22" d="M209.4 393l1.2-5.8 4.3-5h-28.8v14.6h24l-.7-3.4h-5.5l5.5-.4"/><path class="cls-21" d="M186.1 396.8h24l-.7-3.4h-23.3v3.4"/><path class="cls-15" d="M186.6 393.4l3.4 3.4M190.7 393.4l3.4 3.4M194.8 393.4l3.3 3.4M198.6 393.4l3.4 3.4M202.7 393.4l3.4 3.4M206.8 393.4l3.3 3.4"/><path class="cls-21" d="M186.1 393.4h17.8l5.5-.4h-23.3v.4M186.1 393h23.3l1.2-5.8h-24.5v5.8"/><path class="cls-15" d="M187.1 387.2v5.8M188.5 387.2v5.8M190 387.2v5.8M191.4 387.2v5.8M192.6 387.2v5.8M194.1 387.2v5.8M195.5 387.2v5.8M196.9 387.2v5.8M198.4 387.2v5.8M199.8 387.2v5.8M201.3 387.2v5.8M202.7 387.2v5.8M204.1 387.2v5.8M205.6 387.2v5.8M207 387.2v5.8M208.2 387.2v5.8M209.7 387.2v4.8"/><path class="cls-21" d="M186.1 387.2h24.5l4.3-5h-28.8v5"/><path class="cls-15" d="M186.4 385l2.1 2.2M187.3 382.2l5.1 5M191.4 382.2l5.1 5M195.5 382.2l5 5M199.3 382.2l5.1 5M203.4 382.2l5.1 5M207.5 382.2l4.1 4M211.6 382.2l1.9 1.9"/><path class="cls-17" d="M203.9 393.4h-17.8M203.9 396.8h-17.8"/><path class="cls-15" d="M210.6 387.2h-24.5M209.4 393h-23.3"/><path class="cls-17" d="M214.9 382.2h-28.8M210.6 387.2h-24.5"/><path class="cls-16" d="M203.9 396.8h-17.8M214.9 382.2h-28.8"/><path class="cls-17" d="M210.1 396.8h-6.2M210.1 396.8l-.7-3.4M209.4 393.4h-5.5"/><path class="cls-16" d="M70 389.6v7.2h3.3v1.9H29.4v-1.9H33v-7.2"/><path class="cls-1" d="M71.9 382.2H31.1"/><path class="cls-16" d="M31.6 382.2h-.5"/><path class="cls-17" d="M70 396.8h3.3M33 396.8h-3.6"/><path class="cls-16" d="M31.1 387.2h40.8v2.4H31.1zM68.3 389.6v-2.4M34.7 389.6v-2.4M71.9 387.2v2.4M53.7 387.2v2.4M68.3 387.2v2.4M49.3 387.2v2.4M53.7 387.2v2.4M34.7 387.2v2.4M49.3 387.2v2.4M31.1 387.2v2.4"/><path class="cls-21" d="M71.9 392.9h-1.8v-3.4h1.8"/><path class="cls-15" d="M70.9 389.6v3.4M71.9 392.9h-1.8v-3.4h1.8"/><path class="cls-17" d="M71.9 387.2v-5"/><path class="cls-21" d="M71.9 396.8H70v-3.4h1.9"/><path class="cls-15" d="M70.5 393.4l1.6 1.7"/><path class="cls-17" d="M71.9 396.8H70v-3.4h1.9M70 393.4v-3.8"/><path class="cls-21" d="M31.1 392.9h1.8v-3.4h-1.8"/><path class="cls-15" d="M32.5 389.6v3.4M31.1 392.9h1.8v-3.4h-1.8"/><path class="cls-17" d="M31.1 387.2v-5"/><path class="cls-21" d="M31.1 396.8H33v-3.4h-1.9"/><path class="cls-15" d="M31.3 394.4l2 1.9"/><path class="cls-17" d="M31.1 396.8H33v-3.4h-1.9M33 393.4v-3.8"/><path class="cls-16" d="M184.2 389.6v7.2h3.4v1.9h-66v-1.9h3.3v-7.2"/><path class="cls-1" d="M186.1 382.2h-62.8"/><path class="cls-17" d="M184.2 396.8h3.4M124.9 396.8h-3.3"/><path class="cls-16" d="M123.3 387.2h62.9v2.4h-62.9zM182.5 389.6v-2.4M126.9 389.6v-2.4M186.1 387.2v2.4M167.2 387.2v2.4M182.5 387.2v2.4M163.1 387.2v2.4M167.2 387.2v2.4M146.3 387.2v2.4M163.1 387.2v2.4M142.2 387.2v2.4M146.3 387.2v2.4M126.9 387.2v2.4M142.2 387.2v2.4M123.3 387.2v2.4"/><path class="cls-21" d="M186.1 392.9h-1.8v-3.4h1.8"/><path class="cls-15" d="M185.7 389.6v3.4M186.1 392.9h-1.8v-3.4h1.8"/><path class="cls-17" d="M186.1 387.2v-5"/><path class="cls-21" d="M186.1 396.8h-1.9v-3.4h1.9"/><path class="cls-15" d="M184.5 395.1l1.6 1.7"/><path class="cls-17" d="M186.1 396.8h-1.9v-3.4h1.9M184.2 393.4v-3.8"/><path class="cls-21" d="M123.2 392.9h1.8v-3.4h-1.8"/><path class="cls-15" d="M124.7 389.6v3.4M123.2 392.9h1.8v-3.4h-1.8"/><path class="cls-17" d="M123.3 387.2v-5"/><path class="cls-21" d="M123.3 396.8h1.6v-3.4h-1.6"/><path class="cls-15" d="M123.5 394.2l1.7 1.6"/><path class="cls-17" d="M123.3 396.8h1.6v-3.4h-1.6M124.9 393.4v-3.8"/><path class="cls-22" d="M278.3 71.4V56.7h34.8v14.7h-34.8"/><path class="cls-21" d="M278.3 56.7v3.4h34.8v-3.4h-34.8"/><path class="cls-15" d="M279 56.7l3.4 3.4M282.9 56.7l3.3 3.4M286.9 56.7l3.4 3.4M291 56.7l3.4 3.4M294.9 56.7l3.3 3.4M298.9 56.7l3.4 3.4M303 56.7l3.4 3.4M306.9 56.7l3.3 3.4M310.9 56.7l2.4 2.2"/><path class="cls-21" d="M278.3 60.1v.7h34.8v-.7h-34.8"/><path class="cls-21" d="M278.3 60.8v5.5h34.8v-5.5h-34.8"/><path class="cls-15" d="M313.1 66.3v-5.5M311.9 66.3v-5.5M310.5 66.3v-5.5M309 66.3v-5.5M307.6 66.3v-5.5M306.1 66.3v-5.5M304.7 66.3v-5.5M303.3 66.3v-5.5M301.8 66.3v-5.5M300.4 66.3v-5.5M298.9 66.3v-5.5M297.5 66.3v-5.5M296.3 66.3v-5.5M294.9 66.3v-5.5M293.4 66.3v-5.5M292 66.3v-5.5M290.5 66.3v-5.5M289.1 66.3v-5.5M287.7 66.3v-5.5M286.2 66.3v-5.5M284.8 66.3v-5.5M283.3 66.3v-5.5M282.1 66.3v-5.5M280.7 66.3v-5.5M279.3 66.3v-5.5"/><path class="cls-21" d="M278.3 66.3v5.1h34.8v-5.1h-34.8"/><path class="cls-15" d="M278.5 68.2l2.9 3.2M280.5 66.3l5 5.1M284.5 66.3l5.1 5.1M288.6 66.3l5.1 5.1M292.5 66.3l5 5.1M296.5 66.3l5.1 5.1M300.6 66.3l5.1 5.1M304.5 66.3l5 5.1M308.5 66.3l4.8 4.6M312.6 66.3l.7.7"/><path class="cls-17" d="M278.3 60.1h34.8M278.3 56.7h34.8"/><path class="cls-15" d="M278.3 66.3h34.8M278.3 60.8h34.8"/><path class="cls-17" d="M278.3 71.4h34.8M278.3 66.3h34.8"/><path class="cls-16" d="M278.3 56.7h34.8M278.3 71.4h34.8"/><path class="cls-22" d="M186.1 71.4V56.7h51.4v14.7h-51.4"/><path class="cls-21" d="M186.1 56.7v3.4h51.4v-3.4h-51.4"/><path class="cls-15" d="M186.6 56.7l3.4 3.4M190.7 56.7l3.4 3.4M194.8 56.7l3.3 3.4M198.6 56.7l3.4 3.4M202.7 56.7l3.4 3.4M206.8 56.7l3.3 3.4M210.9 56.7l3.3 3.4M214.7 56.7l3.4 3.4M218.8 56.7l3.3 3.4M222.9 56.7l3.3 3.4M226.7 56.7l3.4 3.4M230.8 56.7l3.3 3.4M234.9 56.7l2.8 2.9"/><path class="cls-21" d="M186.1 60.1v.7h51.4v-.7h-51.4"/><path class="cls-21" d="M186.1 60.8v5.5h51.4v-5.5h-51.4"/><path class="cls-15" d="M236.8 66.3v-5.5M235.3 66.3v-5.5M233.9 66.3v-5.5M232.5 66.3v-5.5M231 66.3v-5.5M229.6 66.3v-5.5M228.1 66.3v-5.5M226.7 66.3v-5.5M225.3 66.3v-5.5M223.8 66.3v-5.5M222.4 66.3v-5.5M221.2 66.3v-5.5M219.7 66.3v-5.5M218.3 66.3v-5.5M216.9 66.3v-5.5M215.4 66.3v-5.5M214 66.3v-5.5M212.5 66.3v-5.5M211.1 66.3v-5.5M209.7 66.3v-5.5M208.2 66.3v-5.5M207 66.3v-5.5M205.6 66.3v-5.5M204.1 66.3v-5.5M202.7 66.3v-5.5M201.3 66.3v-5.5M199.8 66.3v-5.5M198.4 66.3v-5.5M196.9 66.3v-5.5M195.5 66.3v-5.5M194.1 66.3v-5.5M192.6 66.3v-5.5M191.4 66.3v-5.5M190 66.3v-5.5M188.5 66.3v-5.5M187.1 66.3v-5.5"/><path class="cls-21" d="M186.1 66.3v5.1h51.4v-5.1h-51.4"/><path class="cls-15" d="M186.4 68.2l2.9 3.2M188.3 66.3l5 5.1M192.4 66.3l5 5.1M196.2 66.3l5.1 5.1M200.3 66.3l5 5.1M204.4 66.3l5 5.1M208.2 66.3l5.1 5.1M212.3 66.3l5 5.1M216.4 66.3l5 5.1M220.5 66.3l5 5.1M224.3 66.3l5 5.1M228.4 66.3l5 5.1M232.5 66.3l5 5.1M236.3 66.3l1.4 1.2"/><path class="cls-17" d="M186.1 60.1h51.4M186.1 56.7h51.4"/><path class="cls-15" d="M186.1 66.3h51.4M186.1 60.8h51.4"/><path class="cls-17" d="M186.1 71.4h51.4M186.1 66.3h51.4"/><path class="cls-16" d="M186.1 56.7h51.4M186.1 71.4h51.4"/><path class="cls-22" d="M71.9 71.4V56.7h51.4v14.7H71.9"/><path class="cls-21" d="M71.9 56.7v3.4h51.4v-3.4H71.9"/><path class="cls-15" d="M72.1 58.4l1.7 1.7M74.5 56.7l3.4 3.4M78.4 56.7l3.3 3.4M82.5 56.7l3.3 3.4M86.5 56.7l3.4 3.4M90.4 56.7l3.3 3.4M94.5 56.7l3.3 3.4M98.5 56.7l3.4 3.4M102.6 56.7l3.4 3.4M106.5 56.7l3.3 3.4M110.5 56.7l3.4 3.4M114.6 56.7l3.4 3.4M118.5 56.7l3.3 3.4M122.5 56.7l1 .7"/><path class="cls-21" d="M71.9 60.1v.7h51.4v-.7H71.9"/><path class="cls-21" d="M71.9 60.8v5.5h51.4v-5.5H71.9"/><path class="cls-15" d="M123.3 66.3v-5.5M121.8 66.3v-5.5M120.4 66.3v-5.5M118.9 66.3v-5.5M117.5 66.3v-5.5M116.3 66.3v-5.5M114.9 66.3v-5.5M113.4 66.3v-5.5M112 66.3v-5.5M110.5 66.3v-5.5M109.1 66.3v-5.5M107.7 66.3v-5.5M106.2 66.3v-5.5M104.8 66.3v-5.5M103.3 66.3v-5.5M102.1 66.3v-5.5M100.7 66.3v-5.5M99.3 66.3v-5.5M97.8 66.3v-5.5M96.4 66.3v-5.5M94.9 66.3v-5.5M93.5 66.3v-5.5M92.1 66.3v-5.5M90.6 66.3v-5.5M89.2 66.3v-5.5M87.7 66.3v-5.5M86.5 66.3v-5.5M85.1 66.3v-5.5M83.7 66.3v-5.5M82.2 66.3v-5.5M80.8 66.3v-5.5M79.3 66.3v-5.5M77.9 66.3v-5.5M76.5 66.3v-5.5M75 66.3v-5.5M73.6 66.3v-5.5M72.4 66.3v-5.5"/><path class="cls-21" d="M71.9 66.3v5.1h51.4v-5.1H71.9"/><path class="cls-15" d="M72.1 70.4l1 1M72.1 66.3l5.1 5.1M76 66.3l5 5.1M80.1 66.3l5 5.1M84.1 66.3l5.1 5.1M88 66.3l5 5.1M92.1 66.3l5 5.1M96.1 66.3l5.1 5.1M100 66.3l5 5.1M104.1 66.3l5 5.1M108.1 66.3l5.1 5.1M112.2 66.3l5.1 5.1M116.1 66.3l5 5.1M120.1 66.3l3.4 3.4"/><path class="cls-17" d="M71.9 60.1h51.4M71.9 56.7h51.4"/><path class="cls-15" d="M71.9 66.3h51.4M71.9 60.8h51.4"/><path class="cls-17" d="M71.9 71.4h51.4M71.9 66.3h51.4"/><path class="cls-16" d="M71.9 56.7h51.4M71.9 71.4h51.4"/><path class="cls-22" d="M.1 71.4V56.7h31v14.7H.1"/><path class="cls-21" d="M.1 56.7v3.4h31v-3.4H.1"/><path class="cls-15" d="M.4 58.6l1.2 1.5M2.3 56.7l3.4 3.4M6.4 56.7l3.3 3.4M10.2 56.7l3.4 3.4M14.3 56.7l3.4 3.4M18.4 56.7l3.3 3.4M22.5 56.7l3.3 3.4M26.3 56.7l3.4 3.4M30.4 56.7l.9 1"/><path class="cls-21" d="M.1 60.1v.7h31v-.7H.1"/><path class="cls-21" d="M.1 60.8v5.5h31v-5.5H.1"/><path class="cls-15" d="M31.1 66.3v-5.5M29.7 66.3v-5.5M28.2 66.3v-5.5M27 66.3v-5.5M25.6 66.3v-5.5M24.1 66.3v-5.5M22.7 66.3v-5.5M21.3 66.3v-5.5M19.8 66.3v-5.5M18.4 66.3v-5.5M16.9 66.3v-5.5M15.5 66.3v-5.5M14.1 66.3v-5.5M12.6 66.3v-5.5M11.4 66.3v-5.5M10 66.3v-5.5M8.5 66.3v-5.5M7.1 66.3v-5.5M5.7 66.3v-5.5M4.2 66.3v-5.5M2.8 66.3v-5.5M1.3 66.3v-5.5"/><path class="cls-21" d="M.1 66.3v5.1h31v-5.1H.1"/><path class="cls-15" d="M.4 70.6l.5.8M.4 66.8l4.5 4.6M4 66.3l5 5.1M7.8 66.3l5.1 5.1M11.9 66.3l5 5.1M16 66.3l5 5.1M19.8 66.3l5.1 5.1M23.9 66.3l5 5.1M28 66.3l3.3 3.4"/><path class="cls-17" d="M.1 60.1h31M.1 56.7h31"/><path class="cls-15" d="M.1 66.3h31M.1 60.8h31"/><path class="cls-17" d="M.1 71.4h31M.1 66.3h31"/><path class="cls-16" d="M.1 56.7h31M.1 71.4h31M33 64.2v-7.5h-3.6v-1.9h43.9v1.9H70v7.5"/><path class="cls-1" d="M31.1 71.4h40.8"/><path class="cls-16" d="M71.4 71.4h.5"/><path class="cls-17" d="M33 56.7h-3.6M70 56.7h3.3"/><path class="cls-16" d="M31.1 64.2h40.8v2.2H31.1zM34.7 64.2v2.1M68.3 64.2v2.1M31.1 66.3v-2.1M49.3 66.3v-2.1M34.7 66.3v-2.1M53.7 66.3v-2.1M49.3 66.3v-2.1M68.3 66.3v-2.1M53.7 66.3v-2.1M71.9 66.3v-2.1"/><path class="cls-21" d="M31.1 60.7h1.8v3.4h-1.8"/><path class="cls-15" d="M32.5 64.2v-3.4M31.1 60.7h1.8v3.4h-1.8"/><path class="cls-17" d="M31.1 66.3v5.1"/><path class="cls-21" d="M31.1 56.7H33v3.4h-1.9"/><path class="cls-15" d="M31.3 57.7l2 1.9"/><path class="cls-17" d="M31.1 56.7H33v3.4h-1.9M33 60.1v4.1"/><path class="cls-21" d="M71.9 60.7h-1.8v3.4h1.8"/><path class="cls-15" d="M70.9 64.2v-3.4M71.9 60.7h-1.8v3.4h1.8"/><path class="cls-17" d="M71.9 66.3v5.1"/><path class="cls-21" d="M71.9 56.7H70v3.4h1.9"/><path class="cls-15" d="M70.5 56.7l1.6 1.7"/><path class="cls-17" d="M71.9 56.7H70v3.4h1.9M70 60.1v4.1"/><path class="cls-1" d="M123.3 71.4h62.8"/><path class="cls-16" d="M123.3 64.2h62.9v2.2h-62.9zM126.9 64.2v2.1M182.5 64.2v2.1M123.3 66.3v-2.1M142.2 66.3v-2.1M126.9 66.3v-2.1M146.3 66.3v-2.1M142.2 66.3v-2.1M163.1 66.3v-2.1M146.3 66.3v-2.1M167.2 66.3v-2.1M163.1 66.3v-2.1M182.5 66.3v-2.1M167.2 66.3v-2.1M186.1 66.3v-2.1"/><path class="cls-17" d="M123.3 66.3v5.1"/><path class="cls-16" d="M187.6 56.7v-1.9"/><path class="cls-7" d="M187.6 54.8h-66"/><path class="cls-16" d="M121.6 54.8v1"/><path class="cls-21" d="M123.2 60.7h1.8v3.4h-1.8"/><path class="cls-15" d="M124.7 64.2v-3.4M123.2 60.7h1.8v3.4h-1.8"/><path class="cls-21" d="M123.3 56.7h1.6v3.4h-1.6"/><path class="cls-15" d="M123.5 57.4l1.7 1.7"/><path class="cls-17" d="M123.3 56.7h1.6v3.4h-1.6M124.9 60.1v4.1"/><path class="cls-21" d="M186.1 60.7h-1.8v3.4h1.8"/><path class="cls-15" d="M185.7 64.2v-3.4M186.1 60.7h-1.8v3.4h1.8"/><path class="cls-17" d="M186.1 66.3v5.1"/><path class="cls-21" d="M186.1 56.7h-1.9v3.4h1.9"/><path class="cls-15" d="M184.5 58.4l1.6 1.7"/><path class="cls-17" d="M186.1 56.7h-1.9v3.4h1.9M184.2 60.1v4.1"/><path class="cls-16" d="M239.2 64.2v-7.5h-3.4v-1.9h43.9v1.9h-3.3v7.5"/><path class="cls-1" d="M237.5 71.4h40.8"/><path class="cls-16" d="M277.8 71.4h.5"/><path class="cls-17" d="M239.2 56.7h-3.4M276.4 56.7h3.3"/><path class="cls-16" d="M237.5 64.2h40.8v2.2h-40.8zM241.1 64.2v2.1M274.5 64.2v2.1M237.5 66.3v-2.1M255.7 66.3v-2.1M241.1 66.3v-2.1M259.8 66.3v-2.1M255.7 66.3v-2.1M274.5 66.3v-2.1M259.8 66.3v-2.1M278.3 66.3v-2.1"/><path class="cls-21" d="M237.4 60.7h1.9v3.4h-1.9"/><path class="cls-15" d="M238 64.2v-3.4M237.4 60.7h1.9v3.4h-1.9"/><path class="cls-17" d="M237.5 66.3v5.1"/><path class="cls-21" d="M237.5 56.7h1.7v3.4h-1.7"/><path class="cls-15" d="M237.7 59.6l.5.5M238.7 56.7l.7.5"/><path class="cls-17" d="M237.5 56.7h1.7v3.4h-1.7M239.2 60.1v4.1"/><path class="cls-21" d="M278.3 60.7h-1.9v3.4h1.9"/><path class="cls-15" d="M277.8 64.2v-3.4M278.3 60.7h-1.9v3.4h1.9"/><path class="cls-17" d="M278.3 66.3v5.1"/><path class="cls-21" d="M278.3 56.7h-1.9v3.4h1.9"/><path class="cls-15" d="M276.6 58.4l1.7 1.7"/><path class="cls-17" d="M278.3 56.7h-1.9v3.4h1.9M276.4 60.1v4.1"/><path class="cls-21" d="M7.1 387.2h-7V66.3h7v320.9"/><path class="cls-15" d="M7.3 69.7L4 66.3M7.3 73.8l-6.9-7M7.3 77.6l-6.9-7M7.3 81.7l-6.9-7M7.3 85.8l-6.9-7M7.3 89.6l-6.9-7M7.3 93.7l-6.9-7M7.3 97.8l-6.9-7M7.3 101.8L.4 94.9M7.3 105.7l-6.9-7M7.3 109.8l-6.9-7M7.3 113.8l-6.9-6.9M7.3 117.7l-6.9-7M7.3 121.8l-6.9-7M7.3 125.8l-6.9-6.9M7.3 129.7l-6.9-7M7.3 133.8l-6.9-7M7.3 137.8l-6.9-6.9M7.3 141.9L.4 135M7.3 145.8l-6.9-7M7.3 149.8l-6.9-6.9M7.3 153.9L.4 147M7.3 157.8l-6.9-7M7.3 161.8l-6.9-6.9M7.3 165.9L.4 159M7.3 170l-6.9-7M7.3 173.8l-6.9-6.9M7.3 177.9L.4 171M7.3 182l-6.9-7M7.3 185.8l-6.9-6.9M7.3 189.9L.4 183M7.3 194l-6.9-7M7.3 197.8l-6.9-6.9M7.3 201.9L.4 195M7.3 206l-6.9-7M7.3 210.1l-6.9-7M7.3 213.9L.4 207M7.3 218l-6.9-7M7.3 222.1l-6.9-7M7.3 225.9L.4 219M7.3 230l-6.9-7M7.3 234.1l-6.9-7M7.3 237.9L.4 231M7.3 242l-6.9-7M7.3 246.1l-6.9-7M7.3 250.2l-6.9-7M7.3 254l-6.9-7M7.3 258.1l-6.9-7M7.3 262.2l-6.9-7M7.3 266l-6.9-7M7.3 270.1l-6.9-7M7.3 274.2l-6.9-7M7.3 278l-6.9-7M7.3 282.1l-6.9-7M7.3 286.2l-6.9-7M7.3 290.2l-6.9-6.9M7.3 294.1l-6.9-7M7.3 298.2l-6.9-7M7.3 302.2l-6.9-6.9M7.3 306.1l-6.9-7M7.3 310.2l-6.9-7M7.3 314.2l-6.9-6.9M7.3 318.3l-6.9-6.9M7.3 322.2l-6.9-7M7.3 326.2l-6.9-6.9M7.3 330.3l-6.9-6.9M7.3 334.2l-6.9-7M7.3 338.2l-6.9-6.9M7.3 342.3l-6.9-6.9M7.3 346.2l-6.9-7M7.3 350.2l-6.9-6.9M7.3 354.3l-6.9-6.9M7.3 358.4l-6.9-7M7.3 362.2l-6.9-6.9M7.3 366.3l-6.9-6.9M7.3 370.4l-6.9-7M7.3 374.2l-6.9-6.9M7.3 378.3l-6.9-6.9M7.3 382.4l-6.9-7M7.3 386.2l-6.9-6.9M4 387.2l-3.6-3.8M5.9 387.2l1.4-1.2M1.8 387.2l5.5-5.3M.4 384.8l6.9-7M.4 380.7l6.9-6.9M.4 376.9l6.9-7M.4 372.8l6.9-7M.4 368.7l6.9-6.9M.4 364.9l6.9-7M.4 360.8l6.9-7M.4 356.7l6.9-6.9M.4 352.9l6.9-7M.4 348.8l6.9-7M.4 344.7l6.9-6.9M.4 340.6l6.9-6.9M.4 336.8l6.9-7M.4 332.7l6.9-6.9M.4 328.6l6.9-6.9M.4 324.8l6.9-7M.4 320.7l6.9-6.9M.4 316.6l6.9-6.9M.4 312.8l6.9-7M.4 308.7l6.9-6.9M.4 304.6l6.9-6.9M.4 300.6l6.9-7M.4 296.7l6.9-6.9M.4 292.6l6.9-6.9M.4 288.6l6.9-7M.4 284.7l6.9-6.9M.4 280.6l6.9-6.9M.4 276.6l6.9-7M.4 272.5l6.9-7M.4 268.6l6.9-6.9M.4 264.6l6.9-7M.4 260.5l6.9-7M.4 256.6l6.9-6.9M.4 252.6l6.9-7M.4 248.5l6.9-7M.4 244.6l6.9-6.9M.4 240.6l6.9-7M.4 236.5l6.9-7M.4 232.4l6.9-7M.4 228.6l6.9-7M.4 224.5l6.9-7M.4 220.4l6.9-7M.4 216.6l6.9-7M.4 212.5l6.9-7M.4 208.4l6.9-7M.4 204.6l6.9-7M.4 200.5l6.9-7M.4 196.4l6.9-7M.4 192.3l6.9-6.9M.4 188.5l6.9-7M.4 184.4l6.9-7M.4 180.3l6.9-6.9M.4 176.5l6.9-7M.4 172.4l6.9-7M.4 168.3l6.9-6.9M.4 164.2l6.9-6.9M.4 160.4l6.9-7M.4 156.3l6.9-6.9M.4 152.2l6.9-6.9M.4 148.4l6.9-7M.4 144.3l6.9-6.9M.4 140.2l6.9-6.9M.4 136.4l6.9-7M.4 132.3l6.9-6.9M.4 128.2l6.9-6.9M.4 124.2l6.9-7M.4 120.3l6.9-6.9M.4 116.2l6.9-6.9M.4 112.2l6.9-7M.4 108.3l6.9-6.9M.4 104.2l6.9-6.9M.4 100.2l6.9-7M.4 96.3l6.9-6.9M.4 92.2l6.9-6.9M.4 88.2l6.9-7M.4 84.1l6.9-7M.4 80.2l6.9-6.9M.4 76.2l6.9-7M.4 72.1l5.7-5.8M.4 68.2l1.7-1.9"/><path class="cls-21" d="M.1 387.2h7V66.3h-7v320.9"/><path class="cls-15" d="M7.3 69.7L4 66.3M7.3 73.8l-6.9-7M7.3 77.6l-6.9-7M7.3 81.7l-6.9-7M7.3 85.8l-6.9-7M7.3 89.6l-6.9-7M7.3 93.7l-6.9-7M7.3 97.8l-6.9-7M7.3 101.8L.4 94.9M7.3 105.7l-6.9-7M7.3 109.8l-6.9-7M7.3 113.8l-6.9-6.9M7.3 117.7l-6.9-7M7.3 121.8l-6.9-7M7.3 125.8l-6.9-6.9M7.3 129.7l-6.9-7M7.3 133.8l-6.9-7M7.3 137.8l-6.9-6.9M7.3 141.9L.4 135M7.3 145.8l-6.9-7M7.3 149.8l-6.9-6.9M7.3 153.9L.4 147M7.3 157.8l-6.9-7M7.3 161.8l-6.9-6.9M7.3 165.9L.4 159M7.3 170l-6.9-7M7.3 173.8l-6.9-6.9M7.3 177.9L.4 171M7.3 182l-6.9-7M7.3 185.8l-6.9-6.9M7.3 189.9L.4 183M7.3 194l-6.9-7M7.3 197.8l-6.9-6.9M7.3 201.9L.4 195M7.3 206l-6.9-7M7.3 210.1l-6.9-7M7.3 213.9L.4 207M7.3 218l-6.9-7M7.3 222.1l-6.9-7M7.3 225.9L.4 219M7.3 230l-6.9-7M7.3 234.1l-6.9-7M7.3 237.9L.4 231M7.3 242l-6.9-7M7.3 246.1l-6.9-7M7.3 250.2l-6.9-7M7.3 254l-6.9-7M7.3 258.1l-6.9-7M7.3 262.2l-6.9-7M7.3 266l-6.9-7M7.3 270.1l-6.9-7M7.3 274.2l-6.9-7M7.3 278l-6.9-7M7.3 282.1l-6.9-7M7.3 286.2l-6.9-7M7.3 290.2l-6.9-6.9M7.3 294.1l-6.9-7M7.3 298.2l-6.9-7M7.3 302.2l-6.9-6.9M7.3 306.1l-6.9-7M7.3 310.2l-6.9-7M7.3 314.2l-6.9-6.9M7.3 318.3l-6.9-6.9M7.3 322.2l-6.9-7M7.3 326.2l-6.9-6.9M7.3 330.3l-6.9-6.9M7.3 334.2l-6.9-7M7.3 338.2l-6.9-6.9M7.3 342.3l-6.9-6.9M7.3 346.2l-6.9-7M7.3 350.2l-6.9-6.9M7.3 354.3l-6.9-6.9M7.3 358.4l-6.9-7M7.3 362.2l-6.9-6.9M7.3 366.3l-6.9-6.9M7.3 370.4l-6.9-7M7.3 374.2l-6.9-6.9M7.3 378.3l-6.9-6.9M7.3 382.4l-6.9-7M7.3 386.2l-6.9-6.9M4 387.2l-3.6-3.8M5.9 387.2l1.4-1.2M1.8 387.2l5.5-5.3M.4 384.8l6.9-7M.4 380.7l6.9-6.9M.4 376.9l6.9-7M.4 372.8l6.9-7M.4 368.7l6.9-6.9M.4 364.9l6.9-7M.4 360.8l6.9-7M.4 356.7l6.9-6.9M.4 352.9l6.9-7M.4 348.8l6.9-7M.4 344.7l6.9-6.9M.4 340.6l6.9-6.9M.4 336.8l6.9-7M.4 332.7l6.9-6.9M.4 328.6l6.9-6.9M.4 324.8l6.9-7M.4 320.7l6.9-6.9M.4 316.6l6.9-6.9M.4 312.8l6.9-7M.4 308.7l6.9-6.9M.4 304.6l6.9-6.9M.4 300.6l6.9-7M.4 296.7l6.9-6.9M.4 292.6l6.9-6.9M.4 288.6l6.9-7M.4 284.7l6.9-6.9M.4 280.6l6.9-6.9M.4 276.6l6.9-7M.4 272.5l6.9-7M.4 268.6l6.9-6.9M.4 264.6l6.9-7M.4 260.5l6.9-7M.4 256.6l6.9-6.9M.4 252.6l6.9-7M.4 248.5l6.9-7M.4 244.6l6.9-6.9M.4 240.6l6.9-7M.4 236.5l6.9-7M.4 232.4l6.9-7M.4 228.6l6.9-7M.4 224.5l6.9-7M.4 220.4l6.9-7M.4 216.6l6.9-7M.4 212.5l6.9-7M.4 208.4l6.9-7M.4 204.6l6.9-7M.4 200.5l6.9-7M.4 196.4l6.9-7M.4 192.3l6.9-6.9M.4 188.5l6.9-7M.4 184.4l6.9-7M.4 180.3l6.9-6.9M.4 176.5l6.9-7M.4 172.4l6.9-7M.4 168.3l6.9-6.9M.4 164.2l6.9-6.9M.4 160.4l6.9-7M.4 156.3l6.9-6.9M.4 152.2l6.9-6.9M.4 148.4l6.9-7M.4 144.3l6.9-6.9M.4 140.2l6.9-6.9M.4 136.4l6.9-7M.4 132.3l6.9-6.9M.4 128.2l6.9-6.9M.4 124.2l6.9-7M.4 120.3l6.9-6.9M.4 116.2l6.9-6.9M.4 112.2l6.9-7M.4 108.3l6.9-6.9M.4 104.2l6.9-6.9M.4 100.2l6.9-7M.4 96.3l6.9-6.9M.4 92.2l6.9-6.9M.4 88.2l6.9-7M.4 84.1l6.9-7M.4 80.2l6.9-6.9M.4 76.2l6.9-7M.4 72.1l5.7-5.8M.4 68.2l1.7-1.9"/><path class="cls-17" d="M7.1 387.2V66.3M.1 387.2V66.3M7.1 66.3h-7M.1 387.2V66.3M7.1 387.2V66.3M7.1 387.2h-7"/><path class="cls-21" d="M268.9 297.4v7.2h139.2l-7.2-7.2h-132"/><path class="cls-15" d="M406.5 304.6l-7.2-7.2M402.6 304.6l-7.2-7.2M398.5 304.6l-7.2-7.2M394.5 304.6l-7.2-7.2M390.6 304.6l-7.2-7.2M386.5 304.6l-7.2-7.2M382.5 304.6l-7.2-7.2M378.4 304.6l-7.2-7.2M374.5 304.6l-7.2-7.2M370.5 304.6l-7.2-7.2M366.4 304.6l-7.2-7.2M362.5 304.6l-7.2-7.2M358.5 304.6l-7.2-7.2M354.4 304.6l-7.2-7.2M350.5 304.6l-7.2-7.2M346.5 304.6l-7.2-7.2M342.4 304.6l-7.2-7.2M338.3 304.6l-7.2-7.2M334.5 304.6l-7.2-7.2M330.4 304.6l-7.2-7.2M326.3 304.6l-7.2-7.2M322.5 304.6l-7.2-7.2M318.4 304.6l-7.2-7.2M314.3 304.6l-7.2-7.2M310.5 304.6l-7.2-7.2M306.4 304.6l-7.2-7.2M302.3 304.6l-7.2-7.2M298.2 304.6l-7.2-7.2M294.4 304.6l-7.2-7.2M290.3 304.6l-7.2-7.2M286.2 304.6l-7.2-7.2M282.4 304.6l-7.2-7.2M278.3 304.6l-7.2-7.2M274.2 304.6l-5-5.2M270.4 304.6l-1.2-1.2M405.3 304.6l1.4-1.4M401.2 304.6l3.6-3.6M397.1 304.6l5.5-5.5M393.3 304.6l7.2-7.2M389.2 304.6l7.2-7.2M385.1 304.6l7.2-7.2M381 304.6l7.2-7.2M377.2 304.6l7.2-7.2M373.1 304.6l7.2-7.2M369 304.6l7.2-7.2M365.2 304.6l7.2-7.2M361.1 304.6l7.2-7.2M357 304.6l7.2-7.2M352.9 304.6l7.2-7.2M349.1 304.6l7.2-7.2M345 304.6l7.2-7.2M340.9 304.6l7.2-7.2M337.1 304.6l7.2-7.2M333 304.6l7.2-7.2M328.9 304.6l7.2-7.2M325.1 304.6l7.2-7.2M321 304.6l7.2-7.2M316.9 304.6l7.2-7.2M312.9 304.6l7.2-7.2M309 304.6l7.2-7.2M304.9 304.6l7.2-7.2M300.9 304.6l7.2-7.2M297 304.6l7.2-7.2M292.9 304.6l7.2-7.2M288.9 304.6l7.2-7.2M285 304.6l7.2-7.2M280.9 304.6l7.2-7.2M276.9 304.6l7.2-7.2M272.8 304.6l7.2-7.2M269.2 304.4l6.9-7M269.2 300.6l2.9-3.2"/><path class="cls-21" d="M268.9 297.4v7.2h139.2l-7.2-7.2h-132"/><path class="cls-15" d="M406.5 304.6l-7.2-7.2M402.6 304.6l-7.2-7.2M398.5 304.6l-7.2-7.2M394.5 304.6l-7.2-7.2M390.6 304.6l-7.2-7.2M386.5 304.6l-7.2-7.2M382.5 304.6l-7.2-7.2M378.4 304.6l-7.2-7.2M374.5 304.6l-7.2-7.2M370.5 304.6l-7.2-7.2M366.4 304.6l-7.2-7.2M362.5 304.6l-7.2-7.2M358.5 304.6l-7.2-7.2M354.4 304.6l-7.2-7.2M350.5 304.6l-7.2-7.2M346.5 304.6l-7.2-7.2M342.4 304.6l-7.2-7.2M338.3 304.6l-7.2-7.2M334.5 304.6l-7.2-7.2M330.4 304.6l-7.2-7.2M326.3 304.6l-7.2-7.2M322.5 304.6l-7.2-7.2M318.4 304.6l-7.2-7.2M314.3 304.6l-7.2-7.2M310.5 304.6l-7.2-7.2M306.4 304.6l-7.2-7.2M302.3 304.6l-7.2-7.2M298.2 304.6l-7.2-7.2M294.4 304.6l-7.2-7.2M290.3 304.6l-7.2-7.2M286.2 304.6l-7.2-7.2M282.4 304.6l-7.2-7.2M278.3 304.6l-7.2-7.2M274.2 304.6l-5-5.2M270.4 304.6l-1.2-1.2M405.3 304.6l1.4-1.4M401.2 304.6l3.6-3.6M397.1 304.6l5.5-5.5M393.3 304.6l7.2-7.2M389.2 304.6l7.2-7.2M385.1 304.6l7.2-7.2M381 304.6l7.2-7.2M377.2 304.6l7.2-7.2M373.1 304.6l7.2-7.2M369 304.6l7.2-7.2M365.2 304.6l7.2-7.2M361.1 304.6l7.2-7.2M357 304.6l7.2-7.2M352.9 304.6l7.2-7.2M349.1 304.6l7.2-7.2M345 304.6l7.2-7.2M340.9 304.6l7.2-7.2M337.1 304.6l7.2-7.2M333 304.6l7.2-7.2M328.9 304.6l7.2-7.2M325.1 304.6l7.2-7.2M321 304.6l7.2-7.2M316.9 304.6l7.2-7.2M312.9 304.6l7.2-7.2M309 304.6l7.2-7.2M304.9 304.6l7.2-7.2M300.9 304.6l7.2-7.2M297 304.6l7.2-7.2M292.9 304.6l7.2-7.2M288.9 304.6l7.2-7.2M285 304.6l7.2-7.2M280.9 304.6l7.2-7.2M276.9 304.6l7.2-7.2M272.8 304.6l7.2-7.2M269.2 304.4l6.9-7M269.2 300.6l2.9-3.2"/><path class="cls-17" d="M400.9 297.4h-132M305.9 304.6h-37M408.1 304.6h-95M305.9 304.6h-37M400.9 297.4h-132M408.1 304.6h-95"/><path class="cls-21" d="M263.2 294.8l5.7 9.8v-74.8l-5.7 10.3v54.7"/><path class="cls-15" d="M269.2 231.2l-.7-.5M269.2 235.3l-2.2-1.9M269.2 239.4l-3.6-3.4M269.2 243.2l-5.1-4.8M269.2 247.3l-5.8-5.8M269.2 251.4l-5.8-5.8M269.2 255.4l-5.8-5.7M269.2 259.3l-5.8-5.8M269.2 263.4l-5.8-5.8M269.2 267.4l-5.8-5.7M269.2 271.3l-5.8-5.8M269.2 275.4l-5.8-5.8M269.2 279.4l-5.8-5.7M269.2 283.3l-5.8-5.8M269.2 287.4l-5.8-5.8M269.2 291.4l-5.8-5.7M269.2 295.5l-5.8-5.7M269.2 299.4l-5.8-5.8M269.2 303.4l-1.9-1.6M268.9 304.6l.3-.2M267.5 302l1.7-1.4M266.1 299.4l3.1-2.9M264.6 297l4.6-4.6M263.4 294.1l5.8-5.8M263.4 290.2l5.8-5.7M263.4 286.2l5.8-5.8M263.4 282.1l5.8-5.8M263.4 278.2l5.8-5.7M263.4 274.2l5.8-5.8M263.4 270.1l5.8-5.8M263.4 266l5.8-5.8M263.4 262.2l5.8-5.8M263.4 258.1l5.8-5.8M263.4 254l5.8-5.8M263.4 250.2l5.8-5.8M263.4 246.1l5.8-5.8M263.4 242l5.8-5.8M265.8 235.5l3.4-3.1"/><path class="cls-21" d="M263.2 294.8l5.7 9.8v-74.8l-5.7 10.3v54.7"/><path class="cls-15" d="M269.2 231.2l-.7-.5M269.2 235.3l-2.2-1.9M269.2 239.4l-3.6-3.4M269.2 243.2l-5.1-4.8M269.2 247.3l-5.8-5.8M269.2 251.4l-5.8-5.8M269.2 255.4l-5.8-5.7M269.2 259.3l-5.8-5.8M269.2 263.4l-5.8-5.8M269.2 267.4l-5.8-5.7M269.2 271.3l-5.8-5.8M269.2 275.4l-5.8-5.8M269.2 279.4l-5.8-5.7M269.2 283.3l-5.8-5.8M269.2 287.4l-5.8-5.8M269.2 291.4l-5.8-5.7M269.2 295.5l-5.8-5.7M269.2 299.4l-5.8-5.8M269.2 303.4l-1.9-1.6M268.9 304.6l.3-.2M267.5 302l1.7-1.4M266.1 299.4l3.1-2.9M264.6 297l4.6-4.6M263.4 294.1l5.8-5.8M263.4 290.2l5.8-5.7M263.4 286.2l5.8-5.8M263.4 282.1l5.8-5.8M263.4 278.2l5.8-5.7M263.4 274.2l5.8-5.8M263.4 270.1l5.8-5.8M263.4 266l5.8-5.8M263.4 262.2l5.8-5.8M263.4 258.1l5.8-5.8M263.4 254l5.8-5.8M263.4 250.2l5.8-5.8M263.4 246.1l5.8-5.8M263.4 242l5.8-5.8M265.8 235.5l3.4-3.1"/><path class="cls-17" d="M263.2 240.1v54.7M268.9 229.8v67.6M268.9 229.8v67.6M263.2 240.1v54.7"/><path class="cls-21" d="M313.1 304.6h-7.2v126.5h7.2V304.6"/><path class="cls-15" d="M313.3 307.5l-2.8-2.9M313.3 311.6l-6.9-7M313.3 315.4l-7.2-7.2M313.3 319.5l-7.2-7.2M313.3 323.6l-7.2-7.2M313.3 327.4l-7.2-7.2M313.3 331.5l-7.2-7.2M313.3 335.6l-7.2-7.2M313.3 339.7l-7.2-7.2M313.3 343.5l-7.2-7.2M313.3 347.6l-7.2-7.2M313.3 351.7l-7.2-7.2M313.3 355.5l-7.2-7.2M313.3 359.6l-7.2-7.2M313.3 363.7l-7.2-7.2M313.3 367.8l-7.2-7.2M313.3 371.6l-7.2-7.2M313.3 375.7l-7.2-7.2M313.3 379.8l-7.2-7.2M313.3 383.6l-7.2-7.2M313.3 387.7l-7.2-7.2M313.3 391.8l-7.2-7.2M313.3 395.6l-7.2-7.2M313.3 399.7l-7.2-7.2M313.3 403.8l-7.2-7.2M313.3 407.8l-7.2-7.2M313.3 411.7l-7.2-7.2M313.3 415.8l-7.2-7.2M313.3 419.8l-7.2-7.2M313.3 423.7l-7.2-7.2M313.3 427.8l-7.2-7.2M312.6 431.1l-6.5-6.5M308.5 431.1l-2.4-2.6M310.7 431.1l2.6-2.4M306.9 431.1l6.4-6.5M306.1 427.8l7.2-7.2M306.1 423.9l7.2-7.2M306.1 419.8l7.2-7.2M306.1 415.8l7.2-7.2M306.1 411.9l7.2-7.2M306.1 407.8l7.2-7.2M306.1 403.8l7.2-7.2M306.1 399.7l7.2-7.2M306.1 395.8l7.2-7.2M306.1 391.8l7.2-7.2M306.1 387.7l7.2-7.2M306.1 383.8l7.2-7.2M306.1 379.8l7.2-7.2M306.1 375.7l7.2-7.2M306.1 371.8l7.2-7.2M306.1 367.8l7.2-7.2M306.1 363.7l7.2-7.2M306.1 359.6l7.2-7.2M306.1 355.8l7.2-7.2M306.1 351.7l7.2-7.2M306.1 347.6l7.2-7.2M306.1 343.8l7.2-7.2M306.1 339.7l7.2-7.2M306.1 335.6l7.2-7.2M306.1 331.5l7.2-7.2M306.1 327.7l7.2-7.2M306.1 323.6l7.2-7.2M306.1 319.5l7.2-7.2M306.1 315.7l7.2-7.2M306.1 311.6l6.8-7M306.1 307.5l2.9-2.9"/><path class="cls-21" d="M313.1 304.6h-7.2v126.5h7.2V304.6"/><path class="cls-15" d="M313.3 307.5l-2.8-2.9M313.3 311.6l-6.9-7M313.3 315.4l-7.2-7.2M313.3 319.5l-7.2-7.2M313.3 323.6l-7.2-7.2M313.3 327.4l-7.2-7.2M313.3 331.5l-7.2-7.2M313.3 335.6l-7.2-7.2M313.3 339.7l-7.2-7.2M313.3 343.5l-7.2-7.2M313.3 347.6l-7.2-7.2M313.3 351.7l-7.2-7.2M313.3 355.5l-7.2-7.2M313.3 359.6l-7.2-7.2M313.3 363.7l-7.2-7.2M313.3 367.8l-7.2-7.2M313.3 371.6l-7.2-7.2M313.3 375.7l-7.2-7.2M313.3 379.8l-7.2-7.2M313.3 383.6l-7.2-7.2M313.3 387.7l-7.2-7.2M313.3 391.8l-7.2-7.2M313.3 395.6l-7.2-7.2M313.3 399.7l-7.2-7.2M313.3 403.8l-7.2-7.2M313.3 407.8l-7.2-7.2M313.3 411.7l-7.2-7.2M313.3 415.8l-7.2-7.2M313.3 419.8l-7.2-7.2M313.3 423.7l-7.2-7.2M313.3 427.8l-7.2-7.2M312.6 431.1l-6.5-6.5M308.5 431.1l-2.4-2.6M310.7 431.1l2.6-2.4M306.9 431.1l6.4-6.5M306.1 427.8l7.2-7.2M306.1 423.9l7.2-7.2M306.1 419.8l7.2-7.2M306.1 415.8l7.2-7.2M306.1 411.9l7.2-7.2M306.1 407.8l7.2-7.2M306.1 403.8l7.2-7.2M306.1 399.7l7.2-7.2M306.1 395.8l7.2-7.2M306.1 391.8l7.2-7.2M306.1 387.7l7.2-7.2M306.1 383.8l7.2-7.2M306.1 379.8l7.2-7.2M306.1 375.7l7.2-7.2M306.1 371.8l7.2-7.2M306.1 367.8l7.2-7.2M306.1 363.7l7.2-7.2M306.1 359.6l7.2-7.2M306.1 355.8l7.2-7.2M306.1 351.7l7.2-7.2M306.1 347.6l7.2-7.2M306.1 343.8l7.2-7.2M306.1 339.7l7.2-7.2M306.1 335.6l7.2-7.2M306.1 331.5l7.2-7.2M306.1 327.7l7.2-7.2M306.1 323.6l7.2-7.2M306.1 319.5l7.2-7.2M306.1 315.7l7.2-7.2M306.1 311.6l6.8-7M306.1 307.5l2.9-2.9"/><path class="cls-17" d="M313.1 431.1V304.6M305.9 431.1V304.6M305.9 431.1V304.6M313.1 431.1V304.6M313.1 431.1h-7.2"/><path class="cls-16" d="M400.9 258.3h-33.8M400.9 250.6h-33.8M400.9 243h-33.8M400.9 235.3h-33.8M268.9 235.3H303M268.9 243H303M268.9 250.6H303M268.9 258.3H303M342.6 297.4l7.9-35.2M303 230h64.1v33.6H303zM286 235.3l-3.9 3.8h7.7l-3.8-3.8zM361.8 263.6v33.8M354.1 263.6v33.8M346.5 263.6v33.8M338.8 263.6v33.8M331.1 263.6v33.8M323.4 263.6v33.8M315.7 263.6v33.8M308.1 263.6v33.8"/><path class="cls-16" d="M304.2 231.4h61.4v30.7h-61.4zM308.1 280.6l3.8 3.9v-7.7l-3.8 3.8zM346.5 280.6l3.8 3.9v-7.7l-3.8 3.8zM383.9 258.3l3.8-3.8h-7.6l3.8 3.8z"/><path class="cls-21" d="M210.9 97.5h4V193h-4V97.5"/><path class="cls-15" d="M211.1 98.5l.7-1M211.1 102.6l4.1-4.1M211.1 106.9l4.1-4.1M211.1 111.2l4.1-4.1M211.1 115.3l4.1-4.1M211.1 119.6l4.1-4.1M211.1 123.9l4.1-4.1M211.1 128.2l4.1-4M211.1 132.3l4.1-4.1M211.1 136.6l4.1-4M211.1 141l4.1-4.1M211.1 145l4.1-4M211.1 149.4l4.1-4.1M211.1 153.7l4.1-4.1M211.1 158l4.1-4.1M211.1 162.1l4.1-4.1M211.1 166.4l4.1-4.1M211.1 170.7l4.1-4.1M211.1 174.8l4.1-4.1M211.1 179.1l4.1-4.1M211.1 183.4l4.1-4M211.1 187.8l4.1-4.1M211.1 191.8l4.1-4M214 193l1.2-.9"/><path class="cls-21" d="M214.9 97.5h-4V193h4V97.5"/><path class="cls-15" d="M211.1 98.5l.7-1M211.1 102.6l4.1-4.1M211.1 106.9l4.1-4.1M211.1 111.2l4.1-4.1M211.1 115.3l4.1-4.1M211.1 119.6l4.1-4.1M211.1 123.9l4.1-4.1M211.1 128.2l4.1-4M211.1 132.3l4.1-4.1M211.1 136.6l4.1-4M211.1 141l4.1-4.1M211.1 145l4.1-4M211.1 149.4l4.1-4.1M211.1 153.7l4.1-4.1M211.1 158l4.1-4.1M211.1 162.1l4.1-4.1M211.1 166.4l4.1-4.1M211.1 170.7l4.1-4.1M211.1 174.8l4.1-4.1M211.1 179.1l4.1-4.1M211.1 183.4l4.1-4M211.1 187.8l4.1-4.1M211.1 191.8l4.1-4M214 193l1.2-.9"/><path class="cls-17" d="M210.9 97.5V193M214.9 97.5V193M214.9 97.5V193M210.9 97.5V193M210.9 71.4h4"/><path class="cls-16" d="M210.9 73.3h4M210.9 95.8h4"/><path class="cls-17" d="M210.9 71.4h4M210.9 97.5h4"/><path class="cls-15" d="M237.7 95.8c0-12.4-10.2-22.7-22.7-22.7M214.9 95.8h22.8"/><path class="cls-21" d="M305.9 66.3V189h7.2V66.3h-7.2"/><path class="cls-15" d="M313.3 67l-.7-.7M313.3 70.9l-4.8-4.6M313.3 75l-7.2-7.2M313.3 79l-7.2-7.2M313.3 83.1l-7.2-7.2M313.3 87l-7.2-7.2M313.3 91l-7.2-7.2M313.3 95.1l-7.2-7.2M313.3 99l-7.2-7.2M313.3 103l-7.2-7.2M313.3 107.1l-7.2-7.2M313.3 111.2l-7.2-7.2M313.3 115l-7.2-7.2M313.3 119.1l-7.2-7.2M313.3 123.2l-7.2-7.2M313.3 127l-7.2-7.2M313.3 131.1l-7.2-7.2M313.3 135.2l-7.2-7.2M313.3 139l-7.2-7.2M313.3 143.1l-7.2-7.2M313.3 147.2l-7.2-7.2M313.3 151.3l-7.2-7.2M313.3 155.1l-7.2-7.2M313.3 159.2l-7.2-7.2M313.3 163.3l-7.2-7.2M313.3 167.1l-7.2-7.2M313.3 171.2l-7.2-7.2M313.3 175.3l-7.2-7.2M313.3 179.1l-7.2-7.2M313.3 183.2l-7.2-7.2M313.3 187.3l-7.2-7.2M310.9 189l-4.8-4.8M306.9 189l-.8-1M312.4 189l.9-.8M308.3 189l5-4.8M306.1 187.3l7.2-7.2M306.1 183.2l7.2-7.2M306.1 179.4l7.2-7.2M306.1 175.3l7.2-7.2M306.1 171.2l7.2-7.2M306.1 167.4l7.2-7.2M306.1 163.3l7.2-7.2M306.1 159.2l7.2-7.2M306.1 155.4l7.2-7.2M306.1 151.3l7.2-7.2M306.1 147.2l7.2-7.2M306.1 143.1l7.2-7.2M306.1 139.3l7.2-7.2M306.1 135.2l7.2-7.2M306.1 131.1l7.2-7.2M306.1 127.3l7.2-7.2M306.1 123.2l7.2-7.2M306.1 119.1l7.2-7.2M306.1 115l7.2-7.2M306.1 111.2l7.2-7.2M306.1 107.1l7.2-7.2M306.1 103l7.2-7.2M306.1 99.2l7.2-7.2M306.1 95.1l7.2-7.2M306.1 91l7.2-7.2M306.1 87.2l7.2-7.2M306.1 83.1l7.2-7.2M306.1 79l7.2-7.2M306.1 75l7.2-7.2M306.1 71.1l4.6-4.8M306.1 67l.8-.7"/><path class="cls-21" d="M305.9 66.3V189h7.2V66.3h-7.2"/><path class="cls-15" d="M313.3 67l-.7-.7M313.3 70.9l-4.8-4.6M313.3 75l-7.2-7.2M313.3 79l-7.2-7.2M313.3 83.1l-7.2-7.2M313.3 87l-7.2-7.2M313.3 91l-7.2-7.2M313.3 95.1l-7.2-7.2M313.3 99l-7.2-7.2M313.3 103l-7.2-7.2M313.3 107.1l-7.2-7.2M313.3 111.2l-7.2-7.2M313.3 115l-7.2-7.2M313.3 119.1l-7.2-7.2M313.3 123.2l-7.2-7.2M313.3 127l-7.2-7.2M313.3 131.1l-7.2-7.2M313.3 135.2l-7.2-7.2M313.3 139l-7.2-7.2M313.3 143.1l-7.2-7.2M313.3 147.2l-7.2-7.2M313.3 151.3l-7.2-7.2M313.3 155.1l-7.2-7.2M313.3 159.2l-7.2-7.2M313.3 163.3l-7.2-7.2M313.3 167.1l-7.2-7.2M313.3 171.2l-7.2-7.2M313.3 175.3l-7.2-7.2M313.3 179.1l-7.2-7.2M313.3 183.2l-7.2-7.2M313.3 187.3l-7.2-7.2M310.9 189l-4.8-4.8M306.9 189l-.8-1M312.4 189l.9-.8M308.3 189l5-4.8M306.1 187.3l7.2-7.2M306.1 183.2l7.2-7.2M306.1 179.4l7.2-7.2M306.1 175.3l7.2-7.2M306.1 171.2l7.2-7.2M306.1 167.4l7.2-7.2M306.1 163.3l7.2-7.2M306.1 159.2l7.2-7.2M306.1 155.4l7.2-7.2M306.1 151.3l7.2-7.2M306.1 147.2l7.2-7.2M306.1 143.1l7.2-7.2M306.1 139.3l7.2-7.2M306.1 135.2l7.2-7.2M306.1 131.1l7.2-7.2M306.1 127.3l7.2-7.2M306.1 123.2l7.2-7.2M306.1 119.1l7.2-7.2M306.1 115l7.2-7.2M306.1 111.2l7.2-7.2M306.1 107.1l7.2-7.2M306.1 103l7.2-7.2M306.1 99.2l7.2-7.2M306.1 95.1l7.2-7.2M306.1 91l7.2-7.2M306.1 87.2l7.2-7.2M306.1 83.1l7.2-7.2M306.1 79l7.2-7.2M306.1 75l7.2-7.2M306.1 71.1l4.6-4.8M306.1 67l.8-.7"/><path class="cls-17" d="M313.1 189V66.3M305.9 189V66.3M313.1 66.3h-7.2M305.9 189V66.3M313.1 189V66.3"/><path class="cls-21" d="M217.8 294.8l-6.9 9.8h58l-5.7-9.8h-45.4"/><path class="cls-15" d="M267.3 301.8l-6.8-7M266.3 304.6l-9.8-9.8M262.2 304.6l-9.8-9.8M258.1 304.6l-9.8-9.8M254.3 304.6l-9.8-9.8M250.2 304.6l-9.8-9.8M246.1 304.6l-9.8-9.8M242.3 304.6l-9.8-9.8M238.2 304.6l-9.8-9.8M234.1 304.6l-9.8-9.8M230.1 304.6l-9.9-9.8M226.2 304.6l-8.9-8.8M222.1 304.6l-6.4-6.4M218.1 304.6l-4.1-4M214.2 304.6l-1.9-1.9M264.9 304.6l2.6-2.6M260.8 304.6l5.3-5.2M256.9 304.6l7.7-7.6M252.9 304.6l9.8-9.8M248.8 304.6l9.8-9.8M244.7 304.6l9.8-9.8M240.9 304.6l9.8-9.8M236.8 304.6l9.8-9.8M232.7 304.6l9.8-9.8M228.9 304.6l9.8-9.8M224.8 304.6l9.8-9.8M220.7 304.6l9.8-9.8M216.9 304.6l9.8-9.8M212.8 304.6l9.8-9.8M216.4 297l2.1-2.2"/><path class="cls-21" d="M217.8 294.8l-6.9 9.8h58l-5.7-9.8h-45.4"/><path class="cls-15" d="M267.3 301.8l-6.8-7M266.3 304.6l-9.8-9.8M262.2 304.6l-9.8-9.8M258.1 304.6l-9.8-9.8M254.3 304.6l-9.8-9.8M250.2 304.6l-9.8-9.8M246.1 304.6l-9.8-9.8M242.3 304.6l-9.8-9.8M238.2 304.6l-9.8-9.8M234.1 304.6l-9.8-9.8M230.1 304.6l-9.9-9.8M226.2 304.6l-8.9-8.8M222.1 304.6l-6.4-6.4M218.1 304.6l-4.1-4M214.2 304.6l-1.9-1.9M264.9 304.6l2.6-2.6M260.8 304.6l5.3-5.2M256.9 304.6l7.7-7.6M252.9 304.6l9.8-9.8M248.8 304.6l9.8-9.8M244.7 304.6l9.8-9.8M240.9 304.6l9.8-9.8M236.8 304.6l9.8-9.8M232.7 304.6l9.8-9.8M228.9 304.6l9.8-9.8M224.8 304.6l9.8-9.8M220.7 304.6l9.8-9.8M216.9 304.6l9.8-9.8M212.8 304.6l9.8-9.8M216.4 297l2.1-2.2"/><path class="cls-17" d="M263.2 294.8h-45.4M268.9 304.6h-54M268.9 304.6h-54M263.2 294.8h-45.4M214.9 304.6h-4"/><path class="cls-21" d="M408.1 193.8h-7.2v2.4l7.2-7.2v4.8"/><path class="cls-15" d="M408.4 190.2l-.7-.8M407.9 193.8l-2.2-2.2M403.8 193.8l-.2-.3M401.7 195.4l-.5-.4M407.9 193.8l.5-.5M403.8 193.8l4.6-4.6"/><path class="cls-21" d="M400.9 193.8h7.2V189l-7.2 7.2v-2.4"/><path class="cls-15" d="M408.4 190.2l-.7-.8M407.9 193.8l-2.2-2.2M403.8 193.8l-.2-.3M401.7 195.4l-.5-.4M407.9 193.8l.5-.5M403.8 193.8l4.6-4.6"/><path class="cls-17" d="M408.1 193.8V189M400.9 193.8v2.4M400.9 193.8v2.4M408.1 193.8V189"/><path class="cls-21" d="M400.9 226.2v71.2l7.2 7.2v-78.4h-7.2"/><path class="cls-15" d="M408.4 226.2h-.3M408.4 230.2l-4.1-4M408.4 234.1l-7.2-7.2M408.4 238.2l-7.2-7.2M408.4 242.2l-7.2-7.2M408.4 246.3l-7.2-7.2M408.4 250.2l-7.2-7.2M408.4 254.2l-7.2-7.2M408.4 258.3l-7.2-7.2M408.4 262.2l-7.2-7.2M408.4 266.2l-7.2-7.2M408.4 270.3l-7.2-7.2M408.4 274.2l-7.2-7.2M408.4 278.2l-7.2-7.2M408.4 282.3l-7.2-7.2M408.4 286.4l-7.2-7.2M408.4 290.2l-7.2-7.2M408.4 294.3l-7.2-7.2M408.4 298.4l-7.2-7.2M408.4 302.2l-7.2-7.2M406.7 303.2l1.7-1.7M404.8 301l3.6-3.6M402.6 299.1l5.8-5.5M401.2 296.7l7.2-7.2M401.2 292.6l7.2-7.2M401.2 288.8l7.2-7.2M401.2 284.7l7.2-7.2M401.2 280.6l7.2-7.2M401.2 276.8l7.2-7.2M401.2 272.7l7.2-7.2M401.2 268.6l7.2-7.2M401.2 264.6l7.2-7.2M401.2 260.7l7.2-7.2M401.2 256.6l7.2-7.2M401.2 252.6l7.2-7.2M401.2 248.7l7.2-7.2M401.2 244.6l7.2-7.2M401.2 240.6l7.2-7.2M401.2 236.5l7.2-7.2M401.2 232.6l6.2-6.4M401.2 228.6l2.4-2.4"/><path class="cls-21" d="M400.9 226.2v71.2l7.2 7.2v-78.4h-7.2"/><path class="cls-15" d="M408.4 226.2h-.3M408.4 230.2l-4.1-4M408.4 234.1l-7.2-7.2M408.4 238.2l-7.2-7.2M408.4 242.2l-7.2-7.2M408.4 246.3l-7.2-7.2M408.4 250.2l-7.2-7.2M408.4 254.2l-7.2-7.2M408.4 258.3l-7.2-7.2M408.4 262.2l-7.2-7.2M408.4 266.2l-7.2-7.2M408.4 270.3l-7.2-7.2M408.4 274.2l-7.2-7.2M408.4 278.2l-7.2-7.2M408.4 282.3l-7.2-7.2M408.4 286.4l-7.2-7.2M408.4 290.2l-7.2-7.2M408.4 294.3l-7.2-7.2M408.4 298.4l-7.2-7.2M408.4 302.2l-7.2-7.2M406.7 303.2l1.7-1.7M404.8 301l3.6-3.6M402.6 299.1l5.8-5.5M401.2 296.7l7.2-7.2M401.2 292.6l7.2-7.2M401.2 288.8l7.2-7.2M401.2 284.7l7.2-7.2M401.2 280.6l7.2-7.2M401.2 276.8l7.2-7.2M401.2 272.7l7.2-7.2M401.2 268.6l7.2-7.2M401.2 264.6l7.2-7.2M401.2 260.7l7.2-7.2M401.2 256.6l7.2-7.2M401.2 252.6l7.2-7.2M401.2 248.7l7.2-7.2M401.2 244.6l7.2-7.2M401.2 240.6l7.2-7.2M401.2 236.5l7.2-7.2M401.2 232.6l6.2-6.4M401.2 228.6l2.4-2.4"/><path class="cls-17" d="M408.1 304.6v-78.4M400.9 297.4v-71.2M400.9 297.4v-71.2M408.1 304.6v-78.4"/><path class="cls-16" d="M406.9 223.5h1.7v2.6h-1.7zM406.9 193.8h1.7v2.6h-1.7zM406.9 196.4h1.7v27.1h-1.7zM406.9 223.5v-27.1"/><path class="cls-1" d="M400.9 223.8v-27.6"/><path class="cls-16" d="M400.9 196.6v-.4"/><path class="cls-21" d="M400.9 226.2v-2.4h6v2.4h1.2"/><path class="cls-15" d="M407.2 225l-1.5-1.2M404.3 226.2l-2.4-2.4M403.6 226.2l2.4-2.4M401.2 224.5l.7-.7"/><path class="cls-17" d="M400.9 226.2v-2.4h6v2.4h1.2"/><path class="cls-21" d="M401 193.8v2.3h6v-2.3h1.1"/><path class="cls-15" d="M406.2 196.2l-2.4-2.4M402.4 196.2l-1.2-1.2M405.5 196.2l1.7-1.7M401.4 196.2l2.4-2.4"/><path class="cls-17" d="M401 196.1h6v-2.3h1.1"/><path class="cls-21" d="M210.9 304.6l6.9-9.8v-68.6h-6.9v78.4"/><path class="cls-15" d="M218.1 228.3l-2.2-2.1M218.1 232.2l-6.3-6M218.1 236.2l-7-6.9M218.1 240.3l-7-6.9M218.1 244.4l-7-7M218.1 248.2l-7-6.9M218.1 252.3l-7-6.9M218.1 256.4l-7-7M218.1 260.2l-7-6.9M218.1 264.3l-7-6.9M218.1 268.4l-7-7M218.1 272.5l-7-7M218.1 276.3l-7-6.9M218.1 280.4l-7-7M218.1 284.5l-7-7M218.1 288.3l-7-6.9M218.1 292.4l-7-7M217.3 295.8l-6.2-6.3M215.7 298.2l-4.6-4.8M214 300.6l-2.9-3.2M212.3 302.7l-1.2-1.2M211.1 302.5l5.3-5.5M211.1 298.4l7-7M211.1 294.3l7-6.9M211.1 290.5l7-7M211.1 286.4l7-7M211.1 282.3l7-6.9M211.1 278.2l7-6.9M211.1 274.4l7-7M211.1 270.3l7-6.9M211.1 266.2l7-6.9M211.1 262.4l7-7M211.1 258.3l7-6.9M211.1 254.2l7-6.9M211.1 250.4l7-7M211.1 246.3l7-6.9M211.1 242.2l7-6.9M211.1 238.2l7-7M211.1 234.3l7-6.9M211.1 230.2l4.1-4M211.1 226.2"/><path class="cls-21" d="M210.9 304.6l6.9-9.8v-68.6h-6.9v78.4"/><path class="cls-15" d="M218.1 228.3l-2.2-2.1M218.1 232.2l-6.3-6M218.1 236.2l-7-6.9M218.1 240.3l-7-6.9M218.1 244.4l-7-7M218.1 248.2l-7-6.9M218.1 252.3l-7-6.9M218.1 256.4l-7-7M218.1 260.2l-7-6.9M218.1 264.3l-7-6.9M218.1 268.4l-7-7M218.1 272.5l-7-7M218.1 276.3l-7-6.9M218.1 280.4l-7-7M218.1 284.5l-7-7M218.1 288.3l-7-6.9M218.1 292.4l-7-7M217.3 295.8l-6.2-6.3M215.7 298.2l-4.6-4.8M214 300.6l-2.9-3.2M212.3 302.7l-1.2-1.2M211.1 302.5l5.3-5.5M211.1 298.4l7-7M211.1 294.3l7-6.9M211.1 290.5l7-7M211.1 286.4l7-7M211.1 282.3l7-6.9M211.1 278.2l7-6.9M211.1 274.4l7-7M211.1 270.3l7-6.9M211.1 266.2l7-6.9M211.1 262.4l7-7M211.1 258.3l7-6.9M211.1 254.2l7-6.9M211.1 250.4l7-7M211.1 246.3l7-6.9M211.1 242.2l7-6.9M211.1 238.2l7-7M211.1 234.3l7-6.9M211.1 230.2l4.1-4M211.1 226.2"/><path class="cls-17" d="M210.9 226.2v78.4M217.8 240.1v54.7M217.8 226.2v3.6M217.8 240.1v54.7M210.9 226.2v78.4M217.8 226.2v3.6"/><path class="cls-21" d="M210.9 189l6.9 7.2v-2.4h-6.9V189"/><path class="cls-15" d="M215.4 193.8l-4.3-4.6M211.6 193.8l-.5-.5M217.6 195.7l.5-.5M211.3 193.8l2.2-2.2M211.1 190.2l.5-.5"/><path class="cls-21" d="M217.8 196.2l-6.9-7.2v4.8h6.9v2.4"/><path class="cls-15" d="M215.4 193.8l-4.3-4.6M211.6 193.8l-.5-.5M217.6 195.7l.5-.5M211.3 193.8l2.2-2.2M211.1 190.2l.5-.5"/><path class="cls-17" d="M210.9 189v4.8M217.8 196.2v-2.4M217.8 196.2v-2.4M210.9 189v4.8"/><path class="cls-16" d="M210.1 193.8h1.7v2.6h-1.7zM210.1 223.5h1.7v2.6h-1.7zM210.1 196.4h1.7v27.1h-1.7zM211.8 196.4v27.1"/><path class="cls-1" d="M217.8 196.2v27.6"/><path class="cls-16" d="M217.8 223.3v.5"/><path class="cls-21" d="M217.9 193.8v2.3h-6v-2.3h-1.1"/><path class="cls-15" d="M217.8 196.2l-2.4-2.4M214 196.2l-1.9-2M217.1 196.2l1-1M213 196.2l2.4-2.4M211.3 193.8"/><path class="cls-17" d="M217.9 196.1h-6v-2.3h-1.1"/><path class="cls-21" d="M217.8 226.2v-2.4h-6v2.4h-.9"/><path class="cls-15" d="M218.1 224.2l-.8-.4M215.9 226.2l-2.4-2.4M215.2 226.2l2.4-2.4M212.1 225.2l1.4-1.4"/><path class="cls-17" d="M217.8 226.2v-2.4h-6v2.4h-.9"/><path class="cls-15" d="M183 196.3c0 14.9 12.3 27.2 27.2 27.2M210.1 196.4H183"/><path class="cls-16" d="M97.6 271.3h17.5v78.2H97.6zM112.9 348.8h2.2M112.9 340.4h2.2M112.9 323.4h2.2M112.9 306.3h2.2M112.9 289.3h2.2"/><path class="cls-21" d="M102.8 290.2h8.9c.3 0 .5 0 .8.2.2 0 .5.2.6.4.2.2.3.4.4.6 0 .2.2.5.2.8v11.2c0 .3 0 .5-.2.8-.1.2-.2.5-.4.6s-.4.3-.6.4c-.2 0-.5.2-.8.2h-8.9c-.3 0-.5 0-.8-.2-.2-.1-.5-.2-.6-.4-.2-.2-.3-.4-.4-.6 0-.2-.1-.5-.1-.8v-11.2c0-.3 0-.5.1-.8.1-.2.2-.5.4-.6.2-.2.4-.3.6-.4.2-.1.5-.2.8-.2"/><path class="cls-16" d="M102.8 290.2h8.9c.3 0 .5 0 .8.2.2 0 .5.2.6.4.2.2.3.4.4.6 0 .2.2.5.2.8v11.2c0 .3 0 .5-.2.8-.1.2-.2.5-.4.6s-.4.3-.6.4c-.2 0-.5.2-.8.2h-8.9c-.3 0-.5 0-.8-.2-.2-.1-.5-.2-.6-.4-.2-.2-.3-.4-.4-.6 0-.2-.1-.5-.1-.8v-11.2c0-.3 0-.5.1-.8.1-.2.2-.5.4-.6.2-.2.4-.3.6-.4.2-.1.5-.2.8-.2"/><path class="cls-21" d="M105.3 297.8c0-.6-.5-1.1-1.2-1.1s-1.2.5-1.2 1.1.5 1.1 1.2 1.1 1.2-.5 1.2-1.1"/><path class="cls-16" d="M105.3 297.8c0-.6-.5-1.1-1.2-1.1s-1.2.5-1.2 1.1.5 1.1 1.2 1.1 1.2-.5 1.2-1.1"/><path class="cls-20" d="M99 323.8h14.6v15.8H99z"/><path class="cls-16" d="M99 323.8h14.6v15.8H99z"/><path class="cls-21" d="M111.7 335.8c0-1.6-1.2-2.9-2.8-2.9s-2.8 1.3-2.8 2.9 1.2 2.9 2.8 2.9 2.8-1.3 2.8-2.9"/><path class="cls-16" d="M111.7 335.8c0-1.6-1.2-2.9-2.8-2.9s-2.8 1.3-2.8 2.9 1.2 2.9 2.8 2.9 2.8-1.3 2.8-2.9"/><path class="cls-21" d="M104.5 336.8c0-1.2-1-2.2-2.3-2.2s-2.3 1-2.3 2.2 1 2.2 2.3 2.2 2.3-1 2.3-2.2"/><path class="cls-16" d="M104.5 336.8c0-1.2-1-2.2-2.3-2.2s-2.3 1-2.3 2.2 1 2.2 2.3 2.2 2.3-1 2.3-2.2"/><path class="cls-21" d="M111.3 328.3c0-1.3-1-2.3-2.3-2.3s-2.3 1-2.3 2.3 1 2.3 2.3 2.3 2.3-1 2.3-2.3"/><path class="cls-16" d="M111.3 328.3c0-1.3-1-2.3-2.3-2.3s-2.3 1-2.3 2.3 1 2.3 2.3 2.3 2.3-1 2.3-2.3"/><path class="cls-21" d="M105.5 328.5c0-1.5-1.3-2.8-2.9-2.8s-2.9 1.2-2.9 2.8 1.3 2.8 2.9 2.8 2.9-1.2 2.9-2.8"/><path class="cls-16" d="M105.5 328.5c0-1.5-1.3-2.8-2.9-2.8s-2.9 1.2-2.9 2.8 1.3 2.8 2.9 2.8 2.9-1.2 2.9-2.8"/><path class="cls-1" d="M107.7 271.3v78.2"/><path class="cls-16" d="M107.7 349v.5M117.7 270.6h17v.7h-17zM117.7 255.2h.5v15.4h-.5zM134.1 255.2h.7v15.4h-.7zM117.7 254.7h17v.5h-17zM151.6 270.6h17v.7h-17zM151.6 255.2h.7v15.4h-.7zM168.1 255.2h.5v15.4h-.5zM151.6 254.7h17v.5h-17zM168.6 270.6h2.6v.7h-2.6z"/><path class="cls-16" d="M97.6 270.6h20.2v.7H97.6zM134.8 270.6h16.8v.7h-16.8zM134.8 255.2h.5v15.4h-.5zM151.1 255.2h.5v15.4h-.5zM134.8 254.7h16.8v.5h-16.8zM112.9 272.2h2.2"/><path class="cls-21" d="M93 354.6l4.3-4.1v-253H93v257.1"/><path class="cls-15" d="M93.3 101.6l3.8-4.1M93.3 105.7l4.3-4.3M93.3 110l4.3-4.3M93.3 114.3l4.3-4.3M93.3 118.4l4.3-4.3M93.3 122.7l4.3-4.3M93.3 127l4.3-4.3M93.3 131.1l4.3-4.3M93.3 135.4l4.3-4.3M93.3 139.8l4.3-4.4M93.3 144.1l4.3-4.3M93.3 148.2l4.3-4.4M93.3 152.5l4.3-4.3M93.3 156.8l4.3-4.3M93.3 160.9l4.3-4.3M93.3 165.2l4.3-4.3M93.3 169.5l4.3-4.3M93.3 173.8l4.3-4.3M93.3 177.9l4.3-4.3M93.3 182.2l4.3-4.3M93.3 186.6l4.3-4.4M93.3 190.6l4.3-4.3M93.3 195l4.3-4.4M93.3 199.3l4.3-4.3M93.3 203.6l4.3-4.3M93.3 207.7l4.3-4.3M93.3 212l4.3-4.3M93.3 216.3l4.3-4.3M93.3 220.4l4.3-4.3M93.3 224.7l4.3-4.3M93.3 229l4.3-4.3M93.3 233.1l4.3-4.3M93.3 237.4l4.3-4.3M93.3 241.8l4.3-4.4M93.3 246.1l4.3-4.3M93.3 250.2l4.3-4.4M93.3 254.5l4.3-4.3M93.3 258.8l4.3-4.3M93.3 262.9l4.3-4.3M93.3 267.2l4.3-4.3M93.3 271.5l4.3-4.3M93.3 275.8l4.3-4.3M93.3 279.9l4.3-4.3M93.3 284.2l4.3-4.3M93.3 288.6l4.3-4.4M93.3 292.6l4.3-4.3M93.3 297l4.3-4.4M93.3 301.3l4.3-4.3M93.3 305.6l4.3-4.3M93.3 309.7l4.3-4.3M93.3 314l4.3-4.3M93.3 318.3l4.3-4.3M93.3 322.4l4.3-4.3M93.3 326.7l4.3-4.3M93.3 331l4.3-4.3M93.3 335.1l4.3-4.3M93.3 339.4l4.3-4.3M93.3 343.8l4.3-4.4M93.3 348.1l4.3-4.3M93.3 352.2l4.3-4.4"/><path class="cls-21" d="M93 354.6l4.3-4.1v-253H93v257.1"/><path class="cls-15" d="M93.3 101.6l3.8-4.1M93.3 105.7l4.3-4.3M93.3 110l4.3-4.3M93.3 114.3l4.3-4.3M93.3 118.4l4.3-4.3M93.3 122.7l4.3-4.3M93.3 127l4.3-4.3M93.3 131.1l4.3-4.3M93.3 135.4l4.3-4.3M93.3 139.8l4.3-4.4M93.3 144.1l4.3-4.3M93.3 148.2l4.3-4.4M93.3 152.5l4.3-4.3M93.3 156.8l4.3-4.3M93.3 160.9l4.3-4.3M93.3 165.2l4.3-4.3M93.3 169.5l4.3-4.3M93.3 173.8l4.3-4.3M93.3 177.9l4.3-4.3M93.3 182.2l4.3-4.3M93.3 186.6l4.3-4.4M93.3 190.6l4.3-4.3M93.3 195l4.3-4.4M93.3 199.3l4.3-4.3M93.3 203.6l4.3-4.3M93.3 207.7l4.3-4.3M93.3 212l4.3-4.3M93.3 216.3l4.3-4.3M93.3 220.4l4.3-4.3M93.3 224.7l4.3-4.3M93.3 229l4.3-4.3M93.3 233.1l4.3-4.3M93.3 237.4l4.3-4.3M93.3 241.8l4.3-4.4M93.3 246.1l4.3-4.3M93.3 250.2l4.3-4.4M93.3 254.5l4.3-4.3M93.3 258.8l4.3-4.3M93.3 262.9l4.3-4.3M93.3 267.2l4.3-4.3M93.3 271.5l4.3-4.3M93.3 275.8l4.3-4.3M93.3 279.9l4.3-4.3M93.3 284.2l4.3-4.3M93.3 288.6l4.3-4.4M93.3 292.6l4.3-4.3M93.3 297l4.3-4.4M93.3 301.3l4.3-4.3M93.3 305.6l4.3-4.3M93.3 309.7l4.3-4.3M93.3 314l4.3-4.3M93.3 318.3l4.3-4.3M93.3 322.4l4.3-4.3M93.3 326.7l4.3-4.3M93.3 331l4.3-4.3M93.3 335.1l4.3-4.3M93.3 339.4l4.3-4.3M93.3 343.8l4.3-4.4M93.3 348.1l4.3-4.3M93.3 352.2l4.3-4.4"/><path class="cls-17" d="M93 253.8v100.8M93 198.6v50.8M93 97.5v96.7M97.3 253.8v96.7M97.3 184.2v64.5M97.3 97.5v82.3M97.3 253.8v96.7M93 253.8v100.8M93 198.6v50.8M97.3 184.2v64.5M93 97.5v96.7M97.3 97.5v82.3M93 71.4h4.3"/><path class="cls-16" d="M93 73.3h4.3M93 95.8h4.3"/><path class="cls-17" d="M93 71.4h4.3M93 97.5h4.3"/><path class="cls-15" d="M93 73.2c-12.4 0-22.7 10.2-22.7 22.7M93 95.8H70.2"/><path class="cls-21" d="M97.3 350.5l-4.3 4.1h10.1l4.3-4.1H97.3"/><path class="cls-15" d="M95.2 354.6l4.1-4.1M99.3 354.6l4-4.1"/><path class="cls-21" d="M97.3 350.5l-4.3 4.1h10.1l4.3-4.1H97.3"/><path class="cls-15" d="M95.2 354.6l4.1-4.1M99.3 354.6l4-4.1"/><path class="cls-17" d="M107.4 350.5H97.3M103.1 354.6H93M103.1 354.6H93M107.4 350.5H97.3"/><path class="cls-21" d="M97.3 248.7v5.1h74.4l4.1-5.1H97.3"/><path class="cls-15" d="M97.6 250.2l1.4-1.5M98.1 253.8l5-5.1M102.4 253.8l5-5.1M106.7 253.8l5-5.1M110.8 253.8l5-5.1M115.1 253.8l5-5.1M119.4 253.8l5.1-5.1M123.5 253.8l5-5.1M127.8 253.8l5.1-5.1M132.1 253.8l5.1-5.1M136.5 253.8l5-5.1M140.5 253.8l5.1-5.1M144.9 253.8l5-5.1M149.2 253.8l5-5.1M153.3 253.8l5-5.1M157.6 253.8l5-5.1M161.9 253.8l5-5.1M166.2 253.8l5.1-5.1M170.3 253.8l5-5.1"/><path class="cls-21" d="M97.3 248.7v5.1h74.4l4.1-5.1H97.3"/><path class="cls-15" d="M97.6 250.2l1.4-1.5M98.1 253.8l5-5.1M102.4 253.8l5-5.1M106.7 253.8l5-5.1M110.8 253.8l5-5.1M115.1 253.8l5-5.1M119.4 253.8l5.1-5.1M123.5 253.8l5-5.1M127.8 253.8l5.1-5.1M132.1 253.8l5.1-5.1M136.5 253.8l5-5.1M140.5 253.8l5.1-5.1M144.9 253.8l5-5.1M149.2 253.8l5-5.1M153.3 253.8l5-5.1M157.6 253.8l5-5.1M161.9 253.8l5-5.1M166.2 253.8l5.1-5.1M170.3 253.8l5-5.1"/><path class="cls-17" d="M154 248.7H97.3M175.8 248.7h-17.5M171.7 253.8H97.3M171.7 253.8H97.3M154 248.7H97.3M175.8 248.7h-17.5"/><path class="cls-21" d="M158.3 179.8l-4.3 4.4v37.9h4.3v-42.3"/><path class="cls-15" d="M154.2 185.1l4.3-4.3M154.2 189.2l4.3-4.3M154.2 193.5l4.3-4.3M154.2 197.8l4.3-4.3M154.2 201.9l4.3-4.3M154.2 206.2l4.3-4.3M154.2 210.6l4.3-4.4M154.2 214.9l4.3-4.3M154.2 219l4.3-4.4M155.2 222.1l3.3-3.1"/><path class="cls-21" d="M158.3 179.8l-4.3 4.4v37.9h4.3v-42.3"/><path class="cls-15" d="M154.2 185.1l4.3-4.3M154.2 189.2l4.3-4.3M154.2 193.5l4.3-4.3M154.2 197.8l4.3-4.3M154.2 201.9l4.3-4.3M154.2 206.2l4.3-4.3M154.2 210.6l4.3-4.4M154.2 214.9l4.3-4.3M154.2 219l4.3-4.4M155.2 222.1l3.3-3.1"/><path class="cls-17" d="M158.3 222.1v-38.7M154 222.1v-37.9M154 222.1v-37.9M158.3 222.1v-38.7"/><path class="cls-1" d="M158.3 248.7v-26.6M154 248.7v-26.6"/><path class="cls-16" d="M158.3 246.8H154M158.3 224.2H154"/><path class="cls-17" d="M158.3 248.7H154M158.3 222.1H154"/><path class="cls-15" d="M180.9 246.8c0-12.4-10.2-22.7-22.7-22.7M158.3 246.8h22.6"/><path class="cls-21" d="M97.3 179.8v4.4H154l4.3-4.4h-61"/><path class="cls-15" d="M97.6 182.2l2.1-2.4M99.7 184.2l4.4-4.4M104.1 184.2l4.3-4.4M108.1 184.2l4.4-4.4M112.5 184.2l4.3-4.4M116.8 184.2l4.3-4.4M120.9 184.2l4.3-4.4M125.2 184.2l4.3-4.4M129.5 184.2l4.3-4.4M133.8 184.2l4.3-4.4M137.9 184.2l4.3-4.4M142.2 184.2l4.3-4.4M146.5 184.2l4.4-4.4M150.6 184.2l4.3-4.4"/><path class="cls-21" d="M97.3 179.8v4.4H154l4.3-4.4h-61"/><path class="cls-15" d="M97.6 182.2l2.1-2.4M99.7 184.2l4.4-4.4M104.1 184.2l4.3-4.4M108.1 184.2l4.4-4.4M112.5 184.2l4.3-4.4M116.8 184.2l4.3-4.4M120.9 184.2l4.3-4.4M125.2 184.2l4.3-4.4M129.5 184.2l4.3-4.4M133.8 184.2l4.3-4.4M137.9 184.2l4.3-4.4M142.2 184.2l4.3-4.4M146.5 184.2l4.4-4.4M150.6 184.2l4.3-4.4"/><path class="cls-17" d="M158.3 179.8h-61M154 184.2H97.3M154 184.2H97.3M158.3 179.8h-61"/><path class="cls-16" d="M175.8 189.4h.5V205h-.5zM159.5 189.4h16.3v.5h-16.3zM159 189.4h.5v31.2h-.5zM175.8 188.2h.5v1.2h-.5zM175.8 205h.5v15.6h-.5zM159.5 219.9h16.3v.7h-16.3zM158.5 220.6h17.8v.5h-17.8z"/><path class="cls-21" d="M175.8 248.7l-4.1 5.1v17h4.1v-22.1"/><path class="cls-15" d="M172 256.4l4.1-4.1M172 260.7l4.1-4.1M172 265l4.1-4M172 269.4l4.1-4.1M174.6 270.8l1.5-1.4"/><path class="cls-21" d="M175.8 248.7l-4.1 5.1v17h4.1v-22.1"/><path class="cls-15" d="M172 256.4l4.1-4.1M172 260.7l4.1-4.1M172 265l4.1-4M172 269.4l4.1-4.1M174.6 270.8l1.5-1.4"/><path class="cls-17" d="M175.8 270.8v-22.1M171.7 270.8v-17M171.7 270.8v-17M175.8 270.8v-22.1M175.8 270.8h-4.1"/><path class="cls-20" d="M160.9 187.5h9.8v2.4h-9.8z"/><path class="cls-16" d="M160.9 187.5h9.8v2.4h-9.8z"/><path class="cls-20" d="M160.7 189.9H171v.2h-10.3z"/><path class="cls-16" d="M160.7 189.9H171v.2h-10.3z"/><path class="cls-18" d="M161.7 190.2v8.4"/><path class="cls-3" d="M170.1 190.2v1.6l-.5 1.5-1 1.4-.9 1.5-1.2.9-1.7 1-1.5.5h-1.6"/><path class="cls-21" d="M175.8 187.8v-8l-3.3 3.6v4.4h3.3"/><path class="cls-15" d="M172.7 183.4l3.4-3.3M172.7 187.8l3.4-3.4"/><path class="cls-21" d="M175.8 187.8v-8l-3.3 3.6v4.4h3.3"/><path class="cls-15" d="M172.7 183.4l3.4-3.3M172.7 187.8l3.4-3.4"/><path class="cls-17" d="M172.5 183.4v4.4M175.8 179.8v8M172.5 187.8h3.3M175.8 179.8v8M172.5 183.4v4.4"/><path class="cls-21" d="M158.3 179.8v3.6h14.2l3.3-3.6h-17.5"/><path class="cls-15" d="M158.5 180.8l.8-1M160 183.4l3.6-3.6M164.3 183.4l3.6-3.6M168.4 183.4l3.6-3.6"/><path class="cls-21" d="M158.3 179.8v3.6h14.2l3.3-3.6h-17.5"/><path class="cls-15" d="M158.5 180.8l.8-1M160 183.4l3.6-3.6M164.3 183.4l3.6-3.6M168.4 183.4l3.6-3.6"/><path class="cls-17" d="M175.8 179.8h-17.5M172.5 183.4h-14.2M172.5 183.4h-14.2M175.8 179.8h-17.5"/><path class="cls-1" d="M175.8 249.4v-27.8"/><path class="cls-16" d="M175.8 222.1v-.5"/><path class="cls-21" d="M33.7 253.8H93v-4.4H33.7v4.4"/><path class="cls-15" d="M34 249.9l.5-.5M34.5 253.8l4.3-4.4M38.5 253.8l4.4-4.4M42.9 253.8l4.3-4.4M47.2 253.8l4.3-4.4M51.3 253.8l4.3-4.4M55.6 253.8l4.3-4.4M59.9 253.8l4.3-4.4M64.2 253.8l4.3-4.4M68.3 253.8l4.3-4.4M72.6 253.8l4.3-4.4M76.9 253.8l4.4-4.4M81 253.8l4.3-4.4M85.3 253.8l4.4-4.4M89.7 253.8l3.6-3.6"/><path class="cls-21" d="M33.7 253.8H93v-4.4H33.7v4.4"/><path class="cls-15" d="M34 249.9l.5-.5M34.5 253.8l4.3-4.4M38.5 253.8l4.4-4.4M42.9 253.8l4.3-4.4M47.2 253.8l4.3-4.4M51.3 253.8l4.3-4.4M55.6 253.8l4.3-4.4M59.9 253.8l4.3-4.4M64.2 253.8l4.3-4.4M68.3 253.8l4.3-4.4M72.6 253.8l4.3-4.4M76.9 253.8l4.4-4.4M81 253.8l4.3-4.4M85.3 253.8l4.4-4.4M89.7 253.8l3.6-3.6"/><path class="cls-17" d="M93 249.4H33.7M93 253.8H33.7M93 253.8H33.7M93 249.4H33.7M7.1 253.8v-4.4"/><path class="cls-16" d="M31.8 249.4v4.4M9 249.4v4.4"/><path class="cls-17" d="M33.7 249.4v4.4M7.1 249.4v4.4"/><path class="cls-15" d="M31.8 249.5c0-12.4-10.2-22.7-22.7-22.7M9 249.4v-22.5"/><path class="cls-21" d="M408.1 189l-7.2 7.2H217.8l-6.9-7.2h197.2"/><path class="cls-15" d="M407.7 189.4l-.5-.4M405.7 191.6l-2.6-2.6M403.6 193.5L399 189M401.7 195.4l-6.5-6.4M398.3 196.2l-7.2-7.2M394.2 196.2L387 189M390.4 196.2l-7.2-7.2M386.3 196.2l-7.2-7.2M382.2 196.2L375 189M378.1 196.2l-7.2-7.2M374.3 196.2l-7.2-7.2M370.2 196.2L363 189M366.1 196.2l-7.2-7.2M362.3 196.2l-7.2-7.2M358.2 196.2L351 189M354.1 196.2l-7.2-7.2M350.3 196.2l-7.2-7.2M346.2 196.2L339 189M342.1 196.2l-7.2-7.2M338.1 196.2l-7.2-7.2M334.2 196.2L327 189M330.1 196.2l-7.2-7.2M326.1 196.2l-7.2-7.2M322.2 196.2L315 189M318.1 196.2l-7.2-7.2M314.1 196.2l-7.2-7.2M310.2 196.2L303 189M306.1 196.2l-7.2-7.2M302.1 196.2l-7.2-7.2M298 196.2l-7.2-7.2M294.1 196.2l-7.2-7.2M290.1 196.2l-7.2-7.2M286 196.2l-7.2-7.2M282.1 196.2l-7.2-7.2M278.1 196.2l-7.2-7.2M274 196.2l-7.2-7.2M269.9 196.2l-7.2-7.2M266.1 196.2l-7.2-7.2M262 196.2l-7.2-7.2M257.9 196.2l-7.2-7.2M254.1 196.2l-7.2-7.2M250 196.2l-7.2-7.2M245.9 196.2l-7.2-7.2M242.1 196.2l-7.2-7.2M238 196.2l-7.2-7.2M233.9 196.2l-7.2-7.2M229.8 196.2l-7.2-7.2M226 196.2l-7.2-7.2M221.9 196.2l-7.2-7.2M397.3 196.2l7.2-7.2M393.5 196.2l7.2-7.2M389.4 196.2l7.2-7.2M385.3 196.2l7.2-7.2M381.3 196.2l7.2-7.2M377.4 196.2l7.2-7.2M373.3 196.2l7.2-7.2M369.3 196.2l7.2-7.2M365.4 196.2l7.2-7.2M361.3 196.2l7.2-7.2M357.3 196.2l7.2-7.2M353.2 196.2l7.2-7.2M349.3 196.2l7.2-7.2M345.3 196.2l7.2-7.2M341.2 196.2l7.2-7.2M337.3 196.2l7.2-7.2M333.3 196.2l7.2-7.2M329.2 196.2l7.2-7.2M325.3 196.2l7.2-7.2M321.3 196.2l7.2-7.2M317.2 196.2l7.2-7.2M313.1 196.2l7.2-7.2M309.3 196.2l7.2-7.2M305.2 196.2l7.2-7.2M301.1 196.2l7.2-7.2M297.3 196.2l7.2-7.2M293.2 196.2l7.2-7.2M289.1 196.2l7.2-7.2M285.3 196.2l7.2-7.2M281.2 196.2l7.2-7.2M277.1 196.2l7.2-7.2M273 196.2l7.2-7.2M269.2 196.2l7.2-7.2M265.1 196.2l7.2-7.2M261 196.2l7.2-7.2M257.2 196.2l7.2-7.2M253.1 196.2l7.2-7.2M249 196.2l7.2-7.2M245.2 196.2l7.2-7.2M241.1 196.2l7.2-7.2M237 196.2l7.2-7.2M232.9 196.2l7.2-7.2M229.1 196.2l7.2-7.2M225 196.2l7.2-7.2M220.9 196.2l7.2-7.2M217.6 195.7l6.7-6.7M215.4 193.8l4.8-4.8M213.5 191.6l2.6-2.6M211.6 189.7l.5-.7"/><path class="cls-21" d="M400.9 196.2l7.2-7.2H210.9l6.9 7.2h183.1"/><path class="cls-15" d="M407.7 189.4l-.5-.4M405.7 191.6l-2.6-2.6M403.6 193.5L399 189M401.7 195.4l-6.5-6.4M398.3 196.2l-7.2-7.2M394.2 196.2L387 189M390.4 196.2l-7.2-7.2M386.3 196.2l-7.2-7.2M382.2 196.2L375 189M378.1 196.2l-7.2-7.2M374.3 196.2l-7.2-7.2M370.2 196.2L363 189M366.1 196.2l-7.2-7.2M362.3 196.2l-7.2-7.2M358.2 196.2L351 189M354.1 196.2l-7.2-7.2M350.3 196.2l-7.2-7.2M346.2 196.2L339 189M342.1 196.2l-7.2-7.2M338.1 196.2l-7.2-7.2M334.2 196.2L327 189M330.1 196.2l-7.2-7.2M326.1 196.2l-7.2-7.2M322.2 196.2L315 189M318.1 196.2l-7.2-7.2M314.1 196.2l-7.2-7.2M310.2 196.2L303 189M306.1 196.2l-7.2-7.2M302.1 196.2l-7.2-7.2M298 196.2l-7.2-7.2M294.1 196.2l-7.2-7.2M290.1 196.2l-7.2-7.2M286 196.2l-7.2-7.2M282.1 196.2l-7.2-7.2M278.1 196.2l-7.2-7.2M274 196.2l-7.2-7.2M269.9 196.2l-7.2-7.2M266.1 196.2l-7.2-7.2M262 196.2l-7.2-7.2M257.9 196.2l-7.2-7.2M254.1 196.2l-7.2-7.2M250 196.2l-7.2-7.2M245.9 196.2l-7.2-7.2M242.1 196.2l-7.2-7.2M238 196.2l-7.2-7.2M233.9 196.2l-7.2-7.2M229.8 196.2l-7.2-7.2M226 196.2l-7.2-7.2M221.9 196.2l-7.2-7.2M397.3 196.2l7.2-7.2M393.5 196.2l7.2-7.2M389.4 196.2l7.2-7.2M385.3 196.2l7.2-7.2M381.3 196.2l7.2-7.2M377.4 196.2l7.2-7.2M373.3 196.2l7.2-7.2M369.3 196.2l7.2-7.2M365.4 196.2l7.2-7.2M361.3 196.2l7.2-7.2M357.3 196.2l7.2-7.2M353.2 196.2l7.2-7.2M349.3 196.2l7.2-7.2M345.3 196.2l7.2-7.2M341.2 196.2l7.2-7.2M337.3 196.2l7.2-7.2M333.3 196.2l7.2-7.2M329.2 196.2l7.2-7.2M325.3 196.2l7.2-7.2M321.3 196.2l7.2-7.2M317.2 196.2l7.2-7.2M313.1 196.2l7.2-7.2M309.3 196.2l7.2-7.2M305.2 196.2l7.2-7.2M301.1 196.2l7.2-7.2M297.3 196.2l7.2-7.2M293.2 196.2l7.2-7.2M289.1 196.2l7.2-7.2M285.3 196.2l7.2-7.2M281.2 196.2l7.2-7.2M277.1 196.2l7.2-7.2M273 196.2l7.2-7.2M269.2 196.2l7.2-7.2M265.1 196.2l7.2-7.2M261 196.2l7.2-7.2M257.2 196.2l7.2-7.2M253.1 196.2l7.2-7.2M249 196.2l7.2-7.2M245.2 196.2l7.2-7.2M241.1 196.2l7.2-7.2M237 196.2l7.2-7.2M232.9 196.2l7.2-7.2M229.1 196.2l7.2-7.2M225 196.2l7.2-7.2M220.9 196.2l7.2-7.2M217.6 195.7l6.7-6.7M215.4 193.8l4.8-4.8M213.5 191.6l2.6-2.6M211.6 189.7l.5-.7"/><path class="cls-17" d="M305.9 189h-95M408.1 189h-95M400.9 196.2H217.8M400.9 196.2H217.8M305.9 189h-95M408.1 189h-95"/><path class="cls-21" d="M33.7 198.6H93v-4.4H33.7v4.4"/><path class="cls-15" d="M34 194.7l.5-.5M34.2 198.6l4.3-4.4M38.5 198.6l4.4-4.4M42.9 198.6l4.3-4.4M47.2 198.6l4.3-4.4M51.3 198.6l4.3-4.4M55.6 198.6l4.3-4.4M59.9 198.6l4.3-4.4M64 198.6l4.3-4.4M68.3 198.6l4.3-4.4M72.6 198.6l4.3-4.4M76.7 198.6l4.3-4.4M81 198.6l4.3-4.4M85.3 198.6l4.4-4.4M89.7 198.6l3.6-3.6"/><path class="cls-21" d="M33.7 198.6H93v-4.4H33.7v4.4"/><path class="cls-15" d="M34 194.7l.5-.5M34.2 198.6l4.3-4.4M38.5 198.6l4.4-4.4M42.9 198.6l4.3-4.4M47.2 198.6l4.3-4.4M51.3 198.6l4.3-4.4M55.6 198.6l4.3-4.4M59.9 198.6l4.3-4.4M64 198.6l4.3-4.4M68.3 198.6l4.3-4.4M72.6 198.6l4.3-4.4M76.7 198.6l4.3-4.4M81 198.6l4.3-4.4M85.3 198.6l4.4-4.4M89.7 198.6l3.6-3.6"/><path class="cls-17" d="M93 194.2H33.7M93 198.6H33.7M93 198.6H33.7M93 194.2H33.7M7.1 198.6v-4.4"/><path class="cls-16" d="M31.8 194.2v4.4M9 194.2v4.4"/><path class="cls-17" d="M33.7 194.2v4.4M7.1 194.2v4.4"/><path class="cls-15" d="M9.1 221.1c12.4 0 22.7-10.2 22.7-22.7M9 198.6v22.5"/><path class="cls-21" d="M107.4 350.5l-4.3 4.1h4.3v-4.1"/><path class="cls-15" d="M103.6 354.6l4.1-4.1"/><path class="cls-21" d="M107.4 350.5l-4.3 4.1h4.3v-4.1"/><path class="cls-15" d="M103.6 354.6l4.1-4.1"/><path class="cls-17" d="M107.4 354.6v-4.1M107.4 354.6v-4.1M107.4 382.2h-4.3"/><path class="cls-16" d="M107.4 379.8h-4.3M107.4 357h-4.3"/><path class="cls-17" d="M107.4 382.2h-4.3M107.4 354.6h-4.3"/><path class="cls-15" d="M80.4 357.1c0 12.4 10.2 22.7 22.7 22.7M103.1 357H80.3"/><path class="cls-16" d="M114.4 56.7l3.3-54.9h74l3.3 54.9"/><path class="cls-16" d="M112.7 56.7L116.1 0h77.2l3.4 56.7"/><path class="cls-21" d="M210.6 387.2l1.5 8.6 5-.9-2.2-12.7h-4.3v5"/><path class="cls-15" d="M215.9 386.5l-4.3-4.3M216.6 391.3l-5.7-5.8M216.4 395.1l-5.3-5.3M213 395.6l-.9-1M214.2 395.4l2.7-2.7M211.8 393.7l4.6-4.3M211.3 390.3l4.4-4.3M210.9 386.7l4.3-4.3M210.9 382.9l.4-.7"/><path class="cls-17" d="M210.6 387.2l1.5 8.6 5-.9-2.2-12.7h-4.3v5z"/><path class="cls-21" d="M313.1 304.6l-3.6-.9-1 2.9 4.6-2"/><path class="cls-15" d="M311.2 305.6l-1.7-1.7M312.9 304.9l.2-.3M309.5 304.2l.2-.5"/><path class="cls-21" d="M263.2 240.1l5.7-10.3h-15.3v10.3h9.6"/><path class="cls-15" d="M268.5 230.7l-1-.9M267 233.4l-3.6-3.6M265.6 236l-6-6.2M264.1 238.4l-8.6-8.6M261.7 240.1l-7.9-8.2M257.9 240.1l-4.1-4.1M261.3 240.1l4.5-4.6M257.2 240.1l10.3-10.3M253.8 239.6l9.9-9.8M253.8 235.5l5.8-5.7M253.8 231.7l1.7-1.9"/><path class="cls-21" d="M263.2 240.1l5.7-10.3h-15.3v10.3h9.6"/><path class="cls-15" d="M268.5 230.7l-1-.9M267 233.4l-3.6-3.6M265.6 236l-6-6.2M264.1 238.4l-8.6-8.6M261.7 240.1l-7.9-8.2M257.9 240.1l-4.1-4.1M261.3 240.1l4.5-4.6M257.2 240.1l10.3-10.3M253.8 239.6l9.9-9.8M253.8 235.5l5.8-5.7M253.8 231.7l1.7-1.9"/><path class="cls-17" d="M253.6 240.1h9.6M253.6 229.8h15.3M253.6 229.8h15.3M253.6 240.1h9.6"/><path class="cls-16" d="M220.9 238.6h29.6"/><path class="cls-1" d="M220.9 229.8h29.6"/><path class="cls-16" d="M250 229.8h.5"/><path class="cls-21" d="M217.8 229.8h3.1v8.8h-3.1"/><path class="cls-15" d="M221.2 231.4l-1.7-1.6M221.2 235.3l-3.1-3.1M220.2 238.6l-2.1-2.4M218.5 238.6l2.7-2.4M218.1 235.3l3.1-3.1M218.1 231.2l1.4-1.4"/><path class="cls-21" d="M253.6 229.8h-3.1v8.8h3.1"/><path class="cls-15" d="M253.8 231.9l-2.4-2.1M253.8 236l-3.1-3.1M252.4 238.6l-1.7-1.6M250.7 238.6l3.1-3.1M250.7 234.8l3.1-3.1M250.7 230.7l1-.9"/><path class="cls-17" d="M220.9 229.8v8.8M250.5 229.8v8.8M220.9 229.8v8.8M217.8 229.8h3.1M250.5 229.8v8.8M253.6 229.8h-3.1M217.8 240.1v-1.5M253.6 240.1v-1.5M217.8 229.8h3.1M253.6 229.8h-3.1M220.9 238.6h-3.1M250.5 238.6h3.1"/><path class="cls-15" d="M51.4 387.2v-1.9c0-.6-.2-1.2-.3-1.8-.1-.6-.3-1.2-.5-1.8l-.6-1.8c-.2-.6-.5-1.1-.8-1.7-.3-.5-.6-1.1-1-1.6-.3-.5-.7-1-1.1-1.5-.4-.5-.8-.9-1.3-1.4-.4-.4-.9-.9-1.4-1.3-.5-.4-1-.8-1.5-1.1-.5-.3-1-.7-1.6-1-.5-.3-1.1-.6-1.7-.8l-1.8-.6c-.6-.2-1.2-.3-1.8-.5l-1.8-.3h-1.9M32.5 368.2v19M51.5 387.2v-1.4M51.7 384.3v-.7M51.7 383.6l.3-.7"/><path class="cls-10" d="M52.2 381.7l.7-1.7"/><path class="cls-15" d="M53.4 378.8l.3-.5M53.7 378.3l.4-.7"/><path class="cls-11" d="M54.6 376.6l1.2-1.4"/><path class="cls-15" d="M56.8 374l.2-.2M57 373.8l1-.8M58.9 372.1l1-.7"/><path class="cls-19" d="M59.9 371.4l1.7-1"/><path class="cls-15" d="M61.6 370.4l.9-.5M64 369.4l.9-.4M64.9 369h.5"/><path class="cls-10" d="M66.6 368.7l1.9-.5"/><path class="cls-15" d="M69.7 368.2h.8"/><path class="cls-5" d="M70.5 368.2v19"/><path class="cls-15" d="M70.5 386.7v.5M51.5 66.4v1.9c0 .6-.2 1.2-.3 1.8-.1.6-.3 1.2-.5 1.8l-.6 1.8c-.2.6-.5 1.1-.8 1.7-.3.5-.6 1.1-1 1.6-.3.5-.7 1-1.1 1.5-.4.5-.8.9-1.3 1.4-.4.4-.9.9-1.4 1.3-.5.4-1 .8-1.5 1.1-.5.3-1 .7-1.6 1-.5.3-1.1.6-1.7.8l-1.8.6c-.6.2-1.2.3-1.8.5l-1.8.3h-1.9M32.5 85.3v-19M51.5 66.3v1.5M51.5 69.2l.2 1M51.7 70.2l.3.4"/><path class="cls-10" d="M52.2 71.8l.7 1.7"/><path class="cls-15" d="M53.4 74.7l.3.7M53.7 75.4l.4.5"/><path class="cls-11" d="M54.6 76.9l1.2 1.4"/><path class="cls-15" d="M56.8 79.5l.2.3M57 79.8l1 .7M58.9 81.4l1 .8"/><path class="cls-19" d="M59.9 82.2l1.7.9"/><path class="cls-15" d="M61.6 83.1l.9.5M64 84.1l.9.5"/><path class="cls-8" d="M64.9 84.6l2 .4"/><path class="cls-15" d="M66.9 85l1.2.3M69.5 85.3h1"/><path class="cls-5" d="M70.5 85.3v-19"/><path class="cls-15" d="M70.5 66.8v-.5M257.9 66.4v1.9c0 .6.2 1.2.3 1.8.1.6.3 1.2.5 1.8l.6 1.8c.2.6.5 1.1.8 1.7.3.5.6 1.1 1 1.6.3.5.7 1 1.1 1.5.4.5.8.9 1.3 1.4.4.4.9.9 1.4 1.3.5.4 1 .8 1.5 1.1.5.3 1 .7 1.6 1 .5.3 1.1.6 1.7.8l1.8.6c.6.2 1.2.3 1.8.5l1.8.3h1.9M276.9 85.3v-19M257.9 66.3l-.2 1.5M257.7 69.2l-.3 1M257.4 70.2l-.2.4"/><path class="cls-10" d="M256.9 71.8l-.4 1.7"/><path class="cls-15" d="M255.7 74.7l-.2.7M255.5 75.4l-.5.5M254.3 77.1l-.7 1.2"/><path class="cls-12" d="M253.6 78.3l-1.2 1.5"/><path class="cls-15" d="M252.4 79.8l-1 .7M250.5 81.4l-1 .8"/><path class="cls-19" d="M249.5 82.2l-1.7.9"/><path class="cls-15" d="M247.8 83.1l-.9.5M245.4 84.1l-.9.5"/><path class="cls-8" d="M244.5 84.6l-2 .4"/><path class="cls-15" d="M242.5 85l-1.2.3M239.9 85.3h-1"/><path class="cls-5" d="M238.9 85.3v-19"/><path class="cls-15" d="M238.9 66.8v-.5M164.6 66.4c0 11 9.1 20.1 20.1 20.1M184.7 86.5V66.3"/><path class="cls-5" d="M164.5 66.3l-.2 4.1-1.2 3.6-1.9 3.6-2.4 3.1-3.1 2.4-3.6 1.9-3.6 1-4.1.5"/><path class="cls-13" d="M144.4 86.5V66.3"/><path class="cls-15" d="M144.8 387.2c0-11-9.1-20.1-20.1-20.1M124.7 367v20.2"/><path class="cls-5" d="M144.9 387.2l.2-3.8 1.2-3.9 1.9-3.3 2.4-3.2 3.1-2.4 3.4-1.9 3.8-1.2 3.9-.5"/><path class="cls-13" d="M164.8 367v20.2"/><path class="cls-9" d="M240.4 408.8h2.1"/><path class="cls-15" d="M242.1 408.8h.4"/><path class="cls-9" d="M242.5 408.8l2.2.5"/><path class="cls-15" d="M244.2 409.3h.5"/><path class="cls-9" d="M244.7 409.3l2.2.5"/><path class="cls-15" d="M246.4 409.8h.5"/><path class="cls-9" d="M246.9 409.8l2.1.7"/><path class="cls-15" d="M248.5 410.5h.5M249 410.5l1 .5"/><path class="cls-9" d="M250.9 411.4l2 1.2"/><path class="cls-15" d="M252.4 412.2l.5.4M252.9 412.6l.9.8"/><path class="cls-9" d="M254.5 413.8l1.7 1.5"/><path class="cls-15" d="M255.7 414.8l.5.5"/><path class="cls-9" d="M256.2 415.3l1.5 1.7"/><path class="cls-15" d="M257.2 416.5l.5.5"/><path class="cls-9" d="M257.7 417l1.4 1.6"/><path class="cls-15" d="M258.6 418.2l.5.4M259.1 418.6l.5 1"/><path class="cls-9" d="M260.1 420.6l.9 2.1"/><path class="cls-15" d="M261 422.7l.3 1"/><path class="cls-9" d="M261.7 424.6l.8 2.2"/><path class="cls-15" d="M262.5 426.3v.5"/><path class="cls-9" d="M262.5 426.8l.2 2.2"/><path class="cls-15" d="M262.7 428.5v.5"/><path class="cls-9" d="M262.7 429v2.1"/><path class="cls-15" d="M262.7 430.6v.5"/><path class="cls-5" d="M240.4 408.8v22.3"/><path class="cls-15" d="M240.4 430.6v.5M262.8 431.2c0-.7 0-1.5.1-2.2 0-.7.2-1.5.3-2.2.1-.7.3-1.4.5-2.1.2-.7.5-1.4.7-2.1.3-.7.6-1.3.9-2 .3-.6.7-1.3 1.1-1.9.4-.6.8-1.2 1.3-1.8.5-.6 1-1.1 1.5-1.6s1.1-1 1.6-1.5c.6-.5 1.2-.9 1.8-1.3.6-.4 1.2-.8 1.9-1.1.6-.3 1.3-.7 2-.9.7-.3 1.4-.5 2.1-.7.7-.2 1.4-.4 2.1-.5.7-.1 1.4-.3 2.2-.3.7 0 1.5-.1 2.2-.1M285.3 408.8v22.3M229.1 394.6l-16.6 2.9M215.2 414.3c.5 0 1.1-.2 1.6-.4.5-.1 1.1-.3 1.6-.5s1-.4 1.5-.7c.5-.2 1-.5 1.5-.8.5-.3.9-.6 1.4-1 .4-.3.9-.7 1.3-1.1l1.2-1.2c.4-.4.7-.9 1-1.3s.6-.9.9-1.4c.3-.5.5-1 .8-1.5.2-.5.4-1 .6-1.6.2-.5.3-1.1.5-1.6.1-.5.2-1.1.3-1.6 0-.6.1-1.1.1-1.7v-1.7c0-.6-.1-1.1-.2-1.7M124.9 60.6h59.3v3.6h-59.3z"/><path class="cls-16" d="M202 225.2v1M202 226.2l-.3.7M201.7 226.9v.9M201.7 227.8l-.2.3M201 229.3l-.2.2M200.1 230.7l-.5.5M199.6 231.2l-.7.7M198.9 231.9l-.8.5M198.1 232.4l-.2.2M196.5 233.1l-.3.3M195 233.6l-.7.2M194.3 233.8h-.7M193.6 233.8h-1M192.6 233.8l-.5-.2M190.7 233.4l-.2-.3M189.3 232.6l-.5-.2M188.8 232.4l-.7-.5M188.1 231.9l-.5-.7M187.6 231.2l-.5-.5M186.1 229.5v-.2M185.4 228.1v-.3M185.4 227.8l-.2-.9M185.2 226.9l-.3-.7M184.9 226.2v-1M185.2 224v-.5M185.7 222.3v-.2M185.7 222.1l.2-.7M185.9 221.4l.5-.8M186.4 220.6l.5-.7M189.3 217.8h.2M189.5 217.8l.7-.3M190.2 217.5l.7-.5M190.9 217l1-.2M193.3 216.8h.3M195 216.8h.3M195.3 216.8l.7.2M196 217l.7.5M196.7 217.5l.7.3M197.4 217.8l.3.2M198.9 218.7l.2.3M200.1 219.9l.4.7M200.5 220.6l.5.8M201 221.4l.3.7M201.3 222.1l.2.2M202 223.8v.2"/></g><g id="Mbel"><path class="cls-2" d="M165.3 301.3h22.6v50.9h-22.6zM155.3 350.8v-12.7M163.8 350.8h-8.5M155.3 338.1h8.5M155.3 333.1v-12.7M163.8 333.1h-8.5M155.3 320.4h8.5M155.3 315.4v-12.8M163.8 315.4h-8.5M155.3 302.6h8.5M197.8 350.8v-12.7M189.3 350.8h8.5M197.8 338.1h-8.5M197.8 333.1v-12.7M189.3 333.1h8.5M197.8 320.4h-8.5M197.8 315.4v-12.8M189.3 315.4h8.5M197.8 302.6h-8.5M34.5 177.2h56.9v15.6H34.5zM284.7 381.2c3.1 2.5 6 5.3 8.6 8.3.6.7.8 1.7.4 2.6-1.4 2.9-3.5 5.4-6.2 7.1-.8.5-1.8.5-2.6 0-3.3-2.2-6.5-4.7-9.4-7.4.3-.7.7-1.3 1.1-1.9 2.1-2.6 4.2-5 6.5-7.4.5-.5 1-1 1.6-1.4h.1"/><path class="cls-2" d="M285.8 381.5h1c1.5.4 2.9 1.1 4 2.1 1.5 1.4 2.9 2.9 4.1 4.6.9 1.2 1.6 2.5 2.1 3.8.3.8.3 1.7-.1 2.4-1.6 3-3.8 5.6-6.6 7.6-.7.5-1.6.7-2.4.5-1.4-.3-2.8-.9-4.1-1.6-1.8-1-3.5-2.2-5.1-3.4-1.2-1-2.1-2.2-2.7-3.6-.1-.3-.2-.7-.2-1M34.5 177.2h56.9v15.6H34.5zM34.5 106.4h56.9v45.4H34.5zM198.1 103.3h10.8v56.9h-10.8zM288.6 72.8h15.6v56.6h-15.6zM247.3 159.2h56.9v28.3h-56.9zM216.4 306.3h51.1v15.6h-51.1zM133.8 129H148v28.3h-14.2zM103 116.5h19c.1 0 .2.1.3.2 0 0 .1.2.2.3v25.5c0 .1-.1.2-.2.3 0 0-.2.1-.3.2h-19v-26.6M99.3 112H122c.1 0 .2.1.3.2 0 0 .1.2.2.3V115.9c0 .1-.1.2-.2.3 0 0-.2.1-.3.2H99c-.1 0-.2-.1-.3-.2s-.1-.2-.2-.3V112.8v-.3c0-.1.1-.2.2-.3 0 0 .2-.1.3-.2h.3M103 143.2h-4c-.1 0-.2.1-.3.2 0 0-.1.2-.2.3v25.5c0 .1.1.2.2.3 0 0 .2.1.3.2h4M105.3 169.8v-53.3M103 169.8h19c.1 0 .2-.1.3-.2 0 0 .1-.2.2-.3v-25.2-.3c0-.1-.1-.2-.2-.3 0 0-.2-.1-.3-.2h-19v26.6M99.3 174.4H122c.1 0 .2-.1.3-.2 0 0 .1-.2.2-.3V170.8v-.3c0-.1-.1-.2-.2-.3 0 0-.2-.1-.3-.2H99c-.1 0-.2.1-.3.2s-.1.2-.2.3V173.9c0 .1.1.2.2.3 0 0 .2.1.3.2h.3M103 143.2h-4c-.1 0-.2-.1-.3-.2s-.1-.2-.2-.3v-25.2-.3c0-.1.1-.2.2-.3 0 0 .2-.1.3-.2h4M144.8 116.5c1.3-3.8 2.9-7.4 4.8-11 .4-.8 1.4-1.3 2.3-1.3 3.2.3 6.3 1.4 8.9 3.4.8.6 1.1 1.5.9 2.5-.9 3.9-2.2 7.7-3.7 11.4h-.1c-.7 0-1.4-.2-2-.4-3.1-1-6.2-2.2-9.2-3.5-.6-.3-1.2-.6-1.8-1"/><path class="cls-2" d="M144.7 115.4c-.2-.3-.3-.6-.3-1-.2-1.5 0-3.1.6-4.5.8-1.9 1.7-3.7 2.9-5.4.8-1.2 1.8-2.4 2.8-3.3.6-.6 1.5-.8 2.3-.7 3.4.4 6.6 1.7 9.4 3.6.7.5 1.2 1.2 1.3 2.1.2 1.5.1 2.9 0 4.4-.3 2-.8 4-1.5 6-.5 1.4-1.4 2.7-2.5 3.8-.3.2-.5.4-.9.5M236.1 120.3h7.7v11.3h-7.7zM216.1 103.3H236v45.4h-19.9zM241.1 396.6h11.5v7.7h-11.5z"/><path class="cls-2" d="M224.1 404.2h45.4v19.9h-45.4zM275.9 306.1h28.3V363h-28.3zM34.5 255.4h56.9v28.3H34.5zM28.2 329.4h7.7v11.3h-7.7zM8.5 312.3h19.7v45.4H8.5zM75.7 298.2h15.6v56.6H75.7zM34.5 106.4h56.9v45.4H34.5z"/></g><g id="Text"><path d="M39.2 206.4h1.4c1.6 0 2.6 1 2.6 2.6s-.3 1.6-.8 2.1c-.5.4-1.1.6-1.9.6h-1.3v-5.3zm.7 4.8h.2c.9 0 1.3 0 1.7-.4.5-.4.7-1 .7-1.8 0-1.3-.7-2-1.9-2h-.7v4.2zM47.2 208.1v2.4c0 .5 0 .8-.4 1-.3.2-.6.4-1.1.4s-.8-.1-1.1-.4c-.2-.2-.4-.6-.4-1v-2.4h.6v2.3c0 .5.3.9.8.9s.5-.1.7-.3c.1-.1.2-.3.2-.6V208h.6zM50.2 209.1c0-.4-.3-.6-.7-.6s-.7.2-.7.5.2.4.8.6c.5.1.7.2.9.4.2.2.3.4.3.7 0 .6-.5 1.1-1.3 1.1s-1.3-.4-1.4-1.1h.6c0 .4.3.6.8.6s.7-.2.7-.5-.2-.5-.8-.6c-.8-.2-1.2-.6-1.2-1.1s.5-1.1 1.3-1.1 1.3.4 1.3 1.1h-.6zM54.9 211.3c-.4.4-.8.5-1.4.5-1.1 0-1.8-.8-1.8-1.9s.8-1.9 1.8-1.9 1 .2 1.3.6l-.4.4c-.3-.3-.6-.4-.9-.4-.7 0-1.2.6-1.2 1.4s.5 1.4 1.2 1.4.6-.1.9-.4l.4.4zM56.4 208.6c.3-.4.7-.6 1.1-.6s.7.1.9.3c.2.2.3.5.3 1v2.5h-.6v-2.4c0-.5-.2-.8-.7-.8s-.5.1-.7.3c-.2.2-.2.4-.2.7v2.2h-.6v-5.3h.6v2.2zM60.4 210.1c0 .3 0 .5.2.7.2.3.6.5 1 .5s.9-.2 1.1-.6l.5.2c-.3.6-.9 1-1.6 1-1.1 0-1.9-.8-1.9-1.9s.8-1.9 1.9-1.9 1.9.8 1.9 1.9v.2h-3.1zm2.4-.4c0-.3 0-.4-.2-.6-.2-.3-.6-.5-1-.5s-.8.2-1 .5c-.1.2-.2.3-.2.6h2.4zM38.9 219.6v-.5l2.8-3.7v3.6h.6v.6h-.6v1.2h-.6v-1.2H39zM41 217l-1.5 2H41v-2zM44 220.4c0 .2-.2.4-.4.4s-.4-.2-.4-.4.2-.4.4-.4.4.2.4.4zM46.4 217.6c.2 0 .3-.1.5-.1.9 0 1.6.7 1.6 1.6s-.8 1.7-1.7 1.7-1.7-.8-1.7-1.7.1-.7.4-1.2l1.5-2.5h.7l-1.4 2.1zm-.7 1.5c0 .6.5 1.1 1.1 1.1s1.1-.5 1.1-1.1-.5-1.1-1.1-1.1-1.1.5-1.1 1.1zM51.7 217.1v.5c.3-.4.6-.6 1-.6s.8.2 1 .7c.3-.5.6-.7 1.2-.7s.7.1.9.4c.2.2.2.4.2 1v2.4h-.6v-2.2c0-.4 0-.6-.1-.7-.1-.2-.4-.3-.6-.3-.5 0-.8.4-.8 1v2.2h-.6v-2.2c0-.4 0-.5-.1-.7-.1-.2-.3-.3-.6-.3-.5 0-.9.4-.9 1v2.2h-.6v-3.7h.6zM59.3 218.2v.4h-2l1.2-1.6c.3-.5.4-.6.4-.8 0-.3-.2-.4-.5-.4s-.5.2-.5.6h-.4c0-.6.4-1 1-1s1 .3 1 .8-.1.5-.4.9l-.8 1.1h1.1z"/><g><path d="M124.8 11.6c1.1 0 1.7.5 1.7 1.4s-.1.6-.3.9c-.1.2-.3.2-.5.3.3 0 .4.1.6.2.3.2.4.6.4 1s-.2.9-.6 1.2c-.3.2-.7.3-1.3.3h-1.5v-5.3h1.5zM124 14h.7c.4 0 .7 0 .9-.2.2-.2.3-.4.3-.7s-.2-.6-.4-.8c-.2 0-.4-.1-.9-.1h-.6V14zm0 2.4h.7c.6 0 .8 0 1-.2.3-.1.4-.4.4-.8 0-.6-.4-.9-1.2-.9h-.8v1.8zM130.7 13.3h.6V17h-.6v-.7c-.4.6-.8.8-1.3.8-1 0-1.7-.8-1.7-1.9s.7-1.9 1.8-1.9 1 .2 1.3.7v-.6zm-2.1.9c-.2.3-.3.6-.3 1 0 .8.5 1.4 1.2 1.4s1.3-.6 1.3-1.4-.5-1.4-1.2-1.4-.7.1-.9.4zM132.6 17v-5.3h.6V17h-.6zM135.2 17h-.6v-5.3h.6V15l1.5-1.6h.8l-1.6 1.8 1.6 1.9h-.8l-1.5-1.6v1.6zM141.6 15.1c0 1.1-.8 1.9-1.9 1.9s-1.9-.8-1.9-1.9.8-1.9 1.9-1.9 1.9.8 1.9 1.9zm-3.1 0c0 .8.5 1.4 1.3 1.4s1.2-.6 1.2-1.4-.5-1.4-1.2-1.4-1.3.6-1.3 1.4zM143.4 13.3v.5c.3-.4.6-.6 1.1-.6s.6.1.9.3c.2.2.3.5.3 1V17h-.6v-2.4c0-.3 0-.5-.1-.6-.1-.2-.3-.2-.6-.2s-.5.1-.7.3c-.2.2-.2.4-.2.7V17h-.6v-3.7h.6zM124.2 22.8c.2 0 .3-.1.5-.1.9 0 1.6.7 1.6 1.6s-.8 1.7-1.7 1.7-1.7-.8-1.7-1.7.1-.7.4-1.2l1.5-2.5h.7l-1.4 2.1zm-.7 1.5c0 .6.5 1.1 1.1 1.1s1.1-.5 1.1-1.1-.5-1.1-1.1-1.1-1.1.5-1.1 1.1zM128.2 25.6c0 .2-.2.4-.4.4s-.4-.2-.4-.4.2-.4.4-.4.4.2.4.4zM132.5 24.4c0 .6-.1 1-.4 1.2-.3.3-.7.4-1.2.4s-1-.2-1.2-.5c-.3-.3-.4-.6-.4-1.4v-1.8c0-.7 0-1 .3-1.3.3-.3.7-.5 1.2-.5s.9.1 1.2.4c.3.3.4.6.4 1.2v2.1zm-2.5-.1c0 .6 0 .7.2.9.2.2.5.3.8.3s.6-.1.8-.4c.1-.2.2-.4.2-.8v-2c0-.4 0-.6-.3-.8-.2-.2-.4-.2-.7-.2s-.6.1-.8.4c-.1.2-.2.4-.2.8v1.8zM135.8 22.3v.5c.3-.4.6-.6 1-.6s.8.2 1 .7c.3-.5.6-.7 1.2-.7s.7.1.9.4c.2.2.2.4.2 1V26h-.6v-2.2c0-.4 0-.6-.1-.7-.1-.2-.4-.3-.6-.3-.5 0-.8.4-.8 1V26h-.6v-2.2c0-.4 0-.5-.1-.7-.1-.2-.3-.3-.6-.3-.5 0-.9.4-.9 1V26h-.6v-3.7h.6zM143.4 23.5v.4h-2l1.2-1.6c.3-.5.4-.6.4-.8 0-.3-.2-.4-.5-.4s-.5.2-.5.6h-.4c0-.6.4-1 1-1s1 .3 1 .8-.1.5-.4.9l-.8 1.1h1.1z"/></g><g><path d="M233.3 268.4v.6h-2.5v-5.3h.7v4.7h1.9zM234.9 264.3c0 .2-.2.4-.4.4s-.4-.2-.4-.4.2-.4.4-.4.4.2.4.4zm0 4.7h-.6v-3.7h.6v3.7zM236.9 269h-.6v-3.2h-.5v-.5h.5v-.5c0-.7.4-1.2 1-1.2h.2v.5c-.4 0-.6.2-.6.6v.5h.6v.5h-.6v3.2zM239.3 268.2c0 .2 0 .2.3.2h.3v.5h-.6c-.4 0-.6-.2-.6-.6v-2.6h-.5v-.5h.5V264h.6v1.2h.6v.5h-.6v2.4z"/></g><g><path d="M185 242.4h2.1v.6H185v1.8h2.1v.6h-2.8v-5.3h2.8v.6H185v1.8zM188.9 241.7v.5c.3-.4.6-.6 1.1-.6s.6.1.9.3c.2.2.3.5.3 1v2.5h-.6V243c0-.3 0-.5-.1-.6-.1-.2-.3-.2-.6-.2s-.5.1-.7.3c-.2.2-.2.4-.2.7v2.2h-.6v-3.7h.6zM193.2 244.6c0 .2 0 .2.3.2h.3v.5h-.6c-.4 0-.6-.2-.6-.6v-2.6h-.5v-.5h.5v-1.2h.6v1.2h.6v.5h-.6v2.4zM195.4 241.7v.6c.1-.3.2-.4.3-.5.2-.1.4-.2.7-.2h.1v.6h-.2c-.3 0-.6.2-.8.4-.2.2-.2.4-.2.9v1.9h-.6v-3.7h.6zM197.8 243.7c0 .3 0 .5.2.7.2.3.6.5 1 .5s.9-.2 1.1-.6l.5.2c-.3.6-.9 1-1.6 1-1.1 0-1.9-.8-1.9-1.9s.8-1.9 1.9-1.9 1.9.8 1.9 1.9v.2h-3.1zm2.4-.4c0-.3 0-.4-.2-.6-.2-.3-.6-.5-1-.5s-.8.2-1 .5c-.1.2-.2.3-.2.6h2.4zm-.2-3.2l-.9 1.1h-.4l.7-1.1h.7zM202.4 243.7c0 .3 0 .5.2.7.2.3.6.5 1 .5s.9-.2 1.1-.6l.5.2c-.3.6-.9 1-1.6 1-1.1 0-1.9-.8-1.9-1.9s.8-1.9 1.9-1.9 1.9.8 1.9 1.9v.2h-3.1zm2.4-.4c0-.3 0-.4-.2-.6-.2-.3-.6-.5-1-.5s-.8.2-1 .5c-.1.2-.2.3-.2.6h2.4zM186.7 249.6H185v1.4c.3-.1.5-.2.8-.2.9 0 1.6.7 1.6 1.7s-.8 1.8-1.8 1.8-1.3-.4-1.6-1.1l.6-.2c.1.2.2.3.3.4.2.2.5.3.8.3.6 0 1.1-.5 1.1-1.2s-.5-1.1-1.2-1.1-.8.2-1.2.5v-3h2.3v.6zM189.3 254c0 .2-.2.4-.4.4s-.4-.2-.4-.4.2-.4.4-.4.4.2.4.4zM193.3 253.8v.6h-3l1.9-2.7c.5-.8.7-1 .7-1.3 0-.5-.4-.8-.9-.8s-.7.2-.8.4v.6h-.6c0-1 .6-1.6 1.5-1.6s1.5.5 1.5 1.3-.2.8-.6 1.5l-1.4 2h1.9zM199.4 250.7v.5c.3-.4.6-.6 1-.6s.8.2 1 .7c.3-.5.6-.7 1.2-.7s.7.1.9.4c.2.2.2.4.2 1v2.4h-.6v-2.2c0-.4 0-.6-.1-.7-.1-.2-.4-.3-.6-.3-.5 0-.8.4-.8 1v2.2h-.6v-2.2c0-.4 0-.5-.1-.7-.1-.2-.3-.3-.6-.3-.5 0-.9.4-.9 1v2.2h-.6v-3.7h.6zM207 251.8v.4h-2l1.2-1.6c.3-.5.4-.6.4-.8 0-.3-.2-.4-.5-.4s-.5.2-.5.6h-.4c0-.6.4-1 1-1s1 .3 1 .8-.1.5-.4.9l-.8 1.1h1.1z"/></g><g><path d="M163.2 136.7h.7l-1.6 5.3h-.6l-1.2-4.2-1.2 4.2h-.6l-1.6-5.3h.7l1.2 4.1 1.2-4.1h.6l1.1 4.1 1.2-4.1zM168 140.2c0 1.1-.8 1.9-1.9 1.9s-1.9-.8-1.9-1.9.8-1.9 1.9-1.9 1.9.8 1.9 1.9zm-3.1 0c0 .8.5 1.4 1.3 1.4s1.2-.6 1.2-1.4-.5-1.4-1.2-1.4-1.3.6-1.3 1.4zM169.7 138.8c.3-.4.7-.6 1.1-.6s.7.1.9.3c.2.2.3.5.3 1v2.5h-.6v-2.4c0-.5-.2-.8-.7-.8s-.5.1-.7.3c-.2.2-.2.4-.2.7v2.2h-.6v-5.3h.6v2.2zM173.9 138.3v.5c.3-.4.6-.6 1.1-.6s.6.1.9.3c.2.2.3.5.3 1v2.5h-.6v-2.4c0-.3 0-.5-.1-.6-.1-.2-.3-.2-.6-.2s-.5.1-.7.3c-.2.2-.2.4-.2.7v2.2h-.6v-3.7h.6zM177.9 140.4c0 .3 0 .5.2.7.2.3.6.5 1 .5s.9-.2 1.1-.6l.5.2c-.3.6-.9 1-1.6 1-1.1 0-1.9-.8-1.9-1.9s.8-1.9 1.9-1.9 1.9.8 1.9 1.9v.2h-3.1zm2.4-.4c0-.3 0-.4-.2-.6-.2-.3-.6-.5-1-.5s-.8.2-1 .5c-.1.2-.2.3-.2.6h2.4zM182.7 138.3v.5c.3-.4.6-.6 1.1-.6s.6.1.9.3c.2.2.3.5.3 1v2.5h-.6v-2.4c0-.3 0-.5-.1-.6-.1-.2-.3-.2-.6-.2s-.5.1-.7.3c-.2.2-.2.4-.2.7v2.2h-.6v-3.7h.6zM158 147.4v-.6l1.8-1.2v5.4h-.6v-4.4l-1.2.8zM164 146.3h-1.7v1.4c.3-.1.5-.2.8-.2.9 0 1.6.7 1.6 1.7s-.8 1.8-1.8 1.8-1.3-.4-1.6-1.1l.6-.2c.1.2.2.3.3.4.2.2.5.3.8.3.6 0 1.1-.5 1.1-1.2s-.5-1.1-1.2-1.1-.8.2-1.2.5v-3h2.3v.6zM166.5 150.7c0 .2-.2.4-.4.4s-.4-.2-.4-.4.2-.4.4-.4.4.2.4.4zM168.8 147.9c.2 0 .3-.1.5-.1.9 0 1.6.7 1.6 1.6s-.8 1.7-1.7 1.7-1.7-.8-1.7-1.7.1-.7.4-1.2l1.5-2.5h.7l-1.4 2.1zm-.7 1.5c0 .6.5 1.1 1.1 1.1s1.1-.5 1.1-1.1-.5-1.1-1.1-1.1-1.1.5-1.1 1.1zM175 147.3v.5c.3-.4.6-.6 1-.6s.8.2 1 .7c.3-.5.6-.7 1.2-.7s.7.1.9.4c.2.2.2.4.2 1v2.4h-.6v-2.2c0-.4 0-.6-.1-.7-.1-.2-.4-.3-.6-.3-.5 0-.8.4-.8 1v2.2h-.6v-2.2c0-.4 0-.5-.1-.7-.1-.2-.3-.3-.6-.3-.5 0-.9.4-.9 1v2.2h-.6v-3.7h.6zM182.6 148.5v.4h-2l1.2-1.6c.3-.5.4-.6.4-.8 0-.3-.2-.4-.5-.4s-.5.2-.5.6h-.4c0-.6.4-1 1-1s1 .3 1 .8-.1.5-.4.9l-.8 1.1h1.1z"/></g><g><path d="M251.4 141.7v.6h-3.8l3-4.8h-2.7v-.6h3.8l-3 4.8h2.7zM253.2 137.6c0 .2-.2.4-.4.4s-.4-.2-.4-.4.2-.4.4-.4.4.2.4.4zm0 4.7h-.6v-3.7h.6v3.7zM255.1 138.6v.5c.3-.4.6-.6 1-.6s.8.2 1 .7c.3-.5.6-.7 1.2-.7s.7.1.9.4c.2.2.2.4.2 1v2.4h-.6v-2.2c0-.4 0-.6-.1-.7-.1-.2-.4-.3-.6-.3-.5 0-.8.4-.8 1v2.2h-.6v-2.2c0-.4 0-.5-.1-.7-.1-.2-.3-.3-.6-.3-.5 0-.9.4-.9 1v2.2h-.6v-3.7h.6zM261.4 138.6v.5c.3-.4.6-.6 1-.6s.8.2 1 .7c.3-.5.6-.7 1.2-.7s.7.1.9.4c.2.2.2.4.2 1v2.4h-.6v-2.2c0-.4 0-.6-.1-.7-.1-.2-.4-.3-.6-.3-.5 0-.8.4-.8 1v2.2h-.6v-2.2c0-.4 0-.5-.1-.7-.1-.2-.3-.3-.6-.3-.5 0-.9.4-.9 1v2.2h-.6v-3.7h.6zM267.5 140.6c0 .3 0 .5.2.7.2.3.6.5 1 .5s.9-.2 1.1-.6l.5.2c-.3.6-.9 1-1.6 1-1.1 0-1.9-.8-1.9-1.9s.8-1.9 1.9-1.9 1.9.8 1.9 1.9v.2h-3.1zm2.4-.4c0-.3 0-.4-.2-.6-.2-.3-.6-.5-1-.5s-.8.2-1 .5c-.1.2-.2.3-.2.6h2.4zM272.3 138.6v.6c.1-.3.2-.4.3-.5.2-.1.4-.2.7-.2h.1v.6h-.2c-.3 0-.6.2-.8.4-.2.2-.2.4-.2.9v1.9h-.6v-3.7h.6zM248.3 147.7v-.6l1.8-1.2v5.4h-.6v-4.4l-1.2.8zM251.9 146.6v-.6h3l-1.6 2c.9 0 1.6.7 1.6 1.6s-.8 1.7-1.8 1.7-1.4-.5-1.6-1.3h.6c.1.4.5.7 1 .7s1.2-.5 1.2-1.1-.5-1.1-1.2-1.1-.4 0-.6.2l-.3-.2 1.5-1.9h-1.9zM256.8 150.9c0 .2-.2.4-.4.4s-.4-.2-.4-.4.2-.4.4-.4.4.2.4.4zM257.7 150.1v-.5l2.8-3.7v3.6h.6v.6h-.6v1.2h-.6v-1.2h-2.1zm2.1-2.6l-1.5 2h1.5v-2zM265.2 147.6v.5c.3-.4.6-.6 1-.6s.8.2 1 .7c.3-.5.6-.7 1.2-.7s.7.1.9.4c.2.2.2.4.2 1v2.4h-.6v-2.2c0-.4 0-.6-.1-.7-.1-.2-.4-.3-.6-.3-.5 0-.8.4-.8 1v2.2h-.6v-2.2c0-.4 0-.5-.1-.7-.1-.2-.3-.3-.6-.3-.5 0-.9.4-.9 1v2.2h-.6v-3.7h.6zM272.8 148.8v.4h-2l1.2-1.6c.3-.5.4-.6.4-.8 0-.3-.2-.4-.5-.4s-.5.2-.5.6h-.4c0-.6.4-1 1-1s1 .3 1 .8-.1.5-.4.9l-.8 1.1h1.1z"/></g><g><path d="M43.1 293.5v.6h-3.8l3-4.8h-2.7v-.6h3.8l-3 4.8h2.7zM44.9 289.4c0 .2-.2.4-.4.4s-.4-.2-.4-.4.2-.4.4-.4.4.2.4.4zm0 4.7h-.6v-3.7h.6v3.7zM46.8 290.4v.5c.3-.4.6-.6 1-.6s.8.2 1 .7c.3-.5.6-.7 1.2-.7s.7.1.9.4c.2.2.2.4.2 1v2.4h-.6v-2.2c0-.4 0-.6-.1-.7-.1-.2-.4-.3-.6-.3-.5 0-.8.4-.8 1v2.2h-.6v-2.2c0-.4 0-.5-.1-.7-.1-.2-.3-.3-.6-.3-.5 0-.9.4-.9 1v2.2h-.6v-3.7h.6zM53.1 290.4v.5c.3-.4.6-.6 1-.6s.8.2 1 .7c.3-.5.6-.7 1.2-.7s.7.1.9.4c.2.2.2.4.2 1v2.4h-.6v-2.2c0-.4 0-.6-.1-.7-.1-.2-.4-.3-.6-.3-.5 0-.8.4-.8 1v2.2h-.6v-2.2c0-.4 0-.5-.1-.7-.1-.2-.3-.3-.6-.3-.5 0-.9.4-.9 1v2.2h-.6v-3.7h.6zM59.2 292.4c0 .3 0 .5.2.7.2.3.6.5 1 .5s.9-.2 1.1-.6l.5.2c-.3.6-.9 1-1.6 1-1.1 0-1.9-.8-1.9-1.9s.8-1.9 1.9-1.9 1.9.8 1.9 1.9v.2h-3.1zm2.4-.4c0-.3 0-.4-.2-.6-.2-.3-.6-.5-1-.5s-.8.2-1 .5c-.1.2-.2.3-.2.6h2.4zM64 290.4v.6c.1-.3.2-.4.3-.5.2-.1.4-.2.7-.2h.1v.6h-.2c-.3 0-.6.2-.8.4-.2.2-.2.4-.2.9v1.9h-.6v-3.7h.6zM40.1 299.5v-.6l1.8-1.2v5.4h-.6v-4.4l-1.2.8zM43.3 301.9v-.5l2.8-3.7v3.6h.6v.6h-.6v1.2h-.6v-1.2h-2.1zm2.1-2.6l-1.5 2h1.5v-2zM48.5 302.7c0 .2-.2.4-.4.4s-.4-.2-.4-.4.2-.4.4-.4.4.2.4.4zM49.4 299.5v-.6l1.8-1.2v5.4h-.6v-4.4l-1.2.8zM56.3 299.4v.5c.3-.4.6-.6 1-.6s.8.2 1 .7c.3-.5.6-.7 1.2-.7s.7.1.9.4c.2.2.2.4.2 1v2.4H60v-2.2c0-.4 0-.6-.1-.7-.1-.2-.4-.3-.6-.3-.5 0-.8.4-.8 1v2.2h-.6v-2.2c0-.4 0-.5-.1-.7-.1-.2-.3-.3-.6-.3-.5 0-.9.4-.9 1v2.2h-.6v-3.7h.6zM63.9 300.6v.4h-2l1.2-1.6c.3-.5.4-.6.4-.8 0-.3-.2-.4-.5-.4s-.5.2-.5.6h-.4c0-.6.4-1 1-1s1 .3 1 .8-.1.5-.4.9l-.8 1.1H64z"/></g><g><path d="M43.6 126.2v.6h-3.8l3-4.8h-2.7v-.6h3.8l-3 4.8h2.7zM45.4 122.1c0 .2-.2.4-.4.4s-.4-.2-.4-.4.2-.4.4-.4.4.2.4.4zm0 4.7h-.6v-3.7h.6v3.7zM47.3 123.1v.5c.3-.4.6-.6 1-.6s.8.2 1 .7c.3-.5.6-.7 1.2-.7s.7.1.9.4c.2.2.2.4.2 1v2.4H51v-2.2c0-.4 0-.6-.1-.7-.1-.2-.4-.3-.6-.3-.5 0-.8.4-.8 1v2.2h-.6v-2.2c0-.4 0-.5-.1-.7-.1-.2-.3-.3-.6-.3-.5 0-.9.4-.9 1v2.2h-.6v-3.7h.6zM53.6 123.1v.5c.3-.4.6-.6 1-.6s.8.2 1 .7c.3-.5.6-.7 1.2-.7s.7.1.9.4c.2.2.2.4.2 1v2.4h-.6v-2.2c0-.4 0-.6-.1-.7-.1-.2-.4-.3-.6-.3-.5 0-.8.4-.8 1v2.2h-.6v-2.2c0-.4 0-.5-.1-.7-.1-.2-.3-.3-.6-.3-.5 0-.9.4-.9 1v2.2H53v-3.7h.6zM59.7 125.1c0 .3 0 .5.2.7.2.3.6.5 1 .5s.9-.2 1.1-.6l.5.2c-.3.6-.9 1-1.6 1-1.1 0-1.9-.8-1.9-1.9s.8-1.9 1.9-1.9 1.9.8 1.9 1.9v.2h-3.1zm2.4-.4c0-.3 0-.4-.2-.6-.2-.3-.6-.5-1-.5s-.8.2-1 .5c-.1.2-.2.3-.2.6h2.4zM64.4 123.1v.6c.1-.3.2-.4.3-.5.2-.1.4-.2.7-.2h.1v.6h-.2c-.3 0-.6.2-.8.4-.2.2-.2.4-.2.9v1.9h-.6v-3.7h.6zM40.5 132.2v-.6l1.8-1.2v5.4h-.6v-4.4l-1.2.8zM44 131.1v-.6h3l-1.6 2c.9 0 1.6.7 1.6 1.6s-.8 1.7-1.8 1.7-1.4-.5-1.6-1.3h.6c.1.4.5.7 1 .7s1.2-.5 1.2-1.1-.5-1.1-1.2-1.1-.4 0-.6.2l-.3-.2 1.5-1.9h-1.9zM49 135.4c0 .2-.2.4-.4.4s-.4-.2-.4-.4.2-.4.4-.4.4.2.4.4zM53 135.2v.6h-3l1.9-2.7c.5-.8.7-1 .7-1.3 0-.5-.4-.8-.9-.8s-.7.2-.8.4v.6h-.6c0-1 .6-1.6 1.5-1.6s1.5.5 1.5 1.3-.2.8-.6 1.5l-1.4 2h1.9zM56.6 132.1v.5c.3-.4.6-.6 1-.6s.8.2 1 .7c.3-.5.6-.7 1.2-.7s.7.1.9.4c.2.2.2.4.2 1v2.4h-.6v-2.2c0-.4 0-.6-.1-.7-.1-.2-.4-.3-.6-.3-.5 0-.8.4-.8 1v2.2h-.6v-2.2c0-.4 0-.5-.1-.7-.1-.2-.3-.3-.6-.3-.5 0-.9.4-.9 1v2.2H56v-3.7h.6zM64.2 133.3v.4h-2l1.2-1.6c.3-.5.4-.6.4-.8 0-.3-.2-.4-.5-.4s-.5.2-.5.6h-.4c0-.6.4-1 1-1s1 .3 1 .8-.1.5-.4.9l-.8 1.1h1.1z"/></g><g><path d="M241.8 333.6v.6H238l3-4.8h-2.7v-.6h3.8l-3 4.8h2.7zM243.6 329.4c0 .2-.2.4-.4.4s-.4-.2-.4-.4.2-.4.4-.4.4.2.4.4zm0 4.7h-.6v-3.7h.6v3.7zM245.5 330.5v.5c.3-.4.6-.6 1-.6s.8.2 1 .7c.3-.5.6-.7 1.2-.7s.7.1.9.4c.2.2.2.4.2 1v2.4h-.6V332c0-.4 0-.6-.1-.7-.1-.2-.4-.3-.6-.3-.5 0-.8.4-.8 1v2.2h-.6V332c0-.4 0-.5-.1-.7-.1-.2-.3-.3-.6-.3-.5 0-.9.4-.9 1v2.2h-.6v-3.7h.6zM251.8 330.5v.5c.3-.4.6-.6 1-.6s.8.2 1 .7c.3-.5.6-.7 1.2-.7s.7.1.9.4c.2.2.2.4.2 1v2.4h-.6V332c0-.4 0-.6-.1-.7-.1-.2-.4-.3-.6-.3-.5 0-.8.4-.8 1v2.2h-.6V332c0-.4 0-.5-.1-.7-.1-.2-.3-.3-.6-.3-.5 0-.9.4-.9 1v2.2h-.6v-3.7h.6zM257.9 332.5c0 .3 0 .5.2.7.2.3.6.5 1 .5s.9-.2 1.1-.6l.5.2c-.3.6-.9 1-1.6 1-1.1 0-1.9-.8-1.9-1.9s.8-1.9 1.9-1.9 1.9.8 1.9 1.9v.2h-3.1zm2.4-.4c0-.3 0-.4-.2-.6-.2-.3-.6-.5-1-.5s-.8.2-1 .5c-.1.2-.2.3-.2.6h2.4zM262.7 330.5v.6c.1-.3.2-.4.3-.5.2-.1.4-.2.7-.2h.1v.6h-.2c-.3 0-.6.2-.8.4-.2.2-.2.4-.2.9v1.9h-.6v-3.7h.6zM238.8 339.6v-.6l1.8-1.2v5.4h-.6v-4.4l-1.2.8zM242.3 338.5v-.6h3l-1.6 2c.9 0 1.6.7 1.6 1.6s-.8 1.7-1.8 1.7-1.4-.5-1.6-1.3h.6c.1.4.5.7 1 .7s1.2-.5 1.2-1.1-.5-1.1-1.2-1.1-.4 0-.6.2l-.3-.2 1.5-1.9h-1.9zM247.2 342.8c0 .2-.2.4-.4.4s-.4-.2-.4-.4.2-.4.4-.4.4.2.4.4zM248.6 338.5v-.6h3l-1.6 2c.9 0 1.6.7 1.6 1.6s-.8 1.7-1.8 1.7-1.4-.5-1.6-1.3h.6c.1.4.5.7 1 .7s1.2-.5 1.2-1.1-.5-1.1-1.2-1.1-.4 0-.6.2l-.3-.2 1.5-1.9h-1.9zM254.9 339.5v.5c.3-.4.6-.6 1-.6s.8.2 1 .7c.3-.5.6-.7 1.2-.7s.7.1.9.4c.2.2.2.4.2 1v2.4h-.6V341c0-.4 0-.6-.1-.7-.1-.2-.4-.3-.6-.3-.5 0-.8.4-.8 1v2.2h-.6V341c0-.4 0-.5-.1-.7-.1-.2-.3-.3-.6-.3-.5 0-.9.4-.9 1v2.2h-.6v-3.7h.6zM262.5 340.6v.4h-2l1.2-1.6c.3-.5.4-.6.4-.8 0-.3-.2-.4-.5-.4s-.5.2-.5.6h-.4c0-.6.4-1 1-1s1 .3 1 .8-.1.5-.4.9l-.8 1.1h1.1z"/></g><g><path d="M135 283.8h-.7v-5.3h.7v2.5l2.1-2.5h.8l-2.2 2.6 2.2 2.7h-.9l-2-2.5v2.5zM142 281.9c0 1.1-.8 1.9-1.9 1.9s-1.9-.8-1.9-1.9.8-1.9 1.9-1.9 1.9.8 1.9 1.9zm-3.1 0c0 .8.5 1.4 1.3 1.4s1.2-.6 1.2-1.4-.5-1.4-1.2-1.4-1.3.6-1.3 1.4zM146.1 283.3c-.4.4-.8.5-1.4.5-1.1 0-1.8-.8-1.8-1.9s.8-1.9 1.8-1.9 1 .2 1.3.6l-.4.4c-.3-.3-.6-.4-.9-.4-.7 0-1.2.6-1.2 1.4s.5 1.4 1.2 1.4.6-.1.9-.4l.4.4zM147.6 280.6c.3-.4.7-.6 1.1-.6s.7.1.9.3c.2.2.3.5.3 1v2.5h-.6v-2.4c0-.5-.2-.8-.7-.8s-.5.1-.7.3c-.2.2-.2.4-.2.7v2.2h-.6v-5.3h.6v2.2zM151.6 282.1c0 .3 0 .5.2.7.2.3.6.5 1 .5s.9-.2 1.1-.6l.5.2c-.3.6-.9 1-1.6 1-1.1 0-1.9-.8-1.9-1.9s.8-1.9 1.9-1.9 1.9.8 1.9 1.9v.2h-3.1zm2.4-.4c0-.3 0-.4-.2-.6-.2-.3-.6-.5-1-.5s-.8.2-1 .5c-.1.2-.2.3-.2.6h2.4zM156.3 280.1v.5c.3-.4.6-.6 1.1-.6s.6.1.9.3c.2.2.3.5.3 1v2.5h-.6v-2.4c0-.3 0-.5-.1-.6-.1-.2-.3-.2-.6-.2s-.5.1-.7.3c-.2.2-.2.4-.2.7v2.2h-.6v-3.7h.6zM159.9 285h-.4l.7-2.1.6.2-.8 1.9zM165 280.8h2.1v.6H165v1.8h2.1v.6h-2.8v-5.3h2.8v.6H165v1.8zM170 281.1c0-.4-.3-.6-.7-.6s-.7.2-.7.5.2.4.8.6c.5.1.7.2.9.4s.3.4.3.7c0 .6-.5 1.1-1.3 1.1s-1.3-.4-1.4-1.1h.6c0 .4.3.6.8.6s.7-.2.7-.5-.2-.5-.8-.6c-.8-.2-1.2-.6-1.2-1.1s.5-1.1 1.3-1.1 1.3.4 1.3 1.1h-.6zM173.6 281.1c0-.4-.3-.6-.7-.6s-.7.2-.7.5.2.4.8.6c.5.1.7.2.9.4s.3.4.3.7c0 .6-.5 1.1-1.3 1.1s-1.3-.4-1.4-1.1h.6c0 .4.3.6.8.6s.7-.2.7-.5-.2-.5-.8-.6c-.8-.2-1.2-.6-1.2-1.1s.5-1.1 1.3-1.1 1.3.4 1.3 1.1h-.6zM175.7 282.1c0 .3 0 .5.2.7.2.3.6.5 1 .5s.9-.2 1.1-.6l.5.2c-.3.6-.9 1-1.6 1-1.1 0-1.9-.8-1.9-1.9s.8-1.9 1.9-1.9 1.9.8 1.9 1.9v.2h-3.1zm2.4-.4c0-.3 0-.4-.2-.6-.2-.3-.6-.5-1-.5s-.8.2-1 .5c-.1.2-.2.3-.2.6h2.4zM180.5 280.1v.5c.3-.4.6-.6 1.1-.6s.6.1.9.3c.2.2.3.5.3 1v2.5h-.6v-2.4c0-.3 0-.5-.1-.6-.1-.2-.3-.2-.6-.2s-.5.1-.7.3c-.2.2-.2.4-.2.7v2.2h-.6v-3.7h.6zM184 285h-.4l.7-2.1.6.2-.8 1.9zM134.6 289.2v-.6l1.8-1.2v5.4h-.6v-4.4l-1.2.8zM139.1 289.6c.2 0 .3-.1.5-.1.9 0 1.6.7 1.6 1.6s-.8 1.7-1.7 1.7-1.7-.8-1.7-1.7.1-.7.4-1.2l1.5-2.5h.7l-1.4 2.1zm-.7 1.5c0 .6.5 1.1 1.1 1.1s1.1-.5 1.1-1.1-.5-1.1-1.1-1.1-1.1.5-1.1 1.1zM143.1 292.4c0 .2-.2.4-.4.4s-.4-.2-.4-.4.2-.4.4-.4.4.2.4.4zM144.3 288.1v-.6h3l-2.1 5.3h-.7l1.9-4.7h-2zM150.5 289.1v.5c.3-.4.6-.6 1-.6s.8.2 1 .7c.3-.5.6-.7 1.2-.7s.7.1.9.4c.2.2.2.4.2 1v2.4h-.6v-2.2c0-.4 0-.6-.1-.7-.1-.2-.4-.3-.6-.3-.5 0-.8.4-.8 1v2.2h-.6v-2.2c0-.4 0-.5-.1-.7-.1-.2-.3-.3-.6-.3-.5 0-.9.4-.9 1v2.2h-.6v-3.7h.6zM158.1 290.2v.4h-2l1.2-1.6c.3-.5.4-.6.4-.8 0-.3-.2-.4-.5-.4s-.5.2-.5.6h-.4c0-.6.4-1 1-1s1 .3 1 .8-.1.5-.4.9l-.8 1.1h1.1z"/></g><g><path d="M129 213.4c1.1 0 1.7.5 1.7 1.4s-.1.6-.3.9c-.1.2-.3.2-.5.3.3 0 .4.1.6.2.3.2.4.6.4 1s-.2.9-.6 1.2c-.3.2-.7.3-1.3.3h-1.5v-5.3h1.5zm-.8 2.4h.7c.4 0 .7 0 .9-.2.2-.2.3-.4.3-.7s-.2-.6-.4-.8c-.2 0-.4-.1-.9-.1h-.6v1.8zm0 2.4h.7c.6 0 .8 0 1-.2.3-.1.4-.4.4-.8 0-.6-.4-.9-1.2-.9h-.8v1.8zM134.9 215.1h.6v3.7h-.6v-.7c-.4.6-.8.8-1.3.8-1 0-1.7-.8-1.7-1.9s.7-1.9 1.8-1.9 1 .2 1.3.7v-.6zm-2.1.9c-.2.3-.3.6-.3 1 0 .8.5 1.4 1.2 1.4s1.3-.6 1.3-1.4-.5-1.4-1.2-1.4-.7.1-.9.4zM139.7 213.4h.6v5.3h-.6v-.6c-.4.5-.8.7-1.3.7-1 0-1.7-.8-1.7-1.9s.7-2 1.7-2 1 .2 1.3.6v-2.2zm-2.4 3.5c0 .8.5 1.4 1.2 1.4s1.2-.6 1.2-1.4-.5-1.4-1.2-1.4-1.2.6-1.2 1.4zM127.4 223.1v-.6h3l-1.6 2c.9 0 1.6.7 1.6 1.6s-.8 1.7-1.8 1.7-1.4-.5-1.6-1.3h.6c.1.4.5.7 1 .7s1.2-.5 1.2-1.1-.5-1.1-1.2-1.1-.4 0-.6.2l-.3-.2 1.5-1.9h-1.9zM132.3 227.4c0 .2-.2.4-.4.4s-.4-.2-.4-.4.2-.4.4-.4.4.2.4.4zM136.3 225.2c.3.3.4.6.4 1 0 .9-.7 1.6-1.7 1.6s-1.6-.6-1.6-1.6.1-.8.4-1.1c.2-.2.3-.3.6-.4-.3 0-.4-.2-.5-.4-.2-.2-.3-.5-.3-.8 0-.8.6-1.3 1.5-1.3s1.4.6 1.4 1.3-.1.6-.3.8c-.1.2-.3.2-.5.3.3 0 .4.2.6.3zm-2.3 1c0 .6.5 1 1 1s1-.5 1-1-.5-1-1-1-1 .5-1 1zm.2-2.5c0 .5.4.8.8.8s.9-.4.9-.8-.4-.8-.8-.8-.9.3-.9.8zM140.9 224.1v.5c.3-.4.6-.6 1-.6s.8.2 1 .7c.3-.5.6-.7 1.2-.7s.7.1.9.4c.2.2.2.4.2 1v2.4h-.6v-2.2c0-.4 0-.6-.1-.7-.1-.2-.4-.3-.6-.3-.5 0-.8.4-.8 1v2.2h-.6v-2.2c0-.4 0-.5-.1-.7-.1-.2-.3-.3-.6-.3-.5 0-.9.4-.9 1v2.2h-.6v-3.7h.6zM148.4 225.2v.4h-2l1.2-1.6c.3-.5.4-.6.4-.8 0-.3-.2-.4-.5-.4s-.5.2-.5.6h-.4c0-.6.4-1 1-1s1 .3 1 .8-.1.5-.4.9l-.8 1.1h1.1z"/></g></g></svg>