<svg xmlns="http://www.w3.org/2000/svg" viewBox="0 0 408.9 439.6"><defs><style>.cls-1,.cls-10,.cls-11,.cls-12,.cls-13,.cls-14,.cls-15,.cls-16,.cls-17,.cls-18,.cls-19,.cls-2,.cls-20,.cls-21,.cls-3,.cls-4,.cls-5,.cls-6,.cls-7,.cls-8,.cls-9{fill:none;stroke-linecap:round;stroke-linejoin:round}.cls-1,.cls-10,.cls-11,.cls-12,.cls-13,.cls-14,.cls-15,.cls-16,.cls-17,.cls-18,.cls-19,.cls-2,.cls-21,.cls-3,.cls-4,.cls-5,.cls-6,.cls-9{stroke-width:.1px}.cls-1,.cls-10,.cls-17,.cls-19,.cls-20,.cls-21,.cls-3,.cls-4{stroke:#194164}.cls-1,.cls-10{stroke-dasharray:0 0 0 0 2.9 1.4 .2 1.4}.cls-2{stroke:#646464}.cls-11,.cls-12,.cls-13,.cls-14,.cls-15,.cls-16,.cls-17,.cls-21,.cls-3,.cls-4,.cls-5,.cls-6,.cls-9{stroke-dasharray:0 0 1.4 1.4}.cls-4{stroke-dashoffset:1px}.cls-5{stroke-dashoffset:2.5px}.cls-11,.cls-12,.cls-13,.cls-14,.cls-15,.cls-16,.cls-18,.cls-5,.cls-6,.cls-9{stroke:#969696}.cls-22,.cls-23{fill:#fff}.cls-7{stroke:#000;stroke-width:.3px}.cls-8{stroke:#b8b8b8;stroke-width:0}.cls-9{stroke-dashoffset:2.8px}.cls-10{stroke-dashoffset:1.9px}.cls-11{stroke-dashoffset:2.4px}.cls-12{stroke-dashoffset:2.7px}.cls-13{stroke-dashoffset:2.5px}.cls-14{stroke-dashoffset:2.6px}.cls-15{stroke-dashoffset:1.4px}.cls-16,.cls-21{stroke-dashoffset:.7px}.cls-23,.cls-24{fill-rule:evenodd}.cls-17{stroke-dashoffset:.2px}.cls-20{stroke-width:.3px}</style></defs><g id="Plan"><path class="cls-20" d="M220.9 247.5h29.8v39.6h-29.8z"/><path class="cls-19" d="M219 238.6h35.5M237.3 241.5h-14M250 244.6h-13.7M172.5 186.1h-14.2M172.5 186.8h-14.2M158.3 186.1v.7M172.5 186.8h-14.2M172.5 186.1h-14.2M172.5 186.1v.7"/><path class="cls-23" d="M313.1 437.7H212.6l-6.8-40.8v-1.1h22.5v-2.7h59.3v2.7h25.5"/><path class="cls-18" d="M211.6 430.6h7.9M230.3 430.6h10.6M251.9 430.6h10.6M273.3 430.6h10.5M294.9 430.6h10.5M210.4 423.4h9.1M230.3 423.4h10.6M251.9 423.4h10.6M273.3 423.4h10.5M294.9 423.4h10.5M209.2 416.2h10.3M230.3 416.2h10.6M251.9 416.2h10.6M273.3 416.2h10.5M294.9 416.2h10.5M208.7 408.8h10.8M230.3 408.8h10.6M251.9 408.8h10.6M273.3 408.8h10.5M294.9 408.8h10.5M208.7 401.6h10.8M230.3 401.6h10.6M251.9 401.6h10.6M273.3 401.6h10.5M294.9 401.6h10.5M230.3 394.4h10.6M251.9 394.4h10.6M273.3 394.4h10.5M208.7 410.7v-1.9M208.7 403.3v-1.7M208.7 396.1v-.3M230.3 432.3v-1.7M230.3 425.1v-1.7M230.3 417.9v-1.7M230.3 410.7v-1.9M230.3 403.3v-1.7M230.3 396.1v-1.7M251.9 432.3v-1.7M251.9 425.1v-1.7M251.9 417.9v-1.7M251.9 410.7v-1.9M251.9 403.3v-1.7M251.9 396.1v-1.7M273.3 432.3v-1.7M273.3 425.1v-1.7M273.3 417.9v-1.7M273.3 410.7v-1.9M273.3 403.3v-1.7M273.3 396.1v-1.7M294.9 432.3v-1.7M294.9 425.1v-1.7M294.9 417.9v-1.7M294.9 410.7v-1.9M294.9 403.3v-1.7M294.9 396.1v-.3M219.5 430.6h10.6M240.9 430.6h10.8M262.5 430.6H273M283.8 430.6h10.8M305.4 430.6h7.9M219.5 423.4h10.6M240.9 423.4h10.8M262.5 423.4H273M283.8 423.4h10.8M305.4 423.4h7.9M219.5 416.2h10.6M240.9 416.2h10.8M262.5 416.2H273M283.8 416.2h10.8M305.4 416.2h7.9M208 408.8h.7M219.5 408.8h10.6M240.9 408.8h10.8M262.5 408.8H273M283.8 408.8h10.8M305.4 408.8h7.9M206.8 401.6h1.9M219.5 401.6h10.6M240.9 401.6h10.8M262.5 401.6H273M283.8 401.6h10.8M305.4 401.6h7.9M228.6 394.4h1.5M240.9 394.4h10.8M262.5 394.4H273M283.8 394.4h4.1M208.7 410.7v-1.9M208.7 403.3v-1.7M208.7 396.1v-.3M230.1 432.3v-1.7M230.1 425.1v-1.7M230.1 417.9v-1.7M230.1 410.7v-1.9M230.1 403.3v-1.7M230.1 396.1v-1.7M251.7 432.3v-1.7M251.7 425.1v-1.7M251.7 417.9v-1.7M251.7 410.7v-1.9M251.7 403.3v-1.7M251.7 396.1v-1.7M273 432.3v-1.7M273 425.1v-1.7M273 417.9v-1.7M273 410.7v-1.9M273 403.3v-1.7M273 396.1v-1.7M294.6 432.3v-1.7M294.6 425.1v-1.7M294.6 417.9v-1.7M294.6 410.7v-1.9M294.6 403.3v-1.7M294.6 396.1v-.3M212.1 434h7.4M230.3 434h10.6M251.9 434h10.6M273.3 434h10.5M294.9 434h10.5M210.9 426.8h8.6M230.3 426.8h10.6M251.9 426.8h10.6M273.3 426.8h10.5M294.9 426.8h10.5M209.7 419.6h9.8M230.3 419.6h10.6M251.9 419.6h10.6M273.3 419.6h10.5M294.9 419.6h10.5M208.7 412.4h10.8M230.3 412.4h10.6M251.9 412.4h10.6M273.3 412.4h10.5M294.9 412.4h10.5M208.7 405h10.8M230.3 405h10.6M251.9 405h10.6M273.3 405h10.5M294.9 405h10.5M208.7 397.8h10.8M230.3 397.8h10.6M251.9 397.8h10.6M273.3 397.8h10.5M294.9 397.8h10.5M208.7 412.4v-1.7M208.7 405v-1.7M208.7 397.8v-1.7M230.3 434v-1.7M230.3 426.8v-1.7M230.3 419.6v-1.7M230.3 412.4v-1.7M230.3 405v-1.7M230.3 397.8v-1.7M251.9 434v-1.7M251.9 426.8v-1.7M251.9 419.6v-1.7M251.9 412.4v-1.7M251.9 405v-1.7M251.9 397.8v-1.7M273.3 434v-1.7M273.3 426.8v-1.7M273.3 419.6v-1.7M273.3 412.4v-1.7M273.3 405v-1.7M273.3 397.8v-1.7M294.9 434v-1.7M294.9 426.8v-1.7M294.9 419.6v-1.7M294.9 412.4v-1.7M294.9 405v-1.7M294.9 397.8v-1.7M208.7 412.4v-1.7M208.7 405v-1.7M208.7 397.8v-1.7M230.1 434v-1.7M230.1 426.8v-1.7M230.1 419.6v-1.7M230.1 412.4v-1.7M230.1 405v-1.7M230.1 397.8v-1.7M251.7 434v-1.7M251.7 426.8v-1.7M251.7 419.6v-1.7M251.7 412.4v-1.7M251.7 405v-1.7M251.7 397.8v-1.7M273 434v-1.7M273 426.8v-1.7M273 419.6v-1.7M273 412.4v-1.7M273 405v-1.7M273 397.8v-1.7M294.6 434v-1.7M294.6 426.8v-1.7M294.6 419.6v-1.7M294.6 412.4v-1.7M294.6 405v-1.7M294.6 397.8v-1.7M219.5 434h10.6M240.9 434h10.8M262.5 434H273M283.8 434h10.8M305.4 434h7.9M219.5 426.8h10.6M240.9 426.8h10.8M262.5 426.8H273M283.8 426.8h10.8M305.4 426.8h7.9M219.5 419.6h10.6M240.9 419.6h10.8M262.5 419.6H273M283.8 419.6h10.8M305.4 419.6h7.9M208.5 412.4h.2M219.5 412.4h10.6M240.9 412.4h10.8M262.5 412.4H273M283.8 412.4h10.8M305.4 412.4h7.9M207.3 405h1.4M219.5 405h10.6M240.9 405h10.8M262.5 405H273M283.8 405h10.8M305.4 405h7.9M206.1 397.8h2.6M219.5 397.8h10.6M240.9 397.8h10.8M262.5 397.8H273M283.8 397.8h10.8M305.4 397.8h7.9M212.1 434.2h7.2M219.5 434.2h21.4M241.1 434.2h21.1M262.5 434.2h21.3M284.1 434.2h21.1M305.4 434.2h7.9M210.9 427h8.4M219.5 427h21.4M241.1 427h21.1M262.5 427h21.3M284.1 427h21.1M305.4 427h7.9M209.7 419.8h9.6M219.5 419.8h21.4M241.1 419.8h21.1M262.5 419.8h21.3M284.1 419.8h21.1M305.4 419.8h7.9M208.5 412.6h10.8M219.5 412.6h21.4M241.1 412.6h21.1M262.5 412.6h21.3M284.1 412.6h21.1M305.4 412.6h7.9M207.3 405.2h12M219.5 405.2h21.4M241.1 405.2h21.1M262.5 405.2h21.3M284.1 405.2h21.1M305.4 405.2h7.9M206.1 398h13.2M219.5 398h21.4M241.1 398h21.1M262.5 398h21.3M284.1 398h21.1M305.4 398h7.9M219.3 437.6v-3.4M219.3 430.4V427M219.3 423.2v-3.4M219.3 416v-3.4M219.3 408.8v-3.6M219.3 401.4V398M240.9 437.6v-3.4M240.9 430.4V427M240.9 423.2v-3.4M240.9 416v-3.4M240.9 408.8v-3.6M240.9 401.4V398M240.9 394.2V393M262.2 437.6v-3.4M262.2 430.4V427M262.2 423.2v-3.4M262.2 416v-3.4M262.2 408.8v-3.6M262.2 401.4V398M262.2 394.2V393M283.8 437.6v-3.4M283.8 430.4V427M283.8 423.2v-3.4M283.8 416v-3.4M283.8 408.8v-3.6M283.8 401.4V398M283.8 394.2V393M305.2 437.6v-3.4M305.2 430.4V427M305.2 423.2v-3.4M305.2 416v-3.4M305.2 408.8v-3.6M305.2 401.4V398M211.6 430.4h7.7M219.5 430.4h21.4M241.1 430.4h21.1M262.5 430.4h21.3M284.1 430.4h21.1M305.4 430.4h7.9M210.4 423.2h8.9M219.5 423.2h21.4M241.1 423.2h21.1M262.5 423.2h21.3M284.1 423.2h21.1M305.4 423.2h7.9M209.2 416h10.1M219.5 416h21.4M241.1 416h21.1M262.5 416h21.3M284.1 416h21.1M305.4 416h7.9M208 408.8h11.3M219.5 408.8h21.4M241.1 408.8h21.1M262.5 408.8h21.3M284.1 408.8h21.1M305.4 408.8h7.9M206.8 401.4h12.5M219.5 401.4h21.4M241.1 401.4h21.1M262.5 401.4h21.3M284.1 401.4h21.1M305.4 401.4h7.9M228.6 394.2h12.3M241.1 394.2h21.1M262.5 394.2h21.3M284.1 394.2h3.8M219.5 437.6v-3.4M219.5 430.4V427M219.5 423.2v-3.4M219.5 416v-3.4M219.5 408.8v-3.6M219.5 401.4V398M241.1 437.6v-3.4M241.1 430.4V427M241.1 423.2v-3.4M241.1 416v-3.4M241.1 408.8v-3.6M241.1 401.4V398M241.1 394.2V393M262.5 437.6v-3.4M262.5 430.4V427M262.5 423.2v-3.4M262.5 416v-3.4M262.5 408.8v-3.6M262.5 401.4V398M262.5 394.2V393M284.1 437.6v-3.4M284.1 430.4V427M284.1 423.2v-3.4M284.1 416v-3.4M284.1 408.8v-3.6M284.1 401.4V398M284.1 394.2V393M305.4 437.6v-3.4M305.4 430.4V427M305.4 423.2v-3.4M305.4 416v-3.4M305.4 408.8v-3.6M305.4 401.4V398"/><path class="cls-8" d="M313.1 437.7H212.6l-6.8-40.8v-1.1h22.5v-2.7h59.3v2.7h25.5"/><path class="cls-19" d="M114.6 253.8V283"/><path class="cls-7" d="M115.3 253.8V283"/><path class="cls-19" d="M113.2 253.8V283M114.6 253.8V283"/><path class="cls-7" d="M114.6 283h.7"/><path class="cls-19" d="M113.2 283h1.4M115.3 253.8V283M113.2 253.8V283"/><path class="cls-7" d="M114.6 253.8h.7"/><path class="cls-19" d="M113.2 253.8h1.4M204.1 396.8l7 42.7h102"/><path class="cls-19" d="M205.8 396.8l6.7 40.8h100.6"/><path class="cls-24" d="M31.1 382.2v14.6H.1v-14.6h31"/><path class="cls-23" d="M31.1 396.8v-3.4H.1v3.4h31"/><path class="cls-18" d="M.4 394.2l2.4 2.6M3.5 393.4l3.4 3.4M7.3 393.4l3.4 3.4M11.4 393.4l3.4 3.4M15.5 393.4l3.4 3.4M19.6 393.4l3.3 3.4M23.4 393.4l3.4 3.4M27.5 393.4l3.4 3.4"/><path class="cls-23" d="M31.1 393.4v-.4H.1v.4h31M31.1 393v-5.8H.1v5.8h31"/><path class="cls-18" d="M1.6 387.2v5.8M3 387.2v5.8M4.2 387.2v5.8M5.7 387.2v5.8M7.1 387.2v5.8M8.5 387.2v5.8M10 387.2v5.8M11.4 387.2v5.8M12.9 387.2v5.8M14.3 387.2v5.8M15.7 387.2v5.8M17.2 387.2v5.8M18.6 387.2v5.8M19.8 387.2v5.8M21.3 387.2v5.8M22.7 387.2v5.8M24.1 387.2v5.8M25.6 387.2v5.8M27 387.2v5.8M28.5 387.2v5.8M29.9 387.2v5.8"/><path class="cls-23" d="M31.1 387.2v-5H.1v5h31"/><path class="cls-18" d="M.4 386.2l.7 1M.4 382.2l4.8 5M4.2 382.2l5.1 5M8.3 382.2l5 5M12.1 382.2l5.1 5M16.2 382.2l5.1 5M20.3 382.2l5 5M24.1 382.2l5.1 5M28.2 382.2l3.1 2.8"/><path class="cls-20" d="M31.1 393.4H.1M31.1 396.8H.1"/><path class="cls-18" d="M31.1 387.2H.1M31.1 393H.1"/><path class="cls-20" d="M31.1 382.2H.1M31.1 387.2H.1"/><path class="cls-19" d="M31.1 396.8H.1M31.1 382.2H.1"/><path class="cls-24" d="M123.3 382.2v14.6H71.9v-14.6h51.4"/><path class="cls-23" d="M123.3 396.8v-3.4H71.9v3.4h51.4"/><path class="cls-18" d="M72.1 393.9l2.9 2.9M75.5 393.4l3.4 3.4M79.6 393.4l3.3 3.4M83.7 393.4l3.3 3.4M87.7 393.4l3.4 3.4M91.6 393.4l3.3 3.4M95.7 393.4l3.3 3.4M99.7 393.4l3.4 3.4M103.6 393.4l3.3 3.4M107.7 393.4l3.3 3.4M111.7 393.4l3.4 3.4M115.6 393.4l3.3 3.4M119.7 393.4l3.3 3.4"/><path class="cls-23" d="M123.3 393.4v-.4H71.9v.4h51.4M123.3 393v-5.8H71.9v5.8h51.4"/><path class="cls-18" d="M72.4 387.2v5.8M73.8 387.2v5.8M75.3 387.2v5.8M76.7 387.2v5.8M78.1 387.2v5.8M79.3 387.2v5.8M80.8 387.2v5.8M82.2 387.2v5.8M83.7 387.2v5.8M85.1 387.2v5.8M86.5 387.2v5.8M88 387.2v5.8M89.4 387.2v5.8M90.9 387.2v5.8M92.3 387.2v5.8M93.7 387.2v5.8M94.9 387.2v5.8M96.4 387.2v5.8M97.8 387.2v5.8M99.3 387.2v5.8M100.7 387.2v5.8M102.1 387.2v5.8M103.6 387.2v5.8M105 387.2v5.8M106.5 387.2v5.8M107.9 387.2v5.8M109.1 387.2v5.8M110.5 387.2v5.8M112 387.2v5.8M113.4 387.2v5.8M114.9 387.2v5.8M116.3 387.2v5.8M117.7 387.2v5.8M119.2 387.2v5.8M120.6 387.2v5.8M122.1 387.2v5.8"/><path class="cls-23" d="M123.3 387.2v-5H71.9v5h51.4"/><path class="cls-18" d="M72.1 385.8l1.2 1.4M72.4 382.2l5 5M76.5 382.2l5 5M80.3 382.2l5 5M84.4 382.2l5 5M88.5 382.2l5 5M92.3 382.2l5 5M96.4 382.2l5 5M100.5 382.2l5 5M104.3 382.2l5 5M108.4 382.2l5 5M112.5 382.2l5 5M116.5 382.2l5.1 5M120.4 382.2l3.1 2.8"/><path class="cls-20" d="M123.3 393.4H71.9M123.3 396.8H71.9"/><path class="cls-18" d="M123.3 387.2H71.9M123.3 393H71.9"/><path class="cls-20" d="M123.3 382.2H71.9M123.3 387.2H71.9"/><path class="cls-19" d="M123.3 396.8H71.9M123.3 382.2H71.9"/><path class="cls-24" d="M226.5 382.2v14.6h-40.4v-14.6h40.4"/><path class="cls-23" d="M226.5 396.8v-3.4h-40.4v3.4h40.4"/><path class="cls-18" d="M186.4 395.8l.7 1M187.8 393.4l3.4 3.4M191.9 393.4l3.4 3.4M196 393.4l3.3 3.4M199.8 393.4l3.4 3.4M203.9 393.4l3.4 3.4M208 393.4l3.3 3.4M211.8 393.4l3.4 3.4M215.9 393.4l3.4 3.4M220 393.4l3.3 3.4M223.8 393.4l2.9 2.7"/><path class="cls-23" d="M226.5 393.4v-.4h-40.4v.4h40.4M226.5 393v-5.8h-40.4v5.8h40.4"/><path class="cls-18" d="M187.1 387.2v5.8M188.5 387.2v5.8M190 387.2v5.8M191.4 387.2v5.8M192.9 387.2v5.8M194.3 387.2v5.8M195.7 387.2v5.8M197.2 387.2v5.8M198.6 387.2v5.8M199.8 387.2v5.8M201.3 387.2v5.8M202.7 387.2v5.8M204.1 387.2v5.8M205.6 387.2v5.8M207 387.2v5.8M208.5 387.2v5.8M209.9 387.2v5.8M211.3 387.2v5.8M212.8 387.2v5.8M214 387.2v5.8M215.4 387.2v5.8M216.9 387.2v5.8M218.3 387.2v5.8M219.7 387.2v5.8M221.2 387.2v5.8M222.6 387.2v5.8M224.1 387.2v5.8M225.5 387.2v5.8"/><path class="cls-23" d="M226.5 387.2v-5h-40.4v5h40.4"/><path class="cls-18" d="M186.4 383.8l3.3 3.4M188.5 382.2l5.1 5M192.6 382.2l5.1 5M196.7 382.2l5 5M200.5 382.2l5.1 5M204.6 382.2l5.1 5M208.7 382.2l5 5M212.5 382.2l5.1 5M216.6 382.2l5.1 5M220.7 382.2l5 5M224.8 382.2l1.9 1.9"/><path class="cls-20" d="M226.5 393.4h-40.4M226.5 396.8h-40.4"/><path class="cls-18" d="M226.5 387.2h-40.4M226.5 393h-40.4"/><path class="cls-20" d="M226.5 382.2h-40.4M226.5 387.2h-40.4"/><path class="cls-19" d="M226.5 396.8h-40.4M226.5 382.2h-40.4"/><path class="cls-24" d="M313.1 382.2v14.6h-23.8v-14.6h23.8"/><path class="cls-23" d="M313.1 396.8v-3.4h-23.8v3.4h23.8"/><path class="cls-18" d="M289.6 394.9l1.9 1.9M292 393.4l3.3 3.4M296.1 393.4l3.3 3.4M300.1 393.4l3.4 3.4M304.2 393.4l3.4 3.4M308.1 393.4l3.3 3.4M312.1 393.4l1.2 1.2"/><path class="cls-23" d="M313.1 393.4v-.4h-23.8v.4h23.8M313.1 393v-5.8h-23.8v5.8h23.8"/><path class="cls-18" d="M290.5 387.2v5.8M292 387.2v5.8M293.4 387.2v5.8M294.9 387.2v5.8M296.3 387.2v5.8M297.7 387.2v5.8M299.2 387.2v5.8M300.6 387.2v5.8M302.1 387.2v5.8M303.5 387.2v5.8M304.7 387.2v5.8M306.1 387.2v5.8M307.6 387.2v5.8M309 387.2v5.8M310.5 387.2v5.8M311.9 387.2v5.8"/><path class="cls-23" d="M313.1 387.2v-5h-23.8v5h23.8"/><path class="cls-18" d="M289.6 386.7l.2.5M289.6 382.9l4.3 4.3M292.9 382.2l5.1 5M296.8 382.2l5 5M300.9 382.2l5 5M304.9 382.2l5.1 5M308.8 382.2l4.5 4.3M312.9 382.2l.4.2"/><path class="cls-20" d="M313.1 393.4h-23.8M313.1 396.8h-23.8"/><path class="cls-18" d="M313.1 387.2h-23.8M313.1 393h-23.8"/><path class="cls-20" d="M313.1 382.2h-23.8M313.1 387.2h-23.8"/><path class="cls-19" d="M313.1 396.8h-23.8M313.1 382.2h-23.8M70.2 389.6v7.2h3.4v1.9H29.7v-1.9H33v-7.2"/><path class="cls-1" d="M71.9 382.2H31.1"/><path class="cls-19" d="M31.6 382.2h-.5"/><path class="cls-20" d="M70.2 396.8h3.4M33 396.8h-3.3"/><path class="cls-19" d="M31.1 387.2h40.8v2.4H31.1zM68.3 389.6v-2.4M34.9 389.6v-2.4M71.9 387.2v2.4M53.7 387.2v2.4M68.3 387.2v2.4M49.6 387.2v2.4M53.7 387.2v2.4M34.9 387.2v2.4M49.6 387.2v2.4M31.1 387.2v2.4"/><path class="cls-23" d="M72 392.9h-1.8v-3.4H72"/><path class="cls-18" d="M70.9 389.6v3.4M72 392.9h-1.8v-3.4H72"/><path class="cls-20" d="M71.9 387.2v-5"/><path class="cls-23" d="M71.9 396.8h-1.7v-3.4h1.7"/><path class="cls-18" d="M70.5 396.1l.4.7M71.7 393.4l.4.5"/><path class="cls-20" d="M71.9 396.8h-1.7v-3.4h1.7M70.2 393.4v-3.8"/><path class="cls-23" d="M31.2 392.9H33v-3.4h-1.8"/><path class="cls-18" d="M31.3 389.6v3.4M32.8 389.6v3.4M31.2 392.9H33v-3.4h-1.8"/><path class="cls-20" d="M31.1 387.2v-5"/><path class="cls-23" d="M31.1 396.8H33v-3.4h-1.9"/><path class="cls-18" d="M31.6 393.4l1.7 1.7"/><path class="cls-20" d="M31.1 396.8H33v-3.4h-1.9M33 393.4v-3.8"/><path class="cls-19" d="M184.5 389.6v7.2h3.3v1.9h-66v-1.9h3.4v-7.2"/><path class="cls-1" d="M186.1 382.2h-62.8"/><path class="cls-20" d="M184.5 396.8h3.3M125.2 396.8h-3.4"/><path class="cls-19" d="M123.3 387.2h62.9v2.4h-62.9zM182.5 389.6v-2.4M127.1 389.6v-2.4M186.1 387.2v2.4M167.4 387.2v2.4M182.5 387.2v2.4M163.1 387.2v2.4M167.4 387.2v2.4M146.3 387.2v2.4M163.1 387.2v2.4M142.2 387.2v2.4M146.3 387.2v2.4M127.1 387.2v2.4M142.2 387.2v2.4M123.3 387.2v2.4"/><path class="cls-23" d="M186.2 392.9h-1.8v-3.4h1.8"/><path class="cls-18" d="M185.7 389.6v3.4M186.2 392.9h-1.8v-3.4h1.8"/><path class="cls-20" d="M186.1 387.2v-5"/><path class="cls-23" d="M186.1 396.8h-1.6v-3.4h1.6"/><path class="cls-18" d="M184.7 394.2l1.7 1.6"/><path class="cls-20" d="M186.1 396.8h-1.6v-3.4h1.6M184.5 393.4v-3.8"/><path class="cls-23" d="M123.3 392.9h1.9v-3.4h-1.9"/><path class="cls-18" d="M123.5 389.6v3.4M124.7 389.6v3.4M123.3 392.9h1.9v-3.4h-1.9"/><path class="cls-20" d="M123.3 387.2v-5"/><path class="cls-23" d="M123.3 396.8h1.9v-3.4h-1.9"/><path class="cls-18" d="M123.7 393.4l1.7 1.7"/><path class="cls-20" d="M123.3 396.8h1.9v-3.4h-1.9M125.2 393.4v-3.8"/><path class="cls-1" d="M289.3 382.2h-62.8"/><path class="cls-19" d="M226.5 387.2h62.9v2.4h-62.9zM285.7 389.6v-2.4M230.1 389.6v-2.4M289.3 387.2v2.4M270.4 387.2v2.4M285.7 387.2v2.4M266.3 387.2v2.4M270.4 387.2v2.4M249.5 387.2v2.4M266.3 387.2v2.4M245.4 387.2v2.4M249.5 387.2v2.4M230.1 387.2v2.4M245.4 387.2v2.4M226.5 387.2v2.4"/><path class="cls-20" d="M289.3 387.2v-5"/><path class="cls-19" d="M225 396.8v1.9"/><path class="cls-10" d="M225 398.7h66"/><path class="cls-19" d="M291 398.7v-.9"/><path class="cls-23" d="M289.4 392.9h-1.8v-3.4h1.8"/><path class="cls-18" d="M287.9 389.6v3.4M289.1 389.6v3.4M289.4 392.9h-1.8v-3.4h1.8"/><path class="cls-23" d="M289.3 396.8h-1.6v-3.4h1.6"/><path class="cls-18" d="M288.1 393.4l1.5 1.5"/><path class="cls-20" d="M289.3 396.8h-1.6v-3.4h1.6M287.7 393.4v-3.8"/><path class="cls-23" d="M226.5 392.9h1.8v-3.4h-1.8"/><path class="cls-18" d="M226.9 389.6v3.4M228.4 389.6v3.4M226.5 392.9h1.8v-3.4h-1.8"/><path class="cls-20" d="M226.5 387.2v-5"/><path class="cls-23" d="M226.5 396.8h1.9v-3.4h-1.9"/><path class="cls-18" d="M226.7 396.1l.5.7M227.9 393.4l.7.5"/><path class="cls-20" d="M226.5 396.8h1.9v-3.4h-1.9M228.4 393.4v-3.8"/><path class="cls-24" d="M278.3 71.4V56.7h34.8v14.7h-34.8"/><path class="cls-23" d="M278.3 56.7v3.4h34.8v-3.4h-34.8"/><path class="cls-18" d="M278.5 59.1l1 1M280 56.7l3.3 3.4M284.1 56.7l3.3 3.4M288.1 56.7l3.4 3.4M292 56.7l3.3 3.4M296.1 56.7l3.3 3.4M300.1 56.7l3.4 3.4M304.2 56.7l3.4 3.4M308.1 56.7l3.3 3.4M312.1 56.7l1.2 1.2"/><path class="cls-23" d="M278.3 60.1v.7h34.8v-.7h-34.8"/><path class="cls-23" d="M278.3 60.8v5.5h34.8v-5.5h-34.8"/><path class="cls-18" d="M311.9 66.3v-5.5M310.5 66.3v-5.5M309 66.3v-5.5M307.6 66.3v-5.5M306.1 66.3v-5.5M304.7 66.3v-5.5M303.5 66.3v-5.5M302.1 66.3v-5.5M300.6 66.3v-5.5M299.2 66.3v-5.5M297.7 66.3v-5.5M296.3 66.3v-5.5M294.9 66.3v-5.5M293.4 66.3v-5.5M292 66.3v-5.5M290.5 66.3v-5.5M289.1 66.3v-5.5M287.9 66.3v-5.5M286.5 66.3v-5.5M285 66.3v-5.5M283.6 66.3v-5.5M282.1 66.3v-5.5M280.7 66.3v-5.5M279.3 66.3v-5.5"/><path class="cls-23" d="M278.3 66.3v5.1h34.8v-5.1h-34.8"/><path class="cls-18" d="M278.5 71.1l.3.3M278.5 67l4.1 4.4M281.7 66.3l5 5.1M285.7 66.3l5.1 5.1M289.6 66.3l5 5.1M293.7 66.3l5 5.1M297.7 66.3l5.1 5.1M301.6 66.3l5 5.1M305.7 66.3l5 5.1M309.7 66.3l3.6 3.6"/><path class="cls-20" d="M278.3 60.1h34.8M278.3 56.7h34.8"/><path class="cls-18" d="M278.3 66.3h34.8M278.3 60.8h34.8"/><path class="cls-20" d="M278.3 71.4h34.8M278.3 66.3h34.8"/><path class="cls-19" d="M278.3 56.7h34.8M278.3 71.4h34.8"/><path class="cls-24" d="M186.1 71.4V56.7h51.4v14.7h-51.4"/><path class="cls-23" d="M186.1 56.7v3.4h51.4v-3.4h-51.4"/><path class="cls-18" d="M186.4 59.1l.7 1M187.8 56.7l3.4 3.4M191.9 56.7l3.4 3.4M196 56.7l3.3 3.4M199.8 56.7l3.4 3.4M203.9 56.7l3.4 3.4M208 56.7l3.3 3.4M211.8 56.7l3.4 3.4M215.9 56.7l3.4 3.4M220 56.7l3.3 3.4M224.1 56.7l3.3 3.4M227.9 56.7l3.4 3.4M232 56.7l3.3 3.4M236.1 56.7l1.6 1.7"/><path class="cls-23" d="M186.1 60.1v.7h51.4v-.7h-51.4"/><path class="cls-23" d="M186.1 60.8v5.5h51.4v-5.5h-51.4"/><path class="cls-18" d="M236.8 66.3v-5.5M235.3 66.3v-5.5M233.9 66.3v-5.5M232.5 66.3v-5.5M231 66.3v-5.5M229.6 66.3v-5.5M228.4 66.3v-5.5M226.9 66.3v-5.5M225.5 66.3v-5.5M224.1 66.3v-5.5M222.6 66.3v-5.5M221.2 66.3v-5.5M219.7 66.3v-5.5M218.3 66.3v-5.5M216.9 66.3v-5.5M215.4 66.3v-5.5M214 66.3v-5.5M212.8 66.3v-5.5M211.3 66.3v-5.5M209.9 66.3v-5.5M208.5 66.3v-5.5M207 66.3v-5.5M205.6 66.3v-5.5M204.1 66.3v-5.5M202.7 66.3v-5.5M201.3 66.3v-5.5M199.8 66.3v-5.5M198.6 66.3v-5.5M197.2 66.3v-5.5M195.7 66.3v-5.5M194.3 66.3v-5.5M192.9 66.3v-5.5M191.4 66.3v-5.5M190 66.3v-5.5M188.5 66.3v-5.5M187.1 66.3v-5.5"/><path class="cls-23" d="M186.1 66.3v5.1h51.4v-5.1h-51.4"/><path class="cls-18" d="M186.4 71.1v.3M186.4 67l4.1 4.4M189.5 66.3l5 5.1M193.3 66.3l5.1 5.1M197.4 66.3l5.1 5.1M201.5 66.3l5 5.1M205.6 66.3l5 5.1M209.4 66.3l5.1 5.1M213.5 66.3l5 5.1M217.6 66.3l5 5.1M221.4 66.3l5.1 5.1M225.5 66.3l5 5.1M229.6 66.3l5 5.1M233.7 66.3l4 4.1M237.5 66.3h.2"/><path class="cls-20" d="M186.1 60.1h51.4M186.1 56.7h51.4"/><path class="cls-18" d="M186.1 66.3h51.4M186.1 60.8h51.4"/><path class="cls-20" d="M186.1 71.4h51.4M186.1 66.3h51.4"/><path class="cls-19" d="M186.1 56.7h51.4M186.1 71.4h51.4"/><path class="cls-24" d="M71.9 71.4V56.7h51.4v14.7H71.9"/><path class="cls-23" d="M71.9 56.7v3.4h51.4v-3.4H71.9"/><path class="cls-18" d="M72.1 57.2l2.9 2.9M75.5 56.7l3.4 3.4M79.6 56.7l3.3 3.4M83.7 56.7l3.3 3.4M87.7 56.7l3.4 3.4M91.6 56.7l3.3 3.4M95.7 56.7l3.3 3.4M99.7 56.7l3.4 3.4M103.6 56.7l3.3 3.4M107.7 56.7l3.3 3.4M111.7 56.7l3.4 3.4M115.8 56.7l3.4 3.4M119.7 56.7l3.3 3.4"/><path class="cls-23" d="M71.9 60.1v.7h51.4v-.7H71.9"/><path class="cls-23" d="M71.9 60.8v5.5h51.4v-5.5H71.9"/><path class="cls-18" d="M122.1 66.3v-5.5M120.6 66.3v-5.5M119.2 66.3v-5.5M117.7 66.3v-5.5M116.3 66.3v-5.5M114.9 66.3v-5.5M113.4 66.3v-5.5M112 66.3v-5.5M110.5 66.3v-5.5M109.1 66.3v-5.5M107.9 66.3v-5.5M106.5 66.3v-5.5M105 66.3v-5.5M103.6 66.3v-5.5M102.1 66.3v-5.5M100.7 66.3v-5.5M99.3 66.3v-5.5M97.8 66.3v-5.5M96.4 66.3v-5.5M94.9 66.3v-5.5M93.7 66.3v-5.5M92.3 66.3v-5.5M90.9 66.3v-5.5M89.4 66.3v-5.5M88 66.3v-5.5M86.5 66.3v-5.5M85.1 66.3v-5.5M83.7 66.3v-5.5M82.2 66.3v-5.5M80.8 66.3v-5.5M79.3 66.3v-5.5M78.1 66.3v-5.5M76.7 66.3v-5.5M75.3 66.3v-5.5M73.8 66.3v-5.5M72.4 66.3v-5.5"/><path class="cls-23" d="M71.9 66.3v5.1h51.4v-5.1H71.9"/><path class="cls-18" d="M72.1 69.2l2.2 2.2M73.1 66.3l5 5.1M77.2 66.3l5 5.1M81.3 66.3l5 5.1M85.1 66.3l5 5.1M89.2 66.3l5 5.1M93.3 66.3l5 5.1M97.3 66.3l5.1 5.1M101.2 66.3l5 5.1M105.3 66.3l5 5.1M109.3 66.3l5.1 5.1M113.2 66.3l5 5.1M117.3 66.3l5 5.1M121.3 66.3l2.2 2.2"/><path class="cls-20" d="M71.9 60.1h51.4M71.9 56.7h51.4"/><path class="cls-18" d="M71.9 66.3h51.4M71.9 60.8h51.4"/><path class="cls-20" d="M71.9 71.4h51.4M71.9 66.3h51.4"/><path class="cls-19" d="M71.9 56.7h51.4M71.9 71.4h51.4"/><path class="cls-24" d="M.1 71.4V56.7h31v14.7H.1"/><path class="cls-23" d="M.1 56.7v3.4h31v-3.4H.1"/><path class="cls-18" d="M.4 57.4l2.4 2.7M3.5 56.7l3.4 3.4M7.6 56.7l3.3 3.4M11.4 56.7l3.4 3.4M15.5 56.7l3.4 3.4M19.6 56.7l3.3 3.4M23.4 56.7l3.4 3.4M27.5 56.7l3.4 3.4"/><path class="cls-23" d="M.1 60.1v.7h31v-.7H.1"/><path class="cls-23" d="M.1 60.8v5.5h31v-5.5H.1"/><path class="cls-18" d="M29.9 66.3v-5.5M28.5 66.3v-5.5M27 66.3v-5.5M25.6 66.3v-5.5M24.1 66.3v-5.5M22.7 66.3v-5.5M21.3 66.3v-5.5M19.8 66.3v-5.5M18.6 66.3v-5.5M17.2 66.3v-5.5M15.7 66.3v-5.5M14.3 66.3v-5.5M12.9 66.3v-5.5M11.4 66.3v-5.5M10 66.3v-5.5M8.5 66.3v-5.5M7.1 66.3v-5.5M5.7 66.3v-5.5M4.2 66.3v-5.5M3 66.3v-5.5M1.6 66.3v-5.5"/><path class="cls-23" d="M.1 66.3v5.1h31v-5.1H.1"/><path class="cls-18" d="M.4 69.4l1.7 2M1.1 66.3l5 5.1M4.9 66.3l5.1 5.1M9 66.3l5.1 5.1M13.1 66.3l5 5.1M17.2 66.3l5 5.1M21 66.3l5.1 5.1M25.1 66.3l5 5.1M29.2 66.3l2.1 2.2"/><path class="cls-20" d="M.1 60.1h31M.1 56.7h31"/><path class="cls-18" d="M.1 66.3h31M.1 60.8h31"/><path class="cls-20" d="M.1 71.4h31M.1 66.3h31"/><path class="cls-19" d="M.1 56.7h31M.1 71.4h31M33 64.2v-7.5h-3.3v-1.9h43.9v1.9h-3.4v7.5"/><path class="cls-1" d="M31.1 71.4h40.8"/><path class="cls-19" d="M71.4 71.4h.5"/><path class="cls-20" d="M33 56.7h-3.3M70.2 56.7h3.4"/><path class="cls-19" d="M31.1 64.2h40.8v2.2H31.1zM34.9 64.2v2.1M68.3 64.2v2.1M31.1 66.3v-2.1M49.6 66.3v-2.1M34.9 66.3v-2.1M53.7 66.3v-2.1M49.6 66.3v-2.1M68.3 66.3v-2.1M53.7 66.3v-2.1M71.9 66.3v-2.1"/><path class="cls-23" d="M31.2 60.7H33v3.4h-1.8"/><path class="cls-18" d="M32.8 64.2v-3.4M31.3 64.2v-3.4M31.2 60.7H33v3.4h-1.8"/><path class="cls-20" d="M31.1 66.3v5.1"/><path class="cls-23" d="M31.1 56.7H33v3.4h-1.9"/><path class="cls-18" d="M31.6 56.7l1.7 1.7"/><path class="cls-20" d="M31.1 56.7H33v3.4h-1.9M33 60.1v4.1"/><path class="cls-23" d="M72 60.7h-1.8v3.4H72"/><path class="cls-18" d="M70.9 64.2v-3.4M72 60.7h-1.8v3.4H72"/><path class="cls-20" d="M71.9 66.3v5.1"/><path class="cls-23" d="M71.9 56.7h-1.7v3.4h1.7"/><path class="cls-18" d="M70.5 59.4l.4.7M71.7 56.7l.4.5"/><path class="cls-20" d="M71.9 56.7h-1.7v3.4h1.7M70.2 60.1v4.1"/><path class="cls-1" d="M123.3 71.4h62.8"/><path class="cls-19" d="M123.3 64.2h62.9v2.2h-62.9zM127.1 64.2v2.1M182.5 64.2v2.1M123.3 66.3v-2.1M142.2 66.3v-2.1M127.1 66.3v-2.1M146.3 66.3v-2.1M142.2 66.3v-2.1M163.1 66.3v-2.1M146.3 66.3v-2.1M167.4 66.3v-2.1M163.1 66.3v-2.1M182.5 66.3v-2.1M167.4 66.3v-2.1M186.1 66.3v-2.1"/><path class="cls-20" d="M123.3 66.3v5.1"/><path class="cls-19" d="M187.8 56.7v-1.9"/><path class="cls-10" d="M187.8 54.8h-66"/><path class="cls-19" d="M121.8 54.8v1"/><path class="cls-23" d="M123.3 60.7h1.9v3.4h-1.9"/><path class="cls-18" d="M124.7 64.2v-3.4M123.5 64.2v-3.4M123.3 60.7h1.9v3.4h-1.9"/><path class="cls-23" d="M123.3 56.7h1.9v3.4h-1.9"/><path class="cls-18" d="M123.7 56.7l1.7 1.7"/><path class="cls-20" d="M123.3 56.7h1.9v3.4h-1.9M125.2 60.1v4.1"/><path class="cls-23" d="M186.2 60.7h-1.8v3.4h1.8"/><path class="cls-18" d="M185.7 64.2v-3.4M186.2 60.7h-1.8v3.4h1.8"/><path class="cls-20" d="M186.1 66.3v5.1"/><path class="cls-23" d="M186.1 56.7h-1.6v3.4h1.6"/><path class="cls-18" d="M184.7 57.4l1.7 1.7"/><path class="cls-20" d="M186.1 56.7h-1.6v3.4h1.6M184.5 60.1v4.1"/><path class="cls-19" d="M239.4 64.2v-7.5h-3.3v-1.9H280v1.9h-3.4v7.5"/><path class="cls-1" d="M237.5 71.4h40.8"/><path class="cls-19" d="M277.8 71.4h.5"/><path class="cls-20" d="M239.4 56.7h-3.3M276.6 56.7h3.4"/><path class="cls-19" d="M237.5 64.2h40.8v2.2h-40.8zM241.3 64.2v2.1M274.7 64.2v2.1M237.5 66.3v-2.1M256 66.3v-2.1M241.3 66.3v-2.1M260.1 66.3v-2.1M256 66.3v-2.1M274.7 66.3v-2.1M260.1 66.3v-2.1M278.3 66.3v-2.1"/><path class="cls-23" d="M237.5 60.7h1.9v3.4h-1.9"/><path class="cls-18" d="M238.2 64.2v-3.4M237.5 60.7h1.9v3.4h-1.9"/><path class="cls-20" d="M237.5 66.3v5.1"/><path class="cls-23" d="M237.5 56.7h1.9v3.4h-1.9"/><path class="cls-18" d="M237.7 58.4l1.7 1.7"/><path class="cls-20" d="M237.5 56.7h1.9v3.4h-1.9M239.4 60.1v4.1"/><path class="cls-23" d="M278.4 60.7h-1.9v3.4h1.9"/><path class="cls-18" d="M277.8 64.2v-3.4M278.4 60.7h-1.9v3.4h1.9"/><path class="cls-20" d="M278.3 66.3v5.1"/><path class="cls-23" d="M278.3 56.7h-1.7v3.4h1.7"/><path class="cls-18" d="M276.9 57.4l1.6 1.7"/><path class="cls-20" d="M278.3 56.7h-1.7v3.4h1.7M276.6 60.1v4.1"/><path class="cls-23" d="M210.9 189l7.2 7.2h183.1l6.9-7.2H210.9"/><path class="cls-18" d="M406.2 190.9l-1.9-1.9M404.3 193l-4.1-4M402.4 195l-6-6M399.5 196.2l-7.2-7.2M395.4 196.2l-7.2-7.2M391.3 196.2l-7.2-7.2M387.5 196.2l-7.2-7.2M383.4 196.2l-7.2-7.2M379.3 196.2l-7.2-7.2M375.5 196.2l-7.2-7.2M371.4 196.2l-7.2-7.2M367.3 196.2l-7.2-7.2M363.5 196.2l-7.2-7.2M359.4 196.2l-7.2-7.2M355.3 196.2l-7.2-7.2M351.3 196.2l-7.2-7.2M347.4 196.2l-7.2-7.2M343.3 196.2l-7.2-7.2M339.3 196.2l-7.2-7.2M335.4 196.2l-7.2-7.2M331.3 196.2l-7.2-7.2M327.3 196.2l-7.2-7.2M323.2 196.2L316 189M319.3 196.2l-7.2-7.2M315.3 196.2l-7.2-7.2M311.2 196.2L304 189M307.3 196.2l-7.2-7.2M303.3 196.2l-7.2-7.2M299.2 196.2L292 189M295.3 196.2l-7.2-7.2M291.3 196.2l-7.2-7.2M287.2 196.2L280 189M283.1 196.2l-7.2-7.2M279.3 196.2l-7.2-7.2M275.2 196.2L268 189M271.1 196.2l-7.2-7.2M267.3 196.2l-7.2-7.2M263.2 196.2L256 189M259.1 196.2l-7.2-7.2M255.3 196.2l-7.2-7.2M251.2 196.2L244 189M247.1 196.2l-7.2-7.2M243 196.2l-7.2-7.2M239.2 196.2L232 189M235.1 196.2l-7.2-7.2M231 196.2l-7.2-7.2M227.2 196.2L220 189M223.1 196.2l-7.2-7.2M219 196.2l-7.2-7.2M400.5 196.2l7.2-7.2M396.4 196.2l7.2-7.2M392.5 196.2l7.2-7.2M388.5 196.2l7.2-7.2M384.4 196.2l7.2-7.2M380.3 196.2l7.2-7.2M376.5 196.2l7.2-7.2M372.4 196.2l7.2-7.2M368.3 196.2l7.2-7.2M364.5 196.2l7.2-7.2M360.4 196.2l7.2-7.2M356.3 196.2l7.2-7.2M352.5 196.2l7.2-7.2M348.4 196.2l7.2-7.2M344.3 196.2l7.2-7.2M340.2 196.2l7.2-7.2M336.4 196.2l7.2-7.2M332.3 196.2l7.2-7.2M328.2 196.2l7.2-7.2M324.4 196.2l7.2-7.2M320.3 196.2l7.2-7.2M316.2 196.2l7.2-7.2M312.1 196.2l7.2-7.2M308.3 196.2l7.2-7.2M304.2 196.2l7.2-7.2M300.1 196.2l7.2-7.2M296.3 196.2l7.2-7.2M292.2 196.2l7.2-7.2M288.1 196.2l7.2-7.2M284.3 196.2l7.2-7.2M280.2 196.2l7.2-7.2M276.1 196.2l7.2-7.2M272.1 196.2l7.2-7.2M268.2 196.2l7.2-7.2M264.1 196.2l7.2-7.2M260.1 196.2l7.2-7.2M256.2 196.2l7.2-7.2M252.1 196.2l7.2-7.2M248.1 196.2l7.2-7.2M244.2 196.2l7.2-7.2M240.1 196.2l7.2-7.2M236.1 196.2l7.2-7.2M232 196.2l7.2-7.2M228.1 196.2l7.2-7.2M224.1 196.2l7.2-7.2M220 196.2l7.2-7.2M217.1 195.2l6.2-6.2M215.2 193l4.1-4M213 191.1l2.2-2.1M211.1 189"/><path class="cls-23" d="M210.9 189l7.2 7.2h183.1l6.9-7.2H210.9"/><path class="cls-18" d="M406.2 190.9l-1.9-1.9M404.3 193l-4.1-4M402.4 195l-6-6M399.5 196.2l-7.2-7.2M395.4 196.2l-7.2-7.2M391.3 196.2l-7.2-7.2M387.5 196.2l-7.2-7.2M383.4 196.2l-7.2-7.2M379.3 196.2l-7.2-7.2M375.5 196.2l-7.2-7.2M371.4 196.2l-7.2-7.2M367.3 196.2l-7.2-7.2M363.5 196.2l-7.2-7.2M359.4 196.2l-7.2-7.2M355.3 196.2l-7.2-7.2M351.3 196.2l-7.2-7.2M347.4 196.2l-7.2-7.2M343.3 196.2l-7.2-7.2M339.3 196.2l-7.2-7.2M335.4 196.2l-7.2-7.2M331.3 196.2l-7.2-7.2M327.3 196.2l-7.2-7.2M323.2 196.2L316 189M319.3 196.2l-7.2-7.2M315.3 196.2l-7.2-7.2M311.2 196.2L304 189M307.3 196.2l-7.2-7.2M303.3 196.2l-7.2-7.2M299.2 196.2L292 189M295.3 196.2l-7.2-7.2M291.3 196.2l-7.2-7.2M287.2 196.2L280 189M283.1 196.2l-7.2-7.2M279.3 196.2l-7.2-7.2M275.2 196.2L268 189M271.1 196.2l-7.2-7.2M267.3 196.2l-7.2-7.2M263.2 196.2L256 189M259.1 196.2l-7.2-7.2M255.3 196.2l-7.2-7.2M251.2 196.2L244 189M247.1 196.2l-7.2-7.2M243 196.2l-7.2-7.2M239.2 196.2L232 189M235.1 196.2l-7.2-7.2M231 196.2l-7.2-7.2M227.2 196.2L220 189M223.1 196.2l-7.2-7.2M219 196.2l-7.2-7.2M400.5 196.2l7.2-7.2M396.4 196.2l7.2-7.2M392.5 196.2l7.2-7.2M388.5 196.2l7.2-7.2M384.4 196.2l7.2-7.2M380.3 196.2l7.2-7.2M376.5 196.2l7.2-7.2M372.4 196.2l7.2-7.2M368.3 196.2l7.2-7.2M364.5 196.2l7.2-7.2M360.4 196.2l7.2-7.2M356.3 196.2l7.2-7.2M352.5 196.2l7.2-7.2M348.4 196.2l7.2-7.2M344.3 196.2l7.2-7.2M340.2 196.2l7.2-7.2M336.4 196.2l7.2-7.2M332.3 196.2l7.2-7.2M328.2 196.2l7.2-7.2M324.4 196.2l7.2-7.2M320.3 196.2l7.2-7.2M316.2 196.2l7.2-7.2M312.1 196.2l7.2-7.2M308.3 196.2l7.2-7.2M304.2 196.2l7.2-7.2M300.1 196.2l7.2-7.2M296.3 196.2l7.2-7.2M292.2 196.2l7.2-7.2M288.1 196.2l7.2-7.2M284.3 196.2l7.2-7.2M280.2 196.2l7.2-7.2M276.1 196.2l7.2-7.2M272.1 196.2l7.2-7.2M268.2 196.2l7.2-7.2M264.1 196.2l7.2-7.2M260.1 196.2l7.2-7.2M256.2 196.2l7.2-7.2M252.1 196.2l7.2-7.2M248.1 196.2l7.2-7.2M244.2 196.2l7.2-7.2M240.1 196.2l7.2-7.2M236.1 196.2l7.2-7.2M232 196.2l7.2-7.2M228.1 196.2l7.2-7.2M224.1 196.2l7.2-7.2M220 196.2l7.2-7.2M217.1 195.2l6.2-6.2M215.2 193l4.1-4M213 191.1l2.2-2.1M211.1 189"/><path class="cls-20" d="M408.1 189H215.2M401.2 196.2H218.1M401.2 196.2H218.1M305.9 189h-90.7M408.1 189h-95"/><path class="cls-23" d="M268.9 297.4v7.2h139.2l-6.9-7.2H268.9"/><path class="cls-18" d="M407.7 304.6l-7.2-7.2M403.8 304.6l-7.2-7.2M399.7 304.6l-7.2-7.2M395.7 304.6l-7.2-7.2M391.6 304.6l-7.2-7.2M387.7 304.6l-7.2-7.2M383.7 304.6l-7.2-7.2M379.6 304.6l-7.2-7.2M375.7 304.6l-7.2-7.2M371.7 304.6l-7.2-7.2M367.6 304.6l-7.2-7.2M363.7 304.6l-7.2-7.2M359.7 304.6l-7.2-7.2M355.6 304.6l-7.2-7.2M351.5 304.6l-7.2-7.2M347.7 304.6l-7.2-7.2M343.6 304.6l-7.2-7.2M339.5 304.6l-7.2-7.2M335.7 304.6l-7.2-7.2M331.6 304.6l-7.2-7.2M327.5 304.6l-7.2-7.2M323.4 304.6l-7.2-7.2M319.6 304.6l-7.2-7.2M315.5 304.6l-7.2-7.2M311.4 304.6l-7.2-7.2M307.6 304.6l-7.2-7.2M303.5 304.6l-7.2-7.2M299.4 304.6l-7.2-7.2M295.6 304.6l-7.2-7.2M291.5 304.6l-7.2-7.2M287.4 304.6l-7.2-7.2M283.3 304.6l-7.2-7.2M279.5 304.6l-7.2-7.2M275.4 304.6l-6.2-6.4M271.3 304.6l-2.1-2.4M404.3 304.6l1.9-2.1M400.2 304.6l4.1-4M396.1 304.6l6.3-6.2M392.3 304.6l7.2-7.2M388.2 304.6l7.2-7.2M384.1 304.6l7.2-7.2M380.1 304.6l7.2-7.2M376.2 304.6l7.2-7.2M372.1 304.6l7.2-7.2M368.1 304.6l7.2-7.2M364.2 304.6l7.2-7.2M360.1 304.6l7.2-7.2M356.1 304.6l7.2-7.2M352 304.6l7.2-7.2M348.1 304.6l7.2-7.2M344.1 304.6l7.2-7.2M340 304.6l7.2-7.2M336.1 304.6l7.2-7.2M332.1 304.6l7.2-7.2M328 304.6l7.2-7.2M324.1 304.6l7.2-7.2M320.1 304.6l7.2-7.2M316 304.6l7.2-7.2M311.9 304.6l7.2-7.2M308.1 304.6l7.2-7.2M304 304.6l7.2-7.2M299.9 304.6l7.2-7.2M296.1 304.6l7.2-7.2M292 304.6l7.2-7.2M287.9 304.6l7.2-7.2M284.1 304.6l7.2-7.2M280 304.6l7.2-7.2M275.9 304.6l7.2-7.2M271.8 304.6l7.2-7.2M269.2 303.4l6-6M269.2 299.6l1.9-2.2"/><path class="cls-23" d="M268.9 297.4v7.2h139.2l-6.9-7.2H268.9"/><path class="cls-18" d="M407.7 304.6l-7.2-7.2M403.8 304.6l-7.2-7.2M399.7 304.6l-7.2-7.2M395.7 304.6l-7.2-7.2M391.6 304.6l-7.2-7.2M387.7 304.6l-7.2-7.2M383.7 304.6l-7.2-7.2M379.6 304.6l-7.2-7.2M375.7 304.6l-7.2-7.2M371.7 304.6l-7.2-7.2M367.6 304.6l-7.2-7.2M363.7 304.6l-7.2-7.2M359.7 304.6l-7.2-7.2M355.6 304.6l-7.2-7.2M351.5 304.6l-7.2-7.2M347.7 304.6l-7.2-7.2M343.6 304.6l-7.2-7.2M339.5 304.6l-7.2-7.2M335.7 304.6l-7.2-7.2M331.6 304.6l-7.2-7.2M327.5 304.6l-7.2-7.2M323.4 304.6l-7.2-7.2M319.6 304.6l-7.2-7.2M315.5 304.6l-7.2-7.2M311.4 304.6l-7.2-7.2M307.6 304.6l-7.2-7.2M303.5 304.6l-7.2-7.2M299.4 304.6l-7.2-7.2M295.6 304.6l-7.2-7.2M291.5 304.6l-7.2-7.2M287.4 304.6l-7.2-7.2M283.3 304.6l-7.2-7.2M279.5 304.6l-7.2-7.2M275.4 304.6l-6.2-6.4M271.3 304.6l-2.1-2.4M404.3 304.6l1.9-2.1M400.2 304.6l4.1-4M396.1 304.6l6.3-6.2M392.3 304.6l7.2-7.2M388.2 304.6l7.2-7.2M384.1 304.6l7.2-7.2M380.1 304.6l7.2-7.2M376.2 304.6l7.2-7.2M372.1 304.6l7.2-7.2M368.1 304.6l7.2-7.2M364.2 304.6l7.2-7.2M360.1 304.6l7.2-7.2M356.1 304.6l7.2-7.2M352 304.6l7.2-7.2M348.1 304.6l7.2-7.2M344.1 304.6l7.2-7.2M340 304.6l7.2-7.2M336.1 304.6l7.2-7.2M332.1 304.6l7.2-7.2M328 304.6l7.2-7.2M324.1 304.6l7.2-7.2M320.1 304.6l7.2-7.2M316 304.6l7.2-7.2M311.9 304.6l7.2-7.2M308.1 304.6l7.2-7.2M304 304.6l7.2-7.2M299.9 304.6l7.2-7.2M296.1 304.6l7.2-7.2M292 304.6l7.2-7.2M287.9 304.6l7.2-7.2M284.1 304.6l7.2-7.2M280 304.6l7.2-7.2M275.9 304.6l7.2-7.2M271.8 304.6l7.2-7.2M269.2 303.4l6-6M269.2 299.6l1.9-2.2"/><path class="cls-20" d="M401.2 297.4H268.9M305.9 304.6h-37M408.1 304.6h-95M305.9 304.6h-37M401.2 297.4H268.9M408.1 304.6h-95"/><path class="cls-23" d="M408.1 189l-4.8 4.8h4.8V189"/><path class="cls-18" d="M408.4 193l-2.2-2.1M405 193.8l-.7-.8M406.9 193.8l1.5-1.5"/><path class="cls-23" d="M408.1 189l-4.8 4.8h4.8V189"/><path class="cls-18" d="M408.4 193l-2.2-2.1M405 193.8l-.7-.8M406.9 193.8l1.5-1.5"/><path class="cls-20" d="M408.1 193.8V189M408.1 193.8V189"/><path class="cls-23" d="M408.1 304.6l-6.9-7.2v-71.2h6.9v78.4"/><path class="cls-18" d="M408.4 229l-2.9-2.8M408.4 233.1l-7-6.9M408.4 237l-7-7M408.4 241l-7-6.9M408.4 245.1l-7-6.9M408.4 249l-7-7M408.4 253l-7-6.9M408.4 257.1l-7-6.9M408.4 261l-7-7M408.4 265l-7-6.9M408.4 269.1l-7-6.9M408.4 273.2l-7-7M408.4 277l-7-6.9M408.4 281.1l-7-6.9M408.4 285.2l-7-7M408.4 289l-7-6.9M408.4 293.1l-7-6.9M408.4 297.2l-7-7M408.4 301.3l-7-7M408.1 304.6h.3M406.2 302.5l2.2-1.9M404.3 300.6l4.1-4.1M402.4 298.4l6-5.8M401.4 295.5l7-6.9M401.4 291.4l7-6.9M401.4 287.6l7-7M401.4 283.5l7-6.9M401.4 279.4l7-6.9M401.4 275.6l7-7M401.4 271.5l7-6.9M401.4 267.4l7-6.9M401.4 263.4l7-7M401.4 259.5l7-6.9M401.4 255.4l7-6.9M401.4 251.4l7-7M401.4 247.5l7-6.9M401.4 243.4l7-6.9M401.4 239.4l7-7M401.4 235.3l7-7M401.4 231.4l5.1-5.2M401.4 227.4l1.2-1.2"/><path class="cls-23" d="M401.2 297.4l6.9 7.2v-78.4h-6.9v71.2"/><path class="cls-18" d="M408.4 229l-2.9-2.8M408.4 233.1l-7-6.9M408.4 237l-7-7M408.4 241l-7-6.9M408.4 245.1l-7-6.9M408.4 249l-7-7M408.4 253l-7-6.9M408.4 257.1l-7-6.9M408.4 261l-7-7M408.4 265l-7-6.9M408.4 269.1l-7-6.9M408.4 273.2l-7-7M408.4 277l-7-6.9M408.4 281.1l-7-6.9M408.4 285.2l-7-7M408.4 289l-7-6.9M408.4 293.1l-7-6.9M408.4 297.2l-7-7M408.4 301.3l-7-7M408.1 304.6h.3M406.2 302.5l2.2-1.9M404.3 300.6l4.1-4.1M402.4 298.4l6-5.8M401.4 295.5l7-6.9M401.4 291.4l7-6.9M401.4 287.6l7-7M401.4 283.5l7-6.9M401.4 279.4l7-6.9M401.4 275.6l7-7M401.4 271.5l7-6.9M401.4 267.4l7-6.9M401.4 263.4l7-7M401.4 259.5l7-6.9M401.4 255.4l7-6.9M401.4 251.4l7-7M401.4 247.5l7-6.9M401.4 243.4l7-6.9M401.4 239.4l7-7M401.4 235.3l7-7M401.4 231.4l5.1-5.2M401.4 227.4l1.2-1.2"/><path class="cls-20" d="M408.1 304.6v-78.4M401.2 297.4v-71.2M401.2 297.4v-71.2M408.1 304.6v-78.4"/><path class="cls-19" d="M406.9 223.5h1.9v2.6h-1.9zM406.9 193.8h1.9v2.6h-1.9zM406.9 196.4h1.9v27.1h-1.9zM406.9 223.5v-27.1"/><path class="cls-1" d="M401.2 223.8v-27.6"/><path class="cls-19" d="M401.2 196.6v-.4"/><path class="cls-23" d="M401.2 226.2v-2.4h5.7v2.4h1.2"/><path class="cls-18" d="M407.2 223.8h-.3M405.5 226.2l-2.4-2.4M406.5 226.2l.7-.5M402.6 226.2l2.4-2.4"/><path class="cls-20" d="M401.2 226.2v-2.4h5.7v2.4h1.2"/><path class="cls-23" d="M401.1 193.8v2.3h6v-2.3h1.1"/><path class="cls-18" d="M407.2 195.7l-2.2-1.9M403.6 196.2l-2.2-2.2M404.5 196.2l2.4-2.4M401.4 195.2l1.5-1.4"/><path class="cls-20" d="M401.1 196.1h6v-2.3h1.1"/><path class="cls-23" d="M210.9 304.6l7.2-9.8v-68.6h-7.2v78.4"/><path class="cls-18" d="M218.3 227.4l-1.2-1.2M218.3 231.4l-5.3-5.2M218.3 235.3l-7.2-7.2M218.3 239.4l-7.2-7.2M218.3 243.4l-7.2-7.2M218.3 247.3l-7.2-7.2M218.3 251.4l-7.2-7.2M218.3 255.4l-7.2-7.2M218.3 259.5l-7.2-7.2M218.3 263.4l-7.2-7.2M218.3 267.4l-7.2-7.2M218.3 271.5l-7.2-7.2M218.3 275.4l-7.2-7.2M218.3 279.4l-7.2-7.2M218.3 283.5l-7.2-7.2M218.3 287.4l-7.2-7.2M218.3 291.4l-7.2-7.2M217.8 295.3l-6.7-7M216.1 297.4l-5-5M214.5 299.8l-3.4-3.6M212.8 302.2l-1.7-1.9M211.1 301.5l7.2-7.2M211.1 297.4l7.2-7.2M211.1 293.4l7.2-7.2M211.1 289.5l7.2-7.2M211.1 285.4l7.2-7.2M211.1 281.4l7.2-7.2M211.1 277.3l7.2-7.2M211.1 273.4l7.2-7.2M211.1 269.4l7.2-7.2M211.1 265.3l7.2-7.2M211.1 261.4l7.2-7.2M211.1 257.4l7.2-7.2M211.1 253.3l7.2-7.2M211.1 249.4l7.2-7.2M211.1 245.4l7.2-7.2M211.1 241.3l7.2-7.2M211.1 237.2l7.2-7.2M211.1 233.4l7-7.2M211.1 229.3l3.1-3.1"/><path class="cls-23" d="M210.9 304.6l7.2-9.8v-68.6h-7.2v78.4"/><path class="cls-18" d="M218.3 227.4l-1.2-1.2M218.3 231.4l-5.3-5.2M218.3 235.3l-7.2-7.2M218.3 239.4l-7.2-7.2M218.3 243.4l-7.2-7.2M218.3 247.3l-7.2-7.2M218.3 251.4l-7.2-7.2M218.3 255.4l-7.2-7.2M218.3 259.5l-7.2-7.2M218.3 263.4l-7.2-7.2M218.3 267.4l-7.2-7.2M218.3 271.5l-7.2-7.2M218.3 275.4l-7.2-7.2M218.3 279.4l-7.2-7.2M218.3 283.5l-7.2-7.2M218.3 287.4l-7.2-7.2M218.3 291.4l-7.2-7.2M217.8 295.3l-6.7-7M216.1 297.4l-5-5M214.5 299.8l-3.4-3.6M212.8 302.2l-1.7-1.9M211.1 301.5l7.2-7.2M211.1 297.4l7.2-7.2M211.1 293.4l7.2-7.2M211.1 289.5l7.2-7.2M211.1 285.4l7.2-7.2M211.1 281.4l7.2-7.2M211.1 277.3l7.2-7.2M211.1 273.4l7.2-7.2M211.1 269.4l7.2-7.2M211.1 265.3l7.2-7.2M211.1 261.4l7.2-7.2M211.1 257.4l7.2-7.2M211.1 253.3l7.2-7.2M211.1 249.4l7.2-7.2M211.1 245.4l7.2-7.2M211.1 241.3l7.2-7.2M211.1 237.2l7.2-7.2M211.1 233.4l7-7.2M211.1 229.3l3.1-3.1"/><path class="cls-20" d="M210.9 226.2v78.4M218.1 240.1v54.7M218.1 226.2v3.6M218.1 240.1v54.7M210.9 226.2v78.4M218.1 226.2v3.6"/><path class="cls-23" d="M210.9 193.8h4.8l-4.8-4.8v4.8"/><path class="cls-18" d="M212.5 193.8l-1.4-1.7M214.5 193.8l.7-.8M211.1 193.3l1.9-2.2M211.1 189.2v-.2"/><path class="cls-23" d="M210.9 193.8h4.8l-4.8-4.8v4.8"/><path class="cls-18" d="M212.5 193.8l-1.4-1.7M214.5 193.8l.7-.8M211.1 193.3l1.9-2.2M211.1 189.2v-.2"/><path class="cls-20" d="M210.9 189v4.8M210.9 189v4.8"/><path class="cls-19" d="M210.4 193.8h1.7v2.6h-1.7zM210.4 223.5h1.7v2.6h-1.7zM210.4 196.4h1.7v27.1h-1.7zM212.1 196.4v27.1"/><path class="cls-1" d="M218.1 196.2v27.6"/><path class="cls-19" d="M218.1 223.3v.5"/><path class="cls-23" d="M218 193.8v2.3h-6v-2.3h-1.1"/><path class="cls-18" d="M218.3 195.2l-1.7-1.4M214.9 196.2l-2.4-2.4M216.1 196.2l2.2-2.2M212.3 195.9l2.2-2.1"/><path class="cls-20" d="M218 196.1h-6v-2.3h-1.1"/><path class="cls-23" d="M218.1 226.2v-2.4h-6v2.4h-1.2"/><path class="cls-18" d="M217.1 226.2l-2.4-2.4M213 226.2l-.7-.8M218.1 226.2h.2M214.2 226.2l2.4-2.4M212.3 224l.2-.2"/><path class="cls-20" d="M218.1 226.2v-2.4h-6v2.4h-1.2"/><path class="cls-18" d="M183.1 196.3c0 14.9 12.3 27.2 27.2 27.2M210.4 196.4H183"/><path class="cls-23" d="M263.4 294.8l5.5 9.8v-74.8l-5.5 10.3v54.7"/><path class="cls-18" d="M269.2 230h-.3M269.2 234.1l-1.7-1.5M269.2 238.2l-3.1-2.9M269.2 242.2l-4.3-4.3M269.2 246.1l-5.5-5.5M269.2 250.2l-5.5-5.6M269.2 254.2l-5.5-5.5M269.2 258.1l-5.5-5.5M269.2 262.2l-5.5-5.6M269.2 266.2l-5.5-5.5M269.2 270.3l-5.5-5.5M269.2 274.2l-5.5-5.6M269.2 278.2l-5.5-5.5M269.2 282.3l-5.5-5.5M269.2 286.2l-5.5-5.6M269.2 290.2l-5.5-5.5M269.2 294.3l-5.5-5.5M269.2 298.2l-5.5-5.6M269.2 302.2l-3.1-2.8M268.7 303.9l.5-.5M267.3 301.3l1.9-1.7M265.8 298.9l3.4-3.4M264.4 296.2l4.8-4.8M263.7 292.9l5.5-5.5M263.7 289l5.5-5.5M263.7 285l5.5-5.6M263.7 280.9l5.5-5.5M263.7 277l5.5-5.5M263.7 273l5.5-5.6M263.7 268.9l5.5-5.5M263.7 264.8l5.5-5.5M263.7 261l5.5-5.6M263.7 256.9l5.5-5.5M263.7 252.8l5.5-5.5M263.7 249l5.5-5.6M263.7 244.9l5.5-5.5M263.7 240.8l5.5-5.5M267.3 233.1l1.9-1.7"/><path class="cls-23" d="M263.4 294.8l5.5 9.8v-74.8l-5.5 10.3v54.7"/><path class="cls-18" d="M269.2 230h-.3M269.2 234.1l-1.7-1.5M269.2 238.2l-3.1-2.9M269.2 242.2l-4.3-4.3M269.2 246.1l-5.5-5.5M269.2 250.2l-5.5-5.6M269.2 254.2l-5.5-5.5M269.2 258.1l-5.5-5.5M269.2 262.2l-5.5-5.6M269.2 266.2l-5.5-5.5M269.2 270.3l-5.5-5.5M269.2 274.2l-5.5-5.6M269.2 278.2l-5.5-5.5M269.2 282.3l-5.5-5.5M269.2 286.2l-5.5-5.6M269.2 290.2l-5.5-5.5M269.2 294.3l-5.5-5.5M269.2 298.2l-5.5-5.6M269.2 302.2l-3.1-2.8M268.7 303.9l.5-.5M267.3 301.3l1.9-1.7M265.8 298.9l3.4-3.4M264.4 296.2l4.8-4.8M263.7 292.9l5.5-5.5M263.7 289l5.5-5.5M263.7 285l5.5-5.6M263.7 280.9l5.5-5.5M263.7 277l5.5-5.5M263.7 273l5.5-5.6M263.7 268.9l5.5-5.5M263.7 264.8l5.5-5.5M263.7 261l5.5-5.6M263.7 256.9l5.5-5.5M263.7 252.8l5.5-5.5M263.7 249l5.5-5.6M263.7 244.9l5.5-5.5M263.7 240.8l5.5-5.5M267.3 233.1l1.9-1.7"/><path class="cls-20" d="M263.4 240.1v54.7M268.9 229.8v67.6M268.9 229.8v67.6M263.4 240.1v54.7"/><path class="cls-23" d="M313.1 304.6h-7.2v82.6h7.2v-82.6"/><path class="cls-18" d="M313.3 306.3l-1.9-1.7M313.3 310.4l-5.7-5.8M313.3 314.5l-7.2-7.2M313.3 318.3l-7.2-7.2M313.3 322.4l-7.2-7.2M313.3 326.5l-7.2-7.2M313.3 330.3l-7.2-7.2M313.3 334.4l-7.2-7.2M313.3 338.5l-7.2-7.2M313.3 342.3l-7.2-7.2M313.3 346.4l-7.2-7.2M313.3 350.5l-7.2-7.2M313.3 354.6l-7.2-7.2M313.3 358.4l-7.2-7.2M313.3 362.5l-7.2-7.2M313.3 366.6l-7.2-7.2M313.3 370.4l-7.2-7.2M313.3 374.5l-7.2-7.2M313.3 378.6l-7.2-7.2M313.3 382.4l-7.2-7.2M313.3 386.5l-7.2-7.2M310 387.2l-3.9-3.8M309.7 387.2l3.6-3.6M306.1 386.7l7.2-7.2M306.1 382.9l7.2-7.2M306.1 378.8l7.2-7.2M306.1 374.7l7.2-7.2M306.1 370.9l7.2-7.2M306.1 366.8l7.2-7.2M306.1 362.7l7.2-7.2M306.1 358.6l7.2-7.2M306.1 354.8l7.2-7.2M306.1 350.7l7.2-7.2M306.1 346.6l7.2-7.2M306.1 342.8l7.2-7.2M306.1 338.7l7.2-7.2M306.1 334.6l7.2-7.2M306.1 330.6l7.2-7.2M306.1 326.7l7.2-7.2M306.1 322.6l7.2-7.2M306.1 318.6l7.2-7.2M306.1 314.7l7.2-7.2M306.1 310.6l5.8-6M306.1 306.6l2-2"/><path class="cls-23" d="M313.1 304.6h-7.2v82.6h7.2v-82.6"/><path class="cls-18" d="M313.3 306.3l-1.9-1.7M313.3 310.4l-5.7-5.8M313.3 314.5l-7.2-7.2M313.3 318.3l-7.2-7.2M313.3 322.4l-7.2-7.2M313.3 326.5l-7.2-7.2M313.3 330.3l-7.2-7.2M313.3 334.4l-7.2-7.2M313.3 338.5l-7.2-7.2M313.3 342.3l-7.2-7.2M313.3 346.4l-7.2-7.2M313.3 350.5l-7.2-7.2M313.3 354.6l-7.2-7.2M313.3 358.4l-7.2-7.2M313.3 362.5l-7.2-7.2M313.3 366.6l-7.2-7.2M313.3 370.4l-7.2-7.2M313.3 374.5l-7.2-7.2M313.3 378.6l-7.2-7.2M313.3 382.4l-7.2-7.2M313.3 386.5l-7.2-7.2M310 387.2l-3.9-3.8M309.7 387.2l3.6-3.6M306.1 386.7l7.2-7.2M306.1 382.9l7.2-7.2M306.1 378.8l7.2-7.2M306.1 374.7l7.2-7.2M306.1 370.9l7.2-7.2M306.1 366.8l7.2-7.2M306.1 362.7l7.2-7.2M306.1 358.6l7.2-7.2M306.1 354.8l7.2-7.2M306.1 350.7l7.2-7.2M306.1 346.6l7.2-7.2M306.1 342.8l7.2-7.2M306.1 338.7l7.2-7.2M306.1 334.6l7.2-7.2M306.1 330.6l7.2-7.2M306.1 326.7l7.2-7.2M306.1 322.6l7.2-7.2M306.1 318.6l7.2-7.2M306.1 314.7l7.2-7.2M306.1 310.6l5.8-6M306.1 306.6l2-2"/><path class="cls-20" d="M313.1 387.2v-82.6M305.9 387.2v-82.6M305.9 387.2v-82.6M313.1 387.2v-82.6M313.1 387.2h-7.2"/><path class="cls-19" d="M401.2 258.3h-34.1M401.2 250.6h-34.1M401.2 243h-34.1M401.2 235.3h-34.1M268.9 235.3H303M268.9 243H303M268.9 250.6H303M268.9 258.3H303M342.6 297.4l8.2-35.2M303 230h64.1v33.6H303zM286 235.3l-3.9 3.8h7.7l-3.8-3.8zM361.8 263.6v33.8M354.1 263.6v33.8M346.5 263.6v33.8M338.8 263.6v33.8M331.3 263.6v33.8M323.7 263.6v33.8M316 263.6v33.8M308.3 263.6v33.8"/><path class="cls-19" d="M304.5 231.4h61.2v30.7h-61.2zM308.3 280.6l3.8 3.9v-7.7l-3.8 3.8zM346.5 280.6l3.8 3.9v-7.7l-3.8 3.8zM384.1 258.3l3.9-3.8h-7.7l3.8 3.8z"/><path class="cls-23" d="M313.1 189h-7.2V66.3h7.2V189"/><path class="cls-18" d="M313.3 69.9l-3.6-3.6M313.3 73.8l-7.2-7.2M313.3 77.8l-7.2-7.2M313.3 81.9l-7.2-7.2M313.3 85.8l-7.2-7.2M313.3 89.8l-7.2-7.2M313.3 93.9l-7.2-7.2M313.3 98l-7.2-7.2M313.3 101.8l-7.2-7.2M313.3 105.9l-7.2-7.2M313.3 110l-7.2-7.2M313.3 113.8l-7.2-7.2M313.3 117.9l-7.2-7.2M313.3 122l-7.2-7.2M313.3 125.8l-7.2-7.2M313.3 129.9l-7.2-7.2M313.3 134l-7.2-7.2M313.3 138.1l-7.2-7.2M313.3 141.9l-7.2-7.2M313.3 146l-7.2-7.2M313.3 150.1l-7.2-7.2M313.3 153.9l-7.2-7.2M313.3 158l-7.2-7.2M313.3 162.1l-7.2-7.2M313.3 165.9l-7.2-7.2M313.3 170l-7.2-7.2M313.3 174.1l-7.2-7.2M313.3 178.2l-7.2-7.2M313.3 182l-7.2-7.2M313.3 186.1l-7.2-7.2M312.1 189l-6-6M308.1 189l-2-2.2M311.4 189l1.9-1.7M307.3 189l6-5.8M306.1 186.3l7.2-7.2M306.1 182.2l7.2-7.2M306.1 178.4l7.2-7.2M306.1 174.3l7.2-7.2M306.1 170.2l7.2-7.2M306.1 166.4l7.2-7.2M306.1 162.3l7.2-7.2M306.1 158.2l7.2-7.2M306.1 154.4l7.2-7.2M306.1 150.3l7.2-7.2M306.1 146.2l7.2-7.2M306.1 142.2l7.2-7.2M306.1 138.3l7.2-7.2M306.1 134.2l7.2-7.2M306.1 130.2l7.2-7.2M306.1 126.3l7.2-7.2M306.1 122.2l7.2-7.2M306.1 118.2l7.2-7.2M306.1 114.1l7.2-7.2M306.1 110.2l7.2-7.2M306.1 106.2l7.2-7.2M306.1 102.1l7.2-7.2M306.1 98.2l7.2-7.2M306.1 94.2l7.2-7.2M306.1 90.1l7.2-7.2M306.1 86.2l7.2-7.2M306.1 82.2l7.2-7.2M306.1 78.1l7.2-7.2M306.1 74l7.2-7.2M306.1 70.2l3.6-3.9"/><path class="cls-23" d="M305.9 189h7.2V66.3h-7.2V189"/><path class="cls-18" d="M313.3 69.9l-3.6-3.6M313.3 73.8l-7.2-7.2M313.3 77.8l-7.2-7.2M313.3 81.9l-7.2-7.2M313.3 85.8l-7.2-7.2M313.3 89.8l-7.2-7.2M313.3 93.9l-7.2-7.2M313.3 98l-7.2-7.2M313.3 101.8l-7.2-7.2M313.3 105.9l-7.2-7.2M313.3 110l-7.2-7.2M313.3 113.8l-7.2-7.2M313.3 117.9l-7.2-7.2M313.3 122l-7.2-7.2M313.3 125.8l-7.2-7.2M313.3 129.9l-7.2-7.2M313.3 134l-7.2-7.2M313.3 138.1l-7.2-7.2M313.3 141.9l-7.2-7.2M313.3 146l-7.2-7.2M313.3 150.1l-7.2-7.2M313.3 153.9l-7.2-7.2M313.3 158l-7.2-7.2M313.3 162.1l-7.2-7.2M313.3 165.9l-7.2-7.2M313.3 170l-7.2-7.2M313.3 174.1l-7.2-7.2M313.3 178.2l-7.2-7.2M313.3 182l-7.2-7.2M313.3 186.1l-7.2-7.2M312.1 189l-6-6M308.1 189l-2-2.2M311.4 189l1.9-1.7M307.3 189l6-5.8M306.1 186.3l7.2-7.2M306.1 182.2l7.2-7.2M306.1 178.4l7.2-7.2M306.1 174.3l7.2-7.2M306.1 170.2l7.2-7.2M306.1 166.4l7.2-7.2M306.1 162.3l7.2-7.2M306.1 158.2l7.2-7.2M306.1 154.4l7.2-7.2M306.1 150.3l7.2-7.2M306.1 146.2l7.2-7.2M306.1 142.2l7.2-7.2M306.1 138.3l7.2-7.2M306.1 134.2l7.2-7.2M306.1 130.2l7.2-7.2M306.1 126.3l7.2-7.2M306.1 122.2l7.2-7.2M306.1 118.2l7.2-7.2M306.1 114.1l7.2-7.2M306.1 110.2l7.2-7.2M306.1 106.2l7.2-7.2M306.1 102.1l7.2-7.2M306.1 98.2l7.2-7.2M306.1 94.2l7.2-7.2M306.1 90.1l7.2-7.2M306.1 86.2l7.2-7.2M306.1 82.2l7.2-7.2M306.1 78.1l7.2-7.2M306.1 74l7.2-7.2M306.1 70.2l3.6-3.9"/><path class="cls-20" d="M313.1 189V66.3M305.9 189V66.3M313.1 66.3h-7.2M305.9 189V66.3M313.1 189V66.3"/><path class="cls-23" d="M263.4 240.1l5.5-10.3h-15.1v10.3h9.6"/><path class="cls-18" d="M268.9 230l-.2-.2M267.5 232.6l-2.9-2.8M266.1 235.3l-5.3-5.5M264.9 237.9l-8.2-8.1M262.9 240.1l-8.8-9.1M258.9 240.1l-4.8-5.1M255 240.1l-.9-1M260.3 240.1l7-7M256.2 240.1l10.3-10.3M254.1 238.4l8.6-8.6M254.1 234.3l4.5-4.5M254.1 230.5l.4-.7"/><path class="cls-23" d="M263.4 240.1l5.5-10.3h-15.1v10.3h9.6"/><path class="cls-18" d="M268.9 230l-.2-.2M267.5 232.6l-2.9-2.8M266.1 235.3l-5.3-5.5M264.9 237.9l-8.2-8.1M262.9 240.1l-8.8-9.1M258.9 240.1l-4.8-5.1M255 240.1l-.9-1M260.3 240.1l7-7M256.2 240.1l10.3-10.3M254.1 238.4l8.6-8.6M254.1 234.3l4.5-4.5M254.1 230.5l.4-.7"/><path class="cls-20" d="M253.8 240.1h9.6M253.8 229.8h15.1M253.8 229.8h15.1M253.8 240.1h9.6"/><path class="cls-19" d="M221.2 238.6h29.5"/><path class="cls-1" d="M221.2 229.8h29.5"/><path class="cls-19" d="M250.2 229.8h.5"/><path class="cls-23" d="M218.1 229.8h3.1v8.8h-3.1"/><path class="cls-18" d="M221.4 230.5l-.7-.7M221.4 234.6l-3.1-3.2M221.4 238.4l-3.1-3.1M218.3 238.2l3.1-3.2M218.3 234.1l3.1-3.1M218.3 230l.2-.2"/><path class="cls-23" d="M253.8 229.8h-3.1v8.8h3.1"/><path class="cls-18" d="M254.1 231l-1.5-1.2M254.1 235l-3.2-3.1M253.6 238.6l-2.7-2.6M253.8 238.6l.3-.2M250.9 237.4l3.2-3.1M250.9 233.6l3.2-3.1"/><path class="cls-20" d="M221.2 229.8v8.8M250.7 229.8v8.8M221.2 229.8v8.8M218.1 229.8h3.1M250.7 229.8v8.8M253.8 229.8h-3.1M218.1 240.1v-1.5M253.8 240.1v-1.5M218.1 229.8h3.1M253.8 229.8h-3.1M221.2 238.6h-3.1M250.7 238.6h3.1"/><path class="cls-23" d="M218.1 294.8l-7.2 9.8h58l-5.5-9.8h-45.3"/><path class="cls-18" d="M266.1 299.4l-4.6-4.6M267.5 304.6l-9.8-9.8M263.4 304.6l-9.8-9.8M259.3 304.6l-9.8-9.8M255.5 304.6l-9.8-9.8M251.4 304.6l-9.8-9.8M247.3 304.6l-9.8-9.8M243.3 304.6l-9.9-9.8M239.4 304.6l-9.8-9.8M235.3 304.6l-9.8-9.8M231.3 304.6l-9.9-9.8M227.4 304.6l-9.6-9.3M223.3 304.6l-7.2-7.2M219.3 304.6l-4.8-4.8M215.4 304.6l-2.6-2.4M211.3 304.6l-.2-.2M268 304.6l.7-.7M263.9 304.6l3.4-3.3M259.8 304.6l6-5.7M256 304.6l8.4-8.4M251.9 304.6l9.8-9.8M247.8 304.6l9.9-9.8M244 304.6l9.8-9.8M239.9 304.6l9.8-9.8M235.8 304.6l9.9-9.8M231.7 304.6l9.9-9.8M227.9 304.6l9.8-9.8M223.8 304.6l9.9-9.8M219.7 304.6l9.9-9.8M215.9 304.6l9.8-9.8M211.8 304.6l9.9-9.8"/><path class="cls-23" d="M218.1 294.8l-7.2 9.8h58l-5.5-9.8h-45.3"/><path class="cls-18" d="M266.1 299.4l-4.6-4.6M267.5 304.6l-9.8-9.8M263.4 304.6l-9.8-9.8M259.3 304.6l-9.8-9.8M255.5 304.6l-9.8-9.8M251.4 304.6l-9.8-9.8M247.3 304.6l-9.8-9.8M243.3 304.6l-9.9-9.8M239.4 304.6l-9.8-9.8M235.3 304.6l-9.8-9.8M231.3 304.6l-9.9-9.8M227.4 304.6l-9.6-9.3M223.3 304.6l-7.2-7.2M219.3 304.6l-4.8-4.8M215.4 304.6l-2.6-2.4M211.3 304.6l-.2-.2M268 304.6l.7-.7M263.9 304.6l3.4-3.3M259.8 304.6l6-5.7M256 304.6l8.4-8.4M251.9 304.6l9.8-9.8M247.8 304.6l9.9-9.8M244 304.6l9.8-9.8M239.9 304.6l9.8-9.8M235.8 304.6l9.9-9.8M231.7 304.6l9.9-9.8M227.9 304.6l9.8-9.8M223.8 304.6l9.9-9.8M219.7 304.6l9.9-9.8M215.9 304.6l9.8-9.8M211.8 304.6l9.9-9.8"/><path class="cls-20" d="M263.4 294.8h-45.3M268.9 304.6h-58M268.9 304.6h-58M263.4 294.8h-45.3"/><path class="cls-23" d="M210.9 189h4.3V97.5h-4.3V189"/><path class="cls-18" d="M211.1 97.8v-.3M211.1 101.8l4.3-4.3M211.1 106.2l4.3-4.4M211.1 110.5l4.3-4.3M211.1 114.8l4.3-4.3M211.1 118.9l4.3-4.3M211.1 123.2l4.3-4.3M211.1 127.5l4.3-4.3M211.1 131.6l4.3-4.3M211.1 135.9l4.3-4.3M211.1 140.2l4.3-4.3M211.1 144.6l4.3-4.4M211.1 148.6l4.3-4.3M211.1 153l4.3-4.4M211.1 157.3l4.3-4.3M211.1 161.4l4.3-4.4M211.1 165.7l4.3-4.3M211.1 170l4.3-4.3M211.1 174.3l4.3-4.3M211.1 178.4l4.3-4.3M211.1 182.7l4.3-4.3M211.1 187l4.3-4.3M213.3 189l2.1-2.2"/><path class="cls-23" d="M210.9 189h4.3V97.5h-4.3V189"/><path class="cls-18" d="M211.1 97.8v-.3M211.1 101.8l4.3-4.3M211.1 106.2l4.3-4.4M211.1 110.5l4.3-4.3M211.1 114.8l4.3-4.3M211.1 118.9l4.3-4.3M211.1 123.2l4.3-4.3M211.1 127.5l4.3-4.3M211.1 131.6l4.3-4.3M211.1 135.9l4.3-4.3M211.1 140.2l4.3-4.3M211.1 144.6l4.3-4.4M211.1 148.6l4.3-4.3M211.1 153l4.3-4.4M211.1 157.3l4.3-4.3M211.1 161.4l4.3-4.4M211.1 165.7l4.3-4.3M211.1 170l4.3-4.3M211.1 174.3l4.3-4.3M211.1 178.4l4.3-4.3M211.1 182.7l4.3-4.3M211.1 187l4.3-4.3M213.3 189l2.1-2.2"/><path class="cls-20" d="M210.9 97.5V189M215.2 97.5V189M215.2 97.5V189M210.9 97.5V189M210.9 71.4h4.3M215.2 189h-4.3"/><path class="cls-19" d="M210.9 73.3h4.3M210.9 95.8h4.3"/><path class="cls-20" d="M210.9 71.4h4.3M210.9 97.5h4.3"/><path class="cls-18" d="M237.8 95.8c0-12.4-10.2-22.7-22.7-22.7M215.2 95.8h22.5"/><path class="cls-23" d="M7.3 387.2H.1V66.3h7.2v320.9"/><path class="cls-18" d="M7.6 68.7l-2.7-2.4M7.6 72.8l-6.5-6.5M7.6 76.6L.4 69.4M7.6 80.7L.4 73.5M7.6 84.8L.4 77.6M7.6 88.9L.4 81.7M7.6 92.7L.4 85.5M7.6 96.8L.4 89.6M7.6 100.9L.4 93.7M7.6 104.7L.4 97.5M7.6 108.8l-7.2-7.2M7.6 112.9l-7.2-7.2M7.6 117l-7.2-7.2M7.6 120.8l-7.2-7.2M7.6 124.9l-7.2-7.2M7.6 129l-7.2-7.2M7.6 132.8l-7.2-7.2M7.6 136.9l-7.2-7.2M7.6 141l-7.2-7.2M7.6 144.8l-7.2-7.2M7.6 148.9l-7.2-7.2M7.6 153l-7.2-7.2M7.6 157l-7.2-7.2M7.6 160.9l-7.2-7.2M7.6 165l-7.2-7.2M7.6 169l-7.2-7.2M7.6 172.9l-7.2-7.2M7.6 177l-7.2-7.2M7.6 181l-7.2-7.2M7.6 184.9l-7.2-7.2M7.6 189l-7.2-7.2M7.6 193l-7.2-7.2M7.6 197.1l-7.2-7.2M7.6 201l-7.2-7.2M7.6 205l-7.2-7.2M7.6 209.1l-7.2-7.2M7.6 213l-7.2-7.2M7.6 217l-7.2-7.2M7.6 221.1l-7.2-7.2M7.6 225l-7.2-7.2M7.6 229l-7.2-7.2M7.6 233.1l-7.2-7.2M7.6 237.2L.4 230M7.6 241l-7.2-7.2M7.6 245.1l-7.2-7.2M7.6 249.2L.4 242M7.6 253l-7.2-7.2M7.6 257.1l-7.2-7.2M7.6 261.2L.4 254M7.6 265.3l-7.2-7.2M7.6 269.1l-7.2-7.2M7.6 273.2L.4 266M7.6 277.3l-7.2-7.2M7.6 281.1l-7.2-7.2M7.6 285.2L.4 278M7.6 289.3l-7.2-7.2M7.6 293.1l-7.2-7.2M7.6 297.2L.4 290M7.6 301.3l-7.2-7.2M7.6 305.4l-7.2-7.2M7.6 309.2L.4 302M7.6 313.3l-7.2-7.2M7.6 317.4l-7.2-7.2M7.6 321.2L.4 314M7.6 325.3l-7.2-7.2M7.6 329.4l-7.2-7.2M7.6 333.2L.4 326M7.6 337.3l-7.2-7.2M7.6 341.4l-7.2-7.2M7.6 345.4l-7.2-7.2M7.6 349.3l-7.2-7.2M7.6 353.4l-7.2-7.2M7.6 357.4l-7.2-7.2M7.6 361.3l-7.2-7.2M7.6 365.4l-7.2-7.2M7.6 369.4l-7.2-7.2M7.6 373.5l-7.2-7.2M7.6 377.4l-7.2-7.2M7.6 381.4l-7.2-7.2M7.6 385.5l-7.2-7.2M5.2 387.2l-4.8-5M1.1 387.2l-.7-1M4.9 387.2l2.7-2.4M.9 387.2l6.7-6.5M.4 383.8l7.2-7.2M.4 379.8l7.2-7.2M.4 375.9l7.2-7.2M.4 371.8l7.2-7.2M.4 367.8l7.2-7.2M.4 363.9l7.2-7.2M.4 359.8l7.2-7.2M.4 355.8l7.2-7.2M.4 351.9l7.2-7.2M.4 347.8l7.2-7.2M.4 343.8l7.2-7.2M.4 339.7l7.2-7.2M.4 335.8l7.2-7.2M.4 331.8l7.2-7.2M.4 327.7l7.2-7.2M.4 323.8l7.2-7.2M.4 319.8l7.2-7.2M.4 315.7l7.2-7.2M.4 311.8l7.2-7.2M.4 307.8l7.2-7.2M.4 303.7l7.2-7.2M.4 299.6l7.2-7.2M.4 295.8l7.2-7.2M.4 291.7l7.2-7.2M.4 287.6l7.2-7.2M.4 283.8l7.2-7.2M.4 279.7l7.2-7.2M.4 275.6l7.2-7.2M.4 271.5l7.2-7.2M.4 267.7l7.2-7.2M.4 263.6l7.2-7.2M.4 259.5l7.2-7.2M.4 255.7l7.2-7.2M.4 251.6l7.2-7.2M.4 247.5l7.2-7.2M.4 243.7l7.2-7.2M.4 239.6l7.2-7.2M.4 235.5l7.2-7.2M.4 231.4l7.2-7.2M.4 227.6l7.2-7.2M.4 223.5l7.2-7.2M.4 219.4l7.2-7.2M.4 215.6l7.2-7.2M.4 211.5l7.2-7.2M.4 207.4l7.2-7.2M.4 203.6l7.2-7.2M.4 199.5l7.2-7.2M.4 195.4l7.2-7.2M.4 191.4l7.2-7.2M.4 187.5l7.2-7.2M.4 183.4l7.2-7.2M.4 179.4l7.2-7.2M.4 175.5l7.2-7.2M.4 171.4l7.2-7.2M.4 167.4l7.2-7.2M.4 163.3l7.2-7.2M.4 159.4l7.2-7.2M.4 155.4l7.2-7.2M.4 151.3l7.2-7.2M.4 147.4l7.2-7.2M.4 143.4l7.2-7.2M.4 139.3l7.2-7.2M.4 135.4l7.2-7.2M.4 131.4l7.2-7.2M.4 127.3l7.2-7.2M.4 123.2l7.2-7.2M.4 119.4l7.2-7.2M.4 115.3l7.2-7.2M.4 111.2l7.2-7.2M.4 107.4l7.2-7.2M.4 103.3l7.2-7.2M.4 99.2L7.6 92M.4 95.4l7.2-7.2M.4 91.3l7.2-7.2M.4 87.2L7.6 80M.4 83.1l7.2-7.2M.4 79.3l7.2-7.2M.4 75.2L7.6 68M.4 71.1l4.8-4.8M.4 67.3l.7-1"/><path class="cls-23" d="M.1 387.2h7.2V66.3H.1v320.9"/><path class="cls-18" d="M7.6 68.7l-2.7-2.4M7.6 72.8l-6.5-6.5M7.6 76.6L.4 69.4M7.6 80.7L.4 73.5M7.6 84.8L.4 77.6M7.6 88.9L.4 81.7M7.6 92.7L.4 85.5M7.6 96.8L.4 89.6M7.6 100.9L.4 93.7M7.6 104.7L.4 97.5M7.6 108.8l-7.2-7.2M7.6 112.9l-7.2-7.2M7.6 117l-7.2-7.2M7.6 120.8l-7.2-7.2M7.6 124.9l-7.2-7.2M7.6 129l-7.2-7.2M7.6 132.8l-7.2-7.2M7.6 136.9l-7.2-7.2M7.6 141l-7.2-7.2M7.6 144.8l-7.2-7.2M7.6 148.9l-7.2-7.2M7.6 153l-7.2-7.2M7.6 157l-7.2-7.2M7.6 160.9l-7.2-7.2M7.6 165l-7.2-7.2M7.6 169l-7.2-7.2M7.6 172.9l-7.2-7.2M7.6 177l-7.2-7.2M7.6 181l-7.2-7.2M7.6 184.9l-7.2-7.2M7.6 189l-7.2-7.2M7.6 193l-7.2-7.2M7.6 197.1l-7.2-7.2M7.6 201l-7.2-7.2M7.6 205l-7.2-7.2M7.6 209.1l-7.2-7.2M7.6 213l-7.2-7.2M7.6 217l-7.2-7.2M7.6 221.1l-7.2-7.2M7.6 225l-7.2-7.2M7.6 229l-7.2-7.2M7.6 233.1l-7.2-7.2M7.6 237.2L.4 230M7.6 241l-7.2-7.2M7.6 245.1l-7.2-7.2M7.6 249.2L.4 242M7.6 253l-7.2-7.2M7.6 257.1l-7.2-7.2M7.6 261.2L.4 254M7.6 265.3l-7.2-7.2M7.6 269.1l-7.2-7.2M7.6 273.2L.4 266M7.6 277.3l-7.2-7.2M7.6 281.1l-7.2-7.2M7.6 285.2L.4 278M7.6 289.3l-7.2-7.2M7.6 293.1l-7.2-7.2M7.6 297.2L.4 290M7.6 301.3l-7.2-7.2M7.6 305.4l-7.2-7.2M7.6 309.2L.4 302M7.6 313.3l-7.2-7.2M7.6 317.4l-7.2-7.2M7.6 321.2L.4 314M7.6 325.3l-7.2-7.2M7.6 329.4l-7.2-7.2M7.6 333.2L.4 326M7.6 337.3l-7.2-7.2M7.6 341.4l-7.2-7.2M7.6 345.4l-7.2-7.2M7.6 349.3l-7.2-7.2M7.6 353.4l-7.2-7.2M7.6 357.4l-7.2-7.2M7.6 361.3l-7.2-7.2M7.6 365.4l-7.2-7.2M7.6 369.4l-7.2-7.2M7.6 373.5l-7.2-7.2M7.6 377.4l-7.2-7.2M7.6 381.4l-7.2-7.2M7.6 385.5l-7.2-7.2M5.2 387.2l-4.8-5M1.1 387.2l-.7-1M4.9 387.2l2.7-2.4M.9 387.2l6.7-6.5M.4 383.8l7.2-7.2M.4 379.8l7.2-7.2M.4 375.9l7.2-7.2M.4 371.8l7.2-7.2M.4 367.8l7.2-7.2M.4 363.9l7.2-7.2M.4 359.8l7.2-7.2M.4 355.8l7.2-7.2M.4 351.9l7.2-7.2M.4 347.8l7.2-7.2M.4 343.8l7.2-7.2M.4 339.7l7.2-7.2M.4 335.8l7.2-7.2M.4 331.8l7.2-7.2M.4 327.7l7.2-7.2M.4 323.8l7.2-7.2M.4 319.8l7.2-7.2M.4 315.7l7.2-7.2M.4 311.8l7.2-7.2M.4 307.8l7.2-7.2M.4 303.7l7.2-7.2M.4 299.6l7.2-7.2M.4 295.8l7.2-7.2M.4 291.7l7.2-7.2M.4 287.6l7.2-7.2M.4 283.8l7.2-7.2M.4 279.7l7.2-7.2M.4 275.6l7.2-7.2M.4 271.5l7.2-7.2M.4 267.7l7.2-7.2M.4 263.6l7.2-7.2M.4 259.5l7.2-7.2M.4 255.7l7.2-7.2M.4 251.6l7.2-7.2M.4 247.5l7.2-7.2M.4 243.7l7.2-7.2M.4 239.6l7.2-7.2M.4 235.5l7.2-7.2M.4 231.4l7.2-7.2M.4 227.6l7.2-7.2M.4 223.5l7.2-7.2M.4 219.4l7.2-7.2M.4 215.6l7.2-7.2M.4 211.5l7.2-7.2M.4 207.4l7.2-7.2M.4 203.6l7.2-7.2M.4 199.5l7.2-7.2M.4 195.4l7.2-7.2M.4 191.4l7.2-7.2M.4 187.5l7.2-7.2M.4 183.4l7.2-7.2M.4 179.4l7.2-7.2M.4 175.5l7.2-7.2M.4 171.4l7.2-7.2M.4 167.4l7.2-7.2M.4 163.3l7.2-7.2M.4 159.4l7.2-7.2M.4 155.4l7.2-7.2M.4 151.3l7.2-7.2M.4 147.4l7.2-7.2M.4 143.4l7.2-7.2M.4 139.3l7.2-7.2M.4 135.4l7.2-7.2M.4 131.4l7.2-7.2M.4 127.3l7.2-7.2M.4 123.2l7.2-7.2M.4 119.4l7.2-7.2M.4 115.3l7.2-7.2M.4 111.2l7.2-7.2M.4 107.4l7.2-7.2M.4 103.3l7.2-7.2M.4 99.2L7.6 92M.4 95.4l7.2-7.2M.4 91.3l7.2-7.2M.4 87.2L7.6 80M.4 83.1l7.2-7.2M.4 79.3l7.2-7.2M.4 75.2L7.6 68M.4 71.1l4.8-4.8M.4 67.3l.7-1"/><path class="cls-20" d="M7.3 387.2V66.3M.1 387.2V66.3M7.3 66.3H.1M.1 387.2V66.3M7.3 387.2V66.3M7.3 387.2H.1"/><path class="cls-23" d="M97.3 283v4.4h74.4l4.4-4.4H97.3"/><path class="cls-18" d="M97.6 283.5l.2-.5M97.8 287.4l4.3-4.4M102.1 287.4l4.4-4.4M106.2 287.4l4.3-4.4M110.5 287.4l4.4-4.4M114.9 287.4l4.3-4.4M119.2 287.4l4.3-4.4M123.3 287.4l4.3-4.4M127.6 287.4l4.3-4.4M131.9 287.4l4.3-4.4M136 287.4l4.3-4.4M140.3 287.4l4.3-4.4M144.6 287.4l4.3-4.4M148.9 287.4l4.4-4.4M153 287.4l4.3-4.4M157.3 287.4l4.4-4.4M161.7 287.4l4.3-4.4M165.7 287.4l4.4-4.4M170.1 287.4l4.3-4.4"/><path class="cls-23" d="M97.3 283v4.4h74.4l4.4-4.4H97.3"/><path class="cls-18" d="M97.6 283.5l.2-.5M97.8 287.4l4.3-4.4M102.1 287.4l4.4-4.4M106.2 287.4l4.3-4.4M110.5 287.4l4.4-4.4M114.9 287.4l4.3-4.4M119.2 287.4l4.3-4.4M123.3 287.4l4.3-4.4M127.6 287.4l4.3-4.4M131.9 287.4l4.3-4.4M136 287.4l4.3-4.4M140.3 287.4l4.3-4.4M144.6 287.4l4.3-4.4M148.9 287.4l4.4-4.4M153 287.4l4.3-4.4M157.3 287.4l4.4-4.4M161.7 287.4l4.3-4.4M165.7 287.4l4.4-4.4M170.1 287.4l4.3-4.4"/><path class="cls-20" d="M154 283H97.3M176.1 283h-17.8M171.7 287.4H97.3M171.7 287.4H97.3M154 283H97.3M176.1 283h-17.8"/><path class="cls-19" d="M97.8 287.8v61.7h17.5v-44.4h35.1v-17.3H97.8zM112.9 348.8h2.4M112.9 340.4h2.4M112.9 323.4h2.4M112.9 306.3h2.4"/><path class="cls-23" d="M132.5 292.9v8.9c0 .3 0 .5-.2.8 0 .2-.2.5-.4.6-.2.2-.4.3-.6.4-.2 0-.5.2-.8.2h-11.2c-.3 0-.5 0-.8-.2-.2-.1-.5-.2-.6-.4s-.3-.4-.4-.6c0-.2-.2-.5-.2-.8v-8.9c0-.3 0-.5.2-.8.1-.2.2-.5.4-.6.2-.2.4-.3.6-.4.2-.1.5-.2.8-.2h11.2c.3 0 .5 0 .8.2.2 0 .5.2.6.4.2.2.3.4.4.6.1.2.2.5.2.8"/><path class="cls-19" d="M132.5 292.9v8.9c0 .3 0 .5-.2.8 0 .2-.2.5-.4.6-.2.2-.4.3-.6.4-.2 0-.5.2-.8.2h-11.2c-.3 0-.5 0-.8-.2-.2-.1-.5-.2-.6-.4s-.3-.4-.4-.6c0-.2-.2-.5-.2-.8v-8.9c0-.3 0-.5.2-.8.1-.2.2-.5.4-.6.2-.2.4-.3.6-.4.2-.1.5-.2.8-.2h11.2c.3 0 .5 0 .8.2.2 0 .5.2.6.4.2.2.3.4.4.6.1.2.2.5.2.8"/><path class="cls-23" d="M125.9 294.2c0-.6-.5-1.1-1.1-1.1s-1.1.5-1.1 1.1.5 1.1 1.1 1.1 1.1-.5 1.1-1.1"/><path class="cls-19" d="M125.9 294.2c0-.6-.5-1.1-1.1-1.1s-1.1.5-1.1 1.1.5 1.1 1.1 1.1 1.1-.5 1.1-1.1"/><path class="cls-22" d="M99.3 323.8h14.6v15.8H99.3z"/><path class="cls-19" d="M99.3 323.8h14.6v15.8H99.3z"/><path class="cls-23" d="M112 335.8c0-1.6-1.3-2.9-2.9-2.9s-2.9 1.3-2.9 2.9 1.3 2.9 2.9 2.9 2.9-1.3 2.9-2.9"/><path class="cls-19" d="M112 335.8c0-1.6-1.3-2.9-2.9-2.9s-2.9 1.3-2.9 2.9 1.3 2.9 2.9 2.9 2.9-1.3 2.9-2.9"/><path class="cls-23" d="M104.5 336.8c0-1.2-1-2.2-2.2-2.2s-2.2 1-2.2 2.2 1 2.2 2.2 2.2 2.2-1 2.2-2.2"/><path class="cls-19" d="M104.5 336.8c0-1.2-1-2.2-2.2-2.2s-2.2 1-2.2 2.2 1 2.2 2.2 2.2 2.2-1 2.2-2.2"/><path class="cls-23" d="M111.3 328.3c0-1.3-1-2.3-2.2-2.3s-2.2 1-2.2 2.3 1 2.3 2.2 2.3 2.2-1 2.2-2.3"/><path class="cls-19" d="M111.3 328.3c0-1.3-1-2.3-2.2-2.3s-2.2 1-2.2 2.3 1 2.3 2.2 2.3 2.2-1 2.2-2.3"/><path class="cls-23" d="M105.5 328.5c0-1.5-1.3-2.8-2.9-2.8s-2.9 1.2-2.9 2.8 1.3 2.8 2.9 2.8 2.9-1.2 2.9-2.8"/><path class="cls-19" d="M105.5 328.5c0-1.5-1.3-2.8-2.9-2.8s-2.9 1.2-2.9 2.8 1.3 2.8 2.9 2.8 2.9-1.2 2.9-2.8"/><path class="cls-1" d="M107.9 287.8v61.7"/><path class="cls-19" d="M150.9 304.6h17v.5h-17z"/><path class="cls-19" d="M150.9 289.3h.7v15.4h-.7zM167.4 289.3h.5v15.4h-.5zM150.9 288.8h17v.5h-17zM167.9 304.6h3.4v.5h-3.4zM150.4 287.8h.5v17.3h-.5zM116.3 303v2.1M133.3 303v2.1M150.4 303v2.1"/><path class="cls-23" d="M158.3 179.8l-4.3 4.4v37.9h4.3v-42.3"/><path class="cls-18" d="M154.2 184.4l4.3-4.3M154.2 188.5l4.3-4.3M154.2 192.8l4.3-4.3M154.2 197.1l4.3-4.3M154.2 201.4l4.3-4.3M154.2 205.5l4.3-4.3M154.2 209.8l4.3-4.3M154.2 214.2l4.3-4.4M154.2 218.2l4.3-4.3M154.7 222.1l3.8-3.9"/><path class="cls-23" d="M158.3 179.8l-4.3 4.4v37.9h4.3v-42.3"/><path class="cls-18" d="M154.2 184.4l4.3-4.3M154.2 188.5l4.3-4.3M154.2 192.8l4.3-4.3M154.2 197.1l4.3-4.3M154.2 201.4l4.3-4.3M154.2 205.5l4.3-4.3M154.2 209.8l4.3-4.3M154.2 214.2l4.3-4.4M154.2 218.2l4.3-4.3M154.7 222.1l3.8-3.9"/><path class="cls-20" d="M158.3 222.1v-38.7M154 222.1v-37.9M154 222.1v-37.9M158.3 222.1v-38.7"/><path class="cls-23" d="M158.3 253.8H154v-5.1h4.3v5.1"/><path class="cls-18" d="M154.2 252.3l3.6-3.6M156.9 253.8l1.6-1.5"/><path class="cls-23" d="M154 253.8h4.3v-5.1H154v5.1"/><path class="cls-18" d="M154.2 252.3l3.6-3.6M156.9 253.8l1.6-1.5"/><path class="cls-20" d="M158.3 253.8v-5.1M158.3 253.8v-5.1"/><path class="cls-23" d="M154 280.4v2.6h4.3v-2.6H154"/><path class="cls-18" d="M154.2 282.1l1.7-1.7M157.3 283l1.2-.9"/><path class="cls-23" d="M154 280.4v2.6h4.3v-2.6H154"/><path class="cls-18" d="M154.2 282.1l1.7-1.7M157.3 283l1.2-.9"/><path class="cls-20" d="M158.3 283v-2.6M154 283v-2.6M154 283v-2.6M158.3 283v-2.6"/><path class="cls-1" d="M158.3 248.7v-26.6M154 248.7v-26.6"/><path class="cls-19" d="M158.3 246.8H154M158.3 224.2H154"/><path class="cls-20" d="M158.3 248.7H154M158.3 222.1H154"/><path class="cls-18" d="M158.3 246.8c12.4 0 22.7-10.2 22.7-22.7M158.3 224.2h22.8"/><path class="cls-1" d="M158.3 280.4v-26.6M154 280.4v-26.6"/><path class="cls-19" d="M158.3 278.5H154M158.3 255.7H154"/><path class="cls-20" d="M158.3 280.4H154M158.3 253.8H154"/><path class="cls-18" d="M181 278.4c0-12.4-10.2-22.7-22.7-22.7M158.3 278.5h22.8"/><path class="cls-19" d="M35.7 240.8H93"/><path class="cls-7" d="M34.9 240.1H93"/><path class="cls-19" d="M37.1 242.2H93M35.7 240.8H93"/><path class="cls-7" d="M93 240.8v-.7"/><path class="cls-19" d="M93 242.2v-1.4M34.9 240.1H93M37.1 242.2H93"/><path class="cls-23" d="M65.2 224.9c-1.3-.9-3-.9-4.3 0-1.9 1.5-2.9 3.8-2.9 6.2l.3 9h9.6l.3-9c0-2.4-1-4.7-2.9-6.2"/><path class="cls-19" d="M65.2 224.9c-1.3-.9-3-.9-4.3 0-1.9 1.5-2.9 3.8-2.9 6.2l.3 9h9.6l.3-9c0-2.4-1-4.7-2.9-6.2"/><path class="cls-23" d="M63.1 235c1 0 2-.3 2.8-1.1.7-.7 1.2-1.7 1.2-2.7 0-2.1-.9-4.1-2.5-5.4-.9-.6-2-.6-2.9 0-1.6 1.3-2.5 3.3-2.5 5.4 0 1 .4 2 1.2 2.7.7.7 1.8 1.1 2.8 1.1"/><path class="cls-19" d="M63.1 235c1 0 2-.3 2.8-1.1.7-.7 1.2-1.7 1.2-2.7 0-2.1-.9-4.1-2.5-5.4-.9-.6-2-.6-2.9 0-1.6 1.3-2.5 3.3-2.5 5.4 0 1 .4 2 1.2 2.7.7.7 1.8 1.1 2.8 1.1"/><path class="cls-23" d="M70.2 240.1v-41.3h22.6v41.3H70.2"/><path class="cls-19" d="M70.2 198.8h22.6v41.3H70.2zM92.8 238.2H70.2M35.7 249.4v-8.6"/><path class="cls-7" d="M34.9 249.4v-9.3"/><path class="cls-19" d="M37.1 249.4v-7.2M35.7 249.4v-8.6M34.9 249.4v-9.3M37.1 249.4v-7.2"/><path class="cls-23" d="M38.3 240.1v-12-.4c0-.1.1-.3.2-.4.1-.1.2-.2.4-.2H53c.1 0 .3.1.4.2.1.1.2.2.2.4v12.4H38"/><path class="cls-19" d="M38.3 240.1v-12-.4c0-.1.1-.3.2-.4.1-.1.2-.2.4-.2H53c.1 0 .3.1.4.2.1.1.2.2.2.4v12.4H38"/><path class="cls-23" d="M34 253.8h59v-4.4H34v4.4"/><path class="cls-18" d="M34.2 253.3l3.9-3.9M37.8 253.8l4.3-4.4M42.1 253.8l4.4-4.4M46.5 253.8l4.3-4.4M50.8 253.8l4.3-4.4M54.9 253.8l4.3-4.4M59.2 253.8l4.3-4.4M63.5 253.8l4.3-4.4M67.6 253.8l4.3-4.4M71.9 253.8l4.3-4.4M76.2 253.8l4.3-4.4M80.5 253.8l4.4-4.4M84.6 253.8l4.3-4.4M88.9 253.8l4.4-4.4"/><path class="cls-23" d="M34 253.8h59v-4.4H34v4.4"/><path class="cls-18" d="M34.2 253.3l3.9-3.9M37.8 253.8l4.3-4.4M42.1 253.8l4.4-4.4M46.5 253.8l4.3-4.4M50.8 253.8l4.3-4.4M54.9 253.8l4.3-4.4M59.2 253.8l4.3-4.4M63.5 253.8l4.3-4.4M67.6 253.8l4.3-4.4M71.9 253.8l4.3-4.4M76.2 253.8l4.3-4.4M80.5 253.8l4.4-4.4M84.6 253.8l4.3-4.4M88.9 253.8l4.4-4.4"/><path class="cls-20" d="M93 249.4H34M93 253.8H34M93 253.8H34M93 249.4H34M7.3 253.8v-4.4"/><path class="cls-19" d="M31.8 249.4v4.4M9.3 249.4v4.4"/><path class="cls-20" d="M34 249.4v4.4M7.3 249.4v4.4"/><path class="cls-18" d="M31.9 249.5c0-12.4-10.2-22.7-22.7-22.7M9.3 249.4v-22.5"/><path class="cls-23" d="M34 198.6h59v-4.4H34v4.4"/><path class="cls-18" d="M34.2 198.1l3.9-3.9M37.8 198.6l4.3-4.4M42.1 198.6l4.4-4.4M46.5 198.6l4.3-4.4M50.5 198.6l4.4-4.4M54.9 198.6l4.3-4.4M59.2 198.6l4.3-4.4M63.3 198.6l4.3-4.4M67.6 198.6l4.3-4.4M71.9 198.6l4.3-4.4M76.2 198.6l4.3-4.4M80.3 198.6l4.3-4.4M84.6 198.6l4.3-4.4M88.9 198.6l4.4-4.4M93 198.6h.3"/><path class="cls-23" d="M34 198.6h59v-4.4H34v4.4"/><path class="cls-18" d="M34.2 198.1l3.9-3.9M37.8 198.6l4.3-4.4M42.1 198.6l4.4-4.4M46.5 198.6l4.3-4.4M50.5 198.6l4.4-4.4M54.9 198.6l4.3-4.4M59.2 198.6l4.3-4.4M63.3 198.6l4.3-4.4M67.6 198.6l4.3-4.4M71.9 198.6l4.3-4.4M76.2 198.6l4.3-4.4M80.3 198.6l4.3-4.4M84.6 198.6l4.3-4.4M88.9 198.6l4.4-4.4M93 198.6h.3"/><path class="cls-20" d="M93 194.2H34M93 198.6H34M93 198.6H34M93 194.2H34M7.3 198.6v-4.4"/><path class="cls-19" d="M31.8 194.2v4.4M9.3 194.2v4.4"/><path class="cls-20" d="M34 194.2v4.4M7.3 194.2v4.4"/><path class="cls-18" d="M9.2 221.1c12.4 0 22.7-10.2 22.7-22.7M9.3 198.6v22.5"/><path class="cls-23" d="M120.5 233.6c.9 1.3.9 3 0 4.3-1.5 1.9-3.8 2.9-6.2 2.9l-9-.3v-9.6l9-.3c2.4 0 4.7 1 6.2 2.9"/><path class="cls-19" d="M120.5 233.6c.9 1.3.9 3 0 4.3-1.5 1.9-3.8 2.9-6.2 2.9l-9-.3v-9.6l9-.3c2.4 0 4.7 1 6.2 2.9"/><path class="cls-23" d="M110.4 235.7c0-1 .3-2 1.1-2.8.7-.7 1.7-1.2 2.7-1.2 2.1 0 4.1.9 5.4 2.5.6.9.6 2 0 2.9-1.3 1.6-3.3 2.5-5.4 2.5-1 0-2-.4-2.7-1.2-.7-.7-1.1-1.8-1.1-2.8"/><path class="cls-19" d="M110.4 235.7c0-1 .3-2 1.1-2.8.7-.7 1.7-1.2 2.7-1.2 2.1 0 4.1.9 5.4 2.5.6.9.6 2 0 2.9-1.3 1.6-3.3 2.5-5.4 2.5-1 0-2-.4-2.7-1.2-.7-.7-1.1-1.8-1.1-2.8"/><path class="cls-23" d="M105.7 184.4h48.1v.1h.1v.1h.1v.1l.1.1v20.5l-.1.1v.1l-.1.1h-.1v.1h-48.2l-.1-.1h-.1v-.1l-.1-.1V184.7h.1v-.1l.1-.1h.1v-.1h.1"/><path class="cls-19" d="M105.7 184.4h48.1v.1h.1v.1h.1v.1l.1.1v20.5l-.1.1v.1l-.1.1h-.1v.1h-48.2l-.1-.1h-.1v-.1l-.1-.1V184.7h.1v-.1l.1-.1h.1v-.1h.1"/><path class="cls-23" d="M111 186.6h37.4c.4 0 .9 0 1.3.3.4.2.8.4 1.1.7.3.3.6.7.7 1.1.2.4.3.9.3 1.3v10.2c0 .4 0 .9-.3 1.3-.2.4-.4.8-.7 1.1-.3.3-.7.6-1.1.7-.4.2-.9.3-1.3.3H111c-.4 0-.9 0-1.3-.3-.4-.2-.8-.4-1.1-.7-.3-.3-.6-.7-.7-1.1-.2-.4-.3-.9-.3-1.3V190c0-.4 0-.9.3-1.3.2-.4.4-.8.7-1.1.3-.3.7-.6 1.1-.7.4-.2.9-.3 1.3-.3"/><path class="cls-19" d="M111 186.6h37.4c.4 0 .9 0 1.3.3.4.2.8.4 1.1.7.3.3.6.7.7 1.1.2.4.3.9.3 1.3v10.2c0 .4 0 .9-.3 1.3-.2.4-.4.8-.7 1.1-.3.3-.7.6-1.1.7-.4.2-.9.3-1.3.3H111c-.4 0-.9 0-1.3-.3-.4-.2-.8-.4-1.1-.7-.3-.3-.6-.7-.7-1.1-.2-.4-.3-.9-.3-1.3V190c0-.4 0-.9.3-1.3.2-.4.4-.8.7-1.1.3-.3.7-.6 1.1-.7.4-.2.9-.3 1.3-.3M104.5 248.7v-20.9"/><path class="cls-7" d="M105.3 248.7v-21.6"/><path class="cls-19" d="M103.1 248.7v-19.4M104.5 248.7v-20.9M105.3 248.7v-21.6M103.1 248.7v-19.4M100.7 227.8v-18.2"/><path class="cls-7" d="M101.4 227.1v-16.8"/><path class="cls-19" d="M99.3 229.3v-21.1M100.7 227.8v-18.2M101.4 227.1v-16.8M99.3 229.3v-21.1M104.5 209.6v-25.4"/><path class="cls-7" d="M105.3 210.3v-26.1"/><path class="cls-19" d="M103.1 208.2v-24M104.5 209.6v-25.4M105.3 210.3v-26.1M103.1 208.2v-24"/><path class="cls-23" d="M105.3 210.9h12.4c.1 0 .3.1.4.2.1.1.2.2.2.4V225.6c0 .1-.1.3-.2.4-.1.1-.2.2-.4.2h-12.4v-15.6"/><path class="cls-19" d="M105.3 210.9h12.4c.1 0 .3.1.4.2.1.1.2.2.2.4V225.6c0 .1-.1.3-.2.4-.1.1-.2.2-.4.2h-12.4v-15.6"/><path class="cls-17" d="M105.3 227.4h-3.9"/><path class="cls-4" d="M101.4 227.4v-17.1"/><path class="cls-17" d="M101.4 210.3h3.9"/><path class="cls-19" d="M100.7 209.6h3.8"/><path class="cls-7" d="M101.4 210.3h3.9"/><path class="cls-19" d="M99.3 208.2h3.8M100.7 209.6h3.8M101.4 210.3h3.9M99.3 208.2h3.8M104.5 227.8h-3.8"/><path class="cls-7" d="M105.3 227.1h-3.9"/><path class="cls-19" d="M103.1 229.3h-3.8M104.5 227.8h-3.8M105.3 227.1h-3.9M103.1 229.3h-3.8"/><path class="cls-7" d="M105.3 227.1v-16.8"/><path class="cls-23" d="M97.3 248.7v5.1H154v-5.1H97.3"/><path class="cls-18" d="M97.6 249.4l.7-.7M97.6 253.8l4.8-5.1M101.7 253.8l5-5.1M106 253.8l5-5.1M110.1 253.8l5-5.1M114.4 253.8l5-5.1M118.7 253.8l5-5.1M123 253.8l5.1-5.1M127.1 253.8l5-5.1M131.4 253.8l5.1-5.1M135.7 253.8l5.1-5.1M139.8 253.8l5.1-5.1M144.1 253.8l5.1-5.1M148.5 253.8l5-5.1M152.8 253.8l1.4-1.5"/><path class="cls-23" d="M97.3 248.7v5.1H154v-5.1H97.3"/><path class="cls-18" d="M97.6 249.4l.7-.7M97.6 253.8l4.8-5.1M101.7 253.8l5-5.1M106 253.8l5-5.1M110.1 253.8l5-5.1M114.4 253.8l5-5.1M118.7 253.8l5-5.1M123 253.8l5.1-5.1M127.1 253.8l5-5.1M131.4 253.8l5.1-5.1M135.7 253.8l5.1-5.1M139.8 253.8l5.1-5.1M144.1 253.8l5.1-5.1M148.5 253.8l5-5.1M152.8 253.8l1.4-1.5"/><path class="cls-20" d="M154 248.7H97.3M154 253.8H97.3M154 253.8H97.3M154 248.7H97.3"/><path class="cls-23" d="M97.3 179.8v4.4H154l4.3-4.4h-61"/><path class="cls-18" d="M97.6 181.5l1.4-1.7M99 184.2l4.3-4.4M103.3 184.2l4.4-4.4M107.4 184.2l4.3-4.4M111.7 184.2l4.4-4.4M116.1 184.2l4.3-4.4M120.4 184.2l4.3-4.4M124.5 184.2l4.3-4.4M128.8 184.2l4.3-4.4M133.1 184.2l4.3-4.4M137.2 184.2l4.3-4.4M141.5 184.2l4.3-4.4M145.8 184.2l4.3-4.4M150.1 184.2l4.4-4.4"/><path class="cls-23" d="M97.3 179.8v4.4H154l4.3-4.4h-61"/><path class="cls-18" d="M97.6 181.5l1.4-1.7M99 184.2l4.3-4.4M103.3 184.2l4.4-4.4M107.4 184.2l4.3-4.4M111.7 184.2l4.4-4.4M116.1 184.2l4.3-4.4M120.4 184.2l4.3-4.4M124.5 184.2l4.3-4.4M128.8 184.2l4.3-4.4M133.1 184.2l4.3-4.4M137.2 184.2l4.3-4.4M141.5 184.2l4.3-4.4M145.8 184.2l4.3-4.4M150.1 184.2l4.4-4.4"/><path class="cls-20" d="M158.3 179.8h-61M154 184.2H97.3M154 184.2H97.3M158.3 179.8h-61"/><path class="cls-19" d="M175.8 189.4h.7V205h-.7zM159.5 189.4h16.3v.5h-16.3zM159 189.4h.5v31.2h-.5zM175.8 188.2h.7v1.2h-.7zM175.8 205h.7v15.6h-.7zM159.5 219.9h16.3v.7h-16.3zM158.8 220.6h17.8v.5h-17.8z"/><path class="cls-22" d="M160.9 187.5H171v2.4h-10.1z"/><path class="cls-19" d="M160.9 187.5H171v2.4h-10.1z"/><path class="cls-22" d="M160.7 189.9h10.6v.2h-10.6z"/><path class="cls-19" d="M160.7 189.9h10.6v.2h-10.6z"/><path class="cls-21" d="M161.7 190.2v8.4"/><path class="cls-3" d="M170.3 190.2l-.2 1.6-.5 1.5-.7 1.4-1.2 1.5-1.2.9-1.5 1-1.7.5h-1.6"/><path class="cls-23" d="M176.1 187.8v-8l-3.6 3.6v4.4h3.6"/><path class="cls-18" d="M172.7 187l3.6-3.6M176.1 187.8h.2"/><path class="cls-23" d="M176.1 187.8v-8l-3.6 3.6v4.4h3.6"/><path class="cls-18" d="M172.7 187l3.6-3.6M176.1 187.8h.2"/><path class="cls-20" d="M172.5 183.4v4.4M176.1 179.8v8M172.5 187.8h3.6M176.1 179.8v8M172.5 183.4v4.4"/><path class="cls-23" d="M158.3 179.8v3.6h14.2l3.6-3.6h-17.8"/><path class="cls-18" d="M158.5 180.1v-.3M159.3 183.4l3.6-3.6M163.6 183.4l3.6-3.6M167.7 183.4l3.6-3.6M172 183.4l3.6-3.6"/><path class="cls-23" d="M158.3 179.8v3.6h14.2l3.6-3.6h-17.8"/><path class="cls-18" d="M158.5 180.1v-.3M159.3 183.4l3.6-3.6M163.6 183.4l3.6-3.6M167.7 183.4l3.6-3.6M172 183.4l3.6-3.6"/><path class="cls-20" d="M176.1 179.8h-17.8M172.5 183.4h-14.2M172.5 183.4h-14.2M176.1 179.8h-17.8"/><path class="cls-1" d="M176.1 283v-61.4"/><path class="cls-23" d="M93 354.6l4.3-4.1v-253H93v257.1"/><path class="cls-18" d="M93.3 100.9l3.1-3.4M93.3 105l4.3-4.4M93.3 109.3l4.3-4.3M93.3 113.6l4.3-4.3M93.3 117.7l4.3-4.3M93.3 122l4.3-4.3M93.3 126.3l4.3-4.3M93.3 130.6l4.3-4.3M93.3 134.7l4.3-4.3M93.3 139l4.3-4.3M93.3 143.4l4.3-4.4M93.3 147.4l4.3-4.3M93.3 151.8l4.3-4.4M93.3 156.1l4.3-4.3M93.3 160.4l4.3-4.3M93.3 164.5l4.3-4.3M93.3 168.8l4.3-4.3M93.3 173.1l4.3-4.3M93.3 177.2l4.3-4.3M93.3 181.5l4.3-4.3M93.3 185.8l4.3-4.3M93.3 190.2l4.3-4.4M93.3 194.2l4.3-4.3M93.3 198.6l4.3-4.4M93.3 202.9l4.3-4.3M93.3 207l4.3-4.4M93.3 211.3l4.3-4.3M93.3 215.6l4.3-4.3M93.3 219.7l4.3-4.3M93.3 224l4.3-4.3M93.3 228.3l4.3-4.3M93.3 232.6l4.3-4.3M93.3 236.7l4.3-4.3M93.3 241l4.3-4.3M93.3 245.4l4.3-4.4M93.3 249.4l4.3-4.3M93.3 253.8l4.3-4.4M93.3 258.1l4.3-4.3M93.3 262.4l4.3-4.3M93.3 266.5l4.3-4.3M93.3 270.8l4.3-4.3M93.3 275.1l4.3-4.3M93.3 279.2l4.3-4.3M93.3 283.5l4.3-4.3M93.3 287.8l4.3-4.3M93.3 292.2l4.3-4.4M93.3 296.2l4.3-4.3M93.3 300.6l4.3-4.4M93.3 304.9l4.3-4.3M93.3 309l4.3-4.4M93.3 313.3l4.3-4.3M93.3 317.6l4.3-4.3M93.3 321.7l4.3-4.3M93.3 326l4.3-4.3M93.3 330.3l4.3-4.3M93.3 334.6l4.3-4.3M93.3 338.7l4.3-4.3M93.3 343l4.3-4.3M93.3 347.4l4.3-4.4M93.3 351.4l4.3-4.3"/><path class="cls-23" d="M93 354.6l4.3-4.1v-253H93v257.1"/><path class="cls-18" d="M93.3 100.9l3.1-3.4M93.3 105l4.3-4.4M93.3 109.3l4.3-4.3M93.3 113.6l4.3-4.3M93.3 117.7l4.3-4.3M93.3 122l4.3-4.3M93.3 126.3l4.3-4.3M93.3 130.6l4.3-4.3M93.3 134.7l4.3-4.3M93.3 139l4.3-4.3M93.3 143.4l4.3-4.4M93.3 147.4l4.3-4.3M93.3 151.8l4.3-4.4M93.3 156.1l4.3-4.3M93.3 160.4l4.3-4.3M93.3 164.5l4.3-4.3M93.3 168.8l4.3-4.3M93.3 173.1l4.3-4.3M93.3 177.2l4.3-4.3M93.3 181.5l4.3-4.3M93.3 185.8l4.3-4.3M93.3 190.2l4.3-4.4M93.3 194.2l4.3-4.3M93.3 198.6l4.3-4.4M93.3 202.9l4.3-4.3M93.3 207l4.3-4.4M93.3 211.3l4.3-4.3M93.3 215.6l4.3-4.3M93.3 219.7l4.3-4.3M93.3 224l4.3-4.3M93.3 228.3l4.3-4.3M93.3 232.6l4.3-4.3M93.3 236.7l4.3-4.3M93.3 241l4.3-4.3M93.3 245.4l4.3-4.4M93.3 249.4l4.3-4.3M93.3 253.8l4.3-4.4M93.3 258.1l4.3-4.3M93.3 262.4l4.3-4.3M93.3 266.5l4.3-4.3M93.3 270.8l4.3-4.3M93.3 275.1l4.3-4.3M93.3 279.2l4.3-4.3M93.3 283.5l4.3-4.3M93.3 287.8l4.3-4.3M93.3 292.2l4.3-4.4M93.3 296.2l4.3-4.3M93.3 300.6l4.3-4.4M93.3 304.9l4.3-4.3M93.3 309l4.3-4.4M93.3 313.3l4.3-4.3M93.3 317.6l4.3-4.3M93.3 321.7l4.3-4.3M93.3 326l4.3-4.3M93.3 330.3l4.3-4.3M93.3 334.6l4.3-4.3M93.3 338.7l4.3-4.3M93.3 343l4.3-4.3M93.3 347.4l4.3-4.4M93.3 351.4l4.3-4.3"/><path class="cls-20" d="M93 253.8v100.8M93 198.6v50.8M93 97.5v96.7M97.3 287.4v63.1M97.3 253.8V283M97.3 184.2v64.5M97.3 97.5v82.3M97.3 287.4v63.1M93 253.8v100.8M97.3 253.8V283M93 198.6v50.8M97.3 184.2v64.5M93 97.5v96.7M97.3 97.5v82.3M93 71.4h4.3"/><path class="cls-19" d="M93 73.3h4.3M93 95.8h4.3"/><path class="cls-20" d="M93 71.4h4.3M93 97.5h4.3"/><path class="cls-18" d="M93.1 73.2c-12.4 0-22.7 10.2-22.7 22.7M93 95.8H70.5"/><path class="cls-23" d="M97.3 350.5l-4.3 4.1h10.1l4.3-4.1H97.3"/><path class="cls-18" d="M94.5 354.6l4-4.1M98.5 354.6l4.1-4.1M102.9 354.6l4-4.1"/><path class="cls-23" d="M97.3 350.5l-4.3 4.1h10.1l4.3-4.1H97.3"/><path class="cls-18" d="M94.5 354.6l4-4.1M98.5 354.6l4.1-4.1M102.9 354.6l4-4.1"/><path class="cls-20" d="M107.4 350.5H97.3M103.1 354.6H93M103.1 354.6H93M107.4 350.5H97.3"/><path class="cls-23" d="M107.4 350.5l-4.3 4.1h4.3v-4.1"/><path class="cls-18" d="M107.2 354.6l.5-.5"/><path class="cls-23" d="M107.4 350.5l-4.3 4.1h4.3v-4.1"/><path class="cls-18" d="M107.2 354.6l.5-.5"/><path class="cls-20" d="M107.4 354.6v-4.1M107.4 354.6v-4.1M107.4 382.2h-4.3"/><path class="cls-19" d="M107.4 379.8h-4.3M107.4 357h-4.3"/><path class="cls-20" d="M107.4 382.2h-4.3M107.4 354.6h-4.3"/><path class="cls-18" d="M80.5 357.1c0 12.4 10.2 22.7 22.7 22.7M103.1 357H80.5"/><path class="cls-23" d="M176.1 283l-4.4 4.4v17.2h4.4V283"/><path class="cls-18" d="M172 289.8l4.3-4.4M172 294.1l4.3-4.3M172 298.4l4.3-4.3M172 302.5l4.3-4.3M174.1 304.6l2.2-2.1"/><path class="cls-23" d="M176.1 283l-4.4 4.4v17.2h4.4V283"/><path class="cls-18" d="M172 289.8l4.3-4.4M172 294.1l4.3-4.3M172 298.4l4.3-4.3M172 302.5l4.3-4.3M174.1 304.6l2.2-2.1"/><path class="cls-20" d="M176.1 304.6V283M171.7 304.6v-17.2M171.7 304.6v-17.2M176.1 304.6V283M176.1 304.6h-4.4"/><path class="cls-22" d="M309 399.7h1.2v35.8H309z"/><path class="cls-19" d="M309 399.7h1.2v35.8H309zM114.4 56.7l3.3-54.9h74l3.6 54.9"/><path class="cls-19" d="M112.7 56.7L116.3 0h77l3.6 56.7"/><path class="cls-23" d="M313.1 304.6l-3.6-.9-.7 2.9 4.3-2"/><path class="cls-18" d="M312.1 305.1l-1.2-1.2M309.3 306.3l-.3-.2M310.9 305.6l1.5-1.2M125.2 60.6h59.3v3.6h-59.3zM228.4 389.6h59.3v3.4h-59.3z"/><path class="cls-23" d="M236.3 411.4h24.5v18.3h-24.5v-18.3"/><path class="cls-18" d="M51.6 387.2v-1.9c0-.6-.2-1.2-.3-1.8-.1-.6-.3-1.2-.5-1.8l-.6-1.8c-.2-.6-.5-1.1-.8-1.7-.3-.5-.6-1.1-1-1.6-.3-.5-.7-1-1.1-1.5-.4-.5-.8-.9-1.3-1.4-.4-.4-.9-.9-1.4-1.3-.5-.4-1-.8-1.5-1.1s-1-.7-1.6-1c-.5-.3-1.1-.6-1.7-.8l-1.8-.6c-.6-.2-1.2-.3-1.8-.5l-1.8-.3h-1.9M32.5 368.2v19M51.5 387.2l.2-1.4M52 384.3v-.7M52 383.6l.2-.7"/><path class="cls-12" d="M52.5 381.7l.4-1.7"/><path class="cls-18" d="M53.7 378.8l.2-.5M53.9 378.3l.5-.7M55.1 376.4l.7-1.2"/><path class="cls-15" d="M55.8 375.2l1.5-1.4"/><path class="cls-18" d="M57.3 373.8l.4-.5"/><path class="cls-5" d="M58.5 372.6l1.6-1.2"/><path class="cls-18" d="M61.1 370.6l.5-.2M61.6 370.4l.7-.2"/><path class="cls-13" d="M63.3 369.7l1.9-.5"/><path class="cls-18" d="M66.4 369l.5-.3M66.9 368.7l.9-.2"/><path class="cls-11" d="M68.8 368.2h1.9"/><path class="cls-6" d="M70.7 368.2v19"/><path class="cls-18" d="M70.7 386.7v.5M51.6 66.4v1.9c0 .6-.2 1.2-.3 1.8-.1.6-.3 1.2-.5 1.8l-.6 1.8c-.2.6-.5 1.1-.8 1.7-.3.5-.6 1.1-1 1.6-.3.5-.7 1-1.1 1.5-.4.5-.8.9-1.3 1.4-.4.4-.9.9-1.4 1.3-.5.4-1 .8-1.5 1.1-.5.3-1 .7-1.6 1-.5.3-1.1.6-1.7.8l-1.8.6c-.6.2-1.2.3-1.8.5l-1.8.3h-1.9M32.5 85.3v-19M51.7 66.3v1.5M51.7 69.2l.3 1M52 70.2l.2.4"/><path class="cls-12" d="M52.5 71.8l.7 2"/><path class="cls-18" d="M53.4 74.5l.5.9M53.9 75.4l.2.3"/><path class="cls-9" d="M54.9 76.9l1.2 1.4"/><path class="cls-18" d="M56.8 79.3l.5.5M57.3 79.8l.4.4"/><path class="cls-14" d="M58.7 81l1.4 1.2"/><path class="cls-18" d="M61.1 82.9l.5.2M61.6 83.1l.7.3"/><path class="cls-13" d="M63.3 83.8l1.9.8"/><path class="cls-18" d="M66.4 84.8l.5.2M66.9 85h.9"/><path class="cls-11" d="M68.8 85.3h1.9"/><path class="cls-6" d="M70.7 85.3v-19"/><path class="cls-18" d="M70.7 66.8v-.5M258 66.4v1.9c0 .6.2 1.2.3 1.8.1.6.3 1.2.5 1.8l.6 1.8c.2.6.5 1.1.8 1.7.3.5.6 1.1 1 1.6.3.5.7 1 1.1 1.5.4.5.8.9 1.3 1.4.4.4.9.9 1.4 1.3.5.4 1 .8 1.5 1.1.5.3 1 .7 1.6 1 .5.3 1.1.6 1.7.8l1.8.6c.6.2 1.2.3 1.8.5l1.8.3h1.9M277.1 85.3v-19M257.9 66.3v1.5M257.9 69.2l-.2 1M257.7 70.2l-.3.4"/><path class="cls-12" d="M257.2 71.8l-.7 2"/><path class="cls-18" d="M256.2 74.5l-.5.9M255.7 75.4l-.2.3"/><path class="cls-9" d="M254.8 76.9l-1.2 1.4"/><path class="cls-18" d="M252.9 79.3l-.5.5M252.4 79.8l-.5.4"/><path class="cls-14" d="M250.9 81l-1.4 1.2"/><path class="cls-18" d="M248.5 82.9l-.4.2M248.1 83.1l-.8.3"/><path class="cls-13" d="M246.4 83.8l-1.9.8"/><path class="cls-18" d="M243.3 84.8l-.5.2M242.8 85h-1"/><path class="cls-11" d="M240.9 85.3h-2"/><path class="cls-6" d="M238.9 85.3v-19"/><path class="cls-18" d="M238.9 66.8v-.5M164.7 66.4c0 11 9.1 20.1 20.1 20.1M184.9 86.5V66.3"/><path class="cls-6" d="M164.8 66.3l-.5 4.1-1.2 3.6-1.7 3.6-2.6 3.1-2.9 2.4-3.6 1.9-3.8 1.2-3.9.3"/><path class="cls-16" d="M144.6 86.5V66.3"/><path class="cls-18" d="M144.9 387.3c0-11-9.1-20.1-20.1-20.1M124.7 367v20.2"/><path class="cls-6" d="M144.9 387.2l.4-3.8 1.2-3.9 1.7-3.3 2.7-3.2 2.8-2.4 3.6-1.9 3.9-1.2 3.8-.5"/><path class="cls-16" d="M165 367v20.2"/><path class="cls-18" d="M288 367.1c-11 0-20.1 9.1-20.1 20.1M288.1 367v20.2"/><path class="cls-6" d="M247.8 367l3.9.5 3.8 1.2 3.4 1.9 3.1 2.4 2.6 3.2 1.7 3.3 1.2 3.9.5 3.8"/><path class="cls-16" d="M247.8 367v20.2"/><path class="cls-18" d="M34.9 255.2h56.6v28.6H34.9z"/><path class="cls-19" d="M202.2 242.2l-.2 1M202 243.2v.7M202 243.9l-.3.7M201.7 244.6v.5M201 246.3v.3M200.1 247.8l-.5.4M199.6 248.2l-.5.5M199.1 248.7l-.7.7M198.4 249.4l-.5.3M196.7 250.2l-.2.2M195 250.6h-.5M194.5 250.6l-.9.3M193.6 250.9l-.7-.3M192.9 250.6h-.8M190.9 250.4l-.2-.2M189.3 249.7l-.5-.3M188.8 249.4l-.5-.7M188.3 248.7l-.7-.5M187.6 248.2l-.5-.4M186.4 246.6l-.3-.3M185.7 245.1l-.3-.5M185.4 244.6l-.2-.7M185.2 243.9v-.7M185.2 243.2v-1M185.2 240.8v-.2M185.7 239.4v-.3M185.7 239.1l.4-.9M186.1 238.2l.5-.8M186.6 237.4l.5-.4M187.1 237v-.3M188.1 235.8h.2M189.5 234.8l1-.5M190.5 234.3l.7-.2M191.2 234.1l.7-.3M191.9 233.8h.2M193.6 233.8h.2M195.3 233.8l.7.3M196 234.1l.9.2M196.9 234.3l.8.5M197.7 234.8h.2M199.1 235.8l.2.2M200.3 237l.5.4M200.8 237.4l.2.8M201 238.2l.5.9M201.5 239.1v.3M202 240.8v.2"/></g><g id="Mbel"><path class="cls-2" d="M34.9 177h56.6v15.6H34.9zM198.6 103.3h10.8v56.6h-10.8zM232.2 327.2h51.1V350h-51.1zM281.9 317.4h-12.7M281.9 325.9v-8.5M269.2 317.4v8.5M264.2 317.4h-12.8M264.2 325.9v-8.5M251.4 317.4v8.5M246.5 317.4h-12.8M246.5 325.9v-8.5M233.7 317.4v8.5M281.9 359.9h-12.7M281.9 351.4v8.5M269.2 359.9v-8.5M264.2 359.9h-12.8M264.2 351.4v8.5M251.4 359.9v-8.5M246.5 359.9h-12.8M246.5 351.4v8.5M233.7 359.9v-8.5M34.9 114.8h56.6v45.4H34.9zM134.3 121.5h14.2v28.3h-14.2zM103.3 109h19c.1 0 .2.1.3.2 0 0 .1.2.2.3V135c0 .1-.1.2-.2.3 0 0-.2.1-.3.2h-19v-26.6M99.6 104.5h22.7c.1 0 .2.1.3.2 0 0 .1.2.2.3V108.4c0 .1-.1.2-.2.3 0 0-.2.1-.3.2h-23c-.1 0-.2-.1-.3-.2 0 0-.1-.2-.2-.3V105.3v-.3c0-.1.1-.2.2-.3 0 0 .2-.1.3-.2h.3M103.3 135.7h-4c-.1 0-.2.1-.3.2 0 0-.1.2-.2.3v25.5c0 .1.1.2.2.3 0 0 .2.1.3.2h4M105.5 162.3V109M103.3 162.3h19c.1 0 .2-.1.3-.2 0 0 .1-.2.2-.3v-25.2-.3c0-.1-.1-.2-.2-.3 0 0-.2-.1-.3-.2h-19v26.6M99.6 166.9h22.7c.1 0 .2-.1.3-.2 0 0 .1-.2.2-.3V163.3v-.3c0-.1-.1-.2-.2-.3 0 0-.2-.1-.3-.2h-23c-.1 0-.2.1-.3.2 0 0-.1.2-.2.3V166.4c0 .1.1.2.2.3 0 0 .2.1.3.2h.3M103.3 135.7h-4c-.1 0-.2-.1-.3-.2 0 0-.1-.2-.2-.3V110v-.3c0-.1.1-.2.2-.3 0 0 .2-.1.3-.2h4M288.9 72.6h15.6v56.6h-15.6zM247.8 159h56.6v28.6h-56.6zM236.3 120.3h7.7v11.3h-7.7zM216.6 103.3h19.7v45.4h-19.7zM28.7 329.1h7.7v11.3h-7.7zM8.8 312.1h19.9v45.4H8.8zM76 297.9h15.6v56.6H76z"/></g><g id="Text"><path d="M40.5 205.6h1.4c1.6 0 2.6 1 2.6 2.6s-.3 1.6-.8 2.1c-.5.4-1.1.6-1.9.6h-1.3v-5.3zm.7 4.8h.2c.9 0 1.3 0 1.7-.4.5-.4.7-1 .7-1.8 0-1.3-.7-2-1.9-2h-.7v4.2zM48.5 207.3v2.4c0 .5 0 .8-.4 1-.3.2-.6.4-1.1.4s-.8-.1-1.1-.4c-.2-.2-.4-.6-.4-1v-2.4h.6v2.3c0 .5.3.9.8.9s.5-.1.7-.3c.1-.1.2-.3.2-.6v-2.4h.6zM51.6 208.3c0-.4-.3-.6-.7-.6s-.7.2-.7.5.2.4.8.6c.5.1.7.2.9.4.2.2.3.4.3.7 0 .6-.5 1.1-1.3 1.1s-1.3-.4-1.4-1.1h.6c0 .4.3.6.8.6s.7-.2.7-.5-.2-.5-.8-.6c-.8-.2-1.2-.6-1.2-1.1s.5-1.1 1.3-1.1 1.3.4 1.3 1.1h-.6zM56.2 210.5c-.4.4-.8.5-1.4.5-1.1 0-1.8-.8-1.8-1.9s.8-1.9 1.8-1.9 1 .2 1.3.6l-.4.4c-.3-.3-.6-.4-.9-.4-.7 0-1.2.6-1.2 1.4s.5 1.4 1.2 1.4.6-.1.9-.4l.4.4zM57.8 207.8c.3-.4.7-.6 1.1-.6s.7.1.9.3c.2.2.3.5.3 1v2.5h-.6v-2.4c0-.5-.2-.8-.7-.8s-.5.1-.7.3c-.2.2-.2.4-.2.7v2.2h-.6v-5.3h.6v2.2zM61.7 209.3c0 .3 0 .5.2.7.2.3.6.5 1 .5s.9-.2 1.1-.6l.5.2c-.3.6-.9 1-1.6 1-1.1 0-1.9-.8-1.9-1.9s.8-1.9 1.9-1.9 1.9.8 1.9 1.9v.2h-3.1zm2.4-.4c0-.3 0-.4-.2-.6-.2-.3-.6-.5-1-.5s-.8.2-1 .5c-.1.2-.2.3-.2.6h2.4zM40.2 218.7v-.5l2.8-3.7v3.6h.6v.6H43v1.2h-.6v-1.2h-2.1zm2.1-2.6l-1.5 2h1.5v-2zM45.4 219.6c0 .2-.2.4-.4.4s-.4-.2-.4-.4.2-.4.4-.4.4.2.4.4zM47.7 216.8c.2 0 .3-.1.5-.1.9 0 1.6.7 1.6 1.6s-.8 1.7-1.7 1.7-1.7-.8-1.7-1.7.1-.7.4-1.2l1.5-2.5h.7l-1.4 2.1zm-.7 1.5c0 .6.5 1.1 1.1 1.1s1.1-.5 1.1-1.1-.5-1.1-1.1-1.1-1.1.5-1.1 1.1zM53 216.3v.5c.3-.4.6-.6 1-.6s.8.2 1 .7c.3-.5.6-.7 1.2-.7s.7.1.9.4c.2.2.2.4.2 1v2.4h-.6v-2.2c0-.4 0-.6-.1-.7-.1-.2-.4-.3-.6-.3-.5 0-.8.4-.8 1v2.2h-.6v-2.2c0-.4 0-.5-.1-.7-.1-.2-.3-.3-.6-.3-.5 0-.9.4-.9 1v2.2h-.6v-3.7h.6zM60.6 217.4v.4h-2l1.2-1.6c.3-.5.4-.6.4-.8 0-.3-.2-.4-.5-.4s-.5.2-.5.6h-.4c0-.6.4-1 1-1s1 .3 1 .8-.1.5-.4.9l-.8 1.1h1.1zM132.7 9.4c1.1 0 1.7.5 1.7 1.4s-.1.6-.3.9c-.1.2-.3.2-.5.3.3 0 .4.1.6.2.3.2.4.6.4 1s-.2.9-.6 1.2c-.3.2-.7.3-1.3.3h-1.5V9.4h1.5zm-.8 2.4h.7c.4 0 .7 0 .9-.2.2-.2.3-.4.3-.7s-.2-.6-.4-.8c-.2 0-.4-.1-.9-.1h-.6v1.8zm0 2.4h.7c.6 0 .8 0 1-.2.3-.1.4-.4.4-.8 0-.6-.4-.9-1.2-.9h-.8v1.8zM138.6 11h.6v3.7h-.6V14c-.4.6-.8.8-1.3.8-1 0-1.7-.8-1.7-1.9s.7-1.9 1.8-1.9 1 .2 1.3.7v-.6zm-2.1.9c-.2.3-.3.6-.3 1 0 .8.5 1.4 1.2 1.4s1.3-.6 1.3-1.4-.5-1.4-1.2-1.4-.7.1-.9.4zM140.6 14.7V9.4h.6v5.3h-.6zM143.2 14.7h-.6V9.4h.6v3.3l1.5-1.6h.8l-1.6 1.8 1.6 1.9h-.8l-1.5-1.6v1.6zM149.6 12.9c0 1.1-.8 1.9-1.9 1.9s-1.9-.8-1.9-1.9.8-1.9 1.9-1.9 1.9.8 1.9 1.9zm-3.1 0c0 .8.5 1.4 1.3 1.4s1.2-.6 1.2-1.4-.5-1.4-1.2-1.4-1.3.6-1.3 1.4zM151.3 11v.5c.3-.4.6-.6 1.1-.6s.6.1.9.3c.2.2.3.5.3 1v2.5h-.6v-2.4c0-.3 0-.5-.1-.6-.1-.2-.3-.2-.6-.2s-.5.1-.7.3c-.2.2-.2.4-.2.7v2.2h-.6V11h.6zM132.2 20.6c.2 0 .3-.1.5-.1.9 0 1.6.7 1.6 1.6s-.8 1.7-1.7 1.7-1.7-.8-1.7-1.7.1-.7.4-1.2l1.5-2.5h.7l-1.4 2.1zm-.7 1.5c0 .6.5 1.1 1.1 1.1s1.1-.5 1.1-1.1-.5-1.1-1.1-1.1-1.1.5-1.1 1.1zM136.1 23.4c0 .2-.2.4-.4.4s-.4-.2-.4-.4.2-.4.4-.4.4.2.4.4zM140.4 22.1c0 .6-.1 1-.4 1.2-.3.3-.7.4-1.2.4s-1-.2-1.2-.5c-.3-.3-.4-.6-.4-1.4V20c0-.7 0-1 .3-1.3.3-.3.7-.5 1.2-.5s.9.1 1.2.4c.3.3.4.6.4 1.2v2.1zm-2.5-.1c0 .6 0 .7.2.9.2.2.5.3.8.3s.6-.1.8-.4c.1-.2.2-.4.2-.8v-2c0-.4 0-.6-.3-.8-.2-.2-.4-.2-.7-.2s-.6.1-.8.4c-.1.2-.2.4-.2.8V22zM143.7 20v.5c.3-.4.6-.6 1-.6s.8.2 1 .7c.3-.5.6-.7 1.2-.7s.7.1.9.4c.2.2.2.4.2 1v2.4h-.6v-2.2c0-.4 0-.6-.1-.7-.1-.2-.4-.3-.6-.3-.5 0-.8.4-.8 1v2.2h-.6v-2.2c0-.4 0-.5-.1-.7-.1-.2-.3-.3-.6-.3-.5 0-.9.4-.9 1v2.2h-.6V20h.6zM151.3 21.2v.4h-2l1.2-1.6c.3-.5.4-.6.4-.8 0-.3-.2-.4-.5-.4s-.5.2-.5.6h-.4c0-.6.4-1 1-1s1 .3 1 .8-.1.5-.4.9l-.8 1.1h1.1z"/><g><path d="M239.1 412.6c1.1 0 1.7.5 1.7 1.4s-.1.6-.3.9c-.1.2-.3.2-.5.3.3 0 .4.1.6.2.3.2.4.6.4 1s-.2.9-.6 1.2c-.3.2-.7.3-1.3.3h-1.5v-5.3h1.5zm-.8 2.4h.7c.4 0 .7 0 .9-.2.2-.2.3-.4.3-.7s-.2-.6-.4-.8c-.2 0-.4-.1-.9-.1h-.6v1.8zm0 2.4h.7c.6 0 .8 0 1-.2.3-.1.4-.4.4-.8 0-.6-.4-.9-1.2-.9h-.8v1.8zM245 414.2h.6v3.7h-.6v-.7c-.4.6-.8.8-1.3.8-1 0-1.7-.8-1.7-1.9s.7-1.9 1.8-1.9 1 .2 1.3.7v-.6zm-2.1.9c-.2.3-.3.6-.3 1 0 .8.5 1.4 1.2 1.4s1.3-.6 1.3-1.4-.5-1.4-1.2-1.4-.7.1-.9.4zM246.9 417.9v-5.3h.6v5.3h-.6zM249.5 417.9h-.6v-5.3h.6v3.3l1.5-1.6h.8l-1.6 1.8 1.6 1.9h-.8l-1.5-1.6v1.6zM255.9 416.1c0 1.1-.8 1.9-1.9 1.9s-1.9-.8-1.9-1.9.8-1.9 1.9-1.9 1.9.8 1.9 1.9zm-3.1 0c0 .8.5 1.4 1.3 1.4s1.2-.6 1.2-1.4-.5-1.4-1.2-1.4-1.3.6-1.3 1.4zM257.6 414.2v.5c.3-.4.6-.6 1.1-.6s.6.1.9.3c.2.2.3.5.3 1v2.5h-.6v-2.4c0-.3 0-.5-.1-.6-.1-.2-.3-.2-.6-.2s-.5.1-.7.3c-.2.2-.2.4-.2.7v2.2h-.6v-3.7h.6zM239.9 422.2h-1.7v1.4c.3-.1.5-.2.8-.2.9 0 1.6.7 1.6 1.7s-.8 1.8-1.8 1.8-1.3-.4-1.6-1.1l.6-.2c.1.2.2.3.3.4.2.2.5.3.8.3.6 0 1.1-.5 1.1-1.2s-.5-1.1-1.2-1.1-.8.2-1.2.5v-3h2.3v.6zM242.4 426.6c0 .2-.2.4-.4.4s-.4-.2-.4-.4.2-.4.4-.4.4.2.4.4zM246.7 425.3c0 .6-.1 1-.4 1.2-.3.3-.7.4-1.2.4s-1-.2-1.2-.5c-.3-.3-.4-.6-.4-1.4v-1.8c0-.7 0-1 .3-1.3.3-.3.7-.5 1.2-.5s.9.1 1.2.4c.3.3.4.6.4 1.2v2.1zm-2.5-.1c0 .6 0 .7.2.9.2.2.5.3.8.3s.6-.1.8-.4c.1-.2.2-.4.2-.8v-2c0-.4 0-.6-.3-.8-.2-.2-.4-.2-.7-.2s-.6.1-.8.4c-.1.2-.2.4-.2.8v1.8zM250.1 423.2v.5c.3-.4.6-.6 1-.6s.8.2 1 .7c.3-.5.6-.7 1.2-.7s.7.1.9.4c.2.2.2.4.2 1v2.4h-.6v-2.2c0-.4 0-.6-.1-.7-.1-.2-.4-.3-.6-.3-.5 0-.8.4-.8 1v2.2h-.6v-2.2c0-.4 0-.5-.1-.7-.1-.2-.3-.3-.6-.3-.5 0-.9.4-.9 1v2.2h-.6v-3.7h.6zM257.6 424.4v.4h-2l1.2-1.6c.3-.5.4-.6.4-.8 0-.3-.2-.4-.5-.4s-.5.2-.5.6h-.4c0-.6.4-1 1-1s1 .3 1 .8-.1.5-.4.9l-.8 1.1h1.1z"/></g><g><path d="M233.2 268v.6h-2.5v-5.3h.7v4.7h1.9zM234.9 263.9c0 .2-.2.4-.4.4s-.4-.2-.4-.4.2-.4.4-.4.4.2.4.4zm0 4.7h-.6v-3.7h.6v3.7zM236.8 268.6h-.6v-3.2h-.5v-.5h.5v-.5c0-.7.4-1.2 1-1.2h.2v.5c-.4 0-.6.2-.6.6v.5h.6v.5h-.6v3.2zM239.2 267.8c0 .2 0 .2.3.2h.3v.5h-.6c-.4 0-.6-.2-.6-.6v-2.6h-.5v-.5h.5v-1.2h.6v1.2h.6v.5h-.6v2.4z"/></g><g><path d="M185.7 273.9h2.1v.6h-2.1v1.8h2.1v.6H185v-5.3h2.8v.6h-2.1v1.8zM189.6 273.2v.5c.3-.4.6-.6 1.1-.6s.6.1.9.3c.2.2.3.5.3 1v2.5h-.6v-2.4c0-.3 0-.5-.1-.6-.1-.2-.3-.2-.6-.2s-.5.1-.7.3c-.2.2-.2.4-.2.7v2.2h-.6v-3.7h.6zM193.9 276.1c0 .2 0 .2.3.2h.3v.5h-.6c-.4 0-.6-.2-.6-.6v-2.6h-.5v-.5h.5v-1.2h.6v1.2h.6v.5h-.6v2.4zM196.1 273.2v.6c.1-.3.2-.4.3-.5.2-.1.4-.2.7-.2h.1v.6h-.2c-.3 0-.6.2-.8.4-.2.2-.2.4-.2.9v1.9h-.6v-3.7h.6zM198.5 275.2c0 .3 0 .5.2.7.2.3.6.5 1 .5s.9-.2 1.1-.6l.5.2c-.3.6-.9 1-1.6 1-1.1 0-1.9-.8-1.9-1.9s.8-1.9 1.9-1.9 1.9.8 1.9 1.9v.2h-3.1zm2.4-.4c0-.3 0-.4-.2-.6-.2-.3-.6-.5-1-.5s-.8.2-1 .5c-.1.2-.2.3-.2.6h2.4zm-.2-3.2l-.9 1.1h-.4l.7-1.1h.7zM203.1 275.2c0 .3 0 .5.2.7.2.3.6.5 1 .5s.9-.2 1.1-.6l.5.2c-.3.6-.9 1-1.6 1-1.1 0-1.9-.8-1.9-1.9s.8-1.9 1.9-1.9 1.9.8 1.9 1.9v.2h-3.1zm2.4-.4c0-.3 0-.4-.2-.6-.2-.3-.6-.5-1-.5s-.8.2-1 .5c-.1.2-.2.3-.2.6h2.4zM185.1 281.2v-.6h3l-2.1 5.3h-.7l1.9-4.7h-2zM189.3 285.5c0 .2-.2.4-.4.4s-.4-.2-.4-.4.2-.4.4-.4.4.2.4.4zM190.2 284.7v-.5l2.8-3.7v3.6h.6v.6h-.6v1.2h-.6v-1.2h-2.1zm2.1-2.6l-1.5 2h1.5v-2zM196.8 282.2v.5c.3-.4.6-.6 1-.6s.8.2 1 .7c.3-.5.6-.7 1.2-.7s.7.1.9.4c.2.2.2.4.2 1v2.4h-.6v-2.2c0-.4 0-.6-.1-.7-.1-.2-.4-.3-.6-.3-.5 0-.8.4-.8 1v2.2h-.6v-2.2c0-.4 0-.5-.1-.7-.1-.2-.3-.3-.6-.3-.5 0-.9.4-.9 1v2.2h-.6v-3.7h.6zM204.4 283.4v.4h-2l1.2-1.6c.3-.5.4-.6.4-.8 0-.3-.2-.4-.5-.4s-.5.2-.5.6h-.4c0-.6.4-1 1-1s1 .3 1 .8-.1.5-.4.9l-.8 1.1h1.1z"/></g><g><path d="M164.4 136.3h.7l-1.6 5.3h-.6l-1.2-4.2-1.2 4.2h-.6l-1.6-5.3h.7l1.2 4.1 1.2-4.1h.6l1.1 4.1 1.2-4.1zM169.3 139.8c0 1.1-.8 1.9-1.9 1.9s-1.9-.8-1.9-1.9.8-1.9 1.9-1.9 1.9.8 1.9 1.9zm-3.1 0c0 .8.5 1.4 1.3 1.4s1.2-.6 1.2-1.4-.5-1.4-1.2-1.4-1.3.6-1.3 1.4zM171 138.5c.3-.4.7-.6 1.1-.6s.7.1.9.3c.2.2.3.5.3 1v2.5h-.6v-2.4c0-.5-.2-.8-.7-.8s-.5.1-.7.3c-.2.2-.2.4-.2.7v2.2h-.6v-5.3h.6v2.2zM175.2 138v.5c.3-.4.6-.6 1.1-.6s.6.1.9.3c.2.2.3.5.3 1v2.5h-.6v-2.4c0-.3 0-.5-.1-.6-.1-.2-.3-.2-.6-.2s-.5.1-.7.3c-.2.2-.2.4-.2.7v2.2h-.6V138h.6zM179.2 140c0 .3 0 .5.2.7.2.3.6.5 1 .5s.9-.2 1.1-.6l.5.2c-.3.6-.9 1-1.6 1-1.1 0-1.9-.8-1.9-1.9s.8-1.9 1.9-1.9 1.9.8 1.9 1.9v.2h-3.1zm2.4-.4c0-.3 0-.4-.2-.6-.2-.3-.6-.5-1-.5s-.8.2-1 .5c-.1.2-.2.3-.2.6h2.4zM183.9 138v.5c.3-.4.6-.6 1.1-.6s.6.1.9.3c.2.2.3.5.3 1v2.5h-.6v-2.4c0-.3 0-.5-.1-.6-.1-.2-.3-.2-.6-.2s-.5.1-.7.3c-.2.2-.2.4-.2.7v2.2h-.6V138h.6zM159.2 147.1v-.6l1.8-1.2v5.4h-.6v-4.4l-1.2.8zM165.2 145.9h-1.7v1.4c.3-.1.5-.2.8-.2.9 0 1.6.7 1.6 1.7s-.8 1.8-1.8 1.8-1.3-.4-1.6-1.1l.6-.2c.1.2.2.3.3.4.2.2.5.3.8.3.6 0 1.1-.5 1.1-1.2s-.5-1.1-1.2-1.1-.8.2-1.2.5v-3h2.3v.6zM167.7 150.3c0 .2-.2.4-.4.4s-.4-.2-.4-.4.2-.4.4-.4.4.2.4.4zM170.1 147.6c.2 0 .3-.1.5-.1.9 0 1.6.7 1.6 1.6s-.8 1.7-1.7 1.7-1.7-.8-1.7-1.7.1-.7.4-1.2l1.5-2.5h.7l-1.4 2.1zm-.7 1.5c0 .6.5 1.1 1.1 1.1s1.1-.5 1.1-1.1-.5-1.1-1.1-1.1-1.1.5-1.1 1.1zM176.2 147v.5c.3-.4.6-.6 1-.6s.8.2 1 .7c.3-.5.6-.7 1.2-.7s.7.1.9.4c.2.2.2.4.2 1v2.4h-.6v-2.2c0-.4 0-.6-.1-.7-.1-.2-.4-.3-.6-.3-.5 0-.8.4-.8 1v2.2h-.6v-2.2c0-.4 0-.5-.1-.7-.1-.2-.3-.3-.6-.3-.5 0-.9.4-.9 1v2.2h-.6V147h.6zM183.8 148.2v.4h-2l1.2-1.6c.3-.5.4-.6.4-.8 0-.3-.2-.4-.5-.4s-.5.2-.5.6h-.4c0-.6.4-1 1-1s1 .3 1 .8-.1.5-.4.9l-.8 1.1h1.1z"/></g><g><path d="M251.7 141.8v.6h-3.8l3-4.8h-2.7v-.6h3.8l-3 4.8h2.7zM253.6 137.7c0 .2-.2.4-.4.4s-.4-.2-.4-.4.2-.4.4-.4.4.2.4.4zm0 4.7h-.6v-3.7h.6v3.7zM255.5 138.7v.5c.3-.4.6-.6 1-.6s.8.2 1 .7c.3-.5.6-.7 1.2-.7s.7.1.9.4c.2.2.2.4.2 1v2.4h-.6v-2.2c0-.4 0-.6-.1-.7-.1-.2-.4-.3-.6-.3-.5 0-.8.4-.8 1v2.2h-.6v-2.2c0-.4 0-.5-.1-.7-.1-.2-.3-.3-.6-.3-.5 0-.9.4-.9 1v2.2h-.6v-3.7h.6zM261.8 138.7v.5c.3-.4.6-.6 1-.6s.8.2 1 .7c.3-.5.6-.7 1.2-.7s.7.1.9.4c.2.2.2.4.2 1v2.4h-.6v-2.2c0-.4 0-.6-.1-.7-.1-.2-.4-.3-.6-.3-.5 0-.8.4-.8 1v2.2h-.6v-2.2c0-.4 0-.5-.1-.7-.1-.2-.3-.3-.6-.3-.5 0-.9.4-.9 1v2.2h-.6v-3.7h.6zM267.9 140.7c0 .3 0 .5.2.7.2.3.6.5 1 .5s.9-.2 1.1-.6l.5.2c-.3.6-.9 1-1.6 1-1.1 0-1.9-.8-1.9-1.9s.8-1.9 1.9-1.9 1.9.8 1.9 1.9v.2h-3.1zm2.4-.4c0-.3 0-.4-.2-.6-.2-.3-.6-.5-1-.5s-.8.2-1 .5c-.1.2-.2.3-.2.6h2.4zM272.6 138.7v.6c.1-.3.2-.4.3-.5.2-.1.4-.2.7-.2h.1v.6h-.2c-.3 0-.6.2-.8.4-.2.2-.2.4-.2.9v1.9h-.6v-3.7h.6zM248.7 147.8v-.6l1.8-1.2v5.4h-.6V147l-1.2.8zM252.2 146.7v-.6h3l-1.6 2c.9 0 1.6.7 1.6 1.6s-.8 1.7-1.8 1.7-1.4-.5-1.6-1.3h.6c.1.4.5.7 1 .7s1.2-.5 1.2-1.1-.5-1.1-1.2-1.1-.4 0-.6.2l-.3-.2 1.5-1.9h-1.9zM257.1 151c0 .2-.2.4-.4.4s-.4-.2-.4-.4.2-.4.4-.4.4.2.4.4zM258.1 150.2v-.5l2.8-3.7v3.6h.6v.6h-.6v1.2h-.6v-1.2h-2.1zm2.1-2.6l-1.5 2h1.5v-2zM265.5 147.7v.5c.3-.4.6-.6 1-.6s.8.2 1 .7c.3-.5.6-.7 1.2-.7s.7.1.9.4c.2.2.2.4.2 1v2.4h-.6v-2.2c0-.4 0-.6-.1-.7-.1-.2-.4-.3-.6-.3-.5 0-.8.4-.8 1v2.2h-.6v-2.2c0-.4 0-.5-.1-.7-.1-.2-.3-.3-.6-.3-.5 0-.9.4-.9 1v2.2h-.6v-3.7h.6zM273.1 148.9v.4h-2l1.2-1.6c.3-.5.4-.6.4-.8 0-.3-.2-.4-.5-.4s-.5.2-.5.6h-.4c0-.6.4-1 1-1s1 .3 1 .8-.1.5-.4.9l-.8 1.1h1.1z"/></g><g><path d="M44.1 294v.6h-3.8l3-4.8h-2.7v-.6h3.8l-3 4.8h2.7zM46 289.8c0 .2-.2.4-.4.4s-.4-.2-.4-.4.2-.4.4-.4.4.2.4.4zm0 4.7h-.6v-3.7h.6v3.7zM47.9 290.9v.5c.3-.4.6-.6 1-.6s.8.2 1 .7c.3-.5.6-.7 1.2-.7s.7.1.9.4c.2.2.2.4.2 1v2.4h-.6v-2.2c0-.4 0-.6-.1-.7-.1-.2-.4-.3-.6-.3-.5 0-.8.4-.8 1v2.2h-.6v-2.2c0-.4 0-.5-.1-.7-.1-.2-.3-.3-.6-.3-.5 0-.9.4-.9 1v2.2h-.6v-3.7h.6zM54.2 290.9v.5c.3-.4.6-.6 1-.6s.8.2 1 .7c.3-.5.6-.7 1.2-.7s.7.1.9.4c.2.2.2.4.2 1v2.4h-.6v-2.2c0-.4 0-.6-.1-.7-.1-.2-.4-.3-.6-.3-.5 0-.8.4-.8 1v2.2h-.6v-2.2c0-.4 0-.5-.1-.7-.1-.2-.3-.3-.6-.3-.5 0-.9.4-.9 1v2.2h-.6v-3.7h.6zM60.3 292.9c0 .3 0 .5.2.7.2.3.6.5 1 .5s.9-.2 1.1-.6l.5.2c-.3.6-.9 1-1.6 1-1.1 0-1.9-.8-1.9-1.9s.8-1.9 1.9-1.9 1.9.8 1.9 1.9v.2h-3.1zm2.4-.4c0-.3 0-.4-.2-.6-.2-.3-.6-.5-1-.5s-.8.2-1 .5c-.1.2-.2.3-.2.6h2.4zM65 290.9v.6c.1-.3.2-.4.3-.5.2-.1.4-.2.7-.2h.1v.6h-.2c-.3 0-.6.2-.8.4-.2.2-.2.4-.2.9v1.9h-.6v-3.7h.6zM41.1 300v-.6l1.8-1.2v5.4h-.6v-4.4l-1.2.8zM44.3 302.4v-.5l2.8-3.7v3.6h.6v.6h-.6v1.2h-.6v-1.2h-2.1zm2.1-2.6l-1.5 2h1.5v-2zM49.5 303.2c0 .2-.2.4-.4.4s-.4-.2-.4-.4.2-.4.4-.4.4.2.4.4zM50.5 300v-.6l1.8-1.2v5.4h-.6v-4.4l-1.2.8zM57.3 299.9v.5c.3-.4.6-.6 1-.6s.8.2 1 .7c.3-.5.6-.7 1.2-.7s.7.1.9.4c.2.2.2.4.2 1v2.4H61v-2.2c0-.4 0-.6-.1-.7-.1-.2-.4-.3-.6-.3-.5 0-.8.4-.8 1v2.2h-.6v-2.2c0-.4 0-.5-.1-.7-.1-.2-.3-.3-.6-.3-.5 0-.9.4-.9 1v2.2h-.6v-3.7h.6zM64.9 301v.4h-2l1.2-1.6c.3-.5.4-.6.4-.8 0-.3-.2-.4-.5-.4s-.5.2-.5.6h-.4c0-.6.4-1 1-1s1 .3 1 .8-.1.5-.4.9l-.8 1.1H65z"/></g><g><path d="M122.4 267.1h-.7v-5.3h1.5c1.1 0 1.8.6 1.8 1.6s-.3 1.1-.8 1.3c-.3.1-.5.2-1 .2l2.1 2.2h-.9l-2.1-2.2v2.2zm.7-2.7c.8 0 1.2-.4 1.2-1s-.4-1-1.1-1h-.8v2.1h.7zM126.6 265.4c0 .3 0 .5.2.7.2.3.6.5 1 .5s.9-.2 1.1-.6l.5.2c-.3.6-.9 1-1.6 1-1.1 0-1.9-.8-1.9-1.9s.8-1.9 1.9-1.9 1.9.8 1.9 1.9v.2h-3.1zm2.4-.4c0-.3 0-.4-.2-.6-.2-.3-.6-.5-1-.5s-.8.2-1 .5c-.1.2-.2.3-.2.6h2.4zM133.5 261.7h.6v5.3h-.6v-.6c-.4.5-.8.7-1.3.7-1 0-1.7-.8-1.7-1.9s.7-2 1.7-2 1 .2 1.3.6v-2.2zm-2.4 3.5c0 .8.5 1.4 1.2 1.4s1.2-.6 1.2-1.4-.5-1.4-1.2-1.4-1.2.6-1.2 1.4zM138.3 263.4v2.4c0 .5 0 .8-.4 1-.3.2-.6.4-1.1.4s-.8-.1-1.1-.4c-.2-.2-.4-.6-.4-1v-2.4h.6v2.3c0 .5.3.9.8.9s.5-.1.7-.3c.1-.1.2-.3.2-.6v-2.4h.6zM140.3 262.4c0 .2-.2.4-.4.4s-.4-.2-.4-.4.2-.4.4-.4.4.2.4.4zm0 4.7h-.6v-3.7h.6v3.7zM142.2 266.3c0 .2 0 .2.3.2h.3v.5h-.6c-.4 0-.6-.2-.6-.6v-2.6h-.5v-.5h.5v-1.2h.6v1.2h.6v.5h-.6v2.4zM122 272.5v-.6l1.8-1.2v5.4h-.6v-4.4l-1.2.8zM126.4 275.7c0 .2-.2.4-.4.4s-.4-.2-.4-.4.2-.4.4-.4.4.2.4.4zM127.7 271.4v-.6h3l-1.6 2c.9 0 1.6.7 1.6 1.6s-.8 1.7-1.8 1.7-1.4-.5-1.6-1.3h.6c.1.4.5.7 1 .7s1.2-.5 1.2-1.1-.5-1.1-1.2-1.1-.4 0-.6.2l-.3-.2 1.5-1.9h-1.9zM134.9 272.4v.5c.3-.4.6-.6 1-.6s.8.2 1 .7c.3-.5.6-.7 1.2-.7s.7.1.9.4c.2.2.2.4.2 1v2.4h-.6v-2.2c0-.4 0-.6-.1-.7-.1-.2-.4-.3-.6-.3-.5 0-.8.4-.8 1v2.2h-.6v-2.2c0-.4 0-.5-.1-.7-.1-.2-.3-.3-.6-.3-.5 0-.9.4-.9 1v2.2h-.6v-3.7h.6zM142.5 273.6v.4h-2l1.2-1.6c.3-.5.4-.6.4-.8 0-.3-.2-.4-.5-.4s-.5.2-.5.6h-.4c0-.6.4-1 1-1s1 .3 1 .8-.1.5-.4.9l-.8 1.1h1.1z"/></g><g><path d="M44 126.5v.6h-3.8l3-4.8h-2.7v-.6h3.8l-3 4.8H44zM45.9 122.3c0 .2-.2.4-.4.4s-.4-.2-.4-.4.2-.4.4-.4.4.2.4.4zm0 4.7h-.6v-3.7h.6v3.7zM47.8 123.3v.5c.3-.4.6-.6 1-.6s.8.2 1 .7c.3-.5.6-.7 1.2-.7s.7.1.9.4c.2.2.2.4.2 1v2.4h-.6v-2.2c0-.4 0-.6-.1-.7-.1-.2-.4-.3-.6-.3-.5 0-.8.4-.8 1v2.2h-.6v-2.2c0-.4 0-.5-.1-.7-.1-.2-.3-.3-.6-.3-.5 0-.9.4-.9 1v2.2h-.6v-3.7h.6zM54.1 123.3v.5c.3-.4.6-.6 1-.6s.8.2 1 .7c.3-.5.6-.7 1.2-.7s.7.1.9.4c.2.2.2.4.2 1v2.4h-.6v-2.2c0-.4 0-.6-.1-.7-.1-.2-.4-.3-.6-.3-.5 0-.8.4-.8 1v2.2h-.6v-2.2c0-.4 0-.5-.1-.7-.1-.2-.3-.3-.6-.3-.5 0-.9.4-.9 1v2.2h-.6v-3.7h.6zM60.2 125.4c0 .3 0 .5.2.7.2.3.6.5 1 .5s.9-.2 1.1-.6l.5.2c-.3.6-.9 1-1.6 1-1.1 0-1.9-.8-1.9-1.9s.8-1.9 1.9-1.9 1.9.8 1.9 1.9v.2h-3.1zm2.4-.4c0-.3 0-.4-.2-.6-.2-.3-.6-.5-1-.5s-.8.2-1 .5c-.1.2-.2.3-.2.6h2.4zM64.9 123.3v.6c.1-.3.2-.4.3-.5.2-.1.4-.2.7-.2h.1v.6h-.2c-.3 0-.6.2-.8.4-.2.2-.2.4-.2.9v1.9h-.6v-3.7h.6zM41 132.4v-.6l1.8-1.2v5.4h-.6v-4.4l-1.2.8zM44.5 131.4v-.6h3l-1.6 2c.9 0 1.6.7 1.6 1.6s-.8 1.7-1.8 1.7-1.4-.5-1.6-1.3h.6c.1.4.5.7 1 .7s1.2-.5 1.2-1.1-.5-1.1-1.2-1.1-.4 0-.6.2l-.3-.2 1.5-1.9h-1.9zM49.4 135.7c0 .2-.2.4-.4.4s-.4-.2-.4-.4.2-.4.4-.4.4.2.4.4zM53.5 135.4v.6h-3l1.9-2.7c.5-.8.7-1 .7-1.3 0-.5-.4-.8-.9-.8s-.7.2-.8.4v.6h-.6c0-1 .6-1.6 1.5-1.6s1.5.5 1.5 1.3-.2.8-.6 1.5l-1.4 2h1.9zM57.1 132.3v.5c.3-.4.6-.6 1-.6s.8.2 1 .7c.3-.5.6-.7 1.2-.7s.7.1.9.4c.2.2.2.4.2 1v2.4h-.6v-2.2c0-.4 0-.6-.1-.7-.1-.2-.4-.3-.6-.3-.5 0-.8.4-.8 1v2.2h-.6v-2.2c0-.4 0-.5-.1-.7-.1-.2-.3-.3-.6-.3-.5 0-.9.4-.9 1v2.2h-.6v-3.7h.6zM64.7 133.5v.4h-2l1.2-1.6c.3-.5.4-.6.4-.8 0-.3-.2-.4-.5-.4s-.5.2-.5.6h-.4c0-.6.4-1 1-1s1 .3 1 .8-.1.5-.4.9l-.8 1.1h1.1z"/></g><g><path d="M139.7 324.1h-.7v-5.3h.7v2.5l2.1-2.5h.8l-2.2 2.6 2.2 2.7h-.9l-2-2.5v2.5zM146.7 322.2c0 1.1-.8 1.9-1.9 1.9s-1.9-.8-1.9-1.9.8-1.9 1.9-1.9 1.9.8 1.9 1.9zm-3.1 0c0 .8.5 1.4 1.3 1.4s1.2-.6 1.2-1.4-.5-1.4-1.2-1.4-1.3.6-1.3 1.4zM150.7 323.6c-.4.4-.8.5-1.4.5-1.1 0-1.8-.8-1.8-1.9s.8-1.9 1.8-1.9 1 .2 1.3.6l-.4.4c-.3-.3-.6-.4-.9-.4-.7 0-1.2.6-1.2 1.4s.5 1.4 1.2 1.4.6-.1.9-.4l.4.4zM152.3 320.9c.3-.4.7-.6 1.1-.6s.7.1.9.3c.2.2.3.5.3 1v2.5h-.6v-2.4c0-.5-.2-.8-.7-.8s-.5.1-.7.3c-.2.2-.2.4-.2.7v2.2h-.6v-5.3h.6v2.2zM156.3 322.4c0 .3 0 .5.2.7.2.3.6.5 1 .5s.9-.2 1.1-.6l.5.2c-.3.6-.9 1-1.6 1-1.1 0-1.9-.8-1.9-1.9s.8-1.9 1.9-1.9 1.9.8 1.9 1.9v.2h-3.1zm2.4-.4c0-.3 0-.4-.2-.6-.2-.3-.6-.5-1-.5s-.8.2-1 .5c-.1.2-.2.3-.2.6h2.4zM161 320.4v.5c.3-.4.6-.6 1.1-.6s.6.1.9.3c.2.2.3.5.3 1v2.5h-.6v-2.4c0-.3 0-.5-.1-.6-.1-.2-.3-.2-.6-.2s-.5.1-.7.3c-.2.2-.2.4-.2.7v2.2h-.6v-3.7h.6zM164.6 325.3h-.4l.7-2.1.6.2-.8 1.9zM169.7 321.1h2.1v.6h-2.1v1.8h2.1v.6H169v-5.3h2.8v.6h-2.1v1.8zM174.7 321.4c0-.4-.3-.6-.7-.6s-.7.2-.7.5.2.4.8.6c.5.1.7.2.9.4s.3.4.3.7c0 .6-.5 1.1-1.3 1.1s-1.3-.4-1.4-1.1h.6c0 .4.3.6.8.6s.7-.2.7-.5-.2-.5-.8-.6c-.8-.2-1.2-.6-1.2-1.1s.5-1.1 1.3-1.1 1.3.4 1.3 1.1h-.6zM178.3 321.4c0-.4-.3-.6-.7-.6s-.7.2-.7.5.2.4.8.6c.5.1.7.2.9.4s.3.4.3.7c0 .6-.5 1.1-1.3 1.1s-1.3-.4-1.4-1.1h.6c0 .4.3.6.8.6s.7-.2.7-.5-.2-.5-.8-.6c-.8-.2-1.2-.6-1.2-1.1s.5-1.1 1.3-1.1 1.3.4 1.3 1.1h-.6zM180.4 322.4c0 .3 0 .5.2.7.2.3.6.5 1 .5s.9-.2 1.1-.6l.5.2c-.3.6-.9 1-1.6 1-1.1 0-1.9-.8-1.9-1.9s.8-1.9 1.9-1.9 1.9.8 1.9 1.9v.2h-3.1zm2.4-.4c0-.3 0-.4-.2-.6-.2-.3-.6-.5-1-.5s-.8.2-1 .5c-.1.2-.2.3-.2.6h2.4zM185.2 320.4v.5c.3-.4.6-.6 1.1-.6s.6.1.9.3c.2.2.3.5.3 1v2.5h-.6v-2.4c0-.3 0-.5-.1-.6-.1-.2-.3-.2-.6-.2s-.5.1-.7.3c-.2.2-.2.4-.2.7v2.2h-.6v-3.7h.6zM141.7 332.5v.6h-3l1.9-2.7c.5-.8.7-1 .7-1.3 0-.5-.4-.8-.9-.8s-.7.2-.8.4v.6h-.6c0-1 .6-1.6 1.5-1.6s1.5.5 1.5 1.3-.2.8-.6 1.5l-1.4 2h1.9zM143.2 329.5v-.6l1.8-1.2v5.4h-.6v-4.4l-1.2.8zM147.5 332.7c0 .2-.2.4-.4.4s-.4-.2-.4-.4.2-.4.4-.4.4.2.4.4zM150.3 330.9c-.2 0-.3.1-.5.1-.9 0-1.6-.7-1.6-1.6s.8-1.7 1.7-1.7 1.7.7 1.7 1.7-.1.7-.4 1.2l-1.5 2.5h-.7l1.3-2.1zm-1.5-1.5c0 .6.5 1.1 1.1 1.1s1.1-.5 1.1-1.1-.5-1.1-1-1.1-1.1.5-1.1 1.1zM154.8 329.4v.5c.3-.4.6-.6 1-.6s.8.2 1 .7c.3-.5.6-.7 1.2-.7s.7.1.9.4c.2.2.2.4.2 1v2.4h-.6v-2.2c0-.4 0-.6-.1-.7-.1-.2-.4-.3-.6-.3-.5 0-.8.4-.8 1v2.2h-.6v-2.2c0-.4 0-.5-.1-.7-.1-.2-.3-.3-.6-.3-.5 0-.9.4-.9 1v2.2h-.6v-3.7h.6zM162.4 330.6v.4h-2l1.2-1.6c.3-.5.4-.6.4-.8 0-.3-.2-.4-.5-.4s-.5.2-.5.6h-.4c0-.6.4-1 1-1s1 .3 1 .8-.1.5-.4.9l-.8 1.1h1.1z"/></g><g><path d="M124.7 209.3c1.1 0 1.7.5 1.7 1.4s-.1.6-.3.9c-.1.2-.3.2-.5.3.3 0 .4.1.6.2.3.2.4.6.4 1s-.2.9-.6 1.2c-.3.2-.7.3-1.3.3h-1.5v-5.3h1.5zm-.8 2.4h.7c.4 0 .7 0 .9-.2.2-.2.3-.4.3-.7s-.2-.6-.4-.8c-.2 0-.4-.1-.9-.1h-.6v1.8zm0 2.4h.7c.6 0 .8 0 1-.2.3-.1.4-.4.4-.8 0-.6-.4-.9-1.2-.9h-.8v1.8zM130.6 211h.6v3.7h-.6v-.7c-.4.6-.8.8-1.3.8-1 0-1.7-.8-1.7-1.9s.7-1.9 1.8-1.9 1 .2 1.3.7v-.6zm-2.1.9c-.2.3-.3.6-.3 1 0 .8.5 1.4 1.2 1.4s1.3-.6 1.3-1.4-.5-1.4-1.2-1.4-.7.1-.9.4zM135.4 209.3h.6v5.3h-.6v-.6c-.4.5-.8.7-1.3.7-1 0-1.7-.8-1.7-1.9s.7-2 1.7-2 1 .2 1.3.6v-2.2zm-2.4 3.5c0 .8.5 1.4 1.2 1.4s1.2-.6 1.2-1.4-.5-1.4-1.2-1.4-1.2.6-1.2 1.4zM123.1 219v-.6h3l-1.6 2c.9 0 1.6.7 1.6 1.6s-.8 1.7-1.8 1.7-1.4-.5-1.6-1.3h.6c.1.4.5.7 1 .7s1.2-.5 1.2-1.1-.5-1.1-1.2-1.1-.4 0-.6.2l-.3-.2 1.5-1.9H123zM128 223.3c0 .2-.2.4-.4.4s-.4-.2-.4-.4.2-.4.4-.4.4.2.4.4zM132 221.1c.3.3.4.6.4 1 0 .9-.7 1.6-1.7 1.6s-1.6-.6-1.6-1.6.1-.8.4-1.1c.2-.2.3-.3.6-.4-.3 0-.4-.2-.5-.4-.2-.2-.3-.5-.3-.8 0-.8.6-1.3 1.5-1.3s1.4.6 1.4 1.3-.1.6-.3.8c-.1.2-.3.2-.5.3.3 0 .4.2.6.3zm-2.3 1c0 .6.5 1 1 1s1-.5 1-1-.5-1-1-1-1 .5-1 1zm.2-2.5c0 .5.4.8.8.8s.9-.4.9-.8-.4-.8-.8-.8-.9.3-.9.8zM136.6 220v.5c.3-.4.6-.6 1-.6s.8.2 1 .7c.3-.5.6-.7 1.2-.7s.7.1.9.4c.2.2.2.4.2 1v2.4h-.6v-2.2c0-.4 0-.6-.1-.7-.1-.2-.4-.3-.6-.3-.5 0-.8.4-.8 1v2.2h-.6v-2.2c0-.4 0-.5-.1-.7-.1-.2-.3-.3-.6-.3-.5 0-.9.4-.9 1v2.2h-.6V220h.6zM144.2 221.2v.4h-2l1.2-1.6c.3-.5.4-.6.4-.8 0-.3-.2-.4-.5-.4s-.5.2-.5.6h-.4c0-.6.4-1 1-1s1 .3 1 .8-.1.5-.4.9l-.8 1.1h1.1z"/></g></g></svg>