<svg xmlns="http://www.w3.org/2000/svg" viewBox="0 0 409.1 439.6"><defs><style>.cls-1{stroke:#646464}.cls-1,.cls-10,.cls-11,.cls-12,.cls-13,.cls-14,.cls-15,.cls-16,.cls-17,.cls-18,.cls-19,.cls-2,.cls-20,.cls-3,.cls-4,.cls-5,.cls-6,.cls-7,.cls-8,.cls-9{fill:none;stroke-linecap:round;stroke-linejoin:round}.cls-1,.cls-10,.cls-11,.cls-12,.cls-13,.cls-14,.cls-18,.cls-2,.cls-20,.cls-3{stroke-width:.1px}.cls-2{stroke-dashoffset:2.5px}.cls-10,.cls-11,.cls-12,.cls-13,.cls-14,.cls-17,.cls-2,.cls-20,.cls-3,.cls-7,.cls-8,.cls-9{stroke-dasharray:0 0 1.4 1.4}.cls-10,.cls-11,.cls-12,.cls-13,.cls-14,.cls-18,.cls-2,.cls-20,.cls-3{stroke:#969696}.cls-21,.cls-22{fill:#fff}.cls-15,.cls-16,.cls-17,.cls-4,.cls-5,.cls-7,.cls-8,.cls-9{stroke-width:.1px}.cls-15,.cls-16,.cls-17,.cls-19,.cls-4,.cls-5,.cls-7,.cls-8,.cls-9{stroke:#194164}.cls-5{stroke-dashoffset:1.9px}.cls-15,.cls-16,.cls-5{stroke-dasharray:0 0 0 0 2.9 1.4 .2 1.4}.cls-6{stroke:#b8b8b8;stroke-width:0}.cls-7{stroke-dashoffset:1px}.cls-8{stroke-dashoffset:.2px}.cls-14,.cls-9{stroke-dashoffset:.7px}.cls-10{stroke-dashoffset:2.4px}.cls-11{stroke-dashoffset:2.7px}.cls-12{stroke-dashoffset:2.5px}.cls-13{stroke-dashoffset:2.6px}.cls-22,.cls-23{fill-rule:evenodd}.cls-15{stroke-dashoffset:4.3px}.cls-19{stroke-width:.3px}.cls-20{stroke-dashoffset:1.2px}</style></defs><g id="Plan"><path class="cls-19" d="M10.6 247.5h29.8v39.6H10.6z"/><path class="cls-4" d="M9 238.6h35.2M27.2 241.5H13.3M39.9 244.6H26M250.6 186.1h-14.1M250.6 186.8h-14.1M250.6 186.8h-14.1M250.6 186.1h-14.1"/><path class="cls-22" d="M95.8 395.8h25.5v-2.7h59.3v2.7h22.7l-7.1 41.9H95.8"/><path class="cls-18" d="M106.2 430.6h10.5M127.5 430.6h10.6M149.1 430.6h10.6M170.5 430.6H181M192.1 430.6h5.3M106.2 423.4h10.5M127.5 423.4h10.6M149.1 423.4h10.6M170.5 423.4H181M192.1 423.4h6.7M106.2 416.2h10.5M127.5 416.2h10.6M149.1 416.2h10.6M170.5 416.2H181M192.1 416.2h7.9M106.2 408.8h10.5M127.5 408.8h10.6M149.1 408.8h10.6M170.5 408.8H181M192.1 408.8h9.1M106.2 401.6h10.5M127.5 401.6h10.6M149.1 401.6h10.6M170.5 401.6H181M192.1 401.6h10.3M127.5 394.4h10.6M149.1 394.4h10.6M170.5 394.4h10.3M106.2 432.3v-1.7M106.2 425.1v-1.7M106.2 417.9v-1.7M106.2 410.7v-1.9M106.2 403.3v-1.7M106.2 396.1v-.3M127.5 432.3v-1.7M127.5 425.1v-1.7M127.5 417.9v-1.7M127.5 410.7v-1.9M127.5 403.3v-1.7M127.5 396.1v-1.7M149.1 432.3v-1.7M149.1 425.1v-1.7M149.1 417.9v-1.7M149.1 410.7v-1.9M149.1 403.3v-1.7M149.1 396.1v-1.7M170.5 432.3v-1.7M170.5 425.1v-1.7M170.5 417.9v-1.7M170.5 410.7v-1.9M170.5 403.3v-1.7M170.5 396.1v-1.7M192.1 432.3v-1.7M192.1 425.1v-1.7M192.1 417.9v-1.7M192.1 410.7v-1.9M192.1 403.3v-1.7M192.1 396.1v-.3M96.1 430.6h9.8M116.7 430.6h10.6M138.1 430.6h10.8M159.7 430.6h10.5M181 430.6h10.8M96.1 423.4h9.8M116.7 423.4h10.6M138.1 423.4h10.8M159.7 423.4h10.5M181 423.4h10.8M96.1 416.2h9.8M116.7 416.2h10.6M138.1 416.2h10.8M159.7 416.2h10.5M181 416.2h10.8M96.1 408.8h9.8M116.7 408.8h10.6M138.1 408.8h10.8M159.7 408.8h10.5M181 408.8h10.8M96.1 401.6h9.8M116.7 401.6h10.6M138.1 401.6h10.8M159.7 401.6h10.5M181 401.6h10.8M121.5 394.4h5.8M138.1 394.4h10.8M159.7 394.4h10.5M105.9 432.3v-1.7M105.9 425.1v-1.7M105.9 417.9v-1.7M105.9 410.7v-1.9M105.9 403.3v-1.7M105.9 396.1v-.3M127.3 432.3v-1.7M127.3 425.1v-1.7M127.3 417.9v-1.7M127.3 410.7v-1.9M127.3 403.3v-1.7M127.3 396.1v-1.7M148.9 432.3v-1.7M148.9 425.1v-1.7M148.9 417.9v-1.7M148.9 410.7v-1.9M148.9 403.3v-1.7M148.9 396.1v-1.7M170.2 432.3v-1.7M170.2 425.1v-1.7M170.2 417.9v-1.7M170.2 410.7v-1.9M170.2 403.3v-1.7M170.2 396.1v-1.7M191.8 432.3v-1.7M191.8 425.1v-1.7M191.8 417.9v-1.7M191.8 410.7v-1.9M191.8 403.3v-1.7M191.8 396.1v-.3M106.2 434h10.5M127.5 434h10.6M149.1 434h10.6M170.5 434H181M192.1 434h4.8M106.2 426.8h10.5M127.5 426.8h10.6M149.1 426.8h10.6M170.5 426.8H181M192.1 426.8h6M106.2 419.6h10.5M127.5 419.6h10.6M149.1 419.6h10.6M170.5 419.6H181M192.1 419.6h7.2M106.2 412.4h10.5M127.5 412.4h10.6M149.1 412.4h10.6M170.5 412.4H181M192.1 412.4h8.6M106.2 405h10.5M127.5 405h10.6M149.1 405h10.6M170.5 405H181M192.1 405h9.8M106.2 397.8h10.5M127.5 397.8h10.6M149.1 397.8h10.6M170.5 397.8H181M192.1 397.8h10.5M106.2 434v-1.7M106.2 426.8v-1.7M106.2 419.6v-1.7M106.2 412.4v-1.7M106.2 405v-1.7M106.2 397.8v-1.7M127.5 434v-1.7M127.5 426.8v-1.7M127.5 419.6v-1.7M127.5 412.4v-1.7M127.5 405v-1.7M127.5 397.8v-1.7M149.1 434v-1.7M149.1 426.8v-1.7M149.1 419.6v-1.7M149.1 412.4v-1.7M149.1 405v-1.7M149.1 397.8v-1.7M170.5 434v-1.7M170.5 426.8v-1.7M170.5 419.6v-1.7M170.5 412.4v-1.7M170.5 405v-1.7M170.5 397.8v-1.7M192.1 434v-1.7M192.1 426.8v-1.7M192.1 419.6v-1.7M192.1 412.4v-1.7M192.1 405v-1.7M192.1 397.8v-1.7M105.9 434v-1.7M105.9 426.8v-1.7M105.9 419.6v-1.7M105.9 412.4v-1.7M105.9 405v-1.7M105.9 397.8v-1.7M127.3 434v-1.7M127.3 426.8v-1.7M127.3 419.6v-1.7M127.3 412.4v-1.7M127.3 405v-1.7M127.3 397.8v-1.7M148.9 434v-1.7M148.9 426.8v-1.7M148.9 419.6v-1.7M148.9 412.4v-1.7M148.9 405v-1.7M148.9 397.8v-1.7M170.2 434v-1.7M170.2 426.8v-1.7M170.2 419.6v-1.7M170.2 412.4v-1.7M170.2 405v-1.7M170.2 397.8v-1.7M191.8 434v-1.7M191.8 426.8v-1.7M191.8 419.6v-1.7M191.8 412.4v-1.7M191.8 405v-1.7M191.8 397.8v-1.7M96.1 434h9.8M116.7 434h10.6M138.1 434h10.8M159.7 434h10.5M181 434h10.8M96.1 426.8h9.8M116.7 426.8h10.6M138.1 426.8h10.8M159.7 426.8h10.5M181 426.8h10.8M96.1 419.6h9.8M116.7 419.6h10.6M138.1 419.6h10.8M159.7 419.6h10.5M181 419.6h10.8M96.1 412.4h9.8M116.7 412.4h10.6M138.1 412.4h10.8M159.7 412.4h10.5M181 412.4h10.8M96.1 405h9.8M116.7 405h10.6M138.1 405h10.8M159.7 405h10.5M181 405h10.8M96.1 397.8h9.8M116.7 397.8h10.6M138.1 397.8h10.8M159.7 397.8h10.5M181 397.8h10.8M202.6 397.8h.5M96.1 434.2h20.4M116.7 434.2h21.4M138.3 434.2h21.1M159.7 434.2H181M181.3 434.2h15.6M96.1 427h20.4M116.7 427h21.4M138.3 427h21.1M159.7 427H181M181.3 427h16.8M96.1 419.8h20.4M116.7 419.8h21.4M138.3 419.8h21.1M159.7 419.8H181M181.3 419.8h18M96.1 412.6h20.4M116.7 412.6h21.4M138.3 412.6h21.1M159.7 412.6H181M181.3 412.6h19.4M96.1 405.2h20.4M116.7 405.2h21.4M138.3 405.2h21.1M159.7 405.2H181M181.3 405.2h20.6M96.1 398h20.4M116.7 398h21.4M138.3 398h21.1M159.7 398H181M181.3 398h21.1M202.6 398h.5M116.5 437.6v-3.4M116.5 430.4V427M116.5 423.2v-3.4M116.5 416v-3.4M116.5 408.8v-3.6M116.5 401.4V398M138.1 437.6v-3.4M138.1 430.4V427M138.1 423.2v-3.4M138.1 416v-3.4M138.1 408.8v-3.6M138.1 401.4V398M138.1 394.2V393M159.4 437.6v-3.4M159.4 430.4V427M159.4 423.2v-3.4M159.4 416v-3.4M159.4 408.8v-3.6M159.4 401.4V398M159.4 394.2V393M181 437.6v-3.4M181 430.4V427M181 423.2v-3.4M181 416v-3.4M181 408.8v-3.6M181 401.4V398M202.4 401.4V398M96.1 430.4h20.4M116.7 430.4h21.4M138.3 430.4h21.1M159.7 430.4H181M181.3 430.4h16.3M96.1 423.2h20.4M116.7 423.2h21.4M138.3 423.2h21.1M159.7 423.2H181M181.3 423.2h17.5M96.1 416h20.4M116.7 416h21.4M138.3 416h21.1M159.7 416H181M181.3 416H200M96.1 408.8h20.4M116.7 408.8h21.4M138.3 408.8h21.1M159.7 408.8H181M181.3 408.8h19.9M96.1 401.4h20.4M116.7 401.4h21.4M138.3 401.4h21.1M159.7 401.4H181M181.3 401.4h21.1M121.5 394.2h16.6M138.3 394.2h21.1M159.7 394.2h21.1M116.7 437.6v-3.4M116.7 430.4V427M116.7 423.2v-3.4M116.7 416v-3.4M116.7 408.8v-3.6M116.7 401.4V398M138.3 437.6v-3.4M138.3 430.4V427M138.3 423.2v-3.4M138.3 416v-3.4M138.3 408.8v-3.6M138.3 401.4V398M138.3 394.2V393M159.7 437.6v-3.4M159.7 430.4V427M159.7 423.2v-3.4M159.7 416v-3.4M159.7 408.8v-3.6M159.7 401.4V398M159.7 394.2V393M181.3 437.6v-3.4M181.3 430.4V427M181.3 423.2v-3.4M181.3 416v-3.4M181.3 408.8v-3.6M181.3 401.4V398M202.6 400.2V398"/><path class="cls-6" d="M95.8 395.8h25.5v-2.7h59.3v2.7h22.7l-7.1 41.9H95.8"/><path class="cls-4" d="M294.3 283v-29.2M295.8 283v-29.2M294.3 283v-29.2M295.8 253.8h-1.5M293.6 283v-29.2M295.8 283v-29.2M295.8 283h-1.5M95.8 439.5h101.8l7.2-42.7"/><path class="cls-4" d="M95.8 437.6h100.4l6.9-40.8"/><path class="cls-23" d="M119.6 382.2v14.6H95.8v-14.6h23.8"/><path class="cls-22" d="M119.6 396.8v-3.4H95.8v3.4h23.8"/><path class="cls-18" d="M96.3 393.4l3.4 3.4M100.2 393.4l3.3 3.4M104.2 393.4l3.4 3.4M108.3 393.4l3.4 3.4M112.4 393.4l3.4 3.4M116.2 393.4l3.4 3.4"/><path class="cls-22" d="M119.6 393.4v-.4H95.8v.4h23.8M119.6 393v-5.8H95.8v5.8h23.8"/><path class="cls-18" d="M97 387.2v5.8M98.5 387.2v5.8M99.9 387.2v5.8M101.4 387.2v5.8M102.8 387.2v5.8M104 387.2v5.8M105.4 387.2v5.8M106.9 387.2v5.8M108.3 387.2v5.8M109.8 387.2v5.8M111.2 387.2v5.8M112.6 387.2v5.8M114.1 387.2v5.8M115.5 387.2v5.8M117 387.2v5.8M118.4 387.2v5.8M119.6 387.2v5.8"/><path class="cls-22" d="M119.6 387.2v-5H95.8v5h23.8"/><path class="cls-18" d="M96.1 385l1.9 2.2M97 382.2l5.1 5M101.1 382.2l5.1 5M105 382.2l5 5M109 382.2l5.1 5M113.1 382.2l5.1 5M117 382.2l2.8 2.6"/><path class="cls-19" d="M119.6 393.4H95.8M119.6 396.8H95.8"/><path class="cls-18" d="M119.6 387.2H95.8M119.6 393H95.8"/><path class="cls-19" d="M119.6 382.2H95.8M119.6 387.2H95.8"/><path class="cls-4" d="M119.6 396.8H95.8M119.6 382.2H95.8"/><path class="cls-23" d="M222.6 382.2v14.6h-40.1v-14.6h40.1"/><path class="cls-22" d="M222.6 396.8v-3.4h-40.1v3.4h40.1"/><path class="cls-18" d="M182.7 395.6l1 1.2M184.4 393.4l3.4 3.4M188.5 393.4l3.3 3.4M192.6 393.4l3.3 3.4M196.4 393.4l3.4 3.4M200.5 393.4l3.3 3.4M204.6 393.4l3.3 3.4M208.4 393.4l3.4 3.4M212.5 393.4l3.3 3.4M216.6 393.4l3.3 3.4M220.6 393.4l2.2 2.2"/><path class="cls-22" d="M222.6 393.4v-.4h-40.1v.4h40.1M222.6 393v-5.8h-40.1v5.8h40.1"/><path class="cls-18" d="M183.4 387.2v5.8M184.9 387.2v5.8M186.3 387.2v5.8M187.8 387.2v5.8M189.2 387.2v5.8M190.6 387.2v5.8M192.1 387.2v5.8M193.5 387.2v5.8M194.7 387.2v5.8M196.2 387.2v5.8M197.6 387.2v5.8M199 387.2v5.8M200.5 387.2v5.8M201.9 387.2v5.8M203.4 387.2v5.8M204.8 387.2v5.8M206.2 387.2v5.8M207.7 387.2v5.8M208.9 387.2v5.8M210.3 387.2v5.8M211.8 387.2v5.8M213.2 387.2v5.8M214.6 387.2v5.8M216.1 387.2v5.8M217.5 387.2v5.8M219 387.2v5.8M220.4 387.2v5.8M221.8 387.2v5.8"/><path class="cls-22" d="M222.6 387.2v-5h-40.1v5h40.1"/><path class="cls-18" d="M182.7 383.6l3.6 3.6M185.1 382.2l5.1 5M189.2 382.2l5 5M193.3 382.2l5 5M197.1 382.2l5.1 5M201.2 382.2l5 5M205.3 382.2l5 5M209.4 382.2l5 5M213.2 382.2l5 5M217.3 382.2l5 5M221.4 382.2l1.4 1.4"/><path class="cls-19" d="M222.6 393.4h-40.1M222.6 396.8h-40.1"/><path class="cls-18" d="M222.6 387.2h-40.1M222.6 393h-40.1"/><path class="cls-19" d="M222.6 382.2h-40.1M222.6 387.2h-40.1"/><path class="cls-4" d="M222.6 396.8h-40.1M222.6 382.2h-40.1"/><path class="cls-23" d="M336.8 382.2v14.6h-51.1v-14.6h51.1"/><path class="cls-22" d="M336.8 396.8v-3.4h-51.1v3.4h51.1"/><path class="cls-18" d="M285.9 394.6l2.2 2.2M288.6 393.4l3.3 3.4M292.6 393.4l3.4 3.4M296.7 393.4l3.4 3.4M300.8 393.4l3.4 3.4M304.6 393.4l3.4 3.4M308.7 393.4l3.4 3.4M312.8 393.4l3.4 3.4M316.6 393.4l3.4 3.4M320.7 393.4l3.4 3.4M324.8 393.4l3.4 3.4M328.9 393.4l3.3 3.4M332.7 393.4l3.4 3.4M336.8 393.4l.2.3"/><path class="cls-22" d="M336.8 393.4v-.4h-51.1v.4h51.1M336.8 393v-5.8h-51.1v5.8h51.1"/><path class="cls-18" d="M286.9 387.2v5.8M288.3 387.2v5.8M289.8 387.2v5.8M291.2 387.2v5.8M292.6 387.2v5.8M294.1 387.2v5.8M295.5 387.2v5.8M297 387.2v5.8M298.4 387.2v5.8M299.6 387.2v5.8M301 387.2v5.8M302.5 387.2v5.8M303.9 387.2v5.8M305.4 387.2v5.8M306.8 387.2v5.8M308.2 387.2v5.8M309.7 387.2v5.8M311.1 387.2v5.8M312.6 387.2v5.8M313.8 387.2v5.8M315.2 387.2v5.8M316.6 387.2v5.8M318.1 387.2v5.8M319.5 387.2v5.8M321 387.2v5.8M322.4 387.2v5.8M323.8 387.2v5.8M325.3 387.2v5.8M326.7 387.2v5.8M328.2 387.2v5.8M329.4 387.2v5.8M330.8 387.2v5.8M332.2 387.2v5.8M333.7 387.2v5.8M335.1 387.2v5.8M336.6 387.2v5.8"/><path class="cls-22" d="M336.8 387.2v-5h-51.1v5h51.1"/><path class="cls-18" d="M285.9 386.5l.5.7M285.9 382.6l4.6 4.6M289.5 382.2l5.1 5M293.4 382.2l5 5M297.4 382.2l5.1 5M301.5 382.2l5.1 5M305.4 382.2l5 5M309.4 382.2l5.1 5M313.5 382.2l5.1 5M317.6 382.2l5 5M321.4 382.2l5.1 5M325.5 382.2l5.1 5M329.6 382.2l5 5M333.4 382.2l3.6 3.3"/><path class="cls-19" d="M336.8 393.4h-51.1M336.8 396.8h-51.1"/><path class="cls-18" d="M336.8 387.2h-51.1M336.8 393h-51.1"/><path class="cls-19" d="M336.8 382.2h-51.1M336.8 387.2h-51.1"/><path class="cls-4" d="M336.8 396.8h-51.1M336.8 382.2h-51.1"/><path class="cls-23" d="M408.8 382.2v14.6h-31.2v-14.6h31.2"/><path class="cls-22" d="M408.8 396.8v-3.4h-31.2v3.4h31.2"/><path class="cls-18" d="M377.8 394.4l2.4 2.4M381 393.4l3.3 3.4M384.8 393.4l3.4 3.4M388.9 393.4l3.3 3.4M393 393.4l3.3 3.4M396.8 393.4l3.4 3.4M400.9 393.4l3.3 3.4M405 393.4l3.3 3.4"/><path class="cls-22" d="M408.8 393.4v-.4h-31.2v.4h31.2M408.8 393v-5.8h-31.2v5.8h31.2"/><path class="cls-18" d="M379 387.2v5.8M380.5 387.2v5.8M381.9 387.2v5.8M383.4 387.2v5.8M384.8 387.2v5.8M386.2 387.2v5.8M387.7 387.2v5.8M388.9 387.2v5.8M390.3 387.2v5.8M391.8 387.2v5.8M393.2 387.2v5.8M394.6 387.2v5.8M396.1 387.2v5.8M397.5 387.2v5.8M399 387.2v5.8M400.4 387.2v5.8M401.8 387.2v5.8M403.3 387.2v5.8M404.5 387.2v5.8M405.9 387.2v5.8M407.4 387.2v5.8M408.8 387.2v5.8"/><path class="cls-22" d="M408.8 387.2v-5h-31.2v5h31.2"/><path class="cls-18" d="M377.8 386.2l.8 1M377.8 382.2l4.8 5M381.7 382.2l5 5M385.5 382.2l5.1 5M389.6 382.2l5 5M393.7 382.2l5 5M397.8 382.2l5 5M401.6 382.2l5 5M405.7 382.2l3.3 3.3"/><path class="cls-19" d="M408.8 393.4h-31.2M408.8 396.8h-31.2"/><path class="cls-18" d="M408.8 387.2h-31.2M408.8 393h-31.2"/><path class="cls-19" d="M408.8 382.2h-31.2M408.8 387.2h-31.2"/><path class="cls-4" d="M408.8 396.8h-31.2M408.8 382.2h-31.2M283.8 389.6v7.2h3.3v1.9h-66v-1.9h3.4v-7.2"/><path class="cls-16" d="M285.7 382.2h-63.1"/><path class="cls-4" d="M223 382.2h-.4"/><path class="cls-19" d="M283.8 396.8h3.3M224.5 396.8h-3.4"/><path class="cls-4" d="M222.6 387.2h63.1v2.4h-63.1zM281.8 389.6v-2.4M226.4 389.6v-2.4M285.7 387.2v2.4M266.7 387.2v2.4M281.8 387.2v2.4M262.6 387.2v2.4M266.7 387.2v2.4M245.6 387.2v2.4M262.6 387.2v2.4M241.5 387.2v2.4M245.6 387.2v2.4M226.4 387.2v2.4M241.5 387.2v2.4M222.6 387.2v2.4"/><path class="cls-22" d="M285.6 392.9h-1.9v-3.4h1.9"/><path class="cls-18" d="M284 389.6v3.4M285.4 389.6v3.4M285.6 392.9h-1.9v-3.4h1.9"/><path class="cls-19" d="M285.7 387.2v-5"/><path class="cls-22" d="M285.7 396.8h-1.9v-3.4h1.9"/><path class="cls-18" d="M284 396.6v.2M284.7 393.4l1.2 1.2"/><path class="cls-19" d="M285.7 396.8h-1.9v-3.4h1.9M283.8 393.4v-3.8"/><path class="cls-22" d="M222.7 392.9h1.8v-3.4h-1.8"/><path class="cls-18" d="M223.3 389.6v3.4M224.5 389.6v3.4M222.7 392.9h1.8v-3.4h-1.8"/><path class="cls-19" d="M222.6 387.2v-5"/><path class="cls-22" d="M222.6 396.8h1.9v-3.4h-1.9"/><path class="cls-18" d="M222.8 395.6l1.2 1.2M224.5 393.4h.2"/><path class="cls-19" d="M222.6 396.8h1.9v-3.4h-1.9M224.5 393.4v-3.8"/><path class="cls-4" d="M375.9 389.6v7.2h3.4v1.9h-43.9v-1.9h3.3v-7.2"/><path class="cls-16" d="M377.6 382.2h-40.8"/><path class="cls-4" d="M337.3 382.2h-.5"/><path class="cls-19" d="M375.9 396.8h3.4M338.7 396.8h-3.3"/><path class="cls-4" d="M336.8 387.2h40.8v2.4h-40.8zM374 389.6v-2.4M340.6 389.6v-2.4M377.6 387.2v2.4M359.4 387.2v2.4M374 387.2v2.4M355.3 387.2v2.4M359.4 387.2v2.4M340.6 387.2v2.4M355.3 387.2v2.4M336.8 387.2v2.4"/><path class="cls-22" d="M377.7 392.9h-1.8v-3.4h1.8"/><path class="cls-18" d="M376.2 389.6v3.4M377.6 389.6v3.4M377.7 392.9h-1.8v-3.4h1.8"/><path class="cls-19" d="M377.6 387.2v-5"/><path class="cls-22" d="M377.6 396.8h-1.7v-3.4h1.7"/><path class="cls-18" d="M376.2 396.6v.2M376.9 393.4l.9 1"/><path class="cls-19" d="M377.6 396.8h-1.7v-3.4h1.7M375.9 393.4v-3.8"/><path class="cls-22" d="M336.9 392.9h1.8v-3.4h-1.8"/><path class="cls-18" d="M338 389.6v3.4M336.9 392.9h1.8v-3.4h-1.8"/><path class="cls-19" d="M336.8 387.2v-5"/><path class="cls-22" d="M336.8 396.8h1.9v-3.4h-1.9"/><path class="cls-18" d="M337 393.7l2 1.9"/><path class="cls-19" d="M336.8 396.8h1.9v-3.4h-1.9M338.7 393.4v-3.8"/><path class="cls-16" d="M182.5 382.2h-62.9"/><path class="cls-4" d="M119.6 387.2h62.9v2.4h-62.9zM178.6 389.6v-2.4M123.2 389.6v-2.4M182.5 387.2v2.4M163.5 387.2v2.4M178.6 387.2v2.4M159.4 387.2v2.4M163.5 387.2v2.4M142.4 387.2v2.4M159.4 387.2v2.4M138.3 387.2v2.4M142.4 387.2v2.4M123.2 387.2v2.4M138.3 387.2v2.4M119.6 387.2v2.4"/><path class="cls-19" d="M182.5 387.2v-5"/><path class="cls-4" d="M117.9 396.8v1.9"/><path class="cls-5" d="M117.9 398.7h66"/><path class="cls-4" d="M183.9 398.7v-.9"/><path class="cls-22" d="M182.4 392.9h-1.8v-3.4h1.8"/><path class="cls-18" d="M182 389.6v3.4M182.4 392.9h-1.8v-3.4h1.8"/><path class="cls-22" d="M182.5 396.8h-1.9v-3.4h1.9"/><path class="cls-18" d="M180.8 393.7l1.9 1.9"/><path class="cls-19" d="M182.5 396.8h-1.9v-3.4h1.9M180.6 393.4v-3.8"/><path class="cls-22" d="M119.5 392.9h1.8v-3.4h-1.8"/><path class="cls-18" d="M121 389.6v3.4M119.5 392.9h1.8v-3.4h-1.8"/><path class="cls-19" d="M119.6 387.2v-5"/><path class="cls-22" d="M119.6 396.8h1.7v-3.4h-1.7"/><path class="cls-18" d="M120.3 393.4l1.2 1.2"/><path class="cls-19" d="M119.6 396.8h1.7v-3.4h-1.7M121.3 393.4v-3.8"/><path class="cls-23" d="M377.6 71.4V56.7h31.2v14.7h-31.2"/><path class="cls-22" d="M377.6 56.7v3.4h31.2v-3.4h-31.2"/><path class="cls-18" d="M377.8 57.4l2.4 2.7M381 56.7l3.3 3.4M384.8 56.7l3.4 3.4M388.9 56.7l3.3 3.4M393 56.7l3.3 3.4M397 56.7l3.4 3.4M400.9 56.7l3.3 3.4M405 56.7l3.3 3.4"/><path class="cls-22" d="M377.6 60.1v.7h31.2v-.7h-31.2"/><path class="cls-22" d="M377.6 60.8v5.5h31.2v-5.5h-31.2"/><path class="cls-18" d="M408.8 66.3v-5.5M407.4 66.3v-5.5M405.9 66.3v-5.5M404.5 66.3v-5.5M403.3 66.3v-5.5M401.8 66.3v-5.5M400.4 66.3v-5.5M399 66.3v-5.5M397.5 66.3v-5.5M396.1 66.3v-5.5M394.6 66.3v-5.5M393.2 66.3v-5.5M391.8 66.3v-5.5M390.3 66.3v-5.5M388.9 66.3v-5.5M387.7 66.3v-5.5M386.2 66.3v-5.5M384.8 66.3v-5.5M383.4 66.3v-5.5M381.9 66.3v-5.5M380.5 66.3v-5.5M379 66.3v-5.5"/><path class="cls-22" d="M377.6 66.3v5.1h31.2v-5.1h-31.2"/><path class="cls-18" d="M377.8 69.7l1.7 1.7M378.6 66.3l5 5.1M382.4 66.3l5 5.1M386.5 66.3l5 5.1M390.6 66.3l5 5.1M394.4 66.3l5 5.1M398.5 66.3l5 5.1M402.6 66.3l5 5.1M406.6 66.3l2.4 2.4"/><path class="cls-19" d="M377.6 60.1h31.2M377.6 56.7h31.2"/><path class="cls-18" d="M377.6 66.3h31.2M377.6 60.8h31.2"/><path class="cls-19" d="M377.6 71.4h31.2M377.6 66.3h31.2"/><path class="cls-4" d="M377.6 56.7h31.2M377.6 71.4h31.2"/><path class="cls-23" d="M285.7 71.4V56.7h51.1v14.7h-51.1"/><path class="cls-22" d="M285.7 56.7v3.4h51.1v-3.4h-51.1"/><path class="cls-18" d="M285.9 57.9l2.2 2.2M288.8 56.7l3.4 3.4M292.6 56.7l3.4 3.4M296.7 56.7l3.4 3.4M300.8 56.7l3.4 3.4M304.6 56.7l3.4 3.4M308.7 56.7l3.4 3.4M312.8 56.7l3.4 3.4M316.6 56.7l3.4 3.4M320.7 56.7l3.4 3.4M324.8 56.7l3.4 3.4M328.9 56.7l3.3 3.4M332.7 56.7l3.4 3.4M336.8 56.7l.2.3"/><path class="cls-22" d="M285.7 60.1v.7h51.1v-.7h-51.1"/><path class="cls-22" d="M285.7 60.8v5.5h51.1v-5.5h-51.1"/><path class="cls-18" d="M336.6 66.3v-5.5M335.1 66.3v-5.5M333.7 66.3v-5.5M332.2 66.3v-5.5M330.8 66.3v-5.5M329.4 66.3v-5.5M328.2 66.3v-5.5M326.7 66.3v-5.5M325.3 66.3v-5.5M323.8 66.3v-5.5M322.4 66.3v-5.5M321 66.3v-5.5M319.5 66.3v-5.5M318.1 66.3v-5.5M316.6 66.3v-5.5M315.2 66.3v-5.5M313.8 66.3v-5.5M312.6 66.3v-5.5M311.1 66.3v-5.5M309.7 66.3v-5.5M308.2 66.3v-5.5M306.8 66.3v-5.5M305.4 66.3v-5.5M303.9 66.3v-5.5M302.5 66.3v-5.5M301 66.3v-5.5M299.6 66.3v-5.5M298.4 66.3v-5.5M297 66.3v-5.5M295.5 66.3v-5.5M294.1 66.3v-5.5M292.6 66.3v-5.5M291.2 66.3v-5.5M289.8 66.3v-5.5M288.3 66.3v-5.5M286.9 66.3v-5.5"/><path class="cls-22" d="M285.7 66.3v5.1h51.1v-5.1h-51.1"/><path class="cls-18" d="M285.9 69.9l1.5 1.5M286.2 66.3l5 5.1M290.2 66.3l5.1 5.1M294.3 66.3l5.1 5.1M298.4 66.3l5 5.1M302.2 66.3l5.1 5.1M306.3 66.3l5.1 5.1M310.4 66.3l5 5.1M314.2 66.3l5.1 5.1M318.3 66.3l5.1 5.1M322.4 66.3l5 5.1M326.2 66.3l5.1 5.1M330.3 66.3l5.1 5.1M334.4 66.3L337 69"/><path class="cls-19" d="M285.7 60.1h51.1M285.7 56.7h51.1"/><path class="cls-18" d="M285.7 66.3h51.1M285.7 60.8h51.1"/><path class="cls-19" d="M285.7 71.4h51.1M285.7 66.3h51.1"/><path class="cls-4" d="M285.7 56.7h51.1M285.7 71.4h51.1"/><path class="cls-23" d="M171.4 71.4V56.7h51.2v14.7h-51.2"/><path class="cls-22" d="M171.4 56.7v3.4h51.2v-3.4h-51.2"/><path class="cls-18" d="M171.7 59.8v.3M172.4 56.7l3.4 3.4M176.5 56.7l3.3 3.4M180.6 56.7l3.3 3.4M184.4 56.7l3.4 3.4M188.5 56.7l3.3 3.4M192.6 56.7l3.3 3.4M196.4 56.7l3.4 3.4M200.5 56.7l3.3 3.4M204.6 56.7l3.3 3.4M208.4 56.7l3.4 3.4M212.5 56.7l3.3 3.4M216.6 56.7l3.3 3.4M220.6 56.7l2.2 2.2"/><path class="cls-22" d="M171.4 60.1v.7h51.2v-.7h-51.2"/><path class="cls-22" d="M171.4 60.8v5.5h51.2v-5.5h-51.2"/><path class="cls-18" d="M221.8 66.3v-5.5M220.4 66.3v-5.5M219 66.3v-5.5M217.5 66.3v-5.5M216.1 66.3v-5.5M214.6 66.3v-5.5M213.2 66.3v-5.5M211.8 66.3v-5.5M210.3 66.3v-5.5M208.9 66.3v-5.5M207.7 66.3v-5.5M206.2 66.3v-5.5M204.8 66.3v-5.5M203.4 66.3v-5.5M201.9 66.3v-5.5M200.5 66.3v-5.5M199 66.3v-5.5M197.6 66.3v-5.5M196.2 66.3v-5.5M194.7 66.3v-5.5M193.5 66.3v-5.5M192.1 66.3v-5.5M190.6 66.3v-5.5M189.2 66.3v-5.5M187.8 66.3v-5.5M186.3 66.3v-5.5M184.9 66.3v-5.5M183.4 66.3v-5.5M182 66.3v-5.5M180.6 66.3v-5.5M179.1 66.3v-5.5M177.9 66.3v-5.5M176.5 66.3v-5.5M175 66.3v-5.5M173.6 66.3v-5.5M172.2 66.3v-5.5"/><path class="cls-22" d="M171.4 66.3v5.1h51.2v-5.1h-51.2"/><path class="cls-18" d="M171.7 67.8l3.3 3.6M174.1 66.3l5 5.1M177.9 66.3l5.1 5.1M182 66.3l5 5.1M186.1 66.3l5 5.1M190.2 66.3l5 5.1M194 66.3l5 5.1M198.1 66.3l5 5.1M202.2 66.3l5 5.1M206 66.3l5 5.1M210.1 66.3l5 5.1M214.2 66.3l5 5.1M218 66.3l4.8 4.6M222.1 66.3l.7.5"/><path class="cls-19" d="M171.4 60.1h51.2M171.4 56.7h51.2"/><path class="cls-18" d="M171.4 66.3h51.2M171.4 60.8h51.2"/><path class="cls-19" d="M171.4 71.4h51.2M171.4 66.3h51.2"/><path class="cls-4" d="M171.4 56.7h51.2M171.4 71.4h51.2"/><path class="cls-23" d="M95.8 71.4V56.7h34.8v14.7H95.8"/><path class="cls-22" d="M95.8 56.7v3.4h34.8v-3.4H95.8"/><path class="cls-18" d="M96.3 56.7l3.4 3.4M100.2 56.7l3.3 3.4M104.2 56.7l3.4 3.4M108.3 56.7l3.4 3.4M112.4 56.7l3.4 3.4M116.2 56.7l3.4 3.4M120.3 56.7l3.4 3.4M124.4 56.7l3.4 3.4M128.2 56.7l2.7 2.4"/><path class="cls-22" d="M95.8 60.1v.7h34.8v-.7H95.8"/><path class="cls-22" d="M95.8 60.8v5.5h34.8v-5.5H95.8"/><path class="cls-18" d="M129.7 66.3v-5.5M128.2 66.3v-5.5M126.8 66.3v-5.5M125.4 66.3v-5.5M123.9 66.3v-5.5M122.5 66.3v-5.5M121 66.3v-5.5M119.6 66.3v-5.5M118.4 66.3v-5.5M117 66.3v-5.5M115.5 66.3v-5.5M114.1 66.3v-5.5M112.6 66.3v-5.5M111.2 66.3v-5.5M109.8 66.3v-5.5M108.3 66.3v-5.5M106.9 66.3v-5.5M105.4 66.3v-5.5M104 66.3v-5.5M102.8 66.3v-5.5M101.4 66.3v-5.5M99.9 66.3v-5.5M98.5 66.3v-5.5M97 66.3v-5.5"/><path class="cls-22" d="M95.8 66.3v5.1h34.8v-5.1H95.8"/><path class="cls-18" d="M96.1 68.5l2.9 2.9M97.8 66.3l5 5.1M101.8 66.3l5.1 5.1M105.9 66.3l5.1 5.1M109.8 66.3l5 5.1M113.8 66.3l5.1 5.1M117.9 66.3l5.1 5.1M122 66.3l5 5.1M125.8 66.3l5.1 4.8M129.9 66.3l1 .7"/><path class="cls-19" d="M95.8 60.1h34.8M95.8 56.7h34.8"/><path class="cls-18" d="M95.8 66.3h34.8M95.8 60.8h34.8"/><path class="cls-19" d="M95.8 71.4h34.8M95.8 66.3h34.8"/><path class="cls-4" d="M95.8 56.7h34.8M95.8 71.4h34.8M132.3 64.2v-7.5H129v-1.9h43.9v1.9h-3.4v7.5"/><path class="cls-16" d="M130.6 71.4h40.8"/><path class="cls-4" d="M171 71.4h.4"/><path class="cls-19" d="M132.3 56.7H129M169.5 56.7h3.4"/><path class="cls-4" d="M130.6 64.2h40.8v2.2h-40.8zM134.2 64.2v2.1M167.6 64.2v2.1M130.6 66.3v-2.1M148.9 66.3v-2.1M134.2 66.3v-2.1M153 66.3v-2.1M148.9 66.3v-2.1M167.6 66.3v-2.1M153 66.3v-2.1M171.4 66.3v-2.1"/><path class="cls-22" d="M130.5 60.7h1.9v3.4h-1.9"/><path class="cls-18" d="M131.1 64.2v-3.4M130.5 60.7h1.9v3.4h-1.9"/><path class="cls-19" d="M130.6 66.3v5.1"/><path class="cls-22" d="M130.6 56.7h1.7v3.4h-1.7"/><path class="cls-18" d="M130.9 59.1l.7 1M132.3 56.7h.3"/><path class="cls-19" d="M130.6 56.7h1.7v3.4h-1.7M132.3 60.1v4.1"/><path class="cls-22" d="M171.3 60.7h-1.8v3.4h1.8"/><path class="cls-18" d="M170.7 64.2v-3.4M171.3 60.7h-1.8v3.4h1.8"/><path class="cls-19" d="M171.4 66.3v5.1"/><path class="cls-22" d="M171.4 56.7h-1.9v3.4h1.9"/><path class="cls-18" d="M169.8 57.9l1.9 1.9"/><path class="cls-19" d="M171.4 56.7h-1.9v3.4h1.9M169.5 60.1v4.1"/><path class="cls-16" d="M222.6 71.4h63.1"/><path class="cls-4" d="M285.2 71.4h.5M222.6 64.2h63.1v2.2h-63.1zM226.4 64.2v2.1M281.8 64.2v2.1M222.6 66.3v-2.1M241.5 66.3v-2.1M226.4 66.3v-2.1M245.6 66.3v-2.1M241.5 66.3v-2.1M262.6 66.3v-2.1M245.6 66.3v-2.1M266.7 66.3v-2.1M262.6 66.3v-2.1M281.8 66.3v-2.1M266.7 66.3v-2.1M285.7 66.3v-2.1"/><path class="cls-19" d="M222.6 66.3v5.1"/><path class="cls-4" d="M287.1 56.7v-1.9"/><path class="cls-5" d="M287.1 54.8h-66"/><path class="cls-4" d="M221.1 54.8v1"/><path class="cls-22" d="M222.7 60.7h1.8v3.4h-1.8"/><path class="cls-18" d="M224.5 64.2v-3.4M223.3 64.2v-3.4M222.7 60.7h1.8v3.4h-1.8"/><path class="cls-22" d="M222.6 56.7h1.9v3.4h-1.9"/><path class="cls-18" d="M222.8 58.9l1.2 1.2M224.5 56.7h.2"/><path class="cls-19" d="M222.6 56.7h1.9v3.4h-1.9M224.5 60.1v4.1"/><path class="cls-22" d="M285.6 60.7h-1.9v3.4h1.9"/><path class="cls-18" d="M285.4 64.2v-3.4M284 64.2v-3.4M285.6 60.7h-1.9v3.4h1.9"/><path class="cls-19" d="M285.7 66.3v5.1"/><path class="cls-22" d="M285.7 56.7h-1.9v3.4h1.9"/><path class="cls-18" d="M284 59.8v.3M284.7 56.7l1.2 1.2"/><path class="cls-19" d="M285.7 56.7h-1.9v3.4h1.9M283.8 60.1v4.1"/><path class="cls-4" d="M338.7 64.2v-7.5h-3.3v-1.9h43.9v1.9h-3.4v7.5"/><path class="cls-16" d="M336.8 71.4h40.8"/><path class="cls-4" d="M377.1 71.4h.5"/><path class="cls-19" d="M338.7 56.7h-3.3M375.9 56.7h3.4"/><path class="cls-4" d="M336.8 64.2h40.8v2.2h-40.8zM340.6 64.2v2.1M374 64.2v2.1M336.8 66.3v-2.1M355.3 66.3v-2.1M340.6 66.3v-2.1M359.4 66.3v-2.1M355.3 66.3v-2.1M374 66.3v-2.1M359.4 66.3v-2.1M377.6 66.3v-2.1"/><path class="cls-22" d="M336.9 60.7h1.8v3.4h-1.8"/><path class="cls-18" d="M338 64.2v-3.4M336.9 60.7h1.8v3.4h-1.8"/><path class="cls-19" d="M336.8 66.3v5.1"/><path class="cls-22" d="M336.8 56.7h1.9v3.4h-1.9"/><path class="cls-18" d="M337 57l2 1.9"/><path class="cls-19" d="M336.8 56.7h1.9v3.4h-1.9M338.7 60.1v4.1"/><path class="cls-22" d="M377.7 60.7h-1.8v3.4h1.8"/><path class="cls-18" d="M377.6 64.2v-3.4M376.2 64.2v-3.4M377.7 60.7h-1.8v3.4h1.8"/><path class="cls-19" d="M377.6 66.3v5.1"/><path class="cls-22" d="M377.6 56.7h-1.7v3.4h1.7"/><path class="cls-18" d="M376.2 59.8v.3M376.9 56.7l.9.7"/><path class="cls-19" d="M377.6 56.7h-1.7v3.4h1.7M375.9 60.1v4.1"/><path class="cls-22" d="M.8 189l7 7.2h183.1l7.2-7.2H.8"/><path class="cls-18" d="M197.4 189.9l-1-.9M195.2 191.8l-2.9-2.8M193.3 193.8l-4.8-4.8M191.4 195.9l-7-6.9M187.5 196.2l-7.2-7.2M183.7 196.2l-7.2-7.2M179.6 196.2l-7.2-7.2M175.5 196.2l-7.2-7.2M171.7 196.2l-7.2-7.2M167.6 196.2l-7.2-7.2M163.5 196.2l-7.2-7.2M159.4 196.2l-7.2-7.2M155.6 196.2l-7.2-7.2M151.5 196.2l-7.2-7.2M147.4 196.2l-7.2-7.2M143.6 196.2l-7.2-7.2M139.5 196.2l-7.2-7.2M135.4 196.2l-7.2-7.2M131.6 196.2l-7.2-7.2M127.5 196.2l-7.2-7.2M123.4 196.2l-7.2-7.2M119.4 196.2l-7.2-7.2M115.5 196.2l-7.2-7.2M111.4 196.2l-7.2-7.2M107.4 196.2l-7.2-7.2M103.5 196.2l-7.2-7.2M99.4 196.2l-7.2-7.2M95.4 196.2l-7.2-7.2M91.3 196.2l-7.2-7.2M87.4 196.2l-7.2-7.2M83.4 196.2l-7.2-7.2M79.3 196.2l-7.2-7.2M75.4 196.2l-7.2-7.2M71.4 196.2l-7.2-7.2M67.3 196.2l-7.2-7.2M63.4 196.2l-7.2-7.2M59.4 196.2l-7.2-7.2M55.3 196.2l-7.2-7.2M51.2 196.2L44 189M47.4 196.2l-7.2-7.2M43.3 196.2l-7.2-7.2M39.2 196.2L32 189M35.4 196.2l-7.2-7.2M31.3 196.2l-7.2-7.2M27.2 196.2L20 189M23.4 196.2l-7.2-7.2M19.3 196.2l-7.2-7.2M15.2 196.2L8 189M11.1 196.2L3.9 189M188.5 196.2l7.2-7.2M184.6 196.2l7.2-7.2M180.6 196.2l7.2-7.2M176.5 196.2l7.2-7.2M172.6 196.2l7.2-7.2M168.6 196.2l7.2-7.2M164.5 196.2l7.2-7.2M160.6 196.2l7.2-7.2M156.6 196.2l7.2-7.2M152.5 196.2l7.2-7.2M148.4 196.2l7.2-7.2M144.6 196.2l7.2-7.2M140.5 196.2l7.2-7.2M136.4 196.2l7.2-7.2M132.6 196.2l7.2-7.2M128.5 196.2l7.2-7.2M124.4 196.2l7.2-7.2M120.3 196.2l7.2-7.2M116.5 196.2l7.2-7.2M112.4 196.2l7.2-7.2M108.3 196.2l7.2-7.2M104.5 196.2l7.2-7.2M100.4 196.2l7.2-7.2M96.3 196.2l7.2-7.2M92.5 196.2l7.2-7.2M88.4 196.2l7.2-7.2M84.3 196.2l7.2-7.2M80.2 196.2l7.2-7.2M76.4 196.2l7.2-7.2M72.3 196.2l7.2-7.2M68.2 196.2l7.2-7.2M64.4 196.2l7.2-7.2M60.3 196.2l7.2-7.2M56.2 196.2l7.2-7.2M52.4 196.2l7.2-7.2M48.3 196.2l7.2-7.2M44.2 196.2l7.2-7.2M40.2 196.2l7.2-7.2M36.3 196.2l7.2-7.2M32.2 196.2l7.2-7.2M28.2 196.2l7.2-7.2M24.3 196.2l7.2-7.2M20.2 196.2l7.2-7.2M16.2 196.2l7.2-7.2M12.1 196.2l7.2-7.2M8.2 196.2l7.2-7.2M6.1 194.2l5.3-5.2M4.2 192.3l3.1-3.3M2.2 190.2l1.2-1.2"/><path class="cls-22" d="M.8 189l7 7.2h183.1l7.2-7.2H.8"/><path class="cls-18" d="M197.4 189.9l-1-.9M195.2 191.8l-2.9-2.8M193.3 193.8l-4.8-4.8M191.4 195.9l-7-6.9M187.5 196.2l-7.2-7.2M183.7 196.2l-7.2-7.2M179.6 196.2l-7.2-7.2M175.5 196.2l-7.2-7.2M171.7 196.2l-7.2-7.2M167.6 196.2l-7.2-7.2M163.5 196.2l-7.2-7.2M159.4 196.2l-7.2-7.2M155.6 196.2l-7.2-7.2M151.5 196.2l-7.2-7.2M147.4 196.2l-7.2-7.2M143.6 196.2l-7.2-7.2M139.5 196.2l-7.2-7.2M135.4 196.2l-7.2-7.2M131.6 196.2l-7.2-7.2M127.5 196.2l-7.2-7.2M123.4 196.2l-7.2-7.2M119.4 196.2l-7.2-7.2M115.5 196.2l-7.2-7.2M111.4 196.2l-7.2-7.2M107.4 196.2l-7.2-7.2M103.5 196.2l-7.2-7.2M99.4 196.2l-7.2-7.2M95.4 196.2l-7.2-7.2M91.3 196.2l-7.2-7.2M87.4 196.2l-7.2-7.2M83.4 196.2l-7.2-7.2M79.3 196.2l-7.2-7.2M75.4 196.2l-7.2-7.2M71.4 196.2l-7.2-7.2M67.3 196.2l-7.2-7.2M63.4 196.2l-7.2-7.2M59.4 196.2l-7.2-7.2M55.3 196.2l-7.2-7.2M51.2 196.2L44 189M47.4 196.2l-7.2-7.2M43.3 196.2l-7.2-7.2M39.2 196.2L32 189M35.4 196.2l-7.2-7.2M31.3 196.2l-7.2-7.2M27.2 196.2L20 189M23.4 196.2l-7.2-7.2M19.3 196.2l-7.2-7.2M15.2 196.2L8 189M11.1 196.2L3.9 189M188.5 196.2l7.2-7.2M184.6 196.2l7.2-7.2M180.6 196.2l7.2-7.2M176.5 196.2l7.2-7.2M172.6 196.2l7.2-7.2M168.6 196.2l7.2-7.2M164.5 196.2l7.2-7.2M160.6 196.2l7.2-7.2M156.6 196.2l7.2-7.2M152.5 196.2l7.2-7.2M148.4 196.2l7.2-7.2M144.6 196.2l7.2-7.2M140.5 196.2l7.2-7.2M136.4 196.2l7.2-7.2M132.6 196.2l7.2-7.2M128.5 196.2l7.2-7.2M124.4 196.2l7.2-7.2M120.3 196.2l7.2-7.2M116.5 196.2l7.2-7.2M112.4 196.2l7.2-7.2M108.3 196.2l7.2-7.2M104.5 196.2l7.2-7.2M100.4 196.2l7.2-7.2M96.3 196.2l7.2-7.2M92.5 196.2l7.2-7.2M88.4 196.2l7.2-7.2M84.3 196.2l7.2-7.2M80.2 196.2l7.2-7.2M76.4 196.2l7.2-7.2M72.3 196.2l7.2-7.2M68.2 196.2l7.2-7.2M64.4 196.2l7.2-7.2M60.3 196.2l7.2-7.2M56.2 196.2l7.2-7.2M52.4 196.2l7.2-7.2M48.3 196.2l7.2-7.2M44.2 196.2l7.2-7.2M40.2 196.2l7.2-7.2M36.3 196.2l7.2-7.2M32.2 196.2l7.2-7.2M28.2 196.2l7.2-7.2M24.3 196.2l7.2-7.2M20.2 196.2l7.2-7.2M16.2 196.2l7.2-7.2M12.1 196.2l7.2-7.2M8.2 196.2l7.2-7.2M6.1 194.2l5.3-5.2M4.2 192.3l3.1-3.3M2.2 190.2l1.2-1.2"/><path class="cls-19" d="M95.8 189H.8M193.8 189h-91M190.9 196.2H7.8M190.9 196.2H7.8M95.8 189H.8M193.8 189h-91"/><path class="cls-22" d="M58.9 297.4v7.2h139.2l-7.2-7.2h-132"/><path class="cls-18" d="M195.9 304.6l-7.2-7.2M191.8 304.6l-7.2-7.2M187.8 304.6l-7.2-7.2M183.9 304.6l-7.2-7.2M179.8 304.6l-7.2-7.2M175.8 304.6l-7.2-7.2M171.9 304.6l-7.2-7.2M167.8 304.6l-7.2-7.2M163.8 304.6l-7.2-7.2M159.7 304.6l-7.2-7.2M155.8 304.6l-7.2-7.2M151.8 304.6l-7.2-7.2M147.7 304.6l-7.2-7.2M143.8 304.6l-7.2-7.2M139.8 304.6l-7.2-7.2M135.7 304.6l-7.2-7.2M131.8 304.6l-7.2-7.2M127.8 304.6l-7.2-7.2M123.7 304.6l-7.2-7.2M119.6 304.6l-7.2-7.2M115.8 304.6l-7.2-7.2M111.7 304.6l-7.2-7.2M107.6 304.6l-7.2-7.2M103.8 304.6l-7.2-7.2M99.7 304.6l-7.2-7.2M95.6 304.6l-7.2-7.2M91.5 304.6l-7.2-7.2M87.7 304.6l-7.2-7.2M83.6 304.6l-7.2-7.2M79.5 304.6l-7.2-7.2M75.7 304.6l-7.2-7.2M71.6 304.6l-7.2-7.2M67.5 304.6l-7.2-7.2M63.7 304.6l-4.6-4.5M59.6 304.6l-.5-.4M196.4 304.6l1-.9M192.3 304.6l2.9-2.8M188.2 304.6l5.1-5M184.4 304.6l7-6.9M180.3 304.6l7.2-7.2M176.2 304.6l7.2-7.2M172.4 304.6l7.2-7.2M168.3 304.6l7.2-7.2M164.2 304.6l7.2-7.2M160.4 304.6l7.2-7.2M156.3 304.6l7.2-7.2M152.2 304.6l7.2-7.2M148.2 304.6l7.2-7.2M144.3 304.6l7.2-7.2M140.2 304.6l7.2-7.2M136.2 304.6l7.2-7.2M132.3 304.6l7.2-7.2M128.2 304.6l7.2-7.2M124.2 304.6l7.2-7.2M120.1 304.6l7.2-7.2M116.2 304.6l7.2-7.2M112.2 304.6l7.2-7.2M108.1 304.6l7.2-7.2M104.2 304.6l7.2-7.2M100.2 304.6l7.2-7.2M96.1 304.6l7.2-7.2M92.2 304.6l7.2-7.2M88.2 304.6l7.2-7.2M84.1 304.6l7.2-7.2M80 304.6l7.2-7.2M76.2 304.6l7.2-7.2M72.1 304.6l7.2-7.2M68 304.6l7.2-7.2M64.2 304.6l7.2-7.2M60.1 304.6l7.2-7.2M59.1 301.8l4.1-4.4M59.1 297.7l.3-.3"/><path class="cls-22" d="M58.9 297.4v7.2h139.2l-7.2-7.2h-132"/><path class="cls-18" d="M195.9 304.6l-7.2-7.2M191.8 304.6l-7.2-7.2M187.8 304.6l-7.2-7.2M183.9 304.6l-7.2-7.2M179.8 304.6l-7.2-7.2M175.8 304.6l-7.2-7.2M171.9 304.6l-7.2-7.2M167.8 304.6l-7.2-7.2M163.8 304.6l-7.2-7.2M159.7 304.6l-7.2-7.2M155.8 304.6l-7.2-7.2M151.8 304.6l-7.2-7.2M147.7 304.6l-7.2-7.2M143.8 304.6l-7.2-7.2M139.8 304.6l-7.2-7.2M135.7 304.6l-7.2-7.2M131.8 304.6l-7.2-7.2M127.8 304.6l-7.2-7.2M123.7 304.6l-7.2-7.2M119.6 304.6l-7.2-7.2M115.8 304.6l-7.2-7.2M111.7 304.6l-7.2-7.2M107.6 304.6l-7.2-7.2M103.8 304.6l-7.2-7.2M99.7 304.6l-7.2-7.2M95.6 304.6l-7.2-7.2M91.5 304.6l-7.2-7.2M87.7 304.6l-7.2-7.2M83.6 304.6l-7.2-7.2M79.5 304.6l-7.2-7.2M75.7 304.6l-7.2-7.2M71.6 304.6l-7.2-7.2M67.5 304.6l-7.2-7.2M63.7 304.6l-4.6-4.5M59.6 304.6l-.5-.4M196.4 304.6l1-.9M192.3 304.6l2.9-2.8M188.2 304.6l5.1-5M184.4 304.6l7-6.9M180.3 304.6l7.2-7.2M176.2 304.6l7.2-7.2M172.4 304.6l7.2-7.2M168.3 304.6l7.2-7.2M164.2 304.6l7.2-7.2M160.4 304.6l7.2-7.2M156.3 304.6l7.2-7.2M152.2 304.6l7.2-7.2M148.2 304.6l7.2-7.2M144.3 304.6l7.2-7.2M140.2 304.6l7.2-7.2M136.2 304.6l7.2-7.2M132.3 304.6l7.2-7.2M128.2 304.6l7.2-7.2M124.2 304.6l7.2-7.2M120.1 304.6l7.2-7.2M116.2 304.6l7.2-7.2M112.2 304.6l7.2-7.2M108.1 304.6l7.2-7.2M104.2 304.6l7.2-7.2M100.2 304.6l7.2-7.2M96.1 304.6l7.2-7.2M92.2 304.6l7.2-7.2M88.2 304.6l7.2-7.2M84.1 304.6l7.2-7.2M80 304.6l7.2-7.2M76.2 304.6l7.2-7.2M72.1 304.6l7.2-7.2M68 304.6l7.2-7.2M64.2 304.6l7.2-7.2M60.1 304.6l7.2-7.2M59.1 301.8l4.1-4.4M59.1 297.7l.3-.3"/><path class="cls-19" d="M190.9 297.4h-132M95.8 304.6H58.9M198.1 304.6h-95.3M95.8 304.6H58.9M190.9 297.4h-132M198.1 304.6h-95.3"/><path class="cls-22" d="M198.1 189l-4.8 4.8h4.8V189"/><path class="cls-18" d="M198.3 190.6l-.9-.7M197.1 193.8l-1.9-2M195 193.8l3.3-3.2"/><path class="cls-22" d="M198.1 189l-4.8 4.8h4.8V189"/><path class="cls-18" d="M198.3 190.6l-.9-.7M197.1 193.8l-1.9-2M195 193.8l3.3-3.2"/><path class="cls-19" d="M198.1 193.8V189M198.1 193.8V189"/><path class="cls-22" d="M198.1 304.6l-7.2-7.2v-71.2h7.2v78.4"/><path class="cls-18" d="M198.3 226.9l-.7-.7M198.3 230.7l-4.8-4.5M198.3 234.8l-7.2-7.2M198.3 238.9l-7.2-7.2M198.3 242.7l-7.2-7.2M198.3 246.8l-7.2-7.2M198.3 250.9l-7.2-7.2M198.3 255l-7.2-7.2M198.3 258.8l-7.2-7.2M198.3 262.9l-7.2-7.2M198.3 267l-7.2-7.2M198.3 270.8l-7.2-7.2M198.3 274.9l-7.2-7.2M198.3 279l-7.2-7.2M198.3 283l-7.2-7.2M198.3 286.9l-7.2-7.2M198.3 291l-7.2-7.2M198.3 295l-7.2-7.2M198.3 298.9l-7.2-7.2M198.3 303l-7.2-7.2M197.4 303.7l.9-1M195.2 301.8l3.1-2.9M193.3 299.6l5-4.8M191.4 297.7l6.9-7M191.1 294.1l7.2-7.2M191.1 290l7.2-7.2M191.1 285.9l7.2-7.2M191.1 281.8l7.2-7.2M191.1 278l7.2-7.2M191.1 273.9l7.2-7.2M191.1 269.8l7.2-7.2M191.1 266l7.2-7.2M191.1 261.9l7.2-7.2M191.1 257.8l7.2-7.2M191.1 253.8l7.2-7.2M191.1 249.9l7.2-7.2M191.1 245.8l7.2-7.2M191.1 241.8l7.2-7.2M191.1 237.9l7.2-7.2M191.1 233.8l7.2-7.2M191.1 229.8l3.6-3.6"/><path class="cls-22" d="M190.9 297.4l7.2 7.2v-78.4h-7.2v71.2"/><path class="cls-18" d="M198.3 226.9l-.7-.7M198.3 230.7l-4.8-4.5M198.3 234.8l-7.2-7.2M198.3 238.9l-7.2-7.2M198.3 242.7l-7.2-7.2M198.3 246.8l-7.2-7.2M198.3 250.9l-7.2-7.2M198.3 255l-7.2-7.2M198.3 258.8l-7.2-7.2M198.3 262.9l-7.2-7.2M198.3 267l-7.2-7.2M198.3 270.8l-7.2-7.2M198.3 274.9l-7.2-7.2M198.3 279l-7.2-7.2M198.3 283l-7.2-7.2M198.3 286.9l-7.2-7.2M198.3 291l-7.2-7.2M198.3 295l-7.2-7.2M198.3 298.9l-7.2-7.2M198.3 303l-7.2-7.2M197.4 303.7l.9-1M195.2 301.8l3.1-2.9M193.3 299.6l5-4.8M191.4 297.7l6.9-7M191.1 294.1l7.2-7.2M191.1 290l7.2-7.2M191.1 285.9l7.2-7.2M191.1 281.8l7.2-7.2M191.1 278l7.2-7.2M191.1 273.9l7.2-7.2M191.1 269.8l7.2-7.2M191.1 266l7.2-7.2M191.1 261.9l7.2-7.2M191.1 257.8l7.2-7.2M191.1 253.8l7.2-7.2M191.1 249.9l7.2-7.2M191.1 245.8l7.2-7.2M191.1 241.8l7.2-7.2M191.1 237.9l7.2-7.2M191.1 233.8l7.2-7.2M191.1 229.8l3.6-3.6"/><path class="cls-19" d="M198.1 304.6v-78.4M190.9 297.4v-71.2M190.9 297.4v-71.2M198.1 304.6v-78.4"/><path class="cls-4" d="M196.9 223.5h1.7v2.6h-1.7zM196.9 193.8h1.7v2.6h-1.7zM196.9 196.4h1.7v27.1h-1.7zM196.9 223.5v-27.1"/><path class="cls-16" d="M190.9 223.8v-27.6"/><path class="cls-4" d="M190.9 196.6v-.4"/><path class="cls-22" d="M190.9 226.2v-2.4h6v2.4h1.2"/><path class="cls-18" d="M197.1 225.7l-1.9-1.9M193.5 226.2l-2.4-2.4M194.7 226.2l2.4-2.4M191.1 225.9l1.9-2.1"/><path class="cls-19" d="M190.9 226.2v-2.4h6v2.4h1.2"/><path class="cls-22" d="M190.9 193.8v2.3h6v-2.3h1.1"/><path class="cls-18" d="M195.7 196.2l-2.4-2.4M191.6 196.2l-.5-.8M196.6 196.2l.5-.5M192.6 196.2l2.4-2.4"/><path class="cls-19" d="M190.9 196.1h6v-2.3h1.1"/><path class="cls-18" d="M198.6 223.5c14.9 0 27.2-12.3 27.2-27.2M198.6 196.4h27.1"/><path class="cls-22" d="M.8 304.6l7-9.8v-68.6h-7v78.4"/><path class="cls-18" d="M8 228.8l-2.9-2.6M8 232.9l-7-6.7M8 237l-7-7M8 241l-7-6.9M8 244.9l-7-7M8 249l-7-7M8 253l-7-6.9M8 256.9l-7-7M8 261l-7-7M8 265l-7-6.9M8 268.9l-7-7M8 273l-7-7M8 277l-7-6.9M8 281.1l-7-6.9M8 285l-7-7M8 289l-7-6.9M8 293.1l-7-6.9M7 296l-6-6M5.4 298.4L1 294.1M3.7 300.8L1 298.2M2 303.2L1 302M1 303.7l2.2-2.4M1 299.6l7-7M1 295.5l7-6.9M1 291.7l7-7M1 287.6l7-7M1 283.5l7-6.9M1 279.7l7-7M1 275.6l7-7M1 271.5l7-6.9M1 267.7l7-7M1 263.6l7-7M1 259.5l7-6.9M1 255.4l7-6.9M1 251.6l7-7M1 247.5l7-6.9M1 243.4l7-6.9M1 239.6l7-7M1 235.5l7-6.9M1 231.4l5.3-5.2M1 227.6l1.2-1.4"/><path class="cls-22" d="M.8 304.6l7-9.8v-68.6h-7v78.4"/><path class="cls-18" d="M8 228.8l-2.9-2.6M8 232.9l-7-6.7M8 237l-7-7M8 241l-7-6.9M8 244.9l-7-7M8 249l-7-7M8 253l-7-6.9M8 256.9l-7-7M8 261l-7-7M8 265l-7-6.9M8 268.9l-7-7M8 273l-7-7M8 277l-7-6.9M8 281.1l-7-6.9M8 285l-7-7M8 289l-7-6.9M8 293.1l-7-6.9M7 296l-6-6M5.4 298.4L1 294.1M3.7 300.8L1 298.2M2 303.2L1 302M1 303.7l2.2-2.4M1 299.6l7-7M1 295.5l7-6.9M1 291.7l7-7M1 287.6l7-7M1 283.5l7-6.9M1 279.7l7-7M1 275.6l7-7M1 271.5l7-6.9M1 267.7l7-7M1 263.6l7-7M1 259.5l7-6.9M1 255.4l7-6.9M1 251.6l7-7M1 247.5l7-6.9M1 243.4l7-6.9M1 239.6l7-7M1 235.5l7-6.9M1 231.4l5.3-5.2M1 227.6l1.2-1.4"/><path class="cls-19" d="M.8 226.2v78.4M7.8 240.1v54.7M7.8 226.2v3.6M7.8 240.1v54.7M.8 226.2v78.4M7.8 226.2v3.6"/><path class="cls-22" d="M.8 193.8h4.8L.8 189v4.8"/><path class="cls-18" d="M4.9 193.8L1 189.9M2.5 193.8l1.7-1.7M1 191.4l1.2-1.2"/><path class="cls-22" d="M.8 193.8h4.8L.8 189v4.8"/><path class="cls-18" d="M4.9 193.8L1 189.9M2.5 193.8l1.7-1.7M1 191.4l1.2-1.2"/><path class="cls-19" d="M.8 189v4.8M.8 189v4.8"/><path class="cls-4" d="M0 193.8h1.7v2.6H0zM0 223.5h1.7v2.6H0zM0 196.4h1.7v27.1H0zM1.8 196.4v27.1"/><path class="cls-16" d="M7.8 196.2v27.6"/><path class="cls-4" d="M7.8 223.3v.5"/><path class="cls-22" d="M7.8 193.8v2.3h-6v-2.3H.7"/><path class="cls-18" d="M7.3 196.2l-2.4-2.4M3.2 196.2L2 195M4.2 196.2l2.4-2.4M2 194.5l.5-.7"/><path class="cls-19" d="M7.8 196.1h-6v-2.3H.7"/><path class="cls-22" d="M7.8 226.2v-2.4h-6v2.4h-1"/><path class="cls-18" d="M8 225l-1.2-1.2M5.1 226.2l-2.4-2.4M6.3 226.2l1.7-1.7M2.2 226.2l2.4-2.4"/><path class="cls-19" d="M7.8 226.2v-2.4h-6v2.4h-1"/><path class="cls-22" d="M53.1 294.8l5.8 9.8v-74.8l-5.8 10.3v54.7"/><path class="cls-18" d="M59.1 231.9l-.9-.7M59.1 236l-2.4-2.4M59.1 239.8l-3.8-3.6M59.1 243.9l-5.3-5M59.1 248l-5.7-5.8M59.1 252.1l-5.7-5.8M59.1 255.9l-5.7-5.7M59.1 260l-5.7-5.8M59.1 264.1l-5.7-5.8M59.1 267.9l-5.7-5.7M59.1 272l-5.7-5.8M59.1 276.1l-5.7-5.8M59.1 279.9l-5.7-5.7M59.1 284l-5.7-5.8M59.1 288.1l-5.7-5.8M59.1 292.2l-5.7-5.8M59.1 296l-5.7-5.8M59.1 300.1l-5.7-5.8M59.1 304.2l-.9-1M57.9 302.7l1.2-.9M56.5 300.3l2.6-2.6M55 297.7l4.1-4.1M53.4 295.3l5.7-5.5M53.4 291.4l5.7-5.7M53.4 287.4l5.7-5.8M53.4 283.5l5.7-5.7M53.4 279.4l5.7-5.7M53.4 275.4l5.7-5.8M53.4 271.3l5.7-5.8M53.4 267.4l5.7-5.7M53.4 263.4l5.7-5.8M53.4 259.3l5.7-5.8M53.4 255.4l5.7-5.7M53.4 251.4l5.7-5.8M53.4 247.3l5.7-5.8M53.4 243.2l5.7-5.8M54.3 238.4l4.8-4.8"/><path class="cls-22" d="M53.1 294.8l5.8 9.8v-74.8l-5.8 10.3v54.7"/><path class="cls-18" d="M59.1 231.9l-.9-.7M59.1 236l-2.4-2.4M59.1 239.8l-3.8-3.6M59.1 243.9l-5.3-5M59.1 248l-5.7-5.8M59.1 252.1l-5.7-5.8M59.1 255.9l-5.7-5.7M59.1 260l-5.7-5.8M59.1 264.1l-5.7-5.8M59.1 267.9l-5.7-5.7M59.1 272l-5.7-5.8M59.1 276.1l-5.7-5.8M59.1 279.9l-5.7-5.7M59.1 284l-5.7-5.8M59.1 288.1l-5.7-5.8M59.1 292.2l-5.7-5.8M59.1 296l-5.7-5.8M59.1 300.1l-5.7-5.8M59.1 304.2l-.9-1M57.9 302.7l1.2-.9M56.5 300.3l2.6-2.6M55 297.7l4.1-4.1M53.4 295.3l5.7-5.5M53.4 291.4l5.7-5.7M53.4 287.4l5.7-5.8M53.4 283.5l5.7-5.7M53.4 279.4l5.7-5.7M53.4 275.4l5.7-5.8M53.4 271.3l5.7-5.8M53.4 267.4l5.7-5.7M53.4 263.4l5.7-5.8M53.4 259.3l5.7-5.8M53.4 255.4l5.7-5.7M53.4 251.4l5.7-5.8M53.4 247.3l5.7-5.8M53.4 243.2l5.7-5.8M54.3 238.4l4.8-4.8"/><path class="cls-19" d="M53.1 240.1v54.7M58.9 229.8v67.6M58.9 229.8v67.6M53.1 240.1v54.7"/><path class="cls-22" d="M102.8 304.6h-7v82.6h7v-82.6"/><path class="cls-18" d="M103 308l-3.3-3.4M103 311.8l-6.9-6.9M103 315.9l-6.9-6.9M103 320l-6.9-7M103 323.8l-6.9-6.9M103 327.9l-6.9-6.9M103 332l-6.9-7M103 336.1l-6.9-7M103 339.9l-6.9-6.9M103 344l-6.9-7M103 348.1l-6.9-7M103 351.9l-6.9-6.9M103 356l-6.9-7M103 360.1l-6.9-7M103 363.9l-6.9-6.9M103 368l-6.9-7M103 372.1l-6.9-7M103 376.2l-6.9-7M103 380l-6.9-7M103 384.1l-6.9-7M102.1 387.2l-6-6M98 387.2l-1.9-2.2M101.8 387.2l1.2-1.2M97.8 387.2l5.2-5M96.1 385l6.9-6.9M96.1 381l6.9-7M96.1 376.9l6.9-7M96.1 373l6.9-6.9M96.1 369l6.9-7M96.1 364.9l6.9-7M96.1 361l6.9-6.9M96.1 357l6.9-7M96.1 352.9l6.9-7M96.1 348.8l6.9-7M96.1 345l6.9-7M96.1 340.9l6.9-7M96.1 336.8l6.9-7M96.1 333l6.9-7M96.1 328.9l6.9-7M96.1 324.8l6.9-7M96.1 321l6.9-7M96.1 316.9l6.9-7M96.1 312.8l6.9-7M96.1 308.7l4.1-4.1M96.1 304.9v-.3"/><path class="cls-22" d="M102.8 304.6h-7v82.6h7v-82.6"/><path class="cls-18" d="M103 308l-3.3-3.4M103 311.8l-6.9-6.9M103 315.9l-6.9-6.9M103 320l-6.9-7M103 323.8l-6.9-6.9M103 327.9l-6.9-6.9M103 332l-6.9-7M103 336.1l-6.9-7M103 339.9l-6.9-6.9M103 344l-6.9-7M103 348.1l-6.9-7M103 351.9l-6.9-6.9M103 356l-6.9-7M103 360.1l-6.9-7M103 363.9l-6.9-6.9M103 368l-6.9-7M103 372.1l-6.9-7M103 376.2l-6.9-7M103 380l-6.9-7M103 384.1l-6.9-7M102.1 387.2l-6-6M98 387.2l-1.9-2.2M101.8 387.2l1.2-1.2M97.8 387.2l5.2-5M96.1 385l6.9-6.9M96.1 381l6.9-7M96.1 376.9l6.9-7M96.1 373l6.9-6.9M96.1 369l6.9-7M96.1 364.9l6.9-7M96.1 361l6.9-6.9M96.1 357l6.9-7M96.1 352.9l6.9-7M96.1 348.8l6.9-7M96.1 345l6.9-7M96.1 340.9l6.9-7M96.1 336.8l6.9-7M96.1 333l6.9-7M96.1 328.9l6.9-7M96.1 324.8l6.9-7M96.1 321l6.9-7M96.1 316.9l6.9-7M96.1 312.8l6.9-7M96.1 308.7l4.1-4.1M96.1 304.9v-.3"/><path class="cls-19" d="M102.8 387.2v-82.6M95.8 387.2v-82.6M95.8 387.2v-82.6M102.8 387.2v-82.6M102.8 387.2h-7"/><path class="cls-4" d="M190.9 258.3h-34.1M190.9 250.6h-34.1M190.9 243h-34.1M190.9 235.3h-34.1M58.9 235.3h33.8M58.9 243h33.8M58.9 250.6h33.8M58.9 258.3h33.8M132.6 297.4l7.9-35.2M92.7 230h64.1v33.6H92.7zM75.9 235.3l-3.8 3.8h7.7l-3.9-3.8zM151.8 263.6v33.8M144.1 263.6v33.8M136.4 263.6v33.8M128.7 263.6v33.8M121 263.6v33.8M113.4 263.6v33.8M105.7 263.6v33.8M98 263.6v33.8"/><path class="cls-4" d="M94.2 231.4h61.4v30.7H94.2zM98 280.6l3.8 3.9v-7.7l-3.8 3.8zM136.4 280.6l3.8 3.9v-7.7l-3.8 3.8zM173.8 258.3l3.9-3.8H170l3.8 3.8z"/><path class="cls-22" d="M95.8 66.3V189h7V66.3h-7"/><path class="cls-18" d="M103 67.3l-1.2-1M103 71.4l-5.2-5.1M103 75.4l-6.9-6.9M103 79.5l-6.9-6.9M103 83.4l-6.9-7M103 87.4l-6.9-6.9M103 91.5l-6.9-6.9M103 95.4l-6.9-7M103 99.4l-6.9-6.9M103 103.5l-6.9-6.9M103 107.4l-6.9-7M103 111.4l-6.9-6.9M103 115.5l-6.9-6.9M103 119.6l-6.9-7M103 123.4l-6.9-6.9M103 127.5l-6.9-6.9M103 131.6l-6.9-7M103 135.4l-6.9-6.9M103 139.5l-6.9-6.9M103 143.6l-6.9-7M103 147.4l-6.9-6.9M103 151.5l-6.9-6.9M103 155.6l-6.9-7M103 159.7l-6.9-7M103 163.5l-6.9-6.9M103 167.6l-6.9-7M103 171.7l-6.9-7M103 175.5l-6.9-6.9M103 179.6l-6.9-7M103 183.7l-6.9-7M103 187.8l-6.9-7M100.2 189l-4.1-4.4M96.3 189l-.2-.3M99.7 189l3.3-3.4M96.1 188.5l6.9-7M96.1 184.6l6.9-6.9M96.1 180.6l6.9-7M96.1 176.5l6.9-7M96.1 172.6l6.9-6.9M96.1 168.6l6.9-7M96.1 164.5l6.9-7M96.1 160.4l6.9-7M96.1 156.6l6.9-7M96.1 152.5l6.9-7M96.1 148.4l6.9-7M96.1 144.6l6.9-7M96.1 140.5l6.9-7M96.1 136.4l6.9-7M96.1 132.6l6.9-7M96.1 128.5l6.9-7M96.1 124.4l6.9-7M96.1 120.3l6.9-6.9M96.1 116.5l6.9-7M96.1 112.4l6.9-7M96.1 108.3l6.9-6.9M96.1 104.5l6.9-7M96.1 100.4l6.9-7M96.1 96.3l6.9-6.9M96.1 92.2l6.9-6.9M96.1 88.4l6.9-7M96.1 84.3l6.9-6.9M96.1 80.2l6.9-6.9M96.1 76.4l6.9-7M96.1 72.3l5.7-6M96.1 68.2l1.9-1.9"/><path class="cls-22" d="M95.8 66.3V189h7V66.3h-7"/><path class="cls-18" d="M103 67.3l-1.2-1M103 71.4l-5.2-5.1M103 75.4l-6.9-6.9M103 79.5l-6.9-6.9M103 83.4l-6.9-7M103 87.4l-6.9-6.9M103 91.5l-6.9-6.9M103 95.4l-6.9-7M103 99.4l-6.9-6.9M103 103.5l-6.9-6.9M103 107.4l-6.9-7M103 111.4l-6.9-6.9M103 115.5l-6.9-6.9M103 119.6l-6.9-7M103 123.4l-6.9-6.9M103 127.5l-6.9-6.9M103 131.6l-6.9-7M103 135.4l-6.9-6.9M103 139.5l-6.9-6.9M103 143.6l-6.9-7M103 147.4l-6.9-6.9M103 151.5l-6.9-6.9M103 155.6l-6.9-7M103 159.7l-6.9-7M103 163.5l-6.9-6.9M103 167.6l-6.9-7M103 171.7l-6.9-7M103 175.5l-6.9-6.9M103 179.6l-6.9-7M103 183.7l-6.9-7M103 187.8l-6.9-7M100.2 189l-4.1-4.4M96.3 189l-.2-.3M99.7 189l3.3-3.4M96.1 188.5l6.9-7M96.1 184.6l6.9-6.9M96.1 180.6l6.9-7M96.1 176.5l6.9-7M96.1 172.6l6.9-6.9M96.1 168.6l6.9-7M96.1 164.5l6.9-7M96.1 160.4l6.9-7M96.1 156.6l6.9-7M96.1 152.5l6.9-7M96.1 148.4l6.9-7M96.1 144.6l6.9-7M96.1 140.5l6.9-7M96.1 136.4l6.9-7M96.1 132.6l6.9-7M96.1 128.5l6.9-7M96.1 124.4l6.9-7M96.1 120.3l6.9-6.9M96.1 116.5l6.9-7M96.1 112.4l6.9-7M96.1 108.3l6.9-6.9M96.1 104.5l6.9-7M96.1 100.4l6.9-7M96.1 96.3l6.9-6.9M96.1 92.2l6.9-6.9M96.1 88.4l6.9-7M96.1 84.3l6.9-6.9M96.1 80.2l6.9-6.9M96.1 76.4l6.9-7M96.1 72.3l5.7-6M96.1 68.2l1.9-1.9"/><path class="cls-19" d="M102.8 189V66.3M95.8 189V66.3M102.8 66.3h-7M95.8 189V66.3M102.8 189V66.3"/><path class="cls-22" d="M53.1 240.1l5.8-10.3H43.5v10.3h9.6"/><path class="cls-18" d="M58.2 231.2l-1.2-1.4M56.7 233.6l-3.8-3.8M55.3 236.2l-6.5-6.4M53.8 238.9l-9.1-9.1M51.2 240.1l-7.4-7.5M47.1 240.1l-3.3-3.4M52.4 240.1l1.9-1.7M48.6 240.1l10.3-10.3M44.5 240.1l10.3-10.3M43.8 237l6.9-7.2M43.8 232.9l2.8-3.1"/><path class="cls-22" d="M53.1 240.1l5.8-10.3H43.5v10.3h9.6"/><path class="cls-18" d="M58.2 231.2l-1.2-1.4M56.7 233.6l-3.8-3.8M55.3 236.2l-6.5-6.4M53.8 238.9l-9.1-9.1M51.2 240.1l-7.4-7.5M47.1 240.1l-3.3-3.4M52.4 240.1l1.9-1.7M48.6 240.1l10.3-10.3M44.5 240.1l10.3-10.3M43.8 237l6.9-7.2M43.8 232.9l2.8-3.1"/><path class="cls-19" d="M43.5 240.1h9.6M43.5 229.8h15.4M43.5 229.8h15.4M43.5 240.1h9.6"/><path class="cls-4" d="M10.9 238.6h29.5"/><path class="cls-16" d="M10.9 229.8h29.5"/><path class="cls-4" d="M39.9 229.8h.5"/><path class="cls-22" d="M7.8 229.8h3.1v8.8H7.8"/><path class="cls-18" d="M11.1 231.9l-2.4-2.1M11.1 236L8 232.9M9.7 238.6L8 237M9.9 238.6l1.2-1.2M8 236.5l3.1-3.1M8 232.6l2.6-2.8"/><path class="cls-22" d="M43.5 229.8h-3.1v8.8h3.1"/><path class="cls-18" d="M43.8 232.6l-2.9-2.8M43.8 236.7l-3.2-3.1M41.6 238.6l-1-1.2M41.8 238.6l2-1.6M40.6 236l3.2-3.1M40.6 231.9l2.2-2.1"/><path class="cls-19" d="M10.9 229.8v8.8M40.4 229.8v8.8M10.9 229.8v8.8M7.8 229.8h3.1M40.4 229.8v8.8M43.5 229.8h-3.1M7.8 240.1v-1.5M43.5 240.1v-1.5M7.8 229.8h3.1M43.5 229.8h-3.1M10.9 238.6H7.8M40.4 238.6h3.1"/><path class="cls-22" d="M7.8 294.8l-7 9.8h58.1l-5.8-9.8H7.8"/><path class="cls-18" d="M58.2 303.2l-8.4-8.4M55.5 304.6l-9.8-9.8M51.4 304.6l-9.8-9.8M47.6 304.6l-9.8-9.8M43.5 304.6l-9.8-9.8M39.4 304.6l-9.8-9.8M35.6 304.6l-9.8-9.8M31.5 304.6l-9.8-9.8M27.4 304.6l-9.8-9.8M23.6 304.6l-9.8-9.8M19.5 304.6l-9.8-9.8M15.4 304.6L7 296M11.4 304.6l-6-6.2M7.5 304.6l-3.8-3.8M3.4 304.6L2 303.2M56 304.6l1.9-1.9M52.2 304.6l4.3-4.3M48.1 304.6l6.9-6.9M44 304.6l9.4-9.3M39.9 304.6l9.9-9.8M36.1 304.6l9.8-9.8M32 304.6l9.8-9.8M27.9 304.6l9.9-9.8M24.1 304.6l9.8-9.8M20 304.6l9.8-9.8M15.9 304.6l9.9-9.8M11.8 304.6l9.9-9.8M8 304.6l9.8-9.8M3.9 304.6l9.9-9.8M3.2 301.3l6.5-6.5"/><path class="cls-22" d="M7.8 294.8l-7 9.8h58.1l-5.8-9.8H7.8"/><path class="cls-18" d="M58.2 303.2l-8.4-8.4M55.5 304.6l-9.8-9.8M51.4 304.6l-9.8-9.8M47.6 304.6l-9.8-9.8M43.5 304.6l-9.8-9.8M39.4 304.6l-9.8-9.8M35.6 304.6l-9.8-9.8M31.5 304.6l-9.8-9.8M27.4 304.6l-9.8-9.8M23.6 304.6l-9.8-9.8M19.5 304.6l-9.8-9.8M15.4 304.6L7 296M11.4 304.6l-6-6.2M7.5 304.6l-3.8-3.8M3.4 304.6L2 303.2M56 304.6l1.9-1.9M52.2 304.6l4.3-4.3M48.1 304.6l6.9-6.9M44 304.6l9.4-9.3M39.9 304.6l9.9-9.8M36.1 304.6l9.8-9.8M32 304.6l9.8-9.8M27.9 304.6l9.9-9.8M24.1 304.6l9.8-9.8M20 304.6l9.8-9.8M15.9 304.6l9.9-9.8M11.8 304.6l9.9-9.8M8 304.6l9.8-9.8M3.9 304.6l9.9-9.8M3.2 301.3l6.5-6.5"/><path class="cls-19" d="M53.1 294.8H7.8M58.9 304.6H.8M58.9 304.6H.8M53.1 294.8H7.8"/><path class="cls-22" d="M408.8 387.2h-7.2V66.3h7.2v320.9"/><path class="cls-18" d="M409 68.7l-2.4-2.4M409 72.8l-6.4-6.5M409 76.6l-7.2-7.2M409 80.7l-7.2-7.2M409 84.8l-7.2-7.2M409 88.6l-7.2-7.2M409 92.7l-7.2-7.2M409 96.8l-7.2-7.2M409 100.9l-7.2-7.2M409 104.7l-7.2-7.2M409 108.8l-7.2-7.2M409 112.9l-7.2-7.2M409 116.7l-7.2-7.2M409 120.8l-7.2-7.2M409 124.9l-7.2-7.2M409 129l-7.2-7.2M409 132.8l-7.2-7.2M409 136.9l-7.2-7.2M409 141l-7.2-7.2M409 144.8l-7.2-7.2M409 148.9l-7.2-7.2M409 153l-7.2-7.2M409 156.8l-7.2-7.2M409 160.9l-7.2-7.2M409 165l-7.2-7.2M409 169l-7.2-7.2M409 172.9l-7.2-7.2M409 177l-7.2-7.2M409 181l-7.2-7.2M409 184.9l-7.2-7.2M409 189l-7.2-7.2M409 193l-7.2-7.2M409 196.9l-7.2-7.2M409 201l-7.2-7.2M409 205l-7.2-7.2M409 209.1l-7.2-7.2M409 213l-7.2-7.2M409 217l-7.2-7.2M409 221.1l-7.2-7.2M409 225l-7.2-7.2M409 229l-7.2-7.2M409 233.1l-7.2-7.2M409 237.2l-7.2-7.2M409 241l-7.2-7.2M409 245.1l-7.2-7.2M409 249.2l-7.2-7.2M409 253l-7.2-7.2M409 257.1l-7.2-7.2M409 261.2l-7.2-7.2M409 265l-7.2-7.2M409 269.1l-7.2-7.2M409 273.2l-7.2-7.2M409 277.3l-7.2-7.2M409 281.1l-7.2-7.2M409 285.2l-7.2-7.2M409 289.3l-7.2-7.2M409 293.1l-7.2-7.2M409 297.2l-7.2-7.2M409 301.3l-7.2-7.2M409 305.1l-7.2-7.2M409 309.2l-7.2-7.2M409 313.3l-7.2-7.2M409 317.4l-7.2-7.2M409 321.2l-7.2-7.2M409 325.3l-7.2-7.2M409 329.4l-7.2-7.2M409 333.2l-7.2-7.2M409 337.3l-7.2-7.2M409 341.4l-7.2-7.2M409 345.2l-7.2-7.2M409 349.3l-7.2-7.2M409 353.4l-7.2-7.2M409 357.4l-7.2-7.2M409 361.3l-7.2-7.2M409 365.4l-7.2-7.2M409 369.4l-7.2-7.2M409 373.3l-7.2-7.2M409 377.4l-7.2-7.2M409 381.4l-7.2-7.2M409 385.5l-7.2-7.2M406.6 387.2l-4.8-5M402.8 387.2l-1-1M406.4 387.2l2.6-2.4M402.3 387.2l6.7-6.5M401.8 383.8l7.2-7.2M401.8 380l7.2-7.2M401.8 375.9l7.2-7.2M401.8 371.8l7.2-7.2M401.8 367.8l7.2-7.2M401.8 363.9l7.2-7.2M401.8 359.8l7.2-7.2M401.8 355.8l7.2-7.2M401.8 351.9l7.2-7.2M401.8 347.8l7.2-7.2M401.8 343.8l7.2-7.2M401.8 339.9l7.2-7.2M401.8 335.8l7.2-7.2M401.8 331.8l7.2-7.2M401.8 327.7l7.2-7.2M401.8 323.8l7.2-7.2M401.8 319.8l7.2-7.2M401.8 315.7l7.2-7.2M401.8 311.8l7.2-7.2M401.8 307.8l7.2-7.2M401.8 303.7l7.2-7.2M401.8 299.8l7.2-7.2M401.8 295.8l7.2-7.2M401.8 291.7l7.2-7.2M401.8 287.6l7.2-7.2M401.8 283.8l7.2-7.2M401.8 279.7l7.2-7.2M401.8 275.6l7.2-7.2M401.8 271.8l7.2-7.2M401.8 267.7l7.2-7.2M401.8 263.6l7.2-7.2M401.8 259.5l7.2-7.2M401.8 255.7l7.2-7.2M401.8 251.6l7.2-7.2M401.8 247.5l7.2-7.2M401.8 243.7l7.2-7.2M401.8 239.6l7.2-7.2M401.8 235.5l7.2-7.2M401.8 231.7l7.2-7.2M401.8 227.6l7.2-7.2M401.8 223.5l7.2-7.2M401.8 219.4l7.2-7.2M401.8 215.6l7.2-7.2M401.8 211.5l7.2-7.2M401.8 207.4l7.2-7.2M401.8 203.6l7.2-7.2M401.8 199.5l7.2-7.2M401.8 195.4l7.2-7.2M401.8 191.6l7.2-7.2M401.8 187.5l7.2-7.2M401.8 183.4l7.2-7.2M401.8 179.4l7.2-7.2M401.8 175.5l7.2-7.2M401.8 171.4l7.2-7.2M401.8 167.4l7.2-7.2M401.8 163.5l7.2-7.2M401.8 159.4l7.2-7.2M401.8 155.4l7.2-7.2M401.8 151.3l7.2-7.2M401.8 147.4l7.2-7.2M401.8 143.4l7.2-7.2M401.8 139.3l7.2-7.2M401.8 135.4l7.2-7.2M401.8 131.4l7.2-7.2M401.8 127.3l7.2-7.2M401.8 123.4l7.2-7.2M401.8 119.4l7.2-7.2M401.8 115.3l7.2-7.2M401.8 111.2l7.2-7.2M401.8 107.4l7.2-7.2M401.8 103.3l7.2-7.2M401.8 99.2L409 92M401.8 95.4l7.2-7.2M401.8 91.3l7.2-7.2M401.8 87.2L409 80M401.8 83.4l7.2-7.2M401.8 79.3l7.2-7.2M401.8 75.2L409 68M401.8 71.1l4.8-4.8M401.8 67.3l.8-1"/><path class="cls-22" d="M401.6 387.2h7.2V66.3h-7.2v320.9"/><path class="cls-18" d="M409 68.7l-2.4-2.4M409 72.8l-6.4-6.5M409 76.6l-7.2-7.2M409 80.7l-7.2-7.2M409 84.8l-7.2-7.2M409 88.6l-7.2-7.2M409 92.7l-7.2-7.2M409 96.8l-7.2-7.2M409 100.9l-7.2-7.2M409 104.7l-7.2-7.2M409 108.8l-7.2-7.2M409 112.9l-7.2-7.2M409 116.7l-7.2-7.2M409 120.8l-7.2-7.2M409 124.9l-7.2-7.2M409 129l-7.2-7.2M409 132.8l-7.2-7.2M409 136.9l-7.2-7.2M409 141l-7.2-7.2M409 144.8l-7.2-7.2M409 148.9l-7.2-7.2M409 153l-7.2-7.2M409 156.8l-7.2-7.2M409 160.9l-7.2-7.2M409 165l-7.2-7.2M409 169l-7.2-7.2M409 172.9l-7.2-7.2M409 177l-7.2-7.2M409 181l-7.2-7.2M409 184.9l-7.2-7.2M409 189l-7.2-7.2M409 193l-7.2-7.2M409 196.9l-7.2-7.2M409 201l-7.2-7.2M409 205l-7.2-7.2M409 209.1l-7.2-7.2M409 213l-7.2-7.2M409 217l-7.2-7.2M409 221.1l-7.2-7.2M409 225l-7.2-7.2M409 229l-7.2-7.2M409 233.1l-7.2-7.2M409 237.2l-7.2-7.2M409 241l-7.2-7.2M409 245.1l-7.2-7.2M409 249.2l-7.2-7.2M409 253l-7.2-7.2M409 257.1l-7.2-7.2M409 261.2l-7.2-7.2M409 265l-7.2-7.2M409 269.1l-7.2-7.2M409 273.2l-7.2-7.2M409 277.3l-7.2-7.2M409 281.1l-7.2-7.2M409 285.2l-7.2-7.2M409 289.3l-7.2-7.2M409 293.1l-7.2-7.2M409 297.2l-7.2-7.2M409 301.3l-7.2-7.2M409 305.1l-7.2-7.2M409 309.2l-7.2-7.2M409 313.3l-7.2-7.2M409 317.4l-7.2-7.2M409 321.2l-7.2-7.2M409 325.3l-7.2-7.2M409 329.4l-7.2-7.2M409 333.2l-7.2-7.2M409 337.3l-7.2-7.2M409 341.4l-7.2-7.2M409 345.2l-7.2-7.2M409 349.3l-7.2-7.2M409 353.4l-7.2-7.2M409 357.4l-7.2-7.2M409 361.3l-7.2-7.2M409 365.4l-7.2-7.2M409 369.4l-7.2-7.2M409 373.3l-7.2-7.2M409 377.4l-7.2-7.2M409 381.4l-7.2-7.2M409 385.5l-7.2-7.2M406.6 387.2l-4.8-5M402.8 387.2l-1-1M406.4 387.2l2.6-2.4M402.3 387.2l6.7-6.5M401.8 383.8l7.2-7.2M401.8 380l7.2-7.2M401.8 375.9l7.2-7.2M401.8 371.8l7.2-7.2M401.8 367.8l7.2-7.2M401.8 363.9l7.2-7.2M401.8 359.8l7.2-7.2M401.8 355.8l7.2-7.2M401.8 351.9l7.2-7.2M401.8 347.8l7.2-7.2M401.8 343.8l7.2-7.2M401.8 339.9l7.2-7.2M401.8 335.8l7.2-7.2M401.8 331.8l7.2-7.2M401.8 327.7l7.2-7.2M401.8 323.8l7.2-7.2M401.8 319.8l7.2-7.2M401.8 315.7l7.2-7.2M401.8 311.8l7.2-7.2M401.8 307.8l7.2-7.2M401.8 303.7l7.2-7.2M401.8 299.8l7.2-7.2M401.8 295.8l7.2-7.2M401.8 291.7l7.2-7.2M401.8 287.6l7.2-7.2M401.8 283.8l7.2-7.2M401.8 279.7l7.2-7.2M401.8 275.6l7.2-7.2M401.8 271.8l7.2-7.2M401.8 267.7l7.2-7.2M401.8 263.6l7.2-7.2M401.8 259.5l7.2-7.2M401.8 255.7l7.2-7.2M401.8 251.6l7.2-7.2M401.8 247.5l7.2-7.2M401.8 243.7l7.2-7.2M401.8 239.6l7.2-7.2M401.8 235.5l7.2-7.2M401.8 231.7l7.2-7.2M401.8 227.6l7.2-7.2M401.8 223.5l7.2-7.2M401.8 219.4l7.2-7.2M401.8 215.6l7.2-7.2M401.8 211.5l7.2-7.2M401.8 207.4l7.2-7.2M401.8 203.6l7.2-7.2M401.8 199.5l7.2-7.2M401.8 195.4l7.2-7.2M401.8 191.6l7.2-7.2M401.8 187.5l7.2-7.2M401.8 183.4l7.2-7.2M401.8 179.4l7.2-7.2M401.8 175.5l7.2-7.2M401.8 171.4l7.2-7.2M401.8 167.4l7.2-7.2M401.8 163.5l7.2-7.2M401.8 159.4l7.2-7.2M401.8 155.4l7.2-7.2M401.8 151.3l7.2-7.2M401.8 147.4l7.2-7.2M401.8 143.4l7.2-7.2M401.8 139.3l7.2-7.2M401.8 135.4l7.2-7.2M401.8 131.4l7.2-7.2M401.8 127.3l7.2-7.2M401.8 123.4l7.2-7.2M401.8 119.4l7.2-7.2M401.8 115.3l7.2-7.2M401.8 111.2l7.2-7.2M401.8 107.4l7.2-7.2M401.8 103.3l7.2-7.2M401.8 99.2L409 92M401.8 95.4l7.2-7.2M401.8 91.3l7.2-7.2M401.8 87.2L409 80M401.8 83.4l7.2-7.2M401.8 79.3l7.2-7.2M401.8 75.2L409 68M401.8 71.1l4.8-4.8M401.8 67.3l.8-1"/><path class="cls-19" d="M408.8 387.2V66.3M401.6 387.2V66.3M408.8 66.3h-7.2M401.6 387.2V66.3M408.8 387.2V66.3M408.8 387.2h-7.2M198.1 71.4h-4.3"/><path class="cls-22" d="M193.8 97.5V189h4.3V97.5h-4.3"/><path class="cls-18" d="M194 99.4l1.7-1.9M194 103.8l4.3-4.4M194 107.8l4.3-4.3M194 112.2l4.3-4.4M194 116.5l4.3-4.3M194 120.6l4.3-4.4M194 124.9l4.3-4.3M194 129.2l4.3-4.3M194 133.5l4.3-4.3M194 137.6l4.3-4.3M194 141.9l4.3-4.3M194 146.2l4.3-4.3M194 150.3l4.3-4.3M194 154.6l4.3-4.3M194 159l4.3-4.4M194 163.3l4.3-4.3M194 167.4l4.3-4.4M194 171.7l4.3-4.3M194 176l4.3-4.3M194 180.1l4.3-4.3M194 184.4l4.3-4.3M194 188.7l4.3-4.3M197.8 189l.5-.3"/><path class="cls-22" d="M193.8 97.5V189h4.3V97.5h-4.3"/><path class="cls-18" d="M194 99.4l1.7-1.9M194 103.8l4.3-4.4M194 107.8l4.3-4.3M194 112.2l4.3-4.4M194 116.5l4.3-4.3M194 120.6l4.3-4.4M194 124.9l4.3-4.3M194 129.2l4.3-4.3M194 133.5l4.3-4.3M194 137.6l4.3-4.3M194 141.9l4.3-4.3M194 146.2l4.3-4.3M194 150.3l4.3-4.3M194 154.6l4.3-4.3M194 159l4.3-4.4M194 163.3l4.3-4.3M194 167.4l4.3-4.4M194 171.7l4.3-4.3M194 176l4.3-4.3M194 180.1l4.3-4.3M194 184.4l4.3-4.3M194 188.7l4.3-4.3M197.8 189l.5-.3"/><path class="cls-19" d="M198.1 189V97.5M193.8 189V97.5M193.8 189V97.5M198.1 189V97.5M193.8 189h4.3"/><path class="cls-4" d="M198.1 95.8h-4.3M198.1 73.3h-4.3"/><path class="cls-19" d="M198.1 97.5h-4.3M198.1 71.4h-4.3"/><path class="cls-18" d="M193.7 73.2c-12.4 0-22.7 10.2-22.7 22.7M193.8 95.8H171"/><path class="cls-22" d="M232.9 283l4.3 4.4h74.4V283h-78.7"/><path class="cls-18" d="M234.3 284.2l1.2-1.2M236.5 286.4l3.3-3.4M239.6 287.4l4.3-4.4M243.9 287.4l4.3-4.4M248.2 287.4l4.4-4.4M252.6 287.4l4.3-4.4M256.6 287.4l4.4-4.4M261 287.4l4.3-4.4M265.3 287.4l4.3-4.4M269.4 287.4l4.3-4.4M273.7 287.4l4.3-4.4M278 287.4l4.3-4.4M282.1 287.4l4.3-4.4M286.4 287.4l4.3-4.4M290.7 287.4l4.3-4.4M295 287.4l4.4-4.4M299.1 287.4l4.3-4.4M303.4 287.4l4.4-4.4M307.8 287.4l4-4.1"/><path class="cls-22" d="M232.9 283l4.3 4.4h74.4V283h-78.7"/><path class="cls-18" d="M234.3 284.2l1.2-1.2M236.5 286.4l3.3-3.4M239.6 287.4l4.3-4.4M243.9 287.4l4.3-4.4M248.2 287.4l4.4-4.4M252.6 287.4l4.3-4.4M256.6 287.4l4.4-4.4M261 287.4l4.3-4.4M265.3 287.4l4.3-4.4M269.4 287.4l4.3-4.4M273.7 287.4l4.3-4.4M278 287.4l4.3-4.4M282.1 287.4l4.3-4.4M286.4 287.4l4.3-4.4M290.7 287.4l4.3-4.4M295 287.4l4.4-4.4M299.1 287.4l4.3-4.4M303.4 287.4l4.4-4.4M307.8 287.4l4-4.1"/><path class="cls-19" d="M250.6 283h-17.7M311.6 283h-56.9M311.6 287.4h-74.4M311.6 287.4h-74.4M250.6 283h-17.7M311.6 283h-56.9"/><path class="cls-4" d="M311.1 287.8v61.7h-17.5v-44.4h-35v-17.3h52.5zM296 348.8h-2.4M296 340.4h-2.4M296 323.4h-2.4M296 306.3h-2.4"/><path class="cls-22" d="M276.4 292.9v8.9c0 .3 0 .5.2.8.1.2.2.5.4.6.2.2.4.3.6.4.2 0 .5.2.8.2h11.2c.3 0 .5 0 .8-.2.2-.1.5-.2.6-.4.2-.2.3-.4.4-.6.1-.2.2-.5.2-.8v-8.9c0-.3 0-.5-.2-.8 0-.2-.2-.5-.4-.6-.2-.2-.4-.3-.6-.4-.2-.1-.5-.2-.8-.2h-11.2c-.3 0-.5 0-.8.2-.2 0-.5.2-.6.4-.2.2-.3.4-.4.6 0 .2-.2.5-.2.8"/><path class="cls-4" d="M276.4 292.9v8.9c0 .3 0 .5.2.8.1.2.2.5.4.6.2.2.4.3.6.4.2 0 .5.2.8.2h11.2c.3 0 .5 0 .8-.2.2-.1.5-.2.6-.4.2-.2.3-.4.4-.6.1-.2.2-.5.2-.8v-8.9c0-.3 0-.5-.2-.8 0-.2-.2-.5-.4-.6-.2-.2-.4-.3-.6-.4-.2-.1-.5-.2-.8-.2h-11.2c-.3 0-.5 0-.8.2-.2 0-.5.2-.6.4-.2.2-.3.4-.4.6 0 .2-.2.5-.2.8"/><path class="cls-22" d="M285.2 294.2c0-.6-.5-1.1-1.2-1.1s-1.2.5-1.2 1.1.5 1.1 1.2 1.1 1.2-.5 1.2-1.1"/><path class="cls-4" d="M285.2 294.2c0-.6-.5-1.1-1.2-1.1s-1.2.5-1.2 1.1.5 1.1 1.2 1.1 1.2-.5 1.2-1.1"/><path class="cls-21" d="M295 323.8h14.6v15.8H295z"/><path class="cls-4" d="M295 323.8h14.6v15.8H295z"/><path class="cls-22" d="M302.7 335.8c0-1.6-1.3-2.9-2.9-2.9s-2.9 1.3-2.9 2.9 1.3 2.9 2.9 2.9 2.9-1.3 2.9-2.9"/><path class="cls-4" d="M302.7 335.8c0-1.6-1.3-2.9-2.9-2.9s-2.9 1.3-2.9 2.9 1.3 2.9 2.9 2.9 2.9-1.3 2.9-2.9"/><path class="cls-22" d="M308.7 336.8c0-1.2-1-2.2-2.2-2.2s-2.2 1-2.2 2.2 1 2.2 2.2 2.2 2.2-1 2.2-2.2"/><path class="cls-4" d="M308.7 336.8c0-1.2-1-2.2-2.2-2.2s-2.2 1-2.2 2.2 1 2.2 2.2 2.2 2.2-1 2.2-2.2"/><path class="cls-22" d="M302 328.3c0-1.3-1-2.3-2.2-2.3s-2.2 1-2.2 2.3 1 2.3 2.2 2.3 2.2-1 2.2-2.3"/><path class="cls-4" d="M302 328.3c0-1.3-1-2.3-2.2-2.3s-2.2 1-2.2 2.3 1 2.3 2.2 2.3 2.2-1 2.2-2.3"/><path class="cls-22" d="M309 328.5c0-1.5-1.2-2.8-2.8-2.8s-2.8 1.2-2.8 2.8 1.2 2.8 2.8 2.8 2.8-1.2 2.8-2.8"/><path class="cls-4" d="M309 328.5c0-1.5-1.2-2.8-2.8-2.8s-2.8 1.2-2.8 2.8 1.2 2.8 2.8 2.8 2.8-1.2 2.8-2.8"/><path class="cls-16" d="M301 287.8v61.7"/><path class="cls-4" d="M241 304.6h16.8v.5H241z"/><path class="cls-4" d="M257.4 289.3h.5v15.4h-.5zM241 289.3h.5v15.4h-.5zM241 288.8h16.8v.5H241zM237.4 304.6h3.6v.5h-3.6z"/><path class="cls-4" d="M257.8 287.8h.7v17.3h-.7zM292.6 303v2.1M275.6 303v2.1M258.6 303v2.1"/><path class="cls-22" d="M250.6 283h4.1v-2.6h-4.1v2.6"/><path class="cls-18" d="M250.9 280.6v-.2M252.6 283l2.4-2.4"/><path class="cls-22" d="M250.6 283h4.1v-2.6h-4.1v2.6"/><path class="cls-18" d="M250.9 280.6v-.2M252.6 283l2.4-2.4"/><path class="cls-19" d="M250.6 280.4v2.6M254.7 280.4v2.6M254.7 280.4v2.6M250.6 280.4v2.6"/><path class="cls-22" d="M250.6 248.7h4.1v5.1h-4.1v-5.1"/><path class="cls-18" d="M250.9 250.9l1.9-2.2M252.1 253.8l2.9-2.9"/><path class="cls-22" d="M254.7 248.7h-4.1v5.1h4.1v-5.1"/><path class="cls-18" d="M250.9 250.9l1.9-2.2M252.1 253.8l2.9-2.9"/><path class="cls-19" d="M250.6 248.7v5.1M250.6 248.7v5.1"/><path class="cls-22" d="M254.7 222.1v-37.9l-4.1-4.4v42.3h4.1"/><path class="cls-18" d="M250.9 182.7l1.2-1.4M250.9 187l3.3-3.6M250.9 191.4l4.1-4.1M250.9 195.4l4.1-4M250.9 199.8l4.1-4.1M250.9 204.1l4.1-4.1M250.9 208.4l4.1-4.1M250.9 212.5l4.1-4.1M250.9 216.8l4.1-4.1M250.9 221.1l4.1-4.1M254 222.1l1-1"/><path class="cls-22" d="M254.7 222.1v-37.9l-4.1-4.4v42.3h4.1"/><path class="cls-18" d="M250.9 182.7l1.2-1.4M250.9 187l3.3-3.6M250.9 191.4l4.1-4.1M250.9 195.4l4.1-4M250.9 199.8l4.1-4.1M250.9 204.1l4.1-4.1M250.9 208.4l4.1-4.1M250.9 212.5l4.1-4.1M250.9 216.8l4.1-4.1M250.9 221.1l4.1-4.1M254 222.1l1-1"/><path class="cls-19" d="M250.6 183.4v38.7M254.7 184.2v37.9M254.7 184.2v37.9M250.6 183.4v38.7"/><path class="cls-16" d="M250.6 222.1v26.6M254.7 222.1v26.6"/><path class="cls-4" d="M250.6 224.2h4.1M250.6 246.8h4.1"/><path class="cls-19" d="M250.6 222.1h4.1M250.6 248.7h4.1"/><path class="cls-18" d="M227.9 224.1c0 12.4 10.2 22.7 22.7 22.7M250.6 224.2h-22.8"/><path class="cls-16" d="M250.6 253.8v26.6M254.7 253.8v26.6"/><path class="cls-4" d="M250.6 255.7h4.1M250.6 278.5h4.1"/><path class="cls-19" d="M250.6 253.8h4.1M250.6 280.4h4.1"/><path class="cls-18" d="M250.6 255.7c-12.4 0-22.7 10.2-22.7 22.7M250.6 278.5h-22.8"/><path class="cls-4" d="M373.3 207.2h-57.6M371.8 205.8h-56.1M373.3 207.2h-57.6M315.7 205.8v1.4M374 207.9h-58.3M371.8 205.8h-56.1"/><path class="cls-22" d="M343.7 223c1.3.9 3 .9 4.3 0 1.9-1.5 2.9-3.8 2.9-6.2l-.3-9H341l-.3 9c0 2.4 1 4.7 2.9 6.2"/><path class="cls-4" d="M343.7 223c1.3.9 3 .9 4.3 0 1.9-1.5 2.9-3.8 2.9-6.2l-.3-9H341l-.3 9c0 2.4 1 4.7 2.9 6.2"/><path class="cls-22" d="M345.8 212.9c-1 0-2 .3-2.8 1.1-.7.7-1.2 1.7-1.2 2.7 0 2.1.9 4.1 2.5 5.4.9.6 2 .6 2.9 0 1.6-1.3 2.5-3.3 2.5-5.4 0-1-.4-2-1.2-2.7-.7-.7-1.7-1.1-2.8-1.1"/><path class="cls-4" d="M345.8 212.9c-1 0-2 .3-2.8 1.1-.7.7-1.2 1.7-1.2 2.7 0 2.1.9 4.1 2.5 5.4.9.6 2 .6 2.9 0 1.6-1.3 2.5-3.3 2.5-5.4 0-1-.4-2-1.2-2.7-.7-.7-1.7-1.1-2.8-1.1"/><path class="cls-22" d="M338.7 207.9v41.3h-22.5v-41.3h22.5"/><path class="cls-4" d="M316.2 207.9h22.6v41.3h-22.6zM316.2 209.8h22.5M373.3 198.6v8.6M371.8 198.6v7.2M373.3 198.6v8.6M374 198.6v9.3M371.8 198.6v7.2"/><path class="cls-22" d="M370.6 207.8v12.4c0 .1-.1.3-.2.4-.1.1-.2.2-.4.2H355.9c-.1 0-.3-.1-.4-.2-.1-.1-.2-.2-.2-.4v-12.4h15.6"/><path class="cls-4" d="M370.6 207.8v12.4c0 .1-.1.3-.2.4-.1.1-.2.2-.4.2H355.9c-.1 0-.3-.1-.4-.2-.1-.1-.2-.2-.2-.4v-12.4h15.6"/><path class="cls-22" d="M315.7 249.4v4.4H375v-4.4h-59.3"/><path class="cls-18" d="M315.9 253.8l4.1-4.4M320 253.8l4.3-4.4M324.3 253.8l4.3-4.4M328.6 253.8l4.4-4.4M332.7 253.8l4.3-4.4M337 253.8l4.4-4.4M341.4 253.8l4.3-4.4M345.4 253.8l4.4-4.4M349.8 253.8l4.3-4.4M354.1 253.8l4.3-4.4M358.4 253.8l4.3-4.4M362.5 253.8l4.3-4.4M366.8 253.8l4.3-4.4M371.1 253.8l4.1-4.1"/><path class="cls-22" d="M315.7 249.4v4.4H375v-4.4h-59.3"/><path class="cls-18" d="M315.9 253.8l4.1-4.4M320 253.8l4.3-4.4M324.3 253.8l4.3-4.4M328.6 253.8l4.4-4.4M332.7 253.8l4.3-4.4M337 253.8l4.4-4.4M341.4 253.8l4.3-4.4M345.4 253.8l4.4-4.4M349.8 253.8l4.3-4.4M354.1 253.8l4.3-4.4M358.4 253.8l4.3-4.4M362.5 253.8l4.3-4.4M366.8 253.8l4.3-4.4M371.1 253.8l4.1-4.1"/><path class="cls-19" d="M375 249.4h-59.3M375 253.8h-59.3M375 253.8h-59.3M375 249.4h-59.3M401.6 253.8v-4.4"/><path class="cls-4" d="M399.7 249.4v4.4M377.1 249.4v4.4"/><path class="cls-19" d="M401.6 249.4v4.4M375 249.4v4.4"/><path class="cls-18" d="M399.7 226.8c-12.4 0-22.7 10.2-22.7 22.7M399.7 249.4v-22.5"/><path class="cls-22" d="M315.7 194.2v4.4H375v-4.4h-59.3"/><path class="cls-18" d="M315.9 198.6l4.1-4.4M320 198.6l4.3-4.4M324.3 198.6l4.3-4.4M328.4 198.6l4.3-4.4M332.7 198.6l4.3-4.4M337 198.6l4.4-4.4M341.4 198.6l4.3-4.4M345.4 198.6l4.4-4.4M349.8 198.6l4.3-4.4M354.1 198.6l4.3-4.4M358.2 198.6l4.3-4.4M362.5 198.6l4.3-4.4M366.8 198.6l4.3-4.4M370.9 198.6l4.3-4.1"/><path class="cls-22" d="M315.7 194.2v4.4H375v-4.4h-59.3"/><path class="cls-18" d="M315.9 198.6l4.1-4.4M320 198.6l4.3-4.4M324.3 198.6l4.3-4.4M328.4 198.6l4.3-4.4M332.7 198.6l4.3-4.4M337 198.6l4.4-4.4M341.4 198.6l4.3-4.4M345.4 198.6l4.4-4.4M349.8 198.6l4.3-4.4M354.1 198.6l4.3-4.4M358.2 198.6l4.3-4.4M362.5 198.6l4.3-4.4M366.8 198.6l4.3-4.4M370.9 198.6l4.3-4.1"/><path class="cls-19" d="M375 194.2h-59.3M375 198.6h-59.3M375 198.6h-59.3M375 194.2h-59.3M401.6 198.6v-4.4"/><path class="cls-4" d="M399.7 194.2v4.4M377.1 194.2v4.4"/><path class="cls-19" d="M401.6 194.2v4.4M375 194.2v4.4"/><path class="cls-18" d="M377 198.5c0 12.4 10.2 22.7 22.7 22.7M399.7 198.6v22.5"/><path class="cls-22" d="M288.4 233.6c-.9 1.3-.9 3 0 4.3 1.5 1.9 3.8 2.9 6.2 2.9l9-.3v-9.6l-9-.3c-2.4 0-4.7 1-6.2 2.9"/><path class="cls-4" d="M288.4 233.6c-.9 1.3-.9 3 0 4.3 1.5 1.9 3.8 2.9 6.2 2.9l9-.3v-9.6l-9-.3c-2.4 0-4.7 1-6.2 2.9"/><path class="cls-22" d="M298.5 235.7c0-1-.3-2-1.1-2.8s-1.7-1.2-2.7-1.2c-2.1 0-4.1.9-5.4 2.5-.6.9-.6 2 0 2.9 1.3 1.6 3.3 2.5 5.4 2.5 1 0 2-.4 2.7-1.2.7-.7 1.1-1.8 1.1-2.8"/><path class="cls-4" d="M298.5 235.7c0-1-.3-2-1.1-2.8s-1.7-1.2-2.7-1.2c-2.1 0-4.1.9-5.4 2.5-.6.9-.6 2 0 2.9 1.3 1.6 3.3 2.5 5.4 2.5 1 0 2-.4 2.7-1.2.7-.7 1.1-1.8 1.1-2.8"/><path class="cls-22" d="M303.2 184.4h-48.1v.1h-.1v.1h-.1v.1h-.1v20.7h.1v.1l.1.1h.1v.1h48.2l.1-.1h.1v-.1l.1-.1V184.7h-.1v-.1l-.1-.1h-.1v-.1h-.1"/><path class="cls-4" d="M303.2 184.4h-48.1v.1h-.1v.1h-.1v.1h-.1v20.7h.1v.1l.1.1h.1v.1h48.2l.1-.1h.1v-.1l.1-.1V184.7h-.1v-.1l-.1-.1h-.1v-.1h-.1"/><path class="cls-22" d="M297.9 186.6h-37.4c-.4 0-.9 0-1.3.3-.4.2-.8.4-1.1.7-.3.3-.6.7-.7 1.1-.2.4-.3.9-.3 1.3v10.2c0 .4 0 .9.3 1.3.2.4.4.8.7 1.1.3.3.7.6 1.1.7.4.2.9.3 1.3.3h37.4c.4 0 .9 0 1.3-.3.4-.2.8-.4 1.1-.7.3-.3.6-.7.7-1.1.2-.4.3-.9.3-1.3V190c0-.4 0-.9-.3-1.3-.2-.4-.4-.8-.7-1.1-.3-.3-.7-.6-1.1-.7-.4-.2-.9-.3-1.3-.3"/><path class="cls-4" d="M297.9 186.6h-37.4c-.4 0-.9 0-1.3.3-.4.2-.8.4-1.1.7-.3.3-.6.7-.7 1.1-.2.4-.3.9-.3 1.3v10.2c0 .4 0 .9.3 1.3.2.4.4.8.7 1.1.3.3.7.6 1.1.7.4.2.9.3 1.3.3h37.4c.4 0 .9 0 1.3-.3.4-.2.8-.4 1.1-.7.3-.3.6-.7.7-1.1.2-.4.3-.9.3-1.3V190c0-.4 0-.9-.3-1.3-.2-.4-.4-.8-.7-1.1-.3-.3-.7-.6-1.1-.7-.4-.2-.9-.3-1.3-.3M304.4 248.7v-20.9M305.6 248.7v-19.4M304.4 248.7v-20.9M303.7 248.7v-21.6M305.6 248.7v-19.4M308.2 227.8v-18.2M309.4 229.3v-21.1M308.2 227.8v-18.2M307.5 227.1v-16.8M309.4 229.3v-21.1M304.4 209.6v-25.4M305.6 208.2v-24M304.4 209.6v-25.4M303.7 210.3v-26.1M305.6 208.2v-24"/><path class="cls-22" d="M303.6 210.9h-12.4c-.1 0-.3.1-.4.2-.1.1-.2.2-.2.4V225.6c0 .1.1.3.2.4.1.1.2.2.4.2h12.4v-15.6"/><path class="cls-4" d="M303.6 210.9h-12.4c-.1 0-.3.1-.4.2-.1.1-.2.2-.2.4V225.6c0 .1.1.3.2.4.1.1.2.2.4.2h12.4v-15.6"/><path class="cls-8" d="M303.7 227.4h3.8"/><path class="cls-7" d="M307.5 227.4v-17.1"/><path class="cls-8" d="M307.5 210.3h-3.8"/><path class="cls-4" d="M308.2 209.6h-3.8M309.4 208.2h-3.8M308.2 209.6h-3.8M307.5 210.3h-3.8M309.4 208.2h-3.8M304.4 227.8h3.8M305.6 229.3h3.8M304.4 227.8h3.8M303.7 227.1h3.8M305.6 229.3h3.8"/><path class="cls-22" d="M254.7 248.7v5.1h56.9v-5.1h-56.9"/><path class="cls-18" d="M255 250.9l2.1-2.2M256.4 253.8l5-5.1M260.5 253.8l5-5.1M264.8 253.8l5-5.1M269.1 253.8l5.1-5.1M273.2 253.8l5-5.1M277.5 253.8l5.1-5.1M281.8 253.8l5.1-5.1M286.2 253.8l5-5.1M290.2 253.8l5.1-5.1M294.6 253.8l5-5.1M298.9 253.8l5-5.1M303 253.8l5-5.1M307.3 253.8l4.5-4.4M311.6 253.8l.2-.3"/><path class="cls-22" d="M254.7 248.7v5.1h56.9v-5.1h-56.9"/><path class="cls-18" d="M255 250.9l2.1-2.2M256.4 253.8l5-5.1M260.5 253.8l5-5.1M264.8 253.8l5-5.1M269.1 253.8l5.1-5.1M273.2 253.8l5-5.1M277.5 253.8l5.1-5.1M281.8 253.8l5.1-5.1M286.2 253.8l5-5.1M290.2 253.8l5.1-5.1M294.6 253.8l5-5.1M298.9 253.8l5-5.1M303 253.8l5-5.1M307.3 253.8l4.5-4.4M311.6 253.8l.2-.3"/><path class="cls-19" d="M311.6 248.7h-56.9M311.6 253.8h-56.9M311.6 253.8h-56.9M311.6 248.7h-56.9"/><path class="cls-22" d="M250.6 179.8l4.1 4.4h56.9v-4.4h-61"/><path class="cls-18" d="M252.1 181.3l1.7-1.5M254.2 183.4l3.9-3.6M257.8 184.2l4.4-4.4M262.2 184.2l4.3-4.4M266.5 184.2l4.3-4.4M270.6 184.2l4.3-4.4M274.9 184.2l4.3-4.4M279.2 184.2l4.3-4.4M283.3 184.2l4.3-4.4M287.6 184.2l4.3-4.4M291.9 184.2l4.3-4.4M296.2 184.2l4.4-4.4M300.3 184.2l4.3-4.4M304.6 184.2l4.4-4.4M309 184.2l2.8-2.9"/><path class="cls-22" d="M250.6 179.8l4.1 4.4h56.9v-4.4h-61"/><path class="cls-18" d="M252.1 181.3l1.7-1.5M254.2 183.4l3.9-3.6M257.8 184.2l4.4-4.4M262.2 184.2l4.3-4.4M266.5 184.2l4.3-4.4M270.6 184.2l4.3-4.4M274.9 184.2l4.3-4.4M279.2 184.2l4.3-4.4M283.3 184.2l4.3-4.4M287.6 184.2l4.3-4.4M291.9 184.2l4.3-4.4M296.2 184.2l4.4-4.4M300.3 184.2l4.3-4.4M304.6 184.2l4.4-4.4M309 184.2l2.8-2.9"/><path class="cls-19" d="M311.6 179.8h-61M311.6 184.2h-56.9M311.6 184.2h-56.9M311.6 179.8h-61"/><path class="cls-4" d="M232.4 189.4h.7V205h-.7zM233.1 189.4h16.1v.5h-16.1zM249.2 189.4h.7v31.2h-.7zM232.4 188.2h.7v1.2h-.7zM232.4 205h.7v15.6h-.7zM233.1 219.9h16.1v.7h-16.1zM232.4 220.6h17.8v.5h-17.8z"/><path class="cls-21" d="M237.9 187.5H248v2.4h-10.1z"/><path class="cls-4" d="M237.9 187.5H248v2.4h-10.1z"/><path class="cls-21" d="M237.7 189.9h10.6v.2h-10.6z"/><path class="cls-4" d="M237.7 189.9h10.6v.2h-10.6z"/><path class="cls-9" d="M247.3 190.2v8.4"/><path class="cls-17" d="M247.3 198.6h-1.7l-1.7-.5-1.4-1-1.2-.9-1.2-1.5-.7-1.4-.5-1.5-.3-1.6"/><path class="cls-22" d="M236.5 183.4l-3.6-3.6v8h3.6v-4.4"/><path class="cls-18" d="M233.1 183.4l1.7-1.6M233.1 187.8l3.6-3.6"/><path class="cls-22" d="M236.5 183.4l-3.6-3.6v8h3.6v-4.4"/><path class="cls-18" d="M233.1 183.4l1.7-1.6M233.1 187.8l3.6-3.6"/><path class="cls-19" d="M236.5 187.8v-4.4M232.9 187.8v-8M232.9 187.8v-8M236.5 187.8v-4.4M236.5 187.8h-3.6"/><path class="cls-22" d="M232.9 179.8l3.6 3.6h14.1v-3.6h-17.7"/><path class="cls-18" d="M234.8 181.8l1.9-2M237.4 183.4l3.6-3.6M241.5 183.4l3.6-3.6M245.8 183.4l3.6-3.6M250.2 183.4l.7-.7"/><path class="cls-22" d="M232.9 179.8l3.6 3.6h14.1v-3.6h-17.7"/><path class="cls-18" d="M234.8 181.8l1.9-2M237.4 183.4l3.6-3.6M241.5 183.4l3.6-3.6M245.8 183.4l3.6-3.6M250.2 183.4l.7-.7"/><path class="cls-19" d="M250.6 179.8h-17.7M250.6 183.4h-14.1M250.6 183.4h-14.1M250.6 179.8h-17.7"/><path class="cls-16" d="M232.9 283v-61.4"/><path class="cls-19" d="M315.7 71.4h-4.1"/><path class="cls-22" d="M311.6 97.5v253l4.1 4.1V97.5h-4.1"/><path class="cls-18" d="M311.8 100.6l2.9-3.1M311.8 104.7l4.1-4.1M311.8 109l4.1-4M311.8 113.4l4.1-4.1M311.8 117.7l4.1-4.1M311.8 121.8l4.1-4.1M311.8 126.1l4.1-4.1M311.8 130.4l4.1-4.1M311.8 134.5l4.1-4.1M311.8 138.8l4.1-4.1M311.8 143.1l4.1-4.1M311.8 147.4l4.1-4M311.8 151.5l4.1-4.1M311.8 155.8l4.1-4M311.8 160.2l4.1-4.1M311.8 164.2l4.1-4M311.8 168.6l4.1-4.1M311.8 172.9l4.1-4.1M311.8 177.2l4.1-4.1M311.8 181.3l4.1-4.1M311.8 185.6l4.1-4.1M311.8 189.9l4.1-4.1M311.8 194l4.1-4.1M311.8 198.3l4.1-4.1M311.8 202.6l4.1-4M311.8 206.7l4.1-4.1M311.8 211l4.1-4M311.8 215.4l4.1-4.1M311.8 219.7l4.1-4.1M311.8 223.8l4.1-4.1M311.8 228.1l4.1-4.1M311.8 232.4l4.1-4.1M311.8 236.5l4.1-4.1M311.8 240.8l4.1-4.1M311.8 245.1l4.1-4.1M311.8 249.4l4.1-4M311.8 253.5l4.1-4.1M311.8 257.8l4.1-4M311.8 262.2l4.1-4.1M311.8 266.2l4.1-4M311.8 270.6l4.1-4.1M311.8 274.9l4.1-4.1M311.8 279.2l4.1-4.1M311.8 283.3l4.1-4.1M311.8 287.6l4.1-4.1M311.8 291.9l4.1-4.1M311.8 296l4.1-4.1M311.8 300.3l4.1-4.1M311.8 304.6l4.1-4M311.8 308.7l4.1-4.1M311.8 313l4.1-4M311.8 317.4l4.1-4.1M311.8 321.7l4.1-4.1M311.8 325.8l4.1-4.1M311.8 330.1l4.1-4.1M311.8 334.4l4.1-4.1M311.8 338.5l4.1-4.1M311.8 342.8l4.1-4.1M311.8 347.1l4.1-4.1M312.1 351l3.8-3.6M314.2 353.1l1.7-1.7"/><path class="cls-22" d="M311.6 97.5v253l4.1 4.1V97.5h-4.1"/><path class="cls-18" d="M311.8 100.6l2.9-3.1M311.8 104.7l4.1-4.1M311.8 109l4.1-4M311.8 113.4l4.1-4.1M311.8 117.7l4.1-4.1M311.8 121.8l4.1-4.1M311.8 126.1l4.1-4.1M311.8 130.4l4.1-4.1M311.8 134.5l4.1-4.1M311.8 138.8l4.1-4.1M311.8 143.1l4.1-4.1M311.8 147.4l4.1-4M311.8 151.5l4.1-4.1M311.8 155.8l4.1-4M311.8 160.2l4.1-4.1M311.8 164.2l4.1-4M311.8 168.6l4.1-4.1M311.8 172.9l4.1-4.1M311.8 177.2l4.1-4.1M311.8 181.3l4.1-4.1M311.8 185.6l4.1-4.1M311.8 189.9l4.1-4.1M311.8 194l4.1-4.1M311.8 198.3l4.1-4.1M311.8 202.6l4.1-4M311.8 206.7l4.1-4.1M311.8 211l4.1-4M311.8 215.4l4.1-4.1M311.8 219.7l4.1-4.1M311.8 223.8l4.1-4.1M311.8 228.1l4.1-4.1M311.8 232.4l4.1-4.1M311.8 236.5l4.1-4.1M311.8 240.8l4.1-4.1M311.8 245.1l4.1-4.1M311.8 249.4l4.1-4M311.8 253.5l4.1-4.1M311.8 257.8l4.1-4M311.8 262.2l4.1-4.1M311.8 266.2l4.1-4M311.8 270.6l4.1-4.1M311.8 274.9l4.1-4.1M311.8 279.2l4.1-4.1M311.8 283.3l4.1-4.1M311.8 287.6l4.1-4.1M311.8 291.9l4.1-4.1M311.8 296l4.1-4.1M311.8 300.3l4.1-4.1M311.8 304.6l4.1-4M311.8 308.7l4.1-4.1M311.8 313l4.1-4M311.8 317.4l4.1-4.1M311.8 321.7l4.1-4.1M311.8 325.8l4.1-4.1M311.8 330.1l4.1-4.1M311.8 334.4l4.1-4.1M311.8 338.5l4.1-4.1M311.8 342.8l4.1-4.1M311.8 347.1l4.1-4.1M312.1 351l3.8-3.6M314.2 353.1l1.7-1.7"/><path class="cls-19" d="M315.7 194.2V97.5M315.7 249.4v-50.8M315.7 354.6V253.8M311.6 179.8V97.5M311.6 248.7v-64.5M311.6 283v-29.2M311.6 350.5v-63.1M311.6 179.8V97.5M315.7 194.2V97.5M311.6 248.7v-64.5M315.7 249.4v-50.8M311.6 283v-29.2M315.7 354.6V253.8M311.6 350.5v-63.1"/><path class="cls-4" d="M315.7 95.8h-4.1M315.7 73.3h-4.1"/><path class="cls-19" d="M315.7 97.5h-4.1M315.7 71.4h-4.1"/><path class="cls-18" d="M338.5 95.8c0-12.4-10.2-22.7-22.7-22.7M315.7 95.8h22.8"/><path class="cls-22" d="M301.5 350.5l4.1 4.1h10.1l-4.1-4.1h-10.1"/><path class="cls-18" d="M303 351.7l1.2-1.2M304.9 353.8l3.3-3.3M308.5 354.6l3.6-3.6M312.8 354.6l1.4-1.5"/><path class="cls-22" d="M301.5 350.5l4.1 4.1h10.1l-4.1-4.1h-10.1"/><path class="cls-18" d="M303 351.7l1.2-1.2M304.9 353.8l3.3-3.3M308.5 354.6l3.6-3.6M312.8 354.6l1.4-1.5"/><path class="cls-19" d="M311.6 350.5h-10.1M315.7 354.6h-10.1M315.7 354.6h-10.1M311.6 350.5h-10.1M301.5 382.2h4.1"/><path class="cls-22" d="M301.5 354.6h4.1l-4.1-4.1v4.1"/><path class="cls-18" d="M301.8 352.9l1.2-1.2M304.2 354.6l.7-.8"/><path class="cls-22" d="M301.5 354.6h4.1l-4.1-4.1v4.1"/><path class="cls-18" d="M301.8 352.9l1.2-1.2M304.2 354.6l.7-.8"/><path class="cls-19" d="M301.5 350.5v4.1M301.5 350.5v4.1"/><path class="cls-4" d="M301.5 357h4.1M301.5 379.8h4.1"/><path class="cls-19" d="M301.5 354.6h4.1M301.5 382.2h4.1"/><path class="cls-18" d="M305.7 379.7c12.4 0 22.7-10.2 22.7-22.7M305.6 357h22.8"/><path class="cls-22" d="M237.2 304.6v-17.2l-4.3-4.4v21.6h4.3"/><path class="cls-18" d="M233.1 285.4l1.2-1.2M233.1 289.8l3.4-3.4M233.1 294.1l4.3-4.3M233.1 298.4l4.3-4.3M233.1 302.5l4.3-4.3M235.3 304.6l2.1-2.1"/><path class="cls-22" d="M237.2 304.6v-17.2l-4.3-4.4v21.6h4.3"/><path class="cls-18" d="M233.1 285.4l1.2-1.2M233.1 289.8l3.4-3.4M233.1 294.1l4.3-4.3M233.1 298.4l4.3-4.3M233.1 302.5l4.3-4.3M235.3 304.6l2.1-2.1"/><path class="cls-19" d="M232.9 283v21.6M237.2 287.4v17.2M232.9 304.6h4.3M237.2 287.4v17.2M232.9 283v21.6"/><path class="cls-16" d="M408.8 27H128.7"/><path class="cls-4" d="M129.2 27h-.5"/><path class="cls-15" d="M128.7 27v29.7"/><path class="cls-4" d="M128.7 56.2v.5M213.7 56.7L217 1.8h74.2l3.4 54.9"/><path class="cls-4" d="M212 56.7L215.6 0h77l3.6 56.7"/><path class="cls-22" d="M102.8 304.6l-3.4-.9-.9 2.9 4.3-2"/><path class="cls-18" d="M100.6 305.6l-1.2-1.2M98.7 306.1l2.2-2.2M224.5 60.6h59.3v3.6h-59.3zM121.3 389.6h59.3v3.4h-59.3z"/><path class="cls-22" d="M126.3 411.4h24.3v18.3h-24.3v-18.3"/><path class="cls-18" d="M357.3 387.2v-1.9c0-.6.2-1.2.3-1.8.1-.6.3-1.2.5-1.8l.6-1.8c.2-.6.5-1.1.8-1.7.3-.5.6-1.1 1-1.6.3-.5.7-1 1.1-1.5.4-.5.8-.9 1.3-1.4.4-.4.9-.9 1.4-1.3.5-.4 1-.8 1.5-1.1.5-.3 1.1-.7 1.6-1 .5-.3 1.1-.6 1.7-.8l1.8-.6c.6-.2 1.2-.3 1.8-.5l1.8-.3h1.9M376.4 368.2v19M357.2 387.2v-1.4M357 384.3v-.7M357 383.6l-.3-.7"/><path class="cls-11" d="M356.5 381.7l-.7-1.7"/><path class="cls-18" d="M355.3 378.8l-.3-.5M355 378.3l-.4-.7"/><path class="cls-12" d="M354.1 376.6l-1.2-1.4"/><path class="cls-18" d="M351.9 374l-.2-.2M351.7 373.8l-1-.8M349.8 372.1l-1-.7"/><path class="cls-20" d="M348.8 371.4l-1.4-1"/><path class="cls-18" d="M347.4 370.4l-1.5-.5M344.7 369.4l-.9-.2M343.8 369.2l-.5-.2"/><path class="cls-11" d="M342.1 368.7l-1.9-.5"/><path class="cls-18" d="M339 368.2h-.8"/><path class="cls-3" d="M338.2 368.2v19"/><path class="cls-18" d="M338.2 386.7v.5M357.3 66.4v1.9c0 .6.2 1.2.3 1.8.1.6.3 1.2.5 1.8l.6 1.8c.2.6.5 1.1.8 1.7.3.5.6 1.1 1 1.6s.7 1 1.1 1.5c.4.5.8.9 1.3 1.4.4.4.9.9 1.4 1.3.5.4 1 .8 1.5 1.1.5.3 1.1.7 1.6 1 .5.3 1.1.6 1.7.8l1.8.6c.6.2 1.2.3 1.8.5l1.8.3h1.9M376.4 85.3v-19M357.4 66.3l-.2 1.5M357.2 69.2l-.2 1M357 70.2l-.3.4"/><path class="cls-11" d="M356.5 71.8l-.5 2"/><path class="cls-18" d="M355.5 74.7l-.5.7M355 75.4l-.2.5"/><path class="cls-13" d="M354.1 76.9l-1 1.4"/><path class="cls-18" d="M352.2 79.3l-.5.5M351.7 79.8l-.5.4"/><path class="cls-2" d="M350.5 81l-1.7 1.2"/><path class="cls-18" d="M347.8 82.9l-.4.2M347.4 83.1l-.8.3"/><path class="cls-12" d="M345.7 83.8l-1.9.8"/><path class="cls-18" d="M342.6 84.8l-.5.2M342.1 85h-1"/><path class="cls-10" d="M340.2 85.3h-2"/><path class="cls-3" d="M338.2 85.3v-19"/><path class="cls-18" d="M338.2 66.8v-.5M150.9 66.4v1.9c0 .6-.2 1.2-.3 1.8-.1.6-.3 1.2-.5 1.8l-.6 1.8c-.2.6-.5 1.1-.8 1.7-.3.5-.6 1.1-1 1.6-.3.5-.7 1-1.1 1.5-.4.5-.8.9-1.3 1.4-.4.4-.9.9-1.4 1.3-.5.4-1 .8-1.5 1.1-.5.3-1.1.7-1.6 1-.5.3-1.1.6-1.7.8l-1.8.6c-.6.2-1.2.3-1.8.5l-1.8.3h-1.9M131.8 85.3v-19M151 66.3v1.5M151 69.2l.3 1M151.3 70.2l.2.4"/><path class="cls-11" d="M151.8 71.8l.7 1.7"/><path class="cls-18" d="M153 74.7l.2.7M153.2 75.4l.5.5"/><path class="cls-12" d="M154.2 76.9l1.2 1.4"/><path class="cls-18" d="M156.3 79.5l.3.3M156.6 79.8l.9.7M158.5 81.4l.9.8"/><path class="cls-20" d="M159.4 82.2l1.5.9"/><path class="cls-18" d="M160.9 83.1l1.4.5M163.5 84.3l1 .3M164.5 84.6l.5.2"/><path class="cls-11" d="M166.2 85l1.9.3"/><path class="cls-18" d="M169.3 85.3h.7"/><path class="cls-3" d="M170 85.3v-19"/><path class="cls-18" d="M170 66.8v-.5M284.2 367.2c-11 0-20.1 9.1-20.1 20.1M284.2 367.3v20.1"/><path class="cls-3" d="M243.9 367.3l3.9.2 3.8 1.2 3.6 1.9 2.9 2.4 2.6 3.2 1.7 3.6 1.2 3.6.5 4"/><path class="cls-14" d="M243.9 367.3v20.1"/><path class="cls-18" d="M224.1 86.5c11 0 20.1-9.1 20.1-20.1M224 86.5V66.3"/><path class="cls-3" d="M264.3 86.5l-3.8-.5-3.9-1-3.6-1.9-2.8-2.4-2.7-3.1-1.7-3.6-1.2-3.6-.4-4.1"/><path class="cls-14" d="M264.3 86.5V66.3"/><path class="cls-18" d="M141 387.4c0-11-9.1-20.1-20.1-20.1M120.8 367.3v20.1"/><path class="cls-3" d="M141 387.4l.4-4 1.2-3.6 1.7-3.6 2.7-3.2 3.1-2.4 3.3-1.9 3.9-1.2 3.8-.2"/><path class="cls-14" d="M161.1 367.3v20.1"/><path class="cls-18" d="M199.5 103.3h10.8v56.6h-10.8z"/><path class="cls-4" d="M223.8 242.2v1M223.8 243.2l-.3.7M223.5 243.9v.7M223.5 244.6l-.2.5M222.8 246.3l-.2.3M221.8 247.8l-.4.4M221.4 248.2l-.8.5M220.6 248.7l-.7.7M219.9 249.4l-.2.3M218.5 250.2l-.5.2M216.8 250.6h-.7M216.1 250.6l-.7.3M215.4 250.9l-1-.3M214.4 250.6h-.5M212.5 250.4l-.3-.2M211 249.7l-.4-.3M210.6 249.4l-.8-.7M209.8 248.7l-.4-.5M209.4 248.2l-.5-.4M207.9 246.6v-.3M207.2 245.1v-.5M207.2 244.6l-.2-.7M207 243.9l-.3-.7M206.7 243.2v-1M207 240.8v-.2M207.4 239.4v-.3M207.4 239.1l.3-.9M207.7 238.2l.5-.8M208.2 237.4l.4-.4M208.6 237v-.3M209.8 235.8h.3M211 234.8h.3M211.3 234.8l.7-.5M212 234.3l.7-.2M212.7 234.1l1-.3M215.1 233.8h.3M215.4 233.8h.2M216.8 233.8h.2M217 233.8l.8.3M217.8 234.1l.7.2M218.5 234.3l.7.5M219.2 234.8h.2M220.6 235.8l.3.2M221.8 237l.5.4M222.3 237.4l.5.8M222.8 238.2l.2.9M223 239.1l.3.3M223.8 240.8v.2"/></g><g id="Mbel"><path class="cls-1" d="M317.4 177H374v15.6h-56.6zM125.6 327.2h50.9V350h-50.9zM127 317.4h12.7M127 325.9v-8.5M139.7 317.4v8.5M144.7 317.4h12.8M144.7 325.9v-8.5M157.5 317.4v8.5M162.4 317.4h12.8M162.4 325.9v-8.5M175.2 317.4v8.5M127 359.9h12.7M127 351.4v8.5M139.7 359.9v-8.5M144.7 359.9h12.8M144.7 351.4v8.5M157.5 359.9v-8.5M162.4 359.9h12.8M162.4 351.4v8.5M175.2 359.9v-8.5M317.4 114.8H374v45.4h-56.6zM260.5 121.5h14.2v28.3h-14.2zM305.6 109h-19c-.1 0-.2.1-.3.2 0 0-.1.2-.2.3V135c0 .1.1.2.2.3 0 0 .2.1.3.2h19v-26.6M309.3 104.5h-22.7c-.1 0-.2.1-.3.2 0 0-.1.2-.2.3V108.4c0 .1.1.2.2.3 0 0 .2.1.3.2h23c.1 0 .2-.1.3-.2 0 0 .1-.2.2-.3V105.3v-.3c0-.1-.1-.2-.2-.3 0 0-.2-.1-.3-.2h-.3M305.6 135.7h4c.1 0 .2.1.3.2 0 0 .1.2.2.3v25.5c0 .1-.1.2-.2.3 0 0-.2.1-.3.2h-4M303.2 162.3V109"/><path class="cls-1" d="M305.6 162.3h-19c-.1 0-.2-.1-.3-.2 0 0-.1-.2-.2-.3v-25.2-.3c0-.1.1-.2.2-.3 0 0 .2-.1.3-.2h19v26.6M309.3 166.9h-22.7c-.1 0-.2-.1-.3-.2 0 0-.1-.2-.2-.3V163.3v-.3c0-.1.1-.2.2-.3 0 0 .2-.1.3-.2h23c.1 0 .2.1.3.2 0 0 .1.2.2.3V166.4c0 .1-.1.2-.2.3 0 0-.2.1-.3.2h-.3M305.6 135.7h4c.1 0 .2-.1.3-.2 0 0 .1-.2.2-.3V110v-.3c0-.1-.1-.2-.2-.3 0 0-.2-.1-.3-.2h-4M104.5 72.6h15.6v56.6h-15.6zM104.5 159h56.6v28.6h-56.6zM164.7 120.3h7.7v11.3h-7.7zM172.4 103.3h19.9v45.4h-19.9zM317.4 255.2H374v28.6h-56.6zM372.6 329.1h7.7v11.3h-7.7z"/><path class="cls-1" d="M380.2 312.1h19.9v45.4h-19.9zM317.4 297.9H333v56.6h-15.6z"/></g><g id="Text"><path d="M342.7 229h1.4c1.6 0 2.6 1 2.6 2.6s-.3 1.6-.8 2.1c-.5.4-1.1.6-1.9.6h-1.3V229zm.7 4.8h.2c.9 0 1.3 0 1.7-.4.5-.4.7-1 .7-1.8 0-1.3-.7-2-1.9-2h-.7v4.2zM350.7 230.6v2.4c0 .5 0 .8-.4 1-.3.2-.6.4-1.1.4s-.8-.1-1.1-.4c-.2-.2-.4-.6-.4-1v-2.4h.6v2.3c0 .5.3.9.8.9s.5-.1.7-.3c.1-.1.2-.3.2-.6v-2.4h.6zM353.8 231.6c0-.4-.3-.6-.7-.6s-.7.2-.7.5.2.4.8.6c.5.1.7.2.9.4.2.2.3.4.3.7 0 .6-.5 1.1-1.3 1.1s-1.3-.4-1.4-1.1h.6c0 .4.3.6.8.6s.7-.2.7-.5-.2-.5-.8-.6c-.8-.2-1.2-.6-1.2-1.1s.5-1.1 1.3-1.1 1.3.4 1.3 1.1h-.6zM358.4 233.9c-.4.4-.8.5-1.4.5-1.1 0-1.8-.8-1.8-1.9s.8-1.9 1.8-1.9 1 .2 1.3.6l-.4.4c-.3-.3-.6-.4-.9-.4-.7 0-1.2.6-1.2 1.4s.5 1.4 1.2 1.4.6-.1.9-.4l.4.4zM360 231.1c.3-.4.7-.6 1.1-.6s.7.1.9.3c.2.2.3.5.3 1v2.5h-.6v-2.4c0-.5-.2-.8-.7-.8s-.5.1-.7.3c-.2.2-.2.4-.2.7v2.2h-.6V229h.6v2.2zM363.9 232.7c0 .3 0 .5.2.7.2.3.6.5 1 .5s.9-.2 1.1-.6l.5.2c-.3.6-.9 1-1.6 1-1.1 0-1.9-.8-1.9-1.9s.8-1.9 1.9-1.9 1.9.8 1.9 1.9v.2h-3.1zm2.4-.4c0-.3 0-.4-.2-.6-.2-.3-.6-.5-1-.5s-.8.2-1 .5c-.1.2-.2.3-.2.6h2.4zM342.4 242.1v-.5l2.8-3.7v3.6h.6v.6h-.6v1.2h-.6v-1.2h-2.1zm2.1-2.6l-1.5 2h1.5v-2zM347.6 243c0 .2-.2.4-.4.4s-.4-.2-.4-.4.2-.4.4-.4.4.2.4.4zM349.9 240.2c.2 0 .3-.1.5-.1.9 0 1.6.7 1.6 1.6s-.8 1.7-1.7 1.7-1.7-.8-1.7-1.7.1-.7.4-1.2l1.5-2.5h.7l-1.4 2.1zm-.7 1.5c0 .6.5 1.1 1.1 1.1s1.1-.5 1.1-1.1-.5-1.1-1.1-1.1-1.1.5-1.1 1.1zM355.2 239.6v.5c.3-.4.6-.6 1-.6s.8.2 1 .7c.3-.5.6-.7 1.2-.7s.7.1.9.4c.2.2.2.4.2 1v2.4h-.6v-2.2c0-.4 0-.6-.1-.7-.1-.2-.4-.3-.6-.3-.5 0-.8.4-.8 1v2.2h-.6v-2.2c0-.4 0-.5-.1-.7-.1-.2-.3-.3-.6-.3-.5 0-.9.4-.9 1v2.2h-.6v-3.7h.6zM362.8 240.8v.4h-2l1.2-1.6c.3-.5.4-.6.4-.8 0-.3-.2-.4-.5-.4s-.5.2-.5.6h-.4c0-.6.4-1 1-1s1 .3 1 .8-.1.5-.4.9l-.8 1.1h1.1zM232.6 9.5c1.1 0 1.7.5 1.7 1.4s-.1.6-.3.9c-.1.2-.3.2-.5.3.3 0 .4.1.6.2.3.2.4.6.4 1s-.2.9-.6 1.2c-.3.2-.7.3-1.3.3h-1.5V9.5h1.5zm-.8 2.4h.7c.4 0 .7 0 .9-.2.2-.2.3-.4.3-.7s-.2-.6-.4-.8c-.2 0-.4-.1-.9-.1h-.6v1.8zm0 2.4h.7c.6 0 .8 0 1-.2.3-.1.4-.4.4-.8 0-.6-.4-.9-1.2-.9h-.8v1.8zM238.5 11.1h.6v3.7h-.6v-.7c-.4.6-.8.8-1.3.8-1 0-1.7-.8-1.7-1.9s.7-1.9 1.8-1.9 1 .2 1.3.7v-.6zm-2.1.9c-.2.3-.3.6-.3 1 0 .8.5 1.4 1.2 1.4s1.3-.6 1.3-1.4-.5-1.4-1.2-1.4-.7.1-.9.4zM240.4 14.8V9.5h.6v5.3h-.6zM243 14.8h-.6V9.5h.6v3.3l1.5-1.6h.8l-1.6 1.8 1.6 1.9h-.8l-1.5-1.6v1.6zM249.4 13c0 1.1-.8 1.9-1.9 1.9s-1.9-.8-1.9-1.9.8-1.9 1.9-1.9 1.9.8 1.9 1.9zm-3.1 0c0 .8.5 1.4 1.3 1.4s1.2-.6 1.2-1.4-.5-1.4-1.2-1.4-1.3.6-1.3 1.4zM251.1 11.1v.5c.3-.4.6-.6 1.1-.6s.6.1.9.3c.2.2.3.5.3 1v2.5h-.6v-2.4c0-.3 0-.5-.1-.6-.1-.2-.3-.2-.6-.2s-.5.1-.7.3c-.2.2-.2.4-.2.7v2.2h-.6v-3.7h.6zM232 20.7c.2 0 .3-.1.5-.1.9 0 1.6.7 1.6 1.6s-.8 1.7-1.7 1.7-1.7-.8-1.7-1.7.1-.7.4-1.2l1.5-2.5h.7l-1.4 2.1zm-.7 1.5c0 .6.5 1.1 1.1 1.1s1.1-.5 1.1-1.1-.5-1.1-1.1-1.1-1.1.5-1.1 1.1zM235.9 23.5c0 .2-.2.4-.4.4s-.4-.2-.4-.4.2-.4.4-.4.4.2.4.4zM240.2 22.2c0 .6-.1 1-.4 1.2-.3.3-.7.4-1.2.4s-1-.2-1.2-.5c-.3-.3-.4-.6-.4-1.4v-1.8c0-.7 0-1 .3-1.3.3-.3.7-.5 1.2-.5s.9.1 1.2.4c.3.3.4.6.4 1.2V22zm-2.5-.1c0 .6 0 .7.2.9.2.2.5.3.8.3s.6-.1.8-.4c.1-.2.2-.4.2-.8v-2c0-.4 0-.6-.3-.8-.2-.2-.4-.2-.7-.2s-.6.1-.8.4c-.1.2-.2.4-.2.8v1.8zM243.6 20.1v.5c.3-.4.6-.6 1-.6s.8.2 1 .7c.3-.5.6-.7 1.2-.7s.7.1.9.4c.2.2.2.4.2 1v2.4h-.6v-2.2c0-.4 0-.6-.1-.7-.1-.2-.4-.3-.6-.3-.5 0-.8.4-.8 1v2.2h-.6v-2.2c0-.4 0-.5-.1-.7-.1-.2-.3-.3-.6-.3-.5 0-.9.4-.9 1v2.2h-.6v-3.7h.6zM251.2 21.3v.4h-2l1.2-1.6c.3-.5.4-.6.4-.8 0-.3-.2-.4-.5-.4s-.5.2-.5.6h-.4c0-.6.4-1 1-1s1 .3 1 .8-.1.5-.4.9l-.8 1.1h1.1z"/><g><path d="M128.5 413.3c1.1 0 1.7.5 1.7 1.4s-.1.6-.3.9c-.1.2-.3.2-.5.3.3 0 .4.1.6.2.3.2.4.6.4 1s-.2.9-.6 1.2c-.3.2-.7.3-1.3.3H127v-5.3h1.5zm-.8 2.4h.7c.4 0 .7 0 .9-.2.2-.2.3-.4.3-.7s-.2-.6-.4-.8c-.2 0-.4-.1-.9-.1h-.6v1.8zm0 2.4h.7c.6 0 .8 0 1-.2.3-.1.4-.4.4-.8 0-.6-.4-.9-1.2-.9h-.8v1.8zM134.4 414.9h.6v3.7h-.6v-.7c-.4.6-.8.8-1.3.8-1 0-1.7-.8-1.7-1.9s.7-1.9 1.8-1.9 1 .2 1.3.7v-.6zm-2.1.9c-.2.3-.3.6-.3 1 0 .8.5 1.4 1.2 1.4s1.3-.6 1.3-1.4-.5-1.4-1.2-1.4-.7.1-.9.4zM136.3 418.6v-5.3h.6v5.3h-.6zM138.9 418.6h-.6v-5.3h.6v3.3l1.5-1.6h.8l-1.6 1.8 1.6 1.9h-.8l-1.5-1.6v1.6zM145.3 416.8c0 1.1-.8 1.9-1.9 1.9s-1.9-.8-1.9-1.9.8-1.9 1.9-1.9 1.9.8 1.9 1.9zm-3.1 0c0 .8.5 1.4 1.3 1.4s1.2-.6 1.2-1.4-.5-1.4-1.2-1.4-1.3.6-1.3 1.4zM147 414.9v.5c.3-.4.6-.6 1.1-.6s.6.1.9.3c.2.2.3.5.3 1v2.5h-.6v-2.4c0-.3 0-.5-.1-.6-.1-.2-.3-.2-.6-.2s-.5.1-.7.3c-.2.2-.2.4-.2.7v2.2h-.6v-3.7h.6zM129.3 422.9h-1.7v1.4c.3-.1.5-.2.8-.2.9 0 1.6.7 1.6 1.7s-.8 1.8-1.8 1.8-1.3-.4-1.6-1.1l.6-.2c.1.2.2.3.3.4.2.2.5.3.8.3.6 0 1.1-.5 1.1-1.2s-.5-1.1-1.2-1.1-.8.2-1.2.5v-3h2.3v.6zM131.8 427.3c0 .2-.2.4-.4.4s-.4-.2-.4-.4.2-.4.4-.4.4.2.4.4zM136.1 426c0 .6-.1 1-.4 1.2-.3.3-.7.4-1.2.4s-1-.2-1.2-.5c-.3-.3-.4-.6-.4-1.4v-1.8c0-.7 0-1 .3-1.3.3-.3.7-.5 1.2-.5s.9.1 1.2.4c.3.3.4.6.4 1.2v2.1zm-2.5-.1c0 .6 0 .7.2.9.2.2.5.3.8.3s.6-.1.8-.4c.1-.2.2-.4.2-.8v-2c0-.4 0-.6-.3-.8-.2-.2-.4-.2-.7-.2s-.6.1-.8.4c-.1.2-.2.4-.2.8v1.8zM139.5 423.9v.5c.3-.4.6-.6 1-.6s.8.2 1 .7c.3-.5.6-.7 1.2-.7s.7.1.9.4c.2.2.2.4.2 1v2.4h-.6v-2.2c0-.4 0-.6-.1-.7-.1-.2-.4-.3-.6-.3-.5 0-.8.4-.8 1v2.2h-.6v-2.2c0-.4 0-.5-.1-.7-.1-.2-.3-.3-.6-.3-.5 0-.9.4-.9 1v2.2h-.6v-3.7h.6zM147.1 425.1v.4h-2l1.2-1.6c.3-.5.4-.6.4-.8 0-.3-.2-.4-.5-.4s-.5.2-.5.6h-.4c0-.6.4-1 1-1s1 .3 1 .8-.1.5-.4.9l-.8 1.1h1.1z"/></g><g><path d="M21.9 268.3v.6h-2.5v-5.3h.7v4.7H22zM23.5 264.2c0 .2-.2.4-.4.4s-.4-.2-.4-.4.2-.4.4-.4.4.2.4.4zm0 4.7h-.6v-3.7h.6v3.7zM25.5 268.9h-.6v-3.2h-.5v-.5h.5v-.5c0-.7.4-1.2 1-1.2h.2v.5c-.4 0-.6.2-.6.6v.5h.6v.5h-.6v3.2zM27.9 268.1c0 .2 0 .2.3.2h.3v.5h-.6c-.4 0-.6-.2-.6-.6v-2.6h-.5v-.5h.5v-1.2h.6v1.2h.6v.5h-.6v2.4z"/></g><g><path d="M206.2 273.6h2.1v.6h-2.1v1.8h2.1v.6h-2.8v-5.3h2.8v.6h-2.1v1.8zM210.1 272.9v.5c.3-.4.6-.6 1.1-.6s.6.1.9.3c.2.2.3.5.3 1v2.5h-.6v-2.4c0-.3 0-.5-.1-.6-.1-.2-.3-.2-.6-.2s-.5.1-.7.3c-.2.2-.2.4-.2.7v2.2h-.6v-3.7h.6zM214.3 275.8c0 .2 0 .2.3.2h.3v.5h-.6c-.4 0-.6-.2-.6-.6v-2.6h-.5v-.5h.5v-1.2h.6v1.2h.6v.5h-.6v2.4zM216.6 272.9v.6c.1-.3.2-.4.3-.5.2-.1.4-.2.7-.2h.1v.6h-.2c-.3 0-.6.2-.8.4-.2.2-.2.4-.2.9v1.9h-.6v-3.7h.6zM219 274.9c0 .3 0 .5.2.7.2.3.6.5 1 .5s.9-.2 1.1-.6l.5.2c-.3.6-.9 1-1.6 1-1.1 0-1.9-.8-1.9-1.9s.8-1.9 1.9-1.9 1.9.8 1.9 1.9v.2H219zm2.4-.4c0-.3 0-.4-.2-.6-.2-.3-.6-.5-1-.5s-.8.2-1 .5c-.1.2-.2.3-.2.6h2.4zm-.2-3.2l-.9 1.1h-.4l.7-1.1h.7zM223.5 274.9c0 .3 0 .5.2.7.2.3.6.5 1 .5s.9-.2 1.1-.6l.5.2c-.3.6-.9 1-1.6 1-1.1 0-1.9-.8-1.9-1.9s.8-1.9 1.9-1.9 1.9.8 1.9 1.9v.2h-3.1zm2.4-.4c0-.3 0-.4-.2-.6-.2-.3-.6-.5-1-.5s-.8.2-1 .5c-.1.2-.2.3-.2.6h2.4zM205.6 280.9v-.6h3l-2.1 5.3h-.7l1.9-4.7h-2zM209.7 285.2c0 .2-.2.4-.4.4s-.4-.2-.4-.4.2-.4.4-.4.4.2.4.4zM210.6 284.4v-.5l2.8-3.7v3.6h.6v.6h-.6v1.2h-.6v-1.2h-2.1zm2.1-2.6l-1.5 2h1.5v-2zM217.2 281.9v.5c.3-.4.6-.6 1-.6s.8.2 1 .7c.3-.5.6-.7 1.2-.7s.7.1.9.4c.2.2.2.4.2 1v2.4h-.6v-2.2c0-.4 0-.6-.1-.7-.1-.2-.4-.3-.6-.3-.5 0-.8.4-.8 1v2.2h-.6v-2.2c0-.4 0-.5-.1-.7-.1-.2-.3-.3-.6-.3-.5 0-.9.4-.9 1v2.2h-.6v-3.7h.6zM224.8 283v.4h-2l1.2-1.6c.3-.5.4-.6.4-.8 0-.3-.2-.4-.5-.4s-.5.2-.5.6h-.4c0-.6.4-1 1-1s1 .3 1 .8-.1.5-.4.9l-.8 1.1h1.1z"/></g><g><path d="M228.5 136.3h.7l-1.6 5.3h-.6l-1.2-4.2-1.2 4.2h-.6l-1.6-5.3h.7l1.2 4.1 1.2-4.1h.6l1.1 4.1 1.2-4.1zM233.3 139.8c0 1.1-.8 1.9-1.9 1.9s-1.9-.8-1.9-1.9.8-1.9 1.9-1.9 1.9.8 1.9 1.9zm-3.1 0c0 .8.5 1.4 1.3 1.4s1.2-.6 1.2-1.4-.5-1.4-1.2-1.4-1.3.6-1.3 1.4zM235 138.5c.3-.4.7-.6 1.1-.6s.7.1.9.3c.2.2.3.5.3 1v2.5h-.6v-2.4c0-.5-.2-.8-.7-.8s-.5.1-.7.3c-.2.2-.2.4-.2.7v2.2h-.6v-5.3h.6v2.2zM239.2 138v.5c.3-.4.6-.6 1.1-.6s.6.1.9.3c.2.2.3.5.3 1v2.5h-.6v-2.4c0-.3 0-.5-.1-.6-.1-.2-.3-.2-.6-.2s-.5.1-.7.3c-.2.2-.2.4-.2.7v2.2h-.6V138h.6zM243.2 140c0 .3 0 .5.2.7.2.3.6.5 1 .5s.9-.2 1.1-.6l.5.2c-.3.6-.9 1-1.6 1-1.1 0-1.9-.8-1.9-1.9s.8-1.9 1.9-1.9 1.9.8 1.9 1.9v.2h-3.1zm2.4-.4c0-.3 0-.4-.2-.6-.2-.3-.6-.5-1-.5s-.8.2-1 .5c-.1.2-.2.3-.2.6h2.4zM247.9 138v.5c.3-.4.6-.6 1.1-.6s.6.1.9.3c.2.2.3.5.3 1v2.5h-.6v-2.4c0-.3 0-.5-.1-.6-.1-.2-.3-.2-.6-.2s-.5.1-.7.3c-.2.2-.2.4-.2.7v2.2h-.6V138h.6zM223.2 147.1v-.6l1.8-1.2v5.4h-.6v-4.4l-1.2.8zM229.2 145.9h-1.7v1.4c.3-.1.5-.2.8-.2.9 0 1.6.7 1.6 1.7s-.8 1.8-1.8 1.8-1.3-.4-1.6-1.1l.6-.2c.1.2.2.3.3.4.2.2.5.3.8.3.6 0 1.1-.5 1.1-1.2s-.5-1.1-1.2-1.1-.8.2-1.2.5v-3h2.3v.6zM231.8 150.3c0 .2-.2.4-.4.4s-.4-.2-.4-.4.2-.4.4-.4.4.2.4.4zM234.1 147.6c.2 0 .3-.1.5-.1.9 0 1.6.7 1.6 1.6s-.8 1.7-1.7 1.7-1.7-.8-1.7-1.7.1-.7.4-1.2l1.5-2.5h.7l-1.4 2.1zm-.7 1.5c0 .6.5 1.1 1.1 1.1s1.1-.5 1.1-1.1-.5-1.1-1.1-1.1-1.1.5-1.1 1.1zM240.3 147v.5c.3-.4.6-.6 1-.6s.8.2 1 .7c.3-.5.6-.7 1.2-.7s.7.1.9.4c.2.2.2.4.2 1v2.4h-.6v-2.2c0-.4 0-.6-.1-.7-.1-.2-.4-.3-.6-.3-.5 0-.8.4-.8 1v2.2h-.6v-2.2c0-.4 0-.5-.1-.7-.1-.2-.3-.3-.6-.3-.5 0-.9.4-.9 1v2.2h-.6V147h.6zM247.9 148.2v.4h-2l1.2-1.6c.3-.5.4-.6.4-.8 0-.3-.2-.4-.5-.4s-.5.2-.5.6h-.4c0-.6.4-1 1-1s1 .3 1 .8-.1.5-.4.9l-.8 1.1h1.1z"/></g><g><path d="M138.8 141.1v.6H135l3-4.8h-2.7v-.6h3.8l-3 4.8h2.7zM140.6 137c0 .2-.2.4-.4.4s-.4-.2-.4-.4.2-.4.4-.4.4.2.4.4zm0 4.7h-.6V138h.6v3.7zM142.5 138v.5c.3-.4.6-.6 1-.6s.8.2 1 .7c.3-.5.6-.7 1.2-.7s.7.1.9.4c.2.2.2.4.2 1v2.4h-.6v-2.2c0-.4 0-.6-.1-.7-.1-.2-.4-.3-.6-.3-.5 0-.8.4-.8 1v2.2h-.6v-2.2c0-.4 0-.5-.1-.7-.1-.2-.3-.3-.6-.3-.5 0-.9.4-.9 1v2.2h-.6V138h.6zM148.8 138v.5c.3-.4.6-.6 1-.6s.8.2 1 .7c.3-.5.6-.7 1.2-.7s.7.1.9.4c.2.2.2.4.2 1v2.4h-.6v-2.2c0-.4 0-.6-.1-.7-.1-.2-.4-.3-.6-.3-.5 0-.8.4-.8 1v2.2h-.6v-2.2c0-.4 0-.5-.1-.7-.1-.2-.3-.3-.6-.3-.5 0-.9.4-.9 1v2.2h-.6V138h.6zM154.9 140c0 .3 0 .5.2.7.2.3.6.5 1 .5s.9-.2 1.1-.6l.5.2c-.3.6-.9 1-1.6 1-1.1 0-1.9-.8-1.9-1.9s.8-1.9 1.9-1.9 1.9.8 1.9 1.9v.2h-3.1zm2.4-.4c0-.3 0-.4-.2-.6-.2-.3-.6-.5-1-.5s-.8.2-1 .5c-.1.2-.2.3-.2.6h2.4zM159.7 138v.6c.1-.3.2-.4.3-.5.2-.1.4-.2.7-.2h.1v.6h-.2c-.3 0-.6.2-.8.4-.2.2-.2.4-.2.9v1.9h-.6V138h.6zM135.7 147.1v-.6l1.8-1.2v5.4h-.6v-4.4l-1.2.8zM139.3 146v-.6h3l-1.6 2c.9 0 1.6.7 1.6 1.6s-.8 1.7-1.8 1.7-1.4-.5-1.6-1.3h.6c.1.4.5.7 1 .7s1.2-.5 1.2-1.1-.5-1.1-1.2-1.1-.4 0-.6.2l-.3-.2 1.5-1.9h-1.9zM144.2 150.3c0 .2-.2.4-.4.4s-.4-.2-.4-.4.2-.4.4-.4.4.2.4.4zM145.1 149.5v-.5l2.8-3.7v3.6h.6v.6h-.6v1.2h-.6v-1.2h-2.1zm2.1-2.6l-1.5 2h1.5v-2zM152.6 147v.5c.3-.4.6-.6 1-.6s.8.2 1 .7c.3-.5.6-.7 1.2-.7s.7.1.9.4c.2.2.2.4.2 1v2.4h-.6v-2.2c0-.4 0-.6-.1-.7-.1-.2-.4-.3-.6-.3-.5 0-.8.4-.8 1v2.2h-.6v-2.2c0-.4 0-.5-.1-.7-.1-.2-.3-.3-.6-.3-.5 0-.9.4-.9 1v2.2h-.6V147h.6zM160.2 148.2v.4h-2l1.2-1.6c.3-.5.4-.6.4-.8 0-.3-.2-.4-.5-.4s-.5.2-.5.6h-.4c0-.6.4-1 1-1s1 .3 1 .8-.1.5-.4.9l-.8 1.1h1.1z"/></g><g><path d="M346.3 294.1v.6h-3.8l3-4.8h-2.7v-.6h3.8l-3 4.8h2.7zM348.1 289.9c0 .2-.2.4-.4.4s-.4-.2-.4-.4.2-.4.4-.4.4.2.4.4zm0 4.7h-.6v-3.7h.6v3.7zM350 291v.5c.3-.4.6-.6 1-.6s.8.2 1 .7c.3-.5.6-.7 1.2-.7s.7.1.9.4c.2.2.2.4.2 1v2.4h-.6v-2.2c0-.4 0-.6-.1-.7-.1-.2-.4-.3-.6-.3-.5 0-.8.4-.8 1v2.2h-.6v-2.2c0-.4 0-.5-.1-.7-.1-.2-.3-.3-.6-.3-.5 0-.9.4-.9 1v2.2h-.6V291h.6zM356.3 291v.5c.3-.4.6-.6 1-.6s.8.2 1 .7c.3-.5.6-.7 1.2-.7s.7.1.9.4c.2.2.2.4.2 1v2.4h-.6v-2.2c0-.4 0-.6-.1-.7-.1-.2-.4-.3-.6-.3-.5 0-.8.4-.8 1v2.2h-.6v-2.2c0-.4 0-.5-.1-.7-.1-.2-.3-.3-.6-.3-.5 0-.9.4-.9 1v2.2h-.6V291h.6zM362.4 293c0 .3 0 .5.2.7.2.3.6.5 1 .5s.9-.2 1.1-.6l.5.2c-.3.6-.9 1-1.6 1-1.1 0-1.9-.8-1.9-1.9s.8-1.9 1.9-1.9 1.9.8 1.9 1.9v.2h-3.1zm2.4-.4c0-.3 0-.4-.2-.6-.2-.3-.6-.5-1-.5s-.8.2-1 .5c-.1.2-.2.3-.2.6h2.4zM367.2 291v.6c.1-.3.2-.4.3-.5.2-.1.4-.2.7-.2h.1v.6h-.2c-.3 0-.6.2-.8.4-.2.2-.2.4-.2.9v1.9h-.6V291h.6zM343.3 300.1v-.6l1.8-1.2v5.4h-.6v-4.4l-1.2.8zM346.5 302.4v-.5l2.8-3.7v3.6h.6v.6h-.6v1.2h-.6v-1.2h-2.1zm2.1-2.6l-1.5 2h1.5v-2zM351.7 303.3c0 .2-.2.4-.4.4s-.4-.2-.4-.4.2-.4.4-.4.4.2.4.4zM352.6 300.1v-.6l1.8-1.2v5.4h-.6v-4.4l-1.2.8zM359.5 300v.5c.3-.4.6-.6 1-.6s.8.2 1 .7c.3-.5.6-.7 1.2-.7s.7.1.9.4c.2.2.2.4.2 1v2.4h-.6v-2.2c0-.4 0-.6-.1-.7-.1-.2-.4-.3-.6-.3-.5 0-.8.4-.8 1v2.2h-.6v-2.2c0-.4 0-.5-.1-.7-.1-.2-.3-.3-.6-.3-.5 0-.9.4-.9 1v2.2h-.6V300h.6zM367.1 301.1v.4h-2l1.2-1.6c.3-.5.4-.6.4-.8 0-.3-.2-.4-.5-.4s-.5.2-.5.6h-.4c0-.6.4-1 1-1s1 .3 1 .8-.1.5-.4.9l-.8 1.1h1.1z"/></g><g><path d="M262.3 266.2h-.7v-5.3h1.5c1.1 0 1.8.6 1.8 1.6s-.3 1.1-.8 1.3c-.3.1-.5.2-1 .2l2.1 2.2h-.9l-2.1-2.2v2.2zm.7-2.7c.8 0 1.2-.4 1.2-1s-.4-1-1.1-1h-.8v2.1h.7zM266.4 264.6c0 .3 0 .5.2.7.2.3.6.5 1 .5s.9-.2 1.1-.6l.5.2c-.3.6-.9 1-1.6 1-1.1 0-1.9-.8-1.9-1.9s.8-1.9 1.9-1.9 1.9.8 1.9 1.9v.2h-3.1zm2.4-.4c0-.3 0-.4-.2-.6-.2-.3-.6-.5-1-.5s-.8.2-1 .5c-.1.2-.2.3-.2.6h2.4zM273.4 260.9h.6v5.3h-.6v-.6c-.4.5-.8.7-1.3.7-1 0-1.7-.8-1.7-1.9s.7-2 1.7-2 1 .2 1.3.6v-2.2zm-2.4 3.5c0 .8.5 1.4 1.2 1.4s1.2-.6 1.2-1.4-.5-1.4-1.2-1.4-1.2.6-1.2 1.4zM278.1 262.5v2.4c0 .5 0 .8-.4 1-.3.2-.6.4-1.1.4s-.8-.1-1.1-.4c-.2-.2-.4-.6-.4-1v-2.4h.6v2.3c0 .5.3.9.8.9s.5-.1.7-.3c.1-.1.2-.3.2-.6v-2.4h.6zM280.1 261.5c0 .2-.2.4-.4.4s-.4-.2-.4-.4.2-.4.4-.4.4.2.4.4zm0 4.7h-.6v-3.7h.6v3.7zM282.1 265.5c0 .2 0 .2.3.2h.3v.5h-.6c-.4 0-.6-.2-.6-.6V263h-.5v-.5h.5v-1.2h.6v1.2h.6v.5h-.6v2.4zM261.8 271.6v-.6l1.8-1.2v5.4h-.6v-4.4l-1.2.8zM266.2 274.9c0 .2-.2.4-.4.4s-.4-.2-.4-.4.2-.4.4-.4.4.2.4.4zM267.6 270.6v-.6h3l-1.6 2c.9 0 1.6.7 1.6 1.6s-.8 1.7-1.8 1.7-1.4-.5-1.6-1.3h.6c.1.4.5.7 1 .7s1.2-.5 1.2-1.1-.5-1.1-1.2-1.1-.4 0-.6.2l-.3-.2 1.5-1.9h-1.9zM274.8 271.5v.5c.3-.4.6-.6 1-.6s.8.2 1 .7c.3-.5.6-.7 1.2-.7s.7.1.9.4c.2.2.2.4.2 1v2.4h-.6V273c0-.4 0-.6-.1-.7-.1-.2-.4-.3-.6-.3-.5 0-.8.4-.8 1v2.2h-.6V273c0-.4 0-.5-.1-.7-.1-.2-.3-.3-.6-.3-.5 0-.9.4-.9 1v2.2h-.6v-3.7h.6zM282.4 272.7v.4h-2l1.2-1.6c.3-.5.4-.6.4-.8 0-.3-.2-.4-.5-.4s-.5.2-.5.6h-.4c0-.6.4-1 1-1s1 .3 1 .8-.1.5-.4.9l-.8 1.1h1.1z"/></g><g><path d="M346.4 126.5v.6h-3.8l3-4.8h-2.7v-.6h3.8l-3 4.8h2.7zM348.2 122.3c0 .2-.2.4-.4.4s-.4-.2-.4-.4.2-.4.4-.4.4.2.4.4zm0 4.7h-.6v-3.7h.6v3.7zM350.1 123.3v.5c.3-.4.6-.6 1-.6s.8.2 1 .7c.3-.5.6-.7 1.2-.7s.7.1.9.4c.2.2.2.4.2 1v2.4h-.6v-2.2c0-.4 0-.6-.1-.7-.1-.2-.4-.3-.6-.3-.5 0-.8.4-.8 1v2.2h-.6v-2.2c0-.4 0-.5-.1-.7-.1-.2-.3-.3-.6-.3-.5 0-.9.4-.9 1v2.2h-.6v-3.7h.6zM356.4 123.3v.5c.3-.4.6-.6 1-.6s.8.2 1 .7c.3-.5.6-.7 1.2-.7s.7.1.9.4c.2.2.2.4.2 1v2.4h-.6v-2.2c0-.4 0-.6-.1-.7-.1-.2-.4-.3-.6-.3-.5 0-.8.4-.8 1v2.2h-.6v-2.2c0-.4 0-.5-.1-.7-.1-.2-.3-.3-.6-.3-.5 0-.9.4-.9 1v2.2h-.6v-3.7h.6zM362.5 125.4c0 .3 0 .5.2.7.2.3.6.5 1 .5s.9-.2 1.1-.6l.5.2c-.3.6-.9 1-1.6 1-1.1 0-1.9-.8-1.9-1.9s.8-1.9 1.9-1.9 1.9.8 1.9 1.9v.2h-3.1zm2.4-.4c0-.3 0-.4-.2-.6-.2-.3-.6-.5-1-.5s-.8.2-1 .5c-.1.2-.2.3-.2.6h2.4zM367.3 123.3v.6c.1-.3.2-.4.3-.5.2-.1.4-.2.7-.2h.1v.6h-.2c-.3 0-.6.2-.8.4-.2.2-.2.4-.2.9v1.9h-.6v-3.7h.6zM343.4 132.4v-.6l1.8-1.2v5.4h-.6v-4.4l-1.2.8zM346.9 131.4v-.6h3l-1.6 2c.9 0 1.6.7 1.6 1.6s-.8 1.7-1.8 1.7-1.4-.5-1.6-1.3h.6c.1.4.5.7 1 .7s1.2-.5 1.2-1.1-.5-1.1-1.2-1.1-.4 0-.6.2l-.3-.2 1.5-1.9h-1.9zM351.8 135.7c0 .2-.2.4-.4.4s-.4-.2-.4-.4.2-.4.4-.4.4.2.4.4zM355.8 135.4v.6h-3l1.9-2.7c.5-.8.7-1 .7-1.3 0-.5-.4-.8-.9-.8s-.7.2-.8.4v.6h-.6c0-1 .6-1.6 1.5-1.6s1.5.5 1.5 1.3-.2.8-.6 1.5l-1.4 2h1.9zM359.4 132.3v.5c.3-.4.6-.6 1-.6s.8.2 1 .7c.3-.5.6-.7 1.2-.7s.7.1.9.4c.2.2.2.4.2 1v2.4h-.6v-2.2c0-.4 0-.6-.1-.7-.1-.2-.4-.3-.6-.3-.5 0-.8.4-.8 1v2.2h-.6v-2.2c0-.4 0-.5-.1-.7-.1-.2-.3-.3-.6-.3-.5 0-.9.4-.9 1v2.2h-.6v-3.7h.6zM367 133.5v.4h-2l1.2-1.6c.3-.5.4-.6.4-.8 0-.3-.2-.4-.5-.4s-.5.2-.5.6h-.4c0-.6.4-1 1-1s1 .3 1 .8-.1.5-.4.9l-.8 1.1h1.1z"/></g><g><path d="M198.9 324.8h-.7v-5.3h.7v2.5l2.1-2.5h.8l-2.2 2.6 2.2 2.7h-.9l-2-2.5v2.5zM205.9 322.9c0 1.1-.8 1.9-1.9 1.9s-1.9-.8-1.9-1.9.8-1.9 1.9-1.9 1.9.8 1.9 1.9zm-3.1 0c0 .8.5 1.4 1.3 1.4s1.2-.6 1.2-1.4-.5-1.4-1.2-1.4-1.3.6-1.3 1.4zM210 324.3c-.4.4-.8.5-1.4.5-1.1 0-1.8-.8-1.8-1.9s.8-1.9 1.8-1.9 1 .2 1.3.6l-.4.4c-.3-.3-.6-.4-.9-.4-.7 0-1.2.6-1.2 1.4s.5 1.4 1.2 1.4.6-.1.9-.4l.4.4zM211.5 321.6c.3-.4.7-.6 1.1-.6s.7.1.9.3c.2.2.3.5.3 1v2.5h-.6v-2.4c0-.5-.2-.8-.7-.8s-.5.1-.7.3c-.2.2-.2.4-.2.7v2.2h-.6v-5.3h.6v2.2zM215.5 323.1c0 .3 0 .5.2.7.2.3.6.5 1 .5s.9-.2 1.1-.6l.5.2c-.3.6-.9 1-1.6 1-1.1 0-1.9-.8-1.9-1.9s.8-1.9 1.9-1.9 1.9.8 1.9 1.9v.2h-3.1zm2.4-.4c0-.3 0-.4-.2-.6-.2-.3-.6-.5-1-.5s-.8.2-1 .5c-.1.2-.2.3-.2.6h2.4zM220.2 321.1v.5c.3-.4.6-.6 1.1-.6s.6.1.9.3c.2.2.3.5.3 1v2.5h-.6v-2.4c0-.3 0-.5-.1-.6-.1-.2-.3-.2-.6-.2s-.5.1-.7.3c-.2.2-.2.4-.2.7v2.2h-.6v-3.7h.6zM223.8 326h-.4l.7-2.1.6.2-.8 1.9zM228.9 321.8h2.1v.6h-2.1v1.8h2.1v.6h-2.8v-5.3h2.8v.6h-2.1v1.8zM233.9 322.1c0-.4-.3-.6-.7-.6s-.7.2-.7.5.2.4.8.6c.5.1.7.2.9.4s.3.4.3.7c0 .6-.5 1.1-1.3 1.1s-1.3-.4-1.4-1.1h.6c0 .4.3.6.8.6s.7-.2.7-.5-.2-.5-.8-.6c-.8-.2-1.2-.6-1.2-1.1s.5-1.1 1.3-1.1 1.3.4 1.3 1.1h-.6zM237.5 322.1c0-.4-.3-.6-.7-.6s-.7.2-.7.5.2.4.8.6c.5.1.7.2.9.4s.3.4.3.7c0 .6-.5 1.1-1.3 1.1s-1.3-.4-1.4-1.1h.6c0 .4.3.6.8.6s.7-.2.7-.5-.2-.5-.8-.6c-.8-.2-1.2-.6-1.2-1.1s.5-1.1 1.3-1.1 1.3.4 1.3 1.1h-.6zM239.6 323.1c0 .3 0 .5.2.7.2.3.6.5 1 .5s.9-.2 1.1-.6l.5.2c-.3.6-.9 1-1.6 1-1.1 0-1.9-.8-1.9-1.9s.8-1.9 1.9-1.9 1.9.8 1.9 1.9v.2h-3.1zm2.4-.4c0-.3 0-.4-.2-.6-.2-.3-.6-.5-1-.5s-.8.2-1 .5c-.1.2-.2.3-.2.6h2.4zM244.4 321.1v.5c.3-.4.6-.6 1.1-.6s.6.1.9.3c.2.2.3.5.3 1v2.5h-.6v-2.4c0-.3 0-.5-.1-.6-.1-.2-.3-.2-.6-.2s-.5.1-.7.3c-.2.2-.2.4-.2.7v2.2h-.6v-3.7h.6zM200.9 333.2v.6h-3l1.9-2.7c.5-.8.7-1 .7-1.3 0-.5-.4-.8-.9-.8s-.7.2-.8.4v.6h-.6c0-1 .6-1.6 1.5-1.6s1.5.5 1.5 1.3-.2.8-.6 1.5l-1.4 2h1.9zM202.4 330.2v-.6l1.8-1.2v5.4h-.6v-4.4l-1.2.8zM206.7 333.4c0 .2-.2.4-.4.4s-.4-.2-.4-.4.2-.4.4-.4.4.2.4.4zM209.5 331.6c-.2 0-.3.1-.5.1-.9 0-1.6-.7-1.6-1.6s.8-1.7 1.7-1.7 1.7.7 1.7 1.7-.1.7-.4 1.2l-1.5 2.5h-.7l1.3-2.1zm-1.5-1.5c0 .6.5 1.1 1.1 1.1s1.1-.5 1.1-1.1-.5-1.1-1-1.1-1.1.5-1.1 1.1zM214.1 330.1v.5c.3-.4.6-.6 1-.6s.8.2 1 .7c.3-.5.6-.7 1.2-.7s.7.1.9.4c.2.2.2.4.2 1v2.4h-.6v-2.2c0-.4 0-.6-.1-.7-.1-.2-.4-.3-.6-.3-.5 0-.8.4-.8 1v2.2h-.6v-2.2c0-.4 0-.5-.1-.7-.1-.2-.3-.3-.6-.3-.5 0-.9.4-.9 1v2.2h-.6v-3.7h.6zM221.6 331.3v.4h-2l1.2-1.6c.3-.5.4-.6.4-.8 0-.3-.2-.4-.5-.4s-.5.2-.5.6h-.4c0-.6.4-1 1-1s1 .3 1 .8-.1.5-.4.9l-.8 1.1h1.1z"/></g><g><path d="M262.6 221.9c1.1 0 1.7.5 1.7 1.4s-.1.6-.3.9c-.1.2-.3.2-.5.3.3 0 .4.1.6.2.3.2.4.6.4 1s-.2.9-.6 1.2c-.3.2-.7.3-1.3.3h-1.5v-5.3h1.5zm-.8 2.4h.7c.4 0 .7 0 .9-.2.2-.2.3-.4.3-.7s-.2-.6-.4-.8c-.2 0-.4-.1-.9-.1h-.6v1.8zm0 2.4h.7c.6 0 .8 0 1-.2.3-.1.4-.4.4-.8 0-.6-.4-.9-1.2-.9h-.8v1.8zM268.5 223.5h.6v3.7h-.6v-.7c-.4.6-.8.8-1.3.8-1 0-1.7-.8-1.7-1.9s.7-1.9 1.8-1.9 1 .2 1.3.7v-.6zm-2.1.9c-.2.3-.3.6-.3 1 0 .8.5 1.4 1.2 1.4s1.3-.6 1.3-1.4-.5-1.4-1.2-1.4-.7.1-.9.4zM273.3 221.9h.6v5.3h-.6v-.6c-.4.5-.8.7-1.3.7-1 0-1.7-.8-1.7-1.9s.7-2 1.7-2 1 .2 1.3.6v-2.2zm-2.4 3.5c0 .8.5 1.4 1.2 1.4s1.2-.6 1.2-1.4-.5-1.4-1.2-1.4-1.2.6-1.2 1.4zM261 231.5v-.6h3l-1.6 2c.9 0 1.6.7 1.6 1.6s-.8 1.7-1.8 1.7-1.4-.5-1.6-1.3h.6c.1.4.5.7 1 .7s1.2-.5 1.2-1.1-.5-1.1-1.2-1.1-.4 0-.6.2l-.3-.2 1.5-1.9h-1.9zM266 235.9c0 .2-.2.4-.4.4s-.4-.2-.4-.4.2-.4.4-.4.4.2.4.4zM270 233.6c.3.3.4.6.4 1 0 .9-.7 1.6-1.7 1.6s-1.6-.6-1.6-1.6.1-.8.4-1.1c.2-.2.3-.3.6-.4-.3 0-.4-.2-.5-.4-.2-.2-.3-.5-.3-.8 0-.8.6-1.3 1.5-1.3s1.4.6 1.4 1.3-.1.6-.3.8c-.1.2-.3.2-.5.3.3 0 .4.2.6.3zm-2.3 1c0 .6.5 1 1 1s1-.5 1-1-.5-1-1-1-1 .5-1 1zm.2-2.5c0 .5.4.8.8.8s.9-.4.9-.8-.4-.8-.8-.8-.9.3-.9.8zM274.5 232.5v.5c.3-.4.6-.6 1-.6s.8.2 1 .7c.3-.5.6-.7 1.2-.7s.7.1.9.4c.2.2.2.4.2 1v2.4h-.6V234c0-.4 0-.6-.1-.7-.1-.2-.4-.3-.6-.3-.5 0-.8.4-.8 1v2.2h-.6V234c0-.4 0-.5-.1-.7-.1-.2-.3-.3-.6-.3-.5 0-.9.4-.9 1v2.2h-.6v-3.7h.6zM282.1 233.7v.4h-2l1.2-1.6c.3-.5.4-.6.4-.8 0-.3-.2-.4-.5-.4s-.5.2-.5.6h-.4c0-.6.4-1 1-1s1 .3 1 .8-.1.5-.4.9l-.8 1.1h1.1z"/></g></g></svg>