<svg xmlns="http://www.w3.org/2000/svg" viewBox="0 0 568.2 405.1"><defs><style>.cls-1,.cls-10,.cls-11,.cls-12,.cls-13,.cls-14,.cls-15,.cls-16,.cls-17,.cls-18,.cls-19,.cls-2,.cls-20,.cls-21,.cls-22,.cls-23,.cls-24,.cls-25,.cls-26,.cls-3,.cls-4,.cls-5,.cls-6,.cls-7,.cls-8,.cls-9{fill:none;stroke-linecap:round;stroke-linejoin:round}.cls-1,.cls-10,.cls-11,.cls-12,.cls-13,.cls-14,.cls-15,.cls-16,.cls-17,.cls-18,.cls-19,.cls-2,.cls-20,.cls-21,.cls-22,.cls-23,.cls-25,.cls-26,.cls-3,.cls-4,.cls-5,.cls-6,.cls-8,.cls-9{stroke-width:.1px}.cls-1,.cls-10,.cls-12,.cls-18,.cls-19,.cls-21,.cls-23,.cls-24,.cls-25,.cls-3,.cls-4,.cls-6,.cls-8,.cls-9{stroke:#194164}.cls-1,.cls-10,.cls-12,.cls-19,.cls-21,.cls-6,.cls-8,.cls-9{stroke-dasharray:0 0 0 0 2.9 1.4 .2 1.4}.cls-2{stroke:#646464}.cls-11,.cls-13,.cls-14,.cls-15,.cls-16,.cls-17,.cls-18,.cls-20,.cls-25,.cls-26,.cls-3,.cls-4,.cls-5{stroke-dasharray:0 0 1.4 1.4}.cls-4{stroke-dashoffset:1px}.cls-27,.cls-28{fill:#fff}.cls-11,.cls-13,.cls-14,.cls-15,.cls-16,.cls-17,.cls-20,.cls-22,.cls-26,.cls-5{stroke:#969696}.cls-6{stroke-dashoffset:1.4px}.cls-7{stroke:#000;stroke-width:.3px}.cls-8{stroke-dashoffset:4.3px}.cls-16,.cls-9{stroke-dashoffset:2.6px}.cls-10{stroke-dashoffset:1.7px}.cls-11{stroke-dashoffset:2.8px}.cls-12{stroke-dashoffset:1px}.cls-13{stroke-dashoffset:2.4px}.cls-14{stroke-dashoffset:2.7px}.cls-15{stroke-dashoffset:2.5px}.cls-17,.cls-21,.cls-25{stroke-dashoffset:.7px}.cls-28,.cls-29{fill-rule:evenodd}.cls-18{stroke-dashoffset:.2px}.cls-19{stroke-dashoffset:1.5px}.cls-20{stroke-dashoffset:2.7px}.cls-24{stroke-width:.3px}.cls-26{stroke-dashoffset:1.2px}</style></defs><g id="Plan"><path class="cls-29" d="M378.6 26.3h-5.8v5.5h39.8v-9.6h-30.2l-3.4 3.4h-.4v.7"/><path class="cls-28" d="M412.6 22.2h-30.2l-3.4 3.4h33.6v-3.4"/><path class="cls-22" d="M380 24.9l.7.7M381.9 22.7l2.9 2.9M385.3 22.2l3.3 3.4M389.4 22.2l3.3 3.4M393.4 22.2l3.4 3.4M397.3 22.2l3.3 3.4M401.4 22.2l3.3 3.4M405.4 22.2l3.4 3.4M409.5 22.2l3.4 3.4"/><path class="cls-28" d="M412.6 25.6h-34v.7h34v-.7M412.6 26.3h-39.8v5.5h39.8v-5.5"/><path class="cls-22" d="M412.2 31.8v-5.5M410.7 31.8v-5.5M409.3 31.8v-5.5M407.8 31.8v-5.5M406.6 31.8v-5.5M405.2 31.8v-5.5M403.8 31.8v-5.5M402.3 31.8v-5.5M400.9 31.8v-5.5M399.4 31.8v-5.5M398 31.8v-5.5M396.6 31.8v-5.5M395.1 31.8v-5.5M393.7 31.8v-5.5M392.2 31.8v-5.5M391 31.8v-5.5M389.6 31.8v-5.5M388.2 31.8v-5.5M386.7 31.8v-5.5M385.3 31.8v-5.5M383.8 31.8v-5.5M382.4 31.8v-5.5M381 31.8v-5.5M379.5 31.8v-5.5M378.1 31.8v-5.5M376.9 31.8v-5.5M375.4 31.8v-5.5M374 31.8v-5.5"/><path class="cls-24" d="M379 25.6h33.6M382.4 22.2h30.2"/><path class="cls-22" d="M372.8 31.8h39.8M378.6 26.3h34"/><path class="cls-23" d="M382.4 22.2h30.2M372.8 31.8h39.8"/><path class="cls-22" d="M372.8 26.3h5.8M372.8 26.3v5.5"/><path class="cls-23" d="M367.8 31.8h5"/><path class="cls-29" d="M379 25.6l3.4-3.4v-6.5h-14.6v16.1h5v-5.5h5.8v-.7h.4"/><path class="cls-28" d="M379 25.6l3.4-3.4v-6.5H379v9.9"/><path class="cls-22" d="M379.3 24.1l.7.8M379.3 20.1l2.6 2.6M379.3 16l3.3 3.3"/><path class="cls-28" d="M378.6 25.6h.4v-9.9h-.4v9.9M372.8 26.3h5.8V15.7h-5.8v10.6"/><path class="cls-22" d="M373 26.3h5.8M373 24.9h5.8M373 23.4h5.8M373 22h5.8M373 20.5h5.8M373 19.1h5.8M373 17.9h5.8M373 16.5h5.8"/><path class="cls-28" d="M372.8 15.7h-5v16.1h5V15.7"/><path class="cls-22" d="M368 28.7l2.9 3.1M368 24.9l5 5M368 20.8l5 5M368 16.7l5 5M370.9 15.7l2.1 2.2"/><path class="cls-24" d="M379 15.7v9.9M382.4 15.7v6.5"/><path class="cls-22" d="M372.8 15.7v10.6M378.6 15.7v9.9"/><path class="cls-24" d="M367.8 15.7v16.1M372.8 15.7v10.6"/><path class="cls-23" d="M382.4 15.7v6.5M367.8 15.7v16.1"/><path class="cls-22" d="M378.6 25.6v.7M378.6 26.3h-5.8"/><path class="cls-24" d="M372.8 26.3v5.5M372.8 31.8h-5M153.4 39.7H193v29.8h-39.6z"/><path class="cls-23" d="M144.6 71.4V35.9M147.4 53.2v13.7M150.6 40.2v13.9M202.2 71.4V35.9M199 53.2v13.7M196.2 40.2v13.9M452 321h.7v17h-.7zM452.7 337.3h15.4v.7h-15.4zM452.7 321h15.4v.5h-15.4zM452 346.5h.7v1.2h-.7zM468.1 321h.5v17h-.5zM452 304h.7v17h-.7zM452.7 320.5h15.4v.5h-15.4zM452.7 304h15.4v.5h-15.4zM468.1 304h.5v17h-.5zM452 286.9h.7v17h-.7zM452.7 303.5h15.4v.5h-15.4zM452.7 286.9h15.4v.7h-15.4zM468.1 286.9h.5v17h-.5zM452 269.9h.7v17h-.7z"/><path class="cls-23" d="M452.7 286.5h15.4v.5h-15.4zM452.7 269.9h15.4v.7h-15.4zM468.1 269.9h.5v17h-.5zM452 268.9h.7v1h-.7zM452 338.1h.7v8.4h-.7zM452.7 346h15.4v.5h-15.4zM452.7 338.1h15.4v.5h-15.4zM468.1 338.1h.5v8.4h-.5zM371.8 268.9h17.3v78.7h-17.3zM387 346.5h2.1M387 338.1h2.1M387 321h2.1M387 304h2.1M387 286.9h2.1"/><path class="cls-28" d="M376.8 287.9h8.9c.3 0 .5 0 .8.2.2.1.5.2.6.4.2.2.3.4.4.6 0 .2.1.5.1.8v11.2c0 .3 0 .5-.1.8-.1.2-.2.5-.4.6-.2.2-.4.3-.6.4-.2.1-.5.2-.8.2h-8.9c-.3 0-.5 0-.8-.2-.2 0-.5-.2-.6-.4-.2-.2-.3-.4-.4-.6 0-.2-.2-.5-.2-.8v-11.2c0-.3 0-.5.2-.8.1-.2.2-.5.4-.6.2-.2.4-.3.6-.4.2 0 .5-.2.8-.2"/><path class="cls-23" d="M376.8 287.9h8.9c.3 0 .5 0 .8.2.2.1.5.2.6.4.2.2.3.4.4.6 0 .2.1.5.1.8v11.2c0 .3 0 .5-.1.8-.1.2-.2.5-.4.6-.2.2-.4.3-.6.4-.2.1-.5.2-.8.2h-8.9c-.3 0-.5 0-.8-.2-.2 0-.5-.2-.6-.4-.2-.2-.3-.4-.4-.6 0-.2-.2-.5-.2-.8v-11.2c0-.3 0-.5.2-.8.1-.2.2-.5.4-.6.2-.2.4-.3.6-.4.2 0 .5-.2.8-.2"/><path class="cls-28" d="M379.3 295.5c0-.6-.5-1.1-1.2-1.1s-1.2.5-1.2 1.1.5 1.1 1.2 1.1 1.2-.5 1.2-1.1"/><path class="cls-23" d="M379.3 295.5c0-.6-.5-1.1-1.2-1.1s-1.2.5-1.2 1.1.5 1.1 1.2 1.1 1.2-.5 1.2-1.1"/><path class="cls-27" d="M373 321.5h14.6v15.8H373z"/><path class="cls-23" d="M373 321.5h14.6v15.8H373z"/><path class="cls-28" d="M385.8 333.5c0-1.6-1.2-2.9-2.8-2.9s-2.8 1.3-2.8 2.9 1.2 2.9 2.8 2.9 2.8-1.3 2.8-2.9"/><path class="cls-23" d="M385.8 333.5c0-1.6-1.2-2.9-2.8-2.9s-2.8 1.3-2.8 2.9 1.2 2.9 2.8 2.9 2.8-1.3 2.8-2.9"/><path class="cls-28" d="M378.6 334.5c0-1.2-1-2.2-2.3-2.2s-2.3 1-2.3 2.2 1 2.2 2.3 2.2 2.3-1 2.3-2.2"/><path class="cls-23" d="M378.6 334.5c0-1.2-1-2.2-2.3-2.2s-2.3 1-2.3 2.2 1 2.2 2.3 2.2 2.3-1 2.3-2.2"/><path class="cls-28" d="M385.3 325.9c0-1.3-1-2.3-2.2-2.3s-2.2 1-2.2 2.3 1 2.3 2.2 2.3 2.2-1 2.2-2.3"/><path class="cls-23" d="M385.3 325.9c0-1.3-1-2.3-2.2-2.3s-2.2 1-2.2 2.3 1 2.3 2.2 2.3 2.2-1 2.2-2.3"/><path class="cls-28" d="M379.5 326.3c0-1.6-1.3-2.9-2.9-2.9s-2.9 1.3-2.9 2.9 1.3 2.9 2.9 2.9 2.9-1.3 2.9-2.9"/><path class="cls-23" d="M379.5 326.3c0-1.6-1.3-2.9-2.9-2.9s-2.9 1.3-2.9 2.9 1.3 2.9 2.9 2.9 2.9-1.3 2.9-2.9"/><path class="cls-1" d="M381.9 268.9v78.8"/><path class="cls-23" d="M387 269.9h2.1"/><path class="cls-28" d="M200.7 72.4l6 7.2v-7.2h-6"/><path class="cls-22" d="M207 76.2l-3.9-3.8M205.5 77.9l1.5-1.4M203.6 75.7l3.4-3.3M201.7 73.6l1.2-1.2"/><path class="cls-28" d="M200.7 72.4l6 7.2v-7.2h-6"/><path class="cls-22" d="M207 76.2l-3.9-3.8M205.5 77.9l1.5-1.4M203.6 75.7l3.4-3.3M201.7 73.6l1.2-1.2"/><path class="cls-24" d="M206.7 72.4v7.2M206.7 72.4v7.2"/><path class="cls-28" d="M200.7 33.5h6v3.1h-6v-3.1"/><path class="cls-22" d="M207 36.1l-2.7-2.6M203.4 36.6l-2.4-2.4M206.7 36.6l.3-.2M202.6 36.6l3.2-3.1M201 34.5l.7-1"/><path class="cls-28" d="M206.7 33.5h-6v3.1h6v-3.1"/><path class="cls-22" d="M207 36.1l-2.7-2.6M203.4 36.6l-2.4-2.4M206.7 36.6l.3-.2M202.6 36.6l3.2-3.1M201 34.5l.7-1"/><path class="cls-24" d="M200.7 33.5v3.1M206.7 33.5v3.1M206.7 33.5v3.1M200.7 33.5v3.1"/><path class="cls-23" d="M202.2 39.7v29.6"/><path class="cls-1" d="M206.7 39.7v29.6"/><path class="cls-23" d="M206.7 68.8v.5"/><path class="cls-28" d="M206.7 36.6v3.1h-4.5v-3.1"/><path class="cls-22" d="M206.5 39.7l-3.1-3.1M202.4 39.7v-.2M203.6 39.7l3.1-3.1M202.4 36.9l.2-.3"/><path class="cls-28" d="M206.7 72.4v-3.1h-4.5v3.1"/><path class="cls-22" d="M207 72.1l-3.2-2.8M203.1 72.4l-.7-.7M202.9 72.4l3.1-3.1"/><path class="cls-24" d="M206.7 39.7h-4.5M206.7 69.3h-4.5M206.7 39.7h-4.5M206.7 36.6v3.1M206.7 69.3h-4.5M206.7 72.4v-3.1M200.7 36.6h1.5M200.7 72.4h1.5M206.7 36.6v3.1M206.7 72.4v-3.1M202.2 39.7v-3.1M202.2 69.3v3.1"/><path class="cls-28" d="M436.7 86.4c.9 1.3.9 3 0 4.3-1.5 1.9-3.8 2.9-6.2 2.9l-9-.3v-9.6l9-.3c2.4 0 4.7 1 6.2 2.9"/><path class="cls-23" d="M436.7 86.4c.9 1.3.9 3 0 4.3-1.5 1.9-3.8 2.9-6.2 2.9l-9-.3v-9.6l9-.3c2.4 0 4.7 1 6.2 2.9"/><path class="cls-28" d="M426.6 88.6c0-1 .3-2 1.1-2.8.7-.7 1.7-1.2 2.7-1.2 2.1 0 4.1.9 5.4 2.5.6.9.6 2 0 2.9-1.3 1.6-3.3 2.5-5.4 2.5-1 0-2-.4-2.7-1.2-.7-.7-1.1-1.8-1.1-2.8"/><path class="cls-23" d="M426.6 88.6c0-1 .3-2 1.1-2.8.7-.7 1.7-1.2 2.7-1.2 2.1 0 4.1.9 5.4 2.5.6.9.6 2 0 2.9-1.3 1.6-3.3 2.5-5.4 2.5-1 0-2-.4-2.7-1.2-.7-.7-1.1-1.8-1.1-2.8"/><path class="cls-28" d="M421.9 37.3H470l.1.1.1.1v20.8l-.1.1-.1.1H421.7l-.1-.1-.1-.1V37.5l.1-.1.1-.1h.2"/><path class="cls-23" d="M421.9 37.3H470l.1.1.1.1v20.8l-.1.1-.1.1H421.7l-.1-.1-.1-.1V37.5l.1-.1.1-.1h.2"/><path class="cls-28" d="M427.1 39.4h37.4c.4 0 .9 0 1.3.3.4.2.8.4 1.1.7.3.3.6.7.7 1.1.2.4.3.9.3 1.3V53c0 .4 0 .9-.3 1.3-.2.4-.4.8-.7 1.1-.3.3-.7.6-1.1.7-.4.2-.9.3-1.3.3h-37.4c-.4 0-.9 0-1.3-.3-.4-.2-.8-.4-1.1-.7-.3-.3-.6-.7-.7-1.1-.2-.4-.3-.9-.3-1.3V42.8c0-.4 0-.9.3-1.3.2-.4.4-.8.7-1.1.3-.3.7-.6 1.1-.7.4-.2.9-.3 1.3-.3"/><path class="cls-23" d="M427.1 39.4h37.4c.4 0 .9 0 1.3.3.4.2.8.4 1.1.7.3.3.6.7.7 1.1.2.4.3.9.3 1.3V53c0 .4 0 .9-.3 1.3-.2.4-.4.8-.7 1.1-.3.3-.7.6-1.1.7-.4.2-.9.3-1.3.3h-37.4c-.4 0-.9 0-1.3-.3-.4-.2-.8-.4-1.1-.7-.3-.3-.6-.7-.7-1.1-.2-.4-.3-.9-.3-1.3V42.8c0-.4 0-.9.3-1.3.2-.4.4-.8.7-1.1.3-.3.7-.6 1.1-.7.4-.2.9-.3 1.3-.3M420.8 116.3V80.1"/><path class="cls-7" d="M421.5 116.3v-37"/><path class="cls-23" d="M419.4 116.3V81.5M420.8 116.3V80.1M421.5 116.3v-37M419.4 116.3V81.5M417 80.1V61.6"/><path class="cls-7" d="M417.7 79.3v-17"/><path class="cls-23" d="M415.5 81.5V60.4M417 80.1V61.6M417.7 79.3v-17M415.5 81.5V60.4M420.8 61.6V36.9"/><path class="cls-7" d="M421.5 62.3V36.9"/><path class="cls-23" d="M419.4 60.4V36.9M420.8 61.6V36.9M421.5 62.3V36.9M419.4 60.4V36.9"/><path class="cls-28" d="M421.5 63.1h12.4c.1 0 .3.1.4.2.1.1.2.2.2.4V77.8c0 .1-.1.3-.2.4-.1.1-.2.2-.4.2h-12.4V62.8"/><path class="cls-23" d="M421.5 63.1h12.4c.1 0 .3.1.4.2.1.1.2.2.2.4V77.8c0 .1-.1.3-.2.4-.1.1-.2.2-.4.2h-12.4V62.8"/><path class="cls-18" d="M421.5 79.3h-3.8"/><path class="cls-4" d="M417.7 79.3v-17"/><path class="cls-18" d="M417.7 62.3h3.8"/><path class="cls-23" d="M417 61.6h3.8"/><path class="cls-7" d="M417.7 62.3h3.8"/><path class="cls-23" d="M415.5 60.4h3.9M417 61.6h3.8M417.7 62.3h3.8M415.5 60.4h3.9M420.8 80.1H417"/><path class="cls-7" d="M421.5 79.3h-3.8"/><path class="cls-23" d="M419.4 81.5h-3.9M420.8 80.1H417M421.5 79.3h-3.8M419.4 81.5h-3.9"/><path class="cls-7" d="M421.5 79.3v-17"/><path class="cls-29" d="M57.2 5.9H42.3V.1h14.9v5.8"/><path class="cls-28" d="M42.3 5.9h3.4V.1h-3.4v5.8"/><path class="cls-22" d="M42.6 4l1.6 1.9M42.6.1l3.3 3.2"/><path class="cls-28" d="M45.7 5.9h.7V.1h-.7v5.8"/><path class="cls-28" d="M46.4 5.9h5.5V.1h-5.5v5.8"/><path class="cls-22" d="M52.2.9h-5.6M52.2 2.3h-5.6M52.2 3.5h-5.6M52.2 4.9h-5.6"/><path class="cls-28" d="M51.9 5.9h5.3V.1h-5.3v5.8"/><path class="cls-22" d="M52.2 5.7l.2.2M52.2 1.6l4.3 4.3M54.6.1l2.8 2.7"/><path class="cls-24" d="M45.7 5.9V.1M42.3 5.9V.1"/><path class="cls-22" d="M51.9 5.9V.1M46.4 5.9V.1"/><path class="cls-24" d="M57.2 5.9V.1M51.9 5.9V.1"/><path class="cls-23" d="M42.3 5.9V.1M57.2 5.9V.1"/><path class="cls-29" d="M57.2 39.3H42.3v-7h14.9v7"/><path class="cls-28" d="M42.3 39.3h3.4v-7h-3.4v7"/><path class="cls-22" d="M42.6 36.1l3.1 3.2M42.6 32.3l3.3 3.1"/><path class="cls-28" d="M45.7 39.3h.7v-7h-.7v7"/><path class="cls-28" d="M46.4 39.3h5.5v-7h-5.5v7"/><path class="cls-22" d="M52.2 33.3h-5.6M52.2 34.7h-5.6M52.2 36.1h-5.6M52.2 37.6h-5.6M52.2 39h-5.6"/><path class="cls-28" d="M51.9 39.3h5.3v-7h-5.3v7"/><path class="cls-22" d="M52.2 37.6l1.4 1.7M52.2 33.7l5.2 5.3M54.8 32.3l2.6 2.6"/><path class="cls-24" d="M45.7 39.3v-7M42.3 39.3v-7"/><path class="cls-22" d="M51.9 39.3v-7M46.4 39.3v-7"/><path class="cls-24" d="M57.2 39.3v-7M51.9 39.3v-7"/><path class="cls-23" d="M42.3 39.3v-7M57.2 39.3v-7"/><path class="cls-29" d="M57.2 105.5H42.3v-7h14.9v7"/><path class="cls-28" d="M42.3 105.5h3.4v-7h-3.4v7"/><path class="cls-22" d="M42.6 104.3l1.2 1.2M42.6 100.2l3.3 3.4M44.7 98.5l1.2 1"/><path class="cls-28" d="M45.7 105.5h.7v-7h-.7v7"/><path class="cls-28" d="M46.4 105.5h5.5v-7h-5.5v7"/><path class="cls-22" d="M52.2 98.5h-5.6M52.2 100h-5.6M52.2 101.4h-5.6M52.2 102.9h-5.6M52.2 104.3h-5.6"/><path class="cls-28" d="M51.9 105.5h5.3v-7h-5.3v7"/><path class="cls-22" d="M52.2 101.9l3.6 3.6M52.9 98.5l4.5 4.6M56.7 98.5l.7.5"/><path class="cls-24" d="M45.7 105.5v-7M42.3 105.5v-7"/><path class="cls-22" d="M51.9 105.5v-7M46.4 105.5v-7"/><path class="cls-24" d="M57.2 105.5v-7M51.9 105.5v-7"/><path class="cls-23" d="M42.3 105.5v-7M57.2 105.5v-7"/><path class="cls-29" d="M57.2 140.5H42.3v-8.8h14.9v8.8"/><path class="cls-28" d="M42.3 140.5h3.4v-8.8h-3.4v8.8"/><path class="cls-22" d="M42.6 140.3v.2M42.6 136.2l3.3 3.4M42.6 132.4l3.3 3.3"/><path class="cls-28" d="M45.7 140.5h.7v-8.8h-.7v8.8"/><path class="cls-28" d="M46.4 140.5h5.5v-8.8h-5.5v8.8"/><path class="cls-22" d="M52.2 132.6h-5.6M52.2 134.1h-5.6M52.2 135.5h-5.6M52.2 136.9h-5.6M52.2 138.1h-5.6M52.2 139.6h-5.6"/><path class="cls-28" d="M51.9 140.5h5.3v-8.8h-5.3v8.8"/><path class="cls-22" d="M52.2 137.9l2.6 2.6M52.2 133.8l5.2 5.3M53.8 131.7l3.6 3.3"/><path class="cls-24" d="M45.7 140.5v-8.8M42.3 140.5v-8.8"/><path class="cls-22" d="M51.9 140.5v-8.8M46.4 140.5v-8.8"/><path class="cls-24" d="M57.2 140.5v-8.8M51.9 140.5v-8.8"/><path class="cls-23" d="M42.3 140.5v-8.8M57.2 140.5v-8.8"/><path class="cls-1" d="M51.9 97.8h5.3"/><path class="cls-23" d="M56.7 97.8h.5"/><path class="cls-1" d="M57.2 97.8V40"/><path class="cls-23" d="M57.2 40.5V40"/><path class="cls-8" d="M57.2 40h-5.3"/><path class="cls-23" d="M52.4 40h-.5"/><path class="cls-1" d="M49.8 98.5h-7.5"/><path class="cls-6" d="M42.3 98.5v3.4"/><path class="cls-23" d="M41.1 101.9h-.7"/><path class="cls-21" d="M40.4 101.9v-66"/><path class="cls-23" d="M40.4 35.9h1.9"/><path class="cls-9" d="M42.3 35.9v3.4"/><path class="cls-1" d="M42.3 39.3h7.5"/><path class="cls-24" d="M42.3 98.5v3.4M42.3 39.3v-3.4"/><path class="cls-23" d="M49.8 39.3H52v59.3h-2.2zM49.8 94.7h2.1M49.8 42.9h2.1M51.9 98.5h-2.1M51.9 70.9h-2.1M51.9 94.7h-2.1M51.9 66.9h-2.1M51.9 70.9h-2.1M51.9 42.9h-2.1M51.9 66.9h-2.1M51.9 39.3h-2.1"/><path class="cls-24" d="M42.3 98.5h3.4M45.7 98.5h4.1"/><path class="cls-28" d="M57.2 98.5v-.7h-5.3v.7"/><path class="cls-22" d="M56.7 98.5l-.7-.7M52.9 98.5l-.7-.7M56.5 98.5l.7-.7M52.4 98.5l.7-.7"/><path class="cls-24" d="M57.2 98.5v-.7h-5.3v.7M42.3 39.3h3.4M45.7 39.3h4.1"/><path class="cls-28" d="M57.2 39.3v.7h-5.3v-.7"/><path class="cls-22" d="M54.3 40l-.7-.7M55 40l.8-.7"/><path class="cls-24" d="M57.2 39.3v.7h-5.3v-.7"/><path class="cls-29" d="M50.2 32.1v-26h-7.9v-.2h14.9v26.4H42.3v-.2h7.9"/><path class="cls-29" d="M42.3 6.1v-.2h14.9v26.4H42.3v-.2h7.9v-26h-7.9"/><path class="cls-29" d="M57.2 5.9v26.4H42.3v-.2h7.9v-26h-7.9v-.2h14.9"/><path class="cls-29" d="M42.3 32.3v-.2h7.9v-26h-7.9v-.2h14.9v26.4H42.3"/><path class="cls-29" d="M50.2 32.1v-26h-7.9v-.2h14.9v26.4H42.3v-.2h7.9"/><path class="cls-29" d="M42.3 6.1v-.2h14.9v26.4H42.3v-.2h7.9v-26h-7.9"/><path class="cls-29" d="M57.2 5.9v26.4H42.3v-.2h7.9v-26h-7.9v-.2h14.9"/><path class="cls-29" d="M42.3 32.3v-.2h7.9v-26h-7.9v-.2h14.9v26.4H42.3"/><path class="cls-29" d="M50.2 32.1v-26h-7.9v-.2h14.9v26.4H42.3v-.2h7.9"/><path class="cls-29" d="M42.3 6.1v-.2h14.9v26.4H42.3v-.2h7.9v-26h-7.9"/><path class="cls-29" d="M57.2 5.9v26.4H42.3v-.2h7.9v-26h-7.9v-.2h14.9"/><path class="cls-29" d="M42.3 32.3v-.2h7.9v-26h-7.9v-.2h14.9v26.4H42.3"/><path class="cls-29" d="M50.2 32.1v-26h-7.9v-.2h14.9v26.4H42.3v-.2h7.9"/><path class="cls-29" d="M42.3 6.1v-.2h14.9v26.4H42.3v-.2h7.9v-26h-7.9"/><path class="cls-29" d="M57.2 5.9v26.4H42.3v-.2h7.9v-26h-7.9v-.2h14.9"/><path class="cls-29" d="M42.3 32.3v-.2h7.9v-26h-7.9v-.2h14.9v26.4H42.3"/><path class="cls-29" d="M50.2 32.1v-26h-7.9v-.2h14.9v26.4H42.3v-.2h7.9"/><path class="cls-29" d="M42.3 6.1v-.2h14.9v26.4H42.3v-.2h7.9v-26h-7.9"/><path class="cls-29" d="M57.2 5.9v26.4H42.3v-.2h7.9v-26h-7.9v-.2h14.9"/><path class="cls-28" d="M42.3 32.3h3.4v-.2h-3.4v.2"/><path class="cls-22" d="M42.6 32.1v.2"/><path class="cls-28" d="M45.7 5.9h-3.4v.2h3.4v-.2"/><path class="cls-22" d="M44.2 5.9l.3.2"/><path class="cls-28" d="M45.7 32.3h.7v-.2h-.7v.2M46.4 5.9h-.7v.2h.7v-.2"/><path class="cls-28" d="M46.4 32.3h5.5V5.9h-5.5v.2h3.8v26h-3.8v.2"/><path class="cls-22" d="M52.2 6.4h-1.7M52.2 7.8h-1.7M52.2 9.3h-1.7M52.2 10.7h-1.7M52.2 12.1h-1.7M52.2 13.6h-1.7M52.2 15h-1.7M52.2 16.5h-1.7M52.2 17.9h-1.7M52.2 19.1h-1.7M52.2 20.5h-1.7M52.2 22h-1.7M52.2 23.4h-1.7M52.2 24.9h-1.7M52.2 26.3h-1.7M52.2 27.7h-1.7M52.2 29.2h-1.7M52.2 30.6h-1.7M52.2 32.1h-1.7"/><path class="cls-28" d="M51.9 32.3h5.3V5.9h-5.3v26.4"/><path class="cls-22" d="M52.2 29.7l2.6 2.6M52.2 25.6l5.2 5.3M52.2 21.7l5.2 5.3M52.2 17.7l5.2 5.2M52.2 13.6l5.2 5.3M52.2 9.5l5.2 5.3M52.4 5.9l5 5M56.5 5.9l.9 1"/><path class="cls-24" d="M57.2 32.3V5.9"/><path class="cls-23" d="M50.2 32.1h-3.8M50.2 6.1v26M46.4 6.1h3.8"/><path class="cls-22" d="M51.9 32.3V5.9"/><path class="cls-24" d="M51.9 32.3V5.9"/><path class="cls-23" d="M46.4 6.1v-.2M45.7 6.1h.7M46.4 32.1h-.7M46.4 32.3v-.2M45.7 6.1v-.2"/><path class="cls-24" d="M42.3 6.1h3.4M42.3 5.9v.2M42.3 32.1v.2M45.7 32.1h-3.4"/><path class="cls-23" d="M57.2 32.3V5.9M42.3 5.9v.2M42.3 6.1h7.9M50.2 6.1v26M50.2 32.1h-7.9M42.3 32.1v.2M45.7 32.3v-.2"/><path class="cls-29" d="M50.2 131.7v-26.2h-7.9 14.9v26.2H42.3h7.9"/><path class="cls-29" d="M42.3 105.5h14.9v26.2H42.3h7.9v-26.2h-7.9"/><path class="cls-29" d="M57.2 105.5v26.2H42.3h7.9v-26.2h-7.9 14.9"/><path class="cls-28" d="M46.4 131.7h5.5v-26.2h-5.5 3.8v26.2h-3.8"/><path class="cls-22" d="M52.2 105.7h-1.7M52.2 107.2h-1.7M52.2 108.4h-1.7M52.2 109.8h-1.7M52.2 111.3h-1.7M52.2 112.7h-1.7M52.2 114.1h-1.7M52.2 115.6h-1.7M52.2 117h-1.7M52.2 118.5h-1.7M52.2 119.9h-1.7M52.2 121.3h-1.7M52.2 122.8h-1.7M52.2 124h-1.7M52.2 125.4h-1.7M52.2 126.9h-1.7M52.2 128.3h-1.7M52.2 129.7h-1.7M52.2 131.2h-1.7"/><path class="cls-28" d="M51.9 131.7h5.3v-26.2h-5.3v26.2"/><path class="cls-22" d="M52.2 129.7l1.6 2M52.2 125.9l5.2 5.3M52.2 121.8l5.2 5.3M52.2 117.7l5.2 5.3M52.2 113.9l5.2 5.3M52.2 109.8l5.2 5.3M52.2 105.7l5.2 5.3M55.8 105.5l1.6 1.7"/><path class="cls-24" d="M57.2 131.7v-26.2"/><path class="cls-23" d="M50.2 131.7h-3.8M50.2 105.5v26.2M46.4 105.5h3.8"/><path class="cls-22" d="M51.9 131.7v-26.2"/><path class="cls-24" d="M51.9 131.7v-26.2"/><path class="cls-23" d="M45.7 105.5h.7M46.4 131.7h-.7M45.7 105.5"/><path class="cls-24" d="M42.3 105.5h3.4M45.7 131.7h-3.4"/><path class="cls-23" d="M57.2 131.7v-26.2M42.3 105.5h7.9M50.2 105.5v26.2M50.2 131.7h-7.9M45.7 131.7"/><path class="cls-29" d="M389.1 347.7v14.6h-27.3v-14.6h27.3"/><path class="cls-28" d="M389.1 362.3v-3.4h-27.3v3.4h27.3"/><path class="cls-22" d="M362 359.4l2.6 2.9M365.4 358.9l3.3 3.4M369.2 358.9l3.4 3.4M373.3 358.9l3.3 3.4M377.4 358.9l3.3 3.4M381.4 358.9l3.4 3.4M385.3 358.9l3.3 3.4"/><path class="cls-28" d="M389.1 358.9v-.4h-27.3v.4h27.3M389.1 358.5v-5.8h-27.3v5.8h27.3"/><path class="cls-22" d="M362.5 352.7v5.8M363.9 352.7v5.8M365.4 352.7v5.8M366.8 352.7v5.8M368.2 352.7v5.8M369.7 352.7v5.8M371.1 352.7v5.8M372.6 352.7v5.8M374 352.7v5.8M375.4 352.7v5.8M376.9 352.7v5.8M378.1 352.7v5.8M379.5 352.7v5.8M381 352.7v5.8M382.4 352.7v5.8M383.8 352.7v5.8M385.3 352.7v5.8M386.7 352.7v5.8M388.2 352.7v5.8"/><path class="cls-28" d="M389.1 352.7v-5h-27.3v5h27.3"/><path class="cls-22" d="M362 351.5l1 1.2M362 347.7l5 5M366.1 347.7l5 5M370.2 347.7l5 5M374 347.7l5 5M378.1 347.7l5 5M382.2 347.7l5 5M386 347.7l3.4 3.1"/><path class="cls-24" d="M389.1 358.9h-27.3M389.1 362.3h-27.3"/><path class="cls-22" d="M389.1 352.7h-27.3M389.1 358.5h-27.3"/><path class="cls-24" d="M389.1 347.7h-27.3M389.1 352.7h-27.3"/><path class="cls-23" d="M389.1 362.3h-27.3M389.1 347.7h-27.3"/><path class="cls-29" d="M503.4 347.7v14.6H452v-14.6h51.4"/><path class="cls-28" d="M503.4 362.3v-3.4H452v3.4h51.4"/><path class="cls-22" d="M452.2 361.6l.8.7M453.4 358.9l3.4 3.4M457.5 358.9l3.4 3.4M461.6 358.9l3.4 3.4M465.4 358.9l3.4 3.4M469.5 358.9l3.4 3.4M473.6 358.9l3.4 3.4M477.4 358.9l3.4 3.4M481.5 358.9l3.4 3.4M485.6 358.9l3.4 3.4M489.7 358.9l3.3 3.4M493.5 358.9l3.4 3.4M497.6 358.9l3.4 3.4M501.7 358.9l1.9 2"/><path class="cls-28" d="M503.4 358.9v-.4H452v.4h51.4M503.4 358.5v-5.8H452v5.8h51.4"/><path class="cls-22" d="M453.2 352.7v5.8M454.6 352.7v5.8M456.1 352.7v5.8M457.5 352.7v5.8M459 352.7v5.8M460.4 352.7v5.8M461.8 352.7v5.8M463.3 352.7v5.8M464.7 352.7v5.8M466.2 352.7v5.8M467.4 352.7v5.8M468.8 352.7v5.8M470.2 352.7v5.8M471.7 352.7v5.8M473.1 352.7v5.8M474.6 352.7v5.8M476 352.7v5.8M477.4 352.7v5.8M478.9 352.7v5.8M480.3 352.7v5.8M481.8 352.7v5.8M483 352.7v5.8M484.4 352.7v5.8M485.8 352.7v5.8M487.3 352.7v5.8M488.7 352.7v5.8M490.2 352.7v5.8M491.6 352.7v5.8M493 352.7v5.8M494.5 352.7v5.8M495.9 352.7v5.8M497.1 352.7v5.8M498.6 352.7v5.8M500 352.7v5.8M501.4 352.7v5.8M502.9 352.7v5.8"/><path class="cls-28" d="M503.4 352.7v-5H452v5h51.4"/><path class="cls-22" d="M452.2 349.6l3.2 3.1M454.2 347.7l5 5M458.2 347.7l5.1 5M462.3 347.7l5.1 5M466.2 347.7l5 5M470.2 347.7l5.1 5M474.3 347.7l5.1 5M478.4 347.7l5 5M482.2 347.7l5.1 5M486.3 347.7l5.1 5M490.4 347.7l5 5M494.2 347.7l5.1 5M498.3 347.7l5.1 5M502.4 347.7l1.2 1.2"/><path class="cls-24" d="M503.4 358.9H452M503.4 362.3H452"/><path class="cls-22" d="M503.4 352.7H452M503.4 358.5H452"/><path class="cls-24" d="M503.4 347.7H452M503.4 352.7H452"/><path class="cls-23" d="M503.4 362.3H452M503.4 347.7H452"/><path class="cls-29" d="M567.9 347.7v14.6h-23.7v-14.6h23.7"/><path class="cls-28" d="M567.9 362.3v-3.4h-23.7v3.4h23.7"/><path class="cls-22" d="M544.4 361.6l.7.7M545.6 358.9l3.4 3.4M549.7 358.9l3.3 3.4M553.8 358.9l3.3 3.4M557.8 358.9l3.4 3.4M561.7 358.9l3.3 3.4M565.8 358.9l2.4 2.4"/><path class="cls-28" d="M567.9 358.9v-.4h-23.7v.4h23.7M567.9 358.5v-5.8h-23.7v5.8h23.7"/><path class="cls-22" d="M545.4 352.7v5.8M546.8 352.7v5.8M548.2 352.7v5.8M549.7 352.7v5.8M551.1 352.7v5.8M552.6 352.7v5.8M554 352.7v5.8M555.4 352.7v5.8M556.9 352.7v5.8M558.1 352.7v5.8M559.5 352.7v5.8M561 352.7v5.8M562.4 352.7v5.8M563.8 352.7v5.8M565.3 352.7v5.8M566.7 352.7v5.8"/><path class="cls-28" d="M567.9 352.7v-5h-23.7v5h23.7"/><path class="cls-22" d="M544.4 349.6l3.1 3.1M546.6 347.7l5 5M550.4 347.7l5 5M554.5 347.7l5 5M558.6 347.7l5 5M562.4 347.7l5 5M566.5 347.7l1.7 1.4"/><path class="cls-24" d="M567.9 358.9h-23.7M567.9 362.3h-23.7"/><path class="cls-22" d="M567.9 352.7h-23.7M567.9 358.5h-23.7"/><path class="cls-24" d="M567.9 347.7h-23.7M567.9 352.7h-23.7"/><path class="cls-23" d="M567.9 362.3h-23.7M567.9 347.7h-23.7M542.5 355.1v7.2h3.3v1.9h-43.9v-1.9h3.4v-7.2"/><path class="cls-1" d="M544.2 347.7h-40.8"/><path class="cls-23" d="M503.8 347.7h-.4"/><path class="cls-24" d="M542.5 362.3h3.3M505.3 362.3h-3.4"/><path class="cls-23" d="M503.4 352.7h40.8v2.4h-40.8zM540.6 355.1v-2.4M507.2 355.1v-2.4M544.2 352.7v2.4M525.9 352.7v2.4M540.6 352.7v2.4M521.8 352.7v2.4M525.9 352.7v2.4M507.2 352.7v2.4M521.8 352.7v2.4M503.4 352.7v2.4"/><path class="cls-28" d="M544.2 358.4h-1.8V355h1.8"/><path class="cls-22" d="M543.9 355.1v3.4M544.2 358.4h-1.8V355h1.8"/><path class="cls-24" d="M544.2 352.7v-5"/><path class="cls-28" d="M544.2 362.3h-1.7v-3.4h1.7"/><path class="cls-22" d="M542.7 359.9l1.7 1.7"/><path class="cls-24" d="M544.2 362.3h-1.7v-3.4h1.7M542.5 358.9v-3.8"/><path class="cls-28" d="M503.4 358.4h1.8V355h-1.8"/><path class="cls-22" d="M504.3 355.1v3.4M503.4 358.4h1.8V355h-1.8"/><path class="cls-24" d="M503.4 352.7v-5"/><path class="cls-28" d="M503.4 362.3h1.9v-3.4h-1.9"/><path class="cls-22" d="M503.6 360.9l1.4 1.4"/><path class="cls-24" d="M503.4 362.3h1.9v-3.4h-1.9M505.3 358.9v-3.8"/><path class="cls-23" d="M450.3 355.1v7.2h3.4v1.9h-66v-1.9h3.3v-7.2"/><path class="cls-1" d="M452 347.7h-62.9"/><path class="cls-24" d="M450.3 362.3h3.4M391 362.3h-3.3"/><path class="cls-23" d="M389.1 352.7H452v2.4h-62.9zM448.4 355.1v-2.4M393 355.1v-2.4M452 352.7v2.4M433.3 352.7v2.4M448.4 352.7v2.4M429 352.7v2.4M433.3 352.7v2.4M412.2 352.7v2.4M429 352.7v2.4M408.1 352.7v2.4M412.2 352.7v2.4M393 352.7v2.4M408.1 352.7v2.4M389.1 352.7v2.4"/><path class="cls-28" d="M452.1 358.4h-1.9V355h1.9"/><path class="cls-22" d="M450.6 355.1v3.4M452 355.1v3.4M452.1 358.4h-1.9V355h1.9"/><path class="cls-24" d="M452 352.7v-5"/><path class="cls-28" d="M452 362.3h-1.7v-3.4h1.7"/><path class="cls-22" d="M450.6 359.9l1.6 1.7"/><path class="cls-24" d="M452 362.3h-1.7v-3.4h1.7M450.3 358.9v-3.8"/><path class="cls-28" d="M389.2 358.4h1.8V355h-1.8"/><path class="cls-22" d="M389.6 355.1v3.4M391 355.1v3.4M389.2 358.4h1.8V355h-1.8"/><path class="cls-24" d="M389.1 352.7v-5"/><path class="cls-28" d="M389.1 362.3h1.9v-3.4h-1.9"/><path class="cls-22" d="M389.4 358.9l1.9 2"/><path class="cls-24" d="M389.1 362.3h1.9v-3.4h-1.9M391 358.9v-3.8"/><path class="cls-29" d="M540.6 36.9V22.2h27.3v14.7h-27.3"/><path class="cls-28" d="M540.6 22.2v3.4h27.3v-3.4h-27.3"/><path class="cls-22" d="M540.8 25.1l.2.5M541.8 22.2l3.3 3.4M545.6 22.2l3.4 3.4M549.7 22.2l3.3 3.4M553.8 22.2l3.3 3.4M557.8 22.2l3.4 3.4M561.7 22.2l3.3 3.4M565.8 22.2l2.4 2.2"/><path class="cls-28" d="M540.6 25.6v.7h27.3v-.7h-27.3M540.6 26.3v5.5h27.3v-5.5h-27.3"/><path class="cls-22" d="M566.7 31.8v-5.5M565.3 31.8v-5.5M563.8 31.8v-5.5M562.4 31.8v-5.5M561 31.8v-5.5M559.5 31.8v-5.5M558.1 31.8v-5.5M556.9 31.8v-5.5M555.4 31.8v-5.5M554 31.8v-5.5M552.6 31.8v-5.5M551.1 31.8v-5.5M549.7 31.8v-5.5M548.2 31.8v-5.5M546.8 31.8v-5.5M545.4 31.8v-5.5M543.9 31.8v-5.5M542.5 31.8v-5.5M541.3 31.8v-5.5"/><path class="cls-28" d="M540.6 31.8v5.1h27.3v-5.1h-27.3"/><path class="cls-22" d="M540.8 33.3l3.6 3.6M543.2 31.8l5 5.1M547.3 31.8l5 5.1M551.4 31.8l5 5.1M555.2 31.8l5 5.1M559.3 31.8l5 5.1M563.4 31.8l4.8 4.8M567.4 31.8l.8.7"/><path class="cls-24" d="M540.6 25.6h27.3M540.6 22.2h27.3"/><path class="cls-22" d="M540.6 31.8h27.3M540.6 26.3h27.3"/><path class="cls-24" d="M540.6 36.9h27.3M540.6 31.8h27.3"/><path class="cls-23" d="M540.6 22.2h27.3M540.6 36.9h27.3"/><path class="cls-29" d="M459.4 36.9V22.2h40.4v14.7h-40.4"/><path class="cls-28" d="M459.4 22.2v3.4h40.4v-3.4h-40.4"/><path class="cls-22" d="M459.7 24.1l1.2 1.5M461.6 22.2l3.4 3.4M465.4 22.2l3.4 3.4M469.5 22.2l3.4 3.4M473.6 22.2l3.4 3.4M477.7 22.2l3.3 3.4M481.5 22.2l3.4 3.4M485.6 22.2l3.4 3.4M489.7 22.2l3.3 3.4M493.5 22.2l3.4 3.4M497.6 22.2l2.4 2.2"/><path class="cls-28" d="M459.4 25.6v.7h40.4v-.7h-40.4M459.4 26.3v5.5h40.4v-5.5h-40.4"/><path class="cls-22" d="M498.6 31.8v-5.5M497.1 31.8v-5.5M495.9 31.8v-5.5M494.5 31.8v-5.5M493 31.8v-5.5M491.6 31.8v-5.5M490.2 31.8v-5.5M488.7 31.8v-5.5M487.3 31.8v-5.5M485.8 31.8v-5.5M484.4 31.8v-5.5M483 31.8v-5.5M481.8 31.8v-5.5M480.3 31.8v-5.5M478.9 31.8v-5.5M477.4 31.8v-5.5M476 31.8v-5.5M474.6 31.8v-5.5M473.1 31.8v-5.5M471.7 31.8v-5.5M470.2 31.8v-5.5M468.8 31.8v-5.5M467.4 31.8v-5.5M466.2 31.8v-5.5M464.7 31.8v-5.5M463.3 31.8v-5.5M461.8 31.8v-5.5M460.4 31.8v-5.5"/><path class="cls-28" d="M459.4 31.8v5.1h40.4v-5.1h-40.4"/><path class="cls-22" d="M459.7 36.4l.5.5M459.7 32.3l4.5 4.6M463 31.8l5.1 5.1M467.1 31.8l5.1 5.1M471.2 31.8l5 5.1M475 31.8l5.1 5.1M479.1 31.8l5.1 5.1M483.2 31.8l5 5.1M487.3 31.8l5 5.1M491.1 31.8l5.1 5.1M495.2 31.8l4.8 4.8M499.3 31.8l.7.7"/><path class="cls-24" d="M459.4 25.6h40.4M459.4 22.2h40.4"/><path class="cls-22" d="M459.4 31.8h40.4M459.4 26.3h40.4"/><path class="cls-24" d="M459.4 36.9h40.4M459.4 31.8h40.4"/><path class="cls-23" d="M459.4 22.2h40.4M459.4 36.9h40.4"/><path class="cls-29" d="M412.6 36.9V22.2h28.1v14.7h-28.1"/><path class="cls-28" d="M412.6 22.2v3.4h28.1v-3.4h-28.1"/><path class="cls-22" d="M413.4 22.2l3.3 3.4M417.4 22.2l3.4 3.4M421.5 22.2l3.4 3.4M425.4 22.2l3.3 3.4M429.4 22.2l3.4 3.4M433.5 22.2l3.4 3.4M437.6 22.2l3.4 3.4"/><path class="cls-28" d="M412.6 25.6v.7h28.1v-.7h-28.1M412.6 26.3v5.5h28.1v-5.5h-28.1"/><path class="cls-22" d="M440.5 31.8v-5.5M439 31.8v-5.5M437.6 31.8v-5.5M436.4 31.8v-5.5M435 31.8v-5.5M433.5 31.8v-5.5M432.1 31.8v-5.5M430.6 31.8v-5.5M429.2 31.8v-5.5M427.8 31.8v-5.5M426.3 31.8v-5.5M424.9 31.8v-5.5M423.4 31.8v-5.5M422 31.8v-5.5M420.8 31.8v-5.5M419.4 31.8v-5.5M417.9 31.8v-5.5M416.5 31.8v-5.5M415 31.8v-5.5M413.6 31.8v-5.5"/><path class="cls-28" d="M412.6 31.8v5.1h28.1v-5.1h-28.1"/><path class="cls-22" d="M412.9 33.5l3.1 3.4M415 31.8l5.1 5.1M419.1 31.8l5.1 5.1M423 31.8l5 5.1M427 31.8l5.1 5.1M431.1 31.8l5.1 5.1M435 31.8l5 5.1M439 31.8l2 1.7"/><path class="cls-24" d="M412.6 25.6h28.1M412.6 22.2h28.1"/><path class="cls-22" d="M412.6 31.8h28.1M412.6 26.3h28.1"/><path class="cls-24" d="M412.6 36.9h28.1M412.6 31.8h28.1"/><path class="cls-23" d="M412.6 22.2h28.1M412.6 36.9h28.1M501.4 29.7v-7.5h-3.3v-1.9H542v1.9h-3.4v7.5"/><path class="cls-1" d="M499.8 36.9h40.8"/><path class="cls-23" d="M540.1 36.9h.5"/><path class="cls-24" d="M501.4 22.2h-3.3M538.6 22.2h3.4"/><path class="cls-23" d="M499.8 29.7h40.8v2.2h-40.8zM503.4 29.7v2.1M537 29.7v2.1M499.8 31.8v-2.1M518 31.8v-2.1M503.4 31.8v-2.1M522.1 31.8v-2.1M518 31.8v-2.1M537 31.8v-2.1M522.1 31.8v-2.1M540.6 31.8v-2.1"/><path class="cls-28" d="M499.7 26.2h1.9v3.4h-1.9"/><path class="cls-22" d="M501.4 29.7v-3.4M500 29.7v-3.4M499.7 26.2h1.9v3.4h-1.9"/><path class="cls-24" d="M499.8 31.8v5.1"/><path class="cls-28" d="M499.8 22.2h1.6v3.4h-1.6"/><path class="cls-22" d="M500 24.4l1 1.2"/><path class="cls-24" d="M499.8 22.2h1.6v3.4h-1.6M501.4 25.6v4.1"/><path class="cls-28" d="M540.5 26.2h-1.8v3.4h1.8"/><path class="cls-22" d="M539.8 29.7v-3.4M540.5 26.2h-1.8v3.4h1.8"/><path class="cls-24" d="M540.6 31.8v5.1"/><path class="cls-28" d="M540.6 22.2h-2v3.4h2"/><path class="cls-22" d="M538.9 23.2l1.9 1.9"/><path class="cls-24" d="M540.6 22.2h-2v3.4h2M538.6 25.6v4.1"/><path class="cls-23" d="M440.7 31.8v5.1h18.7v-5.1M442.6 29.7v-7.5h-3.3v-1.9h21.8v1.9h-3.6v7.5M442.6 22.2h14.9"/><path class="cls-24" d="M442.6 22.2h-3.3M457.5 22.2h3.6"/><path class="cls-23" d="M440.7 29.7h18.7v2.2h-18.7zM444.6 29.7v2.1M455.8 29.7v2.1M440.7 31.8v-2.1M455.8 31.8v-2.1M444.6 31.8v-2.1M459.4 31.8v-2.1"/><path class="cls-24" d="M440.7 31.8v5.1"/><path class="cls-23" d="M442.6 25.6h7.5"/><path class="cls-28" d="M440.7 26.2h1.9v3.4h-1.9"/><path class="cls-22" d="M441.9 29.7v-3.4M440.7 26.2h1.9v3.4h-1.9"/><path class="cls-28" d="M440.7 22.2h1.9v3.4h-1.9"/><path class="cls-22" d="M441.4 22.2l1.5 1.2"/><path class="cls-24" d="M440.7 22.2h1.9v3.4h-1.9M442.6 25.6v4.1M459.4 31.8v5.1"/><path class="cls-23" d="M457.5 25.6h-7.4"/><path class="cls-28" d="M459.5 26.2h-1.9v3.4h1.9"/><path class="cls-22" d="M459 29.7v-3.4M459.5 26.2h-1.9v3.4h1.9"/><path class="cls-28" d="M459.4 22.2h-1.9v3.4h1.9"/><path class="cls-22" d="M457.8 22.2l1.9 1.9"/><path class="cls-24" d="M459.4 22.2h-1.9v3.4h1.9M457.5 25.6v4.1"/><path class="cls-28" d="M567.9 352.7h-7.2V31.8h7.2v320.9"/><path class="cls-22" d="M568.2 32.5l-.8-.7M568.2 36.6l-4.8-4.8M568.2 40.5l-7.2-7.2M568.2 44.5l-7.2-7.2M568.2 48.6l-7.2-7.2M568.2 52.5l-7.2-7.2M568.2 56.5l-7.2-7.2M568.2 60.6l-7.2-7.2M568.2 64.7l-7.2-7.2M568.2 68.5l-7.2-7.2M568.2 72.6l-7.2-7.2M568.2 76.7l-7.2-7.2M568.2 80.5l-7.2-7.2M568.2 84.6l-7.2-7.2M568.2 88.7l-7.2-7.2M568.2 92.5l-7.2-7.2M568.2 96.6l-7.2-7.2M568.2 100.7l-7.2-7.2M568.2 104.8l-7.2-7.2M568.2 108.6l-7.2-7.2M568.2 112.7l-7.2-7.2M568.2 116.8l-7.2-7.2M568.2 120.6l-7.2-7.2M568.2 124.7l-7.2-7.2M568.2 128.8l-7.2-7.2M568.2 132.6l-7.2-7.2M568.2 136.7l-7.2-7.2M568.2 140.8l-7.2-7.2M568.2 144.9l-7.2-7.2M568.2 148.7l-7.2-7.2M568.2 152.8l-7.2-7.2M568.2 156.9l-7.2-7.2M568.2 160.7l-7.2-7.2M568.2 164.8l-7.2-7.2M568.2 168.9l-7.2-7.2M568.2 172.9l-7.2-7.2M568.2 176.8l-7.2-7.2M568.2 180.9l-7.2-7.2M568.2 184.9l-7.2-7.2M568.2 188.8l-7.2-7.2M568.2 192.9l-7.2-7.2M568.2 196.9l-7.2-7.2M568.2 200.8l-7.2-7.2M568.2 204.9l-7.2-7.2M568.2 208.9l-7.2-7.2M568.2 213l-7.2-7.2M568.2 216.9l-7.2-7.2M568.2 220.9l-7.2-7.2M568.2 225l-7.2-7.2M568.2 228.9l-7.2-7.2M568.2 232.9l-7.2-7.2M568.2 237l-7.2-7.2M568.2 240.9l-7.2-7.2M568.2 244.9l-7.2-7.2M568.2 249l-7.2-7.2M568.2 253.1l-7.2-7.2M568.2 256.9l-7.2-7.2M568.2 261l-7.2-7.2M568.2 265.1l-7.2-7.2M568.2 268.9l-7.2-7.2M568.2 273l-7.2-7.2M568.2 277.1l-7.2-7.2M568.2 280.9l-7.2-7.2M568.2 285l-7.2-7.2M568.2 289.1l-7.2-7.2M568.2 293.2L561 286M568.2 297l-7.2-7.2M568.2 301.1l-7.2-7.2M568.2 305.2L561 298M568.2 309l-7.2-7.2M568.2 313.1l-7.2-7.2M568.2 317.2L561 310M568.2 321.3l-7.2-7.2M568.2 325.1l-7.2-7.2M568.2 329.2L561 322M568.2 333.3l-7.2-7.2M568.2 337.1l-7.2-7.2M568.2 341.2L561 334M568.2 345.3l-7.2-7.2M568.2 349.1l-7.2-7.2M567.4 352.7L561 346M563.6 352.7l-2.6-2.6M564.1 352.7l4.1-4.1M561 352l7.2-7.2M561 347.9l7.2-7.2M561 343.8l7.2-7.2M561 340l7.2-7.2M561 335.9l7.2-7.2M561 331.8l7.2-7.2M561 327.7l7.2-7.2M561 323.9l7.2-7.2M561 319.8l7.2-7.2M561 315.7l7.2-7.2M561 311.9l7.2-7.2M561 307.8l7.2-7.2M561 303.7l7.2-7.2M561 299.7l7.2-7.2M561 295.8l7.2-7.2M561 291.7l7.2-7.2M561 287.7l7.2-7.2M561 283.8l7.2-7.2M561 279.7l7.2-7.2M561 275.7l7.2-7.2M561 271.8l7.2-7.2M561 267.7l7.2-7.2M561 263.7l7.2-7.2M561 259.6l7.2-7.2M561 255.7l7.2-7.2M561 251.7l7.2-7.2M561 247.6l7.2-7.2M561 243.7l7.2-7.2M561 239.7l7.2-7.2M561 235.6l7.2-7.2M561 231.7l7.2-7.2M561 227.7l7.2-7.2M561 223.6l7.2-7.2M561 219.5l7.2-7.2M561 215.7l7.2-7.2M561 211.6l7.2-7.2M561 207.5l7.2-7.2M561 203.7l7.2-7.2M561 199.6l7.2-7.2M561 195.5l7.2-7.2M561 191.4l7.2-7.2M561 187.6l7.2-7.2M561 183.5l7.2-7.2M561 179.4l7.2-7.2M561 175.6l7.2-7.2M561 171.5l7.2-7.2M561 167.4l7.2-7.2M561 163.6l7.2-7.2M561 159.5l7.2-7.2M561 155.4l7.2-7.2M561 151.3l7.2-7.2M561 147.5l7.2-7.2M561 143.4l7.2-7.2M561 139.3l7.2-7.2M561 135.5l7.2-7.2M561 131.4l7.2-7.2M561 127.3l7.2-7.2M561 123.5l7.2-7.2M561 119.4l7.2-7.2M561 115.3l7.2-7.2M561 111.3l7.2-7.2M561 107.4l7.2-7.2M561 103.3l7.2-7.2M561 99.3l7.2-7.2M561 95.4l7.2-7.2M561 91.3l7.2-7.2M561 87.3l7.2-7.2M561 83.2l7.2-7.2M561 79.3l7.2-7.2M561 75.3l7.2-7.2M561 71.2l7.2-7.2M561 67.3l7.2-7.2M561 63.3l7.2-7.2M561 59.2l7.2-7.2M561 55.3l7.2-7.2M561 51.3l7.2-7.2M561 47.2l7.2-7.2M561 43.1l7.2-7.2M561 39.3l7.2-7.2M561 35.2l3.3-3.4"/><path class="cls-28" d="M560.7 352.7h7.2V31.8h-7.2v320.9"/><path class="cls-22" d="M568.2 32.5l-.8-.7M568.2 36.6l-4.8-4.8M568.2 40.5l-7.2-7.2M568.2 44.5l-7.2-7.2M568.2 48.6l-7.2-7.2M568.2 52.5l-7.2-7.2M568.2 56.5l-7.2-7.2M568.2 60.6l-7.2-7.2M568.2 64.7l-7.2-7.2M568.2 68.5l-7.2-7.2M568.2 72.6l-7.2-7.2M568.2 76.7l-7.2-7.2M568.2 80.5l-7.2-7.2M568.2 84.6l-7.2-7.2M568.2 88.7l-7.2-7.2M568.2 92.5l-7.2-7.2M568.2 96.6l-7.2-7.2M568.2 100.7l-7.2-7.2M568.2 104.8l-7.2-7.2M568.2 108.6l-7.2-7.2M568.2 112.7l-7.2-7.2M568.2 116.8l-7.2-7.2M568.2 120.6l-7.2-7.2M568.2 124.7l-7.2-7.2M568.2 128.8l-7.2-7.2M568.2 132.6l-7.2-7.2M568.2 136.7l-7.2-7.2M568.2 140.8l-7.2-7.2M568.2 144.9l-7.2-7.2M568.2 148.7l-7.2-7.2M568.2 152.8l-7.2-7.2M568.2 156.9l-7.2-7.2M568.2 160.7l-7.2-7.2M568.2 164.8l-7.2-7.2M568.2 168.9l-7.2-7.2M568.2 172.9l-7.2-7.2M568.2 176.8l-7.2-7.2M568.2 180.9l-7.2-7.2M568.2 184.9l-7.2-7.2M568.2 188.8l-7.2-7.2M568.2 192.9l-7.2-7.2M568.2 196.9l-7.2-7.2M568.2 200.8l-7.2-7.2M568.2 204.9l-7.2-7.2M568.2 208.9l-7.2-7.2M568.2 213l-7.2-7.2M568.2 216.9l-7.2-7.2M568.2 220.9l-7.2-7.2M568.2 225l-7.2-7.2M568.2 228.9l-7.2-7.2M568.2 232.9l-7.2-7.2M568.2 237l-7.2-7.2M568.2 240.9l-7.2-7.2M568.2 244.9l-7.2-7.2M568.2 249l-7.2-7.2M568.2 253.1l-7.2-7.2M568.2 256.9l-7.2-7.2M568.2 261l-7.2-7.2M568.2 265.1l-7.2-7.2M568.2 268.9l-7.2-7.2M568.2 273l-7.2-7.2M568.2 277.1l-7.2-7.2M568.2 280.9l-7.2-7.2M568.2 285l-7.2-7.2M568.2 289.1l-7.2-7.2M568.2 293.2L561 286M568.2 297l-7.2-7.2M568.2 301.1l-7.2-7.2M568.2 305.2L561 298M568.2 309l-7.2-7.2M568.2 313.1l-7.2-7.2M568.2 317.2L561 310M568.2 321.3l-7.2-7.2M568.2 325.1l-7.2-7.2M568.2 329.2L561 322M568.2 333.3l-7.2-7.2M568.2 337.1l-7.2-7.2M568.2 341.2L561 334M568.2 345.3l-7.2-7.2M568.2 349.1l-7.2-7.2M567.4 352.7L561 346M563.6 352.7l-2.6-2.6M564.1 352.7l4.1-4.1M561 352l7.2-7.2M561 347.9l7.2-7.2M561 343.8l7.2-7.2M561 340l7.2-7.2M561 335.9l7.2-7.2M561 331.8l7.2-7.2M561 327.7l7.2-7.2M561 323.9l7.2-7.2M561 319.8l7.2-7.2M561 315.7l7.2-7.2M561 311.9l7.2-7.2M561 307.8l7.2-7.2M561 303.7l7.2-7.2M561 299.7l7.2-7.2M561 295.8l7.2-7.2M561 291.7l7.2-7.2M561 287.7l7.2-7.2M561 283.8l7.2-7.2M561 279.7l7.2-7.2M561 275.7l7.2-7.2M561 271.8l7.2-7.2M561 267.7l7.2-7.2M561 263.7l7.2-7.2M561 259.6l7.2-7.2M561 255.7l7.2-7.2M561 251.7l7.2-7.2M561 247.6l7.2-7.2M561 243.7l7.2-7.2M561 239.7l7.2-7.2M561 235.6l7.2-7.2M561 231.7l7.2-7.2M561 227.7l7.2-7.2M561 223.6l7.2-7.2M561 219.5l7.2-7.2M561 215.7l7.2-7.2M561 211.6l7.2-7.2M561 207.5l7.2-7.2M561 203.7l7.2-7.2M561 199.6l7.2-7.2M561 195.5l7.2-7.2M561 191.4l7.2-7.2M561 187.6l7.2-7.2M561 183.5l7.2-7.2M561 179.4l7.2-7.2M561 175.6l7.2-7.2M561 171.5l7.2-7.2M561 167.4l7.2-7.2M561 163.6l7.2-7.2M561 159.5l7.2-7.2M561 155.4l7.2-7.2M561 151.3l7.2-7.2M561 147.5l7.2-7.2M561 143.4l7.2-7.2M561 139.3l7.2-7.2M561 135.5l7.2-7.2M561 131.4l7.2-7.2M561 127.3l7.2-7.2M561 123.5l7.2-7.2M561 119.4l7.2-7.2M561 115.3l7.2-7.2M561 111.3l7.2-7.2M561 107.4l7.2-7.2M561 103.3l7.2-7.2M561 99.3l7.2-7.2M561 95.4l7.2-7.2M561 91.3l7.2-7.2M561 87.3l7.2-7.2M561 83.2l7.2-7.2M561 79.3l7.2-7.2M561 75.3l7.2-7.2M561 71.2l7.2-7.2M561 67.3l7.2-7.2M561 63.3l7.2-7.2M561 59.2l7.2-7.2M561 55.3l7.2-7.2M561 51.3l7.2-7.2M561 47.2l7.2-7.2M561 43.1l7.2-7.2M561 39.3l7.2-7.2M561 35.2l3.3-3.4"/><path class="cls-24" d="M567.9 352.7V31.8M560.7 190.2V31.8M560.7 352.7V194.5M567.9 31.8h-7.2M560.7 190.2V31.8M567.9 352.7V31.8M560.7 352.7V194.5M567.9 352.7h-7.2"/><path class="cls-28" d="M146 27h-7.4v9.6h7.4V27"/><path class="cls-22" d="M146.2 27.5l-.7-.5M146.2 31.6l-4.5-4.6M146.2 35.4l-7.4-7.4M143.1 36.6l-4.3-4.5M139.3 36.6l-.5-.5M142.4 36.6l3.8-3.6M138.8 36.4l7.4-7.5M138.8 32.5l5.3-5.5M138.8 28.5L140 27"/><path class="cls-28" d="M146 27h-7.4v9.6h7.4V27"/><path class="cls-22" d="M146.2 27.5l-.7-.5M146.2 31.6l-4.5-4.6M146.2 35.4l-7.4-7.4M143.1 36.6l-4.3-4.5M139.3 36.6l-.5-.5M142.4 36.6l3.8-3.6M138.8 36.4l7.4-7.5M138.8 32.5l5.3-5.5M138.8 28.5L140 27"/><path class="cls-24" d="M146 36.6V27M138.6 36.6V27M138.6 36.6V27M146 36.6V27"/><path class="cls-28" d="M138.6 72.4v7.2l7.4-7.2h-7.4"/><path class="cls-22" d="M144.6 74.1l-1.7-1.7M142.4 76l-3.6-3.6M140.5 77.9l-1.7-1.7M138.8 76.5l4.1-4.1M138.8 72.6v-.2"/><path class="cls-28" d="M138.6 72.4v7.2l7.4-7.2h-7.4"/><path class="cls-22" d="M144.6 74.1l-1.7-1.7M142.4 76l-3.6-3.6M140.5 77.9l-1.7-1.7M138.8 76.5l4.1-4.1M138.8 72.6v-.2"/><path class="cls-24" d="M138.6 79.6v-7.2M138.6 79.6v-7.2"/><path class="cls-23" d="M144.6 69.3V39.7"/><path class="cls-1" d="M138.6 69.3V39.7"/><path class="cls-23" d="M138.6 40.2v-.5"/><path class="cls-28" d="M138.6 72.4v-3.1h6v3.1"/><path class="cls-22" d="M144.8 70.2l-1-.9M142.9 72.4l-3.1-3.1M138.8 72.4v-.3M142.9 72.4l1.9-1.9M138.8 72.4l3.1-3.1"/><path class="cls-28" d="M138.6 36.6v3.1h6v-3.1"/><path class="cls-22" d="M144.8 38.1l-1.7-1.5M142.4 39.7l-3.1-3.1M143.4 39.7l1.4-1.2M139.3 39.7l3.1-3.1"/><path class="cls-24" d="M138.6 69.3h6M138.6 39.7h6M138.6 69.3h6M138.6 72.4v-3.1M138.6 39.7h6M138.6 36.6v3.1M146 72.4h-1.4M146 36.6h-1.4M138.6 72.4v-3.1M138.6 36.6v3.1M144.6 69.3v3.1M144.6 39.7v-3.1"/><path class="cls-28" d="M405.7 113.4l6.9 7.2V31.8l-6.9 5.1v76.5"/><path class="cls-22" d="M412.9 33.5l-1.2-1M412.9 37.6l-3.4-3.4M412.9 41.7l-5.8-5.8M412.9 45.5l-7-7M412.9 49.6l-7-7M412.9 53.7l-7-7M412.9 57.7l-7-6.9M412.9 61.6l-7-7M412.9 65.7l-7-7M412.9 69.7l-7-6.9M412.9 73.6l-7-7M412.9 77.7l-7-7M412.9 81.7l-7-6.9M412.9 85.6l-7-7M412.9 89.7l-7-7M412.9 93.7l-7-6.9M412.9 97.8l-7-6.9M412.9 101.7l-7-7M412.9 105.7l-7-6.9M412.9 109.8l-7-6.9M412.9 113.7l-7-7M412.9 117.7l-7-6.9M411.9 119.9l1-.7M410 117.7l2.9-2.6M408.1 115.8l4.8-4.8M406.2 113.7l6.7-6.5M405.9 110.1l7-7M405.9 106l7-7M405.9 102.1l7-6.9M405.9 98.1l7-7M405.9 94l7-7M405.9 89.9l7-7M405.9 86.1l7-7M405.9 82l7-7M405.9 77.9l7-7M405.9 74.1l7-7M405.9 70l7-7M405.9 65.9l7-7M405.9 62.1l7-7M405.9 58l7-7M405.9 53.9l7-7M405.9 49.8l7-6.9M405.9 46l7-7M405.9 41.9l7-7M405.9 37.8l3.6-3.6"/><path class="cls-28" d="M405.7 113.4l6.9 7.2V31.8l-6.9 5.1v76.5"/><path class="cls-22" d="M412.9 33.5l-1.2-1M412.9 37.6l-3.4-3.4M412.9 41.7l-5.8-5.8M412.9 45.5l-7-7M412.9 49.6l-7-7M412.9 53.7l-7-7M412.9 57.7l-7-6.9M412.9 61.6l-7-7M412.9 65.7l-7-7M412.9 69.7l-7-6.9M412.9 73.6l-7-7M412.9 77.7l-7-7M412.9 81.7l-7-6.9M412.9 85.6l-7-7M412.9 89.7l-7-7M412.9 93.7l-7-6.9M412.9 97.8l-7-6.9M412.9 101.7l-7-7M412.9 105.7l-7-6.9M412.9 109.8l-7-6.9M412.9 113.7l-7-7M412.9 117.7l-7-6.9M411.9 119.9l1-.7M410 117.7l2.9-2.6M408.1 115.8l4.8-4.8M406.2 113.7l6.7-6.5M405.9 110.1l7-7M405.9 106l7-7M405.9 102.1l7-6.9M405.9 98.1l7-7M405.9 94l7-7M405.9 89.9l7-7M405.9 86.1l7-7M405.9 82l7-7M405.9 77.9l7-7M405.9 74.1l7-7M405.9 70l7-7M405.9 65.9l7-7M405.9 62.1l7-7M405.9 58l7-7M405.9 53.9l7-7M405.9 49.8l7-6.9M405.9 46l7-7M405.9 41.9l7-7M405.9 37.8l3.6-3.6"/><path class="cls-24" d="M405.7 36.9v76.5M412.6 31.8v88.8M412.6 31.8v88.8M405.7 36.9v76.5"/><path class="cls-28" d="M146 72.4l-7.4 7.2h68.1l-6-7.2H146"/><path class="cls-22" d="M206.2 79.6l-7.2-7.2M202.2 79.6l-7.2-7.2M198.1 79.6l-7.2-7.2M194.2 79.6l-7.2-7.2M190.2 79.6l-7.2-7.2M186.1 79.6l-7.2-7.2M182.2 79.6l-7.2-7.2M178.2 79.6l-7.2-7.2M174.1 79.6l-7.2-7.2M170.2 79.6l-7.2-7.2M166.2 79.6l-7.2-7.2M162.1 79.6l-7.2-7.2M158 79.6l-7.2-7.2M154.2 79.6l-7.2-7.2M150.1 79.6l-5.5-5.5M146 79.6l-3.6-3.6M142.2 79.6l-1.7-1.7M203.8 79.6l1.7-1.7M199.8 79.6l3.8-3.9M195.7 79.6l6-6M191.8 79.6l7.2-7.2M187.8 79.6l7.2-7.2M183.7 79.6l7.2-7.2M179.6 79.6l7.2-7.2M175.8 79.6l7.2-7.2M171.7 79.6l7.2-7.2M167.6 79.6l7.2-7.2M163.8 79.6l7.2-7.2M159.7 79.6l7.2-7.2M155.6 79.6l7.2-7.2M151.8 79.6l7.2-7.2M147.7 79.6l7.2-7.2M143.6 79.6l7.2-7.2M139.5 79.6l7.2-7.2"/><path class="cls-28" d="M146 72.4l-7.4 7.2h68.1l-6-7.2H146"/><path class="cls-22" d="M206.2 79.6l-7.2-7.2M202.2 79.6l-7.2-7.2M198.1 79.6l-7.2-7.2M194.2 79.6l-7.2-7.2M190.2 79.6l-7.2-7.2M186.1 79.6l-7.2-7.2M182.2 79.6l-7.2-7.2M178.2 79.6l-7.2-7.2M174.1 79.6l-7.2-7.2M170.2 79.6l-7.2-7.2M166.2 79.6l-7.2-7.2M162.1 79.6l-7.2-7.2M158 79.6l-7.2-7.2M154.2 79.6l-7.2-7.2M150.1 79.6l-5.5-5.5M146 79.6l-3.6-3.6M142.2 79.6l-1.7-1.7M203.8 79.6l1.7-1.7M199.8 79.6l3.8-3.9M195.7 79.6l6-6M191.8 79.6l7.2-7.2M187.8 79.6l7.2-7.2M183.7 79.6l7.2-7.2M179.6 79.6l7.2-7.2M175.8 79.6l7.2-7.2M171.7 79.6l7.2-7.2M167.6 79.6l7.2-7.2M163.8 79.6l7.2-7.2M159.7 79.6l7.2-7.2M155.6 79.6l7.2-7.2M151.8 79.6l7.2-7.2M147.7 79.6l7.2-7.2M143.6 79.6l7.2-7.2M139.5 79.6l7.2-7.2"/><path class="cls-24" d="M200.7 72.4H146M206.7 79.6h-68.1M206.7 79.6h-68.1M200.7 72.4H146"/><path class="cls-28" d="M207.7 20.1l-7 6.9v9.9l7-7v-9.8"/><path class="cls-22" d="M207.9 21l-.7-.5M207.9 25.1l-2.6-2.6M207.9 28.9l-4.5-4.3M206.2 31.6l-5-5.1M204.3 33.5l-3.3-3.4M202.2 35.4l-1.2-1.2M201 34.5l6.9-7M201 30.4l6.9-7"/><path class="cls-28" d="M207.7 20.1l-7 6.9v9.9l7-7v-9.8"/><path class="cls-22" d="M207.9 21l-.7-.5M207.9 25.1l-2.6-2.6M207.9 28.9l-4.5-4.3M206.2 31.6l-5-5.1M204.3 33.5l-3.3-3.4M202.2 35.4l-1.2-1.2M201 34.5l6.9-7M201 30.4l6.9-7"/><path class="cls-24" d="M207.7 29.9v-9.8M200.7 36.9V27M200.7 36.9V27M207.7 29.9v-9.8"/><path class="cls-28" d="M207.7 29.9l-7 7h17.5v-7h-10.5"/><path class="cls-22" d="M218.5 31.6l-1.9-1.7M218.5 35.7l-5.8-5.8M215.6 36.9l-7-7M211.5 36.9l-5.3-5.3M207.7 36.9l-3.4-3.4M203.6 36.9l-1.4-1.5M214.4 36.9l4.1-3.9M210.3 36.9l7-7M206.5 36.9l6.9-7M202.4 36.9l7-7"/><path class="cls-28" d="M207.7 29.9l-7 7h17.5v-7h-10.5"/><path class="cls-22" d="M218.5 31.6l-1.9-1.7M218.5 35.7l-5.8-5.8M215.6 36.9l-7-7M211.5 36.9l-5.3-5.3M207.7 36.9l-3.4-3.4M203.6 36.9l-1.4-1.5M214.4 36.9l4.1-3.9M210.3 36.9l7-7M206.5 36.9l6.9-7M202.4 36.9l7-7"/><path class="cls-24" d="M218.2 29.9h-10.5M218.2 36.9h-17.5M218.2 36.9h-17.5M218.2 29.9h-10.5"/><path class="cls-28" d="M372.8 29.9v7H254v-7h118.8"/><path class="cls-22" d="M373 33.7l-4-3.8M371.8 36.9l-6.9-7M368 36.9l-7-7M363.9 36.9l-6.9-7M359.8 36.9l-6.9-7M356 36.9l-7-7M351.9 36.9l-6.9-7M347.8 36.9l-6.9-7M344 36.9l-7-7M339.9 36.9l-6.9-7M335.8 36.9l-6.9-7M331.8 36.9l-7-7M327.9 36.9l-6.9-7M323.8 36.9l-6.9-7M319.8 36.9l-7-7M315.9 36.9l-6.9-7M311.8 36.9l-6.9-7M307.8 36.9l-7-7M303.7 36.9l-7-7M299.8 36.9l-6.9-7M295.8 36.9l-7-7M291.7 36.9l-7-7M287.8 36.9l-6.9-7M283.8 36.9l-7-7M279.7 36.9l-7-7M275.8 36.9l-6.9-7M271.8 36.9l-7-7M267.7 36.9l-7-7M263.6 36.9l-7-7M259.8 36.9l-5.6-5.6M255.7 36.9l-1.5-1.7M370.9 36.9l2.1-2.2M366.8 36.9l6.2-6.3M362.7 36.9l7-7M358.6 36.9l7-7M354.8 36.9l7-7M350.7 36.9l7-7M346.6 36.9l7-7M342.8 36.9l7-7M338.7 36.9l7-7M334.6 36.9l7-7M330.6 36.9l6.9-7M326.7 36.9l7-7M322.6 36.9l7-7M318.6 36.9l6.9-7M314.7 36.9l7-7M310.6 36.9l7-7M306.6 36.9l6.9-7M302.7 36.9l7-7M298.6 36.9l7-7M294.6 36.9l6.9-7M290.5 36.9l6.9-7M286.6 36.9l7-7M282.6 36.9l6.9-7M278.5 36.9l6.9-7M274.6 36.9l7-7M270.6 36.9l6.9-7M266.5 36.9l6.9-7M262.6 36.9l7-7M258.6 36.9l6.9-7M254.5 36.9l6.9-7M254.2 33.3l3.2-3.4"/><path class="cls-28" d="M372.8 36.9v-7H254v7h118.8"/><path class="cls-22" d="M373 33.7l-4-3.8M371.8 36.9l-6.9-7M368 36.9l-7-7M363.9 36.9l-6.9-7M359.8 36.9l-6.9-7M356 36.9l-7-7M351.9 36.9l-6.9-7M347.8 36.9l-6.9-7M344 36.9l-7-7M339.9 36.9l-6.9-7M335.8 36.9l-6.9-7M331.8 36.9l-7-7M327.9 36.9l-6.9-7M323.8 36.9l-6.9-7M319.8 36.9l-7-7M315.9 36.9l-6.9-7M311.8 36.9l-6.9-7M307.8 36.9l-7-7M303.7 36.9l-7-7M299.8 36.9l-6.9-7M295.8 36.9l-7-7M291.7 36.9l-7-7M287.8 36.9l-6.9-7M283.8 36.9l-7-7M279.7 36.9l-7-7M275.8 36.9l-6.9-7M271.8 36.9l-7-7M267.7 36.9l-7-7M263.6 36.9l-7-7M259.8 36.9l-5.6-5.6M255.7 36.9l-1.5-1.7M370.9 36.9l2.1-2.2M366.8 36.9l6.2-6.3M362.7 36.9l7-7M358.6 36.9l7-7M354.8 36.9l7-7M350.7 36.9l7-7M346.6 36.9l7-7M342.8 36.9l7-7M338.7 36.9l7-7M334.6 36.9l7-7M330.6 36.9l6.9-7M326.7 36.9l7-7M322.6 36.9l7-7M318.6 36.9l6.9-7M314.7 36.9l7-7M310.6 36.9l7-7M306.6 36.9l6.9-7M302.7 36.9l7-7M298.6 36.9l7-7M294.6 36.9l6.9-7M290.5 36.9l6.9-7M286.6 36.9l7-7M282.6 36.9l6.9-7M278.5 36.9l6.9-7M274.6 36.9l7-7M270.6 36.9l6.9-7M266.5 36.9l6.9-7M262.6 36.9l7-7M258.6 36.9l6.9-7M254.5 36.9l6.9-7M254.2 33.3l3.2-3.4"/><path class="cls-24" d="M372.8 29.9H254M372.8 36.9H254M372.8 36.9H254M372.8 29.9H254M372.8 31.8v-1.9"/><path class="cls-23" d="M248 29.4h6v1.7h-6zM218.2 29.4h2.6v1.7h-2.6zM220.9 29.4H248v1.7h-27.1zM248 31.1h-27.1"/><path class="cls-1" d="M248.2 36.9h-27.8"/><path class="cls-23" d="M220.9 36.9h-.5"/><path class="cls-28" d="M254 36.9h-5.8v-5.8h5.8"/><path class="cls-22" d="M254.2 31.3l-.2-.2M254.2 35.2l-4.3-4.1M251.6 36.9l-3.1-3.4M250.4 36.9l3.8-3.6M248.5 34.9l3.8-3.8"/><path class="cls-28" d="M218.2 36.9h2.2v-5.8h-2.2"/><path class="cls-22" d="M220.6 33.7l-2.1-2.1M219.7 36.9l-1.2-1.2M218.5 36.9l2.1-2.2M218.5 33l1.7-1.9"/><path class="cls-24" d="M248.2 36.9v-5.8M220.4 36.9v-5.8M248.2 36.9v-5.8M254 36.9h-5.8M220.4 36.9v-5.8M218.2 36.9h2.2M254 29.9v1.2M218.2 29.9v1.2M254 36.9h-5.8M218.2 36.9h2.2M248.2 31.1h5.8M220.4 31.1h-2.2"/><path class="cls-28" d="M371.4 120.6h-7.2v232.1h7.2V120.6"/><path class="cls-22" d="M371.6 124.7l-4.1-4.1M371.6 128.5l-7.2-7.2M371.6 132.6l-7.2-7.2M371.6 136.7l-7.2-7.2M371.6 140.5l-7.2-7.2M371.6 144.6l-7.2-7.2M371.6 148.7l-7.2-7.2M371.6 152.5l-7.2-7.2M371.6 156.6l-7.2-7.2M371.6 160.7l-7.2-7.2M371.6 164.8l-7.2-7.2M371.6 168.6l-7.2-7.2M371.6 172.7l-7.2-7.2M371.6 176.8l-7.2-7.2M371.6 180.6l-7.2-7.2M371.6 184.7l-7.2-7.2M371.6 188.8l-7.2-7.2M371.6 192.6l-7.2-7.2M371.6 196.7l-7.2-7.2M371.6 200.8l-7.2-7.2M371.6 204.9l-7.2-7.2M371.6 208.7l-7.2-7.2M371.6 212.8l-7.2-7.2M371.6 216.9l-7.2-7.2M371.6 220.7l-7.2-7.2M371.6 224.8l-7.2-7.2M371.6 228.9l-7.2-7.2M371.6 232.9l-7.2-7.2M371.6 236.8l-7.2-7.2M371.6 240.9l-7.2-7.2M371.6 244.9l-7.2-7.2M371.6 248.8l-7.2-7.2M371.6 252.9l-7.2-7.2M371.6 256.9l-7.2-7.2M371.6 260.8l-7.2-7.2M371.6 264.9l-7.2-7.2M371.6 268.9l-7.2-7.2M371.6 273l-7.2-7.2M371.6 276.9l-7.2-7.2M371.6 280.9l-7.2-7.2M371.6 285l-7.2-7.2M371.6 288.9l-7.2-7.2M371.6 292.9l-7.2-7.2M371.6 297l-7.2-7.2M371.6 300.9l-7.2-7.2M371.6 304.9l-7.2-7.2M371.6 309l-7.2-7.2M371.6 313.1l-7.2-7.2M371.6 316.9l-7.2-7.2M371.6 321l-7.2-7.2M371.6 325.1l-7.2-7.2M371.6 328.9l-7.2-7.2M371.6 333l-7.2-7.2M371.6 337.1l-7.2-7.2M371.6 341.2l-7.2-7.2M371.6 345l-7.2-7.2M371.6 349.1l-7.2-7.2M371.1 352.7l-6.7-6.7M367 352.7l-2.6-2.9M367.5 352.7l4.1-3.8M364.4 352l7.2-7.2M364.4 347.9l7.2-7.2M364.4 344.1l7.2-7.2M364.4 340l7.2-7.2M364.4 335.9l7.2-7.2M364.4 332.1l7.2-7.2M364.4 328l7.2-7.2M364.4 323.9l7.2-7.2M364.4 320.1l7.2-7.2M364.4 316l7.2-7.2M364.4 311.9l7.2-7.2M364.4 307.8l7.2-7.2M364.4 304l7.2-7.2M364.4 299.9l7.2-7.2M364.4 295.8l7.2-7.2M364.4 292l7.2-7.2M364.4 287.9l7.2-7.2M364.4 283.8l7.2-7.2M364.4 279.7l7.2-7.2M364.4 275.9l7.2-7.2M364.4 271.8l7.2-7.2M364.4 267.7l7.2-7.2M364.4 263.9l7.2-7.2M364.4 259.8l7.2-7.2M364.4 255.7l7.2-7.2M364.4 251.9l7.2-7.2M364.4 247.8l7.2-7.2M364.4 243.7l7.2-7.2M364.4 239.7l7.2-7.2M364.4 235.8l7.2-7.2M364.4 231.7l7.2-7.2M364.4 227.7l7.2-7.2M364.4 223.8l7.2-7.2M364.4 219.7l7.2-7.2M364.4 215.7l7.2-7.2M364.4 211.8l7.2-7.2M364.4 207.7l7.2-7.2M364.4 203.7l7.2-7.2M364.4 199.6l7.2-7.2M364.4 195.7l7.2-7.2M364.4 191.7l7.2-7.2M364.4 187.6l7.2-7.2M364.4 183.7l7.2-7.2M364.4 179.7l7.2-7.2M364.4 175.6l7.2-7.2M364.4 171.7l7.2-7.2M364.4 167.7l7.2-7.2M364.4 163.6l7.2-7.2M364.4 159.5l7.2-7.2M364.4 155.7l7.2-7.2M364.4 151.6l7.2-7.2M364.4 147.5l7.2-7.2M364.4 143.7l7.2-7.2M364.4 139.6l7.2-7.2M364.4 135.5l7.2-7.2M364.4 131.4l7.2-7.2M364.4 127.6l6.7-7M364.4 123.5l2.9-2.9"/><path class="cls-28" d="M371.4 120.6h-7.2v232.1h7.2V120.6"/><path class="cls-22" d="M371.6 124.7l-4.1-4.1M371.6 128.5l-7.2-7.2M371.6 132.6l-7.2-7.2M371.6 136.7l-7.2-7.2M371.6 140.5l-7.2-7.2M371.6 144.6l-7.2-7.2M371.6 148.7l-7.2-7.2M371.6 152.5l-7.2-7.2M371.6 156.6l-7.2-7.2M371.6 160.7l-7.2-7.2M371.6 164.8l-7.2-7.2M371.6 168.6l-7.2-7.2M371.6 172.7l-7.2-7.2M371.6 176.8l-7.2-7.2M371.6 180.6l-7.2-7.2M371.6 184.7l-7.2-7.2M371.6 188.8l-7.2-7.2M371.6 192.6l-7.2-7.2M371.6 196.7l-7.2-7.2M371.6 200.8l-7.2-7.2M371.6 204.9l-7.2-7.2M371.6 208.7l-7.2-7.2M371.6 212.8l-7.2-7.2M371.6 216.9l-7.2-7.2M371.6 220.7l-7.2-7.2M371.6 224.8l-7.2-7.2M371.6 228.9l-7.2-7.2M371.6 232.9l-7.2-7.2M371.6 236.8l-7.2-7.2M371.6 240.9l-7.2-7.2M371.6 244.9l-7.2-7.2M371.6 248.8l-7.2-7.2M371.6 252.9l-7.2-7.2M371.6 256.9l-7.2-7.2M371.6 260.8l-7.2-7.2M371.6 264.9l-7.2-7.2M371.6 268.9l-7.2-7.2M371.6 273l-7.2-7.2M371.6 276.9l-7.2-7.2M371.6 280.9l-7.2-7.2M371.6 285l-7.2-7.2M371.6 288.9l-7.2-7.2M371.6 292.9l-7.2-7.2M371.6 297l-7.2-7.2M371.6 300.9l-7.2-7.2M371.6 304.9l-7.2-7.2M371.6 309l-7.2-7.2M371.6 313.1l-7.2-7.2M371.6 316.9l-7.2-7.2M371.6 321l-7.2-7.2M371.6 325.1l-7.2-7.2M371.6 328.9l-7.2-7.2M371.6 333l-7.2-7.2M371.6 337.1l-7.2-7.2M371.6 341.2l-7.2-7.2M371.6 345l-7.2-7.2M371.6 349.1l-7.2-7.2M371.1 352.7l-6.7-6.7M367 352.7l-2.6-2.9M367.5 352.7l4.1-3.8M364.4 352l7.2-7.2M364.4 347.9l7.2-7.2M364.4 344.1l7.2-7.2M364.4 340l7.2-7.2M364.4 335.9l7.2-7.2M364.4 332.1l7.2-7.2M364.4 328l7.2-7.2M364.4 323.9l7.2-7.2M364.4 320.1l7.2-7.2M364.4 316l7.2-7.2M364.4 311.9l7.2-7.2M364.4 307.8l7.2-7.2M364.4 304l7.2-7.2M364.4 299.9l7.2-7.2M364.4 295.8l7.2-7.2M364.4 292l7.2-7.2M364.4 287.9l7.2-7.2M364.4 283.8l7.2-7.2M364.4 279.7l7.2-7.2M364.4 275.9l7.2-7.2M364.4 271.8l7.2-7.2M364.4 267.7l7.2-7.2M364.4 263.9l7.2-7.2M364.4 259.8l7.2-7.2M364.4 255.7l7.2-7.2M364.4 251.9l7.2-7.2M364.4 247.8l7.2-7.2M364.4 243.7l7.2-7.2M364.4 239.7l7.2-7.2M364.4 235.8l7.2-7.2M364.4 231.7l7.2-7.2M364.4 227.7l7.2-7.2M364.4 223.8l7.2-7.2M364.4 219.7l7.2-7.2M364.4 215.7l7.2-7.2M364.4 211.8l7.2-7.2M364.4 207.7l7.2-7.2M364.4 203.7l7.2-7.2M364.4 199.6l7.2-7.2M364.4 195.7l7.2-7.2M364.4 191.7l7.2-7.2M364.4 187.6l7.2-7.2M364.4 183.7l7.2-7.2M364.4 179.7l7.2-7.2M364.4 175.6l7.2-7.2M364.4 171.7l7.2-7.2M364.4 167.7l7.2-7.2M364.4 163.6l7.2-7.2M364.4 159.5l7.2-7.2M364.4 155.7l7.2-7.2M364.4 151.6l7.2-7.2M364.4 147.5l7.2-7.2M364.4 143.7l7.2-7.2M364.4 139.6l7.2-7.2M364.4 135.5l7.2-7.2M364.4 131.4l7.2-7.2M364.4 127.6l6.7-7M364.4 123.5l2.9-2.9"/><path class="cls-24" d="M371.4 264.1V120.6M371.4 352.7v-84.2M364.2 352.7V120.6M364.2 352.7V120.6M371.4 264.1V120.6M371.4 352.7v-84.2M371.4 352.7h-7.2M371.4 268.5v-4.4"/><path class="cls-23" d="M366.3 79.6v33.8M358.6 79.6v33.8M351 79.6v33.8M343.3 79.6v33.8M335.8 79.6v33.8M328.2 79.6v33.8M320.5 79.6v33.8M312.8 79.6v33.8M247.8 72.4h122.4v5.8H247.8zM323.8 78.1l8.2 35.3M305.1 79.6v33.8M297.4 79.6v33.8M289.8 79.6v33.8M282.1 79.6v33.8M274.4 79.6v33.8M267 79.6v33.8M259.3 79.6v33.8M251.6 79.6v33.8"/><path class="cls-23" d="M246.3 70.9h125.3v8.6H246.3zM328.1 96.5l3.8 3.8M331.9 92.7l-3.8 3.8M332 100.2v-7.4M251.5 96.5l3.9 3.8M255.4 92.7l-3.9 3.8M255.4 100.2v-7.4"/><path class="cls-28" d="M470.2 36.9v79.4l5.1 4.3V36.9h-5.1"/><path class="cls-22" d="M470.5 39l2.1-2.1M470.5 43.3l5-5M470.5 47.7l5-5.1M470.5 51.7l5-5M470.5 56.1l5-5.1M470.5 60.4l5-5.1M470.5 64.5l5-5.1M470.5 68.8l5-5.1M470.5 73.1l5-5M470.5 77.4l5-5M470.5 81.5l5-5M470.5 85.8l5-5M470.5 90.1l5-5M470.5 94.2l5-5M470.5 98.5l5-5M470.5 102.9l5-5.1M470.5 107.2l5-5.1M470.5 111.3l5-5.1M470.5 115.6l5-5.1M472.2 118l3.3-3.1M474.6 119.9l.9-1"/><path class="cls-28" d="M470.2 36.9v79.4l5.1 4.3V36.9h-5.1"/><path class="cls-22" d="M470.5 39l2.1-2.1M470.5 43.3l5-5M470.5 47.7l5-5.1M470.5 51.7l5-5M470.5 56.1l5-5.1M470.5 60.4l5-5.1M470.5 64.5l5-5.1M470.5 68.8l5-5.1M470.5 73.1l5-5M470.5 77.4l5-5M470.5 81.5l5-5M470.5 85.8l5-5M470.5 90.1l5-5M470.5 94.2l5-5M470.5 98.5l5-5M470.5 102.9l5-5.1M470.5 107.2l5-5.1M470.5 111.3l5-5.1M470.5 115.6l5-5.1M472.2 118l3.3-3.1M474.6 119.9l.9-1"/><path class="cls-24" d="M475.3 120.6V36.9M470.2 116.3V36.9M475.3 36.9h-5.1M470.2 116.3V36.9M475.3 120.6V36.9"/><path class="cls-28" d="M475.3 120.6H471v23.1h4.3v-23.1"/><path class="cls-22" d="M471.2 123.3l2.6-2.7M471.2 127.6l4.3-4.3M471.2 131.9l4.3-4.3M471.2 136.2l4.3-4.3M471.2 140.3l4.3-4.3M471.9 143.7l3.6-3.4"/><path class="cls-28" d="M475.3 120.6H471v23.1h4.3v-23.1"/><path class="cls-22" d="M471.2 123.3l2.6-2.7M471.2 127.6l4.3-4.3M471.2 131.9l4.3-4.3M471.2 136.2l4.3-4.3M471.2 140.3l4.3-4.3M471.9 143.7l3.6-3.4"/><path class="cls-24" d="M475.3 143.7v-23.1M471 143.7v-23.1M471 143.7v-23.1M475.3 143.7v-23.1"/><path class="cls-28" d="M475.3 215.7H471v-46.8h4.3v46.8"/><path class="cls-22" d="M471.2 170.1l1.2-1.2M471.2 174.4l4.3-4.3M471.2 178.7l4.3-4.3M471.2 182.8l4.3-4.3M471.2 187.1l4.3-4.3M471.2 191.4l4.3-4.3M471.2 195.5l4.3-4.3M471.2 199.8l4.3-4.3M471.2 204.1l4.3-4.3M471.2 208.5l4.3-4.4M471.2 212.5l4.3-4.3M472.2 215.7l3.3-3.2"/><path class="cls-28" d="M471 215.7h4.3v-46.8H471v46.8"/><path class="cls-22" d="M471.2 170.1l1.2-1.2M471.2 174.4l4.3-4.3M471.2 178.7l4.3-4.3M471.2 182.8l4.3-4.3M471.2 187.1l4.3-4.3M471.2 191.4l4.3-4.3M471.2 195.5l4.3-4.3M471.2 199.8l4.3-4.3M471.2 204.1l4.3-4.3M471.2 208.5l4.3-4.4M471.2 212.5l4.3-4.3M472.2 215.7l3.3-3.2"/><path class="cls-24" d="M475.3 215.7v-46.8M471 215.7v-46.8M471 215.7v-46.8M475.3 215.7v-46.8"/><path class="cls-28" d="M475.3 347.7H471V240.9h4.3v106.8"/><path class="cls-22" d="M471.2 242.3l1.4-1.4M471.2 246.6l4.3-4.3M471.2 250.9l4.3-4.3M471.2 255l4.3-4.3M471.2 259.3l4.3-4.3M471.2 263.7l4.3-4.4M471.2 267.7l4.3-4.3M471.2 272.1l4.3-4.4M471.2 276.4l4.3-4.3M471.2 280.7l4.3-4.3M471.2 284.8l4.3-4.3M471.2 289.1l4.3-4.3M471.2 293.4l4.3-4.3M471.2 297.5l4.3-4.3M471.2 301.8l4.3-4.3M471.2 306.1l4.3-4.3M471.2 310.5l4.3-4.4M471.2 314.5l4.3-4.3M471.2 318.9l4.3-4.4M471.2 323.2l4.3-4.3M471.2 327.3l4.3-4.4M471.2 331.6l4.3-4.3M471.2 335.9l4.3-4.3M471.2 340.2l4.3-4.3M471.2 344.3l4.3-4.3M471.9 347.7l3.6-3.4"/><path class="cls-28" d="M471 347.7h4.3V240.9H471v106.8"/><path class="cls-22" d="M471.2 242.3l1.4-1.4M471.2 246.6l4.3-4.3M471.2 250.9l4.3-4.3M471.2 255l4.3-4.3M471.2 259.3l4.3-4.3M471.2 263.7l4.3-4.4M471.2 267.7l4.3-4.3M471.2 272.1l4.3-4.4M471.2 276.4l4.3-4.3M471.2 280.7l4.3-4.3M471.2 284.8l4.3-4.3M471.2 289.1l4.3-4.3M471.2 293.4l4.3-4.3M471.2 297.5l4.3-4.3M471.2 301.8l4.3-4.3M471.2 306.1l4.3-4.3M471.2 310.5l4.3-4.4M471.2 314.5l4.3-4.3M471.2 318.9l4.3-4.4M471.2 323.2l4.3-4.3M471.2 327.3l4.3-4.4M471.2 331.6l4.3-4.3M471.2 335.9l4.3-4.3M471.2 340.2l4.3-4.3M471.2 344.3l4.3-4.3M471.9 347.7l3.6-3.4"/><path class="cls-24" d="M475.3 347.7V240.9M471 264.1v-23.2M471 347.7v-79.2M471 264.1v-23.2M475.3 347.7V240.9M471 347.7v-79.2M475.3 347.7H471"/><path class="cls-1" d="M475.3 168.9v-25.2M471 168.9v-25.2"/><path class="cls-23" d="M475.3 167.7H471M475.3 144.9H471"/><path class="cls-24" d="M475.3 168.9H471M475.3 143.7H471"/><path class="cls-22" d="M497.9 167.7c0-12.4-10.2-22.7-22.7-22.7M475.3 167.7h22.5"/><path class="cls-1" d="M475.3 240.9v-25.2M471 240.9v-25.2"/><path class="cls-23" d="M475.3 239.7H471M475.3 216.9H471"/><path class="cls-24" d="M475.3 240.9H471M475.3 215.7H471"/><path class="cls-22" d="M475.2 239.7c6 0 11.8-2.4 16-6.6 4.3-4.3 6.6-10 6.6-16M475.3 216.9h22.5"/><path class="cls-28" d="M440.7 116.3v4.3h-28.1v-4.3h28.1"/><path class="cls-22" d="M412.9 118l1.4-1.7M414.3 120.6l4.3-4.3M418.6 120.6l4.4-4.3M422.7 120.6l4.3-4.3M427 120.6l4.4-4.3M431.4 120.6l4.3-4.3M435.7 120.6l4.3-4.3M439.8 120.6l1.2-.9"/><path class="cls-28" d="M440.7 120.6v-4.3h-28.1v4.3h28.1"/><path class="cls-22" d="M412.9 118l1.4-1.7M414.3 120.6l4.3-4.3M418.6 120.6l4.4-4.3M422.7 120.6l4.3-4.3M427 120.6l4.4-4.3M431.4 120.6l4.3-4.3M435.7 120.6l4.3-4.3M439.8 120.6l1.2-.9"/><path class="cls-24" d="M440.7 116.3h-28.1M440.7 120.6h-28.1M412.6 116.3v4.3M440.7 120.6h-28.1M440.7 116.3h-28.1"/><path class="cls-28" d="M465.9 120.6h9.4l-5.1-4.3h-4.3v4.3"/><path class="cls-22" d="M466.2 119.9l3.3-3.6M469.5 120.6l2.7-2.6M473.8 120.6l.8-.7"/><path class="cls-28" d="M465.9 120.6h9.4l-5.1-4.3h-4.3v4.3"/><path class="cls-22" d="M466.2 119.9l3.3-3.6M469.5 120.6l2.7-2.6M473.8 120.6l.8-.7"/><path class="cls-24" d="M470.2 116.3h-4.3M471 120.6h-5.1M471 120.6h-5.1M470.2 116.3h-4.3"/><path class="cls-1" d="M465.9 116.3h-25.2M465.9 120.6h-25.2"/><path class="cls-23" d="M464.7 116.3v4.3M441.9 116.3v4.3"/><path class="cls-24" d="M465.9 116.3v4.3M440.7 116.3v4.3"/><path class="cls-22" d="M464.7 93.7c-12.4 0-22.7 10.2-22.7 22.7M464.7 116.3V93.7"/><path class="cls-28" d="M560.7 194.5v-4.3h-85.4v4.3h85.4"/><path class="cls-22" d="M561 193.6l-3.6-3.4M557.6 194.5l-4.3-4.3M553.8 194.5l-4.4-4.3M549.7 194.5l-4.3-4.3M545.6 194.5l-4.3-4.3M541.8 194.5l-4.4-4.3M537.7 194.5l-4.3-4.3M533.6 194.5l-4.3-4.3M529.5 194.5l-4.3-4.3M525.7 194.5l-4.3-4.3M521.6 194.5l-4.3-4.3M517.5 194.5l-4.3-4.3M513.7 194.5l-4.3-4.3M509.6 194.5l-4.3-4.3M505.5 194.5l-4.3-4.3M501.7 194.5l-4.3-4.3M497.6 194.5l-4.3-4.3M493.5 194.5l-4.3-4.3M489.4 194.5l-4.3-4.3M485.6 194.5l-4.3-4.3M481.5 194.5l-4.3-4.3M477.4 194.5l-1.9-2.1M557.8 194.5l3.2-3.1M553.8 194.5l4.3-4.3M549.9 194.5l4.3-4.3M545.8 194.5l4.4-4.3M541.8 194.5l4.3-4.3M537.7 194.5l4.3-4.3M533.8 194.5l4.4-4.3M529.8 194.5l4.3-4.3M525.7 194.5l4.3-4.3M521.8 194.5l4.4-4.3M517.8 194.5l4.3-4.3M513.7 194.5l4.3-4.3M509.8 194.5l4.4-4.3M505.8 194.5l4.3-4.3M501.7 194.5l4.3-4.3M497.6 194.5l4.3-4.3M493.8 194.5l4.3-4.3M489.7 194.5l4.3-4.3M485.6 194.5l4.3-4.3M481.8 194.5l4.3-4.3M477.7 194.5l4.3-4.3M475.5 192.9l2.4-2.7"/><path class="cls-28" d="M560.7 194.5v-4.3h-85.4v4.3h85.4"/><path class="cls-22" d="M561 193.6l-3.6-3.4M557.6 194.5l-4.3-4.3M553.8 194.5l-4.4-4.3M549.7 194.5l-4.3-4.3M545.6 194.5l-4.3-4.3M541.8 194.5l-4.4-4.3M537.7 194.5l-4.3-4.3M533.6 194.5l-4.3-4.3M529.5 194.5l-4.3-4.3M525.7 194.5l-4.3-4.3M521.6 194.5l-4.3-4.3M517.5 194.5l-4.3-4.3M513.7 194.5l-4.3-4.3M509.6 194.5l-4.3-4.3M505.5 194.5l-4.3-4.3M501.7 194.5l-4.3-4.3M497.6 194.5l-4.3-4.3M493.5 194.5l-4.3-4.3M489.4 194.5l-4.3-4.3M485.6 194.5l-4.3-4.3M481.5 194.5l-4.3-4.3M477.4 194.5l-1.9-2.1M557.8 194.5l3.2-3.1M553.8 194.5l4.3-4.3M549.9 194.5l4.3-4.3M545.8 194.5l4.4-4.3M541.8 194.5l4.3-4.3M537.7 194.5l4.3-4.3M533.8 194.5l4.4-4.3M529.8 194.5l4.3-4.3M525.7 194.5l4.3-4.3M521.8 194.5l4.4-4.3M517.8 194.5l4.3-4.3M513.7 194.5l4.3-4.3M509.8 194.5l4.4-4.3M505.8 194.5l4.3-4.3M501.7 194.5l4.3-4.3M497.6 194.5l4.3-4.3M493.8 194.5l4.3-4.3M489.7 194.5l4.3-4.3M485.6 194.5l4.3-4.3M481.8 194.5l4.3-4.3M477.7 194.5l4.3-4.3M475.5 192.9l2.4-2.7"/><path class="cls-24" d="M475.3 194.5h85.4M475.3 190.2h85.4M475.3 190.2h85.4M475.3 194.5h85.4M475.3 194.5v-4.3"/><path class="cls-28" d="M371.4 264.1v4.4h27.1v-4.4h-27.1"/><path class="cls-22" d="M371.6 265.3l1.2-1.2M372.8 268.5l4.3-4.4M376.9 268.5l4.3-4.4M381.2 268.5l4.3-4.4M385.5 268.5l4.3-4.4M389.8 268.5l4.4-4.4M393.9 268.5l4.3-4.4M398.2 268.5l.5-.5"/><path class="cls-28" d="M371.4 264.1v4.4h27.1v-4.4h-27.1"/><path class="cls-22" d="M371.6 265.3l1.2-1.2M372.8 268.5l4.3-4.4M376.9 268.5l4.3-4.4M381.2 268.5l4.3-4.4M385.5 268.5l4.3-4.4M389.8 268.5l4.4-4.4M393.9 268.5l4.3-4.4M398.2 268.5l.5-.5"/><path class="cls-24" d="M398.5 264.1h-27.1M398.5 268.5h-27.1M398.5 268.5h-27.1M398.5 264.1h-27.1"/><path class="cls-28" d="M443.6 268.5H471v-4.4h-27.4v4.4"/><path class="cls-22" d="M443.8 265.6l1.2-1.5M445 268.5l4.4-4.4M449.1 268.5l4.3-4.4M453.4 268.5l4.4-4.4M457.8 268.5l4.3-4.4M462.1 268.5l4.3-4.4M466.2 268.5l4.3-4.4M470.5 268.5l.7-.8"/><path class="cls-28" d="M443.6 268.5H471v-4.4h-27.4v4.4"/><path class="cls-22" d="M443.8 265.6l1.2-1.5M445 268.5l4.4-4.4M449.1 268.5l4.3-4.4M453.4 268.5l4.4-4.4M457.8 268.5l4.3-4.4M462.1 268.5l4.3-4.4M466.2 268.5l4.3-4.4M470.5 268.5l.7-.8"/><path class="cls-24" d="M471 264.1h-27.4M471 268.5h-27.4M471 268.5h-27.4M471 264.1h-27.4M371.4 268.5v-4.4"/><path class="cls-23" d="M442.4 264.1v4.4M399.7 264.1v4.4"/><path class="cls-24" d="M443.6 264.1v4.4M398.5 264.1v4.4"/><path class="cls-22" d="M442.3 242.9c-11.7 0-21.3 9.6-21.3 21.3M421 264.2c0-11.7-9.6-21.3-21.3-21.3M442.4 264.1V243M399.7 264.1V243"/><path class="cls-28" d="M412.6 120.6l-6.9-7.2h-2.2v7.2h9.1"/><path class="cls-22" d="M411.7 120.6l-7.2-7.2M407.6 120.6l-3.8-4.1M411.2 120.6l.7-.7M407.4 120.6l2.6-2.9M403.8 120.1l4.3-4.3M403.8 116.3l2.4-2.6"/><path class="cls-28" d="M412.6 120.6l-6.9-7.2h-2.2v7.2h9.1"/><path class="cls-22" d="M411.7 120.6l-7.2-7.2M407.6 120.6l-3.8-4.1M411.2 120.6l.7-.7M407.4 120.6l2.6-2.9M403.8 120.1l4.3-4.3M403.8 116.3l2.4-2.6"/><path class="cls-24" d="M403.5 120.6h9.1M403.5 113.4h2.2M403.5 113.4h2.2M403.5 120.6h9.1"/><path class="cls-28" d="M236.7 120.6v-7.2h134.7v7.2H236.7"/><path class="cls-22" d="M371.6 116.5l-3.4-3.1M371.6 120.6l-7.2-7.2M367.5 120.6l-7.2-7.2M363.4 120.6l-7.2-7.2M359.6 120.6l-7.2-7.2M355.5 120.6l-7.2-7.2M351.4 120.6l-7.2-7.2M347.4 120.6l-7.2-7.2M343.5 120.6l-7.2-7.2M339.4 120.6l-7.2-7.2M335.4 120.6l-7.2-7.2M331.5 120.6l-7.2-7.2M327.4 120.6l-7.2-7.2M323.4 120.6l-7.2-7.2M319.5 120.6l-7.2-7.2M315.4 120.6l-7.2-7.2M311.4 120.6l-7.2-7.2M307.3 120.6l-7.2-7.2M303.4 120.6l-7.2-7.2M299.4 120.6l-7.2-7.2M295.3 120.6l-7.2-7.2M291.4 120.6l-7.2-7.2M287.4 120.6l-7.2-7.2M283.3 120.6l-7.2-7.2M279.4 120.6l-7.2-7.2M275.4 120.6l-7.2-7.2M271.3 120.6l-7.2-7.2M267.2 120.6l-7.2-7.2M263.4 120.6l-7.2-7.2M259.3 120.6l-7.2-7.2M255.2 120.6l-7.2-7.2M251.4 120.6l-7.2-7.2M247.3 120.6l-7.2-7.2M243.2 120.6l-6.2-6.5M239.1 120.6l-2.1-2.4M371.1 120.6l.5-.2M367.3 120.6l4.3-4.3M363.2 120.6l7.2-7.2M359.1 120.6l7.2-7.2M355 120.6l7.2-7.2M351.2 120.6l7.2-7.2M347.1 120.6l7.2-7.2M343 120.6l7.2-7.2M339.2 120.6l7.2-7.2M335.1 120.6l7.2-7.2M331 120.6l7.2-7.2M327.2 120.6l7.2-7.2M323.1 120.6l7.2-7.2M319 120.6l7.2-7.2M315 120.6l7.2-7.2M311.1 120.6l7.2-7.2M307 120.6l7.2-7.2M303 120.6l7.2-7.2M299.1 120.6l7.2-7.2M295 120.6l7.2-7.2M291 120.6l7.2-7.2M287.1 120.6l7.2-7.2M283 120.6l7.2-7.2M279 120.6l7.2-7.2M274.9 120.6l7.2-7.2M271 120.6l7.2-7.2M267 120.6l7.2-7.2M262.9 120.6l7.2-7.2M259 120.6l7.2-7.2M255 120.6l7.2-7.2M250.9 120.6l7.2-7.2M246.8 120.6l7.2-7.2M243 120.6l7.2-7.2M238.9 120.6l7.2-7.2M237 118.7l5-5.3M237 114.6l1.2-1.2"/><path class="cls-28" d="M236.7 113.4v7.2h134.7v-7.2H236.7"/><path class="cls-22" d="M371.6 116.5l-3.4-3.1M371.6 120.6l-7.2-7.2M367.5 120.6l-7.2-7.2M363.4 120.6l-7.2-7.2M359.6 120.6l-7.2-7.2M355.5 120.6l-7.2-7.2M351.4 120.6l-7.2-7.2M347.4 120.6l-7.2-7.2M343.5 120.6l-7.2-7.2M339.4 120.6l-7.2-7.2M335.4 120.6l-7.2-7.2M331.5 120.6l-7.2-7.2M327.4 120.6l-7.2-7.2M323.4 120.6l-7.2-7.2M319.5 120.6l-7.2-7.2M315.4 120.6l-7.2-7.2M311.4 120.6l-7.2-7.2M307.3 120.6l-7.2-7.2M303.4 120.6l-7.2-7.2M299.4 120.6l-7.2-7.2M295.3 120.6l-7.2-7.2M291.4 120.6l-7.2-7.2M287.4 120.6l-7.2-7.2M283.3 120.6l-7.2-7.2M279.4 120.6l-7.2-7.2M275.4 120.6l-7.2-7.2M271.3 120.6l-7.2-7.2M267.2 120.6l-7.2-7.2M263.4 120.6l-7.2-7.2M259.3 120.6l-7.2-7.2M255.2 120.6l-7.2-7.2M251.4 120.6l-7.2-7.2M247.3 120.6l-7.2-7.2M243.2 120.6l-6.2-6.5M239.1 120.6l-2.1-2.4M371.1 120.6l.5-.2M367.3 120.6l4.3-4.3M363.2 120.6l7.2-7.2M359.1 120.6l7.2-7.2M355 120.6l7.2-7.2M351.2 120.6l7.2-7.2M347.1 120.6l7.2-7.2M343 120.6l7.2-7.2M339.2 120.6l7.2-7.2M335.1 120.6l7.2-7.2M331 120.6l7.2-7.2M327.2 120.6l7.2-7.2M323.1 120.6l7.2-7.2M319 120.6l7.2-7.2M315 120.6l7.2-7.2M311.1 120.6l7.2-7.2M307 120.6l7.2-7.2M303 120.6l7.2-7.2M299.1 120.6l7.2-7.2M295 120.6l7.2-7.2M291 120.6l7.2-7.2M287.1 120.6l7.2-7.2M283 120.6l7.2-7.2M279 120.6l7.2-7.2M274.9 120.6l7.2-7.2M271 120.6l7.2-7.2M267 120.6l7.2-7.2M262.9 120.6l7.2-7.2M259 120.6l7.2-7.2M255 120.6l7.2-7.2M250.9 120.6l7.2-7.2M246.8 120.6l7.2-7.2M243 120.6l7.2-7.2M238.9 120.6l7.2-7.2M237 118.7l5-5.3M237 114.6l1.2-1.2"/><path class="cls-24" d="M236.7 120.6h127.5M236.7 113.4h134.7M236.7 113.4h134.7M236.7 120.6h127.5"/><path class="cls-28" d="M204.3 113.4H57.2l-5.3 7.2h152.4v-7.2"/><path class="cls-22" d="M204.6 113.9l-.5-.5M204.6 118l-4.6-4.6M203.1 120.6l-7.2-7.2M199 120.6l-7.2-7.2M195.2 120.6l-7.2-7.2M191.1 120.6l-7.2-7.2M187 120.6l-7.2-7.2M183.2 120.6l-7.2-7.2M179.1 120.6l-7.2-7.2M175 120.6l-7.2-7.2M171.2 120.6l-7.2-7.2M167.1 120.6l-7.2-7.2M163 120.6l-7.2-7.2M159 120.6l-7.2-7.2M155.1 120.6l-7.2-7.2M151 120.6l-7.2-7.2M147 120.6l-7.2-7.2M143.1 120.6l-7.2-7.2M139 120.6l-7.2-7.2M135 120.6l-7.2-7.2M130.9 120.6l-7.2-7.2M127 120.6l-7.2-7.2M123 120.6l-7.2-7.2M118.9 120.6l-7.2-7.2M115 120.6l-7.2-7.2M111 120.6l-7.2-7.2M106.9 120.6l-7.2-7.2M103 120.6l-7.2-7.2M99 120.6l-7.2-7.2M94.9 120.6l-7.2-7.2M90.8 120.6l-7.2-7.2M87 120.6l-7.2-7.2M82.9 120.6l-7.2-7.2M78.8 120.6l-7.2-7.2M75 120.6l-7.2-7.2M70.9 120.6l-7.2-7.2M66.8 120.6l-7.2-7.2M63 120.6l-6.3-6.2M58.9 120.6l-4.1-3.8M54.8 120.6l-1.7-1.7M202.9 120.6l1.7-1.7M198.8 120.6l5.8-5.5M194.7 120.6l7.2-7.2M190.9 120.6l7.2-7.2M186.8 120.6l7.2-7.2M182.7 120.6l7.2-7.2M178.9 120.6l7.2-7.2M174.8 120.6l7.2-7.2M170.7 120.6l7.2-7.2M166.6 120.6l7.2-7.2M162.8 120.6l7.2-7.2M158.7 120.6l7.2-7.2M154.6 120.6l7.2-7.2M150.8 120.6l7.2-7.2M146.7 120.6l7.2-7.2M142.6 120.6l7.2-7.2M138.6 120.6l7.2-7.2M134.7 120.6l7.2-7.2M130.6 120.6l7.2-7.2M126.6 120.6l7.2-7.2M122.7 120.6l7.2-7.2M118.6 120.6l7.2-7.2M114.6 120.6l7.2-7.2M110.7 120.6l7.2-7.2M106.6 120.6l7.2-7.2M102.6 120.6l7.2-7.2M98.5 120.6l7.2-7.2M94.6 120.6l7.2-7.2M90.6 120.6l7.2-7.2M86.5 120.6l7.2-7.2M82.6 120.6l7.2-7.2M78.6 120.6l7.2-7.2M74.5 120.6l7.2-7.2M70.6 120.6l7.2-7.2M66.6 120.6l7.2-7.2M62.5 120.6l7.2-7.2M58.4 120.6l7.2-7.2M54.6 120.6l7.2-7.2M56.2 114.9l1.5-1.5"/><path class="cls-28" d="M204.3 113.4H57.2l-5.3 7.2h152.4v-7.2"/><path class="cls-22" d="M204.6 113.9l-.5-.5M204.6 118l-4.6-4.6M203.1 120.6l-7.2-7.2M199 120.6l-7.2-7.2M195.2 120.6l-7.2-7.2M191.1 120.6l-7.2-7.2M187 120.6l-7.2-7.2M183.2 120.6l-7.2-7.2M179.1 120.6l-7.2-7.2M175 120.6l-7.2-7.2M171.2 120.6l-7.2-7.2M167.1 120.6l-7.2-7.2M163 120.6l-7.2-7.2M159 120.6l-7.2-7.2M155.1 120.6l-7.2-7.2M151 120.6l-7.2-7.2M147 120.6l-7.2-7.2M143.1 120.6l-7.2-7.2M139 120.6l-7.2-7.2M135 120.6l-7.2-7.2M130.9 120.6l-7.2-7.2M127 120.6l-7.2-7.2M123 120.6l-7.2-7.2M118.9 120.6l-7.2-7.2M115 120.6l-7.2-7.2M111 120.6l-7.2-7.2M106.9 120.6l-7.2-7.2M103 120.6l-7.2-7.2M99 120.6l-7.2-7.2M94.9 120.6l-7.2-7.2M90.8 120.6l-7.2-7.2M87 120.6l-7.2-7.2M82.9 120.6l-7.2-7.2M78.8 120.6l-7.2-7.2M75 120.6l-7.2-7.2M70.9 120.6l-7.2-7.2M66.8 120.6l-7.2-7.2M63 120.6l-6.3-6.2M58.9 120.6l-4.1-3.8M54.8 120.6l-1.7-1.7M202.9 120.6l1.7-1.7M198.8 120.6l5.8-5.5M194.7 120.6l7.2-7.2M190.9 120.6l7.2-7.2M186.8 120.6l7.2-7.2M182.7 120.6l7.2-7.2M178.9 120.6l7.2-7.2M174.8 120.6l7.2-7.2M170.7 120.6l7.2-7.2M166.6 120.6l7.2-7.2M162.8 120.6l7.2-7.2M158.7 120.6l7.2-7.2M154.6 120.6l7.2-7.2M150.8 120.6l7.2-7.2M146.7 120.6l7.2-7.2M142.6 120.6l7.2-7.2M138.6 120.6l7.2-7.2M134.7 120.6l7.2-7.2M130.6 120.6l7.2-7.2M126.6 120.6l7.2-7.2M122.7 120.6l7.2-7.2M118.6 120.6l7.2-7.2M114.6 120.6l7.2-7.2M110.7 120.6l7.2-7.2M106.6 120.6l7.2-7.2M102.6 120.6l7.2-7.2M98.5 120.6l7.2-7.2M94.6 120.6l7.2-7.2M90.6 120.6l7.2-7.2M86.5 120.6l7.2-7.2M82.6 120.6l7.2-7.2M78.6 120.6l7.2-7.2M74.5 120.6l7.2-7.2M70.6 120.6l7.2-7.2M66.6 120.6l7.2-7.2M62.5 120.6l7.2-7.2M58.4 120.6l7.2-7.2M54.6 120.6l7.2-7.2M56.2 114.9l1.5-1.5"/><path class="cls-24" d="M51.9 120.6h152.4M57.2 113.4h147.1M57.2 113.4h147.1M51.9 120.6h152.4"/><path class="cls-23" d="M204.3 119.4h2.6v1.7h-2.6zM234.1 119.4h2.6v1.7h-2.6zM207 119.4h27.1v1.7H207zM207 119.4h27.1"/><path class="cls-1" d="M206.7 113.4h27.6"/><path class="cls-23" d="M233.8 113.4h.5"/><path class="cls-28" d="M204.3 113.4h2.4v6h-2.4"/><path class="cls-22" d="M207 116.3l-2.4-2.4M206 119.4l-1.4-1.4M204.6 118.9l2.4-2.4M204.6 115.1l1.4-1.7"/><path class="cls-28" d="M236.7 113.4h-2.4v6h2.4"/><path class="cls-22" d="M237 114.1l-1-.7M237 118.2l-2.4-2.4M236 119.4l1-.7M234.6 117l2.4-2.4"/><path class="cls-24" d="M206.7 113.4v6M234.3 113.4v6M206.7 113.4v6M204.3 113.4h2.4M234.3 113.4v6M236.7 113.4h-2.4M204.3 120.6v-1.2M236.7 120.6v-1.2M204.3 113.4h2.4M236.7 113.4h-2.4M206.7 119.4h-2.4M234.3 119.4h2.4"/><path class="cls-23" d="M371.4 119.4h2.4v1.7h-2.4zM401.1 119.4h2.4v1.7h-2.4z"/><path class="cls-23" d="M373.8 119.4h27.4v1.7h-27.4zM373.8 119.4h27.3"/><path class="cls-1" d="M373.5 113.4h27.9"/><path class="cls-23" d="M400.9 113.4h.5"/><path class="cls-28" d="M371.4 113.4h2.1v6h-2.1"/><path class="cls-22" d="M373.8 114.6l-1.5-1.2M373.8 118.7l-2.2-2.2M372.3 119.4l1.5-1.2M371.6 116.3l2.2-2.2"/><path class="cls-28" d="M403.5 113.4h-2.1v6h2.1"/><path class="cls-22" d="M403.8 116.5l-2.2-2.1M402.3 119.4l-.7-.9M401.6 118.5l2.2-2.2M401.6 114.4l.7-1"/><path class="cls-24" d="M373.5 113.4v6M401.4 113.4v6M373.5 113.4v6M371.4 113.4h2.1M401.4 113.4v6M403.5 113.4h-2.1M371.4 120.6v-1.2M403.5 120.6v-1.2M371.4 113.4h2.1M403.5 113.4h-2.1M373.5 119.4h-2.1M401.4 119.4h2.1"/><path class="cls-22" d="M373.8 148.4c14.9 0 27.2-12.3 27.2-27.2M373.8 121.1v27.4"/><path class="cls-23" d="M182.5 79.6v33.8M174.8 79.6v33.8M159.4 79.6v33.8M152 79.6v33.8M167.1 79.6v33.8M182.5 96.5l-3.8 3.8M178.7 92.7l3.8 3.8M178.6 100.2v-7.4"/><path class="cls-27" d="M468.1 272.1h2.4v9.8h-2.4z"/><path class="cls-23" d="M468.1 272.1h2.4v9.8h-2.4z"/><path class="cls-27" d="M467.8 271.8h.2v10.3h-.2z"/><path class="cls-23" d="M467.8 271.8h.2v10.3h-.2z"/><path class="cls-25" d="M467.8 272.8h-8.4"/><path class="cls-3" d="M467.8 281.2l-1.6-.3-1.7-.4-1.5-.8-1.2-.9-.9-1.5-1-1.4-.5-1.7v-1.4"/><path class="cls-22" d="M49.7 68.9c-15.2 0-27.8 12.5-27.8 27.8M21.9 96.6h27.9"/><path class="cls-5" d="M49.8 68.8h-2.9l-2.7-.5-2.6-.7-2.4-.7-2.6-1.2-2.2-1.5-2.4-1.7-1.9-1.9-1.9-1.9-1.5-2.2-1.4-2.4-1.2-2.4-1-2.6-.7-2.6-.2-2.7-.3-2.6M21.9 41.2h27.9"/><path class="cls-22" d="M49.3 41.2h.5"/><path class="cls-28" d="M372.8 36.9h32.9l6.9-5.1h-39.8v5.1"/><path class="cls-22" d="M411.7 32.5l-.7-.7M409.5 34.2l-2.6-2.4M407.1 35.9l-4.1-4.1M404 36.9l-5-5.1M399.9 36.9l-5-5.1M396.1 36.9l-5.1-5.1M392 36.9l-5-5.1M387.9 36.9l-5-5.1M384.1 36.9l-5.1-5.1M380 36.9l-5-5.1M375.9 36.9l-2.9-3.2M409.5 34.2l2.4-2.4M402.8 36.9l5-5.1M398.7 36.9l5.1-5.1M394.9 36.9l5-5.1M390.8 36.9l5-5.1M386.7 36.9l5.1-5.1M382.9 36.9l5-5.1M378.8 36.9l5-5.1M374.7 36.9l5.1-5.1M373 34.7l2.9-2.9"/><path class="cls-28" d="M372.8 36.9h32.9l6.9-5.1h-39.8v5.1"/><path class="cls-22" d="M411.7 32.5l-.7-.7M409.5 34.2l-2.6-2.4M407.1 35.9l-4.1-4.1M404 36.9l-5-5.1M399.9 36.9l-5-5.1M396.1 36.9l-5.1-5.1M392 36.9l-5-5.1M387.9 36.9l-5-5.1M384.1 36.9l-5.1-5.1M380 36.9l-5-5.1M375.9 36.9l-2.9-3.2M409.5 34.2l2.4-2.4M402.8 36.9l5-5.1M398.7 36.9l5.1-5.1M394.9 36.9l5-5.1M390.8 36.9l5-5.1M386.7 36.9l5.1-5.1M382.9 36.9l5-5.1M378.8 36.9l5-5.1M374.7 36.9l5.1-5.1M373 34.7l2.9-2.9"/><path class="cls-24" d="M412.6 31.8h-39.8M405.7 36.9h-32.9M405.7 36.9h-32.9M412.6 31.8h-39.8M372.8 36.9"/><path class="cls-28" d="M51.9 97.8v22.8l5.3-7.2V97.8h-5.3"/><path class="cls-22" d="M57.4 99L56 97.8M57.4 103.1l-5.2-5.3M57.4 107.2l-5.2-5.3M57.4 111l-5.2-5.3M56.7 114.4l-4.5-4.6M54.8 116.8l-2.6-2.9M53.1 118.9l-.9-1.2M52.2 119.2l4-4.3M52.2 115.1l5.2-5.3M52.2 111l5.2-5.3M52.2 106.9l5.2-5.2M52.2 103.1l5-5.3M52.2 99l.9-1.2"/><path class="cls-28" d="M51.9 97.8v22.8l5.3-7.2V97.8h-5.3"/><path class="cls-22" d="M57.4 99L56 97.8M57.4 103.1l-5.2-5.3M57.4 107.2l-5.2-5.3M57.4 111l-5.2-5.3M56.7 114.4l-4.5-4.6M54.8 116.8l-2.6-2.9M53.1 118.9l-.9-1.2M52.2 119.2l4-4.3M52.2 115.1l5.2-5.3M52.2 111l5.2-5.3M52.2 106.9l5.2-5.2M52.2 103.1l5-5.3M52.2 99l.9-1.2"/><path class="cls-24" d="M57.2 113.4V97.8M51.9 120.6V97.8M57.2 97.8h-5.3M51.9 120.6V97.8M57.2 113.4V97.8"/><path class="cls-28" d="M57.2 27l-5.3-6.9V40h5.3V27"/><path class="cls-22" d="M57 26.5l-4.8-4.8M57.4 30.9l-5.2-5.3M57.4 34.9l-5.2-5.2M57.4 39l-5.2-5.3M54.3 40l-2.1-2.4M55 40l2.4-2.4M52.2 38.8l5.2-5.3M52.2 34.9l5.2-5.2M52.2 30.9l4.5-4.6M52.2 26.8l2.8-2.9M52.2 22.9l1.2-1.2"/><path class="cls-28" d="M57.2 27l-5.3-6.9V40h5.3V27"/><path class="cls-22" d="M57 26.5l-4.8-4.8M57.4 30.9l-5.2-5.3M57.4 34.9l-5.2-5.2M57.4 39l-5.2-5.3M54.3 40l-2.1-2.4M55 40l2.4-2.4M52.2 38.8l5.2-5.3M52.2 34.9l5.2-5.2M52.2 30.9l4.5-4.6M52.2 26.8l2.8-2.9M52.2 22.9l1.2-1.2"/><path class="cls-24" d="M57.2 40V27M51.9 40V20.1M51.9 40V20.1M57.2 40V27M57.2 40h-5.3"/><path class="cls-1" d="M479.4 362.3l-7.7 42.7"/><path class="cls-19" d="M471.7 405H369.4"/><path class="cls-10" d="M369.4 405l-7.6-42.7"/><path class="cls-23" d="M361.8 362.8v-.5"/><path class="cls-28" d="M51.9 20.1l5.3 6.9h143.5l7-6.9H51.9"/><path class="cls-22" d="M207.2 20.5l-.5-.4M205.3 22.5l-2.4-2.4M203.4 24.6l-4.6-4.5M201.2 26.5l-6.5-6.4M197.8 27l-6.9-6.9M193.8 27l-7-6.9M189.7 27l-7-6.9M185.8 27l-6.9-6.9M181.8 27l-7-6.9M177.7 27l-7-6.9M173.6 27l-7-6.9M169.8 27l-7-6.9M165.7 27l-7-6.9M161.6 27l-7-6.9M157.8 27l-7-6.9M153.7 27l-7-6.9M149.6 27l-7-6.9M145.5 27l-6.9-6.9M141.7 27l-7-6.9M137.6 27l-7-6.9M133.5 27l-6.9-6.9M129.7 27l-7-6.9M125.6 27l-7-6.9M121.5 27l-6.9-6.9M117.7 27l-7-6.9M113.6 27l-7-6.9M109.5 27l-6.9-6.9M105.4 27l-6.9-6.9M101.6 27l-7-6.9M97.5 27l-6.9-6.9M93.4 27l-6.9-6.9M89.6 27l-7-6.9M85.5 27l-6.9-6.9M81.4 27l-6.9-6.9M77.6 27l-7-6.9M73.5 27l-6.9-6.9M69.4 27l-6.9-6.9M65.4 27l-7-6.9M61.5 27l-6.9-6.9M57.4 27l-.4-.5M200.2 27l7-6.9M196.2 27l6.9-6.9M192.1 27l6.9-6.9M188.2 27l7-6.9M184.2 27l6.9-6.9M180.1 27l6.9-6.9M176.2 27l7-6.9M172.2 27l6.9-6.9M168.1 27l6.9-6.9M164.2 27l7-6.9M160.2 27l6.9-6.9M156.1 27l6.9-6.9M152 27l7-6.9M148.2 27l6.9-6.9M144.1 27l6.9-6.9M140 27l7-6.9M136.2 27l6.9-6.9M132.1 27l6.9-6.9M128 27l7-6.9M123.9 27l7-6.9M120.1 27l6.9-6.9M116 27l7-6.9M111.9 27l7-6.9M108.1 27l6.9-6.9M104 27l7-6.9M99.9 27l7-6.9M96.1 27l6.9-6.9M92 27l7-6.9M87.9 27l7-6.9M83.8 27l7-6.9M80 27l7-6.9M75.9 27l7-6.9M71.8 27l7-6.9M68 27l7-6.9M63.9 27l7-6.9M59.8 27l7-6.9M56.7 26.3l6.3-6.2M55 23.9l3.9-3.8M53.4 21.7l1.4-1.6"/><path class="cls-28" d="M51.9 20.1l5.3 6.9h143.5l7-6.9H51.9"/><path class="cls-22" d="M207.2 20.5l-.5-.4M205.3 22.5l-2.4-2.4M203.4 24.6l-4.6-4.5M201.2 26.5l-6.5-6.4M197.8 27l-6.9-6.9M193.8 27l-7-6.9M189.7 27l-7-6.9M185.8 27l-6.9-6.9M181.8 27l-7-6.9M177.7 27l-7-6.9M173.6 27l-7-6.9M169.8 27l-7-6.9M165.7 27l-7-6.9M161.6 27l-7-6.9M157.8 27l-7-6.9M153.7 27l-7-6.9M149.6 27l-7-6.9M145.5 27l-6.9-6.9M141.7 27l-7-6.9M137.6 27l-7-6.9M133.5 27l-6.9-6.9M129.7 27l-7-6.9M125.6 27l-7-6.9M121.5 27l-6.9-6.9M117.7 27l-7-6.9M113.6 27l-7-6.9M109.5 27l-6.9-6.9M105.4 27l-6.9-6.9M101.6 27l-7-6.9M97.5 27l-6.9-6.9M93.4 27l-6.9-6.9M89.6 27l-7-6.9M85.5 27l-6.9-6.9M81.4 27l-6.9-6.9M77.6 27l-7-6.9M73.5 27l-6.9-6.9M69.4 27l-6.9-6.9M65.4 27l-7-6.9M61.5 27l-6.9-6.9M57.4 27l-.4-.5M200.2 27l7-6.9M196.2 27l6.9-6.9M192.1 27l6.9-6.9M188.2 27l7-6.9M184.2 27l6.9-6.9M180.1 27l6.9-6.9M176.2 27l7-6.9M172.2 27l6.9-6.9M168.1 27l6.9-6.9M164.2 27l7-6.9M160.2 27l6.9-6.9M156.1 27l6.9-6.9M152 27l7-6.9M148.2 27l6.9-6.9M144.1 27l6.9-6.9M140 27l7-6.9M136.2 27l6.9-6.9M132.1 27l6.9-6.9M128 27l7-6.9M123.9 27l7-6.9M120.1 27l6.9-6.9M116 27l7-6.9M111.9 27l7-6.9M108.1 27l6.9-6.9M104 27l7-6.9M99.9 27l7-6.9M96.1 27l6.9-6.9M92 27l7-6.9M87.9 27l7-6.9M83.8 27l7-6.9M80 27l7-6.9M75.9 27l7-6.9M71.8 27l7-6.9M68 27l7-6.9M63.9 27l7-6.9M59.8 27l7-6.9M56.7 26.3l6.3-6.2M55 23.9l3.9-3.8M53.4 21.7l1.4-1.6"/><path class="cls-24" d="M207.7 20.1H51.9M138.6 27H57.2M200.7 27H146M138.6 27H57.2M207.7 20.1H51.9M200.7 27H146"/><path class="cls-22" d="M523.8 352.8v-1.9c0-.6.2-1.2.3-1.8.1-.6.3-1.2.5-1.8l.6-1.8c.2-.6.5-1.1.8-1.7.3-.5.6-1.1 1-1.6.3-.5.7-1 1.1-1.5.4-.5.8-.9 1.3-1.4.4-.4.9-.9 1.4-1.3.5-.4 1-.8 1.5-1.1.5-.3 1-.7 1.6-1 .5-.3 1.1-.6 1.7-.8l1.8-.6c.6-.2 1.2-.3 1.8-.5l1.8-.3h1.9M542.7 333.7v19M523.8 352.7v-1.4M523.5 349.8v-.7M523.5 349.1l-.2-.7"/><path class="cls-14" d="M523 347.2l-.7-1.7"/><path class="cls-22" d="M521.8 344.3l-.2-.5M521.6 343.8l-.5-.7"/><path class="cls-15" d="M520.6 342.1l-1.2-1.4"/><path class="cls-22" d="M518.5 339.5l-.3-.2M518.2 339.3l-.9-.8M516.3 337.6l-.9-.7"/><path class="cls-26" d="M515.4 336.9l-1.7-1"/><path class="cls-22" d="M513.7 335.9l-1-.5M511.3 334.9l-1-.2M510.3 334.7l-.5-.2"/><path class="cls-14" d="M508.6 334.2l-1.9-.5"/><path class="cls-22" d="M505.5 333.7h-.7"/><path class="cls-5" d="M504.8 333.7v19"/><path class="cls-22" d="M504.8 352.2v.5M520.2 31.9v1.9c0 .6.2 1.2.3 1.8.1.6.3 1.2.5 1.8l.6 1.8c.2.6.5 1.1.8 1.7.3.5.6 1.1 1 1.6.3.5.7 1 1.1 1.5.4.5.8.9 1.3 1.4.4.4.9.9 1.4 1.3.5.4 1 .8 1.5 1.1.5.3 1 .7 1.6 1 .5.3 1.1.6 1.7.8l1.8.6c.6.2 1.2.3 1.8.5l1.8.3h1.9M539.1 50.8v-19M520.2 31.8v1.5M520.2 34.7l-.3 1M519.9 35.7l-.2.4"/><path class="cls-14" d="M519.4 37.3l-.7 2"/><path class="cls-22" d="M518.5 40l-.5.9M518 40.9l-.2.3"/><path class="cls-11" d="M517 42.4l-1.2 1.4"/><path class="cls-22" d="M515.1 44.8l-.5.5M514.6 45.3l-.4.4"/><path class="cls-16" d="M513.2 46.5l-1.4 1.2"/><path class="cls-22" d="M510.8 48.1l-.7.5M510.1 48.6l-.5.3"/><path class="cls-20" d="M508.4 49.3l-1.7.8"/><path class="cls-22" d="M505.5 50.3l-.7.2M504.8 50.5h-.7"/><path class="cls-13" d="M503.1 50.8h-1.9"/><path class="cls-5" d="M501.2 50.8v-19"/><path class="cls-22" d="M501.2 32.3v-.5M450.7 332.6c-11 0-20.1 9.1-20.1 20.1M450.6 332.5v20.2"/><path class="cls-5" d="M410.5 332.5l3.8.5 3.9 1.2 3.3 1.9 3.1 2.4 2.4 3.2 2 3.3 1.2 3.9.4 3.8"/><path class="cls-17" d="M410.5 332.5v20.2"/><path class="cls-1" d="M42.3 126.4L0 118.7"/><path class="cls-12" d="M0 118.7V20.1"/><path class="cls-23" d="M0 20.5v-.4"/><path class="cls-1" d="M42.3 12.4L0 20.1"/><path class="cls-23" d="M449.1 365.2v18.7h-37.2v-18.7"/><path class="cls-23" d="M427.8 367.8l2.8-2.6 2.7 2.6h-5.5zM449.1 365.2h-37.2"/><path class="cls-27" d="M46.4 130.7h3.8v1h-3.8z"/><path class="cls-22" d="M49.3 131.7v-1M47.8 131.7v-1M46.6 131.7v-1M46.4 130.7h3.8v1h-3.8z"/><path class="cls-27" d="M46.4 105.5h3.8v1.2h-3.8z"/><path class="cls-22" d="M49.3 106.7v-1.2M47.8 106.7v-1.2M46.6 106.7v-1.2M46.4 105.5h3.8v1.2h-3.8z"/><path class="cls-24" d="M42.3 106.7h7.9v24h-7.9zM42.3 130.7v1M42.3 118.7h7.9M42.3 106.7v-1.2"/><path class="cls-23" d="M42.3 130.7h-.7"/><path class="cls-21" d="M41.6 130.7v-24"/><path class="cls-23" d="M41.6 106.7h.7"/><path class="cls-27" d="M46.4 31.1h3.8v1h-3.8z"/><path class="cls-22" d="M49.3 32.1v-1M47.8 32.1v-1M46.6 32.1v-1M46.4 31.1h3.8v1h-3.8z"/><path class="cls-27" d="M46.4 5.9h3.8v1.2h-3.8z"/><path class="cls-22" d="M49.3 7.1V5.9M47.8 7.1V5.9M46.6 7.1V5.9M46.4 5.9h3.8v1.2h-3.8z"/><path class="cls-24" d="M42.3 7.1h7.9v24h-7.9zM42.3 31.1v1M42.3 19.1h7.9M42.3 7.1V5.9"/><path class="cls-23" d="M42.3 31.1h-.7"/><path class="cls-21" d="M41.6 31.1v-24"/><path class="cls-23" d="M41.6 7.1h.7M435.2 192.1v1.5M435.2 193.6l-.2 1.4M434.5 196.5v.2M434 197.9l-.5 1M433.5 198.9l-.7 1.2M432.8 200.1l-.2.2M431.6 201.5v.2M430.4 202.7l-.2.5M430.2 203.2l-1.2.7M429 203.9l-.8.5M427 205.1h-.2M425.4 205.6l-.3.2M425.1 205.8l-1.2.3M423.9 206.1l-1.2.2M421.3 206.3h-.3M421 206.3h-.2M419.6 206.3l-1.2-.2M418.4 206.1l-1.4-.3M417 205.8l-.3-.2M415.5 205.1h-.5M413.8 204.4l-.7-.5M413.1 203.9l-.9-.7M412.2 203.2l-.5-.5M410.7 201.7l-.2-.2M409.5 200.3l-.2-.2M409.3 200.1l-.7-1.2M408.6 198.9l-.5-1M407.6 196.7v-.2M407.1 195l-.2-1.4M406.9 193.6v-1.5M406.9 190.7v-.2M407.1 189l.5-.9M407.6 188.1l.5-1.2M408.1 186.9v-.5M408.8 185.2v-.3M409.8 183.7l.2-.4M410 183.3l1-1.2M411 182.1l.7-.5M412.6 180.9l.3-.3M414.1 179.9l.2-.2M414.3 179.7l1.2-.5M415.5 179.2l1.2-.5M418.2 178.2h.2M419.8 178h1.2M421 178h1.5M422.5 178h.2M423.9 178.2l.3.3M425.6 178.7l1 .5M426.6 179.2l1.2.5M427.8 179.7l.4.2M429.4 180.6l.3.3M430.6 181.8l.5.3M431.1 182.1l1 1.2M432.1 183.3l.5.7M433.3 185.2l.2.2M434 186.6l.2.3M434.2 186.9l.5 1.2M434.7 188.1l.3 1.2M435.2 190.7v.2"/></g><g id="Mbel"><path class="cls-2" d="M409.8 166.9h22.8v50.9h-22.8zM399.9 216.5v-12.8M408.4 216.5h-8.5M399.9 203.7h8.5M399.9 198.8V186M408.4 198.8h-8.5M399.9 186h8.5M399.9 181.1v-12.8M408.4 181.1h-8.5M399.9 168.3h8.5M442.4 216.5v-12.8M433.9 216.5h8.5M442.4 203.7h-8.5M442.4 198.8V186M433.9 198.8h8.5M442.4 186h-8.5M442.4 181.1v-12.8M433.9 181.1h8.5M442.4 168.3h-8.5M502.4 73.1h56.9v45.4h-56.9zM476.5 174.6h56.6v15.6h-56.6zM538.8 146.2c3.8 1.3 7.4 2.9 11 4.8.8.4 1.3 1.4 1.3 2.3-.3 3.2-1.4 6.3-3.4 8.9-.6.8-1.5 1.1-2.5.9-3.9-.9-7.7-2.2-11.4-3.7 0-.8.2-1.5.5-2.1 1-3.1 2.2-6.2 3.5-9.2.3-.6.6-1.2 1-1.8h.1"/><path class="cls-2" d="M540 146.2c.3-.2.6-.3 1-.3 1.5-.2 3.1 0 4.5.6 1.9.8 3.7 1.7 5.4 2.9 1.2.8 2.4 1.8 3.3 2.8.6.6.8 1.5.7 2.3-.4 3.4-1.7 6.6-3.6 9.4-.5.7-1.2 1.2-2.1 1.3-1.5.2-2.9.1-4.4 0-2-.3-4-.8-6-1.5-1.4-.5-2.7-1.4-3.8-2.5-.2-.3-.4-.5-.5-.9M530.7 197.4H559v56.9h-28.3zM496.9 297h7.7v11.3h-7.7zM477 280h19.9v45.4H477zM543.4 289.6H559v56.6h-15.6z"/></g><g id="Text"><path d="M401.9 143.2h2.1v.6h-2.1v1.8h2.1v.6h-2.8v-5.3h2.8v.6h-2.1v1.8zM406.9 143.5c0-.4-.3-.6-.7-.6s-.7.2-.7.5.2.4.8.6c.5.1.7.2.9.4.2.2.3.4.3.7 0 .6-.5 1.1-1.3 1.1s-1.3-.4-1.4-1.1h.6c0 .4.3.6.8.6s.7-.2.7-.5-.2-.5-.8-.6c-.8-.2-1.2-.6-1.2-1.1s.5-1.1 1.3-1.1 1.3.4 1.3 1.1h-.6zM410.5 143.5c0-.4-.3-.6-.7-.6s-.7.2-.7.5.2.4.8.6c.5.1.7.2.9.4.2.2.3.4.3.7 0 .6-.5 1.1-1.3 1.1s-1.3-.4-1.4-1.1h.6c0 .4.3.6.8.6s.7-.2.7-.5-.2-.5-.8-.6c-.8-.2-1.2-.6-1.2-1.1s.5-1.1 1.3-1.1 1.3.4 1.3 1.1h-.6zM412.6 144.5c0 .3 0 .5.2.7.2.3.6.5 1 .5s.9-.2 1.1-.6l.5.2c-.3.6-.9 1-1.6 1-1.1 0-1.9-.8-1.9-1.9s.8-1.9 1.9-1.9 1.9.8 1.9 1.9v.2h-3.1zm2.4-.4c0-.3 0-.4-.2-.6-.2-.3-.6-.5-1-.5s-.8.2-1 .5c-.1.2-.2.3-.2.6h2.4zM417.4 142.5v.5c.3-.4.6-.6 1.1-.6s.6.1.9.3c.2.2.3.5.3 1v2.5h-.6v-2.4c0-.3 0-.5-.1-.6-.1-.2-.3-.2-.6-.2s-.5.1-.7.3c-.2.2-.2.4-.2.7v2.2h-.6v-3.7h.6zM401.5 151.6v-.6l1.8-1.2v5.4h-.6v-4.4l-1.2.8zM404.9 150.5v-.6h3l-2.1 5.3h-.7l1.9-4.7h-2zM409.1 154.8c0 .2-.2.4-.4.4s-.4-.2-.4-.4.2-.4.4-.4.4.2.4.4zM412.8 150.5h-1.7v1.4c.3-.1.5-.2.8-.2.9 0 1.6.7 1.6 1.7s-.8 1.8-1.8 1.8-1.3-.4-1.6-1.1l.6-.2c.1.2.2.3.3.4.2.2.5.3.8.3.6 0 1.1-.5 1.1-1.2s-.5-1.1-1.2-1.1-.8.2-1.2.5v-3h2.3v.6zM416.7 151.5v.5c.3-.4.6-.6 1-.6s.8.2 1 .7c.3-.5.6-.7 1.2-.7s.7.1.9.4c.2.2.2.4.2 1v2.4h-.6V153c0-.4 0-.6-.1-.7-.1-.2-.4-.3-.6-.3-.5 0-.8.4-.8 1v2.2h-.6V153c0-.4 0-.5-.1-.7-.1-.2-.3-.3-.6-.3-.5 0-.9.4-.9 1v2.2h-.6v-3.7h.6zM424.3 152.7v.4h-2l1.2-1.6c.3-.5.4-.6.4-.8 0-.3-.2-.4-.5-.4s-.5.2-.5.6h-.4c0-.6.4-1 1-1s1 .3 1 .8-.1.5-.4.9l-.8 1.1h1.1z"/><g><path d="M170.9 55.9v.6h-2.5v-5.3h.7v4.7h1.9zM172.6 51.8c0 .2-.2.4-.4.4s-.4-.2-.4-.4.2-.4.4-.4.4.2.4.4zm0 4.7h-.6v-3.7h.6v3.7zM174.5 56.5h-.6v-3.2h-.5v-.5h.5v-.5c0-.7.4-1.2 1-1.2h.2v.5c-.4 0-.6.2-.6.6v.5h.6v.5h-.6v3.2zM176.9 55.8c0 .2 0 .2.3.2h.3v.5h-.6c-.4 0-.6-.2-.6-.6v-2.6h-.5v-.5h.5v-1.2h.6v1.2h.6v.5h-.6v2.4z"/></g><g><path d="M73.9 61.7H76v.6h-2.1v1.8H76v.6h-2.8v-5.3H76v.6h-2.1v1.8zM77.8 60c0 .2-.2.4-.4.4s-.4-.2-.4-.4.2-.4.4-.4.4.2.4.4zm0 4.7h-.6V61h.6v3.7zM79.7 61v.5c.3-.4.6-.6 1.1-.6s.6.1.9.3c.2.2.3.5.3 1v2.5h-.6v-2.4c0-.3 0-.5-.1-.6-.1-.2-.3-.2-.6-.2s-.5.1-.7.3c-.2.2-.2.4-.2.7v2.2h-.6V61h.6zM86.1 61h.6v3.7c0 .6-.2 1-.5 1.4-.3.3-.8.5-1.4.5s-1.2-.2-1.6-.7l.4-.4c.2.2.2.2.4.3.2.1.6.2.9.2s.8-.1 1-.4c.2-.2.3-.5.3-.9v-.8c-.4.5-.8.8-1.4.8-1 0-1.7-.8-1.7-1.9s.2-1.2.6-1.5c.3-.3.7-.4 1.2-.4s.9.2 1.3.7V61zm-2.4 1.8c0 .8.5 1.4 1.2 1.4s.7-.2.9-.4c.2-.2.3-.5.3-.9s0-.7-.3-1c-.2-.2-.6-.4-.9-.4-.7 0-1.2.6-1.2 1.4zM90.9 61h.6v3.7h-.6V64c-.4.6-.8.8-1.3.8-1 0-1.7-.8-1.7-1.9s.7-1.9 1.8-1.9 1 .2 1.3.7v-.6zm-2.1.9c-.2.3-.3.6-.3 1 0 .8.5 1.4 1.2 1.4s1.3-.6 1.3-1.4-.5-1.4-1.2-1.4-.7.1-.9.4zM93.5 61v.5c.3-.4.6-.6 1.1-.6s.6.1.9.3c.2.2.3.5.3 1v2.5h-.6v-2.4c0-.3 0-.5-.1-.6-.1-.2-.3-.2-.6-.2s-.5.1-.7.3c-.2.2-.2.4-.2.7v2.2H93V61h.6zM99.9 61h.6v3.7c0 .6-.2 1-.5 1.4-.3.3-.8.5-1.4.5s-1.2-.2-1.6-.7l.4-.4c.2.2.2.2.4.3.2.1.6.2.9.2s.8-.1 1-.4c.2-.2.3-.5.3-.9v-.8c-.4.5-.8.8-1.4.8-1 0-1.7-.8-1.7-1.9s.2-1.2.6-1.5c.3-.3.7-.4 1.2-.4s.9.2 1.3.7V61zm-2.4 1.8c0 .8.5 1.4 1.2 1.4s.7-.2.9-.4c.2-.2.3-.5.3-.9s0-.7-.3-1c-.2-.2-.6-.4-.9-.4-.7 0-1.2.6-1.2 1.4z"/></g><g><path d="M501.5 145.2v.6h-3.8l3-4.8H498v-.6h3.8l-3 4.8h2.7zM503.4 141.1c0 .2-.2.4-.4.4s-.4-.2-.4-.4.2-.4.4-.4.4.2.4.4zm0 4.7h-.6v-3.7h.6v3.7zM505.2 142.1v.5c.3-.4.6-.6 1-.6s.8.2 1 .7c.3-.5.6-.7 1.2-.7s.7.1.9.4c.2.2.2.4.2 1v2.4h-.6v-2.2c0-.4 0-.6-.1-.7-.1-.2-.4-.3-.6-.3-.5 0-.8.4-.8 1v2.2h-.6v-2.2c0-.4 0-.5-.1-.7-.1-.2-.3-.3-.6-.3-.5 0-.9.4-.9 1v2.2h-.6v-3.7h.6zM511.5 142.1v.5c.3-.4.6-.6 1-.6s.8.2 1 .7c.3-.5.6-.7 1.2-.7s.7.1.9.4c.2.2.2.4.2 1v2.4h-.6v-2.2c0-.4 0-.6-.1-.7-.1-.2-.4-.3-.6-.3-.5 0-.8.4-.8 1v2.2h-.6v-2.2c0-.4 0-.5-.1-.7-.1-.2-.3-.3-.6-.3-.5 0-.9.4-.9 1v2.2h-.6v-3.7h.6zM517.6 144.1c0 .3 0 .5.2.7.2.3.6.5 1 .5s.9-.2 1.1-.6l.5.2c-.3.6-.9 1-1.6 1-1.1 0-1.9-.8-1.9-1.9s.8-1.9 1.9-1.9 1.9.8 1.9 1.9v.2h-3.1zm2.4-.4c0-.3 0-.4-.2-.6-.2-.3-.6-.5-1-.5s-.8.2-1 .5c-.1.2-.2.3-.2.6h2.4zM522.4 142.1v.6c.1-.3.2-.4.3-.5.2-.1.4-.2.7-.2h.1v.6h-.2c-.3 0-.6.2-.8.4-.2.2-.2.4-.2.9v1.9h-.6v-3.7h.6zM498.5 151.2v-.6l1.8-1.2v5.4h-.6v-4.4l-1.2.8zM503 151.7c.2 0 .3-.1.5-.1.9 0 1.6.7 1.6 1.6s-.8 1.7-1.7 1.7-1.7-.8-1.7-1.7.1-.7.4-1.2l1.5-2.5h.7l-1.4 2.1zm-.7 1.5c0 .6.5 1.1 1.1 1.1s1.1-.5 1.1-1.1-.5-1.1-1.1-1.1-1.1.5-1.1 1.1zM507 154.4c0 .2-.2.4-.4.4s-.4-.2-.4-.4.2-.4.4-.4.4.2.4.4zM507.9 153.6v-.5l2.8-3.7v3.6h.6v.6h-.6v1.2h-.6v-1.2H508zm2.1-2.6l-1.5 2h1.5v-2zM515.4 151.1v.5c.3-.4.6-.6 1-.6s.8.2 1 .7c.3-.5.6-.7 1.2-.7s.7.1.9.4c.2.2.2.4.2 1v2.4h-.6v-2.2c0-.4 0-.6-.1-.7-.1-.2-.4-.3-.6-.3-.5 0-.8.4-.8 1v2.2h-.6v-2.2c0-.4 0-.5-.1-.7-.1-.2-.3-.3-.6-.3-.5 0-.9.4-.9 1v2.2h-.6v-3.7h.6zM523 152.3v.4h-2l1.2-1.6c.3-.5.4-.6.4-.8 0-.3-.2-.4-.5-.4s-.5.2-.5.6h-.4c0-.6.4-1 1-1s1 .3 1 .8-.1.5-.4.9l-.8 1.1h1.1z"/></g><g><path d="M516.7 273.6v.6h-3.8l3-4.8h-2.7v-.6h3.8l-3 4.8h2.7zM518.5 269.5c0 .2-.2.4-.4.4s-.4-.2-.4-.4.2-.4.4-.4.4.2.4.4zm0 4.7h-.6v-3.7h.6v3.7zM520.4 270.5v.5c.3-.4.6-.6 1-.6s.8.2 1 .7c.3-.5.6-.7 1.2-.7s.7.1.9.4c.2.2.2.4.2 1v2.4h-.6V272c0-.4 0-.6-.1-.7-.1-.2-.4-.3-.6-.3-.5 0-.8.4-.8 1v2.2h-.6V272c0-.4 0-.5-.1-.7-.1-.2-.3-.3-.6-.3-.5 0-.9.4-.9 1v2.2h-.6v-3.7h.6zM526.7 270.5v.5c.3-.4.6-.6 1-.6s.8.2 1 .7c.3-.5.6-.7 1.2-.7s.7.1.9.4c.2.2.2.4.2 1v2.4h-.6V272c0-.4 0-.6-.1-.7-.1-.2-.4-.3-.6-.3-.5 0-.8.4-.8 1v2.2h-.6V272c0-.4 0-.5-.1-.7-.1-.2-.3-.3-.6-.3-.5 0-.9.4-.9 1v2.2h-.6v-3.7h.6zM532.8 272.5c0 .3 0 .5.2.7.2.3.6.5 1 .5s.9-.2 1.1-.6l.5.2c-.3.6-.9 1-1.6 1-1.1 0-1.9-.8-1.9-1.9s.8-1.9 1.9-1.9 1.9.8 1.9 1.9v.2h-3.1zm2.4-.4c0-.3 0-.4-.2-.6-.2-.3-.6-.5-1-.5s-.8.2-1 .5c-.1.2-.2.3-.2.6h2.4zM537.5 270.5v.6c.1-.3.2-.4.3-.5.2-.1.4-.2.7-.2h.1v.6h-.2c-.3 0-.6.2-.8.4-.2.2-.2.4-.2.9v1.9h-.6v-3.7h.6zM513.6 279.6v-.6l1.8-1.2v5.4h-.6v-4.4l-1.2.8zM518.2 280.1c.2 0 .3-.1.5-.1.9 0 1.6.7 1.6 1.6s-.8 1.7-1.7 1.7-1.7-.8-1.7-1.7.1-.7.4-1.2l1.5-2.5h.7l-1.4 2.1zm-.7 1.5c0 .6.5 1.1 1.1 1.1s1.1-.5 1.1-1.1-.5-1.1-1.1-1.1-1.1.5-1.1 1.1zM522.1 282.8c0 .2-.2.4-.4.4s-.4-.2-.4-.4.2-.4.4-.4.4.2.4.4zM523.1 282v-.5l2.8-3.7v3.6h.6v.6h-.6v1.2h-.6V282h-2.1zm2.1-2.6l-1.5 2h1.5v-2zM530.5 279.5v.5c.3-.4.6-.6 1-.6s.8.2 1 .7c.3-.5.6-.7 1.2-.7s.7.1.9.4c.2.2.2.4.2 1v2.4h-.6V281c0-.4 0-.6-.1-.7-.1-.2-.4-.3-.6-.3-.5 0-.8.4-.8 1v2.2h-.6V281c0-.4 0-.5-.1-.7-.1-.2-.3-.3-.6-.3-.5 0-.9.4-.9 1v2.2h-.6v-3.7h.6zM538.1 280.7v.4h-2l1.2-1.6c.3-.5.4-.6.4-.8 0-.3-.2-.4-.5-.4s-.5.2-.5.6h-.4c0-.6.4-1 1-1s1 .3 1 .8-.1.5-.4.9l-.8 1.1h1.1z"/></g><g><path d="M446.8 70.9c1.1 0 1.7.5 1.7 1.4s-.1.6-.3.9c-.1.2-.3.2-.5.3.3 0 .4.1.6.2.3.2.4.6.4 1s-.2.9-.6 1.2c-.3.2-.7.3-1.3.3h-1.5v-5.3h1.5zm-.8 2.4h.7c.4 0 .7 0 .9-.2.2-.2.3-.4.3-.7s-.2-.6-.4-.8c-.2 0-.4-.1-.9-.1h-.6v1.8zm0 2.4h.7c.6 0 .8 0 1-.2.3-.1.4-.4.4-.8 0-.6-.4-.9-1.2-.9h-.8v1.8zM452.7 72.5h.6v3.7h-.6v-.7c-.4.6-.8.8-1.3.8-1 0-1.7-.8-1.7-1.9s.7-1.9 1.8-1.9 1 .2 1.3.7v-.6zm-2.1.9c-.2.3-.3.6-.3 1 0 .8.5 1.4 1.2 1.4s1.3-.6 1.3-1.4-.5-1.4-1.2-1.4-.7.1-.9.4zM457.5 70.9h.6v5.3h-.6v-.6c-.4.5-.8.7-1.3.7-1 0-1.7-.8-1.7-1.9s.7-2 1.7-2 1 .2 1.3.6v-2.2zm-2.4 3.5c0 .8.5 1.4 1.2 1.4s1.2-.6 1.2-1.4-.5-1.4-1.2-1.4-1.2.6-1.2 1.4zM445 84v-.5l2.8-3.7v3.6h.6v.6h-.6v1.2h-.6V84h-2.1zm2.1-2.6l-1.5 2h1.5v-2zM450.1 84.9c0 .2-.2.4-.4.4s-.4-.2-.4-.4.2-.4.4-.4.4.2.4.4zM451.4 80.6V80h3l-2.1 5.3h-.7l1.9-4.7h-2zM458.5 81.5v.5c.3-.4.6-.6 1-.6s.8.2 1 .7c.3-.5.6-.7 1.2-.7s.7.1.9.4c.2.2.2.4.2 1v2.4h-.6V83c0-.4 0-.6-.1-.7-.1-.2-.4-.3-.6-.3-.5 0-.8.4-.8 1v2.2h-.6V83c0-.4 0-.5-.1-.7-.1-.2-.3-.3-.6-.3-.5 0-.9.4-.9 1v2.2h-.6v-3.7h.6zM466.1 82.7v.4h-2l1.2-1.6c.3-.5.4-.6.4-.8 0-.3-.2-.4-.5-.4s-.5.2-.5.6h-.4c0-.6.4-1 1-1s1 .3 1 .8-.1.5-.4.9l-.8 1.1h1.1z"/></g><g><path d="M402.3 310.3h-.7V305h.7v2.5l2.1-2.5h.8l-2.2 2.6 2.2 2.7h-.9l-2-2.5v2.5zM409.3 308.5c0 1.1-.8 1.9-1.9 1.9s-1.9-.8-1.9-1.9.8-1.9 1.9-1.9 1.9.8 1.9 1.9zm-3.1 0c0 .8.5 1.4 1.3 1.4s1.2-.6 1.2-1.4-.5-1.4-1.2-1.4-1.3.6-1.3 1.4zM413.3 309.9c-.4.4-.8.5-1.4.5-1.1 0-1.8-.8-1.8-1.9s.8-1.9 1.8-1.9 1 .2 1.3.6l-.4.4c-.3-.3-.6-.4-.9-.4-.7 0-1.2.6-1.2 1.4s.5 1.4 1.2 1.4.6-.1.9-.4l.4.4zM414.9 307.1c.3-.4.7-.6 1.1-.6s.7.1.9.3c.2.2.3.5.3 1v2.5h-.6v-2.4c0-.5-.2-.8-.7-.8s-.5.1-.7.3c-.2.2-.2.4-.2.7v2.2h-.6V305h.6v2.2zM418.9 308.7c0 .3 0 .5.2.7.2.3.6.5 1 .5s.9-.2 1.1-.6l.5.2c-.3.6-.9 1-1.6 1-1.1 0-1.9-.8-1.9-1.9s.8-1.9 1.9-1.9 1.9.8 1.9 1.9v.2h-3.1zm2.4-.4c0-.3 0-.4-.2-.6-.2-.3-.6-.5-1-.5s-.8.2-1 .5c-.1.2-.2.3-.2.6h2.4zM423.6 306.6v.5c.3-.4.6-.6 1.1-.6s.6.1.9.3c.2.2.3.5.3 1v2.5h-.6v-2.4c0-.3 0-.5-.1-.6-.1-.2-.3-.2-.6-.2s-.5.1-.7.3c-.2.2-.2.4-.2.7v2.2h-.6v-3.7h.6zM401.9 315.7v-.6l1.8-1.2v5.4h-.6v-4.4l-1.2.8zM408.5 317.7c0 .6-.1 1-.4 1.2-.3.3-.7.4-1.2.4s-1-.2-1.2-.5c-.3-.3-.4-.6-.4-1.4v-1.8c0-.7 0-1 .3-1.3.3-.3.7-.5 1.2-.5s.9.1 1.2.4c.3.3.4.6.4 1.2v2.1zm-2.5-.1c0 .6 0 .7.2.9.2.2.5.3.8.3s.6-.1.8-.4c.1-.2.2-.4.2-.8v-2c0-.4 0-.6-.3-.8-.2-.2-.4-.2-.7-.2s-.6.1-.8.4c-.1.2-.2.4-.2.8v1.8zM410.5 319c0 .2-.2.4-.4.4s-.4-.2-.4-.4.2-.4.4-.4.4.2.4.4zM414.8 317.7c0 .6-.1 1-.4 1.2-.3.3-.7.4-1.2.4s-1-.2-1.2-.5c-.3-.3-.4-.6-.4-1.4v-1.8c0-.7 0-1 .3-1.3.3-.3.7-.5 1.2-.5s.9.1 1.2.4c.3.3.4.6.4 1.2v2.1zm-2.5-.1c0 .6 0 .7.2.9.2.2.5.3.8.3s.6-.1.8-.4c.1-.2.2-.4.2-.8v-2c0-.4 0-.6-.3-.8-.2-.2-.4-.2-.7-.2s-.6.1-.8.4c-.1.2-.2.4-.2.8v1.8zM418.1 315.6v.5c.3-.4.6-.6 1-.6s.8.2 1 .7c.3-.5.6-.7 1.2-.7s.7.1.9.4c.2.2.2.4.2 1v2.4h-.6v-2.2c0-.4 0-.6-.1-.7-.1-.2-.4-.3-.6-.3-.5 0-.8.4-.8 1v2.2h-.6v-2.2c0-.4 0-.5-.1-.7-.1-.2-.3-.3-.6-.3-.5 0-.9.4-.9 1v2.2h-.6v-3.7h.6zM425.7 316.8v.4h-2l1.2-1.6c.3-.5.4-.6.4-.8 0-.3-.2-.4-.5-.4s-.5.2-.5.6h-.4c0-.6.4-1 1-1s1 .3 1 .8-.1.5-.4.9l-.8 1.1h1.1z"/></g></g></svg>