<svg xmlns="http://www.w3.org/2000/svg" viewBox="0 0 429.8 389.3"><defs><style>.cls-1,.cls-2{stroke:#646464}.cls-1,.cls-10,.cls-11,.cls-12,.cls-13,.cls-14,.cls-2,.cls-3,.cls-4,.cls-5,.cls-6,.cls-7,.cls-8,.cls-9{fill:none}.cls-1,.cls-10,.cls-11,.cls-12,.cls-14,.cls-2,.cls-3,.cls-4,.cls-6,.cls-7,.cls-8,.cls-9{stroke-width:.1px}.cls-1,.cls-10,.cls-11,.cls-12,.cls-13,.cls-14,.cls-4,.cls-5,.cls-6,.cls-7,.cls-8,.cls-9{stroke-linecap:round;stroke-linejoin:round}.cls-2,.cls-3{stroke-miterlimit:10}.cls-13,.cls-3{stroke:#194164}.cls-15,.cls-16{fill:#fff}.cls-10,.cls-11,.cls-12,.cls-14,.cls-4,.cls-6,.cls-7,.cls-8,.cls-9{stroke:#969696}.cls-10,.cls-11,.cls-14,.cls-4,.cls-6,.cls-7,.cls-8,.cls-9{stroke-dasharray:0 0 1.4 1.4}.cls-5{stroke:#000;stroke-width:.3px}.cls-6{stroke-dashoffset:1.1px}.cls-7{stroke-dashoffset:2.4px}.cls-8{stroke-dashoffset:2.7px}.cls-9{stroke-dashoffset:1.4px}.cls-10{stroke-dashoffset:.7px}.cls-16,.cls-17{fill-rule:evenodd}.cls-11{stroke-dashoffset:2.3px}.cls-13{stroke-width:.3px}.cls-14{stroke-dashoffset:1.2px}</style></defs><g id="Plan"><path class="cls-17" d="M240.1 10.5h-5.7v5.7h39.8V6.6H244l-3.4 3.4h-.5v.5"/><path class="cls-16" d="M274.2 6.6H244l-3.4 3.4h33.6V6.6"/><path class="cls-12" d="M242.1 8.5l1.4 1.5M244.2 6.6l3.4 3.4M248.3 6.6l3.4 3.4M252.1 6.6l3.4 3.4M256.2 6.6l3.4 3.4M260.3 6.6l3.4 3.4M264.4 6.6l3.3 3.4M268.2 6.6l3.4 3.4M272.3 6.6l2.2 2.2"/><path class="cls-16" d="M274.2 10h-34.1v.5h34.1V10M274.2 10.5h-39.8v5.7h39.8v-5.7"/><path class="cls-12" d="M273.7 16.2v-5.7M272.3 16.2v-5.7M270.9 16.2v-5.7M269.4 16.2v-5.7M268 16.2v-5.7M266.5 16.2v-5.7M265.3 16.2v-5.7M263.9 16.2v-5.7M262.5 16.2v-5.7M261 16.2v-5.7M259.6 16.2v-5.7M258.1 16.2v-5.7M256.7 16.2v-5.7M255.3 16.2v-5.7M253.8 16.2v-5.7M252.4 16.2v-5.7M251.2 16.2v-5.7M249.7 16.2v-5.7M248.3 16.2v-5.7M246.9 16.2v-5.7M245.4 16.2v-5.7M244 16.2v-5.7M242.5 16.2v-5.7M241.1 16.2v-5.7M239.7 16.2v-5.7M238.2 16.2v-5.7M236.8 16.2v-5.7M235.6 16.2v-5.7"/><path class="cls-13" d="M240.6 10h33.6M244 6.6h30.2"/><path class="cls-12" d="M234.4 16.2h39.8M240.1 10.5h34.1"/><path class="cls-3" d="M244 6.6h30.2M234.4 16.2h39.8"/><path class="cls-12" d="M234.4 10.5h5.7M234.4 10.5v5.7"/><path class="cls-3" d="M229.3 16.2h5.1"/><path class="cls-17" d="M240.6 10l3.4-3.4V.1h-14.7v16.1h5.1v-5.7h5.7V10h.5"/><path class="cls-16" d="M240.6 10l3.4-3.4V.1h-3.4V10"/><path class="cls-12" d="M240.9 7.1l1.2 1.4M240.9 3l3.3 3.4M241.8.1l2.4 2.4"/><path class="cls-16" d="M240.1 10h.5V.1h-.5V10M234.4 10.5h5.7V.1h-5.7v10.4"/><path class="cls-12" d="M234.6 9.3h5.8M234.6 7.8h5.8M234.6 6.4h5.8M234.6 4.9h5.8M234.6 3.5h5.8M234.6 2.1h5.8M234.6.6h5.8"/><path class="cls-16" d="M234.4.1h-5.1v16.1h5.1V.1"/><path class="cls-12" d="M229.6 16l.2.2M229.6 11.9l4.3 4.3M229.6 7.8l5 5.1M229.6 4l5 5M229.8.1l4.8 4.8M233.7.1l.9.8"/><path class="cls-13" d="M240.6.1V10M244 .1v6.5"/><path class="cls-12" d="M234.4.1v10.4M240.1.1V10"/><path class="cls-13" d="M229.3.1v16.1M234.4.1v10.4"/><path class="cls-3" d="M244 .1v6.5M229.3.1v16.1"/><path class="cls-12" d="M240.1 10v.5M240.1 10.5h-5.7"/><path class="cls-13" d="M234.4 10.5v5.7M234.4 16.2h-5.1M15 24.1h39.6v29.8H15z"/><path class="cls-3" d="M63.7 55.6V20.3M60.6 37.3v14M57.7 24.6v13.9"/><path class="cls-16" d="M62.3 21h5.5l-5.5-6.7V21"/><path class="cls-12" d="M66.1 21l-3.6-3.8M66.9 21l.4-.5M62.8 21l2.9-2.9M62.5 17.4l1.2-1.4"/><path class="cls-16" d="M62.3 21h5.5l-5.5-6.7V21"/><path class="cls-12" d="M66.1 21l-3.6-3.8M66.9 21l.4-.5M62.8 21l2.9-2.9M62.5 17.4l1.2-1.4"/><path class="cls-13" d="M62.3 14.3V21M62.3 14.3V21"/><path class="cls-3" d="M63.7 24.1v29.6M68.1 24.1v29.6M68.1 53.2v.5"/><path class="cls-16" d="M68.1 21v3.1h-4.4V21"/><path class="cls-12" d="M68.3 22.9L66.1 21M65.4 24.1L64 22.7M67.8 24.1l.5-.4M64 23.9l2.9-2.9"/><path class="cls-16" d="M68.1 56.8v-3.1h-4.4v3.1"/><path class="cls-12" d="M68.3 55.1l-1.4-1.4M65.9 56.8L64 54.9M67.1 56.8l1.2-1M64 56.1l2.4-2.4"/><path class="cls-13" d="M68.1 24.1h-4.4M68.1 53.7h-4.4M68.1 24.1h-4.4M68.1 21v3.1M68.1 53.7h-4.4M68.1 56.8v-3.1M62.3 21h1.4M62.3 56.8h1.4M68.1 21v3.1M68.1 56.8v-3.1M63.7 24.1V21M63.7 53.7v3.1"/><path class="cls-16" d="M61.1 105l7-7.2v-41l-7 6.9V105"/><path class="cls-12" d="M68.3 59.2L67.1 58M68.3 63l-3.4-3.1M68.3 67.1L63 61.8M68.3 71.2l-7-7M68.3 75l-7-6.9M68.3 79.1l-7-7M68.3 83.2l-7-7M68.3 87l-7-6.9M68.3 91.1l-7-7M68.3 95.2l-7-7M67.6 98.5l-6.3-6.2M65.7 100.5l-4.4-4.4M63.5 102.6l-2.2-2.4M61.6 104.5l-.3-.2M61.3 102.9l7-7M61.3 98.8l7-7M61.3 94.7l7-7M61.3 90.9l7-7M61.3 86.8l7-7M61.3 82.7l7-7M61.3 78.9l7-7M61.3 74.8l7-7M61.3 70.7l7-7M61.3 66.9l7-7"/><path class="cls-16" d="M61.1 105l7-7.2v-41l-7 6.9V105"/><path class="cls-12" d="M68.3 59.2L67.1 58M68.3 63l-3.4-3.1M68.3 67.1L63 61.8M68.3 71.2l-7-7M68.3 75l-7-6.9M68.3 79.1l-7-7M68.3 83.2l-7-7M68.3 87l-7-6.9M68.3 91.1l-7-7M68.3 95.2l-7-7M67.6 98.5l-6.3-6.2M65.7 100.5l-4.4-4.4M63.5 102.6l-2.2-2.4M61.6 104.5l-.3-.2M61.3 102.9l7-7M61.3 98.8l7-7M61.3 94.7l7-7M61.3 90.9l7-7M61.3 86.8l7-7M61.3 82.7l7-7M61.3 78.9l7-7M61.3 74.8l7-7M61.3 70.7l7-7M61.3 66.9l7-7"/><path class="cls-13" d="M61.1 63.7V105M68.1 56.8v41M68.1 56.8v41M61.1 63.7V105"/><path class="cls-16" d="M298.3 70.8c.9 1.3.9 3 0 4.3-1.5 1.9-3.8 2.9-6.2 2.9l-9-.3v-9.6l9-.3c2.4 0 4.7 1 6.2 2.9"/><path class="cls-3" d="M298.3 70.8c.9 1.3.9 3 0 4.3-1.5 1.9-3.8 2.9-6.2 2.9l-9-.3v-9.6l9-.3c2.4 0 4.7 1 6.2 2.9"/><path class="cls-16" d="M288.1 72.9c0-1 .3-2 1.1-2.8.7-.7 1.7-1.2 2.7-1.2 2.1 0 4.1.9 5.4 2.5.6.9.6 2 0 2.9-1.3 1.6-3.3 2.5-5.4 2.5-1 0-2-.4-2.7-1.2-.7-.7-1.1-1.8-1.1-2.8"/><path class="cls-3" d="M288.1 72.9c0-1 .3-2 1.1-2.8.7-.7 1.7-1.2 2.7-1.2 2.1 0 4.1.9 5.4 2.5.6.9.6 2 0 2.9-1.3 1.6-3.3 2.5-5.4 2.5-1 0-2-.4-2.7-1.2-.7-.7-1.1-1.8-1.1-2.8"/><path class="cls-16" d="M283.5 21.6h48.1v.1h.1v.2h.1v20.6l-.1.1v.1l-.1.1H283.2l-.1-.1v-.1l-.1-.1V21.9h.1v-.2h.1l.1-.1h.2"/><path class="cls-3" d="M283.5 21.6h48.1v.1h.1v.2h.1v20.6l-.1.1v.1l-.1.1H283.2l-.1-.1v-.1l-.1-.1V21.9h.1v-.2h.1l.1-.1h.2"/><path class="cls-16" d="M288.7 23.7h37.4c.4 0 .9 0 1.3.3.4.2.8.4 1.1.7.3.3.6.7.7 1.1.2.4.3.9.3 1.3v10.2c0 .4 0 .9-.3 1.3-.2.4-.4.8-.7 1.1-.3.3-.7.6-1.1.7-.4.2-.9.3-1.3.3h-37.4c-.4 0-.9 0-1.3-.3-.4-.2-.8-.4-1.1-.7-.3-.3-.6-.7-.7-1.1-.2-.4-.3-.9-.3-1.3V27.1c0-.4 0-.9.3-1.3.2-.4.4-.8.7-1.1.3-.3.7-.6 1.1-.7.4-.2.9-.3 1.3-.3"/><path class="cls-3" d="M288.7 23.7h37.4c.4 0 .9 0 1.3.3.4.2.8.4 1.1.7.3.3.6.7.7 1.1.2.4.3.9.3 1.3v10.2c0 .4 0 .9-.3 1.3-.2.4-.4.8-.7 1.1-.3.3-.7.6-1.1.7-.4.2-.9.3-1.3.3h-37.4c-.4 0-.9 0-1.3-.3-.4-.2-.8-.4-1.1-.7-.3-.3-.6-.7-.7-1.1-.2-.4-.3-.9-.3-1.3V27.1c0-.4 0-.9.3-1.3.2-.4.4-.8.7-1.1.3-.3.7-.6 1.1-.7.4-.2.9-.3 1.3-.3M282.4 100.7V64.5"/><path class="cls-5" d="M283.1 100.7v-37"/><path class="cls-3" d="M280.9 100.7V65.9M282.4 100.7V64.5M283.1 100.7v-37M280.9 100.7V65.9M278.5 64.5V46"/><path class="cls-5" d="M279.3 63.7v-17"/><path class="cls-3" d="M277.1 65.9V44.5M278.5 64.5V46M279.3 63.7v-17M277.1 65.9V44.5M282.4 46V21.3"/><path class="cls-5" d="M283.1 46.7V21.3"/><path class="cls-3" d="M280.9 44.5V21.3M282.4 46V21.3M283.1 46.7V21.3M280.9 44.5V21.3"/><path class="cls-16" d="M283 47.4h12.4c.1 0 .3.1.4.2.1.1.2.2.2.4V62.1c0 .1-.1.3-.2.4-.1.1-.2.2-.4.2H283V47.1"/><path class="cls-3" d="M283 47.4h12.4c.1 0 .3.1.4.2.1.1.2.2.2.4V62.1c0 .1-.1.3-.2.4-.1.1-.2.2-.4.2H283V47.1M283.1 63.7h-3.8M279.3 63.7v-17M279.3 46.7h3.8M278.5 46h3.9"/><path class="cls-5" d="M279.3 46.7h3.8"/><path class="cls-3" d="M277.1 44.5h3.8M278.5 46h3.9M279.3 46.7h3.8M277.1 44.5h3.8M282.4 64.5h-3.9"/><path class="cls-5" d="M283.1 63.7h-3.8"/><path class="cls-3" d="M280.9 65.9h-3.8M282.4 64.5h-3.9M283.1 63.7h-3.8M280.9 65.9h-3.8"/><path class="cls-5" d="M283.1 63.7v-17"/><path class="cls-3" d="M233.2 253.1h17.5v79h-17.5zM248.5 330.9h2.2M248.5 322.5h2.2M248.5 305.4h2.2M248.5 288.4h2.2M248.5 271.3h2.2"/><path class="cls-16" d="M238.4 272.2h8.9c.3 0 .5 0 .8.2.2 0 .5.2.6.4.2.2.3.4.4.6 0 .2.1.5.1.8v11.2c0 .3 0 .5-.1.8-.1.2-.2.5-.4.6-.2.2-.4.3-.6.4-.2 0-.5.2-.8.2h-8.9c-.3 0-.5 0-.8-.2-.2-.1-.5-.2-.6-.4-.2-.2-.3-.4-.4-.6 0-.2-.2-.5-.2-.8v-11.2c0-.3 0-.5.2-.8.1-.2.2-.5.4-.6.2-.2.4-.3.6-.4.2-.1.5-.2.8-.2"/><path class="cls-3" d="M238.4 272.2h8.9c.3 0 .5 0 .8.2.2 0 .5.2.6.4.2.2.3.4.4.6 0 .2.1.5.1.8v11.2c0 .3 0 .5-.1.8-.1.2-.2.5-.4.6-.2.2-.4.3-.6.4-.2 0-.5.2-.8.2h-8.9c-.3 0-.5 0-.8-.2-.2-.1-.5-.2-.6-.4-.2-.2-.3-.4-.4-.6 0-.2-.2-.5-.2-.8v-11.2c0-.3 0-.5.2-.8.1-.2.2-.5.4-.6.2-.2.4-.3.6-.4.2-.1.5-.2.8-.2"/><path class="cls-16" d="M240.9 279.9c0-.6-.5-1.1-1.2-1.1s-1.2.5-1.2 1.1.5 1.1 1.2 1.1 1.2-.5 1.2-1.1"/><path class="cls-3" d="M240.9 279.9c0-.6-.5-1.1-1.2-1.1s-1.2.5-1.2 1.1.5 1.1 1.2 1.1 1.2-.5 1.2-1.1"/><path class="cls-15" d="M234.6 305.9h14.6v15.8h-14.6z"/><path class="cls-3" d="M234.6 305.9h14.6v15.8h-14.6z"/><path class="cls-16" d="M247.3 317.9c0-1.6-1.2-2.9-2.8-2.9s-2.8 1.3-2.8 2.9 1.2 2.9 2.8 2.9 2.8-1.3 2.8-2.9"/><path class="cls-3" d="M247.3 317.9c0-1.6-1.2-2.9-2.8-2.9s-2.8 1.3-2.8 2.9 1.2 2.9 2.8 2.9 2.8-1.3 2.8-2.9"/><path class="cls-16" d="M239.9 318.9c0-1.2-1-2.2-2.2-2.2s-2.2 1-2.2 2.2 1 2.2 2.2 2.2 2.2-1 2.2-2.2"/><path class="cls-3" d="M239.9 318.9c0-1.2-1-2.2-2.2-2.2s-2.2 1-2.2 2.2 1 2.2 2.2 2.2 2.2-1 2.2-2.2"/><path class="cls-16" d="M246.9 310.2c0-1.2-1-2.2-2.3-2.2s-2.3 1-2.3 2.2 1 2.2 2.3 2.2 2.3-1 2.3-2.2"/><path class="cls-3" d="M246.9 310.2c0-1.2-1-2.2-2.3-2.2s-2.3 1-2.3 2.2 1 2.2 2.3 2.2 2.3-1 2.3-2.2"/><path class="cls-16" d="M241.1 310.6c0-1.5-1.3-2.8-2.9-2.8s-2.9 1.2-2.9 2.8 1.3 2.8 2.9 2.8 2.9-1.2 2.9-2.8"/><path class="cls-3" d="M241.1 310.6c0-1.5-1.3-2.8-2.9-2.8s-2.9 1.2-2.9 2.8 1.3 2.8 2.9 2.8 2.9-1.2 2.9-2.8M243.3 253.1v79M248.5 254.3h2.2"/><path class="cls-17" d="M250.7 332.1v14.6h-27.4v-14.6h27.4"/><path class="cls-16" d="M250.7 346.7v-3.4h-27.4v3.4h27.4"/><path class="cls-12" d="M224.1 343.3l3.3 3.4M228.1 343.3l3.4 3.4M232.2 343.3l3.4 3.4M236.3 343.3l3.4 3.4M240.1 343.3l3.4 3.4M244.2 343.3l3.4 3.4M248.3 343.3l2.6 2.7"/><path class="cls-16" d="M250.7 343.3v-.4h-27.4v.4h27.4M250.7 342.9v-5.8h-27.4v5.8h27.4"/><path class="cls-12" d="M224.1 337.1v5.8M225.5 337.1v5.8M226.9 337.1v5.8M228.4 337.1v5.8M229.8 337.1v5.8M231.3 337.1v5.8M232.7 337.1v5.8M234.1 337.1v5.8M235.6 337.1v5.8M236.8 337.1v5.8M238.2 337.1v5.8M239.7 337.1v5.8M241.1 337.1v5.8M242.5 337.1v5.8M244 337.1v5.8M245.4 337.1v5.8M246.9 337.1v5.8M248.3 337.1v5.8M249.7 337.1v5.8"/><path class="cls-16" d="M250.7 337.1v-5h-27.4v5h27.4"/><path class="cls-12" d="M223.6 334.7l2.4 2.4M225 332.1l5.1 5M228.9 332.1l5 5M232.9 332.1l5.1 5M237 332.1l5.1 5M240.9 332.1l5 5M244.9 332.1l5.1 5M249 332.1l1.9 1.9"/><path class="cls-13" d="M250.7 343.3h-27.4M250.7 346.7h-27.4"/><path class="cls-12" d="M250.7 337.1h-27.4M250.7 342.9h-27.4"/><path class="cls-13" d="M250.7 332.1h-27.4M250.7 337.1h-27.4"/><path class="cls-3" d="M250.7 346.7h-27.4M250.7 332.1h-27.4"/><path class="cls-17" d="M364.9 332.1v14.6h-51.3v-14.6h51.3"/><path class="cls-16" d="M364.9 346.7v-3.4h-51.3v3.4h51.3"/><path class="cls-12" d="M313.8 344.8l1.9 1.9M316.5 343.3l3.3 3.4M320.3 343.3l3.4 3.4M324.4 343.3l3.3 3.4M328.5 343.3l3.3 3.4M332.3 343.3l3.4 3.4M336.4 343.3l3.3 3.4M340.5 343.3l3.3 3.4M344.5 343.3l3.4 3.4M348.4 343.3l3.3 3.4M352.5 343.3l3.3 3.4M356.5 343.3l3.4 3.4M360.4 343.3l3.3 3.4M364.5 343.3l.7.5"/><path class="cls-16" d="M364.9 343.3v-.4h-51.3v.4h51.3M364.9 342.9v-5.8h-51.3v5.8h51.3"/><path class="cls-12" d="M314.8 337.1v5.8M316.2 337.1v5.8M317.7 337.1v5.8M319.1 337.1v5.8M320.5 337.1v5.8M322 337.1v5.8M323.4 337.1v5.8M324.9 337.1v5.8M326.3 337.1v5.8M327.5 337.1v5.8M328.9 337.1v5.8M330.4 337.1v5.8M331.8 337.1v5.8M333.3 337.1v5.8M334.7 337.1v5.8M336.1 337.1v5.8M337.6 337.1v5.8M339 337.1v5.8M340.5 337.1v5.8M341.7 337.1v5.8M343.1 337.1v5.8M344.5 337.1v5.8M346 337.1v5.8M347.4 337.1v5.8M348.9 337.1v5.8M350.3 337.1v5.8M351.7 337.1v5.8M353.2 337.1v5.8M354.6 337.1v5.8M356.1 337.1v5.8M357.3 337.1v5.8M358.7 337.1v5.8M360.1 337.1v5.8M361.6 337.1v5.8M363 337.1v5.8M364.5 337.1v5.8"/><path class="cls-16" d="M364.9 337.1v-5h-51.3v5h51.3"/><path class="cls-12" d="M313.8 336.6l.3.5M313.8 332.5l4.3 4.6M317.2 332.1l5 5M321 332.1l5.1 5M325.1 332.1l5 5M329.2 332.1l5 5M333.3 332.1l5 5M337.1 332.1l5 5M341.2 332.1l5 5M345.3 332.1l5 5M349.1 332.1l5 5M353.2 332.1l5 5M357.3 332.1l5 5M361.1 332.1l4.1 3.8"/><path class="cls-13" d="M364.9 343.3h-51.3M364.9 346.7h-51.3"/><path class="cls-12" d="M364.9 337.1h-51.3M364.9 342.9h-51.3"/><path class="cls-13" d="M364.9 332.1h-51.3M364.9 337.1h-51.3"/><path class="cls-3" d="M364.9 346.7h-51.3M364.9 332.1h-51.3"/><path class="cls-17" d="M429.5 332.1v14.6h-23.8v-14.6h23.8"/><path class="cls-16" d="M429.5 346.7v-3.4h-23.8v3.4h23.8"/><path class="cls-12" d="M406 344.5l1.9 2.2M408.6 343.3l3.4 3.4M412.7 343.3l3.4 3.4M416.5 343.3l3.4 3.4M420.6 343.3l3.4 3.4M424.7 343.3l3.4 3.4M428.5 343.3l1.2 1"/><path class="cls-16" d="M429.5 343.3v-.4h-23.8v.4h23.8M429.5 342.9v-5.8h-23.8v5.8h23.8"/><path class="cls-12" d="M406.9 337.1v5.8M408.4 337.1v5.8M409.8 337.1v5.8M411.3 337.1v5.8M412.7 337.1v5.8M414.1 337.1v5.8M415.6 337.1v5.8M416.8 337.1v5.8M418.2 337.1v5.8M419.7 337.1v5.8M421.1 337.1v5.8M422.5 337.1v5.8M424 337.1v5.8M425.4 337.1v5.8M426.9 337.1v5.8M428.3 337.1v5.8"/><path class="cls-16" d="M429.5 337.1v-5h-23.8v5h23.8"/><path class="cls-12" d="M406 336.6l.5.5M406 332.5l4.3 4.6M409.3 332.1l5.1 5M413.4 332.1l5.1 5M417.3 332.1l5 5M421.3 332.1l5.1 5M425.4 332.1l4.3 4.3M429.3 332.1l.4.2"/><path class="cls-13" d="M429.5 343.3h-23.8M429.5 346.7h-23.8"/><path class="cls-12" d="M429.5 337.1h-23.8M429.5 342.9h-23.8"/><path class="cls-13" d="M429.5 332.1h-23.8M429.5 337.1h-23.8"/><path class="cls-3" d="M429.5 346.7h-23.8M429.5 332.1h-23.8M403.8 339.3v7.4h3.6v1.9h-43.9v-1.9h3.4v-7.4M405.7 332.1h-40.8M365.4 332.1h-.5"/><path class="cls-13" d="M403.8 346.7h3.6M366.9 346.7h-3.4"/><path class="cls-3" d="M364.9 337.1h40.8v2.2h-40.8zM402.1 339.3v-2.2M368.5 339.3v-2.2M405.7 337.1v2.2M387.5 337.1v2.2M402.1 337.1v2.2M383.2 337.1v2.2M387.5 337.1v2.2M368.5 337.1v2.2M383.2 337.1v2.2M364.9 337.1v2.2"/><path class="cls-16" d="M405.8 342.8h-1.9v-3.4h1.9"/><path class="cls-12" d="M404.1 339.3v3.6M405.5 339.3v3.6M405.8 342.8h-1.9v-3.4h1.9"/><path class="cls-13" d="M405.7 337.1v-5"/><path class="cls-16" d="M405.7 346.7h-1.9v-3.4h1.9"/><path class="cls-12" d="M404.5 343.3l1.5 1.2"/><path class="cls-13" d="M405.7 346.7h-1.9v-3.4h1.9M403.8 343.3v-4"/><path class="cls-16" d="M364.9 342.8h1.9v-3.4h-1.9"/><path class="cls-12" d="M365.9 339.3v3.6M364.9 342.8h1.9v-3.4h-1.9"/><path class="cls-13" d="M364.9 337.1v-5"/><path class="cls-16" d="M364.9 346.7h2v-3.4h-2"/><path class="cls-12" d="M365.2 343.8l1.9 1.9"/><path class="cls-13" d="M364.9 346.7h2v-3.4h-2M366.9 343.3v-4"/><path class="cls-3" d="M313.6 332.1h-62.9M250.7 337.1h62.9v2.2h-62.9zM310 339.3v-2.2M254.3 339.3v-2.2M313.6 337.1v2.2M294.6 337.1v2.2M310 337.1v2.2M290.5 337.1v2.2M294.6 337.1v2.2M273.7 337.1v2.2M290.5 337.1v2.2M269.7 337.1v2.2M273.7 337.1v2.2M254.3 337.1v2.2M269.7 337.1v2.2M250.7 337.1v2.2"/><path class="cls-13" d="M313.6 337.1v-5"/><path class="cls-3" d="M249.3 346.7v1.9M249.3 348.6h66M315.3 348.6v-.9"/><path class="cls-16" d="M313.6 342.8h-1.8v-3.4h1.8"/><path class="cls-12" d="M313.3 339.3v3.6M313.6 342.8h-1.8v-3.4h1.8"/><path class="cls-16" d="M313.6 346.7h-1.7v-3.4h1.7"/><path class="cls-12" d="M312.4 343.3l1.4 1.5"/><path class="cls-13" d="M313.6 346.7h-1.7v-3.4h1.7M311.9 343.3v-4"/><path class="cls-16" d="M250.7 342.8h1.9v-3.4h-1.9"/><path class="cls-12" d="M251.2 339.3v3.6M252.4 339.3v3.6M250.7 342.8h1.9v-3.4h-1.9"/><path class="cls-13" d="M250.7 337.1v-5"/><path class="cls-16" d="M250.7 346.7h1.9v-3.4h-1.9"/><path class="cls-12" d="M250.9 346l.8.7M252.1 343.3l.8.5"/><path class="cls-13" d="M250.7 346.7h1.9v-3.4h-1.9M252.6 343.3v-4"/><path class="cls-17" d="M402.1 21.3V6.6h27.4v14.7h-27.4"/><path class="cls-16" d="M402.1 6.6V10h27.4V6.6h-27.4"/><path class="cls-12" d="M402.4 8.3l1.4 1.7M404.5 6.6l3.4 3.4M408.6 6.6L412 10M412.7 6.6l3.4 3.4M416.5 6.6l3.4 3.4M420.6 6.6L424 10M424.7 6.6l3.4 3.4M428.5 6.6l1.2 1"/><path class="cls-16" d="M402.1 10v.5h27.4V10h-27.4M402.1 10.5v5.7h27.4v-5.7h-27.4"/><path class="cls-12" d="M428.3 16.2v-5.7M426.9 16.2v-5.7M425.4 16.2v-5.7M424 16.2v-5.7M422.5 16.2v-5.7M421.1 16.2v-5.7M419.7 16.2v-5.7M418.2 16.2v-5.7M416.8 16.2v-5.7M415.6 16.2v-5.7M414.1 16.2v-5.7M412.7 16.2v-5.7M411.3 16.2v-5.7M409.8 16.2v-5.7M408.4 16.2v-5.7M406.9 16.2v-5.7M405.5 16.2v-5.7M404.1 16.2v-5.7M402.6 16.2v-5.7"/><path class="cls-16" d="M402.1 16.2v5.1h27.4v-5.1h-27.4"/><path class="cls-12" d="M402.4 20.3l.7 1M402.4 16.2l4.8 5.1M406.2 16.2l5.1 5.1M410.1 16.2l5 5.1M414.1 16.2l5.1 5.1M418.2 16.2l5.1 5.1M422.3 16.2l5 5.1M426.1 16.2l3.6 3.4"/><path class="cls-13" d="M402.1 10h27.4M402.1 6.6h27.4"/><path class="cls-12" d="M402.1 16.2h27.4M402.1 10.5h27.4"/><path class="cls-13" d="M402.1 21.3h27.4M402.1 16.2h27.4"/><path class="cls-3" d="M402.1 6.6h27.4M402.1 21.3h27.4"/><path class="cls-17" d="M321 21.3V6.6h40.3v14.7H321"/><path class="cls-16" d="M321 6.6V10h40.3V6.6H321"/><path class="cls-12" d="M321.3 7.3l2.4 2.7M324.4 6.6l3.3 3.4M328.5 6.6l3.3 3.4M332.5 6.6l3.4 3.4M336.4 6.6l3.3 3.4M340.5 6.6l3.3 3.4M344.5 6.6l3.4 3.4M348.4 6.6l3.3 3.4M352.5 6.6l3.3 3.4M356.5 6.6l3.4 3.4M360.4 6.6l1.2 1"/><path class="cls-16" d="M321 10v.5h40.3V10H321M321 10.5v5.7h40.3v-5.7H321"/><path class="cls-12" d="M360.1 16.2v-5.7M358.7 16.2v-5.7M357.3 16.2v-5.7M356.1 16.2v-5.7M354.6 16.2v-5.7M353.2 16.2v-5.7M351.7 16.2v-5.7M350.3 16.2v-5.7M348.9 16.2v-5.7M347.4 16.2v-5.7M346 16.2v-5.7M344.5 16.2v-5.7M343.1 16.2v-5.7M341.7 16.2v-5.7M340.5 16.2v-5.7M339 16.2v-5.7M337.6 16.2v-5.7M336.1 16.2v-5.7M334.7 16.2v-5.7M333.3 16.2v-5.7M331.8 16.2v-5.7M330.4 16.2v-5.7M328.9 16.2v-5.7M327.5 16.2v-5.7M326.3 16.2v-5.7M324.9 16.2v-5.7M323.4 16.2v-5.7M322 16.2v-5.7"/><path class="cls-16" d="M321 16.2v5.1h40.3v-5.1H321"/><path class="cls-12" d="M321.3 19.3l1.6 2M322 16.2l5 5.1M326.1 16.2l5 5.1M329.9 16.2l5 5.1M334 16.2l5 5.1M338.1 16.2l5 5.1M342.1 16.2l5.1 5.1M346 16.2l5 5.1M350.1 16.2l5 5.1M354.1 16.2l5.1 5.1M358 16.2l3.6 3.4"/><path class="cls-13" d="M321 10h40.3M321 6.6h40.3"/><path class="cls-12" d="M321 16.2h40.3M321 10.5h40.3"/><path class="cls-13" d="M321 21.3h40.3M321 16.2h40.3"/><path class="cls-3" d="M321 6.6h40.3M321 21.3h40.3"/><path class="cls-17" d="M274.2 21.3V6.6h28.1v14.7h-28.1"/><path class="cls-16" d="M274.2 6.6V10h28.1V6.6h-28.1"/><path class="cls-12" d="M274.5 8.8l1.2 1.2M276.4 6.6l3.3 3.4M280.2 6.6l3.4 3.4M284.3 6.6l3.4 3.4M288.4 6.6l3.3 3.4M292.5 6.6l3.3 3.4M296.3 6.6l3.4 3.4M300.4 6.6l2.1 2.2"/><path class="cls-16" d="M274.2 10v.5h28.1V10h-28.1M274.2 10.5v5.7h28.1v-5.7h-28.1"/><path class="cls-12" d="M302.1 16.2v-5.7M300.6 16.2v-5.7M299.2 16.2v-5.7M297.7 16.2v-5.7M296.3 16.2v-5.7M295.1 16.2v-5.7M293.7 16.2v-5.7M292.2 16.2v-5.7M290.8 16.2v-5.7M289.3 16.2v-5.7M287.9 16.2v-5.7M286.5 16.2v-5.7M285 16.2v-5.7M283.6 16.2v-5.7M282.1 16.2v-5.7M280.9 16.2v-5.7M279.5 16.2v-5.7M278.1 16.2v-5.7M276.6 16.2v-5.7M275.2 16.2v-5.7"/><path class="cls-16" d="M274.2 16.2v5.1h28.1v-5.1h-28.1"/><path class="cls-12" d="M274.5 20.8l.4.5M274.5 16.7l4.5 4.6M277.8 16.2l5.1 5.1M281.9 16.2l5 5.1M286 16.2l5 5.1M289.8 16.2l5.1 5.1M293.9 16.2l5 5.1M298 16.2l4.5 4.6M302.1 16.2l.4.5"/><path class="cls-13" d="M274.2 10h28.1M274.2 6.6h28.1"/><path class="cls-12" d="M274.2 16.2h28.1M274.2 10.5h28.1"/><path class="cls-13" d="M274.2 21.3h28.1M274.2 16.2h28.1"/><path class="cls-3" d="M274.2 6.6h28.1M274.2 21.3h28.1M363 13.8V6.6h-3.3V4.7h43.9v1.9h-3.4v7.2M361.3 21.3h40.8M401.7 21.3h.4"/><path class="cls-13" d="M363 6.6h-3.3M400.2 6.6h3.4"/><path class="cls-3" d="M361.3 13.8h40.8v2.4h-40.8zM364.9 13.8v2.4M398.3 13.8v2.4M361.3 16.2v-2.4M379.6 16.2v-2.4M364.9 16.2v-2.4M383.7 16.2v-2.4M379.6 16.2v-2.4M398.3 16.2v-2.4M383.7 16.2v-2.4M402.1 16.2v-2.4"/><path class="cls-16" d="M361.3 10.5h1.8v3.4h-1.8"/><path class="cls-12" d="M363 13.8v-3.3M361.6 13.8v-3.3M361.3 10.5h1.8v3.4h-1.8"/><path class="cls-13" d="M361.3 16.2v5.1"/><path class="cls-16" d="M361.3 6.6h1.7V10h-1.7"/><path class="cls-12" d="M361.6 7.6l1.7 1.7"/><path class="cls-13" d="M361.3 6.6h1.7V10h-1.7M363 10v3.8"/><path class="cls-16" d="M402.1 10.5h-1.9v3.4h1.9"/><path class="cls-12" d="M401.2 13.8v-3.3M402.1 10.5h-1.9v3.4h1.9"/><path class="cls-13" d="M402.1 16.2v5.1"/><path class="cls-16" d="M402.1 6.6h-1.9V10h1.9"/><path class="cls-12" d="M400.5 6.6l1.9 1.7"/><path class="cls-13" d="M402.1 6.6h-1.9V10h1.9M400.2 10v3.8"/><path class="cls-3" d="M302.3 16.2v5.1H321v-5.1M304.2 13.8V6.6h-3.3V4.7h21.6v1.9h-3.4v7.2M304.2 6.6h14.9"/><path class="cls-13" d="M304.2 6.6h-3.3M319.1 6.6h3.4"/><path class="cls-3" d="M302.3 13.8H321v2.4h-18.7zM305.9 13.8v2.4M317.4 13.8v2.4M302.3 16.2v-2.4M317.4 16.2v-2.4M305.9 16.2v-2.4M321 16.2v-2.4"/><path class="cls-13" d="M302.3 16.2v5.1"/><path class="cls-3" d="M304.2 10h7.5"/><path class="cls-16" d="M302.3 10.5h1.8v3.4h-1.8"/><path class="cls-12" d="M303.5 13.8v-3.3M302.3 10.5h1.8v3.4h-1.8"/><path class="cls-16" d="M302.3 6.6h1.9V10h-1.9"/><path class="cls-12" d="M302.5 8.8l1.2 1.2"/><path class="cls-13" d="M302.3 6.6h1.9V10h-1.9M304.2 10v3.8M321 16.2v5.1"/><path class="cls-3" d="M319.1 10h-7.4"/><path class="cls-16" d="M321 10.5h-1.8v3.4h1.8"/><path class="cls-12" d="M320.5 13.8v-3.3M321 10.5h-1.8v3.4h1.8"/><path class="cls-16" d="M321 6.6h-1.9V10h1.9"/><path class="cls-12" d="M319.3 9.5l.5.5M320.3 6.6l1 .7"/><path class="cls-13" d="M321 6.6h-1.9V10h1.9M319.1 10v3.8"/><path class="cls-16" d="M429.5 337.1h-7.2V16.2h7.2v320.9"/><path class="cls-12" d="M429.7 19.6l-3.6-3.4M429.7 23.7l-7.2-7.2M429.7 27.7l-7.2-7.2M429.7 31.6l-7.2-7.2M429.7 35.7l-7.2-7.2M429.7 39.7l-7.2-7.2M429.7 43.6l-7.2-7.2M429.7 47.7l-7.2-7.2M429.7 51.7l-7.2-7.2M429.7 55.8l-7.2-7.2M429.7 59.7l-7.2-7.2M429.7 63.7l-7.2-7.2M429.7 67.8l-7.2-7.2M429.7 71.7l-7.2-7.2M429.7 75.7l-7.2-7.2M429.7 79.8l-7.2-7.2M429.7 83.7l-7.2-7.2M429.7 87.7l-7.2-7.2M429.7 91.8l-7.2-7.2M429.7 95.9l-7.2-7.2M429.7 99.7l-7.2-7.2M429.7 103.8l-7.2-7.2M429.7 107.9l-7.2-7.2M429.7 111.7l-7.2-7.2M429.7 115.8l-7.2-7.2M429.7 119.9l-7.2-7.2M429.7 123.7l-7.2-7.2M429.7 127.8l-7.2-7.2M429.7 131.9l-7.2-7.2M429.7 136l-7.2-7.2M429.7 139.8l-7.2-7.2M429.7 143.9l-7.2-7.2M429.7 148l-7.2-7.2M429.7 151.8l-7.2-7.2M429.7 155.9l-7.2-7.2M429.7 160l-7.2-7.2M429.7 164.1l-7.2-7.2M429.7 167.9l-7.2-7.2M429.7 172l-7.2-7.2M429.7 176.1l-7.2-7.2M429.7 179.9l-7.2-7.2M429.7 184l-7.2-7.2M429.7 188.1l-7.2-7.2M429.7 191.9l-7.2-7.2M429.7 196l-7.2-7.2M429.7 200.1l-7.2-7.2M429.7 204.1l-7.2-7.2M429.7 208l-7.2-7.2M429.7 212.1l-7.2-7.2M429.7 216.1l-7.2-7.2M429.7 220l-7.2-7.2M429.7 224.1l-7.2-7.2M429.7 228.1l-7.2-7.2M429.7 232l-7.2-7.2M429.7 236.1l-7.2-7.2M429.7 240.1l-7.2-7.2M429.7 244.2l-7.2-7.2M429.7 248.1l-7.2-7.2M429.7 252.1l-7.2-7.2M429.7 256.2l-7.2-7.2M429.7 260.1l-7.2-7.2M429.7 264.1l-7.2-7.2M429.7 268.2l-7.2-7.2M429.7 272.3l-7.2-7.2M429.7 276.1l-7.2-7.2M429.7 280.2l-7.2-7.2M429.7 284.3l-7.2-7.2M429.7 288.1l-7.2-7.2M429.7 292.2l-7.2-7.2M429.7 296.3l-7.2-7.2M429.7 300.1l-7.2-7.2M429.7 304.2l-7.2-7.2M429.7 308.3l-7.2-7.2M429.7 312.4l-7.2-7.2M429.7 316.2l-7.2-7.2M429.7 320.3l-7.2-7.2M429.7 324.4l-7.2-7.2M429.7 328.2l-7.2-7.2M429.7 332.3l-7.2-7.2M429.7 336.4l-7.2-7.2M426.4 337.1l-3.9-4.1M428.3 337.1l1.4-1.4M424.2 337.1l5.5-5.3M422.5 334.9l7.2-7.2M422.5 330.9l7.2-7.2M422.5 327l7.2-7.2M422.5 322.9l7.2-7.2M422.5 318.9l7.2-7.2M422.5 314.8l7.2-7.2M422.5 310.9l7.2-7.2M422.5 306.9l7.2-7.2M422.5 302.8l7.2-7.2M422.5 298.9l7.2-7.2M422.5 294.9l7.2-7.2M422.5 290.8l7.2-7.2M422.5 286.7l7.2-7.2M422.5 282.9l7.2-7.2M422.5 278.8l7.2-7.2M422.5 274.7l7.2-7.2M422.5 270.9l7.2-7.2M422.5 266.8l7.2-7.2M422.5 262.7l7.2-7.2M422.5 258.9l7.2-7.2M422.5 254.8l7.2-7.2M422.5 250.7l7.2-7.2M422.5 246.6l7.2-7.2M422.5 242.8l7.2-7.2M422.5 238.7l7.2-7.2M422.5 234.6l7.2-7.2M422.5 230.8l7.2-7.2M422.5 226.7l7.2-7.2M422.5 222.6l7.2-7.2M422.5 218.8l7.2-7.2M422.5 214.7l7.2-7.2M422.5 210.6l7.2-7.2M422.5 206.5l7.2-7.2M422.5 202.7l7.2-7.2M422.5 198.6l7.2-7.2M422.5 194.5l7.2-7.2M422.5 190.7l7.2-7.2M422.5 186.6l7.2-7.2M422.5 182.5l7.2-7.2M422.5 178.5l7.2-7.2M422.5 174.6l7.2-7.2M422.5 170.5l7.2-7.2M422.5 166.5l7.2-7.2M422.5 162.6l7.2-7.2M422.5 158.5l7.2-7.2M422.5 154.5l7.2-7.2M422.5 150.6l7.2-7.2M422.5 146.5l7.2-7.2M422.5 142.5l7.2-7.2M422.5 138.4l7.2-7.2M422.5 134.5l7.2-7.2M422.5 130.5l7.2-7.2M422.5 126.4l7.2-7.2M422.5 122.5l7.2-7.2M422.5 118.5l7.2-7.2M422.5 114.4l7.2-7.2M422.5 110.5l7.2-7.2M422.5 106.5l7.2-7.2M422.5 102.4l7.2-7.2M422.5 98.3l7.2-7.2M422.5 94.5l7.2-7.2M422.5 90.4l7.2-7.2M422.5 86.3l7.2-7.2M422.5 82.5l7.2-7.2M422.5 78.4l7.2-7.2M422.5 74.3l7.2-7.2M422.5 70.5l7.2-7.2M422.5 66.4l7.2-7.2M422.5 62.3l7.2-7.2M422.5 58.2l7.2-7.2M422.5 54.4l7.2-7.2M422.5 50.3l7.2-7.2M422.5 46.2l7.2-7.2M422.5 42.4l7.2-7.2M422.5 38.3l7.2-7.2M422.5 34.2l7.2-7.2M422.5 30.1l7.2-7.2M422.5 26.3l7.2-7.2M422.5 22.2l6-6M422.5 18.1l2-1.9"/><path class="cls-16" d="M422.3 337.1h7.2V16.2h-7.2v320.9"/><path class="cls-12" d="M429.7 19.6l-3.6-3.4M429.7 23.7l-7.2-7.2M429.7 27.7l-7.2-7.2M429.7 31.6l-7.2-7.2M429.7 35.7l-7.2-7.2M429.7 39.7l-7.2-7.2M429.7 43.6l-7.2-7.2M429.7 47.7l-7.2-7.2M429.7 51.7l-7.2-7.2M429.7 55.8l-7.2-7.2M429.7 59.7l-7.2-7.2M429.7 63.7l-7.2-7.2M429.7 67.8l-7.2-7.2M429.7 71.7l-7.2-7.2M429.7 75.7l-7.2-7.2M429.7 79.8l-7.2-7.2M429.7 83.7l-7.2-7.2M429.7 87.7l-7.2-7.2M429.7 91.8l-7.2-7.2M429.7 95.9l-7.2-7.2M429.7 99.7l-7.2-7.2M429.7 103.8l-7.2-7.2M429.7 107.9l-7.2-7.2M429.7 111.7l-7.2-7.2M429.7 115.8l-7.2-7.2M429.7 119.9l-7.2-7.2M429.7 123.7l-7.2-7.2M429.7 127.8l-7.2-7.2M429.7 131.9l-7.2-7.2M429.7 136l-7.2-7.2M429.7 139.8l-7.2-7.2M429.7 143.9l-7.2-7.2M429.7 148l-7.2-7.2M429.7 151.8l-7.2-7.2M429.7 155.9l-7.2-7.2M429.7 160l-7.2-7.2M429.7 164.1l-7.2-7.2M429.7 167.9l-7.2-7.2M429.7 172l-7.2-7.2M429.7 176.1l-7.2-7.2M429.7 179.9l-7.2-7.2M429.7 184l-7.2-7.2M429.7 188.1l-7.2-7.2M429.7 191.9l-7.2-7.2M429.7 196l-7.2-7.2M429.7 200.1l-7.2-7.2M429.7 204.1l-7.2-7.2M429.7 208l-7.2-7.2M429.7 212.1l-7.2-7.2M429.7 216.1l-7.2-7.2M429.7 220l-7.2-7.2M429.7 224.1l-7.2-7.2M429.7 228.1l-7.2-7.2M429.7 232l-7.2-7.2M429.7 236.1l-7.2-7.2M429.7 240.1l-7.2-7.2M429.7 244.2l-7.2-7.2M429.7 248.1l-7.2-7.2M429.7 252.1l-7.2-7.2M429.7 256.2l-7.2-7.2M429.7 260.1l-7.2-7.2M429.7 264.1l-7.2-7.2M429.7 268.2l-7.2-7.2M429.7 272.3l-7.2-7.2M429.7 276.1l-7.2-7.2M429.7 280.2l-7.2-7.2M429.7 284.3l-7.2-7.2M429.7 288.1l-7.2-7.2M429.7 292.2l-7.2-7.2M429.7 296.3l-7.2-7.2M429.7 300.1l-7.2-7.2M429.7 304.2l-7.2-7.2M429.7 308.3l-7.2-7.2M429.7 312.4l-7.2-7.2M429.7 316.2l-7.2-7.2M429.7 320.3l-7.2-7.2M429.7 324.4l-7.2-7.2M429.7 328.2l-7.2-7.2M429.7 332.3l-7.2-7.2M429.7 336.4l-7.2-7.2M426.4 337.1l-3.9-4.1M428.3 337.1l1.4-1.4M424.2 337.1l5.5-5.3M422.5 334.9l7.2-7.2M422.5 330.9l7.2-7.2M422.5 327l7.2-7.2M422.5 322.9l7.2-7.2M422.5 318.9l7.2-7.2M422.5 314.8l7.2-7.2M422.5 310.9l7.2-7.2M422.5 306.9l7.2-7.2M422.5 302.8l7.2-7.2M422.5 298.9l7.2-7.2M422.5 294.9l7.2-7.2M422.5 290.8l7.2-7.2M422.5 286.7l7.2-7.2M422.5 282.9l7.2-7.2M422.5 278.8l7.2-7.2M422.5 274.7l7.2-7.2M422.5 270.9l7.2-7.2M422.5 266.8l7.2-7.2M422.5 262.7l7.2-7.2M422.5 258.9l7.2-7.2M422.5 254.8l7.2-7.2M422.5 250.7l7.2-7.2M422.5 246.6l7.2-7.2M422.5 242.8l7.2-7.2M422.5 238.7l7.2-7.2M422.5 234.6l7.2-7.2M422.5 230.8l7.2-7.2M422.5 226.7l7.2-7.2M422.5 222.6l7.2-7.2M422.5 218.8l7.2-7.2M422.5 214.7l7.2-7.2M422.5 210.6l7.2-7.2M422.5 206.5l7.2-7.2M422.5 202.7l7.2-7.2M422.5 198.6l7.2-7.2M422.5 194.5l7.2-7.2M422.5 190.7l7.2-7.2M422.5 186.6l7.2-7.2M422.5 182.5l7.2-7.2M422.5 178.5l7.2-7.2M422.5 174.6l7.2-7.2M422.5 170.5l7.2-7.2M422.5 166.5l7.2-7.2M422.5 162.6l7.2-7.2M422.5 158.5l7.2-7.2M422.5 154.5l7.2-7.2M422.5 150.6l7.2-7.2M422.5 146.5l7.2-7.2M422.5 142.5l7.2-7.2M422.5 138.4l7.2-7.2M422.5 134.5l7.2-7.2M422.5 130.5l7.2-7.2M422.5 126.4l7.2-7.2M422.5 122.5l7.2-7.2M422.5 118.5l7.2-7.2M422.5 114.4l7.2-7.2M422.5 110.5l7.2-7.2M422.5 106.5l7.2-7.2M422.5 102.4l7.2-7.2M422.5 98.3l7.2-7.2M422.5 94.5l7.2-7.2M422.5 90.4l7.2-7.2M422.5 86.3l7.2-7.2M422.5 82.5l7.2-7.2M422.5 78.4l7.2-7.2M422.5 74.3l7.2-7.2M422.5 70.5l7.2-7.2M422.5 66.4l7.2-7.2M422.5 62.3l7.2-7.2M422.5 58.2l7.2-7.2M422.5 54.4l7.2-7.2M422.5 50.3l7.2-7.2M422.5 46.2l7.2-7.2M422.5 42.4l7.2-7.2M422.5 38.3l7.2-7.2M422.5 34.2l7.2-7.2M422.5 30.1l7.2-7.2M422.5 26.3l7.2-7.2M422.5 22.2l6-6M422.5 18.1l2-1.9"/><path class="cls-13" d="M429.5 337.1V16.2M422.3 337.1V16.2M429.5 16.2h-7.2M422.3 337.1V16.2M429.5 337.1V16.2M429.5 337.1h-7.2"/><path class="cls-16" d="M267.3 97.8l6.9 7.2V16.2l-6.9 5.1v76.5"/><path class="cls-12" d="M274.5 16.7l-.5-.2M274.5 20.8l-2.7-2.7M274.5 24.6l-5.1-4.8M274.5 28.7l-7-7M274.5 32.8l-7-7M274.5 36.6l-7-6.9M274.5 40.7l-7-7M274.5 44.8l-7-7M274.5 48.9l-7-7M274.5 52.7l-7-7M274.5 56.8l-7-7M274.5 60.9l-7-7M274.5 64.7l-7-7M274.5 68.8l-7-7M274.5 72.9l-7-7M274.5 76.7l-7-7M274.5 80.8l-7-7M274.5 84.9l-7-7M274.5 88.9l-7-6.9M274.5 92.8l-7-7M274.5 96.9l-7-7M274.5 100.9l-7-6.9M274.5 104.8l-4.4-4.1M273 103.6l1.5-1.5M270.9 101.4l3.6-3.3M268.9 99.5l5.6-5.3M267.5 97.1l7-7M267.5 93l7-6.9M267.5 89.2l7-7M267.5 85.1l7-7M267.5 81l7-6.9M267.5 76.9l7-6.9M267.5 73.1l7-7M267.5 69l7-6.9M267.5 64.9l7-6.9M267.5 61.1l7-7M267.5 57l7-6.9M267.5 52.9l7-6.9M267.5 49.1l7-7M267.5 45l7-6.9M267.5 40.9l7-6.9M267.5 36.9l7-7M267.5 33l7-6.9M267.5 28.9l7-6.9M267.5 24.9l7-7"/><path class="cls-16" d="M267.3 97.8l6.9 7.2V16.2l-6.9 5.1v76.5"/><path class="cls-12" d="M274.5 16.7l-.5-.2M274.5 20.8l-2.7-2.7M274.5 24.6l-5.1-4.8M274.5 28.7l-7-7M274.5 32.8l-7-7M274.5 36.6l-7-6.9M274.5 40.7l-7-7M274.5 44.8l-7-7M274.5 48.9l-7-7M274.5 52.7l-7-7M274.5 56.8l-7-7M274.5 60.9l-7-7M274.5 64.7l-7-7M274.5 68.8l-7-7M274.5 72.9l-7-7M274.5 76.7l-7-7M274.5 80.8l-7-7M274.5 84.9l-7-7M274.5 88.9l-7-6.9M274.5 92.8l-7-7M274.5 96.9l-7-7M274.5 100.9l-7-6.9M274.5 104.8l-4.4-4.1M273 103.6l1.5-1.5M270.9 101.4l3.6-3.3M268.9 99.5l5.6-5.3M267.5 97.1l7-7M267.5 93l7-6.9M267.5 89.2l7-7M267.5 85.1l7-7M267.5 81l7-6.9M267.5 76.9l7-6.9M267.5 73.1l7-7M267.5 69l7-6.9M267.5 64.9l7-6.9M267.5 61.1l7-7M267.5 57l7-6.9M267.5 52.9l7-6.9M267.5 49.1l7-7M267.5 45l7-6.9M267.5 40.9l7-6.9M267.5 36.9l7-7M267.5 33l7-6.9M267.5 28.9l7-6.9M267.5 24.9l7-7"/><path class="cls-13" d="M267.3 21.3v76.5M274.2 16.2V105M274.2 16.2V105M267.3 21.3v76.5"/><path class="cls-16" d="M7.6 56.8L.1 63.7h61l7-6.9H7.6"/><path class="cls-12" d="M67.1 58l-1.2-1.2M64.9 59.9l-3.1-3.1M63 61.8l-5-5M60.9 63.7l-7-6.9M56.8 63.7l-7-6.9M52.7 63.7l-7-6.9M48.9 63.7l-7-6.9M44.8 63.7l-7-6.9M40.7 63.7l-7-6.9M36.9 63.7l-7-6.9M32.8 63.7l-7-6.9M28.7 63.7l-7-6.9M24.9 63.7l-7-6.9M20.8 63.7l-7-6.9M16.7 63.7l-7-6.9M12.6 63.7l-6-6M8.8 63.7l-4.1-4M4.7 63.7l-2.2-2.1M.6 63.7l-.2-.2M60.1 63.7l7-6.9M56.3 63.7l7-6.9M52.2 63.7l7-6.9M48.1 63.7l7-6.9M44.1 63.7l6.9-6.9M40.2 63.7l7-6.9M36.1 63.7l7-6.9M32.1 63.7l6.9-6.9M28.2 63.7l7-6.9M24.1 63.7l7-6.9M20.1 63.7l6.9-6.9M16.2 63.7l7-6.9M12.1 63.7l7-6.9M8.1 63.7l6.9-6.9M4 63.7l6.9-6.9"/><path class="cls-16" d="M7.6 56.8L.1 63.7h61l7-6.9H7.6"/><path class="cls-12" d="M67.1 58l-1.2-1.2M64.9 59.9l-3.1-3.1M63 61.8l-5-5M60.9 63.7l-7-6.9M56.8 63.7l-7-6.9M52.7 63.7l-7-6.9M48.9 63.7l-7-6.9M44.8 63.7l-7-6.9M40.7 63.7l-7-6.9M36.9 63.7l-7-6.9M32.8 63.7l-7-6.9M28.7 63.7l-7-6.9M24.9 63.7l-7-6.9M20.8 63.7l-7-6.9M16.7 63.7l-7-6.9M12.6 63.7l-6-6M8.8 63.7l-4.1-4M4.7 63.7l-2.2-2.1M.6 63.7l-.2-.2M60.1 63.7l7-6.9M56.3 63.7l7-6.9M52.2 63.7l7-6.9M48.1 63.7l7-6.9M44.1 63.7l6.9-6.9M40.2 63.7l7-6.9M36.1 63.7l7-6.9M32.1 63.7l6.9-6.9M28.2 63.7l7-6.9M24.1 63.7l7-6.9M20.1 63.7l6.9-6.9M16.2 63.7l7-6.9M12.1 63.7l7-6.9M8.1 63.7l6.9-6.9M4 63.7l6.9-6.9"/><path class="cls-13" d="M62.3 56.8H7.6M61.1 63.7H.1M61.1 63.7H.1M62.3 56.8H7.6"/><path class="cls-16" d="M274.2 105l-6.9-7.2h-2.2v7.2h9.1"/><path class="cls-12" d="M270.1 100.7l-2.8-2.9M270.4 105l-5.1-5.3M266.5 105l-1.2-1.2M271.6 105l1.4-1.4M267.5 105l3.4-3.6M265.3 103.3l3.6-3.8M265.3 99.3l1.5-1.5"/><path class="cls-16" d="M274.2 105l-6.9-7.2h-2.2v7.2h9.1"/><path class="cls-12" d="M270.1 100.7l-2.8-2.9M270.4 105l-5.1-5.3M266.5 105l-1.2-1.2M271.6 105l1.4-1.4M267.5 105l3.4-3.6M265.3 103.3l3.6-3.8M265.3 99.3l1.5-1.5"/><path class="cls-13" d="M265.1 105h9.1M265.1 97.8h2.2M265.1 97.8h2.2M265.1 105h9.1"/><path class="cls-16" d="M98.3 105v-7.2h134.6v7.2H98.3"/><path class="cls-12" d="M233.2 99.7l-1.9-1.9M233.2 103.6l-6-5.8M230.3 105l-7.2-7.2M226.5 105l-7.2-7.2M222.4 105l-7.2-7.2M218.3 105l-7.2-7.2M214.5 105l-7.2-7.2M210.4 105l-7.2-7.2M206.3 105l-7.2-7.2M202.2 105l-7.2-7.2M198.4 105l-7.2-7.2M194.3 105l-7.2-7.2M190.2 105l-7.2-7.2M186.4 105l-7.2-7.2M182.3 105l-7.2-7.2M178.2 105l-7.2-7.2M174.4 105l-7.2-7.2M170.3 105l-7.2-7.2M166.2 105l-7.2-7.2M162.1 105l-7.2-7.2M158.3 105l-7.2-7.2M154.2 105l-7.2-7.2M150.1 105l-7.2-7.2M146.3 105l-7.2-7.2M142.2 105l-7.2-7.2M138.1 105l-7.2-7.2M134.1 105l-7.2-7.2M130.2 105l-7.2-7.2M126.1 105l-7.2-7.2M122.1 105l-7.2-7.2M118.2 105l-7.2-7.2M114.1 105l-7.2-7.2M110.1 105l-7.2-7.2M106.2 105L99 97.8M102.1 105l-3.6-3.6M231.5 105l1.7-1.7M227.4 105l5.8-5.7M223.3 105l7.2-7.2M219.3 105l7.2-7.2M215.4 105l7.2-7.2M211.3 105l7.2-7.2M207.3 105l7.2-7.2M203.4 105l7.2-7.2M199.3 105l7.2-7.2M195.3 105l7.2-7.2M191.4 105l7.2-7.2M187.3 105l7.2-7.2M183.3 105l7.2-7.2M179.2 105l7.2-7.2M175.3 105l7.2-7.2M171.3 105l7.2-7.2M167.2 105l7.2-7.2M163.3 105l7.2-7.2M159.3 105l7.2-7.2M155.2 105l7.2-7.2M151.3 105l7.2-7.2M147.3 105l7.2-7.2M143.2 105l7.2-7.2M139.1 105l7.2-7.2M135.3 105l7.2-7.2M131.2 105l7.2-7.2M127.1 105l7.2-7.2M123.3 105l7.2-7.2M119.2 105l7.2-7.2M115.1 105l7.2-7.2M111 105l7.2-7.2M107.2 105l7.2-7.2M103.1 105l7.2-7.2M99 105l7.2-7.2M98.5 101.7l3.9-3.9"/><path class="cls-16" d="M98.3 97.8v7.2h134.6v-7.2H98.3"/><path class="cls-12" d="M233.2 99.7l-1.9-1.9M233.2 103.6l-6-5.8M230.3 105l-7.2-7.2M226.5 105l-7.2-7.2M222.4 105l-7.2-7.2M218.3 105l-7.2-7.2M214.5 105l-7.2-7.2M210.4 105l-7.2-7.2M206.3 105l-7.2-7.2M202.2 105l-7.2-7.2M198.4 105l-7.2-7.2M194.3 105l-7.2-7.2M190.2 105l-7.2-7.2M186.4 105l-7.2-7.2M182.3 105l-7.2-7.2M178.2 105l-7.2-7.2M174.4 105l-7.2-7.2M170.3 105l-7.2-7.2M166.2 105l-7.2-7.2M162.1 105l-7.2-7.2M158.3 105l-7.2-7.2M154.2 105l-7.2-7.2M150.1 105l-7.2-7.2M146.3 105l-7.2-7.2M142.2 105l-7.2-7.2M138.1 105l-7.2-7.2M134.1 105l-7.2-7.2M130.2 105l-7.2-7.2M126.1 105l-7.2-7.2M122.1 105l-7.2-7.2M118.2 105l-7.2-7.2M114.1 105l-7.2-7.2M110.1 105l-7.2-7.2M106.2 105L99 97.8M102.1 105l-3.6-3.6M231.5 105l1.7-1.7M227.4 105l5.8-5.7M223.3 105l7.2-7.2M219.3 105l7.2-7.2M215.4 105l7.2-7.2M211.3 105l7.2-7.2M207.3 105l7.2-7.2M203.4 105l7.2-7.2M199.3 105l7.2-7.2M195.3 105l7.2-7.2M191.4 105l7.2-7.2M187.3 105l7.2-7.2M183.3 105l7.2-7.2M179.2 105l7.2-7.2M175.3 105l7.2-7.2M171.3 105l7.2-7.2M167.2 105l7.2-7.2M163.3 105l7.2-7.2M159.3 105l7.2-7.2M155.2 105l7.2-7.2M151.3 105l7.2-7.2M147.3 105l7.2-7.2M143.2 105l7.2-7.2M139.1 105l7.2-7.2M135.3 105l7.2-7.2M131.2 105l7.2-7.2M127.1 105l7.2-7.2M123.3 105l7.2-7.2M119.2 105l7.2-7.2M115.1 105l7.2-7.2M111 105l7.2-7.2M107.2 105l7.2-7.2M103.1 105l7.2-7.2M99 105l7.2-7.2M98.5 101.7l3.9-3.9"/><path class="cls-13" d="M98.3 105h127.4M98.3 97.8h134.6M98.3 97.8h134.6M98.3 105h127.4"/><path class="cls-16" d="M65.9 105v-4.8l-4.8 4.8h4.8"/><path class="cls-12" d="M66.1 100.9l-.4-.2M66.1 105l-2.4-2.4M62.1 105l-.5-.5M63 105l3.1-2.9"/><path class="cls-16" d="M65.9 105v-4.8l-4.8 4.8h4.8"/><path class="cls-12" d="M66.1 100.9l-.4-.2M66.1 105l-2.4-2.4M62.1 105l-.5-.5M63 105l3.1-2.9"/><path class="cls-13" d="M61.1 105h4.8M61.1 105h4.8"/><path class="cls-3" d="M232.9 103.8h2.4v1.7h-2.4zM262.7 103.8h2.4v1.7h-2.4z"/><path class="cls-3" d="M235.3 103.8h27.4v1.7h-27.4zM235.3 103.8h27.4M235.1 97.8h27.8M262.5 97.8h.4"/><path class="cls-16" d="M232.9 97.8h2.2v6h-2.2"/><path class="cls-12" d="M235.3 97.8h-.2M235.3 101.9l-2.1-2.2M233.2 103.8v-.2M233.2 103.3l2.1-2.1M233.2 99.3l1.4-1.5"/><path class="cls-16" d="M265.1 97.8h-2.2v6h2.2"/><path class="cls-12" d="M265.3 99.7l-2.1-1.9M265.3 103.8l-2.1-2.1M264.6 103.8l.7-.5M263.2 101.4l2.1-2.1"/><path class="cls-13" d="M235.1 97.8v6M262.9 97.8v6M235.1 97.8v6M232.9 97.8h2.2M262.9 97.8v6M265.1 97.8h-2.2M232.9 105v-1.2M265.1 105v-1.2M232.9 97.8h2.2M265.1 97.8h-2.2M235.1 103.8h-2.2M262.9 103.8h2.2"/><path class="cls-12" d="M235.4 132.7c14.9 0 27.2-12.3 27.2-27.2M235.3 105.5v27.1"/><path class="cls-3" d="M65.9 103.8h2.6v1.7h-2.6zM95.7 103.8h2.6v1.7h-2.6zM68.5 103.8h27.1v1.7H68.5zM68.5 103.8h27.2M68.1 97.8h27.8M95.4 97.8h.5"/><path class="cls-16" d="M65.9 97.8h2.3v6h-2.3v1.1"/><path class="cls-12" d="M68.3 99.3l-1.4-1.5M68.3 103.1l-2.2-2.2M66.1 102.1l2.2-2.1M66.1 98.1v-.3"/><path class="cls-13" d="M68.2 97.8v6h-2.3v1.1"/><path class="cls-16" d="M98.3 97.8h-2.4v6h2.4v1.2"/><path class="cls-12" d="M98.5 101.4L96.1 99M96.9 103.8l-.8-.9M96.4 103.8l2.1-2.1M96.1 100l2.2-2.2"/><path class="cls-13" d="M98.3 97.8h-2.4v6h2.4v1.2"/><path class="cls-16" d="M62.3 14.3l5.8 7h11.7v-7H62.3"/><path class="cls-12" d="M80.1 14.8l-.5-.5M80.1 18.6l-4.6-4.3M78.4 21.3l-7-7M74.5 21.3l-6.9-7M70.5 21.3l-7-7M78.6 21.3l1.5-1.2M74.5 21.3l5.6-5.3M70.7 21.3l7-7M67.6 20.3l6-6M65.7 18.1l3.8-3.8M63.7 16l2-1.7"/><path class="cls-16" d="M62.3 14.3l5.8 7h11.7v-7H62.3"/><path class="cls-12" d="M80.1 14.8l-.5-.5M80.1 18.6l-4.6-4.3M78.4 21.3l-7-7M74.5 21.3l-6.9-7M70.5 21.3l-7-7M78.6 21.3l1.5-1.2M74.5 21.3l5.6-5.3M70.7 21.3l7-7M67.6 20.3l6-6M65.7 18.1l3.8-3.8M63.7 16l2-1.7"/><path class="cls-13" d="M79.8 14.3H69.3M79.8 21.3H68.1M79.8 21.3H68.1M79.8 14.3H69.3"/><path class="cls-16" d="M234.4 14.3v7H115.6v-7h118.8"/><path class="cls-12" d="M234.6 16.9l-2.6-2.6M234.6 21l-6.7-6.7M230.8 21.3l-7-7M226.7 21.3l-7-7M222.9 21.3l-7-7M218.8 21.3l-7-7M214.7 21.3l-7-7M210.9 21.3l-7-7M206.8 21.3l-7-7M202.7 21.3l-7-7M198.9 21.3l-7-7M194.8 21.3l-7-7M190.7 21.3l-7-7M186.6 21.3l-6.9-7M182.8 21.3l-7-7M178.7 21.3l-7-7M174.6 21.3l-6.9-7M170.8 21.3l-7-7M166.7 21.3l-7-7M162.6 21.3l-6.9-7M158.5 21.3l-6.9-7M154.7 21.3l-7-7M150.6 21.3l-6.9-7M146.5 21.3l-6.9-7M142.7 21.3l-7-7M138.6 21.3l-6.9-7M134.5 21.3l-6.9-7M130.7 21.3l-7-7M126.6 21.3l-6.9-7M122.5 21.3l-6.7-7M118.5 21.3l-2.7-2.9M231 21.3l3.6-3.6M226.9 21.3l7-7M222.9 21.3l6.9-7M219 21.3l7-7M214.9 21.3l7-7M210.9 21.3l6.9-7M207 21.3l7-7M202.9 21.3l7-7M198.9 21.3l6.9-7M194.8 21.3l6.9-7M190.9 21.3l7-7M186.9 21.3l6.9-7M182.8 21.3l6.9-7M178.9 21.3l7-7M174.9 21.3l6.9-7M170.8 21.3l6.9-7M166.9 21.3l7-7M162.9 21.3l6.9-7M158.8 21.3l6.9-7M154.7 21.3l7-7M150.9 21.3l6.9-7M146.8 21.3l6.9-7M142.7 21.3l7-7M138.9 21.3l6.9-7M134.8 21.3l6.9-7M130.7 21.3l7-7M126.9 21.3l6.9-7M122.8 21.3l6.9-7M118.7 21.3l7-7M115.8 20.3l5.8-6M115.8 16.2l1.9-1.9"/><path class="cls-16" d="M234.4 21.3v-7H115.6v7h118.8"/><path class="cls-12" d="M234.6 16.9l-2.6-2.6M234.6 21l-6.7-6.7M230.8 21.3l-7-7M226.7 21.3l-7-7M222.9 21.3l-7-7M218.8 21.3l-7-7M214.7 21.3l-7-7M210.9 21.3l-7-7M206.8 21.3l-7-7M202.7 21.3l-7-7M198.9 21.3l-7-7M194.8 21.3l-7-7M190.7 21.3l-7-7M186.6 21.3l-6.9-7M182.8 21.3l-7-7M178.7 21.3l-7-7M174.6 21.3l-6.9-7M170.8 21.3l-7-7M166.7 21.3l-7-7M162.6 21.3l-6.9-7M158.5 21.3l-6.9-7M154.7 21.3l-7-7M150.6 21.3l-6.9-7M146.5 21.3l-6.9-7M142.7 21.3l-7-7M138.6 21.3l-6.9-7M134.5 21.3l-6.9-7M130.7 21.3l-7-7M126.6 21.3l-6.9-7M122.5 21.3l-6.7-7M118.5 21.3l-2.7-2.9M231 21.3l3.6-3.6M226.9 21.3l7-7M222.9 21.3l6.9-7M219 21.3l7-7M214.9 21.3l7-7M210.9 21.3l6.9-7M207 21.3l7-7M202.9 21.3l7-7M198.9 21.3l6.9-7M194.8 21.3l6.9-7M190.9 21.3l7-7M186.9 21.3l6.9-7M182.8 21.3l6.9-7M178.9 21.3l7-7M174.9 21.3l6.9-7M170.8 21.3l6.9-7M166.9 21.3l7-7M162.9 21.3l6.9-7M158.8 21.3l6.9-7M154.7 21.3l7-7M150.9 21.3l6.9-7M146.8 21.3l6.9-7M142.7 21.3l7-7M138.9 21.3l6.9-7M134.8 21.3l6.9-7M130.7 21.3l7-7M126.9 21.3l6.9-7M122.8 21.3l6.9-7M118.7 21.3l7-7M115.8 20.3l5.8-6M115.8 16.2l1.9-1.9"/><path class="cls-13" d="M234.4 14.3H115.6M234.4 21.3H115.6M234.4 21.3H115.6M234.4 14.3H115.6M234.4 16.2v-1.9"/><path class="cls-3" d="M109.6 13.6h6v1.7h-6zM79.8 13.6h2.4v1.7h-2.4zM82.2 13.6h27.4v1.7H82.2zM109.6 15.3H82.2M109.8 21.3H82M82.5 21.3H82"/><path class="cls-16" d="M115.6 21.3h-5.8v-6h5.8"/><path class="cls-12" d="M115.8 18.4l-3.3-3.1M114.6 21.3l-4.5-4.6M110.5 21.3l-.4-.8M114.6 21.3l1.2-1M110.8 21.3l5-5.1M110.1 18.1l2.6-2.8"/><path class="cls-16" d="M79.8 21.3H82v-6h-2.2"/><path class="cls-12" d="M82.2 16.9l-1.7-1.6M82.2 20.8l-2.1-2.2M80.1 20.1l2.1-2.2M80.1 16l.4-.7"/><path class="cls-13" d="M109.8 21.3v-6M82 21.3v-6M109.8 21.3v-6M115.6 21.3h-5.8M82 21.3v-6M79.8 21.3H82M115.6 14.3v1M79.8 14.3v1M115.6 21.3h-5.8M79.8 21.3H82M109.8 15.3h5.8M82 15.3h-2.2"/><path class="cls-16" d="M232.9 105h-7.2v232.1h7.2V105"/><path class="cls-12" d="M233.2 107.7l-2.9-2.7M233.2 111.7l-6.7-6.7M233.2 115.8l-7.2-7.2M233.2 119.7l-7.2-7.2M233.2 123.7l-7.2-7.2M233.2 127.8l-7.2-7.2M233.2 131.7l-7.2-7.2M233.2 135.7l-7.2-7.2M233.2 139.8l-7.2-7.2M233.2 143.7l-7.2-7.2M233.2 147.7l-7.2-7.2M233.2 151.8l-7.2-7.2M233.2 155.9l-7.2-7.2M233.2 159.7l-7.2-7.2M233.2 163.8l-7.2-7.2M233.2 167.9l-7.2-7.2M233.2 171.7l-7.2-7.2M233.2 175.8l-7.2-7.2M233.2 179.9l-7.2-7.2M233.2 183.7l-7.2-7.2M233.2 187.8l-7.2-7.2M233.2 191.9l-7.2-7.2M233.2 196l-7.2-7.2M233.2 199.8l-7.2-7.2M233.2 203.9l-7.2-7.2M233.2 208l-7.2-7.2M233.2 211.8l-7.2-7.2M233.2 215.9l-7.2-7.2M233.2 220l-7.2-7.2M233.2 224.1l-7.2-7.2M233.2 227.9l-7.2-7.2M233.2 232l-7.2-7.2M233.2 236.1l-7.2-7.2M233.2 239.9l-7.2-7.2M233.2 244l-7.2-7.2M233.2 248.1l-7.2-7.2M233.2 251.9l-7.2-7.2M233.2 256l-7.2-7.2M233.2 260.1l-7.2-7.2M233.2 264.1l-7.2-7.2M233.2 268l-7.2-7.2M233.2 272.1l-7.2-7.2M233.2 276.1l-7.2-7.2M233.2 280l-7.2-7.2M233.2 284.1l-7.2-7.2M233.2 288.1l-7.2-7.2M233.2 292l-7.2-7.2M233.2 296.1l-7.2-7.2M233.2 300.1l-7.2-7.2M233.2 304.2L226 297M233.2 308.1l-7.2-7.2M233.2 312.1l-7.2-7.2M233.2 316.2L226 309M233.2 320.1l-7.2-7.2M233.2 324.1l-7.2-7.2M233.2 328.2L226 321M233.2 332.3l-7.2-7.2M233.2 336.1l-7.2-7.2M230.1 337.1L226 333M231.7 337.1l1.5-1.2M227.9 337.1l5.3-5.3M226 334.9l7.2-7.2M226 331.1l7.2-7.2M226 327l7.2-7.2M226 322.9l7.2-7.2M226 319.1l7.2-7.2M226 315l7.2-7.2M226 310.9l7.2-7.2M226 307.1l7.2-7.2M226 303l7.2-7.2M226 298.9l7.2-7.2M226 294.9l7.2-7.2M226 291l7.2-7.2M226 286.9l7.2-7.2M226 282.9l7.2-7.2M226 279l7.2-7.2M226 274.9l7.2-7.2M226 270.9l7.2-7.2M226 267l7.2-7.2M226 262.9l7.2-7.2M226 258.9l7.2-7.2M226 254.8l7.2-7.2M226 250.9l7.2-7.2M226 246.9l7.2-7.2M226 242.8l7.2-7.2M226 238.9l7.2-7.2M226 234.9l7.2-7.2M226 230.8l7.2-7.2M226 226.7l7.2-7.2M226 222.9l7.2-7.2M226 218.8l7.2-7.2M226 214.7l7.2-7.2M226 210.9l7.2-7.2M226 206.8l7.2-7.2M226 202.7l7.2-7.2M226 198.9l7.2-7.2M226 194.8l7.2-7.2M226 190.7l7.2-7.2M226 186.6l7.2-7.2M226 182.8l7.2-7.2M226 178.7l7.2-7.2M226 174.6l7.2-7.2M226 170.8l7.2-7.2M226 166.7l7.2-7.2M226 162.6l7.2-7.2M226 158.8l7.2-7.2M226 154.7l7.2-7.2M226 150.6l7.2-7.2M226 146.5l7.2-7.2M226 142.7l7.2-7.2M226 138.6l7.2-7.2M226 134.5l7.2-7.2M226 130.7l7.2-7.2M226 126.6l7.2-7.2M226 122.5l7.2-7.2M226 118.5l7.2-7.2M226 114.6l7.2-7.2M226 110.5l5.5-5.5M226 106.5l1.4-1.5"/><path class="cls-16" d="M232.9 105h-7.2v232.1h7.2V105"/><path class="cls-12" d="M233.2 107.7l-2.9-2.7M233.2 111.7l-6.7-6.7M233.2 115.8l-7.2-7.2M233.2 119.7l-7.2-7.2M233.2 123.7l-7.2-7.2M233.2 127.8l-7.2-7.2M233.2 131.7l-7.2-7.2M233.2 135.7l-7.2-7.2M233.2 139.8l-7.2-7.2M233.2 143.7l-7.2-7.2M233.2 147.7l-7.2-7.2M233.2 151.8l-7.2-7.2M233.2 155.9l-7.2-7.2M233.2 159.7l-7.2-7.2M233.2 163.8l-7.2-7.2M233.2 167.9l-7.2-7.2M233.2 171.7l-7.2-7.2M233.2 175.8l-7.2-7.2M233.2 179.9l-7.2-7.2M233.2 183.7l-7.2-7.2M233.2 187.8l-7.2-7.2M233.2 191.9l-7.2-7.2M233.2 196l-7.2-7.2M233.2 199.8l-7.2-7.2M233.2 203.9l-7.2-7.2M233.2 208l-7.2-7.2M233.2 211.8l-7.2-7.2M233.2 215.9l-7.2-7.2M233.2 220l-7.2-7.2M233.2 224.1l-7.2-7.2M233.2 227.9l-7.2-7.2M233.2 232l-7.2-7.2M233.2 236.1l-7.2-7.2M233.2 239.9l-7.2-7.2M233.2 244l-7.2-7.2M233.2 248.1l-7.2-7.2M233.2 251.9l-7.2-7.2M233.2 256l-7.2-7.2M233.2 260.1l-7.2-7.2M233.2 264.1l-7.2-7.2M233.2 268l-7.2-7.2M233.2 272.1l-7.2-7.2M233.2 276.1l-7.2-7.2M233.2 280l-7.2-7.2M233.2 284.1l-7.2-7.2M233.2 288.1l-7.2-7.2M233.2 292l-7.2-7.2M233.2 296.1l-7.2-7.2M233.2 300.1l-7.2-7.2M233.2 304.2L226 297M233.2 308.1l-7.2-7.2M233.2 312.1l-7.2-7.2M233.2 316.2L226 309M233.2 320.1l-7.2-7.2M233.2 324.1l-7.2-7.2M233.2 328.2L226 321M233.2 332.3l-7.2-7.2M233.2 336.1l-7.2-7.2M230.1 337.1L226 333M231.7 337.1l1.5-1.2M227.9 337.1l5.3-5.3M226 334.9l7.2-7.2M226 331.1l7.2-7.2M226 327l7.2-7.2M226 322.9l7.2-7.2M226 319.1l7.2-7.2M226 315l7.2-7.2M226 310.9l7.2-7.2M226 307.1l7.2-7.2M226 303l7.2-7.2M226 298.9l7.2-7.2M226 294.9l7.2-7.2M226 291l7.2-7.2M226 286.9l7.2-7.2M226 282.9l7.2-7.2M226 279l7.2-7.2M226 274.9l7.2-7.2M226 270.9l7.2-7.2M226 267l7.2-7.2M226 262.9l7.2-7.2M226 258.9l7.2-7.2M226 254.8l7.2-7.2M226 250.9l7.2-7.2M226 246.9l7.2-7.2M226 242.8l7.2-7.2M226 238.9l7.2-7.2M226 234.9l7.2-7.2M226 230.8l7.2-7.2M226 226.7l7.2-7.2M226 222.9l7.2-7.2M226 218.8l7.2-7.2M226 214.7l7.2-7.2M226 210.9l7.2-7.2M226 206.8l7.2-7.2M226 202.7l7.2-7.2M226 198.9l7.2-7.2M226 194.8l7.2-7.2M226 190.7l7.2-7.2M226 186.6l7.2-7.2M226 182.8l7.2-7.2M226 178.7l7.2-7.2M226 174.6l7.2-7.2M226 170.8l7.2-7.2M226 166.7l7.2-7.2M226 162.6l7.2-7.2M226 158.8l7.2-7.2M226 154.7l7.2-7.2M226 150.6l7.2-7.2M226 146.5l7.2-7.2M226 142.7l7.2-7.2M226 138.6l7.2-7.2M226 134.5l7.2-7.2M226 130.7l7.2-7.2M226 126.6l7.2-7.2M226 122.5l7.2-7.2M226 118.5l7.2-7.2M226 114.6l7.2-7.2M226 110.5l5.5-5.5M226 106.5l1.4-1.5"/><path class="cls-13" d="M232.9 337.1V105M225.7 337.1V105M225.7 337.1V105M232.9 337.1V105M232.9 337.1h-7.2"/><path class="cls-16" d="M234.4 21.3h32.9l6.9-5.1h-39.8v5.1"/><path class="cls-12" d="M274 16.5v-.3M271.8 18.1l-1.9-1.9M269.4 19.8l-3.6-3.6M266.8 21.3l-5.1-5.1M262.9 21.3l-5-5.1M258.9 21.3l-5.1-5.1M254.8 21.3l-5.1-5.1M250.9 21.3l-5-5.1M246.9 21.3l-5.1-5.1M242.8 21.3l-5.1-5.1M238.9 21.3l-4.3-4.4M234.9 21.3l-.3-.3M267 21.3l5.1-5.1M262.9 21.3l5.1-5.1M259.1 21.3l5-5.1M255 21.3l5.1-5.1M250.9 21.3l5.1-5.1M247.1 21.3l5-5.1M243 21.3l5.1-5.1M238.9 21.3l5.1-5.1M235.1 21.3l5-5.1M234.6 17.7l1.5-1.5"/><path class="cls-16" d="M234.4 21.3h32.9l6.9-5.1h-39.8v5.1"/><path class="cls-12" d="M274 16.5v-.3M271.8 18.1l-1.9-1.9M269.4 19.8l-3.6-3.6M266.8 21.3l-5.1-5.1M262.9 21.3l-5-5.1M258.9 21.3l-5.1-5.1M254.8 21.3l-5.1-5.1M250.9 21.3l-5-5.1M246.9 21.3l-5.1-5.1M242.8 21.3l-5.1-5.1M238.9 21.3l-4.3-4.4M234.9 21.3l-.3-.3M267 21.3l5.1-5.1M262.9 21.3l5.1-5.1M259.1 21.3l5-5.1M255 21.3l5.1-5.1M250.9 21.3l5.1-5.1M247.1 21.3l5-5.1M243 21.3l5.1-5.1M238.9 21.3l5.1-5.1M235.1 21.3l5-5.1M234.6 17.7l1.5-1.5"/><path class="cls-13" d="M274.2 16.2h-39.8M267.3 21.3h-32.9M267.3 21.3h-32.9M274.2 16.2h-39.8M234.4 21.3"/><path class="cls-3" d="M227.9 63.7v34.1M220.2 63.7v34.1M212.5 63.7v34.1M204.9 63.7v34.1M197.2 63.7v34.1M189.7 63.7v34.1M182.1 63.7v34.1M174.4 63.7v34.1M109.3 56.8h122.4v5.5H109.3zM185.4 62.3l7.9 35.5M166.7 63.7v34.1M159 63.7v34.1M151.3 63.7v34.1M143.7 63.7v34.1M136 63.7v34.1M128.3 63.7v34.1M120.9 63.7v34.1M113.2 63.7v34.1"/><path class="cls-3" d="M107.9 55.3h125.3v8.4H107.9zM189.6 80.8l3.9 3.9M193.5 77l-3.9 3.8M193.3 84.6v-7.7M113.1 80.8l3.8 3.9M116.9 77l-3.8 3.8M117 84.6v-7.7"/><path class="cls-16" d="M.1 63.7l7.5-6.9V11.4L.1 4.2v59.5"/><path class="cls-12" d="M7.8 14.5L.4 7.1M7.8 18.6L.4 11.2M7.8 22.7L.4 15.3M7.8 26.5L.4 19.1M7.8 30.6L.4 23.2M7.8 34.7L.4 27.3M7.8 38.8L.4 31.3M7.8 42.6L.4 35.2M7.8 46.7L.4 39.3M7.8 50.8L.4 43.3M7.8 54.6L.4 47.2M6.6 57.7L.4 51.3M4.7 59.7L.4 55.3M2.5 61.6L.4 59.2M.4 63.5v-.2M.4 63.5l7.4-7.4M.4 59.7l7.4-7.5M.4 55.6l7.4-7.5M.4 51.5l7.4-7.4M.4 47.4L7.8 40M.4 43.6l7.4-7.5M.4 39.5l7.4-7.4M.4 35.4L7.8 28M.4 31.6l7.4-7.5M.4 27.5l7.4-7.4M.4 23.4L7.8 16M.4 19.6l7.4-7.5M.4 15.5l5.5-5.8M.4 11.4L4 7.8M.4 7.3l1.4-1.4"/><path class="cls-16" d="M.1 63.7l7.5-6.9V11.4L.1 4.2v59.5"/><path class="cls-12" d="M7.8 14.5L.4 7.1M7.8 18.6L.4 11.2M7.8 22.7L.4 15.3M7.8 26.5L.4 19.1M7.8 30.6L.4 23.2M7.8 34.7L.4 27.3M7.8 38.8L.4 31.3M7.8 42.6L.4 35.2M7.8 46.7L.4 39.3M7.8 50.8L.4 43.3M7.8 54.6L.4 47.2M6.6 57.7L.4 51.3M4.7 59.7L.4 55.3M2.5 61.6L.4 59.2M.4 63.5v-.2M.4 63.5l7.4-7.4M.4 59.7l7.4-7.5M.4 55.6l7.4-7.5M.4 51.5l7.4-7.4M.4 47.4L7.8 40M.4 43.6l7.4-7.5M.4 39.5l7.4-7.4M.4 35.4L7.8 28M.4 31.6l7.4-7.5M.4 27.5l7.4-7.4M.4 23.4L7.8 16M.4 19.6l7.4-7.5M.4 15.5l5.5-5.8M.4 11.4L4 7.8M.4 7.3l1.4-1.4"/><path class="cls-13" d="M.1 4.2v59.5M7.6 11.4v45.4M7.6 11.4v45.4M.1 4.2v59.5"/><path class="cls-16" d="M.1 4.2l7.5 7.2h54.7l7-7.2H.1"/><path class="cls-12" d="M67.3 6.1l-1.9-1.9M65.4 8.3l-4.1-4.1M63.5 10.2l-6-6M60.6 11.4l-7.2-7.2M56.5 11.4l-7.2-7.2M52.7 11.4l-7.2-7.2M48.6 11.4l-7.2-7.2M44.5 11.4l-7.2-7.2M40.5 11.4l-7.2-7.2M36.6 11.4l-7.2-7.2M32.5 11.4l-7.2-7.2M28.5 11.4l-7.2-7.2M24.6 11.4l-7.2-7.2M20.5 11.4l-7.2-7.2M16.5 11.4L9.3 4.2M12.6 11.4L5.4 4.2M8.5 11.4L1.3 4.2M60.4 11.4l7.2-7.2M56.3 11.4l7.2-7.2M52.5 11.4l7.2-7.2M48.4 11.4l7.2-7.2M44.3 11.4l7.2-7.2M40.5 11.4l7.2-7.2M36.4 11.4l7.2-7.2M32.3 11.4l7.2-7.2M28.5 11.4l7.2-7.2M24.4 11.4l7.2-7.2M20.3 11.4l7.2-7.2M16.2 11.4l7.2-7.2M12.4 11.4l7.2-7.2M8.3 11.4l7.2-7.2M5.9 9.7l5.5-5.5M4 7.8l3.6-3.6M1.8 5.9l1.7-1.7"/><path class="cls-16" d="M.1 4.2l7.5 7.2h54.7l7-7.2H.1"/><path class="cls-12" d="M67.3 6.1l-1.9-1.9M65.4 8.3l-4.1-4.1M63.5 10.2l-6-6M60.6 11.4l-7.2-7.2M56.5 11.4l-7.2-7.2M52.7 11.4l-7.2-7.2M48.6 11.4l-7.2-7.2M44.5 11.4l-7.2-7.2M40.5 11.4l-7.2-7.2M36.6 11.4l-7.2-7.2M32.5 11.4l-7.2-7.2M28.5 11.4l-7.2-7.2M24.6 11.4l-7.2-7.2M20.5 11.4l-7.2-7.2M16.5 11.4L9.3 4.2M12.6 11.4L5.4 4.2M8.5 11.4L1.3 4.2M60.4 11.4l7.2-7.2M56.3 11.4l7.2-7.2M52.5 11.4l7.2-7.2M48.4 11.4l7.2-7.2M44.3 11.4l7.2-7.2M40.5 11.4l7.2-7.2M36.4 11.4l7.2-7.2M32.3 11.4l7.2-7.2M28.5 11.4l7.2-7.2M24.4 11.4l7.2-7.2M20.3 11.4l7.2-7.2M16.2 11.4l7.2-7.2M12.4 11.4l7.2-7.2M8.3 11.4l7.2-7.2M5.9 9.7l5.5-5.5M4 7.8l3.6-3.6M1.8 5.9l1.7-1.7"/><path class="cls-13" d="M69.3 4.2H.1M62.3 11.4H7.6M62.3 11.4H7.6M69.3 4.2H.1"/><path class="cls-16" d="M69.3 4.2l-7 7.2v2.9h7V4.2"/><path class="cls-12" d="M69.5 8.1l-2.2-2M69.5 12.1l-4.1-3.8M67.6 14.3l-4.1-4.1M63.5 14.3l-1-1.2M65.7 14.3l3.8-3.8M62.5 13.3l7-6.9"/><path class="cls-16" d="M69.3 4.2l-7 7.2v2.9h7V4.2"/><path class="cls-12" d="M69.5 8.1l-2.2-2M69.5 12.1l-4.1-3.8M67.6 14.3l-4.1-4.1M63.5 14.3l-1-1.2M65.7 14.3l3.8-3.8M62.5 13.3l7-6.9"/><path class="cls-13" d="M69.3 14.3V4.2M62.3 14.3v-2.9M62.3 14.3v-2.9M69.3 14.3V4.2"/><path class="cls-16" d="M331.8 21.3v79.4l5.1 4.3V21.3h-5.1"/><path class="cls-12" d="M332.1 24.4l3.1-3.1M332.1 28.7l5-5M332.1 33l5-5M332.1 37.1l5-5M332.1 41.4l5-5M332.1 45.7l5-5M332.1 49.8l5-5M332.1 54.1l5-5M332.1 58.5l5-5.1M332.1 62.8l5-5.1M332.1 66.9l5-5.1M332.1 71.2l5-5.1M332.1 75.5l5-5M332.1 79.6l5-5.1M332.1 83.9l5-5M332.1 88.2l5-5M332.1 92.3l5-5M332.1 96.6l5-5M332.1 100.7l5-4.8M334.5 102.9l2.6-2.7M336.6 104.8l.5-.5"/><path class="cls-16" d="M331.8 21.3v79.4l5.1 4.3V21.3h-5.1"/><path class="cls-12" d="M332.1 24.4l3.1-3.1M332.1 28.7l5-5M332.1 33l5-5M332.1 37.1l5-5M332.1 41.4l5-5M332.1 45.7l5-5M332.1 49.8l5-5M332.1 54.1l5-5M332.1 58.5l5-5.1M332.1 62.8l5-5.1M332.1 66.9l5-5.1M332.1 71.2l5-5.1M332.1 75.5l5-5M332.1 79.6l5-5.1M332.1 83.9l5-5M332.1 88.2l5-5M332.1 92.3l5-5M332.1 96.6l5-5M332.1 100.7l5-4.8M334.5 102.9l2.6-2.7M336.6 104.8l.5-.5"/><path class="cls-13" d="M336.9 105V21.3M331.8 100.7V21.3M336.9 21.3h-5.1M331.8 100.7V21.3M336.9 105V21.3"/><path class="cls-16" d="M336.9 105h-4.4v23.1h4.4V105"/><path class="cls-12" d="M332.8 108.6l3.6-3.6M332.8 112.9l4.3-4.3M332.8 117.3l4.3-4.4M332.8 121.3l4.3-4.3M332.8 125.7l4.3-4.4M334.5 128.1l2.6-2.4"/><path class="cls-16" d="M336.9 105h-4.4v23.1h4.4V105"/><path class="cls-12" d="M332.8 108.6l3.6-3.6M332.8 112.9l4.3-4.3M332.8 117.3l4.3-4.4M332.8 121.3l4.3-4.3M332.8 125.7l4.3-4.4M334.5 128.1l2.6-2.4"/><path class="cls-13" d="M336.9 128.1V105M332.5 128.1V105M332.5 128.1V105M336.9 128.1V105"/><path class="cls-16" d="M336.9 200.1h-4.4v-46.8h4.4v46.8"/><path class="cls-12" d="M332.8 155.4l2.1-2.1M332.8 159.7l4.3-4.3M332.8 164.1l4.3-4.4M332.8 168.1l4.3-4.3M332.8 172.5l4.3-4.4M332.8 176.8l4.3-4.3M332.8 180.9l4.3-4.4M332.8 185.2l4.3-4.3M332.8 189.5l4.3-4.3M332.8 193.6l4.3-4.3M332.8 197.9l4.3-4.3M334.7 200.1l2.4-2.2"/><path class="cls-16" d="M332.5 200.1h4.4v-46.8h-4.4v46.8"/><path class="cls-12" d="M332.8 155.4l2.1-2.1M332.8 159.7l4.3-4.3M332.8 164.1l4.3-4.4M332.8 168.1l4.3-4.3M332.8 172.5l4.3-4.4M332.8 176.8l4.3-4.3M332.8 180.9l4.3-4.4M332.8 185.2l4.3-4.3M332.8 189.5l4.3-4.3M332.8 193.6l4.3-4.3M332.8 197.9l4.3-4.3M334.7 200.1l2.4-2.2"/><path class="cls-13" d="M336.9 174.6v-21.3M336.9 200.1v-21.4M332.5 200.1v-46.8M332.5 200.1v-46.8M336.9 174.6v-21.3M336.9 200.1v-21.4"/><path class="cls-16" d="M336.9 332.1h-4.4V225.3h4.4v106.8"/><path class="cls-12" d="M332.8 227.7l2.4-2.4M332.8 232l4.3-4.3M332.8 236.3l4.3-4.3M332.8 240.4l4.3-4.3M332.8 244.7l4.3-4.3M332.8 249l4.3-4.3M332.8 253.1l4.3-4.3M332.8 257.4l4.3-4.3M332.8 261.7l4.3-4.3M332.8 266.1l4.3-4.4M332.8 270.1l4.3-4.3M332.8 274.5l4.3-4.4M332.8 278.8l4.3-4.3M332.8 282.9l4.3-4.4M332.8 287.2l4.3-4.3M332.8 291.5l4.3-4.3M332.8 295.6l4.3-4.3M332.8 299.9l4.3-4.3M332.8 304.2l4.3-4.3M332.8 308.5l4.3-4.3M332.8 312.6l4.3-4.3M332.8 316.9l4.3-4.3M332.8 321.3l4.3-4.4M332.8 325.3l4.3-4.3M332.8 329.7l4.3-4.4M334.5 332.1l2.6-2.4"/><path class="cls-16" d="M332.5 332.1h4.4V225.3h-4.4v106.8"/><path class="cls-12" d="M332.8 227.7l2.4-2.4M332.8 232l4.3-4.3M332.8 236.3l4.3-4.3M332.8 240.4l4.3-4.3M332.8 244.7l4.3-4.3M332.8 249l4.3-4.3M332.8 253.1l4.3-4.3M332.8 257.4l4.3-4.3M332.8 261.7l4.3-4.3M332.8 266.1l4.3-4.4M332.8 270.1l4.3-4.3M332.8 274.5l4.3-4.4M332.8 278.8l4.3-4.3M332.8 282.9l4.3-4.4M332.8 287.2l4.3-4.3M332.8 291.5l4.3-4.3M332.8 295.6l4.3-4.3M332.8 299.9l4.3-4.3M332.8 304.2l4.3-4.3M332.8 308.5l4.3-4.3M332.8 312.6l4.3-4.3M332.8 316.9l4.3-4.3M332.8 321.3l4.3-4.4M332.8 325.3l4.3-4.3M332.8 329.7l4.3-4.4M334.5 332.1l2.6-2.4"/><path class="cls-13" d="M336.9 332.1V225.3M332.5 248.5v-23.2M332.5 332.1v-79.2M332.5 248.5v-23.2M336.9 332.1V225.3M332.5 332.1v-79.2M336.9 332.1h-4.4"/><path class="cls-3" d="M336.9 153.3v-25.2M332.5 153.3v-25.2M336.9 152.1h-4.4M336.9 129.3h-4.4"/><path class="cls-13" d="M336.9 153.3h-4.4M336.9 128.1h-4.4"/><path class="cls-12" d="M359.4 152c0-12.4-10.2-22.7-22.7-22.7M336.9 152.1h22.5"/><path class="cls-3" d="M336.9 225.3v-25.2M332.5 225.3v-25.2M336.9 224.1h-4.4M336.9 201.3h-4.4"/><path class="cls-13" d="M336.9 225.3h-4.4M336.9 200.1h-4.4"/><path class="cls-12" d="M336.7 224c6 0 11.8-2.4 16-6.6 4.3-4.3 6.6-10 6.6-16M336.9 201.3h22.5"/><path class="cls-16" d="M302.3 100.7v4.3h-28.1v-4.3h28.1"/><path class="cls-12" d="M274.5 103.3l2.4-2.6M276.9 105l4.3-4.3M281.2 105l4.3-4.3M285.3 105l4.3-4.3M289.6 105l4.3-4.3M293.9 105l4.3-4.3M298 105l4.3-4.3M302.3 105h.2"/><path class="cls-16" d="M302.3 105v-4.3h-28.1v4.3h28.1"/><path class="cls-12" d="M274.5 103.3l2.4-2.6M276.9 105l4.3-4.3M281.2 105l4.3-4.3M285.3 105l4.3-4.3M289.6 105l4.3-4.3M293.9 105l4.3-4.3M298 105l4.3-4.3M302.3 105h.2"/><path class="cls-13" d="M302.3 100.7h-28.1M302.3 105h-28.1M274.2 100.7v4.3M302.3 105h-28.1M302.3 100.7h-28.1"/><path class="cls-16" d="M327.5 105h9.4l-5.1-4.3h-4.3v4.3"/><path class="cls-12" d="M327.7 100.9l.3-.2M327.7 105l4.4-4.3M332.1 105l2.4-2.1M336.4 105l.2-.2"/><path class="cls-16" d="M327.5 105h9.4l-5.1-4.3h-4.3v4.3"/><path class="cls-12" d="M327.7 100.9l.3-.2M327.7 105l4.4-4.3M332.1 105l2.4-2.1M336.4 105l.2-.2"/><path class="cls-13" d="M331.8 100.7h-4.3M332.5 105h-5M332.5 105h-5M331.8 100.7h-4.3"/><path class="cls-3" d="M327.5 100.7h-25.2M327.5 105h-25.2M326.3 100.7v4.3M303.5 100.7v4.3"/><path class="cls-13" d="M327.5 100.7v4.3M302.3 100.7v4.3"/><path class="cls-12" d="M326.3 78c-12.4 0-22.7 10.2-22.7 22.7M326.3 100.7V77.9"/><path class="cls-16" d="M422.3 178.7v-4.1h-85.4v4.1h85.4"/><path class="cls-12" d="M337.1 176.5l1.9-1.9M339.3 178.7l4-4.1M343.3 178.7l4.1-4.1M347.7 178.7l4-4.1M352 178.7l4.1-4.1M356.1 178.7l4-4.1M360.4 178.7l4.1-4.1M364.7 178.7l4.1-4.1M369 178.7l4.1-4.1M373.1 178.7l4.1-4.1M377.4 178.7l4.1-4.1M381.7 178.7l4.1-4.1M385.8 178.7l4.1-4.1M390.1 178.7l4.1-4.1M394.5 178.7l4-4.1M398.5 178.7l4.1-4.1M402.9 178.7l4-4.1M407.2 178.7l4.1-4.1M411.5 178.7l4.1-4.1M415.6 178.7l4.1-4.1M419.9 178.7l2.6-2.4"/><path class="cls-16" d="M422.3 178.7v-4.1h-85.4v4.1h85.4"/><path class="cls-12" d="M337.1 176.5l1.9-1.9M339.3 178.7l4-4.1M343.3 178.7l4.1-4.1M347.7 178.7l4-4.1M352 178.7l4.1-4.1M356.1 178.7l4-4.1M360.4 178.7l4.1-4.1M364.7 178.7l4.1-4.1M369 178.7l4.1-4.1M373.1 178.7l4.1-4.1M377.4 178.7l4.1-4.1M381.7 178.7l4.1-4.1M385.8 178.7l4.1-4.1M390.1 178.7l4.1-4.1M394.5 178.7l4-4.1M398.5 178.7l4.1-4.1M402.9 178.7l4-4.1M407.2 178.7l4.1-4.1M411.5 178.7l4.1-4.1M415.6 178.7l4.1-4.1M419.9 178.7l2.6-2.4"/><path class="cls-13" d="M336.9 178.7h85.4M336.9 174.6h85.4M336.9 174.6h85.4M336.9 178.7h85.4M422.3 174.6v4.1"/><path class="cls-16" d="M232.9 248.5v4.4h27.2v-4.4h-27.2"/><path class="cls-12" d="M233.2 250.7l2.1-2.2M235.3 252.9l4.4-4.4M239.4 252.9l4.3-4.4M243.7 252.9l4.4-4.4M248.1 252.9l4.3-4.4M252.1 252.9l4.4-4.4M256.5 252.9l3.8-3.6"/><path class="cls-16" d="M232.9 248.5v4.4h27.2v-4.4h-27.2"/><path class="cls-12" d="M233.2 250.7l2.1-2.2M235.3 252.9l4.4-4.4M239.4 252.9l4.3-4.4M243.7 252.9l4.4-4.4M248.1 252.9l4.3-4.4M252.1 252.9l4.4-4.4M256.5 252.9l3.8-3.6"/><path class="cls-13" d="M260.1 248.5h-27.2M260.1 252.9h-27.2M260.1 252.9h-27.2M260.1 248.5h-27.2"/><path class="cls-16" d="M305.2 252.9h27.3v-4.4h-27.3v4.4"/><path class="cls-12" d="M305.4 250.7l2.2-2.2M307.6 252.9l4.3-4.4M311.7 252.9l4.3-4.4M316 252.9l4.3-4.4M320.3 252.9l4.3-4.4M324.4 252.9l4.3-4.4M328.7 252.9l4.1-3.9"/><path class="cls-16" d="M305.2 252.9h27.3v-4.4h-27.3v4.4"/><path class="cls-12" d="M305.4 250.7l2.2-2.2M307.6 252.9l4.3-4.4M311.7 252.9l4.3-4.4M316 252.9l4.3-4.4M320.3 252.9l4.3-4.4M324.4 252.9l4.3-4.4M328.7 252.9l4.1-3.9"/><path class="cls-13" d="M332.5 248.5h-27.3M332.5 252.9h-27.3M332.5 252.9h-27.3M332.5 248.5h-27.3M232.9 252.9v-4.4"/><path class="cls-3" d="M303.7 248.5v4.4M261.3 248.5v4.4"/><path class="cls-13" d="M305.2 248.5v4.4M260.1 248.5v4.4"/><path class="cls-12" d="M303.9 227.2c-11.7 0-21.3 9.6-21.3 21.3M282.6 248.5c0-11.7-9.6-21.3-21.3-21.3M303.7 248.5v-21.3M261.3 248.5v-21.3"/><path class="cls-3" d="M313.6 305.4h.7v17h-.7zM314.3 321.7h15.1v.7h-15.1zM314.3 305.4h15.1v.5h-15.1zM313.6 330.9h.7v1.2h-.7z"/><path class="cls-3" d="M329.4 305.4h.7v17h-.7zM313.6 288.4h.7v17h-.7zM314.3 304.7h15.1v.7h-15.1zM314.3 288.4h15.1v.5h-15.1z"/><path class="cls-3" d="M329.4 288.4h.7v17h-.7zM313.6 271.3h.7v17h-.7zM314.3 287.7h15.1v.7h-15.1zM314.3 271.3h15.1v.5h-15.1z"/><path class="cls-3" d="M329.4 271.3h.7v17h-.7zM313.6 254.3h.7v17h-.7z"/><path class="cls-3" d="M314.3 270.9h15.1v.5h-15.1zM314.3 254.3h15.1v.5h-15.1z"/><path class="cls-3" d="M329.4 254.3h.7v17h-.7zM313.6 253.1h.7v1.2h-.7zM313.6 322.5h.7v8.4h-.7zM314.3 330.4h15.1v.5h-15.1zM314.3 322.5h15.1v.5h-15.1z"/><path class="cls-3" d="M329.4 322.5h.7v8.4h-.7z"/><path class="cls-15" d="M329.4 256.2h2.6v10.1h-2.6z"/><path class="cls-3" d="M329.4 256.2h2.6v10.1h-2.6zM329.4 256v10.5V256zM329.4 256.9h-8.6M329.4 265.6l-1.7-.3-1.6-.4-1.5-.8-1.2-1.2-1.2-1.2-.7-1.4-.5-1.7-.2-1.7M339.3 346.7l-8.7 40.8h-96.9l-8.4-40.8"/><path class="cls-3" d="M340.9 346.7l-8.8 42.5h-99.9l-8.9-42.5"/><path class="cls-12" d="M385.4 337v-1.9c0-.6.2-1.2.3-1.8.1-.6.3-1.2.5-1.8l.6-1.8c.2-.6.5-1.1.8-1.7.3-.5.6-1.1 1-1.6.3-.5.7-1 1.1-1.5.4-.5.8-.9 1.3-1.4.4-.4.9-.9 1.4-1.3.5-.4 1-.8 1.5-1.1.5-.3 1-.7 1.6-1 .5-.3 1.1-.6 1.7-.8l1.8-.6c.6-.2 1.2-.3 1.8-.5l1.8-.3h1.9M404.3 317.9v19M385.3 336.9v-1.5M385.1 334v-.7M385.1 333.3l-.2-.8"/><path class="cls-7" d="M384.6 331.6l-.7-1.9"/><path class="cls-12" d="M383.4 328.5l-.2-.5M383.2 328l-.5-.7"/><path class="cls-11" d="M382.2 326.5l-1.2-1.6"/><path class="cls-12" d="M380.1 323.9l-.3-.2M379.8 323.7l-.7-.8M378.1 322l-1.2-.7"/><path class="cls-9" d="M376.9 321.3l-1.6-1"/><path class="cls-12" d="M375.3 320.3l-.8-.5M373.3 319.3l-1.4-.4M370.5 318.6l-.5-.2M370 318.4l-1-.3M367.6 318.1l-1.2-.2"/><path class="cls-4" d="M366.4 317.9v19"/><path class="cls-12" d="M366.4 336.4v.5M381.7 16.2v1.9c0 .6.2 1.2.3 1.8.1.6.3 1.2.5 1.8l.6 1.8c.2.6.5 1.1.8 1.7.3.5.6 1.1 1 1.6s.7 1 1.1 1.5c.4.5.8.9 1.3 1.4.4.4.9.9 1.4 1.3.5.4 1 .8 1.5 1.1.5.3 1 .7 1.6 1 .5.3 1.1.6 1.7.8l1.8.6c.6.2 1.2.3 1.8.5l1.8.3h1.9M400.7 35.2v-19M381.7 16.2l-.2 1.5M381.3 19.1v.7M381.3 19.8l-.3.7"/><path class="cls-8" d="M380.8 21.7l-.5 1.7"/><path class="cls-12" d="M379.8 24.9l-.2.2M379.6 25.1l-.5 1M378.1 27.3l-.7.9"/><path class="cls-14" d="M377.4 28.2l-1.2 1.5"/><path class="cls-12" d="M376.2 29.7l-.9.7M374.3 31.3l-1 .8"/><path class="cls-14" d="M373.3 32.1l-1.6.9"/><path class="cls-12" d="M371.7 33l-1 .5M369.3 34l-1 .5"/><path class="cls-6" d="M368.3 34.5l-1.9.4"/><path class="cls-12" d="M366.4 34.9l-1.2.3M363.7 35.2h-.9"/><path class="cls-4" d="M362.8 35.2v-19"/><path class="cls-12" d="M362.8 16.7v-.5M312.2 317c-11 0-20.1 9.1-20.1 20.1M312.1 316.9v20.2"/><path class="cls-4" d="M272.1 316.9l3.8.5 3.8 1 3.4 1.9 3.1 2.6 2.4 2.9 1.9 3.6 1.2 3.9.3 3.8"/><path class="cls-10" d="M272.1 316.9v20.2"/><path class="cls-12" d="M252.6 339.3h59.3v3.6h-59.3z"/><path class="cls-3" d="M296.8 176.5v1.5M296.8 178l-.3 1.2M296.5 179.2v.2M296.1 180.6v.3M295.6 182.3l-.5 1M295.1 183.3l-.7 1.2M294.4 184.5l-.3.2M293.2 185.9l-.3.2M292 187.1l-.5.2M291.5 187.3l-1 1M290.5 188.3l-.7.5M288.6 189.3l-.5.2M286.9 190h-.2M286.7 190l-1.4.5M285.3 190.5h-1.2M282.9 190.7h-.3M282.6 190.7h-.2M280.9 190.7l-1.2-.2M279.7 190.5l-1.2-.5M278.5 190h-.2M276.9 189.5l-.3-.2M275.4 188.8l-.7-.5M274.7 188.3l-1.2-1M273.5 187.3l-.2-.2M272.1 186.1v-.2M271.1 184.7l-.2-.2M270.9 184.5l-.8-1.2M270.1 183.3l-.4-1M269.2 180.9v-.3M268.7 179.4v-.2M268.7 179.2l-.2-1.2M268.5 178v-1.5M268.5 175.1v-.2M268.7 173.4l.2-.9M268.9 172.5l.5-1.5M269.4 171l.3-.2M270.4 169.6v-.3M271.3 168.1l.3-.7M271.6 167.4l.9-.9M272.5 166.5l.8-.5M274.2 165l.3-.2M275.7 164.1h.2M275.9 164.1l1.2-.8M277.1 163.3l1.2-.2M279.7 162.6h.3M281.4 162.4h1.2M282.6 162.4h1.5M285.5 162.6h.2M287.2 163.1l.9.2M288.1 163.3l1.2.8M289.3 164.1l.5.2M291 165l.3.3M292.2 166.2l.5.3M292.7 166.5l1 .9M293.7 167.4l.4 1M294.9 169.3l.2.3M295.6 171l.5 1.5M296.1 172.5l.4 1.2M296.8 175.1v.2"/></g><g id="Mbel"><path class="cls-1" d="M271.3 151.3h22.6v51.1h-22.6zM261.4 201v-12.8M269.9 201h-8.5M261.4 188.2h8.5M261.4 183.2v-12.7M269.9 183.2h-8.5M261.4 170.5h8.5M261.4 165.5v-12.7M269.9 165.5h-8.5M261.4 152.8h8.5M303.9 201v-12.8M295.4 201h8.5M303.9 188.2h-8.5M303.9 183.2v-12.7M295.4 183.2h8.5M303.9 170.5h-8.5M303.9 165.5v-12.7M295.4 165.5h8.5M303.9 152.8h-8.5M364 57.7h56.6v45.4H364zM338.1 159.3h56.6v15.4h-56.6zM400.4 130.7c3.8 1.3 7.4 2.9 11 4.8.8.4 1.3 1.4 1.3 2.3-.3 3.2-1.4 6.3-3.4 8.9-.6.8-1.5 1.1-2.5.9-3.9-.9-7.7-2.2-11.4-3.7 0-.8.2-1.5.5-2.1 1-3.1 2.2-6.2 3.5-9.2.3-.6.6-1.2 1-1.8h.1"/><path class="cls-1" d="M401.5 130.6c.3-.2.6-.3 1-.3 1.5-.2 3.1 0 4.5.6 1.9.8 3.7 1.7 5.4 2.9 1.2.8 2.4 1.8 3.3 2.8.6.6.8 1.5.7 2.3-.4 3.4-1.7 6.6-3.6 9.4-.5.7-1.2 1.2-2.1 1.3-1.5.2-2.9.1-4.4 0-2-.3-4-.8-6-1.5-1.4-.5-2.7-1.4-3.8-2.5-.2-.3-.4-.5-.5-.9M392.3 182.1h28.3v56.6h-28.3zM358.5 281.4h7.4v11.3h-7.4zM338.5 264.4h19.9v45.4h-19.9z"/><path class="cls-2" d="M405 274h15.6v56.9H405z"/></g><g id="Text"><path d="M276.5 122.6h2.1v.6h-2.1v1.8h2.1v.6h-2.8v-5.3h2.8v.6h-2.1v1.8zM281.5 122.9c0-.4-.3-.6-.7-.6s-.7.2-.7.5.2.4.8.6c.5.1.7.2.9.4.2.2.3.4.3.7 0 .6-.5 1.1-1.3 1.1s-1.3-.4-1.4-1.1h.6c0 .4.3.6.8.6s.7-.2.7-.5-.2-.5-.8-.6c-.8-.2-1.2-.6-1.2-1.1s.5-1.1 1.3-1.1 1.3.4 1.3 1.1h-.6zM285 122.9c0-.4-.3-.6-.7-.6s-.7.2-.7.5.2.4.8.6c.5.1.7.2.9.4.2.2.3.4.3.7 0 .6-.5 1.1-1.3 1.1s-1.3-.4-1.4-1.1h.6c0 .4.3.6.8.6s.7-.2.7-.5-.2-.5-.8-.6c-.8-.2-1.2-.6-1.2-1.1s.5-1.1 1.3-1.1 1.3.4 1.3 1.1h-.6zM287.2 124c0 .3 0 .5.2.7.2.3.6.5 1 .5s.9-.2 1.1-.6l.5.2c-.3.6-.9 1-1.6 1-1.1 0-1.9-.8-1.9-1.9s.8-1.9 1.9-1.9 1.9.8 1.9 1.9v.2h-3.1zm2.4-.4c0-.3 0-.4-.2-.6-.2-.3-.6-.5-1-.5s-.8.2-1 .5c-.1.2-.2.3-.2.6h2.4zM291.9 121.9v.5c.3-.4.6-.6 1.1-.6s.6.1.9.3c.2.2.3.5.3 1v2.5h-.6v-2.4c0-.3 0-.5-.1-.6-.1-.2-.3-.2-.6-.2s-.5.1-.7.3c-.2.2-.2.4-.2.7v2.2h-.6v-3.7h.6zM276.1 131v-.6l1.8-1.2v5.4h-.6v-4.4l-1.2.8zM279.5 129.9v-.6h3l-2.1 5.3h-.7l1.9-4.7h-2zM283.6 134.3c0 .2-.2.4-.4.4s-.4-.2-.4-.4.2-.4.4-.4.4.2.4.4zM287.3 129.9h-1.7v1.4c.3-.1.5-.2.8-.2.9 0 1.6.7 1.6 1.7s-.8 1.8-1.8 1.8-1.3-.4-1.6-1.1l.6-.2c.1.2.2.3.3.4.2.2.5.3.8.3.6 0 1.1-.5 1.1-1.2s-.5-1.1-1.2-1.1-.8.2-1.2.5v-3h2.3v.6zM291.3 130.9v.5c.3-.4.6-.6 1-.6s.8.2 1 .7c.3-.5.6-.7 1.2-.7s.7.1.9.4c.2.2.2.4.2 1v2.4h-.6v-2.2c0-.4 0-.6-.1-.7-.1-.2-.4-.3-.6-.3-.5 0-.8.4-.8 1v2.2h-.6v-2.2c0-.4 0-.5-.1-.7-.1-.2-.3-.3-.6-.3-.5 0-.9.4-.9 1v2.2h-.6v-3.7h.6zM298.9 132.1v.4h-2l1.2-1.6c.3-.5.4-.6.4-.8 0-.3-.2-.4-.5-.4s-.5.2-.5.6h-.4c0-.6.4-1 1-1s1 .3 1 .8-.1.5-.4.9l-.8 1.1h1.1z"/><g><path d="M248.1 358.7c1.1 0 1.7.5 1.7 1.4s-.1.6-.3.9c-.1.2-.3.2-.5.3.3 0 .4.1.6.2.3.2.4.6.4 1s-.2.9-.6 1.2c-.3.2-.7.3-1.3.3h-1.5v-5.3h1.5zm-.8 2.4h.7c.4 0 .7 0 .9-.2.2-.2.3-.4.3-.7s-.2-.6-.4-.8c-.2 0-.4-.1-.9-.1h-.6v1.8zm0 2.4h.7c.6 0 .8 0 1-.2.3-.1.4-.4.4-.8 0-.6-.4-.9-1.2-.9h-.8v1.8zM254 360.4h.6v3.7h-.6v-.7c-.4.6-.8.8-1.3.8-1 0-1.7-.8-1.7-1.9s.7-1.9 1.8-1.9 1 .2 1.3.7v-.6zm-2.1.9c-.2.3-.3.6-.3 1 0 .8.5 1.4 1.2 1.4s1.3-.6 1.3-1.4-.5-1.4-1.2-1.4-.7.1-.9.4zM255.9 364.1v-5.3h.6v5.3h-.6zM258.5 364.1h-.6v-5.3h.6v3.3l1.5-1.6h.8l-1.6 1.8 1.6 1.9h-.8l-1.5-1.6v1.6zM264.9 362.2c0 1.1-.8 1.9-1.9 1.9s-1.9-.8-1.9-1.9.8-1.9 1.9-1.9 1.9.8 1.9 1.9zm-3.1 0c0 .8.5 1.4 1.3 1.4s1.2-.6 1.2-1.4-.5-1.4-1.2-1.4-1.3.6-1.3 1.4zM266.6 360.4v.5c.3-.4.6-.6 1.1-.6s.6.1.9.3c.2.2.3.5.3 1v2.5h-.6v-2.4c0-.3 0-.5-.1-.6-.1-.2-.3-.2-.6-.2s-.5.1-.7.3c-.2.2-.2.4-.2.7v2.2h-.6v-3.7h.6zM248.9 368.3h-1.7v1.4c.3-.1.5-.2.8-.2.9 0 1.6.7 1.6 1.7s-.8 1.8-1.8 1.8-1.3-.4-1.6-1.1l.6-.2c.1.2.2.3.3.4.2.2.5.3.8.3.6 0 1.1-.5 1.1-1.2s-.5-1.1-1.2-1.1-.8.2-1.2.5v-3h2.3v.6zM251.4 372.7c0 .2-.2.4-.4.4s-.4-.2-.4-.4.2-.4.4-.4.4.2.4.4zM255.7 371.5c0 .6-.1 1-.4 1.2-.3.3-.7.4-1.2.4s-1-.2-1.2-.5c-.3-.3-.4-.6-.4-1.4v-1.8c0-.7 0-1 .3-1.3.3-.3.7-.5 1.2-.5s.9.1 1.2.4c.3.3.4.6.4 1.2v2.1zm-2.5-.1c0 .6 0 .7.2.9.2.2.5.3.8.3s.6-.1.8-.4c.1-.2.2-.4.2-.8v-2c0-.4 0-.6-.3-.8-.2-.2-.4-.2-.7-.2s-.6.1-.8.4c-.1.2-.2.4-.2.8v1.8zM259.1 369.4v.5c.3-.4.6-.6 1-.6s.8.2 1 .7c.3-.5.6-.7 1.2-.7s.7.1.9.4c.2.2.2.4.2 1v2.4h-.6v-2.2c0-.4 0-.6-.1-.7-.1-.2-.4-.3-.6-.3-.5 0-.8.4-.8 1v2.2h-.6v-2.2c0-.4 0-.5-.1-.7-.1-.2-.3-.3-.6-.3-.5 0-.9.4-.9 1v2.2h-.6v-3.7h.6zM266.6 370.6v.4h-2l1.2-1.6c.3-.5.4-.6.4-.8 0-.3-.2-.4-.5-.4s-.5.2-.5.6h-.4c0-.6.4-1 1-1s1 .3 1 .8-.1.5-.4.9l-.8 1.1h1.1z"/></g><g><path d="M33.8 42.3v.6h-2.5v-5.3h.7v4.7h1.9zM35.5 38.2c0 .2-.2.4-.4.4s-.4-.2-.4-.4.2-.4.4-.4.4.2.4.4zm0 4.7h-.6v-3.7h.6v3.7zM37.4 42.9h-.6v-3.2h-.5v-.5h.5v-.5c0-.7.4-1.2 1-1.2h.2v.5c-.4 0-.6.2-.6.6v.5h.6v.5h-.6v3.2zM39.8 42.2c0 .2 0 .2.3.2h.3v.5h-.6c-.4 0-.6-.2-.6-.6v-2.6h-.5v-.5h.5V38h.6v1.2h.6v.5h-.6v2.4z"/></g><g><path d="M370.4 124.1v.6h-3.8l3-4.8h-2.7v-.6h3.8l-3 4.8h2.7zM372.3 120c0 .2-.2.4-.4.4s-.4-.2-.4-.4.2-.4.4-.4.4.2.4.4zm0 4.7h-.6V121h.6v3.7zM374.2 121v.5c.3-.4.6-.6 1-.6s.8.2 1 .7c.3-.5.6-.7 1.2-.7s.7.1.9.4c.2.2.2.4.2 1v2.4h-.6v-2.2c0-.4 0-.6-.1-.7-.1-.2-.4-.3-.6-.3-.5 0-.8.4-.8 1v2.2h-.6v-2.2c0-.4 0-.5-.1-.7-.1-.2-.3-.3-.6-.3-.5 0-.9.4-.9 1v2.2h-.6V121h.6zM380.5 121v.5c.3-.4.6-.6 1-.6s.8.2 1 .7c.3-.5.6-.7 1.2-.7s.7.1.9.4c.2.2.2.4.2 1v2.4h-.6v-2.2c0-.4 0-.6-.1-.7-.1-.2-.4-.3-.6-.3-.5 0-.8.4-.8 1v2.2h-.6v-2.2c0-.4 0-.5-.1-.7-.1-.2-.3-.3-.6-.3-.5 0-.9.4-.9 1v2.2h-.6V121h.6zM386.6 123.1c0 .3 0 .5.2.7.2.3.6.5 1 .5s.9-.2 1.1-.6l.5.2c-.3.6-.9 1-1.6 1-1.1 0-1.9-.8-1.9-1.9s.8-1.9 1.9-1.9 1.9.8 1.9 1.9v.2h-3.1zm2.4-.4c0-.3 0-.4-.2-.6-.2-.3-.6-.5-1-.5s-.8.2-1 .5c-.1.2-.2.3-.2.6h2.4zM391.3 121v.6c.1-.3.2-.4.3-.5.2-.1.4-.2.7-.2h.1v.6h-.2c-.3 0-.6.2-.8.4-.2.2-.2.4-.2.9v1.9h-.6V121h.6zM367.4 130.1v-.6l1.8-1.2v5.4h-.6v-4.4l-1.2.8zM372 130.6c.2 0 .3-.1.5-.1.9 0 1.6.7 1.6 1.6s-.8 1.7-1.7 1.7-1.7-.8-1.7-1.7.1-.7.4-1.2l1.5-2.5h.7l-1.4 2.1zm-.7 1.5c0 .6.5 1.1 1.1 1.1s1.1-.5 1.1-1.1-.5-1.1-1.1-1.1-1.1.5-1.1 1.1zM375.9 133.4c0 .2-.2.4-.4.4s-.4-.2-.4-.4.2-.4.4-.4.4.2.4.4zM376.8 132.5v-.5l2.8-3.7v3.6h.6v.6h-.6v1.2h-.6v-1.2h-2.1zm2.1-2.6l-1.5 2h1.5v-2zM384.3 130v.5c.3-.4.6-.6 1-.6s.8.2 1 .7c.3-.5.6-.7 1.2-.7s.7.1.9.4c.2.2.2.4.2 1v2.4h-.6v-2.2c0-.4 0-.6-.1-.7-.1-.2-.4-.3-.6-.3-.5 0-.8.4-.8 1v2.2h-.6v-2.2c0-.4 0-.5-.1-.7-.1-.2-.3-.3-.6-.3-.5 0-.9.4-.9 1v2.2h-.6V130h.6zM391.9 131.2v.4h-2l1.2-1.6c.3-.5.4-.6.4-.8 0-.3-.2-.4-.5-.4s-.5.2-.5.6h-.4c0-.6.4-1 1-1s1 .3 1 .8-.1.5-.4.9l-.8 1.1h1.1z"/></g><g><path d="M370.1 256.9v.6h-3.8l3-4.8h-2.7v-.6h3.8l-3 4.8h2.7zM371.9 252.8c0 .2-.2.4-.4.4s-.4-.2-.4-.4.2-.4.4-.4.4.2.4.4zm0 4.7h-.6v-3.7h.6v3.7zM373.8 253.8v.5c.3-.4.6-.6 1-.6s.8.2 1 .7c.3-.5.6-.7 1.2-.7s.7.1.9.4c.2.2.2.4.2 1v2.4h-.6v-2.2c0-.4 0-.6-.1-.7-.1-.2-.4-.3-.6-.3-.5 0-.8.4-.8 1v2.2h-.6v-2.2c0-.4 0-.5-.1-.7-.1-.2-.3-.3-.6-.3-.5 0-.9.4-.9 1v2.2h-.6v-3.7h.6zM380.1 253.8v.5c.3-.4.6-.6 1-.6s.8.2 1 .7c.3-.5.6-.7 1.2-.7s.7.1.9.4c.2.2.2.4.2 1v2.4h-.6v-2.2c0-.4 0-.6-.1-.7-.1-.2-.4-.3-.6-.3-.5 0-.8.4-.8 1v2.2h-.6v-2.2c0-.4 0-.5-.1-.7-.1-.2-.3-.3-.6-.3-.5 0-.9.4-.9 1v2.2h-.6v-3.7h.6zM386.2 255.9c0 .3 0 .5.2.7.2.3.6.5 1 .5s.9-.2 1.1-.6l.5.2c-.3.6-.9 1-1.6 1-1.1 0-1.9-.8-1.9-1.9s.8-1.9 1.9-1.9 1.9.8 1.9 1.9v.2h-3.1zm2.4-.4c0-.3 0-.4-.2-.6-.2-.3-.6-.5-1-.5s-.8.2-1 .5c-.1.2-.2.3-.2.6h2.4zM390.9 253.8v.6c.1-.3.2-.4.3-.5.2-.1.4-.2.7-.2h.1v.6h-.2c-.3 0-.6.2-.8.4-.2.2-.2.4-.2.9v1.9h-.6v-3.7h.6zM367 262.9v-.6l1.8-1.2v5.4h-.6v-4.4l-1.2.8zM371.6 263.4c.2 0 .3-.1.5-.1.9 0 1.6.7 1.6 1.6s-.8 1.7-1.7 1.7-1.7-.8-1.7-1.7.1-.7.4-1.2l1.5-2.5h.7l-1.4 2.1zm-.7 1.5c0 .6.5 1.1 1.1 1.1s1.1-.5 1.1-1.1-.5-1.1-1.1-1.1-1.1.5-1.1 1.1zM375.5 266.2c0 .2-.2.4-.4.4s-.4-.2-.4-.4.2-.4.4-.4.4.2.4.4zM376.5 265.3v-.5l2.8-3.7v3.6h.6v.6h-.6v1.2h-.6v-1.2h-2.1zm2.1-2.6l-1.5 2h1.5v-2zM383.9 262.8v.5c.3-.4.6-.6 1-.6s.8.2 1 .7c.3-.5.6-.7 1.2-.7s.7.1.9.4c.2.2.2.4.2 1v2.4h-.6v-2.2c0-.4 0-.6-.1-.7-.1-.2-.4-.3-.6-.3-.5 0-.8.4-.8 1v2.2h-.6v-2.2c0-.4 0-.5-.1-.7-.1-.2-.3-.3-.6-.3-.5 0-.9.4-.9 1v2.2h-.6v-3.7h.6zM391.5 264v.4h-2l1.2-1.6c.3-.5.4-.6.4-.8 0-.3-.2-.4-.5-.4s-.5.2-.5.6h-.4c0-.6.4-1 1-1s1 .3 1 .8-.1.5-.4.9l-.8 1.1h1.1z"/></g><g><path d="M307.6 51c1.1 0 1.7.5 1.7 1.4s-.1.6-.3.9c-.1.2-.3.2-.5.3.3 0 .4.1.6.2.3.2.4.6.4 1s-.2.9-.6 1.2c-.3.2-.7.3-1.3.3h-1.5V51h1.5zm-.8 2.4h.7c.4 0 .7 0 .9-.2.2-.2.3-.4.3-.7s-.2-.6-.4-.8c-.2 0-.4-.1-.9-.1h-.6v1.8zm0 2.4h.7c.6 0 .8 0 1-.2.3-.1.4-.4.4-.8 0-.6-.4-.9-1.2-.9h-.8v1.8zM313.5 52.6h.6v3.7h-.6v-.7c-.4.6-.8.8-1.3.8-1 0-1.7-.8-1.7-1.9s.7-1.9 1.8-1.9 1 .2 1.3.7v-.6zm-2.1.9c-.2.3-.3.6-.3 1 0 .8.5 1.4 1.2 1.4s1.3-.6 1.3-1.4-.5-1.4-1.2-1.4-.7.1-.9.4zM318.3 51h.6v5.3h-.6v-.6c-.4.5-.8.7-1.3.7-1 0-1.7-.8-1.7-1.9s.7-2 1.7-2 1 .2 1.3.6v-2.2zm-2.4 3.5c0 .8.5 1.4 1.2 1.4s1.2-.6 1.2-1.4-.5-1.4-1.2-1.4-1.2.6-1.2 1.4zM305.7 64.1v-.5l2.8-3.7v3.6h.6v.6h-.6v1.2h-.6v-1.2h-2.1zm2.1-2.6l-1.5 2h1.5v-2zM310.9 65c0 .2-.2.4-.4.4s-.4-.2-.4-.4.2-.4.4-.4.4.2.4.4zM312.1 60.6V60h3l-2.1 5.3h-.7l1.9-4.7h-2zM319.2 61.6v.5c.3-.4.6-.6 1-.6s.8.2 1 .7c.3-.5.6-.7 1.2-.7s.7.1.9.4c.2.2.2.4.2 1v2.4h-.6v-2.2c0-.4 0-.6-.1-.7-.1-.2-.4-.3-.6-.3-.5 0-.8.4-.8 1v2.2h-.6v-2.2c0-.4 0-.5-.1-.7-.1-.2-.3-.3-.6-.3-.5 0-.9.4-.9 1v2.2h-.6v-3.7h.6zM326.8 62.8v.4h-2l1.2-1.6c.3-.5.4-.6.4-.8 0-.3-.2-.4-.5-.4s-.5.2-.5.6h-.4c0-.6.4-1 1-1s1 .3 1 .8-.1.5-.4.9l-.8 1.1h1.1z"/></g><g><path d="M277.1 285.9h-.7v-5.3h.7v2.5l2.1-2.5h.8l-2.2 2.6 2.2 2.7h-.9l-2-2.5v2.5zM284.1 284c0 1.1-.8 1.9-1.9 1.9s-1.9-.8-1.9-1.9.8-1.9 1.9-1.9 1.9.8 1.9 1.9zm-3.1 0c0 .8.5 1.4 1.3 1.4s1.2-.6 1.2-1.4-.5-1.4-1.2-1.4-1.3.6-1.3 1.4zM288.1 285.4c-.4.4-.8.5-1.4.5-1.1 0-1.8-.8-1.8-1.9s.8-1.9 1.8-1.9 1 .2 1.3.6l-.4.4c-.3-.3-.6-.4-.9-.4-.7 0-1.2.6-1.2 1.4s.5 1.4 1.2 1.4.6-.1.9-.4l.4.4zM289.7 282.7c.3-.4.7-.6 1.1-.6s.7.1.9.3c.2.2.3.5.3 1v2.5h-.6v-2.4c0-.5-.2-.8-.7-.8s-.5.1-.7.3c-.2.2-.2.4-.2.7v2.2h-.6v-5.3h.6v2.2zM293.7 284.2c0 .3 0 .5.2.7.2.3.6.5 1 .5s.9-.2 1.1-.6l.5.2c-.3.6-.9 1-1.6 1-1.1 0-1.9-.8-1.9-1.9s.8-1.9 1.9-1.9 1.9.8 1.9 1.9v.2h-3.1zm2.4-.4c0-.3 0-.4-.2-.6-.2-.3-.6-.5-1-.5s-.8.2-1 .5c-.1.2-.2.3-.2.6h2.4zM298.4 282.2v.5c.3-.4.6-.6 1.1-.6s.6.1.9.3c.2.2.3.5.3 1v2.5h-.6v-2.4c0-.3 0-.5-.1-.6-.1-.2-.3-.2-.6-.2s-.5.1-.7.3c-.2.2-.2.4-.2.7v2.2h-.6v-3.7h.6zM276.7 291.3v-.6l1.8-1.2v5.4h-.6v-4.4l-1.2.8zM283.3 293.3c0 .6-.1 1-.4 1.2-.3.3-.7.4-1.2.4s-1-.2-1.2-.5c-.3-.3-.4-.6-.4-1.4v-1.8c0-.7 0-1 .3-1.3.3-.3.7-.5 1.2-.5s.9.1 1.2.4c.3.3.4.6.4 1.2v2.1zm-2.5-.1c0 .6 0 .7.2.9.2.2.5.3.8.3s.6-.1.8-.4c.1-.2.2-.4.2-.8v-2c0-.4 0-.6-.3-.8-.2-.2-.4-.2-.7-.2s-.6.1-.8.4c-.1.2-.2.4-.2.8v1.8zM285.3 294.5c0 .2-.2.4-.4.4s-.4-.2-.4-.4.2-.4.4-.4.4.2.4.4zM289.6 293.3c0 .6-.1 1-.4 1.2-.3.3-.7.4-1.2.4s-1-.2-1.2-.5c-.3-.3-.4-.6-.4-1.4v-1.8c0-.7 0-1 .3-1.3.3-.3.7-.5 1.2-.5s.9.1 1.2.4c.3.3.4.6.4 1.2v2.1zm-2.5-.1c0 .6 0 .7.2.9.2.2.5.3.8.3s.6-.1.8-.4c.1-.2.2-.4.2-.8v-2c0-.4 0-.6-.3-.8-.2-.2-.4-.2-.7-.2s-.6.1-.8.4c-.1.2-.2.4-.2.8v1.8zM292.9 291.2v.5c.3-.4.6-.6 1-.6s.8.2 1 .7c.3-.5.6-.7 1.2-.7s.7.1.9.4c.2.2.2.4.2 1v2.4h-.6v-2.2c0-.4 0-.6-.1-.7-.1-.2-.4-.3-.6-.3-.5 0-.8.4-.8 1v2.2h-.6v-2.2c0-.4 0-.5-.1-.7-.1-.2-.3-.3-.6-.3-.5 0-.9.4-.9 1v2.2h-.6v-3.7h.6zM300.5 292.4v.4h-2l1.2-1.6c.3-.5.4-.6.4-.8 0-.3-.2-.4-.5-.4s-.5.2-.5.6h-.4c0-.6.4-1 1-1s1 .3 1 .8-.1.5-.4.9l-.8 1.1h1.1z"/></g></g></svg>