<svg xmlns="http://www.w3.org/2000/svg" viewBox="0 0 440 368.4"><defs><style>.cls-1,.cls-10,.cls-11,.cls-12,.cls-13,.cls-14,.cls-15,.cls-16,.cls-17,.cls-18,.cls-19,.cls-2,.cls-20,.cls-3,.cls-4,.cls-5,.cls-6,.cls-7,.cls-8,.cls-9{fill:none;stroke-linecap:round;stroke-linejoin:round}.cls-1,.cls-10,.cls-11,.cls-12,.cls-13,.cls-14,.cls-15,.cls-16,.cls-17,.cls-19,.cls-2,.cls-20,.cls-3,.cls-4,.cls-5,.cls-6,.cls-8,.cls-9{stroke-width:.1px}.cls-1,.cls-15,.cls-17,.cls-18,.cls-19,.cls-3,.cls-4,.cls-9{stroke:#194164}.cls-1,.cls-9{stroke-dasharray:0 0 0 0 2.9 1.4 .2 1.4}.cls-2{stroke:#646464}.cls-10,.cls-11,.cls-12,.cls-13,.cls-14,.cls-15,.cls-19,.cls-20,.cls-3,.cls-4,.cls-5,.cls-6,.cls-8{stroke-dasharray:0 0 1.4 1.4}.cls-4{stroke-dashoffset:1px}.cls-5{stroke-dashoffset:2.5px}.cls-10,.cls-11,.cls-12,.cls-13,.cls-14,.cls-16,.cls-20,.cls-5,.cls-6,.cls-8{stroke:#969696}.cls-21,.cls-22{fill:#fff}.cls-7{stroke:#000;stroke-width:.3px}.cls-8{stroke-dashoffset:2.8px}.cls-9{stroke-dashoffset:1.9px}.cls-10{stroke-dashoffset:2.4px}.cls-11{stroke-dashoffset:2.7px}.cls-12{stroke-dashoffset:2.5px}.cls-13{stroke-dashoffset:1.4px}.cls-14,.cls-19{stroke-dashoffset:.7px}.cls-22,.cls-23{fill-rule:evenodd}.cls-15{stroke-dashoffset:.2px}.cls-18{stroke-width:.3px}.cls-20{stroke-dashoffset:1.2px}</style></defs><g id="Plan"><path class="cls-23" d="M51.6 346l-2.1 12.9-6.3-.9 2.4-13.2 6 1.2"/><path class="cls-22" d="M49.5 358.5l.9-5.3-6.2-1.2-1 5.3 6.3 1.2"/><path class="cls-22" d="M50.4 353.2l.5-2.2-6.2-1.2-.5 2.2 6.2 1.2"/><path class="cls-16" d="M44.9 349.8l-.5 2.2M46.3 350.1l-.4 2.1M47.5 350.3l-.2 2.2M49 350.5l-.3 2.2M50.4 351l-.5 2.2"/><path class="cls-22" d="M50.9 351l.7-5-6-1.2-.9 5 6.2 1.2"/><path class="cls-16" d="M45.4 346.7l4.1 4.1M48 345.3l3.4 3.3"/><path class="cls-18" d="M49.5 358.5l-6.3-1.2M49.5 358.9l-6.3-.9"/><path class="cls-16" d="M50.9 351l-6.2-1.2M50.4 353.2l-6.2-1.2"/><path class="cls-18" d="M51.6 346l-6-1.2M50.9 351l-6.2-1.2"/><path class="cls-17" d="M49.5 358.9l-6.3-.9M51.6 346l-6-1.2M44.3 349.7l1-5.7-30.6-5.5M44.2 352l-1.1 6.4L0 350.7"/><path class="cls-17" d="M8.9 343.3l35.8 6.5-.5 2.2-37.7-6.7M40.3 351.3l.5-2.2M10.6 346l.2-2.2M44.7 349.8l-.5 2.2M27.9 346.7l-.5 2.4M40.8 349.1l-.5 2.2M23.8 346l-.5 2.4M27.9 346.7l-.5 2.4M10.8 343.8l-.2 2.2M23.8 346l-.5 2.4"/><path class="cls-22" d="M45.6 344.8h-.5l-.7 5h.3"/><path class="cls-16" d="M45.1 346.2l.3.5"/><path class="cls-18" d="M45.1 344.8l-.7 5h.3M45.6 344.8h-.5"/><path class="cls-16" d="M44.7 349.8l-.5 2.2"/><path class="cls-18" d="M43.2 357.3v.7M45.1 344.8l-.7 5h.3M45.6 344.8h-.5"/><path class="cls-23" d="M46.6 352.5l-3.4-.8v16.6h14.7v-21.4l-5.1 4.4-5.7 1.2-.5 5.5v-5.5"/><path class="cls-22" d="M46.6 352.5l-3.4-.8v16.6h3.4v-15.8"/><path class="cls-16" d="M43.5 364.5l3.3 3.3M43.5 360.6l3.3 3.4M43.5 356.5l3.3 3.4M43.5 352.5l3.3 3.3"/><path class="cls-22" d="M47.1 352.5l-.5 5.5v10.3h.5v-15.8"/><path class="cls-22" d="M52.8 351.3l-5.7 1.2v15.8h5.7v-17"/><path class="cls-16" d="M53.1 351.7h-2.7M53.1 353.2h-5.8M53.1 354.6h-5.8M53.1 356.1h-5.8M53.1 357.5h-5.8M53.1 358.9h-5.8M53.1 360.4h-5.8M53.1 361.8h-5.8M53.1 363h-5.8M53.1 364.5h-5.8M53.1 365.9h-5.8M53.1 367.3h-5.8"/><path class="cls-22" d="M57.9 346.9l-5.1 4.4v17h5.1v-21.4"/><path class="cls-16" d="M53.1 366.1l1.9 2.2M53.1 362.1l5 5M53.1 358.2l5 5.1M53.1 354.1l5 5.1M53.5 350.8l4.6 4.3M55.7 348.9l2.4 2.4M57.9 346.9l.2.3"/><path class="cls-18" d="M46.6 368.3V358M43.2 368.3V358"/><path class="cls-16" d="M52.8 368.3v-17M47.1 368.3v-15.8"/><path class="cls-18" d="M57.9 368.3v-21.4M52.8 368.3v-17"/><path class="cls-17" d="M43.2 368.3V358M57.9 368.3v-21.4"/><path class="cls-18" d="M43.2 358v-6.3M46.6 352.5l-3.4-.8M46.6 358v-5.5M154.3 271.3h39.6v29.8h-39.6z"/><path class="cls-17" d="M202.8 302.8v-35.3M199.9 284.5v14M196.8 271.8v13.9M144.7 106.9h69.1v17h-69.1zM213.1 121.8v2.2M196.3 121.8v2.2M179.3 121.8v2.2M162.3 121.8v2.2M145.2 121.8v2.2"/><path class="cls-22" d="M146.1 111.7v8.9c0 .3 0 .5.2.8 0 .2.2.5.4.6s.4.3.6.4c.2 0 .5.2.8.2h11.2c.3 0 .5 0 .8-.2.2 0 .5-.2.6-.4.2-.2.3-.4.4-.6 0-.2.2-.5.2-.8v-8.9c0-.3 0-.5-.2-.8-.1-.2-.2-.5-.4-.6-.2-.2-.4-.3-.6-.4-.2 0-.5-.2-.8-.2h-11.2c-.3 0-.5 0-.8.2-.2 0-.5.2-.6.4-.2.2-.3.4-.4.6-.1.2-.2.5-.2.8"/><path class="cls-17" d="M146.1 111.7v8.9c0 .3 0 .5.2.8 0 .2.2.5.4.6s.4.3.6.4c.2 0 .5.2.8.2h11.2c.3 0 .5 0 .8-.2.2 0 .5-.2.6-.4.2-.2.3-.4.4-.6 0-.2.2-.5.2-.8v-8.9c0-.3 0-.5-.2-.8-.1-.2-.2-.5-.4-.6-.2-.2-.4-.3-.6-.4-.2 0-.5-.2-.8-.2h-11.2c-.3 0-.5 0-.8.2-.2 0-.5.2-.6.4-.2.2-.3.4-.4.6-.1.2-.2.5-.2.8"/><path class="cls-22" d="M154.8 112.9c0-.7-.5-1.2-1.1-1.2s-1.1.5-1.1 1.2.5 1.2 1.1 1.2 1.1-.5 1.1-1.2"/><path class="cls-17" d="M154.8 112.9c0-.7-.5-1.2-1.1-1.2s-1.1.5-1.1 1.2.5 1.2 1.1 1.2 1.1-.5 1.1-1.2"/><path class="cls-21" d="M179.8 107.9h15.8v14.6h-15.8z"/><path class="cls-17" d="M179.8 107.9h15.8v14.6h-15.8z"/><path class="cls-22" d="M194.7 117.9c0-1.5-1.3-2.8-2.9-2.8s-2.9 1.2-2.9 2.8 1.3 2.8 2.9 2.8 2.9-1.2 2.9-2.8"/><path class="cls-17" d="M194.7 117.9c0-1.5-1.3-2.8-2.9-2.8s-2.9 1.2-2.9 2.8 1.3 2.8 2.9 2.8 2.9-1.2 2.9-2.8"/><path class="cls-22" d="M194.9 111.1c0-1.3-1-2.3-2.2-2.3s-2.2 1-2.2 2.3 1 2.3 2.2 2.3 2.2-1 2.2-2.3"/><path class="cls-17" d="M194.9 111.1c0-1.3-1-2.3-2.2-2.3s-2.2 1-2.2 2.3 1 2.3 2.2 2.3 2.2-1 2.2-2.3"/><path class="cls-22" d="M186.3 118c0-1.2-1-2.2-2.2-2.2s-2.2 1-2.2 2.2 1 2.2 2.2 2.2 2.2-1 2.2-2.2"/><path class="cls-17" d="M186.3 118c0-1.2-1-2.2-2.2-2.2s-2.2 1-2.2 2.2 1 2.2 2.2 2.2 2.2-1 2.2-2.2"/><path class="cls-22" d="M187.2 111.5c0-1.6-1.2-2.9-2.8-2.9s-2.8 1.3-2.8 2.9 1.2 2.9 2.8 2.9 2.8-1.3 2.8-2.9"/><path class="cls-17" d="M187.2 111.5c0-1.6-1.2-2.9-2.8-2.9s-2.8 1.3-2.8 2.9 1.2 2.9 2.8 2.9 2.8-1.3 2.8-2.9"/><path class="cls-1" d="M144.7 116.5h69.2"/><path class="cls-17" d="M213.4 116.5h.5M214.8 106.2h-71.3"/><path class="cls-7" d="M214.8 106.9h-71.3"/><path class="cls-17" d="M214.8 104.8h-71.3M214.8 106.2h-71.3"/><path class="cls-7" d="M143.5 106.2v.7"/><path class="cls-17" d="M143.5 104.8v1.4M214.8 106.9h-71.3M214.8 104.8h-71.3"/><path class="cls-7" d="M214.8 106.2v.7"/><path class="cls-17" d="M214.8 104.8v1.4"/><path class="cls-22" d="M201.4 268.2h5.7l-5.7-6.9v6.9"/><path class="cls-16" d="M205.7 266.5l-4.1-4.3M203.5 268.2l-1.9-2.1M206.2 268.2l.5-.7M202.1 268.2l2.9-2.9M201.6 264.9l1.5-1.7"/><path class="cls-22" d="M201.4 268.2h5.7l-5.7-6.9v6.9"/><path class="cls-16" d="M205.7 266.5l-4.1-4.3M203.5 268.2l-1.9-2.1M206.2 268.2l.5-.7M202.1 268.2l2.9-2.9M201.6 264.9l1.5-1.7"/><path class="cls-18" d="M201.4 261.3v6.9M201.4 261.3v6.9M207.4 304v3.3"/><path class="cls-17" d="M202.8 271.3v29.6"/><path class="cls-1" d="M207.4 271.3v29.6"/><path class="cls-17" d="M207.4 300.4v.5"/><path class="cls-22" d="M207.4 268.2v3.1h-4.6v-3.1"/><path class="cls-16" d="M206.7 271.3l-3.2-3.1M207.1 271.3l.5-.4M203.1 271.3l3.1-3.1"/><path class="cls-22" d="M207.4 304v-3.1h-4.6v3.1"/><path class="cls-16" d="M207.1 304l-3.1-3.1M203.3 304l-.2-.3M206.4 304l1.2-1M203.1 303.5l2.4-2.6"/><path class="cls-18" d="M207.4 271.3h-4.6M207.4 300.9h-4.6M207.4 271.3h-4.6M207.4 268.2v3.1M207.4 300.9h-4.6M207.4 304v-3.1M201.4 268.2h1.4M201.4 304h1.4M207.4 268.2v3.1M207.4 304v-3.1M202.8 271.3v-3.1M202.8 300.9v3.1"/><path class="cls-22" d="M200.4 352l7-7v-41l-7 6.9V352"/><path class="cls-16" d="M207.6 304.2h-.2M207.6 308.3l-2.1-2.2M207.6 312.1l-4.3-4M207.6 316.2l-6.2-6M207.6 320.3l-6.9-7M207.6 324.4l-6.9-7M207.6 328.2l-6.9-6.9M207.6 332.3l-6.9-7M207.6 336.4l-6.9-7M207.6 340.2l-6.9-6.9M207.6 344.3l-6.9-7M205.9 346.7l-5.2-5.3M203.8 348.6l-3.1-3.1M201.9 350.8l-1.2-1.5M200.7 350.1l6.9-7M200.7 346l6.9-7M200.7 341.9l6.9-7M200.7 338.1l6.9-7M200.7 334l6.9-7M200.7 329.9l6.9-7M200.7 326.1l6.9-7M200.7 322l6.9-7M200.7 317.9l6.9-7M200.7 313.8l6.9-6.9"/><path class="cls-22" d="M200.4 352l7-7v-41l-7 6.9V352"/><path class="cls-16" d="M207.6 304.2h-.2M207.6 308.3l-2.1-2.2M207.6 312.1l-4.3-4M207.6 316.2l-6.2-6M207.6 320.3l-6.9-7M207.6 324.4l-6.9-7M207.6 328.2l-6.9-6.9M207.6 332.3l-6.9-7M207.6 336.4l-6.9-7M207.6 340.2l-6.9-6.9M207.6 344.3l-6.9-7M205.9 346.7l-5.2-5.3M203.8 348.6l-3.1-3.1M201.9 350.8l-1.2-1.5M200.7 350.1l6.9-7M200.7 346l6.9-7M200.7 341.9l6.9-7M200.7 338.1l6.9-7M200.7 334l6.9-7M200.7 329.9l6.9-7M200.7 326.1l6.9-7M200.7 322l6.9-7M200.7 317.9l6.9-7M200.7 313.8l6.9-6.9"/><path class="cls-18" d="M200.4 310.9V352M207.4 307.3V345M207.4 307.3V345M200.4 310.9V352M207.4 304v3.3"/><path class="cls-23" d="M368.7 169.6h14.6v32.9h-14.6v-32.9"/><path class="cls-22" d="M383.3 169.6h-3.4v32.9h3.4v-32.9"/><path class="cls-16" d="M380.2 200.3l2.1 2.2M380.2 196.2l3.3 3.4M380.2 192.1l3.3 3.4M380.2 188.1l3.3 3.3M380.2 184.2l3.3 3.4M380.2 180.1l3.3 3.4M380.2 176.1l3.3 3.3M380.2 172.2l3.3 3.4M381.6 169.6l1.9 1.9"/><path class="cls-22" d="M379.9 169.6h-.7v32.9h.7v-32.9M379.2 169.6h-5.5v32.9h5.5v-32.9"/><path class="cls-16" d="M373.9 201.5h5.6M373.9 200.1h5.6M373.9 198.6h5.6M373.9 197.4h5.6M373.9 196h5.6M373.9 194.5h5.6M373.9 193.1h5.6M373.9 191.7h5.6M373.9 190.2h5.6M373.9 188.8h5.6M373.9 187.3h5.6M373.9 185.9h5.6M373.9 184.5h5.6M373.9 183h5.6M373.9 181.8h5.6M373.9 180.4h5.6M373.9 178.9h5.6M373.9 177.5h5.6M373.9 176.1h5.6M373.9 174.6h5.6M373.9 173.2h5.6M373.9 171.7h5.6M373.9 170.3h5.6"/><path class="cls-22" d="M373.7 169.6h-5v32.9h5v-32.9"/><path class="cls-16" d="M373.9 169.8l-.4-.2M373.9 173.9l-4.5-4.3M373.9 178l-5-5.1M373.9 181.8l-5-5M373.9 185.9l-5-5M373.9 190l-5-5.1M373.9 194.1l-5-5.1M373.9 197.9l-5-5M373.9 202l-5-5.1M370.3 202.5l-1.4-1.5M372 202.5l1.9-1.7M368.9 201.7l5-5M368.9 197.9l5-5M368.9 193.8l5-5M368.9 189.7l5-5M368.9 185.7l5-5.1M368.9 181.8l5-5M368.9 177.7l5-5M368.9 173.7l4.1-4.1M368.9 169.8v-.2"/><path class="cls-18" d="M379.9 169.6v32.9M383.3 169.6v32.9"/><path class="cls-16" d="M373.7 169.6v32.9M379.2 169.6v32.9"/><path class="cls-18" d="M368.7 169.6v32.9M373.7 169.6v32.9"/><path class="cls-17" d="M383.3 169.6v32.9M368.7 169.6v32.9"/><path class="cls-23" d="M368.7 73.8h14.6v32.9h-14.6V73.8"/><path class="cls-22" d="M383.3 73.8h-3.4v32.9h3.4V73.8"/><path class="cls-16" d="M380.2 104.1l2.6 2.6M380.2 100l3.3 3.3M380.2 95.9l3.3 3.4M380.2 92.1l3.3 3.3M380.2 88l3.3 3.3M380.2 83.9l3.3 3.4M380.2 79.8l3.3 3.4M380.2 76l3.3 3.3M381.9 73.8l1.6 1.5"/><path class="cls-22" d="M379.9 73.8h-.7v32.9h.7V73.8M379.2 73.8h-5.5v32.9h5.5V73.8"/><path class="cls-16" d="M373.9 106.7h5.6M373.9 105.3h5.6M373.9 103.8h5.6M373.9 102.4h5.6M373.9 100.9h5.6M373.9 99.5h5.6M373.9 98.1h5.6M373.9 96.6h5.6M373.9 95.2h5.6M373.9 93.7h5.6M373.9 92.3h5.6M373.9 91.1h5.6M373.9 89.7h5.6M373.9 88.2h5.6M373.9 86.8h5.6M373.9 85.3h5.6M373.9 83.9h5.6M373.9 82.5h5.6M373.9 81h5.6M373.9 79.6h5.6M373.9 78.1h5.6M373.9 76.9h5.6M373.9 75.5h5.6M373.9 74.1h5.6"/><path class="cls-22" d="M373.7 73.8h-5v32.9h5V73.8"/><path class="cls-16" d="M373.9 77.7l-4-3.9M373.9 81.7l-5-5M373.9 85.8l-5-5M373.9 89.7l-5-5.1M373.9 93.7l-5-5M373.9 97.8l-5-5M373.9 101.7l-5-5.1M373.9 105.7l-5-5M370.8 106.7l-1.9-1.9M371.8 106.7l2.1-2.2M368.9 105.5l5-5M368.9 101.7l5-5.1M368.9 97.6l5-5.1M368.9 93.5l5-5M368.9 89.7l5-5.1M368.9 85.6l5-5.1M368.9 81.5l5-5M368.9 77.4l3.6-3.6"/><path class="cls-18" d="M379.9 73.8v32.9M383.3 73.8v32.9"/><path class="cls-16" d="M373.7 73.8v32.9M379.2 73.8v32.9"/><path class="cls-18" d="M368.7 73.8v32.9M373.7 73.8v32.9"/><path class="cls-17" d="M383.3 73.8v32.9M368.7 73.8v32.9"/><path class="cls-18" d="M373.7 73.8h-5M373.7 202.5h-5"/><path class="cls-1" d="M368.7 106.7v62.9"/><path class="cls-17" d="M373.7 106.7h2.2v62.9h-2.2zM375.9 110.5h-2.2M375.9 166h-2.2M373.7 106.7h2.2M373.7 125.7h2.2M373.7 110.5h2.2M373.7 129.7h2.2M373.7 125.7h2.2M373.7 146.5h2.2M373.7 129.7h2.2M373.7 150.9h2.2M373.7 146.5h2.2M373.7 166h2.2M373.7 150.9h2.2M373.7 169.6h2.2"/><path class="cls-18" d="M373.7 106.7h-5"/><path class="cls-17" d="M383.3 171.3h1.9"/><path class="cls-9" d="M385.2 171.3v-66"/><path class="cls-17" d="M385.2 105.3h-.9"/><path class="cls-22" d="M379.3 106.7v1.9h-3.4v-1.9"/><path class="cls-16" d="M376.1 107.9h3.4M379.3 106.7v1.9h-3.4v-1.9"/><path class="cls-22" d="M383.3 106.7v1.9h-3.4v-1.9"/><path class="cls-16" d="M380.2 107.9l.5.7M382.8 106.7l.7.7"/><path class="cls-18" d="M383.3 106.7v1.9h-3.4v-1.9M379.9 108.6h-4"/><path class="cls-22" d="M379.3 169.7v-1.9h-3.4v1.9"/><path class="cls-16" d="M376.1 168.9h3.4M379.3 169.7v-1.9h-3.4v1.9"/><path class="cls-18" d="M373.7 169.6h-5"/><path class="cls-22" d="M383.3 169.6v-1.7h-3.4v1.7"/><path class="cls-16" d="M380.2 168.1l1.4 1.5"/><path class="cls-18" d="M383.3 169.6v-1.7h-3.4v1.7M379.9 167.9h-4"/><path class="cls-23" d="M46.6 242.8v-.5l-3.4.5 2.4 13.2 12.3-2.4-5.1-4.1-5.7-1.4-.5-5.3"/><path class="cls-22" d="M47.1 248.1l-.5-5.3-3.4.5 1 5.2 2.9-.4M52.8 249.5l-5.7-1.4-2.9.4.5 2.4 8.1-1.4"/><path class="cls-16" d="M51.6 249.7l-.2-.7M50.2 250l-.3-1.2M48.7 250.2l-.2-1.9M47.3 250.5l-.2-2.4M46.1 250.7l-.5-2.4"/><path class="cls-22" d="M57.9 253.6l-5.1-4.1-8.1 1.4.9 5.1 12.3-2.4"/><path class="cls-16" d="M45.4 254.5l1.4 1.2M45.9 250.7l4.3 4.3M49.2 250.2l4.3 4.3M52.6 249.5l4.3 4.3"/><path class="cls-18" d="M43.2 243.3l3.4-.5"/><path class="cls-16" d="M44.7 250.9l8.1-1.4M44.2 248.5l2.9-.4"/><path class="cls-18" d="M45.6 256l12.3-2.4M44.7 250.9l8.1-1.4"/><path class="cls-17" d="M45.6 256l12.3-2.4"/><path class="cls-18" d="M43.2 242.8l3.4-.5M46.6 242.8v-.5"/><path class="cls-17" d="M14.7 262.2l30.6-5.5-1-5.8M0 250l43.1-7.8 1.1 6.5"/><path class="cls-17" d="M6.5 255.5l37.7-7 .5 2.4-35.8 6.5M10.6 254.8l.2 2.1M40.3 249.3l.5 2.4M23.8 254.5l-.5-2.1M10.8 256.9l-.2-2.1M27.9 253.8l-.5-2.1M23.8 254.5l-.5-2.1M40.8 251.7l-.5-2.4M27.9 253.8l-.5-2.1M44.7 250.9l-.5-2.4"/><path class="cls-22" d="M45.6 256h-.5l-.7-5.1h.3"/><path class="cls-16" d="M44.9 254.1l.5.4"/><path class="cls-18" d="M45.1 256l-.7-5.1h.3M45.6 256h-.5"/><path class="cls-16" d="M44.7 250.9l-.5-2.4"/><path class="cls-18" d="M43.2 243.3v-.5M45.1 256l-.7-5.1h.3M45.6 256h-.5"/><path class="cls-23" d="M368.7.1h14.6V33h-14.6V.1"/><path class="cls-22" d="M383.3.1h-3.4V33h3.4V.1"/><path class="cls-16" d="M380.2 31.8l.9 1.2M380.2 27.7l3.3 3.4M380.2 23.9l3.3 3.4M380.2 19.8l3.3 3.4M380.2 15.7l3.3 3.4M380.2 11.7l3.3 3.3M380.2 7.8l3.3 3.4M380.2 3.7l3.3 3.4M380.4.1l3.1 2.9"/><path class="cls-22" d="M379.9.1h-.7V33h.7V.1M379.2.1h-5.5V33h5.5V.1"/><path class="cls-16" d="M373.9 32.8h5.6M373.9 31.6h5.6M373.9 30.1h5.6M373.9 28.7h5.6M373.9 27.3h5.6M373.9 25.8h5.6M373.9 24.4h5.6M373.9 22.9h5.6M373.9 21.5h5.6M373.9 20.1h5.6M373.9 18.6h5.6M373.9 17.4h5.6M373.9 16h5.6M373.9 14.5h5.6M373.9 13.1h5.6M373.9 11.7h5.6M373.9 10.2h5.6M373.9 8.8h5.6M373.9 7.3h5.6M373.9 5.9h5.6M373.9 4.5h5.6M373.9 3h5.6M373.9 1.8h5.6M373.9.4h5.6"/><path class="cls-22" d="M373.7.1h-5V33h5V.1"/><path class="cls-16" d="M368.9 32.5l.2.5M368.9 28.5l4.3 4.5M368.9 24.6l5 5.1M368.9 20.5l5 5.1M368.9 16.5l5 5M368.9 12.6l5 5.1M368.9 8.5l5 5.1M368.9 4.5l5 5M368.9.4l5 5M372.5.1l1.4 1.5"/><path class="cls-18" d="M379.9.1V33M383.3.1V33"/><path class="cls-16" d="M373.7.1V33M379.2.1V33"/><path class="cls-18" d="M368.7.1V33M373.7.1V33"/><path class="cls-17" d="M383.3.1V33M368.7.1V33"/><path class="cls-18" d="M373.7 73.8h-5"/><path class="cls-17" d="M375.9 34.9h7.4v-3.3h1.9v43.9h-1.9v-3.6h-7.4"/><path class="cls-1" d="M368.7 33v40.8"/><path class="cls-17" d="M368.7 73.3v.5"/><path class="cls-18" d="M383.3 34.9v-3.3M383.3 71.9v3.6"/><path class="cls-17" d="M373.7 33h2.2v40.8h-2.2zM375.9 36.6h-2.2M375.9 70.2h-2.2M373.7 33h2.2M373.7 51.5h2.2M373.7 36.6h2.2M373.7 55.6h2.2M373.7 51.5h2.2M373.7 70.2h2.2M373.7 55.6h2.2M373.7 73.8h2.2"/><path class="cls-22" d="M379.3 33v1.9h-3.4V33"/><path class="cls-16" d="M376.1 34.2h3.4M379.3 33v1.9h-3.4V33"/><path class="cls-18" d="M373.7 33h-5"/><path class="cls-22" d="M383.3 33v1.9h-3.4V33"/><path class="cls-16" d="M381.1 33l2 1.9"/><path class="cls-18" d="M383.3 33v1.9h-3.4V33M379.9 34.9h-4"/><path class="cls-22" d="M379.3 73.9V72h-3.4v1.9"/><path class="cls-16" d="M376.1 72.6h3.4M379.3 73.9V72h-3.4v1.9"/><path class="cls-18" d="M373.7 73.8h-5"/><path class="cls-22" d="M383.3 73.8v-1.9h-3.4v1.9"/><path class="cls-16" d="M380.2 71.9l1.7 1.9"/><path class="cls-18" d="M383.3 73.8v-1.9h-3.4v1.9M379.9 71.9h-4"/><path class="cls-23" d="M379.9 257.2l3.4-3.4v-10.5h-14.6v20.1h5v-5.7h5.5v-.5h.7"/><path class="cls-22" d="M379.9 257.2l3.4-3.4v-10.5h-3.4v13.9"/><path class="cls-16" d="M380.2 256.2l.2.5M380.2 252.4l2.4 2.4M380.2 248.3l3.3 3.4M380.2 244.2l3.3 3.4M383.1 243.3l.4.4"/><path class="cls-22" d="M379.2 257.2h.7v-13.9h-.7v13.9M373.7 257.7h5.5v-14.4h-5.5v14.4"/><path class="cls-16" d="M373.9 256.9h5.6M373.9 255.5h5.6M373.9 254.1h5.6M373.9 252.6h5.6M373.9 251.2h5.6M373.9 249.7h5.6M373.9 248.3h5.6M373.9 246.9h5.6M373.9 245.4h5.6M373.9 244h5.6"/><path class="cls-22" d="M373.7 243.3h-5v20.1h5v-20.1"/><path class="cls-16" d="M368.9 261l2.2 2.4M368.9 256.9l5 5.1M368.9 253.1l5 5M368.9 249l5 5.1M368.9 244.9l5 5.1M371.1 243.3l2.8 2.8"/><path class="cls-18" d="M379.9 243.3v13.9M383.3 243.3v10.5"/><path class="cls-16" d="M373.7 243.3v14.4M379.2 243.3v13.9"/><path class="cls-18" d="M368.7 243.3v20.1M373.7 243.3v14.4"/><path class="cls-17" d="M383.3 243.3v10.5M368.7 243.3v20.1"/><path class="cls-18" d="M373.7 202.5h-5"/><path class="cls-16" d="M379.2 257.2v.5M379.2 257.7h-5.5"/><path class="cls-18" d="M373.7 257.7v5.7M373.7 263.4h-5"/><path class="cls-17" d="M375.9 204.4h7.4V201h1.9v43.9h-1.9v-3.3h-7.4"/><path class="cls-1" d="M368.7 202.5v40.8"/><path class="cls-17" d="M368.7 242.8v.5"/><path class="cls-18" d="M383.3 204.4V201M383.3 241.6v3.3"/><path class="cls-17" d="M373.7 202.5h2.2v40.8h-2.2zM375.9 206.3h-2.2M375.9 239.7h-2.2M373.7 202.5h2.2M373.7 220.9h2.2M373.7 206.3h2.2M373.7 225h2.2M373.7 220.9h2.2M373.7 239.7h2.2M373.7 225h2.2M373.7 243.3h2.2"/><path class="cls-22" d="M379.3 202.6v1.8h-3.4v-1.8"/><path class="cls-16" d="M376.1 202.9h3.4M379.3 202.6v1.8h-3.4v-1.8"/><path class="cls-18" d="M373.7 202.5h-5"/><path class="cls-22" d="M383.3 202.5v1.9h-3.4v-1.9"/><path class="cls-16" d="M380.2 204.1v.3M382.3 202.5l1.2 1.2"/><path class="cls-18" d="M383.3 202.5v1.9h-3.4v-1.9M379.9 204.4h-4"/><path class="cls-22" d="M379.3 243.4v-1.9h-3.4v1.9"/><path class="cls-16" d="M376.1 242.5h3.4M379.3 243.4v-1.9h-3.4v1.9"/><path class="cls-18" d="M373.7 243.3h-5"/><path class="cls-22" d="M383.3 243.3v-1.7h-3.4v1.7"/><path class="cls-16" d="M381.4 241.6l1.7 1.7"/><path class="cls-18" d="M383.3 243.3v-1.7h-3.4v1.7M379.9 241.6h-4"/><path class="cls-23" d="M57.9 22H43.2V.1h14.7V22"/><path class="cls-22" d="M43.2 22h3.4V.1h-3.4V22"/><path class="cls-16" d="M43.5 19.8l2.1 2.2M43.5 15.7l3.3 3.4M43.5 11.9l3.3 3.4M43.5 7.8l3.3 3.4M43.5 3.7l3.3 3.4M43.7.1L46.8 3"/><path class="cls-22" d="M46.6 22h.5V.1h-.5V22M47.1 22h5.7V.1h-5.7V22"/><path class="cls-16" d="M53.1.4h-5.8M53.1 1.8h-5.8M53.1 3h-5.8M53.1 4.5h-5.8M53.1 5.9h-5.8M53.1 7.3h-5.8M53.1 8.8h-5.8M53.1 10.2h-5.8M53.1 11.7h-5.8M53.1 13.1h-5.8M53.1 14.5h-5.8M53.1 16h-5.8M53.1 17.4h-5.8M53.1 18.6h-5.8M53.1 20.1h-5.8M53.1 21.5h-5.8"/><path class="cls-22" d="M52.8 22h5.1V.1h-5.1V22"/><path class="cls-16" d="M53.1 21.5l.4.5M53.1 17.4l4.5 4.6M53.1 13.3l5 5.1M53.1 9.3l5 5M53.1 5.4l5 5.1M53.1 1.3l5 5.1M55.7.1l2.4 2.2"/><path class="cls-18" d="M46.6 22V.1M43.2 22V.1"/><path class="cls-16" d="M52.8 22V.1M47.1 22V.1"/><path class="cls-18" d="M57.9 22V.1M52.8 22V.1"/><path class="cls-17" d="M43.2 22V.1M57.9 22V.1"/><path class="cls-23" d="M57.9 143.7H43.2V84.9h14.7v58.8"/><path class="cls-22" d="M43.2 143.7h3.4V84.9h-3.4v58.8"/><path class="cls-16" d="M43.5 140.1l3.3 3.3M43.5 136l3.3 3.3M43.5 132.1l3.3 3.4M43.5 128.1l3.3 3.3M43.5 124l3.3 3.3M43.5 120.1l3.3 3.4M43.5 116.1l3.3 3.3M43.5 112l3.3 3.3M43.5 107.9l3.3 3.4M43.5 104.1l3.3 3.3M43.5 100l3.3 3.3M43.5 95.9l3.3 3.4M43.5 92.1l3.3 3.3M43.5 88l3.3 3.3M44.2 84.9l2.6 2.4"/><path class="cls-22" d="M46.6 143.7h.5V84.9h-.5v58.8M47.1 143.7h5.7V84.9h-5.7v58.8"/><path class="cls-16" d="M53.1 85.3h-5.8M53.1 86.8h-5.8M53.1 88.2h-5.8M53.1 89.7h-5.8M53.1 91.1h-5.8M53.1 92.3h-5.8M53.1 93.7h-5.8M53.1 95.2h-5.8M53.1 96.6h-5.8M53.1 98.1h-5.8M53.1 99.5h-5.8M53.1 100.9h-5.8M53.1 102.4h-5.8M53.1 103.8h-5.8M53.1 105.3h-5.8M53.1 106.7h-5.8M53.1 107.9h-5.8M53.1 109.3h-5.8M53.1 110.8h-5.8M53.1 112.2h-5.8M53.1 113.7h-5.8M53.1 115.1h-5.8M53.1 116.5h-5.8M53.1 118h-5.8M53.1 119.4h-5.8M53.1 120.9h-5.8M53.1 122.3h-5.8M53.1 123.5h-5.8M53.1 124.9h-5.8M53.1 126.4h-5.8M53.1 127.8h-5.8M53.1 129.3h-5.8M53.1 130.7h-5.8M53.1 132.1h-5.8M53.1 133.6h-5.8M53.1 135h-5.8M53.1 136.5h-5.8M53.1 137.7h-5.8M53.1 139.1h-5.8M53.1 140.5h-5.8M53.1 142h-5.8M53.1 143.4h-5.8"/><path class="cls-22" d="M52.8 143.7h5.1V84.9h-5.1v58.8"/><path class="cls-16" d="M53.1 141.7l1.9 2M53.1 137.7l5 5M53.1 133.6l5 5M53.1 129.7l5 5.1M53.1 125.7l5 5M53.1 121.6l5 5M53.1 117.5l5 5M53.1 113.7l5 5M53.1 109.6l5 5M53.1 105.5l5 5M53.1 101.7l5 5M53.1 97.6l5 5M53.1 93.5l5 5M53.1 89.7l5 5M53.1 85.6l5 5M56.2 84.9l1.9 1.6"/><path class="cls-18" d="M46.6 143.7V84.9M43.2 143.7V84.9"/><path class="cls-16" d="M52.8 143.7V84.9M47.1 143.7V84.9"/><path class="cls-18" d="M57.9 143.7V84.9M52.8 143.7V84.9"/><path class="cls-17" d="M43.2 143.7V84.9M57.9 143.7V84.9"/><path class="cls-23" d="M47.1 248.1l5.7 1.4 5.1 4.1v-47.1H43.2v42.3l3.4-.5v-5.5l.5 5.3"/><path class="cls-22" d="M43.2 206.5v42.3l3.4-.5v-41.8h-3.4"/><path class="cls-16" d="M43.5 248.3l.2.5M43.5 244.2l3.3 3.4M43.5 240.4l3.3 3.3M43.5 236.3l3.3 3.4M43.5 232.2l3.3 3.4M43.5 228.4l3.3 3.3M43.5 224.3l3.3 3.4M43.5 220.2l3.3 3.4M43.5 216.1l3.3 3.4M43.5 212.3l3.3 3.4M43.5 208.2l3.3 3.4M45.6 206.5l1.2 1"/><path class="cls-22" d="M46.6 206.5v36.3l.5 5.3v-41.6h-.5M47.1 206.5v41.6l5.7 1.4v-43h-5.7"/><path class="cls-16" d="M53.1 207.3h-5.8M53.1 208.7h-5.8M53.1 210.1h-5.8M53.1 211.6h-5.8M53.1 212.8h-5.8M53.1 214.2h-5.8M53.1 215.7h-5.8M53.1 217.1h-5.8M53.1 218.5h-5.8M53.1 220h-5.8M53.1 221.4h-5.8M53.1 222.9h-5.8M53.1 224.3h-5.8M53.1 225.7h-5.8M53.1 227.2h-5.8M53.1 228.4h-5.8M53.1 229.8h-5.8M53.1 231.3h-5.8M53.1 232.7h-5.8M53.1 234.1h-5.8M53.1 235.6h-5.8M53.1 237h-5.8M53.1 238.5h-5.8M53.1 239.9h-5.8M53.1 241.3h-5.8M53.1 242.5h-5.8M53.1 244h-5.8M53.1 245.4h-5.8M53.1 246.9h-5.8M53.1 248.3h-4.8"/><path class="cls-22" d="M52.8 206.5v43l5.1 4.1v-47.1h-5.1"/><path class="cls-16" d="M53.1 245.9l5 5M53.1 241.8l5 5.1M53.1 238l5 5M53.1 233.9l5 5M53.1 229.8l5 5.1M53.1 225.7l5 5.1M53.1 221.9l5 5M53.1 217.8l5 5.1M53.1 213.7l5 5.1M53.1 209.9l5 5M53.8 206.5l4.3 4.4M57.6 206.5l.5.3"/><path class="cls-18" d="M46.6 242.8v-36.3M43.2 242.8v-36.3"/><path class="cls-16" d="M52.8 249.5v-43M47.1 248.1v-41.6"/><path class="cls-18" d="M57.9 253.6v-47.1M52.8 249.5v-43"/><path class="cls-17" d="M43.2 242.8v-36.3M57.9 253.6v-47.1"/><path class="cls-18" d="M43.2 248.8v-6M43.2 248.8l3.4-.5M46.6 248.3v-5.5"/><path class="cls-17" d="M50.4 83.2h-7.2v3.3h-1.9V20.3h1.9v3.6h7.2"/><path class="cls-1" d="M57.9 84.9V22"/><path class="cls-18" d="M43.2 83.2v3.3M43.2 23.9v-3.6"/><path class="cls-17" d="M50.4 22h2.4v62.9h-2.4zM50.4 81.3h2.4M50.4 25.6h2.4M52.8 84.9h-2.4M52.8 65.9h-2.4M52.8 81.3h-2.4M52.8 61.8h-2.4M52.8 65.9h-2.4M52.8 45h-2.4M52.8 61.8h-2.4M52.8 40.9h-2.4M52.8 45h-2.4M52.8 25.6h-2.4M52.8 40.9h-2.4M52.8 22h-2.4"/><path class="cls-22" d="M47.1 84.9v-1.8h3.4v1.8"/><path class="cls-16" d="M50.7 83.9h-3.4M47.1 84.9v-1.8h3.4v1.8"/><path class="cls-18" d="M52.8 84.9h5.1"/><path class="cls-22" d="M43.2 84.9v-1.7h3.4v1.7"/><path class="cls-16" d="M43.5 83.9l.7 1M46.6 83.2l.2.2"/><path class="cls-18" d="M43.2 84.9v-1.7h3.4v1.7M46.6 83.2h3.8"/><path class="cls-22" d="M47.1 22v1.8h3.4V22"/><path class="cls-16" d="M50.7 22.9h-3.4M47.1 22v1.8h3.4V22"/><path class="cls-18" d="M52.8 22h5.1"/><path class="cls-22" d="M43.2 22v1.9h3.4V22"/><path class="cls-16" d="M45.6 22l1.2 1.2"/><path class="cls-18" d="M43.2 22v1.9h3.4V22M46.6 23.9h3.8"/><path class="cls-17" d="M50.4 204.6h-7.2v3.4h-1.9v-66h1.9v3.3h7.2"/><path class="cls-1" d="M57.9 206.5v-62.8"/><path class="cls-18" d="M43.2 204.6v3.4M43.2 145.3V142"/><path class="cls-17" d="M50.4 143.7h2.4v62.9h-2.4zM50.4 202.9h2.4M50.4 147.3h2.4M52.8 206.5h-2.4M52.8 187.6h-2.4M52.8 202.9h-2.4M52.8 183.5h-2.4M52.8 187.6h-2.4M52.8 166.7h-2.4M52.8 183.5h-2.4M52.8 162.6h-2.4M52.8 166.7h-2.4M52.8 147.3h-2.4M52.8 162.6h-2.4M52.8 143.7h-2.4"/><path class="cls-22" d="M47.1 206.5v-1.8h3.4v1.8"/><path class="cls-16" d="M50.7 205.8h-3.4M47.1 206.5v-1.8h3.4v1.8"/><path class="cls-18" d="M52.8 206.5h5.1"/><path class="cls-22" d="M43.2 206.5v-1.9h3.4v1.9"/><path class="cls-16" d="M43.7 204.6l1.9 1.9"/><path class="cls-18" d="M43.2 206.5v-1.9h3.4v1.9M46.6 204.6h3.8"/><path class="cls-22" d="M47.1 143.6v1.8h3.4v-1.8"/><path class="cls-16" d="M50.7 144.9h-3.4M47.1 143.6v1.8h3.4v-1.8"/><path class="cls-18" d="M52.8 143.7h5.1"/><path class="cls-22" d="M43.2 143.7v1.6h3.4v-1.6"/><path class="cls-16" d="M43.5 144.1l1.2 1.2"/><path class="cls-18" d="M43.2 143.7v1.6h3.4v-1.6M46.6 145.3h3.8"/><path class="cls-22" d="M373.7.1v7.2H52.8V.1h320.9"/><path class="cls-16" d="M373.9 1.6L372.5.1M373.9 5.4L368.4.1M371.5 7.3L364.3.1M367.7 7.3L360.5.1M363.6 7.3L356.4.1M359.5 7.3L352.3.1M355.5 7.3L348.3.1M351.6 7.3L344.4.1M347.5 7.3L340.3.1M343.5 7.3L336.3.1M339.6 7.3L332.4.1M335.5 7.3L328.3.1M331.5 7.3L324.3.1M327.6 7.3L320.4.1M323.5 7.3L316.3.1M319.5 7.3L312.3.1M315.4 7.3L308.2.1M311.5 7.3L304.3.1M307.5 7.3L300.3.1M303.4 7.3L296.2.1M299.5 7.3L292.3.1M295.5 7.3L288.3.1M291.4 7.3L284.2.1M287.5 7.3L280.3.1M283.5 7.3L276.3.1M279.4 7.3L272.2.1M275.3 7.3L268.1.1M271.5 7.3L264.3.1M267.4 7.3L260.2.1M263.3 7.3L256.1.1M259.5 7.3L252.3.1M255.4 7.3L248.2.1M251.3 7.3L244.1.1M247.5 7.3L240.3.1M243.4 7.3L236.2.1M239.3 7.3L232.1.1M235.2 7.3L228 .1M231.4 7.3L224.2.1M227.3 7.3L220.1.1M223.2 7.3L216 .1M219.4 7.3L212.2.1M215.3 7.3L208.1.1M211.2 7.3L204 .1M207.1 7.3L199.9.1M203.3 7.3L196.1.1M199.2 7.3L192 .1M195.1 7.3L187.9.1M191.3 7.3L184.1.1M187.2 7.3L180 .1M183.1 7.3L175.9.1M179.3 7.3L172.1.1M175.2 7.3L168 .1M171.1 7.3L163.9.1M167.1 7.3L159.9.1M163.2 7.3L156 .1M159.1 7.3L151.9.1M155.1 7.3L147.9.1M151.2 7.3L144 .1M147.1 7.3L139.9.1M143.1 7.3L135.9.1M139.2 7.3L132 .1M135.1 7.3L127.9.1M131.1 7.3L123.9.1M127 7.3L119.8.1M123.1 7.3L115.9.1M119.1 7.3L111.9.1M115 7.3L107.8.1M111.1 7.3L103.9.1M107.1 7.3L99.9.1M103 7.3L95.8.1M98.9 7.3L91.7.1M95.1 7.3L87.9.1M91 7.3L83.8.1M86.9 7.3L79.7.1M83.1 7.3L75.9.1M79 7.3L71.8.1M74.9 7.3L67.7.1M71.1 7.3L63.9.1M67 7.3L59.8.1M62.9 7.3L55.7.1M58.8 7.3l-5.7-6M55 7.3l-1.9-1.9M370.8 7.3l3.1-3.1M366.7 7.3l7.2-6.9M362.9 7.3l7.2-7.2M358.8 7.3L366 .1M354.7 7.3l7.2-7.2M350.7 7.3l7.2-7.2M346.8 7.3L354 .1M342.7 7.3l7.2-7.2M338.7 7.3l7.2-7.2M334.8 7.3L342 .1M330.7 7.3l7.2-7.2M326.7 7.3l7.2-7.2M322.8 7.3L330 .1M318.7 7.3l7.2-7.2M314.7 7.3l7.2-7.2M310.6 7.3l7.2-7.2M306.7 7.3l7.2-7.2M302.7 7.3l7.2-7.2M298.6 7.3l7.2-7.2M294.7 7.3l7.2-7.2M290.7 7.3l7.2-7.2M286.6 7.3l7.2-7.2M282.7 7.3l7.2-7.2M278.7 7.3l7.2-7.2M274.6 7.3l7.2-7.2M270.5 7.3l7.2-7.2M266.7 7.3l7.2-7.2M262.6 7.3l7.2-7.2M258.5 7.3l7.2-7.2M254.7 7.3l7.2-7.2M250.6 7.3l7.2-7.2M246.5 7.3l7.2-7.2M242.4 7.3l7.2-7.2M238.6 7.3l7.2-7.2M234.5 7.3l7.2-7.2M230.4 7.3l7.2-7.2M226.6 7.3l7.2-7.2M222.5 7.3l7.2-7.2M218.4 7.3l7.2-7.2M214.6 7.3l7.2-7.2M210.5 7.3l7.2-7.2M206.4 7.3l7.2-7.2M202.3 7.3l7.2-7.2M198.5 7.3l7.2-7.2M194.4 7.3l7.2-7.2M190.3 7.3l7.2-7.2M186.5 7.3l7.2-7.2M182.4 7.3l7.2-7.2M178.3 7.3l7.2-7.2M174.5 7.3l7.2-7.2M170.4 7.3l7.2-7.2M166.3 7.3l7.2-7.2M162.3 7.3l7.2-7.2M158.4 7.3l7.2-7.2M154.3 7.3l7.2-7.2M150.3 7.3l7.2-7.2M146.4 7.3l7.2-7.2M142.3 7.3l7.2-7.2M138.3 7.3l7.2-7.2M134.2 7.3l7.2-7.2M130.3 7.3l7.2-7.2M126.3 7.3l7.2-7.2M122.2 7.3l7.2-7.2M118.3 7.3l7.2-7.2M114.3 7.3l7.2-7.2M110.2 7.3l7.2-7.2M106.3 7.3l7.2-7.2M102.3 7.3l7.2-7.2M98.2 7.3l7.2-7.2M94.1 7.3l7.2-7.2M90.3 7.3L97.5.1M86.2 7.3L93.4.1M82.1 7.3L89.3.1M78.3 7.3L85.5.1M74.2 7.3L81.4.1M70.1 7.3L77.3.1M66.3 7.3L73.5.1M62.2 7.3L69.4.1M58.1 7.3L65.3.1M54 7.3L61.2.1M53.1 4.5L57.4.1M53.1.6l.2-.5"/><path class="cls-22" d="M373.7 7.3V.1H52.8v7.2h320.9"/><path class="cls-16" d="M373.9 1.6L372.5.1M373.9 5.4L368.4.1M371.5 7.3L364.3.1M367.7 7.3L360.5.1M363.6 7.3L356.4.1M359.5 7.3L352.3.1M355.5 7.3L348.3.1M351.6 7.3L344.4.1M347.5 7.3L340.3.1M343.5 7.3L336.3.1M339.6 7.3L332.4.1M335.5 7.3L328.3.1M331.5 7.3L324.3.1M327.6 7.3L320.4.1M323.5 7.3L316.3.1M319.5 7.3L312.3.1M315.4 7.3L308.2.1M311.5 7.3L304.3.1M307.5 7.3L300.3.1M303.4 7.3L296.2.1M299.5 7.3L292.3.1M295.5 7.3L288.3.1M291.4 7.3L284.2.1M287.5 7.3L280.3.1M283.5 7.3L276.3.1M279.4 7.3L272.2.1M275.3 7.3L268.1.1M271.5 7.3L264.3.1M267.4 7.3L260.2.1M263.3 7.3L256.1.1M259.5 7.3L252.3.1M255.4 7.3L248.2.1M251.3 7.3L244.1.1M247.5 7.3L240.3.1M243.4 7.3L236.2.1M239.3 7.3L232.1.1M235.2 7.3L228 .1M231.4 7.3L224.2.1M227.3 7.3L220.1.1M223.2 7.3L216 .1M219.4 7.3L212.2.1M215.3 7.3L208.1.1M211.2 7.3L204 .1M207.1 7.3L199.9.1M203.3 7.3L196.1.1M199.2 7.3L192 .1M195.1 7.3L187.9.1M191.3 7.3L184.1.1M187.2 7.3L180 .1M183.1 7.3L175.9.1M179.3 7.3L172.1.1M175.2 7.3L168 .1M171.1 7.3L163.9.1M167.1 7.3L159.9.1M163.2 7.3L156 .1M159.1 7.3L151.9.1M155.1 7.3L147.9.1M151.2 7.3L144 .1M147.1 7.3L139.9.1M143.1 7.3L135.9.1M139.2 7.3L132 .1M135.1 7.3L127.9.1M131.1 7.3L123.9.1M127 7.3L119.8.1M123.1 7.3L115.9.1M119.1 7.3L111.9.1M115 7.3L107.8.1M111.1 7.3L103.9.1M107.1 7.3L99.9.1M103 7.3L95.8.1M98.9 7.3L91.7.1M95.1 7.3L87.9.1M91 7.3L83.8.1M86.9 7.3L79.7.1M83.1 7.3L75.9.1M79 7.3L71.8.1M74.9 7.3L67.7.1M71.1 7.3L63.9.1M67 7.3L59.8.1M62.9 7.3L55.7.1M58.8 7.3l-5.7-6M55 7.3l-1.9-1.9M370.8 7.3l3.1-3.1M366.7 7.3l7.2-6.9M362.9 7.3l7.2-7.2M358.8 7.3L366 .1M354.7 7.3l7.2-7.2M350.7 7.3l7.2-7.2M346.8 7.3L354 .1M342.7 7.3l7.2-7.2M338.7 7.3l7.2-7.2M334.8 7.3L342 .1M330.7 7.3l7.2-7.2M326.7 7.3l7.2-7.2M322.8 7.3L330 .1M318.7 7.3l7.2-7.2M314.7 7.3l7.2-7.2M310.6 7.3l7.2-7.2M306.7 7.3l7.2-7.2M302.7 7.3l7.2-7.2M298.6 7.3l7.2-7.2M294.7 7.3l7.2-7.2M290.7 7.3l7.2-7.2M286.6 7.3l7.2-7.2M282.7 7.3l7.2-7.2M278.7 7.3l7.2-7.2M274.6 7.3l7.2-7.2M270.5 7.3l7.2-7.2M266.7 7.3l7.2-7.2M262.6 7.3l7.2-7.2M258.5 7.3l7.2-7.2M254.7 7.3l7.2-7.2M250.6 7.3l7.2-7.2M246.5 7.3l7.2-7.2M242.4 7.3l7.2-7.2M238.6 7.3l7.2-7.2M234.5 7.3l7.2-7.2M230.4 7.3l7.2-7.2M226.6 7.3l7.2-7.2M222.5 7.3l7.2-7.2M218.4 7.3l7.2-7.2M214.6 7.3l7.2-7.2M210.5 7.3l7.2-7.2M206.4 7.3l7.2-7.2M202.3 7.3l7.2-7.2M198.5 7.3l7.2-7.2M194.4 7.3l7.2-7.2M190.3 7.3l7.2-7.2M186.5 7.3l7.2-7.2M182.4 7.3l7.2-7.2M178.3 7.3l7.2-7.2M174.5 7.3l7.2-7.2M170.4 7.3l7.2-7.2M166.3 7.3l7.2-7.2M162.3 7.3l7.2-7.2M158.4 7.3l7.2-7.2M154.3 7.3l7.2-7.2M150.3 7.3l7.2-7.2M146.4 7.3l7.2-7.2M142.3 7.3l7.2-7.2M138.3 7.3l7.2-7.2M134.2 7.3l7.2-7.2M130.3 7.3l7.2-7.2M126.3 7.3l7.2-7.2M122.2 7.3l7.2-7.2M118.3 7.3l7.2-7.2M114.3 7.3l7.2-7.2M110.2 7.3l7.2-7.2M106.3 7.3l7.2-7.2M102.3 7.3l7.2-7.2M98.2 7.3l7.2-7.2M94.1 7.3l7.2-7.2M90.3 7.3L97.5.1M86.2 7.3L93.4.1M82.1 7.3L89.3.1M78.3 7.3L85.5.1M74.2 7.3L81.4.1M70.1 7.3L77.3.1M66.3 7.3L73.5.1M62.2 7.3L69.4.1M58.1 7.3L65.3.1M54 7.3L61.2.1M53.1 4.5L57.4.1M53.1.6l.2-.5"/><path class="cls-18" d="M373.7.1H52.8M373.7 7.3H52.8M52.8.1v7.2M373.7 7.3H52.8M373.7.1H52.8M373.7.1v7.2"/><path class="cls-22" d="M139.5 249.5v4.3H84v-4.3h55.5"/><path class="cls-16" d="M84.3 250.5l.7-1M85 253.8l4.3-4.3M89.3 253.8l4.3-4.3M93.6 253.8l4.3-4.3M97.7 253.8l4.3-4.3M102 253.8l4.3-4.3M106.3 253.8l4.4-4.3M110.4 253.8l4.3-4.3M114.7 253.8l4.4-4.3M119.1 253.8l4.3-4.3M123.1 253.8l4.4-4.3M127.5 253.8l4.3-4.3M131.8 253.8l4.3-4.3M136.1 253.8l3.6-3.6"/><path class="cls-22" d="M139.5 253.8v-4.3H84v4.3h55.5"/><path class="cls-16" d="M84.3 250.5l.7-1M85 253.8l4.3-4.3M89.3 253.8l4.3-4.3M93.6 253.8l4.3-4.3M97.7 253.8l4.3-4.3M102 253.8l4.3-4.3M106.3 253.8l4.4-4.3M110.4 253.8l4.3-4.3M114.7 253.8l4.4-4.3M119.1 253.8l4.3-4.3M123.1 253.8l4.4-4.3M127.5 253.8l4.3-4.3M131.8 253.8l4.3-4.3M136.1 253.8l3.6-3.6"/><path class="cls-18" d="M139.5 249.5H84M139.5 253.8H84M139.5 253.8H84M139.5 249.5H84"/><path class="cls-17" d="M82.3 249.5v4.3M59.5 249.5v4.3"/><path class="cls-18" d="M84 249.5v4.3M57.9 249.5v4.3"/><path class="cls-16" d="M59.6 253.7c0 12.4 10.2 22.7 22.7 22.7M82.3 253.8v22.6"/><path class="cls-17" d="M14.7 338.5v-76.3M0 350.7V250M8.9 257.3v86m-2.3 1.9v-89.8M6.5 341.2h2.4M6.5 259.6h2.4M8.9 323.9H6.5M8.9 341.2H6.5M8.9 319.6H6.5M8.9 323.9H6.5M8.9 302.3H6.5M8.9 319.6H6.5M8.9 298.2H6.5M8.9 302.3H6.5M8.9 280.9H6.5M8.9 298.2H6.5M8.9 276.9H6.5M8.9 280.9H6.5M8.9 259.6H6.5M8.9 276.9H6.5"/><path class="cls-23" d="M379.2 257.7h-5.5v5.7h39.8v-9.6h-30.2l-3.4 3.4h-.7v.5"/><path class="cls-22" d="M413.5 253.8h-30.2l-3.4 3.4h33.6v-3.4"/><path class="cls-16" d="M380.4 256.7l.5.5M382.6 254.8l2.4 2.4M385.7 253.8l3.4 3.4M389.5 253.8l3.4 3.4M393.6 253.8l3.4 3.4M397.7 253.8l3.4 3.4M401.5 253.8l3.4 3.4M405.6 253.8l3.4 3.4M409.7 253.8l3.4 3.4M413.5 253.8h.3"/><path class="cls-22" d="M413.5 257.2h-34.3v.5h34.3v-.5M413.5 257.7h-39.8v5.7h39.8v-5.7"/><path class="cls-16" d="M413.1 263.4v-5.7M411.6 263.4v-5.7M410.2 263.4v-5.7M408.7 263.4v-5.7M407.3 263.4v-5.7M405.9 263.4v-5.7M404.4 263.4v-5.7M403 263.4v-5.7M401.8 263.4v-5.7M400.3 263.4v-5.7M398.9 263.4v-5.7M397.5 263.4v-5.7M396 263.4v-5.7M394.6 263.4v-5.7M393.1 263.4v-5.7M391.7 263.4v-5.7M390.3 263.4v-5.7M388.8 263.4v-5.7M387.4 263.4v-5.7M386.2 263.4v-5.7M384.7 263.4v-5.7M383.3 263.4v-5.7M381.9 263.4v-5.7M380.4 263.4v-5.7M379 263.4v-5.7M377.5 263.4v-5.7M376.1 263.4v-5.7M374.7 263.4v-5.7"/><path class="cls-18" d="M379.9 257.2h33.6M383.3 253.8h30.2"/><path class="cls-16" d="M373.7 263.4h39.8M379.2 257.7h34.3"/><path class="cls-17" d="M383.3 253.8h30.2M373.7 263.4h39.8"/><path class="cls-16" d="M373.7 257.7h5.5M373.7 257.7v5.7"/><path class="cls-17" d="M368.7 263.4h5"/><path class="cls-22" d="M406.3 345l7.2 7v-88.6l-7.2 5.1V345"/><path class="cls-16" d="M413.8 265.8l-1.5-1.4M413.8 269.9l-3.9-3.8M413.8 274l-6.3-6.3M413.8 277.8l-7.2-7.2M413.8 281.9l-7.2-7.2M413.8 286l-7.2-7.2M413.8 289.8l-7.2-7.2M413.8 293.9l-7.2-7.2M413.8 298l-7.2-7.2M413.8 301.8l-7.2-7.2M413.8 305.9l-7.2-7.2M413.8 310l-7.2-7.2M413.8 314.1l-7.2-7.2M413.8 317.9l-7.2-7.2M413.8 322l-7.2-7.2M413.8 326.1l-7.2-7.2M413.8 329.9l-7.2-7.2M413.8 334l-7.2-7.2M413.8 338.1l-7.2-7.2M413.8 342.1l-7.2-7.2M413.8 346l-7.2-7.2M413.8 350.1l-7.2-7.2M412.3 350.8l1.5-1.5M410.2 348.6l3.6-3.3M408.3 346.7l5.5-5.3M406.6 344.5l7.2-7.2M406.6 340.5l7.2-7.2M406.6 336.4l7.2-7.2M406.6 332.5l7.2-7.2M406.6 328.5l7.2-7.2M406.6 324.4l7.2-7.2M406.6 320.5l7.2-7.2M406.6 316.5l7.2-7.2M406.6 312.4l7.2-7.2M406.6 308.5l7.2-7.2M406.6 304.5l7.2-7.2M406.6 300.4l7.2-7.2M406.6 296.3l7.2-7.2M406.6 292.5l7.2-7.2M406.6 288.4l7.2-7.2M406.6 284.3l7.2-7.2M406.6 280.5l7.2-7.2M406.6 276.4l7.2-7.2M406.6 272.3l7.2-7.2"/><path class="cls-22" d="M406.3 345l7.2 7v-88.6l-7.2 5.1V345"/><path class="cls-16" d="M413.8 265.8l-1.5-1.4M413.8 269.9l-3.9-3.8M413.8 274l-6.3-6.3M413.8 277.8l-7.2-7.2M413.8 281.9l-7.2-7.2M413.8 286l-7.2-7.2M413.8 289.8l-7.2-7.2M413.8 293.9l-7.2-7.2M413.8 298l-7.2-7.2M413.8 301.8l-7.2-7.2M413.8 305.9l-7.2-7.2M413.8 310l-7.2-7.2M413.8 314.1l-7.2-7.2M413.8 317.9l-7.2-7.2M413.8 322l-7.2-7.2M413.8 326.1l-7.2-7.2M413.8 329.9l-7.2-7.2M413.8 334l-7.2-7.2M413.8 338.1l-7.2-7.2M413.8 342.1l-7.2-7.2M413.8 346l-7.2-7.2M413.8 350.1l-7.2-7.2M412.3 350.8l1.5-1.5M410.2 348.6l3.6-3.3M408.3 346.7l5.5-5.3M406.6 344.5l7.2-7.2M406.6 340.5l7.2-7.2M406.6 336.4l7.2-7.2M406.6 332.5l7.2-7.2M406.6 328.5l7.2-7.2M406.6 324.4l7.2-7.2M406.6 320.5l7.2-7.2M406.6 316.5l7.2-7.2M406.6 312.4l7.2-7.2M406.6 308.5l7.2-7.2M406.6 304.5l7.2-7.2M406.6 300.4l7.2-7.2M406.6 296.3l7.2-7.2M406.6 292.5l7.2-7.2M406.6 288.4l7.2-7.2M406.6 284.3l7.2-7.2M406.6 280.5l7.2-7.2M406.6 276.4l7.2-7.2M406.6 272.3l7.2-7.2"/><path class="cls-18" d="M406.3 268.5V345M413.5 263.4V352M413.5 263.4V352M406.3 268.5V345"/><path class="cls-22" d="M146.7 304v6.9h53.7l7-6.9h-60.7"/><path class="cls-16" d="M207.4 304.2l-.3-.2M205.5 306.1l-2.2-2.1M203.3 308.1l-4.1-4.1M201.4 310.2l-6.3-6.2M198.3 310.9l-7-6.9M194.2 310.9l-7-6.9M190.1 310.9l-7-6.9M186.3 310.9l-7-6.9M182.2 310.9l-7-6.9M178.1 310.9l-7-6.9M174 310.9l-6.9-6.9M170.2 310.9l-7-6.9M166.1 310.9l-7-6.9M162 310.9l-6.9-6.9M158.2 310.9l-7-6.9M154.1 310.9l-7-6.9M150 310.9l-3.1-3.3M199.5 310.9l6.9-6.9M195.4 310.9l6.9-6.9M191.5 310.9l7-6.9M187.5 310.9l6.9-6.9M183.4 310.9l6.9-6.9M179.5 310.9l7-6.9M175.5 310.9l6.9-6.9M171.4 310.9l6.9-6.9M167.5 310.9l7-6.9M163.5 310.9l6.9-6.9M159.4 310.9l6.9-6.9M155.3 310.9l7-6.9M151.5 310.9l6.9-6.9M147.4 310.9l6.9-6.9M146.9 307.6l3.4-3.6"/><path class="cls-22" d="M146.7 304v6.9h53.7l7-6.9h-60.7"/><path class="cls-16" d="M207.4 304.2l-.3-.2M205.5 306.1l-2.2-2.1M203.3 308.1l-4.1-4.1M201.4 310.2l-6.3-6.2M198.3 310.9l-7-6.9M194.2 310.9l-7-6.9M190.1 310.9l-7-6.9M186.3 310.9l-7-6.9M182.2 310.9l-7-6.9M178.1 310.9l-7-6.9M174 310.9l-6.9-6.9M170.2 310.9l-7-6.9M166.1 310.9l-7-6.9M162 310.9l-6.9-6.9M158.2 310.9l-7-6.9M154.1 310.9l-7-6.9M150 310.9l-3.1-3.3M199.5 310.9l6.9-6.9M195.4 310.9l6.9-6.9M191.5 310.9l7-6.9M187.5 310.9l6.9-6.9M183.4 310.9l6.9-6.9M179.5 310.9l7-6.9M175.5 310.9l6.9-6.9M171.4 310.9l6.9-6.9M167.5 310.9l7-6.9M163.5 310.9l6.9-6.9M159.4 310.9l6.9-6.9M155.3 310.9l7-6.9M151.5 310.9l6.9-6.9M147.4 310.9l6.9-6.9M146.9 307.6l3.4-3.6"/><path class="cls-18" d="M201.4 304h-54.7M200.4 310.9h-53.7M200.4 310.9h-53.7M201.4 304h-54.7M207.4 304"/><path class="cls-22" d="M413.5 352l-7.2-7h-1.9v7h9.1"/><path class="cls-16" d="M411.6 352l-6.9-7M407.5 352l-2.8-3.1M411.1 352l1.2-1.2M407.1 352l3.1-3.4M404.7 350.5l3.6-3.8M404.7 346.5l1.2-1.5"/><path class="cls-22" d="M413.5 352l-7.2-7h-1.9v7h9.1"/><path class="cls-16" d="M411.6 352l-6.9-7M407.5 352l-2.8-3.1M411.1 352l1.2-1.2M407.1 352l3.1-3.4M404.7 350.5l3.6-3.8M404.7 346.5l1.2-1.5"/><path class="cls-18" d="M404.4 352h9.1M404.4 345h1.9M404.4 345h1.9M404.4 352h9.1"/><path class="cls-22" d="M237.4 352v-7H372v7H237.4"/><path class="cls-16" d="M372.3 348.6l-3.6-3.6M371.5 352l-6.9-7M367.5 352l-7-7M363.4 352l-7-7M359.5 352l-6.9-7M355.5 352l-7-7M351.4 352l-7-7M347.5 352l-6.9-7M343.5 352l-7-7M339.4 352l-7-7M335.3 352l-7-7M331.5 352l-7-7M327.4 352l-7-7M323.3 352l-7-7M319.5 352l-7-7M315.4 352l-7-7M311.3 352l-7-7M307.5 352l-7-7M303.4 352l-7-7M299.3 352l-7-7M295.2 352l-6.9-7M291.4 352l-7-7M287.3 352l-7-7M283.2 352l-6.9-7M279.4 352l-7-7M275.3 352l-7-7M271.2 352l-6.9-7M267.4 352l-7-7M263.3 352l-7-7M259.2 352l-6.9-7M255.1 352l-6.9-7M251.3 352l-7-7M247.2 352l-6.9-7M243.1 352l-5.5-5.8M239.3 352l-1.7-1.7M370.8 352l1.5-1.2M367 352l5.3-5.3M362.9 352l7-7M358.8 352l7-7M355 352l6.9-7M350.9 352l7-7M346.8 352l7-7M343 352l6.9-7M338.9 352l7-7M334.8 352l7-7M330.7 352l7-7M326.9 352l7-7M322.8 352l7-7M318.7 352l7-7M314.9 352l7-7M310.8 352l7-7M306.7 352l7-7M302.9 352l7-7M298.8 352l7-7M294.7 352l7-7M290.7 352l6.9-7M286.8 352l7-7M282.7 352l7-7M278.7 352l6.9-7M274.8 352l7-7M270.7 352l7-7M266.7 352l6.9-7M262.6 352l6.9-7M258.7 352l7-7M254.7 352l6.9-7M250.6 352l6.9-7M246.7 352l7-7M242.7 352l6.9-7M238.6 352l6.9-7M237.6 349.1l4.1-4.1M237.6 345"/><path class="cls-22" d="M237.4 345v7H372v-7H237.4"/><path class="cls-16" d="M372.3 348.6l-3.6-3.6M371.5 352l-6.9-7M367.5 352l-7-7M363.4 352l-7-7M359.5 352l-6.9-7M355.5 352l-7-7M351.4 352l-7-7M347.5 352l-6.9-7M343.5 352l-7-7M339.4 352l-7-7M335.3 352l-7-7M331.5 352l-7-7M327.4 352l-7-7M323.3 352l-7-7M319.5 352l-7-7M315.4 352l-7-7M311.3 352l-7-7M307.5 352l-7-7M303.4 352l-7-7M299.3 352l-7-7M295.2 352l-6.9-7M291.4 352l-7-7M287.3 352l-7-7M283.2 352l-6.9-7M279.4 352l-7-7M275.3 352l-7-7M271.2 352l-6.9-7M267.4 352l-7-7M263.3 352l-7-7M259.2 352l-6.9-7M255.1 352l-6.9-7M251.3 352l-7-7M247.2 352l-6.9-7M243.1 352l-5.5-5.8M239.3 352l-1.7-1.7M370.8 352l1.5-1.2M367 352l5.3-5.3M362.9 352l7-7M358.8 352l7-7M355 352l6.9-7M350.9 352l7-7M346.8 352l7-7M343 352l6.9-7M338.9 352l7-7M334.8 352l7-7M330.7 352l7-7M326.9 352l7-7M322.8 352l7-7M318.7 352l7-7M314.9 352l7-7M310.8 352l7-7M306.7 352l7-7M302.9 352l7-7M298.8 352l7-7M294.7 352l7-7M290.7 352l6.9-7M286.8 352l7-7M282.7 352l7-7M278.7 352l6.9-7M274.8 352l7-7M270.7 352l7-7M266.7 352l6.9-7M262.6 352l6.9-7M258.7 352l7-7M254.7 352l6.9-7M250.6 352l6.9-7M246.7 352l7-7M242.7 352l6.9-7M238.6 352l6.9-7M237.6 349.1l4.1-4.1M237.6 345"/><path class="cls-18" d="M237.4 352H372M237.4 345H372M237.4 345H372M237.4 352H372"/><path class="cls-22" d="M205.2 352v-4.6l-4.8 4.6h4.8"/><path class="cls-16" d="M205.5 350.3l-1.5-1.4M203.1 352l-1.2-1.2M202.6 352l2.9-2.9"/><path class="cls-22" d="M205.2 352v-4.6l-4.8 4.6h4.8"/><path class="cls-16" d="M205.5 350.3l-1.5-1.4M203.1 352l-1.2-1.2M202.6 352l2.9-2.9"/><path class="cls-18" d="M200.4 352h4.8M200.4 352h4.8"/><path class="cls-17" d="M372 351h2.6v1.7H372zM401.8 351h2.6v1.7h-2.6zM374.7 351h27.1v1.7h-27.1zM374.7 351h27.1"/><path class="cls-1" d="M374.4 345h27.9"/><path class="cls-17" d="M401.8 345h.5"/><path class="cls-22" d="M372 345h2.4v6H372"/><path class="cls-16" d="M374.7 346.9l-2.2-1.9M374.7 351l-2.4-2.4M372.3 350.8l2.4-2.4M372.3 346.7l1.6-1.7"/><path class="cls-22" d="M404.4 345h-2.1v6h2.1"/><path class="cls-16" d="M404.7 348.9l-2.2-2.2M402.5 351v-.2M403.9 351l.8-.5M402.5 348.6l2.2-2.1"/><path class="cls-18" d="M374.4 345v6M402.3 345v6M374.4 345v6M372 345h2.4M402.3 345v6M404.4 345h-2.1M372 352v-1M404.4 352v-1M372 345h2.4M404.4 345h-2.1M374.4 351H372M402.3 351h2.1"/><path class="cls-17" d="M205.2 351h2.4v1.7h-2.4zM235 351h2.4v1.7H235zM207.6 351H235v1.7h-27.4zM207.6 351H235"/><path class="cls-1" d="M207.4 345h27.8"/><path class="cls-17" d="M234.7 345h.5"/><path class="cls-22" d="M205.2 345h2.2v5.9h-2.2v1.2"/><path class="cls-16" d="M207.6 348.4l-2.1-2.2M206.2 351l-.7-.7M205.5 349.1l2.1-2.2M205.5 345.3v-.3"/><path class="cls-18" d="M207.4 345v5.9h-2.2v1.2"/><path class="cls-22" d="M237.4 345h-2.2v6h2.2v1"/><path class="cls-16" d="M237.6 346.2l-1.4-1.2M237.6 350.3l-2.1-2.2M235.7 351l1.9-1.9M235.5 347.2l2.1-2.2"/><path class="cls-18" d="M237.4 345h-2.2v6h2.2v1"/><path class="cls-22" d="M201.4 261.3l6 7.2h11.7v-7.2h-17.7"/><path class="cls-16" d="M219.4 263.9l-2.7-2.6M219.4 268l-6.7-6.7M215.8 268.5l-7.2-7.2M211.7 268.5l-7.2-7.2M207.9 268.5l-2-2M217.9 268.5l1.5-1.5M213.9 268.5l5.5-5.3M210 268.5l7.2-7.2M206.7 267.5l6.4-6.2M205 265.3l4.1-4M203.1 263.2l1.9-1.9"/><path class="cls-22" d="M201.4 261.3l6 7.2h11.7v-7.2h-17.7"/><path class="cls-16" d="M219.4 263.9l-2.7-2.6M219.4 268l-6.7-6.7M215.8 268.5l-7.2-7.2M211.7 268.5l-7.2-7.2M207.9 268.5l-2-2M217.9 268.5l1.5-1.5M213.9 268.5l5.5-5.3M210 268.5l7.2-7.2M206.7 267.5l6.4-6.2M205 265.3l4.1-4M203.1 263.2l1.9-1.9"/><path class="cls-18" d="M219.1 261.3h-10.5M219.1 268.5h-11.7M219.1 268.5h-11.7M219.1 261.3h-10.5"/><path class="cls-22" d="M373.7 261.3v7.2h-119v-7.2h119"/><path class="cls-16" d="M373.9 262l-.9-.7M373.9 266.1l-5-4.8M372.3 268.5l-7.2-7.2M368.2 268.5l-7.2-7.2M364.1 268.5l-7.2-7.2M360 268.5l-7.2-7.2M356.2 268.5l-7.2-7.2M352.1 268.5l-7.2-7.2M348 268.5l-7.2-7.2M344.2 268.5l-7.2-7.2M340.1 268.5l-7.2-7.2M336 268.5l-7.2-7.2M332.2 268.5l-7.2-7.2M328.1 268.5l-7.2-7.2M324 268.5l-7.2-7.2M319.9 268.5l-7.2-7.2M316.1 268.5l-7.2-7.2M312 268.5l-7.2-7.2M307.9 268.5l-7.2-7.2M304.1 268.5l-7.2-7.2M300 268.5l-7.2-7.2M295.9 268.5l-7.2-7.2M292.1 268.5l-7.2-7.2M288 268.5l-7.2-7.2M283.9 268.5l-7.2-7.2M279.9 268.5l-7.2-7.2M276 268.5l-7.2-7.2M271.9 268.5l-7.2-7.2M267.9 268.5l-7.2-7.2M264 268.5l-7.2-7.2M259.9 268.5l-5-5.1M255.9 268.5l-1-1.2M370.3 268.5l3.6-3.6M366.3 268.5l7.2-7.2M362.2 268.5l7.2-7.2M358.3 268.5l7.2-7.2M354.3 268.5l7.2-7.2M350.2 268.5l7.2-7.2M346.1 268.5l7.2-7.2M342.3 268.5l7.2-7.2M338.2 268.5l7.2-7.2M334.1 268.5l7.2-7.2M330.3 268.5l7.2-7.2M326.2 268.5l7.2-7.2M322.1 268.5l7.2-7.2M318.3 268.5l7.2-7.2M314.2 268.5l7.2-7.2M310.1 268.5l7.2-7.2M306 268.5l7.2-7.2M302.2 268.5l7.2-7.2M298.1 268.5l7.2-7.2M294 268.5l7.2-7.2M290.2 268.5l7.2-7.2M286.1 268.5l7.2-7.2M282 268.5l7.2-7.2M278.2 268.5l7.2-7.2M274.1 268.5l7.2-7.2M270 268.5l7.2-7.2M265.9 268.5l7.2-7.2M262.1 268.5l7.2-7.2M258 268.5l7.2-7.2M254.9 267.7l6.2-6.4M254.9 263.7l2.4-2.4"/><path class="cls-22" d="M373.7 268.5v-7.2h-119v7.2h119"/><path class="cls-16" d="M373.9 262l-.9-.7M373.9 266.1l-5-4.8M372.3 268.5l-7.2-7.2M368.2 268.5l-7.2-7.2M364.1 268.5l-7.2-7.2M360 268.5l-7.2-7.2M356.2 268.5l-7.2-7.2M352.1 268.5l-7.2-7.2M348 268.5l-7.2-7.2M344.2 268.5l-7.2-7.2M340.1 268.5l-7.2-7.2M336 268.5l-7.2-7.2M332.2 268.5l-7.2-7.2M328.1 268.5l-7.2-7.2M324 268.5l-7.2-7.2M319.9 268.5l-7.2-7.2M316.1 268.5l-7.2-7.2M312 268.5l-7.2-7.2M307.9 268.5l-7.2-7.2M304.1 268.5l-7.2-7.2M300 268.5l-7.2-7.2M295.9 268.5l-7.2-7.2M292.1 268.5l-7.2-7.2M288 268.5l-7.2-7.2M283.9 268.5l-7.2-7.2M279.9 268.5l-7.2-7.2M276 268.5l-7.2-7.2M271.9 268.5l-7.2-7.2M267.9 268.5l-7.2-7.2M264 268.5l-7.2-7.2M259.9 268.5l-5-5.1M255.9 268.5l-1-1.2M370.3 268.5l3.6-3.6M366.3 268.5l7.2-7.2M362.2 268.5l7.2-7.2M358.3 268.5l7.2-7.2M354.3 268.5l7.2-7.2M350.2 268.5l7.2-7.2M346.1 268.5l7.2-7.2M342.3 268.5l7.2-7.2M338.2 268.5l7.2-7.2M334.1 268.5l7.2-7.2M330.3 268.5l7.2-7.2M326.2 268.5l7.2-7.2M322.1 268.5l7.2-7.2M318.3 268.5l7.2-7.2M314.2 268.5l7.2-7.2M310.1 268.5l7.2-7.2M306 268.5l7.2-7.2M302.2 268.5l7.2-7.2M298.1 268.5l7.2-7.2M294 268.5l7.2-7.2M290.2 268.5l7.2-7.2M286.1 268.5l7.2-7.2M282 268.5l7.2-7.2M278.2 268.5l7.2-7.2M274.1 268.5l7.2-7.2M270 268.5l7.2-7.2M265.9 268.5l7.2-7.2M262.1 268.5l7.2-7.2M258 268.5l7.2-7.2M254.9 267.7l6.2-6.4M254.9 263.7l2.4-2.4"/><path class="cls-18" d="M373.7 261.3h-119M373.7 268.5h-119M373.7 268.5h-119M373.7 261.3h-119M373.7 263.4v-2.1"/><path class="cls-17" d="M248.9 260.8h5.8v1.7h-5.8zM219.1 260.8h2.4v1.7h-2.4zM221.5 260.8h27.4v1.7h-27.4zM248.9 262.5h-27.4"/><path class="cls-1" d="M249.1 268.5h-27.8"/><path class="cls-17" d="M221.8 268.5h-.5"/><path class="cls-22" d="M254.7 268.5h-5.6v-6h5.6"/><path class="cls-16" d="M254.9 263.4l-1-.9M254.9 267.3l-5-4.8M251.8 268.5l-2.4-2.7M253.9 268.5l1-.8M250.1 268.5l4.8-4.8M249.4 265.1l2.6-2.6"/><path class="cls-22" d="M219.1 268.5h2.2v-6h-2.2"/><path class="cls-16" d="M221.5 266.1l-2.1-2.2M219.9 268.5l-.5-.5M219.4 267l2.1-2.1M219.4 263.2l.5-.7"/><path class="cls-18" d="M249.1 268.5v-6M221.3 268.5v-6M249.1 268.5v-6M254.7 268.5h-5.6M221.3 268.5v-6M219.1 268.5h2.2M254.7 261.3v1.2M219.1 261.3v1.2M254.7 268.5h-5.6M219.1 268.5h2.2M249.1 262.5h5.6M221.3 262.5h-2.2"/><path class="cls-17" d="M248.8 260.8c0-14.9-12.3-27.2-27.2-27.2M221.5 260.8v-27.1"/><path class="cls-22" d="M373.7 268.5h32.6l7.2-5.1h-39.8v5.1"/><path class="cls-16" d="M412.3 264.4l-1.2-1M409.9 266.1l-2.6-2.7M407.5 267.7l-4.3-4.3M404.2 268.5l-5.1-5.1M400.3 268.5l-5-5.1M396.3 268.5l-5.1-5.1M392.2 268.5l-5.1-5.1M388.1 268.5l-5-5.1M384.3 268.5l-5.1-5.1M380.2 268.5l-5.1-5.1M376.1 268.5l-2.2-2.4M406.3 268.5l5.1-5.1M402.3 268.5l5-5.1M398.4 268.5l5.1-5.1M394.3 268.5l5.1-5.1M390.3 268.5l5-5.1M386.4 268.5l5.1-5.1M382.3 268.5l5.1-5.1M378.3 268.5l5-5.1M374.2 268.5l5-5.1M373.9 264.9l1.5-1.5"/><path class="cls-22" d="M373.7 268.5h32.6l7.2-5.1h-39.8v5.1"/><path class="cls-16" d="M412.3 264.4l-1.2-1M409.9 266.1l-2.6-2.7M407.5 267.7l-4.3-4.3M404.2 268.5l-5.1-5.1M400.3 268.5l-5-5.1M396.3 268.5l-5.1-5.1M392.2 268.5l-5.1-5.1M388.1 268.5l-5-5.1M384.3 268.5l-5.1-5.1M380.2 268.5l-5.1-5.1M376.1 268.5l-2.2-2.4M406.3 268.5l5.1-5.1M402.3 268.5l5-5.1M398.4 268.5l5.1-5.1M394.3 268.5l5.1-5.1M390.3 268.5l5-5.1M386.4 268.5l5.1-5.1M382.3 268.5l5.1-5.1M378.3 268.5l5-5.1M374.2 268.5l5-5.1M373.9 264.9l1.5-1.5"/><path class="cls-18" d="M413.5 263.4h-39.8M406.3 268.5h-32.6M406.3 268.5h-32.6M413.5 263.4h-39.8M373.7 268.5"/><path class="cls-22" d="M57.9 346.9v7.2h88.8l-7.2-7.2H57.6h.3"/><path class="cls-16" d="M145.2 354.1l-7.2-7.2M141.1 354.1l-7.2-7.2M137.1 354.1l-7.2-7.2M133.2 354.1l-7.2-7.2M129.1 354.1l-7.2-7.2M125.1 354.1l-7.2-7.2M121.2 354.1l-7.2-7.2M117.1 354.1l-7.2-7.2M113.1 354.1l-7.2-7.2M109 354.1l-7.2-7.2M105.1 354.1l-7.2-7.2M101.1 354.1l-7.2-7.2M97 354.1l-7.2-7.2M93.1 354.1l-7.2-7.2M89.1 354.1l-7.2-7.2M85 354.1l-7.2-7.2M80.9 354.1l-7.2-7.2M77.1 354.1l-7.2-7.2M73 354.1l-7.2-7.2M68.9 354.1l-7.2-7.2M65.1 354.1l-7-6.9M61 354.1l-2.9-2.8M144.3 354.1l1.2-1.2M140.2 354.1l3.3-3.3M136.3 354.1l5.3-5.2M132.3 354.1l7.2-7.2M128.2 354.1l7.2-7.2M124.3 354.1l7.2-7.2M120.3 354.1l7.2-7.2M116.2 354.1l7.2-7.2M112.1 354.1l7.2-7.2M108.3 354.1l7.2-7.2M104.2 354.1l7.2-7.2M100.1 354.1l7.2-7.2M96.3 354.1l7.2-7.2M92.2 354.1l7.2-7.2M88.1 354.1l7.2-7.2M84.3 354.1l7.2-7.2M80.2 354.1l7.2-7.2M76.1 354.1l7.2-7.2M72 354.1l7.2-7.2M68.2 354.1l7.2-7.2M64.1 354.1l7.2-7.2M60 354.1l7.2-7.2M58.1 352.2l5.3-5.3M58.1 348.1l1.2-1.2"/><path class="cls-22" d="M57.9 346.9v7.2h88.8l-7.2-7.2H57.6h.3"/><path class="cls-16" d="M145.2 354.1l-7.2-7.2M141.1 354.1l-7.2-7.2M137.1 354.1l-7.2-7.2M133.2 354.1l-7.2-7.2M129.1 354.1l-7.2-7.2M125.1 354.1l-7.2-7.2M121.2 354.1l-7.2-7.2M117.1 354.1l-7.2-7.2M113.1 354.1l-7.2-7.2M109 354.1l-7.2-7.2M105.1 354.1l-7.2-7.2M101.1 354.1l-7.2-7.2M97 354.1l-7.2-7.2M93.1 354.1l-7.2-7.2M89.1 354.1l-7.2-7.2M85 354.1l-7.2-7.2M80.9 354.1l-7.2-7.2M77.1 354.1l-7.2-7.2M73 354.1l-7.2-7.2M68.9 354.1l-7.2-7.2M65.1 354.1l-7-6.9M61 354.1l-2.9-2.8M144.3 354.1l1.2-1.2M140.2 354.1l3.3-3.3M136.3 354.1l5.3-5.2M132.3 354.1l7.2-7.2M128.2 354.1l7.2-7.2M124.3 354.1l7.2-7.2M120.3 354.1l7.2-7.2M116.2 354.1l7.2-7.2M112.1 354.1l7.2-7.2M108.3 354.1l7.2-7.2M104.2 354.1l7.2-7.2M100.1 354.1l7.2-7.2M96.3 354.1l7.2-7.2M92.2 354.1l7.2-7.2M88.1 354.1l7.2-7.2M84.3 354.1l7.2-7.2M80.2 354.1l7.2-7.2M76.1 354.1l7.2-7.2M72 354.1l7.2-7.2M68.2 354.1l7.2-7.2M64.1 354.1l7.2-7.2M60 354.1l7.2-7.2M58.1 352.2l5.3-5.3M58.1 348.1l1.2-1.2"/><path class="cls-18" d="M139.5 346.9H57.6M146.7 354.1H57.9M146.7 354.1H57.9M139.5 346.9H57.6"/><path class="cls-22" d="M44.4 349.8l8.4 1.5 5.1-4.4-12.8-2.1-.7 5"/><path class="cls-16" d="M55.7 348.9l-2.9-2.9M53.5 350.8l-5.5-5.5M49.5 350.8l-4.4-4.6M51.1 351l4.6-4.5M47.8 350.3l4.5-4.3M44.7 349.6l4-4.1M45.1 345l.3-.2"/><path class="cls-22" d="M44.4 349.8l8.4 1.5 5.1-4.4-12.8-2.1-.7 5"/><path class="cls-16" d="M55.7 348.9l-2.9-2.9M53.5 350.8l-5.5-5.5M49.5 350.8l-4.4-4.6M51.1 351l4.6-4.5M47.8 350.3l4.5-4.3M44.7 349.6l4-4.1M45.1 345l.3-.2"/><path class="cls-18" d="M57.6 346.9l-12.5-2.1M52.8 351.3l-8.4-1.5M45.1 344.8l-.7 5M52.8 351.3l-8.4-1.5M57.6 346.9l-12.5-2.1"/><path class="cls-22" d="M57.9 354.1v-7.2l-5.1 4.4v2.8h5.1"/><path class="cls-16" d="M58.1 347.2l-.2-.3M58.1 351.3l-2.4-2.4M56.9 354.1l-3.4-3.3M56.2 354.1l1.9-1.9M53.1 353.2l5-5.1"/><path class="cls-22" d="M57.9 354.1v-7.2l-5.1 4.4v2.8h5.1"/><path class="cls-16" d="M58.1 347.2l-.2-.3M58.1 351.3l-2.4-2.4M56.9 354.1l-3.4-3.3M56.2 354.1l1.9-1.9M53.1 353.2l5-5.1"/><path class="cls-18" d="M52.8 351.3v2.8M52.8 354.1h5.1M52.8 351.3v2.8"/><path class="cls-17" d="M367.2 310.9V345M359.5 310.9V345M351.9 310.9V345M344.2 310.9V345M336.5 310.9V345M328.8 310.9V345M321.1 310.9V345M313.5 310.9V345M248.4 304H371v5.5H248.4zM324.7 309.5l8 35.5M306 310.9V345M298.3 310.9V345M290.7 310.9V345M283 310.9V345M275.3 310.9V345M267.6 310.9V345M259.9 310.9V345M252.3 310.9V345"/><path class="cls-17" d="M247.2 302.5h125.3v8.4H247.2zM328.9 328l3.8 3.8M332.7 324.2l-3.8 3.8M332.7 331.8v-7.7M252.4 328l3.8 3.8M256.2 324.2l-3.8 3.8M256.1 331.8v-7.7"/><path class="cls-22" d="M139.5 346.9l7.2 7.2v-95.5l-7.2-7.2v95.5"/><path class="cls-16" d="M146.9 259.6l-7.2-7.2M146.9 263.7l-7.2-7.2M146.9 267.5l-7.2-7.2M146.9 271.6l-7.2-7.2M146.9 275.7l-7.2-7.2M146.9 279.5l-7.2-7.2M146.9 283.6l-7.2-7.2M146.9 287.7l-7.2-7.2M146.9 291.7l-7.2-7.2M146.9 295.6l-7.2-7.2M146.9 299.7l-7.2-7.2M146.9 303.7l-7.2-7.2M146.9 307.6l-7.2-7.2M146.9 311.7l-7.2-7.2M146.9 315.7l-7.2-7.2M146.9 319.6l-7.2-7.2M146.9 323.7l-7.2-7.2M146.9 327.7l-7.2-7.2M146.9 331.8l-7.2-7.2M146.9 335.7l-7.2-7.2M146.9 339.7l-7.2-7.2M146.9 343.8l-7.2-7.2M146.9 347.7l-7.2-7.2M146.9 351.7l-7.2-7.2M145.5 352.9l1.4-1.2M143.5 350.8l3.4-3.1M141.6 348.9l5.3-5.3M139.7 346.7l7.2-7.2M139.7 342.9l7.2-7.2M139.7 338.8l7.2-7.2M139.7 334.7l7.2-7.2M139.7 330.9l7.2-7.2M139.7 326.8l7.2-7.2M139.7 322.7l7.2-7.2M139.7 318.9l7.2-7.2M139.7 314.8l7.2-7.2M139.7 310.7l7.2-7.2M139.7 306.6l7.2-7.2M139.7 302.8l7.2-7.2M139.7 298.7l7.2-7.2M139.7 294.6l7.2-7.2M139.7 290.8l7.2-7.2M139.7 286.7l7.2-7.2M139.7 282.6l7.2-7.2M139.7 278.8l7.2-7.2M139.7 274.7l7.2-7.2M139.7 270.6l7.2-7.2M139.7 266.5l7.2-7.2M139.7 262.7l5.5-5.8M139.7 258.6l3.6-3.6M139.7 254.5l1.4-1.4"/><path class="cls-22" d="M139.5 346.9l7.2 7.2v-95.5l-7.2-7.2v95.5"/><path class="cls-16" d="M146.9 259.6l-7.2-7.2M146.9 263.7l-7.2-7.2M146.9 267.5l-7.2-7.2M146.9 271.6l-7.2-7.2M146.9 275.7l-7.2-7.2M146.9 279.5l-7.2-7.2M146.9 283.6l-7.2-7.2M146.9 287.7l-7.2-7.2M146.9 291.7l-7.2-7.2M146.9 295.6l-7.2-7.2M146.9 299.7l-7.2-7.2M146.9 303.7l-7.2-7.2M146.9 307.6l-7.2-7.2M146.9 311.7l-7.2-7.2M146.9 315.7l-7.2-7.2M146.9 319.6l-7.2-7.2M146.9 323.7l-7.2-7.2M146.9 327.7l-7.2-7.2M146.9 331.8l-7.2-7.2M146.9 335.7l-7.2-7.2M146.9 339.7l-7.2-7.2M146.9 343.8l-7.2-7.2M146.9 347.7l-7.2-7.2M146.9 351.7l-7.2-7.2M145.5 352.9l1.4-1.2M143.5 350.8l3.4-3.1M141.6 348.9l5.3-5.3M139.7 346.7l7.2-7.2M139.7 342.9l7.2-7.2M139.7 338.8l7.2-7.2M139.7 334.7l7.2-7.2M139.7 330.9l7.2-7.2M139.7 326.8l7.2-7.2M139.7 322.7l7.2-7.2M139.7 318.9l7.2-7.2M139.7 314.8l7.2-7.2M139.7 310.7l7.2-7.2M139.7 306.6l7.2-7.2M139.7 302.8l7.2-7.2M139.7 298.7l7.2-7.2M139.7 294.6l7.2-7.2M139.7 290.8l7.2-7.2M139.7 286.7l7.2-7.2M139.7 282.6l7.2-7.2M139.7 278.8l7.2-7.2M139.7 274.7l7.2-7.2M139.7 270.6l7.2-7.2M139.7 266.5l7.2-7.2M139.7 262.7l5.5-5.8M139.7 258.6l3.6-3.6M139.7 254.5l1.4-1.4"/><path class="cls-18" d="M139.5 251.4v95.5M146.7 310.9v43.2M146.7 258.6V304M146.7 310.9v43.2M139.5 251.4v95.5M146.7 258.6V304"/><path class="cls-22" d="M139.5 251.4l7.2 7.2h54.7l7.2-7.2h-69.1"/><path class="cls-16" d="M207.9 252.4l-1-1M205.7 254.3l-2.9-2.9M203.8 256.5l-5.1-5.1M201.6 258.4l-6.9-7M198 258.6l-7.2-7.2M193.9 258.6l-7.2-7.2M189.9 258.6l-7.2-7.2M186 258.6l-7.2-7.2M181.9 258.6l-7.2-7.2M177.9 258.6l-7.2-7.2M174 258.6l-7.2-7.2M169.9 258.6l-7.2-7.2M165.9 258.6l-7.2-7.2M161.8 258.6l-7.2-7.2M157.9 258.6l-7.2-7.2M153.9 258.6l-7.2-7.2M149.8 258.6l-7.2-7.2M199.7 258.6l7.2-7.2M195.6 258.6l7.2-7.2M191.8 258.6l7.2-7.2M187.7 258.6l7.2-7.2M183.6 258.6l7.2-7.2M179.8 258.6l7.2-7.2M175.7 258.6l7.2-7.2M171.6 258.6l7.2-7.2M167.5 258.6l7.2-7.2M163.7 258.6l7.2-7.2M159.6 258.6l7.2-7.2M155.5 258.6l7.2-7.2M151.7 258.6l7.2-7.2M147.6 258.6l7.2-7.2M145.2 256.9l5.5-5.5M143.3 255l3.6-3.6M141.1 253.1l1.7-1.7"/><path class="cls-22" d="M139.5 251.4l7.2 7.2h54.7l7.2-7.2h-69.1"/><path class="cls-16" d="M207.9 252.4l-1-1M205.7 254.3l-2.9-2.9M203.8 256.5l-5.1-5.1M201.6 258.4l-6.9-7M198 258.6l-7.2-7.2M193.9 258.6l-7.2-7.2M189.9 258.6l-7.2-7.2M186 258.6l-7.2-7.2M181.9 258.6l-7.2-7.2M177.9 258.6l-7.2-7.2M174 258.6l-7.2-7.2M169.9 258.6l-7.2-7.2M165.9 258.6l-7.2-7.2M161.8 258.6l-7.2-7.2M157.9 258.6l-7.2-7.2M153.9 258.6l-7.2-7.2M149.8 258.6l-7.2-7.2M199.7 258.6l7.2-7.2M195.6 258.6l7.2-7.2M191.8 258.6l7.2-7.2M187.7 258.6l7.2-7.2M183.6 258.6l7.2-7.2M179.8 258.6l7.2-7.2M175.7 258.6l7.2-7.2M171.6 258.6l7.2-7.2M167.5 258.6l7.2-7.2M163.7 258.6l7.2-7.2M159.6 258.6l7.2-7.2M155.5 258.6l7.2-7.2M151.7 258.6l7.2-7.2M147.6 258.6l7.2-7.2M145.2 256.9l5.5-5.5M143.3 255l3.6-3.6M141.1 253.1l1.7-1.7"/><path class="cls-18" d="M208.6 251.4h-65.1M201.4 258.6h-54.7M201.4 258.6h-54.7M208.6 251.4h-65.1"/><path class="cls-22" d="M208.6 251.4l-7.2 7.2v2.7h7.2v-9.9"/><path class="cls-16" d="M208.8 253.3l-.9-.9M208.8 257.4l-3.1-3.1M208.6 261.3l-4.8-4.8M204.5 261.3l-2.9-2.9M205 261.3l3.8-3.6M201.6 260.8l7.2-7.2"/><path class="cls-22" d="M208.6 251.4l-7.2 7.2v2.7h7.2v-9.9"/><path class="cls-16" d="M208.8 253.3l-.9-.9M208.8 257.4l-3.1-3.1M208.6 261.3l-4.8-4.8M204.5 261.3l-2.9-2.9M205 261.3l3.8-3.6M201.6 260.8l7.2-7.2"/><path class="cls-18" d="M208.6 261.3v-9.9M201.4 261.3v-2.7M201.4 261.3v-2.7M208.6 261.3v-9.9"/><path class="cls-17" d="M191.5 35.7V93"/><path class="cls-7" d="M192.3 34.9V93"/><path class="cls-17" d="M190.1 37.1V93M191.5 35.7V93"/><path class="cls-7" d="M191.5 93h.8"/><path class="cls-17" d="M190.1 93h1.4M192.3 34.9V93M190.1 37.1V93"/><path class="cls-22" d="M207.5 65.2c.9-1.3.9-3 0-4.3-1.5-1.9-3.8-2.9-6.2-2.9l-9 .3v9.6l9 .3c2.4 0 4.7-1 6.2-2.9"/><path class="cls-17" d="M207.5 65.2c.9-1.3.9-3 0-4.3-1.5-1.9-3.8-2.9-6.2-2.9l-9 .3v9.6l9 .3c2.4 0 4.7-1 6.2-2.9"/><path class="cls-22" d="M197.4 63.1c0 1 .3 2 1.1 2.8.7.7 1.7 1.2 2.7 1.2 2.1 0 4.1-.9 5.4-2.5.6-.9.6-2 0-2.9-1.3-1.6-3.3-2.5-5.4-2.5-1 0-2 .4-2.7 1.2-.7.7-1.1 1.8-1.1 2.8"/><path class="cls-17" d="M197.4 63.1c0 1 .3 2 1.1 2.8.7.7 1.7 1.2 2.7 1.2 2.1 0 4.1-.9 5.4-2.5.6-.9.6-2 0-2.9-1.3-1.6-3.3-2.5-5.4-2.5-1 0-2 .4-2.7 1.2-.7.7-1.1 1.8-1.1 2.8"/><path class="cls-22" d="M192.3 70.2h41.2v22.6h-41.2V70.2"/><path class="cls-17" d="M192.3 70.2h41.3v22.6h-41.3zM194.2 92.8V70.2M182.9 35.7h8.6"/><path class="cls-7" d="M182.9 34.9h9.4"/><path class="cls-17" d="M182.9 37.1h7.2M182.9 35.7h8.6M182.9 34.9h9.4M182.9 37.1h7.2"/><path class="cls-22" d="M192.3 38.3h12.4c.1 0 .3.1.4.2.1.1.2.2.2.4V53c0 .1-.1.3-.2.4-.1.1-.2.2-.4.2h-12.4V38"/><path class="cls-17" d="M192.3 38.3h12.4c.1 0 .3.1.4.2.1.1.2.2.2.4V53c0 .1-.1.3-.2.4-.1.1-.2.2-.4.2h-12.4V38"/><path class="cls-22" d="M198.8 228.3c1.3-.9 3-.9 4.3 0 1.9 1.5 2.9 3.8 2.9 6.2l-.3 9h-9.6l-.3-9c0-2.4 1-4.7 2.9-6.2"/><path class="cls-17" d="M198.8 228.3c1.3-.9 3-.9 4.3 0 1.9 1.5 2.9 3.8 2.9 6.2l-.3 9h-9.6l-.3-9c0-2.4 1-4.7 2.9-6.2"/><path class="cls-22" d="M200.9 238.4c-1 0-2-.3-2.8-1.1-.7-.7-1.2-1.7-1.2-2.7 0-2.1.9-4.1 2.5-5.4.9-.6 2-.6 2.9 0 1.6 1.3 2.5 3.3 2.5 5.4 0 1-.4 2-1.2 2.7-.7.7-1.7 1.1-2.8 1.1"/><path class="cls-17" d="M200.9 238.4c-1 0-2-.3-2.8-1.1-.7-.7-1.2-1.7-1.2-2.7 0-2.1.9-4.1 2.5-5.4.9-.6 2-.6 2.9 0 1.6 1.3 2.5 3.3 2.5 5.4 0 1-.4 2-1.2 2.7-.7.7-1.7 1.1-2.8 1.1"/><path class="cls-22" d="M143.9 243.1v-48l.1-.1v-.1h.1v-.1H165l.1.1v.1h.1v48.2l-.1.1v.1h-.1v.1h-20.8l-.1-.1h-.1v-.2h-.1v-.1"/><path class="cls-17" d="M143.9 243.1v-48l.1-.1v-.1h.1v-.1H165l.1.1v.1h.1v48.2l-.1.1v.1h-.1v.1h-20.8l-.1-.1h-.1v-.2h-.1v-.1"/><path class="cls-22" d="M146.1 237.8v-37.4c0-.4 0-.9.3-1.3s.4-.8.7-1.1c.3-.3.7-.6 1.1-.7.4-.2.9-.3 1.3-.3h10.2c.4 0 .9 0 1.3.3.4.2.8.4 1.1.7.3.3.6.7.7 1.1s.3.9.3 1.3v37.4c0 .4 0 .9-.3 1.3-.2.4-.4.8-.7 1.1-.3.3-.7.6-1.1.7-.4.2-.9.3-1.3.3h-10.2c-.4 0-.9 0-1.3-.3-.4-.2-.8-.4-1.1-.7-.3-.3-.6-.7-.7-1.1-.2-.4-.3-.9-.3-1.3"/><path class="cls-17" d="M146.1 237.8v-37.4c0-.4 0-.9.3-1.3s.4-.8.7-1.1c.3-.3.7-.6 1.1-.7.4-.2.9-.3 1.3-.3h10.2c.4 0 .9 0 1.3.3.4.2.8.4 1.1.7.3.3.6.7.7 1.1s.3.9.3 1.3v37.4c0 .4 0 .9-.3 1.3-.2.4-.4.8-.7 1.1-.3.3-.7.6-1.1.7-.4.2-.9.3-1.3.3h-10.2c-.4 0-.9 0-1.3-.3-.4-.2-.8-.4-1.1-.7-.3-.3-.6-.7-.7-1.1-.2-.4-.3-.9-.3-1.3M214.8 244.2h-24.5"/><path class="cls-7" d="M214.8 243.5h-25.2"/><path class="cls-17" d="M214.8 245.7h-23M214.8 244.2h-24.5M214.8 243.5h-25.2M214.8 245.7h-23"/><path class="cls-7" d="M214.8 244.2v-.7"/><path class="cls-17" d="M214.8 245.7v-1.5M190.3 248.1h-18.4"/><path class="cls-7" d="M189.6 247.3h-17"/><path class="cls-17" d="M191.8 249.5h-21.4M190.3 248.1h-18.4M189.6 247.3h-17M191.8 249.5h-21.4M171.9 244.2h-28.4"/><path class="cls-7" d="M172.6 243.5h-29.1"/><path class="cls-17" d="M170.4 245.7h-26.9M171.9 244.2h-28.4"/><path class="cls-7" d="M143.5 244.2v-.7"/><path class="cls-17" d="M143.5 245.7v-1.5M172.6 243.5h-29.1M170.4 245.7h-26.9"/><path class="cls-22" d="M173.3 243.5v-12-.4c0-.1.1-.3.2-.4.1-.1.2-.2.4-.2H188c.1 0 .3.1.4.2s.2.2.2.4v12.4H173"/><path class="cls-17" d="M173.3 243.5v-12-.4c0-.1.1-.3.2-.4.1-.1.2-.2.4-.2H188c.1 0 .3.1.4.2s.2.2.2.4v12.4H173"/><path class="cls-15" d="M189.6 243.5v3.8"/><path class="cls-4" d="M189.6 247.3h-17"/><path class="cls-15" d="M172.6 247.3v-3.8"/><path class="cls-17" d="M171.9 248.1v-3.9"/><path class="cls-7" d="M172.6 247.3v-3.8"/><path class="cls-17" d="M170.4 249.5v-3.8M171.9 248.1v-3.9M172.6 247.3v-3.8M170.4 249.5v-3.8M190.3 244.2v3.9"/><path class="cls-7" d="M189.6 243.5v3.8"/><path class="cls-17" d="M191.8 245.7v3.8M190.3 244.2v3.9M189.6 243.5v3.8M191.8 245.7v3.8"/><path class="cls-7" d="M189.6 243.5h-17"/><path class="cls-18" d="M368.7 97.3V93"/><path class="cls-22" d="M84 97.3V93h258.5v4.3H84"/><path class="cls-16" d="M84.3 93.3V93M84.3 97.3l4.3-4.3M88.6 97.3l4.3-4.3M92.7 97.3L97 93M97 97.3l4.3-4.3M101.3 97.3l4.3-4.3M105.4 97.3l4.3-4.3M109.7 97.3L114 93M114 97.3l4.3-4.3M118.3 97.3l4.4-4.3M122.4 97.3l4.3-4.3M126.7 97.3l4.4-4.3M131.1 97.3l4.3-4.3M135.1 97.3l4.4-4.3M139.5 97.3l4.3-4.3M143.8 97.3l4.3-4.3M148.1 97.3l4.3-4.3M152.2 97.3l4.3-4.3M156.5 97.3l4.3-4.3M160.8 97.3l4.3-4.3M164.9 97.3l4.3-4.3M169.2 97.3l4.3-4.3M173.5 97.3l4.4-4.3M177.6 97.3l4.3-4.3M181.9 97.3l4.4-4.3M186.3 97.3l4.3-4.3M190.6 97.3l4.3-4.3M194.7 97.3L199 93M199 97.3l4.3-4.3M203.3 97.3l4.3-4.3M207.4 97.3l4.3-4.3M211.7 97.3L216 93M216 97.3l4.3-4.3M220.3 97.3l4.4-4.3M224.4 97.3l4.3-4.3M228.7 97.3l4.4-4.3M233.1 97.3l4.3-4.3M237.1 97.3l4.4-4.3M241.5 97.3l4.3-4.3M245.8 97.3l4.3-4.3M250.1 97.3l4.3-4.3M254.2 97.3l4.3-4.3M258.5 97.3l4.3-4.3M262.8 97.3l4.3-4.3M266.9 97.3l4.3-4.3M271.2 97.3l4.3-4.3M275.5 97.3l4.4-4.3M279.6 97.3l4.3-4.3M283.9 97.3l4.4-4.3M288.3 97.3l4.3-4.3M292.6 97.3l4.3-4.3M296.7 97.3L301 93M301 97.3l4.3-4.3M305.3 97.3l4.3-4.3M309.4 97.3l4.3-4.3M313.7 97.3L318 93M318 97.3l4.3-4.3M322.3 97.3l4.4-4.3M326.4 97.3l4.3-4.3M330.7 97.3l4.4-4.3M335.1 97.3l4.3-4.3M339.1 97.3l3.6-3.3"/><path class="cls-22" d="M84 93v4.3h258.5V93H84"/><path class="cls-16" d="M84.3 93.3V93M84.3 97.3l4.3-4.3M88.6 97.3l4.3-4.3M92.7 97.3L97 93M97 97.3l4.3-4.3M101.3 97.3l4.3-4.3M105.4 97.3l4.3-4.3M109.7 97.3L114 93M114 97.3l4.3-4.3M118.3 97.3l4.4-4.3M122.4 97.3l4.3-4.3M126.7 97.3l4.4-4.3M131.1 97.3l4.3-4.3M135.1 97.3l4.4-4.3M139.5 97.3l4.3-4.3M143.8 97.3l4.3-4.3M148.1 97.3l4.3-4.3M152.2 97.3l4.3-4.3M156.5 97.3l4.3-4.3M160.8 97.3l4.3-4.3M164.9 97.3l4.3-4.3M169.2 97.3l4.3-4.3M173.5 97.3l4.4-4.3M177.6 97.3l4.3-4.3M181.9 97.3l4.4-4.3M186.3 97.3l4.3-4.3M190.6 97.3l4.3-4.3M194.7 97.3L199 93M199 97.3l4.3-4.3M203.3 97.3l4.3-4.3M207.4 97.3l4.3-4.3M211.7 97.3L216 93M216 97.3l4.3-4.3M220.3 97.3l4.4-4.3M224.4 97.3l4.3-4.3M228.7 97.3l4.4-4.3M233.1 97.3l4.3-4.3M237.1 97.3l4.4-4.3M241.5 97.3l4.3-4.3M245.8 97.3l4.3-4.3M250.1 97.3l4.3-4.3M254.2 97.3l4.3-4.3M258.5 97.3l4.3-4.3M262.8 97.3l4.3-4.3M266.9 97.3l4.3-4.3M271.2 97.3l4.3-4.3M275.5 97.3l4.4-4.3M279.6 97.3l4.3-4.3M283.9 97.3l4.4-4.3M288.3 97.3l4.3-4.3M292.6 97.3l4.3-4.3M296.7 97.3L301 93M301 97.3l4.3-4.3M305.3 97.3l4.3-4.3M309.4 97.3l4.3-4.3M313.7 97.3L318 93M318 97.3l4.3-4.3M322.3 97.3l4.4-4.3M326.4 97.3l4.3-4.3M330.7 97.3l4.4-4.3M335.1 97.3l4.3-4.3M339.1 97.3l3.6-3.3"/><path class="cls-18" d="M219.1 97.3h123.4M143.5 97.3h71.3M84 97.3h55.5M238.1 93h104.4M182.9 93H234M84 93h94.6M238.1 93h104.4M219.1 97.3h123.4M182.9 93H234M143.5 97.3h71.3M84 93h94.6M84 97.3h55.5M57.9 97.3V93"/><path class="cls-17" d="M344.2 97.3V93M367 97.3V93"/><path class="cls-18" d="M342.5 97.3V93M368.7 97.3V93"/><path class="cls-16" d="M366.9 93.1c0-12.4-10.2-22.7-22.7-22.7M344.2 93V70.5"/><path class="cls-17" d="M59.5 97.3V93M82.3 97.3V93"/><path class="cls-18" d="M57.9 97.3V93M84 97.3V93"/><path class="cls-16" d="M82.3 70.5c-6 0-11.8 2.4-16 6.6-4.3 4.3-6.6 10-6.6 16M82.3 93V70.5"/><path class="cls-22" d="M143.5 97.3h-4v19h4v-19"/><path class="cls-16" d="M139.7 101.4l4.1-4.1M139.7 105.7l4.1-4M139.7 110.1l4.1-4.1M139.7 114.1l4.1-4M141.9 116.3l1.9-1.9"/><path class="cls-22" d="M143.5 97.3h-4v19h4v-19"/><path class="cls-16" d="M139.7 101.4l4.1-4.1M139.7 105.7l4.1-4M139.7 110.1l4.1-4.1M139.7 114.1l4.1-4M141.9 116.3l1.9-1.9"/><path class="cls-18" d="M143.5 116.3v-19M139.5 116.3v-19M139.5 116.3v-19M143.5 116.3v-19M143.5 116.3h-4"/><path class="cls-22" d="M219.1 97.3h-4.3v19h4.3v-19"/><path class="cls-16" d="M215.1 98.3l.9-1M215.1 102.6l4.3-4.3M215.1 106.9l4.3-4.3M215.1 111l4.3-4.3M215.1 115.3l4.3-4.3M218.2 116.3l1.2-1"/><path class="cls-22" d="M219.1 97.3h-4.3v19h4.3v-19"/><path class="cls-16" d="M215.1 98.3l.9-1M215.1 102.6l4.3-4.3M215.1 106.9l4.3-4.3M215.1 111l4.3-4.3M215.1 115.3l4.3-4.3M218.2 116.3l1.2-1"/><path class="cls-18" d="M219.1 116.3v-19M214.8 116.3v-19M214.8 116.3v-19M219.1 116.3v-19M219.1 116.3h-4.3"/><path class="cls-22" d="M139.5 180.1v71.3h4v-71.3h-4"/><path class="cls-16" d="M139.7 182.3l1.9-2.2M139.7 186.4l4.1-4.1M139.7 190.7l4.1-4.1M139.7 195l4.1-4.1M139.7 199.3l4.1-4M139.7 203.4l4.1-4.1M139.7 207.7l4.1-4M139.7 212.1l4.1-4.1M139.7 216.1l4.1-4M139.7 220.5l4.1-4.1M139.7 224.8l4.1-4.1M139.7 229.1l4.1-4.1M139.7 233.2l4.1-4.1M139.7 237.5l4.1-4.1M139.7 241.8l4.1-4.1M139.7 245.9l4.1-4.1M139.7 250.2l4.1-4.1M142.6 251.4l1.2-.9"/><path class="cls-22" d="M139.5 180.1v71.3h4v-71.3h-4"/><path class="cls-16" d="M139.7 182.3l1.9-2.2M139.7 186.4l4.1-4.1M139.7 190.7l4.1-4.1M139.7 195l4.1-4.1M139.7 199.3l4.1-4M139.7 203.4l4.1-4.1M139.7 207.7l4.1-4M139.7 212.1l4.1-4.1M139.7 216.1l4.1-4M139.7 220.5l4.1-4.1M139.7 224.8l4.1-4.1M139.7 229.1l4.1-4.1M139.7 233.2l4.1-4.1M139.7 237.5l4.1-4.1M139.7 241.8l4.1-4.1M139.7 245.9l4.1-4.1M139.7 250.2l4.1-4.1M142.6 251.4l1.2-.9"/><path class="cls-18" d="M143.5 191.2v-11.1M143.5 251.4v-56.6M139.5 251.4v-71.3M143.5 180.1h-4M139.5 251.4v-71.3M143.5 191.2v-11.1M143.5 251.4v-56.6M139.5 251.4h4"/><path class="cls-22" d="M160.6 194.8h54.2v-5.1h-54.2v5.1"/><path class="cls-16" d="M160.8 190.9l1-1.2M161.1 194.8l5-5.1M165.4 194.8l5-5.1M169.5 194.8l5-5.1M173.8 194.8l5-5.1M178.1 194.8l5-5.1M182.2 194.8l5-5.1M186.5 194.8l5-5.1M190.8 194.8l5.1-5.1M195.1 194.8l5.1-5.1M199.2 194.8l5.1-5.1M203.5 194.8l5.1-5.1M207.9 194.8l5-5.1M211.9 194.8l3.2-2.9"/><path class="cls-22" d="M160.6 194.8h54.2v-5.1h-54.2v5.1"/><path class="cls-16" d="M160.8 190.9l1-1.2M161.1 194.8l5-5.1M165.4 194.8l5-5.1M169.5 194.8l5-5.1M173.8 194.8l5-5.1M178.1 194.8l5-5.1M182.2 194.8l5-5.1M186.5 194.8l5-5.1M190.8 194.8l5.1-5.1M195.1 194.8l5.1-5.1M199.2 194.8l5.1-5.1M203.5 194.8l5.1-5.1M207.9 194.8l5-5.1M211.9 194.8l3.2-2.9"/><path class="cls-18" d="M214.8 189.7h-54.2M214.8 194.8h-54.2M214.8 194.8h-54.2M214.8 189.7h-54.2M160.6 191.2v-1.5"/><path class="cls-22" d="M259 184.5l-4.3-4.4v81.2h4.3v-76.8"/><path class="cls-16" d="M254.9 181.8l.7-.9M254.9 186.1l2.9-3.1M254.9 190.2l4.3-4.3M254.9 194.5l4.3-4.3M254.9 198.9l4.3-4.4M254.9 202.9l4.3-4.3M254.9 207.3l4.3-4.4M254.9 211.6l4.3-4.3M254.9 215.9l4.3-4.3M254.9 220l4.3-4.3M254.9 224.3l4.3-4.3M254.9 228.6l4.3-4.3M254.9 232.7l4.3-4.3M254.9 237l4.3-4.3M254.9 241.3l4.3-4.3M254.9 245.7l4.3-4.4M254.9 249.7l4.3-4.3M254.9 254.1l4.3-4.4M254.9 258.4l4.3-4.3M256.1 261.3l3.1-3.2"/><path class="cls-22" d="M259 184.5l-4.3-4.4v81.2h4.3v-76.8"/><path class="cls-16" d="M254.9 181.8l.7-.9M254.9 186.1l2.9-3.1M254.9 190.2l4.3-4.3M254.9 194.5l4.3-4.3M254.9 198.9l4.3-4.4M254.9 202.9l4.3-4.3M254.9 207.3l4.3-4.4M254.9 211.6l4.3-4.3M254.9 215.9l4.3-4.3M254.9 220l4.3-4.3M254.9 224.3l4.3-4.3M254.9 228.6l4.3-4.3M254.9 232.7l4.3-4.3M254.9 237l4.3-4.3M254.9 241.3l4.3-4.3M254.9 245.7l4.3-4.4M254.9 249.7l4.3-4.3M254.9 254.1l4.3-4.4M254.9 258.4l4.3-4.3M256.1 261.3l3.1-3.2"/><path class="cls-18" d="M259 261.3v-76.8M254.7 261.3v-81.2M254.7 261.3v-81.2M259 261.3v-76.8M259 261.3h-4.3M368.7 184.5v-4.4"/><path class="cls-22" d="M342.5 180.1h-87.8l4.3 4.4h83.5v-4.4"/><path class="cls-16" d="M255.6 180.9l.7-.8M257.8 183l2.9-2.9M260.7 184.5l4.3-4.4M265 184.5l4.3-4.4M269.1 184.5l4.3-4.4M273.4 184.5l4.3-4.4M277.7 184.5l4.3-4.4M281.8 184.5l4.3-4.4M286.1 184.5l4.3-4.4M290.4 184.5l4.3-4.4M294.5 184.5l4.3-4.4M298.8 184.5l4.3-4.4M303.1 184.5l4.4-4.4M307.5 184.5l4.3-4.4M311.5 184.5l4.4-4.4M315.9 184.5l4.3-4.4M320.2 184.5l4.3-4.4M324.3 184.5l4.3-4.4M328.6 184.5l4.3-4.4M332.9 184.5l4.3-4.4M337.2 184.5l4.3-4.4M341.3 184.5l1.4-1.2"/><path class="cls-22" d="M342.5 180.1h-87.8l4.3 4.4h83.5v-4.4"/><path class="cls-16" d="M255.6 180.9l.7-.8M257.8 183l2.9-2.9M260.7 184.5l4.3-4.4M265 184.5l4.3-4.4M269.1 184.5l4.3-4.4M273.4 184.5l4.3-4.4M277.7 184.5l4.3-4.4M281.8 184.5l4.3-4.4M286.1 184.5l4.3-4.4M290.4 184.5l4.3-4.4M294.5 184.5l4.3-4.4M298.8 184.5l4.3-4.4M303.1 184.5l4.4-4.4M307.5 184.5l4.3-4.4M311.5 184.5l4.4-4.4M315.9 184.5l4.3-4.4M320.2 184.5l4.3-4.4M324.3 184.5l4.3-4.4M328.6 184.5l4.3-4.4M332.9 184.5l4.3-4.4M337.2 184.5l4.3-4.4M341.3 184.5l1.4-1.2"/><path class="cls-18" d="M259 184.5h83.5M254.7 180.1h87.8M254.7 180.1h87.8M259 184.5h83.5"/><path class="cls-17" d="M344.2 184.5v-4.4M367 184.5v-4.4"/><path class="cls-18" d="M342.5 184.5v-4.4M368.7 184.5v-4.4"/><path class="cls-16" d="M344.2 207.1c6 0 11.8-2.4 16-6.6 4.3-4.3 6.6-10 6.6-16M344.2 184.5V207"/><path class="cls-18" d="M182.9 7.3h-4.3"/><path class="cls-22" d="M178.6 34v59h4.3V34h-4.3"/><path class="cls-16" d="M178.8 36.9l2.9-2.9M178.8 41.2l4.3-4.3M178.8 45.3l4.3-4.4M178.8 49.6l4.3-4.3M178.8 53.9l4.3-4.3M178.8 58.2l4.3-4.3M178.8 62.3l4.3-4.3M178.8 66.6l4.3-4.3M178.8 70.9l4.3-4.3M178.8 75l4.3-4.3M178.8 79.3l4.3-4.3M178.8 83.7l4.3-4.4M178.8 88l4.3-4.3M178.8 92.1l4.3-4.4M181.9 93l1.2-.9"/><path class="cls-22" d="M178.6 34v59h4.3V34h-4.3"/><path class="cls-16" d="M178.8 36.9l2.9-2.9M178.8 41.2l4.3-4.3M178.8 45.3l4.3-4.4M178.8 49.6l4.3-4.3M178.8 53.9l4.3-4.3M178.8 58.2l4.3-4.3M178.8 62.3l4.3-4.3M178.8 66.6l4.3-4.3M178.8 70.9l4.3-4.3M178.8 75l4.3-4.3M178.8 79.3l4.3-4.3M178.8 83.7l4.3-4.4M178.8 88l4.3-4.3M178.8 92.1l4.3-4.4M181.9 93l1.2-.9"/><path class="cls-18" d="M182.9 93V34M178.6 93V34M178.6 93V34M182.9 93V34"/><path class="cls-17" d="M182.9 31.8h-4.3M182.9 9.3h-4.3"/><path class="cls-18" d="M182.9 34h-4.3M182.9 7.3h-4.3"/><path class="cls-16" d="M182.9 31.9c12.4 0 22.7-10.2 22.7-22.7M182.9 9.3h22.6"/><path class="cls-18" d="M238.1 7.3H234"/><path class="cls-22" d="M234 34v59h4.1V34H234"/><path class="cls-16" d="M234.3 36.6l2.6-2.6M234.3 40.9l4-4M234.3 45.3l4-4.1M234.3 49.3l4-4M234.3 53.7l4-4.1M234.3 58l4-4.1M234.3 62.3l4-4.1M234.3 66.4l4-4.1M234.3 70.7l4-4.1M234.3 75l4-4.1M234.3 79.1l4-4.1M234.3 83.4l4-4.1M234.3 87.7l4-4M234.3 91.8l4-4.1M237.4 93l.9-.9"/><path class="cls-22" d="M234 34v59h4.1V34H234"/><path class="cls-16" d="M234.3 36.6l2.6-2.6M234.3 40.9l4-4M234.3 45.3l4-4.1M234.3 49.3l4-4M234.3 53.7l4-4.1M234.3 58l4-4.1M234.3 62.3l4-4.1M234.3 66.4l4-4.1M234.3 70.7l4-4.1M234.3 75l4-4.1M234.3 79.1l4-4.1M234.3 83.4l4-4.1M234.3 87.7l4-4M234.3 91.8l4-4.1M237.4 93l.9-.9"/><path class="cls-18" d="M238.1 93V34M234 93V34M234 93V34M238.1 93V34"/><path class="cls-17" d="M238.1 31.8H234M238.1 9.3H234"/><path class="cls-18" d="M238.1 34H234M238.1 7.3H234"/><path class="cls-16" d="M211.3 9.2c0 12.4 10.2 22.7 22.7 22.7M234 9.3h-22.8"/><path class="cls-22" d="M160.6 191.2h-17.1v3.6h17.1v-3.6"/><path class="cls-16" d="M144 194.8l3.6-3.6M148.3 194.8l3.6-3.6M152.7 194.8l3.6-3.6M156.7 194.8l3.6-3.6"/><path class="cls-22" d="M160.6 191.2h-17.1v3.6h17.1v-3.6"/><path class="cls-16" d="M144 194.8l3.6-3.6M148.3 194.8l3.6-3.6M152.7 194.8l3.6-3.6M156.7 194.8l3.6-3.6"/><path class="cls-18" d="M143.5 194.8h17.1M143.5 191.2h17.1M143.5 191.2h17.1M143.5 194.8h17.1"/><path class="cls-17" d="M196.3 172.5h16.8v.5h-16.8z"/><path class="cls-17" d="M212.7 172.9h.5v15.4h-.5zM196.3 172.9h.5v15.4h-.5zM213.9 179.7h.5v.7h-.5zM196.3 188.3h16.8v.5h-16.8zM179.3 172.5h17v.5h-17z"/><path class="cls-17" d="M195.6 172.9h.7v15.4h-.7zM179.3 172.9h.5v15.4h-.5zM179.3 188.3h17v.5h-17zM162.3 172.5h17v.5h-17z"/><path class="cls-17" d="M178.6 172.9h.7v15.4h-.7zM162.3 172.9h.5v15.4h-.5zM162.3 188.3h17v.5h-17zM145.2 172.5h17v.5h-17z"/><path class="cls-17" d="M161.5 172.9h.7v15.4h-.7zM145.2 172.9h.5v15.4h-.5zM145.2 188.3h17v.5h-17zM144 179.7h.7v.7h-.7zM213.1 172.5h.7v16.3h-.7zM144.7 172.5h.5v16.3h-.5z"/><path class="cls-21" d="M147.1 188.3h10.1v2.4h-10.1z"/><path class="cls-17" d="M147.1 188.3h10.1v2.4h-10.1z"/><path class="cls-21" d="M146.9 188.1h10.6v.2h-10.6z"/><path class="cls-17" d="M146.9 188.1h10.6v.2h-10.6z"/><path class="cls-19" d="M147.9 188.1v-8.4"/><path class="cls-3" d="M147.9 179.7h1.6l1.7.4 1.5 1 1.2 1 1.2 1.2.7 1.6.5 1.5.2 1.7"/><path class="cls-22" d="M219.1 199.1h-4.3v-19h4.3v19"/><path class="cls-16" d="M215.1 183.5l3.1-3.4M215.1 187.6l4.3-4.3M215.1 191.9l4.3-4.3M215.1 196.2l4.3-4.3M216.3 199.1l3.1-3.1"/><path class="cls-22" d="M214.8 199.1h4.3v-19h-4.3v19"/><path class="cls-16" d="M215.1 183.5l3.1-3.4M215.1 187.6l4.3-4.3M215.1 191.9l4.3-4.3M215.1 196.2l4.3-4.3M216.3 199.1l3.1-3.1"/><path class="cls-18" d="M219.1 199.1v-19M214.8 189.7v-9.6M214.8 199.1v-4.3M219.1 180.1h-4.3M214.8 189.7v-9.6M219.1 199.1v-19M214.8 199.1v-4.3"/><path class="cls-22" d="M219.1 261.3h-4.3v-37h4.3v37"/><path class="cls-16" d="M215.1 226l1.4-1.7M215.1 230.1l4.3-4.4M215.1 234.4l4.3-4.3M215.1 238.7l4.3-4.3M215.1 242.8l4.3-4.3M215.1 247.1l4.3-4.3M215.1 251.4l4.3-4.3M215.1 255.7l4.3-4.3M215.1 259.8l4.3-4.3M217.7 261.3l1.7-1.5"/><path class="cls-22" d="M214.8 261.3h4.3v-37h-4.3v37"/><path class="cls-16" d="M215.1 226l1.4-1.7M215.1 230.1l4.3-4.4M215.1 234.4l4.3-4.3M215.1 238.7l4.3-4.3M215.1 242.8l4.3-4.3M215.1 247.1l4.3-4.3M215.1 251.4l4.3-4.3M215.1 255.7l4.3-4.3M215.1 259.8l4.3-4.3M217.7 261.3l1.7-1.5"/><path class="cls-18" d="M219.1 261.3v-37M214.8 261.3v-37M214.8 261.3v-37M219.1 261.3v-37M219.1 261.3h-4.3"/><path class="cls-1" d="M219.1 224.3v-25.2M214.8 224.3v-25.2"/><path class="cls-17" d="M219.1 222.9h-4.3M219.1 200.3h-4.3"/><path class="cls-18" d="M219.1 224.3h-4.3M219.1 199.1h-4.3"/><path class="cls-16" d="M192.1 200.3c0 12.4 10.2 22.7 22.7 22.7M214.8 200.3H192"/><path class="cls-17" d="M383.3 97.8l55 3.4v73.9l-55 3.6"/><path class="cls-17" d="M383.3 96.1l56.6 3.4v77.3l-56.6 3.6"/><path class="cls-22" d="M57.9 249.5v4.1L45.1 256l-.7-5.1 8.4-1.4h5.1"/><path class="cls-16" d="M58.1 250.9l-1.4-1.4M56.9 253.8l-4.3-4.3M53.5 254.5l-4.3-4.3M50.2 255l-4.3-4.3M46.8 255.7l-1.9-1.6M56.2 254.1l1.9-2M51.1 254.8l5.3-5.3M46.1 255.7l6.2-6.2M44.9 253.1l2.6-2.6"/><path class="cls-18" d="M57.9 249.5v4.1L45.1 256l-.7-5.1 8.4-1.4h5.1z"/><path class="cls-16" d="M373.6 53.4h-1.9c-.6 0-1.2-.2-1.8-.3-.6-.1-1.2-.3-1.8-.5l-1.8-.6c-.6-.2-1.1-.5-1.7-.8-.5-.3-1.1-.6-1.6-1-.5-.3-1-.7-1.5-1.1-.5-.4-.9-.8-1.4-1.3-.4-.4-.9-.9-1.3-1.4-.4-.5-.8-1-1.1-1.5-.3-.5-.7-1-1-1.6-.3-.5-.6-1.1-.8-1.7l-.6-1.8c-.2-.6-.3-1.2-.5-1.8l-.3-1.8v-1.9M354.5 34.5h19M373.5 53.4H372M370.6 53.7l-.7.2M369.9 53.9l-.8.2"/><path class="cls-11" d="M367.9 54.4l-1.6.5"/><path class="cls-16" d="M364.8 55.3l-.2.3M364.6 55.6l-1 .5M362.4 57l-.9.7"/><path class="cls-20" d="M361.5 57.7l-1.5 1.2"/><path class="cls-16" d="M360 58.9l-.7 1M358.3 61.1l-.4.7M357.9 61.8l-.3.5"/><path class="cls-8" d="M356.9 63.5l-1 1.7"/><path class="cls-16" d="M355.7 66.1l-.2.8M355.5 66.9l-.3.7"/><path class="cls-11" d="M355 68.8l-.3 1.7"/><path class="cls-16" d="M354.5 71.9v.5"/><path class="cls-6" d="M354.5 72.4h19"/><path class="cls-16" d="M373 72.4h.5M373.7 223h-1.9c-.6 0-1.2.2-1.8.3-.6.1-1.2.3-1.8.5l-1.8.6c-.6.2-1.1.5-1.7.8-.5.3-1.1.6-1.6 1-.5.3-1 .7-1.5 1.1-.5.4-.9.8-1.4 1.3s-.9.9-1.3 1.4c-.4.5-.8 1-1.1 1.5-.3.5-.7 1-1 1.6-.3.5-.6 1.1-.8 1.7l-.6 1.8c-.2.6-.3 1.2-.5 1.8l-.3 1.8v1.9M354.7 242.1h19M373.7 223.1l-1.4-.2M370.8 222.9l-.9-.3M369.9 222.6l-.5-.2"/><path class="cls-11" d="M368.2 222.1l-1.7-.4"/><path class="cls-16" d="M365.3 220.9l-.5-.2M364.8 220.7l-.7-.5M362.9 219.5l-1.2-.7"/><path class="cls-13" d="M361.7 218.8l-1.4-1.5"/><path class="cls-16" d="M360.3 217.3l-.5-.4"/><path class="cls-5" d="M359.1 216.1l-1.2-1.6"/><path class="cls-16" d="M357.1 213.5l-.2-.5M356.9 213l-.2-.7"/><path class="cls-12" d="M356.2 211.3l-.7-1.9"/><path class="cls-16" d="M355.2 208.2l-.2-.5M355 207.7v-.9"/><path class="cls-10" d="M354.7 205.8v-1.9"/><path class="cls-6" d="M354.7 203.9h19"/><path class="cls-16" d="M373.2 203.9h.5M52.8 43.5c11 0 20.1-9.1 20.1-20.1M73 23.4H52.8"/><path class="cls-6" d="M52.8 43.6l3.9.2 3.8 1.2 3.4 1.9 3.1 2.4 2.6 3.2 1.7 3.6 1.2 3.6.5 4"/><path class="cls-14" d="M73 63.7H52.8"/><path class="cls-16" d="M52.8 165.1c11 0 20.1-9.1 20.1-20.1M73 145.1H52.8"/><path class="cls-6" d="M52.8 165l3.9.5 3.8 1.2 3.4 1.9L67 171l2.6 3.1 1.7 3.4 1.2 3.8.5 3.9"/><path class="cls-14" d="M73 185.2H52.8"/><path class="cls-16" d="M373.7 148.1c-11 0-20.1 9.1-20.1 20.1M353.5 168.1h20.2"/><path class="cls-6" d="M373.7 148.2l-3.8-.5-3.9-1.2-3.6-1.9-2.9-2.4-2.6-3.1-1.9-3.4-1-3.8-.5-3.8"/><path class="cls-14" d="M353.5 128.1h20.2"/><path class="cls-16" d="M375.9 108.6h3.6v59.3h-3.6zM8.9 300.3c12.1 0 22-9.9 22-22M31 278.3H8.9"/><path class="cls-6" d="M8.9 300.4l4.3.5 4.1 1.2 3.8 1.9 3.4 2.9 2.6 3.3 2.2 3.6 1.2 4.3.5 4.1M31 322.2H8.9"/><path class="cls-16" d="M9.4 322.2h-.5M45.6 268l-3.1-16.8M25.9 254.3c.8 4.4 3.3 8.4 7 11 3.7 2.6 8.3 3.6 12.7 2.8M45.6 332.8l-3.1 16.5M45.6 332.7c-4.4-.8-9 .2-12.7 2.8-3.7 2.6-6.2 6.5-7 11M86.7 99h45.4v10.8H86.7z"/><path class="cls-17" d="M148.6 34.9h28.3v56.6h-28.3zM245.3 219.5v.7M245.3 220.2v1M245.3 221.2l-.2.7M245.1 221.9l-.3.2M244.3 223.6l-.2.2M243.4 224.8l-.5.7M242.9 225.5l-.7.5M242.2 226l-.5.5M241.7 226.5l-.5.2M240 227.4h-.2M238.3 227.9h-.7M237.6 227.9h-.7M236.9 227.9h-.7M236.2 227.9h-.7M234.3 227.4h-.5M232.6 226.7l-.5-.2M232.1 226.5l-.5-.5M231.6 226l-.7-.5M230.9 225.5l-.5-.5M229.7 223.8l-.2-.2M229 222.1l-.3-.2M228.7 221.9l-.2-.7M228.5 221.2v-1M228.5 220.2v-.7M228.5 218.1v-.3M229 216.4v-.3M229 216.1l.5-.7M229.5 215.4l.4-.7M229.9 214.7l.5-.7M231.4 213l.2-.2M232.8 212.1v-.3M232.8 211.8l.7-.2M233.5 211.6l1-.3M234.5 211.3l.7-.2M235.2 211.1h.3M236.9 210.9h.2M238.6 211.1l.7.2M239.3 211.3l1 .3M240.3 211.6l.7.2M241 211.8l.2.3M242.4 212.8v.2M243.6 214l.3.7M243.9 214.7l.4.7M244.3 215.4l.5.7M244.8 216.1v.5M245.3 217.8v.3"/></g><g id="Mbel"><path class="cls-2" d="M275.3 120.1h51.1v22.6h-51.1zM324.9 152.7h-12.7M324.9 144.2v8.5M312.2 152.7v-8.5M307.2 152.7h-12.7M307.2 144.2v8.5M294.5 152.7v-8.5M289.5 152.7h-12.8M289.5 144.2v8.5M276.7 152.7v-8.5M324.9 110.1h-12.7M324.9 118.6v-8.5M312.2 110.1v8.5M307.2 110.1h-12.7M307.2 118.6v-8.5M294.5 110.1v8.5M289.5 110.1h-12.8M289.5 118.6v-8.5M276.7 110.1v8.5M88.3 201.3h14.2v28.3H88.3zM133.4 242.1h-19c-.1 0-.2-.1-.3-.2s-.1-.2-.2-.3v-25.2-.3c0-.1.1-.2.2-.3 0 0 .2-.1.3-.2s.2 0 .3 0h18.7v26.6M137.1 246.6h-22.7c-.1 0-.2-.1-.3-.2 0 0-.1-.2-.2-.3V243v-.3c0-.1.1-.2.2-.3 0 0 .2-.1.3-.2h23c.1 0 .2.1.3.2 0 0 .1.2.2.3V246.1c0 .1-.1.2-.2.3 0 0-.2.1-.3.2h-.3M133.4 215.4h4c.1 0 .2-.1.3-.2s.1-.2.2-.3v-25.2-.3c0-.1-.1-.2-.2-.3s-.2-.1-.3-.2h-4M131.1 188.8v53.3"/><path class="cls-2" d="M133.4 188.8h-19c-.1 0-.2.1-.3.2s-.1.2-.2.3v25.5c0 .1.1.2.2.3s.2.1.3.2h19v-26.6M137.1 184.3h-22.7c-.1 0-.2.1-.3.2 0 0-.1.2-.2.3V188.2c0 .1.1.2.2.3 0 0 .2.1.3.2h23c.1 0 .2-.1.3-.2 0 0 .1-.2.2-.3V185.1v-.3c0-.1-.1-.2-.2-.3 0 0-.2-.1-.3-.2h-.3M133.4 215.4h4c.1 0 .2.1.3.2 0 0 .1.2.2.3v25.5c0 .1-.1.2-.2.3s-.2.1-.3.2h-4M99.8 193.1c-1.3-3.8-2.9-7.4-4.8-11-.4-.8-1.4-1.3-2.3-1.3-3.2.3-6.3 1.4-8.9 3.4-.8.6-1.1 1.5-.9 2.5.9 3.9 2.2 7.7 3.7 11.4h.1c.7 0 1.4-.2 2-.4 3.1-1 6.2-2.2 9.2-3.5.6-.3 1.2-.6 1.8-1"/><path class="cls-2" d="M99.9 192c.2-.3.3-.6.3-1 .2-1.5 0-3.1-.6-4.5-.8-1.9-1.7-3.7-2.9-5.4-.8-1.2-1.8-2.4-2.8-3.3-.6-.6-1.5-.8-2.3-.7-3.4.4-6.6 1.7-9.4 3.6-.7.5-1.2 1.2-1.3 2.1-.2 1.5-.1 2.9 0 4.4.3 2 .8 4 1.5 6 .5 1.4 1.4 2.7 2.5 3.8.3.2.6.4.9.5M239.5 34.9h15.6v56.6h-15.6zM280.6 34.9H326v56.6h-45.4zM92.2 28.7h11.5v7.7H92.2zM75.1 8.8h45.4v19.9H75.1zM83.8 76h56.6v15.6H83.8zM260.4 203.2h28.3v56.9h-28.3zM81.4 317.2H138v28.3H81.4zM310.3 244.5h56.6v15.6h-56.6zM35.8 281.9h7.7v11.3h-7.7zM15.9 264.9h19.9v45.4H15.9zM122.4 255H138v56.9h-15.6z"/></g><g id="Text"><path d="M172.4 287.6v.6h-2.5v-5.3h.7v4.7h1.9zM174.1 283.5c0 .2-.2.4-.4.4s-.4-.2-.4-.4.2-.4.4-.4.4.2.4.4zm0 4.7h-.6v-3.7h.6v3.7zM176.1 288.2h-.6V285h-.5v-.5h.5v-.5c0-.7.4-1.2 1-1.2h.2v.5c-.4 0-.6.2-.6.6v.5h.6v.5h-.6v3.2zM178.4 287.4c0 .2 0 .2.3.2h.3v.5h-.6c-.4 0-.6-.2-.6-.6v-2.6h-.5v-.5h.5v-1.2h.6v1.2h.6v.5h-.6v2.4zM312.1 223.7v.6h-3.8l3-4.8h-2.7v-.6h3.8l-3 4.8h2.7zM313.9 219.6c0 .2-.2.4-.4.4s-.4-.2-.4-.4.2-.4.4-.4.4.2.4.4zm0 4.7h-.6v-3.7h.6v3.7zM315.8 220.6v.5c.3-.4.6-.6 1-.6s.8.2 1 .7c.3-.5.6-.7 1.2-.7s.7.1.9.4c.2.2.2.4.2 1v2.4h-.6v-2.2c0-.4 0-.6-.1-.7-.1-.2-.4-.3-.6-.3-.5 0-.8.4-.8 1v2.2h-.6v-2.2c0-.4 0-.5-.1-.7-.1-.2-.3-.3-.6-.3-.5 0-.9.4-.9 1v2.2h-.6v-3.7h.6zM322.1 220.6v.5c.3-.4.6-.6 1-.6s.8.2 1 .7c.3-.5.6-.7 1.2-.7s.7.1.9.4c.2.2.2.4.2 1v2.4h-.6v-2.2c0-.4 0-.6-.1-.7-.1-.2-.4-.3-.6-.3-.5 0-.8.4-.8 1v2.2h-.6v-2.2c0-.4 0-.5-.1-.7-.1-.2-.3-.3-.6-.3-.5 0-.9.4-.9 1v2.2h-.6v-3.7h.6zM328.2 222.7c0 .3 0 .5.2.7.2.3.6.5 1 .5s.9-.2 1.1-.6l.5.2c-.3.6-.9 1-1.6 1-1.1 0-1.9-.8-1.9-1.9s.8-1.9 1.9-1.9 1.9.8 1.9 1.9v.2h-3.1zm2.4-.4c0-.3 0-.4-.2-.6-.2-.3-.6-.5-1-.5s-.8.2-1 .5c-.1.2-.2.3-.2.6h2.4zM333 220.6v.6c.1-.3.2-.4.3-.5.2-.1.4-.2.7-.2h.1v.6h-.2c-.3 0-.6.2-.8.4-.2.2-.2.4-.2.9v1.9h-.6v-3.7h.6zM309.1 229.7v-.6l1.8-1.2v5.4h-.6v-4.4l-1.2.8zM315.7 231.7c0 .6-.1 1-.4 1.2-.3.3-.7.4-1.2.4s-1-.2-1.2-.5c-.3-.3-.4-.6-.4-1.4v-1.8c0-.7 0-1 .3-1.3.3-.3.7-.5 1.2-.5s.9.1 1.2.4c.3.3.4.6.4 1.2v2.1zm-2.5-.1c0 .6 0 .7.2.9.2.2.5.3.8.3s.6-.1.8-.4c.1-.2.2-.4.2-.8v-2c0-.4 0-.6-.3-.8-.2-.2-.4-.2-.7-.2s-.6.1-.8.4c-.1.2-.2.4-.2.8v1.8zM317.7 233c0 .2-.2.4-.4.4s-.4-.2-.4-.4.2-.4.4-.4.4.2.4.4zM320.1 230.2c.2 0 .3-.1.5-.1.9 0 1.6.7 1.6 1.6s-.8 1.7-1.7 1.7-1.7-.8-1.7-1.7.1-.7.4-1.2l1.5-2.5h.7l-1.4 2.1zm-.7 1.5c0 .6.5 1.1 1.1 1.1s1.1-.5 1.1-1.1-.5-1.1-1.1-1.1-1.1.5-1.1 1.1zM326.2 229.6v.5c.3-.4.6-.6 1-.6s.8.2 1 .7c.3-.5.6-.7 1.2-.7s.7.1.9.4c.2.2.2.4.2 1v2.4h-.6v-2.2c0-.4 0-.6-.1-.7-.1-.2-.4-.3-.6-.3-.5 0-.8.4-.8 1v2.2h-.6v-2.2c0-.4 0-.5-.1-.7-.1-.2-.3-.3-.6-.3-.5 0-.9.4-.9 1v2.2h-.6v-3.7h.6zM333.8 230.8v.4h-2l1.2-1.6c.3-.5.4-.6.4-.8 0-.3-.2-.4-.5-.4s-.5.2-.5.6h-.4c0-.6.4-1 1-1s1 .3 1 .8-.1.5-.4.9l-.8 1.1h1.1z"/><g><path d="M83.4 290.4v.6h-3.8l3-4.8h-2.7v-.6h3.8l-3 4.8h2.7zM85.2 286.3c0 .2-.2.4-.4.4s-.4-.2-.4-.4.2-.4.4-.4.4.2.4.4zm0 4.7h-.6v-3.7h.6v3.7zM87.1 287.3v.5c.3-.4.6-.6 1-.6s.8.2 1 .7c.3-.5.6-.7 1.2-.7s.7.1.9.4c.2.2.2.4.2 1v2.4h-.6v-2.2c0-.4 0-.6-.1-.7-.1-.2-.4-.3-.6-.3-.5 0-.8.4-.8 1v2.2h-.6v-2.2c0-.4 0-.5-.1-.7-.1-.2-.3-.3-.6-.3-.5 0-.9.4-.9 1v2.2h-.6v-3.7h.6zM93.4 287.3v.5c.3-.4.6-.6 1-.6s.8.2 1 .7c.3-.5.6-.7 1.2-.7s.7.1.9.4c.2.2.2.4.2 1v2.4h-.6v-2.2c0-.4 0-.6-.1-.7-.1-.2-.4-.3-.6-.3-.5 0-.8.4-.8 1v2.2H95v-2.2c0-.4 0-.5-.1-.7-.1-.2-.3-.3-.6-.3-.5 0-.9.4-.9 1v2.2h-.6v-3.7h.6zM99.5 289.4c0 .3 0 .5.2.7.2.3.6.5 1 .5s.9-.2 1.1-.6l.5.2c-.3.6-.9 1-1.6 1-1.1 0-1.9-.8-1.9-1.9s.8-1.9 1.9-1.9 1.9.8 1.9 1.9v.2h-3.1zm2.4-.4c0-.3 0-.4-.2-.6-.2-.3-.6-.5-1-.5s-.8.2-1 .5c-.1.2-.2.3-.2.6h2.4zM104.3 287.3v.6c.1-.3.2-.4.3-.5.2-.1.4-.2.7-.2h.1v.6h-.2c-.3 0-.6.2-.8.4-.2.2-.2.4-.2.9v1.9h-.6v-3.7h.6zM80.4 296.4v-.6l1.8-1.2v5.4h-.6v-4.4l-1.2.8zM83.9 295.3v-.6h3l-1.6 2c.9 0 1.6.7 1.6 1.6s-.8 1.7-1.8 1.7-1.4-.5-1.6-1.3h.6c.1.4.5.7 1 .7s1.2-.5 1.2-1.1-.5-1.1-1.2-1.1-.4 0-.6.2l-.3-.2 1.5-1.9h-1.9zM88.8 299.7c0 .2-.2.4-.4.4s-.4-.2-.4-.4.2-.4.4-.4.4.2.4.4zM92.8 297.5c.3.3.4.6.4 1 0 .9-.7 1.6-1.7 1.6s-1.6-.6-1.6-1.6.1-.8.4-1.1c.2-.2.3-.3.6-.4-.3 0-.4-.2-.5-.4-.2-.2-.3-.5-.3-.8 0-.8.6-1.3 1.5-1.3s1.4.6 1.4 1.3-.1.6-.3.8c-.1.2-.3.2-.5.3.3 0 .4.2.6.3zm-2.3 1c0 .6.5 1 1 1s1-.5 1-1-.5-1-1-1-1 .5-1 1zm.2-2.5c0 .5.4.8.8.8s.9-.4.9-.8-.4-.8-.8-.8-.9.3-.9.8zM97.3 296.3v.5c.3-.4.6-.6 1-.6s.8.2 1 .7c.3-.5.6-.7 1.2-.7s.7.1.9.4c.2.2.2.4.2 1v2.4h-.6v-2.2c0-.4 0-.6-.1-.7-.1-.2-.4-.3-.6-.3-.5 0-.8.4-.8 1v2.2h-.6v-2.2c0-.4 0-.5-.1-.7-.1-.2-.3-.3-.6-.3-.5 0-.9.4-.9 1v2.2h-.6v-3.7h.6zM104.9 297.5v.4h-2l1.2-1.6c.3-.5.4-.6.4-.8 0-.3-.2-.4-.5-.4s-.5.2-.5.6h-.4c0-.6.4-1 1-1s1 .3 1 .8-.1.5-.4.9l-.8 1.1h1.1z"/></g><g><path d="M406.6 117.3c1.1 0 1.7.5 1.7 1.4s-.1.6-.3.9c-.1.2-.3.2-.5.3.3 0 .4.1.6.2.3.2.4.6.4 1s-.2.9-.6 1.2c-.3.2-.7.3-1.3.3h-1.5v-5.3h1.5zm-.8 2.4h.7c.4 0 .7 0 .9-.2.2-.2.3-.4.3-.7s-.2-.6-.4-.8c-.2 0-.4-.1-.9-.1h-.6v1.8zm0 2.4h.7c.6 0 .8 0 1-.2.3-.1.4-.4.4-.8 0-.6-.4-.9-1.2-.9h-.8v1.8zM412.5 118.9h.6v3.7h-.6v-.7c-.4.6-.8.8-1.3.8-1 0-1.7-.8-1.7-1.9s.7-1.9 1.8-1.9 1 .2 1.3.7v-.6zm-2.1.9c-.2.3-.3.6-.3 1 0 .8.5 1.4 1.2 1.4s1.3-.6 1.3-1.4-.5-1.4-1.2-1.4-.7.1-.9.4zM414.4 122.6v-5.3h.6v5.3h-.6zM417 122.6h-.6v-5.3h.6v3.3l1.5-1.6h.8l-1.6 1.8 1.6 1.9h-.8l-1.5-1.6v1.6zM423.4 120.8c0 1.1-.8 1.9-1.9 1.9s-1.9-.8-1.9-1.9.8-1.9 1.9-1.9 1.9.8 1.9 1.9zm-3.1 0c0 .8.5 1.4 1.3 1.4s1.2-.6 1.2-1.4-.5-1.4-1.2-1.4-1.3.6-1.3 1.4zM425.2 118.9v.5c.3-.4.6-.6 1.1-.6s.6.1.9.3c.2.2.3.5.3 1v2.5h-.6v-2.4c0-.3 0-.5-.1-.6-.1-.2-.3-.2-.6-.2s-.5.1-.7.3c-.2.2-.2.4-.2.7v2.2h-.6v-3.7h.6zM406 128.5c.2 0 .3-.1.5-.1.9 0 1.6.7 1.6 1.6s-.8 1.7-1.7 1.7-1.7-.8-1.7-1.7.1-.7.4-1.2l1.5-2.5h.7l-1.4 2.1zm-.7 1.5c0 .6.5 1.1 1.1 1.1s1.1-.5 1.1-1.1-.5-1.1-1.1-1.1-1.1.5-1.1 1.1zM410 131.3c0 .2-.2.4-.4.4s-.4-.2-.4-.4.2-.4.4-.4.4.2.4.4zM414.3 130c0 .6-.1 1-.4 1.2-.3.3-.7.4-1.2.4s-1-.2-1.2-.5c-.3-.3-.4-.6-.4-1.4v-1.8c0-.7 0-1 .3-1.3.3-.3.7-.5 1.2-.5s.9.1 1.2.4c.3.3.4.6.4 1.2v2.1zm-2.5-.1c0 .6 0 .7.2.9.2.2.5.3.8.3s.6-.1.8-.4c.1-.2.2-.4.2-.8v-2c0-.4 0-.6-.3-.8-.2-.2-.4-.2-.7-.2s-.6.1-.8.4c-.1.2-.2.4-.2.8v1.8zM418.5 127.9v.5c.3-.4.6-.6 1-.6s.8.2 1 .7c.3-.5.6-.7 1.2-.7s.7.1.9.4c.2.2.2.4.2 1v2.4h-.6v-2.2c0-.4 0-.6-.1-.7-.1-.2-.4-.3-.6-.3-.5 0-.8.4-.8 1v2.2h-.6v-2.2c0-.4 0-.5-.1-.7-.1-.2-.3-.3-.6-.3-.5 0-.9.4-.9 1v2.2h-.6v-3.7h.6zM426.1 129.1v.4h-2l1.2-1.6c.3-.5.4-.6.4-.8 0-.3-.2-.4-.5-.4s-.5.2-.5.6h-.4c0-.6.4-1 1-1s1 .3 1 .8-.1.5-.4.9l-.8 1.1h1.1z"/></g><g><path d="M294.3 52.6v.6h-3.8l3-4.8h-2.7v-.6h3.8l-3 4.8h2.7zM296.2 48.5c0 .2-.2.4-.4.4s-.4-.2-.4-.4.2-.4.4-.4.4.2.4.4zm0 4.7h-.6v-3.7h.6v3.7zM298.1 49.5v.5c.3-.4.6-.6 1-.6s.8.2 1 .7c.3-.5.6-.7 1.2-.7s.7.1.9.4c.2.2.2.4.2 1v2.4h-.6V51c0-.4 0-.6-.1-.7-.1-.2-.4-.3-.6-.3-.5 0-.8.4-.8 1v2.2h-.6V51c0-.4 0-.5-.1-.7-.1-.2-.3-.3-.6-.3-.5 0-.9.4-.9 1v2.2h-.6v-3.7h.6zM304.4 49.5v.5c.3-.4.6-.6 1-.6s.8.2 1 .7c.3-.5.6-.7 1.2-.7s.7.1.9.4c.2.2.2.4.2 1v2.4h-.6V51c0-.4 0-.6-.1-.7-.1-.2-.4-.3-.6-.3-.5 0-.8.4-.8 1v2.2h-.6V51c0-.4 0-.5-.1-.7-.1-.2-.3-.3-.6-.3-.5 0-.9.4-.9 1v2.2h-.6v-3.7h.6zM310.5 51.5c0 .3 0 .5.2.7.2.3.6.5 1 .5s.9-.2 1.1-.6l.5.2c-.3.6-.9 1-1.6 1-1.1 0-1.9-.8-1.9-1.9s.8-1.9 1.9-1.9 1.9.8 1.9 1.9v.2h-3.1zm2.4-.4c0-.3 0-.4-.2-.6-.2-.3-.6-.5-1-.5s-.8.2-1 .5c-.1.2-.2.3-.2.6h2.4zM315.2 49.5v.6c.1-.3.2-.4.3-.5.2-.1.4-.2.7-.2h.1v.6h-.2c-.3 0-.6.2-.8.4-.2.2-.2.4-.2.9v1.9h-.6v-3.7h.6zM291.3 58.6V58l1.8-1.2v5.4h-.6v-4.4l-1.2.8zM294.5 61v-.5l2.8-3.7v3.6h.6v.6h-.6v1.2h-.6V61h-2.1zm2.1-2.6l-1.5 2h1.5v-2zM299.7 61.8c0 .2-.2.4-.4.4s-.4-.2-.4-.4.2-.4.4-.4.4.2.4.4zM304 60.6c0 .6-.1 1-.4 1.2-.3.3-.7.4-1.2.4s-1-.2-1.2-.5c-.3-.3-.4-.6-.4-1.4v-1.8c0-.7 0-1 .3-1.3.3-.3.7-.5 1.2-.5s.9.1 1.2.4c.3.3.4.6.4 1.2v2.1zm-2.5-.1c0 .6 0 .7.2.9.2.2.5.3.8.3s.6-.1.8-.4c.1-.2.2-.4.2-.8v-2c0-.4 0-.6-.3-.8-.2-.2-.4-.2-.7-.2s-.6.1-.8.4c-.1.2-.2.4-.2.8v1.8zM308.2 58.5v.5c.3-.4.6-.6 1-.6s.8.2 1 .7c.3-.5.6-.7 1.2-.7s.7.1.9.4c.2.2.2.4.2 1v2.4h-.6V60c0-.4 0-.6-.1-.7-.1-.2-.4-.3-.6-.3-.5 0-.8.4-.8 1v2.2h-.6V60c0-.4 0-.5-.1-.7-.1-.2-.3-.3-.6-.3-.5 0-.9.4-.9 1v2.2h-.6v-3.7h.6zM315.8 59.7v.4h-2l1.2-1.6c.3-.5.4-.6.4-.8 0-.3-.2-.4-.5-.4s-.5.2-.5.6h-.4c0-.6.4-1 1-1s1 .3 1 .8-.1.5-.4.9l-.8 1.1h1.1z"/></g><g><path d="M227.4 192.4h2.1v.6h-2.1v1.8h2.1v.6h-2.8v-5.3h2.8v.6h-2.1v1.8zM231.3 191.7v.5c.3-.4.6-.6 1.1-.6s.6.1.9.3c.2.2.3.5.3 1v2.5h-.6V193c0-.3 0-.5-.1-.6-.1-.2-.3-.2-.6-.2s-.5.1-.7.3c-.2.2-.2.4-.2.7v2.2h-.6v-3.7h.6zM235.5 194.6c0 .2 0 .2.3.2h.3v.5h-.6c-.4 0-.6-.2-.6-.6v-2.6h-.5v-.5h.5v-1.2h.6v1.2h.6v.5h-.6v2.4zM237.8 191.7v.6c.1-.3.2-.4.3-.5.2-.1.4-.2.7-.2h.1v.6h-.2c-.3 0-.6.2-.8.4-.2.2-.2.4-.2.9v1.9h-.6v-3.7h.6zM240.2 193.7c0 .3 0 .5.2.7.2.3.6.5 1 .5s.9-.2 1.1-.6l.5.2c-.3.6-.9 1-1.6 1-1.1 0-1.9-.8-1.9-1.9s.8-1.9 1.9-1.9 1.9.8 1.9 1.9v.2h-3.1zm2.4-.4c0-.3 0-.4-.2-.6-.2-.3-.6-.5-1-.5s-.8.2-1 .5c-.1.2-.2.3-.2.6h2.4zm-.2-3.2l-.9 1.1h-.4l.7-1.1h.7zM244.7 193.7c0 .3 0 .5.2.7.2.3.6.5 1 .5s.9-.2 1.1-.6l.5.2c-.3.6-.9 1-1.6 1-1.1 0-1.9-.8-1.9-1.9s.8-1.9 1.9-1.9 1.9.8 1.9 1.9v.2h-3.1zm2.4-.4c0-.3 0-.4-.2-.6-.2-.3-.6-.5-1-.5s-.8.2-1 .5c-.1.2-.2.3-.2.6h2.4zM226.7 199.7v-.6h3l-1.6 2c.9 0 1.6.7 1.6 1.6s-.8 1.7-1.8 1.7-1.4-.5-1.6-1.3h.6c.1.4.5.7 1 .7s1.2-.5 1.2-1.1-.5-1.1-1.2-1.1-.4 0-.6.2l-.3-.2 1.5-1.9h-1.9zM231.6 204c0 .2-.2.4-.4.4s-.4-.2-.4-.4.2-.4.4-.4.4.2.4.4zM232.5 203.2v-.5l2.8-3.7v3.6h.6v.6h-.6v1.2h-.6v-1.2h-2.1zm2.1-2.6l-1.5 2h1.5v-2zM240 200.7v.5c.3-.4.6-.6 1-.6s.8.2 1 .7c.3-.5.6-.7 1.2-.7s.7.1.9.4c.2.2.2.4.2 1v2.4h-.6v-2.2c0-.4 0-.6-.1-.7-.1-.2-.4-.3-.6-.3-.5 0-.8.4-.8 1v2.2h-.6v-2.2c0-.4 0-.5-.1-.7-.1-.2-.3-.3-.6-.3-.5 0-.9.4-.9 1v2.2h-.6v-3.7h.6zM247.6 201.9v.4h-2l1.2-1.6c.3-.5.4-.6.4-.8 0-.3-.2-.4-.5-.4s-.5.2-.5.6h-.4c0-.6.4-1 1-1s1 .3 1 .8-.1.5-.4.9l-.8 1.1h1.1z"/></g><g><path d="M95 142.7h-.7v-5.3h.7v2.5l2.1-2.5h.8l-2.2 2.6 2.2 2.7H97l-2-2.5v2.5zM102 140.9c0 1.1-.8 1.9-1.9 1.9s-1.9-.8-1.9-1.9.8-1.9 1.9-1.9 1.9.8 1.9 1.9zm-3.1 0c0 .8.5 1.4 1.3 1.4s1.2-.6 1.2-1.4-.5-1.4-1.2-1.4-1.3.6-1.3 1.4zM106 142.2c-.4.4-.8.5-1.4.5-1.1 0-1.8-.8-1.8-1.9s.8-1.9 1.8-1.9 1 .2 1.3.6l-.4.4c-.3-.3-.6-.4-.9-.4-.7 0-1.2.6-1.2 1.4s.5 1.4 1.2 1.4.6-.1.9-.4l.4.4zM107.5 139.5c.3-.4.7-.6 1.1-.6s.7.1.9.3c.2.2.3.5.3 1v2.5h-.6v-2.4c0-.5-.2-.8-.7-.8s-.5.1-.7.3c-.2.2-.2.4-.2.7v2.2h-.6v-5.3h.6v2.2zM111.5 141.1c0 .3 0 .5.2.7.2.3.6.5 1 .5s.9-.2 1.1-.6l.5.2c-.3.6-.9 1-1.6 1-1.1 0-1.9-.8-1.9-1.9s.8-1.9 1.9-1.9 1.9.8 1.9 1.9v.2h-3.1zm2.4-.4c0-.3 0-.4-.2-.6-.2-.3-.6-.5-1-.5s-.8.2-1 .5c-.1.2-.2.3-.2.6h2.4zM116.3 139v.5c.3-.4.6-.6 1.1-.6s.6.1.9.3c.2.2.3.5.3 1v2.5h-.6v-2.4c0-.3 0-.5-.1-.6-.1-.2-.3-.2-.6-.2s-.5.1-.7.3c-.2.2-.2.4-.2.7v2.2h-.6V139h.6zM119.8 144h-.4l.7-2.1.6.2-.8 1.9zM124.9 139.7h2.1v.6h-2.1v1.8h2.1v.6h-2.8v-5.3h2.8v.6h-2.1v1.8zM130 140c0-.4-.3-.6-.7-.6s-.7.2-.7.5.2.4.8.6c.5.1.7.2.9.4.2.2.3.4.3.7 0 .6-.5 1.1-1.3 1.1s-1.3-.4-1.4-1.1h.6c0 .4.3.6.8.6s.7-.2.7-.5-.2-.5-.8-.6c-.8-.2-1.2-.6-1.2-1.1s.5-1.1 1.3-1.1 1.3.4 1.3 1.1h-.6zM133.5 140c0-.4-.3-.6-.7-.6s-.7.2-.7.5.2.4.8.6c.5.1.7.2.9.4.2.2.3.4.3.7 0 .6-.5 1.1-1.3 1.1s-1.3-.4-1.4-1.1h.6c0 .4.3.6.8.6s.7-.2.7-.5-.2-.5-.8-.6c-.8-.2-1.2-.6-1.2-1.1s.5-1.1 1.3-1.1 1.3.4 1.3 1.1h-.6zM135.7 141.1c0 .3 0 .5.2.7.2.3.6.5 1 .5s.9-.2 1.1-.6l.5.2c-.3.6-.9 1-1.6 1-1.1 0-1.9-.8-1.9-1.9s.8-1.9 1.9-1.9 1.9.8 1.9 1.9v.2h-3.1zm2.4-.4c0-.3 0-.4-.2-.6-.2-.3-.6-.5-1-.5s-.8.2-1 .5c-.1.2-.2.3-.2.6h2.4zM140.4 139v.5c.3-.4.6-.6 1.1-.6s.6.1.9.3c.2.2.3.5.3 1v2.5h-.6v-2.4c0-.3 0-.5-.1-.6-.1-.2-.3-.2-.6-.2s-.5.1-.7.3c-.2.2-.2.4-.2.7v2.2h-.6V139h.6zM144 144h-.4l.7-2.1.6.2-.8 1.9zM99.8 146.4h.7l-1.6 5.3h-.6l-1.2-4.2-1.2 4.2h-.6l-1.6-5.3h.7l1.2 4.1 1.2-4.1h.6l1.1 4.1 1.2-4.1zM104.6 149.9c0 1.1-.8 1.9-1.9 1.9s-1.9-.8-1.9-1.9.8-1.9 1.9-1.9 1.9.8 1.9 1.9zm-3.1 0c0 .8.5 1.4 1.3 1.4s1.2-.6 1.2-1.4-.5-1.4-1.2-1.4-1.3.6-1.3 1.4zM106.3 148.5c.3-.4.7-.6 1.1-.6s.7.1.9.3c.2.2.3.5.3 1v2.5h-.6v-2.4c0-.5-.2-.8-.7-.8s-.5.1-.7.3c-.2.2-.2.4-.2.7v2.2h-.6v-5.3h.6v2.2zM110.5 148v.5c.3-.4.6-.6 1.1-.6s.6.1.9.3c.2.2.3.5.3 1v2.5h-.6v-2.4c0-.3 0-.5-.1-.6-.1-.2-.3-.2-.6-.2s-.5.1-.7.3c-.2.2-.2.4-.2.7v2.2h-.6V148h.6zM114.5 150.1c0 .3 0 .5.2.7.2.3.6.5 1 .5s.9-.2 1.1-.6l.5.2c-.3.6-.9 1-1.6 1-1.1 0-1.9-.8-1.9-1.9s.8-1.9 1.9-1.9 1.9.8 1.9 1.9v.2h-3.1zm2.4-.4c0-.3 0-.4-.2-.6-.2-.3-.6-.5-1-.5s-.8.2-1 .5c-.1.2-.2.3-.2.6h2.4zM119.2 148v.5c.3-.4.6-.6 1.1-.6s.6.1.9.3c.2.2.3.5.3 1v2.5h-.6v-2.4c0-.3 0-.5-.1-.6-.1-.2-.3-.2-.6-.2s-.5.1-.7.3c-.2.2-.2.4-.2.7v2.2h-.6V148h.6zM94.2 156v-.6h3l-1.6 2c.9 0 1.6.7 1.6 1.6s-.8 1.7-1.8 1.7-1.4-.5-1.6-1.3h.6c.1.4.5.7 1 .7s1.2-.5 1.2-1.1-.5-1.1-1.2-1.1-.4 0-.6.2l-.3-.2L96 156h-1.9zM100.1 158.6c-.2 0-.3.1-.5.1-.9 0-1.6-.7-1.6-1.6s.8-1.7 1.7-1.7 1.7.7 1.7 1.7-.1.7-.4 1.2l-1.5 2.5h-.7l1.3-2.1zm-1.5-1.5c0 .6.5 1.1 1.1 1.1s1.1-.5 1.1-1.1-.5-1.1-1-1.1-1.1.5-1.1 1.1zM102.7 160.4c0 .2-.2.4-.4.4s-.4-.2-.4-.4.2-.4.4-.4.4.2.4.4zM105 157.6c.2 0 .3-.1.5-.1.9 0 1.6.7 1.6 1.6s-.8 1.7-1.7 1.7-1.7-.8-1.7-1.7.1-.7.4-1.2l1.5-2.5h.7l-1.4 2.1zm-.7 1.5c0 .6.5 1.1 1.1 1.1s1.1-.5 1.1-1.1-.5-1.1-1.1-1.1-1.1.5-1.1 1.1zM111.2 157v.5c.3-.4.6-.6 1-.6s.8.2 1 .7c.3-.5.6-.7 1.2-.7s.7.1.9.4c.2.2.2.4.2 1v2.4h-.6v-2.2c0-.4 0-.6-.1-.7-.1-.2-.4-.3-.6-.3-.5 0-.8.4-.8 1v2.2h-.6v-2.2c0-.4 0-.5-.1-.7-.1-.2-.3-.3-.6-.3-.5 0-.9.4-.9 1v2.2h-.6V157h.6zM118.8 158.2v.4h-2l1.2-1.6c.3-.5.4-.6.4-.8 0-.3-.2-.4-.5-.4s-.5.2-.5.6h-.4c0-.6.4-1 1-1s1 .3 1 .8-.1.5-.4.9l-.8 1.1h1.1z"/></g><g><path d="M174.8 208.7c1.1 0 1.7.5 1.7 1.4s-.1.6-.3.9c-.1.2-.3.2-.5.3.3 0 .4.1.6.2.3.2.4.6.4 1s-.2.9-.6 1.2c-.3.2-.7.3-1.3.3h-1.5v-5.3h1.5zm-.8 2.4h.7c.4 0 .7 0 .9-.2.2-.2.3-.4.3-.7s-.2-.6-.4-.8c-.2 0-.4-.1-.9-.1h-.6v1.8zm0 2.4h.7c.6 0 .8 0 1-.2.3-.1.4-.4.4-.8 0-.6-.4-.9-1.2-.9h-.8v1.8zM180.6 210.4h.6v3.7h-.6v-.7c-.4.6-.8.8-1.3.8-1 0-1.7-.8-1.7-1.9s.7-1.9 1.8-1.9 1 .2 1.3.7v-.6zm-2.1.9c-.2.3-.3.6-.3 1 0 .8.5 1.4 1.2 1.4s1.3-.6 1.3-1.4-.5-1.4-1.2-1.4-.7.1-.9.4zM185.4 208.7h.6v5.3h-.6v-.6c-.4.5-.8.7-1.3.7-1 0-1.7-.8-1.7-1.9s.7-2 1.7-2 1 .2 1.3.6v-2.2zm-2.4 3.5c0 .8.5 1.4 1.2 1.4s1.2-.6 1.2-1.4-.5-1.4-1.2-1.4-1.2.6-1.2 1.4zM172.9 221.9v-.5l2.8-3.7v3.6h.6v.6h-.6v1.2h-.6v-1.2H173zm2.1-2.6l-1.5 2h1.5v-2zM178.1 222.7c0 .2-.2.4-.4.4s-.4-.2-.4-.4.2-.4.4-.4.4.2.4.4zM182.1 222.5v.6h-3l1.9-2.7c.5-.8.7-1 .7-1.3 0-.5-.4-.8-.9-.8s-.7.2-.8.4v.6h-.6c0-1 .6-1.6 1.5-1.6s1.5.5 1.5 1.3-.2.8-.6 1.5l-1.4 2h1.9zM186.6 219.4v.5c.3-.4.6-.6 1-.6s.8.2 1 .7c.3-.5.6-.7 1.2-.7s.7.1.9.4c.2.2.2.4.2 1v2.4h-.6v-2.2c0-.4 0-.6-.1-.7-.1-.2-.4-.3-.6-.3-.5 0-.8.4-.8 1v2.2h-.6v-2.2c0-.4 0-.5-.1-.7-.1-.2-.3-.3-.6-.3-.5 0-.9.4-.9 1v2.2h-.6v-3.7h.6zM194.2 220.6v.4h-2l1.2-1.6c.3-.5.4-.6.4-.8 0-.3-.2-.4-.5-.4s-.5.2-.5.6h-.4c0-.6.4-1 1-1s1 .3 1 .8-.1.5-.4.9l-.8 1.1h1.1z"/></g><g><path d="M200.6 16.8h1.4c1.6 0 2.6 1 2.6 2.6s-.3 1.6-.8 2.1c-.5.4-1.1.6-1.9.6h-1.3v-5.3zm.7 4.8h.2c.9 0 1.3 0 1.7-.4.5-.4.7-1 .7-1.8 0-1.3-.7-2-1.9-2h-.7v4.2zM208.6 18.4v2.4c0 .5 0 .8-.4 1-.3.2-.6.4-1.1.4s-.8-.1-1.1-.4c-.2-.2-.4-.6-.4-1v-2.4h.6v2.3c0 .5.3.9.8.9s.5-.1.7-.3c.1-.1.2-.3.2-.6v-2.4h.6zM211.6 19.4c0-.4-.3-.6-.7-.6s-.7.2-.7.5.2.4.8.6c.5.1.7.2.9.4.2.2.3.4.3.7 0 .6-.5 1.1-1.3 1.1s-1.3-.4-1.4-1.1h.6c0 .4.3.6.8.6s.7-.2.7-.5-.2-.5-.8-.6c-.8-.2-1.2-.6-1.2-1.1s.5-1.1 1.3-1.1 1.3.4 1.3 1.1h-.6zM216.3 21.6c-.4.4-.8.5-1.4.5-1.1 0-1.8-.8-1.8-1.9s.8-1.9 1.8-1.9 1 .2 1.3.6l-.4.4c-.3-.3-.6-.4-.9-.4-.7 0-1.2.6-1.2 1.4s.5 1.4 1.2 1.4.6-.1.9-.4l.4.4zM217.8 18.9c.3-.4.7-.6 1.1-.6s.7.1.9.3c.2.2.3.5.3 1v2.5h-.6v-2.4c0-.5-.2-.8-.7-.8s-.5.1-.7.3c-.2.2-.2.4-.2.7v2.2h-.6v-5.3h.6V19zM221.8 20.5c0 .3 0 .5.2.7.2.3.6.5 1 .5s.9-.2 1.1-.6l.5.2c-.3.6-.9 1-1.6 1-1.1 0-1.9-.8-1.9-1.9s.8-1.9 1.9-1.9 1.9.8 1.9 1.9v.2h-3.1zm2.4-.4c0-.3 0-.4-.2-.6-.2-.3-.6-.5-1-.5s-.8.2-1 .5c-.1.2-.2.3-.2.6h2.4zM200.3 29.9v-.5l2.8-3.7v3.6h.6v.6h-.6v1.2h-.6v-1.2h-2.1zm2.1-2.6l-1.5 2h1.5v-2zM205.4 30.8c0 .2-.2.4-.4.4s-.4-.2-.4-.4.2-.4.4-.4.4.2.4.4zM207.8 28c.2 0 .3-.1.5-.1.9 0 1.6.7 1.6 1.6s-.8 1.7-1.7 1.7-1.7-.8-1.7-1.7.1-.7.4-1.2l1.5-2.5h.7l-1.4 2.1zm-.7 1.5c0 .6.5 1.1 1.1 1.1s1.1-.5 1.1-1.1-.5-1.1-1.1-1.1-1.1.5-1.1 1.1zM213.9 27.4v.5c.3-.4.6-.6 1-.6s.8.2 1 .7c.3-.5.6-.7 1.2-.7s.7.1.9.4c.2.2.2.4.2 1v2.4h-.6v-2.2c0-.4 0-.6-.1-.7-.1-.2-.4-.3-.6-.3-.5 0-.8.4-.8 1v2.2h-.6v-2.2c0-.4 0-.5-.1-.7-.1-.2-.3-.3-.6-.3-.5 0-.9.4-.9 1v2.2h-.6v-3.7h.6zM221.5 28.6v.4h-2l1.2-1.6c.3-.5.4-.6.4-.8 0-.3-.2-.4-.5-.4s-.5.2-.5.6h-.4c0-.6.4-1 1-1s1 .3 1 .8-.1.5-.4.9l-.8 1.1h1.1z"/></g><g><path d="M114.3 52.6v.6h-3.8l3-4.8h-2.7v-.6h3.8l-3 4.8h2.7zM116.2 48.5c0 .2-.2.4-.4.4s-.4-.2-.4-.4.2-.4.4-.4.4.2.4.4zm0 4.7h-.6v-3.7h.6v3.7zM118.1 49.5v.5c.3-.4.6-.6 1-.6s.8.2 1 .7c.3-.5.6-.7 1.2-.7s.7.1.9.4c.2.2.2.4.2 1v2.4h-.6V51c0-.4 0-.6-.1-.7-.1-.2-.4-.3-.6-.3-.5 0-.8.4-.8 1v2.2h-.6V51c0-.4 0-.5-.1-.7-.1-.2-.3-.3-.6-.3-.5 0-.9.4-.9 1v2.2h-.6v-3.7h.6zM124.4 49.5v.5c.3-.4.6-.6 1-.6s.8.2 1 .7c.3-.5.6-.7 1.2-.7s.7.1.9.4c.2.2.2.4.2 1v2.4h-.6V51c0-.4 0-.6-.1-.7-.1-.2-.4-.3-.6-.3-.5 0-.8.4-.8 1v2.2h-.6V51c0-.4 0-.5-.1-.7-.1-.2-.3-.3-.6-.3-.5 0-.9.4-.9 1v2.2h-.6v-3.7h.6zM130.5 51.5c0 .3 0 .5.2.7.2.3.6.5 1 .5s.9-.2 1.1-.6l.5.2c-.3.6-.9 1-1.6 1-1.1 0-1.9-.8-1.9-1.9s.8-1.9 1.9-1.9 1.9.8 1.9 1.9v.2h-3.1zm2.4-.4c0-.3 0-.4-.2-.6-.2-.3-.6-.5-1-.5s-.8.2-1 .5c-.1.2-.2.3-.2.6h2.4zM135.2 49.5v.6c.1-.3.2-.4.3-.5.2-.1.4-.2.7-.2h.1v.6h-.2c-.3 0-.6.2-.8.4-.2.2-.2.4-.2.9v1.9h-.6v-3.7h.6zM111.3 58.6V58l1.8-1.2v5.4h-.6v-4.4l-1.2.8zM114.8 57.5v-.6h3l-1.6 2c.9 0 1.6.7 1.6 1.6s-.8 1.7-1.8 1.7-1.4-.5-1.6-1.3h.6c.1.4.5.7 1 .7s1.2-.5 1.2-1.1-.5-1.1-1.2-1.1-.4 0-.6.2l-.3-.2 1.5-1.9h-1.9zM119.7 61.8c0 .2-.2.4-.4.4s-.4-.2-.4-.4.2-.4.4-.4.4.2.4.4zM120.7 58.6V58l1.8-1.2v5.4h-.6v-4.4l-1.2.8zM126.7 58.5v.5c.3-.4.6-.6 1-.6s.8.2 1 .7c.3-.5.6-.7 1.2-.7s.7.1.9.4c.2.2.2.4.2 1v2.4h-.6V60c0-.4 0-.6-.1-.7-.1-.2-.4-.3-.6-.3-.5 0-.8.4-.8 1v2.2h-.6V60c0-.4 0-.5-.1-.7-.1-.2-.3-.3-.6-.3-.5 0-.9.4-.9 1v2.2h-.6v-3.7h.6zM134.3 59.7v.4h-2l1.2-1.6c.3-.5.4-.6.4-.8 0-.3-.2-.4-.5-.4s-.5.2-.5.6h-.4c0-.6.4-1 1-1s1 .3 1 .8-.1.5-.4.9l-.8 1.1h1.1z"/></g></g></svg>