<svg xmlns="http://www.w3.org/2000/svg" viewBox="0 0 394.5 366.2"><defs><style>.cls-1,.cls-10,.cls-11,.cls-12,.cls-13,.cls-14,.cls-15,.cls-16,.cls-17,.cls-18,.cls-19,.cls-2,.cls-20,.cls-21,.cls-3,.cls-4,.cls-5,.cls-6,.cls-7,.cls-8,.cls-9{fill:none;stroke-linecap:round;stroke-linejoin:round}.cls-1,.cls-10,.cls-11,.cls-12,.cls-13,.cls-14,.cls-15,.cls-16,.cls-17,.cls-18,.cls-2,.cls-20,.cls-21,.cls-3,.cls-4,.cls-5,.cls-6,.cls-7,.cls-8,.cls-9{stroke-width:.1px}.cls-1,.cls-14,.cls-15,.cls-18,.cls-19,.cls-20,.cls-3,.cls-4{stroke:#194164}.cls-1,.cls-15{stroke-dasharray:0 0 0 0 2.9 1.4 .2 1.4}.cls-2{stroke:#646464}.cls-10,.cls-11,.cls-12,.cls-13,.cls-14,.cls-20,.cls-21,.cls-3,.cls-4,.cls-5,.cls-6,.cls-7,.cls-8,.cls-9{stroke-dasharray:0 0 1.4 1.4}.cls-4{stroke-dashoffset:1px}.cls-5{stroke-dashoffset:2.5px}.cls-10,.cls-11,.cls-12,.cls-13,.cls-17,.cls-21,.cls-5,.cls-6,.cls-7,.cls-8,.cls-9{stroke:#969696}.cls-22,.cls-23{fill:#fff}.cls-7{stroke-dashoffset:2.8px}.cls-8{stroke-dashoffset:1.1px}.cls-9{stroke-dashoffset:2.4px}.cls-10{stroke-dashoffset:2.7px}.cls-11{stroke-dashoffset:2.5px}.cls-12{stroke-dashoffset:1.4px}.cls-13,.cls-20{stroke-dashoffset:.7px}.cls-23,.cls-24{fill-rule:evenodd}.cls-14{stroke-dashoffset:.2px}.cls-15{stroke-dashoffset:1.7px}.cls-16{stroke:#000}.cls-19{stroke-width:.3px}.cls-21{stroke-dashoffset:1.2px}</style></defs><g id="Plan"><path class="cls-19" d="M134.7 19.8h39.8v29.8h-39.8z"/><path class="cls-18" d="M183.4 51.5V16M180.6 33.3v13.6M177.4 20.3v13.9"/><path class="cls-23" d="M292.2 188.1v-2.9h30v2.9h-30"/><path class="cls-18" d="M322.2 187.3h-29.3M322.2 188.1h-30M322.2 185.9h-29.3M322.2 187.3h-29.3M322.2 185.2h-30M322.2 185.9h-29.3M322.2 185.9h14.1M322.2 187.3h14.1M322.2 185.9h14.1M336.3 187.3v-1.4M322.2 185.2h14.1M322.2 187.3h14.1"/><path class="cls-23" d="M182 16.7h5.8L182 10v6.7"/><path class="cls-17" d="M187.5 16.7l-5.3-5.3M183.4 16.7l-1.2-1.4M186.3 16.7l.7-1M182.2 16.7l3.2-3.1M182.2 12.9l1.2-1.5"/><path class="cls-23" d="M182 16.7h5.8L182 10v6.7"/><path class="cls-17" d="M187.5 16.7l-5.3-5.3M183.4 16.7l-1.2-1.4M186.3 16.7l.7-1M182.2 16.7l3.2-3.1M182.2 12.9l1.2-1.5"/><path class="cls-19" d="M182 10v6.7M182 10v6.7"/><path class="cls-18" d="M183.4 19.8v29.5"/><path class="cls-1" d="M188 19.8v29.5"/><path class="cls-18" d="M188 48.9v.4"/><path class="cls-23" d="M188 16.7v3.1h-4.6v-3.1"/><path class="cls-17" d="M188.2 17.4l-.7-.7M186.6 19.8l-2.9-3.1M187.3 19.8l.9-.9M183.7 19.3l2.6-2.6"/><path class="cls-23" d="M188 52.5v-3.2h-4.6v3.2"/><path class="cls-17" d="M188.2 49.3h-.2M187 52.5l-3.1-3.2M186.6 52.5l1.6-1.5M183.7 51.5l2.1-2.2"/><path class="cls-19" d="M188 19.8h-4.6M188 49.3h-4.6M188 19.8h-4.6M188 16.7v3.1M188 49.3h-4.6M188 52.5v-3.2M182 16.7h1.4M182 52.5h1.4M188 16.7v3.1M188 52.5v-3.2M183.4 19.8v-3.1M183.4 49.3v3.2"/><path class="cls-23" d="M180.8 93.5h7.2v-41l-7.2 7.2v33.8"/><path class="cls-17" d="M188.2 53.4l-.7-.5M188.2 57.5l-2.6-2.6M188.2 61.3l-4.5-4.3M188.2 65.4l-6.7-6.5M188.2 69.5l-7.2-7.2M188.2 73.6l-7.2-7.2M188.2 77.4l-7.2-7.2M188.2 81.5l-7.2-7.2M188.2 85.6l-7.2-7.2M188.2 89.4l-7.2-7.2M188 93.5l-7-7.2M184.2 93.5l-3.2-3.1M185.6 93.5l2.6-2.4M181.8 93.5l6.4-6.5M181 90.1l7.2-7.2M181 86.3l7.2-7.2M181 82.2l7.2-7.2M181 78.1l7.2-7.2M181 74.3l7.2-7.2M181 70.2l7.2-7.2M181 66.1l7.2-7.2M181 62.1l7.2-7.2"/><path class="cls-23" d="M180.8 93.5h7.2v-41l-7.2 7.2v33.8"/><path class="cls-17" d="M188.2 53.4l-.7-.5M188.2 57.5l-2.6-2.6M188.2 61.3l-4.5-4.3M188.2 65.4l-6.7-6.5M188.2 69.5l-7.2-7.2M188.2 73.6l-7.2-7.2M188.2 77.4l-7.2-7.2M188.2 81.5l-7.2-7.2M188.2 85.6l-7.2-7.2M188.2 89.4l-7.2-7.2M188 93.5l-7-7.2M184.2 93.5l-3.2-3.1M185.6 93.5l2.6-2.4M181.8 93.5l6.4-6.5M181 90.1l7.2-7.2M181 86.3l7.2-7.2M181 82.2l7.2-7.2M181 78.1l7.2-7.2M181 74.3l7.2-7.2M181 70.2l7.2-7.2M181 66.1l7.2-7.2M181 62.1l7.2-7.2"/><path class="cls-19" d="M180.8 59.7v33.8M188 52.5v41M188 52.5v41M180.8 59.7v33.8"/><path class="cls-23" d="M38.5 204.6h89.3l-1.7-4.3H38.5v4.3"/><path class="cls-17" d="M38.7 203.2l2.9-2.9M41.6 204.6l4.3-4.3M45.7 204.6l4.3-4.3M50 204.6l4.3-4.3M54.3 204.6l4.3-4.3M58.4 204.6l4.3-4.3M62.7 204.6l4.3-4.3M67 204.6l4.4-4.3M71.1 204.6l4.3-4.3M75.4 204.6l4.4-4.3M79.8 204.6l4.3-4.3M84.1 204.6l4.3-4.3M88.2 204.6l4.3-4.3M92.5 204.6l4.3-4.3M96.8 204.6l4.3-4.3M100.9 204.6l4.3-4.3M105.2 204.6l4.3-4.3M109.5 204.6l4.3-4.3M113.8 204.6l4.4-4.3M117.9 204.6l4.3-4.3M122.2 204.6l4.1-4.1M126.6 204.6l.9-.9"/><path class="cls-23" d="M38.5 204.6h89.3l-1.7-4.3H38.5v4.3"/><path class="cls-17" d="M38.7 203.2l2.9-2.9M41.6 204.6l4.3-4.3M45.7 204.6l4.3-4.3M50 204.6l4.3-4.3M54.3 204.6l4.3-4.3M58.4 204.6l4.3-4.3M62.7 204.6l4.3-4.3M67 204.6l4.4-4.3M71.1 204.6l4.3-4.3M75.4 204.6l4.4-4.3M79.8 204.6l4.3-4.3M84.1 204.6l4.3-4.3M88.2 204.6l4.3-4.3M92.5 204.6l4.3-4.3M96.8 204.6l4.3-4.3M100.9 204.6l4.3-4.3M105.2 204.6l4.3-4.3M109.5 204.6l4.3-4.3M113.8 204.6l4.4-4.3M117.9 204.6l4.3-4.3M122.2 204.6l4.1-4.1M126.6 204.6l.9-.9"/><path class="cls-19" d="M126.1 200.3H38.5M127.8 204.6H38.5M38.5 200.3v4.3M127.8 204.6H38.5M126.1 200.3H38.5"/><path class="cls-23" d="M126.1 200.3l1.7 4.3 19.9-19.9-4.1-1.9-17.5 17.5"/><path class="cls-17" d="M126.3 200.5l17.8-17.7M127.5 203.7l19.5-19.5"/><path class="cls-23" d="M126.1 200.3l1.7 4.3 19.9-19.9-4.1-1.9-17.5 17.5"/><path class="cls-17" d="M126.3 200.5l17.8-17.7M127.5 203.7l19.5-19.5"/><path class="cls-19" d="M143.6 182.8l-17.5 17.5M144.8 187.6l-17 17M144.8 187.6l-17 17M143.6 182.8l-17.5 17.5"/><path class="cls-23" d="M165.9 240.1l-4.3-1.6v89.2h4.3v-87.6"/><path class="cls-17" d="M161.8 241.6l2.2-2.2M161.8 245.9l4.4-4.3M161.8 250.2l4.4-4.3M161.8 254.3l4.4-4.3M161.8 258.6l4.4-4.3M161.8 262.9l4.4-4.3M161.8 267l4.4-4.3M161.8 271.3l4.4-4.3M161.8 275.7l4.4-4.4M161.8 280l4.4-4.3M161.8 284.1l4.4-4.4M161.8 288.4l4.4-4.3M161.8 292.7l4.4-4.3M161.8 296.8l4.4-4.3M161.8 301.1l4.4-4.3M161.8 305.4l4.4-4.3M161.8 309.7l4.4-4.3M161.8 313.8l4.4-4.3M161.8 318.1l4.4-4.3M161.8 322.5l4.4-4.4M161.8 326.5l4.4-4.3M165 327.7l1.2-1.2"/><path class="cls-23" d="M165.9 240.1l-4.3-1.6v89.2h4.3v-87.6"/><path class="cls-17" d="M161.8 241.6l2.2-2.2M161.8 245.9l4.4-4.3M161.8 250.2l4.4-4.3M161.8 254.3l4.4-4.3M161.8 258.6l4.4-4.3M161.8 262.9l4.4-4.3M161.8 267l4.4-4.3M161.8 271.3l4.4-4.3M161.8 275.7l4.4-4.4M161.8 280l4.4-4.3M161.8 284.1l4.4-4.4M161.8 288.4l4.4-4.3M161.8 292.7l4.4-4.3M161.8 296.8l4.4-4.3M161.8 301.1l4.4-4.3M161.8 305.4l4.4-4.3M161.8 309.7l4.4-4.3M161.8 313.8l4.4-4.3M161.8 318.1l4.4-4.3M161.8 322.5l4.4-4.4M161.8 326.5l4.4-4.3M165 327.7l1.2-1.2"/><path class="cls-19" d="M165.9 327.7v-87.6M161.6 327.7v-89.2M161.6 327.7v-89.2M165.9 327.7v-87.6M165.9 327.7h-4.3"/><path class="cls-23" d="M183.4 222.6l-1.9-4.1-19.9 20 4.3 1.6 17.5-17.5"/><path class="cls-17" d="M164 239.4l18.7-18.7"/><path class="cls-23" d="M183.4 222.6l-1.9-4.1-19.9 20 4.3 1.6 17.5-17.5"/><path class="cls-17" d="M164 239.4l18.7-18.7"/><path class="cls-19" d="M165.9 240.1l17.5-17.5M161.6 238.5l17-17.1M161.6 238.5l17-17.1M165.9 240.1l17.5-17.5"/><path class="cls-18" d="M179.6 216.6l-2.9 2.9M149.6 186.4l-2.9 3.1"/><path class="cls-19" d="M181.5 218.5l-2.9 2.9M147.7 184.7l-2.9 2.9"/><path class="cls-17" d="M161.7 204.5c-4 4-6.2 9.4-6.2 15s2.2 11 6.2 15M131.6 204.5c8.2 8.2 21.8 8.2 30.1 0M176.7 219.5l-15.1 15.1M146.7 189.5l-15.1 15.1"/><path class="cls-23" d="M252.1 222.6v-4.1h18.5v4.1h-18.5"/><path class="cls-17" d="M270.8 220.2l-1.7-1.7M269.1 222.6l-4.1-4.1M265 222.6l-4-4.1M261.2 222.6l-4.1-4.1M257.1 222.6l-4.1-4.1M253 222.6l-.7-.9M269.1 222.6l1.7-1.7M265 222.6l4.1-4.1M261 222.6l4-4.1M256.9 222.6l4.1-4.1M253 222.6l4.1-4.1M252.3 219.5l.7-1"/><path class="cls-23" d="M252.1 218.5v4.1h18.5v-4.1h-18.5"/><path class="cls-17" d="M270.8 220.2l-1.7-1.7M269.1 222.6l-4.1-4.1M265 222.6l-4-4.1M261.2 222.6l-4.1-4.1M257.1 222.6l-4.1-4.1M253 222.6l-.7-.9M269.1 222.6l1.7-1.7M265 222.6l4.1-4.1M261 222.6l4-4.1M256.9 222.6l4.1-4.1M253 222.6l4.1-4.1M252.3 219.5l.7-1"/><path class="cls-19" d="M252.1 222.6h18.5M252.1 218.5h18.5M270.6 222.6v-4.1M252.1 218.5h18.5M252.1 222.6h18.5"/><path class="cls-23" d="M183.4 222.6l-1.9-4.1h45.4v4.1h-43.5"/><path class="cls-17" d="M227.1 220.7l-2.1-2.2M225 222.6l-4.1-4.1M221.1 222.6l-4.1-4.1M217 222.6l-4-4.1M213 222.6l-4.1-4.1M208.9 222.6l-4.1-4.1M205 222.6l-4-4.1M201 222.6l-4.1-4.1M196.9 222.6l-4.1-4.1M193 222.6l-4-4.1M189 222.6l-4.1-4.1M184.9 222.6l-2.7-2.6M225 222.6l2.1-2.1M220.9 222.6l4.1-4.1M216.8 222.6l4.1-4.1M213 222.6l4-4.1M208.9 222.6l4.1-4.1M204.8 222.6l4.1-4.1M201 222.6l4-4.1M196.9 222.6l4.1-4.1M192.8 222.6l4.1-4.1M189 222.6l4-4.1M184.9 222.6l4.1-4.1M182.7 220.7l2.2-2.2"/><path class="cls-23" d="M181.5 218.5l1.9 4.1h43.5v-4.1h-45.4"/><path class="cls-17" d="M227.1 220.7l-2.1-2.2M225 222.6l-4.1-4.1M221.1 222.6l-4.1-4.1M217 222.6l-4-4.1M213 222.6l-4.1-4.1M208.9 222.6l-4.1-4.1M205 222.6l-4-4.1M201 222.6l-4.1-4.1M196.9 222.6l-4.1-4.1M193 222.6l-4-4.1M189 222.6l-4.1-4.1M184.9 222.6l-2.7-2.6M225 222.6l2.1-2.1M220.9 222.6l4.1-4.1M216.8 222.6l4.1-4.1M213 222.6l4-4.1M208.9 222.6l4.1-4.1M204.8 222.6l4.1-4.1M201 222.6l4-4.1M196.9 222.6l4.1-4.1M192.8 222.6l4.1-4.1M189 222.6l4-4.1M184.9 222.6l4.1-4.1M182.7 220.7l2.2-2.2"/><path class="cls-19" d="M183.4 222.6h43.5M181.5 218.5h45.4M181.5 218.5h45.4M183.4 222.6h43.5M183.4 222.6l-1.9-4.1"/><path class="cls-1" d="M226.9 222.6h25.2M226.9 218.5h25.2"/><path class="cls-18" d="M228.1 222.6v-4.1M250.9 222.6v-4.1"/><path class="cls-19" d="M226.9 222.6v-4.1M252.1 222.6v-4.1"/><path class="cls-17" d="M228.1 222.7c0 12.4 10.2 22.7 22.7 22.7M250.9 222.6v22.8"/><path class="cls-23" d="M143.6 144.4h4.1v40.3l-4.1-1.9v-38.4"/><path class="cls-17" d="M147.9 145.3l-1.2-.9M147.9 149.4l-4.1-4.1M147.9 153.5l-4.1-4.1M147.9 157.3l-4.1-4M147.9 161.4l-4.1-4.1M147.9 165.5l-4.1-4.1M147.9 169.3l-4.1-4M147.9 173.4l-4.1-4.1M147.9 177.5l-4.1-4.1M147.9 181.6l-4.1-4.1M146.2 184l-2.4-2.7M147 184.2l.9-.7M144.3 183l3.6-3.6M143.8 179.7l4.1-4.1M143.8 175.6l4.1-4.1M143.8 171.5l4.1-4.1M143.8 167.4l4.1-4.1M143.8 163.6l4.1-4.1M143.8 159.5l4.1-4.1M143.8 155.4l4.1-4.1M143.8 151.6l4.1-4.1M143.8 147.5l2.9-3.1"/><path class="cls-23" d="M147.7 144.4h-4.1v38.4l4.1 1.9v-40.3"/><path class="cls-17" d="M147.9 145.3l-1.2-.9M147.9 149.4l-4.1-4.1M147.9 153.5l-4.1-4.1M147.9 157.3l-4.1-4M147.9 161.4l-4.1-4.1M147.9 165.5l-4.1-4.1M147.9 169.3l-4.1-4M147.9 173.4l-4.1-4.1M147.9 177.5l-4.1-4.1M147.9 181.6l-4.1-4.1M146.2 184l-2.4-2.7M147 184.2l.9-.7M144.3 183l3.6-3.6M143.8 179.7l4.1-4.1M143.8 175.6l4.1-4.1M143.8 171.5l4.1-4.1M143.8 167.4l4.1-4.1M143.8 163.6l4.1-4.1M143.8 159.5l4.1-4.1M143.8 155.4l4.1-4.1M143.8 151.6l4.1-4.1M143.8 147.5l2.9-3.1"/><path class="cls-19" d="M143.6 144.4v38.4M147.7 144.4v40.3M143.6 182.8l4.1 1.9M147.7 144.4v40.3M143.6 144.4v38.4"/><path class="cls-23" d="M147.7 119.2v-18.5l-4.1-7.2v25.7h4.1"/><path class="cls-17" d="M147.9 101.2l-4.1-4.1M147.9 105.3l-4.1-4.1M147.9 109.3l-4.1-4M147.9 113.4l-4.1-4.1M147.9 117.3l-4.1-4.1M145.5 119.2l-1.7-1.9M144.1 119.2l3.8-3.9M143.8 115.3l4.1-4M143.8 111.5l4.1-4.1M143.8 107.4l4.1-4.1M143.8 103.3l3.4-3.6M143.8 99.3l2-2M143.8 95.4l.5-.7"/><path class="cls-23" d="M147.7 119.2v-18.5l-4.1-7.2v25.7h4.1"/><path class="cls-17" d="M147.9 101.2l-4.1-4.1M147.9 105.3l-4.1-4.1M147.9 109.3l-4.1-4M147.9 113.4l-4.1-4.1M147.9 117.3l-4.1-4.1M145.5 119.2l-1.7-1.9M144.1 119.2l3.8-3.9M143.8 115.3l4.1-4M143.8 111.5l4.1-4.1M143.8 107.4l4.1-4.1M143.8 103.3l3.4-3.6M143.8 99.3l2-2M143.8 95.4l.5-.7"/><path class="cls-19" d="M143.6 93.5v25.7M147.7 100.7v18.5M147.7 100.7v18.5M143.6 93.5v25.7"/><path class="cls-1" d="M143.6 119.2v25.2M147.7 119.2v25.2"/><path class="cls-18" d="M143.6 120.4h4.1M143.6 142.9h4.1"/><path class="cls-19" d="M143.6 119.2h4.1M143.6 144.4h4.1"/><path class="cls-17" d="M120.8 120.4c0 12.4 10.2 22.7 22.7 22.7M143.6 120.4h-22.8"/><path class="cls-23" d="M290.5 134.2c-1.3-.9-3-.9-4.3 0-1.9 1.5-2.9 3.8-2.9 6.2l.3 9h9.6l.3-9c0-2.4-1-4.7-2.9-6.2"/><path class="cls-18" d="M290.5 134.2c-1.3-.9-3-.9-4.3 0-1.9 1.5-2.9 3.8-2.9 6.2l.3 9h9.6l.3-9c0-2.4-1-4.7-2.9-6.2"/><path class="cls-23" d="M288.3 144.3c1 0 2-.3 2.8-1.1.7-.7 1.2-1.7 1.2-2.7 0-2.1-.9-4.1-2.5-5.4-.9-.6-2-.6-2.9 0-1.6 1.3-2.5 3.3-2.5 5.4 0 1 .4 2 1.2 2.7.7.7 1.7 1.1 2.8 1.1"/><path class="cls-18" d="M288.3 144.3c1 0 2-.3 2.8-1.1.7-.7 1.2-1.7 1.2-2.7 0-2.1-.9-4.1-2.5-5.4-.9-.6-2-.6-2.9 0-1.6 1.3-2.5 3.3-2.5 5.4 0 1 .4 2 1.2 2.7.7.7 1.7 1.1 2.8 1.1"/><path class="cls-23" d="M345.3 149v-48.1h-.1v-.1h-.1v-.1h-20.8l-.1.1h-.1v.2l-.1.1v48h.1v.2h.1v.1H345.1l.1-.1v-.1h.1v-.2"/><path class="cls-18" d="M345.3 149v-48.1h-.1v-.1h-.1v-.1h-20.8l-.1.1h-.1v.2l-.1.1v48h.1v.2h.1v.1H345.1l.1-.1v-.1h.1v-.2"/><path class="cls-23" d="M343.2 143.8v-37.4c0-.4 0-.9-.3-1.3-.2-.4-.4-.8-.7-1.1-.3-.3-.7-.6-1.1-.7-.4-.2-.9-.3-1.3-.3h-10.2c-.4 0-.9 0-1.3.3-.4.2-.8.4-1.1.7-.3.3-.6.7-.7 1.1-.2.4-.3.9-.3 1.3v37.4c0 .4 0 .9.3 1.3.2.4.4.8.7 1.1.3.3.7.6 1.1.7.4.2.9.3 1.3.3h10.2c.4 0 .9 0 1.3-.3.4-.2.8-.4 1.1-.7.3-.3.6-.7.7-1.1.2-.4.3-.9.3-1.3"/><path class="cls-18" d="M343.2 143.8v-37.4c0-.4 0-.9-.3-1.3-.2-.4-.4-.8-.7-1.1-.3-.3-.7-.6-1.1-.7-.4-.2-.9-.3-1.3-.3h-10.2c-.4 0-.9 0-1.3.3-.4.2-.8.4-1.1.7-.3.3-.6.7-.7 1.1-.2.4-.3.9-.3 1.3v37.4c0 .4 0 .9.3 1.3.2.4.4.8.7 1.1.3.3.7.6 1.1.7.4.2.9.3 1.3.3h10.2c.4 0 .9 0 1.3-.3.4-.2.8-.4 1.1-.7.3-.3.6-.7.7-1.1.2-.4.3-.9.3-1.3M274.4 150.1h24.5M274.4 151.6h23.3M274.4 150.1h24.5M274.4 149.4h25.2M274.4 151.6h23.3M274.4 151.6v-1.5M298.9 154h18.5M297.7 155.4h21.1M298.9 154h18.5M299.6 153.3h17M297.7 155.4h21.1M317.4 150.1h28.3M318.8 151.6h26.9M317.4 150.1h28.3M345.7 151.6v-1.5M316.6 149.4h29.1M318.8 151.6h26.9"/><path class="cls-23" d="M316 149.4v-12-.4c0-.1-.1-.3-.2-.4s-.2-.2-.4-.2H301.3c-.1 0-.3.1-.4.2-.1.1-.2.2-.2.4v12.4h15.6"/><path class="cls-18" d="M316 149.4v-12-.4c0-.1-.1-.3-.2-.4s-.2-.2-.4-.2H301.3c-.1 0-.3.1-.4.2-.1.1-.2.2-.2.4v12.4h15.6"/><path class="cls-14" d="M299.6 149.4v3.9"/><path class="cls-4" d="M299.6 153.3h17"/><path class="cls-14" d="M316.6 153.3v-3.9"/><path class="cls-18" d="M317.4 154v-3.9M318.8 155.4v-3.8M317.4 154v-3.9M316.6 153.3v-3.9M318.8 155.4v-3.8M298.9 150.1v3.9M297.7 151.6v3.8M298.9 150.1v3.9M299.6 149.4v3.9M297.7 151.6v3.8M319 241.6h17.3v86.2H319zM321.2 326.5H319M321.2 309.5H319M321.2 292.7H319M321.2 275.7H319M321.2 258.6H319M319 241.1h17.3v.5H319zM319 224.1h.5v17h-.5zM319.5 224.1h15.4v.5h-15.4zM319.5 240.4h15.4v.7h-15.4zM334.9 224.1h.5v17h-.5z"/><path class="cls-23" d="M331.3 259.5h-8.9c-.3 0-.5 0-.8.2-.2.1-.5.2-.6.4-.2.2-.3.4-.4.6 0 .2-.2.5-.2.8v11.2c0 .3 0 .5.2.8.1.2.2.5.4.6.2.2.4.3.6.4.2.1.5.2.8.2h8.9c.3 0 .5 0 .8-.2.2 0 .5-.2.6-.4.2-.2.3-.4.4-.6.1-.2.2-.5.2-.8v-11.2c0-.3 0-.5-.2-.8 0-.2-.2-.5-.4-.6-.2-.2-.4-.3-.6-.4-.2 0-.5-.2-.8-.2"/><path class="cls-18" d="M331.3 259.5h-8.9c-.3 0-.5 0-.8.2-.2.1-.5.2-.6.4-.2.2-.3.4-.4.6 0 .2-.2.5-.2.8v11.2c0 .3 0 .5.2.8.1.2.2.5.4.6.2.2.4.3.6.4.2.1.5.2.8.2h8.9c.3 0 .5 0 .8-.2.2 0 .5-.2.6-.4.2-.2.3-.4.4-.6.1-.2.2-.5.2-.8v-11.2c0-.3 0-.5-.2-.8 0-.2-.2-.5-.4-.6-.2-.2-.4-.3-.6-.4-.2 0-.5-.2-.8-.2"/><path class="cls-23" d="M331 267.1c0-.6-.5-1.1-1.1-1.1s-1.1.5-1.1 1.1.5 1.1 1.1 1.1 1.1-.5 1.1-1.1"/><path class="cls-18" d="M331 267.1c0-.6-.5-1.1-1.1-1.1s-1.1.5-1.1 1.1.5 1.1 1.1 1.1 1.1-.5 1.1-1.1"/><path class="cls-22" d="M320.5 293.2h14.4V309h-14.4z"/><path class="cls-18" d="M320.5 293.2h14.4V309h-14.4z"/><path class="cls-23" d="M327.9 305.2c0-1.6-1.2-2.9-2.8-2.9s-2.8 1.3-2.8 2.9 1.2 2.9 2.8 2.9 2.8-1.3 2.8-2.9"/><path class="cls-18" d="M327.9 305.2c0-1.6-1.2-2.9-2.8-2.9s-2.8 1.3-2.8 2.9 1.2 2.9 2.8 2.9 2.8-1.3 2.8-2.9"/><path class="cls-23" d="M334.2 306.1c0-1.2-1-2.2-2.3-2.2s-2.3 1-2.3 2.2 1 2.2 2.3 2.2 2.3-1 2.3-2.2"/><path class="cls-18" d="M334.2 306.1c0-1.2-1-2.2-2.3-2.2s-2.3 1-2.3 2.2 1 2.2 2.3 2.2 2.3-1 2.3-2.2"/><path class="cls-23" d="M327.2 297.5c0-1.2-1-2.2-2.2-2.2s-2.2 1-2.2 2.2 1 2.2 2.2 2.2 2.2-1 2.2-2.2"/><path class="cls-18" d="M327.2 297.5c0-1.2-1-2.2-2.2-2.2s-2.2 1-2.2 2.2 1 2.2 2.2 2.2 2.2-1 2.2-2.2"/><path class="cls-23" d="M334.4 297.7c0-1.6-1.3-2.9-2.9-2.9s-2.9 1.3-2.9 2.9 1.3 2.9 2.9 2.9 2.9-1.3 2.9-2.9"/><path class="cls-18" d="M334.4 297.7c0-1.6-1.3-2.9-2.9-2.9s-2.9 1.3-2.9 2.9 1.3 2.9 2.9 2.9 2.9-1.3 2.9-2.9"/><path class="cls-1" d="M326.2 188.1v139.6"/><path class="cls-18" d="M319 207h.5v17h-.5zM319.5 207h15.4v.5h-15.4zM319.5 223.3h15.4v.7h-15.4zM334.9 207h.5v17h-.5zM319 190h.5v17h-.5zM319.5 190h15.4v.5h-15.4zM319.5 206.3h15.4v.7h-15.4zM334.9 190h.5v17h-.5zM319 188.1h.5v1.9h-.5z"/><path class="cls-24" d="M182.7 327.7v14.7h-75.8l6.2-14.7h69.6"/><path class="cls-23" d="M182.7 342.4V339h-74.4l-1.4 3.4h75.8"/><path class="cls-17" d="M107.4 341.4l.9 1M108.8 339l3.4 3.4M112.9 339l3.3 3.4M117 339l3.3 3.4M121 339l3.4 3.4M124.9 339l3.3 3.4M129 339l3.3 3.4M133 339l3.4 3.4M136.9 339l3.3 3.4M141 339l3.3 3.4M145 339l3.4 3.4M149.1 339l3.4 3.4M153 339l3.3 3.4M157 339l3.4 3.4M161.1 339l3.4 3.4M165 339l3.3 3.4M169 339l3.4 3.4M173.1 339l3.4 3.4M177 339l3.3 3.4M181 339l2 1.7"/><path class="cls-23" d="M182.7 339v-.5h-74.1l-.3.5h74.4M182.7 338.5v-5.7H111l-2.4 5.7h74.1"/><path class="cls-17" d="M110 335.2v3.3M111.4 332.8v5.7M112.9 332.8v5.7M114.3 332.8v5.7M115.8 332.8v5.7M117.2 332.8v5.7M118.6 332.8v5.7M120.1 332.8v5.7M121.5 332.8v5.7M123 332.8v5.7M124.4 332.8v5.7M125.6 332.8v5.7M127 332.8v5.7M128.5 332.8v5.7M129.9 332.8v5.7M131.4 332.8v5.7M132.8 332.8v5.7M134.2 332.8v5.7M135.7 332.8v5.7M137.1 332.8v5.7M138.6 332.8v5.7M139.8 332.8v5.7M141.2 332.8v5.7M142.6 332.8v5.7M144.1 332.8v5.7M145.5 332.8v5.7M147 332.8v5.7M148.4 332.8v5.7M149.8 332.8v5.7M151.3 332.8v5.7M152.7 332.8v5.7M154.2 332.8v5.7M155.4 332.8v5.7M156.8 332.8v5.7M158.2 332.8v5.7M159.7 332.8v5.7M161.1 332.8v5.7M162.6 332.8v5.7M164 332.8v5.7M165.4 332.8v5.7M166.9 332.8v5.7M168.3 332.8v5.7M169.5 332.8v5.7M171 332.8v5.7M172.4 332.8v5.7M173.8 332.8v5.7M175.3 332.8v5.7M176.7 332.8v5.7M178.2 332.8v5.7M179.6 332.8v5.7M181 332.8v5.7M182.5 332.8v5.7"/><path class="cls-23" d="M182.7 332.8v-5.1h-69.6l-2.1 5.1h71.7"/><path class="cls-17" d="M112.2 330.1l2.6 2.7M113.6 327.7l5 5.1M117.7 327.7l5 5.1M121.8 327.7l5 5.1M125.6 327.7l5 5.1M129.7 327.7l5 5.1M133.8 327.7l5 5.1M137.8 327.7l5.1 5.1M141.7 327.7l5 5.1M145.8 327.7l5 5.1M149.8 327.7l5.1 5.1M153.7 327.7l5 5.1M157.8 327.7l5 5.1M161.8 327.7l5.1 5.1M165.7 327.7l5 5.1M169.8 327.7l5 5.1M173.8 327.7l5.1 5.1M177.9 327.7l5.1 5.1M181.8 327.7l1.2 1"/><path class="cls-19" d="M182.7 339h-74.4M182.7 342.4h-75.8"/><path class="cls-17" d="M182.7 332.8H111M182.7 338.5h-74.1"/><path class="cls-19" d="M182.7 327.7h-69.6M182.7 332.8H111"/><path class="cls-18" d="M182.7 342.4h-75.8M182.7 327.7h-69.6"/><path class="cls-24" d="M274.6 327.7v14.7h-51.1v-14.7h51.1"/><path class="cls-23" d="M274.6 342.4V339h-51.1v3.4h51.1"/><path class="cls-17" d="M223.8 341.4l.7 1M225.2 339l3.4 3.4M229.3 339l3.3 3.4M233.1 339l3.4 3.4M237.2 339l3.4 3.4M241.3 339l3.3 3.4M245.1 339l3.4 3.4M249.2 339l3.4 3.4M253.3 339l3.3 3.4M257.4 339l3.3 3.4M261.2 339l3.4 3.4M265.3 339l3.3 3.4M269.4 339l3.3 3.4M273.2 339l1.7 1.5"/><path class="cls-23" d="M274.6 339v-.5h-51.1v.5h51.1M274.6 338.5v-5.7h-51.1v5.7h51.1"/><path class="cls-17" d="M225 332.8v5.7M226.4 332.8v5.7M227.8 332.8v5.7M229.3 332.8v5.7M230.5 332.8v5.7M231.9 332.8v5.7M233.4 332.8v5.7M234.8 332.8v5.7M236.2 332.8v5.7M237.7 332.8v5.7M239.1 332.8v5.7M240.6 332.8v5.7M242 332.8v5.7M243.4 332.8v5.7M244.6 332.8v5.7M246.1 332.8v5.7M247.5 332.8v5.7M249 332.8v5.7M250.4 332.8v5.7M251.8 332.8v5.7M253.3 332.8v5.7M254.7 332.8v5.7M256.2 332.8v5.7M257.6 332.8v5.7M259 332.8v5.7M260.2 332.8v5.7M261.7 332.8v5.7M263.1 332.8v5.7M264.6 332.8v5.7M266 332.8v5.7M267.4 332.8v5.7M268.9 332.8v5.7M270.3 332.8v5.7M271.8 332.8v5.7M273.2 332.8v5.7M274.4 332.8v5.7"/><path class="cls-23" d="M274.6 332.8v-5.1h-51.1v5.1h51.1"/><path class="cls-17" d="M223.8 329.4l3.1 3.4M225.9 327.7l5.1 5.1M230 327.7l5 5.1M233.8 327.7l5.1 5.1M237.9 327.7l5.1 5.1M242 327.7l5 5.1M246.1 327.7l5 5.1M249.9 327.7l5.1 5.1M254 327.7l5 5.1M258.1 327.7l5 5.1M261.9 327.7l5.1 5.1M266 327.7l5 5.1M270.1 327.7l4.8 4.8M273.9 327.7l1 .8"/><path class="cls-19" d="M274.6 339h-51.1M274.6 342.4h-51.1"/><path class="cls-17" d="M274.6 332.8h-51.1M274.6 338.5h-51.1"/><path class="cls-19" d="M274.6 327.7h-51.1M274.6 332.8h-51.1"/><path class="cls-18" d="M274.6 342.4h-51.1M274.6 327.7h-51.1"/><path class="cls-24" d="M352.6 327.7v14.7h-37.2v-14.7h37.2"/><path class="cls-23" d="M352.6 342.4V339h-37.2v3.4h37.2"/><path class="cls-17" d="M315.7 341.2l.9 1.2M317.4 339l3.3 3.4M321.4 339l3.4 3.4M325.3 339l3.3 3.4M329.4 339l3.3 3.4M333.4 339l3.4 3.4M337.5 339l3.4 3.4M341.4 339l3.3 3.4M345.4 339l3.4 3.4M349.5 339l3.4 3.4"/><path class="cls-23" d="M352.6 339v-.5h-37.2v.5h37.2M352.6 338.5v-5.7h-37.2v5.7h37.2"/><path class="cls-17" d="M315.7 332.8v5.7M317.1 332.8v5.7M318.6 332.8v5.7M319.8 332.8v5.7M321.2 332.8v5.7M322.6 332.8v5.7M324.1 332.8v5.7M325.5 332.8v5.7M327 332.8v5.7M328.4 332.8v5.7M329.8 332.8v5.7M331.3 332.8v5.7M332.7 332.8v5.7M334.2 332.8v5.7M335.4 332.8v5.7M336.8 332.8v5.7M338.2 332.8v5.7M339.7 332.8v5.7M341.1 332.8v5.7M342.6 332.8v5.7M344 332.8v5.7M345.4 332.8v5.7M346.9 332.8v5.7M348.3 332.8v5.7M349.5 332.8v5.7M351 332.8v5.7M352.4 332.8v5.7"/><path class="cls-23" d="M352.6 332.8v-5.1h-37.2v5.1h37.2"/><path class="cls-17" d="M315.7 329.2l3.3 3.6M318.1 327.7l5 5.1M322.2 327.7l5 5.1M326.2 327.7l5.1 5.1M330.1 327.7l5 5.1M334.2 327.7l5 5.1M338.2 327.7l5.1 5.1M342.1 327.7l5 5.1M346.2 327.7l5 5.1M350.2 327.7l2.7 2.7"/><path class="cls-19" d="M352.6 339h-37.2M352.6 342.4h-37.2"/><path class="cls-17" d="M352.6 332.8h-37.2M352.6 338.5h-37.2"/><path class="cls-19" d="M352.6 327.7h-37.2M352.6 332.8h-37.2"/><path class="cls-18" d="M352.6 342.4h-37.2M352.6 327.7h-37.2M221.6 335.2v7.2h3.4v1.9h-44v-1.9h3.4v-7.2"/><path class="cls-1" d="M223.5 327.7h-40.8"/><path class="cls-18" d="M183.2 327.7h-.5"/><path class="cls-19" d="M221.6 342.4h3.4M184.4 342.4H181"/><path class="cls-18" d="M182.7 332.8h40.8v2.4h-40.8zM219.7 335.2v-2.4M186.3 335.2v-2.4M223.5 332.8v2.4M205 332.8v2.4M219.7 332.8v2.4M201 332.8v2.4M205 332.8v2.4M186.3 332.8v2.4M201 332.8v2.4M182.7 332.8v2.4"/><path class="cls-23" d="M223.4 338.5h-1.8v-3.4h1.8"/><path class="cls-17" d="M222.1 335.2v3.3M223.5 335.2v3.3M223.4 338.5h-1.8v-3.4h1.8"/><path class="cls-19" d="M223.5 332.8v-5.1"/><path class="cls-23" d="M223.5 342.4h-1.9V339h1.9"/><path class="cls-17" d="M221.8 339.5l2 1.9"/><path class="cls-19" d="M223.5 342.4h-1.9V339h1.9M221.6 339v-3.8"/><path class="cls-23" d="M182.6 338.5h1.8v-3.4h-1.8"/><path class="cls-17" d="M183.9 335.2v3.3M182.6 338.5h1.8v-3.4h-1.8"/><path class="cls-19" d="M182.7 332.8v-5.1"/><path class="cls-23" d="M182.7 342.4h1.7V339h-1.7"/><path class="cls-17" d="M183 340.7l1.4 1.7"/><path class="cls-19" d="M182.7 342.4h1.7V339h-1.7M184.4 339v-3.8"/><path class="cls-18" d="M313.8 335.2v7.2h3.3v1.9h-43.9v-1.9h3.4v-7.2"/><path class="cls-1" d="M315.4 327.7h-40.8"/><path class="cls-18" d="M275.1 327.7h-.5"/><path class="cls-19" d="M313.8 342.4h3.3M276.6 342.4h-3.4"/><path class="cls-18" d="M274.6 332.8h40.8v2.4h-40.8zM311.8 335.2v-2.4M278.5 335.2v-2.4M315.4 332.8v2.4M297.2 332.8v2.4M311.8 332.8v2.4M293.1 332.8v2.4M297.2 332.8v2.4M278.5 332.8v2.4M293.1 332.8v2.4M274.6 332.8v2.4"/><path class="cls-23" d="M315.5 338.5h-1.8v-3.4h1.8"/><path class="cls-17" d="M314.2 335.2v3.3M315.5 338.5h-1.8v-3.4h1.8"/><path class="cls-19" d="M315.4 332.8v-5.1"/><path class="cls-23" d="M315.4 342.4h-1.6V339h1.6"/><path class="cls-17" d="M314 339.5l1.7 1.7"/><path class="cls-19" d="M315.4 342.4h-1.6V339h1.6M313.8 339v-3.8"/><path class="cls-23" d="M274.7 338.5h1.9v-3.4h-1.9"/><path class="cls-17" d="M275.8 335.2v3.3M274.7 338.5h1.9v-3.4h-1.9"/><path class="cls-19" d="M274.6 332.8v-5.1"/><path class="cls-23" d="M274.6 342.4h2V339h-2"/><path class="cls-17" d="M274.9 340.5l1.7 1.9"/><path class="cls-19" d="M274.6 342.4h2V339h-2M276.6 339v-3.8"/><path class="cls-24" d="M38.5 142.7H23.6v-47h14.9v47"/><path class="cls-23" d="M23.6 142.7h3.6v-47h-3.6v47"/><path class="cls-17" d="M23.8 141.5l1 1.2M23.8 137.7l3.6 3.6M23.8 133.6l3.6 3.6M23.8 129.5l3.6 3.6M23.8 125.7l3.6 3.6M23.8 121.6l3.6 3.6M23.8 117.5l3.6 3.6M23.8 113.4l3.6 3.6M23.8 109.6l3.6 3.6M23.8 105.5l3.6 3.6M23.8 101.4l3.6 3.6M23.8 97.6l3.6 3.6M26 95.7l1.4 1.4"/><path class="cls-23" d="M27.2 142.7h.5v-47h-.5v47M27.7 142.7h5.7v-47h-5.7v47"/><path class="cls-17" d="M33.7 96.1h-5.8M33.7 97.6h-5.8M33.7 99h-5.8M33.7 100.5h-5.8M33.7 101.9h-5.8M33.7 103.3h-5.8M33.7 104.5h-5.8M33.7 106h-5.8M33.7 107.4h-5.8M33.7 108.9h-5.8M33.7 110.3h-5.8M33.7 111.7h-5.8M33.7 113.2h-5.8M33.7 114.6h-5.8M33.7 116.1h-5.8M33.7 117.5h-5.8M33.7 118.7h-5.8M33.7 120.1h-5.8M33.7 121.6h-5.8M33.7 123h-5.8M33.7 124.5h-5.8M33.7 125.9h-5.8M33.7 127.3h-5.8M33.7 128.8h-5.8M33.7 130.2h-5.8M33.7 131.7h-5.8M33.7 133.1h-5.8M33.7 134.3h-5.8M33.7 135.7h-5.8M33.7 137.2h-5.8M33.7 138.6h-5.8M33.7 140.1h-5.8M33.7 141.5h-5.8"/><path class="cls-23" d="M33.4 142.7h5.1v-47h-5.1v47"/><path class="cls-17" d="M33.7 139.3l3.1 3.4M33.7 135.5l5 5M33.7 131.4l5 5.1M33.7 127.3l5 5.1M33.7 123.3l5 5M33.7 119.4l5 5.1M33.7 115.3l5 5.1M33.7 111.3l5 5M33.7 107.4l5 5.1M33.7 103.3l5 5.1M33.7 99.3l5 5M33.9 95.7l4.8 4.5M38 95.7l.7.7"/><path class="cls-19" d="M27.2 142.7v-47M23.6 142.7v-47"/><path class="cls-17" d="M33.4 142.7v-47M27.7 142.7v-47"/><path class="cls-19" d="M38.5 142.7v-47M33.4 142.7v-47"/><path class="cls-18" d="M23.6 142.7v-47M38.5 142.7v-47"/><path class="cls-24" d="M23.6 183.5v75.8l14.9-6.2v-69.6H23.6"/><path class="cls-23" d="M23.6 183.5v75.8l3.6-1.4v-74.4h-3.6"/><path class="cls-17" d="M23.8 257.9l1 1M23.8 253.8l3.6 3.6M23.8 249.7l3.6 3.6M23.8 245.9l3.6 3.6M23.8 241.8l3.6 3.6M23.8 237.7l3.6 3.6M23.8 233.7l3.6 3.6M23.8 229.8l3.6 3.6M23.8 225.7l3.6 3.6M23.8 221.7l3.6 3.6M23.8 217.8l3.6 3.6M23.8 213.7l3.6 3.6M23.8 209.7l3.6 3.6M23.8 205.8l3.6 3.6M23.8 201.7l3.6 3.6M23.8 197.7l3.6 3.6M23.8 193.6l3.6 3.6M23.8 189.7l3.6 3.6M23.8 185.7l3.6 3.6M25.5 183.5l1.9 1.7"/><path class="cls-23" d="M27.2 183.5v74.4l.5-.2v-74.2h-.5M27.7 183.5v74.2l5.7-2.4v-71.8h-5.7"/><path class="cls-17" d="M33.7 184h-5.8M33.7 185.4h-5.8M33.7 186.9h-5.8M33.7 188.3h-5.8M33.7 189.7h-5.8M33.7 191.2h-5.8M33.7 192.6h-5.8M33.7 193.8h-5.8M33.7 195.3h-5.8M33.7 196.7h-5.8M33.7 198.1h-5.8M33.7 199.6h-5.8M33.7 201h-5.8M33.7 202.5h-5.8M33.7 203.9h-5.8M33.7 205.3h-5.8M33.7 206.8h-5.8M33.7 208.2h-5.8M33.7 209.4h-5.8M33.7 210.9h-5.8M33.7 212.3h-5.8M33.7 213.7h-5.8M33.7 215.2h-5.8M33.7 216.6h-5.8M33.7 218.1h-5.8M33.7 219.5h-5.8M33.7 220.9h-5.8M33.7 222.4h-5.8M33.7 223.6h-5.8M33.7 225h-5.8M33.7 226.5h-5.8M33.7 227.9h-5.8M33.7 229.3h-5.8M33.7 230.8h-5.8M33.7 232.2h-5.8M33.7 233.7h-5.8M33.7 235.1h-5.8M33.7 236.5h-5.8M33.7 238h-5.8M33.7 239.2h-5.8M33.7 240.6h-5.8M33.7 242.1h-5.8M33.7 243.5h-5.8M33.7 244.9h-5.8M33.7 246.4h-5.8M33.7 247.8h-5.8M33.7 249.3h-5.8M33.7 250.7h-5.8M33.7 252.1h-5.8M33.7 253.6h-5.8M33.7 254.8h-5.8M31 256.2h-3.1"/><path class="cls-23" d="M33.4 183.5v71.8l5.1-2.2v-69.6h-5.1"/><path class="cls-17" d="M33.7 251.7l2.4 2.4M33.7 247.6l5 5M33.7 243.5l5 5M33.7 239.7l5 5M33.7 235.6l5 5M33.7 231.5l5 5M33.7 227.7l5 5M33.7 223.6l5 5M33.7 219.5l5 5M33.7 215.7l5 5M33.7 211.6l5 5M33.7 207.5l5 5M33.7 203.4l5 5.1M33.7 199.6l5 5M33.7 195.5l5 5M33.7 191.4l5 5.1M33.7 187.6l5 5M33.7 183.5l5 5M37.5 183.5l1.2 1"/><path class="cls-19" d="M27.2 257.9v-74.4M23.6 259.3v-75.8"/><path class="cls-17" d="M33.4 255.3v-71.8M27.7 257.7v-74.2"/><path class="cls-19" d="M38.5 253.1v-69.6M33.4 255.3v-71.8"/><path class="cls-18" d="M23.6 259.3v-75.8M38.5 253.1v-69.6M31 181.8h-7.4v3.4h-1.7v-43.9h1.7v3.3H31"/><path class="cls-1" d="M38.5 183.5v-40.8"/><path class="cls-18" d="M38.5 143.2v-.5"/><path class="cls-19" d="M23.6 181.8v3.4M23.6 144.6v-3.3"/><path class="cls-18" d="M31 142.7h2.4v40.8H31zM31 179.9h2.4M31 146.5h2.4M33.4 183.5H31M33.4 165.3H31M33.4 179.9H31M33.4 161.2H31M33.4 165.3H31M33.4 146.5H31M33.4 161.2H31M33.4 142.7H31"/><path class="cls-23" d="M27.7 183.6v-1.8h3.4v1.8"/><path class="cls-17" d="M31.3 182.5h-3.4M27.7 183.6v-1.8h3.4v1.8"/><path class="cls-19" d="M33.4 183.5h5.1"/><path class="cls-23" d="M23.6 183.5v-1.7h3.6v1.7"/><path class="cls-17" d="M23.8 181.8l1.7 1.7"/><path class="cls-19" d="M23.6 183.5v-1.7h3.6v1.7M27.2 181.8H31"/><path class="cls-23" d="M27.7 142.8v1.8h3.4v-1.8"/><path class="cls-17" d="M31.3 142.9h-3.4M31.3 144.4h-3.4M27.7 142.8v1.8h3.4v-1.8"/><path class="cls-19" d="M33.4 142.7h5.1"/><path class="cls-23" d="M23.6 142.7v1.9h3.6v-1.9"/><path class="cls-17" d="M24.8 142.7l1.9 1.9"/><path class="cls-19" d="M23.6 142.7v1.9h3.6v-1.9M27.2 144.6H31"/><path class="cls-23" d="M387 93.5l7.2 7.2V11.9l-7.2 5v76.6"/><path class="cls-17" d="M394.4 15l-1.9-1.9M394.4 19.1l-4.3-4.3M394.4 23.2l-6.7-6.7M394.4 27l-7.2-7.2M394.4 31.1l-7.2-7.2M394.4 35.2l-7.2-7.2M394.4 39l-7.2-7.2M394.4 43.1l-7.2-7.2M394.4 47.2l-7.2-7.2M394.4 51l-7.2-7.2M394.4 55.1l-7.2-7.2M394.4 59.2l-7.2-7.2M394.4 63.3l-7.2-7.2M394.4 67.1l-7.2-7.2M394.4 71.2l-7.2-7.2M394.4 75.3l-7.2-7.2M394.4 79.1l-7.2-7.2M394.4 83.2l-7.2-7.2M394.4 87.3l-7.2-7.2M394.4 91.1l-7.2-7.2M394.4 95.2l-7.2-7.2M394.4 99.3l-7.2-7.2M392.7 99l1.7-1.7M390.6 97.1l3.8-3.8M388.6 94.9l5.8-5.5M387.2 92.5l7.2-7.2M387.2 88.5l7.2-7.2M387.2 84.6l7.2-7.2M387.2 80.5l7.2-7.2M387.2 76.5l7.2-7.2M387.2 72.4l7.2-7.2M387.2 68.5l7.2-7.2M387.2 64.5l7.2-7.2M387.2 60.4l7.2-7.2M387.2 56.5l7.2-7.2M387.2 52.5l7.2-7.2M387.2 48.4l7.2-7.2M387.2 44.5l7.2-7.2M387.2 40.5l7.2-7.2M387.2 36.4l7.2-7.2M387.2 32.3l7.2-7.2M387.2 28.5l7.2-7.2M387.2 24.4l7.2-7.2M387.2 20.3l7.2-7.2"/><path class="cls-23" d="M387 93.5l7.2 7.2V11.9l-7.2 5v76.6"/><path class="cls-17" d="M394.4 15l-1.9-1.9M394.4 19.1l-4.3-4.3M394.4 23.2l-6.7-6.7M394.4 27l-7.2-7.2M394.4 31.1l-7.2-7.2M394.4 35.2l-7.2-7.2M394.4 39l-7.2-7.2M394.4 43.1l-7.2-7.2M394.4 47.2l-7.2-7.2M394.4 51l-7.2-7.2M394.4 55.1l-7.2-7.2M394.4 59.2l-7.2-7.2M394.4 63.3l-7.2-7.2M394.4 67.1l-7.2-7.2M394.4 71.2l-7.2-7.2M394.4 75.3l-7.2-7.2M394.4 79.1l-7.2-7.2M394.4 83.2l-7.2-7.2M394.4 87.3l-7.2-7.2M394.4 91.1l-7.2-7.2M394.4 95.2l-7.2-7.2M394.4 99.3l-7.2-7.2M392.7 99l1.7-1.7M390.6 97.1l3.8-3.8M388.6 94.9l5.8-5.5M387.2 92.5l7.2-7.2M387.2 88.5l7.2-7.2M387.2 84.6l7.2-7.2M387.2 80.5l7.2-7.2M387.2 76.5l7.2-7.2M387.2 72.4l7.2-7.2M387.2 68.5l7.2-7.2M387.2 64.5l7.2-7.2M387.2 60.4l7.2-7.2M387.2 56.5l7.2-7.2M387.2 52.5l7.2-7.2M387.2 48.4l7.2-7.2M387.2 44.5l7.2-7.2M387.2 40.5l7.2-7.2M387.2 36.4l7.2-7.2M387.2 32.3l7.2-7.2M387.2 28.5l7.2-7.2M387.2 24.4l7.2-7.2M387.2 20.3l7.2-7.2"/><path class="cls-19" d="M387 16.9v76.6M394.2 11.9v88.8M394.2 11.9v88.8M387 16.9v76.6"/><path class="cls-23" d="M127.3 52.5v7.2h53.5l7.2-7.2h-60.7"/><path class="cls-17" d="M187.5 52.9l-.5-.4M185.6 54.9l-2.4-2.4M183.7 57l-4.6-4.5M181.5 58.9l-6.5-6.4M178.4 59.7l-7.2-7.2M174.3 59.7l-7.2-7.2M170.2 59.7l-7.2-7.2M166.4 59.7l-7.2-7.2M162.3 59.7l-7.2-7.2M158.2 59.7l-7.2-7.2M154.2 59.7l-7.2-7.2M150.3 59.7l-7.2-7.2M146.2 59.7l-7.2-7.2M142.2 59.7l-7.2-7.2M138.3 59.7l-7.2-7.2M134.2 59.7l-6.7-6.8M130.2 59.7l-2.7-2.9M179.4 59.7l7.2-7.2M175.5 59.7l7.2-7.2M171.4 59.7l7.2-7.2M167.4 59.7l7.2-7.2M163.3 59.7l7.2-7.2M159.4 59.7l7.2-7.2M155.4 59.7l7.2-7.2M151.3 59.7l7.2-7.2M147.4 59.7l7.2-7.2M143.4 59.7l7.2-7.2M139.3 59.7l7.2-7.2M135.4 59.7l7.2-7.2M131.4 59.7l7.2-7.2M127.5 59.7l7-7.2M127.5 55.6l2.9-3.1"/><path class="cls-23" d="M127.3 52.5v7.2h53.5l7.2-7.2h-60.7"/><path class="cls-17" d="M187.5 52.9l-.5-.4M185.6 54.9l-2.4-2.4M183.7 57l-4.6-4.5M181.5 58.9l-6.5-6.4M178.4 59.7l-7.2-7.2M174.3 59.7l-7.2-7.2M170.2 59.7l-7.2-7.2M166.4 59.7l-7.2-7.2M162.3 59.7l-7.2-7.2M158.2 59.7l-7.2-7.2M154.2 59.7l-7.2-7.2M150.3 59.7l-7.2-7.2M146.2 59.7l-7.2-7.2M142.2 59.7l-7.2-7.2M138.3 59.7l-7.2-7.2M134.2 59.7l-6.7-6.8M130.2 59.7l-2.7-2.9M179.4 59.7l7.2-7.2M175.5 59.7l7.2-7.2M171.4 59.7l7.2-7.2M167.4 59.7l7.2-7.2M163.3 59.7l7.2-7.2M159.4 59.7l7.2-7.2M155.4 59.7l7.2-7.2M151.3 59.7l7.2-7.2M147.4 59.7l7.2-7.2M143.4 59.7l7.2-7.2M139.3 59.7l7.2-7.2M135.4 59.7l7.2-7.2M131.4 59.7l7.2-7.2M127.5 59.7l7-7.2M127.5 55.6l2.9-3.1"/><path class="cls-19" d="M182 52.5h-54.7M180.8 59.7h-53.5M180.8 59.7h-53.5M182 52.5h-54.7"/><path class="cls-23" d="M394.2 100.7l-7.2-7.2h-2v7.2h9.2"/><path class="cls-17" d="M391.8 100.7l-6.5-6.5M387.7 100.7l-2.4-2.6M391 100.7l1.7-1.7M387 100.7l3.6-3.6M385.3 98.5l3.3-3.6M385.3 94.5l.7-1"/><path class="cls-23" d="M394.2 100.7l-7.2-7.2h-2v7.2h9.2"/><path class="cls-17" d="M391.8 100.7l-6.5-6.5M387.7 100.7l-2.4-2.6M391 100.7l1.7-1.7M387 100.7l3.6-3.6M385.3 98.5l3.3-3.6M385.3 94.5l.7-1"/><path class="cls-19" d="M385 100.7h9.2M385 93.5h2M385 93.5h2M385 100.7h9.2"/><path class="cls-23" d="M218 100.7v-7.2h134.6v7.2H218"/><path class="cls-17" d="M352.9 93.7l-.5-.2M352.9 97.8l-4.3-4.3M351.7 100.7l-7.2-7.2M347.6 100.7l-7.2-7.2M343.5 100.7l-7.2-7.2M339.7 100.7l-7.2-7.2M335.6 100.7l-7.2-7.2M331.5 100.7l-7.2-7.2M327.7 100.7l-7.2-7.2M323.6 100.7l-7.2-7.2M319.5 100.7l-7.2-7.2M315.7 100.7l-7.2-7.2M311.6 100.7l-7.2-7.2M307.5 100.7l-7.2-7.2M303.4 100.7l-7.2-7.2M299.6 100.7l-7.2-7.2M295.5 100.7l-7.2-7.2M291.4 100.7l-7.2-7.2M287.6 100.7l-7.2-7.2M283.5 100.7l-7.2-7.2M279.4 100.7l-7.2-7.2M275.6 100.7l-7.2-7.2M271.5 100.7l-7.2-7.2M267.4 100.7l-7.2-7.2M263.4 100.7l-7.2-7.2M259.5 100.7l-7.2-7.2M255.4 100.7l-7.2-7.2M251.4 100.7l-7.2-7.2M247.5 100.7l-7.2-7.2M243.4 100.7l-7.2-7.2M239.4 100.7l-7.2-7.2M235.3 100.7l-7.2-7.2M231.4 100.7l-7.2-7.2M227.4 100.7l-7.2-7.2M223.3 100.7l-5.1-5.3M219.4 100.7l-1.2-1.2M351 100.7l1.9-1.9M346.9 100.7l6-6M342.8 100.7l7.2-7.2M338.7 100.7l7.2-7.2M334.9 100.7l7.2-7.2M330.8 100.7l7.2-7.2M326.7 100.7l7.2-7.2M322.9 100.7l7.2-7.2M318.8 100.7l7.2-7.2M314.7 100.7l7.2-7.2M310.9 100.7l7.2-7.2M306.8 100.7l7.2-7.2M302.7 100.7l7.2-7.2M298.6 100.7l7.2-7.2M294.8 100.7l7.2-7.2M290.7 100.7l7.2-7.2M286.6 100.7l7.2-7.2M282.8 100.7l7.2-7.2M278.7 100.7l7.2-7.2M274.6 100.7l7.2-7.2M270.8 100.7l7.2-7.2M266.7 100.7l7.2-7.2M262.6 100.7l7.2-7.2M258.6 100.7l7.2-7.2M254.7 100.7l7.2-7.2M250.6 100.7l7.2-7.2M246.6 100.7l7.2-7.2M242.7 100.7l7.2-7.2M238.6 100.7l7.2-7.2M234.6 100.7l7.2-7.2M230.5 100.7l7.2-7.2M226.6 100.7l7.2-7.2M222.6 100.7l7.2-7.2M218.5 100.7l7.2-7.2M218.2 97.1l3.6-3.6"/><path class="cls-23" d="M218 93.5v7.2h134.6v-7.2H218"/><path class="cls-17" d="M352.9 93.7l-.5-.2M352.9 97.8l-4.3-4.3M351.7 100.7l-7.2-7.2M347.6 100.7l-7.2-7.2M343.5 100.7l-7.2-7.2M339.7 100.7l-7.2-7.2M335.6 100.7l-7.2-7.2M331.5 100.7l-7.2-7.2M327.7 100.7l-7.2-7.2M323.6 100.7l-7.2-7.2M319.5 100.7l-7.2-7.2M315.7 100.7l-7.2-7.2M311.6 100.7l-7.2-7.2M307.5 100.7l-7.2-7.2M303.4 100.7l-7.2-7.2M299.6 100.7l-7.2-7.2M295.5 100.7l-7.2-7.2M291.4 100.7l-7.2-7.2M287.6 100.7l-7.2-7.2M283.5 100.7l-7.2-7.2M279.4 100.7l-7.2-7.2M275.6 100.7l-7.2-7.2M271.5 100.7l-7.2-7.2M267.4 100.7l-7.2-7.2M263.4 100.7l-7.2-7.2M259.5 100.7l-7.2-7.2M255.4 100.7l-7.2-7.2M251.4 100.7l-7.2-7.2M247.5 100.7l-7.2-7.2M243.4 100.7l-7.2-7.2M239.4 100.7l-7.2-7.2M235.3 100.7l-7.2-7.2M231.4 100.7l-7.2-7.2M227.4 100.7l-7.2-7.2M223.3 100.7l-5.1-5.3M219.4 100.7l-1.2-1.2M351 100.7l1.9-1.9M346.9 100.7l6-6M342.8 100.7l7.2-7.2M338.7 100.7l7.2-7.2M334.9 100.7l7.2-7.2M330.8 100.7l7.2-7.2M326.7 100.7l7.2-7.2M322.9 100.7l7.2-7.2M318.8 100.7l7.2-7.2M314.7 100.7l7.2-7.2M310.9 100.7l7.2-7.2M306.8 100.7l7.2-7.2M302.7 100.7l7.2-7.2M298.6 100.7l7.2-7.2M294.8 100.7l7.2-7.2M290.7 100.7l7.2-7.2M286.6 100.7l7.2-7.2M282.8 100.7l7.2-7.2M278.7 100.7l7.2-7.2M274.6 100.7l7.2-7.2M270.8 100.7l7.2-7.2M266.7 100.7l7.2-7.2M262.6 100.7l7.2-7.2M258.6 100.7l7.2-7.2M254.7 100.7l7.2-7.2M250.6 100.7l7.2-7.2M246.6 100.7l7.2-7.2M242.7 100.7l7.2-7.2M238.6 100.7l7.2-7.2M234.6 100.7l7.2-7.2M230.5 100.7l7.2-7.2M226.6 100.7l7.2-7.2M222.6 100.7l7.2-7.2M218.5 100.7l7.2-7.2M218.2 97.1l3.6-3.6"/><path class="cls-19" d="M218 100.7h127.7M218 93.5h134.6M218 93.5h134.6M218 100.7h127.7"/><path class="cls-23" d="M185.6 93.5h-42l4.1 7.2h37.9v-7.2"/><path class="cls-17" d="M185.8 95.2l-1.6-1.7M185.8 99l-5.7-5.5M183.2 100.7l-7.2-7.2M179.4 100.7l-7.2-7.2M175.3 100.7l-7.2-7.2M171.2 100.7l-7.2-7.2M167.4 100.7l-7.2-7.2M163.3 100.7l-7.2-7.2M159.2 100.7l-7.2-7.2M155.1 100.7l-7.2-7.2M151.3 100.7l-7.2-7.2M182.5 100.7l3.3-3.1M178.4 100.7l7.2-7.2M174.6 100.7l7.2-7.2M170.5 100.7l7.2-7.2M166.4 100.7l7.2-7.2M162.6 100.7l7.2-7.2M158.5 100.7l7.2-7.2M154.4 100.7l7.2-7.2M150.3 100.7l7.2-7.2M147.2 99.7l6.5-6.2M145.8 97.3l3.8-3.8M144.3 94.7l1.2-1.2"/><path class="cls-23" d="M185.6 93.5h-42l4.1 7.2h37.9v-7.2"/><path class="cls-17" d="M185.8 95.2l-1.6-1.7M185.8 99l-5.7-5.5M183.2 100.7l-7.2-7.2M179.4 100.7l-7.2-7.2M175.3 100.7l-7.2-7.2M171.2 100.7l-7.2-7.2M167.4 100.7l-7.2-7.2M163.3 100.7l-7.2-7.2M159.2 100.7l-7.2-7.2M155.1 100.7l-7.2-7.2M151.3 100.7l-7.2-7.2M182.5 100.7l3.3-3.1M178.4 100.7l7.2-7.2M174.6 100.7l7.2-7.2M170.5 100.7l7.2-7.2M166.4 100.7l7.2-7.2M162.6 100.7l7.2-7.2M158.5 100.7l7.2-7.2M154.4 100.7l7.2-7.2M150.3 100.7l7.2-7.2M147.2 99.7l6.5-6.2M145.8 97.3l3.8-3.8M144.3 94.7l1.2-1.2"/><path class="cls-19" d="M147.7 100.7h37.9M143.6 93.5h37.2M147.7 100.7h37.9M143.6 93.5h37.2"/><path class="cls-18" d="M352.6 99.5h2.6v1.7h-2.6zM382.4 99.5h2.6v1.7h-2.6z"/><path class="cls-18" d="M355.3 99.5h27.1v1.7h-27.1zM355.3 99.5h27.1"/><path class="cls-1" d="M355 93.5h27.6"/><path class="cls-18" d="M382.2 93.5h.4"/><path class="cls-23" d="M352.6 93.5h2.4v6h-2.4"/><path class="cls-17" d="M355.3 96.1l-2.4-2.4M354.6 99.5l-1.7-1.7M352.9 98.8l2.4-2.4M352.9 94.7l1.2-1.2"/><path class="cls-23" d="M385 93.5h-2.4v6h2.4"/><path class="cls-17" d="M385.3 94.2l-.7-.7M385.3 98.1l-2.4-2.4M384.1 99.5l1.2-1M382.9 96.9l2.4-2.4"/><path class="cls-19" d="M355 93.5v6M382.6 93.5v6M355 93.5v6M352.6 93.5h2.4M382.6 93.5v6M385 93.5h-2.4M352.6 100.7v-1.2M385 100.7v-1.2M352.6 93.5h2.4M385 93.5h-2.4M355 99.5h-2.4M382.6 99.5h2.4"/><path class="cls-18" d="M185.6 99.5h2.6v1.7h-2.6zM215.6 99.5h2.4v1.7h-2.4zM188.2 99.5h27.4v1.7h-27.4zM188.2 99.5h27.4"/><path class="cls-1" d="M188 93.5h27.8"/><path class="cls-18" d="M215.4 93.5h.4"/><path class="cls-23" d="M185.7 93.6h2.3v5.9h-2.3v1.2"/><path class="cls-17" d="M188.2 93.5h-.2M188.2 97.6l-2.4-2.4M186.1 99.5l-.3-.5M187.8 99.5l.4-.5M185.8 97.6l2.4-2.4"/><path class="cls-19" d="M188 93.6v5.9h-2.3v1.2"/><path class="cls-23" d="M218 93.5h-2.2v6h2.2v1.2"/><path class="cls-17" d="M218.2 95.4l-2.1-1.9M218.2 99.5l-2.1-2.2M216.1 99.3l2.1-2.2M216.1 95.2l1.7-1.7"/><path class="cls-19" d="M218 93.5h-2.2v6h2.2v1.2"/><path class="cls-17" d="M188.3 128.5c14.9 0 27.2-12.3 27.2-27.2M188.2 101.2v27.3"/><path class="cls-23" d="M182 10l6 6.9h11.5V10H182"/><path class="cls-17" d="M199.8 12.9l-2.9-2.9M199.8 16.9l-7-6.9M195.7 16.9l-7-6.9M191.8 16.9l-6.9-6.9M198.1 16.9l1.7-1.4M194 16.9l5.8-5.5M190.2 16.9l6.9-6.9M187.3 15.7L193 10M185.4 13.6L189 10M183.4 11.4l1.7-1.4"/><path class="cls-23" d="M182 10l6 6.9h11.5V10H182"/><path class="cls-17" d="M199.8 12.9l-2.9-2.9M199.8 16.9l-7-6.9M195.7 16.9l-7-6.9M191.8 16.9l-6.9-6.9M198.1 16.9l1.7-1.4M194 16.9l5.8-5.5M190.2 16.9l6.9-6.9M187.3 15.7L193 10M185.4 13.6L189 10M183.4 11.4l1.7-1.4"/><path class="cls-19" d="M199.5 10h-10.3M199.5 16.9H188M199.5 16.9H188M199.5 10h-10.3"/><path class="cls-23" d="M354.3 10v6.9h-119V10h119"/><path class="cls-17" d="M354.6 11.2l-1.5-1.2M354.6 15.3L349 10M352.2 16.9l-7-6.9M348.1 16.9l-7-6.9M344 16.9l-7-6.9M340.2 16.9l-7-6.9M336.1 16.9l-7-6.9M332 16.9l-7-6.9M327.9 16.9L321 10M324.1 16.9l-7-6.9M320 16.9l-7-6.9M315.9 16.9L309 10M312.1 16.9l-7-6.9M308 16.9l-7-6.9M303.9 16.9L297 10M300.1 16.9l-7-6.9M296 16.9l-7-6.9M291.9 16.9L285 10M287.8 16.9l-6.9-6.9M284 16.9l-7-6.9M279.9 16.9L273 10M275.8 16.9l-6.9-6.9M272 16.9l-7-6.9M267.9 16.9L261 10M263.8 16.9l-6.9-6.9M259.8 16.9l-7-6.9M255.9 16.9L249 10M251.8 16.9l-6.9-6.9M247.8 16.9l-7-6.9M243.9 16.9L237 10M239.8 16.9l-4.3-4.3M235.8 16.9l-.3-.4M350.5 16.9l4.1-4M346.4 16.9l7-6.9M342.3 16.9l7-6.9M338.5 16.9l6.9-6.9M334.4 16.9l7-6.9M330.3 16.9l7-6.9M326.5 16.9l6.9-6.9M322.4 16.9l7-6.9M318.3 16.9l7-6.9M314.2 16.9l7-6.9M310.4 16.9l7-6.9M306.3 16.9l7-6.9M302.2 16.9l7-6.9M298.4 16.9l7-6.9M294.3 16.9l7-6.9M290.2 16.9l7-6.9M286.4 16.9l7-6.9M282.3 16.9l7-6.9M278.2 16.9l7-6.9M274.2 16.9l6.9-6.9M270.3 16.9l7-6.9M266.2 16.9l7-6.9M262.2 16.9l6.9-6.9M258.3 16.9l7-6.9M254.2 16.9l7-6.9M250.2 16.9l6.9-6.9M246.3 16.9l7-6.9M242.2 16.9l7-6.9M238.2 16.9l6.9-6.9M235.5 15.7L241 10M235.5 11.7l1.7-1.7"/><path class="cls-23" d="M354.3 16.9V10h-119v6.9h119"/><path class="cls-17" d="M354.6 11.2l-1.5-1.2M354.6 15.3L349 10M352.2 16.9l-7-6.9M348.1 16.9l-7-6.9M344 16.9l-7-6.9M340.2 16.9l-7-6.9M336.1 16.9l-7-6.9M332 16.9l-7-6.9M327.9 16.9L321 10M324.1 16.9l-7-6.9M320 16.9l-7-6.9M315.9 16.9L309 10M312.1 16.9l-7-6.9M308 16.9l-7-6.9M303.9 16.9L297 10M300.1 16.9l-7-6.9M296 16.9l-7-6.9M291.9 16.9L285 10M287.8 16.9l-6.9-6.9M284 16.9l-7-6.9M279.9 16.9L273 10M275.8 16.9l-6.9-6.9M272 16.9l-7-6.9M267.9 16.9L261 10M263.8 16.9l-6.9-6.9M259.8 16.9l-7-6.9M255.9 16.9L249 10M251.8 16.9l-6.9-6.9M247.8 16.9l-7-6.9M243.9 16.9L237 10M239.8 16.9l-4.3-4.3M235.8 16.9l-.3-.4M350.5 16.9l4.1-4M346.4 16.9l7-6.9M342.3 16.9l7-6.9M338.5 16.9l6.9-6.9M334.4 16.9l7-6.9M330.3 16.9l7-6.9M326.5 16.9l6.9-6.9M322.4 16.9l7-6.9M318.3 16.9l7-6.9M314.2 16.9l7-6.9M310.4 16.9l7-6.9M306.3 16.9l7-6.9M302.2 16.9l7-6.9M298.4 16.9l7-6.9M294.3 16.9l7-6.9M290.2 16.9l7-6.9M286.4 16.9l7-6.9M282.3 16.9l7-6.9M278.2 16.9l7-6.9M274.2 16.9l6.9-6.9M270.3 16.9l7-6.9M266.2 16.9l7-6.9M262.2 16.9l6.9-6.9M258.3 16.9l7-6.9M254.2 16.9l7-6.9M250.2 16.9l6.9-6.9M246.3 16.9l7-6.9M242.2 16.9l7-6.9M238.2 16.9l6.9-6.9M235.5 15.7L241 10M235.5 11.7l1.7-1.7"/><path class="cls-19" d="M354.3 10h-119M354.3 16.9h-119M354.3 16.9h-119M354.3 10h-119M354.3 11.9V10"/><path class="cls-18" d="M229.3 9.5h6v1.7h-6zM199.5 9.5h2.6v1.7h-2.6zM202.2 9.5h27.1v1.7h-27.1zM229.3 11.2h-27.1"/><path class="cls-1" d="M229.8 16.9h-27.9"/><path class="cls-18" d="M202.4 16.9h-.5"/><path class="cls-23" d="M235.3 16.9h-5.5v-5.7h5.5"/><path class="cls-17" d="M235.5 12.6l-1.4-1.4M235.5 16.5l-5.5-5.3M231.9 16.9L230 15M234.1 16.9l1.4-1.2M230.2 16.9l5.3-5.2M230 13.1l1.9-1.9"/><path class="cls-23" d="M199.5 16.9h2.4v-5.7h-2.4"/><path class="cls-17" d="M202.2 11.2h-.3M202.2 15.3l-2.4-2.4M199.8 15.5l2.4-2.4M199.8 11.4v-.2"/><path class="cls-19" d="M229.8 16.9v-5.7M201.9 16.9v-5.7M229.8 16.9v-5.7M235.3 16.9h-5.5M201.9 16.9v-5.7M199.5 16.9h2.4M235.3 10v1.2M199.5 10v1.2M235.3 16.9h-5.5M199.5 16.9h2.4M229.8 11.2h5.5M201.9 11.2h-2.4"/><path class="cls-23" d="M352.6 100.7h-6.9v232.1h6.9V100.7"/><path class="cls-17" d="M352.9 101.9l-1.2-1.2M352.9 105.7l-5.3-5M352.9 109.8l-7-6.9M352.9 113.9l-7-7M352.9 117.7l-7-6.9M352.9 121.8l-7-6.9M352.9 125.9l-7-7M352.9 130l-7-7M352.9 133.8l-7-6.9M352.9 137.9l-7-7M352.9 142l-7-7M352.9 145.8l-7-6.9M352.9 149.9l-7-7M352.9 154l-7-7M352.9 157.8l-7-6.9M352.9 161.9l-7-7M352.9 166l-7-7M352.9 170.1l-7-7M352.9 173.9l-7-7M352.9 178l-7-7M352.9 182.1l-7-7M352.9 185.9l-7-7M352.9 190l-7-7M352.9 194.1l-7-7M352.9 197.9l-7-7M352.9 202l-7-7M352.9 206.1l-7-7M352.9 210.1l-7-6.9M352.9 214l-7-7M352.9 218.1l-7-7M352.9 222.1l-7-6.9M352.9 226l-7-7M352.9 230.1l-7-7M352.9 234.1l-7-6.9M352.9 238.2l-7-6.9M352.9 242.1l-7-7M352.9 246.1l-7-6.9M352.9 250.2l-7-6.9M352.9 254.1l-7-7M352.9 258.1l-7-6.9M352.9 262.2l-7-6.9M352.9 266.1l-7-7M352.9 270.1l-7-6.9M352.9 274.2l-7-6.9M352.9 278.3l-7-7M352.9 282.1l-7-6.9M352.9 286.2l-7-6.9M352.9 290.3l-7-7M352.9 294.1l-7-6.9M352.9 298.2l-7-6.9M352.9 302.3l-7-7M352.9 306.1l-7-6.9M352.9 310.2l-7-6.9M352.9 314.3l-7-7M352.9 318.4l-7-7M352.9 322.2l-7-6.9M352.9 326.3l-7-7M352.9 330.4l-7-7M351.2 332.8l-5.3-5.5M347.1 332.8l-1.2-1.5M351.2 332.8l1.7-1.5M347.4 332.8l5.5-5.5M345.9 330.1l7-6.9M345.9 326.3l7-7M345.9 322.2l7-6.9M345.9 318.1l7-6.9M345.9 314.3l7-7M345.9 310.2l7-6.9M345.9 306.1l7-6.9M345.9 302.3l7-7M345.9 298.2l7-6.9M345.9 294.1l7-6.9M345.9 290.1l7-7M345.9 286.2l7-6.9M345.9 282.1l7-6.9M345.9 278.1l7-7M345.9 274.2l7-6.9M345.9 270.1l7-6.9M345.9 266.1l7-7M345.9 262l7-7M345.9 258.1l7-6.9M345.9 254.1l7-7M345.9 250l7-7M345.9 246.1l7-6.9M345.9 242.1l7-7M345.9 238l7-7M345.9 234.1l7-6.9M345.9 230.1l7-7M345.9 226l7-7M345.9 221.9l7-7M345.9 218.1l7-7M345.9 214l7-7M345.9 209.9l7-7M345.9 206.1l7-7M345.9 202l7-7M345.9 197.9l7-7M345.9 194.1l7-7M345.9 190l7-7M345.9 185.9l7-7M345.9 181.8l7-6.9M345.9 178l7-7M345.9 173.9l7-7M345.9 169.8l7-6.9M345.9 166l7-7M345.9 161.9l7-7M345.9 157.8l7-6.9M345.9 154l7-7M345.9 149.9l7-7M345.9 145.8l7-6.9M345.9 141.7l7-6.9M345.9 137.9l7-7M345.9 133.8l7-6.9M345.9 129.7l7-6.9M345.9 125.9l7-7M345.9 121.8l7-6.9M345.9 117.7l7-6.9M345.9 113.7l7-7M345.9 109.8l7-6.9M345.9 105.7l5.1-5M345.9 101.7l1-1"/><path class="cls-23" d="M352.6 100.7h-6.9v232.1h6.9V100.7"/><path class="cls-17" d="M352.9 101.9l-1.2-1.2M352.9 105.7l-5.3-5M352.9 109.8l-7-6.9M352.9 113.9l-7-7M352.9 117.7l-7-6.9M352.9 121.8l-7-6.9M352.9 125.9l-7-7M352.9 130l-7-7M352.9 133.8l-7-6.9M352.9 137.9l-7-7M352.9 142l-7-7M352.9 145.8l-7-6.9M352.9 149.9l-7-7M352.9 154l-7-7M352.9 157.8l-7-6.9M352.9 161.9l-7-7M352.9 166l-7-7M352.9 170.1l-7-7M352.9 173.9l-7-7M352.9 178l-7-7M352.9 182.1l-7-7M352.9 185.9l-7-7M352.9 190l-7-7M352.9 194.1l-7-7M352.9 197.9l-7-7M352.9 202l-7-7M352.9 206.1l-7-7M352.9 210.1l-7-6.9M352.9 214l-7-7M352.9 218.1l-7-7M352.9 222.1l-7-6.9M352.9 226l-7-7M352.9 230.1l-7-7M352.9 234.1l-7-6.9M352.9 238.2l-7-6.9M352.9 242.1l-7-7M352.9 246.1l-7-6.9M352.9 250.2l-7-6.9M352.9 254.1l-7-7M352.9 258.1l-7-6.9M352.9 262.2l-7-6.9M352.9 266.1l-7-7M352.9 270.1l-7-6.9M352.9 274.2l-7-6.9M352.9 278.3l-7-7M352.9 282.1l-7-6.9M352.9 286.2l-7-6.9M352.9 290.3l-7-7M352.9 294.1l-7-6.9M352.9 298.2l-7-6.9M352.9 302.3l-7-7M352.9 306.1l-7-6.9M352.9 310.2l-7-6.9M352.9 314.3l-7-7M352.9 318.4l-7-7M352.9 322.2l-7-6.9M352.9 326.3l-7-7M352.9 330.4l-7-7M351.2 332.8l-5.3-5.5M347.1 332.8l-1.2-1.5M351.2 332.8l1.7-1.5M347.4 332.8l5.5-5.5M345.9 330.1l7-6.9M345.9 326.3l7-7M345.9 322.2l7-6.9M345.9 318.1l7-6.9M345.9 314.3l7-7M345.9 310.2l7-6.9M345.9 306.1l7-6.9M345.9 302.3l7-7M345.9 298.2l7-6.9M345.9 294.1l7-6.9M345.9 290.1l7-7M345.9 286.2l7-6.9M345.9 282.1l7-6.9M345.9 278.1l7-7M345.9 274.2l7-6.9M345.9 270.1l7-6.9M345.9 266.1l7-7M345.9 262l7-7M345.9 258.1l7-6.9M345.9 254.1l7-7M345.9 250l7-7M345.9 246.1l7-6.9M345.9 242.1l7-7M345.9 238l7-7M345.9 234.1l7-6.9M345.9 230.1l7-7M345.9 226l7-7M345.9 221.9l7-7M345.9 218.1l7-7M345.9 214l7-7M345.9 209.9l7-7M345.9 206.1l7-7M345.9 202l7-7M345.9 197.9l7-7M345.9 194.1l7-7M345.9 190l7-7M345.9 185.9l7-7M345.9 181.8l7-6.9M345.9 178l7-7M345.9 173.9l7-7M345.9 169.8l7-6.9M345.9 166l7-7M345.9 161.9l7-7M345.9 157.8l7-6.9M345.9 154l7-7M345.9 149.9l7-7M345.9 145.8l7-6.9M345.9 141.7l7-6.9M345.9 137.9l7-7M345.9 133.8l7-6.9M345.9 129.7l7-6.9M345.9 125.9l7-7M345.9 121.8l7-6.9M345.9 117.7l7-6.9M345.9 113.7l7-7M345.9 109.8l7-6.9M345.9 105.7l5.1-5M345.9 101.7l1-1"/><path class="cls-19" d="M352.6 332.8V100.7M345.7 332.8V100.7M345.7 332.8V100.7M352.6 332.8V100.7M352.6 332.8h-6.9"/><path class="cls-23" d="M354.3 16.9H387l7.2-5h-39.9v5"/><path class="cls-17" d="M392.5 13.1l-1.5-1.2M390.1 14.8l-2.9-2.9M387.7 16.5l-4.6-4.6M384.1 16.9l-5.1-5M380.2 16.9l-5-5M376.2 16.9l-5.1-5M372.1 16.9l-5.1-5M368 16.9l-5-5M364.2 16.9l-5.1-5M360.1 16.9l-5.1-5M356 16.9l-1.4-1.6M386.5 16.9l5-5M382.4 16.9l5-5M378.6 16.9l5-5M374.5 16.9l5-5M370.4 16.9l5-5M366.6 16.9l5-5M362.5 16.9l5-5M358.4 16.9l5-5M354.6 16.9l5-5M354.6 12.9l.9-1"/><path class="cls-23" d="M354.3 16.9H387l7.2-5h-39.9v5"/><path class="cls-17" d="M392.5 13.1l-1.5-1.2M390.1 14.8l-2.9-2.9M387.7 16.5l-4.6-4.6M384.1 16.9l-5.1-5M380.2 16.9l-5-5M376.2 16.9l-5.1-5M372.1 16.9l-5.1-5M368 16.9l-5-5M364.2 16.9l-5.1-5M360.1 16.9l-5.1-5M356 16.9l-1.4-1.6M386.5 16.9l5-5M382.4 16.9l5-5M378.6 16.9l5-5M374.5 16.9l5-5M370.4 16.9l5-5M366.6 16.9l5-5M362.5 16.9l5-5M358.4 16.9l5-5M354.6 16.9l5-5M354.6 12.9l.9-1"/><path class="cls-19" d="M394.2 11.9h-39.9M387 16.9h-32.7M387 16.9h-32.7M394.2 11.9h-39.9M354.3 16.9"/><path class="cls-23" d="M33.4 102.6h93.9l-7.5-6.9H33.4v6.9"/><path class="cls-17" d="M125.1 102.6l-6.9-6.9M121 102.6l-6.9-6.9M117 102.6l-7-6.9M113.1 102.6l-6.9-6.9M109 102.6l-6.9-6.9M105 102.6l-7-6.9M101.1 102.6l-6.9-6.9M97 102.6l-6.9-6.9M93 102.6l-7-6.9M88.9 102.6l-7-6.9M85 102.6l-6.9-6.9M81 102.6l-7-6.9M76.9 102.6l-7-6.9M73 102.6l-6.9-6.9M69 102.6l-7-6.9M64.9 102.6l-7-6.9M61 102.6l-6.9-6.9M57 102.6l-7-6.9M52.9 102.6l-7-6.9M48.8 102.6l-7-6.9M45 102.6l-7-6.9M40.9 102.6l-7-6.9M36.8 102.6l-3.1-3.3M124.4 102.6l1.4-1.4M120.3 102.6l3.6-3.3M116.5 102.6l5.3-5.3M112.4 102.6l7-6.9M108.3 102.6l7-6.9M104.5 102.6l6.9-6.9M100.4 102.6l7-6.9M96.3 102.6l7-6.9M92.5 102.6l6.9-6.9M88.4 102.6l7-6.9M84.3 102.6l7-6.9M80.2 102.6l7-6.9M76.4 102.6l7-6.9M72.3 102.6l7-6.9M68.2 102.6l7-6.9M64.4 102.6l7-6.9M60.3 102.6l7-6.9M56.2 102.6l7-6.9M52.4 102.6l7-6.9M48.3 102.6l7-6.9M44.2 102.6l7-6.9M40.2 102.6l6.9-6.9M36.3 102.6l7-6.9M33.7 101.4l5.5-5.7M33.7 97.3l1.4-1.6"/><path class="cls-23" d="M33.4 102.6h93.9l-7.5-6.9H33.4v6.9"/><path class="cls-17" d="M125.1 102.6l-6.9-6.9M121 102.6l-6.9-6.9M117 102.6l-7-6.9M113.1 102.6l-6.9-6.9M109 102.6l-6.9-6.9M105 102.6l-7-6.9M101.1 102.6l-6.9-6.9M97 102.6l-6.9-6.9M93 102.6l-7-6.9M88.9 102.6l-7-6.9M85 102.6l-6.9-6.9M81 102.6l-7-6.9M76.9 102.6l-7-6.9M73 102.6l-6.9-6.9M69 102.6l-7-6.9M64.9 102.6l-7-6.9M61 102.6l-6.9-6.9M57 102.6l-7-6.9M52.9 102.6l-7-6.9M48.8 102.6l-7-6.9M45 102.6l-7-6.9M40.9 102.6l-7-6.9M36.8 102.6l-3.1-3.3M124.4 102.6l1.4-1.4M120.3 102.6l3.6-3.3M116.5 102.6l5.3-5.3M112.4 102.6l7-6.9M108.3 102.6l7-6.9M104.5 102.6l6.9-6.9M100.4 102.6l7-6.9M96.3 102.6l7-6.9M92.5 102.6l6.9-6.9M88.4 102.6l7-6.9M84.3 102.6l7-6.9M80.2 102.6l7-6.9M76.4 102.6l7-6.9M72.3 102.6l7-6.9M68.2 102.6l7-6.9M64.4 102.6l7-6.9M60.3 102.6l7-6.9M56.2 102.6l7-6.9M52.4 102.6l7-6.9M48.3 102.6l7-6.9M44.2 102.6l7-6.9M40.2 102.6l6.9-6.9M36.3 102.6l7-6.9M33.7 101.4l5.5-5.7M33.7 97.3l1.4-1.6"/><path class="cls-19" d="M119.8 95.7H33.4M127.3 102.6H33.4M33.4 95.7v6.9M127.3 102.6H33.4M119.8 95.7H33.4"/><path class="cls-18" d="M347.6 59.7v33.8M340.2 59.7v33.8M332.5 59.7v33.8M324.8 59.7v33.8M317.1 59.7v33.8M309.4 59.7v33.8M301.8 59.7v33.8M294.1 59.7v33.8M229 52.5h122.4v5.8H229zM305.4 58.2l7.9 35.3M286.4 59.7v33.8M278.7 59.7v33.8M271.3 59.7v33.8M263.6 59.7v33.8M255.9 59.7v33.8M248.2 59.7v33.8M240.6 59.7v33.8M232.9 59.7v33.8"/><path class="cls-18" d="M227.6 51h125.3v8.6H227.6zM309.4 76.6l3.9 3.8M313.3 72.8l-3.9 3.8M313.3 80.3v-7.4M232.9 76.6l3.8 3.8M236.7 72.8l-3.8 3.8M236.7 80.3v-7.4M337 327.7V162.4M338.5 327.7V162.4M337 327.7V162.4M336.3 327.7V162.4M338.5 327.7V162.4M338.5 327.7H337"/><path class="cls-23" d="M274.6 157.3v5.1h71.1v-5.1h-71.1"/><path class="cls-17" d="M274.9 158.3l.9-1M274.9 162.4l5-5.1M279.2 162.4l5-5.1M283.5 162.4l5.1-5.1M287.8 162.4l5.1-5.1M291.9 162.4l5.1-5.1M296.2 162.4l5.1-5.1M300.6 162.4l5-5.1M304.6 162.4l5.1-5.1M309 162.4l5-5.1M313.3 162.4l5-5.1M317.4 162.4l5-5.1M321.7 162.4l5-5.1M326 162.4l5-5.1M330.3 162.4l5.1-5.1M334.4 162.4l5-5.1M338.7 162.4l5.1-5.1M343 162.4l2.9-2.9"/><path class="cls-23" d="M274.6 157.3v5.1h71.1v-5.1h-71.1"/><path class="cls-17" d="M274.9 158.3l.9-1M274.9 162.4l5-5.1M279.2 162.4l5-5.1M283.5 162.4l5.1-5.1M287.8 162.4l5.1-5.1M291.9 162.4l5.1-5.1M296.2 162.4l5.1-5.1M300.6 162.4l5-5.1M304.6 162.4l5.1-5.1M309 162.4l5-5.1M313.3 162.4l5-5.1M317.4 162.4l5-5.1M321.7 162.4l5-5.1M326 162.4l5-5.1M330.3 162.4l5.1-5.1M334.4 162.4l5-5.1M338.7 162.4l5.1-5.1M343 162.4l2.9-2.9"/><path class="cls-19" d="M345.7 157.3h-71.1M345.7 162.4h-71.1M345.7 162.4h-71.1M345.7 157.3h-71.1M345.7 157.3v5.1"/><path class="cls-23" d="M119.8 95.7l7.5 6.9V7.1l-7.5-7v95.6"/><path class="cls-17" d="M127.5 8.8l-7.4-7.5M127.5 12.9l-7.4-7.5M127.5 16.7l-7.4-7.4M127.5 20.8l-7.4-7.5M127.5 24.9l-7.4-7.5M127.5 28.7l-7.4-7.4M127.5 32.8l-7.4-7.5M127.5 36.9l-7.4-7.5M127.5 40.7l-7.4-7.4M127.5 44.8l-7.4-7.5M127.5 48.9l-7.4-7.5M127.5 52.9l-7.4-7.4M127.5 56.8l-7.4-7.5M127.5 60.9l-7.4-7.5M127.5 64.9l-7.4-7.4M127.5 68.8l-7.4-7.5M127.5 72.9l-7.4-7.5M127.5 76.9l-7.4-7.4M127.5 80.8l-7.4-7.5M127.5 84.9l-7.4-7.5M127.5 88.9l-7.4-7.4M127.5 93l-7.4-7.4M127.5 96.9l-7.4-7.5M127.5 100.9l-7.4-7.4M125.8 101.2l1.7-1.5M123.9 99.3l3.6-3.6M121.8 97.3l5.7-5.7M120.1 95.2l7.4-7.5M120.1 91.1l7.4-7.4M120.1 87l7.4-7.4M120.1 82.9l7.4-7.4M120.1 79.1l7.4-7.4M120.1 75l7.4-7.4M120.1 70.9l7.4-7.4M120.1 67.1l7.4-7.4M120.1 63l7.4-7.4M120.1 58.9l7.4-7.4M120.1 55.1l7.4-7.4M120.1 51l7.4-7.4M120.1 46.9l7.4-7.4M120.1 42.9l7.4-7.5M120.1 39l7.4-7.4M120.1 34.9l7.4-7.4M120.1 30.9l7.4-7.5M120.1 27l7.4-7.4M120.1 22.9l7.4-7.4M120.1 18.9l7.4-7.5M120.1 15l7.4-7.4M120.1 10.9l5.5-5.5M120.1 6.9l3.3-3.4M120.1 2.8l1.2-1.2"/><path class="cls-23" d="M119.8 95.7l7.5 6.9V7.1l-7.5-7v95.6"/><path class="cls-17" d="M127.5 8.8l-7.4-7.5M127.5 12.9l-7.4-7.5M127.5 16.7l-7.4-7.4M127.5 20.8l-7.4-7.5M127.5 24.9l-7.4-7.5M127.5 28.7l-7.4-7.4M127.5 32.8l-7.4-7.5M127.5 36.9l-7.4-7.5M127.5 40.7l-7.4-7.4M127.5 44.8l-7.4-7.5M127.5 48.9l-7.4-7.5M127.5 52.9l-7.4-7.4M127.5 56.8l-7.4-7.5M127.5 60.9l-7.4-7.5M127.5 64.9l-7.4-7.4M127.5 68.8l-7.4-7.5M127.5 72.9l-7.4-7.5M127.5 76.9l-7.4-7.4M127.5 80.8l-7.4-7.5M127.5 84.9l-7.4-7.5M127.5 88.9l-7.4-7.4M127.5 93l-7.4-7.4M127.5 96.9l-7.4-7.5M127.5 100.9l-7.4-7.4M125.8 101.2l1.7-1.5M123.9 99.3l3.6-3.6M121.8 97.3l5.7-5.7M120.1 95.2l7.4-7.5M120.1 91.1l7.4-7.4M120.1 87l7.4-7.4M120.1 82.9l7.4-7.4M120.1 79.1l7.4-7.4M120.1 75l7.4-7.4M120.1 70.9l7.4-7.4M120.1 67.1l7.4-7.4M120.1 63l7.4-7.4M120.1 58.9l7.4-7.4M120.1 55.1l7.4-7.4M120.1 51l7.4-7.4M120.1 46.9l7.4-7.4M120.1 42.9l7.4-7.5M120.1 39l7.4-7.4M120.1 34.9l7.4-7.4M120.1 30.9l7.4-7.5M120.1 27l7.4-7.4M120.1 22.9l7.4-7.4M120.1 18.9l7.4-7.5M120.1 15l7.4-7.4M120.1 10.9l5.5-5.5M120.1 6.9l3.3-3.4M120.1 2.8l1.2-1.2"/><path class="cls-19" d="M119.8.1v95.6M127.3 59.7v42.9M127.3 7.1v45.4M127.3 59.7v42.9M119.8.1v95.6M127.3 7.1v45.4"/><path class="cls-23" d="M119.8.1l7.5 7H182l7.2-7h-69.4"/><path class="cls-17" d="M188 1.3l-1-1.2M186.1 3.3L183 .1M183.9 5.2l-5-5.1M182 7.1l-7-7M177.9 7.1l-6.9-7M173.8 7.1l-6.9-7M169.8 7.1l-7-7M165.9 7.1l-6.9-7M161.8 7.1l-6.9-7M157.8 7.1l-7-7M153.9 7.1l-6.9-7M149.8 7.1l-6.9-7M145.8 7.1l-7-7M141.7 7.1l-7-7M137.8 7.1l-6.9-7M133.8 7.1l-7-7M129.7 7.1l-7-7M179.8 7.1l7-7M175.8 7.1l6.9-7M171.9 7.1l7-7M167.8 7.1l7-7M163.8 7.1l6.9-7M159.9 7.1l7-7M155.8 7.1l7-7M151.8 7.1l6.9-7M147.9 7.1l7-7M143.8 7.1l7-7M139.8 7.1l6.9-7M135.7 7.1l6.9-7M131.8 7.1l7-7M127.8 7.1l6.9-7M125.6 5.4l5-5.3M123.4 3.5l3.4-3.4M121.3 1.6l1.4-1.5"/><path class="cls-23" d="M119.8.1l7.5 7H182l7.2-7h-69.4"/><path class="cls-17" d="M188 1.3l-1-1.2M186.1 3.3L183 .1M183.9 5.2l-5-5.1M182 7.1l-7-7M177.9 7.1l-6.9-7M173.8 7.1l-6.9-7M169.8 7.1l-7-7M165.9 7.1l-6.9-7M161.8 7.1l-6.9-7M157.8 7.1l-7-7M153.9 7.1l-6.9-7M149.8 7.1l-6.9-7M145.8 7.1l-7-7M141.7 7.1l-7-7M137.8 7.1l-6.9-7M133.8 7.1l-7-7M129.7 7.1l-7-7M179.8 7.1l7-7M175.8 7.1l6.9-7M171.9 7.1l7-7M167.8 7.1l7-7M163.8 7.1l6.9-7M159.9 7.1l7-7M155.8 7.1l7-7M151.8 7.1l6.9-7M147.9 7.1l7-7M143.8 7.1l7-7M139.8 7.1l6.9-7M135.7 7.1l6.9-7M131.8 7.1l7-7M127.8 7.1l6.9-7M125.6 5.4l5-5.3M123.4 3.5l3.4-3.4M121.3 1.6l1.4-1.5"/><path class="cls-19" d="M189.2.1h-69.4M182 7.1h-54.7M182 7.1h-54.7M189.2.1h-69.4"/><path class="cls-23" d="M189.2.1l-7.2 7V10h7.2V.1"/><path class="cls-17" d="M189.4 2.5L188 1.3M189.4 6.6l-3.3-3.3M188.7 10l-4.8-4.8M184.9 10l-2.7-2.7M189 10l.4-.3M185.1 10l4.3-4.3M182.2 8.8l7.2-7.2"/><path class="cls-23" d="M189.2.1l-7.2 7V10h7.2V.1"/><path class="cls-17" d="M189.4 2.5L188 1.3M189.4 6.6l-3.3-3.3M188.7 10l-4.8-4.8M184.9 10l-2.7-2.7M189 10l.4-.3M185.1 10l4.3-4.3M182.2 8.8l7.2-7.2"/><path class="cls-19" d="M189.2 10V.1M182 10V7.1M182 10V7.1M189.2 10V.1"/><path class="cls-23" d="M274.6 105h-4v-4.3h4v4.3"/><path class="cls-17" d="M270.8 102.9l2.2-2.2M272.7 105l2.2-1.9"/><path class="cls-23" d="M270.6 105h4v-4.3h-4v4.3"/><path class="cls-17" d="M270.8 102.9l2.2-2.2M272.7 105l2.2-1.9"/><path class="cls-19" d="M274.6 105v-4.3M270.6 105v-4.3M274.6 100.7h-4M270.6 105v-4.3M274.6 105v-4.3"/><path class="cls-23" d="M274.6 189h-4v-58.8h4V189"/><path class="cls-17" d="M270.8 132.6l2.4-2.4M270.8 136.9l4.1-4M270.8 141.3l4.1-4.1M270.8 145.3l4.1-4M270.8 149.7l4.1-4.1M270.8 154l4.1-4.1M270.8 158.1l4.1-4.1M270.8 162.4l4.1-4.1M270.8 166.7l4.1-4.1M270.8 171l4.1-4.1M270.8 175.1l4.1-4.1M270.8 179.4l4.1-4.1M270.8 183.7l4.1-4M270.8 187.8l4.1-4.1M273.9 189l1-.9"/><path class="cls-23" d="M270.6 189h4v-58.8h-4V189"/><path class="cls-17" d="M270.8 132.6l2.4-2.4M270.8 136.9l4.1-4M270.8 141.3l4.1-4.1M270.8 145.3l4.1-4M270.8 149.7l4.1-4.1M270.8 154l4.1-4.1M270.8 158.1l4.1-4.1M270.8 162.4l4.1-4.1M270.8 166.7l4.1-4.1M270.8 171l4.1-4.1M270.8 175.1l4.1-4.1M270.8 179.4l4.1-4.1M270.8 183.7l4.1-4M270.8 187.8l4.1-4.1M273.9 189l1-.9"/><path class="cls-19" d="M274.6 157.3v-27.1M274.6 189v-26.6M270.6 189v-58.8M270.6 189v-58.8M274.6 157.3v-27.1M274.6 189v-26.6"/><path class="cls-23" d="M274.6 327.7h-4V214.2h4v113.5"/><path class="cls-17" d="M270.8 217.6l3.4-3.4M270.8 221.9l4.1-4.1M270.8 226.2l4.1-4.1M270.8 230.5l4.1-4M270.8 234.6l4.1-4.1M270.8 238.9l4.1-4M270.8 243.3l4.1-4.1M270.8 247.3l4.1-4M270.8 251.7l4.1-4.1M270.8 256l4.1-4.1M270.8 260.1l4.1-4.1M270.8 264.4l4.1-4.1M270.8 268.7l4.1-4.1M270.8 273l4.1-4.1M270.8 277.1l4.1-4.1M270.8 281.4l4.1-4.1M270.8 285.7l4.1-4M270.8 289.8l4.1-4.1M270.8 294.1l4.1-4M270.8 298.5l4.1-4.1M270.8 302.8l4.1-4.1M270.8 306.9l4.1-4.1M270.8 311.2l4.1-4.1M270.8 315.5l4.1-4.1M270.8 319.6l4.1-4.1M270.8 323.9l4.1-4.1M271 327.7l3.9-3.6"/><path class="cls-23" d="M270.6 327.7h4V214.2h-4v113.5"/><path class="cls-17" d="M270.8 217.6l3.4-3.4M270.8 221.9l4.1-4.1M270.8 226.2l4.1-4.1M270.8 230.5l4.1-4M270.8 234.6l4.1-4.1M270.8 238.9l4.1-4M270.8 243.3l4.1-4.1M270.8 247.3l4.1-4M270.8 251.7l4.1-4.1M270.8 256l4.1-4.1M270.8 260.1l4.1-4.1M270.8 264.4l4.1-4.1M270.8 268.7l4.1-4.1M270.8 273l4.1-4.1M270.8 277.1l4.1-4.1M270.8 281.4l4.1-4.1M270.8 285.7l4.1-4M270.8 289.8l4.1-4.1M270.8 294.1l4.1-4M270.8 298.5l4.1-4.1M270.8 302.8l4.1-4.1M270.8 306.9l4.1-4.1M270.8 311.2l4.1-4.1M270.8 315.5l4.1-4.1M270.8 319.6l4.1-4.1M270.8 323.9l4.1-4.1M271 327.7l3.9-3.6"/><path class="cls-19" d="M274.6 327.7V214.2M270.6 327.7V214.2M270.6 327.7V214.2M274.6 327.7V214.2M274.6 327.7h-4"/><path class="cls-1" d="M274.6 130.2V105M270.6 130.2V105"/><path class="cls-18" d="M274.6 128.8h-4M274.6 106.2h-4"/><path class="cls-19" d="M274.6 130.2h-4M274.6 105h-4"/><path class="cls-17" d="M274.7 128.9c12.4 0 22.7-10.2 22.7-22.7M274.6 106.2h22.8"/><path class="cls-1" d="M274.6 214.2V189M270.6 214.2V189"/><path class="cls-18" d="M274.6 213h-4M274.6 190.2h-4"/><path class="cls-19" d="M274.6 214.2h-4M274.6 189h-4"/><path class="cls-17" d="M274.7 212.9c12.4 0 22.7-10.2 22.7-22.7M274.6 190.2h22.8"/><path class="cls-22" d="M323.6 188.1h9.8v2.4h-9.8z"/><path class="cls-18" d="M323.6 188.1h9.8v2.4h-9.8z"/><path class="cls-22" d="M323.1 190.5h10.6v.2h-10.6z"/><path class="cls-18" d="M323.1 190.5h10.6v.2h-10.6z"/><path class="cls-20" d="M332.7 190.7v8.4"/><path class="cls-3" d="M332.7 199.1H331l-1.6-.5-1.5-.9-1.2-1-1.2-1.2-.7-1.7-.5-1.4-.2-1.7"/><path class="cls-18" d="M105.7 341.2L70.6 364 2.2 295.6 25 260.5"/><path class="cls-18" d="M106.9 342.4l-36.5 23.7L0 295.6l23.8-36.3"/><path class="cls-17" d="M33.3 163.2h1.9c.6 0 1.2.2 1.8.3.6.1 1.2.3 1.8.5l1.8.6c.6.2 1.1.5 1.7.8.5.3 1.1.6 1.6 1 .5.3 1 .7 1.5 1.1.5.4.9.8 1.4 1.3.4.4.9.9 1.3 1.4.4.5.8 1 1.1 1.5.3.5.7 1.1 1 1.6.3.5.6 1.1.8 1.7l.6 1.8c.2.6.3 1.2.5 1.8l.3 1.8v1.9M52.4 182.1h-19M33.4 163.1h1.5M36.3 162.9h.7M37 162.9l.8-.3"/><path class="cls-10" d="M39 162.4l1.6-.7"/><path class="cls-17" d="M41.8 161.2l.5-.3M42.3 160.9l.7-.4"/><path class="cls-11" d="M44 160l1.4-1.2"/><path class="cls-17" d="M46.6 157.8l.3-.2M46.9 157.6l.7-1M48.6 155.4l.4-.7M49 154.7l.3-.5"/><path class="cls-7" d="M50 153l1-1.7"/><path class="cls-17" d="M51.2 150.4l.2-.7M51.4 149.7l.3-.8"/><path class="cls-9" d="M51.9 148l.3-1.9"/><path class="cls-17" d="M52.4 144.6v-.5"/><path class="cls-6" d="M52.4 144.1h-19"/><path class="cls-17" d="M33.9 144.1h-.5M295.1 332.8v-1.9c0-.6-.2-1.2-.3-1.8-.1-.6-.3-1.2-.5-1.8l-.6-1.8c-.2-.6-.5-1.1-.8-1.7-.3-.5-.6-1.1-1-1.6-.3-.5-.7-1-1.1-1.5-.4-.5-.8-.9-1.3-1.4-.4-.4-.9-.9-1.4-1.3-.5-.4-1-.8-1.5-1.1-.5-.3-1-.7-1.6-1-.5-.3-1.1-.6-1.7-.8l-1.8-.6c-.6-.2-1.2-.3-1.8-.5s-1.2-.2-1.8-.3H276M276.1 313.8v19M295 332.8l.3-1.5M295.5 329.9v-.7M295.5 329.2l.3-.7"/><path class="cls-10" d="M296 327.3l.5-1.7"/><path class="cls-17" d="M297.2 324.4l.2-.5M297.4 323.9l.5-.7M298.6 322l.8-1.2"/><path class="cls-12" d="M299.4 320.8l1.2-1.5"/><path class="cls-17" d="M300.6 319.3l.9-.7M302.5 317.7l.9-.8"/><path class="cls-21" d="M303.4 316.9l1.7-.9"/><path class="cls-17" d="M305.1 316l1-.5M307.5 315l1-.5"/><path class="cls-8" d="M308.5 314.5l1.9-.2"/><path class="cls-17" d="M310.4 314.3l1.2-.2M313 313.8h1"/><path class="cls-6" d="M314 313.8v19"/><path class="cls-17" d="M314 332.3v.5M203 332.8v-1.9c0-.6-.2-1.2-.3-1.8-.1-.6-.3-1.2-.5-1.8l-.6-1.8c-.2-.6-.5-1.1-.8-1.7-.3-.5-.6-1.1-1-1.6-.3-.5-.7-1-1.1-1.5-.4-.5-.8-.9-1.3-1.4-.4-.4-.9-.9-1.4-1.3-.5-.4-1-.8-1.5-1.1-.5-.3-1-.7-1.6-1-.5-.3-1.1-.6-1.7-.8l-1.8-.6c-.6-.2-1.2-.3-1.8-.5l-1.8-.3h-1.9M183.9 313.8v19M202.9 332.8l.2-1.5M203.4 329.9v-.7M203.4 329.2l.2-.7"/><path class="cls-10" d="M203.8 327.3l.5-1.7"/><path class="cls-17" d="M205 324.4l.3-.5M205.3 323.9l.5-.7M206.5 322l.7-1.2"/><path class="cls-12" d="M207.2 320.8l1.4-1.5"/><path class="cls-17" d="M208.6 319.3l.5-.4"/><path class="cls-5" d="M209.8 318.1l1.7-1.2"/><path class="cls-17" d="M212.5 316.2l.5-.2M213 316l.7-.3"/><path class="cls-11" d="M214.6 315.3l2-.8"/><path class="cls-17" d="M217.8 314.3h.4M218.2 314.3l1-.2"/><path class="cls-9" d="M220.2 313.8h1.9"/><path class="cls-6" d="M222.1 313.8v19"/><path class="cls-17" d="M222.1 332.3v.5M107.6 301.1c-7.8-7.8-20.7-7.8-28.5 0M107.6 301.1l-14.2 14.2"/><path class="cls-6" d="M79 272.5l2.7 3.2 1.9 3.3 1 3.9.4 4-.4 3.9-1 3.8-1.9 3.4-2.7 3.1"/><path class="cls-13" d="M79 272.5l-14.1 14.4"/><path class="cls-17" d="M88.9 319.1l-41.8-42 2.4-2.4 42 42-2.6 2.4z"/><path class="cls-24" d="M53.6 268.2L43 278.5l-15.1-14.8 10.6-10.6 15.1 15.1"/><path class="cls-23" d="M43 278.5l2.4-2.4-14.8-14.8-2.7 2.4L43 278.5"/><path class="cls-17" d="M28.9 262.9l14.9 14.9"/><path class="cls-23" d="M45.4 276.1l.5-.2-15.1-15.1-.2.5 14.8 14.8M45.9 275.9l3.9-4.1-14.9-15.1-4.1 4.1 15.1 15.1"/><path class="cls-17" d="M35.8 257.4l-4 4.1M36.8 258.4l-4.1 4.1M37.8 259.6l-4.1 3.8M38.7 260.5l-4.1 4.1M39.7 261.5l-4.1 4.1M40.6 262.5l-3.8 4M41.6 263.4l-3.8 4.1M42.8 264.6l-4.1 3.9M43.8 265.6l-4.1 4.1M44.7 266.5l-4.1 4.1M45.7 267.5l-4.1 4.1M46.6 268.5l-3.8 4M47.6 269.7l-3.8 3.8M48.6 270.6l-3.9 3.9M49.8 271.6l-4.1 4.1"/><path class="cls-23" d="M49.8 271.8l3.8-3.6-15.1-15.1-3.6 3.6 14.9 15.1"/><path class="cls-17" d="M51.9 269.9l-15.1-15.1M48.6 270.6l3.8-3.8M46.6 268.5l3.9-3.6"/><path class="cls-16" d="M44.7 266.5l3.6-3.6"/><path class="cls-17" d="M42.8 264.6l3.6-3.8M40.6 262.5l3.9-3.6M38.7 260.5l3.6-3.6M36.8 258.4l3.6-3.6"/><path class="cls-19" d="M45.4 276.1l-14.8-14.8M43 278.5l-15.1-14.8"/><path class="cls-17" d="M49.8 271.8l-14.9-15.1M45.9 275.9l-15.1-15.1"/><path class="cls-16" d="M53.6 268.2l-15.1-15.1"/><path class="cls-19" d="M49.8 271.8l-14.9-15.1"/><path class="cls-18" d="M43 278.5l-15.1-14.8"/><path class="cls-16" d="M53.6 268.2l-15.1-15.1"/><path class="cls-24" d="M113.1 327.7l-10.5 10.4-15.2-14.9L98 312.6l15.1 15.1"/><path class="cls-23" d="M102.6 338.1l2.4-2.4-14.9-14.9-2.7 2.4 15.2 14.9"/><path class="cls-17" d="M88.4 322.5l14.9 14.8"/><path class="cls-23" d="M105 335.7l.4-.3-15.1-15.1-.2.5 14.9 14.9"/><path class="cls-23" d="M105.4 335.4l3.9-4.1-14.9-15.1-4.1 4.1 15.1 15.1"/><path class="cls-17" d="M94.9 316.7l-4.1 4.1M95.8 317.7l-4 4M96.8 318.6l-4.1 4.1M97.8 319.6l-3.9 4.1M99 320.5l-4.1 4.1M99.9 321.7l-4.1 3.9M100.9 322.7l-4.1 4.1M101.8 323.7l-4 4M102.8 324.6l-4.1 4.1M103.8 325.6l-3.9 4.1M104.7 326.8l-3.8 3.8M105.9 327.7l-4.1 3.9M106.9 328.7l-4.1 4.1M107.8 329.7l-4 4M108.8 330.6l-4.1 4.1"/><path class="cls-23" d="M109.3 331.3l3.8-3.6L98 312.6l-3.6 3.6 14.9 15.1"/><path class="cls-17" d="M111.4 329.4l-15.1-15.1M108.8 330.6l3.6-3.6M106.9 328.7l3.6-3.6M104.7 326.8l3.9-3.9M102.8 324.6l3.6-3.6M100.9 322.7l3.6-3.6M99 320.5l3.6-3.6M96.8 318.6l3.6-3.6M94.9 316.7l3.6-3.6"/><path class="cls-19" d="M105 335.7l-14.9-14.9M102.6 338.1l-15.2-14.9"/><path class="cls-17" d="M109.3 331.3l-14.9-15.1M105.4 335.4l-15.1-15.1"/><path class="cls-19" d="M113.1 327.7L98 312.6M109.3 331.3l-14.9-15.1"/><path class="cls-18" d="M102.6 338.1l-15.2-14.9M113.1 327.7L98 312.6"/><path class="cls-1" d="M98 312.6l-44.4-44.4"/><path class="cls-18" d="M92.7 317.9l-44.4-44.4 1.5-1.7 44.6 44.4-1.7 1.7zM90.1 315.3l1.7-1.7M51 275.9l1.4-1.4M94.4 316.2l-1.7 1.7M81 303l-1.7 1.5M91.8 313.6l-1.7 1.7M78.1 299.9l-1.7 1.7M81 303l-1.7 1.5M66.1 288.1l-1.5 1.5M78.1 299.9l-1.7 1.7M63.2 285.3l-1.4 1.4M66.1 288.1l-1.5 1.5M52.4 274.5l-1.4 1.4M63.2 285.3l-1.4 1.4M49.8 271.8l-1.5 1.7"/><path class="cls-19" d="M94.4 316.2l3.6-3.6"/><path class="cls-18" d="M41.8 277.6l-1.2 1.2"/><path class="cls-15" d="M40.6 278.8l46.8 46.8"/><path class="cls-18" d="M87.4 325.6l.5-.7"/><path class="cls-23" d="M90.4 320.3l-1.3-1.3 2.4-2.4 1.3 1.3"/><path class="cls-17" d="M92.2 317.2l-2.4 2.4M90.4 320.3l-1.3-1.3 2.4-2.4 1.3 1.3"/><path class="cls-23" d="M87.4 323.2l-1.2-1.5 2.4-2.4 1.5 1.5"/><path class="cls-17" d="M87 321l1.4 1.5"/><path class="cls-19" d="M87.4 323.2l-1.2-1.5 2.4-2.4 1.5 1.5M88.6 319.3l2.9-2.6"/><path class="cls-23" d="M45.9 275.8l1.3 1.3 2.4-2.4-1.3-1.3"/><path class="cls-17" d="M49 274.2l-2.4 2.4M45.9 275.8l1.3 1.3 2.4-2.4-1.3-1.3"/><path class="cls-19" d="M49.8 271.8l3.8-3.6"/><path class="cls-23" d="M43 278.5l1.5 1.5 2.4-2.4-1.5-1.5"/><path class="cls-17" d="M43.8 277.8l1.4 1.5"/><path class="cls-19" d="M43 278.5l1.5 1.5 2.4-2.4-1.5-1.5M46.9 277.6l2.6-2.9"/><path class="cls-24" d="M38.5 253.1l-14.9 6.2 4.3 4.4 10.6-10.6"/><path class="cls-23" d="M27.2 257.9l-3.6 1.4 4.3 4.4 2.7-2.4-3.4-3.4"/><path class="cls-17" d="M24.8 258.9l4.1 4"/><path class="cls-23" d="M27.7 257.7l-.5.2 3.4 3.4.2-.5-3.1-3.1"/><path class="cls-23" d="M33.4 255.3l-5.7 2.4 3.1 3.1 4.1-4.1-1.5-1.4"/><path class="cls-17" d="M30.8 256.5l-2.2 2.1M33.7 255.5l-4.1 4.1M34.6 256.5l-4 4"/><path class="cls-23" d="M38.5 253.1l-5.1 2.2 1.5 1.4 3.6-3.6"/><path class="cls-17" d="M36.1 254.1l.7.7"/><path class="cls-19" d="M30.6 261.3l-3.4-3.4M27.9 263.7l-4.3-4.4"/><path class="cls-17" d="M34.9 256.7l-1.5-1.4M30.8 260.8l-3.1-3.1"/><path class="cls-19" d="M34.9 256.7l-1.5-1.4"/><path class="cls-18" d="M27.9 263.7l-4.3-4.4M27.9 263.7"/><path class="cls-17" d="M30.8 260.8"/><path class="cls-19" d="M38.5 253.1l-3.6 3.6"/><path class="cls-24" d="M113.1 327.7l-6.2 14.7-4.3-4.3 10.5-10.4"/><path class="cls-23" d="M106.9 342.4l1.4-3.4-3.3-3.3-2.4 2.4 4.3 4.3"/><path class="cls-17" d="M103.3 337.3l4.1 4.1"/><path class="cls-23" d="M108.3 339l.3-.5-3.2-3.1-.4.3 3.3 3.3"/><path class="cls-23" d="M108.6 338.5l2.4-5.7-1.7-1.5-3.9 4.1 3.2 3.1"/><path class="cls-17" d="M109.8 331.8l-3.9 3.9M111 332.5l-4.1 4.1M109.8 335.7l-2 2.1"/><path class="cls-23" d="M111 332.8l2.1-5.1-3.8 3.6 1.7 1.5"/><path class="cls-17" d="M111.4 329.4l.8.7"/><path class="cls-19" d="M108.3 339l-3.3-3.3M106.9 342.4l-4.3-4.3"/><path class="cls-17" d="M111 332.8l-1.7-1.5M108.6 338.5l-3.2-3.1"/><path class="cls-19" d="M111 332.8l-1.7-1.5"/><path class="cls-18" d="M106.9 342.4l-4.3-4.3M102.6 338.1"/><path class="cls-17" d="M109.3 331.3"/><path class="cls-19" d="M109.3 331.3l3.8-3.6"/><path class="cls-18" d="M223.3 159.5v1.4M223.3 160.9l-.3 1.5M222.6 163.6v.5M222.1 165.3l-.5.9M221.6 166.2l-.7 1.2M220.9 167.4l-.3.3M219.7 168.9l-.3.2M218.5 170.1l-.5.4M218 170.5l-1 .8M217 171.3l-.7.4M215.1 172.5h-.5M213.4 172.9l-.2.3M213.2 173.2l-1.4.2M211.8 173.4l-1.2.3M209.4 173.7h-.3M209.1 173.7h-.2M207.4 173.7l-1.2-.3M206.2 173.4l-1.2-.2M205 173.2l-.2-.3M203.4 172.5h-.3M201.9 171.7l-.7-.4M201.2 171.3l-1.2-.8M200 170.5l-.2-.4M198.6 169.1v-.2M197.6 167.7l-.2-.3M197.4 167.4l-.8-1.2M196.6 166.2l-.4-.9M195.7 164.1v-.5M195.2 162.4l-.2-1.5M195 160.9v-1.4M195 158.1v-.3M195.2 156.4l.2-1M195.4 155.4l.5-1.4M195.9 154l.3-.3M196.9 152.5v-.2M197.8 151.1l.3-.5M198.1 150.6l.9-1.2M199 149.4l.8-.5M200.7 148h.3M202.2 147.3l.2-.3M202.4 147l1.2-.7M203.6 146.3l1.2-.2M206.2 145.6h.3M207.9 145.3h1.2M209.1 145.3h1.5M212 145.6l.2.2M213.7 146.1l.9.2M214.6 146.3l1.2.7M215.8 147l.5.3M217.5 148l.3.2M218.7 149.2l.5.2M219.2 149.4l1 1.2M220.2 150.6l.4.7M221.4 152.5l.2.3M222.1 154h.2M222.3 154l.3 1.4M222.6 155.4l.4 1.2M223.3 158.1v.2"/></g><g id="Mbel"><path class="cls-2" d="M39.4 104.1H96v28.3H39.4zM257.8 132.4h10.8V189h-10.8zM253.3 224.1h15.6V281h-15.6zM167.4 251.7H224v45.1h-56.6zM64.6 241.3h28.3v14.2H64.6zM105.5 210.5v19c0 .1-.1.2-.2.3 0 0-.2.1-.3.2H79.5c-.1 0-.2-.1-.3-.2 0 0-.1-.2-.2-.3v-19h26.6M110 206.8v22.7c0 .1-.1.2-.2.3 0 0-.2.1-.3.2H106.1c-.1 0-.2-.1-.3-.2 0 0-.1-.2-.2-.3v-22.7-.3c0-.1.1-.2.2-.3 0 0 .2-.1.3-.2H109.5c.1 0 .2.1.3.2 0 0 .1.2.2.3v.3M78.9 210.5v-3.7-.3c0-.1-.1-.2-.2-.3 0 0-.2-.1-.3-.2H52.9c-.1 0-.2.1-.3.2s-.1.2-.2.3v4M52.2 212.8h53.2"/><path class="cls-2" d="M52.2 210.5v19c0 .1.1.2.2.3 0 0 .2.1.3.2h25.5c.1 0 .2-.1.3-.2 0 0 .1-.2.2-.3v-19H52.1M47.7 206.8v22.7c0 .1.1.2.2.3 0 0 .2.1.3.2H51.6c.1 0 .2-.1.3-.2 0 0 .1-.2.2-.3v-22.7-.3c0-.1-.1-.2-.2-.3 0 0-.2-.1-.3-.2H48.2c-.1 0-.2.1-.3.2s-.1.2-.2.3v.3M78.9 210.5v-3.7-.3c0-.1.1-.2.2-.3 0 0 .2-.1.3-.2h25.5c.1 0 .2.1.3.2 0 0 .1.2.2.3v4M149.1 262.5h10.8v56.9h-10.8zM129.4 302.8c-.4 4-1.1 7.9-2.1 11.8-.2.9-1 1.6-2 1.8-3.2.5-6.4 0-9.4-1.2-.9-.4-1.5-1.2-1.5-2.2 0-4 .3-8 .9-11.9.7-.2 1.4-.2 2.1-.1 3.3.3 6.5.7 9.8 1.3.7.1 1.3.3 2 .5"/><path class="cls-2" d="M129.7 303.9c.2.2.4.5.5.8.5 1.4.7 3 .4 4.5-.3 2-.8 4-1.5 6-.5 1.4-1.2 2.7-2 3.9-.5.7-1.2 1.1-2.1 1.2-3.4.3-6.8 0-10-1.3-.8-.3-1.4-.9-1.7-1.7-.5-1.4-.8-2.8-.9-4.3-.2-2-.2-4.1 0-6.1.1-1.5.7-3 1.6-4.2.2-.3.4-.5.7-.7M278 278.3h12.7v8.6H278zM278 247.3h12.7v8.4H278z"/><path class="cls-2" d="M275.8 255.7h17v22.6h-17zM197.8 134.1h22.6V185h-22.6zM187.8 183.6v-12.7M196.3 183.6h-8.5M187.8 170.9h8.5M187.8 165.9v-12.8M196.3 165.9h-8.5M187.8 153.1h8.5M187.8 148.2v-12.8M196.3 148.2h-8.5M187.8 135.4h8.5M230.4 183.6v-12.7M230.4 170.9h-8.5M230.4 165.9v-12.8M221.9 165.9h8.5M230.4 153.1h-8.5M230.4 148.2v-12.8M221.9 148.2h8.5M230.4 135.4h-8.5M91.8 170.5h11.3v7.7H91.8zM74.7 178.2h45.4v19.7H74.7z"/><path class="cls-16" d="M221.9 183.6h8.5"/></g><g id="Text"><path d="M151.9 37.8v.6h-2.5v-5.3h.7v4.7h1.9zM153.6 33.7c0 .2-.2.4-.4.4s-.4-.2-.4-.4.2-.4.4-.4.4.2.4.4zm0 4.7h-.6v-3.7h.6v3.7zM155.6 38.4h-.6v-3.2h-.5v-.5h.5v-.5c0-.7.4-1.2 1-1.2h.2v.5c-.4 0-.6.2-.6.6v.5h.6v.5h-.6v3.2zM157.9 37.6c0 .2 0 .2.3.2h.3v.5h-.6c-.4 0-.6-.2-.6-.6v-2.6h-.5v-.5h.5v-1.2h.6v1.2h.6v.5h-.6v2.4zM81.7 149.6v.6h-3.8l3-4.8h-2.7v-.6H82l-3 4.8h2.7zM83.5 145.4c0 .2-.2.4-.4.4s-.4-.2-.4-.4.2-.4.4-.4.4.2.4.4zm0 4.7h-.6v-3.7h.6v3.7zM85.4 146.5v.5c.3-.4.6-.6 1-.6s.8.2 1 .7c.3-.5.6-.7 1.2-.7s.7.1.9.4c.2.2.2.4.2 1v2.4h-.6V148c0-.4 0-.6-.1-.7-.1-.2-.4-.3-.6-.3-.5 0-.8.4-.8 1v2.2H87V148c0-.4 0-.5-.1-.7-.1-.2-.3-.3-.6-.3-.5 0-.9.4-.9 1v2.2h-.6v-3.7h.6zM91.7 146.5v.5c.3-.4.6-.6 1-.6s.8.2 1 .7c.3-.5.6-.7 1.2-.7s.7.1.9.4c.2.2.2.4.2 1v2.4h-.6V148c0-.4 0-.6-.1-.7-.1-.2-.4-.3-.6-.3-.5 0-.8.4-.8 1v2.2h-.6V148c0-.4 0-.5-.1-.7-.1-.2-.3-.3-.6-.3-.5 0-.9.4-.9 1v2.2h-.6v-3.7h.6zM97.8 148.5c0 .3 0 .5.2.7.2.3.6.5 1 .5s.9-.2 1.1-.6l.5.2c-.3.6-.9 1-1.6 1-1.1 0-1.9-.8-1.9-1.9s.8-1.9 1.9-1.9 1.9.8 1.9 1.9v.2h-3.1zm2.4-.4c0-.3 0-.4-.2-.6-.2-.3-.6-.5-1-.5s-.8.2-1 .5c-.1.2-.2.3-.2.6h2.4zM102.6 146.5v.6c.1-.3.2-.4.3-.5.2-.1.4-.2.7-.2h.1v.6h-.2c-.3 0-.6.2-.8.4-.2.2-.2.4-.2.9v1.9h-.6v-3.7h.6zM78.7 155.6v-.6l1.8-1.2v5.4h-.6v-4.4l-1.2.8zM84.9 158.6v.6h-3l1.9-2.7c.5-.8.7-1 .7-1.3 0-.5-.4-.8-.9-.8s-.7.2-.8.4v.6h-.6c0-1 .6-1.6 1.5-1.6s1.5.5 1.5 1.3-.2.8-.6 1.5l-1.4 2h1.9zM87 158.8c0 .2-.2.4-.4.4s-.4-.2-.4-.4.2-.4.4-.4.4.2.4.4zM89.8 157c-.2 0-.3.1-.5.1-.9 0-1.6-.7-1.6-1.6s.8-1.7 1.7-1.7 1.7.7 1.7 1.7-.1.7-.4 1.2l-1.5 2.5h-.7l1.3-2.1zm-1.5-1.5c0 .6.5 1.1 1.1 1.1s1.1-.5 1.1-1.1-.5-1.1-1-1.1-1.1.5-1.1 1.1zM95.2 155.5v.5c.3-.4.6-.6 1-.6s.8.2 1 .7c.3-.5.6-.7 1.2-.7s.7.1.9.4c.2.2.2.4.2 1v2.4h-.6V157c0-.4 0-.6-.1-.7-.1-.2-.4-.3-.6-.3-.5 0-.8.4-.8 1v2.2h-.6V157c0-.4 0-.5-.1-.7-.1-.2-.3-.3-.6-.3-.5 0-.9.4-.9 1v2.2h-.6v-3.7h.6zM102.8 156.6v.4h-2l1.2-1.6c.3-.5.4-.6.4-.8 0-.3-.2-.4-.5-.4s-.5.2-.5.6h-.4c0-.6.4-1 1-1s1 .3 1 .8-.1.5-.4.9l-.8 1.1h1.1z"/><g><path d="M240.8 297.6v.6H237l3-4.8h-2.7v-.6h3.8l-3 4.8h2.7zM242.6 293.5c0 .2-.2.4-.4.4s-.4-.2-.4-.4.2-.4.4-.4.4.2.4.4zm0 4.7h-.6v-3.7h.6v3.7zM244.5 294.5v.5c.3-.4.6-.6 1-.6s.8.2 1 .7c.3-.5.6-.7 1.2-.7s.7.1.9.4c.2.2.2.4.2 1v2.4h-.6V296c0-.4 0-.6-.1-.7-.1-.2-.4-.3-.6-.3-.5 0-.8.4-.8 1v2.2h-.6V296c0-.4 0-.5-.1-.7-.1-.2-.3-.3-.6-.3-.5 0-.9.4-.9 1v2.2h-.6v-3.7h.6zM250.8 294.5v.5c.3-.4.6-.6 1-.6s.8.2 1 .7c.3-.5.6-.7 1.2-.7s.7.1.9.4c.2.2.2.4.2 1v2.4h-.6V296c0-.4 0-.6-.1-.7-.1-.2-.4-.3-.6-.3-.5 0-.8.4-.8 1v2.2h-.6V296c0-.4 0-.5-.1-.7-.1-.2-.3-.3-.6-.3-.5 0-.9.4-.9 1v2.2h-.6v-3.7h.6zM256.9 296.6c0 .3 0 .5.2.7.2.3.6.5 1 .5s.9-.2 1.1-.6l.5.2c-.3.6-.9 1-1.6 1-1.1 0-1.9-.8-1.9-1.9s.8-1.9 1.9-1.9 1.9.8 1.9 1.9v.2h-3.1zm2.4-.4c0-.3 0-.4-.2-.6-.2-.3-.6-.5-1-.5s-.8.2-1 .5c-.1.2-.2.3-.2.6h2.4zM261.7 294.5v.6c.1-.3.2-.4.3-.5.2-.1.4-.2.7-.2h.1v.6h-.2c-.3 0-.6.2-.8.4-.2.2-.2.4-.2.9v1.9h-.6v-3.7h.6zM237.7 303.6v-.6l1.8-1.2v5.4h-.6v-4.4l-1.2.8zM241.3 302.5v-.6h3l-1.6 2c.9 0 1.6.7 1.6 1.6s-.8 1.7-1.8 1.7-1.4-.5-1.6-1.3h.6c.1.4.5.7 1 .7s1.2-.5 1.2-1.1-.5-1.1-1.2-1.1-.4 0-.6.2l-.3-.2 1.5-1.9h-1.9zM246.2 306.9c0 .2-.2.4-.4.4s-.4-.2-.4-.4.2-.4.4-.4.4.2.4.4zM248.5 304.1c.2 0 .3-.1.5-.1.9 0 1.6.7 1.6 1.6s-.8 1.7-1.7 1.7-1.7-.8-1.7-1.7.1-.7.4-1.2l1.5-2.5h.7l-1.4 2.1zm-.7 1.5c0 .6.5 1.1 1.1 1.1s1.1-.5 1.1-1.1-.5-1.1-1.1-1.1-1.1.5-1.1 1.1zM252.3 303.5v.5c.3-.4.6-.6 1-.6s.8.2 1 .7c.3-.5.6-.7 1.2-.7s.7.1.9.4c.2.2.2.4.2 1v2.4h-.6V305c0-.4 0-.6-.1-.7-.1-.2-.4-.3-.6-.3-.5 0-.8.4-.8 1v2.2h-.6V305c0-.4 0-.5-.1-.7-.1-.2-.3-.3-.6-.3-.5 0-.9.4-.9 1v2.2h-.6v-3.7h.6zM259.9 304.7v.4h-2l1.2-1.6c.3-.5.4-.6.4-.8 0-.3-.2-.4-.5-.4s-.5.2-.5.6h-.4c0-.6.4-1 1-1s1 .3 1 .8-.1.5-.4.9l-.8 1.1h1.1z"/></g><g><path d="M22.7 289.9c1.1 0 1.7.5 1.7 1.4s-.1.6-.3.9c-.1.2-.3.2-.5.3.3 0 .4.1.6.2.3.2.4.6.4 1s-.2.9-.6 1.2c-.3.2-.7.3-1.3.3h-1.5v-5.3h1.5zm-.8 2.4h.7c.4 0 .7 0 .9-.2.2-.2.3-.4.3-.7s-.2-.6-.4-.8c-.2 0-.4-.1-.9-.1h-.6v1.8zm0 2.4h.7c.6 0 .8 0 1-.2.3-.1.4-.4.4-.8 0-.6-.4-.9-1.2-.9H22v1.8zM28.6 291.5h.6v3.7h-.6v-.7c-.4.6-.8.8-1.3.8-1 0-1.7-.8-1.7-1.9s.7-1.9 1.8-1.9 1 .2 1.3.7v-.6zm-2.1.9c-.2.3-.3.6-.3 1 0 .8.5 1.4 1.2 1.4s1.3-.6 1.3-1.4-.5-1.4-1.2-1.4-.7.1-.9.4zM30.6 295.2v-5.3h.6v5.3h-.6zM33.2 295.2h-.6v-5.3h.6v3.3l1.5-1.6h.8l-1.6 1.8 1.6 1.9h-.8l-1.5-1.6v1.6zM39.6 293.4c0 1.1-.8 1.9-1.9 1.9s-1.9-.8-1.9-1.9.8-1.9 1.9-1.9 1.9.8 1.9 1.9zm-3.1 0c0 .8.5 1.4 1.3 1.4s1.2-.6 1.2-1.4-.5-1.4-1.2-1.4-1.3.6-1.3 1.4zM41.3 291.5v.5c.3-.4.6-.6 1.1-.6s.6.1.9.3c.2.2.3.5.3 1v2.5H43v-2.4c0-.3 0-.5-.1-.6-.1-.2-.3-.2-.6-.2s-.5.1-.7.3c-.2.2-.2.4-.2.7v2.2h-.6v-3.7h.6zM23.5 299.5h-1.7v1.4c.3-.1.5-.2.8-.2.9 0 1.6.7 1.6 1.7s-.8 1.8-1.8 1.8-1.3-.4-1.6-1.1l.6-.2c.1.2.2.3.3.4.2.2.5.3.8.3.6 0 1.1-.5 1.1-1.2s-.5-1.1-1.2-1.1-.8.2-1.2.5v-3h2.3v.6zM26.1 303.9c0 .2-.2.4-.4.4s-.4-.2-.4-.4.2-.4.4-.4.4.2.4.4zM30.4 302.6c0 .6-.1 1-.4 1.2-.3.3-.7.4-1.2.4s-1-.2-1.2-.5c-.3-.3-.4-.6-.4-1.4v-1.8c0-.7 0-1 .3-1.3.3-.3.7-.5 1.2-.5s.9.1 1.2.4c.3.3.4.6.4 1.2v2.1zm-2.5-.1c0 .6 0 .7.2.9.2.2.5.3.8.3s.6-.1.8-.4c.1-.2.2-.4.2-.8v-2c0-.4 0-.6-.3-.8-.2-.2-.4-.2-.7-.2s-.6.1-.8.4c-.1.2-.2.4-.2.8v1.8zM34.6 300.5v.5c.3-.4.6-.6 1-.6s.8.2 1 .7c.3-.5.6-.7 1.2-.7s.7.1.9.4c.2.2.2.4.2 1v2.4h-.6V302c0-.4 0-.6-.1-.7-.1-.2-.4-.3-.6-.3-.5 0-.8.4-.8 1v2.2h-.6V302c0-.4 0-.5-.1-.7-.1-.2-.3-.3-.6-.3-.5 0-.9.4-.9 1v2.2H34v-3.7h.6zM42.2 301.7v.4h-2l1.2-1.6c.3-.5.4-.6.4-.8 0-.3-.2-.4-.5-.4s-.5.2-.5.6h-.4c0-.6.4-1 1-1s1 .3 1 .8-.1.5-.4.9l-.8 1.1h1.1z"/></g><g><path d="M284.5 232.6h-.7v-5.3h.7v2.5l2.1-2.5h.8l-2.2 2.6 2.2 2.7h-.9l-2-2.5v2.5zM291.5 230.8c0 1.1-.8 1.9-1.9 1.9s-1.9-.8-1.9-1.9.8-1.9 1.9-1.9 1.9.8 1.9 1.9zm-3.1 0c0 .8.5 1.4 1.3 1.4s1.2-.6 1.2-1.4-.5-1.4-1.2-1.4-1.3.6-1.3 1.4zM295.5 232.1c-.4.4-.8.5-1.4.5-1.1 0-1.8-.8-1.8-1.9s.8-1.9 1.8-1.9 1 .2 1.3.6l-.4.4c-.3-.3-.6-.4-.9-.4-.7 0-1.2.6-1.2 1.4s.5 1.4 1.2 1.4.6-.1.9-.4l.4.4zM297 229.4c.3-.4.7-.6 1.1-.6s.7.1.9.3c.2.2.3.5.3 1v2.5h-.6v-2.4c0-.5-.2-.8-.7-.8s-.5.1-.7.3c-.2.2-.2.4-.2.7v2.2h-.6v-5.3h.6v2.2zM301 230.9c0 .3 0 .5.2.7.2.3.6.5 1 .5s.9-.2 1.1-.6l.5.2c-.3.6-.9 1-1.6 1-1.1 0-1.9-.8-1.9-1.9s.8-1.9 1.9-1.9 1.9.8 1.9 1.9v.2H301zm2.4-.4c0-.3 0-.4-.2-.6-.2-.3-.6-.5-1-.5s-.8.2-1 .5c-.1.2-.2.3-.2.6h2.4zM305.8 228.9v.5c.3-.4.6-.6 1.1-.6s.6.1.9.3c.2.2.3.5.3 1v2.5h-.6v-2.4c0-.3 0-.5-.1-.6-.1-.2-.3-.2-.6-.2s-.5.1-.7.3c-.2.2-.2.4-.2.7v2.2h-.6v-3.7h.6zM284 238v-.6l1.8-1.2v5.4h-.6v-4.4l-1.2.8zM290.7 240c0 .6-.1 1-.4 1.2-.3.3-.7.4-1.2.4s-1-.2-1.2-.5c-.3-.3-.4-.6-.4-1.4v-1.8c0-.7 0-1 .3-1.3.3-.3.7-.5 1.2-.5s.9.1 1.2.4c.3.3.4.6.4 1.2v2.1zm-2.5-.1c0 .6 0 .7.2.9.2.2.5.3.8.3s.6-.1.8-.4c.1-.2.2-.4.2-.8v-2c0-.4 0-.6-.3-.8-.2-.2-.4-.2-.7-.2s-.6.1-.8.4c-.1.2-.2.4-.2.8v1.8zM292.7 241.2c0 .2-.2.4-.4.4s-.4-.2-.4-.4.2-.4.4-.4.4.2.4.4zM295.5 239.4c-.2 0-.3.1-.5.1-.9 0-1.6-.7-1.6-1.6s.8-1.7 1.7-1.7 1.7.7 1.7 1.7-.1.7-.4 1.2l-1.5 2.5h-.7l1.3-2.1zm-1.5-1.5c0 .6.5 1.1 1.1 1.1s1.1-.5 1.1-1.1-.5-1.1-1-1.1-1.1.5-1.1 1.1zM300.8 237.9v.5c.3-.4.6-.6 1-.6s.8.2 1 .7c.3-.5.6-.7 1.2-.7s.7.1.9.4c.2.2.2.4.2 1v2.4h-.6v-2.2c0-.4 0-.6-.1-.7-.1-.2-.4-.3-.6-.3-.5 0-.8.4-.8 1v2.2h-.6v-2.2c0-.4 0-.5-.1-.7-.1-.2-.3-.3-.6-.3-.5 0-.9.4-.9 1v2.2h-.6v-3.7h.6zM308.4 239.1v.4h-2l1.2-1.6c.3-.5.4-.6.4-.8 0-.3-.2-.4-.5-.4s-.5.2-.5.6h-.4c0-.6.4-1 1-1s1 .3 1 .8-.1.5-.4.9l-.8 1.1h1.1z"/></g><g><path d="M284.5 171h-.7v-5.3h1.5c1.1 0 1.8.6 1.8 1.6s-.3 1.1-.8 1.3c-.3.1-.5.2-1 .2l2.1 2.2h-.9l-2.1-2.2v2.2zm.7-2.7c.8 0 1.2-.4 1.2-1s-.4-1-1.1-1h-.8v2.1h.7zM288.6 169.4c0 .3 0 .5.2.7.2.3.6.5 1 .5s.9-.2 1.1-.6l.5.2c-.3.6-.9 1-1.6 1-1.1 0-1.9-.8-1.9-1.9s.8-1.9 1.9-1.9 1.9.8 1.9 1.9v.2h-3.1zm2.4-.4c0-.3 0-.4-.2-.6-.2-.3-.6-.5-1-.5s-.8.2-1 .5c-.1.2-.2.3-.2.6h2.4zM295.6 165.7h.6v5.3h-.6v-.6c-.4.5-.8.7-1.3.7-1 0-1.7-.8-1.7-1.9s.7-2 1.7-2 1 .2 1.3.6v-2.2zm-2.4 3.5c0 .8.5 1.4 1.2 1.4s1.2-.6 1.2-1.4-.5-1.4-1.2-1.4-1.2.6-1.2 1.4zM300.3 167.3v2.4c0 .5 0 .8-.4 1-.3.2-.6.4-1.1.4s-.8-.1-1.1-.4c-.2-.2-.4-.6-.4-1v-2.4h.6v2.3c0 .5.3.9.8.9s.5-.1.7-.3c.1-.1.2-.3.2-.6v-2.4h.6zM302.3 166.3c0 .2-.2.4-.4.4s-.4-.2-.4-.4.2-.4.4-.4.4.2.4.4zm0 4.7h-.6v-3.7h.6v3.7zM304.3 170.3c0 .2 0 .2.3.2h.3v.5h-.6c-.4 0-.6-.2-.6-.6v-2.6h-.5v-.5h.5v-1.2h.6v1.2h.6v.5h-.6v2.4zM284 176.4v-.6l1.8-1.2v5.4h-.6v-4.4l-1.2.8zM288.4 179.7c0 .2-.2.4-.4.4s-.4-.2-.4-.4.2-.4.4-.4.4.2.4.4zM289.6 175.4v-.6h3l-2.1 5.3h-.7l1.9-4.7h-2zM296.7 176.3v.5c.3-.4.6-.6 1-.6s.8.2 1 .7c.3-.5.6-.7 1.2-.7s.7.1.9.4c.2.2.2.4.2 1v2.4h-.6v-2.2c0-.4 0-.6-.1-.7-.1-.2-.4-.3-.6-.3-.5 0-.8.4-.8 1v2.2h-.6v-2.2c0-.4 0-.5-.1-.7-.1-.2-.3-.3-.6-.3-.5 0-.9.4-.9 1v2.2h-.6v-3.7h.6zM304.3 177.5v.4h-2l1.2-1.6c.3-.5.4-.6.4-.8 0-.3-.2-.4-.5-.4s-.5.2-.5.6h-.4c0-.6.4-1 1-1s1 .3 1 .8-.1.5-.4.9l-.8 1.1h1.1z"/></g><g><path d="M136.8 72.4h-.7v-5.3h1.5c1.1 0 1.8.6 1.8 1.6s-.3 1.1-.8 1.3c-.3.1-.5.2-1 .2l2.1 2.2h-.9l-2.1-2.2v2.2zm.7-2.7c.8 0 1.2-.4 1.2-1s-.4-1-1.1-1h-.8v2.1h.7zM140.9 70.7c0 .3 0 .5.2.7.2.3.6.5 1 .5s.9-.2 1.1-.6l.5.2c-.3.6-.9 1-1.6 1-1.1 0-1.9-.8-1.9-1.9s.8-1.9 1.9-1.9 1.9.8 1.9 1.9v.2h-3.1zm2.4-.4c0-.3 0-.4-.2-.6-.2-.3-.6-.5-1-.5s-.8.2-1 .5c-.1.2-.2.3-.2.6h2.4zM147.9 67h.6v5.3h-.6v-.6c-.4.5-.8.7-1.3.7-1 0-1.7-.8-1.7-1.9s.7-2 1.7-2 1 .2 1.3.6v-2.2zm-2.4 3.5c0 .8.5 1.4 1.2 1.4s1.2-.6 1.2-1.4-.5-1.4-1.2-1.4-1.2.6-1.2 1.4zM152.7 68.7v2.4c0 .5 0 .8-.4 1-.3.2-.6.4-1.1.4s-.8-.1-1.1-.4c-.2-.2-.4-.6-.4-1v-2.4h.6V71c0 .5.3.9.8.9s.5-.1.7-.3c.1-.1.2-.3.2-.6v-2.4h.6zM154.6 67.7c0 .2-.2.4-.4.4s-.4-.2-.4-.4.2-.4.4-.4.4.2.4.4zm0 4.7h-.6v-3.7h.6v3.7zM156.6 71.6c0 .2 0 .2.3.2h.3v.5h-.6c-.4 0-.6-.2-.6-.6v-2.6h-.5v-.5h.5v-1.2h.6v1.2h.6v.5h-.6v2.4zM138.8 80.8v.6h-3l1.9-2.7c.5-.8.7-1 .7-1.3 0-.5-.4-.8-.9-.8s-.7.2-.8.4v.6h-.6c0-1 .6-1.6 1.5-1.6s1.5.5 1.5 1.3-.2.8-.6 1.5l-1.4 2h1.9zM140.9 81c0 .2-.2.4-.4.4s-.4-.2-.4-.4.2-.4.4-.4.4.2.4.4zM142.2 76.7v-.6h3l-1.6 2c.9 0 1.6.7 1.6 1.6s-.8 1.7-1.8 1.7-1.4-.5-1.6-1.3h.6c.1.4.5.7 1 .7s1.2-.5 1.2-1.1-.5-1.1-1.2-1.1-.4 0-.6.2l-.3-.2 1.5-1.9h-1.9zM149.4 77.7v.5c.3-.4.6-.6 1-.6s.8.2 1 .7c.3-.5.6-.7 1.2-.7s.7.1.9.4c.2.2.2.4.2 1v2.4h-.6v-2.2c0-.4 0-.6-.1-.7-.1-.2-.4-.3-.6-.3-.5 0-.8.4-.8 1v2.2h-.6v-2.2c0-.4 0-.5-.1-.7-.1-.2-.3-.3-.6-.3-.5 0-.9.4-.9 1v2.2h-.6v-3.7h.6zM157 78.9v.4h-2l1.2-1.6c.3-.5.4-.6.4-.8 0-.3-.2-.4-.5-.4s-.5.2-.5.6h-.4c0-.6.4-1 1-1s1 .3 1 .8-.1.5-.4.9l-.8 1.1h1.1z"/></g><g><path d="M110 245.8h.7l-1.6 5.3h-.6l-1.2-4.2-1.2 4.2h-.6l-1.6-5.3h.7l1.2 4.1 1.2-4.1h.6l1.1 4.1 1.2-4.1zM114.8 249.4c0 1.1-.8 1.9-1.9 1.9s-1.9-.8-1.9-1.9.8-1.9 1.9-1.9 1.9.8 1.9 1.9zm-3.1 0c0 .8.5 1.4 1.3 1.4s1.2-.6 1.2-1.4-.5-1.4-1.2-1.4-1.3.6-1.3 1.4zM116.5 248c.3-.4.7-.6 1.1-.6s.7.1.9.3c.2.2.3.5.3 1v2.5h-.6v-2.4c0-.5-.2-.8-.7-.8s-.5.1-.7.3c-.2.2-.2.4-.2.7v2.2h-.6v-5.3h.6v2.2zM120.7 247.5v.5c.3-.4.6-.6 1.1-.6s.6.1.9.3c.2.2.3.5.3 1v2.5h-.6v-2.4c0-.3 0-.5-.1-.6-.1-.2-.3-.2-.6-.2s-.5.1-.7.3c-.2.2-.2.4-.2.7v2.2h-.6v-3.7h.6zM124.7 249.5c0 .3 0 .5.2.7.2.3.6.5 1 .5s.9-.2 1.1-.6l.5.2c-.3.6-.9 1-1.6 1-1.1 0-1.9-.8-1.9-1.9s.8-1.9 1.9-1.9 1.9.8 1.9 1.9v.2h-3.1zm2.4-.4c0-.3 0-.4-.2-.6-.2-.3-.6-.5-1-.5s-.8.2-1 .5c-.1.2-.2.3-.2.6h2.4zM129.5 247.5v.5c.3-.4.6-.6 1.1-.6s.6.1.9.3c.2.2.3.5.3 1v2.5h-.6v-2.4c0-.3 0-.5-.1-.6-.1-.2-.3-.2-.6-.2s-.5.1-.7.3c-.2.2-.2.4-.2.7v2.2h-.6v-3.7h.6zM104.8 256.6v-.6l1.8-1.2v5.4h-.6v-4.4l-1.2.8zM109.3 257.1c.2 0 .3-.1.5-.1.9 0 1.6.7 1.6 1.6s-.8 1.7-1.7 1.7-1.7-.8-1.7-1.7.1-.7.4-1.2l1.5-2.5h.7l-1.4 2.1zm-.7 1.5c0 .6.5 1.1 1.1 1.1s1.1-.5 1.1-1.1-.5-1.1-1.1-1.1-1.1.5-1.1 1.1zM113.3 259.8c0 .2-.2.4-.4.4s-.4-.2-.4-.4.2-.4.4-.4.4.2.4.4zM114.2 259v-.5l2.8-3.7v3.6h.6v.6h-.6v1.2h-.6V259h-2.1zm2.1-2.6l-1.5 2h1.5v-2zM121.7 256.5v.5c.3-.4.6-.6 1-.6s.8.2 1 .7c.3-.5.6-.7 1.2-.7s.7.1.9.4c.2.2.2.4.2 1v2.4h-.6V258c0-.4 0-.6-.1-.7-.1-.2-.4-.3-.6-.3-.5 0-.8.4-.8 1v2.2h-.6V258c0-.4 0-.5-.1-.7-.1-.2-.3-.3-.6-.3-.5 0-.9.4-.9 1v2.2h-.6v-3.7h.6zM129.2 257.7v.4h-2l1.2-1.6c.3-.5.4-.6.4-.8 0-.3-.2-.4-.5-.4s-.5.2-.5.6h-.4c0-.6.4-1 1-1s1 .3 1 .8-.1.5-.4.9l-.8 1.1h1.1z"/></g><g><path d="M299.4 115.8c1.1 0 1.7.5 1.7 1.4s-.1.6-.3.9c-.1.2-.3.2-.5.3.3 0 .4.1.6.2.3.2.4.6.4 1s-.2.9-.6 1.2c-.3.2-.7.3-1.3.3h-1.5v-5.3h1.5zm-.8 2.4h.7c.4 0 .7 0 .9-.2.2-.2.3-.4.3-.7s-.2-.6-.4-.8c-.2 0-.4-.1-.9-.1h-.6v1.8zm0 2.4h.7c.6 0 .8 0 1-.2.3-.1.4-.4.4-.8 0-.6-.4-.9-1.2-.9h-.8v1.8zM305.2 117.4h.6v3.7h-.6v-.7c-.4.6-.8.8-1.3.8-1 0-1.7-.8-1.7-1.9s.7-1.9 1.8-1.9 1 .2 1.3.7v-.6zm-2.1.9c-.2.3-.3.6-.3 1 0 .8.5 1.4 1.2 1.4s1.3-.6 1.3-1.4-.5-1.4-1.2-1.4-.7.1-.9.4zM310 115.8h.6v5.3h-.6v-.6c-.4.5-.8.7-1.3.7-1 0-1.7-.8-1.7-1.9s.7-2 1.7-2 1 .2 1.3.6v-2.2zm-2.4 3.5c0 .8.5 1.4 1.2 1.4s1.2-.6 1.2-1.4-.5-1.4-1.2-1.4-1.2.6-1.2 1.4zM297.5 128.9v-.5l2.8-3.7v3.6h.6v.6h-.6v1.2h-.6v-1.2h-2.1zm2.1-2.6l-1.5 2h1.5v-2zM302.7 129.8c0 .2-.2.4-.4.4s-.4-.2-.4-.4.2-.4.4-.4.4.2.4.4zM306.7 129.5v.6h-3l1.9-2.7c.5-.8.7-1 .7-1.3 0-.5-.4-.8-.9-.8s-.7.2-.8.4v.6h-.6c0-1 .6-1.6 1.5-1.6s1.5.5 1.5 1.3-.2.8-.6 1.5l-1.4 2h1.9zM311.2 126.4v.5c.3-.4.6-.6 1-.6s.8.2 1 .7c.3-.5.6-.7 1.2-.7s.7.1.9.4c.2.2.2.4.2 1v2.4h-.6v-2.2c0-.4 0-.6-.1-.7-.1-.2-.4-.3-.6-.3-.5 0-.8.4-.8 1v2.2h-.6v-2.2c0-.4 0-.5-.1-.7-.1-.2-.3-.3-.6-.3-.5 0-.9.4-.9 1v2.2h-.6v-3.7h.6zM318.8 127.6v.4h-2l1.2-1.6c.3-.5.4-.6.4-.8 0-.3-.2-.4-.5-.4s-.5.2-.5.6h-.4c0-.6.4-1 1-1s1 .3 1 .8-.1.5-.4.9l-.8 1.1h1.1z"/></g><g><path d="M171.6 180h2.1v.6h-2.1v1.8h2.1v.6h-2.8v-5.3h2.8v.6h-2.1v1.8zM176.6 180.3c0-.4-.3-.6-.7-.6s-.7.2-.7.5.2.4.8.6c.5.1.7.2.9.4s.3.4.3.7c0 .6-.5 1.1-1.3 1.1s-1.3-.4-1.4-1.1h.6c0 .4.3.6.8.6s.7-.2.7-.5-.2-.5-.8-.6c-.8-.2-1.2-.6-1.2-1.1s.5-1.1 1.3-1.1 1.3.4 1.3 1.1h-.6zM180.2 180.3c0-.4-.3-.6-.7-.6s-.7.2-.7.5.2.4.8.6c.5.1.7.2.9.4s.3.4.3.7c0 .6-.5 1.1-1.3 1.1s-1.3-.4-1.4-1.1h.6c0 .4.3.6.8.6s.7-.2.7-.5-.2-.5-.8-.6c-.8-.2-1.2-.6-1.2-1.1s.5-1.1 1.3-1.1 1.3.4 1.3 1.1h-.6zM182.3 181.4c0 .3 0 .5.2.7.2.3.6.5 1 .5s.9-.2 1.1-.6l.5.2c-.3.6-.9 1-1.6 1-1.1 0-1.9-.8-1.9-1.9s.8-1.9 1.9-1.9 1.9.8 1.9 1.9v.2h-3.1zm2.4-.4c0-.3 0-.4-.2-.6-.2-.3-.6-.5-1-.5s-.8.2-1 .5c-.1.2-.2.3-.2.6h2.4zM187.1 179.3v.5c.3-.4.6-.6 1.1-.6s.6.1.9.3c.2.2.3.5.3 1v2.5h-.6v-2.4c0-.3 0-.5-.1-.6-.1-.2-.3-.2-.6-.2s-.5.1-.7.3c-.2.2-.2.4-.2.7v2.2h-.6v-3.7h.6zM171.2 188.4v-.6l1.8-1.2v5.4h-.6v-4.4l-1.2.8zM174.6 187.4v-.6h3l-2.1 5.3h-.7l1.9-4.7h-2zM178.8 191.7c0 .2-.2.4-.4.4s-.4-.2-.4-.4.2-.4.4-.4.4.2.4.4zM183.1 190.4c0 .6-.1 1-.4 1.2-.3.3-.7.4-1.2.4s-1-.2-1.2-.5c-.3-.3-.4-.6-.4-1.4v-1.8c0-.7 0-1 .3-1.3.3-.3.7-.5 1.2-.5s.9.1 1.2.4c.3.3.4.6.4 1.2v2.1zm-2.5-.1c0 .6 0 .7.2.9.2.2.5.3.8.3s.6-.1.8-.4c.1-.2.2-.4.2-.8v-2c0-.4 0-.6-.3-.8-.2-.2-.4-.2-.7-.2s-.6.1-.8.4c-.1.2-.2.4-.2.8v1.8zM186.4 188.3v.5c.3-.4.6-.6 1-.6s.8.2 1 .7c.3-.5.6-.7 1.2-.7s.7.1.9.4c.2.2.2.4.2 1v2.4h-.6v-2.2c0-.4 0-.6-.1-.7-.1-.2-.4-.3-.6-.3-.5 0-.8.4-.8 1v2.2h-.6v-2.2c0-.4 0-.5-.1-.7-.1-.2-.3-.3-.6-.3-.5 0-.9.4-.9 1v2.2h-.6v-3.7h.6zM194 189.5v.4h-2l1.2-1.6c.3-.5.4-.6.4-.8 0-.3-.2-.4-.5-.4s-.5.2-.5.6h-.4c0-.6.4-1 1-1s1 .3 1 .8-.1.5-.4.9l-.8 1.1h1.1z"/></g></g></svg>