<svg xmlns="http://www.w3.org/2000/svg" viewBox="0 0 441.1 440.3"><defs><style>.cls-1,.cls-10,.cls-11,.cls-12,.cls-13,.cls-14,.cls-15,.cls-16,.cls-17,.cls-18,.cls-19,.cls-2,.cls-3,.cls-4,.cls-5,.cls-6,.cls-7,.cls-8,.cls-9{fill:none;stroke-linecap:round;stroke-linejoin:round}.cls-1,.cls-10,.cls-11,.cls-12,.cls-13,.cls-14,.cls-15,.cls-16,.cls-18,.cls-19,.cls-2,.cls-3,.cls-4,.cls-5,.cls-6,.cls-8,.cls-9{stroke-width:.1px}.cls-1,.cls-13,.cls-16,.cls-17,.cls-18,.cls-3,.cls-4,.cls-8{stroke:#194164}.cls-1,.cls-8{stroke-dasharray:0 0 0 0 2.9 1.4 .2 1.4}.cls-2{stroke:#646464}.cls-10,.cls-11,.cls-12,.cls-13,.cls-15,.cls-18,.cls-19,.cls-3,.cls-4,.cls-5,.cls-6,.cls-9{stroke-dasharray:0 0 1.4 1.4}.cls-4{stroke-dashoffset:1px}.cls-5{stroke-dashoffset:2.5px}.cls-10,.cls-11,.cls-12,.cls-14,.cls-15,.cls-19,.cls-5,.cls-6,.cls-9{stroke:#969696}.cls-7{stroke:#000;stroke-width:.3px}.cls-8{stroke-dashoffset:1.9px}.cls-9{stroke-dashoffset:2.7px}.cls-10{stroke-dashoffset:2.6px}.cls-11{stroke-dashoffset:1.4px}.cls-12,.cls-18{stroke-dashoffset:.7px}.cls-20{fill:#fff}.cls-20,.cls-21{fill-rule:evenodd}.cls-13{stroke-dashoffset:.2px}.cls-15{stroke-dashoffset:1.3px}.cls-17{stroke-width:.3px}.cls-19{stroke-dashoffset:1.2px}</style></defs><g id="Plan"><path class="cls-17" d="M125 224.2l-29.9.4.5 39.6 29.8-.3-.4-39.7z"/><path class="cls-16" d="M93.4 215.6l35.3-.4M111.8 218.3l-14 .1M124.4 221.3l-13.7.1"/><path class="cls-20" d="M398.2 243.8l-.2 3.6h-.4l-.1-3.4.7-.2"/><path class="cls-20" d="M398.1 246.7l.1-2.2h-.8l.2 2.2h.5"/><path class="cls-16" d="M398.1 246.7h-.5M398 247.4h-.4"/><path class="cls-14" d="M398.2 244.5h-.8M398.1 246.7h-.5"/><path class="cls-16" d="M398.2 243.8l-.7.2M398.2 244.5h-.8"/><path class="cls-7" d="M398 247.4h-.4M398.2 243.8l-.7.2"/><path class="cls-20" d="M425.3 244l.1 3.6-.1-3.6M425.2 246.9l.1-2.1-.1 2.1"/><path class="cls-7" d="M425.3 244l.1 3.6"/><path class="cls-16" d="M422.7 243.9l.1 3.6M400.6 243.9l.1 3.6"/><path class="cls-7" d="M425.3 244v.8M398.2 243.8v.7M425.2 246.9l.2.7M398.1 246.7l-.1.7M425.3 244.8l-.1 2.1M398.2 244.5l-.1 2.2"/><path class="cls-14" d="M422.8 221.9c-12.1 0-22.1 9.9-22.2 22M422.7 243.9l.2-22.1"/><path class="cls-16" d="M339.4 236.4l57.9.2"/><path class="cls-7" d="M339.5 235.7l58.6.2"/><path class="cls-16" d="M339.4 237.9l56.6.3M339.4 236.4l57.9.2M339.5 235.7l58.6.2M339.4 237.9l56.6.3"/><path class="cls-7" d="M339.4 236.4l.1-.7"/><path class="cls-16" d="M339.4 237.9v-1.5M397.3 236.6l.1 10.1"/><path class="cls-7" d="M398.1 235.9l-.1 11.5"/><path class="cls-16" d="M396 238.2v7.2M397.3 236.6l.1 10.1M398.1 235.9l-.1 11.5M396 238.2v7.2M397.4 246.7l-57.9-.2"/><path class="cls-7" d="M398 247.4l-58.6-.1"/><path class="cls-16" d="M396 245.4l-56.7-.3M397.4 246.7l-57.9-.2"/><path class="cls-7" d="M339.5 246.5l-.1.8"/><path class="cls-16" d="M339.3 245.1l.2 1.4M398 247.4l-58.6-.1M396 245.4l-56.7-.3"/><path class="cls-20" d="M339.8 194.4l22.8.1-.1 41.3-22.8-.1.1-41.3"/><path class="cls-16" d="M339.8 194.4l22.8.1-.1 41.3-22.8-.1.1-41.3zM339.8 233.8h22.6"/><path class="cls-20" d="M372.3 220.7c-1.3-.9-3-.9-4.3 0-1.9 1.5-2.9 3.8-2.9 6.2l.2 9h9.6l.3-9c0-2.4-1-4.7-2.9-6.2"/><path class="cls-16" d="M372.3 220.7c-1.3-.9-3-.9-4.3 0-1.9 1.5-2.9 3.8-2.9 6.2l.2 9h9.6l.3-9c0-2.4-1-4.7-2.9-6.2"/><path class="cls-20" d="M370.1 230.8c1 0 2-.3 2.8-1 .7-.7 1.2-1.7 1.2-2.7 0-2.1-.9-4.1-2.5-5.4-.9-.6-2-.6-2.9 0-1.6 1.3-2.5 3.3-2.5 5.4 0 1 .4 2 1.2 2.7.7.7 1.7 1.1 2.8 1.1"/><path class="cls-16" d="M370.1 230.8c1 0 2-.3 2.8-1 .7-.7 1.2-1.7 1.2-2.7 0-2.1-.9-4.1-2.5-5.4-.9-.6-2-.6-2.9 0-1.6 1.3-2.5 3.3-2.5 5.4 0 1 .4 2 1.2 2.7.7.7 1.7 1.1 2.8 1.1"/><path class="cls-20" d="M394.9 236v-12-.4c0-.1-.1-.3-.2-.4-.1-.1-.2-.2-.4-.2H380.2c-.1 0-.3.1-.4.2-.1.1-.2.2-.2.4V236h15.6"/><path class="cls-16" d="M394.9 236v-12-.4c0-.1-.1-.3-.2-.4-.1-.1-.2-.2-.4-.2H380.2c-.1 0-.3.1-.4.2-.1.1-.2.2-.2.4V236h15.6"/><path class="cls-20" d="M205.4 239.7c1.3.8 3 .8 4.3 0 1.8-1.5 2.9-3.8 2.8-6.2l-.3-9h-9.6l-.2 9.1c0 2.4 1.1 4.7 2.9 6.2"/><path class="cls-16" d="M205.4 239.7c1.3.8 3 .8 4.3 0 1.8-1.5 2.9-3.8 2.8-6.2l-.3-9h-9.6l-.2 9.1c0 2.4 1.1 4.7 2.9 6.2"/><path class="cls-20" d="M207.5 229.6c-1 0-2 .4-2.8 1.1-.7.7-1.2 1.7-1.2 2.7 0 2.1.9 4.1 2.5 5.4.9.6 2 .6 2.9 0 1.6-1.3 2.5-3.3 2.5-5.4 0-1-.5-2-1.2-2.7-.8-.7-1.8-1.1-2.8-1"/><path class="cls-16" d="M207.5 229.6c-1 0-2 .4-2.8 1.1-.7.7-1.2 1.7-1.2 2.7 0 2.1.9 4.1 2.5 5.4.9.6 2 .6 2.9 0 1.6-1.3 2.5-3.3 2.5-5.4 0-1-.5-2-1.2-2.7-.8-.7-1.8-1.1-2.8-1"/><path class="cls-20" d="M145.1 225.4l.4 47.9v.2l.1.1v.1H145.9l20.4-.1h.1l.1-.1h.1v-.1h.1V273.1l-.4-47.9h.1l-.1-.1v-.1l-.1-.1h-.1l-.1-.1h-.1l-20.4.2h-.2l-.1.1v.1h-.1v.2"/><path class="cls-16" d="M145.1 225.4l.4 47.9v.2l.1.1v.1H145.9l20.4-.1h.1l.1-.1h.1v-.1h.1V273.1l-.4-47.9h.1l-.1-.1v-.1l-.1-.1h-.1l-.1-.1h-.1l-20.4.2h-.2l-.1.1v.1h-.1v.2"/><path class="cls-20" d="M147.3 230.6l.3 37.4c0 .4 0 .9.3 1.3.2.4.4.8.7 1.1.3.3.7.6 1.1.7.4.2.9.3 1.3.2h10.2c.2 0 .4-.1.7-.2.2 0 .4-.1.6-.2.2 0 .4-.2.6-.3.2-.1.4-.3.5-.4.2-.2.3-.3.4-.5l.3-.6c0-.2.1-.4.2-.6v-.7l-.3-37.4v-.7c0-.2-.1-.4-.2-.6 0-.2-.2-.4-.3-.6-.1-.2-.3-.4-.4-.5-.2-.2-.3-.3-.5-.4l-.6-.3c-.2 0-.4-.1-.6-.2H150.7c-.2 0-.4.1-.7.1-.2 0-.4.1-.6.2-.2 0-.4.2-.6.3-.2.1-.4.3-.5.4-.2.2-.3.3-.4.5l-.3.6c0 .2-.1.4-.2.6v.7"/><path class="cls-16" d="M147.3 230.6l.3 37.4c0 .4 0 .9.3 1.3.2.4.4.8.7 1.1.3.3.7.6 1.1.7.4.2.9.3 1.3.2h10.2c.2 0 .4-.1.7-.2.2 0 .4-.1.6-.2.2 0 .4-.2.6-.3.2-.1.4-.3.5-.4.2-.2.3-.3.4-.5l.3-.6c0-.2.1-.4.2-.6v-.7l-.3-37.4v-.7c0-.2-.1-.4-.2-.6 0-.2-.2-.4-.3-.6-.1-.2-.3-.4-.4-.5-.2-.2-.3-.3-.5-.4l-.6-.3c-.2 0-.4-.1-.6-.2H150.7c-.2 0-.4.1-.7.1-.2 0-.4.1-.6.2-.2 0-.4.2-.6.3-.2.1-.4.3-.5.4-.2.2-.3.3-.4.5l-.3.6c0 .2-.1.4-.2.6v.7M243.4 223.6l-49.5.2"/><path class="cls-7" d="M243.4 224.3l-50.2.2"/><path class="cls-16" d="M243.2 222.2l-47.8.3M243.4 223.6l-49.5.2M243.4 224.3l-50.2.2M243.2 222.2l-47.8.3"/><path class="cls-7" d="M243.4 223.6v.7"/><path class="cls-16" d="M243.2 222.2l.2 1.4M193.8 220l-18.2.2"/><path class="cls-7" d="M193.3 220.7l-17 .2"/><path class="cls-16" d="M195.3 218.6l-21.1.3M193.8 220l-18.2.2M193.3 220.7l-17 .2M195.3 218.6l-21.1.3M175.6 224l-30.7.3"/><path class="cls-7" d="M176.3 224.8l-31.4.3"/><path class="cls-16" d="M174 222.7l-29.3.2M175.6 224l-30.7.3"/><path class="cls-7" d="M144.9 224.3v.8"/><path class="cls-16" d="M144.7 222.9l.2 1.4M176.3 224.8l-31.4.3M174 222.7l-29.3.2"/><path class="cls-20" d="M177 224.7v12s.1.1.1.2v.2s0 .1.1.2c0 0 0 .1.1.2 0 0 .1 0 .2.1 0 0 .1 0 .2.1H191.4c.1-.1.3-.1.4-.2s.3-.1.4-.2c.1-.1.2-.2.2-.4v-12.4h-15.7"/><path class="cls-16" d="M177 224.7v12s.1.1.1.2v.2s0 .1.1.2c0 0 0 .1.1.2 0 0 .1 0 .2.1 0 0 .1 0 .2.1H191.4c.1-.1.3-.1.4-.2s.3-.1.4-.2c.1-.1.2-.2.2-.4v-12.4h-15.7"/><path class="cls-13" d="M193.4 224.5l-.1-3.8"/><path class="cls-4" d="M193.3 220.7l-17 .2"/><path class="cls-13" d="M176.3 220.9v3.9"/><path class="cls-16" d="M175.6 220.2v3.8"/><path class="cls-7" d="M176.3 220.9v3.9"/><path class="cls-16" d="M174.2 218.9l-.2 3.8M175.6 220.2v3.8M176.3 220.9v3.9M174.2 218.9l-.2 3.8M193.9 223.8l-.1-3.8"/><path class="cls-7" d="M193.2 224.5l.1-3.8"/><path class="cls-16" d="M195.4 222.5l-.1-3.9M193.9 223.8l-.1-3.8M193.2 224.5l.1-3.8M195.4 222.5l-.1-3.9"/><path class="cls-7" d="M193.2 224.5l-16.9.3"/><path class="cls-20" d="M1 218.1l5.5-5.6H1v5.6"/><path class="cls-14" d="M5 214.2l-1.6-1.6M3 216.2l-1.8-2M1.2 214.9l2.5-2.2"/><path class="cls-20" d="M1 218.1l5.5-5.6H1v5.6"/><path class="cls-14" d="M5 214.2l-1.6-1.6M3 216.2l-1.8-2M1.2 214.9l2.5-2.2"/><path class="cls-17" d="M1 212.5v5.6M1 212.5v5.6"/><path class="cls-20" d="M7.9 176.8l-.3-42.3-7.2-7 .3 49.2 7.2.1"/><path class="cls-14" d="M7.7 137.4l-7.1-7.8M7.7 141.7L.6 134M7.8 146.1l-7.1-8M7.8 150.1l-7.1-7.7M7.9 154.5l-7.4-7.8M7.9 158.6l-7.3-7.8M8 162.9l-7.4-7.8M7.8 167.2l-7.1-8M7.9 171.3l-7.1-7.8M7.9 175.6l-7.1-8M5.2 176.7l-4.3-4.8M1.4 176.8l-.7-.8M5 176.7l3-2.8M.7 176.7l7.2-6.6M.8 172.9l7.1-6.7M.8 169l7-6.4M.7 165.2l7.2-6.4M.6 161.4l7.3-6.5M.8 157.5l7-6.4M.7 153.7l7-6.4M.6 149.8l7-6.4M.6 146.2l7.2-6.6M.7 142.4l7-6.7M.7 138.5l5.7-5.2M.6 134.7l3.7-3.5M.5 130.8l1.8-1.6"/><path class="cls-20" d="M7.9 176.8l-.3-42.3-7.2-7 .3 49.2 7.2.1"/><path class="cls-14" d="M7.7 137.4l-7.1-7.8M7.7 141.7L.6 134M7.8 146.1l-7.1-8M7.8 150.1l-7.1-7.7M7.9 154.5l-7.4-7.8M7.9 158.6l-7.3-7.8M8 162.9l-7.4-7.8M7.8 167.2l-7.1-8M7.9 171.3l-7.1-7.8M7.9 175.6l-7.1-8M5.2 176.7l-4.3-4.8M1.4 176.8l-.7-.8M5 176.7l3-2.8M.7 176.7l7.2-6.6M.8 172.9l7.1-6.7M.8 169l7-6.4M.7 165.2l7.2-6.4M.6 161.4l7.3-6.5M.8 157.5l7-6.4M.7 153.7l7-6.4M.6 149.8l7-6.4M.6 146.2l7.2-6.6M.7 142.4l7-6.7M.7 138.5l5.7-5.2M.6 134.7l3.7-3.5M.5 130.8l1.8-1.6"/><path class="cls-17" d="M.4 127.5l.3 49.2M7.6 134.5l.3 42.3M7.6 134.5l.3 42.3M.4 127.5l.3 49.2"/><path class="cls-16" transform="rotate(-87.5 .971 178.098)" d="M-.4 177.2h2.6v1.7H-.4z"/><path class="cls-16" d="M2 206.6l.2 6-1.9-.1v-6l1.7.1z"/><path class="cls-16" d="M1.7 179.4l.3 27.2-1.7-.1-.3-27.2 1.7.1zM1.7 179.4l.3 27.2"/><path class="cls-1" d="M7.8 179l.2 27.8"/><path class="cls-16" d="M8 206.4v.4"/><path class="cls-20" d="M7.9 176.8l-.1 2.2-6-.1.1-2.1"/><path class="cls-14" d="M7.3 178.9l-2.1-2.2M3.4 179l-1.3-1.5M6.8 178.9l1.3-1.1M2.5 179l2.5-2.1"/><path class="cls-20" d="M8 212.4v-5.6H2l.2 5.8"/><path class="cls-14" d="M8.1 209.2l-2.3-2.5M7 212.3l-4.8-5.2M3.4 212.6l-1.1-1.2M3.7 212.7l4.5-4.2M2.3 210l3.3-3.3"/><path class="cls-17" d="M7.8 179l-6-.1M8 206.8H2M7.8 179l-6-.1M7.9 176.8l-.1 2.2M8 206.8H2M8 212.4v-5.6M.7 176.7l1.2.1M1 212.5l1.2.1M7.9 176.8l-.1 2.2M8 212.4v-5.6M1.8 178.9l.1-2.1M2 206.8l.2 5.8"/><path class="cls-16" d="M247.1 116.9l-93.2.7-.2-17.5 93.2-.8.2 17.6zM246.6 101.7l-.2-2.4M229.5 101.7l-.1-2.2M212.5 101.9l.1-2.4M195.4 101.9l.1-2.2M178.3 102.1l.1-2.2"/><path class="cls-20" d="M179.4 112.2v-8.9-.4c0-.1 0-.3.1-.4 0-.1.1-.2.2-.3 0-.1.2-.2.2-.3 0 0 .2-.2.3-.2.1 0 .2-.1.3-.2.1 0 .2 0 .4-.1h12.4c.2 0 .5.2.6.4.2.2.3.4.4.6.1.2.2.5.2.8v9.3c0 .1 0 .3-.1.4 0 .1-.1.2-.2.3 0 .1-.2.2-.2.3 0 0-.2.2-.3.2-.1 0-.2.1-.3.2-.1 0-.2 0-.4.1h-12c-.1 0-.3 0-.4-.1-.1 0-.2-.1-.3-.2-.1 0-.2-.2-.3-.2l-.3-.3c0-.1-.1-.2-.2-.3 0-.1 0-.2-.1-.4v-.4"/><path class="cls-16" d="M179.4 112.2v-8.9-.4c0-.1 0-.3.1-.4 0-.1.1-.2.2-.3 0-.1.2-.2.2-.3 0 0 .2-.2.3-.2.1 0 .2-.1.3-.2.1 0 .2 0 .4-.1h12.4c.2 0 .5.2.6.4.2.2.3.4.4.6.1.2.2.5.2.8v9.3c0 .1 0 .3-.1.4 0 .1-.1.2-.2.3 0 .1-.2.2-.2.3 0 0-.2.2-.3.2-.1 0-.2.1-.3.2-.1 0-.2 0-.4.1h-12c-.1 0-.3 0-.4-.1-.1 0-.2-.1-.3-.2-.1 0-.2-.2-.3-.2l-.3-.3c0-.1-.1-.2-.2-.3 0-.1 0-.2-.1-.4v-.4"/><path class="cls-20" d="M188 110.9c0-.7-.4-1.2-1-1.2s-1.1.5-1.1 1.2.4 1.2 1 1.2 1.1-.5 1.1-1.2"/><path class="cls-16" d="M188 110.9c0-.7-.4-1.2-1-1.2s-1.1.5-1.1 1.2.4 1.2 1 1.2 1.1-.5 1.1-1.2"/><path class="cls-20" d="M228.9 115.6h-15.8L213 101l15.8-.1.1 14.7"/><path class="cls-16" d="M228.9 115.6h-15.8L213 101l15.8-.1.1 14.7z"/><path class="cls-20" d="M227.9 105.8c0-1.5-1.2-2.8-2.8-2.9s-2.9 1.1-3 2.6 1.2 2.8 2.8 2.9 2.9-1.1 3-2.6"/><path class="cls-16" d="M227.9 105.8c0-1.5-1.2-2.8-2.8-2.9s-2.9 1.1-3 2.6 1.2 2.8 2.8 2.9 2.9-1.1 3-2.6"/><path class="cls-20" d="M228.3 112.4c0-1.2-.9-2.2-2.2-2.3s-2.3.9-2.4 2.1.9 2.2 2.2 2.3 2.3-.9 2.4-2.1"/><path class="cls-16" d="M228.3 112.4c0-1.2-.9-2.2-2.2-2.3s-2.3.9-2.4 2.1.9 2.2 2.2 2.3 2.3-.9 2.4-2.1"/><path class="cls-20" d="M219.7 105.8c0-1.2-.9-2.2-2.2-2.3s-2.3.9-2.4 2.1.9 2.2 2.2 2.3 2.3-.9 2.4-2.1"/><path class="cls-16" d="M219.7 105.8c0-1.2-.9-2.2-2.2-2.3s-2.3.9-2.4 2.1.9 2.2 2.2 2.3 2.3-.9 2.4-2.1"/><path class="cls-20" d="M220.6 112.2c0-1.5-1.2-2.8-2.8-2.9s-2.9 1.1-3 2.6 1.2 2.8 2.8 2.9 2.9-1.1 3-2.6"/><path class="cls-16" d="M220.6 112.2c0-1.5-1.2-2.8-2.8-2.9s-2.9 1.1-3 2.6 1.2 2.8 2.8 2.9 2.9-1.1 3-2.6"/><path class="cls-1" d="M119.2 107.7l127.9-.9"/><path class="cls-16" d="M247.3 140.9h-.5l-.2-17.1h.7v17.1zM246.6 123.8l-.1.7-15.1.1v-.7l15.2-.1z"/><path class="cls-16" d="M246.8 140.4v.5h-15.4v-.5h15.4zM246.6 116.8l.5.1.2 6.9h-.7v-7zM231.4 140.9h-.5l-.2-16.8.7-.2v17zM247.7 174.8h-.7v-16.9l.5.1.2 16.8zM247 157.9v.5l-15.4.1v-.5l15.4-.1zM247 174.3v.5l-15.2.3-.2-.8H247z"/><path class="cls-16" d="M247.7 174.8v.7l-18.5.2v-.8l18.5-.1zM247.5 158l-.5-.1-.2-17h.5l.2 17.1zM246.8 140.9v.5l-15.4.2v-.7h15.4zM246.8 157.2l.2.7-15.4.1v-.5l15.2-.3z"/><path class="cls-16" d="M231.6 158h-.5l-.2-17.1h.5l.2 17.1zM118.1 100.4l1-.2-.1.7h-.9v-.5zM153 100l.2.5-17.1.2v-.5l16.9-.2z"/><path class="cls-16" d="M153.2 100.5l-.8.2.1 15.2h.7v-15.4zM136.6 100.7h-.5l.1 15.4h.4v-15.4z"/><path class="cls-16" d="M153.7 100.1l.2 17.5h-.7L153 100l.7.1z"/><path class="cls-16" d="M153.2 115.9v.7h-17.1l.1-.5 17-.2zM136.1 100.2v.5l-17.1.2.1-.7h17z"/><path class="cls-16" d="M136.1 100.7h-.7l.3 15.4h.5l-.1-15.4zM119.5 101l-.5-.1.1 15.2h.7l-.3-15.1z"/><path class="cls-16" d="M136.2 116.1l-.1.5-17 .2v-.7h17.1zM161.5 102.3l-.1-2.4M229.4 158.9l15.6-.1.1 15.2h-15.6l-.1-15.1z"/><path class="cls-20" d="M338.9 193.4l.7.8 59.8.2-.1-3.6-59.8-.2-.5.7-.1 2.1"/><path class="cls-20" d="M339 191.3l-.1 2.1 60.5.3.1-2.2-60.5-.2"/><path class="cls-14" d="M340.4 191.3l-.1 2.2M341.9 191.4l-.1 2.1M343.3 191.2l-.1 2.2M344.8 191.3l-.1 2.1M346.2 191.3l-.1 2.2M347.4 191.4l.1 2.2M348.8 191.2l.2 2.2M350.3 191.3l.1 2.1M351.7 191.3l.2 2.2M353.2 191.4l-.1 2.2M354.6 191.2l-.1 2.2M356 191.3v2.1M357.5 191.3l-.1 2.2M358.9 191.4l-.1 2.2M360.4 191.5l-.1 1.9M361.6 191.3l.1 2.2M363 191.4l.2 2.1M364.5 191.4l.1 2.2M365.9 191.5l.1 2.1M367.3 191.3l-.1 2.2M368.8 191.4l-.1 2.1M370.2 191.4l-.1 2.2M371.7 191.5l-.1 2.1M373.1 191.3l-.1 2.2M374.5 191.4l-.1 2.1M375.7 191.4l.2 2.2M377.2 191.5l.1 2.2M378.6 191.3l.2 2.2M380.1 191.4l.1 2.1M381.5 191.4l-.1 2.2M382.9 191.5v2.2M384.4 191.6l-.1 2.1M385.8 191.4l-.1 2.1M387.3 191.4l-.1 2.2M388.7 191.5l-.1 2.2M389.9 191.6l.2 2.1M391.4 191.4l.1 2.2M392.8 191.5l.1 2.1M394.2 191.5l.2 2.2M395.7 191.6l-.1 2.1M397.1 191.4l-.1 2.2M398.6 191.5l-.1 2.1"/><path class="cls-16" d="M399.4 193.7l-60.5-.3M399.4 194.4l-59.8-.2"/><path class="cls-14" d="M399.5 191.5l-60.5-.2M399.4 193.7l-60.5-.3"/><path class="cls-16" d="M399.3 190.8l-59.8-.2M399.5 191.5l-60.5-.2"/><path class="cls-7" d="M399.4 194.4l-59.8-.2M399.3 190.8l-59.8-.2"/><path class="cls-20" d="M425.5 191l.1 3.3-.1-3.3M425.4 193.6l.1-1.9-.1 1.9"/><path class="cls-7" d="M425.5 191l.1 3.3"/><path class="cls-16" d="M423.8 190.9l.1 3.6M401.2 190.9l-.1 3.3"/><path class="cls-7" d="M425.5 191v.7M399.3 190.8l.2.7M425.4 193.6l.2.7M399.4 193.7v.7M425.5 191.7l-.1 1.9M399.5 191.5l-.1 2.2"/><path class="cls-14" d="M401.1 194.3c0 12.4 10.2 22.7 22.6 22.8M423.9 194.5l-.3 22.6"/><path class="cls-16" d="M117.8 118.4l128.8-.8"/><path class="cls-7" d="M117.8 117.7l128.8-.9"/><path class="cls-16" d="M117.7 119.9l128.8-.9M117.8 118.4l128.8-.8"/><path class="cls-7" d="M246.6 117.6v-.8"/><path class="cls-16" d="M246.5 119l.1-1.4M117.8 117.7l128.8-.9M117.7 119.9l128.8-.9"/><path class="cls-21" d="M246.3 46.7l.5-.2-.6-3.2-13 2.1 2.1 12.6 4.3-5.1 1.4-5.7 5.3-.5"/><path class="cls-20" d="M241 47.2l5.3-.5-.5-3.4-5.4 1 .6 2.9"/><path class="cls-20" d="M239.6 52.9l1.4-5.7-.6-2.9-2.1.3 1.3 8.3"/><path class="cls-14" d="M239.6 52.2h.2M239.4 50.9l.7-.2M239.2 49.5l1.5-.2M238.8 48l2.2-.3M238.6 46.6l2.5-.4M238.5 45.4l2.1-.4"/><path class="cls-20" d="M235.3 58l4.3-5.1-1.3-8.3-5.1.8 2.1 12.6"/><path class="cls-14" d="M234.7 53.9l2.1 2.2M233.8 48.5l5 5.5M234.6 45.2l4.6 5.3M238 44.6l.5.8"/><path class="cls-17" d="M245.8 43.3l.5 3.4"/><path class="cls-14" d="M238.3 44.6l1.3 8.3M240.4 44.3l.6 2.9"/><path class="cls-17" d="M233.2 45.4l2.1 12.6M238.3 44.6l1.3 8.3"/><path class="cls-16" d="M233.2 45.4l2.1 12.6"/><path class="cls-17" d="M246.2 43.1l.6 3.4"/><path class="cls-16" d="M227.3 14.7l5.1 30.6 5.7-1M239.6 0l7.3 43.2-6.5 1M234.2 6.5l6.2 37.8-2.1.3-6.2-35.8M234.7 10.6l-2.2.2M239.9 40.4l-2.4.4M234.6 23.8l2.4-.3M232.5 10.8l2.2-.2M235.4 27.7l2.2-.4M234.6 23.8l2.4-.3M237.5 40.8l2.4-.4M235.4 27.7l2.2-.4M238.3 44.6l2.1-.3"/><path class="cls-20" d="M233.2 45.4v-.3l4.8-.7.3.2"/><path class="cls-14" d="M234.4 45l.2.2M237.8 44.4l.2.2"/><path class="cls-17" d="M233.2 45.1l4.8-.7.3.2M233.2 45.4v-.3"/><path class="cls-14" d="M238.3 44.6l2.1-.3"/><path class="cls-17" d="M245.8 43.3h.4M233.2 45.1l4.8-.7.3.2M233.2 45.4v-.3"/><path class="cls-21" d="M430 374l9.7 9.5 1.1-340.1L426 58.1l-1.1 310.8h5.1v5.1"/><path class="cls-20" d="M436.2 380.2l3.5 3.3 1.1-340.1-3.5 3.5-1.1 333.3"/><path class="cls-14" d="M436.3 378.8l3.4 3.8M436.5 374.5l3.4 3.7M436.4 370.4l3.4 3.8M436.3 366.1l3.5 3.7M436.3 362l3.7 3.8M436.5 357.9l3.4 3.8M436.4 353.6l3.4 3.7M436.3 349.5l3.5 3.8M436.5 345.2l3.5 3.7M436.5 341.1l3.4 3.8M436.4 337l3.4 3.8M436.6 332.7l3.4 3.7M436.5 328.6l3.5 3.8M436.5 324.3l3.4 3.7M436.4 320.2l3.7 3.8M436.6 316.1l3.4 3.8M436.5 311.8l3.5 3.7M436.5 307.7l3.4 3.8M436.7 303.4l3.4 3.7M436.6 299.3l3.5 3.8M436.6 295l3.4 4M436.5 290.9l3.7 3.8M436.7 286.8l3.4 3.8M436.6 282.5l3.5 3.7M436.6 278.4l3.6 3.8M436.8 274.1l3.4 4M436.7 270l3.4 3.8M436.6 265.9l3.5 3.8M436.8 261.6l3.5 3.8M436.8 257.5l3.4 3.8M436.7 253.2l3.4 4M436.6 249.1l3.7 3.8M436.8 245l3.5 3.8M436.8 240.7l3.4 3.7M436.7 236.6l3.7 3.8M436.9 232.3l3.4 4M436.8 228.2l3.5 3.8M436.8 224.1l3.4 3.8M437 219.8l3.4 3.8M436.9 215.7l3.4 3.8M436.8 211.4l3.5 4M436.8 207.3l3.7 3.8M437 203.2l3.4 3.8M436.9 198.9l3.5 3.8M436.9 194.8l3.6 3.8M437 190.5l3.5 4M437 186.4l3.4 3.8M436.9 182.3l3.5 3.8M437.1 178l3.4 3.8M437 173.9l3.5 3.8M437 169.6l3.4 3.8M436.9 165.5l3.7 3.8M437.1 161.4l3.4 3.8M437.1 157.1l3.4 3.8M437 153l3.4 3.8M437.2 148.7l3.4 3.8M437.1 144.6l3.5 3.8M437.1 140.3l3.4 4M437.2 136.2l3.5 3.8M437.2 132.1l3.4 3.8M437.1 127.8l3.5 3.8M437.1 123.7l3.7 3.8M437.3 119.4l3.4 4M437.2 115.3l3.4 3.8M437.1 111.2l3.5 3.8M437.3 106.9l3.5 3.8M437.3 102.8l3.4 3.8M437.2 98.5l3.4 4M437.2 94.4l3.6 3.8M437.3 90.3l3.5 3.8M437.3 86l3.4 3.8M437.2 81.9l3.7 3.8M437.4 77.6l3.4 4M437.3 73.5l3.5 3.8M437.3 69.4l3.4 3.8M437.5 65.1l3.4 3.8M437.4 61l3.4 3.8M437.4 56.7l3.4 4M437.3 52.6l3.7 3.8M437.5 48.5l3.4 3.8M438.8 45.7l2.1 2.3M440.8 43.6l.2.3"/><path class="cls-20" d="M435.5 379.7l.7.5 1.1-333.3-.5.4-1.3 332.4"/><path class="cls-20" d="M430 374l5.5 5.7 1.3-332.4-5.8 5.8-1 320.9"/><path class="cls-14" d="M434.6 378.7l1-.2M433.2 377.2l2.4.1M431.8 375.7l3.9.2M430.4 374.5h5.3M430 373h5.6M430.1 371.6h5.5M430.2 370.1h5.5M430.2 368.7h5.5M430 367.2h5.6M430.1 365.8h5.5M430.2 364.4h5.5M430.2 363.2h5.5M430 361.7h5.8M430.1 360.3h5.5M430.2 358.8h5.5M430.2 357.4h5.6M430.1 356h5.7M430.1 354.5h5.5M430.2 353.1h5.5M430.2 351.6h5.6M430.3 350.2h5.5M430.1 349h5.5M430.2 347.5l5.5.1M430.2 346.1h5.6M430.3 344.7h5.5M430.1 343.2h5.6M430.2 341.8h5.5M430.3 340.3h5.5M430.3 338.9h5.5M430.1 337.5h5.8M430.2 336h5.5M430.3 334.8h5.5M430.3 333.4h5.5M430.1 331.9h5.8M430.2 330.5h5.5M430.3 329.1h5.5M430.3 327.6h5.6M430.2 326.2h5.7M430.2 324.7h5.5M430.3 323.3h5.5M430.3 321.9h5.6M430.4 320.4l5.5.3M430.2 319.2h5.5M430.3 317.8h5.5M430.3 316.3h5.6M430.4 314.9h5.5M430.2 313.4l5.8.1M430.3 312h5.5M430.4 310.6h5.5M430.4 309.1h5.5M430.2 307.7h5.8M430.3 306.2l5.5.3M430.4 305h5.5M430.4 303.6h5.5M430.2 302.1l5.8.1M430.3 300.7h5.5M430.4 299.3h5.5M430.4 297.8h5.6M430.3 296.4h5.7M430.3 294.9h5.5M430.4 293.5h5.5M430.4 292.1l5.6.2M430.3 290.9h5.7M430.3 289.4h5.8M430.4 288h5.5M430.4 286.5h5.6M430.5 285.1h5.5M430.3 283.7h5.8M430.4 282.2h5.5M430.5 280.8h5.5M430.5 279.3h5.5M430.3 277.9l5.8.2M430.4 276.7h5.5M430.5 275.3h5.5M430.5 273.8h5.5M430.3 272.4h5.8M430.4 270.9h5.5M430.5 269.5h5.5M430.5 268l5.6.1M430.4 266.6h5.7M430.4 265.2h5.8M430.5 263.7l5.5.3M430.5 262.5h5.6M430.4 261.1h5.7M430.4 259.6h5.8M430.5 258.2h5.5M430.5 256.8h5.6M430.6 255.3h5.5M430.4 253.9h5.8M430.5 252.4h5.5M430.6 251h5.5M430.6 249.6l5.5.2M430.4 248.3l5.8.1M430.5 246.9h5.8M430.6 245.5h5.5M430.6 244h5.5M430.4 242.6h5.8M430.5 241.1l5.8.1M430.6 239.7h5.5M430.6 238.3h5.6M430.5 236.8h5.7M430.5 235.4l5.8.2M430.6 234.2h5.5M430.6 232.7h5.6M430.5 231.3h5.7M430.5 229.9h5.8M430.6 228.4h5.5M430.6 227h5.6M430.7 225.5h5.5M430.5 224.1h5.8M430.6 222.6l5.8.1M430.7 221.2l5.5.3M430.7 220h5.5M430.5 218.6h5.8M430.6 217.1h5.8M430.7 215.7h5.5M430.7 214.2h5.5M430.5 212.8h5.8M430.6 211.4h5.8M430.7 209.9h5.5M430.7 208.5h5.6M430.6 207h5.7M430.6 205.8h5.8M430.7 204.4h5.5M430.7 203h5.6M430.6 201.5h5.7M430.6 200.1h5.8M430.7 198.6h5.7M430.7 197.2h5.6M430.8 195.8h5.5M430.6 194.3h5.8M430.7 192.9h5.8M430.7 191.7h5.6M430.8 190.2h5.5M430.6 188.8h5.8M430.7 187.3l5.8.1M430.8 185.9h5.5M430.8 184.5h5.5M430.6 183h5.8M430.7 181.6h5.8M430.8 180.1h5.5M430.8 178.7h5.6M430.6 177.5h5.8M430.7 176l5.8.1M430.8 174.6h5.7M430.8 173.2h5.6M430.7 171.7h5.7M430.7 170.3h5.8M430.8 168.8l5.7.1M430.8 167.4h5.6M430.9 166h5.5M430.7 164.5h5.8M430.8 163.3h5.7M430.8 161.9h5.6M430.9 160.4h5.5M430.7 159h5.8M430.8 157.6h5.8M430.9 156.1h5.7M430.9 154.7h5.5M430.7 153.2h5.8M430.8 151.8h5.8M430.9 150.4h5.7M430.9 149.2h5.5M430.7 147.7h5.8M430.8 146.3h5.8M430.9 144.8h5.7M430.9 143.4h5.6M430.8 141.9l5.7.1M430.8 140.5h5.8M430.9 139.1h5.7M430.9 137.6h5.6M431 136.2h5.5M430.8 135h5.8M430.9 133.5h5.7M430.9 132.1h5.8M431 130.7h5.5M430.8 129.2h5.8M430.9 127.8h5.8M431 126.3h5.7M431 124.9h5.5M430.8 123.4l5.8.1M430.9 122h5.8M431 120.6l5.7.2M431 119.4h5.5M430.8 117.9h5.8M430.9 116.5h5.8M431 115l5.7.1M431 113.6h5.6M430.9 112.2h5.7M430.9 110.7h5.8M431 109.3h5.7M431 107.8l5.8.1M430.9 106.4l5.7.2M430.9 105.2h5.8M431 103.8h5.7M431 102.3h5.8M431.1 100.9h5.5M430.9 99.4h5.8M431 98h5.8M431.1 96.5l5.7.1M431.1 95.1h5.5M430.9 93.7h5.8M431 92.2l5.8.3M431.1 91h5.7M431.1 89.6h5.5M430.9 88.1h5.8M431 86.7h5.8M431.1 85.3h5.7M431.1 83.8h5.8M431 82.4h5.7M431 80.9h5.8M431.1 79.5h5.7M431.1 78.1l5.8.2M431 76.8l5.7.1M431 75.4h5.8M431.1 74h5.7M431.1 72.5h5.8M431.2 71.1h5.5M431 69.6l5.8.1M431.1 68.2h5.8M431.2 66.8h5.7M431.2 65.3h5.5M431 63.9l5.8.2M431.1 62.7h5.8M431.2 61.2l5.7.1M431.2 59.8h5.8M431 58.4h5.8M431.1 56.9h5.8M431.2 55.5h5.7M431.2 54h5.8M431.5 52.6h5.3M433 51.2h3.9M434.3 49.8l2.6-.1M435.8 48.5h1.2"/><path class="cls-20" d="M424.9 368.9h5.1l1-315.8-5 5-1.1 310.8"/><path class="cls-14" d="M425 366.3l2.3 2.7M425 362.2l5 5.5M425.2 358.1l5 5.5M425.1 353.8l5 5.5M425 349.7l5.1 5.5M425.2 345.4l4.8 5.5M425.2 341.3l5 5.5M425.1 337.2l5.1 5.5M425.1 332.9l5 5.5M425.2 328.8l5.1 5.5M425.2 324.5l5 5.5M425.1 320.4l5.1 5.5M425.3 316.3l5.1 5.3M425.2 312l5.1 5.5M425.2 307.9l5 5.5M425.4 303.6l4.8 5.5M425.3 299.5l5.1 5.5M425.3 295.4l5 5.3M425.2 291.1l5 5.5M425.4 287l5 5.5M425.3 282.7l5.1 5.5M425.3 278.6l5 5.5M425.4 274.6l5.1 5.2M425.4 270.2l5 5.5M425.3 266.1l5.1 5.5M425.5 261.8l4.8 5.5M425.5 257.7l5 5.5M425.4 253.7l5 5.2M425.3 249.3l5.1 5.5M425.5 245.2l5.1 5.6M425.5 240.9l5 5.5M425.4 236.8l5.1 5.5M425.6 232.8l5 5.2M425.5 228.4l5.1 5.5M425.5 224.3l5 5.6M425.7 220l4.8 5.5M425.6 215.9l5 5.5M425.5 211.9l5.1 5.2M425.7 207.5l4.8 5.5M425.7 203.5l5 5.5M425.6 199.1l5.1 5.5M425.6 195l5 5.5M425.7 191l5.1 5.2M425.7 186.6l5 5.5M425.6 182.6l5.1 5.5M425.8 178.2l4.8 5.5M425.7 174.2l5.1 5.5M425.7 170.1l5 5.2M425.9 165.7l4.8 5.5M425.8 161.7l5.1 5.5M425.8 157.3l5 5.5M425.7 153.2l5 5.6M425.9 148.9l5 5.5M425.8 144.8l5.1 5.6M425.8 140.8l5 5.2M425.9 136.4l4.9 5.5M425.9 132.4l5 5.5M425.8 128l5.1 5.5M426 124l4.8 5.4M426 119.9l5 5.2M425.9 115.5l5 5.5M425.8 111.5l5.1 5.5M426 107.1l5.1 5.5M426 103.1l5 5.5M425.9 99l5.1 5.2M426.1 94.7l4.8 5.4M426 90.6l5.1 5.5M426 86.2l5 5.5M426.2 82.2l4.8 5.5M426.1 78.1l5 5.2M426 73.7l5.1 5.6M426 69.7l5 5.5M426.2 65.3l4.8 5.5M426.1 61.3l5.1 5.5M426.5 57.7l4.6 4.7M428.5 55.6l2.5 2.8M430.5 53.5l.7.8"/><path class="cls-17" d="M437.3 46.9l-1.1 333.3M440.8 43.4l-1.1 340.1"/><path class="cls-14" d="M431 53.1l-1 315.8M436.8 47.3l-1.3 332.4"/><path class="cls-17" d="M426 58.1l-1.1 310.8M431 53.1l-1 315.8"/><path class="cls-16" d="M440.8 43.4l-1.1 340.1M426 58.1l-1.1 310.8"/><path class="cls-14" d="M430 368.9v5.1"/><path class="cls-17" d="M430 368.9h-5.1"/><path class="cls-21" d="M112.7 373.6v-5.3l-.2 14.9h33.9l-.1-14.7-26.7-.2-6.9 5.3"/><path class="cls-20" d="M146.4 383.2l-.1-3.4h-33.7l-.1 3.4h33.9"/><path class="cls-14" d="M112.8 382.2l.9 1M114.3 379.9l3.2 3.2M118.2 379.8l3.2 3.3M122 379.7l3.2 3.5M125.8 379.9l3.3 3.3M129.7 379.8l3.2 3.3M133.5 379.8l3.2 3.5M137.4 379.9l3.2 3.3M141.2 379.9l3.2 3.2M145.1 379.8l1.3 1.5"/><path class="cls-20" d="M146.3 379.8v-.7h-33.9l.2.7h33.7M146.3 379.1v-5.5h-33.9v5.5h33.9"/><path class="cls-14" d="M113.4 373.6v5.5M114.8 373.7v5.5M116.3 373.5v5.5M117.7 373.5v5.6M119.2 373.6l-.1 5.5M120.6 373.7v5.5M122 373.5v5.5M123.5 373.6v5.5M124.9 373.6v5.5M126.4 373.7l-.3 5.5M127.6 373.5v5.5M129 373.6v5.5M130.4 373.6v5.5M131.9 373.7v5.5M133.3 373.5v5.5M134.8 373.6v5.5M136.2 373.6v5.6M137.6 373.7v5.5M139.1 373.5v5.5M140.5 373.6l-.2 5.5M141.7 373.6v5.6M143.2 373.7v5.5M144.6 373.5v5.5M146.1 373.6v5.5"/><path class="cls-20" d="M112.7 373.6v-5.3l-.3 5.3h.3"/><path class="cls-14" d="M112.8 370.2"/><path class="cls-20" d="M119.6 368.3l-6.9 5.3h33.6v-5.1l-26.7-.2"/><path class="cls-14" d="M146.5 368.6l-.2-.1M146.3 372.9l-3.9-4.3M143.2 373.7l-4.6-5.2M139.3 373.5l-4.6-5M135.5 373.6l-4.6-5.2M131.6 373.7l-4.5-5.3M127.8 373.5l-4.6-5.2M124 373.6l-4.6-5M120.1 373.6l-3-3.4M116.3 373.5l-1.4-1.5M142.7 373.7l3.8-3.7M138.4 373.5l5.5-5.1M134.3 373.5l5.5-5M130 373.6l5.5-5M125.9 373.7l5.5-5.3M121.6 373.5l5.7-5.1M117.5 373.5l5.5-5.3M113.1 373.6l2.3-1.8"/><path class="cls-17" d="M146.3 379.8h-33.7M146.4 383.2h-33.9"/><path class="cls-14" d="M112.7 373.6h-.3M146.3 373.6h-33.6M146.3 379.1h-33.9"/><path class="cls-17" d="M146.3 368.5l-26.7-.2M112.7 373.6h-.3M146.3 373.6h-33.6"/><path class="cls-16" d="M146.4 383.2h-33.9M146.3 368.5l-26.7-.2"/><path class="cls-21" d="M260.6 368.5l.1 14.9-73.5-.1-.1-14.9 73.5.1"/><path class="cls-20" d="M260.7 383.4l-.1-3.4-73.5-.1.1 3.4 73.5.1"/><path class="cls-14" d="M187.6 380l3 3.2M191.4 379.9l3 3.5M195.3 380.1l2.9 3.2M199.1 380l3 3.2M203 379.9l2.9 3.5M206.8 380.1l3 3.2M210.6 380l3 3.3M214.5 379.9l3.2 3.5M218.3 379.9l3.2 3.5M222.2 380l3.2 3.3M226 380l3.2 3.5M229.9 379.9l3.2 3.5M233.7 380l3.2 3.3M237.5 380l3.3 3.5M241.4 379.9l3.2 3.5M245.2 380.1l3.2 3.2M249.1 380l3.2 3.5M252.9 379.9l3.2 3.5M256.8 380.1l3.2 3.3M260.6 380h.2"/><path class="cls-20" d="M260.6 380v-.7l-73.5-.1v.7l73.5.1"/><path class="cls-20" d="M260.6 379.3v-5.5l-73.5-.1v5.5l73.5.1"/><path class="cls-14" d="M188.6 373.8v5.5M190 373.8v5.5M191.5 373.6v5.6M192.9 373.7v5.5M194.3 373.8v5.5M195.8 373.8v5.6M197.2 373.7l-.2 5.5M198.4 373.7v5.5M199.9 373.8v5.5M201.3 373.8v5.6M202.7 373.7v5.5M204.2 373.7v5.5M205.6 373.8v5.5M207.1 373.8v5.6M208.5 373.7v5.5M210 373.7v5.6M211.4 373.8l-.3 5.5M212.6 373.6v5.8M214 373.7v5.5M215.5 373.7v5.6M216.9 373.8v5.5M218.4 373.6v5.5M219.8 373.7v5.5M221.2 373.7v5.6M222.7 373.8v5.5M224.1 373.6v5.6M225.6 373.7v5.5M226.8 373.7v5.6M228.2 373.8v5.5M229.7 373.6v5.6M231.1 373.7v5.5M232.5 373.8v5.5M234 373.8v5.5M235.4 373.6v5.6M236.9 373.7v5.5M238.3 373.8v5.5M239.7 373.8v5.6M240.9 373.6v5.6M242.4 373.7v5.5M243.8 373.8v5.5M245.3 373.8v5.6M246.7 373.7v5.5M248.1 373.7v5.5M249.6 373.8v5.5M251 373.8v5.6M252.5 373.7v5.5M253.9 373.7v5.6M255.1 373.8v5.5M256.6 373.8v5.6M258 373.7v5.5M259.4 373.7v5.6"/><path class="cls-20" d="M260.6 373.8v-5.3l-73.5-.1v5.3l73.5.1"/><path class="cls-14" d="M260.7 371.6l-3-3M258.7 373.7l-4.8-5.3M254.9 373.8l-4.8-5.3M251 373.8l-4.8-5.2M247.2 373.7l-4.8-5.3M243.3 373.7l-4.8-5.2M239.5 373.8l-4.8-5.2M235.7 373.6l-4.9-5.2M231.8 373.7l-4.8-5.2M228 373.8l-4.8-5.3M224.1 373.6l-4.8-5.2M220.3 373.7l-4.8-5.3M216.4 373.8l-4.8-5.3M212.6 373.8l-4.8-5.5M208.8 373.7l-4.9-5.3M204.9 373.7l-4.8-5.2M201.1 373.8l-4.8-5.5M197.2 373.7l-4.8-5.3M193.4 373.7l-4.8-5.2M189.5 373.8l-2.3-2.5M259.9 373.7l.8-.6M255.6 373.8l5.2-4.6M251.5 373.9l5.8-5.3M247.2 373.7l5.7-5.3M243.1 373.7l5.8-5.2M239 373.8l5.8-5.3M234.7 373.8l5.7-5.2M230.6 373.7l5.8-5.3M226.3 373.7l5.7-5.3M222.2 373.8l5.8-5.3M217.9 373.8l5.7-5.2M213.8 373.7l5.8-5.3M209.5 373.7l5.7-5.3M205.4 373.8l5.7-5.3M201.3 373.8l5.8-5.2M197 373.6l5.7-5.2M192.9 373.7l5.8-5.3M188.6 373.8l5.7-5.3M187.2 371.1l3-2.8"/><path class="cls-17" d="M260.6 380l-73.5-.1M260.7 383.4l-73.5-.1"/><path class="cls-14" d="M260.6 373.8l-73.5-.1M260.6 379.3l-73.5-.1"/><path class="cls-17" d="M260.6 368.5l-73.5-.1M260.6 373.8l-73.5-.1"/><path class="cls-16" d="M260.7 383.4l-73.5-.1M260.6 368.5l-73.5-.1"/><path class="cls-21" d="M363.9 368.7l-.2 14.9-40.1-.1v-14.9l40.3.1"/><path class="cls-20" d="M363.7 383.6v-3.4l-40.2-.1.1 3.4 40.1.1"/><path class="cls-14" d="M323.7 381.6l1.6 2M326.2 380.2l3 3.3M330 380.2l3 3.2M333.9 380.1l2.9 3.5M337.7 380.3l3 3.2M341.6 380.2l2.9 3.2M345.4 380.1l3 3.5M349.2 380.3l3 3.2M353.1 380.2l3.2 3.3M356.9 380.1l3.2 3.5M360.8 380.3l2.9 3.3"/><path class="cls-20" d="M363.7 380.2v-.7l-40.1-.1-.1.7 40.2.1"/><path class="cls-20" d="M363.7 379.5V374l-40.1-.1v5.5l40.1.1"/><path class="cls-14" d="M324.8 373.9v5.6M326 374v5.5M327.4 373.8v5.5M328.9 373.9v5.5M330.3 373.9v5.6M331.7 374v5.5M333.2 373.8v5.5M334.6 373.9v5.5M336.1 373.9v5.6M337.5 374v5.5M339 373.8l-.1 5.6M340.1 373.9v5.5M341.6 374v5.5M343 374v5.5M344.5 373.8v5.6M345.9 373.9v5.5M347.4 374v5.5M348.8 374v5.5M350.2 373.8v5.6M351.7 373.9v5.5M353.1 374v5.5M354.3 374v5.6M355.8 373.8v5.6M357.2 373.9v5.5M358.6 374v5.5M360.1 374v5.6M361.5 373.9v5.5M363 373.9v5.5"/><path class="cls-20" d="M363.7 374l.2-5.3-40.3-.1v5.3l40.1.1"/><path class="cls-14" d="M364.1 371.1l-2.3-2.5M362.7 373.9l-4.8-5.2M358.9 374l-4.8-5.3M355 374.1l-4.8-5.5M351.2 373.9l-4.8-5.3M347.4 374l-4.9-5.3M343.5 374l-4.8-5.5M339.7 373.9l-4.8-5.3M335.8 373.9l-4.8-5.2M332 374l-4.8-5.5M328.1 373.8l-4.3-4.7M324.3 373.9l-.7-.7M360.3 374l3.8-3.4M356.2 373.9l5.8-5.3M351.9 373.9l5.8-5.3M347.8 374l5.8-5.3M343.5 374l5.8-5.2M339.4 373.9l5.8-5.3M335.3 373.9l5.8-5.3M331 374l5.8-5.3M326.9 373.8l5.8-5.3M323.6 372.9l4.8-4.3M323.8 369.1l.5-.5"/><path class="cls-17" d="M363.7 380.2l-40.2-.1M363.7 383.6l-40.1-.1"/><path class="cls-14" d="M363.7 374l-40.1-.1M363.7 379.5l-40.1-.1"/><path class="cls-17" d="M363.9 368.7l-40.3-.1M363.7 374l-40.1-.1"/><path class="cls-16" d="M363.7 383.6l-40.1-.1M363.9 368.7l-40.3-.1"/><path class="cls-21" d="M439.7 383.5L430 374v-5.1l-25.5-.1.1 14.9 35.1-.2"/><path class="cls-20" d="M404.6 383.7l35.1-.2-3.5-3.3-31.7-.1.1 3.6"/><path class="cls-14" d="M404.7 382l1.6 1.7M406.9 380.2l3.2 3.5M410.7 380.1l3.3 3.5M414.6 380l3.2 3.5M418.4 380.2l3.2 3.5M422.3 380.1l3.2 3.5M426.1 380.3l3.2 3.2M430 380.2l3.2 3.3M433.8 380.1l3.2 3.5"/><path class="cls-20" d="M404.5 380.1l31.7.1-.7-.5-31-.1v.5"/><path class="cls-20" d="M404.5 379.6l31 .1-5.5-5.7-25.5-.2v5.8"/><path class="cls-14" d="M405.5 373.9v5.7M406.9 373.9v5.8M408.4 373.7v5.8M409.8 373.8v5.8M411 373.9v5.7M412.5 373.9l-.1 5.8M413.9 374v5.5M415.3 373.8v5.8M416.8 373.9v5.7M418.2 373.9v5.8M419.7 374l-.1 5.8M421.1 373.8v5.8M422.5 373.9v5.7M424 373.9v5.8M425.2 374v5.8M426.6 374.1v5.5M428.1 373.9v5.7M429.5 373.9v5.8M430.9 375v4.8M432.3 376.2l.1 3.6M433.9 377.7l-.1 2M435.3 379.2v.5"/><path class="cls-20" d="M404.5 373.8l25.5.2v-5.1l-25.5-.1v5"/><path class="cls-14" d="M430.1 371.8l-2.8-3M428.1 373.9l-4.6-5M424.2 374l-4.6-5.1M420.4 374l-4.6-5.2M416.5 373.9l-4.5-5M412.7 373.9l-4.6-5.2M408.9 373.8l-4.2-4.5M405 373.8l-.5-.2M427.6 373.9l2.5-2.3M423.3 373.9l5.5-5M419.2 374l5.5-5.1M415.1 373.8l5.3-4.8M410.8 373.8l5.5-5M406.7 373.9l5.5-5M404.6 371.9l3.3-3.2"/><path class="cls-17" d="M436.2 380.2l-31.7-.1M439.7 383.5l-35.1.2"/><path class="cls-14" d="M430 374l-25.5-.2M435.5 379.7l-31-.1"/><path class="cls-17" d="M424.9 368.9l-20.4-.1M430 374l-25.5-.2"/><path class="cls-16" d="M439.7 383.5l-35.1.2M424.9 368.9l-20.4-.1"/><path class="cls-17" d="M430 368.9v5.1M430 368.9h-5.1"/><path class="cls-16" d="M185.4 375.8l-.1 7.4 3.3-.1.2 2h-44l.1-2 3.4.2-.2-7.5"/><path class="cls-1" d="M187.1 368.4l-40.8.1"/><path class="cls-16" d="M146.8 368.6l-.5-.1"/><path class="cls-17" d="M185.3 383.2l3.3-.1M148.3 383.3l-3.4-.2"/><path class="cls-16" d="M187.3 375.9l-40.9-.1-.1-2.2 40.8.1.2 2.2zM183.4 375.9l.1-2.4M150 375.9l.1-2.4M187.1 373.7l.2 2.2M168.9 373.6l-.1 2.2M183.5 373.5l-.1 2.4M164.8 373.7l-.1 2.1M168.9 373.6l-.1 2.2M150.1 373.5l-.1 2.4M164.8 373.7l-.1 2.1M146.3 373.6l.1 2.2"/><path class="cls-20" d="M187.2 379.3h-1.9v-3.4h1.9"/><path class="cls-14" d="M185.8 375.8l-.1 3.6M187.3 375.9l-.2 3.3M187.2 379.3h-1.9v-3.4h1.9"/><path class="cls-17" d="M187.1 373.7v-5.3"/><path class="cls-20" d="M187.2 383.3l-1.9-.1.1-3.3h1.7"/><path class="cls-14" d="M185.6 381.8l1.1 1.5"/><path class="cls-17" d="M187.2 383.3l-1.9-.1.1-3.3h1.7M185.4 379.9v-4.1"/><path class="cls-20" d="M146.4 379.2h1.8v-3.4h-1.8"/><path class="cls-14" d="M147.4 375.8l.1 3.4M146.4 379.2h1.8v-3.4h-1.8"/><path class="cls-17" d="M146.3 373.6v-5.1"/><path class="cls-20" d="M146.4 383.2l1.9.1-.1-3.6-1.9.1"/><path class="cls-14" d="M146.4 381.3l1.9 2"/><path class="cls-17" d="M146.4 383.2l1.9.1-.1-3.6-1.9.1M148.2 379.7l-.1-3.9"/><path class="cls-1" d="M323.6 368.6l-63-.1"/><path class="cls-16" d="M323.5 376l-63-.1.1-2.1 63 .1-.1 2.1zM319.9 376.1l-.2-2.4M264.4 375.9l-.2-2.2M323.6 373.9l-.1 2.1M304.6 373.8l-.1 2.1M319.7 373.7l.2 2.4M300.5 373.8l-.1 2.2M304.6 373.8l-.1 2.1M283.7 373.8l-.1 2.2M300.5 373.8l-.1 2.2M279.6 373.6l-.1 2.4M283.7 373.8l-.1 2.2M264.2 373.7l.2 2.2M279.6 373.6l-.1 2.4M260.6 373.8l-.1 2.1"/><path class="cls-17" d="M323.6 373.9v-5.3"/><path class="cls-16" d="M259 383.3l-.1 1.9"/><path class="cls-8" d="M258.9 385.2H325"/><path class="cls-16" d="M325 385.2v-.9"/><path class="cls-20" d="M323.5 379.5h-1.8v-3.4h1.8"/><path class="cls-14" d="M321.9 378.1v1.5M323.2 376l.1 3.4M323.5 379.5h-1.8v-3.4h1.8"/><path class="cls-20" d="M323.6 383.5l-1.9-.1-.1-3.4 1.9.1"/><path class="cls-14" d="M322.3 380.1l1.4 1.5"/><path class="cls-17" d="M323.6 383.5l-1.9-.1-.1-3.4 1.9.1M321.6 380l.2-4"/><path class="cls-20" d="M260.6 379.4h1.8V376h-1.8"/><path class="cls-14" d="M260.8 375.9l.1 3.4M262.2 376l.1 3.4M260.6 379.4h1.8V376h-1.8"/><path class="cls-17" d="M260.6 373.8v-5.3"/><path class="cls-20" d="M260.7 383.4l1.7-.2.1-3.3-1.9.1"/><path class="cls-14" d="M260.8 380l1.9 2"/><path class="cls-17" d="M260.7 383.4l1.7-.2.1-3.3-1.9.1M262.5 379.9V376"/><path class="cls-16" d="M402.8 376.1l-.1 7.5 3.6-.1-.1 1.9h-44l.1-1.9 3.4-.1-.2-7.2"/><path class="cls-1" d="M404.5 368.8l-40.6-.1"/><path class="cls-16" d="M364.4 368.7h-.5"/><path class="cls-17" d="M402.7 383.6l3.6-.1M365.7 383.4l-3.4.1"/><path class="cls-16" d="M404.7 376.2l-40.9-.1-.1-2.1 40.8-.2.2 2.4zM400.8 376.3l.1-2.4M367.4 376l.1-2.1M404.5 373.8l.2 2.4M386.3 374l-.1 2.1M400.9 373.9l-.1 2.4M382.2 373.8l-.1 2.4M386.3 374l-.1 2.1M367.5 373.9l-.1 2.1M382.2 373.8l-.1 2.4M363.7 374l.1 2.1"/><path class="cls-20" d="M404.6 379.6h-1.8v-3.4h1.8"/><path class="cls-14" d="M403.9 376.2l.1 3.4M404.6 379.6h-1.8v-3.4h1.8"/><path class="cls-17" d="M404.5 373.8v-5"/><path class="cls-20" d="M404.6 383.7l-1.9-.1.1-3.4 1.7-.1"/><path class="cls-14" d="M403.1 380.2l1.6 1.8"/><path class="cls-17" d="M404.6 383.7l-1.9-.1.1-3.4 1.7-.1M402.8 380.2v-4.1"/><path class="cls-20" d="M363.8 379.5h1.8v-3.4h-1.8"/><path class="cls-14" d="M364.3 376.1l.1 3.4M363.8 379.5h1.8v-3.4h-1.8"/><path class="cls-17" d="M363.7 374l.2-5.3"/><path class="cls-20" d="M363.7 383.6l2-.2-.1-3.4-1.9.2"/><path class="cls-14" d="M363.7 383.6h.3M364.6 380.2l1.2 1.3"/><path class="cls-17" d="M363.7 383.6l2-.2-.1-3.4-1.9.2M365.6 380l-.1-3.8"/><path class="cls-21" d="M426 58.1l14.8-14.7-36.3.1.1 14.7 21.4-.1"/><path class="cls-20" d="M437.3 46.9l3.5-3.5-36.3.1.1 3.4h32.7"/><path class="cls-14" d="M404.7 46.4l.4.5M406 43.6l3 3.2M409.8 43.5l3 3.5M413.7 43.4l2.9 3.5M417.5 43.6l3 3.2M421.4 43.5l2.9 3.3M425.2 43.4l3 3.5M429.1 43.4l2.9 3.5M432.9 43.5l3 3.3M436.7 43.5l2.1 2.2M440.6 43.4l.2.2"/><path class="cls-20" d="M436.8 47.3l.5-.4h-32.7v.4h32.2M431 53.1l5.8-5.8h-32.2v5.8H431"/><path class="cls-14" d="M435.8 48.5l-.2-1.2M434.3 49.8l.1-2.6M432.8 51.5l.2-4.1M431.5 52.8v-5.5M430.1 53v-5.7M428.6 53v-5.6M427.2 53.1v-5.7M425.7 53.1l.1-5.8M424.3 53v-5.8M422.9 53.2v-5.8M421.4 53.1v-5.7M420.2 53.1v-5.8M418.8 53v-5.8M417.3 53.2v-5.8M415.9 53.1v-5.7M414.5 53.1v-5.8M413 53v-5.8M411.6 53.2v-5.8M410.1 53.1v-5.8M408.7 53.1v-5.8M407.2 53.2l.1-5.7M406 53.2l.1-5.8"/><path class="cls-20" d="M426 58.1l5-5h-26.4v5.1l21.4-.1"/><path class="cls-14" d="M404.8 54.8l3.2 3.3M407 53.2l4.8 5M410.8 53.1l4.9 5.1M414.7 53.1l4.8 5M418.5 53l4.9 5.3M422.4 53.2l4.1 4.5M426.2 53.1l2.3 2.5M430.1 53l.4.5"/><path class="cls-17" d="M404.6 46.9h32.7M404.5 43.5l36.3-.1"/><path class="cls-14" d="M404.6 53.1H431M404.6 47.3h32.2"/><path class="cls-17" d="M404.6 58.2l21.4-.1M404.6 53.1H431"/><path class="cls-16" d="M404.5 43.5l36.3-.1M404.6 58.2l21.4-.1"/><path class="cls-21" d="M312.6 58l-.1-14.7 51.4.1-.1 14.7-51.2-.1"/><path class="cls-20" d="M312.5 43.3l.1 3.4 51.2.1.1-3.4-51.4-.1"/><path class="cls-14" d="M312.6 46.7h.3M313.5 43.4l3.2 3.2M317.3 43.3l3.3 3.5M321.2 43.2l3.2 3.5M325 43.4l3.3 3.3M328.9 43.3l3.2 3.5M332.7 43.2l3.2 3.6M336.6 43.4l3.2 3.3M340.4 43.3l3.2 3.5M344.3 43.3l3.2 3.5M348.3 43.4l3 3.3M352.2 43.4l2.9 3.5M356 43.3l3 3.5M359.9 43.5l2.9 3.2M363.7 43.4l.5.5"/><path class="cls-20" d="M312.6 46.7v.5h51.2v-.4l-51.2-.1M312.6 47.2v5.7l51.2.1v-5.8h-51.2"/><path class="cls-14" d="M363.5 53v-5.8M362.1 52.9v-5.7M360.6 53.1l.1-5.7M359.2 53.1v-5.8M357.8 53v-5.8M356.3 52.9v-5.7M354.9 53.1v-5.8M353.4 53v-5.7M352 53v-5.8M350.6 52.9v-5.7M349.4 53.1v-5.8M347.9 53v-5.7M346.5 53v-5.8M345 52.9v-5.8M343.6 53.1v-5.8M342.1 53l.1-5.7M340.7 53v-5.8M339.3 52.9v-5.8M337.8 53.1v-5.8M336.4 53v-5.7M335.2 53v-5.8M333.7 52.9l.1-5.8M332.3 53.1v-5.8M330.9 53v-5.7M329.4 53v-5.8M328 52.9v-5.8M326.5 53.1v-5.8M325.1 53v-5.8M323.7 52.9v-5.7M322.2 52.9v-5.8M321 53.1v-5.8M319.6 53v-5.8M318.1 52.9v-5.7M316.7 52.9v-5.8M315.2 53.1l.1-5.8M313.8 53v-5.8"/><path class="cls-20" d="M312.6 52.9V58l51.2.1V53l-51.2-.1"/><path class="cls-14" d="M312.7 55.1l2.8 3M314.8 53l4.5 5M318.6 53l4.6 5M322.5 52.9l4.5 5M326.3 53.1l4.6 5M330.1 53l4.6 5M334 52.9l4.6 5M337.8 53.1l4.6 5M341.7 53l4.6 5M345.5 52.9l4.6 5M349.4 53.1l4.5 5M353.2 53l4.6 5M357 53l4.6 5M360.9 53.1l3 3.3"/><path class="cls-17" d="M312.6 46.7l51.2.1M312.5 43.3l51.4.1"/><path class="cls-14" d="M312.6 52.9l51.2.1M312.6 47.2h51.2"/><path class="cls-17" d="M312.6 58l51.2.1M312.6 52.9l51.2.1"/><path class="cls-16" d="M312.5 43.3l51.4.1M312.6 58l51.2.1"/><path class="cls-21" d="M241 47.2l-1.4 5.7-4.3 5.1 36.5-.1-.1-14.7-31.5-.1.6 3.3 5.5.3-5.3.5"/><path class="cls-20" d="M271.7 43.2l-31.5-.1.6 3.3 31 .2-.1-3.4"/><path class="cls-14" d="M240.5 43.3l3 3.3M244.1 43l3.2 3.5M247.9 43.1l3.2 3.3M251.8 43.1l3.2 3.5M255.6 43.2l3.2 3.3M259.7 43.2l3 3.2M263.5 43.1l3 3.5M267.4 43.3l3 3.2M271.2 43.2l.7.8"/><path class="cls-20" d="M271.8 46.6l-25.5.1-5.3.5 30.8-.1v-.5"/><path class="cls-20" d="M271.8 47.1l-30.8.1-1.4 5.7 32.2-.1v-5.7"/><path class="cls-14" d="M271.3 52.8v-5.7M269.8 52.8l.1-5.8M268.4 52.9v-5.7M267 52.9v-5.8M265.5 52.8V47M264.3 52.8l-.2-5.6M262.9 52.9v-5.7M261.4 52.9v-5.8M260 52.8V47M258.6 52.7v-5.5M257.1 52.9v-5.7M255.7 52.9v-5.8M254.2 52.8V47M252.8 53v-5.8M251.3 52.9l.1-5.8M250.1 52.9l.1-5.8M248.7 52.8v-5.5M247.3 53v-5.8M245.8 52.9v-5.8M244.4 52.8v-5.7M242.9 52.8v-5.5M241.5 53v-5.8M240.1 52.9v-1.7"/><path class="cls-20" d="M271.8 52.8l-32.2.1-4.3 5.1 36.5-.1v-5.1"/><path class="cls-14" d="M236.8 56.1l1.8 1.8M238.8 54l3.7 4M241.5 53l4.8 5M245.3 52.9l4.9 5M249.2 52.8l4.6 5M253 53l4.6 5M256.9 52.9l4.6 5M260.7 52.8l4.6 5M264.6 52.8l4.5 5.2M268.4 52.9l3.4 3.8"/><path class="cls-17" d="M246.3 46.7l25.5-.1M246.2 43.1l25.5.1"/><path class="cls-14" d="M239.6 52.9l32.2-.1M241 47.2l30.8-.1"/><path class="cls-17" d="M235.3 58l36.5-.1M239.6 52.9l32.2-.1"/><path class="cls-16" d="M246.2 43.1l25.5.1M235.3 58l36.5-.1"/><path class="cls-17" d="M240.2 43.1h6M240.2 43.1l.6 3.3M240.8 46.4l5.5.3"/><path class="cls-16" d="M273.6 50.5v-7.2l-3.3-.1-.2-2 44 .3-.1 1.7h-3.4l.2 7.5"/><path class="cls-1" d="M271.8 57.9l40.8.1"/><path class="cls-16" d="M312.1 58h.5"/><path class="cls-17" d="M273.6 43.3l-3.3-.1M310.6 43.2h3.4"/><path class="cls-16" d="M271.6 50.7l40.9-.2.1 2.4-40.8-.1-.2-2.1zM275.5 50.6l-.1 2.2M308.9 50.6l-.1 2.2M271.8 52.8l-.2-2.1M290 52.9l.1-2.4M275.4 52.8l.1-2.2M294.1 52.9l.1-2.2M290 52.9l.1-2.4M308.8 52.8l.1-2.2M294.1 52.9l.1-2.2M312.6 52.9l-.1-2.4"/><path class="cls-20" d="M271.7 47.2h1.8v3.4h-1.8"/><path class="cls-14" d="M272.8 50.5l-.1-3.4M271.7 47.2h1.8v3.4h-1.8"/><path class="cls-17" d="M271.8 52.8v5.1"/><path class="cls-20" d="M271.7 43.2l1.9.1-.1 3.4-1.7-.1"/><path class="cls-14" d="M271.9 44l1.8 2"/><path class="cls-17" d="M271.7 43.2l1.9.1-.1 3.4-1.7-.1M273.5 46.7l.1 3.8"/><path class="cls-20" d="M312.5 47.2h-1.8v3.4h1.8"/><path class="cls-14" d="M312.5 50.5l-.1-3.3M311 50.7l-.1-3.4M312.5 47.2h-1.8v3.4h1.8"/><path class="cls-17" d="M312.6 52.9V58"/><path class="cls-20" d="M312.5 43.3l-1.9-.1.1 3.4 1.9.1"/><path class="cls-14" d="M310.8 44.5l1.8 2.2"/><path class="cls-17" d="M312.5 43.3l-1.9-.1.1 3.4 1.9.1M310.7 46.6l.1 4.1"/><path class="cls-16" d="M365.6 50.7v-7.5l-3.3.1.1-1.9 43.9.3-.1 1.6-3.3.1-.1 7.5"/><path class="cls-1" d="M363.8 58.1l40.8.1"/><path class="cls-16" d="M404.1 58.1l.5.1"/><path class="cls-17" d="M365.6 43.2l-3.3.1M402.9 43.4l3.3-.1"/><path class="cls-16" d="M363.9 50.6l40.8.1-.1 2.4-40.8-.1.1-2.4zM367.5 50.8l.1 2.1M400.9 50.8l.1 2.2M363.8 53l.1-2.4M382.3 53.1l-.2-2.4M367.6 52.9l-.1-2.1M386.3 53l-.1-2.4M382.3 53.1l-.2-2.4M401 53l-.1-2.2M386.3 53l-.1-2.4M404.6 53.1l.1-2.4"/><path class="cls-20" d="M363.8 47.3h1.9v3.4h-1.9"/><path class="cls-14" d="M364.8 50.7l-.1-3.4M363.8 47.3h1.9v3.4h-1.9"/><path class="cls-17" d="M363.8 53v5.1"/><path class="cls-20" d="M363.9 43.4l1.7-.2.1 3.7-1.9-.1"/><path class="cls-14" d="M364.2 43.9l1.6 2"/><path class="cls-17" d="M363.9 43.4l1.7-.2.1 3.7-1.9-.1M365.7 46.9l-.1 3.8"/><path class="cls-20" d="M404.6 47.4h-1.8v3.4h1.8"/><path class="cls-14" d="M404.5 50.7l.1-3.4M403 50.9l.2-3.6M404.6 47.4h-1.8v3.4h1.8"/><path class="cls-17" d="M404.6 53.1v5.1"/><path class="cls-20" d="M404.5 43.5l-1.6-.1-.2 3.4 1.9.1"/><path class="cls-14" d="M403.1 44.4l1.6 2"/><path class="cls-17" d="M404.5 43.5l-1.6-.1-.2 3.4 1.9.1M402.7 46.8l.1 4.1"/><path class="cls-16" d="M109.8 14.8l117.5-.1M109.8.2L239.6 0M232.2 8.9H109.8m0-2.1h124.3M115 6.8l.1 2.2M228.9 6.5l-.1 2.4M135.8 8.9l-.2-2.1M115.1 9l-.1-2.2M139.9 8.9l-.2-2.2M135.8 8.9l-.2-2.1M158.6 9l-.1-2.4M139.9 8.9l-.2-2.2M162.7 8.9l-.1-2.1M158.6 9l-.1-2.4M181.4 9l-.1-2.4M162.7 8.9l-.1-2.1M185.5 9l-.1-2.5M181.4 9l-.1-2.4M204.3 8.8l-.2-2.2M185.5 9l-.1-2.5M208.3 9l-.1-2.4M204.3 8.8l-.2-2.2M228.8 8.9l.1-2.4M208.3 9l-.1-2.4"/><path class="cls-20" d="M119 278.9h-7l.7 94.7 6.9-5.3-.6-89.4"/><path class="cls-14" d="M119.1 280.2l-1.1-1.3M119.2 284.2l-5-5.2M119.3 288.6l-7.1-7.8M119.1 292.6l-6.9-7.5M119.1 297l-6.8-7.8M119.2 301.3l-6.9-7.7M119.2 305.4l-7.1-7.5M119.3 309.7l-7.1-7.7M119.4 313.8l-7.2-7.5M119.4 318.1l-7.1-7.7M119.5 322.5l-7.1-7.8M119.5 326.5l-7.1-7.5M119.6 330.9l-7.1-7.8M119.4 334.9l-6.9-7.5M119.4 339.3l-6.8-7.8M119.5 343.6l-6.9-7.8M119.6 347.7l-7.2-7.5M119.6 352l-7.1-7.8M119.7 356.1l-7.1-7.5M119.7 360.4l-7.1-7.7M119.8 364.7l-7.1-7.7M119.4 368.6l-6.7-7.5M117.1 370.2l-4.3-4.8M114.9 372l-2.1-2.3M115.4 371.8l4.3-4.2M112.8 370.2l7-6.4M112.7 366.4l7-6.5M112.7 362.5l7-6.4M112.6 358.7l7-6.5M112.8 354.8l6.7-6.4M112.7 351l6.7-6.2M112.6 347.1l7-6.1M112.5 343.5l7-6.4M112.5 339.7l7-6.4M112.6 335.8l6.8-6.4M112.6 332l6.7-6.4M112.5 328.2l7-6.5M112.4 324.3l7-6.4M112.3 320.5l7-6.5M112.3 316.6l7-6.2M112.4 312.8l6.8-6.2M112.4 308.9l7-6.2M112.3 305.3l7-6.4M112.2 301.5l7-6.4M112.1 297.6l7-6.4M112.3 293.8l6.8-6.4M112.2 289.9l6.8-6.4M112.2 286.1l7-6.4M112.1 282.3l3.7-3.5"/><path class="cls-20" d="M119 278.9h-7l.7 94.7 6.9-5.3-.6-89.4"/><path class="cls-14" d="M119.1 280.2l-1.1-1.3M119.2 284.2l-5-5.2M119.3 288.6l-7.1-7.8M119.1 292.6l-6.9-7.5M119.1 297l-6.8-7.8M119.2 301.3l-6.9-7.7M119.2 305.4l-7.1-7.5M119.3 309.7l-7.1-7.7M119.4 313.8l-7.2-7.5M119.4 318.1l-7.1-7.7M119.5 322.5l-7.1-7.8M119.5 326.5l-7.1-7.5M119.6 330.9l-7.1-7.8M119.4 334.9l-6.9-7.5M119.4 339.3l-6.8-7.8M119.5 343.6l-6.9-7.8M119.6 347.7l-7.2-7.5M119.6 352l-7.1-7.8M119.7 356.1l-7.1-7.5M119.7 360.4l-7.1-7.7M119.8 364.7l-7.1-7.7M119.4 368.6l-6.7-7.5M117.1 370.2l-4.3-4.8M114.9 372l-2.1-2.3M115.4 371.8l4.3-4.2M112.8 370.2l7-6.4M112.7 366.4l7-6.5M112.7 362.5l7-6.4M112.6 358.7l7-6.5M112.8 354.8l6.7-6.4M112.7 351l6.7-6.2M112.6 347.1l7-6.1M112.5 343.5l7-6.4M112.5 339.7l7-6.4M112.6 335.8l6.8-6.4M112.6 332l6.7-6.4M112.5 328.2l7-6.5M112.4 324.3l7-6.4M112.3 320.5l7-6.5M112.3 316.6l7-6.2M112.4 312.8l6.8-6.2M112.4 308.9l7-6.2M112.3 305.3l7-6.4M112.2 301.5l7-6.4M112.1 297.6l7-6.4M112.3 293.8l6.8-6.4M112.2 289.9l6.8-6.4M112.2 286.1l7-6.4M112.1 282.3l3.7-3.5"/><path class="cls-17" d="M119.6 368.3l-.6-89.4M112.7 368.3l-.7-89.4M112.7 368.3l-.7-89.4M119.6 368.3l-.6-89.4M112.7 373.6v-5.3"/><path class="cls-20" d="M85.8 279.2l6.8-7.4-.4-61.5-7.1 7.1.7 61.8"/><path class="cls-14" d="M92.3 213.2l-1.4-1.5M92.3 217.2l-3.4-3.5M92.4 221.6l-5.5-6M92.5 225.7l-7.1-7.8M92.5 230l-7.1-7.8M92.6 234.3l-7.1-7.7M92.4 238.4l-6.9-7.8M92.4 242.7l-7.1-7.7M92.5 246.8l-7.1-7.5M92.5 251.1l-7.1-7.7M92.6 255.5l-7.1-7.8M92.7 259.5l-7.2-7.5M92.7 263.9l-7.1-7.8M92.8 268l-7.1-7.6M92.6 272l-6.9-7.2M90.6 274.1l-4.8-5.2M88.6 276.2l-2.8-3M86.8 278.3l-.9-.8M86 275.6l6.7-6.2M85.9 271.7l6.7-6.2M85.8 267.9l6.8-6.2M85.7 264.3l7-6.4M85.7 260.4l7-6.4M85.6 256.6l7-6.4M85.8 252.8l6.7-6.5M85.7 248.9l6.7-6.2M85.6 245.1l7-6.2M85.5 241.5l7-6.5M85.5 237.6l7-6.4M85.4 233.8l7-6.5M85.3 229.9l7-6.4M85.2 226.1l7-6.5M85.4 222.2l7-6.4M85.3 218.4l7-6.4"/><path class="cls-20" d="M85.8 279.2l6.8-7.4-.4-61.5-7.1 7.1.7 61.8"/><path class="cls-14" d="M92.3 213.2l-1.4-1.5M92.3 217.2l-3.4-3.5M92.4 221.6l-5.5-6M92.5 225.7l-7.1-7.8M92.5 230l-7.1-7.8M92.6 234.3l-7.1-7.7M92.4 238.4l-6.9-7.8M92.4 242.7l-7.1-7.7M92.5 246.8l-7.1-7.5M92.5 251.1l-7.1-7.7M92.6 255.5l-7.1-7.8M92.7 259.5l-7.2-7.5M92.7 263.9l-7.1-7.8M92.8 268l-7.1-7.6M92.6 272l-6.9-7.2M90.6 274.1l-4.8-5.2M88.6 276.2l-2.8-3M86.8 278.3l-.9-.8M86 275.6l6.7-6.2M85.9 271.7l6.7-6.2M85.8 267.9l6.8-6.2M85.7 264.3l7-6.4M85.7 260.4l7-6.4M85.6 256.6l7-6.4M85.8 252.8l6.7-6.5M85.7 248.9l6.7-6.2M85.6 245.1l7-6.2M85.5 241.5l7-6.5M85.5 237.6l7-6.4M85.4 233.8l7-6.5M85.3 229.9l7-6.4M85.2 226.1l7-6.5M85.4 222.2l7-6.4M85.3 218.4l7-6.4"/><path class="cls-17" d="M85.1 217.4l.7 61.8M92.4 217l.2 54.8M92.4 217l.2 54.8M85.1 217.4l.7 61.8"/><path class="cls-20" d="M145.2 278.7l-7.2-7.3-45.4.4-6.8 7.4 59.4-.5"/><path class="cls-14" d="M144.7 278.6l-6.7-7.2M140.8 278.7l-6.6-7.3M137 278.8l-6.7-7.3M133.4 278.9l-6.7-7.3M129.5 278.7l-6.6-7.3M125.7 278.8l-6.7-7.3M121.8 278.8l-6.6-7.2M118 278.9l-6.6-7.3M114.2 279l-6.7-7.3M110.3 279.1l-6.6-7.3M106.7 278.9l-6.9-7.3M102.9 279l-6.7-7.3M99 279l-6.4-7M95.2 279.1l-4.6-5M91.3 279.2l-2.7-3M87.5 279.3l-.7-1M141.3 278.7l2-2.1M137 278.8l4.5-4.2M132.7 278.8l6.7-6.2M128.6 278.9l8-7.6M124.2 278.9l8.3-7.5M120.2 279l8-7.6M115.8 278.8l8.1-7.3M111.5 278.9l8.3-7.4M107.4 278.9l8-7.3M103.1 279l8-7.4M98.8 279l8.2-7.3M94.7 279.1l8-7.3M90.4 279.1l8-7.3M86.3 279.2l8-7.3"/><path class="cls-20" d="M145.2 278.7l-7.2-7.3-45.4.4-6.8 7.4 59.4-.5"/><path class="cls-14" d="M144.7 278.6l-6.7-7.2M140.8 278.7l-6.6-7.3M137 278.8l-6.7-7.3M133.4 278.9l-6.7-7.3M129.5 278.7l-6.6-7.3M125.7 278.8l-6.7-7.3M121.8 278.8l-6.6-7.2M118 278.9l-6.6-7.3M114.2 279l-6.7-7.3M110.3 279.1l-6.6-7.3M106.7 278.9l-6.9-7.3M102.9 279l-6.7-7.3M99 279l-6.4-7M95.2 279.1l-4.6-5M91.3 279.2l-2.7-3M87.5 279.3l-.7-1M141.3 278.7l2-2.1M137 278.8l4.5-4.2M132.7 278.8l6.7-6.2M128.6 278.9l8-7.6M124.2 278.9l8.3-7.5M120.2 279l8-7.6M115.8 278.8l8.1-7.3M111.5 278.9l8.3-7.4M107.4 278.9l8-7.3M103.1 279l8-7.4M98.8 279l8.2-7.3M94.7 279.1l8-7.3M90.4 279.1l8-7.3M86.3 279.2l8-7.3"/><path class="cls-17" d="M119 278.9l26.2-.2M85.8 279.2l26.2-.3M92.6 271.8l45.4-.4M92.6 271.8l45.4-.4M119 278.9l26.2-.2M85.8 279.2l26.2-.3"/><path class="cls-20" d="M144.7 217.1l-7.1-7 .4 61.3 7.2 7.3-.5-61.6"/><path class="cls-14" d="M144.8 220l-7.1-7.7M144.9 224.3l-7.1-7.7M144.9 228.4l-7.1-7.7M145 232.8l-7.1-7.8M145.1 237.1l-7.1-8M145.1 241.2l-7.3-7.8M144.9 245.5l-7.1-7.8M145 249.6l-7.1-7.8M145 253.9l-7.1-7.8M145.1 258.2l-7.1-8M145.1 262.3l-7.1-7.7M145.2 266.6l-7.1-7.7M145.3 270.7l-7.1-7.7M145.3 275.1l-7.1-7.8M143.3 276.6l2-1.5M141.5 274.6l3.7-3.4M139.4 272.6l5.8-5.2M138.1 269.9l7-6.4M138 266.1l7.3-6.4M138.2 262.5l7-6.7M138.1 258.6l7-6.4M138 254.8l7-6.4M138 251l7-6.5M137.9 247.1l7-6.4M138.1 243.3l7-6.5M138 239.4l7-6.4M137.9 235.6l7-6.4M137.8 231.7l7-6.4M137.8 227.9l7-6.4M137.7 224.3l7.2-6.7M137.8 220.4l5.3-5M137.8 216.6l3.2-3.2M137.7 212.7l1.5-1.3"/><path class="cls-20" d="M144.7 217.1l-7.1-7 .4 61.3 7.2 7.3-.5-61.6"/><path class="cls-14" d="M144.8 220l-7.1-7.7M144.9 224.3l-7.1-7.7M144.9 228.4l-7.1-7.7M145 232.8l-7.1-7.8M145.1 237.1l-7.1-8M145.1 241.2l-7.3-7.8M144.9 245.5l-7.1-7.8M145 249.6l-7.1-7.8M145 253.9l-7.1-7.8M145.1 258.2l-7.1-8M145.1 262.3l-7.1-7.7M145.2 266.6l-7.1-7.7M145.3 270.7l-7.1-7.7M145.3 275.1l-7.1-7.8M143.3 276.6l2-1.5M141.5 274.6l3.7-3.4M139.4 272.6l5.8-5.2M138.1 269.9l7-6.4M138 266.1l7.3-6.4M138.2 262.5l7-6.7M138.1 258.6l7-6.4M138 254.8l7-6.4M138 251l7-6.5M137.9 247.1l7-6.4M138.1 243.3l7-6.5M138 239.4l7-6.4M137.9 235.6l7-6.4M137.8 231.7l7-6.4M137.8 227.9l7-6.4M137.7 224.3l7.2-6.7M137.8 220.4l5.3-5M137.8 216.6l3.2-3.2M137.7 212.7l1.5-1.3"/><path class="cls-17" d="M145.1 273.8l-.4-56.7M138 271.4l-.2-54.8M138 271.4l-.2-54.8M145.1 273.8l-.4-56.7"/><path class="cls-20" d="M137.8 216.6l-.2-6.5-9.6.1-.1 6.4h9.9"/><path class="cls-14" d="M137.7 212.3l-2-2.3M137.8 216.6l-6-6.5M133.9 216.7l-5.7-6.5M130.1 216.7l-2.1-2.5M137.8 216.6v-.2M133.5 216.6l4.2-3.9M129.4 216.7l7-6.7M128.1 213.8l4-3.7"/><path class="cls-20" d="M137.8 216.6l-.2-6.5-9.6.1-.1 6.4h9.9"/><path class="cls-14" d="M137.7 212.3l-2-2.3M137.8 216.6l-6-6.5M133.9 216.7l-5.7-6.5M130.1 216.7l-2.1-2.5M137.8 216.6v-.2M133.5 216.6l4.2-3.9M129.4 216.7l7-6.7M128.1 213.8l4-3.7"/><path class="cls-17" d="M127.9 216.6h9.9M128 210.2l9.6-.1M128 210.2l9.6-.1M127.9 216.6h9.9"/><path class="cls-16" d="M95.3 215.7l29.6-.4"/><path class="cls-1" d="M95.3 210.4l29.6-.4"/><path class="cls-16" d="M124.4 210h.5"/><path class="cls-20" d="M92.2 210.3l3.1.1v5.3l-3.1-.1"/><path class="cls-14" d="M95.4 212.3l-1.8-2M94.6 215.7l-2.3-2.5M92.7 215.6l2.7-2.5M92.3 212l1.8-1.6"/><path class="cls-20" d="M128 210.2l-3.1-.2v5.3l3.1.1"/><path class="cls-14" d="M128 214.2l-3-3.2M125.1 215.3l-.2-.2M126.5 215.4l1.6-1.6M125 212.9l3-2.7"/><path class="cls-17" d="M95.3 210.4v5.3M124.9 210v5.3M95.3 210.4v5.3M92.2 210.3l3.1.1M124.9 210v5.3M128 210.2l-3.1-.2M92.4 217l-.2-1.4M127.9 216.6l.1-1.2M92.2 210.3l3.1.1M128 210.2l-3.1-.2M95.3 215.7l-3.1-.1M124.9 215.3l3.1.1"/><path class="cls-20" d="M221.2 132.8l7-7.2L.4 127.5l7.2 7 213.6-1.7"/><path class="cls-14" d="M228 126.1l-.5-.5M226 128.2l-2.3-2.5M224 130l-4.2-4.2M221.9 132.1l-5.9-6.3M218.8 132.9l-6.4-7.2M214.9 132.8l-6.4-7.1M211.1 132.8l-6.4-7M207.3 132.9l-6.5-7M203.4 133l-6.4-7M199.6 133l-6.5-7M195.7 132.9l-6.4-7M191.9 133l-6.4-7.1M188.3 133l-6.7-7M184.4 133.1l-6.4-7M180.6 133.2l-6.4-7M176.7 133.3l-6.4-7.3M172.9 133.1l-6.4-7M169 133.2l-6.4-7.1M165.2 133.2l-6.4-7M161.4 133.3l-6.5-7M157.7 133.4l-6.6-7M153.9 133.5l-6.4-7.3M150.1 133.3l-6.5-7M146.2 133.4l-6.4-7M142.4 133.4l-6.5-7M138.5 133.5l-6.4-7M134.7 133.6l-6.4-7M130.8 133.4l-6.4-7M127 133.5l-6.4-7M123.4 133.6l-6.7-7.1M119.5 133.6l-6.4-7M115.7 133.7l-6.4-7M111.8 133.8l-6.4-7.3M108 133.6l-6.4-7M104.2 133.7l-6.5-7M100.3 133.8l-6.4-7M96.5 133.8l-6.5-7M92.9 133.9l-6.7-7M89 134l-6.4-7.3M85.2 133.8l-6.4-7M81.3 133.9l-6.4-7M77.5 134l-6.4-7M73.6 134l-6.4-7M69.8 134.1l-6.4-7.2M66 133.9l-6.5-7M62.1 134l-6.4-7M58.5 134.1l-6.7-7M54.7 134.2l-6.5-7M50.8 134.2l-6.4-7M47 134.3l-6.5-7.2M43.1 134.1l-6.4-7M39.3 134.2l-6.4-7M35.4 134.3l-6.4-7M31.6 134.4l-6.4-7M28 134.4l-6.7-7M24.1 134.3l-6.4-7M20.3 134.3l-6.4-7M16.4 134.4l-6.4-7M12.6 134.5l-6.4-7M8.8 134.6l-6.5-7M220.7 132.8l5.8-5.3M216.6 132.8l7.8-7.1M212.3 132.9l7.8-7.1M208 132.9l7.7-7.1M203.9 133l7.7-7.1M199.6 133l7.7-7.1M195.2 133.1l8-7.3M191.1 133.2l7.8-7.4M186.8 133l7.8-7.1M182.7 133l7.8-7.1M178.4 133.1l7.8-7.1M174.1 133.1l8-7.1M170 133.2l7.8-7.1M165.7 133.2l7.7-7.1M161.6 133.3l7.8-7.1M157.3 133.4l7.7-7.1M152.9 133.4l7.8-7.1M148.9 133.5l7.7-7.4M144.5 133.5l7.8-7.3M140.2 133.3l8-7.1M136.1 133.4l7.8-7.1M131.8 133.5l7.8-7.2M127.7 133.5l7.8-7.1M123.4 133.6l7.7-7.1M119.1 133.6l8-7.1M115 133.7l7.7-7.1M110.6 133.7l7.8-7.1M106.6 133.8l7.7-7.1M102.2 133.8l7.8-7.3M97.9 133.9l8-7.3M93.8 133.7l7.8-7.1M89.5 133.8l7.8-7.1M85.2 133.8l8-7.1M81.1 133.9l7.7-7.1M76.8 133.9l7.7-7.1M72.7 134l7.7-7.1M68.4 134l7.7-7.1M64 134.1l8-7.1M59.9 134.2l7.8-7.2M55.6 134.2l7.8-7.3M51.5 134.3l7.8-7.4M47.2 134.1L55 127M42.9 134.1l8-7.1M38.8 134.2l7.8-7.1M34.5 134.2l7.7-7.1M30.1 134.3l8-7.1M26.1 134.4l7.7-7.1M21.7 134.4l7.8-7.1M17.6 134.5l7.8-7.1M13.3 134.5l7.8-7.1M9 134.6l8-7.4M6.4 133.3l6.3-6M4.3 131.2l4-3.9M2.3 129.2l2-1.8"/><path class="cls-20" d="M221.2 132.8l7-7.2L.4 127.5l7.2 7 213.6-1.7"/><path class="cls-14" d="M228 126.1l-.5-.5M226 128.2l-2.3-2.5M224 130l-4.2-4.2M221.9 132.1l-5.9-6.3M218.8 132.9l-6.4-7.2M214.9 132.8l-6.4-7.1M211.1 132.8l-6.4-7M207.3 132.9l-6.5-7M203.4 133l-6.4-7M199.6 133l-6.5-7M195.7 132.9l-6.4-7M191.9 133l-6.4-7.1M188.3 133l-6.7-7M184.4 133.1l-6.4-7M180.6 133.2l-6.4-7M176.7 133.3l-6.4-7.3M172.9 133.1l-6.4-7M169 133.2l-6.4-7.1M165.2 133.2l-6.4-7M161.4 133.3l-6.5-7M157.7 133.4l-6.6-7M153.9 133.5l-6.4-7.3M150.1 133.3l-6.5-7M146.2 133.4l-6.4-7M142.4 133.4l-6.5-7M138.5 133.5l-6.4-7M134.7 133.6l-6.4-7M130.8 133.4l-6.4-7M127 133.5l-6.4-7M123.4 133.6l-6.7-7.1M119.5 133.6l-6.4-7M115.7 133.7l-6.4-7M111.8 133.8l-6.4-7.3M108 133.6l-6.4-7M104.2 133.7l-6.5-7M100.3 133.8l-6.4-7M96.5 133.8l-6.5-7M92.9 133.9l-6.7-7M89 134l-6.4-7.3M85.2 133.8l-6.4-7M81.3 133.9l-6.4-7M77.5 134l-6.4-7M73.6 134l-6.4-7M69.8 134.1l-6.4-7.2M66 133.9l-6.5-7M62.1 134l-6.4-7M58.5 134.1l-6.7-7M54.7 134.2l-6.5-7M50.8 134.2l-6.4-7M47 134.3l-6.5-7.2M43.1 134.1l-6.4-7M39.3 134.2l-6.4-7M35.4 134.3l-6.4-7M31.6 134.4l-6.4-7M28 134.4l-6.7-7M24.1 134.3l-6.4-7M20.3 134.3l-6.4-7M16.4 134.4l-6.4-7M12.6 134.5l-6.4-7M8.8 134.6l-6.5-7M220.7 132.8l5.8-5.3M216.6 132.8l7.8-7.1M212.3 132.9l7.8-7.1M208 132.9l7.7-7.1M203.9 133l7.7-7.1M199.6 133l7.7-7.1M195.2 133.1l8-7.3M191.1 133.2l7.8-7.4M186.8 133l7.8-7.1M182.7 133l7.8-7.1M178.4 133.1l7.8-7.1M174.1 133.1l8-7.1M170 133.2l7.8-7.1M165.7 133.2l7.7-7.1M161.6 133.3l7.8-7.1M157.3 133.4l7.7-7.1M152.9 133.4l7.8-7.1M148.9 133.5l7.7-7.4M144.5 133.5l7.8-7.3M140.2 133.3l8-7.1M136.1 133.4l7.8-7.1M131.8 133.5l7.8-7.2M127.7 133.5l7.8-7.1M123.4 133.6l7.7-7.1M119.1 133.6l8-7.1M115 133.7l7.7-7.1M110.6 133.7l7.8-7.1M106.6 133.8l7.7-7.1M102.2 133.8l7.8-7.3M97.9 133.9l8-7.3M93.8 133.7l7.8-7.1M89.5 133.8l7.8-7.1M85.2 133.8l8-7.1M81.1 133.9l7.7-7.1M76.8 133.9l7.7-7.1M72.7 134l7.7-7.1M68.4 134l7.7-7.1M64 134.1l8-7.1M59.9 134.2l7.8-7.2M55.6 134.2l7.8-7.3M51.5 134.3l7.8-7.4M47.2 134.1L55 127M42.9 134.1l8-7.1M38.8 134.2l7.8-7.1M34.5 134.2l7.7-7.1M30.1 134.3l8-7.1M26.1 134.4l7.7-7.1M21.7 134.4l7.8-7.1M17.6 134.5l7.8-7.1M13.3 134.5l7.8-7.1M9 134.6l8-7.4M6.4 133.3l6.3-6M4.3 131.2l4-3.9M2.3 129.2l2-1.8"/><path class="cls-17" d="M7.6 134.5l213.6-1.7M117.9 126.6l104.6-1M.4 127.5l110.3-1M117.9 126.6l104.6-1M7.6 134.5l213.6-1.7M.4 127.5l110.3-1"/><path class="cls-20" d="M228.2 125.6l-7 7.2.3 42.3 7.2-.2-.5-49.3"/><path class="cls-14" d="M228.4 126.6l-.4-.5M228.5 130.7l-2.5-2.5M228.5 135l-4.5-5M228.6 139.4l-6.7-7.3M228.4 143.4l-7.1-7.7M228.5 147.8l-7.1-7.8M228.5 152.1l-7.1-8M228.6 156.2l-7.1-7.8M228.6 160.5l-7.1-8M228.7 164.8l-7.1-8M228.7 168.9l-7.1-7.7M228.8 173.2l-7.3-8M226.6 175.1l-5.1-5.5M222.7 175.1l-1.1-1.5M225.1 175l3.8-3.4M221.5 174.4l7.3-6.7M221.7 170.5l7-6.6M221.6 166.7l7.1-6.7M221.6 162.8l7-6.4M221.5 159l7-6.4M221.4 155.1l7.3-6.4M221.3 151.3l7.3-6.4M221.5 147.5l7-6.5M221.4 143.8l7-6.6M221.4 140l7-6.7M221.3 136.2l7-6.5M226.5 127.5l2-1.6"/><path class="cls-20" d="M228.2 125.6l-7 7.2.3 42.3 7.2-.2-.5-49.3"/><path class="cls-14" d="M228.4 126.6l-.4-.5M228.5 130.7l-2.5-2.5M228.5 135l-4.5-5M228.6 139.4l-6.7-7.3M228.4 143.4l-7.1-7.7M228.5 147.8l-7.1-7.8M228.5 152.1l-7.1-8M228.6 156.2l-7.1-7.8M228.6 160.5l-7.1-8M228.7 164.8l-7.1-8M228.7 168.9l-7.1-7.7M228.8 173.2l-7.3-8M226.6 175.1l-5.1-5.5M222.7 175.1l-1.1-1.5M225.1 175l3.8-3.4M221.5 174.4l7.3-6.7M221.7 170.5l7-6.6M221.6 166.7l7.1-6.7M221.6 162.8l7-6.4M221.5 159l7-6.4M221.4 155.1l7.3-6.4M221.3 151.3l7.3-6.4M221.5 147.5l7-6.5M221.4 143.8l7-6.6M221.4 140l7-6.7M221.3 136.2l7-6.5M226.5 127.5l2-1.6"/><path class="cls-17" d="M228.7 174.9l-.5-49.3M221.5 175.1l-.3-42.3M221.5 175.1l-.3-42.3M228.7 174.9l-.5-49.3"/><path class="cls-20" d="M228.8 210.7h-5.5l5.5 5.8v-5.8"/><path class="cls-14" d="M229.1 211.2l-.5-.5M228.9 215.3l-4.1-4.5M227.5 215l1.5-1.4M225.6 213l2.5-2.3M223.5 211l.3-.3"/><path class="cls-20" d="M228.8 210.7h-5.5l5.5 5.8v-5.8"/><path class="cls-14" d="M229.1 211.2l-.5-.5M228.9 215.3l-4.1-4.5M227.5 215l1.5-1.4M225.6 213l2.5-2.3M223.5 211l.3-.3"/><path class="cls-16" d="M227.6 210.7l.1-5.8 1.6-.2.3 6h-2zM227.4 177.5l.1-2.4 1.7-.2-.1 2.7-1.7-.1z"/><path class="cls-16" d="M227.7 204.9l-.3-27.4 1.7.1.2 27.1-1.6.2zM227.7 204.9l-.3-27.4"/><path class="cls-1" d="M221.6 205.1l.1-27.8"/><path class="cls-16" d="M221.6 177.7l.1-.4"/><path class="cls-20" d="M221.9 210.9l-.3-5.8h6v5.6"/><path class="cls-14" d="M227.9 205.6l-.5-.5M227.7 209.9l-4.1-4.7M224.8 210.8l-3-3.3M223.8 210.7l4-3.6M222 208.7l3.7-3.6"/><path class="cls-20" d="M221.5 175.1l.2 2.2h5.7l.1-2.2"/><path class="cls-14" d="M227.7 176.1l-.9-1M224.8 177.1l-1.9-2M226.7 177.2l1-.6M222.6 177.3l2.3-2.3"/><path class="cls-17" d="M221.6 205.1h6M221.7 177.3h5.7M221.6 205.1h6M221.9 210.9l-.3-5.8M221.7 177.3h5.7M221.5 175.1l.2 2.2M228.8 210.7h-1.2M228.7 174.9l-1.2.2M221.9 210.9l-.3-5.8M221.5 175.1l.2 2.2M227.6 205.1v5.6M227.4 177.3l.1-2.2"/><path class="cls-14" d="M229.4 204.8c7.2 0 14.1-3 19.2-8.1s7.9-12.1 7.8-19.3M229.1 177.6l27.4-.3"/><path class="cls-20" d="M228.1 123.2l-5.5-5.5-.1 7.9h5.7l-.1-2.4"/><path class="cls-14" d="M227.5 125.6l-4.8-5.2M223.7 125.7l-1.2-1.3M224.4 125.7l3.2-3M222.6 123.5l3-2.8M222.7 119.4l.8-.7"/><path class="cls-20" d="M228.1 123.2l-5.5-5.5-.1 7.9h5.7l-.1-2.4"/><path class="cls-14" d="M227.5 125.6l-4.8-5.2M223.7 125.7l-1.2-1.3M224.4 125.7l3.2-3M222.6 123.5l3-2.8M222.7 119.4l.8-.7"/><path class="cls-17" d="M228.2 125.6l-.1-2.4M222.5 125.6l.1-7.9M222.5 125.6l.1-7.9M228.2 125.6l-.1-2.4"/><path class="cls-20" d="M109.8 9l.9 117.5 7.2.1-1.1-117.5-7-.1"/><path class="cls-14" d="M117 9.1h-.2M116.9 13.4L113 9.2M116.9 17.7L110 10M117 21.8l-6.9-7.5M117 26.1l-6.8-7.7M117.1 30.5l-7.1-7.8M117.1 34.6l-7.1-7.8M117.2 38.9l-7.1-7.8M117.3 43l-7.2-7.5M117.3 47.3l-7.1-7.8M117.4 51.6l-7.2-7.7M117.4 55.7l-7.1-7.7M117.5 60l-7.1-7.7M117.5 64.4l-7.1-7.8M117.6 68.4l-7.1-7.7M117.6 72.8l-7.3-7.8M117.7 77.1l-7.4-8M117.5 81.2l-7.1-7.8M117.6 85.5l-7.2-7.8M117.6 89.8l-7.1-8M117.7 93.9l-7.1-7.7M117.7 98.2l-7.1-8M117.8 102.3l-7.1-7.7M117.8 106.7l-7.1-7.8M117.9 111l-7.1-8M117.9 115.1l-7.3-7.8M118 119.4l-7.3-8M118 123.7l-7.3-8M117 126.6l-6.2-6.6M112.9 126.6l-2.1-2.5M114.3 126.7l3.8-3.5M110.8 125.8l7.2-6.4M110.9 122l7-6.5M110.8 118.1l7.1-6.4M110.8 114.5l7-6.6M110.7 110.7l7.2-6.7M110.6 106.8l7.3-6.6M110.5 103l7.3-6.4M110.7 99.1l7-6.4M110.6 95.3l7-6.4M110.6 91.4l7-6.4M110.5 87.6l7-6.4M110.4 83.8l7.3-6.5M110.6 80.2l7-6.7M110.5 76.3l7-6.4M110.4 72.5l7-6.5M110.4 68.6l7-6.4M110.3 64.8l7-6.5M110.5 60.9l7-6.4M110.4 57.1l7-6.4M110.3 53.2l7-6.4M110.2 49.4l7.1-6.4M110.2 45.8l7-6.4M110.1 41.9l7-6.4M110.3 38.1l6.7-6.4M110.2 34.3l7-6.5M110.1 30.4l7-6.4M110 26.6l7-6.5M110 22.7l7-6.4M110.1 18.9l6.8-6.2M110.1 15l6.5-5.9M110 11.2l2.5-2.1"/><path class="cls-20" d="M109.8 9l.9 117.5 7.2.1-1.1-117.5-7-.1"/><path class="cls-14" d="M117 9.1h-.2M116.9 13.4L113 9.2M116.9 17.7L110 10M117 21.8l-6.9-7.5M117 26.1l-6.8-7.7M117.1 30.5l-7.1-7.8M117.1 34.6l-7.1-7.8M117.2 38.9l-7.1-7.8M117.3 43l-7.2-7.5M117.3 47.3l-7.1-7.8M117.4 51.6l-7.2-7.7M117.4 55.7l-7.1-7.7M117.5 60l-7.1-7.7M117.5 64.4l-7.1-7.8M117.6 68.4l-7.1-7.7M117.6 72.8l-7.3-7.8M117.7 77.1l-7.4-8M117.5 81.2l-7.1-7.8M117.6 85.5l-7.2-7.8M117.6 89.8l-7.1-8M117.7 93.9l-7.1-7.7M117.7 98.2l-7.1-8M117.8 102.3l-7.1-7.7M117.8 106.7l-7.1-7.8M117.9 111l-7.1-8M117.9 115.1l-7.3-7.8M118 119.4l-7.3-8M118 123.7l-7.3-8M117 126.6l-6.2-6.6M112.9 126.6l-2.1-2.5M114.3 126.7l3.8-3.5M110.8 125.8l7.2-6.4M110.9 122l7-6.5M110.8 118.1l7.1-6.4M110.8 114.5l7-6.6M110.7 110.7l7.2-6.7M110.6 106.8l7.3-6.6M110.5 103l7.3-6.4M110.7 99.1l7-6.4M110.6 95.3l7-6.4M110.6 91.4l7-6.4M110.5 87.6l7-6.4M110.4 83.8l7.3-6.5M110.6 80.2l7-6.7M110.5 76.3l7-6.4M110.4 72.5l7-6.5M110.4 68.6l7-6.4M110.3 64.8l7-6.5M110.5 60.9l7-6.4M110.4 57.1l7-6.4M110.3 53.2l7-6.4M110.2 49.4l7.1-6.4M110.2 45.8l7-6.4M110.1 41.9l7-6.4M110.3 38.1l6.7-6.4M110.2 34.3l7-6.5M110.1 30.4l7-6.4M110 26.6l7-6.5M110 22.7l7-6.4M110.1 18.9l6.8-6.2M110.1 15l6.5-5.9M110 11.2l2.5-2.1"/><path class="cls-17" d="M117.9 126.6L116.8 9.1M110.7 126.5L109.8 9M116.8 9.1l-7-.1M110.7 126.5L109.8 9M117.9 126.6L116.8 9.1"/><path class="cls-20" d="M244.5 368.5l4.1-.1v.3l-4.1-.2"/><path class="cls-14" d="M247.2 368.6l.2-.2"/><path class="cls-20" d="M248.6 368.4l-4.1.1 4.1.2v-.3"/><path class="cls-14" d="M247.2 368.6l.2-.2"/><path class="cls-17" d="M248.6 368.4v.3M244.5 368.5l4.1.2M248.6 368.4v.3M244.5 368.5"/><path class="cls-20" d="M243.6 268.8l4.3-.1.7 73.8-4.4.1-.6-73.8"/><path class="cls-14" d="M243.8 270l1.2-1.2M243.9 273.8l4.2-3.9M243.7 277.9l4.5-3.9M243.7 282l4.5-3.9M243.8 286.1l4.3-3.9M243.9 290.2l4.2-3.9M243.9 294.3l4.3-4.2M244 298.1l4.3-3.9M244.1 302.2l4.2-3.9M244.1 306.3l4.3-3.9M244.2 310.4l4.2-3.9M244 314.4l4.5-3.9M244.1 318.5l4.2-4.1M244.1 322.4l4.3-3.9M244.2 326.5l4.3-3.9M244.3 330.5l4.2-3.9M244.3 334.6l4.3-3.9M244.4 338.7l4.2-3.9M244.5 342.6l4.2-3.9"/><path class="cls-20" d="M247.9 268.7l-4.3.1.6 73.8 4.4-.1-.7-73.8"/><path class="cls-14" d="M243.8 270l1.2-1.2M243.9 273.8l4.2-3.9M243.7 277.9l4.5-3.9M243.7 282l4.5-3.9M243.8 286.1l4.3-3.9M243.9 290.2l4.2-3.9M243.9 294.3l4.3-4.2M244 298.1l4.3-3.9M244.1 302.2l4.2-3.9M244.1 306.3l4.3-3.9M244.2 310.4l4.2-3.9M244 314.4l4.5-3.9M244.1 318.5l4.2-4.1M244.1 322.4l4.3-3.9M244.2 326.5l4.3-3.9M244.3 330.5l4.2-3.9M244.3 334.6l4.3-3.9M244.4 338.7l4.2-3.9M244.5 342.6l4.2-3.9"/><path class="cls-17" d="M243.7 277.9l.5 64.7M243.6 268.8l.1 4.1M247.9 268.7l.7 73.8M247.9 268.7l.7 73.8M243.7 277.9l.5 64.7M243.6 268.8l.1 4.1"/><path class="cls-20" d="M243.3 210.6h4l.3 32.9h-4.1l-.2-32.9"/><path class="cls-14" d="M243.4 213l2.7-2.5M243.5 217.1l4-3.6M243.5 221.2l4-3.7M243.6 225.3l4-3.7M243.4 229.4l4.2-3.7M243.5 233.5l4.2-3.9M243.5 237.5l4-3.9M243.6 241.4l4-3.7M245.9 243.4l1.8-1.6"/><path class="cls-20" d="M247.3 210.6h-4l.2 32.9h4.1l-.3-32.9"/><path class="cls-14" d="M243.4 213l2.7-2.5M243.5 217.1l4-3.6M243.5 221.2l4-3.7M243.6 225.3l4-3.7M243.4 229.4l4.2-3.7M243.5 233.5l4.2-3.9M243.5 237.5l4-3.9M243.6 241.4l4-3.7M245.9 243.4l1.8-1.6"/><path class="cls-17" d="M243.2 216.4l.3 27.1M247.3 210.6l.3 32.9M247.3 210.6l.3 32.9M243.2 216.4l.3 27.1M247.3 210.6h-4M243.3 210.6l-.1 5.8"/><path class="cls-1" d="M243.5 243.5l.1 25.3M247.6 243.5l.3 25.2"/><path class="cls-16" d="M243.4 244.7h4.4M243.7 267.3l4.3.2"/><path class="cls-17" d="M243.5 243.5h4.1M243.6 268.8l4.3-.1"/><path class="cls-14" d="M243.5 244.8c-6 0-11.8 2.5-16 6.8-4.2 4.3-6.6 10.1-6.5 16.1M243.7 267.3l-22.6.3"/><path class="cls-16" d="M244.2 344.2h4.3M244.4 366.8h4.3"/><path class="cls-17" d="M244.2 342.6l4.4-.1M244.5 368.5l4.1-.1"/><path class="cls-14" d="M221.6 344.3c0 12.4 10.4 22.6 22.9 22.5M244.2 344.2h-22.6"/><path class="cls-20" d="M243.7 277.9v-5l-98.6.9.1 4.9 98.5-.8"/><path class="cls-14" d="M145.3 274.6l.8-.7M145.2 278.7l5.2-4.9M149.7 278.6l5.3-4.8M154.3 278.6l5.2-4.8M158.6 278.5l5.5-4.8M163.2 278.5l5.2-4.8M167.7 278.4l5.3-4.8M172.1 278.4l5.5-4.8M176.6 278.3l5.3-4.8M181.2 278.3l5.3-4.8M185.5 278.3l5.5-4.9M190.1 278.2l5.5-4.8M194.7 278.2l5.2-4.8M199 278.4l5.5-5.1M203.5 278.3l5.6-5M208.1 278.3l5.3-5.1M212.4 278.2l5.5-5M217 278.2l5.5-5.1M221.3 278.1l5.8-5M225.9 278.1l5.5-5.1M230.5 278.1l5.5-5.1M234.8 278l5.7-5M239.4 278l4.5-4.2"/><path class="cls-20" d="M243.7 277.9v-5l-98.6.9.1 4.9 98.5-.8"/><path class="cls-14" d="M145.3 274.6l.8-.7M145.2 278.7l5.2-4.9M149.7 278.6l5.3-4.8M154.3 278.6l5.2-4.8M158.6 278.5l5.5-4.8M163.2 278.5l5.2-4.8M167.7 278.4l5.3-4.8M172.1 278.4l5.5-4.8M176.6 278.3l5.3-4.8M181.2 278.3l5.3-4.8M185.5 278.3l5.5-4.9M190.1 278.2l5.5-4.8M194.7 278.2l5.2-4.8M199 278.4l5.5-5.1M203.5 278.3l5.6-5M208.1 278.3l5.3-5.1M212.4 278.2l5.5-5M217 278.2l5.5-5.1M221.3 278.1l5.8-5M225.9 278.1l5.5-5.1M230.5 278.1l5.5-5.1M234.8 278l5.7-5M239.4 278l4.5-4.2"/><path class="cls-17" d="M145.2 278.7l98.5-.8M145.1 273.8l98.6-.9M145.1 273.8l98.6-.9M145.2 278.7l98.5-.8M145.2 278.7l-.1-4.9"/><path class="cls-20" d="M228.8 216.5l-7.1-7.1-84.1.7 7.1 7 84.1-.6"/><path class="cls-14" d="M226.2 216.6l-6.4-7.2M222.3 216.4l-6.4-7M218.5 216.5l-6.4-7M214.7 216.6l-6.5-7M210.8 216.7l-6.4-7.1M207.2 216.7l-6.7-7M203.4 216.6l-6.5-7M199.5 216.6l-6.4-7M195.7 216.7l-6.5-7M191.8 216.8l-6.4-7M188 216.9l-6.4-7M184.1 216.9l-6.4-7.2M180.3 216.8l-6.4-7M176.4 216.8l-6.4-7M172.8 216.9l-6.6-7M169 217l-6.4-7M165.1 217.1l-6.4-7M161.3 216.9l-6.4-7M157.5 217l-6.5-7M153.6 217l-6.4-7M149.8 217.1l-6.5-7M145.9 217.2l-6.4-7M225.9 216.6l1.6-1.6M221.6 216.6l3.8-3.6M217.5 216.5l6-5.5M213.2 216.5l7.8-7.1M208.9 216.6l8-7.1M204.8 216.6l7.8-7.1M200.5 216.7l7.7-7.1M196.4 216.7l7.7-7.1M192.1 216.8l7.7-7.1M187.7 216.8l8-7M183.6 216.9l7.8-7.1M179.3 217l7.8-7.4M175 217l8-7.3M170.9 216.8l7.8-7.1M166.6 216.9l7.7-7.1M162.5 216.9l7.8-7.1M158.2 217l7.7-7.1M153.9 217.1l7.9-7.1M149.8 217.1l7.7-7.1M145.4 217.2l7.8-7.1M143.1 215.4l6-5.3M141 213.4l3.8-3.5M139.2 211.4l1.5-1.4"/><path class="cls-20" d="M228.8 216.5l-7.1-7.1-84.1.7 7.1 7 84.1-.6"/><path class="cls-14" d="M226.2 216.6l-6.4-7.2M222.3 216.4l-6.4-7M218.5 216.5l-6.4-7M214.7 216.6l-6.5-7M210.8 216.7l-6.4-7.1M207.2 216.7l-6.7-7M203.4 216.6l-6.5-7M199.5 216.6l-6.4-7M195.7 216.7l-6.5-7M191.8 216.8l-6.4-7M188 216.9l-6.4-7M184.1 216.9l-6.4-7.2M180.3 216.8l-6.4-7M176.4 216.8l-6.4-7M172.8 216.9l-6.6-7M169 217l-6.4-7M165.1 217.1l-6.4-7M161.3 216.9l-6.4-7M157.5 217l-6.5-7M153.6 217l-6.4-7M149.8 217.1l-6.5-7M145.9 217.2l-6.4-7M225.9 216.6l1.6-1.6M221.6 216.6l3.8-3.6M217.5 216.5l6-5.5M213.2 216.5l7.8-7.1M208.9 216.6l8-7.1M204.8 216.6l7.8-7.1M200.5 216.7l7.7-7.1M196.4 216.7l7.7-7.1M192.1 216.8l7.7-7.1M187.7 216.8l8-7M183.6 216.9l7.8-7.1M179.3 217l7.8-7.4M175 217l8-7.3M170.9 216.8l7.8-7.1M166.6 216.9l7.7-7.1M162.5 216.9l7.8-7.1M158.2 217l7.7-7.1M153.9 217.1l7.9-7.1M149.8 217.1l7.7-7.1M145.4 217.2l7.8-7.1M143.1 215.4l6-5.3M141 213.4l3.8-3.5M139.2 211.4l1.5-1.4"/><path class="cls-17" d="M144.7 217.1l84.1-.6M137.6 210.1l84.1-.7M137.6 210.1l84.1-.7M144.7 217.1l84.1-.6"/><path class="cls-20" d="M85.1 217.4l7.1-7.1-84.1.6-7.1 7.2 84.1-.7"/><path class="cls-14" d="M90.9 211.7l-1.1-1.3M88.9 213.7l-3-3.5M86.9 215.6l-4.8-5.3M84.7 217.4l-6.5-7M81 217.5l-6.6-7M77.2 217.5l-6.4-7M73.4 217.6l-6.5-7.2M69.5 217.5l-6.4-7.1M65.7 217.5l-6.5-7M61.8 217.6l-6.4-7M58 217.7l-6.4-7M54.1 217.7l-6.4-7M50.5 217.6l-6.6-7M46.7 217.7l-6.4-7M42.8 217.7l-6.4-7M39 217.8l-6.4-7M35.1 217.9l-6.4-7M31.3 217.9l-6.4-7.2M27.5 217.8l-6.5-7M23.6 217.9l-6.4-7.1M19.8 217.9l-6.5-7M16.2 218l-6.7-7M12.3 218.1L7 212.3M8.5 217.9L5 214.2M4.6 218L3 216.2M82.2 217.5l7.8-7.3M77.9 217.6l7.8-7.4M73.8 217.4l7.8-7.1M69.5 217.5l7.8-7.2M65.2 217.5l8-7.1M61.1 217.6l7.8-7.1M56.8 217.6l7.7-7.1M52.7 217.7l7.7-7.1M48.4 217.7l7.7-7.1M44 217.8l8-7.1M39.9 217.8l7.8-7.1M35.6 217.9l7.8-7.4M31.5 218l7.8-7.4M27.2 217.8l7.8-7.1M22.9 217.8l8-7.1M18.8 217.9l7.8-7.1M14.5 217.9l7.7-7.1M10.4 218l7.8-7.1M6.1 218l7.7-7.1M1.7 218.1l7.8-7.1"/><path class="cls-20" d="M85.1 217.4l7.1-7.1-84.1.6-7.1 7.2 84.1-.7"/><path class="cls-14" d="M90.9 211.7l-1.1-1.3M88.9 213.7l-3-3.5M86.9 215.6l-4.8-5.3M84.7 217.4l-6.5-7M81 217.5l-6.6-7M77.2 217.5l-6.4-7M73.4 217.6l-6.5-7.2M69.5 217.5l-6.4-7.1M65.7 217.5l-6.5-7M61.8 217.6l-6.4-7M58 217.7l-6.4-7M54.1 217.7l-6.4-7M50.5 217.6l-6.6-7M46.7 217.7l-6.4-7M42.8 217.7l-6.4-7M39 217.8l-6.4-7M35.1 217.9l-6.4-7M31.3 217.9l-6.4-7.2M27.5 217.8l-6.5-7M23.6 217.9l-6.4-7.1M19.8 217.9l-6.5-7M16.2 218l-6.7-7M12.3 218.1L7 212.3M8.5 217.9L5 214.2M4.6 218L3 216.2M82.2 217.5l7.8-7.3M77.9 217.6l7.8-7.4M73.8 217.4l7.8-7.1M69.5 217.5l7.8-7.2M65.2 217.5l8-7.1M61.1 217.6l7.8-7.1M56.8 217.6l7.7-7.1M52.7 217.7l7.7-7.1M48.4 217.7l7.7-7.1M44 217.8l8-7.1M39.9 217.8l7.8-7.1M35.6 217.9l7.8-7.4M31.5 218l7.8-7.4M27.2 217.8l7.8-7.1M22.9 217.8l8-7.1M18.8 217.9l7.8-7.1M14.5 217.9l7.7-7.1M10.4 218l7.8-7.1M6.1 218l7.7-7.1M1.7 218.1l7.8-7.1"/><path class="cls-17" d="M1 218.1l84.1-.7M8.1 210.9l84.1-.6M8.1 210.9l84.1-.6M1 218.1l84.1-.7"/><path class="cls-16" d="M47.2 168.2l-.2-34.1M41.7 176.8l-.1-8.6 145.9-1.1.1 8.4-145.9 1.3z"/><path class="cls-16" d="M43.3 175.2v-5.5l142.7-1.2v5.8l-142.7.9zM55.1 168.1l-.2-33.9M63 168.2l-.2-34.2M71 168l-.2-34.1M78.9 167.9l-.2-33.9M86.8 168l-.2-34.1M94.7 167.9l-.2-34.2M102.7 167.7l-.2-33.8M110.6 167.6l-.2-33.9M118.5 167.7l-.2-34.1M126.5 167.6l-.2-34.2M134.4 167.4l-.2-33.8M142.3 167.5l-.2-34.1M150.3 167.4l-.2-34.1M158.2 167.3l-.2-33.9M166.1 167.4l-.2-34.1M174 167.2l-.1-34.1M182 167.1l-.2-33.9M130.2 168.9l7.8-35.4M134.3 150.5l3.9 3.8M138.1 146.7l-3.8 3.8M138.1 154.4l.1-7.7M47 151.2l3.9 3.8M50.8 147.3l-3.8 3.9M50.9 154.9l-.2-7.7"/><path class="cls-20" d="M340 58l-3.6.1 3.6-.1M337.1 58.1l2.2-.2-2.2.2"/><path class="cls-14" d="M338.6 57.9"/><path class="cls-16" d="M336.4 58.1"/><path class="cls-14" d="M337.1 58.1"/><path class="cls-16" d="M339.3 57.9"/><path class="cls-7" d="M340 58l-3.6.1M340 58"/><path class="cls-20" d="M339.1 342.6l.5-148.4-.7-.8.1-2.1.5-.7.6-106.4-3.6-.2-1 258.7 3.6-.1"/><path class="cls-20" d="M336.2 342.7l2.2-.1.9-258.5-2.1-.1-1 258.7"/><path class="cls-14" d="M339.6 84.9l-2.2.1M339.5 86.3l-2.2.2M339.4 87.7l-2.1-.1M339.4 89.2l-2.2-.1M339.5 90.6l-2.1-.1M339.5 92.1l-2.2-.1M339.4 93.5l-2.1-.1M339.4 94.9h-2.2M339.5 96.4l-2.1-.1M339.5 97.6l-2.2.1M339.4 99l-2.2.2M339.4 100.5l-2.2.1M339.3 101.9l-2.2-.1M339.5 103.4l-2.2-.1M339.4 104.8l-2.2-.1M339.3 106.2l-2.1-.1M339.3 107.7l-2.2-.1M339.5 109.1l-2.2-.1M339.4 110.6l-2.2-.1M339.3 111.8l-2.1.1M339.3 113.2l-2.2.1M339.5 114.7l-2.2.1M339.4 116.1l-2.2.1M339.3 117.5l-2.1-.1M339.3 119l-2.2-.1M339.4 120.4l-2.1-.1M339.4 121.9l-2.2-.1M339.3 123.3l-2.1-.1M339.3 124.7l-2.2-.1M339.2 125.9l-2.2.2M339.4 127.4l-2.2.1M339.3 128.8l-2.2.2M339.3 130.3l-2.2.1M339.2 131.7l-2.2-.1M339.4 133.1l-2.2-.1M339.3 134.6l-2.2-.1M339.2 136l-2.1-.1M339.2 137.5l-2.2-.1M339.4 138.9l-2.2-.1M339.3 140.1l-2.2.2M339.2 141.5l-2.1.2M339.2 143l-2.2.1M339.4 144.4l-2.2.2M339.3 145.9l-2.2-.1M339.2 147.3l-2.1-.1M339.2 148.8l-2.2-.1M339.1 150.2l-2.2-.1M339.3 151.6l-2.2-.1M339.2 153.1l-2.1-.1M339.2 154.3l-2.2.1M339.1 155.7l-2.2.2M339.3 157.2l-2.2.1M339.2 158.6l-2.1.1M339.2 160l-2.2-.1M339.1 161.5l-2.2-.1M339.3 162.9l-2.2-.1M339.2 164.4l-2.2-.1M339.1 165.8l-2.1-.1M339.1 167.2l-2.2-.1M339.3 168.5l-2.2.1M339.2 169.9l-2.2.1M339.1 171.3l-2.1.2M339.1 172.8l-2.2.1M339 174.2l-2.1-.1M339.2 175.7l-2.2-.1M339.1 177.1l-2.1-.1M339.1 178.5l-2.2-.1M339 180l-2.2-.1M339.2 181.4l-2.2-.1M339.1 182.6l-2.1.2M339.1 184.1l-2.2.1M339 185.5l-2.2.1M339.2 186.9l-2.2.2M339.1 188.4l-2.1-.1M339.1 189.8l-2.2-.1M339 191.3l-2.2-.1M339.2 192.7l-2.2-.1M339.1 194.2l-2.2-.1M339 195.6l-2.1-.1M339 196.8l-2.2.1M338.9 198.2l-2.1.2M339.1 199.7l-2.2.1M339 201.1l-2.1.2M339 202.6l-2.2-.1M338.9 204l-2.1-.1M339.1 205.4l-2.2-.1M339 206.9l-2.1-.1M339 208.3l-2.2-.1M338.9 209.8l-2.2-.1M339.1 211l-2.2.1M339 212.4l-2.1.2M339 213.8l-2.2.2M338.9 215.3l-2.2.1M339.1 216.7l-2.2-.1M339 218.2l-2.1-.1M339 219.6l-2.2-.1M338.9 221h-2.2M339.1 222.5l-2.4-.1M339 223.9l-2.1-.1M338.9 225.4l-2.1-.1M338.9 226.6l-2.2.1M338.8 228l-2.1.2M339 229.5l-2.2.1M338.9 230.9l-2.1-.1M338.9 232.3l-2.2-.1M338.8 233.8l-2.1-.1M339 235.2l-2.2-.1M338.9 236.7l-2.1-.1M338.9 238.1l-2.2-.1M338.8 239.5l-2.2-.1M339 240.8l-2.2.1M338.9 242.2l-2.1.1M338.9 243.6l-2.2.2M338.8 245.1l-2.2-.1M339 246.5l-2.2-.1M338.9 248l-2.1-.1M338.9 249.4l-2.2-.1M338.8 250.8l-2.2-.1M338.7 252.3l-2.1-.1M338.9 253.7l-2.1-.1M338.9 254.9l-2.2.2M338.8 256.4l-2.2.1M338.7 257.8l-2.1.1M338.9 259.2l-2.1-.1M338.8 260.7l-2.1-.1M338.8 262.1l-2.2-.1M338.7 263.6l-2.1-.1M338.9 265l-2.2-.1M338.8 266.4h-2.1M338.8 267.9l-2.2-.1M338.7 269.1l-2.1.1M338.9 270.5l-2.2.2M338.8 272l-2.1.1M338.8 273.4l-2.2-.1M338.7 274.9l-2.2-.1M338.6 276.3l-2.1-.1M338.8 277.7l-2.1-.1M338.8 279.2l-2.2-.1M338.7 280.6l-2.2-.1M338.6 282.1l-2.1-.1M338.8 283.3l-2.1.1M338.8 284.7l-2.2.1M338.7 286.1l-2.2.2M338.6 287.6l-2.1.1M338.8 289l-2.1-.1M338.7 290.5l-2.1-.1M338.7 291.9l-2.2-.1M338.6 293.3l-2.1-.1M338.8 294.8l-2.2-.1M338.7 296.2l-2.1-.1M338.7 297.4l-2.2.2M338.6 298.9l-2.1.1M338.6 300.3l-2.2.2M338.7 301.8l-2.1.1M338.7 303.2l-2.2-.1M338.6 304.6l-2.1-.1M338.5 306.1l-2.1-.1M338.7 307.5l-2.1-.1M338.7 309l-2.2-.1M338.6 310.4l-2.2-.1M338.5 311.6l-2.1.1M338.7 313l-2.1.2M338.7 314.5l-2.2.1M338.6 315.9l-2.2.2M338.5 317.4l-2.1-.1M338.7 318.8l-2.1-.1M338.6 320.3l-2.1-.1M338.6 321.7l-2.2-.1M338.5 323.1l-2.1-.1M338.5 324.6l-2.2-.1M338.6 325.8l-2.1.1M338.6 327.2l-2.2.2M338.5 328.7l-2.1.1M338.5 330.1l-2.2.1M338.6 331.5l-2.1-.1M338.6 333l-2.2-.1M338.5 334.4l-2.1-.1M338.4 335.9l-2.1-.1M338.6 337.3l-2.1-.1M338.6 338.7h-2.2M338.5 339.9l-2.2.2M338.4 341.4l-2.1.1"/><path class="cls-16" d="M336.2 342.7l1-258.7M335.5 342.7l1-258.7"/><path class="cls-14" d="M339 191.3l.3-107.2M338.4 342.6l.5-149.2M336.2 342.7l1-258.7"/><path class="cls-16" d="M339.5 190.6l.6-106.4M339.1 342.6l.5-148.4M339 191.3l.3-107.2M338.4 342.6l.5-149.2"/><path class="cls-7" d="M335.5 342.7l1-258.7M339.5 190.6l.6-106.4M339.1 342.6l.5-148.4"/><path class="cls-20" d="M338.9 368.8l-3.3-.2 3.3.2M336.1 368.7l2.1.1-2.1-.1"/><path class="cls-16" d="M335.6 368.6"/><path class="cls-14" d="M336.1 368.7"/><path class="cls-16" d="M338.2 368.8"/><path class="cls-7" d="M338.9 368.8l-3.3-.2"/><path class="cls-16" d="M339 367.1l-3.6-.1M339 344.3l-3.6.1"/><path class="cls-7" d="M338.9 368.8h-.7M339.1 342.6h-.7M336.1 368.7l-.5-.1M336.2 342.7h-.7M338.2 368.8l-2.1-.1M338.4 342.6l-2.2.1"/><path class="cls-14" d="M339 367c12.4 0 22.7-10.2 22.8-22.6M339 344.3h22.9"/><path class="cls-16" d="M339.9 82.5l-3.4-.2M340.2 59.7l-3.6.1"/><path class="cls-7" d="M340.1 84.2l-.8-.1M340 58l-.7-.1M337.2 84h-.7M337.1 58.1h-.7M339.3 84.1l-2.1-.1M339.3 57.9l-2.2.2"/><path class="cls-14" d="M362.7 82.5c0-6-2.4-11.8-6.6-16.1-4.2-4.3-10-6.7-16-6.7M339.9 82.5h22.8"/><path class="cls-1" d="M247.6 176.2l.2 33.9"/><path class="cls-16" d="M247.9 209.6l-.1.5"/><path class="cls-20" d="M231.6 137.3l-2.7.2v-9.9l2.4-.1.3 9.8"/><path class="cls-16" d="M231.6 137.3l-2.7.2v-9.9l2.4-.1.3 9.8z"/><path class="cls-20" d="M231.6 137.6l-.1.2-.2-10.6h.2l.1 10.4"/><path class="cls-16" d="M231.6 137.6l-.1.2-.2-10.6h.2l.1 10.4z"/><path class="cls-18" d="M231.5 128.2l8.6-.1"/><path class="cls-3" d="M240.1 128.1l-.3 1.7-.3 1.6-.8 1.4-1.2 1.4-1.3 1.2-1.5.6-1.4.4-1.7.2"/><path class="cls-20" d="M222.6 117.7l5.5 5.5 18.3-.1v-5.5l-23.8.1"/><path class="cls-14" d="M246.4 121.2l-3.2-3.5M244.4 123l-5-5.5M240.6 123.1l-5-5.5M236.7 123.1l-5-5.5M232.9 123.2l-5-5.5M229.1 123.3l-5.1-5.5M244 123.2l2.5-2.5M239.6 123l6.3-5.5M235.5 123.1l6.1-5.5M231.2 123.1l6-5.5M227.6 122.7l5.5-5M225.6 120.7l3.2-3M223.5 118.7l1.2-.9"/><path class="cls-20" d="M222.6 117.7l5.5 5.5 18.3-.1v-5.5l-23.8.1"/><path class="cls-14" d="M246.4 121.2l-3.2-3.5M244.4 123l-5-5.5M240.6 123.1l-5-5.5M236.7 123.1l-5-5.5M232.9 123.2l-5-5.5M229.1 123.3l-5.1-5.5M244 123.2l2.5-2.5M239.6 123l6.3-5.5M235.5 123.1l6.1-5.5M231.2 123.1l6-5.5M227.6 122.7l5.5-5M225.6 120.7l3.2-3M223.5 118.7l1.2-.9"/><path class="cls-17" d="M246.4 117.6l-23.8.1M246.4 123.1l-18.3.1M246.4 123.1l-18.3.1M246.4 117.6l-23.8.1M246.4 117.6v5.5"/><path class="cls-16" d="M332.5 383.4l-3.6 55.1-74-.1-3.3-55.2"/><path class="cls-16" d="M334.2 383.5l-3.7 56.8-77.1-.3-3.5-56.6"/><path class="cls-20" d="M239.6 52.9l-1.6-8.5-4.8.7 2.1 12.9 4.3-.1v-5"/><path class="cls-14" d="M238.2 45.1l-.4-.7M239.2 50.2l-4.8-5.2M239.7 55l-5.7-6.2M238.6 57.9l-3.9-4M239.6 57.9v-.2M235.3 58l4.5-4.2M234.9 54.6l4.3-4.1M234.4 51.2l4.2-4.1M233.8 47.8l3.5-3.2"/><path class="cls-17" d="M239.6 52.9l-1.6-8.5-4.8.7 2.1 12.9 4.3-.1v-5z"/><path class="cls-20" d="M243.2 216.4l.1-5.8-14.5.1v5.8l14.4-.1"/><path class="cls-14" d="M243.3 214.2l-3.2-3.5M241.6 216.3l-5.3-5.7M237.7 216.4l-5.3-5.8M233.9 216.5l-4.8-5.3M230 216.5l-1.1-1.2M242.8 216.4l.5-.5M238.7 216.4l4.7-4.3M234.4 216.5l6.2-5.7M230 216.5l6.5-5.9M229 213.6l3.2-3"/><path class="cls-20" d="M243.2 216.4l.1-5.8-14.5.1v5.8l14.4-.1"/><path class="cls-14" d="M243.3 214.2l-3.2-3.5M241.6 216.3l-5.3-5.7M237.7 216.4l-5.3-5.8M233.9 216.5l-4.8-5.3M230 216.5l-1.1-1.2M242.8 216.4l.5-.5M238.7 216.4l4.7-4.3M234.4 216.5l6.2-5.7M230 216.5l6.5-5.9M229 213.6l3.2-3"/><path class="cls-17" d="M228.8 216.5l14.4-.1M228.8 210.7l14.5-.1M228.8 210.7l14.5-.1M228.8 216.5l14.4-.1M243.3 210.6h4M243.3 210.6l-.1 5.8"/><path class="cls-14" d="M322.1 353.7c-5.3 0-10.5 2.1-14.2 5.9-3.8 3.8-5.9 8.9-5.9 14.2M322.1 353.6v20.2"/><path class="cls-6" d="M281.9 353.6l2 .1 1.9.3 1.9.5 1.9.6 1.8.8 1.7 1 1.6 1.3 1.4 1.3 1.4 1.5 1.1 1.5 1.1 1.7.7 1.9.9 1.8.4 1.9.1 1.9.2 2"/><path class="cls-12" d="M281.9 353.6l-.1 20.1"/><path class="cls-14" d="M384.2 373.9V372c0-.6.2-1.2.3-1.8.1-.6.3-1.2.5-1.8l.6-1.8c.2-.6.5-1.1.8-1.7.3-.5.6-1.1 1-1.6.3-.5.7-1 1.1-1.5.4-.5.8-.9 1.3-1.4.4-.4.9-.9 1.4-1.2.5-.4 1-.8 1.5-1.1.5-.3 1-.7 1.6-1 .6-.3 1.1-.6 1.7-.8l1.8-.6c.6-.2 1.2-.3 1.8-.5l1.8-.3h1.9M403.2 355l-.1 19M384.1 373.9l.1-1.5M384 371l-.2-.7M383.8 370.3l-.2-.8"/><path class="cls-9" d="M383.4 368.3l-.7-1.7"/><path class="cls-14" d="M382.3 365.6l-.4-.7M381.9 364.9l-.3-.5"/><path class="cls-10" d="M381 363.4l-1.2-1.5"/><path class="cls-14" d="M379.2 360.9l-.5-.5M378.7 360.4l-.5-.5"/><path class="cls-10" d="M377.3 359.2l-1.6-1.1"/><path class="cls-14" d="M374.7 357.4l-.4-.3M374.3 357.1l-1-.3M372.1 356.3l-1.4-.5M369.3 355.5l-.5-.3M368.8 355.2l-.9-.3M366.4 354.9l-1.2-.1"/><path class="cls-6" d="M365.2 354.8l-.1 19"/><path class="cls-14" d="M365.2 373.3l-.1.5M292.1 52.9v1.9c0 .6.2 1.2.3 1.8.1.6.3 1.2.4 1.8l.6 1.8c.2.6.5 1.1.8 1.7.3.5.6 1.1 1 1.6.3.5.7 1 1.1 1.5.4.5.8.9 1.2 1.4.4.4.9.9 1.4 1.3.5.4 1 .8 1.5 1.1.5.3 1 .7 1.6 1 .5.3 1.1.6 1.7.8l1.8.6c.6.2 1.2.3 1.8.5l1.8.3h1.9M311.1 71.9l.1-19M292.2 53l-.1 1.4M291.8 55.9v.7M291.8 56.6l-.3.7"/><path class="cls-9" d="M291.2 58.5l-.5 1.7"/><path class="cls-14" d="M290.1 61.6l-.2.2M289.9 61.8l-.5.9M288.6 63.9l-.8.9"/><path class="cls-19" d="M287.8 64.8l-1.2 1.4"/><path class="cls-14" d="M286.6 66.2l-.8.7"/><path class="cls-5" d="M285.1 67.6l-1.5 1.1"/><path class="cls-14" d="M282.3 69.4l-.2.2M282.1 69.6l-1 .5M279.9 70.7l-1.2.5"/><path class="cls-15" d="M278.7 71.2l-2 .4"/><path class="cls-14" d="M276.7 71.6l-1 .2M274.3 71.7l-1.2.2"/><path class="cls-6" d="M273.1 71.9l.1-19"/><path class="cls-14" d="M273.2 53.4v-.5M384.3 53v1.9c0 .6.2 1.2.3 1.8.1.6.3 1.2.5 1.8l.6 1.8c.2.6.5 1.1.8 1.7.3.5.6 1.1 1 1.6.3.5.7 1 1.1 1.5.4.5.8.9 1.3 1.4.4.4.9.9 1.4 1.3.5.4 1 .8 1.5 1.1.5.3 1 .7 1.6 1 .5.3 1.1.6 1.7.8l1.8.6c.6.2 1.2.3 1.8.5l1.8.3h1.9M403.3 72l-.1-18.9M384.2 52.9l-.1 1.5M384.1 55.8l-.3 1M383.8 56.8v.4"/><path class="cls-9" d="M383.5 58.4l-.6 1.9"/><path class="cls-14" d="M382.4 61.5l-.3.5M382.1 62l-.5.7M380.8 63.8l-.7 1.2"/><path class="cls-11" d="M380.1 65l-1.3 1.4"/><path class="cls-14" d="M378.8 66.4l-.8.7"/><path class="cls-5" d="M377.3 67.8l-1.5 1.1"/><path class="cls-14" d="M374.6 69.6l-.5.2M374.1 69.8l-.8.4M371.9 70.7l-1.2.4"/><path class="cls-15" d="M370.7 71.1l-1.7.6"/><path class="cls-14" d="M369 71.7l-1.3.2M366.3 71.9l-1 .2"/><path class="cls-6" d="M365.3 72.1l-.1-19"/><path class="cls-14" d="M365.2 53.6v-.5M166.7 373.5v-1.9c0-.6-.2-1.2-.3-1.8-.1-.6-.3-1.2-.5-1.8l-.6-1.8c-.2-.6-.5-1.1-.8-1.7-.3-.5-.6-1.1-1-1.6-.3-.5-.7-1-1.1-1.5-.4-.5-.8-.9-1.3-1.4-.4-.4-.9-.9-1.4-1.3-.5-.4-1-.8-1.5-1.1-.5-.3-1-.7-1.6-1-.5-.3-1.1-.6-1.7-.8l-1.8-.6c-.6-.2-1.2-.3-1.8-.5s-1.2-.2-1.8-.3h-1.9M147.9 354.4l-.2 19M166.7 373.5l.1-1.4M167.1 370.7v-.8M167.1 369.9l.3-.7"/><path class="cls-9" d="M167.7 368l.5-1.6"/><path class="cls-14" d="M168.8 365l.2-.5M169 364.5l.5-.7M170.3 362.6l.8-1.1"/><path class="cls-11" d="M171.1 361.5l1.3-1.4"/><path class="cls-14" d="M172.4 360.1l.7-.7M174.1 358.5l1-.7"/><path class="cls-19" d="M175.1 357.8l1.7-.9"/><path class="cls-14" d="M176.8 356.9l1-.4M179 355.8l1.2-.4"/><path class="cls-15" d="M180.2 355.4l1.7-.4"/><path class="cls-14" d="M181.9 355l1.3-.2M184.6 354.6l1.2.1"/><path class="cls-6" d="M185.8 354.7l-.1 18.9"/><path class="cls-14" d="M185.7 373.2v.4M321.6 379.6h-59.1V376h59.3l-.2 3.6z"/><path class="cls-6" d="M206.8 32.5l-4.5-.5-4.3-1.4-4-2.1-3.7-2.8-2.7-3.4-2.2-4.2-1.3-4.4-.5-4.3"/><path class="cls-12" d="M206.8 32.5l.1-23.3"/><path class="cls-14" d="M160.4 32.5c6.2 0 12.1-2.5 16.4-6.8 4.4-4.4 6.8-10.3 6.8-16.4M160.5 32.6l-.2-23.3M219.5 45.8l16.7-2.9M233.5 26.1c-4.4.7-8.4 3.2-11 6.9-2.6 3.7-3.7 8.2-2.9 12.7"/><path class="cls-16" d="M273 227.3v.7M273 228l-.3 1M272.7 229v.7M272.7 229.7l-.3.2M271.9 231.3l-.2.3M270.9 232.7l-.5.5M270.4 233.2l-.8.4M269.6 233.6l-.7.5M268.9 234.1l-.3.2M267.4 235h-.5M265.7 235.4h-.7M265 235.4l-.7-.1M264.3 235.3h-1M263.3 235.3h-.5M261.4 234.7h-.2M260 233.9l-.5-.2M259.5 233.7l-.7-.5M258.8 233.2l-.4-.5M258.4 232.7l-.5-.5M257 230.9v-.2M256.4 229.5v-.5M256.4 229l-.2-.8M256.2 228.2l-.2-.9M256 227.3v-.7M256.3 225.1v-.2M256.9 223.5v-.3M256.9 223.2l.3-.7M257.2 222.5l.5-.7M257.7 221.8l.5-.7M259.4 220.2v-.2M259.4 220h.3M260.7 219.3h.2M260.9 219.3l.7-.4M261.6 218.9l.8-.2M262.4 218.7l.9-.2M264.8 218.3h.2M265 218.3h.3M266.5 218.6h.2M266.7 218.6l.7.3M267.4 218.9l.7.3M268.1 219.2l.7.5M268.8 219.7h.2M270.2 220.7h.2M271.4 221.9l.4.5M271.8 222.4l.5.8M272.3 223.2l.2.7M272.5 223.9l.2.5M273.1 225.6v.5"/></g><g id="Mbel"><path class="cls-2" transform="rotate(-89.9 302.313 113.486)" d="M276.8 102.1h50.9v22.8h-50.9z"/><path class="cls-2" d="M323.5 137.6l.1-12.7M315 137.6h8.5M323.6 124.9l-8.5-.1M323.6 119.9v-12.8M315.1 119.9h8.5M323.6 107.1h-8.5M323.6 102.2V89.4M315.1 102.2h8.5M323.6 89.4h-8.5M281 137.5v-12.7M289.5 137.6l-8.5-.1M281 124.8h8.5M281 119.8l.1-12.7M289.5 119.8H281M281.1 107.1h8.5M281.1 102.1V89.3M289.6 102.1h-8.5M281.1 89.3l8.5.1M284.7 318.4V290l14.2.2-.1 28.3-14.1-.1zM297.4 271.6c.1-4 0-8-.6-12-.1-1-.8-1.7-1.7-2-3.1-.9-6.4-.9-9.5 0-.9.3-1.6 1-1.7 2-.5 4-.7 8-.6 12 .7.3 1.4.4 2 .4 3.3.1 6.6.1 9.8 0 .7 0 1.4-.1 2-.3"/><path class="cls-2" d="M297.8 270.5c.3-.2.5-.5.6-.8.7-1.4 1.1-2.9 1-4.4 0-2-.3-4.1-.7-6.1-.3-1.4-.8-2.8-1.5-4.1-.4-.7-1.1-1.3-1.9-1.5-3.3-.8-6.7-.8-10 0-.8.2-1.5.7-1.9 1.5-.7 1.3-1.2 2.7-1.5 4.1-.4 2-.7 4-.8 6.1 0 1.5.3 3 1 4.4.2.3.4.6.6.8M329.6 331h-18.7-.2-.2-.1l-.1-.1-.1-.1v-.1-.2V305.4v-.2-.2-.1l.1-.1.1-.1h19.2v26.7"/><path class="cls-2" d="M333.3 335.5h-22.7c-.1 0-.2-.1-.3-.2 0 0-.1-.2-.2-.3V331.9v-.3c0-.1.1-.2.2-.3 0 0 .2-.1.3-.2h23c.1 0 .2.1.3.2 0 0 .1.2.2.3v3.6l-.1.1-.1.1h-.1-.2-.2M329.7 304.4h4.2l.1-.1.1-.1v-.1-.2V278.8v-.2-.2-.1l-.1-.1-.1-.1h-.1-.2H329.7M327.5 277.7l-.1 53.3"/><path class="cls-2" d="M329.7 277.7H311h-.2-.2-.1l-.1.1-.1.1v25.9l.1.1.1.1c.1.1 0 0 .1 0H329.7v-26.6M333.4 273.2H311h-.2-.2-.1l-.1.1-.1.1V277.2l.1.1.1.1h23.4l.1-.1.1-.1v-.1-.2-3-.2-.2-.1l-.1-.1-.1-.1h-.1-.4M329.7 304.4h4.2l.1.1.1.1v25.9l-.1.1-.1.1h-.1-.2H329.7M156.3 336.8l-.4-56.7 45.4-.4.4 56.7-45.4.4zM120.8 336.9l-.5-56.7H136l.4 56.7h-15.6zM249.9 338.2l-.4-56.7 10.6-.2.4 56.7-10.6.2z"/><path class="cls-2" transform="rotate(-89.9 369.302 262.958)" d="M355 234.6h28.3v56.7H355z"/><path class="cls-2" d="M340.9 340l.1-56.6 15.6.2-.1 56.6-15.6-.2zM404.3 318.6l-.2 11.2-7.5.2v-11.5l7.7.1z"/><path class="cls-2" d="M424 301.6V347l-20-.1.3-45.4 19.7.1z"/><path class="cls-2" transform="rotate(-89.9 369.475 175.03)" d="M355.2 146.7h28.3v56.7h-28.3z"/><path class="cls-2" d="M356.7 87.3l-.3 56.7h-15.6l.3-56.9 15.6.2zM396.6 109.2V97.9l7.7.1v11.3l-7.7-.1zM404.3 126.4V81l20-.1-.3 45.4-19.7.1zM165.2 62.1c.3-7-5.2-13-12.2-13.3S140 54 139.7 61c-.3 7 5.2 13 12.2 13.3s13-5.2 13.3-12.2"/><path class="cls-2" d="M164.8 54.4l8.4-.6.9 12.8-8.4.6M140.1 54.3l-4.8-6.9 10.7-7.3 4.7 7.2M152.3 75.7l-3.7 7.8-11.5-5.8 3.9-7.5M324 215.8v-45.1h10.6l.2 45.1H324z"/></g><g id="Text"><path d="M107.5 247.9v.6H105v-5.3h.7v4.7h1.9zM109.2 243.8c0 .2-.2.4-.4.4s-.4-.2-.4-.4.2-.4.4-.4.4.2.4.4zm0 4.7h-.6v-3.7h.6v3.7zM111.1 248.5h-.6v-3.2h-.5v-.5h.5v-.5c0-.7.4-1.2 1-1.2h.2v.5c-.4 0-.6.2-.6.6v.5h.6v.5h-.6v3.2zM113.5 247.8c0 .2 0 .2.3.2h.3v.5h-.6c-.4 0-.6-.2-.6-.6v-2.6h-.5v-.5h.5v-1.2h.6v1.2h.6v.5h-.6v2.4zM369.5 122.6v.6h-3.8l3-4.8H366v-.6h3.8l-3 4.8h2.7zM371.3 118.4c0 .2-.2.4-.4.4s-.4-.2-.4-.4.2-.4.4-.4.4.2.4.4zm0 4.7h-.6v-3.7h.6v3.7zM373.2 119.5v.5c.3-.4.6-.6 1-.6s.8.2 1 .7c.3-.5.6-.7 1.2-.7s.7.1.9.4c.2.2.2.4.2 1v2.4h-.6V121c0-.4 0-.6-.1-.7-.1-.2-.4-.3-.6-.3-.5 0-.8.4-.8 1v2.2h-.6V121c0-.4 0-.5-.1-.7-.1-.2-.3-.3-.6-.3-.5 0-.9.4-.9 1v2.2h-.6v-3.7h.6zM379.5 119.5v.5c.3-.4.6-.6 1-.6s.8.2 1 .7c.3-.5.6-.7 1.2-.7s.7.1.9.4c.2.2.2.4.2 1v2.4h-.6V121c0-.4 0-.6-.1-.7-.1-.2-.4-.3-.6-.3-.5 0-.8.4-.8 1v2.2h-.6V121c0-.4 0-.5-.1-.7-.1-.2-.3-.3-.6-.3-.5 0-.9.4-.9 1v2.2h-.6v-3.7h.6zM385.6 121.5c0 .3 0 .5.2.7.2.3.6.5 1 .5s.9-.2 1.1-.6l.5.2c-.3.6-.9 1-1.6 1-1.1 0-1.9-.8-1.9-1.9s.8-1.9 1.9-1.9 1.9.8 1.9 1.9v.2h-3.1zm2.4-.4c0-.3 0-.4-.2-.6-.2-.3-.6-.5-1-.5s-.8.2-1 .5c-.1.2-.2.3-.2.6h2.4zM390.3 119.5v.6c.1-.3.2-.4.3-.5.2-.1.4-.2.7-.2h.1v.6h-.2c-.3 0-.6.2-.8.4-.2.2-.2.4-.2.9v1.9h-.6v-3.7h.6zM366.4 128.6v-.6l1.8-1.2v5.4h-.6v-4.4l-1.2.8zM369.6 130.9v-.5l2.8-3.7v3.6h.6v.6h-.6v1.2h-.6v-1.2h-2.1zm2.1-2.6l-1.5 2h1.5v-2zM374.8 131.8c0 .2-.2.4-.4.4s-.4-.2-.4-.4.2-.4.4-.4.4.2.4.4zM375.7 130.9v-.5l2.8-3.7v3.6h.6v.6h-.6v1.2h-.6v-1.2h-2.1zm2.1-2.6l-1.5 2h1.5v-2zM380.8 128.5v.5c.3-.4.6-.6 1-.6s.8.2 1 .7c.3-.5.6-.7 1.2-.7s.7.1.9.4c.2.2.2.4.2 1v2.4h-.6V130c0-.4 0-.6-.1-.7-.1-.2-.4-.3-.6-.3-.5 0-.8.4-.8 1v2.2h-.6V130c0-.4 0-.5-.1-.7-.1-.2-.3-.3-.6-.3-.5 0-.9.4-.9 1v2.2h-.6v-3.7h.6zM388.4 129.6v.4h-2l1.2-1.6c.3-.5.4-.6.4-.8 0-.3-.2-.4-.5-.4s-.5.2-.5.6h-.4c0-.6.4-1 1-1s1 .3 1 .8-.1.5-.4.9l-.8 1.1h1.1z"/><g><path d="M369.2 315.4v.6h-3.8l3-4.8h-2.7v-.6h3.8l-3 4.8h2.7zM371 311.2c0 .2-.2.4-.4.4s-.4-.2-.4-.4.2-.4.4-.4.4.2.4.4zm0 4.7h-.6v-3.7h.6v3.7zM372.9 312.3v.5c.3-.4.6-.6 1-.6s.8.2 1 .7c.3-.5.6-.7 1.2-.7s.7.1.9.4c.2.2.2.4.2 1v2.4h-.6v-2.2c0-.4 0-.6-.1-.7-.1-.2-.4-.3-.6-.3-.5 0-.8.4-.8 1v2.2h-.6v-2.2c0-.4 0-.5-.1-.7-.1-.2-.3-.3-.6-.3-.5 0-.9.4-.9 1v2.2h-.6v-3.7h.6zM379.2 312.3v.5c.3-.4.6-.6 1-.6s.8.2 1 .7c.3-.5.6-.7 1.2-.7s.7.1.9.4c.2.2.2.4.2 1v2.4h-.6v-2.2c0-.4 0-.6-.1-.7-.1-.2-.4-.3-.6-.3-.5 0-.8.4-.8 1v2.2h-.6v-2.2c0-.4 0-.5-.1-.7-.1-.2-.3-.3-.6-.3-.5 0-.9.4-.9 1v2.2h-.6v-3.7h.6zM385.3 314.3c0 .3 0 .5.2.7.2.3.6.5 1 .5s.9-.2 1.1-.6l.5.2c-.3.6-.9 1-1.6 1-1.1 0-1.9-.8-1.9-1.9s.8-1.9 1.9-1.9 1.9.8 1.9 1.9v.2h-3.1zm2.4-.4c0-.3 0-.4-.2-.6-.2-.3-.6-.5-1-.5s-.8.2-1 .5c-.1.2-.2.3-.2.6h2.4zM390 312.3v.6c.1-.3.2-.4.3-.5.2-.1.4-.2.7-.2h.1v.6h-.2c-.3 0-.6.2-.8.4-.2.2-.2.4-.2.9v1.9h-.6v-3.7h.6zM366.1 321.4v-.6l1.8-1.2v5.4h-.6v-4.4l-1.2.8zM369.6 320.3v-.6h3l-1.6 2c.9 0 1.6.7 1.6 1.6s-.8 1.7-1.8 1.7-1.4-.5-1.6-1.3h.6c.1.4.5.7 1 .7s1.2-.5 1.2-1.1-.5-1.1-1.2-1.1-.4 0-.6.2l-.3-.2 1.5-1.9h-1.9zM374.6 324.6c0 .2-.2.4-.4.4s-.4-.2-.4-.4.2-.4.4-.4.4.2.4.4zM378.6 324.4v.6h-3l1.9-2.7c.5-.8.7-1 .7-1.3 0-.5-.4-.8-.9-.8s-.7.2-.8.4v.6h-.6c0-1 .6-1.6 1.5-1.6s1.5.5 1.5 1.3-.2.8-.6 1.5l-1.4 2h1.9zM380.5 321.3v.5c.3-.4.6-.6 1-.6s.8.2 1 .7c.3-.5.6-.7 1.2-.7s.7.1.9.4c.2.2.2.4.2 1v2.4h-.6v-2.2c0-.4 0-.6-.1-.7-.1-.2-.4-.3-.6-.3-.5 0-.8.4-.8 1v2.2h-.6v-2.2c0-.4 0-.5-.1-.7-.1-.2-.3-.3-.6-.3-.5 0-.9.4-.9 1v2.2h-.6v-3.7h.6zM388.1 322.4v.4h-2l1.2-1.6c.3-.5.4-.6.4-.8 0-.3-.2-.4-.5-.4s-.5.2-.5.6h-.4c0-.6.4-1 1-1s1 .3 1 .8-.1.5-.4.9l-.8 1.1h1.1z"/></g><g><path d="M274.2 406.6c1.1 0 1.7.5 1.7 1.4s-.1.6-.3.9c-.1.2-.3.2-.5.3.3 0 .4.1.6.2.3.2.4.6.4 1s-.2.9-.6 1.2c-.3.2-.7.3-1.3.3h-1.5v-5.3h1.5zm-.8 2.4h.7c.4 0 .7 0 .9-.2.2-.2.3-.4.3-.7s-.2-.6-.4-.8c-.2 0-.4-.1-.9-.1h-.6v1.8zm0 2.4h.7c.6 0 .8 0 1-.2.3-.1.4-.4.4-.8 0-.6-.4-.9-1.2-.9h-.8v1.8zM280.1 408.3h.6v3.7h-.6v-.7c-.4.6-.8.8-1.3.8-1 0-1.7-.8-1.7-1.9s.7-1.9 1.8-1.9 1 .2 1.3.7v-.6zm-2.1.9c-.2.3-.3.6-.3 1 0 .8.5 1.4 1.2 1.4s1.3-.6 1.3-1.4-.5-1.4-1.2-1.4-.7.1-.9.4zM282 412v-5.3h.6v5.3h-.6zM284.6 412h-.6v-5.3h.6v3.3l1.5-1.6h.8l-1.6 1.8 1.6 1.9h-.8l-1.5-1.6v1.6zM291 410.1c0 1.1-.8 1.9-1.9 1.9s-1.9-.8-1.9-1.9.8-1.9 1.9-1.9 1.9.8 1.9 1.9zm-3.1 0c0 .8.5 1.4 1.3 1.4s1.2-.6 1.2-1.4-.5-1.4-1.2-1.4-1.3.6-1.3 1.4zM292.7 408.3v.5c.3-.4.6-.6 1.1-.6s.6.1.9.3c.2.2.3.5.3 1v2.5h-.6v-2.4c0-.3 0-.5-.1-.6-.1-.2-.3-.2-.6-.2s-.5.1-.7.3c-.2.2-.2.4-.2.7v2.2h-.6v-3.7h.6zM273.6 417.9c.2 0 .3-.1.5-.1.9 0 1.6.7 1.6 1.6s-.8 1.7-1.7 1.7-1.7-.8-1.7-1.7.1-.7.4-1.2l1.5-2.5h.7l-1.4 2.1zm-.7 1.5c0 .6.5 1.1 1.1 1.1s1.1-.5 1.1-1.1-.5-1.1-1.1-1.1-1.1.5-1.1 1.1zM277.5 420.6c0 .2-.2.4-.4.4s-.4-.2-.4-.4.2-.4.4-.4.4.2.4.4zM281.8 419.4c0 .6-.1 1-.4 1.2-.3.3-.7.4-1.2.4s-1-.2-1.2-.5c-.3-.3-.4-.6-.4-1.4v-1.8c0-.7 0-1 .3-1.3.3-.3.7-.5 1.2-.5s.9.1 1.2.4c.3.3.4.6.4 1.2v2.1zm-2.5-.1c0 .6 0 .7.2.9.2.2.5.3.8.3s.6-.1.8-.4c.1-.2.2-.4.2-.8v-2c0-.4 0-.6-.3-.8-.2-.2-.4-.2-.7-.2s-.6.1-.8.4c-.1.2-.2.4-.2.8v1.8zM286 417.3v.5c.3-.4.6-.6 1-.6s.8.2 1 .7c.3-.5.6-.7 1.2-.7s.7.1.9.4c.2.2.2.4.2 1v2.4h-.6v-2.2c0-.4 0-.6-.1-.7-.1-.2-.4-.3-.6-.3-.5 0-.8.4-.8 1v2.2h-.6v-2.2c0-.4 0-.5-.1-.7-.1-.2-.3-.3-.6-.3-.5 0-.9.4-.9 1v2.2h-.6v-3.7h.6zM293.6 418.5v.4h-2l1.2-1.6c.3-.5.4-.6.4-.8 0-.3-.2-.4-.5-.4s-.5.2-.5.6h-.4c0-.6.4-1 1-1s1 .3 1 .8-.1.5-.4.9l-.8 1.1h1.1z"/></g><g><path d="M189.9 246.5c1.1 0 1.7.5 1.7 1.4s-.1.6-.3.9c-.1.2-.3.2-.5.3.3 0 .4.1.6.2.3.2.4.6.4 1s-.2.9-.6 1.2c-.3.2-.7.3-1.3.3h-1.5v-5.3h1.5zm-.8 2.4h.7c.4 0 .7 0 .9-.2.2-.2.3-.4.3-.7s-.2-.6-.4-.8c-.2 0-.4-.1-.9-.1h-.6v1.8zm0 2.4h.7c.6 0 .8 0 1-.2.3-.1.4-.4.4-.8 0-.6-.4-.9-1.2-.9h-.8v1.8zM195.7 248.2h.6v3.7h-.6v-.7c-.4.6-.8.8-1.3.8-1 0-1.7-.8-1.7-1.9s.7-1.9 1.8-1.9 1 .2 1.3.7v-.6zm-2.1.9c-.2.3-.3.6-.3 1 0 .8.5 1.4 1.2 1.4s1.3-.6 1.3-1.4-.5-1.4-1.2-1.4-.7.1-.9.4zM200.5 246.5h.6v5.3h-.6v-.6c-.4.5-.8.7-1.3.7-1 0-1.7-.8-1.7-1.9s.7-2 1.7-2 1 .2 1.3.6v-2.2zm-2.4 3.5c0 .8.5 1.4 1.2 1.4s1.2-.6 1.2-1.4-.5-1.4-1.2-1.4-1.2.6-1.2 1.4zM190.6 256.1h-1.7v1.4c.3-.1.5-.2.8-.2.9 0 1.6.7 1.6 1.7s-.8 1.8-1.8 1.8-1.3-.4-1.6-1.1l.6-.2c.1.2.2.3.3.4.2.2.5.3.8.3.6 0 1.1-.5 1.1-1.2s-.5-1.1-1.2-1.1-.8.2-1.2.5v-3h2.3v.6zM193.2 260.5c0 .2-.2.4-.4.4s-.4-.2-.4-.4.2-.4.4-.4.4.2.4.4zM197.2 258.3c.3.3.4.6.4 1 0 .9-.7 1.6-1.7 1.6s-1.6-.6-1.6-1.6.1-.8.4-1.1c.2-.2.3-.3.6-.4-.3 0-.4-.2-.5-.4-.2-.2-.3-.5-.3-.8 0-.8.6-1.3 1.5-1.3s1.4.6 1.4 1.3-.1.6-.3.8c-.1.2-.3.2-.5.3.3 0 .4.2.6.3zm-2.3 1c0 .6.5 1 1 1s1-.5 1-1-.5-1-1-1-1 .5-1 1zm.2-2.5c0 .5.4.8.8.8s.9-.4.9-.8-.4-.8-.8-.8-.9.3-.9.8zM201.7 257.2v.5c.3-.4.6-.6 1-.6s.8.2 1 .7c.3-.5.6-.7 1.2-.7s.7.1.9.4c.2.2.2.4.2 1v2.4h-.6v-2.2c0-.4 0-.6-.1-.7-.1-.2-.4-.3-.6-.3-.5 0-.8.4-.8 1v2.2h-.6v-2.2c0-.4 0-.5-.1-.7-.1-.2-.3-.3-.6-.3-.5 0-.9.4-.9 1v2.2h-.6v-3.7h.6zM209.3 258.4v.4h-2l1.2-1.6c.3-.5.4-.6.4-.8 0-.3-.2-.4-.5-.4s-.5.2-.5.6h-.4c0-.6.4-1 1-1s1 .3 1 .8-.1.5-.4.9l-.8 1.1h1.1z"/></g><g><path d="M166.6 317.4h-.7v-4.8h-1.4v-.6h3.4v.6h-1.4v4.8zM168.8 315.8c0 .3 0 .5.2.7.2.3.6.5 1 .5s.9-.2 1.1-.6l.5.2c-.3.6-.9 1-1.6 1-1.1 0-1.9-.8-1.9-1.9s.8-1.9 1.9-1.9 1.9.8 1.9 1.9v.2h-3.1zm2.4-.4c0-.3 0-.4-.2-.6-.2-.3-.6-.5-1-.5s-.8.2-1 .5c-.1.2-.2.3-.2.6h2.4zM173.5 313.8v.6c.1-.3.2-.4.3-.5.2-.1.4-.2.7-.2h.1v.6h-.2c-.3 0-.6.2-.8.4-.2.2-.2.4-.2.9v1.9h-.6v-3.7h.6zM176.2 313.8v.6c.1-.3.2-.4.3-.5.2-.1.4-.2.7-.2h.1v.6h-.2c-.3 0-.6.2-.8.4-.2.2-.2.4-.2.9v1.9h-.6v-3.7h.6zM181.1 313.8h.6v3.7h-.6v-.7c-.4.6-.8.8-1.3.8-1 0-1.7-.8-1.7-1.9s.7-1.9 1.8-1.9 1 .2 1.3.7v-.6zm-2.1.9c-.2.3-.3.6-.3 1 0 .8.5 1.4 1.2 1.4s1.3-.6 1.3-1.4-.5-1.4-1.2-1.4-.7.1-.9.4zM184.8 314.8c0-.4-.3-.6-.7-.6s-.7.2-.7.5.2.4.8.6c.5.1.7.2.9.4s.3.4.3.7c0 .6-.5 1.1-1.3 1.1s-1.3-.4-1.4-1.1h.6c0 .4.3.6.8.6s.7-.2.7-.5-.2-.5-.8-.6c-.8-.2-1.2-.6-1.2-1.1s.5-1.1 1.3-1.1 1.3.4 1.3 1.1h-.6zM188.4 314.8c0-.4-.3-.6-.7-.6s-.7.2-.7.5.2.4.8.6c.5.1.7.2.9.4s.3.4.3.7c0 .6-.5 1.1-1.3 1.1s-1.3-.4-1.4-1.1h.6c0 .4.3.6.8.6s.7-.2.7-.5-.2-.5-.8-.6c-.8-.2-1.2-.6-1.2-1.1s.5-1.1 1.3-1.1 1.3.4 1.3 1.1h-.6zM190.5 315.8c0 .3 0 .5.2.7.2.3.6.5 1 .5s.9-.2 1.1-.6l.5.2c-.3.6-.9 1-1.6 1-1.1 0-1.9-.8-1.9-1.9s.8-1.9 1.9-1.9 1.9.8 1.9 1.9v.2h-3.1zm2.4-.4c0-.3 0-.4-.2-.6-.2-.3-.6-.5-1-.5s-.8.2-1 .5c-.1.2-.2.3-.2.6h2.4zM165.3 322.9v-.6l1.8-1.2v5.4h-.6v-4.4l-1.2.8zM168.5 325.2v-.5l2.8-3.7v3.6h.6v.6h-.6v1.2h-.6v-1.2h-2.1zm2.1-2.6l-1.5 2h1.5v-2zM173.7 326.1c0 .2-.2.4-.4.4s-.4-.2-.4-.4.2-.4.4-.4.4.2.4.4zM178 324.8c0 .6-.1 1-.4 1.2-.3.3-.7.4-1.2.4s-1-.2-1.2-.5c-.3-.3-.4-.6-.4-1.4v-1.8c0-.7 0-1 .3-1.3.3-.3.7-.5 1.2-.5s.9.1 1.2.4c.3.3.4.6.4 1.2v2.1zm-2.5-.1c0 .6 0 .7.2.9.2.2.5.3.8.3s.6-.1.8-.4c.1-.2.2-.4.2-.8v-2c0-.4 0-.6-.3-.8-.2-.2-.4-.2-.7-.2s-.6.1-.8.4c-.1.2-.2.4-.2.8v1.8zM182.2 322.8v.5c.3-.4.6-.6 1-.6s.8.2 1 .7c.3-.5.6-.7 1.2-.7s.7.1.9.4c.2.2.2.4.2 1v2.4h-.6v-2.2c0-.4 0-.6-.1-.7-.1-.2-.4-.3-.6-.3-.5 0-.8.4-.8 1v2.2h-.6v-2.2c0-.4 0-.5-.1-.7-.1-.2-.3-.3-.6-.3-.5 0-.9.4-.9 1v2.2h-.6v-3.7h.6zM189.8 323.9v.4h-2l1.2-1.6c.3-.5.4-.6.4-.8 0-.3-.2-.4-.5-.4s-.5.2-.5.6h-.4c0-.6.4-1 1-1s1 .3 1 .8-.1.5-.4.9l-.8 1.1h1.1z"/></g><g><path d="M265.4 152.3h-.7V147h.7v2.5l2.1-2.5h.8l-2.2 2.6 2.2 2.7h-.9l-2-2.5v2.5zM272.4 150.5c0 1.1-.8 1.9-1.9 1.9s-1.9-.8-1.9-1.9.8-1.9 1.9-1.9 1.9.8 1.9 1.9zm-3.1 0c0 .8.5 1.4 1.3 1.4s1.2-.6 1.2-1.4-.5-1.4-1.2-1.4-1.3.6-1.3 1.4zM276.4 151.9c-.4.4-.8.5-1.4.5-1.1 0-1.8-.8-1.8-1.9s.8-1.9 1.8-1.9 1 .2 1.3.6l-.4.4c-.3-.3-.6-.4-.9-.4-.7 0-1.2.6-1.2 1.4s.5 1.4 1.2 1.4.6-.1.9-.4l.4.4zM278 149.2c.3-.4.7-.6 1.1-.6s.7.1.9.3c.2.2.3.5.3 1v2.5h-.6V150c0-.5-.2-.8-.7-.8s-.5.1-.7.3c-.2.2-.2.4-.2.7v2.2h-.6v-5.3h.6v2.2zM281.9 150.7c0 .3 0 .5.2.7.2.3.6.5 1 .5s.9-.2 1.1-.6l.5.2c-.3.6-.9 1-1.6 1-1.1 0-1.9-.8-1.9-1.9s.8-1.9 1.9-1.9 1.9.8 1.9 1.9v.2h-3.1zm2.4-.4c0-.3 0-.4-.2-.6-.2-.3-.6-.5-1-.5s-.8.2-1 .5c-.1.2-.2.3-.2.6h2.4zM286.7 148.6v.5c.3-.4.6-.6 1.1-.6s.6.1.9.3c.2.2.3.5.3 1v2.5h-.6v-2.4c0-.3 0-.5-.1-.6-.1-.2-.3-.2-.6-.2s-.5.1-.7.3c-.2.2-.2.4-.2.7v2.2h-.6v-3.7h.6zM290.2 153.6h-.4l.7-2.1.6.2-.8 1.9zM295.4 149.4h2.1v.6h-2.1v1.8h2.1v.6h-2.8v-5.3h2.8v.6h-2.1v1.8zM300.4 149.6c0-.4-.3-.6-.7-.6s-.7.2-.7.5.2.4.8.6c.5.1.7.2.9.4.2.2.3.4.3.7 0 .6-.5 1.1-1.3 1.1s-1.3-.4-1.4-1.1h.6c0 .4.3.6.8.6s.7-.2.7-.5-.2-.5-.8-.6c-.8-.2-1.2-.6-1.2-1.1s.5-1.1 1.3-1.1 1.3.4 1.3 1.1h-.6zM303.9 149.6c0-.4-.3-.6-.7-.6s-.7.2-.7.5.2.4.8.6c.5.1.7.2.9.4.2.2.3.4.3.7 0 .6-.5 1.1-1.3 1.1s-1.3-.4-1.4-1.1h.6c0 .4.3.6.8.6s.7-.2.7-.5-.2-.5-.8-.6c-.8-.2-1.2-.6-1.2-1.1s.5-1.1 1.3-1.1 1.3.4 1.3 1.1h-.6zM306.1 150.7c0 .3 0 .5.2.7.2.3.6.5 1 .5s.9-.2 1.1-.6l.5.2c-.3.6-.9 1-1.6 1-1.1 0-1.9-.8-1.9-1.9s.8-1.9 1.9-1.9 1.9.8 1.9 1.9v.2h-3.1zm2.4-.4c0-.3 0-.4-.2-.6-.2-.3-.6-.5-1-.5s-.8.2-1 .5c-.1.2-.2.3-.2.6h2.4zM310.8 148.6v.5c.3-.4.6-.6 1.1-.6s.6.1.9.3c.2.2.3.5.3 1v2.5h-.6v-2.4c0-.3 0-.5-.1-.6-.1-.2-.3-.2-.6-.2s-.5.1-.7.3c-.2.2-.2.4-.2.7v2.2h-.6v-3.7h.6zM314.4 153.6h-.4l.7-2.1.6.2-.8 1.9zM270.2 156h.7l-1.6 5.3h-.6l-1.2-4.2-1.2 4.2h-.6l-1.6-5.3h.7l1.2 4.1 1.2-4.1h.6l1.1 4.1 1.2-4.1zM275 159.5c0 1.1-.8 1.9-1.9 1.9s-1.9-.8-1.9-1.9.8-1.9 1.9-1.9 1.9.8 1.9 1.9zm-3.1 0c0 .8.5 1.4 1.3 1.4s1.2-.6 1.2-1.4-.5-1.4-1.2-1.4-1.3.6-1.3 1.4zM276.7 158.2c.3-.4.7-.6 1.1-.6s.7.1.9.3c.2.2.3.5.3 1v2.5h-.6V159c0-.5-.2-.8-.7-.8s-.5.1-.7.3c-.2.2-.2.4-.2.7v2.2h-.6v-5.3h.6v2.2zM280.9 157.6v.5c.3-.4.6-.6 1.1-.6s.6.1.9.3c.2.2.3.5.3 1v2.5h-.6v-2.4c0-.3 0-.5-.1-.6-.1-.2-.3-.2-.6-.2s-.5.1-.7.3c-.2.2-.2.4-.2.7v2.2h-.6v-3.7h.6zM284.9 159.7c0 .3 0 .5.2.7.2.3.6.5 1 .5s.9-.2 1.1-.6l.5.2c-.3.6-.9 1-1.6 1-1.1 0-1.9-.8-1.9-1.9s.8-1.9 1.9-1.9 1.9.8 1.9 1.9v.2h-3.1zm2.4-.4c0-.3 0-.4-.2-.6-.2-.3-.6-.5-1-.5s-.8.2-1 .5c-.1.2-.2.3-.2.6h2.4zM289.7 157.6v.5c.3-.4.6-.6 1.1-.6s.6.1.9.3c.2.2.3.5.3 1v2.5h-.6v-2.4c0-.3 0-.5-.1-.6-.1-.2-.3-.2-.6-.2s-.5.1-.7.3c-.2.2-.2.4-.2.7v2.2h-.6v-3.7h.6zM267 165.6h-1.7v1.4c.3-.1.5-.2.8-.2.9 0 1.6.7 1.6 1.7s-.8 1.8-1.8 1.8-1.3-.4-1.6-1.1l.6-.2c.1.2.2.3.3.4.2.2.5.3.8.3.6 0 1.1-.5 1.1-1.2s-.5-1.1-1.2-1.1-.8.2-1.2.5v-3h2.3v.6zM271.3 169.7v.6h-3l1.9-2.7c.5-.8.7-1 .7-1.3 0-.5-.4-.8-.9-.8s-.7.2-.8.4v.6h-.6c0-1 .6-1.6 1.5-1.6s1.5.5 1.5 1.3-.2.8-.6 1.5l-1.4 2h1.9zM273.4 170c0 .2-.2.4-.4.4s-.4-.2-.4-.4.2-.4.4-.4.4.2.4.4zM274.7 165.6v-.6h3l-1.6 2c.9 0 1.6.7 1.6 1.6s-.8 1.7-1.8 1.7-1.4-.5-1.6-1.3h.6c.1.4.5.7 1 .7s1.2-.5 1.2-1.1-.5-1.1-1.2-1.1-.4 0-.6.2l-.3-.2 1.5-1.9h-1.9zM281.9 166.6v.5c.3-.4.6-.6 1-.6s.8.2 1 .7c.3-.5.6-.7 1.2-.7s.7.1.9.4c.2.2.2.4.2 1v2.4h-.6v-2.2c0-.4 0-.6-.1-.7-.1-.2-.4-.3-.6-.3-.5 0-.8.4-.8 1v2.2h-.6v-2.2c0-.4 0-.5-.1-.7-.1-.2-.3-.3-.6-.3-.5 0-.9.4-.9 1v2.2h-.6v-3.7h.6zM289.5 167.8v.4h-2l1.2-1.6c.3-.5.4-.6.4-.8 0-.3-.2-.4-.5-.4s-.5.2-.5.6h-.4c0-.6.4-1 1-1s1 .3 1 .8-.1.5-.4.9l-.8 1.1h1.1z"/></g><g><path d="M365.6 205.7h1.4c1.6 0 2.6 1 2.6 2.6s-.3 1.6-.8 2.1c-.5.4-1.1.6-1.9.6h-1.3v-5.3zm.7 4.8h.2c.9 0 1.3 0 1.7-.4.5-.4.7-1 .7-1.8 0-1.3-.7-2-1.9-2h-.7v4.2zM373.6 207.4v2.4c0 .5 0 .8-.4 1-.3.2-.6.4-1.1.4s-.8-.1-1.1-.4c-.2-.2-.4-.6-.4-1v-2.4h.6v2.3c0 .5.3.9.8.9s.5-.1.7-.3c.1-.1.2-.3.2-.6v-2.4h.6zM376.6 208.4c0-.4-.3-.6-.7-.6s-.7.2-.7.5.2.4.8.6c.5.1.7.2.9.4.2.2.3.4.3.7 0 .6-.5 1.1-1.3 1.1s-1.3-.4-1.4-1.1h.6c0 .4.3.6.8.6s.7-.2.7-.5-.2-.5-.8-.6c-.8-.2-1.2-.6-1.2-1.1s.5-1.1 1.3-1.1 1.3.4 1.3 1.1h-.6zM381.3 210.6c-.4.4-.8.5-1.4.5-1.1 0-1.8-.8-1.8-1.9s.8-1.9 1.8-1.9 1 .2 1.3.6l-.4.4c-.3-.3-.6-.4-.9-.4-.7 0-1.2.6-1.2 1.4s.5 1.4 1.2 1.4.6-.1.9-.4l.4.4zM382.8 207.9c.3-.4.7-.6 1.1-.6s.7.1.9.3c.2.2.3.5.3 1v2.5h-.6v-2.4c0-.5-.2-.8-.7-.8s-.5.1-.7.3c-.2.2-.2.4-.2.7v2.2h-.6v-5.3h.6v2.2zM386.8 209.4c0 .3 0 .5.2.7.2.3.6.5 1 .5s.9-.2 1.1-.6l.5.2c-.3.6-.9 1-1.6 1-1.1 0-1.9-.8-1.9-1.9s.8-1.9 1.9-1.9 1.9.8 1.9 1.9v.2h-3.1zm2.4-.4c0-.3 0-.4-.2-.6-.2-.3-.6-.5-1-.5s-.8.2-1 .5c-.1.2-.2.3-.2.6h2.4zM365.3 218.9v-.5l2.8-3.7v3.6h.6v.6h-.6v1.2h-.6v-1.2h-2.1zm2.1-2.6l-1.5 2h1.5v-2zM370.4 219.7c0 .2-.2.4-.4.4s-.4-.2-.4-.4.2-.4.4-.4.4.2.4.4zM371.7 215.4v-.6h3l-2.1 5.3h-.7l1.9-4.7h-2zM378.8 216.4v.5c.3-.4.6-.6 1-.6s.8.2 1 .7c.3-.5.6-.7 1.2-.7s.7.1.9.4c.2.2.2.4.2 1v2.4h-.6v-2.2c0-.4 0-.6-.1-.7-.1-.2-.4-.3-.6-.3-.5 0-.8.4-.8 1v2.2h-.6v-2.2c0-.4 0-.5-.1-.7-.1-.2-.3-.3-.6-.3-.5 0-.9.4-.9 1v2.2h-.6v-3.7h.6zM386.4 217.6v.4h-2l1.2-1.6c.3-.5.4-.6.4-.8 0-.3-.2-.4-.5-.4s-.5.2-.5.6h-.4c0-.6.4-1 1-1s1 .3 1 .8-.1.5-.4.9l-.8 1.1h1.1z"/></g></g></svg>